{
    "header": {
        "PPQ": 480,
        "timeSignature": [
            4,
            8
        ],
        "bpm": 91.90993439162517,
        "name": "3. Movement"
    },
    "startTime": 0,
    "duration": 707.8124952500126,
    "tracks": [
        {
            "startTime": 0,
            "duration": 0,
            "length": 0,
            "notes": [],
            "controlChanges": {},
            "id": 0,
            "name": "3. Movement"
        },
        {
            "startTime": 70.503804,
            "duration": 671.0917640000127,
            "length": 709,
            "notes": [
                {
                    "name": "A5",
                    "midi": 81,
                    "time": 70.503804,
                    "velocity": 0.3779527559055118,
                    "duration": 0.10880216666666342
                },
                {
                    "name": "G5",
                    "midi": 79,
                    "time": 70.61260616666667,
                    "velocity": 0.2755905511811024,
                    "duration": 0.10880216666666342
                },
                {
                    "name": "A5",
                    "midi": 81,
                    "time": 70.72140833333333,
                    "velocity": 0.2992125984251969,
                    "duration": 0.10880216666666342
                },
                {
                    "name": "G5",
                    "midi": 79,
                    "time": 70.83021049999999,
                    "velocity": 0.2755905511811024,
                    "duration": 0.10880216666666342
                },
                {
                    "name": "A5",
                    "midi": 81,
                    "time": 70.93901266666666,
                    "velocity": 0.2992125984251969,
                    "duration": 0.10880216666666342
                },
                {
                    "name": "G5",
                    "midi": 79,
                    "time": 71.04781483333332,
                    "velocity": 0.28346456692913385,
                    "duration": 0.10880216666666342
                },
                {
                    "name": "A5",
                    "midi": 81,
                    "time": 71.15661699999998,
                    "velocity": 0.31496062992125984,
                    "duration": 0.10880216666666342
                },
                {
                    "name": "G5",
                    "midi": 79,
                    "time": 71.26541916666665,
                    "velocity": 0.28346456692913385,
                    "duration": 0.10880216666666342
                },
                {
                    "name": "A5",
                    "midi": 81,
                    "time": 71.37422133333331,
                    "velocity": 0.31496062992125984,
                    "duration": 0.10880216666666342
                },
                {
                    "name": "G5",
                    "midi": 79,
                    "time": 71.48302349999997,
                    "velocity": 0.28346456692913385,
                    "duration": 0.10880216666666342
                },
                {
                    "name": "A5",
                    "midi": 81,
                    "time": 71.59182566666664,
                    "velocity": 0.31496062992125984,
                    "duration": 0.10880216666666342
                },
                {
                    "name": "G5",
                    "midi": 79,
                    "time": 71.7006278333333,
                    "velocity": 0.28346456692913385,
                    "duration": 0.10880216666666342
                },
                {
                    "name": "A5",
                    "midi": 81,
                    "time": 71.80942999999996,
                    "velocity": 0.31496062992125984,
                    "duration": 0.10880216666666342
                },
                {
                    "name": "G5",
                    "midi": 79,
                    "time": 71.91823216666663,
                    "velocity": 0.29133858267716534,
                    "duration": 0.10880216666666342
                },
                {
                    "name": "A5",
                    "midi": 81,
                    "time": 72.02703433333329,
                    "velocity": 0.31496062992125984,
                    "duration": 0.10880216666666342
                },
                {
                    "name": "G5",
                    "midi": 79,
                    "time": 72.13583649999995,
                    "velocity": 0.28346456692913385,
                    "duration": 0.10880216666666342
                },
                {
                    "name": "A5",
                    "midi": 81,
                    "time": 72.24463866666662,
                    "velocity": 0.31496062992125984,
                    "duration": 0.10880216666666342
                },
                {
                    "name": "G5",
                    "midi": 79,
                    "time": 72.35344083333328,
                    "velocity": 0.28346456692913385,
                    "duration": 0.10880216666666342
                },
                {
                    "name": "A5",
                    "midi": 81,
                    "time": 72.46224299999994,
                    "velocity": 0.31496062992125984,
                    "duration": 0.10880216666666342
                },
                {
                    "name": "G5",
                    "midi": 79,
                    "time": 72.57104516666661,
                    "velocity": 0.2755905511811024,
                    "duration": 0.10880216666666342
                },
                {
                    "name": "A5",
                    "midi": 81,
                    "time": 72.67984733333327,
                    "velocity": 0.2992125984251969,
                    "duration": 0.10880216666666342
                },
                {
                    "name": "G5",
                    "midi": 79,
                    "time": 72.78864949999993,
                    "velocity": 0.25984251968503935,
                    "duration": 0.10880216666666342
                },
                {
                    "name": "A5",
                    "midi": 81,
                    "time": 72.8974516666666,
                    "velocity": 0.2992125984251969,
                    "duration": 0.10880216666666342
                },
                {
                    "name": "G5",
                    "midi": 79,
                    "time": 73.00625383333326,
                    "velocity": 0.2677165354330709,
                    "duration": 0.10880216666666342
                },
                {
                    "name": "A5",
                    "midi": 81,
                    "time": 73.11505599999992,
                    "velocity": 0.2992125984251969,
                    "duration": 0.10880216666666342
                },
                {
                    "name": "G5",
                    "midi": 79,
                    "time": 73.22385816666659,
                    "velocity": 0.2677165354330709,
                    "duration": 0.10880216666666342
                },
                {
                    "name": "A5",
                    "midi": 81,
                    "time": 73.33266033333325,
                    "velocity": 0.28346456692913385,
                    "duration": 0.10880216666666342
                },
                {
                    "name": "G5",
                    "midi": 79,
                    "time": 73.44146249999991,
                    "velocity": 0.25984251968503935,
                    "duration": 0.10880216666666342
                },
                {
                    "name": "A5",
                    "midi": 81,
                    "time": 73.55026466666658,
                    "velocity": 0.29133858267716534,
                    "duration": 0.10880216666666342
                },
                {
                    "name": "G5",
                    "midi": 79,
                    "time": 73.65906683333324,
                    "velocity": 0.25984251968503935,
                    "duration": 0.10880216666666342
                },
                {
                    "name": "A5",
                    "midi": 81,
                    "time": 73.7678689999999,
                    "velocity": 0.29133858267716534,
                    "duration": 0.10880216666666342
                },
                {
                    "name": "G5",
                    "midi": 79,
                    "time": 73.87667116666657,
                    "velocity": 0.25984251968503935,
                    "duration": 0.10880216666666342
                },
                {
                    "name": "A5",
                    "midi": 81,
                    "time": 73.98547333333323,
                    "velocity": 0.2992125984251969,
                    "duration": 0.10880216666666342
                },
                {
                    "name": "G5",
                    "midi": 79,
                    "time": 74.0942754999999,
                    "velocity": 0.25196850393700787,
                    "duration": 0.10880216666666342
                },
                {
                    "name": "A5",
                    "midi": 81,
                    "time": 74.20307766666656,
                    "velocity": 0.29133858267716534,
                    "duration": 0.10880216666666342
                },
                {
                    "name": "G5",
                    "midi": 79,
                    "time": 74.31187983333322,
                    "velocity": 0.25196850393700787,
                    "duration": 0.10880216666666342
                },
                {
                    "name": "A5",
                    "midi": 81,
                    "time": 74.42068199999989,
                    "velocity": 0.2992125984251969,
                    "duration": 0.10880216666666342
                },
                {
                    "name": "G5",
                    "midi": 79,
                    "time": 74.52948416666655,
                    "velocity": 0.25196850393700787,
                    "duration": 0.10880216666666342
                },
                {
                    "name": "A5",
                    "midi": 81,
                    "time": 74.63828633333321,
                    "velocity": 0.29133858267716534,
                    "duration": 0.10880216666666342
                },
                {
                    "name": "G5",
                    "midi": 79,
                    "time": 74.74708849999988,
                    "velocity": 0.25196850393700787,
                    "duration": 0.10880216666666342
                },
                {
                    "name": "A5",
                    "midi": 81,
                    "time": 74.85589066666654,
                    "velocity": 0.28346456692913385,
                    "duration": 0.10880216666666342
                },
                {
                    "name": "G5",
                    "midi": 79,
                    "time": 74.9646928333332,
                    "velocity": 0.25196850393700787,
                    "duration": 0.10880216666666342
                },
                {
                    "name": "A5",
                    "midi": 81,
                    "time": 75.07349499999987,
                    "velocity": 0.28346456692913385,
                    "duration": 0.10880216666666342
                },
                {
                    "name": "G5",
                    "midi": 79,
                    "time": 75.18229716666653,
                    "velocity": 0.2677165354330709,
                    "duration": 0.10880216666666342
                },
                {
                    "name": "A5",
                    "midi": 81,
                    "time": 75.2910993333332,
                    "velocity": 0.29133858267716534,
                    "duration": 0.10880216666666342
                },
                {
                    "name": "G5",
                    "midi": 79,
                    "time": 75.39990149999986,
                    "velocity": 0.25984251968503935,
                    "duration": 0.10880216666666342
                },
                {
                    "name": "A5",
                    "midi": 81,
                    "time": 75.50870366666652,
                    "velocity": 0.28346456692913385,
                    "duration": 0.10880216666666342
                },
                {
                    "name": "G5",
                    "midi": 79,
                    "time": 75.61750583333318,
                    "velocity": 0.25196850393700787,
                    "duration": 0.10880216666666342
                },
                {
                    "name": "A5",
                    "midi": 81,
                    "time": 75.72630799999985,
                    "velocity": 0.28346456692913385,
                    "duration": 0.10880216666666342
                },
                {
                    "name": "G5",
                    "midi": 79,
                    "time": 75.83511016666651,
                    "velocity": 0.25196850393700787,
                    "duration": 0.10880216666666342
                },
                {
                    "name": "A5",
                    "midi": 81,
                    "time": 75.94391233333317,
                    "velocity": 0.29133858267716534,
                    "duration": 0.10880216666666342
                },
                {
                    "name": "G5",
                    "midi": 79,
                    "time": 76.05271449999984,
                    "velocity": 0.25984251968503935,
                    "duration": 0.10880216666666342
                },
                {
                    "name": "A5",
                    "midi": 81,
                    "time": 76.1615166666665,
                    "velocity": 0.2992125984251969,
                    "duration": 0.10880216666666342
                },
                {
                    "name": "G5",
                    "midi": 79,
                    "time": 76.27031883333316,
                    "velocity": 0.25984251968503935,
                    "duration": 0.10880216666666342
                },
                {
                    "name": "A5",
                    "midi": 81,
                    "time": 76.37912099999983,
                    "velocity": 0.30708661417322836,
                    "duration": 0.10880216666666342
                },
                {
                    "name": "G5",
                    "midi": 79,
                    "time": 76.48792316666649,
                    "velocity": 0.2755905511811024,
                    "duration": 0.10880216666666342
                },
                {
                    "name": "A5",
                    "midi": 81,
                    "time": 76.59672533333315,
                    "velocity": 0.31496062992125984,
                    "duration": 0.10880216666666342
                },
                {
                    "name": "G5",
                    "midi": 79,
                    "time": 76.70552749999982,
                    "velocity": 0.28346456692913385,
                    "duration": 0.10880216666666342
                },
                {
                    "name": "A5",
                    "midi": 81,
                    "time": 76.81432966666648,
                    "velocity": 0.31496062992125984,
                    "duration": 0.10880216666666342
                },
                {
                    "name": "G5",
                    "midi": 79,
                    "time": 76.92313183333314,
                    "velocity": 0.28346456692913385,
                    "duration": 0.10880216666666342
                },
                {
                    "name": "A5",
                    "midi": 81,
                    "time": 77.03193399999981,
                    "velocity": 0.31496062992125984,
                    "duration": 0.10880216666666342
                },
                {
                    "name": "G5",
                    "midi": 79,
                    "time": 77.14073616666647,
                    "velocity": 0.29133858267716534,
                    "duration": 0.10880216666666342
                },
                {
                    "name": "A5",
                    "midi": 81,
                    "time": 77.24953833333313,
                    "velocity": 0.31496062992125984,
                    "duration": 0.10880216666666342
                },
                {
                    "name": "G5",
                    "midi": 79,
                    "time": 77.3583404999998,
                    "velocity": 0.28346456692913385,
                    "duration": 0.10880216666666342
                },
                {
                    "name": "A5",
                    "midi": 81,
                    "time": 77.46714266666646,
                    "velocity": 0.31496062992125984,
                    "duration": 0.10880216666666342
                },
                {
                    "name": "G5",
                    "midi": 79,
                    "time": 77.57594483333312,
                    "velocity": 0.28346456692913385,
                    "duration": 0.10880216666666342
                },
                {
                    "name": "A5",
                    "midi": 81,
                    "time": 77.68474699999979,
                    "velocity": 0.30708661417322836,
                    "duration": 0.10880216666666342
                },
                {
                    "name": "G5",
                    "midi": 79,
                    "time": 77.79354916666645,
                    "velocity": 0.28346456692913385,
                    "duration": 0.10880216666666342
                },
                {
                    "name": "A5",
                    "midi": 81,
                    "time": 77.90235133333312,
                    "velocity": 0.2992125984251969,
                    "duration": 0.10880216666666342
                },
                {
                    "name": "G5",
                    "midi": 79,
                    "time": 78.01115349999978,
                    "velocity": 0.25196850393700787,
                    "duration": 0.10880216666666342
                },
                {
                    "name": "A5",
                    "midi": 81,
                    "time": 78.11995566666644,
                    "velocity": 0.29133858267716534,
                    "duration": 0.10880216666666342
                },
                {
                    "name": "G5",
                    "midi": 79,
                    "time": 78.2287578333331,
                    "velocity": 0.25984251968503935,
                    "duration": 0.10880216666666342
                },
                {
                    "name": "A5",
                    "midi": 81,
                    "time": 78.33755999999977,
                    "velocity": 0.30708661417322836,
                    "duration": 0.10880216666666342
                },
                {
                    "name": "G5",
                    "midi": 79,
                    "time": 78.44636216666643,
                    "velocity": 0.25196850393700787,
                    "duration": 0.10880216666666342
                },
                {
                    "name": "A5",
                    "midi": 81,
                    "time": 78.5551643333331,
                    "velocity": 0.28346456692913385,
                    "duration": 0.10880216666666342
                },
                {
                    "name": "G5",
                    "midi": 79,
                    "time": 78.66396649999976,
                    "velocity": 0.2440944881889764,
                    "duration": 0.10880216666666342
                },
                {
                    "name": "A5",
                    "midi": 81,
                    "time": 78.77276866666642,
                    "velocity": 0.28346456692913385,
                    "duration": 0.10880216666666342
                },
                {
                    "name": "G5",
                    "midi": 79,
                    "time": 78.88157083333309,
                    "velocity": 0.23622047244094488,
                    "duration": 0.10880216666666342
                },
                {
                    "name": "A5",
                    "midi": 81,
                    "time": 78.99037299999975,
                    "velocity": 0.28346456692913385,
                    "duration": 0.10880216666666342
                },
                {
                    "name": "G5",
                    "midi": 79,
                    "time": 79.09917516666641,
                    "velocity": 0.2440944881889764,
                    "duration": 0.10880216666666342
                },
                {
                    "name": "A5",
                    "midi": 81,
                    "time": 79.20797733333308,
                    "velocity": 0.28346456692913385,
                    "duration": 0.10880216666666342
                },
                {
                    "name": "G5",
                    "midi": 79,
                    "time": 79.31677949999974,
                    "velocity": 0.2677165354330709,
                    "duration": 0.10880216666666342
                },
                {
                    "name": "F#5",
                    "midi": 78,
                    "time": 79.4255816666664,
                    "velocity": 0.28346456692913385,
                    "duration": 0.10880216666666342
                },
                {
                    "name": "G5",
                    "midi": 79,
                    "time": 79.53438383333307,
                    "velocity": 0.2440944881889764,
                    "duration": 0.10880216666666342
                },
                {
                    "name": "A5",
                    "midi": 81,
                    "time": 218.03954199999973,
                    "velocity": 0.3779527559055118,
                    "duration": 0.10880216666666342
                },
                {
                    "name": "G5",
                    "midi": 79,
                    "time": 218.1483441666664,
                    "velocity": 0.2755905511811024,
                    "duration": 0.10880216666666342
                },
                {
                    "name": "A5",
                    "midi": 81,
                    "time": 218.25714633333305,
                    "velocity": 0.2992125984251969,
                    "duration": 0.10880216666666342
                },
                {
                    "name": "G5",
                    "midi": 79,
                    "time": 218.36594849999972,
                    "velocity": 0.2755905511811024,
                    "duration": 0.10880216666666342
                },
                {
                    "name": "A5",
                    "midi": 81,
                    "time": 218.47475066666638,
                    "velocity": 0.2992125984251969,
                    "duration": 0.10880216666666342
                },
                {
                    "name": "G5",
                    "midi": 79,
                    "time": 218.58355283333304,
                    "velocity": 0.28346456692913385,
                    "duration": 0.10880216666666342
                },
                {
                    "name": "A5",
                    "midi": 81,
                    "time": 218.6923549999997,
                    "velocity": 0.31496062992125984,
                    "duration": 0.10880216666666342
                },
                {
                    "name": "G5",
                    "midi": 79,
                    "time": 218.80115716666637,
                    "velocity": 0.28346456692913385,
                    "duration": 0.10880216666666342
                },
                {
                    "name": "A5",
                    "midi": 81,
                    "time": 218.90995933333303,
                    "velocity": 0.31496062992125984,
                    "duration": 0.10880216666666342
                },
                {
                    "name": "G5",
                    "midi": 79,
                    "time": 219.0187614999997,
                    "velocity": 0.28346456692913385,
                    "duration": 0.10880216666666342
                },
                {
                    "name": "A5",
                    "midi": 81,
                    "time": 219.12756366666636,
                    "velocity": 0.31496062992125984,
                    "duration": 0.10880216666666342
                },
                {
                    "name": "G5",
                    "midi": 79,
                    "time": 219.23636583333302,
                    "velocity": 0.28346456692913385,
                    "duration": 0.10880216666666342
                },
                {
                    "name": "A5",
                    "midi": 81,
                    "time": 219.3451679999997,
                    "velocity": 0.31496062992125984,
                    "duration": 0.10880216666666342
                },
                {
                    "name": "G5",
                    "midi": 79,
                    "time": 219.45397016666635,
                    "velocity": 0.29133858267716534,
                    "duration": 0.10880216666666342
                },
                {
                    "name": "A5",
                    "midi": 81,
                    "time": 219.56277233333302,
                    "velocity": 0.31496062992125984,
                    "duration": 0.10880216666666342
                },
                {
                    "name": "G5",
                    "midi": 79,
                    "time": 219.67157449999968,
                    "velocity": 0.28346456692913385,
                    "duration": 0.10880216666666342
                },
                {
                    "name": "A5",
                    "midi": 81,
                    "time": 219.78037666666634,
                    "velocity": 0.31496062992125984,
                    "duration": 0.10880216666666342
                },
                {
                    "name": "G5",
                    "midi": 79,
                    "time": 219.889178833333,
                    "velocity": 0.28346456692913385,
                    "duration": 0.10880216666666342
                },
                {
                    "name": "A5",
                    "midi": 81,
                    "time": 219.99798099999967,
                    "velocity": 0.31496062992125984,
                    "duration": 0.10880216666666342
                },
                {
                    "name": "G5",
                    "midi": 79,
                    "time": 220.10678316666633,
                    "velocity": 0.2755905511811024,
                    "duration": 0.10880216666666342
                },
                {
                    "name": "A5",
                    "midi": 81,
                    "time": 220.215585333333,
                    "velocity": 0.2992125984251969,
                    "duration": 0.10880216666666342
                },
                {
                    "name": "G5",
                    "midi": 79,
                    "time": 220.32438749999966,
                    "velocity": 0.25984251968503935,
                    "duration": 0.10880216666666342
                },
                {
                    "name": "A5",
                    "midi": 81,
                    "time": 220.43318966666632,
                    "velocity": 0.2992125984251969,
                    "duration": 0.10880216666666342
                },
                {
                    "name": "G5",
                    "midi": 79,
                    "time": 220.541991833333,
                    "velocity": 0.2677165354330709,
                    "duration": 0.10880216666666342
                },
                {
                    "name": "A5",
                    "midi": 81,
                    "time": 220.65079399999965,
                    "velocity": 0.2992125984251969,
                    "duration": 0.10880216666666342
                },
                {
                    "name": "G5",
                    "midi": 79,
                    "time": 220.7595961666663,
                    "velocity": 0.2677165354330709,
                    "duration": 0.10880216666666342
                },
                {
                    "name": "A5",
                    "midi": 81,
                    "time": 220.86839833333298,
                    "velocity": 0.28346456692913385,
                    "duration": 0.10880216666666342
                },
                {
                    "name": "G5",
                    "midi": 79,
                    "time": 220.97720049999964,
                    "velocity": 0.25984251968503935,
                    "duration": 0.10880216666666342
                },
                {
                    "name": "A5",
                    "midi": 81,
                    "time": 221.0860026666663,
                    "velocity": 0.29133858267716534,
                    "duration": 0.10880216666666342
                },
                {
                    "name": "G5",
                    "midi": 79,
                    "time": 221.19480483333297,
                    "velocity": 0.25984251968503935,
                    "duration": 0.10880216666666342
                },
                {
                    "name": "A5",
                    "midi": 81,
                    "time": 221.30360699999963,
                    "velocity": 0.29133858267716534,
                    "duration": 0.10880216666666342
                },
                {
                    "name": "G5",
                    "midi": 79,
                    "time": 221.4124091666663,
                    "velocity": 0.25984251968503935,
                    "duration": 0.10880216666666342
                },
                {
                    "name": "A5",
                    "midi": 81,
                    "time": 221.52121133333296,
                    "velocity": 0.2992125984251969,
                    "duration": 0.10880216666666342
                },
                {
                    "name": "G5",
                    "midi": 79,
                    "time": 221.63001349999962,
                    "velocity": 0.25196850393700787,
                    "duration": 0.10880216666666342
                },
                {
                    "name": "A5",
                    "midi": 81,
                    "time": 221.73881566666628,
                    "velocity": 0.29133858267716534,
                    "duration": 0.10880216666666342
                },
                {
                    "name": "G5",
                    "midi": 79,
                    "time": 221.84761783333295,
                    "velocity": 0.25196850393700787,
                    "duration": 0.10880216666666342
                },
                {
                    "name": "A5",
                    "midi": 81,
                    "time": 221.9564199999996,
                    "velocity": 0.2992125984251969,
                    "duration": 0.10880216666666342
                },
                {
                    "name": "G5",
                    "midi": 79,
                    "time": 222.06522216666627,
                    "velocity": 0.25196850393700787,
                    "duration": 0.10880216666666342
                },
                {
                    "name": "A5",
                    "midi": 81,
                    "time": 222.17402433333294,
                    "velocity": 0.29133858267716534,
                    "duration": 0.10880216666666342
                },
                {
                    "name": "G5",
                    "midi": 79,
                    "time": 222.2828264999996,
                    "velocity": 0.25196850393700787,
                    "duration": 0.10880216666666342
                },
                {
                    "name": "A5",
                    "midi": 81,
                    "time": 222.39162866666626,
                    "velocity": 0.28346456692913385,
                    "duration": 0.10880216666666342
                },
                {
                    "name": "G5",
                    "midi": 79,
                    "time": 222.50043083333293,
                    "velocity": 0.25196850393700787,
                    "duration": 0.10880216666666342
                },
                {
                    "name": "A5",
                    "midi": 81,
                    "time": 222.6092329999996,
                    "velocity": 0.28346456692913385,
                    "duration": 0.10880216666666342
                },
                {
                    "name": "G5",
                    "midi": 79,
                    "time": 222.71803516666625,
                    "velocity": 0.2677165354330709,
                    "duration": 0.10880216666666342
                },
                {
                    "name": "A5",
                    "midi": 81,
                    "time": 222.82683733333292,
                    "velocity": 0.29133858267716534,
                    "duration": 0.10880216666666342
                },
                {
                    "name": "G5",
                    "midi": 79,
                    "time": 222.93563949999958,
                    "velocity": 0.25984251968503935,
                    "duration": 0.10880216666666342
                },
                {
                    "name": "A5",
                    "midi": 81,
                    "time": 223.04444166666624,
                    "velocity": 0.28346456692913385,
                    "duration": 0.10880216666666342
                },
                {
                    "name": "G5",
                    "midi": 79,
                    "time": 223.1532438333329,
                    "velocity": 0.25196850393700787,
                    "duration": 0.10880216666666342
                },
                {
                    "name": "A5",
                    "midi": 81,
                    "time": 223.26204599999957,
                    "velocity": 0.28346456692913385,
                    "duration": 0.10880216666666342
                },
                {
                    "name": "G5",
                    "midi": 79,
                    "time": 223.37084816666624,
                    "velocity": 0.25196850393700787,
                    "duration": 0.10880216666666342
                },
                {
                    "name": "A5",
                    "midi": 81,
                    "time": 223.4796503333329,
                    "velocity": 0.29133858267716534,
                    "duration": 0.10880216666666342
                },
                {
                    "name": "G5",
                    "midi": 79,
                    "time": 223.58845249999956,
                    "velocity": 0.25984251968503935,
                    "duration": 0.10880216666666342
                },
                {
                    "name": "A5",
                    "midi": 81,
                    "time": 223.69725466666623,
                    "velocity": 0.2992125984251969,
                    "duration": 0.10880216666666342
                },
                {
                    "name": "G5",
                    "midi": 79,
                    "time": 223.8060568333329,
                    "velocity": 0.25984251968503935,
                    "duration": 0.10880216666666342
                },
                {
                    "name": "A5",
                    "midi": 81,
                    "time": 223.91485899999955,
                    "velocity": 0.30708661417322836,
                    "duration": 0.10880216666666342
                },
                {
                    "name": "G5",
                    "midi": 79,
                    "time": 224.02366116666622,
                    "velocity": 0.2755905511811024,
                    "duration": 0.10880216666666342
                },
                {
                    "name": "A5",
                    "midi": 81,
                    "time": 224.13246333333288,
                    "velocity": 0.31496062992125984,
                    "duration": 0.10880216666666342
                },
                {
                    "name": "G5",
                    "midi": 79,
                    "time": 224.24126549999954,
                    "velocity": 0.28346456692913385,
                    "duration": 0.10880216666666342
                },
                {
                    "name": "A5",
                    "midi": 81,
                    "time": 224.3500676666662,
                    "velocity": 0.31496062992125984,
                    "duration": 0.10880216666666342
                },
                {
                    "name": "G5",
                    "midi": 79,
                    "time": 224.45886983333287,
                    "velocity": 0.28346456692913385,
                    "duration": 0.10880216666666342
                },
                {
                    "name": "A5",
                    "midi": 81,
                    "time": 224.56767199999953,
                    "velocity": 0.31496062992125984,
                    "duration": 0.10880216666666342
                },
                {
                    "name": "G5",
                    "midi": 79,
                    "time": 224.6764741666662,
                    "velocity": 0.29133858267716534,
                    "duration": 0.10880216666666342
                },
                {
                    "name": "A5",
                    "midi": 81,
                    "time": 224.78527633333286,
                    "velocity": 0.31496062992125984,
                    "duration": 0.10880216666666342
                },
                {
                    "name": "G5",
                    "midi": 79,
                    "time": 224.89407849999952,
                    "velocity": 0.28346456692913385,
                    "duration": 0.10880216666666342
                },
                {
                    "name": "A5",
                    "midi": 81,
                    "time": 225.0028806666662,
                    "velocity": 0.31496062992125984,
                    "duration": 0.10880216666666342
                },
                {
                    "name": "G5",
                    "midi": 79,
                    "time": 225.11168283333285,
                    "velocity": 0.28346456692913385,
                    "duration": 0.10880216666666342
                },
                {
                    "name": "A5",
                    "midi": 81,
                    "time": 225.2204849999995,
                    "velocity": 0.30708661417322836,
                    "duration": 0.10880216666666342
                },
                {
                    "name": "G5",
                    "midi": 79,
                    "time": 225.32928716666618,
                    "velocity": 0.28346456692913385,
                    "duration": 0.10880216666666342
                },
                {
                    "name": "A5",
                    "midi": 81,
                    "time": 225.43808933333284,
                    "velocity": 0.2992125984251969,
                    "duration": 0.10880216666666342
                },
                {
                    "name": "G5",
                    "midi": 79,
                    "time": 225.5468914999995,
                    "velocity": 0.25196850393700787,
                    "duration": 0.10880216666666342
                },
                {
                    "name": "A5",
                    "midi": 81,
                    "time": 225.65569366666617,
                    "velocity": 0.29133858267716534,
                    "duration": 0.10880216666666342
                },
                {
                    "name": "G5",
                    "midi": 79,
                    "time": 225.76449583333283,
                    "velocity": 0.25984251968503935,
                    "duration": 0.10880216666666342
                },
                {
                    "name": "A5",
                    "midi": 81,
                    "time": 225.8732979999995,
                    "velocity": 0.30708661417322836,
                    "duration": 0.10880216666666342
                },
                {
                    "name": "G5",
                    "midi": 79,
                    "time": 225.98210016666616,
                    "velocity": 0.25196850393700787,
                    "duration": 0.10880216666666342
                },
                {
                    "name": "A5",
                    "midi": 81,
                    "time": 226.09090233333282,
                    "velocity": 0.28346456692913385,
                    "duration": 0.10880216666666342
                },
                {
                    "name": "G5",
                    "midi": 79,
                    "time": 226.19970449999948,
                    "velocity": 0.2440944881889764,
                    "duration": 0.10880216666666342
                },
                {
                    "name": "A5",
                    "midi": 81,
                    "time": 226.30850666666615,
                    "velocity": 0.28346456692913385,
                    "duration": 0.10880216666666342
                },
                {
                    "name": "G5",
                    "midi": 79,
                    "time": 226.4173088333328,
                    "velocity": 0.23622047244094488,
                    "duration": 0.10880216666666342
                },
                {
                    "name": "A5",
                    "midi": 81,
                    "time": 226.52611099999947,
                    "velocity": 0.28346456692913385,
                    "duration": 0.10880216666666342
                },
                {
                    "name": "G5",
                    "midi": 79,
                    "time": 226.63491316666614,
                    "velocity": 0.2440944881889764,
                    "duration": 0.10880216666666342
                },
                {
                    "name": "A5",
                    "midi": 81,
                    "time": 226.7437153333328,
                    "velocity": 0.28346456692913385,
                    "duration": 0.10880216666666342
                },
                {
                    "name": "G5",
                    "midi": 79,
                    "time": 226.85251749999946,
                    "velocity": 0.2677165354330709,
                    "duration": 0.10880216666666342
                },
                {
                    "name": "F#5",
                    "midi": 78,
                    "time": 226.96131966666613,
                    "velocity": 0.28346456692913385,
                    "duration": 0.10880216666666342
                },
                {
                    "name": "G5",
                    "midi": 79,
                    "time": 227.0701218333328,
                    "velocity": 0.2440944881889764,
                    "duration": 0.10880216666666342
                },
                {
                    "name": "A5",
                    "midi": 81,
                    "time": 438.69033599999943,
                    "velocity": 0.3779527559055118,
                    "duration": 0.10880216666669185
                },
                {
                    "name": "G5",
                    "midi": 79,
                    "time": 438.7991381666661,
                    "velocity": 0.2755905511811024,
                    "duration": 0.10880216666669185
                },
                {
                    "name": "A5",
                    "midi": 81,
                    "time": 438.9079403333328,
                    "velocity": 0.2992125984251969,
                    "duration": 0.10880216666669185
                },
                {
                    "name": "G5",
                    "midi": 79,
                    "time": 439.0167424999995,
                    "velocity": 0.2755905511811024,
                    "duration": 0.10880216666669185
                },
                {
                    "name": "A5",
                    "midi": 81,
                    "time": 439.1255446666662,
                    "velocity": 0.2992125984251969,
                    "duration": 0.10880216666669185
                },
                {
                    "name": "G5",
                    "midi": 79,
                    "time": 439.2343468333329,
                    "velocity": 0.28346456692913385,
                    "duration": 0.10880216666669185
                },
                {
                    "name": "A5",
                    "midi": 81,
                    "time": 439.3431489999996,
                    "velocity": 0.31496062992125984,
                    "duration": 0.10880216666669185
                },
                {
                    "name": "G5",
                    "midi": 79,
                    "time": 439.4519511666663,
                    "velocity": 0.28346456692913385,
                    "duration": 0.10880216666669185
                },
                {
                    "name": "A5",
                    "midi": 81,
                    "time": 439.56075333333297,
                    "velocity": 0.31496062992125984,
                    "duration": 0.10880216666669185
                },
                {
                    "name": "G5",
                    "midi": 79,
                    "time": 439.66955549999966,
                    "velocity": 0.28346456692913385,
                    "duration": 0.10880216666669185
                },
                {
                    "name": "A5",
                    "midi": 81,
                    "time": 439.77835766666635,
                    "velocity": 0.31496062992125984,
                    "duration": 0.10880216666669185
                },
                {
                    "name": "G5",
                    "midi": 79,
                    "time": 439.88715983333304,
                    "velocity": 0.28346456692913385,
                    "duration": 0.10880216666669185
                },
                {
                    "name": "A5",
                    "midi": 81,
                    "time": 439.99596199999974,
                    "velocity": 0.31496062992125984,
                    "duration": 0.10880216666669185
                },
                {
                    "name": "G5",
                    "midi": 79,
                    "time": 440.1047641666664,
                    "velocity": 0.29133858267716534,
                    "duration": 0.10880216666669185
                },
                {
                    "name": "A5",
                    "midi": 81,
                    "time": 440.2135663333331,
                    "velocity": 0.31496062992125984,
                    "duration": 0.10880216666669185
                },
                {
                    "name": "G5",
                    "midi": 79,
                    "time": 440.3223684999998,
                    "velocity": 0.28346456692913385,
                    "duration": 0.10880216666669185
                },
                {
                    "name": "A5",
                    "midi": 81,
                    "time": 440.4311706666665,
                    "velocity": 0.31496062992125984,
                    "duration": 0.10880216666669185
                },
                {
                    "name": "G5",
                    "midi": 79,
                    "time": 440.5399728333332,
                    "velocity": 0.28346456692913385,
                    "duration": 0.10880216666669185
                },
                {
                    "name": "A5",
                    "midi": 81,
                    "time": 440.6487749999999,
                    "velocity": 0.31496062992125984,
                    "duration": 0.10880216666669185
                },
                {
                    "name": "G5",
                    "midi": 79,
                    "time": 440.7575771666666,
                    "velocity": 0.2755905511811024,
                    "duration": 0.10880216666669185
                },
                {
                    "name": "A5",
                    "midi": 81,
                    "time": 440.86637933333327,
                    "velocity": 0.2992125984251969,
                    "duration": 0.10880216666669185
                },
                {
                    "name": "G5",
                    "midi": 79,
                    "time": 440.97518149999996,
                    "velocity": 0.25984251968503935,
                    "duration": 0.10880216666669185
                },
                {
                    "name": "A5",
                    "midi": 81,
                    "time": 441.08398366666665,
                    "velocity": 0.2992125984251969,
                    "duration": 0.10880216666669185
                },
                {
                    "name": "G5",
                    "midi": 79,
                    "time": 441.19278583333335,
                    "velocity": 0.2677165354330709,
                    "duration": 0.10880216666669185
                },
                {
                    "name": "A5",
                    "midi": 81,
                    "time": 441.30158800000004,
                    "velocity": 0.2992125984251969,
                    "duration": 0.10880216666669185
                },
                {
                    "name": "G5",
                    "midi": 79,
                    "time": 441.41039016666673,
                    "velocity": 0.2677165354330709,
                    "duration": 0.10880216666669185
                },
                {
                    "name": "A5",
                    "midi": 81,
                    "time": 441.5191923333334,
                    "velocity": 0.28346456692913385,
                    "duration": 0.10880216666669185
                },
                {
                    "name": "G5",
                    "midi": 79,
                    "time": 441.6279945000001,
                    "velocity": 0.25984251968503935,
                    "duration": 0.10880216666669185
                },
                {
                    "name": "A5",
                    "midi": 81,
                    "time": 441.7367966666668,
                    "velocity": 0.29133858267716534,
                    "duration": 0.10880216666669185
                },
                {
                    "name": "G5",
                    "midi": 79,
                    "time": 441.8455988333335,
                    "velocity": 0.25984251968503935,
                    "duration": 0.10880216666669185
                },
                {
                    "name": "A5",
                    "midi": 81,
                    "time": 441.9544010000002,
                    "velocity": 0.29133858267716534,
                    "duration": 0.10880216666669185
                },
                {
                    "name": "G5",
                    "midi": 79,
                    "time": 442.0632031666669,
                    "velocity": 0.25984251968503935,
                    "duration": 0.10880216666669185
                },
                {
                    "name": "A5",
                    "midi": 81,
                    "time": 442.1720053333336,
                    "velocity": 0.2992125984251969,
                    "duration": 0.10880216666669185
                },
                {
                    "name": "G5",
                    "midi": 79,
                    "time": 442.28080750000026,
                    "velocity": 0.25196850393700787,
                    "duration": 0.10880216666669185
                },
                {
                    "name": "A5",
                    "midi": 81,
                    "time": 442.38960966666696,
                    "velocity": 0.29133858267716534,
                    "duration": 0.10880216666669185
                },
                {
                    "name": "G5",
                    "midi": 79,
                    "time": 442.49841183333365,
                    "velocity": 0.25196850393700787,
                    "duration": 0.10880216666669185
                },
                {
                    "name": "A5",
                    "midi": 81,
                    "time": 442.60721400000034,
                    "velocity": 0.2992125984251969,
                    "duration": 0.10880216666669185
                },
                {
                    "name": "G5",
                    "midi": 79,
                    "time": 442.71601616666703,
                    "velocity": 0.25196850393700787,
                    "duration": 0.10880216666669185
                },
                {
                    "name": "A5",
                    "midi": 81,
                    "time": 442.8248183333337,
                    "velocity": 0.29133858267716534,
                    "duration": 0.10880216666669185
                },
                {
                    "name": "G5",
                    "midi": 79,
                    "time": 442.9336205000004,
                    "velocity": 0.25196850393700787,
                    "duration": 0.10880216666669185
                },
                {
                    "name": "A5",
                    "midi": 81,
                    "time": 443.0424226666671,
                    "velocity": 0.28346456692913385,
                    "duration": 0.10880216666669185
                },
                {
                    "name": "G5",
                    "midi": 79,
                    "time": 443.1512248333338,
                    "velocity": 0.25196850393700787,
                    "duration": 0.10880216666669185
                },
                {
                    "name": "A5",
                    "midi": 81,
                    "time": 443.2600270000005,
                    "velocity": 0.28346456692913385,
                    "duration": 0.10880216666669185
                },
                {
                    "name": "G5",
                    "midi": 79,
                    "time": 443.3688291666672,
                    "velocity": 0.2677165354330709,
                    "duration": 0.10880216666669185
                },
                {
                    "name": "A5",
                    "midi": 81,
                    "time": 443.4776313333339,
                    "velocity": 0.29133858267716534,
                    "duration": 0.10880216666669185
                },
                {
                    "name": "G5",
                    "midi": 79,
                    "time": 443.58643350000057,
                    "velocity": 0.25984251968503935,
                    "duration": 0.10880216666669185
                },
                {
                    "name": "A5",
                    "midi": 81,
                    "time": 443.69523566666726,
                    "velocity": 0.28346456692913385,
                    "duration": 0.10880216666669185
                },
                {
                    "name": "G5",
                    "midi": 79,
                    "time": 443.80403783333395,
                    "velocity": 0.25196850393700787,
                    "duration": 0.10880216666669185
                },
                {
                    "name": "A5",
                    "midi": 81,
                    "time": 443.91284000000064,
                    "velocity": 0.28346456692913385,
                    "duration": 0.10880216666669185
                },
                {
                    "name": "G5",
                    "midi": 79,
                    "time": 444.02164216666733,
                    "velocity": 0.25196850393700787,
                    "duration": 0.10880216666669185
                },
                {
                    "name": "A5",
                    "midi": 81,
                    "time": 444.130444333334,
                    "velocity": 0.29133858267716534,
                    "duration": 0.10880216666669185
                },
                {
                    "name": "G5",
                    "midi": 79,
                    "time": 444.2392465000007,
                    "velocity": 0.25984251968503935,
                    "duration": 0.10880216666669185
                },
                {
                    "name": "A5",
                    "midi": 81,
                    "time": 444.3480486666674,
                    "velocity": 0.2992125984251969,
                    "duration": 0.10880216666669185
                },
                {
                    "name": "G5",
                    "midi": 79,
                    "time": 444.4568508333341,
                    "velocity": 0.25984251968503935,
                    "duration": 0.10880216666669185
                },
                {
                    "name": "A5",
                    "midi": 81,
                    "time": 444.5656530000008,
                    "velocity": 0.30708661417322836,
                    "duration": 0.10880216666669185
                },
                {
                    "name": "G5",
                    "midi": 79,
                    "time": 444.6744551666675,
                    "velocity": 0.2755905511811024,
                    "duration": 0.10880216666669185
                },
                {
                    "name": "A5",
                    "midi": 81,
                    "time": 444.7832573333342,
                    "velocity": 0.31496062992125984,
                    "duration": 0.10880216666669185
                },
                {
                    "name": "G5",
                    "midi": 79,
                    "time": 444.89205950000087,
                    "velocity": 0.28346456692913385,
                    "duration": 0.10880216666669185
                },
                {
                    "name": "A5",
                    "midi": 81,
                    "time": 445.00086166666756,
                    "velocity": 0.31496062992125984,
                    "duration": 0.10880216666669185
                },
                {
                    "name": "G5",
                    "midi": 79,
                    "time": 445.10966383333425,
                    "velocity": 0.28346456692913385,
                    "duration": 0.10880216666669185
                },
                {
                    "name": "A5",
                    "midi": 81,
                    "time": 445.21846600000094,
                    "velocity": 0.31496062992125984,
                    "duration": 0.10880216666669185
                },
                {
                    "name": "G5",
                    "midi": 79,
                    "time": 445.32726816666764,
                    "velocity": 0.29133858267716534,
                    "duration": 0.10880216666669185
                },
                {
                    "name": "A5",
                    "midi": 81,
                    "time": 445.4360703333343,
                    "velocity": 0.31496062992125984,
                    "duration": 0.10880216666669185
                },
                {
                    "name": "G5",
                    "midi": 79,
                    "time": 445.544872500001,
                    "velocity": 0.28346456692913385,
                    "duration": 0.10880216666669185
                },
                {
                    "name": "A5",
                    "midi": 81,
                    "time": 445.6536746666677,
                    "velocity": 0.31496062992125984,
                    "duration": 0.10880216666669185
                },
                {
                    "name": "G5",
                    "midi": 79,
                    "time": 445.7624768333344,
                    "velocity": 0.28346456692913385,
                    "duration": 0.10880216666669185
                },
                {
                    "name": "A5",
                    "midi": 81,
                    "time": 445.8712790000011,
                    "velocity": 0.30708661417322836,
                    "duration": 0.10880216666669185
                },
                {
                    "name": "G5",
                    "midi": 79,
                    "time": 445.9800811666678,
                    "velocity": 0.28346456692913385,
                    "duration": 0.10880216666669185
                },
                {
                    "name": "A5",
                    "midi": 81,
                    "time": 446.0888833333345,
                    "velocity": 0.2992125984251969,
                    "duration": 0.10880216666669185
                },
                {
                    "name": "G5",
                    "midi": 79,
                    "time": 446.19768550000117,
                    "velocity": 0.25196850393700787,
                    "duration": 0.10880216666669185
                },
                {
                    "name": "A5",
                    "midi": 81,
                    "time": 446.30648766666786,
                    "velocity": 0.29133858267716534,
                    "duration": 0.10880216666669185
                },
                {
                    "name": "G5",
                    "midi": 79,
                    "time": 446.41528983333455,
                    "velocity": 0.25984251968503935,
                    "duration": 0.10880216666669185
                },
                {
                    "name": "A5",
                    "midi": 81,
                    "time": 446.52409200000125,
                    "velocity": 0.30708661417322836,
                    "duration": 0.10880216666669185
                },
                {
                    "name": "G5",
                    "midi": 79,
                    "time": 446.63289416666794,
                    "velocity": 0.25196850393700787,
                    "duration": 0.10880216666669185
                },
                {
                    "name": "A5",
                    "midi": 81,
                    "time": 446.74169633333463,
                    "velocity": 0.28346456692913385,
                    "duration": 0.10880216666669185
                },
                {
                    "name": "G5",
                    "midi": 79,
                    "time": 446.8504985000013,
                    "velocity": 0.2440944881889764,
                    "duration": 0.10880216666669185
                },
                {
                    "name": "A5",
                    "midi": 81,
                    "time": 446.959300666668,
                    "velocity": 0.28346456692913385,
                    "duration": 0.10880216666669185
                },
                {
                    "name": "G5",
                    "midi": 79,
                    "time": 447.0681028333347,
                    "velocity": 0.23622047244094488,
                    "duration": 0.10880216666669185
                },
                {
                    "name": "A5",
                    "midi": 81,
                    "time": 447.1769050000014,
                    "velocity": 0.28346456692913385,
                    "duration": 0.10880216666669185
                },
                {
                    "name": "G5",
                    "midi": 79,
                    "time": 447.2857071666681,
                    "velocity": 0.2440944881889764,
                    "duration": 0.10880216666669185
                },
                {
                    "name": "A5",
                    "midi": 81,
                    "time": 447.3945093333348,
                    "velocity": 0.28346456692913385,
                    "duration": 0.10880216666669185
                },
                {
                    "name": "G5",
                    "midi": 79,
                    "time": 447.5033115000015,
                    "velocity": 0.2677165354330709,
                    "duration": 0.10880216666669185
                },
                {
                    "name": "F#5",
                    "midi": 78,
                    "time": 447.61211366666817,
                    "velocity": 0.28346456692913385,
                    "duration": 0.10880216666669185
                },
                {
                    "name": "G5",
                    "midi": 79,
                    "time": 447.72091583333486,
                    "velocity": 0.2440944881889764,
                    "duration": 0.10880216666669185
                },
                {
                    "name": "G5",
                    "midi": 79,
                    "time": 621.4779760000015,
                    "velocity": 0.4251968503937008,
                    "duration": 0.10880216666669185
                },
                {
                    "name": "A5",
                    "midi": 81,
                    "time": 621.5867781666682,
                    "velocity": 0.2755905511811024,
                    "duration": 0.10880216666669185
                },
                {
                    "name": "G5",
                    "midi": 79,
                    "time": 621.6955803333349,
                    "velocity": 0.3464566929133858,
                    "duration": 0.10880216666669185
                },
                {
                    "name": "A5",
                    "midi": 81,
                    "time": 621.8043825000016,
                    "velocity": 0.2992125984251969,
                    "duration": 0.10880216666669185
                },
                {
                    "name": "G5",
                    "midi": 79,
                    "time": 621.9131846666683,
                    "velocity": 0.3464566929133858,
                    "duration": 0.10880216666669185
                },
                {
                    "name": "A5",
                    "midi": 81,
                    "time": 622.021986833335,
                    "velocity": 0.29133858267716534,
                    "duration": 0.10880216666669185
                },
                {
                    "name": "G5",
                    "midi": 79,
                    "time": 622.1307890000016,
                    "velocity": 0.3228346456692913,
                    "duration": 0.10880216666669185
                },
                {
                    "name": "A5",
                    "midi": 81,
                    "time": 622.2395911666683,
                    "velocity": 0.28346456692913385,
                    "duration": 0.10880216666669185
                },
                {
                    "name": "G5",
                    "midi": 79,
                    "time": 622.348393333335,
                    "velocity": 0.3228346456692913,
                    "duration": 0.10880216666669185
                },
                {
                    "name": "A5",
                    "midi": 81,
                    "time": 622.4571955000017,
                    "velocity": 0.29133858267716534,
                    "duration": 0.10880216666669185
                },
                {
                    "name": "G5",
                    "midi": 79,
                    "time": 622.5659976666684,
                    "velocity": 0.3228346456692913,
                    "duration": 0.10880216666669185
                },
                {
                    "name": "A5",
                    "midi": 81,
                    "time": 622.6747998333351,
                    "velocity": 0.2755905511811024,
                    "duration": 0.10880216666669185
                },
                {
                    "name": "G5",
                    "midi": 79,
                    "time": 622.7836020000018,
                    "velocity": 0.3228346456692913,
                    "duration": 0.10880216666669185
                },
                {
                    "name": "A5",
                    "midi": 81,
                    "time": 622.8924041666685,
                    "velocity": 0.29133858267716534,
                    "duration": 0.10880216666669185
                },
                {
                    "name": "G5",
                    "midi": 79,
                    "time": 623.0012063333352,
                    "velocity": 0.3228346456692913,
                    "duration": 0.10880216666669185
                },
                {
                    "name": "A5",
                    "midi": 81,
                    "time": 623.1100085000019,
                    "velocity": 0.28346456692913385,
                    "duration": 0.10880216666669185
                },
                {
                    "name": "G5",
                    "midi": 79,
                    "time": 623.2188106666686,
                    "velocity": 0.3228346456692913,
                    "duration": 0.10880216666669185
                },
                {
                    "name": "A5",
                    "midi": 81,
                    "time": 623.3276128333353,
                    "velocity": 0.28346456692913385,
                    "duration": 0.10880216666669185
                },
                {
                    "name": "G5",
                    "midi": 79,
                    "time": 623.436415000002,
                    "velocity": 0.3228346456692913,
                    "duration": 0.10880216666669185
                },
                {
                    "name": "A5",
                    "midi": 81,
                    "time": 623.5452171666686,
                    "velocity": 0.29133858267716534,
                    "duration": 0.10880216666669185
                },
                {
                    "name": "G5",
                    "midi": 79,
                    "time": 623.6540193333353,
                    "velocity": 0.3228346456692913,
                    "duration": 0.10880216666669185
                },
                {
                    "name": "A5",
                    "midi": 81,
                    "time": 623.762821500002,
                    "velocity": 0.29133858267716534,
                    "duration": 0.10880216666669185
                },
                {
                    "name": "G5",
                    "midi": 79,
                    "time": 623.8716236666687,
                    "velocity": 0.3228346456692913,
                    "duration": 0.10880216666669185
                },
                {
                    "name": "A5",
                    "midi": 81,
                    "time": 623.9804258333354,
                    "velocity": 0.28346456692913385,
                    "duration": 0.10880216666669185
                },
                {
                    "name": "G5",
                    "midi": 79,
                    "time": 624.0892280000021,
                    "velocity": 0.3228346456692913,
                    "duration": 0.10880216666669185
                },
                {
                    "name": "A5",
                    "midi": 81,
                    "time": 624.1980301666688,
                    "velocity": 0.28346456692913385,
                    "duration": 0.10880216666669185
                },
                {
                    "name": "G5",
                    "midi": 79,
                    "time": 624.3068323333355,
                    "velocity": 0.3228346456692913,
                    "duration": 0.10880216666669185
                },
                {
                    "name": "A5",
                    "midi": 81,
                    "time": 624.4156345000022,
                    "velocity": 0.29133858267716534,
                    "duration": 0.10880216666669185
                },
                {
                    "name": "G5",
                    "midi": 79,
                    "time": 624.5244366666689,
                    "velocity": 0.3228346456692913,
                    "duration": 0.10880216666669185
                },
                {
                    "name": "A5",
                    "midi": 81,
                    "time": 624.6332388333356,
                    "velocity": 0.29133858267716534,
                    "duration": 0.10880216666669185
                },
                {
                    "name": "G5",
                    "midi": 79,
                    "time": 624.7420410000022,
                    "velocity": 0.3228346456692913,
                    "duration": 0.10880216666669185
                },
                {
                    "name": "A5",
                    "midi": 81,
                    "time": 624.8508431666689,
                    "velocity": 0.28346456692913385,
                    "duration": 0.10880216666669185
                },
                {
                    "name": "G5",
                    "midi": 79,
                    "time": 624.9596453333356,
                    "velocity": 0.3228346456692913,
                    "duration": 0.10880216666669185
                },
                {
                    "name": "A5",
                    "midi": 81,
                    "time": 625.0684475000023,
                    "velocity": 0.29133858267716534,
                    "duration": 0.10880216666669185
                },
                {
                    "name": "G5",
                    "midi": 79,
                    "time": 625.177249666669,
                    "velocity": 0.3228346456692913,
                    "duration": 0.10880216666669185
                },
                {
                    "name": "A5",
                    "midi": 81,
                    "time": 625.2860518333357,
                    "velocity": 0.28346456692913385,
                    "duration": 0.10880216666669185
                },
                {
                    "name": "G5",
                    "midi": 79,
                    "time": 625.3948540000024,
                    "velocity": 0.31496062992125984,
                    "duration": 0.10880216666669185
                },
                {
                    "name": "A5",
                    "midi": 81,
                    "time": 625.5036561666691,
                    "velocity": 0.28346456692913385,
                    "duration": 0.10880216666669185
                },
                {
                    "name": "G5",
                    "midi": 79,
                    "time": 625.6124583333358,
                    "velocity": 0.30708661417322836,
                    "duration": 0.10880216666669185
                },
                {
                    "name": "A5",
                    "midi": 81,
                    "time": 625.7212605000025,
                    "velocity": 0.2755905511811024,
                    "duration": 0.10880216666669185
                },
                {
                    "name": "G5",
                    "midi": 79,
                    "time": 625.8300626666692,
                    "velocity": 0.30708661417322836,
                    "duration": 0.10880216666669185
                },
                {
                    "name": "A5",
                    "midi": 81,
                    "time": 625.9388648333359,
                    "velocity": 0.2755905511811024,
                    "duration": 0.10880216666669185
                },
                {
                    "name": "G5",
                    "midi": 79,
                    "time": 626.0476670000025,
                    "velocity": 0.30708661417322836,
                    "duration": 0.10880216666669185
                },
                {
                    "name": "A5",
                    "midi": 81,
                    "time": 626.1564691666692,
                    "velocity": 0.2755905511811024,
                    "duration": 0.10880216666669185
                },
                {
                    "name": "G5",
                    "midi": 79,
                    "time": 626.2652713333359,
                    "velocity": 0.30708661417322836,
                    "duration": 0.10880216666669185
                },
                {
                    "name": "A5",
                    "midi": 81,
                    "time": 626.3740735000026,
                    "velocity": 0.2755905511811024,
                    "duration": 0.10880216666669185
                },
                {
                    "name": "G5",
                    "midi": 79,
                    "time": 626.4828756666693,
                    "velocity": 0.30708661417322836,
                    "duration": 0.10880216666669185
                },
                {
                    "name": "A5",
                    "midi": 81,
                    "time": 626.591677833336,
                    "velocity": 0.2755905511811024,
                    "duration": 0.10880216666669185
                },
                {
                    "name": "G5",
                    "midi": 79,
                    "time": 626.7004800000027,
                    "velocity": 0.28346456692913385,
                    "duration": 0.10880216666669185
                },
                {
                    "name": "A5",
                    "midi": 81,
                    "time": 626.8092821666694,
                    "velocity": 0.25196850393700787,
                    "duration": 0.10880216666669185
                },
                {
                    "name": "G5",
                    "midi": 79,
                    "time": 626.9180843333361,
                    "velocity": 0.2755905511811024,
                    "duration": 0.10880216666669185
                },
                {
                    "name": "A5",
                    "midi": 81,
                    "time": 627.0268865000028,
                    "velocity": 0.2440944881889764,
                    "duration": 0.10880216666669185
                },
                {
                    "name": "G5",
                    "midi": 79,
                    "time": 627.1356886666695,
                    "velocity": 0.2755905511811024,
                    "duration": 0.10880216666669185
                },
                {
                    "name": "A5",
                    "midi": 81,
                    "time": 627.2444908333362,
                    "velocity": 0.2440944881889764,
                    "duration": 0.10880216666669185
                },
                {
                    "name": "G5",
                    "midi": 79,
                    "time": 627.3532930000029,
                    "velocity": 0.2755905511811024,
                    "duration": 0.10880216666669185
                },
                {
                    "name": "A5",
                    "midi": 81,
                    "time": 627.4620951666695,
                    "velocity": 0.2440944881889764,
                    "duration": 0.10880216666669185
                },
                {
                    "name": "G5",
                    "midi": 79,
                    "time": 627.5708973333362,
                    "velocity": 0.2755905511811024,
                    "duration": 0.10880216666669185
                },
                {
                    "name": "A5",
                    "midi": 81,
                    "time": 627.6796995000029,
                    "velocity": 0.2440944881889764,
                    "duration": 0.10880216666669185
                },
                {
                    "name": "G5",
                    "midi": 79,
                    "time": 627.7885016666696,
                    "velocity": 0.2755905511811024,
                    "duration": 0.10880216666669185
                },
                {
                    "name": "A5",
                    "midi": 81,
                    "time": 627.8973038333363,
                    "velocity": 0.2440944881889764,
                    "duration": 0.10880216666669185
                },
                {
                    "name": "G5",
                    "midi": 79,
                    "time": 628.006106000003,
                    "velocity": 0.28346456692913385,
                    "duration": 0.10880216666669185
                },
                {
                    "name": "A5",
                    "midi": 81,
                    "time": 628.1149081666697,
                    "velocity": 0.25196850393700787,
                    "duration": 0.10880216666669185
                },
                {
                    "name": "G5",
                    "midi": 79,
                    "time": 628.2237103333364,
                    "velocity": 0.2755905511811024,
                    "duration": 0.10880216666669185
                },
                {
                    "name": "A5",
                    "midi": 81,
                    "time": 628.3325125000031,
                    "velocity": 0.2440944881889764,
                    "duration": 0.10880216666669185
                },
                {
                    "name": "G5",
                    "midi": 79,
                    "time": 628.4413146666698,
                    "velocity": 0.2755905511811024,
                    "duration": 0.10880216666669185
                },
                {
                    "name": "A5",
                    "midi": 81,
                    "time": 628.5501168333365,
                    "velocity": 0.2440944881889764,
                    "duration": 0.10880216666669185
                },
                {
                    "name": "G5",
                    "midi": 79,
                    "time": 628.6589190000032,
                    "velocity": 0.2755905511811024,
                    "duration": 0.10880216666669185
                },
                {
                    "name": "A5",
                    "midi": 81,
                    "time": 628.7677211666698,
                    "velocity": 0.2440944881889764,
                    "duration": 0.10880216666669185
                },
                {
                    "name": "G5",
                    "midi": 79,
                    "time": 628.8765233333365,
                    "velocity": 0.2755905511811024,
                    "duration": 0.10880216666669185
                },
                {
                    "name": "A5",
                    "midi": 81,
                    "time": 628.9853255000032,
                    "velocity": 0.2440944881889764,
                    "duration": 0.10880216666669185
                },
                {
                    "name": "G5",
                    "midi": 79,
                    "time": 629.0941276666699,
                    "velocity": 0.2755905511811024,
                    "duration": 0.10880216666669185
                },
                {
                    "name": "A5",
                    "midi": 81,
                    "time": 629.2029298333366,
                    "velocity": 0.2440944881889764,
                    "duration": 0.10880216666669185
                },
                {
                    "name": "G5",
                    "midi": 79,
                    "time": 629.3117320000033,
                    "velocity": 0.28346456692913385,
                    "duration": 0.10880216666669185
                },
                {
                    "name": "A5",
                    "midi": 81,
                    "time": 629.42053416667,
                    "velocity": 0.25196850393700787,
                    "duration": 0.10880216666669185
                },
                {
                    "name": "G5",
                    "midi": 79,
                    "time": 629.5293363333367,
                    "velocity": 0.2755905511811024,
                    "duration": 0.10880216666669185
                },
                {
                    "name": "A5",
                    "midi": 81,
                    "time": 629.6381385000034,
                    "velocity": 0.25196850393700787,
                    "duration": 0.10880216666669185
                },
                {
                    "name": "G5",
                    "midi": 79,
                    "time": 629.7469406666701,
                    "velocity": 0.28346456692913385,
                    "duration": 0.10880216666669185
                },
                {
                    "name": "A5",
                    "midi": 81,
                    "time": 629.8557428333368,
                    "velocity": 0.25196850393700787,
                    "duration": 0.10880216666669185
                },
                {
                    "name": "G5",
                    "midi": 79,
                    "time": 629.9645450000035,
                    "velocity": 0.29133858267716534,
                    "duration": 0.10880216666669185
                },
                {
                    "name": "A5",
                    "midi": 81,
                    "time": 630.0733471666701,
                    "velocity": 0.25984251968503935,
                    "duration": 0.10880216666669185
                },
                {
                    "name": "G5",
                    "midi": 79,
                    "time": 630.1821493333368,
                    "velocity": 0.2992125984251969,
                    "duration": 0.10880216666669185
                },
                {
                    "name": "A5",
                    "midi": 81,
                    "time": 630.2909515000035,
                    "velocity": 0.2677165354330709,
                    "duration": 0.10880216666669185
                },
                {
                    "name": "G5",
                    "midi": 79,
                    "time": 630.3997536666702,
                    "velocity": 0.30708661417322836,
                    "duration": 0.10880216666669185
                },
                {
                    "name": "A5",
                    "midi": 81,
                    "time": 630.5085558333369,
                    "velocity": 0.2755905511811024,
                    "duration": 0.10880216666669185
                },
                {
                    "name": "G5",
                    "midi": 79,
                    "time": 630.6173580000036,
                    "velocity": 0.3228346456692913,
                    "duration": 0.10880216666669185
                },
                {
                    "name": "A5",
                    "midi": 81,
                    "time": 630.7261601666703,
                    "velocity": 0.29133858267716534,
                    "duration": 0.10880216666669185
                },
                {
                    "name": "G5",
                    "midi": 79,
                    "time": 630.834962333337,
                    "velocity": 0.31496062992125984,
                    "duration": 0.10880216666669185
                },
                {
                    "name": "A5",
                    "midi": 81,
                    "time": 630.9437645000037,
                    "velocity": 0.28346456692913385,
                    "duration": 0.10880216666669185
                },
                {
                    "name": "G5",
                    "midi": 79,
                    "time": 631.0525666666704,
                    "velocity": 0.33070866141732286,
                    "duration": 0.10880216666669185
                },
                {
                    "name": "A5",
                    "midi": 81,
                    "time": 631.1613688333371,
                    "velocity": 0.29133858267716534,
                    "duration": 0.10880216666669185
                },
                {
                    "name": "G5",
                    "midi": 79,
                    "time": 631.2701710000038,
                    "velocity": 0.33070866141732286,
                    "duration": 0.10880216666669185
                },
                {
                    "name": "A5",
                    "midi": 81,
                    "time": 631.3789731666704,
                    "velocity": 0.2992125984251969,
                    "duration": 0.10880216666669185
                },
                {
                    "name": "G5",
                    "midi": 79,
                    "time": 631.4877753333371,
                    "velocity": 0.33858267716535434,
                    "duration": 0.10880216666669185
                },
                {
                    "name": "A5",
                    "midi": 81,
                    "time": 631.5965775000038,
                    "velocity": 0.30708661417322836,
                    "duration": 0.10880216666669185
                },
                {
                    "name": "G5",
                    "midi": 79,
                    "time": 631.7053796666705,
                    "velocity": 0.3464566929133858,
                    "duration": 0.10880216666669185
                },
                {
                    "name": "A5",
                    "midi": 81,
                    "time": 631.8141818333372,
                    "velocity": 0.30708661417322836,
                    "duration": 0.10880216666669185
                },
                {
                    "name": "G5",
                    "midi": 79,
                    "time": 631.9229840000039,
                    "velocity": 0.36220472440944884,
                    "duration": 0.10880216666669185
                },
                {
                    "name": "A5",
                    "midi": 81,
                    "time": 632.0317861666706,
                    "velocity": 0.2440944881889764,
                    "duration": 0.10880216666669185
                },
                {
                    "name": "G5",
                    "midi": 79,
                    "time": 632.1405883333373,
                    "velocity": 0.25984251968503935,
                    "duration": 0.10880216666669185
                },
                {
                    "name": "A5",
                    "midi": 81,
                    "time": 632.249390500004,
                    "velocity": 0.2283464566929134,
                    "duration": 0.10880216666669185
                },
                {
                    "name": "G5",
                    "midi": 79,
                    "time": 632.3581926666707,
                    "velocity": 0.25196850393700787,
                    "duration": 0.10880216666669185
                },
                {
                    "name": "A5",
                    "midi": 81,
                    "time": 632.4669948333374,
                    "velocity": 0.2204724409448819,
                    "duration": 0.10880216666669185
                },
                {
                    "name": "G5",
                    "midi": 79,
                    "time": 632.5757970000041,
                    "velocity": 0.2440944881889764,
                    "duration": 0.10880216666669185
                },
                {
                    "name": "A5",
                    "midi": 81,
                    "time": 632.6845991666708,
                    "velocity": 0.2125984251968504,
                    "duration": 0.10880216666669185
                },
                {
                    "name": "G5",
                    "midi": 79,
                    "time": 632.7934013333374,
                    "velocity": 0.2440944881889764,
                    "duration": 0.10880216666669185
                },
                {
                    "name": "A5",
                    "midi": 81,
                    "time": 632.9022035000041,
                    "velocity": 0.2125984251968504,
                    "duration": 0.10880216666669185
                },
                {
                    "name": "G5",
                    "midi": 79,
                    "time": 633.0110056666708,
                    "velocity": 0.2440944881889764,
                    "duration": 0.10880216666669185
                },
                {
                    "name": "A5",
                    "midi": 81,
                    "time": 633.1198078333375,
                    "velocity": 0.2125984251968504,
                    "duration": 0.10880216666669185
                },
                {
                    "name": "G5",
                    "midi": 79,
                    "time": 633.2286100000042,
                    "velocity": 0.25196850393700787,
                    "duration": 0.10880216666669185
                },
                {
                    "name": "A5",
                    "midi": 81,
                    "time": 633.3374121666709,
                    "velocity": 0.2204724409448819,
                    "duration": 0.10880216666669185
                },
                {
                    "name": "G5",
                    "midi": 79,
                    "time": 633.4462143333376,
                    "velocity": 0.2440944881889764,
                    "duration": 0.10880216666669185
                },
                {
                    "name": "A5",
                    "midi": 81,
                    "time": 633.5550165000043,
                    "velocity": 0.2125984251968504,
                    "duration": 0.10880216666669185
                },
                {
                    "name": "G5",
                    "midi": 79,
                    "time": 633.663818666671,
                    "velocity": 0.2440944881889764,
                    "duration": 0.10880216666669185
                },
                {
                    "name": "A5",
                    "midi": 81,
                    "time": 633.7726208333377,
                    "velocity": 0.2125984251968504,
                    "duration": 0.10880216666669185
                },
                {
                    "name": "G5",
                    "midi": 79,
                    "time": 633.8814230000044,
                    "velocity": 0.2440944881889764,
                    "duration": 0.10880216666669185
                },
                {
                    "name": "A5",
                    "midi": 81,
                    "time": 633.990225166671,
                    "velocity": 0.2125984251968504,
                    "duration": 0.10880216666669185
                },
                {
                    "name": "G5",
                    "midi": 79,
                    "time": 634.0990273333377,
                    "velocity": 0.2440944881889764,
                    "duration": 0.10880216666669185
                },
                {
                    "name": "A5",
                    "midi": 81,
                    "time": 634.2078295000044,
                    "velocity": 0.2125984251968504,
                    "duration": 0.10880216666669185
                },
                {
                    "name": "G5",
                    "midi": 79,
                    "time": 634.3166316666711,
                    "velocity": 0.2440944881889764,
                    "duration": 0.10880216666669185
                },
                {
                    "name": "A5",
                    "midi": 81,
                    "time": 634.4254338333378,
                    "velocity": 0.2125984251968504,
                    "duration": 0.10880216666669185
                },
                {
                    "name": "G5",
                    "midi": 79,
                    "time": 634.5342360000045,
                    "velocity": 0.29133858267716534,
                    "duration": 0.10880216666669185
                },
                {
                    "name": "A5",
                    "midi": 81,
                    "time": 634.6430381666712,
                    "velocity": 0.2204724409448819,
                    "duration": 0.10880216666669185
                },
                {
                    "name": "G5",
                    "midi": 79,
                    "time": 634.7518403333379,
                    "velocity": 0.2677165354330709,
                    "duration": 0.10880216666669185
                },
                {
                    "name": "A5",
                    "midi": 81,
                    "time": 634.8606425000046,
                    "velocity": 0.2204724409448819,
                    "duration": 0.10880216666669185
                },
                {
                    "name": "G5",
                    "midi": 79,
                    "time": 634.9694446666713,
                    "velocity": 0.2677165354330709,
                    "duration": 0.10880216666669185
                },
                {
                    "name": "A5",
                    "midi": 81,
                    "time": 635.078246833338,
                    "velocity": 0.2204724409448819,
                    "duration": 0.10880216666669185
                },
                {
                    "name": "A5",
                    "midi": 81,
                    "time": 635.2958511666714,
                    "velocity": 0.2125984251968504,
                    "duration": 0.10880216666669185
                },
                {
                    "name": "G5",
                    "midi": 79,
                    "time": 635.404653333338,
                    "velocity": 0.2440944881889764,
                    "duration": 0.10880216666669185
                },
                {
                    "name": "A5",
                    "midi": 81,
                    "time": 635.5134555000047,
                    "velocity": 0.2125984251968504,
                    "duration": 0.10880216666669185
                },
                {
                    "name": "G5",
                    "midi": 79,
                    "time": 635.6222576666714,
                    "velocity": 0.2440944881889764,
                    "duration": 0.10880216666669185
                },
                {
                    "name": "A5",
                    "midi": 81,
                    "time": 635.7310598333381,
                    "velocity": 0.2125984251968504,
                    "duration": 0.10880216666669185
                },
                {
                    "name": "G5",
                    "midi": 79,
                    "time": 635.8398620000048,
                    "velocity": 0.25196850393700787,
                    "duration": 0.10880216666669185
                },
                {
                    "name": "A5",
                    "midi": 81,
                    "time": 635.9486641666715,
                    "velocity": 0.2204724409448819,
                    "duration": 0.10880216666669185
                },
                {
                    "name": "G5",
                    "midi": 79,
                    "time": 636.0574663333382,
                    "velocity": 0.2440944881889764,
                    "duration": 0.10880216666669185
                },
                {
                    "name": "A5",
                    "midi": 81,
                    "time": 636.1662685000049,
                    "velocity": 0.2125984251968504,
                    "duration": 0.10880216666669185
                },
                {
                    "name": "G5",
                    "midi": 79,
                    "time": 636.2750706666716,
                    "velocity": 0.2440944881889764,
                    "duration": 0.10880216666669185
                },
                {
                    "name": "A5",
                    "midi": 81,
                    "time": 636.3838728333383,
                    "velocity": 0.2125984251968504,
                    "duration": 0.10880216666669185
                },
                {
                    "name": "G5",
                    "midi": 79,
                    "time": 636.492675000005,
                    "velocity": 0.2440944881889764,
                    "duration": 0.10880216666669185
                },
                {
                    "name": "A5",
                    "midi": 81,
                    "time": 636.6014771666717,
                    "velocity": 0.2125984251968504,
                    "duration": 0.10880216666669185
                },
                {
                    "name": "G5",
                    "midi": 79,
                    "time": 636.7102793333383,
                    "velocity": 0.2440944881889764,
                    "duration": 0.10880216666669185
                },
                {
                    "name": "A5",
                    "midi": 81,
                    "time": 636.819081500005,
                    "velocity": 0.2125984251968504,
                    "duration": 0.10880216666669185
                },
                {
                    "name": "G5",
                    "midi": 79,
                    "time": 636.9278836666717,
                    "velocity": 0.2440944881889764,
                    "duration": 0.10880216666669185
                },
                {
                    "name": "A5",
                    "midi": 81,
                    "time": 637.0366858333384,
                    "velocity": 0.2125984251968504,
                    "duration": 0.10880216666669185
                },
                {
                    "name": "G5",
                    "midi": 79,
                    "time": 637.1454880000051,
                    "velocity": 0.28346456692913385,
                    "duration": 0.10880216666669185
                },
                {
                    "name": "A5",
                    "midi": 81,
                    "time": 637.2542901666718,
                    "velocity": 0.2440944881889764,
                    "duration": 0.10880216666669185
                },
                {
                    "name": "G5",
                    "midi": 79,
                    "time": 637.3630923333385,
                    "velocity": 0.25984251968503935,
                    "duration": 0.10880216666669185
                },
                {
                    "name": "A5",
                    "midi": 81,
                    "time": 637.4718945000052,
                    "velocity": 0.2283464566929134,
                    "duration": 0.10880216666669185
                },
                {
                    "name": "G5",
                    "midi": 79,
                    "time": 637.5806966666719,
                    "velocity": 0.25196850393700787,
                    "duration": 0.10880216666669185
                },
                {
                    "name": "A5",
                    "midi": 81,
                    "time": 637.6894988333386,
                    "velocity": 0.2204724409448819,
                    "duration": 0.10880216666669185
                },
                {
                    "name": "G5",
                    "midi": 79,
                    "time": 637.7983010000053,
                    "velocity": 0.2440944881889764,
                    "duration": 0.10880216666669185
                },
                {
                    "name": "A5",
                    "midi": 81,
                    "time": 637.907103166672,
                    "velocity": 0.2125984251968504,
                    "duration": 0.10880216666669185
                },
                {
                    "name": "G5",
                    "midi": 79,
                    "time": 638.0159053333387,
                    "velocity": 0.2440944881889764,
                    "duration": 0.10880216666669185
                },
                {
                    "name": "A5",
                    "midi": 81,
                    "time": 638.1247075000053,
                    "velocity": 0.2125984251968504,
                    "duration": 0.10880216666669185
                },
                {
                    "name": "G5",
                    "midi": 79,
                    "time": 638.233509666672,
                    "velocity": 0.2440944881889764,
                    "duration": 0.10880216666669185
                },
                {
                    "name": "A5",
                    "midi": 81,
                    "time": 638.3423118333387,
                    "velocity": 0.2125984251968504,
                    "duration": 0.10880216666669185
                },
                {
                    "name": "G5",
                    "midi": 79,
                    "time": 638.4511140000054,
                    "velocity": 0.25196850393700787,
                    "duration": 0.10880216666669185
                },
                {
                    "name": "A5",
                    "midi": 81,
                    "time": 638.5599161666721,
                    "velocity": 0.2204724409448819,
                    "duration": 0.10880216666669185
                },
                {
                    "name": "G5",
                    "midi": 79,
                    "time": 638.6687183333388,
                    "velocity": 0.2440944881889764,
                    "duration": 0.10880216666669185
                },
                {
                    "name": "A5",
                    "midi": 81,
                    "time": 638.7775205000055,
                    "velocity": 0.2125984251968504,
                    "duration": 0.10880216666669185
                },
                {
                    "name": "G5",
                    "midi": 79,
                    "time": 638.8863226666722,
                    "velocity": 0.2440944881889764,
                    "duration": 0.10880216666669185
                },
                {
                    "name": "A5",
                    "midi": 81,
                    "time": 638.9951248333389,
                    "velocity": 0.2125984251968504,
                    "duration": 0.10880216666669185
                },
                {
                    "name": "G5",
                    "midi": 79,
                    "time": 639.1039270000056,
                    "velocity": 0.2440944881889764,
                    "duration": 0.10880216666669185
                },
                {
                    "name": "A5",
                    "midi": 81,
                    "time": 639.2127291666723,
                    "velocity": 0.2125984251968504,
                    "duration": 0.10880216666669185
                },
                {
                    "name": "G5",
                    "midi": 79,
                    "time": 639.321531333339,
                    "velocity": 0.2440944881889764,
                    "duration": 0.10880216666669185
                },
                {
                    "name": "A5",
                    "midi": 81,
                    "time": 639.4303335000056,
                    "velocity": 0.2125984251968504,
                    "duration": 0.10880216666669185
                },
                {
                    "name": "G5",
                    "midi": 79,
                    "time": 639.5391356666723,
                    "velocity": 0.2440944881889764,
                    "duration": 0.10880216666669185
                },
                {
                    "name": "A5",
                    "midi": 81,
                    "time": 639.647937833339,
                    "velocity": 0.2125984251968504,
                    "duration": 0.10880216666669185
                },
                {
                    "name": "G5",
                    "midi": 79,
                    "time": 639.7567400000057,
                    "velocity": 0.25196850393700787,
                    "duration": 0.10880216666669185
                },
                {
                    "name": "A5",
                    "midi": 81,
                    "time": 639.8655421666724,
                    "velocity": 0.2204724409448819,
                    "duration": 0.10880216666669185
                },
                {
                    "name": "G5",
                    "midi": 79,
                    "time": 639.9743443333391,
                    "velocity": 0.2440944881889764,
                    "duration": 0.10880216666669185
                },
                {
                    "name": "A5",
                    "midi": 81,
                    "time": 640.0831465000058,
                    "velocity": 0.2125984251968504,
                    "duration": 0.10880216666669185
                },
                {
                    "name": "G5",
                    "midi": 79,
                    "time": 640.1919486666725,
                    "velocity": 0.2440944881889764,
                    "duration": 0.10880216666669185
                },
                {
                    "name": "A5",
                    "midi": 81,
                    "time": 640.3007508333392,
                    "velocity": 0.2125984251968504,
                    "duration": 0.10880216666669185
                },
                {
                    "name": "G5",
                    "midi": 79,
                    "time": 640.4095530000059,
                    "velocity": 0.2440944881889764,
                    "duration": 0.10880216666669185
                },
                {
                    "name": "A5",
                    "midi": 81,
                    "time": 640.5183551666726,
                    "velocity": 0.2125984251968504,
                    "duration": 0.10880216666669185
                },
                {
                    "name": "G5",
                    "midi": 79,
                    "time": 640.6271573333393,
                    "velocity": 0.2440944881889764,
                    "duration": 0.10880216666669185
                },
                {
                    "name": "A5",
                    "midi": 81,
                    "time": 640.735959500006,
                    "velocity": 0.2125984251968504,
                    "duration": 0.10880216666669185
                },
                {
                    "name": "G5",
                    "midi": 79,
                    "time": 640.8447616666726,
                    "velocity": 0.2440944881889764,
                    "duration": 0.10880216666669185
                },
                {
                    "name": "A5",
                    "midi": 81,
                    "time": 640.9535638333393,
                    "velocity": 0.2125984251968504,
                    "duration": 0.10880216666669185
                },
                {
                    "name": "G5",
                    "midi": 79,
                    "time": 641.062366000006,
                    "velocity": 0.25196850393700787,
                    "duration": 0.10880216666669185
                },
                {
                    "name": "A5",
                    "midi": 81,
                    "time": 641.1711681666727,
                    "velocity": 0.2204724409448819,
                    "duration": 0.10880216666669185
                },
                {
                    "name": "G5",
                    "midi": 79,
                    "time": 641.2799703333394,
                    "velocity": 0.25196850393700787,
                    "duration": 0.10880216666669185
                },
                {
                    "name": "A5",
                    "midi": 81,
                    "time": 641.3887725000061,
                    "velocity": 0.2204724409448819,
                    "duration": 0.10880216666669185
                },
                {
                    "name": "G5",
                    "midi": 79,
                    "time": 641.4975746666728,
                    "velocity": 0.2677165354330709,
                    "duration": 0.10880216666669185
                },
                {
                    "name": "A5",
                    "midi": 81,
                    "time": 641.6063768333395,
                    "velocity": 0.23622047244094488,
                    "duration": 0.10880216666669185
                },
                {
                    "name": "G5",
                    "midi": 79,
                    "time": 641.7151790000062,
                    "velocity": 0.2755905511811024,
                    "duration": 0.10880216666669185
                },
                {
                    "name": "A5",
                    "midi": 81,
                    "time": 641.8239811666729,
                    "velocity": 0.2440944881889764,
                    "duration": 0.10880216666669185
                },
                {
                    "name": "G5",
                    "midi": 79,
                    "time": 641.9327833333396,
                    "velocity": 0.28346456692913385,
                    "duration": 0.10880216666669185
                },
                {
                    "name": "A5",
                    "midi": 81,
                    "time": 642.0415855000062,
                    "velocity": 0.25196850393700787,
                    "duration": 0.10880216666669185
                },
                {
                    "name": "G5",
                    "midi": 79,
                    "time": 642.1503876666729,
                    "velocity": 0.2992125984251969,
                    "duration": 0.10880216666669185
                },
                {
                    "name": "A5",
                    "midi": 81,
                    "time": 642.2591898333396,
                    "velocity": 0.2677165354330709,
                    "duration": 0.10880216666669185
                },
                {
                    "name": "G#5",
                    "midi": 80,
                    "time": 642.3679920000063,
                    "velocity": 0.36220472440944884,
                    "duration": 0.10880216666669185
                },
                {
                    "name": "G5",
                    "midi": 79,
                    "time": 642.476794166673,
                    "velocity": 0.2440944881889764,
                    "duration": 0.10880216666669185
                },
                {
                    "name": "G#5",
                    "midi": 80,
                    "time": 642.5855963333397,
                    "velocity": 0.25984251968503935,
                    "duration": 0.10880216666669185
                },
                {
                    "name": "G5",
                    "midi": 79,
                    "time": 642.6943985000064,
                    "velocity": 0.2283464566929134,
                    "duration": 0.10880216666669185
                },
                {
                    "name": "G#5",
                    "midi": 80,
                    "time": 642.8032006666731,
                    "velocity": 0.25196850393700787,
                    "duration": 0.10880216666669185
                },
                {
                    "name": "G5",
                    "midi": 79,
                    "time": 642.9120028333398,
                    "velocity": 0.2204724409448819,
                    "duration": 0.10880216666669185
                },
                {
                    "name": "G#5",
                    "midi": 80,
                    "time": 643.0208050000065,
                    "velocity": 0.2440944881889764,
                    "duration": 0.10880216666669185
                },
                {
                    "name": "G5",
                    "midi": 79,
                    "time": 643.1296071666732,
                    "velocity": 0.2125984251968504,
                    "duration": 0.10880216666669185
                },
                {
                    "name": "G#5",
                    "midi": 80,
                    "time": 643.2384093333399,
                    "velocity": 0.2440944881889764,
                    "duration": 0.10880216666669185
                },
                {
                    "name": "G5",
                    "midi": 79,
                    "time": 643.3472115000066,
                    "velocity": 0.2125984251968504,
                    "duration": 0.10880216666669185
                },
                {
                    "name": "G#5",
                    "midi": 80,
                    "time": 643.4560136666732,
                    "velocity": 0.2440944881889764,
                    "duration": 0.10880216666669185
                },
                {
                    "name": "G5",
                    "midi": 79,
                    "time": 643.5648158333399,
                    "velocity": 0.2125984251968504,
                    "duration": 0.10880216666669185
                },
                {
                    "name": "G#5",
                    "midi": 80,
                    "time": 643.6736180000066,
                    "velocity": 0.25196850393700787,
                    "duration": 0.10880216666669185
                },
                {
                    "name": "G5",
                    "midi": 79,
                    "time": 643.7824201666733,
                    "velocity": 0.2204724409448819,
                    "duration": 0.10880216666669185
                },
                {
                    "name": "G#5",
                    "midi": 80,
                    "time": 643.89122233334,
                    "velocity": 0.2440944881889764,
                    "duration": 0.10880216666669185
                },
                {
                    "name": "G5",
                    "midi": 79,
                    "time": 644.0000245000067,
                    "velocity": 0.2125984251968504,
                    "duration": 0.10880216666669185
                },
                {
                    "name": "G#5",
                    "midi": 80,
                    "time": 644.1088266666734,
                    "velocity": 0.2440944881889764,
                    "duration": 0.10880216666669185
                },
                {
                    "name": "G5",
                    "midi": 79,
                    "time": 644.2176288333401,
                    "velocity": 0.2125984251968504,
                    "duration": 0.10880216666669185
                },
                {
                    "name": "G#5",
                    "midi": 80,
                    "time": 644.3264310000068,
                    "velocity": 0.2440944881889764,
                    "duration": 0.10880216666669185
                },
                {
                    "name": "G5",
                    "midi": 79,
                    "time": 644.4352331666735,
                    "velocity": 0.2125984251968504,
                    "duration": 0.10880216666669185
                },
                {
                    "name": "G#5",
                    "midi": 80,
                    "time": 644.5440353333402,
                    "velocity": 0.2440944881889764,
                    "duration": 0.10880216666669185
                },
                {
                    "name": "G5",
                    "midi": 79,
                    "time": 644.6528375000069,
                    "velocity": 0.2125984251968504,
                    "duration": 0.10880216666669185
                },
                {
                    "name": "G#5",
                    "midi": 80,
                    "time": 644.7616396666735,
                    "velocity": 0.2440944881889764,
                    "duration": 0.10880216666669185
                },
                {
                    "name": "G5",
                    "midi": 79,
                    "time": 644.8704418333402,
                    "velocity": 0.2125984251968504,
                    "duration": 0.10880216666669185
                },
                {
                    "name": "G#5",
                    "midi": 80,
                    "time": 644.9792440000069,
                    "velocity": 0.29133858267716534,
                    "duration": 0.10880216666669185
                },
                {
                    "name": "G5",
                    "midi": 79,
                    "time": 645.0880461666736,
                    "velocity": 0.2204724409448819,
                    "duration": 0.10880216666669185
                },
                {
                    "name": "G#5",
                    "midi": 80,
                    "time": 645.1968483333403,
                    "velocity": 0.2677165354330709,
                    "duration": 0.10880216666669185
                },
                {
                    "name": "G5",
                    "midi": 79,
                    "time": 645.305650500007,
                    "velocity": 0.2204724409448819,
                    "duration": 0.10880216666669185
                },
                {
                    "name": "G#5",
                    "midi": 80,
                    "time": 645.4144526666737,
                    "velocity": 0.2677165354330709,
                    "duration": 0.10880216666669185
                },
                {
                    "name": "G5",
                    "midi": 79,
                    "time": 645.5232548333404,
                    "velocity": 0.2204724409448819,
                    "duration": 0.10880216666669185
                },
                {
                    "name": "G#5",
                    "midi": 80,
                    "time": 645.6320570000071,
                    "velocity": 0.2440944881889764,
                    "duration": 0.10880216666669185
                },
                {
                    "name": "G5",
                    "midi": 79,
                    "time": 645.7408591666738,
                    "velocity": 0.2125984251968504,
                    "duration": 0.10880216666669185
                },
                {
                    "name": "G#5",
                    "midi": 80,
                    "time": 645.8496613333405,
                    "velocity": 0.2440944881889764,
                    "duration": 0.10880216666669185
                },
                {
                    "name": "G5",
                    "midi": 79,
                    "time": 645.9584635000072,
                    "velocity": 0.2125984251968504,
                    "duration": 0.10880216666669185
                },
                {
                    "name": "G#5",
                    "midi": 80,
                    "time": 646.0672656666738,
                    "velocity": 0.2440944881889764,
                    "duration": 0.10880216666669185
                },
                {
                    "name": "G5",
                    "midi": 79,
                    "time": 646.1760678333405,
                    "velocity": 0.2125984251968504,
                    "duration": 0.10880216666669185
                },
                {
                    "name": "G#5",
                    "midi": 80,
                    "time": 646.2848700000072,
                    "velocity": 0.25196850393700787,
                    "duration": 0.10880216666669185
                },
                {
                    "name": "G5",
                    "midi": 79,
                    "time": 646.3936721666739,
                    "velocity": 0.2204724409448819,
                    "duration": 0.10880216666669185
                },
                {
                    "name": "G#5",
                    "midi": 80,
                    "time": 646.5024743333406,
                    "velocity": 0.2440944881889764,
                    "duration": 0.10880216666669185
                },
                {
                    "name": "G5",
                    "midi": 79,
                    "time": 646.6112765000073,
                    "velocity": 0.2125984251968504,
                    "duration": 0.10880216666669185
                },
                {
                    "name": "G#5",
                    "midi": 80,
                    "time": 646.720078666674,
                    "velocity": 0.2440944881889764,
                    "duration": 0.10880216666669185
                },
                {
                    "name": "G5",
                    "midi": 79,
                    "time": 646.8288808333407,
                    "velocity": 0.2125984251968504,
                    "duration": 0.10880216666669185
                },
                {
                    "name": "G#5",
                    "midi": 80,
                    "time": 646.9376830000074,
                    "velocity": 0.2440944881889764,
                    "duration": 0.10880216666669185
                },
                {
                    "name": "G5",
                    "midi": 79,
                    "time": 647.0464851666741,
                    "velocity": 0.2125984251968504,
                    "duration": 0.10880216666669185
                },
                {
                    "name": "G#5",
                    "midi": 80,
                    "time": 647.1552873333408,
                    "velocity": 0.2440944881889764,
                    "duration": 0.10880216666669185
                },
                {
                    "name": "G5",
                    "midi": 79,
                    "time": 647.2640895000075,
                    "velocity": 0.2125984251968504,
                    "duration": 0.10880216666669185
                },
                {
                    "name": "F5",
                    "midi": 77,
                    "time": 647.3728916666741,
                    "velocity": 0.2440944881889764,
                    "duration": 0.10880216666669185
                },
                {
                    "name": "G5",
                    "midi": 79,
                    "time": 647.4816938333408,
                    "velocity": 0.2125984251968504,
                    "duration": 0.10880216666669185
                },
                {
                    "name": "G#5",
                    "midi": 80,
                    "time": 647.5904960000075,
                    "velocity": 0.28346456692913385,
                    "duration": 0.10880216666669185
                },
                {
                    "name": "A#5",
                    "midi": 82,
                    "time": 647.6992981666742,
                    "velocity": 0.2440944881889764,
                    "duration": 0.10880216666669185
                },
                {
                    "name": "G#5",
                    "midi": 80,
                    "time": 647.8081003333409,
                    "velocity": 0.25984251968503935,
                    "duration": 0.10880216666669185
                },
                {
                    "name": "A#5",
                    "midi": 82,
                    "time": 647.9169025000076,
                    "velocity": 0.2283464566929134,
                    "duration": 0.10880216666669185
                },
                {
                    "name": "G#5",
                    "midi": 80,
                    "time": 648.0257046666743,
                    "velocity": 0.25196850393700787,
                    "duration": 0.10880216666669185
                },
                {
                    "name": "A#5",
                    "midi": 82,
                    "time": 648.134506833341,
                    "velocity": 0.2204724409448819,
                    "duration": 0.10880216666669185
                },
                {
                    "name": "D#5",
                    "midi": 75,
                    "time": 648.2433090000077,
                    "velocity": 0.2440944881889764,
                    "duration": 0.10880216666669185
                },
                {
                    "name": "F5",
                    "midi": 77,
                    "time": 648.3521111666744,
                    "velocity": 0.2125984251968504,
                    "duration": 0.10880216666669185
                },
                {
                    "name": "D#5",
                    "midi": 75,
                    "time": 648.4609133333411,
                    "velocity": 0.2440944881889764,
                    "duration": 0.10880216666669185
                },
                {
                    "name": "F5",
                    "midi": 77,
                    "time": 648.5697155000078,
                    "velocity": 0.2125984251968504,
                    "duration": 0.10880216666669185
                },
                {
                    "name": "D#5",
                    "midi": 75,
                    "time": 648.6785176666745,
                    "velocity": 0.2440944881889764,
                    "duration": 0.10880216666669185
                },
                {
                    "name": "F5",
                    "midi": 77,
                    "time": 648.7873198333411,
                    "velocity": 0.2125984251968504,
                    "duration": 0.10880216666669185
                },
                {
                    "name": "D#5",
                    "midi": 75,
                    "time": 648.8961220000078,
                    "velocity": 0.25196850393700787,
                    "duration": 0.10880216666669185
                },
                {
                    "name": "F5",
                    "midi": 77,
                    "time": 649.0049241666745,
                    "velocity": 0.2204724409448819,
                    "duration": 0.10880216666669185
                },
                {
                    "name": "D#5",
                    "midi": 75,
                    "time": 649.1137263333412,
                    "velocity": 0.2440944881889764,
                    "duration": 0.10880216666669185
                },
                {
                    "name": "F5",
                    "midi": 77,
                    "time": 649.2225285000079,
                    "velocity": 0.2125984251968504,
                    "duration": 0.10880216666669185
                },
                {
                    "name": "D#5",
                    "midi": 75,
                    "time": 649.3313306666746,
                    "velocity": 0.2440944881889764,
                    "duration": 0.10880216666669185
                },
                {
                    "name": "F5",
                    "midi": 77,
                    "time": 649.4401328333413,
                    "velocity": 0.2125984251968504,
                    "duration": 0.10880216666669185
                },
                {
                    "name": "D#5",
                    "midi": 75,
                    "time": 649.548935000008,
                    "velocity": 0.2440944881889764,
                    "duration": 0.10880216666669185
                },
                {
                    "name": "F5",
                    "midi": 77,
                    "time": 649.6577371666747,
                    "velocity": 0.2125984251968504,
                    "duration": 0.10880216666669185
                },
                {
                    "name": "D#5",
                    "midi": 75,
                    "time": 649.7665393333414,
                    "velocity": 0.2440944881889764,
                    "duration": 0.10880216666669185
                },
                {
                    "name": "F5",
                    "midi": 77,
                    "time": 649.8753415000081,
                    "velocity": 0.2125984251968504,
                    "duration": 0.10880216666669185
                },
                {
                    "name": "D#5",
                    "midi": 75,
                    "time": 649.9841436666748,
                    "velocity": 0.2440944881889764,
                    "duration": 0.10880216666669185
                },
                {
                    "name": "F5",
                    "midi": 77,
                    "time": 650.0929458333414,
                    "velocity": 0.2125984251968504,
                    "duration": 0.10880216666669185
                },
                {
                    "name": "D#5",
                    "midi": 75,
                    "time": 650.2017480000081,
                    "velocity": 0.25196850393700787,
                    "duration": 0.10880216666669185
                },
                {
                    "name": "F5",
                    "midi": 77,
                    "time": 650.3105501666748,
                    "velocity": 0.2204724409448819,
                    "duration": 0.10880216666669185
                },
                {
                    "name": "D#5",
                    "midi": 75,
                    "time": 650.4193523333415,
                    "velocity": 0.2440944881889764,
                    "duration": 0.10880216666669185
                },
                {
                    "name": "F5",
                    "midi": 77,
                    "time": 650.5281545000082,
                    "velocity": 0.2125984251968504,
                    "duration": 0.10880216666669185
                },
                {
                    "name": "D#5",
                    "midi": 75,
                    "time": 650.6369566666749,
                    "velocity": 0.2440944881889764,
                    "duration": 0.10880216666669185
                },
                {
                    "name": "F5",
                    "midi": 77,
                    "time": 650.7457588333416,
                    "velocity": 0.2125984251968504,
                    "duration": 0.10880216666669185
                },
                {
                    "name": "D#5",
                    "midi": 75,
                    "time": 650.8545610000083,
                    "velocity": 0.2440944881889764,
                    "duration": 0.10880216666669185
                },
                {
                    "name": "F5",
                    "midi": 77,
                    "time": 650.963363166675,
                    "velocity": 0.2125984251968504,
                    "duration": 0.10880216666669185
                },
                {
                    "name": "D#5",
                    "midi": 75,
                    "time": 651.0721653333417,
                    "velocity": 0.2440944881889764,
                    "duration": 0.10880216666669185
                },
                {
                    "name": "F5",
                    "midi": 77,
                    "time": 651.1809675000084,
                    "velocity": 0.2125984251968504,
                    "duration": 0.10880216666669185
                },
                {
                    "name": "D#5",
                    "midi": 75,
                    "time": 651.289769666675,
                    "velocity": 0.2440944881889764,
                    "duration": 0.10880216666669185
                },
                {
                    "name": "F5",
                    "midi": 77,
                    "time": 651.3985718333417,
                    "velocity": 0.2125984251968504,
                    "duration": 0.10880216666669185
                },
                {
                    "name": "D#5",
                    "midi": 75,
                    "time": 651.5073740000084,
                    "velocity": 0.25196850393700787,
                    "duration": 0.10880216666669185
                },
                {
                    "name": "F5",
                    "midi": 77,
                    "time": 651.6161761666751,
                    "velocity": 0.2204724409448819,
                    "duration": 0.10880216666669185
                },
                {
                    "name": "D#5",
                    "midi": 75,
                    "time": 651.7249783333418,
                    "velocity": 0.25196850393700787,
                    "duration": 0.10880216666669185
                },
                {
                    "name": "F5",
                    "midi": 77,
                    "time": 651.8337805000085,
                    "velocity": 0.2204724409448819,
                    "duration": 0.10880216666669185
                },
                {
                    "name": "D#5",
                    "midi": 75,
                    "time": 651.9425826666752,
                    "velocity": 0.2677165354330709,
                    "duration": 0.10880216666669185
                },
                {
                    "name": "F5",
                    "midi": 77,
                    "time": 652.0513848333419,
                    "velocity": 0.23622047244094488,
                    "duration": 0.10880216666669185
                },
                {
                    "name": "E5",
                    "midi": 76,
                    "time": 652.1601870000086,
                    "velocity": 0.2755905511811024,
                    "duration": 0.10880216666669185
                },
                {
                    "name": "F5",
                    "midi": 77,
                    "time": 652.2689891666753,
                    "velocity": 0.2440944881889764,
                    "duration": 0.10880216666669185
                },
                {
                    "name": "E5",
                    "midi": 76,
                    "time": 652.377791333342,
                    "velocity": 0.28346456692913385,
                    "duration": 0.10880216666669185
                },
                {
                    "name": "F5",
                    "midi": 77,
                    "time": 652.4865935000087,
                    "velocity": 0.25196850393700787,
                    "duration": 0.08160162499996204
                },
                {
                    "name": "E5",
                    "midi": 76,
                    "time": 652.5681951250086,
                    "velocity": 0.2992125984251969,
                    "duration": 0.08160162499996204
                },
                {
                    "name": "F5",
                    "midi": 77,
                    "time": 652.6497967500086,
                    "velocity": 0.2677165354330709,
                    "duration": 0.08160162500007573
                },
                {
                    "name": "E5",
                    "midi": 76,
                    "time": 652.724598239592,
                    "velocity": 0.2677165354330709,
                    "duration": 0.08160162500007573
                },
                {
                    "name": "F5",
                    "midi": 77,
                    "time": 652.8130000000087,
                    "velocity": 0.28346456692913385,
                    "duration": 0.10880216666669185
                },
                {
                    "name": "G5",
                    "midi": 79,
                    "time": 652.9218021666754,
                    "velocity": 0.2440944881889764,
                    "duration": 0.10880216666669185
                },
                {
                    "name": "F5",
                    "midi": 77,
                    "time": 653.0306043333421,
                    "velocity": 0.25984251968503935,
                    "duration": 0.10880216666669185
                },
                {
                    "name": "G5",
                    "midi": 79,
                    "time": 653.1394065000088,
                    "velocity": 0.2283464566929134,
                    "duration": 0.10880216666669185
                },
                {
                    "name": "F5",
                    "midi": 77,
                    "time": 653.2482086666755,
                    "velocity": 0.25196850393700787,
                    "duration": 0.10880216666669185
                },
                {
                    "name": "G5",
                    "midi": 79,
                    "time": 653.3570108333422,
                    "velocity": 0.2204724409448819,
                    "duration": 0.10880216666669185
                },
                {
                    "name": "C#5",
                    "midi": 73,
                    "time": 653.4658130000089,
                    "velocity": 0.2440944881889764,
                    "duration": 0.10880216666669185
                },
                {
                    "name": "C5",
                    "midi": 72,
                    "time": 653.5746151666756,
                    "velocity": 0.2125984251968504,
                    "duration": 0.10880216666669185
                },
                {
                    "name": "C#5",
                    "midi": 73,
                    "time": 653.6834173333423,
                    "velocity": 0.2440944881889764,
                    "duration": 0.10880216666669185
                },
                {
                    "name": "C5",
                    "midi": 72,
                    "time": 653.792219500009,
                    "velocity": 0.2125984251968504,
                    "duration": 0.10880216666669185
                },
                {
                    "name": "C#5",
                    "midi": 73,
                    "time": 653.9010216666757,
                    "velocity": 0.2440944881889764,
                    "duration": 0.10880216666669185
                },
                {
                    "name": "C5",
                    "midi": 72,
                    "time": 654.0098238333424,
                    "velocity": 0.2125984251968504,
                    "duration": 0.10880216666669185
                },
                {
                    "name": "C#5",
                    "midi": 73,
                    "time": 654.118626000009,
                    "velocity": 0.25196850393700787,
                    "duration": 0.10880216666669185
                },
                {
                    "name": "C5",
                    "midi": 72,
                    "time": 654.2274281666757,
                    "velocity": 0.2204724409448819,
                    "duration": 0.10880216666669185
                },
                {
                    "name": "C#5",
                    "midi": 73,
                    "time": 654.3362303333424,
                    "velocity": 0.2440944881889764,
                    "duration": 0.10880216666669185
                },
                {
                    "name": "C5",
                    "midi": 72,
                    "time": 654.4450325000091,
                    "velocity": 0.2125984251968504,
                    "duration": 0.10880216666669185
                },
                {
                    "name": "C#5",
                    "midi": 73,
                    "time": 654.5538346666758,
                    "velocity": 0.2440944881889764,
                    "duration": 0.10880216666669185
                },
                {
                    "name": "C5",
                    "midi": 72,
                    "time": 654.6626368333425,
                    "velocity": 0.2125984251968504,
                    "duration": 0.10880216666669185
                },
                {
                    "name": "C#5",
                    "midi": 73,
                    "time": 654.7714390000092,
                    "velocity": 0.2440944881889764,
                    "duration": 0.10880216666669185
                },
                {
                    "name": "C5",
                    "midi": 72,
                    "time": 654.8802411666759,
                    "velocity": 0.2125984251968504,
                    "duration": 0.10880216666669185
                },
                {
                    "name": "C#5",
                    "midi": 73,
                    "time": 654.9890433333426,
                    "velocity": 0.2440944881889764,
                    "duration": 0.10880216666669185
                },
                {
                    "name": "C5",
                    "midi": 72,
                    "time": 655.0978455000093,
                    "velocity": 0.2125984251968504,
                    "duration": 0.10880216666669185
                },
                {
                    "name": "C#5",
                    "midi": 73,
                    "time": 655.206647666676,
                    "velocity": 0.2440944881889764,
                    "duration": 0.10880216666669185
                },
                {
                    "name": "C5",
                    "midi": 72,
                    "time": 655.3154498333427,
                    "velocity": 0.2125984251968504,
                    "duration": 0.10880216666669185
                },
                {
                    "name": "C#5",
                    "midi": 73,
                    "time": 655.4242520000093,
                    "velocity": 0.25196850393700787,
                    "duration": 0.10880216666669185
                },
                {
                    "name": "C5",
                    "midi": 72,
                    "time": 655.533054166676,
                    "velocity": 0.2204724409448819,
                    "duration": 0.10880216666669185
                },
                {
                    "name": "C#5",
                    "midi": 73,
                    "time": 655.6418563333427,
                    "velocity": 0.2440944881889764,
                    "duration": 0.10880216666669185
                },
                {
                    "name": "C5",
                    "midi": 72,
                    "time": 655.7506585000094,
                    "velocity": 0.2125984251968504,
                    "duration": 0.10880216666669185
                },
                {
                    "name": "C#5",
                    "midi": 73,
                    "time": 655.8594606666761,
                    "velocity": 0.2440944881889764,
                    "duration": 0.10880216666669185
                },
                {
                    "name": "C5",
                    "midi": 72,
                    "time": 655.9682628333428,
                    "velocity": 0.2125984251968504,
                    "duration": 0.10880216666669185
                },
                {
                    "name": "C#5",
                    "midi": 73,
                    "time": 656.0770650000095,
                    "velocity": 0.2440944881889764,
                    "duration": 0.10880216666669185
                },
                {
                    "name": "C5",
                    "midi": 72,
                    "time": 656.1858671666762,
                    "velocity": 0.2125984251968504,
                    "duration": 0.10880216666669185
                },
                {
                    "name": "C#5",
                    "midi": 73,
                    "time": 656.2946693333429,
                    "velocity": 0.2440944881889764,
                    "duration": 0.10880216666669185
                },
                {
                    "name": "C5",
                    "midi": 72,
                    "time": 656.4034715000096,
                    "velocity": 0.2125984251968504,
                    "duration": 0.10880216666669185
                },
                {
                    "name": "C#5",
                    "midi": 73,
                    "time": 656.5122736666763,
                    "velocity": 0.2440944881889764,
                    "duration": 0.10880216666669185
                },
                {
                    "name": "C5",
                    "midi": 72,
                    "time": 656.621075833343,
                    "velocity": 0.2125984251968504,
                    "duration": 0.10880216666669185
                },
                {
                    "name": "C#5",
                    "midi": 73,
                    "time": 656.7298780000096,
                    "velocity": 0.25196850393700787,
                    "duration": 0.10880216666669185
                },
                {
                    "name": "C5",
                    "midi": 72,
                    "time": 656.8386801666763,
                    "velocity": 0.2204724409448819,
                    "duration": 0.10880216666669185
                },
                {
                    "name": "C#5",
                    "midi": 73,
                    "time": 656.947482333343,
                    "velocity": 0.25196850393700787,
                    "duration": 0.10880216666669185
                },
                {
                    "name": "C5",
                    "midi": 72,
                    "time": 657.0562845000097,
                    "velocity": 0.2204724409448819,
                    "duration": 0.10880216666669185
                },
                {
                    "name": "C#5",
                    "midi": 73,
                    "time": 657.1650866666764,
                    "velocity": 0.2677165354330709,
                    "duration": 0.10880216666669185
                },
                {
                    "name": "C5",
                    "midi": 72,
                    "time": 657.2738888333431,
                    "velocity": 0.23622047244094488,
                    "duration": 0.10880216666669185
                },
                {
                    "name": "C#5",
                    "midi": 73,
                    "time": 657.3826910000098,
                    "velocity": 0.2755905511811024,
                    "duration": 0.10880216666669185
                },
                {
                    "name": "C5",
                    "midi": 72,
                    "time": 657.4914931666765,
                    "velocity": 0.2283464566929134,
                    "duration": 0.10880216666669185
                },
                {
                    "name": "C#5",
                    "midi": 73,
                    "time": 657.6002953333432,
                    "velocity": 0.2677165354330709,
                    "duration": 0.10880216666669185
                },
                {
                    "name": "C5",
                    "midi": 72,
                    "time": 657.7090975000099,
                    "velocity": 0.2283464566929134,
                    "duration": 0.10880216666669185
                },
                {
                    "name": "C#5",
                    "midi": 73,
                    "time": 657.8178996666766,
                    "velocity": 0.2677165354330709,
                    "duration": 0.10880216666669185
                },
                {
                    "name": "C5",
                    "midi": 72,
                    "time": 657.9267018333433,
                    "velocity": 0.2204724409448819,
                    "duration": 0.10880216666669185
                },
                {
                    "name": "C#5",
                    "midi": 73,
                    "time": 658.03550400001,
                    "velocity": 0.25196850393700787,
                    "duration": 0.10880216666669185
                },
                {
                    "name": "C5",
                    "midi": 72,
                    "time": 658.1443061666766,
                    "velocity": 0.2204724409448819,
                    "duration": 0.10880216666669185
                },
                {
                    "name": "C#5",
                    "midi": 73,
                    "time": 658.2531083333433,
                    "velocity": 0.2440944881889764,
                    "duration": 0.10880216666669185
                },
                {
                    "name": "C5",
                    "midi": 72,
                    "time": 658.36191050001,
                    "velocity": 0.2125984251968504,
                    "duration": 0.10880216666669185
                },
                {
                    "name": "C#5",
                    "midi": 73,
                    "time": 658.4707126666767,
                    "velocity": 0.2440944881889764,
                    "duration": 0.10880216666669185
                },
                {
                    "name": "C5",
                    "midi": 72,
                    "time": 658.5795148333434,
                    "velocity": 0.2125984251968504,
                    "duration": 0.10880216666669185
                },
                {
                    "name": "C#5",
                    "midi": 73,
                    "time": 658.6883170000101,
                    "velocity": 0.2440944881889764,
                    "duration": 0.10880216666669185
                },
                {
                    "name": "C5",
                    "midi": 72,
                    "time": 658.7971191666768,
                    "velocity": 0.2125984251968504,
                    "duration": 0.10880216666669185
                },
                {
                    "name": "C#5",
                    "midi": 73,
                    "time": 658.9059213333435,
                    "velocity": 0.2440944881889764,
                    "duration": 0.10880216666669185
                },
                {
                    "name": "C5",
                    "midi": 72,
                    "time": 659.0147235000102,
                    "velocity": 0.2125984251968504,
                    "duration": 0.10880216666669185
                },
                {
                    "name": "C#5",
                    "midi": 73,
                    "time": 659.1235256666769,
                    "velocity": 0.2440944881889764,
                    "duration": 0.10880216666669185
                },
                {
                    "name": "C5",
                    "midi": 72,
                    "time": 659.2323278333436,
                    "velocity": 0.2125984251968504,
                    "duration": 0.10880216666669185
                },
                {
                    "name": "C#5",
                    "midi": 73,
                    "time": 659.3411300000103,
                    "velocity": 0.25196850393700787,
                    "duration": 0.10880216666669185
                },
                {
                    "name": "C5",
                    "midi": 72,
                    "time": 659.449932166677,
                    "velocity": 0.2204724409448819,
                    "duration": 0.10880216666669185
                },
                {
                    "name": "C#5",
                    "midi": 73,
                    "time": 659.5587343333436,
                    "velocity": 0.25196850393700787,
                    "duration": 0.10880216666669185
                },
                {
                    "name": "C5",
                    "midi": 72,
                    "time": 659.6675365000103,
                    "velocity": 0.2204724409448819,
                    "duration": 0.10880216666669185
                },
                {
                    "name": "C#5",
                    "midi": 73,
                    "time": 659.776338666677,
                    "velocity": 0.2677165354330709,
                    "duration": 0.10880216666669185
                },
                {
                    "name": "C5",
                    "midi": 72,
                    "time": 659.8851408333437,
                    "velocity": 0.23622047244094488,
                    "duration": 0.10880216666669185
                },
                {
                    "name": "C#5",
                    "midi": 73,
                    "time": 659.9939430000104,
                    "velocity": 0.2677165354330709,
                    "duration": 0.10880216666669185
                },
                {
                    "name": "C5",
                    "midi": 72,
                    "time": 660.1027451666771,
                    "velocity": 0.2283464566929134,
                    "duration": 0.10880216666669185
                },
                {
                    "name": "C#5",
                    "midi": 73,
                    "time": 660.2115473333438,
                    "velocity": 0.2677165354330709,
                    "duration": 0.10880216666669185
                },
                {
                    "name": "C5",
                    "midi": 72,
                    "time": 660.3203495000105,
                    "velocity": 0.2204724409448819,
                    "duration": 0.10880216666669185
                },
                {
                    "name": "C#5",
                    "midi": 73,
                    "time": 660.4291516666772,
                    "velocity": 0.2677165354330709,
                    "duration": 0.10880216666669185
                },
                {
                    "name": "C5",
                    "midi": 72,
                    "time": 660.5379538333439,
                    "velocity": 0.2283464566929134,
                    "duration": 0.10880216666669185
                },
                {
                    "name": "D5",
                    "midi": 74,
                    "time": 660.6467560000106,
                    "velocity": 0.25196850393700787,
                    "duration": 0.10880216666669185
                },
                {
                    "name": "C5",
                    "midi": 72,
                    "time": 660.7555581666772,
                    "velocity": 0.2204724409448819,
                    "duration": 0.10880216666669185
                },
                {
                    "name": "D5",
                    "midi": 74,
                    "time": 660.8643603333439,
                    "velocity": 0.25196850393700787,
                    "duration": 0.10880216666669185
                },
                {
                    "name": "C5",
                    "midi": 72,
                    "time": 660.9731625000106,
                    "velocity": 0.2204724409448819,
                    "duration": 0.10880216666669185
                },
                {
                    "name": "D5",
                    "midi": 74,
                    "time": 661.0819646666773,
                    "velocity": 0.2677165354330709,
                    "duration": 0.10880216666669185
                },
                {
                    "name": "C5",
                    "midi": 72,
                    "time": 661.190766833344,
                    "velocity": 0.23622047244094488,
                    "duration": 0.10880216666669185
                },
                {
                    "name": "D5",
                    "midi": 74,
                    "time": 661.2995690000107,
                    "velocity": 0.25984251968503935,
                    "duration": 0.10880216666669185
                },
                {
                    "name": "C5",
                    "midi": 72,
                    "time": 661.4083711666774,
                    "velocity": 0.2204724409448819,
                    "duration": 0.10880216666669185
                },
                {
                    "name": "D5",
                    "midi": 74,
                    "time": 661.5171733333441,
                    "velocity": 0.2755905511811024,
                    "duration": 0.10880216666669185
                },
                {
                    "name": "C5",
                    "midi": 72,
                    "time": 661.6259755000108,
                    "velocity": 0.2204724409448819,
                    "duration": 0.10880216666669185
                },
                {
                    "name": "D5",
                    "midi": 74,
                    "time": 661.7347776666775,
                    "velocity": 0.2677165354330709,
                    "duration": 0.10880216666669185
                },
                {
                    "name": "C5",
                    "midi": 72,
                    "time": 661.8435798333442,
                    "velocity": 0.23622047244094488,
                    "duration": 0.10880216666669185
                },
                {
                    "name": "D5",
                    "midi": 74,
                    "time": 661.9523820000109,
                    "velocity": 0.25984251968503935,
                    "duration": 0.10880216666669185
                },
                {
                    "name": "C5",
                    "midi": 72,
                    "time": 662.0611841666775,
                    "velocity": 0.2283464566929134,
                    "duration": 0.10880216666669185
                },
                {
                    "name": "D5",
                    "midi": 74,
                    "time": 662.1699863333442,
                    "velocity": 0.25984251968503935,
                    "duration": 0.10880216666669185
                },
                {
                    "name": "C5",
                    "midi": 72,
                    "time": 662.2787885000109,
                    "velocity": 0.2283464566929134,
                    "duration": 0.10880216666669185
                },
                {
                    "name": "D5",
                    "midi": 74,
                    "time": 662.3875906666776,
                    "velocity": 0.28346456692913385,
                    "duration": 0.10880216666669185
                },
                {
                    "name": "C5",
                    "midi": 72,
                    "time": 662.4963928333443,
                    "velocity": 0.25196850393700787,
                    "duration": 0.10880216666669185
                },
                {
                    "name": "D5",
                    "midi": 74,
                    "time": 662.605195000011,
                    "velocity": 0.29133858267716534,
                    "duration": 0.10880216666669185
                },
                {
                    "name": "C5",
                    "midi": 72,
                    "time": 662.7139971666777,
                    "velocity": 0.25984251968503935,
                    "duration": 0.10880216666669185
                },
                {
                    "name": "D5",
                    "midi": 74,
                    "time": 662.8227993333444,
                    "velocity": 0.28346456692913385,
                    "duration": 0.10880216666669185
                },
                {
                    "name": "C5",
                    "midi": 72,
                    "time": 662.9316015000111,
                    "velocity": 0.2440944881889764,
                    "duration": 0.10880216666669185
                },
                {
                    "name": "D5",
                    "midi": 74,
                    "time": 663.0404036666778,
                    "velocity": 0.29133858267716534,
                    "duration": 0.10880216666669185
                },
                {
                    "name": "C5",
                    "midi": 72,
                    "time": 663.1492058333445,
                    "velocity": 0.2440944881889764,
                    "duration": 0.10880216666669185
                },
                {
                    "name": "D5",
                    "midi": 74,
                    "time": 663.2580080000112,
                    "velocity": 0.2755905511811024,
                    "duration": 0.10880216666669185
                },
                {
                    "name": "C5",
                    "midi": 72,
                    "time": 663.3668101666779,
                    "velocity": 0.23622047244094488,
                    "duration": 0.10880216666669185
                },
                {
                    "name": "D5",
                    "midi": 74,
                    "time": 663.4756123333445,
                    "velocity": 0.2755905511811024,
                    "duration": 0.10880216666669185
                },
                {
                    "name": "C5",
                    "midi": 72,
                    "time": 663.5844145000112,
                    "velocity": 0.2440944881889764,
                    "duration": 0.10880216666669185
                },
                {
                    "name": "D5",
                    "midi": 74,
                    "time": 663.6932166666779,
                    "velocity": 0.29133858267716534,
                    "duration": 0.10880216666669185
                },
                {
                    "name": "C5",
                    "midi": 72,
                    "time": 663.8020188333446,
                    "velocity": 0.25984251968503935,
                    "duration": 0.10880216666669185
                },
                {
                    "name": "D5",
                    "midi": 74,
                    "time": 663.9108210000113,
                    "velocity": 0.30708661417322836,
                    "duration": 0.10880216666669185
                },
                {
                    "name": "C5",
                    "midi": 72,
                    "time": 664.019623166678,
                    "velocity": 0.2677165354330709,
                    "duration": 0.10880216666669185
                },
                {
                    "name": "D5",
                    "midi": 74,
                    "time": 664.1284253333447,
                    "velocity": 0.30708661417322836,
                    "duration": 0.10880216666669185
                },
                {
                    "name": "C5",
                    "midi": 72,
                    "time": 664.2372275000114,
                    "velocity": 0.28346456692913385,
                    "duration": 0.10880216666669185
                },
                {
                    "name": "D5",
                    "midi": 74,
                    "time": 664.3460296666781,
                    "velocity": 0.30708661417322836,
                    "duration": 0.10880216666669185
                },
                {
                    "name": "C5",
                    "midi": 72,
                    "time": 664.4548318333448,
                    "velocity": 0.2755905511811024,
                    "duration": 0.10880216666669185
                },
                {
                    "name": "D5",
                    "midi": 74,
                    "time": 664.5636340000115,
                    "velocity": 0.28346456692913385,
                    "duration": 0.10880216666669185
                },
                {
                    "name": "C5",
                    "midi": 72,
                    "time": 664.6724361666782,
                    "velocity": 0.25196850393700787,
                    "duration": 0.10880216666669185
                },
                {
                    "name": "D5",
                    "midi": 74,
                    "time": 664.7812383333448,
                    "velocity": 0.28346456692913385,
                    "duration": 0.10880216666669185
                },
                {
                    "name": "C5",
                    "midi": 72,
                    "time": 664.8900405000115,
                    "velocity": 0.25196850393700787,
                    "duration": 0.10880216666669185
                },
                {
                    "name": "D5",
                    "midi": 74,
                    "time": 664.9988426666782,
                    "velocity": 0.30708661417322836,
                    "duration": 0.10880216666669185
                },
                {
                    "name": "C5",
                    "midi": 72,
                    "time": 665.1076448333449,
                    "velocity": 0.2755905511811024,
                    "duration": 0.10880216666669185
                },
                {
                    "name": "D5",
                    "midi": 74,
                    "time": 665.2164470000116,
                    "velocity": 0.31496062992125984,
                    "duration": 0.10880216666669185
                },
                {
                    "name": "C5",
                    "midi": 72,
                    "time": 665.3252491666783,
                    "velocity": 0.28346456692913385,
                    "duration": 0.10880216666669185
                },
                {
                    "name": "D5",
                    "midi": 74,
                    "time": 665.434051333345,
                    "velocity": 0.31496062992125984,
                    "duration": 0.10880216666669185
                },
                {
                    "name": "C5",
                    "midi": 72,
                    "time": 665.5428535000117,
                    "velocity": 0.2755905511811024,
                    "duration": 0.08160162499996204
                },
                {
                    "name": "D5",
                    "midi": 74,
                    "time": 665.6244551250117,
                    "velocity": 0.31496062992125984,
                    "duration": 0.08160162499996204
                },
                {
                    "name": "C5",
                    "midi": 72,
                    "time": 665.7060567500116,
                    "velocity": 0.2677165354330709,
                    "duration": 0.08160162499996204
                },
                {
                    "name": "D5",
                    "midi": 74,
                    "time": 665.7876583750116,
                    "velocity": 0.2677165354330709,
                    "duration": 0.08160162499996204
                },
                {
                    "name": "C5",
                    "midi": 72,
                    "time": 665.8692600000115,
                    "velocity": 0.2992125984251969,
                    "duration": 0.10880216666669185
                },
                {
                    "name": "D5",
                    "midi": 74,
                    "time": 665.9780621666782,
                    "velocity": 0.25984251968503935,
                    "duration": 0.10880216666669185
                },
                {
                    "name": "E5",
                    "midi": 76,
                    "time": 666.0868643333449,
                    "velocity": 0.30708661417322836,
                    "duration": 0.10880216666669185
                },
                {
                    "name": "D5",
                    "midi": 74,
                    "time": 666.1956665000116,
                    "velocity": 0.2677165354330709,
                    "duration": 0.10880216666669185
                },
                {
                    "name": "E5",
                    "midi": 76,
                    "time": 666.3044686666783,
                    "velocity": 0.33070866141732286,
                    "duration": 0.10880216666669185
                },
                {
                    "name": "D5",
                    "midi": 74,
                    "time": 666.413270833345,
                    "velocity": 0.29133858267716534,
                    "duration": 0.10880216666669185
                },
                {
                    "name": "E5",
                    "midi": 76,
                    "time": 666.5220730000117,
                    "velocity": 0.3464566929133858,
                    "duration": 0.10880216666669185
                },
                {
                    "name": "D5",
                    "midi": 74,
                    "time": 666.6308751666784,
                    "velocity": 0.30708661417322836,
                    "duration": 0.10880216666669185
                },
                {
                    "name": "E5",
                    "midi": 76,
                    "time": 666.7396773333451,
                    "velocity": 0.33858267716535434,
                    "duration": 0.10880216666669185
                },
                {
                    "name": "D5",
                    "midi": 74,
                    "time": 666.8484795000118,
                    "velocity": 0.29133858267716534,
                    "duration": 0.10880216666669185
                },
                {
                    "name": "E5",
                    "midi": 76,
                    "time": 666.9572816666785,
                    "velocity": 0.3543307086614173,
                    "duration": 0.10880216666669185
                },
                {
                    "name": "D5",
                    "midi": 74,
                    "time": 667.0660838333451,
                    "velocity": 0.31496062992125984,
                    "duration": 0.10880216666669185
                },
                {
                    "name": "E5",
                    "midi": 76,
                    "time": 667.1748860000118,
                    "velocity": 0.33070866141732286,
                    "duration": 0.10880216666669185
                },
                {
                    "name": "D5",
                    "midi": 74,
                    "time": 667.2836881666785,
                    "velocity": 0.29133858267716534,
                    "duration": 0.10880216666669185
                },
                {
                    "name": "E5",
                    "midi": 76,
                    "time": 667.3924903333452,
                    "velocity": 0.33070866141732286,
                    "duration": 0.10880216666669185
                },
                {
                    "name": "D5",
                    "midi": 74,
                    "time": 667.5012925000119,
                    "velocity": 0.29133858267716534,
                    "duration": 0.10880216666669185
                },
                {
                    "name": "E5",
                    "midi": 76,
                    "time": 667.6100946666786,
                    "velocity": 0.36220472440944884,
                    "duration": 0.10880216666669185
                },
                {
                    "name": "D5",
                    "midi": 74,
                    "time": 667.7188968333453,
                    "velocity": 0.3228346456692913,
                    "duration": 0.10880216666669185
                },
                {
                    "name": "E5",
                    "midi": 76,
                    "time": 667.827699000012,
                    "velocity": 0.3779527559055118,
                    "duration": 0.10880216666669185
                },
                {
                    "name": "D5",
                    "midi": 74,
                    "time": 667.9365011666787,
                    "velocity": 0.33858267716535434,
                    "duration": 0.10880216666669185
                },
                {
                    "name": "E5",
                    "midi": 76,
                    "time": 668.0453033333454,
                    "velocity": 0.3858267716535433,
                    "duration": 0.10880216666669185
                },
                {
                    "name": "D5",
                    "midi": 74,
                    "time": 668.1541055000121,
                    "velocity": 0.31496062992125984,
                    "duration": 0.10880216666669185
                },
                {
                    "name": "E5",
                    "midi": 76,
                    "time": 668.2629076666788,
                    "velocity": 0.3858267716535433,
                    "duration": 0.10880216666669185
                },
                {
                    "name": "D5",
                    "midi": 74,
                    "time": 668.3717098333454,
                    "velocity": 0.33070866141732286,
                    "duration": 0.10880216666669185
                },
                {
                    "name": "E5",
                    "midi": 76,
                    "time": 668.4805120000121,
                    "velocity": 0.36220472440944884,
                    "duration": 0.10880216666669185
                },
                {
                    "name": "D5",
                    "midi": 74,
                    "time": 668.5893141666788,
                    "velocity": 0.31496062992125984,
                    "duration": 0.10880216666669185
                },
                {
                    "name": "E5",
                    "midi": 76,
                    "time": 668.6981163333455,
                    "velocity": 0.3700787401574803,
                    "duration": 0.10880216666669185
                },
                {
                    "name": "D5",
                    "midi": 74,
                    "time": 668.8069185000122,
                    "velocity": 0.3228346456692913,
                    "duration": 0.10880216666669185
                },
                {
                    "name": "E5",
                    "midi": 76,
                    "time": 668.9157206666789,
                    "velocity": 0.3858267716535433,
                    "duration": 0.10880216666669185
                },
                {
                    "name": "D5",
                    "midi": 74,
                    "time": 669.0245228333456,
                    "velocity": 0.3543307086614173,
                    "duration": 0.10880216666669185
                },
                {
                    "name": "E5",
                    "midi": 76,
                    "time": 669.1333250000123,
                    "velocity": 0.4094488188976378,
                    "duration": 0.10880216666669185
                },
                {
                    "name": "D5",
                    "midi": 74,
                    "time": 669.242127166679,
                    "velocity": 0.3700787401574803,
                    "duration": 0.10880216666669185
                },
                {
                    "name": "E5",
                    "midi": 76,
                    "time": 669.3509293333457,
                    "velocity": 0.41732283464566927,
                    "duration": 0.10880216666669185
                },
                {
                    "name": "D5",
                    "midi": 74,
                    "time": 669.4597315000124,
                    "velocity": 0.33858267716535434,
                    "duration": 0.10880216666669185
                },
                {
                    "name": "E5",
                    "midi": 76,
                    "time": 669.5685336666791,
                    "velocity": 0.4094488188976378,
                    "duration": 0.10880216666669185
                },
                {
                    "name": "D5",
                    "midi": 74,
                    "time": 669.6773358333458,
                    "velocity": 0.41732283464566927,
                    "duration": 0.10880216666669185
                },
                {
                    "name": "E5",
                    "midi": 76,
                    "time": 669.7861380000124,
                    "velocity": 0.3937007874015748,
                    "duration": 0.10880216666669185
                },
                {
                    "name": "D5",
                    "midi": 74,
                    "time": 669.8949401666791,
                    "velocity": 0.3464566929133858,
                    "duration": 0.10880216666669185
                },
                {
                    "name": "E5",
                    "midi": 76,
                    "time": 670.0037423333458,
                    "velocity": 0.3937007874015748,
                    "duration": 0.10880216666669185
                },
                {
                    "name": "D5",
                    "midi": 74,
                    "time": 670.1125445000125,
                    "velocity": 0.3464566929133858,
                    "duration": 0.10880216666669185
                },
                {
                    "name": "E5",
                    "midi": 76,
                    "time": 670.2213466666792,
                    "velocity": 0.4251968503937008,
                    "duration": 0.10880216666669185
                },
                {
                    "name": "D5",
                    "midi": 74,
                    "time": 670.3301488333459,
                    "velocity": 0.3779527559055118,
                    "duration": 0.10880216666669185
                },
                {
                    "name": "E5",
                    "midi": 76,
                    "time": 670.4389510000126,
                    "velocity": 0.4566929133858268,
                    "duration": 0.10880216666669185
                },
                {
                    "name": "D5",
                    "midi": 74,
                    "time": 670.5477531666793,
                    "velocity": 0.3700787401574803,
                    "duration": 0.10880216666669185
                },
                {
                    "name": "E5",
                    "midi": 76,
                    "time": 670.656555333346,
                    "velocity": 0.4409448818897638,
                    "duration": 0.10880216666669185
                },
                {
                    "name": "D5",
                    "midi": 74,
                    "time": 670.7653575000127,
                    "velocity": 0.3779527559055118,
                    "duration": 0.10880216666669185
                },
                {
                    "name": "E5",
                    "midi": 76,
                    "time": 670.8741596666794,
                    "velocity": 0.4566929133858268,
                    "duration": 0.10880216666669185
                },
                {
                    "name": "D5",
                    "midi": 74,
                    "time": 670.982961833346,
                    "velocity": 0.3779527559055118,
                    "duration": 0.10880216666669185
                }
            ],
            "controlChanges": {
                "7": [
                    {
                        "number": 7,
                        "time": 0,
                        "value": 0.7874015748031497
                    }
                ],
                "10": [
                    {
                        "number": 10,
                        "time": 0,
                        "value": 0.5039370078740157
                    }
                ]
            },
            "id": 1,
            "name": "Triller",
            "instrumentNumber": 1,
            "instrument": "bright acoustic piano",
            "instrumentFamily": "piano",
            "channelNumber": 0,
            "isPercussion": false
        },
        {
            "startTime": 0.16320325,
            "duration": 707.8124952500042,
            "length": 3472,
            "notes": [
                {
                    "name": "E3",
                    "midi": 52,
                    "time": 0.16320325,
                    "velocity": 0.2204724409448819,
                    "duration": 0.16320325
                },
                {
                    "name": "G3",
                    "midi": 55,
                    "time": 0.3264065,
                    "velocity": 0.23622047244094488,
                    "duration": 0.16320324999999997
                },
                {
                    "name": "C4",
                    "midi": 60,
                    "time": 0.48960974999999995,
                    "velocity": 0.25196850393700787,
                    "duration": 0.16320325000000002
                },
                {
                    "name": "E4",
                    "midi": 64,
                    "time": 0.652813,
                    "velocity": 0.2677165354330709,
                    "duration": 0.16320325000000002
                },
                {
                    "name": "E3",
                    "midi": 52,
                    "time": 0.81601625,
                    "velocity": 0.2440944881889764,
                    "duration": 0.16320325000000002
                },
                {
                    "name": "G3",
                    "midi": 55,
                    "time": 0.9792195,
                    "velocity": 0.2440944881889764,
                    "duration": 0.1632032499999999
                },
                {
                    "name": "C4",
                    "midi": 60,
                    "time": 1.14242275,
                    "velocity": 0.2440944881889764,
                    "duration": 0.16320325000000002
                },
                {
                    "name": "E4",
                    "midi": 64,
                    "time": 1.305626,
                    "velocity": 0.2755905511811024,
                    "duration": 0.16320325000000002
                },
                {
                    "name": "E3",
                    "midi": 52,
                    "time": 1.46882925,
                    "velocity": 0.23622047244094488,
                    "duration": 0.16320325000000002
                },
                {
                    "name": "G3",
                    "midi": 55,
                    "time": 1.6320325,
                    "velocity": 0.2440944881889764,
                    "duration": 0.16320325000000002
                },
                {
                    "name": "C4",
                    "midi": 60,
                    "time": 1.79523575,
                    "velocity": 0.25984251968503935,
                    "duration": 0.16320325000000002
                },
                {
                    "name": "E4",
                    "midi": 64,
                    "time": 1.958439,
                    "velocity": 0.28346456692913385,
                    "duration": 0.1632032499999998
                },
                {
                    "name": "E3",
                    "midi": 52,
                    "time": 2.12164225,
                    "velocity": 0.25984251968503935,
                    "duration": 0.16320325000000002
                },
                {
                    "name": "G3",
                    "midi": 55,
                    "time": 2.2848455,
                    "velocity": 0.25984251968503935,
                    "duration": 0.16320325000000002
                },
                {
                    "name": "C4",
                    "midi": 60,
                    "time": 2.44804875,
                    "velocity": 0.25984251968503935,
                    "duration": 0.16320325000000002
                },
                {
                    "name": "F3",
                    "midi": 53,
                    "time": 2.77445525,
                    "velocity": 0.2204724409448819,
                    "duration": 0.16320325000000002
                },
                {
                    "name": "G3",
                    "midi": 55,
                    "time": 2.9376585,
                    "velocity": 0.2440944881889764,
                    "duration": 0.16320325000000002
                },
                {
                    "name": "B3",
                    "midi": 59,
                    "time": 3.10086175,
                    "velocity": 0.25984251968503935,
                    "duration": 0.16320325000000002
                },
                {
                    "name": "D4",
                    "midi": 62,
                    "time": 3.264065,
                    "velocity": 0.28346456692913385,
                    "duration": 0.16320325000000002
                },
                {
                    "name": "F3",
                    "midi": 53,
                    "time": 3.42726825,
                    "velocity": 0.25984251968503935,
                    "duration": 0.16320325000000002
                },
                {
                    "name": "G3",
                    "midi": 55,
                    "time": 3.5904715,
                    "velocity": 0.25984251968503935,
                    "duration": 0.16320325000000002
                },
                {
                    "name": "B3",
                    "midi": 59,
                    "time": 3.75367475,
                    "velocity": 0.2677165354330709,
                    "duration": 0.16320325000000002
                },
                {
                    "name": "E3",
                    "midi": 52,
                    "time": 4.08008125,
                    "velocity": 0.2204724409448819,
                    "duration": 0.16320324999999958
                },
                {
                    "name": "G3",
                    "midi": 55,
                    "time": 4.2432845,
                    "velocity": 0.23622047244094488,
                    "duration": 0.16320324999999958
                },
                {
                    "name": "C4",
                    "midi": 60,
                    "time": 4.406487749999999,
                    "velocity": 0.25196850393700787,
                    "duration": 0.16320324999999958
                },
                {
                    "name": "E4",
                    "midi": 64,
                    "time": 4.569690999999999,
                    "velocity": 0.2677165354330709,
                    "duration": 0.16320324999999958
                },
                {
                    "name": "E3",
                    "midi": 52,
                    "time": 4.732894249999998,
                    "velocity": 0.25196850393700787,
                    "duration": 0.16320324999999958
                },
                {
                    "name": "G3",
                    "midi": 55,
                    "time": 4.896097499999998,
                    "velocity": 0.25196850393700787,
                    "duration": 0.16320324999999958
                },
                {
                    "name": "C4",
                    "midi": 60,
                    "time": 5.059300749999998,
                    "velocity": 0.25984251968503935,
                    "duration": 0.16320324999999958
                },
                {
                    "name": "E3",
                    "midi": 52,
                    "time": 5.385707249999997,
                    "velocity": 0.2204724409448819,
                    "duration": 0.16320324999999958
                },
                {
                    "name": "G3",
                    "midi": 55,
                    "time": 5.548910499999996,
                    "velocity": 0.23622047244094488,
                    "duration": 0.16320324999999958
                },
                {
                    "name": "C4",
                    "midi": 60,
                    "time": 5.712113749999996,
                    "velocity": 0.25196850393700787,
                    "duration": 0.16320324999999958
                },
                {
                    "name": "E4",
                    "midi": 64,
                    "time": 5.8753169999999955,
                    "velocity": 0.2677165354330709,
                    "duration": 0.16320324999999958
                },
                {
                    "name": "E3",
                    "midi": 52,
                    "time": 6.038520249999995,
                    "velocity": 0.2440944881889764,
                    "duration": 0.16320324999999958
                },
                {
                    "name": "G3",
                    "midi": 55,
                    "time": 6.201723499999995,
                    "velocity": 0.2440944881889764,
                    "duration": 0.16320324999999958
                },
                {
                    "name": "C4",
                    "midi": 60,
                    "time": 6.364926749999994,
                    "velocity": 0.2440944881889764,
                    "duration": 0.16320324999999958
                },
                {
                    "name": "E4",
                    "midi": 64,
                    "time": 6.528129999999994,
                    "velocity": 0.2755905511811024,
                    "duration": 0.16320324999999958
                },
                {
                    "name": "E3",
                    "midi": 52,
                    "time": 6.691333249999993,
                    "velocity": 0.23622047244094488,
                    "duration": 0.16320324999999958
                },
                {
                    "name": "G3",
                    "midi": 55,
                    "time": 6.854536499999993,
                    "velocity": 0.2440944881889764,
                    "duration": 0.16320324999999958
                },
                {
                    "name": "C4",
                    "midi": 60,
                    "time": 7.0177397499999925,
                    "velocity": 0.25984251968503935,
                    "duration": 0.16320324999999958
                },
                {
                    "name": "E4",
                    "midi": 64,
                    "time": 7.180942999999992,
                    "velocity": 0.28346456692913385,
                    "duration": 0.16320324999999958
                },
                {
                    "name": "E3",
                    "midi": 52,
                    "time": 7.344146249999992,
                    "velocity": 0.25984251968503935,
                    "duration": 0.16320324999999958
                },
                {
                    "name": "G3",
                    "midi": 55,
                    "time": 7.507349499999991,
                    "velocity": 0.25984251968503935,
                    "duration": 0.16320324999999958
                },
                {
                    "name": "C4",
                    "midi": 60,
                    "time": 7.670552749999991,
                    "velocity": 0.25984251968503935,
                    "duration": 0.16320324999999958
                },
                {
                    "name": "F3",
                    "midi": 53,
                    "time": 7.99695924999999,
                    "velocity": 0.2204724409448819,
                    "duration": 0.16320324999999958
                },
                {
                    "name": "G3",
                    "midi": 55,
                    "time": 8.16016249999999,
                    "velocity": 0.2440944881889764,
                    "duration": 0.16320325000000047
                },
                {
                    "name": "B3",
                    "midi": 59,
                    "time": 8.32336574999999,
                    "velocity": 0.25984251968503935,
                    "duration": 0.16320325000000047
                },
                {
                    "name": "D4",
                    "midi": 62,
                    "time": 8.48656899999999,
                    "velocity": 0.28346456692913385,
                    "duration": 0.16320325000000047
                },
                {
                    "name": "F3",
                    "midi": 53,
                    "time": 8.649772249999991,
                    "velocity": 0.25984251968503935,
                    "duration": 0.16320325000000047
                },
                {
                    "name": "G3",
                    "midi": 55,
                    "time": 8.812975499999991,
                    "velocity": 0.25984251968503935,
                    "duration": 0.16320325000000047
                },
                {
                    "name": "B3",
                    "midi": 59,
                    "time": 8.976178749999992,
                    "velocity": 0.2677165354330709,
                    "duration": 0.16320325000000047
                },
                {
                    "name": "E3",
                    "midi": 52,
                    "time": 9.465788499999992,
                    "velocity": 0.23622047244094488,
                    "duration": 0.16320325000000047
                },
                {
                    "name": "G3",
                    "midi": 55,
                    "time": 9.628991749999992,
                    "velocity": 0.25196850393700787,
                    "duration": 0.16320325000000047
                },
                {
                    "name": "C4",
                    "midi": 60,
                    "time": 9.792194999999992,
                    "velocity": 0.2677165354330709,
                    "duration": 0.16320325000000047
                },
                {
                    "name": "E4",
                    "midi": 64,
                    "time": 9.955398249999993,
                    "velocity": 0.25196850393700787,
                    "duration": 0.16320325000000047
                },
                {
                    "name": "D4",
                    "midi": 62,
                    "time": 10.118601499999993,
                    "velocity": 0.25196850393700787,
                    "duration": 0.16320325000000047
                },
                {
                    "name": "C4",
                    "midi": 60,
                    "time": 10.281804749999994,
                    "velocity": 0.25984251968503935,
                    "duration": 0.16320325000000047
                },
                {
                    "name": "B3",
                    "midi": 59,
                    "time": 10.445007999999994,
                    "velocity": 0.2755905511811024,
                    "duration": 0.16320325000000047
                },
                {
                    "name": "G3",
                    "midi": 55,
                    "time": 10.608211249999995,
                    "velocity": 0.2204724409448819,
                    "duration": 0.16320325000000047
                },
                {
                    "name": "B3",
                    "midi": 59,
                    "time": 10.771414499999995,
                    "velocity": 0.23622047244094488,
                    "duration": 0.16320325000000047
                },
                {
                    "name": "D4",
                    "midi": 62,
                    "time": 10.934617749999996,
                    "velocity": 0.25196850393700787,
                    "duration": 0.16320325000000047
                },
                {
                    "name": "G4",
                    "midi": 67,
                    "time": 11.097820999999996,
                    "velocity": 0.2677165354330709,
                    "duration": 0.16320325000000047
                },
                {
                    "name": "G3",
                    "midi": 55,
                    "time": 11.261024249999997,
                    "velocity": 0.2440944881889764,
                    "duration": 0.16320325000000047
                },
                {
                    "name": "B3",
                    "midi": 59,
                    "time": 11.424227499999997,
                    "velocity": 0.2440944881889764,
                    "duration": 0.16320325000000047
                },
                {
                    "name": "D4",
                    "midi": 62,
                    "time": 11.587430749999998,
                    "velocity": 0.2440944881889764,
                    "duration": 0.16320325000000047
                },
                {
                    "name": "G4",
                    "midi": 67,
                    "time": 11.750633999999998,
                    "velocity": 0.2755905511811024,
                    "duration": 0.16320325000000047
                },
                {
                    "name": "G3",
                    "midi": 55,
                    "time": 11.913837249999998,
                    "velocity": 0.23622047244094488,
                    "duration": 0.16320325000000047
                },
                {
                    "name": "B3",
                    "midi": 59,
                    "time": 12.077040499999999,
                    "velocity": 0.2440944881889764,
                    "duration": 0.16320325000000047
                },
                {
                    "name": "D4",
                    "midi": 62,
                    "time": 12.24024375,
                    "velocity": 0.25984251968503935,
                    "duration": 0.16320325000000047
                },
                {
                    "name": "G4",
                    "midi": 67,
                    "time": 12.403447,
                    "velocity": 0.28346456692913385,
                    "duration": 0.16320325000000047
                },
                {
                    "name": "G3",
                    "midi": 55,
                    "time": 12.56665025,
                    "velocity": 0.25984251968503935,
                    "duration": 0.16320325000000047
                },
                {
                    "name": "B3",
                    "midi": 59,
                    "time": 12.7298535,
                    "velocity": 0.25984251968503935,
                    "duration": 0.16320325000000047
                },
                {
                    "name": "G4",
                    "midi": 67,
                    "time": 12.893056750000001,
                    "velocity": 0.25984251968503935,
                    "duration": 0.16320325000000047
                },
                {
                    "name": "G3",
                    "midi": 55,
                    "time": 13.219463250000002,
                    "velocity": 0.2204724409448819,
                    "duration": 0.16320325000000047
                },
                {
                    "name": "C4",
                    "midi": 60,
                    "time": 13.382666500000003,
                    "velocity": 0.2440944881889764,
                    "duration": 0.16320325000000047
                },
                {
                    "name": "G4",
                    "midi": 67,
                    "time": 13.545869750000003,
                    "velocity": 0.25984251968503935,
                    "duration": 0.16320325000000047
                },
                {
                    "name": "G3",
                    "midi": 55,
                    "time": 13.872276250000004,
                    "velocity": 0.2204724409448819,
                    "duration": 0.16320325000000047
                },
                {
                    "name": "E4",
                    "midi": 64,
                    "time": 14.035479500000005,
                    "velocity": 0.2440944881889764,
                    "duration": 0.16320325000000047
                },
                {
                    "name": "G4",
                    "midi": 67,
                    "time": 14.198682750000005,
                    "velocity": 0.25984251968503935,
                    "duration": 0.16320325000000047
                },
                {
                    "name": "G3",
                    "midi": 55,
                    "time": 14.525089250000006,
                    "velocity": 0.2204724409448819,
                    "duration": 0.16320325000000047
                },
                {
                    "name": "D4",
                    "midi": 62,
                    "time": 14.688292500000006,
                    "velocity": 0.23622047244094488,
                    "duration": 0.16320325000000047
                },
                {
                    "name": "G4",
                    "midi": 67,
                    "time": 14.851495750000007,
                    "velocity": 0.25196850393700787,
                    "duration": 0.16320325000000047
                },
                {
                    "name": "G3",
                    "midi": 55,
                    "time": 15.177902250000008,
                    "velocity": 0.2204724409448819,
                    "duration": 0.16320325000000047
                },
                {
                    "name": "B3",
                    "midi": 59,
                    "time": 15.341105500000008,
                    "velocity": 0.23622047244094488,
                    "duration": 0.16320325000000047
                },
                {
                    "name": "G4",
                    "midi": 67,
                    "time": 15.504308750000009,
                    "velocity": 0.25196850393700787,
                    "duration": 0.16320325000000047
                },
                {
                    "name": "G3",
                    "midi": 55,
                    "time": 15.83071525000001,
                    "velocity": 0.2204724409448819,
                    "duration": 0.16320325000000047
                },
                {
                    "name": "B3",
                    "midi": 59,
                    "time": 15.99391850000001,
                    "velocity": 0.23622047244094488,
                    "duration": 0.1632032499999987
                },
                {
                    "name": "D4",
                    "midi": 62,
                    "time": 16.15712175000001,
                    "velocity": 0.25196850393700787,
                    "duration": 0.1632032499999987
                },
                {
                    "name": "G4",
                    "midi": 67,
                    "time": 16.320325000000008,
                    "velocity": 0.2677165354330709,
                    "duration": 0.1632032499999987
                },
                {
                    "name": "G3",
                    "midi": 55,
                    "time": 16.483528250000006,
                    "velocity": 0.2440944881889764,
                    "duration": 0.1632032499999987
                },
                {
                    "name": "B3",
                    "midi": 59,
                    "time": 16.646731500000005,
                    "velocity": 0.2440944881889764,
                    "duration": 0.1632032499999987
                },
                {
                    "name": "D4",
                    "midi": 62,
                    "time": 16.809934750000004,
                    "velocity": 0.2440944881889764,
                    "duration": 0.1632032499999987
                },
                {
                    "name": "G4",
                    "midi": 67,
                    "time": 16.973138000000002,
                    "velocity": 0.2755905511811024,
                    "duration": 0.1632032499999987
                },
                {
                    "name": "G3",
                    "midi": 55,
                    "time": 17.13634125,
                    "velocity": 0.23622047244094488,
                    "duration": 0.1632032499999987
                },
                {
                    "name": "B3",
                    "midi": 59,
                    "time": 17.2995445,
                    "velocity": 0.2440944881889764,
                    "duration": 0.1632032499999987
                },
                {
                    "name": "D4",
                    "midi": 62,
                    "time": 17.46274775,
                    "velocity": 0.25984251968503935,
                    "duration": 0.1632032499999987
                },
                {
                    "name": "G4",
                    "midi": 67,
                    "time": 17.625950999999997,
                    "velocity": 0.28346456692913385,
                    "duration": 0.1632032499999987
                },
                {
                    "name": "G3",
                    "midi": 55,
                    "time": 17.789154249999996,
                    "velocity": 0.25984251968503935,
                    "duration": 0.1632032499999987
                },
                {
                    "name": "B3",
                    "midi": 59,
                    "time": 17.952357499999994,
                    "velocity": 0.25984251968503935,
                    "duration": 0.1632032499999987
                },
                {
                    "name": "G4",
                    "midi": 67,
                    "time": 18.115560749999993,
                    "velocity": 0.25984251968503935,
                    "duration": 0.1632032499999987
                },
                {
                    "name": "G3",
                    "midi": 55,
                    "time": 18.44196724999999,
                    "velocity": 0.2204724409448819,
                    "duration": 0.1632032499999987
                },
                {
                    "name": "C4",
                    "midi": 60,
                    "time": 18.60517049999999,
                    "velocity": 0.2440944881889764,
                    "duration": 0.1632032499999987
                },
                {
                    "name": "G4",
                    "midi": 67,
                    "time": 18.768373749999988,
                    "velocity": 0.25984251968503935,
                    "duration": 0.1632032499999987
                },
                {
                    "name": "G3",
                    "midi": 55,
                    "time": 19.094780249999985,
                    "velocity": 0.2204724409448819,
                    "duration": 0.1632032499999987
                },
                {
                    "name": "D#4",
                    "midi": 63,
                    "time": 19.257983499999984,
                    "velocity": 0.2440944881889764,
                    "duration": 0.1632032499999987
                },
                {
                    "name": "G4",
                    "midi": 67,
                    "time": 19.421186749999983,
                    "velocity": 0.25984251968503935,
                    "duration": 0.1632032499999987
                },
                {
                    "name": "G3",
                    "midi": 55,
                    "time": 19.74759324999998,
                    "velocity": 0.2204724409448819,
                    "duration": 0.1632032499999987
                },
                {
                    "name": "D4",
                    "midi": 62,
                    "time": 19.91079649999998,
                    "velocity": 0.23622047244094488,
                    "duration": 0.1632032499999987
                },
                {
                    "name": "G4",
                    "midi": 67,
                    "time": 20.073999749999977,
                    "velocity": 0.25196850393700787,
                    "duration": 0.1632032499999987
                },
                {
                    "name": "G3",
                    "midi": 55,
                    "time": 20.400406249999975,
                    "velocity": 0.2204724409448819,
                    "duration": 0.1632032499999987
                },
                {
                    "name": "B3",
                    "midi": 59,
                    "time": 20.563609499999973,
                    "velocity": 0.23622047244094488,
                    "duration": 0.1632032499999987
                },
                {
                    "name": "G4",
                    "midi": 67,
                    "time": 20.726812749999972,
                    "velocity": 0.25196850393700787,
                    "duration": 0.1632032499999987
                },
                {
                    "name": "G3",
                    "midi": 55,
                    "time": 21.05321924999997,
                    "velocity": 0.2204724409448819,
                    "duration": 0.1632032499999987
                },
                {
                    "name": "C4",
                    "midi": 60,
                    "time": 21.216422499999968,
                    "velocity": 0.2440944881889764,
                    "duration": 0.1632032499999987
                },
                {
                    "name": "G4",
                    "midi": 67,
                    "time": 21.379625749999967,
                    "velocity": 0.25984251968503935,
                    "duration": 0.1632032499999987
                },
                {
                    "name": "G3",
                    "midi": 55,
                    "time": 21.706032249999964,
                    "velocity": 0.2204724409448819,
                    "duration": 0.1632032499999987
                },
                {
                    "name": "E4",
                    "midi": 64,
                    "time": 21.869235499999963,
                    "velocity": 0.2440944881889764,
                    "duration": 0.1632032499999987
                },
                {
                    "name": "G4",
                    "midi": 67,
                    "time": 22.03243874999996,
                    "velocity": 0.25984251968503935,
                    "duration": 0.1632032499999987
                },
                {
                    "name": "G3",
                    "midi": 55,
                    "time": 22.35884524999996,
                    "velocity": 0.2204724409448819,
                    "duration": 0.1632032499999987
                },
                {
                    "name": "D4",
                    "midi": 62,
                    "time": 22.522048499999958,
                    "velocity": 0.23622047244094488,
                    "duration": 0.1632032499999987
                },
                {
                    "name": "G4",
                    "midi": 67,
                    "time": 22.685251749999956,
                    "velocity": 0.25196850393700787,
                    "duration": 0.1632032499999987
                },
                {
                    "name": "G3",
                    "midi": 55,
                    "time": 23.011658249999954,
                    "velocity": 0.2204724409448819,
                    "duration": 0.1632032499999987
                },
                {
                    "name": "B3",
                    "midi": 59,
                    "time": 23.174861499999952,
                    "velocity": 0.23622047244094488,
                    "duration": 0.1632032499999987
                },
                {
                    "name": "G4",
                    "midi": 67,
                    "time": 23.33806474999995,
                    "velocity": 0.25196850393700787,
                    "duration": 0.1632032499999987
                },
                {
                    "name": "G3",
                    "midi": 55,
                    "time": 23.66447124999995,
                    "velocity": 0.2204724409448819,
                    "duration": 0.1632032499999987
                },
                {
                    "name": "C4",
                    "midi": 60,
                    "time": 23.827674499999947,
                    "velocity": 0.2440944881889764,
                    "duration": 0.1632032499999987
                },
                {
                    "name": "G4",
                    "midi": 67,
                    "time": 23.990877749999946,
                    "velocity": 0.25984251968503935,
                    "duration": 0.1632032499999987
                },
                {
                    "name": "G3",
                    "midi": 55,
                    "time": 24.317284249999943,
                    "velocity": 0.2204724409448819,
                    "duration": 0.1632032499999987
                },
                {
                    "name": "C4",
                    "midi": 60,
                    "time": 24.480487499999942,
                    "velocity": 0.2440944881889764,
                    "duration": 0.1632032499999987
                },
                {
                    "name": "D#4",
                    "midi": 63,
                    "time": 24.64369074999994,
                    "velocity": 0.25984251968503935,
                    "duration": 0.1632032499999987
                },
                {
                    "name": "G3",
                    "midi": 55,
                    "time": 24.970097249999938,
                    "velocity": 0.2204724409448819,
                    "duration": 0.1632032499999987
                },
                {
                    "name": "B3",
                    "midi": 59,
                    "time": 25.133300499999937,
                    "velocity": 0.23622047244094488,
                    "duration": 0.1632032499999987
                },
                {
                    "name": "D4",
                    "midi": 62,
                    "time": 25.296503749999935,
                    "velocity": 0.25196850393700787,
                    "duration": 0.1632032499999987
                },
                {
                    "name": "G3",
                    "midi": 55,
                    "time": 25.622910249999933,
                    "velocity": 0.2204724409448819,
                    "duration": 0.1632032499999987
                },
                {
                    "name": "C4",
                    "midi": 60,
                    "time": 25.78611349999993,
                    "velocity": 0.23622047244094488,
                    "duration": 0.1632032499999987
                },
                {
                    "name": "D#4",
                    "midi": 63,
                    "time": 25.94931674999993,
                    "velocity": 0.25196850393700787,
                    "duration": 0.1632032499999987
                },
                {
                    "name": "G3",
                    "midi": 55,
                    "time": 26.275723249999928,
                    "velocity": 0.2204724409448819,
                    "duration": 0.1632032499999987
                },
                {
                    "name": "B3",
                    "midi": 59,
                    "time": 26.438926499999926,
                    "velocity": 0.23622047244094488,
                    "duration": 0.1632032499999987
                },
                {
                    "name": "D4",
                    "midi": 62,
                    "time": 26.602129749999925,
                    "velocity": 0.25196850393700787,
                    "duration": 0.1632032499999987
                },
                {
                    "name": "G3",
                    "midi": 55,
                    "time": 26.928536249999922,
                    "velocity": 0.2204724409448819,
                    "duration": 0.1632032499999987
                },
                {
                    "name": "C4",
                    "midi": 60,
                    "time": 27.09173949999992,
                    "velocity": 0.23622047244094488,
                    "duration": 0.1632032499999987
                },
                {
                    "name": "D#4",
                    "midi": 63,
                    "time": 27.25494274999992,
                    "velocity": 0.25196850393700787,
                    "duration": 0.1632032499999987
                },
                {
                    "name": "G3",
                    "midi": 55,
                    "time": 27.581349249999917,
                    "velocity": 0.2204724409448819,
                    "duration": 0.1632032499999987
                },
                {
                    "name": "B3",
                    "midi": 59,
                    "time": 27.744552499999916,
                    "velocity": 0.23622047244094488,
                    "duration": 0.1632032499999987
                },
                {
                    "name": "D4",
                    "midi": 62,
                    "time": 27.907755749999914,
                    "velocity": 0.25196850393700787,
                    "duration": 0.1632032499999987
                },
                {
                    "name": "G3",
                    "midi": 55,
                    "time": 28.234162249999912,
                    "velocity": 0.2204724409448819,
                    "duration": 0.1632032499999987
                },
                {
                    "name": "A3",
                    "midi": 57,
                    "time": 28.39736549999991,
                    "velocity": 0.23622047244094488,
                    "duration": 0.1632032499999987
                },
                {
                    "name": "C4",
                    "midi": 60,
                    "time": 28.56056874999991,
                    "velocity": 0.25196850393700787,
                    "duration": 0.1632032499999987
                },
                {
                    "name": "G3",
                    "midi": 55,
                    "time": 28.886975249999907,
                    "velocity": 0.28346456692913385,
                    "duration": 0.1632032499999987
                },
                {
                    "name": "B3",
                    "midi": 59,
                    "time": 29.050178499999905,
                    "velocity": 0.2992125984251969,
                    "duration": 0.1632032499999987
                },
                {
                    "name": "D4",
                    "midi": 62,
                    "time": 29.213381749999904,
                    "velocity": 0.2755905511811024,
                    "duration": 0.1632032499999987
                },
                {
                    "name": "G4",
                    "midi": 67,
                    "time": 29.376584999999903,
                    "velocity": 0.33858267716535434,
                    "duration": 0.1632032499999987
                },
                {
                    "name": "B4",
                    "midi": 71,
                    "time": 29.5397882499999,
                    "velocity": 0.30708661417322836,
                    "duration": 0.1632032499999987
                },
                {
                    "name": "A4",
                    "midi": 69,
                    "time": 29.7029914999999,
                    "velocity": 0.3228346456692913,
                    "duration": 0.1632032499999987
                },
                {
                    "name": "F#4",
                    "midi": 66,
                    "time": 29.8661947499999,
                    "velocity": 0.2992125984251969,
                    "duration": 0.1632032499999987
                },
                {
                    "name": "G4",
                    "midi": 67,
                    "time": 30.029397999999897,
                    "velocity": 0.33858267716535434,
                    "duration": 0.1632032499999987
                },
                {
                    "name": "B3",
                    "midi": 59,
                    "time": 30.192601249999896,
                    "velocity": 0.2992125984251969,
                    "duration": 0.1632032499999987
                },
                {
                    "name": "D4",
                    "midi": 62,
                    "time": 30.355804499999895,
                    "velocity": 0.3228346456692913,
                    "duration": 0.1632032499999987
                },
                {
                    "name": "G4",
                    "midi": 67,
                    "time": 30.519007749999894,
                    "velocity": 0.2992125984251969,
                    "duration": 0.1632032499999987
                },
                {
                    "name": "B4",
                    "midi": 71,
                    "time": 30.682210999999892,
                    "velocity": 0.36220472440944884,
                    "duration": 0.1632032499999987
                },
                {
                    "name": "D5",
                    "midi": 74,
                    "time": 30.84541424999989,
                    "velocity": 0.3228346456692913,
                    "duration": 0.1632032499999987
                },
                {
                    "name": "C5",
                    "midi": 72,
                    "time": 31.00861749999989,
                    "velocity": 0.3228346456692913,
                    "duration": 0.1632032499999987
                },
                {
                    "name": "A4",
                    "midi": 69,
                    "time": 31.17182074999989,
                    "velocity": 0.29133858267716534,
                    "duration": 0.1632032499999987
                },
                {
                    "name": "B4",
                    "midi": 71,
                    "time": 31.335023999999887,
                    "velocity": 0.3700787401574803,
                    "duration": 0.1632032499999987
                },
                {
                    "name": "G4",
                    "midi": 67,
                    "time": 31.498227249999886,
                    "velocity": 0.33070866141732286,
                    "duration": 0.1632032499999987
                },
                {
                    "name": "B4",
                    "midi": 71,
                    "time": 31.661430499999884,
                    "velocity": 0.3700787401574803,
                    "duration": 0.1632032499999987
                },
                {
                    "name": "D5",
                    "midi": 74,
                    "time": 31.824633749999883,
                    "velocity": 0.33858267716535434,
                    "duration": 0.1632032499999987
                },
                {
                    "name": "G5",
                    "midi": 79,
                    "time": 31.98783699999988,
                    "velocity": 0.4015748031496063,
                    "duration": 0.1632032499999987
                },
                {
                    "name": "B5",
                    "midi": 83,
                    "time": 32.15104024999988,
                    "velocity": 0.36220472440944884,
                    "duration": 0.16320325000000224
                },
                {
                    "name": "A5",
                    "midi": 81,
                    "time": 32.31424349999988,
                    "velocity": 0.3779527559055118,
                    "duration": 0.16320325000000224
                },
                {
                    "name": "F#5",
                    "midi": 78,
                    "time": 32.477446749999885,
                    "velocity": 0.33858267716535434,
                    "duration": 0.16320325000000224
                },
                {
                    "name": "G5",
                    "midi": 79,
                    "time": 32.64064999999989,
                    "velocity": 0.4094488188976378,
                    "duration": 0.16320325000000224
                },
                {
                    "name": "B5",
                    "midi": 83,
                    "time": 32.80385324999989,
                    "velocity": 0.4094488188976378,
                    "duration": 0.16320325000000224
                },
                {
                    "name": "A5",
                    "midi": 81,
                    "time": 32.96705649999989,
                    "velocity": 0.41732283464566927,
                    "duration": 0.16320325000000224
                },
                {
                    "name": "C6",
                    "midi": 84,
                    "time": 33.130259749999894,
                    "velocity": 0.4251968503937008,
                    "duration": 0.16320325000000224
                },
                {
                    "name": "B5",
                    "midi": 83,
                    "time": 33.293462999999896,
                    "velocity": 0.4330708661417323,
                    "duration": 0.16320325000000224
                },
                {
                    "name": "D6",
                    "midi": 86,
                    "time": 33.4566662499999,
                    "velocity": 0.4409448818897638,
                    "duration": 0.16320325000000224
                },
                {
                    "name": "C#6",
                    "midi": 85,
                    "time": 33.6198694999999,
                    "velocity": 0.4409448818897638,
                    "duration": 0.16320325000000224
                },
                {
                    "name": "E6",
                    "midi": 88,
                    "time": 33.7830727499999,
                    "velocity": 0.44881889763779526,
                    "duration": 0.16320325000000224
                },
                {
                    "name": "D6",
                    "midi": 86,
                    "time": 33.946275999999905,
                    "velocity": 0.4566929133858268,
                    "duration": 0.16320325000000224
                },
                {
                    "name": "F6",
                    "midi": 89,
                    "time": 34.10947924999991,
                    "velocity": 0.4645669291338583,
                    "duration": 0.16320325000000224
                },
                {
                    "name": "E6",
                    "midi": 88,
                    "time": 34.27268249999991,
                    "velocity": 0.47244094488188976,
                    "duration": 0.16320325000000224
                },
                {
                    "name": "G6",
                    "midi": 91,
                    "time": 34.43588574999991,
                    "velocity": 0.4409448818897638,
                    "duration": 0.16320325000000224
                },
                {
                    "name": "F6",
                    "midi": 89,
                    "time": 34.599088999999914,
                    "velocity": 0.48031496062992124,
                    "duration": 0.16320325000000224
                },
                {
                    "name": "A6",
                    "midi": 93,
                    "time": 34.762292249999916,
                    "velocity": 0.4881889763779528,
                    "duration": 0.16320325000000224
                },
                {
                    "name": "F6",
                    "midi": 89,
                    "time": 34.92549549999992,
                    "velocity": 0.49606299212598426,
                    "duration": 0.16320325000000224
                },
                {
                    "name": "E6",
                    "midi": 88,
                    "time": 35.08869874999992,
                    "velocity": 0.4645669291338583,
                    "duration": 0.16320325000000224
                },
                {
                    "name": "D6",
                    "midi": 86,
                    "time": 35.25190199999992,
                    "velocity": 0.5118110236220472,
                    "duration": 0.16320325000000224
                },
                {
                    "name": "F6",
                    "midi": 89,
                    "time": 35.415105249999925,
                    "velocity": 0.5196850393700787,
                    "duration": 0.16320325000000224
                },
                {
                    "name": "E6",
                    "midi": 88,
                    "time": 35.57830849999993,
                    "velocity": 0.5196850393700787,
                    "duration": 0.16320325000000224
                },
                {
                    "name": "G6",
                    "midi": 91,
                    "time": 35.74151174999993,
                    "velocity": 0.5039370078740157,
                    "duration": 0.16320325000000224
                },
                {
                    "name": "F6",
                    "midi": 89,
                    "time": 35.90471499999993,
                    "velocity": 0.5354330708661418,
                    "duration": 0.16320325000000224
                },
                {
                    "name": "A6",
                    "midi": 93,
                    "time": 36.067918249999934,
                    "velocity": 0.5433070866141733,
                    "duration": 0.16320325000000224
                },
                {
                    "name": "F6",
                    "midi": 89,
                    "time": 36.23112149999994,
                    "velocity": 0.5511811023622047,
                    "duration": 0.16320325000000224
                },
                {
                    "name": "E6",
                    "midi": 88,
                    "time": 36.39432474999994,
                    "velocity": 0.5196850393700787,
                    "duration": 0.16320325000000224
                },
                {
                    "name": "D6",
                    "midi": 86,
                    "time": 36.55752799999994,
                    "velocity": 0.5433070866141733,
                    "duration": 0.16320325000000224
                },
                {
                    "name": "F6",
                    "midi": 89,
                    "time": 36.72073124999994,
                    "velocity": 0.5118110236220472,
                    "duration": 0.16320325000000224
                },
                {
                    "name": "E6",
                    "midi": 88,
                    "time": 36.883934499999945,
                    "velocity": 0.5275590551181102,
                    "duration": 0.16320325000000224
                },
                {
                    "name": "C6",
                    "midi": 84,
                    "time": 37.04713774999995,
                    "velocity": 0.47244094488188976,
                    "duration": 0.16320325000000224
                },
                {
                    "name": "B5",
                    "midi": 83,
                    "time": 37.21034099999995,
                    "velocity": 0.5039370078740157,
                    "duration": 0.16320325000000224
                },
                {
                    "name": "D6",
                    "midi": 86,
                    "time": 37.37354424999995,
                    "velocity": 0.4645669291338583,
                    "duration": 0.16320325000000224
                },
                {
                    "name": "C6",
                    "midi": 84,
                    "time": 37.536747499999954,
                    "velocity": 0.4881889763779528,
                    "duration": 0.16320325000000224
                },
                {
                    "name": "A5",
                    "midi": 81,
                    "time": 37.69995074999996,
                    "velocity": 0.4330708661417323,
                    "duration": 0.16320325000000224
                },
                {
                    "name": "G5",
                    "midi": 79,
                    "time": 37.86315399999996,
                    "velocity": 0.4645669291338583,
                    "duration": 0.16320325000000224
                },
                {
                    "name": "B5",
                    "midi": 83,
                    "time": 38.02635724999996,
                    "velocity": 0.4251968503937008,
                    "duration": 0.16320325000000224
                },
                {
                    "name": "A5",
                    "midi": 81,
                    "time": 38.18956049999996,
                    "velocity": 0.4409448818897638,
                    "duration": 0.16320325000000224
                },
                {
                    "name": "F5",
                    "midi": 77,
                    "time": 38.352763749999966,
                    "velocity": 0.4015748031496063,
                    "duration": 0.16320325000000224
                },
                {
                    "name": "E5",
                    "midi": 76,
                    "time": 38.51596699999997,
                    "velocity": 0.4251968503937008,
                    "duration": 0.16320325000000224
                },
                {
                    "name": "G5",
                    "midi": 79,
                    "time": 38.67917024999997,
                    "velocity": 0.36220472440944884,
                    "duration": 0.16320325000000224
                },
                {
                    "name": "F5",
                    "midi": 77,
                    "time": 38.84237349999997,
                    "velocity": 0.3858267716535433,
                    "duration": 0.16320325000000224
                },
                {
                    "name": "D5",
                    "midi": 74,
                    "time": 39.005576749999975,
                    "velocity": 0.33070866141732286,
                    "duration": 0.16320325000000224
                },
                {
                    "name": "C5",
                    "midi": 72,
                    "time": 39.16877999999998,
                    "velocity": 0.3858267716535433,
                    "duration": 0.16320325000000224
                },
                {
                    "name": "G6",
                    "midi": 91,
                    "time": 39.82159299999998,
                    "velocity": 0.3937007874015748,
                    "duration": 0.3264064999999974
                },
                {
                    "name": "G5",
                    "midi": 79,
                    "time": 39.82159299999998,
                    "velocity": 0.3937007874015748,
                    "duration": 0.3264064999999974
                },
                {
                    "name": "G6",
                    "midi": 91,
                    "time": 40.47440599999997,
                    "velocity": 0.4251968503937008,
                    "duration": 0.9792194999999992
                },
                {
                    "name": "G5",
                    "midi": 79,
                    "time": 40.47440599999997,
                    "velocity": 0.4251968503937008,
                    "duration": 0.9792194999999992
                },
                {
                    "name": "E6",
                    "midi": 88,
                    "time": 41.45362549999997,
                    "velocity": 0.3700787401574803,
                    "duration": 0.3264064999999974
                },
                {
                    "name": "E5",
                    "midi": 76,
                    "time": 41.45362549999997,
                    "velocity": 0.3700787401574803,
                    "duration": 0.3264064999999974
                },
                {
                    "name": "D6",
                    "midi": 86,
                    "time": 41.78003199999997,
                    "velocity": 0.3937007874015748,
                    "duration": 0.6528130000000019
                },
                {
                    "name": "D5",
                    "midi": 74,
                    "time": 41.78003199999997,
                    "velocity": 0.3937007874015748,
                    "duration": 0.6528130000000019
                },
                {
                    "name": "G5",
                    "midi": 79,
                    "time": 42.43284499999997,
                    "velocity": 0.3228346456692913,
                    "duration": 0.6528130000000019
                },
                {
                    "name": "G4",
                    "midi": 67,
                    "time": 42.43284499999997,
                    "velocity": 0.3228346456692913,
                    "duration": 0.6528130000000019
                },
                {
                    "name": "C6",
                    "midi": 84,
                    "time": 43.085657999999974,
                    "velocity": 0.3937007874015748,
                    "duration": 0.6528130000000019
                },
                {
                    "name": "C5",
                    "midi": 72,
                    "time": 43.085657999999974,
                    "velocity": 0.3937007874015748,
                    "duration": 0.6528130000000019
                },
                {
                    "name": "E6",
                    "midi": 88,
                    "time": 43.738470999999976,
                    "velocity": 0.3700787401574803,
                    "duration": 0.3264064999999974
                },
                {
                    "name": "E5",
                    "midi": 76,
                    "time": 43.738470999999976,
                    "velocity": 0.3700787401574803,
                    "duration": 0.3264064999999974
                },
                {
                    "name": "G6",
                    "midi": 91,
                    "time": 45.04409699999997,
                    "velocity": 0.3937007874015748,
                    "duration": 0.3264064999999974
                },
                {
                    "name": "G5",
                    "midi": 79,
                    "time": 45.04409699999997,
                    "velocity": 0.3937007874015748,
                    "duration": 0.3264064999999974
                },
                {
                    "name": "G6",
                    "midi": 91,
                    "time": 45.69690999999997,
                    "velocity": 0.4251968503937008,
                    "duration": 0.9792194999999992
                },
                {
                    "name": "G5",
                    "midi": 79,
                    "time": 45.69690999999997,
                    "velocity": 0.4251968503937008,
                    "duration": 0.9792194999999992
                },
                {
                    "name": "E6",
                    "midi": 88,
                    "time": 46.676129499999966,
                    "velocity": 0.3700787401574803,
                    "duration": 0.3264064999999974
                },
                {
                    "name": "E5",
                    "midi": 76,
                    "time": 46.676129499999966,
                    "velocity": 0.3700787401574803,
                    "duration": 0.3264064999999974
                },
                {
                    "name": "D6",
                    "midi": 86,
                    "time": 47.002535999999964,
                    "velocity": 0.3937007874015748,
                    "duration": 0.6528130000000019
                },
                {
                    "name": "D5",
                    "midi": 74,
                    "time": 47.002535999999964,
                    "velocity": 0.3937007874015748,
                    "duration": 0.6528130000000019
                },
                {
                    "name": "G5",
                    "midi": 79,
                    "time": 47.655348999999966,
                    "velocity": 0.3228346456692913,
                    "duration": 0.6528130000000019
                },
                {
                    "name": "G4",
                    "midi": 67,
                    "time": 47.655348999999966,
                    "velocity": 0.3228346456692913,
                    "duration": 0.6528130000000019
                },
                {
                    "name": "C6",
                    "midi": 84,
                    "time": 48.30816199999997,
                    "velocity": 0.3937007874015748,
                    "duration": 0.3264064999999974
                },
                {
                    "name": "C5",
                    "midi": 72,
                    "time": 48.30816199999997,
                    "velocity": 0.3937007874015748,
                    "duration": 0.3264064999999974
                },
                {
                    "name": "F6",
                    "midi": 89,
                    "time": 50.266600999999966,
                    "velocity": 0.3937007874015748,
                    "duration": 0.3264064999999974
                },
                {
                    "name": "F5",
                    "midi": 77,
                    "time": 50.266600999999966,
                    "velocity": 0.3937007874015748,
                    "duration": 0.3264064999999974
                },
                {
                    "name": "F6",
                    "midi": 89,
                    "time": 50.91941399999996,
                    "velocity": 0.4251968503937008,
                    "duration": 0.9792194999999992
                },
                {
                    "name": "F5",
                    "midi": 77,
                    "time": 50.91941399999996,
                    "velocity": 0.4251968503937008,
                    "duration": 0.9792194999999992
                },
                {
                    "name": "D6",
                    "midi": 86,
                    "time": 51.89863349999996,
                    "velocity": 0.3700787401574803,
                    "duration": 0.3264064999999974
                },
                {
                    "name": "D5",
                    "midi": 74,
                    "time": 51.89863349999996,
                    "velocity": 0.3700787401574803,
                    "duration": 0.3264064999999974
                },
                {
                    "name": "E6",
                    "midi": 88,
                    "time": 52.22503999999996,
                    "velocity": 0.3937007874015748,
                    "duration": 0.6528130000000019
                },
                {
                    "name": "E5",
                    "midi": 76,
                    "time": 52.22503999999996,
                    "velocity": 0.3937007874015748,
                    "duration": 0.6528130000000019
                },
                {
                    "name": "C6",
                    "midi": 84,
                    "time": 52.87785299999996,
                    "velocity": 0.3228346456692913,
                    "duration": 0.6528130000000019
                },
                {
                    "name": "C5",
                    "midi": 72,
                    "time": 52.87785299999996,
                    "velocity": 0.3228346456692913,
                    "duration": 0.6528130000000019
                },
                {
                    "name": "B5",
                    "midi": 83,
                    "time": 53.53066599999996,
                    "velocity": 0.3937007874015748,
                    "duration": 0.6528130000000019
                },
                {
                    "name": "B4",
                    "midi": 71,
                    "time": 53.53066599999996,
                    "velocity": 0.3937007874015748,
                    "duration": 0.6528130000000019
                },
                {
                    "name": "D6",
                    "midi": 86,
                    "time": 54.18347899999996,
                    "velocity": 0.3700787401574803,
                    "duration": 0.3264064999999974
                },
                {
                    "name": "D5",
                    "midi": 74,
                    "time": 54.18347899999996,
                    "velocity": 0.3700787401574803,
                    "duration": 0.3264064999999974
                },
                {
                    "name": "F6",
                    "midi": 89,
                    "time": 55.48910499999996,
                    "velocity": 0.3937007874015748,
                    "duration": 0.3264064999999974
                },
                {
                    "name": "F5",
                    "midi": 77,
                    "time": 55.48910499999996,
                    "velocity": 0.3937007874015748,
                    "duration": 0.3264064999999974
                },
                {
                    "name": "F6",
                    "midi": 89,
                    "time": 56.141917999999954,
                    "velocity": 0.4251968503937008,
                    "duration": 0.9792194999999992
                },
                {
                    "name": "F5",
                    "midi": 77,
                    "time": 56.141917999999954,
                    "velocity": 0.4251968503937008,
                    "duration": 0.9792194999999992
                },
                {
                    "name": "D6",
                    "midi": 86,
                    "time": 57.12113749999995,
                    "velocity": 0.3700787401574803,
                    "duration": 0.3264064999999974
                },
                {
                    "name": "D5",
                    "midi": 74,
                    "time": 57.12113749999995,
                    "velocity": 0.3700787401574803,
                    "duration": 0.3264064999999974
                },
                {
                    "name": "D#6",
                    "midi": 87,
                    "time": 57.44754399999995,
                    "velocity": 0.3937007874015748,
                    "duration": 0.6528130000000019
                },
                {
                    "name": "D#5",
                    "midi": 75,
                    "time": 57.44754399999995,
                    "velocity": 0.3937007874015748,
                    "duration": 0.6528130000000019
                },
                {
                    "name": "C6",
                    "midi": 84,
                    "time": 58.10035699999995,
                    "velocity": 0.3228346456692913,
                    "duration": 0.6528130000000019
                },
                {
                    "name": "C5",
                    "midi": 72,
                    "time": 58.10035699999995,
                    "velocity": 0.3228346456692913,
                    "duration": 0.6528130000000019
                },
                {
                    "name": "B5",
                    "midi": 83,
                    "time": 58.753169999999955,
                    "velocity": 0.3937007874015748,
                    "duration": 0.6528130000000019
                },
                {
                    "name": "B4",
                    "midi": 71,
                    "time": 58.753169999999955,
                    "velocity": 0.3937007874015748,
                    "duration": 0.6528130000000019
                },
                {
                    "name": "D6",
                    "midi": 86,
                    "time": 59.40598299999996,
                    "velocity": 0.3700787401574803,
                    "duration": 0.6528130000000019
                },
                {
                    "name": "D5",
                    "midi": 74,
                    "time": 59.40598299999996,
                    "velocity": 0.3700787401574803,
                    "duration": 0.6528130000000019
                },
                {
                    "name": "E6",
                    "midi": 88,
                    "time": 60.05879599999996,
                    "velocity": 0.3937007874015748,
                    "duration": 0.6528130000000019
                },
                {
                    "name": "E5",
                    "midi": 76,
                    "time": 60.05879599999996,
                    "velocity": 0.3937007874015748,
                    "duration": 0.6528130000000019
                },
                {
                    "name": "C6",
                    "midi": 84,
                    "time": 60.71160899999996,
                    "velocity": 0.33070866141732286,
                    "duration": 0.6528130000000019
                },
                {
                    "name": "C5",
                    "midi": 72,
                    "time": 60.71160899999996,
                    "velocity": 0.33070866141732286,
                    "duration": 0.6528130000000019
                },
                {
                    "name": "B5",
                    "midi": 83,
                    "time": 61.36442199999996,
                    "velocity": 0.41732283464566927,
                    "duration": 0.6528130000000019
                },
                {
                    "name": "B4",
                    "midi": 71,
                    "time": 61.36442199999996,
                    "velocity": 0.41732283464566927,
                    "duration": 0.6528130000000019
                },
                {
                    "name": "D6",
                    "midi": 86,
                    "time": 62.017234999999964,
                    "velocity": 0.4094488188976378,
                    "duration": 0.6528130000000019
                },
                {
                    "name": "D5",
                    "midi": 74,
                    "time": 62.017234999999964,
                    "velocity": 0.4094488188976378,
                    "duration": 0.6528130000000019
                },
                {
                    "name": "D#6",
                    "midi": 87,
                    "time": 62.670047999999966,
                    "velocity": 0.3937007874015748,
                    "duration": 0.6528130000000019
                },
                {
                    "name": "D#5",
                    "midi": 75,
                    "time": 62.670047999999966,
                    "velocity": 0.3937007874015748,
                    "duration": 0.6528130000000019
                },
                {
                    "name": "C6",
                    "midi": 84,
                    "time": 63.32286099999997,
                    "velocity": 0.3228346456692913,
                    "duration": 0.6528130000000019
                },
                {
                    "name": "C5",
                    "midi": 72,
                    "time": 63.32286099999997,
                    "velocity": 0.3228346456692913,
                    "duration": 0.6528130000000019
                },
                {
                    "name": "G5",
                    "midi": 79,
                    "time": 63.97567399999997,
                    "velocity": 0.3937007874015748,
                    "duration": 0.6528129999999948
                },
                {
                    "name": "G5",
                    "midi": 79,
                    "time": 64.62848699999996,
                    "velocity": 0.3700787401574803,
                    "duration": 0.6528129999999948
                },
                {
                    "name": "A5",
                    "midi": 81,
                    "time": 65.28129999999996,
                    "velocity": 0.25984251968503935,
                    "duration": 0.10880216666666342
                },
                {
                    "name": "G5",
                    "midi": 79,
                    "time": 65.39010216666662,
                    "velocity": 0.25984251968503935,
                    "duration": 0.10880216666666342
                },
                {
                    "name": "A5",
                    "midi": 81,
                    "time": 65.49890433333329,
                    "velocity": 0.25984251968503935,
                    "duration": 0.10880216666666342
                },
                {
                    "name": "G5",
                    "midi": 79,
                    "time": 65.60770649999995,
                    "velocity": 0.25984251968503935,
                    "duration": 0.10880216666666342
                },
                {
                    "name": "A5",
                    "midi": 81,
                    "time": 65.71650866666661,
                    "velocity": 0.2677165354330709,
                    "duration": 0.10880216666666342
                },
                {
                    "name": "G5",
                    "midi": 79,
                    "time": 65.82531083333328,
                    "velocity": 0.2677165354330709,
                    "duration": 0.10880216666666342
                },
                {
                    "name": "A5",
                    "midi": 81,
                    "time": 65.93411299999994,
                    "velocity": 0.2755905511811024,
                    "duration": 0.10880216666666342
                },
                {
                    "name": "G5",
                    "midi": 79,
                    "time": 66.0429151666666,
                    "velocity": 0.2755905511811024,
                    "duration": 0.10880216666666342
                },
                {
                    "name": "A5",
                    "midi": 81,
                    "time": 66.15171733333327,
                    "velocity": 0.2755905511811024,
                    "duration": 0.10880216666666342
                },
                {
                    "name": "G5",
                    "midi": 79,
                    "time": 66.26051949999993,
                    "velocity": 0.2755905511811024,
                    "duration": 0.10880216666666342
                },
                {
                    "name": "A5",
                    "midi": 81,
                    "time": 66.3693216666666,
                    "velocity": 0.28346456692913385,
                    "duration": 0.10880216666666342
                },
                {
                    "name": "G5",
                    "midi": 79,
                    "time": 66.47812383333326,
                    "velocity": 0.28346456692913385,
                    "duration": 0.10880216666666342
                },
                {
                    "name": "A5",
                    "midi": 81,
                    "time": 66.58692599999992,
                    "velocity": 0.29133858267716534,
                    "duration": 0.10880216666666342
                },
                {
                    "name": "G5",
                    "midi": 79,
                    "time": 66.69572816666658,
                    "velocity": 0.29133858267716534,
                    "duration": 0.10880216666666342
                },
                {
                    "name": "A5",
                    "midi": 81,
                    "time": 66.80453033333325,
                    "velocity": 0.29133858267716534,
                    "duration": 0.10880216666666342
                },
                {
                    "name": "G5",
                    "midi": 79,
                    "time": 66.91333249999991,
                    "velocity": 0.30708661417322836,
                    "duration": 0.10880216666666342
                },
                {
                    "name": "A5",
                    "midi": 81,
                    "time": 67.02213466666657,
                    "velocity": 0.30708661417322836,
                    "duration": 0.10880216666666342
                },
                {
                    "name": "G5",
                    "midi": 79,
                    "time": 67.13093683333324,
                    "velocity": 0.30708661417322836,
                    "duration": 0.10880216666666342
                },
                {
                    "name": "A5",
                    "midi": 81,
                    "time": 67.2397389999999,
                    "velocity": 0.30708661417322836,
                    "duration": 0.10880216666666342
                },
                {
                    "name": "G5",
                    "midi": 79,
                    "time": 67.34854116666656,
                    "velocity": 0.30708661417322836,
                    "duration": 0.10880216666666342
                },
                {
                    "name": "A5",
                    "midi": 81,
                    "time": 67.45734333333323,
                    "velocity": 0.3228346456692913,
                    "duration": 0.10880216666666342
                },
                {
                    "name": "G5",
                    "midi": 79,
                    "time": 67.56614549999989,
                    "velocity": 0.3228346456692913,
                    "duration": 0.10880216666666342
                },
                {
                    "name": "A5",
                    "midi": 81,
                    "time": 67.67494766666655,
                    "velocity": 0.3228346456692913,
                    "duration": 0.10880216666666342
                },
                {
                    "name": "G5",
                    "midi": 79,
                    "time": 67.78374983333322,
                    "velocity": 0.3228346456692913,
                    "duration": 0.10880216666666342
                },
                {
                    "name": "A5",
                    "midi": 81,
                    "time": 67.89255199999988,
                    "velocity": 0.33070866141732286,
                    "duration": 0.10880216666666342
                },
                {
                    "name": "G5",
                    "midi": 79,
                    "time": 68.00135416666654,
                    "velocity": 0.33070866141732286,
                    "duration": 0.10880216666666342
                },
                {
                    "name": "A5",
                    "midi": 81,
                    "time": 68.11015633333321,
                    "velocity": 0.33070866141732286,
                    "duration": 0.10880216666666342
                },
                {
                    "name": "G5",
                    "midi": 79,
                    "time": 68.21895849999987,
                    "velocity": 0.33070866141732286,
                    "duration": 0.10880216666666342
                },
                {
                    "name": "A5",
                    "midi": 81,
                    "time": 68.32776066666653,
                    "velocity": 0.33070866141732286,
                    "duration": 0.10880216666666342
                },
                {
                    "name": "G5",
                    "midi": 79,
                    "time": 68.4365628333332,
                    "velocity": 0.3464566929133858,
                    "duration": 0.10880216666666342
                },
                {
                    "name": "A5",
                    "midi": 81,
                    "time": 68.54536499999986,
                    "velocity": 0.3464566929133858,
                    "duration": 0.10880216666666342
                },
                {
                    "name": "G5",
                    "midi": 79,
                    "time": 68.65416716666653,
                    "velocity": 0.3464566929133858,
                    "duration": 0.10880216666666342
                },
                {
                    "name": "A5",
                    "midi": 81,
                    "time": 68.76296933333319,
                    "velocity": 0.3543307086614173,
                    "duration": 0.10880216666666342
                },
                {
                    "name": "G5",
                    "midi": 79,
                    "time": 68.87177149999985,
                    "velocity": 0.3543307086614173,
                    "duration": 0.10880216666666342
                },
                {
                    "name": "A5",
                    "midi": 81,
                    "time": 68.98057366666652,
                    "velocity": 0.3543307086614173,
                    "duration": 0.10880216666666342
                },
                {
                    "name": "G5",
                    "midi": 79,
                    "time": 69.08937583333318,
                    "velocity": 0.36220472440944884,
                    "duration": 0.10880216666666342
                },
                {
                    "name": "A5",
                    "midi": 81,
                    "time": 69.19817799999984,
                    "velocity": 0.36220472440944884,
                    "duration": 0.10880216666666342
                },
                {
                    "name": "G5",
                    "midi": 79,
                    "time": 69.3069801666665,
                    "velocity": 0.3700787401574803,
                    "duration": 0.10880216666666342
                },
                {
                    "name": "A5",
                    "midi": 81,
                    "time": 69.41578233333317,
                    "velocity": 0.3700787401574803,
                    "duration": 0.10880216666666342
                },
                {
                    "name": "G5",
                    "midi": 79,
                    "time": 69.52458449999983,
                    "velocity": 0.3779527559055118,
                    "duration": 0.10880216666666342
                },
                {
                    "name": "A5",
                    "midi": 81,
                    "time": 69.6333866666665,
                    "velocity": 0.3858267716535433,
                    "duration": 0.10880216666666342
                },
                {
                    "name": "G5",
                    "midi": 79,
                    "time": 69.74218883333316,
                    "velocity": 0.3858267716535433,
                    "duration": 0.10880216666666342
                },
                {
                    "name": "A5",
                    "midi": 81,
                    "time": 69.85099099999982,
                    "velocity": 0.3858267716535433,
                    "duration": 0.10880216666666342
                },
                {
                    "name": "G5",
                    "midi": 79,
                    "time": 69.95979316666649,
                    "velocity": 0.3858267716535433,
                    "duration": 0.10880216666666342
                },
                {
                    "name": "A5",
                    "midi": 81,
                    "time": 70.06859533333315,
                    "velocity": 0.3937007874015748,
                    "duration": 0.10880216666666342
                },
                {
                    "name": "G5",
                    "midi": 79,
                    "time": 70.17739749999981,
                    "velocity": 0.3937007874015748,
                    "duration": 0.10880216666666342
                },
                {
                    "name": "A5",
                    "midi": 81,
                    "time": 70.28619966666648,
                    "velocity": 0.4015748031496063,
                    "duration": 0.10880216666666342
                },
                {
                    "name": "G5",
                    "midi": 79,
                    "time": 70.39500183333314,
                    "velocity": 0.4015748031496063,
                    "duration": 0.10880216666666342
                },
                {
                    "name": "G6",
                    "midi": 91,
                    "time": 71.1566169999998,
                    "velocity": 0.7007874015748031,
                    "duration": 0.3264065000000045
                },
                {
                    "name": "G6",
                    "midi": 91,
                    "time": 71.80942999999981,
                    "velocity": 0.7086614173228346,
                    "duration": 0.9792194999999992
                },
                {
                    "name": "E6",
                    "midi": 88,
                    "time": 72.7886494999998,
                    "velocity": 0.6692913385826772,
                    "duration": 0.3264065000000045
                },
                {
                    "name": "D6",
                    "midi": 86,
                    "time": 73.11505599999981,
                    "velocity": 0.7086614173228346,
                    "duration": 0.6528129999999948
                },
                {
                    "name": "G5",
                    "midi": 79,
                    "time": 73.7678689999998,
                    "velocity": 0.6614173228346457,
                    "duration": 0.09520189583332694
                },
                {
                    "name": "C6",
                    "midi": 84,
                    "time": 74.4206819999998,
                    "velocity": 0.6850393700787402,
                    "duration": 0.6528129999999948
                },
                {
                    "name": "E6",
                    "midi": 88,
                    "time": 75.0734949999998,
                    "velocity": 0.6614173228346457,
                    "duration": 0.3264065000000045
                },
                {
                    "name": "G6",
                    "midi": 91,
                    "time": 76.3791209999998,
                    "velocity": 0.7086614173228346,
                    "duration": 0.3264065000000045
                },
                {
                    "name": "G6",
                    "midi": 91,
                    "time": 77.03193399999981,
                    "velocity": 0.7244094488188977,
                    "duration": 0.9792194999999992
                },
                {
                    "name": "E6",
                    "midi": 88,
                    "time": 78.0111534999998,
                    "velocity": 0.6614173228346457,
                    "duration": 0.3264065000000045
                },
                {
                    "name": "D6",
                    "midi": 86,
                    "time": 78.33755999999981,
                    "velocity": 0.7086614173228346,
                    "duration": 0.6528129999999948
                },
                {
                    "name": "G5",
                    "midi": 79,
                    "time": 78.9903729999998,
                    "velocity": 0.6456692913385826,
                    "duration": 0.09520189583332694
                },
                {
                    "name": "C6",
                    "midi": 84,
                    "time": 79.6431859999998,
                    "velocity": 0.6771653543307087,
                    "duration": 0.3264065000000045
                },
                {
                    "name": "C4",
                    "midi": 60,
                    "time": 80.29599899999981,
                    "velocity": 0.5354330708661418,
                    "duration": 0.10880216666666342
                },
                {
                    "name": "E4",
                    "midi": 64,
                    "time": 80.40480116666647,
                    "velocity": 0.4881889763779528,
                    "duration": 0.10880216666666342
                },
                {
                    "name": "C4",
                    "midi": 60,
                    "time": 80.51360333333314,
                    "velocity": 0.4881889763779528,
                    "duration": 0.10880216666666342
                },
                {
                    "name": "G3",
                    "midi": 55,
                    "time": 80.6224054999998,
                    "velocity": 0.4881889763779528,
                    "duration": 0.10880216666666342
                },
                {
                    "name": "E3",
                    "midi": 52,
                    "time": 80.73120766666646,
                    "velocity": 0.4881889763779528,
                    "duration": 0.10880216666666342
                },
                {
                    "name": "G3",
                    "midi": 55,
                    "time": 80.84000983333313,
                    "velocity": 0.4881889763779528,
                    "duration": 0.10880216666666342
                },
                {
                    "name": "C4",
                    "midi": 60,
                    "time": 80.94881199999979,
                    "velocity": 0.5354330708661418,
                    "duration": 0.10880216666666342
                },
                {
                    "name": "F4",
                    "midi": 65,
                    "time": 81.05761416666645,
                    "velocity": 0.4881889763779528,
                    "duration": 0.10880216666666342
                },
                {
                    "name": "C4",
                    "midi": 60,
                    "time": 81.16641633333312,
                    "velocity": 0.4881889763779528,
                    "duration": 0.10880216666666342
                },
                {
                    "name": "A3",
                    "midi": 57,
                    "time": 81.27521849999978,
                    "velocity": 0.4881889763779528,
                    "duration": 0.10880216666666342
                },
                {
                    "name": "F3",
                    "midi": 53,
                    "time": 81.38402066666644,
                    "velocity": 0.4881889763779528,
                    "duration": 0.10880216666666342
                },
                {
                    "name": "A3",
                    "midi": 57,
                    "time": 81.49282283333311,
                    "velocity": 0.4881889763779528,
                    "duration": 0.10880216666666342
                },
                {
                    "name": "C4",
                    "midi": 60,
                    "time": 81.60162499999977,
                    "velocity": 0.5354330708661418,
                    "duration": 0.10880216666666342
                },
                {
                    "name": "E4",
                    "midi": 64,
                    "time": 81.71042716666643,
                    "velocity": 0.48031496062992124,
                    "duration": 0.10880216666666342
                },
                {
                    "name": "C4",
                    "midi": 60,
                    "time": 81.8192293333331,
                    "velocity": 0.48031496062992124,
                    "duration": 0.10880216666666342
                },
                {
                    "name": "G3",
                    "midi": 55,
                    "time": 81.92803149999976,
                    "velocity": 0.48031496062992124,
                    "duration": 0.10880216666666342
                },
                {
                    "name": "E3",
                    "midi": 52,
                    "time": 82.03683366666642,
                    "velocity": 0.48031496062992124,
                    "duration": 0.10880216666666342
                },
                {
                    "name": "G3",
                    "midi": 55,
                    "time": 82.14563583333309,
                    "velocity": 0.48031496062992124,
                    "duration": 0.10880216666666342
                },
                {
                    "name": "C4",
                    "midi": 60,
                    "time": 82.25443799999975,
                    "velocity": 0.49606299212598426,
                    "duration": 0.10880216666666342
                },
                {
                    "name": "D4",
                    "midi": 62,
                    "time": 82.36324016666642,
                    "velocity": 0.4645669291338583,
                    "duration": 0.10880216666666342
                },
                {
                    "name": "C4",
                    "midi": 60,
                    "time": 82.47204233333308,
                    "velocity": 0.4645669291338583,
                    "duration": 0.10880216666666342
                },
                {
                    "name": "F3",
                    "midi": 53,
                    "time": 82.58084449999974,
                    "velocity": 0.4645669291338583,
                    "duration": 0.10880216666666342
                },
                {
                    "name": "D3",
                    "midi": 50,
                    "time": 82.6896466666664,
                    "velocity": 0.4645669291338583,
                    "duration": 0.10880216666666342
                },
                {
                    "name": "F3",
                    "midi": 53,
                    "time": 82.79844883333307,
                    "velocity": 0.4645669291338583,
                    "duration": 0.10880216666666342
                },
                {
                    "name": "C4",
                    "midi": 60,
                    "time": 82.90725099999973,
                    "velocity": 0.5354330708661418,
                    "duration": 0.10880216666666342
                },
                {
                    "name": "D#4",
                    "midi": 63,
                    "time": 83.0160531666664,
                    "velocity": 0.48031496062992124,
                    "duration": 0.10880216666666342
                },
                {
                    "name": "C4",
                    "midi": 60,
                    "time": 83.12485533333306,
                    "velocity": 0.48031496062992124,
                    "duration": 0.10880216666666342
                },
                {
                    "name": "F#3",
                    "midi": 54,
                    "time": 83.23365749999972,
                    "velocity": 0.48031496062992124,
                    "duration": 0.10880216666666342
                },
                {
                    "name": "D#3",
                    "midi": 51,
                    "time": 83.34245966666639,
                    "velocity": 0.48031496062992124,
                    "duration": 0.10880216666666342
                },
                {
                    "name": "F#3",
                    "midi": 54,
                    "time": 83.45126183333305,
                    "velocity": 0.48031496062992124,
                    "duration": 0.10880216666666342
                },
                {
                    "name": "C4",
                    "midi": 60,
                    "time": 83.56006399999971,
                    "velocity": 0.5354330708661418,
                    "duration": 0.10880216666666342
                },
                {
                    "name": "E4",
                    "midi": 64,
                    "time": 83.66886616666638,
                    "velocity": 0.4881889763779528,
                    "duration": 0.10880216666666342
                },
                {
                    "name": "C4",
                    "midi": 60,
                    "time": 83.77766833333304,
                    "velocity": 0.4881889763779528,
                    "duration": 0.10880216666666342
                },
                {
                    "name": "G3",
                    "midi": 55,
                    "time": 83.8864704999997,
                    "velocity": 0.4881889763779528,
                    "duration": 0.10880216666666342
                },
                {
                    "name": "E3",
                    "midi": 52,
                    "time": 83.99527266666637,
                    "velocity": 0.4881889763779528,
                    "duration": 0.10880216666666342
                },
                {
                    "name": "G3",
                    "midi": 55,
                    "time": 84.10407483333303,
                    "velocity": 0.4881889763779528,
                    "duration": 0.10880216666666342
                },
                {
                    "name": "B3",
                    "midi": 59,
                    "time": 84.2128769999997,
                    "velocity": 0.5354330708661418,
                    "duration": 0.10880216666666342
                },
                {
                    "name": "D4",
                    "midi": 62,
                    "time": 84.32167916666636,
                    "velocity": 0.48031496062992124,
                    "duration": 0.10880216666666342
                },
                {
                    "name": "B3",
                    "midi": 59,
                    "time": 84.43048133333302,
                    "velocity": 0.48031496062992124,
                    "duration": 0.10880216666666342
                },
                {
                    "name": "F3",
                    "midi": 53,
                    "time": 84.53928349999968,
                    "velocity": 0.48031496062992124,
                    "duration": 0.10880216666666342
                },
                {
                    "name": "D3",
                    "midi": 50,
                    "time": 84.64808566666635,
                    "velocity": 0.48031496062992124,
                    "duration": 0.10880216666666342
                },
                {
                    "name": "F3",
                    "midi": 53,
                    "time": 84.75688783333301,
                    "velocity": 0.48031496062992124,
                    "duration": 0.10880216666666342
                },
                {
                    "name": "G3",
                    "midi": 55,
                    "time": 84.86568999999967,
                    "velocity": 0.5354330708661418,
                    "duration": 0.10880216666666342
                },
                {
                    "name": "C4",
                    "midi": 60,
                    "time": 84.97449216666634,
                    "velocity": 0.4881889763779528,
                    "duration": 0.10880216666666342
                },
                {
                    "name": "G3",
                    "midi": 55,
                    "time": 85.083294333333,
                    "velocity": 0.4881889763779528,
                    "duration": 0.10880216666666342
                },
                {
                    "name": "E3",
                    "midi": 52,
                    "time": 85.19209649999966,
                    "velocity": 0.4881889763779528,
                    "duration": 0.10880216666666342
                },
                {
                    "name": "C3",
                    "midi": 48,
                    "time": 85.30089866666633,
                    "velocity": 0.4881889763779528,
                    "duration": 0.10880216666666342
                },
                {
                    "name": "E3",
                    "midi": 52,
                    "time": 85.40970083333299,
                    "velocity": 0.4881889763779528,
                    "duration": 0.10880216666666342
                },
                {
                    "name": "E4",
                    "midi": 64,
                    "time": 85.51850299999965,
                    "velocity": 0.5354330708661418,
                    "duration": 0.10880216666666342
                },
                {
                    "name": "G4",
                    "midi": 67,
                    "time": 85.62730516666632,
                    "velocity": 0.4881889763779528,
                    "duration": 0.10880216666666342
                },
                {
                    "name": "E4",
                    "midi": 64,
                    "time": 85.73610733333298,
                    "velocity": 0.4881889763779528,
                    "duration": 0.10880216666666342
                },
                {
                    "name": "C4",
                    "midi": 60,
                    "time": 85.84490949999964,
                    "velocity": 0.4881889763779528,
                    "duration": 0.10880216666666342
                },
                {
                    "name": "G3",
                    "midi": 55,
                    "time": 85.95371166666631,
                    "velocity": 0.4881889763779528,
                    "duration": 0.10880216666666342
                },
                {
                    "name": "C4",
                    "midi": 60,
                    "time": 86.06251383333297,
                    "velocity": 0.4881889763779528,
                    "duration": 0.10880216666666342
                },
                {
                    "name": "F4",
                    "midi": 65,
                    "time": 86.17131599999963,
                    "velocity": 0.5354330708661418,
                    "duration": 0.10880216666666342
                },
                {
                    "name": "A4",
                    "midi": 69,
                    "time": 86.2801181666663,
                    "velocity": 0.4881889763779528,
                    "duration": 0.10880216666666342
                },
                {
                    "name": "F4",
                    "midi": 65,
                    "time": 86.38892033333296,
                    "velocity": 0.4881889763779528,
                    "duration": 0.10880216666666342
                },
                {
                    "name": "C4",
                    "midi": 60,
                    "time": 86.49772249999963,
                    "velocity": 0.4881889763779528,
                    "duration": 0.10880216666666342
                },
                {
                    "name": "A3",
                    "midi": 57,
                    "time": 86.60652466666629,
                    "velocity": 0.4881889763779528,
                    "duration": 0.10880216666666342
                },
                {
                    "name": "C4",
                    "midi": 60,
                    "time": 86.71532683333295,
                    "velocity": 0.4881889763779528,
                    "duration": 0.10880216666666342
                },
                {
                    "name": "E4",
                    "midi": 64,
                    "time": 86.82412899999962,
                    "velocity": 0.5354330708661418,
                    "duration": 0.10880216666666342
                },
                {
                    "name": "G4",
                    "midi": 67,
                    "time": 86.93293116666628,
                    "velocity": 0.48031496062992124,
                    "duration": 0.10880216666666342
                },
                {
                    "name": "E4",
                    "midi": 64,
                    "time": 87.04173333333294,
                    "velocity": 0.48031496062992124,
                    "duration": 0.10880216666666342
                },
                {
                    "name": "C4",
                    "midi": 60,
                    "time": 87.1505354999996,
                    "velocity": 0.48031496062992124,
                    "duration": 0.10880216666666342
                },
                {
                    "name": "G3",
                    "midi": 55,
                    "time": 87.25933766666627,
                    "velocity": 0.48031496062992124,
                    "duration": 0.10880216666666342
                },
                {
                    "name": "C4",
                    "midi": 60,
                    "time": 87.36813983333293,
                    "velocity": 0.48031496062992124,
                    "duration": 0.10880216666666342
                },
                {
                    "name": "D4",
                    "midi": 62,
                    "time": 87.4769419999996,
                    "velocity": 0.49606299212598426,
                    "duration": 0.10880216666666342
                },
                {
                    "name": "F4",
                    "midi": 65,
                    "time": 87.58574416666626,
                    "velocity": 0.4645669291338583,
                    "duration": 0.10880216666666342
                },
                {
                    "name": "D4",
                    "midi": 62,
                    "time": 87.69454633333292,
                    "velocity": 0.4645669291338583,
                    "duration": 0.10880216666666342
                },
                {
                    "name": "C4",
                    "midi": 60,
                    "time": 87.80334849999959,
                    "velocity": 0.4645669291338583,
                    "duration": 0.10880216666666342
                },
                {
                    "name": "F3",
                    "midi": 53,
                    "time": 87.91215066666625,
                    "velocity": 0.4645669291338583,
                    "duration": 0.10880216666666342
                },
                {
                    "name": "C4",
                    "midi": 60,
                    "time": 88.02095283333291,
                    "velocity": 0.4645669291338583,
                    "duration": 0.10880216666666342
                },
                {
                    "name": "D#4",
                    "midi": 63,
                    "time": 88.12975499999958,
                    "velocity": 0.5354330708661418,
                    "duration": 0.10880216666666342
                },
                {
                    "name": "F#4",
                    "midi": 66,
                    "time": 88.23855716666624,
                    "velocity": 0.48031496062992124,
                    "duration": 0.10880216666666342
                },
                {
                    "name": "D#4",
                    "midi": 63,
                    "time": 88.3473593333329,
                    "velocity": 0.48031496062992124,
                    "duration": 0.10880216666666342
                },
                {
                    "name": "C4",
                    "midi": 60,
                    "time": 88.45616149999957,
                    "velocity": 0.48031496062992124,
                    "duration": 0.10880216666666342
                },
                {
                    "name": "F#3",
                    "midi": 54,
                    "time": 88.56496366666623,
                    "velocity": 0.48031496062992124,
                    "duration": 0.10880216666666342
                },
                {
                    "name": "C4",
                    "midi": 60,
                    "time": 88.6737658333329,
                    "velocity": 0.48031496062992124,
                    "duration": 0.10880216666666342
                },
                {
                    "name": "E4",
                    "midi": 64,
                    "time": 88.78256799999956,
                    "velocity": 0.5354330708661418,
                    "duration": 0.10880216666666342
                },
                {
                    "name": "G4",
                    "midi": 67,
                    "time": 88.89137016666622,
                    "velocity": 0.4881889763779528,
                    "duration": 0.10880216666666342
                },
                {
                    "name": "E4",
                    "midi": 64,
                    "time": 89.00017233333288,
                    "velocity": 0.4881889763779528,
                    "duration": 0.10880216666666342
                },
                {
                    "name": "C4",
                    "midi": 60,
                    "time": 89.10897449999955,
                    "velocity": 0.4881889763779528,
                    "duration": 0.10880216666666342
                },
                {
                    "name": "G3",
                    "midi": 55,
                    "time": 89.21777666666621,
                    "velocity": 0.4881889763779528,
                    "duration": 0.10880216666666342
                },
                {
                    "name": "C4",
                    "midi": 60,
                    "time": 89.32657883333287,
                    "velocity": 0.4881889763779528,
                    "duration": 0.10880216666666342
                },
                {
                    "name": "D4",
                    "midi": 62,
                    "time": 89.43538099999954,
                    "velocity": 0.5354330708661418,
                    "duration": 0.10880216666666342
                },
                {
                    "name": "F4",
                    "midi": 65,
                    "time": 89.5441831666662,
                    "velocity": 0.48031496062992124,
                    "duration": 0.10880216666666342
                },
                {
                    "name": "D4",
                    "midi": 62,
                    "time": 89.65298533333286,
                    "velocity": 0.48031496062992124,
                    "duration": 0.10880216666666342
                },
                {
                    "name": "B3",
                    "midi": 59,
                    "time": 89.76178749999953,
                    "velocity": 0.48031496062992124,
                    "duration": 0.10880216666666342
                },
                {
                    "name": "F3",
                    "midi": 53,
                    "time": 89.87058966666619,
                    "velocity": 0.48031496062992124,
                    "duration": 0.10880216666666342
                },
                {
                    "name": "B3",
                    "midi": 59,
                    "time": 89.97939183333285,
                    "velocity": 0.48031496062992124,
                    "duration": 0.10880216666666342
                },
                {
                    "name": "C4",
                    "midi": 60,
                    "time": 90.08819399999952,
                    "velocity": 0.5354330708661418,
                    "duration": 0.10880216666666342
                },
                {
                    "name": "E4",
                    "midi": 64,
                    "time": 90.19699616666618,
                    "velocity": 0.4881889763779528,
                    "duration": 0.10880216666666342
                },
                {
                    "name": "C4",
                    "midi": 60,
                    "time": 90.30579833333285,
                    "velocity": 0.4881889763779528,
                    "duration": 0.10880216666666342
                },
                {
                    "name": "E3",
                    "midi": 52,
                    "time": 90.41460049999951,
                    "velocity": 0.4881889763779528,
                    "duration": 0.10880216666666342
                },
                {
                    "name": "E4",
                    "midi": 64,
                    "time": 90.52340266666617,
                    "velocity": 0.4881889763779528,
                    "duration": 0.10880216666666342
                },
                {
                    "name": "E3",
                    "midi": 52,
                    "time": 90.63220483333284,
                    "velocity": 0.4881889763779528,
                    "duration": 0.10880216666666342
                },
                {
                    "name": "E3",
                    "midi": 52,
                    "time": 90.84980916666616,
                    "velocity": 0.5511811023622047,
                    "duration": 0.10880216666666342
                },
                {
                    "name": "E4",
                    "midi": 64,
                    "time": 90.95861133333283,
                    "velocity": 0.5511811023622047,
                    "duration": 0.10880216666666342
                },
                {
                    "name": "E3",
                    "midi": 52,
                    "time": 91.17621566666615,
                    "velocity": 0.5590551181102362,
                    "duration": 0.10880216666666342
                },
                {
                    "name": "E4",
                    "midi": 64,
                    "time": 91.28501783333282,
                    "velocity": 0.5669291338582677,
                    "duration": 0.10880216666666342
                },
                {
                    "name": "A3",
                    "midi": 57,
                    "time": 91.50262216666614,
                    "velocity": 0.5748031496062992,
                    "duration": 0.10880216666666342
                },
                {
                    "name": "A4",
                    "midi": 69,
                    "time": 91.6114243333328,
                    "velocity": 0.5826771653543307,
                    "duration": 0.10880216666666342
                },
                {
                    "name": "B3",
                    "midi": 59,
                    "time": 91.82902866666613,
                    "velocity": 0.5905511811023622,
                    "duration": 0.10880216666666342
                },
                {
                    "name": "B4",
                    "midi": 71,
                    "time": 91.9378308333328,
                    "velocity": 0.6062992125984252,
                    "duration": 0.10880216666666342
                },
                {
                    "name": "C4",
                    "midi": 60,
                    "time": 92.15543516666612,
                    "velocity": 0.6141732283464567,
                    "duration": 0.10880216666666342
                },
                {
                    "name": "C5",
                    "midi": 72,
                    "time": 92.26423733333279,
                    "velocity": 0.6220472440944882,
                    "duration": 0.10880216666666342
                },
                {
                    "name": "D4",
                    "midi": 62,
                    "time": 92.48184166666611,
                    "velocity": 0.6299212598425197,
                    "duration": 0.10880216666666342
                },
                {
                    "name": "D5",
                    "midi": 74,
                    "time": 92.59064383333278,
                    "velocity": 0.6377952755905512,
                    "duration": 0.10880216666666342
                },
                {
                    "name": "E5",
                    "midi": 76,
                    "time": 92.69944599999944,
                    "velocity": 0.6692913385826772,
                    "duration": 0.10880216666666342
                },
                {
                    "name": "E4",
                    "midi": 64,
                    "time": 92.8082481666661,
                    "velocity": 0.6692913385826772,
                    "duration": 0.10880216666666342
                },
                {
                    "name": "E5",
                    "midi": 76,
                    "time": 92.91705033333277,
                    "velocity": 0.6614173228346457,
                    "duration": 0.10880216666666342
                },
                {
                    "name": "E4",
                    "midi": 64,
                    "time": 93.02585249999943,
                    "velocity": 0.6614173228346457,
                    "duration": 0.10880216666666342
                },
                {
                    "name": "E5",
                    "midi": 76,
                    "time": 93.1346546666661,
                    "velocity": 0.6614173228346457,
                    "duration": 0.10880216666666342
                },
                {
                    "name": "E4",
                    "midi": 64,
                    "time": 93.24345683333276,
                    "velocity": 0.6456692913385826,
                    "duration": 0.10880216666666342
                },
                {
                    "name": "E4",
                    "midi": 64,
                    "time": 93.46106116666608,
                    "velocity": 0.6220472440944882,
                    "duration": 0.10880216666666342
                },
                {
                    "name": "E5",
                    "midi": 76,
                    "time": 93.56986333333275,
                    "velocity": 0.6141732283464567,
                    "duration": 0.10880216666666342
                },
                {
                    "name": "D4",
                    "midi": 62,
                    "time": 93.78746766666607,
                    "velocity": 0.6062992125984252,
                    "duration": 0.10880216666666342
                },
                {
                    "name": "D5",
                    "midi": 74,
                    "time": 93.89626983333274,
                    "velocity": 0.6062992125984252,
                    "duration": 0.10880216666666342
                },
                {
                    "name": "C4",
                    "midi": 60,
                    "time": 94.11387416666606,
                    "velocity": 0.5905511811023622,
                    "duration": 0.10880216666666342
                },
                {
                    "name": "C5",
                    "midi": 72,
                    "time": 94.22267633333273,
                    "velocity": 0.5905511811023622,
                    "duration": 0.10880216666666342
                },
                {
                    "name": "B3",
                    "midi": 59,
                    "time": 94.44028066666606,
                    "velocity": 0.5826771653543307,
                    "duration": 0.10880216666666342
                },
                {
                    "name": "B4",
                    "midi": 71,
                    "time": 94.54908283333272,
                    "velocity": 0.5826771653543307,
                    "duration": 0.10880216666666342
                },
                {
                    "name": "C4",
                    "midi": 60,
                    "time": 94.76668716666605,
                    "velocity": 0.5748031496062992,
                    "duration": 0.10880216666666342
                },
                {
                    "name": "C5",
                    "midi": 72,
                    "time": 94.87548933333271,
                    "velocity": 0.5748031496062992,
                    "duration": 0.10880216666666342
                },
                {
                    "name": "A3",
                    "midi": 57,
                    "time": 95.09309366666604,
                    "velocity": 0.5669291338582677,
                    "duration": 0.10880216666666342
                },
                {
                    "name": "A4",
                    "midi": 69,
                    "time": 95.2018958333327,
                    "velocity": 0.5748031496062992,
                    "duration": 0.10880216666666342
                },
                {
                    "name": "E4",
                    "midi": 64,
                    "time": 95.31069799999936,
                    "velocity": 0.6692913385826772,
                    "duration": 0.10880216666666342
                },
                {
                    "name": "E3",
                    "midi": 52,
                    "time": 95.41950016666603,
                    "velocity": 0.6062992125984252,
                    "duration": 0.10880216666666342
                },
                {
                    "name": "E4",
                    "midi": 64,
                    "time": 95.52830233333269,
                    "velocity": 0.6062992125984252,
                    "duration": 0.10880216666666342
                },
                {
                    "name": "E3",
                    "midi": 52,
                    "time": 95.63710449999935,
                    "velocity": 0.6062992125984252,
                    "duration": 0.10880216666666342
                },
                {
                    "name": "E4",
                    "midi": 64,
                    "time": 95.74590666666602,
                    "velocity": 0.6062992125984252,
                    "duration": 0.10880216666666342
                },
                {
                    "name": "E3",
                    "midi": 52,
                    "time": 95.85470883333268,
                    "velocity": 0.6062992125984252,
                    "duration": 0.10880216666666342
                },
                {
                    "name": "E4",
                    "midi": 64,
                    "time": 96.072313166666,
                    "velocity": 0.5511811023622047,
                    "duration": 0.10880216666666342
                },
                {
                    "name": "E5",
                    "midi": 76,
                    "time": 96.18111533333267,
                    "velocity": 0.5511811023622047,
                    "duration": 0.10880216666666342
                },
                {
                    "name": "E4",
                    "midi": 64,
                    "time": 96.398719666666,
                    "velocity": 0.5590551181102362,
                    "duration": 0.10880216666666342
                },
                {
                    "name": "E5",
                    "midi": 76,
                    "time": 96.50752183333266,
                    "velocity": 0.5669291338582677,
                    "duration": 0.10880216666666342
                },
                {
                    "name": "A4",
                    "midi": 69,
                    "time": 96.72512616666599,
                    "velocity": 0.5748031496062992,
                    "duration": 0.10880216666666342
                },
                {
                    "name": "A5",
                    "midi": 81,
                    "time": 96.83392833333265,
                    "velocity": 0.5826771653543307,
                    "duration": 0.10880216666666342
                },
                {
                    "name": "B4",
                    "midi": 71,
                    "time": 97.05153266666598,
                    "velocity": 0.5905511811023622,
                    "duration": 0.10880216666666342
                },
                {
                    "name": "B5",
                    "midi": 83,
                    "time": 97.16033483333264,
                    "velocity": 0.6062992125984252,
                    "duration": 0.10880216666666342
                },
                {
                    "name": "C5",
                    "midi": 72,
                    "time": 97.37793916666597,
                    "velocity": 0.6141732283464567,
                    "duration": 0.10880216666666342
                },
                {
                    "name": "C6",
                    "midi": 84,
                    "time": 97.48674133333263,
                    "velocity": 0.6220472440944882,
                    "duration": 0.10880216666666342
                },
                {
                    "name": "D5",
                    "midi": 74,
                    "time": 97.70434566666596,
                    "velocity": 0.6299212598425197,
                    "duration": 0.10880216666666342
                },
                {
                    "name": "D6",
                    "midi": 86,
                    "time": 97.81314783333262,
                    "velocity": 0.6377952755905512,
                    "duration": 0.10880216666666342
                },
                {
                    "name": "E6",
                    "midi": 88,
                    "time": 97.92194999999928,
                    "velocity": 0.6692913385826772,
                    "duration": 0.10880216666666342
                },
                {
                    "name": "E5",
                    "midi": 76,
                    "time": 98.03075216666595,
                    "velocity": 0.6692913385826772,
                    "duration": 0.10880216666666342
                },
                {
                    "name": "E6",
                    "midi": 88,
                    "time": 98.13955433333261,
                    "velocity": 0.6614173228346457,
                    "duration": 0.10880216666666342
                },
                {
                    "name": "E5",
                    "midi": 76,
                    "time": 98.24835649999928,
                    "velocity": 0.6614173228346457,
                    "duration": 0.10880216666666342
                },
                {
                    "name": "E6",
                    "midi": 88,
                    "time": 98.35715866666594,
                    "velocity": 0.6614173228346457,
                    "duration": 0.10880216666666342
                },
                {
                    "name": "E5",
                    "midi": 76,
                    "time": 98.4659608333326,
                    "velocity": 0.6456692913385826,
                    "duration": 0.10880216666666342
                },
                {
                    "name": "E5",
                    "midi": 76,
                    "time": 98.68356516666593,
                    "velocity": 0.6220472440944882,
                    "duration": 0.10880216666666342
                },
                {
                    "name": "E6",
                    "midi": 88,
                    "time": 98.79236733333259,
                    "velocity": 0.6141732283464567,
                    "duration": 0.10880216666666342
                },
                {
                    "name": "D5",
                    "midi": 74,
                    "time": 99.00997166666592,
                    "velocity": 0.6062992125984252,
                    "duration": 0.10880216666666342
                },
                {
                    "name": "D6",
                    "midi": 86,
                    "time": 99.11877383333258,
                    "velocity": 0.6062992125984252,
                    "duration": 0.10880216666666342
                },
                {
                    "name": "C5",
                    "midi": 72,
                    "time": 99.33637816666591,
                    "velocity": 0.5905511811023622,
                    "duration": 0.10880216666666342
                },
                {
                    "name": "C6",
                    "midi": 84,
                    "time": 99.44518033333257,
                    "velocity": 0.5905511811023622,
                    "duration": 0.10880216666666342
                },
                {
                    "name": "B4",
                    "midi": 71,
                    "time": 99.6627846666659,
                    "velocity": 0.5826771653543307,
                    "duration": 0.10880216666666342
                },
                {
                    "name": "B5",
                    "midi": 83,
                    "time": 99.77158683333256,
                    "velocity": 0.5826771653543307,
                    "duration": 0.10880216666666342
                },
                {
                    "name": "C5",
                    "midi": 72,
                    "time": 99.98919116666589,
                    "velocity": 0.5748031496062992,
                    "duration": 0.10880216666666342
                },
                {
                    "name": "C6",
                    "midi": 84,
                    "time": 100.09799333333255,
                    "velocity": 0.5748031496062992,
                    "duration": 0.10880216666666342
                },
                {
                    "name": "A4",
                    "midi": 69,
                    "time": 100.31559766666588,
                    "velocity": 0.5669291338582677,
                    "duration": 0.10880216666666342
                },
                {
                    "name": "A5",
                    "midi": 81,
                    "time": 100.42439983333254,
                    "velocity": 0.5748031496062992,
                    "duration": 0.10880216666666342
                },
                {
                    "name": "E5",
                    "midi": 76,
                    "time": 100.5332019999992,
                    "velocity": 0.6456692913385826,
                    "duration": 0.10880216666666342
                },
                {
                    "name": "E4",
                    "midi": 64,
                    "time": 100.64200416666587,
                    "velocity": 0.6141732283464567,
                    "duration": 0.10880216666666342
                },
                {
                    "name": "E5",
                    "midi": 76,
                    "time": 100.75080633333253,
                    "velocity": 0.6141732283464567,
                    "duration": 0.10880216666666342
                },
                {
                    "name": "E4",
                    "midi": 64,
                    "time": 100.8596084999992,
                    "velocity": 0.6141732283464567,
                    "duration": 0.10880216666666342
                },
                {
                    "name": "E5",
                    "midi": 76,
                    "time": 100.96841066666586,
                    "velocity": 0.6141732283464567,
                    "duration": 0.10880216666666342
                },
                {
                    "name": "E4",
                    "midi": 64,
                    "time": 101.07721283333252,
                    "velocity": 0.6141732283464567,
                    "duration": 0.10880216666666342
                },
                {
                    "name": "A5",
                    "midi": 81,
                    "time": 101.18601499999919,
                    "velocity": 0.6299212598425197,
                    "duration": 0.10880216666666342
                },
                {
                    "name": "A4",
                    "midi": 69,
                    "time": 101.29481716666585,
                    "velocity": 0.5905511811023622,
                    "duration": 0.10880216666666342
                },
                {
                    "name": "A5",
                    "midi": 81,
                    "time": 101.40361933333251,
                    "velocity": 0.5905511811023622,
                    "duration": 0.10880216666666342
                },
                {
                    "name": "A4",
                    "midi": 69,
                    "time": 101.51242149999918,
                    "velocity": 0.5905511811023622,
                    "duration": 0.10880216666666342
                },
                {
                    "name": "A5",
                    "midi": 81,
                    "time": 101.62122366666584,
                    "velocity": 0.5905511811023622,
                    "duration": 0.10880216666666342
                },
                {
                    "name": "A4",
                    "midi": 69,
                    "time": 101.7300258333325,
                    "velocity": 0.5905511811023622,
                    "duration": 0.10880216666666342
                },
                {
                    "name": "A5",
                    "midi": 81,
                    "time": 101.83882799999917,
                    "velocity": 0.6456692913385826,
                    "duration": 0.10880216666666342
                },
                {
                    "name": "A4",
                    "midi": 69,
                    "time": 101.94763016666583,
                    "velocity": 0.5905511811023622,
                    "duration": 0.10880216666666342
                },
                {
                    "name": "A5",
                    "midi": 81,
                    "time": 102.0564323333325,
                    "velocity": 0.5905511811023622,
                    "duration": 0.10880216666666342
                },
                {
                    "name": "A4",
                    "midi": 69,
                    "time": 102.16523449999916,
                    "velocity": 0.5905511811023622,
                    "duration": 0.10880216666666342
                },
                {
                    "name": "A5",
                    "midi": 81,
                    "time": 102.27403666666582,
                    "velocity": 0.5905511811023622,
                    "duration": 0.10880216666666342
                },
                {
                    "name": "A4",
                    "midi": 69,
                    "time": 102.38283883333249,
                    "velocity": 0.5905511811023622,
                    "duration": 0.10880216666666342
                },
                {
                    "name": "A5",
                    "midi": 81,
                    "time": 102.49164099999915,
                    "velocity": 0.6456692913385826,
                    "duration": 0.10880216666666342
                },
                {
                    "name": "A4",
                    "midi": 69,
                    "time": 102.60044316666581,
                    "velocity": 0.5905511811023622,
                    "duration": 0.10880216666666342
                },
                {
                    "name": "A5",
                    "midi": 81,
                    "time": 102.70924533333248,
                    "velocity": 0.5905511811023622,
                    "duration": 0.10880216666666342
                },
                {
                    "name": "A4",
                    "midi": 69,
                    "time": 102.81804749999914,
                    "velocity": 0.5905511811023622,
                    "duration": 0.10880216666666342
                },
                {
                    "name": "A5",
                    "midi": 81,
                    "time": 102.9268496666658,
                    "velocity": 0.5905511811023622,
                    "duration": 0.10880216666666342
                },
                {
                    "name": "A4",
                    "midi": 69,
                    "time": 103.03565183333247,
                    "velocity": 0.5905511811023622,
                    "duration": 0.10880216666666342
                },
                {
                    "name": "A5",
                    "midi": 81,
                    "time": 103.14445399999913,
                    "velocity": 0.6377952755905512,
                    "duration": 0.10880216666666342
                },
                {
                    "name": "A4",
                    "midi": 69,
                    "time": 103.25325616666579,
                    "velocity": 0.5905511811023622,
                    "duration": 0.10880216666666342
                },
                {
                    "name": "A5",
                    "midi": 81,
                    "time": 103.36205833333246,
                    "velocity": 0.5905511811023622,
                    "duration": 0.10880216666666342
                },
                {
                    "name": "A4",
                    "midi": 69,
                    "time": 103.47086049999912,
                    "velocity": 0.5905511811023622,
                    "duration": 0.10880216666666342
                },
                {
                    "name": "A5",
                    "midi": 81,
                    "time": 103.57966266666578,
                    "velocity": 0.5905511811023622,
                    "duration": 0.10880216666666342
                },
                {
                    "name": "A4",
                    "midi": 69,
                    "time": 103.68846483333245,
                    "velocity": 0.5905511811023622,
                    "duration": 0.10880216666666342
                },
                {
                    "name": "F5",
                    "midi": 77,
                    "time": 103.79726699999911,
                    "velocity": 0.6377952755905512,
                    "duration": 0.10880216666666342
                },
                {
                    "name": "G5",
                    "midi": 79,
                    "time": 103.90606916666577,
                    "velocity": 0.6062992125984252,
                    "duration": 0.10880216666666342
                },
                {
                    "name": "A5",
                    "midi": 81,
                    "time": 104.01487133333244,
                    "velocity": 0.6062992125984252,
                    "duration": 0.10880216666666342
                },
                {
                    "name": "F5",
                    "midi": 77,
                    "time": 104.1236734999991,
                    "velocity": 0.6220472440944882,
                    "duration": 0.10880216666666342
                },
                {
                    "name": "E5",
                    "midi": 76,
                    "time": 104.23247566666576,
                    "velocity": 0.5905511811023622,
                    "duration": 0.10880216666666342
                },
                {
                    "name": "D5",
                    "midi": 74,
                    "time": 104.34127783333243,
                    "velocity": 0.5905511811023622,
                    "duration": 0.10880216666666342
                },
                {
                    "name": "C5",
                    "midi": 72,
                    "time": 104.45007999999909,
                    "velocity": 0.6299212598425197,
                    "duration": 0.10880216666666342
                },
                {
                    "name": "D5",
                    "midi": 74,
                    "time": 104.55888216666575,
                    "velocity": 0.5826771653543307,
                    "duration": 0.10880216666666342
                },
                {
                    "name": "E5",
                    "midi": 76,
                    "time": 104.66768433333242,
                    "velocity": 0.5826771653543307,
                    "duration": 0.10880216666666342
                },
                {
                    "name": "C5",
                    "midi": 72,
                    "time": 104.77648649999908,
                    "velocity": 0.6141732283464567,
                    "duration": 0.10880216666666342
                },
                {
                    "name": "B4",
                    "midi": 71,
                    "time": 104.88528866666574,
                    "velocity": 0.5590551181102362,
                    "duration": 0.10880216666666342
                },
                {
                    "name": "A4",
                    "midi": 69,
                    "time": 104.99409083333241,
                    "velocity": 0.5590551181102362,
                    "duration": 0.10880216666666342
                },
                {
                    "name": "B4",
                    "midi": 71,
                    "time": 105.10289299999907,
                    "velocity": 0.6377952755905512,
                    "duration": 0.10880216666666342
                },
                {
                    "name": "C5",
                    "midi": 72,
                    "time": 105.21169516666573,
                    "velocity": 0.5748031496062992,
                    "duration": 0.10880216666666342
                },
                {
                    "name": "D5",
                    "midi": 74,
                    "time": 105.3204973333324,
                    "velocity": 0.5748031496062992,
                    "duration": 0.10880216666666342
                },
                {
                    "name": "B4",
                    "midi": 71,
                    "time": 105.42929949999906,
                    "velocity": 0.6220472440944882,
                    "duration": 0.10880216666666342
                },
                {
                    "name": "A4",
                    "midi": 69,
                    "time": 105.53810166666572,
                    "velocity": 0.5905511811023622,
                    "duration": 0.10880216666666342
                },
                {
                    "name": "G#4",
                    "midi": 68,
                    "time": 105.64690383333239,
                    "velocity": 0.5905511811023622,
                    "duration": 0.10880216666666342
                },
                {
                    "name": "A4",
                    "midi": 69,
                    "time": 105.75570599999905,
                    "velocity": 0.6220472440944882,
                    "duration": 0.10880216666666342
                },
                {
                    "name": "A3",
                    "midi": 57,
                    "time": 105.86450816666571,
                    "velocity": 0.5905511811023622,
                    "duration": 0.10880216666666342
                },
                {
                    "name": "A4",
                    "midi": 69,
                    "time": 105.97331033333238,
                    "velocity": 0.5905511811023622,
                    "duration": 0.10880216666666342
                },
                {
                    "name": "A3",
                    "midi": 57,
                    "time": 106.08211249999904,
                    "velocity": 0.5905511811023622,
                    "duration": 0.10880216666666342
                },
                {
                    "name": "A4",
                    "midi": 69,
                    "time": 106.1909146666657,
                    "velocity": 0.5905511811023622,
                    "duration": 0.10880216666666342
                },
                {
                    "name": "A3",
                    "midi": 57,
                    "time": 106.29971683333237,
                    "velocity": 0.5905511811023622,
                    "duration": 0.10880216666666342
                },
                {
                    "name": "A4",
                    "midi": 69,
                    "time": 106.40851899999903,
                    "velocity": 0.6299212598425197,
                    "duration": 0.10880216666666342
                },
                {
                    "name": "A3",
                    "midi": 57,
                    "time": 106.5173211666657,
                    "velocity": 0.5905511811023622,
                    "duration": 0.10880216666666342
                },
                {
                    "name": "A4",
                    "midi": 69,
                    "time": 106.62612333333236,
                    "velocity": 0.5905511811023622,
                    "duration": 0.10880216666666342
                },
                {
                    "name": "A3",
                    "midi": 57,
                    "time": 106.73492549999902,
                    "velocity": 0.5905511811023622,
                    "duration": 0.10880216666666342
                },
                {
                    "name": "A4",
                    "midi": 69,
                    "time": 106.84372766666569,
                    "velocity": 0.5905511811023622,
                    "duration": 0.10880216666666342
                },
                {
                    "name": "A3",
                    "midi": 57,
                    "time": 106.95252983333235,
                    "velocity": 0.5905511811023622,
                    "duration": 0.10880216666666342
                },
                {
                    "name": "A4",
                    "midi": 69,
                    "time": 107.06133199999901,
                    "velocity": 0.6456692913385826,
                    "duration": 0.10880216666666342
                },
                {
                    "name": "A3",
                    "midi": 57,
                    "time": 107.17013416666568,
                    "velocity": 0.5905511811023622,
                    "duration": 0.10880216666666342
                },
                {
                    "name": "A4",
                    "midi": 69,
                    "time": 107.27893633333234,
                    "velocity": 0.5905511811023622,
                    "duration": 0.10880216666666342
                },
                {
                    "name": "A3",
                    "midi": 57,
                    "time": 107.387738499999,
                    "velocity": 0.5905511811023622,
                    "duration": 0.10880216666666342
                },
                {
                    "name": "A4",
                    "midi": 69,
                    "time": 107.49654066666567,
                    "velocity": 0.5905511811023622,
                    "duration": 0.10880216666666342
                },
                {
                    "name": "A3",
                    "midi": 57,
                    "time": 107.60534283333233,
                    "velocity": 0.5905511811023622,
                    "duration": 0.10880216666666342
                },
                {
                    "name": "A4",
                    "midi": 69,
                    "time": 107.714144999999,
                    "velocity": 0.6456692913385826,
                    "duration": 0.10880216666666342
                },
                {
                    "name": "A3",
                    "midi": 57,
                    "time": 107.82294716666566,
                    "velocity": 0.5905511811023622,
                    "duration": 0.10880216666666342
                },
                {
                    "name": "A4",
                    "midi": 69,
                    "time": 107.93174933333232,
                    "velocity": 0.5905511811023622,
                    "duration": 0.10880216666666342
                },
                {
                    "name": "A3",
                    "midi": 57,
                    "time": 108.04055149999898,
                    "velocity": 0.5905511811023622,
                    "duration": 0.10880216666666342
                },
                {
                    "name": "A4",
                    "midi": 69,
                    "time": 108.14935366666565,
                    "velocity": 0.5905511811023622,
                    "duration": 0.10880216666666342
                },
                {
                    "name": "A3",
                    "midi": 57,
                    "time": 108.25815583333231,
                    "velocity": 0.5905511811023622,
                    "duration": 0.10880216666666342
                },
                {
                    "name": "A4",
                    "midi": 69,
                    "time": 108.36695799999897,
                    "velocity": 0.6377952755905512,
                    "duration": 0.10880216666666342
                },
                {
                    "name": "A3",
                    "midi": 57,
                    "time": 108.47576016666564,
                    "velocity": 0.5905511811023622,
                    "duration": 0.10880216666666342
                },
                {
                    "name": "A4",
                    "midi": 69,
                    "time": 108.5845623333323,
                    "velocity": 0.5905511811023622,
                    "duration": 0.10880216666666342
                },
                {
                    "name": "A3",
                    "midi": 57,
                    "time": 108.69336449999896,
                    "velocity": 0.5905511811023622,
                    "duration": 0.10880216666666342
                },
                {
                    "name": "A4",
                    "midi": 69,
                    "time": 108.80216666666563,
                    "velocity": 0.5905511811023622,
                    "duration": 0.10880216666666342
                },
                {
                    "name": "A3",
                    "midi": 57,
                    "time": 108.91096883333229,
                    "velocity": 0.5905511811023622,
                    "duration": 0.10880216666666342
                },
                {
                    "name": "F4",
                    "midi": 65,
                    "time": 109.01977099999895,
                    "velocity": 0.6377952755905512,
                    "duration": 0.10880216666666342
                },
                {
                    "name": "G4",
                    "midi": 67,
                    "time": 109.12857316666562,
                    "velocity": 0.6062992125984252,
                    "duration": 0.10880216666666342
                },
                {
                    "name": "A4",
                    "midi": 69,
                    "time": 109.23737533333228,
                    "velocity": 0.6062992125984252,
                    "duration": 0.10880216666666342
                },
                {
                    "name": "F4",
                    "midi": 65,
                    "time": 109.34617749999894,
                    "velocity": 0.6220472440944882,
                    "duration": 0.10880216666666342
                },
                {
                    "name": "E4",
                    "midi": 64,
                    "time": 109.45497966666561,
                    "velocity": 0.5905511811023622,
                    "duration": 0.10880216666666342
                },
                {
                    "name": "D4",
                    "midi": 62,
                    "time": 109.56378183333227,
                    "velocity": 0.5905511811023622,
                    "duration": 0.10880216666666342
                },
                {
                    "name": "C4",
                    "midi": 60,
                    "time": 109.67258399999893,
                    "velocity": 0.6299212598425197,
                    "duration": 0.10880216666666342
                },
                {
                    "name": "D4",
                    "midi": 62,
                    "time": 109.7813861666656,
                    "velocity": 0.5826771653543307,
                    "duration": 0.10880216666666342
                },
                {
                    "name": "E4",
                    "midi": 64,
                    "time": 109.89018833333226,
                    "velocity": 0.5826771653543307,
                    "duration": 0.10880216666666342
                },
                {
                    "name": "C4",
                    "midi": 60,
                    "time": 109.99899049999892,
                    "velocity": 0.6141732283464567,
                    "duration": 0.10880216666666342
                },
                {
                    "name": "B3",
                    "midi": 59,
                    "time": 110.10779266666559,
                    "velocity": 0.5590551181102362,
                    "duration": 0.10880216666666342
                },
                {
                    "name": "A3",
                    "midi": 57,
                    "time": 110.21659483333225,
                    "velocity": 0.5590551181102362,
                    "duration": 0.10880216666666342
                },
                {
                    "name": "B3",
                    "midi": 59,
                    "time": 110.32539699999892,
                    "velocity": 0.6377952755905512,
                    "duration": 0.10880216666666342
                },
                {
                    "name": "C4",
                    "midi": 60,
                    "time": 110.43419916666558,
                    "velocity": 0.5748031496062992,
                    "duration": 0.10880216666666342
                },
                {
                    "name": "D4",
                    "midi": 62,
                    "time": 110.54300133333224,
                    "velocity": 0.5748031496062992,
                    "duration": 0.10880216666666342
                },
                {
                    "name": "B3",
                    "midi": 59,
                    "time": 110.6518034999989,
                    "velocity": 0.6220472440944882,
                    "duration": 0.10880216666666342
                },
                {
                    "name": "A3",
                    "midi": 57,
                    "time": 110.76060566666557,
                    "velocity": 0.5905511811023622,
                    "duration": 0.10880216666666342
                },
                {
                    "name": "G#3",
                    "midi": 56,
                    "time": 110.86940783333223,
                    "velocity": 0.5905511811023622,
                    "duration": 0.10880216666666342
                },
                {
                    "name": "A3",
                    "midi": 57,
                    "time": 110.9782099999989,
                    "velocity": 0.6220472440944882,
                    "duration": 0.3264065000000045
                },
                {
                    "name": "E6",
                    "midi": 88,
                    "time": 111.6310229999989,
                    "velocity": 0.7480314960629921,
                    "duration": 0.16320324999999514
                },
                {
                    "name": "E5",
                    "midi": 76,
                    "time": 111.6310229999989,
                    "velocity": 0.6299212598425197,
                    "duration": 0.16320324999999514
                },
                {
                    "name": "E6",
                    "midi": 88,
                    "time": 111.9574294999989,
                    "velocity": 0.7480314960629921,
                    "duration": 0.16320324999999514
                },
                {
                    "name": "E5",
                    "midi": 76,
                    "time": 111.9574294999989,
                    "velocity": 0.6299212598425197,
                    "duration": 0.16320324999999514
                },
                {
                    "name": "E5",
                    "midi": 76,
                    "time": 112.28383599999889,
                    "velocity": 0.7165354330708661,
                    "duration": 0.16320324999999514
                },
                {
                    "name": "E4",
                    "midi": 64,
                    "time": 112.28383599999889,
                    "velocity": 0.6062992125984252,
                    "duration": 0.16320324999999514
                },
                {
                    "name": "E5",
                    "midi": 76,
                    "time": 112.61024249999888,
                    "velocity": 0.7165354330708661,
                    "duration": 0.16320324999999514
                },
                {
                    "name": "E4",
                    "midi": 64,
                    "time": 112.61024249999888,
                    "velocity": 0.6062992125984252,
                    "duration": 0.16320324999999514
                },
                {
                    "name": "E4",
                    "midi": 64,
                    "time": 112.93664899999887,
                    "velocity": 0.6220472440944882,
                    "duration": 0.16320324999999514
                },
                {
                    "name": "E5",
                    "midi": 76,
                    "time": 112.93664899999887,
                    "velocity": 0.7322834645669292,
                    "duration": 0.16320324999999514
                },
                {
                    "name": "G#4",
                    "midi": 68,
                    "time": 113.26305549999886,
                    "velocity": 0.6456692913385826,
                    "duration": 0.16320324999999514
                },
                {
                    "name": "G#5",
                    "midi": 80,
                    "time": 113.26305549999886,
                    "velocity": 0.7637795275590551,
                    "duration": 0.16320324999999514
                },
                {
                    "name": "A4",
                    "midi": 69,
                    "time": 113.58946199999885,
                    "velocity": 0.6692913385826772,
                    "duration": 0.6528129999999948
                },
                {
                    "name": "A5",
                    "midi": 81,
                    "time": 113.58946199999885,
                    "velocity": 0.7874015748031497,
                    "duration": 0.6528129999999948
                },
                {
                    "name": "B5",
                    "midi": 83,
                    "time": 114.24227499999884,
                    "velocity": 0.4566929133858268,
                    "duration": 0.16320324999999514
                },
                {
                    "name": "D6",
                    "midi": 86,
                    "time": 114.40547824999884,
                    "velocity": 0.41732283464566927,
                    "duration": 0.16320324999999514
                },
                {
                    "name": "C6",
                    "midi": 84,
                    "time": 114.56868149999883,
                    "velocity": 0.41732283464566927,
                    "duration": 0.16320324999999514
                },
                {
                    "name": "B5",
                    "midi": 83,
                    "time": 114.73188474999883,
                    "velocity": 0.41732283464566927,
                    "duration": 0.16320324999999514
                },
                {
                    "name": "C6",
                    "midi": 84,
                    "time": 114.89508799999882,
                    "velocity": 0.4409448818897638,
                    "duration": 0.16320324999999514
                },
                {
                    "name": "E6",
                    "midi": 88,
                    "time": 115.05829124999882,
                    "velocity": 0.41732283464566927,
                    "duration": 0.16320324999999514
                },
                {
                    "name": "D6",
                    "midi": 86,
                    "time": 115.22149449999881,
                    "velocity": 0.41732283464566927,
                    "duration": 0.16320324999999514
                },
                {
                    "name": "C6",
                    "midi": 84,
                    "time": 115.38469774999881,
                    "velocity": 0.41732283464566927,
                    "duration": 0.16320324999999514
                },
                {
                    "name": "B5",
                    "midi": 83,
                    "time": 115.5479009999988,
                    "velocity": 0.4566929133858268,
                    "duration": 0.16320324999999514
                },
                {
                    "name": "D6",
                    "midi": 86,
                    "time": 115.7111042499988,
                    "velocity": 0.41732283464566927,
                    "duration": 0.16320324999999514
                },
                {
                    "name": "C6",
                    "midi": 84,
                    "time": 115.87430749999879,
                    "velocity": 0.41732283464566927,
                    "duration": 0.16320324999999514
                },
                {
                    "name": "B5",
                    "midi": 83,
                    "time": 116.03751074999879,
                    "velocity": 0.41732283464566927,
                    "duration": 0.16320324999999514
                },
                {
                    "name": "A5",
                    "midi": 81,
                    "time": 116.20071399999878,
                    "velocity": 0.4094488188976378,
                    "duration": 0.6528129999999948
                },
                {
                    "name": "E6",
                    "midi": 88,
                    "time": 116.85352699999878,
                    "velocity": 0.7480314960629921,
                    "duration": 0.16320324999999514
                },
                {
                    "name": "E5",
                    "midi": 76,
                    "time": 116.85352699999878,
                    "velocity": 0.6299212598425197,
                    "duration": 0.16320324999999514
                },
                {
                    "name": "E6",
                    "midi": 88,
                    "time": 117.17993349999877,
                    "velocity": 0.7480314960629921,
                    "duration": 0.16320324999999514
                },
                {
                    "name": "E5",
                    "midi": 76,
                    "time": 117.17993349999877,
                    "velocity": 0.6299212598425197,
                    "duration": 0.16320324999999514
                },
                {
                    "name": "E5",
                    "midi": 76,
                    "time": 117.50633999999876,
                    "velocity": 0.7165354330708661,
                    "duration": 0.16320324999999514
                },
                {
                    "name": "E4",
                    "midi": 64,
                    "time": 117.50633999999876,
                    "velocity": 0.6062992125984252,
                    "duration": 0.16320324999999514
                },
                {
                    "name": "E5",
                    "midi": 76,
                    "time": 117.83274649999875,
                    "velocity": 0.7165354330708661,
                    "duration": 0.16320324999999514
                },
                {
                    "name": "E4",
                    "midi": 64,
                    "time": 117.83274649999875,
                    "velocity": 0.6062992125984252,
                    "duration": 0.16320324999999514
                },
                {
                    "name": "E4",
                    "midi": 64,
                    "time": 118.15915299999874,
                    "velocity": 0.6220472440944882,
                    "duration": 0.16320324999999514
                },
                {
                    "name": "E5",
                    "midi": 76,
                    "time": 118.15915299999874,
                    "velocity": 0.7322834645669292,
                    "duration": 0.16320324999999514
                },
                {
                    "name": "G#4",
                    "midi": 68,
                    "time": 118.48555949999873,
                    "velocity": 0.6456692913385826,
                    "duration": 0.16320324999999514
                },
                {
                    "name": "G#5",
                    "midi": 80,
                    "time": 118.48555949999873,
                    "velocity": 0.7637795275590551,
                    "duration": 0.16320324999999514
                },
                {
                    "name": "A4",
                    "midi": 69,
                    "time": 118.81196599999872,
                    "velocity": 0.6692913385826772,
                    "duration": 0.6528129999999948
                },
                {
                    "name": "A5",
                    "midi": 81,
                    "time": 118.81196599999872,
                    "velocity": 0.7874015748031497,
                    "duration": 0.6528129999999948
                },
                {
                    "name": "B5",
                    "midi": 83,
                    "time": 119.46477899999871,
                    "velocity": 0.4566929133858268,
                    "duration": 0.16320324999999514
                },
                {
                    "name": "D6",
                    "midi": 86,
                    "time": 119.62798224999871,
                    "velocity": 0.41732283464566927,
                    "duration": 0.16320324999999514
                },
                {
                    "name": "C6",
                    "midi": 84,
                    "time": 119.7911854999987,
                    "velocity": 0.41732283464566927,
                    "duration": 0.16320324999999514
                },
                {
                    "name": "B5",
                    "midi": 83,
                    "time": 119.9543887499987,
                    "velocity": 0.4094488188976378,
                    "duration": 0.16320324999999514
                },
                {
                    "name": "C6",
                    "midi": 84,
                    "time": 120.1175919999987,
                    "velocity": 0.4330708661417323,
                    "duration": 0.16320324999999514
                },
                {
                    "name": "E6",
                    "midi": 88,
                    "time": 120.28079524999869,
                    "velocity": 0.4094488188976378,
                    "duration": 0.16320324999999514
                },
                {
                    "name": "D6",
                    "midi": 86,
                    "time": 120.44399849999868,
                    "velocity": 0.4015748031496063,
                    "duration": 0.16320324999999514
                },
                {
                    "name": "C6",
                    "midi": 84,
                    "time": 120.60720174999868,
                    "velocity": 0.4015748031496063,
                    "duration": 0.16320324999999514
                },
                {
                    "name": "B5",
                    "midi": 83,
                    "time": 120.77040499999868,
                    "velocity": 0.4409448818897638,
                    "duration": 0.16320324999999514
                },
                {
                    "name": "D6",
                    "midi": 86,
                    "time": 120.93360824999867,
                    "velocity": 0.4015748031496063,
                    "duration": 0.16320324999999514
                },
                {
                    "name": "C6",
                    "midi": 84,
                    "time": 121.09681149999867,
                    "velocity": 0.4015748031496063,
                    "duration": 0.16320324999999514
                },
                {
                    "name": "B5",
                    "midi": 83,
                    "time": 121.26001474999866,
                    "velocity": 0.4015748031496063,
                    "duration": 0.16320324999999514
                },
                {
                    "name": "A5",
                    "midi": 81,
                    "time": 121.42321799999866,
                    "velocity": 0.41732283464566927,
                    "duration": 0.16320324999999514
                },
                {
                    "name": "C6",
                    "midi": 84,
                    "time": 121.58642124999865,
                    "velocity": 0.3858267716535433,
                    "duration": 0.16320324999999514
                },
                {
                    "name": "B5",
                    "midi": 83,
                    "time": 121.74962449999865,
                    "velocity": 0.3779527559055118,
                    "duration": 0.16320324999999514
                },
                {
                    "name": "A5",
                    "midi": 81,
                    "time": 121.91282774999864,
                    "velocity": 0.3779527559055118,
                    "duration": 0.16320324999999514
                },
                {
                    "name": "B5",
                    "midi": 83,
                    "time": 122.07603099999864,
                    "velocity": 0.4094488188976378,
                    "duration": 0.16320324999999514
                },
                {
                    "name": "D6",
                    "midi": 86,
                    "time": 122.23923424999863,
                    "velocity": 0.36220472440944884,
                    "duration": 0.16320324999999514
                },
                {
                    "name": "C6",
                    "midi": 84,
                    "time": 122.40243749999863,
                    "velocity": 0.36220472440944884,
                    "duration": 0.16320324999999514
                },
                {
                    "name": "B5",
                    "midi": 83,
                    "time": 122.56564074999862,
                    "velocity": 0.3543307086614173,
                    "duration": 0.16320324999999514
                },
                {
                    "name": "C6",
                    "midi": 84,
                    "time": 122.72884399999862,
                    "velocity": 0.36220472440944884,
                    "duration": 0.16320324999999514
                },
                {
                    "name": "E6",
                    "midi": 88,
                    "time": 122.89204724999861,
                    "velocity": 0.33858267716535434,
                    "duration": 0.16320324999999514
                },
                {
                    "name": "D6",
                    "midi": 86,
                    "time": 123.0552504999986,
                    "velocity": 0.33070866141732286,
                    "duration": 0.16320324999999514
                },
                {
                    "name": "C6",
                    "midi": 84,
                    "time": 123.2184537499986,
                    "velocity": 0.33070866141732286,
                    "duration": 0.16320324999999514
                },
                {
                    "name": "B5",
                    "midi": 83,
                    "time": 123.3816569999986,
                    "velocity": 0.3543307086614173,
                    "duration": 0.16320324999999514
                },
                {
                    "name": "D6",
                    "midi": 86,
                    "time": 123.54486024999859,
                    "velocity": 0.31496062992125984,
                    "duration": 0.16320324999999514
                },
                {
                    "name": "C6",
                    "midi": 84,
                    "time": 123.70806349999859,
                    "velocity": 0.30708661417322836,
                    "duration": 0.16320324999999514
                },
                {
                    "name": "B5",
                    "midi": 83,
                    "time": 123.87126674999858,
                    "velocity": 0.30708661417322836,
                    "duration": 0.16320324999999514
                },
                {
                    "name": "A5",
                    "midi": 81,
                    "time": 124.03446999999858,
                    "velocity": 0.30708661417322836,
                    "duration": 0.16320324999999514
                },
                {
                    "name": "C6",
                    "midi": 84,
                    "time": 124.19767324999857,
                    "velocity": 0.29133858267716534,
                    "duration": 0.16320324999999514
                },
                {
                    "name": "B5",
                    "midi": 83,
                    "time": 124.36087649999857,
                    "velocity": 0.29133858267716534,
                    "duration": 0.16320324999999514
                },
                {
                    "name": "A5",
                    "midi": 81,
                    "time": 124.52407974999856,
                    "velocity": 0.29133858267716534,
                    "duration": 0.16320324999999514
                },
                {
                    "name": "B5",
                    "midi": 83,
                    "time": 124.68728299999856,
                    "velocity": 0.3228346456692913,
                    "duration": 0.16320324999999514
                },
                {
                    "name": "D6",
                    "midi": 86,
                    "time": 124.85048624999855,
                    "velocity": 0.29133858267716534,
                    "duration": 0.16320324999999514
                },
                {
                    "name": "C6",
                    "midi": 84,
                    "time": 125.01368949999855,
                    "velocity": 0.29133858267716534,
                    "duration": 0.16320324999999514
                },
                {
                    "name": "B5",
                    "midi": 83,
                    "time": 125.17689274999854,
                    "velocity": 0.29133858267716534,
                    "duration": 0.16320324999999514
                },
                {
                    "name": "A5",
                    "midi": 81,
                    "time": 125.34009599999854,
                    "velocity": 0.30708661417322836,
                    "duration": 0.16320324999999514
                },
                {
                    "name": "C6",
                    "midi": 84,
                    "time": 125.50329924999853,
                    "velocity": 0.29133858267716534,
                    "duration": 0.16320324999999514
                },
                {
                    "name": "B5",
                    "midi": 83,
                    "time": 125.66650249999853,
                    "velocity": 0.29133858267716534,
                    "duration": 0.16320324999999514
                },
                {
                    "name": "A5",
                    "midi": 81,
                    "time": 125.82970574999852,
                    "velocity": 0.29133858267716534,
                    "duration": 0.16320324999999514
                },
                {
                    "name": "B5",
                    "midi": 83,
                    "time": 125.99290899999852,
                    "velocity": 0.3228346456692913,
                    "duration": 0.16320324999999514
                },
                {
                    "name": "D6",
                    "midi": 86,
                    "time": 126.15611224999851,
                    "velocity": 0.29133858267716534,
                    "duration": 0.16320324999999514
                },
                {
                    "name": "C6",
                    "midi": 84,
                    "time": 126.31931549999851,
                    "velocity": 0.29133858267716534,
                    "duration": 0.16320324999999514
                },
                {
                    "name": "B5",
                    "midi": 83,
                    "time": 126.4825187499985,
                    "velocity": 0.29133858267716534,
                    "duration": 0.16320324999999514
                },
                {
                    "name": "A5",
                    "midi": 81,
                    "time": 126.6457219999985,
                    "velocity": 0.7244094488188977,
                    "duration": 0.3264065000000045
                },
                {
                    "name": "E5",
                    "midi": 76,
                    "time": 127.29853499999851,
                    "velocity": 0.7244094488188977,
                    "duration": 0.3264065000000045
                },
                {
                    "name": "E5",
                    "midi": 76,
                    "time": 127.95134799999852,
                    "velocity": 0.7637795275590551,
                    "duration": 0.9792194999999992
                },
                {
                    "name": "C5",
                    "midi": 72,
                    "time": 128.93056749999852,
                    "velocity": 0.41732283464566927,
                    "duration": 0.3264064999999903
                },
                {
                    "name": "B4",
                    "midi": 71,
                    "time": 129.2569739999985,
                    "velocity": 0.4566929133858268,
                    "duration": 0.652813000000009
                },
                {
                    "name": "E4",
                    "midi": 64,
                    "time": 129.90978699999852,
                    "velocity": 0.4251968503937008,
                    "duration": 0.652813000000009
                },
                {
                    "name": "A4",
                    "midi": 69,
                    "time": 130.56259999999853,
                    "velocity": 0.4251968503937008,
                    "duration": 0.3264064999999903
                },
                {
                    "name": "F3",
                    "midi": 53,
                    "time": 131.86822599999851,
                    "velocity": 0.8031496062992126,
                    "duration": 0.3264064999999903
                },
                {
                    "name": "C5",
                    "midi": 72,
                    "time": 132.5210389999985,
                    "velocity": 0.7244094488188977,
                    "duration": 0.3264064999999903
                },
                {
                    "name": "C6",
                    "midi": 84,
                    "time": 132.5210389999985,
                    "velocity": 0.7244094488188977,
                    "duration": 0.3264064999999903
                },
                {
                    "name": "C5",
                    "midi": 72,
                    "time": 133.17385199999848,
                    "velocity": 0.7480314960629921,
                    "duration": 0.9792194999999992
                },
                {
                    "name": "C6",
                    "midi": 84,
                    "time": 133.17385199999848,
                    "velocity": 0.7480314960629921,
                    "duration": 0.9792194999999992
                },
                {
                    "name": "A4",
                    "midi": 69,
                    "time": 134.15307149999848,
                    "velocity": 0.44881889763779526,
                    "duration": 0.3264064999999903
                },
                {
                    "name": "A5",
                    "midi": 81,
                    "time": 134.15307149999848,
                    "velocity": 0.44881889763779526,
                    "duration": 0.3264064999999903
                },
                {
                    "name": "G4",
                    "midi": 67,
                    "time": 134.47947799999847,
                    "velocity": 0.47244094488188976,
                    "duration": 0.652813000000009
                },
                {
                    "name": "G5",
                    "midi": 79,
                    "time": 134.47947799999847,
                    "velocity": 0.47244094488188976,
                    "duration": 0.652813000000009
                },
                {
                    "name": "C4",
                    "midi": 60,
                    "time": 135.13229099999847,
                    "velocity": 0.4409448818897638,
                    "duration": 0.652813000000009
                },
                {
                    "name": "C5",
                    "midi": 72,
                    "time": 135.13229099999847,
                    "velocity": 0.4409448818897638,
                    "duration": 0.652813000000009
                },
                {
                    "name": "F4",
                    "midi": 65,
                    "time": 135.78510399999848,
                    "velocity": 0.4409448818897638,
                    "duration": 0.3264064999999903
                },
                {
                    "name": "F5",
                    "midi": 77,
                    "time": 135.78510399999848,
                    "velocity": 0.4409448818897638,
                    "duration": 0.3264064999999903
                },
                {
                    "name": "G3",
                    "midi": 55,
                    "time": 137.09072999999847,
                    "velocity": 0.8110236220472441,
                    "duration": 0.3264064999999903
                },
                {
                    "name": "F5",
                    "midi": 77,
                    "time": 137.74354299999845,
                    "velocity": 0.49606299212598426,
                    "duration": 0.3264064999999903
                },
                {
                    "name": "F6",
                    "midi": 89,
                    "time": 137.74354299999845,
                    "velocity": 0.7086614173228346,
                    "duration": 0.3264064999999903
                },
                {
                    "name": "F5",
                    "midi": 77,
                    "time": 138.39635599999843,
                    "velocity": 0.5275590551181102,
                    "duration": 0.9792194999999992
                },
                {
                    "name": "F6",
                    "midi": 89,
                    "time": 138.39635599999843,
                    "velocity": 0.7322834645669292,
                    "duration": 0.9792194999999992
                },
                {
                    "name": "D5",
                    "midi": 74,
                    "time": 139.37557549999843,
                    "velocity": 0.4409448818897638,
                    "duration": 0.3264064999999903
                },
                {
                    "name": "D6",
                    "midi": 86,
                    "time": 139.37557549999843,
                    "velocity": 0.5196850393700787,
                    "duration": 0.3264064999999903
                },
                {
                    "name": "B4",
                    "midi": 71,
                    "time": 139.70198199999842,
                    "velocity": 0.4566929133858268,
                    "duration": 0.652813000000009
                },
                {
                    "name": "B5",
                    "midi": 83,
                    "time": 139.70198199999842,
                    "velocity": 0.5433070866141733,
                    "duration": 0.652813000000009
                },
                {
                    "name": "G4",
                    "midi": 67,
                    "time": 140.35479499999843,
                    "velocity": 0.3858267716535433,
                    "duration": 0.652813000000009
                },
                {
                    "name": "G5",
                    "midi": 79,
                    "time": 140.35479499999843,
                    "velocity": 0.4566929133858268,
                    "duration": 0.652813000000009
                },
                {
                    "name": "F4",
                    "midi": 65,
                    "time": 141.00760799999844,
                    "velocity": 0.4251968503937008,
                    "duration": 0.9792194999999992
                },
                {
                    "name": "F5",
                    "midi": 77,
                    "time": 141.00760799999844,
                    "velocity": 0.5039370078740157,
                    "duration": 0.9792194999999992
                },
                {
                    "name": "D4",
                    "midi": 62,
                    "time": 141.98682749999844,
                    "velocity": 0.3464566929133858,
                    "duration": 0.3264064999999903
                },
                {
                    "name": "D5",
                    "midi": 74,
                    "time": 141.98682749999844,
                    "velocity": 0.4094488188976378,
                    "duration": 0.3264064999999903
                },
                {
                    "name": "B3",
                    "midi": 59,
                    "time": 142.31323399999843,
                    "velocity": 0.36220472440944884,
                    "duration": 0.652813000000009
                },
                {
                    "name": "B4",
                    "midi": 71,
                    "time": 142.31323399999843,
                    "velocity": 0.4330708661417323,
                    "duration": 0.652813000000009
                },
                {
                    "name": "G3",
                    "midi": 55,
                    "time": 142.96604699999844,
                    "velocity": 0.3228346456692913,
                    "duration": 0.652813000000009
                },
                {
                    "name": "G4",
                    "midi": 67,
                    "time": 142.96604699999844,
                    "velocity": 0.3858267716535433,
                    "duration": 0.652813000000009
                },
                {
                    "name": "F3",
                    "midi": 53,
                    "time": 143.61885999999845,
                    "velocity": 0.33858267716535434,
                    "duration": 0.9792194999999992
                },
                {
                    "name": "F4",
                    "midi": 65,
                    "time": 143.61885999999845,
                    "velocity": 0.4015748031496063,
                    "duration": 0.9792194999999992
                },
                {
                    "name": "D3",
                    "midi": 50,
                    "time": 144.59807949999845,
                    "velocity": 0.2677165354330709,
                    "duration": 0.3264064999999903
                },
                {
                    "name": "D4",
                    "midi": 62,
                    "time": 144.59807949999845,
                    "velocity": 0.31496062992125984,
                    "duration": 0.3264064999999903
                },
                {
                    "name": "B2",
                    "midi": 47,
                    "time": 144.92448599999844,
                    "velocity": 0.2677165354330709,
                    "duration": 0.652813000000009
                },
                {
                    "name": "B3",
                    "midi": 59,
                    "time": 144.92448599999844,
                    "velocity": 0.31496062992125984,
                    "duration": 0.652813000000009
                },
                {
                    "name": "G3",
                    "midi": 55,
                    "time": 146.23011199999846,
                    "velocity": 0.31496062992125984,
                    "duration": 0.652813000000009
                },
                {
                    "name": "E3",
                    "midi": 52,
                    "time": 147.69894124999848,
                    "velocity": 0.2204724409448819,
                    "duration": 0.16320325000000935
                },
                {
                    "name": "G3",
                    "midi": 55,
                    "time": 147.8621444999985,
                    "velocity": 0.23622047244094488,
                    "duration": 0.16320325000000935
                },
                {
                    "name": "C4",
                    "midi": 60,
                    "time": 148.0253477499985,
                    "velocity": 0.25196850393700787,
                    "duration": 0.16320325000000935
                },
                {
                    "name": "E4",
                    "midi": 64,
                    "time": 148.1885509999985,
                    "velocity": 0.2677165354330709,
                    "duration": 0.16320325000000935
                },
                {
                    "name": "E3",
                    "midi": 52,
                    "time": 148.35175424999852,
                    "velocity": 0.2440944881889764,
                    "duration": 0.16320325000000935
                },
                {
                    "name": "G3",
                    "midi": 55,
                    "time": 148.51495749999853,
                    "velocity": 0.2440944881889764,
                    "duration": 0.16320325000000935
                },
                {
                    "name": "C4",
                    "midi": 60,
                    "time": 148.67816074999854,
                    "velocity": 0.2440944881889764,
                    "duration": 0.16320325000000935
                },
                {
                    "name": "E4",
                    "midi": 64,
                    "time": 148.84136399999855,
                    "velocity": 0.2755905511811024,
                    "duration": 0.16320325000000935
                },
                {
                    "name": "E3",
                    "midi": 52,
                    "time": 149.00456724999856,
                    "velocity": 0.23622047244094488,
                    "duration": 0.16320325000000935
                },
                {
                    "name": "G3",
                    "midi": 55,
                    "time": 149.16777049999857,
                    "velocity": 0.2440944881889764,
                    "duration": 0.16320325000000935
                },
                {
                    "name": "C4",
                    "midi": 60,
                    "time": 149.33097374999858,
                    "velocity": 0.25984251968503935,
                    "duration": 0.16320325000000935
                },
                {
                    "name": "E4",
                    "midi": 64,
                    "time": 149.4941769999986,
                    "velocity": 0.28346456692913385,
                    "duration": 0.16320325000000935
                },
                {
                    "name": "E3",
                    "midi": 52,
                    "time": 149.6573802499986,
                    "velocity": 0.25984251968503935,
                    "duration": 0.16320325000000935
                },
                {
                    "name": "G3",
                    "midi": 55,
                    "time": 149.8205834999986,
                    "velocity": 0.25984251968503935,
                    "duration": 0.16320325000000935
                },
                {
                    "name": "C4",
                    "midi": 60,
                    "time": 149.98378674999861,
                    "velocity": 0.25984251968503935,
                    "duration": 0.16320325000000935
                },
                {
                    "name": "F3",
                    "midi": 53,
                    "time": 150.31019324999863,
                    "velocity": 0.2204724409448819,
                    "duration": 0.16320325000000935
                },
                {
                    "name": "G3",
                    "midi": 55,
                    "time": 150.47339649999864,
                    "velocity": 0.2440944881889764,
                    "duration": 0.16320325000000935
                },
                {
                    "name": "B3",
                    "midi": 59,
                    "time": 150.63659974999865,
                    "velocity": 0.25984251968503935,
                    "duration": 0.16320325000000935
                },
                {
                    "name": "D4",
                    "midi": 62,
                    "time": 150.79980299999866,
                    "velocity": 0.28346456692913385,
                    "duration": 0.16320325000000935
                },
                {
                    "name": "F3",
                    "midi": 53,
                    "time": 150.96300624999867,
                    "velocity": 0.25984251968503935,
                    "duration": 0.16320325000000935
                },
                {
                    "name": "G3",
                    "midi": 55,
                    "time": 151.12620949999868,
                    "velocity": 0.25984251968503935,
                    "duration": 0.16320325000000935
                },
                {
                    "name": "B3",
                    "midi": 59,
                    "time": 151.2894127499987,
                    "velocity": 0.2677165354330709,
                    "duration": 0.16320325000000935
                },
                {
                    "name": "E3",
                    "midi": 52,
                    "time": 151.6158192499987,
                    "velocity": 0.2204724409448819,
                    "duration": 0.16320325000000935
                },
                {
                    "name": "G3",
                    "midi": 55,
                    "time": 151.77902249999872,
                    "velocity": 0.23622047244094488,
                    "duration": 0.16320325000000935
                },
                {
                    "name": "C4",
                    "midi": 60,
                    "time": 151.94222574999873,
                    "velocity": 0.25196850393700787,
                    "duration": 0.16320325000000935
                },
                {
                    "name": "E4",
                    "midi": 64,
                    "time": 152.10542899999874,
                    "velocity": 0.2677165354330709,
                    "duration": 0.16320325000000935
                },
                {
                    "name": "E3",
                    "midi": 52,
                    "time": 152.26863224999875,
                    "velocity": 0.25196850393700787,
                    "duration": 0.16320325000000935
                },
                {
                    "name": "G3",
                    "midi": 55,
                    "time": 152.43183549999875,
                    "velocity": 0.25196850393700787,
                    "duration": 0.16320325000000935
                },
                {
                    "name": "C4",
                    "midi": 60,
                    "time": 152.59503874999876,
                    "velocity": 0.25984251968503935,
                    "duration": 0.16320325000000935
                },
                {
                    "name": "E3",
                    "midi": 52,
                    "time": 152.92144524999878,
                    "velocity": 0.2204724409448819,
                    "duration": 0.16320325000000935
                },
                {
                    "name": "G3",
                    "midi": 55,
                    "time": 153.0846484999988,
                    "velocity": 0.23622047244094488,
                    "duration": 0.16320325000000935
                },
                {
                    "name": "C4",
                    "midi": 60,
                    "time": 153.2478517499988,
                    "velocity": 0.25196850393700787,
                    "duration": 0.16320325000000935
                },
                {
                    "name": "E4",
                    "midi": 64,
                    "time": 153.4110549999988,
                    "velocity": 0.2677165354330709,
                    "duration": 0.16320325000000935
                },
                {
                    "name": "E3",
                    "midi": 52,
                    "time": 153.57425824999882,
                    "velocity": 0.2440944881889764,
                    "duration": 0.16320325000000935
                },
                {
                    "name": "G3",
                    "midi": 55,
                    "time": 153.73746149999883,
                    "velocity": 0.2440944881889764,
                    "duration": 0.16320325000000935
                },
                {
                    "name": "C4",
                    "midi": 60,
                    "time": 153.90066474999884,
                    "velocity": 0.2440944881889764,
                    "duration": 0.16320325000000935
                },
                {
                    "name": "E4",
                    "midi": 64,
                    "time": 154.06386799999885,
                    "velocity": 0.2755905511811024,
                    "duration": 0.16320325000000935
                },
                {
                    "name": "E3",
                    "midi": 52,
                    "time": 154.22707124999886,
                    "velocity": 0.23622047244094488,
                    "duration": 0.16320325000000935
                },
                {
                    "name": "G3",
                    "midi": 55,
                    "time": 154.39027449999887,
                    "velocity": 0.2440944881889764,
                    "duration": 0.16320325000000935
                },
                {
                    "name": "C4",
                    "midi": 60,
                    "time": 154.55347774999888,
                    "velocity": 0.25984251968503935,
                    "duration": 0.16320325000000935
                },
                {
                    "name": "E4",
                    "midi": 64,
                    "time": 154.71668099999889,
                    "velocity": 0.28346456692913385,
                    "duration": 0.16320325000000935
                },
                {
                    "name": "E3",
                    "midi": 52,
                    "time": 154.8798842499989,
                    "velocity": 0.25984251968503935,
                    "duration": 0.16320325000000935
                },
                {
                    "name": "G3",
                    "midi": 55,
                    "time": 155.0430874999989,
                    "velocity": 0.25984251968503935,
                    "duration": 0.16320325000000935
                },
                {
                    "name": "C4",
                    "midi": 60,
                    "time": 155.2062907499989,
                    "velocity": 0.25984251968503935,
                    "duration": 0.16320325000000935
                },
                {
                    "name": "F3",
                    "midi": 53,
                    "time": 155.53269724999893,
                    "velocity": 0.2204724409448819,
                    "duration": 0.16320325000000935
                },
                {
                    "name": "G3",
                    "midi": 55,
                    "time": 155.69590049999894,
                    "velocity": 0.2440944881889764,
                    "duration": 0.16320325000000935
                },
                {
                    "name": "B3",
                    "midi": 59,
                    "time": 155.85910374999895,
                    "velocity": 0.25984251968503935,
                    "duration": 0.16320325000000935
                },
                {
                    "name": "D4",
                    "midi": 62,
                    "time": 156.02230699999896,
                    "velocity": 0.28346456692913385,
                    "duration": 0.16320325000000935
                },
                {
                    "name": "F3",
                    "midi": 53,
                    "time": 156.18551024999897,
                    "velocity": 0.25984251968503935,
                    "duration": 0.16320325000000935
                },
                {
                    "name": "G3",
                    "midi": 55,
                    "time": 156.34871349999898,
                    "velocity": 0.25984251968503935,
                    "duration": 0.16320325000000935
                },
                {
                    "name": "B3",
                    "midi": 59,
                    "time": 156.511916749999,
                    "velocity": 0.2677165354330709,
                    "duration": 0.16320325000000935
                },
                {
                    "name": "E3",
                    "midi": 52,
                    "time": 157.001526499999,
                    "velocity": 0.23622047244094488,
                    "duration": 0.16320325000000935
                },
                {
                    "name": "G3",
                    "midi": 55,
                    "time": 157.164729749999,
                    "velocity": 0.25196850393700787,
                    "duration": 0.16320325000000935
                },
                {
                    "name": "C4",
                    "midi": 60,
                    "time": 157.327932999999,
                    "velocity": 0.2677165354330709,
                    "duration": 0.16320325000000935
                },
                {
                    "name": "E4",
                    "midi": 64,
                    "time": 157.49113624999902,
                    "velocity": 0.25196850393700787,
                    "duration": 0.16320325000000935
                },
                {
                    "name": "D4",
                    "midi": 62,
                    "time": 157.65433949999903,
                    "velocity": 0.25196850393700787,
                    "duration": 0.16320325000000935
                },
                {
                    "name": "C4",
                    "midi": 60,
                    "time": 157.81754274999903,
                    "velocity": 0.25984251968503935,
                    "duration": 0.16320325000000935
                },
                {
                    "name": "B3",
                    "midi": 59,
                    "time": 157.98074599999904,
                    "velocity": 0.2755905511811024,
                    "duration": 0.16320325000000935
                },
                {
                    "name": "G3",
                    "midi": 55,
                    "time": 158.14394924999905,
                    "velocity": 0.2204724409448819,
                    "duration": 0.16320325000000935
                },
                {
                    "name": "B3",
                    "midi": 59,
                    "time": 158.30715249999906,
                    "velocity": 0.23622047244094488,
                    "duration": 0.16320325000000935
                },
                {
                    "name": "D4",
                    "midi": 62,
                    "time": 158.47035574999907,
                    "velocity": 0.25196850393700787,
                    "duration": 0.16320325000000935
                },
                {
                    "name": "G4",
                    "midi": 67,
                    "time": 158.63355899999908,
                    "velocity": 0.2677165354330709,
                    "duration": 0.16320325000000935
                },
                {
                    "name": "G3",
                    "midi": 55,
                    "time": 158.7967622499991,
                    "velocity": 0.2440944881889764,
                    "duration": 0.16320325000000935
                },
                {
                    "name": "B3",
                    "midi": 59,
                    "time": 158.9599654999991,
                    "velocity": 0.2440944881889764,
                    "duration": 0.16320325000000935
                },
                {
                    "name": "D4",
                    "midi": 62,
                    "time": 159.1231687499991,
                    "velocity": 0.2440944881889764,
                    "duration": 0.16320325000000935
                },
                {
                    "name": "G4",
                    "midi": 67,
                    "time": 159.28637199999912,
                    "velocity": 0.2755905511811024,
                    "duration": 0.16320325000000935
                },
                {
                    "name": "G3",
                    "midi": 55,
                    "time": 159.44957524999913,
                    "velocity": 0.23622047244094488,
                    "duration": 0.16320325000000935
                },
                {
                    "name": "B3",
                    "midi": 59,
                    "time": 159.61277849999914,
                    "velocity": 0.2440944881889764,
                    "duration": 0.16320325000000935
                },
                {
                    "name": "D4",
                    "midi": 62,
                    "time": 159.77598174999915,
                    "velocity": 0.25984251968503935,
                    "duration": 0.16320325000000935
                },
                {
                    "name": "G4",
                    "midi": 67,
                    "time": 159.93918499999916,
                    "velocity": 0.28346456692913385,
                    "duration": 0.16320325000000935
                },
                {
                    "name": "G3",
                    "midi": 55,
                    "time": 160.10238824999917,
                    "velocity": 0.25984251968503935,
                    "duration": 0.16320325000000935
                },
                {
                    "name": "B3",
                    "midi": 59,
                    "time": 160.26559149999918,
                    "velocity": 0.25984251968503935,
                    "duration": 0.16320325000000935
                },
                {
                    "name": "G4",
                    "midi": 67,
                    "time": 160.42879474999918,
                    "velocity": 0.25984251968503935,
                    "duration": 0.16320325000000935
                },
                {
                    "name": "G3",
                    "midi": 55,
                    "time": 160.7552012499992,
                    "velocity": 0.2204724409448819,
                    "duration": 0.16320325000000935
                },
                {
                    "name": "C4",
                    "midi": 60,
                    "time": 160.9184044999992,
                    "velocity": 0.2440944881889764,
                    "duration": 0.16320325000000935
                },
                {
                    "name": "G4",
                    "midi": 67,
                    "time": 161.08160774999922,
                    "velocity": 0.25984251968503935,
                    "duration": 0.16320325000000935
                },
                {
                    "name": "G3",
                    "midi": 55,
                    "time": 161.40801424999924,
                    "velocity": 0.2204724409448819,
                    "duration": 0.16320325000000935
                },
                {
                    "name": "E4",
                    "midi": 64,
                    "time": 161.57121749999925,
                    "velocity": 0.2440944881889764,
                    "duration": 0.16320325000000935
                },
                {
                    "name": "G4",
                    "midi": 67,
                    "time": 161.73442074999926,
                    "velocity": 0.25984251968503935,
                    "duration": 0.16320325000000935
                },
                {
                    "name": "G3",
                    "midi": 55,
                    "time": 162.06082724999928,
                    "velocity": 0.2204724409448819,
                    "duration": 0.16320325000000935
                },
                {
                    "name": "D4",
                    "midi": 62,
                    "time": 162.2240304999993,
                    "velocity": 0.23622047244094488,
                    "duration": 0.16320325000000935
                },
                {
                    "name": "G4",
                    "midi": 67,
                    "time": 162.3872337499993,
                    "velocity": 0.25196850393700787,
                    "duration": 0.16320325000000935
                },
                {
                    "name": "G3",
                    "midi": 55,
                    "time": 162.71364024999932,
                    "velocity": 0.2204724409448819,
                    "duration": 0.16320325000000935
                },
                {
                    "name": "B3",
                    "midi": 59,
                    "time": 162.87684349999932,
                    "velocity": 0.23622047244094488,
                    "duration": 0.16320325000000935
                },
                {
                    "name": "G4",
                    "midi": 67,
                    "time": 163.04004674999933,
                    "velocity": 0.25196850393700787,
                    "duration": 0.16320325000000935
                },
                {
                    "name": "G3",
                    "midi": 55,
                    "time": 163.36645324999935,
                    "velocity": 0.2204724409448819,
                    "duration": 0.16320325000000935
                },
                {
                    "name": "B3",
                    "midi": 59,
                    "time": 163.52965649999936,
                    "velocity": 0.23622047244094488,
                    "duration": 0.16320325000000935
                },
                {
                    "name": "D4",
                    "midi": 62,
                    "time": 163.69285974999937,
                    "velocity": 0.25196850393700787,
                    "duration": 0.16320325000000935
                },
                {
                    "name": "G4",
                    "midi": 67,
                    "time": 163.85606299999938,
                    "velocity": 0.2677165354330709,
                    "duration": 0.16320325000000935
                },
                {
                    "name": "G3",
                    "midi": 55,
                    "time": 164.0192662499994,
                    "velocity": 0.2440944881889764,
                    "duration": 0.16320325000000935
                },
                {
                    "name": "B3",
                    "midi": 59,
                    "time": 164.1824694999994,
                    "velocity": 0.2440944881889764,
                    "duration": 0.16320325000000935
                },
                {
                    "name": "D4",
                    "midi": 62,
                    "time": 164.3456727499994,
                    "velocity": 0.2440944881889764,
                    "duration": 0.16320325000000935
                },
                {
                    "name": "G4",
                    "midi": 67,
                    "time": 164.50887599999942,
                    "velocity": 0.2755905511811024,
                    "duration": 0.16320325000000935
                },
                {
                    "name": "G3",
                    "midi": 55,
                    "time": 164.67207924999943,
                    "velocity": 0.23622047244094488,
                    "duration": 0.16320325000000935
                },
                {
                    "name": "B3",
                    "midi": 59,
                    "time": 164.83528249999944,
                    "velocity": 0.2440944881889764,
                    "duration": 0.16320325000000935
                },
                {
                    "name": "D4",
                    "midi": 62,
                    "time": 164.99848574999945,
                    "velocity": 0.25984251968503935,
                    "duration": 0.16320325000000935
                },
                {
                    "name": "G4",
                    "midi": 67,
                    "time": 165.16168899999946,
                    "velocity": 0.28346456692913385,
                    "duration": 0.16320325000000935
                },
                {
                    "name": "G3",
                    "midi": 55,
                    "time": 165.32489224999946,
                    "velocity": 0.25984251968503935,
                    "duration": 0.16320325000000935
                },
                {
                    "name": "B3",
                    "midi": 59,
                    "time": 165.48809549999947,
                    "velocity": 0.25984251968503935,
                    "duration": 0.16320325000000935
                },
                {
                    "name": "G4",
                    "midi": 67,
                    "time": 165.65129874999948,
                    "velocity": 0.25984251968503935,
                    "duration": 0.16320325000000935
                },
                {
                    "name": "G3",
                    "midi": 55,
                    "time": 165.9777052499995,
                    "velocity": 0.2204724409448819,
                    "duration": 0.16320325000000935
                },
                {
                    "name": "C4",
                    "midi": 60,
                    "time": 166.1409084999995,
                    "velocity": 0.2440944881889764,
                    "duration": 0.16320325000000935
                },
                {
                    "name": "G4",
                    "midi": 67,
                    "time": 166.30411174999952,
                    "velocity": 0.25984251968503935,
                    "duration": 0.16320325000000935
                },
                {
                    "name": "G3",
                    "midi": 55,
                    "time": 166.63051824999954,
                    "velocity": 0.2204724409448819,
                    "duration": 0.16320325000000935
                },
                {
                    "name": "D#4",
                    "midi": 63,
                    "time": 166.79372149999955,
                    "velocity": 0.2440944881889764,
                    "duration": 0.16320325000000935
                },
                {
                    "name": "G4",
                    "midi": 67,
                    "time": 166.95692474999956,
                    "velocity": 0.25984251968503935,
                    "duration": 0.16320325000000935
                },
                {
                    "name": "G3",
                    "midi": 55,
                    "time": 167.28333124999958,
                    "velocity": 0.2204724409448819,
                    "duration": 0.16320325000000935
                },
                {
                    "name": "D4",
                    "midi": 62,
                    "time": 167.4465344999996,
                    "velocity": 0.23622047244094488,
                    "duration": 0.16320325000000935
                },
                {
                    "name": "G4",
                    "midi": 67,
                    "time": 167.6097377499996,
                    "velocity": 0.25196850393700787,
                    "duration": 0.16320325000000935
                },
                {
                    "name": "G3",
                    "midi": 55,
                    "time": 167.93614424999961,
                    "velocity": 0.2204724409448819,
                    "duration": 0.16320325000000935
                },
                {
                    "name": "B3",
                    "midi": 59,
                    "time": 168.09934749999962,
                    "velocity": 0.23622047244094488,
                    "duration": 0.16320325000000935
                },
                {
                    "name": "G4",
                    "midi": 67,
                    "time": 168.26255074999963,
                    "velocity": 0.25196850393700787,
                    "duration": 0.16320325000000935
                },
                {
                    "name": "G3",
                    "midi": 55,
                    "time": 168.58895724999965,
                    "velocity": 0.2204724409448819,
                    "duration": 0.16320325000000935
                },
                {
                    "name": "C4",
                    "midi": 60,
                    "time": 168.75216049999966,
                    "velocity": 0.2440944881889764,
                    "duration": 0.16320325000000935
                },
                {
                    "name": "G4",
                    "midi": 67,
                    "time": 168.91536374999967,
                    "velocity": 0.25984251968503935,
                    "duration": 0.16320325000000935
                },
                {
                    "name": "G3",
                    "midi": 55,
                    "time": 169.2417702499997,
                    "velocity": 0.2204724409448819,
                    "duration": 0.16320325000000935
                },
                {
                    "name": "E4",
                    "midi": 64,
                    "time": 169.4049734999997,
                    "velocity": 0.2440944881889764,
                    "duration": 0.16320325000000935
                },
                {
                    "name": "G4",
                    "midi": 67,
                    "time": 169.5681767499997,
                    "velocity": 0.25984251968503935,
                    "duration": 0.16320325000000935
                },
                {
                    "name": "G3",
                    "midi": 55,
                    "time": 169.89458324999973,
                    "velocity": 0.2204724409448819,
                    "duration": 0.16320325000000935
                },
                {
                    "name": "D4",
                    "midi": 62,
                    "time": 170.05778649999974,
                    "velocity": 0.23622047244094488,
                    "duration": 0.16320325000000935
                },
                {
                    "name": "G4",
                    "midi": 67,
                    "time": 170.22098974999975,
                    "velocity": 0.25196850393700787,
                    "duration": 0.16320325000000935
                },
                {
                    "name": "G3",
                    "midi": 55,
                    "time": 170.54739624999976,
                    "velocity": 0.2204724409448819,
                    "duration": 0.16320325000000935
                },
                {
                    "name": "B3",
                    "midi": 59,
                    "time": 170.71059949999977,
                    "velocity": 0.23622047244094488,
                    "duration": 0.16320325000000935
                },
                {
                    "name": "G4",
                    "midi": 67,
                    "time": 170.87380274999978,
                    "velocity": 0.25196850393700787,
                    "duration": 0.16320325000000935
                },
                {
                    "name": "G3",
                    "midi": 55,
                    "time": 171.2002092499998,
                    "velocity": 0.2204724409448819,
                    "duration": 0.16320325000000935
                },
                {
                    "name": "C4",
                    "midi": 60,
                    "time": 171.3634124999998,
                    "velocity": 0.2440944881889764,
                    "duration": 0.16320325000000935
                },
                {
                    "name": "G4",
                    "midi": 67,
                    "time": 171.52661574999982,
                    "velocity": 0.25984251968503935,
                    "duration": 0.16320325000000935
                },
                {
                    "name": "G3",
                    "midi": 55,
                    "time": 171.85302224999984,
                    "velocity": 0.2204724409448819,
                    "duration": 0.16320325000000935
                },
                {
                    "name": "C4",
                    "midi": 60,
                    "time": 172.01622549999985,
                    "velocity": 0.2440944881889764,
                    "duration": 0.16320325000000935
                },
                {
                    "name": "D#4",
                    "midi": 63,
                    "time": 172.17942874999986,
                    "velocity": 0.25984251968503935,
                    "duration": 0.16320325000000935
                },
                {
                    "name": "G3",
                    "midi": 55,
                    "time": 172.50583524999988,
                    "velocity": 0.2204724409448819,
                    "duration": 0.16320325000000935
                },
                {
                    "name": "B3",
                    "midi": 59,
                    "time": 172.66903849999989,
                    "velocity": 0.23622047244094488,
                    "duration": 0.16320325000000935
                },
                {
                    "name": "D4",
                    "midi": 62,
                    "time": 172.8322417499999,
                    "velocity": 0.25196850393700787,
                    "duration": 0.16320325000000935
                },
                {
                    "name": "G3",
                    "midi": 55,
                    "time": 173.1586482499999,
                    "velocity": 0.2204724409448819,
                    "duration": 0.16320325000000935
                },
                {
                    "name": "C4",
                    "midi": 60,
                    "time": 173.32185149999992,
                    "velocity": 0.23622047244094488,
                    "duration": 0.16320325000000935
                },
                {
                    "name": "D#4",
                    "midi": 63,
                    "time": 173.48505474999993,
                    "velocity": 0.25196850393700787,
                    "duration": 0.16320325000000935
                },
                {
                    "name": "G3",
                    "midi": 55,
                    "time": 173.81146124999995,
                    "velocity": 0.2204724409448819,
                    "duration": 0.16320325000000935
                },
                {
                    "name": "B3",
                    "midi": 59,
                    "time": 173.97466449999996,
                    "velocity": 0.23622047244094488,
                    "duration": 0.16320325000000935
                },
                {
                    "name": "D4",
                    "midi": 62,
                    "time": 174.13786774999997,
                    "velocity": 0.25196850393700787,
                    "duration": 0.16320325000000935
                },
                {
                    "name": "G3",
                    "midi": 55,
                    "time": 174.46427425,
                    "velocity": 0.2204724409448819,
                    "duration": 0.16320325000000935
                },
                {
                    "name": "C4",
                    "midi": 60,
                    "time": 174.6274775,
                    "velocity": 0.23622047244094488,
                    "duration": 0.16320325000000935
                },
                {
                    "name": "D#4",
                    "midi": 63,
                    "time": 174.79068075,
                    "velocity": 0.25196850393700787,
                    "duration": 0.16320325000000935
                },
                {
                    "name": "G3",
                    "midi": 55,
                    "time": 175.11708725000003,
                    "velocity": 0.2204724409448819,
                    "duration": 0.16320325000000935
                },
                {
                    "name": "B3",
                    "midi": 59,
                    "time": 175.28029050000004,
                    "velocity": 0.23622047244094488,
                    "duration": 0.16320325000000935
                },
                {
                    "name": "D4",
                    "midi": 62,
                    "time": 175.44349375000004,
                    "velocity": 0.25196850393700787,
                    "duration": 0.16320325000000935
                },
                {
                    "name": "G3",
                    "midi": 55,
                    "time": 175.76990025000006,
                    "velocity": 0.2204724409448819,
                    "duration": 0.16320325000000935
                },
                {
                    "name": "A3",
                    "midi": 57,
                    "time": 175.93310350000007,
                    "velocity": 0.23622047244094488,
                    "duration": 0.16320325000000935
                },
                {
                    "name": "C4",
                    "midi": 60,
                    "time": 176.09630675000008,
                    "velocity": 0.25196850393700787,
                    "duration": 0.16320325000000935
                },
                {
                    "name": "G3",
                    "midi": 55,
                    "time": 176.4227132500001,
                    "velocity": 0.28346456692913385,
                    "duration": 0.16320325000000935
                },
                {
                    "name": "B3",
                    "midi": 59,
                    "time": 176.5859165000001,
                    "velocity": 0.2992125984251969,
                    "duration": 0.16320325000000935
                },
                {
                    "name": "D4",
                    "midi": 62,
                    "time": 176.74911975000012,
                    "velocity": 0.2755905511811024,
                    "duration": 0.16320325000000935
                },
                {
                    "name": "G4",
                    "midi": 67,
                    "time": 176.91232300000013,
                    "velocity": 0.33858267716535434,
                    "duration": 0.16320325000000935
                },
                {
                    "name": "B4",
                    "midi": 71,
                    "time": 177.07552625000014,
                    "velocity": 0.30708661417322836,
                    "duration": 0.16320325000000935
                },
                {
                    "name": "A4",
                    "midi": 69,
                    "time": 177.23872950000015,
                    "velocity": 0.3228346456692913,
                    "duration": 0.16320325000000935
                },
                {
                    "name": "F#4",
                    "midi": 66,
                    "time": 177.40193275000016,
                    "velocity": 0.2992125984251969,
                    "duration": 0.16320325000000935
                },
                {
                    "name": "G4",
                    "midi": 67,
                    "time": 177.56513600000017,
                    "velocity": 0.33858267716535434,
                    "duration": 0.16320325000000935
                },
                {
                    "name": "B3",
                    "midi": 59,
                    "time": 177.72833925000018,
                    "velocity": 0.2992125984251969,
                    "duration": 0.16320325000000935
                },
                {
                    "name": "D4",
                    "midi": 62,
                    "time": 177.89154250000018,
                    "velocity": 0.3228346456692913,
                    "duration": 0.16320325000000935
                },
                {
                    "name": "G4",
                    "midi": 67,
                    "time": 178.0547457500002,
                    "velocity": 0.2992125984251969,
                    "duration": 0.16320325000000935
                },
                {
                    "name": "B4",
                    "midi": 71,
                    "time": 178.2179490000002,
                    "velocity": 0.36220472440944884,
                    "duration": 0.16320325000000935
                },
                {
                    "name": "D5",
                    "midi": 74,
                    "time": 178.3811522500002,
                    "velocity": 0.3228346456692913,
                    "duration": 0.16320325000000935
                },
                {
                    "name": "C5",
                    "midi": 72,
                    "time": 178.54435550000022,
                    "velocity": 0.3228346456692913,
                    "duration": 0.16320325000000935
                },
                {
                    "name": "A4",
                    "midi": 69,
                    "time": 178.70755875000023,
                    "velocity": 0.29133858267716534,
                    "duration": 0.16320325000000935
                },
                {
                    "name": "B4",
                    "midi": 71,
                    "time": 178.87076200000024,
                    "velocity": 0.3700787401574803,
                    "duration": 0.16320325000000935
                },
                {
                    "name": "G4",
                    "midi": 67,
                    "time": 179.03396525000025,
                    "velocity": 0.33070866141732286,
                    "duration": 0.16320325000000935
                },
                {
                    "name": "B4",
                    "midi": 71,
                    "time": 179.19716850000026,
                    "velocity": 0.3700787401574803,
                    "duration": 0.16320325000000935
                },
                {
                    "name": "D5",
                    "midi": 74,
                    "time": 179.36037175000027,
                    "velocity": 0.33858267716535434,
                    "duration": 0.16320325000000935
                },
                {
                    "name": "G5",
                    "midi": 79,
                    "time": 179.52357500000028,
                    "velocity": 0.4015748031496063,
                    "duration": 0.16320325000000935
                },
                {
                    "name": "B5",
                    "midi": 83,
                    "time": 179.6867782500003,
                    "velocity": 0.36220472440944884,
                    "duration": 0.16320325000000935
                },
                {
                    "name": "A5",
                    "midi": 81,
                    "time": 179.8499815000003,
                    "velocity": 0.3779527559055118,
                    "duration": 0.16320325000000935
                },
                {
                    "name": "F#5",
                    "midi": 78,
                    "time": 180.0131847500003,
                    "velocity": 0.33858267716535434,
                    "duration": 0.16320325000000935
                },
                {
                    "name": "G5",
                    "midi": 79,
                    "time": 180.17638800000032,
                    "velocity": 0.4094488188976378,
                    "duration": 0.16320325000000935
                },
                {
                    "name": "B5",
                    "midi": 83,
                    "time": 180.33959125000032,
                    "velocity": 0.4094488188976378,
                    "duration": 0.16320325000000935
                },
                {
                    "name": "A5",
                    "midi": 81,
                    "time": 180.50279450000033,
                    "velocity": 0.41732283464566927,
                    "duration": 0.16320325000000935
                },
                {
                    "name": "C6",
                    "midi": 84,
                    "time": 180.66599775000034,
                    "velocity": 0.4251968503937008,
                    "duration": 0.16320325000000935
                },
                {
                    "name": "B5",
                    "midi": 83,
                    "time": 180.82920100000035,
                    "velocity": 0.4330708661417323,
                    "duration": 0.16320325000000935
                },
                {
                    "name": "D6",
                    "midi": 86,
                    "time": 180.99240425000036,
                    "velocity": 0.4409448818897638,
                    "duration": 0.16320325000000935
                },
                {
                    "name": "C#6",
                    "midi": 85,
                    "time": 181.15560750000037,
                    "velocity": 0.4409448818897638,
                    "duration": 0.16320325000000935
                },
                {
                    "name": "E6",
                    "midi": 88,
                    "time": 181.31881075000038,
                    "velocity": 0.44881889763779526,
                    "duration": 0.16320325000000935
                },
                {
                    "name": "D6",
                    "midi": 86,
                    "time": 181.4820140000004,
                    "velocity": 0.4566929133858268,
                    "duration": 0.16320325000000935
                },
                {
                    "name": "F6",
                    "midi": 89,
                    "time": 181.6452172500004,
                    "velocity": 0.4645669291338583,
                    "duration": 0.16320325000000935
                },
                {
                    "name": "E6",
                    "midi": 88,
                    "time": 181.8084205000004,
                    "velocity": 0.47244094488188976,
                    "duration": 0.16320325000000935
                },
                {
                    "name": "G6",
                    "midi": 91,
                    "time": 181.97162375000042,
                    "velocity": 0.4409448818897638,
                    "duration": 0.16320325000000935
                },
                {
                    "name": "F6",
                    "midi": 89,
                    "time": 182.13482700000043,
                    "velocity": 0.48031496062992124,
                    "duration": 0.16320325000000935
                },
                {
                    "name": "A6",
                    "midi": 93,
                    "time": 182.29803025000044,
                    "velocity": 0.4881889763779528,
                    "duration": 0.16320325000000935
                },
                {
                    "name": "F6",
                    "midi": 89,
                    "time": 182.46123350000045,
                    "velocity": 0.49606299212598426,
                    "duration": 0.16320325000000935
                },
                {
                    "name": "E6",
                    "midi": 88,
                    "time": 182.62443675000046,
                    "velocity": 0.4645669291338583,
                    "duration": 0.16320325000000935
                },
                {
                    "name": "D6",
                    "midi": 86,
                    "time": 182.78764000000047,
                    "velocity": 0.5118110236220472,
                    "duration": 0.16320325000000935
                },
                {
                    "name": "F6",
                    "midi": 89,
                    "time": 182.95084325000047,
                    "velocity": 0.5196850393700787,
                    "duration": 0.16320325000000935
                },
                {
                    "name": "E6",
                    "midi": 88,
                    "time": 183.11404650000048,
                    "velocity": 0.5196850393700787,
                    "duration": 0.16320325000000935
                },
                {
                    "name": "G6",
                    "midi": 91,
                    "time": 183.2772497500005,
                    "velocity": 0.5039370078740157,
                    "duration": 0.16320325000000935
                },
                {
                    "name": "F6",
                    "midi": 89,
                    "time": 183.4404530000005,
                    "velocity": 0.5354330708661418,
                    "duration": 0.16320325000000935
                },
                {
                    "name": "A6",
                    "midi": 93,
                    "time": 183.6036562500005,
                    "velocity": 0.5433070866141733,
                    "duration": 0.16320325000000935
                },
                {
                    "name": "F6",
                    "midi": 89,
                    "time": 183.76685950000052,
                    "velocity": 0.5511811023622047,
                    "duration": 0.16320325000000935
                },
                {
                    "name": "E6",
                    "midi": 88,
                    "time": 183.93006275000053,
                    "velocity": 0.5196850393700787,
                    "duration": 0.16320325000000935
                },
                {
                    "name": "D6",
                    "midi": 86,
                    "time": 184.09326600000054,
                    "velocity": 0.5433070866141733,
                    "duration": 0.16320325000000935
                },
                {
                    "name": "F6",
                    "midi": 89,
                    "time": 184.25646925000055,
                    "velocity": 0.5118110236220472,
                    "duration": 0.16320325000000935
                },
                {
                    "name": "E6",
                    "midi": 88,
                    "time": 184.41967250000056,
                    "velocity": 0.5275590551181102,
                    "duration": 0.16320325000000935
                },
                {
                    "name": "C6",
                    "midi": 84,
                    "time": 184.58287575000057,
                    "velocity": 0.47244094488188976,
                    "duration": 0.16320325000000935
                },
                {
                    "name": "B5",
                    "midi": 83,
                    "time": 184.74607900000058,
                    "velocity": 0.5039370078740157,
                    "duration": 0.16320325000000935
                },
                {
                    "name": "D6",
                    "midi": 86,
                    "time": 184.9092822500006,
                    "velocity": 0.4645669291338583,
                    "duration": 0.16320325000000935
                },
                {
                    "name": "C6",
                    "midi": 84,
                    "time": 185.0724855000006,
                    "velocity": 0.4881889763779528,
                    "duration": 0.16320325000000935
                },
                {
                    "name": "A5",
                    "midi": 81,
                    "time": 185.2356887500006,
                    "velocity": 0.4330708661417323,
                    "duration": 0.16320325000000935
                },
                {
                    "name": "G5",
                    "midi": 79,
                    "time": 185.39889200000061,
                    "velocity": 0.4645669291338583,
                    "duration": 0.16320325000000935
                },
                {
                    "name": "B5",
                    "midi": 83,
                    "time": 185.56209525000062,
                    "velocity": 0.4251968503937008,
                    "duration": 0.16320325000000935
                },
                {
                    "name": "A5",
                    "midi": 81,
                    "time": 185.72529850000063,
                    "velocity": 0.4409448818897638,
                    "duration": 0.16320325000000935
                },
                {
                    "name": "F5",
                    "midi": 77,
                    "time": 185.88850175000064,
                    "velocity": 0.4015748031496063,
                    "duration": 0.16320325000000935
                },
                {
                    "name": "E5",
                    "midi": 76,
                    "time": 186.05170500000065,
                    "velocity": 0.4251968503937008,
                    "duration": 0.16320325000000935
                },
                {
                    "name": "G5",
                    "midi": 79,
                    "time": 186.21490825000066,
                    "velocity": 0.36220472440944884,
                    "duration": 0.16320325000000935
                },
                {
                    "name": "F5",
                    "midi": 77,
                    "time": 186.37811150000067,
                    "velocity": 0.3858267716535433,
                    "duration": 0.16320325000000935
                },
                {
                    "name": "D5",
                    "midi": 74,
                    "time": 186.54131475000068,
                    "velocity": 0.33070866141732286,
                    "duration": 0.16320325000000935
                },
                {
                    "name": "C5",
                    "midi": 72,
                    "time": 186.7045180000007,
                    "velocity": 0.3858267716535433,
                    "duration": 0.16320325000000935
                },
                {
                    "name": "G6",
                    "midi": 91,
                    "time": 187.3573310000007,
                    "velocity": 0.3937007874015748,
                    "duration": 0.3264064999999903
                },
                {
                    "name": "G5",
                    "midi": 79,
                    "time": 187.3573310000007,
                    "velocity": 0.3937007874015748,
                    "duration": 0.3264064999999903
                },
                {
                    "name": "G6",
                    "midi": 91,
                    "time": 188.01014400000068,
                    "velocity": 0.4251968503937008,
                    "duration": 0.9792194999999992
                },
                {
                    "name": "G5",
                    "midi": 79,
                    "time": 188.01014400000068,
                    "velocity": 0.4251968503937008,
                    "duration": 0.9792194999999992
                },
                {
                    "name": "E6",
                    "midi": 88,
                    "time": 188.98936350000068,
                    "velocity": 0.3700787401574803,
                    "duration": 0.3264064999999903
                },
                {
                    "name": "E5",
                    "midi": 76,
                    "time": 188.98936350000068,
                    "velocity": 0.3700787401574803,
                    "duration": 0.3264064999999903
                },
                {
                    "name": "D6",
                    "midi": 86,
                    "time": 189.31577000000067,
                    "velocity": 0.3937007874015748,
                    "duration": 0.652813000000009
                },
                {
                    "name": "D5",
                    "midi": 74,
                    "time": 189.31577000000067,
                    "velocity": 0.3937007874015748,
                    "duration": 0.652813000000009
                },
                {
                    "name": "G5",
                    "midi": 79,
                    "time": 189.96858300000068,
                    "velocity": 0.3228346456692913,
                    "duration": 0.652813000000009
                },
                {
                    "name": "G4",
                    "midi": 67,
                    "time": 189.96858300000068,
                    "velocity": 0.3228346456692913,
                    "duration": 0.652813000000009
                },
                {
                    "name": "C6",
                    "midi": 84,
                    "time": 190.6213960000007,
                    "velocity": 0.3937007874015748,
                    "duration": 0.652813000000009
                },
                {
                    "name": "C5",
                    "midi": 72,
                    "time": 190.6213960000007,
                    "velocity": 0.3937007874015748,
                    "duration": 0.652813000000009
                },
                {
                    "name": "E6",
                    "midi": 88,
                    "time": 191.2742090000007,
                    "velocity": 0.3700787401574803,
                    "duration": 0.3264064999999903
                },
                {
                    "name": "E5",
                    "midi": 76,
                    "time": 191.2742090000007,
                    "velocity": 0.3700787401574803,
                    "duration": 0.3264064999999903
                },
                {
                    "name": "G6",
                    "midi": 91,
                    "time": 192.57983500000068,
                    "velocity": 0.3937007874015748,
                    "duration": 0.3264064999999903
                },
                {
                    "name": "G5",
                    "midi": 79,
                    "time": 192.57983500000068,
                    "velocity": 0.3937007874015748,
                    "duration": 0.3264064999999903
                },
                {
                    "name": "G6",
                    "midi": 91,
                    "time": 193.23264800000067,
                    "velocity": 0.4251968503937008,
                    "duration": 0.9792194999999992
                },
                {
                    "name": "G5",
                    "midi": 79,
                    "time": 193.23264800000067,
                    "velocity": 0.4251968503937008,
                    "duration": 0.9792194999999992
                },
                {
                    "name": "E6",
                    "midi": 88,
                    "time": 194.21186750000066,
                    "velocity": 0.3700787401574803,
                    "duration": 0.3264064999999903
                },
                {
                    "name": "E5",
                    "midi": 76,
                    "time": 194.21186750000066,
                    "velocity": 0.3700787401574803,
                    "duration": 0.3264064999999903
                },
                {
                    "name": "D6",
                    "midi": 86,
                    "time": 194.53827400000065,
                    "velocity": 0.3937007874015748,
                    "duration": 0.652813000000009
                },
                {
                    "name": "D5",
                    "midi": 74,
                    "time": 194.53827400000065,
                    "velocity": 0.3937007874015748,
                    "duration": 0.652813000000009
                },
                {
                    "name": "G5",
                    "midi": 79,
                    "time": 195.19108700000066,
                    "velocity": 0.3228346456692913,
                    "duration": 0.652813000000009
                },
                {
                    "name": "G4",
                    "midi": 67,
                    "time": 195.19108700000066,
                    "velocity": 0.3228346456692913,
                    "duration": 0.652813000000009
                },
                {
                    "name": "C6",
                    "midi": 84,
                    "time": 195.84390000000067,
                    "velocity": 0.3937007874015748,
                    "duration": 0.3264064999999903
                },
                {
                    "name": "C5",
                    "midi": 72,
                    "time": 195.84390000000067,
                    "velocity": 0.3937007874015748,
                    "duration": 0.3264064999999903
                },
                {
                    "name": "F6",
                    "midi": 89,
                    "time": 197.80233900000067,
                    "velocity": 0.3937007874015748,
                    "duration": 0.3264064999999903
                },
                {
                    "name": "F5",
                    "midi": 77,
                    "time": 197.80233900000067,
                    "velocity": 0.3937007874015748,
                    "duration": 0.3264064999999903
                },
                {
                    "name": "F6",
                    "midi": 89,
                    "time": 198.45515200000065,
                    "velocity": 0.4251968503937008,
                    "duration": 0.9792194999999992
                },
                {
                    "name": "F5",
                    "midi": 77,
                    "time": 198.45515200000065,
                    "velocity": 0.4251968503937008,
                    "duration": 0.9792194999999992
                },
                {
                    "name": "D6",
                    "midi": 86,
                    "time": 199.43437150000065,
                    "velocity": 0.3700787401574803,
                    "duration": 0.3264064999999903
                },
                {
                    "name": "D5",
                    "midi": 74,
                    "time": 199.43437150000065,
                    "velocity": 0.3700787401574803,
                    "duration": 0.3264064999999903
                },
                {
                    "name": "E6",
                    "midi": 88,
                    "time": 199.76077800000064,
                    "velocity": 0.3937007874015748,
                    "duration": 0.652813000000009
                },
                {
                    "name": "E5",
                    "midi": 76,
                    "time": 199.76077800000064,
                    "velocity": 0.3937007874015748,
                    "duration": 0.652813000000009
                },
                {
                    "name": "C6",
                    "midi": 84,
                    "time": 200.41359100000065,
                    "velocity": 0.3228346456692913,
                    "duration": 0.652813000000009
                },
                {
                    "name": "C5",
                    "midi": 72,
                    "time": 200.41359100000065,
                    "velocity": 0.3228346456692913,
                    "duration": 0.652813000000009
                },
                {
                    "name": "B5",
                    "midi": 83,
                    "time": 201.06640400000066,
                    "velocity": 0.3937007874015748,
                    "duration": 0.652813000000009
                },
                {
                    "name": "B4",
                    "midi": 71,
                    "time": 201.06640400000066,
                    "velocity": 0.3937007874015748,
                    "duration": 0.652813000000009
                },
                {
                    "name": "D6",
                    "midi": 86,
                    "time": 201.71921700000067,
                    "velocity": 0.3700787401574803,
                    "duration": 0.3264064999999903
                },
                {
                    "name": "D5",
                    "midi": 74,
                    "time": 201.71921700000067,
                    "velocity": 0.3700787401574803,
                    "duration": 0.3264064999999903
                },
                {
                    "name": "F6",
                    "midi": 89,
                    "time": 203.02484300000066,
                    "velocity": 0.3937007874015748,
                    "duration": 0.3264064999999903
                },
                {
                    "name": "F5",
                    "midi": 77,
                    "time": 203.02484300000066,
                    "velocity": 0.3937007874015748,
                    "duration": 0.3264064999999903
                },
                {
                    "name": "F6",
                    "midi": 89,
                    "time": 203.67765600000064,
                    "velocity": 0.4251968503937008,
                    "duration": 0.9792194999999992
                },
                {
                    "name": "F5",
                    "midi": 77,
                    "time": 203.67765600000064,
                    "velocity": 0.4251968503937008,
                    "duration": 0.9792194999999992
                },
                {
                    "name": "D6",
                    "midi": 86,
                    "time": 204.65687550000064,
                    "velocity": 0.3700787401574803,
                    "duration": 0.3264064999999903
                },
                {
                    "name": "D5",
                    "midi": 74,
                    "time": 204.65687550000064,
                    "velocity": 0.3700787401574803,
                    "duration": 0.3264064999999903
                },
                {
                    "name": "D#6",
                    "midi": 87,
                    "time": 204.98328200000063,
                    "velocity": 0.3937007874015748,
                    "duration": 0.652813000000009
                },
                {
                    "name": "D#5",
                    "midi": 75,
                    "time": 204.98328200000063,
                    "velocity": 0.3937007874015748,
                    "duration": 0.652813000000009
                },
                {
                    "name": "C6",
                    "midi": 84,
                    "time": 205.63609500000064,
                    "velocity": 0.3228346456692913,
                    "duration": 0.652813000000009
                },
                {
                    "name": "C5",
                    "midi": 72,
                    "time": 205.63609500000064,
                    "velocity": 0.3228346456692913,
                    "duration": 0.652813000000009
                },
                {
                    "name": "B5",
                    "midi": 83,
                    "time": 206.28890800000065,
                    "velocity": 0.3937007874015748,
                    "duration": 0.652813000000009
                },
                {
                    "name": "B4",
                    "midi": 71,
                    "time": 206.28890800000065,
                    "velocity": 0.3937007874015748,
                    "duration": 0.652813000000009
                },
                {
                    "name": "D6",
                    "midi": 86,
                    "time": 206.94172100000065,
                    "velocity": 0.3700787401574803,
                    "duration": 0.652813000000009
                },
                {
                    "name": "D5",
                    "midi": 74,
                    "time": 206.94172100000065,
                    "velocity": 0.3700787401574803,
                    "duration": 0.652813000000009
                },
                {
                    "name": "E6",
                    "midi": 88,
                    "time": 207.59453400000066,
                    "velocity": 0.3937007874015748,
                    "duration": 0.652813000000009
                },
                {
                    "name": "E5",
                    "midi": 76,
                    "time": 207.59453400000066,
                    "velocity": 0.3937007874015748,
                    "duration": 0.652813000000009
                },
                {
                    "name": "C6",
                    "midi": 84,
                    "time": 208.24734700000067,
                    "velocity": 0.33070866141732286,
                    "duration": 0.652813000000009
                },
                {
                    "name": "C5",
                    "midi": 72,
                    "time": 208.24734700000067,
                    "velocity": 0.33070866141732286,
                    "duration": 0.652813000000009
                },
                {
                    "name": "B5",
                    "midi": 83,
                    "time": 208.90016000000068,
                    "velocity": 0.41732283464566927,
                    "duration": 0.652813000000009
                },
                {
                    "name": "B4",
                    "midi": 71,
                    "time": 208.90016000000068,
                    "velocity": 0.41732283464566927,
                    "duration": 0.652813000000009
                },
                {
                    "name": "D6",
                    "midi": 86,
                    "time": 209.5529730000007,
                    "velocity": 0.4094488188976378,
                    "duration": 0.652813000000009
                },
                {
                    "name": "D5",
                    "midi": 74,
                    "time": 209.5529730000007,
                    "velocity": 0.4094488188976378,
                    "duration": 0.652813000000009
                },
                {
                    "name": "D#6",
                    "midi": 87,
                    "time": 210.2057860000007,
                    "velocity": 0.3937007874015748,
                    "duration": 0.652813000000009
                },
                {
                    "name": "D#5",
                    "midi": 75,
                    "time": 210.2057860000007,
                    "velocity": 0.3937007874015748,
                    "duration": 0.652813000000009
                },
                {
                    "name": "C6",
                    "midi": 84,
                    "time": 210.8585990000007,
                    "velocity": 0.3228346456692913,
                    "duration": 0.652813000000009
                },
                {
                    "name": "C5",
                    "midi": 72,
                    "time": 210.8585990000007,
                    "velocity": 0.3228346456692913,
                    "duration": 0.652813000000009
                },
                {
                    "name": "G5",
                    "midi": 79,
                    "time": 211.51141200000072,
                    "velocity": 0.3937007874015748,
                    "duration": 0.652813000000009
                },
                {
                    "name": "G5",
                    "midi": 79,
                    "time": 212.16422500000073,
                    "velocity": 0.3700787401574803,
                    "duration": 0.652813000000009
                },
                {
                    "name": "A5",
                    "midi": 81,
                    "time": 212.81703800000074,
                    "velocity": 0.29133858267716534,
                    "duration": 0.10880216666666342
                },
                {
                    "name": "G5",
                    "midi": 79,
                    "time": 212.9258401666674,
                    "velocity": 0.29133858267716534,
                    "duration": 0.10880216666666342
                },
                {
                    "name": "A5",
                    "midi": 81,
                    "time": 213.03464233333406,
                    "velocity": 0.29133858267716534,
                    "duration": 0.10880216666666342
                },
                {
                    "name": "G5",
                    "midi": 79,
                    "time": 213.14344450000073,
                    "velocity": 0.29133858267716534,
                    "duration": 0.10880216666666342
                },
                {
                    "name": "A5",
                    "midi": 81,
                    "time": 213.2522466666674,
                    "velocity": 0.2992125984251969,
                    "duration": 0.10880216666666342
                },
                {
                    "name": "G5",
                    "midi": 79,
                    "time": 213.36104883333405,
                    "velocity": 0.2992125984251969,
                    "duration": 0.10880216666666342
                },
                {
                    "name": "A5",
                    "midi": 81,
                    "time": 213.46985100000072,
                    "velocity": 0.30708661417322836,
                    "duration": 0.10880216666666342
                },
                {
                    "name": "G5",
                    "midi": 79,
                    "time": 213.57865316666738,
                    "velocity": 0.30708661417322836,
                    "duration": 0.10880216666666342
                },
                {
                    "name": "A5",
                    "midi": 81,
                    "time": 213.68745533333404,
                    "velocity": 0.30708661417322836,
                    "duration": 0.10880216666666342
                },
                {
                    "name": "G5",
                    "midi": 79,
                    "time": 213.7962575000007,
                    "velocity": 0.30708661417322836,
                    "duration": 0.10880216666666342
                },
                {
                    "name": "A5",
                    "midi": 81,
                    "time": 213.90505966666737,
                    "velocity": 0.31496062992125984,
                    "duration": 0.10880216666666342
                },
                {
                    "name": "G5",
                    "midi": 79,
                    "time": 214.01386183333403,
                    "velocity": 0.31496062992125984,
                    "duration": 0.10880216666666342
                },
                {
                    "name": "A5",
                    "midi": 81,
                    "time": 214.1226640000007,
                    "velocity": 0.3228346456692913,
                    "duration": 0.10880216666666342
                },
                {
                    "name": "G5",
                    "midi": 79,
                    "time": 214.23146616666736,
                    "velocity": 0.3228346456692913,
                    "duration": 0.10880216666666342
                },
                {
                    "name": "A5",
                    "midi": 81,
                    "time": 214.34026833333402,
                    "velocity": 0.3228346456692913,
                    "duration": 0.10880216666666342
                },
                {
                    "name": "G5",
                    "midi": 79,
                    "time": 214.4490705000007,
                    "velocity": 0.33858267716535434,
                    "duration": 0.10880216666666342
                },
                {
                    "name": "A5",
                    "midi": 81,
                    "time": 214.55787266666735,
                    "velocity": 0.33858267716535434,
                    "duration": 0.10880216666666342
                },
                {
                    "name": "G5",
                    "midi": 79,
                    "time": 214.666674833334,
                    "velocity": 0.33858267716535434,
                    "duration": 0.10880216666666342
                },
                {
                    "name": "A5",
                    "midi": 81,
                    "time": 214.77547700000068,
                    "velocity": 0.3464566929133858,
                    "duration": 0.10880216666666342
                },
                {
                    "name": "G5",
                    "midi": 79,
                    "time": 214.88427916666734,
                    "velocity": 0.3464566929133858,
                    "duration": 0.10880216666666342
                },
                {
                    "name": "A5",
                    "midi": 81,
                    "time": 214.993081333334,
                    "velocity": 0.3543307086614173,
                    "duration": 0.10880216666666342
                },
                {
                    "name": "G5",
                    "midi": 79,
                    "time": 215.10188350000067,
                    "velocity": 0.3543307086614173,
                    "duration": 0.10880216666666342
                },
                {
                    "name": "A5",
                    "midi": 81,
                    "time": 215.21068566666733,
                    "velocity": 0.3543307086614173,
                    "duration": 0.10880216666666342
                },
                {
                    "name": "G5",
                    "midi": 79,
                    "time": 215.319487833334,
                    "velocity": 0.3543307086614173,
                    "duration": 0.10880216666666342
                },
                {
                    "name": "A5",
                    "midi": 81,
                    "time": 215.42829000000066,
                    "velocity": 0.3700787401574803,
                    "duration": 0.10880216666666342
                },
                {
                    "name": "G5",
                    "midi": 79,
                    "time": 215.53709216666732,
                    "velocity": 0.3700787401574803,
                    "duration": 0.10880216666666342
                },
                {
                    "name": "A5",
                    "midi": 81,
                    "time": 215.64589433333398,
                    "velocity": 0.3700787401574803,
                    "duration": 0.10880216666666342
                },
                {
                    "name": "G5",
                    "midi": 79,
                    "time": 215.75469650000065,
                    "velocity": 0.3700787401574803,
                    "duration": 0.10880216666666342
                },
                {
                    "name": "A5",
                    "midi": 81,
                    "time": 215.8634986666673,
                    "velocity": 0.3700787401574803,
                    "duration": 0.10880216666666342
                },
                {
                    "name": "G5",
                    "midi": 79,
                    "time": 215.97230083333397,
                    "velocity": 0.3779527559055118,
                    "duration": 0.10880216666666342
                },
                {
                    "name": "A5",
                    "midi": 81,
                    "time": 216.08110300000064,
                    "velocity": 0.3779527559055118,
                    "duration": 0.10880216666666342
                },
                {
                    "name": "G5",
                    "midi": 79,
                    "time": 216.1899051666673,
                    "velocity": 0.3779527559055118,
                    "duration": 0.10880216666666342
                },
                {
                    "name": "A5",
                    "midi": 81,
                    "time": 216.29870733333397,
                    "velocity": 0.3858267716535433,
                    "duration": 0.10880216666666342
                },
                {
                    "name": "G5",
                    "midi": 79,
                    "time": 216.40750950000063,
                    "velocity": 0.3858267716535433,
                    "duration": 0.10880216666666342
                },
                {
                    "name": "A5",
                    "midi": 81,
                    "time": 216.5163116666673,
                    "velocity": 0.3937007874015748,
                    "duration": 0.10880216666666342
                },
                {
                    "name": "G5",
                    "midi": 79,
                    "time": 216.62511383333396,
                    "velocity": 0.4015748031496063,
                    "duration": 0.10880216666666342
                },
                {
                    "name": "A5",
                    "midi": 81,
                    "time": 216.73391600000062,
                    "velocity": 0.4015748031496063,
                    "duration": 0.10880216666666342
                },
                {
                    "name": "G5",
                    "midi": 79,
                    "time": 216.84271816666728,
                    "velocity": 0.4094488188976378,
                    "duration": 0.10880216666666342
                },
                {
                    "name": "A5",
                    "midi": 81,
                    "time": 216.95152033333395,
                    "velocity": 0.4094488188976378,
                    "duration": 0.10880216666666342
                },
                {
                    "name": "G5",
                    "midi": 79,
                    "time": 217.0603225000006,
                    "velocity": 0.4094488188976378,
                    "duration": 0.10880216666666342
                },
                {
                    "name": "A5",
                    "midi": 81,
                    "time": 217.16912466666727,
                    "velocity": 0.4251968503937008,
                    "duration": 0.10880216666666342
                },
                {
                    "name": "G5",
                    "midi": 79,
                    "time": 217.27792683333394,
                    "velocity": 0.4251968503937008,
                    "duration": 0.10880216666666342
                },
                {
                    "name": "A5",
                    "midi": 81,
                    "time": 217.3867290000006,
                    "velocity": 0.4251968503937008,
                    "duration": 0.10880216666666342
                },
                {
                    "name": "G5",
                    "midi": 79,
                    "time": 217.49553116666726,
                    "velocity": 0.4330708661417323,
                    "duration": 0.10880216666666342
                },
                {
                    "name": "A5",
                    "midi": 81,
                    "time": 217.60433333333393,
                    "velocity": 0.4330708661417323,
                    "duration": 0.10880216666666342
                },
                {
                    "name": "G5",
                    "midi": 79,
                    "time": 217.7131355000006,
                    "velocity": 0.4330708661417323,
                    "duration": 0.10880216666666342
                },
                {
                    "name": "A5",
                    "midi": 81,
                    "time": 217.82193766666725,
                    "velocity": 0.4409448818897638,
                    "duration": 0.10880216666666342
                },
                {
                    "name": "G5",
                    "midi": 79,
                    "time": 217.93073983333392,
                    "velocity": 0.4409448818897638,
                    "duration": 0.10880216666666342
                },
                {
                    "name": "G6",
                    "midi": 91,
                    "time": 218.6923550000006,
                    "velocity": 0.7007874015748031,
                    "duration": 0.3264064999999903
                },
                {
                    "name": "G6",
                    "midi": 91,
                    "time": 219.34516800000057,
                    "velocity": 0.7086614173228346,
                    "duration": 0.9792194999999992
                },
                {
                    "name": "E6",
                    "midi": 88,
                    "time": 220.32438750000057,
                    "velocity": 0.6692913385826772,
                    "duration": 0.3264064999999903
                },
                {
                    "name": "D6",
                    "midi": 86,
                    "time": 220.65079400000056,
                    "velocity": 0.7086614173228346,
                    "duration": 0.652813000000009
                },
                {
                    "name": "G5",
                    "midi": 79,
                    "time": 221.30360700000057,
                    "velocity": 0.6614173228346457,
                    "duration": 0.09520189583332694
                },
                {
                    "name": "C6",
                    "midi": 84,
                    "time": 221.95642000000055,
                    "velocity": 0.6850393700787402,
                    "duration": 0.652813000000009
                },
                {
                    "name": "E6",
                    "midi": 88,
                    "time": 222.60923300000056,
                    "velocity": 0.6614173228346457,
                    "duration": 0.3264064999999903
                },
                {
                    "name": "G6",
                    "midi": 91,
                    "time": 223.91485900000055,
                    "velocity": 0.7086614173228346,
                    "duration": 0.3264064999999903
                },
                {
                    "name": "G6",
                    "midi": 91,
                    "time": 224.56767200000053,
                    "velocity": 0.7244094488188977,
                    "duration": 0.9792194999999992
                },
                {
                    "name": "E6",
                    "midi": 88,
                    "time": 225.54689150000053,
                    "velocity": 0.6614173228346457,
                    "duration": 0.3264064999999903
                },
                {
                    "name": "D6",
                    "midi": 86,
                    "time": 225.87329800000052,
                    "velocity": 0.7086614173228346,
                    "duration": 0.652813000000009
                },
                {
                    "name": "G5",
                    "midi": 79,
                    "time": 226.52611100000053,
                    "velocity": 0.6456692913385826,
                    "duration": 0.09520189583332694
                },
                {
                    "name": "C6",
                    "midi": 84,
                    "time": 227.1789240000005,
                    "velocity": 0.6771653543307087,
                    "duration": 0.3264064999999903
                },
                {
                    "name": "G3",
                    "midi": 55,
                    "time": 227.6685337500005,
                    "velocity": 0.5275590551181102,
                    "duration": 0.16320325000000935
                },
                {
                    "name": "D#4",
                    "midi": 63,
                    "time": 227.99494025000052,
                    "velocity": 0.4881889763779528,
                    "duration": 0.16320325000000935
                },
                {
                    "name": "D4",
                    "midi": 62,
                    "time": 228.32134675000054,
                    "velocity": 0.4881889763779528,
                    "duration": 0.16320325000000935
                },
                {
                    "name": "C4",
                    "midi": 60,
                    "time": 228.64775325000056,
                    "velocity": 0.5118110236220472,
                    "duration": 0.16320325000000935
                },
                {
                    "name": "G3",
                    "midi": 55,
                    "time": 228.97415975000058,
                    "velocity": 0.48031496062992124,
                    "duration": 0.16320325000000935
                },
                {
                    "name": "A3",
                    "midi": 57,
                    "time": 229.3005662500006,
                    "velocity": 0.4881889763779528,
                    "duration": 0.16320325000000935
                },
                {
                    "name": "B3",
                    "midi": 59,
                    "time": 229.62697275000062,
                    "velocity": 0.4881889763779528,
                    "duration": 0.16320325000000935
                },
                {
                    "name": "C4",
                    "midi": 60,
                    "time": 229.95337925000064,
                    "velocity": 0.5118110236220472,
                    "duration": 0.16320325000000935
                },
                {
                    "name": "C4",
                    "midi": 60,
                    "time": 230.27978575000066,
                    "velocity": 0.48031496062992124,
                    "duration": 0.16320325000000935
                },
                {
                    "name": "G#4",
                    "midi": 68,
                    "time": 230.60619225000067,
                    "velocity": 0.5196850393700787,
                    "duration": 0.16320325000000935
                },
                {
                    "name": "G4",
                    "midi": 67,
                    "time": 230.9325987500007,
                    "velocity": 0.4881889763779528,
                    "duration": 0.16320325000000935
                },
                {
                    "name": "F4",
                    "midi": 65,
                    "time": 231.2590052500007,
                    "velocity": 0.5354330708661418,
                    "duration": 0.16320325000000935
                },
                {
                    "name": "C4",
                    "midi": 60,
                    "time": 231.58541175000073,
                    "velocity": 0.49606299212598426,
                    "duration": 0.16320325000000935
                },
                {
                    "name": "D4",
                    "midi": 62,
                    "time": 231.91181825000075,
                    "velocity": 0.49606299212598426,
                    "duration": 0.16320325000000935
                },
                {
                    "name": "E4",
                    "midi": 64,
                    "time": 232.23822475000077,
                    "velocity": 0.49606299212598426,
                    "duration": 0.16320325000000935
                },
                {
                    "name": "F4",
                    "midi": 65,
                    "time": 232.5646312500008,
                    "velocity": 0.5196850393700787,
                    "duration": 0.16320325000000935
                },
                {
                    "name": "F4",
                    "midi": 65,
                    "time": 232.8910377500008,
                    "velocity": 0.4881889763779528,
                    "duration": 0.16320325000000935
                },
                {
                    "name": "C#5",
                    "midi": 73,
                    "time": 233.21744425000082,
                    "velocity": 0.5354330708661418,
                    "duration": 0.16320325000000935
                },
                {
                    "name": "C5",
                    "midi": 72,
                    "time": 233.54385075000084,
                    "velocity": 0.5039370078740157,
                    "duration": 0.16320325000000935
                },
                {
                    "name": "A#4",
                    "midi": 70,
                    "time": 233.87025725000086,
                    "velocity": 0.5354330708661418,
                    "duration": 0.16320325000000935
                },
                {
                    "name": "G#4",
                    "midi": 68,
                    "time": 234.19666375000088,
                    "velocity": 0.4881889763779528,
                    "duration": 0.16320325000000935
                },
                {
                    "name": "G4",
                    "midi": 67,
                    "time": 234.5230702500009,
                    "velocity": 0.4881889763779528,
                    "duration": 0.16320325000000935
                },
                {
                    "name": "F4",
                    "midi": 65,
                    "time": 234.84947675000092,
                    "velocity": 0.4881889763779528,
                    "duration": 0.16320325000000935
                },
                {
                    "name": "D#4",
                    "midi": 63,
                    "time": 235.17588325000094,
                    "velocity": 0.5433070866141733,
                    "duration": 0.16320325000000935
                },
                {
                    "name": "D#4",
                    "midi": 63,
                    "time": 235.50228975000095,
                    "velocity": 0.49606299212598426,
                    "duration": 0.16320325000000935
                },
                {
                    "name": "D#3",
                    "midi": 51,
                    "time": 235.82869625000097,
                    "velocity": 0.31496062992125984,
                    "duration": 0.16320325000000935
                },
                {
                    "name": "G3",
                    "midi": 55,
                    "time": 235.82869625000097,
                    "velocity": 0.31496062992125984,
                    "duration": 0.16320325000000935
                },
                {
                    "name": "D#4",
                    "midi": 63,
                    "time": 235.82869625000097,
                    "velocity": 0.49606299212598426,
                    "duration": 0.16320325000000935
                },
                {
                    "name": "F3",
                    "midi": 53,
                    "time": 236.155102750001,
                    "velocity": 0.31496062992125984,
                    "duration": 0.16320325000000935
                },
                {
                    "name": "G#3",
                    "midi": 56,
                    "time": 236.155102750001,
                    "velocity": 0.3937007874015748,
                    "duration": 0.16320325000000935
                },
                {
                    "name": "D#4",
                    "midi": 63,
                    "time": 236.155102750001,
                    "velocity": 0.49606299212598426,
                    "duration": 0.16320325000000935
                },
                {
                    "name": "G3",
                    "midi": 55,
                    "time": 236.481509250001,
                    "velocity": 0.3464566929133858,
                    "duration": 0.16320325000000935
                },
                {
                    "name": "A#3",
                    "midi": 58,
                    "time": 236.481509250001,
                    "velocity": 0.4409448818897638,
                    "duration": 0.16320325000000935
                },
                {
                    "name": "D#4",
                    "midi": 63,
                    "time": 236.481509250001,
                    "velocity": 0.5590551181102362,
                    "duration": 0.16320325000000935
                },
                {
                    "name": "G#3",
                    "midi": 56,
                    "time": 236.80791575000103,
                    "velocity": 0.31496062992125984,
                    "duration": 0.16320325000000935
                },
                {
                    "name": "C4",
                    "midi": 60,
                    "time": 236.80791575000103,
                    "velocity": 0.4015748031496063,
                    "duration": 0.16320325000000935
                },
                {
                    "name": "D#4",
                    "midi": 63,
                    "time": 236.80791575000103,
                    "velocity": 0.5039370078740157,
                    "duration": 0.16320325000000935
                },
                {
                    "name": "A#3",
                    "midi": 58,
                    "time": 237.13432225000105,
                    "velocity": 0.31496062992125984,
                    "duration": 0.16320325000000935
                },
                {
                    "name": "C#4",
                    "midi": 61,
                    "time": 237.13432225000105,
                    "velocity": 0.4015748031496063,
                    "duration": 0.16320325000000935
                },
                {
                    "name": "D#4",
                    "midi": 63,
                    "time": 237.13432225000105,
                    "velocity": 0.5039370078740157,
                    "duration": 0.16320325000000935
                },
                {
                    "name": "G3",
                    "midi": 55,
                    "time": 237.46072875000107,
                    "velocity": 0.31496062992125984,
                    "duration": 0.16320325000000935
                },
                {
                    "name": "A#3",
                    "midi": 58,
                    "time": 237.46072875000107,
                    "velocity": 0.4015748031496063,
                    "duration": 0.16320325000000935
                },
                {
                    "name": "D#4",
                    "midi": 63,
                    "time": 237.46072875000107,
                    "velocity": 0.5039370078740157,
                    "duration": 0.16320325000000935
                },
                {
                    "name": "C4",
                    "midi": 60,
                    "time": 237.62393200000108,
                    "velocity": 0.6456692913385826,
                    "duration": 0.3264064999999903
                },
                {
                    "name": "G3",
                    "midi": 55,
                    "time": 237.95033850000107,
                    "velocity": 0.6220472440944882,
                    "duration": 0.16320325000000935
                },
                {
                    "name": "G4",
                    "midi": 67,
                    "time": 237.95033850000107,
                    "velocity": 0.6220472440944882,
                    "duration": 0.16320325000000935
                },
                {
                    "name": "D#4",
                    "midi": 63,
                    "time": 238.27674500000109,
                    "velocity": 0.4881889763779528,
                    "duration": 0.16320325000000935
                },
                {
                    "name": "D#5",
                    "midi": 75,
                    "time": 238.27674500000109,
                    "velocity": 0.5826771653543307,
                    "duration": 0.16320325000000935
                },
                {
                    "name": "D4",
                    "midi": 62,
                    "time": 238.6031515000011,
                    "velocity": 0.4881889763779528,
                    "duration": 0.16320325000000935
                },
                {
                    "name": "D5",
                    "midi": 74,
                    "time": 238.6031515000011,
                    "velocity": 0.5826771653543307,
                    "duration": 0.16320325000000935
                },
                {
                    "name": "C4",
                    "midi": 60,
                    "time": 238.92955800000112,
                    "velocity": 0.5118110236220472,
                    "duration": 0.16320325000000935
                },
                {
                    "name": "C5",
                    "midi": 72,
                    "time": 238.92955800000112,
                    "velocity": 0.6062992125984252,
                    "duration": 0.16320325000000935
                },
                {
                    "name": "G3",
                    "midi": 55,
                    "time": 239.25596450000114,
                    "velocity": 0.48031496062992124,
                    "duration": 0.16320325000000935
                },
                {
                    "name": "G4",
                    "midi": 67,
                    "time": 239.25596450000114,
                    "velocity": 0.5669291338582677,
                    "duration": 0.16320325000000935
                },
                {
                    "name": "A3",
                    "midi": 57,
                    "time": 239.58237100000116,
                    "velocity": 0.4881889763779528,
                    "duration": 0.16320325000000935
                },
                {
                    "name": "A4",
                    "midi": 69,
                    "time": 239.58237100000116,
                    "velocity": 0.5748031496062992,
                    "duration": 0.16320325000000935
                },
                {
                    "name": "B3",
                    "midi": 59,
                    "time": 239.90877750000118,
                    "velocity": 0.4881889763779528,
                    "duration": 0.16320325000000935
                },
                {
                    "name": "B4",
                    "midi": 71,
                    "time": 239.90877750000118,
                    "velocity": 0.5748031496062992,
                    "duration": 0.16320325000000935
                },
                {
                    "name": "C4",
                    "midi": 60,
                    "time": 240.2351840000012,
                    "velocity": 0.5118110236220472,
                    "duration": 0.16320325000000935
                },
                {
                    "name": "C5",
                    "midi": 72,
                    "time": 240.2351840000012,
                    "velocity": 0.6062992125984252,
                    "duration": 0.16320325000000935
                },
                {
                    "name": "C4",
                    "midi": 60,
                    "time": 240.56159050000122,
                    "velocity": 0.48031496062992124,
                    "duration": 0.16320325000000935
                },
                {
                    "name": "C5",
                    "midi": 72,
                    "time": 240.56159050000122,
                    "velocity": 0.5669291338582677,
                    "duration": 0.16320325000000935
                },
                {
                    "name": "G#4",
                    "midi": 68,
                    "time": 240.88799700000123,
                    "velocity": 0.5196850393700787,
                    "duration": 0.16320325000000935
                },
                {
                    "name": "G#5",
                    "midi": 80,
                    "time": 240.88799700000123,
                    "velocity": 0.6141732283464567,
                    "duration": 0.16320325000000935
                },
                {
                    "name": "G4",
                    "midi": 67,
                    "time": 241.21440350000125,
                    "velocity": 0.4881889763779528,
                    "duration": 0.16320325000000935
                },
                {
                    "name": "G5",
                    "midi": 79,
                    "time": 241.21440350000125,
                    "velocity": 0.5748031496062992,
                    "duration": 0.16320325000000935
                },
                {
                    "name": "F4",
                    "midi": 65,
                    "time": 241.54081000000127,
                    "velocity": 0.5354330708661418,
                    "duration": 0.16320325000000935
                },
                {
                    "name": "F5",
                    "midi": 77,
                    "time": 241.54081000000127,
                    "velocity": 0.6299212598425197,
                    "duration": 0.16320325000000935
                },
                {
                    "name": "C4",
                    "midi": 60,
                    "time": 241.8672165000013,
                    "velocity": 0.49606299212598426,
                    "duration": 0.16320325000000935
                },
                {
                    "name": "C5",
                    "midi": 72,
                    "time": 241.8672165000013,
                    "velocity": 0.5905511811023622,
                    "duration": 0.16320325000000935
                },
                {
                    "name": "D4",
                    "midi": 62,
                    "time": 242.1936230000013,
                    "velocity": 0.49606299212598426,
                    "duration": 0.16320325000000935
                },
                {
                    "name": "D5",
                    "midi": 74,
                    "time": 242.1936230000013,
                    "velocity": 0.5905511811023622,
                    "duration": 0.16320325000000935
                },
                {
                    "name": "E4",
                    "midi": 64,
                    "time": 242.52002950000133,
                    "velocity": 0.49606299212598426,
                    "duration": 0.16320325000000935
                },
                {
                    "name": "E5",
                    "midi": 76,
                    "time": 242.52002950000133,
                    "velocity": 0.5905511811023622,
                    "duration": 0.16320325000000935
                },
                {
                    "name": "F4",
                    "midi": 65,
                    "time": 242.84643600000135,
                    "velocity": 0.5196850393700787,
                    "duration": 0.16320325000000935
                },
                {
                    "name": "F5",
                    "midi": 77,
                    "time": 242.84643600000135,
                    "velocity": 0.6141732283464567,
                    "duration": 0.16320325000000935
                },
                {
                    "name": "F4",
                    "midi": 65,
                    "time": 243.17284250000137,
                    "velocity": 0.4881889763779528,
                    "duration": 0.16320325000000935
                },
                {
                    "name": "F5",
                    "midi": 77,
                    "time": 243.17284250000137,
                    "velocity": 0.5826771653543307,
                    "duration": 0.16320325000000935
                },
                {
                    "name": "C#5",
                    "midi": 73,
                    "time": 243.49924900000138,
                    "velocity": 0.5354330708661418,
                    "duration": 0.16320325000000935
                },
                {
                    "name": "C#6",
                    "midi": 85,
                    "time": 243.49924900000138,
                    "velocity": 0.6299212598425197,
                    "duration": 0.16320325000000935
                },
                {
                    "name": "C5",
                    "midi": 72,
                    "time": 243.8256555000014,
                    "velocity": 0.5039370078740157,
                    "duration": 0.16320325000000935
                },
                {
                    "name": "C6",
                    "midi": 84,
                    "time": 243.8256555000014,
                    "velocity": 0.5984251968503937,
                    "duration": 0.16320325000000935
                },
                {
                    "name": "A#4",
                    "midi": 70,
                    "time": 244.15206200000142,
                    "velocity": 0.5354330708661418,
                    "duration": 0.16320325000000935
                },
                {
                    "name": "A#5",
                    "midi": 82,
                    "time": 244.15206200000142,
                    "velocity": 0.6299212598425197,
                    "duration": 0.16320325000000935
                },
                {
                    "name": "G#4",
                    "midi": 68,
                    "time": 244.47846850000144,
                    "velocity": 0.4881889763779528,
                    "duration": 0.16320325000000935
                },
                {
                    "name": "G#5",
                    "midi": 80,
                    "time": 244.47846850000144,
                    "velocity": 0.5748031496062992,
                    "duration": 0.16320325000000935
                },
                {
                    "name": "G4",
                    "midi": 67,
                    "time": 244.80487500000146,
                    "velocity": 0.4881889763779528,
                    "duration": 0.16320325000000935
                },
                {
                    "name": "G5",
                    "midi": 79,
                    "time": 244.80487500000146,
                    "velocity": 0.5826771653543307,
                    "duration": 0.16320325000000935
                },
                {
                    "name": "F4",
                    "midi": 65,
                    "time": 245.13128150000148,
                    "velocity": 0.4881889763779528,
                    "duration": 0.16320325000000935
                },
                {
                    "name": "F5",
                    "midi": 77,
                    "time": 245.13128150000148,
                    "velocity": 0.5826771653543307,
                    "duration": 0.16320325000000935
                },
                {
                    "name": "D#4",
                    "midi": 63,
                    "time": 245.4576880000015,
                    "velocity": 0.5433070866141733,
                    "duration": 0.16320325000000935
                },
                {
                    "name": "D#5",
                    "midi": 75,
                    "time": 245.4576880000015,
                    "velocity": 0.6456692913385826,
                    "duration": 0.16320325000000935
                },
                {
                    "name": "D#4",
                    "midi": 63,
                    "time": 245.78409450000152,
                    "velocity": 0.49606299212598426,
                    "duration": 0.16320325000000935
                },
                {
                    "name": "D#5",
                    "midi": 75,
                    "time": 245.78409450000152,
                    "velocity": 0.5905511811023622,
                    "duration": 0.16320325000000935
                },
                {
                    "name": "D#4",
                    "midi": 63,
                    "time": 246.11050100000153,
                    "velocity": 0.47244094488188976,
                    "duration": 0.16320325000000935
                },
                {
                    "name": "G4",
                    "midi": 67,
                    "time": 246.11050100000153,
                    "velocity": 0.47244094488188976,
                    "duration": 0.16320325000000935
                },
                {
                    "name": "D#5",
                    "midi": 75,
                    "time": 246.11050100000153,
                    "velocity": 0.5905511811023622,
                    "duration": 0.16320325000000935
                },
                {
                    "name": "F4",
                    "midi": 65,
                    "time": 246.43690750000155,
                    "velocity": 0.47244094488188976,
                    "duration": 0.16320325000000935
                },
                {
                    "name": "G#4",
                    "midi": 68,
                    "time": 246.43690750000155,
                    "velocity": 0.47244094488188976,
                    "duration": 0.16320325000000935
                },
                {
                    "name": "D#5",
                    "midi": 75,
                    "time": 246.43690750000155,
                    "velocity": 0.5905511811023622,
                    "duration": 0.16320325000000935
                },
                {
                    "name": "G4",
                    "midi": 67,
                    "time": 246.76331400000157,
                    "velocity": 0.5275590551181102,
                    "duration": 0.16320325000000935
                },
                {
                    "name": "A#4",
                    "midi": 70,
                    "time": 246.76331400000157,
                    "velocity": 0.5275590551181102,
                    "duration": 0.16320325000000935
                },
                {
                    "name": "D#5",
                    "midi": 75,
                    "time": 246.76331400000157,
                    "velocity": 0.6614173228346457,
                    "duration": 0.16320325000000935
                },
                {
                    "name": "G#4",
                    "midi": 68,
                    "time": 247.0897205000016,
                    "velocity": 0.47244094488188976,
                    "duration": 0.16320325000000935
                },
                {
                    "name": "C5",
                    "midi": 72,
                    "time": 247.0897205000016,
                    "velocity": 0.47244094488188976,
                    "duration": 0.16320325000000935
                },
                {
                    "name": "D#5",
                    "midi": 75,
                    "time": 247.0897205000016,
                    "velocity": 0.5984251968503937,
                    "duration": 0.16320325000000935
                },
                {
                    "name": "A#4",
                    "midi": 70,
                    "time": 247.4161270000016,
                    "velocity": 0.47244094488188976,
                    "duration": 0.16320325000000935
                },
                {
                    "name": "C#5",
                    "midi": 73,
                    "time": 247.4161270000016,
                    "velocity": 0.47244094488188976,
                    "duration": 0.16320325000000935
                },
                {
                    "name": "D#5",
                    "midi": 75,
                    "time": 247.4161270000016,
                    "velocity": 0.5984251968503937,
                    "duration": 0.16320325000000935
                },
                {
                    "name": "G4",
                    "midi": 67,
                    "time": 247.74253350000163,
                    "velocity": 0.47244094488188976,
                    "duration": 0.16320325000000935
                },
                {
                    "name": "A#4",
                    "midi": 70,
                    "time": 247.74253350000163,
                    "velocity": 0.47244094488188976,
                    "duration": 0.16320325000000935
                },
                {
                    "name": "D#5",
                    "midi": 75,
                    "time": 247.74253350000163,
                    "velocity": 0.5984251968503937,
                    "duration": 0.16320325000000935
                },
                {
                    "name": "G#4",
                    "midi": 68,
                    "time": 248.06894000000165,
                    "velocity": 0.5590551181102362,
                    "duration": 0.3264064999999903
                },
                {
                    "name": "C5",
                    "midi": 72,
                    "time": 248.06894000000165,
                    "velocity": 0.5984251968503937,
                    "duration": 0.3264064999999903
                },
                {
                    "name": "G4",
                    "midi": 67,
                    "time": 248.39534650000164,
                    "velocity": 0.4330708661417323,
                    "duration": 0.10880216666666342
                },
                {
                    "name": "F4",
                    "midi": 65,
                    "time": 248.5041486666683,
                    "velocity": 0.4409448818897638,
                    "duration": 0.10880216666666342
                },
                {
                    "name": "G4",
                    "midi": 67,
                    "time": 248.61295083333496,
                    "velocity": 0.44881889763779526,
                    "duration": 0.10880216666666342
                },
                {
                    "name": "G#4",
                    "midi": 68,
                    "time": 248.72175300000163,
                    "velocity": 0.4566929133858268,
                    "duration": 0.10880216666666342
                },
                {
                    "name": "C5",
                    "midi": 72,
                    "time": 248.8305551666683,
                    "velocity": 0.47244094488188976,
                    "duration": 0.10880216666666342
                },
                {
                    "name": "C#5",
                    "midi": 73,
                    "time": 248.93935733333495,
                    "velocity": 0.48031496062992124,
                    "duration": 0.10880216666666342
                },
                {
                    "name": "D#5",
                    "midi": 75,
                    "time": 249.04815950000162,
                    "velocity": 0.4881889763779528,
                    "duration": 0.10880216666666342
                },
                {
                    "name": "F5",
                    "midi": 77,
                    "time": 249.15696166666828,
                    "velocity": 0.49606299212598426,
                    "duration": 0.10880216666666342
                },
                {
                    "name": "G5",
                    "midi": 79,
                    "time": 249.26576383333494,
                    "velocity": 0.49606299212598426,
                    "duration": 0.10880216666666342
                },
                {
                    "name": "G#5",
                    "midi": 80,
                    "time": 249.3745660000016,
                    "velocity": 0.49606299212598426,
                    "duration": 0.10880216666666342
                },
                {
                    "name": "A#5",
                    "midi": 82,
                    "time": 249.48336816666827,
                    "velocity": 0.49606299212598426,
                    "duration": 0.10880216666666342
                },
                {
                    "name": "C6",
                    "midi": 84,
                    "time": 249.59217033333493,
                    "velocity": 0.5118110236220472,
                    "duration": 0.10880216666666342
                },
                {
                    "name": "C#6",
                    "midi": 85,
                    "time": 249.7009725000016,
                    "velocity": 0.5196850393700787,
                    "duration": 0.10880216666666342
                },
                {
                    "name": "C6",
                    "midi": 84,
                    "time": 249.80977466666826,
                    "velocity": 0.49606299212598426,
                    "duration": 0.10880216666666342
                },
                {
                    "name": "A#5",
                    "midi": 82,
                    "time": 249.91857683333492,
                    "velocity": 0.49606299212598426,
                    "duration": 0.10880216666666342
                },
                {
                    "name": "C#6",
                    "midi": 85,
                    "time": 250.0273790000016,
                    "velocity": 0.5196850393700787,
                    "duration": 0.10880216666666342
                },
                {
                    "name": "C6",
                    "midi": 84,
                    "time": 250.13618116666825,
                    "velocity": 0.49606299212598426,
                    "duration": 0.10880216666666342
                },
                {
                    "name": "A#5",
                    "midi": 82,
                    "time": 250.24498333333491,
                    "velocity": 0.49606299212598426,
                    "duration": 0.10880216666666342
                },
                {
                    "name": "C#6",
                    "midi": 85,
                    "time": 250.35378550000158,
                    "velocity": 0.5275590551181102,
                    "duration": 0.10880216666666342
                },
                {
                    "name": "C6",
                    "midi": 84,
                    "time": 250.46258766666824,
                    "velocity": 0.49606299212598426,
                    "duration": 0.10880216666666342
                },
                {
                    "name": "A#5",
                    "midi": 82,
                    "time": 250.5713898333349,
                    "velocity": 0.49606299212598426,
                    "duration": 0.10880216666666342
                },
                {
                    "name": "G#5",
                    "midi": 80,
                    "time": 250.68019200000157,
                    "velocity": 0.5984251968503937,
                    "duration": 0.3264064999999903
                },
                {
                    "name": "E4",
                    "midi": 64,
                    "time": 251.00659850000156,
                    "velocity": 0.4330708661417323,
                    "duration": 0.10880216666666342
                },
                {
                    "name": "D4",
                    "midi": 62,
                    "time": 251.11540066666822,
                    "velocity": 0.4409448818897638,
                    "duration": 0.10880216666666342
                },
                {
                    "name": "E4",
                    "midi": 64,
                    "time": 251.22420283333489,
                    "velocity": 0.44881889763779526,
                    "duration": 0.10880216666666342
                },
                {
                    "name": "F4",
                    "midi": 65,
                    "time": 251.33300500000155,
                    "velocity": 0.4566929133858268,
                    "duration": 0.10880216666666342
                },
                {
                    "name": "G#4",
                    "midi": 68,
                    "time": 251.4418071666682,
                    "velocity": 0.47244094488188976,
                    "duration": 0.10880216666666342
                },
                {
                    "name": "A#4",
                    "midi": 70,
                    "time": 251.55060933333488,
                    "velocity": 0.48031496062992124,
                    "duration": 0.10880216666666342
                },
                {
                    "name": "C5",
                    "midi": 72,
                    "time": 251.65941150000154,
                    "velocity": 0.4881889763779528,
                    "duration": 0.10880216666666342
                },
                {
                    "name": "D5",
                    "midi": 74,
                    "time": 251.7682136666682,
                    "velocity": 0.49606299212598426,
                    "duration": 0.10880216666666342
                },
                {
                    "name": "E5",
                    "midi": 76,
                    "time": 251.87701583333487,
                    "velocity": 0.49606299212598426,
                    "duration": 0.10880216666666342
                },
                {
                    "name": "F5",
                    "midi": 77,
                    "time": 251.98581800000153,
                    "velocity": 0.49606299212598426,
                    "duration": 0.10880216666666342
                },
                {
                    "name": "G5",
                    "midi": 79,
                    "time": 252.0946201666682,
                    "velocity": 0.49606299212598426,
                    "duration": 0.10880216666666342
                },
                {
                    "name": "G#5",
                    "midi": 80,
                    "time": 252.20342233333486,
                    "velocity": 0.5118110236220472,
                    "duration": 0.10880216666666342
                },
                {
                    "name": "A#5",
                    "midi": 82,
                    "time": 252.31222450000152,
                    "velocity": 0.5196850393700787,
                    "duration": 0.10880216666666342
                },
                {
                    "name": "G#5",
                    "midi": 80,
                    "time": 252.42102666666818,
                    "velocity": 0.49606299212598426,
                    "duration": 0.10880216666666342
                },
                {
                    "name": "G5",
                    "midi": 79,
                    "time": 252.52982883333485,
                    "velocity": 0.49606299212598426,
                    "duration": 0.10880216666666342
                },
                {
                    "name": "A#5",
                    "midi": 82,
                    "time": 252.6386310000015,
                    "velocity": 0.5196850393700787,
                    "duration": 0.10880216666666342
                },
                {
                    "name": "G#5",
                    "midi": 80,
                    "time": 252.74743316666817,
                    "velocity": 0.49606299212598426,
                    "duration": 0.10880216666666342
                },
                {
                    "name": "G5",
                    "midi": 79,
                    "time": 252.85623533333484,
                    "velocity": 0.49606299212598426,
                    "duration": 0.10880216666666342
                },
                {
                    "name": "A#5",
                    "midi": 82,
                    "time": 252.9650375000015,
                    "velocity": 0.5275590551181102,
                    "duration": 0.10880216666666342
                },
                {
                    "name": "G#5",
                    "midi": 80,
                    "time": 253.07383966666816,
                    "velocity": 0.49606299212598426,
                    "duration": 0.10880216666666342
                },
                {
                    "name": "G5",
                    "midi": 79,
                    "time": 253.18264183333483,
                    "velocity": 0.49606299212598426,
                    "duration": 0.10880216666666342
                },
                {
                    "name": "G#5",
                    "midi": 80,
                    "time": 253.2914440000015,
                    "velocity": 0.5511811023622047,
                    "duration": 0.10880216666666342
                },
                {
                    "name": "A#5",
                    "midi": 82,
                    "time": 253.40024616666815,
                    "velocity": 0.5354330708661418,
                    "duration": 0.10880216666666342
                },
                {
                    "name": "G#5",
                    "midi": 80,
                    "time": 253.50904833333482,
                    "velocity": 0.5354330708661418,
                    "duration": 0.10880216666666342
                },
                {
                    "name": "G5",
                    "midi": 79,
                    "time": 253.61785050000148,
                    "velocity": 0.5511811023622047,
                    "duration": 0.10880216666666342
                },
                {
                    "name": "G#5",
                    "midi": 80,
                    "time": 253.72665266666814,
                    "velocity": 0.5196850393700787,
                    "duration": 0.10880216666666342
                },
                {
                    "name": "G5",
                    "midi": 79,
                    "time": 253.8354548333348,
                    "velocity": 0.5196850393700787,
                    "duration": 0.10880216666666342
                },
                {
                    "name": "F5",
                    "midi": 77,
                    "time": 253.94425700000147,
                    "velocity": 0.5433070866141733,
                    "duration": 0.10880216666666342
                },
                {
                    "name": "G5",
                    "midi": 79,
                    "time": 254.05305916666813,
                    "velocity": 0.5196850393700787,
                    "duration": 0.10880216666666342
                },
                {
                    "name": "F5",
                    "midi": 77,
                    "time": 254.1618613333348,
                    "velocity": 0.5118110236220472,
                    "duration": 0.10880216666666342
                },
                {
                    "name": "D#5",
                    "midi": 75,
                    "time": 254.27066350000146,
                    "velocity": 0.5433070866141733,
                    "duration": 0.10880216666666342
                },
                {
                    "name": "F5",
                    "midi": 77,
                    "time": 254.37946566666812,
                    "velocity": 0.5039370078740157,
                    "duration": 0.10880216666666342
                },
                {
                    "name": "D#5",
                    "midi": 75,
                    "time": 254.4882678333348,
                    "velocity": 0.5039370078740157,
                    "duration": 0.10880216666666342
                },
                {
                    "name": "D5",
                    "midi": 74,
                    "time": 254.59707000000145,
                    "velocity": 0.5354330708661418,
                    "duration": 0.10880216666666342
                },
                {
                    "name": "D#5",
                    "midi": 75,
                    "time": 254.70587216666812,
                    "velocity": 0.5039370078740157,
                    "duration": 0.10880216666666342
                },
                {
                    "name": "D5",
                    "midi": 74,
                    "time": 254.81467433333478,
                    "velocity": 0.5039370078740157,
                    "duration": 0.10880216666666342
                },
                {
                    "name": "D#5",
                    "midi": 75,
                    "time": 254.92347650000144,
                    "velocity": 0.5354330708661418,
                    "duration": 0.10880216666666342
                },
                {
                    "name": "F5",
                    "midi": 77,
                    "time": 255.0322786666681,
                    "velocity": 0.5039370078740157,
                    "duration": 0.10880216666666342
                },
                {
                    "name": "D#5",
                    "midi": 75,
                    "time": 255.14108083333477,
                    "velocity": 0.5039370078740157,
                    "duration": 0.10880216666666342
                },
                {
                    "name": "F5",
                    "midi": 77,
                    "time": 255.24988300000143,
                    "velocity": 0.5511811023622047,
                    "duration": 0.10880216666666342
                },
                {
                    "name": "G5",
                    "midi": 79,
                    "time": 255.3586851666681,
                    "velocity": 0.5118110236220472,
                    "duration": 0.10880216666666342
                },
                {
                    "name": "F5",
                    "midi": 77,
                    "time": 255.46748733333476,
                    "velocity": 0.5196850393700787,
                    "duration": 0.10880216666666342
                },
                {
                    "name": "F#5",
                    "midi": 78,
                    "time": 255.57628950000142,
                    "velocity": 0.5511811023622047,
                    "duration": 0.10880216666666342
                },
                {
                    "name": "G5",
                    "midi": 79,
                    "time": 255.6850916666681,
                    "velocity": 0.5196850393700787,
                    "duration": 0.10880216666666342
                },
                {
                    "name": "F#5",
                    "midi": 78,
                    "time": 255.79389383333475,
                    "velocity": 0.5196850393700787,
                    "duration": 0.10880216666666342
                },
                {
                    "name": "G5",
                    "midi": 79,
                    "time": 255.9026960000014,
                    "velocity": 0.5669291338582677,
                    "duration": 0.10880216666669185
                },
                {
                    "name": "G#5",
                    "midi": 80,
                    "time": 256.0114981666681,
                    "velocity": 0.5275590551181102,
                    "duration": 0.10880216666669185
                },
                {
                    "name": "G5",
                    "midi": 79,
                    "time": 256.1203003333348,
                    "velocity": 0.5275590551181102,
                    "duration": 0.10880216666669185
                },
                {
                    "name": "F#5",
                    "midi": 78,
                    "time": 256.2291025000015,
                    "velocity": 0.5275590551181102,
                    "duration": 0.10880216666669185
                },
                {
                    "name": "G5",
                    "midi": 79,
                    "time": 256.3379046666682,
                    "velocity": 0.5275590551181102,
                    "duration": 0.10880216666669185
                },
                {
                    "name": "F#5",
                    "midi": 78,
                    "time": 256.4467068333349,
                    "velocity": 0.5275590551181102,
                    "duration": 0.10880216666669185
                },
                {
                    "name": "G5",
                    "midi": 79,
                    "time": 256.55550900000156,
                    "velocity": 0.5669291338582677,
                    "duration": 0.10880216666669185
                },
                {
                    "name": "G#5",
                    "midi": 80,
                    "time": 256.66431116666826,
                    "velocity": 0.5275590551181102,
                    "duration": 0.10880216666669185
                },
                {
                    "name": "G5",
                    "midi": 79,
                    "time": 256.77311333333495,
                    "velocity": 0.5275590551181102,
                    "duration": 0.10880216666669185
                },
                {
                    "name": "F#5",
                    "midi": 78,
                    "time": 256.88191550000164,
                    "velocity": 0.5275590551181102,
                    "duration": 0.10880216666669185
                },
                {
                    "name": "G5",
                    "midi": 79,
                    "time": 256.99071766666833,
                    "velocity": 0.5275590551181102,
                    "duration": 0.10880216666669185
                },
                {
                    "name": "F#5",
                    "midi": 78,
                    "time": 257.099519833335,
                    "velocity": 0.5275590551181102,
                    "duration": 0.10880216666669185
                },
                {
                    "name": "G5",
                    "midi": 79,
                    "time": 257.2083220000017,
                    "velocity": 0.5669291338582677,
                    "duration": 0.10880216666669185
                },
                {
                    "name": "G#5",
                    "midi": 80,
                    "time": 257.3171241666684,
                    "velocity": 0.5275590551181102,
                    "duration": 0.10880216666669185
                },
                {
                    "name": "G5",
                    "midi": 79,
                    "time": 257.4259263333351,
                    "velocity": 0.5275590551181102,
                    "duration": 0.10880216666669185
                },
                {
                    "name": "F5",
                    "midi": 77,
                    "time": 257.5347285000018,
                    "velocity": 0.5433070866141733,
                    "duration": 0.10880216666669185
                },
                {
                    "name": "G5",
                    "midi": 79,
                    "time": 257.6435306666685,
                    "velocity": 0.5118110236220472,
                    "duration": 0.10880216666669185
                },
                {
                    "name": "F5",
                    "midi": 77,
                    "time": 257.7523328333352,
                    "velocity": 0.5118110236220472,
                    "duration": 0.10880216666669185
                },
                {
                    "name": "D#5",
                    "midi": 75,
                    "time": 257.86113500000187,
                    "velocity": 0.5354330708661418,
                    "duration": 0.10880216666669185
                },
                {
                    "name": "F5",
                    "midi": 77,
                    "time": 257.96993716666856,
                    "velocity": 0.49606299212598426,
                    "duration": 0.10880216666669185
                },
                {
                    "name": "D#5",
                    "midi": 75,
                    "time": 258.07873933333525,
                    "velocity": 0.49606299212598426,
                    "duration": 0.10880216666669185
                },
                {
                    "name": "D5",
                    "midi": 74,
                    "time": 258.18754150000194,
                    "velocity": 0.5275590551181102,
                    "duration": 0.10880216666669185
                },
                {
                    "name": "D#5",
                    "midi": 75,
                    "time": 258.29634366666863,
                    "velocity": 0.4881889763779528,
                    "duration": 0.10880216666669185
                },
                {
                    "name": "D5",
                    "midi": 74,
                    "time": 258.4051458333353,
                    "velocity": 0.4881889763779528,
                    "duration": 0.10880216666669185
                },
                {
                    "name": "C5",
                    "midi": 72,
                    "time": 258.513948000002,
                    "velocity": 0.6456692913385826,
                    "duration": 0.3264065000000187
                },
                {
                    "name": "D#4",
                    "midi": 63,
                    "time": 258.84035450000204,
                    "velocity": 0.6220472440944882,
                    "duration": 0.16320324999998093
                },
                {
                    "name": "D#5",
                    "midi": 75,
                    "time": 258.84035450000204,
                    "velocity": 0.6220472440944882,
                    "duration": 0.16320324999998093
                },
                {
                    "name": "C5",
                    "midi": 72,
                    "time": 259.166761000002,
                    "velocity": 0.4881889763779528,
                    "duration": 0.16320324999998093
                },
                {
                    "name": "C6",
                    "midi": 84,
                    "time": 259.166761000002,
                    "velocity": 0.5826771653543307,
                    "duration": 0.16320324999998093
                },
                {
                    "name": "A#4",
                    "midi": 70,
                    "time": 259.49316750000196,
                    "velocity": 0.4881889763779528,
                    "duration": 0.16320324999998093
                },
                {
                    "name": "A#5",
                    "midi": 82,
                    "time": 259.49316750000196,
                    "velocity": 0.5826771653543307,
                    "duration": 0.16320324999998093
                },
                {
                    "name": "G#4",
                    "midi": 68,
                    "time": 259.8195740000019,
                    "velocity": 0.5118110236220472,
                    "duration": 0.16320324999998093
                },
                {
                    "name": "G#5",
                    "midi": 80,
                    "time": 259.8195740000019,
                    "velocity": 0.6062992125984252,
                    "duration": 0.16320324999998093
                },
                {
                    "name": "D#4",
                    "midi": 63,
                    "time": 260.1459805000019,
                    "velocity": 0.48031496062992124,
                    "duration": 0.16320324999998093
                },
                {
                    "name": "D#5",
                    "midi": 75,
                    "time": 260.1459805000019,
                    "velocity": 0.5669291338582677,
                    "duration": 0.16320324999998093
                },
                {
                    "name": "F4",
                    "midi": 65,
                    "time": 260.47238700000185,
                    "velocity": 0.4881889763779528,
                    "duration": 0.16320324999998093
                },
                {
                    "name": "F5",
                    "midi": 77,
                    "time": 260.47238700000185,
                    "velocity": 0.5748031496062992,
                    "duration": 0.16320324999998093
                },
                {
                    "name": "G4",
                    "midi": 67,
                    "time": 260.7987935000018,
                    "velocity": 0.4881889763779528,
                    "duration": 0.16320324999998093
                },
                {
                    "name": "G5",
                    "midi": 79,
                    "time": 260.7987935000018,
                    "velocity": 0.5748031496062992,
                    "duration": 0.16320324999998093
                },
                {
                    "name": "G#4",
                    "midi": 68,
                    "time": 261.12520000000177,
                    "velocity": 0.5118110236220472,
                    "duration": 0.16320324999998093
                },
                {
                    "name": "G#5",
                    "midi": 80,
                    "time": 261.12520000000177,
                    "velocity": 0.6062992125984252,
                    "duration": 0.16320324999998093
                },
                {
                    "name": "C4",
                    "midi": 60,
                    "time": 261.45160650000173,
                    "velocity": 0.48031496062992124,
                    "duration": 0.16320324999998093
                },
                {
                    "name": "C5",
                    "midi": 72,
                    "time": 261.45160650000173,
                    "velocity": 0.5669291338582677,
                    "duration": 0.16320324999998093
                },
                {
                    "name": "G#4",
                    "midi": 68,
                    "time": 261.7780130000017,
                    "velocity": 0.5196850393700787,
                    "duration": 0.16320324999998093
                },
                {
                    "name": "G#5",
                    "midi": 80,
                    "time": 261.7780130000017,
                    "velocity": 0.6141732283464567,
                    "duration": 0.16320324999998093
                },
                {
                    "name": "G4",
                    "midi": 67,
                    "time": 262.10441950000165,
                    "velocity": 0.4881889763779528,
                    "duration": 0.16320324999998093
                },
                {
                    "name": "G5",
                    "midi": 79,
                    "time": 262.10441950000165,
                    "velocity": 0.5748031496062992,
                    "duration": 0.16320324999998093
                },
                {
                    "name": "F4",
                    "midi": 65,
                    "time": 262.4308260000016,
                    "velocity": 0.5354330708661418,
                    "duration": 0.16320324999998093
                },
                {
                    "name": "F5",
                    "midi": 77,
                    "time": 262.4308260000016,
                    "velocity": 0.6299212598425197,
                    "duration": 0.16320324999998093
                },
                {
                    "name": "C4",
                    "midi": 60,
                    "time": 262.7572325000016,
                    "velocity": 0.49606299212598426,
                    "duration": 0.16320324999998093
                },
                {
                    "name": "C5",
                    "midi": 72,
                    "time": 262.7572325000016,
                    "velocity": 0.5905511811023622,
                    "duration": 0.16320324999998093
                },
                {
                    "name": "D4",
                    "midi": 62,
                    "time": 263.08363900000154,
                    "velocity": 0.49606299212598426,
                    "duration": 0.16320324999998093
                },
                {
                    "name": "D5",
                    "midi": 74,
                    "time": 263.08363900000154,
                    "velocity": 0.5905511811023622,
                    "duration": 0.16320324999998093
                },
                {
                    "name": "E4",
                    "midi": 64,
                    "time": 263.4100455000015,
                    "velocity": 0.49606299212598426,
                    "duration": 0.16320324999998093
                },
                {
                    "name": "E5",
                    "midi": 76,
                    "time": 263.4100455000015,
                    "velocity": 0.5905511811023622,
                    "duration": 0.16320324999998093
                },
                {
                    "name": "F4",
                    "midi": 65,
                    "time": 263.73645200000146,
                    "velocity": 0.5196850393700787,
                    "duration": 0.16320324999998093
                },
                {
                    "name": "F5",
                    "midi": 77,
                    "time": 263.73645200000146,
                    "velocity": 0.6141732283464567,
                    "duration": 0.16320324999998093
                },
                {
                    "name": "F5",
                    "midi": 77,
                    "time": 264.0628585000014,
                    "velocity": 0.4881889763779528,
                    "duration": 0.16320324999998093
                },
                {
                    "name": "F6",
                    "midi": 89,
                    "time": 264.0628585000014,
                    "velocity": 0.5826771653543307,
                    "duration": 0.16320324999998093
                },
                {
                    "name": "G#5",
                    "midi": 80,
                    "time": 264.3892650000014,
                    "velocity": 0.5354330708661418,
                    "duration": 0.16320324999998093
                },
                {
                    "name": "G#6",
                    "midi": 92,
                    "time": 264.3892650000014,
                    "velocity": 0.6299212598425197,
                    "duration": 0.16320324999998093
                },
                {
                    "name": "G5",
                    "midi": 79,
                    "time": 264.71567150000135,
                    "velocity": 0.5039370078740157,
                    "duration": 0.16320324999998093
                },
                {
                    "name": "G6",
                    "midi": 91,
                    "time": 264.71567150000135,
                    "velocity": 0.5984251968503937,
                    "duration": 0.16320324999998093
                },
                {
                    "name": "F5",
                    "midi": 77,
                    "time": 265.0420780000013,
                    "velocity": 0.5354330708661418,
                    "duration": 0.16320324999998093
                },
                {
                    "name": "F6",
                    "midi": 89,
                    "time": 265.0420780000013,
                    "velocity": 0.6299212598425197,
                    "duration": 0.16320324999998093
                },
                {
                    "name": "D#5",
                    "midi": 75,
                    "time": 265.3684845000013,
                    "velocity": 0.4881889763779528,
                    "duration": 0.16320324999998093
                },
                {
                    "name": "D#6",
                    "midi": 87,
                    "time": 265.3684845000013,
                    "velocity": 0.5748031496062992,
                    "duration": 0.16320324999998093
                },
                {
                    "name": "D5",
                    "midi": 74,
                    "time": 265.69489100000123,
                    "velocity": 0.4881889763779528,
                    "duration": 0.16320324999998093
                },
                {
                    "name": "D6",
                    "midi": 86,
                    "time": 265.69489100000123,
                    "velocity": 0.5826771653543307,
                    "duration": 0.16320324999998093
                },
                {
                    "name": "C5",
                    "midi": 72,
                    "time": 266.0212975000012,
                    "velocity": 0.4881889763779528,
                    "duration": 0.16320324999998093
                },
                {
                    "name": "C6",
                    "midi": 84,
                    "time": 266.0212975000012,
                    "velocity": 0.5826771653543307,
                    "duration": 0.16320324999998093
                },
                {
                    "name": "B4",
                    "midi": 71,
                    "time": 266.34770400000116,
                    "velocity": 0.5433070866141733,
                    "duration": 0.6528129999999805
                },
                {
                    "name": "B5",
                    "midi": 83,
                    "time": 266.34770400000116,
                    "velocity": 0.6456692913385826,
                    "duration": 0.6528129999999805
                },
                {
                    "name": "G4",
                    "midi": 67,
                    "time": 267.00051700000114,
                    "velocity": 0.5196850393700787,
                    "duration": 0.3236864458333457
                },
                {
                    "name": "G5",
                    "midi": 79,
                    "time": 267.00051700000114,
                    "velocity": 0.6141732283464567,
                    "duration": 0.3236864458333457
                },
                {
                    "name": "G4",
                    "midi": 67,
                    "time": 267.32692350000116,
                    "velocity": 0.4881889763779528,
                    "duration": 0.3236864458333457
                },
                {
                    "name": "G5",
                    "midi": 79,
                    "time": 267.32692350000116,
                    "velocity": 0.5748031496062992,
                    "duration": 0.3236864458333457
                },
                {
                    "name": "G4",
                    "midi": 67,
                    "time": 267.6533300000012,
                    "velocity": 0.5196850393700787,
                    "duration": 0.3236864458333457
                },
                {
                    "name": "G5",
                    "midi": 79,
                    "time": 267.6533300000012,
                    "velocity": 0.6141732283464567,
                    "duration": 0.3236864458333457
                },
                {
                    "name": "G4",
                    "midi": 67,
                    "time": 267.9797365000012,
                    "velocity": 0.48031496062992124,
                    "duration": 0.3236864458333457
                },
                {
                    "name": "G5",
                    "midi": 79,
                    "time": 267.9797365000012,
                    "velocity": 0.5669291338582677,
                    "duration": 0.3236864458333457
                },
                {
                    "name": "G4",
                    "midi": 67,
                    "time": 268.3061430000012,
                    "velocity": 0.5196850393700787,
                    "duration": 0.3236864458333457
                },
                {
                    "name": "G5",
                    "midi": 79,
                    "time": 268.3061430000012,
                    "velocity": 0.6141732283464567,
                    "duration": 0.3236864458333457
                },
                {
                    "name": "G4",
                    "midi": 67,
                    "time": 268.63254950000123,
                    "velocity": 0.4881889763779528,
                    "duration": 0.3236864458333457
                },
                {
                    "name": "G5",
                    "midi": 79,
                    "time": 268.63254950000123,
                    "velocity": 0.5748031496062992,
                    "duration": 0.3236864458333457
                },
                {
                    "name": "C5",
                    "midi": 72,
                    "time": 268.95895600000125,
                    "velocity": 0.5590551181102362,
                    "duration": 0.3264065000000187
                },
                {
                    "name": "C6",
                    "midi": 84,
                    "time": 268.95895600000125,
                    "velocity": 0.5984251968503937,
                    "duration": 0.3264065000000187
                },
                {
                    "name": "C5",
                    "midi": 72,
                    "time": 269.28536250000127,
                    "velocity": 0.4330708661417323,
                    "duration": 0.10880216666669185
                },
                {
                    "name": "D5",
                    "midi": 74,
                    "time": 269.39416466666796,
                    "velocity": 0.4409448818897638,
                    "duration": 0.10880216666669185
                },
                {
                    "name": "E5",
                    "midi": 76,
                    "time": 269.50296683333465,
                    "velocity": 0.44881889763779526,
                    "duration": 0.10880216666669185
                },
                {
                    "name": "F5",
                    "midi": 77,
                    "time": 269.61176900000135,
                    "velocity": 0.4566929133858268,
                    "duration": 0.10880216666669185
                },
                {
                    "name": "E5",
                    "midi": 76,
                    "time": 269.72057116666804,
                    "velocity": 0.47244094488188976,
                    "duration": 0.10880216666669185
                },
                {
                    "name": "F5",
                    "midi": 77,
                    "time": 269.82937333333473,
                    "velocity": 0.48031496062992124,
                    "duration": 0.10880216666669185
                },
                {
                    "name": "G5",
                    "midi": 79,
                    "time": 269.9381755000014,
                    "velocity": 0.4881889763779528,
                    "duration": 0.10880216666669185
                },
                {
                    "name": "F5",
                    "midi": 77,
                    "time": 270.0469776666681,
                    "velocity": 0.49606299212598426,
                    "duration": 0.10880216666669185
                },
                {
                    "name": "G5",
                    "midi": 79,
                    "time": 270.1557798333348,
                    "velocity": 0.49606299212598426,
                    "duration": 0.10880216666669185
                },
                {
                    "name": "G#5",
                    "midi": 80,
                    "time": 270.2645820000015,
                    "velocity": 0.5354330708661418,
                    "duration": 0.10880216666669185
                },
                {
                    "name": "A#5",
                    "midi": 82,
                    "time": 270.3733841666682,
                    "velocity": 0.5039370078740157,
                    "duration": 0.10880216666669185
                },
                {
                    "name": "G#5",
                    "midi": 80,
                    "time": 270.4821863333349,
                    "velocity": 0.5039370078740157,
                    "duration": 0.10880216666669185
                },
                {
                    "name": "G5",
                    "midi": 79,
                    "time": 270.5909885000016,
                    "velocity": 0.5354330708661418,
                    "duration": 0.10880216666669185
                },
                {
                    "name": "G#5",
                    "midi": 80,
                    "time": 270.69979066666826,
                    "velocity": 0.5039370078740157,
                    "duration": 0.10880216666669185
                },
                {
                    "name": "G5",
                    "midi": 79,
                    "time": 270.80859283333496,
                    "velocity": 0.5039370078740157,
                    "duration": 0.10880216666669185
                },
                {
                    "name": "F5",
                    "midi": 77,
                    "time": 270.91739500000165,
                    "velocity": 0.5511811023622047,
                    "duration": 0.10880216666669185
                },
                {
                    "name": "G5",
                    "midi": 79,
                    "time": 271.02619716666834,
                    "velocity": 0.5118110236220472,
                    "duration": 0.10880216666669185
                },
                {
                    "name": "F5",
                    "midi": 77,
                    "time": 271.13499933333503,
                    "velocity": 0.5196850393700787,
                    "duration": 0.10880216666669185
                },
                {
                    "name": "F#5",
                    "midi": 78,
                    "time": 271.2438015000017,
                    "velocity": 0.5511811023622047,
                    "duration": 0.10880216666669185
                },
                {
                    "name": "G5",
                    "midi": 79,
                    "time": 271.3526036666684,
                    "velocity": 0.5196850393700787,
                    "duration": 0.10880216666669185
                },
                {
                    "name": "F#5",
                    "midi": 78,
                    "time": 271.4614058333351,
                    "velocity": 0.5196850393700787,
                    "duration": 0.10880216666669185
                },
                {
                    "name": "G5",
                    "midi": 79,
                    "time": 271.5702080000018,
                    "velocity": 0.5669291338582677,
                    "duration": 0.10880216666669185
                },
                {
                    "name": "G#5",
                    "midi": 80,
                    "time": 271.6790101666685,
                    "velocity": 0.5275590551181102,
                    "duration": 0.10880216666669185
                },
                {
                    "name": "G5",
                    "midi": 79,
                    "time": 271.7878123333352,
                    "velocity": 0.5275590551181102,
                    "duration": 0.10880216666669185
                },
                {
                    "name": "F#5",
                    "midi": 78,
                    "time": 271.8966145000019,
                    "velocity": 0.5275590551181102,
                    "duration": 0.10880216666669185
                },
                {
                    "name": "G5",
                    "midi": 79,
                    "time": 272.00541666666857,
                    "velocity": 0.5275590551181102,
                    "duration": 0.10880216666669185
                },
                {
                    "name": "F#5",
                    "midi": 78,
                    "time": 272.11421883333526,
                    "velocity": 0.5275590551181102,
                    "duration": 0.10880216666669185
                },
                {
                    "name": "G5",
                    "midi": 79,
                    "time": 272.22302100000195,
                    "velocity": 0.5669291338582677,
                    "duration": 0.10880216666669185
                },
                {
                    "name": "G#5",
                    "midi": 80,
                    "time": 272.33182316666864,
                    "velocity": 0.5275590551181102,
                    "duration": 0.10880216666669185
                },
                {
                    "name": "G5",
                    "midi": 79,
                    "time": 272.44062533333533,
                    "velocity": 0.5275590551181102,
                    "duration": 0.10880216666669185
                },
                {
                    "name": "F#5",
                    "midi": 78,
                    "time": 272.549427500002,
                    "velocity": 0.5275590551181102,
                    "duration": 0.10880216666669185
                },
                {
                    "name": "G5",
                    "midi": 79,
                    "time": 272.6582296666687,
                    "velocity": 0.5275590551181102,
                    "duration": 0.10880216666669185
                },
                {
                    "name": "F#5",
                    "midi": 78,
                    "time": 272.7670318333354,
                    "velocity": 0.5275590551181102,
                    "duration": 0.10880216666669185
                },
                {
                    "name": "G5",
                    "midi": 79,
                    "time": 272.8758340000021,
                    "velocity": 0.5669291338582677,
                    "duration": 0.10880216666669185
                },
                {
                    "name": "G#5",
                    "midi": 80,
                    "time": 272.9846361666688,
                    "velocity": 0.5275590551181102,
                    "duration": 0.10880216666669185
                },
                {
                    "name": "G5",
                    "midi": 79,
                    "time": 273.0934383333355,
                    "velocity": 0.5275590551181102,
                    "duration": 0.10880216666669185
                },
                {
                    "name": "F5",
                    "midi": 77,
                    "time": 273.2022405000022,
                    "velocity": 0.5433070866141733,
                    "duration": 0.10880216666669185
                },
                {
                    "name": "G5",
                    "midi": 79,
                    "time": 273.31104266666887,
                    "velocity": 0.5118110236220472,
                    "duration": 0.10880216666669185
                },
                {
                    "name": "F5",
                    "midi": 77,
                    "time": 273.41984483333556,
                    "velocity": 0.5118110236220472,
                    "duration": 0.10880216666669185
                },
                {
                    "name": "D#5",
                    "midi": 75,
                    "time": 273.52864700000225,
                    "velocity": 0.5354330708661418,
                    "duration": 0.10880216666669185
                },
                {
                    "name": "F5",
                    "midi": 77,
                    "time": 273.63744916666894,
                    "velocity": 0.49606299212598426,
                    "duration": 0.10880216666669185
                },
                {
                    "name": "D#5",
                    "midi": 75,
                    "time": 273.74625133333564,
                    "velocity": 0.49606299212598426,
                    "duration": 0.10880216666669185
                },
                {
                    "name": "D5",
                    "midi": 74,
                    "time": 273.8550535000023,
                    "velocity": 0.5275590551181102,
                    "duration": 0.10880216666669185
                },
                {
                    "name": "D#5",
                    "midi": 75,
                    "time": 273.963855666669,
                    "velocity": 0.4881889763779528,
                    "duration": 0.10880216666669185
                },
                {
                    "name": "D5",
                    "midi": 74,
                    "time": 274.0726578333357,
                    "velocity": 0.4881889763779528,
                    "duration": 0.10880216666669185
                },
                {
                    "name": "C5",
                    "midi": 72,
                    "time": 274.1814600000024,
                    "velocity": 0.5669291338582677,
                    "duration": 0.10880216666669185
                },
                {
                    "name": "B4",
                    "midi": 71,
                    "time": 274.2902621666691,
                    "velocity": 0.5275590551181102,
                    "duration": 0.10880216666669185
                },
                {
                    "name": "C5",
                    "midi": 72,
                    "time": 274.3990643333358,
                    "velocity": 0.5275590551181102,
                    "duration": 0.10880216666669185
                },
                {
                    "name": "D5",
                    "midi": 74,
                    "time": 274.5078665000025,
                    "velocity": 0.5275590551181102,
                    "duration": 0.10880216666669185
                },
                {
                    "name": "C5",
                    "midi": 72,
                    "time": 274.61666866666917,
                    "velocity": 0.5275590551181102,
                    "duration": 0.10880216666669185
                },
                {
                    "name": "D5",
                    "midi": 74,
                    "time": 274.72547083333586,
                    "velocity": 0.5275590551181102,
                    "duration": 0.10880216666669185
                },
                {
                    "name": "D#5",
                    "midi": 75,
                    "time": 274.83427300000255,
                    "velocity": 0.5905511811023622,
                    "duration": 0.10880216666669185
                },
                {
                    "name": "D5",
                    "midi": 74,
                    "time": 274.94307516666925,
                    "velocity": 0.5511811023622047,
                    "duration": 0.10880216666669185
                },
                {
                    "name": "D#5",
                    "midi": 75,
                    "time": 275.05187733333594,
                    "velocity": 0.5511811023622047,
                    "duration": 0.10880216666669185
                },
                {
                    "name": "F5",
                    "midi": 77,
                    "time": 275.16067950000263,
                    "velocity": 0.5511811023622047,
                    "duration": 0.10880216666669185
                },
                {
                    "name": "D#5",
                    "midi": 75,
                    "time": 275.2694816666693,
                    "velocity": 0.5511811023622047,
                    "duration": 0.10880216666669185
                },
                {
                    "name": "F5",
                    "midi": 77,
                    "time": 275.378283833336,
                    "velocity": 0.5511811023622047,
                    "duration": 0.10880216666669185
                },
                {
                    "name": "G5",
                    "midi": 79,
                    "time": 275.4870860000027,
                    "velocity": 0.5905511811023622,
                    "duration": 0.10880216666669185
                },
                {
                    "name": "G#5",
                    "midi": 80,
                    "time": 275.5958881666694,
                    "velocity": 0.5511811023622047,
                    "duration": 0.10880216666669185
                },
                {
                    "name": "G5",
                    "midi": 79,
                    "time": 275.7046903333361,
                    "velocity": 0.5511811023622047,
                    "duration": 0.10880216666669185
                },
                {
                    "name": "F5",
                    "midi": 77,
                    "time": 275.8134925000028,
                    "velocity": 0.5669291338582677,
                    "duration": 0.10880216666669185
                },
                {
                    "name": "G5",
                    "midi": 79,
                    "time": 275.9222946666695,
                    "velocity": 0.5354330708661418,
                    "duration": 0.10880216666669185
                },
                {
                    "name": "F5",
                    "midi": 77,
                    "time": 276.03109683333616,
                    "velocity": 0.5354330708661418,
                    "duration": 0.10880216666669185
                },
                {
                    "name": "D#5",
                    "midi": 75,
                    "time": 276.13989900000286,
                    "velocity": 0.5590551181102362,
                    "duration": 0.10880216666669185
                },
                {
                    "name": "F5",
                    "midi": 77,
                    "time": 276.24870116666955,
                    "velocity": 0.5196850393700787,
                    "duration": 0.10880216666669185
                },
                {
                    "name": "D#5",
                    "midi": 75,
                    "time": 276.35750333333624,
                    "velocity": 0.5196850393700787,
                    "duration": 0.10880216666669185
                },
                {
                    "name": "D5",
                    "midi": 74,
                    "time": 276.46630550000293,
                    "velocity": 0.5511811023622047,
                    "duration": 0.10880216666669185
                },
                {
                    "name": "D#5",
                    "midi": 75,
                    "time": 276.5751076666696,
                    "velocity": 0.5118110236220472,
                    "duration": 0.10880216666669185
                },
                {
                    "name": "D5",
                    "midi": 74,
                    "time": 276.6839098333363,
                    "velocity": 0.5118110236220472,
                    "duration": 0.10880216666669185
                },
                {
                    "name": "C5",
                    "midi": 72,
                    "time": 276.792712000003,
                    "velocity": 0.5905511811023622,
                    "duration": 0.10880216666669185
                },
                {
                    "name": "B4",
                    "midi": 71,
                    "time": 276.9015141666697,
                    "velocity": 0.5511811023622047,
                    "duration": 0.10880216666669185
                },
                {
                    "name": "C5",
                    "midi": 72,
                    "time": 277.0103163333364,
                    "velocity": 0.5511811023622047,
                    "duration": 0.10880216666669185
                },
                {
                    "name": "D5",
                    "midi": 74,
                    "time": 277.1191185000031,
                    "velocity": 0.5511811023622047,
                    "duration": 0.10880216666669185
                },
                {
                    "name": "C5",
                    "midi": 72,
                    "time": 277.2279206666698,
                    "velocity": 0.5511811023622047,
                    "duration": 0.10880216666669185
                },
                {
                    "name": "D5",
                    "midi": 74,
                    "time": 277.33672283333647,
                    "velocity": 0.5511811023622047,
                    "duration": 0.10880216666669185
                },
                {
                    "name": "D#5",
                    "midi": 75,
                    "time": 277.44552500000316,
                    "velocity": 0.6220472440944882,
                    "duration": 0.10880216666669185
                },
                {
                    "name": "D5",
                    "midi": 74,
                    "time": 277.55432716666985,
                    "velocity": 0.5748031496062992,
                    "duration": 0.10880216666669185
                },
                {
                    "name": "D#5",
                    "midi": 75,
                    "time": 277.66312933333654,
                    "velocity": 0.5748031496062992,
                    "duration": 0.10880216666669185
                },
                {
                    "name": "F5",
                    "midi": 77,
                    "time": 277.77193150000323,
                    "velocity": 0.5748031496062992,
                    "duration": 0.10880216666669185
                },
                {
                    "name": "D#5",
                    "midi": 75,
                    "time": 277.8807336666699,
                    "velocity": 0.5748031496062992,
                    "duration": 0.10880216666669185
                },
                {
                    "name": "F5",
                    "midi": 77,
                    "time": 277.9895358333366,
                    "velocity": 0.5748031496062992,
                    "duration": 0.10880216666669185
                },
                {
                    "name": "G5",
                    "midi": 79,
                    "time": 278.0983380000033,
                    "velocity": 0.6220472440944882,
                    "duration": 0.10880216666669185
                },
                {
                    "name": "G#5",
                    "midi": 80,
                    "time": 278.20714016667,
                    "velocity": 0.5748031496062992,
                    "duration": 0.10880216666669185
                },
                {
                    "name": "G5",
                    "midi": 79,
                    "time": 278.3159423333367,
                    "velocity": 0.5748031496062992,
                    "duration": 0.10880216666669185
                },
                {
                    "name": "F5",
                    "midi": 77,
                    "time": 278.4247445000034,
                    "velocity": 0.5905511811023622,
                    "duration": 0.10880216666669185
                },
                {
                    "name": "G5",
                    "midi": 79,
                    "time": 278.5335466666701,
                    "velocity": 0.5590551181102362,
                    "duration": 0.10880216666669185
                },
                {
                    "name": "F5",
                    "midi": 77,
                    "time": 278.64234883333677,
                    "velocity": 0.5590551181102362,
                    "duration": 0.10880216666669185
                },
                {
                    "name": "D#5",
                    "midi": 75,
                    "time": 278.75115100000346,
                    "velocity": 0.5826771653543307,
                    "duration": 0.10880216666669185
                },
                {
                    "name": "F5",
                    "midi": 77,
                    "time": 278.85995316667015,
                    "velocity": 0.5433070866141733,
                    "duration": 0.10880216666669185
                },
                {
                    "name": "D#5",
                    "midi": 75,
                    "time": 278.96875533333684,
                    "velocity": 0.5433070866141733,
                    "duration": 0.10880216666669185
                },
                {
                    "name": "D5",
                    "midi": 74,
                    "time": 279.07755750000354,
                    "velocity": 0.5748031496062992,
                    "duration": 0.10880216666669185
                },
                {
                    "name": "D#5",
                    "midi": 75,
                    "time": 279.1863596666702,
                    "velocity": 0.5354330708661418,
                    "duration": 0.10880216666669185
                },
                {
                    "name": "D5",
                    "midi": 74,
                    "time": 279.2951618333369,
                    "velocity": 0.5354330708661418,
                    "duration": 0.10880216666669185
                },
                {
                    "name": "C5",
                    "midi": 72,
                    "time": 279.4039640000036,
                    "velocity": 0.6220472440944882,
                    "duration": 0.10880216666669185
                },
                {
                    "name": "B4",
                    "midi": 71,
                    "time": 279.5127661666703,
                    "velocity": 0.5433070866141733,
                    "duration": 0.10880216666669185
                },
                {
                    "name": "C5",
                    "midi": 72,
                    "time": 279.621568333337,
                    "velocity": 0.5590551181102362,
                    "duration": 0.10880216666669185
                },
                {
                    "name": "D5",
                    "midi": 74,
                    "time": 279.7303705000037,
                    "velocity": 0.5748031496062992,
                    "duration": 0.10880216666669185
                },
                {
                    "name": "D#5",
                    "midi": 75,
                    "time": 279.8391726666704,
                    "velocity": 0.5905511811023622,
                    "duration": 0.10880216666669185
                },
                {
                    "name": "F5",
                    "midi": 77,
                    "time": 279.94797483333707,
                    "velocity": 0.6141732283464567,
                    "duration": 0.10880216666669185
                },
                {
                    "name": "G5",
                    "midi": 79,
                    "time": 280.05677700000376,
                    "velocity": 0.6299212598425197,
                    "duration": 0.10880216666669185
                },
                {
                    "name": "G#5",
                    "midi": 80,
                    "time": 280.16557916667045,
                    "velocity": 0.6062992125984252,
                    "duration": 0.10880216666669185
                },
                {
                    "name": "G5",
                    "midi": 79,
                    "time": 280.27438133333715,
                    "velocity": 0.5905511811023622,
                    "duration": 0.10880216666669185
                },
                {
                    "name": "F5",
                    "midi": 77,
                    "time": 280.38318350000384,
                    "velocity": 0.5826771653543307,
                    "duration": 0.10880216666669185
                },
                {
                    "name": "D#5",
                    "midi": 75,
                    "time": 280.49198566667053,
                    "velocity": 0.5748031496062992,
                    "duration": 0.10880216666669185
                },
                {
                    "name": "D5",
                    "midi": 74,
                    "time": 280.6007878333372,
                    "velocity": 0.5748031496062992,
                    "duration": 0.10880216666669185
                },
                {
                    "name": "C5",
                    "midi": 72,
                    "time": 280.7095900000039,
                    "velocity": 0.6220472440944882,
                    "duration": 0.10880216666669185
                },
                {
                    "name": "B4",
                    "midi": 71,
                    "time": 280.8183921666706,
                    "velocity": 0.5433070866141733,
                    "duration": 0.10880216666669185
                },
                {
                    "name": "C5",
                    "midi": 72,
                    "time": 280.9271943333373,
                    "velocity": 0.5590551181102362,
                    "duration": 0.10880216666669185
                },
                {
                    "name": "D5",
                    "midi": 74,
                    "time": 281.035996500004,
                    "velocity": 0.5748031496062992,
                    "duration": 0.10880216666669185
                },
                {
                    "name": "D#5",
                    "midi": 75,
                    "time": 281.1447986666707,
                    "velocity": 0.5905511811023622,
                    "duration": 0.10880216666669185
                },
                {
                    "name": "F5",
                    "midi": 77,
                    "time": 281.2536008333374,
                    "velocity": 0.6141732283464567,
                    "duration": 0.10880216666669185
                },
                {
                    "name": "G5",
                    "midi": 79,
                    "time": 281.36240300000406,
                    "velocity": 0.6299212598425197,
                    "duration": 0.10880216666669185
                },
                {
                    "name": "G#5",
                    "midi": 80,
                    "time": 281.47120516667076,
                    "velocity": 0.6062992125984252,
                    "duration": 0.10880216666669185
                },
                {
                    "name": "G5",
                    "midi": 79,
                    "time": 281.58000733333745,
                    "velocity": 0.5905511811023622,
                    "duration": 0.10880216666669185
                },
                {
                    "name": "F5",
                    "midi": 77,
                    "time": 281.68880950000414,
                    "velocity": 0.5826771653543307,
                    "duration": 0.10880216666669185
                },
                {
                    "name": "D#5",
                    "midi": 75,
                    "time": 281.79761166667083,
                    "velocity": 0.5748031496062992,
                    "duration": 0.10880216666669185
                },
                {
                    "name": "D5",
                    "midi": 74,
                    "time": 281.9064138333375,
                    "velocity": 0.5748031496062992,
                    "duration": 0.10880216666669185
                },
                {
                    "name": "C4",
                    "midi": 60,
                    "time": 282.0152160000042,
                    "velocity": 0.6692913385826772,
                    "duration": 0.16320324999998093
                },
                {
                    "name": "C5",
                    "midi": 72,
                    "time": 282.0152160000042,
                    "velocity": 0.7952755905511811,
                    "duration": 0.16320324999998093
                },
                {
                    "name": "C4",
                    "midi": 60,
                    "time": 282.6680290000042,
                    "velocity": 0.6692913385826772,
                    "duration": 0.16320324999998093
                },
                {
                    "name": "C5",
                    "midi": 72,
                    "time": 282.6680290000042,
                    "velocity": 0.7952755905511811,
                    "duration": 0.16320324999998093
                },
                {
                    "name": "C4",
                    "midi": 60,
                    "time": 283.3208420000042,
                    "velocity": 0.6535433070866141,
                    "duration": 0.3264065000000187
                },
                {
                    "name": "C5",
                    "midi": 72,
                    "time": 283.3208420000042,
                    "velocity": 0.7795275590551181,
                    "duration": 0.3264065000000187
                },
                {
                    "name": "C4",
                    "midi": 60,
                    "time": 284.6264680000042,
                    "velocity": 0.4881889763779528,
                    "duration": 0.6528129999999805
                },
                {
                    "name": "C5",
                    "midi": 72,
                    "time": 284.6264680000042,
                    "velocity": 0.5748031496062992,
                    "duration": 0.6528129999999805
                },
                {
                    "name": "C4",
                    "midi": 60,
                    "time": 285.93209400000416,
                    "velocity": 0.3700787401574803,
                    "duration": 0.6528129999999805
                },
                {
                    "name": "C5",
                    "midi": 72,
                    "time": 285.93209400000416,
                    "velocity": 0.4409448818897638,
                    "duration": 0.6528129999999805
                },
                {
                    "name": "G#3",
                    "midi": 56,
                    "time": 287.2377200000041,
                    "velocity": 0.8503937007874016,
                    "duration": 0.3264065000000187
                },
                {
                    "name": "D#4",
                    "midi": 63,
                    "time": 287.89053300000415,
                    "velocity": 0.6377952755905512,
                    "duration": 0.3264065000000187
                },
                {
                    "name": "G#4",
                    "midi": 68,
                    "time": 287.89053300000415,
                    "velocity": 0.6377952755905512,
                    "duration": 0.3264065000000187
                },
                {
                    "name": "C5",
                    "midi": 72,
                    "time": 287.89053300000415,
                    "velocity": 0.6377952755905512,
                    "duration": 0.3264065000000187
                },
                {
                    "name": "D#5",
                    "midi": 75,
                    "time": 287.89053300000415,
                    "velocity": 0.7559055118110236,
                    "duration": 0.3264065000000187
                },
                {
                    "name": "D#5",
                    "midi": 75,
                    "time": 288.5433460000042,
                    "velocity": 0.6377952755905512,
                    "duration": 0.9792194999999992
                },
                {
                    "name": "G#5",
                    "midi": 80,
                    "time": 288.5433460000042,
                    "velocity": 0.6377952755905512,
                    "duration": 0.9792194999999992
                },
                {
                    "name": "C6",
                    "midi": 84,
                    "time": 288.5433460000042,
                    "velocity": 0.6377952755905512,
                    "duration": 0.9792194999999992
                },
                {
                    "name": "D#6",
                    "midi": 87,
                    "time": 288.5433460000042,
                    "velocity": 0.7637795275590551,
                    "duration": 0.9792194999999992
                },
                {
                    "name": "C6",
                    "midi": 84,
                    "time": 289.5225655000042,
                    "velocity": 0.5039370078740157,
                    "duration": 0.3264065000000187
                },
                {
                    "name": "D#5",
                    "midi": 75,
                    "time": 289.5225655000042,
                    "velocity": 0.4251968503937008,
                    "duration": 0.3264065000000187
                },
                {
                    "name": "C#5",
                    "midi": 73,
                    "time": 289.8489720000042,
                    "velocity": 0.44881889763779526,
                    "duration": 0.6528129999999805
                },
                {
                    "name": "A#5",
                    "midi": 82,
                    "time": 289.8489720000042,
                    "velocity": 0.5354330708661418,
                    "duration": 0.6528129999999805
                },
                {
                    "name": "C#5",
                    "midi": 73,
                    "time": 290.5017850000042,
                    "velocity": 0.3937007874015748,
                    "duration": 0.6528129999999805
                },
                {
                    "name": "D#5",
                    "midi": 75,
                    "time": 290.5017850000042,
                    "velocity": 0.47244094488188976,
                    "duration": 0.6528129999999805
                },
                {
                    "name": "C5",
                    "midi": 72,
                    "time": 291.15459800000417,
                    "velocity": 0.3937007874015748,
                    "duration": 0.6528129999999805
                },
                {
                    "name": "G#5",
                    "midi": 80,
                    "time": 291.15459800000417,
                    "velocity": 0.47244094488188976,
                    "duration": 0.6528129999999805
                },
                {
                    "name": "F3",
                    "midi": 53,
                    "time": 292.46022400000413,
                    "velocity": 0.8503937007874016,
                    "duration": 0.3264065000000187
                },
                {
                    "name": "C4",
                    "midi": 60,
                    "time": 293.11303700000417,
                    "velocity": 0.6377952755905512,
                    "duration": 0.3264065000000187
                },
                {
                    "name": "F4",
                    "midi": 65,
                    "time": 293.11303700000417,
                    "velocity": 0.6377952755905512,
                    "duration": 0.3264065000000187
                },
                {
                    "name": "G#4",
                    "midi": 68,
                    "time": 293.11303700000417,
                    "velocity": 0.6377952755905512,
                    "duration": 0.3264065000000187
                },
                {
                    "name": "C5",
                    "midi": 72,
                    "time": 293.11303700000417,
                    "velocity": 0.7559055118110236,
                    "duration": 0.3264065000000187
                },
                {
                    "name": "C5",
                    "midi": 72,
                    "time": 293.7658500000042,
                    "velocity": 0.6220472440944882,
                    "duration": 0.9792194999999992
                },
                {
                    "name": "F5",
                    "midi": 77,
                    "time": 293.7658500000042,
                    "velocity": 0.6220472440944882,
                    "duration": 0.9792194999999992
                },
                {
                    "name": "G#5",
                    "midi": 80,
                    "time": 293.7658500000042,
                    "velocity": 0.6220472440944882,
                    "duration": 0.9792194999999992
                },
                {
                    "name": "C6",
                    "midi": 84,
                    "time": 293.7658500000042,
                    "velocity": 0.7480314960629921,
                    "duration": 0.9792194999999992
                },
                {
                    "name": "G#5",
                    "midi": 80,
                    "time": 294.7450695000042,
                    "velocity": 0.5039370078740157,
                    "duration": 0.3264065000000187
                },
                {
                    "name": "C5",
                    "midi": 72,
                    "time": 294.7450695000042,
                    "velocity": 0.4251968503937008,
                    "duration": 0.3264065000000187
                },
                {
                    "name": "A#4",
                    "midi": 70,
                    "time": 295.0714760000042,
                    "velocity": 0.44881889763779526,
                    "duration": 0.6528129999999805
                },
                {
                    "name": "G5",
                    "midi": 79,
                    "time": 295.0714760000042,
                    "velocity": 0.5354330708661418,
                    "duration": 0.6528129999999805
                },
                {
                    "name": "A#4",
                    "midi": 70,
                    "time": 295.7242890000042,
                    "velocity": 0.3937007874015748,
                    "duration": 0.6528129999999805
                },
                {
                    "name": "C5",
                    "midi": 72,
                    "time": 295.7242890000042,
                    "velocity": 0.47244094488188976,
                    "duration": 0.6528129999999805
                },
                {
                    "name": "G#4",
                    "midi": 68,
                    "time": 296.3771020000042,
                    "velocity": 0.3937007874015748,
                    "duration": 0.6528129999999805
                },
                {
                    "name": "F5",
                    "midi": 77,
                    "time": 296.3771020000042,
                    "velocity": 0.47244094488188976,
                    "duration": 0.6528129999999805
                },
                {
                    "name": "C#4",
                    "midi": 61,
                    "time": 297.68272800000415,
                    "velocity": 0.8503937007874016,
                    "duration": 0.3264065000000187
                },
                {
                    "name": "G#4",
                    "midi": 68,
                    "time": 298.3355410000042,
                    "velocity": 0.6377952755905512,
                    "duration": 0.3264065000000187
                },
                {
                    "name": "C#5",
                    "midi": 73,
                    "time": 298.3355410000042,
                    "velocity": 0.6377952755905512,
                    "duration": 0.3264065000000187
                },
                {
                    "name": "F5",
                    "midi": 77,
                    "time": 298.3355410000042,
                    "velocity": 0.6377952755905512,
                    "duration": 0.3264065000000187
                },
                {
                    "name": "G#5",
                    "midi": 80,
                    "time": 298.3355410000042,
                    "velocity": 0.7559055118110236,
                    "duration": 0.3264065000000187
                },
                {
                    "name": "G#5",
                    "midi": 80,
                    "time": 298.9883540000042,
                    "velocity": 0.6377952755905512,
                    "duration": 0.9792194999999992
                },
                {
                    "name": "C#6",
                    "midi": 85,
                    "time": 298.9883540000042,
                    "velocity": 0.6377952755905512,
                    "duration": 0.9792194999999992
                },
                {
                    "name": "F6",
                    "midi": 89,
                    "time": 298.9883540000042,
                    "velocity": 0.6377952755905512,
                    "duration": 0.9792194999999992
                },
                {
                    "name": "G#6",
                    "midi": 92,
                    "time": 298.9883540000042,
                    "velocity": 0.7637795275590551,
                    "duration": 0.9792194999999992
                },
                {
                    "name": "F6",
                    "midi": 89,
                    "time": 299.9675735000042,
                    "velocity": 0.5039370078740157,
                    "duration": 0.3264065000000187
                },
                {
                    "name": "G#5",
                    "midi": 80,
                    "time": 299.9675735000042,
                    "velocity": 0.4251968503937008,
                    "duration": 0.3264065000000187
                },
                {
                    "name": "F#5",
                    "midi": 78,
                    "time": 300.29398000000424,
                    "velocity": 0.44881889763779526,
                    "duration": 0.6528129999999805
                },
                {
                    "name": "D#6",
                    "midi": 87,
                    "time": 300.29398000000424,
                    "velocity": 0.5354330708661418,
                    "duration": 0.6528129999999805
                },
                {
                    "name": "F#5",
                    "midi": 78,
                    "time": 300.9467930000042,
                    "velocity": 0.3937007874015748,
                    "duration": 0.6528129999999805
                },
                {
                    "name": "G#5",
                    "midi": 80,
                    "time": 300.9467930000042,
                    "velocity": 0.47244094488188976,
                    "duration": 0.6528129999999805
                },
                {
                    "name": "F5",
                    "midi": 77,
                    "time": 301.5996060000042,
                    "velocity": 0.3937007874015748,
                    "duration": 0.9792194999999992
                },
                {
                    "name": "C#6",
                    "midi": 85,
                    "time": 301.5996060000042,
                    "velocity": 0.47244094488188976,
                    "duration": 0.9792194999999992
                },
                {
                    "name": "F5",
                    "midi": 77,
                    "time": 302.5788255000042,
                    "velocity": 0.4015748031496063,
                    "duration": 0.3264065000000187
                },
                {
                    "name": "G#4",
                    "midi": 68,
                    "time": 302.5788255000042,
                    "velocity": 0.33858267716535434,
                    "duration": 0.3264065000000187
                },
                {
                    "name": "F#4",
                    "midi": 66,
                    "time": 302.9052320000042,
                    "velocity": 0.3543307086614173,
                    "duration": 0.6528129999999805
                },
                {
                    "name": "D#5",
                    "midi": 75,
                    "time": 302.9052320000042,
                    "velocity": 0.4251968503937008,
                    "duration": 0.6528129999999805
                },
                {
                    "name": "F#4",
                    "midi": 66,
                    "time": 303.5580450000042,
                    "velocity": 0.30708661417322836,
                    "duration": 0.6528129999999805
                },
                {
                    "name": "G#4",
                    "midi": 68,
                    "time": 303.5580450000042,
                    "velocity": 0.3700787401574803,
                    "duration": 0.6528129999999805
                },
                {
                    "name": "F4",
                    "midi": 65,
                    "time": 304.2108580000042,
                    "velocity": 0.30708661417322836,
                    "duration": 0.9792194999999992
                },
                {
                    "name": "C#5",
                    "midi": 73,
                    "time": 304.2108580000042,
                    "velocity": 0.3700787401574803,
                    "duration": 0.9792194999999992
                },
                {
                    "name": "F4",
                    "midi": 65,
                    "time": 305.1900775000042,
                    "velocity": 0.2992125984251969,
                    "duration": 0.3264065000000187
                },
                {
                    "name": "G#3",
                    "midi": 56,
                    "time": 305.1900775000042,
                    "velocity": 0.25196850393700787,
                    "duration": 0.3264065000000187
                },
                {
                    "name": "F#3",
                    "midi": 54,
                    "time": 305.5164840000042,
                    "velocity": 0.2677165354330709,
                    "duration": 0.6460128645833265
                },
                {
                    "name": "D#4",
                    "midi": 63,
                    "time": 305.5164840000042,
                    "velocity": 0.31496062992125984,
                    "duration": 0.6460128645833265
                },
                {
                    "name": "F#3",
                    "midi": 54,
                    "time": 306.1692970000042,
                    "velocity": 0.2283464566929134,
                    "duration": 0.6460128645833265
                },
                {
                    "name": "G#3",
                    "midi": 56,
                    "time": 306.1692970000042,
                    "velocity": 0.2755905511811024,
                    "duration": 0.6460128645833265
                },
                {
                    "name": "F3",
                    "midi": 53,
                    "time": 306.82211000000416,
                    "velocity": 0.2283464566929134,
                    "duration": 0.6460128645833265
                },
                {
                    "name": "C#4",
                    "midi": 61,
                    "time": 306.82211000000416,
                    "velocity": 0.2755905511811024,
                    "duration": 0.6460128645833265
                },
                {
                    "name": "G#3",
                    "midi": 56,
                    "time": 307.47492300000414,
                    "velocity": 0.2755905511811024,
                    "duration": 0.6460128645833265
                },
                {
                    "name": "F3",
                    "midi": 53,
                    "time": 307.47492300000414,
                    "velocity": 0.2283464566929134,
                    "duration": 0.6460128645833265
                },
                {
                    "name": "F#3",
                    "midi": 54,
                    "time": 308.1277360000041,
                    "velocity": 0.2677165354330709,
                    "duration": 0.6460128645833265
                },
                {
                    "name": "D#4",
                    "midi": 63,
                    "time": 308.1277360000041,
                    "velocity": 0.31496062992125984,
                    "duration": 0.6460128645833265
                },
                {
                    "name": "F#3",
                    "midi": 54,
                    "time": 308.7805490000041,
                    "velocity": 0.2283464566929134,
                    "duration": 0.6460128645833265
                },
                {
                    "name": "G#3",
                    "midi": 56,
                    "time": 308.7805490000041,
                    "velocity": 0.2755905511811024,
                    "duration": 0.6460128645833265
                },
                {
                    "name": "F#3",
                    "midi": 54,
                    "time": 309.4333620000041,
                    "velocity": 0.2677165354330709,
                    "duration": 0.6460128645833265
                },
                {
                    "name": "D#4",
                    "midi": 63,
                    "time": 309.4333620000041,
                    "velocity": 0.31496062992125984,
                    "duration": 0.6460128645833265
                },
                {
                    "name": "F#3",
                    "midi": 54,
                    "time": 310.08617500000406,
                    "velocity": 0.2283464566929134,
                    "duration": 0.6460128645833265
                },
                {
                    "name": "G#3",
                    "midi": 56,
                    "time": 310.08617500000406,
                    "velocity": 0.2755905511811024,
                    "duration": 0.6460128645833265
                },
                {
                    "name": "F3",
                    "midi": 53,
                    "time": 310.73898800000404,
                    "velocity": 0.23622047244094488,
                    "duration": 0.3264065000000187
                },
                {
                    "name": "C#4",
                    "midi": 61,
                    "time": 310.73898800000404,
                    "velocity": 0.28346456692913385,
                    "duration": 0.3264065000000187
                },
                {
                    "name": "G#3",
                    "midi": 56,
                    "time": 311.06539450000406,
                    "velocity": 0.2125984251968504,
                    "duration": 0.6460128645833265
                },
                {
                    "name": "C#4",
                    "midi": 61,
                    "time": 311.06539450000406,
                    "velocity": 0.25196850393700787,
                    "duration": 0.6460128645833265
                },
                {
                    "name": "F4",
                    "midi": 65,
                    "time": 311.06539450000406,
                    "velocity": 0.2992125984251969,
                    "duration": 0.6460128645833265
                },
                {
                    "name": "G#3",
                    "midi": 56,
                    "time": 311.71820750000404,
                    "velocity": 0.2125984251968504,
                    "duration": 0.6460128645833265
                },
                {
                    "name": "C#4",
                    "midi": 61,
                    "time": 311.71820750000404,
                    "velocity": 0.25196850393700787,
                    "duration": 0.6460128645833265
                },
                {
                    "name": "F4",
                    "midi": 65,
                    "time": 311.71820750000404,
                    "velocity": 0.2992125984251969,
                    "duration": 0.6460128645833265
                },
                {
                    "name": "G#3",
                    "midi": 56,
                    "time": 312.371020500004,
                    "velocity": 0.2125984251968504,
                    "duration": 0.6460128645833265
                },
                {
                    "name": "C#4",
                    "midi": 61,
                    "time": 312.371020500004,
                    "velocity": 0.25196850393700787,
                    "duration": 0.6460128645833265
                },
                {
                    "name": "F4",
                    "midi": 65,
                    "time": 312.371020500004,
                    "velocity": 0.2992125984251969,
                    "duration": 0.6460128645833265
                },
                {
                    "name": "F4",
                    "midi": 65,
                    "time": 313.023833500004,
                    "velocity": 0.4094488188976378,
                    "duration": 0.3236864458333457
                },
                {
                    "name": "G#3",
                    "midi": 56,
                    "time": 313.023833500004,
                    "velocity": 0.29133858267716534,
                    "duration": 0.6460128645833265
                },
                {
                    "name": "C#4",
                    "midi": 61,
                    "time": 313.023833500004,
                    "velocity": 0.3464566929133858,
                    "duration": 0.6460128645833265
                },
                {
                    "name": "D#4",
                    "midi": 63,
                    "time": 313.350240000004,
                    "velocity": 0.4094488188976378,
                    "duration": 0.32368644583328887
                },
                {
                    "name": "G#3",
                    "midi": 56,
                    "time": 313.676646500004,
                    "velocity": 0.23622047244094488,
                    "duration": 0.6460128645833265
                },
                {
                    "name": "C4",
                    "midi": 60,
                    "time": 313.676646500004,
                    "velocity": 0.28346456692913385,
                    "duration": 0.6460128645833265
                },
                {
                    "name": "D#4",
                    "midi": 63,
                    "time": 313.676646500004,
                    "velocity": 0.33858267716535434,
                    "duration": 0.6460128645833265
                },
                {
                    "name": "G#3",
                    "midi": 56,
                    "time": 314.32945950000396,
                    "velocity": 0.23622047244094488,
                    "duration": 0.6460128645833265
                },
                {
                    "name": "C4",
                    "midi": 60,
                    "time": 314.32945950000396,
                    "velocity": 0.28346456692913385,
                    "duration": 0.3236864458333457
                },
                {
                    "name": "D#4",
                    "midi": 63,
                    "time": 314.32945950000396,
                    "velocity": 0.33858267716535434,
                    "duration": 0.6460128645833265
                },
                {
                    "name": "B3",
                    "midi": 59,
                    "time": 314.655866000004,
                    "velocity": 0.23622047244094488,
                    "duration": 0.32368644583328887
                },
                {
                    "name": "G#3",
                    "midi": 56,
                    "time": 314.98227250000394,
                    "velocity": 0.23622047244094488,
                    "duration": 0.6460128645833265
                },
                {
                    "name": "B3",
                    "midi": 59,
                    "time": 314.98227250000394,
                    "velocity": 0.28346456692913385,
                    "duration": 0.6460128645833265
                },
                {
                    "name": "D#4",
                    "midi": 63,
                    "time": 314.98227250000394,
                    "velocity": 0.33858267716535434,
                    "duration": 0.6460128645833265
                },
                {
                    "name": "G#3",
                    "midi": 56,
                    "time": 315.6350855000039,
                    "velocity": 0.3228346456692913,
                    "duration": 0.3236864458333457
                },
                {
                    "name": "C4",
                    "midi": 60,
                    "time": 315.6350855000039,
                    "velocity": 0.3228346456692913,
                    "duration": 0.3236864458333457
                },
                {
                    "name": "D4",
                    "midi": 62,
                    "time": 315.6350855000039,
                    "velocity": 0.3858267716535433,
                    "duration": 0.3236864458333457
                },
                {
                    "name": "F4",
                    "midi": 65,
                    "time": 315.6350855000039,
                    "velocity": 0.4566929133858268,
                    "duration": 0.3236864458333457
                },
                {
                    "name": "F#3",
                    "midi": 54,
                    "time": 315.96149200000394,
                    "velocity": 0.1968503937007874,
                    "duration": 0.3236864458333457
                },
                {
                    "name": "A#3",
                    "midi": 58,
                    "time": 315.96149200000394,
                    "velocity": 0.23622047244094488,
                    "duration": 0.3236864458333457
                },
                {
                    "name": "D#4",
                    "midi": 63,
                    "time": 315.96149200000394,
                    "velocity": 0.30708661417322836,
                    "duration": 0.3236864458333457
                },
                {
                    "name": "F#4",
                    "midi": 66,
                    "time": 315.96149200000394,
                    "velocity": 0.3700787401574803,
                    "duration": 0.3236864458333457
                },
                {
                    "name": "A#3",
                    "midi": 58,
                    "time": 316.28789850000396,
                    "velocity": 0.2125984251968504,
                    "duration": 0.6460128645833265
                },
                {
                    "name": "D#4",
                    "midi": 63,
                    "time": 316.28789850000396,
                    "velocity": 0.25196850393700787,
                    "duration": 0.6460128645833265
                },
                {
                    "name": "F#4",
                    "midi": 66,
                    "time": 316.28789850000396,
                    "velocity": 0.2992125984251969,
                    "duration": 0.6460128645833265
                },
                {
                    "name": "A#3",
                    "midi": 58,
                    "time": 316.94071150000394,
                    "velocity": 0.2125984251968504,
                    "duration": 0.6460128645833265
                },
                {
                    "name": "D#4",
                    "midi": 63,
                    "time": 316.94071150000394,
                    "velocity": 0.25196850393700787,
                    "duration": 0.6460128645833265
                },
                {
                    "name": "F#4",
                    "midi": 66,
                    "time": 316.94071150000394,
                    "velocity": 0.2992125984251969,
                    "duration": 0.6460128645833265
                },
                {
                    "name": "A#3",
                    "midi": 58,
                    "time": 317.5935245000039,
                    "velocity": 0.2125984251968504,
                    "duration": 0.6460128645833265
                },
                {
                    "name": "D#4",
                    "midi": 63,
                    "time": 317.5935245000039,
                    "velocity": 0.25196850393700787,
                    "duration": 0.6460128645833265
                },
                {
                    "name": "F#4",
                    "midi": 66,
                    "time": 317.5935245000039,
                    "velocity": 0.2992125984251969,
                    "duration": 0.6460128645833265
                },
                {
                    "name": "F#4",
                    "midi": 66,
                    "time": 318.2463375000039,
                    "velocity": 0.4094488188976378,
                    "duration": 0.3236864458333457
                },
                {
                    "name": "A#3",
                    "midi": 58,
                    "time": 318.2463375000039,
                    "velocity": 0.29133858267716534,
                    "duration": 0.6460128645833265
                },
                {
                    "name": "D#4",
                    "midi": 63,
                    "time": 318.2463375000039,
                    "velocity": 0.3464566929133858,
                    "duration": 0.6460128645833265
                },
                {
                    "name": "F4",
                    "midi": 65,
                    "time": 318.5727440000039,
                    "velocity": 0.4094488188976378,
                    "duration": 0.32368644583328887
                },
                {
                    "name": "A#3",
                    "midi": 58,
                    "time": 318.8991505000039,
                    "velocity": 0.23622047244094488,
                    "duration": 0.6460128645833265
                },
                {
                    "name": "D4",
                    "midi": 62,
                    "time": 318.8991505000039,
                    "velocity": 0.28346456692913385,
                    "duration": 0.6460128645833265
                },
                {
                    "name": "F4",
                    "midi": 65,
                    "time": 318.8991505000039,
                    "velocity": 0.33858267716535434,
                    "duration": 0.6460128645833265
                },
                {
                    "name": "A#3",
                    "midi": 58,
                    "time": 319.55196350000386,
                    "velocity": 0.23622047244094488,
                    "duration": 0.6460128645833265
                },
                {
                    "name": "D4",
                    "midi": 62,
                    "time": 319.55196350000386,
                    "velocity": 0.28346456692913385,
                    "duration": 0.3236864458333457
                },
                {
                    "name": "F4",
                    "midi": 65,
                    "time": 319.55196350000386,
                    "velocity": 0.33858267716535434,
                    "duration": 0.6460128645833265
                },
                {
                    "name": "C#4",
                    "midi": 61,
                    "time": 319.8783700000039,
                    "velocity": 0.23622047244094488,
                    "duration": 0.32368644583328887
                },
                {
                    "name": "A#3",
                    "midi": 58,
                    "time": 320.20477650000385,
                    "velocity": 0.23622047244094488,
                    "duration": 0.6460128645833265
                },
                {
                    "name": "C#4",
                    "midi": 61,
                    "time": 320.20477650000385,
                    "velocity": 0.28346456692913385,
                    "duration": 0.6460128645833265
                },
                {
                    "name": "F4",
                    "midi": 65,
                    "time": 320.20477650000385,
                    "velocity": 0.33858267716535434,
                    "duration": 0.6460128645833265
                },
                {
                    "name": "A#3",
                    "midi": 58,
                    "time": 320.8575895000038,
                    "velocity": 0.3228346456692913,
                    "duration": 0.3264065000000187
                },
                {
                    "name": "D4",
                    "midi": 62,
                    "time": 320.8575895000038,
                    "velocity": 0.3228346456692913,
                    "duration": 0.3264065000000187
                },
                {
                    "name": "E4",
                    "midi": 64,
                    "time": 320.8575895000038,
                    "velocity": 0.3858267716535433,
                    "duration": 0.3264065000000187
                },
                {
                    "name": "G4",
                    "midi": 67,
                    "time": 320.8575895000038,
                    "velocity": 0.4566929133858268,
                    "duration": 0.3264065000000187
                },
                {
                    "name": "G#3",
                    "midi": 56,
                    "time": 321.18399600000384,
                    "velocity": 0.1968503937007874,
                    "duration": 0.3236864458333457
                },
                {
                    "name": "C4",
                    "midi": 60,
                    "time": 321.18399600000384,
                    "velocity": 0.23622047244094488,
                    "duration": 0.3236864458333457
                },
                {
                    "name": "F4",
                    "midi": 65,
                    "time": 321.18399600000384,
                    "velocity": 0.30708661417322836,
                    "duration": 0.3236864458333457
                },
                {
                    "name": "G#4",
                    "midi": 68,
                    "time": 321.18399600000384,
                    "velocity": 0.3700787401574803,
                    "duration": 0.3236864458333457
                },
                {
                    "name": "C4",
                    "midi": 60,
                    "time": 321.51040250000386,
                    "velocity": 0.2125984251968504,
                    "duration": 0.6460128645833265
                },
                {
                    "name": "F4",
                    "midi": 65,
                    "time": 321.51040250000386,
                    "velocity": 0.25196850393700787,
                    "duration": 0.6460128645833265
                },
                {
                    "name": "G#4",
                    "midi": 68,
                    "time": 321.51040250000386,
                    "velocity": 0.2992125984251969,
                    "duration": 0.6460128645833265
                },
                {
                    "name": "C4",
                    "midi": 60,
                    "time": 322.16321550000384,
                    "velocity": 0.2125984251968504,
                    "duration": 0.6460128645833265
                },
                {
                    "name": "F4",
                    "midi": 65,
                    "time": 322.16321550000384,
                    "velocity": 0.25196850393700787,
                    "duration": 0.6460128645833265
                },
                {
                    "name": "G#4",
                    "midi": 68,
                    "time": 322.16321550000384,
                    "velocity": 0.2992125984251969,
                    "duration": 0.6460128645833265
                },
                {
                    "name": "C4",
                    "midi": 60,
                    "time": 322.8160285000038,
                    "velocity": 0.2125984251968504,
                    "duration": 0.6460128645833265
                },
                {
                    "name": "F4",
                    "midi": 65,
                    "time": 322.8160285000038,
                    "velocity": 0.25196850393700787,
                    "duration": 0.6460128645833265
                },
                {
                    "name": "G#4",
                    "midi": 68,
                    "time": 322.8160285000038,
                    "velocity": 0.2992125984251969,
                    "duration": 0.6460128645833265
                },
                {
                    "name": "G#4",
                    "midi": 68,
                    "time": 323.4688415000038,
                    "velocity": 0.3779527559055118,
                    "duration": 0.3236864458333457
                },
                {
                    "name": "C4",
                    "midi": 60,
                    "time": 323.4688415000038,
                    "velocity": 0.2677165354330709,
                    "duration": 0.6460128645833265
                },
                {
                    "name": "F4",
                    "midi": 65,
                    "time": 323.4688415000038,
                    "velocity": 0.31496062992125984,
                    "duration": 0.6460128645833265
                },
                {
                    "name": "G4",
                    "midi": 67,
                    "time": 323.7952480000038,
                    "velocity": 0.3779527559055118,
                    "duration": 0.32368644583328887
                },
                {
                    "name": "C4",
                    "midi": 60,
                    "time": 324.1216545000038,
                    "velocity": 0.23622047244094488,
                    "duration": 0.6460128645833265
                },
                {
                    "name": "E4",
                    "midi": 64,
                    "time": 324.1216545000038,
                    "velocity": 0.28346456692913385,
                    "duration": 0.6460128645833265
                },
                {
                    "name": "G4",
                    "midi": 67,
                    "time": 324.1216545000038,
                    "velocity": 0.33858267716535434,
                    "duration": 0.6460128645833265
                },
                {
                    "name": "C4",
                    "midi": 60,
                    "time": 324.77446750000377,
                    "velocity": 0.2677165354330709,
                    "duration": 0.6460128645833265
                },
                {
                    "name": "E4",
                    "midi": 64,
                    "time": 324.77446750000377,
                    "velocity": 0.31496062992125984,
                    "duration": 0.3236864458333457
                },
                {
                    "name": "G4",
                    "midi": 67,
                    "time": 324.77446750000377,
                    "velocity": 0.3779527559055118,
                    "duration": 0.3236864458333457
                },
                {
                    "name": "G#4",
                    "midi": 68,
                    "time": 325.1008740000038,
                    "velocity": 0.3779527559055118,
                    "duration": 0.32368644583328887
                },
                {
                    "name": "F4",
                    "midi": 65,
                    "time": 325.1008740000038,
                    "velocity": 0.2677165354330709,
                    "duration": 0.32368644583328887
                },
                {
                    "name": "C4",
                    "midi": 60,
                    "time": 325.42728050000375,
                    "velocity": 0.23622047244094488,
                    "duration": 0.6460128645833265
                },
                {
                    "name": "F4",
                    "midi": 65,
                    "time": 325.42728050000375,
                    "velocity": 0.28346456692913385,
                    "duration": 0.6460128645833265
                },
                {
                    "name": "G#4",
                    "midi": 68,
                    "time": 325.42728050000375,
                    "velocity": 0.33858267716535434,
                    "duration": 0.6460128645833265
                },
                {
                    "name": "C4",
                    "midi": 60,
                    "time": 326.0800935000037,
                    "velocity": 0.2677165354330709,
                    "duration": 0.3264065000000187
                },
                {
                    "name": "F4",
                    "midi": 65,
                    "time": 326.0800935000037,
                    "velocity": 0.31496062992125984,
                    "duration": 0.3264065000000187
                },
                {
                    "name": "G#4",
                    "midi": 68,
                    "time": 326.0800935000037,
                    "velocity": 0.3700787401574803,
                    "duration": 0.3264065000000187
                },
                {
                    "name": "C4",
                    "midi": 60,
                    "time": 326.5697032500037,
                    "velocity": 0.28346456692913385,
                    "duration": 0.16320324999998093
                },
                {
                    "name": "E4",
                    "midi": 64,
                    "time": 326.7329065000037,
                    "velocity": 0.29133858267716534,
                    "duration": 0.16320324999998093
                },
                {
                    "name": "G4",
                    "midi": 67,
                    "time": 326.8961097500037,
                    "velocity": 0.2992125984251969,
                    "duration": 0.16320324999998093
                },
                {
                    "name": "B4",
                    "midi": 71,
                    "time": 327.05931300000367,
                    "velocity": 0.31496062992125984,
                    "duration": 0.16320324999998093
                },
                {
                    "name": "C5",
                    "midi": 72,
                    "time": 327.22251625000365,
                    "velocity": 0.3228346456692913,
                    "duration": 0.16320324999998093
                },
                {
                    "name": "E5",
                    "midi": 76,
                    "time": 327.38571950000363,
                    "velocity": 0.33070866141732286,
                    "duration": 0.16320324999998093
                },
                {
                    "name": "G5",
                    "midi": 79,
                    "time": 327.5489227500036,
                    "velocity": 0.3464566929133858,
                    "duration": 0.16320324999998093
                },
                {
                    "name": "B5",
                    "midi": 83,
                    "time": 327.7121260000036,
                    "velocity": 0.3543307086614173,
                    "duration": 0.16320324999998093
                },
                {
                    "name": "C6",
                    "midi": 84,
                    "time": 327.8753292500036,
                    "velocity": 0.3464566929133858,
                    "duration": 0.16320324999998093
                },
                {
                    "name": "G5",
                    "midi": 79,
                    "time": 328.03853250000356,
                    "velocity": 0.33858267716535434,
                    "duration": 0.16320324999998093
                },
                {
                    "name": "E5",
                    "midi": 76,
                    "time": 328.20173575000354,
                    "velocity": 0.33858267716535434,
                    "duration": 0.16320324999998093
                },
                {
                    "name": "C5",
                    "midi": 72,
                    "time": 328.3649390000035,
                    "velocity": 0.33070866141732286,
                    "duration": 0.16320324999998093
                },
                {
                    "name": "G4",
                    "midi": 67,
                    "time": 328.5281422500035,
                    "velocity": 0.3228346456692913,
                    "duration": 0.16320324999998093
                },
                {
                    "name": "E4",
                    "midi": 64,
                    "time": 328.6913455000035,
                    "velocity": 0.3228346456692913,
                    "duration": 0.16320324999998093
                },
                {
                    "name": "C4",
                    "midi": 60,
                    "time": 328.85454875000346,
                    "velocity": 0.31496062992125984,
                    "duration": 0.16320324999998093
                },
                {
                    "name": "C#4",
                    "midi": 61,
                    "time": 329.1809552500034,
                    "velocity": 0.28346456692913385,
                    "duration": 0.16320324999998093
                },
                {
                    "name": "F4",
                    "midi": 65,
                    "time": 329.3441585000034,
                    "velocity": 0.29133858267716534,
                    "duration": 0.16320324999998093
                },
                {
                    "name": "G#4",
                    "midi": 68,
                    "time": 329.5073617500034,
                    "velocity": 0.2992125984251969,
                    "duration": 0.16320324999998093
                },
                {
                    "name": "C5",
                    "midi": 72,
                    "time": 329.67056500000336,
                    "velocity": 0.31496062992125984,
                    "duration": 0.16320324999998093
                },
                {
                    "name": "C#5",
                    "midi": 73,
                    "time": 329.83376825000335,
                    "velocity": 0.3228346456692913,
                    "duration": 0.16320324999998093
                },
                {
                    "name": "F5",
                    "midi": 77,
                    "time": 329.9969715000033,
                    "velocity": 0.33070866141732286,
                    "duration": 0.16320324999998093
                },
                {
                    "name": "G#5",
                    "midi": 80,
                    "time": 330.1601747500033,
                    "velocity": 0.3464566929133858,
                    "duration": 0.16320324999998093
                },
                {
                    "name": "C6",
                    "midi": 84,
                    "time": 330.3233780000033,
                    "velocity": 0.3543307086614173,
                    "duration": 0.16320324999998093
                },
                {
                    "name": "C#6",
                    "midi": 85,
                    "time": 330.48658125000327,
                    "velocity": 0.3464566929133858,
                    "duration": 0.16320324999998093
                },
                {
                    "name": "G#5",
                    "midi": 80,
                    "time": 330.64978450000325,
                    "velocity": 0.33858267716535434,
                    "duration": 0.16320324999998093
                },
                {
                    "name": "F5",
                    "midi": 77,
                    "time": 330.81298775000323,
                    "velocity": 0.33858267716535434,
                    "duration": 0.16320324999998093
                },
                {
                    "name": "C#5",
                    "midi": 73,
                    "time": 330.9761910000032,
                    "velocity": 0.33070866141732286,
                    "duration": 0.16320324999998093
                },
                {
                    "name": "G#4",
                    "midi": 68,
                    "time": 331.1393942500032,
                    "velocity": 0.3228346456692913,
                    "duration": 0.16320324999998093
                },
                {
                    "name": "F4",
                    "midi": 65,
                    "time": 331.3025975000032,
                    "velocity": 0.3228346456692913,
                    "duration": 0.16320324999998093
                },
                {
                    "name": "C#4",
                    "midi": 61,
                    "time": 331.46580075000315,
                    "velocity": 0.31496062992125984,
                    "duration": 0.16320324999998093
                },
                {
                    "name": "E4",
                    "midi": 64,
                    "time": 331.7922072500031,
                    "velocity": 0.28346456692913385,
                    "duration": 0.16320324999998093
                },
                {
                    "name": "G4",
                    "midi": 67,
                    "time": 331.9554105000031,
                    "velocity": 0.29133858267716534,
                    "duration": 0.16320324999998093
                },
                {
                    "name": "A#4",
                    "midi": 70,
                    "time": 332.1186137500031,
                    "velocity": 0.2992125984251969,
                    "duration": 0.16320324999998093
                },
                {
                    "name": "D#5",
                    "midi": 75,
                    "time": 332.28181700000306,
                    "velocity": 0.31496062992125984,
                    "duration": 0.16320324999998093
                },
                {
                    "name": "E5",
                    "midi": 76,
                    "time": 332.44502025000304,
                    "velocity": 0.3228346456692913,
                    "duration": 0.16320324999998093
                },
                {
                    "name": "G5",
                    "midi": 79,
                    "time": 332.608223500003,
                    "velocity": 0.33070866141732286,
                    "duration": 0.16320324999998093
                },
                {
                    "name": "A#5",
                    "midi": 82,
                    "time": 332.771426750003,
                    "velocity": 0.3464566929133858,
                    "duration": 0.16320324999998093
                },
                {
                    "name": "D#6",
                    "midi": 87,
                    "time": 332.934630000003,
                    "velocity": 0.3543307086614173,
                    "duration": 0.16320324999998093
                },
                {
                    "name": "E6",
                    "midi": 88,
                    "time": 333.09783325000296,
                    "velocity": 0.3464566929133858,
                    "duration": 0.16320324999998093
                },
                {
                    "name": "A#5",
                    "midi": 82,
                    "time": 333.26103650000294,
                    "velocity": 0.33858267716535434,
                    "duration": 0.16320324999998093
                },
                {
                    "name": "G5",
                    "midi": 79,
                    "time": 333.4242397500029,
                    "velocity": 0.33858267716535434,
                    "duration": 0.16320324999998093
                },
                {
                    "name": "E5",
                    "midi": 76,
                    "time": 333.5874430000029,
                    "velocity": 0.33070866141732286,
                    "duration": 0.16320324999998093
                },
                {
                    "name": "A#4",
                    "midi": 70,
                    "time": 333.7506462500029,
                    "velocity": 0.3228346456692913,
                    "duration": 0.16320324999998093
                },
                {
                    "name": "G4",
                    "midi": 67,
                    "time": 333.91384950000287,
                    "velocity": 0.3228346456692913,
                    "duration": 0.16320324999998093
                },
                {
                    "name": "E4",
                    "midi": 64,
                    "time": 334.07705275000285,
                    "velocity": 0.31496062992125984,
                    "duration": 0.16320324999998093
                },
                {
                    "name": "F4",
                    "midi": 65,
                    "time": 334.4034592500028,
                    "velocity": 0.28346456692913385,
                    "duration": 0.16320324999998093
                },
                {
                    "name": "A4",
                    "midi": 69,
                    "time": 334.5666625000028,
                    "velocity": 0.29133858267716534,
                    "duration": 0.16320324999998093
                },
                {
                    "name": "C5",
                    "midi": 72,
                    "time": 334.7298657500028,
                    "velocity": 0.2992125984251969,
                    "duration": 0.16320324999998093
                },
                {
                    "name": "E5",
                    "midi": 76,
                    "time": 334.89306900000275,
                    "velocity": 0.31496062992125984,
                    "duration": 0.16320324999998093
                },
                {
                    "name": "F5",
                    "midi": 77,
                    "time": 335.05627225000273,
                    "velocity": 0.3228346456692913,
                    "duration": 0.16320324999998093
                },
                {
                    "name": "A5",
                    "midi": 81,
                    "time": 335.2194755000027,
                    "velocity": 0.33070866141732286,
                    "duration": 0.16320324999998093
                },
                {
                    "name": "C6",
                    "midi": 84,
                    "time": 335.3826787500027,
                    "velocity": 0.3464566929133858,
                    "duration": 0.16320324999998093
                },
                {
                    "name": "E6",
                    "midi": 88,
                    "time": 335.5458820000027,
                    "velocity": 0.3543307086614173,
                    "duration": 0.16320324999998093
                },
                {
                    "name": "F6",
                    "midi": 89,
                    "time": 335.70908525000266,
                    "velocity": 0.3464566929133858,
                    "duration": 0.16320324999998093
                },
                {
                    "name": "C6",
                    "midi": 84,
                    "time": 335.87228850000264,
                    "velocity": 0.33858267716535434,
                    "duration": 0.16320324999998093
                },
                {
                    "name": "A5",
                    "midi": 81,
                    "time": 336.0354917500026,
                    "velocity": 0.33858267716535434,
                    "duration": 0.16320324999998093
                },
                {
                    "name": "F5",
                    "midi": 77,
                    "time": 336.1986950000026,
                    "velocity": 0.33070866141732286,
                    "duration": 0.16320324999998093
                },
                {
                    "name": "C5",
                    "midi": 72,
                    "time": 336.3618982500026,
                    "velocity": 0.3228346456692913,
                    "duration": 0.16320324999998093
                },
                {
                    "name": "A4",
                    "midi": 69,
                    "time": 336.52510150000256,
                    "velocity": 0.3228346456692913,
                    "duration": 0.16320324999998093
                },
                {
                    "name": "F4",
                    "midi": 65,
                    "time": 336.68830475000254,
                    "velocity": 0.31496062992125984,
                    "duration": 0.16320324999998093
                },
                {
                    "name": "F#4",
                    "midi": 66,
                    "time": 337.0147112500025,
                    "velocity": 0.28346456692913385,
                    "duration": 0.16320324999998093
                },
                {
                    "name": "A#4",
                    "midi": 70,
                    "time": 337.1779145000025,
                    "velocity": 0.29133858267716534,
                    "duration": 0.16320324999998093
                },
                {
                    "name": "C#5",
                    "midi": 73,
                    "time": 337.34111775000247,
                    "velocity": 0.2992125984251969,
                    "duration": 0.16320324999998093
                },
                {
                    "name": "F5",
                    "midi": 77,
                    "time": 337.50432100000245,
                    "velocity": 0.31496062992125984,
                    "duration": 0.16320324999998093
                },
                {
                    "name": "F#5",
                    "midi": 78,
                    "time": 337.66752425000243,
                    "velocity": 0.3228346456692913,
                    "duration": 0.16320324999998093
                },
                {
                    "name": "A#5",
                    "midi": 82,
                    "time": 337.8307275000024,
                    "velocity": 0.33070866141732286,
                    "duration": 0.16320324999998093
                },
                {
                    "name": "C#6",
                    "midi": 85,
                    "time": 337.9939307500024,
                    "velocity": 0.3464566929133858,
                    "duration": 0.16320324999998093
                },
                {
                    "name": "F6",
                    "midi": 89,
                    "time": 338.1571340000024,
                    "velocity": 0.3543307086614173,
                    "duration": 0.16320324999998093
                },
                {
                    "name": "F#6",
                    "midi": 90,
                    "time": 338.32033725000235,
                    "velocity": 0.3464566929133858,
                    "duration": 0.16320324999998093
                },
                {
                    "name": "C#6",
                    "midi": 85,
                    "time": 338.48354050000233,
                    "velocity": 0.33858267716535434,
                    "duration": 0.16320324999998093
                },
                {
                    "name": "A#5",
                    "midi": 82,
                    "time": 338.6467437500023,
                    "velocity": 0.33858267716535434,
                    "duration": 0.16320324999998093
                },
                {
                    "name": "F#5",
                    "midi": 78,
                    "time": 338.8099470000023,
                    "velocity": 0.33070866141732286,
                    "duration": 0.16320324999998093
                },
                {
                    "name": "C#5",
                    "midi": 73,
                    "time": 338.9731502500023,
                    "velocity": 0.3228346456692913,
                    "duration": 0.16320324999998093
                },
                {
                    "name": "A#4",
                    "midi": 70,
                    "time": 339.13635350000226,
                    "velocity": 0.3228346456692913,
                    "duration": 0.16320324999998093
                },
                {
                    "name": "F#4",
                    "midi": 66,
                    "time": 339.29955675000224,
                    "velocity": 0.31496062992125984,
                    "duration": 0.16320324999998093
                },
                {
                    "name": "A4",
                    "midi": 69,
                    "time": 339.6259632500022,
                    "velocity": 0.28346456692913385,
                    "duration": 0.16320324999998093
                },
                {
                    "name": "C5",
                    "midi": 72,
                    "time": 339.7891665000022,
                    "velocity": 0.29133858267716534,
                    "duration": 0.16320324999998093
                },
                {
                    "name": "D#5",
                    "midi": 75,
                    "time": 339.95236975000216,
                    "velocity": 0.2992125984251969,
                    "duration": 0.16320324999998093
                },
                {
                    "name": "G#5",
                    "midi": 80,
                    "time": 340.11557300000214,
                    "velocity": 0.31496062992125984,
                    "duration": 0.16320324999998093
                },
                {
                    "name": "A5",
                    "midi": 81,
                    "time": 340.2787762500021,
                    "velocity": 0.3228346456692913,
                    "duration": 0.16320324999998093
                },
                {
                    "name": "C6",
                    "midi": 84,
                    "time": 340.4419795000021,
                    "velocity": 0.33070866141732286,
                    "duration": 0.16320324999998093
                },
                {
                    "name": "D#6",
                    "midi": 87,
                    "time": 340.6051827500021,
                    "velocity": 0.3464566929133858,
                    "duration": 0.16320324999998093
                },
                {
                    "name": "G#6",
                    "midi": 92,
                    "time": 340.76838600000207,
                    "velocity": 0.3543307086614173,
                    "duration": 0.16320324999998093
                },
                {
                    "name": "A6",
                    "midi": 93,
                    "time": 340.93158925000205,
                    "velocity": 0.3464566929133858,
                    "duration": 0.16320324999998093
                },
                {
                    "name": "D#6",
                    "midi": 87,
                    "time": 341.09479250000203,
                    "velocity": 0.33858267716535434,
                    "duration": 0.16320324999998093
                },
                {
                    "name": "C6",
                    "midi": 84,
                    "time": 341.257995750002,
                    "velocity": 0.33858267716535434,
                    "duration": 0.16320324999998093
                },
                {
                    "name": "A5",
                    "midi": 81,
                    "time": 341.421199000002,
                    "velocity": 0.33070866141732286,
                    "duration": 0.16320324999998093
                },
                {
                    "name": "D#5",
                    "midi": 75,
                    "time": 341.584402250002,
                    "velocity": 0.3228346456692913,
                    "duration": 0.16320324999998093
                },
                {
                    "name": "C5",
                    "midi": 72,
                    "time": 341.74760550000195,
                    "velocity": 0.3228346456692913,
                    "duration": 0.16320324999998093
                },
                {
                    "name": "A4",
                    "midi": 69,
                    "time": 341.91080875000193,
                    "velocity": 0.31496062992125984,
                    "duration": 0.16320324999998093
                },
                {
                    "name": "A#4",
                    "midi": 70,
                    "time": 342.2372152500019,
                    "velocity": 0.30708661417322836,
                    "duration": 0.16320324999998093
                },
                {
                    "name": "D5",
                    "midi": 74,
                    "time": 342.4004185000019,
                    "velocity": 0.3228346456692913,
                    "duration": 0.16320324999998093
                },
                {
                    "name": "F5",
                    "midi": 77,
                    "time": 342.56362175000186,
                    "velocity": 0.3464566929133858,
                    "duration": 0.16320324999998093
                },
                {
                    "name": "A5",
                    "midi": 81,
                    "time": 342.72682500000184,
                    "velocity": 0.36220472440944884,
                    "duration": 0.16320324999998093
                },
                {
                    "name": "A#5",
                    "midi": 82,
                    "time": 342.8900282500018,
                    "velocity": 0.3464566929133858,
                    "duration": 0.16320324999998093
                },
                {
                    "name": "F5",
                    "midi": 77,
                    "time": 343.0532315000018,
                    "velocity": 0.33070866141732286,
                    "duration": 0.16320324999998093
                },
                {
                    "name": "D5",
                    "midi": 74,
                    "time": 343.2164347500018,
                    "velocity": 0.31496062992125984,
                    "duration": 0.16320324999998093
                },
                {
                    "name": "A#4",
                    "midi": 70,
                    "time": 343.37963800000176,
                    "velocity": 0.3543307086614173,
                    "duration": 0.16320324999998093
                },
                {
                    "name": "D5",
                    "midi": 74,
                    "time": 343.54284125000174,
                    "velocity": 0.3228346456692913,
                    "duration": 0.16320324999998093
                },
                {
                    "name": "F5",
                    "midi": 77,
                    "time": 343.7060445000017,
                    "velocity": 0.33858267716535434,
                    "duration": 0.16320324999998093
                },
                {
                    "name": "A5",
                    "midi": 81,
                    "time": 343.8692477500017,
                    "velocity": 0.3543307086614173,
                    "duration": 0.16320324999998093
                },
                {
                    "name": "A#5",
                    "midi": 82,
                    "time": 344.0324510000017,
                    "velocity": 0.3700787401574803,
                    "duration": 0.16320324999998093
                },
                {
                    "name": "F5",
                    "midi": 77,
                    "time": 344.19565425000167,
                    "velocity": 0.3543307086614173,
                    "duration": 0.16320324999998093
                },
                {
                    "name": "D5",
                    "midi": 74,
                    "time": 344.35885750000165,
                    "velocity": 0.3464566929133858,
                    "duration": 0.16320324999998093
                },
                {
                    "name": "A#4",
                    "midi": 70,
                    "time": 344.52206075000163,
                    "velocity": 0.33070866141732286,
                    "duration": 0.16320324999998093
                },
                {
                    "name": "B4",
                    "midi": 71,
                    "time": 344.8484672500016,
                    "velocity": 0.30708661417322836,
                    "duration": 0.16320324999998093
                },
                {
                    "name": "D#5",
                    "midi": 75,
                    "time": 345.01167050000157,
                    "velocity": 0.3228346456692913,
                    "duration": 0.16320324999998093
                },
                {
                    "name": "F#5",
                    "midi": 78,
                    "time": 345.17487375000155,
                    "velocity": 0.3464566929133858,
                    "duration": 0.16320324999998093
                },
                {
                    "name": "A#5",
                    "midi": 82,
                    "time": 345.33807700000153,
                    "velocity": 0.36220472440944884,
                    "duration": 0.16320324999998093
                },
                {
                    "name": "B5",
                    "midi": 83,
                    "time": 345.5012802500015,
                    "velocity": 0.3464566929133858,
                    "duration": 0.16320324999998093
                },
                {
                    "name": "F#5",
                    "midi": 78,
                    "time": 345.6644835000015,
                    "velocity": 0.33070866141732286,
                    "duration": 0.16320324999998093
                },
                {
                    "name": "D#5",
                    "midi": 75,
                    "time": 345.8276867500015,
                    "velocity": 0.31496062992125984,
                    "duration": 0.16320324999998093
                },
                {
                    "name": "B4",
                    "midi": 71,
                    "time": 345.99089000000146,
                    "velocity": 0.3543307086614173,
                    "duration": 0.16320324999998093
                },
                {
                    "name": "D#5",
                    "midi": 75,
                    "time": 346.15409325000144,
                    "velocity": 0.3228346456692913,
                    "duration": 0.16320324999998093
                },
                {
                    "name": "F#5",
                    "midi": 78,
                    "time": 346.3172965000014,
                    "velocity": 0.33858267716535434,
                    "duration": 0.16320324999998093
                },
                {
                    "name": "A#5",
                    "midi": 82,
                    "time": 346.4804997500014,
                    "velocity": 0.3543307086614173,
                    "duration": 0.16320324999998093
                },
                {
                    "name": "B5",
                    "midi": 83,
                    "time": 346.6437030000014,
                    "velocity": 0.3700787401574803,
                    "duration": 0.16320324999998093
                },
                {
                    "name": "F#5",
                    "midi": 78,
                    "time": 346.80690625000136,
                    "velocity": 0.3543307086614173,
                    "duration": 0.16320324999998093
                },
                {
                    "name": "D#5",
                    "midi": 75,
                    "time": 346.97010950000134,
                    "velocity": 0.3464566929133858,
                    "duration": 0.16320324999998093
                },
                {
                    "name": "B4",
                    "midi": 71,
                    "time": 347.1333127500013,
                    "velocity": 0.33070866141732286,
                    "duration": 0.16320324999998093
                },
                {
                    "name": "D5",
                    "midi": 74,
                    "time": 347.4597192500013,
                    "velocity": 0.30708661417322836,
                    "duration": 0.16320324999998093
                },
                {
                    "name": "F5",
                    "midi": 77,
                    "time": 347.62292250000127,
                    "velocity": 0.3228346456692913,
                    "duration": 0.16320324999998093
                },
                {
                    "name": "G#5",
                    "midi": 80,
                    "time": 347.78612575000125,
                    "velocity": 0.3464566929133858,
                    "duration": 0.16320324999998093
                },
                {
                    "name": "C#6",
                    "midi": 85,
                    "time": 347.9493290000012,
                    "velocity": 0.36220472440944884,
                    "duration": 0.16320324999998093
                },
                {
                    "name": "D6",
                    "midi": 86,
                    "time": 348.1125322500012,
                    "velocity": 0.3464566929133858,
                    "duration": 0.16320324999998093
                },
                {
                    "name": "G#5",
                    "midi": 80,
                    "time": 348.2757355000012,
                    "velocity": 0.33070866141732286,
                    "duration": 0.16320324999998093
                },
                {
                    "name": "F5",
                    "midi": 77,
                    "time": 348.43893875000117,
                    "velocity": 0.31496062992125984,
                    "duration": 0.16320324999998093
                },
                {
                    "name": "D5",
                    "midi": 74,
                    "time": 348.60214200000115,
                    "velocity": 0.3543307086614173,
                    "duration": 0.16320324999998093
                },
                {
                    "name": "F5",
                    "midi": 77,
                    "time": 348.76534525000113,
                    "velocity": 0.3228346456692913,
                    "duration": 0.16320324999998093
                },
                {
                    "name": "G#5",
                    "midi": 80,
                    "time": 348.9285485000011,
                    "velocity": 0.33858267716535434,
                    "duration": 0.16320324999998093
                },
                {
                    "name": "C#6",
                    "midi": 85,
                    "time": 349.0917517500011,
                    "velocity": 0.3543307086614173,
                    "duration": 0.16320324999998093
                },
                {
                    "name": "D6",
                    "midi": 86,
                    "time": 349.2549550000011,
                    "velocity": 0.3700787401574803,
                    "duration": 0.16320324999998093
                },
                {
                    "name": "G#5",
                    "midi": 80,
                    "time": 349.41815825000106,
                    "velocity": 0.3543307086614173,
                    "duration": 0.16320324999998093
                },
                {
                    "name": "F5",
                    "midi": 77,
                    "time": 349.58136150000104,
                    "velocity": 0.3464566929133858,
                    "duration": 0.16320324999998093
                },
                {
                    "name": "D5",
                    "midi": 74,
                    "time": 349.744564750001,
                    "velocity": 0.33070866141732286,
                    "duration": 0.16320324999998093
                },
                {
                    "name": "F#5",
                    "midi": 78,
                    "time": 350.070971250001,
                    "velocity": 0.30708661417322836,
                    "duration": 0.16320324999998093
                },
                {
                    "name": "F5",
                    "midi": 77,
                    "time": 350.23417450000096,
                    "velocity": 0.36220472440944884,
                    "duration": 0.16320324999998093
                },
                {
                    "name": "F#5",
                    "midi": 78,
                    "time": 350.39737775000094,
                    "velocity": 0.3464566929133858,
                    "duration": 0.16320324999998093
                },
                {
                    "name": "A#5",
                    "midi": 82,
                    "time": 350.7237842500009,
                    "velocity": 0.3464566929133858,
                    "duration": 0.16320324999998093
                },
                {
                    "name": "A5",
                    "midi": 81,
                    "time": 350.8869875000009,
                    "velocity": 0.3700787401574803,
                    "duration": 0.16320324999998093
                },
                {
                    "name": "A#5",
                    "midi": 82,
                    "time": 351.05019075000087,
                    "velocity": 0.31496062992125984,
                    "duration": 0.16320324999998093
                },
                {
                    "name": "D#6",
                    "midi": 87,
                    "time": 351.3765972500008,
                    "velocity": 0.3228346456692913,
                    "duration": 0.16320324999998093
                },
                {
                    "name": "D6",
                    "midi": 86,
                    "time": 351.5398005000008,
                    "velocity": 0.33858267716535434,
                    "duration": 0.16320324999998093
                },
                {
                    "name": "D#6",
                    "midi": 87,
                    "time": 351.7030037500008,
                    "velocity": 0.33070866141732286,
                    "duration": 0.16320324999998093
                },
                {
                    "name": "F#6",
                    "midi": 90,
                    "time": 351.86620700000077,
                    "velocity": 0.3700787401574803,
                    "duration": 0.16320324999998093
                },
                {
                    "name": "D#6",
                    "midi": 87,
                    "time": 352.02941025000075,
                    "velocity": 0.3543307086614173,
                    "duration": 0.16320324999998093
                },
                {
                    "name": "F#6",
                    "midi": 90,
                    "time": 352.19261350000073,
                    "velocity": 0.3858267716535433,
                    "duration": 0.16320324999998093
                },
                {
                    "name": "D#6",
                    "midi": 87,
                    "time": 352.3558167500007,
                    "velocity": 0.33070866141732286,
                    "duration": 0.16320324999998093
                },
                {
                    "name": "F#6",
                    "midi": 90,
                    "time": 352.5190200000007,
                    "velocity": 0.41732283464566927,
                    "duration": 0.16320324999998093
                },
                {
                    "name": "F6",
                    "midi": 89,
                    "time": 352.6822232500007,
                    "velocity": 0.4015748031496063,
                    "duration": 0.16320324999998093
                },
                {
                    "name": "D#6",
                    "midi": 87,
                    "time": 352.84542650000066,
                    "velocity": 0.3858267716535433,
                    "duration": 0.16320324999998093
                },
                {
                    "name": "C#6",
                    "midi": 85,
                    "time": 353.00862975000064,
                    "velocity": 0.3700787401574803,
                    "duration": 0.16320324999998093
                },
                {
                    "name": "C6",
                    "midi": 84,
                    "time": 353.1718330000006,
                    "velocity": 0.3543307086614173,
                    "duration": 0.16320324999998093
                },
                {
                    "name": "C#6",
                    "midi": 85,
                    "time": 353.3350362500006,
                    "velocity": 0.36220472440944884,
                    "duration": 0.16320324999998093
                },
                {
                    "name": "D#6",
                    "midi": 87,
                    "time": 353.4982395000006,
                    "velocity": 0.3700787401574803,
                    "duration": 0.16320324999998093
                },
                {
                    "name": "F6",
                    "midi": 89,
                    "time": 353.66144275000056,
                    "velocity": 0.3779527559055118,
                    "duration": 0.16320324999998093
                },
                {
                    "name": "F#6",
                    "midi": 90,
                    "time": 353.82464600000054,
                    "velocity": 0.41732283464566927,
                    "duration": 0.16320324999998093
                },
                {
                    "name": "F6",
                    "midi": 89,
                    "time": 353.9878492500005,
                    "velocity": 0.4094488188976378,
                    "duration": 0.16320324999998093
                },
                {
                    "name": "D#6",
                    "midi": 87,
                    "time": 354.1510525000005,
                    "velocity": 0.4015748031496063,
                    "duration": 0.16320324999998093
                },
                {
                    "name": "C#6",
                    "midi": 85,
                    "time": 354.3142557500005,
                    "velocity": 0.3937007874015748,
                    "duration": 0.16320324999998093
                },
                {
                    "name": "C6",
                    "midi": 84,
                    "time": 354.47745900000047,
                    "velocity": 0.3858267716535433,
                    "duration": 0.16320324999998093
                },
                {
                    "name": "A#5",
                    "midi": 82,
                    "time": 354.64066225000045,
                    "velocity": 0.3779527559055118,
                    "duration": 0.16320324999998093
                },
                {
                    "name": "G#5",
                    "midi": 80,
                    "time": 354.8038655000004,
                    "velocity": 0.3700787401574803,
                    "duration": 0.16320324999998093
                },
                {
                    "name": "F#5",
                    "midi": 78,
                    "time": 354.9670687500004,
                    "velocity": 0.36220472440944884,
                    "duration": 0.16320324999998093
                },
                {
                    "name": "F5",
                    "midi": 77,
                    "time": 355.29347525000037,
                    "velocity": 0.30708661417322836,
                    "duration": 0.16320324999998093
                },
                {
                    "name": "E5",
                    "midi": 76,
                    "time": 355.45667850000035,
                    "velocity": 0.36220472440944884,
                    "duration": 0.16320324999998093
                },
                {
                    "name": "F5",
                    "midi": 77,
                    "time": 355.61988175000033,
                    "velocity": 0.3464566929133858,
                    "duration": 0.16320324999998093
                },
                {
                    "name": "G#5",
                    "midi": 80,
                    "time": 355.9462882500003,
                    "velocity": 0.3464566929133858,
                    "duration": 0.16320324999998093
                },
                {
                    "name": "G5",
                    "midi": 79,
                    "time": 356.1094915000003,
                    "velocity": 0.3700787401574803,
                    "duration": 0.16320324999998093
                },
                {
                    "name": "G#5",
                    "midi": 80,
                    "time": 356.27269475000026,
                    "velocity": 0.31496062992125984,
                    "duration": 0.16320324999998093
                },
                {
                    "name": "C#6",
                    "midi": 85,
                    "time": 356.5991012500002,
                    "velocity": 0.3228346456692913,
                    "duration": 0.16320324999998093
                },
                {
                    "name": "C6",
                    "midi": 84,
                    "time": 356.7623045000002,
                    "velocity": 0.33858267716535434,
                    "duration": 0.16320324999998093
                },
                {
                    "name": "C#6",
                    "midi": 85,
                    "time": 356.9255077500002,
                    "velocity": 0.33070866141732286,
                    "duration": 0.16320324999998093
                },
                {
                    "name": "F6",
                    "midi": 89,
                    "time": 357.08871100000016,
                    "velocity": 0.3700787401574803,
                    "duration": 0.16320324999998093
                },
                {
                    "name": "C#6",
                    "midi": 85,
                    "time": 357.25191425000014,
                    "velocity": 0.3543307086614173,
                    "duration": 0.16320324999998093
                },
                {
                    "name": "F6",
                    "midi": 89,
                    "time": 357.4151175000001,
                    "velocity": 0.3858267716535433,
                    "duration": 0.16320324999998093
                },
                {
                    "name": "C#6",
                    "midi": 85,
                    "time": 357.5783207500001,
                    "velocity": 0.33070866141732286,
                    "duration": 0.16320324999998093
                },
                {
                    "name": "F6",
                    "midi": 89,
                    "time": 357.7415240000001,
                    "velocity": 0.41732283464566927,
                    "duration": 0.16320324999998093
                },
                {
                    "name": "D#6",
                    "midi": 87,
                    "time": 357.90472725000006,
                    "velocity": 0.4015748031496063,
                    "duration": 0.16320324999998093
                },
                {
                    "name": "D6",
                    "midi": 86,
                    "time": 358.06793050000005,
                    "velocity": 0.3858267716535433,
                    "duration": 0.16320324999998093
                },
                {
                    "name": "C6",
                    "midi": 84,
                    "time": 358.23113375,
                    "velocity": 0.3700787401574803,
                    "duration": 0.16320324999998093
                },
                {
                    "name": "B5",
                    "midi": 83,
                    "time": 358.394337,
                    "velocity": 0.3543307086614173,
                    "duration": 0.16320324999998093
                },
                {
                    "name": "C6",
                    "midi": 84,
                    "time": 358.55754025,
                    "velocity": 0.36220472440944884,
                    "duration": 0.16320324999998093
                },
                {
                    "name": "D6",
                    "midi": 86,
                    "time": 358.72074349999997,
                    "velocity": 0.3700787401574803,
                    "duration": 0.16320324999998093
                },
                {
                    "name": "D#6",
                    "midi": 87,
                    "time": 358.88394674999995,
                    "velocity": 0.3779527559055118,
                    "duration": 0.16320324999998093
                },
                {
                    "name": "F6",
                    "midi": 89,
                    "time": 359.04714999999993,
                    "velocity": 0.41732283464566927,
                    "duration": 0.16320324999998093
                },
                {
                    "name": "D#6",
                    "midi": 87,
                    "time": 359.2103532499999,
                    "velocity": 0.4094488188976378,
                    "duration": 0.16320324999998093
                },
                {
                    "name": "D6",
                    "midi": 86,
                    "time": 359.3735564999999,
                    "velocity": 0.4015748031496063,
                    "duration": 0.16320324999998093
                },
                {
                    "name": "C6",
                    "midi": 84,
                    "time": 359.5367597499999,
                    "velocity": 0.3937007874015748,
                    "duration": 0.16320324999998093
                },
                {
                    "name": "B5",
                    "midi": 83,
                    "time": 359.69996299999985,
                    "velocity": 0.3858267716535433,
                    "duration": 0.16320324999998093
                },
                {
                    "name": "G#5",
                    "midi": 80,
                    "time": 359.86316624999984,
                    "velocity": 0.3779527559055118,
                    "duration": 0.16320324999998093
                },
                {
                    "name": "G5",
                    "midi": 79,
                    "time": 360.0263694999998,
                    "velocity": 0.3700787401574803,
                    "duration": 0.16320324999998093
                },
                {
                    "name": "F5",
                    "midi": 77,
                    "time": 360.1895727499998,
                    "velocity": 0.36220472440944884,
                    "duration": 0.16320324999998093
                },
                {
                    "name": "D#5",
                    "midi": 75,
                    "time": 360.51597924999976,
                    "velocity": 0.30708661417322836,
                    "duration": 0.16320324999998093
                },
                {
                    "name": "D5",
                    "midi": 74,
                    "time": 360.67918249999974,
                    "velocity": 0.36220472440944884,
                    "duration": 0.16320324999998093
                },
                {
                    "name": "D#5",
                    "midi": 75,
                    "time": 360.8423857499997,
                    "velocity": 0.3464566929133858,
                    "duration": 0.16320324999998093
                },
                {
                    "name": "G5",
                    "midi": 79,
                    "time": 361.1687922499997,
                    "velocity": 0.3464566929133858,
                    "duration": 0.16320324999998093
                },
                {
                    "name": "F#5",
                    "midi": 78,
                    "time": 361.33199549999966,
                    "velocity": 0.3700787401574803,
                    "duration": 0.16320324999998093
                },
                {
                    "name": "G5",
                    "midi": 79,
                    "time": 361.49519874999964,
                    "velocity": 0.31496062992125984,
                    "duration": 0.16320324999998093
                },
                {
                    "name": "B5",
                    "midi": 83,
                    "time": 361.8216052499996,
                    "velocity": 0.3228346456692913,
                    "duration": 0.16320324999998093
                },
                {
                    "name": "C6",
                    "midi": 84,
                    "time": 361.9848084999996,
                    "velocity": 0.33858267716535434,
                    "duration": 0.16320324999998093
                },
                {
                    "name": "B5",
                    "midi": 83,
                    "time": 362.14801174999957,
                    "velocity": 0.33070866141732286,
                    "duration": 0.16320324999998093
                },
                {
                    "name": "C6",
                    "midi": 84,
                    "time": 362.31121499999955,
                    "velocity": 0.3700787401574803,
                    "duration": 0.16320324999998093
                },
                {
                    "name": "D6",
                    "midi": 86,
                    "time": 362.47441824999953,
                    "velocity": 0.3543307086614173,
                    "duration": 0.16320324999998093
                },
                {
                    "name": "D#6",
                    "midi": 87,
                    "time": 362.6376214999995,
                    "velocity": 0.3858267716535433,
                    "duration": 0.16320324999998093
                },
                {
                    "name": "F#6",
                    "midi": 90,
                    "time": 362.8008247499995,
                    "velocity": 0.33070866141732286,
                    "duration": 0.16320324999998093
                },
                {
                    "name": "G6",
                    "midi": 91,
                    "time": 362.9640279999995,
                    "velocity": 0.41732283464566927,
                    "duration": 0.16320324999998093
                },
                {
                    "name": "D6",
                    "midi": 86,
                    "time": 363.12723124999945,
                    "velocity": 0.4015748031496063,
                    "duration": 0.16320324999998093
                },
                {
                    "name": "B5",
                    "midi": 83,
                    "time": 363.29043449999944,
                    "velocity": 0.3858267716535433,
                    "duration": 0.16320324999998093
                },
                {
                    "name": "G5",
                    "midi": 79,
                    "time": 363.4536377499994,
                    "velocity": 0.3700787401574803,
                    "duration": 0.16320324999998093
                },
                {
                    "name": "F#5",
                    "midi": 78,
                    "time": 363.6168409999994,
                    "velocity": 0.3543307086614173,
                    "duration": 0.16320324999998093
                },
                {
                    "name": "G5",
                    "midi": 79,
                    "time": 363.7800442499994,
                    "velocity": 0.36220472440944884,
                    "duration": 0.16320324999998093
                },
                {
                    "name": "B5",
                    "midi": 83,
                    "time": 363.94324749999936,
                    "velocity": 0.3700787401574803,
                    "duration": 0.16320324999998093
                },
                {
                    "name": "D6",
                    "midi": 86,
                    "time": 364.10645074999934,
                    "velocity": 0.3779527559055118,
                    "duration": 0.16320324999998093
                },
                {
                    "name": "D#6",
                    "midi": 87,
                    "time": 364.2696539999993,
                    "velocity": 0.41732283464566927,
                    "duration": 0.16320324999998093
                },
                {
                    "name": "C6",
                    "midi": 84,
                    "time": 364.4328572499993,
                    "velocity": 0.4015748031496063,
                    "duration": 0.16320324999998093
                },
                {
                    "name": "G5",
                    "midi": 79,
                    "time": 364.5960604999993,
                    "velocity": 0.3858267716535433,
                    "duration": 0.16320324999998093
                },
                {
                    "name": "D#5",
                    "midi": 75,
                    "time": 364.75926374999926,
                    "velocity": 0.3700787401574803,
                    "duration": 0.16320324999998093
                },
                {
                    "name": "C6",
                    "midi": 84,
                    "time": 364.92246699999924,
                    "velocity": 0.4015748031496063,
                    "duration": 0.16320324999998093
                },
                {
                    "name": "G5",
                    "midi": 79,
                    "time": 365.0856702499992,
                    "velocity": 0.3937007874015748,
                    "duration": 0.16320324999998093
                },
                {
                    "name": "D#5",
                    "midi": 75,
                    "time": 365.2488734999992,
                    "velocity": 0.3858267716535433,
                    "duration": 0.16320324999998093
                },
                {
                    "name": "C5",
                    "midi": 72,
                    "time": 365.4120767499992,
                    "velocity": 0.3779527559055118,
                    "duration": 0.16320324999998093
                },
                {
                    "name": "B5",
                    "midi": 83,
                    "time": 365.57527999999917,
                    "velocity": 0.41732283464566927,
                    "duration": 0.16320324999998093
                },
                {
                    "name": "G5",
                    "midi": 79,
                    "time": 365.73848324999915,
                    "velocity": 0.4015748031496063,
                    "duration": 0.16320324999998093
                },
                {
                    "name": "D5",
                    "midi": 74,
                    "time": 365.90168649999913,
                    "velocity": 0.3858267716535433,
                    "duration": 0.16320324999998093
                },
                {
                    "name": "B4",
                    "midi": 71,
                    "time": 366.0648897499991,
                    "velocity": 0.3700787401574803,
                    "duration": 0.16320324999998093
                },
                {
                    "name": "G5",
                    "midi": 79,
                    "time": 366.2280929999991,
                    "velocity": 0.4015748031496063,
                    "duration": 0.16320324999998093
                },
                {
                    "name": "D5",
                    "midi": 74,
                    "time": 366.3912962499991,
                    "velocity": 0.3937007874015748,
                    "duration": 0.16320324999998093
                },
                {
                    "name": "B4",
                    "midi": 71,
                    "time": 366.55449949999905,
                    "velocity": 0.3858267716535433,
                    "duration": 0.16320324999998093
                },
                {
                    "name": "G4",
                    "midi": 67,
                    "time": 366.71770274999903,
                    "velocity": 0.3779527559055118,
                    "duration": 0.16320324999998093
                },
                {
                    "name": "D#5",
                    "midi": 75,
                    "time": 366.880905999999,
                    "velocity": 0.41732283464566927,
                    "duration": 0.16320324999998093
                },
                {
                    "name": "C5",
                    "midi": 72,
                    "time": 367.044109249999,
                    "velocity": 0.4015748031496063,
                    "duration": 0.16320324999998093
                },
                {
                    "name": "G4",
                    "midi": 67,
                    "time": 367.207312499999,
                    "velocity": 0.3858267716535433,
                    "duration": 0.16320324999998093
                },
                {
                    "name": "D#4",
                    "midi": 63,
                    "time": 367.37051574999896,
                    "velocity": 0.3700787401574803,
                    "duration": 0.16320324999998093
                },
                {
                    "name": "C5",
                    "midi": 72,
                    "time": 367.53371899999894,
                    "velocity": 0.4015748031496063,
                    "duration": 0.16320324999998093
                },
                {
                    "name": "G4",
                    "midi": 67,
                    "time": 367.6969222499989,
                    "velocity": 0.3937007874015748,
                    "duration": 0.16320324999998093
                },
                {
                    "name": "D#4",
                    "midi": 63,
                    "time": 367.8601254999989,
                    "velocity": 0.3858267716535433,
                    "duration": 0.16320324999998093
                },
                {
                    "name": "C4",
                    "midi": 60,
                    "time": 368.0233287499989,
                    "velocity": 0.3779527559055118,
                    "duration": 0.16320324999998093
                },
                {
                    "name": "B4",
                    "midi": 71,
                    "time": 368.18653199999886,
                    "velocity": 0.41732283464566927,
                    "duration": 0.16320324999998093
                },
                {
                    "name": "G4",
                    "midi": 67,
                    "time": 368.34973524999884,
                    "velocity": 0.4015748031496063,
                    "duration": 0.16320324999998093
                },
                {
                    "name": "D4",
                    "midi": 62,
                    "time": 368.5129384999988,
                    "velocity": 0.3858267716535433,
                    "duration": 0.16320324999998093
                },
                {
                    "name": "B3",
                    "midi": 59,
                    "time": 368.6761417499988,
                    "velocity": 0.3700787401574803,
                    "duration": 0.16320324999998093
                },
                {
                    "name": "D4",
                    "midi": 62,
                    "time": 368.8393449999988,
                    "velocity": 0.3700787401574803,
                    "duration": 0.16320324999998093
                },
                {
                    "name": "F4",
                    "midi": 65,
                    "time": 369.00254824999877,
                    "velocity": 0.3779527559055118,
                    "duration": 0.16320324999998093
                },
                {
                    "name": "B4",
                    "midi": 71,
                    "time": 369.16575149999875,
                    "velocity": 0.3937007874015748,
                    "duration": 0.16320324999998093
                },
                {
                    "name": "D5",
                    "midi": 74,
                    "time": 369.32895474999873,
                    "velocity": 0.4094488188976378,
                    "duration": 0.16320324999998093
                },
                {
                    "name": "C5",
                    "midi": 72,
                    "time": 369.4921579999987,
                    "velocity": 0.41732283464566927,
                    "duration": 0.16320324999998093
                },
                {
                    "name": "G4",
                    "midi": 67,
                    "time": 369.6553612499987,
                    "velocity": 0.4015748031496063,
                    "duration": 0.16320324999998093
                },
                {
                    "name": "D#4",
                    "midi": 63,
                    "time": 369.8185644999987,
                    "velocity": 0.3858267716535433,
                    "duration": 0.16320324999998093
                },
                {
                    "name": "C4",
                    "midi": 60,
                    "time": 369.98176774999865,
                    "velocity": 0.3700787401574803,
                    "duration": 0.16320324999998093
                },
                {
                    "name": "G4",
                    "midi": 67,
                    "time": 370.14497099999863,
                    "velocity": 0.4015748031496063,
                    "duration": 0.16320324999998093
                },
                {
                    "name": "D#4",
                    "midi": 63,
                    "time": 370.3081742499986,
                    "velocity": 0.3937007874015748,
                    "duration": 0.16320324999998093
                },
                {
                    "name": "C4",
                    "midi": 60,
                    "time": 370.4713774999986,
                    "velocity": 0.3858267716535433,
                    "duration": 0.16320324999998093
                },
                {
                    "name": "G3",
                    "midi": 55,
                    "time": 370.6345807499986,
                    "velocity": 0.3779527559055118,
                    "duration": 0.16320324999998093
                },
                {
                    "name": "G4",
                    "midi": 67,
                    "time": 370.79778399999856,
                    "velocity": 0.6220472440944882,
                    "duration": 0.16320324999998093
                },
                {
                    "name": "D4",
                    "midi": 62,
                    "time": 370.96098724999854,
                    "velocity": 0.5905511811023622,
                    "duration": 0.16320324999998093
                },
                {
                    "name": "B3",
                    "midi": 59,
                    "time": 371.1241904999985,
                    "velocity": 0.5905511811023622,
                    "duration": 0.16320324999998093
                },
                {
                    "name": "G3",
                    "midi": 55,
                    "time": 371.2873937499985,
                    "velocity": 0.5511811023622047,
                    "duration": 0.16320324999998093
                },
                {
                    "name": "B3",
                    "midi": 59,
                    "time": 371.4505969999985,
                    "velocity": 0.5905511811023622,
                    "duration": 0.16320324999998093
                },
                {
                    "name": "D4",
                    "midi": 62,
                    "time": 371.61380024999846,
                    "velocity": 0.5590551181102362,
                    "duration": 0.16320324999998093
                },
                {
                    "name": "B3",
                    "midi": 59,
                    "time": 371.77700349999844,
                    "velocity": 0.5590551181102362,
                    "duration": 0.16320324999998093
                },
                {
                    "name": "G3",
                    "midi": 55,
                    "time": 371.9402067499984,
                    "velocity": 0.5590551181102362,
                    "duration": 0.16320324999998093
                },
                {
                    "name": "C4",
                    "midi": 60,
                    "time": 372.1034099999984,
                    "velocity": 0.5511811023622047,
                    "duration": 0.16320324999998093
                },
                {
                    "name": "G3",
                    "midi": 55,
                    "time": 372.2666132499984,
                    "velocity": 0.48031496062992124,
                    "duration": 0.16320324999998093
                },
                {
                    "name": "D#3",
                    "midi": 51,
                    "time": 372.42981649999837,
                    "velocity": 0.48031496062992124,
                    "duration": 0.16320324999998093
                },
                {
                    "name": "G3",
                    "midi": 55,
                    "time": 372.59301974999835,
                    "velocity": 0.47244094488188976,
                    "duration": 0.16320324999998093
                },
                {
                    "name": "D#3",
                    "midi": 51,
                    "time": 372.75622299999833,
                    "velocity": 0.5039370078740157,
                    "duration": 0.16320324999998093
                },
                {
                    "name": "G3",
                    "midi": 55,
                    "time": 372.9194262499983,
                    "velocity": 0.4251968503937008,
                    "duration": 0.16320324999998093
                },
                {
                    "name": "D#3",
                    "midi": 51,
                    "time": 373.0826294999983,
                    "velocity": 0.4251968503937008,
                    "duration": 0.16320324999998093
                },
                {
                    "name": "C3",
                    "midi": 48,
                    "time": 373.24583274999827,
                    "velocity": 0.4251968503937008,
                    "duration": 0.16320324999998093
                },
                {
                    "name": "G3",
                    "midi": 55,
                    "time": 373.57223924999823,
                    "velocity": 0.2677165354330709,
                    "duration": 0.16320324999998093
                },
                {
                    "name": "D3",
                    "midi": 50,
                    "time": 373.7354424999982,
                    "velocity": 0.2677165354330709,
                    "duration": 0.16320324999998093
                },
                {
                    "name": "B2",
                    "midi": 47,
                    "time": 373.8986457499982,
                    "velocity": 0.2677165354330709,
                    "duration": 0.16320324999998093
                },
                {
                    "name": "G3",
                    "midi": 55,
                    "time": 374.22505224999816,
                    "velocity": 0.2677165354330709,
                    "duration": 0.16320324999998093
                },
                {
                    "name": "D3",
                    "midi": 50,
                    "time": 374.38825549999814,
                    "velocity": 0.2677165354330709,
                    "duration": 0.16320324999998093
                },
                {
                    "name": "B2",
                    "midi": 47,
                    "time": 374.5514587499981,
                    "velocity": 0.2677165354330709,
                    "duration": 0.16320324999998093
                },
                {
                    "name": "G3",
                    "midi": 55,
                    "time": 374.8778652499981,
                    "velocity": 0.2677165354330709,
                    "duration": 0.16320324999998093
                },
                {
                    "name": "D3",
                    "midi": 50,
                    "time": 375.04106849999806,
                    "velocity": 0.2677165354330709,
                    "duration": 0.16320324999998093
                },
                {
                    "name": "B2",
                    "midi": 47,
                    "time": 375.20427174999804,
                    "velocity": 0.2677165354330709,
                    "duration": 0.16320324999998093
                },
                {
                    "name": "G3",
                    "midi": 55,
                    "time": 375.530678249998,
                    "velocity": 0.2677165354330709,
                    "duration": 0.16320324999998093
                },
                {
                    "name": "D3",
                    "midi": 50,
                    "time": 375.693881499998,
                    "velocity": 0.2677165354330709,
                    "duration": 0.16320324999998093
                },
                {
                    "name": "B2",
                    "midi": 47,
                    "time": 375.85708474999797,
                    "velocity": 0.2677165354330709,
                    "duration": 0.16320324999998093
                },
                {
                    "name": "A3",
                    "midi": 57,
                    "time": 376.1834912499979,
                    "velocity": 0.2677165354330709,
                    "duration": 0.16320324999998093
                },
                {
                    "name": "D#3",
                    "midi": 51,
                    "time": 376.3466944999979,
                    "velocity": 0.2677165354330709,
                    "duration": 0.16320324999998093
                },
                {
                    "name": "C3",
                    "midi": 48,
                    "time": 376.5098977499979,
                    "velocity": 0.2677165354330709,
                    "duration": 0.16320324999998093
                },
                {
                    "name": "A3",
                    "midi": 57,
                    "time": 376.83630424999785,
                    "velocity": 0.2677165354330709,
                    "duration": 0.16320324999998093
                },
                {
                    "name": "D#3",
                    "midi": 51,
                    "time": 376.99950749999783,
                    "velocity": 0.2677165354330709,
                    "duration": 0.16320324999998093
                },
                {
                    "name": "C3",
                    "midi": 48,
                    "time": 377.1627107499978,
                    "velocity": 0.2677165354330709,
                    "duration": 0.16320324999998093
                },
                {
                    "name": "A3",
                    "midi": 57,
                    "time": 377.4891172499978,
                    "velocity": 0.2677165354330709,
                    "duration": 0.16320324999998093
                },
                {
                    "name": "D#3",
                    "midi": 51,
                    "time": 377.65232049999776,
                    "velocity": 0.2677165354330709,
                    "duration": 0.16320324999998093
                },
                {
                    "name": "C3",
                    "midi": 48,
                    "time": 377.81552374999774,
                    "velocity": 0.2677165354330709,
                    "duration": 0.16320324999998093
                },
                {
                    "name": "A3",
                    "midi": 57,
                    "time": 378.1419302499977,
                    "velocity": 0.2677165354330709,
                    "duration": 0.16320324999998093
                },
                {
                    "name": "D#3",
                    "midi": 51,
                    "time": 378.3051334999977,
                    "velocity": 0.2677165354330709,
                    "duration": 0.16320324999998093
                },
                {
                    "name": "C3",
                    "midi": 48,
                    "time": 378.46833674999766,
                    "velocity": 0.2677165354330709,
                    "duration": 0.16320324999998093
                },
                {
                    "name": "G3",
                    "midi": 55,
                    "time": 378.7947432499976,
                    "velocity": 0.2677165354330709,
                    "duration": 0.16320324999998093
                },
                {
                    "name": "D3",
                    "midi": 50,
                    "time": 378.9579464999976,
                    "velocity": 0.2677165354330709,
                    "duration": 0.16320324999998093
                },
                {
                    "name": "B2",
                    "midi": 47,
                    "time": 379.1211497499976,
                    "velocity": 0.2677165354330709,
                    "duration": 0.16320324999998093
                },
                {
                    "name": "G3",
                    "midi": 55,
                    "time": 379.44755624999755,
                    "velocity": 0.2677165354330709,
                    "duration": 0.16320324999998093
                },
                {
                    "name": "D3",
                    "midi": 50,
                    "time": 379.6107594999975,
                    "velocity": 0.2677165354330709,
                    "duration": 0.16320324999998093
                },
                {
                    "name": "B2",
                    "midi": 47,
                    "time": 379.7739627499975,
                    "velocity": 0.2677165354330709,
                    "duration": 0.16320324999998093
                },
                {
                    "name": "G3",
                    "midi": 55,
                    "time": 380.10036924999747,
                    "velocity": 0.2677165354330709,
                    "duration": 0.16320324999998093
                },
                {
                    "name": "D3",
                    "midi": 50,
                    "time": 380.26357249999745,
                    "velocity": 0.2677165354330709,
                    "duration": 0.16320324999998093
                },
                {
                    "name": "B2",
                    "midi": 47,
                    "time": 380.42677574999743,
                    "velocity": 0.2677165354330709,
                    "duration": 0.16320324999998093
                },
                {
                    "name": "G3",
                    "midi": 55,
                    "time": 380.7531822499974,
                    "velocity": 0.2677165354330709,
                    "duration": 0.16320324999998093
                },
                {
                    "name": "D3",
                    "midi": 50,
                    "time": 380.9163854999974,
                    "velocity": 0.2677165354330709,
                    "duration": 0.16320324999998093
                },
                {
                    "name": "B2",
                    "midi": 47,
                    "time": 381.07958874999736,
                    "velocity": 0.2677165354330709,
                    "duration": 0.16320324999998093
                },
                {
                    "name": "A3",
                    "midi": 57,
                    "time": 381.4059952499973,
                    "velocity": 0.2677165354330709,
                    "duration": 0.16320324999998093
                },
                {
                    "name": "D#3",
                    "midi": 51,
                    "time": 381.5691984999973,
                    "velocity": 0.2677165354330709,
                    "duration": 0.16320324999998093
                },
                {
                    "name": "C3",
                    "midi": 48,
                    "time": 381.7324017499973,
                    "velocity": 0.2677165354330709,
                    "duration": 0.16320324999998093
                },
                {
                    "name": "A3",
                    "midi": 57,
                    "time": 382.05880824999724,
                    "velocity": 0.2677165354330709,
                    "duration": 0.16320324999998093
                },
                {
                    "name": "D#3",
                    "midi": 51,
                    "time": 382.2220114999972,
                    "velocity": 0.2677165354330709,
                    "duration": 0.16320324999998093
                },
                {
                    "name": "C3",
                    "midi": 48,
                    "time": 382.3852147499972,
                    "velocity": 0.2677165354330709,
                    "duration": 0.16320324999998093
                },
                {
                    "name": "A3",
                    "midi": 57,
                    "time": 382.71162124999717,
                    "velocity": 0.2677165354330709,
                    "duration": 0.16320324999998093
                },
                {
                    "name": "D#3",
                    "midi": 51,
                    "time": 382.87482449999715,
                    "velocity": 0.2677165354330709,
                    "duration": 0.16320324999998093
                },
                {
                    "name": "C3",
                    "midi": 48,
                    "time": 383.0380277499971,
                    "velocity": 0.2677165354330709,
                    "duration": 0.16320324999998093
                },
                {
                    "name": "A3",
                    "midi": 57,
                    "time": 383.3644342499971,
                    "velocity": 0.2677165354330709,
                    "duration": 0.16320324999998093
                },
                {
                    "name": "D#3",
                    "midi": 51,
                    "time": 383.52763749999707,
                    "velocity": 0.2677165354330709,
                    "duration": 0.16320324999998093
                },
                {
                    "name": "C3",
                    "midi": 48,
                    "time": 383.69084074999705,
                    "velocity": 0.2677165354330709,
                    "duration": 0.16320324999998093
                },
                {
                    "name": "G3",
                    "midi": 55,
                    "time": 383.85404399999703,
                    "velocity": 0.6062992125984252,
                    "duration": 0.16320324999998093
                },
                {
                    "name": "D3",
                    "midi": 50,
                    "time": 384.017247249997,
                    "velocity": 0.47244094488188976,
                    "duration": 0.16320324999998093
                },
                {
                    "name": "B2",
                    "midi": 47,
                    "time": 384.180450499997,
                    "velocity": 0.47244094488188976,
                    "duration": 0.16320324999998093
                },
                {
                    "name": "D3",
                    "midi": 50,
                    "time": 384.343653749997,
                    "velocity": 0.47244094488188976,
                    "duration": 0.16320324999998093
                },
                {
                    "name": "G3",
                    "midi": 55,
                    "time": 384.50685699999696,
                    "velocity": 0.5984251968503937,
                    "duration": 0.16320324999998093
                },
                {
                    "name": "D3",
                    "midi": 50,
                    "time": 384.67006024999694,
                    "velocity": 0.47244094488188976,
                    "duration": 0.16320324999998093
                },
                {
                    "name": "B2",
                    "midi": 47,
                    "time": 384.8332634999969,
                    "velocity": 0.47244094488188976,
                    "duration": 0.16320324999998093
                },
                {
                    "name": "D3",
                    "midi": 50,
                    "time": 384.9964667499969,
                    "velocity": 0.47244094488188976,
                    "duration": 0.16320324999998093
                },
                {
                    "name": "G3",
                    "midi": 55,
                    "time": 385.1596699999969,
                    "velocity": 0.5984251968503937,
                    "duration": 0.16320324999998093
                },
                {
                    "name": "D3",
                    "midi": 50,
                    "time": 385.32287324999686,
                    "velocity": 0.4645669291338583,
                    "duration": 0.16320324999998093
                },
                {
                    "name": "B2",
                    "midi": 47,
                    "time": 385.48607649999684,
                    "velocity": 0.4645669291338583,
                    "duration": 0.16320324999998093
                },
                {
                    "name": "D3",
                    "midi": 50,
                    "time": 385.6492797499968,
                    "velocity": 0.4645669291338583,
                    "duration": 0.16320324999998093
                },
                {
                    "name": "G3",
                    "midi": 55,
                    "time": 385.8124829999968,
                    "velocity": 0.5275590551181102,
                    "duration": 0.16320324999998093
                },
                {
                    "name": "D3",
                    "midi": 50,
                    "time": 385.9756862499968,
                    "velocity": 0.48031496062992124,
                    "duration": 0.16320324999998093
                },
                {
                    "name": "B2",
                    "midi": 47,
                    "time": 386.13888949999676,
                    "velocity": 0.48031496062992124,
                    "duration": 0.16320324999998093
                },
                {
                    "name": "D3",
                    "midi": 50,
                    "time": 386.30209274999675,
                    "velocity": 0.48031496062992124,
                    "duration": 0.16320324999998093
                },
                {
                    "name": "B3",
                    "midi": 59,
                    "time": 386.4652959999967,
                    "velocity": 0.6062992125984252,
                    "duration": 0.16320324999998093
                },
                {
                    "name": "G3",
                    "midi": 55,
                    "time": 386.6284992499967,
                    "velocity": 0.47244094488188976,
                    "duration": 0.16320324999998093
                },
                {
                    "name": "D3",
                    "midi": 50,
                    "time": 386.7917024999967,
                    "velocity": 0.47244094488188976,
                    "duration": 0.16320324999998093
                },
                {
                    "name": "G3",
                    "midi": 55,
                    "time": 386.95490574999667,
                    "velocity": 0.47244094488188976,
                    "duration": 0.16320324999998093
                },
                {
                    "name": "B3",
                    "midi": 59,
                    "time": 387.11810899999665,
                    "velocity": 0.5984251968503937,
                    "duration": 0.16320324999998093
                },
                {
                    "name": "G3",
                    "midi": 55,
                    "time": 387.28131224999663,
                    "velocity": 0.47244094488188976,
                    "duration": 0.16320324999998093
                },
                {
                    "name": "D3",
                    "midi": 50,
                    "time": 387.4445154999966,
                    "velocity": 0.47244094488188976,
                    "duration": 0.16320324999998093
                },
                {
                    "name": "G3",
                    "midi": 55,
                    "time": 387.6077187499966,
                    "velocity": 0.47244094488188976,
                    "duration": 0.16320324999998093
                },
                {
                    "name": "B3",
                    "midi": 59,
                    "time": 387.7709219999966,
                    "velocity": 0.5984251968503937,
                    "duration": 0.16320324999998093
                },
                {
                    "name": "G3",
                    "midi": 55,
                    "time": 387.93412524999655,
                    "velocity": 0.4645669291338583,
                    "duration": 0.16320324999998093
                },
                {
                    "name": "D3",
                    "midi": 50,
                    "time": 388.09732849999654,
                    "velocity": 0.4645669291338583,
                    "duration": 0.16320324999998093
                },
                {
                    "name": "G3",
                    "midi": 55,
                    "time": 388.2605317499965,
                    "velocity": 0.4645669291338583,
                    "duration": 0.16320324999998093
                },
                {
                    "name": "B3",
                    "midi": 59,
                    "time": 388.4237349999965,
                    "velocity": 0.5196850393700787,
                    "duration": 0.16320324999998093
                },
                {
                    "name": "G3",
                    "midi": 55,
                    "time": 388.5869382499965,
                    "velocity": 0.4566929133858268,
                    "duration": 0.16320324999998093
                },
                {
                    "name": "D3",
                    "midi": 50,
                    "time": 388.75014149999646,
                    "velocity": 0.4566929133858268,
                    "duration": 0.16320324999998093
                },
                {
                    "name": "G3",
                    "midi": 55,
                    "time": 388.91334474999644,
                    "velocity": 0.4566929133858268,
                    "duration": 0.16320324999998093
                },
                {
                    "name": "D4",
                    "midi": 62,
                    "time": 389.0765479999964,
                    "velocity": 0.6062992125984252,
                    "duration": 0.16320324999998093
                },
                {
                    "name": "B3",
                    "midi": 59,
                    "time": 389.2397512499964,
                    "velocity": 0.47244094488188976,
                    "duration": 0.16320324999998093
                },
                {
                    "name": "G3",
                    "midi": 55,
                    "time": 389.4029544999964,
                    "velocity": 0.47244094488188976,
                    "duration": 0.16320324999998093
                },
                {
                    "name": "B3",
                    "midi": 59,
                    "time": 389.56615774999636,
                    "velocity": 0.47244094488188976,
                    "duration": 0.16320324999998093
                },
                {
                    "name": "D4",
                    "midi": 62,
                    "time": 389.72936099999635,
                    "velocity": 0.5984251968503937,
                    "duration": 0.16320324999998093
                },
                {
                    "name": "B3",
                    "midi": 59,
                    "time": 389.8925642499963,
                    "velocity": 0.47244094488188976,
                    "duration": 0.16320324999998093
                },
                {
                    "name": "G3",
                    "midi": 55,
                    "time": 390.0557674999963,
                    "velocity": 0.47244094488188976,
                    "duration": 0.16320324999998093
                },
                {
                    "name": "B3",
                    "midi": 59,
                    "time": 390.2189707499963,
                    "velocity": 0.47244094488188976,
                    "duration": 0.16320324999998093
                },
                {
                    "name": "D4",
                    "midi": 62,
                    "time": 390.38217399999627,
                    "velocity": 0.5984251968503937,
                    "duration": 0.16320324999998093
                },
                {
                    "name": "B3",
                    "midi": 59,
                    "time": 390.54537724999625,
                    "velocity": 0.4645669291338583,
                    "duration": 0.16320324999998093
                },
                {
                    "name": "G3",
                    "midi": 55,
                    "time": 390.70858049999623,
                    "velocity": 0.4645669291338583,
                    "duration": 0.16320324999998093
                },
                {
                    "name": "B3",
                    "midi": 59,
                    "time": 390.8717837499962,
                    "velocity": 0.4645669291338583,
                    "duration": 0.16320324999998093
                },
                {
                    "name": "D4",
                    "midi": 62,
                    "time": 391.0349869999962,
                    "velocity": 0.5196850393700787,
                    "duration": 0.16320324999998093
                },
                {
                    "name": "B3",
                    "midi": 59,
                    "time": 391.1981902499962,
                    "velocity": 0.4566929133858268,
                    "duration": 0.16320324999998093
                },
                {
                    "name": "G3",
                    "midi": 55,
                    "time": 391.36139349999615,
                    "velocity": 0.4566929133858268,
                    "duration": 0.16320324999998093
                },
                {
                    "name": "B3",
                    "midi": 59,
                    "time": 391.52459674999614,
                    "velocity": 0.4566929133858268,
                    "duration": 0.16320324999998093
                },
                {
                    "name": "F4",
                    "midi": 65,
                    "time": 391.6877999999961,
                    "velocity": 0.5039370078740157,
                    "duration": 0.16320324999998093
                },
                {
                    "name": "B3",
                    "midi": 59,
                    "time": 391.8510032499961,
                    "velocity": 0.30708661417322836,
                    "duration": 0.16320324999998093
                },
                {
                    "name": "D4",
                    "midi": 62,
                    "time": 391.8510032499961,
                    "velocity": 0.3937007874015748,
                    "duration": 0.16320324999998093
                },
                {
                    "name": "G3",
                    "midi": 55,
                    "time": 392.0142064999961,
                    "velocity": 0.3858267716535433,
                    "duration": 0.16320324999998093
                },
                {
                    "name": "D4",
                    "midi": 62,
                    "time": 392.17740974999606,
                    "velocity": 0.3858267716535433,
                    "duration": 0.16320324999998093
                },
                {
                    "name": "B3",
                    "midi": 59,
                    "time": 392.17740974999606,
                    "velocity": 0.30708661417322836,
                    "duration": 0.16320324999998093
                },
                {
                    "name": "F4",
                    "midi": 65,
                    "time": 392.34061299999604,
                    "velocity": 0.4566929133858268,
                    "duration": 0.16320324999998093
                },
                {
                    "name": "D4",
                    "midi": 62,
                    "time": 392.503816249996,
                    "velocity": 0.3700787401574803,
                    "duration": 0.16320324999998093
                },
                {
                    "name": "B3",
                    "midi": 59,
                    "time": 392.503816249996,
                    "velocity": 0.2992125984251969,
                    "duration": 0.16320324999998093
                },
                {
                    "name": "G3",
                    "midi": 55,
                    "time": 392.667019499996,
                    "velocity": 0.3700787401574803,
                    "duration": 0.16320324999998093
                },
                {
                    "name": "D4",
                    "midi": 62,
                    "time": 392.830222749996,
                    "velocity": 0.3700787401574803,
                    "duration": 0.16320324999998093
                },
                {
                    "name": "B3",
                    "midi": 59,
                    "time": 392.830222749996,
                    "velocity": 0.29133858267716534,
                    "duration": 0.16320324999998093
                },
                {
                    "name": "F4",
                    "midi": 65,
                    "time": 392.99342599999596,
                    "velocity": 0.48031496062992124,
                    "duration": 0.16320324999998093
                },
                {
                    "name": "B3",
                    "midi": 59,
                    "time": 393.15662924999594,
                    "velocity": 0.29133858267716534,
                    "duration": 0.16320324999998093
                },
                {
                    "name": "D4",
                    "midi": 62,
                    "time": 393.15662924999594,
                    "velocity": 0.3700787401574803,
                    "duration": 0.16320324999998093
                },
                {
                    "name": "G3",
                    "midi": 55,
                    "time": 393.3198324999959,
                    "velocity": 0.3700787401574803,
                    "duration": 0.16320324999998093
                },
                {
                    "name": "D4",
                    "midi": 62,
                    "time": 393.4830357499959,
                    "velocity": 0.36220472440944884,
                    "duration": 0.16320324999998093
                },
                {
                    "name": "B3",
                    "midi": 59,
                    "time": 393.4830357499959,
                    "velocity": 0.2755905511811024,
                    "duration": 0.16320324999998093
                },
                {
                    "name": "F4",
                    "midi": 65,
                    "time": 393.6462389999959,
                    "velocity": 0.4251968503937008,
                    "duration": 0.16320324999998093
                },
                {
                    "name": "D4",
                    "midi": 62,
                    "time": 393.80944224999587,
                    "velocity": 0.3464566929133858,
                    "duration": 0.16320324999998093
                },
                {
                    "name": "B3",
                    "midi": 59,
                    "time": 393.80944224999587,
                    "velocity": 0.2755905511811024,
                    "duration": 0.16320324999998093
                },
                {
                    "name": "G3",
                    "midi": 55,
                    "time": 393.97264549999585,
                    "velocity": 0.3464566929133858,
                    "duration": 0.16320324999998093
                },
                {
                    "name": "D4",
                    "midi": 62,
                    "time": 394.13584874999583,
                    "velocity": 0.33858267716535434,
                    "duration": 0.16320324999998093
                },
                {
                    "name": "B3",
                    "midi": 59,
                    "time": 394.13584874999583,
                    "velocity": 0.2677165354330709,
                    "duration": 0.16320324999998093
                },
                {
                    "name": "F4",
                    "midi": 65,
                    "time": 394.2990519999958,
                    "velocity": 0.4409448818897638,
                    "duration": 0.16320324999998093
                },
                {
                    "name": "B3",
                    "midi": 59,
                    "time": 394.4622552499958,
                    "velocity": 0.25984251968503935,
                    "duration": 0.16320324999998093
                },
                {
                    "name": "D4",
                    "midi": 62,
                    "time": 394.4622552499958,
                    "velocity": 0.33070866141732286,
                    "duration": 0.16320324999998093
                },
                {
                    "name": "G3",
                    "midi": 55,
                    "time": 394.6254584999958,
                    "velocity": 0.33070866141732286,
                    "duration": 0.16320324999998093
                },
                {
                    "name": "D4",
                    "midi": 62,
                    "time": 394.78866174999575,
                    "velocity": 0.33070866141732286,
                    "duration": 0.16320324999998093
                },
                {
                    "name": "B3",
                    "midi": 59,
                    "time": 394.78866174999575,
                    "velocity": 0.25196850393700787,
                    "duration": 0.16320324999998093
                },
                {
                    "name": "F4",
                    "midi": 65,
                    "time": 394.95186499999573,
                    "velocity": 0.3858267716535433,
                    "duration": 0.16320324999998093
                },
                {
                    "name": "D4",
                    "midi": 62,
                    "time": 395.1150682499957,
                    "velocity": 0.30708661417322836,
                    "duration": 0.16320324999998093
                },
                {
                    "name": "B3",
                    "midi": 59,
                    "time": 395.1150682499957,
                    "velocity": 0.25196850393700787,
                    "duration": 0.16320324999998093
                },
                {
                    "name": "G3",
                    "midi": 55,
                    "time": 395.2782714999957,
                    "velocity": 0.30708661417322836,
                    "duration": 0.16320324999998093
                },
                {
                    "name": "D4",
                    "midi": 62,
                    "time": 395.4414747499957,
                    "velocity": 0.30708661417322836,
                    "duration": 0.16320324999998093
                },
                {
                    "name": "B3",
                    "midi": 59,
                    "time": 395.4414747499957,
                    "velocity": 0.2440944881889764,
                    "duration": 0.16320324999998093
                },
                {
                    "name": "F4",
                    "midi": 65,
                    "time": 395.60467799999566,
                    "velocity": 0.3937007874015748,
                    "duration": 0.16320324999998093
                },
                {
                    "name": "B3",
                    "midi": 59,
                    "time": 395.76788124999564,
                    "velocity": 0.23622047244094488,
                    "duration": 0.16320324999998093
                },
                {
                    "name": "D4",
                    "midi": 62,
                    "time": 395.76788124999564,
                    "velocity": 0.30708661417322836,
                    "duration": 0.16320324999998093
                },
                {
                    "name": "G3",
                    "midi": 55,
                    "time": 395.9310844999956,
                    "velocity": 0.30708661417322836,
                    "duration": 0.16320324999998093
                },
                {
                    "name": "D4",
                    "midi": 62,
                    "time": 396.0942877499956,
                    "velocity": 0.2992125984251969,
                    "duration": 0.16320324999998093
                },
                {
                    "name": "B3",
                    "midi": 59,
                    "time": 396.0942877499956,
                    "velocity": 0.2283464566929134,
                    "duration": 0.16320324999998093
                },
                {
                    "name": "F4",
                    "midi": 65,
                    "time": 396.2574909999956,
                    "velocity": 0.3543307086614173,
                    "duration": 0.16320324999998093
                },
                {
                    "name": "D4",
                    "midi": 62,
                    "time": 396.42069424999556,
                    "velocity": 0.28346456692913385,
                    "duration": 0.16320324999998093
                },
                {
                    "name": "B3",
                    "midi": 59,
                    "time": 396.42069424999556,
                    "velocity": 0.2283464566929134,
                    "duration": 0.16320324999998093
                },
                {
                    "name": "G3",
                    "midi": 55,
                    "time": 396.58389749999554,
                    "velocity": 0.2755905511811024,
                    "duration": 0.16320324999998093
                },
                {
                    "name": "D4",
                    "midi": 62,
                    "time": 396.7471007499955,
                    "velocity": 0.2755905511811024,
                    "duration": 0.16320324999998093
                },
                {
                    "name": "B3",
                    "midi": 59,
                    "time": 396.7471007499955,
                    "velocity": 0.2204724409448819,
                    "duration": 0.16320324999998093
                },
                {
                    "name": "F4",
                    "midi": 65,
                    "time": 396.9103039999955,
                    "velocity": 0.33858267716535434,
                    "duration": 0.16320324999998093
                },
                {
                    "name": "B3",
                    "midi": 59,
                    "time": 397.0735072499955,
                    "velocity": 0.2047244094488189,
                    "duration": 0.16320324999998093
                },
                {
                    "name": "D4",
                    "midi": 62,
                    "time": 397.0735072499955,
                    "velocity": 0.25984251968503935,
                    "duration": 0.16320324999998093
                },
                {
                    "name": "G3",
                    "midi": 55,
                    "time": 397.23671049999547,
                    "velocity": 0.25984251968503935,
                    "duration": 0.16320324999998093
                },
                {
                    "name": "D4",
                    "midi": 62,
                    "time": 397.39991374999545,
                    "velocity": 0.2440944881889764,
                    "duration": 0.16320324999998093
                },
                {
                    "name": "B3",
                    "midi": 59,
                    "time": 397.39991374999545,
                    "velocity": 0.1889763779527559,
                    "duration": 0.16320324999998093
                },
                {
                    "name": "F4",
                    "midi": 65,
                    "time": 397.56311699999543,
                    "velocity": 0.2992125984251969,
                    "duration": 0.16320324999998093
                },
                {
                    "name": "D4",
                    "midi": 62,
                    "time": 397.7263202499954,
                    "velocity": 0.2440944881889764,
                    "duration": 0.16320324999998093
                },
                {
                    "name": "B3",
                    "midi": 59,
                    "time": 397.7263202499954,
                    "velocity": 0.1889763779527559,
                    "duration": 0.16320324999998093
                },
                {
                    "name": "G3",
                    "midi": 55,
                    "time": 397.8895234999954,
                    "velocity": 0.23622047244094488,
                    "duration": 0.16320324999998093
                },
                {
                    "name": "D4",
                    "midi": 62,
                    "time": 398.0527267499954,
                    "velocity": 0.23622047244094488,
                    "duration": 0.16320324999998093
                },
                {
                    "name": "B3",
                    "midi": 59,
                    "time": 398.0527267499954,
                    "velocity": 0.18110236220472442,
                    "duration": 0.16320324999998093
                },
                {
                    "name": "F4",
                    "midi": 65,
                    "time": 398.21592999999535,
                    "velocity": 0.33070866141732286,
                    "duration": 0.16320324999998093
                },
                {
                    "name": "B3",
                    "midi": 59,
                    "time": 398.37913324999533,
                    "velocity": 0.1968503937007874,
                    "duration": 0.16320324999998093
                },
                {
                    "name": "D4",
                    "midi": 62,
                    "time": 398.37913324999533,
                    "velocity": 0.2440944881889764,
                    "duration": 0.16320324999998093
                },
                {
                    "name": "G3",
                    "midi": 55,
                    "time": 398.5423364999953,
                    "velocity": 0.2440944881889764,
                    "duration": 0.16320324999998093
                },
                {
                    "name": "D4",
                    "midi": 62,
                    "time": 398.7055397499953,
                    "velocity": 0.23622047244094488,
                    "duration": 0.16320324999998093
                },
                {
                    "name": "B3",
                    "midi": 59,
                    "time": 398.7055397499953,
                    "velocity": 0.1889763779527559,
                    "duration": 0.16320324999998093
                },
                {
                    "name": "F4",
                    "midi": 65,
                    "time": 398.8687429999953,
                    "velocity": 0.2992125984251969,
                    "duration": 0.16320324999998093
                },
                {
                    "name": "D4",
                    "midi": 62,
                    "time": 399.03194624999526,
                    "velocity": 0.23622047244094488,
                    "duration": 0.16320324999998093
                },
                {
                    "name": "B3",
                    "midi": 59,
                    "time": 399.03194624999526,
                    "velocity": 0.18110236220472442,
                    "duration": 0.16320324999998093
                },
                {
                    "name": "G3",
                    "midi": 55,
                    "time": 399.19514949999524,
                    "velocity": 0.23622047244094488,
                    "duration": 0.16320324999998093
                },
                {
                    "name": "D4",
                    "midi": 62,
                    "time": 399.3583527499952,
                    "velocity": 0.23622047244094488,
                    "duration": 0.16320324999998093
                },
                {
                    "name": "B3",
                    "midi": 59,
                    "time": 399.3583527499952,
                    "velocity": 0.1732283464566929,
                    "duration": 0.16320324999998093
                },
                {
                    "name": "F4",
                    "midi": 65,
                    "time": 399.5215559999952,
                    "velocity": 0.31496062992125984,
                    "duration": 0.16320324999998093
                },
                {
                    "name": "B3",
                    "midi": 59,
                    "time": 399.6847592499952,
                    "velocity": 0.1889763779527559,
                    "duration": 0.16320324999998093
                },
                {
                    "name": "D4",
                    "midi": 62,
                    "time": 399.6847592499952,
                    "velocity": 0.23622047244094488,
                    "duration": 0.16320324999998093
                },
                {
                    "name": "G3",
                    "midi": 55,
                    "time": 399.84796249999516,
                    "velocity": 0.23622047244094488,
                    "duration": 0.16320324999998093
                },
                {
                    "name": "D4",
                    "midi": 62,
                    "time": 400.01116574999514,
                    "velocity": 0.23622047244094488,
                    "duration": 0.16320324999998093
                },
                {
                    "name": "B3",
                    "midi": 59,
                    "time": 400.01116574999514,
                    "velocity": 0.18110236220472442,
                    "duration": 0.16320324999998093
                },
                {
                    "name": "F4",
                    "midi": 65,
                    "time": 400.1743689999951,
                    "velocity": 0.28346456692913385,
                    "duration": 0.16320324999998093
                },
                {
                    "name": "D4",
                    "midi": 62,
                    "time": 400.3375722499951,
                    "velocity": 0.23622047244094488,
                    "duration": 0.16320324999998093
                },
                {
                    "name": "B3",
                    "midi": 59,
                    "time": 400.3375722499951,
                    "velocity": 0.18110236220472442,
                    "duration": 0.16320324999998093
                },
                {
                    "name": "G3",
                    "midi": 55,
                    "time": 400.5007754999951,
                    "velocity": 0.2283464566929134,
                    "duration": 0.16320324999998093
                },
                {
                    "name": "D4",
                    "midi": 62,
                    "time": 400.66397874999507,
                    "velocity": 0.2283464566929134,
                    "duration": 0.16320324999998093
                },
                {
                    "name": "B3",
                    "midi": 59,
                    "time": 400.66397874999507,
                    "velocity": 0.16535433070866143,
                    "duration": 0.16320324999998093
                },
                {
                    "name": "F4",
                    "midi": 65,
                    "time": 400.82718199999505,
                    "velocity": 0.31496062992125984,
                    "duration": 0.16320324999998093
                },
                {
                    "name": "B3",
                    "midi": 59,
                    "time": 400.99038524999503,
                    "velocity": 0.18110236220472442,
                    "duration": 0.16320324999998093
                },
                {
                    "name": "D4",
                    "midi": 62,
                    "time": 400.99038524999503,
                    "velocity": 0.2440944881889764,
                    "duration": 0.16320324999998093
                },
                {
                    "name": "G3",
                    "midi": 55,
                    "time": 401.153588499995,
                    "velocity": 0.23622047244094488,
                    "duration": 0.16320324999998093
                },
                {
                    "name": "D4",
                    "midi": 62,
                    "time": 401.316791749995,
                    "velocity": 0.2283464566929134,
                    "duration": 0.16320324999998093
                },
                {
                    "name": "B3",
                    "midi": 59,
                    "time": 401.316791749995,
                    "velocity": 0.18110236220472442,
                    "duration": 0.16320324999998093
                },
                {
                    "name": "F4",
                    "midi": 65,
                    "time": 401.479994999995,
                    "velocity": 0.2755905511811024,
                    "duration": 0.16320324999998093
                },
                {
                    "name": "D4",
                    "midi": 62,
                    "time": 401.64319824999495,
                    "velocity": 0.2283464566929134,
                    "duration": 0.16320324999998093
                },
                {
                    "name": "B3",
                    "midi": 59,
                    "time": 401.64319824999495,
                    "velocity": 0.18110236220472442,
                    "duration": 0.16320324999998093
                },
                {
                    "name": "G3",
                    "midi": 55,
                    "time": 401.80640149999493,
                    "velocity": 0.2204724409448819,
                    "duration": 0.16320324999998093
                },
                {
                    "name": "D4",
                    "midi": 62,
                    "time": 401.9696047499949,
                    "velocity": 0.2204724409448819,
                    "duration": 0.16320324999998093
                },
                {
                    "name": "B3",
                    "midi": 59,
                    "time": 401.9696047499949,
                    "velocity": 0.1732283464566929,
                    "duration": 0.16320324999998093
                },
                {
                    "name": "F4",
                    "midi": 65,
                    "time": 402.1328079999949,
                    "velocity": 0.30708661417322836,
                    "duration": 0.16320324999998093
                },
                {
                    "name": "B3",
                    "midi": 59,
                    "time": 402.2960112499949,
                    "velocity": 0.18110236220472442,
                    "duration": 0.16320324999998093
                },
                {
                    "name": "D4",
                    "midi": 62,
                    "time": 402.2960112499949,
                    "velocity": 0.23622047244094488,
                    "duration": 0.16320324999998093
                },
                {
                    "name": "G3",
                    "midi": 55,
                    "time": 402.45921449999486,
                    "velocity": 0.23622047244094488,
                    "duration": 0.16320324999998093
                },
                {
                    "name": "D4",
                    "midi": 62,
                    "time": 402.62241774999484,
                    "velocity": 0.2283464566929134,
                    "duration": 0.16320324999998093
                },
                {
                    "name": "B3",
                    "midi": 59,
                    "time": 402.62241774999484,
                    "velocity": 0.18110236220472442,
                    "duration": 0.16320324999998093
                },
                {
                    "name": "F4",
                    "midi": 65,
                    "time": 402.7856209999948,
                    "velocity": 0.28346456692913385,
                    "duration": 0.16320324999998093
                },
                {
                    "name": "D4",
                    "midi": 62,
                    "time": 402.9488242499948,
                    "velocity": 0.2283464566929134,
                    "duration": 0.16320324999998093
                },
                {
                    "name": "B3",
                    "midi": 59,
                    "time": 402.9488242499948,
                    "velocity": 0.18110236220472442,
                    "duration": 0.16320324999998093
                },
                {
                    "name": "G3",
                    "midi": 55,
                    "time": 403.1120274999948,
                    "velocity": 0.2204724409448819,
                    "duration": 0.16320324999998093
                },
                {
                    "name": "D4",
                    "midi": 62,
                    "time": 403.27523074999476,
                    "velocity": 0.2204724409448819,
                    "duration": 0.16320324999998093
                },
                {
                    "name": "B3",
                    "midi": 59,
                    "time": 403.27523074999476,
                    "velocity": 0.1732283464566929,
                    "duration": 0.16320324999998093
                },
                {
                    "name": "F4",
                    "midi": 65,
                    "time": 403.43843399999474,
                    "velocity": 0.30708661417322836,
                    "duration": 0.16320324999998093
                },
                {
                    "name": "B3",
                    "midi": 59,
                    "time": 403.6016372499947,
                    "velocity": 0.1889763779527559,
                    "duration": 0.16320324999998093
                },
                {
                    "name": "D4",
                    "midi": 62,
                    "time": 403.6016372499947,
                    "velocity": 0.23622047244094488,
                    "duration": 0.16320324999998093
                },
                {
                    "name": "G3",
                    "midi": 55,
                    "time": 403.7648404999947,
                    "velocity": 0.23622047244094488,
                    "duration": 0.16320324999998093
                },
                {
                    "name": "D4",
                    "midi": 62,
                    "time": 403.9280437499947,
                    "velocity": 0.2283464566929134,
                    "duration": 0.16320324999998093
                },
                {
                    "name": "B3",
                    "midi": 59,
                    "time": 403.9280437499947,
                    "velocity": 0.18110236220472442,
                    "duration": 0.16320324999998093
                },
                {
                    "name": "F4",
                    "midi": 65,
                    "time": 404.09124699999467,
                    "velocity": 0.28346456692913385,
                    "duration": 0.16320324999998093
                },
                {
                    "name": "D4",
                    "midi": 62,
                    "time": 404.25445024999465,
                    "velocity": 0.2283464566929134,
                    "duration": 0.16320324999998093
                },
                {
                    "name": "B3",
                    "midi": 59,
                    "time": 404.25445024999465,
                    "velocity": 0.18110236220472442,
                    "duration": 0.16320324999998093
                },
                {
                    "name": "G3",
                    "midi": 55,
                    "time": 404.4176534999946,
                    "velocity": 0.2204724409448819,
                    "duration": 0.16320324999998093
                },
                {
                    "name": "D4",
                    "midi": 62,
                    "time": 404.5808567499946,
                    "velocity": 0.2204724409448819,
                    "duration": 0.16320324999998093
                },
                {
                    "name": "B3",
                    "midi": 59,
                    "time": 404.5808567499946,
                    "velocity": 0.1732283464566929,
                    "duration": 0.16320324999998093
                },
                {
                    "name": "F4",
                    "midi": 65,
                    "time": 404.7440599999946,
                    "velocity": 0.31496062992125984,
                    "duration": 0.16320324999998093
                },
                {
                    "name": "B3",
                    "midi": 59,
                    "time": 404.90726324999457,
                    "velocity": 0.1889763779527559,
                    "duration": 0.16320324999998093
                },
                {
                    "name": "D4",
                    "midi": 62,
                    "time": 404.90726324999457,
                    "velocity": 0.2440944881889764,
                    "duration": 0.16320324999998093
                },
                {
                    "name": "G3",
                    "midi": 55,
                    "time": 405.07046649999455,
                    "velocity": 0.2440944881889764,
                    "duration": 0.16320324999998093
                },
                {
                    "name": "D4",
                    "midi": 62,
                    "time": 405.23366974999453,
                    "velocity": 0.23622047244094488,
                    "duration": 0.16320324999998093
                },
                {
                    "name": "B3",
                    "midi": 59,
                    "time": 405.23366974999453,
                    "velocity": 0.18110236220472442,
                    "duration": 0.16320324999998093
                },
                {
                    "name": "F4",
                    "midi": 65,
                    "time": 405.3968729999945,
                    "velocity": 0.28346456692913385,
                    "duration": 0.16320324999998093
                },
                {
                    "name": "D4",
                    "midi": 62,
                    "time": 405.5600762499945,
                    "velocity": 0.23622047244094488,
                    "duration": 0.16320324999998093
                },
                {
                    "name": "B3",
                    "midi": 59,
                    "time": 405.5600762499945,
                    "velocity": 0.18110236220472442,
                    "duration": 0.16320324999998093
                },
                {
                    "name": "G3",
                    "midi": 55,
                    "time": 405.7232794999945,
                    "velocity": 0.2283464566929134,
                    "duration": 0.16320324999998093
                },
                {
                    "name": "D4",
                    "midi": 62,
                    "time": 405.88648274999446,
                    "velocity": 0.2283464566929134,
                    "duration": 0.16320324999998093
                },
                {
                    "name": "B3",
                    "midi": 59,
                    "time": 405.88648274999446,
                    "velocity": 0.1732283464566929,
                    "duration": 0.16320324999998093
                },
                {
                    "name": "F4",
                    "midi": 65,
                    "time": 406.04968599999444,
                    "velocity": 0.31496062992125984,
                    "duration": 0.16320324999998093
                },
                {
                    "name": "B3",
                    "midi": 59,
                    "time": 406.2128892499944,
                    "velocity": 0.1889763779527559,
                    "duration": 0.16320324999998093
                },
                {
                    "name": "D4",
                    "midi": 62,
                    "time": 406.2128892499944,
                    "velocity": 0.2440944881889764,
                    "duration": 0.16320324999998093
                },
                {
                    "name": "G3",
                    "midi": 55,
                    "time": 406.3760924999944,
                    "velocity": 0.2440944881889764,
                    "duration": 0.16320324999998093
                },
                {
                    "name": "D4",
                    "midi": 62,
                    "time": 406.5392957499944,
                    "velocity": 0.23622047244094488,
                    "duration": 0.16320324999998093
                },
                {
                    "name": "B3",
                    "midi": 59,
                    "time": 406.5392957499944,
                    "velocity": 0.18110236220472442,
                    "duration": 0.16320324999998093
                },
                {
                    "name": "B3",
                    "midi": 59,
                    "time": 406.70249899999436,
                    "velocity": 0.5354330708661418,
                    "duration": 0.16320324999998093
                },
                {
                    "name": "B4",
                    "midi": 71,
                    "time": 406.70249899999436,
                    "velocity": 0.6299212598425197,
                    "duration": 0.16320324999998093
                },
                {
                    "name": "D4",
                    "midi": 62,
                    "time": 406.86570224999434,
                    "velocity": 0.5354330708661418,
                    "duration": 0.16320324999998093
                },
                {
                    "name": "B3",
                    "midi": 59,
                    "time": 406.86570224999434,
                    "velocity": 0.44881889763779526,
                    "duration": 0.16320324999998093
                },
                {
                    "name": "B3",
                    "midi": 59,
                    "time": 407.0289054999943,
                    "velocity": 0.44881889763779526,
                    "duration": 0.16320324999998093
                },
                {
                    "name": "B4",
                    "midi": 71,
                    "time": 407.0289054999943,
                    "velocity": 0.5433070866141733,
                    "duration": 0.16320324999998093
                },
                {
                    "name": "D4",
                    "midi": 62,
                    "time": 407.1921087499943,
                    "velocity": 0.5433070866141733,
                    "duration": 0.16320324999998093
                },
                {
                    "name": "B3",
                    "midi": 59,
                    "time": 407.1921087499943,
                    "velocity": 0.44881889763779526,
                    "duration": 0.16320324999998093
                },
                {
                    "name": "C4",
                    "midi": 60,
                    "time": 407.3553119999943,
                    "velocity": 0.6850393700787402,
                    "duration": 0.16320324999998093
                },
                {
                    "name": "E4",
                    "midi": 64,
                    "time": 407.3553119999943,
                    "velocity": 0.7165354330708661,
                    "duration": 0.16320324999998093
                },
                {
                    "name": "C5",
                    "midi": 72,
                    "time": 407.3553119999943,
                    "velocity": 0.8188976377952756,
                    "duration": 0.16320324999998093
                },
                {
                    "name": "G6",
                    "midi": 91,
                    "time": 408.00812499999427,
                    "velocity": 0.7401574803149606,
                    "duration": 0.3264065000000187
                },
                {
                    "name": "G5",
                    "midi": 79,
                    "time": 408.00812499999427,
                    "velocity": 0.6062992125984252,
                    "duration": 0.3264065000000187
                },
                {
                    "name": "G6",
                    "midi": 91,
                    "time": 408.6609379999943,
                    "velocity": 0.7874015748031497,
                    "duration": 0.9792194999999992
                },
                {
                    "name": "G5",
                    "midi": 79,
                    "time": 408.6609379999943,
                    "velocity": 0.6614173228346457,
                    "duration": 0.9792194999999992
                },
                {
                    "name": "E6",
                    "midi": 88,
                    "time": 409.6401574999943,
                    "velocity": 0.6850393700787402,
                    "duration": 0.3264065000000187
                },
                {
                    "name": "E5",
                    "midi": 76,
                    "time": 409.6401574999943,
                    "velocity": 0.5748031496062992,
                    "duration": 0.3264065000000187
                },
                {
                    "name": "D6",
                    "midi": 86,
                    "time": 409.9665639999943,
                    "velocity": 0.7401574803149606,
                    "duration": 0.6528129999999805
                },
                {
                    "name": "D5",
                    "midi": 74,
                    "time": 409.9665639999943,
                    "velocity": 0.6062992125984252,
                    "duration": 0.6528129999999805
                },
                {
                    "name": "G5",
                    "midi": 79,
                    "time": 410.6193769999943,
                    "velocity": 0.5984251968503937,
                    "duration": 0.6528129999999805
                },
                {
                    "name": "G4",
                    "midi": 67,
                    "time": 410.6193769999943,
                    "velocity": 0.49606299212598426,
                    "duration": 0.6528129999999805
                },
                {
                    "name": "C6",
                    "midi": 84,
                    "time": 411.2721899999943,
                    "velocity": 0.6929133858267716,
                    "duration": 0.6528129999999805
                },
                {
                    "name": "C5",
                    "midi": 72,
                    "time": 411.2721899999943,
                    "velocity": 0.5905511811023622,
                    "duration": 0.6528129999999805
                },
                {
                    "name": "E6",
                    "midi": 88,
                    "time": 411.92500299999426,
                    "velocity": 0.6850393700787402,
                    "duration": 0.3264065000000187
                },
                {
                    "name": "E5",
                    "midi": 76,
                    "time": 411.92500299999426,
                    "velocity": 0.5748031496062992,
                    "duration": 0.3264065000000187
                },
                {
                    "name": "G6",
                    "midi": 91,
                    "time": 413.2306289999943,
                    "velocity": 0.7401574803149606,
                    "duration": 0.3264065000000187
                },
                {
                    "name": "G5",
                    "midi": 79,
                    "time": 413.2306289999943,
                    "velocity": 0.6062992125984252,
                    "duration": 0.3264065000000187
                },
                {
                    "name": "G6",
                    "midi": 91,
                    "time": 413.8834419999943,
                    "velocity": 0.7874015748031497,
                    "duration": 0.9792194999999992
                },
                {
                    "name": "G5",
                    "midi": 79,
                    "time": 413.8834419999943,
                    "velocity": 0.6614173228346457,
                    "duration": 0.9792194999999992
                },
                {
                    "name": "E6",
                    "midi": 88,
                    "time": 414.8626614999943,
                    "velocity": 0.6850393700787402,
                    "duration": 0.3264065000000187
                },
                {
                    "name": "E5",
                    "midi": 76,
                    "time": 414.8626614999943,
                    "velocity": 0.5748031496062992,
                    "duration": 0.3264065000000187
                },
                {
                    "name": "D6",
                    "midi": 86,
                    "time": 415.18906799999434,
                    "velocity": 0.7401574803149606,
                    "duration": 0.6528129999999805
                },
                {
                    "name": "D5",
                    "midi": 74,
                    "time": 415.18906799999434,
                    "velocity": 0.6062992125984252,
                    "duration": 0.6528129999999805
                },
                {
                    "name": "G5",
                    "midi": 79,
                    "time": 415.8418809999943,
                    "velocity": 0.5984251968503937,
                    "duration": 0.6528129999999805
                },
                {
                    "name": "G4",
                    "midi": 67,
                    "time": 415.8418809999943,
                    "velocity": 0.49606299212598426,
                    "duration": 0.6528129999999805
                },
                {
                    "name": "C6",
                    "midi": 84,
                    "time": 416.4946939999943,
                    "velocity": 0.6535433070866141,
                    "duration": 0.3264065000000187
                },
                {
                    "name": "C5",
                    "midi": 72,
                    "time": 416.4946939999943,
                    "velocity": 0.5433070866141733,
                    "duration": 0.3264065000000187
                },
                {
                    "name": "F6",
                    "midi": 89,
                    "time": 418.4531329999943,
                    "velocity": 0.6456692913385826,
                    "duration": 0.3264065000000187
                },
                {
                    "name": "F5",
                    "midi": 77,
                    "time": 418.4531329999943,
                    "velocity": 0.5433070866141733,
                    "duration": 0.3264065000000187
                },
                {
                    "name": "F6",
                    "midi": 89,
                    "time": 419.10594599999433,
                    "velocity": 0.6771653543307087,
                    "duration": 0.9792194999999992
                },
                {
                    "name": "F5",
                    "midi": 77,
                    "time": 419.10594599999433,
                    "velocity": 0.5748031496062992,
                    "duration": 0.9792194999999992
                },
                {
                    "name": "D6",
                    "midi": 86,
                    "time": 420.08516549999433,
                    "velocity": 0.4330708661417323,
                    "duration": 0.3264065000000187
                },
                {
                    "name": "D5",
                    "midi": 74,
                    "time": 420.08516549999433,
                    "velocity": 0.3543307086614173,
                    "duration": 0.3264065000000187
                },
                {
                    "name": "E6",
                    "midi": 88,
                    "time": 420.41157199999435,
                    "velocity": 0.4094488188976378,
                    "duration": 0.6528129999999805
                },
                {
                    "name": "E5",
                    "midi": 76,
                    "time": 420.41157199999435,
                    "velocity": 0.3464566929133858,
                    "duration": 0.6528129999999805
                },
                {
                    "name": "C6",
                    "midi": 84,
                    "time": 421.06438499999433,
                    "velocity": 0.33070866141732286,
                    "duration": 0.6528129999999805
                },
                {
                    "name": "C5",
                    "midi": 72,
                    "time": 421.06438499999433,
                    "velocity": 0.2755905511811024,
                    "duration": 0.6528129999999805
                },
                {
                    "name": "B5",
                    "midi": 83,
                    "time": 421.7171979999943,
                    "velocity": 0.4094488188976378,
                    "duration": 0.6528129999999805
                },
                {
                    "name": "B4",
                    "midi": 71,
                    "time": 421.7171979999943,
                    "velocity": 0.3464566929133858,
                    "duration": 0.6528129999999805
                },
                {
                    "name": "D6",
                    "midi": 86,
                    "time": 422.3700109999943,
                    "velocity": 0.3858267716535433,
                    "duration": 0.3264065000000187
                },
                {
                    "name": "D5",
                    "midi": 74,
                    "time": 422.3700109999943,
                    "velocity": 0.3228346456692913,
                    "duration": 0.3264065000000187
                },
                {
                    "name": "F6",
                    "midi": 89,
                    "time": 423.6756369999943,
                    "velocity": 0.6141732283464567,
                    "duration": 0.3264065000000187
                },
                {
                    "name": "F5",
                    "midi": 77,
                    "time": 423.6756369999943,
                    "velocity": 0.5196850393700787,
                    "duration": 0.3264065000000187
                },
                {
                    "name": "F6",
                    "midi": 89,
                    "time": 424.32844999999435,
                    "velocity": 0.6692913385826772,
                    "duration": 0.9792194999999992
                },
                {
                    "name": "F5",
                    "midi": 77,
                    "time": 424.32844999999435,
                    "velocity": 0.5590551181102362,
                    "duration": 0.9792194999999992
                },
                {
                    "name": "D6",
                    "midi": 86,
                    "time": 425.30766949999435,
                    "velocity": 0.4881889763779528,
                    "duration": 0.3264065000000187
                },
                {
                    "name": "D5",
                    "midi": 74,
                    "time": 425.30766949999435,
                    "velocity": 0.4015748031496063,
                    "duration": 0.3264065000000187
                },
                {
                    "name": "D#6",
                    "midi": 87,
                    "time": 425.63407599999437,
                    "velocity": 0.3937007874015748,
                    "duration": 0.6528129999999805
                },
                {
                    "name": "D#5",
                    "midi": 75,
                    "time": 425.63407599999437,
                    "velocity": 0.33070866141732286,
                    "duration": 0.6528129999999805
                },
                {
                    "name": "C6",
                    "midi": 84,
                    "time": 426.28688899999435,
                    "velocity": 0.30708661417322836,
                    "duration": 0.6528129999999805
                },
                {
                    "name": "C5",
                    "midi": 72,
                    "time": 426.28688899999435,
                    "velocity": 0.25984251968503935,
                    "duration": 0.6528129999999805
                },
                {
                    "name": "B5",
                    "midi": 83,
                    "time": 426.9397019999943,
                    "velocity": 0.3937007874015748,
                    "duration": 0.6528129999999805
                },
                {
                    "name": "B4",
                    "midi": 71,
                    "time": 426.9397019999943,
                    "velocity": 0.33070866141732286,
                    "duration": 0.6528129999999805
                },
                {
                    "name": "D6",
                    "midi": 86,
                    "time": 427.5925149999943,
                    "velocity": 0.3543307086614173,
                    "duration": 0.6528129999999805
                },
                {
                    "name": "D5",
                    "midi": 74,
                    "time": 427.5925149999943,
                    "velocity": 0.2992125984251969,
                    "duration": 0.6528129999999805
                },
                {
                    "name": "E6",
                    "midi": 88,
                    "time": 428.2453279999943,
                    "velocity": 0.47244094488188976,
                    "duration": 0.6528129999999805
                },
                {
                    "name": "E5",
                    "midi": 76,
                    "time": 428.2453279999943,
                    "velocity": 0.3937007874015748,
                    "duration": 0.6528129999999805
                },
                {
                    "name": "C6",
                    "midi": 84,
                    "time": 428.89814099999427,
                    "velocity": 0.3937007874015748,
                    "duration": 0.6528129999999805
                },
                {
                    "name": "C5",
                    "midi": 72,
                    "time": 428.89814099999427,
                    "velocity": 0.33070866141732286,
                    "duration": 0.6528129999999805
                },
                {
                    "name": "B5",
                    "midi": 83,
                    "time": 429.55095399999425,
                    "velocity": 0.49606299212598426,
                    "duration": 0.6528129999999805
                },
                {
                    "name": "B4",
                    "midi": 71,
                    "time": 429.55095399999425,
                    "velocity": 0.4251968503937008,
                    "duration": 0.6528129999999805
                },
                {
                    "name": "D6",
                    "midi": 86,
                    "time": 430.20376699999423,
                    "velocity": 0.4881889763779528,
                    "duration": 0.6528129999999805
                },
                {
                    "name": "D5",
                    "midi": 74,
                    "time": 430.20376699999423,
                    "velocity": 0.4094488188976378,
                    "duration": 0.6528129999999805
                },
                {
                    "name": "D#6",
                    "midi": 87,
                    "time": 430.8565799999942,
                    "velocity": 0.47244094488188976,
                    "duration": 0.6528129999999805
                },
                {
                    "name": "D#5",
                    "midi": 75,
                    "time": 430.8565799999942,
                    "velocity": 0.47244094488188976,
                    "duration": 0.6528129999999805
                },
                {
                    "name": "C6",
                    "midi": 84,
                    "time": 431.5093929999942,
                    "velocity": 0.3858267716535433,
                    "duration": 0.6528129999999805
                },
                {
                    "name": "C5",
                    "midi": 72,
                    "time": 431.5093929999942,
                    "velocity": 0.31496062992125984,
                    "duration": 0.6528129999999805
                },
                {
                    "name": "G5",
                    "midi": 79,
                    "time": 432.16220599999417,
                    "velocity": 0.3937007874015748,
                    "duration": 0.6528129999999805
                },
                {
                    "name": "G5",
                    "midi": 79,
                    "time": 432.81501899999415,
                    "velocity": 0.3700787401574803,
                    "duration": 0.6528129999999805
                },
                {
                    "name": "A5",
                    "midi": 81,
                    "time": 433.46783199999413,
                    "velocity": 0.29133858267716534,
                    "duration": 0.10880216666669185
                },
                {
                    "name": "G5",
                    "midi": 79,
                    "time": 433.5766341666608,
                    "velocity": 0.29133858267716534,
                    "duration": 0.10880216666669185
                },
                {
                    "name": "A5",
                    "midi": 81,
                    "time": 433.6854363333275,
                    "velocity": 0.29133858267716534,
                    "duration": 0.10880216666669185
                },
                {
                    "name": "G5",
                    "midi": 79,
                    "time": 433.7942384999942,
                    "velocity": 0.29133858267716534,
                    "duration": 0.10880216666669185
                },
                {
                    "name": "A5",
                    "midi": 81,
                    "time": 433.9030406666609,
                    "velocity": 0.2992125984251969,
                    "duration": 0.10880216666669185
                },
                {
                    "name": "G5",
                    "midi": 79,
                    "time": 434.0118428333276,
                    "velocity": 0.2992125984251969,
                    "duration": 0.10880216666669185
                },
                {
                    "name": "A5",
                    "midi": 81,
                    "time": 434.1206449999943,
                    "velocity": 0.30708661417322836,
                    "duration": 0.10880216666669185
                },
                {
                    "name": "G5",
                    "midi": 79,
                    "time": 434.229447166661,
                    "velocity": 0.30708661417322836,
                    "duration": 0.10880216666669185
                },
                {
                    "name": "A5",
                    "midi": 81,
                    "time": 434.33824933332767,
                    "velocity": 0.30708661417322836,
                    "duration": 0.10880216666669185
                },
                {
                    "name": "G5",
                    "midi": 79,
                    "time": 434.44705149999436,
                    "velocity": 0.30708661417322836,
                    "duration": 0.10880216666669185
                },
                {
                    "name": "A5",
                    "midi": 81,
                    "time": 434.55585366666105,
                    "velocity": 0.31496062992125984,
                    "duration": 0.10880216666669185
                },
                {
                    "name": "G5",
                    "midi": 79,
                    "time": 434.66465583332774,
                    "velocity": 0.31496062992125984,
                    "duration": 0.10880216666669185
                },
                {
                    "name": "A5",
                    "midi": 81,
                    "time": 434.77345799999443,
                    "velocity": 0.3228346456692913,
                    "duration": 0.10880216666669185
                },
                {
                    "name": "G5",
                    "midi": 79,
                    "time": 434.8822601666611,
                    "velocity": 0.3228346456692913,
                    "duration": 0.10880216666669185
                },
                {
                    "name": "A5",
                    "midi": 81,
                    "time": 434.9910623333278,
                    "velocity": 0.3228346456692913,
                    "duration": 0.10880216666669185
                },
                {
                    "name": "G5",
                    "midi": 79,
                    "time": 435.0998644999945,
                    "velocity": 0.33858267716535434,
                    "duration": 0.10880216666669185
                },
                {
                    "name": "A5",
                    "midi": 81,
                    "time": 435.2086666666612,
                    "velocity": 0.33858267716535434,
                    "duration": 0.10880216666669185
                },
                {
                    "name": "G5",
                    "midi": 79,
                    "time": 435.3174688333279,
                    "velocity": 0.33858267716535434,
                    "duration": 0.10880216666669185
                },
                {
                    "name": "A5",
                    "midi": 81,
                    "time": 435.4262709999946,
                    "velocity": 0.3464566929133858,
                    "duration": 0.10880216666669185
                },
                {
                    "name": "G5",
                    "midi": 79,
                    "time": 435.5350731666613,
                    "velocity": 0.3464566929133858,
                    "duration": 0.10880216666669185
                },
                {
                    "name": "A5",
                    "midi": 81,
                    "time": 435.64387533332797,
                    "velocity": 0.3543307086614173,
                    "duration": 0.10880216666669185
                },
                {
                    "name": "G5",
                    "midi": 79,
                    "time": 435.75267749999466,
                    "velocity": 0.3543307086614173,
                    "duration": 0.10880216666669185
                },
                {
                    "name": "A5",
                    "midi": 81,
                    "time": 435.86147966666135,
                    "velocity": 0.3543307086614173,
                    "duration": 0.10880216666669185
                },
                {
                    "name": "G5",
                    "midi": 79,
                    "time": 435.97028183332804,
                    "velocity": 0.3543307086614173,
                    "duration": 0.10880216666669185
                },
                {
                    "name": "A5",
                    "midi": 81,
                    "time": 436.07908399999474,
                    "velocity": 0.3700787401574803,
                    "duration": 0.10880216666669185
                },
                {
                    "name": "G5",
                    "midi": 79,
                    "time": 436.18788616666143,
                    "velocity": 0.3700787401574803,
                    "duration": 0.10880216666669185
                },
                {
                    "name": "A5",
                    "midi": 81,
                    "time": 436.2966883333281,
                    "velocity": 0.3700787401574803,
                    "duration": 0.10880216666669185
                },
                {
                    "name": "G5",
                    "midi": 79,
                    "time": 436.4054904999948,
                    "velocity": 0.3700787401574803,
                    "duration": 0.10880216666669185
                },
                {
                    "name": "A5",
                    "midi": 81,
                    "time": 436.5142926666615,
                    "velocity": 0.3700787401574803,
                    "duration": 0.10880216666669185
                },
                {
                    "name": "G5",
                    "midi": 79,
                    "time": 436.6230948333282,
                    "velocity": 0.3779527559055118,
                    "duration": 0.10880216666669185
                },
                {
                    "name": "A5",
                    "midi": 81,
                    "time": 436.7318969999949,
                    "velocity": 0.3779527559055118,
                    "duration": 0.10880216666669185
                },
                {
                    "name": "G5",
                    "midi": 79,
                    "time": 436.8406991666616,
                    "velocity": 0.3779527559055118,
                    "duration": 0.10880216666669185
                },
                {
                    "name": "A5",
                    "midi": 81,
                    "time": 436.94950133332827,
                    "velocity": 0.3858267716535433,
                    "duration": 0.10880216666669185
                },
                {
                    "name": "G5",
                    "midi": 79,
                    "time": 437.05830349999496,
                    "velocity": 0.3858267716535433,
                    "duration": 0.10880216666669185
                },
                {
                    "name": "A5",
                    "midi": 81,
                    "time": 437.16710566666166,
                    "velocity": 0.3937007874015748,
                    "duration": 0.10880216666669185
                },
                {
                    "name": "G5",
                    "midi": 79,
                    "time": 437.27590783332835,
                    "velocity": 0.4015748031496063,
                    "duration": 0.10880216666669185
                },
                {
                    "name": "A5",
                    "midi": 81,
                    "time": 437.38470999999504,
                    "velocity": 0.4015748031496063,
                    "duration": 0.10880216666669185
                },
                {
                    "name": "G5",
                    "midi": 79,
                    "time": 437.49351216666173,
                    "velocity": 0.4094488188976378,
                    "duration": 0.10880216666669185
                },
                {
                    "name": "A5",
                    "midi": 81,
                    "time": 437.6023143333284,
                    "velocity": 0.4094488188976378,
                    "duration": 0.10880216666669185
                },
                {
                    "name": "G5",
                    "midi": 79,
                    "time": 437.7111164999951,
                    "velocity": 0.4094488188976378,
                    "duration": 0.10880216666669185
                },
                {
                    "name": "A5",
                    "midi": 81,
                    "time": 437.8199186666618,
                    "velocity": 0.4251968503937008,
                    "duration": 0.10880216666669185
                },
                {
                    "name": "G5",
                    "midi": 79,
                    "time": 437.9287208333285,
                    "velocity": 0.4251968503937008,
                    "duration": 0.10880216666669185
                },
                {
                    "name": "A5",
                    "midi": 81,
                    "time": 438.0375229999952,
                    "velocity": 0.4251968503937008,
                    "duration": 0.10880216666669185
                },
                {
                    "name": "G5",
                    "midi": 79,
                    "time": 438.1463251666619,
                    "velocity": 0.4330708661417323,
                    "duration": 0.10880216666669185
                },
                {
                    "name": "A5",
                    "midi": 81,
                    "time": 438.2551273333286,
                    "velocity": 0.4330708661417323,
                    "duration": 0.10880216666669185
                },
                {
                    "name": "G5",
                    "midi": 79,
                    "time": 438.36392949999527,
                    "velocity": 0.4330708661417323,
                    "duration": 0.10880216666669185
                },
                {
                    "name": "A5",
                    "midi": 81,
                    "time": 438.47273166666196,
                    "velocity": 0.4409448818897638,
                    "duration": 0.10880216666669185
                },
                {
                    "name": "G5",
                    "midi": 79,
                    "time": 438.58153383332865,
                    "velocity": 0.4409448818897638,
                    "duration": 0.10880216666669185
                },
                {
                    "name": "G6",
                    "midi": 91,
                    "time": 439.3431489999953,
                    "velocity": 0.7007874015748031,
                    "duration": 0.3264065000000187
                },
                {
                    "name": "G6",
                    "midi": 91,
                    "time": 439.99596199999536,
                    "velocity": 0.7086614173228346,
                    "duration": 0.9792194999999992
                },
                {
                    "name": "E6",
                    "midi": 88,
                    "time": 440.97518149999536,
                    "velocity": 0.6692913385826772,
                    "duration": 0.3264065000000187
                },
                {
                    "name": "D6",
                    "midi": 86,
                    "time": 441.3015879999954,
                    "velocity": 0.7086614173228346,
                    "duration": 0.6528129999999805
                },
                {
                    "name": "G5",
                    "midi": 79,
                    "time": 441.95440099999536,
                    "velocity": 0.6614173228346457,
                    "duration": 0.6528129999999805
                },
                {
                    "name": "C6",
                    "midi": 84,
                    "time": 442.60721399999534,
                    "velocity": 0.6850393700787402,
                    "duration": 0.6528129999999805
                },
                {
                    "name": "E6",
                    "midi": 88,
                    "time": 443.2600269999953,
                    "velocity": 0.6614173228346457,
                    "duration": 0.3264065000000187
                },
                {
                    "name": "G6",
                    "midi": 91,
                    "time": 444.56565299999534,
                    "velocity": 0.7086614173228346,
                    "duration": 0.3264065000000187
                },
                {
                    "name": "G6",
                    "midi": 91,
                    "time": 445.2184659999954,
                    "velocity": 0.7244094488188977,
                    "duration": 0.9792194999999992
                },
                {
                    "name": "E6",
                    "midi": 88,
                    "time": 446.1976854999954,
                    "velocity": 0.6614173228346457,
                    "duration": 0.3264065000000187
                },
                {
                    "name": "D6",
                    "midi": 86,
                    "time": 446.5240919999954,
                    "velocity": 0.7086614173228346,
                    "duration": 0.6528129999999805
                },
                {
                    "name": "G5",
                    "midi": 79,
                    "time": 447.1769049999954,
                    "velocity": 0.6456692913385826,
                    "duration": 0.6528129999999805
                },
                {
                    "name": "C6",
                    "midi": 84,
                    "time": 447.82971799999535,
                    "velocity": 0.6771653543307087,
                    "duration": 0.3264065000000187
                },
                {
                    "name": "C4",
                    "midi": 60,
                    "time": 448.4825309999954,
                    "velocity": 0.5354330708661418,
                    "duration": 0.10880216666669185
                },
                {
                    "name": "E4",
                    "midi": 64,
                    "time": 448.5913331666621,
                    "velocity": 0.4881889763779528,
                    "duration": 0.10880216666669185
                },
                {
                    "name": "C4",
                    "midi": 60,
                    "time": 448.7001353333288,
                    "velocity": 0.4881889763779528,
                    "duration": 0.10880216666669185
                },
                {
                    "name": "G3",
                    "midi": 55,
                    "time": 448.80893749999547,
                    "velocity": 0.4881889763779528,
                    "duration": 0.10880216666669185
                },
                {
                    "name": "E3",
                    "midi": 52,
                    "time": 448.91773966666216,
                    "velocity": 0.4881889763779528,
                    "duration": 0.10880216666669185
                },
                {
                    "name": "G3",
                    "midi": 55,
                    "time": 449.02654183332885,
                    "velocity": 0.4881889763779528,
                    "duration": 0.10880216666669185
                },
                {
                    "name": "C4",
                    "midi": 60,
                    "time": 449.13534399999554,
                    "velocity": 0.5354330708661418,
                    "duration": 0.10880216666669185
                },
                {
                    "name": "F4",
                    "midi": 65,
                    "time": 449.24414616666223,
                    "velocity": 0.4881889763779528,
                    "duration": 0.10880216666669185
                },
                {
                    "name": "C4",
                    "midi": 60,
                    "time": 449.3529483333289,
                    "velocity": 0.4881889763779528,
                    "duration": 0.10880216666669185
                },
                {
                    "name": "A3",
                    "midi": 57,
                    "time": 449.4617504999956,
                    "velocity": 0.4881889763779528,
                    "duration": 0.10880216666669185
                },
                {
                    "name": "F3",
                    "midi": 53,
                    "time": 449.5705526666623,
                    "velocity": 0.4881889763779528,
                    "duration": 0.10880216666669185
                },
                {
                    "name": "A3",
                    "midi": 57,
                    "time": 449.679354833329,
                    "velocity": 0.4881889763779528,
                    "duration": 0.10880216666669185
                },
                {
                    "name": "C4",
                    "midi": 60,
                    "time": 449.7881569999957,
                    "velocity": 0.5354330708661418,
                    "duration": 0.10880216666669185
                },
                {
                    "name": "E4",
                    "midi": 64,
                    "time": 449.8969591666624,
                    "velocity": 0.48031496062992124,
                    "duration": 0.10880216666669185
                },
                {
                    "name": "C4",
                    "midi": 60,
                    "time": 450.0057613333291,
                    "velocity": 0.48031496062992124,
                    "duration": 0.10880216666669185
                },
                {
                    "name": "G3",
                    "midi": 55,
                    "time": 450.11456349999577,
                    "velocity": 0.48031496062992124,
                    "duration": 0.10880216666669185
                },
                {
                    "name": "E3",
                    "midi": 52,
                    "time": 450.22336566666246,
                    "velocity": 0.48031496062992124,
                    "duration": 0.10880216666669185
                },
                {
                    "name": "G3",
                    "midi": 55,
                    "time": 450.33216783332915,
                    "velocity": 0.48031496062992124,
                    "duration": 0.10880216666669185
                },
                {
                    "name": "C4",
                    "midi": 60,
                    "time": 450.44096999999584,
                    "velocity": 0.49606299212598426,
                    "duration": 0.10880216666669185
                },
                {
                    "name": "D4",
                    "midi": 62,
                    "time": 450.54977216666254,
                    "velocity": 0.4645669291338583,
                    "duration": 0.10880216666669185
                },
                {
                    "name": "C4",
                    "midi": 60,
                    "time": 450.6585743333292,
                    "velocity": 0.4645669291338583,
                    "duration": 0.10880216666669185
                },
                {
                    "name": "F3",
                    "midi": 53,
                    "time": 450.7673764999959,
                    "velocity": 0.4645669291338583,
                    "duration": 0.10880216666669185
                },
                {
                    "name": "D3",
                    "midi": 50,
                    "time": 450.8761786666626,
                    "velocity": 0.4645669291338583,
                    "duration": 0.10880216666669185
                },
                {
                    "name": "F3",
                    "midi": 53,
                    "time": 450.9849808333293,
                    "velocity": 0.4645669291338583,
                    "duration": 0.10880216666669185
                },
                {
                    "name": "C4",
                    "midi": 60,
                    "time": 451.093782999996,
                    "velocity": 0.5354330708661418,
                    "duration": 0.10880216666669185
                },
                {
                    "name": "D#4",
                    "midi": 63,
                    "time": 451.2025851666627,
                    "velocity": 0.48031496062992124,
                    "duration": 0.10880216666669185
                },
                {
                    "name": "C4",
                    "midi": 60,
                    "time": 451.3113873333294,
                    "velocity": 0.48031496062992124,
                    "duration": 0.10880216666669185
                },
                {
                    "name": "F#3",
                    "midi": 54,
                    "time": 451.42018949999607,
                    "velocity": 0.48031496062992124,
                    "duration": 0.10880216666669185
                },
                {
                    "name": "D#3",
                    "midi": 51,
                    "time": 451.52899166666276,
                    "velocity": 0.48031496062992124,
                    "duration": 0.10880216666669185
                },
                {
                    "name": "F#3",
                    "midi": 54,
                    "time": 451.63779383332945,
                    "velocity": 0.48031496062992124,
                    "duration": 0.10880216666669185
                },
                {
                    "name": "C4",
                    "midi": 60,
                    "time": 451.74659599999615,
                    "velocity": 0.5354330708661418,
                    "duration": 0.10880216666669185
                },
                {
                    "name": "E4",
                    "midi": 64,
                    "time": 451.85539816666284,
                    "velocity": 0.4881889763779528,
                    "duration": 0.10880216666669185
                },
                {
                    "name": "C4",
                    "midi": 60,
                    "time": 451.96420033332953,
                    "velocity": 0.4881889763779528,
                    "duration": 0.10880216666669185
                },
                {
                    "name": "G3",
                    "midi": 55,
                    "time": 452.0730024999962,
                    "velocity": 0.4881889763779528,
                    "duration": 0.10880216666669185
                },
                {
                    "name": "E3",
                    "midi": 52,
                    "time": 452.1818046666629,
                    "velocity": 0.4881889763779528,
                    "duration": 0.10880216666669185
                },
                {
                    "name": "G3",
                    "midi": 55,
                    "time": 452.2906068333296,
                    "velocity": 0.4881889763779528,
                    "duration": 0.10880216666669185
                },
                {
                    "name": "B3",
                    "midi": 59,
                    "time": 452.3994089999963,
                    "velocity": 0.5354330708661418,
                    "duration": 0.10880216666669185
                },
                {
                    "name": "D4",
                    "midi": 62,
                    "time": 452.508211166663,
                    "velocity": 0.48031496062992124,
                    "duration": 0.10880216666669185
                },
                {
                    "name": "B3",
                    "midi": 59,
                    "time": 452.6170133333297,
                    "velocity": 0.48031496062992124,
                    "duration": 0.10880216666669185
                },
                {
                    "name": "F3",
                    "midi": 53,
                    "time": 452.7258154999964,
                    "velocity": 0.48031496062992124,
                    "duration": 0.10880216666669185
                },
                {
                    "name": "D3",
                    "midi": 50,
                    "time": 452.83461766666306,
                    "velocity": 0.48031496062992124,
                    "duration": 0.10880216666669185
                },
                {
                    "name": "F3",
                    "midi": 53,
                    "time": 452.94341983332976,
                    "velocity": 0.48031496062992124,
                    "duration": 0.10880216666669185
                },
                {
                    "name": "G3",
                    "midi": 55,
                    "time": 453.05222199999645,
                    "velocity": 0.5354330708661418,
                    "duration": 0.10880216666669185
                },
                {
                    "name": "C4",
                    "midi": 60,
                    "time": 453.16102416666314,
                    "velocity": 0.4881889763779528,
                    "duration": 0.10880216666669185
                },
                {
                    "name": "G3",
                    "midi": 55,
                    "time": 453.26982633332983,
                    "velocity": 0.4881889763779528,
                    "duration": 0.10880216666669185
                },
                {
                    "name": "E3",
                    "midi": 52,
                    "time": 453.3786284999965,
                    "velocity": 0.4881889763779528,
                    "duration": 0.10880216666669185
                },
                {
                    "name": "C3",
                    "midi": 48,
                    "time": 453.4874306666632,
                    "velocity": 0.4881889763779528,
                    "duration": 0.10880216666669185
                },
                {
                    "name": "E3",
                    "midi": 52,
                    "time": 453.5962328333299,
                    "velocity": 0.4881889763779528,
                    "duration": 0.10880216666669185
                },
                {
                    "name": "E4",
                    "midi": 64,
                    "time": 453.7050349999966,
                    "velocity": 0.5354330708661418,
                    "duration": 0.10880216666669185
                },
                {
                    "name": "G4",
                    "midi": 67,
                    "time": 453.8138371666633,
                    "velocity": 0.4881889763779528,
                    "duration": 0.10880216666669185
                },
                {
                    "name": "E4",
                    "midi": 64,
                    "time": 453.92263933333,
                    "velocity": 0.4881889763779528,
                    "duration": 0.10880216666669185
                },
                {
                    "name": "C4",
                    "midi": 60,
                    "time": 454.0314414999967,
                    "velocity": 0.4881889763779528,
                    "duration": 0.10880216666669185
                },
                {
                    "name": "G3",
                    "midi": 55,
                    "time": 454.14024366666337,
                    "velocity": 0.4881889763779528,
                    "duration": 0.10880216666669185
                },
                {
                    "name": "C4",
                    "midi": 60,
                    "time": 454.24904583333006,
                    "velocity": 0.4881889763779528,
                    "duration": 0.10880216666669185
                },
                {
                    "name": "F4",
                    "midi": 65,
                    "time": 454.35784799999675,
                    "velocity": 0.5354330708661418,
                    "duration": 0.10880216666669185
                },
                {
                    "name": "A4",
                    "midi": 69,
                    "time": 454.46665016666344,
                    "velocity": 0.4881889763779528,
                    "duration": 0.10880216666669185
                },
                {
                    "name": "F4",
                    "midi": 65,
                    "time": 454.57545233333013,
                    "velocity": 0.4881889763779528,
                    "duration": 0.10880216666669185
                },
                {
                    "name": "C4",
                    "midi": 60,
                    "time": 454.6842544999968,
                    "velocity": 0.4881889763779528,
                    "duration": 0.10880216666669185
                },
                {
                    "name": "A3",
                    "midi": 57,
                    "time": 454.7930566666635,
                    "velocity": 0.4881889763779528,
                    "duration": 0.10880216666669185
                },
                {
                    "name": "C4",
                    "midi": 60,
                    "time": 454.9018588333302,
                    "velocity": 0.4881889763779528,
                    "duration": 0.10880216666669185
                },
                {
                    "name": "E4",
                    "midi": 64,
                    "time": 455.0106609999969,
                    "velocity": 0.5354330708661418,
                    "duration": 0.10880216666669185
                },
                {
                    "name": "G4",
                    "midi": 67,
                    "time": 455.1194631666636,
                    "velocity": 0.48031496062992124,
                    "duration": 0.10880216666669185
                },
                {
                    "name": "E4",
                    "midi": 64,
                    "time": 455.2282653333303,
                    "velocity": 0.48031496062992124,
                    "duration": 0.10880216666669185
                },
                {
                    "name": "C4",
                    "midi": 60,
                    "time": 455.337067499997,
                    "velocity": 0.48031496062992124,
                    "duration": 0.10880216666669185
                },
                {
                    "name": "G3",
                    "midi": 55,
                    "time": 455.44586966666367,
                    "velocity": 0.48031496062992124,
                    "duration": 0.10880216666669185
                },
                {
                    "name": "C4",
                    "midi": 60,
                    "time": 455.55467183333036,
                    "velocity": 0.48031496062992124,
                    "duration": 0.10880216666669185
                },
                {
                    "name": "D4",
                    "midi": 62,
                    "time": 455.66347399999705,
                    "velocity": 0.49606299212598426,
                    "duration": 0.10880216666669185
                },
                {
                    "name": "F4",
                    "midi": 65,
                    "time": 455.77227616666374,
                    "velocity": 0.4645669291338583,
                    "duration": 0.10880216666669185
                },
                {
                    "name": "D4",
                    "midi": 62,
                    "time": 455.88107833333044,
                    "velocity": 0.4645669291338583,
                    "duration": 0.10880216666669185
                },
                {
                    "name": "C4",
                    "midi": 60,
                    "time": 455.9898804999971,
                    "velocity": 0.4645669291338583,
                    "duration": 0.10880216666669185
                },
                {
                    "name": "F3",
                    "midi": 53,
                    "time": 456.0986826666638,
                    "velocity": 0.4645669291338583,
                    "duration": 0.10880216666669185
                },
                {
                    "name": "C4",
                    "midi": 60,
                    "time": 456.2074848333305,
                    "velocity": 0.4645669291338583,
                    "duration": 0.10880216666669185
                },
                {
                    "name": "D#4",
                    "midi": 63,
                    "time": 456.3162869999972,
                    "velocity": 0.5354330708661418,
                    "duration": 0.10880216666669185
                },
                {
                    "name": "F#4",
                    "midi": 66,
                    "time": 456.4250891666639,
                    "velocity": 0.48031496062992124,
                    "duration": 0.10880216666669185
                },
                {
                    "name": "D#4",
                    "midi": 63,
                    "time": 456.5338913333306,
                    "velocity": 0.48031496062992124,
                    "duration": 0.10880216666669185
                },
                {
                    "name": "C4",
                    "midi": 60,
                    "time": 456.6426934999973,
                    "velocity": 0.48031496062992124,
                    "duration": 0.10880216666669185
                },
                {
                    "name": "F#3",
                    "midi": 54,
                    "time": 456.75149566666397,
                    "velocity": 0.48031496062992124,
                    "duration": 0.10880216666669185
                },
                {
                    "name": "C4",
                    "midi": 60,
                    "time": 456.86029783333066,
                    "velocity": 0.48031496062992124,
                    "duration": 0.10880216666669185
                },
                {
                    "name": "E4",
                    "midi": 64,
                    "time": 456.96909999999735,
                    "velocity": 0.5354330708661418,
                    "duration": 0.10880216666669185
                },
                {
                    "name": "G4",
                    "midi": 67,
                    "time": 457.07790216666405,
                    "velocity": 0.4881889763779528,
                    "duration": 0.10880216666669185
                },
                {
                    "name": "E4",
                    "midi": 64,
                    "time": 457.18670433333074,
                    "velocity": 0.4881889763779528,
                    "duration": 0.10880216666669185
                },
                {
                    "name": "C4",
                    "midi": 60,
                    "time": 457.29550649999743,
                    "velocity": 0.4881889763779528,
                    "duration": 0.10880216666669185
                },
                {
                    "name": "G3",
                    "midi": 55,
                    "time": 457.4043086666641,
                    "velocity": 0.4881889763779528,
                    "duration": 0.10880216666669185
                },
                {
                    "name": "C4",
                    "midi": 60,
                    "time": 457.5131108333308,
                    "velocity": 0.4881889763779528,
                    "duration": 0.10880216666669185
                },
                {
                    "name": "D4",
                    "midi": 62,
                    "time": 457.6219129999975,
                    "velocity": 0.5354330708661418,
                    "duration": 0.10880216666669185
                },
                {
                    "name": "F4",
                    "midi": 65,
                    "time": 457.7307151666642,
                    "velocity": 0.48031496062992124,
                    "duration": 0.10880216666669185
                },
                {
                    "name": "D4",
                    "midi": 62,
                    "time": 457.8395173333309,
                    "velocity": 0.48031496062992124,
                    "duration": 0.10880216666669185
                },
                {
                    "name": "B3",
                    "midi": 59,
                    "time": 457.9483194999976,
                    "velocity": 0.48031496062992124,
                    "duration": 0.10880216666669185
                },
                {
                    "name": "F3",
                    "midi": 53,
                    "time": 458.0571216666643,
                    "velocity": 0.48031496062992124,
                    "duration": 0.10880216666669185
                },
                {
                    "name": "B3",
                    "midi": 59,
                    "time": 458.16592383333096,
                    "velocity": 0.48031496062992124,
                    "duration": 0.10880216666669185
                },
                {
                    "name": "C4",
                    "midi": 60,
                    "time": 458.27472599999766,
                    "velocity": 0.5354330708661418,
                    "duration": 0.10880216666669185
                },
                {
                    "name": "E4",
                    "midi": 64,
                    "time": 458.38352816666435,
                    "velocity": 0.4881889763779528,
                    "duration": 0.10880216666669185
                },
                {
                    "name": "C4",
                    "midi": 60,
                    "time": 458.49233033333104,
                    "velocity": 0.4881889763779528,
                    "duration": 0.10880216666669185
                },
                {
                    "name": "G3",
                    "midi": 55,
                    "time": 458.60113249999773,
                    "velocity": 0.4881889763779528,
                    "duration": 0.10880216666669185
                },
                {
                    "name": "E3",
                    "midi": 52,
                    "time": 458.7099346666644,
                    "velocity": 0.4881889763779528,
                    "duration": 0.10880216666669185
                },
                {
                    "name": "G3",
                    "midi": 55,
                    "time": 458.8187368333311,
                    "velocity": 0.4881889763779528,
                    "duration": 0.10880216666669185
                },
                {
                    "name": "G4",
                    "midi": 67,
                    "time": 458.9275389999978,
                    "velocity": 0.5354330708661418,
                    "duration": 0.10880216666669185
                },
                {
                    "name": "C5",
                    "midi": 72,
                    "time": 459.0363411666645,
                    "velocity": 0.4645669291338583,
                    "duration": 0.10880216666669185
                },
                {
                    "name": "G4",
                    "midi": 67,
                    "time": 459.1451433333312,
                    "velocity": 0.4645669291338583,
                    "duration": 0.10880216666669185
                },
                {
                    "name": "E4",
                    "midi": 64,
                    "time": 459.2539454999979,
                    "velocity": 0.5275590551181102,
                    "duration": 0.10880216666669185
                },
                {
                    "name": "C4",
                    "midi": 60,
                    "time": 459.3627476666646,
                    "velocity": 0.4566929133858268,
                    "duration": 0.10880216666669185
                },
                {
                    "name": "E4",
                    "midi": 64,
                    "time": 459.47154983333127,
                    "velocity": 0.4566929133858268,
                    "duration": 0.10880216666669185
                },
                {
                    "name": "A4",
                    "midi": 69,
                    "time": 459.58035199999796,
                    "velocity": 0.5590551181102362,
                    "duration": 0.10880216666669185
                },
                {
                    "name": "C5",
                    "midi": 72,
                    "time": 459.68915416666465,
                    "velocity": 0.48031496062992124,
                    "duration": 0.10880216666669185
                },
                {
                    "name": "A4",
                    "midi": 69,
                    "time": 459.79795633333134,
                    "velocity": 0.48031496062992124,
                    "duration": 0.10880216666669185
                },
                {
                    "name": "F4",
                    "midi": 65,
                    "time": 459.90675849999803,
                    "velocity": 0.5275590551181102,
                    "duration": 0.10880216666669185
                },
                {
                    "name": "C4",
                    "midi": 60,
                    "time": 460.0155606666647,
                    "velocity": 0.47244094488188976,
                    "duration": 0.10880216666669185
                },
                {
                    "name": "F4",
                    "midi": 65,
                    "time": 460.1243628333314,
                    "velocity": 0.47244094488188976,
                    "duration": 0.10880216666669185
                },
                {
                    "name": "G4",
                    "midi": 67,
                    "time": 460.2331649999981,
                    "velocity": 0.5354330708661418,
                    "duration": 0.10880216666669185
                },
                {
                    "name": "C5",
                    "midi": 72,
                    "time": 460.3419671666648,
                    "velocity": 0.4645669291338583,
                    "duration": 0.10880216666669185
                },
                {
                    "name": "G4",
                    "midi": 67,
                    "time": 460.4507693333315,
                    "velocity": 0.47244094488188976,
                    "duration": 0.10880216666669185
                },
                {
                    "name": "E4",
                    "midi": 64,
                    "time": 460.5595714999982,
                    "velocity": 0.5275590551181102,
                    "duration": 0.10880216666669185
                },
                {
                    "name": "C4",
                    "midi": 60,
                    "time": 460.6683736666649,
                    "velocity": 0.4566929133858268,
                    "duration": 0.10880216666669185
                },
                {
                    "name": "E4",
                    "midi": 64,
                    "time": 460.77717583333157,
                    "velocity": 0.4566929133858268,
                    "duration": 0.10880216666669185
                },
                {
                    "name": "F4",
                    "midi": 65,
                    "time": 460.88597799999826,
                    "velocity": 0.5511811023622047,
                    "duration": 0.10880216666669185
                },
                {
                    "name": "C5",
                    "midi": 72,
                    "time": 460.99478016666495,
                    "velocity": 0.4645669291338583,
                    "duration": 0.10880216666669185
                },
                {
                    "name": "F4",
                    "midi": 65,
                    "time": 461.10358233333164,
                    "velocity": 0.4645669291338583,
                    "duration": 0.10880216666669185
                },
                {
                    "name": "D4",
                    "midi": 62,
                    "time": 461.21238449999834,
                    "velocity": 0.5275590551181102,
                    "duration": 0.10880216666669185
                },
                {
                    "name": "C4",
                    "midi": 60,
                    "time": 461.321186666665,
                    "velocity": 0.47244094488188976,
                    "duration": 0.10880216666669185
                },
                {
                    "name": "D4",
                    "midi": 62,
                    "time": 461.4299888333317,
                    "velocity": 0.4645669291338583,
                    "duration": 0.10880216666669185
                },
                {
                    "name": "F#4",
                    "midi": 66,
                    "time": 461.5387909999984,
                    "velocity": 0.5196850393700787,
                    "duration": 0.10880216666669185
                },
                {
                    "name": "C5",
                    "midi": 72,
                    "time": 461.6475931666651,
                    "velocity": 0.44881889763779526,
                    "duration": 0.10880216666669185
                },
                {
                    "name": "F#4",
                    "midi": 66,
                    "time": 461.7563953333318,
                    "velocity": 0.47244094488188976,
                    "duration": 0.10880216666669185
                },
                {
                    "name": "D#4",
                    "midi": 63,
                    "time": 461.8651974999985,
                    "velocity": 0.5511811023622047,
                    "duration": 0.10880216666669185
                },
                {
                    "name": "C4",
                    "midi": 60,
                    "time": 461.9739996666652,
                    "velocity": 0.4566929133858268,
                    "duration": 0.10880216666669185
                },
                {
                    "name": "D#4",
                    "midi": 63,
                    "time": 462.08280183333187,
                    "velocity": 0.4566929133858268,
                    "duration": 0.10880216666669185
                },
                {
                    "name": "G4",
                    "midi": 67,
                    "time": 462.19160399999856,
                    "velocity": 0.5590551181102362,
                    "duration": 0.10880216666669185
                },
                {
                    "name": "C5",
                    "midi": 72,
                    "time": 462.30040616666525,
                    "velocity": 0.48031496062992124,
                    "duration": 0.10880216666669185
                },
                {
                    "name": "G4",
                    "midi": 67,
                    "time": 462.40920833333195,
                    "velocity": 0.48031496062992124,
                    "duration": 0.10880216666669185
                },
                {
                    "name": "E4",
                    "midi": 64,
                    "time": 462.51801049999864,
                    "velocity": 0.5275590551181102,
                    "duration": 0.10880216666669185
                },
                {
                    "name": "C4",
                    "midi": 60,
                    "time": 462.62681266666533,
                    "velocity": 0.47244094488188976,
                    "duration": 0.10880216666669185
                },
                {
                    "name": "E4",
                    "midi": 64,
                    "time": 462.735614833332,
                    "velocity": 0.47244094488188976,
                    "duration": 0.10880216666669185
                },
                {
                    "name": "F4",
                    "midi": 65,
                    "time": 462.8444169999987,
                    "velocity": 0.5354330708661418,
                    "duration": 0.10880216666669185
                },
                {
                    "name": "C5",
                    "midi": 72,
                    "time": 462.9532191666654,
                    "velocity": 0.4409448818897638,
                    "duration": 0.10880216666669185
                },
                {
                    "name": "F4",
                    "midi": 65,
                    "time": 463.0620213333321,
                    "velocity": 0.44881889763779526,
                    "duration": 0.10880216666669185
                },
                {
                    "name": "D4",
                    "midi": 62,
                    "time": 463.1708234999988,
                    "velocity": 0.4881889763779528,
                    "duration": 0.10880216666669185
                },
                {
                    "name": "B3",
                    "midi": 59,
                    "time": 463.2796256666655,
                    "velocity": 0.4566929133858268,
                    "duration": 0.10880216666669185
                },
                {
                    "name": "D4",
                    "midi": 62,
                    "time": 463.3884278333322,
                    "velocity": 0.4566929133858268,
                    "duration": 0.10880216666669185
                },
                {
                    "name": "G4",
                    "midi": 67,
                    "time": 463.49722999999886,
                    "velocity": 0.49606299212598426,
                    "duration": 0.10880216666669185
                },
                {
                    "name": "C5",
                    "midi": 72,
                    "time": 463.60603216666556,
                    "velocity": 0.44881889763779526,
                    "duration": 0.10880216666669185
                },
                {
                    "name": "G4",
                    "midi": 67,
                    "time": 463.71483433333225,
                    "velocity": 0.44881889763779526,
                    "duration": 0.10880216666669185
                },
                {
                    "name": "E4",
                    "midi": 64,
                    "time": 463.82363649999894,
                    "velocity": 0.47244094488188976,
                    "duration": 0.10880216666669185
                },
                {
                    "name": "C4",
                    "midi": 60,
                    "time": 463.93243866666563,
                    "velocity": 0.44881889763779526,
                    "duration": 0.10880216666669185
                },
                {
                    "name": "E4",
                    "midi": 64,
                    "time": 464.0412408333323,
                    "velocity": 0.44881889763779526,
                    "duration": 0.10880216666669185
                },
                {
                    "name": "C5",
                    "midi": 72,
                    "time": 464.150042999999,
                    "velocity": 0.5354330708661418,
                    "duration": 0.10880216666669185
                },
                {
                    "name": "E5",
                    "midi": 76,
                    "time": 464.2588451666657,
                    "velocity": 0.4645669291338583,
                    "duration": 0.10880216666669185
                },
                {
                    "name": "C5",
                    "midi": 72,
                    "time": 464.3676473333324,
                    "velocity": 0.4645669291338583,
                    "duration": 0.10880216666669185
                },
                {
                    "name": "G4",
                    "midi": 67,
                    "time": 464.4764494999991,
                    "velocity": 0.5275590551181102,
                    "duration": 0.10880216666669185
                },
                {
                    "name": "E4",
                    "midi": 64,
                    "time": 464.5852516666658,
                    "velocity": 0.4566929133858268,
                    "duration": 0.10880216666669185
                },
                {
                    "name": "G4",
                    "midi": 67,
                    "time": 464.6940538333325,
                    "velocity": 0.4566929133858268,
                    "duration": 0.10880216666669185
                },
                {
                    "name": "C5",
                    "midi": 72,
                    "time": 464.80285599999917,
                    "velocity": 0.5590551181102362,
                    "duration": 0.10880216666669185
                },
                {
                    "name": "F5",
                    "midi": 77,
                    "time": 464.91165816666586,
                    "velocity": 0.48031496062992124,
                    "duration": 0.10880216666669185
                },
                {
                    "name": "C5",
                    "midi": 72,
                    "time": 465.02046033333255,
                    "velocity": 0.48031496062992124,
                    "duration": 0.10880216666669185
                },
                {
                    "name": "A4",
                    "midi": 69,
                    "time": 465.12926249999924,
                    "velocity": 0.5275590551181102,
                    "duration": 0.10880216666669185
                },
                {
                    "name": "F4",
                    "midi": 65,
                    "time": 465.23806466666593,
                    "velocity": 0.47244094488188976,
                    "duration": 0.10880216666669185
                },
                {
                    "name": "A4",
                    "midi": 69,
                    "time": 465.3468668333326,
                    "velocity": 0.47244094488188976,
                    "duration": 0.10880216666669185
                },
                {
                    "name": "C5",
                    "midi": 72,
                    "time": 465.4556689999993,
                    "velocity": 0.5354330708661418,
                    "duration": 0.10880216666669185
                },
                {
                    "name": "E5",
                    "midi": 76,
                    "time": 465.564471166666,
                    "velocity": 0.4645669291338583,
                    "duration": 0.10880216666669185
                },
                {
                    "name": "C5",
                    "midi": 72,
                    "time": 465.6732733333327,
                    "velocity": 0.47244094488188976,
                    "duration": 0.10880216666669185
                },
                {
                    "name": "G4",
                    "midi": 67,
                    "time": 465.7820754999994,
                    "velocity": 0.5275590551181102,
                    "duration": 0.10880216666669185
                },
                {
                    "name": "E4",
                    "midi": 64,
                    "time": 465.8908776666661,
                    "velocity": 0.4566929133858268,
                    "duration": 0.10880216666669185
                },
                {
                    "name": "G4",
                    "midi": 67,
                    "time": 465.9996798333328,
                    "velocity": 0.4566929133858268,
                    "duration": 0.10880216666669185
                },
                {
                    "name": "C5",
                    "midi": 72,
                    "time": 466.10848199999947,
                    "velocity": 0.5511811023622047,
                    "duration": 0.10880216666669185
                },
                {
                    "name": "D5",
                    "midi": 74,
                    "time": 466.21728416666616,
                    "velocity": 0.4645669291338583,
                    "duration": 0.10880216666669185
                },
                {
                    "name": "C5",
                    "midi": 72,
                    "time": 466.32608633333285,
                    "velocity": 0.4645669291338583,
                    "duration": 0.10880216666669185
                },
                {
                    "name": "F4",
                    "midi": 65,
                    "time": 466.43488849999954,
                    "velocity": 0.5275590551181102,
                    "duration": 0.10880216666669185
                },
                {
                    "name": "D4",
                    "midi": 62,
                    "time": 466.54369066666624,
                    "velocity": 0.47244094488188976,
                    "duration": 0.10880216666669185
                },
                {
                    "name": "F4",
                    "midi": 65,
                    "time": 466.65249283333293,
                    "velocity": 0.4645669291338583,
                    "duration": 0.10880216666669185
                },
                {
                    "name": "C5",
                    "midi": 72,
                    "time": 466.7612949999996,
                    "velocity": 0.5196850393700787,
                    "duration": 0.10880216666669185
                },
                {
                    "name": "D#5",
                    "midi": 75,
                    "time": 466.8700971666663,
                    "velocity": 0.44881889763779526,
                    "duration": 0.10880216666669185
                },
                {
                    "name": "C5",
                    "midi": 72,
                    "time": 466.978899333333,
                    "velocity": 0.47244094488188976,
                    "duration": 0.10880216666669185
                },
                {
                    "name": "F#4",
                    "midi": 66,
                    "time": 467.0877014999997,
                    "velocity": 0.5511811023622047,
                    "duration": 0.10880216666669185
                },
                {
                    "name": "D#4",
                    "midi": 63,
                    "time": 467.1965036666664,
                    "velocity": 0.4566929133858268,
                    "duration": 0.10880216666669185
                },
                {
                    "name": "F#4",
                    "midi": 66,
                    "time": 467.3053058333331,
                    "velocity": 0.4566929133858268,
                    "duration": 0.10880216666669185
                },
                {
                    "name": "C5",
                    "midi": 72,
                    "time": 467.41410799999977,
                    "velocity": 0.5590551181102362,
                    "duration": 0.10880216666669185
                },
                {
                    "name": "E5",
                    "midi": 76,
                    "time": 467.52291016666646,
                    "velocity": 0.48031496062992124,
                    "duration": 0.10880216666669185
                },
                {
                    "name": "C5",
                    "midi": 72,
                    "time": 467.63171233333316,
                    "velocity": 0.48031496062992124,
                    "duration": 0.10880216666669185
                },
                {
                    "name": "G4",
                    "midi": 67,
                    "time": 467.74051449999985,
                    "velocity": 0.5275590551181102,
                    "duration": 0.10880216666669185
                },
                {
                    "name": "E4",
                    "midi": 64,
                    "time": 467.84931666666654,
                    "velocity": 0.47244094488188976,
                    "duration": 0.10880216666669185
                },
                {
                    "name": "G4",
                    "midi": 67,
                    "time": 467.95811883333323,
                    "velocity": 0.47244094488188976,
                    "duration": 0.10880216666669185
                },
                {
                    "name": "B4",
                    "midi": 71,
                    "time": 468.0669209999999,
                    "velocity": 0.5354330708661418,
                    "duration": 0.10880216666669185
                },
                {
                    "name": "D5",
                    "midi": 74,
                    "time": 468.1757231666666,
                    "velocity": 0.4409448818897638,
                    "duration": 0.10880216666669185
                },
                {
                    "name": "B4",
                    "midi": 71,
                    "time": 468.2845253333333,
                    "velocity": 0.44881889763779526,
                    "duration": 0.10880216666669185
                },
                {
                    "name": "F4",
                    "midi": 65,
                    "time": 468.3933275,
                    "velocity": 0.4881889763779528,
                    "duration": 0.10880216666669185
                },
                {
                    "name": "D4",
                    "midi": 62,
                    "time": 468.5021296666667,
                    "velocity": 0.4566929133858268,
                    "duration": 0.10880216666669185
                },
                {
                    "name": "F4",
                    "midi": 65,
                    "time": 468.6109318333334,
                    "velocity": 0.4566929133858268,
                    "duration": 0.10880216666669185
                },
                {
                    "name": "G4",
                    "midi": 67,
                    "time": 468.7197340000001,
                    "velocity": 0.49606299212598426,
                    "duration": 0.10880216666669185
                },
                {
                    "name": "C5",
                    "midi": 72,
                    "time": 468.82853616666677,
                    "velocity": 0.44881889763779526,
                    "duration": 0.10880216666669185
                },
                {
                    "name": "G4",
                    "midi": 67,
                    "time": 468.93733833333346,
                    "velocity": 0.44881889763779526,
                    "duration": 0.10880216666669185
                },
                {
                    "name": "E4",
                    "midi": 64,
                    "time": 469.04614050000015,
                    "velocity": 0.47244094488188976,
                    "duration": 0.10880216666669185
                },
                {
                    "name": "C4",
                    "midi": 60,
                    "time": 469.15494266666684,
                    "velocity": 0.44881889763779526,
                    "duration": 0.10880216666669185
                },
                {
                    "name": "E4",
                    "midi": 64,
                    "time": 469.26374483333353,
                    "velocity": 0.44881889763779526,
                    "duration": 0.10880216666669185
                },
                {
                    "name": "C5",
                    "midi": 72,
                    "time": 469.3725470000002,
                    "velocity": 0.5826771653543307,
                    "duration": 0.10880216666669185
                },
                {
                    "name": "E5",
                    "midi": 76,
                    "time": 469.4813491666669,
                    "velocity": 0.4645669291338583,
                    "duration": 0.10880216666669185
                },
                {
                    "name": "C5",
                    "midi": 72,
                    "time": 469.5901513333336,
                    "velocity": 0.4645669291338583,
                    "duration": 0.10880216666669185
                },
                {
                    "name": "G4",
                    "midi": 67,
                    "time": 469.6989535000003,
                    "velocity": 0.5511811023622047,
                    "duration": 0.10880216666669185
                },
                {
                    "name": "E4",
                    "midi": 64,
                    "time": 469.807755666667,
                    "velocity": 0.4566929133858268,
                    "duration": 0.10880216666669185
                },
                {
                    "name": "G4",
                    "midi": 67,
                    "time": 469.9165578333337,
                    "velocity": 0.4566929133858268,
                    "duration": 0.10880216666669185
                },
                {
                    "name": "B4",
                    "midi": 71,
                    "time": 470.0253600000004,
                    "velocity": 0.5590551181102362,
                    "duration": 0.10880216666669185
                },
                {
                    "name": "D5",
                    "midi": 74,
                    "time": 470.13416216666707,
                    "velocity": 0.48031496062992124,
                    "duration": 0.10880216666669185
                },
                {
                    "name": "B4",
                    "midi": 71,
                    "time": 470.24296433333376,
                    "velocity": 0.48031496062992124,
                    "duration": 0.10880216666669185
                },
                {
                    "name": "G4",
                    "midi": 67,
                    "time": 470.35176650000045,
                    "velocity": 0.5275590551181102,
                    "duration": 0.10880216666669185
                },
                {
                    "name": "D4",
                    "midi": 62,
                    "time": 470.46056866666714,
                    "velocity": 0.47244094488188976,
                    "duration": 0.10880216666669185
                },
                {
                    "name": "G4",
                    "midi": 67,
                    "time": 470.56937083333383,
                    "velocity": 0.47244094488188976,
                    "duration": 0.10880216666669185
                },
                {
                    "name": "D5",
                    "midi": 74,
                    "time": 470.6781730000005,
                    "velocity": 0.5826771653543307,
                    "duration": 0.10880216666669185
                },
                {
                    "name": "F5",
                    "midi": 77,
                    "time": 470.7869751666672,
                    "velocity": 0.4645669291338583,
                    "duration": 0.10880216666669185
                },
                {
                    "name": "D5",
                    "midi": 74,
                    "time": 470.8957773333339,
                    "velocity": 0.4645669291338583,
                    "duration": 0.10880216666669185
                },
                {
                    "name": "A4",
                    "midi": 69,
                    "time": 471.0045795000006,
                    "velocity": 0.5511811023622047,
                    "duration": 0.10880216666669185
                },
                {
                    "name": "F4",
                    "midi": 65,
                    "time": 471.1133816666673,
                    "velocity": 0.4566929133858268,
                    "duration": 0.10880216666669185
                },
                {
                    "name": "A4",
                    "midi": 69,
                    "time": 471.222183833334,
                    "velocity": 0.4566929133858268,
                    "duration": 0.10880216666669185
                },
                {
                    "name": "C5",
                    "midi": 72,
                    "time": 471.3309860000007,
                    "velocity": 0.5590551181102362,
                    "duration": 0.10880216666669185
                },
                {
                    "name": "E5",
                    "midi": 76,
                    "time": 471.43978816666737,
                    "velocity": 0.48031496062992124,
                    "duration": 0.10880216666669185
                },
                {
                    "name": "C5",
                    "midi": 72,
                    "time": 471.54859033333406,
                    "velocity": 0.48031496062992124,
                    "duration": 0.10880216666669185
                },
                {
                    "name": "A4",
                    "midi": 69,
                    "time": 471.65739250000075,
                    "velocity": 0.5275590551181102,
                    "duration": 0.10880216666669185
                },
                {
                    "name": "E4",
                    "midi": 64,
                    "time": 471.76619466666745,
                    "velocity": 0.47244094488188976,
                    "duration": 0.10880216666669185
                },
                {
                    "name": "A4",
                    "midi": 69,
                    "time": 471.87499683333414,
                    "velocity": 0.47244094488188976,
                    "duration": 0.10880216666669185
                },
                {
                    "name": "F5",
                    "midi": 77,
                    "time": 471.98379900000083,
                    "velocity": 0.5826771653543307,
                    "duration": 0.10880216666669185
                },
                {
                    "name": "A5",
                    "midi": 81,
                    "time": 472.0926011666675,
                    "velocity": 0.4645669291338583,
                    "duration": 0.10880216666669185
                },
                {
                    "name": "F5",
                    "midi": 77,
                    "time": 472.2014033333342,
                    "velocity": 0.4645669291338583,
                    "duration": 0.10880216666669185
                },
                {
                    "name": "C5",
                    "midi": 72,
                    "time": 472.3102055000009,
                    "velocity": 0.5511811023622047,
                    "duration": 0.10880216666669185
                },
                {
                    "name": "A4",
                    "midi": 69,
                    "time": 472.4190076666676,
                    "velocity": 0.4566929133858268,
                    "duration": 0.10880216666669185
                },
                {
                    "name": "C5",
                    "midi": 72,
                    "time": 472.5278098333343,
                    "velocity": 0.4566929133858268,
                    "duration": 0.10880216666669185
                },
                {
                    "name": "D5",
                    "midi": 74,
                    "time": 472.636612000001,
                    "velocity": 0.5905511811023622,
                    "duration": 0.10880216666669185
                },
                {
                    "name": "G5",
                    "midi": 79,
                    "time": 472.7454141666677,
                    "velocity": 0.48031496062992124,
                    "duration": 0.10880216666669185
                },
                {
                    "name": "D5",
                    "midi": 74,
                    "time": 472.85421633333436,
                    "velocity": 0.48031496062992124,
                    "duration": 0.10880216666669185
                },
                {
                    "name": "C5",
                    "midi": 72,
                    "time": 472.96301850000106,
                    "velocity": 0.5275590551181102,
                    "duration": 0.10880216666669185
                },
                {
                    "name": "G4",
                    "midi": 67,
                    "time": 473.07182066666775,
                    "velocity": 0.47244094488188976,
                    "duration": 0.10880216666669185
                },
                {
                    "name": "C5",
                    "midi": 72,
                    "time": 473.18062283333444,
                    "velocity": 0.47244094488188976,
                    "duration": 0.10880216666669185
                },
                {
                    "name": "D5",
                    "midi": 74,
                    "time": 473.28942500000113,
                    "velocity": 0.5826771653543307,
                    "duration": 0.10880216666669185
                },
                {
                    "name": "G5",
                    "midi": 79,
                    "time": 473.3982271666678,
                    "velocity": 0.4645669291338583,
                    "duration": 0.10880216666669185
                },
                {
                    "name": "D5",
                    "midi": 74,
                    "time": 473.5070293333345,
                    "velocity": 0.4645669291338583,
                    "duration": 0.10880216666669185
                },
                {
                    "name": "B4",
                    "midi": 71,
                    "time": 473.6158315000012,
                    "velocity": 0.5511811023622047,
                    "duration": 0.10880216666669185
                },
                {
                    "name": "G4",
                    "midi": 67,
                    "time": 473.7246336666679,
                    "velocity": 0.4566929133858268,
                    "duration": 0.10880216666669185
                },
                {
                    "name": "B4",
                    "midi": 71,
                    "time": 473.8334358333346,
                    "velocity": 0.4566929133858268,
                    "duration": 0.10880216666669185
                },
                {
                    "name": "E5",
                    "midi": 76,
                    "time": 473.9422380000013,
                    "velocity": 0.5590551181102362,
                    "duration": 0.10880216666669185
                },
                {
                    "name": "G5",
                    "midi": 79,
                    "time": 474.051040166668,
                    "velocity": 0.4566929133858268,
                    "duration": 0.10880216666669185
                },
                {
                    "name": "E5",
                    "midi": 76,
                    "time": 474.15984233333467,
                    "velocity": 0.4566929133858268,
                    "duration": 0.10880216666669185
                },
                {
                    "name": "C5",
                    "midi": 72,
                    "time": 474.26864450000136,
                    "velocity": 0.49606299212598426,
                    "duration": 0.10880216666669185
                },
                {
                    "name": "G4",
                    "midi": 67,
                    "time": 474.37744666666805,
                    "velocity": 0.47244094488188976,
                    "duration": 0.10880216666669185
                },
                {
                    "name": "C5",
                    "midi": 72,
                    "time": 474.48624883333474,
                    "velocity": 0.4566929133858268,
                    "duration": 0.10880216666669185
                },
                {
                    "name": "E5",
                    "midi": 76,
                    "time": 474.59505100000143,
                    "velocity": 0.5826771653543307,
                    "duration": 0.10880216666669185
                },
                {
                    "name": "G5",
                    "midi": 79,
                    "time": 474.7038531666681,
                    "velocity": 0.4645669291338583,
                    "duration": 0.10880216666669185
                },
                {
                    "name": "E5",
                    "midi": 76,
                    "time": 474.8126553333348,
                    "velocity": 0.4645669291338583,
                    "duration": 0.10880216666669185
                },
                {
                    "name": "C5",
                    "midi": 72,
                    "time": 474.9214575000015,
                    "velocity": 0.5511811023622047,
                    "duration": 0.10880216666669185
                },
                {
                    "name": "G4",
                    "midi": 67,
                    "time": 475.0302596666682,
                    "velocity": 0.4566929133858268,
                    "duration": 0.10880216666669185
                },
                {
                    "name": "C5",
                    "midi": 72,
                    "time": 475.1390618333349,
                    "velocity": 0.4566929133858268,
                    "duration": 0.10880216666669185
                },
                {
                    "name": "D5",
                    "midi": 74,
                    "time": 475.2478640000016,
                    "velocity": 0.5590551181102362,
                    "duration": 0.10880216666669185
                },
                {
                    "name": "G5",
                    "midi": 79,
                    "time": 475.3566661666683,
                    "velocity": 0.48031496062992124,
                    "duration": 0.10880216666669185
                },
                {
                    "name": "D5",
                    "midi": 74,
                    "time": 475.46546833333497,
                    "velocity": 0.48031496062992124,
                    "duration": 0.10880216666669185
                },
                {
                    "name": "B4",
                    "midi": 71,
                    "time": 475.57427050000166,
                    "velocity": 0.5275590551181102,
                    "duration": 0.10880216666669185
                },
                {
                    "name": "G4",
                    "midi": 67,
                    "time": 475.68307266666835,
                    "velocity": 0.47244094488188976,
                    "duration": 0.10880216666669185
                },
                {
                    "name": "B4",
                    "midi": 71,
                    "time": 475.79187483333504,
                    "velocity": 0.47244094488188976,
                    "duration": 0.10880216666669185
                },
                {
                    "name": "F5",
                    "midi": 77,
                    "time": 475.90067700000174,
                    "velocity": 0.5826771653543307,
                    "duration": 0.10880216666669185
                },
                {
                    "name": "A5",
                    "midi": 81,
                    "time": 476.0094791666684,
                    "velocity": 0.4645669291338583,
                    "duration": 0.10880216666669185
                },
                {
                    "name": "F5",
                    "midi": 77,
                    "time": 476.1182813333351,
                    "velocity": 0.4645669291338583,
                    "duration": 0.10880216666669185
                },
                {
                    "name": "D5",
                    "midi": 74,
                    "time": 476.2270835000018,
                    "velocity": 0.5511811023622047,
                    "duration": 0.10880216666669185
                },
                {
                    "name": "A4",
                    "midi": 69,
                    "time": 476.3358856666685,
                    "velocity": 0.4566929133858268,
                    "duration": 0.10880216666669185
                },
                {
                    "name": "D5",
                    "midi": 74,
                    "time": 476.4446878333352,
                    "velocity": 0.4566929133858268,
                    "duration": 0.10880216666669185
                },
                {
                    "name": "E5",
                    "midi": 76,
                    "time": 476.5534900000019,
                    "velocity": 0.5590551181102362,
                    "duration": 0.10880216666669185
                },
                {
                    "name": "A5",
                    "midi": 81,
                    "time": 476.6622921666686,
                    "velocity": 0.48031496062992124,
                    "duration": 0.10880216666669185
                },
                {
                    "name": "E5",
                    "midi": 76,
                    "time": 476.77109433333527,
                    "velocity": 0.48031496062992124,
                    "duration": 0.10880216666669185
                },
                {
                    "name": "C5",
                    "midi": 72,
                    "time": 476.87989650000196,
                    "velocity": 0.5275590551181102,
                    "duration": 0.10880216666669185
                },
                {
                    "name": "A4",
                    "midi": 69,
                    "time": 476.98869866666865,
                    "velocity": 0.47244094488188976,
                    "duration": 0.10880216666669185
                },
                {
                    "name": "C5",
                    "midi": 72,
                    "time": 477.09750083333535,
                    "velocity": 0.47244094488188976,
                    "duration": 0.10880216666669185
                },
                {
                    "name": "A5",
                    "midi": 81,
                    "time": 477.20630300000204,
                    "velocity": 0.5826771653543307,
                    "duration": 0.10880216666669185
                },
                {
                    "name": "C6",
                    "midi": 84,
                    "time": 477.31510516666873,
                    "velocity": 0.4645669291338583,
                    "duration": 0.10880216666669185
                },
                {
                    "name": "A5",
                    "midi": 81,
                    "time": 477.4239073333354,
                    "velocity": 0.4645669291338583,
                    "duration": 0.10880216666669185
                },
                {
                    "name": "E5",
                    "midi": 76,
                    "time": 477.5327095000021,
                    "velocity": 0.5511811023622047,
                    "duration": 0.10880216666669185
                },
                {
                    "name": "C5",
                    "midi": 72,
                    "time": 477.6415116666688,
                    "velocity": 0.4566929133858268,
                    "duration": 0.10880216666669185
                },
                {
                    "name": "E5",
                    "midi": 76,
                    "time": 477.7503138333355,
                    "velocity": 0.4566929133858268,
                    "duration": 0.10880216666669185
                },
                {
                    "name": "A5",
                    "midi": 81,
                    "time": 477.8591160000022,
                    "velocity": 0.5905511811023622,
                    "duration": 0.10880216666669185
                },
                {
                    "name": "C6",
                    "midi": 84,
                    "time": 477.9679181666689,
                    "velocity": 0.48031496062992124,
                    "duration": 0.10880216666669185
                },
                {
                    "name": "A5",
                    "midi": 81,
                    "time": 478.0767203333356,
                    "velocity": 0.48031496062992124,
                    "duration": 0.10880216666669185
                },
                {
                    "name": "F#5",
                    "midi": 78,
                    "time": 478.18552250000226,
                    "velocity": 0.5275590551181102,
                    "duration": 0.10880216666669185
                },
                {
                    "name": "C5",
                    "midi": 72,
                    "time": 478.29432466666896,
                    "velocity": 0.47244094488188976,
                    "duration": 0.10880216666669185
                },
                {
                    "name": "F#5",
                    "midi": 78,
                    "time": 478.40312683333565,
                    "velocity": 0.47244094488188976,
                    "duration": 0.10880216666669185
                },
                {
                    "name": "A5",
                    "midi": 81,
                    "time": 478.51192900000234,
                    "velocity": 0.5826771653543307,
                    "duration": 0.10880216666669185
                },
                {
                    "name": "C6",
                    "midi": 84,
                    "time": 478.62073116666903,
                    "velocity": 0.4645669291338583,
                    "duration": 0.10880216666669185
                },
                {
                    "name": "A5",
                    "midi": 81,
                    "time": 478.7295333333357,
                    "velocity": 0.4645669291338583,
                    "duration": 0.10880216666669185
                },
                {
                    "name": "F#5",
                    "midi": 78,
                    "time": 478.8383355000024,
                    "velocity": 0.5511811023622047,
                    "duration": 0.10880216666669185
                },
                {
                    "name": "C5",
                    "midi": 72,
                    "time": 478.9471376666691,
                    "velocity": 0.4566929133858268,
                    "duration": 0.10880216666669185
                },
                {
                    "name": "F#5",
                    "midi": 78,
                    "time": 479.0559398333358,
                    "velocity": 0.4566929133858268,
                    "duration": 0.10880216666669185
                },
                {
                    "name": "G5",
                    "midi": 79,
                    "time": 479.1647420000025,
                    "velocity": 0.5590551181102362,
                    "duration": 0.10880216666669185
                },
                {
                    "name": "B5",
                    "midi": 83,
                    "time": 479.2735441666692,
                    "velocity": 0.4566929133858268,
                    "duration": 0.10880216666669185
                },
                {
                    "name": "G5",
                    "midi": 79,
                    "time": 479.3823463333359,
                    "velocity": 0.4566929133858268,
                    "duration": 0.10880216666669185
                },
                {
                    "name": "D5",
                    "midi": 74,
                    "time": 479.49114850000257,
                    "velocity": 0.49606299212598426,
                    "duration": 0.10880216666669185
                },
                {
                    "name": "B4",
                    "midi": 71,
                    "time": 479.59995066666926,
                    "velocity": 0.47244094488188976,
                    "duration": 0.10880216666669185
                },
                {
                    "name": "D5",
                    "midi": 74,
                    "time": 479.70875283333595,
                    "velocity": 0.4566929133858268,
                    "duration": 0.10880216666669185
                },
                {
                    "name": "A5",
                    "midi": 81,
                    "time": 479.81755500000264,
                    "velocity": 0.5826771653543307,
                    "duration": 0.10880216666669185
                },
                {
                    "name": "D6",
                    "midi": 86,
                    "time": 479.92635716666933,
                    "velocity": 0.4645669291338583,
                    "duration": 0.10880216666669185
                },
                {
                    "name": "A5",
                    "midi": 81,
                    "time": 480.035159333336,
                    "velocity": 0.4645669291338583,
                    "duration": 0.10880216666669185
                },
                {
                    "name": "F#5",
                    "midi": 78,
                    "time": 480.1439615000027,
                    "velocity": 0.5511811023622047,
                    "duration": 0.10880216666669185
                },
                {
                    "name": "D5",
                    "midi": 74,
                    "time": 480.2527636666694,
                    "velocity": 0.4566929133858268,
                    "duration": 0.10880216666669185
                },
                {
                    "name": "F#5",
                    "midi": 78,
                    "time": 480.3615658333361,
                    "velocity": 0.4566929133858268,
                    "duration": 0.10880216666669185
                },
                {
                    "name": "B5",
                    "midi": 83,
                    "time": 480.4703680000028,
                    "velocity": 0.5905511811023622,
                    "duration": 0.10880216666669185
                },
                {
                    "name": "D6",
                    "midi": 86,
                    "time": 480.5791701666695,
                    "velocity": 0.48031496062992124,
                    "duration": 0.10880216666669185
                },
                {
                    "name": "B5",
                    "midi": 83,
                    "time": 480.6879723333362,
                    "velocity": 0.48031496062992124,
                    "duration": 0.10880216666669185
                },
                {
                    "name": "G5",
                    "midi": 79,
                    "time": 480.79677450000287,
                    "velocity": 0.5275590551181102,
                    "duration": 0.10880216666669185
                },
                {
                    "name": "D5",
                    "midi": 74,
                    "time": 480.90557666666956,
                    "velocity": 0.47244094488188976,
                    "duration": 0.10880216666669185
                },
                {
                    "name": "G5",
                    "midi": 79,
                    "time": 481.01437883333625,
                    "velocity": 0.47244094488188976,
                    "duration": 0.10880216666669185
                },
                {
                    "name": "A5",
                    "midi": 81,
                    "time": 481.12318100000294,
                    "velocity": 0.5826771653543307,
                    "duration": 0.10880216666669185
                },
                {
                    "name": "D6",
                    "midi": 86,
                    "time": 481.23198316666964,
                    "velocity": 0.4645669291338583,
                    "duration": 0.10880216666669185
                },
                {
                    "name": "A5",
                    "midi": 81,
                    "time": 481.3407853333363,
                    "velocity": 0.4645669291338583,
                    "duration": 0.10880216666669185
                },
                {
                    "name": "F#5",
                    "midi": 78,
                    "time": 481.449587500003,
                    "velocity": 0.5511811023622047,
                    "duration": 0.10880216666669185
                },
                {
                    "name": "D5",
                    "midi": 74,
                    "time": 481.5583896666697,
                    "velocity": 0.4566929133858268,
                    "duration": 0.10880216666669185
                },
                {
                    "name": "F#5",
                    "midi": 78,
                    "time": 481.6671918333364,
                    "velocity": 0.4566929133858268,
                    "duration": 0.10880216666669185
                },
                {
                    "name": "B5",
                    "midi": 83,
                    "time": 481.7759940000031,
                    "velocity": 0.6062992125984252,
                    "duration": 0.10880216666669185
                },
                {
                    "name": "D6",
                    "midi": 86,
                    "time": 481.8847961666698,
                    "velocity": 0.4566929133858268,
                    "duration": 0.10880216666669185
                },
                {
                    "name": "B5",
                    "midi": 83,
                    "time": 481.9935983333365,
                    "velocity": 0.4566929133858268,
                    "duration": 0.10880216666669185
                },
                {
                    "name": "G5",
                    "midi": 79,
                    "time": 482.10240050000317,
                    "velocity": 0.49606299212598426,
                    "duration": 0.10880216666669185
                },
                {
                    "name": "D5",
                    "midi": 74,
                    "time": 482.21120266666986,
                    "velocity": 0.47244094488188976,
                    "duration": 0.10880216666669185
                },
                {
                    "name": "G5",
                    "midi": 79,
                    "time": 482.32000483333655,
                    "velocity": 0.4566929133858268,
                    "duration": 0.10880216666669185
                },
                {
                    "name": "D6",
                    "midi": 86,
                    "time": 482.42880700000325,
                    "velocity": 0.4015748031496063,
                    "duration": 0.10880216666669185
                },
                {
                    "name": "F#6",
                    "midi": 90,
                    "time": 482.53760916666994,
                    "velocity": 0.31496062992125984,
                    "duration": 0.10880216666669185
                },
                {
                    "name": "D6",
                    "midi": 86,
                    "time": 482.64641133333663,
                    "velocity": 0.31496062992125984,
                    "duration": 0.10880216666669185
                },
                {
                    "name": "A5",
                    "midi": 81,
                    "time": 482.7552135000033,
                    "velocity": 0.3779527559055118,
                    "duration": 0.10880216666669185
                },
                {
                    "name": "F#5",
                    "midi": 78,
                    "time": 482.86401566667,
                    "velocity": 0.30708661417322836,
                    "duration": 0.10880216666669185
                },
                {
                    "name": "A5",
                    "midi": 81,
                    "time": 482.9728178333367,
                    "velocity": 0.30708661417322836,
                    "duration": 0.10880216666669185
                },
                {
                    "name": "D6",
                    "midi": 86,
                    "time": 483.0816200000034,
                    "velocity": 0.4015748031496063,
                    "duration": 0.10880216666669185
                },
                {
                    "name": "G6",
                    "midi": 91,
                    "time": 483.1904221666701,
                    "velocity": 0.33070866141732286,
                    "duration": 0.10880216666669185
                },
                {
                    "name": "D6",
                    "midi": 86,
                    "time": 483.2992243333368,
                    "velocity": 0.33070866141732286,
                    "duration": 0.10880216666669185
                },
                {
                    "name": "B5",
                    "midi": 83,
                    "time": 483.4080265000035,
                    "velocity": 0.3543307086614173,
                    "duration": 0.10880216666669185
                },
                {
                    "name": "G5",
                    "midi": 79,
                    "time": 483.51682866667016,
                    "velocity": 0.3228346456692913,
                    "duration": 0.10880216666669185
                },
                {
                    "name": "B5",
                    "midi": 83,
                    "time": 483.62563083333686,
                    "velocity": 0.3228346456692913,
                    "duration": 0.10880216666669185
                },
                {
                    "name": "D6",
                    "midi": 86,
                    "time": 483.73443300000355,
                    "velocity": 0.4015748031496063,
                    "duration": 0.10880216666669185
                },
                {
                    "name": "F#6",
                    "midi": 90,
                    "time": 483.84323516667024,
                    "velocity": 0.31496062992125984,
                    "duration": 0.10880216666669185
                },
                {
                    "name": "D6",
                    "midi": 86,
                    "time": 483.95203733333693,
                    "velocity": 0.31496062992125984,
                    "duration": 0.10880216666669185
                },
                {
                    "name": "A5",
                    "midi": 81,
                    "time": 484.0608395000036,
                    "velocity": 0.3779527559055118,
                    "duration": 0.10880216666669185
                },
                {
                    "name": "F#5",
                    "midi": 78,
                    "time": 484.1696416666703,
                    "velocity": 0.30708661417322836,
                    "duration": 0.10880216666669185
                },
                {
                    "name": "A5",
                    "midi": 81,
                    "time": 484.278443833337,
                    "velocity": 0.30708661417322836,
                    "duration": 0.10880216666669185
                },
                {
                    "name": "D6",
                    "midi": 86,
                    "time": 484.3872460000037,
                    "velocity": 0.4094488188976378,
                    "duration": 0.10880216666669185
                },
                {
                    "name": "G6",
                    "midi": 91,
                    "time": 484.4960481666704,
                    "velocity": 0.30708661417322836,
                    "duration": 0.10880216666669185
                },
                {
                    "name": "D6",
                    "midi": 86,
                    "time": 484.6048503333371,
                    "velocity": 0.30708661417322836,
                    "duration": 0.10880216666669185
                },
                {
                    "name": "B5",
                    "midi": 83,
                    "time": 484.7136525000038,
                    "velocity": 0.33858267716535434,
                    "duration": 0.10880216666669185
                },
                {
                    "name": "G5",
                    "midi": 79,
                    "time": 484.82245466667047,
                    "velocity": 0.3228346456692913,
                    "duration": 0.10880216666669185
                },
                {
                    "name": "B5",
                    "midi": 83,
                    "time": 484.93125683333716,
                    "velocity": 0.30708661417322836,
                    "duration": 0.10880216666669185
                },
                {
                    "name": "A5",
                    "midi": 81,
                    "time": 485.04005900000385,
                    "velocity": 0.6377952755905512,
                    "duration": 0.10880216666669185
                },
                {
                    "name": "D6",
                    "midi": 86,
                    "time": 485.14886116667054,
                    "velocity": 0.48031496062992124,
                    "duration": 0.10880216666669185
                },
                {
                    "name": "A5",
                    "midi": 81,
                    "time": 485.25766333333723,
                    "velocity": 0.48031496062992124,
                    "duration": 0.10880216666669185
                },
                {
                    "name": "F#5",
                    "midi": 78,
                    "time": 485.3664655000039,
                    "velocity": 0.5433070866141733,
                    "duration": 0.10880216666669185
                },
                {
                    "name": "D5",
                    "midi": 74,
                    "time": 485.4752676666706,
                    "velocity": 0.49606299212598426,
                    "duration": 0.10880216666669185
                },
                {
                    "name": "F#5",
                    "midi": 78,
                    "time": 485.5840698333373,
                    "velocity": 0.49606299212598426,
                    "duration": 0.10880216666669185
                },
                {
                    "name": "B5",
                    "midi": 83,
                    "time": 485.692872000004,
                    "velocity": 0.6456692913385826,
                    "duration": 0.10880216666669185
                },
                {
                    "name": "D6",
                    "midi": 86,
                    "time": 485.8016741666707,
                    "velocity": 0.4881889763779528,
                    "duration": 0.10880216666669185
                },
                {
                    "name": "B5",
                    "midi": 83,
                    "time": 485.9104763333374,
                    "velocity": 0.4881889763779528,
                    "duration": 0.10880216666669185
                },
                {
                    "name": "G5",
                    "midi": 79,
                    "time": 486.0192785000041,
                    "velocity": 0.5275590551181102,
                    "duration": 0.10880216666669185
                },
                {
                    "name": "D5",
                    "midi": 74,
                    "time": 486.12808066667077,
                    "velocity": 0.49606299212598426,
                    "duration": 0.10880216666669185
                },
                {
                    "name": "G5",
                    "midi": 79,
                    "time": 486.23688283333746,
                    "velocity": 0.5196850393700787,
                    "duration": 0.10880216666669185
                },
                {
                    "name": "A5",
                    "midi": 81,
                    "time": 486.34568500000415,
                    "velocity": 0.6377952755905512,
                    "duration": 0.10880216666669185
                },
                {
                    "name": "D6",
                    "midi": 86,
                    "time": 486.45448716667084,
                    "velocity": 0.48031496062992124,
                    "duration": 0.10880216666669185
                },
                {
                    "name": "A5",
                    "midi": 81,
                    "time": 486.56328933333754,
                    "velocity": 0.48031496062992124,
                    "duration": 0.10880216666669185
                },
                {
                    "name": "F#5",
                    "midi": 78,
                    "time": 486.6720915000042,
                    "velocity": 0.5354330708661418,
                    "duration": 0.10880216666669185
                },
                {
                    "name": "D5",
                    "midi": 74,
                    "time": 486.7808936666709,
                    "velocity": 0.49606299212598426,
                    "duration": 0.10880216666669185
                },
                {
                    "name": "F#5",
                    "midi": 78,
                    "time": 486.8896958333376,
                    "velocity": 0.49606299212598426,
                    "duration": 0.10880216666669185
                },
                {
                    "name": "B5",
                    "midi": 83,
                    "time": 486.9984980000043,
                    "velocity": 0.6614173228346457,
                    "duration": 0.10880216666669185
                },
                {
                    "name": "D6",
                    "midi": 86,
                    "time": 487.107300166671,
                    "velocity": 0.49606299212598426,
                    "duration": 0.10880216666669185
                },
                {
                    "name": "B5",
                    "midi": 83,
                    "time": 487.2161023333377,
                    "velocity": 0.49606299212598426,
                    "duration": 0.10880216666669185
                },
                {
                    "name": "G5",
                    "midi": 79,
                    "time": 487.3249045000044,
                    "velocity": 0.5433070866141733,
                    "duration": 0.10880216666669185
                },
                {
                    "name": "D5",
                    "midi": 74,
                    "time": 487.43370666667107,
                    "velocity": 0.5196850393700787,
                    "duration": 0.10880216666669185
                },
                {
                    "name": "G5",
                    "midi": 79,
                    "time": 487.54250883333776,
                    "velocity": 0.49606299212598426,
                    "duration": 0.10880216666669185
                },
                {
                    "name": "D6",
                    "midi": 86,
                    "time": 487.65131100000445,
                    "velocity": 0.4015748031496063,
                    "duration": 0.10880216666669185
                },
                {
                    "name": "F#6",
                    "midi": 90,
                    "time": 487.76011316667115,
                    "velocity": 0.31496062992125984,
                    "duration": 0.10880216666669185
                },
                {
                    "name": "D6",
                    "midi": 86,
                    "time": 487.86891533333784,
                    "velocity": 0.31496062992125984,
                    "duration": 0.10880216666669185
                },
                {
                    "name": "A5",
                    "midi": 81,
                    "time": 487.97771750000453,
                    "velocity": 0.3779527559055118,
                    "duration": 0.10880216666669185
                },
                {
                    "name": "F#5",
                    "midi": 78,
                    "time": 488.0865196666712,
                    "velocity": 0.30708661417322836,
                    "duration": 0.10880216666669185
                },
                {
                    "name": "A5",
                    "midi": 81,
                    "time": 488.1953218333379,
                    "velocity": 0.30708661417322836,
                    "duration": 0.10880216666669185
                },
                {
                    "name": "D6",
                    "midi": 86,
                    "time": 488.3041240000046,
                    "velocity": 0.4015748031496063,
                    "duration": 0.10880216666669185
                },
                {
                    "name": "G6",
                    "midi": 91,
                    "time": 488.4129261666713,
                    "velocity": 0.33070866141732286,
                    "duration": 0.10880216666669185
                },
                {
                    "name": "D6",
                    "midi": 86,
                    "time": 488.521728333338,
                    "velocity": 0.33070866141732286,
                    "duration": 0.10880216666669185
                },
                {
                    "name": "B5",
                    "midi": 83,
                    "time": 488.6305305000047,
                    "velocity": 0.3543307086614173,
                    "duration": 0.10880216666669185
                },
                {
                    "name": "G5",
                    "midi": 79,
                    "time": 488.7393326666714,
                    "velocity": 0.3228346456692913,
                    "duration": 0.10880216666669185
                },
                {
                    "name": "B5",
                    "midi": 83,
                    "time": 488.84813483333807,
                    "velocity": 0.3228346456692913,
                    "duration": 0.10880216666669185
                },
                {
                    "name": "D6",
                    "midi": 86,
                    "time": 488.95693700000476,
                    "velocity": 0.4015748031496063,
                    "duration": 0.10880216666669185
                },
                {
                    "name": "F#6",
                    "midi": 90,
                    "time": 489.06573916667145,
                    "velocity": 0.31496062992125984,
                    "duration": 0.10880216666669185
                },
                {
                    "name": "D6",
                    "midi": 86,
                    "time": 489.17454133333814,
                    "velocity": 0.31496062992125984,
                    "duration": 0.10880216666669185
                },
                {
                    "name": "A5",
                    "midi": 81,
                    "time": 489.28334350000483,
                    "velocity": 0.3779527559055118,
                    "duration": 0.10880216666669185
                },
                {
                    "name": "F#5",
                    "midi": 78,
                    "time": 489.3921456666715,
                    "velocity": 0.30708661417322836,
                    "duration": 0.10880216666669185
                },
                {
                    "name": "A5",
                    "midi": 81,
                    "time": 489.5009478333382,
                    "velocity": 0.30708661417322836,
                    "duration": 0.10880216666669185
                },
                {
                    "name": "D6",
                    "midi": 86,
                    "time": 489.6097500000049,
                    "velocity": 0.44881889763779526,
                    "duration": 0.10880216666669185
                },
                {
                    "name": "G6",
                    "midi": 91,
                    "time": 489.7185521666716,
                    "velocity": 0.33070866141732286,
                    "duration": 0.10880216666669185
                },
                {
                    "name": "D6",
                    "midi": 86,
                    "time": 489.8273543333383,
                    "velocity": 0.3464566929133858,
                    "duration": 0.10880216666669185
                },
                {
                    "name": "B5",
                    "midi": 83,
                    "time": 489.936156500005,
                    "velocity": 0.3858267716535433,
                    "duration": 0.10880216666669185
                },
                {
                    "name": "G5",
                    "midi": 79,
                    "time": 490.0449586666717,
                    "velocity": 0.3779527559055118,
                    "duration": 0.10880216666669185
                },
                {
                    "name": "B5",
                    "midi": 83,
                    "time": 490.15376083333837,
                    "velocity": 0.3700787401574803,
                    "duration": 0.10880216666669185
                },
                {
                    "name": "D6",
                    "midi": 86,
                    "time": 490.26256300000506,
                    "velocity": 0.49606299212598426,
                    "duration": 0.10880216666669185
                },
                {
                    "name": "F#6",
                    "midi": 90,
                    "time": 490.37136516667175,
                    "velocity": 0.3937007874015748,
                    "duration": 0.10880216666669185
                },
                {
                    "name": "D6",
                    "midi": 86,
                    "time": 490.48016733333844,
                    "velocity": 0.4015748031496063,
                    "duration": 0.10880216666669185
                },
                {
                    "name": "A5",
                    "midi": 81,
                    "time": 490.58896950000513,
                    "velocity": 0.49606299212598426,
                    "duration": 0.10880216666669185
                },
                {
                    "name": "F#5",
                    "midi": 78,
                    "time": 490.6977716666718,
                    "velocity": 0.4094488188976378,
                    "duration": 0.10880216666669185
                },
                {
                    "name": "A5",
                    "midi": 81,
                    "time": 490.8065738333385,
                    "velocity": 0.41732283464566927,
                    "duration": 0.10880216666669185
                },
                {
                    "name": "D6",
                    "midi": 86,
                    "time": 490.9153760000052,
                    "velocity": 0.5669291338582677,
                    "duration": 0.10880216666669185
                },
                {
                    "name": "G6",
                    "midi": 91,
                    "time": 491.0241781666719,
                    "velocity": 0.47244094488188976,
                    "duration": 0.10880216666669185
                },
                {
                    "name": "D6",
                    "midi": 86,
                    "time": 491.1329803333386,
                    "velocity": 0.4881889763779528,
                    "duration": 0.10880216666669185
                },
                {
                    "name": "B5",
                    "midi": 83,
                    "time": 491.2417825000053,
                    "velocity": 0.5275590551181102,
                    "duration": 0.10880216666669185
                },
                {
                    "name": "G5",
                    "midi": 79,
                    "time": 491.350584666672,
                    "velocity": 0.4881889763779528,
                    "duration": 0.10880216666669185
                },
                {
                    "name": "B5",
                    "midi": 83,
                    "time": 491.45938683333867,
                    "velocity": 0.5039370078740157,
                    "duration": 0.10880216666669185
                },
                {
                    "name": "D6",
                    "midi": 86,
                    "time": 491.56818900000536,
                    "velocity": 0.6299212598425197,
                    "duration": 0.10880216666669185
                },
                {
                    "name": "F#6",
                    "midi": 90,
                    "time": 491.67699116667205,
                    "velocity": 0.5039370078740157,
                    "duration": 0.10880216666669185
                },
                {
                    "name": "D6",
                    "midi": 86,
                    "time": 491.78579333333875,
                    "velocity": 0.5196850393700787,
                    "duration": 0.10880216666669185
                },
                {
                    "name": "A5",
                    "midi": 81,
                    "time": 491.89459550000544,
                    "velocity": 0.6299212598425197,
                    "duration": 0.10880216666669185
                },
                {
                    "name": "F#5",
                    "midi": 78,
                    "time": 492.00339766667213,
                    "velocity": 0.5196850393700787,
                    "duration": 0.10880216666669185
                },
                {
                    "name": "A5",
                    "midi": 81,
                    "time": 492.1121998333388,
                    "velocity": 0.5275590551181102,
                    "duration": 0.10880216666669185
                },
                {
                    "name": "G6",
                    "midi": 91,
                    "time": 492.2210020000055,
                    "velocity": 0.8188976377952756,
                    "duration": 0.3264065000000187
                },
                {
                    "name": "G5",
                    "midi": 79,
                    "time": 492.2210020000055,
                    "velocity": 0.7716535433070866,
                    "duration": 0.3264065000000187
                },
                {
                    "name": "G4",
                    "midi": 67,
                    "time": 492.87381500000555,
                    "velocity": 0.6377952755905512,
                    "duration": 0.3264065000000187
                },
                {
                    "name": "B4",
                    "midi": 71,
                    "time": 492.87381500000555,
                    "velocity": 0.6377952755905512,
                    "duration": 0.3264065000000187
                },
                {
                    "name": "D5",
                    "midi": 74,
                    "time": 492.87381500000555,
                    "velocity": 0.6377952755905512,
                    "duration": 0.3264065000000187
                },
                {
                    "name": "G5",
                    "midi": 79,
                    "time": 492.87381500000555,
                    "velocity": 0.7559055118110236,
                    "duration": 0.3264065000000187
                },
                {
                    "name": "G4",
                    "midi": 67,
                    "time": 493.5266280000056,
                    "velocity": 0.6377952755905512,
                    "duration": 1.305626000000018
                },
                {
                    "name": "B4",
                    "midi": 71,
                    "time": 493.5266280000056,
                    "velocity": 0.6377952755905512,
                    "duration": 1.305626000000018
                },
                {
                    "name": "D5",
                    "midi": 74,
                    "time": 493.5266280000056,
                    "velocity": 0.6377952755905512,
                    "duration": 1.305626000000018
                },
                {
                    "name": "G5",
                    "midi": 79,
                    "time": 493.5266280000056,
                    "velocity": 0.7559055118110236,
                    "duration": 1.305626000000018
                },
                {
                    "name": "B4",
                    "midi": 71,
                    "time": 495.4850670000056,
                    "velocity": 0.6377952755905512,
                    "duration": 0.3264065000000187
                },
                {
                    "name": "D5",
                    "midi": 74,
                    "time": 495.4850670000056,
                    "velocity": 0.6377952755905512,
                    "duration": 0.3264065000000187
                },
                {
                    "name": "G5",
                    "midi": 79,
                    "time": 495.4850670000056,
                    "velocity": 0.6377952755905512,
                    "duration": 0.3264065000000187
                },
                {
                    "name": "B5",
                    "midi": 83,
                    "time": 495.4850670000056,
                    "velocity": 0.7559055118110236,
                    "duration": 0.3264065000000187
                },
                {
                    "name": "B4",
                    "midi": 71,
                    "time": 496.1378800000056,
                    "velocity": 0.6377952755905512,
                    "duration": 1.305626000000018
                },
                {
                    "name": "D5",
                    "midi": 74,
                    "time": 496.1378800000056,
                    "velocity": 0.6377952755905512,
                    "duration": 1.305626000000018
                },
                {
                    "name": "G5",
                    "midi": 79,
                    "time": 496.1378800000056,
                    "velocity": 0.6377952755905512,
                    "duration": 1.305626000000018
                },
                {
                    "name": "B5",
                    "midi": 83,
                    "time": 496.1378800000056,
                    "velocity": 0.7559055118110236,
                    "duration": 1.305626000000018
                },
                {
                    "name": "D5",
                    "midi": 74,
                    "time": 498.0963190000056,
                    "velocity": 0.6377952755905512,
                    "duration": 0.3264065000000187
                },
                {
                    "name": "F5",
                    "midi": 77,
                    "time": 498.0963190000056,
                    "velocity": 0.6377952755905512,
                    "duration": 0.3264065000000187
                },
                {
                    "name": "B5",
                    "midi": 83,
                    "time": 498.0963190000056,
                    "velocity": 0.6377952755905512,
                    "duration": 0.3264065000000187
                },
                {
                    "name": "D6",
                    "midi": 86,
                    "time": 498.0963190000056,
                    "velocity": 0.7559055118110236,
                    "duration": 0.3264065000000187
                },
                {
                    "name": "D5",
                    "midi": 74,
                    "time": 498.74913200000566,
                    "velocity": 0.6377952755905512,
                    "duration": 1.305626000000018
                },
                {
                    "name": "F5",
                    "midi": 77,
                    "time": 498.74913200000566,
                    "velocity": 0.6377952755905512,
                    "duration": 1.305626000000018
                },
                {
                    "name": "B5",
                    "midi": 83,
                    "time": 498.74913200000566,
                    "velocity": 0.6377952755905512,
                    "duration": 1.305626000000018
                },
                {
                    "name": "D6",
                    "midi": 86,
                    "time": 498.74913200000566,
                    "velocity": 0.7559055118110236,
                    "duration": 1.305626000000018
                },
                {
                    "name": "F5",
                    "midi": 77,
                    "time": 500.70757100000566,
                    "velocity": 0.6377952755905512,
                    "duration": 0.3264065000000187
                },
                {
                    "name": "B5",
                    "midi": 83,
                    "time": 500.70757100000566,
                    "velocity": 0.6377952755905512,
                    "duration": 0.3264065000000187
                },
                {
                    "name": "D6",
                    "midi": 86,
                    "time": 500.70757100000566,
                    "velocity": 0.6377952755905512,
                    "duration": 0.3264065000000187
                },
                {
                    "name": "F6",
                    "midi": 89,
                    "time": 500.70757100000566,
                    "velocity": 0.7559055118110236,
                    "duration": 0.3264065000000187
                },
                {
                    "name": "F5",
                    "midi": 77,
                    "time": 501.3603840000057,
                    "velocity": 0.6377952755905512,
                    "duration": 1.305626000000018
                },
                {
                    "name": "B5",
                    "midi": 83,
                    "time": 501.3603840000057,
                    "velocity": 0.6377952755905512,
                    "duration": 1.305626000000018
                },
                {
                    "name": "D6",
                    "midi": 86,
                    "time": 501.3603840000057,
                    "velocity": 0.6377952755905512,
                    "duration": 1.305626000000018
                },
                {
                    "name": "F6",
                    "midi": 89,
                    "time": 501.3603840000057,
                    "velocity": 0.7559055118110236,
                    "duration": 1.305626000000018
                },
                {
                    "name": "B5",
                    "midi": 83,
                    "time": 503.3188230000057,
                    "velocity": 0.5433070866141733,
                    "duration": 0.3264065000000187
                },
                {
                    "name": "D6",
                    "midi": 86,
                    "time": 503.3188230000057,
                    "velocity": 0.5433070866141733,
                    "duration": 0.3264065000000187
                },
                {
                    "name": "F6",
                    "midi": 89,
                    "time": 503.3188230000057,
                    "velocity": 0.5433070866141733,
                    "duration": 0.3264065000000187
                },
                {
                    "name": "G#6",
                    "midi": 92,
                    "time": 503.3188230000057,
                    "velocity": 0.6377952755905512,
                    "duration": 0.3264065000000187
                },
                {
                    "name": "G#5",
                    "midi": 80,
                    "time": 504.6244490000057,
                    "velocity": 0.47244094488188976,
                    "duration": 0.3264065000000187
                },
                {
                    "name": "B5",
                    "midi": 83,
                    "time": 504.6244490000057,
                    "velocity": 0.47244094488188976,
                    "duration": 0.3264065000000187
                },
                {
                    "name": "D6",
                    "midi": 86,
                    "time": 504.6244490000057,
                    "velocity": 0.47244094488188976,
                    "duration": 0.3264065000000187
                },
                {
                    "name": "F6",
                    "midi": 89,
                    "time": 504.6244490000057,
                    "velocity": 0.5511811023622047,
                    "duration": 0.3264065000000187
                },
                {
                    "name": "D6",
                    "midi": 86,
                    "time": 505.93007500000573,
                    "velocity": 0.5275590551181102,
                    "duration": 0.3264065000000187
                },
                {
                    "name": "B5",
                    "midi": 83,
                    "time": 505.93007500000573,
                    "velocity": 0.44881889763779526,
                    "duration": 0.3264065000000187
                },
                {
                    "name": "G#5",
                    "midi": 80,
                    "time": 505.93007500000573,
                    "velocity": 0.44881889763779526,
                    "duration": 0.3264065000000187
                },
                {
                    "name": "F5",
                    "midi": 77,
                    "time": 505.93007500000573,
                    "velocity": 0.44881889763779526,
                    "duration": 0.3264065000000187
                },
                {
                    "name": "B5",
                    "midi": 83,
                    "time": 507.23570100000575,
                    "velocity": 0.47244094488188976,
                    "duration": 0.3264065000000187
                },
                {
                    "name": "G#5",
                    "midi": 80,
                    "time": 507.23570100000575,
                    "velocity": 0.3937007874015748,
                    "duration": 0.3264065000000187
                },
                {
                    "name": "F5",
                    "midi": 77,
                    "time": 507.23570100000575,
                    "velocity": 0.3937007874015748,
                    "duration": 0.3264065000000187
                },
                {
                    "name": "D5",
                    "midi": 74,
                    "time": 507.23570100000575,
                    "velocity": 0.3937007874015748,
                    "duration": 0.3264065000000187
                },
                {
                    "name": "B4",
                    "midi": 71,
                    "time": 508.54132700000577,
                    "velocity": 0.3228346456692913,
                    "duration": 0.3264065000000187
                },
                {
                    "name": "D5",
                    "midi": 74,
                    "time": 508.54132700000577,
                    "velocity": 0.3228346456692913,
                    "duration": 0.3264065000000187
                },
                {
                    "name": "F5",
                    "midi": 77,
                    "time": 508.54132700000577,
                    "velocity": 0.3228346456692913,
                    "duration": 0.3264065000000187
                },
                {
                    "name": "G#5",
                    "midi": 80,
                    "time": 508.54132700000577,
                    "velocity": 0.3858267716535433,
                    "duration": 0.3264065000000187
                },
                {
                    "name": "G#4",
                    "midi": 68,
                    "time": 509.8469530000058,
                    "velocity": 0.30708661417322836,
                    "duration": 0.3264065000000187
                },
                {
                    "name": "B4",
                    "midi": 71,
                    "time": 509.8469530000058,
                    "velocity": 0.30708661417322836,
                    "duration": 0.3264065000000187
                },
                {
                    "name": "F5",
                    "midi": 77,
                    "time": 509.8469530000058,
                    "velocity": 0.36220472440944884,
                    "duration": 0.3264065000000187
                },
                {
                    "name": "D5",
                    "midi": 74,
                    "time": 509.8469530000058,
                    "velocity": 0.30708661417322836,
                    "duration": 0.3264065000000187
                },
                {
                    "name": "F4",
                    "midi": 65,
                    "time": 511.1525790000058,
                    "velocity": 0.28346456692913385,
                    "duration": 0.3264065000000187
                },
                {
                    "name": "G#4",
                    "midi": 68,
                    "time": 511.1525790000058,
                    "velocity": 0.28346456692913385,
                    "duration": 0.3264065000000187
                },
                {
                    "name": "B4",
                    "midi": 71,
                    "time": 511.1525790000058,
                    "velocity": 0.28346456692913385,
                    "duration": 0.3264065000000187
                },
                {
                    "name": "D5",
                    "midi": 74,
                    "time": 511.1525790000058,
                    "velocity": 0.3464566929133858,
                    "duration": 0.3264065000000187
                },
                {
                    "name": "D4",
                    "midi": 62,
                    "time": 512.4582050000058,
                    "velocity": 0.2677165354330709,
                    "duration": 0.32640649999996185
                },
                {
                    "name": "F4",
                    "midi": 65,
                    "time": 512.4582050000058,
                    "velocity": 0.2677165354330709,
                    "duration": 0.32640649999996185
                },
                {
                    "name": "G#4",
                    "midi": 68,
                    "time": 512.4582050000058,
                    "velocity": 0.2677165354330709,
                    "duration": 0.32640649999996185
                },
                {
                    "name": "B4",
                    "midi": 71,
                    "time": 512.4582050000058,
                    "velocity": 0.3228346456692913,
                    "duration": 0.32640649999996185
                },
                {
                    "name": "B3",
                    "midi": 59,
                    "time": 513.7638310000058,
                    "velocity": 0.2047244094488189,
                    "duration": 0.32640649999996185
                },
                {
                    "name": "D4",
                    "midi": 62,
                    "time": 513.7638310000058,
                    "velocity": 0.2047244094488189,
                    "duration": 0.32640649999996185
                },
                {
                    "name": "F4",
                    "midi": 65,
                    "time": 513.7638310000058,
                    "velocity": 0.2047244094488189,
                    "duration": 0.32640649999996185
                },
                {
                    "name": "G#4",
                    "midi": 68,
                    "time": 513.7638310000058,
                    "velocity": 0.25196850393700787,
                    "duration": 0.32640649999996185
                },
                {
                    "name": "A#3",
                    "midi": 58,
                    "time": 516.3750830000057,
                    "velocity": 0.2047244094488189,
                    "duration": 0.6528130000000374
                },
                {
                    "name": "C#4",
                    "midi": 61,
                    "time": 516.3750830000057,
                    "velocity": 0.2047244094488189,
                    "duration": 0.6528130000000374
                },
                {
                    "name": "E4",
                    "midi": 64,
                    "time": 516.3750830000057,
                    "velocity": 0.2047244094488189,
                    "duration": 0.6528130000000374
                },
                {
                    "name": "G4",
                    "midi": 67,
                    "time": 516.3750830000057,
                    "velocity": 0.25196850393700787,
                    "duration": 0.6528130000000374
                },
                {
                    "name": "A3",
                    "midi": 57,
                    "time": 518.9863350000057,
                    "velocity": 0.2047244094488189,
                    "duration": 0.6528130000000374
                },
                {
                    "name": "C4",
                    "midi": 60,
                    "time": 518.9863350000057,
                    "velocity": 0.2047244094488189,
                    "duration": 0.6528130000000374
                },
                {
                    "name": "D#4",
                    "midi": 63,
                    "time": 518.9863350000057,
                    "velocity": 0.2047244094488189,
                    "duration": 0.6528130000000374
                },
                {
                    "name": "F#4",
                    "midi": 66,
                    "time": 518.9863350000057,
                    "velocity": 0.25196850393700787,
                    "duration": 0.6528130000000374
                },
                {
                    "name": "B3",
                    "midi": 59,
                    "time": 521.5975870000058,
                    "velocity": 0.1732283464566929,
                    "duration": 3.2640649999999596
                },
                {
                    "name": "D4",
                    "midi": 62,
                    "time": 521.5975870000058,
                    "velocity": 0.1732283464566929,
                    "duration": 3.2640649999999596
                },
                {
                    "name": "F4",
                    "midi": 65,
                    "time": 521.5975870000058,
                    "velocity": 0.2125984251968504,
                    "duration": 3.2640649999999596
                },
                {
                    "name": "C4",
                    "midi": 60,
                    "time": 524.8616520000057,
                    "velocity": 0.6692913385826772,
                    "duration": 0.32640649999996185
                },
                {
                    "name": "G6",
                    "midi": 91,
                    "time": 525.1880585000057,
                    "velocity": 0.3937007874015748,
                    "duration": 0.16320325000003777
                },
                {
                    "name": "G6",
                    "midi": 91,
                    "time": 525.5144650000058,
                    "velocity": 0.41732283464566927,
                    "duration": 0.4896097499999996
                },
                {
                    "name": "E6",
                    "midi": 88,
                    "time": 526.0040747500058,
                    "velocity": 0.3937007874015748,
                    "duration": 0.16320325000003777
                },
                {
                    "name": "D6",
                    "midi": 86,
                    "time": 526.1672780000058,
                    "velocity": 0.4251968503937008,
                    "duration": 0.32640649999996185
                },
                {
                    "name": "G5",
                    "midi": 79,
                    "time": 526.4936845000058,
                    "velocity": 0.3937007874015748,
                    "duration": 0.32640649999996185
                },
                {
                    "name": "C6",
                    "midi": 84,
                    "time": 526.8200910000057,
                    "velocity": 0.3937007874015748,
                    "duration": 0.32640649999996185
                },
                {
                    "name": "E6",
                    "midi": 88,
                    "time": 527.1464975000057,
                    "velocity": 0.3858267716535433,
                    "duration": 0.32640649999996185
                },
                {
                    "name": "G6",
                    "midi": 91,
                    "time": 527.7993105000056,
                    "velocity": 0.3937007874015748,
                    "duration": 0.16320325000003777
                },
                {
                    "name": "G6",
                    "midi": 91,
                    "time": 528.1257170000057,
                    "velocity": 0.41732283464566927,
                    "duration": 0.4896097499999996
                },
                {
                    "name": "E6",
                    "midi": 88,
                    "time": 528.6153267500057,
                    "velocity": 0.3937007874015748,
                    "duration": 0.16320325000003777
                },
                {
                    "name": "D6",
                    "midi": 86,
                    "time": 528.7785300000057,
                    "velocity": 0.4251968503937008,
                    "duration": 0.32640649999996185
                },
                {
                    "name": "G5",
                    "midi": 79,
                    "time": 529.1049365000057,
                    "velocity": 0.3937007874015748,
                    "duration": 0.32640649999996185
                },
                {
                    "name": "C6",
                    "midi": 84,
                    "time": 529.4313430000057,
                    "velocity": 0.3937007874015748,
                    "duration": 0.32640649999996185
                },
                {
                    "name": "G6",
                    "midi": 91,
                    "time": 530.0841560000056,
                    "velocity": 0.3937007874015748,
                    "duration": 0.16320325000003777
                },
                {
                    "name": "F#6",
                    "midi": 90,
                    "time": 530.2473592500056,
                    "velocity": 0.3700787401574803,
                    "duration": 0.16320325000003777
                },
                {
                    "name": "G6",
                    "midi": 91,
                    "time": 530.4105625000057,
                    "velocity": 0.3937007874015748,
                    "duration": 0.16320325000003777
                },
                {
                    "name": "F#6",
                    "midi": 90,
                    "time": 530.5737657500057,
                    "velocity": 0.36220472440944884,
                    "duration": 0.16320325000003777
                },
                {
                    "name": "G6",
                    "midi": 91,
                    "time": 530.7369690000057,
                    "velocity": 0.3937007874015748,
                    "duration": 0.16320325000003777
                },
                {
                    "name": "F#6",
                    "midi": 90,
                    "time": 530.9001722500058,
                    "velocity": 0.3700787401574803,
                    "duration": 0.16320325000003777
                },
                {
                    "name": "G6",
                    "midi": 91,
                    "time": 531.0633755000058,
                    "velocity": 0.3937007874015748,
                    "duration": 0.16320325000003777
                },
                {
                    "name": "E6",
                    "midi": 88,
                    "time": 531.2265787500058,
                    "velocity": 0.3700787401574803,
                    "duration": 0.16320325000003777
                },
                {
                    "name": "D6",
                    "midi": 86,
                    "time": 531.3897820000059,
                    "velocity": 0.3779527559055118,
                    "duration": 0.16320325000003777
                },
                {
                    "name": "C#6",
                    "midi": 85,
                    "time": 531.5529852500059,
                    "velocity": 0.33858267716535434,
                    "duration": 0.16320325000003777
                },
                {
                    "name": "D6",
                    "midi": 86,
                    "time": 531.716188500006,
                    "velocity": 0.3779527559055118,
                    "duration": 0.16320325000003777
                },
                {
                    "name": "G5",
                    "midi": 79,
                    "time": 531.879391750006,
                    "velocity": 0.3543307086614173,
                    "duration": 0.16320325000003777
                },
                {
                    "name": "C6",
                    "midi": 84,
                    "time": 532.042595000006,
                    "velocity": 0.3779527559055118,
                    "duration": 0.16320325000003777
                },
                {
                    "name": "B5",
                    "midi": 83,
                    "time": 532.2057982500061,
                    "velocity": 0.3464566929133858,
                    "duration": 0.16320325000003777
                },
                {
                    "name": "C6",
                    "midi": 84,
                    "time": 532.3690015000061,
                    "velocity": 0.3937007874015748,
                    "duration": 0.16320325000003777
                },
                {
                    "name": "E6",
                    "midi": 88,
                    "time": 532.5322047500061,
                    "velocity": 0.36220472440944884,
                    "duration": 0.16320325000003777
                },
                {
                    "name": "G6",
                    "midi": 91,
                    "time": 532.6954080000062,
                    "velocity": 0.3937007874015748,
                    "duration": 0.16320325000003777
                },
                {
                    "name": "F#6",
                    "midi": 90,
                    "time": 532.8586112500062,
                    "velocity": 0.36220472440944884,
                    "duration": 0.16320325000003777
                },
                {
                    "name": "G6",
                    "midi": 91,
                    "time": 533.0218145000063,
                    "velocity": 0.3937007874015748,
                    "duration": 0.16320325000003777
                },
                {
                    "name": "F#6",
                    "midi": 90,
                    "time": 533.1850177500063,
                    "velocity": 0.3700787401574803,
                    "duration": 0.16320325000003777
                },
                {
                    "name": "G6",
                    "midi": 91,
                    "time": 533.3482210000063,
                    "velocity": 0.3937007874015748,
                    "duration": 0.16320325000003777
                },
                {
                    "name": "F#6",
                    "midi": 90,
                    "time": 533.5114242500064,
                    "velocity": 0.36220472440944884,
                    "duration": 0.16320325000003777
                },
                {
                    "name": "G6",
                    "midi": 91,
                    "time": 533.6746275000064,
                    "velocity": 0.3937007874015748,
                    "duration": 0.16320325000003777
                },
                {
                    "name": "E6",
                    "midi": 88,
                    "time": 533.8378307500064,
                    "velocity": 0.3464566929133858,
                    "duration": 0.16320325000003777
                },
                {
                    "name": "D6",
                    "midi": 86,
                    "time": 534.0010340000065,
                    "velocity": 0.3779527559055118,
                    "duration": 0.16320325000003777
                },
                {
                    "name": "C#6",
                    "midi": 85,
                    "time": 534.1642372500065,
                    "velocity": 0.3543307086614173,
                    "duration": 0.16320325000003777
                },
                {
                    "name": "D6",
                    "midi": 86,
                    "time": 534.3274405000066,
                    "velocity": 0.3858267716535433,
                    "duration": 0.16320325000003777
                },
                {
                    "name": "G5",
                    "midi": 79,
                    "time": 534.4906437500066,
                    "velocity": 0.3543307086614173,
                    "duration": 0.16320325000003777
                },
                {
                    "name": "C6",
                    "midi": 84,
                    "time": 534.6538470000066,
                    "velocity": 0.3858267716535433,
                    "duration": 0.16320325000003777
                },
                {
                    "name": "B5",
                    "midi": 83,
                    "time": 534.8170502500067,
                    "velocity": 0.36220472440944884,
                    "duration": 0.16320325000003777
                },
                {
                    "name": "C6",
                    "midi": 84,
                    "time": 534.9802535000067,
                    "velocity": 0.3858267716535433,
                    "duration": 0.16320325000003777
                },
                {
                    "name": "E6",
                    "midi": 88,
                    "time": 535.1434567500067,
                    "velocity": 0.36220472440944884,
                    "duration": 0.16320325000003777
                },
                {
                    "name": "D6",
                    "midi": 86,
                    "time": 535.3066600000068,
                    "velocity": 0.4645669291338583,
                    "duration": 0.16320325000003777
                },
                {
                    "name": "C#6",
                    "midi": 85,
                    "time": 535.4698632500068,
                    "velocity": 0.4330708661417323,
                    "duration": 0.16320325000003777
                },
                {
                    "name": "D6",
                    "midi": 86,
                    "time": 535.6330665000069,
                    "velocity": 0.5354330708661418,
                    "duration": 0.16320325000003777
                },
                {
                    "name": "G5",
                    "midi": 79,
                    "time": 535.7962697500069,
                    "velocity": 0.4881889763779528,
                    "duration": 0.16320325000003777
                },
                {
                    "name": "C6",
                    "midi": 84,
                    "time": 535.9594730000069,
                    "velocity": 0.5826771653543307,
                    "duration": 0.17680352083334583
                },
                {
                    "name": "B5",
                    "midi": 83,
                    "time": 536.122676250007,
                    "velocity": 0.5275590551181102,
                    "duration": 0.17680352083323214
                },
                {
                    "name": "C6",
                    "midi": 84,
                    "time": 536.2858795000069,
                    "velocity": 0.5275590551181102,
                    "duration": 0.17680352083323214
                },
                {
                    "name": "E6",
                    "midi": 88,
                    "time": 536.4490827500068,
                    "velocity": 0.5275590551181102,
                    "duration": 0.16320324999992408
                },
                {
                    "name": "B5",
                    "midi": 83,
                    "time": 536.6122860000067,
                    "velocity": 0.5984251968503937,
                    "duration": 0.17680352083334583
                },
                {
                    "name": "A#5",
                    "midi": 82,
                    "time": 536.7754892500068,
                    "velocity": 0.5433070866141733,
                    "duration": 0.17680352083323214
                },
                {
                    "name": "B5",
                    "midi": 83,
                    "time": 536.9386925000067,
                    "velocity": 0.5433070866141733,
                    "duration": 0.17680352083323214
                },
                {
                    "name": "D6",
                    "midi": 86,
                    "time": 537.1018957500066,
                    "velocity": 0.5433070866141733,
                    "duration": 0.16320324999992408
                },
                {
                    "name": "A5",
                    "midi": 81,
                    "time": 537.2650990000066,
                    "velocity": 0.5905511811023622,
                    "duration": 0.17680352083334583
                },
                {
                    "name": "G#5",
                    "midi": 80,
                    "time": 537.4283022500066,
                    "velocity": 0.5511811023622047,
                    "duration": 0.17680352083323214
                },
                {
                    "name": "A5",
                    "midi": 81,
                    "time": 537.5915055000065,
                    "velocity": 0.5511811023622047,
                    "duration": 0.17680352083323214
                },
                {
                    "name": "C6",
                    "midi": 84,
                    "time": 537.7547087500064,
                    "velocity": 0.5511811023622047,
                    "duration": 0.16320324999992408
                },
                {
                    "name": "G5",
                    "midi": 79,
                    "time": 537.9179120000064,
                    "velocity": 0.5905511811023622,
                    "duration": 0.17680352083334583
                },
                {
                    "name": "F#5",
                    "midi": 78,
                    "time": 538.0811152500064,
                    "velocity": 0.5433070866141733,
                    "duration": 0.17680352083323214
                },
                {
                    "name": "G5",
                    "midi": 79,
                    "time": 538.2443185000063,
                    "velocity": 0.5433070866141733,
                    "duration": 0.17680352083323214
                },
                {
                    "name": "B5",
                    "midi": 83,
                    "time": 538.4075217500063,
                    "velocity": 0.5433070866141733,
                    "duration": 0.16320324999992408
                },
                {
                    "name": "F5",
                    "midi": 77,
                    "time": 538.5707250000062,
                    "velocity": 0.5905511811023622,
                    "duration": 0.17680352083334583
                },
                {
                    "name": "E5",
                    "midi": 76,
                    "time": 538.7339282500062,
                    "velocity": 0.5433070866141733,
                    "duration": 0.17680352083323214
                },
                {
                    "name": "F5",
                    "midi": 77,
                    "time": 538.8971315000061,
                    "velocity": 0.5433070866141733,
                    "duration": 0.17680352083323214
                },
                {
                    "name": "A5",
                    "midi": 81,
                    "time": 539.0603347500061,
                    "velocity": 0.5433070866141733,
                    "duration": 0.16320324999992408
                },
                {
                    "name": "E5",
                    "midi": 76,
                    "time": 539.223538000006,
                    "velocity": 0.5905511811023622,
                    "duration": 0.17680352083334583
                },
                {
                    "name": "D#5",
                    "midi": 75,
                    "time": 539.386741250006,
                    "velocity": 0.5511811023622047,
                    "duration": 0.17680352083323214
                },
                {
                    "name": "E5",
                    "midi": 76,
                    "time": 539.549944500006,
                    "velocity": 0.5511811023622047,
                    "duration": 0.17680352083323214
                },
                {
                    "name": "G5",
                    "midi": 79,
                    "time": 539.7131477500059,
                    "velocity": 0.5511811023622047,
                    "duration": 0.16320324999992408
                },
                {
                    "name": "D5",
                    "midi": 74,
                    "time": 539.8763510000058,
                    "velocity": 0.5905511811023622,
                    "duration": 0.17680352083334583
                },
                {
                    "name": "C#5",
                    "midi": 73,
                    "time": 540.0395542500058,
                    "velocity": 0.5511811023622047,
                    "duration": 0.17680352083323214
                },
                {
                    "name": "D5",
                    "midi": 74,
                    "time": 540.2027575000058,
                    "velocity": 0.5511811023622047,
                    "duration": 0.17680352083323214
                },
                {
                    "name": "F5",
                    "midi": 77,
                    "time": 540.3659607500057,
                    "velocity": 0.5433070866141733,
                    "duration": 0.16320324999992408
                },
                {
                    "name": "C5",
                    "midi": 72,
                    "time": 540.5291640000056,
                    "velocity": 0.5905511811023622,
                    "duration": 0.17680352083334583
                },
                {
                    "name": "B4",
                    "midi": 71,
                    "time": 540.6923672500056,
                    "velocity": 0.5433070866141733,
                    "duration": 0.17680352083323214
                },
                {
                    "name": "C5",
                    "midi": 72,
                    "time": 540.8555705000056,
                    "velocity": 0.5433070866141733,
                    "duration": 0.17680352083323214
                },
                {
                    "name": "E5",
                    "midi": 76,
                    "time": 541.0187737500055,
                    "velocity": 0.5433070866141733,
                    "duration": 0.16320324999992408
                },
                {
                    "name": "E5",
                    "midi": 76,
                    "time": 541.1819770000054,
                    "velocity": 0.5905511811023622,
                    "duration": 0.17680352083334583
                },
                {
                    "name": "D#5",
                    "midi": 75,
                    "time": 541.3451802500055,
                    "velocity": 0.5354330708661418,
                    "duration": 0.17680352083323214
                },
                {
                    "name": "E5",
                    "midi": 76,
                    "time": 541.5083835000054,
                    "velocity": 0.5354330708661418,
                    "duration": 0.17680352083323214
                },
                {
                    "name": "G5",
                    "midi": 79,
                    "time": 541.6715867500053,
                    "velocity": 0.5354330708661418,
                    "duration": 0.16320324999992408
                },
                {
                    "name": "D5",
                    "midi": 74,
                    "time": 541.8347900000052,
                    "velocity": 0.5905511811023622,
                    "duration": 0.17680352083334583
                },
                {
                    "name": "C#5",
                    "midi": 73,
                    "time": 541.9979932500053,
                    "velocity": 0.5354330708661418,
                    "duration": 0.17680352083323214
                },
                {
                    "name": "D5",
                    "midi": 74,
                    "time": 542.1611965000052,
                    "velocity": 0.5354330708661418,
                    "duration": 0.17680352083323214
                },
                {
                    "name": "B4",
                    "midi": 71,
                    "time": 542.3243997500051,
                    "velocity": 0.5354330708661418,
                    "duration": 0.16320324999992408
                },
                {
                    "name": "C5",
                    "midi": 72,
                    "time": 542.487603000005,
                    "velocity": 0.5826771653543307,
                    "duration": 0.17680352083334583
                },
                {
                    "name": "B4",
                    "midi": 71,
                    "time": 542.6508062500051,
                    "velocity": 0.5354330708661418,
                    "duration": 0.17680352083323214
                },
                {
                    "name": "C5",
                    "midi": 72,
                    "time": 542.814009500005,
                    "velocity": 0.5354330708661418,
                    "duration": 0.17680352083323214
                },
                {
                    "name": "A4",
                    "midi": 69,
                    "time": 542.9772127500049,
                    "velocity": 0.5354330708661418,
                    "duration": 0.16320324999992408
                },
                {
                    "name": "B4",
                    "midi": 71,
                    "time": 543.1404160000048,
                    "velocity": 0.5826771653543307,
                    "duration": 0.17680352083334583
                },
                {
                    "name": "A#4",
                    "midi": 70,
                    "time": 543.3036192500049,
                    "velocity": 0.5433070866141733,
                    "duration": 0.17680352083323214
                },
                {
                    "name": "B4",
                    "midi": 71,
                    "time": 543.4668225000048,
                    "velocity": 0.5354330708661418,
                    "duration": 0.17680352083323214
                },
                {
                    "name": "G4",
                    "midi": 67,
                    "time": 543.6300257500047,
                    "velocity": 0.5354330708661418,
                    "duration": 0.16320324999992408
                },
                {
                    "name": "A4",
                    "midi": 69,
                    "time": 543.7932290000047,
                    "velocity": 0.5826771653543307,
                    "duration": 0.17680352083334583
                },
                {
                    "name": "G#4",
                    "midi": 68,
                    "time": 543.9564322500047,
                    "velocity": 0.5354330708661418,
                    "duration": 0.17680352083323214
                },
                {
                    "name": "A4",
                    "midi": 69,
                    "time": 544.1196355000046,
                    "velocity": 0.5354330708661418,
                    "duration": 0.17680352083323214
                },
                {
                    "name": "F4",
                    "midi": 65,
                    "time": 544.2828387500045,
                    "velocity": 0.5354330708661418,
                    "duration": 0.16320324999992408
                },
                {
                    "name": "G4",
                    "midi": 67,
                    "time": 544.4460420000045,
                    "velocity": 0.5826771653543307,
                    "duration": 0.17680352083334583
                },
                {
                    "name": "F#4",
                    "midi": 66,
                    "time": 544.6092452500045,
                    "velocity": 0.5354330708661418,
                    "duration": 0.17680352083323214
                },
                {
                    "name": "G4",
                    "midi": 67,
                    "time": 544.7724485000044,
                    "velocity": 0.5354330708661418,
                    "duration": 0.17680352083323214
                },
                {
                    "name": "E4",
                    "midi": 64,
                    "time": 544.9356517500044,
                    "velocity": 0.5354330708661418,
                    "duration": 0.16320324999992408
                },
                {
                    "name": "F4",
                    "midi": 65,
                    "time": 545.0988550000043,
                    "velocity": 0.5826771653543307,
                    "duration": 0.17680352083334583
                },
                {
                    "name": "E4",
                    "midi": 64,
                    "time": 545.2620582500043,
                    "velocity": 0.5354330708661418,
                    "duration": 0.17680352083323214
                },
                {
                    "name": "F4",
                    "midi": 65,
                    "time": 545.4252615000042,
                    "velocity": 0.5354330708661418,
                    "duration": 0.17680352083323214
                },
                {
                    "name": "D4",
                    "midi": 62,
                    "time": 545.5884647500042,
                    "velocity": 0.5354330708661418,
                    "duration": 0.16320324999992408
                },
                {
                    "name": "E4",
                    "midi": 64,
                    "time": 545.7516680000041,
                    "velocity": 0.7165354330708661,
                    "duration": 0.17680352083334583
                },
                {
                    "name": "C4",
                    "midi": 60,
                    "time": 545.9148712500041,
                    "velocity": 0.6377952755905512,
                    "duration": 0.17680352083323214
                },
                {
                    "name": "G3",
                    "midi": 55,
                    "time": 546.078074500004,
                    "velocity": 0.6377952755905512,
                    "duration": 0.17680352083323214
                },
                {
                    "name": "E4",
                    "midi": 64,
                    "time": 546.241277750004,
                    "velocity": 0.6377952755905512,
                    "duration": 0.16320324999992408
                },
                {
                    "name": "D4",
                    "midi": 62,
                    "time": 546.4044810000039,
                    "velocity": 0.7086614173228346,
                    "duration": 0.17680352083334583
                },
                {
                    "name": "B3",
                    "midi": 59,
                    "time": 546.5676842500039,
                    "velocity": 0.6377952755905512,
                    "duration": 0.17680352083323214
                },
                {
                    "name": "G3",
                    "midi": 55,
                    "time": 546.7308875000039,
                    "velocity": 0.6377952755905512,
                    "duration": 0.17680352083323214
                },
                {
                    "name": "D4",
                    "midi": 62,
                    "time": 546.8940907500038,
                    "velocity": 0.6377952755905512,
                    "duration": 0.16320324999992408
                },
                {
                    "name": "F4",
                    "midi": 65,
                    "time": 547.0572940000037,
                    "velocity": 0.7165354330708661,
                    "duration": 0.17680352083334583
                },
                {
                    "name": "D4",
                    "midi": 62,
                    "time": 547.2204972500037,
                    "velocity": 0.6377952755905512,
                    "duration": 0.17680352083323214
                },
                {
                    "name": "A3",
                    "midi": 57,
                    "time": 547.3837005000037,
                    "velocity": 0.6377952755905512,
                    "duration": 0.17680352083323214
                },
                {
                    "name": "F4",
                    "midi": 65,
                    "time": 547.5469037500036,
                    "velocity": 0.6377952755905512,
                    "duration": 0.16320324999992408
                },
                {
                    "name": "E4",
                    "midi": 64,
                    "time": 547.7101070000035,
                    "velocity": 0.7086614173228346,
                    "duration": 0.17680352083334583
                },
                {
                    "name": "C4",
                    "midi": 60,
                    "time": 547.8733102500036,
                    "velocity": 0.6377952755905512,
                    "duration": 0.17680352083323214
                },
                {
                    "name": "A3",
                    "midi": 57,
                    "time": 548.0365135000035,
                    "velocity": 0.6377952755905512,
                    "duration": 0.17680352083323214
                },
                {
                    "name": "E4",
                    "midi": 64,
                    "time": 548.1997167500034,
                    "velocity": 0.6377952755905512,
                    "duration": 0.16320324999992408
                },
                {
                    "name": "A4",
                    "midi": 69,
                    "time": 548.3629200000033,
                    "velocity": 0.7086614173228346,
                    "duration": 0.17680352083334583
                },
                {
                    "name": "F4",
                    "midi": 65,
                    "time": 548.5261232500034,
                    "velocity": 0.6377952755905512,
                    "duration": 0.17680352083323214
                },
                {
                    "name": "C4",
                    "midi": 60,
                    "time": 548.6893265000033,
                    "velocity": 0.6377952755905512,
                    "duration": 0.17680352083323214
                },
                {
                    "name": "A4",
                    "midi": 69,
                    "time": 548.8525297500032,
                    "velocity": 0.6377952755905512,
                    "duration": 0.16320324999992408
                },
                {
                    "name": "G4",
                    "midi": 67,
                    "time": 549.0157330000031,
                    "velocity": 0.7086614173228346,
                    "duration": 0.17680352083334583
                },
                {
                    "name": "E4",
                    "midi": 64,
                    "time": 549.1789362500032,
                    "velocity": 0.6377952755905512,
                    "duration": 0.17680352083323214
                },
                {
                    "name": "C4",
                    "midi": 60,
                    "time": 549.3421395000031,
                    "velocity": 0.6377952755905512,
                    "duration": 0.17680352083323214
                },
                {
                    "name": "C5",
                    "midi": 72,
                    "time": 549.505342750003,
                    "velocity": 0.6377952755905512,
                    "duration": 0.16320324999992408
                },
                {
                    "name": "D4",
                    "midi": 62,
                    "time": 549.668546000003,
                    "velocity": 0.7165354330708661,
                    "duration": 0.17680352083334583
                },
                {
                    "name": "C5",
                    "midi": 72,
                    "time": 549.831749250003,
                    "velocity": 0.6377952755905512,
                    "duration": 0.17680352083323214
                },
                {
                    "name": "G4",
                    "midi": 67,
                    "time": 549.9949525000029,
                    "velocity": 0.6377952755905512,
                    "duration": 0.17680352083323214
                },
                {
                    "name": "D4",
                    "midi": 62,
                    "time": 550.1581557500028,
                    "velocity": 0.6377952755905512,
                    "duration": 0.16320324999992408
                },
                {
                    "name": "B4",
                    "midi": 71,
                    "time": 550.3213590000028,
                    "velocity": 0.7165354330708661,
                    "duration": 0.17680352083334583
                },
                {
                    "name": "G4",
                    "midi": 67,
                    "time": 550.4845622500028,
                    "velocity": 0.6377952755905512,
                    "duration": 0.17680352083323214
                },
                {
                    "name": "D4",
                    "midi": 62,
                    "time": 550.6477655000027,
                    "velocity": 0.6377952755905512,
                    "duration": 0.17680352083323214
                },
                {
                    "name": "B4",
                    "midi": 71,
                    "time": 550.8109687500026,
                    "velocity": 0.6377952755905512,
                    "duration": 0.16320324999992408
                },
                {
                    "name": "E5",
                    "midi": 76,
                    "time": 550.9741720000026,
                    "velocity": 0.7165354330708661,
                    "duration": 0.17680352083334583
                },
                {
                    "name": "C5",
                    "midi": 72,
                    "time": 551.1373752500026,
                    "velocity": 0.6377952755905512,
                    "duration": 0.17680352083323214
                },
                {
                    "name": "G4",
                    "midi": 67,
                    "time": 551.3005785000025,
                    "velocity": 0.6377952755905512,
                    "duration": 0.17680352083323214
                },
                {
                    "name": "E5",
                    "midi": 76,
                    "time": 551.4637817500025,
                    "velocity": 0.6377952755905512,
                    "duration": 0.16320324999992408
                },
                {
                    "name": "G4",
                    "midi": 67,
                    "time": 551.6269850000024,
                    "velocity": 0.7165354330708661,
                    "duration": 0.17680352083334583
                },
                {
                    "name": "D5",
                    "midi": 74,
                    "time": 551.7901882500024,
                    "velocity": 0.6377952755905512,
                    "duration": 0.17680352083323214
                },
                {
                    "name": "B4",
                    "midi": 71,
                    "time": 551.9533915000023,
                    "velocity": 0.6377952755905512,
                    "duration": 0.17680352083323214
                },
                {
                    "name": "G4",
                    "midi": 67,
                    "time": 552.1165947500023,
                    "velocity": 0.6377952755905512,
                    "duration": 0.16320324999992408
                },
                {
                    "name": "F5",
                    "midi": 77,
                    "time": 552.2797980000022,
                    "velocity": 0.7165354330708661,
                    "duration": 0.17680352083334583
                },
                {
                    "name": "D5",
                    "midi": 74,
                    "time": 552.4430012500022,
                    "velocity": 0.6377952755905512,
                    "duration": 0.17680352083323214
                },
                {
                    "name": "A4",
                    "midi": 69,
                    "time": 552.6062045000021,
                    "velocity": 0.6377952755905512,
                    "duration": 0.17680352083323214
                },
                {
                    "name": "F5",
                    "midi": 77,
                    "time": 552.7694077500021,
                    "velocity": 0.6377952755905512,
                    "duration": 0.16320324999992408
                },
                {
                    "name": "A4",
                    "midi": 69,
                    "time": 552.932611000002,
                    "velocity": 0.7322834645669292,
                    "duration": 0.17680352083334583
                },
                {
                    "name": "E5",
                    "midi": 76,
                    "time": 553.095814250002,
                    "velocity": 0.6377952755905512,
                    "duration": 0.17680352083323214
                },
                {
                    "name": "C5",
                    "midi": 72,
                    "time": 553.259017500002,
                    "velocity": 0.6377952755905512,
                    "duration": 0.17680352083323214
                },
                {
                    "name": "A4",
                    "midi": 69,
                    "time": 553.4222207500019,
                    "velocity": 0.6377952755905512,
                    "duration": 0.16320324999992408
                },
                {
                    "name": "A5",
                    "midi": 81,
                    "time": 553.5854240000018,
                    "velocity": 0.7244094488188977,
                    "duration": 0.17680352083334583
                },
                {
                    "name": "F5",
                    "midi": 77,
                    "time": 553.7486272500018,
                    "velocity": 0.6377952755905512,
                    "duration": 0.17680352083323214
                },
                {
                    "name": "C5",
                    "midi": 72,
                    "time": 553.9118305000018,
                    "velocity": 0.6377952755905512,
                    "duration": 0.17680352083323214
                },
                {
                    "name": "A5",
                    "midi": 81,
                    "time": 554.0750337500017,
                    "velocity": 0.6377952755905512,
                    "duration": 0.16320324999992408
                },
                {
                    "name": "C5",
                    "midi": 72,
                    "time": 554.2382370000016,
                    "velocity": 0.7244094488188977,
                    "duration": 0.17680352083334583
                },
                {
                    "name": "A5",
                    "midi": 81,
                    "time": 554.4014402500017,
                    "velocity": 0.6377952755905512,
                    "duration": 0.17680352083323214
                },
                {
                    "name": "F5",
                    "midi": 77,
                    "time": 554.5646435000016,
                    "velocity": 0.6377952755905512,
                    "duration": 0.17680352083323214
                },
                {
                    "name": "C5",
                    "midi": 72,
                    "time": 554.7278467500015,
                    "velocity": 0.6377952755905512,
                    "duration": 0.16320324999992408
                },
                {
                    "name": "A5",
                    "midi": 81,
                    "time": 554.8910500000014,
                    "velocity": 0.7244094488188977,
                    "duration": 0.17680352083334583
                },
                {
                    "name": "F5",
                    "midi": 77,
                    "time": 555.0542532500015,
                    "velocity": 0.6377952755905512,
                    "duration": 0.17680352083323214
                },
                {
                    "name": "C5",
                    "midi": 72,
                    "time": 555.2174565000014,
                    "velocity": 0.6377952755905512,
                    "duration": 0.17680352083323214
                },
                {
                    "name": "A5",
                    "midi": 81,
                    "time": 555.3806597500013,
                    "velocity": 0.6377952755905512,
                    "duration": 0.16320324999992408
                },
                {
                    "name": "C5",
                    "midi": 72,
                    "time": 555.5438630000012,
                    "velocity": 0.7165354330708661,
                    "duration": 0.17680352083334583
                },
                {
                    "name": "A5",
                    "midi": 81,
                    "time": 555.7070662500013,
                    "velocity": 0.6377952755905512,
                    "duration": 0.17680352083323214
                },
                {
                    "name": "F5",
                    "midi": 77,
                    "time": 555.8702695000012,
                    "velocity": 0.6377952755905512,
                    "duration": 0.17680352083323214
                },
                {
                    "name": "C5",
                    "midi": 72,
                    "time": 556.0334727500011,
                    "velocity": 0.6377952755905512,
                    "duration": 0.16320324999992408
                },
                {
                    "name": "C6",
                    "midi": 84,
                    "time": 556.523082500001,
                    "velocity": 0.3937007874015748,
                    "duration": 0.16320325000003777
                },
                {
                    "name": "C6",
                    "midi": 84,
                    "time": 556.8494890000011,
                    "velocity": 0.41732283464566927,
                    "duration": 0.4896097499999996
                },
                {
                    "name": "A5",
                    "midi": 81,
                    "time": 557.3390987500011,
                    "velocity": 0.3937007874015748,
                    "duration": 0.16320325000003777
                },
                {
                    "name": "G5",
                    "midi": 79,
                    "time": 557.5023020000011,
                    "velocity": 0.4251968503937008,
                    "duration": 0.32640649999996185
                },
                {
                    "name": "C5",
                    "midi": 72,
                    "time": 557.8287085000011,
                    "velocity": 0.3937007874015748,
                    "duration": 0.32640649999996185
                },
                {
                    "name": "F5",
                    "midi": 77,
                    "time": 558.155115000001,
                    "velocity": 0.3937007874015748,
                    "duration": 0.32640649999996185
                },
                {
                    "name": "A5",
                    "midi": 81,
                    "time": 558.481521500001,
                    "velocity": 0.3700787401574803,
                    "duration": 0.32640649999996185
                },
                {
                    "name": "C6",
                    "midi": 84,
                    "time": 559.1343345000009,
                    "velocity": 0.3937007874015748,
                    "duration": 0.16320325000003777
                },
                {
                    "name": "B5",
                    "midi": 83,
                    "time": 559.297537750001,
                    "velocity": 0.36220472440944884,
                    "duration": 0.16320325000003777
                },
                {
                    "name": "C6",
                    "midi": 84,
                    "time": 559.460741000001,
                    "velocity": 0.3937007874015748,
                    "duration": 0.16320325000003777
                },
                {
                    "name": "B5",
                    "midi": 83,
                    "time": 559.623944250001,
                    "velocity": 0.3700787401574803,
                    "duration": 0.16320325000003777
                },
                {
                    "name": "C6",
                    "midi": 84,
                    "time": 559.7871475000011,
                    "velocity": 0.3937007874015748,
                    "duration": 0.16320325000003777
                },
                {
                    "name": "A5",
                    "midi": 81,
                    "time": 559.9503507500011,
                    "velocity": 0.3700787401574803,
                    "duration": 0.16320325000003777
                },
                {
                    "name": "G5",
                    "midi": 79,
                    "time": 560.1135540000012,
                    "velocity": 0.3779527559055118,
                    "duration": 0.16320325000003777
                },
                {
                    "name": "F#5",
                    "midi": 78,
                    "time": 560.2767572500012,
                    "velocity": 0.33858267716535434,
                    "duration": 0.16320325000003777
                },
                {
                    "name": "G5",
                    "midi": 79,
                    "time": 560.4399605000012,
                    "velocity": 0.3779527559055118,
                    "duration": 0.16320325000003777
                },
                {
                    "name": "C5",
                    "midi": 72,
                    "time": 560.6031637500013,
                    "velocity": 0.3543307086614173,
                    "duration": 0.16320325000003777
                },
                {
                    "name": "F5",
                    "midi": 77,
                    "time": 560.7663670000013,
                    "velocity": 0.3779527559055118,
                    "duration": 0.16320325000003777
                },
                {
                    "name": "E5",
                    "midi": 76,
                    "time": 560.9295702500013,
                    "velocity": 0.3464566929133858,
                    "duration": 0.16320325000003777
                },
                {
                    "name": "F5",
                    "midi": 77,
                    "time": 561.0927735000014,
                    "velocity": 0.3937007874015748,
                    "duration": 0.16320325000003777
                },
                {
                    "name": "A5",
                    "midi": 81,
                    "time": 561.2559767500014,
                    "velocity": 0.36220472440944884,
                    "duration": 0.16320325000003777
                },
                {
                    "name": "F6",
                    "midi": 89,
                    "time": 561.7455865000014,
                    "velocity": 0.36220472440944884,
                    "duration": 0.32640649999996185
                },
                {
                    "name": "F5",
                    "midi": 77,
                    "time": 561.7455865000014,
                    "velocity": 0.30708661417322836,
                    "duration": 0.32640649999996185
                },
                {
                    "name": "F6",
                    "midi": 89,
                    "time": 562.0719930000014,
                    "velocity": 0.3779527559055118,
                    "duration": 0.4896097499999996
                },
                {
                    "name": "F5",
                    "midi": 77,
                    "time": 562.0719930000014,
                    "velocity": 0.31496062992125984,
                    "duration": 0.4896097499999996
                },
                {
                    "name": "D6",
                    "midi": 86,
                    "time": 562.5616027500014,
                    "velocity": 0.36220472440944884,
                    "duration": 0.16320325000003777
                },
                {
                    "name": "D5",
                    "midi": 74,
                    "time": 562.5616027500014,
                    "velocity": 0.30708661417322836,
                    "duration": 0.16320325000003777
                },
                {
                    "name": "E6",
                    "midi": 88,
                    "time": 562.7248060000014,
                    "velocity": 0.3858267716535433,
                    "duration": 0.32640649999996185
                },
                {
                    "name": "E5",
                    "midi": 76,
                    "time": 562.7248060000014,
                    "velocity": 0.3228346456692913,
                    "duration": 0.32640649999996185
                },
                {
                    "name": "C6",
                    "midi": 84,
                    "time": 563.0512125000014,
                    "velocity": 0.36220472440944884,
                    "duration": 0.32640649999996185
                },
                {
                    "name": "C5",
                    "midi": 72,
                    "time": 563.0512125000014,
                    "velocity": 0.30708661417322836,
                    "duration": 0.32640649999996185
                },
                {
                    "name": "B5",
                    "midi": 83,
                    "time": 563.3776190000013,
                    "velocity": 0.36220472440944884,
                    "duration": 0.32640649999996185
                },
                {
                    "name": "B4",
                    "midi": 71,
                    "time": 563.3776190000013,
                    "velocity": 0.30708661417322836,
                    "duration": 0.32640649999996185
                },
                {
                    "name": "D6",
                    "midi": 86,
                    "time": 563.7040255000013,
                    "velocity": 0.33070866141732286,
                    "duration": 0.32640649999996185
                },
                {
                    "name": "D5",
                    "midi": 74,
                    "time": 563.7040255000013,
                    "velocity": 0.2755905511811024,
                    "duration": 0.32640649999996185
                },
                {
                    "name": "F6",
                    "midi": 89,
                    "time": 564.3568385000012,
                    "velocity": 0.36220472440944884,
                    "duration": 0.32640649999996185
                },
                {
                    "name": "F5",
                    "midi": 77,
                    "time": 564.3568385000012,
                    "velocity": 0.30708661417322836,
                    "duration": 0.32640649999996185
                },
                {
                    "name": "F6",
                    "midi": 89,
                    "time": 564.6832450000012,
                    "velocity": 0.3779527559055118,
                    "duration": 0.4896097499999996
                },
                {
                    "name": "F5",
                    "midi": 77,
                    "time": 564.6832450000012,
                    "velocity": 0.31496062992125984,
                    "duration": 0.4896097499999996
                },
                {
                    "name": "D6",
                    "midi": 86,
                    "time": 565.1728547500012,
                    "velocity": 0.36220472440944884,
                    "duration": 0.16320325000003777
                },
                {
                    "name": "D5",
                    "midi": 74,
                    "time": 565.1728547500012,
                    "velocity": 0.30708661417322836,
                    "duration": 0.16320325000003777
                },
                {
                    "name": "E6",
                    "midi": 88,
                    "time": 565.3360580000012,
                    "velocity": 0.3858267716535433,
                    "duration": 0.3400067708332699
                },
                {
                    "name": "E5",
                    "midi": 76,
                    "time": 565.3360580000012,
                    "velocity": 0.3228346456692913,
                    "duration": 0.3400067708332699
                },
                {
                    "name": "C6",
                    "midi": 84,
                    "time": 565.6624645000012,
                    "velocity": 0.36220472440944884,
                    "duration": 0.3400067708332699
                },
                {
                    "name": "C5",
                    "midi": 72,
                    "time": 565.6624645000012,
                    "velocity": 0.30708661417322836,
                    "duration": 0.3400067708332699
                },
                {
                    "name": "B5",
                    "midi": 83,
                    "time": 565.9888710000012,
                    "velocity": 0.36220472440944884,
                    "duration": 0.3400067708332699
                },
                {
                    "name": "B4",
                    "midi": 71,
                    "time": 565.9888710000012,
                    "velocity": 0.30708661417322836,
                    "duration": 0.3400067708332699
                },
                {
                    "name": "D6",
                    "midi": 86,
                    "time": 566.3152775000011,
                    "velocity": 0.33070866141732286,
                    "duration": 0.32640649999996185
                },
                {
                    "name": "D5",
                    "midi": 74,
                    "time": 566.3152775000011,
                    "velocity": 0.2755905511811024,
                    "duration": 0.32640649999996185
                },
                {
                    "name": "C6",
                    "midi": 84,
                    "time": 566.6416840000011,
                    "velocity": 0.3858267716535433,
                    "duration": 0.3400067708332699
                },
                {
                    "name": "C5",
                    "midi": 72,
                    "time": 566.6416840000011,
                    "velocity": 0.3228346456692913,
                    "duration": 0.3400067708332699
                },
                {
                    "name": "A5",
                    "midi": 81,
                    "time": 566.968090500001,
                    "velocity": 0.36220472440944884,
                    "duration": 0.3400067708332699
                },
                {
                    "name": "A4",
                    "midi": 69,
                    "time": 566.968090500001,
                    "velocity": 0.30708661417322836,
                    "duration": 0.3400067708332699
                },
                {
                    "name": "G5",
                    "midi": 79,
                    "time": 567.294497000001,
                    "velocity": 0.36220472440944884,
                    "duration": 0.3400067708332699
                },
                {
                    "name": "G4",
                    "midi": 67,
                    "time": 567.294497000001,
                    "velocity": 0.30708661417322836,
                    "duration": 0.3400067708332699
                },
                {
                    "name": "B5",
                    "midi": 83,
                    "time": 567.620903500001,
                    "velocity": 0.33070866141732286,
                    "duration": 0.32640649999996185
                },
                {
                    "name": "B4",
                    "midi": 71,
                    "time": 567.620903500001,
                    "velocity": 0.2755905511811024,
                    "duration": 0.32640649999996185
                },
                {
                    "name": "A5",
                    "midi": 81,
                    "time": 567.9473100000009,
                    "velocity": 0.3858267716535433,
                    "duration": 0.3400067708332699
                },
                {
                    "name": "A4",
                    "midi": 69,
                    "time": 567.9473100000009,
                    "velocity": 0.3228346456692913,
                    "duration": 0.3400067708332699
                },
                {
                    "name": "F5",
                    "midi": 77,
                    "time": 568.2737165000009,
                    "velocity": 0.36220472440944884,
                    "duration": 0.3400067708332699
                },
                {
                    "name": "F4",
                    "midi": 65,
                    "time": 568.2737165000009,
                    "velocity": 0.30708661417322836,
                    "duration": 0.3400067708332699
                },
                {
                    "name": "E5",
                    "midi": 76,
                    "time": 568.6001230000008,
                    "velocity": 0.36220472440944884,
                    "duration": 0.3400067708332699
                },
                {
                    "name": "E4",
                    "midi": 64,
                    "time": 568.6001230000008,
                    "velocity": 0.30708661417322836,
                    "duration": 0.3400067708332699
                },
                {
                    "name": "G5",
                    "midi": 79,
                    "time": 568.9265295000008,
                    "velocity": 0.33070866141732286,
                    "duration": 0.32640649999996185
                },
                {
                    "name": "G4",
                    "midi": 67,
                    "time": 568.9265295000008,
                    "velocity": 0.2755905511811024,
                    "duration": 0.32640649999996185
                },
                {
                    "name": "F5",
                    "midi": 77,
                    "time": 569.2529360000008,
                    "velocity": 0.4015748031496063,
                    "duration": 0.3400067708332699
                },
                {
                    "name": "F4",
                    "midi": 65,
                    "time": 569.2529360000008,
                    "velocity": 0.33070866141732286,
                    "duration": 0.3400067708332699
                },
                {
                    "name": "D5",
                    "midi": 74,
                    "time": 569.5793425000007,
                    "velocity": 0.3779527559055118,
                    "duration": 0.3400067708332699
                },
                {
                    "name": "D4",
                    "midi": 62,
                    "time": 569.5793425000007,
                    "velocity": 0.31496062992125984,
                    "duration": 0.3400067708332699
                },
                {
                    "name": "E5",
                    "midi": 76,
                    "time": 569.9057490000007,
                    "velocity": 0.3779527559055118,
                    "duration": 0.3400067708332699
                },
                {
                    "name": "E4",
                    "midi": 64,
                    "time": 569.9057490000007,
                    "velocity": 0.3228346456692913,
                    "duration": 0.3400067708332699
                },
                {
                    "name": "C5",
                    "midi": 72,
                    "time": 570.2321555000007,
                    "velocity": 0.3464566929133858,
                    "duration": 0.32640649999996185
                },
                {
                    "name": "C4",
                    "midi": 60,
                    "time": 570.2321555000007,
                    "velocity": 0.28346456692913385,
                    "duration": 0.32640649999996185
                },
                {
                    "name": "D5",
                    "midi": 74,
                    "time": 570.5585620000006,
                    "velocity": 0.4094488188976378,
                    "duration": 0.3400067708332699
                },
                {
                    "name": "D4",
                    "midi": 62,
                    "time": 570.5585620000006,
                    "velocity": 0.33858267716535434,
                    "duration": 0.3400067708332699
                },
                {
                    "name": "B4",
                    "midi": 71,
                    "time": 570.8849685000006,
                    "velocity": 0.3858267716535433,
                    "duration": 0.3400067708332699
                },
                {
                    "name": "B3",
                    "midi": 59,
                    "time": 570.8849685000006,
                    "velocity": 0.3228346456692913,
                    "duration": 0.3400067708332699
                },
                {
                    "name": "C5",
                    "midi": 72,
                    "time": 571.2113750000005,
                    "velocity": 0.3858267716535433,
                    "duration": 0.3400067708332699
                },
                {
                    "name": "C4",
                    "midi": 60,
                    "time": 571.2113750000005,
                    "velocity": 0.3228346456692913,
                    "duration": 0.3400067708332699
                },
                {
                    "name": "A4",
                    "midi": 69,
                    "time": 571.5377815000005,
                    "velocity": 0.36220472440944884,
                    "duration": 0.32640649999996185
                },
                {
                    "name": "A3",
                    "midi": 57,
                    "time": 571.5377815000005,
                    "velocity": 0.29133858267716534,
                    "duration": 0.32640649999996185
                },
                {
                    "name": "B4",
                    "midi": 71,
                    "time": 571.8641880000005,
                    "velocity": 0.4251968503937008,
                    "duration": 0.3400067708332699
                },
                {
                    "name": "B3",
                    "midi": 59,
                    "time": 571.8641880000005,
                    "velocity": 0.3464566929133858,
                    "duration": 0.3400067708332699
                },
                {
                    "name": "G4",
                    "midi": 67,
                    "time": 572.1905945000004,
                    "velocity": 0.3937007874015748,
                    "duration": 0.3400067708332699
                },
                {
                    "name": "G3",
                    "midi": 55,
                    "time": 572.1905945000004,
                    "velocity": 0.33070866141732286,
                    "duration": 0.3400067708332699
                },
                {
                    "name": "A4",
                    "midi": 69,
                    "time": 572.5170010000004,
                    "velocity": 0.3937007874015748,
                    "duration": 0.3400067708332699
                },
                {
                    "name": "A3",
                    "midi": 57,
                    "time": 572.5170010000004,
                    "velocity": 0.33070866141732286,
                    "duration": 0.3400067708332699
                },
                {
                    "name": "F4",
                    "midi": 65,
                    "time": 572.8434075000004,
                    "velocity": 0.3700787401574803,
                    "duration": 0.32640649999996185
                },
                {
                    "name": "F3",
                    "midi": 53,
                    "time": 572.8434075000004,
                    "velocity": 0.30708661417322836,
                    "duration": 0.32640649999996185
                },
                {
                    "name": "G4",
                    "midi": 67,
                    "time": 573.1698140000003,
                    "velocity": 0.4330708661417323,
                    "duration": 0.3400067708332699
                },
                {
                    "name": "G3",
                    "midi": 55,
                    "time": 573.1698140000003,
                    "velocity": 0.36220472440944884,
                    "duration": 0.3400067708332699
                },
                {
                    "name": "E4",
                    "midi": 64,
                    "time": 573.4962205000003,
                    "velocity": 0.4015748031496063,
                    "duration": 0.3400067708332699
                },
                {
                    "name": "E3",
                    "midi": 52,
                    "time": 573.4962205000003,
                    "velocity": 0.33858267716535434,
                    "duration": 0.3400067708332699
                },
                {
                    "name": "F4",
                    "midi": 65,
                    "time": 573.8226270000002,
                    "velocity": 0.4015748031496063,
                    "duration": 0.3400067708332699
                },
                {
                    "name": "F3",
                    "midi": 53,
                    "time": 573.8226270000002,
                    "velocity": 0.33858267716535434,
                    "duration": 0.3400067708332699
                },
                {
                    "name": "B3",
                    "midi": 59,
                    "time": 574.1490335000002,
                    "velocity": 0.3779527559055118,
                    "duration": 0.32640649999996185
                },
                {
                    "name": "B2",
                    "midi": 47,
                    "time": 574.1490335000002,
                    "velocity": 0.31496062992125984,
                    "duration": 0.32640649999996185
                },
                {
                    "name": "D#3",
                    "midi": 51,
                    "time": 574.4754400000002,
                    "velocity": 0.8188976377952756,
                    "duration": 0.32640649999996185
                },
                {
                    "name": "C4",
                    "midi": 60,
                    "time": 574.4754400000002,
                    "velocity": 0.8188976377952756,
                    "duration": 0.32640649999996185
                },
                {
                    "name": "C5",
                    "midi": 72,
                    "time": 575.9986703333335,
                    "velocity": 0.5826771653543307,
                    "duration": 0.2176043333333837
                },
                {
                    "name": "D#5",
                    "midi": 75,
                    "time": 576.2162746666669,
                    "velocity": 0.5826771653543307,
                    "duration": 0.2176043333333837
                },
                {
                    "name": "G#5",
                    "midi": 80,
                    "time": 576.4338790000003,
                    "velocity": 0.6141732283464567,
                    "duration": 0.2176043333333837
                },
                {
                    "name": "C6",
                    "midi": 84,
                    "time": 576.6514833333337,
                    "velocity": 0.5826771653543307,
                    "duration": 0.2176043333333837
                },
                {
                    "name": "D#6",
                    "midi": 87,
                    "time": 576.869087666667,
                    "velocity": 0.5826771653543307,
                    "duration": 0.2176043333333837
                },
                {
                    "name": "C#6",
                    "midi": 85,
                    "time": 577.0866920000004,
                    "velocity": 0.4566929133858268,
                    "duration": 0.2176043333333837
                },
                {
                    "name": "A#5",
                    "midi": 82,
                    "time": 577.3042963333338,
                    "velocity": 0.3858267716535433,
                    "duration": 0.2176043333333837
                },
                {
                    "name": "G5",
                    "midi": 79,
                    "time": 577.5219006666672,
                    "velocity": 0.3858267716535433,
                    "duration": 0.2176043333333837
                },
                {
                    "name": "C#5",
                    "midi": 73,
                    "time": 577.7395050000006,
                    "velocity": 0.4330708661417323,
                    "duration": 0.2176043333333837
                },
                {
                    "name": "A#4",
                    "midi": 70,
                    "time": 577.957109333334,
                    "velocity": 0.3937007874015748,
                    "duration": 0.2176043333333837
                },
                {
                    "name": "G4",
                    "midi": 67,
                    "time": 578.1747136666673,
                    "velocity": 0.3937007874015748,
                    "duration": 0.2176043333333837
                },
                {
                    "name": "C#6",
                    "midi": 85,
                    "time": 578.3923180000007,
                    "velocity": 0.4409448818897638,
                    "duration": 0.2176043333333837
                },
                {
                    "name": "A#5",
                    "midi": 82,
                    "time": 578.6099223333341,
                    "velocity": 0.3858267716535433,
                    "duration": 0.2176043333333837
                },
                {
                    "name": "G5",
                    "midi": 79,
                    "time": 578.8275266666675,
                    "velocity": 0.3858267716535433,
                    "duration": 0.2176043333333837
                },
                {
                    "name": "C#5",
                    "midi": 73,
                    "time": 579.0451310000009,
                    "velocity": 0.4330708661417323,
                    "duration": 0.2176043333333837
                },
                {
                    "name": "A#4",
                    "midi": 70,
                    "time": 579.2627353333343,
                    "velocity": 0.3937007874015748,
                    "duration": 0.2176043333333837
                },
                {
                    "name": "G4",
                    "midi": 67,
                    "time": 579.4803396666676,
                    "velocity": 0.3937007874015748,
                    "duration": 0.2176043333333837
                },
                {
                    "name": "G#4",
                    "midi": 68,
                    "time": 581.2211743333344,
                    "velocity": 0.5826771653543307,
                    "duration": 0.2176043333333837
                },
                {
                    "name": "C5",
                    "midi": 72,
                    "time": 581.4387786666678,
                    "velocity": 0.5826771653543307,
                    "duration": 0.2176043333333837
                },
                {
                    "name": "F5",
                    "midi": 77,
                    "time": 581.6563830000011,
                    "velocity": 0.6141732283464567,
                    "duration": 0.2176043333333837
                },
                {
                    "name": "G#5",
                    "midi": 80,
                    "time": 581.8739873333345,
                    "velocity": 0.5826771653543307,
                    "duration": 0.2176043333333837
                },
                {
                    "name": "C6",
                    "midi": 84,
                    "time": 582.0915916666679,
                    "velocity": 0.5826771653543307,
                    "duration": 0.2176043333333837
                },
                {
                    "name": "A#5",
                    "midi": 82,
                    "time": 582.3091960000013,
                    "velocity": 0.4566929133858268,
                    "duration": 0.2176043333333837
                },
                {
                    "name": "G5",
                    "midi": 79,
                    "time": 582.5268003333347,
                    "velocity": 0.3858267716535433,
                    "duration": 0.2176043333333837
                },
                {
                    "name": "E5",
                    "midi": 76,
                    "time": 582.7444046666681,
                    "velocity": 0.3858267716535433,
                    "duration": 0.2176043333333837
                },
                {
                    "name": "A#4",
                    "midi": 70,
                    "time": 582.9620090000014,
                    "velocity": 0.4330708661417323,
                    "duration": 0.2176043333333837
                },
                {
                    "name": "G4",
                    "midi": 67,
                    "time": 583.1796133333348,
                    "velocity": 0.3937007874015748,
                    "duration": 0.2176043333333837
                },
                {
                    "name": "E4",
                    "midi": 64,
                    "time": 583.3972176666682,
                    "velocity": 0.3937007874015748,
                    "duration": 0.2176043333333837
                },
                {
                    "name": "A#5",
                    "midi": 82,
                    "time": 583.6148220000016,
                    "velocity": 0.4409448818897638,
                    "duration": 0.2176043333333837
                },
                {
                    "name": "G5",
                    "midi": 79,
                    "time": 583.832426333335,
                    "velocity": 0.3858267716535433,
                    "duration": 0.2176043333333837
                },
                {
                    "name": "E5",
                    "midi": 76,
                    "time": 584.0500306666684,
                    "velocity": 0.3858267716535433,
                    "duration": 0.2176043333333837
                },
                {
                    "name": "A#4",
                    "midi": 70,
                    "time": 584.2676350000017,
                    "velocity": 0.4330708661417323,
                    "duration": 0.2176043333333837
                },
                {
                    "name": "G4",
                    "midi": 67,
                    "time": 584.4852393333351,
                    "velocity": 0.3937007874015748,
                    "duration": 0.2176043333333837
                },
                {
                    "name": "E4",
                    "midi": 64,
                    "time": 584.7028436666685,
                    "velocity": 0.3937007874015748,
                    "duration": 0.2176043333333837
                },
                {
                    "name": "F4",
                    "midi": 65,
                    "time": 586.4436783333352,
                    "velocity": 0.5826771653543307,
                    "duration": 0.2176043333333837
                },
                {
                    "name": "G#4",
                    "midi": 68,
                    "time": 586.6612826666686,
                    "velocity": 0.5826771653543307,
                    "duration": 0.2176043333333837
                },
                {
                    "name": "C#5",
                    "midi": 73,
                    "time": 586.878887000002,
                    "velocity": 0.6141732283464567,
                    "duration": 0.2176043333333837
                },
                {
                    "name": "F5",
                    "midi": 77,
                    "time": 587.0964913333354,
                    "velocity": 0.5826771653543307,
                    "duration": 0.2176043333333837
                },
                {
                    "name": "G#5",
                    "midi": 80,
                    "time": 587.3140956666688,
                    "velocity": 0.5826771653543307,
                    "duration": 0.2176043333333837
                },
                {
                    "name": "F#5",
                    "midi": 78,
                    "time": 587.5317000000022,
                    "velocity": 0.4566929133858268,
                    "duration": 0.2176043333333837
                },
                {
                    "name": "D#5",
                    "midi": 75,
                    "time": 587.7493043333355,
                    "velocity": 0.3858267716535433,
                    "duration": 0.2176043333333837
                },
                {
                    "name": "C5",
                    "midi": 72,
                    "time": 587.9669086666689,
                    "velocity": 0.3858267716535433,
                    "duration": 0.2176043333333837
                },
                {
                    "name": "F#4",
                    "midi": 66,
                    "time": 588.1845130000023,
                    "velocity": 0.4330708661417323,
                    "duration": 0.2176043333333837
                },
                {
                    "name": "D#4",
                    "midi": 63,
                    "time": 588.4021173333357,
                    "velocity": 0.3937007874015748,
                    "duration": 0.2176043333333837
                },
                {
                    "name": "C4",
                    "midi": 60,
                    "time": 588.6197216666691,
                    "velocity": 0.3937007874015748,
                    "duration": 0.2176043333333837
                },
                {
                    "name": "F#5",
                    "midi": 78,
                    "time": 588.8373260000025,
                    "velocity": 0.4409448818897638,
                    "duration": 0.2176043333333837
                },
                {
                    "name": "D#5",
                    "midi": 75,
                    "time": 589.0549303333358,
                    "velocity": 0.3858267716535433,
                    "duration": 0.2176043333333837
                },
                {
                    "name": "C5",
                    "midi": 72,
                    "time": 589.2725346666692,
                    "velocity": 0.3858267716535433,
                    "duration": 0.2176043333333837
                },
                {
                    "name": "F#4",
                    "midi": 66,
                    "time": 589.4901390000026,
                    "velocity": 0.4330708661417323,
                    "duration": 0.2176043333333837
                },
                {
                    "name": "D#4",
                    "midi": 63,
                    "time": 589.707743333336,
                    "velocity": 0.3937007874015748,
                    "duration": 0.2176043333333837
                },
                {
                    "name": "C4",
                    "midi": 60,
                    "time": 589.9253476666694,
                    "velocity": 0.3937007874015748,
                    "duration": 0.2176043333333837
                },
                {
                    "name": "F3",
                    "midi": 53,
                    "time": 590.3605563333361,
                    "velocity": 0.30708661417322836,
                    "duration": 0.2176043333333837
                },
                {
                    "name": "A#3",
                    "midi": 58,
                    "time": 590.5781606666695,
                    "velocity": 0.31496062992125984,
                    "duration": 0.2176043333333837
                },
                {
                    "name": "C#4",
                    "midi": 61,
                    "time": 590.7957650000029,
                    "velocity": 0.3228346456692913,
                    "duration": 0.2176043333333837
                },
                {
                    "name": "F4",
                    "midi": 65,
                    "time": 591.0133693333363,
                    "velocity": 0.33858267716535434,
                    "duration": 0.2176043333333837
                },
                {
                    "name": "A#4",
                    "midi": 70,
                    "time": 591.2309736666697,
                    "velocity": 0.3464566929133858,
                    "duration": 0.2176043333333837
                },
                {
                    "name": "C#5",
                    "midi": 73,
                    "time": 591.4485780000031,
                    "velocity": 0.36220472440944884,
                    "duration": 0.2176043333333837
                },
                {
                    "name": "F5",
                    "midi": 77,
                    "time": 591.6661823333365,
                    "velocity": 0.3543307086614173,
                    "duration": 0.2176043333333837
                },
                {
                    "name": "A#5",
                    "midi": 82,
                    "time": 591.8837866666698,
                    "velocity": 0.3700787401574803,
                    "duration": 0.2176043333333837
                },
                {
                    "name": "C#6",
                    "midi": 85,
                    "time": 592.1013910000032,
                    "velocity": 0.3858267716535433,
                    "duration": 0.2176043333333837
                },
                {
                    "name": "F6",
                    "midi": 89,
                    "time": 592.3189953333366,
                    "velocity": 0.3543307086614173,
                    "duration": 0.2176043333333837
                },
                {
                    "name": "F5",
                    "midi": 77,
                    "time": 592.53659966667,
                    "velocity": 0.3228346456692913,
                    "duration": 0.2176043333333837
                },
                {
                    "name": "F3",
                    "midi": 53,
                    "time": 592.9718083333368,
                    "velocity": 0.30708661417322836,
                    "duration": 0.2176043333333837
                },
                {
                    "name": "G#3",
                    "midi": 56,
                    "time": 593.1894126666701,
                    "velocity": 0.31496062992125984,
                    "duration": 0.2176043333333837
                },
                {
                    "name": "C4",
                    "midi": 60,
                    "time": 593.4070170000035,
                    "velocity": 0.3228346456692913,
                    "duration": 0.2176043333333837
                },
                {
                    "name": "F4",
                    "midi": 65,
                    "time": 593.6246213333369,
                    "velocity": 0.33858267716535434,
                    "duration": 0.2176043333333837
                },
                {
                    "name": "G#4",
                    "midi": 68,
                    "time": 593.8422256666703,
                    "velocity": 0.3464566929133858,
                    "duration": 0.2176043333333837
                },
                {
                    "name": "C5",
                    "midi": 72,
                    "time": 594.0598300000037,
                    "velocity": 0.36220472440944884,
                    "duration": 0.2176043333333837
                },
                {
                    "name": "F5",
                    "midi": 77,
                    "time": 594.277434333337,
                    "velocity": 0.3543307086614173,
                    "duration": 0.2176043333333837
                },
                {
                    "name": "G#5",
                    "midi": 80,
                    "time": 594.4950386666704,
                    "velocity": 0.3700787401574803,
                    "duration": 0.2176043333333837
                },
                {
                    "name": "C6",
                    "midi": 84,
                    "time": 594.7126430000038,
                    "velocity": 0.3858267716535433,
                    "duration": 0.2176043333333837
                },
                {
                    "name": "F6",
                    "midi": 89,
                    "time": 594.9302473333372,
                    "velocity": 0.3543307086614173,
                    "duration": 0.2176043333333837
                },
                {
                    "name": "F5",
                    "midi": 77,
                    "time": 595.1478516666706,
                    "velocity": 0.3228346456692913,
                    "duration": 0.2176043333333837
                },
                {
                    "name": "F3",
                    "midi": 53,
                    "time": 595.5830603333374,
                    "velocity": 0.30708661417322836,
                    "duration": 0.2176043333333837
                },
                {
                    "name": "B3",
                    "midi": 59,
                    "time": 595.8006646666707,
                    "velocity": 0.31496062992125984,
                    "duration": 0.2176043333333837
                },
                {
                    "name": "D4",
                    "midi": 62,
                    "time": 596.0182690000041,
                    "velocity": 0.3228346456692913,
                    "duration": 0.2176043333333837
                },
                {
                    "name": "F4",
                    "midi": 65,
                    "time": 596.2358733333375,
                    "velocity": 0.33858267716535434,
                    "duration": 0.2176043333333837
                },
                {
                    "name": "B4",
                    "midi": 71,
                    "time": 596.4534776666709,
                    "velocity": 0.3464566929133858,
                    "duration": 0.2176043333333837
                },
                {
                    "name": "D5",
                    "midi": 74,
                    "time": 596.6710820000043,
                    "velocity": 0.36220472440944884,
                    "duration": 0.2176043333333837
                },
                {
                    "name": "F5",
                    "midi": 77,
                    "time": 596.8886863333377,
                    "velocity": 0.3543307086614173,
                    "duration": 0.2176043333333837
                },
                {
                    "name": "B5",
                    "midi": 83,
                    "time": 597.106290666671,
                    "velocity": 0.3700787401574803,
                    "duration": 0.2176043333333837
                },
                {
                    "name": "D6",
                    "midi": 86,
                    "time": 597.3238950000044,
                    "velocity": 0.3858267716535433,
                    "duration": 0.2176043333333837
                },
                {
                    "name": "F6",
                    "midi": 89,
                    "time": 597.5414993333378,
                    "velocity": 0.3543307086614173,
                    "duration": 0.2176043333333837
                },
                {
                    "name": "F5",
                    "midi": 77,
                    "time": 597.7591036666712,
                    "velocity": 0.3228346456692913,
                    "duration": 0.2176043333333837
                },
                {
                    "name": "D#3",
                    "midi": 51,
                    "time": 598.194312333338,
                    "velocity": 0.30708661417322836,
                    "duration": 0.2176043333333837
                },
                {
                    "name": "G#3",
                    "midi": 56,
                    "time": 598.4119166666713,
                    "velocity": 0.31496062992125984,
                    "duration": 0.2176043333333837
                },
                {
                    "name": "C4",
                    "midi": 60,
                    "time": 598.6295210000047,
                    "velocity": 0.3228346456692913,
                    "duration": 0.2176043333333837
                },
                {
                    "name": "D#4",
                    "midi": 63,
                    "time": 598.8471253333381,
                    "velocity": 0.33858267716535434,
                    "duration": 0.2176043333333837
                },
                {
                    "name": "G#4",
                    "midi": 68,
                    "time": 599.0647296666715,
                    "velocity": 0.3464566929133858,
                    "duration": 0.2176043333333837
                },
                {
                    "name": "C5",
                    "midi": 72,
                    "time": 599.2823340000049,
                    "velocity": 0.36220472440944884,
                    "duration": 0.2176043333333837
                },
                {
                    "name": "D#5",
                    "midi": 75,
                    "time": 599.4999383333383,
                    "velocity": 0.3543307086614173,
                    "duration": 0.2176043333333837
                },
                {
                    "name": "G#5",
                    "midi": 80,
                    "time": 599.7175426666716,
                    "velocity": 0.3700787401574803,
                    "duration": 0.2176043333333837
                },
                {
                    "name": "C6",
                    "midi": 84,
                    "time": 599.935147000005,
                    "velocity": 0.3858267716535433,
                    "duration": 0.2176043333333837
                },
                {
                    "name": "D#6",
                    "midi": 87,
                    "time": 600.1527513333384,
                    "velocity": 0.3543307086614173,
                    "duration": 0.2176043333333837
                },
                {
                    "name": "D#5",
                    "midi": 75,
                    "time": 600.3703556666718,
                    "velocity": 0.3228346456692913,
                    "duration": 0.2176043333333837
                },
                {
                    "name": "C4",
                    "midi": 60,
                    "time": 602.5463990000052,
                    "velocity": 0.3543307086614173,
                    "duration": 0.2176043333333837
                },
                {
                    "name": "D#4",
                    "midi": 63,
                    "time": 602.7640033333386,
                    "velocity": 0.3228346456692913,
                    "duration": 0.2176043333333837
                },
                {
                    "name": "F#4",
                    "midi": 66,
                    "time": 602.981607666672,
                    "velocity": 0.3228346456692913,
                    "duration": 0.2176043333333837
                },
                {
                    "name": "A4",
                    "midi": 69,
                    "time": 603.1992120000053,
                    "velocity": 0.36220472440944884,
                    "duration": 0.2176043333333837
                },
                {
                    "name": "C5",
                    "midi": 72,
                    "time": 603.4168163333387,
                    "velocity": 0.3228346456692913,
                    "duration": 0.2176043333333837
                },
                {
                    "name": "D#5",
                    "midi": 75,
                    "time": 603.6344206666721,
                    "velocity": 0.3228346456692913,
                    "duration": 0.2176043333333837
                },
                {
                    "name": "F#5",
                    "midi": 78,
                    "time": 603.8520250000055,
                    "velocity": 0.36220472440944884,
                    "duration": 0.2176043333333837
                },
                {
                    "name": "A5",
                    "midi": 81,
                    "time": 604.0696293333389,
                    "velocity": 0.3228346456692913,
                    "duration": 0.2176043333333837
                },
                {
                    "name": "C6",
                    "midi": 84,
                    "time": 604.2872336666723,
                    "velocity": 0.3228346456692913,
                    "duration": 0.2176043333333837
                },
                {
                    "name": "D#6",
                    "midi": 87,
                    "time": 604.5048380000056,
                    "velocity": 0.3700787401574803,
                    "duration": 0.2176043333333837
                },
                {
                    "name": "C6",
                    "midi": 84,
                    "time": 604.722442333339,
                    "velocity": 0.33858267716535434,
                    "duration": 0.2176043333333837
                },
                {
                    "name": "A5",
                    "midi": 81,
                    "time": 604.9400466666724,
                    "velocity": 0.33858267716535434,
                    "duration": 0.2176043333333837
                },
                {
                    "name": "F#6",
                    "midi": 90,
                    "time": 605.1576510000058,
                    "velocity": 0.3700787401574803,
                    "duration": 0.2176043333333837
                },
                {
                    "name": "D#6",
                    "midi": 87,
                    "time": 605.3752553333392,
                    "velocity": 0.33858267716535434,
                    "duration": 0.2176043333333837
                },
                {
                    "name": "C6",
                    "midi": 84,
                    "time": 605.5928596666726,
                    "velocity": 0.33858267716535434,
                    "duration": 0.2176043333333837
                },
                {
                    "name": "G6",
                    "midi": 91,
                    "time": 605.973667250006,
                    "velocity": 0.3858267716535433,
                    "duration": 0.17680352083334583
                },
                {
                    "name": "G5",
                    "midi": 79,
                    "time": 605.973667250006,
                    "velocity": 0.3228346456692913,
                    "duration": 0.17680352083334583
                },
                {
                    "name": "F6",
                    "midi": 89,
                    "time": 606.136870500006,
                    "velocity": 0.3858267716535433,
                    "duration": 0.17680352083323214
                },
                {
                    "name": "F5",
                    "midi": 77,
                    "time": 606.136870500006,
                    "velocity": 0.3228346456692913,
                    "duration": 0.17680352083323214
                },
                {
                    "name": "E6",
                    "midi": 88,
                    "time": 606.3000737500059,
                    "velocity": 0.3858267716535433,
                    "duration": 0.17680352083323214
                },
                {
                    "name": "E5",
                    "midi": 76,
                    "time": 606.3000737500059,
                    "velocity": 0.3228346456692913,
                    "duration": 0.17680352083323214
                },
                {
                    "name": "D6",
                    "midi": 86,
                    "time": 606.4632770000059,
                    "velocity": 0.3779527559055118,
                    "duration": 0.17680352083323214
                },
                {
                    "name": "D5",
                    "midi": 74,
                    "time": 606.4632770000059,
                    "velocity": 0.31496062992125984,
                    "duration": 0.17680352083323214
                },
                {
                    "name": "C6",
                    "midi": 84,
                    "time": 606.6264802500058,
                    "velocity": 0.3779527559055118,
                    "duration": 0.17680352083323214
                },
                {
                    "name": "C5",
                    "midi": 72,
                    "time": 606.6264802500058,
                    "velocity": 0.31496062992125984,
                    "duration": 0.17680352083323214
                },
                {
                    "name": "B5",
                    "midi": 83,
                    "time": 606.7896835000057,
                    "velocity": 0.3700787401574803,
                    "duration": 0.17680352083323214
                },
                {
                    "name": "B4",
                    "midi": 71,
                    "time": 606.7896835000057,
                    "velocity": 0.30708661417322836,
                    "duration": 0.17680352083323214
                },
                {
                    "name": "A5",
                    "midi": 81,
                    "time": 606.9528867500056,
                    "velocity": 0.30708661417322836,
                    "duration": 0.17680352083323214
                },
                {
                    "name": "A4",
                    "midi": 69,
                    "time": 606.9528867500056,
                    "velocity": 0.30708661417322836,
                    "duration": 0.17680352083323214
                },
                {
                    "name": "G4",
                    "midi": 67,
                    "time": 607.1160900000056,
                    "velocity": 0.30708661417322836,
                    "duration": 0.32640649999996185
                },
                {
                    "name": "G5",
                    "midi": 79,
                    "time": 607.1160900000056,
                    "velocity": 0.3700787401574803,
                    "duration": 0.32640649999996185
                },
                {
                    "name": "F4",
                    "midi": 65,
                    "time": 607.4424965000055,
                    "velocity": 0.2992125984251969,
                    "duration": 0.17680352083334583
                },
                {
                    "name": "F5",
                    "midi": 77,
                    "time": 607.4424965000055,
                    "velocity": 0.3543307086614173,
                    "duration": 0.17680352083334583
                },
                {
                    "name": "E4",
                    "midi": 64,
                    "time": 607.6056997500056,
                    "velocity": 0.2992125984251969,
                    "duration": 0.17680352083323214
                },
                {
                    "name": "E5",
                    "midi": 76,
                    "time": 607.6056997500056,
                    "velocity": 0.3543307086614173,
                    "duration": 0.17680352083323214
                },
                {
                    "name": "D4",
                    "midi": 62,
                    "time": 607.7689030000055,
                    "velocity": 0.29133858267716534,
                    "duration": 0.17680352083323214
                },
                {
                    "name": "D5",
                    "midi": 74,
                    "time": 607.7689030000055,
                    "velocity": 0.3464566929133858,
                    "duration": 0.17680352083323214
                },
                {
                    "name": "C4",
                    "midi": 60,
                    "time": 607.9321062500054,
                    "velocity": 0.29133858267716534,
                    "duration": 0.17680352083323214
                },
                {
                    "name": "C5",
                    "midi": 72,
                    "time": 607.9321062500054,
                    "velocity": 0.3464566929133858,
                    "duration": 0.17680352083323214
                },
                {
                    "name": "B3",
                    "midi": 59,
                    "time": 608.0953095000053,
                    "velocity": 0.28346456692913385,
                    "duration": 0.17680352083323214
                },
                {
                    "name": "B4",
                    "midi": 71,
                    "time": 608.0953095000053,
                    "velocity": 0.33858267716535434,
                    "duration": 0.17680352083323214
                },
                {
                    "name": "A3",
                    "midi": 57,
                    "time": 608.2585127500053,
                    "velocity": 0.2755905511811024,
                    "duration": 0.17680352083323214
                },
                {
                    "name": "A4",
                    "midi": 69,
                    "time": 608.2585127500053,
                    "velocity": 0.33070866141732286,
                    "duration": 0.17680352083323214
                },
                {
                    "name": "C4",
                    "midi": 60,
                    "time": 608.4217160000052,
                    "velocity": 0.2755905511811024,
                    "duration": 1.305625999999961
                },
                {
                    "name": "G3",
                    "midi": 55,
                    "time": 608.4217160000052,
                    "velocity": 0.2755905511811024,
                    "duration": 1.305625999999961
                },
                {
                    "name": "E4",
                    "midi": 64,
                    "time": 608.4217160000052,
                    "velocity": 0.2755905511811024,
                    "duration": 1.305625999999961
                },
                {
                    "name": "G4",
                    "midi": 67,
                    "time": 608.4217160000052,
                    "velocity": 0.33070866141732286,
                    "duration": 1.9584389999999985
                },
                {
                    "name": "B3",
                    "midi": 59,
                    "time": 609.7273420000051,
                    "velocity": 0.2755905511811024,
                    "duration": 0.6528130000000374
                },
                {
                    "name": "D4",
                    "midi": 62,
                    "time": 609.7273420000051,
                    "velocity": 0.2755905511811024,
                    "duration": 0.6528130000000374
                },
                {
                    "name": "D5",
                    "midi": 74,
                    "time": 610.3801550000052,
                    "velocity": 0.33070866141732286,
                    "duration": 0.6528130000000374
                },
                {
                    "name": "F5",
                    "midi": 77,
                    "time": 610.3801550000052,
                    "velocity": 0.36220472440944884,
                    "duration": 0.6528130000000374
                },
                {
                    "name": "C5",
                    "midi": 72,
                    "time": 611.0329680000052,
                    "velocity": 0.3228346456692913,
                    "duration": 0.08160162499996204
                },
                {
                    "name": "E5",
                    "midi": 76,
                    "time": 611.0329680000052,
                    "velocity": 0.3858267716535433,
                    "duration": 0.08160162499996204
                },
                {
                    "name": "G6",
                    "midi": 91,
                    "time": 611.1961712500051,
                    "velocity": 0.3858267716535433,
                    "duration": 0.17680352083334583
                },
                {
                    "name": "G5",
                    "midi": 79,
                    "time": 611.1961712500051,
                    "velocity": 0.3228346456692913,
                    "duration": 0.17680352083334583
                },
                {
                    "name": "F6",
                    "midi": 89,
                    "time": 611.3593745000052,
                    "velocity": 0.3858267716535433,
                    "duration": 0.17680352083323214
                },
                {
                    "name": "F5",
                    "midi": 77,
                    "time": 611.3593745000052,
                    "velocity": 0.3228346456692913,
                    "duration": 0.17680352083323214
                },
                {
                    "name": "E6",
                    "midi": 88,
                    "time": 611.5225777500051,
                    "velocity": 0.3858267716535433,
                    "duration": 0.17680352083323214
                },
                {
                    "name": "E5",
                    "midi": 76,
                    "time": 611.5225777500051,
                    "velocity": 0.3228346456692913,
                    "duration": 0.17680352083323214
                },
                {
                    "name": "D6",
                    "midi": 86,
                    "time": 611.685781000005,
                    "velocity": 0.3779527559055118,
                    "duration": 0.17680352083323214
                },
                {
                    "name": "D5",
                    "midi": 74,
                    "time": 611.685781000005,
                    "velocity": 0.31496062992125984,
                    "duration": 0.17680352083323214
                },
                {
                    "name": "C6",
                    "midi": 84,
                    "time": 611.848984250005,
                    "velocity": 0.3779527559055118,
                    "duration": 0.17680352083323214
                },
                {
                    "name": "C5",
                    "midi": 72,
                    "time": 611.848984250005,
                    "velocity": 0.31496062992125984,
                    "duration": 0.17680352083323214
                },
                {
                    "name": "B5",
                    "midi": 83,
                    "time": 612.0121875000049,
                    "velocity": 0.3700787401574803,
                    "duration": 0.17680352083323214
                },
                {
                    "name": "B4",
                    "midi": 71,
                    "time": 612.0121875000049,
                    "velocity": 0.30708661417322836,
                    "duration": 0.17680352083323214
                },
                {
                    "name": "A5",
                    "midi": 81,
                    "time": 612.1753907500048,
                    "velocity": 0.30708661417322836,
                    "duration": 0.17680352083323214
                },
                {
                    "name": "A4",
                    "midi": 69,
                    "time": 612.1753907500048,
                    "velocity": 0.30708661417322836,
                    "duration": 0.17680352083323214
                },
                {
                    "name": "G4",
                    "midi": 67,
                    "time": 612.3385940000047,
                    "velocity": 0.30708661417322836,
                    "duration": 0.32640649999996185
                },
                {
                    "name": "G5",
                    "midi": 79,
                    "time": 612.3385940000047,
                    "velocity": 0.3700787401574803,
                    "duration": 0.32640649999996185
                },
                {
                    "name": "F4",
                    "midi": 65,
                    "time": 612.6650005000047,
                    "velocity": 0.2992125984251969,
                    "duration": 0.17680352083334583
                },
                {
                    "name": "F5",
                    "midi": 77,
                    "time": 612.6650005000047,
                    "velocity": 0.3543307086614173,
                    "duration": 0.17680352083334583
                },
                {
                    "name": "E4",
                    "midi": 64,
                    "time": 612.8282037500047,
                    "velocity": 0.2992125984251969,
                    "duration": 0.17680352083323214
                },
                {
                    "name": "E5",
                    "midi": 76,
                    "time": 612.8282037500047,
                    "velocity": 0.3543307086614173,
                    "duration": 0.17680352083323214
                },
                {
                    "name": "D4",
                    "midi": 62,
                    "time": 612.9914070000046,
                    "velocity": 0.29133858267716534,
                    "duration": 0.17680352083323214
                },
                {
                    "name": "D5",
                    "midi": 74,
                    "time": 612.9914070000046,
                    "velocity": 0.3464566929133858,
                    "duration": 0.17680352083323214
                },
                {
                    "name": "C4",
                    "midi": 60,
                    "time": 613.1546102500046,
                    "velocity": 0.29133858267716534,
                    "duration": 0.17680352083323214
                },
                {
                    "name": "C5",
                    "midi": 72,
                    "time": 613.1546102500046,
                    "velocity": 0.3464566929133858,
                    "duration": 0.17680352083323214
                },
                {
                    "name": "B3",
                    "midi": 59,
                    "time": 613.3178135000045,
                    "velocity": 0.28346456692913385,
                    "duration": 0.17680352083323214
                },
                {
                    "name": "B4",
                    "midi": 71,
                    "time": 613.3178135000045,
                    "velocity": 0.33858267716535434,
                    "duration": 0.17680352083323214
                },
                {
                    "name": "A3",
                    "midi": 57,
                    "time": 613.4810167500044,
                    "velocity": 0.2755905511811024,
                    "duration": 0.17680352083323214
                },
                {
                    "name": "A4",
                    "midi": 69,
                    "time": 613.4810167500044,
                    "velocity": 0.33070866141732286,
                    "duration": 0.17680352083323214
                },
                {
                    "name": "C4",
                    "midi": 60,
                    "time": 613.6442200000043,
                    "velocity": 0.2755905511811024,
                    "duration": 1.305625999999961
                },
                {
                    "name": "G3",
                    "midi": 55,
                    "time": 613.6442200000043,
                    "velocity": 0.2755905511811024,
                    "duration": 1.305625999999961
                },
                {
                    "name": "E4",
                    "midi": 64,
                    "time": 613.6442200000043,
                    "velocity": 0.2755905511811024,
                    "duration": 1.305625999999961
                },
                {
                    "name": "G4",
                    "midi": 67,
                    "time": 613.6442200000043,
                    "velocity": 0.33070866141732286,
                    "duration": 1.9584389999999985
                },
                {
                    "name": "B3",
                    "midi": 59,
                    "time": 614.9498460000043,
                    "velocity": 0.2755905511811024,
                    "duration": 0.6528130000000374
                },
                {
                    "name": "D4",
                    "midi": 62,
                    "time": 614.9498460000043,
                    "velocity": 0.2755905511811024,
                    "duration": 0.6528130000000374
                },
                {
                    "name": "D5",
                    "midi": 74,
                    "time": 615.6026590000043,
                    "velocity": 0.33070866141732286,
                    "duration": 0.6528130000000374
                },
                {
                    "name": "F5",
                    "midi": 77,
                    "time": 615.6026590000043,
                    "velocity": 0.36220472440944884,
                    "duration": 0.6528130000000374
                },
                {
                    "name": "C5",
                    "midi": 72,
                    "time": 616.2554720000044,
                    "velocity": 0.3228346456692913,
                    "duration": 0.08160162499996204
                },
                {
                    "name": "E5",
                    "midi": 76,
                    "time": 616.2554720000044,
                    "velocity": 0.3858267716535433,
                    "duration": 0.08160162499996204
                },
                {
                    "name": "G6",
                    "midi": 91,
                    "time": 616.4186752500043,
                    "velocity": 0.3858267716535433,
                    "duration": 0.17680352083334583
                },
                {
                    "name": "G5",
                    "midi": 79,
                    "time": 616.4186752500043,
                    "velocity": 0.3228346456692913,
                    "duration": 0.17680352083334583
                },
                {
                    "name": "F6",
                    "midi": 89,
                    "time": 616.5818785000043,
                    "velocity": 0.3858267716535433,
                    "duration": 0.17680352083323214
                },
                {
                    "name": "F5",
                    "midi": 77,
                    "time": 616.5818785000043,
                    "velocity": 0.3228346456692913,
                    "duration": 0.17680352083323214
                },
                {
                    "name": "E6",
                    "midi": 88,
                    "time": 616.7450817500043,
                    "velocity": 0.3858267716535433,
                    "duration": 0.17680352083323214
                },
                {
                    "name": "E5",
                    "midi": 76,
                    "time": 616.7450817500043,
                    "velocity": 0.3228346456692913,
                    "duration": 0.17680352083323214
                },
                {
                    "name": "D6",
                    "midi": 86,
                    "time": 616.9082850000042,
                    "velocity": 0.3779527559055118,
                    "duration": 0.17680352083323214
                },
                {
                    "name": "D5",
                    "midi": 74,
                    "time": 616.9082850000042,
                    "velocity": 0.31496062992125984,
                    "duration": 0.17680352083323214
                },
                {
                    "name": "C6",
                    "midi": 84,
                    "time": 617.0714882500041,
                    "velocity": 0.3779527559055118,
                    "duration": 0.17680352083323214
                },
                {
                    "name": "C5",
                    "midi": 72,
                    "time": 617.0714882500041,
                    "velocity": 0.31496062992125984,
                    "duration": 0.17680352083323214
                },
                {
                    "name": "B5",
                    "midi": 83,
                    "time": 617.234691500004,
                    "velocity": 0.3700787401574803,
                    "duration": 0.17680352083323214
                },
                {
                    "name": "B4",
                    "midi": 71,
                    "time": 617.234691500004,
                    "velocity": 0.30708661417322836,
                    "duration": 0.17680352083323214
                },
                {
                    "name": "A5",
                    "midi": 81,
                    "time": 617.397894750004,
                    "velocity": 0.30708661417322836,
                    "duration": 0.17680352083323214
                },
                {
                    "name": "A4",
                    "midi": 69,
                    "time": 617.397894750004,
                    "velocity": 0.30708661417322836,
                    "duration": 0.17680352083323214
                },
                {
                    "name": "G4",
                    "midi": 67,
                    "time": 617.5610980000039,
                    "velocity": 0.30708661417322836,
                    "duration": 0.32640649999996185
                },
                {
                    "name": "G5",
                    "midi": 79,
                    "time": 617.5610980000039,
                    "velocity": 0.3700787401574803,
                    "duration": 0.32640649999996185
                },
                {
                    "name": "F4",
                    "midi": 65,
                    "time": 617.8875045000038,
                    "velocity": 0.2992125984251969,
                    "duration": 0.17680352083334583
                },
                {
                    "name": "F5",
                    "midi": 77,
                    "time": 617.8875045000038,
                    "velocity": 0.3543307086614173,
                    "duration": 0.17680352083334583
                },
                {
                    "name": "E4",
                    "midi": 64,
                    "time": 618.0507077500039,
                    "velocity": 0.2992125984251969,
                    "duration": 0.17680352083323214
                },
                {
                    "name": "E5",
                    "midi": 76,
                    "time": 618.0507077500039,
                    "velocity": 0.3543307086614173,
                    "duration": 0.17680352083323214
                },
                {
                    "name": "D4",
                    "midi": 62,
                    "time": 618.2139110000038,
                    "velocity": 0.29133858267716534,
                    "duration": 0.17680352083323214
                },
                {
                    "name": "D5",
                    "midi": 74,
                    "time": 618.2139110000038,
                    "velocity": 0.3464566929133858,
                    "duration": 0.17680352083323214
                },
                {
                    "name": "C4",
                    "midi": 60,
                    "time": 618.3771142500037,
                    "velocity": 0.29133858267716534,
                    "duration": 0.17680352083323214
                },
                {
                    "name": "C5",
                    "midi": 72,
                    "time": 618.3771142500037,
                    "velocity": 0.3464566929133858,
                    "duration": 0.17680352083323214
                },
                {
                    "name": "B3",
                    "midi": 59,
                    "time": 618.5403175000037,
                    "velocity": 0.28346456692913385,
                    "duration": 0.17680352083323214
                },
                {
                    "name": "B4",
                    "midi": 71,
                    "time": 618.5403175000037,
                    "velocity": 0.33858267716535434,
                    "duration": 0.17680352083323214
                },
                {
                    "name": "A3",
                    "midi": 57,
                    "time": 618.7035207500036,
                    "velocity": 0.2755905511811024,
                    "duration": 0.17680352083323214
                },
                {
                    "name": "A4",
                    "midi": 69,
                    "time": 618.7035207500036,
                    "velocity": 0.33070866141732286,
                    "duration": 0.17680352083323214
                },
                {
                    "name": "G3",
                    "midi": 55,
                    "time": 618.8667240000035,
                    "velocity": 0.3464566929133858,
                    "duration": 0.17680352083323214
                },
                {
                    "name": "G4",
                    "midi": 67,
                    "time": 618.8667240000035,
                    "velocity": 0.3464566929133858,
                    "duration": 0.17680352083323214
                },
                {
                    "name": "A3",
                    "midi": 57,
                    "time": 619.0299272500034,
                    "velocity": 0.36220472440944884,
                    "duration": 0.17680352083323214
                },
                {
                    "name": "B3",
                    "midi": 59,
                    "time": 619.1931305000033,
                    "velocity": 0.3700787401574803,
                    "duration": 0.17680352083323214
                },
                {
                    "name": "C4",
                    "midi": 60,
                    "time": 619.3563337500033,
                    "velocity": 0.3858267716535433,
                    "duration": 0.17680352083323214
                },
                {
                    "name": "D4",
                    "midi": 62,
                    "time": 619.5195370000032,
                    "velocity": 0.4015748031496063,
                    "duration": 0.17680352083323214
                },
                {
                    "name": "E4",
                    "midi": 64,
                    "time": 619.6827402500031,
                    "velocity": 0.41732283464566927,
                    "duration": 0.17680352083323214
                },
                {
                    "name": "F4",
                    "midi": 65,
                    "time": 619.845943500003,
                    "velocity": 0.4251968503937008,
                    "duration": 0.17680352083323214
                },
                {
                    "name": "F#4",
                    "midi": 66,
                    "time": 620.009146750003,
                    "velocity": 0.4409448818897638,
                    "duration": 0.17680352083323214
                },
                {
                    "name": "G4",
                    "midi": 67,
                    "time": 620.1723500000029,
                    "velocity": 0.4566929133858268,
                    "duration": 0.17680352083323214
                },
                {
                    "name": "A4",
                    "midi": 69,
                    "time": 620.3355532500028,
                    "velocity": 0.4645669291338583,
                    "duration": 0.17680352083323214
                },
                {
                    "name": "B4",
                    "midi": 71,
                    "time": 620.4987565000027,
                    "velocity": 0.48031496062992124,
                    "duration": 0.17680352083323214
                },
                {
                    "name": "C5",
                    "midi": 72,
                    "time": 620.6619597500027,
                    "velocity": 0.49606299212598426,
                    "duration": 0.17680352083323214
                },
                {
                    "name": "D5",
                    "midi": 74,
                    "time": 620.8251630000026,
                    "velocity": 0.5118110236220472,
                    "duration": 0.17680352083323214
                },
                {
                    "name": "E5",
                    "midi": 76,
                    "time": 620.9883662500025,
                    "velocity": 0.5196850393700787,
                    "duration": 0.17680352083323214
                },
                {
                    "name": "F5",
                    "midi": 77,
                    "time": 621.1515695000024,
                    "velocity": 0.5354330708661418,
                    "duration": 0.17680352083323214
                },
                {
                    "name": "F#5",
                    "midi": 78,
                    "time": 621.3147727500024,
                    "velocity": 0.5511811023622047,
                    "duration": 0.17680352083334583
                },
                {
                    "name": "G6",
                    "midi": 91,
                    "time": 632.5757970000024,
                    "velocity": 0.44881889763779526,
                    "duration": 0.6528130000000374
                },
                {
                    "name": "G6",
                    "midi": 91,
                    "time": 633.2286100000024,
                    "velocity": 0.4645669291338583,
                    "duration": 0.9792194999999992
                },
                {
                    "name": "E6",
                    "midi": 88,
                    "time": 634.2078295000024,
                    "velocity": 0.3937007874015748,
                    "duration": 0.32640649999996185
                },
                {
                    "name": "D6",
                    "midi": 86,
                    "time": 634.5342360000024,
                    "velocity": 0.44881889763779526,
                    "duration": 0.6528130000000374
                },
                {
                    "name": "G5",
                    "midi": 79,
                    "time": 635.1870490000024,
                    "velocity": 0.3937007874015748,
                    "duration": 0.09520189583338379
                },
                {
                    "name": "C6",
                    "midi": 84,
                    "time": 635.8398620000024,
                    "velocity": 0.41732283464566927,
                    "duration": 0.6528130000000374
                },
                {
                    "name": "E6",
                    "midi": 88,
                    "time": 636.4926750000025,
                    "velocity": 0.41732283464566927,
                    "duration": 0.32640649999996185
                },
                {
                    "name": "G6",
                    "midi": 91,
                    "time": 637.7983010000024,
                    "velocity": 0.44881889763779526,
                    "duration": 0.6528130000000374
                },
                {
                    "name": "G6",
                    "midi": 91,
                    "time": 638.4511140000025,
                    "velocity": 0.4645669291338583,
                    "duration": 0.9792194999999992
                },
                {
                    "name": "E6",
                    "midi": 88,
                    "time": 639.4303335000025,
                    "velocity": 0.3937007874015748,
                    "duration": 0.32640649999996185
                },
                {
                    "name": "D6",
                    "midi": 86,
                    "time": 639.7567400000024,
                    "velocity": 0.44881889763779526,
                    "duration": 0.6528130000000374
                },
                {
                    "name": "G5",
                    "midi": 79,
                    "time": 640.4095530000025,
                    "velocity": 0.3937007874015748,
                    "duration": 0.09520189583338379
                },
                {
                    "name": "C6",
                    "midi": 84,
                    "time": 641.0623660000025,
                    "velocity": 0.41732283464566927,
                    "duration": 0.32640649999996185
                },
                {
                    "name": "G6",
                    "midi": 91,
                    "time": 643.0208050000025,
                    "velocity": 0.44881889763779526,
                    "duration": 0.6528130000000374
                },
                {
                    "name": "G6",
                    "midi": 91,
                    "time": 643.6736180000025,
                    "velocity": 0.4645669291338583,
                    "duration": 0.9792194999999992
                },
                {
                    "name": "D#6",
                    "midi": 87,
                    "time": 644.6528375000025,
                    "velocity": 0.3937007874015748,
                    "duration": 0.32640649999996185
                },
                {
                    "name": "D6",
                    "midi": 86,
                    "time": 644.9792440000025,
                    "velocity": 0.44881889763779526,
                    "duration": 0.6528130000000374
                },
                {
                    "name": "G5",
                    "midi": 79,
                    "time": 645.6320570000025,
                    "velocity": 0.3937007874015748,
                    "duration": 0.09520189583338379
                },
                {
                    "name": "C6",
                    "midi": 84,
                    "time": 646.2848700000026,
                    "velocity": 0.41732283464566927,
                    "duration": 0.32640649999996185
                },
                {
                    "name": "D#6",
                    "midi": 87,
                    "time": 648.2433090000026,
                    "velocity": 0.44881889763779526,
                    "duration": 0.6528130000000374
                },
                {
                    "name": "D#6",
                    "midi": 87,
                    "time": 648.8961220000026,
                    "velocity": 0.4645669291338583,
                    "duration": 0.9792194999999992
                },
                {
                    "name": "C6",
                    "midi": 84,
                    "time": 649.8753415000026,
                    "velocity": 0.3937007874015748,
                    "duration": 0.32640649999996185
                },
                {
                    "name": "A#5",
                    "midi": 82,
                    "time": 650.2017480000026,
                    "velocity": 0.44881889763779526,
                    "duration": 0.6528130000000374
                },
                {
                    "name": "D#5",
                    "midi": 75,
                    "time": 650.8545610000026,
                    "velocity": 0.3937007874015748,
                    "duration": 0.6528130000000374
                },
                {
                    "name": "G#5",
                    "midi": 80,
                    "time": 651.5073740000026,
                    "velocity": 0.41732283464566927,
                    "duration": 0.32640649999996185
                },
                {
                    "name": "C6",
                    "midi": 84,
                    "time": 653.4658130000026,
                    "velocity": 0.44881889763779526,
                    "duration": 0.6528130000000374
                },
                {
                    "name": "C6",
                    "midi": 84,
                    "time": 654.1186260000027,
                    "velocity": 0.4645669291338583,
                    "duration": 0.9792194999999992
                },
                {
                    "name": "G#5",
                    "midi": 80,
                    "time": 655.0978455000027,
                    "velocity": 0.3937007874015748,
                    "duration": 0.32640649999996185
                },
                {
                    "name": "G5",
                    "midi": 79,
                    "time": 655.4242520000026,
                    "velocity": 0.44881889763779526,
                    "duration": 0.6528130000000374
                },
                {
                    "name": "C5",
                    "midi": 72,
                    "time": 656.0770650000027,
                    "velocity": 0.3937007874015748,
                    "duration": 0.09520189583338379
                },
                {
                    "name": "F5",
                    "midi": 77,
                    "time": 656.7298780000027,
                    "velocity": 0.44881889763779526,
                    "duration": 0.9792194999999992
                },
                {
                    "name": "G#5",
                    "midi": 80,
                    "time": 657.7090975000027,
                    "velocity": 0.41732283464566927,
                    "duration": 0.32640649999996185
                },
                {
                    "name": "G5",
                    "midi": 79,
                    "time": 658.0355040000027,
                    "velocity": 0.44881889763779526,
                    "duration": 0.6528130000000374
                },
                {
                    "name": "C5",
                    "midi": 72,
                    "time": 658.6883170000027,
                    "velocity": 0.3937007874015748,
                    "duration": 0.09520189583338379
                },
                {
                    "name": "F5",
                    "midi": 77,
                    "time": 659.3411300000027,
                    "velocity": 0.44881889763779526,
                    "duration": 0.6528130000000374
                },
                {
                    "name": "D#5",
                    "midi": 75,
                    "time": 659.9939430000028,
                    "velocity": 0.41732283464566927,
                    "duration": 0.6528130000000374
                },
                {
                    "name": "G5",
                    "midi": 79,
                    "time": 668.8069185000028,
                    "velocity": 0.49606299212598426,
                    "duration": 0.3236864458333457
                },
                {
                    "name": "G5",
                    "midi": 79,
                    "time": 669.1333250000027,
                    "velocity": 0.5039370078740157,
                    "duration": 0.3236864458333457
                },
                {
                    "name": "G5",
                    "midi": 79,
                    "time": 669.4597315000027,
                    "velocity": 0.5196850393700787,
                    "duration": 0.3236864458333457
                },
                {
                    "name": "G5",
                    "midi": 79,
                    "time": 669.7861380000027,
                    "velocity": 0.5354330708661418,
                    "duration": 0.3236864458333457
                },
                {
                    "name": "G5",
                    "midi": 79,
                    "time": 670.1125445000026,
                    "velocity": 0.5433070866141733,
                    "duration": 0.3236864458333457
                },
                {
                    "name": "G5",
                    "midi": 79,
                    "time": 670.4389510000026,
                    "velocity": 0.5590551181102362,
                    "duration": 0.3236864458333457
                },
                {
                    "name": "G5",
                    "midi": 79,
                    "time": 670.7653575000026,
                    "velocity": 0.5669291338582677,
                    "duration": 0.32640649999996185
                },
                {
                    "name": "C5",
                    "midi": 72,
                    "time": 671.0917640000025,
                    "velocity": 0.7637795275590551,
                    "duration": 0.32640649999996185
                },
                {
                    "name": "E5",
                    "midi": 76,
                    "time": 671.0917640000025,
                    "velocity": 0.7637795275590551,
                    "duration": 0.32640649999996185
                },
                {
                    "name": "G5",
                    "midi": 79,
                    "time": 671.4181705000025,
                    "velocity": 0.5905511811023622,
                    "duration": 0.32640650000007554
                },
                {
                    "name": "G6",
                    "midi": 91,
                    "time": 671.4181705000025,
                    "velocity": 0.5905511811023622,
                    "duration": 0.16320325000003777
                },
                {
                    "name": "G5",
                    "midi": 79,
                    "time": 671.7445770000026,
                    "velocity": 0.5905511811023622,
                    "duration": 0.9792194999999992
                },
                {
                    "name": "G6",
                    "midi": 91,
                    "time": 671.7445770000026,
                    "velocity": 0.6220472440944882,
                    "duration": 0.4896097499999996
                },
                {
                    "name": "E6",
                    "midi": 88,
                    "time": 672.2341867500026,
                    "velocity": 0.5905511811023622,
                    "duration": 0.16320325000003777
                },
                {
                    "name": "D6",
                    "midi": 86,
                    "time": 672.3973900000026,
                    "velocity": 0.6377952755905512,
                    "duration": 0.32640649999996185
                },
                {
                    "name": "G5",
                    "midi": 79,
                    "time": 672.7237965000025,
                    "velocity": 0.5905511811023622,
                    "duration": 0.9792194999998856
                },
                {
                    "name": "C6",
                    "midi": 84,
                    "time": 673.0502030000025,
                    "velocity": 0.5905511811023622,
                    "duration": 0.32640649999996185
                },
                {
                    "name": "E6",
                    "midi": 88,
                    "time": 673.3766095000025,
                    "velocity": 0.5748031496062992,
                    "duration": 0.32640649999996185
                },
                {
                    "name": "G4",
                    "midi": 67,
                    "time": 674.0294225000024,
                    "velocity": 0.3937007874015748,
                    "duration": 0.32640650000007554
                },
                {
                    "name": "G5",
                    "midi": 79,
                    "time": 674.0294225000024,
                    "velocity": 0.3937007874015748,
                    "duration": 0.16320325000003777
                },
                {
                    "name": "G4",
                    "midi": 67,
                    "time": 674.3558290000025,
                    "velocity": 0.3937007874015748,
                    "duration": 0.9792194999999992
                },
                {
                    "name": "G5",
                    "midi": 79,
                    "time": 674.3558290000025,
                    "velocity": 0.41732283464566927,
                    "duration": 0.4896097499999996
                },
                {
                    "name": "E5",
                    "midi": 76,
                    "time": 674.8454387500025,
                    "velocity": 0.3937007874015748,
                    "duration": 0.16320325000003777
                },
                {
                    "name": "D5",
                    "midi": 74,
                    "time": 675.0086420000025,
                    "velocity": 0.4251968503937008,
                    "duration": 0.32640649999996185
                },
                {
                    "name": "G4",
                    "midi": 67,
                    "time": 675.3350485000025,
                    "velocity": 0.3937007874015748,
                    "duration": 0.9792194999998856
                },
                {
                    "name": "C5",
                    "midi": 72,
                    "time": 675.6614550000024,
                    "velocity": 0.3937007874015748,
                    "duration": 0.32640649999996185
                },
                {
                    "name": "E5",
                    "midi": 76,
                    "time": 675.9878615000024,
                    "velocity": 0.3858267716535433,
                    "duration": 0.32640649999996185
                },
                {
                    "name": "G6",
                    "midi": 91,
                    "time": 676.6406745000023,
                    "velocity": 0.5905511811023622,
                    "duration": 0.16320325000003777
                },
                {
                    "name": "F#6",
                    "midi": 90,
                    "time": 676.8038777500024,
                    "velocity": 0.5433070866141733,
                    "duration": 0.16320325000003777
                },
                {
                    "name": "G6",
                    "midi": 91,
                    "time": 676.9670810000024,
                    "velocity": 0.5905511811023622,
                    "duration": 0.16320325000003777
                },
                {
                    "name": "F#6",
                    "midi": 90,
                    "time": 677.1302842500024,
                    "velocity": 0.5511811023622047,
                    "duration": 0.16320325000003777
                },
                {
                    "name": "G6",
                    "midi": 91,
                    "time": 677.2934875000025,
                    "velocity": 0.5905511811023622,
                    "duration": 0.16320325000003777
                },
                {
                    "name": "E6",
                    "midi": 88,
                    "time": 677.4566907500025,
                    "velocity": 0.5511811023622047,
                    "duration": 0.16320325000003777
                },
                {
                    "name": "D6",
                    "midi": 86,
                    "time": 677.6198940000025,
                    "velocity": 0.5669291338582677,
                    "duration": 0.16320325000003777
                },
                {
                    "name": "C#6",
                    "midi": 85,
                    "time": 677.7830972500026,
                    "velocity": 0.5039370078740157,
                    "duration": 0.16320325000003777
                },
                {
                    "name": "D6",
                    "midi": 86,
                    "time": 677.9463005000026,
                    "velocity": 0.5669291338582677,
                    "duration": 0.16320325000003777
                },
                {
                    "name": "G5",
                    "midi": 79,
                    "time": 678.1095037500027,
                    "velocity": 0.5275590551181102,
                    "duration": 0.16320325000003777
                },
                {
                    "name": "C6",
                    "midi": 84,
                    "time": 678.2727070000027,
                    "velocity": 0.5669291338582677,
                    "duration": 0.16320325000003777
                },
                {
                    "name": "B5",
                    "midi": 83,
                    "time": 678.4359102500027,
                    "velocity": 0.5196850393700787,
                    "duration": 0.16320325000003777
                },
                {
                    "name": "C6",
                    "midi": 84,
                    "time": 678.5991135000028,
                    "velocity": 0.5905511811023622,
                    "duration": 0.16320325000003777
                },
                {
                    "name": "E6",
                    "midi": 88,
                    "time": 678.7623167500028,
                    "velocity": 0.5433070866141733,
                    "duration": 0.16320325000003777
                },
                {
                    "name": "G5",
                    "midi": 79,
                    "time": 679.2519265000028,
                    "velocity": 0.3937007874015748,
                    "duration": 0.16320325000003777
                },
                {
                    "name": "F#5",
                    "midi": 78,
                    "time": 679.4151297500028,
                    "velocity": 0.3700787401574803,
                    "duration": 0.16320325000003777
                },
                {
                    "name": "G5",
                    "midi": 79,
                    "time": 679.5783330000029,
                    "velocity": 0.3937007874015748,
                    "duration": 0.16320325000003777
                },
                {
                    "name": "F#5",
                    "midi": 78,
                    "time": 679.7415362500029,
                    "velocity": 0.36220472440944884,
                    "duration": 0.16320325000003777
                },
                {
                    "name": "G5",
                    "midi": 79,
                    "time": 679.904739500003,
                    "velocity": 0.3937007874015748,
                    "duration": 0.16320325000003777
                },
                {
                    "name": "E5",
                    "midi": 76,
                    "time": 680.067942750003,
                    "velocity": 0.3464566929133858,
                    "duration": 0.16320325000003777
                },
                {
                    "name": "D5",
                    "midi": 74,
                    "time": 680.231146000003,
                    "velocity": 0.3779527559055118,
                    "duration": 0.16320325000003777
                },
                {
                    "name": "C#5",
                    "midi": 73,
                    "time": 680.3943492500031,
                    "velocity": 0.3543307086614173,
                    "duration": 0.16320325000003777
                },
                {
                    "name": "D5",
                    "midi": 74,
                    "time": 680.5575525000031,
                    "velocity": 0.3858267716535433,
                    "duration": 0.16320325000003777
                },
                {
                    "name": "G4",
                    "midi": 67,
                    "time": 680.7207557500031,
                    "velocity": 0.3543307086614173,
                    "duration": 0.16320325000003777
                },
                {
                    "name": "C5",
                    "midi": 72,
                    "time": 680.8839590000032,
                    "velocity": 0.3858267716535433,
                    "duration": 0.16320325000003777
                },
                {
                    "name": "B4",
                    "midi": 71,
                    "time": 681.0471622500032,
                    "velocity": 0.36220472440944884,
                    "duration": 0.16320325000003777
                },
                {
                    "name": "C5",
                    "midi": 72,
                    "time": 681.2103655000033,
                    "velocity": 0.3858267716535433,
                    "duration": 0.16320325000003777
                },
                {
                    "name": "E5",
                    "midi": 76,
                    "time": 681.3735687500033,
                    "velocity": 0.36220472440944884,
                    "duration": 0.16320325000003777
                },
                {
                    "name": "D4",
                    "midi": 62,
                    "time": 681.5367720000033,
                    "velocity": 0.3937007874015748,
                    "duration": 0.16320325000003777
                },
                {
                    "name": "C#4",
                    "midi": 61,
                    "time": 681.6999752500034,
                    "velocity": 0.3543307086614173,
                    "duration": 0.16320325000003777
                },
                {
                    "name": "D4",
                    "midi": 62,
                    "time": 681.8631785000034,
                    "velocity": 0.4015748031496063,
                    "duration": 0.16320325000003777
                },
                {
                    "name": "G3",
                    "midi": 55,
                    "time": 682.0263817500035,
                    "velocity": 0.36220472440944884,
                    "duration": 0.16320325000003777
                },
                {
                    "name": "C4",
                    "midi": 60,
                    "time": 682.1895850000035,
                    "velocity": 0.4015748031496063,
                    "duration": 0.17680352083334583
                },
                {
                    "name": "B3",
                    "midi": 59,
                    "time": 682.3527882500035,
                    "velocity": 0.36220472440944884,
                    "duration": 0.17680352083323214
                },
                {
                    "name": "C4",
                    "midi": 60,
                    "time": 682.5159915000035,
                    "velocity": 0.4015748031496063,
                    "duration": 0.17680352083323214
                },
                {
                    "name": "E4",
                    "midi": 64,
                    "time": 682.6791947500034,
                    "velocity": 0.36220472440944884,
                    "duration": 0.16320324999992408
                },
                {
                    "name": "D4",
                    "midi": 62,
                    "time": 682.8423980000033,
                    "velocity": 0.3937007874015748,
                    "duration": 0.16320325000003777
                },
                {
                    "name": "C#4",
                    "midi": 61,
                    "time": 683.0056012500033,
                    "velocity": 0.3543307086614173,
                    "duration": 0.16320325000003777
                },
                {
                    "name": "D4",
                    "midi": 62,
                    "time": 683.1688045000034,
                    "velocity": 0.4015748031496063,
                    "duration": 0.16320325000003777
                },
                {
                    "name": "G3",
                    "midi": 55,
                    "time": 683.3320077500034,
                    "velocity": 0.36220472440944884,
                    "duration": 0.16320325000003777
                },
                {
                    "name": "C4",
                    "midi": 60,
                    "time": 683.4952110000035,
                    "velocity": 0.4015748031496063,
                    "duration": 0.17680352083334583
                },
                {
                    "name": "B3",
                    "midi": 59,
                    "time": 683.6584142500035,
                    "velocity": 0.36220472440944884,
                    "duration": 0.17680352083323214
                },
                {
                    "name": "C4",
                    "midi": 60,
                    "time": 683.8216175000034,
                    "velocity": 0.4015748031496063,
                    "duration": 0.17680352083323214
                },
                {
                    "name": "E4",
                    "midi": 64,
                    "time": 683.9848207500033,
                    "velocity": 0.36220472440944884,
                    "duration": 0.16320324999992408
                },
                {
                    "name": "D4",
                    "midi": 62,
                    "time": 684.1480240000033,
                    "velocity": 0.4330708661417323,
                    "duration": 0.16320325000003777
                },
                {
                    "name": "C#4",
                    "midi": 61,
                    "time": 684.3112272500033,
                    "velocity": 0.3858267716535433,
                    "duration": 0.16320325000003777
                },
                {
                    "name": "D4",
                    "midi": 62,
                    "time": 684.4744305000033,
                    "velocity": 0.44881889763779526,
                    "duration": 0.16320325000003777
                },
                {
                    "name": "B3",
                    "midi": 59,
                    "time": 684.6376337500034,
                    "velocity": 0.4094488188976378,
                    "duration": 0.16320325000003777
                },
                {
                    "name": "F4",
                    "midi": 65,
                    "time": 684.8008370000034,
                    "velocity": 0.4645669291338583,
                    "duration": 0.17680352083334583
                },
                {
                    "name": "E4",
                    "midi": 64,
                    "time": 684.9640402500034,
                    "velocity": 0.4251968503937008,
                    "duration": 0.17680352083323214
                },
                {
                    "name": "F4",
                    "midi": 65,
                    "time": 685.1272435000034,
                    "velocity": 0.48031496062992124,
                    "duration": 0.17680352083323214
                },
                {
                    "name": "D4",
                    "midi": 62,
                    "time": 685.2904467500033,
                    "velocity": 0.4409448818897638,
                    "duration": 0.16320324999992408
                },
                {
                    "name": "B4",
                    "midi": 71,
                    "time": 685.4536500000032,
                    "velocity": 0.4881889763779528,
                    "duration": 0.16320325000003777
                },
                {
                    "name": "A#4",
                    "midi": 70,
                    "time": 685.6168532500033,
                    "velocity": 0.4409448818897638,
                    "duration": 0.16320325000003777
                },
                {
                    "name": "B4",
                    "midi": 71,
                    "time": 685.7800565000033,
                    "velocity": 0.5118110236220472,
                    "duration": 0.16320325000003777
                },
                {
                    "name": "F4",
                    "midi": 65,
                    "time": 685.9432597500033,
                    "velocity": 0.4645669291338583,
                    "duration": 0.16320325000003777
                },
                {
                    "name": "D5",
                    "midi": 74,
                    "time": 686.1064630000034,
                    "velocity": 0.5275590551181102,
                    "duration": 0.17680352083334583
                },
                {
                    "name": "C#5",
                    "midi": 73,
                    "time": 686.2696662500034,
                    "velocity": 0.48031496062992124,
                    "duration": 0.17680352083323214
                },
                {
                    "name": "D5",
                    "midi": 74,
                    "time": 686.4328695000033,
                    "velocity": 0.5433070866141733,
                    "duration": 0.17680352083323214
                },
                {
                    "name": "B4",
                    "midi": 71,
                    "time": 686.5960727500033,
                    "velocity": 0.49606299212598426,
                    "duration": 0.16320324999992408
                },
                {
                    "name": "F5",
                    "midi": 77,
                    "time": 686.7592760000032,
                    "velocity": 0.5511811023622047,
                    "duration": 0.16320325000003777
                },
                {
                    "name": "E5",
                    "midi": 76,
                    "time": 686.9224792500032,
                    "velocity": 0.49606299212598426,
                    "duration": 0.16320325000003777
                },
                {
                    "name": "F5",
                    "midi": 77,
                    "time": 687.0856825000033,
                    "velocity": 0.5590551181102362,
                    "duration": 0.16320325000003777
                },
                {
                    "name": "D5",
                    "midi": 74,
                    "time": 687.2488857500033,
                    "velocity": 0.5118110236220472,
                    "duration": 0.16320325000003777
                },
                {
                    "name": "B5",
                    "midi": 83,
                    "time": 687.4120890000033,
                    "velocity": 0.5748031496062992,
                    "duration": 0.17680352083334583
                },
                {
                    "name": "A#5",
                    "midi": 82,
                    "time": 687.5752922500034,
                    "velocity": 0.5196850393700787,
                    "duration": 0.17680352083323214
                },
                {
                    "name": "B5",
                    "midi": 83,
                    "time": 687.7384955000033,
                    "velocity": 0.5748031496062992,
                    "duration": 0.17680352083323214
                },
                {
                    "name": "F5",
                    "midi": 77,
                    "time": 687.9016987500032,
                    "velocity": 0.5275590551181102,
                    "duration": 0.16320324999992408
                },
                {
                    "name": "D6",
                    "midi": 86,
                    "time": 688.0649020000031,
                    "velocity": 0.5826771653543307,
                    "duration": 0.16320325000003777
                },
                {
                    "name": "C#6",
                    "midi": 85,
                    "time": 688.2281052500032,
                    "velocity": 0.5275590551181102,
                    "duration": 0.16320325000003777
                },
                {
                    "name": "D6",
                    "midi": 86,
                    "time": 688.3913085000032,
                    "velocity": 0.5984251968503937,
                    "duration": 0.16320325000003777
                },
                {
                    "name": "B5",
                    "midi": 83,
                    "time": 688.5545117500033,
                    "velocity": 0.5433070866141733,
                    "duration": 0.16320325000003777
                },
                {
                    "name": "F6",
                    "midi": 89,
                    "time": 688.7177150000033,
                    "velocity": 0.6062992125984252,
                    "duration": 0.17680352083334583
                },
                {
                    "name": "E6",
                    "midi": 88,
                    "time": 688.8809182500033,
                    "velocity": 0.5511811023622047,
                    "duration": 0.17680352083323214
                },
                {
                    "name": "F6",
                    "midi": 89,
                    "time": 689.0441215000033,
                    "velocity": 0.6141732283464567,
                    "duration": 0.17680352083323214
                },
                {
                    "name": "B5",
                    "midi": 83,
                    "time": 689.2073247500032,
                    "velocity": 0.5590551181102362,
                    "duration": 0.16320324999992408
                },
                {
                    "name": "C6",
                    "midi": 84,
                    "time": 689.3705280000031,
                    "velocity": 0.7165354330708661,
                    "duration": 0.32640649999996185
                },
                {
                    "name": "E4",
                    "midi": 64,
                    "time": 689.6969345000031,
                    "velocity": 0.5354330708661418,
                    "duration": 0.16320325000003777
                },
                {
                    "name": "G4",
                    "midi": 67,
                    "time": 689.6969345000031,
                    "velocity": 0.6377952755905512,
                    "duration": 0.16320325000003777
                },
                {
                    "name": "C4",
                    "midi": 60,
                    "time": 690.0233410000031,
                    "velocity": 0.5669291338582677,
                    "duration": 0.16320325000003777
                },
                {
                    "name": "E4",
                    "midi": 64,
                    "time": 690.0233410000031,
                    "velocity": 0.6692913385826772,
                    "duration": 0.16320325000003777
                },
                {
                    "name": "G4",
                    "midi": 67,
                    "time": 690.3497475000032,
                    "velocity": 0.5354330708661418,
                    "duration": 0.16320325000003777
                },
                {
                    "name": "C5",
                    "midi": 72,
                    "time": 690.3497475000032,
                    "velocity": 0.6377952755905512,
                    "duration": 0.16320325000003777
                },
                {
                    "name": "E4",
                    "midi": 64,
                    "time": 690.6761540000033,
                    "velocity": 0.5590551181102362,
                    "duration": 0.16320325000003777
                },
                {
                    "name": "G4",
                    "midi": 67,
                    "time": 690.6761540000033,
                    "velocity": 0.6614173228346457,
                    "duration": 0.16320325000003777
                },
                {
                    "name": "C5",
                    "midi": 72,
                    "time": 691.0025605000034,
                    "velocity": 0.5354330708661418,
                    "duration": 0.16320325000003777
                },
                {
                    "name": "E5",
                    "midi": 76,
                    "time": 691.0025605000034,
                    "velocity": 0.6377952755905512,
                    "duration": 0.16320325000003777
                },
                {
                    "name": "G4",
                    "midi": 67,
                    "time": 691.3289670000034,
                    "velocity": 0.5748031496062992,
                    "duration": 0.16320325000003777
                },
                {
                    "name": "C5",
                    "midi": 72,
                    "time": 691.3289670000034,
                    "velocity": 0.6771653543307087,
                    "duration": 0.16320325000003777
                },
                {
                    "name": "E5",
                    "midi": 76,
                    "time": 691.6553735000035,
                    "velocity": 0.5354330708661418,
                    "duration": 0.16320325000003777
                },
                {
                    "name": "G5",
                    "midi": 79,
                    "time": 691.6553735000035,
                    "velocity": 0.6377952755905512,
                    "duration": 0.16320325000003777
                },
                {
                    "name": "C5",
                    "midi": 72,
                    "time": 691.9817800000036,
                    "velocity": 0.5748031496062992,
                    "duration": 0.16320325000003777
                },
                {
                    "name": "E5",
                    "midi": 76,
                    "time": 691.9817800000036,
                    "velocity": 0.6771653543307087,
                    "duration": 0.16320325000003777
                },
                {
                    "name": "C6",
                    "midi": 84,
                    "time": 692.3081865000037,
                    "velocity": 0.6377952755905512,
                    "duration": 0.16320325000003777
                },
                {
                    "name": "G5",
                    "midi": 79,
                    "time": 692.3081865000037,
                    "velocity": 0.5354330708661418,
                    "duration": 0.16320325000003777
                },
                {
                    "name": "E5",
                    "midi": 76,
                    "time": 692.6345930000037,
                    "velocity": 0.5748031496062992,
                    "duration": 0.16320325000003777
                },
                {
                    "name": "G5",
                    "midi": 79,
                    "time": 692.6345930000037,
                    "velocity": 0.6771653543307087,
                    "duration": 0.16320325000003777
                },
                {
                    "name": "E6",
                    "midi": 88,
                    "time": 692.9609995000038,
                    "velocity": 0.6456692913385826,
                    "duration": 0.16320325000003777
                },
                {
                    "name": "C6",
                    "midi": 84,
                    "time": 692.9609995000038,
                    "velocity": 0.5433070866141733,
                    "duration": 0.16320325000003777
                },
                {
                    "name": "C6",
                    "midi": 84,
                    "time": 693.2874060000039,
                    "velocity": 0.6850393700787402,
                    "duration": 0.16320325000003777
                },
                {
                    "name": "G5",
                    "midi": 79,
                    "time": 693.2874060000039,
                    "velocity": 0.5748031496062992,
                    "duration": 0.16320325000003777
                },
                {
                    "name": "G6",
                    "midi": 91,
                    "time": 693.613812500004,
                    "velocity": 0.6456692913385826,
                    "duration": 0.16320325000003777
                },
                {
                    "name": "E6",
                    "midi": 88,
                    "time": 693.613812500004,
                    "velocity": 0.5433070866141733,
                    "duration": 0.16320325000003777
                },
                {
                    "name": "C6",
                    "midi": 84,
                    "time": 693.940219000004,
                    "velocity": 0.5826771653543307,
                    "duration": 0.16320325000003777
                },
                {
                    "name": "E6",
                    "midi": 88,
                    "time": 693.940219000004,
                    "velocity": 0.6929133858267716,
                    "duration": 0.16320325000003777
                },
                {
                    "name": "G6",
                    "midi": 91,
                    "time": 694.2666255000041,
                    "velocity": 0.6456692913385826,
                    "duration": 0.16320325000003777
                },
                {
                    "name": "E6",
                    "midi": 88,
                    "time": 694.2666255000041,
                    "velocity": 0.5433070866141733,
                    "duration": 0.16320325000003777
                },
                {
                    "name": "E6",
                    "midi": 88,
                    "time": 694.5930320000042,
                    "velocity": 0.6850393700787402,
                    "duration": 0.16320325000003777
                },
                {
                    "name": "C6",
                    "midi": 84,
                    "time": 694.5930320000042,
                    "velocity": 0.5748031496062992,
                    "duration": 0.16320325000003777
                },
                {
                    "name": "E5",
                    "midi": 76,
                    "time": 695.8986580000043,
                    "velocity": 0.4251968503937008,
                    "duration": 0.32640649999996185
                },
                {
                    "name": "G5",
                    "midi": 79,
                    "time": 695.8986580000043,
                    "velocity": 0.5984251968503937,
                    "duration": 0.32640649999996185
                },
                {
                    "name": "C5",
                    "midi": 72,
                    "time": 697.2042840000042,
                    "velocity": 0.3937007874015748,
                    "duration": 0.32640649999996185
                },
                {
                    "name": "E5",
                    "midi": 76,
                    "time": 697.2042840000042,
                    "velocity": 0.5511811023622047,
                    "duration": 0.32640649999996185
                },
                {
                    "name": "E4",
                    "midi": 64,
                    "time": 698.5099100000042,
                    "velocity": 0.33858267716535434,
                    "duration": 0.32640649999996185
                },
                {
                    "name": "G4",
                    "midi": 67,
                    "time": 698.5099100000042,
                    "velocity": 0.47244094488188976,
                    "duration": 0.32640649999996185
                },
                {
                    "name": "C4",
                    "midi": 60,
                    "time": 699.8155360000042,
                    "velocity": 0.30708661417322836,
                    "duration": 0.32640649999996185
                },
                {
                    "name": "E4",
                    "midi": 64,
                    "time": 699.8155360000042,
                    "velocity": 0.4409448818897638,
                    "duration": 0.32640649999996185
                },
                {
                    "name": "E5",
                    "midi": 76,
                    "time": 701.1211620000041,
                    "velocity": 0.28346456692913385,
                    "duration": 0.32640649999996185
                },
                {
                    "name": "G5",
                    "midi": 79,
                    "time": 701.1211620000041,
                    "velocity": 0.33858267716535434,
                    "duration": 0.32640649999996185
                },
                {
                    "name": "E5",
                    "midi": 76,
                    "time": 701.773975000004,
                    "velocity": 0.28346456692913385,
                    "duration": 0.32640649999996185
                },
                {
                    "name": "G5",
                    "midi": 79,
                    "time": 701.773975000004,
                    "velocity": 0.33858267716535434,
                    "duration": 0.32640649999996185
                },
                {
                    "name": "C5",
                    "midi": 72,
                    "time": 702.426788000004,
                    "velocity": 0.2755905511811024,
                    "duration": 0.32640649999996185
                },
                {
                    "name": "E5",
                    "midi": 76,
                    "time": 702.426788000004,
                    "velocity": 0.33070866141732286,
                    "duration": 0.32640649999996185
                },
                {
                    "name": "G6",
                    "midi": 91,
                    "time": 703.7324140000039,
                    "velocity": 0.7952755905511811,
                    "duration": 0.16320325000003777
                },
                {
                    "name": "E6",
                    "midi": 88,
                    "time": 703.7324140000039,
                    "velocity": 0.7952755905511811,
                    "duration": 0.16320325000003777
                },
                {
                    "name": "C6",
                    "midi": 84,
                    "time": 703.7324140000039,
                    "velocity": 0.6692913385826772,
                    "duration": 0.16320325000003777
                },
                {
                    "name": "G5",
                    "midi": 79,
                    "time": 703.7324140000039,
                    "velocity": 0.6692913385826772,
                    "duration": 0.16320325000003777
                },
                {
                    "name": "G5",
                    "midi": 79,
                    "time": 704.385227000004,
                    "velocity": 0.6692913385826772,
                    "duration": 0.16320325000003777
                },
                {
                    "name": "C6",
                    "midi": 84,
                    "time": 704.385227000004,
                    "velocity": 0.6692913385826772,
                    "duration": 0.16320325000003777
                },
                {
                    "name": "E6",
                    "midi": 88,
                    "time": 704.385227000004,
                    "velocity": 0.7952755905511811,
                    "duration": 0.16320325000003777
                },
                {
                    "name": "G6",
                    "midi": 91,
                    "time": 704.385227000004,
                    "velocity": 0.7952755905511811,
                    "duration": 0.16320325000003777
                },
                {
                    "name": "E6",
                    "midi": 88,
                    "time": 705.038040000004,
                    "velocity": 0.7952755905511811,
                    "duration": 0.16320325000003777
                },
                {
                    "name": "C6",
                    "midi": 84,
                    "time": 705.038040000004,
                    "velocity": 0.7952755905511811,
                    "duration": 0.16320325000003777
                },
                {
                    "name": "G5",
                    "midi": 79,
                    "time": 705.038040000004,
                    "velocity": 0.6692913385826772,
                    "duration": 0.16320325000003777
                },
                {
                    "name": "E5",
                    "midi": 76,
                    "time": 705.038040000004,
                    "velocity": 0.6692913385826772,
                    "duration": 0.16320325000003777
                },
                {
                    "name": "E4",
                    "midi": 64,
                    "time": 706.3436660000041,
                    "velocity": 0.6692913385826772,
                    "duration": 0.16320325000003777
                },
                {
                    "name": "G4",
                    "midi": 67,
                    "time": 706.3436660000041,
                    "velocity": 0.6692913385826772,
                    "duration": 0.16320325000003777
                },
                {
                    "name": "C5",
                    "midi": 72,
                    "time": 706.3436660000041,
                    "velocity": 0.7952755905511811,
                    "duration": 0.16320325000003777
                },
                {
                    "name": "E5",
                    "midi": 76,
                    "time": 706.3436660000041,
                    "velocity": 0.7952755905511811,
                    "duration": 0.16320325000003777
                },
                {
                    "name": "C4",
                    "midi": 60,
                    "time": 707.6492920000042,
                    "velocity": 0.6692913385826772,
                    "duration": 0.16320325000003777
                },
                {
                    "name": "E4",
                    "midi": 64,
                    "time": 707.6492920000042,
                    "velocity": 0.6692913385826772,
                    "duration": 0.16320325000003777
                },
                {
                    "name": "G4",
                    "midi": 67,
                    "time": 707.6492920000042,
                    "velocity": 0.7952755905511811,
                    "duration": 0.16320325000003777
                },
                {
                    "name": "C5",
                    "midi": 72,
                    "time": 707.6492920000042,
                    "velocity": 0.7952755905511811,
                    "duration": 0.16320325000003777
                }
            ],
            "controlChanges": {
                "7": [
                    {
                        "number": 7,
                        "time": 0,
                        "value": 0.7874015748031497
                    }
                ],
                "10": [
                    {
                        "number": 10,
                        "time": 0,
                        "value": 0.5039370078740157
                    }
                ],
                "91": [
                    {
                        "number": 91,
                        "time": 0,
                        "value": 1
                    },
                    {
                        "number": 91,
                        "time": 5.222503999999997,
                        "value": 1
                    },
                    {
                        "number": 91,
                        "time": 10.445007999999994,
                        "value": 1
                    },
                    {
                        "number": 91,
                        "time": 15.66751200000001,
                        "value": 1
                    },
                    {
                        "number": 91,
                        "time": 147.53573799999847,
                        "value": 1
                    },
                    {
                        "number": 91,
                        "time": 152.75824199999877,
                        "value": 1
                    },
                    {
                        "number": 91,
                        "time": 157.98074599999904,
                        "value": 1
                    },
                    {
                        "number": 91,
                        "time": 163.20324999999934,
                        "value": 1
                    }
                ]
            },
            "id": 2,
            "name": "Piano right",
            "instrumentNumber": 1,
            "instrument": "bright acoustic piano",
            "instrumentFamily": "piano",
            "channelNumber": 0,
            "isPercussion": false
        },
        {
            "startTime": 0,
            "duration": 707.8124952500126,
            "length": 3180,
            "notes": [
                {
                    "name": "C2",
                    "midi": 36,
                    "time": 0,
                    "velocity": 0.3937007874015748,
                    "duration": 0.3264065
                },
                {
                    "name": "G5",
                    "midi": 79,
                    "time": 0.652813,
                    "velocity": 0.3937007874015748,
                    "duration": 0.32640649999999993
                },
                {
                    "name": "G5",
                    "midi": 79,
                    "time": 1.305626,
                    "velocity": 0.4251968503937008,
                    "duration": 0.9792194999999999
                },
                {
                    "name": "E5",
                    "midi": 76,
                    "time": 2.2848455,
                    "velocity": 0.3700787401574803,
                    "duration": 0.32640650000000004
                },
                {
                    "name": "D5",
                    "midi": 74,
                    "time": 2.611252,
                    "velocity": 0.3937007874015748,
                    "duration": 0.6528130000000001
                },
                {
                    "name": "G4",
                    "midi": 67,
                    "time": 3.264065,
                    "velocity": 0.3228346456692913,
                    "duration": 0.6528130000000001
                },
                {
                    "name": "C5",
                    "midi": 72,
                    "time": 3.916878,
                    "velocity": 0.3937007874015748,
                    "duration": 0.6528129999999996
                },
                {
                    "name": "E5",
                    "midi": 76,
                    "time": 4.569691,
                    "velocity": 0.3700787401574803,
                    "duration": 0.32640650000000004
                },
                {
                    "name": "C3",
                    "midi": 48,
                    "time": 5.059300749999999,
                    "velocity": 0.2440944881889764,
                    "duration": 0.16320324999999958
                },
                {
                    "name": "C2",
                    "midi": 36,
                    "time": 5.222503999999999,
                    "velocity": 0.3937007874015748,
                    "duration": 0.32640650000000004
                },
                {
                    "name": "G5",
                    "midi": 79,
                    "time": 5.875316999999999,
                    "velocity": 0.3937007874015748,
                    "duration": 0.32640650000000004
                },
                {
                    "name": "G5",
                    "midi": 79,
                    "time": 6.528129999999999,
                    "velocity": 0.4251968503937008,
                    "duration": 0.9792195000000001
                },
                {
                    "name": "E5",
                    "midi": 76,
                    "time": 7.507349499999999,
                    "velocity": 0.3700787401574803,
                    "duration": 0.32640650000000004
                },
                {
                    "name": "D5",
                    "midi": 74,
                    "time": 7.833755999999999,
                    "velocity": 0.3937007874015748,
                    "duration": 0.6528130000000001
                },
                {
                    "name": "G4",
                    "midi": 67,
                    "time": 8.486569,
                    "velocity": 0.3228346456692913,
                    "duration": 0.6528130000000001
                },
                {
                    "name": "C5",
                    "midi": 72,
                    "time": 9.139382,
                    "velocity": 0.3937007874015748,
                    "duration": 0.32640649999999916
                },
                {
                    "name": "G2",
                    "midi": 43,
                    "time": 10.28180475,
                    "velocity": 0.23622047244094488,
                    "duration": 0.16320325000000047
                },
                {
                    "name": "G1",
                    "midi": 31,
                    "time": 10.445008,
                    "velocity": 0.3543307086614173,
                    "duration": 0.32640649999999916
                },
                {
                    "name": "F5",
                    "midi": 77,
                    "time": 11.097820999999998,
                    "velocity": 0.3937007874015748,
                    "duration": 0.32640649999999916
                },
                {
                    "name": "F5",
                    "midi": 77,
                    "time": 11.750633999999996,
                    "velocity": 0.4251968503937008,
                    "duration": 0.9792194999999992
                },
                {
                    "name": "D5",
                    "midi": 74,
                    "time": 12.729853499999995,
                    "velocity": 0.3700787401574803,
                    "duration": 0.32640649999999916
                },
                {
                    "name": "E5",
                    "midi": 76,
                    "time": 13.056259999999995,
                    "velocity": 0.3937007874015748,
                    "duration": 0.6528130000000001
                },
                {
                    "name": "C5",
                    "midi": 72,
                    "time": 13.709072999999995,
                    "velocity": 0.3228346456692913,
                    "duration": 0.6528130000000001
                },
                {
                    "name": "B4",
                    "midi": 71,
                    "time": 14.361885999999995,
                    "velocity": 0.3937007874015748,
                    "duration": 0.6528130000000001
                },
                {
                    "name": "D5",
                    "midi": 74,
                    "time": 15.014698999999995,
                    "velocity": 0.3700787401574803,
                    "duration": 0.32640649999999916
                },
                {
                    "name": "G2",
                    "midi": 43,
                    "time": 15.504308749999995,
                    "velocity": 0.25196850393700787,
                    "duration": 0.16320325000000047
                },
                {
                    "name": "G1",
                    "midi": 31,
                    "time": 15.667511999999995,
                    "velocity": 0.3779527559055118,
                    "duration": 0.32640649999999916
                },
                {
                    "name": "F5",
                    "midi": 77,
                    "time": 16.320324999999993,
                    "velocity": 0.3937007874015748,
                    "duration": 0.32640650000000093
                },
                {
                    "name": "F5",
                    "midi": 77,
                    "time": 16.973137999999995,
                    "velocity": 0.4251968503937008,
                    "duration": 0.9792194999999992
                },
                {
                    "name": "D5",
                    "midi": 74,
                    "time": 17.952357499999994,
                    "velocity": 0.3700787401574803,
                    "duration": 0.32640650000000093
                },
                {
                    "name": "D#5",
                    "midi": 75,
                    "time": 18.278763999999995,
                    "velocity": 0.3937007874015748,
                    "duration": 0.6528129999999983
                },
                {
                    "name": "C5",
                    "midi": 72,
                    "time": 18.931576999999994,
                    "velocity": 0.3228346456692913,
                    "duration": 0.6528129999999983
                },
                {
                    "name": "B4",
                    "midi": 71,
                    "time": 19.584389999999992,
                    "velocity": 0.3937007874015748,
                    "duration": 0.6528129999999983
                },
                {
                    "name": "D5",
                    "midi": 74,
                    "time": 20.23720299999999,
                    "velocity": 0.3700787401574803,
                    "duration": 0.6528129999999983
                },
                {
                    "name": "E5",
                    "midi": 76,
                    "time": 20.89001599999999,
                    "velocity": 0.3937007874015748,
                    "duration": 0.6528129999999983
                },
                {
                    "name": "C5",
                    "midi": 72,
                    "time": 21.542828999999987,
                    "velocity": 0.3228346456692913,
                    "duration": 0.6528129999999983
                },
                {
                    "name": "B4",
                    "midi": 71,
                    "time": 22.195641999999985,
                    "velocity": 0.3937007874015748,
                    "duration": 0.6528129999999983
                },
                {
                    "name": "D5",
                    "midi": 74,
                    "time": 22.848454999999984,
                    "velocity": 0.3700787401574803,
                    "duration": 0.6528129999999983
                },
                {
                    "name": "D#5",
                    "midi": 75,
                    "time": 23.501267999999982,
                    "velocity": 0.3937007874015748,
                    "duration": 0.6528129999999983
                },
                {
                    "name": "C5",
                    "midi": 72,
                    "time": 24.15408099999998,
                    "velocity": 0.3228346456692913,
                    "duration": 0.6528129999999983
                },
                {
                    "name": "G5",
                    "midi": 79,
                    "time": 24.80689399999998,
                    "velocity": 0.3937007874015748,
                    "duration": 0.6460128645833336
                },
                {
                    "name": "G5",
                    "midi": 79,
                    "time": 25.45970699999998,
                    "velocity": 0.3700787401574803,
                    "duration": 0.6460128645833336
                },
                {
                    "name": "G5",
                    "midi": 79,
                    "time": 26.112519999999982,
                    "velocity": 0.3937007874015748,
                    "duration": 0.6460128645833336
                },
                {
                    "name": "G5",
                    "midi": 79,
                    "time": 26.765332999999984,
                    "velocity": 0.3700787401574803,
                    "duration": 0.6460128645833336
                },
                {
                    "name": "G5",
                    "midi": 79,
                    "time": 27.418145999999986,
                    "velocity": 0.3937007874015748,
                    "duration": 0.6460128645833336
                },
                {
                    "name": "G5",
                    "midi": 79,
                    "time": 28.070958999999988,
                    "velocity": 0.3700787401574803,
                    "duration": 0.6460128645833336
                },
                {
                    "name": "G5",
                    "midi": 79,
                    "time": 28.72377199999999,
                    "velocity": 0.3700787401574803,
                    "duration": 0.6528129999999983
                },
                {
                    "name": "C2",
                    "midi": 36,
                    "time": 39.168779999999984,
                    "velocity": 0.3937007874015748,
                    "duration": 0.16320325000000224
                },
                {
                    "name": "G2",
                    "midi": 43,
                    "time": 39.331983249999986,
                    "velocity": 0.23622047244094488,
                    "duration": 0.16320325000000224
                },
                {
                    "name": "C3",
                    "midi": 48,
                    "time": 39.49518649999999,
                    "velocity": 0.25196850393700787,
                    "duration": 0.16320325000000224
                },
                {
                    "name": "E3",
                    "midi": 52,
                    "time": 39.65838974999999,
                    "velocity": 0.2677165354330709,
                    "duration": 0.16320325000000224
                },
                {
                    "name": "G3",
                    "midi": 55,
                    "time": 39.82159299999999,
                    "velocity": 0.2440944881889764,
                    "duration": 0.16320325000000224
                },
                {
                    "name": "C3",
                    "midi": 48,
                    "time": 39.984796249999995,
                    "velocity": 0.2440944881889764,
                    "duration": 0.16320325000000224
                },
                {
                    "name": "E3",
                    "midi": 52,
                    "time": 40.1479995,
                    "velocity": 0.2440944881889764,
                    "duration": 0.16320325000000224
                },
                {
                    "name": "G3",
                    "midi": 55,
                    "time": 40.31120275,
                    "velocity": 0.2755905511811024,
                    "duration": 0.16320325000000224
                },
                {
                    "name": "C4",
                    "midi": 60,
                    "time": 40.474406,
                    "velocity": 0.23622047244094488,
                    "duration": 0.16320325000000224
                },
                {
                    "name": "E3",
                    "midi": 52,
                    "time": 40.637609250000004,
                    "velocity": 0.2440944881889764,
                    "duration": 0.16320325000000224
                },
                {
                    "name": "G3",
                    "midi": 55,
                    "time": 40.800812500000006,
                    "velocity": 0.25984251968503935,
                    "duration": 0.16320325000000224
                },
                {
                    "name": "C4",
                    "midi": 60,
                    "time": 40.96401575000001,
                    "velocity": 0.28346456692913385,
                    "duration": 0.16320325000000224
                },
                {
                    "name": "E4",
                    "midi": 64,
                    "time": 41.12721900000001,
                    "velocity": 0.25984251968503935,
                    "duration": 0.16320325000000224
                },
                {
                    "name": "G3",
                    "midi": 55,
                    "time": 41.29042225000001,
                    "velocity": 0.25984251968503935,
                    "duration": 0.16320325000000224
                },
                {
                    "name": "C4",
                    "midi": 60,
                    "time": 41.453625500000015,
                    "velocity": 0.25984251968503935,
                    "duration": 0.16320325000000224
                },
                {
                    "name": "E4",
                    "midi": 64,
                    "time": 41.61682875000002,
                    "velocity": 0.28346456692913385,
                    "duration": 0.16320325000000224
                },
                {
                    "name": "F4",
                    "midi": 65,
                    "time": 41.78003200000002,
                    "velocity": 0.2204724409448819,
                    "duration": 0.16320325000000224
                },
                {
                    "name": "E4",
                    "midi": 64,
                    "time": 41.94323525000002,
                    "velocity": 0.2440944881889764,
                    "duration": 0.16320325000000224
                },
                {
                    "name": "D4",
                    "midi": 62,
                    "time": 42.106438500000024,
                    "velocity": 0.25984251968503935,
                    "duration": 0.16320325000000224
                },
                {
                    "name": "C4",
                    "midi": 60,
                    "time": 42.26964175000003,
                    "velocity": 0.28346456692913385,
                    "duration": 0.16320325000000224
                },
                {
                    "name": "B3",
                    "midi": 59,
                    "time": 42.43284500000003,
                    "velocity": 0.25984251968503935,
                    "duration": 0.16320325000000224
                },
                {
                    "name": "A3",
                    "midi": 57,
                    "time": 42.59604825000003,
                    "velocity": 0.25984251968503935,
                    "duration": 0.16320325000000224
                },
                {
                    "name": "G3",
                    "midi": 55,
                    "time": 42.75925150000003,
                    "velocity": 0.2677165354330709,
                    "duration": 0.16320325000000224
                },
                {
                    "name": "F3",
                    "midi": 53,
                    "time": 42.922454750000036,
                    "velocity": 0.2677165354330709,
                    "duration": 0.16320325000000224
                },
                {
                    "name": "E3",
                    "midi": 52,
                    "time": 43.08565800000004,
                    "velocity": 0.2204724409448819,
                    "duration": 0.16320325000000224
                },
                {
                    "name": "G3",
                    "midi": 55,
                    "time": 43.24886125000004,
                    "velocity": 0.23622047244094488,
                    "duration": 0.16320325000000224
                },
                {
                    "name": "C3",
                    "midi": 48,
                    "time": 43.41206450000004,
                    "velocity": 0.25196850393700787,
                    "duration": 0.16320325000000224
                },
                {
                    "name": "E3",
                    "midi": 52,
                    "time": 43.575267750000044,
                    "velocity": 0.2677165354330709,
                    "duration": 0.16320325000000224
                },
                {
                    "name": "G2",
                    "midi": 43,
                    "time": 43.73847100000005,
                    "velocity": 0.25196850393700787,
                    "duration": 0.16320325000000224
                },
                {
                    "name": "C3",
                    "midi": 48,
                    "time": 43.90167425000005,
                    "velocity": 0.25196850393700787,
                    "duration": 0.16320325000000224
                },
                {
                    "name": "E2",
                    "midi": 40,
                    "time": 44.06487750000005,
                    "velocity": 0.25984251968503935,
                    "duration": 0.16320325000000224
                },
                {
                    "name": "G2",
                    "midi": 43,
                    "time": 44.22808075000005,
                    "velocity": 0.2677165354330709,
                    "duration": 0.16320325000000224
                },
                {
                    "name": "C2",
                    "midi": 36,
                    "time": 44.391284000000056,
                    "velocity": 0.3937007874015748,
                    "duration": 0.16320325000000224
                },
                {
                    "name": "G2",
                    "midi": 43,
                    "time": 44.55448725000006,
                    "velocity": 0.23622047244094488,
                    "duration": 0.16320325000000224
                },
                {
                    "name": "C3",
                    "midi": 48,
                    "time": 44.71769050000006,
                    "velocity": 0.25196850393700787,
                    "duration": 0.16320325000000224
                },
                {
                    "name": "E3",
                    "midi": 52,
                    "time": 44.88089375000006,
                    "velocity": 0.2677165354330709,
                    "duration": 0.16320325000000224
                },
                {
                    "name": "G3",
                    "midi": 55,
                    "time": 45.044097000000065,
                    "velocity": 0.2440944881889764,
                    "duration": 0.16320325000000224
                },
                {
                    "name": "C3",
                    "midi": 48,
                    "time": 45.20730025000007,
                    "velocity": 0.2440944881889764,
                    "duration": 0.16320325000000224
                },
                {
                    "name": "E3",
                    "midi": 52,
                    "time": 45.37050350000007,
                    "velocity": 0.2440944881889764,
                    "duration": 0.16320325000000224
                },
                {
                    "name": "G3",
                    "midi": 55,
                    "time": 45.53370675000007,
                    "velocity": 0.2755905511811024,
                    "duration": 0.16320325000000224
                },
                {
                    "name": "C4",
                    "midi": 60,
                    "time": 45.696910000000074,
                    "velocity": 0.23622047244094488,
                    "duration": 0.16320325000000224
                },
                {
                    "name": "E3",
                    "midi": 52,
                    "time": 45.860113250000076,
                    "velocity": 0.2440944881889764,
                    "duration": 0.16320325000000224
                },
                {
                    "name": "G3",
                    "midi": 55,
                    "time": 46.02331650000008,
                    "velocity": 0.25984251968503935,
                    "duration": 0.16320325000000224
                },
                {
                    "name": "C4",
                    "midi": 60,
                    "time": 46.18651975000008,
                    "velocity": 0.28346456692913385,
                    "duration": 0.16320325000000224
                },
                {
                    "name": "E4",
                    "midi": 64,
                    "time": 46.34972300000008,
                    "velocity": 0.25984251968503935,
                    "duration": 0.16320325000000224
                },
                {
                    "name": "G3",
                    "midi": 55,
                    "time": 46.512926250000085,
                    "velocity": 0.25984251968503935,
                    "duration": 0.16320325000000224
                },
                {
                    "name": "C4",
                    "midi": 60,
                    "time": 46.67612950000009,
                    "velocity": 0.25984251968503935,
                    "duration": 0.16320325000000224
                },
                {
                    "name": "E4",
                    "midi": 64,
                    "time": 46.83933275000009,
                    "velocity": 0.25984251968503935,
                    "duration": 0.16320325000000224
                },
                {
                    "name": "F4",
                    "midi": 65,
                    "time": 47.00253600000009,
                    "velocity": 0.2204724409448819,
                    "duration": 0.16320325000000224
                },
                {
                    "name": "E4",
                    "midi": 64,
                    "time": 47.165739250000094,
                    "velocity": 0.2440944881889764,
                    "duration": 0.16320325000000224
                },
                {
                    "name": "D4",
                    "midi": 62,
                    "time": 47.328942500000096,
                    "velocity": 0.25984251968503935,
                    "duration": 0.16320325000000224
                },
                {
                    "name": "C4",
                    "midi": 60,
                    "time": 47.4921457500001,
                    "velocity": 0.28346456692913385,
                    "duration": 0.16320325000000224
                },
                {
                    "name": "B3",
                    "midi": 59,
                    "time": 47.6553490000001,
                    "velocity": 0.25984251968503935,
                    "duration": 0.16320325000000224
                },
                {
                    "name": "G3",
                    "midi": 55,
                    "time": 47.8185522500001,
                    "velocity": 0.25984251968503935,
                    "duration": 0.16320325000000224
                },
                {
                    "name": "A3",
                    "midi": 57,
                    "time": 47.981755500000105,
                    "velocity": 0.2677165354330709,
                    "duration": 0.16320325000000224
                },
                {
                    "name": "B3",
                    "midi": 59,
                    "time": 48.14495875000011,
                    "velocity": 0.2677165354330709,
                    "duration": 0.16320325000000224
                },
                {
                    "name": "C4",
                    "midi": 60,
                    "time": 48.30816200000011,
                    "velocity": 0.2204724409448819,
                    "duration": 0.16320325000000224
                },
                {
                    "name": "B3",
                    "midi": 59,
                    "time": 48.47136525000011,
                    "velocity": 0.23622047244094488,
                    "duration": 0.16320325000000224
                },
                {
                    "name": "A3",
                    "midi": 57,
                    "time": 48.634568500000114,
                    "velocity": 0.25196850393700787,
                    "duration": 0.16320325000000224
                },
                {
                    "name": "G3",
                    "midi": 55,
                    "time": 48.797771750000116,
                    "velocity": 0.2677165354330709,
                    "duration": 0.16320325000000224
                },
                {
                    "name": "F3",
                    "midi": 53,
                    "time": 48.96097500000012,
                    "velocity": 0.25196850393700787,
                    "duration": 0.16320325000000224
                },
                {
                    "name": "E3",
                    "midi": 52,
                    "time": 49.12417825000012,
                    "velocity": 0.25196850393700787,
                    "duration": 0.16320325000000224
                },
                {
                    "name": "D3",
                    "midi": 50,
                    "time": 49.28738150000012,
                    "velocity": 0.25984251968503935,
                    "duration": 0.16320325000000224
                },
                {
                    "name": "C3",
                    "midi": 48,
                    "time": 49.450584750000125,
                    "velocity": 0.2755905511811024,
                    "duration": 0.16320325000000224
                },
                {
                    "name": "G2",
                    "midi": 43,
                    "time": 49.61378800000013,
                    "velocity": 0.3543307086614173,
                    "duration": 0.16320325000000224
                },
                {
                    "name": "B2",
                    "midi": 47,
                    "time": 49.77699125000013,
                    "velocity": 0.23622047244094488,
                    "duration": 0.16320325000000224
                },
                {
                    "name": "D3",
                    "midi": 50,
                    "time": 49.94019450000013,
                    "velocity": 0.25196850393700787,
                    "duration": 0.16320325000000224
                },
                {
                    "name": "G3",
                    "midi": 55,
                    "time": 50.103397750000134,
                    "velocity": 0.2677165354330709,
                    "duration": 0.16320325000000224
                },
                {
                    "name": "B2",
                    "midi": 47,
                    "time": 50.266601000000136,
                    "velocity": 0.2440944881889764,
                    "duration": 0.16320325000000224
                },
                {
                    "name": "D3",
                    "midi": 50,
                    "time": 50.42980425000014,
                    "velocity": 0.2440944881889764,
                    "duration": 0.16320325000000224
                },
                {
                    "name": "G3",
                    "midi": 55,
                    "time": 50.59300750000014,
                    "velocity": 0.2440944881889764,
                    "duration": 0.16320325000000224
                },
                {
                    "name": "B3",
                    "midi": 59,
                    "time": 50.75621075000014,
                    "velocity": 0.2755905511811024,
                    "duration": 0.16320325000000224
                },
                {
                    "name": "D3",
                    "midi": 50,
                    "time": 50.919414000000145,
                    "velocity": 0.23622047244094488,
                    "duration": 0.16320325000000224
                },
                {
                    "name": "G3",
                    "midi": 55,
                    "time": 51.08261725000015,
                    "velocity": 0.2440944881889764,
                    "duration": 0.16320325000000224
                },
                {
                    "name": "B3",
                    "midi": 59,
                    "time": 51.24582050000015,
                    "velocity": 0.25984251968503935,
                    "duration": 0.16320325000000224
                },
                {
                    "name": "D4",
                    "midi": 62,
                    "time": 51.40902375000015,
                    "velocity": 0.28346456692913385,
                    "duration": 0.16320325000000224
                },
                {
                    "name": "G3",
                    "midi": 55,
                    "time": 51.572227000000154,
                    "velocity": 0.25984251968503935,
                    "duration": 0.16320325000000224
                },
                {
                    "name": "B3",
                    "midi": 59,
                    "time": 51.73543025000016,
                    "velocity": 0.25984251968503935,
                    "duration": 0.16320325000000224
                },
                {
                    "name": "D4",
                    "midi": 62,
                    "time": 51.89863350000016,
                    "velocity": 0.25984251968503935,
                    "duration": 0.16320325000000224
                },
                {
                    "name": "G4",
                    "midi": 67,
                    "time": 52.06183675000016,
                    "velocity": 0.28346456692913385,
                    "duration": 0.16320325000000224
                },
                {
                    "name": "G3",
                    "midi": 55,
                    "time": 52.22504000000016,
                    "velocity": 0.2204724409448819,
                    "duration": 0.16320325000000224
                },
                {
                    "name": "C4",
                    "midi": 60,
                    "time": 52.388243250000166,
                    "velocity": 0.2440944881889764,
                    "duration": 0.16320325000000224
                },
                {
                    "name": "G4",
                    "midi": 67,
                    "time": 52.55144650000017,
                    "velocity": 0.25984251968503935,
                    "duration": 0.16320325000000224
                },
                {
                    "name": "C4",
                    "midi": 60,
                    "time": 52.71464975000017,
                    "velocity": 0.28346456692913385,
                    "duration": 0.16320325000000224
                },
                {
                    "name": "G3",
                    "midi": 55,
                    "time": 52.87785300000017,
                    "velocity": 0.2204724409448819,
                    "duration": 0.16320325000000224
                },
                {
                    "name": "E4",
                    "midi": 64,
                    "time": 53.041056250000175,
                    "velocity": 0.2440944881889764,
                    "duration": 0.16320325000000224
                },
                {
                    "name": "G4",
                    "midi": 67,
                    "time": 53.20425950000018,
                    "velocity": 0.25984251968503935,
                    "duration": 0.16320325000000224
                },
                {
                    "name": "E4",
                    "midi": 64,
                    "time": 53.36746275000018,
                    "velocity": 0.28346456692913385,
                    "duration": 0.16320325000000224
                },
                {
                    "name": "G3",
                    "midi": 55,
                    "time": 53.53066600000018,
                    "velocity": 0.2204724409448819,
                    "duration": 0.16320325000000224
                },
                {
                    "name": "D4",
                    "midi": 62,
                    "time": 53.69386925000018,
                    "velocity": 0.23622047244094488,
                    "duration": 0.16320325000000224
                },
                {
                    "name": "G4",
                    "midi": 67,
                    "time": 53.857072500000186,
                    "velocity": 0.25196850393700787,
                    "duration": 0.16320325000000224
                },
                {
                    "name": "D4",
                    "midi": 62,
                    "time": 54.02027575000019,
                    "velocity": 0.28346456692913385,
                    "duration": 0.16320325000000224
                },
                {
                    "name": "G3",
                    "midi": 55,
                    "time": 54.18347900000019,
                    "velocity": 0.2204724409448819,
                    "duration": 0.16320325000000224
                },
                {
                    "name": "B3",
                    "midi": 59,
                    "time": 54.34668225000019,
                    "velocity": 0.23622047244094488,
                    "duration": 0.16320325000000224
                },
                {
                    "name": "G4",
                    "midi": 67,
                    "time": 54.509885500000195,
                    "velocity": 0.25196850393700787,
                    "duration": 0.16320325000000224
                },
                {
                    "name": "B3",
                    "midi": 59,
                    "time": 54.6730887500002,
                    "velocity": 0.2755905511811024,
                    "duration": 0.16320325000000224
                },
                {
                    "name": "G2",
                    "midi": 43,
                    "time": 54.8362920000002,
                    "velocity": 0.3779527559055118,
                    "duration": 0.16320325000000224
                },
                {
                    "name": "B2",
                    "midi": 47,
                    "time": 54.9994952500002,
                    "velocity": 0.23622047244094488,
                    "duration": 0.16320325000000224
                },
                {
                    "name": "D3",
                    "midi": 50,
                    "time": 55.162698500000204,
                    "velocity": 0.25196850393700787,
                    "duration": 0.16320325000000224
                },
                {
                    "name": "G3",
                    "midi": 55,
                    "time": 55.325901750000206,
                    "velocity": 0.2677165354330709,
                    "duration": 0.16320325000000224
                },
                {
                    "name": "B2",
                    "midi": 47,
                    "time": 55.48910500000021,
                    "velocity": 0.2440944881889764,
                    "duration": 0.16320325000000224
                },
                {
                    "name": "D3",
                    "midi": 50,
                    "time": 55.65230825000021,
                    "velocity": 0.2440944881889764,
                    "duration": 0.16320325000000224
                },
                {
                    "name": "G3",
                    "midi": 55,
                    "time": 55.81551150000021,
                    "velocity": 0.2440944881889764,
                    "duration": 0.16320325000000224
                },
                {
                    "name": "B3",
                    "midi": 59,
                    "time": 55.978714750000215,
                    "velocity": 0.2755905511811024,
                    "duration": 0.16320325000000224
                },
                {
                    "name": "D3",
                    "midi": 50,
                    "time": 56.14191800000022,
                    "velocity": 0.23622047244094488,
                    "duration": 0.16320325000000224
                },
                {
                    "name": "G3",
                    "midi": 55,
                    "time": 56.30512125000022,
                    "velocity": 0.2440944881889764,
                    "duration": 0.16320325000000224
                },
                {
                    "name": "B3",
                    "midi": 59,
                    "time": 56.46832450000022,
                    "velocity": 0.25984251968503935,
                    "duration": 0.16320325000000224
                },
                {
                    "name": "D4",
                    "midi": 62,
                    "time": 56.631527750000224,
                    "velocity": 0.28346456692913385,
                    "duration": 0.16320325000000224
                },
                {
                    "name": "G3",
                    "midi": 55,
                    "time": 56.794731000000226,
                    "velocity": 0.25984251968503935,
                    "duration": 0.16320325000000224
                },
                {
                    "name": "B3",
                    "midi": 59,
                    "time": 56.95793425000023,
                    "velocity": 0.25984251968503935,
                    "duration": 0.16320325000000224
                },
                {
                    "name": "D4",
                    "midi": 62,
                    "time": 57.12113750000023,
                    "velocity": 0.25984251968503935,
                    "duration": 0.16320325000000224
                },
                {
                    "name": "G4",
                    "midi": 67,
                    "time": 57.28434075000023,
                    "velocity": 0.28346456692913385,
                    "duration": 0.16320325000000224
                },
                {
                    "name": "G3",
                    "midi": 55,
                    "time": 57.447544000000235,
                    "velocity": 0.2204724409448819,
                    "duration": 0.16320325000000224
                },
                {
                    "name": "C4",
                    "midi": 60,
                    "time": 57.61074725000024,
                    "velocity": 0.2440944881889764,
                    "duration": 0.16320325000000224
                },
                {
                    "name": "G4",
                    "midi": 67,
                    "time": 57.77395050000024,
                    "velocity": 0.25984251968503935,
                    "duration": 0.16320325000000224
                },
                {
                    "name": "C4",
                    "midi": 60,
                    "time": 57.93715375000024,
                    "velocity": 0.2755905511811024,
                    "duration": 0.16320325000000224
                },
                {
                    "name": "G3",
                    "midi": 55,
                    "time": 58.100357000000244,
                    "velocity": 0.2204724409448819,
                    "duration": 0.16320325000000224
                },
                {
                    "name": "D#4",
                    "midi": 63,
                    "time": 58.263560250000246,
                    "velocity": 0.2440944881889764,
                    "duration": 0.16320325000000224
                },
                {
                    "name": "G4",
                    "midi": 67,
                    "time": 58.42676350000025,
                    "velocity": 0.25984251968503935,
                    "duration": 0.16320325000000224
                },
                {
                    "name": "D#4",
                    "midi": 63,
                    "time": 58.58996675000025,
                    "velocity": 0.2755905511811024,
                    "duration": 0.16320325000000224
                },
                {
                    "name": "G3",
                    "midi": 55,
                    "time": 58.75317000000025,
                    "velocity": 0.2204724409448819,
                    "duration": 0.16320325000000224
                },
                {
                    "name": "D4",
                    "midi": 62,
                    "time": 58.916373250000255,
                    "velocity": 0.23622047244094488,
                    "duration": 0.16320325000000224
                },
                {
                    "name": "G4",
                    "midi": 67,
                    "time": 59.07957650000026,
                    "velocity": 0.25196850393700787,
                    "duration": 0.16320325000000224
                },
                {
                    "name": "D4",
                    "midi": 62,
                    "time": 59.24277975000026,
                    "velocity": 0.2755905511811024,
                    "duration": 0.16320325000000224
                },
                {
                    "name": "G3",
                    "midi": 55,
                    "time": 59.40598300000026,
                    "velocity": 0.2204724409448819,
                    "duration": 0.16320325000000224
                },
                {
                    "name": "B3",
                    "midi": 59,
                    "time": 59.569186250000264,
                    "velocity": 0.23622047244094488,
                    "duration": 0.16320325000000224
                },
                {
                    "name": "G4",
                    "midi": 67,
                    "time": 59.73238950000027,
                    "velocity": 0.25196850393700787,
                    "duration": 0.16320325000000224
                },
                {
                    "name": "B3",
                    "midi": 59,
                    "time": 59.89559275000027,
                    "velocity": 0.2755905511811024,
                    "duration": 0.16320325000000224
                },
                {
                    "name": "G3",
                    "midi": 55,
                    "time": 60.05879600000027,
                    "velocity": 0.2204724409448819,
                    "duration": 0.16320325000000224
                },
                {
                    "name": "C4",
                    "midi": 60,
                    "time": 60.22199925000027,
                    "velocity": 0.2440944881889764,
                    "duration": 0.16320325000000224
                },
                {
                    "name": "G4",
                    "midi": 67,
                    "time": 60.385202500000275,
                    "velocity": 0.25984251968503935,
                    "duration": 0.16320325000000224
                },
                {
                    "name": "C4",
                    "midi": 60,
                    "time": 60.54840575000028,
                    "velocity": 0.2755905511811024,
                    "duration": 0.16320325000000224
                },
                {
                    "name": "G3",
                    "midi": 55,
                    "time": 60.71160900000028,
                    "velocity": 0.2204724409448819,
                    "duration": 0.16320325000000224
                },
                {
                    "name": "E4",
                    "midi": 64,
                    "time": 60.87481225000028,
                    "velocity": 0.25196850393700787,
                    "duration": 0.16320325000000224
                },
                {
                    "name": "G4",
                    "midi": 67,
                    "time": 61.038015500000284,
                    "velocity": 0.2677165354330709,
                    "duration": 0.16320325000000224
                },
                {
                    "name": "E4",
                    "midi": 64,
                    "time": 61.20121875000029,
                    "velocity": 0.29133858267716534,
                    "duration": 0.16320325000000224
                },
                {
                    "name": "G3",
                    "midi": 55,
                    "time": 61.36442200000029,
                    "velocity": 0.2283464566929134,
                    "duration": 0.16320325000000224
                },
                {
                    "name": "D4",
                    "midi": 62,
                    "time": 61.52762525000029,
                    "velocity": 0.25196850393700787,
                    "duration": 0.16320325000000224
                },
                {
                    "name": "G4",
                    "midi": 67,
                    "time": 61.69082850000029,
                    "velocity": 0.2677165354330709,
                    "duration": 0.16320325000000224
                },
                {
                    "name": "D4",
                    "midi": 62,
                    "time": 61.854031750000296,
                    "velocity": 0.2992125984251969,
                    "duration": 0.16320325000000224
                },
                {
                    "name": "G3",
                    "midi": 55,
                    "time": 62.0172350000003,
                    "velocity": 0.2440944881889764,
                    "duration": 0.16320325000000224
                },
                {
                    "name": "B3",
                    "midi": 59,
                    "time": 62.1804382500003,
                    "velocity": 0.25984251968503935,
                    "duration": 0.16320325000000224
                },
                {
                    "name": "G4",
                    "midi": 67,
                    "time": 62.3436415000003,
                    "velocity": 0.28346456692913385,
                    "duration": 0.16320325000000224
                },
                {
                    "name": "B3",
                    "midi": 59,
                    "time": 62.506844750000305,
                    "velocity": 0.30708661417322836,
                    "duration": 0.16320325000000224
                },
                {
                    "name": "G3",
                    "midi": 55,
                    "time": 62.67004800000031,
                    "velocity": 0.2204724409448819,
                    "duration": 0.16320325000000224
                },
                {
                    "name": "C4",
                    "midi": 60,
                    "time": 62.83325125000031,
                    "velocity": 0.2440944881889764,
                    "duration": 0.16320325000000224
                },
                {
                    "name": "G4",
                    "midi": 67,
                    "time": 62.99645450000031,
                    "velocity": 0.25984251968503935,
                    "duration": 0.16320325000000224
                },
                {
                    "name": "C4",
                    "midi": 60,
                    "time": 63.159657750000314,
                    "velocity": 0.2755905511811024,
                    "duration": 0.16320325000000224
                },
                {
                    "name": "G3",
                    "midi": 55,
                    "time": 63.322861000000316,
                    "velocity": 0.2204724409448819,
                    "duration": 0.16320325000000224
                },
                {
                    "name": "C4",
                    "midi": 60,
                    "time": 63.48606425000032,
                    "velocity": 0.2440944881889764,
                    "duration": 0.16320325000000224
                },
                {
                    "name": "D#4",
                    "midi": 63,
                    "time": 63.64926750000032,
                    "velocity": 0.25984251968503935,
                    "duration": 0.16320325000000224
                },
                {
                    "name": "C4",
                    "midi": 60,
                    "time": 63.81247075000032,
                    "velocity": 0.2755905511811024,
                    "duration": 0.16320325000000224
                },
                {
                    "name": "G3",
                    "midi": 55,
                    "time": 63.975674000000325,
                    "velocity": 0.2204724409448819,
                    "duration": 0.16320324999999514
                },
                {
                    "name": "B3",
                    "midi": 59,
                    "time": 64.13887725000032,
                    "velocity": 0.23622047244094488,
                    "duration": 0.16320324999999514
                },
                {
                    "name": "D4",
                    "midi": 62,
                    "time": 64.30208050000032,
                    "velocity": 0.25196850393700787,
                    "duration": 0.16320324999999514
                },
                {
                    "name": "B3",
                    "midi": 59,
                    "time": 64.46528375000031,
                    "velocity": 0.2755905511811024,
                    "duration": 0.16320324999999514
                },
                {
                    "name": "G3",
                    "midi": 55,
                    "time": 64.6284870000003,
                    "velocity": 0.2204724409448819,
                    "duration": 0.16320324999999514
                },
                {
                    "name": "C4",
                    "midi": 60,
                    "time": 64.7916902500003,
                    "velocity": 0.23622047244094488,
                    "duration": 0.16320324999999514
                },
                {
                    "name": "D#4",
                    "midi": 63,
                    "time": 64.9548935000003,
                    "velocity": 0.25196850393700787,
                    "duration": 0.16320324999999514
                },
                {
                    "name": "C4",
                    "midi": 60,
                    "time": 65.11809675000029,
                    "velocity": 0.2755905511811024,
                    "duration": 0.16320324999999514
                },
                {
                    "name": "G3",
                    "midi": 55,
                    "time": 65.28130000000029,
                    "velocity": 0.33070866141732286,
                    "duration": 0.08160162500000467
                },
                {
                    "name": "B3",
                    "midi": 59,
                    "time": 65.4445032500003,
                    "velocity": 0.2125984251968504,
                    "duration": 0.16320324999999514
                },
                {
                    "name": "D4",
                    "midi": 62,
                    "time": 65.60770650000029,
                    "velocity": 0.2125984251968504,
                    "duration": 0.16320324999999514
                },
                {
                    "name": "B3",
                    "midi": 59,
                    "time": 65.77090975000029,
                    "velocity": 0.2204724409448819,
                    "duration": 0.16320324999999514
                },
                {
                    "name": "G3",
                    "midi": 55,
                    "time": 65.93411300000028,
                    "velocity": 0.3779527559055118,
                    "duration": 0.08160162500000467
                },
                {
                    "name": "C4",
                    "midi": 60,
                    "time": 66.09731625000029,
                    "velocity": 0.2283464566929134,
                    "duration": 0.16320324999999514
                },
                {
                    "name": "E4",
                    "midi": 64,
                    "time": 66.26051950000029,
                    "velocity": 0.23622047244094488,
                    "duration": 0.16320324999999514
                },
                {
                    "name": "C4",
                    "midi": 60,
                    "time": 66.42372275000028,
                    "velocity": 0.2440944881889764,
                    "duration": 0.16320324999999514
                },
                {
                    "name": "G3",
                    "midi": 55,
                    "time": 66.58692600000028,
                    "velocity": 0.4015748031496063,
                    "duration": 0.08160162500000467
                },
                {
                    "name": "B3",
                    "midi": 59,
                    "time": 66.75012925000028,
                    "velocity": 0.25196850393700787,
                    "duration": 0.16320324999999514
                },
                {
                    "name": "D4",
                    "midi": 62,
                    "time": 66.91333250000028,
                    "velocity": 0.2677165354330709,
                    "duration": 0.16320324999999514
                },
                {
                    "name": "B3",
                    "midi": 59,
                    "time": 67.07653575000028,
                    "velocity": 0.2677165354330709,
                    "duration": 0.16320324999999514
                },
                {
                    "name": "G3",
                    "midi": 55,
                    "time": 67.23973900000027,
                    "velocity": 0.4566929133858268,
                    "duration": 0.08160162500000467
                },
                {
                    "name": "A3",
                    "midi": 57,
                    "time": 67.40294225000028,
                    "velocity": 0.2755905511811024,
                    "duration": 0.16320324999999514
                },
                {
                    "name": "C4",
                    "midi": 60,
                    "time": 67.56614550000027,
                    "velocity": 0.29133858267716534,
                    "duration": 0.16320324999999514
                },
                {
                    "name": "A3",
                    "midi": 57,
                    "time": 67.72934875000027,
                    "velocity": 0.30708661417322836,
                    "duration": 0.16320324999999514
                },
                {
                    "name": "G3",
                    "midi": 55,
                    "time": 67.89255200000026,
                    "velocity": 0.5039370078740157,
                    "duration": 0.08160162500000467
                },
                {
                    "name": "B3",
                    "midi": 59,
                    "time": 68.05575525000027,
                    "velocity": 0.33070866141732286,
                    "duration": 0.16320324999999514
                },
                {
                    "name": "A3",
                    "midi": 57,
                    "time": 68.21895850000027,
                    "velocity": 0.3464566929133858,
                    "duration": 0.16320324999999514
                },
                {
                    "name": "G3",
                    "midi": 55,
                    "time": 68.38216175000026,
                    "velocity": 0.3543307086614173,
                    "duration": 0.16320324999999514
                },
                {
                    "name": "F3",
                    "midi": 53,
                    "time": 68.54536500000026,
                    "velocity": 0.5433070866141733,
                    "duration": 0.08160162500000467
                },
                {
                    "name": "A3",
                    "midi": 57,
                    "time": 68.70856825000027,
                    "velocity": 0.3937007874015748,
                    "duration": 0.16320324999999514
                },
                {
                    "name": "G3",
                    "midi": 55,
                    "time": 68.87177150000026,
                    "velocity": 0.41732283464566927,
                    "duration": 0.16320324999999514
                },
                {
                    "name": "F3",
                    "midi": 53,
                    "time": 69.03497475000026,
                    "velocity": 0.4409448818897638,
                    "duration": 0.16320324999999514
                },
                {
                    "name": "E3",
                    "midi": 52,
                    "time": 69.19817800000025,
                    "velocity": 0.6062992125984252,
                    "duration": 0.08160162500000467
                },
                {
                    "name": "G3",
                    "midi": 55,
                    "time": 69.36138125000026,
                    "velocity": 0.47244094488188976,
                    "duration": 0.16320324999999514
                },
                {
                    "name": "F3",
                    "midi": 53,
                    "time": 69.52458450000026,
                    "velocity": 0.4881889763779528,
                    "duration": 0.16320324999999514
                },
                {
                    "name": "E3",
                    "midi": 52,
                    "time": 69.68778775000025,
                    "velocity": 0.5039370078740157,
                    "duration": 0.16320324999999514
                },
                {
                    "name": "D3",
                    "midi": 50,
                    "time": 69.85099100000025,
                    "velocity": 0.6456692913385826,
                    "duration": 0.08160162500000467
                },
                {
                    "name": "F3",
                    "midi": 53,
                    "time": 70.01419425000026,
                    "velocity": 0.5039370078740157,
                    "duration": 0.16320324999999514
                },
                {
                    "name": "E3",
                    "midi": 52,
                    "time": 70.17739750000025,
                    "velocity": 0.5275590551181102,
                    "duration": 0.16320324999999514
                },
                {
                    "name": "D3",
                    "midi": 50,
                    "time": 70.34060075000025,
                    "velocity": 0.5590551181102362,
                    "duration": 0.16320324999999514
                },
                {
                    "name": "C2",
                    "midi": 36,
                    "time": 70.50380400000024,
                    "velocity": 0.7401574803149606,
                    "duration": 0.3264065000000045
                },
                {
                    "name": "C3",
                    "midi": 48,
                    "time": 70.50380400000024,
                    "velocity": 0.7401574803149606,
                    "duration": 0.3264065000000045
                },
                {
                    "name": "D3",
                    "midi": 50,
                    "time": 70.66700725000024,
                    "velocity": 0.4409448818897638,
                    "duration": 0.08160162500000467
                },
                {
                    "name": "E3",
                    "midi": 52,
                    "time": 70.74860887500024,
                    "velocity": 0.44881889763779526,
                    "duration": 0.08160162500000467
                },
                {
                    "name": "F3",
                    "midi": 53,
                    "time": 70.83021050000025,
                    "velocity": 0.47244094488188976,
                    "duration": 0.08160162500000467
                },
                {
                    "name": "G3",
                    "midi": 55,
                    "time": 70.91181212500025,
                    "velocity": 0.47244094488188976,
                    "duration": 0.08160162500000467
                },
                {
                    "name": "A3",
                    "midi": 57,
                    "time": 70.99341375000026,
                    "velocity": 0.4881889763779528,
                    "duration": 0.08160162500000467
                },
                {
                    "name": "B3",
                    "midi": 59,
                    "time": 71.07501537500026,
                    "velocity": 0.49606299212598426,
                    "duration": 0.08160162500000467
                },
                {
                    "name": "C4",
                    "midi": 60,
                    "time": 71.15661700000027,
                    "velocity": 0.49606299212598426,
                    "duration": 0.16320324999999514
                },
                {
                    "name": "D4",
                    "midi": 62,
                    "time": 71.31982025000026,
                    "velocity": 0.5118110236220472,
                    "duration": 0.08160162500000467
                },
                {
                    "name": "E4",
                    "midi": 64,
                    "time": 71.40142187500027,
                    "velocity": 0.5196850393700787,
                    "duration": 0.08160162500000467
                },
                {
                    "name": "F4",
                    "midi": 65,
                    "time": 71.48302350000027,
                    "velocity": 0.5275590551181102,
                    "duration": 0.08160162500000467
                },
                {
                    "name": "G4",
                    "midi": 67,
                    "time": 71.56462512500028,
                    "velocity": 0.5433070866141733,
                    "duration": 0.08160162500000467
                },
                {
                    "name": "A4",
                    "midi": 69,
                    "time": 71.64622675000028,
                    "velocity": 0.5511811023622047,
                    "duration": 0.08160162500000467
                },
                {
                    "name": "B4",
                    "midi": 71,
                    "time": 71.72782837500029,
                    "velocity": 0.5590551181102362,
                    "duration": 0.08160162500000467
                },
                {
                    "name": "C5",
                    "midi": 72,
                    "time": 71.80943000000029,
                    "velocity": 0.5826771653543307,
                    "duration": 0.08160162500000467
                },
                {
                    "name": "B4",
                    "midi": 71,
                    "time": 71.9726332500003,
                    "velocity": 0.5590551181102362,
                    "duration": 0.08160162500000467
                },
                {
                    "name": "A4",
                    "midi": 69,
                    "time": 72.13583650000031,
                    "velocity": 0.5590551181102362,
                    "duration": 0.08160162500000467
                },
                {
                    "name": "G4",
                    "midi": 67,
                    "time": 72.29903975000032,
                    "velocity": 0.5590551181102362,
                    "duration": 0.08160162500000467
                },
                {
                    "name": "F4",
                    "midi": 65,
                    "time": 72.46224300000033,
                    "velocity": 0.5669291338582677,
                    "duration": 0.08160162500000467
                },
                {
                    "name": "E4",
                    "midi": 64,
                    "time": 72.62544625000034,
                    "velocity": 0.5433070866141733,
                    "duration": 0.08160162500000467
                },
                {
                    "name": "D4",
                    "midi": 62,
                    "time": 72.78864950000035,
                    "velocity": 0.5433070866141733,
                    "duration": 0.08160162500000467
                },
                {
                    "name": "C4",
                    "midi": 60,
                    "time": 72.95185275000036,
                    "velocity": 0.5275590551181102,
                    "duration": 0.08160162500000467
                },
                {
                    "name": "B3",
                    "midi": 59,
                    "time": 73.11505600000037,
                    "velocity": 0.5748031496062992,
                    "duration": 0.08160162500000467
                },
                {
                    "name": "C4",
                    "midi": 60,
                    "time": 73.27825925000037,
                    "velocity": 0.5433070866141733,
                    "duration": 0.08160162500000467
                },
                {
                    "name": "B3",
                    "midi": 59,
                    "time": 73.44146250000038,
                    "velocity": 0.5433070866141733,
                    "duration": 0.08160162500000467
                },
                {
                    "name": "A3",
                    "midi": 57,
                    "time": 73.6046657500004,
                    "velocity": 0.5433070866141733,
                    "duration": 0.08160162500000467
                },
                {
                    "name": "G3",
                    "midi": 55,
                    "time": 73.7678690000004,
                    "velocity": 0.5905511811023622,
                    "duration": 0.08160162500000467
                },
                {
                    "name": "F3",
                    "midi": 53,
                    "time": 73.93107225000041,
                    "velocity": 0.5433070866141733,
                    "duration": 0.08160162500000467
                },
                {
                    "name": "E3",
                    "midi": 52,
                    "time": 74.09427550000042,
                    "velocity": 0.5433070866141733,
                    "duration": 0.08160162500000467
                },
                {
                    "name": "D3",
                    "midi": 50,
                    "time": 74.25747875000043,
                    "velocity": 0.5433070866141733,
                    "duration": 0.08160162500000467
                },
                {
                    "name": "C3",
                    "midi": 48,
                    "time": 74.42068200000044,
                    "velocity": 0.5905511811023622,
                    "duration": 0.08160162500000467
                },
                {
                    "name": "C3",
                    "midi": 48,
                    "time": 74.58388525000045,
                    "velocity": 0.5433070866141733,
                    "duration": 0.08160162500000467
                },
                {
                    "name": "B2",
                    "midi": 47,
                    "time": 74.74708850000046,
                    "velocity": 0.5433070866141733,
                    "duration": 0.08160162500000467
                },
                {
                    "name": "A2",
                    "midi": 45,
                    "time": 74.91029175000047,
                    "velocity": 0.5433070866141733,
                    "duration": 0.08160162500000467
                },
                {
                    "name": "G2",
                    "midi": 43,
                    "time": 75.07349500000048,
                    "velocity": 0.5669291338582677,
                    "duration": 0.08160162500000467
                },
                {
                    "name": "F2",
                    "midi": 41,
                    "time": 75.23669825000049,
                    "velocity": 0.5590551181102362,
                    "duration": 0.08160162500000467
                },
                {
                    "name": "E2",
                    "midi": 40,
                    "time": 75.3999015000005,
                    "velocity": 0.5905511811023622,
                    "duration": 0.08160162500000467
                },
                {
                    "name": "D2",
                    "midi": 38,
                    "time": 75.5631047500005,
                    "velocity": 0.6299212598425197,
                    "duration": 0.08160162500000467
                },
                {
                    "name": "C2",
                    "midi": 36,
                    "time": 75.72630800000051,
                    "velocity": 0.7480314960629921,
                    "duration": 0.3264065000000045
                },
                {
                    "name": "C3",
                    "midi": 48,
                    "time": 75.72630800000051,
                    "velocity": 0.7480314960629921,
                    "duration": 0.3264065000000045
                },
                {
                    "name": "D3",
                    "midi": 50,
                    "time": 75.88951125000051,
                    "velocity": 0.4409448818897638,
                    "duration": 0.08160162500000467
                },
                {
                    "name": "E3",
                    "midi": 52,
                    "time": 75.97111287500051,
                    "velocity": 0.44881889763779526,
                    "duration": 0.08160162500000467
                },
                {
                    "name": "F3",
                    "midi": 53,
                    "time": 76.05271450000052,
                    "velocity": 0.47244094488188976,
                    "duration": 0.08160162500000467
                },
                {
                    "name": "G3",
                    "midi": 55,
                    "time": 76.13431612500052,
                    "velocity": 0.47244094488188976,
                    "duration": 0.08160162500000467
                },
                {
                    "name": "A3",
                    "midi": 57,
                    "time": 76.21591775000053,
                    "velocity": 0.4881889763779528,
                    "duration": 0.08160162500000467
                },
                {
                    "name": "B3",
                    "midi": 59,
                    "time": 76.29751937500053,
                    "velocity": 0.49606299212598426,
                    "duration": 0.08160162500000467
                },
                {
                    "name": "C4",
                    "midi": 60,
                    "time": 76.37912100000054,
                    "velocity": 0.49606299212598426,
                    "duration": 0.16320324999999514
                },
                {
                    "name": "D4",
                    "midi": 62,
                    "time": 76.54232425000053,
                    "velocity": 0.5118110236220472,
                    "duration": 0.08160162500000467
                },
                {
                    "name": "E4",
                    "midi": 64,
                    "time": 76.62392587500054,
                    "velocity": 0.5196850393700787,
                    "duration": 0.08160162500000467
                },
                {
                    "name": "F4",
                    "midi": 65,
                    "time": 76.70552750000054,
                    "velocity": 0.5275590551181102,
                    "duration": 0.08160162500000467
                },
                {
                    "name": "G4",
                    "midi": 67,
                    "time": 76.78712912500055,
                    "velocity": 0.5433070866141733,
                    "duration": 0.08160162500000467
                },
                {
                    "name": "A4",
                    "midi": 69,
                    "time": 76.86873075000055,
                    "velocity": 0.5511811023622047,
                    "duration": 0.08160162500000467
                },
                {
                    "name": "B4",
                    "midi": 71,
                    "time": 76.95033237500056,
                    "velocity": 0.5590551181102362,
                    "duration": 0.08160162500000467
                },
                {
                    "name": "C5",
                    "midi": 72,
                    "time": 77.03193400000056,
                    "velocity": 0.5826771653543307,
                    "duration": 0.08160162500000467
                },
                {
                    "name": "B4",
                    "midi": 71,
                    "time": 77.19513725000057,
                    "velocity": 0.5590551181102362,
                    "duration": 0.08160162500000467
                },
                {
                    "name": "A4",
                    "midi": 69,
                    "time": 77.35834050000058,
                    "velocity": 0.5590551181102362,
                    "duration": 0.08160162500000467
                },
                {
                    "name": "G4",
                    "midi": 67,
                    "time": 77.52154375000059,
                    "velocity": 0.5590551181102362,
                    "duration": 0.08160162500000467
                },
                {
                    "name": "F4",
                    "midi": 65,
                    "time": 77.6847470000006,
                    "velocity": 0.5669291338582677,
                    "duration": 0.08160162500000467
                },
                {
                    "name": "E4",
                    "midi": 64,
                    "time": 77.84795025000061,
                    "velocity": 0.5433070866141733,
                    "duration": 0.08160162500000467
                },
                {
                    "name": "D4",
                    "midi": 62,
                    "time": 78.01115350000062,
                    "velocity": 0.5433070866141733,
                    "duration": 0.08160162500000467
                },
                {
                    "name": "C4",
                    "midi": 60,
                    "time": 78.17435675000063,
                    "velocity": 0.5275590551181102,
                    "duration": 0.08160162500000467
                },
                {
                    "name": "B3",
                    "midi": 59,
                    "time": 78.33756000000064,
                    "velocity": 0.5748031496062992,
                    "duration": 0.08160162500000467
                },
                {
                    "name": "C4",
                    "midi": 60,
                    "time": 78.50076325000065,
                    "velocity": 0.5433070866141733,
                    "duration": 0.08160162500000467
                },
                {
                    "name": "B3",
                    "midi": 59,
                    "time": 78.66396650000065,
                    "velocity": 0.5433070866141733,
                    "duration": 0.08160162500000467
                },
                {
                    "name": "A3",
                    "midi": 57,
                    "time": 78.82716975000066,
                    "velocity": 0.5433070866141733,
                    "duration": 0.08160162500000467
                },
                {
                    "name": "G3",
                    "midi": 55,
                    "time": 78.99037300000067,
                    "velocity": 0.5905511811023622,
                    "duration": 0.08160162500000467
                },
                {
                    "name": "F3",
                    "midi": 53,
                    "time": 79.15357625000068,
                    "velocity": 0.5433070866141733,
                    "duration": 0.08160162500000467
                },
                {
                    "name": "E3",
                    "midi": 52,
                    "time": 79.31677950000069,
                    "velocity": 0.5433070866141733,
                    "duration": 0.08160162500000467
                },
                {
                    "name": "D3",
                    "midi": 50,
                    "time": 79.4799827500007,
                    "velocity": 0.5433070866141733,
                    "duration": 0.08160162500000467
                },
                {
                    "name": "C3",
                    "midi": 48,
                    "time": 79.64318600000071,
                    "velocity": 0.5905511811023622,
                    "duration": 0.3264065000000045
                },
                {
                    "name": "C2",
                    "midi": 36,
                    "time": 79.96959250000072,
                    "velocity": 0.5905511811023622,
                    "duration": 0.3264065000000045
                },
                {
                    "name": "C2",
                    "midi": 36,
                    "time": 80.62240550000072,
                    "velocity": 0.47244094488188976,
                    "duration": 0.3264065000000045
                },
                {
                    "name": "C3",
                    "midi": 48,
                    "time": 80.62240550000072,
                    "velocity": 0.5590551181102362,
                    "duration": 0.3264065000000045
                },
                {
                    "name": "C2",
                    "midi": 36,
                    "time": 81.27521850000073,
                    "velocity": 0.47244094488188976,
                    "duration": 0.3264065000000045
                },
                {
                    "name": "C3",
                    "midi": 48,
                    "time": 81.27521850000073,
                    "velocity": 0.5590551181102362,
                    "duration": 0.3264065000000045
                },
                {
                    "name": "C2",
                    "midi": 36,
                    "time": 81.92803150000074,
                    "velocity": 0.44881889763779526,
                    "duration": 0.3264065000000045
                },
                {
                    "name": "C3",
                    "midi": 48,
                    "time": 81.92803150000074,
                    "velocity": 0.5354330708661418,
                    "duration": 0.3264065000000045
                },
                {
                    "name": "C2",
                    "midi": 36,
                    "time": 82.58084450000075,
                    "velocity": 0.41732283464566927,
                    "duration": 0.3264065000000045
                },
                {
                    "name": "C3",
                    "midi": 48,
                    "time": 82.58084450000075,
                    "velocity": 0.49606299212598426,
                    "duration": 0.3264065000000045
                },
                {
                    "name": "C2",
                    "midi": 36,
                    "time": 83.23365750000076,
                    "velocity": 0.4645669291338583,
                    "duration": 0.3264065000000045
                },
                {
                    "name": "C3",
                    "midi": 48,
                    "time": 83.23365750000076,
                    "velocity": 0.5511811023622047,
                    "duration": 0.3264065000000045
                },
                {
                    "name": "C2",
                    "midi": 36,
                    "time": 83.88647050000077,
                    "velocity": 0.47244094488188976,
                    "duration": 0.3264065000000045
                },
                {
                    "name": "C3",
                    "midi": 48,
                    "time": 83.88647050000077,
                    "velocity": 0.5590551181102362,
                    "duration": 0.3264065000000045
                },
                {
                    "name": "C2",
                    "midi": 36,
                    "time": 84.53928350000078,
                    "velocity": 0.47244094488188976,
                    "duration": 0.3264065000000045
                },
                {
                    "name": "C3",
                    "midi": 48,
                    "time": 84.53928350000078,
                    "velocity": 0.5590551181102362,
                    "duration": 0.3264065000000045
                },
                {
                    "name": "C2",
                    "midi": 36,
                    "time": 85.19209650000079,
                    "velocity": 0.5590551181102362,
                    "duration": 0.3264065000000045
                },
                {
                    "name": "C3",
                    "midi": 48,
                    "time": 85.8449095000008,
                    "velocity": 0.47244094488188976,
                    "duration": 0.3264065000000045
                },
                {
                    "name": "E2",
                    "midi": 40,
                    "time": 85.8449095000008,
                    "velocity": 0.47244094488188976,
                    "duration": 0.3264065000000045
                },
                {
                    "name": "E3",
                    "midi": 52,
                    "time": 85.8449095000008,
                    "velocity": 0.5590551181102362,
                    "duration": 0.3264065000000045
                },
                {
                    "name": "C3",
                    "midi": 48,
                    "time": 86.4977225000008,
                    "velocity": 0.47244094488188976,
                    "duration": 0.3264065000000045
                },
                {
                    "name": "F2",
                    "midi": 41,
                    "time": 86.4977225000008,
                    "velocity": 0.47244094488188976,
                    "duration": 0.3264065000000045
                },
                {
                    "name": "F3",
                    "midi": 53,
                    "time": 86.4977225000008,
                    "velocity": 0.5590551181102362,
                    "duration": 0.3264065000000045
                },
                {
                    "name": "C3",
                    "midi": 48,
                    "time": 87.15053550000081,
                    "velocity": 0.44881889763779526,
                    "duration": 0.3264065000000045
                },
                {
                    "name": "E2",
                    "midi": 40,
                    "time": 87.15053550000081,
                    "velocity": 0.44881889763779526,
                    "duration": 0.3264065000000045
                },
                {
                    "name": "E3",
                    "midi": 52,
                    "time": 87.15053550000081,
                    "velocity": 0.5354330708661418,
                    "duration": 0.3264065000000045
                },
                {
                    "name": "C3",
                    "midi": 48,
                    "time": 87.80334850000082,
                    "velocity": 0.41732283464566927,
                    "duration": 0.3264065000000045
                },
                {
                    "name": "D2",
                    "midi": 38,
                    "time": 87.80334850000082,
                    "velocity": 0.41732283464566927,
                    "duration": 0.3264065000000045
                },
                {
                    "name": "D3",
                    "midi": 50,
                    "time": 87.80334850000082,
                    "velocity": 0.49606299212598426,
                    "duration": 0.3264065000000045
                },
                {
                    "name": "C3",
                    "midi": 48,
                    "time": 88.45616150000083,
                    "velocity": 0.4645669291338583,
                    "duration": 0.3264065000000045
                },
                {
                    "name": "D#2",
                    "midi": 39,
                    "time": 88.45616150000083,
                    "velocity": 0.4645669291338583,
                    "duration": 0.3264065000000045
                },
                {
                    "name": "D#3",
                    "midi": 51,
                    "time": 88.45616150000083,
                    "velocity": 0.5511811023622047,
                    "duration": 0.3264065000000045
                },
                {
                    "name": "C3",
                    "midi": 48,
                    "time": 89.10897450000084,
                    "velocity": 0.47244094488188976,
                    "duration": 0.3264065000000045
                },
                {
                    "name": "E2",
                    "midi": 40,
                    "time": 89.10897450000084,
                    "velocity": 0.47244094488188976,
                    "duration": 0.3264065000000045
                },
                {
                    "name": "E3",
                    "midi": 52,
                    "time": 89.10897450000084,
                    "velocity": 0.5590551181102362,
                    "duration": 0.3264065000000045
                },
                {
                    "name": "C3",
                    "midi": 48,
                    "time": 89.76178750000085,
                    "velocity": 0.47244094488188976,
                    "duration": 0.3264065000000045
                },
                {
                    "name": "D2",
                    "midi": 38,
                    "time": 89.76178750000085,
                    "velocity": 0.47244094488188976,
                    "duration": 0.3264065000000045
                },
                {
                    "name": "D3",
                    "midi": 50,
                    "time": 89.76178750000085,
                    "velocity": 0.5590551181102362,
                    "duration": 0.3264065000000045
                },
                {
                    "name": "C2",
                    "midi": 36,
                    "time": 90.41460050000086,
                    "velocity": 0.49606299212598426,
                    "duration": 0.3264065000000045
                },
                {
                    "name": "C3",
                    "midi": 48,
                    "time": 90.41460050000086,
                    "velocity": 0.49606299212598426,
                    "duration": 0.3264065000000045
                },
                {
                    "name": "E2",
                    "midi": 40,
                    "time": 90.74100700000086,
                    "velocity": 0.6456692913385826,
                    "duration": 0.16320324999999514
                },
                {
                    "name": "E2",
                    "midi": 40,
                    "time": 91.06741350000085,
                    "velocity": 0.6456692913385826,
                    "duration": 0.16320324999999514
                },
                {
                    "name": "A1",
                    "midi": 33,
                    "time": 91.39382000000084,
                    "velocity": 0.5354330708661418,
                    "duration": 0.16320324999999514
                },
                {
                    "name": "A2",
                    "midi": 45,
                    "time": 91.39382000000084,
                    "velocity": 0.6299212598425197,
                    "duration": 0.16320324999999514
                },
                {
                    "name": "B1",
                    "midi": 35,
                    "time": 91.72022650000083,
                    "velocity": 0.5511811023622047,
                    "duration": 0.16320324999999514
                },
                {
                    "name": "B2",
                    "midi": 47,
                    "time": 91.72022650000083,
                    "velocity": 0.6535433070866141,
                    "duration": 0.16320324999999514
                },
                {
                    "name": "C2",
                    "midi": 36,
                    "time": 92.04663300000082,
                    "velocity": 0.5669291338582677,
                    "duration": 0.16320324999999514
                },
                {
                    "name": "C3",
                    "midi": 48,
                    "time": 92.04663300000082,
                    "velocity": 0.6692913385826772,
                    "duration": 0.16320324999999514
                },
                {
                    "name": "D2",
                    "midi": 38,
                    "time": 92.37303950000081,
                    "velocity": 0.5826771653543307,
                    "duration": 0.16320324999999514
                },
                {
                    "name": "D3",
                    "midi": 50,
                    "time": 92.37303950000081,
                    "velocity": 0.7007874015748031,
                    "duration": 0.16320324999999514
                },
                {
                    "name": "E2",
                    "midi": 40,
                    "time": 92.6994460000008,
                    "velocity": 0.6299212598425197,
                    "duration": 0.6528129999999948
                },
                {
                    "name": "E3",
                    "midi": 52,
                    "time": 92.6994460000008,
                    "velocity": 0.7480314960629921,
                    "duration": 0.6528129999999948
                },
                {
                    "name": "E2",
                    "midi": 40,
                    "time": 93.3522590000008,
                    "velocity": 0.5826771653543307,
                    "duration": 0.16320324999999514
                },
                {
                    "name": "E3",
                    "midi": 52,
                    "time": 93.3522590000008,
                    "velocity": 0.6929133858267716,
                    "duration": 0.16320324999999514
                },
                {
                    "name": "D2",
                    "midi": 38,
                    "time": 93.67866550000079,
                    "velocity": 0.5748031496062992,
                    "duration": 0.16320324999999514
                },
                {
                    "name": "D3",
                    "midi": 50,
                    "time": 93.67866550000079,
                    "velocity": 0.6771653543307087,
                    "duration": 0.16320324999999514
                },
                {
                    "name": "C2",
                    "midi": 36,
                    "time": 94.00507200000078,
                    "velocity": 0.5590551181102362,
                    "duration": 0.16320324999999514
                },
                {
                    "name": "C3",
                    "midi": 48,
                    "time": 94.00507200000078,
                    "velocity": 0.6614173228346457,
                    "duration": 0.16320324999999514
                },
                {
                    "name": "B1",
                    "midi": 35,
                    "time": 94.33147850000077,
                    "velocity": 0.5433070866141733,
                    "duration": 0.16320324999999514
                },
                {
                    "name": "B2",
                    "midi": 47,
                    "time": 94.33147850000077,
                    "velocity": 0.6456692913385826,
                    "duration": 0.16320324999999514
                },
                {
                    "name": "C2",
                    "midi": 36,
                    "time": 94.65788500000076,
                    "velocity": 0.5354330708661418,
                    "duration": 0.16320324999999514
                },
                {
                    "name": "C3",
                    "midi": 48,
                    "time": 94.65788500000076,
                    "velocity": 0.6299212598425197,
                    "duration": 0.16320324999999514
                },
                {
                    "name": "A1",
                    "midi": 33,
                    "time": 94.98429150000075,
                    "velocity": 0.5275590551181102,
                    "duration": 0.16320324999999514
                },
                {
                    "name": "A2",
                    "midi": 45,
                    "time": 94.98429150000075,
                    "velocity": 0.6220472440944882,
                    "duration": 0.16320324999999514
                },
                {
                    "name": "E2",
                    "midi": 40,
                    "time": 95.31069800000074,
                    "velocity": 0.7244094488188977,
                    "duration": 0.6528129999999948
                },
                {
                    "name": "E2",
                    "midi": 40,
                    "time": 95.96351100000074,
                    "velocity": 0.5433070866141733,
                    "duration": 0.16320324999999514
                },
                {
                    "name": "E3",
                    "midi": 52,
                    "time": 95.96351100000074,
                    "velocity": 0.6456692913385826,
                    "duration": 0.16320324999999514
                },
                {
                    "name": "E2",
                    "midi": 40,
                    "time": 96.28991750000073,
                    "velocity": 0.5433070866141733,
                    "duration": 0.16320324999999514
                },
                {
                    "name": "E3",
                    "midi": 52,
                    "time": 96.28991750000073,
                    "velocity": 0.6456692913385826,
                    "duration": 0.16320324999999514
                },
                {
                    "name": "A2",
                    "midi": 45,
                    "time": 96.61632400000072,
                    "velocity": 0.5354330708661418,
                    "duration": 0.16320324999999514
                },
                {
                    "name": "A3",
                    "midi": 57,
                    "time": 96.61632400000072,
                    "velocity": 0.6299212598425197,
                    "duration": 0.16320324999999514
                },
                {
                    "name": "B2",
                    "midi": 47,
                    "time": 96.9427305000007,
                    "velocity": 0.5511811023622047,
                    "duration": 0.16320324999999514
                },
                {
                    "name": "B3",
                    "midi": 59,
                    "time": 96.9427305000007,
                    "velocity": 0.6535433070866141,
                    "duration": 0.16320324999999514
                },
                {
                    "name": "C3",
                    "midi": 48,
                    "time": 97.2691370000007,
                    "velocity": 0.5669291338582677,
                    "duration": 0.16320324999999514
                },
                {
                    "name": "C4",
                    "midi": 60,
                    "time": 97.2691370000007,
                    "velocity": 0.6692913385826772,
                    "duration": 0.16320324999999514
                },
                {
                    "name": "D3",
                    "midi": 50,
                    "time": 97.59554350000069,
                    "velocity": 0.5826771653543307,
                    "duration": 0.16320324999999514
                },
                {
                    "name": "D4",
                    "midi": 62,
                    "time": 97.59554350000069,
                    "velocity": 0.7007874015748031,
                    "duration": 0.16320324999999514
                },
                {
                    "name": "E3",
                    "midi": 52,
                    "time": 97.92195000000068,
                    "velocity": 0.6299212598425197,
                    "duration": 0.6528129999999948
                },
                {
                    "name": "E4",
                    "midi": 64,
                    "time": 97.92195000000068,
                    "velocity": 0.7480314960629921,
                    "duration": 0.6528129999999948
                },
                {
                    "name": "E3",
                    "midi": 52,
                    "time": 98.57476300000067,
                    "velocity": 0.5826771653543307,
                    "duration": 0.16320324999999514
                },
                {
                    "name": "E4",
                    "midi": 64,
                    "time": 98.57476300000067,
                    "velocity": 0.6929133858267716,
                    "duration": 0.16320324999999514
                },
                {
                    "name": "D3",
                    "midi": 50,
                    "time": 98.90116950000066,
                    "velocity": 0.5748031496062992,
                    "duration": 0.16320324999999514
                },
                {
                    "name": "D4",
                    "midi": 62,
                    "time": 98.90116950000066,
                    "velocity": 0.6771653543307087,
                    "duration": 0.16320324999999514
                },
                {
                    "name": "C3",
                    "midi": 48,
                    "time": 99.22757600000065,
                    "velocity": 0.5590551181102362,
                    "duration": 0.16320324999999514
                },
                {
                    "name": "C4",
                    "midi": 60,
                    "time": 99.22757600000065,
                    "velocity": 0.6614173228346457,
                    "duration": 0.16320324999999514
                },
                {
                    "name": "B2",
                    "midi": 47,
                    "time": 99.55398250000064,
                    "velocity": 0.5433070866141733,
                    "duration": 0.16320324999999514
                },
                {
                    "name": "B3",
                    "midi": 59,
                    "time": 99.55398250000064,
                    "velocity": 0.6456692913385826,
                    "duration": 0.16320324999999514
                },
                {
                    "name": "C3",
                    "midi": 48,
                    "time": 99.88038900000063,
                    "velocity": 0.5354330708661418,
                    "duration": 0.16320324999999514
                },
                {
                    "name": "C4",
                    "midi": 60,
                    "time": 99.88038900000063,
                    "velocity": 0.6299212598425197,
                    "duration": 0.16320324999999514
                },
                {
                    "name": "A2",
                    "midi": 45,
                    "time": 100.20679550000062,
                    "velocity": 0.5275590551181102,
                    "duration": 0.16320324999999514
                },
                {
                    "name": "A3",
                    "midi": 57,
                    "time": 100.20679550000062,
                    "velocity": 0.6220472440944882,
                    "duration": 0.16320324999999514
                },
                {
                    "name": "E2",
                    "midi": 40,
                    "time": 100.53320200000061,
                    "velocity": 0.5511811023622047,
                    "duration": 0.6528129999999948
                },
                {
                    "name": "E3",
                    "midi": 52,
                    "time": 100.53320200000061,
                    "velocity": 0.6456692913385826,
                    "duration": 0.6528129999999948
                },
                {
                    "name": "F2",
                    "midi": 41,
                    "time": 101.18601500000061,
                    "velocity": 0.4409448818897638,
                    "duration": 0.16320324999999514
                },
                {
                    "name": "A2",
                    "midi": 45,
                    "time": 101.18601500000061,
                    "velocity": 0.5275590551181102,
                    "duration": 0.16320324999999514
                },
                {
                    "name": "F3",
                    "midi": 53,
                    "time": 101.18601500000061,
                    "velocity": 0.6220472440944882,
                    "duration": 0.16320324999999514
                },
                {
                    "name": "F2",
                    "midi": 41,
                    "time": 101.5124215000006,
                    "velocity": 0.41732283464566927,
                    "duration": 0.16320324999999514
                },
                {
                    "name": "A2",
                    "midi": 45,
                    "time": 101.5124215000006,
                    "velocity": 0.49606299212598426,
                    "duration": 0.16320324999999514
                },
                {
                    "name": "F3",
                    "midi": 53,
                    "time": 101.5124215000006,
                    "velocity": 0.5905511811023622,
                    "duration": 0.16320324999999514
                },
                {
                    "name": "E2",
                    "midi": 40,
                    "time": 101.83882800000059,
                    "velocity": 0.4409448818897638,
                    "duration": 0.16320324999999514
                },
                {
                    "name": "A2",
                    "midi": 45,
                    "time": 101.83882800000059,
                    "velocity": 0.5275590551181102,
                    "duration": 0.16320324999999514
                },
                {
                    "name": "E3",
                    "midi": 52,
                    "time": 101.83882800000059,
                    "velocity": 0.6220472440944882,
                    "duration": 0.16320324999999514
                },
                {
                    "name": "E2",
                    "midi": 40,
                    "time": 102.16523450000058,
                    "velocity": 0.4409448818897638,
                    "duration": 0.16320324999999514
                },
                {
                    "name": "A2",
                    "midi": 45,
                    "time": 102.16523450000058,
                    "velocity": 0.5275590551181102,
                    "duration": 0.16320324999999514
                },
                {
                    "name": "E3",
                    "midi": 52,
                    "time": 102.16523450000058,
                    "velocity": 0.6220472440944882,
                    "duration": 0.16320324999999514
                },
                {
                    "name": "D2",
                    "midi": 38,
                    "time": 102.49164100000057,
                    "velocity": 0.4409448818897638,
                    "duration": 0.16320324999999514
                },
                {
                    "name": "A2",
                    "midi": 45,
                    "time": 102.49164100000057,
                    "velocity": 0.5196850393700787,
                    "duration": 0.16320324999999514
                },
                {
                    "name": "D3",
                    "midi": 50,
                    "time": 102.49164100000057,
                    "velocity": 0.6141732283464567,
                    "duration": 0.16320324999999514
                },
                {
                    "name": "D2",
                    "midi": 38,
                    "time": 102.81804750000056,
                    "velocity": 0.4409448818897638,
                    "duration": 0.16320324999999514
                },
                {
                    "name": "A2",
                    "midi": 45,
                    "time": 102.81804750000056,
                    "velocity": 0.5196850393700787,
                    "duration": 0.16320324999999514
                },
                {
                    "name": "D3",
                    "midi": 50,
                    "time": 102.81804750000056,
                    "velocity": 0.6141732283464567,
                    "duration": 0.16320324999999514
                },
                {
                    "name": "C2",
                    "midi": 36,
                    "time": 103.14445400000055,
                    "velocity": 0.4409448818897638,
                    "duration": 0.16320324999999514
                },
                {
                    "name": "A2",
                    "midi": 45,
                    "time": 103.14445400000055,
                    "velocity": 0.5196850393700787,
                    "duration": 0.16320324999999514
                },
                {
                    "name": "C3",
                    "midi": 48,
                    "time": 103.14445400000055,
                    "velocity": 0.6141732283464567,
                    "duration": 0.16320324999999514
                },
                {
                    "name": "C2",
                    "midi": 36,
                    "time": 103.47086050000054,
                    "velocity": 0.4409448818897638,
                    "duration": 0.16320324999999514
                },
                {
                    "name": "A2",
                    "midi": 45,
                    "time": 103.47086050000054,
                    "velocity": 0.5275590551181102,
                    "duration": 0.16320324999999514
                },
                {
                    "name": "C3",
                    "midi": 48,
                    "time": 103.47086050000054,
                    "velocity": 0.6220472440944882,
                    "duration": 0.16320324999999514
                },
                {
                    "name": "D2",
                    "midi": 38,
                    "time": 103.79726700000053,
                    "velocity": 0.41732283464566927,
                    "duration": 0.16320324999999514
                },
                {
                    "name": "A2",
                    "midi": 45,
                    "time": 103.79726700000053,
                    "velocity": 0.49606299212598426,
                    "duration": 0.16320324999999514
                },
                {
                    "name": "D3",
                    "midi": 50,
                    "time": 103.79726700000053,
                    "velocity": 0.5905511811023622,
                    "duration": 0.16320324999999514
                },
                {
                    "name": "D2",
                    "midi": 38,
                    "time": 104.12367350000052,
                    "velocity": 0.4094488188976378,
                    "duration": 0.16320324999999514
                },
                {
                    "name": "A2",
                    "midi": 45,
                    "time": 104.12367350000052,
                    "velocity": 0.4881889763779528,
                    "duration": 0.16320324999999514
                },
                {
                    "name": "D3",
                    "midi": 50,
                    "time": 104.12367350000052,
                    "velocity": 0.5826771653543307,
                    "duration": 0.16320324999999514
                },
                {
                    "name": "E2",
                    "midi": 40,
                    "time": 104.45008000000051,
                    "velocity": 0.4409448818897638,
                    "duration": 0.16320324999999514
                },
                {
                    "name": "A2",
                    "midi": 45,
                    "time": 104.45008000000051,
                    "velocity": 0.5275590551181102,
                    "duration": 0.16320324999999514
                },
                {
                    "name": "E3",
                    "midi": 52,
                    "time": 104.45008000000051,
                    "velocity": 0.6220472440944882,
                    "duration": 0.16320324999999514
                },
                {
                    "name": "E2",
                    "midi": 40,
                    "time": 104.7764865000005,
                    "velocity": 0.5039370078740157,
                    "duration": 0.16320324999999514
                },
                {
                    "name": "E3",
                    "midi": 52,
                    "time": 104.7764865000005,
                    "velocity": 0.6062992125984252,
                    "duration": 0.16320324999999514
                },
                {
                    "name": "E2",
                    "midi": 40,
                    "time": 105.10289300000049,
                    "velocity": 0.4881889763779528,
                    "duration": 0.16320324999999514
                },
                {
                    "name": "E3",
                    "midi": 52,
                    "time": 105.10289300000049,
                    "velocity": 0.5826771653543307,
                    "duration": 0.16320324999999514
                },
                {
                    "name": "E2",
                    "midi": 40,
                    "time": 105.42929950000048,
                    "velocity": 0.4881889763779528,
                    "duration": 0.16320324999999514
                },
                {
                    "name": "E3",
                    "midi": 52,
                    "time": 105.42929950000048,
                    "velocity": 0.5826771653543307,
                    "duration": 0.16320324999999514
                },
                {
                    "name": "C2",
                    "midi": 36,
                    "time": 105.75570600000047,
                    "velocity": 0.6299212598425197,
                    "duration": 0.16320324999999514
                },
                {
                    "name": "A2",
                    "midi": 45,
                    "time": 105.91890925000047,
                    "velocity": 0.5196850393700787,
                    "duration": 0.16320324999999514
                },
                {
                    "name": "G#2",
                    "midi": 44,
                    "time": 106.08211250000046,
                    "velocity": 0.5196850393700787,
                    "duration": 0.16320324999999514
                },
                {
                    "name": "A2",
                    "midi": 45,
                    "time": 106.24531575000046,
                    "velocity": 0.5196850393700787,
                    "duration": 0.16320324999999514
                },
                {
                    "name": "F2",
                    "midi": 41,
                    "time": 106.40851900000045,
                    "velocity": 0.6614173228346457,
                    "duration": 0.16320324999999514
                },
                {
                    "name": "A2",
                    "midi": 45,
                    "time": 106.57172225000045,
                    "velocity": 0.5039370078740157,
                    "duration": 0.16320324999999514
                },
                {
                    "name": "G#2",
                    "midi": 44,
                    "time": 106.73492550000044,
                    "velocity": 0.5039370078740157,
                    "duration": 0.16320324999999514
                },
                {
                    "name": "A2",
                    "midi": 45,
                    "time": 106.89812875000044,
                    "velocity": 0.5039370078740157,
                    "duration": 0.16320324999999514
                },
                {
                    "name": "E2",
                    "midi": 40,
                    "time": 107.06133200000043,
                    "velocity": 0.6614173228346457,
                    "duration": 0.16320324999999514
                },
                {
                    "name": "A2",
                    "midi": 45,
                    "time": 107.22453525000043,
                    "velocity": 0.5275590551181102,
                    "duration": 0.16320324999999514
                },
                {
                    "name": "G#2",
                    "midi": 44,
                    "time": 107.38773850000042,
                    "velocity": 0.5275590551181102,
                    "duration": 0.16320324999999514
                },
                {
                    "name": "A2",
                    "midi": 45,
                    "time": 107.55094175000042,
                    "velocity": 0.5275590551181102,
                    "duration": 0.16320324999999514
                },
                {
                    "name": "D2",
                    "midi": 38,
                    "time": 107.71414500000041,
                    "velocity": 0.6456692913385826,
                    "duration": 0.16320324999999514
                },
                {
                    "name": "A2",
                    "midi": 45,
                    "time": 107.87734825000041,
                    "velocity": 0.5196850393700787,
                    "duration": 0.16320324999999514
                },
                {
                    "name": "G#2",
                    "midi": 44,
                    "time": 108.0405515000004,
                    "velocity": 0.5196850393700787,
                    "duration": 0.16320324999999514
                },
                {
                    "name": "A2",
                    "midi": 45,
                    "time": 108.2037547500004,
                    "velocity": 0.5196850393700787,
                    "duration": 0.16320324999999514
                },
                {
                    "name": "C2",
                    "midi": 36,
                    "time": 108.3669580000004,
                    "velocity": 0.6456692913385826,
                    "duration": 0.16320324999999514
                },
                {
                    "name": "A2",
                    "midi": 45,
                    "time": 108.53016125000039,
                    "velocity": 0.49606299212598426,
                    "duration": 0.16320324999999514
                },
                {
                    "name": "G#2",
                    "midi": 44,
                    "time": 108.69336450000038,
                    "velocity": 0.5196850393700787,
                    "duration": 0.16320324999999514
                },
                {
                    "name": "A2",
                    "midi": 45,
                    "time": 108.85656775000038,
                    "velocity": 0.5275590551181102,
                    "duration": 0.16320324999999514
                },
                {
                    "name": "D2",
                    "midi": 38,
                    "time": 109.01977100000038,
                    "velocity": 0.6692913385826772,
                    "duration": 0.16320324999999514
                },
                {
                    "name": "A2",
                    "midi": 45,
                    "time": 109.18297425000037,
                    "velocity": 0.5196850393700787,
                    "duration": 0.16320324999999514
                },
                {
                    "name": "D2",
                    "midi": 38,
                    "time": 109.34617750000037,
                    "velocity": 0.5196850393700787,
                    "duration": 0.16320324999999514
                },
                {
                    "name": "A2",
                    "midi": 45,
                    "time": 109.50938075000036,
                    "velocity": 0.5196850393700787,
                    "duration": 0.16320324999999514
                },
                {
                    "name": "E2",
                    "midi": 40,
                    "time": 109.67258400000036,
                    "velocity": 0.6692913385826772,
                    "duration": 0.16320324999999514
                },
                {
                    "name": "A2",
                    "midi": 45,
                    "time": 109.83578725000035,
                    "velocity": 0.5275590551181102,
                    "duration": 0.16320324999999514
                },
                {
                    "name": "E2",
                    "midi": 40,
                    "time": 109.99899050000035,
                    "velocity": 0.5826771653543307,
                    "duration": 0.16320324999999514
                },
                {
                    "name": "E3",
                    "midi": 52,
                    "time": 110.16219375000034,
                    "velocity": 0.5275590551181102,
                    "duration": 0.16320324999999514
                },
                {
                    "name": "E2",
                    "midi": 40,
                    "time": 110.32539700000034,
                    "velocity": 0.6535433070866141,
                    "duration": 0.16320324999999514
                },
                {
                    "name": "E3",
                    "midi": 52,
                    "time": 110.48860025000033,
                    "velocity": 0.5196850393700787,
                    "duration": 0.16320324999999514
                },
                {
                    "name": "E2",
                    "midi": 40,
                    "time": 110.65180350000033,
                    "velocity": 0.5433070866141733,
                    "duration": 0.16320324999999514
                },
                {
                    "name": "E3",
                    "midi": 52,
                    "time": 110.81500675000032,
                    "velocity": 0.49606299212598426,
                    "duration": 0.16320324999999514
                },
                {
                    "name": "A2",
                    "midi": 45,
                    "time": 110.97821000000032,
                    "velocity": 0.5511811023622047,
                    "duration": 0.16320324999999514
                },
                {
                    "name": "E3",
                    "midi": 52,
                    "time": 111.14141325000031,
                    "velocity": 0.5275590551181102,
                    "duration": 0.16320324999999514
                },
                {
                    "name": "C3",
                    "midi": 48,
                    "time": 111.30461650000031,
                    "velocity": 0.5354330708661418,
                    "duration": 0.16320324999999514
                },
                {
                    "name": "E3",
                    "midi": 52,
                    "time": 111.4678197500003,
                    "velocity": 0.5354330708661418,
                    "duration": 0.16320324999999514
                },
                {
                    "name": "A2",
                    "midi": 45,
                    "time": 111.6310230000003,
                    "velocity": 0.4645669291338583,
                    "duration": 0.3264064999999903
                },
                {
                    "name": "B2",
                    "midi": 47,
                    "time": 111.6310230000003,
                    "velocity": 0.5511811023622047,
                    "duration": 0.16320324999999514
                },
                {
                    "name": "E3",
                    "midi": 52,
                    "time": 111.79422625000029,
                    "velocity": 0.5196850393700787,
                    "duration": 0.16320324999999514
                },
                {
                    "name": "A2",
                    "midi": 45,
                    "time": 111.95742950000029,
                    "velocity": 0.4330708661417323,
                    "duration": 0.3264064999999903
                },
                {
                    "name": "D3",
                    "midi": 50,
                    "time": 111.95742950000029,
                    "velocity": 0.5196850393700787,
                    "duration": 0.16320324999999514
                },
                {
                    "name": "E3",
                    "midi": 52,
                    "time": 112.12063275000028,
                    "velocity": 0.5196850393700787,
                    "duration": 0.16320324999999514
                },
                {
                    "name": "A2",
                    "midi": 45,
                    "time": 112.28383600000028,
                    "velocity": 0.4645669291338583,
                    "duration": 0.3264064999999903
                },
                {
                    "name": "C3",
                    "midi": 48,
                    "time": 112.28383600000028,
                    "velocity": 0.5511811023622047,
                    "duration": 0.16320324999999514
                },
                {
                    "name": "E3",
                    "midi": 52,
                    "time": 112.44703925000027,
                    "velocity": 0.49606299212598426,
                    "duration": 0.16320324999999514
                },
                {
                    "name": "A2",
                    "midi": 45,
                    "time": 112.61024250000027,
                    "velocity": 0.41732283464566927,
                    "duration": 0.3264064999999903
                },
                {
                    "name": "C3",
                    "midi": 48,
                    "time": 112.61024250000027,
                    "velocity": 0.49606299212598426,
                    "duration": 0.16320324999999514
                },
                {
                    "name": "E3",
                    "midi": 52,
                    "time": 112.77344575000026,
                    "velocity": 0.49606299212598426,
                    "duration": 0.16320324999999514
                },
                {
                    "name": "A2",
                    "midi": 45,
                    "time": 112.93664900000026,
                    "velocity": 0.4645669291338583,
                    "duration": 0.3264064999999903
                },
                {
                    "name": "B2",
                    "midi": 47,
                    "time": 112.93664900000026,
                    "velocity": 0.5511811023622047,
                    "duration": 0.16320324999999514
                },
                {
                    "name": "E3",
                    "midi": 52,
                    "time": 113.09985225000025,
                    "velocity": 0.5196850393700787,
                    "duration": 0.16320324999999514
                },
                {
                    "name": "A2",
                    "midi": 45,
                    "time": 113.26305550000025,
                    "velocity": 0.4330708661417323,
                    "duration": 0.3264064999999903
                },
                {
                    "name": "D3",
                    "midi": 50,
                    "time": 113.26305550000025,
                    "velocity": 0.5196850393700787,
                    "duration": 0.16320324999999514
                },
                {
                    "name": "E3",
                    "midi": 52,
                    "time": 113.42625875000024,
                    "velocity": 0.5196850393700787,
                    "duration": 0.16320324999999514
                },
                {
                    "name": "A2",
                    "midi": 45,
                    "time": 113.58946200000024,
                    "velocity": 0.4645669291338583,
                    "duration": 0.3264064999999903
                },
                {
                    "name": "C3",
                    "midi": 48,
                    "time": 113.58946200000024,
                    "velocity": 0.5511811023622047,
                    "duration": 0.16320324999999514
                },
                {
                    "name": "A3",
                    "midi": 57,
                    "time": 113.75266525000023,
                    "velocity": 0.49606299212598426,
                    "duration": 0.16320324999999514
                },
                {
                    "name": "E3",
                    "midi": 52,
                    "time": 113.91586850000023,
                    "velocity": 0.49606299212598426,
                    "duration": 0.16320324999999514
                },
                {
                    "name": "A3",
                    "midi": 57,
                    "time": 114.07907175000022,
                    "velocity": 0.49606299212598426,
                    "duration": 0.16320324999999514
                },
                {
                    "name": "A2",
                    "midi": 45,
                    "time": 114.24227500000022,
                    "velocity": 0.28346456692913385,
                    "duration": 0.3264064999999903
                },
                {
                    "name": "D3",
                    "midi": 50,
                    "time": 114.24227500000022,
                    "velocity": 0.33858267716535434,
                    "duration": 0.16320324999999514
                },
                {
                    "name": "G#3",
                    "midi": 56,
                    "time": 114.40547825000021,
                    "velocity": 0.29133858267716534,
                    "duration": 0.16320324999999514
                },
                {
                    "name": "E3",
                    "midi": 52,
                    "time": 114.56868150000021,
                    "velocity": 0.29133858267716534,
                    "duration": 0.16320324999999514
                },
                {
                    "name": "G#3",
                    "midi": 56,
                    "time": 114.7318847500002,
                    "velocity": 0.29133858267716534,
                    "duration": 0.16320324999999514
                },
                {
                    "name": "A2",
                    "midi": 45,
                    "time": 114.8950880000002,
                    "velocity": 0.28346456692913385,
                    "duration": 0.3264064999999903
                },
                {
                    "name": "C3",
                    "midi": 48,
                    "time": 114.8950880000002,
                    "velocity": 0.3464566929133858,
                    "duration": 0.16320324999999514
                },
                {
                    "name": "A3",
                    "midi": 57,
                    "time": 115.0582912500002,
                    "velocity": 0.2992125984251969,
                    "duration": 0.16320324999999514
                },
                {
                    "name": "E3",
                    "midi": 52,
                    "time": 115.22149450000019,
                    "velocity": 0.2992125984251969,
                    "duration": 0.16320324999999514
                },
                {
                    "name": "A3",
                    "midi": 57,
                    "time": 115.38469775000019,
                    "velocity": 0.2992125984251969,
                    "duration": 0.16320324999999514
                },
                {
                    "name": "A2",
                    "midi": 45,
                    "time": 115.54790100000018,
                    "velocity": 0.28346456692913385,
                    "duration": 0.3264064999999903
                },
                {
                    "name": "D3",
                    "midi": 50,
                    "time": 115.54790100000018,
                    "velocity": 0.3464566929133858,
                    "duration": 0.16320324999999514
                },
                {
                    "name": "G#3",
                    "midi": 56,
                    "time": 115.71110425000018,
                    "velocity": 0.2992125984251969,
                    "duration": 0.16320324999999514
                },
                {
                    "name": "E3",
                    "midi": 52,
                    "time": 115.87430750000017,
                    "velocity": 0.2992125984251969,
                    "duration": 0.16320324999999514
                },
                {
                    "name": "G#3",
                    "midi": 56,
                    "time": 116.03751075000017,
                    "velocity": 0.2992125984251969,
                    "duration": 0.16320324999999514
                },
                {
                    "name": "A2",
                    "midi": 45,
                    "time": 116.20071400000016,
                    "velocity": 0.28346456692913385,
                    "duration": 0.3264064999999903
                },
                {
                    "name": "C3",
                    "midi": 48,
                    "time": 116.20071400000016,
                    "velocity": 0.3464566929133858,
                    "duration": 0.16320324999999514
                },
                {
                    "name": "A3",
                    "midi": 57,
                    "time": 116.36391725000016,
                    "velocity": 0.29133858267716534,
                    "duration": 0.16320324999999514
                },
                {
                    "name": "E3",
                    "midi": 52,
                    "time": 116.52712050000015,
                    "velocity": 0.29133858267716534,
                    "duration": 0.16320324999999514
                },
                {
                    "name": "A3",
                    "midi": 57,
                    "time": 116.69032375000015,
                    "velocity": 0.29133858267716534,
                    "duration": 0.16320324999999514
                },
                {
                    "name": "A2",
                    "midi": 45,
                    "time": 116.85352700000014,
                    "velocity": 0.4645669291338583,
                    "duration": 0.3264064999999903
                },
                {
                    "name": "B2",
                    "midi": 47,
                    "time": 116.85352700000014,
                    "velocity": 0.5511811023622047,
                    "duration": 0.16320324999999514
                },
                {
                    "name": "E3",
                    "midi": 52,
                    "time": 117.01673025000014,
                    "velocity": 0.5196850393700787,
                    "duration": 0.16320324999999514
                },
                {
                    "name": "A2",
                    "midi": 45,
                    "time": 117.17993350000013,
                    "velocity": 0.4330708661417323,
                    "duration": 0.3264064999999903
                },
                {
                    "name": "D3",
                    "midi": 50,
                    "time": 117.17993350000013,
                    "velocity": 0.5196850393700787,
                    "duration": 0.16320324999999514
                },
                {
                    "name": "E3",
                    "midi": 52,
                    "time": 117.34313675000013,
                    "velocity": 0.5196850393700787,
                    "duration": 0.16320324999999514
                },
                {
                    "name": "A2",
                    "midi": 45,
                    "time": 117.50634000000012,
                    "velocity": 0.4645669291338583,
                    "duration": 0.3264064999999903
                },
                {
                    "name": "C3",
                    "midi": 48,
                    "time": 117.50634000000012,
                    "velocity": 0.5511811023622047,
                    "duration": 0.16320324999999514
                },
                {
                    "name": "E3",
                    "midi": 52,
                    "time": 117.66954325000012,
                    "velocity": 0.49606299212598426,
                    "duration": 0.16320324999999514
                },
                {
                    "name": "A2",
                    "midi": 45,
                    "time": 117.83274650000011,
                    "velocity": 0.41732283464566927,
                    "duration": 0.3264064999999903
                },
                {
                    "name": "C3",
                    "midi": 48,
                    "time": 117.83274650000011,
                    "velocity": 0.49606299212598426,
                    "duration": 0.16320324999999514
                },
                {
                    "name": "E3",
                    "midi": 52,
                    "time": 117.99594975000011,
                    "velocity": 0.49606299212598426,
                    "duration": 0.16320324999999514
                },
                {
                    "name": "A2",
                    "midi": 45,
                    "time": 118.1591530000001,
                    "velocity": 0.4645669291338583,
                    "duration": 0.3264064999999903
                },
                {
                    "name": "B2",
                    "midi": 47,
                    "time": 118.1591530000001,
                    "velocity": 0.5511811023622047,
                    "duration": 0.16320324999999514
                },
                {
                    "name": "E3",
                    "midi": 52,
                    "time": 118.3223562500001,
                    "velocity": 0.5196850393700787,
                    "duration": 0.16320324999999514
                },
                {
                    "name": "A2",
                    "midi": 45,
                    "time": 118.4855595000001,
                    "velocity": 0.4330708661417323,
                    "duration": 0.3264064999999903
                },
                {
                    "name": "D3",
                    "midi": 50,
                    "time": 118.4855595000001,
                    "velocity": 0.5196850393700787,
                    "duration": 0.16320324999999514
                },
                {
                    "name": "E3",
                    "midi": 52,
                    "time": 118.64876275000009,
                    "velocity": 0.5196850393700787,
                    "duration": 0.16320324999999514
                },
                {
                    "name": "A2",
                    "midi": 45,
                    "time": 118.81196600000008,
                    "velocity": 0.4645669291338583,
                    "duration": 0.3264064999999903
                },
                {
                    "name": "C3",
                    "midi": 48,
                    "time": 118.81196600000008,
                    "velocity": 0.5511811023622047,
                    "duration": 0.16320324999999514
                },
                {
                    "name": "A3",
                    "midi": 57,
                    "time": 118.97516925000008,
                    "velocity": 0.49606299212598426,
                    "duration": 0.16320324999999514
                },
                {
                    "name": "E3",
                    "midi": 52,
                    "time": 119.13837250000007,
                    "velocity": 0.49606299212598426,
                    "duration": 0.16320324999999514
                },
                {
                    "name": "A3",
                    "midi": 57,
                    "time": 119.30157575000007,
                    "velocity": 0.49606299212598426,
                    "duration": 0.16320324999999514
                },
                {
                    "name": "D3",
                    "midi": 50,
                    "time": 119.46477900000006,
                    "velocity": 0.33858267716535434,
                    "duration": 0.16320324999999514
                },
                {
                    "name": "A2",
                    "midi": 45,
                    "time": 119.46477900000006,
                    "velocity": 0.28346456692913385,
                    "duration": 0.3264064999999903
                },
                {
                    "name": "G#3",
                    "midi": 56,
                    "time": 119.62798225000006,
                    "velocity": 0.29133858267716534,
                    "duration": 0.16320324999999514
                },
                {
                    "name": "E3",
                    "midi": 52,
                    "time": 119.79118550000005,
                    "velocity": 0.29133858267716534,
                    "duration": 0.16320324999999514
                },
                {
                    "name": "G#3",
                    "midi": 56,
                    "time": 119.95438875000005,
                    "velocity": 0.29133858267716534,
                    "duration": 0.16320324999999514
                },
                {
                    "name": "C3",
                    "midi": 48,
                    "time": 120.11759200000004,
                    "velocity": 0.33858267716535434,
                    "duration": 0.16320324999999514
                },
                {
                    "name": "A2",
                    "midi": 45,
                    "time": 120.11759200000004,
                    "velocity": 0.2755905511811024,
                    "duration": 0.3264064999999903
                },
                {
                    "name": "A3",
                    "midi": 57,
                    "time": 120.28079525000004,
                    "velocity": 0.29133858267716534,
                    "duration": 0.16320324999999514
                },
                {
                    "name": "E3",
                    "midi": 52,
                    "time": 120.44399850000003,
                    "velocity": 0.29133858267716534,
                    "duration": 0.16320324999999514
                },
                {
                    "name": "A3",
                    "midi": 57,
                    "time": 120.60720175000003,
                    "velocity": 0.29133858267716534,
                    "duration": 0.16320324999999514
                },
                {
                    "name": "D3",
                    "midi": 50,
                    "time": 120.77040500000003,
                    "velocity": 0.33858267716535434,
                    "duration": 0.16320324999999514
                },
                {
                    "name": "A2",
                    "midi": 45,
                    "time": 120.77040500000003,
                    "velocity": 0.2755905511811024,
                    "duration": 0.3264064999999903
                },
                {
                    "name": "G#3",
                    "midi": 56,
                    "time": 120.93360825000002,
                    "velocity": 0.29133858267716534,
                    "duration": 0.16320324999999514
                },
                {
                    "name": "E3",
                    "midi": 52,
                    "time": 121.09681150000002,
                    "velocity": 0.29133858267716534,
                    "duration": 0.16320324999999514
                },
                {
                    "name": "G#3",
                    "midi": 56,
                    "time": 121.26001475000001,
                    "velocity": 0.29133858267716534,
                    "duration": 0.16320324999999514
                },
                {
                    "name": "A2",
                    "midi": 45,
                    "time": 121.423218,
                    "velocity": 0.2677165354330709,
                    "duration": 0.3264064999999903
                },
                {
                    "name": "C3",
                    "midi": 48,
                    "time": 121.423218,
                    "velocity": 0.33070866141732286,
                    "duration": 0.16320324999999514
                },
                {
                    "name": "A3",
                    "midi": 57,
                    "time": 121.58642125,
                    "velocity": 0.28346456692913385,
                    "duration": 0.16320324999999514
                },
                {
                    "name": "E3",
                    "midi": 52,
                    "time": 121.7496245,
                    "velocity": 0.2755905511811024,
                    "duration": 0.16320324999999514
                },
                {
                    "name": "A3",
                    "midi": 57,
                    "time": 121.91282774999999,
                    "velocity": 0.2755905511811024,
                    "duration": 0.16320324999999514
                },
                {
                    "name": "D3",
                    "midi": 50,
                    "time": 122.07603099999999,
                    "velocity": 0.29133858267716534,
                    "duration": 0.16320324999999514
                },
                {
                    "name": "A2",
                    "midi": 45,
                    "time": 122.07603099999999,
                    "velocity": 0.25196850393700787,
                    "duration": 0.3264064999999903
                },
                {
                    "name": "G#3",
                    "midi": 56,
                    "time": 122.23923424999998,
                    "velocity": 0.25984251968503935,
                    "duration": 0.16320324999999514
                },
                {
                    "name": "E3",
                    "midi": 52,
                    "time": 122.40243749999998,
                    "velocity": 0.25984251968503935,
                    "duration": 0.16320324999999514
                },
                {
                    "name": "G#3",
                    "midi": 56,
                    "time": 122.56564074999997,
                    "velocity": 0.25196850393700787,
                    "duration": 0.16320324999999514
                },
                {
                    "name": "C3",
                    "midi": 48,
                    "time": 122.72884399999997,
                    "velocity": 0.2992125984251969,
                    "duration": 0.16320324999999514
                },
                {
                    "name": "A2",
                    "midi": 45,
                    "time": 122.72884399999997,
                    "velocity": 0.2440944881889764,
                    "duration": 0.3264064999999903
                },
                {
                    "name": "A3",
                    "midi": 57,
                    "time": 122.89204724999996,
                    "velocity": 0.25984251968503935,
                    "duration": 0.16320324999999514
                },
                {
                    "name": "E3",
                    "midi": 52,
                    "time": 123.05525049999996,
                    "velocity": 0.25196850393700787,
                    "duration": 0.16320324999999514
                },
                {
                    "name": "A3",
                    "midi": 57,
                    "time": 123.21845374999995,
                    "velocity": 0.25196850393700787,
                    "duration": 0.16320324999999514
                },
                {
                    "name": "D3",
                    "midi": 50,
                    "time": 123.38165699999995,
                    "velocity": 0.2677165354330709,
                    "duration": 0.16320324999999514
                },
                {
                    "name": "A2",
                    "midi": 45,
                    "time": 123.38165699999995,
                    "velocity": 0.2283464566929134,
                    "duration": 0.3264064999999903
                },
                {
                    "name": "G#3",
                    "midi": 56,
                    "time": 123.54486024999994,
                    "velocity": 0.2440944881889764,
                    "duration": 0.16320324999999514
                },
                {
                    "name": "E3",
                    "midi": 52,
                    "time": 123.70806349999994,
                    "velocity": 0.2283464566929134,
                    "duration": 0.16320324999999514
                },
                {
                    "name": "G#3",
                    "midi": 56,
                    "time": 123.87126674999993,
                    "velocity": 0.2283464566929134,
                    "duration": 0.16320324999999514
                },
                {
                    "name": "A2",
                    "midi": 45,
                    "time": 124.03446999999993,
                    "velocity": 0.2047244094488189,
                    "duration": 0.3264064999999903
                },
                {
                    "name": "C3",
                    "midi": 48,
                    "time": 124.03446999999993,
                    "velocity": 0.25196850393700787,
                    "duration": 0.16320324999999514
                },
                {
                    "name": "A3",
                    "midi": 57,
                    "time": 124.19767324999992,
                    "velocity": 0.2204724409448819,
                    "duration": 0.16320324999999514
                },
                {
                    "name": "E3",
                    "midi": 52,
                    "time": 124.36087649999992,
                    "velocity": 0.2204724409448819,
                    "duration": 0.16320324999999514
                },
                {
                    "name": "A3",
                    "midi": 57,
                    "time": 124.52407974999991,
                    "velocity": 0.2204724409448819,
                    "duration": 0.16320324999999514
                },
                {
                    "name": "D3",
                    "midi": 50,
                    "time": 124.68728299999991,
                    "velocity": 0.25196850393700787,
                    "duration": 0.16320324999999514
                },
                {
                    "name": "A2",
                    "midi": 45,
                    "time": 124.68728299999991,
                    "velocity": 0.2047244094488189,
                    "duration": 0.3264064999999903
                },
                {
                    "name": "G#3",
                    "midi": 56,
                    "time": 124.8504862499999,
                    "velocity": 0.2204724409448819,
                    "duration": 0.16320324999999514
                },
                {
                    "name": "E3",
                    "midi": 52,
                    "time": 125.0136894999999,
                    "velocity": 0.2204724409448819,
                    "duration": 0.16320324999999514
                },
                {
                    "name": "G#3",
                    "midi": 56,
                    "time": 125.1768927499999,
                    "velocity": 0.2204724409448819,
                    "duration": 0.16320324999999514
                },
                {
                    "name": "A2",
                    "midi": 45,
                    "time": 125.34009599999989,
                    "velocity": 0.2047244094488189,
                    "duration": 0.3264064999999903
                },
                {
                    "name": "C3",
                    "midi": 48,
                    "time": 125.34009599999989,
                    "velocity": 0.25196850393700787,
                    "duration": 0.16320324999999514
                },
                {
                    "name": "A3",
                    "midi": 57,
                    "time": 125.50329924999988,
                    "velocity": 0.2204724409448819,
                    "duration": 0.16320324999999514
                },
                {
                    "name": "E3",
                    "midi": 52,
                    "time": 125.66650249999988,
                    "velocity": 0.2204724409448819,
                    "duration": 0.16320324999999514
                },
                {
                    "name": "A3",
                    "midi": 57,
                    "time": 125.82970574999987,
                    "velocity": 0.2204724409448819,
                    "duration": 0.16320324999999514
                },
                {
                    "name": "D3",
                    "midi": 50,
                    "time": 125.99290899999987,
                    "velocity": 0.25196850393700787,
                    "duration": 0.16320324999999514
                },
                {
                    "name": "A2",
                    "midi": 45,
                    "time": 125.99290899999987,
                    "velocity": 0.2047244094488189,
                    "duration": 0.3264064999999903
                },
                {
                    "name": "G#3",
                    "midi": 56,
                    "time": 126.15611224999986,
                    "velocity": 0.2204724409448819,
                    "duration": 0.16320324999999514
                },
                {
                    "name": "E3",
                    "midi": 52,
                    "time": 126.31931549999986,
                    "velocity": 0.2204724409448819,
                    "duration": 0.16320324999999514
                },
                {
                    "name": "G#3",
                    "midi": 56,
                    "time": 126.48251874999985,
                    "velocity": 0.2204724409448819,
                    "duration": 0.16320324999999514
                },
                {
                    "name": "A2",
                    "midi": 45,
                    "time": 126.64572199999985,
                    "velocity": 0.4881889763779528,
                    "duration": 0.3264065000000045
                },
                {
                    "name": "A3",
                    "midi": 57,
                    "time": 126.64572199999985,
                    "velocity": 0.4881889763779528,
                    "duration": 0.3264065000000045
                },
                {
                    "name": "E4",
                    "midi": 64,
                    "time": 127.29853499999986,
                    "velocity": 0.49606299212598426,
                    "duration": 0.3264065000000045
                },
                {
                    "name": "E4",
                    "midi": 64,
                    "time": 127.95134799999987,
                    "velocity": 0.5826771653543307,
                    "duration": 0.9792195000000135
                },
                {
                    "name": "C4",
                    "midi": 60,
                    "time": 128.93056749999988,
                    "velocity": 0.3700787401574803,
                    "duration": 0.3264064999999903
                },
                {
                    "name": "B3",
                    "midi": 59,
                    "time": 129.25697399999987,
                    "velocity": 0.3937007874015748,
                    "duration": 0.652813000000009
                },
                {
                    "name": "E3",
                    "midi": 52,
                    "time": 129.90978699999988,
                    "velocity": 0.3700787401574803,
                    "duration": 0.652813000000009
                },
                {
                    "name": "A3",
                    "midi": 57,
                    "time": 130.5625999999999,
                    "velocity": 0.3700787401574803,
                    "duration": 0.3264064999999903
                },
                {
                    "name": "F1",
                    "midi": 29,
                    "time": 131.86822599999988,
                    "velocity": 0.5826771653543307,
                    "duration": 0.3264064999999903
                },
                {
                    "name": "F2",
                    "midi": 41,
                    "time": 131.86822599999988,
                    "velocity": 0.5826771653543307,
                    "duration": 0.3264064999999903
                },
                {
                    "name": "C4",
                    "midi": 60,
                    "time": 132.52103899999986,
                    "velocity": 0.5826771653543307,
                    "duration": 0.3264064999999903
                },
                {
                    "name": "C4",
                    "midi": 60,
                    "time": 133.17385199999984,
                    "velocity": 0.6220472440944882,
                    "duration": 0.9792194999999992
                },
                {
                    "name": "A3",
                    "midi": 57,
                    "time": 134.15307149999984,
                    "velocity": 0.3779527559055118,
                    "duration": 0.3264064999999903
                },
                {
                    "name": "G3",
                    "midi": 55,
                    "time": 134.47947799999983,
                    "velocity": 0.41732283464566927,
                    "duration": 0.652813000000009
                },
                {
                    "name": "C3",
                    "midi": 48,
                    "time": 135.13229099999984,
                    "velocity": 0.3858267716535433,
                    "duration": 0.652813000000009
                },
                {
                    "name": "F3",
                    "midi": 53,
                    "time": 135.78510399999985,
                    "velocity": 0.3858267716535433,
                    "duration": 0.3264064999999903
                },
                {
                    "name": "G1",
                    "midi": 31,
                    "time": 137.09072999999984,
                    "velocity": 0.7086614173228346,
                    "duration": 0.3264064999999903
                },
                {
                    "name": "G2",
                    "midi": 43,
                    "time": 137.09072999999984,
                    "velocity": 0.7086614173228346,
                    "duration": 0.3264064999999903
                },
                {
                    "name": "F4",
                    "midi": 65,
                    "time": 137.74354299999982,
                    "velocity": 0.6299212598425197,
                    "duration": 0.3264064999999903
                },
                {
                    "name": "F4",
                    "midi": 65,
                    "time": 138.3963559999998,
                    "velocity": 0.6377952755905512,
                    "duration": 0.9792194999999992
                },
                {
                    "name": "D4",
                    "midi": 62,
                    "time": 139.3755754999998,
                    "velocity": 0.41732283464566927,
                    "duration": 0.3264064999999903
                },
                {
                    "name": "B3",
                    "midi": 59,
                    "time": 139.7019819999998,
                    "velocity": 0.4645669291338583,
                    "duration": 0.652813000000009
                },
                {
                    "name": "G3",
                    "midi": 55,
                    "time": 140.3547949999998,
                    "velocity": 0.4330708661417323,
                    "duration": 0.652813000000009
                },
                {
                    "name": "F3",
                    "midi": 53,
                    "time": 141.0076079999998,
                    "velocity": 0.4330708661417323,
                    "duration": 0.9792194999999992
                },
                {
                    "name": "D3",
                    "midi": 50,
                    "time": 141.9868274999998,
                    "velocity": 0.3464566929133858,
                    "duration": 0.3264064999999903
                },
                {
                    "name": "B2",
                    "midi": 47,
                    "time": 142.3132339999998,
                    "velocity": 0.4015748031496063,
                    "duration": 0.652813000000009
                },
                {
                    "name": "G2",
                    "midi": 43,
                    "time": 142.9660469999998,
                    "velocity": 0.28346456692913385,
                    "duration": 0.652813000000009
                },
                {
                    "name": "F2",
                    "midi": 41,
                    "time": 143.6188599999998,
                    "velocity": 0.3228346456692913,
                    "duration": 0.9792194999999992
                },
                {
                    "name": "D2",
                    "midi": 38,
                    "time": 144.5980794999998,
                    "velocity": 0.25984251968503935,
                    "duration": 0.3264064999999903
                },
                {
                    "name": "B1",
                    "midi": 35,
                    "time": 144.9244859999998,
                    "velocity": 0.25984251968503935,
                    "duration": 0.652813000000009
                },
                {
                    "name": "G1",
                    "midi": 31,
                    "time": 146.23011199999982,
                    "velocity": 0.2204724409448819,
                    "duration": 0.652813000000009
                },
                {
                    "name": "G2",
                    "midi": 43,
                    "time": 146.23011199999982,
                    "velocity": 0.25984251968503935,
                    "duration": 0.652813000000009
                },
                {
                    "name": "C2",
                    "midi": 36,
                    "time": 147.53573799999984,
                    "velocity": 0.3937007874015748,
                    "duration": 0.3264064999999903
                },
                {
                    "name": "G5",
                    "midi": 79,
                    "time": 148.18855099999982,
                    "velocity": 0.3937007874015748,
                    "duration": 0.3264064999999903
                },
                {
                    "name": "G5",
                    "midi": 79,
                    "time": 148.8413639999998,
                    "velocity": 0.4251968503937008,
                    "duration": 0.9792194999999992
                },
                {
                    "name": "E5",
                    "midi": 76,
                    "time": 149.8205834999998,
                    "velocity": 0.3700787401574803,
                    "duration": 0.3264064999999903
                },
                {
                    "name": "D5",
                    "midi": 74,
                    "time": 150.1469899999998,
                    "velocity": 0.3937007874015748,
                    "duration": 0.652813000000009
                },
                {
                    "name": "G4",
                    "midi": 67,
                    "time": 150.7998029999998,
                    "velocity": 0.3228346456692913,
                    "duration": 0.652813000000009
                },
                {
                    "name": "C5",
                    "midi": 72,
                    "time": 151.4526159999998,
                    "velocity": 0.3937007874015748,
                    "duration": 0.652813000000009
                },
                {
                    "name": "E5",
                    "midi": 76,
                    "time": 152.10542899999982,
                    "velocity": 0.3700787401574803,
                    "duration": 0.3264064999999903
                },
                {
                    "name": "C3",
                    "midi": 48,
                    "time": 152.59503874999982,
                    "velocity": 0.2440944881889764,
                    "duration": 0.16320325000000935
                },
                {
                    "name": "C2",
                    "midi": 36,
                    "time": 152.75824199999983,
                    "velocity": 0.3937007874015748,
                    "duration": 0.3264064999999903
                },
                {
                    "name": "G5",
                    "midi": 79,
                    "time": 153.4110549999998,
                    "velocity": 0.3937007874015748,
                    "duration": 0.3264064999999903
                },
                {
                    "name": "G5",
                    "midi": 79,
                    "time": 154.0638679999998,
                    "velocity": 0.4251968503937008,
                    "duration": 0.9792194999999992
                },
                {
                    "name": "E5",
                    "midi": 76,
                    "time": 155.04308749999979,
                    "velocity": 0.3700787401574803,
                    "duration": 0.3264064999999903
                },
                {
                    "name": "D5",
                    "midi": 74,
                    "time": 155.36949399999978,
                    "velocity": 0.3937007874015748,
                    "duration": 0.652813000000009
                },
                {
                    "name": "G4",
                    "midi": 67,
                    "time": 156.02230699999978,
                    "velocity": 0.3228346456692913,
                    "duration": 0.652813000000009
                },
                {
                    "name": "C5",
                    "midi": 72,
                    "time": 156.6751199999998,
                    "velocity": 0.3937007874015748,
                    "duration": 0.3264064999999903
                },
                {
                    "name": "G2",
                    "midi": 43,
                    "time": 157.81754274999977,
                    "velocity": 0.23622047244094488,
                    "duration": 0.16320325000000935
                },
                {
                    "name": "G1",
                    "midi": 31,
                    "time": 157.98074599999978,
                    "velocity": 0.3543307086614173,
                    "duration": 0.3264064999999903
                },
                {
                    "name": "F5",
                    "midi": 77,
                    "time": 158.63355899999976,
                    "velocity": 0.3937007874015748,
                    "duration": 0.3264064999999903
                },
                {
                    "name": "F5",
                    "midi": 77,
                    "time": 159.28637199999974,
                    "velocity": 0.4251968503937008,
                    "duration": 0.9792194999999992
                },
                {
                    "name": "D5",
                    "midi": 74,
                    "time": 160.26559149999974,
                    "velocity": 0.3700787401574803,
                    "duration": 0.3264064999999903
                },
                {
                    "name": "E5",
                    "midi": 76,
                    "time": 160.59199799999973,
                    "velocity": 0.3937007874015748,
                    "duration": 0.652813000000009
                },
                {
                    "name": "C5",
                    "midi": 72,
                    "time": 161.24481099999974,
                    "velocity": 0.3228346456692913,
                    "duration": 0.652813000000009
                },
                {
                    "name": "B4",
                    "midi": 71,
                    "time": 161.89762399999975,
                    "velocity": 0.3937007874015748,
                    "duration": 0.652813000000009
                },
                {
                    "name": "D5",
                    "midi": 74,
                    "time": 162.55043699999976,
                    "velocity": 0.3700787401574803,
                    "duration": 0.3264064999999903
                },
                {
                    "name": "G2",
                    "midi": 43,
                    "time": 163.04004674999976,
                    "velocity": 0.25196850393700787,
                    "duration": 0.16320325000000935
                },
                {
                    "name": "G1",
                    "midi": 31,
                    "time": 163.20324999999977,
                    "velocity": 0.3779527559055118,
                    "duration": 0.3264064999999903
                },
                {
                    "name": "F5",
                    "midi": 77,
                    "time": 163.85606299999975,
                    "velocity": 0.3937007874015748,
                    "duration": 0.3264064999999903
                },
                {
                    "name": "F5",
                    "midi": 77,
                    "time": 164.50887599999973,
                    "velocity": 0.4251968503937008,
                    "duration": 0.9792194999999992
                },
                {
                    "name": "D5",
                    "midi": 74,
                    "time": 165.48809549999973,
                    "velocity": 0.3700787401574803,
                    "duration": 0.3264064999999903
                },
                {
                    "name": "D#5",
                    "midi": 75,
                    "time": 165.81450199999972,
                    "velocity": 0.3937007874015748,
                    "duration": 0.652813000000009
                },
                {
                    "name": "C5",
                    "midi": 72,
                    "time": 166.46731499999973,
                    "velocity": 0.3228346456692913,
                    "duration": 0.652813000000009
                },
                {
                    "name": "B4",
                    "midi": 71,
                    "time": 167.12012799999974,
                    "velocity": 0.3937007874015748,
                    "duration": 0.652813000000009
                },
                {
                    "name": "D5",
                    "midi": 74,
                    "time": 167.77294099999975,
                    "velocity": 0.3700787401574803,
                    "duration": 0.652813000000009
                },
                {
                    "name": "E5",
                    "midi": 76,
                    "time": 168.42575399999976,
                    "velocity": 0.3937007874015748,
                    "duration": 0.652813000000009
                },
                {
                    "name": "C5",
                    "midi": 72,
                    "time": 169.07856699999977,
                    "velocity": 0.3228346456692913,
                    "duration": 0.652813000000009
                },
                {
                    "name": "B4",
                    "midi": 71,
                    "time": 169.73137999999977,
                    "velocity": 0.3937007874015748,
                    "duration": 0.652813000000009
                },
                {
                    "name": "D5",
                    "midi": 74,
                    "time": 170.38419299999978,
                    "velocity": 0.3700787401574803,
                    "duration": 0.652813000000009
                },
                {
                    "name": "D#5",
                    "midi": 75,
                    "time": 171.0370059999998,
                    "velocity": 0.3937007874015748,
                    "duration": 0.652813000000009
                },
                {
                    "name": "C5",
                    "midi": 72,
                    "time": 171.6898189999998,
                    "velocity": 0.3228346456692913,
                    "duration": 0.652813000000009
                },
                {
                    "name": "G5",
                    "midi": 79,
                    "time": 172.3426319999998,
                    "velocity": 0.3937007874015748,
                    "duration": 0.6460128645833265
                },
                {
                    "name": "G5",
                    "midi": 79,
                    "time": 172.9954449999998,
                    "velocity": 0.3700787401574803,
                    "duration": 0.6460128645833265
                },
                {
                    "name": "G5",
                    "midi": 79,
                    "time": 173.64825799999977,
                    "velocity": 0.3937007874015748,
                    "duration": 0.6460128645833265
                },
                {
                    "name": "G5",
                    "midi": 79,
                    "time": 174.30107099999975,
                    "velocity": 0.3700787401574803,
                    "duration": 0.6460128645833265
                },
                {
                    "name": "G5",
                    "midi": 79,
                    "time": 174.95388399999973,
                    "velocity": 0.3937007874015748,
                    "duration": 0.6460128645833265
                },
                {
                    "name": "G5",
                    "midi": 79,
                    "time": 175.6066969999997,
                    "velocity": 0.3700787401574803,
                    "duration": 0.6460128645833265
                },
                {
                    "name": "G5",
                    "midi": 79,
                    "time": 176.2595099999997,
                    "velocity": 0.3700787401574803,
                    "duration": 0.652813000000009
                },
                {
                    "name": "C2",
                    "midi": 36,
                    "time": 186.7045179999997,
                    "velocity": 0.3937007874015748,
                    "duration": 0.16320325000000935
                },
                {
                    "name": "G2",
                    "midi": 43,
                    "time": 186.8677212499997,
                    "velocity": 0.23622047244094488,
                    "duration": 0.16320325000000935
                },
                {
                    "name": "C3",
                    "midi": 48,
                    "time": 187.0309244999997,
                    "velocity": 0.25196850393700787,
                    "duration": 0.16320325000000935
                },
                {
                    "name": "E3",
                    "midi": 52,
                    "time": 187.19412774999972,
                    "velocity": 0.2677165354330709,
                    "duration": 0.16320325000000935
                },
                {
                    "name": "G3",
                    "midi": 55,
                    "time": 187.35733099999973,
                    "velocity": 0.2440944881889764,
                    "duration": 0.16320325000000935
                },
                {
                    "name": "C3",
                    "midi": 48,
                    "time": 187.52053424999974,
                    "velocity": 0.2440944881889764,
                    "duration": 0.16320325000000935
                },
                {
                    "name": "E3",
                    "midi": 52,
                    "time": 187.68373749999975,
                    "velocity": 0.2440944881889764,
                    "duration": 0.16320325000000935
                },
                {
                    "name": "G3",
                    "midi": 55,
                    "time": 187.84694074999976,
                    "velocity": 0.2755905511811024,
                    "duration": 0.16320325000000935
                },
                {
                    "name": "C4",
                    "midi": 60,
                    "time": 188.01014399999977,
                    "velocity": 0.23622047244094488,
                    "duration": 0.16320325000000935
                },
                {
                    "name": "E3",
                    "midi": 52,
                    "time": 188.17334724999978,
                    "velocity": 0.2440944881889764,
                    "duration": 0.16320325000000935
                },
                {
                    "name": "G3",
                    "midi": 55,
                    "time": 188.3365504999998,
                    "velocity": 0.25984251968503935,
                    "duration": 0.16320325000000935
                },
                {
                    "name": "C4",
                    "midi": 60,
                    "time": 188.4997537499998,
                    "velocity": 0.28346456692913385,
                    "duration": 0.16320325000000935
                },
                {
                    "name": "E4",
                    "midi": 64,
                    "time": 188.6629569999998,
                    "velocity": 0.25984251968503935,
                    "duration": 0.16320325000000935
                },
                {
                    "name": "G3",
                    "midi": 55,
                    "time": 188.82616024999982,
                    "velocity": 0.25984251968503935,
                    "duration": 0.16320325000000935
                },
                {
                    "name": "C4",
                    "midi": 60,
                    "time": 188.98936349999983,
                    "velocity": 0.25984251968503935,
                    "duration": 0.16320325000000935
                },
                {
                    "name": "E4",
                    "midi": 64,
                    "time": 189.15256674999983,
                    "velocity": 0.28346456692913385,
                    "duration": 0.16320325000000935
                },
                {
                    "name": "F4",
                    "midi": 65,
                    "time": 189.31576999999984,
                    "velocity": 0.2204724409448819,
                    "duration": 0.16320325000000935
                },
                {
                    "name": "E4",
                    "midi": 64,
                    "time": 189.47897324999985,
                    "velocity": 0.2440944881889764,
                    "duration": 0.16320325000000935
                },
                {
                    "name": "D4",
                    "midi": 62,
                    "time": 189.64217649999986,
                    "velocity": 0.25984251968503935,
                    "duration": 0.16320325000000935
                },
                {
                    "name": "C4",
                    "midi": 60,
                    "time": 189.80537974999987,
                    "velocity": 0.28346456692913385,
                    "duration": 0.16320325000000935
                },
                {
                    "name": "B3",
                    "midi": 59,
                    "time": 189.96858299999988,
                    "velocity": 0.25984251968503935,
                    "duration": 0.16320325000000935
                },
                {
                    "name": "A3",
                    "midi": 57,
                    "time": 190.1317862499999,
                    "velocity": 0.25984251968503935,
                    "duration": 0.16320325000000935
                },
                {
                    "name": "G3",
                    "midi": 55,
                    "time": 190.2949894999999,
                    "velocity": 0.2677165354330709,
                    "duration": 0.16320325000000935
                },
                {
                    "name": "F3",
                    "midi": 53,
                    "time": 190.4581927499999,
                    "velocity": 0.2677165354330709,
                    "duration": 0.16320325000000935
                },
                {
                    "name": "E3",
                    "midi": 52,
                    "time": 190.62139599999992,
                    "velocity": 0.2204724409448819,
                    "duration": 0.16320325000000935
                },
                {
                    "name": "G3",
                    "midi": 55,
                    "time": 190.78459924999993,
                    "velocity": 0.23622047244094488,
                    "duration": 0.16320325000000935
                },
                {
                    "name": "C3",
                    "midi": 48,
                    "time": 190.94780249999994,
                    "velocity": 0.25196850393700787,
                    "duration": 0.16320325000000935
                },
                {
                    "name": "E3",
                    "midi": 52,
                    "time": 191.11100574999995,
                    "velocity": 0.2677165354330709,
                    "duration": 0.16320325000000935
                },
                {
                    "name": "G2",
                    "midi": 43,
                    "time": 191.27420899999996,
                    "velocity": 0.25196850393700787,
                    "duration": 0.16320325000000935
                },
                {
                    "name": "C3",
                    "midi": 48,
                    "time": 191.43741224999997,
                    "velocity": 0.25196850393700787,
                    "duration": 0.16320325000000935
                },
                {
                    "name": "E2",
                    "midi": 40,
                    "time": 191.60061549999998,
                    "velocity": 0.25984251968503935,
                    "duration": 0.16320325000000935
                },
                {
                    "name": "G2",
                    "midi": 43,
                    "time": 191.76381874999998,
                    "velocity": 0.2677165354330709,
                    "duration": 0.16320325000000935
                },
                {
                    "name": "C2",
                    "midi": 36,
                    "time": 191.927022,
                    "velocity": 0.3937007874015748,
                    "duration": 0.16320325000000935
                },
                {
                    "name": "G2",
                    "midi": 43,
                    "time": 192.09022525,
                    "velocity": 0.23622047244094488,
                    "duration": 0.16320325000000935
                },
                {
                    "name": "C3",
                    "midi": 48,
                    "time": 192.2534285,
                    "velocity": 0.25196850393700787,
                    "duration": 0.16320325000000935
                },
                {
                    "name": "E3",
                    "midi": 52,
                    "time": 192.41663175000002,
                    "velocity": 0.2677165354330709,
                    "duration": 0.16320325000000935
                },
                {
                    "name": "G3",
                    "midi": 55,
                    "time": 192.57983500000003,
                    "velocity": 0.2440944881889764,
                    "duration": 0.16320325000000935
                },
                {
                    "name": "C3",
                    "midi": 48,
                    "time": 192.74303825000004,
                    "velocity": 0.2440944881889764,
                    "duration": 0.16320325000000935
                },
                {
                    "name": "E3",
                    "midi": 52,
                    "time": 192.90624150000005,
                    "velocity": 0.2440944881889764,
                    "duration": 0.16320325000000935
                },
                {
                    "name": "G3",
                    "midi": 55,
                    "time": 193.06944475000006,
                    "velocity": 0.2755905511811024,
                    "duration": 0.16320325000000935
                },
                {
                    "name": "C4",
                    "midi": 60,
                    "time": 193.23264800000007,
                    "velocity": 0.23622047244094488,
                    "duration": 0.16320325000000935
                },
                {
                    "name": "E3",
                    "midi": 52,
                    "time": 193.39585125000008,
                    "velocity": 0.2440944881889764,
                    "duration": 0.16320325000000935
                },
                {
                    "name": "G3",
                    "midi": 55,
                    "time": 193.5590545000001,
                    "velocity": 0.25984251968503935,
                    "duration": 0.16320325000000935
                },
                {
                    "name": "C4",
                    "midi": 60,
                    "time": 193.7222577500001,
                    "velocity": 0.28346456692913385,
                    "duration": 0.16320325000000935
                },
                {
                    "name": "E4",
                    "midi": 64,
                    "time": 193.8854610000001,
                    "velocity": 0.25984251968503935,
                    "duration": 0.16320325000000935
                },
                {
                    "name": "G3",
                    "midi": 55,
                    "time": 194.04866425000012,
                    "velocity": 0.25984251968503935,
                    "duration": 0.16320325000000935
                },
                {
                    "name": "C4",
                    "midi": 60,
                    "time": 194.21186750000012,
                    "velocity": 0.25984251968503935,
                    "duration": 0.16320325000000935
                },
                {
                    "name": "E4",
                    "midi": 64,
                    "time": 194.37507075000013,
                    "velocity": 0.25984251968503935,
                    "duration": 0.16320325000000935
                },
                {
                    "name": "F4",
                    "midi": 65,
                    "time": 194.53827400000014,
                    "velocity": 0.2204724409448819,
                    "duration": 0.16320325000000935
                },
                {
                    "name": "E4",
                    "midi": 64,
                    "time": 194.70147725000015,
                    "velocity": 0.2440944881889764,
                    "duration": 0.16320325000000935
                },
                {
                    "name": "D4",
                    "midi": 62,
                    "time": 194.86468050000016,
                    "velocity": 0.25984251968503935,
                    "duration": 0.16320325000000935
                },
                {
                    "name": "C4",
                    "midi": 60,
                    "time": 195.02788375000017,
                    "velocity": 0.28346456692913385,
                    "duration": 0.16320325000000935
                },
                {
                    "name": "B3",
                    "midi": 59,
                    "time": 195.19108700000018,
                    "velocity": 0.25984251968503935,
                    "duration": 0.16320325000000935
                },
                {
                    "name": "G3",
                    "midi": 55,
                    "time": 195.3542902500002,
                    "velocity": 0.25984251968503935,
                    "duration": 0.16320325000000935
                },
                {
                    "name": "A3",
                    "midi": 57,
                    "time": 195.5174935000002,
                    "velocity": 0.2677165354330709,
                    "duration": 0.16320325000000935
                },
                {
                    "name": "B3",
                    "midi": 59,
                    "time": 195.6806967500002,
                    "velocity": 0.2677165354330709,
                    "duration": 0.16320325000000935
                },
                {
                    "name": "C4",
                    "midi": 60,
                    "time": 195.84390000000022,
                    "velocity": 0.2204724409448819,
                    "duration": 0.16320325000000935
                },
                {
                    "name": "B3",
                    "midi": 59,
                    "time": 196.00710325000023,
                    "velocity": 0.23622047244094488,
                    "duration": 0.16320325000000935
                },
                {
                    "name": "A3",
                    "midi": 57,
                    "time": 196.17030650000024,
                    "velocity": 0.25196850393700787,
                    "duration": 0.16320325000000935
                },
                {
                    "name": "G3",
                    "midi": 55,
                    "time": 196.33350975000025,
                    "velocity": 0.2677165354330709,
                    "duration": 0.16320325000000935
                },
                {
                    "name": "F3",
                    "midi": 53,
                    "time": 196.49671300000026,
                    "velocity": 0.25196850393700787,
                    "duration": 0.16320325000000935
                },
                {
                    "name": "E3",
                    "midi": 52,
                    "time": 196.65991625000026,
                    "velocity": 0.25196850393700787,
                    "duration": 0.16320325000000935
                },
                {
                    "name": "D3",
                    "midi": 50,
                    "time": 196.82311950000027,
                    "velocity": 0.25984251968503935,
                    "duration": 0.16320325000000935
                },
                {
                    "name": "C3",
                    "midi": 48,
                    "time": 196.98632275000028,
                    "velocity": 0.2755905511811024,
                    "duration": 0.16320325000000935
                },
                {
                    "name": "G2",
                    "midi": 43,
                    "time": 197.1495260000003,
                    "velocity": 0.3543307086614173,
                    "duration": 0.16320325000000935
                },
                {
                    "name": "B2",
                    "midi": 47,
                    "time": 197.3127292500003,
                    "velocity": 0.23622047244094488,
                    "duration": 0.16320325000000935
                },
                {
                    "name": "D3",
                    "midi": 50,
                    "time": 197.4759325000003,
                    "velocity": 0.25196850393700787,
                    "duration": 0.16320325000000935
                },
                {
                    "name": "G3",
                    "midi": 55,
                    "time": 197.63913575000032,
                    "velocity": 0.2677165354330709,
                    "duration": 0.16320325000000935
                },
                {
                    "name": "B2",
                    "midi": 47,
                    "time": 197.80233900000033,
                    "velocity": 0.2440944881889764,
                    "duration": 0.16320325000000935
                },
                {
                    "name": "D3",
                    "midi": 50,
                    "time": 197.96554225000034,
                    "velocity": 0.2440944881889764,
                    "duration": 0.16320325000000935
                },
                {
                    "name": "G3",
                    "midi": 55,
                    "time": 198.12874550000035,
                    "velocity": 0.2440944881889764,
                    "duration": 0.16320325000000935
                },
                {
                    "name": "B3",
                    "midi": 59,
                    "time": 198.29194875000036,
                    "velocity": 0.2755905511811024,
                    "duration": 0.16320325000000935
                },
                {
                    "name": "D3",
                    "midi": 50,
                    "time": 198.45515200000037,
                    "velocity": 0.23622047244094488,
                    "duration": 0.16320325000000935
                },
                {
                    "name": "G3",
                    "midi": 55,
                    "time": 198.61835525000038,
                    "velocity": 0.2440944881889764,
                    "duration": 0.16320325000000935
                },
                {
                    "name": "B3",
                    "midi": 59,
                    "time": 198.7815585000004,
                    "velocity": 0.25984251968503935,
                    "duration": 0.16320325000000935
                },
                {
                    "name": "D4",
                    "midi": 62,
                    "time": 198.9447617500004,
                    "velocity": 0.28346456692913385,
                    "duration": 0.16320325000000935
                },
                {
                    "name": "G3",
                    "midi": 55,
                    "time": 199.1079650000004,
                    "velocity": 0.25984251968503935,
                    "duration": 0.16320325000000935
                },
                {
                    "name": "B3",
                    "midi": 59,
                    "time": 199.27116825000041,
                    "velocity": 0.25984251968503935,
                    "duration": 0.16320325000000935
                },
                {
                    "name": "D4",
                    "midi": 62,
                    "time": 199.43437150000042,
                    "velocity": 0.25984251968503935,
                    "duration": 0.16320325000000935
                },
                {
                    "name": "G4",
                    "midi": 67,
                    "time": 199.59757475000043,
                    "velocity": 0.28346456692913385,
                    "duration": 0.16320325000000935
                },
                {
                    "name": "G3",
                    "midi": 55,
                    "time": 199.76077800000044,
                    "velocity": 0.2204724409448819,
                    "duration": 0.16320325000000935
                },
                {
                    "name": "C4",
                    "midi": 60,
                    "time": 199.92398125000045,
                    "velocity": 0.2440944881889764,
                    "duration": 0.16320325000000935
                },
                {
                    "name": "G4",
                    "midi": 67,
                    "time": 200.08718450000046,
                    "velocity": 0.25984251968503935,
                    "duration": 0.16320325000000935
                },
                {
                    "name": "C4",
                    "midi": 60,
                    "time": 200.25038775000047,
                    "velocity": 0.28346456692913385,
                    "duration": 0.16320325000000935
                },
                {
                    "name": "G3",
                    "midi": 55,
                    "time": 200.41359100000048,
                    "velocity": 0.2204724409448819,
                    "duration": 0.16320325000000935
                },
                {
                    "name": "E4",
                    "midi": 64,
                    "time": 200.5767942500005,
                    "velocity": 0.2440944881889764,
                    "duration": 0.16320325000000935
                },
                {
                    "name": "G4",
                    "midi": 67,
                    "time": 200.7399975000005,
                    "velocity": 0.25984251968503935,
                    "duration": 0.16320325000000935
                },
                {
                    "name": "E4",
                    "midi": 64,
                    "time": 200.9032007500005,
                    "velocity": 0.28346456692913385,
                    "duration": 0.16320325000000935
                },
                {
                    "name": "G3",
                    "midi": 55,
                    "time": 201.06640400000052,
                    "velocity": 0.2204724409448819,
                    "duration": 0.16320325000000935
                },
                {
                    "name": "D4",
                    "midi": 62,
                    "time": 201.22960725000053,
                    "velocity": 0.23622047244094488,
                    "duration": 0.16320325000000935
                },
                {
                    "name": "G4",
                    "midi": 67,
                    "time": 201.39281050000054,
                    "velocity": 0.25196850393700787,
                    "duration": 0.16320325000000935
                },
                {
                    "name": "D4",
                    "midi": 62,
                    "time": 201.55601375000055,
                    "velocity": 0.28346456692913385,
                    "duration": 0.16320325000000935
                },
                {
                    "name": "G3",
                    "midi": 55,
                    "time": 201.71921700000055,
                    "velocity": 0.2204724409448819,
                    "duration": 0.16320325000000935
                },
                {
                    "name": "B3",
                    "midi": 59,
                    "time": 201.88242025000056,
                    "velocity": 0.23622047244094488,
                    "duration": 0.16320325000000935
                },
                {
                    "name": "G4",
                    "midi": 67,
                    "time": 202.04562350000057,
                    "velocity": 0.25196850393700787,
                    "duration": 0.16320325000000935
                },
                {
                    "name": "B3",
                    "midi": 59,
                    "time": 202.20882675000058,
                    "velocity": 0.2755905511811024,
                    "duration": 0.16320325000000935
                },
                {
                    "name": "G2",
                    "midi": 43,
                    "time": 202.3720300000006,
                    "velocity": 0.3779527559055118,
                    "duration": 0.16320325000000935
                },
                {
                    "name": "B2",
                    "midi": 47,
                    "time": 202.5352332500006,
                    "velocity": 0.23622047244094488,
                    "duration": 0.16320325000000935
                },
                {
                    "name": "D3",
                    "midi": 50,
                    "time": 202.6984365000006,
                    "velocity": 0.25196850393700787,
                    "duration": 0.16320325000000935
                },
                {
                    "name": "G3",
                    "midi": 55,
                    "time": 202.86163975000062,
                    "velocity": 0.2677165354330709,
                    "duration": 0.16320325000000935
                },
                {
                    "name": "B2",
                    "midi": 47,
                    "time": 203.02484300000063,
                    "velocity": 0.2440944881889764,
                    "duration": 0.16320325000000935
                },
                {
                    "name": "D3",
                    "midi": 50,
                    "time": 203.18804625000064,
                    "velocity": 0.2440944881889764,
                    "duration": 0.16320325000000935
                },
                {
                    "name": "G3",
                    "midi": 55,
                    "time": 203.35124950000065,
                    "velocity": 0.2440944881889764,
                    "duration": 0.16320325000000935
                },
                {
                    "name": "B3",
                    "midi": 59,
                    "time": 203.51445275000066,
                    "velocity": 0.2755905511811024,
                    "duration": 0.16320325000000935
                },
                {
                    "name": "D3",
                    "midi": 50,
                    "time": 203.67765600000067,
                    "velocity": 0.23622047244094488,
                    "duration": 0.16320325000000935
                },
                {
                    "name": "G3",
                    "midi": 55,
                    "time": 203.84085925000068,
                    "velocity": 0.2440944881889764,
                    "duration": 0.16320325000000935
                },
                {
                    "name": "B3",
                    "midi": 59,
                    "time": 204.00406250000069,
                    "velocity": 0.25984251968503935,
                    "duration": 0.16320325000000935
                },
                {
                    "name": "D4",
                    "midi": 62,
                    "time": 204.1672657500007,
                    "velocity": 0.28346456692913385,
                    "duration": 0.16320325000000935
                },
                {
                    "name": "G3",
                    "midi": 55,
                    "time": 204.3304690000007,
                    "velocity": 0.25984251968503935,
                    "duration": 0.16320325000000935
                },
                {
                    "name": "B3",
                    "midi": 59,
                    "time": 204.4936722500007,
                    "velocity": 0.25984251968503935,
                    "duration": 0.16320325000000935
                },
                {
                    "name": "D4",
                    "midi": 62,
                    "time": 204.65687550000072,
                    "velocity": 0.25984251968503935,
                    "duration": 0.16320325000000935
                },
                {
                    "name": "G4",
                    "midi": 67,
                    "time": 204.82007875000073,
                    "velocity": 0.28346456692913385,
                    "duration": 0.16320325000000935
                },
                {
                    "name": "G3",
                    "midi": 55,
                    "time": 204.98328200000074,
                    "velocity": 0.2204724409448819,
                    "duration": 0.16320325000000935
                },
                {
                    "name": "C4",
                    "midi": 60,
                    "time": 205.14648525000075,
                    "velocity": 0.2440944881889764,
                    "duration": 0.16320325000000935
                },
                {
                    "name": "G4",
                    "midi": 67,
                    "time": 205.30968850000076,
                    "velocity": 0.25984251968503935,
                    "duration": 0.16320325000000935
                },
                {
                    "name": "C4",
                    "midi": 60,
                    "time": 205.47289175000077,
                    "velocity": 0.2755905511811024,
                    "duration": 0.16320325000000935
                },
                {
                    "name": "G3",
                    "midi": 55,
                    "time": 205.63609500000078,
                    "velocity": 0.2204724409448819,
                    "duration": 0.16320325000000935
                },
                {
                    "name": "D#4",
                    "midi": 63,
                    "time": 205.7992982500008,
                    "velocity": 0.2440944881889764,
                    "duration": 0.16320325000000935
                },
                {
                    "name": "G4",
                    "midi": 67,
                    "time": 205.9625015000008,
                    "velocity": 0.25984251968503935,
                    "duration": 0.16320325000000935
                },
                {
                    "name": "D#4",
                    "midi": 63,
                    "time": 206.1257047500008,
                    "velocity": 0.2755905511811024,
                    "duration": 0.16320325000000935
                },
                {
                    "name": "G3",
                    "midi": 55,
                    "time": 206.28890800000082,
                    "velocity": 0.2204724409448819,
                    "duration": 0.16320325000000935
                },
                {
                    "name": "D4",
                    "midi": 62,
                    "time": 206.45211125000083,
                    "velocity": 0.23622047244094488,
                    "duration": 0.16320325000000935
                },
                {
                    "name": "G4",
                    "midi": 67,
                    "time": 206.61531450000084,
                    "velocity": 0.25196850393700787,
                    "duration": 0.16320325000000935
                },
                {
                    "name": "D4",
                    "midi": 62,
                    "time": 206.77851775000084,
                    "velocity": 0.2755905511811024,
                    "duration": 0.16320325000000935
                },
                {
                    "name": "G3",
                    "midi": 55,
                    "time": 206.94172100000085,
                    "velocity": 0.2204724409448819,
                    "duration": 0.16320325000000935
                },
                {
                    "name": "B3",
                    "midi": 59,
                    "time": 207.10492425000086,
                    "velocity": 0.23622047244094488,
                    "duration": 0.16320325000000935
                },
                {
                    "name": "G4",
                    "midi": 67,
                    "time": 207.26812750000087,
                    "velocity": 0.25196850393700787,
                    "duration": 0.16320325000000935
                },
                {
                    "name": "B3",
                    "midi": 59,
                    "time": 207.43133075000088,
                    "velocity": 0.2755905511811024,
                    "duration": 0.16320325000000935
                },
                {
                    "name": "G3",
                    "midi": 55,
                    "time": 207.5945340000009,
                    "velocity": 0.2204724409448819,
                    "duration": 0.16320325000000935
                },
                {
                    "name": "C4",
                    "midi": 60,
                    "time": 207.7577372500009,
                    "velocity": 0.2440944881889764,
                    "duration": 0.16320325000000935
                },
                {
                    "name": "G4",
                    "midi": 67,
                    "time": 207.9209405000009,
                    "velocity": 0.25984251968503935,
                    "duration": 0.16320325000000935
                },
                {
                    "name": "C4",
                    "midi": 60,
                    "time": 208.08414375000092,
                    "velocity": 0.2755905511811024,
                    "duration": 0.16320325000000935
                },
                {
                    "name": "G3",
                    "midi": 55,
                    "time": 208.24734700000093,
                    "velocity": 0.2204724409448819,
                    "duration": 0.16320325000000935
                },
                {
                    "name": "E4",
                    "midi": 64,
                    "time": 208.41055025000094,
                    "velocity": 0.25196850393700787,
                    "duration": 0.16320325000000935
                },
                {
                    "name": "G4",
                    "midi": 67,
                    "time": 208.57375350000095,
                    "velocity": 0.2677165354330709,
                    "duration": 0.16320325000000935
                },
                {
                    "name": "E4",
                    "midi": 64,
                    "time": 208.73695675000096,
                    "velocity": 0.29133858267716534,
                    "duration": 0.16320325000000935
                },
                {
                    "name": "G3",
                    "midi": 55,
                    "time": 208.90016000000097,
                    "velocity": 0.2283464566929134,
                    "duration": 0.16320325000000935
                },
                {
                    "name": "D4",
                    "midi": 62,
                    "time": 209.06336325000098,
                    "velocity": 0.25196850393700787,
                    "duration": 0.16320325000000935
                },
                {
                    "name": "G4",
                    "midi": 67,
                    "time": 209.22656650000098,
                    "velocity": 0.2677165354330709,
                    "duration": 0.16320325000000935
                },
                {
                    "name": "D4",
                    "midi": 62,
                    "time": 209.389769750001,
                    "velocity": 0.2992125984251969,
                    "duration": 0.16320325000000935
                },
                {
                    "name": "G3",
                    "midi": 55,
                    "time": 209.552973000001,
                    "velocity": 0.2440944881889764,
                    "duration": 0.16320325000000935
                },
                {
                    "name": "B3",
                    "midi": 59,
                    "time": 209.716176250001,
                    "velocity": 0.25984251968503935,
                    "duration": 0.16320325000000935
                },
                {
                    "name": "G4",
                    "midi": 67,
                    "time": 209.87937950000102,
                    "velocity": 0.28346456692913385,
                    "duration": 0.16320325000000935
                },
                {
                    "name": "B3",
                    "midi": 59,
                    "time": 210.04258275000103,
                    "velocity": 0.30708661417322836,
                    "duration": 0.16320325000000935
                },
                {
                    "name": "G3",
                    "midi": 55,
                    "time": 210.20578600000104,
                    "velocity": 0.2204724409448819,
                    "duration": 0.16320325000000935
                },
                {
                    "name": "C4",
                    "midi": 60,
                    "time": 210.36898925000105,
                    "velocity": 0.2440944881889764,
                    "duration": 0.16320325000000935
                },
                {
                    "name": "G4",
                    "midi": 67,
                    "time": 210.53219250000106,
                    "velocity": 0.25984251968503935,
                    "duration": 0.16320325000000935
                },
                {
                    "name": "C4",
                    "midi": 60,
                    "time": 210.69539575000107,
                    "velocity": 0.2755905511811024,
                    "duration": 0.16320325000000935
                },
                {
                    "name": "G3",
                    "midi": 55,
                    "time": 210.85859900000108,
                    "velocity": 0.2204724409448819,
                    "duration": 0.16320325000000935
                },
                {
                    "name": "C4",
                    "midi": 60,
                    "time": 211.0218022500011,
                    "velocity": 0.2440944881889764,
                    "duration": 0.16320325000000935
                },
                {
                    "name": "D#4",
                    "midi": 63,
                    "time": 211.1850055000011,
                    "velocity": 0.25984251968503935,
                    "duration": 0.16320325000000935
                },
                {
                    "name": "C4",
                    "midi": 60,
                    "time": 211.3482087500011,
                    "velocity": 0.2755905511811024,
                    "duration": 0.16320325000000935
                },
                {
                    "name": "G3",
                    "midi": 55,
                    "time": 211.51141200000112,
                    "velocity": 0.2204724409448819,
                    "duration": 0.16320325000000935
                },
                {
                    "name": "B3",
                    "midi": 59,
                    "time": 211.67461525000112,
                    "velocity": 0.23622047244094488,
                    "duration": 0.16320325000000935
                },
                {
                    "name": "D4",
                    "midi": 62,
                    "time": 211.83781850000113,
                    "velocity": 0.25196850393700787,
                    "duration": 0.16320325000000935
                },
                {
                    "name": "B3",
                    "midi": 59,
                    "time": 212.00102175000114,
                    "velocity": 0.2755905511811024,
                    "duration": 0.16320325000000935
                },
                {
                    "name": "G3",
                    "midi": 55,
                    "time": 212.16422500000115,
                    "velocity": 0.2204724409448819,
                    "duration": 0.16320325000000935
                },
                {
                    "name": "C4",
                    "midi": 60,
                    "time": 212.32742825000116,
                    "velocity": 0.23622047244094488,
                    "duration": 0.16320325000000935
                },
                {
                    "name": "D#4",
                    "midi": 63,
                    "time": 212.49063150000117,
                    "velocity": 0.25196850393700787,
                    "duration": 0.16320325000000935
                },
                {
                    "name": "C4",
                    "midi": 60,
                    "time": 212.65383475000118,
                    "velocity": 0.2755905511811024,
                    "duration": 0.16320325000000935
                },
                {
                    "name": "G3",
                    "midi": 55,
                    "time": 212.8170380000012,
                    "velocity": 0.3700787401574803,
                    "duration": 0.08160162499999046
                },
                {
                    "name": "B3",
                    "midi": 59,
                    "time": 212.98024125000117,
                    "velocity": 0.23622047244094488,
                    "duration": 0.16320325000000935
                },
                {
                    "name": "D4",
                    "midi": 62,
                    "time": 213.14344450000118,
                    "velocity": 0.2440944881889764,
                    "duration": 0.16320325000000935
                },
                {
                    "name": "B3",
                    "midi": 59,
                    "time": 213.3066477500012,
                    "velocity": 0.25196850393700787,
                    "duration": 0.16320325000000935
                },
                {
                    "name": "G3",
                    "midi": 55,
                    "time": 213.4698510000012,
                    "velocity": 0.41732283464566927,
                    "duration": 0.08160162499999046
                },
                {
                    "name": "C4",
                    "midi": 60,
                    "time": 213.63305425000118,
                    "velocity": 0.25196850393700787,
                    "duration": 0.16320325000000935
                },
                {
                    "name": "E4",
                    "midi": 64,
                    "time": 213.7962575000012,
                    "velocity": 0.25984251968503935,
                    "duration": 0.16320325000000935
                },
                {
                    "name": "C4",
                    "midi": 60,
                    "time": 213.9594607500012,
                    "velocity": 0.2677165354330709,
                    "duration": 0.16320325000000935
                },
                {
                    "name": "G3",
                    "midi": 55,
                    "time": 214.1226640000012,
                    "velocity": 0.44881889763779526,
                    "duration": 0.08160162499999046
                },
                {
                    "name": "B3",
                    "midi": 59,
                    "time": 214.2858672500012,
                    "velocity": 0.2755905511811024,
                    "duration": 0.16320325000000935
                },
                {
                    "name": "D4",
                    "midi": 62,
                    "time": 214.4490705000012,
                    "velocity": 0.2992125984251969,
                    "duration": 0.16320325000000935
                },
                {
                    "name": "B3",
                    "midi": 59,
                    "time": 214.6122737500012,
                    "velocity": 0.2992125984251969,
                    "duration": 0.16320325000000935
                },
                {
                    "name": "G3",
                    "midi": 55,
                    "time": 214.77547700000122,
                    "velocity": 0.5039370078740157,
                    "duration": 0.08160162499999046
                },
                {
                    "name": "A3",
                    "midi": 57,
                    "time": 214.9386802500012,
                    "velocity": 0.30708661417322836,
                    "duration": 0.16320325000000935
                },
                {
                    "name": "C4",
                    "midi": 60,
                    "time": 215.1018835000012,
                    "velocity": 0.3228346456692913,
                    "duration": 0.16320325000000935
                },
                {
                    "name": "A3",
                    "midi": 57,
                    "time": 215.26508675000122,
                    "velocity": 0.33858267716535434,
                    "duration": 0.16320325000000935
                },
                {
                    "name": "G3",
                    "midi": 55,
                    "time": 215.42829000000123,
                    "velocity": 0.5590551181102362,
                    "duration": 0.08160162499999046
                },
                {
                    "name": "B3",
                    "midi": 59,
                    "time": 215.5914932500012,
                    "velocity": 0.3700787401574803,
                    "duration": 0.16320325000000935
                },
                {
                    "name": "A3",
                    "midi": 57,
                    "time": 215.75469650000122,
                    "velocity": 0.3858267716535433,
                    "duration": 0.16320325000000935
                },
                {
                    "name": "G3",
                    "midi": 55,
                    "time": 215.91789975000123,
                    "velocity": 0.3937007874015748,
                    "duration": 0.16320325000000935
                },
                {
                    "name": "F3",
                    "midi": 53,
                    "time": 216.08110300000124,
                    "velocity": 0.5984251968503937,
                    "duration": 0.08160162499999046
                },
                {
                    "name": "A3",
                    "midi": 57,
                    "time": 216.24430625000122,
                    "velocity": 0.4330708661417323,
                    "duration": 0.16320325000000935
                },
                {
                    "name": "G3",
                    "midi": 55,
                    "time": 216.40750950000123,
                    "velocity": 0.4566929133858268,
                    "duration": 0.16320325000000935
                },
                {
                    "name": "F3",
                    "midi": 53,
                    "time": 216.57071275000123,
                    "velocity": 0.4881889763779528,
                    "duration": 0.16320325000000935
                },
                {
                    "name": "E3",
                    "midi": 52,
                    "time": 216.73391600000124,
                    "velocity": 0.6692913385826772,
                    "duration": 0.08160162499999046
                },
                {
                    "name": "G3",
                    "midi": 55,
                    "time": 216.89711925000123,
                    "velocity": 0.49606299212598426,
                    "duration": 0.16320325000000935
                },
                {
                    "name": "F3",
                    "midi": 53,
                    "time": 217.06032250000123,
                    "velocity": 0.5354330708661418,
                    "duration": 0.16320325000000935
                },
                {
                    "name": "E3",
                    "midi": 52,
                    "time": 217.22352575000124,
                    "velocity": 0.5511811023622047,
                    "duration": 0.16320325000000935
                },
                {
                    "name": "D3",
                    "midi": 50,
                    "time": 217.38672900000125,
                    "velocity": 0.7086614173228346,
                    "duration": 0.08160162499999046
                },
                {
                    "name": "F3",
                    "midi": 53,
                    "time": 217.54993225000123,
                    "velocity": 0.5669291338582677,
                    "duration": 0.16320325000000935
                },
                {
                    "name": "E3",
                    "midi": 52,
                    "time": 217.71313550000124,
                    "velocity": 0.5748031496062992,
                    "duration": 0.16320325000000935
                },
                {
                    "name": "D3",
                    "midi": 50,
                    "time": 217.87633875000125,
                    "velocity": 0.6220472440944882,
                    "duration": 0.16320325000000935
                },
                {
                    "name": "C2",
                    "midi": 36,
                    "time": 218.03954200000126,
                    "velocity": 0.7401574803149606,
                    "duration": 0.3264064999999903
                },
                {
                    "name": "C3",
                    "midi": 48,
                    "time": 218.03954200000126,
                    "velocity": 0.7401574803149606,
                    "duration": 0.3264064999999903
                },
                {
                    "name": "D3",
                    "midi": 50,
                    "time": 218.20274525000127,
                    "velocity": 0.4409448818897638,
                    "duration": 0.08160162499999046
                },
                {
                    "name": "E3",
                    "midi": 52,
                    "time": 218.28434687500126,
                    "velocity": 0.44881889763779526,
                    "duration": 0.08160162499999046
                },
                {
                    "name": "F3",
                    "midi": 53,
                    "time": 218.36594850000125,
                    "velocity": 0.47244094488188976,
                    "duration": 0.08160162499999046
                },
                {
                    "name": "G3",
                    "midi": 55,
                    "time": 218.44755012500124,
                    "velocity": 0.47244094488188976,
                    "duration": 0.08160162499999046
                },
                {
                    "name": "A3",
                    "midi": 57,
                    "time": 218.52915175000123,
                    "velocity": 0.4881889763779528,
                    "duration": 0.08160162499999046
                },
                {
                    "name": "B3",
                    "midi": 59,
                    "time": 218.61075337500122,
                    "velocity": 0.49606299212598426,
                    "duration": 0.08160162499999046
                },
                {
                    "name": "C4",
                    "midi": 60,
                    "time": 218.6923550000012,
                    "velocity": 0.49606299212598426,
                    "duration": 0.16320325000000935
                },
                {
                    "name": "D4",
                    "midi": 62,
                    "time": 218.85555825000122,
                    "velocity": 0.5118110236220472,
                    "duration": 0.08160162499999046
                },
                {
                    "name": "E4",
                    "midi": 64,
                    "time": 218.9371598750012,
                    "velocity": 0.5196850393700787,
                    "duration": 0.08160162499999046
                },
                {
                    "name": "F4",
                    "midi": 65,
                    "time": 219.0187615000012,
                    "velocity": 0.5275590551181102,
                    "duration": 0.08160162499999046
                },
                {
                    "name": "G4",
                    "midi": 67,
                    "time": 219.1003631250012,
                    "velocity": 0.5433070866141733,
                    "duration": 0.08160162499999046
                },
                {
                    "name": "A4",
                    "midi": 69,
                    "time": 219.18196475000119,
                    "velocity": 0.5511811023622047,
                    "duration": 0.08160162499999046
                },
                {
                    "name": "B4",
                    "midi": 71,
                    "time": 219.26356637500118,
                    "velocity": 0.5590551181102362,
                    "duration": 0.08160162499999046
                },
                {
                    "name": "C5",
                    "midi": 72,
                    "time": 219.34516800000117,
                    "velocity": 0.5826771653543307,
                    "duration": 0.08160162499999046
                },
                {
                    "name": "B4",
                    "midi": 71,
                    "time": 219.50837125000115,
                    "velocity": 0.5590551181102362,
                    "duration": 0.08160162499999046
                },
                {
                    "name": "A4",
                    "midi": 69,
                    "time": 219.67157450000113,
                    "velocity": 0.5590551181102362,
                    "duration": 0.08160162499999046
                },
                {
                    "name": "G4",
                    "midi": 67,
                    "time": 219.8347777500011,
                    "velocity": 0.5590551181102362,
                    "duration": 0.08160162499999046
                },
                {
                    "name": "F4",
                    "midi": 65,
                    "time": 219.9979810000011,
                    "velocity": 0.5669291338582677,
                    "duration": 0.08160162499999046
                },
                {
                    "name": "E4",
                    "midi": 64,
                    "time": 220.16118425000107,
                    "velocity": 0.5433070866141733,
                    "duration": 0.08160162499999046
                },
                {
                    "name": "D4",
                    "midi": 62,
                    "time": 220.32438750000105,
                    "velocity": 0.5433070866141733,
                    "duration": 0.08160162499999046
                },
                {
                    "name": "C4",
                    "midi": 60,
                    "time": 220.48759075000103,
                    "velocity": 0.5275590551181102,
                    "duration": 0.08160162499999046
                },
                {
                    "name": "B3",
                    "midi": 59,
                    "time": 220.650794000001,
                    "velocity": 0.5748031496062992,
                    "duration": 0.08160162499999046
                },
                {
                    "name": "C4",
                    "midi": 60,
                    "time": 220.813997250001,
                    "velocity": 0.5433070866141733,
                    "duration": 0.08160162499999046
                },
                {
                    "name": "B3",
                    "midi": 59,
                    "time": 220.97720050000098,
                    "velocity": 0.5433070866141733,
                    "duration": 0.08160162499999046
                },
                {
                    "name": "A3",
                    "midi": 57,
                    "time": 221.14040375000096,
                    "velocity": 0.5433070866141733,
                    "duration": 0.08160162499999046
                },
                {
                    "name": "G3",
                    "midi": 55,
                    "time": 221.30360700000094,
                    "velocity": 0.5905511811023622,
                    "duration": 0.08160162499999046
                },
                {
                    "name": "F3",
                    "midi": 53,
                    "time": 221.46681025000092,
                    "velocity": 0.5433070866141733,
                    "duration": 0.08160162499999046
                },
                {
                    "name": "E3",
                    "midi": 52,
                    "time": 221.6300135000009,
                    "velocity": 0.5433070866141733,
                    "duration": 0.08160162499999046
                },
                {
                    "name": "D3",
                    "midi": 50,
                    "time": 221.79321675000088,
                    "velocity": 0.5433070866141733,
                    "duration": 0.08160162499999046
                },
                {
                    "name": "C3",
                    "midi": 48,
                    "time": 221.95642000000086,
                    "velocity": 0.5905511811023622,
                    "duration": 0.08160162499999046
                },
                {
                    "name": "C3",
                    "midi": 48,
                    "time": 222.11962325000084,
                    "velocity": 0.5433070866141733,
                    "duration": 0.08160162499999046
                },
                {
                    "name": "B2",
                    "midi": 47,
                    "time": 222.28282650000082,
                    "velocity": 0.5433070866141733,
                    "duration": 0.08160162499999046
                },
                {
                    "name": "A2",
                    "midi": 45,
                    "time": 222.4460297500008,
                    "velocity": 0.5433070866141733,
                    "duration": 0.08160162499999046
                },
                {
                    "name": "G2",
                    "midi": 43,
                    "time": 222.60923300000078,
                    "velocity": 0.5669291338582677,
                    "duration": 0.08160162499999046
                },
                {
                    "name": "F2",
                    "midi": 41,
                    "time": 222.77243625000077,
                    "velocity": 0.5590551181102362,
                    "duration": 0.08160162499999046
                },
                {
                    "name": "E2",
                    "midi": 40,
                    "time": 222.93563950000075,
                    "velocity": 0.5905511811023622,
                    "duration": 0.08160162499999046
                },
                {
                    "name": "D2",
                    "midi": 38,
                    "time": 223.09884275000073,
                    "velocity": 0.6299212598425197,
                    "duration": 0.08160162499999046
                },
                {
                    "name": "C2",
                    "midi": 36,
                    "time": 223.2620460000007,
                    "velocity": 0.7480314960629921,
                    "duration": 0.3264064999999903
                },
                {
                    "name": "C3",
                    "midi": 48,
                    "time": 223.2620460000007,
                    "velocity": 0.7480314960629921,
                    "duration": 0.3264064999999903
                },
                {
                    "name": "D3",
                    "midi": 50,
                    "time": 223.42524925000072,
                    "velocity": 0.4409448818897638,
                    "duration": 0.08160162499999046
                },
                {
                    "name": "E3",
                    "midi": 52,
                    "time": 223.5068508750007,
                    "velocity": 0.44881889763779526,
                    "duration": 0.08160162499999046
                },
                {
                    "name": "F3",
                    "midi": 53,
                    "time": 223.5884525000007,
                    "velocity": 0.47244094488188976,
                    "duration": 0.08160162499999046
                },
                {
                    "name": "G3",
                    "midi": 55,
                    "time": 223.6700541250007,
                    "velocity": 0.47244094488188976,
                    "duration": 0.08160162499999046
                },
                {
                    "name": "A3",
                    "midi": 57,
                    "time": 223.75165575000068,
                    "velocity": 0.4881889763779528,
                    "duration": 0.08160162499999046
                },
                {
                    "name": "B3",
                    "midi": 59,
                    "time": 223.83325737500067,
                    "velocity": 0.49606299212598426,
                    "duration": 0.08160162499999046
                },
                {
                    "name": "C4",
                    "midi": 60,
                    "time": 223.91485900000066,
                    "velocity": 0.49606299212598426,
                    "duration": 0.16320325000000935
                },
                {
                    "name": "D4",
                    "midi": 62,
                    "time": 224.07806225000067,
                    "velocity": 0.5118110236220472,
                    "duration": 0.08160162499999046
                },
                {
                    "name": "E4",
                    "midi": 64,
                    "time": 224.15966387500066,
                    "velocity": 0.5196850393700787,
                    "duration": 0.08160162499999046
                },
                {
                    "name": "F4",
                    "midi": 65,
                    "time": 224.24126550000065,
                    "velocity": 0.5275590551181102,
                    "duration": 0.08160162499999046
                },
                {
                    "name": "G4",
                    "midi": 67,
                    "time": 224.32286712500064,
                    "velocity": 0.5433070866141733,
                    "duration": 0.08160162499999046
                },
                {
                    "name": "A4",
                    "midi": 69,
                    "time": 224.40446875000063,
                    "velocity": 0.5511811023622047,
                    "duration": 0.08160162499999046
                },
                {
                    "name": "B4",
                    "midi": 71,
                    "time": 224.48607037500062,
                    "velocity": 0.5590551181102362,
                    "duration": 0.08160162499999046
                },
                {
                    "name": "C5",
                    "midi": 72,
                    "time": 224.5676720000006,
                    "velocity": 0.5826771653543307,
                    "duration": 0.08160162499999046
                },
                {
                    "name": "B4",
                    "midi": 71,
                    "time": 224.7308752500006,
                    "velocity": 0.5590551181102362,
                    "duration": 0.08160162499999046
                },
                {
                    "name": "A4",
                    "midi": 69,
                    "time": 224.89407850000057,
                    "velocity": 0.5590551181102362,
                    "duration": 0.08160162499999046
                },
                {
                    "name": "G4",
                    "midi": 67,
                    "time": 225.05728175000056,
                    "velocity": 0.5590551181102362,
                    "duration": 0.08160162499999046
                },
                {
                    "name": "F4",
                    "midi": 65,
                    "time": 225.22048500000054,
                    "velocity": 0.5669291338582677,
                    "duration": 0.08160162499999046
                },
                {
                    "name": "E4",
                    "midi": 64,
                    "time": 225.38368825000052,
                    "velocity": 0.5433070866141733,
                    "duration": 0.08160162499999046
                },
                {
                    "name": "D4",
                    "midi": 62,
                    "time": 225.5468915000005,
                    "velocity": 0.5433070866141733,
                    "duration": 0.08160162499999046
                },
                {
                    "name": "C4",
                    "midi": 60,
                    "time": 225.71009475000048,
                    "velocity": 0.5275590551181102,
                    "duration": 0.08160162499999046
                },
                {
                    "name": "B3",
                    "midi": 59,
                    "time": 225.87329800000046,
                    "velocity": 0.5748031496062992,
                    "duration": 0.08160162499999046
                },
                {
                    "name": "C4",
                    "midi": 60,
                    "time": 226.03650125000044,
                    "velocity": 0.5433070866141733,
                    "duration": 0.08160162499999046
                },
                {
                    "name": "B3",
                    "midi": 59,
                    "time": 226.19970450000042,
                    "velocity": 0.5433070866141733,
                    "duration": 0.08160162499999046
                },
                {
                    "name": "A3",
                    "midi": 57,
                    "time": 226.3629077500004,
                    "velocity": 0.5433070866141733,
                    "duration": 0.08160162499999046
                },
                {
                    "name": "G3",
                    "midi": 55,
                    "time": 226.52611100000038,
                    "velocity": 0.5905511811023622,
                    "duration": 0.08160162499999046
                },
                {
                    "name": "F3",
                    "midi": 53,
                    "time": 226.68931425000036,
                    "velocity": 0.5433070866141733,
                    "duration": 0.08160162499999046
                },
                {
                    "name": "E3",
                    "midi": 52,
                    "time": 226.85251750000035,
                    "velocity": 0.5433070866141733,
                    "duration": 0.08160162499999046
                },
                {
                    "name": "D3",
                    "midi": 50,
                    "time": 227.01572075000033,
                    "velocity": 0.5433070866141733,
                    "duration": 0.08160162499999046
                },
                {
                    "name": "C3",
                    "midi": 48,
                    "time": 227.1789240000003,
                    "velocity": 0.5905511811023622,
                    "duration": 0.3264064999999903
                },
                {
                    "name": "G1",
                    "midi": 31,
                    "time": 227.5053305000003,
                    "velocity": 0.6062992125984252,
                    "duration": 0.16320325000000935
                },
                {
                    "name": "G2",
                    "midi": 43,
                    "time": 227.5053305000003,
                    "velocity": 0.6062992125984252,
                    "duration": 0.16320325000000935
                },
                {
                    "name": "D#2",
                    "midi": 39,
                    "time": 227.83173700000032,
                    "velocity": 0.4881889763779528,
                    "duration": 0.16320325000000935
                },
                {
                    "name": "D#3",
                    "midi": 51,
                    "time": 227.83173700000032,
                    "velocity": 0.5826771653543307,
                    "duration": 0.16320325000000935
                },
                {
                    "name": "D2",
                    "midi": 38,
                    "time": 228.15814350000034,
                    "velocity": 0.4881889763779528,
                    "duration": 0.16320325000000935
                },
                {
                    "name": "D3",
                    "midi": 50,
                    "time": 228.15814350000034,
                    "velocity": 0.5826771653543307,
                    "duration": 0.16320325000000935
                },
                {
                    "name": "C2",
                    "midi": 36,
                    "time": 228.48455000000035,
                    "velocity": 0.5118110236220472,
                    "duration": 0.16320325000000935
                },
                {
                    "name": "C3",
                    "midi": 48,
                    "time": 228.48455000000035,
                    "velocity": 0.6062992125984252,
                    "duration": 0.16320325000000935
                },
                {
                    "name": "G1",
                    "midi": 31,
                    "time": 228.81095650000037,
                    "velocity": 0.48031496062992124,
                    "duration": 0.16320325000000935
                },
                {
                    "name": "G2",
                    "midi": 43,
                    "time": 228.81095650000037,
                    "velocity": 0.5669291338582677,
                    "duration": 0.16320325000000935
                },
                {
                    "name": "A1",
                    "midi": 33,
                    "time": 229.1373630000004,
                    "velocity": 0.4881889763779528,
                    "duration": 0.16320325000000935
                },
                {
                    "name": "A2",
                    "midi": 45,
                    "time": 229.1373630000004,
                    "velocity": 0.5748031496062992,
                    "duration": 0.16320325000000935
                },
                {
                    "name": "B1",
                    "midi": 35,
                    "time": 229.4637695000004,
                    "velocity": 0.4881889763779528,
                    "duration": 0.16320325000000935
                },
                {
                    "name": "B2",
                    "midi": 47,
                    "time": 229.4637695000004,
                    "velocity": 0.5748031496062992,
                    "duration": 0.16320325000000935
                },
                {
                    "name": "C2",
                    "midi": 36,
                    "time": 229.79017600000043,
                    "velocity": 0.5118110236220472,
                    "duration": 0.16320325000000935
                },
                {
                    "name": "C3",
                    "midi": 48,
                    "time": 229.79017600000043,
                    "velocity": 0.6062992125984252,
                    "duration": 0.16320325000000935
                },
                {
                    "name": "C2",
                    "midi": 36,
                    "time": 230.11658250000045,
                    "velocity": 0.48031496062992124,
                    "duration": 0.16320325000000935
                },
                {
                    "name": "C3",
                    "midi": 48,
                    "time": 230.11658250000045,
                    "velocity": 0.5669291338582677,
                    "duration": 0.16320325000000935
                },
                {
                    "name": "G#2",
                    "midi": 44,
                    "time": 230.44298900000047,
                    "velocity": 0.5196850393700787,
                    "duration": 0.16320325000000935
                },
                {
                    "name": "G#3",
                    "midi": 56,
                    "time": 230.44298900000047,
                    "velocity": 0.6141732283464567,
                    "duration": 0.16320325000000935
                },
                {
                    "name": "G2",
                    "midi": 43,
                    "time": 230.76939550000048,
                    "velocity": 0.4881889763779528,
                    "duration": 0.16320325000000935
                },
                {
                    "name": "G3",
                    "midi": 55,
                    "time": 230.76939550000048,
                    "velocity": 0.5748031496062992,
                    "duration": 0.16320325000000935
                },
                {
                    "name": "F2",
                    "midi": 41,
                    "time": 231.0958020000005,
                    "velocity": 0.5354330708661418,
                    "duration": 0.16320325000000935
                },
                {
                    "name": "F3",
                    "midi": 53,
                    "time": 231.0958020000005,
                    "velocity": 0.6299212598425197,
                    "duration": 0.16320325000000935
                },
                {
                    "name": "C2",
                    "midi": 36,
                    "time": 231.42220850000052,
                    "velocity": 0.49606299212598426,
                    "duration": 0.16320325000000935
                },
                {
                    "name": "C3",
                    "midi": 48,
                    "time": 231.42220850000052,
                    "velocity": 0.5905511811023622,
                    "duration": 0.16320325000000935
                },
                {
                    "name": "D2",
                    "midi": 38,
                    "time": 231.74861500000054,
                    "velocity": 0.49606299212598426,
                    "duration": 0.16320325000000935
                },
                {
                    "name": "D3",
                    "midi": 50,
                    "time": 231.74861500000054,
                    "velocity": 0.5905511811023622,
                    "duration": 0.16320325000000935
                },
                {
                    "name": "E2",
                    "midi": 40,
                    "time": 232.07502150000056,
                    "velocity": 0.49606299212598426,
                    "duration": 0.16320325000000935
                },
                {
                    "name": "E3",
                    "midi": 52,
                    "time": 232.07502150000056,
                    "velocity": 0.5905511811023622,
                    "duration": 0.16320325000000935
                },
                {
                    "name": "F2",
                    "midi": 41,
                    "time": 232.40142800000058,
                    "velocity": 0.5196850393700787,
                    "duration": 0.16320325000000935
                },
                {
                    "name": "F3",
                    "midi": 53,
                    "time": 232.40142800000058,
                    "velocity": 0.6141732283464567,
                    "duration": 0.16320325000000935
                },
                {
                    "name": "F2",
                    "midi": 41,
                    "time": 232.7278345000006,
                    "velocity": 0.4881889763779528,
                    "duration": 0.16320325000000935
                },
                {
                    "name": "F3",
                    "midi": 53,
                    "time": 232.7278345000006,
                    "velocity": 0.5826771653543307,
                    "duration": 0.16320325000000935
                },
                {
                    "name": "C#3",
                    "midi": 49,
                    "time": 233.05424100000062,
                    "velocity": 0.5354330708661418,
                    "duration": 0.16320325000000935
                },
                {
                    "name": "C#4",
                    "midi": 61,
                    "time": 233.05424100000062,
                    "velocity": 0.6299212598425197,
                    "duration": 0.16320325000000935
                },
                {
                    "name": "C3",
                    "midi": 48,
                    "time": 233.38064750000063,
                    "velocity": 0.5039370078740157,
                    "duration": 0.16320325000000935
                },
                {
                    "name": "C4",
                    "midi": 60,
                    "time": 233.38064750000063,
                    "velocity": 0.5984251968503937,
                    "duration": 0.16320325000000935
                },
                {
                    "name": "A#2",
                    "midi": 46,
                    "time": 233.70705400000065,
                    "velocity": 0.5354330708661418,
                    "duration": 0.16320325000000935
                },
                {
                    "name": "A#3",
                    "midi": 58,
                    "time": 233.70705400000065,
                    "velocity": 0.6299212598425197,
                    "duration": 0.16320325000000935
                },
                {
                    "name": "G#2",
                    "midi": 44,
                    "time": 234.03346050000067,
                    "velocity": 0.4881889763779528,
                    "duration": 0.16320325000000935
                },
                {
                    "name": "G#3",
                    "midi": 56,
                    "time": 234.03346050000067,
                    "velocity": 0.5748031496062992,
                    "duration": 0.16320325000000935
                },
                {
                    "name": "G2",
                    "midi": 43,
                    "time": 234.3598670000007,
                    "velocity": 0.4881889763779528,
                    "duration": 0.16320325000000935
                },
                {
                    "name": "G3",
                    "midi": 55,
                    "time": 234.3598670000007,
                    "velocity": 0.5826771653543307,
                    "duration": 0.16320325000000935
                },
                {
                    "name": "F2",
                    "midi": 41,
                    "time": 234.6862735000007,
                    "velocity": 0.4881889763779528,
                    "duration": 0.16320325000000935
                },
                {
                    "name": "F3",
                    "midi": 53,
                    "time": 234.6862735000007,
                    "velocity": 0.5826771653543307,
                    "duration": 0.16320325000000935
                },
                {
                    "name": "D#2",
                    "midi": 39,
                    "time": 235.01268000000073,
                    "velocity": 0.5433070866141733,
                    "duration": 0.16320325000000935
                },
                {
                    "name": "D#3",
                    "midi": 51,
                    "time": 235.01268000000073,
                    "velocity": 0.6456692913385826,
                    "duration": 0.16320325000000935
                },
                {
                    "name": "C#3",
                    "midi": 49,
                    "time": 235.33908650000075,
                    "velocity": 0.5905511811023622,
                    "duration": 0.16320325000000935
                },
                {
                    "name": "C3",
                    "midi": 48,
                    "time": 235.66549300000077,
                    "velocity": 0.5905511811023622,
                    "duration": 0.16320325000000935
                },
                {
                    "name": "A#2",
                    "midi": 46,
                    "time": 235.99189950000078,
                    "velocity": 0.5905511811023622,
                    "duration": 0.16320325000000935
                },
                {
                    "name": "G#2",
                    "midi": 44,
                    "time": 236.3183060000008,
                    "velocity": 0.6614173228346457,
                    "duration": 0.16320325000000935
                },
                {
                    "name": "G2",
                    "midi": 43,
                    "time": 236.64471250000082,
                    "velocity": 0.5984251968503937,
                    "duration": 0.16320325000000935
                },
                {
                    "name": "F2",
                    "midi": 41,
                    "time": 236.97111900000084,
                    "velocity": 0.5984251968503937,
                    "duration": 0.16320325000000935
                },
                {
                    "name": "D#2",
                    "midi": 39,
                    "time": 237.29752550000086,
                    "velocity": 0.5984251968503937,
                    "duration": 0.16320325000000935
                },
                {
                    "name": "G#2",
                    "midi": 44,
                    "time": 237.62393200000088,
                    "velocity": 0.6614173228346457,
                    "duration": 0.3264064999999903
                },
                {
                    "name": "B1",
                    "midi": 35,
                    "time": 237.95033850000087,
                    "velocity": 0.49606299212598426,
                    "duration": 0.10880216666666342
                },
                {
                    "name": "A1",
                    "midi": 33,
                    "time": 238.05914066666753,
                    "velocity": 0.4409448818897638,
                    "duration": 0.10880216666666342
                },
                {
                    "name": "B1",
                    "midi": 35,
                    "time": 238.1679428333342,
                    "velocity": 0.44881889763779526,
                    "duration": 0.10880216666666342
                },
                {
                    "name": "C2",
                    "midi": 36,
                    "time": 238.27674500000086,
                    "velocity": 0.44881889763779526,
                    "duration": 0.10880216666666342
                },
                {
                    "name": "D#2",
                    "midi": 39,
                    "time": 238.38554716666752,
                    "velocity": 0.4566929133858268,
                    "duration": 0.10880216666666342
                },
                {
                    "name": "F2",
                    "midi": 41,
                    "time": 238.49434933333418,
                    "velocity": 0.4645669291338583,
                    "duration": 0.10880216666666342
                },
                {
                    "name": "G2",
                    "midi": 43,
                    "time": 238.60315150000085,
                    "velocity": 0.47244094488188976,
                    "duration": 0.10880216666666342
                },
                {
                    "name": "A2",
                    "midi": 45,
                    "time": 238.7119536666675,
                    "velocity": 0.4881889763779528,
                    "duration": 0.10880216666666342
                },
                {
                    "name": "B2",
                    "midi": 47,
                    "time": 238.82075583333418,
                    "velocity": 0.49606299212598426,
                    "duration": 0.10880216666666342
                },
                {
                    "name": "C3",
                    "midi": 48,
                    "time": 238.92955800000084,
                    "velocity": 0.47244094488188976,
                    "duration": 0.10880216666666342
                },
                {
                    "name": "D3",
                    "midi": 50,
                    "time": 239.0383601666675,
                    "velocity": 0.4881889763779528,
                    "duration": 0.10880216666666342
                },
                {
                    "name": "D#3",
                    "midi": 51,
                    "time": 239.14716233333417,
                    "velocity": 0.49606299212598426,
                    "duration": 0.10880216666666342
                },
                {
                    "name": "F3",
                    "midi": 53,
                    "time": 239.25596450000083,
                    "velocity": 0.5118110236220472,
                    "duration": 0.10880216666666342
                },
                {
                    "name": "D#3",
                    "midi": 51,
                    "time": 239.3647666666675,
                    "velocity": 0.49606299212598426,
                    "duration": 0.10880216666666342
                },
                {
                    "name": "D3",
                    "midi": 50,
                    "time": 239.47356883333416,
                    "velocity": 0.4881889763779528,
                    "duration": 0.10880216666666342
                },
                {
                    "name": "C3",
                    "midi": 48,
                    "time": 239.58237100000082,
                    "velocity": 0.49606299212598426,
                    "duration": 0.10880216666666342
                },
                {
                    "name": "D3",
                    "midi": 50,
                    "time": 239.69117316666748,
                    "velocity": 0.4881889763779528,
                    "duration": 0.10880216666666342
                },
                {
                    "name": "D#3",
                    "midi": 51,
                    "time": 239.79997533333415,
                    "velocity": 0.49606299212598426,
                    "duration": 0.10880216666666342
                },
                {
                    "name": "F3",
                    "midi": 53,
                    "time": 239.9087775000008,
                    "velocity": 0.5118110236220472,
                    "duration": 0.10880216666666342
                },
                {
                    "name": "D#3",
                    "midi": 51,
                    "time": 240.01757966666747,
                    "velocity": 0.5039370078740157,
                    "duration": 0.10880216666666342
                },
                {
                    "name": "D3",
                    "midi": 50,
                    "time": 240.12638183333414,
                    "velocity": 0.49606299212598426,
                    "duration": 0.10880216666666342
                },
                {
                    "name": "C3",
                    "midi": 48,
                    "time": 240.2351840000008,
                    "velocity": 0.5354330708661418,
                    "duration": 0.3264064999999903
                },
                {
                    "name": "E2",
                    "midi": 40,
                    "time": 240.5615905000008,
                    "velocity": 0.49606299212598426,
                    "duration": 0.10880216666666342
                },
                {
                    "name": "D2",
                    "midi": 38,
                    "time": 240.67039266666745,
                    "velocity": 0.4409448818897638,
                    "duration": 0.10880216666666342
                },
                {
                    "name": "E2",
                    "midi": 40,
                    "time": 240.77919483333412,
                    "velocity": 0.4409448818897638,
                    "duration": 0.10880216666666342
                },
                {
                    "name": "F2",
                    "midi": 41,
                    "time": 240.88799700000078,
                    "velocity": 0.4251968503937008,
                    "duration": 0.10880216666666342
                },
                {
                    "name": "G#2",
                    "midi": 44,
                    "time": 240.99679916666744,
                    "velocity": 0.4409448818897638,
                    "duration": 0.10880216666666342
                },
                {
                    "name": "A#2",
                    "midi": 46,
                    "time": 241.1056013333341,
                    "velocity": 0.4566929133858268,
                    "duration": 0.10880216666666342
                },
                {
                    "name": "C3",
                    "midi": 48,
                    "time": 241.21440350000077,
                    "velocity": 0.47244094488188976,
                    "duration": 0.10880216666666342
                },
                {
                    "name": "D3",
                    "midi": 50,
                    "time": 241.32320566666743,
                    "velocity": 0.4881889763779528,
                    "duration": 0.10880216666666342
                },
                {
                    "name": "E3",
                    "midi": 52,
                    "time": 241.4320078333341,
                    "velocity": 0.49606299212598426,
                    "duration": 0.10880216666666342
                },
                {
                    "name": "F3",
                    "midi": 53,
                    "time": 241.54081000000076,
                    "velocity": 0.5118110236220472,
                    "duration": 0.10880216666666342
                },
                {
                    "name": "G3",
                    "midi": 55,
                    "time": 241.64961216666742,
                    "velocity": 0.5118110236220472,
                    "duration": 0.10880216666666342
                },
                {
                    "name": "G#3",
                    "midi": 56,
                    "time": 241.7584143333341,
                    "velocity": 0.5196850393700787,
                    "duration": 0.10880216666666342
                },
                {
                    "name": "A#3",
                    "midi": 58,
                    "time": 241.86721650000075,
                    "velocity": 0.5354330708661418,
                    "duration": 0.10880216666666342
                },
                {
                    "name": "G#3",
                    "midi": 56,
                    "time": 241.97601866666741,
                    "velocity": 0.5118110236220472,
                    "duration": 0.10880216666666342
                },
                {
                    "name": "G3",
                    "midi": 55,
                    "time": 242.08482083333408,
                    "velocity": 0.49606299212598426,
                    "duration": 0.10880216666666342
                },
                {
                    "name": "F3",
                    "midi": 53,
                    "time": 242.19362300000074,
                    "velocity": 0.47244094488188976,
                    "duration": 0.10880216666666342
                },
                {
                    "name": "G3",
                    "midi": 55,
                    "time": 242.3024251666674,
                    "velocity": 0.4881889763779528,
                    "duration": 0.10880216666666342
                },
                {
                    "name": "G#3",
                    "midi": 56,
                    "time": 242.41122733333407,
                    "velocity": 0.5039370078740157,
                    "duration": 0.10880216666666342
                },
                {
                    "name": "A#3",
                    "midi": 58,
                    "time": 242.52002950000073,
                    "velocity": 0.5196850393700787,
                    "duration": 0.10880216666666342
                },
                {
                    "name": "G#3",
                    "midi": 56,
                    "time": 242.6288316666674,
                    "velocity": 0.5039370078740157,
                    "duration": 0.10880216666666342
                },
                {
                    "name": "G3",
                    "midi": 55,
                    "time": 242.73763383333406,
                    "velocity": 0.49606299212598426,
                    "duration": 0.10880216666666342
                },
                {
                    "name": "F3",
                    "midi": 53,
                    "time": 242.84643600000072,
                    "velocity": 0.5275590551181102,
                    "duration": 0.3264064999999903
                },
                {
                    "name": "A2",
                    "midi": 45,
                    "time": 243.1728425000007,
                    "velocity": 0.49606299212598426,
                    "duration": 0.10880216666666342
                },
                {
                    "name": "G2",
                    "midi": 43,
                    "time": 243.28164466666738,
                    "velocity": 0.4566929133858268,
                    "duration": 0.10880216666666342
                },
                {
                    "name": "A2",
                    "midi": 45,
                    "time": 243.39044683333404,
                    "velocity": 0.4566929133858268,
                    "duration": 0.10880216666666342
                },
                {
                    "name": "A#2",
                    "midi": 46,
                    "time": 243.4992490000007,
                    "velocity": 0.49606299212598426,
                    "duration": 0.10880216666666342
                },
                {
                    "name": "C3",
                    "midi": 48,
                    "time": 243.60805116666737,
                    "velocity": 0.4566929133858268,
                    "duration": 0.10880216666666342
                },
                {
                    "name": "A#2",
                    "midi": 46,
                    "time": 243.71685333333403,
                    "velocity": 0.4566929133858268,
                    "duration": 0.10880216666666342
                },
                {
                    "name": "A2",
                    "midi": 45,
                    "time": 243.8256555000007,
                    "velocity": 0.49606299212598426,
                    "duration": 0.10880216666666342
                },
                {
                    "name": "G2",
                    "midi": 43,
                    "time": 243.93445766666736,
                    "velocity": 0.47244094488188976,
                    "duration": 0.10880216666666342
                },
                {
                    "name": "A2",
                    "midi": 45,
                    "time": 244.04325983333402,
                    "velocity": 0.47244094488188976,
                    "duration": 0.10880216666666342
                },
                {
                    "name": "A#2",
                    "midi": 46,
                    "time": 244.15206200000068,
                    "velocity": 0.4645669291338583,
                    "duration": 0.10880216666666342
                },
                {
                    "name": "A2",
                    "midi": 45,
                    "time": 244.26086416666735,
                    "velocity": 0.4645669291338583,
                    "duration": 0.10880216666666342
                },
                {
                    "name": "A#2",
                    "midi": 46,
                    "time": 244.369666333334,
                    "velocity": 0.47244094488188976,
                    "duration": 0.10880216666666342
                },
                {
                    "name": "C3",
                    "midi": 48,
                    "time": 244.47846850000067,
                    "velocity": 0.48031496062992124,
                    "duration": 0.10880216666666342
                },
                {
                    "name": "B2",
                    "midi": 47,
                    "time": 244.58727066666734,
                    "velocity": 0.4645669291338583,
                    "duration": 0.10880216666666342
                },
                {
                    "name": "C3",
                    "midi": 48,
                    "time": 244.696072833334,
                    "velocity": 0.4645669291338583,
                    "duration": 0.10880216666666342
                },
                {
                    "name": "C#3",
                    "midi": 49,
                    "time": 244.80487500000066,
                    "velocity": 0.49606299212598426,
                    "duration": 0.10880216666666342
                },
                {
                    "name": "C3",
                    "midi": 48,
                    "time": 244.91367716666733,
                    "velocity": 0.48031496062992124,
                    "duration": 0.10880216666666342
                },
                {
                    "name": "C#3",
                    "midi": 49,
                    "time": 245.022479333334,
                    "velocity": 0.48031496062992124,
                    "duration": 0.10880216666666342
                },
                {
                    "name": "D3",
                    "midi": 50,
                    "time": 245.13128150000065,
                    "velocity": 0.5039370078740157,
                    "duration": 0.10880216666666342
                },
                {
                    "name": "C3",
                    "midi": 48,
                    "time": 245.24008366666732,
                    "velocity": 0.4881889763779528,
                    "duration": 0.10880216666666342
                },
                {
                    "name": "D3",
                    "midi": 50,
                    "time": 245.34888583333398,
                    "velocity": 0.4881889763779528,
                    "duration": 0.10880216666666342
                },
                {
                    "name": "D#3",
                    "midi": 51,
                    "time": 245.45768800000064,
                    "velocity": 0.5275590551181102,
                    "duration": 0.10880216666666342
                },
                {
                    "name": "F3",
                    "midi": 53,
                    "time": 245.5664901666673,
                    "velocity": 0.49606299212598426,
                    "duration": 0.10880216666666342
                },
                {
                    "name": "D#3",
                    "midi": 51,
                    "time": 245.67529233333397,
                    "velocity": 0.49606299212598426,
                    "duration": 0.10880216666666342
                },
                {
                    "name": "C#3",
                    "midi": 49,
                    "time": 245.78409450000063,
                    "velocity": 0.5275590551181102,
                    "duration": 0.10880216666666342
                },
                {
                    "name": "D#3",
                    "midi": 51,
                    "time": 245.8928966666673,
                    "velocity": 0.49606299212598426,
                    "duration": 0.10880216666666342
                },
                {
                    "name": "C#3",
                    "midi": 49,
                    "time": 246.00169883333396,
                    "velocity": 0.49606299212598426,
                    "duration": 0.10880216666666342
                },
                {
                    "name": "C3",
                    "midi": 48,
                    "time": 246.11050100000062,
                    "velocity": 0.5196850393700787,
                    "duration": 0.10880216666666342
                },
                {
                    "name": "C#3",
                    "midi": 49,
                    "time": 246.2193031666673,
                    "velocity": 0.49606299212598426,
                    "duration": 0.10880216666666342
                },
                {
                    "name": "C3",
                    "midi": 48,
                    "time": 246.32810533333395,
                    "velocity": 0.49606299212598426,
                    "duration": 0.10880216666666342
                },
                {
                    "name": "A#2",
                    "midi": 46,
                    "time": 246.43690750000061,
                    "velocity": 0.5196850393700787,
                    "duration": 0.10880216666666342
                },
                {
                    "name": "C3",
                    "midi": 48,
                    "time": 246.54570966666728,
                    "velocity": 0.4881889763779528,
                    "duration": 0.10880216666666342
                },
                {
                    "name": "A#2",
                    "midi": 46,
                    "time": 246.65451183333394,
                    "velocity": 0.4881889763779528,
                    "duration": 0.10880216666666342
                },
                {
                    "name": "G#2",
                    "midi": 44,
                    "time": 246.7633140000006,
                    "velocity": 0.5039370078740157,
                    "duration": 0.10880216666666342
                },
                {
                    "name": "A#2",
                    "midi": 46,
                    "time": 246.87211616666727,
                    "velocity": 0.4881889763779528,
                    "duration": 0.10880216666666342
                },
                {
                    "name": "G#2",
                    "midi": 44,
                    "time": 246.98091833333393,
                    "velocity": 0.4881889763779528,
                    "duration": 0.10880216666666342
                },
                {
                    "name": "G2",
                    "midi": 43,
                    "time": 247.0897205000006,
                    "velocity": 0.5039370078740157,
                    "duration": 0.10880216666666342
                },
                {
                    "name": "G#2",
                    "midi": 44,
                    "time": 247.19852266666726,
                    "velocity": 0.48031496062992124,
                    "duration": 0.10880216666666342
                },
                {
                    "name": "G2",
                    "midi": 43,
                    "time": 247.30732483333392,
                    "velocity": 0.48031496062992124,
                    "duration": 0.10880216666666342
                },
                {
                    "name": "F2",
                    "midi": 41,
                    "time": 247.41612700000059,
                    "velocity": 0.49606299212598426,
                    "duration": 0.10880216666666342
                },
                {
                    "name": "G2",
                    "midi": 43,
                    "time": 247.52492916666725,
                    "velocity": 0.4881889763779528,
                    "duration": 0.10880216666666342
                },
                {
                    "name": "F2",
                    "midi": 41,
                    "time": 247.6337313333339,
                    "velocity": 0.4881889763779528,
                    "duration": 0.10880216666666342
                },
                {
                    "name": "D#2",
                    "midi": 39,
                    "time": 247.74253350000058,
                    "velocity": 0.49606299212598426,
                    "duration": 0.10880216666666342
                },
                {
                    "name": "F2",
                    "midi": 41,
                    "time": 247.85133566666724,
                    "velocity": 0.47244094488188976,
                    "duration": 0.10880216666666342
                },
                {
                    "name": "D#2",
                    "midi": 39,
                    "time": 247.9601378333339,
                    "velocity": 0.47244094488188976,
                    "duration": 0.10880216666666342
                },
                {
                    "name": "G#2",
                    "midi": 44,
                    "time": 248.06894000000057,
                    "velocity": 0.6062992125984252,
                    "duration": 0.16320325000000935
                },
                {
                    "name": "D#2",
                    "midi": 39,
                    "time": 248.39534650000058,
                    "velocity": 0.6220472440944882,
                    "duration": 0.16320325000000935
                },
                {
                    "name": "D#3",
                    "midi": 51,
                    "time": 248.39534650000058,
                    "velocity": 0.6220472440944882,
                    "duration": 0.16320325000000935
                },
                {
                    "name": "C3",
                    "midi": 48,
                    "time": 248.7217530000006,
                    "velocity": 0.4881889763779528,
                    "duration": 0.16320325000000935
                },
                {
                    "name": "C4",
                    "midi": 60,
                    "time": 248.7217530000006,
                    "velocity": 0.5826771653543307,
                    "duration": 0.16320325000000935
                },
                {
                    "name": "A#2",
                    "midi": 46,
                    "time": 249.04815950000062,
                    "velocity": 0.4881889763779528,
                    "duration": 0.16320325000000935
                },
                {
                    "name": "A#3",
                    "midi": 58,
                    "time": 249.04815950000062,
                    "velocity": 0.5826771653543307,
                    "duration": 0.16320325000000935
                },
                {
                    "name": "G#2",
                    "midi": 44,
                    "time": 249.37456600000064,
                    "velocity": 0.5118110236220472,
                    "duration": 0.16320325000000935
                },
                {
                    "name": "G#3",
                    "midi": 56,
                    "time": 249.37456600000064,
                    "velocity": 0.6062992125984252,
                    "duration": 0.16320325000000935
                },
                {
                    "name": "D#2",
                    "midi": 39,
                    "time": 249.70097250000066,
                    "velocity": 0.48031496062992124,
                    "duration": 0.16320325000000935
                },
                {
                    "name": "D#3",
                    "midi": 51,
                    "time": 249.70097250000066,
                    "velocity": 0.5669291338582677,
                    "duration": 0.16320325000000935
                },
                {
                    "name": "F2",
                    "midi": 41,
                    "time": 250.02737900000068,
                    "velocity": 0.4881889763779528,
                    "duration": 0.16320325000000935
                },
                {
                    "name": "F3",
                    "midi": 53,
                    "time": 250.02737900000068,
                    "velocity": 0.5748031496062992,
                    "duration": 0.16320325000000935
                },
                {
                    "name": "G2",
                    "midi": 43,
                    "time": 250.3537855000007,
                    "velocity": 0.4881889763779528,
                    "duration": 0.16320325000000935
                },
                {
                    "name": "G3",
                    "midi": 55,
                    "time": 250.3537855000007,
                    "velocity": 0.5748031496062992,
                    "duration": 0.16320325000000935
                },
                {
                    "name": "G#2",
                    "midi": 44,
                    "time": 250.68019200000072,
                    "velocity": 0.5118110236220472,
                    "duration": 0.16320325000000935
                },
                {
                    "name": "G#3",
                    "midi": 56,
                    "time": 250.68019200000072,
                    "velocity": 0.6062992125984252,
                    "duration": 0.16320325000000935
                },
                {
                    "name": "C2",
                    "midi": 36,
                    "time": 251.00659850000073,
                    "velocity": 0.48031496062992124,
                    "duration": 0.16320325000000935
                },
                {
                    "name": "C3",
                    "midi": 48,
                    "time": 251.00659850000073,
                    "velocity": 0.5669291338582677,
                    "duration": 0.16320325000000935
                },
                {
                    "name": "G#2",
                    "midi": 44,
                    "time": 251.33300500000075,
                    "velocity": 0.5196850393700787,
                    "duration": 0.16320325000000935
                },
                {
                    "name": "G#3",
                    "midi": 56,
                    "time": 251.33300500000075,
                    "velocity": 0.6141732283464567,
                    "duration": 0.16320325000000935
                },
                {
                    "name": "G2",
                    "midi": 43,
                    "time": 251.65941150000077,
                    "velocity": 0.4881889763779528,
                    "duration": 0.16320325000000935
                },
                {
                    "name": "G3",
                    "midi": 55,
                    "time": 251.65941150000077,
                    "velocity": 0.5748031496062992,
                    "duration": 0.16320325000000935
                },
                {
                    "name": "F2",
                    "midi": 41,
                    "time": 251.9858180000008,
                    "velocity": 0.5354330708661418,
                    "duration": 0.16320325000000935
                },
                {
                    "name": "F3",
                    "midi": 53,
                    "time": 251.9858180000008,
                    "velocity": 0.6299212598425197,
                    "duration": 0.16320325000000935
                },
                {
                    "name": "C2",
                    "midi": 36,
                    "time": 252.3122245000008,
                    "velocity": 0.49606299212598426,
                    "duration": 0.16320325000000935
                },
                {
                    "name": "C3",
                    "midi": 48,
                    "time": 252.3122245000008,
                    "velocity": 0.5905511811023622,
                    "duration": 0.16320325000000935
                },
                {
                    "name": "D2",
                    "midi": 38,
                    "time": 252.63863100000083,
                    "velocity": 0.49606299212598426,
                    "duration": 0.16320325000000935
                },
                {
                    "name": "D3",
                    "midi": 50,
                    "time": 252.63863100000083,
                    "velocity": 0.5905511811023622,
                    "duration": 0.16320325000000935
                },
                {
                    "name": "E2",
                    "midi": 40,
                    "time": 252.96503750000085,
                    "velocity": 0.49606299212598426,
                    "duration": 0.16320325000000935
                },
                {
                    "name": "E3",
                    "midi": 52,
                    "time": 252.96503750000085,
                    "velocity": 0.5905511811023622,
                    "duration": 0.16320325000000935
                },
                {
                    "name": "F2",
                    "midi": 41,
                    "time": 253.29144400000087,
                    "velocity": 0.5196850393700787,
                    "duration": 0.16320325000000935
                },
                {
                    "name": "F3",
                    "midi": 53,
                    "time": 253.29144400000087,
                    "velocity": 0.6141732283464567,
                    "duration": 0.16320325000000935
                },
                {
                    "name": "F3",
                    "midi": 53,
                    "time": 253.61785050000088,
                    "velocity": 0.4881889763779528,
                    "duration": 0.16320325000000935
                },
                {
                    "name": "F4",
                    "midi": 65,
                    "time": 253.61785050000088,
                    "velocity": 0.5826771653543307,
                    "duration": 0.16320325000000935
                },
                {
                    "name": "G#3",
                    "midi": 56,
                    "time": 253.9442570000009,
                    "velocity": 0.5354330708661418,
                    "duration": 0.16320325000000935
                },
                {
                    "name": "G#4",
                    "midi": 68,
                    "time": 253.9442570000009,
                    "velocity": 0.6299212598425197,
                    "duration": 0.16320325000000935
                },
                {
                    "name": "G3",
                    "midi": 55,
                    "time": 254.27066350000092,
                    "velocity": 0.5039370078740157,
                    "duration": 0.16320325000000935
                },
                {
                    "name": "G4",
                    "midi": 67,
                    "time": 254.27066350000092,
                    "velocity": 0.5984251968503937,
                    "duration": 0.16320325000000935
                },
                {
                    "name": "F3",
                    "midi": 53,
                    "time": 254.59707000000094,
                    "velocity": 0.5354330708661418,
                    "duration": 0.16320325000000935
                },
                {
                    "name": "F4",
                    "midi": 65,
                    "time": 254.59707000000094,
                    "velocity": 0.6299212598425197,
                    "duration": 0.16320325000000935
                },
                {
                    "name": "D#3",
                    "midi": 51,
                    "time": 254.92347650000096,
                    "velocity": 0.4881889763779528,
                    "duration": 0.16320325000000935
                },
                {
                    "name": "D#4",
                    "midi": 63,
                    "time": 254.92347650000096,
                    "velocity": 0.5748031496062992,
                    "duration": 0.16320325000000935
                },
                {
                    "name": "D3",
                    "midi": 50,
                    "time": 255.24988300000098,
                    "velocity": 0.4881889763779528,
                    "duration": 0.16320325000000935
                },
                {
                    "name": "D4",
                    "midi": 62,
                    "time": 255.24988300000098,
                    "velocity": 0.5826771653543307,
                    "duration": 0.16320325000000935
                },
                {
                    "name": "C3",
                    "midi": 48,
                    "time": 255.576289500001,
                    "velocity": 0.4881889763779528,
                    "duration": 0.16320325000000935
                },
                {
                    "name": "C4",
                    "midi": 60,
                    "time": 255.576289500001,
                    "velocity": 0.5826771653543307,
                    "duration": 0.16320325000000935
                },
                {
                    "name": "B2",
                    "midi": 47,
                    "time": 255.90269600000101,
                    "velocity": 0.5433070866141733,
                    "duration": 0.6528129999999805
                },
                {
                    "name": "B3",
                    "midi": 59,
                    "time": 255.90269600000101,
                    "velocity": 0.6456692913385826,
                    "duration": 0.6528129999999805
                },
                {
                    "name": "G2",
                    "midi": 43,
                    "time": 256.555509000001,
                    "velocity": 0.5039370078740157,
                    "duration": 0.3264065000000187
                },
                {
                    "name": "G3",
                    "midi": 55,
                    "time": 256.555509000001,
                    "velocity": 0.5984251968503937,
                    "duration": 0.3264065000000187
                },
                {
                    "name": "G2",
                    "midi": 43,
                    "time": 256.881915500001,
                    "velocity": 0.48031496062992124,
                    "duration": 0.3264065000000187
                },
                {
                    "name": "G3",
                    "midi": 55,
                    "time": 256.881915500001,
                    "velocity": 0.5669291338582677,
                    "duration": 0.3264065000000187
                },
                {
                    "name": "G2",
                    "midi": 43,
                    "time": 257.20832200000103,
                    "velocity": 0.5039370078740157,
                    "duration": 0.3264065000000187
                },
                {
                    "name": "G3",
                    "midi": 55,
                    "time": 257.20832200000103,
                    "velocity": 0.5984251968503937,
                    "duration": 0.3264065000000187
                },
                {
                    "name": "G2",
                    "midi": 43,
                    "time": 257.53472850000105,
                    "velocity": 0.47244094488188976,
                    "duration": 0.3264065000000187
                },
                {
                    "name": "G3",
                    "midi": 55,
                    "time": 257.53472850000105,
                    "velocity": 0.5590551181102362,
                    "duration": 0.3264065000000187
                },
                {
                    "name": "G2",
                    "midi": 43,
                    "time": 257.86113500000107,
                    "velocity": 0.5039370078740157,
                    "duration": 0.3264065000000187
                },
                {
                    "name": "G3",
                    "midi": 55,
                    "time": 257.86113500000107,
                    "velocity": 0.5984251968503937,
                    "duration": 0.3264065000000187
                },
                {
                    "name": "G2",
                    "midi": 43,
                    "time": 258.1875415000011,
                    "velocity": 0.48031496062992124,
                    "duration": 0.3264065000000187
                },
                {
                    "name": "G3",
                    "midi": 55,
                    "time": 258.1875415000011,
                    "velocity": 0.5669291338582677,
                    "duration": 0.3264065000000187
                },
                {
                    "name": "C3",
                    "midi": 48,
                    "time": 258.5139480000011,
                    "velocity": 0.5590551181102362,
                    "duration": 0.3264065000000187
                },
                {
                    "name": "C4",
                    "midi": 60,
                    "time": 258.5139480000011,
                    "velocity": 0.6614173228346457,
                    "duration": 0.3264065000000187
                },
                {
                    "name": "G2",
                    "midi": 43,
                    "time": 258.8403545000011,
                    "velocity": 0.49606299212598426,
                    "duration": 0.10880216666669185
                },
                {
                    "name": "F2",
                    "midi": 41,
                    "time": 258.9491566666678,
                    "velocity": 0.4409448818897638,
                    "duration": 0.10880216666669185
                },
                {
                    "name": "G2",
                    "midi": 43,
                    "time": 259.0579588333345,
                    "velocity": 0.44881889763779526,
                    "duration": 0.10880216666669185
                },
                {
                    "name": "G#2",
                    "midi": 44,
                    "time": 259.1667610000012,
                    "velocity": 0.44881889763779526,
                    "duration": 0.10880216666669185
                },
                {
                    "name": "C3",
                    "midi": 48,
                    "time": 259.2755631666679,
                    "velocity": 0.4566929133858268,
                    "duration": 0.10880216666669185
                },
                {
                    "name": "C#3",
                    "midi": 49,
                    "time": 259.3843653333346,
                    "velocity": 0.4645669291338583,
                    "duration": 0.10880216666669185
                },
                {
                    "name": "D#3",
                    "midi": 51,
                    "time": 259.4931675000013,
                    "velocity": 0.47244094488188976,
                    "duration": 0.10880216666669185
                },
                {
                    "name": "F3",
                    "midi": 53,
                    "time": 259.60196966666797,
                    "velocity": 0.4881889763779528,
                    "duration": 0.10880216666669185
                },
                {
                    "name": "G3",
                    "midi": 55,
                    "time": 259.71077183333466,
                    "velocity": 0.49606299212598426,
                    "duration": 0.10880216666669185
                },
                {
                    "name": "G#3",
                    "midi": 56,
                    "time": 259.81957400000135,
                    "velocity": 0.47244094488188976,
                    "duration": 0.10880216666669185
                },
                {
                    "name": "A#3",
                    "midi": 58,
                    "time": 259.92837616666804,
                    "velocity": 0.4881889763779528,
                    "duration": 0.10880216666669185
                },
                {
                    "name": "C4",
                    "midi": 60,
                    "time": 260.03717833333474,
                    "velocity": 0.49606299212598426,
                    "duration": 0.10880216666669185
                },
                {
                    "name": "C#4",
                    "midi": 61,
                    "time": 260.14598050000143,
                    "velocity": 0.5118110236220472,
                    "duration": 0.10880216666669185
                },
                {
                    "name": "C4",
                    "midi": 60,
                    "time": 260.2547826666681,
                    "velocity": 0.49606299212598426,
                    "duration": 0.10880216666669185
                },
                {
                    "name": "A#3",
                    "midi": 58,
                    "time": 260.3635848333348,
                    "velocity": 0.4881889763779528,
                    "duration": 0.10880216666669185
                },
                {
                    "name": "G#3",
                    "midi": 56,
                    "time": 260.4723870000015,
                    "velocity": 0.49606299212598426,
                    "duration": 0.10880216666669185
                },
                {
                    "name": "A#3",
                    "midi": 58,
                    "time": 260.5811891666682,
                    "velocity": 0.4881889763779528,
                    "duration": 0.10880216666669185
                },
                {
                    "name": "C4",
                    "midi": 60,
                    "time": 260.6899913333349,
                    "velocity": 0.49606299212598426,
                    "duration": 0.10880216666669185
                },
                {
                    "name": "C#4",
                    "midi": 61,
                    "time": 260.7987935000016,
                    "velocity": 0.5118110236220472,
                    "duration": 0.10880216666669185
                },
                {
                    "name": "C4",
                    "midi": 60,
                    "time": 260.90759566666827,
                    "velocity": 0.5039370078740157,
                    "duration": 0.10880216666669185
                },
                {
                    "name": "A#3",
                    "midi": 58,
                    "time": 261.01639783333496,
                    "velocity": 0.49606299212598426,
                    "duration": 0.10880216666669185
                },
                {
                    "name": "G#3",
                    "midi": 56,
                    "time": 261.12520000000166,
                    "velocity": 0.5354330708661418,
                    "duration": 0.3264065000000187
                },
                {
                    "name": "E2",
                    "midi": 40,
                    "time": 261.4516065000017,
                    "velocity": 0.49606299212598426,
                    "duration": 0.10880216666669185
                },
                {
                    "name": "D2",
                    "midi": 38,
                    "time": 261.56040866666837,
                    "velocity": 0.4409448818897638,
                    "duration": 0.10880216666669185
                },
                {
                    "name": "E2",
                    "midi": 40,
                    "time": 261.66921083333506,
                    "velocity": 0.4409448818897638,
                    "duration": 0.10880216666669185
                },
                {
                    "name": "F2",
                    "midi": 41,
                    "time": 261.77801300000175,
                    "velocity": 0.4251968503937008,
                    "duration": 0.10880216666669185
                },
                {
                    "name": "G#2",
                    "midi": 44,
                    "time": 261.88681516666844,
                    "velocity": 0.4409448818897638,
                    "duration": 0.10880216666669185
                },
                {
                    "name": "A#2",
                    "midi": 46,
                    "time": 261.99561733333513,
                    "velocity": 0.4566929133858268,
                    "duration": 0.10880216666669185
                },
                {
                    "name": "C3",
                    "midi": 48,
                    "time": 262.1044195000018,
                    "velocity": 0.47244094488188976,
                    "duration": 0.10880216666669185
                },
                {
                    "name": "D3",
                    "midi": 50,
                    "time": 262.2132216666685,
                    "velocity": 0.4881889763779528,
                    "duration": 0.10880216666669185
                },
                {
                    "name": "E3",
                    "midi": 52,
                    "time": 262.3220238333352,
                    "velocity": 0.49606299212598426,
                    "duration": 0.10880216666669185
                },
                {
                    "name": "F3",
                    "midi": 53,
                    "time": 262.4308260000019,
                    "velocity": 0.5118110236220472,
                    "duration": 0.10880216666669185
                },
                {
                    "name": "G3",
                    "midi": 55,
                    "time": 262.5396281666686,
                    "velocity": 0.5118110236220472,
                    "duration": 0.10880216666669185
                },
                {
                    "name": "G#3",
                    "midi": 56,
                    "time": 262.6484303333353,
                    "velocity": 0.5196850393700787,
                    "duration": 0.10880216666669185
                },
                {
                    "name": "A#3",
                    "midi": 58,
                    "time": 262.757232500002,
                    "velocity": 0.5354330708661418,
                    "duration": 0.10880216666669185
                },
                {
                    "name": "G#3",
                    "midi": 56,
                    "time": 262.86603466666867,
                    "velocity": 0.5118110236220472,
                    "duration": 0.10880216666669185
                },
                {
                    "name": "G3",
                    "midi": 55,
                    "time": 262.97483683333536,
                    "velocity": 0.49606299212598426,
                    "duration": 0.10880216666669185
                },
                {
                    "name": "F3",
                    "midi": 53,
                    "time": 263.08363900000205,
                    "velocity": 0.47244094488188976,
                    "duration": 0.10880216666669185
                },
                {
                    "name": "G3",
                    "midi": 55,
                    "time": 263.19244116666874,
                    "velocity": 0.4881889763779528,
                    "duration": 0.10880216666669185
                },
                {
                    "name": "G#3",
                    "midi": 56,
                    "time": 263.30124333333544,
                    "velocity": 0.5039370078740157,
                    "duration": 0.10880216666669185
                },
                {
                    "name": "A#3",
                    "midi": 58,
                    "time": 263.4100455000021,
                    "velocity": 0.5196850393700787,
                    "duration": 0.10880216666669185
                },
                {
                    "name": "G#3",
                    "midi": 56,
                    "time": 263.5188476666688,
                    "velocity": 0.5039370078740157,
                    "duration": 0.10880216666669185
                },
                {
                    "name": "G3",
                    "midi": 55,
                    "time": 263.6276498333355,
                    "velocity": 0.49606299212598426,
                    "duration": 0.10880216666669185
                },
                {
                    "name": "F3",
                    "midi": 53,
                    "time": 263.7364520000022,
                    "velocity": 0.5275590551181102,
                    "duration": 0.3264065000000187
                },
                {
                    "name": "C2",
                    "midi": 36,
                    "time": 264.0628585000022,
                    "velocity": 0.49606299212598426,
                    "duration": 0.10880216666669185
                },
                {
                    "name": "D2",
                    "midi": 38,
                    "time": 264.1716606666689,
                    "velocity": 0.4566929133858268,
                    "duration": 0.10880216666669185
                },
                {
                    "name": "E2",
                    "midi": 40,
                    "time": 264.2804628333356,
                    "velocity": 0.4566929133858268,
                    "duration": 0.10880216666669185
                },
                {
                    "name": "F2",
                    "midi": 41,
                    "time": 264.3892650000023,
                    "velocity": 0.49606299212598426,
                    "duration": 0.10880216666669185
                },
                {
                    "name": "E2",
                    "midi": 40,
                    "time": 264.498067166669,
                    "velocity": 0.4566929133858268,
                    "duration": 0.10880216666669185
                },
                {
                    "name": "F2",
                    "midi": 41,
                    "time": 264.6068693333357,
                    "velocity": 0.4566929133858268,
                    "duration": 0.10880216666669185
                },
                {
                    "name": "G2",
                    "midi": 43,
                    "time": 264.7156715000024,
                    "velocity": 0.49606299212598426,
                    "duration": 0.10880216666669185
                },
                {
                    "name": "F2",
                    "midi": 41,
                    "time": 264.82447366666906,
                    "velocity": 0.47244094488188976,
                    "duration": 0.10880216666669185
                },
                {
                    "name": "G2",
                    "midi": 43,
                    "time": 264.93327583333576,
                    "velocity": 0.47244094488188976,
                    "duration": 0.10880216666669185
                },
                {
                    "name": "G#2",
                    "midi": 44,
                    "time": 265.04207800000245,
                    "velocity": 0.4645669291338583,
                    "duration": 0.10880216666669185
                },
                {
                    "name": "A#2",
                    "midi": 46,
                    "time": 265.15088016666914,
                    "velocity": 0.4645669291338583,
                    "duration": 0.10880216666669185
                },
                {
                    "name": "G#2",
                    "midi": 44,
                    "time": 265.25968233333583,
                    "velocity": 0.47244094488188976,
                    "duration": 0.10880216666669185
                },
                {
                    "name": "G2",
                    "midi": 43,
                    "time": 265.3684845000025,
                    "velocity": 0.48031496062992124,
                    "duration": 0.10880216666669185
                },
                {
                    "name": "G#2",
                    "midi": 44,
                    "time": 265.4772866666692,
                    "velocity": 0.4645669291338583,
                    "duration": 0.10880216666669185
                },
                {
                    "name": "G2",
                    "midi": 43,
                    "time": 265.5860888333359,
                    "velocity": 0.4645669291338583,
                    "duration": 0.10880216666669185
                },
                {
                    "name": "F2",
                    "midi": 41,
                    "time": 265.6948910000026,
                    "velocity": 0.49606299212598426,
                    "duration": 0.10880216666669185
                },
                {
                    "name": "G2",
                    "midi": 43,
                    "time": 265.8036931666693,
                    "velocity": 0.48031496062992124,
                    "duration": 0.10880216666669185
                },
                {
                    "name": "F2",
                    "midi": 41,
                    "time": 265.912495333336,
                    "velocity": 0.48031496062992124,
                    "duration": 0.10880216666669185
                },
                {
                    "name": "F#2",
                    "midi": 42,
                    "time": 266.0212975000027,
                    "velocity": 0.5039370078740157,
                    "duration": 0.10880216666669185
                },
                {
                    "name": "G2",
                    "midi": 43,
                    "time": 266.13009966666937,
                    "velocity": 0.4881889763779528,
                    "duration": 0.10880216666669185
                },
                {
                    "name": "F#2",
                    "midi": 42,
                    "time": 266.23890183333606,
                    "velocity": 0.4881889763779528,
                    "duration": 0.10880216666669185
                },
                {
                    "name": "G2",
                    "midi": 43,
                    "time": 266.34770400000275,
                    "velocity": 0.5275590551181102,
                    "duration": 0.10880216666669185
                },
                {
                    "name": "G#2",
                    "midi": 44,
                    "time": 266.45650616666944,
                    "velocity": 0.49606299212598426,
                    "duration": 0.10880216666669185
                },
                {
                    "name": "G2",
                    "midi": 43,
                    "time": 266.56530833333613,
                    "velocity": 0.49606299212598426,
                    "duration": 0.10880216666669185
                },
                {
                    "name": "F#2",
                    "midi": 42,
                    "time": 266.6741105000028,
                    "velocity": 0.5275590551181102,
                    "duration": 0.10880216666669185
                },
                {
                    "name": "G2",
                    "midi": 43,
                    "time": 266.7829126666695,
                    "velocity": 0.49606299212598426,
                    "duration": 0.10880216666669185
                },
                {
                    "name": "F#2",
                    "midi": 42,
                    "time": 266.8917148333362,
                    "velocity": 0.49606299212598426,
                    "duration": 0.10880216666669185
                },
                {
                    "name": "G2",
                    "midi": 43,
                    "time": 267.0005170000029,
                    "velocity": 0.5196850393700787,
                    "duration": 0.10880216666669185
                },
                {
                    "name": "G#2",
                    "midi": 44,
                    "time": 267.1093191666696,
                    "velocity": 0.49606299212598426,
                    "duration": 0.10880216666669185
                },
                {
                    "name": "G2",
                    "midi": 43,
                    "time": 267.2181213333363,
                    "velocity": 0.49606299212598426,
                    "duration": 0.10880216666669185
                },
                {
                    "name": "F#2",
                    "midi": 42,
                    "time": 267.326923500003,
                    "velocity": 0.5196850393700787,
                    "duration": 0.10880216666669185
                },
                {
                    "name": "G2",
                    "midi": 43,
                    "time": 267.43572566666967,
                    "velocity": 0.4881889763779528,
                    "duration": 0.10880216666669185
                },
                {
                    "name": "F#2",
                    "midi": 42,
                    "time": 267.54452783333636,
                    "velocity": 0.4881889763779528,
                    "duration": 0.10880216666669185
                },
                {
                    "name": "G2",
                    "midi": 43,
                    "time": 267.65333000000305,
                    "velocity": 0.5039370078740157,
                    "duration": 0.10880216666669185
                },
                {
                    "name": "G#2",
                    "midi": 44,
                    "time": 267.76213216666974,
                    "velocity": 0.4881889763779528,
                    "duration": 0.10880216666669185
                },
                {
                    "name": "G2",
                    "midi": 43,
                    "time": 267.87093433333644,
                    "velocity": 0.4881889763779528,
                    "duration": 0.10880216666669185
                },
                {
                    "name": "F2",
                    "midi": 41,
                    "time": 267.9797365000031,
                    "velocity": 0.5039370078740157,
                    "duration": 0.10880216666669185
                },
                {
                    "name": "G2",
                    "midi": 43,
                    "time": 268.0885386666698,
                    "velocity": 0.48031496062992124,
                    "duration": 0.10880216666669185
                },
                {
                    "name": "F2",
                    "midi": 41,
                    "time": 268.1973408333365,
                    "velocity": 0.48031496062992124,
                    "duration": 0.10880216666669185
                },
                {
                    "name": "D#2",
                    "midi": 39,
                    "time": 268.3061430000032,
                    "velocity": 0.49606299212598426,
                    "duration": 0.10880216666669185
                },
                {
                    "name": "F2",
                    "midi": 41,
                    "time": 268.4149451666699,
                    "velocity": 0.4881889763779528,
                    "duration": 0.10880216666669185
                },
                {
                    "name": "D#2",
                    "midi": 39,
                    "time": 268.5237473333366,
                    "velocity": 0.4881889763779528,
                    "duration": 0.10880216666669185
                },
                {
                    "name": "D2",
                    "midi": 38,
                    "time": 268.6325495000033,
                    "velocity": 0.49606299212598426,
                    "duration": 0.10880216666669185
                },
                {
                    "name": "D#2",
                    "midi": 39,
                    "time": 268.74135166666997,
                    "velocity": 0.47244094488188976,
                    "duration": 0.10880216666669185
                },
                {
                    "name": "D2",
                    "midi": 38,
                    "time": 268.85015383333666,
                    "velocity": 0.47244094488188976,
                    "duration": 0.10880216666669185
                },
                {
                    "name": "C2",
                    "midi": 36,
                    "time": 268.95895600000335,
                    "velocity": 0.6062992125984252,
                    "duration": 0.16320324999998093
                },
                {
                    "name": "F2",
                    "midi": 41,
                    "time": 269.2853625000033,
                    "velocity": 0.6220472440944882,
                    "duration": 0.16320324999998093
                },
                {
                    "name": "F3",
                    "midi": 53,
                    "time": 269.2853625000033,
                    "velocity": 0.6220472440944882,
                    "duration": 0.16320324999998093
                },
                {
                    "name": "G#2",
                    "midi": 44,
                    "time": 269.6117690000033,
                    "velocity": 0.4881889763779528,
                    "duration": 0.16320324999998093
                },
                {
                    "name": "G#3",
                    "midi": 56,
                    "time": 269.6117690000033,
                    "velocity": 0.5826771653543307,
                    "duration": 0.16320324999998093
                },
                {
                    "name": "G2",
                    "midi": 43,
                    "time": 269.93817550000324,
                    "velocity": 0.4881889763779528,
                    "duration": 0.16320324999998093
                },
                {
                    "name": "G3",
                    "midi": 55,
                    "time": 269.93817550000324,
                    "velocity": 0.5826771653543307,
                    "duration": 0.16320324999998093
                },
                {
                    "name": "F2",
                    "midi": 41,
                    "time": 270.2645820000032,
                    "velocity": 0.5354330708661418,
                    "duration": 0.16320324999998093
                },
                {
                    "name": "F3",
                    "midi": 53,
                    "time": 270.2645820000032,
                    "velocity": 0.6299212598425197,
                    "duration": 0.16320324999998093
                },
                {
                    "name": "D#2",
                    "midi": 39,
                    "time": 270.59098850000316,
                    "velocity": 0.4881889763779528,
                    "duration": 0.16320324999998093
                },
                {
                    "name": "D#3",
                    "midi": 51,
                    "time": 270.59098850000316,
                    "velocity": 0.5748031496062992,
                    "duration": 0.16320324999998093
                },
                {
                    "name": "D2",
                    "midi": 38,
                    "time": 270.9173950000031,
                    "velocity": 0.4881889763779528,
                    "duration": 0.16320324999998093
                },
                {
                    "name": "D3",
                    "midi": 50,
                    "time": 270.9173950000031,
                    "velocity": 0.5826771653543307,
                    "duration": 0.16320324999998093
                },
                {
                    "name": "C2",
                    "midi": 36,
                    "time": 271.2438015000031,
                    "velocity": 0.4881889763779528,
                    "duration": 0.16320324999998093
                },
                {
                    "name": "C3",
                    "midi": 48,
                    "time": 271.2438015000031,
                    "velocity": 0.5826771653543307,
                    "duration": 0.16320324999998093
                },
                {
                    "name": "B1",
                    "midi": 35,
                    "time": 271.57020800000305,
                    "velocity": 0.5433070866141733,
                    "duration": 0.6528129999999805
                },
                {
                    "name": "B2",
                    "midi": 47,
                    "time": 271.57020800000305,
                    "velocity": 0.6456692913385826,
                    "duration": 0.6528129999999805
                },
                {
                    "name": "G1",
                    "midi": 31,
                    "time": 272.22302100000303,
                    "velocity": 0.5039370078740157,
                    "duration": 0.3236864458333457
                },
                {
                    "name": "G2",
                    "midi": 43,
                    "time": 272.22302100000303,
                    "velocity": 0.5984251968503937,
                    "duration": 0.3236864458333457
                },
                {
                    "name": "G1",
                    "midi": 31,
                    "time": 272.54942750000305,
                    "velocity": 0.48031496062992124,
                    "duration": 0.3236864458333457
                },
                {
                    "name": "G2",
                    "midi": 43,
                    "time": 272.54942750000305,
                    "velocity": 0.5669291338582677,
                    "duration": 0.3236864458333457
                },
                {
                    "name": "G1",
                    "midi": 31,
                    "time": 272.87583400000307,
                    "velocity": 0.5039370078740157,
                    "duration": 0.3236864458333457
                },
                {
                    "name": "G2",
                    "midi": 43,
                    "time": 272.87583400000307,
                    "velocity": 0.5984251968503937,
                    "duration": 0.3236864458333457
                },
                {
                    "name": "G1",
                    "midi": 31,
                    "time": 273.2022405000031,
                    "velocity": 0.47244094488188976,
                    "duration": 0.3236864458333457
                },
                {
                    "name": "G2",
                    "midi": 43,
                    "time": 273.2022405000031,
                    "velocity": 0.5590551181102362,
                    "duration": 0.3236864458333457
                },
                {
                    "name": "G1",
                    "midi": 31,
                    "time": 273.5286470000031,
                    "velocity": 0.5039370078740157,
                    "duration": 0.3236864458333457
                },
                {
                    "name": "G2",
                    "midi": 43,
                    "time": 273.5286470000031,
                    "velocity": 0.5984251968503937,
                    "duration": 0.3236864458333457
                },
                {
                    "name": "G1",
                    "midi": 31,
                    "time": 273.8550535000031,
                    "velocity": 0.48031496062992124,
                    "duration": 0.3236864458333457
                },
                {
                    "name": "G2",
                    "midi": 43,
                    "time": 273.8550535000031,
                    "velocity": 0.5669291338582677,
                    "duration": 0.3236864458333457
                },
                {
                    "name": "C2",
                    "midi": 36,
                    "time": 274.18146000000314,
                    "velocity": 0.5433070866141733,
                    "duration": 0.3264065000000187
                },
                {
                    "name": "C3",
                    "midi": 48,
                    "time": 274.18146000000314,
                    "velocity": 0.6456692913385826,
                    "duration": 0.3264065000000187
                },
                {
                    "name": "G2",
                    "midi": 43,
                    "time": 274.8342730000032,
                    "velocity": 0.5275590551181102,
                    "duration": 0.3236864458333457
                },
                {
                    "name": "G3",
                    "midi": 55,
                    "time": 274.8342730000032,
                    "velocity": 0.6220472440944882,
                    "duration": 0.3236864458333457
                },
                {
                    "name": "G2",
                    "midi": 43,
                    "time": 275.1606795000032,
                    "velocity": 0.5039370078740157,
                    "duration": 0.3236864458333457
                },
                {
                    "name": "G3",
                    "midi": 55,
                    "time": 275.1606795000032,
                    "velocity": 0.5905511811023622,
                    "duration": 0.3236864458333457
                },
                {
                    "name": "G2",
                    "midi": 43,
                    "time": 275.4870860000032,
                    "velocity": 0.5275590551181102,
                    "duration": 0.3236864458333457
                },
                {
                    "name": "G3",
                    "midi": 55,
                    "time": 275.4870860000032,
                    "velocity": 0.6220472440944882,
                    "duration": 0.3236864458333457
                },
                {
                    "name": "G2",
                    "midi": 43,
                    "time": 275.81349250000324,
                    "velocity": 0.49606299212598426,
                    "duration": 0.3236864458333457
                },
                {
                    "name": "G3",
                    "midi": 55,
                    "time": 275.81349250000324,
                    "velocity": 0.5826771653543307,
                    "duration": 0.3236864458333457
                },
                {
                    "name": "G2",
                    "midi": 43,
                    "time": 276.13989900000325,
                    "velocity": 0.5275590551181102,
                    "duration": 0.3236864458333457
                },
                {
                    "name": "G3",
                    "midi": 55,
                    "time": 276.13989900000325,
                    "velocity": 0.6220472440944882,
                    "duration": 0.3236864458333457
                },
                {
                    "name": "G2",
                    "midi": 43,
                    "time": 276.4663055000033,
                    "velocity": 0.5039370078740157,
                    "duration": 0.3236864458333457
                },
                {
                    "name": "G3",
                    "midi": 55,
                    "time": 276.4663055000033,
                    "velocity": 0.5905511811023622,
                    "duration": 0.3236864458333457
                },
                {
                    "name": "C3",
                    "midi": 48,
                    "time": 276.7927120000033,
                    "velocity": 0.5669291338582677,
                    "duration": 0.3264065000000187
                },
                {
                    "name": "C4",
                    "midi": 60,
                    "time": 276.7927120000033,
                    "velocity": 0.6771653543307087,
                    "duration": 0.3264065000000187
                },
                {
                    "name": "G1",
                    "midi": 31,
                    "time": 277.44552500000333,
                    "velocity": 0.6299212598425197,
                    "duration": 0.3236864458333457
                },
                {
                    "name": "G2",
                    "midi": 43,
                    "time": 277.44552500000333,
                    "velocity": 0.7480314960629921,
                    "duration": 0.3236864458333457
                },
                {
                    "name": "G1",
                    "midi": 31,
                    "time": 277.77193150000335,
                    "velocity": 0.6062992125984252,
                    "duration": 0.3236864458333457
                },
                {
                    "name": "G2",
                    "midi": 43,
                    "time": 277.77193150000335,
                    "velocity": 0.7086614173228346,
                    "duration": 0.3236864458333457
                },
                {
                    "name": "G1",
                    "midi": 31,
                    "time": 278.09833800000337,
                    "velocity": 0.6299212598425197,
                    "duration": 0.3236864458333457
                },
                {
                    "name": "G2",
                    "midi": 43,
                    "time": 278.09833800000337,
                    "velocity": 0.7480314960629921,
                    "duration": 0.3236864458333457
                },
                {
                    "name": "G1",
                    "midi": 31,
                    "time": 278.4247445000034,
                    "velocity": 0.5905511811023622,
                    "duration": 0.3236864458333457
                },
                {
                    "name": "G2",
                    "midi": 43,
                    "time": 278.4247445000034,
                    "velocity": 0.7007874015748031,
                    "duration": 0.3236864458333457
                },
                {
                    "name": "G1",
                    "midi": 31,
                    "time": 278.7511510000034,
                    "velocity": 0.6299212598425197,
                    "duration": 0.3236864458333457
                },
                {
                    "name": "G2",
                    "midi": 43,
                    "time": 278.7511510000034,
                    "velocity": 0.7480314960629921,
                    "duration": 0.3236864458333457
                },
                {
                    "name": "G1",
                    "midi": 31,
                    "time": 279.0775575000034,
                    "velocity": 0.6062992125984252,
                    "duration": 0.3236864458333457
                },
                {
                    "name": "G2",
                    "midi": 43,
                    "time": 279.0775575000034,
                    "velocity": 0.7086614173228346,
                    "duration": 0.3236864458333457
                },
                {
                    "name": "C2",
                    "midi": 36,
                    "time": 279.40396400000344,
                    "velocity": 0.6692913385826772,
                    "duration": 0.3264065000000187
                },
                {
                    "name": "C3",
                    "midi": 48,
                    "time": 279.40396400000344,
                    "velocity": 0.8110236220472441,
                    "duration": 0.3264065000000187
                },
                {
                    "name": "G1",
                    "midi": 31,
                    "time": 280.0567770000035,
                    "velocity": 0.6299212598425197,
                    "duration": 0.3264065000000187
                },
                {
                    "name": "G2",
                    "midi": 43,
                    "time": 280.0567770000035,
                    "velocity": 0.7480314960629921,
                    "duration": 0.3264065000000187
                },
                {
                    "name": "C2",
                    "midi": 36,
                    "time": 280.7095900000035,
                    "velocity": 0.6692913385826772,
                    "duration": 0.3264065000000187
                },
                {
                    "name": "C3",
                    "midi": 48,
                    "time": 280.7095900000035,
                    "velocity": 0.8110236220472441,
                    "duration": 0.3264065000000187
                },
                {
                    "name": "G1",
                    "midi": 31,
                    "time": 281.36240300000355,
                    "velocity": 0.6299212598425197,
                    "duration": 0.3264065000000187
                },
                {
                    "name": "G2",
                    "midi": 43,
                    "time": 281.36240300000355,
                    "velocity": 0.7480314960629921,
                    "duration": 0.3264065000000187
                },
                {
                    "name": "C2",
                    "midi": 36,
                    "time": 282.0152160000036,
                    "velocity": 0.5748031496062992,
                    "duration": 0.16320324999998093
                },
                {
                    "name": "C3",
                    "midi": 48,
                    "time": 282.0152160000036,
                    "velocity": 0.6771653543307087,
                    "duration": 0.16320324999998093
                },
                {
                    "name": "C2",
                    "midi": 36,
                    "time": 282.66802900000357,
                    "velocity": 0.5748031496062992,
                    "duration": 0.16320324999998093
                },
                {
                    "name": "C3",
                    "midi": 48,
                    "time": 282.66802900000357,
                    "velocity": 0.6771653543307087,
                    "duration": 0.16320324999998093
                },
                {
                    "name": "C2",
                    "midi": 36,
                    "time": 283.32084200000355,
                    "velocity": 0.5748031496062992,
                    "duration": 0.3264065000000187
                },
                {
                    "name": "C3",
                    "midi": 48,
                    "time": 283.32084200000355,
                    "velocity": 0.6771653543307087,
                    "duration": 0.3264065000000187
                },
                {
                    "name": "C2",
                    "midi": 36,
                    "time": 284.62646800000357,
                    "velocity": 0.3779527559055118,
                    "duration": 0.6528129999999805
                },
                {
                    "name": "C3",
                    "midi": 48,
                    "time": 284.62646800000357,
                    "velocity": 0.44881889763779526,
                    "duration": 0.6528129999999805
                },
                {
                    "name": "C2",
                    "midi": 36,
                    "time": 285.93209400000353,
                    "velocity": 0.30708661417322836,
                    "duration": 0.6528129999999805
                },
                {
                    "name": "C3",
                    "midi": 48,
                    "time": 285.93209400000353,
                    "velocity": 0.36220472440944884,
                    "duration": 0.6528129999999805
                },
                {
                    "name": "G#1",
                    "midi": 32,
                    "time": 287.2377200000035,
                    "velocity": 0.5511811023622047,
                    "duration": 0.3264065000000187
                },
                {
                    "name": "G#2",
                    "midi": 44,
                    "time": 287.2377200000035,
                    "velocity": 0.6456692913385826,
                    "duration": 0.3264065000000187
                },
                {
                    "name": "G#2",
                    "midi": 44,
                    "time": 287.89053300000353,
                    "velocity": 0.4566929133858268,
                    "duration": 0.3264065000000187
                },
                {
                    "name": "C3",
                    "midi": 48,
                    "time": 287.89053300000353,
                    "velocity": 0.4566929133858268,
                    "duration": 0.3264065000000187
                },
                {
                    "name": "D#3",
                    "midi": 51,
                    "time": 287.89053300000353,
                    "velocity": 0.4566929133858268,
                    "duration": 0.3264065000000187
                },
                {
                    "name": "G#3",
                    "midi": 56,
                    "time": 287.89053300000353,
                    "velocity": 0.5433070866141733,
                    "duration": 0.3264065000000187
                },
                {
                    "name": "G#3",
                    "midi": 56,
                    "time": 288.54334600000357,
                    "velocity": 0.47244094488188976,
                    "duration": 0.9792194999999992
                },
                {
                    "name": "C4",
                    "midi": 60,
                    "time": 288.54334600000357,
                    "velocity": 0.47244094488188976,
                    "duration": 0.9792194999999992
                },
                {
                    "name": "D#4",
                    "midi": 63,
                    "time": 288.54334600000357,
                    "velocity": 0.47244094488188976,
                    "duration": 0.9792194999999992
                },
                {
                    "name": "G#4",
                    "midi": 68,
                    "time": 288.54334600000357,
                    "velocity": 0.5590551181102362,
                    "duration": 0.9792194999999992
                },
                {
                    "name": "G#3",
                    "midi": 56,
                    "time": 289.52256550000357,
                    "velocity": 0.31496062992125984,
                    "duration": 0.3264065000000187
                },
                {
                    "name": "C4",
                    "midi": 60,
                    "time": 289.52256550000357,
                    "velocity": 0.31496062992125984,
                    "duration": 0.3264065000000187
                },
                {
                    "name": "D#4",
                    "midi": 63,
                    "time": 289.52256550000357,
                    "velocity": 0.31496062992125984,
                    "duration": 0.3264065000000187
                },
                {
                    "name": "G#4",
                    "midi": 68,
                    "time": 289.52256550000357,
                    "velocity": 0.3779527559055118,
                    "duration": 0.3264065000000187
                },
                {
                    "name": "G#3",
                    "midi": 56,
                    "time": 289.8489720000036,
                    "velocity": 0.3464566929133858,
                    "duration": 0.6528129999999805
                },
                {
                    "name": "A#3",
                    "midi": 58,
                    "time": 289.8489720000036,
                    "velocity": 0.3464566929133858,
                    "duration": 0.6528129999999805
                },
                {
                    "name": "C#4",
                    "midi": 61,
                    "time": 289.8489720000036,
                    "velocity": 0.3464566929133858,
                    "duration": 0.6528129999999805
                },
                {
                    "name": "D#4",
                    "midi": 63,
                    "time": 289.8489720000036,
                    "velocity": 0.3464566929133858,
                    "duration": 0.6528129999999805
                },
                {
                    "name": "G4",
                    "midi": 67,
                    "time": 289.8489720000036,
                    "velocity": 0.4094488188976378,
                    "duration": 0.6528129999999805
                },
                {
                    "name": "G#3",
                    "midi": 56,
                    "time": 290.50178500000357,
                    "velocity": 0.25984251968503935,
                    "duration": 0.6528129999999805
                },
                {
                    "name": "A#3",
                    "midi": 58,
                    "time": 290.50178500000357,
                    "velocity": 0.25984251968503935,
                    "duration": 0.6528129999999805
                },
                {
                    "name": "C#4",
                    "midi": 61,
                    "time": 290.50178500000357,
                    "velocity": 0.25984251968503935,
                    "duration": 0.6528129999999805
                },
                {
                    "name": "D#4",
                    "midi": 63,
                    "time": 290.50178500000357,
                    "velocity": 0.25984251968503935,
                    "duration": 0.6528129999999805
                },
                {
                    "name": "G4",
                    "midi": 67,
                    "time": 290.50178500000357,
                    "velocity": 0.30708661417322836,
                    "duration": 0.6528129999999805
                },
                {
                    "name": "G#3",
                    "midi": 56,
                    "time": 291.15459800000355,
                    "velocity": 0.25984251968503935,
                    "duration": 0.6528129999999805
                },
                {
                    "name": "C4",
                    "midi": 60,
                    "time": 291.15459800000355,
                    "velocity": 0.25984251968503935,
                    "duration": 0.6528129999999805
                },
                {
                    "name": "D#4",
                    "midi": 63,
                    "time": 291.15459800000355,
                    "velocity": 0.25984251968503935,
                    "duration": 0.6528129999999805
                },
                {
                    "name": "G#4",
                    "midi": 68,
                    "time": 291.15459800000355,
                    "velocity": 0.30708661417322836,
                    "duration": 0.6528129999999805
                },
                {
                    "name": "F1",
                    "midi": 29,
                    "time": 292.4602240000035,
                    "velocity": 0.5511811023622047,
                    "duration": 0.3264065000000187
                },
                {
                    "name": "F2",
                    "midi": 41,
                    "time": 292.4602240000035,
                    "velocity": 0.6456692913385826,
                    "duration": 0.3264065000000187
                },
                {
                    "name": "F2",
                    "midi": 41,
                    "time": 293.11303700000354,
                    "velocity": 0.4566929133858268,
                    "duration": 0.3264065000000187
                },
                {
                    "name": "G#2",
                    "midi": 44,
                    "time": 293.11303700000354,
                    "velocity": 0.4566929133858268,
                    "duration": 0.3264065000000187
                },
                {
                    "name": "C3",
                    "midi": 48,
                    "time": 293.11303700000354,
                    "velocity": 0.4566929133858268,
                    "duration": 0.3264065000000187
                },
                {
                    "name": "F3",
                    "midi": 53,
                    "time": 293.11303700000354,
                    "velocity": 0.5433070866141733,
                    "duration": 0.3264065000000187
                },
                {
                    "name": "F3",
                    "midi": 53,
                    "time": 293.7658500000036,
                    "velocity": 0.4645669291338583,
                    "duration": 0.9792194999999992
                },
                {
                    "name": "G#3",
                    "midi": 56,
                    "time": 293.7658500000036,
                    "velocity": 0.4645669291338583,
                    "duration": 0.9792194999999992
                },
                {
                    "name": "C4",
                    "midi": 60,
                    "time": 293.7658500000036,
                    "velocity": 0.4645669291338583,
                    "duration": 0.9792194999999992
                },
                {
                    "name": "F4",
                    "midi": 65,
                    "time": 293.7658500000036,
                    "velocity": 0.5511811023622047,
                    "duration": 0.9792194999999992
                },
                {
                    "name": "F3",
                    "midi": 53,
                    "time": 294.7450695000036,
                    "velocity": 0.31496062992125984,
                    "duration": 0.3264065000000187
                },
                {
                    "name": "G#3",
                    "midi": 56,
                    "time": 294.7450695000036,
                    "velocity": 0.31496062992125984,
                    "duration": 0.3264065000000187
                },
                {
                    "name": "C4",
                    "midi": 60,
                    "time": 294.7450695000036,
                    "velocity": 0.31496062992125984,
                    "duration": 0.3264065000000187
                },
                {
                    "name": "F4",
                    "midi": 65,
                    "time": 294.7450695000036,
                    "velocity": 0.3779527559055118,
                    "duration": 0.3264065000000187
                },
                {
                    "name": "F3",
                    "midi": 53,
                    "time": 295.0714760000036,
                    "velocity": 0.3464566929133858,
                    "duration": 0.6528129999999805
                },
                {
                    "name": "G3",
                    "midi": 55,
                    "time": 295.0714760000036,
                    "velocity": 0.3464566929133858,
                    "duration": 0.6528129999999805
                },
                {
                    "name": "A#3",
                    "midi": 58,
                    "time": 295.0714760000036,
                    "velocity": 0.3464566929133858,
                    "duration": 0.6528129999999805
                },
                {
                    "name": "C4",
                    "midi": 60,
                    "time": 295.0714760000036,
                    "velocity": 0.3464566929133858,
                    "duration": 0.6528129999999805
                },
                {
                    "name": "E4",
                    "midi": 64,
                    "time": 295.0714760000036,
                    "velocity": 0.4094488188976378,
                    "duration": 0.6528129999999805
                },
                {
                    "name": "F3",
                    "midi": 53,
                    "time": 295.7242890000036,
                    "velocity": 0.25984251968503935,
                    "duration": 0.6528129999999805
                },
                {
                    "name": "G3",
                    "midi": 55,
                    "time": 295.7242890000036,
                    "velocity": 0.25984251968503935,
                    "duration": 0.6528129999999805
                },
                {
                    "name": "A#3",
                    "midi": 58,
                    "time": 295.7242890000036,
                    "velocity": 0.25984251968503935,
                    "duration": 0.6528129999999805
                },
                {
                    "name": "C4",
                    "midi": 60,
                    "time": 295.7242890000036,
                    "velocity": 0.25984251968503935,
                    "duration": 0.6528129999999805
                },
                {
                    "name": "E4",
                    "midi": 64,
                    "time": 295.7242890000036,
                    "velocity": 0.30708661417322836,
                    "duration": 0.6528129999999805
                },
                {
                    "name": "F3",
                    "midi": 53,
                    "time": 296.37710200000356,
                    "velocity": 0.25984251968503935,
                    "duration": 0.6528129999999805
                },
                {
                    "name": "G#3",
                    "midi": 56,
                    "time": 296.37710200000356,
                    "velocity": 0.25984251968503935,
                    "duration": 0.6528129999999805
                },
                {
                    "name": "C4",
                    "midi": 60,
                    "time": 296.37710200000356,
                    "velocity": 0.25984251968503935,
                    "duration": 0.6528129999999805
                },
                {
                    "name": "F4",
                    "midi": 65,
                    "time": 296.37710200000356,
                    "velocity": 0.30708661417322836,
                    "duration": 0.6528129999999805
                },
                {
                    "name": "C#2",
                    "midi": 37,
                    "time": 297.6827280000035,
                    "velocity": 0.5511811023622047,
                    "duration": 0.3264065000000187
                },
                {
                    "name": "C#3",
                    "midi": 49,
                    "time": 297.6827280000035,
                    "velocity": 0.6456692913385826,
                    "duration": 0.3264065000000187
                },
                {
                    "name": "C#3",
                    "midi": 49,
                    "time": 298.33554100000356,
                    "velocity": 0.4566929133858268,
                    "duration": 0.3264065000000187
                },
                {
                    "name": "F3",
                    "midi": 53,
                    "time": 298.33554100000356,
                    "velocity": 0.4566929133858268,
                    "duration": 0.3264065000000187
                },
                {
                    "name": "G#3",
                    "midi": 56,
                    "time": 298.33554100000356,
                    "velocity": 0.4566929133858268,
                    "duration": 0.3264065000000187
                },
                {
                    "name": "C#4",
                    "midi": 61,
                    "time": 298.33554100000356,
                    "velocity": 0.5433070866141733,
                    "duration": 0.3264065000000187
                },
                {
                    "name": "C#4",
                    "midi": 61,
                    "time": 298.9883540000036,
                    "velocity": 0.47244094488188976,
                    "duration": 0.9792194999999992
                },
                {
                    "name": "F4",
                    "midi": 65,
                    "time": 298.9883540000036,
                    "velocity": 0.47244094488188976,
                    "duration": 0.9792194999999992
                },
                {
                    "name": "G#4",
                    "midi": 68,
                    "time": 298.9883540000036,
                    "velocity": 0.47244094488188976,
                    "duration": 0.9792194999999992
                },
                {
                    "name": "C#5",
                    "midi": 73,
                    "time": 298.9883540000036,
                    "velocity": 0.5590551181102362,
                    "duration": 0.9792194999999992
                },
                {
                    "name": "C#4",
                    "midi": 61,
                    "time": 299.9675735000036,
                    "velocity": 0.31496062992125984,
                    "duration": 0.3264065000000187
                },
                {
                    "name": "F4",
                    "midi": 65,
                    "time": 299.9675735000036,
                    "velocity": 0.31496062992125984,
                    "duration": 0.3264065000000187
                },
                {
                    "name": "G#4",
                    "midi": 68,
                    "time": 299.9675735000036,
                    "velocity": 0.31496062992125984,
                    "duration": 0.3264065000000187
                },
                {
                    "name": "C#5",
                    "midi": 73,
                    "time": 299.9675735000036,
                    "velocity": 0.3779527559055118,
                    "duration": 0.3264065000000187
                },
                {
                    "name": "C#4",
                    "midi": 61,
                    "time": 300.2939800000036,
                    "velocity": 0.3464566929133858,
                    "duration": 0.6528129999999805
                },
                {
                    "name": "D#4",
                    "midi": 63,
                    "time": 300.2939800000036,
                    "velocity": 0.3464566929133858,
                    "duration": 0.6528129999999805
                },
                {
                    "name": "F#4",
                    "midi": 66,
                    "time": 300.2939800000036,
                    "velocity": 0.3464566929133858,
                    "duration": 0.6528129999999805
                },
                {
                    "name": "G#4",
                    "midi": 68,
                    "time": 300.2939800000036,
                    "velocity": 0.3464566929133858,
                    "duration": 0.6528129999999805
                },
                {
                    "name": "C5",
                    "midi": 72,
                    "time": 300.2939800000036,
                    "velocity": 0.4094488188976378,
                    "duration": 0.6528129999999805
                },
                {
                    "name": "C#4",
                    "midi": 61,
                    "time": 300.9467930000036,
                    "velocity": 0.25984251968503935,
                    "duration": 0.6528129999999805
                },
                {
                    "name": "D#4",
                    "midi": 63,
                    "time": 300.9467930000036,
                    "velocity": 0.25984251968503935,
                    "duration": 0.6528129999999805
                },
                {
                    "name": "F#4",
                    "midi": 66,
                    "time": 300.9467930000036,
                    "velocity": 0.25984251968503935,
                    "duration": 0.6528129999999805
                },
                {
                    "name": "G#4",
                    "midi": 68,
                    "time": 300.9467930000036,
                    "velocity": 0.25984251968503935,
                    "duration": 0.6528129999999805
                },
                {
                    "name": "C5",
                    "midi": 72,
                    "time": 300.9467930000036,
                    "velocity": 0.30708661417322836,
                    "duration": 0.6528129999999805
                },
                {
                    "name": "C#4",
                    "midi": 61,
                    "time": 301.5996060000036,
                    "velocity": 0.25984251968503935,
                    "duration": 0.9792194999999992
                },
                {
                    "name": "F4",
                    "midi": 65,
                    "time": 301.5996060000036,
                    "velocity": 0.25984251968503935,
                    "duration": 0.9792194999999992
                },
                {
                    "name": "G#4",
                    "midi": 68,
                    "time": 301.5996060000036,
                    "velocity": 0.25984251968503935,
                    "duration": 0.9792194999999992
                },
                {
                    "name": "C#5",
                    "midi": 73,
                    "time": 301.5996060000036,
                    "velocity": 0.30708661417322836,
                    "duration": 0.9792194999999992
                },
                {
                    "name": "C#3",
                    "midi": 49,
                    "time": 302.5788255000036,
                    "velocity": 0.25196850393700787,
                    "duration": 0.3264065000000187
                },
                {
                    "name": "G#3",
                    "midi": 56,
                    "time": 302.5788255000036,
                    "velocity": 0.25196850393700787,
                    "duration": 0.3264065000000187
                },
                {
                    "name": "C#4",
                    "midi": 61,
                    "time": 302.5788255000036,
                    "velocity": 0.2992125984251969,
                    "duration": 0.3264065000000187
                },
                {
                    "name": "C#3",
                    "midi": 49,
                    "time": 302.9052320000036,
                    "velocity": 0.2755905511811024,
                    "duration": 0.6528129999999805
                },
                {
                    "name": "G#3",
                    "midi": 56,
                    "time": 302.9052320000036,
                    "velocity": 0.2755905511811024,
                    "duration": 0.6528129999999805
                },
                {
                    "name": "C4",
                    "midi": 60,
                    "time": 302.9052320000036,
                    "velocity": 0.3228346456692913,
                    "duration": 0.6528129999999805
                },
                {
                    "name": "C#3",
                    "midi": 49,
                    "time": 303.5580450000036,
                    "velocity": 0.2047244094488189,
                    "duration": 0.6528129999999805
                },
                {
                    "name": "G#3",
                    "midi": 56,
                    "time": 303.5580450000036,
                    "velocity": 0.2047244094488189,
                    "duration": 0.6528129999999805
                },
                {
                    "name": "C4",
                    "midi": 60,
                    "time": 303.5580450000036,
                    "velocity": 0.2440944881889764,
                    "duration": 0.6528129999999805
                },
                {
                    "name": "C#3",
                    "midi": 49,
                    "time": 304.21085800000355,
                    "velocity": 0.2047244094488189,
                    "duration": 0.9792194999999992
                },
                {
                    "name": "G#3",
                    "midi": 56,
                    "time": 304.21085800000355,
                    "velocity": 0.2047244094488189,
                    "duration": 0.9792194999999992
                },
                {
                    "name": "C#4",
                    "midi": 61,
                    "time": 304.21085800000355,
                    "velocity": 0.2440944881889764,
                    "duration": 0.9792194999999992
                },
                {
                    "name": "C#2",
                    "midi": 37,
                    "time": 305.19007750000355,
                    "velocity": 0.14960629921259844,
                    "duration": 0.3264065000000187
                },
                {
                    "name": "G#2",
                    "midi": 44,
                    "time": 305.19007750000355,
                    "velocity": 0.18110236220472442,
                    "duration": 0.3264065000000187
                },
                {
                    "name": "C#3",
                    "midi": 49,
                    "time": 305.19007750000355,
                    "velocity": 0.2204724409448819,
                    "duration": 0.3264065000000187
                },
                {
                    "name": "C#2",
                    "midi": 37,
                    "time": 305.5164840000036,
                    "velocity": 0.1732283464566929,
                    "duration": 0.6460128645833265
                },
                {
                    "name": "G#2",
                    "midi": 44,
                    "time": 305.5164840000036,
                    "velocity": 0.2047244094488189,
                    "duration": 0.6460128645833265
                },
                {
                    "name": "C3",
                    "midi": 48,
                    "time": 305.5164840000036,
                    "velocity": 0.23622047244094488,
                    "duration": 0.6460128645833265
                },
                {
                    "name": "C#2",
                    "midi": 37,
                    "time": 306.16929700000355,
                    "velocity": 0.12598425196850394,
                    "duration": 0.6460128645833265
                },
                {
                    "name": "G#2",
                    "midi": 44,
                    "time": 306.16929700000355,
                    "velocity": 0.14960629921259844,
                    "duration": 0.6460128645833265
                },
                {
                    "name": "C3",
                    "midi": 48,
                    "time": 306.16929700000355,
                    "velocity": 0.18110236220472442,
                    "duration": 0.6460128645833265
                },
                {
                    "name": "C#2",
                    "midi": 37,
                    "time": 306.82211000000353,
                    "velocity": 0.12598425196850394,
                    "duration": 0.6460128645833265
                },
                {
                    "name": "G#2",
                    "midi": 44,
                    "time": 306.82211000000353,
                    "velocity": 0.14960629921259844,
                    "duration": 0.6460128645833265
                },
                {
                    "name": "C#3",
                    "midi": 49,
                    "time": 306.82211000000353,
                    "velocity": 0.18110236220472442,
                    "duration": 0.6460128645833265
                },
                {
                    "name": "C#2",
                    "midi": 37,
                    "time": 307.4749230000035,
                    "velocity": 0.12598425196850394,
                    "duration": 0.6460128645833265
                },
                {
                    "name": "G#2",
                    "midi": 44,
                    "time": 307.4749230000035,
                    "velocity": 0.14960629921259844,
                    "duration": 0.6460128645833265
                },
                {
                    "name": "C#3",
                    "midi": 49,
                    "time": 307.4749230000035,
                    "velocity": 0.18110236220472442,
                    "duration": 0.6460128645833265
                },
                {
                    "name": "C3",
                    "midi": 48,
                    "time": 308.1277360000035,
                    "velocity": 0.23622047244094488,
                    "duration": 0.6460128645833265
                },
                {
                    "name": "C#2",
                    "midi": 37,
                    "time": 308.1277360000035,
                    "velocity": 0.1732283464566929,
                    "duration": 0.6460128645833265
                },
                {
                    "name": "G#2",
                    "midi": 44,
                    "time": 308.1277360000035,
                    "velocity": 0.2047244094488189,
                    "duration": 0.6460128645833265
                },
                {
                    "name": "C3",
                    "midi": 48,
                    "time": 308.7805490000035,
                    "velocity": 0.18110236220472442,
                    "duration": 0.6460128645833265
                },
                {
                    "name": "C#2",
                    "midi": 37,
                    "time": 308.7805490000035,
                    "velocity": 0.12598425196850394,
                    "duration": 0.6460128645833265
                },
                {
                    "name": "G#2",
                    "midi": 44,
                    "time": 308.7805490000035,
                    "velocity": 0.14960629921259844,
                    "duration": 0.6460128645833265
                },
                {
                    "name": "C3",
                    "midi": 48,
                    "time": 309.43336200000346,
                    "velocity": 0.23622047244094488,
                    "duration": 0.6460128645833265
                },
                {
                    "name": "C#2",
                    "midi": 37,
                    "time": 309.43336200000346,
                    "velocity": 0.1732283464566929,
                    "duration": 0.6460128645833265
                },
                {
                    "name": "G#2",
                    "midi": 44,
                    "time": 309.43336200000346,
                    "velocity": 0.2047244094488189,
                    "duration": 0.6460128645833265
                },
                {
                    "name": "C3",
                    "midi": 48,
                    "time": 310.08617500000344,
                    "velocity": 0.18110236220472442,
                    "duration": 0.6460128645833265
                },
                {
                    "name": "C#2",
                    "midi": 37,
                    "time": 310.08617500000344,
                    "velocity": 0.12598425196850394,
                    "duration": 0.6460128645833265
                },
                {
                    "name": "G#2",
                    "midi": 44,
                    "time": 310.08617500000344,
                    "velocity": 0.14960629921259844,
                    "duration": 0.6460128645833265
                },
                {
                    "name": "C#2",
                    "midi": 37,
                    "time": 310.7389880000034,
                    "velocity": 0.12598425196850394,
                    "duration": 0.3264065000000187
                },
                {
                    "name": "G#2",
                    "midi": 44,
                    "time": 310.7389880000034,
                    "velocity": 0.14960629921259844,
                    "duration": 0.3264065000000187
                },
                {
                    "name": "C#3",
                    "midi": 49,
                    "time": 310.7389880000034,
                    "velocity": 0.18110236220472442,
                    "duration": 0.3264065000000187
                },
                {
                    "name": "C#3",
                    "midi": 49,
                    "time": 311.39180100000345,
                    "velocity": 0.28346456692913385,
                    "duration": 0.3264065000000187
                },
                {
                    "name": "C#3",
                    "midi": 49,
                    "time": 312.0446140000035,
                    "velocity": 0.2992125984251969,
                    "duration": 0.3264065000000187
                },
                {
                    "name": "C#3",
                    "midi": 49,
                    "time": 312.69742700000353,
                    "velocity": 0.2992125984251969,
                    "duration": 0.3264065000000187
                },
                {
                    "name": "G#2",
                    "midi": 44,
                    "time": 313.35024000000357,
                    "velocity": 0.3543307086614173,
                    "duration": 0.3264065000000187
                },
                {
                    "name": "G#2",
                    "midi": 44,
                    "time": 314.0030530000036,
                    "velocity": 0.33070866141732286,
                    "duration": 0.3264065000000187
                },
                {
                    "name": "G#2",
                    "midi": 44,
                    "time": 314.65586600000364,
                    "velocity": 0.2992125984251969,
                    "duration": 0.3264065000000187
                },
                {
                    "name": "G#2",
                    "midi": 44,
                    "time": 315.3086790000037,
                    "velocity": 0.2992125984251969,
                    "duration": 0.3264065000000187
                },
                {
                    "name": "D#2",
                    "midi": 39,
                    "time": 315.9614920000037,
                    "velocity": 0.1968503937007874,
                    "duration": 0.3264065000000187
                },
                {
                    "name": "D#3",
                    "midi": 51,
                    "time": 316.61430500000375,
                    "velocity": 0.28346456692913385,
                    "duration": 0.3264065000000187
                },
                {
                    "name": "D#3",
                    "midi": 51,
                    "time": 317.2671180000038,
                    "velocity": 0.2992125984251969,
                    "duration": 0.3264065000000187
                },
                {
                    "name": "D#3",
                    "midi": 51,
                    "time": 317.9199310000038,
                    "velocity": 0.2992125984251969,
                    "duration": 0.3264065000000187
                },
                {
                    "name": "A#2",
                    "midi": 46,
                    "time": 318.57274400000387,
                    "velocity": 0.3543307086614173,
                    "duration": 0.3264065000000187
                },
                {
                    "name": "A#2",
                    "midi": 46,
                    "time": 319.2255570000039,
                    "velocity": 0.33070866141732286,
                    "duration": 0.3264065000000187
                },
                {
                    "name": "A#2",
                    "midi": 46,
                    "time": 319.87837000000394,
                    "velocity": 0.2992125984251969,
                    "duration": 0.3264065000000187
                },
                {
                    "name": "A#2",
                    "midi": 46,
                    "time": 320.531183000004,
                    "velocity": 0.3228346456692913,
                    "duration": 0.3264065000000187
                },
                {
                    "name": "F2",
                    "midi": 41,
                    "time": 321.183996000004,
                    "velocity": 0.1968503937007874,
                    "duration": 0.3264065000000187
                },
                {
                    "name": "F3",
                    "midi": 53,
                    "time": 321.83680900000405,
                    "velocity": 0.28346456692913385,
                    "duration": 0.3264065000000187
                },
                {
                    "name": "F3",
                    "midi": 53,
                    "time": 322.4896220000041,
                    "velocity": 0.2992125984251969,
                    "duration": 0.3264065000000187
                },
                {
                    "name": "F3",
                    "midi": 53,
                    "time": 323.1424350000041,
                    "velocity": 0.2992125984251969,
                    "duration": 0.3264065000000187
                },
                {
                    "name": "C3",
                    "midi": 48,
                    "time": 323.79524800000416,
                    "velocity": 0.3228346456692913,
                    "duration": 0.3264065000000187
                },
                {
                    "name": "C3",
                    "midi": 48,
                    "time": 324.4480610000042,
                    "velocity": 0.33070866141732286,
                    "duration": 0.3264065000000187
                },
                {
                    "name": "F3",
                    "midi": 53,
                    "time": 325.10087400000424,
                    "velocity": 0.2992125984251969,
                    "duration": 0.3264065000000187
                },
                {
                    "name": "F3",
                    "midi": 53,
                    "time": 325.7536870000043,
                    "velocity": 0.2992125984251969,
                    "duration": 0.3264065000000187
                },
                {
                    "name": "C2",
                    "midi": 36,
                    "time": 326.4065000000043,
                    "velocity": 0.36220472440944884,
                    "duration": 0.3264065000000187
                },
                {
                    "name": "E3",
                    "midi": 52,
                    "time": 327.05931300000435,
                    "velocity": 0.30708661417322836,
                    "duration": 0.6528129999999805
                },
                {
                    "name": "G3",
                    "midi": 55,
                    "time": 327.05931300000435,
                    "velocity": 0.30708661417322836,
                    "duration": 0.6528129999999805
                },
                {
                    "name": "E3",
                    "midi": 52,
                    "time": 327.71212600000433,
                    "velocity": 0.30708661417322836,
                    "duration": 1.305626000000018
                },
                {
                    "name": "G3",
                    "midi": 55,
                    "time": 327.71212600000433,
                    "velocity": 0.30708661417322836,
                    "duration": 1.305626000000018
                },
                {
                    "name": "C2",
                    "midi": 36,
                    "time": 329.01775200000435,
                    "velocity": 0.36220472440944884,
                    "duration": 0.3264065000000187
                },
                {
                    "name": "F3",
                    "midi": 53,
                    "time": 329.6705650000044,
                    "velocity": 0.30708661417322836,
                    "duration": 0.6528129999999805
                },
                {
                    "name": "G#3",
                    "midi": 56,
                    "time": 329.6705650000044,
                    "velocity": 0.30708661417322836,
                    "duration": 0.6528129999999805
                },
                {
                    "name": "F3",
                    "midi": 53,
                    "time": 330.32337800000437,
                    "velocity": 0.30708661417322836,
                    "duration": 1.305626000000018
                },
                {
                    "name": "G#3",
                    "midi": 56,
                    "time": 330.32337800000437,
                    "velocity": 0.30708661417322836,
                    "duration": 1.305626000000018
                },
                {
                    "name": "C2",
                    "midi": 36,
                    "time": 331.6290040000044,
                    "velocity": 0.36220472440944884,
                    "duration": 0.3264065000000187
                },
                {
                    "name": "G3",
                    "midi": 55,
                    "time": 332.2818170000044,
                    "velocity": 0.30708661417322836,
                    "duration": 0.6528129999999805
                },
                {
                    "name": "A#3",
                    "midi": 58,
                    "time": 332.2818170000044,
                    "velocity": 0.30708661417322836,
                    "duration": 0.6528129999999805
                },
                {
                    "name": "G3",
                    "midi": 55,
                    "time": 332.9346300000044,
                    "velocity": 0.30708661417322836,
                    "duration": 1.305626000000018
                },
                {
                    "name": "A#3",
                    "midi": 58,
                    "time": 332.9346300000044,
                    "velocity": 0.30708661417322836,
                    "duration": 1.305626000000018
                },
                {
                    "name": "F2",
                    "midi": 41,
                    "time": 334.2402560000044,
                    "velocity": 0.36220472440944884,
                    "duration": 0.3264065000000187
                },
                {
                    "name": "A3",
                    "midi": 57,
                    "time": 334.89306900000446,
                    "velocity": 0.30708661417322836,
                    "duration": 0.6528129999999805
                },
                {
                    "name": "C4",
                    "midi": 60,
                    "time": 334.89306900000446,
                    "velocity": 0.30708661417322836,
                    "duration": 0.6528129999999805
                },
                {
                    "name": "A3",
                    "midi": 57,
                    "time": 335.54588200000444,
                    "velocity": 0.30708661417322836,
                    "duration": 1.305626000000018
                },
                {
                    "name": "C4",
                    "midi": 60,
                    "time": 335.54588200000444,
                    "velocity": 0.30708661417322836,
                    "duration": 1.305626000000018
                },
                {
                    "name": "F2",
                    "midi": 41,
                    "time": 336.85150800000446,
                    "velocity": 0.36220472440944884,
                    "duration": 0.3264065000000187
                },
                {
                    "name": "A#3",
                    "midi": 58,
                    "time": 337.5043210000045,
                    "velocity": 0.30708661417322836,
                    "duration": 0.6528129999999805
                },
                {
                    "name": "C#4",
                    "midi": 61,
                    "time": 337.5043210000045,
                    "velocity": 0.30708661417322836,
                    "duration": 0.6528129999999805
                },
                {
                    "name": "A#3",
                    "midi": 58,
                    "time": 338.1571340000045,
                    "velocity": 0.30708661417322836,
                    "duration": 1.305626000000018
                },
                {
                    "name": "C#4",
                    "midi": 61,
                    "time": 338.1571340000045,
                    "velocity": 0.30708661417322836,
                    "duration": 1.305626000000018
                },
                {
                    "name": "F2",
                    "midi": 41,
                    "time": 339.4627600000045,
                    "velocity": 0.36220472440944884,
                    "duration": 0.3264065000000187
                },
                {
                    "name": "C4",
                    "midi": 60,
                    "time": 340.11557300000453,
                    "velocity": 0.30708661417322836,
                    "duration": 0.6528129999999805
                },
                {
                    "name": "D#4",
                    "midi": 63,
                    "time": 340.11557300000453,
                    "velocity": 0.30708661417322836,
                    "duration": 0.6528129999999805
                },
                {
                    "name": "C4",
                    "midi": 60,
                    "time": 340.7683860000045,
                    "velocity": 0.30708661417322836,
                    "duration": 1.305626000000018
                },
                {
                    "name": "D#4",
                    "midi": 63,
                    "time": 340.7683860000045,
                    "velocity": 0.30708661417322836,
                    "duration": 1.305626000000018
                },
                {
                    "name": "A#2",
                    "midi": 46,
                    "time": 342.07401200000453,
                    "velocity": 0.36220472440944884,
                    "duration": 0.3264065000000187
                },
                {
                    "name": "D4",
                    "midi": 62,
                    "time": 342.72682500000457,
                    "velocity": 0.30708661417322836,
                    "duration": 0.6528129999999805
                },
                {
                    "name": "F4",
                    "midi": 65,
                    "time": 342.72682500000457,
                    "velocity": 0.30708661417322836,
                    "duration": 0.6528129999999805
                },
                {
                    "name": "D4",
                    "midi": 62,
                    "time": 343.37963800000455,
                    "velocity": 0.30708661417322836,
                    "duration": 1.305626000000018
                },
                {
                    "name": "F4",
                    "midi": 65,
                    "time": 343.37963800000455,
                    "velocity": 0.30708661417322836,
                    "duration": 1.305626000000018
                },
                {
                    "name": "A#2",
                    "midi": 46,
                    "time": 344.68526400000457,
                    "velocity": 0.36220472440944884,
                    "duration": 0.3264065000000187
                },
                {
                    "name": "D#4",
                    "midi": 63,
                    "time": 345.3380770000046,
                    "velocity": 0.30708661417322836,
                    "duration": 0.6528129999999805
                },
                {
                    "name": "F#4",
                    "midi": 66,
                    "time": 345.3380770000046,
                    "velocity": 0.30708661417322836,
                    "duration": 0.6528129999999805
                },
                {
                    "name": "D#4",
                    "midi": 63,
                    "time": 345.9908900000046,
                    "velocity": 0.30708661417322836,
                    "duration": 1.305626000000018
                },
                {
                    "name": "F#4",
                    "midi": 66,
                    "time": 345.9908900000046,
                    "velocity": 0.30708661417322836,
                    "duration": 1.305626000000018
                },
                {
                    "name": "A#2",
                    "midi": 46,
                    "time": 347.2965160000046,
                    "velocity": 0.36220472440944884,
                    "duration": 0.3264065000000187
                },
                {
                    "name": "F4",
                    "midi": 65,
                    "time": 347.94932900000464,
                    "velocity": 0.30708661417322836,
                    "duration": 0.6528129999999805
                },
                {
                    "name": "G#4",
                    "midi": 68,
                    "time": 347.94932900000464,
                    "velocity": 0.30708661417322836,
                    "duration": 0.6528129999999805
                },
                {
                    "name": "F4",
                    "midi": 65,
                    "time": 348.6021420000046,
                    "velocity": 0.30708661417322836,
                    "duration": 1.305626000000018
                },
                {
                    "name": "G#4",
                    "midi": 68,
                    "time": 348.6021420000046,
                    "velocity": 0.30708661417322836,
                    "duration": 1.305626000000018
                },
                {
                    "name": "D#3",
                    "midi": 51,
                    "time": 349.90776800000464,
                    "velocity": 0.36220472440944884,
                    "duration": 0.3264065000000187
                },
                {
                    "name": "A#3",
                    "midi": 58,
                    "time": 350.5605810000047,
                    "velocity": 0.30708661417322836,
                    "duration": 0.6528129999999805
                },
                {
                    "name": "D#4",
                    "midi": 63,
                    "time": 350.5605810000047,
                    "velocity": 0.30708661417322836,
                    "duration": 0.6528129999999805
                },
                {
                    "name": "F#4",
                    "midi": 66,
                    "time": 350.5605810000047,
                    "velocity": 0.30708661417322836,
                    "duration": 0.6528129999999805
                },
                {
                    "name": "A#3",
                    "midi": 58,
                    "time": 351.21339400000466,
                    "velocity": 0.30708661417322836,
                    "duration": 1.305626000000018
                },
                {
                    "name": "D#4",
                    "midi": 63,
                    "time": 351.21339400000466,
                    "velocity": 0.30708661417322836,
                    "duration": 1.305626000000018
                },
                {
                    "name": "F#4",
                    "midi": 66,
                    "time": 351.21339400000466,
                    "velocity": 0.30708661417322836,
                    "duration": 1.305626000000018
                },
                {
                    "name": "C3",
                    "midi": 48,
                    "time": 352.5190200000047,
                    "velocity": 0.36220472440944884,
                    "duration": 0.3264065000000187
                },
                {
                    "name": "G#3",
                    "midi": 56,
                    "time": 353.1718330000047,
                    "velocity": 0.30708661417322836,
                    "duration": 0.6528129999999805
                },
                {
                    "name": "D#4",
                    "midi": 63,
                    "time": 353.1718330000047,
                    "velocity": 0.30708661417322836,
                    "duration": 0.6528129999999805
                },
                {
                    "name": "F#4",
                    "midi": 66,
                    "time": 353.1718330000047,
                    "velocity": 0.30708661417322836,
                    "duration": 0.6528129999999805
                },
                {
                    "name": "G#3",
                    "midi": 56,
                    "time": 353.8246460000047,
                    "velocity": 0.30708661417322836,
                    "duration": 1.305626000000018
                },
                {
                    "name": "D#4",
                    "midi": 63,
                    "time": 353.8246460000047,
                    "velocity": 0.30708661417322836,
                    "duration": 1.305626000000018
                },
                {
                    "name": "F#4",
                    "midi": 66,
                    "time": 353.8246460000047,
                    "velocity": 0.30708661417322836,
                    "duration": 1.305626000000018
                },
                {
                    "name": "C#3",
                    "midi": 49,
                    "time": 355.1302720000047,
                    "velocity": 0.30708661417322836,
                    "duration": 0.3264065000000187
                },
                {
                    "name": "G#3",
                    "midi": 56,
                    "time": 355.78308500000475,
                    "velocity": 0.25984251968503935,
                    "duration": 0.6528129999999805
                },
                {
                    "name": "C#4",
                    "midi": 61,
                    "time": 355.78308500000475,
                    "velocity": 0.25984251968503935,
                    "duration": 0.6528129999999805
                },
                {
                    "name": "F4",
                    "midi": 65,
                    "time": 355.78308500000475,
                    "velocity": 0.25984251968503935,
                    "duration": 0.6528129999999805
                },
                {
                    "name": "G#3",
                    "midi": 56,
                    "time": 356.4358980000047,
                    "velocity": 0.25984251968503935,
                    "duration": 1.305626000000018
                },
                {
                    "name": "C#4",
                    "midi": 61,
                    "time": 356.4358980000047,
                    "velocity": 0.25984251968503935,
                    "duration": 1.305626000000018
                },
                {
                    "name": "F4",
                    "midi": 65,
                    "time": 356.4358980000047,
                    "velocity": 0.25984251968503935,
                    "duration": 1.305626000000018
                },
                {
                    "name": "B2",
                    "midi": 47,
                    "time": 357.74152400000474,
                    "velocity": 0.30708661417322836,
                    "duration": 0.3264065000000187
                },
                {
                    "name": "G3",
                    "midi": 55,
                    "time": 358.3943370000048,
                    "velocity": 0.25984251968503935,
                    "duration": 0.6528129999999805
                },
                {
                    "name": "D4",
                    "midi": 62,
                    "time": 358.3943370000048,
                    "velocity": 0.25984251968503935,
                    "duration": 0.6528129999999805
                },
                {
                    "name": "F4",
                    "midi": 65,
                    "time": 358.3943370000048,
                    "velocity": 0.25984251968503935,
                    "duration": 0.6528129999999805
                },
                {
                    "name": "G3",
                    "midi": 55,
                    "time": 359.04715000000476,
                    "velocity": 0.25984251968503935,
                    "duration": 1.305626000000018
                },
                {
                    "name": "D4",
                    "midi": 62,
                    "time": 359.04715000000476,
                    "velocity": 0.25984251968503935,
                    "duration": 1.305626000000018
                },
                {
                    "name": "F4",
                    "midi": 65,
                    "time": 359.04715000000476,
                    "velocity": 0.25984251968503935,
                    "duration": 1.305626000000018
                },
                {
                    "name": "C3",
                    "midi": 48,
                    "time": 360.3527760000048,
                    "velocity": 0.30708661417322836,
                    "duration": 0.3264065000000187
                },
                {
                    "name": "G3",
                    "midi": 55,
                    "time": 361.0055890000048,
                    "velocity": 0.25984251968503935,
                    "duration": 0.6528129999999805
                },
                {
                    "name": "C4",
                    "midi": 60,
                    "time": 361.0055890000048,
                    "velocity": 0.25984251968503935,
                    "duration": 0.6528129999999805
                },
                {
                    "name": "D#4",
                    "midi": 63,
                    "time": 361.0055890000048,
                    "velocity": 0.25984251968503935,
                    "duration": 0.6528129999999805
                },
                {
                    "name": "G3",
                    "midi": 55,
                    "time": 361.6584020000048,
                    "velocity": 0.25984251968503935,
                    "duration": 0.6528129999999805
                },
                {
                    "name": "C4",
                    "midi": 60,
                    "time": 361.6584020000048,
                    "velocity": 0.25984251968503935,
                    "duration": 0.6528129999999805
                },
                {
                    "name": "D#4",
                    "midi": 63,
                    "time": 361.6584020000048,
                    "velocity": 0.25984251968503935,
                    "duration": 0.6528129999999805
                },
                {
                    "name": "C3",
                    "midi": 48,
                    "time": 362.3112150000048,
                    "velocity": 0.25984251968503935,
                    "duration": 0.6528129999999805
                },
                {
                    "name": "G2",
                    "midi": 43,
                    "time": 362.96402800000476,
                    "velocity": 0.25984251968503935,
                    "duration": 0.6528129999999805
                },
                {
                    "name": "G3",
                    "midi": 55,
                    "time": 363.61684100000474,
                    "velocity": 0.2283464566929134,
                    "duration": 0.6528129999999805
                },
                {
                    "name": "B3",
                    "midi": 59,
                    "time": 363.61684100000474,
                    "velocity": 0.2283464566929134,
                    "duration": 0.6528129999999805
                },
                {
                    "name": "D4",
                    "midi": 62,
                    "time": 363.61684100000474,
                    "velocity": 0.2283464566929134,
                    "duration": 0.6528129999999805
                },
                {
                    "name": "C3",
                    "midi": 48,
                    "time": 364.2696540000047,
                    "velocity": 0.2755905511811024,
                    "duration": 0.6528129999999805
                },
                {
                    "name": "G3",
                    "midi": 55,
                    "time": 364.9224670000047,
                    "velocity": 0.23622047244094488,
                    "duration": 0.6528129999999805
                },
                {
                    "name": "C4",
                    "midi": 60,
                    "time": 364.9224670000047,
                    "velocity": 0.23622047244094488,
                    "duration": 0.6528129999999805
                },
                {
                    "name": "D#4",
                    "midi": 63,
                    "time": 364.9224670000047,
                    "velocity": 0.23622047244094488,
                    "duration": 0.6528129999999805
                },
                {
                    "name": "G2",
                    "midi": 43,
                    "time": 365.5752800000047,
                    "velocity": 0.29133858267716534,
                    "duration": 0.6528129999999805
                },
                {
                    "name": "D3",
                    "midi": 50,
                    "time": 366.22809300000466,
                    "velocity": 0.25196850393700787,
                    "duration": 0.6528129999999805
                },
                {
                    "name": "G3",
                    "midi": 55,
                    "time": 366.22809300000466,
                    "velocity": 0.25196850393700787,
                    "duration": 0.6528129999999805
                },
                {
                    "name": "B3",
                    "midi": 59,
                    "time": 366.22809300000466,
                    "velocity": 0.25196850393700787,
                    "duration": 0.6528129999999805
                },
                {
                    "name": "C2",
                    "midi": 36,
                    "time": 366.88090600000464,
                    "velocity": 0.36220472440944884,
                    "duration": 0.6528129999999805
                },
                {
                    "name": "C3",
                    "midi": 48,
                    "time": 367.5337190000046,
                    "velocity": 0.30708661417322836,
                    "duration": 0.6528129999999805
                },
                {
                    "name": "D#3",
                    "midi": 51,
                    "time": 367.5337190000046,
                    "velocity": 0.30708661417322836,
                    "duration": 0.6528129999999805
                },
                {
                    "name": "G3",
                    "midi": 55,
                    "time": 367.5337190000046,
                    "velocity": 0.30708661417322836,
                    "duration": 0.6528129999999805
                },
                {
                    "name": "G1",
                    "midi": 31,
                    "time": 368.1865320000046,
                    "velocity": 0.36220472440944884,
                    "duration": 0.6528129999999805
                },
                {
                    "name": "B2",
                    "midi": 47,
                    "time": 368.8393450000046,
                    "velocity": 0.30708661417322836,
                    "duration": 0.6528129999999805
                },
                {
                    "name": "D3",
                    "midi": 50,
                    "time": 368.8393450000046,
                    "velocity": 0.30708661417322836,
                    "duration": 0.6528129999999805
                },
                {
                    "name": "G3",
                    "midi": 55,
                    "time": 368.8393450000046,
                    "velocity": 0.30708661417322836,
                    "duration": 0.6528129999999805
                },
                {
                    "name": "C2",
                    "midi": 36,
                    "time": 369.49215800000457,
                    "velocity": 0.36220472440944884,
                    "duration": 0.6528129999999805
                },
                {
                    "name": "G2",
                    "midi": 43,
                    "time": 370.14497100000455,
                    "velocity": 0.30708661417322836,
                    "duration": 0.6528129999999805
                },
                {
                    "name": "C3",
                    "midi": 48,
                    "time": 370.14497100000455,
                    "velocity": 0.30708661417322836,
                    "duration": 0.6528129999999805
                },
                {
                    "name": "D#3",
                    "midi": 51,
                    "time": 370.14497100000455,
                    "velocity": 0.30708661417322836,
                    "duration": 0.6528129999999805
                },
                {
                    "name": "G2",
                    "midi": 43,
                    "time": 370.7977840000045,
                    "velocity": 0.5433070866141733,
                    "duration": 0.3264065000000187
                },
                {
                    "name": "G1",
                    "midi": 31,
                    "time": 370.7977840000045,
                    "velocity": 0.5433070866141733,
                    "duration": 0.3264065000000187
                },
                {
                    "name": "B2",
                    "midi": 47,
                    "time": 371.45059700000456,
                    "velocity": 0.5433070866141733,
                    "duration": 0.16320324999998093
                },
                {
                    "name": "D3",
                    "midi": 50,
                    "time": 371.61380025000454,
                    "velocity": 0.47244094488188976,
                    "duration": 0.16320324999998093
                },
                {
                    "name": "B2",
                    "midi": 47,
                    "time": 371.7770035000045,
                    "velocity": 0.47244094488188976,
                    "duration": 0.16320324999998093
                },
                {
                    "name": "G2",
                    "midi": 43,
                    "time": 371.9402067500045,
                    "velocity": 0.4645669291338583,
                    "duration": 0.16320324999998093
                },
                {
                    "name": "C3",
                    "midi": 48,
                    "time": 372.1034100000045,
                    "velocity": 0.49606299212598426,
                    "duration": 0.16320324999998093
                },
                {
                    "name": "G2",
                    "midi": 43,
                    "time": 372.26661325000447,
                    "velocity": 0.4094488188976378,
                    "duration": 0.16320324999998093
                },
                {
                    "name": "D#2",
                    "midi": 39,
                    "time": 372.42981650000445,
                    "velocity": 0.4094488188976378,
                    "duration": 0.16320324999998093
                },
                {
                    "name": "G2",
                    "midi": 43,
                    "time": 372.59301975000443,
                    "velocity": 0.4094488188976378,
                    "duration": 0.16320324999998093
                },
                {
                    "name": "D#2",
                    "midi": 39,
                    "time": 372.7562230000044,
                    "velocity": 0.44881889763779526,
                    "duration": 0.16320324999998093
                },
                {
                    "name": "G2",
                    "midi": 43,
                    "time": 372.9194262500044,
                    "velocity": 0.3700787401574803,
                    "duration": 0.16320324999998093
                },
                {
                    "name": "D#2",
                    "midi": 39,
                    "time": 373.0826295000044,
                    "velocity": 0.36220472440944884,
                    "duration": 0.16320324999998093
                },
                {
                    "name": "C2",
                    "midi": 36,
                    "time": 373.24583275000435,
                    "velocity": 0.3543307086614173,
                    "duration": 0.16320324999998093
                },
                {
                    "name": "G1",
                    "midi": 31,
                    "time": 373.40903600000433,
                    "velocity": 0.44881889763779526,
                    "duration": 0.3264065000000187
                },
                {
                    "name": "G#3",
                    "midi": 56,
                    "time": 374.0618490000044,
                    "velocity": 0.31496062992125984,
                    "duration": 0.6528129999999805
                },
                {
                    "name": "G#3",
                    "midi": 56,
                    "time": 374.71466200000435,
                    "velocity": 0.31496062992125984,
                    "duration": 0.6528129999999805
                },
                {
                    "name": "G#3",
                    "midi": 56,
                    "time": 375.36747500000433,
                    "velocity": 0.30708661417322836,
                    "duration": 0.6528129999999805
                },
                {
                    "name": "C2",
                    "midi": 36,
                    "time": 376.0202880000043,
                    "velocity": 0.3937007874015748,
                    "duration": 0.3264065000000187
                },
                {
                    "name": "F#3",
                    "midi": 54,
                    "time": 376.67310100000435,
                    "velocity": 0.31496062992125984,
                    "duration": 0.6528129999999805
                },
                {
                    "name": "F#3",
                    "midi": 54,
                    "time": 377.32591400000433,
                    "velocity": 0.31496062992125984,
                    "duration": 0.6528129999999805
                },
                {
                    "name": "F#3",
                    "midi": 54,
                    "time": 377.9787270000043,
                    "velocity": 0.31496062992125984,
                    "duration": 0.6528129999999805
                },
                {
                    "name": "G1",
                    "midi": 31,
                    "time": 378.6315400000043,
                    "velocity": 0.3937007874015748,
                    "duration": 0.3264065000000187
                },
                {
                    "name": "G#3",
                    "midi": 56,
                    "time": 379.28435300000433,
                    "velocity": 0.30708661417322836,
                    "duration": 0.6528129999999805
                },
                {
                    "name": "G#3",
                    "midi": 56,
                    "time": 379.9371660000043,
                    "velocity": 0.30708661417322836,
                    "duration": 0.6528129999999805
                },
                {
                    "name": "G#3",
                    "midi": 56,
                    "time": 380.5899790000043,
                    "velocity": 0.30708661417322836,
                    "duration": 0.6528129999999805
                },
                {
                    "name": "C2",
                    "midi": 36,
                    "time": 381.2427920000043,
                    "velocity": 0.3937007874015748,
                    "duration": 0.3264065000000187
                },
                {
                    "name": "F#3",
                    "midi": 54,
                    "time": 381.8956050000043,
                    "velocity": 0.30708661417322836,
                    "duration": 0.6528129999999805
                },
                {
                    "name": "F#3",
                    "midi": 54,
                    "time": 382.5484180000043,
                    "velocity": 0.30708661417322836,
                    "duration": 0.6528129999999805
                },
                {
                    "name": "F#3",
                    "midi": 54,
                    "time": 383.20123100000427,
                    "velocity": 0.30708661417322836,
                    "duration": 0.6528129999999805
                },
                {
                    "name": "G1",
                    "midi": 31,
                    "time": 383.85404400000425,
                    "velocity": 0.6692913385826772,
                    "duration": 0.3264065000000187
                },
                {
                    "name": "B3",
                    "midi": 59,
                    "time": 384.5068570000043,
                    "velocity": 0.5905511811023622,
                    "duration": 0.6528129999999805
                },
                {
                    "name": "B3",
                    "midi": 59,
                    "time": 385.15967000000427,
                    "velocity": 0.5905511811023622,
                    "duration": 1.305626000000018
                },
                {
                    "name": "G1",
                    "midi": 31,
                    "time": 386.4652960000043,
                    "velocity": 0.6692913385826772,
                    "duration": 0.3264065000000187
                },
                {
                    "name": "D4",
                    "midi": 62,
                    "time": 387.1181090000043,
                    "velocity": 0.5905511811023622,
                    "duration": 0.6528129999999805
                },
                {
                    "name": "D4",
                    "midi": 62,
                    "time": 387.7709220000043,
                    "velocity": 0.5905511811023622,
                    "duration": 1.305626000000018
                },
                {
                    "name": "G1",
                    "midi": 31,
                    "time": 389.0765480000043,
                    "velocity": 0.6692913385826772,
                    "duration": 0.3264065000000187
                },
                {
                    "name": "F4",
                    "midi": 65,
                    "time": 389.72936100000436,
                    "velocity": 0.5905511811023622,
                    "duration": 0.6392127291666725
                },
                {
                    "name": "F4",
                    "midi": 65,
                    "time": 390.38217400000434,
                    "velocity": 0.5905511811023622,
                    "duration": 1.30154591874998
                },
                {
                    "name": "B4",
                    "midi": 71,
                    "time": 392.34061300000434,
                    "velocity": 0.5039370078740157,
                    "duration": 0.6528129999999805
                },
                {
                    "name": "D5",
                    "midi": 74,
                    "time": 393.6462390000043,
                    "velocity": 0.44881889763779526,
                    "duration": 0.6528129999999805
                },
                {
                    "name": "F5",
                    "midi": 77,
                    "time": 394.95186500000426,
                    "velocity": 0.4094488188976378,
                    "duration": 0.6528129999999805
                },
                {
                    "name": "F5",
                    "midi": 77,
                    "time": 396.2574910000042,
                    "velocity": 0.4094488188976378,
                    "duration": 0.6528129999999805
                },
                {
                    "name": "F5",
                    "midi": 77,
                    "time": 396.9103040000042,
                    "velocity": 0.3858267716535433,
                    "duration": 0.6528129999999805
                },
                {
                    "name": "G#1",
                    "midi": 32,
                    "time": 397.5631170000042,
                    "velocity": 0.3228346456692913,
                    "duration": 0.6528129999999805
                },
                {
                    "name": "G#2",
                    "midi": 44,
                    "time": 397.5631170000042,
                    "velocity": 0.3228346456692913,
                    "duration": 0.6528129999999805
                },
                {
                    "name": "G1",
                    "midi": 31,
                    "time": 398.21593000000416,
                    "velocity": 0.2992125984251969,
                    "duration": 0.3264065000000187
                },
                {
                    "name": "G2",
                    "midi": 43,
                    "time": 398.21593000000416,
                    "velocity": 0.2992125984251969,
                    "duration": 0.3264065000000187
                },
                {
                    "name": "F5",
                    "midi": 77,
                    "time": 398.8687430000042,
                    "velocity": 0.3937007874015748,
                    "duration": 0.6392127291666725
                },
                {
                    "name": "F5",
                    "midi": 77,
                    "time": 399.5215560000042,
                    "velocity": 0.3937007874015748,
                    "duration": 0.6528129999999805
                },
                {
                    "name": "G#1",
                    "midi": 32,
                    "time": 400.17436900000416,
                    "velocity": 0.3228346456692913,
                    "duration": 0.6528129999999805
                },
                {
                    "name": "G#2",
                    "midi": 44,
                    "time": 400.17436900000416,
                    "velocity": 0.3228346456692913,
                    "duration": 0.6528129999999805
                },
                {
                    "name": "G1",
                    "midi": 31,
                    "time": 400.82718200000414,
                    "velocity": 0.30708661417322836,
                    "duration": 0.3264065000000187
                },
                {
                    "name": "G2",
                    "midi": 43,
                    "time": 400.82718200000414,
                    "velocity": 0.30708661417322836,
                    "duration": 0.3264065000000187
                },
                {
                    "name": "F5",
                    "midi": 77,
                    "time": 401.4799950000042,
                    "velocity": 0.3543307086614173,
                    "duration": 0.6528129999999805
                },
                {
                    "name": "F5",
                    "midi": 77,
                    "time": 402.78562100000414,
                    "velocity": 0.3543307086614173,
                    "duration": 0.6528129999999805
                },
                {
                    "name": "G#3",
                    "midi": 56,
                    "time": 404.0912470000041,
                    "velocity": 0.3543307086614173,
                    "duration": 0.6528129999999805
                },
                {
                    "name": "G2",
                    "midi": 43,
                    "time": 405.39687300000406,
                    "velocity": 0.36220472440944884,
                    "duration": 0.6528129999999805
                },
                {
                    "name": "G1",
                    "midi": 31,
                    "time": 406.702499000004,
                    "velocity": 0.5118110236220472,
                    "duration": 0.3264065000000187
                },
                {
                    "name": "G2",
                    "midi": 43,
                    "time": 406.702499000004,
                    "velocity": 0.6062992125984252,
                    "duration": 0.3264065000000187
                },
                {
                    "name": "G1",
                    "midi": 31,
                    "time": 407.02890550000404,
                    "velocity": 0.5118110236220472,
                    "duration": 0.3264065000000187
                },
                {
                    "name": "G2",
                    "midi": 43,
                    "time": 407.02890550000404,
                    "velocity": 0.6062992125984252,
                    "duration": 0.3264065000000187
                },
                {
                    "name": "C3",
                    "midi": 48,
                    "time": 407.35531200000406,
                    "velocity": 0.6220472440944882,
                    "duration": 0.16320324999998093
                },
                {
                    "name": "C2",
                    "midi": 36,
                    "time": 407.35531200000406,
                    "velocity": 0.5590551181102362,
                    "duration": 0.16320324999998093
                },
                {
                    "name": "G2",
                    "midi": 43,
                    "time": 407.51851525000404,
                    "velocity": 0.5196850393700787,
                    "duration": 0.16320324999998093
                },
                {
                    "name": "C3",
                    "midi": 48,
                    "time": 407.681718500004,
                    "velocity": 0.5511811023622047,
                    "duration": 0.16320324999998093
                },
                {
                    "name": "E3",
                    "midi": 52,
                    "time": 407.844921750004,
                    "velocity": 0.5984251968503937,
                    "duration": 0.16320324999998093
                },
                {
                    "name": "G3",
                    "midi": 55,
                    "time": 408.008125000004,
                    "velocity": 0.5354330708661418,
                    "duration": 0.16320324999998093
                },
                {
                    "name": "C3",
                    "midi": 48,
                    "time": 408.17132825000397,
                    "velocity": 0.5354330708661418,
                    "duration": 0.16320324999998093
                },
                {
                    "name": "E3",
                    "midi": 52,
                    "time": 408.33453150000395,
                    "velocity": 0.5354330708661418,
                    "duration": 0.16320324999998093
                },
                {
                    "name": "G3",
                    "midi": 55,
                    "time": 408.49773475000393,
                    "velocity": 0.5984251968503937,
                    "duration": 0.16320324999998093
                },
                {
                    "name": "C4",
                    "midi": 60,
                    "time": 408.6609380000039,
                    "velocity": 0.5196850393700787,
                    "duration": 0.16320324999998093
                },
                {
                    "name": "E3",
                    "midi": 52,
                    "time": 408.8241412500039,
                    "velocity": 0.5354330708661418,
                    "duration": 0.16320324999998093
                },
                {
                    "name": "G3",
                    "midi": 55,
                    "time": 408.98734450000387,
                    "velocity": 0.5590551181102362,
                    "duration": 0.16320324999998093
                },
                {
                    "name": "C4",
                    "midi": 60,
                    "time": 409.15054775000385,
                    "velocity": 0.6141732283464567,
                    "duration": 0.16320324999998093
                },
                {
                    "name": "E4",
                    "midi": 64,
                    "time": 409.31375100000383,
                    "velocity": 0.5590551181102362,
                    "duration": 0.16320324999998093
                },
                {
                    "name": "G3",
                    "midi": 55,
                    "time": 409.4769542500038,
                    "velocity": 0.5590551181102362,
                    "duration": 0.16320324999998093
                },
                {
                    "name": "C4",
                    "midi": 60,
                    "time": 409.6401575000038,
                    "velocity": 0.5590551181102362,
                    "duration": 0.16320324999998093
                },
                {
                    "name": "E4",
                    "midi": 64,
                    "time": 409.8033607500038,
                    "velocity": 0.6141732283464567,
                    "duration": 0.16320324999998093
                },
                {
                    "name": "F4",
                    "midi": 65,
                    "time": 409.96656400000376,
                    "velocity": 0.4881889763779528,
                    "duration": 0.16320324999998093
                },
                {
                    "name": "E4",
                    "midi": 64,
                    "time": 410.12976725000374,
                    "velocity": 0.5354330708661418,
                    "duration": 0.16320324999998093
                },
                {
                    "name": "D4",
                    "midi": 62,
                    "time": 410.2929705000037,
                    "velocity": 0.5590551181102362,
                    "duration": 0.16320324999998093
                },
                {
                    "name": "C4",
                    "midi": 60,
                    "time": 410.4561737500037,
                    "velocity": 0.6141732283464567,
                    "duration": 0.16320324999998093
                },
                {
                    "name": "B3",
                    "midi": 59,
                    "time": 410.6193770000037,
                    "velocity": 0.5590551181102362,
                    "duration": 0.16320324999998093
                },
                {
                    "name": "A3",
                    "midi": 57,
                    "time": 410.78258025000366,
                    "velocity": 0.5590551181102362,
                    "duration": 0.16320324999998093
                },
                {
                    "name": "G3",
                    "midi": 55,
                    "time": 410.94578350000364,
                    "velocity": 0.5984251968503937,
                    "duration": 0.16320324999998093
                },
                {
                    "name": "F3",
                    "midi": 53,
                    "time": 411.1089867500036,
                    "velocity": 0.5984251968503937,
                    "duration": 0.16320324999998093
                },
                {
                    "name": "E3",
                    "midi": 52,
                    "time": 411.2721900000036,
                    "velocity": 0.4881889763779528,
                    "duration": 0.16320324999998093
                },
                {
                    "name": "G3",
                    "midi": 55,
                    "time": 411.4353932500036,
                    "velocity": 0.5196850393700787,
                    "duration": 0.16320324999998093
                },
                {
                    "name": "C3",
                    "midi": 48,
                    "time": 411.59859650000357,
                    "velocity": 0.5511811023622047,
                    "duration": 0.16320324999998093
                },
                {
                    "name": "E3",
                    "midi": 52,
                    "time": 411.76179975000355,
                    "velocity": 0.5984251968503937,
                    "duration": 0.16320324999998093
                },
                {
                    "name": "G2",
                    "midi": 43,
                    "time": 411.9250030000035,
                    "velocity": 0.5511811023622047,
                    "duration": 0.16320324999998093
                },
                {
                    "name": "C3",
                    "midi": 48,
                    "time": 412.0882062500035,
                    "velocity": 0.5511811023622047,
                    "duration": 0.16320324999998093
                },
                {
                    "name": "E2",
                    "midi": 40,
                    "time": 412.2514095000035,
                    "velocity": 0.5590551181102362,
                    "duration": 0.16320324999998093
                },
                {
                    "name": "G2",
                    "midi": 43,
                    "time": 412.41461275000347,
                    "velocity": 0.5984251968503937,
                    "duration": 0.16320324999998093
                },
                {
                    "name": "C2",
                    "midi": 36,
                    "time": 412.57781600000345,
                    "velocity": 0.7401574803149606,
                    "duration": 0.16320324999998093
                },
                {
                    "name": "G2",
                    "midi": 43,
                    "time": 412.74101925000343,
                    "velocity": 0.5196850393700787,
                    "duration": 0.16320324999998093
                },
                {
                    "name": "C3",
                    "midi": 48,
                    "time": 412.9042225000034,
                    "velocity": 0.5511811023622047,
                    "duration": 0.16320324999998093
                },
                {
                    "name": "E3",
                    "midi": 52,
                    "time": 413.0674257500034,
                    "velocity": 0.5984251968503937,
                    "duration": 0.16320324999998093
                },
                {
                    "name": "G3",
                    "midi": 55,
                    "time": 413.2306290000034,
                    "velocity": 0.5354330708661418,
                    "duration": 0.16320324999998093
                },
                {
                    "name": "C3",
                    "midi": 48,
                    "time": 413.39383225000336,
                    "velocity": 0.5354330708661418,
                    "duration": 0.16320324999998093
                },
                {
                    "name": "E3",
                    "midi": 52,
                    "time": 413.55703550000334,
                    "velocity": 0.5354330708661418,
                    "duration": 0.16320324999998093
                },
                {
                    "name": "G3",
                    "midi": 55,
                    "time": 413.7202387500033,
                    "velocity": 0.5984251968503937,
                    "duration": 0.16320324999998093
                },
                {
                    "name": "C4",
                    "midi": 60,
                    "time": 413.8834420000033,
                    "velocity": 0.5196850393700787,
                    "duration": 0.16320324999998093
                },
                {
                    "name": "E3",
                    "midi": 52,
                    "time": 414.0466452500033,
                    "velocity": 0.5354330708661418,
                    "duration": 0.16320324999998093
                },
                {
                    "name": "G3",
                    "midi": 55,
                    "time": 414.20984850000326,
                    "velocity": 0.5590551181102362,
                    "duration": 0.16320324999998093
                },
                {
                    "name": "C4",
                    "midi": 60,
                    "time": 414.37305175000324,
                    "velocity": 0.6141732283464567,
                    "duration": 0.16320324999998093
                },
                {
                    "name": "E4",
                    "midi": 64,
                    "time": 414.5362550000032,
                    "velocity": 0.5590551181102362,
                    "duration": 0.16320324999998093
                },
                {
                    "name": "G3",
                    "midi": 55,
                    "time": 414.6994582500032,
                    "velocity": 0.5590551181102362,
                    "duration": 0.16320324999998093
                },
                {
                    "name": "C4",
                    "midi": 60,
                    "time": 414.8626615000032,
                    "velocity": 0.5590551181102362,
                    "duration": 0.16320324999998093
                },
                {
                    "name": "E4",
                    "midi": 64,
                    "time": 415.02586475000317,
                    "velocity": 0.5590551181102362,
                    "duration": 0.16320324999998093
                },
                {
                    "name": "F4",
                    "midi": 65,
                    "time": 415.18906800000315,
                    "velocity": 0.4881889763779528,
                    "duration": 0.16320324999998093
                },
                {
                    "name": "E4",
                    "midi": 64,
                    "time": 415.3522712500031,
                    "velocity": 0.5354330708661418,
                    "duration": 0.16320324999998093
                },
                {
                    "name": "D4",
                    "midi": 62,
                    "time": 415.5154745000031,
                    "velocity": 0.5590551181102362,
                    "duration": 0.16320324999998093
                },
                {
                    "name": "C4",
                    "midi": 60,
                    "time": 415.6786777500031,
                    "velocity": 0.6141732283464567,
                    "duration": 0.16320324999998093
                },
                {
                    "name": "B3",
                    "midi": 59,
                    "time": 415.84188100000307,
                    "velocity": 0.5590551181102362,
                    "duration": 0.16320324999998093
                },
                {
                    "name": "G3",
                    "midi": 55,
                    "time": 416.00508425000305,
                    "velocity": 0.5590551181102362,
                    "duration": 0.16320324999998093
                },
                {
                    "name": "A3",
                    "midi": 57,
                    "time": 416.16828750000303,
                    "velocity": 0.5984251968503937,
                    "duration": 0.16320324999998093
                },
                {
                    "name": "B3",
                    "midi": 59,
                    "time": 416.331490750003,
                    "velocity": 0.5984251968503937,
                    "duration": 0.16320324999998093
                },
                {
                    "name": "C4",
                    "midi": 60,
                    "time": 416.494694000003,
                    "velocity": 0.4881889763779528,
                    "duration": 0.16320324999998093
                },
                {
                    "name": "B3",
                    "midi": 59,
                    "time": 416.657897250003,
                    "velocity": 0.5039370078740157,
                    "duration": 0.16320324999998093
                },
                {
                    "name": "A3",
                    "midi": 57,
                    "time": 416.82110050000296,
                    "velocity": 0.5354330708661418,
                    "duration": 0.16320324999998093
                },
                {
                    "name": "G3",
                    "midi": 55,
                    "time": 416.98430375000294,
                    "velocity": 0.5748031496062992,
                    "duration": 0.16320324999998093
                },
                {
                    "name": "F3",
                    "midi": 53,
                    "time": 417.1475070000029,
                    "velocity": 0.5354330708661418,
                    "duration": 0.16320324999998093
                },
                {
                    "name": "E3",
                    "midi": 52,
                    "time": 417.3107102500029,
                    "velocity": 0.5354330708661418,
                    "duration": 0.16320324999998093
                },
                {
                    "name": "D3",
                    "midi": 50,
                    "time": 417.4739135000029,
                    "velocity": 0.5433070866141733,
                    "duration": 0.16320324999998093
                },
                {
                    "name": "C3",
                    "midi": 48,
                    "time": 417.63711675000286,
                    "velocity": 0.5826771653543307,
                    "duration": 0.16320324999998093
                },
                {
                    "name": "G2",
                    "midi": 43,
                    "time": 417.80032000000284,
                    "velocity": 0.6299212598425197,
                    "duration": 0.16320324999998093
                },
                {
                    "name": "B2",
                    "midi": 47,
                    "time": 417.9635232500028,
                    "velocity": 0.4566929133858268,
                    "duration": 0.16320324999998093
                },
                {
                    "name": "D3",
                    "midi": 50,
                    "time": 418.1267265000028,
                    "velocity": 0.4881889763779528,
                    "duration": 0.16320324999998093
                },
                {
                    "name": "G3",
                    "midi": 55,
                    "time": 418.2899297500028,
                    "velocity": 0.5275590551181102,
                    "duration": 0.16320324999998093
                },
                {
                    "name": "B2",
                    "midi": 47,
                    "time": 418.45313300000277,
                    "velocity": 0.47244094488188976,
                    "duration": 0.16320324999998093
                },
                {
                    "name": "D3",
                    "midi": 50,
                    "time": 418.61633625000275,
                    "velocity": 0.47244094488188976,
                    "duration": 0.16320324999998093
                },
                {
                    "name": "G3",
                    "midi": 55,
                    "time": 418.7795395000027,
                    "velocity": 0.47244094488188976,
                    "duration": 0.16320324999998093
                },
                {
                    "name": "B3",
                    "midi": 59,
                    "time": 418.9427427500027,
                    "velocity": 0.5354330708661418,
                    "duration": 0.16320324999998093
                },
                {
                    "name": "D3",
                    "midi": 50,
                    "time": 419.1059460000027,
                    "velocity": 0.4566929133858268,
                    "duration": 0.16320324999998093
                },
                {
                    "name": "G3",
                    "midi": 55,
                    "time": 419.26914925000267,
                    "velocity": 0.47244094488188976,
                    "duration": 0.16320324999998093
                },
                {
                    "name": "B3",
                    "midi": 59,
                    "time": 419.43235250000265,
                    "velocity": 0.49606299212598426,
                    "duration": 0.16320324999998093
                },
                {
                    "name": "D4",
                    "midi": 62,
                    "time": 419.59555575000263,
                    "velocity": 0.5511811023622047,
                    "duration": 0.16320324999998093
                },
                {
                    "name": "G3",
                    "midi": 55,
                    "time": 419.7587590000026,
                    "velocity": 0.41732283464566927,
                    "duration": 0.16320324999998093
                },
                {
                    "name": "B3",
                    "midi": 59,
                    "time": 419.9219622500026,
                    "velocity": 0.41732283464566927,
                    "duration": 0.16320324999998093
                },
                {
                    "name": "D4",
                    "midi": 62,
                    "time": 420.0851655000026,
                    "velocity": 0.3543307086614173,
                    "duration": 0.16320324999998093
                },
                {
                    "name": "G4",
                    "midi": 67,
                    "time": 420.24836875000256,
                    "velocity": 0.3937007874015748,
                    "duration": 0.16320324999998093
                },
                {
                    "name": "G3",
                    "midi": 55,
                    "time": 420.41157200000254,
                    "velocity": 0.2204724409448819,
                    "duration": 0.16320324999998093
                },
                {
                    "name": "C4",
                    "midi": 60,
                    "time": 420.5747752500025,
                    "velocity": 0.25196850393700787,
                    "duration": 0.16320324999998093
                },
                {
                    "name": "G4",
                    "midi": 67,
                    "time": 420.7379785000025,
                    "velocity": 0.2677165354330709,
                    "duration": 0.16320324999998093
                },
                {
                    "name": "C4",
                    "midi": 60,
                    "time": 420.9011817500025,
                    "velocity": 0.29133858267716534,
                    "duration": 0.16320324999998093
                },
                {
                    "name": "G3",
                    "midi": 55,
                    "time": 421.06438500000246,
                    "velocity": 0.2204724409448819,
                    "duration": 0.16320324999998093
                },
                {
                    "name": "E4",
                    "midi": 64,
                    "time": 421.22758825000244,
                    "velocity": 0.25196850393700787,
                    "duration": 0.16320324999998093
                },
                {
                    "name": "G4",
                    "midi": 67,
                    "time": 421.3907915000024,
                    "velocity": 0.2677165354330709,
                    "duration": 0.16320324999998093
                },
                {
                    "name": "E4",
                    "midi": 64,
                    "time": 421.5539947500024,
                    "velocity": 0.29133858267716534,
                    "duration": 0.16320324999998093
                },
                {
                    "name": "G3",
                    "midi": 55,
                    "time": 421.7171980000024,
                    "velocity": 0.2204724409448819,
                    "duration": 0.16320324999998093
                },
                {
                    "name": "D4",
                    "midi": 62,
                    "time": 421.88040125000236,
                    "velocity": 0.2440944881889764,
                    "duration": 0.16320324999998093
                },
                {
                    "name": "G4",
                    "midi": 67,
                    "time": 422.04360450000235,
                    "velocity": 0.25984251968503935,
                    "duration": 0.16320324999998093
                },
                {
                    "name": "D4",
                    "midi": 62,
                    "time": 422.2068077500023,
                    "velocity": 0.29133858267716534,
                    "duration": 0.16320324999998093
                },
                {
                    "name": "G3",
                    "midi": 55,
                    "time": 422.3700110000023,
                    "velocity": 0.2204724409448819,
                    "duration": 0.16320324999998093
                },
                {
                    "name": "B3",
                    "midi": 59,
                    "time": 422.5332142500023,
                    "velocity": 0.2440944881889764,
                    "duration": 0.16320324999998093
                },
                {
                    "name": "G4",
                    "midi": 67,
                    "time": 422.69641750000227,
                    "velocity": 0.25984251968503935,
                    "duration": 0.16320324999998093
                },
                {
                    "name": "B3",
                    "midi": 59,
                    "time": 422.85962075000225,
                    "velocity": 0.28346456692913385,
                    "duration": 0.16320324999998093
                },
                {
                    "name": "G2",
                    "midi": 43,
                    "time": 423.02282400000223,
                    "velocity": 0.6771653543307087,
                    "duration": 0.16320324999998093
                },
                {
                    "name": "B2",
                    "midi": 47,
                    "time": 423.1860272500022,
                    "velocity": 0.4566929133858268,
                    "duration": 0.16320324999998093
                },
                {
                    "name": "D3",
                    "midi": 50,
                    "time": 423.3492305000022,
                    "velocity": 0.4881889763779528,
                    "duration": 0.16320324999998093
                },
                {
                    "name": "G3",
                    "midi": 55,
                    "time": 423.5124337500022,
                    "velocity": 0.5275590551181102,
                    "duration": 0.16320324999998093
                },
                {
                    "name": "B2",
                    "midi": 47,
                    "time": 423.67563700000215,
                    "velocity": 0.47244094488188976,
                    "duration": 0.16320324999998093
                },
                {
                    "name": "D3",
                    "midi": 50,
                    "time": 423.83884025000214,
                    "velocity": 0.47244094488188976,
                    "duration": 0.16320324999998093
                },
                {
                    "name": "G3",
                    "midi": 55,
                    "time": 424.0020435000021,
                    "velocity": 0.47244094488188976,
                    "duration": 0.16320324999998093
                },
                {
                    "name": "B3",
                    "midi": 59,
                    "time": 424.1652467500021,
                    "velocity": 0.5354330708661418,
                    "duration": 0.16320324999998093
                },
                {
                    "name": "D3",
                    "midi": 50,
                    "time": 424.3284500000021,
                    "velocity": 0.4566929133858268,
                    "duration": 0.16320324999998093
                },
                {
                    "name": "G3",
                    "midi": 55,
                    "time": 424.49165325000206,
                    "velocity": 0.47244094488188976,
                    "duration": 0.16320324999998093
                },
                {
                    "name": "B3",
                    "midi": 59,
                    "time": 424.65485650000204,
                    "velocity": 0.49606299212598426,
                    "duration": 0.16320324999998093
                },
                {
                    "name": "D4",
                    "midi": 62,
                    "time": 424.818059750002,
                    "velocity": 0.5511811023622047,
                    "duration": 0.16320324999998093
                },
                {
                    "name": "G3",
                    "midi": 55,
                    "time": 424.981263000002,
                    "velocity": 0.41732283464566927,
                    "duration": 0.16320324999998093
                },
                {
                    "name": "B3",
                    "midi": 59,
                    "time": 425.144466250002,
                    "velocity": 0.41732283464566927,
                    "duration": 0.16320324999998093
                },
                {
                    "name": "D4",
                    "midi": 62,
                    "time": 425.30766950000196,
                    "velocity": 0.41732283464566927,
                    "duration": 0.16320324999998093
                },
                {
                    "name": "G4",
                    "midi": 67,
                    "time": 425.47087275000194,
                    "velocity": 0.4645669291338583,
                    "duration": 0.16320324999998093
                },
                {
                    "name": "G3",
                    "midi": 55,
                    "time": 425.6340760000019,
                    "velocity": 0.2047244094488189,
                    "duration": 0.16320324999998093
                },
                {
                    "name": "C4",
                    "midi": 60,
                    "time": 425.7972792500019,
                    "velocity": 0.23622047244094488,
                    "duration": 0.16320324999998093
                },
                {
                    "name": "G4",
                    "midi": 67,
                    "time": 425.9604825000019,
                    "velocity": 0.25196850393700787,
                    "duration": 0.16320324999998093
                },
                {
                    "name": "C4",
                    "midi": 60,
                    "time": 426.12368575000187,
                    "velocity": 0.25984251968503935,
                    "duration": 0.16320324999998093
                },
                {
                    "name": "G3",
                    "midi": 55,
                    "time": 426.28688900000185,
                    "velocity": 0.2047244094488189,
                    "duration": 0.16320324999998093
                },
                {
                    "name": "D#4",
                    "midi": 63,
                    "time": 426.45009225000183,
                    "velocity": 0.23622047244094488,
                    "duration": 0.16320324999998093
                },
                {
                    "name": "G4",
                    "midi": 67,
                    "time": 426.6132955000018,
                    "velocity": 0.25196850393700787,
                    "duration": 0.16320324999998093
                },
                {
                    "name": "D#4",
                    "midi": 63,
                    "time": 426.7764987500018,
                    "velocity": 0.25984251968503935,
                    "duration": 0.16320324999998093
                },
                {
                    "name": "G3",
                    "midi": 55,
                    "time": 426.9397020000018,
                    "velocity": 0.2047244094488189,
                    "duration": 0.16320324999998093
                },
                {
                    "name": "D4",
                    "midi": 62,
                    "time": 427.10290525000175,
                    "velocity": 0.23622047244094488,
                    "duration": 0.16320324999998093
                },
                {
                    "name": "G4",
                    "midi": 67,
                    "time": 427.26610850000174,
                    "velocity": 0.2440944881889764,
                    "duration": 0.16320324999998093
                },
                {
                    "name": "D4",
                    "midi": 62,
                    "time": 427.4293117500017,
                    "velocity": 0.25984251968503935,
                    "duration": 0.16320324999998093
                },
                {
                    "name": "G3",
                    "midi": 55,
                    "time": 427.5925150000017,
                    "velocity": 0.2047244094488189,
                    "duration": 0.16320324999998093
                },
                {
                    "name": "B3",
                    "midi": 59,
                    "time": 427.7557182500017,
                    "velocity": 0.23622047244094488,
                    "duration": 0.16320324999998093
                },
                {
                    "name": "G4",
                    "midi": 67,
                    "time": 427.91892150000166,
                    "velocity": 0.2440944881889764,
                    "duration": 0.16320324999998093
                },
                {
                    "name": "B3",
                    "midi": 59,
                    "time": 428.08212475000164,
                    "velocity": 0.25984251968503935,
                    "duration": 0.16320324999998093
                },
                {
                    "name": "G3",
                    "midi": 55,
                    "time": 428.2453280000016,
                    "velocity": 0.25984251968503935,
                    "duration": 0.16320324999998093
                },
                {
                    "name": "C4",
                    "midi": 60,
                    "time": 428.4085312500016,
                    "velocity": 0.29133858267716534,
                    "duration": 0.16320324999998093
                },
                {
                    "name": "G4",
                    "midi": 67,
                    "time": 428.5717345000016,
                    "velocity": 0.30708661417322836,
                    "duration": 0.16320324999998093
                },
                {
                    "name": "C4",
                    "midi": 60,
                    "time": 428.73493775000156,
                    "velocity": 0.33070866141732286,
                    "duration": 0.16320324999998093
                },
                {
                    "name": "G3",
                    "midi": 55,
                    "time": 428.89814100000154,
                    "velocity": 0.25984251968503935,
                    "duration": 0.16320324999998093
                },
                {
                    "name": "E4",
                    "midi": 64,
                    "time": 429.0613442500015,
                    "velocity": 0.2992125984251969,
                    "duration": 0.16320324999998093
                },
                {
                    "name": "G4",
                    "midi": 67,
                    "time": 429.2245475000015,
                    "velocity": 0.31496062992125984,
                    "duration": 0.16320324999998093
                },
                {
                    "name": "E4",
                    "midi": 64,
                    "time": 429.3877507500015,
                    "velocity": 0.3464566929133858,
                    "duration": 0.16320324999998093
                },
                {
                    "name": "G3",
                    "midi": 55,
                    "time": 429.55095400000147,
                    "velocity": 0.2677165354330709,
                    "duration": 0.16320324999998093
                },
                {
                    "name": "D4",
                    "midi": 62,
                    "time": 429.71415725000145,
                    "velocity": 0.2992125984251969,
                    "duration": 0.16320324999998093
                },
                {
                    "name": "G4",
                    "midi": 67,
                    "time": 429.87736050000143,
                    "velocity": 0.31496062992125984,
                    "duration": 0.16320324999998093
                },
                {
                    "name": "D4",
                    "midi": 62,
                    "time": 430.0405637500014,
                    "velocity": 0.3543307086614173,
                    "duration": 0.16320324999998093
                },
                {
                    "name": "G3",
                    "midi": 55,
                    "time": 430.2037670000014,
                    "velocity": 0.29133858267716534,
                    "duration": 0.16320324999998093
                },
                {
                    "name": "B3",
                    "midi": 59,
                    "time": 430.3669702500014,
                    "velocity": 0.30708661417322836,
                    "duration": 0.16320324999998093
                },
                {
                    "name": "G4",
                    "midi": 67,
                    "time": 430.53017350000135,
                    "velocity": 0.33858267716535434,
                    "duration": 0.16320324999998093
                },
                {
                    "name": "B3",
                    "midi": 59,
                    "time": 430.69337675000133,
                    "velocity": 0.36220472440944884,
                    "duration": 0.16320324999998093
                },
                {
                    "name": "G3",
                    "midi": 55,
                    "time": 430.8565800000013,
                    "velocity": 0.25984251968503935,
                    "duration": 0.16320324999998093
                },
                {
                    "name": "C4",
                    "midi": 60,
                    "time": 431.0197832500013,
                    "velocity": 0.29133858267716534,
                    "duration": 0.16320324999998093
                },
                {
                    "name": "G4",
                    "midi": 67,
                    "time": 431.1829865000013,
                    "velocity": 0.30708661417322836,
                    "duration": 0.16320324999998093
                },
                {
                    "name": "C4",
                    "midi": 60,
                    "time": 431.34618975000126,
                    "velocity": 0.33070866141732286,
                    "duration": 0.16320324999998093
                },
                {
                    "name": "G3",
                    "midi": 55,
                    "time": 431.50939300000124,
                    "velocity": 0.25984251968503935,
                    "duration": 0.16320324999998093
                },
                {
                    "name": "C4",
                    "midi": 60,
                    "time": 431.6725962500012,
                    "velocity": 0.29133858267716534,
                    "duration": 0.16320324999998093
                },
                {
                    "name": "D#4",
                    "midi": 63,
                    "time": 431.8357995000012,
                    "velocity": 0.30708661417322836,
                    "duration": 0.16320324999998093
                },
                {
                    "name": "C4",
                    "midi": 60,
                    "time": 431.9990027500012,
                    "velocity": 0.33070866141732286,
                    "duration": 0.16320324999998093
                },
                {
                    "name": "G3",
                    "midi": 55,
                    "time": 432.16220600000116,
                    "velocity": 0.2204724409448819,
                    "duration": 0.16320324999998093
                },
                {
                    "name": "B3",
                    "midi": 59,
                    "time": 432.32540925000114,
                    "velocity": 0.23622047244094488,
                    "duration": 0.16320324999998093
                },
                {
                    "name": "D4",
                    "midi": 62,
                    "time": 432.4886125000011,
                    "velocity": 0.25196850393700787,
                    "duration": 0.16320324999998093
                },
                {
                    "name": "B3",
                    "midi": 59,
                    "time": 432.6518157500011,
                    "velocity": 0.2755905511811024,
                    "duration": 0.16320324999998093
                },
                {
                    "name": "G3",
                    "midi": 55,
                    "time": 432.8150190000011,
                    "velocity": 0.2204724409448819,
                    "duration": 0.16320324999998093
                },
                {
                    "name": "C4",
                    "midi": 60,
                    "time": 432.97822225000107,
                    "velocity": 0.23622047244094488,
                    "duration": 0.16320324999998093
                },
                {
                    "name": "D#4",
                    "midi": 63,
                    "time": 433.14142550000105,
                    "velocity": 0.25196850393700787,
                    "duration": 0.16320324999998093
                },
                {
                    "name": "C4",
                    "midi": 60,
                    "time": 433.30462875000103,
                    "velocity": 0.2755905511811024,
                    "duration": 0.16320324999998093
                },
                {
                    "name": "G3",
                    "midi": 55,
                    "time": 433.467832000001,
                    "velocity": 0.3700787401574803,
                    "duration": 0.08160162500001888
                },
                {
                    "name": "B3",
                    "midi": 59,
                    "time": 433.63103525000105,
                    "velocity": 0.23622047244094488,
                    "duration": 0.16320324999998093
                },
                {
                    "name": "D4",
                    "midi": 62,
                    "time": 433.79423850000103,
                    "velocity": 0.2440944881889764,
                    "duration": 0.16320324999998093
                },
                {
                    "name": "B3",
                    "midi": 59,
                    "time": 433.957441750001,
                    "velocity": 0.25196850393700787,
                    "duration": 0.16320324999998093
                },
                {
                    "name": "G3",
                    "midi": 55,
                    "time": 434.120645000001,
                    "velocity": 0.41732283464566927,
                    "duration": 0.08160162500001888
                },
                {
                    "name": "C4",
                    "midi": 60,
                    "time": 434.28384825000103,
                    "velocity": 0.25196850393700787,
                    "duration": 0.16320324999998093
                },
                {
                    "name": "E4",
                    "midi": 64,
                    "time": 434.447051500001,
                    "velocity": 0.25984251968503935,
                    "duration": 0.16320324999998093
                },
                {
                    "name": "C4",
                    "midi": 60,
                    "time": 434.610254750001,
                    "velocity": 0.2677165354330709,
                    "duration": 0.16320324999998093
                },
                {
                    "name": "G3",
                    "midi": 55,
                    "time": 434.77345800000097,
                    "velocity": 0.44881889763779526,
                    "duration": 0.08160162500001888
                },
                {
                    "name": "B3",
                    "midi": 59,
                    "time": 434.936661250001,
                    "velocity": 0.2755905511811024,
                    "duration": 0.16320324999998093
                },
                {
                    "name": "D4",
                    "midi": 62,
                    "time": 435.099864500001,
                    "velocity": 0.2992125984251969,
                    "duration": 0.16320324999998093
                },
                {
                    "name": "B3",
                    "midi": 59,
                    "time": 435.26306775000097,
                    "velocity": 0.2992125984251969,
                    "duration": 0.16320324999998093
                },
                {
                    "name": "G3",
                    "midi": 55,
                    "time": 435.42627100000095,
                    "velocity": 0.5039370078740157,
                    "duration": 0.08160162500001888
                },
                {
                    "name": "A3",
                    "midi": 57,
                    "time": 435.589474250001,
                    "velocity": 0.30708661417322836,
                    "duration": 0.16320324999998093
                },
                {
                    "name": "C4",
                    "midi": 60,
                    "time": 435.75267750000097,
                    "velocity": 0.3228346456692913,
                    "duration": 0.16320324999998093
                },
                {
                    "name": "A3",
                    "midi": 57,
                    "time": 435.91588075000095,
                    "velocity": 0.33858267716535434,
                    "duration": 0.16320324999998093
                },
                {
                    "name": "G3",
                    "midi": 55,
                    "time": 436.07908400000093,
                    "velocity": 0.5590551181102362,
                    "duration": 0.08160162500001888
                },
                {
                    "name": "B3",
                    "midi": 59,
                    "time": 436.24228725000097,
                    "velocity": 0.3700787401574803,
                    "duration": 0.16320324999998093
                },
                {
                    "name": "A3",
                    "midi": 57,
                    "time": 436.40549050000095,
                    "velocity": 0.3858267716535433,
                    "duration": 0.16320324999998093
                },
                {
                    "name": "G3",
                    "midi": 55,
                    "time": 436.56869375000093,
                    "velocity": 0.3937007874015748,
                    "duration": 0.16320324999998093
                },
                {
                    "name": "F3",
                    "midi": 53,
                    "time": 436.7318970000009,
                    "velocity": 0.5984251968503937,
                    "duration": 0.08160162500001888
                },
                {
                    "name": "A3",
                    "midi": 57,
                    "time": 436.89510025000095,
                    "velocity": 0.3937007874015748,
                    "duration": 0.16320324999998093
                },
                {
                    "name": "G3",
                    "midi": 55,
                    "time": 437.05830350000093,
                    "velocity": 0.41732283464566927,
                    "duration": 0.16320324999998093
                },
                {
                    "name": "F3",
                    "midi": 53,
                    "time": 437.2215067500009,
                    "velocity": 0.4330708661417323,
                    "duration": 0.16320324999998093
                },
                {
                    "name": "E3",
                    "midi": 52,
                    "time": 437.3847100000009,
                    "velocity": 0.6692913385826772,
                    "duration": 0.08160162500001888
                },
                {
                    "name": "G3",
                    "midi": 55,
                    "time": 437.54791325000093,
                    "velocity": 0.4566929133858268,
                    "duration": 0.16320324999998093
                },
                {
                    "name": "F3",
                    "midi": 53,
                    "time": 437.7111165000009,
                    "velocity": 0.48031496062992124,
                    "duration": 0.16320324999998093
                },
                {
                    "name": "E3",
                    "midi": 52,
                    "time": 437.8743197500009,
                    "velocity": 0.5039370078740157,
                    "duration": 0.16320324999998093
                },
                {
                    "name": "D3",
                    "midi": 50,
                    "time": 438.0375230000009,
                    "velocity": 0.7086614173228346,
                    "duration": 0.08160162500001888
                },
                {
                    "name": "F3",
                    "midi": 53,
                    "time": 438.2007262500009,
                    "velocity": 0.5354330708661418,
                    "duration": 0.16320324999998093
                },
                {
                    "name": "E3",
                    "midi": 52,
                    "time": 438.3639295000009,
                    "velocity": 0.5669291338582677,
                    "duration": 0.16320324999998093
                },
                {
                    "name": "D3",
                    "midi": 50,
                    "time": 438.5271327500009,
                    "velocity": 0.5984251968503937,
                    "duration": 0.16320324999998093
                },
                {
                    "name": "C2",
                    "midi": 36,
                    "time": 438.69033600000085,
                    "velocity": 0.7401574803149606,
                    "duration": 0.3264065000000187
                },
                {
                    "name": "C3",
                    "midi": 48,
                    "time": 438.69033600000085,
                    "velocity": 0.7401574803149606,
                    "duration": 0.3264065000000187
                },
                {
                    "name": "D3",
                    "midi": 50,
                    "time": 438.85353925000084,
                    "velocity": 0.4409448818897638,
                    "duration": 0.08160162500001888
                },
                {
                    "name": "E3",
                    "midi": 52,
                    "time": 438.93514087500085,
                    "velocity": 0.44881889763779526,
                    "duration": 0.08160162500001888
                },
                {
                    "name": "F3",
                    "midi": 53,
                    "time": 439.0167425000009,
                    "velocity": 0.47244094488188976,
                    "duration": 0.08160162500001888
                },
                {
                    "name": "G3",
                    "midi": 55,
                    "time": 439.0983441250009,
                    "velocity": 0.47244094488188976,
                    "duration": 0.08160162500001888
                },
                {
                    "name": "A3",
                    "midi": 57,
                    "time": 439.1799457500009,
                    "velocity": 0.4881889763779528,
                    "duration": 0.08160162500001888
                },
                {
                    "name": "B3",
                    "midi": 59,
                    "time": 439.26154737500093,
                    "velocity": 0.49606299212598426,
                    "duration": 0.08160162500001888
                },
                {
                    "name": "C4",
                    "midi": 60,
                    "time": 439.34314900000095,
                    "velocity": 0.49606299212598426,
                    "duration": 0.16320324999998093
                },
                {
                    "name": "D4",
                    "midi": 62,
                    "time": 439.50635225000093,
                    "velocity": 0.5118110236220472,
                    "duration": 0.08160162500001888
                },
                {
                    "name": "E4",
                    "midi": 64,
                    "time": 439.58795387500095,
                    "velocity": 0.5196850393700787,
                    "duration": 0.08160162500001888
                },
                {
                    "name": "F4",
                    "midi": 65,
                    "time": 439.66955550000097,
                    "velocity": 0.5275590551181102,
                    "duration": 0.08160162500001888
                },
                {
                    "name": "G4",
                    "midi": 67,
                    "time": 439.751157125001,
                    "velocity": 0.5433070866141733,
                    "duration": 0.08160162500001888
                },
                {
                    "name": "A4",
                    "midi": 69,
                    "time": 439.832758750001,
                    "velocity": 0.5511811023622047,
                    "duration": 0.08160162500001888
                },
                {
                    "name": "B4",
                    "midi": 71,
                    "time": 439.914360375001,
                    "velocity": 0.5590551181102362,
                    "duration": 0.08160162500001888
                },
                {
                    "name": "C5",
                    "midi": 72,
                    "time": 439.99596200000104,
                    "velocity": 0.5826771653543307,
                    "duration": 0.08160162500001888
                },
                {
                    "name": "B4",
                    "midi": 71,
                    "time": 440.1591652500011,
                    "velocity": 0.5590551181102362,
                    "duration": 0.08160162500001888
                },
                {
                    "name": "A4",
                    "midi": 69,
                    "time": 440.3223685000011,
                    "velocity": 0.5590551181102362,
                    "duration": 0.08160162500001888
                },
                {
                    "name": "G4",
                    "midi": 67,
                    "time": 440.48557175000116,
                    "velocity": 0.5590551181102362,
                    "duration": 0.08160162500001888
                },
                {
                    "name": "F4",
                    "midi": 65,
                    "time": 440.6487750000012,
                    "velocity": 0.5669291338582677,
                    "duration": 0.08160162500001888
                },
                {
                    "name": "E4",
                    "midi": 64,
                    "time": 440.81197825000123,
                    "velocity": 0.5433070866141733,
                    "duration": 0.08160162500001888
                },
                {
                    "name": "D4",
                    "midi": 62,
                    "time": 440.97518150000127,
                    "velocity": 0.5433070866141733,
                    "duration": 0.08160162500001888
                },
                {
                    "name": "C4",
                    "midi": 60,
                    "time": 441.1383847500013,
                    "velocity": 0.5275590551181102,
                    "duration": 0.08160162500001888
                },
                {
                    "name": "B3",
                    "midi": 59,
                    "time": 441.30158800000135,
                    "velocity": 0.5748031496062992,
                    "duration": 0.08160162500001888
                },
                {
                    "name": "C4",
                    "midi": 60,
                    "time": 441.4647912500014,
                    "velocity": 0.5433070866141733,
                    "duration": 0.08160162500001888
                },
                {
                    "name": "B3",
                    "midi": 59,
                    "time": 441.6279945000014,
                    "velocity": 0.5433070866141733,
                    "duration": 0.08160162500001888
                },
                {
                    "name": "A3",
                    "midi": 57,
                    "time": 441.79119775000146,
                    "velocity": 0.5433070866141733,
                    "duration": 0.08160162500001888
                },
                {
                    "name": "G3",
                    "midi": 55,
                    "time": 441.9544010000015,
                    "velocity": 0.5905511811023622,
                    "duration": 0.08160162500001888
                },
                {
                    "name": "F3",
                    "midi": 53,
                    "time": 442.11760425000153,
                    "velocity": 0.5433070866141733,
                    "duration": 0.08160162500001888
                },
                {
                    "name": "E3",
                    "midi": 52,
                    "time": 442.2808075000016,
                    "velocity": 0.5433070866141733,
                    "duration": 0.08160162500001888
                },
                {
                    "name": "D3",
                    "midi": 50,
                    "time": 442.4440107500016,
                    "velocity": 0.5433070866141733,
                    "duration": 0.08160162500001888
                },
                {
                    "name": "C3",
                    "midi": 48,
                    "time": 442.60721400000165,
                    "velocity": 0.5905511811023622,
                    "duration": 0.08160162500001888
                },
                {
                    "name": "C3",
                    "midi": 48,
                    "time": 442.7704172500017,
                    "velocity": 0.5433070866141733,
                    "duration": 0.08160162500001888
                },
                {
                    "name": "B2",
                    "midi": 47,
                    "time": 442.9336205000017,
                    "velocity": 0.5433070866141733,
                    "duration": 0.08160162500001888
                },
                {
                    "name": "A2",
                    "midi": 45,
                    "time": 443.09682375000176,
                    "velocity": 0.5433070866141733,
                    "duration": 0.08160162500001888
                },
                {
                    "name": "G2",
                    "midi": 43,
                    "time": 443.2600270000018,
                    "velocity": 0.5669291338582677,
                    "duration": 0.08160162500001888
                },
                {
                    "name": "F2",
                    "midi": 41,
                    "time": 443.42323025000184,
                    "velocity": 0.5590551181102362,
                    "duration": 0.08160162500001888
                },
                {
                    "name": "E2",
                    "midi": 40,
                    "time": 443.5864335000019,
                    "velocity": 0.5905511811023622,
                    "duration": 0.08160162500001888
                },
                {
                    "name": "D2",
                    "midi": 38,
                    "time": 443.7496367500019,
                    "velocity": 0.6299212598425197,
                    "duration": 0.08160162500001888
                },
                {
                    "name": "C2",
                    "midi": 36,
                    "time": 443.91284000000195,
                    "velocity": 0.7480314960629921,
                    "duration": 0.3264065000000187
                },
                {
                    "name": "C3",
                    "midi": 48,
                    "time": 443.91284000000195,
                    "velocity": 0.7480314960629921,
                    "duration": 0.3264065000000187
                },
                {
                    "name": "D3",
                    "midi": 50,
                    "time": 444.07604325000193,
                    "velocity": 0.4409448818897638,
                    "duration": 0.08160162500001888
                },
                {
                    "name": "E3",
                    "midi": 52,
                    "time": 444.15764487500195,
                    "velocity": 0.44881889763779526,
                    "duration": 0.08160162500001888
                },
                {
                    "name": "F3",
                    "midi": 53,
                    "time": 444.23924650000197,
                    "velocity": 0.47244094488188976,
                    "duration": 0.08160162500001888
                },
                {
                    "name": "G3",
                    "midi": 55,
                    "time": 444.320848125002,
                    "velocity": 0.47244094488188976,
                    "duration": 0.08160162500001888
                },
                {
                    "name": "A3",
                    "midi": 57,
                    "time": 444.402449750002,
                    "velocity": 0.4881889763779528,
                    "duration": 0.08160162500001888
                },
                {
                    "name": "B3",
                    "midi": 59,
                    "time": 444.484051375002,
                    "velocity": 0.49606299212598426,
                    "duration": 0.08160162500001888
                },
                {
                    "name": "C4",
                    "midi": 60,
                    "time": 444.56565300000204,
                    "velocity": 0.49606299212598426,
                    "duration": 0.16320324999998093
                },
                {
                    "name": "D4",
                    "midi": 62,
                    "time": 444.728856250002,
                    "velocity": 0.5118110236220472,
                    "duration": 0.08160162500001888
                },
                {
                    "name": "E4",
                    "midi": 64,
                    "time": 444.81045787500204,
                    "velocity": 0.5196850393700787,
                    "duration": 0.08160162500001888
                },
                {
                    "name": "F4",
                    "midi": 65,
                    "time": 444.89205950000206,
                    "velocity": 0.5275590551181102,
                    "duration": 0.08160162500001888
                },
                {
                    "name": "G4",
                    "midi": 67,
                    "time": 444.9736611250021,
                    "velocity": 0.5433070866141733,
                    "duration": 0.08160162500001888
                },
                {
                    "name": "A4",
                    "midi": 69,
                    "time": 445.0552627500021,
                    "velocity": 0.5511811023622047,
                    "duration": 0.08160162500001888
                },
                {
                    "name": "B4",
                    "midi": 71,
                    "time": 445.1368643750021,
                    "velocity": 0.5590551181102362,
                    "duration": 0.08160162500001888
                },
                {
                    "name": "C5",
                    "midi": 72,
                    "time": 445.21846600000214,
                    "velocity": 0.5826771653543307,
                    "duration": 0.08160162500001888
                },
                {
                    "name": "B4",
                    "midi": 71,
                    "time": 445.3816692500022,
                    "velocity": 0.5590551181102362,
                    "duration": 0.08160162500001888
                },
                {
                    "name": "A4",
                    "midi": 69,
                    "time": 445.5448725000022,
                    "velocity": 0.5590551181102362,
                    "duration": 0.08160162500001888
                },
                {
                    "name": "G4",
                    "midi": 67,
                    "time": 445.70807575000225,
                    "velocity": 0.5590551181102362,
                    "duration": 0.08160162500001888
                },
                {
                    "name": "F4",
                    "midi": 65,
                    "time": 445.8712790000023,
                    "velocity": 0.5669291338582677,
                    "duration": 0.08160162500001888
                },
                {
                    "name": "E4",
                    "midi": 64,
                    "time": 446.0344822500023,
                    "velocity": 0.5433070866141733,
                    "duration": 0.08160162500001888
                },
                {
                    "name": "D4",
                    "midi": 62,
                    "time": 446.19768550000236,
                    "velocity": 0.5433070866141733,
                    "duration": 0.08160162500001888
                },
                {
                    "name": "C4",
                    "midi": 60,
                    "time": 446.3608887500024,
                    "velocity": 0.5275590551181102,
                    "duration": 0.08160162500001888
                },
                {
                    "name": "B3",
                    "midi": 59,
                    "time": 446.52409200000244,
                    "velocity": 0.5748031496062992,
                    "duration": 0.08160162500001888
                },
                {
                    "name": "C4",
                    "midi": 60,
                    "time": 446.6872952500025,
                    "velocity": 0.5433070866141733,
                    "duration": 0.08160162500001888
                },
                {
                    "name": "B3",
                    "midi": 59,
                    "time": 446.8504985000025,
                    "velocity": 0.5433070866141733,
                    "duration": 0.08160162500001888
                },
                {
                    "name": "A3",
                    "midi": 57,
                    "time": 447.01370175000255,
                    "velocity": 0.5433070866141733,
                    "duration": 0.08160162500001888
                },
                {
                    "name": "G3",
                    "midi": 55,
                    "time": 447.1769050000026,
                    "velocity": 0.5905511811023622,
                    "duration": 0.08160162500001888
                },
                {
                    "name": "F3",
                    "midi": 53,
                    "time": 447.34010825000263,
                    "velocity": 0.5433070866141733,
                    "duration": 0.08160162500001888
                },
                {
                    "name": "E3",
                    "midi": 52,
                    "time": 447.50331150000267,
                    "velocity": 0.5433070866141733,
                    "duration": 0.08160162500001888
                },
                {
                    "name": "D3",
                    "midi": 50,
                    "time": 447.6665147500027,
                    "velocity": 0.5433070866141733,
                    "duration": 0.08160162500001888
                },
                {
                    "name": "C3",
                    "midi": 48,
                    "time": 447.82971800000274,
                    "velocity": 0.5905511811023622,
                    "duration": 0.3264065000000187
                },
                {
                    "name": "C2",
                    "midi": 36,
                    "time": 448.15612450000276,
                    "velocity": 0.5905511811023622,
                    "duration": 0.3264065000000187
                },
                {
                    "name": "C2",
                    "midi": 36,
                    "time": 448.8089375000028,
                    "velocity": 0.47244094488188976,
                    "duration": 0.3264065000000187
                },
                {
                    "name": "C3",
                    "midi": 48,
                    "time": 448.8089375000028,
                    "velocity": 0.5590551181102362,
                    "duration": 0.3264065000000187
                },
                {
                    "name": "C2",
                    "midi": 36,
                    "time": 449.46175050000284,
                    "velocity": 0.47244094488188976,
                    "duration": 0.3264065000000187
                },
                {
                    "name": "C3",
                    "midi": 48,
                    "time": 449.46175050000284,
                    "velocity": 0.5590551181102362,
                    "duration": 0.3264065000000187
                },
                {
                    "name": "C2",
                    "midi": 36,
                    "time": 450.1145635000029,
                    "velocity": 0.44881889763779526,
                    "duration": 0.3264065000000187
                },
                {
                    "name": "C3",
                    "midi": 48,
                    "time": 450.1145635000029,
                    "velocity": 0.5354330708661418,
                    "duration": 0.3264065000000187
                },
                {
                    "name": "C2",
                    "midi": 36,
                    "time": 450.7673765000029,
                    "velocity": 0.41732283464566927,
                    "duration": 0.3264065000000187
                },
                {
                    "name": "C3",
                    "midi": 48,
                    "time": 450.7673765000029,
                    "velocity": 0.49606299212598426,
                    "duration": 0.3264065000000187
                },
                {
                    "name": "C2",
                    "midi": 36,
                    "time": 451.42018950000295,
                    "velocity": 0.4645669291338583,
                    "duration": 0.3264065000000187
                },
                {
                    "name": "C3",
                    "midi": 48,
                    "time": 451.42018950000295,
                    "velocity": 0.5511811023622047,
                    "duration": 0.3264065000000187
                },
                {
                    "name": "C2",
                    "midi": 36,
                    "time": 452.073002500003,
                    "velocity": 0.47244094488188976,
                    "duration": 0.3264065000000187
                },
                {
                    "name": "C3",
                    "midi": 48,
                    "time": 452.073002500003,
                    "velocity": 0.5590551181102362,
                    "duration": 0.3264065000000187
                },
                {
                    "name": "C2",
                    "midi": 36,
                    "time": 452.725815500003,
                    "velocity": 0.47244094488188976,
                    "duration": 0.3264065000000187
                },
                {
                    "name": "C3",
                    "midi": 48,
                    "time": 452.725815500003,
                    "velocity": 0.5590551181102362,
                    "duration": 0.3264065000000187
                },
                {
                    "name": "C2",
                    "midi": 36,
                    "time": 453.37862850000306,
                    "velocity": 0.5590551181102362,
                    "duration": 0.3264065000000187
                },
                {
                    "name": "C3",
                    "midi": 48,
                    "time": 454.0314415000031,
                    "velocity": 0.47244094488188976,
                    "duration": 0.3264065000000187
                },
                {
                    "name": "E2",
                    "midi": 40,
                    "time": 454.0314415000031,
                    "velocity": 0.47244094488188976,
                    "duration": 0.3264065000000187
                },
                {
                    "name": "E3",
                    "midi": 52,
                    "time": 454.0314415000031,
                    "velocity": 0.5590551181102362,
                    "duration": 0.3264065000000187
                },
                {
                    "name": "C3",
                    "midi": 48,
                    "time": 454.68425450000314,
                    "velocity": 0.47244094488188976,
                    "duration": 0.3264065000000187
                },
                {
                    "name": "F2",
                    "midi": 41,
                    "time": 454.68425450000314,
                    "velocity": 0.47244094488188976,
                    "duration": 0.3264065000000187
                },
                {
                    "name": "F3",
                    "midi": 53,
                    "time": 454.68425450000314,
                    "velocity": 0.5590551181102362,
                    "duration": 0.3264065000000187
                },
                {
                    "name": "C3",
                    "midi": 48,
                    "time": 455.3370675000032,
                    "velocity": 0.44881889763779526,
                    "duration": 0.3264065000000187
                },
                {
                    "name": "E2",
                    "midi": 40,
                    "time": 455.3370675000032,
                    "velocity": 0.44881889763779526,
                    "duration": 0.3264065000000187
                },
                {
                    "name": "E3",
                    "midi": 52,
                    "time": 455.3370675000032,
                    "velocity": 0.5354330708661418,
                    "duration": 0.3264065000000187
                },
                {
                    "name": "C3",
                    "midi": 48,
                    "time": 455.9898805000032,
                    "velocity": 0.41732283464566927,
                    "duration": 0.3264065000000187
                },
                {
                    "name": "D2",
                    "midi": 38,
                    "time": 455.9898805000032,
                    "velocity": 0.41732283464566927,
                    "duration": 0.3264065000000187
                },
                {
                    "name": "D3",
                    "midi": 50,
                    "time": 455.9898805000032,
                    "velocity": 0.49606299212598426,
                    "duration": 0.3264065000000187
                },
                {
                    "name": "C3",
                    "midi": 48,
                    "time": 456.64269350000325,
                    "velocity": 0.4645669291338583,
                    "duration": 0.3264065000000187
                },
                {
                    "name": "D#2",
                    "midi": 39,
                    "time": 456.64269350000325,
                    "velocity": 0.4645669291338583,
                    "duration": 0.3264065000000187
                },
                {
                    "name": "D#3",
                    "midi": 51,
                    "time": 456.64269350000325,
                    "velocity": 0.5511811023622047,
                    "duration": 0.3264065000000187
                },
                {
                    "name": "C3",
                    "midi": 48,
                    "time": 457.2955065000033,
                    "velocity": 0.47244094488188976,
                    "duration": 0.3264065000000187
                },
                {
                    "name": "E2",
                    "midi": 40,
                    "time": 457.2955065000033,
                    "velocity": 0.47244094488188976,
                    "duration": 0.3264065000000187
                },
                {
                    "name": "E3",
                    "midi": 52,
                    "time": 457.2955065000033,
                    "velocity": 0.5590551181102362,
                    "duration": 0.3264065000000187
                },
                {
                    "name": "C3",
                    "midi": 48,
                    "time": 457.9483195000033,
                    "velocity": 0.47244094488188976,
                    "duration": 0.3264065000000187
                },
                {
                    "name": "D2",
                    "midi": 38,
                    "time": 457.9483195000033,
                    "velocity": 0.47244094488188976,
                    "duration": 0.3264065000000187
                },
                {
                    "name": "D3",
                    "midi": 50,
                    "time": 457.9483195000033,
                    "velocity": 0.5590551181102362,
                    "duration": 0.3264065000000187
                },
                {
                    "name": "C2",
                    "midi": 36,
                    "time": 458.60113250000336,
                    "velocity": 0.49606299212598426,
                    "duration": 0.3264065000000187
                },
                {
                    "name": "C3",
                    "midi": 48,
                    "time": 458.60113250000336,
                    "velocity": 0.49606299212598426,
                    "duration": 0.3264065000000187
                },
                {
                    "name": "C2",
                    "midi": 36,
                    "time": 458.9275390000034,
                    "velocity": 0.4015748031496063,
                    "duration": 0.10880216666669185
                },
                {
                    "name": "E2",
                    "midi": 40,
                    "time": 459.03634116667007,
                    "velocity": 0.3543307086614173,
                    "duration": 0.10880216666669185
                },
                {
                    "name": "G2",
                    "midi": 43,
                    "time": 459.14514333333676,
                    "velocity": 0.3543307086614173,
                    "duration": 0.10880216666669185
                },
                {
                    "name": "C3",
                    "midi": 48,
                    "time": 459.25394550000345,
                    "velocity": 0.4015748031496063,
                    "duration": 0.10880216666669185
                },
                {
                    "name": "G2",
                    "midi": 43,
                    "time": 459.36274766667015,
                    "velocity": 0.36220472440944884,
                    "duration": 0.10880216666669185
                },
                {
                    "name": "E2",
                    "midi": 40,
                    "time": 459.47154983333684,
                    "velocity": 0.36220472440944884,
                    "duration": 0.10880216666669185
                },
                {
                    "name": "C2",
                    "midi": 36,
                    "time": 459.58035200000353,
                    "velocity": 0.4015748031496063,
                    "duration": 0.10880216666669185
                },
                {
                    "name": "F2",
                    "midi": 41,
                    "time": 459.6891541666702,
                    "velocity": 0.36220472440944884,
                    "duration": 0.10880216666669185
                },
                {
                    "name": "A2",
                    "midi": 45,
                    "time": 459.7979563333369,
                    "velocity": 0.36220472440944884,
                    "duration": 0.10880216666669185
                },
                {
                    "name": "C3",
                    "midi": 48,
                    "time": 459.9067585000036,
                    "velocity": 0.4015748031496063,
                    "duration": 0.10880216666669185
                },
                {
                    "name": "A2",
                    "midi": 45,
                    "time": 460.0155606666703,
                    "velocity": 0.3543307086614173,
                    "duration": 0.10880216666669185
                },
                {
                    "name": "F2",
                    "midi": 41,
                    "time": 460.124362833337,
                    "velocity": 0.3543307086614173,
                    "duration": 0.10880216666669185
                },
                {
                    "name": "C2",
                    "midi": 36,
                    "time": 460.2331650000037,
                    "velocity": 0.4015748031496063,
                    "duration": 0.10880216666669185
                },
                {
                    "name": "E2",
                    "midi": 40,
                    "time": 460.3419671666704,
                    "velocity": 0.36220472440944884,
                    "duration": 0.10880216666669185
                },
                {
                    "name": "G2",
                    "midi": 43,
                    "time": 460.45076933333706,
                    "velocity": 0.36220472440944884,
                    "duration": 0.10880216666669185
                },
                {
                    "name": "C3",
                    "midi": 48,
                    "time": 460.55957150000376,
                    "velocity": 0.4015748031496063,
                    "duration": 0.10880216666669185
                },
                {
                    "name": "G2",
                    "midi": 43,
                    "time": 460.66837366667045,
                    "velocity": 0.36220472440944884,
                    "duration": 0.10880216666669185
                },
                {
                    "name": "E2",
                    "midi": 40,
                    "time": 460.77717583333714,
                    "velocity": 0.36220472440944884,
                    "duration": 0.10880216666669185
                },
                {
                    "name": "C2",
                    "midi": 36,
                    "time": 460.88597800000383,
                    "velocity": 0.4015748031496063,
                    "duration": 0.10880216666669185
                },
                {
                    "name": "D2",
                    "midi": 38,
                    "time": 460.9947801666705,
                    "velocity": 0.36220472440944884,
                    "duration": 0.10880216666669185
                },
                {
                    "name": "F2",
                    "midi": 41,
                    "time": 461.1035823333372,
                    "velocity": 0.36220472440944884,
                    "duration": 0.10880216666669185
                },
                {
                    "name": "C3",
                    "midi": 48,
                    "time": 461.2123845000039,
                    "velocity": 0.4015748031496063,
                    "duration": 0.10880216666669185
                },
                {
                    "name": "F2",
                    "midi": 41,
                    "time": 461.3211866666706,
                    "velocity": 0.3543307086614173,
                    "duration": 0.10880216666669185
                },
                {
                    "name": "D2",
                    "midi": 38,
                    "time": 461.4299888333373,
                    "velocity": 0.3543307086614173,
                    "duration": 0.10880216666669185
                },
                {
                    "name": "C2",
                    "midi": 36,
                    "time": 461.538791000004,
                    "velocity": 0.4409448818897638,
                    "duration": 0.10880216666669185
                },
                {
                    "name": "D#2",
                    "midi": 39,
                    "time": 461.6475931666707,
                    "velocity": 0.36220472440944884,
                    "duration": 0.10880216666669185
                },
                {
                    "name": "F#2",
                    "midi": 42,
                    "time": 461.75639533333737,
                    "velocity": 0.36220472440944884,
                    "duration": 0.10880216666669185
                },
                {
                    "name": "C3",
                    "midi": 48,
                    "time": 461.86519750000406,
                    "velocity": 0.4015748031496063,
                    "duration": 0.10880216666669185
                },
                {
                    "name": "F#2",
                    "midi": 42,
                    "time": 461.97399966667075,
                    "velocity": 0.36220472440944884,
                    "duration": 0.10880216666669185
                },
                {
                    "name": "D#2",
                    "midi": 39,
                    "time": 462.08280183333744,
                    "velocity": 0.36220472440944884,
                    "duration": 0.10880216666669185
                },
                {
                    "name": "C2",
                    "midi": 36,
                    "time": 462.19160400000413,
                    "velocity": 0.44881889763779526,
                    "duration": 0.10880216666669185
                },
                {
                    "name": "E2",
                    "midi": 40,
                    "time": 462.3004061666708,
                    "velocity": 0.36220472440944884,
                    "duration": 0.10880216666669185
                },
                {
                    "name": "G2",
                    "midi": 43,
                    "time": 462.4092083333375,
                    "velocity": 0.36220472440944884,
                    "duration": 0.10880216666669185
                },
                {
                    "name": "C3",
                    "midi": 48,
                    "time": 462.5180105000042,
                    "velocity": 0.4015748031496063,
                    "duration": 0.10880216666669185
                },
                {
                    "name": "G2",
                    "midi": 43,
                    "time": 462.6268126666709,
                    "velocity": 0.3543307086614173,
                    "duration": 0.10880216666669185
                },
                {
                    "name": "E2",
                    "midi": 40,
                    "time": 462.7356148333376,
                    "velocity": 0.3543307086614173,
                    "duration": 0.10880216666669185
                },
                {
                    "name": "C2",
                    "midi": 36,
                    "time": 462.8444170000043,
                    "velocity": 0.4015748031496063,
                    "duration": 0.10880216666669185
                },
                {
                    "name": "D2",
                    "midi": 38,
                    "time": 462.953219166671,
                    "velocity": 0.3543307086614173,
                    "duration": 0.10880216666669185
                },
                {
                    "name": "F2",
                    "midi": 41,
                    "time": 463.06202133333767,
                    "velocity": 0.3464566929133858,
                    "duration": 0.10880216666669185
                },
                {
                    "name": "C3",
                    "midi": 48,
                    "time": 463.17082350000436,
                    "velocity": 0.4015748031496063,
                    "duration": 0.10880216666669185
                },
                {
                    "name": "F2",
                    "midi": 41,
                    "time": 463.27962566667105,
                    "velocity": 0.3464566929133858,
                    "duration": 0.10880216666669185
                },
                {
                    "name": "D2",
                    "midi": 38,
                    "time": 463.38842783333774,
                    "velocity": 0.3464566929133858,
                    "duration": 0.10880216666669185
                },
                {
                    "name": "C2",
                    "midi": 36,
                    "time": 463.49723000000444,
                    "velocity": 0.4015748031496063,
                    "duration": 0.10880216666669185
                },
                {
                    "name": "E2",
                    "midi": 40,
                    "time": 463.6060321666711,
                    "velocity": 0.3464566929133858,
                    "duration": 0.10880216666669185
                },
                {
                    "name": "G2",
                    "midi": 43,
                    "time": 463.7148343333378,
                    "velocity": 0.3464566929133858,
                    "duration": 0.10880216666669185
                },
                {
                    "name": "C3",
                    "midi": 48,
                    "time": 463.8236365000045,
                    "velocity": 0.4015748031496063,
                    "duration": 0.10880216666669185
                },
                {
                    "name": "G2",
                    "midi": 43,
                    "time": 463.9324386666712,
                    "velocity": 0.3464566929133858,
                    "duration": 0.10880216666669185
                },
                {
                    "name": "E2",
                    "midi": 40,
                    "time": 464.0412408333379,
                    "velocity": 0.36220472440944884,
                    "duration": 0.10880216666669185
                },
                {
                    "name": "C2",
                    "midi": 36,
                    "time": 464.1500430000046,
                    "velocity": 0.4015748031496063,
                    "duration": 0.10880216666669185
                },
                {
                    "name": "C3",
                    "midi": 48,
                    "time": 464.2588451666713,
                    "velocity": 0.3543307086614173,
                    "duration": 0.10880216666669185
                },
                {
                    "name": "E3",
                    "midi": 52,
                    "time": 464.36764733333797,
                    "velocity": 0.3543307086614173,
                    "duration": 0.10880216666669185
                },
                {
                    "name": "G3",
                    "midi": 55,
                    "time": 464.47644950000466,
                    "velocity": 0.4015748031496063,
                    "duration": 0.10880216666669185
                },
                {
                    "name": "E3",
                    "midi": 52,
                    "time": 464.58525166667135,
                    "velocity": 0.36220472440944884,
                    "duration": 0.10880216666669185
                },
                {
                    "name": "C3",
                    "midi": 48,
                    "time": 464.69405383333805,
                    "velocity": 0.36220472440944884,
                    "duration": 0.10880216666669185
                },
                {
                    "name": "C2",
                    "midi": 36,
                    "time": 464.80285600000474,
                    "velocity": 0.4015748031496063,
                    "duration": 0.10880216666669185
                },
                {
                    "name": "C3",
                    "midi": 48,
                    "time": 464.91165816667143,
                    "velocity": 0.36220472440944884,
                    "duration": 0.10880216666669185
                },
                {
                    "name": "F3",
                    "midi": 53,
                    "time": 465.0204603333381,
                    "velocity": 0.36220472440944884,
                    "duration": 0.10880216666669185
                },
                {
                    "name": "A3",
                    "midi": 57,
                    "time": 465.1292625000048,
                    "velocity": 0.4015748031496063,
                    "duration": 0.10880216666669185
                },
                {
                    "name": "F3",
                    "midi": 53,
                    "time": 465.2380646666715,
                    "velocity": 0.3543307086614173,
                    "duration": 0.10880216666669185
                },
                {
                    "name": "C3",
                    "midi": 48,
                    "time": 465.3468668333382,
                    "velocity": 0.3543307086614173,
                    "duration": 0.10880216666669185
                },
                {
                    "name": "C2",
                    "midi": 36,
                    "time": 465.4556690000049,
                    "velocity": 0.4015748031496063,
                    "duration": 0.10880216666669185
                },
                {
                    "name": "C3",
                    "midi": 48,
                    "time": 465.5644711666716,
                    "velocity": 0.36220472440944884,
                    "duration": 0.10880216666669185
                },
                {
                    "name": "E3",
                    "midi": 52,
                    "time": 465.6732733333383,
                    "velocity": 0.36220472440944884,
                    "duration": 0.10880216666669185
                },
                {
                    "name": "G3",
                    "midi": 55,
                    "time": 465.78207550000496,
                    "velocity": 0.4015748031496063,
                    "duration": 0.10880216666669185
                },
                {
                    "name": "E3",
                    "midi": 52,
                    "time": 465.89087766667166,
                    "velocity": 0.36220472440944884,
                    "duration": 0.10880216666669185
                },
                {
                    "name": "C3",
                    "midi": 48,
                    "time": 465.99967983333835,
                    "velocity": 0.36220472440944884,
                    "duration": 0.10880216666669185
                },
                {
                    "name": "C2",
                    "midi": 36,
                    "time": 466.10848200000504,
                    "velocity": 0.4015748031496063,
                    "duration": 0.10880216666669185
                },
                {
                    "name": "C3",
                    "midi": 48,
                    "time": 466.21728416667173,
                    "velocity": 0.36220472440944884,
                    "duration": 0.10880216666669185
                },
                {
                    "name": "D3",
                    "midi": 50,
                    "time": 466.3260863333384,
                    "velocity": 0.36220472440944884,
                    "duration": 0.10880216666669185
                },
                {
                    "name": "F3",
                    "midi": 53,
                    "time": 466.4348885000051,
                    "velocity": 0.4015748031496063,
                    "duration": 0.10880216666669185
                },
                {
                    "name": "D3",
                    "midi": 50,
                    "time": 466.5436906666718,
                    "velocity": 0.3543307086614173,
                    "duration": 0.10880216666669185
                },
                {
                    "name": "C3",
                    "midi": 48,
                    "time": 466.6524928333385,
                    "velocity": 0.3543307086614173,
                    "duration": 0.10880216666669185
                },
                {
                    "name": "C2",
                    "midi": 36,
                    "time": 466.7612950000052,
                    "velocity": 0.4409448818897638,
                    "duration": 0.10880216666669185
                },
                {
                    "name": "C3",
                    "midi": 48,
                    "time": 466.8700971666719,
                    "velocity": 0.36220472440944884,
                    "duration": 0.10880216666669185
                },
                {
                    "name": "D#3",
                    "midi": 51,
                    "time": 466.9788993333386,
                    "velocity": 0.36220472440944884,
                    "duration": 0.10880216666669185
                },
                {
                    "name": "F#3",
                    "midi": 54,
                    "time": 467.08770150000527,
                    "velocity": 0.4015748031496063,
                    "duration": 0.10880216666669185
                },
                {
                    "name": "D#3",
                    "midi": 51,
                    "time": 467.19650366667196,
                    "velocity": 0.36220472440944884,
                    "duration": 0.10880216666669185
                },
                {
                    "name": "C3",
                    "midi": 48,
                    "time": 467.30530583333865,
                    "velocity": 0.36220472440944884,
                    "duration": 0.10880216666669185
                },
                {
                    "name": "C2",
                    "midi": 36,
                    "time": 467.41410800000534,
                    "velocity": 0.44881889763779526,
                    "duration": 0.10880216666669185
                },
                {
                    "name": "C3",
                    "midi": 48,
                    "time": 467.52291016667203,
                    "velocity": 0.36220472440944884,
                    "duration": 0.10880216666669185
                },
                {
                    "name": "E3",
                    "midi": 52,
                    "time": 467.6317123333387,
                    "velocity": 0.36220472440944884,
                    "duration": 0.10880216666669185
                },
                {
                    "name": "G3",
                    "midi": 55,
                    "time": 467.7405145000054,
                    "velocity": 0.4015748031496063,
                    "duration": 0.10880216666669185
                },
                {
                    "name": "E3",
                    "midi": 52,
                    "time": 467.8493166666721,
                    "velocity": 0.3543307086614173,
                    "duration": 0.10880216666669185
                },
                {
                    "name": "C3",
                    "midi": 48,
                    "time": 467.9581188333388,
                    "velocity": 0.3543307086614173,
                    "duration": 0.10880216666669185
                },
                {
                    "name": "C2",
                    "midi": 36,
                    "time": 468.0669210000055,
                    "velocity": 0.4015748031496063,
                    "duration": 0.10880216666669185
                },
                {
                    "name": "C3",
                    "midi": 48,
                    "time": 468.1757231666722,
                    "velocity": 0.3543307086614173,
                    "duration": 0.10880216666669185
                },
                {
                    "name": "D3",
                    "midi": 50,
                    "time": 468.2845253333389,
                    "velocity": 0.3464566929133858,
                    "duration": 0.10880216666669185
                },
                {
                    "name": "F3",
                    "midi": 53,
                    "time": 468.39332750000557,
                    "velocity": 0.4015748031496063,
                    "duration": 0.10880216666669185
                },
                {
                    "name": "D3",
                    "midi": 50,
                    "time": 468.50212966667226,
                    "velocity": 0.3464566929133858,
                    "duration": 0.10880216666669185
                },
                {
                    "name": "C3",
                    "midi": 48,
                    "time": 468.61093183333895,
                    "velocity": 0.3464566929133858,
                    "duration": 0.10880216666669185
                },
                {
                    "name": "C2",
                    "midi": 36,
                    "time": 468.71973400000564,
                    "velocity": 0.4015748031496063,
                    "duration": 0.10880216666669185
                },
                {
                    "name": "C3",
                    "midi": 48,
                    "time": 468.82853616667234,
                    "velocity": 0.3464566929133858,
                    "duration": 0.10880216666669185
                },
                {
                    "name": "E3",
                    "midi": 52,
                    "time": 468.937338333339,
                    "velocity": 0.3464566929133858,
                    "duration": 0.10880216666669185
                },
                {
                    "name": "G3",
                    "midi": 55,
                    "time": 469.0461405000057,
                    "velocity": 0.4015748031496063,
                    "duration": 0.10880216666669185
                },
                {
                    "name": "E3",
                    "midi": 52,
                    "time": 469.1549426666724,
                    "velocity": 0.3464566929133858,
                    "duration": 0.10880216666669185
                },
                {
                    "name": "C3",
                    "midi": 48,
                    "time": 469.2637448333391,
                    "velocity": 0.36220472440944884,
                    "duration": 0.10880216666669185
                },
                {
                    "name": "C2",
                    "midi": 36,
                    "time": 469.3725470000058,
                    "velocity": 0.4645669291338583,
                    "duration": 0.10880216666669185
                },
                {
                    "name": "C3",
                    "midi": 48,
                    "time": 469.4813491666725,
                    "velocity": 0.3543307086614173,
                    "duration": 0.10880216666669185
                },
                {
                    "name": "E3",
                    "midi": 52,
                    "time": 469.5901513333392,
                    "velocity": 0.3543307086614173,
                    "duration": 0.10880216666669185
                },
                {
                    "name": "G3",
                    "midi": 55,
                    "time": 469.69895350000587,
                    "velocity": 0.4015748031496063,
                    "duration": 0.10880216666669185
                },
                {
                    "name": "E3",
                    "midi": 52,
                    "time": 469.80775566667256,
                    "velocity": 0.36220472440944884,
                    "duration": 0.10880216666669185
                },
                {
                    "name": "C3",
                    "midi": 48,
                    "time": 469.91655783333925,
                    "velocity": 0.36220472440944884,
                    "duration": 0.10880216666669185
                },
                {
                    "name": "G2",
                    "midi": 43,
                    "time": 470.02536000000595,
                    "velocity": 0.4015748031496063,
                    "duration": 0.10880216666669185
                },
                {
                    "name": "B2",
                    "midi": 47,
                    "time": 470.13416216667264,
                    "velocity": 0.36220472440944884,
                    "duration": 0.10880216666669185
                },
                {
                    "name": "D3",
                    "midi": 50,
                    "time": 470.24296433333933,
                    "velocity": 0.36220472440944884,
                    "duration": 0.10880216666669185
                },
                {
                    "name": "G3",
                    "midi": 55,
                    "time": 470.351766500006,
                    "velocity": 0.4015748031496063,
                    "duration": 0.10880216666669185
                },
                {
                    "name": "D3",
                    "midi": 50,
                    "time": 470.4605686666727,
                    "velocity": 0.3543307086614173,
                    "duration": 0.10880216666669185
                },
                {
                    "name": "B2",
                    "midi": 47,
                    "time": 470.5693708333394,
                    "velocity": 0.3543307086614173,
                    "duration": 0.10880216666669185
                },
                {
                    "name": "D2",
                    "midi": 38,
                    "time": 470.6781730000061,
                    "velocity": 0.4645669291338583,
                    "duration": 0.10880216666669185
                },
                {
                    "name": "D3",
                    "midi": 50,
                    "time": 470.7869751666728,
                    "velocity": 0.3543307086614173,
                    "duration": 0.10880216666669185
                },
                {
                    "name": "F3",
                    "midi": 53,
                    "time": 470.8957773333395,
                    "velocity": 0.3543307086614173,
                    "duration": 0.10880216666669185
                },
                {
                    "name": "A3",
                    "midi": 57,
                    "time": 471.0045795000062,
                    "velocity": 0.4015748031496063,
                    "duration": 0.10880216666669185
                },
                {
                    "name": "F3",
                    "midi": 53,
                    "time": 471.11338166667286,
                    "velocity": 0.36220472440944884,
                    "duration": 0.10880216666669185
                },
                {
                    "name": "D3",
                    "midi": 50,
                    "time": 471.22218383333956,
                    "velocity": 0.36220472440944884,
                    "duration": 0.10880216666669185
                },
                {
                    "name": "A2",
                    "midi": 45,
                    "time": 471.33098600000625,
                    "velocity": 0.4015748031496063,
                    "duration": 0.10880216666669185
                },
                {
                    "name": "C3",
                    "midi": 48,
                    "time": 471.43978816667294,
                    "velocity": 0.36220472440944884,
                    "duration": 0.10880216666669185
                },
                {
                    "name": "E3",
                    "midi": 52,
                    "time": 471.54859033333963,
                    "velocity": 0.36220472440944884,
                    "duration": 0.10880216666669185
                },
                {
                    "name": "A3",
                    "midi": 57,
                    "time": 471.6573925000063,
                    "velocity": 0.4015748031496063,
                    "duration": 0.10880216666669185
                },
                {
                    "name": "E3",
                    "midi": 52,
                    "time": 471.766194666673,
                    "velocity": 0.3543307086614173,
                    "duration": 0.10880216666669185
                },
                {
                    "name": "C3",
                    "midi": 48,
                    "time": 471.8749968333397,
                    "velocity": 0.3543307086614173,
                    "duration": 0.10880216666669185
                },
                {
                    "name": "F2",
                    "midi": 41,
                    "time": 471.9837990000064,
                    "velocity": 0.4645669291338583,
                    "duration": 0.10880216666669185
                },
                {
                    "name": "C3",
                    "midi": 48,
                    "time": 472.0926011666731,
                    "velocity": 0.3543307086614173,
                    "duration": 0.10880216666669185
                },
                {
                    "name": "D3",
                    "midi": 50,
                    "time": 472.2014033333398,
                    "velocity": 0.3543307086614173,
                    "duration": 0.10880216666669185
                },
                {
                    "name": "F3",
                    "midi": 53,
                    "time": 472.3102055000065,
                    "velocity": 0.4015748031496063,
                    "duration": 0.10880216666669185
                },
                {
                    "name": "D3",
                    "midi": 50,
                    "time": 472.41900766667317,
                    "velocity": 0.36220472440944884,
                    "duration": 0.10880216666669185
                },
                {
                    "name": "C3",
                    "midi": 48,
                    "time": 472.52780983333986,
                    "velocity": 0.36220472440944884,
                    "duration": 0.10880216666669185
                },
                {
                    "name": "G2",
                    "midi": 43,
                    "time": 472.63661200000655,
                    "velocity": 0.4015748031496063,
                    "duration": 0.10880216666669185
                },
                {
                    "name": "C3",
                    "midi": 48,
                    "time": 472.74541416667324,
                    "velocity": 0.36220472440944884,
                    "duration": 0.10880216666669185
                },
                {
                    "name": "D3",
                    "midi": 50,
                    "time": 472.85421633333993,
                    "velocity": 0.36220472440944884,
                    "duration": 0.10880216666669185
                },
                {
                    "name": "G3",
                    "midi": 55,
                    "time": 472.9630185000066,
                    "velocity": 0.4015748031496063,
                    "duration": 0.10880216666669185
                },
                {
                    "name": "D3",
                    "midi": 50,
                    "time": 473.0718206666733,
                    "velocity": 0.3543307086614173,
                    "duration": 0.10880216666669185
                },
                {
                    "name": "C3",
                    "midi": 48,
                    "time": 473.18062283334,
                    "velocity": 0.3543307086614173,
                    "duration": 0.10880216666669185
                },
                {
                    "name": "G2",
                    "midi": 43,
                    "time": 473.2894250000067,
                    "velocity": 0.4645669291338583,
                    "duration": 0.10880216666669185
                },
                {
                    "name": "B2",
                    "midi": 47,
                    "time": 473.3982271666734,
                    "velocity": 0.3543307086614173,
                    "duration": 0.10880216666669185
                },
                {
                    "name": "D3",
                    "midi": 50,
                    "time": 473.5070293333401,
                    "velocity": 0.3543307086614173,
                    "duration": 0.10880216666669185
                },
                {
                    "name": "G3",
                    "midi": 55,
                    "time": 473.6158315000068,
                    "velocity": 0.4015748031496063,
                    "duration": 0.10880216666669185
                },
                {
                    "name": "D3",
                    "midi": 50,
                    "time": 473.72463366667347,
                    "velocity": 0.36220472440944884,
                    "duration": 0.10880216666669185
                },
                {
                    "name": "B2",
                    "midi": 47,
                    "time": 473.83343583334016,
                    "velocity": 0.36220472440944884,
                    "duration": 0.10880216666669185
                },
                {
                    "name": "C2",
                    "midi": 36,
                    "time": 473.94223800000685,
                    "velocity": 0.4015748031496063,
                    "duration": 0.10880216666669185
                },
                {
                    "name": "C3",
                    "midi": 48,
                    "time": 474.05104016667354,
                    "velocity": 0.3464566929133858,
                    "duration": 0.10880216666669185
                },
                {
                    "name": "E3",
                    "midi": 52,
                    "time": 474.15984233334024,
                    "velocity": 0.3464566929133858,
                    "duration": 0.10880216666669185
                },
                {
                    "name": "G3",
                    "midi": 55,
                    "time": 474.2686445000069,
                    "velocity": 0.3937007874015748,
                    "duration": 0.10880216666669185
                },
                {
                    "name": "E3",
                    "midi": 52,
                    "time": 474.3774466666736,
                    "velocity": 0.33858267716535434,
                    "duration": 0.10880216666669185
                },
                {
                    "name": "C3",
                    "midi": 48,
                    "time": 474.4862488333403,
                    "velocity": 0.33858267716535434,
                    "duration": 0.10880216666669185
                },
                {
                    "name": "C2",
                    "midi": 36,
                    "time": 474.595051000007,
                    "velocity": 0.4645669291338583,
                    "duration": 0.10880216666669185
                },
                {
                    "name": "C3",
                    "midi": 48,
                    "time": 474.7038531666737,
                    "velocity": 0.3543307086614173,
                    "duration": 0.10880216666669185
                },
                {
                    "name": "E3",
                    "midi": 52,
                    "time": 474.8126553333404,
                    "velocity": 0.3543307086614173,
                    "duration": 0.10880216666669185
                },
                {
                    "name": "G3",
                    "midi": 55,
                    "time": 474.9214575000071,
                    "velocity": 0.4015748031496063,
                    "duration": 0.10880216666669185
                },
                {
                    "name": "E3",
                    "midi": 52,
                    "time": 475.03025966667377,
                    "velocity": 0.36220472440944884,
                    "duration": 0.10880216666669185
                },
                {
                    "name": "C3",
                    "midi": 48,
                    "time": 475.13906183334046,
                    "velocity": 0.36220472440944884,
                    "duration": 0.10880216666669185
                },
                {
                    "name": "G2",
                    "midi": 43,
                    "time": 475.24786400000716,
                    "velocity": 0.4015748031496063,
                    "duration": 0.10880216666669185
                },
                {
                    "name": "B2",
                    "midi": 47,
                    "time": 475.35666616667385,
                    "velocity": 0.36220472440944884,
                    "duration": 0.10880216666669185
                },
                {
                    "name": "D3",
                    "midi": 50,
                    "time": 475.46546833334054,
                    "velocity": 0.36220472440944884,
                    "duration": 0.10880216666669185
                },
                {
                    "name": "G3",
                    "midi": 55,
                    "time": 475.57427050000723,
                    "velocity": 0.4015748031496063,
                    "duration": 0.10880216666669185
                },
                {
                    "name": "D3",
                    "midi": 50,
                    "time": 475.6830726666739,
                    "velocity": 0.3543307086614173,
                    "duration": 0.10880216666669185
                },
                {
                    "name": "B2",
                    "midi": 47,
                    "time": 475.7918748333406,
                    "velocity": 0.3543307086614173,
                    "duration": 0.10880216666669185
                },
                {
                    "name": "D2",
                    "midi": 38,
                    "time": 475.9006770000073,
                    "velocity": 0.4645669291338583,
                    "duration": 0.10880216666669185
                },
                {
                    "name": "D3",
                    "midi": 50,
                    "time": 476.009479166674,
                    "velocity": 0.3543307086614173,
                    "duration": 0.10880216666669185
                },
                {
                    "name": "F3",
                    "midi": 53,
                    "time": 476.1182813333407,
                    "velocity": 0.3543307086614173,
                    "duration": 0.10880216666669185
                },
                {
                    "name": "A3",
                    "midi": 57,
                    "time": 476.2270835000074,
                    "velocity": 0.4015748031496063,
                    "duration": 0.10880216666669185
                },
                {
                    "name": "F3",
                    "midi": 53,
                    "time": 476.3358856666741,
                    "velocity": 0.36220472440944884,
                    "duration": 0.10880216666669185
                },
                {
                    "name": "D3",
                    "midi": 50,
                    "time": 476.44468783334077,
                    "velocity": 0.36220472440944884,
                    "duration": 0.10880216666669185
                },
                {
                    "name": "A2",
                    "midi": 45,
                    "time": 476.55349000000746,
                    "velocity": 0.4015748031496063,
                    "duration": 0.10880216666669185
                },
                {
                    "name": "C3",
                    "midi": 48,
                    "time": 476.66229216667415,
                    "velocity": 0.36220472440944884,
                    "duration": 0.10880216666669185
                },
                {
                    "name": "E3",
                    "midi": 52,
                    "time": 476.77109433334084,
                    "velocity": 0.36220472440944884,
                    "duration": 0.10880216666669185
                },
                {
                    "name": "A3",
                    "midi": 57,
                    "time": 476.87989650000753,
                    "velocity": 0.4015748031496063,
                    "duration": 0.10880216666669185
                },
                {
                    "name": "E3",
                    "midi": 52,
                    "time": 476.9886986666742,
                    "velocity": 0.3543307086614173,
                    "duration": 0.10880216666669185
                },
                {
                    "name": "C3",
                    "midi": 48,
                    "time": 477.0975008333409,
                    "velocity": 0.3543307086614173,
                    "duration": 0.10880216666669185
                },
                {
                    "name": "A2",
                    "midi": 45,
                    "time": 477.2063030000076,
                    "velocity": 0.4645669291338583,
                    "duration": 0.10880216666669185
                },
                {
                    "name": "C3",
                    "midi": 48,
                    "time": 477.3151051666743,
                    "velocity": 0.3543307086614173,
                    "duration": 0.10880216666669185
                },
                {
                    "name": "E3",
                    "midi": 52,
                    "time": 477.423907333341,
                    "velocity": 0.3543307086614173,
                    "duration": 0.10880216666669185
                },
                {
                    "name": "A3",
                    "midi": 57,
                    "time": 477.5327095000077,
                    "velocity": 0.4015748031496063,
                    "duration": 0.10880216666669185
                },
                {
                    "name": "E3",
                    "midi": 52,
                    "time": 477.6415116666744,
                    "velocity": 0.36220472440944884,
                    "duration": 0.10880216666669185
                },
                {
                    "name": "C3",
                    "midi": 48,
                    "time": 477.75031383334107,
                    "velocity": 0.36220472440944884,
                    "duration": 0.10880216666669185
                },
                {
                    "name": "D2",
                    "midi": 38,
                    "time": 477.85911600000776,
                    "velocity": 0.4015748031496063,
                    "duration": 0.10880216666669185
                },
                {
                    "name": "A2",
                    "midi": 45,
                    "time": 477.96791816667445,
                    "velocity": 0.36220472440944884,
                    "duration": 0.10880216666669185
                },
                {
                    "name": "C3",
                    "midi": 48,
                    "time": 478.07672033334114,
                    "velocity": 0.36220472440944884,
                    "duration": 0.10880216666669185
                },
                {
                    "name": "D3",
                    "midi": 50,
                    "time": 478.18552250000783,
                    "velocity": 0.4015748031496063,
                    "duration": 0.10880216666669185
                },
                {
                    "name": "C3",
                    "midi": 48,
                    "time": 478.2943246666745,
                    "velocity": 0.3543307086614173,
                    "duration": 0.10880216666669185
                },
                {
                    "name": "A2",
                    "midi": 45,
                    "time": 478.4031268333412,
                    "velocity": 0.3543307086614173,
                    "duration": 0.10880216666669185
                },
                {
                    "name": "D2",
                    "midi": 38,
                    "time": 478.5119290000079,
                    "velocity": 0.4645669291338583,
                    "duration": 0.10880216666669185
                },
                {
                    "name": "A2",
                    "midi": 45,
                    "time": 478.6207311666746,
                    "velocity": 0.3543307086614173,
                    "duration": 0.10880216666669185
                },
                {
                    "name": "C3",
                    "midi": 48,
                    "time": 478.7295333333413,
                    "velocity": 0.3543307086614173,
                    "duration": 0.10880216666669185
                },
                {
                    "name": "D3",
                    "midi": 50,
                    "time": 478.838335500008,
                    "velocity": 0.4015748031496063,
                    "duration": 0.10880216666669185
                },
                {
                    "name": "C3",
                    "midi": 48,
                    "time": 478.9471376666747,
                    "velocity": 0.36220472440944884,
                    "duration": 0.10880216666669185
                },
                {
                    "name": "A2",
                    "midi": 45,
                    "time": 479.05593983334137,
                    "velocity": 0.36220472440944884,
                    "duration": 0.10880216666669185
                },
                {
                    "name": "G2",
                    "midi": 43,
                    "time": 479.16474200000806,
                    "velocity": 0.4015748031496063,
                    "duration": 0.10880216666669185
                },
                {
                    "name": "D3",
                    "midi": 50,
                    "time": 479.27354416667475,
                    "velocity": 0.3464566929133858,
                    "duration": 0.10880216666669185
                },
                {
                    "name": "G3",
                    "midi": 55,
                    "time": 479.38234633334145,
                    "velocity": 0.3464566929133858,
                    "duration": 0.10880216666669185
                },
                {
                    "name": "G2",
                    "midi": 43,
                    "time": 479.49114850000814,
                    "velocity": 0.3937007874015748,
                    "duration": 0.10880216666669185
                },
                {
                    "name": "B2",
                    "midi": 47,
                    "time": 479.59995066667483,
                    "velocity": 0.33858267716535434,
                    "duration": 0.10880216666669185
                },
                {
                    "name": "G3",
                    "midi": 55,
                    "time": 479.7087528333415,
                    "velocity": 0.33858267716535434,
                    "duration": 0.10880216666669185
                },
                {
                    "name": "G2",
                    "midi": 43,
                    "time": 479.8175550000082,
                    "velocity": 0.4645669291338583,
                    "duration": 0.10880216666669185
                },
                {
                    "name": "C3",
                    "midi": 48,
                    "time": 479.9263571666749,
                    "velocity": 0.3543307086614173,
                    "duration": 0.10880216666669185
                },
                {
                    "name": "D3",
                    "midi": 50,
                    "time": 480.0351593333416,
                    "velocity": 0.3543307086614173,
                    "duration": 0.10880216666669185
                },
                {
                    "name": "G2",
                    "midi": 43,
                    "time": 480.1439615000083,
                    "velocity": 0.4015748031496063,
                    "duration": 0.10880216666669185
                },
                {
                    "name": "C3",
                    "midi": 48,
                    "time": 480.252763666675,
                    "velocity": 0.36220472440944884,
                    "duration": 0.10880216666669185
                },
                {
                    "name": "D3",
                    "midi": 50,
                    "time": 480.3615658333417,
                    "velocity": 0.36220472440944884,
                    "duration": 0.10880216666669185
                },
                {
                    "name": "G2",
                    "midi": 43,
                    "time": 480.47036800000836,
                    "velocity": 0.4015748031496063,
                    "duration": 0.10880216666669185
                },
                {
                    "name": "B2",
                    "midi": 47,
                    "time": 480.57917016667506,
                    "velocity": 0.36220472440944884,
                    "duration": 0.10880216666669185
                },
                {
                    "name": "D3",
                    "midi": 50,
                    "time": 480.68797233334175,
                    "velocity": 0.36220472440944884,
                    "duration": 0.10880216666669185
                },
                {
                    "name": "G2",
                    "midi": 43,
                    "time": 480.79677450000844,
                    "velocity": 0.4015748031496063,
                    "duration": 0.10880216666669185
                },
                {
                    "name": "B2",
                    "midi": 47,
                    "time": 480.90557666667513,
                    "velocity": 0.3543307086614173,
                    "duration": 0.10880216666669185
                },
                {
                    "name": "D3",
                    "midi": 50,
                    "time": 481.0143788333418,
                    "velocity": 0.3543307086614173,
                    "duration": 0.10880216666669185
                },
                {
                    "name": "G2",
                    "midi": 43,
                    "time": 481.1231810000085,
                    "velocity": 0.4645669291338583,
                    "duration": 0.10880216666669185
                },
                {
                    "name": "C3",
                    "midi": 48,
                    "time": 481.2319831666752,
                    "velocity": 0.3543307086614173,
                    "duration": 0.10880216666669185
                },
                {
                    "name": "D3",
                    "midi": 50,
                    "time": 481.3407853333419,
                    "velocity": 0.3543307086614173,
                    "duration": 0.10880216666669185
                },
                {
                    "name": "G2",
                    "midi": 43,
                    "time": 481.4495875000086,
                    "velocity": 0.4015748031496063,
                    "duration": 0.10880216666669185
                },
                {
                    "name": "C3",
                    "midi": 48,
                    "time": 481.5583896666753,
                    "velocity": 0.36220472440944884,
                    "duration": 0.10880216666669185
                },
                {
                    "name": "D3",
                    "midi": 50,
                    "time": 481.667191833342,
                    "velocity": 0.36220472440944884,
                    "duration": 0.10880216666669185
                },
                {
                    "name": "G2",
                    "midi": 43,
                    "time": 481.77599400000867,
                    "velocity": 0.4566929133858268,
                    "duration": 0.10880216666669185
                },
                {
                    "name": "B2",
                    "midi": 47,
                    "time": 481.88479616667536,
                    "velocity": 0.3464566929133858,
                    "duration": 0.10880216666669185
                },
                {
                    "name": "D3",
                    "midi": 50,
                    "time": 481.99359833334205,
                    "velocity": 0.3464566929133858,
                    "duration": 0.10880216666669185
                },
                {
                    "name": "G2",
                    "midi": 43,
                    "time": 482.10240050000874,
                    "velocity": 0.3937007874015748,
                    "duration": 0.10880216666669185
                },
                {
                    "name": "B2",
                    "midi": 47,
                    "time": 482.21120266667543,
                    "velocity": 0.33858267716535434,
                    "duration": 0.10880216666669185
                },
                {
                    "name": "D3",
                    "midi": 50,
                    "time": 482.3200048333421,
                    "velocity": 0.33858267716535434,
                    "duration": 0.10880216666669185
                },
                {
                    "name": "G2",
                    "midi": 43,
                    "time": 482.4288070000088,
                    "velocity": 0.31496062992125984,
                    "duration": 0.10880216666669185
                },
                {
                    "name": "C3",
                    "midi": 48,
                    "time": 482.5376091666755,
                    "velocity": 0.23622047244094488,
                    "duration": 0.10880216666669185
                },
                {
                    "name": "D3",
                    "midi": 50,
                    "time": 482.6464113333422,
                    "velocity": 0.23622047244094488,
                    "duration": 0.10880216666669185
                },
                {
                    "name": "A3",
                    "midi": 57,
                    "time": 482.7552135000089,
                    "velocity": 0.2677165354330709,
                    "duration": 0.10880216666669185
                },
                {
                    "name": "D3",
                    "midi": 50,
                    "time": 482.8640156666756,
                    "velocity": 0.2440944881889764,
                    "duration": 0.10880216666669185
                },
                {
                    "name": "C3",
                    "midi": 48,
                    "time": 482.9728178333423,
                    "velocity": 0.2440944881889764,
                    "duration": 0.10880216666669185
                },
                {
                    "name": "G2",
                    "midi": 43,
                    "time": 483.08162000000897,
                    "velocity": 0.2755905511811024,
                    "duration": 0.10880216666669185
                },
                {
                    "name": "B2",
                    "midi": 47,
                    "time": 483.19042216667566,
                    "velocity": 0.2440944881889764,
                    "duration": 0.10880216666669185
                },
                {
                    "name": "D3",
                    "midi": 50,
                    "time": 483.29922433334235,
                    "velocity": 0.2440944881889764,
                    "duration": 0.10880216666669185
                },
                {
                    "name": "G3",
                    "midi": 55,
                    "time": 483.40802650000904,
                    "velocity": 0.2677165354330709,
                    "duration": 0.10880216666669185
                },
                {
                    "name": "D3",
                    "midi": 50,
                    "time": 483.51682866667574,
                    "velocity": 0.23622047244094488,
                    "duration": 0.10880216666669185
                },
                {
                    "name": "B2",
                    "midi": 47,
                    "time": 483.6256308333424,
                    "velocity": 0.23622047244094488,
                    "duration": 0.10880216666669185
                },
                {
                    "name": "G2",
                    "midi": 43,
                    "time": 483.7344330000091,
                    "velocity": 0.31496062992125984,
                    "duration": 0.10880216666669185
                },
                {
                    "name": "C3",
                    "midi": 48,
                    "time": 483.8432351666758,
                    "velocity": 0.23622047244094488,
                    "duration": 0.10880216666669185
                },
                {
                    "name": "D3",
                    "midi": 50,
                    "time": 483.9520373333425,
                    "velocity": 0.23622047244094488,
                    "duration": 0.10880216666669185
                },
                {
                    "name": "A3",
                    "midi": 57,
                    "time": 484.0608395000092,
                    "velocity": 0.2677165354330709,
                    "duration": 0.10880216666669185
                },
                {
                    "name": "D3",
                    "midi": 50,
                    "time": 484.1696416666759,
                    "velocity": 0.2440944881889764,
                    "duration": 0.10880216666669185
                },
                {
                    "name": "C3",
                    "midi": 48,
                    "time": 484.2784438333426,
                    "velocity": 0.2440944881889764,
                    "duration": 0.10880216666669185
                },
                {
                    "name": "G2",
                    "midi": 43,
                    "time": 484.38724600000927,
                    "velocity": 0.30708661417322836,
                    "duration": 0.10880216666669185
                },
                {
                    "name": "B2",
                    "midi": 47,
                    "time": 484.49604816667596,
                    "velocity": 0.23622047244094488,
                    "duration": 0.10880216666669185
                },
                {
                    "name": "D3",
                    "midi": 50,
                    "time": 484.60485033334265,
                    "velocity": 0.23622047244094488,
                    "duration": 0.10880216666669185
                },
                {
                    "name": "G3",
                    "midi": 55,
                    "time": 484.71365250000935,
                    "velocity": 0.2677165354330709,
                    "duration": 0.10880216666669185
                },
                {
                    "name": "D3",
                    "midi": 50,
                    "time": 484.82245466667604,
                    "velocity": 0.2283464566929134,
                    "duration": 0.10880216666669185
                },
                {
                    "name": "B2",
                    "midi": 47,
                    "time": 484.93125683334273,
                    "velocity": 0.2283464566929134,
                    "duration": 0.10880216666669185
                },
                {
                    "name": "G2",
                    "midi": 43,
                    "time": 485.0400590000094,
                    "velocity": 0.5118110236220472,
                    "duration": 0.10880216666669185
                },
                {
                    "name": "C3",
                    "midi": 48,
                    "time": 485.1488611666761,
                    "velocity": 0.3858267716535433,
                    "duration": 0.10880216666669185
                },
                {
                    "name": "D3",
                    "midi": 50,
                    "time": 485.2576633333428,
                    "velocity": 0.3858267716535433,
                    "duration": 0.10880216666669185
                },
                {
                    "name": "G2",
                    "midi": 43,
                    "time": 485.3664655000095,
                    "velocity": 0.4409448818897638,
                    "duration": 0.10880216666669185
                },
                {
                    "name": "C3",
                    "midi": 48,
                    "time": 485.4752676666762,
                    "velocity": 0.4015748031496063,
                    "duration": 0.10880216666669185
                },
                {
                    "name": "D3",
                    "midi": 50,
                    "time": 485.5840698333429,
                    "velocity": 0.4015748031496063,
                    "duration": 0.10880216666669185
                },
                {
                    "name": "G2",
                    "midi": 43,
                    "time": 485.6928720000096,
                    "velocity": 0.4409448818897638,
                    "duration": 0.10880216666669185
                },
                {
                    "name": "B2",
                    "midi": 47,
                    "time": 485.80167416667626,
                    "velocity": 0.4015748031496063,
                    "duration": 0.10880216666669185
                },
                {
                    "name": "D3",
                    "midi": 50,
                    "time": 485.91047633334296,
                    "velocity": 0.4015748031496063,
                    "duration": 0.10880216666669185
                },
                {
                    "name": "G2",
                    "midi": 43,
                    "time": 486.01927850000965,
                    "velocity": 0.4409448818897638,
                    "duration": 0.10880216666669185
                },
                {
                    "name": "B2",
                    "midi": 47,
                    "time": 486.12808066667634,
                    "velocity": 0.3858267716535433,
                    "duration": 0.10880216666669185
                },
                {
                    "name": "D3",
                    "midi": 50,
                    "time": 486.23688283334303,
                    "velocity": 0.3858267716535433,
                    "duration": 0.10880216666669185
                },
                {
                    "name": "G2",
                    "midi": 43,
                    "time": 486.3456850000097,
                    "velocity": 0.5118110236220472,
                    "duration": 0.10880216666669185
                },
                {
                    "name": "C3",
                    "midi": 48,
                    "time": 486.4544871666764,
                    "velocity": 0.3858267716535433,
                    "duration": 0.10880216666669185
                },
                {
                    "name": "D3",
                    "midi": 50,
                    "time": 486.5632893333431,
                    "velocity": 0.3858267716535433,
                    "duration": 0.10880216666669185
                },
                {
                    "name": "G2",
                    "midi": 43,
                    "time": 486.6720915000098,
                    "velocity": 0.4409448818897638,
                    "duration": 0.10880216666669185
                },
                {
                    "name": "C3",
                    "midi": 48,
                    "time": 486.7808936666765,
                    "velocity": 0.4015748031496063,
                    "duration": 0.10880216666669185
                },
                {
                    "name": "D3",
                    "midi": 50,
                    "time": 486.8896958333432,
                    "velocity": 0.4015748031496063,
                    "duration": 0.10880216666669185
                },
                {
                    "name": "G2",
                    "midi": 43,
                    "time": 486.9984980000099,
                    "velocity": 0.49606299212598426,
                    "duration": 0.10880216666669185
                },
                {
                    "name": "B2",
                    "midi": 47,
                    "time": 487.10730016667657,
                    "velocity": 0.3779527559055118,
                    "duration": 0.10880216666669185
                },
                {
                    "name": "D3",
                    "midi": 50,
                    "time": 487.21610233334326,
                    "velocity": 0.3779527559055118,
                    "duration": 0.10880216666669185
                },
                {
                    "name": "G2",
                    "midi": 43,
                    "time": 487.32490450000995,
                    "velocity": 0.4251968503937008,
                    "duration": 0.10880216666669185
                },
                {
                    "name": "B2",
                    "midi": 47,
                    "time": 487.43370666667664,
                    "velocity": 0.3700787401574803,
                    "duration": 0.10880216666669185
                },
                {
                    "name": "D3",
                    "midi": 50,
                    "time": 487.54250883334333,
                    "velocity": 0.3700787401574803,
                    "duration": 0.10880216666669185
                },
                {
                    "name": "G2",
                    "midi": 43,
                    "time": 487.65131100001,
                    "velocity": 0.31496062992125984,
                    "duration": 0.10880216666669185
                },
                {
                    "name": "C3",
                    "midi": 48,
                    "time": 487.7601131666767,
                    "velocity": 0.23622047244094488,
                    "duration": 0.10880216666669185
                },
                {
                    "name": "D3",
                    "midi": 50,
                    "time": 487.8689153333434,
                    "velocity": 0.23622047244094488,
                    "duration": 0.10880216666669185
                },
                {
                    "name": "A3",
                    "midi": 57,
                    "time": 487.9777175000101,
                    "velocity": 0.2677165354330709,
                    "duration": 0.10880216666669185
                },
                {
                    "name": "D3",
                    "midi": 50,
                    "time": 488.0865196666768,
                    "velocity": 0.2440944881889764,
                    "duration": 0.10880216666669185
                },
                {
                    "name": "C3",
                    "midi": 48,
                    "time": 488.1953218333435,
                    "velocity": 0.2440944881889764,
                    "duration": 0.10880216666669185
                },
                {
                    "name": "G2",
                    "midi": 43,
                    "time": 488.3041240000102,
                    "velocity": 0.2755905511811024,
                    "duration": 0.10880216666669185
                },
                {
                    "name": "B2",
                    "midi": 47,
                    "time": 488.41292616667687,
                    "velocity": 0.2440944881889764,
                    "duration": 0.10880216666669185
                },
                {
                    "name": "D3",
                    "midi": 50,
                    "time": 488.52172833334356,
                    "velocity": 0.2440944881889764,
                    "duration": 0.10880216666669185
                },
                {
                    "name": "G3",
                    "midi": 55,
                    "time": 488.63053050001025,
                    "velocity": 0.2677165354330709,
                    "duration": 0.10880216666669185
                },
                {
                    "name": "D3",
                    "midi": 50,
                    "time": 488.73933266667694,
                    "velocity": 0.23622047244094488,
                    "duration": 0.10880216666669185
                },
                {
                    "name": "B2",
                    "midi": 47,
                    "time": 488.84813483334364,
                    "velocity": 0.23622047244094488,
                    "duration": 0.10880216666669185
                },
                {
                    "name": "G2",
                    "midi": 43,
                    "time": 488.9569370000103,
                    "velocity": 0.31496062992125984,
                    "duration": 0.10880216666669185
                },
                {
                    "name": "C3",
                    "midi": 48,
                    "time": 489.065739166677,
                    "velocity": 0.23622047244094488,
                    "duration": 0.10880216666669185
                },
                {
                    "name": "D3",
                    "midi": 50,
                    "time": 489.1745413333437,
                    "velocity": 0.23622047244094488,
                    "duration": 0.10880216666669185
                },
                {
                    "name": "A3",
                    "midi": 57,
                    "time": 489.2833435000104,
                    "velocity": 0.2677165354330709,
                    "duration": 0.10880216666669185
                },
                {
                    "name": "D3",
                    "midi": 50,
                    "time": 489.3921456666771,
                    "velocity": 0.2440944881889764,
                    "duration": 0.10880216666669185
                },
                {
                    "name": "C3",
                    "midi": 48,
                    "time": 489.5009478333438,
                    "velocity": 0.2440944881889764,
                    "duration": 0.10880216666669185
                },
                {
                    "name": "G2",
                    "midi": 43,
                    "time": 489.6097500000105,
                    "velocity": 0.33858267716535434,
                    "duration": 0.10880216666669185
                },
                {
                    "name": "B2",
                    "midi": 47,
                    "time": 489.71855216667717,
                    "velocity": 0.25984251968503935,
                    "duration": 0.10880216666669185
                },
                {
                    "name": "D3",
                    "midi": 50,
                    "time": 489.82735433334386,
                    "velocity": 0.2677165354330709,
                    "duration": 0.10880216666669185
                },
                {
                    "name": "G3",
                    "midi": 55,
                    "time": 489.93615650001055,
                    "velocity": 0.30708661417322836,
                    "duration": 0.10880216666669185
                },
                {
                    "name": "D3",
                    "midi": 50,
                    "time": 490.04495866667725,
                    "velocity": 0.2677165354330709,
                    "duration": 0.10880216666669185
                },
                {
                    "name": "B2",
                    "midi": 47,
                    "time": 490.15376083334394,
                    "velocity": 0.2755905511811024,
                    "duration": 0.10880216666669185
                },
                {
                    "name": "G2",
                    "midi": 43,
                    "time": 490.26256300001063,
                    "velocity": 0.3937007874015748,
                    "duration": 0.10880216666669185
                },
                {
                    "name": "C3",
                    "midi": 48,
                    "time": 490.3713651666773,
                    "velocity": 0.2992125984251969,
                    "duration": 0.10880216666669185
                },
                {
                    "name": "D3",
                    "midi": 50,
                    "time": 490.480167333344,
                    "velocity": 0.30708661417322836,
                    "duration": 0.10880216666669185
                },
                {
                    "name": "A3",
                    "midi": 57,
                    "time": 490.5889695000107,
                    "velocity": 0.3543307086614173,
                    "duration": 0.10880216666669185
                },
                {
                    "name": "D3",
                    "midi": 50,
                    "time": 490.6977716666774,
                    "velocity": 0.33070866141732286,
                    "duration": 0.10880216666669185
                },
                {
                    "name": "C3",
                    "midi": 48,
                    "time": 490.8065738333441,
                    "velocity": 0.33858267716535434,
                    "duration": 0.10880216666669185
                },
                {
                    "name": "G2",
                    "midi": 43,
                    "time": 490.9153760000108,
                    "velocity": 0.3937007874015748,
                    "duration": 0.10880216666669185
                },
                {
                    "name": "B2",
                    "midi": 47,
                    "time": 491.0241781666775,
                    "velocity": 0.3464566929133858,
                    "duration": 0.10880216666669185
                },
                {
                    "name": "D3",
                    "midi": 50,
                    "time": 491.13298033334416,
                    "velocity": 0.3543307086614173,
                    "duration": 0.10880216666669185
                },
                {
                    "name": "G3",
                    "midi": 55,
                    "time": 491.24178250001086,
                    "velocity": 0.4015748031496063,
                    "duration": 0.10880216666669185
                },
                {
                    "name": "D3",
                    "midi": 50,
                    "time": 491.35058466667755,
                    "velocity": 0.3543307086614173,
                    "duration": 0.10880216666669185
                },
                {
                    "name": "B2",
                    "midi": 47,
                    "time": 491.45938683334424,
                    "velocity": 0.3700787401574803,
                    "duration": 0.10880216666669185
                },
                {
                    "name": "G2",
                    "midi": 43,
                    "time": 491.56818900001093,
                    "velocity": 0.5039370078740157,
                    "duration": 0.10880216666669185
                },
                {
                    "name": "C3",
                    "midi": 48,
                    "time": 491.6769911666776,
                    "velocity": 0.3858267716535433,
                    "duration": 0.10880216666669185
                },
                {
                    "name": "D3",
                    "midi": 50,
                    "time": 491.7857933333443,
                    "velocity": 0.3937007874015748,
                    "duration": 0.10880216666669185
                },
                {
                    "name": "A3",
                    "midi": 57,
                    "time": 491.894595500011,
                    "velocity": 0.44881889763779526,
                    "duration": 0.10880216666669185
                },
                {
                    "name": "D3",
                    "midi": 50,
                    "time": 492.0033976666777,
                    "velocity": 0.41732283464566927,
                    "duration": 0.10880216666669185
                },
                {
                    "name": "C3",
                    "midi": 48,
                    "time": 492.1121998333444,
                    "velocity": 0.4251968503937008,
                    "duration": 0.10880216666669185
                },
                {
                    "name": "G2",
                    "midi": 43,
                    "time": 492.2210020000111,
                    "velocity": 0.5354330708661418,
                    "duration": 0.3264065000000187
                },
                {
                    "name": "B2",
                    "midi": 47,
                    "time": 492.2210020000111,
                    "velocity": 0.5354330708661418,
                    "duration": 0.3264065000000187
                },
                {
                    "name": "D3",
                    "midi": 50,
                    "time": 492.2210020000111,
                    "velocity": 0.5354330708661418,
                    "duration": 0.3264065000000187
                },
                {
                    "name": "G3",
                    "midi": 55,
                    "time": 492.2210020000111,
                    "velocity": 0.6299212598425197,
                    "duration": 0.3264065000000187
                },
                {
                    "name": "G2",
                    "midi": 43,
                    "time": 494.1794410000111,
                    "velocity": 0.6141732283464567,
                    "duration": 0.3264065000000187
                },
                {
                    "name": "B2",
                    "midi": 47,
                    "time": 494.1794410000111,
                    "velocity": 0.6141732283464567,
                    "duration": 0.3264065000000187
                },
                {
                    "name": "D3",
                    "midi": 50,
                    "time": 494.1794410000111,
                    "velocity": 0.6141732283464567,
                    "duration": 0.3264065000000187
                },
                {
                    "name": "G3",
                    "midi": 55,
                    "time": 494.1794410000111,
                    "velocity": 0.7244094488188977,
                    "duration": 0.3264065000000187
                },
                {
                    "name": "G1",
                    "midi": 31,
                    "time": 494.8322540000111,
                    "velocity": 0.6692913385826772,
                    "duration": 0.3264065000000187
                },
                {
                    "name": "G2",
                    "midi": 43,
                    "time": 494.8322540000111,
                    "velocity": 0.7952755905511811,
                    "duration": 0.3264065000000187
                },
                {
                    "name": "G2",
                    "midi": 43,
                    "time": 496.8097333791778,
                    "velocity": 0.6141732283464567,
                    "duration": 0.3264065000000187
                },
                {
                    "name": "B2",
                    "midi": 47,
                    "time": 496.8097333791778,
                    "velocity": 0.6141732283464567,
                    "duration": 0.3264065000000187
                },
                {
                    "name": "D3",
                    "midi": 50,
                    "time": 496.8097333791778,
                    "velocity": 0.6141732283464567,
                    "duration": 0.3264065000000187
                },
                {
                    "name": "G3",
                    "midi": 55,
                    "time": 496.8097333791778,
                    "velocity": 0.7244094488188977,
                    "duration": 0.3264065000000187
                },
                {
                    "name": "G1",
                    "midi": 31,
                    "time": 497.46254637917787,
                    "velocity": 0.6692913385826772,
                    "duration": 0.3264065000000187
                },
                {
                    "name": "G2",
                    "midi": 43,
                    "time": 497.46254637917787,
                    "velocity": 0.7952755905511811,
                    "duration": 0.3264065000000187
                },
                {
                    "name": "G2",
                    "midi": 43,
                    "time": 499.42098537917786,
                    "velocity": 0.6141732283464567,
                    "duration": 0.3264065000000187
                },
                {
                    "name": "B2",
                    "midi": 47,
                    "time": 499.42098537917786,
                    "velocity": 0.6141732283464567,
                    "duration": 0.3264065000000187
                },
                {
                    "name": "D3",
                    "midi": 50,
                    "time": 499.42098537917786,
                    "velocity": 0.6141732283464567,
                    "duration": 0.3264065000000187
                },
                {
                    "name": "G3",
                    "midi": 55,
                    "time": 499.42098537917786,
                    "velocity": 0.7244094488188977,
                    "duration": 0.3264065000000187
                },
                {
                    "name": "G1",
                    "midi": 31,
                    "time": 500.0737983791779,
                    "velocity": 0.6692913385826772,
                    "duration": 0.3264065000000187
                },
                {
                    "name": "G2",
                    "midi": 43,
                    "time": 500.0737983791779,
                    "velocity": 0.7952755905511811,
                    "duration": 0.3264065000000187
                },
                {
                    "name": "G2",
                    "midi": 43,
                    "time": 502.0322373791779,
                    "velocity": 0.6141732283464567,
                    "duration": 0.3264065000000187
                },
                {
                    "name": "B2",
                    "midi": 47,
                    "time": 502.0322373791779,
                    "velocity": 0.6141732283464567,
                    "duration": 0.3264065000000187
                },
                {
                    "name": "D3",
                    "midi": 50,
                    "time": 502.0322373791779,
                    "velocity": 0.6141732283464567,
                    "duration": 0.3264065000000187
                },
                {
                    "name": "G3",
                    "midi": 55,
                    "time": 502.0322373791779,
                    "velocity": 0.7244094488188977,
                    "duration": 0.3264065000000187
                },
                {
                    "name": "G1",
                    "midi": 31,
                    "time": 502.68505037917794,
                    "velocity": 0.5984251968503937,
                    "duration": 0.3264065000000187
                },
                {
                    "name": "G2",
                    "midi": 43,
                    "time": 502.68505037917794,
                    "velocity": 0.7086614173228346,
                    "duration": 0.3264065000000187
                },
                {
                    "name": "F4",
                    "midi": 65,
                    "time": 503.9716360000113,
                    "velocity": 0.5039370078740157,
                    "duration": 0.3264065000000187
                },
                {
                    "name": "D4",
                    "midi": 62,
                    "time": 503.9716360000113,
                    "velocity": 0.4251968503937008,
                    "duration": 0.3264065000000187
                },
                {
                    "name": "B3",
                    "midi": 59,
                    "time": 503.9716360000113,
                    "velocity": 0.4251968503937008,
                    "duration": 0.3264065000000187
                },
                {
                    "name": "G3",
                    "midi": 55,
                    "time": 503.9716360000113,
                    "velocity": 0.4251968503937008,
                    "duration": 0.3264065000000187
                },
                {
                    "name": "F4",
                    "midi": 65,
                    "time": 505.2772620000113,
                    "velocity": 0.4566929133858268,
                    "duration": 0.3264065000000187
                },
                {
                    "name": "D4",
                    "midi": 62,
                    "time": 505.2772620000113,
                    "velocity": 0.3858267716535433,
                    "duration": 0.3264065000000187
                },
                {
                    "name": "B3",
                    "midi": 59,
                    "time": 505.2772620000113,
                    "velocity": 0.3858267716535433,
                    "duration": 0.3264065000000187
                },
                {
                    "name": "G3",
                    "midi": 55,
                    "time": 505.2772620000113,
                    "velocity": 0.3858267716535433,
                    "duration": 0.3264065000000187
                },
                {
                    "name": "F4",
                    "midi": 65,
                    "time": 506.58288800001134,
                    "velocity": 0.4015748031496063,
                    "duration": 0.3264065000000187
                },
                {
                    "name": "D4",
                    "midi": 62,
                    "time": 506.58288800001134,
                    "velocity": 0.33858267716535434,
                    "duration": 0.3264065000000187
                },
                {
                    "name": "B3",
                    "midi": 59,
                    "time": 506.58288800001134,
                    "velocity": 0.33858267716535434,
                    "duration": 0.3264065000000187
                },
                {
                    "name": "G3",
                    "midi": 55,
                    "time": 506.58288800001134,
                    "velocity": 0.33858267716535434,
                    "duration": 0.3264065000000187
                },
                {
                    "name": "G3",
                    "midi": 55,
                    "time": 507.88851400001136,
                    "velocity": 0.31496062992125984,
                    "duration": 0.3264065000000187
                },
                {
                    "name": "B3",
                    "midi": 59,
                    "time": 507.88851400001136,
                    "velocity": 0.31496062992125984,
                    "duration": 0.3264065000000187
                },
                {
                    "name": "D4",
                    "midi": 62,
                    "time": 507.88851400001136,
                    "velocity": 0.31496062992125984,
                    "duration": 0.3264065000000187
                },
                {
                    "name": "F4",
                    "midi": 65,
                    "time": 507.88851400001136,
                    "velocity": 0.3779527559055118,
                    "duration": 0.3264065000000187
                },
                {
                    "name": "G2",
                    "midi": 43,
                    "time": 509.1941400000114,
                    "velocity": 0.25196850393700787,
                    "duration": 0.3264065000000187
                },
                {
                    "name": "B2",
                    "midi": 47,
                    "time": 509.1941400000114,
                    "velocity": 0.25196850393700787,
                    "duration": 0.3264065000000187
                },
                {
                    "name": "D3",
                    "midi": 50,
                    "time": 509.1941400000114,
                    "velocity": 0.25196850393700787,
                    "duration": 0.3264065000000187
                },
                {
                    "name": "F3",
                    "midi": 53,
                    "time": 509.1941400000114,
                    "velocity": 0.2992125984251969,
                    "duration": 0.3264065000000187
                },
                {
                    "name": "G2",
                    "midi": 43,
                    "time": 510.4997660000114,
                    "velocity": 0.23622047244094488,
                    "duration": 0.3264065000000187
                },
                {
                    "name": "B2",
                    "midi": 47,
                    "time": 510.4997660000114,
                    "velocity": 0.23622047244094488,
                    "duration": 0.3264065000000187
                },
                {
                    "name": "D3",
                    "midi": 50,
                    "time": 510.4997660000114,
                    "velocity": 0.23622047244094488,
                    "duration": 0.3264065000000187
                },
                {
                    "name": "F3",
                    "midi": 53,
                    "time": 510.4997660000114,
                    "velocity": 0.28346456692913385,
                    "duration": 0.3264065000000187
                },
                {
                    "name": "G2",
                    "midi": 43,
                    "time": 511.8053920000114,
                    "velocity": 0.2204724409448819,
                    "duration": 0.3264065000000187
                },
                {
                    "name": "B2",
                    "midi": 47,
                    "time": 511.8053920000114,
                    "velocity": 0.2204724409448819,
                    "duration": 0.3264065000000187
                },
                {
                    "name": "D3",
                    "midi": 50,
                    "time": 511.8053920000114,
                    "velocity": 0.2204724409448819,
                    "duration": 0.3264065000000187
                },
                {
                    "name": "F3",
                    "midi": 53,
                    "time": 511.8053920000114,
                    "velocity": 0.2677165354330709,
                    "duration": 0.3264065000000187
                },
                {
                    "name": "G2",
                    "midi": 43,
                    "time": 513.1110180000114,
                    "velocity": 0.16535433070866143,
                    "duration": 0.32640649999996185
                },
                {
                    "name": "B2",
                    "midi": 47,
                    "time": 513.1110180000114,
                    "velocity": 0.16535433070866143,
                    "duration": 0.32640649999996185
                },
                {
                    "name": "D3",
                    "midi": 50,
                    "time": 513.1110180000114,
                    "velocity": 0.16535433070866143,
                    "duration": 0.32640649999996185
                },
                {
                    "name": "F3",
                    "midi": 53,
                    "time": 513.1110180000114,
                    "velocity": 0.1968503937007874,
                    "duration": 0.32640649999996185
                },
                {
                    "name": "G2",
                    "midi": 43,
                    "time": 515.7222700000113,
                    "velocity": 0.16535433070866143,
                    "duration": 0.6528130000000374
                },
                {
                    "name": "A#2",
                    "midi": 46,
                    "time": 515.7222700000113,
                    "velocity": 0.16535433070866143,
                    "duration": 0.6528130000000374
                },
                {
                    "name": "C#3",
                    "midi": 49,
                    "time": 515.7222700000113,
                    "velocity": 0.16535433070866143,
                    "duration": 0.6528130000000374
                },
                {
                    "name": "E3",
                    "midi": 52,
                    "time": 515.7222700000113,
                    "velocity": 0.1968503937007874,
                    "duration": 0.6528130000000374
                },
                {
                    "name": "G2",
                    "midi": 43,
                    "time": 518.3335220000114,
                    "velocity": 0.16535433070866143,
                    "duration": 0.6528130000000374
                },
                {
                    "name": "A2",
                    "midi": 45,
                    "time": 518.3335220000114,
                    "velocity": 0.16535433070866143,
                    "duration": 0.6528130000000374
                },
                {
                    "name": "C3",
                    "midi": 48,
                    "time": 518.3335220000114,
                    "velocity": 0.16535433070866143,
                    "duration": 0.6528130000000374
                },
                {
                    "name": "D#3",
                    "midi": 51,
                    "time": 518.3335220000114,
                    "velocity": 0.1968503937007874,
                    "duration": 0.6528130000000374
                },
                {
                    "name": "G2",
                    "midi": 43,
                    "time": 520.9447740000114,
                    "velocity": 0.1968503937007874,
                    "duration": 0.32640649999996185
                },
                {
                    "name": "G5",
                    "midi": 79,
                    "time": 522.2504000000114,
                    "velocity": 0.23622047244094488,
                    "duration": 0.32640649999996185
                },
                {
                    "name": "G3",
                    "midi": 55,
                    "time": 522.9032130000113,
                    "velocity": 0.2125984251968504,
                    "duration": 0.32640649999996185
                },
                {
                    "name": "G2",
                    "midi": 43,
                    "time": 523.5560260000112,
                    "velocity": 0.1968503937007874,
                    "duration": 0.32640649999996185
                },
                {
                    "name": "G1",
                    "midi": 31,
                    "time": 524.2088390000112,
                    "velocity": 0.1968503937007874,
                    "duration": 0.6528130000000374
                },
                {
                    "name": "C2",
                    "midi": 36,
                    "time": 524.8616520000112,
                    "velocity": 0.5669291338582677,
                    "duration": 0.32640649999996185
                },
                {
                    "name": "C3",
                    "midi": 48,
                    "time": 524.8616520000112,
                    "velocity": 0.5905511811023622,
                    "duration": 0.32640649999996185
                },
                {
                    "name": "E4",
                    "midi": 64,
                    "time": 525.1880585000112,
                    "velocity": 0.3228346456692913,
                    "duration": 0.16320325000003777
                },
                {
                    "name": "G4",
                    "midi": 67,
                    "time": 525.3512617500112,
                    "velocity": 0.2677165354330709,
                    "duration": 0.16320325000003777
                },
                {
                    "name": "E4",
                    "midi": 64,
                    "time": 525.5144650000112,
                    "velocity": 0.3228346456692913,
                    "duration": 0.16320325000003777
                },
                {
                    "name": "G4",
                    "midi": 67,
                    "time": 525.6776682500113,
                    "velocity": 0.2677165354330709,
                    "duration": 0.16320325000003777
                },
                {
                    "name": "E4",
                    "midi": 64,
                    "time": 525.8408715000113,
                    "velocity": 0.3228346456692913,
                    "duration": 0.16320325000003777
                },
                {
                    "name": "G4",
                    "midi": 67,
                    "time": 526.0040747500113,
                    "velocity": 0.25984251968503935,
                    "duration": 0.16320325000003777
                },
                {
                    "name": "F4",
                    "midi": 65,
                    "time": 526.1672780000114,
                    "velocity": 0.3228346456692913,
                    "duration": 0.16320325000003777
                },
                {
                    "name": "G4",
                    "midi": 67,
                    "time": 526.3304812500114,
                    "velocity": 0.2677165354330709,
                    "duration": 0.16320325000003777
                },
                {
                    "name": "F4",
                    "midi": 65,
                    "time": 526.4936845000115,
                    "velocity": 0.3228346456692913,
                    "duration": 0.16320325000003777
                },
                {
                    "name": "G4",
                    "midi": 67,
                    "time": 526.6568877500115,
                    "velocity": 0.2755905511811024,
                    "duration": 0.16320325000003777
                },
                {
                    "name": "E4",
                    "midi": 64,
                    "time": 526.8200910000115,
                    "velocity": 0.3228346456692913,
                    "duration": 0.16320325000003777
                },
                {
                    "name": "G4",
                    "midi": 67,
                    "time": 526.9832942500116,
                    "velocity": 0.2677165354330709,
                    "duration": 0.16320325000003777
                },
                {
                    "name": "E4",
                    "midi": 64,
                    "time": 527.1464975000116,
                    "velocity": 0.3228346456692913,
                    "duration": 0.16320325000003777
                },
                {
                    "name": "G4",
                    "midi": 67,
                    "time": 527.3097007500116,
                    "velocity": 0.2755905511811024,
                    "duration": 0.16320325000003777
                },
                {
                    "name": "E4",
                    "midi": 64,
                    "time": 527.4729040000117,
                    "velocity": 0.3228346456692913,
                    "duration": 0.16320325000003777
                },
                {
                    "name": "G4",
                    "midi": 67,
                    "time": 527.6361072500117,
                    "velocity": 0.2677165354330709,
                    "duration": 0.16320325000003777
                },
                {
                    "name": "E4",
                    "midi": 64,
                    "time": 527.7993105000118,
                    "velocity": 0.3228346456692913,
                    "duration": 0.16320325000003777
                },
                {
                    "name": "G4",
                    "midi": 67,
                    "time": 527.9625137500118,
                    "velocity": 0.2677165354330709,
                    "duration": 0.16320325000003777
                },
                {
                    "name": "E4",
                    "midi": 64,
                    "time": 528.1257170000118,
                    "velocity": 0.3228346456692913,
                    "duration": 0.16320325000003777
                },
                {
                    "name": "G4",
                    "midi": 67,
                    "time": 528.2889202500119,
                    "velocity": 0.2677165354330709,
                    "duration": 0.16320325000003777
                },
                {
                    "name": "E4",
                    "midi": 64,
                    "time": 528.4521235000119,
                    "velocity": 0.3228346456692913,
                    "duration": 0.16320325000003777
                },
                {
                    "name": "G4",
                    "midi": 67,
                    "time": 528.615326750012,
                    "velocity": 0.25984251968503935,
                    "duration": 0.16320325000003777
                },
                {
                    "name": "F4",
                    "midi": 65,
                    "time": 528.778530000012,
                    "velocity": 0.3228346456692913,
                    "duration": 0.16320325000003777
                },
                {
                    "name": "G4",
                    "midi": 67,
                    "time": 528.941733250012,
                    "velocity": 0.2677165354330709,
                    "duration": 0.16320325000003777
                },
                {
                    "name": "F4",
                    "midi": 65,
                    "time": 529.1049365000121,
                    "velocity": 0.3228346456692913,
                    "duration": 0.16320325000003777
                },
                {
                    "name": "G4",
                    "midi": 67,
                    "time": 529.2681397500121,
                    "velocity": 0.2755905511811024,
                    "duration": 0.16320325000003777
                },
                {
                    "name": "E4",
                    "midi": 64,
                    "time": 529.4313430000121,
                    "velocity": 0.3228346456692913,
                    "duration": 0.16320325000003777
                },
                {
                    "name": "G4",
                    "midi": 67,
                    "time": 529.5945462500122,
                    "velocity": 0.2677165354330709,
                    "duration": 0.16320325000003777
                },
                {
                    "name": "E4",
                    "midi": 64,
                    "time": 529.7577495000122,
                    "velocity": 0.3228346456692913,
                    "duration": 0.16320325000003777
                },
                {
                    "name": "G4",
                    "midi": 67,
                    "time": 529.9209527500122,
                    "velocity": 0.2755905511811024,
                    "duration": 0.16320325000003777
                },
                {
                    "name": "C4",
                    "midi": 60,
                    "time": 530.0841560000123,
                    "velocity": 0.3228346456692913,
                    "duration": 0.32640650000007554
                },
                {
                    "name": "E4",
                    "midi": 64,
                    "time": 530.0841560000123,
                    "velocity": 0.3228346456692913,
                    "duration": 0.16320325000003777
                },
                {
                    "name": "G4",
                    "midi": 67,
                    "time": 530.2473592500123,
                    "velocity": 0.2677165354330709,
                    "duration": 0.16320325000003777
                },
                {
                    "name": "C4",
                    "midi": 60,
                    "time": 530.4105625000124,
                    "velocity": 0.3228346456692913,
                    "duration": 0.32640650000007554
                },
                {
                    "name": "E4",
                    "midi": 64,
                    "time": 530.4105625000124,
                    "velocity": 0.3228346456692913,
                    "duration": 0.16320325000003777
                },
                {
                    "name": "G4",
                    "midi": 67,
                    "time": 530.5737657500124,
                    "velocity": 0.2677165354330709,
                    "duration": 0.16320325000003777
                },
                {
                    "name": "C4",
                    "midi": 60,
                    "time": 530.7369690000124,
                    "velocity": 0.3228346456692913,
                    "duration": 0.32640650000007554
                },
                {
                    "name": "E4",
                    "midi": 64,
                    "time": 530.7369690000124,
                    "velocity": 0.3228346456692913,
                    "duration": 0.16320325000003777
                },
                {
                    "name": "G4",
                    "midi": 67,
                    "time": 530.9001722500125,
                    "velocity": 0.2677165354330709,
                    "duration": 0.16320325000003777
                },
                {
                    "name": "C4",
                    "midi": 60,
                    "time": 531.0633755000125,
                    "velocity": 0.3228346456692913,
                    "duration": 0.32640650000007554
                },
                {
                    "name": "E4",
                    "midi": 64,
                    "time": 531.0633755000125,
                    "velocity": 0.3228346456692913,
                    "duration": 0.16320325000003777
                },
                {
                    "name": "G4",
                    "midi": 67,
                    "time": 531.2265787500125,
                    "velocity": 0.25984251968503935,
                    "duration": 0.16320325000003777
                },
                {
                    "name": "C4",
                    "midi": 60,
                    "time": 531.3897820000126,
                    "velocity": 0.2992125984251969,
                    "duration": 0.32640650000007554
                },
                {
                    "name": "F4",
                    "midi": 65,
                    "time": 531.3897820000126,
                    "velocity": 0.2992125984251969,
                    "duration": 0.16320325000003777
                },
                {
                    "name": "G4",
                    "midi": 67,
                    "time": 531.5529852500126,
                    "velocity": 0.25196850393700787,
                    "duration": 0.16320325000003777
                },
                {
                    "name": "C4",
                    "midi": 60,
                    "time": 531.7161885000127,
                    "velocity": 0.2992125984251969,
                    "duration": 0.32640650000007554
                },
                {
                    "name": "F4",
                    "midi": 65,
                    "time": 531.7161885000127,
                    "velocity": 0.2992125984251969,
                    "duration": 0.16320325000003777
                },
                {
                    "name": "G4",
                    "midi": 67,
                    "time": 531.8793917500127,
                    "velocity": 0.25984251968503935,
                    "duration": 0.16320325000003777
                },
                {
                    "name": "C4",
                    "midi": 60,
                    "time": 532.0425950000127,
                    "velocity": 0.2992125984251969,
                    "duration": 0.32640650000007554
                },
                {
                    "name": "E4",
                    "midi": 64,
                    "time": 532.0425950000127,
                    "velocity": 0.2992125984251969,
                    "duration": 0.16320325000003777
                },
                {
                    "name": "G4",
                    "midi": 67,
                    "time": 532.2057982500128,
                    "velocity": 0.25196850393700787,
                    "duration": 0.16320325000003777
                },
                {
                    "name": "C4",
                    "midi": 60,
                    "time": 532.3690015000128,
                    "velocity": 0.2992125984251969,
                    "duration": 0.32640650000007554
                },
                {
                    "name": "E4",
                    "midi": 64,
                    "time": 532.3690015000128,
                    "velocity": 0.2992125984251969,
                    "duration": 0.16320325000003777
                },
                {
                    "name": "G4",
                    "midi": 67,
                    "time": 532.5322047500129,
                    "velocity": 0.25984251968503935,
                    "duration": 0.16320325000003777
                },
                {
                    "name": "C4",
                    "midi": 60,
                    "time": 532.6954080000129,
                    "velocity": 0.3228346456692913,
                    "duration": 0.32640650000007554
                },
                {
                    "name": "E4",
                    "midi": 64,
                    "time": 532.6954080000129,
                    "velocity": 0.3228346456692913,
                    "duration": 0.16320325000003777
                },
                {
                    "name": "G4",
                    "midi": 67,
                    "time": 532.8586112500129,
                    "velocity": 0.2677165354330709,
                    "duration": 0.16320325000003777
                },
                {
                    "name": "C4",
                    "midi": 60,
                    "time": 533.021814500013,
                    "velocity": 0.3228346456692913,
                    "duration": 0.32640650000007554
                },
                {
                    "name": "E4",
                    "midi": 64,
                    "time": 533.021814500013,
                    "velocity": 0.3228346456692913,
                    "duration": 0.16320325000003777
                },
                {
                    "name": "G4",
                    "midi": 67,
                    "time": 533.185017750013,
                    "velocity": 0.2677165354330709,
                    "duration": 0.16320325000003777
                },
                {
                    "name": "C4",
                    "midi": 60,
                    "time": 533.348221000013,
                    "velocity": 0.3228346456692913,
                    "duration": 0.32640650000007554
                },
                {
                    "name": "E4",
                    "midi": 64,
                    "time": 533.348221000013,
                    "velocity": 0.3228346456692913,
                    "duration": 0.16320325000003777
                },
                {
                    "name": "G4",
                    "midi": 67,
                    "time": 533.5114242500131,
                    "velocity": 0.2677165354330709,
                    "duration": 0.16320325000003777
                },
                {
                    "name": "C4",
                    "midi": 60,
                    "time": 533.6746275000131,
                    "velocity": 0.3228346456692913,
                    "duration": 0.32640650000007554
                },
                {
                    "name": "E4",
                    "midi": 64,
                    "time": 533.6746275000131,
                    "velocity": 0.3228346456692913,
                    "duration": 0.16320325000003777
                },
                {
                    "name": "G4",
                    "midi": 67,
                    "time": 533.8378307500132,
                    "velocity": 0.25984251968503935,
                    "duration": 0.16320325000003777
                },
                {
                    "name": "C4",
                    "midi": 60,
                    "time": 534.0010340000132,
                    "velocity": 0.2992125984251969,
                    "duration": 0.32640650000007554
                },
                {
                    "name": "F4",
                    "midi": 65,
                    "time": 534.0010340000132,
                    "velocity": 0.2992125984251969,
                    "duration": 0.16320325000003777
                },
                {
                    "name": "G4",
                    "midi": 67,
                    "time": 534.1642372500132,
                    "velocity": 0.25196850393700787,
                    "duration": 0.16320325000003777
                },
                {
                    "name": "C4",
                    "midi": 60,
                    "time": 534.3274405000133,
                    "velocity": 0.2992125984251969,
                    "duration": 0.32640650000007554
                },
                {
                    "name": "F4",
                    "midi": 65,
                    "time": 534.3274405000133,
                    "velocity": 0.2992125984251969,
                    "duration": 0.16320325000003777
                },
                {
                    "name": "G4",
                    "midi": 67,
                    "time": 534.4906437500133,
                    "velocity": 0.25984251968503935,
                    "duration": 0.16320325000003777
                },
                {
                    "name": "C4",
                    "midi": 60,
                    "time": 534.6538470000133,
                    "velocity": 0.2992125984251969,
                    "duration": 0.32640650000007554
                },
                {
                    "name": "E4",
                    "midi": 64,
                    "time": 534.6538470000133,
                    "velocity": 0.2992125984251969,
                    "duration": 0.16320325000003777
                },
                {
                    "name": "G4",
                    "midi": 67,
                    "time": 534.8170502500134,
                    "velocity": 0.25196850393700787,
                    "duration": 0.16320325000003777
                },
                {
                    "name": "C4",
                    "midi": 60,
                    "time": 534.9802535000134,
                    "velocity": 0.2992125984251969,
                    "duration": 0.32640650000007554
                },
                {
                    "name": "E4",
                    "midi": 64,
                    "time": 534.9802535000134,
                    "velocity": 0.2992125984251969,
                    "duration": 0.16320325000003777
                },
                {
                    "name": "G4",
                    "midi": 67,
                    "time": 535.1434567500135,
                    "velocity": 0.25984251968503935,
                    "duration": 0.16320325000003777
                },
                {
                    "name": "C4",
                    "midi": 60,
                    "time": 535.3066600000135,
                    "velocity": 0.3779527559055118,
                    "duration": 0.32640650000007554
                },
                {
                    "name": "F4",
                    "midi": 65,
                    "time": 535.3066600000135,
                    "velocity": 0.3779527559055118,
                    "duration": 0.16320325000003777
                },
                {
                    "name": "G4",
                    "midi": 67,
                    "time": 535.4698632500135,
                    "velocity": 0.33858267716535434,
                    "duration": 0.16320325000003777
                },
                {
                    "name": "C4",
                    "midi": 60,
                    "time": 535.6330665000136,
                    "velocity": 0.4251968503937008,
                    "duration": 0.32640650000007554
                },
                {
                    "name": "F4",
                    "midi": 65,
                    "time": 535.6330665000136,
                    "velocity": 0.4251968503937008,
                    "duration": 0.16320325000003777
                },
                {
                    "name": "G4",
                    "midi": 67,
                    "time": 535.7962697500136,
                    "velocity": 0.3700787401574803,
                    "duration": 0.16320325000003777
                },
                {
                    "name": "E4",
                    "midi": 64,
                    "time": 535.9594730000136,
                    "velocity": 0.47244094488188976,
                    "duration": 0.17680352083334583
                },
                {
                    "name": "D#4",
                    "midi": 63,
                    "time": 536.1226762500137,
                    "velocity": 0.41732283464566927,
                    "duration": 0.17680352083323214
                },
                {
                    "name": "E4",
                    "midi": 64,
                    "time": 536.2858795000136,
                    "velocity": 0.41732283464566927,
                    "duration": 0.17680352083323214
                },
                {
                    "name": "C4",
                    "midi": 60,
                    "time": 536.4490827500135,
                    "velocity": 0.4251968503937008,
                    "duration": 0.16320324999992408
                },
                {
                    "name": "D4",
                    "midi": 62,
                    "time": 536.6122860000135,
                    "velocity": 0.48031496062992124,
                    "duration": 0.17680352083334583
                },
                {
                    "name": "C#4",
                    "midi": 61,
                    "time": 536.7754892500135,
                    "velocity": 0.4251968503937008,
                    "duration": 0.17680352083323214
                },
                {
                    "name": "D4",
                    "midi": 62,
                    "time": 536.9386925000134,
                    "velocity": 0.4251968503937008,
                    "duration": 0.17680352083323214
                },
                {
                    "name": "B3",
                    "midi": 59,
                    "time": 537.1018957500133,
                    "velocity": 0.4251968503937008,
                    "duration": 0.16320324999992408
                },
                {
                    "name": "C4",
                    "midi": 60,
                    "time": 537.2650990000133,
                    "velocity": 0.48031496062992124,
                    "duration": 0.17680352083334583
                },
                {
                    "name": "B3",
                    "midi": 59,
                    "time": 537.4283022500133,
                    "velocity": 0.4251968503937008,
                    "duration": 0.17680352083323214
                },
                {
                    "name": "C4",
                    "midi": 60,
                    "time": 537.5915055000132,
                    "velocity": 0.4251968503937008,
                    "duration": 0.17680352083323214
                },
                {
                    "name": "A3",
                    "midi": 57,
                    "time": 537.7547087500132,
                    "velocity": 0.4251968503937008,
                    "duration": 0.16320324999992408
                },
                {
                    "name": "B3",
                    "midi": 59,
                    "time": 537.9179120000131,
                    "velocity": 0.47244094488188976,
                    "duration": 0.17680352083334583
                },
                {
                    "name": "A#3",
                    "midi": 58,
                    "time": 538.0811152500131,
                    "velocity": 0.4251968503937008,
                    "duration": 0.17680352083323214
                },
                {
                    "name": "B3",
                    "midi": 59,
                    "time": 538.244318500013,
                    "velocity": 0.4251968503937008,
                    "duration": 0.17680352083323214
                },
                {
                    "name": "G3",
                    "midi": 55,
                    "time": 538.407521750013,
                    "velocity": 0.4251968503937008,
                    "duration": 0.16320324999992408
                },
                {
                    "name": "A3",
                    "midi": 57,
                    "time": 538.5707250000129,
                    "velocity": 0.47244094488188976,
                    "duration": 0.17680352083334583
                },
                {
                    "name": "G#3",
                    "midi": 56,
                    "time": 538.7339282500129,
                    "velocity": 0.4251968503937008,
                    "duration": 0.17680352083323214
                },
                {
                    "name": "A3",
                    "midi": 57,
                    "time": 538.8971315000128,
                    "velocity": 0.4251968503937008,
                    "duration": 0.17680352083323214
                },
                {
                    "name": "F3",
                    "midi": 53,
                    "time": 539.0603347500128,
                    "velocity": 0.4251968503937008,
                    "duration": 0.16320324999992408
                },
                {
                    "name": "G3",
                    "midi": 55,
                    "time": 539.2235380000127,
                    "velocity": 0.47244094488188976,
                    "duration": 0.17680352083334583
                },
                {
                    "name": "F#3",
                    "midi": 54,
                    "time": 539.3867412500127,
                    "velocity": 0.4251968503937008,
                    "duration": 0.17680352083323214
                },
                {
                    "name": "G3",
                    "midi": 55,
                    "time": 539.5499445000127,
                    "velocity": 0.4251968503937008,
                    "duration": 0.17680352083323214
                },
                {
                    "name": "E3",
                    "midi": 52,
                    "time": 539.7131477500126,
                    "velocity": 0.4251968503937008,
                    "duration": 0.16320324999992408
                },
                {
                    "name": "F3",
                    "midi": 53,
                    "time": 539.8763510000125,
                    "velocity": 0.48031496062992124,
                    "duration": 0.17680352083334583
                },
                {
                    "name": "E3",
                    "midi": 52,
                    "time": 540.0395542500125,
                    "velocity": 0.4251968503937008,
                    "duration": 0.17680352083323214
                },
                {
                    "name": "F3",
                    "midi": 53,
                    "time": 540.2027575000125,
                    "velocity": 0.4251968503937008,
                    "duration": 0.17680352083323214
                },
                {
                    "name": "D3",
                    "midi": 50,
                    "time": 540.3659607500124,
                    "velocity": 0.4251968503937008,
                    "duration": 0.16320324999992408
                },
                {
                    "name": "E3",
                    "midi": 52,
                    "time": 540.5291640000123,
                    "velocity": 0.4881889763779528,
                    "duration": 0.17680352083334583
                },
                {
                    "name": "D#3",
                    "midi": 51,
                    "time": 540.6923672500124,
                    "velocity": 0.4251968503937008,
                    "duration": 0.17680352083323214
                },
                {
                    "name": "E3",
                    "midi": 52,
                    "time": 540.8555705000123,
                    "velocity": 0.4251968503937008,
                    "duration": 0.17680352083323214
                },
                {
                    "name": "C3",
                    "midi": 48,
                    "time": 541.0187737500122,
                    "velocity": 0.4251968503937008,
                    "duration": 0.16320324999992408
                },
                {
                    "name": "C4",
                    "midi": 60,
                    "time": 541.1819770000121,
                    "velocity": 0.48031496062992124,
                    "duration": 0.17680352083334583
                },
                {
                    "name": "B3",
                    "midi": 59,
                    "time": 541.3451802500122,
                    "velocity": 0.4251968503937008,
                    "duration": 0.17680352083323214
                },
                {
                    "name": "C4",
                    "midi": 60,
                    "time": 541.5083835000121,
                    "velocity": 0.4251968503937008,
                    "duration": 0.17680352083323214
                },
                {
                    "name": "E4",
                    "midi": 64,
                    "time": 541.671586750012,
                    "velocity": 0.4251968503937008,
                    "duration": 0.16320324999992408
                },
                {
                    "name": "B3",
                    "midi": 59,
                    "time": 541.8347900000119,
                    "velocity": 0.48031496062992124,
                    "duration": 0.17680352083334583
                },
                {
                    "name": "A#3",
                    "midi": 58,
                    "time": 541.997993250012,
                    "velocity": 0.4251968503937008,
                    "duration": 0.17680352083323214
                },
                {
                    "name": "B3",
                    "midi": 59,
                    "time": 542.1611965000119,
                    "velocity": 0.4251968503937008,
                    "duration": 0.17680352083323214
                },
                {
                    "name": "D4",
                    "midi": 62,
                    "time": 542.3243997500118,
                    "velocity": 0.4251968503937008,
                    "duration": 0.16320324999992408
                },
                {
                    "name": "A3",
                    "midi": 57,
                    "time": 542.4876030000117,
                    "velocity": 0.48031496062992124,
                    "duration": 0.17680352083334583
                },
                {
                    "name": "G#3",
                    "midi": 56,
                    "time": 542.6508062500118,
                    "velocity": 0.4251968503937008,
                    "duration": 0.17680352083323214
                },
                {
                    "name": "A3",
                    "midi": 57,
                    "time": 542.8140095000117,
                    "velocity": 0.4251968503937008,
                    "duration": 0.17680352083323214
                },
                {
                    "name": "C4",
                    "midi": 60,
                    "time": 542.9772127500116,
                    "velocity": 0.4251968503937008,
                    "duration": 0.16320324999992408
                },
                {
                    "name": "G3",
                    "midi": 55,
                    "time": 543.1404160000116,
                    "velocity": 0.47244094488188976,
                    "duration": 0.17680352083334583
                },
                {
                    "name": "F#3",
                    "midi": 54,
                    "time": 543.3036192500116,
                    "velocity": 0.4251968503937008,
                    "duration": 0.17680352083323214
                },
                {
                    "name": "G3",
                    "midi": 55,
                    "time": 543.4668225000115,
                    "velocity": 0.4251968503937008,
                    "duration": 0.17680352083323214
                },
                {
                    "name": "B3",
                    "midi": 59,
                    "time": 543.6300257500114,
                    "velocity": 0.4251968503937008,
                    "duration": 0.16320324999992408
                },
                {
                    "name": "F3",
                    "midi": 53,
                    "time": 543.7932290000114,
                    "velocity": 0.48031496062992124,
                    "duration": 0.17680352083334583
                },
                {
                    "name": "E3",
                    "midi": 52,
                    "time": 543.9564322500114,
                    "velocity": 0.4251968503937008,
                    "duration": 0.17680352083323214
                },
                {
                    "name": "F3",
                    "midi": 53,
                    "time": 544.1196355000113,
                    "velocity": 0.4251968503937008,
                    "duration": 0.17680352083323214
                },
                {
                    "name": "A3",
                    "midi": 57,
                    "time": 544.2828387500113,
                    "velocity": 0.4251968503937008,
                    "duration": 0.16320324999992408
                },
                {
                    "name": "E3",
                    "midi": 52,
                    "time": 544.4460420000112,
                    "velocity": 0.4881889763779528,
                    "duration": 0.17680352083334583
                },
                {
                    "name": "D#3",
                    "midi": 51,
                    "time": 544.6092452500112,
                    "velocity": 0.4251968503937008,
                    "duration": 0.17680352083323214
                },
                {
                    "name": "E3",
                    "midi": 52,
                    "time": 544.7724485000111,
                    "velocity": 0.4251968503937008,
                    "duration": 0.17680352083323214
                },
                {
                    "name": "G3",
                    "midi": 55,
                    "time": 544.9356517500111,
                    "velocity": 0.4251968503937008,
                    "duration": 0.16320324999992408
                },
                {
                    "name": "D3",
                    "midi": 50,
                    "time": 545.098855000011,
                    "velocity": 0.47244094488188976,
                    "duration": 0.17680352083334583
                },
                {
                    "name": "C#3",
                    "midi": 49,
                    "time": 545.262058250011,
                    "velocity": 0.4251968503937008,
                    "duration": 0.17680352083323214
                },
                {
                    "name": "D3",
                    "midi": 50,
                    "time": 545.425261500011,
                    "velocity": 0.4251968503937008,
                    "duration": 0.17680352083323214
                },
                {
                    "name": "F3",
                    "midi": 53,
                    "time": 545.5884647500109,
                    "velocity": 0.41732283464566927,
                    "duration": 0.16320324999992408
                },
                {
                    "name": "C3",
                    "midi": 48,
                    "time": 545.7516680000108,
                    "velocity": 0.6614173228346457,
                    "duration": 0.32640649999996185
                },
                {
                    "name": "C3",
                    "midi": 48,
                    "time": 546.2412777500108,
                    "velocity": 0.5669291338582677,
                    "duration": 0.16320325000003777
                },
                {
                    "name": "G2",
                    "midi": 43,
                    "time": 546.4044810000108,
                    "velocity": 0.6614173228346457,
                    "duration": 0.32640649999996185
                },
                {
                    "name": "G2",
                    "midi": 43,
                    "time": 546.8940907500108,
                    "velocity": 0.5669291338582677,
                    "duration": 0.16320325000003777
                },
                {
                    "name": "D3",
                    "midi": 50,
                    "time": 547.0572940000109,
                    "velocity": 0.6614173228346457,
                    "duration": 0.32640649999996185
                },
                {
                    "name": "D3",
                    "midi": 50,
                    "time": 547.5469037500109,
                    "velocity": 0.5669291338582677,
                    "duration": 0.16320325000003777
                },
                {
                    "name": "A2",
                    "midi": 45,
                    "time": 547.7101070000109,
                    "velocity": 0.6614173228346457,
                    "duration": 0.32640649999996185
                },
                {
                    "name": "A2",
                    "midi": 45,
                    "time": 548.1997167500109,
                    "velocity": 0.5669291338582677,
                    "duration": 0.16320325000003777
                },
                {
                    "name": "F3",
                    "midi": 53,
                    "time": 548.362920000011,
                    "velocity": 0.6614173228346457,
                    "duration": 0.32640649999996185
                },
                {
                    "name": "F3",
                    "midi": 53,
                    "time": 548.852529750011,
                    "velocity": 0.5748031496062992,
                    "duration": 0.16320325000003777
                },
                {
                    "name": "C3",
                    "midi": 48,
                    "time": 549.015733000011,
                    "velocity": 0.6614173228346457,
                    "duration": 0.32640649999996185
                },
                {
                    "name": "C3",
                    "midi": 48,
                    "time": 549.505342750011,
                    "velocity": 0.5826771653543307,
                    "duration": 0.16320325000003777
                },
                {
                    "name": "G3",
                    "midi": 55,
                    "time": 549.668546000011,
                    "velocity": 0.6614173228346457,
                    "duration": 0.32640649999996185
                },
                {
                    "name": "G3",
                    "midi": 55,
                    "time": 550.158155750011,
                    "velocity": 0.5748031496062992,
                    "duration": 0.16320325000003777
                },
                {
                    "name": "G2",
                    "midi": 43,
                    "time": 550.3213590000111,
                    "velocity": 0.6614173228346457,
                    "duration": 0.32640649999996185
                },
                {
                    "name": "G2",
                    "midi": 43,
                    "time": 550.810968750011,
                    "velocity": 0.5826771653543307,
                    "duration": 0.16320325000003777
                },
                {
                    "name": "C3",
                    "midi": 48,
                    "time": 550.9741720000111,
                    "velocity": 0.6614173228346457,
                    "duration": 0.32640649999996185
                },
                {
                    "name": "C4",
                    "midi": 60,
                    "time": 551.4637817500111,
                    "velocity": 0.5748031496062992,
                    "duration": 0.16320325000003777
                },
                {
                    "name": "G3",
                    "midi": 55,
                    "time": 551.6269850000111,
                    "velocity": 0.6614173228346457,
                    "duration": 0.32640649999996185
                },
                {
                    "name": "G3",
                    "midi": 55,
                    "time": 552.1165947500111,
                    "velocity": 0.5748031496062992,
                    "duration": 0.16320325000003777
                },
                {
                    "name": "D3",
                    "midi": 50,
                    "time": 552.2797980000112,
                    "velocity": 0.6614173228346457,
                    "duration": 0.32640649999996185
                },
                {
                    "name": "D4",
                    "midi": 62,
                    "time": 552.7694077500112,
                    "velocity": 0.5669291338582677,
                    "duration": 0.16320325000003777
                },
                {
                    "name": "A3",
                    "midi": 57,
                    "time": 552.9326110000112,
                    "velocity": 0.6614173228346457,
                    "duration": 0.32640649999996185
                },
                {
                    "name": "A3",
                    "midi": 57,
                    "time": 553.4222207500112,
                    "velocity": 0.5669291338582677,
                    "duration": 0.16320325000003777
                },
                {
                    "name": "F3",
                    "midi": 53,
                    "time": 553.5854240000112,
                    "velocity": 0.6614173228346457,
                    "duration": 0.32640649999996185
                },
                {
                    "name": "F4",
                    "midi": 65,
                    "time": 554.0750337500112,
                    "velocity": 0.5748031496062992,
                    "duration": 0.16320325000003777
                },
                {
                    "name": "F3",
                    "midi": 53,
                    "time": 554.2382370000113,
                    "velocity": 0.6614173228346457,
                    "duration": 0.32640649999996185
                },
                {
                    "name": "F4",
                    "midi": 65,
                    "time": 554.7278467500113,
                    "velocity": 0.5748031496062992,
                    "duration": 0.16320325000003777
                },
                {
                    "name": "F3",
                    "midi": 53,
                    "time": 554.8910500000113,
                    "velocity": 0.6535433070866141,
                    "duration": 0.32640649999996185
                },
                {
                    "name": "F4",
                    "midi": 65,
                    "time": 555.3806597500113,
                    "velocity": 0.5669291338582677,
                    "duration": 0.16320325000003777
                },
                {
                    "name": "F3",
                    "midi": 53,
                    "time": 555.5438630000114,
                    "velocity": 0.6456692913385826,
                    "duration": 0.32640649999996185
                },
                {
                    "name": "F3",
                    "midi": 53,
                    "time": 556.0334727500114,
                    "velocity": 0.5669291338582677,
                    "duration": 0.16320325000003777
                },
                {
                    "name": "F2",
                    "midi": 41,
                    "time": 556.1966760000114,
                    "velocity": 0.6456692913385826,
                    "duration": 0.32640649999996185
                },
                {
                    "name": "A3",
                    "midi": 57,
                    "time": 556.5230825000114,
                    "velocity": 0.3228346456692913,
                    "duration": 0.16320325000003777
                },
                {
                    "name": "C4",
                    "midi": 60,
                    "time": 556.6862857500114,
                    "velocity": 0.2677165354330709,
                    "duration": 0.16320325000003777
                },
                {
                    "name": "A3",
                    "midi": 57,
                    "time": 556.8494890000114,
                    "velocity": 0.3228346456692913,
                    "duration": 0.16320325000003777
                },
                {
                    "name": "C4",
                    "midi": 60,
                    "time": 557.0126922500115,
                    "velocity": 0.2677165354330709,
                    "duration": 0.16320325000003777
                },
                {
                    "name": "A3",
                    "midi": 57,
                    "time": 557.1758955000115,
                    "velocity": 0.3228346456692913,
                    "duration": 0.16320325000003777
                },
                {
                    "name": "C4",
                    "midi": 60,
                    "time": 557.3390987500115,
                    "velocity": 0.25984251968503935,
                    "duration": 0.16320325000003777
                },
                {
                    "name": "A#3",
                    "midi": 58,
                    "time": 557.5023020000116,
                    "velocity": 0.3228346456692913,
                    "duration": 0.16320325000003777
                },
                {
                    "name": "C4",
                    "midi": 60,
                    "time": 557.6655052500116,
                    "velocity": 0.2677165354330709,
                    "duration": 0.16320325000003777
                },
                {
                    "name": "A#3",
                    "midi": 58,
                    "time": 557.8287085000117,
                    "velocity": 0.3228346456692913,
                    "duration": 0.16320325000003777
                },
                {
                    "name": "C4",
                    "midi": 60,
                    "time": 557.9919117500117,
                    "velocity": 0.2755905511811024,
                    "duration": 0.16320325000003777
                },
                {
                    "name": "A3",
                    "midi": 57,
                    "time": 558.1551150000117,
                    "velocity": 0.3228346456692913,
                    "duration": 0.16320325000003777
                },
                {
                    "name": "C4",
                    "midi": 60,
                    "time": 558.3183182500118,
                    "velocity": 0.2677165354330709,
                    "duration": 0.16320325000003777
                },
                {
                    "name": "A3",
                    "midi": 57,
                    "time": 558.4815215000118,
                    "velocity": 0.3228346456692913,
                    "duration": 0.16320325000003777
                },
                {
                    "name": "C4",
                    "midi": 60,
                    "time": 558.6447247500118,
                    "velocity": 0.2755905511811024,
                    "duration": 0.16320325000003777
                },
                {
                    "name": "A3",
                    "midi": 57,
                    "time": 558.8079280000119,
                    "velocity": 0.3228346456692913,
                    "duration": 0.16320325000003777
                },
                {
                    "name": "C4",
                    "midi": 60,
                    "time": 558.9711312500119,
                    "velocity": 0.2677165354330709,
                    "duration": 0.16320325000003777
                },
                {
                    "name": "A3",
                    "midi": 57,
                    "time": 559.134334500012,
                    "velocity": 0.3228346456692913,
                    "duration": 0.16320325000003777
                },
                {
                    "name": "C4",
                    "midi": 60,
                    "time": 559.297537750012,
                    "velocity": 0.2677165354330709,
                    "duration": 0.16320325000003777
                },
                {
                    "name": "A3",
                    "midi": 57,
                    "time": 559.460741000012,
                    "velocity": 0.3228346456692913,
                    "duration": 0.16320325000003777
                },
                {
                    "name": "C4",
                    "midi": 60,
                    "time": 559.6239442500121,
                    "velocity": 0.2677165354330709,
                    "duration": 0.16320325000003777
                },
                {
                    "name": "A3",
                    "midi": 57,
                    "time": 559.7871475000121,
                    "velocity": 0.3228346456692913,
                    "duration": 0.16320325000003777
                },
                {
                    "name": "C4",
                    "midi": 60,
                    "time": 559.9503507500121,
                    "velocity": 0.25984251968503935,
                    "duration": 0.16320325000003777
                },
                {
                    "name": "A#3",
                    "midi": 58,
                    "time": 560.1135540000122,
                    "velocity": 0.2992125984251969,
                    "duration": 0.16320325000003777
                },
                {
                    "name": "C4",
                    "midi": 60,
                    "time": 560.2767572500122,
                    "velocity": 0.25196850393700787,
                    "duration": 0.16320325000003777
                },
                {
                    "name": "A#3",
                    "midi": 58,
                    "time": 560.4399605000123,
                    "velocity": 0.2992125984251969,
                    "duration": 0.16320325000003777
                },
                {
                    "name": "C4",
                    "midi": 60,
                    "time": 560.6031637500123,
                    "velocity": 0.25984251968503935,
                    "duration": 0.16320325000003777
                },
                {
                    "name": "A3",
                    "midi": 57,
                    "time": 560.7663670000123,
                    "velocity": 0.2992125984251969,
                    "duration": 0.16320325000003777
                },
                {
                    "name": "C4",
                    "midi": 60,
                    "time": 560.9295702500124,
                    "velocity": 0.25196850393700787,
                    "duration": 0.16320325000003777
                },
                {
                    "name": "A3",
                    "midi": 57,
                    "time": 561.0927735000124,
                    "velocity": 0.2992125984251969,
                    "duration": 0.16320325000003777
                },
                {
                    "name": "C4",
                    "midi": 60,
                    "time": 561.2559767500125,
                    "velocity": 0.25984251968503935,
                    "duration": 0.16320325000003777
                },
                {
                    "name": "G2",
                    "midi": 43,
                    "time": 561.4191800000125,
                    "velocity": 0.6692913385826772,
                    "duration": 0.32640649999996185
                },
                {
                    "name": "B3",
                    "midi": 59,
                    "time": 561.7455865000125,
                    "velocity": 0.33070866141732286,
                    "duration": 0.32640649999996185
                },
                {
                    "name": "D4",
                    "midi": 62,
                    "time": 562.0719930000124,
                    "velocity": 0.33858267716535434,
                    "duration": 0.32640649999996185
                },
                {
                    "name": "B3",
                    "midi": 59,
                    "time": 562.3983995000124,
                    "velocity": 0.30708661417322836,
                    "duration": 0.32640649999996185
                },
                {
                    "name": "C4",
                    "midi": 60,
                    "time": 562.7248060000123,
                    "velocity": 0.33858267716535434,
                    "duration": 0.32640649999996185
                },
                {
                    "name": "E4",
                    "midi": 64,
                    "time": 563.0512125000123,
                    "velocity": 0.33070866141732286,
                    "duration": 0.32640649999996185
                },
                {
                    "name": "D4",
                    "midi": 62,
                    "time": 563.3776190000123,
                    "velocity": 0.33070866141732286,
                    "duration": 0.32640649999996185
                },
                {
                    "name": "B3",
                    "midi": 59,
                    "time": 563.7040255000122,
                    "velocity": 0.30708661417322836,
                    "duration": 0.32640649999996185
                },
                {
                    "name": "G3",
                    "midi": 55,
                    "time": 564.0304320000122,
                    "velocity": 0.36220472440944884,
                    "duration": 0.32640649999996185
                },
                {
                    "name": "B3",
                    "midi": 59,
                    "time": 564.3568385000121,
                    "velocity": 0.33070866141732286,
                    "duration": 0.32640649999996185
                },
                {
                    "name": "D4",
                    "midi": 62,
                    "time": 564.6832450000121,
                    "velocity": 0.33858267716535434,
                    "duration": 0.32640649999996185
                },
                {
                    "name": "B3",
                    "midi": 59,
                    "time": 565.0096515000121,
                    "velocity": 0.30708661417322836,
                    "duration": 0.32640649999996185
                },
                {
                    "name": "C4",
                    "midi": 60,
                    "time": 565.336058000012,
                    "velocity": 0.33858267716535434,
                    "duration": 0.3400067708332699
                },
                {
                    "name": "E4",
                    "midi": 64,
                    "time": 565.662464500012,
                    "velocity": 0.33070866141732286,
                    "duration": 0.3400067708332699
                },
                {
                    "name": "D4",
                    "midi": 62,
                    "time": 565.988871000012,
                    "velocity": 0.33070866141732286,
                    "duration": 0.3400067708332699
                },
                {
                    "name": "B3",
                    "midi": 59,
                    "time": 566.3152775000119,
                    "velocity": 0.30708661417322836,
                    "duration": 0.32640649999996185
                },
                {
                    "name": "A3",
                    "midi": 57,
                    "time": 566.6416840000119,
                    "velocity": 0.33858267716535434,
                    "duration": 0.3400067708332699
                },
                {
                    "name": "C4",
                    "midi": 60,
                    "time": 566.9680905000118,
                    "velocity": 0.33070866141732286,
                    "duration": 0.3400067708332699
                },
                {
                    "name": "B3",
                    "midi": 59,
                    "time": 567.2944970000118,
                    "velocity": 0.33070866141732286,
                    "duration": 0.3400067708332699
                },
                {
                    "name": "G3",
                    "midi": 55,
                    "time": 567.6209035000118,
                    "velocity": 0.30708661417322836,
                    "duration": 0.32640649999996185
                },
                {
                    "name": "F3",
                    "midi": 53,
                    "time": 567.9473100000117,
                    "velocity": 0.33858267716535434,
                    "duration": 0.3400067708332699
                },
                {
                    "name": "A3",
                    "midi": 57,
                    "time": 568.2737165000117,
                    "velocity": 0.33070866141732286,
                    "duration": 0.3400067708332699
                },
                {
                    "name": "G3",
                    "midi": 55,
                    "time": 568.6001230000116,
                    "velocity": 0.33070866141732286,
                    "duration": 0.3400067708332699
                },
                {
                    "name": "E3",
                    "midi": 52,
                    "time": 568.9265295000116,
                    "velocity": 0.30708661417322836,
                    "duration": 0.32640649999996185
                },
                {
                    "name": "D3",
                    "midi": 50,
                    "time": 569.2529360000116,
                    "velocity": 0.3464566929133858,
                    "duration": 0.3400067708332699
                },
                {
                    "name": "F3",
                    "midi": 53,
                    "time": 569.5793425000115,
                    "velocity": 0.33858267716535434,
                    "duration": 0.3400067708332699
                },
                {
                    "name": "C3",
                    "midi": 48,
                    "time": 569.9057490000115,
                    "velocity": 0.3464566929133858,
                    "duration": 0.3400067708332699
                },
                {
                    "name": "E3",
                    "midi": 52,
                    "time": 570.2321555000115,
                    "velocity": 0.3228346456692913,
                    "duration": 0.32640649999996185
                },
                {
                    "name": "B2",
                    "midi": 47,
                    "time": 570.5585620000114,
                    "velocity": 0.36220472440944884,
                    "duration": 0.3400067708332699
                },
                {
                    "name": "D3",
                    "midi": 50,
                    "time": 570.8849685000114,
                    "velocity": 0.3464566929133858,
                    "duration": 0.3400067708332699
                },
                {
                    "name": "A2",
                    "midi": 45,
                    "time": 571.2113750000113,
                    "velocity": 0.3464566929133858,
                    "duration": 0.3400067708332699
                },
                {
                    "name": "C3",
                    "midi": 48,
                    "time": 571.5377815000113,
                    "velocity": 0.33070866141732286,
                    "duration": 0.32640649999996185
                },
                {
                    "name": "G2",
                    "midi": 43,
                    "time": 571.8641880000113,
                    "velocity": 0.3700787401574803,
                    "duration": 0.3400067708332699
                },
                {
                    "name": "B2",
                    "midi": 47,
                    "time": 572.1905945000112,
                    "velocity": 0.36220472440944884,
                    "duration": 0.3400067708332699
                },
                {
                    "name": "F2",
                    "midi": 41,
                    "time": 572.5170010000112,
                    "velocity": 0.3700787401574803,
                    "duration": 0.3400067708332699
                },
                {
                    "name": "A2",
                    "midi": 45,
                    "time": 572.8434075000112,
                    "velocity": 0.33070866141732286,
                    "duration": 0.32640649999996185
                },
                {
                    "name": "E2",
                    "midi": 40,
                    "time": 573.1698140000111,
                    "velocity": 0.3779527559055118,
                    "duration": 0.3400067708332699
                },
                {
                    "name": "G2",
                    "midi": 43,
                    "time": 573.4962205000111,
                    "velocity": 0.3700787401574803,
                    "duration": 0.3400067708332699
                },
                {
                    "name": "G1",
                    "midi": 31,
                    "time": 573.822627000011,
                    "velocity": 0.3700787401574803,
                    "duration": 0.3400067708332699
                },
                {
                    "name": "D2",
                    "midi": 38,
                    "time": 573.822627000011,
                    "velocity": 0.3700787401574803,
                    "duration": 0.3400067708332699
                },
                {
                    "name": "G2",
                    "midi": 43,
                    "time": 574.149033500011,
                    "velocity": 0.33858267716535434,
                    "duration": 0.32640649999996185
                },
                {
                    "name": "G#1",
                    "midi": 32,
                    "time": 574.475440000011,
                    "velocity": 0.6220472440944882,
                    "duration": 0.32640649999996185
                },
                {
                    "name": "G#2",
                    "midi": 44,
                    "time": 574.475440000011,
                    "velocity": 0.7401574803149606,
                    "duration": 0.32640649999996185
                },
                {
                    "name": "D#4",
                    "midi": 63,
                    "time": 575.1282530000109,
                    "velocity": 0.7716535433070866,
                    "duration": 0.16320325000003777
                },
                {
                    "name": "C4",
                    "midi": 60,
                    "time": 575.1282530000109,
                    "velocity": 0.7007874015748031,
                    "duration": 0.16320325000003777
                },
                {
                    "name": "G#3",
                    "midi": 56,
                    "time": 575.1282530000109,
                    "velocity": 0.6456692913385826,
                    "duration": 0.16320325000003777
                },
                {
                    "name": "D#4",
                    "midi": 63,
                    "time": 575.7810660000109,
                    "velocity": 0.7716535433070866,
                    "duration": 1.305625999999961
                },
                {
                    "name": "C4",
                    "midi": 60,
                    "time": 575.7810660000109,
                    "velocity": 0.7007874015748031,
                    "duration": 1.305625999999961
                },
                {
                    "name": "G#3",
                    "midi": 56,
                    "time": 575.7810660000109,
                    "velocity": 0.6456692913385826,
                    "duration": 1.305625999999961
                },
                {
                    "name": "D#2",
                    "midi": 39,
                    "time": 577.0866920000109,
                    "velocity": 0.3700787401574803,
                    "duration": 0.32640649999996185
                },
                {
                    "name": "C#4",
                    "midi": 61,
                    "time": 577.7395050000108,
                    "velocity": 0.31496062992125984,
                    "duration": 0.32640649999996185
                },
                {
                    "name": "A#3",
                    "midi": 58,
                    "time": 577.7395050000108,
                    "velocity": 0.2677165354330709,
                    "duration": 0.32640649999996185
                },
                {
                    "name": "G3",
                    "midi": 55,
                    "time": 577.7395050000108,
                    "velocity": 0.2677165354330709,
                    "duration": 0.32640649999996185
                },
                {
                    "name": "D#3",
                    "midi": 51,
                    "time": 577.7395050000108,
                    "velocity": 0.2677165354330709,
                    "duration": 0.32640649999996185
                },
                {
                    "name": "E2",
                    "midi": 40,
                    "time": 578.3923180000107,
                    "velocity": 0.3700787401574803,
                    "duration": 0.32640649999996185
                },
                {
                    "name": "C#4",
                    "midi": 61,
                    "time": 579.0451310000107,
                    "velocity": 0.31496062992125984,
                    "duration": 0.32640649999996185
                },
                {
                    "name": "A#3",
                    "midi": 58,
                    "time": 579.0451310000107,
                    "velocity": 0.2677165354330709,
                    "duration": 0.32640649999996185
                },
                {
                    "name": "G3",
                    "midi": 55,
                    "time": 579.0451310000107,
                    "velocity": 0.2677165354330709,
                    "duration": 0.32640649999996185
                },
                {
                    "name": "E3",
                    "midi": 52,
                    "time": 579.0451310000107,
                    "velocity": 0.2677165354330709,
                    "duration": 0.32640649999996185
                },
                {
                    "name": "F2",
                    "midi": 41,
                    "time": 579.6979440000106,
                    "velocity": 0.7401574803149606,
                    "duration": 0.32640649999996185
                },
                {
                    "name": "C4",
                    "midi": 60,
                    "time": 580.3507570000105,
                    "velocity": 0.7716535433070866,
                    "duration": 0.16320325000003777
                },
                {
                    "name": "G#3",
                    "midi": 56,
                    "time": 580.3507570000105,
                    "velocity": 0.7007874015748031,
                    "duration": 0.16320325000003777
                },
                {
                    "name": "F3",
                    "midi": 53,
                    "time": 580.3507570000105,
                    "velocity": 0.6456692913385826,
                    "duration": 0.16320325000003777
                },
                {
                    "name": "C4",
                    "midi": 60,
                    "time": 581.0035700000105,
                    "velocity": 0.7716535433070866,
                    "duration": 1.305625999999961
                },
                {
                    "name": "G#3",
                    "midi": 56,
                    "time": 581.0035700000105,
                    "velocity": 0.7007874015748031,
                    "duration": 1.305625999999961
                },
                {
                    "name": "F3",
                    "midi": 53,
                    "time": 581.0035700000105,
                    "velocity": 0.6456692913385826,
                    "duration": 1.305625999999961
                },
                {
                    "name": "C2",
                    "midi": 36,
                    "time": 582.3091960000105,
                    "velocity": 0.3700787401574803,
                    "duration": 0.32640649999996185
                },
                {
                    "name": "A#3",
                    "midi": 58,
                    "time": 582.9620090000104,
                    "velocity": 0.31496062992125984,
                    "duration": 0.32640649999996185
                },
                {
                    "name": "G3",
                    "midi": 55,
                    "time": 582.9620090000104,
                    "velocity": 0.2677165354330709,
                    "duration": 0.32640649999996185
                },
                {
                    "name": "E3",
                    "midi": 52,
                    "time": 582.9620090000104,
                    "velocity": 0.2677165354330709,
                    "duration": 0.32640649999996185
                },
                {
                    "name": "C3",
                    "midi": 48,
                    "time": 582.9620090000104,
                    "velocity": 0.2677165354330709,
                    "duration": 0.32640649999996185
                },
                {
                    "name": "C2",
                    "midi": 36,
                    "time": 583.6148220000103,
                    "velocity": 0.3700787401574803,
                    "duration": 0.32640649999996185
                },
                {
                    "name": "A#3",
                    "midi": 58,
                    "time": 584.2676350000103,
                    "velocity": 0.31496062992125984,
                    "duration": 0.32640649999996185
                },
                {
                    "name": "G3",
                    "midi": 55,
                    "time": 584.2676350000103,
                    "velocity": 0.2677165354330709,
                    "duration": 0.32640649999996185
                },
                {
                    "name": "E3",
                    "midi": 52,
                    "time": 584.2676350000103,
                    "velocity": 0.2677165354330709,
                    "duration": 0.32640649999996185
                },
                {
                    "name": "C3",
                    "midi": 48,
                    "time": 584.2676350000103,
                    "velocity": 0.2677165354330709,
                    "duration": 0.32640649999996185
                },
                {
                    "name": "C#2",
                    "midi": 37,
                    "time": 584.9204480000102,
                    "velocity": 0.7401574803149606,
                    "duration": 0.32640649999996185
                },
                {
                    "name": "G#3",
                    "midi": 56,
                    "time": 585.5732610000101,
                    "velocity": 0.6929133858267716,
                    "duration": 0.16320325000003777
                },
                {
                    "name": "F3",
                    "midi": 53,
                    "time": 585.5732610000101,
                    "velocity": 0.6299212598425197,
                    "duration": 0.16320325000003777
                },
                {
                    "name": "C#3",
                    "midi": 49,
                    "time": 585.5732610000101,
                    "velocity": 0.5748031496062992,
                    "duration": 0.16320325000003777
                },
                {
                    "name": "G#3",
                    "midi": 56,
                    "time": 586.2260740000102,
                    "velocity": 0.6929133858267716,
                    "duration": 1.305625999999961
                },
                {
                    "name": "F3",
                    "midi": 53,
                    "time": 586.2260740000102,
                    "velocity": 0.6299212598425197,
                    "duration": 1.305625999999961
                },
                {
                    "name": "C#3",
                    "midi": 49,
                    "time": 586.2260740000102,
                    "velocity": 0.5748031496062992,
                    "duration": 1.305625999999961
                },
                {
                    "name": "G#1",
                    "midi": 32,
                    "time": 587.5317000000101,
                    "velocity": 0.3700787401574803,
                    "duration": 0.32640649999996185
                },
                {
                    "name": "F#3",
                    "midi": 54,
                    "time": 588.18451300001,
                    "velocity": 0.31496062992125984,
                    "duration": 0.32640649999996185
                },
                {
                    "name": "D#3",
                    "midi": 51,
                    "time": 588.18451300001,
                    "velocity": 0.2677165354330709,
                    "duration": 0.32640649999996185
                },
                {
                    "name": "C3",
                    "midi": 48,
                    "time": 588.18451300001,
                    "velocity": 0.2677165354330709,
                    "duration": 0.32640649999996185
                },
                {
                    "name": "G#2",
                    "midi": 44,
                    "time": 588.18451300001,
                    "velocity": 0.2677165354330709,
                    "duration": 0.32640649999996185
                },
                {
                    "name": "A1",
                    "midi": 33,
                    "time": 588.83732600001,
                    "velocity": 0.3700787401574803,
                    "duration": 0.32640649999996185
                },
                {
                    "name": "F#3",
                    "midi": 54,
                    "time": 589.4901390000099,
                    "velocity": 0.31496062992125984,
                    "duration": 0.32640649999996185
                },
                {
                    "name": "D#3",
                    "midi": 51,
                    "time": 589.4901390000099,
                    "velocity": 0.2677165354330709,
                    "duration": 0.32640649999996185
                },
                {
                    "name": "C3",
                    "midi": 48,
                    "time": 589.4901390000099,
                    "velocity": 0.2677165354330709,
                    "duration": 0.32640649999996185
                },
                {
                    "name": "A2",
                    "midi": 45,
                    "time": 589.4901390000099,
                    "velocity": 0.2677165354330709,
                    "duration": 0.32640649999996185
                },
                {
                    "name": "A#1",
                    "midi": 34,
                    "time": 590.1429520000098,
                    "velocity": 0.4566929133858268,
                    "duration": 0.2176043333333837
                },
                {
                    "name": "F3",
                    "midi": 53,
                    "time": 590.7957650000099,
                    "velocity": 0.25196850393700787,
                    "duration": 0.32640649999996185
                },
                {
                    "name": "C#3",
                    "midi": 49,
                    "time": 590.7957650000099,
                    "velocity": 0.2125984251968504,
                    "duration": 0.32640649999996185
                },
                {
                    "name": "A#2",
                    "midi": 46,
                    "time": 590.7957650000099,
                    "velocity": 0.2125984251968504,
                    "duration": 0.32640649999996185
                },
                {
                    "name": "A#2",
                    "midi": 46,
                    "time": 591.4485780000098,
                    "velocity": 0.2125984251968504,
                    "duration": 1.305625999999961
                },
                {
                    "name": "C#3",
                    "midi": 49,
                    "time": 591.4485780000098,
                    "velocity": 0.2125984251968504,
                    "duration": 1.305625999999961
                },
                {
                    "name": "F3",
                    "midi": 53,
                    "time": 591.4485780000098,
                    "velocity": 0.25196850393700787,
                    "duration": 1.305625999999961
                },
                {
                    "name": "G#1",
                    "midi": 32,
                    "time": 592.7542040000097,
                    "velocity": 0.4566929133858268,
                    "duration": 0.2176043333333837
                },
                {
                    "name": "F3",
                    "midi": 53,
                    "time": 593.4070170000098,
                    "velocity": 0.25196850393700787,
                    "duration": 0.32640649999996185
                },
                {
                    "name": "C3",
                    "midi": 48,
                    "time": 593.4070170000098,
                    "velocity": 0.2125984251968504,
                    "duration": 0.32640649999996185
                },
                {
                    "name": "G#2",
                    "midi": 44,
                    "time": 593.4070170000098,
                    "velocity": 0.2125984251968504,
                    "duration": 0.32640649999996185
                },
                {
                    "name": "G#2",
                    "midi": 44,
                    "time": 594.0598300000097,
                    "velocity": 0.2125984251968504,
                    "duration": 1.305625999999961
                },
                {
                    "name": "C3",
                    "midi": 48,
                    "time": 594.0598300000097,
                    "velocity": 0.2125984251968504,
                    "duration": 1.305625999999961
                },
                {
                    "name": "F3",
                    "midi": 53,
                    "time": 594.0598300000097,
                    "velocity": 0.25196850393700787,
                    "duration": 1.305625999999961
                },
                {
                    "name": "G1",
                    "midi": 31,
                    "time": 595.3654560000097,
                    "velocity": 0.4566929133858268,
                    "duration": 0.2176043333333837
                },
                {
                    "name": "G2",
                    "midi": 43,
                    "time": 596.0182690000097,
                    "velocity": 0.2125984251968504,
                    "duration": 0.32640649999996185
                },
                {
                    "name": "F3",
                    "midi": 53,
                    "time": 596.0182690000097,
                    "velocity": 0.25196850393700787,
                    "duration": 0.32640649999996185
                },
                {
                    "name": "D3",
                    "midi": 50,
                    "time": 596.0182690000097,
                    "velocity": 0.2125984251968504,
                    "duration": 0.32640649999996185
                },
                {
                    "name": "B2",
                    "midi": 47,
                    "time": 596.0182690000097,
                    "velocity": 0.2125984251968504,
                    "duration": 0.32640649999996185
                },
                {
                    "name": "G2",
                    "midi": 43,
                    "time": 596.6710820000096,
                    "velocity": 0.2125984251968504,
                    "duration": 1.305625999999961
                },
                {
                    "name": "B2",
                    "midi": 47,
                    "time": 596.6710820000096,
                    "velocity": 0.2125984251968504,
                    "duration": 1.305625999999961
                },
                {
                    "name": "D3",
                    "midi": 50,
                    "time": 596.6710820000096,
                    "velocity": 0.2125984251968504,
                    "duration": 1.305625999999961
                },
                {
                    "name": "F3",
                    "midi": 53,
                    "time": 596.6710820000096,
                    "velocity": 0.25196850393700787,
                    "duration": 1.305625999999961
                },
                {
                    "name": "G#1",
                    "midi": 32,
                    "time": 597.9767080000096,
                    "velocity": 0.4566929133858268,
                    "duration": 0.2176043333333837
                },
                {
                    "name": "D#3",
                    "midi": 51,
                    "time": 598.6295210000096,
                    "velocity": 0.25196850393700787,
                    "duration": 0.32640649999996185
                },
                {
                    "name": "C3",
                    "midi": 48,
                    "time": 598.6295210000096,
                    "velocity": 0.2125984251968504,
                    "duration": 0.32640649999996185
                },
                {
                    "name": "G#2",
                    "midi": 44,
                    "time": 598.6295210000096,
                    "velocity": 0.2125984251968504,
                    "duration": 0.32640649999996185
                },
                {
                    "name": "G#2",
                    "midi": 44,
                    "time": 599.2823340000095,
                    "velocity": 0.2125984251968504,
                    "duration": 1.305625999999961
                },
                {
                    "name": "C3",
                    "midi": 48,
                    "time": 599.2823340000095,
                    "velocity": 0.2125984251968504,
                    "duration": 1.305625999999961
                },
                {
                    "name": "D#3",
                    "midi": 51,
                    "time": 599.2823340000095,
                    "velocity": 0.25196850393700787,
                    "duration": 1.305625999999961
                },
                {
                    "name": "A1",
                    "midi": 33,
                    "time": 600.5879600000095,
                    "velocity": 0.3228346456692913,
                    "duration": 0.2176043333333837
                },
                {
                    "name": "C2",
                    "midi": 36,
                    "time": 600.8055643333429,
                    "velocity": 0.29133858267716534,
                    "duration": 0.2176043333333837
                },
                {
                    "name": "D#2",
                    "midi": 39,
                    "time": 601.0231686666763,
                    "velocity": 0.29133858267716534,
                    "duration": 0.2176043333333837
                },
                {
                    "name": "F#2",
                    "midi": 42,
                    "time": 601.2407730000097,
                    "velocity": 0.3228346456692913,
                    "duration": 0.2176043333333837
                },
                {
                    "name": "A2",
                    "midi": 45,
                    "time": 601.458377333343,
                    "velocity": 0.29133858267716534,
                    "duration": 0.2176043333333837
                },
                {
                    "name": "C3",
                    "midi": 48,
                    "time": 601.6759816666764,
                    "velocity": 0.29133858267716534,
                    "duration": 0.2176043333333837
                },
                {
                    "name": "D#3",
                    "midi": 51,
                    "time": 601.8935860000098,
                    "velocity": 0.3228346456692913,
                    "duration": 0.2176043333333837
                },
                {
                    "name": "F#3",
                    "midi": 54,
                    "time": 602.1111903333432,
                    "velocity": 0.2992125984251969,
                    "duration": 0.2176043333333837
                },
                {
                    "name": "A3",
                    "midi": 57,
                    "time": 602.3287946666766,
                    "velocity": 0.30708661417322836,
                    "duration": 0.2176043333333837
                },
                {
                    "name": "G1",
                    "midi": 31,
                    "time": 605.8104640000099,
                    "velocity": 0.3228346456692913,
                    "duration": 0.32640649999996185
                },
                {
                    "name": "C2",
                    "midi": 36,
                    "time": 605.8104640000099,
                    "velocity": 0.3228346456692913,
                    "duration": 0.32640649999996185
                },
                {
                    "name": "E2",
                    "midi": 40,
                    "time": 605.8104640000099,
                    "velocity": 0.3228346456692913,
                    "duration": 0.32640649999996185
                },
                {
                    "name": "G2",
                    "midi": 43,
                    "time": 605.8104640000099,
                    "velocity": 0.3228346456692913,
                    "duration": 0.32640649999996185
                },
                {
                    "name": "G1",
                    "midi": 31,
                    "time": 608.5849192500099,
                    "velocity": 0.2283464566929134,
                    "duration": 0.17680352083334583
                },
                {
                    "name": "G2",
                    "midi": 43,
                    "time": 608.5849192500099,
                    "velocity": 0.2755905511811024,
                    "duration": 0.17680352083334583
                },
                {
                    "name": "A1",
                    "midi": 33,
                    "time": 608.7481225000099,
                    "velocity": 0.2283464566929134,
                    "duration": 0.17680352083323214
                },
                {
                    "name": "A2",
                    "midi": 45,
                    "time": 608.7481225000099,
                    "velocity": 0.2755905511811024,
                    "duration": 0.17680352083323214
                },
                {
                    "name": "B1",
                    "midi": 35,
                    "time": 608.9113257500098,
                    "velocity": 0.23622047244094488,
                    "duration": 0.17680352083323214
                },
                {
                    "name": "B2",
                    "midi": 47,
                    "time": 608.9113257500098,
                    "velocity": 0.28346456692913385,
                    "duration": 0.17680352083323214
                },
                {
                    "name": "C2",
                    "midi": 36,
                    "time": 609.0745290000098,
                    "velocity": 0.2440944881889764,
                    "duration": 0.17680352083323214
                },
                {
                    "name": "C3",
                    "midi": 48,
                    "time": 609.0745290000098,
                    "velocity": 0.29133858267716534,
                    "duration": 0.17680352083323214
                },
                {
                    "name": "D2",
                    "midi": 38,
                    "time": 609.2377322500097,
                    "velocity": 0.2440944881889764,
                    "duration": 0.17680352083323214
                },
                {
                    "name": "D3",
                    "midi": 50,
                    "time": 609.2377322500097,
                    "velocity": 0.29133858267716534,
                    "duration": 0.17680352083323214
                },
                {
                    "name": "E2",
                    "midi": 40,
                    "time": 609.4009355000096,
                    "velocity": 0.25196850393700787,
                    "duration": 0.17680352083323214
                },
                {
                    "name": "E3",
                    "midi": 52,
                    "time": 609.4009355000096,
                    "velocity": 0.2992125984251969,
                    "duration": 0.17680352083323214
                },
                {
                    "name": "F2",
                    "midi": 41,
                    "time": 609.5641387500095,
                    "velocity": 0.25196850393700787,
                    "duration": 0.17680352083323214
                },
                {
                    "name": "F3",
                    "midi": 53,
                    "time": 609.5641387500095,
                    "velocity": 0.2992125984251969,
                    "duration": 0.17680352083323214
                },
                {
                    "name": "G2",
                    "midi": 43,
                    "time": 609.7273420000095,
                    "velocity": 0.25984251968503935,
                    "duration": 0.32640649999996185
                },
                {
                    "name": "G3",
                    "midi": 55,
                    "time": 609.7273420000095,
                    "velocity": 0.30708661417322836,
                    "duration": 0.32640649999996185
                },
                {
                    "name": "A2",
                    "midi": 45,
                    "time": 610.0537485000094,
                    "velocity": 0.2440944881889764,
                    "duration": 0.17680352083334583
                },
                {
                    "name": "A3",
                    "midi": 57,
                    "time": 610.0537485000094,
                    "velocity": 0.29133858267716534,
                    "duration": 0.17680352083334583
                },
                {
                    "name": "B2",
                    "midi": 47,
                    "time": 610.2169517500095,
                    "velocity": 0.25196850393700787,
                    "duration": 0.17680352083323214
                },
                {
                    "name": "B3",
                    "midi": 59,
                    "time": 610.2169517500095,
                    "velocity": 0.2992125984251969,
                    "duration": 0.17680352083323214
                },
                {
                    "name": "C3",
                    "midi": 48,
                    "time": 610.3801550000094,
                    "velocity": 0.25984251968503935,
                    "duration": 0.17680352083323214
                },
                {
                    "name": "C4",
                    "midi": 60,
                    "time": 610.3801550000094,
                    "velocity": 0.30708661417322836,
                    "duration": 0.17680352083323214
                },
                {
                    "name": "D3",
                    "midi": 50,
                    "time": 610.5433582500093,
                    "velocity": 0.2677165354330709,
                    "duration": 0.17680352083323214
                },
                {
                    "name": "D4",
                    "midi": 62,
                    "time": 610.5433582500093,
                    "velocity": 0.31496062992125984,
                    "duration": 0.17680352083323214
                },
                {
                    "name": "E3",
                    "midi": 52,
                    "time": 610.7065615000092,
                    "velocity": 0.2755905511811024,
                    "duration": 0.17680352083323214
                },
                {
                    "name": "E4",
                    "midi": 64,
                    "time": 610.7065615000092,
                    "velocity": 0.33070866141732286,
                    "duration": 0.17680352083323214
                },
                {
                    "name": "F3",
                    "midi": 53,
                    "time": 610.8697647500092,
                    "velocity": 0.28346456692913385,
                    "duration": 0.17680352083323214
                },
                {
                    "name": "F4",
                    "midi": 65,
                    "time": 610.8697647500092,
                    "velocity": 0.33858267716535434,
                    "duration": 0.17680352083323214
                },
                {
                    "name": "G3",
                    "midi": 55,
                    "time": 611.0329680000091,
                    "velocity": 0.29133858267716534,
                    "duration": 0.32640649999996185
                },
                {
                    "name": "G4",
                    "midi": 67,
                    "time": 611.0329680000091,
                    "velocity": 0.3464566929133858,
                    "duration": 0.32640649999996185
                },
                {
                    "name": "G1",
                    "midi": 31,
                    "time": 613.807423250009,
                    "velocity": 0.2283464566929134,
                    "duration": 0.17680352083334583
                },
                {
                    "name": "G2",
                    "midi": 43,
                    "time": 613.807423250009,
                    "velocity": 0.2755905511811024,
                    "duration": 0.17680352083334583
                },
                {
                    "name": "A1",
                    "midi": 33,
                    "time": 613.9706265000091,
                    "velocity": 0.2283464566929134,
                    "duration": 0.17680352083323214
                },
                {
                    "name": "A2",
                    "midi": 45,
                    "time": 613.9706265000091,
                    "velocity": 0.2755905511811024,
                    "duration": 0.17680352083323214
                },
                {
                    "name": "B1",
                    "midi": 35,
                    "time": 614.133829750009,
                    "velocity": 0.23622047244094488,
                    "duration": 0.17680352083323214
                },
                {
                    "name": "B2",
                    "midi": 47,
                    "time": 614.133829750009,
                    "velocity": 0.28346456692913385,
                    "duration": 0.17680352083323214
                },
                {
                    "name": "C2",
                    "midi": 36,
                    "time": 614.2970330000089,
                    "velocity": 0.2440944881889764,
                    "duration": 0.17680352083323214
                },
                {
                    "name": "C3",
                    "midi": 48,
                    "time": 614.2970330000089,
                    "velocity": 0.29133858267716534,
                    "duration": 0.17680352083323214
                },
                {
                    "name": "D2",
                    "midi": 38,
                    "time": 614.4602362500088,
                    "velocity": 0.2440944881889764,
                    "duration": 0.17680352083323214
                },
                {
                    "name": "D3",
                    "midi": 50,
                    "time": 614.4602362500088,
                    "velocity": 0.29133858267716534,
                    "duration": 0.17680352083323214
                },
                {
                    "name": "E2",
                    "midi": 40,
                    "time": 614.6234395000088,
                    "velocity": 0.25196850393700787,
                    "duration": 0.17680352083323214
                },
                {
                    "name": "E3",
                    "midi": 52,
                    "time": 614.6234395000088,
                    "velocity": 0.2992125984251969,
                    "duration": 0.17680352083323214
                },
                {
                    "name": "F2",
                    "midi": 41,
                    "time": 614.7866427500087,
                    "velocity": 0.25196850393700787,
                    "duration": 0.17680352083323214
                },
                {
                    "name": "F3",
                    "midi": 53,
                    "time": 614.7866427500087,
                    "velocity": 0.2992125984251969,
                    "duration": 0.17680352083323214
                },
                {
                    "name": "G2",
                    "midi": 43,
                    "time": 614.9498460000086,
                    "velocity": 0.25984251968503935,
                    "duration": 0.32640649999996185
                },
                {
                    "name": "G3",
                    "midi": 55,
                    "time": 614.9498460000086,
                    "velocity": 0.30708661417322836,
                    "duration": 0.32640649999996185
                },
                {
                    "name": "A2",
                    "midi": 45,
                    "time": 615.2762525000086,
                    "velocity": 0.2440944881889764,
                    "duration": 0.17680352083334583
                },
                {
                    "name": "A3",
                    "midi": 57,
                    "time": 615.2762525000086,
                    "velocity": 0.29133858267716534,
                    "duration": 0.17680352083334583
                },
                {
                    "name": "B2",
                    "midi": 47,
                    "time": 615.4394557500086,
                    "velocity": 0.25196850393700787,
                    "duration": 0.17680352083323214
                },
                {
                    "name": "B3",
                    "midi": 59,
                    "time": 615.4394557500086,
                    "velocity": 0.2992125984251969,
                    "duration": 0.17680352083323214
                },
                {
                    "name": "C3",
                    "midi": 48,
                    "time": 615.6026590000085,
                    "velocity": 0.25984251968503935,
                    "duration": 0.17680352083323214
                },
                {
                    "name": "C4",
                    "midi": 60,
                    "time": 615.6026590000085,
                    "velocity": 0.30708661417322836,
                    "duration": 0.17680352083323214
                },
                {
                    "name": "D3",
                    "midi": 50,
                    "time": 615.7658622500085,
                    "velocity": 0.2677165354330709,
                    "duration": 0.17680352083323214
                },
                {
                    "name": "D4",
                    "midi": 62,
                    "time": 615.7658622500085,
                    "velocity": 0.31496062992125984,
                    "duration": 0.17680352083323214
                },
                {
                    "name": "E3",
                    "midi": 52,
                    "time": 615.9290655000084,
                    "velocity": 0.2755905511811024,
                    "duration": 0.17680352083323214
                },
                {
                    "name": "E4",
                    "midi": 64,
                    "time": 615.9290655000084,
                    "velocity": 0.33070866141732286,
                    "duration": 0.17680352083323214
                },
                {
                    "name": "F3",
                    "midi": 53,
                    "time": 616.0922687500083,
                    "velocity": 0.28346456692913385,
                    "duration": 0.17680352083323214
                },
                {
                    "name": "F4",
                    "midi": 65,
                    "time": 616.0922687500083,
                    "velocity": 0.33858267716535434,
                    "duration": 0.17680352083323214
                },
                {
                    "name": "G3",
                    "midi": 55,
                    "time": 616.2554720000082,
                    "velocity": 0.29133858267716534,
                    "duration": 0.32640649999996185
                },
                {
                    "name": "G4",
                    "midi": 67,
                    "time": 616.2554720000082,
                    "velocity": 0.3464566929133858,
                    "duration": 0.32640649999996185
                },
                {
                    "name": "G3",
                    "midi": 55,
                    "time": 619.0299272500082,
                    "velocity": 0.2755905511811024,
                    "duration": 0.17680352083334583
                },
                {
                    "name": "F3",
                    "midi": 53,
                    "time": 619.1931305000082,
                    "velocity": 0.29133858267716534,
                    "duration": 0.17680352083323214
                },
                {
                    "name": "E3",
                    "midi": 52,
                    "time": 619.3563337500082,
                    "velocity": 0.2992125984251969,
                    "duration": 0.17680352083323214
                },
                {
                    "name": "D3",
                    "midi": 50,
                    "time": 619.5195370000081,
                    "velocity": 0.31496062992125984,
                    "duration": 0.17680352083323214
                },
                {
                    "name": "C3",
                    "midi": 48,
                    "time": 619.682740250008,
                    "velocity": 0.3228346456692913,
                    "duration": 0.17680352083323214
                },
                {
                    "name": "B2",
                    "midi": 47,
                    "time": 619.8459435000079,
                    "velocity": 0.33858267716535434,
                    "duration": 0.17680352083323214
                },
                {
                    "name": "A2",
                    "midi": 45,
                    "time": 620.0091467500079,
                    "velocity": 0.3464566929133858,
                    "duration": 0.17680352083323214
                },
                {
                    "name": "G2",
                    "midi": 43,
                    "time": 620.1723500000078,
                    "velocity": 0.36220472440944884,
                    "duration": 0.32640649999996185
                },
                {
                    "name": "F2",
                    "midi": 41,
                    "time": 620.4987565000077,
                    "velocity": 0.3700787401574803,
                    "duration": 0.17680352083334583
                },
                {
                    "name": "E2",
                    "midi": 40,
                    "time": 620.6619597500078,
                    "velocity": 0.3779527559055118,
                    "duration": 0.17680352083323214
                },
                {
                    "name": "D2",
                    "midi": 38,
                    "time": 620.8251630000077,
                    "velocity": 0.3937007874015748,
                    "duration": 0.17680352083323214
                },
                {
                    "name": "C2",
                    "midi": 36,
                    "time": 620.9883662500076,
                    "velocity": 0.4015748031496063,
                    "duration": 0.17680352083323214
                },
                {
                    "name": "B1",
                    "midi": 35,
                    "time": 621.1515695000076,
                    "velocity": 0.41732283464566927,
                    "duration": 0.17680352083323214
                },
                {
                    "name": "A1",
                    "midi": 33,
                    "time": 621.3147727500075,
                    "velocity": 0.4251968503937008,
                    "duration": 0.17680352083323214
                },
                {
                    "name": "G1",
                    "midi": 31,
                    "time": 621.4779760000074,
                    "velocity": 0.44881889763779526,
                    "duration": 0.17680352083323214
                },
                {
                    "name": "A1",
                    "midi": 33,
                    "time": 621.6411792500073,
                    "velocity": 0.44881889763779526,
                    "duration": 0.17680352083323214
                },
                {
                    "name": "B1",
                    "midi": 35,
                    "time": 621.8043825000073,
                    "velocity": 0.4566929133858268,
                    "duration": 0.17680352083323214
                },
                {
                    "name": "C2",
                    "midi": 36,
                    "time": 621.9675857500072,
                    "velocity": 0.4566929133858268,
                    "duration": 0.17680352083323214
                },
                {
                    "name": "D2",
                    "midi": 38,
                    "time": 622.1307890000071,
                    "velocity": 0.4645669291338583,
                    "duration": 0.17680352083323214
                },
                {
                    "name": "E2",
                    "midi": 40,
                    "time": 622.293992250007,
                    "velocity": 0.4645669291338583,
                    "duration": 0.17680352083323214
                },
                {
                    "name": "F2",
                    "midi": 41,
                    "time": 622.457195500007,
                    "velocity": 0.47244094488188976,
                    "duration": 0.17680352083323214
                },
                {
                    "name": "F#2",
                    "midi": 42,
                    "time": 622.6203987500069,
                    "velocity": 0.47244094488188976,
                    "duration": 0.17680352083323214
                },
                {
                    "name": "G2",
                    "midi": 43,
                    "time": 622.7836020000068,
                    "velocity": 0.48031496062992124,
                    "duration": 0.17680352083323214
                },
                {
                    "name": "A2",
                    "midi": 45,
                    "time": 622.9468052500067,
                    "velocity": 0.48031496062992124,
                    "duration": 0.17680352083323214
                },
                {
                    "name": "B2",
                    "midi": 47,
                    "time": 623.1100085000066,
                    "velocity": 0.4881889763779528,
                    "duration": 0.17680352083323214
                },
                {
                    "name": "C3",
                    "midi": 48,
                    "time": 623.2732117500066,
                    "velocity": 0.4881889763779528,
                    "duration": 0.17680352083323214
                },
                {
                    "name": "D3",
                    "midi": 50,
                    "time": 623.4364150000065,
                    "velocity": 0.49606299212598426,
                    "duration": 0.17680352083323214
                },
                {
                    "name": "E3",
                    "midi": 52,
                    "time": 623.5996182500064,
                    "velocity": 0.49606299212598426,
                    "duration": 0.17680352083323214
                },
                {
                    "name": "F3",
                    "midi": 53,
                    "time": 623.7628215000063,
                    "velocity": 0.5039370078740157,
                    "duration": 0.17680352083323214
                },
                {
                    "name": "F#3",
                    "midi": 54,
                    "time": 623.9260247500063,
                    "velocity": 0.5039370078740157,
                    "duration": 0.17680352083323214
                },
                {
                    "name": "G3",
                    "midi": 55,
                    "time": 624.0892280000062,
                    "velocity": 0.5039370078740157,
                    "duration": 0.17680352083323214
                },
                {
                    "name": "A3",
                    "midi": 57,
                    "time": 624.2524312500061,
                    "velocity": 0.5039370078740157,
                    "duration": 0.17680352083323214
                },
                {
                    "name": "B3",
                    "midi": 59,
                    "time": 624.415634500006,
                    "velocity": 0.5118110236220472,
                    "duration": 0.17680352083323214
                },
                {
                    "name": "C4",
                    "midi": 60,
                    "time": 624.578837750006,
                    "velocity": 0.5118110236220472,
                    "duration": 0.17680352083323214
                },
                {
                    "name": "D4",
                    "midi": 62,
                    "time": 624.7420410000059,
                    "velocity": 0.5196850393700787,
                    "duration": 0.17680352083323214
                },
                {
                    "name": "E4",
                    "midi": 64,
                    "time": 624.9052442500058,
                    "velocity": 0.5196850393700787,
                    "duration": 0.17680352083323214
                },
                {
                    "name": "F4",
                    "midi": 65,
                    "time": 625.0684475000057,
                    "velocity": 0.5275590551181102,
                    "duration": 0.17680352083323214
                },
                {
                    "name": "F#4",
                    "midi": 66,
                    "time": 625.2316507500057,
                    "velocity": 0.5275590551181102,
                    "duration": 0.17680352083323214
                },
                {
                    "name": "G4",
                    "midi": 67,
                    "time": 625.3948540000056,
                    "velocity": 0.5354330708661418,
                    "duration": 0.17680352083323214
                },
                {
                    "name": "A4",
                    "midi": 69,
                    "time": 625.5580572500055,
                    "velocity": 0.5196850393700787,
                    "duration": 0.17680352083323214
                },
                {
                    "name": "B4",
                    "midi": 71,
                    "time": 625.7212605000054,
                    "velocity": 0.5118110236220472,
                    "duration": 0.17680352083323214
                },
                {
                    "name": "C5",
                    "midi": 72,
                    "time": 625.8844637500054,
                    "velocity": 0.49606299212598426,
                    "duration": 0.17680352083323214
                },
                {
                    "name": "D5",
                    "midi": 74,
                    "time": 626.0476670000053,
                    "velocity": 0.4881889763779528,
                    "duration": 0.17680352083323214
                },
                {
                    "name": "E5",
                    "midi": 76,
                    "time": 626.2108702500052,
                    "velocity": 0.44881889763779526,
                    "duration": 0.17680352083323214
                },
                {
                    "name": "F5",
                    "midi": 77,
                    "time": 626.3740735000051,
                    "velocity": 0.4330708661417323,
                    "duration": 0.17680352083323214
                },
                {
                    "name": "E5",
                    "midi": 76,
                    "time": 626.537276750005,
                    "velocity": 0.41732283464566927,
                    "duration": 0.17680352083323214
                },
                {
                    "name": "F5",
                    "midi": 77,
                    "time": 626.700480000005,
                    "velocity": 0.4409448818897638,
                    "duration": 0.32640649999996185
                },
                {
                    "name": "E5",
                    "midi": 76,
                    "time": 627.5164962500049,
                    "velocity": 0.33858267716535434,
                    "duration": 0.16320325000003777
                },
                {
                    "name": "F5",
                    "midi": 77,
                    "time": 627.679699500005,
                    "velocity": 0.36220472440944884,
                    "duration": 0.16320325000003777
                },
                {
                    "name": "E5",
                    "midi": 76,
                    "time": 627.842902750005,
                    "velocity": 0.33858267716535434,
                    "duration": 0.16320325000003777
                },
                {
                    "name": "F5",
                    "midi": 77,
                    "time": 628.006106000005,
                    "velocity": 0.4015748031496063,
                    "duration": 0.32640649999996185
                },
                {
                    "name": "E5",
                    "midi": 76,
                    "time": 628.822122250005,
                    "velocity": 0.33070866141732286,
                    "duration": 0.16320325000003777
                },
                {
                    "name": "F5",
                    "midi": 77,
                    "time": 628.985325500005,
                    "velocity": 0.36220472440944884,
                    "duration": 0.16320325000003777
                },
                {
                    "name": "E5",
                    "midi": 76,
                    "time": 629.1485287500051,
                    "velocity": 0.33070866141732286,
                    "duration": 0.16320325000003777
                },
                {
                    "name": "F5",
                    "midi": 77,
                    "time": 629.3117320000051,
                    "velocity": 0.3937007874015748,
                    "duration": 0.32640649999996185
                },
                {
                    "name": "C3",
                    "midi": 48,
                    "time": 631.922984000005,
                    "velocity": 0.4015748031496063,
                    "duration": 0.2176043333333837
                },
                {
                    "name": "G3",
                    "midi": 55,
                    "time": 632.1405883333384,
                    "velocity": 0.2440944881889764,
                    "duration": 0.2176043333333837
                },
                {
                    "name": "C4",
                    "midi": 60,
                    "time": 632.3581926666718,
                    "velocity": 0.2440944881889764,
                    "duration": 0.2176043333333837
                },
                {
                    "name": "E4",
                    "midi": 64,
                    "time": 632.5757970000052,
                    "velocity": 0.25984251968503935,
                    "duration": 0.2176043333333837
                },
                {
                    "name": "C4",
                    "midi": 60,
                    "time": 632.7934013333386,
                    "velocity": 0.2440944881889764,
                    "duration": 0.2176043333333837
                },
                {
                    "name": "E4",
                    "midi": 64,
                    "time": 633.011005666672,
                    "velocity": 0.2440944881889764,
                    "duration": 0.2176043333333837
                },
                {
                    "name": "G4",
                    "midi": 67,
                    "time": 633.2286100000053,
                    "velocity": 0.2755905511811024,
                    "duration": 0.2176043333333837
                },
                {
                    "name": "E4",
                    "midi": 64,
                    "time": 633.4462143333387,
                    "velocity": 0.2440944881889764,
                    "duration": 0.2176043333333837
                },
                {
                    "name": "G4",
                    "midi": 67,
                    "time": 633.6638186666721,
                    "velocity": 0.2440944881889764,
                    "duration": 0.2176043333333837
                },
                {
                    "name": "E4",
                    "midi": 64,
                    "time": 633.8814230000055,
                    "velocity": 0.2755905511811024,
                    "duration": 0.2176043333333837
                },
                {
                    "name": "C4",
                    "midi": 60,
                    "time": 634.0990273333389,
                    "velocity": 0.2440944881889764,
                    "duration": 0.2176043333333837
                },
                {
                    "name": "E4",
                    "midi": 64,
                    "time": 634.3166316666723,
                    "velocity": 0.2440944881889764,
                    "duration": 0.2176043333333837
                },
                {
                    "name": "F4",
                    "midi": 65,
                    "time": 634.5342360000056,
                    "velocity": 0.2755905511811024,
                    "duration": 0.2176043333333837
                },
                {
                    "name": "D4",
                    "midi": 62,
                    "time": 634.751840333339,
                    "velocity": 0.2440944881889764,
                    "duration": 0.2176043333333837
                },
                {
                    "name": "F4",
                    "midi": 65,
                    "time": 634.9694446666724,
                    "velocity": 0.2440944881889764,
                    "duration": 0.2176043333333837
                },
                {
                    "name": "D4",
                    "midi": 62,
                    "time": 635.1870490000058,
                    "velocity": 0.28346456692913385,
                    "duration": 0.2176043333333837
                },
                {
                    "name": "B3",
                    "midi": 59,
                    "time": 635.4046533333392,
                    "velocity": 0.2440944881889764,
                    "duration": 0.2176043333333837
                },
                {
                    "name": "D4",
                    "midi": 62,
                    "time": 635.6222576666726,
                    "velocity": 0.2440944881889764,
                    "duration": 0.2176043333333837
                },
                {
                    "name": "E4",
                    "midi": 64,
                    "time": 635.839862000006,
                    "velocity": 0.2755905511811024,
                    "duration": 0.2176043333333837
                },
                {
                    "name": "C4",
                    "midi": 60,
                    "time": 636.0574663333393,
                    "velocity": 0.2440944881889764,
                    "duration": 0.2176043333333837
                },
                {
                    "name": "G3",
                    "midi": 55,
                    "time": 636.2750706666727,
                    "velocity": 0.2440944881889764,
                    "duration": 0.2176043333333837
                },
                {
                    "name": "C4",
                    "midi": 60,
                    "time": 636.4926750000061,
                    "velocity": 0.2755905511811024,
                    "duration": 0.2176043333333837
                },
                {
                    "name": "G3",
                    "midi": 55,
                    "time": 636.7102793333395,
                    "velocity": 0.2440944881889764,
                    "duration": 0.2176043333333837
                },
                {
                    "name": "E3",
                    "midi": 52,
                    "time": 636.9278836666729,
                    "velocity": 0.2440944881889764,
                    "duration": 0.2176043333333837
                },
                {
                    "name": "C3",
                    "midi": 48,
                    "time": 637.1454880000063,
                    "velocity": 0.3858267716535433,
                    "duration": 0.2176043333333837
                },
                {
                    "name": "G3",
                    "midi": 55,
                    "time": 637.3630923333396,
                    "velocity": 0.2440944881889764,
                    "duration": 0.2176043333333837
                },
                {
                    "name": "C4",
                    "midi": 60,
                    "time": 637.580696666673,
                    "velocity": 0.2440944881889764,
                    "duration": 0.2176043333333837
                },
                {
                    "name": "E4",
                    "midi": 64,
                    "time": 637.7983010000064,
                    "velocity": 0.25984251968503935,
                    "duration": 0.2176043333333837
                },
                {
                    "name": "C4",
                    "midi": 60,
                    "time": 638.0159053333398,
                    "velocity": 0.2440944881889764,
                    "duration": 0.2176043333333837
                },
                {
                    "name": "E4",
                    "midi": 64,
                    "time": 638.2335096666732,
                    "velocity": 0.2440944881889764,
                    "duration": 0.2176043333333837
                },
                {
                    "name": "G4",
                    "midi": 67,
                    "time": 638.4511140000066,
                    "velocity": 0.2755905511811024,
                    "duration": 0.2176043333333837
                },
                {
                    "name": "E4",
                    "midi": 64,
                    "time": 638.6687183333399,
                    "velocity": 0.2440944881889764,
                    "duration": 0.2176043333333837
                },
                {
                    "name": "G4",
                    "midi": 67,
                    "time": 638.8863226666733,
                    "velocity": 0.2440944881889764,
                    "duration": 0.2176043333333837
                },
                {
                    "name": "E4",
                    "midi": 64,
                    "time": 639.1039270000067,
                    "velocity": 0.2755905511811024,
                    "duration": 0.2176043333333837
                },
                {
                    "name": "C4",
                    "midi": 60,
                    "time": 639.3215313333401,
                    "velocity": 0.2440944881889764,
                    "duration": 0.2176043333333837
                },
                {
                    "name": "E4",
                    "midi": 64,
                    "time": 639.5391356666735,
                    "velocity": 0.2440944881889764,
                    "duration": 0.2176043333333837
                },
                {
                    "name": "F4",
                    "midi": 65,
                    "time": 639.7567400000069,
                    "velocity": 0.2755905511811024,
                    "duration": 0.2176043333333837
                },
                {
                    "name": "D4",
                    "midi": 62,
                    "time": 639.9743443333402,
                    "velocity": 0.2440944881889764,
                    "duration": 0.2176043333333837
                },
                {
                    "name": "F4",
                    "midi": 65,
                    "time": 640.1919486666736,
                    "velocity": 0.2440944881889764,
                    "duration": 0.2176043333333837
                },
                {
                    "name": "B3",
                    "midi": 59,
                    "time": 640.409553000007,
                    "velocity": 0.28346456692913385,
                    "duration": 0.2176043333333837
                },
                {
                    "name": "D4",
                    "midi": 62,
                    "time": 640.6271573333404,
                    "velocity": 0.2440944881889764,
                    "duration": 0.2176043333333837
                },
                {
                    "name": "B3",
                    "midi": 59,
                    "time": 640.8447616666738,
                    "velocity": 0.2440944881889764,
                    "duration": 0.2176043333333837
                },
                {
                    "name": "C4",
                    "midi": 60,
                    "time": 641.0623660000072,
                    "velocity": 0.2755905511811024,
                    "duration": 0.2176043333333837
                },
                {
                    "name": "A3",
                    "midi": 57,
                    "time": 641.2799703333405,
                    "velocity": 0.2440944881889764,
                    "duration": 0.2176043333333837
                },
                {
                    "name": "G3",
                    "midi": 55,
                    "time": 641.4975746666739,
                    "velocity": 0.2440944881889764,
                    "duration": 0.2176043333333837
                },
                {
                    "name": "F3",
                    "midi": 53,
                    "time": 641.7151790000073,
                    "velocity": 0.2755905511811024,
                    "duration": 0.2176043333333837
                },
                {
                    "name": "E3",
                    "midi": 52,
                    "time": 641.9327833333407,
                    "velocity": 0.2440944881889764,
                    "duration": 0.2176043333333837
                },
                {
                    "name": "D3",
                    "midi": 50,
                    "time": 642.1503876666741,
                    "velocity": 0.2440944881889764,
                    "duration": 0.2176043333333837
                },
                {
                    "name": "C3",
                    "midi": 48,
                    "time": 642.3679920000075,
                    "velocity": 0.49606299212598426,
                    "duration": 0.2176043333333837
                },
                {
                    "name": "G3",
                    "midi": 55,
                    "time": 642.5855963333408,
                    "velocity": 0.2440944881889764,
                    "duration": 0.2176043333333837
                },
                {
                    "name": "C4",
                    "midi": 60,
                    "time": 642.8032006666742,
                    "velocity": 0.2440944881889764,
                    "duration": 0.2176043333333837
                },
                {
                    "name": "D#4",
                    "midi": 63,
                    "time": 643.0208050000076,
                    "velocity": 0.25984251968503935,
                    "duration": 0.2176043333333837
                },
                {
                    "name": "C4",
                    "midi": 60,
                    "time": 643.238409333341,
                    "velocity": 0.2440944881889764,
                    "duration": 0.2176043333333837
                },
                {
                    "name": "D#4",
                    "midi": 63,
                    "time": 643.4560136666744,
                    "velocity": 0.2440944881889764,
                    "duration": 0.2176043333333837
                },
                {
                    "name": "G4",
                    "midi": 67,
                    "time": 643.6736180000078,
                    "velocity": 0.2755905511811024,
                    "duration": 0.2176043333333837
                },
                {
                    "name": "D#4",
                    "midi": 63,
                    "time": 643.8912223333411,
                    "velocity": 0.2440944881889764,
                    "duration": 0.2176043333333837
                },
                {
                    "name": "G4",
                    "midi": 67,
                    "time": 644.1088266666745,
                    "velocity": 0.2440944881889764,
                    "duration": 0.2176043333333837
                },
                {
                    "name": "D#4",
                    "midi": 63,
                    "time": 644.3264310000079,
                    "velocity": 0.2755905511811024,
                    "duration": 0.2176043333333837
                },
                {
                    "name": "C4",
                    "midi": 60,
                    "time": 644.5440353333413,
                    "velocity": 0.2440944881889764,
                    "duration": 0.2176043333333837
                },
                {
                    "name": "D#4",
                    "midi": 63,
                    "time": 644.7616396666747,
                    "velocity": 0.2440944881889764,
                    "duration": 0.2176043333333837
                },
                {
                    "name": "F4",
                    "midi": 65,
                    "time": 644.9792440000081,
                    "velocity": 0.2755905511811024,
                    "duration": 0.2176043333333837
                },
                {
                    "name": "D4",
                    "midi": 62,
                    "time": 645.1968483333414,
                    "velocity": 0.2440944881889764,
                    "duration": 0.2176043333333837
                },
                {
                    "name": "F4",
                    "midi": 65,
                    "time": 645.4144526666748,
                    "velocity": 0.2440944881889764,
                    "duration": 0.2176043333333837
                },
                {
                    "name": "D4",
                    "midi": 62,
                    "time": 645.6320570000082,
                    "velocity": 0.28346456692913385,
                    "duration": 0.2176043333333837
                },
                {
                    "name": "B3",
                    "midi": 59,
                    "time": 645.8496613333416,
                    "velocity": 0.2440944881889764,
                    "duration": 0.2176043333333837
                },
                {
                    "name": "D4",
                    "midi": 62,
                    "time": 646.067265666675,
                    "velocity": 0.2440944881889764,
                    "duration": 0.2176043333333837
                },
                {
                    "name": "D#4",
                    "midi": 63,
                    "time": 646.2848700000084,
                    "velocity": 0.2755905511811024,
                    "duration": 0.2176043333333837
                },
                {
                    "name": "C4",
                    "midi": 60,
                    "time": 646.5024743333418,
                    "velocity": 0.2440944881889764,
                    "duration": 0.2176043333333837
                },
                {
                    "name": "D#4",
                    "midi": 63,
                    "time": 646.7200786666751,
                    "velocity": 0.2440944881889764,
                    "duration": 0.2176043333333837
                },
                {
                    "name": "D#3",
                    "midi": 51,
                    "time": 646.9376830000085,
                    "velocity": 0.2755905511811024,
                    "duration": 0.32640650000007554
                },
                {
                    "name": "A#3",
                    "midi": 58,
                    "time": 646.9376830000085,
                    "velocity": 0.2755905511811024,
                    "duration": 0.2176043333333837
                },
                {
                    "name": "C#4",
                    "midi": 61,
                    "time": 647.1552873333419,
                    "velocity": 0.2440944881889764,
                    "duration": 0.2176043333333837
                },
                {
                    "name": "A#3",
                    "midi": 58,
                    "time": 647.3728916666753,
                    "velocity": 0.2440944881889764,
                    "duration": 0.2176043333333837
                },
                {
                    "name": "G#2",
                    "midi": 44,
                    "time": 647.5904960000087,
                    "velocity": 0.3543307086614173,
                    "duration": 0.2176043333333837
                },
                {
                    "name": "D#3",
                    "midi": 51,
                    "time": 647.808100333342,
                    "velocity": 0.2440944881889764,
                    "duration": 0.2176043333333837
                },
                {
                    "name": "G#3",
                    "midi": 56,
                    "time": 648.0257046666754,
                    "velocity": 0.2440944881889764,
                    "duration": 0.2176043333333837
                },
                {
                    "name": "C4",
                    "midi": 60,
                    "time": 648.2433090000088,
                    "velocity": 0.25984251968503935,
                    "duration": 0.2176043333333837
                },
                {
                    "name": "G#3",
                    "midi": 56,
                    "time": 648.4609133333422,
                    "velocity": 0.2440944881889764,
                    "duration": 0.2176043333333837
                },
                {
                    "name": "C4",
                    "midi": 60,
                    "time": 648.6785176666756,
                    "velocity": 0.2440944881889764,
                    "duration": 0.2176043333333837
                },
                {
                    "name": "D#4",
                    "midi": 63,
                    "time": 648.896122000009,
                    "velocity": 0.2755905511811024,
                    "duration": 0.2176043333333837
                },
                {
                    "name": "C4",
                    "midi": 60,
                    "time": 649.1137263333424,
                    "velocity": 0.2440944881889764,
                    "duration": 0.2176043333333837
                },
                {
                    "name": "D#4",
                    "midi": 63,
                    "time": 649.3313306666757,
                    "velocity": 0.2440944881889764,
                    "duration": 0.2176043333333837
                },
                {
                    "name": "C4",
                    "midi": 60,
                    "time": 649.5489350000091,
                    "velocity": 0.2755905511811024,
                    "duration": 0.2176043333333837
                },
                {
                    "name": "G#3",
                    "midi": 56,
                    "time": 649.7665393333425,
                    "velocity": 0.2440944881889764,
                    "duration": 0.2176043333333837
                },
                {
                    "name": "C4",
                    "midi": 60,
                    "time": 649.9841436666759,
                    "velocity": 0.2440944881889764,
                    "duration": 0.2176043333333837
                },
                {
                    "name": "C#4",
                    "midi": 61,
                    "time": 650.2017480000093,
                    "velocity": 0.2755905511811024,
                    "duration": 0.2176043333333837
                },
                {
                    "name": "A#3",
                    "midi": 58,
                    "time": 650.4193523333427,
                    "velocity": 0.2440944881889764,
                    "duration": 0.2176043333333837
                },
                {
                    "name": "C#4",
                    "midi": 61,
                    "time": 650.636956666676,
                    "velocity": 0.2440944881889764,
                    "duration": 0.2176043333333837
                },
                {
                    "name": "A#3",
                    "midi": 58,
                    "time": 650.8545610000094,
                    "velocity": 0.28346456692913385,
                    "duration": 0.2176043333333837
                },
                {
                    "name": "G3",
                    "midi": 55,
                    "time": 651.0721653333428,
                    "velocity": 0.2440944881889764,
                    "duration": 0.2176043333333837
                },
                {
                    "name": "A#3",
                    "midi": 58,
                    "time": 651.2897696666762,
                    "velocity": 0.2440944881889764,
                    "duration": 0.2176043333333837
                },
                {
                    "name": "C4",
                    "midi": 60,
                    "time": 651.5073740000096,
                    "velocity": 0.2755905511811024,
                    "duration": 0.2176043333333837
                },
                {
                    "name": "G#3",
                    "midi": 56,
                    "time": 651.724978333343,
                    "velocity": 0.2440944881889764,
                    "duration": 0.2176043333333837
                },
                {
                    "name": "C4",
                    "midi": 60,
                    "time": 651.9425826666763,
                    "velocity": 0.2440944881889764,
                    "duration": 0.2176043333333837
                },
                {
                    "name": "C3",
                    "midi": 48,
                    "time": 652.1601870000097,
                    "velocity": 0.2755905511811024,
                    "duration": 0.32640650000007554
                },
                {
                    "name": "G3",
                    "midi": 55,
                    "time": 652.1601870000097,
                    "velocity": 0.2755905511811024,
                    "duration": 0.2176043333333837
                },
                {
                    "name": "A#3",
                    "midi": 58,
                    "time": 652.3777913333431,
                    "velocity": 0.2440944881889764,
                    "duration": 0.2176043333333837
                },
                {
                    "name": "G3",
                    "midi": 55,
                    "time": 652.5953956666765,
                    "velocity": 0.2440944881889764,
                    "duration": 0.2176043333333837
                },
                {
                    "name": "F2",
                    "midi": 41,
                    "time": 652.8130000000099,
                    "velocity": 0.3543307086614173,
                    "duration": 0.2176043333333837
                },
                {
                    "name": "C3",
                    "midi": 48,
                    "time": 653.0306043333433,
                    "velocity": 0.2440944881889764,
                    "duration": 0.2176043333333837
                },
                {
                    "name": "F3",
                    "midi": 53,
                    "time": 653.2482086666766,
                    "velocity": 0.2440944881889764,
                    "duration": 0.2176043333333837
                },
                {
                    "name": "G#3",
                    "midi": 56,
                    "time": 653.46581300001,
                    "velocity": 0.25984251968503935,
                    "duration": 0.2176043333333837
                },
                {
                    "name": "F3",
                    "midi": 53,
                    "time": 653.6834173333434,
                    "velocity": 0.2440944881889764,
                    "duration": 0.2176043333333837
                },
                {
                    "name": "G#3",
                    "midi": 56,
                    "time": 653.9010216666768,
                    "velocity": 0.2440944881889764,
                    "duration": 0.2176043333333837
                },
                {
                    "name": "C4",
                    "midi": 60,
                    "time": 654.1186260000102,
                    "velocity": 0.2755905511811024,
                    "duration": 0.2176043333333837
                },
                {
                    "name": "G#3",
                    "midi": 56,
                    "time": 654.3362303333436,
                    "velocity": 0.2440944881889764,
                    "duration": 0.2176043333333837
                },
                {
                    "name": "C4",
                    "midi": 60,
                    "time": 654.553834666677,
                    "velocity": 0.2440944881889764,
                    "duration": 0.2176043333333837
                },
                {
                    "name": "G#3",
                    "midi": 56,
                    "time": 654.7714390000103,
                    "velocity": 0.2755905511811024,
                    "duration": 0.2176043333333837
                },
                {
                    "name": "F3",
                    "midi": 53,
                    "time": 654.9890433333437,
                    "velocity": 0.2440944881889764,
                    "duration": 0.2176043333333837
                },
                {
                    "name": "G#3",
                    "midi": 56,
                    "time": 655.2066476666771,
                    "velocity": 0.2440944881889764,
                    "duration": 0.2176043333333837
                },
                {
                    "name": "A#3",
                    "midi": 58,
                    "time": 655.4242520000105,
                    "velocity": 0.2755905511811024,
                    "duration": 0.2176043333333837
                },
                {
                    "name": "G3",
                    "midi": 55,
                    "time": 655.6418563333439,
                    "velocity": 0.2440944881889764,
                    "duration": 0.2176043333333837
                },
                {
                    "name": "A#3",
                    "midi": 58,
                    "time": 655.8594606666773,
                    "velocity": 0.2440944881889764,
                    "duration": 0.2176043333333837
                },
                {
                    "name": "G3",
                    "midi": 55,
                    "time": 656.0770650000106,
                    "velocity": 0.28346456692913385,
                    "duration": 0.2176043333333837
                },
                {
                    "name": "E3",
                    "midi": 52,
                    "time": 656.294669333344,
                    "velocity": 0.2440944881889764,
                    "duration": 0.2176043333333837
                },
                {
                    "name": "G3",
                    "midi": 55,
                    "time": 656.5122736666774,
                    "velocity": 0.2440944881889764,
                    "duration": 0.2176043333333837
                },
                {
                    "name": "G#3",
                    "midi": 56,
                    "time": 656.7298780000108,
                    "velocity": 0.2755905511811024,
                    "duration": 0.2176043333333837
                },
                {
                    "name": "F3",
                    "midi": 53,
                    "time": 656.9474823333442,
                    "velocity": 0.2440944881889764,
                    "duration": 0.2176043333333837
                },
                {
                    "name": "G#3",
                    "midi": 56,
                    "time": 657.1650866666776,
                    "velocity": 0.2440944881889764,
                    "duration": 0.2176043333333837
                },
                {
                    "name": "F3",
                    "midi": 53,
                    "time": 657.3826910000109,
                    "velocity": 0.2755905511811024,
                    "duration": 0.2176043333333837
                },
                {
                    "name": "C3",
                    "midi": 48,
                    "time": 657.6002953333443,
                    "velocity": 0.2440944881889764,
                    "duration": 0.2176043333333837
                },
                {
                    "name": "F3",
                    "midi": 53,
                    "time": 657.8178996666777,
                    "velocity": 0.2440944881889764,
                    "duration": 0.2176043333333837
                },
                {
                    "name": "A#3",
                    "midi": 58,
                    "time": 658.0355040000111,
                    "velocity": 0.2755905511811024,
                    "duration": 0.2176043333333837
                },
                {
                    "name": "G3",
                    "midi": 55,
                    "time": 658.2531083333445,
                    "velocity": 0.2440944881889764,
                    "duration": 0.2176043333333837
                },
                {
                    "name": "A#3",
                    "midi": 58,
                    "time": 658.4707126666779,
                    "velocity": 0.2440944881889764,
                    "duration": 0.2176043333333837
                },
                {
                    "name": "E3",
                    "midi": 52,
                    "time": 658.6883170000112,
                    "velocity": 0.28346456692913385,
                    "duration": 0.2176043333333837
                },
                {
                    "name": "G3",
                    "midi": 55,
                    "time": 658.9059213333446,
                    "velocity": 0.2440944881889764,
                    "duration": 0.2176043333333837
                },
                {
                    "name": "E3",
                    "midi": 52,
                    "time": 659.123525666678,
                    "velocity": 0.2440944881889764,
                    "duration": 0.2176043333333837
                },
                {
                    "name": "F3",
                    "midi": 53,
                    "time": 659.3411300000114,
                    "velocity": 0.2755905511811024,
                    "duration": 0.2176043333333837
                },
                {
                    "name": "G#3",
                    "midi": 56,
                    "time": 659.5587343333448,
                    "velocity": 0.2440944881889764,
                    "duration": 0.2176043333333837
                },
                {
                    "name": "F3",
                    "midi": 53,
                    "time": 659.7763386666782,
                    "velocity": 0.2440944881889764,
                    "duration": 0.2176043333333837
                },
                {
                    "name": "G3",
                    "midi": 55,
                    "time": 659.9939430000115,
                    "velocity": 0.2755905511811024,
                    "duration": 0.2176043333333837
                },
                {
                    "name": "C4",
                    "midi": 60,
                    "time": 660.2115473333449,
                    "velocity": 0.2440944881889764,
                    "duration": 0.2176043333333837
                },
                {
                    "name": "G3",
                    "midi": 55,
                    "time": 660.4291516666783,
                    "velocity": 0.2440944881889764,
                    "duration": 0.2176043333333837
                },
                {
                    "name": "F4",
                    "midi": 65,
                    "time": 660.6467560000117,
                    "velocity": 0.31496062992125984,
                    "duration": 0.32640649999996185
                },
                {
                    "name": "G#3",
                    "midi": 56,
                    "time": 660.6467560000117,
                    "velocity": 0.31496062992125984,
                    "duration": 0.32640649999996185
                },
                {
                    "name": "G#3",
                    "midi": 56,
                    "time": 661.6259755000117,
                    "velocity": 0.31496062992125984,
                    "duration": 0.32640649999996185
                },
                {
                    "name": "F4",
                    "midi": 65,
                    "time": 661.6259755000117,
                    "velocity": 0.31496062992125984,
                    "duration": 0.32640649999996185
                },
                {
                    "name": "G#3",
                    "midi": 56,
                    "time": 661.9523820000117,
                    "velocity": 0.3464566929133858,
                    "duration": 0.32640649999996185
                },
                {
                    "name": "F4",
                    "midi": 65,
                    "time": 661.9523820000117,
                    "velocity": 0.3464566929133858,
                    "duration": 0.32640649999996185
                },
                {
                    "name": "G#3",
                    "midi": 56,
                    "time": 662.9316015000117,
                    "velocity": 0.3228346456692913,
                    "duration": 0.32640649999996185
                },
                {
                    "name": "F4",
                    "midi": 65,
                    "time": 662.9316015000117,
                    "velocity": 0.3228346456692913,
                    "duration": 0.32640649999996185
                },
                {
                    "name": "G#3",
                    "midi": 56,
                    "time": 663.2580080000116,
                    "velocity": 0.3858267716535433,
                    "duration": 0.32640649999996185
                },
                {
                    "name": "F#4",
                    "midi": 66,
                    "time": 663.2580080000116,
                    "velocity": 0.3858267716535433,
                    "duration": 0.32640649999996185
                },
                {
                    "name": "G#3",
                    "midi": 56,
                    "time": 664.2372275000116,
                    "velocity": 0.3700787401574803,
                    "duration": 0.32640649999996185
                },
                {
                    "name": "F#4",
                    "midi": 66,
                    "time": 664.2372275000116,
                    "velocity": 0.3700787401574803,
                    "duration": 0.32640649999996185
                },
                {
                    "name": "G#3",
                    "midi": 56,
                    "time": 664.5636340000116,
                    "velocity": 0.4094488188976378,
                    "duration": 0.32640649999996185
                },
                {
                    "name": "F#4",
                    "midi": 66,
                    "time": 664.5636340000116,
                    "velocity": 0.4094488188976378,
                    "duration": 0.32640649999996185
                },
                {
                    "name": "G#3",
                    "midi": 56,
                    "time": 665.5428535000116,
                    "velocity": 0.3779527559055118,
                    "duration": 0.32640649999996185
                },
                {
                    "name": "F#4",
                    "midi": 66,
                    "time": 665.5428535000116,
                    "velocity": 0.3779527559055118,
                    "duration": 0.32640649999996185
                },
                {
                    "name": "G3",
                    "midi": 55,
                    "time": 665.8692600000115,
                    "velocity": 0.4409448818897638,
                    "duration": 0.32640649999996185
                },
                {
                    "name": "G4",
                    "midi": 67,
                    "time": 665.8692600000115,
                    "velocity": 0.4409448818897638,
                    "duration": 0.32640649999996185
                },
                {
                    "name": "G4",
                    "midi": 67,
                    "time": 666.1956665000115,
                    "velocity": 0.44881889763779526,
                    "duration": 0.32640649999996185
                },
                {
                    "name": "C5",
                    "midi": 72,
                    "time": 666.1956665000115,
                    "velocity": 0.44881889763779526,
                    "duration": 0.32640649999996185
                },
                {
                    "name": "G4",
                    "midi": 67,
                    "time": 666.5220730000115,
                    "velocity": 0.4645669291338583,
                    "duration": 0.32640649999996185
                },
                {
                    "name": "C5",
                    "midi": 72,
                    "time": 666.5220730000115,
                    "velocity": 0.4645669291338583,
                    "duration": 0.32640649999996185
                },
                {
                    "name": "G4",
                    "midi": 67,
                    "time": 666.8484795000114,
                    "velocity": 0.47244094488188976,
                    "duration": 0.32640649999996185
                },
                {
                    "name": "C5",
                    "midi": 72,
                    "time": 666.8484795000114,
                    "velocity": 0.47244094488188976,
                    "duration": 0.32640649999996185
                },
                {
                    "name": "G4",
                    "midi": 67,
                    "time": 667.1748860000114,
                    "velocity": 0.4881889763779528,
                    "duration": 0.32640649999996185
                },
                {
                    "name": "C5",
                    "midi": 72,
                    "time": 667.1748860000114,
                    "velocity": 0.4881889763779528,
                    "duration": 0.32640649999996185
                },
                {
                    "name": "G4",
                    "midi": 67,
                    "time": 667.5012925000113,
                    "velocity": 0.49606299212598426,
                    "duration": 0.32640649999996185
                },
                {
                    "name": "C5",
                    "midi": 72,
                    "time": 667.5012925000113,
                    "velocity": 0.49606299212598426,
                    "duration": 0.32640649999996185
                },
                {
                    "name": "G4",
                    "midi": 67,
                    "time": 667.8276990000113,
                    "velocity": 0.5039370078740157,
                    "duration": 0.32640649999996185
                },
                {
                    "name": "C5",
                    "midi": 72,
                    "time": 667.8276990000113,
                    "velocity": 0.5039370078740157,
                    "duration": 0.32640649999996185
                },
                {
                    "name": "G4",
                    "midi": 67,
                    "time": 668.1541055000113,
                    "velocity": 0.5196850393700787,
                    "duration": 0.32640649999996185
                },
                {
                    "name": "C5",
                    "midi": 72,
                    "time": 668.1541055000113,
                    "velocity": 0.5196850393700787,
                    "duration": 0.32640649999996185
                },
                {
                    "name": "G4",
                    "midi": 67,
                    "time": 668.4805120000112,
                    "velocity": 0.5354330708661418,
                    "duration": 2.6112520000006043
                },
                {
                    "name": "C5",
                    "midi": 72,
                    "time": 668.4805120000112,
                    "velocity": 0.36220472440944884,
                    "duration": 0.10880216666669185
                },
                {
                    "name": "B4",
                    "midi": 71,
                    "time": 668.5893141666779,
                    "velocity": 0.31496062992125984,
                    "duration": 0.10880216666669185
                },
                {
                    "name": "C5",
                    "midi": 72,
                    "time": 668.6981163333446,
                    "velocity": 0.3700787401574803,
                    "duration": 0.10880216666669185
                },
                {
                    "name": "B4",
                    "midi": 71,
                    "time": 668.8069185000113,
                    "velocity": 0.3228346456692913,
                    "duration": 0.10880216666669185
                },
                {
                    "name": "C5",
                    "midi": 72,
                    "time": 668.915720666678,
                    "velocity": 0.3937007874015748,
                    "duration": 0.10880216666669185
                },
                {
                    "name": "B4",
                    "midi": 71,
                    "time": 669.0245228333447,
                    "velocity": 0.3543307086614173,
                    "duration": 0.10880216666669185
                },
                {
                    "name": "C5",
                    "midi": 72,
                    "time": 669.1333250000114,
                    "velocity": 0.4094488188976378,
                    "duration": 0.10880216666669185
                },
                {
                    "name": "B4",
                    "midi": 71,
                    "time": 669.2421271666781,
                    "velocity": 0.3464566929133858,
                    "duration": 0.10880216666669185
                },
                {
                    "name": "C5",
                    "midi": 72,
                    "time": 669.3509293333448,
                    "velocity": 0.4094488188976378,
                    "duration": 0.10880216666669185
                },
                {
                    "name": "B4",
                    "midi": 71,
                    "time": 669.4597315000115,
                    "velocity": 0.33858267716535434,
                    "duration": 0.10880216666669185
                },
                {
                    "name": "C5",
                    "midi": 72,
                    "time": 669.5685336666781,
                    "velocity": 0.4251968503937008,
                    "duration": 0.10880216666669185
                },
                {
                    "name": "B4",
                    "midi": 71,
                    "time": 669.6773358333448,
                    "velocity": 0.3543307086614173,
                    "duration": 0.10880216666669185
                },
                {
                    "name": "C5",
                    "midi": 72,
                    "time": 669.7861380000115,
                    "velocity": 0.3937007874015748,
                    "duration": 0.10880216666669185
                },
                {
                    "name": "B4",
                    "midi": 71,
                    "time": 669.8949401666782,
                    "velocity": 0.3464566929133858,
                    "duration": 0.10880216666669185
                },
                {
                    "name": "C5",
                    "midi": 72,
                    "time": 670.0037423333449,
                    "velocity": 0.3937007874015748,
                    "duration": 0.10880216666669185
                },
                {
                    "name": "B4",
                    "midi": 71,
                    "time": 670.1125445000116,
                    "velocity": 0.3464566929133858,
                    "duration": 0.10880216666669185
                },
                {
                    "name": "C5",
                    "midi": 72,
                    "time": 670.2213466666783,
                    "velocity": 0.4251968503937008,
                    "duration": 0.10880216666669185
                },
                {
                    "name": "B4",
                    "midi": 71,
                    "time": 670.330148833345,
                    "velocity": 0.3779527559055118,
                    "duration": 0.10880216666669185
                },
                {
                    "name": "C5",
                    "midi": 72,
                    "time": 670.4389510000117,
                    "velocity": 0.4330708661417323,
                    "duration": 0.10880216666669185
                },
                {
                    "name": "B4",
                    "midi": 71,
                    "time": 670.5477531666784,
                    "velocity": 0.3464566929133858,
                    "duration": 0.10880216666669185
                },
                {
                    "name": "C5",
                    "midi": 72,
                    "time": 670.6565553333451,
                    "velocity": 0.4251968503937008,
                    "duration": 0.10880216666669185
                },
                {
                    "name": "B4",
                    "midi": 71,
                    "time": 670.7653575000118,
                    "velocity": 0.3779527559055118,
                    "duration": 0.10880216666669185
                },
                {
                    "name": "C5",
                    "midi": 72,
                    "time": 670.8741596666785,
                    "velocity": 0.4409448818897638,
                    "duration": 0.10880216666669185
                },
                {
                    "name": "B4",
                    "midi": 71,
                    "time": 670.9829618333451,
                    "velocity": 0.3937007874015748,
                    "duration": 0.10880216666669185
                },
                {
                    "name": "C2",
                    "midi": 36,
                    "time": 671.0917640000118,
                    "velocity": 0.6692913385826772,
                    "duration": 0.32640649999996185
                },
                {
                    "name": "C3",
                    "midi": 48,
                    "time": 671.4181705000118,
                    "velocity": 0.5196850393700787,
                    "duration": 0.16320325000003777
                },
                {
                    "name": "E3",
                    "midi": 52,
                    "time": 671.4181705000118,
                    "velocity": 0.5196850393700787,
                    "duration": 0.16320325000003777
                },
                {
                    "name": "G3",
                    "midi": 55,
                    "time": 671.4181705000118,
                    "velocity": 0.5196850393700787,
                    "duration": 0.16320325000003777
                },
                {
                    "name": "C4",
                    "midi": 60,
                    "time": 671.4181705000118,
                    "velocity": 0.6141732283464567,
                    "duration": 0.16320325000003777
                },
                {
                    "name": "C3",
                    "midi": 48,
                    "time": 671.7445770000119,
                    "velocity": 0.5196850393700787,
                    "duration": 1.9584390000001122
                },
                {
                    "name": "E3",
                    "midi": 52,
                    "time": 671.7445770000119,
                    "velocity": 0.5196850393700787,
                    "duration": 0.6528130000000374
                },
                {
                    "name": "G3",
                    "midi": 55,
                    "time": 671.7445770000119,
                    "velocity": 0.5196850393700787,
                    "duration": 0.6528130000000374
                },
                {
                    "name": "C4",
                    "midi": 60,
                    "time": 671.7445770000119,
                    "velocity": 0.6141732283464567,
                    "duration": 0.6528130000000374
                },
                {
                    "name": "F3",
                    "midi": 53,
                    "time": 672.3973900000119,
                    "velocity": 0.5433070866141733,
                    "duration": 0.6528130000000374
                },
                {
                    "name": "G3",
                    "midi": 55,
                    "time": 672.3973900000119,
                    "velocity": 0.5433070866141733,
                    "duration": 0.6528130000000374
                },
                {
                    "name": "B3",
                    "midi": 59,
                    "time": 672.3973900000119,
                    "velocity": 0.6456692913385826,
                    "duration": 0.6528130000000374
                },
                {
                    "name": "E3",
                    "midi": 52,
                    "time": 673.050203000012,
                    "velocity": 0.5118110236220472,
                    "duration": 0.6528130000000374
                },
                {
                    "name": "G3",
                    "midi": 55,
                    "time": 673.050203000012,
                    "velocity": 0.5118110236220472,
                    "duration": 0.6528130000000374
                },
                {
                    "name": "C4",
                    "midi": 60,
                    "time": 673.050203000012,
                    "velocity": 0.6062992125984252,
                    "duration": 0.6528130000000374
                },
                {
                    "name": "C2",
                    "midi": 36,
                    "time": 673.703016000012,
                    "velocity": 0.3779527559055118,
                    "duration": 0.32640649999996185
                },
                {
                    "name": "C3",
                    "midi": 48,
                    "time": 674.029422500012,
                    "velocity": 0.29133858267716534,
                    "duration": 0.16320325000003777
                },
                {
                    "name": "E3",
                    "midi": 52,
                    "time": 674.029422500012,
                    "velocity": 0.29133858267716534,
                    "duration": 0.16320325000003777
                },
                {
                    "name": "G3",
                    "midi": 55,
                    "time": 674.029422500012,
                    "velocity": 0.29133858267716534,
                    "duration": 0.16320325000003777
                },
                {
                    "name": "C4",
                    "midi": 60,
                    "time": 674.029422500012,
                    "velocity": 0.33858267716535434,
                    "duration": 0.16320325000003777
                },
                {
                    "name": "C3",
                    "midi": 48,
                    "time": 674.355829000012,
                    "velocity": 0.29133858267716534,
                    "duration": 1.9584390000001122
                },
                {
                    "name": "E3",
                    "midi": 52,
                    "time": 674.355829000012,
                    "velocity": 0.29133858267716534,
                    "duration": 0.6528130000000374
                },
                {
                    "name": "G3",
                    "midi": 55,
                    "time": 674.355829000012,
                    "velocity": 0.29133858267716534,
                    "duration": 0.6528130000000374
                },
                {
                    "name": "C4",
                    "midi": 60,
                    "time": 674.355829000012,
                    "velocity": 0.33858267716535434,
                    "duration": 0.6528130000000374
                },
                {
                    "name": "F3",
                    "midi": 53,
                    "time": 675.0086420000121,
                    "velocity": 0.2992125984251969,
                    "duration": 0.6528130000000374
                },
                {
                    "name": "G3",
                    "midi": 55,
                    "time": 675.0086420000121,
                    "velocity": 0.2992125984251969,
                    "duration": 0.6528130000000374
                },
                {
                    "name": "B3",
                    "midi": 59,
                    "time": 675.0086420000121,
                    "velocity": 0.36220472440944884,
                    "duration": 0.6528130000000374
                },
                {
                    "name": "E3",
                    "midi": 52,
                    "time": 675.6614550000121,
                    "velocity": 0.29133858267716534,
                    "duration": 0.6528130000000374
                },
                {
                    "name": "G3",
                    "midi": 55,
                    "time": 675.6614550000121,
                    "velocity": 0.29133858267716534,
                    "duration": 0.6528130000000374
                },
                {
                    "name": "C4",
                    "midi": 60,
                    "time": 675.6614550000121,
                    "velocity": 0.33858267716535434,
                    "duration": 0.6528130000000374
                },
                {
                    "name": "C2",
                    "midi": 36,
                    "time": 676.3142680000121,
                    "velocity": 0.6692913385826772,
                    "duration": 0.32640649999996185
                },
                {
                    "name": "C3",
                    "midi": 48,
                    "time": 676.6406745000121,
                    "velocity": 0.5196850393700787,
                    "duration": 0.16320325000003777
                },
                {
                    "name": "E3",
                    "midi": 52,
                    "time": 676.6406745000121,
                    "velocity": 0.5196850393700787,
                    "duration": 0.16320325000003777
                },
                {
                    "name": "G3",
                    "midi": 55,
                    "time": 676.6406745000121,
                    "velocity": 0.5196850393700787,
                    "duration": 0.16320325000003777
                },
                {
                    "name": "C4",
                    "midi": 60,
                    "time": 676.6406745000121,
                    "velocity": 0.6141732283464567,
                    "duration": 0.16320325000003777
                },
                {
                    "name": "C3",
                    "midi": 48,
                    "time": 676.9670810000122,
                    "velocity": 0.5196850393700787,
                    "duration": 1.9584390000001122
                },
                {
                    "name": "E3",
                    "midi": 52,
                    "time": 676.9670810000122,
                    "velocity": 0.5196850393700787,
                    "duration": 0.6528130000000374
                },
                {
                    "name": "G3",
                    "midi": 55,
                    "time": 676.9670810000122,
                    "velocity": 0.5196850393700787,
                    "duration": 0.6528130000000374
                },
                {
                    "name": "C4",
                    "midi": 60,
                    "time": 676.9670810000122,
                    "velocity": 0.6141732283464567,
                    "duration": 0.6528130000000374
                },
                {
                    "name": "F3",
                    "midi": 53,
                    "time": 677.6198940000122,
                    "velocity": 0.5433070866141733,
                    "duration": 0.6528130000000374
                },
                {
                    "name": "G3",
                    "midi": 55,
                    "time": 677.6198940000122,
                    "velocity": 0.5433070866141733,
                    "duration": 0.6528130000000374
                },
                {
                    "name": "B3",
                    "midi": 59,
                    "time": 677.6198940000122,
                    "velocity": 0.6456692913385826,
                    "duration": 0.6528130000000374
                },
                {
                    "name": "E3",
                    "midi": 52,
                    "time": 678.2727070000122,
                    "velocity": 0.5118110236220472,
                    "duration": 0.6528130000000374
                },
                {
                    "name": "G3",
                    "midi": 55,
                    "time": 678.2727070000122,
                    "velocity": 0.5118110236220472,
                    "duration": 0.6528130000000374
                },
                {
                    "name": "C4",
                    "midi": 60,
                    "time": 678.2727070000122,
                    "velocity": 0.6062992125984252,
                    "duration": 0.6528130000000374
                },
                {
                    "name": "C2",
                    "midi": 36,
                    "time": 678.9255200000123,
                    "velocity": 0.3779527559055118,
                    "duration": 0.32640649999996185
                },
                {
                    "name": "C3",
                    "midi": 48,
                    "time": 679.2519265000122,
                    "velocity": 0.29133858267716534,
                    "duration": 0.16320325000003777
                },
                {
                    "name": "E3",
                    "midi": 52,
                    "time": 679.2519265000122,
                    "velocity": 0.29133858267716534,
                    "duration": 0.16320325000003777
                },
                {
                    "name": "G3",
                    "midi": 55,
                    "time": 679.2519265000122,
                    "velocity": 0.29133858267716534,
                    "duration": 0.16320325000003777
                },
                {
                    "name": "C4",
                    "midi": 60,
                    "time": 679.2519265000122,
                    "velocity": 0.33858267716535434,
                    "duration": 0.16320325000003777
                },
                {
                    "name": "C3",
                    "midi": 48,
                    "time": 679.5783330000123,
                    "velocity": 0.29133858267716534,
                    "duration": 1.9584390000001122
                },
                {
                    "name": "E3",
                    "midi": 52,
                    "time": 679.5783330000123,
                    "velocity": 0.29133858267716534,
                    "duration": 0.6528130000000374
                },
                {
                    "name": "G3",
                    "midi": 55,
                    "time": 679.5783330000123,
                    "velocity": 0.29133858267716534,
                    "duration": 0.6528130000000374
                },
                {
                    "name": "C4",
                    "midi": 60,
                    "time": 679.5783330000123,
                    "velocity": 0.33858267716535434,
                    "duration": 0.6528130000000374
                },
                {
                    "name": "F3",
                    "midi": 53,
                    "time": 680.2311460000124,
                    "velocity": 0.2992125984251969,
                    "duration": 0.6528130000000374
                },
                {
                    "name": "G3",
                    "midi": 55,
                    "time": 680.2311460000124,
                    "velocity": 0.2992125984251969,
                    "duration": 0.6528130000000374
                },
                {
                    "name": "B3",
                    "midi": 59,
                    "time": 680.2311460000124,
                    "velocity": 0.36220472440944884,
                    "duration": 0.6528130000000374
                },
                {
                    "name": "E3",
                    "midi": 52,
                    "time": 680.8839590000124,
                    "velocity": 0.29133858267716534,
                    "duration": 0.6528130000000374
                },
                {
                    "name": "G3",
                    "midi": 55,
                    "time": 680.8839590000124,
                    "velocity": 0.29133858267716534,
                    "duration": 0.6528130000000374
                },
                {
                    "name": "C4",
                    "midi": 60,
                    "time": 680.8839590000124,
                    "velocity": 0.33858267716535434,
                    "duration": 0.6528130000000374
                },
                {
                    "name": "C3",
                    "midi": 48,
                    "time": 681.5367720000124,
                    "velocity": 0.2677165354330709,
                    "duration": 0.3236864458333457
                },
                {
                    "name": "F3",
                    "midi": 53,
                    "time": 681.5367720000124,
                    "velocity": 0.3228346456692913,
                    "duration": 0.3236864458333457
                },
                {
                    "name": "C3",
                    "midi": 48,
                    "time": 681.8631785000124,
                    "velocity": 0.23622047244094488,
                    "duration": 0.3236864458333457
                },
                {
                    "name": "F3",
                    "midi": 53,
                    "time": 681.8631785000124,
                    "velocity": 0.28346456692913385,
                    "duration": 0.3236864458333457
                },
                {
                    "name": "C3",
                    "midi": 48,
                    "time": 682.1895850000124,
                    "velocity": 0.2440944881889764,
                    "duration": 0.3236864458333457
                },
                {
                    "name": "E3",
                    "midi": 52,
                    "time": 682.1895850000124,
                    "velocity": 0.29133858267716534,
                    "duration": 0.3236864458333457
                },
                {
                    "name": "C3",
                    "midi": 48,
                    "time": 682.5159915000123,
                    "velocity": 0.25196850393700787,
                    "duration": 0.3236864458333457
                },
                {
                    "name": "E3",
                    "midi": 52,
                    "time": 682.5159915000123,
                    "velocity": 0.2992125984251969,
                    "duration": 0.3236864458333457
                },
                {
                    "name": "C3",
                    "midi": 48,
                    "time": 682.8423980000123,
                    "velocity": 0.2677165354330709,
                    "duration": 0.3236864458333457
                },
                {
                    "name": "F3",
                    "midi": 53,
                    "time": 682.8423980000123,
                    "velocity": 0.3228346456692913,
                    "duration": 0.3236864458333457
                },
                {
                    "name": "C3",
                    "midi": 48,
                    "time": 683.1688045000122,
                    "velocity": 0.23622047244094488,
                    "duration": 0.3236864458333457
                },
                {
                    "name": "F3",
                    "midi": 53,
                    "time": 683.1688045000122,
                    "velocity": 0.28346456692913385,
                    "duration": 0.3236864458333457
                },
                {
                    "name": "C3",
                    "midi": 48,
                    "time": 683.4952110000122,
                    "velocity": 0.2440944881889764,
                    "duration": 0.3236864458333457
                },
                {
                    "name": "E3",
                    "midi": 52,
                    "time": 683.4952110000122,
                    "velocity": 0.29133858267716534,
                    "duration": 0.3236864458333457
                },
                {
                    "name": "C3",
                    "midi": 48,
                    "time": 683.8216175000122,
                    "velocity": 0.25196850393700787,
                    "duration": 0.3236864458333457
                },
                {
                    "name": "E3",
                    "midi": 52,
                    "time": 683.8216175000122,
                    "velocity": 0.2992125984251969,
                    "duration": 0.3236864458333457
                },
                {
                    "name": "C3",
                    "midi": 48,
                    "time": 684.1480240000121,
                    "velocity": 0.29133858267716534,
                    "duration": 0.3236864458333457
                },
                {
                    "name": "F3",
                    "midi": 53,
                    "time": 684.1480240000121,
                    "velocity": 0.3543307086614173,
                    "duration": 0.3236864458333457
                },
                {
                    "name": "F3",
                    "midi": 53,
                    "time": 684.4744305000121,
                    "velocity": 0.25984251968503935,
                    "duration": 0.3236864458333457
                },
                {
                    "name": "C3",
                    "midi": 48,
                    "time": 684.4744305000121,
                    "velocity": 0.25984251968503935,
                    "duration": 0.3236864458333457
                },
                {
                    "name": "G3",
                    "midi": 55,
                    "time": 684.4744305000121,
                    "velocity": 0.31496062992125984,
                    "duration": 0.3236864458333457
                },
                {
                    "name": "D3",
                    "midi": 50,
                    "time": 684.800837000012,
                    "velocity": 0.28346456692913385,
                    "duration": 0.3236864458333457
                },
                {
                    "name": "F3",
                    "midi": 53,
                    "time": 684.800837000012,
                    "velocity": 0.28346456692913385,
                    "duration": 0.3236864458333457
                },
                {
                    "name": "G3",
                    "midi": 55,
                    "time": 684.800837000012,
                    "velocity": 0.28346456692913385,
                    "duration": 0.3236864458333457
                },
                {
                    "name": "C3",
                    "midi": 48,
                    "time": 684.800837000012,
                    "velocity": 0.28346456692913385,
                    "duration": 0.3236864458333457
                },
                {
                    "name": "B3",
                    "midi": 59,
                    "time": 684.800837000012,
                    "velocity": 0.33858267716535434,
                    "duration": 0.3236864458333457
                },
                {
                    "name": "D3",
                    "midi": 50,
                    "time": 685.127243500012,
                    "velocity": 0.2992125984251969,
                    "duration": 0.3236864458333457
                },
                {
                    "name": "F3",
                    "midi": 53,
                    "time": 685.127243500012,
                    "velocity": 0.2992125984251969,
                    "duration": 0.3236864458333457
                },
                {
                    "name": "G3",
                    "midi": 55,
                    "time": 685.127243500012,
                    "velocity": 0.2992125984251969,
                    "duration": 0.3236864458333457
                },
                {
                    "name": "C3",
                    "midi": 48,
                    "time": 685.127243500012,
                    "velocity": 0.2992125984251969,
                    "duration": 0.3236864458333457
                },
                {
                    "name": "B3",
                    "midi": 59,
                    "time": 685.127243500012,
                    "velocity": 0.3543307086614173,
                    "duration": 0.3236864458333457
                },
                {
                    "name": "D3",
                    "midi": 50,
                    "time": 685.453650000012,
                    "velocity": 0.33070866141732286,
                    "duration": 0.3236864458333457
                },
                {
                    "name": "F3",
                    "midi": 53,
                    "time": 685.453650000012,
                    "velocity": 0.33070866141732286,
                    "duration": 0.3236864458333457
                },
                {
                    "name": "G3",
                    "midi": 55,
                    "time": 685.453650000012,
                    "velocity": 0.33070866141732286,
                    "duration": 0.3236864458333457
                },
                {
                    "name": "C3",
                    "midi": 48,
                    "time": 685.453650000012,
                    "velocity": 0.33070866141732286,
                    "duration": 0.3236864458333457
                },
                {
                    "name": "B3",
                    "midi": 59,
                    "time": 685.453650000012,
                    "velocity": 0.4015748031496063,
                    "duration": 0.3236864458333457
                },
                {
                    "name": "D3",
                    "midi": 50,
                    "time": 685.7800565000119,
                    "velocity": 0.2992125984251969,
                    "duration": 0.3236864458333457
                },
                {
                    "name": "G3",
                    "midi": 55,
                    "time": 685.7800565000119,
                    "velocity": 0.2992125984251969,
                    "duration": 0.3236864458333457
                },
                {
                    "name": "F3",
                    "midi": 53,
                    "time": 685.7800565000119,
                    "velocity": 0.2992125984251969,
                    "duration": 0.3236864458333457
                },
                {
                    "name": "C3",
                    "midi": 48,
                    "time": 685.7800565000119,
                    "velocity": 0.2992125984251969,
                    "duration": 0.3236864458333457
                },
                {
                    "name": "B3",
                    "midi": 59,
                    "time": 685.7800565000119,
                    "velocity": 0.36220472440944884,
                    "duration": 0.3236864458333457
                },
                {
                    "name": "D3",
                    "midi": 50,
                    "time": 686.1064630000119,
                    "velocity": 0.31496062992125984,
                    "duration": 0.3236864458333457
                },
                {
                    "name": "F3",
                    "midi": 53,
                    "time": 686.1064630000119,
                    "velocity": 0.31496062992125984,
                    "duration": 0.3236864458333457
                },
                {
                    "name": "G3",
                    "midi": 55,
                    "time": 686.1064630000119,
                    "velocity": 0.31496062992125984,
                    "duration": 0.3236864458333457
                },
                {
                    "name": "C3",
                    "midi": 48,
                    "time": 686.1064630000119,
                    "velocity": 0.31496062992125984,
                    "duration": 0.3236864458333457
                },
                {
                    "name": "B3",
                    "midi": 59,
                    "time": 686.1064630000119,
                    "velocity": 0.3779527559055118,
                    "duration": 0.3236864458333457
                },
                {
                    "name": "D3",
                    "midi": 50,
                    "time": 686.4328695000119,
                    "velocity": 0.33858267716535434,
                    "duration": 0.3236864458333457
                },
                {
                    "name": "F3",
                    "midi": 53,
                    "time": 686.4328695000119,
                    "velocity": 0.33858267716535434,
                    "duration": 0.3236864458333457
                },
                {
                    "name": "G3",
                    "midi": 55,
                    "time": 686.4328695000119,
                    "velocity": 0.33858267716535434,
                    "duration": 0.3236864458333457
                },
                {
                    "name": "C3",
                    "midi": 48,
                    "time": 686.4328695000119,
                    "velocity": 0.33858267716535434,
                    "duration": 0.3236864458333457
                },
                {
                    "name": "B3",
                    "midi": 59,
                    "time": 686.4328695000119,
                    "velocity": 0.4015748031496063,
                    "duration": 0.3236864458333457
                },
                {
                    "name": "D3",
                    "midi": 50,
                    "time": 686.7592760000118,
                    "velocity": 0.3700787401574803,
                    "duration": 0.3236864458333457
                },
                {
                    "name": "F3",
                    "midi": 53,
                    "time": 686.7592760000118,
                    "velocity": 0.3700787401574803,
                    "duration": 0.3236864458333457
                },
                {
                    "name": "G3",
                    "midi": 55,
                    "time": 686.7592760000118,
                    "velocity": 0.3700787401574803,
                    "duration": 0.3236864458333457
                },
                {
                    "name": "C3",
                    "midi": 48,
                    "time": 686.7592760000118,
                    "velocity": 0.3700787401574803,
                    "duration": 0.3236864458333457
                },
                {
                    "name": "B3",
                    "midi": 59,
                    "time": 686.7592760000118,
                    "velocity": 0.44881889763779526,
                    "duration": 0.3236864458333457
                },
                {
                    "name": "D3",
                    "midi": 50,
                    "time": 687.0856825000118,
                    "velocity": 0.33070866141732286,
                    "duration": 0.3236864458333457
                },
                {
                    "name": "G3",
                    "midi": 55,
                    "time": 687.0856825000118,
                    "velocity": 0.33070866141732286,
                    "duration": 0.3236864458333457
                },
                {
                    "name": "F3",
                    "midi": 53,
                    "time": 687.0856825000118,
                    "velocity": 0.33070866141732286,
                    "duration": 0.3236864458333457
                },
                {
                    "name": "C3",
                    "midi": 48,
                    "time": 687.0856825000118,
                    "velocity": 0.33070866141732286,
                    "duration": 0.3236864458333457
                },
                {
                    "name": "B3",
                    "midi": 59,
                    "time": 687.0856825000118,
                    "velocity": 0.3937007874015748,
                    "duration": 0.3236864458333457
                },
                {
                    "name": "D3",
                    "midi": 50,
                    "time": 687.4120890000117,
                    "velocity": 0.3464566929133858,
                    "duration": 0.3236864458333457
                },
                {
                    "name": "F3",
                    "midi": 53,
                    "time": 687.4120890000117,
                    "velocity": 0.3464566929133858,
                    "duration": 0.3236864458333457
                },
                {
                    "name": "G3",
                    "midi": 55,
                    "time": 687.4120890000117,
                    "velocity": 0.3464566929133858,
                    "duration": 0.3236864458333457
                },
                {
                    "name": "C3",
                    "midi": 48,
                    "time": 687.4120890000117,
                    "velocity": 0.3464566929133858,
                    "duration": 0.3236864458333457
                },
                {
                    "name": "B3",
                    "midi": 59,
                    "time": 687.4120890000117,
                    "velocity": 0.4094488188976378,
                    "duration": 0.3236864458333457
                },
                {
                    "name": "D3",
                    "midi": 50,
                    "time": 687.7384955000117,
                    "velocity": 0.3543307086614173,
                    "duration": 0.3236864458333457
                },
                {
                    "name": "F3",
                    "midi": 53,
                    "time": 687.7384955000117,
                    "velocity": 0.3543307086614173,
                    "duration": 0.3236864458333457
                },
                {
                    "name": "G3",
                    "midi": 55,
                    "time": 687.7384955000117,
                    "velocity": 0.3543307086614173,
                    "duration": 0.3236864458333457
                },
                {
                    "name": "C3",
                    "midi": 48,
                    "time": 687.7384955000117,
                    "velocity": 0.3543307086614173,
                    "duration": 0.3236864458333457
                },
                {
                    "name": "B3",
                    "midi": 59,
                    "time": 687.7384955000117,
                    "velocity": 0.4330708661417323,
                    "duration": 0.3236864458333457
                },
                {
                    "name": "D3",
                    "midi": 50,
                    "time": 688.0649020000117,
                    "velocity": 0.3858267716535433,
                    "duration": 0.3236864458333457
                },
                {
                    "name": "F3",
                    "midi": 53,
                    "time": 688.0649020000117,
                    "velocity": 0.3858267716535433,
                    "duration": 0.3236864458333457
                },
                {
                    "name": "G3",
                    "midi": 55,
                    "time": 688.0649020000117,
                    "velocity": 0.3858267716535433,
                    "duration": 0.3236864458333457
                },
                {
                    "name": "C3",
                    "midi": 48,
                    "time": 688.0649020000117,
                    "velocity": 0.3858267716535433,
                    "duration": 0.3236864458333457
                },
                {
                    "name": "B3",
                    "midi": 59,
                    "time": 688.0649020000117,
                    "velocity": 0.47244094488188976,
                    "duration": 0.3236864458333457
                },
                {
                    "name": "D3",
                    "midi": 50,
                    "time": 688.3913085000116,
                    "velocity": 0.3543307086614173,
                    "duration": 0.3236864458333457
                },
                {
                    "name": "G3",
                    "midi": 55,
                    "time": 688.3913085000116,
                    "velocity": 0.3543307086614173,
                    "duration": 0.3236864458333457
                },
                {
                    "name": "F3",
                    "midi": 53,
                    "time": 688.3913085000116,
                    "velocity": 0.3543307086614173,
                    "duration": 0.3236864458333457
                },
                {
                    "name": "C3",
                    "midi": 48,
                    "time": 688.3913085000116,
                    "velocity": 0.3543307086614173,
                    "duration": 0.3236864458333457
                },
                {
                    "name": "B3",
                    "midi": 59,
                    "time": 688.3913085000116,
                    "velocity": 0.4251968503937008,
                    "duration": 0.3236864458333457
                },
                {
                    "name": "D3",
                    "midi": 50,
                    "time": 688.7177150000116,
                    "velocity": 0.36220472440944884,
                    "duration": 0.3236864458333457
                },
                {
                    "name": "F3",
                    "midi": 53,
                    "time": 688.7177150000116,
                    "velocity": 0.36220472440944884,
                    "duration": 0.3236864458333457
                },
                {
                    "name": "G3",
                    "midi": 55,
                    "time": 688.7177150000116,
                    "velocity": 0.36220472440944884,
                    "duration": 0.3236864458333457
                },
                {
                    "name": "C3",
                    "midi": 48,
                    "time": 688.7177150000116,
                    "velocity": 0.36220472440944884,
                    "duration": 0.3236864458333457
                },
                {
                    "name": "B3",
                    "midi": 59,
                    "time": 688.7177150000116,
                    "velocity": 0.4330708661417323,
                    "duration": 0.3236864458333457
                },
                {
                    "name": "D3",
                    "midi": 50,
                    "time": 689.0441215000116,
                    "velocity": 0.3779527559055118,
                    "duration": 0.3236864458333457
                },
                {
                    "name": "F3",
                    "midi": 53,
                    "time": 689.0441215000116,
                    "velocity": 0.3779527559055118,
                    "duration": 0.3236864458333457
                },
                {
                    "name": "G3",
                    "midi": 55,
                    "time": 689.0441215000116,
                    "velocity": 0.3779527559055118,
                    "duration": 0.3236864458333457
                },
                {
                    "name": "C3",
                    "midi": 48,
                    "time": 689.0441215000116,
                    "velocity": 0.3779527559055118,
                    "duration": 0.3236864458333457
                },
                {
                    "name": "B3",
                    "midi": 59,
                    "time": 689.0441215000116,
                    "velocity": 0.4566929133858268,
                    "duration": 0.3236864458333457
                },
                {
                    "name": "C2",
                    "midi": 36,
                    "time": 689.3705280000115,
                    "velocity": 0.5590551181102362,
                    "duration": 0.32640649999996185
                },
                {
                    "name": "C3",
                    "midi": 48,
                    "time": 689.3705280000115,
                    "velocity": 0.5590551181102362,
                    "duration": 0.32640649999996185
                },
                {
                    "name": "E3",
                    "midi": 52,
                    "time": 689.6969345000115,
                    "velocity": 0.4409448818897638,
                    "duration": 0.16320325000003777
                },
                {
                    "name": "G3",
                    "midi": 55,
                    "time": 689.6969345000115,
                    "velocity": 0.5275590551181102,
                    "duration": 0.16320325000003777
                },
                {
                    "name": "C3",
                    "midi": 48,
                    "time": 690.0233410000116,
                    "velocity": 0.4645669291338583,
                    "duration": 0.16320325000003777
                },
                {
                    "name": "E3",
                    "midi": 52,
                    "time": 690.0233410000116,
                    "velocity": 0.5511811023622047,
                    "duration": 0.16320325000003777
                },
                {
                    "name": "C4",
                    "midi": 60,
                    "time": 690.3497475000116,
                    "velocity": 0.5275590551181102,
                    "duration": 0.16320325000003777
                },
                {
                    "name": "G3",
                    "midi": 55,
                    "time": 690.3497475000116,
                    "velocity": 0.4409448818897638,
                    "duration": 0.16320325000003777
                },
                {
                    "name": "E3",
                    "midi": 52,
                    "time": 690.6761540000117,
                    "velocity": 0.4645669291338583,
                    "duration": 0.16320325000003777
                },
                {
                    "name": "G3",
                    "midi": 55,
                    "time": 690.6761540000117,
                    "velocity": 0.5511811023622047,
                    "duration": 0.16320325000003777
                },
                {
                    "name": "C4",
                    "midi": 60,
                    "time": 691.0025605000118,
                    "velocity": 0.4409448818897638,
                    "duration": 0.16320325000003777
                },
                {
                    "name": "E4",
                    "midi": 64,
                    "time": 691.0025605000118,
                    "velocity": 0.5275590551181102,
                    "duration": 0.16320325000003777
                },
                {
                    "name": "G3",
                    "midi": 55,
                    "time": 691.3289670000119,
                    "velocity": 0.47244094488188976,
                    "duration": 0.16320325000003777
                },
                {
                    "name": "C4",
                    "midi": 60,
                    "time": 691.3289670000119,
                    "velocity": 0.5590551181102362,
                    "duration": 0.16320325000003777
                },
                {
                    "name": "C4",
                    "midi": 60,
                    "time": 691.6553735000119,
                    "velocity": 0.4409448818897638,
                    "duration": 0.16320325000003777
                },
                {
                    "name": "E4",
                    "midi": 64,
                    "time": 691.6553735000119,
                    "velocity": 0.5275590551181102,
                    "duration": 0.16320325000003777
                },
                {
                    "name": "E4",
                    "midi": 64,
                    "time": 691.981780000012,
                    "velocity": 0.4645669291338583,
                    "duration": 0.16320325000003777
                },
                {
                    "name": "G4",
                    "midi": 67,
                    "time": 691.981780000012,
                    "velocity": 0.5511811023622047,
                    "duration": 0.16320325000003777
                },
                {
                    "name": "G4",
                    "midi": 67,
                    "time": 692.3081865000121,
                    "velocity": 0.44881889763779526,
                    "duration": 0.16320325000003777
                },
                {
                    "name": "C5",
                    "midi": 72,
                    "time": 692.3081865000121,
                    "velocity": 0.5354330708661418,
                    "duration": 0.16320325000003777
                },
                {
                    "name": "E4",
                    "midi": 64,
                    "time": 692.6345930000122,
                    "velocity": 0.4645669291338583,
                    "duration": 0.16320325000003777
                },
                {
                    "name": "G4",
                    "midi": 67,
                    "time": 692.6345930000122,
                    "velocity": 0.5511811023622047,
                    "duration": 0.16320325000003777
                },
                {
                    "name": "C5",
                    "midi": 72,
                    "time": 692.9609995000122,
                    "velocity": 0.44881889763779526,
                    "duration": 0.16320325000003777
                },
                {
                    "name": "E5",
                    "midi": 76,
                    "time": 692.9609995000122,
                    "velocity": 0.5354330708661418,
                    "duration": 0.16320325000003777
                },
                {
                    "name": "G4",
                    "midi": 67,
                    "time": 693.2874060000123,
                    "velocity": 0.47244094488188976,
                    "duration": 0.16320325000003777
                },
                {
                    "name": "C5",
                    "midi": 72,
                    "time": 693.2874060000123,
                    "velocity": 0.5590551181102362,
                    "duration": 0.16320325000003777
                },
                {
                    "name": "E5",
                    "midi": 76,
                    "time": 693.6138125000124,
                    "velocity": 0.4566929133858268,
                    "duration": 0.16320325000003777
                },
                {
                    "name": "G5",
                    "midi": 79,
                    "time": 693.6138125000124,
                    "velocity": 0.5433070866141733,
                    "duration": 0.16320325000003777
                },
                {
                    "name": "C5",
                    "midi": 72,
                    "time": 693.9402190000125,
                    "velocity": 0.48031496062992124,
                    "duration": 0.16320325000003777
                },
                {
                    "name": "E5",
                    "midi": 76,
                    "time": 693.9402190000125,
                    "velocity": 0.5669291338582677,
                    "duration": 0.16320325000003777
                },
                {
                    "name": "E5",
                    "midi": 76,
                    "time": 694.2666255000125,
                    "velocity": 0.4566929133858268,
                    "duration": 0.16320325000003777
                },
                {
                    "name": "G5",
                    "midi": 79,
                    "time": 694.2666255000125,
                    "velocity": 0.5433070866141733,
                    "duration": 0.16320325000003777
                },
                {
                    "name": "C5",
                    "midi": 72,
                    "time": 694.5930320000126,
                    "velocity": 0.48031496062992124,
                    "duration": 0.16320325000003777
                },
                {
                    "name": "E5",
                    "midi": 76,
                    "time": 694.5930320000126,
                    "velocity": 0.5669291338582677,
                    "duration": 0.16320325000003777
                },
                {
                    "name": "E4",
                    "midi": 64,
                    "time": 695.8986580000127,
                    "velocity": 0.3464566929133858,
                    "duration": 0.32640649999996185
                },
                {
                    "name": "G4",
                    "midi": 67,
                    "time": 695.8986580000127,
                    "velocity": 0.4881889763779528,
                    "duration": 0.32640649999996185
                },
                {
                    "name": "C4",
                    "midi": 60,
                    "time": 697.2042840000126,
                    "velocity": 0.30708661417322836,
                    "duration": 0.32640649999996185
                },
                {
                    "name": "E4",
                    "midi": 64,
                    "time": 697.2042840000126,
                    "velocity": 0.4409448818897638,
                    "duration": 0.32640649999996185
                },
                {
                    "name": "E3",
                    "midi": 52,
                    "time": 698.5099100000126,
                    "velocity": 0.29133858267716534,
                    "duration": 0.32640649999996185
                },
                {
                    "name": "G3",
                    "midi": 55,
                    "time": 698.5099100000126,
                    "velocity": 0.4094488188976378,
                    "duration": 0.32640649999996185
                },
                {
                    "name": "C3",
                    "midi": 48,
                    "time": 699.8155360000126,
                    "velocity": 0.25196850393700787,
                    "duration": 0.32640649999996185
                },
                {
                    "name": "E3",
                    "midi": 52,
                    "time": 699.8155360000126,
                    "velocity": 0.3543307086614173,
                    "duration": 0.32640649999996185
                },
                {
                    "name": "E4",
                    "midi": 64,
                    "time": 701.1211620000125,
                    "velocity": 0.2204724409448819,
                    "duration": 0.32640649999996185
                },
                {
                    "name": "G4",
                    "midi": 67,
                    "time": 701.1211620000125,
                    "velocity": 0.2677165354330709,
                    "duration": 0.32640649999996185
                },
                {
                    "name": "E4",
                    "midi": 64,
                    "time": 701.7739750000125,
                    "velocity": 0.2204724409448819,
                    "duration": 0.32640649999996185
                },
                {
                    "name": "G4",
                    "midi": 67,
                    "time": 701.7739750000125,
                    "velocity": 0.2677165354330709,
                    "duration": 0.32640649999996185
                },
                {
                    "name": "C4",
                    "midi": 60,
                    "time": 702.4267880000124,
                    "velocity": 0.2204724409448819,
                    "duration": 0.32640649999996185
                },
                {
                    "name": "E4",
                    "midi": 64,
                    "time": 702.4267880000124,
                    "velocity": 0.2677165354330709,
                    "duration": 0.32640649999996185
                },
                {
                    "name": "C2",
                    "midi": 36,
                    "time": 703.7324140000123,
                    "velocity": 0.5433070866141733,
                    "duration": 0.16320325000003777
                },
                {
                    "name": "E2",
                    "midi": 40,
                    "time": 703.7324140000123,
                    "velocity": 0.5433070866141733,
                    "duration": 0.16320325000003777
                },
                {
                    "name": "G2",
                    "midi": 43,
                    "time": 703.7324140000123,
                    "velocity": 0.5433070866141733,
                    "duration": 0.16320325000003777
                },
                {
                    "name": "C3",
                    "midi": 48,
                    "time": 703.7324140000123,
                    "velocity": 0.6456692913385826,
                    "duration": 0.16320325000003777
                },
                {
                    "name": "C2",
                    "midi": 36,
                    "time": 704.3852270000124,
                    "velocity": 0.5433070866141733,
                    "duration": 0.16320325000003777
                },
                {
                    "name": "E2",
                    "midi": 40,
                    "time": 704.3852270000124,
                    "velocity": 0.5433070866141733,
                    "duration": 0.16320325000003777
                },
                {
                    "name": "G2",
                    "midi": 43,
                    "time": 704.3852270000124,
                    "velocity": 0.5433070866141733,
                    "duration": 0.16320325000003777
                },
                {
                    "name": "C3",
                    "midi": 48,
                    "time": 704.3852270000124,
                    "velocity": 0.6456692913385826,
                    "duration": 0.16320325000003777
                },
                {
                    "name": "C2",
                    "midi": 36,
                    "time": 705.0380400000124,
                    "velocity": 0.5433070866141733,
                    "duration": 0.16320325000003777
                },
                {
                    "name": "E2",
                    "midi": 40,
                    "time": 705.0380400000124,
                    "velocity": 0.5433070866141733,
                    "duration": 0.16320325000003777
                },
                {
                    "name": "G2",
                    "midi": 43,
                    "time": 705.0380400000124,
                    "velocity": 0.5433070866141733,
                    "duration": 0.16320325000003777
                },
                {
                    "name": "C3",
                    "midi": 48,
                    "time": 705.0380400000124,
                    "velocity": 0.6456692913385826,
                    "duration": 0.16320325000003777
                },
                {
                    "name": "C2",
                    "midi": 36,
                    "time": 706.3436660000125,
                    "velocity": 0.5433070866141733,
                    "duration": 0.16320325000003777
                },
                {
                    "name": "E2",
                    "midi": 40,
                    "time": 706.3436660000125,
                    "velocity": 0.5433070866141733,
                    "duration": 0.16320325000003777
                },
                {
                    "name": "G2",
                    "midi": 43,
                    "time": 706.3436660000125,
                    "velocity": 0.5433070866141733,
                    "duration": 0.16320325000003777
                },
                {
                    "name": "C3",
                    "midi": 48,
                    "time": 706.3436660000125,
                    "velocity": 0.6456692913385826,
                    "duration": 0.16320325000003777
                },
                {
                    "name": "C2",
                    "midi": 36,
                    "time": 707.6492920000126,
                    "velocity": 0.5433070866141733,
                    "duration": 0.16320325000003777
                },
                {
                    "name": "E2",
                    "midi": 40,
                    "time": 707.6492920000126,
                    "velocity": 0.5433070866141733,
                    "duration": 0.16320325000003777
                },
                {
                    "name": "G2",
                    "midi": 43,
                    "time": 707.6492920000126,
                    "velocity": 0.5433070866141733,
                    "duration": 0.16320325000003777
                },
                {
                    "name": "C3",
                    "midi": 48,
                    "time": 707.6492920000126,
                    "velocity": 0.6456692913385826,
                    "duration": 0.16320325000003777
                }
            ],
            "controlChanges": {
                "7": [
                    {
                        "number": 7,
                        "time": 0,
                        "value": 0.7874015748031497
                    }
                ],
                "10": [
                    {
                        "number": 10,
                        "time": 0,
                        "value": 0.5039370078740157
                    }
                ]
            },
            "id": 3,
            "name": "Piano left",
            "instrumentNumber": 1,
            "instrument": "bright acoustic piano",
            "instrumentFamily": "piano",
            "channelNumber": 0,
            "isPercussion": false
        },
        {
            "startTime": 0,
            "duration": 0,
            "length": 0,
            "notes": [],
            "controlChanges": {
                "64": [
                    {
                        "number": 64,
                        "time": 0.1060821125,
                        "value": 1
                    },
                    {
                        "number": 64,
                        "time": 2.6248522708333333,
                        "value": 0
                    },
                    {
                        "number": 64,
                        "time": 2.7268543020833333,
                        "value": 1
                    },
                    {
                        "number": 64,
                        "time": 3.933198325,
                        "value": 0
                    },
                    {
                        "number": 64,
                        "time": 4.042000491666667,
                        "value": 1
                    },
                    {
                        "number": 64,
                        "time": 5.252424595833334,
                        "value": 0
                    },
                    {
                        "number": 64,
                        "time": 5.385707250000001,
                        "value": 1
                    },
                    {
                        "number": 64,
                        "time": 7.851436352083335,
                        "value": 0
                    },
                    {
                        "number": 64,
                        "time": 7.958878491666668,
                        "value": 1
                    },
                    {
                        "number": 64,
                        "time": 9.161142433333334,
                        "value": 0
                    },
                    {
                        "number": 64,
                        "time": 9.2454641125,
                        "value": 1
                    },
                    {
                        "number": 64,
                        "time": 10.457248243750001,
                        "value": 0
                    },
                    {
                        "number": 64,
                        "time": 10.589170870833335,
                        "value": 1
                    },
                    {
                        "number": 64,
                        "time": 13.07122029791667,
                        "value": 0
                    },
                    {
                        "number": 64,
                        "time": 13.18138249166667,
                        "value": 1
                    },
                    {
                        "number": 64,
                        "time": 14.387726514583337,
                        "value": 0
                    },
                    {
                        "number": 64,
                        "time": 14.467968112500003,
                        "value": 1
                    },
                    {
                        "number": 64,
                        "time": 15.67839221666667,
                        "value": 0
                    },
                    {
                        "number": 64,
                        "time": 15.821195060416668,
                        "value": 1
                    },
                    {
                        "number": 64,
                        "time": 18.297804379166667,
                        "value": 0
                    },
                    {
                        "number": 64,
                        "time": 18.36444570625,
                        "value": 1
                    },
                    {
                        "number": 64,
                        "time": 19.603430379166667,
                        "value": 0
                    },
                    {
                        "number": 64,
                        "time": 19.70951249166667,
                        "value": 1
                    },
                    {
                        "number": 64,
                        "time": 20.90089621666667,
                        "value": 0
                    },
                    {
                        "number": 64,
                        "time": 20.996098112500004,
                        "value": 1
                    },
                    {
                        "number": 64,
                        "time": 22.211962325000005,
                        "value": 0
                    },
                    {
                        "number": 64,
                        "time": 22.301724112500004,
                        "value": 1
                    },
                    {
                        "number": 64,
                        "time": 23.52438846041667,
                        "value": 0
                    },
                    {
                        "number": 64,
                        "time": 23.595109868750004,
                        "value": 1
                    },
                    {
                        "number": 64,
                        "time": 24.823214325000006,
                        "value": 0
                    },
                    {
                        "number": 64,
                        "time": 24.932016491666673,
                        "value": 1
                    },
                    {
                        "number": 64,
                        "time": 25.482827460416672,
                        "value": 0
                    },
                    {
                        "number": 64,
                        "time": 25.654190872916672,
                        "value": 1
                    },
                    {
                        "number": 64,
                        "time": 26.134280433333338,
                        "value": 0
                    },
                    {
                        "number": 64,
                        "time": 26.22132216666667,
                        "value": 1
                    },
                    {
                        "number": 64,
                        "time": 26.79117351458334,
                        "value": 0
                    },
                    {
                        "number": 64,
                        "time": 26.89045549166667,
                        "value": 1
                    },
                    {
                        "number": 64,
                        "time": 27.43582635208334,
                        "value": 0
                    },
                    {
                        "number": 64,
                        "time": 27.51470792291667,
                        "value": 1
                    },
                    {
                        "number": 64,
                        "time": 28.08999937916667,
                        "value": 0
                    },
                    {
                        "number": 64,
                        "time": 28.186561302083337,
                        "value": 1
                    },
                    {
                        "number": 64,
                        "time": 28.730572135416672,
                        "value": 0
                    },
                    {
                        "number": 64,
                        "time": 28.83257416666667,
                        "value": 1
                    },
                    {
                        "number": 64,
                        "time": 30.029398000000004,
                        "value": 0
                    },
                    {
                        "number": 64,
                        "time": 30.12595992291667,
                        "value": 1
                    },
                    {
                        "number": 64,
                        "time": 31.348624270833337,
                        "value": 0
                    },
                    {
                        "number": 64,
                        "time": 31.437026031250003,
                        "value": 1
                    },
                    {
                        "number": 64,
                        "time": 32.67193062291667,
                        "value": 0
                    },
                    {
                        "number": 64,
                        "time": 32.734491868750005,
                        "value": 1
                    },
                    {
                        "number": 64,
                        "time": 33.97211651458334,
                        "value": 0
                    },
                    {
                        "number": 64,
                        "time": 34.03331773333334,
                        "value": 1
                    },
                    {
                        "number": 64,
                        "time": 35.266862297916674,
                        "value": 0
                    },
                    {
                        "number": 64,
                        "time": 35.377024491666674,
                        "value": 1
                    },
                    {
                        "number": 64,
                        "time": 36.580648460416676,
                        "value": 0
                    },
                    {
                        "number": 64,
                        "time": 36.66361011250001,
                        "value": 1
                    },
                    {
                        "number": 64,
                        "time": 37.88763448750001,
                        "value": 0
                    },
                    {
                        "number": 64,
                        "time": 37.97875630208334,
                        "value": 1
                    },
                    {
                        "number": 64,
                        "time": 39.181020243750005,
                        "value": 0
                    },
                    {
                        "number": 64,
                        "time": 39.28438230208334,
                        "value": 1
                    },
                    {
                        "number": 64,
                        "time": 41.79771235208334,
                        "value": 0
                    },
                    {
                        "number": 64,
                        "time": 41.87659392291667,
                        "value": 1
                    },
                    {
                        "number": 64,
                        "time": 43.09925827083334,
                        "value": 0
                    },
                    {
                        "number": 64,
                        "time": 43.15365935416667,
                        "value": 1
                    },
                    {
                        "number": 64,
                        "time": 44.40216421666667,
                        "value": 0
                    },
                    {
                        "number": 64,
                        "time": 44.478325733333335,
                        "value": 1
                    },
                    {
                        "number": 64,
                        "time": 47.017496297916665,
                        "value": 0
                    },
                    {
                        "number": 64,
                        "time": 47.13717868125,
                        "value": 1
                    },
                    {
                        "number": 64,
                        "time": 48.325842352083335,
                        "value": 0
                    },
                    {
                        "number": 64,
                        "time": 48.44280468125,
                        "value": 1
                    },
                    {
                        "number": 64,
                        "time": 49.6382684875,
                        "value": 0
                    },
                    {
                        "number": 64,
                        "time": 49.738910491666665,
                        "value": 1
                    },
                    {
                        "number": 64,
                        "time": 52.23728024375,
                        "value": 0
                    },
                    {
                        "number": 64,
                        "time": 52.3311221125,
                        "value": 1
                    },
                    {
                        "number": 64,
                        "time": 53.55650651458333,
                        "value": 0
                    },
                    {
                        "number": 64,
                        "time": 53.646268302083335,
                        "value": 1
                    },
                    {
                        "number": 64,
                        "time": 54.858052433333334,
                        "value": 0
                    },
                    {
                        "number": 64,
                        "time": 54.9423741125,
                        "value": 1
                    },
                    {
                        "number": 64,
                        "time": 57.457064189583335,
                        "value": 0
                    },
                    {
                        "number": 64,
                        "time": 57.52506554375,
                        "value": 1
                    },
                    {
                        "number": 64,
                        "time": 58.777650487500004,
                        "value": 0
                    },
                    {
                        "number": 64,
                        "time": 58.868772302083336,
                        "value": 1
                    },
                    {
                        "number": 64,
                        "time": 60.07783637916667,
                        "value": 0
                    },
                    {
                        "number": 64,
                        "time": 60.15535792291667,
                        "value": 1
                    },
                    {
                        "number": 64,
                        "time": 61.38346237916667,
                        "value": 0
                    },
                    {
                        "number": 64,
                        "time": 61.460983922916675,
                        "value": 1
                    },
                    {
                        "number": 64,
                        "time": 62.68772835208334,
                        "value": 0
                    },
                    {
                        "number": 64,
                        "time": 62.747569543750004,
                        "value": 1
                    },
                    {
                        "number": 64,
                        "time": 63.99335435208334,
                        "value": 0
                    },
                    {
                        "number": 64,
                        "time": 64.06951586875,
                        "value": 1
                    },
                    {
                        "number": 64,
                        "time": 64.65024743333333,
                        "value": 0
                    },
                    {
                        "number": 64,
                        "time": 64.72232886875,
                        "value": 1
                    },
                    {
                        "number": 64,
                        "time": 65.31530067708333,
                        "value": 0
                    },
                    {
                        "number": 64,
                        "time": 65.33978116458333,
                        "value": 1
                    },
                    {
                        "number": 64,
                        "time": 65.94907329791666,
                        "value": 0
                    },
                    {
                        "number": 64,
                        "time": 66.00211435416665,
                        "value": 1
                    },
                    {
                        "number": 64,
                        "time": 66.61276651458331,
                        "value": 0
                    },
                    {
                        "number": 64,
                        "time": 66.64948724583331,
                        "value": 1
                    },
                    {
                        "number": 64,
                        "time": 67.25877937916664,
                        "value": 0
                    },
                    {
                        "number": 64,
                        "time": 67.32678073333331,
                        "value": 1
                    },
                    {
                        "number": 64,
                        "time": 67.91023235208331,
                        "value": 0
                    },
                    {
                        "number": 64,
                        "time": 67.95511324583332,
                        "value": 1
                    },
                    {
                        "number": 64,
                        "time": 68.56576540624998,
                        "value": 0
                    },
                    {
                        "number": 64,
                        "time": 68.61744643541665,
                        "value": 1
                    },
                    {
                        "number": 64,
                        "time": 69.21313829791666,
                        "value": 0
                    },
                    {
                        "number": 64,
                        "time": 69.24713897499998,
                        "value": 1
                    },
                    {
                        "number": 64,
                        "time": 69.87003137916665,
                        "value": 0
                    },
                    {
                        "number": 64,
                        "time": 69.91899235416665,
                        "value": 1
                    },
                    {
                        "number": 64,
                        "time": 70.51196416249998,
                        "value": 0
                    },
                    {
                        "number": 64,
                        "time": 70.57180535416664,
                        "value": 1
                    },
                    {
                        "number": 64,
                        "time": 73.13409637916664,
                        "value": 0
                    },
                    {
                        "number": 64,
                        "time": 73.19257754374996,
                        "value": 1
                    },
                    {
                        "number": 64,
                        "time": 74.4383623520833,
                        "value": 0
                    },
                    {
                        "number": 64,
                        "time": 74.48868335416664,
                        "value": 1
                    },
                    {
                        "number": 64,
                        "time": 75.7439883520833,
                        "value": 0
                    },
                    {
                        "number": 64,
                        "time": 75.7847891645833,
                        "value": 1
                    },
                    {
                        "number": 64,
                        "time": 78.35388032499996,
                        "value": 0
                    },
                    {
                        "number": 64,
                        "time": 78.38516094791663,
                        "value": 1
                    },
                    {
                        "number": 64,
                        "time": 79.65542624374997,
                        "value": 0
                    },
                    {
                        "number": 64,
                        "time": 80.65640617708331,
                        "value": 1
                    },
                    {
                        "number": 64,
                        "time": 80.95697216249998,
                        "value": 0
                    },
                    {
                        "number": 64,
                        "time": 81.2847386895833,
                        "value": 1
                    },
                    {
                        "number": 64,
                        "time": 81.6193053520833,
                        "value": 0
                    },
                    {
                        "number": 64,
                        "time": 81.92803149999997,
                        "value": 1
                    },
                    {
                        "number": 64,
                        "time": 82.26531821666664,
                        "value": 0
                    },
                    {
                        "number": 64,
                        "time": 82.60124490624997,
                        "value": 1
                    },
                    {
                        "number": 64,
                        "time": 82.93037146041664,
                        "value": 0
                    },
                    {
                        "number": 64,
                        "time": 83.24997782499997,
                        "value": 1
                    },
                    {
                        "number": 64,
                        "time": 83.56006399999997,
                        "value": 0
                    },
                    {
                        "number": 64,
                        "time": 83.93951155624997,
                        "value": 1
                    },
                    {
                        "number": 64,
                        "time": 84.2305573520833,
                        "value": 0
                    },
                    {
                        "number": 64,
                        "time": 84.5977646645833,
                        "value": 1
                    },
                    {
                        "number": 64,
                        "time": 84.8752101895833,
                        "value": 0
                    },
                    {
                        "number": 64,
                        "time": 85.2505776645833,
                        "value": 1
                    },
                    {
                        "number": 64,
                        "time": 85.53890340624997,
                        "value": 0
                    },
                    {
                        "number": 64,
                        "time": 85.9033906645833,
                        "value": 1
                    },
                    {
                        "number": 64,
                        "time": 86.18219621666663,
                        "value": 0
                    },
                    {
                        "number": 64,
                        "time": 86.57524404374996,
                        "value": 1
                    },
                    {
                        "number": 64,
                        "time": 86.84316937916662,
                        "value": 0
                    },
                    {
                        "number": 64,
                        "time": 87.1886162583333,
                        "value": 1
                    },
                    {
                        "number": 64,
                        "time": 87.48918224374997,
                        "value": 0
                    },
                    {
                        "number": 64,
                        "time": 87.8577495833333,
                        "value": 1
                    },
                    {
                        "number": 64,
                        "time": 88.14879537916663,
                        "value": 0
                    },
                    {
                        "number": 64,
                        "time": 88.51464266458329,
                        "value": 1
                    },
                    {
                        "number": 64,
                        "time": 88.79752829791663,
                        "value": 0
                    },
                    {
                        "number": 64,
                        "time": 89.1184946895833,
                        "value": 1
                    },
                    {
                        "number": 64,
                        "time": 89.45442137916663,
                        "value": 0
                    },
                    {
                        "number": 64,
                        "time": 89.8243487458333,
                        "value": 1
                    },
                    {
                        "number": 64,
                        "time": 90.1058743520833,
                        "value": 0
                    },
                    {
                        "number": 64,
                        "time": 90.46764155624997,
                        "value": 1
                    },
                    {
                        "number": 64,
                        "time": 90.75324724374997,
                        "value": 0
                    },
                    {
                        "number": 64,
                        "time": 92.79600792291663,
                        "value": 1
                    },
                    {
                        "number": 64,
                        "time": 93.35225899999996,
                        "value": 0
                    },
                    {
                        "number": 64,
                        "time": 95.4548608708333,
                        "value": 1
                    },
                    {
                        "number": 64,
                        "time": 95.97847129791663,
                        "value": 0
                    },
                    {
                        "number": 64,
                        "time": 97.9804311645833,
                        "value": 1
                    },
                    {
                        "number": 64,
                        "time": 98.58428318958329,
                        "value": 0
                    },
                    {
                        "number": 64,
                        "time": 100.60120335416663,
                        "value": 1
                    },
                    {
                        "number": 64,
                        "time": 101.1914551083333,
                        "value": 0
                    },
                    {
                        "number": 64,
                        "time": 101.29617719374997,
                        "value": 1
                    },
                    {
                        "number": 64,
                        "time": 101.85786837916663,
                        "value": 0
                    },
                    {
                        "number": 64,
                        "time": 101.91090943541663,
                        "value": 1
                    },
                    {
                        "number": 64,
                        "time": 102.5256416770833,
                        "value": 0
                    },
                    {
                        "number": 64,
                        "time": 102.5827628145833,
                        "value": 1
                    },
                    {
                        "number": 64,
                        "time": 103.1498941083333,
                        "value": 0
                    },
                    {
                        "number": 64,
                        "time": 103.2029351645833,
                        "value": 1
                    },
                    {
                        "number": 64,
                        "time": 103.81902743333329,
                        "value": 0
                    },
                    {
                        "number": 64,
                        "time": 105.79922686666663,
                        "value": 1
                    },
                    {
                        "number": 64,
                        "time": 106.40851899999996,
                        "value": 0
                    },
                    {
                        "number": 64,
                        "time": 106.48604054374995,
                        "value": 1
                    },
                    {
                        "number": 64,
                        "time": 107.11029297499995,
                        "value": 0
                    },
                    {
                        "number": 64,
                        "time": 107.17149419374995,
                        "value": 1
                    },
                    {
                        "number": 64,
                        "time": 107.72502521666662,
                        "value": 0
                    },
                    {
                        "number": 64,
                        "time": 107.78214635416663,
                        "value": 1
                    },
                    {
                        "number": 64,
                        "time": 108.39415854166663,
                        "value": 0
                    },
                    {
                        "number": 64,
                        "time": 108.41047886666662,
                        "value": 1
                    },
                    {
                        "number": 64,
                        "time": 109.0374513520833,
                        "value": 0
                    },
                    {
                        "number": 64,
                        "time": 113.65202324583329,
                        "value": 1
                    },
                    {
                        "number": 64,
                        "time": 114.25043516249995,
                        "value": 0
                    },
                    {
                        "number": 64,
                        "time": 116.27823554374996,
                        "value": 1
                    },
                    {
                        "number": 64,
                        "time": 116.88208756874995,
                        "value": 0
                    },
                    {
                        "number": 64,
                        "time": 118.87452724583329,
                        "value": 1
                    },
                    {
                        "number": 64,
                        "time": 119.49605962291662,
                        "value": 0
                    },
                    {
                        "number": 64,
                        "time": 126.89596698333328,
                        "value": 1
                    },
                    {
                        "number": 64,
                        "time": 131.29293454374994,
                        "value": 0
                    },
                    {
                        "number": 64,
                        "time": 132.11847098333328,
                        "value": 1
                    },
                    {
                        "number": 64,
                        "time": 136.80240425833327,
                        "value": 0
                    },
                    {
                        "number": 64,
                        "time": 137.34097498333327,
                        "value": 1
                    },
                    {
                        "number": 64,
                        "time": 146.81084356458328,
                        "value": 0
                    },
                    {
                        "number": 64,
                        "time": 147.63229992291662,
                        "value": 1
                    },
                    {
                        "number": 64,
                        "time": 150.16467035208328,
                        "value": 0
                    },
                    {
                        "number": 64,
                        "time": 150.24355192291662,
                        "value": 1
                    },
                    {
                        "number": 64,
                        "time": 151.46621627083329,
                        "value": 0
                    },
                    {
                        "number": 64,
                        "time": 151.58725868124995,
                        "value": 1
                    },
                    {
                        "number": 64,
                        "time": 152.77592235208328,
                        "value": 0
                    },
                    {
                        "number": 64,
                        "time": 152.87384430208328,
                        "value": 1
                    },
                    {
                        "number": 64,
                        "time": 155.38853437916663,
                        "value": 0
                    },
                    {
                        "number": 64,
                        "time": 155.4850963020833,
                        "value": 1
                    },
                    {
                        "number": 64,
                        "time": 156.69960048749996,
                        "value": 0
                    },
                    {
                        "number": 64,
                        "time": 156.80024249166664,
                        "value": 1
                    },
                    {
                        "number": 64,
                        "time": 157.9943462708333,
                        "value": 0
                    },
                    {
                        "number": 64,
                        "time": 158.10586849166663,
                        "value": 1
                    },
                    {
                        "number": 64,
                        "time": 160.60423824374996,
                        "value": 0
                    },
                    {
                        "number": 64,
                        "time": 160.7076003020833,
                        "value": 1
                    },
                    {
                        "number": 64,
                        "time": 161.9193844333333,
                        "value": 0
                    },
                    {
                        "number": 64,
                        "time": 162.00370611249997,
                        "value": 1
                    },
                    {
                        "number": 64,
                        "time": 163.22773048749997,
                        "value": 0
                    },
                    {
                        "number": 64,
                        "time": 163.32837249166664,
                        "value": 1
                    },
                    {
                        "number": 64,
                        "time": 165.82538221666664,
                        "value": 0
                    },
                    {
                        "number": 64,
                        "time": 165.9545847895833,
                        "value": 1
                    },
                    {
                        "number": 64,
                        "time": 167.13644832499995,
                        "value": 0
                    },
                    {
                        "number": 64,
                        "time": 167.2452504916666,
                        "value": 1
                    },
                    {
                        "number": 64,
                        "time": 168.44887446041662,
                        "value": 0
                    },
                    {
                        "number": 64,
                        "time": 168.56039668124996,
                        "value": 1
                    },
                    {
                        "number": 64,
                        "time": 169.75722051458328,
                        "value": 0
                    },
                    {
                        "number": 64,
                        "time": 169.86602268124994,
                        "value": 1
                    },
                    {
                        "number": 64,
                        "time": 171.05060627083327,
                        "value": 0
                    },
                    {
                        "number": 64,
                        "time": 171.09956724583327,
                        "value": 1
                    },
                    {
                        "number": 64,
                        "time": 172.36031235208327,
                        "value": 0
                    },
                    {
                        "number": 64,
                        "time": 172.44463403124993,
                        "value": 1
                    },
                    {
                        "number": 64,
                        "time": 173.0185654604166,
                        "value": 0
                    },
                    {
                        "number": 64,
                        "time": 173.1205674916666,
                        "value": 1
                    },
                    {
                        "number": 64,
                        "time": 173.6713784604166,
                        "value": 0
                    },
                    {
                        "number": 64,
                        "time": 173.75026003124995,
                        "value": 1
                    },
                    {
                        "number": 64,
                        "time": 174.32147140624994,
                        "value": 0
                    },
                    {
                        "number": 64,
                        "time": 174.4098731666666,
                        "value": 1
                    },
                    {
                        "number": 64,
                        "time": 174.9729243791666,
                        "value": 0
                    },
                    {
                        "number": 64,
                        "time": 175.12660743958327,
                        "value": 1
                    },
                    {
                        "number": 64,
                        "time": 175.6298174604166,
                        "value": 0
                    },
                    {
                        "number": 64,
                        "time": 175.75085987083327,
                        "value": 1
                    },
                    {
                        "number": 64,
                        "time": 176.2744702979166,
                        "value": 0
                    },
                    {
                        "number": 64,
                        "time": 176.3846324916666,
                        "value": 1
                    },
                    {
                        "number": 64,
                        "time": 177.58281635208326,
                        "value": 0
                    },
                    {
                        "number": 64,
                        "time": 177.6997786812499,
                        "value": 1
                    },
                    {
                        "number": 64,
                        "time": 178.88436227083324,
                        "value": 0
                    },
                    {
                        "number": 64,
                        "time": 178.98772432916658,
                        "value": 1
                    },
                    {
                        "number": 64,
                        "time": 180.20766862291657,
                        "value": 0
                    },
                    {
                        "number": 64,
                        "time": 180.2702298687499,
                        "value": 1
                    },
                    {
                        "number": 64,
                        "time": 181.50785451458324,
                        "value": 0
                    },
                    {
                        "number": 64,
                        "time": 181.5880961124999,
                        "value": 1
                    },
                    {
                        "number": 64,
                        "time": 182.80532035208324,
                        "value": 0
                    },
                    {
                        "number": 64,
                        "time": 182.91276249166657,
                        "value": 1
                    },
                    {
                        "number": 64,
                        "time": 184.11774648749991,
                        "value": 0
                    },
                    {
                        "number": 64,
                        "time": 184.24694906041657,
                        "value": 1
                    },
                    {
                        "number": 64,
                        "time": 185.41657235208322,
                        "value": 0
                    },
                    {
                        "number": 64,
                        "time": 185.54305487083323,
                        "value": 1
                    },
                    {
                        "number": 64,
                        "time": 186.72763846041656,
                        "value": 0
                    },
                    {
                        "number": 64,
                        "time": 186.81060011249988,
                        "value": 1
                    },
                    {
                        "number": 64,
                        "time": 189.33345035208322,
                        "value": 0
                    },
                    {
                        "number": 64,
                        "time": 189.39329154374988,
                        "value": 1
                    },
                    {
                        "number": 64,
                        "time": 190.64723651458323,
                        "value": 0
                    },
                    {
                        "number": 64,
                        "time": 190.72747811249988,
                        "value": 1
                    },
                    {
                        "number": 64,
                        "time": 191.95150248749988,
                        "value": 0
                    },
                    {
                        "number": 64,
                        "time": 192.02358392291654,
                        "value": 1
                    },
                    {
                        "number": 64,
                        "time": 194.55187427083322,
                        "value": 0
                    },
                    {
                        "number": 64,
                        "time": 194.62531573333322,
                        "value": 1
                    },
                    {
                        "number": 64,
                        "time": 195.85478021666657,
                        "value": 0
                    },
                    {
                        "number": 64,
                        "time": 195.91190135416656,
                        "value": 1
                    },
                    {
                        "number": 64,
                        "time": 197.15904618958322,
                        "value": 0
                    },
                    {
                        "number": 64,
                        "time": 197.2841686812499,
                        "value": 1
                    },
                    {
                        "number": 64,
                        "time": 199.7852584874999,
                        "value": 0
                    },
                    {
                        "number": 64,
                        "time": 199.88590049166658,
                        "value": 1
                    },
                    {
                        "number": 64,
                        "time": 201.08000427083323,
                        "value": 0
                    },
                    {
                        "number": 64,
                        "time": 201.16296592291656,
                        "value": 1
                    },
                    {
                        "number": 64,
                        "time": 202.38563027083322,
                        "value": 0
                    },
                    {
                        "number": 64,
                        "time": 202.55427362916654,
                        "value": 1
                    },
                    {
                        "number": 64,
                        "time": 204.99688227083323,
                        "value": 0
                    },
                    {
                        "number": 64,
                        "time": 205.0852840312499,
                        "value": 1
                    },
                    {
                        "number": 64,
                        "time": 206.31202846041657,
                        "value": 0
                    },
                    {
                        "number": 64,
                        "time": 206.37594973333324,
                        "value": 1
                    },
                    {
                        "number": 64,
                        "time": 207.6054142166666,
                        "value": 0
                    },
                    {
                        "number": 64,
                        "time": 207.72917668124992,
                        "value": 1
                    },
                    {
                        "number": 64,
                        "time": 208.92464048749991,
                        "value": 0
                    },
                    {
                        "number": 64,
                        "time": 209.0062421124999,
                        "value": 1
                    },
                    {
                        "number": 64,
                        "time": 210.2261864062499,
                        "value": 0
                    },
                    {
                        "number": 64,
                        "time": 210.28330754374988,
                        "value": 1
                    },
                    {
                        "number": 64,
                        "time": 211.52773232499987,
                        "value": 0
                    },
                    {
                        "number": 64,
                        "time": 211.61341403124987,
                        "value": 1
                    },
                    {
                        "number": 64,
                        "time": 212.18870548749987,
                        "value": 0
                    },
                    {
                        "number": 64,
                        "time": 212.28118732916653,
                        "value": 1
                    },
                    {
                        "number": 64,
                        "time": 212.84151848749985,
                        "value": 0
                    },
                    {
                        "number": 64,
                        "time": 212.8850393541665,
                        "value": 1
                    },
                    {
                        "number": 64,
                        "time": 213.48345127083317,
                        "value": 0
                    },
                    {
                        "number": 64,
                        "time": 213.5419324354165,
                        "value": 1
                    },
                    {
                        "number": 64,
                        "time": 214.14714448749984,
                        "value": 0
                    },
                    {
                        "number": 64,
                        "time": 214.17162497499984,
                        "value": 1
                    },
                    {
                        "number": 64,
                        "time": 214.7945173791665,
                        "value": 0
                    },
                    {
                        "number": 64,
                        "time": 214.84755843541652,
                        "value": 1
                    },
                    {
                        "number": 64,
                        "time": 215.44597035208318,
                        "value": 0
                    },
                    {
                        "number": 64,
                        "time": 215.50037143541653,
                        "value": 1
                    },
                    {
                        "number": 64,
                        "time": 216.09742332499985,
                        "value": 0
                    },
                    {
                        "number": 64,
                        "time": 216.15862454374985,
                        "value": 1
                    },
                    {
                        "number": 64,
                        "time": 216.75839648749985,
                        "value": 0
                    },
                    {
                        "number": 64,
                        "time": 216.78695705624986,
                        "value": 1
                    },
                    {
                        "number": 64,
                        "time": 217.4084894333332,
                        "value": 0
                    },
                    {
                        "number": 64,
                        "time": 217.45473035416651,
                        "value": 1
                    },
                    {
                        "number": 64,
                        "time": 218.05858237916652,
                        "value": 0
                    },
                    {
                        "number": 64,
                        "time": 218.10210324583318,
                        "value": 1
                    },
                    {
                        "number": 64,
                        "time": 220.66711432499986,
                        "value": 0
                    },
                    {
                        "number": 64,
                        "time": 220.7092751645832,
                        "value": 1
                    },
                    {
                        "number": 64,
                        "time": 221.95641999999987,
                        "value": 0
                    },
                    {
                        "number": 64,
                        "time": 222.02442135416652,
                        "value": 1
                    },
                    {
                        "number": 64,
                        "time": 223.27428624374986,
                        "value": 0
                    },
                    {
                        "number": 64,
                        "time": 223.3300473541665,
                        "value": 1
                    },
                    {
                        "number": 64,
                        "time": 225.8841782166665,
                        "value": 0
                    },
                    {
                        "number": 64,
                        "time": 225.93585924583317,
                        "value": 1
                    },
                    {
                        "number": 64,
                        "time": 227.19524432499983,
                        "value": 0
                    },
                    {
                        "number": 64,
                        "time": 256.5949497854165,
                        "value": 1
                    },
                    {
                        "number": 64,
                        "time": 257.2368825687498,
                        "value": 0
                    },
                    {
                        "number": 64,
                        "time": 257.29536373333315,
                        "value": 1
                    },
                    {
                        "number": 64,
                        "time": 257.8801753791665,
                        "value": 0
                    },
                    {
                        "number": 64,
                        "time": 257.9386565437498,
                        "value": 1
                    },
                    {
                        "number": 64,
                        "time": 258.5248282166665,
                        "value": 0
                    },
                    {
                        "number": 64,
                        "time": 267.0399577854165,
                        "value": 1
                    },
                    {
                        "number": 64,
                        "time": 267.6682902979165,
                        "value": 0
                    },
                    {
                        "number": 64,
                        "time": 267.7063710562498,
                        "value": 1
                    },
                    {
                        "number": 64,
                        "time": 268.3197432708331,
                        "value": 0
                    },
                    {
                        "number": 64,
                        "time": 268.38774462499975,
                        "value": 1
                    },
                    {
                        "number": 64,
                        "time": 268.97391629791645,
                        "value": 0
                    },
                    {
                        "number": 64,
                        "time": 272.2733420020831,
                        "value": 1
                    },
                    {
                        "number": 64,
                        "time": 272.87583399999977,
                        "value": 0
                    },
                    {
                        "number": 64,
                        "time": 272.92479497499977,
                        "value": 1
                    },
                    {
                        "number": 64,
                        "time": 273.55312748749975,
                        "value": 0
                    },
                    {
                        "number": 64,
                        "time": 273.6197688145831,
                        "value": 1
                    },
                    {
                        "number": 64,
                        "time": 274.1814599999998,
                        "value": 0
                    },
                    {
                        "number": 64,
                        "time": 274.87371378541644,
                        "value": 1
                    },
                    {
                        "number": 64,
                        "time": 275.50612637916646,
                        "value": 0
                    },
                    {
                        "number": 64,
                        "time": 275.5496472458331,
                        "value": 1
                    },
                    {
                        "number": 64,
                        "time": 276.1643794874998,
                        "value": 0
                    },
                    {
                        "number": 64,
                        "time": 276.2269407333331,
                        "value": 1
                    },
                    {
                        "number": 64,
                        "time": 276.79271199999977,
                        "value": 0
                    },
                    {
                        "number": 64,
                        "time": 277.48904586666646,
                        "value": 1
                    },
                    {
                        "number": 64,
                        "time": 278.1200984333331,
                        "value": 0
                    },
                    {
                        "number": 64,
                        "time": 278.1853797333331,
                        "value": 1
                    },
                    {
                        "number": 64,
                        "time": 278.7729114333331,
                        "value": 0
                    },
                    {
                        "number": 64,
                        "time": 278.8191523541664,
                        "value": 1
                    },
                    {
                        "number": 64,
                        "time": 279.4094041083331,
                        "value": 0
                    },
                    {
                        "number": 64,
                        "time": 279.6256484145831,
                        "value": 1
                    },
                    {
                        "number": 64,
                        "time": 280.0798974604164,
                        "value": 0
                    },
                    {
                        "number": 64,
                        "time": 280.2635011166664,
                        "value": 1
                    },
                    {
                        "number": 64,
                        "time": 280.72183024374976,
                        "value": 0
                    },
                    {
                        "number": 64,
                        "time": 280.7803114083331,
                        "value": 1
                    },
                    {
                        "number": 64,
                        "time": 281.3814433791664,
                        "value": 0
                    },
                    {
                        "number": 64,
                        "time": 281.43720448958305,
                        "value": 1
                    },
                    {
                        "number": 64,
                        "time": 282.0437765687497,
                        "value": 0
                    },
                    {
                        "number": 64,
                        "time": 287.41044343958305,
                        "value": 1
                    },
                    {
                        "number": 64,
                        "time": 289.86665235208307,
                        "value": 0
                    },
                    {
                        "number": 64,
                        "time": 290.07881657708305,
                        "value": 1
                    },
                    {
                        "number": 64,
                        "time": 291.16411818958306,
                        "value": 0
                    },
                    {
                        "number": 64,
                        "time": 292.5187051645831,
                        "value": 1
                    },
                    {
                        "number": 64,
                        "time": 295.0850762708331,
                        "value": 0
                    },
                    {
                        "number": 64,
                        "time": 295.4142028249998,
                        "value": 1
                    },
                    {
                        "number": 64,
                        "time": 296.3825421083331,
                        "value": 0
                    },
                    {
                        "number": 64,
                        "time": 297.7765698687498,
                        "value": 1
                    },
                    {
                        "number": 64,
                        "time": 300.3103003249998,
                        "value": 0
                    },
                    {
                        "number": 64,
                        "time": 300.48846387291644,
                        "value": 1
                    },
                    {
                        "number": 64,
                        "time": 301.6213664333331,
                        "value": 0
                    },
                    {
                        "number": 64,
                        "time": 303.0303544916664,
                        "value": 1
                    },
                    {
                        "number": 64,
                        "time": 304.2339784604164,
                        "value": 0
                    },
                    {
                        "number": 64,
                        "time": 305.6416064916664,
                        "value": 1
                    },
                    {
                        "number": 64,
                        "time": 310.74986821666636,
                        "value": 0
                    },
                    {
                        "number": 64,
                        "time": 311.282998833333,
                        "value": 1
                    },
                    {
                        "number": 64,
                        "time": 312.853830114583,
                        "value": 0
                    },
                    {
                        "number": 64,
                        "time": 313.792248802083,
                        "value": 1
                    },
                    {
                        "number": 64,
                        "time": 315.5820444437497,
                        "value": 0
                    },
                    {
                        "number": 64,
                        "time": 316.81694903541637,
                        "value": 1
                    },
                    {
                        "number": 64,
                        "time": 318.1225750354164,
                        "value": 0
                    },
                    {
                        "number": 64,
                        "time": 319.07187393958304,
                        "value": 1
                    },
                    {
                        "number": 64,
                        "time": 319.87836999999973,
                        "value": 0
                    },
                    {
                        "number": 64,
                        "time": 320.0116526541664,
                        "value": 1
                    },
                    {
                        "number": 64,
                        "time": 320.8589495270831,
                        "value": 0
                    },
                    {
                        "number": 64,
                        "time": 321.8177686208331,
                        "value": 1
                    },
                    {
                        "number": 64,
                        "time": 323.35459922499973,
                        "value": 0
                    },
                    {
                        "number": 64,
                        "time": 324.46574135208306,
                        "value": 1
                    },
                    {
                        "number": 64,
                        "time": 325.11311424374975,
                        "value": 0
                    },
                    {
                        "number": 64,
                        "time": 325.29263781874977,
                        "value": 1
                    },
                    {
                        "number": 64,
                        "time": 326.41874024374977,
                        "value": 0
                    },
                    {
                        "number": 64,
                        "time": 326.56970324999975,
                        "value": 1
                    },
                    {
                        "number": 64,
                        "time": 329.04087246041644,
                        "value": 0
                    },
                    {
                        "number": 64,
                        "time": 329.12655416666644,
                        "value": 1
                    },
                    {
                        "number": 64,
                        "time": 331.6521244604164,
                        "value": 0
                    },
                    {
                        "number": 64,
                        "time": 331.76908678958307,
                        "value": 1
                    },
                    {
                        "number": 64,
                        "time": 334.26473648749976,
                        "value": 0
                    },
                    {
                        "number": 64,
                        "time": 334.36537849166643,
                        "value": 1
                    },
                    {
                        "number": 64,
                        "time": 336.87054837916645,
                        "value": 0
                    },
                    {
                        "number": 64,
                        "time": 337.0079111145831,
                        "value": 1
                    },
                    {
                        "number": 64,
                        "time": 339.4790803249998,
                        "value": 0
                    },
                    {
                        "number": 64,
                        "time": 339.6259632499998,
                        "value": 1
                    },
                    {
                        "number": 64,
                        "time": 342.0876122708331,
                        "value": 0
                    },
                    {
                        "number": 64,
                        "time": 342.2535355749998,
                        "value": 1
                    },
                    {
                        "number": 64,
                        "time": 344.7083844604164,
                        "value": 0
                    },
                    {
                        "number": 64,
                        "time": 344.84846724999977,
                        "value": 1
                    },
                    {
                        "number": 64,
                        "time": 347.31283632499975,
                        "value": 0
                    },
                    {
                        "number": 64,
                        "time": 347.47603957499973,
                        "value": 1
                    },
                    {
                        "number": 64,
                        "time": 349.93224848749975,
                        "value": 0
                    },
                    {
                        "number": 64,
                        "time": 350.0478507895831,
                        "value": 1
                    },
                    {
                        "number": 64,
                        "time": 352.5339802979164,
                        "value": 0
                    },
                    {
                        "number": 64,
                        "time": 352.6591027895831,
                        "value": 1
                    },
                    {
                        "number": 64,
                        "time": 355.14251224374976,
                        "value": 0
                    },
                    {
                        "number": 64,
                        "time": 355.2703547895831,
                        "value": 1
                    },
                    {
                        "number": 64,
                        "time": 357.76056437916645,
                        "value": 0
                    },
                    {
                        "number": 64,
                        "time": 357.8666464916665,
                        "value": 1
                    },
                    {
                        "number": 64,
                        "time": 360.3772564874998,
                        "value": 0
                    },
                    {
                        "number": 64,
                        "time": 360.5241394124998,
                        "value": 1
                    },
                    {
                        "number": 64,
                        "time": 362.9817083520831,
                        "value": 0
                    },
                    {
                        "number": 64,
                        "time": 363.0660300312498,
                        "value": 1
                    },
                    {
                        "number": 64,
                        "time": 364.2873343520831,
                        "value": 0
                    },
                    {
                        "number": 64,
                        "time": 364.3852563020831,
                        "value": 1
                    },
                    {
                        "number": 64,
                        "time": 365.6011205145831,
                        "value": 0
                    },
                    {
                        "number": 64,
                        "time": 365.66912186874976,
                        "value": 1
                    },
                    {
                        "number": 64,
                        "time": 366.8985863520831,
                        "value": 0
                    },
                    {
                        "number": 64,
                        "time": 367.0441092499998,
                        "value": 1
                    },
                    {
                        "number": 64,
                        "time": 368.2028523249998,
                        "value": 0
                    },
                    {
                        "number": 64,
                        "time": 368.33477495208314,
                        "value": 1
                    },
                    {
                        "number": 64,
                        "time": 369.5139184333331,
                        "value": 0
                    },
                    {
                        "number": 64,
                        "time": 369.61728049166646,
                        "value": 1
                    },
                    {
                        "number": 64,
                        "time": 370.8222644874998,
                        "value": 0
                    },
                    {
                        "number": 64,
                        "time": 370.8603452458331,
                        "value": 1
                    },
                    {
                        "number": 64,
                        "time": 372.12653046041646,
                        "value": 0
                    },
                    {
                        "number": 64,
                        "time": 372.2190123020831,
                        "value": 1
                    },
                    {
                        "number": 64,
                        "time": 373.4212762437498,
                        "value": 0
                    },
                    {
                        "number": 64,
                        "time": 373.52599832916644,
                        "value": 1
                    },
                    {
                        "number": 64,
                        "time": 376.02028799999977,
                        "value": 0
                    },
                    {
                        "number": 64,
                        "time": 376.2229320354164,
                        "value": 1
                    },
                    {
                        "number": 64,
                        "time": 378.6451402708331,
                        "value": 0
                    },
                    {
                        "number": 64,
                        "time": 378.78794311458313,
                        "value": 1
                    },
                    {
                        "number": 64,
                        "time": 381.2604723520831,
                        "value": 0
                    },
                    {
                        "number": 64,
                        "time": 381.42911571041645,
                        "value": 1
                    },
                    {
                        "number": 64,
                        "time": 383.8676442708331,
                        "value": 0
                    },
                    {
                        "number": 64,
                        "time": 384.0022869520831,
                        "value": 1
                    },
                    {
                        "number": 64,
                        "time": 391.7041203249998,
                        "value": 0
                    },
                    {
                        "number": 64,
                        "time": 391.8129224916665,
                        "value": 1
                    },
                    {
                        "number": 64,
                        "time": 407.3661922166665,
                        "value": 0
                    },
                    {
                        "number": 64,
                        "time": 407.4899546812498,
                        "value": 1
                    },
                    {
                        "number": 64,
                        "time": 409.98016427083314,
                        "value": 0
                    },
                    {
                        "number": 64,
                        "time": 410.09168649166645,
                        "value": 1
                    },
                    {
                        "number": 64,
                        "time": 411.29123037916645,
                        "value": 0
                    },
                    {
                        "number": 64,
                        "time": 411.3592317333331,
                        "value": 1
                    },
                    {
                        "number": 64,
                        "time": 412.6036565145831,
                        "value": 0
                    },
                    {
                        "number": 64,
                        "time": 412.73149906041647,
                        "value": 1
                    },
                    {
                        "number": 64,
                        "time": 415.20266827083316,
                        "value": 0
                    },
                    {
                        "number": 64,
                        "time": 415.30467030208314,
                        "value": 1
                    },
                    {
                        "number": 64,
                        "time": 416.51373437916646,
                        "value": 0
                    },
                    {
                        "number": 64,
                        "time": 416.61029630208316,
                        "value": 1
                    },
                    {
                        "number": 64,
                        "time": 417.8180003520832,
                        "value": 0
                    },
                    {
                        "number": 64,
                        "time": 417.8968819229165,
                        "value": 1
                    },
                    {
                        "number": 64,
                        "time": 420.44013256874985,
                        "value": 0
                    },
                    {
                        "number": 64,
                        "time": 420.52717430208315,
                        "value": 1
                    },
                    {
                        "number": 64,
                        "time": 421.73759840624984,
                        "value": 0
                    },
                    {
                        "number": 64,
                        "time": 421.8518406812498,
                        "value": 1
                    },
                    {
                        "number": 64,
                        "time": 423.04730448749984,
                        "value": 0
                    },
                    {
                        "number": 64,
                        "time": 423.15746668124984,
                        "value": 1
                    },
                    {
                        "number": 64,
                        "time": 425.65039632499986,
                        "value": 0
                    },
                    {
                        "number": 64,
                        "time": 425.7428781666665,
                        "value": 1
                    },
                    {
                        "number": 64,
                        "time": 426.96282246041653,
                        "value": 0
                    },
                    {
                        "number": 64,
                        "time": 427.04578411249986,
                        "value": 1
                    },
                    {
                        "number": 64,
                        "time": 428.26980848749986,
                        "value": 0
                    },
                    {
                        "number": 64,
                        "time": 428.33236973333317,
                        "value": 1
                    },
                    {
                        "number": 64,
                        "time": 429.5754344874998,
                        "value": 0
                    },
                    {
                        "number": 64,
                        "time": 429.65703611249984,
                        "value": 1
                    },
                    {
                        "number": 64,
                        "time": 430.86882024374984,
                        "value": 0
                    },
                    {
                        "number": 64,
                        "time": 430.9585820312498,
                        "value": 1
                    },
                    {
                        "number": 64,
                        "time": 432.1853264604165,
                        "value": 0
                    },
                    {
                        "number": 64,
                        "time": 432.2710081666665,
                        "value": 1
                    },
                    {
                        "number": 64,
                        "time": 432.82725924374984,
                        "value": 0
                    },
                    {
                        "number": 64,
                        "time": 432.9319813291665,
                        "value": 1
                    },
                    {
                        "number": 64,
                        "time": 433.47735218958314,
                        "value": 0
                    },
                    {
                        "number": 64,
                        "time": 433.5303932458331,
                        "value": 1
                    },
                    {
                        "number": 64,
                        "time": 434.1328852437498,
                        "value": 0
                    },
                    {
                        "number": 64,
                        "time": 434.2076867333331,
                        "value": 1
                    },
                    {
                        "number": 64,
                        "time": 434.78977832499976,
                        "value": 0
                    },
                    {
                        "number": 64,
                        "time": 434.84145935416643,
                        "value": 1
                    },
                    {
                        "number": 64,
                        "time": 435.43851124374976,
                        "value": 0
                    },
                    {
                        "number": 64,
                        "time": 435.51331273333307,
                        "value": 1
                    },
                    {
                        "number": 64,
                        "time": 436.10492451458305,
                        "value": 0
                    },
                    {
                        "number": 64,
                        "time": 436.12804497499974,
                        "value": 1
                    },
                    {
                        "number": 64,
                        "time": 436.7563774874997,
                        "value": 0
                    },
                    {
                        "number": 64,
                        "time": 436.8094185437497,
                        "value": 1
                    },
                    {
                        "number": 64,
                        "time": 437.3996702979164,
                        "value": 0
                    },
                    {
                        "number": 64,
                        "time": 437.44727124583306,
                        "value": 1
                    },
                    {
                        "number": 64,
                        "time": 438.06336351458305,
                        "value": 0
                    },
                    {
                        "number": 64,
                        "time": 438.1150445437497,
                        "value": 1
                    },
                    {
                        "number": 64,
                        "time": 438.716176514583,
                        "value": 0
                    },
                    {
                        "number": 64,
                        "time": 438.7433770562497,
                        "value": 1
                    },
                    {
                        "number": 64,
                        "time": 441.3179083249997,
                        "value": 0
                    },
                    {
                        "number": 64,
                        "time": 441.364149245833,
                        "value": 1
                    },
                    {
                        "number": 64,
                        "time": 443.92916032499966,
                        "value": 0
                    },
                    {
                        "number": 64,
                        "time": 443.99444162499964,
                        "value": 1
                    },
                    {
                        "number": 64,
                        "time": 446.54993251458296,
                        "value": 0
                    },
                    {
                        "number": 64,
                        "time": 446.59889348958296,
                        "value": 1
                    },
                    {
                        "number": 64,
                        "time": 447.84603832499965,
                        "value": 0
                    },
                    {
                        "number": 64,
                        "time": 448.8524583666663,
                        "value": 1
                    },
                    {
                        "number": 64,
                        "time": 449.1462242166663,
                        "value": 0
                    },
                    {
                        "number": 64,
                        "time": 449.51479155624963,
                        "value": 1
                    },
                    {
                        "number": 64,
                        "time": 449.8126374874996,
                        "value": 0
                    },
                    {
                        "number": 64,
                        "time": 450.17712474583294,
                        "value": 1
                    },
                    {
                        "number": 64,
                        "time": 450.4613704062496,
                        "value": 0
                    },
                    {
                        "number": 64,
                        "time": 450.8299377458329,
                        "value": 1
                    },
                    {
                        "number": 64,
                        "time": 451.1060232437496,
                        "value": 0
                    },
                    {
                        "number": 64,
                        "time": 451.45963028541627,
                        "value": 1
                    },
                    {
                        "number": 64,
                        "time": 451.75747621666625,
                        "value": 0
                    },
                    {
                        "number": 64,
                        "time": 452.1314836645829,
                        "value": 1
                    },
                    {
                        "number": 64,
                        "time": 452.4238894874996,
                        "value": 0
                    },
                    {
                        "number": 64,
                        "time": 452.8169373145829,
                        "value": 1
                    },
                    {
                        "number": 64,
                        "time": 453.0631022166662,
                        "value": 0
                    },
                    {
                        "number": 64,
                        "time": 453.4466298541662,
                        "value": 1
                    },
                    {
                        "number": 64,
                        "time": 453.7240753791662,
                        "value": 0
                    },
                    {
                        "number": 64,
                        "time": 454.0940027458329,
                        "value": 1
                    },
                    {
                        "number": 64,
                        "time": 454.3714482708329,
                        "value": 0
                    },
                    {
                        "number": 64,
                        "time": 454.7522558541662,
                        "value": 1
                    },
                    {
                        "number": 64,
                        "time": 455.0256212979162,
                        "value": 0
                    },
                    {
                        "number": 64,
                        "time": 455.40914893541617,
                        "value": 1
                    },
                    {
                        "number": 64,
                        "time": 455.6757142437495,
                        "value": 0
                    },
                    {
                        "number": 64,
                        "time": 456.06060190833284,
                        "value": 1
                    },
                    {
                        "number": 64,
                        "time": 456.31628699999953,
                        "value": 0
                    },
                    {
                        "number": 64,
                        "time": 456.7011746645829,
                        "value": 1
                    },
                    {
                        "number": 64,
                        "time": 456.9949405145829,
                        "value": 0
                    },
                    {
                        "number": 64,
                        "time": 457.37302804374957,
                        "value": 1
                    },
                    {
                        "number": 64,
                        "time": 457.6504735687496,
                        "value": 0
                    },
                    {
                        "number": 64,
                        "time": 458.0544016124996,
                        "value": 1
                    },
                    {
                        "number": 64,
                        "time": 458.29376637916624,
                        "value": 0
                    },
                    {
                        "number": 64,
                        "time": 458.6541735562496,
                        "value": 1
                    },
                    {
                        "number": 64,
                        "time": 458.9465793791663,
                        "value": 0
                    },
                    {
                        "number": 64,
                        "time": 459.0050605437496,
                        "value": 1
                    },
                    {
                        "number": 64,
                        "time": 459.2607456354163,
                        "value": 0
                    },
                    {
                        "number": 64,
                        "time": 459.312426664583,
                        "value": 1
                    },
                    {
                        "number": 64,
                        "time": 459.589872189583,
                        "value": 0
                    },
                    {
                        "number": 64,
                        "time": 459.6238728666663,
                        "value": 1
                    },
                    {
                        "number": 64,
                        "time": 459.912198608333,
                        "value": 0
                    },
                    {
                        "number": 64,
                        "time": 459.9788399354163,
                        "value": 1
                    },
                    {
                        "number": 64,
                        "time": 460.24404521666634,
                        "value": 0
                    },
                    {
                        "number": 64,
                        "time": 460.28212597499964,
                        "value": 1
                    },
                    {
                        "number": 64,
                        "time": 460.58405198749966,
                        "value": 0
                    },
                    {
                        "number": 64,
                        "time": 460.63709304374964,
                        "value": 1
                    },
                    {
                        "number": 64,
                        "time": 460.8859779999996,
                        "value": 0
                    },
                    {
                        "number": 64,
                        "time": 460.9335789479163,
                        "value": 1
                    },
                    {
                        "number": 64,
                        "time": 461.22462474374964,
                        "value": 0
                    },
                    {
                        "number": 64,
                        "time": 461.27086566458297,
                        "value": 1
                    },
                    {
                        "number": 64,
                        "time": 461.55239127083297,
                        "value": 0
                    },
                    {
                        "number": 64,
                        "time": 461.597272164583,
                        "value": 1
                    },
                    {
                        "number": 64,
                        "time": 461.86927758124966,
                        "value": 0
                    },
                    {
                        "number": 64,
                        "time": 461.91959858333297,
                        "value": 1
                    },
                    {
                        "number": 64,
                        "time": 462.2024842166663,
                        "value": 0
                    },
                    {
                        "number": 64,
                        "time": 462.2446450562496,
                        "value": 1
                    },
                    {
                        "number": 64,
                        "time": 462.52345060833295,
                        "value": 0
                    },
                    {
                        "number": 64,
                        "time": 462.5669714749996,
                        "value": 1
                    },
                    {
                        "number": 64,
                        "time": 462.8566572437496,
                        "value": 0
                    },
                    {
                        "number": 64,
                        "time": 462.93145873333293,
                        "value": 1
                    },
                    {
                        "number": 64,
                        "time": 463.1803436895829,
                        "value": 0
                    },
                    {
                        "number": 64,
                        "time": 463.23882485416624,
                        "value": 1
                    },
                    {
                        "number": 64,
                        "time": 463.50811021666624,
                        "value": 0
                    },
                    {
                        "number": 64,
                        "time": 463.5502710562496,
                        "value": 1
                    },
                    {
                        "number": 64,
                        "time": 463.87259747499957,
                        "value": 0
                    },
                    {
                        "number": 64,
                        "time": 463.93379869374957,
                        "value": 1
                    },
                    {
                        "number": 64,
                        "time": 464.1636432708329,
                        "value": 0
                    },
                    {
                        "number": 64,
                        "time": 464.2370847333329,
                        "value": 1
                    },
                    {
                        "number": 64,
                        "time": 464.81781629791624,
                        "value": 0
                    },
                    {
                        "number": 64,
                        "time": 464.85589705624955,
                        "value": 1
                    },
                    {
                        "number": 64,
                        "time": 465.4733493520829,
                        "value": 0
                    },
                    {
                        "number": 64,
                        "time": 465.5331905437496,
                        "value": 1
                    },
                    {
                        "number": 64,
                        "time": 466.1288824062496,
                        "value": 0
                    },
                    {
                        "number": 64,
                        "time": 466.1669631645829,
                        "value": 1
                    },
                    {
                        "number": 64,
                        "time": 466.7789753520829,
                        "value": 0
                    },
                    {
                        "number": 64,
                        "time": 466.8279363270829,
                        "value": 1
                    },
                    {
                        "number": 64,
                        "time": 467.44946870416624,
                        "value": 0
                    },
                    {
                        "number": 64,
                        "time": 467.4671490562496,
                        "value": 1
                    },
                    {
                        "number": 64,
                        "time": 468.0914014874996,
                        "value": 0
                    },
                    {
                        "number": 64,
                        "time": 468.1634829229163,
                        "value": 1
                    },
                    {
                        "number": 64,
                        "time": 468.7319742437496,
                        "value": 0
                    },
                    {
                        "number": 64,
                        "time": 468.7972555437496,
                        "value": 1
                    },
                    {
                        "number": 64,
                        "time": 469.3943074333329,
                        "value": 0
                    },
                    {
                        "number": 64,
                        "time": 469.44462843541623,
                        "value": 1
                    },
                    {
                        "number": 64,
                        "time": 470.0498404874996,
                        "value": 0
                    },
                    {
                        "number": 64,
                        "time": 470.0879212458329,
                        "value": 1
                    },
                    {
                        "number": 64,
                        "time": 470.6972133791662,
                        "value": 0
                    },
                    {
                        "number": 64,
                        "time": 470.7597746249995,
                        "value": 1
                    },
                    {
                        "number": 64,
                        "time": 471.3418662166662,
                        "value": 0
                    },
                    {
                        "number": 64,
                        "time": 471.4085075437495,
                        "value": 1
                    },
                    {
                        "number": 64,
                        "time": 472.0082794874995,
                        "value": 0
                    },
                    {
                        "number": 64,
                        "time": 472.07492081458287,
                        "value": 1
                    },
                    {
                        "number": 64,
                        "time": 472.6474922166662,
                        "value": 0
                    },
                    {
                        "number": 64,
                        "time": 472.68965305624954,
                        "value": 1
                    },
                    {
                        "number": 64,
                        "time": 473.3043852979162,
                        "value": 0
                    },
                    {
                        "number": 64,
                        "time": 473.3574263541662,
                        "value": 1
                    },
                    {
                        "number": 64,
                        "time": 473.9544782437495,
                        "value": 0
                    },
                    {
                        "number": 64,
                        "time": 474.0197595437495,
                        "value": 1
                    },
                    {
                        "number": 64,
                        "time": 474.6100112979162,
                        "value": 0
                    },
                    {
                        "number": 64,
                        "time": 474.6725725437495,
                        "value": 1
                    },
                    {
                        "number": 64,
                        "time": 475.26282429791615,
                        "value": 0
                    },
                    {
                        "number": 64,
                        "time": 475.31586535416614,
                        "value": 1
                    },
                    {
                        "number": 64,
                        "time": 475.9197173791661,
                        "value": 0
                    },
                    {
                        "number": 64,
                        "time": 475.98771873333277,
                        "value": 1
                    },
                    {
                        "number": 64,
                        "time": 476.57933051458275,
                        "value": 0
                    },
                    {
                        "number": 64,
                        "time": 476.6350916249994,
                        "value": 1
                    },
                    {
                        "number": 64,
                        "time": 477.2212632979161,
                        "value": 0
                    },
                    {
                        "number": 64,
                        "time": 477.28790462499944,
                        "value": 1
                    },
                    {
                        "number": 64,
                        "time": 477.8699962166661,
                        "value": 0
                    },
                    {
                        "number": 64,
                        "time": 477.9026368666661,
                        "value": 1
                    },
                    {
                        "number": 64,
                        "time": 478.5268892979161,
                        "value": 0
                    },
                    {
                        "number": 64,
                        "time": 478.5744902458328,
                        "value": 1
                    },
                    {
                        "number": 64,
                        "time": 479.1878624604161,
                        "value": 0
                    },
                    {
                        "number": 64,
                        "time": 479.2232231645828,
                        "value": 1
                    },
                    {
                        "number": 64,
                        "time": 479.8379554062495,
                        "value": 0
                    },
                    {
                        "number": 64,
                        "time": 479.90323670624946,
                        "value": 1
                    },
                    {
                        "number": 64,
                        "time": 480.47716813541615,
                        "value": 0
                    },
                    {
                        "number": 64,
                        "time": 480.5410894083328,
                        "value": 1
                    },
                    {
                        "number": 64,
                        "time": 481.13814129791615,
                        "value": 0
                    },
                    {
                        "number": 64,
                        "time": 481.1939024083328,
                        "value": 1
                    },
                    {
                        "number": 64,
                        "time": 481.7963944062495,
                        "value": 0
                    },
                    {
                        "number": 64,
                        "time": 481.8303950833328,
                        "value": 1
                    },
                    {
                        "number": 64,
                        "time": 482.45192746041613,
                        "value": 0
                    },
                    {
                        "number": 64,
                        "time": 485.05501929791615,
                        "value": 0
                    },
                    {
                        "number": 64,
                        "time": 485.11486048958284,
                        "value": 1
                    },
                    {
                        "number": 64,
                        "time": 485.7051122437495,
                        "value": 0
                    },
                    {
                        "number": 64,
                        "time": 485.7404729479162,
                        "value": 1
                    },
                    {
                        "number": 64,
                        "time": 486.36200532499953,
                        "value": 0
                    },
                    {
                        "number": 64,
                        "time": 486.41232632708284,
                        "value": 1
                    },
                    {
                        "number": 64,
                        "time": 487.00937821666616,
                        "value": 0
                    },
                    {
                        "number": 64,
                        "time": 487.0528990833328,
                        "value": 1
                    },
                    {
                        "number": 64,
                        "time": 487.65947116249947,
                        "value": 0
                    },
                    {
                        "number": 64,
                        "time": 489.62879037916616,
                        "value": 0
                    },
                    {
                        "number": 64,
                        "time": 489.65735094791614,
                        "value": 1
                    },
                    {
                        "number": 64,
                        "time": 490.28296340624945,
                        "value": 0
                    },
                    {
                        "number": 64,
                        "time": 490.3373644895828,
                        "value": 1
                    },
                    {
                        "number": 64,
                        "time": 490.93985648749947,
                        "value": 0
                    },
                    {
                        "number": 64,
                        "time": 490.9588968666661,
                        "value": 1
                    },
                    {
                        "number": 64,
                        "time": 491.58858940624947,
                        "value": 0
                    },
                    {
                        "number": 64,
                        "time": 491.6429904895828,
                        "value": 1
                    },
                    {
                        "number": 64,
                        "time": 492.24004237916614,
                        "value": 0
                    },
                    {
                        "number": 64,
                        "time": 492.41276581874945,
                        "value": 1
                    },
                    {
                        "number": 64,
                        "time": 515.1428984624995,
                        "value": 0
                    },
                    {
                        "number": 64,
                        "time": 516.0758770416661,
                        "value": 1
                    },
                    {
                        "number": 64,
                        "time": 517.6807089999994,
                        "value": 0
                    },
                    {
                        "number": 64,
                        "time": 518.634087985416,
                        "value": 1
                    },
                    {
                        "number": 64,
                        "time": 520.2566002958328,
                        "value": 0
                    },
                    {
                        "number": 64,
                        "time": 521.1569382249994,
                        "value": 1
                    },
                    {
                        "number": 64,
                        "time": 524.8616519999994,
                        "value": 0
                    },
                    {
                        "number": 64,
                        "time": 525.0928566041661,
                        "value": 1
                    },
                    {
                        "number": 64,
                        "time": 530.095036216666,
                        "value": 0
                    },
                    {
                        "number": 64,
                        "time": 530.1861580312493,
                        "value": 1
                    },
                    {
                        "number": 64,
                        "time": 531.3993021895826,
                        "value": 0
                    },
                    {
                        "number": 64,
                        "time": 531.498584166666,
                        "value": 1
                    },
                    {
                        "number": 64,
                        "time": 532.7076482437493,
                        "value": 0
                    },
                    {
                        "number": 64,
                        "time": 532.7810897062493,
                        "value": 1
                    },
                    {
                        "number": 64,
                        "time": 534.0105541895826,
                        "value": 0
                    },
                    {
                        "number": 64,
                        "time": 534.109836166666,
                        "value": 1
                    },
                    {
                        "number": 64,
                        "time": 534.6701673249994,
                        "value": 0
                    },
                    {
                        "number": 64,
                        "time": 534.770809329166,
                        "value": 1
                    },
                    {
                        "number": 64,
                        "time": 535.3107400812494,
                        "value": 0
                    },
                    {
                        "number": 64,
                        "time": 535.3923417062493,
                        "value": 1
                    },
                    {
                        "number": 64,
                        "time": 535.998913785416,
                        "value": 0
                    },
                    {
                        "number": 64,
                        "time": 536.3566009083327,
                        "value": 1
                    },
                    {
                        "number": 64,
                        "time": 536.6122859999994,
                        "value": 0
                    },
                    {
                        "number": 64,
                        "time": 536.9862934479161,
                        "value": 1
                    },
                    {
                        "number": 64,
                        "time": 537.2746191895827,
                        "value": 0
                    },
                    {
                        "number": 64,
                        "time": 537.6771872062494,
                        "value": 1
                    },
                    {
                        "number": 64,
                        "time": 537.920632054166,
                        "value": 0
                    },
                    {
                        "number": 64,
                        "time": 538.2375183645827,
                        "value": 1
                    },
                    {
                        "number": 64,
                        "time": 538.5843252708327,
                        "value": 0
                    },
                    {
                        "number": 64,
                        "time": 538.928412122916,
                        "value": 1
                    },
                    {
                        "number": 64,
                        "time": 539.2371382708327,
                        "value": 0
                    },
                    {
                        "number": 64,
                        "time": 539.573064960416,
                        "value": 1
                    },
                    {
                        "number": 64,
                        "time": 539.887231216666,
                        "value": 0
                    },
                    {
                        "number": 64,
                        "time": 540.225877960416,
                        "value": 1
                    },
                    {
                        "number": 64,
                        "time": 540.5427642708327,
                        "value": 0
                    },
                    {
                        "number": 64,
                        "time": 540.895011285416,
                        "value": 1
                    },
                    {
                        "number": 64,
                        "time": 541.1901371624994,
                        "value": 0
                    },
                    {
                        "number": 64,
                        "time": 541.5627845833327,
                        "value": 1
                    },
                    {
                        "number": 64,
                        "time": 541.8483902708327,
                        "value": 0
                    },
                    {
                        "number": 64,
                        "time": 542.1693566624994,
                        "value": 1
                    },
                    {
                        "number": 64,
                        "time": 542.5052833520826,
                        "value": 0
                    },
                    {
                        "number": 64,
                        "time": 542.837129960416,
                        "value": 1
                    },
                    {
                        "number": 64,
                        "time": 543.1485761624992,
                        "value": 0
                    },
                    {
                        "number": 64,
                        "time": 543.5525042062493,
                        "value": 1
                    },
                    {
                        "number": 64,
                        "time": 543.8095493249994,
                        "value": 0
                    },
                    {
                        "number": 64,
                        "time": 544.1740365833327,
                        "value": 1
                    },
                    {
                        "number": 64,
                        "time": 544.4460419999994,
                        "value": 0
                    },
                    {
                        "number": 64,
                        "time": 544.8431699083327,
                        "value": 1
                    },
                    {
                        "number": 64,
                        "time": 545.1151753249993,
                        "value": 0
                    },
                    {
                        "number": 64,
                        "time": 545.4796625833327,
                        "value": 1
                    },
                    {
                        "number": 64,
                        "time": 545.7516679999993,
                        "value": 0
                    },
                    {
                        "number": 64,
                        "time": 545.8958308708327,
                        "value": 1
                    },
                    {
                        "number": 64,
                        "time": 546.394960810416,
                        "value": 0
                    },
                    {
                        "number": 64,
                        "time": 546.501042922916,
                        "value": 1
                    },
                    {
                        "number": 64,
                        "time": 547.0654541624993,
                        "value": 0
                    },
                    {
                        "number": 64,
                        "time": 547.153855922916,
                        "value": 1
                    },
                    {
                        "number": 64,
                        "time": 547.7237072708327,
                        "value": 0
                    },
                    {
                        "number": 64,
                        "time": 547.8257093020827,
                        "value": 1
                    },
                    {
                        "number": 64,
                        "time": 548.3670000812493,
                        "value": 0
                    },
                    {
                        "number": 64,
                        "time": 548.516603060416,
                        "value": 1
                    },
                    {
                        "number": 64,
                        "time": 549.030693297916,
                        "value": 0
                    },
                    {
                        "number": 64,
                        "time": 549.1313353020826,
                        "value": 1
                    },
                    {
                        "number": 64,
                        "time": 549.6835062979159,
                        "value": 0
                    },
                    {
                        "number": 64,
                        "time": 549.7746281124992,
                        "value": 1
                    },
                    {
                        "number": 64,
                        "time": 550.3444794604159,
                        "value": 0
                    },
                    {
                        "number": 64,
                        "time": 550.4655218708325,
                        "value": 1
                    },
                    {
                        "number": 64,
                        "time": 550.9972924604158,
                        "value": 0
                    },
                    {
                        "number": 64,
                        "time": 551.0802541124991,
                        "value": 1
                    },
                    {
                        "number": 64,
                        "time": 551.6460253791657,
                        "value": 0
                    },
                    {
                        "number": 64,
                        "time": 551.761627681249,
                        "value": 1
                    },
                    {
                        "number": 64,
                        "time": 552.2933982708323,
                        "value": 0
                    },
                    {
                        "number": 64,
                        "time": 552.4430012499989,
                        "value": 1
                    },
                    {
                        "number": 64,
                        "time": 552.9584515145823,
                        "value": 0
                    },
                    {
                        "number": 64,
                        "time": 553.0767738708323,
                        "value": 1
                    },
                    {
                        "number": 64,
                        "time": 553.613984568749,
                        "value": 0
                    },
                    {
                        "number": 64,
                        "time": 553.748627249999,
                        "value": 1
                    },
                    {
                        "number": 64,
                        "time": 556.196675999999,
                        "value": 0
                    },
                    {
                        "number": 64,
                        "time": 556.437400793749,
                        "value": 1
                    },
                    {
                        "number": 64,
                        "time": 560.1217141624991,
                        "value": 0
                    },
                    {
                        "number": 64,
                        "time": 560.2305163291658,
                        "value": 1
                    },
                    {
                        "number": 64,
                        "time": 560.7799672708325,
                        "value": 0
                    },
                    {
                        "number": 64,
                        "time": 560.8982896270825,
                        "value": 1
                    },
                    {
                        "number": 64,
                        "time": 561.4314202437491,
                        "value": 0
                    },
                    {
                        "number": 64,
                        "time": 561.6694249833324,
                        "value": 1
                    },
                    {
                        "number": 64,
                        "time": 562.724805999999,
                        "value": 0
                    },
                    {
                        "number": 64,
                        "time": 562.9614507124991,
                        "value": 1
                    },
                    {
                        "number": 64,
                        "time": 563.3980194062491,
                        "value": 0
                    },
                    {
                        "number": 64,
                        "time": 563.5408222499991,
                        "value": 1
                    },
                    {
                        "number": 64,
                        "time": 564.0304319999991,
                        "value": 0
                    },
                    {
                        "number": 64,
                        "time": 564.5880431041658,
                        "value": 1
                    },
                    {
                        "number": 64,
                        "time": 565.3360579999991,
                        "value": 0
                    },
                    {
                        "number": 64,
                        "time": 574.6005624916658,
                        "value": 1
                    },
                    {
                        "number": 64,
                        "time": 577.0934921354158,
                        "value": 0
                    },
                    {
                        "number": 64,
                        "time": 577.2186146270824,
                        "value": 1
                    },
                    {
                        "number": 64,
                        "time": 578.392317999999,
                        "value": 0
                    },
                    {
                        "number": 64,
                        "time": 578.4779997062491,
                        "value": 1
                    },
                    {
                        "number": 64,
                        "time": 579.7061041624991,
                        "value": 0
                    },
                    {
                        "number": 64,
                        "time": 579.8149063291658,
                        "value": 1
                    },
                    {
                        "number": 64,
                        "time": 582.3091959999991,
                        "value": 0
                    },
                    {
                        "number": 64,
                        "time": 582.4411186270825,
                        "value": 1
                    },
                    {
                        "number": 64,
                        "time": 584.9245280812492,
                        "value": 0
                    },
                    {
                        "number": 64,
                        "time": 585.0523706270825,
                        "value": 1
                    },
                    {
                        "number": 64,
                        "time": 587.5316999999992,
                        "value": 0
                    },
                    {
                        "number": 64,
                        "time": 587.6486623291659,
                        "value": 1
                    },
                    {
                        "number": 64,
                        "time": 588.8482062166659,
                        "value": 0
                    },
                    {
                        "number": 64,
                        "time": 588.9692486270825,
                        "value": 1
                    },
                    {
                        "number": 64,
                        "time": 590.1511121624992,
                        "value": 0
                    },
                    {
                        "number": 64,
                        "time": 590.2109533541659,
                        "value": 1
                    },
                    {
                        "number": 64,
                        "time": 592.7732443791659,
                        "value": 0
                    },
                    {
                        "number": 64,
                        "time": 592.8262854354159,
                        "value": 1
                    },
                    {
                        "number": 64,
                        "time": 595.3776962437493,
                        "value": 0
                    },
                    {
                        "number": 64,
                        "time": 595.4524977333326,
                        "value": 1
                    },
                    {
                        "number": 64,
                        "time": 597.9875882166659,
                        "value": 0
                    },
                    {
                        "number": 64,
                        "time": 598.0664697874993,
                        "value": 1
                    },
                    {
                        "number": 64,
                        "time": 600.598840216666,
                        "value": 0
                    },
                    {
                        "number": 64,
                        "time": 600.6736417062493,
                        "value": 1
                    },
                    {
                        "number": 64,
                        "time": 605.8349444874993,
                        "value": 0
                    },
                    {
                        "number": 64,
                        "time": 620.2743520312494,
                        "value": 1
                    },
                    {
                        "number": 64,
                        "time": 621.4942963249994,
                        "value": 0
                    },
                    {
                        "number": 64,
                        "time": 621.5364571645827,
                        "value": 1
                    },
                    {
                        "number": 64,
                        "time": 626.7263205145827,
                        "value": 0
                    },
                    {
                        "number": 64,
                        "time": 626.7630412458327,
                        "value": 1
                    },
                    {
                        "number": 64,
                        "time": 631.937944297916,
                        "value": 0
                    },
                    {
                        "number": 64,
                        "time": 632.0100257333327,
                        "value": 1
                    },
                    {
                        "number": 64,
                        "time": 634.5342359999993,
                        "value": 0
                    },
                    {
                        "number": 64,
                        "time": 634.6063174354159,
                        "value": 1
                    },
                    {
                        "number": 64,
                        "time": 635.8480221624992,
                        "value": 0
                    },
                    {
                        "number": 64,
                        "time": 635.9595443833325,
                        "value": 1
                    },
                    {
                        "number": 64,
                        "time": 637.1699684874992,
                        "value": 0
                    },
                    {
                        "number": 64,
                        "time": 637.2134893541659,
                        "value": 1
                    },
                    {
                        "number": 64,
                        "time": 639.7689802437492,
                        "value": 0
                    },
                    {
                        "number": 64,
                        "time": 639.8723423020825,
                        "value": 1
                    },
                    {
                        "number": 64,
                        "time": 641.0773262979159,
                        "value": 0
                    },
                    {
                        "number": 64,
                        "time": 641.1113269749992,
                        "value": 1
                    },
                    {
                        "number": 64,
                        "time": 641.3357314437492,
                        "value": 0
                    },
                    {
                        "number": 64,
                        "time": 642.4305532458325,
                        "value": 1
                    },
                    {
                        "number": 64,
                        "time": 644.9928442708325,
                        "value": 0
                    },
                    {
                        "number": 64,
                        "time": 645.0377251645825,
                        "value": 1
                    },
                    {
                        "number": 64,
                        "time": 646.2848699999992,
                        "value": 0
                    },
                    {
                        "number": 64,
                        "time": 646.3283908666658,
                        "value": 1
                    },
                    {
                        "number": 64,
                        "time": 647.5904959999991,
                        "value": 0
                    },
                    {
                        "number": 64,
                        "time": 647.6489771645824,
                        "value": 1
                    },
                    {
                        "number": 64,
                        "time": 648.2637094062491,
                        "value": 0
                    },
                    {
                        "number": 64,
                        "time": 648.3289907062491,
                        "value": 1
                    },
                    {
                        "number": 64,
                        "time": 650.2112681895825,
                        "value": 0
                    },
                    {
                        "number": 64,
                        "time": 650.2683893270824,
                        "value": 1
                    },
                    {
                        "number": 64,
                        "time": 651.5182542166658,
                        "value": 0
                    },
                    {
                        "number": 64,
                        "time": 651.5617750833325,
                        "value": 1
                    },
                    {
                        "number": 64,
                        "time": 651.7684991999992,
                        "value": 0
                    },
                    {
                        "number": 64,
                        "time": 652.8755612458325,
                        "value": 1
                    },
                    {
                        "number": 64,
                        "time": 655.4392122979158,
                        "value": 0
                    },
                    {
                        "number": 64,
                        "time": 655.4908933270824,
                        "value": 1
                    },
                    {
                        "number": 64,
                        "time": 656.7529984604157,
                        "value": 0
                    },
                    {
                        "number": 64,
                        "time": 656.807399543749,
                        "value": 1
                    },
                    {
                        "number": 64,
                        "time": 658.0436641624991,
                        "value": 0
                    },
                    {
                        "number": 64,
                        "time": 658.0939851645825,
                        "value": 1
                    },
                    {
                        "number": 64,
                        "time": 658.7549583270825,
                        "value": 0
                    },
                    {
                        "number": 64,
                        "time": 658.8243197083325,
                        "value": 1
                    },
                    {
                        "number": 64,
                        "time": 659.3574503249991,
                        "value": 0
                    },
                    {
                        "number": 64,
                        "time": 659.3955310833325,
                        "value": 1
                    },
                    {
                        "number": 64,
                        "time": 660.0034631895825,
                        "value": 0
                    },
                    {
                        "number": 64,
                        "time": 660.0796247062491,
                        "value": 1
                    },
                    {
                        "number": 64,
                        "time": 660.6589962437491,
                        "value": 0
                    },
                    {
                        "number": 64,
                        "time": 660.6997970562492,
                        "value": 1
                    },
                    {
                        "number": 64,
                        "time": 663.2770483791659,
                        "value": 0
                    },
                    {
                        "number": 64,
                        "time": 663.3491298145825,
                        "value": 1
                    },
                    {
                        "number": 64,
                        "time": 665.8692599999991,
                        "value": 0
                    },
                    {
                        "number": 64,
                        "time": 665.9603818145824,
                        "value": 1
                    },
                    {
                        "number": 64,
                        "time": 668.4805119999991,
                        "value": 0
                    },
                    {
                        "number": 64,
                        "time": 668.533553056249,
                        "value": 1
                    },
                    {
                        "number": 64,
                        "time": 671.0686435395824,
                        "value": 0
                    },
                    {
                        "number": 64,
                        "time": 671.1788057333324,
                        "value": 1
                    },
                    {
                        "number": 64,
                        "time": 673.7138962166657,
                        "value": 0
                    },
                    {
                        "number": 64,
                        "time": 673.8471788708324,
                        "value": 1
                    },
                    {
                        "number": 64,
                        "time": 676.3319483520825,
                        "value": 0
                    },
                    {
                        "number": 64,
                        "time": 676.4312303291658,
                        "value": 1
                    },
                    {
                        "number": 64,
                        "time": 677.6321342437492,
                        "value": 0
                    },
                    {
                        "number": 64,
                        "time": 677.7218960312492,
                        "value": 1
                    },
                    {
                        "number": 64,
                        "time": 678.2917473791659,
                        "value": 0
                    },
                    {
                        "number": 64,
                        "time": 678.4046296270826,
                        "value": 1
                    },
                    {
                        "number": 64,
                        "time": 678.944560379166,
                        "value": 0
                    },
                    {
                        "number": 64,
                        "time": 679.0819231145827,
                        "value": 1
                    },
                    {
                        "number": 64,
                        "time": 680.242026216666,
                        "value": 0
                    },
                    {
                        "number": 64,
                        "time": 685.501250947916,
                        "value": 1
                    },
                    {
                        "number": 64,
                        "time": 686.1159831895826,
                        "value": 0
                    },
                    {
                        "number": 64,
                        "time": 686.2003048687493,
                        "value": 1
                    },
                    {
                        "number": 64,
                        "time": 686.7592759999993,
                        "value": 0
                    },
                    {
                        "number": 64,
                        "time": 686.8299974083327,
                        "value": 1
                    },
                    {
                        "number": 64,
                        "time": 687.4338494333327,
                        "value": 0
                    },
                    {
                        "number": 64,
                        "time": 687.520891166666,
                        "value": 1
                    },
                    {
                        "number": 64,
                        "time": 688.0771422437493,
                        "value": 0
                    },
                    {
                        "number": 64,
                        "time": 688.1505837062493,
                        "value": 1
                    },
                    {
                        "number": 64,
                        "time": 688.728595216666,
                        "value": 0
                    },
                    {
                        "number": 64,
                        "time": 688.826517166666,
                        "value": 1
                    },
                    {
                        "number": 64,
                        "time": 689.4562097062493,
                        "value": 0
                    },
                    {
                        "number": 64,
                        "time": 689.6112527937493,
                        "value": 1
                    },
                    {
                        "number": 64,
                        "time": 705.4025272583326,
                        "value": 0
                    },
                    {
                        "number": 64,
                        "time": 706.411667354166,
                        "value": 1
                    },
                    {
                        "number": 64,
                        "time": 706.6700724999993,
                        "value": 0
                    },
                    {
                        "number": 64,
                        "time": 707.7268135437492,
                        "value": 1
                    },
                    {
                        "number": 64,
                        "time": 707.9756984999992,
                        "value": 0
                    }
                ]
            },
            "id": 4,
            "name": "Pedale"
        },
        {
            "startTime": 0,
            "duration": 0,
            "length": 0,
            "notes": [],
            "controlChanges": {},
            "id": 5,
            "name": "Beethoven Sonata No. 21 C major, Waldsteinsonate 3. Movement"
        },
        {
            "startTime": 0,
            "duration": 0,
            "length": 0,
            "notes": [],
            "controlChanges": {},
            "id": 6,
            "name": "Copyright  2003 by Bernd Krueger"
        },
        {
            "startTime": 0,
            "duration": 0,
            "length": 0,
            "notes": [],
            "controlChanges": {},
            "id": 7,
            "name": "http://www.piano-midi.de"
        },
        {
            "startTime": 0,
            "duration": 0,
            "length": 0,
            "notes": [],
            "controlChanges": {},
            "id": 8,
            "name": "Edition: 2012-07-11"
        }
    ]
}