{
    "header": {
        "PPQ": 480,
        "timeSignature": [
            4,
            4
        ],
        "bpm": 160.4698557375997,
        "name": "1. Movement"
    },
    "startTime": 0,
    "duration": 577.4916390000022,
    "tracks": [
        {
            "startTime": 0,
            "duration": 0,
            "length": 0,
            "notes": [],
            "controlChanges": {},
            "id": 0,
            "name": "1. Movement"
        },
        {
            "startTime": 0.186951,
            "duration": 577.4916390000022,
            "length": 4243,
            "notes": [
                {
                    "name": "C3",
                    "midi": 48,
                    "time": 0.186951,
                    "velocity": 0.2204724409448819,
                    "duration": 0.14021325000000004
                },
                {
                    "name": "E3",
                    "midi": 52,
                    "time": 0.186951,
                    "velocity": 0.25984251968503935,
                    "duration": 0.14021325000000004
                },
                {
                    "name": "C3",
                    "midi": 48,
                    "time": 0.37390200000000007,
                    "velocity": 0.2204724409448819,
                    "duration": 0.14021325000000007
                },
                {
                    "name": "E3",
                    "midi": 52,
                    "time": 0.37390200000000007,
                    "velocity": 0.25984251968503935,
                    "duration": 0.14021325000000007
                },
                {
                    "name": "C3",
                    "midi": 48,
                    "time": 0.5608530000000002,
                    "velocity": 0.2204724409448819,
                    "duration": 0.14021325000000007
                },
                {
                    "name": "E3",
                    "midi": 52,
                    "time": 0.5608530000000002,
                    "velocity": 0.2677165354330709,
                    "duration": 0.14021325000000007
                },
                {
                    "name": "C3",
                    "midi": 48,
                    "time": 0.7478040000000002,
                    "velocity": 0.2204724409448819,
                    "duration": 0.14021325000000007
                },
                {
                    "name": "E3",
                    "midi": 52,
                    "time": 0.7478040000000002,
                    "velocity": 0.2677165354330709,
                    "duration": 0.14021325000000007
                },
                {
                    "name": "C3",
                    "midi": 48,
                    "time": 0.9347550000000003,
                    "velocity": 0.2204724409448819,
                    "duration": 0.14021325000000007
                },
                {
                    "name": "E3",
                    "midi": 52,
                    "time": 0.9347550000000003,
                    "velocity": 0.2677165354330709,
                    "duration": 0.14021325000000007
                },
                {
                    "name": "C3",
                    "midi": 48,
                    "time": 1.1217060000000003,
                    "velocity": 0.2283464566929134,
                    "duration": 0.14021324999999996
                },
                {
                    "name": "E3",
                    "midi": 52,
                    "time": 1.1217060000000003,
                    "velocity": 0.2755905511811024,
                    "duration": 0.14021324999999996
                },
                {
                    "name": "C3",
                    "midi": 48,
                    "time": 1.3086570000000002,
                    "velocity": 0.2283464566929134,
                    "duration": 0.14021324999999996
                },
                {
                    "name": "E3",
                    "midi": 52,
                    "time": 1.3086570000000002,
                    "velocity": 0.2755905511811024,
                    "duration": 0.14021324999999996
                },
                {
                    "name": "C3",
                    "midi": 48,
                    "time": 1.495608,
                    "velocity": 0.23622047244094488,
                    "duration": 0.14021324999999996
                },
                {
                    "name": "E3",
                    "midi": 52,
                    "time": 1.495608,
                    "velocity": 0.28346456692913385,
                    "duration": 0.14021324999999996
                },
                {
                    "name": "C3",
                    "midi": 48,
                    "time": 1.682559,
                    "velocity": 0.23622047244094488,
                    "duration": 0.14021324999999996
                },
                {
                    "name": "E3",
                    "midi": 52,
                    "time": 1.682559,
                    "velocity": 0.28346456692913385,
                    "duration": 0.14021324999999996
                },
                {
                    "name": "C3",
                    "midi": 48,
                    "time": 1.8695099999999998,
                    "velocity": 0.2440944881889764,
                    "duration": 0.14021325000000018
                },
                {
                    "name": "E3",
                    "midi": 52,
                    "time": 1.8695099999999998,
                    "velocity": 0.29133858267716534,
                    "duration": 0.14021325000000018
                },
                {
                    "name": "C3",
                    "midi": 48,
                    "time": 2.056461,
                    "velocity": 0.25196850393700787,
                    "duration": 0.14021324999999996
                },
                {
                    "name": "E3",
                    "midi": 52,
                    "time": 2.056461,
                    "velocity": 0.2992125984251969,
                    "duration": 0.14021324999999996
                },
                {
                    "name": "C3",
                    "midi": 48,
                    "time": 2.243412,
                    "velocity": 0.25984251968503935,
                    "duration": 0.14021324999999996
                },
                {
                    "name": "E3",
                    "midi": 52,
                    "time": 2.243412,
                    "velocity": 0.30708661417322836,
                    "duration": 0.14021324999999996
                },
                {
                    "name": "C3",
                    "midi": 48,
                    "time": 2.4303630000000003,
                    "velocity": 0.2677165354330709,
                    "duration": 0.14021324999999996
                },
                {
                    "name": "E3",
                    "midi": 52,
                    "time": 2.4303630000000003,
                    "velocity": 0.31496062992125984,
                    "duration": 0.14021324999999996
                },
                {
                    "name": "D3",
                    "midi": 50,
                    "time": 2.6173140000000004,
                    "velocity": 0.2677165354330709,
                    "duration": 0.14021324999999996
                },
                {
                    "name": "F#3",
                    "midi": 54,
                    "time": 2.6173140000000004,
                    "velocity": 0.31496062992125984,
                    "duration": 0.14021324999999996
                },
                {
                    "name": "D3",
                    "midi": 50,
                    "time": 2.8042650000000005,
                    "velocity": 0.2677165354330709,
                    "duration": 0.14021324999999996
                },
                {
                    "name": "F#3",
                    "midi": 54,
                    "time": 2.8042650000000005,
                    "velocity": 0.31496062992125984,
                    "duration": 0.14021324999999996
                },
                {
                    "name": "D3",
                    "midi": 50,
                    "time": 2.9912160000000005,
                    "velocity": 0.30708661417322836,
                    "duration": 0.5608529999999998
                },
                {
                    "name": "G3",
                    "midi": 55,
                    "time": 2.9912160000000005,
                    "velocity": 0.36220472440944884,
                    "duration": 0.5608529999999998
                },
                {
                    "name": "B3",
                    "midi": 59,
                    "time": 3.5520690000000004,
                    "velocity": 0.31496062992125984,
                    "duration": 0.09347549999999982
                },
                {
                    "name": "A3",
                    "midi": 57,
                    "time": 3.6455445,
                    "velocity": 0.31496062992125984,
                    "duration": 0.09347549999999982
                },
                {
                    "name": "G3",
                    "midi": 55,
                    "time": 3.73902,
                    "velocity": 0.3543307086614173,
                    "duration": 0.09347549999999982
                },
                {
                    "name": "C#6",
                    "midi": 85,
                    "time": 4.44008625,
                    "velocity": 0.36220472440944884,
                    "duration": 0.04673775000000013
                },
                {
                    "name": "D6",
                    "midi": 86,
                    "time": 4.486824,
                    "velocity": 0.44881889763779526,
                    "duration": 0.46737749999999956
                },
                {
                    "name": "C6",
                    "midi": 84,
                    "time": 4.9542015,
                    "velocity": 0.3779527559055118,
                    "duration": 0.09347550000000027
                },
                {
                    "name": "B5",
                    "midi": 83,
                    "time": 5.047677,
                    "velocity": 0.3700787401574803,
                    "duration": 0.09347550000000027
                },
                {
                    "name": "A5",
                    "midi": 81,
                    "time": 5.1411525000000005,
                    "velocity": 0.3543307086614173,
                    "duration": 0.09347550000000027
                },
                {
                    "name": "G5",
                    "midi": 79,
                    "time": 5.234628000000001,
                    "velocity": 0.3464566929133858,
                    "duration": 0.18695099999999965
                },
                {
                    "name": "A#2",
                    "midi": 46,
                    "time": 5.982432,
                    "velocity": 0.2283464566929134,
                    "duration": 0.1402132500000004
                },
                {
                    "name": "D3",
                    "midi": 50,
                    "time": 5.982432,
                    "velocity": 0.2755905511811024,
                    "duration": 0.1402132500000004
                },
                {
                    "name": "A#2",
                    "midi": 46,
                    "time": 6.169383000000001,
                    "velocity": 0.2283464566929134,
                    "duration": 0.1402132500000004
                },
                {
                    "name": "D3",
                    "midi": 50,
                    "time": 6.169383000000001,
                    "velocity": 0.2755905511811024,
                    "duration": 0.1402132500000004
                },
                {
                    "name": "A#2",
                    "midi": 46,
                    "time": 6.356334000000001,
                    "velocity": 0.2283464566929134,
                    "duration": 0.1402132500000004
                },
                {
                    "name": "D3",
                    "midi": 50,
                    "time": 6.356334000000001,
                    "velocity": 0.2755905511811024,
                    "duration": 0.1402132500000004
                },
                {
                    "name": "A#2",
                    "midi": 46,
                    "time": 6.543285000000002,
                    "velocity": 0.23622047244094488,
                    "duration": 0.1402132500000004
                },
                {
                    "name": "D3",
                    "midi": 50,
                    "time": 6.543285000000002,
                    "velocity": 0.28346456692913385,
                    "duration": 0.1402132500000004
                },
                {
                    "name": "A#2",
                    "midi": 46,
                    "time": 6.730236000000002,
                    "velocity": 0.2440944881889764,
                    "duration": 0.1402132500000004
                },
                {
                    "name": "D3",
                    "midi": 50,
                    "time": 6.730236000000002,
                    "velocity": 0.29133858267716534,
                    "duration": 0.1402132500000004
                },
                {
                    "name": "A#2",
                    "midi": 46,
                    "time": 6.917187000000003,
                    "velocity": 0.2440944881889764,
                    "duration": 0.1402132500000004
                },
                {
                    "name": "D3",
                    "midi": 50,
                    "time": 6.917187000000003,
                    "velocity": 0.29133858267716534,
                    "duration": 0.1402132500000004
                },
                {
                    "name": "A#2",
                    "midi": 46,
                    "time": 7.104138000000003,
                    "velocity": 0.25196850393700787,
                    "duration": 0.1402132500000004
                },
                {
                    "name": "D3",
                    "midi": 50,
                    "time": 7.104138000000003,
                    "velocity": 0.2992125984251969,
                    "duration": 0.1402132500000004
                },
                {
                    "name": "A#2",
                    "midi": 46,
                    "time": 7.291089000000004,
                    "velocity": 0.25984251968503935,
                    "duration": 0.1402132500000004
                },
                {
                    "name": "D3",
                    "midi": 50,
                    "time": 7.291089000000004,
                    "velocity": 0.30708661417322836,
                    "duration": 0.1402132500000004
                },
                {
                    "name": "A#2",
                    "midi": 46,
                    "time": 7.4780400000000045,
                    "velocity": 0.25984251968503935,
                    "duration": 0.1402132500000004
                },
                {
                    "name": "D3",
                    "midi": 50,
                    "time": 7.4780400000000045,
                    "velocity": 0.30708661417322836,
                    "duration": 0.1402132500000004
                },
                {
                    "name": "A#2",
                    "midi": 46,
                    "time": 7.664991000000005,
                    "velocity": 0.2677165354330709,
                    "duration": 0.1402132500000004
                },
                {
                    "name": "D3",
                    "midi": 50,
                    "time": 7.664991000000005,
                    "velocity": 0.31496062992125984,
                    "duration": 0.1402132500000004
                },
                {
                    "name": "A#2",
                    "midi": 46,
                    "time": 7.8519420000000055,
                    "velocity": 0.2677165354330709,
                    "duration": 0.1402132500000004
                },
                {
                    "name": "D3",
                    "midi": 50,
                    "time": 7.8519420000000055,
                    "velocity": 0.31496062992125984,
                    "duration": 0.1402132500000004
                },
                {
                    "name": "A#2",
                    "midi": 46,
                    "time": 8.038893000000005,
                    "velocity": 0.2677165354330709,
                    "duration": 0.1402132500000004
                },
                {
                    "name": "D3",
                    "midi": 50,
                    "time": 8.038893000000005,
                    "velocity": 0.31496062992125984,
                    "duration": 0.1402132500000004
                },
                {
                    "name": "A#2",
                    "midi": 46,
                    "time": 8.225844000000006,
                    "velocity": 0.2677165354330709,
                    "duration": 0.1402132500000004
                },
                {
                    "name": "D3",
                    "midi": 50,
                    "time": 8.225844000000006,
                    "velocity": 0.31496062992125984,
                    "duration": 0.1402132500000004
                },
                {
                    "name": "A#2",
                    "midi": 46,
                    "time": 8.412795000000006,
                    "velocity": 0.2677165354330709,
                    "duration": 0.1402132500000004
                },
                {
                    "name": "D3",
                    "midi": 50,
                    "time": 8.412795000000006,
                    "velocity": 0.31496062992125984,
                    "duration": 0.1402132500000004
                },
                {
                    "name": "C3",
                    "midi": 48,
                    "time": 8.599746000000007,
                    "velocity": 0.2677165354330709,
                    "duration": 0.1402132500000004
                },
                {
                    "name": "E3",
                    "midi": 52,
                    "time": 8.599746000000007,
                    "velocity": 0.31496062992125984,
                    "duration": 0.1402132500000004
                },
                {
                    "name": "C3",
                    "midi": 48,
                    "time": 8.786697000000007,
                    "velocity": 0.2677165354330709,
                    "duration": 0.1402132500000004
                },
                {
                    "name": "E3",
                    "midi": 52,
                    "time": 8.786697000000007,
                    "velocity": 0.31496062992125984,
                    "duration": 0.1402132500000004
                },
                {
                    "name": "C3",
                    "midi": 48,
                    "time": 8.973648000000008,
                    "velocity": 0.30708661417322836,
                    "duration": 0.5608529999999998
                },
                {
                    "name": "F3",
                    "midi": 53,
                    "time": 8.973648000000008,
                    "velocity": 0.36220472440944884,
                    "duration": 0.5608529999999998
                },
                {
                    "name": "A3",
                    "midi": 57,
                    "time": 9.534501000000008,
                    "velocity": 0.31496062992125984,
                    "duration": 0.09347550000000027
                },
                {
                    "name": "G3",
                    "midi": 55,
                    "time": 9.627976500000008,
                    "velocity": 0.31496062992125984,
                    "duration": 0.09347550000000027
                },
                {
                    "name": "F3",
                    "midi": 53,
                    "time": 9.721452000000008,
                    "velocity": 0.3543307086614173,
                    "duration": 0.09347550000000027
                },
                {
                    "name": "B5",
                    "midi": 83,
                    "time": 10.422518250000008,
                    "velocity": 0.36220472440944884,
                    "duration": 0.04673775000000013
                },
                {
                    "name": "C6",
                    "midi": 84,
                    "time": 10.469256000000009,
                    "velocity": 0.44881889763779526,
                    "duration": 0.46737749999999956
                },
                {
                    "name": "A#5",
                    "midi": 82,
                    "time": 10.936633500000008,
                    "velocity": 0.3937007874015748,
                    "duration": 0.09347550000000027
                },
                {
                    "name": "G#5",
                    "midi": 80,
                    "time": 11.030109000000008,
                    "velocity": 0.3858267716535433,
                    "duration": 0.09347550000000027
                },
                {
                    "name": "G5",
                    "midi": 79,
                    "time": 11.123584500000009,
                    "velocity": 0.3700787401574803,
                    "duration": 0.09347550000000027
                },
                {
                    "name": "F5",
                    "midi": 77,
                    "time": 11.217060000000009,
                    "velocity": 0.36220472440944884,
                    "duration": 0.18695100000000053
                },
                {
                    "name": "E6",
                    "midi": 88,
                    "time": 11.91812625000001,
                    "velocity": 0.5275590551181102,
                    "duration": 0.04673775000000013
                },
                {
                    "name": "F6",
                    "midi": 89,
                    "time": 11.96486400000001,
                    "velocity": 0.5748031496062992,
                    "duration": 1.1217059999999996
                },
                {
                    "name": "F6",
                    "midi": 89,
                    "time": 13.086570000000009,
                    "velocity": 0.5826771653543307,
                    "duration": 0.09347550000000027
                },
                {
                    "name": "D#6",
                    "midi": 87,
                    "time": 13.18004550000001,
                    "velocity": 0.5748031496062992,
                    "duration": 0.09347550000000027
                },
                {
                    "name": "D6",
                    "midi": 86,
                    "time": 13.27352100000001,
                    "velocity": 0.5590551181102362,
                    "duration": 0.09347550000000027
                },
                {
                    "name": "C6",
                    "midi": 84,
                    "time": 13.36699650000001,
                    "velocity": 0.5511811023622047,
                    "duration": 0.09347550000000027
                },
                {
                    "name": "B5",
                    "midi": 83,
                    "time": 13.46047200000001,
                    "velocity": 0.5669291338582677,
                    "duration": 0.09347550000000027
                },
                {
                    "name": "C6",
                    "midi": 84,
                    "time": 13.55394750000001,
                    "velocity": 0.5590551181102362,
                    "duration": 0.09347550000000027
                },
                {
                    "name": "D6",
                    "midi": 86,
                    "time": 13.64742300000001,
                    "velocity": 0.5669291338582677,
                    "duration": 0.09347550000000027
                },
                {
                    "name": "D#6",
                    "midi": 87,
                    "time": 13.74089850000001,
                    "velocity": 0.5748031496062992,
                    "duration": 0.09347550000000027
                },
                {
                    "name": "F6",
                    "midi": 89,
                    "time": 13.834374000000011,
                    "velocity": 0.5826771653543307,
                    "duration": 0.09347550000000027
                },
                {
                    "name": "D#6",
                    "midi": 87,
                    "time": 13.927849500000011,
                    "velocity": 0.5669291338582677,
                    "duration": 0.09347550000000027
                },
                {
                    "name": "D6",
                    "midi": 86,
                    "time": 14.021325000000012,
                    "velocity": 0.5590551181102362,
                    "duration": 0.09347550000000027
                },
                {
                    "name": "C6",
                    "midi": 84,
                    "time": 14.114800500000012,
                    "velocity": 0.5433070866141733,
                    "duration": 0.09347550000000027
                },
                {
                    "name": "B5",
                    "midi": 83,
                    "time": 14.208276000000012,
                    "velocity": 0.5669291338582677,
                    "duration": 0.09347550000000027
                },
                {
                    "name": "C6",
                    "midi": 84,
                    "time": 14.301751500000012,
                    "velocity": 0.5905511811023622,
                    "duration": 0.09347550000000027
                },
                {
                    "name": "D6",
                    "midi": 86,
                    "time": 14.395227000000013,
                    "velocity": 0.6062992125984252,
                    "duration": 0.09347550000000027
                },
                {
                    "name": "D#6",
                    "midi": 87,
                    "time": 14.488702500000013,
                    "velocity": 0.6299212598425197,
                    "duration": 0.09347550000000027
                },
                {
                    "name": "F6",
                    "midi": 89,
                    "time": 14.582178000000013,
                    "velocity": 0.6299212598425197,
                    "duration": 0.09347550000000027
                },
                {
                    "name": "D#6",
                    "midi": 87,
                    "time": 14.675653500000013,
                    "velocity": 0.6299212598425197,
                    "duration": 0.09347550000000027
                },
                {
                    "name": "D6",
                    "midi": 86,
                    "time": 14.769129000000014,
                    "velocity": 0.6220472440944882,
                    "duration": 0.09347550000000027
                },
                {
                    "name": "C6",
                    "midi": 84,
                    "time": 14.862604500000014,
                    "velocity": 0.6377952755905512,
                    "duration": 0.09347550000000027
                },
                {
                    "name": "B5",
                    "midi": 83,
                    "time": 14.956080000000014,
                    "velocity": 0.6692913385826772,
                    "duration": 0.09347550000000027
                },
                {
                    "name": "C6",
                    "midi": 84,
                    "time": 15.049555500000015,
                    "velocity": 0.7007874015748031,
                    "duration": 0.09347550000000027
                },
                {
                    "name": "D6",
                    "midi": 86,
                    "time": 15.143031000000015,
                    "velocity": 0.7401574803149606,
                    "duration": 0.09347550000000027
                },
                {
                    "name": "D#6",
                    "midi": 87,
                    "time": 15.236506500000015,
                    "velocity": 0.7716535433070866,
                    "duration": 0.09347550000000027
                },
                {
                    "name": "F6",
                    "midi": 89,
                    "time": 15.329982000000015,
                    "velocity": 0.7874015748031497,
                    "duration": 0.09347550000000027
                },
                {
                    "name": "D#6",
                    "midi": 87,
                    "time": 15.423457500000016,
                    "velocity": 0.7716535433070866,
                    "duration": 0.09347550000000027
                },
                {
                    "name": "D6",
                    "midi": 86,
                    "time": 15.516933000000016,
                    "velocity": 0.7559055118110236,
                    "duration": 0.09347550000000027
                },
                {
                    "name": "C6",
                    "midi": 84,
                    "time": 15.610408500000016,
                    "velocity": 0.7401574803149606,
                    "duration": 0.09347550000000027
                },
                {
                    "name": "B5",
                    "midi": 83,
                    "time": 15.703884000000016,
                    "velocity": 0.7322834645669292,
                    "duration": 0.09347550000000027
                },
                {
                    "name": "G#5",
                    "midi": 80,
                    "time": 15.797359500000017,
                    "velocity": 0.7165354330708661,
                    "duration": 0.09347550000000027
                },
                {
                    "name": "G5",
                    "midi": 79,
                    "time": 15.890835000000017,
                    "velocity": 0.7007874015748031,
                    "duration": 0.09347550000000027
                },
                {
                    "name": "F5",
                    "midi": 77,
                    "time": 15.984310500000017,
                    "velocity": 0.6850393700787402,
                    "duration": 0.09347550000000027
                },
                {
                    "name": "D#5",
                    "midi": 75,
                    "time": 16.077786000000017,
                    "velocity": 0.6692913385826772,
                    "duration": 0.09347550000000027
                },
                {
                    "name": "D5",
                    "midi": 74,
                    "time": 16.171261500000018,
                    "velocity": 0.6535433070866141,
                    "duration": 0.09347550000000027
                },
                {
                    "name": "C5",
                    "midi": 72,
                    "time": 16.264737000000018,
                    "velocity": 0.6377952755905512,
                    "duration": 0.09347550000000027
                },
                {
                    "name": "B4",
                    "midi": 71,
                    "time": 16.35821250000002,
                    "velocity": 0.6220472440944882,
                    "duration": 0.09347550000000027
                },
                {
                    "name": "C5",
                    "midi": 72,
                    "time": 16.45168800000002,
                    "velocity": 0.7322834645669292,
                    "duration": 0.14021324999999862
                },
                {
                    "name": "G4",
                    "midi": 67,
                    "time": 16.825590000000016,
                    "velocity": 0.6535433070866141,
                    "duration": 0.14021324999999862
                },
                {
                    "name": "D#4",
                    "midi": 63,
                    "time": 17.199492000000014,
                    "velocity": 0.5669291338582677,
                    "duration": 0.14021324999999862
                },
                {
                    "name": "C4",
                    "midi": 60,
                    "time": 17.57339400000001,
                    "velocity": 0.5039370078740157,
                    "duration": 0.14021324999999862
                },
                {
                    "name": "G3",
                    "midi": 55,
                    "time": 17.94729600000001,
                    "velocity": 0.47244094488188976,
                    "duration": 1.4956080000000007
                },
                {
                    "name": "E4",
                    "midi": 64,
                    "time": 19.44290400000001,
                    "velocity": 0.29133858267716534,
                    "duration": 0.09269653750000018
                },
                {
                    "name": "C4",
                    "midi": 60,
                    "time": 19.53637950000001,
                    "velocity": 0.25984251968503935,
                    "duration": 0.09347550000000027
                },
                {
                    "name": "E4",
                    "midi": 64,
                    "time": 19.62985500000001,
                    "velocity": 0.29133858267716534,
                    "duration": 0.09269653750000018
                },
                {
                    "name": "C4",
                    "midi": 60,
                    "time": 19.72333050000001,
                    "velocity": 0.25984251968503935,
                    "duration": 0.09347550000000027
                },
                {
                    "name": "E4",
                    "midi": 64,
                    "time": 19.81680600000001,
                    "velocity": 0.29133858267716534,
                    "duration": 0.09269653750000018
                },
                {
                    "name": "C4",
                    "midi": 60,
                    "time": 19.91028150000001,
                    "velocity": 0.25984251968503935,
                    "duration": 0.09347550000000027
                },
                {
                    "name": "E4",
                    "midi": 64,
                    "time": 20.00375700000001,
                    "velocity": 0.28346456692913385,
                    "duration": 0.09269653750000018
                },
                {
                    "name": "C4",
                    "midi": 60,
                    "time": 20.09723250000001,
                    "velocity": 0.25984251968503935,
                    "duration": 0.09347550000000027
                },
                {
                    "name": "E4",
                    "midi": 64,
                    "time": 20.19070800000001,
                    "velocity": 0.28346456692913385,
                    "duration": 0.09269653750000018
                },
                {
                    "name": "C4",
                    "midi": 60,
                    "time": 20.28418350000001,
                    "velocity": 0.25984251968503935,
                    "duration": 0.09347550000000027
                },
                {
                    "name": "E4",
                    "midi": 64,
                    "time": 20.377659000000012,
                    "velocity": 0.29133858267716534,
                    "duration": 0.09269653750000018
                },
                {
                    "name": "C4",
                    "midi": 60,
                    "time": 20.471134500000012,
                    "velocity": 0.25984251968503935,
                    "duration": 0.09347550000000027
                },
                {
                    "name": "E4",
                    "midi": 64,
                    "time": 20.564610000000012,
                    "velocity": 0.28346456692913385,
                    "duration": 0.09269653750000018
                },
                {
                    "name": "C4",
                    "midi": 60,
                    "time": 20.658085500000013,
                    "velocity": 0.25984251968503935,
                    "duration": 0.09347550000000027
                },
                {
                    "name": "E4",
                    "midi": 64,
                    "time": 20.751561000000013,
                    "velocity": 0.28346456692913385,
                    "duration": 0.09269653750000018
                },
                {
                    "name": "C4",
                    "midi": 60,
                    "time": 20.845036500000013,
                    "velocity": 0.25984251968503935,
                    "duration": 0.09347550000000027
                },
                {
                    "name": "E4",
                    "midi": 64,
                    "time": 20.938512000000014,
                    "velocity": 0.29133858267716534,
                    "duration": 0.09269653750000018
                },
                {
                    "name": "C4",
                    "midi": 60,
                    "time": 21.031987500000014,
                    "velocity": 0.25984251968503935,
                    "duration": 0.09347550000000027
                },
                {
                    "name": "E4",
                    "midi": 64,
                    "time": 21.125463000000014,
                    "velocity": 0.29133858267716534,
                    "duration": 0.09269653750000018
                },
                {
                    "name": "C4",
                    "midi": 60,
                    "time": 21.218938500000014,
                    "velocity": 0.25984251968503935,
                    "duration": 0.09347550000000027
                },
                {
                    "name": "E4",
                    "midi": 64,
                    "time": 21.312414000000015,
                    "velocity": 0.29133858267716534,
                    "duration": 0.09269653750000018
                },
                {
                    "name": "C4",
                    "midi": 60,
                    "time": 21.405889500000015,
                    "velocity": 0.25984251968503935,
                    "duration": 0.09347550000000027
                },
                {
                    "name": "E4",
                    "midi": 64,
                    "time": 21.499365000000015,
                    "velocity": 0.28346456692913385,
                    "duration": 0.09269653750000018
                },
                {
                    "name": "C4",
                    "midi": 60,
                    "time": 21.592840500000015,
                    "velocity": 0.25984251968503935,
                    "duration": 0.09347550000000027
                },
                {
                    "name": "E4",
                    "midi": 64,
                    "time": 21.686316000000016,
                    "velocity": 0.28346456692913385,
                    "duration": 0.09269653750000018
                },
                {
                    "name": "C4",
                    "midi": 60,
                    "time": 21.779791500000016,
                    "velocity": 0.25984251968503935,
                    "duration": 0.09347550000000027
                },
                {
                    "name": "E4",
                    "midi": 64,
                    "time": 21.873267000000016,
                    "velocity": 0.29133858267716534,
                    "duration": 0.09269653750000018
                },
                {
                    "name": "C4",
                    "midi": 60,
                    "time": 21.966742500000016,
                    "velocity": 0.25984251968503935,
                    "duration": 0.09347550000000027
                },
                {
                    "name": "F#4",
                    "midi": 66,
                    "time": 22.060218000000017,
                    "velocity": 0.28346456692913385,
                    "duration": 0.09269653750000018
                },
                {
                    "name": "D4",
                    "midi": 62,
                    "time": 22.153693500000017,
                    "velocity": 0.25984251968503935,
                    "duration": 0.09347550000000027
                },
                {
                    "name": "F#4",
                    "midi": 66,
                    "time": 22.247169000000017,
                    "velocity": 0.28346456692913385,
                    "duration": 0.09269653750000018
                },
                {
                    "name": "D4",
                    "midi": 62,
                    "time": 22.340644500000018,
                    "velocity": 0.25984251968503935,
                    "duration": 0.09347550000000027
                },
                {
                    "name": "G4",
                    "midi": 67,
                    "time": 22.434120000000018,
                    "velocity": 0.36220472440944884,
                    "duration": 0.5608530000000016
                },
                {
                    "name": "B4",
                    "midi": 71,
                    "time": 22.99497300000002,
                    "velocity": 0.31496062992125984,
                    "duration": 0.09347550000000027
                },
                {
                    "name": "A4",
                    "midi": 69,
                    "time": 23.08844850000002,
                    "velocity": 0.31496062992125984,
                    "duration": 0.09347550000000027
                },
                {
                    "name": "G4",
                    "midi": 67,
                    "time": 23.18192400000002,
                    "velocity": 0.3543307086614173,
                    "duration": 0.09347550000000027
                },
                {
                    "name": "C#6",
                    "midi": 85,
                    "time": 23.88299025000002,
                    "velocity": 0.36220472440944884,
                    "duration": 0.04673774999999836
                },
                {
                    "name": "D6",
                    "midi": 86,
                    "time": 23.92972800000002,
                    "velocity": 0.44881889763779526,
                    "duration": 0.46737750000000133
                },
                {
                    "name": "C6",
                    "midi": 84,
                    "time": 24.39710550000002,
                    "velocity": 0.3779527559055118,
                    "duration": 0.09347550000000027
                },
                {
                    "name": "B5",
                    "midi": 83,
                    "time": 24.49058100000002,
                    "velocity": 0.3700787401574803,
                    "duration": 0.09347550000000027
                },
                {
                    "name": "A5",
                    "midi": 81,
                    "time": 24.58405650000002,
                    "velocity": 0.3543307086614173,
                    "duration": 0.09347550000000027
                },
                {
                    "name": "G5",
                    "midi": 79,
                    "time": 24.67753200000002,
                    "velocity": 0.3464566929133858,
                    "duration": 0.18695100000000053
                },
                {
                    "name": "F4",
                    "midi": 65,
                    "time": 25.425336000000023,
                    "velocity": 0.31496062992125984,
                    "duration": 0.09269653750000018
                },
                {
                    "name": "D4",
                    "midi": 62,
                    "time": 25.518811500000023,
                    "velocity": 0.28346456692913385,
                    "duration": 0.09347550000000027
                },
                {
                    "name": "F4",
                    "midi": 65,
                    "time": 25.612287000000023,
                    "velocity": 0.31496062992125984,
                    "duration": 0.09269653750000018
                },
                {
                    "name": "D4",
                    "midi": 62,
                    "time": 25.705762500000024,
                    "velocity": 0.28346456692913385,
                    "duration": 0.09347550000000027
                },
                {
                    "name": "F4",
                    "midi": 65,
                    "time": 25.799238000000024,
                    "velocity": 0.31496062992125984,
                    "duration": 0.09269653750000018
                },
                {
                    "name": "D4",
                    "midi": 62,
                    "time": 25.892713500000024,
                    "velocity": 0.28346456692913385,
                    "duration": 0.09347550000000027
                },
                {
                    "name": "F4",
                    "midi": 65,
                    "time": 25.986189000000024,
                    "velocity": 0.30708661417322836,
                    "duration": 0.09269653750000018
                },
                {
                    "name": "D4",
                    "midi": 62,
                    "time": 26.079664500000025,
                    "velocity": 0.28346456692913385,
                    "duration": 0.09347550000000027
                },
                {
                    "name": "F4",
                    "midi": 65,
                    "time": 26.173140000000025,
                    "velocity": 0.30708661417322836,
                    "duration": 0.09269653750000018
                },
                {
                    "name": "D4",
                    "midi": 62,
                    "time": 26.266615500000025,
                    "velocity": 0.28346456692913385,
                    "duration": 0.09347550000000027
                },
                {
                    "name": "F4",
                    "midi": 65,
                    "time": 26.360091000000025,
                    "velocity": 0.3228346456692913,
                    "duration": 0.09269653750000018
                },
                {
                    "name": "D4",
                    "midi": 62,
                    "time": 26.453566500000026,
                    "velocity": 0.28346456692913385,
                    "duration": 0.09347550000000027
                },
                {
                    "name": "F4",
                    "midi": 65,
                    "time": 26.547042000000026,
                    "velocity": 0.31496062992125984,
                    "duration": 0.09269653750000018
                },
                {
                    "name": "D4",
                    "midi": 62,
                    "time": 26.640517500000026,
                    "velocity": 0.29133858267716534,
                    "duration": 0.09347550000000027
                },
                {
                    "name": "F4",
                    "midi": 65,
                    "time": 26.733993000000027,
                    "velocity": 0.31496062992125984,
                    "duration": 0.09269653750000018
                },
                {
                    "name": "D4",
                    "midi": 62,
                    "time": 26.827468500000027,
                    "velocity": 0.29133858267716534,
                    "duration": 0.09347550000000027
                },
                {
                    "name": "F4",
                    "midi": 65,
                    "time": 26.920944000000027,
                    "velocity": 0.3228346456692913,
                    "duration": 0.09269653750000018
                },
                {
                    "name": "D4",
                    "midi": 62,
                    "time": 27.014419500000027,
                    "velocity": 0.29133858267716534,
                    "duration": 0.09347550000000027
                },
                {
                    "name": "F4",
                    "midi": 65,
                    "time": 27.107895000000028,
                    "velocity": 0.3228346456692913,
                    "duration": 0.09269653750000018
                },
                {
                    "name": "D4",
                    "midi": 62,
                    "time": 27.201370500000028,
                    "velocity": 0.29133858267716534,
                    "duration": 0.09347550000000027
                },
                {
                    "name": "F4",
                    "midi": 65,
                    "time": 27.294846000000028,
                    "velocity": 0.33070866141732286,
                    "duration": 0.09269653750000018
                },
                {
                    "name": "D4",
                    "midi": 62,
                    "time": 27.38832150000003,
                    "velocity": 0.29133858267716534,
                    "duration": 0.09347550000000027
                },
                {
                    "name": "F4",
                    "midi": 65,
                    "time": 27.48179700000003,
                    "velocity": 0.3228346456692913,
                    "duration": 0.09269653750000018
                },
                {
                    "name": "D4",
                    "midi": 62,
                    "time": 27.57527250000003,
                    "velocity": 0.2992125984251969,
                    "duration": 0.09347550000000027
                },
                {
                    "name": "F4",
                    "midi": 65,
                    "time": 27.66874800000003,
                    "velocity": 0.3228346456692913,
                    "duration": 0.09269653750000018
                },
                {
                    "name": "D4",
                    "midi": 62,
                    "time": 27.76222350000003,
                    "velocity": 0.2992125984251969,
                    "duration": 0.09347550000000027
                },
                {
                    "name": "F4",
                    "midi": 65,
                    "time": 27.85569900000003,
                    "velocity": 0.33070866141732286,
                    "duration": 0.09269653750000018
                },
                {
                    "name": "D4",
                    "midi": 62,
                    "time": 27.94917450000003,
                    "velocity": 0.2992125984251969,
                    "duration": 0.09347550000000027
                },
                {
                    "name": "G#4",
                    "midi": 68,
                    "time": 28.04265000000003,
                    "velocity": 0.3228346456692913,
                    "duration": 0.09269653750000018
                },
                {
                    "name": "E4",
                    "midi": 64,
                    "time": 28.13612550000003,
                    "velocity": 0.2992125984251969,
                    "duration": 0.09347550000000027
                },
                {
                    "name": "G#4",
                    "midi": 68,
                    "time": 28.22960100000003,
                    "velocity": 0.33070866141732286,
                    "duration": 0.09269653750000018
                },
                {
                    "name": "E4",
                    "midi": 64,
                    "time": 28.32307650000003,
                    "velocity": 0.2992125984251969,
                    "duration": 0.09347550000000027
                },
                {
                    "name": "A4",
                    "midi": 69,
                    "time": 28.41655200000003,
                    "velocity": 0.4330708661417323,
                    "duration": 0.5608530000000016
                },
                {
                    "name": "C5",
                    "midi": 72,
                    "time": 28.977405000000033,
                    "velocity": 0.3779527559055118,
                    "duration": 0.09347550000000027
                },
                {
                    "name": "B4",
                    "midi": 71,
                    "time": 29.070880500000033,
                    "velocity": 0.3779527559055118,
                    "duration": 0.09347550000000027
                },
                {
                    "name": "A4",
                    "midi": 69,
                    "time": 29.164356000000033,
                    "velocity": 0.41732283464566927,
                    "duration": 0.09347550000000027
                },
                {
                    "name": "D#6",
                    "midi": 87,
                    "time": 29.865422250000034,
                    "velocity": 0.4330708661417323,
                    "duration": 0.04673774999999836
                },
                {
                    "name": "E6",
                    "midi": 88,
                    "time": 29.912160000000032,
                    "velocity": 0.5354330708661418,
                    "duration": 0.46737750000000133
                },
                {
                    "name": "D6",
                    "midi": 86,
                    "time": 30.379537500000033,
                    "velocity": 0.4645669291338583,
                    "duration": 0.09347550000000027
                },
                {
                    "name": "C6",
                    "midi": 84,
                    "time": 30.473013000000034,
                    "velocity": 0.4566929133858268,
                    "duration": 0.09347550000000027
                },
                {
                    "name": "B5",
                    "midi": 83,
                    "time": 30.566488500000034,
                    "velocity": 0.44881889763779526,
                    "duration": 0.09347550000000027
                },
                {
                    "name": "A5",
                    "midi": 81,
                    "time": 30.659964000000034,
                    "velocity": 0.44881889763779526,
                    "duration": 0.18695100000000053
                },
                {
                    "name": "D#6",
                    "midi": 87,
                    "time": 31.361030250000034,
                    "velocity": 0.5196850393700787,
                    "duration": 0.04673774999999836
                },
                {
                    "name": "E6",
                    "midi": 88,
                    "time": 31.407768000000033,
                    "velocity": 0.6692913385826772,
                    "duration": 0.46737750000000133
                },
                {
                    "name": "D6",
                    "midi": 86,
                    "time": 31.875145500000034,
                    "velocity": 0.5984251968503937,
                    "duration": 0.09347550000000027
                },
                {
                    "name": "C6",
                    "midi": 84,
                    "time": 31.968621000000034,
                    "velocity": 0.5905511811023622,
                    "duration": 0.09347549999999671
                },
                {
                    "name": "B5",
                    "midi": 83,
                    "time": 32.06209650000003,
                    "velocity": 0.5590551181102362,
                    "duration": 0.09347549999999671
                },
                {
                    "name": "A#5",
                    "midi": 82,
                    "time": 32.15557200000003,
                    "velocity": 0.5590551181102362,
                    "duration": 0.18695100000000053
                },
                {
                    "name": "B5",
                    "midi": 83,
                    "time": 32.90337600000003,
                    "velocity": 0.4409448818897638,
                    "duration": 0.4829567499999996
                },
                {
                    "name": "A5",
                    "midi": 81,
                    "time": 33.37075350000003,
                    "velocity": 0.4251968503937008,
                    "duration": 0.10905475000000564
                },
                {
                    "name": "G5",
                    "midi": 79,
                    "time": 33.46422900000003,
                    "velocity": 0.41732283464566927,
                    "duration": 0.10905475000000564
                },
                {
                    "name": "F#5",
                    "midi": 78,
                    "time": 33.557704500000035,
                    "velocity": 0.4015748031496063,
                    "duration": 0.10905475000000564
                },
                {
                    "name": "G5",
                    "midi": 79,
                    "time": 33.65118000000004,
                    "velocity": 0.41732283464566927,
                    "duration": 0.10905475000000564
                },
                {
                    "name": "F#5",
                    "midi": 78,
                    "time": 33.74465550000004,
                    "velocity": 0.4094488188976378,
                    "duration": 0.10905475000000564
                },
                {
                    "name": "E5",
                    "midi": 76,
                    "time": 33.83813100000005,
                    "velocity": 0.4015748031496063,
                    "duration": 0.10905475000000564
                },
                {
                    "name": "D#5",
                    "midi": 75,
                    "time": 33.93160650000005,
                    "velocity": 0.3937007874015748,
                    "duration": 0.10905475000000564
                },
                {
                    "name": "E5",
                    "midi": 76,
                    "time": 34.025082000000054,
                    "velocity": 0.3937007874015748,
                    "duration": 0.10905475000000564
                },
                {
                    "name": "G5",
                    "midi": 79,
                    "time": 34.11855750000006,
                    "velocity": 0.4094488188976378,
                    "duration": 0.10905475000000564
                },
                {
                    "name": "F#5",
                    "midi": 78,
                    "time": 34.21203300000006,
                    "velocity": 0.3937007874015748,
                    "duration": 0.10905475000000564
                },
                {
                    "name": "E5",
                    "midi": 76,
                    "time": 34.305508500000066,
                    "velocity": 0.3937007874015748,
                    "duration": 0.10905475000000564
                },
                {
                    "name": "D#5",
                    "midi": 75,
                    "time": 34.39898400000007,
                    "velocity": 0.3937007874015748,
                    "duration": 0.10905475000000564
                },
                {
                    "name": "C#5",
                    "midi": 73,
                    "time": 34.49245950000007,
                    "velocity": 0.3858267716535433,
                    "duration": 0.10905475000000564
                },
                {
                    "name": "B4",
                    "midi": 71,
                    "time": 34.58593500000008,
                    "velocity": 0.3779527559055118,
                    "duration": 0.10905475000000564
                },
                {
                    "name": "A#4",
                    "midi": 70,
                    "time": 34.67941050000008,
                    "velocity": 0.3700787401574803,
                    "duration": 0.10905475000000564
                },
                {
                    "name": "B4",
                    "midi": 71,
                    "time": 34.772886000000085,
                    "velocity": 0.3858267716535433,
                    "duration": 0.10905475000000564
                },
                {
                    "name": "C#5",
                    "midi": 73,
                    "time": 34.86636150000009,
                    "velocity": 0.3858267716535433,
                    "duration": 0.10905475000000564
                },
                {
                    "name": "D5",
                    "midi": 74,
                    "time": 34.95983700000009,
                    "velocity": 0.3858267716535433,
                    "duration": 0.10905475000000564
                },
                {
                    "name": "D#5",
                    "midi": 75,
                    "time": 35.0533125000001,
                    "velocity": 0.3937007874015748,
                    "duration": 0.10905475000000564
                },
                {
                    "name": "E5",
                    "midi": 76,
                    "time": 35.1467880000001,
                    "velocity": 0.3937007874015748,
                    "duration": 0.10905475000000564
                },
                {
                    "name": "D#5",
                    "midi": 75,
                    "time": 35.240263500000104,
                    "velocity": 0.3937007874015748,
                    "duration": 0.10905475000000564
                },
                {
                    "name": "E5",
                    "midi": 76,
                    "time": 35.33373900000011,
                    "velocity": 0.4015748031496063,
                    "duration": 0.10905475000000564
                },
                {
                    "name": "F#5",
                    "midi": 78,
                    "time": 35.42721450000011,
                    "velocity": 0.4015748031496063,
                    "duration": 0.10905475000000564
                },
                {
                    "name": "G5",
                    "midi": 79,
                    "time": 35.520690000000116,
                    "velocity": 0.3858267716535433,
                    "duration": 0.10905475000000564
                },
                {
                    "name": "G#5",
                    "midi": 80,
                    "time": 35.61416550000012,
                    "velocity": 0.3937007874015748,
                    "duration": 0.10905475000000564
                },
                {
                    "name": "A5",
                    "midi": 81,
                    "time": 35.70764100000012,
                    "velocity": 0.4094488188976378,
                    "duration": 0.10905475000000564
                },
                {
                    "name": "A#5",
                    "midi": 82,
                    "time": 35.80111650000013,
                    "velocity": 0.41732283464566927,
                    "duration": 0.10905475000000564
                },
                {
                    "name": "B5",
                    "midi": 83,
                    "time": 35.89459200000013,
                    "velocity": 0.4330708661417323,
                    "duration": 0.10905475000000564
                },
                {
                    "name": "A#5",
                    "midi": 82,
                    "time": 35.988067500000135,
                    "velocity": 0.41732283464566927,
                    "duration": 0.10905475000000564
                },
                {
                    "name": "B5",
                    "midi": 83,
                    "time": 36.08154300000014,
                    "velocity": 0.41732283464566927,
                    "duration": 0.10905475000000564
                },
                {
                    "name": "A#5",
                    "midi": 82,
                    "time": 36.17501850000014,
                    "velocity": 0.3937007874015748,
                    "duration": 0.10905475000000564
                },
                {
                    "name": "B5",
                    "midi": 83,
                    "time": 36.268494000000146,
                    "velocity": 0.4094488188976378,
                    "duration": 0.10905475000000564
                },
                {
                    "name": "A5",
                    "midi": 81,
                    "time": 36.36196950000015,
                    "velocity": 0.4094488188976378,
                    "duration": 0.10905475000000564
                },
                {
                    "name": "G5",
                    "midi": 79,
                    "time": 36.455445000000154,
                    "velocity": 0.4015748031496063,
                    "duration": 0.10905475000000564
                },
                {
                    "name": "F#5",
                    "midi": 78,
                    "time": 36.54892050000016,
                    "velocity": 0.3937007874015748,
                    "duration": 0.10905475000000564
                },
                {
                    "name": "G5",
                    "midi": 79,
                    "time": 36.64239600000016,
                    "velocity": 0.4094488188976378,
                    "duration": 0.10905475000000564
                },
                {
                    "name": "F#5",
                    "midi": 78,
                    "time": 36.735871500000165,
                    "velocity": 0.4015748031496063,
                    "duration": 0.10905475000000564
                },
                {
                    "name": "E5",
                    "midi": 76,
                    "time": 36.82934700000017,
                    "velocity": 0.3858267716535433,
                    "duration": 0.10905475000000564
                },
                {
                    "name": "D#5",
                    "midi": 75,
                    "time": 36.92282250000017,
                    "velocity": 0.3937007874015748,
                    "duration": 0.10905475000000564
                },
                {
                    "name": "E5",
                    "midi": 76,
                    "time": 37.01629800000018,
                    "velocity": 0.3937007874015748,
                    "duration": 0.10905475000000564
                },
                {
                    "name": "G5",
                    "midi": 79,
                    "time": 37.10977350000018,
                    "velocity": 0.41732283464566927,
                    "duration": 0.10905475000000564
                },
                {
                    "name": "F#5",
                    "midi": 78,
                    "time": 37.203249000000184,
                    "velocity": 0.3937007874015748,
                    "duration": 0.10905475000000564
                },
                {
                    "name": "E5",
                    "midi": 76,
                    "time": 37.29672450000019,
                    "velocity": 0.3937007874015748,
                    "duration": 0.10905475000000564
                },
                {
                    "name": "D#5",
                    "midi": 75,
                    "time": 37.39020000000019,
                    "velocity": 0.3937007874015748,
                    "duration": 0.10905475000000564
                },
                {
                    "name": "C#5",
                    "midi": 73,
                    "time": 37.483675500000196,
                    "velocity": 0.3858267716535433,
                    "duration": 0.10905475000000564
                },
                {
                    "name": "B4",
                    "midi": 71,
                    "time": 37.5771510000002,
                    "velocity": 0.3779527559055118,
                    "duration": 0.10905475000000564
                },
                {
                    "name": "A#4",
                    "midi": 70,
                    "time": 37.6706265000002,
                    "velocity": 0.3700787401574803,
                    "duration": 0.10905475000000564
                },
                {
                    "name": "B4",
                    "midi": 71,
                    "time": 37.76410200000021,
                    "velocity": 0.3858267716535433,
                    "duration": 0.10905475000000564
                },
                {
                    "name": "C#5",
                    "midi": 73,
                    "time": 37.85757750000021,
                    "velocity": 0.3937007874015748,
                    "duration": 0.10905475000000564
                },
                {
                    "name": "D5",
                    "midi": 74,
                    "time": 37.951053000000215,
                    "velocity": 0.3937007874015748,
                    "duration": 0.10905475000000564
                },
                {
                    "name": "D#5",
                    "midi": 75,
                    "time": 38.04452850000022,
                    "velocity": 0.4094488188976378,
                    "duration": 0.10905475000000564
                },
                {
                    "name": "E5",
                    "midi": 76,
                    "time": 38.13800400000022,
                    "velocity": 0.4094488188976378,
                    "duration": 0.10905475000000564
                },
                {
                    "name": "D#5",
                    "midi": 75,
                    "time": 38.231479500000226,
                    "velocity": 0.4094488188976378,
                    "duration": 0.10905475000000564
                },
                {
                    "name": "E5",
                    "midi": 76,
                    "time": 38.32495500000023,
                    "velocity": 0.4251968503937008,
                    "duration": 0.10905475000000564
                },
                {
                    "name": "F#5",
                    "midi": 78,
                    "time": 38.418430500000234,
                    "velocity": 0.4251968503937008,
                    "duration": 0.10905475000000564
                },
                {
                    "name": "G5",
                    "midi": 79,
                    "time": 38.51190600000024,
                    "velocity": 0.4409448818897638,
                    "duration": 0.10905475000000564
                },
                {
                    "name": "G#5",
                    "midi": 80,
                    "time": 38.60538150000024,
                    "velocity": 0.4566929133858268,
                    "duration": 0.10905475000000564
                },
                {
                    "name": "A5",
                    "midi": 81,
                    "time": 38.698857000000245,
                    "velocity": 0.47244094488188976,
                    "duration": 0.10905475000000564
                },
                {
                    "name": "A#5",
                    "midi": 82,
                    "time": 38.79233250000025,
                    "velocity": 0.4881889763779528,
                    "duration": 0.10905475000000564
                },
                {
                    "name": "B5",
                    "midi": 83,
                    "time": 38.88580800000025,
                    "velocity": 0.5354330708661418,
                    "duration": 0.09347550000000382
                },
                {
                    "name": "F#5",
                    "midi": 78,
                    "time": 38.97928350000026,
                    "velocity": 0.47244094488188976,
                    "duration": 0.09347549999999671
                },
                {
                    "name": "D#5",
                    "midi": 75,
                    "time": 39.072759000000254,
                    "velocity": 0.48031496062992124,
                    "duration": 0.09347549999999671
                },
                {
                    "name": "B4",
                    "midi": 71,
                    "time": 39.16623450000025,
                    "velocity": 0.48031496062992124,
                    "duration": 0.09347549999999671
                },
                {
                    "name": "A#4",
                    "midi": 70,
                    "time": 39.25971000000025,
                    "velocity": 0.5905511811023622,
                    "duration": 0.09347549999999671
                },
                {
                    "name": "B4",
                    "midi": 71,
                    "time": 39.353185500000244,
                    "velocity": 0.49606299212598426,
                    "duration": 0.09347549999999671
                },
                {
                    "name": "E5",
                    "midi": 76,
                    "time": 39.44666100000024,
                    "velocity": 0.49606299212598426,
                    "duration": 0.09347549999999671
                },
                {
                    "name": "G5",
                    "midi": 79,
                    "time": 39.54013650000024,
                    "velocity": 0.49606299212598426,
                    "duration": 0.09347549999999671
                },
                {
                    "name": "B5",
                    "midi": 83,
                    "time": 39.633612000000234,
                    "velocity": 0.5826771653543307,
                    "duration": 0.09347549999999671
                },
                {
                    "name": "F#5",
                    "midi": 78,
                    "time": 39.72708750000023,
                    "velocity": 0.5118110236220472,
                    "duration": 0.09347549999999671
                },
                {
                    "name": "D#5",
                    "midi": 75,
                    "time": 39.82056300000023,
                    "velocity": 0.5354330708661418,
                    "duration": 0.09347549999999671
                },
                {
                    "name": "B4",
                    "midi": 71,
                    "time": 39.914038500000224,
                    "velocity": 0.5354330708661418,
                    "duration": 0.09347549999999671
                },
                {
                    "name": "A#4",
                    "midi": 70,
                    "time": 40.00751400000022,
                    "velocity": 0.6299212598425197,
                    "duration": 0.09347549999999671
                },
                {
                    "name": "B4",
                    "midi": 71,
                    "time": 40.10098950000022,
                    "velocity": 0.5590551181102362,
                    "duration": 0.09347549999999671
                },
                {
                    "name": "E5",
                    "midi": 76,
                    "time": 40.194465000000214,
                    "velocity": 0.5590551181102362,
                    "duration": 0.09347549999999671
                },
                {
                    "name": "G5",
                    "midi": 79,
                    "time": 40.28794050000021,
                    "velocity": 0.5669291338582677,
                    "duration": 0.09347549999999671
                },
                {
                    "name": "B5",
                    "midi": 83,
                    "time": 40.38141600000021,
                    "velocity": 0.7165354330708661,
                    "duration": 0.09347549999999671
                },
                {
                    "name": "F#5",
                    "midi": 78,
                    "time": 40.474891500000204,
                    "velocity": 0.6456692913385826,
                    "duration": 0.09347549999999671
                },
                {
                    "name": "D#5",
                    "midi": 75,
                    "time": 40.5683670000002,
                    "velocity": 0.6456692913385826,
                    "duration": 0.09347549999999671
                },
                {
                    "name": "B4",
                    "midi": 71,
                    "time": 40.6618425000002,
                    "velocity": 0.6456692913385826,
                    "duration": 0.09347549999999671
                },
                {
                    "name": "B5",
                    "midi": 83,
                    "time": 40.755318000000194,
                    "velocity": 0.7165354330708661,
                    "duration": 0.09347549999999671
                },
                {
                    "name": "G5",
                    "midi": 79,
                    "time": 40.84879350000019,
                    "velocity": 0.6456692913385826,
                    "duration": 0.09347549999999671
                },
                {
                    "name": "E5",
                    "midi": 76,
                    "time": 40.94226900000019,
                    "velocity": 0.6456692913385826,
                    "duration": 0.09347549999999671
                },
                {
                    "name": "B4",
                    "midi": 71,
                    "time": 41.035744500000185,
                    "velocity": 0.6456692913385826,
                    "duration": 0.09347549999999671
                },
                {
                    "name": "B5",
                    "midi": 83,
                    "time": 41.12922000000018,
                    "velocity": 0.7165354330708661,
                    "duration": 0.09347549999999671
                },
                {
                    "name": "F#5",
                    "midi": 78,
                    "time": 41.22269550000018,
                    "velocity": 0.6456692913385826,
                    "duration": 0.09347549999999671
                },
                {
                    "name": "D#5",
                    "midi": 75,
                    "time": 41.316171000000175,
                    "velocity": 0.6377952755905512,
                    "duration": 0.09347549999999671
                },
                {
                    "name": "B4",
                    "midi": 71,
                    "time": 41.40964650000017,
                    "velocity": 0.6377952755905512,
                    "duration": 0.09347549999999671
                },
                {
                    "name": "B5",
                    "midi": 83,
                    "time": 41.50312200000017,
                    "velocity": 0.7165354330708661,
                    "duration": 0.09347549999999671
                },
                {
                    "name": "G5",
                    "midi": 79,
                    "time": 41.596597500000165,
                    "velocity": 0.6377952755905512,
                    "duration": 0.09347549999999671
                },
                {
                    "name": "E5",
                    "midi": 76,
                    "time": 41.69007300000016,
                    "velocity": 0.6377952755905512,
                    "duration": 0.09347549999999671
                },
                {
                    "name": "B4",
                    "midi": 71,
                    "time": 41.78354850000016,
                    "velocity": 0.6456692913385826,
                    "duration": 0.09347549999999671
                },
                {
                    "name": "B5",
                    "midi": 83,
                    "time": 41.877024000000155,
                    "velocity": 0.7165354330708661,
                    "duration": 0.09347549999999671
                },
                {
                    "name": "F#5",
                    "midi": 78,
                    "time": 41.97049950000015,
                    "velocity": 0.6456692913385826,
                    "duration": 0.09347549999999671
                },
                {
                    "name": "D#5",
                    "midi": 75,
                    "time": 42.06397500000015,
                    "velocity": 0.6456692913385826,
                    "duration": 0.09347549999999671
                },
                {
                    "name": "B4",
                    "midi": 71,
                    "time": 42.157450500000145,
                    "velocity": 0.6456692913385826,
                    "duration": 0.09347549999999671
                },
                {
                    "name": "F#5",
                    "midi": 78,
                    "time": 42.25092600000014,
                    "velocity": 0.7165354330708661,
                    "duration": 0.09347549999999671
                },
                {
                    "name": "D#5",
                    "midi": 75,
                    "time": 42.34440150000014,
                    "velocity": 0.6456692913385826,
                    "duration": 0.09347549999999671
                },
                {
                    "name": "B4",
                    "midi": 71,
                    "time": 42.437877000000135,
                    "velocity": 0.6456692913385826,
                    "duration": 0.09347549999999671
                },
                {
                    "name": "F#4",
                    "midi": 66,
                    "time": 42.53135250000013,
                    "velocity": 0.6456692913385826,
                    "duration": 0.09347549999999671
                },
                {
                    "name": "D#5",
                    "midi": 75,
                    "time": 42.62482800000013,
                    "velocity": 0.7165354330708661,
                    "duration": 0.09347549999999671
                },
                {
                    "name": "B4",
                    "midi": 71,
                    "time": 42.718303500000125,
                    "velocity": 0.6456692913385826,
                    "duration": 0.09347549999999671
                },
                {
                    "name": "F#4",
                    "midi": 66,
                    "time": 42.81177900000012,
                    "velocity": 0.6377952755905512,
                    "duration": 0.09347549999999671
                },
                {
                    "name": "D#4",
                    "midi": 63,
                    "time": 42.90525450000012,
                    "velocity": 0.6377952755905512,
                    "duration": 0.09347549999999671
                },
                {
                    "name": "B4",
                    "midi": 71,
                    "time": 42.998730000000116,
                    "velocity": 0.7165354330708661,
                    "duration": 0.09347549999999671
                },
                {
                    "name": "F#4",
                    "midi": 66,
                    "time": 43.09220550000011,
                    "velocity": 0.6377952755905512,
                    "duration": 0.09347549999999671
                },
                {
                    "name": "D#4",
                    "midi": 63,
                    "time": 43.18568100000011,
                    "velocity": 0.6377952755905512,
                    "duration": 0.09347549999999671
                },
                {
                    "name": "B3",
                    "midi": 59,
                    "time": 43.279156500000106,
                    "velocity": 0.6456692913385826,
                    "duration": 0.09347549999999671
                },
                {
                    "name": "F#4",
                    "midi": 66,
                    "time": 43.3726320000001,
                    "velocity": 0.7165354330708661,
                    "duration": 0.09347549999999671
                },
                {
                    "name": "D#4",
                    "midi": 63,
                    "time": 43.4661075000001,
                    "velocity": 0.6377952755905512,
                    "duration": 0.09347549999999671
                },
                {
                    "name": "B3",
                    "midi": 59,
                    "time": 43.559583000000096,
                    "velocity": 0.6299212598425197,
                    "duration": 0.09347549999999671
                },
                {
                    "name": "F#3",
                    "midi": 54,
                    "time": 43.65305850000009,
                    "velocity": 0.6299212598425197,
                    "duration": 0.09347549999999671
                },
                {
                    "name": "D#4",
                    "midi": 63,
                    "time": 43.74653400000009,
                    "velocity": 0.7007874015748031,
                    "duration": 0.09347549999999671
                },
                {
                    "name": "B3",
                    "midi": 59,
                    "time": 43.840009500000086,
                    "velocity": 0.6220472440944882,
                    "duration": 0.09347549999999671
                },
                {
                    "name": "F#3",
                    "midi": 54,
                    "time": 43.93348500000008,
                    "velocity": 0.6220472440944882,
                    "duration": 0.09347549999999671
                },
                {
                    "name": "D#3",
                    "midi": 51,
                    "time": 44.02696050000008,
                    "velocity": 0.6141732283464567,
                    "duration": 0.09347549999999671
                },
                {
                    "name": "B3",
                    "midi": 59,
                    "time": 44.120436000000076,
                    "velocity": 0.6850393700787402,
                    "duration": 0.09347549999999671
                },
                {
                    "name": "F#3",
                    "midi": 54,
                    "time": 44.21391150000007,
                    "velocity": 0.6141732283464567,
                    "duration": 0.09347549999999671
                },
                {
                    "name": "D#3",
                    "midi": 51,
                    "time": 44.30738700000007,
                    "velocity": 0.6062992125984252,
                    "duration": 0.09347549999999671
                },
                {
                    "name": "B2",
                    "midi": 47,
                    "time": 44.400862500000066,
                    "velocity": 0.6062992125984252,
                    "duration": 0.09347549999999671
                },
                {
                    "name": "B4",
                    "midi": 71,
                    "time": 45.616044000000066,
                    "velocity": 0.5905511811023622,
                    "duration": 0.09347549999999671
                },
                {
                    "name": "B3",
                    "midi": 59,
                    "time": 45.80299500000006,
                    "velocity": 0.5433070866141733,
                    "duration": 0.09347549999999671
                },
                {
                    "name": "C#5",
                    "midi": 73,
                    "time": 45.98994600000005,
                    "velocity": 0.5826771653543307,
                    "duration": 0.09347549999999671
                },
                {
                    "name": "C#4",
                    "midi": 61,
                    "time": 46.17689700000005,
                    "velocity": 0.5118110236220472,
                    "duration": 0.09347549999999671
                },
                {
                    "name": "D#5",
                    "midi": 75,
                    "time": 46.36384800000004,
                    "velocity": 0.5590551181102362,
                    "duration": 0.09347549999999671
                },
                {
                    "name": "D#4",
                    "midi": 63,
                    "time": 46.55079900000003,
                    "velocity": 0.5039370078740157,
                    "duration": 0.09347549999999671
                },
                {
                    "name": "D#5",
                    "midi": 75,
                    "time": 47.11165200000003,
                    "velocity": 0.5275590551181102,
                    "duration": 0.09347549999999671
                },
                {
                    "name": "D#4",
                    "midi": 63,
                    "time": 47.29860300000002,
                    "velocity": 0.41732283464566927,
                    "duration": 0.09347549999999671
                },
                {
                    "name": "E5",
                    "midi": 76,
                    "time": 47.485554000000015,
                    "velocity": 0.4645669291338583,
                    "duration": 0.09347549999999671
                },
                {
                    "name": "E4",
                    "midi": 64,
                    "time": 47.67250500000001,
                    "velocity": 0.3937007874015748,
                    "duration": 0.09347549999999671
                },
                {
                    "name": "F#5",
                    "midi": 78,
                    "time": 47.859456,
                    "velocity": 0.4094488188976378,
                    "duration": 0.09347549999999671
                },
                {
                    "name": "F#4",
                    "midi": 66,
                    "time": 48.046406999999995,
                    "velocity": 0.3858267716535433,
                    "duration": 0.09347549999999671
                },
                {
                    "name": "G#5",
                    "midi": 80,
                    "time": 48.23335799999999,
                    "velocity": 0.4094488188976378,
                    "duration": 0.09347549999999671
                },
                {
                    "name": "G#4",
                    "midi": 68,
                    "time": 48.42030899999998,
                    "velocity": 0.3858267716535433,
                    "duration": 0.09347549999999671
                },
                {
                    "name": "A5",
                    "midi": 81,
                    "time": 48.607259999999975,
                    "velocity": 0.4094488188976378,
                    "duration": 0.09347549999999671
                },
                {
                    "name": "A4",
                    "midi": 69,
                    "time": 48.79421099999997,
                    "velocity": 0.3779527559055118,
                    "duration": 0.09347549999999671
                },
                {
                    "name": "A5",
                    "midi": 81,
                    "time": 48.98116199999996,
                    "velocity": 0.4094488188976378,
                    "duration": 0.09347549999999671
                },
                {
                    "name": "B4",
                    "midi": 71,
                    "time": 49.168112999999956,
                    "velocity": 0.36220472440944884,
                    "duration": 0.09347549999999671
                },
                {
                    "name": "A5",
                    "midi": 81,
                    "time": 49.35506399999995,
                    "velocity": 0.4015748031496063,
                    "duration": 0.09347549999999671
                },
                {
                    "name": "C#5",
                    "midi": 73,
                    "time": 49.54201499999994,
                    "velocity": 0.36220472440944884,
                    "duration": 0.09347549999999671
                },
                {
                    "name": "A5",
                    "midi": 81,
                    "time": 49.728965999999936,
                    "velocity": 0.4015748031496063,
                    "duration": 0.09347549999999671
                },
                {
                    "name": "D#5",
                    "midi": 75,
                    "time": 49.91591699999993,
                    "velocity": 0.36220472440944884,
                    "duration": 0.09347549999999671
                },
                {
                    "name": "A5",
                    "midi": 81,
                    "time": 50.10286799999992,
                    "velocity": 0.4015748031496063,
                    "duration": 0.09347549999999671
                },
                {
                    "name": "E5",
                    "midi": 76,
                    "time": 50.289818999999916,
                    "velocity": 0.3700787401574803,
                    "duration": 0.09347549999999671
                },
                {
                    "name": "A5",
                    "midi": 81,
                    "time": 50.47676999999991,
                    "velocity": 0.3937007874015748,
                    "duration": 0.09347549999999671
                },
                {
                    "name": "F#5",
                    "midi": 78,
                    "time": 50.6637209999999,
                    "velocity": 0.36220472440944884,
                    "duration": 0.09347549999999671
                },
                {
                    "name": "B4",
                    "midi": 71,
                    "time": 50.850671999999896,
                    "velocity": 0.33070866141732286,
                    "duration": 0.7478040000000021
                },
                {
                    "name": "E5",
                    "midi": 76,
                    "time": 50.850671999999896,
                    "velocity": 0.33070866141732286,
                    "duration": 0.7478040000000021
                },
                {
                    "name": "G#5",
                    "midi": 80,
                    "time": 50.850671999999896,
                    "velocity": 0.4330708661417323,
                    "duration": 0.7478040000000021
                },
                {
                    "name": "A4",
                    "midi": 69,
                    "time": 51.5984759999999,
                    "velocity": 0.31496062992125984,
                    "duration": 0.37390200000000107
                },
                {
                    "name": "D#5",
                    "midi": 75,
                    "time": 51.5984759999999,
                    "velocity": 0.31496062992125984,
                    "duration": 0.37390200000000107
                },
                {
                    "name": "F#5",
                    "midi": 78,
                    "time": 51.5984759999999,
                    "velocity": 0.4094488188976378,
                    "duration": 0.37390200000000107
                },
                {
                    "name": "G#4",
                    "midi": 68,
                    "time": 51.9723779999999,
                    "velocity": 0.31496062992125984,
                    "duration": 0.37390200000000107
                },
                {
                    "name": "C#5",
                    "midi": 73,
                    "time": 51.9723779999999,
                    "velocity": 0.31496062992125984,
                    "duration": 0.37390200000000107
                },
                {
                    "name": "E5",
                    "midi": 76,
                    "time": 51.9723779999999,
                    "velocity": 0.4094488188976378,
                    "duration": 0.37390200000000107
                },
                {
                    "name": "F#4",
                    "midi": 66,
                    "time": 52.3462799999999,
                    "velocity": 0.33070866141732286,
                    "duration": 0.7478040000000021
                },
                {
                    "name": "C5",
                    "midi": 72,
                    "time": 52.3462799999999,
                    "velocity": 0.33070866141732286,
                    "duration": 0.7478040000000021
                },
                {
                    "name": "D#5",
                    "midi": 75,
                    "time": 52.3462799999999,
                    "velocity": 0.4330708661417323,
                    "duration": 0.7478040000000021
                },
                {
                    "name": "E4",
                    "midi": 64,
                    "time": 53.0940839999999,
                    "velocity": 0.31496062992125984,
                    "duration": 0.7478040000000021
                },
                {
                    "name": "C#5",
                    "midi": 73,
                    "time": 53.0940839999999,
                    "velocity": 0.4094488188976378,
                    "duration": 0.7478040000000021
                },
                {
                    "name": "A4",
                    "midi": 69,
                    "time": 53.841887999999905,
                    "velocity": 0.3858267716535433,
                    "duration": 0.7478040000000021
                },
                {
                    "name": "B4",
                    "midi": 71,
                    "time": 53.841887999999905,
                    "velocity": 0.3858267716535433,
                    "duration": 0.7478040000000021
                },
                {
                    "name": "D#5",
                    "midi": 75,
                    "time": 53.841887999999905,
                    "velocity": 0.49606299212598426,
                    "duration": 0.7478040000000021
                },
                {
                    "name": "B4",
                    "midi": 71,
                    "time": 54.58969199999991,
                    "velocity": 0.3937007874015748,
                    "duration": 0.37390200000000107
                },
                {
                    "name": "E5",
                    "midi": 76,
                    "time": 54.58969199999991,
                    "velocity": 0.5196850393700787,
                    "duration": 0.37390200000000107
                },
                {
                    "name": "C#5",
                    "midi": 73,
                    "time": 54.96359399999991,
                    "velocity": 0.3779527559055118,
                    "duration": 0.37390200000000107
                },
                {
                    "name": "E5",
                    "midi": 76,
                    "time": 54.96359399999991,
                    "velocity": 0.4330708661417323,
                    "duration": 0.37390200000000107
                },
                {
                    "name": "F#5",
                    "midi": 78,
                    "time": 54.96359399999991,
                    "velocity": 0.5669291338582677,
                    "duration": 0.37390200000000107
                },
                {
                    "name": "B4",
                    "midi": 71,
                    "time": 55.33749599999991,
                    "velocity": 0.4645669291338583,
                    "duration": 1.1217060000000032
                },
                {
                    "name": "E5",
                    "midi": 76,
                    "time": 55.33749599999991,
                    "velocity": 0.4645669291338583,
                    "duration": 0.7478040000000021
                },
                {
                    "name": "G#5",
                    "midi": 80,
                    "time": 55.33749599999991,
                    "velocity": 0.6062992125984252,
                    "duration": 0.7478040000000021
                },
                {
                    "name": "D#5",
                    "midi": 75,
                    "time": 56.08529999999991,
                    "velocity": 0.25196850393700787,
                    "duration": 0.7478040000000021
                },
                {
                    "name": "F#5",
                    "midi": 78,
                    "time": 56.08529999999991,
                    "velocity": 0.3858267716535433,
                    "duration": 0.7478040000000021
                },
                {
                    "name": "A4",
                    "midi": 69,
                    "time": 56.45920199999991,
                    "velocity": 0.3779527559055118,
                    "duration": 0.37390200000000107
                },
                {
                    "name": "B3",
                    "midi": 59,
                    "time": 56.83310399999991,
                    "velocity": 0.29133858267716534,
                    "duration": 0.7478040000000021
                },
                {
                    "name": "E4",
                    "midi": 64,
                    "time": 56.83310399999991,
                    "velocity": 0.29133858267716534,
                    "duration": 0.7478040000000021
                },
                {
                    "name": "G#4",
                    "midi": 68,
                    "time": 56.83310399999991,
                    "velocity": 0.3543307086614173,
                    "duration": 0.7478040000000021
                },
                {
                    "name": "A3",
                    "midi": 57,
                    "time": 57.580907999999916,
                    "velocity": 0.28346456692913385,
                    "duration": 0.37390200000000107
                },
                {
                    "name": "D#4",
                    "midi": 63,
                    "time": 57.580907999999916,
                    "velocity": 0.28346456692913385,
                    "duration": 0.37390200000000107
                },
                {
                    "name": "F#4",
                    "midi": 66,
                    "time": 57.580907999999916,
                    "velocity": 0.33858267716535434,
                    "duration": 0.37390200000000107
                },
                {
                    "name": "G#3",
                    "midi": 56,
                    "time": 57.95480999999992,
                    "velocity": 0.28346456692913385,
                    "duration": 0.37390200000000107
                },
                {
                    "name": "C#4",
                    "midi": 61,
                    "time": 57.95480999999992,
                    "velocity": 0.28346456692913385,
                    "duration": 0.37390200000000107
                },
                {
                    "name": "E4",
                    "midi": 64,
                    "time": 57.95480999999992,
                    "velocity": 0.33858267716535434,
                    "duration": 0.37390200000000107
                },
                {
                    "name": "F#3",
                    "midi": 54,
                    "time": 58.32871199999992,
                    "velocity": 0.29133858267716534,
                    "duration": 0.7478040000000021
                },
                {
                    "name": "C4",
                    "midi": 60,
                    "time": 58.32871199999992,
                    "velocity": 0.29133858267716534,
                    "duration": 0.7478040000000021
                },
                {
                    "name": "D#4",
                    "midi": 63,
                    "time": 58.32871199999992,
                    "velocity": 0.3543307086614173,
                    "duration": 0.7478040000000021
                },
                {
                    "name": "A3",
                    "midi": 57,
                    "time": 59.07651599999992,
                    "velocity": 0.28346456692913385,
                    "duration": 0.7478040000000021
                },
                {
                    "name": "E3",
                    "midi": 52,
                    "time": 59.07651599999992,
                    "velocity": 0.28346456692913385,
                    "duration": 0.7478040000000021
                },
                {
                    "name": "C#4",
                    "midi": 61,
                    "time": 59.07651599999992,
                    "velocity": 0.33858267716535434,
                    "duration": 0.7478040000000021
                },
                {
                    "name": "E3",
                    "midi": 52,
                    "time": 59.82431999999992,
                    "velocity": 0.3464566929133858,
                    "duration": 0.37390200000000107
                },
                {
                    "name": "G#3",
                    "midi": 56,
                    "time": 59.82431999999992,
                    "velocity": 0.3464566929133858,
                    "duration": 0.37390200000000107
                },
                {
                    "name": "B3",
                    "midi": 59,
                    "time": 59.82431999999992,
                    "velocity": 0.4094488188976378,
                    "duration": 0.7478040000000021
                },
                {
                    "name": "F#3",
                    "midi": 54,
                    "time": 60.19822199999992,
                    "velocity": 0.3937007874015748,
                    "duration": 1.1217060000000032
                },
                {
                    "name": "A3",
                    "midi": 57,
                    "time": 60.19822199999992,
                    "velocity": 0.3937007874015748,
                    "duration": 1.1217060000000032
                },
                {
                    "name": "C#4",
                    "midi": 61,
                    "time": 60.572123999999924,
                    "velocity": 0.48031496062992124,
                    "duration": 0.37390200000000107
                },
                {
                    "name": "D#4",
                    "midi": 63,
                    "time": 60.946025999999925,
                    "velocity": 0.5433070866141733,
                    "duration": 0.37390200000000107
                },
                {
                    "name": "G#3",
                    "midi": 56,
                    "time": 61.319927999999926,
                    "velocity": 0.33858267716535434,
                    "duration": 0.12463399999999325
                },
                {
                    "name": "E4",
                    "midi": 64,
                    "time": 61.319927999999926,
                    "velocity": 0.3858267716535433,
                    "duration": 0.09347549999999671
                },
                {
                    "name": "F#4",
                    "midi": 66,
                    "time": 61.44456199999992,
                    "velocity": 0.3779527559055118,
                    "duration": 0.09347549999999671
                },
                {
                    "name": "G#4",
                    "midi": 68,
                    "time": 61.56919599999991,
                    "velocity": 0.3858267716535433,
                    "duration": 0.09347549999999671
                },
                {
                    "name": "A4",
                    "midi": 69,
                    "time": 61.693829999999906,
                    "velocity": 0.3700787401574803,
                    "duration": 0.09347549999999671
                },
                {
                    "name": "B4",
                    "midi": 71,
                    "time": 61.8184639999999,
                    "velocity": 0.3779527559055118,
                    "duration": 0.09347549999999671
                },
                {
                    "name": "C#5",
                    "midi": 73,
                    "time": 61.94309799999989,
                    "velocity": 0.3858267716535433,
                    "duration": 0.09347549999999671
                },
                {
                    "name": "D5",
                    "midi": 74,
                    "time": 62.067731999999886,
                    "velocity": 0.3937007874015748,
                    "duration": 0.09347549999999671
                },
                {
                    "name": "D#5",
                    "midi": 75,
                    "time": 62.19236599999988,
                    "velocity": 0.4015748031496063,
                    "duration": 0.09347549999999671
                },
                {
                    "name": "E5",
                    "midi": 76,
                    "time": 62.31699999999987,
                    "velocity": 0.4094488188976378,
                    "duration": 0.09347549999999671
                },
                {
                    "name": "F5",
                    "midi": 77,
                    "time": 62.441633999999866,
                    "velocity": 0.4094488188976378,
                    "duration": 0.09347549999999671
                },
                {
                    "name": "F#5",
                    "midi": 78,
                    "time": 62.56626799999986,
                    "velocity": 0.41732283464566927,
                    "duration": 0.09347549999999671
                },
                {
                    "name": "G5",
                    "midi": 79,
                    "time": 62.69090199999985,
                    "velocity": 0.41732283464566927,
                    "duration": 0.09347549999999671
                },
                {
                    "name": "B4",
                    "midi": 71,
                    "time": 62.815535999999845,
                    "velocity": 0.3543307086614173,
                    "duration": 0.7478040000000021
                },
                {
                    "name": "G#5",
                    "midi": 80,
                    "time": 62.815535999999845,
                    "velocity": 0.44881889763779526,
                    "duration": 0.12463400000000036
                },
                {
                    "name": "G5",
                    "midi": 79,
                    "time": 62.940169999999846,
                    "velocity": 0.41732283464566927,
                    "duration": 0.12463400000000036
                },
                {
                    "name": "G#5",
                    "midi": 80,
                    "time": 63.064803999999846,
                    "velocity": 0.41732283464566927,
                    "duration": 0.12463400000000036
                },
                {
                    "name": "A5",
                    "midi": 81,
                    "time": 63.189437999999846,
                    "velocity": 0.41732283464566927,
                    "duration": 0.12463400000000036
                },
                {
                    "name": "G5",
                    "midi": 79,
                    "time": 63.31407199999985,
                    "velocity": 0.41732283464566927,
                    "duration": 0.12463400000000036
                },
                {
                    "name": "G#5",
                    "midi": 80,
                    "time": 63.43870599999985,
                    "velocity": 0.41732283464566927,
                    "duration": 0.12463400000000036
                },
                {
                    "name": "A4",
                    "midi": 69,
                    "time": 63.56333999999985,
                    "velocity": 0.47244094488188976,
                    "duration": 0.37390200000000107
                },
                {
                    "name": "G#5",
                    "midi": 80,
                    "time": 63.68797399999985,
                    "velocity": 0.4251968503937008,
                    "duration": 0.12463400000000036
                },
                {
                    "name": "F#5",
                    "midi": 78,
                    "time": 63.81260799999985,
                    "velocity": 0.4251968503937008,
                    "duration": 0.12463400000000036
                },
                {
                    "name": "G#4",
                    "midi": 68,
                    "time": 63.93724199999985,
                    "velocity": 0.47244094488188976,
                    "duration": 0.37390199999999396
                },
                {
                    "name": "F#5",
                    "midi": 78,
                    "time": 64.06187599999984,
                    "velocity": 0.41732283464566927,
                    "duration": 0.12463400000000036
                },
                {
                    "name": "E5",
                    "midi": 76,
                    "time": 64.18650999999984,
                    "velocity": 0.41732283464566927,
                    "duration": 0.12463400000000036
                },
                {
                    "name": "F#4",
                    "midi": 66,
                    "time": 64.31114399999984,
                    "velocity": 0.47244094488188976,
                    "duration": 0.7478040000000021
                },
                {
                    "name": "C5",
                    "midi": 72,
                    "time": 64.43577799999984,
                    "velocity": 0.4251968503937008,
                    "duration": 0.12463400000000036
                },
                {
                    "name": "D#5",
                    "midi": 75,
                    "time": 64.56041199999984,
                    "velocity": 0.4251968503937008,
                    "duration": 0.12463400000000036
                },
                {
                    "name": "E5",
                    "midi": 76,
                    "time": 64.68504599999984,
                    "velocity": 0.4251968503937008,
                    "duration": 0.12463400000000036
                },
                {
                    "name": "C5",
                    "midi": 72,
                    "time": 64.80967999999984,
                    "velocity": 0.4251968503937008,
                    "duration": 0.12463400000000036
                },
                {
                    "name": "D#5",
                    "midi": 75,
                    "time": 64.93431399999984,
                    "velocity": 0.4251968503937008,
                    "duration": 0.12463400000000036
                },
                {
                    "name": "E4",
                    "midi": 64,
                    "time": 65.05894799999984,
                    "velocity": 0.47244094488188976,
                    "duration": 0.7478040000000021
                },
                {
                    "name": "A4",
                    "midi": 69,
                    "time": 65.18358199999984,
                    "velocity": 0.4251968503937008,
                    "duration": 0.12463400000000036
                },
                {
                    "name": "C#5",
                    "midi": 73,
                    "time": 65.30821599999985,
                    "velocity": 0.4251968503937008,
                    "duration": 0.12463400000000036
                },
                {
                    "name": "D#5",
                    "midi": 75,
                    "time": 65.43284999999985,
                    "velocity": 0.4251968503937008,
                    "duration": 0.12463400000000036
                },
                {
                    "name": "A4",
                    "midi": 69,
                    "time": 65.55748399999985,
                    "velocity": 0.4251968503937008,
                    "duration": 0.12463400000000036
                },
                {
                    "name": "C#5",
                    "midi": 73,
                    "time": 65.68211799999985,
                    "velocity": 0.4251968503937008,
                    "duration": 0.12463400000000036
                },
                {
                    "name": "A4",
                    "midi": 69,
                    "time": 65.80675199999985,
                    "velocity": 0.4881889763779528,
                    "duration": 0.7478040000000021
                },
                {
                    "name": "D5",
                    "midi": 74,
                    "time": 65.93138599999985,
                    "velocity": 0.4881889763779528,
                    "duration": 0.12463400000000036
                },
                {
                    "name": "D#5",
                    "midi": 75,
                    "time": 66.05601999999985,
                    "velocity": 0.44881889763779526,
                    "duration": 0.12463400000000036
                },
                {
                    "name": "E5",
                    "midi": 76,
                    "time": 66.18065399999985,
                    "velocity": 0.44881889763779526,
                    "duration": 0.12463400000000036
                },
                {
                    "name": "D5",
                    "midi": 74,
                    "time": 66.30528799999985,
                    "velocity": 0.4645669291338583,
                    "duration": 0.12463400000000036
                },
                {
                    "name": "D#5",
                    "midi": 75,
                    "time": 66.42992199999985,
                    "velocity": 0.4645669291338583,
                    "duration": 0.12463400000000036
                },
                {
                    "name": "B4",
                    "midi": 71,
                    "time": 66.55455599999985,
                    "velocity": 0.5590551181102362,
                    "duration": 0.37390200000000107
                },
                {
                    "name": "F#5",
                    "midi": 78,
                    "time": 66.67918999999985,
                    "velocity": 0.49606299212598426,
                    "duration": 0.12463400000000036
                },
                {
                    "name": "E5",
                    "midi": 76,
                    "time": 66.80382399999985,
                    "velocity": 0.5039370078740157,
                    "duration": 0.12463400000000036
                },
                {
                    "name": "C#5",
                    "midi": 73,
                    "time": 66.92845799999985,
                    "velocity": 0.5826771653543307,
                    "duration": 0.37390200000000107
                },
                {
                    "name": "G#5",
                    "midi": 80,
                    "time": 67.05309199999985,
                    "velocity": 0.5118110236220472,
                    "duration": 0.12463400000000036
                },
                {
                    "name": "F#5",
                    "midi": 78,
                    "time": 67.17772599999985,
                    "velocity": 0.5118110236220472,
                    "duration": 0.12463400000000036
                },
                {
                    "name": "G#5",
                    "midi": 80,
                    "time": 67.30235999999985,
                    "velocity": 0.6220472440944882,
                    "duration": 0.12463400000000036
                },
                {
                    "name": "E5",
                    "midi": 76,
                    "time": 67.30235999999985,
                    "velocity": 0.6220472440944882,
                    "duration": 0.7478040000000021
                },
                {
                    "name": "G5",
                    "midi": 79,
                    "time": 67.42699399999985,
                    "velocity": 0.5669291338582677,
                    "duration": 0.12463400000000036
                },
                {
                    "name": "G#5",
                    "midi": 80,
                    "time": 67.55162799999985,
                    "velocity": 0.5669291338582677,
                    "duration": 0.12463400000000036
                },
                {
                    "name": "B5",
                    "midi": 83,
                    "time": 67.67626199999985,
                    "velocity": 0.5354330708661418,
                    "duration": 0.12463400000000036
                },
                {
                    "name": "A5",
                    "midi": 81,
                    "time": 67.80089599999985,
                    "velocity": 0.5669291338582677,
                    "duration": 0.12463400000000036
                },
                {
                    "name": "G#5",
                    "midi": 80,
                    "time": 67.92552999999985,
                    "velocity": 0.5433070866141733,
                    "duration": 0.12463400000000036
                },
                {
                    "name": "D#5",
                    "midi": 75,
                    "time": 68.05016399999985,
                    "velocity": 0.5275590551181102,
                    "duration": 0.12463400000000036
                },
                {
                    "name": "F#5",
                    "midi": 78,
                    "time": 68.05016399999985,
                    "velocity": 0.5275590551181102,
                    "duration": 0.12463400000000036
                },
                {
                    "name": "C#5",
                    "midi": 73,
                    "time": 68.17479799999985,
                    "velocity": 0.5039370078740157,
                    "duration": 0.12463400000000036
                },
                {
                    "name": "E5",
                    "midi": 76,
                    "time": 68.17479799999985,
                    "velocity": 0.5039370078740157,
                    "duration": 0.12463400000000036
                },
                {
                    "name": "D#5",
                    "midi": 75,
                    "time": 68.29943199999985,
                    "velocity": 0.47244094488188976,
                    "duration": 0.12463400000000036
                },
                {
                    "name": "B4",
                    "midi": 71,
                    "time": 68.29943199999985,
                    "velocity": 0.47244094488188976,
                    "duration": 0.12463400000000036
                },
                {
                    "name": "A4",
                    "midi": 69,
                    "time": 68.42406599999985,
                    "velocity": 0.47244094488188976,
                    "duration": 0.12463400000000036
                },
                {
                    "name": "C#5",
                    "midi": 73,
                    "time": 68.42406599999985,
                    "velocity": 0.47244094488188976,
                    "duration": 0.12463400000000036
                },
                {
                    "name": "G#4",
                    "midi": 68,
                    "time": 68.54869999999985,
                    "velocity": 0.4409448818897638,
                    "duration": 0.12463400000000036
                },
                {
                    "name": "B4",
                    "midi": 71,
                    "time": 68.54869999999985,
                    "velocity": 0.4409448818897638,
                    "duration": 0.12463400000000036
                },
                {
                    "name": "F#4",
                    "midi": 66,
                    "time": 68.67333399999985,
                    "velocity": 0.41732283464566927,
                    "duration": 0.12463400000000036
                },
                {
                    "name": "A4",
                    "midi": 69,
                    "time": 68.67333399999985,
                    "velocity": 0.41732283464566927,
                    "duration": 0.12463400000000036
                },
                {
                    "name": "B3",
                    "midi": 59,
                    "time": 68.79796799999986,
                    "velocity": 0.44881889763779526,
                    "duration": 0.7478040000000021
                },
                {
                    "name": "G#4",
                    "midi": 68,
                    "time": 68.79796799999986,
                    "velocity": 0.44881889763779526,
                    "duration": 0.12463400000000036
                },
                {
                    "name": "G4",
                    "midi": 67,
                    "time": 68.92260199999986,
                    "velocity": 0.3858267716535433,
                    "duration": 0.12463400000000036
                },
                {
                    "name": "G#4",
                    "midi": 68,
                    "time": 69.04723599999986,
                    "velocity": 0.3858267716535433,
                    "duration": 0.12463400000000036
                },
                {
                    "name": "A4",
                    "midi": 69,
                    "time": 69.17186999999986,
                    "velocity": 0.3858267716535433,
                    "duration": 0.12463400000000036
                },
                {
                    "name": "G4",
                    "midi": 67,
                    "time": 69.29650399999986,
                    "velocity": 0.3858267716535433,
                    "duration": 0.12463400000000036
                },
                {
                    "name": "G#4",
                    "midi": 68,
                    "time": 69.42113799999986,
                    "velocity": 0.3858267716535433,
                    "duration": 0.12463400000000036
                },
                {
                    "name": "A3",
                    "midi": 57,
                    "time": 69.54577199999986,
                    "velocity": 0.4409448818897638,
                    "duration": 0.37390200000000107
                },
                {
                    "name": "G#4",
                    "midi": 68,
                    "time": 69.67040599999986,
                    "velocity": 0.3937007874015748,
                    "duration": 0.12463400000000036
                },
                {
                    "name": "F#4",
                    "midi": 66,
                    "time": 69.79503999999986,
                    "velocity": 0.3937007874015748,
                    "duration": 0.12463400000000036
                },
                {
                    "name": "G#3",
                    "midi": 56,
                    "time": 69.91967399999986,
                    "velocity": 0.4409448818897638,
                    "duration": 0.37390200000000107
                },
                {
                    "name": "F#4",
                    "midi": 66,
                    "time": 70.04430799999986,
                    "velocity": 0.3858267716535433,
                    "duration": 0.12463400000000036
                },
                {
                    "name": "E4",
                    "midi": 64,
                    "time": 70.16894199999986,
                    "velocity": 0.3858267716535433,
                    "duration": 0.12463400000000036
                },
                {
                    "name": "C4",
                    "midi": 60,
                    "time": 70.41820999999986,
                    "velocity": 0.3937007874015748,
                    "duration": 0.12463400000000036
                },
                {
                    "name": "D#4",
                    "midi": 63,
                    "time": 70.54284399999986,
                    "velocity": 0.3937007874015748,
                    "duration": 0.12463400000000036
                },
                {
                    "name": "E4",
                    "midi": 64,
                    "time": 70.66747799999986,
                    "velocity": 0.41732283464566927,
                    "duration": 0.12463400000000036
                },
                {
                    "name": "C4",
                    "midi": 60,
                    "time": 70.79211199999986,
                    "velocity": 0.3937007874015748,
                    "duration": 0.12463400000000036
                },
                {
                    "name": "D#4",
                    "midi": 63,
                    "time": 70.91674599999986,
                    "velocity": 0.3937007874015748,
                    "duration": 0.12463400000000036
                },
                {
                    "name": "A3",
                    "midi": 57,
                    "time": 71.16601399999986,
                    "velocity": 0.3937007874015748,
                    "duration": 0.12463400000000036
                },
                {
                    "name": "C#4",
                    "midi": 61,
                    "time": 71.29064799999986,
                    "velocity": 0.3937007874015748,
                    "duration": 0.12463400000000036
                },
                {
                    "name": "D#4",
                    "midi": 63,
                    "time": 71.41528199999986,
                    "velocity": 0.41732283464566927,
                    "duration": 0.12463400000000036
                },
                {
                    "name": "A3",
                    "midi": 57,
                    "time": 71.53991599999986,
                    "velocity": 0.3937007874015748,
                    "duration": 0.12463400000000036
                },
                {
                    "name": "C#4",
                    "midi": 61,
                    "time": 71.66454999999986,
                    "velocity": 0.3937007874015748,
                    "duration": 0.12463400000000036
                },
                {
                    "name": "E3",
                    "midi": 52,
                    "time": 71.78918399999986,
                    "velocity": 0.47244094488188976,
                    "duration": 0.37390200000000107
                },
                {
                    "name": "G#3",
                    "midi": 56,
                    "time": 71.91381799999986,
                    "velocity": 0.4409448818897638,
                    "duration": 0.12463400000000036
                },
                {
                    "name": "B3",
                    "midi": 59,
                    "time": 72.03845199999986,
                    "velocity": 0.44881889763779526,
                    "duration": 0.12463400000000036
                },
                {
                    "name": "F#3",
                    "midi": 54,
                    "time": 72.16308599999986,
                    "velocity": 0.5196850393700787,
                    "duration": 0.37390200000000107
                },
                {
                    "name": "A3",
                    "midi": 57,
                    "time": 72.28771999999987,
                    "velocity": 0.48031496062992124,
                    "duration": 0.12463400000000036
                },
                {
                    "name": "B3",
                    "midi": 59,
                    "time": 72.41235399999987,
                    "velocity": 0.48031496062992124,
                    "duration": 0.12463400000000036
                },
                {
                    "name": "F#3",
                    "midi": 54,
                    "time": 72.53698799999987,
                    "velocity": 0.5826771653543307,
                    "duration": 0.37390200000000107
                },
                {
                    "name": "A3",
                    "midi": 57,
                    "time": 72.66162199999987,
                    "velocity": 0.5275590551181102,
                    "duration": 0.12463400000000036
                },
                {
                    "name": "C#4",
                    "midi": 61,
                    "time": 72.78625599999987,
                    "velocity": 0.5118110236220472,
                    "duration": 0.12463400000000036
                },
                {
                    "name": "F#3",
                    "midi": 54,
                    "time": 72.91088999999987,
                    "velocity": 0.6299212598425197,
                    "duration": 0.37390200000000107
                },
                {
                    "name": "A3",
                    "midi": 57,
                    "time": 73.03552399999987,
                    "velocity": 0.5590551181102362,
                    "duration": 0.12463400000000036
                },
                {
                    "name": "D#4",
                    "midi": 63,
                    "time": 73.16015799999987,
                    "velocity": 0.5511811023622047,
                    "duration": 0.12463400000000036
                },
                {
                    "name": "G#3",
                    "midi": 56,
                    "time": 73.28479199999987,
                    "velocity": 0.6062992125984252,
                    "duration": 0.12463400000000036
                },
                {
                    "name": "E4",
                    "midi": 64,
                    "time": 73.28479199999987,
                    "velocity": 0.6456692913385826,
                    "duration": 0.12463400000000036
                },
                {
                    "name": "B3",
                    "midi": 59,
                    "time": 73.40942599999987,
                    "velocity": 0.5905511811023622,
                    "duration": 0.12463400000000036
                },
                {
                    "name": "G#3",
                    "midi": 56,
                    "time": 73.53405999999987,
                    "velocity": 0.6062992125984252,
                    "duration": 0.12463400000000036
                },
                {
                    "name": "B3",
                    "midi": 59,
                    "time": 73.65869399999987,
                    "velocity": 0.6456692913385826,
                    "duration": 0.12463400000000036
                },
                {
                    "name": "E4",
                    "midi": 64,
                    "time": 73.78332799999987,
                    "velocity": 0.6062992125984252,
                    "duration": 0.12463400000000036
                },
                {
                    "name": "G#4",
                    "midi": 68,
                    "time": 73.90796199999987,
                    "velocity": 0.6062992125984252,
                    "duration": 0.12463400000000036
                },
                {
                    "name": "F#4",
                    "midi": 66,
                    "time": 74.03259599999987,
                    "velocity": 0.6456692913385826,
                    "duration": 0.12463400000000036
                },
                {
                    "name": "D#4",
                    "midi": 63,
                    "time": 74.15722999999987,
                    "velocity": 0.6062992125984252,
                    "duration": 0.12463400000000036
                },
                {
                    "name": "B3",
                    "midi": 59,
                    "time": 74.28186399999987,
                    "velocity": 0.6062992125984252,
                    "duration": 0.12463400000000036
                },
                {
                    "name": "D#4",
                    "midi": 63,
                    "time": 74.40649799999987,
                    "velocity": 0.6456692913385826,
                    "duration": 0.12463400000000036
                },
                {
                    "name": "F#4",
                    "midi": 66,
                    "time": 74.53113199999987,
                    "velocity": 0.6062992125984252,
                    "duration": 0.12463400000000036
                },
                {
                    "name": "A4",
                    "midi": 69,
                    "time": 74.65576599999987,
                    "velocity": 0.6062992125984252,
                    "duration": 0.12463400000000036
                },
                {
                    "name": "G#4",
                    "midi": 68,
                    "time": 74.78039999999987,
                    "velocity": 0.6456692913385826,
                    "duration": 0.12463400000000036
                },
                {
                    "name": "E4",
                    "midi": 64,
                    "time": 74.90503399999987,
                    "velocity": 0.5905511811023622,
                    "duration": 0.12463400000000036
                },
                {
                    "name": "B3",
                    "midi": 59,
                    "time": 75.02966799999987,
                    "velocity": 0.6062992125984252,
                    "duration": 0.12463400000000036
                },
                {
                    "name": "E4",
                    "midi": 64,
                    "time": 75.15430199999987,
                    "velocity": 0.6456692913385826,
                    "duration": 0.12463400000000036
                },
                {
                    "name": "G#4",
                    "midi": 68,
                    "time": 75.27893599999987,
                    "velocity": 0.6062992125984252,
                    "duration": 0.12463400000000036
                },
                {
                    "name": "B4",
                    "midi": 71,
                    "time": 75.40356999999987,
                    "velocity": 0.6062992125984252,
                    "duration": 0.12463400000000036
                },
                {
                    "name": "A4",
                    "midi": 69,
                    "time": 75.52820399999987,
                    "velocity": 0.6456692913385826,
                    "duration": 0.12463400000000036
                },
                {
                    "name": "F#4",
                    "midi": 66,
                    "time": 75.65283799999987,
                    "velocity": 0.6062992125984252,
                    "duration": 0.12463400000000036
                },
                {
                    "name": "D#4",
                    "midi": 63,
                    "time": 75.77747199999988,
                    "velocity": 0.6062992125984252,
                    "duration": 0.12463400000000036
                },
                {
                    "name": "D#5",
                    "midi": 75,
                    "time": 75.90210599999988,
                    "velocity": 0.6456692913385826,
                    "duration": 0.12463400000000036
                },
                {
                    "name": "A4",
                    "midi": 69,
                    "time": 76.02673999999988,
                    "velocity": 0.6062992125984252,
                    "duration": 0.12463400000000036
                },
                {
                    "name": "F#4",
                    "midi": 66,
                    "time": 76.15137399999988,
                    "velocity": 0.6062992125984252,
                    "duration": 0.12463400000000036
                },
                {
                    "name": "G#4",
                    "midi": 68,
                    "time": 76.27600799999988,
                    "velocity": 0.49606299212598426,
                    "duration": 0.37390200000000107
                },
                {
                    "name": "E5",
                    "midi": 76,
                    "time": 76.27600799999988,
                    "velocity": 0.5905511811023622,
                    "duration": 0.37390200000000107
                },
                {
                    "name": "B4",
                    "midi": 71,
                    "time": 76.64990999999988,
                    "velocity": 0.6299212598425197,
                    "duration": 0.7478040000000021
                },
                {
                    "name": "B4",
                    "midi": 71,
                    "time": 77.39771399999988,
                    "velocity": 0.6299212598425197,
                    "duration": 0.7478040000000021
                },
                {
                    "name": "B4",
                    "midi": 71,
                    "time": 78.14551799999988,
                    "velocity": 0.6299212598425197,
                    "duration": 0.7478040000000021
                },
                {
                    "name": "B4",
                    "midi": 71,
                    "time": 78.89332199999988,
                    "velocity": 0.6299212598425197,
                    "duration": 0.37390200000000107
                },
                {
                    "name": "E5",
                    "midi": 76,
                    "time": 79.26722399999989,
                    "velocity": 0.6456692913385826,
                    "duration": 0.12463400000000036
                },
                {
                    "name": "B4",
                    "midi": 71,
                    "time": 79.39185799999989,
                    "velocity": 0.5905511811023622,
                    "duration": 0.12463400000000036
                },
                {
                    "name": "G#4",
                    "midi": 68,
                    "time": 79.51649199999989,
                    "velocity": 0.6062992125984252,
                    "duration": 0.12463400000000036
                },
                {
                    "name": "B4",
                    "midi": 71,
                    "time": 79.64112599999989,
                    "velocity": 0.6456692913385826,
                    "duration": 0.12463400000000036
                },
                {
                    "name": "E5",
                    "midi": 76,
                    "time": 79.76575999999989,
                    "velocity": 0.6062992125984252,
                    "duration": 0.12463400000000036
                },
                {
                    "name": "G#5",
                    "midi": 80,
                    "time": 79.89039399999989,
                    "velocity": 0.6062992125984252,
                    "duration": 0.12463400000000036
                },
                {
                    "name": "F#5",
                    "midi": 78,
                    "time": 80.01502799999989,
                    "velocity": 0.6456692913385826,
                    "duration": 0.12463400000000036
                },
                {
                    "name": "D#5",
                    "midi": 75,
                    "time": 80.13966199999989,
                    "velocity": 0.6062992125984252,
                    "duration": 0.12463400000000036
                },
                {
                    "name": "B4",
                    "midi": 71,
                    "time": 80.26429599999989,
                    "velocity": 0.6062992125984252,
                    "duration": 0.12463400000000036
                },
                {
                    "name": "D#5",
                    "midi": 75,
                    "time": 80.38892999999989,
                    "velocity": 0.6456692913385826,
                    "duration": 0.12463400000000036
                },
                {
                    "name": "F#5",
                    "midi": 78,
                    "time": 80.51356399999989,
                    "velocity": 0.6062992125984252,
                    "duration": 0.12463400000000036
                },
                {
                    "name": "A5",
                    "midi": 81,
                    "time": 80.63819799999989,
                    "velocity": 0.6062992125984252,
                    "duration": 0.12463400000000036
                },
                {
                    "name": "G#5",
                    "midi": 80,
                    "time": 80.76283199999989,
                    "velocity": 0.6456692913385826,
                    "duration": 0.12463400000000036
                },
                {
                    "name": "E5",
                    "midi": 76,
                    "time": 80.88746599999989,
                    "velocity": 0.5905511811023622,
                    "duration": 0.12463400000000036
                },
                {
                    "name": "B4",
                    "midi": 71,
                    "time": 81.01209999999989,
                    "velocity": 0.6062992125984252,
                    "duration": 0.12463400000000036
                },
                {
                    "name": "E5",
                    "midi": 76,
                    "time": 81.13673399999989,
                    "velocity": 0.6456692913385826,
                    "duration": 0.12463400000000036
                },
                {
                    "name": "G#5",
                    "midi": 80,
                    "time": 81.26136799999989,
                    "velocity": 0.6062992125984252,
                    "duration": 0.12463400000000036
                },
                {
                    "name": "B5",
                    "midi": 83,
                    "time": 81.38600199999989,
                    "velocity": 0.6062992125984252,
                    "duration": 0.12463400000000036
                },
                {
                    "name": "A5",
                    "midi": 81,
                    "time": 81.51063599999989,
                    "velocity": 0.6456692913385826,
                    "duration": 0.12463400000000036
                },
                {
                    "name": "F#5",
                    "midi": 78,
                    "time": 81.63526999999989,
                    "velocity": 0.6062992125984252,
                    "duration": 0.12463400000000036
                },
                {
                    "name": "D#5",
                    "midi": 75,
                    "time": 81.75990399999989,
                    "velocity": 0.6062992125984252,
                    "duration": 0.12463400000000036
                },
                {
                    "name": "D#6",
                    "midi": 87,
                    "time": 81.88453799999989,
                    "velocity": 0.6456692913385826,
                    "duration": 0.12463400000000036
                },
                {
                    "name": "A5",
                    "midi": 81,
                    "time": 82.0091719999999,
                    "velocity": 0.6062992125984252,
                    "duration": 0.12463400000000036
                },
                {
                    "name": "F#5",
                    "midi": 78,
                    "time": 82.1338059999999,
                    "velocity": 0.6062992125984252,
                    "duration": 0.12463400000000036
                },
                {
                    "name": "E6",
                    "midi": 88,
                    "time": 82.2584399999999,
                    "velocity": 0.6614173228346457,
                    "duration": 0.18695099999999343
                },
                {
                    "name": "B5",
                    "midi": 83,
                    "time": 82.3830739999999,
                    "velocity": 0.5826771653543307,
                    "duration": 0.12463399999998614
                },
                {
                    "name": "G#5",
                    "midi": 80,
                    "time": 82.50770799999988,
                    "velocity": 0.5826771653543307,
                    "duration": 0.12463400000000036
                },
                {
                    "name": "B5",
                    "midi": 83,
                    "time": 82.63234199999988,
                    "velocity": 0.6220472440944882,
                    "duration": 0.18695099999999343
                },
                {
                    "name": "G#5",
                    "midi": 80,
                    "time": 82.75697599999988,
                    "velocity": 0.5748031496062992,
                    "duration": 0.12463399999998614
                },
                {
                    "name": "E5",
                    "midi": 76,
                    "time": 82.88160999999987,
                    "velocity": 0.5669291338582677,
                    "duration": 0.12463400000000036
                },
                {
                    "name": "A5",
                    "midi": 81,
                    "time": 83.00624399999987,
                    "velocity": 0.6141732283464567,
                    "duration": 0.18695099999999343
                },
                {
                    "name": "F#5",
                    "midi": 78,
                    "time": 83.13087799999987,
                    "velocity": 0.5590551181102362,
                    "duration": 0.12463399999998614
                },
                {
                    "name": "D#5",
                    "midi": 75,
                    "time": 83.25551199999985,
                    "velocity": 0.5511811023622047,
                    "duration": 0.12463400000000036
                },
                {
                    "name": "D#6",
                    "midi": 87,
                    "time": 83.38014599999985,
                    "velocity": 0.6062992125984252,
                    "duration": 0.18695099999999343
                },
                {
                    "name": "B5",
                    "midi": 83,
                    "time": 83.50477999999985,
                    "velocity": 0.5433070866141733,
                    "duration": 0.12463399999998614
                },
                {
                    "name": "F#5",
                    "midi": 78,
                    "time": 83.62941399999984,
                    "velocity": 0.5275590551181102,
                    "duration": 0.12463400000000036
                },
                {
                    "name": "E6",
                    "midi": 88,
                    "time": 83.75404799999984,
                    "velocity": 0.5826771653543307,
                    "duration": 0.18695099999999343
                },
                {
                    "name": "B5",
                    "midi": 83,
                    "time": 83.87868199999984,
                    "velocity": 0.5118110236220472,
                    "duration": 0.12463399999998614
                },
                {
                    "name": "G#5",
                    "midi": 80,
                    "time": 84.00331599999983,
                    "velocity": 0.5118110236220472,
                    "duration": 0.12463400000000036
                },
                {
                    "name": "B5",
                    "midi": 83,
                    "time": 84.12794999999983,
                    "velocity": 0.5669291338582677,
                    "duration": 0.18695099999999343
                },
                {
                    "name": "G#5",
                    "midi": 80,
                    "time": 84.25258399999983,
                    "velocity": 0.5039370078740157,
                    "duration": 0.12463399999998614
                },
                {
                    "name": "E5",
                    "midi": 76,
                    "time": 84.37721799999981,
                    "velocity": 0.49606299212598426,
                    "duration": 0.12463400000000036
                },
                {
                    "name": "A5",
                    "midi": 81,
                    "time": 84.50185199999981,
                    "velocity": 0.5433070866141733,
                    "duration": 0.18695099999999343
                },
                {
                    "name": "F#5",
                    "midi": 78,
                    "time": 84.62648599999982,
                    "velocity": 0.4881889763779528,
                    "duration": 0.12463399999998614
                },
                {
                    "name": "D#5",
                    "midi": 75,
                    "time": 84.7511199999998,
                    "velocity": 0.47244094488188976,
                    "duration": 0.12463400000000036
                },
                {
                    "name": "D#6",
                    "midi": 87,
                    "time": 84.8757539999998,
                    "velocity": 0.5354330708661418,
                    "duration": 0.18695099999999343
                },
                {
                    "name": "B5",
                    "midi": 83,
                    "time": 85.0003879999998,
                    "velocity": 0.4645669291338583,
                    "duration": 0.12463399999998614
                },
                {
                    "name": "F#5",
                    "midi": 78,
                    "time": 85.12502199999979,
                    "velocity": 0.4566929133858268,
                    "duration": 0.12463400000000036
                },
                {
                    "name": "E6",
                    "midi": 88,
                    "time": 85.24965599999979,
                    "velocity": 0.5039370078740157,
                    "duration": 0.09347549999999671
                },
                {
                    "name": "B5",
                    "midi": 83,
                    "time": 85.34313149999979,
                    "velocity": 0.4566929133858268,
                    "duration": 0.09347549999999671
                },
                {
                    "name": "G#5",
                    "midi": 80,
                    "time": 85.43660699999978,
                    "velocity": 0.4566929133858268,
                    "duration": 0.09347549999999671
                },
                {
                    "name": "E5",
                    "midi": 76,
                    "time": 85.53008249999978,
                    "velocity": 0.4645669291338583,
                    "duration": 0.09347549999999671
                },
                {
                    "name": "A5",
                    "midi": 81,
                    "time": 85.62355799999978,
                    "velocity": 0.5118110236220472,
                    "duration": 0.09347549999999671
                },
                {
                    "name": "F#5",
                    "midi": 78,
                    "time": 85.71703349999977,
                    "velocity": 0.4645669291338583,
                    "duration": 0.09347549999999671
                },
                {
                    "name": "D#6",
                    "midi": 87,
                    "time": 85.81050899999977,
                    "velocity": 0.4881889763779528,
                    "duration": 0.09347549999999671
                },
                {
                    "name": "B5",
                    "midi": 83,
                    "time": 85.90398449999977,
                    "velocity": 0.49606299212598426,
                    "duration": 0.09347549999999671
                },
                {
                    "name": "E6",
                    "midi": 88,
                    "time": 85.99745999999976,
                    "velocity": 0.5433070866141733,
                    "duration": 0.09347549999999671
                },
                {
                    "name": "B5",
                    "midi": 83,
                    "time": 86.09093549999976,
                    "velocity": 0.49606299212598426,
                    "duration": 0.09347549999999671
                },
                {
                    "name": "G#5",
                    "midi": 80,
                    "time": 86.18441099999976,
                    "velocity": 0.49606299212598426,
                    "duration": 0.09347549999999671
                },
                {
                    "name": "E5",
                    "midi": 76,
                    "time": 86.27788649999975,
                    "velocity": 0.5039370078740157,
                    "duration": 0.09347549999999671
                },
                {
                    "name": "A5",
                    "midi": 81,
                    "time": 86.37136199999975,
                    "velocity": 0.5590551181102362,
                    "duration": 0.09347549999999671
                },
                {
                    "name": "F#5",
                    "midi": 78,
                    "time": 86.46483749999975,
                    "velocity": 0.5196850393700787,
                    "duration": 0.09347549999999671
                },
                {
                    "name": "D#6",
                    "midi": 87,
                    "time": 86.55831299999974,
                    "velocity": 0.5275590551181102,
                    "duration": 0.09347549999999671
                },
                {
                    "name": "B5",
                    "midi": 83,
                    "time": 86.65178849999974,
                    "velocity": 0.5275590551181102,
                    "duration": 0.09347549999999671
                },
                {
                    "name": "E6",
                    "midi": 88,
                    "time": 86.74526399999974,
                    "velocity": 0.5826771653543307,
                    "duration": 0.09347549999999671
                },
                {
                    "name": "B5",
                    "midi": 83,
                    "time": 86.83873949999973,
                    "velocity": 0.5275590551181102,
                    "duration": 0.09347549999999671
                },
                {
                    "name": "D#6",
                    "midi": 87,
                    "time": 86.93221499999973,
                    "velocity": 0.5433070866141733,
                    "duration": 0.09347549999999671
                },
                {
                    "name": "B5",
                    "midi": 83,
                    "time": 87.02569049999973,
                    "velocity": 0.5433070866141733,
                    "duration": 0.09347549999999671
                },
                {
                    "name": "E6",
                    "midi": 88,
                    "time": 87.11916599999972,
                    "velocity": 0.6062992125984252,
                    "duration": 0.09347549999999671
                },
                {
                    "name": "B5",
                    "midi": 83,
                    "time": 87.21264149999972,
                    "velocity": 0.6062992125984252,
                    "duration": 0.09347549999999671
                },
                {
                    "name": "D#6",
                    "midi": 87,
                    "time": 87.30611699999972,
                    "velocity": 0.5669291338582677,
                    "duration": 0.09347549999999671
                },
                {
                    "name": "B5",
                    "midi": 83,
                    "time": 87.39959249999971,
                    "velocity": 0.5748031496062992,
                    "duration": 0.09347549999999671
                },
                {
                    "name": "E6",
                    "midi": 88,
                    "time": 87.49306799999971,
                    "velocity": 0.6299212598425197,
                    "duration": 0.09347549999999671
                },
                {
                    "name": "B5",
                    "midi": 83,
                    "time": 87.5865434999997,
                    "velocity": 0.5748031496062992,
                    "duration": 0.09347549999999671
                },
                {
                    "name": "D#6",
                    "midi": 87,
                    "time": 87.6800189999997,
                    "velocity": 0.5826771653543307,
                    "duration": 0.09347549999999671
                },
                {
                    "name": "B5",
                    "midi": 83,
                    "time": 87.7734944999997,
                    "velocity": 0.5826771653543307,
                    "duration": 0.09347549999999671
                },
                {
                    "name": "E6",
                    "midi": 88,
                    "time": 87.8669699999997,
                    "velocity": 0.6456692913385826,
                    "duration": 0.09347549999999671
                },
                {
                    "name": "B5",
                    "midi": 83,
                    "time": 87.9604454999997,
                    "velocity": 0.6692913385826772,
                    "duration": 0.09347549999999671
                },
                {
                    "name": "D#6",
                    "midi": 87,
                    "time": 88.05392099999969,
                    "velocity": 0.6141732283464567,
                    "duration": 0.09347549999999671
                },
                {
                    "name": "B5",
                    "midi": 83,
                    "time": 88.14739649999969,
                    "velocity": 0.6220472440944882,
                    "duration": 0.09347549999999671
                },
                {
                    "name": "E6",
                    "midi": 88,
                    "time": 88.24087199999968,
                    "velocity": 0.7007874015748031,
                    "duration": 0.09347549999999671
                },
                {
                    "name": "B5",
                    "midi": 83,
                    "time": 88.33434749999968,
                    "velocity": 0.6377952755905512,
                    "duration": 0.09347549999999671
                },
                {
                    "name": "D6",
                    "midi": 86,
                    "time": 88.42782299999968,
                    "velocity": 0.6377952755905512,
                    "duration": 0.09347549999999671
                },
                {
                    "name": "B5",
                    "midi": 83,
                    "time": 88.52129849999967,
                    "velocity": 0.6377952755905512,
                    "duration": 0.09347549999999671
                },
                {
                    "name": "D6",
                    "midi": 86,
                    "time": 88.61477399999967,
                    "velocity": 0.7007874015748031,
                    "duration": 0.09347549999999671
                },
                {
                    "name": "B5",
                    "midi": 83,
                    "time": 88.70824949999967,
                    "velocity": 0.6535433070866141,
                    "duration": 0.09347549999999671
                },
                {
                    "name": "D6",
                    "midi": 86,
                    "time": 88.80172499999966,
                    "velocity": 0.6456692913385826,
                    "duration": 0.09347549999999671
                },
                {
                    "name": "B5",
                    "midi": 83,
                    "time": 88.89520049999966,
                    "velocity": 0.6456692913385826,
                    "duration": 0.09347549999999671
                },
                {
                    "name": "D6",
                    "midi": 86,
                    "time": 88.98867599999966,
                    "velocity": 0.7007874015748031,
                    "duration": 0.09347549999999671
                },
                {
                    "name": "B5",
                    "midi": 83,
                    "time": 89.08215149999965,
                    "velocity": 0.6377952755905512,
                    "duration": 0.09347549999999671
                },
                {
                    "name": "D6",
                    "midi": 86,
                    "time": 89.17562699999965,
                    "velocity": 0.6377952755905512,
                    "duration": 0.09347549999999671
                },
                {
                    "name": "B5",
                    "midi": 83,
                    "time": 89.26910249999965,
                    "velocity": 0.6377952755905512,
                    "duration": 0.09347549999999671
                },
                {
                    "name": "D6",
                    "midi": 86,
                    "time": 89.36257799999964,
                    "velocity": 0.7007874015748031,
                    "duration": 0.09347549999999671
                },
                {
                    "name": "B5",
                    "midi": 83,
                    "time": 89.45605349999964,
                    "velocity": 0.6535433070866141,
                    "duration": 0.09347549999999671
                },
                {
                    "name": "D6",
                    "midi": 86,
                    "time": 89.54952899999964,
                    "velocity": 0.6456692913385826,
                    "duration": 0.09347549999999671
                },
                {
                    "name": "B5",
                    "midi": 83,
                    "time": 89.64300449999963,
                    "velocity": 0.6456692913385826,
                    "duration": 0.09347549999999671
                },
                {
                    "name": "D6",
                    "midi": 86,
                    "time": 89.73647999999963,
                    "velocity": 0.7007874015748031,
                    "duration": 0.18695099999999343
                },
                {
                    "name": "C#6",
                    "midi": 85,
                    "time": 89.92343099999962,
                    "velocity": 0.6377952755905512,
                    "duration": 0.09347549999999671
                },
                {
                    "name": "B5",
                    "midi": 83,
                    "time": 90.01690649999962,
                    "velocity": 0.6377952755905512,
                    "duration": 0.09347549999999671
                },
                {
                    "name": "A5",
                    "midi": 81,
                    "time": 90.11038199999962,
                    "velocity": 0.6929133858267716,
                    "duration": 0.09347549999999671
                },
                {
                    "name": "G#5",
                    "midi": 80,
                    "time": 90.20385749999961,
                    "velocity": 0.6535433070866141,
                    "duration": 0.09347549999999671
                },
                {
                    "name": "F#5",
                    "midi": 78,
                    "time": 90.29733299999961,
                    "velocity": 0.6535433070866141,
                    "duration": 0.09347549999999671
                },
                {
                    "name": "E5",
                    "midi": 76,
                    "time": 90.39080849999961,
                    "velocity": 0.6535433070866141,
                    "duration": 0.09347549999999671
                },
                {
                    "name": "D5",
                    "midi": 74,
                    "time": 90.4842839999996,
                    "velocity": 0.6929133858267716,
                    "duration": 0.09347549999999671
                },
                {
                    "name": "C#5",
                    "midi": 73,
                    "time": 90.5777594999996,
                    "velocity": 0.6456692913385826,
                    "duration": 0.09347549999999671
                },
                {
                    "name": "B4",
                    "midi": 71,
                    "time": 90.6712349999996,
                    "velocity": 0.6535433070866141,
                    "duration": 0.09347549999999671
                },
                {
                    "name": "A4",
                    "midi": 69,
                    "time": 90.7647104999996,
                    "velocity": 0.6535433070866141,
                    "duration": 0.09347549999999671
                },
                {
                    "name": "G#4",
                    "midi": 68,
                    "time": 90.85818599999959,
                    "velocity": 0.7165354330708661,
                    "duration": 0.09347549999999671
                },
                {
                    "name": "F#4",
                    "midi": 66,
                    "time": 90.95166149999959,
                    "velocity": 0.6771653543307087,
                    "duration": 0.09347549999999671
                },
                {
                    "name": "E4",
                    "midi": 64,
                    "time": 91.04513699999958,
                    "velocity": 0.6692913385826772,
                    "duration": 0.09347549999999671
                },
                {
                    "name": "D4",
                    "midi": 62,
                    "time": 91.13861249999958,
                    "velocity": 0.6692913385826772,
                    "duration": 0.09347549999999671
                },
                {
                    "name": "C#4",
                    "midi": 61,
                    "time": 91.23208799999958,
                    "velocity": 0.7322834645669292,
                    "duration": 0.09347549999999671
                },
                {
                    "name": "D#4",
                    "midi": 63,
                    "time": 91.32556349999957,
                    "velocity": 0.6614173228346457,
                    "duration": 0.09347549999999671
                },
                {
                    "name": "E4",
                    "midi": 64,
                    "time": 91.41903899999957,
                    "velocity": 0.6614173228346457,
                    "duration": 0.09347549999999671
                },
                {
                    "name": "D#4",
                    "midi": 63,
                    "time": 91.51251449999957,
                    "velocity": 0.6771653543307087,
                    "duration": 0.09347549999999671
                },
                {
                    "name": "E4",
                    "midi": 64,
                    "time": 91.60598999999957,
                    "velocity": 0.7244094488188977,
                    "duration": 0.09347549999999671
                },
                {
                    "name": "G#4",
                    "midi": 68,
                    "time": 91.69946549999956,
                    "velocity": 0.6692913385826772,
                    "duration": 0.09347549999999671
                },
                {
                    "name": "A4",
                    "midi": 69,
                    "time": 91.79294099999956,
                    "velocity": 0.6692913385826772,
                    "duration": 0.09347549999999671
                },
                {
                    "name": "G#4",
                    "midi": 68,
                    "time": 91.88641649999956,
                    "velocity": 0.6692913385826772,
                    "duration": 0.09347549999999671
                },
                {
                    "name": "A4",
                    "midi": 69,
                    "time": 91.97989199999955,
                    "velocity": 0.7322834645669292,
                    "duration": 0.09347549999999671
                },
                {
                    "name": "C5",
                    "midi": 72,
                    "time": 92.07336749999955,
                    "velocity": 0.6614173228346457,
                    "duration": 0.09347549999999671
                },
                {
                    "name": "C#5",
                    "midi": 73,
                    "time": 92.16684299999955,
                    "velocity": 0.6614173228346457,
                    "duration": 0.09347549999999671
                },
                {
                    "name": "C5",
                    "midi": 72,
                    "time": 92.26031849999954,
                    "velocity": 0.6614173228346457,
                    "duration": 0.09347549999999671
                },
                {
                    "name": "C#5",
                    "midi": 73,
                    "time": 92.35379399999954,
                    "velocity": 0.7322834645669292,
                    "duration": 0.09347549999999671
                },
                {
                    "name": "D#5",
                    "midi": 75,
                    "time": 92.44726949999954,
                    "velocity": 0.6614173228346457,
                    "duration": 0.09347549999999671
                },
                {
                    "name": "E5",
                    "midi": 76,
                    "time": 92.54074499999953,
                    "velocity": 0.6614173228346457,
                    "duration": 0.09347549999999671
                },
                {
                    "name": "D#5",
                    "midi": 75,
                    "time": 92.63422049999953,
                    "velocity": 0.6614173228346457,
                    "duration": 0.09347549999999671
                },
                {
                    "name": "E5",
                    "midi": 76,
                    "time": 92.72769599999953,
                    "velocity": 0.7480314960629921,
                    "duration": 0.09347549999999671
                },
                {
                    "name": "G#5",
                    "midi": 80,
                    "time": 92.82117149999952,
                    "velocity": 0.6771653543307087,
                    "duration": 0.09347549999999671
                },
                {
                    "name": "A5",
                    "midi": 81,
                    "time": 92.91464699999952,
                    "velocity": 0.6771653543307087,
                    "duration": 0.09347549999999671
                },
                {
                    "name": "G#5",
                    "midi": 80,
                    "time": 93.00812249999952,
                    "velocity": 0.6771653543307087,
                    "duration": 0.09347549999999671
                },
                {
                    "name": "A5",
                    "midi": 81,
                    "time": 93.10159799999951,
                    "velocity": 0.7480314960629921,
                    "duration": 0.09347549999999671
                },
                {
                    "name": "C6",
                    "midi": 84,
                    "time": 93.19507349999951,
                    "velocity": 0.6771653543307087,
                    "duration": 0.09347549999999671
                },
                {
                    "name": "C#6",
                    "midi": 85,
                    "time": 93.2885489999995,
                    "velocity": 0.6771653543307087,
                    "duration": 0.09347549999999671
                },
                {
                    "name": "C6",
                    "midi": 84,
                    "time": 93.3820244999995,
                    "velocity": 0.6771653543307087,
                    "duration": 0.09347549999999671
                },
                {
                    "name": "C#6",
                    "midi": 85,
                    "time": 93.4754999999995,
                    "velocity": 0.7480314960629921,
                    "duration": 0.09347549999999671
                },
                {
                    "name": "D#6",
                    "midi": 87,
                    "time": 93.5689754999995,
                    "velocity": 0.6771653543307087,
                    "duration": 0.09347549999999671
                },
                {
                    "name": "E6",
                    "midi": 88,
                    "time": 93.66245099999949,
                    "velocity": 0.6771653543307087,
                    "duration": 0.09347549999999671
                },
                {
                    "name": "D#6",
                    "midi": 87,
                    "time": 93.75592649999949,
                    "velocity": 0.6771653543307087,
                    "duration": 0.09347549999999671
                },
                {
                    "name": "E6",
                    "midi": 88,
                    "time": 93.84940199999949,
                    "velocity": 0.7480314960629921,
                    "duration": 0.09347549999999671
                },
                {
                    "name": "D#6",
                    "midi": 87,
                    "time": 93.94287749999948,
                    "velocity": 0.6771653543307087,
                    "duration": 0.09347549999999671
                },
                {
                    "name": "C#6",
                    "midi": 85,
                    "time": 94.03635299999948,
                    "velocity": 0.6771653543307087,
                    "duration": 0.09347549999999671
                },
                {
                    "name": "C6",
                    "midi": 84,
                    "time": 94.12982849999948,
                    "velocity": 0.6771653543307087,
                    "duration": 0.09347549999999671
                },
                {
                    "name": "C#6",
                    "midi": 85,
                    "time": 94.22330399999947,
                    "velocity": 0.7480314960629921,
                    "duration": 0.09347549999999671
                },
                {
                    "name": "C6",
                    "midi": 84,
                    "time": 94.31677949999947,
                    "velocity": 0.6771653543307087,
                    "duration": 0.09347549999999671
                },
                {
                    "name": "C#6",
                    "midi": 85,
                    "time": 94.41025499999947,
                    "velocity": 0.6771653543307087,
                    "duration": 0.09347549999999671
                },
                {
                    "name": "D#6",
                    "midi": 87,
                    "time": 94.50373049999946,
                    "velocity": 0.6771653543307087,
                    "duration": 0.09347549999999671
                },
                {
                    "name": "E6",
                    "midi": 88,
                    "time": 94.59720599999946,
                    "velocity": 0.7480314960629921,
                    "duration": 0.09347549999999671
                },
                {
                    "name": "D#6",
                    "midi": 87,
                    "time": 94.69068149999946,
                    "velocity": 0.6771653543307087,
                    "duration": 0.09347549999999671
                },
                {
                    "name": "C#6",
                    "midi": 85,
                    "time": 94.78415699999945,
                    "velocity": 0.6771653543307087,
                    "duration": 0.09347549999999671
                },
                {
                    "name": "C6",
                    "midi": 84,
                    "time": 94.87763249999945,
                    "velocity": 0.6771653543307087,
                    "duration": 0.09347549999999671
                },
                {
                    "name": "C#6",
                    "midi": 85,
                    "time": 94.97110799999945,
                    "velocity": 0.7480314960629921,
                    "duration": 0.09347549999999671
                },
                {
                    "name": "C6",
                    "midi": 84,
                    "time": 95.06458349999944,
                    "velocity": 0.6771653543307087,
                    "duration": 0.09347549999999671
                },
                {
                    "name": "C#6",
                    "midi": 85,
                    "time": 95.15805899999944,
                    "velocity": 0.6771653543307087,
                    "duration": 0.09347549999999671
                },
                {
                    "name": "D#6",
                    "midi": 87,
                    "time": 95.25153449999944,
                    "velocity": 0.6771653543307087,
                    "duration": 0.09347549999999671
                },
                {
                    "name": "E6",
                    "midi": 88,
                    "time": 95.34500999999943,
                    "velocity": 0.7480314960629921,
                    "duration": 0.09347549999999671
                },
                {
                    "name": "D#6",
                    "midi": 87,
                    "time": 95.43848549999943,
                    "velocity": 0.6771653543307087,
                    "duration": 0.09347549999999671
                },
                {
                    "name": "C#6",
                    "midi": 85,
                    "time": 95.53196099999943,
                    "velocity": 0.6771653543307087,
                    "duration": 0.09347549999999671
                },
                {
                    "name": "C6",
                    "midi": 84,
                    "time": 95.62543649999942,
                    "velocity": 0.6771653543307087,
                    "duration": 0.09347549999999671
                },
                {
                    "name": "C#6",
                    "midi": 85,
                    "time": 95.71891199999942,
                    "velocity": 0.7480314960629921,
                    "duration": 0.09347549999999671
                },
                {
                    "name": "C6",
                    "midi": 84,
                    "time": 95.81238749999942,
                    "velocity": 0.6771653543307087,
                    "duration": 0.09347549999999671
                },
                {
                    "name": "C#6",
                    "midi": 85,
                    "time": 95.90586299999941,
                    "velocity": 0.6771653543307087,
                    "duration": 0.09347549999999671
                },
                {
                    "name": "D#6",
                    "midi": 87,
                    "time": 95.99933849999941,
                    "velocity": 0.6771653543307087,
                    "duration": 0.09347549999999671
                },
                {
                    "name": "E6",
                    "midi": 88,
                    "time": 96.09281399999941,
                    "velocity": 0.7480314960629921,
                    "duration": 0.09347549999999671
                },
                {
                    "name": "D#6",
                    "midi": 87,
                    "time": 96.1862894999994,
                    "velocity": 0.6771653543307087,
                    "duration": 0.09347549999999671
                },
                {
                    "name": "C#6",
                    "midi": 85,
                    "time": 96.2797649999994,
                    "velocity": 0.6771653543307087,
                    "duration": 0.09347549999999671
                },
                {
                    "name": "C6",
                    "midi": 84,
                    "time": 96.3732404999994,
                    "velocity": 0.6771653543307087,
                    "duration": 0.09347549999999671
                },
                {
                    "name": "C#6",
                    "midi": 85,
                    "time": 96.4667159999994,
                    "velocity": 0.7480314960629921,
                    "duration": 0.09347549999999671
                },
                {
                    "name": "C6",
                    "midi": 84,
                    "time": 96.56019149999939,
                    "velocity": 0.6771653543307087,
                    "duration": 0.09347549999999671
                },
                {
                    "name": "C#6",
                    "midi": 85,
                    "time": 96.65366699999939,
                    "velocity": 0.6771653543307087,
                    "duration": 0.09347549999999671
                },
                {
                    "name": "D#6",
                    "midi": 87,
                    "time": 96.74714249999938,
                    "velocity": 0.6771653543307087,
                    "duration": 0.09347549999999671
                },
                {
                    "name": "E6",
                    "midi": 88,
                    "time": 96.84061799999938,
                    "velocity": 0.7480314960629921,
                    "duration": 0.09347549999999671
                },
                {
                    "name": "D#6",
                    "midi": 87,
                    "time": 96.93409349999938,
                    "velocity": 0.6771653543307087,
                    "duration": 0.09347549999999671
                },
                {
                    "name": "E6",
                    "midi": 88,
                    "time": 97.02756899999937,
                    "velocity": 0.6771653543307087,
                    "duration": 0.09347549999999671
                },
                {
                    "name": "C#6",
                    "midi": 85,
                    "time": 97.12104449999937,
                    "velocity": 0.6771653543307087,
                    "duration": 0.09347549999999671
                },
                {
                    "name": "B4",
                    "midi": 71,
                    "time": 97.21451999999937,
                    "velocity": 0.6850393700787402,
                    "duration": 0.09347549999999671
                },
                {
                    "name": "B5",
                    "midi": 83,
                    "time": 97.21451999999937,
                    "velocity": 0.8110236220472441,
                    "duration": 0.09347549999999671
                },
                {
                    "name": "B4",
                    "midi": 71,
                    "time": 97.40147099999936,
                    "velocity": 0.5748031496062992,
                    "duration": 0.09347549999999671
                },
                {
                    "name": "B5",
                    "midi": 83,
                    "time": 97.40147099999936,
                    "velocity": 0.6850393700787402,
                    "duration": 0.09347549999999671
                },
                {
                    "name": "G#4",
                    "midi": 68,
                    "time": 97.58842199999935,
                    "velocity": 0.5826771653543307,
                    "duration": 0.09347549999999671
                },
                {
                    "name": "G#5",
                    "midi": 80,
                    "time": 97.58842199999935,
                    "velocity": 0.6929133858267716,
                    "duration": 0.09347549999999671
                },
                {
                    "name": "E4",
                    "midi": 64,
                    "time": 97.77537299999935,
                    "velocity": 0.5748031496062992,
                    "duration": 0.09347549999999671
                },
                {
                    "name": "E5",
                    "midi": 76,
                    "time": 97.77537299999935,
                    "velocity": 0.6850393700787402,
                    "duration": 0.09347549999999671
                },
                {
                    "name": "E5",
                    "midi": 76,
                    "time": 97.96232399999934,
                    "velocity": 0.6850393700787402,
                    "duration": 0.09347549999999671
                },
                {
                    "name": "E6",
                    "midi": 88,
                    "time": 97.96232399999934,
                    "velocity": 0.8110236220472441,
                    "duration": 0.09347549999999671
                },
                {
                    "name": "E5",
                    "midi": 76,
                    "time": 98.14927499999934,
                    "velocity": 0.5748031496062992,
                    "duration": 0.09347549999999671
                },
                {
                    "name": "E6",
                    "midi": 88,
                    "time": 98.14927499999934,
                    "velocity": 0.6850393700787402,
                    "duration": 0.09347549999999671
                },
                {
                    "name": "B4",
                    "midi": 71,
                    "time": 98.33622599999933,
                    "velocity": 0.5748031496062992,
                    "duration": 0.09347549999999671
                },
                {
                    "name": "B5",
                    "midi": 83,
                    "time": 98.33622599999933,
                    "velocity": 0.6850393700787402,
                    "duration": 0.09347549999999671
                },
                {
                    "name": "G#4",
                    "midi": 68,
                    "time": 98.52317699999932,
                    "velocity": 0.5748031496062992,
                    "duration": 0.09347549999999671
                },
                {
                    "name": "G#5",
                    "midi": 80,
                    "time": 98.52317699999932,
                    "velocity": 0.6850393700787402,
                    "duration": 0.09347549999999671
                },
                {
                    "name": "B4",
                    "midi": 71,
                    "time": 98.71012799999932,
                    "velocity": 0.6850393700787402,
                    "duration": 0.09347549999999671
                },
                {
                    "name": "B5",
                    "midi": 83,
                    "time": 98.71012799999932,
                    "velocity": 0.8110236220472441,
                    "duration": 0.09347549999999671
                },
                {
                    "name": "B4",
                    "midi": 71,
                    "time": 98.89707899999931,
                    "velocity": 0.5748031496062992,
                    "duration": 0.09347549999999671
                },
                {
                    "name": "B5",
                    "midi": 83,
                    "time": 98.89707899999931,
                    "velocity": 0.6850393700787402,
                    "duration": 0.09347549999999671
                },
                {
                    "name": "G#4",
                    "midi": 68,
                    "time": 99.0840299999993,
                    "velocity": 0.5826771653543307,
                    "duration": 0.09347549999999671
                },
                {
                    "name": "G#5",
                    "midi": 80,
                    "time": 99.0840299999993,
                    "velocity": 0.6929133858267716,
                    "duration": 0.09347549999999671
                },
                {
                    "name": "E4",
                    "midi": 64,
                    "time": 99.2709809999993,
                    "velocity": 0.5748031496062992,
                    "duration": 0.09347549999999671
                },
                {
                    "name": "E5",
                    "midi": 76,
                    "time": 99.2709809999993,
                    "velocity": 0.6850393700787402,
                    "duration": 0.09347549999999671
                },
                {
                    "name": "E5",
                    "midi": 76,
                    "time": 99.45793199999929,
                    "velocity": 0.6850393700787402,
                    "duration": 0.09347549999999671
                },
                {
                    "name": "E6",
                    "midi": 88,
                    "time": 99.45793199999929,
                    "velocity": 0.8110236220472441,
                    "duration": 0.09347549999999671
                },
                {
                    "name": "E5",
                    "midi": 76,
                    "time": 99.64488299999928,
                    "velocity": 0.5748031496062992,
                    "duration": 0.09347549999999671
                },
                {
                    "name": "E6",
                    "midi": 88,
                    "time": 99.64488299999928,
                    "velocity": 0.6850393700787402,
                    "duration": 0.09347549999999671
                },
                {
                    "name": "B4",
                    "midi": 71,
                    "time": 99.83183399999928,
                    "velocity": 0.5748031496062992,
                    "duration": 0.09347549999999671
                },
                {
                    "name": "B5",
                    "midi": 83,
                    "time": 99.83183399999928,
                    "velocity": 0.6850393700787402,
                    "duration": 0.09347549999999671
                },
                {
                    "name": "G#4",
                    "midi": 68,
                    "time": 100.01878499999927,
                    "velocity": 0.5748031496062992,
                    "duration": 0.09347549999999671
                },
                {
                    "name": "G#5",
                    "midi": 80,
                    "time": 100.01878499999927,
                    "velocity": 0.6850393700787402,
                    "duration": 0.09347549999999671
                },
                {
                    "name": "G#5",
                    "midi": 80,
                    "time": 100.29921149999926,
                    "velocity": 0.3700787401574803,
                    "duration": 0.09347549999999671
                },
                {
                    "name": "B5",
                    "midi": 83,
                    "time": 100.39268699999926,
                    "velocity": 0.3937007874015748,
                    "duration": 0.09269653750000373
                },
                {
                    "name": "G#5",
                    "midi": 80,
                    "time": 100.48616249999925,
                    "velocity": 0.3700787401574803,
                    "duration": 0.09347549999999671
                },
                {
                    "name": "B5",
                    "midi": 83,
                    "time": 100.57963799999925,
                    "velocity": 0.4015748031496063,
                    "duration": 0.09269653750000373
                },
                {
                    "name": "G#5",
                    "midi": 80,
                    "time": 100.67311349999925,
                    "velocity": 0.3700787401574803,
                    "duration": 0.09347549999999671
                },
                {
                    "name": "B5",
                    "midi": 83,
                    "time": 100.76658899999924,
                    "velocity": 0.3937007874015748,
                    "duration": 0.09269653750000373
                },
                {
                    "name": "G#5",
                    "midi": 80,
                    "time": 100.86006449999924,
                    "velocity": 0.3700787401574803,
                    "duration": 0.09347549999999671
                },
                {
                    "name": "B5",
                    "midi": 83,
                    "time": 100.95353999999924,
                    "velocity": 0.4015748031496063,
                    "duration": 0.09269653750000373
                },
                {
                    "name": "G#5",
                    "midi": 80,
                    "time": 101.04701549999923,
                    "velocity": 0.3700787401574803,
                    "duration": 0.09347549999999671
                },
                {
                    "name": "B5",
                    "midi": 83,
                    "time": 101.14049099999923,
                    "velocity": 0.3937007874015748,
                    "duration": 0.09269653750000373
                },
                {
                    "name": "G#5",
                    "midi": 80,
                    "time": 101.23396649999923,
                    "velocity": 0.3700787401574803,
                    "duration": 0.09347549999999671
                },
                {
                    "name": "B5",
                    "midi": 83,
                    "time": 101.32744199999922,
                    "velocity": 0.4094488188976378,
                    "duration": 0.09269653750000373
                },
                {
                    "name": "G#5",
                    "midi": 80,
                    "time": 101.42091749999922,
                    "velocity": 0.3700787401574803,
                    "duration": 0.09347549999999671
                },
                {
                    "name": "B5",
                    "midi": 83,
                    "time": 101.51439299999922,
                    "velocity": 0.4015748031496063,
                    "duration": 0.09269653750000373
                },
                {
                    "name": "G#5",
                    "midi": 80,
                    "time": 101.60786849999921,
                    "velocity": 0.3700787401574803,
                    "duration": 0.09347549999999671
                },
                {
                    "name": "B5",
                    "midi": 83,
                    "time": 101.70134399999921,
                    "velocity": 0.3937007874015748,
                    "duration": 0.09269653750000373
                },
                {
                    "name": "G#5",
                    "midi": 80,
                    "time": 101.7948194999992,
                    "velocity": 0.3700787401574803,
                    "duration": 0.09347549999999671
                },
                {
                    "name": "B5",
                    "midi": 83,
                    "time": 101.8882949999992,
                    "velocity": 0.3937007874015748,
                    "duration": 0.09269653750000373
                },
                {
                    "name": "G#5",
                    "midi": 80,
                    "time": 101.9817704999992,
                    "velocity": 0.3700787401574803,
                    "duration": 0.09347549999999671
                },
                {
                    "name": "B5",
                    "midi": 83,
                    "time": 102.0752459999992,
                    "velocity": 0.4015748031496063,
                    "duration": 0.09269653750000373
                },
                {
                    "name": "G#5",
                    "midi": 80,
                    "time": 102.1687214999992,
                    "velocity": 0.3700787401574803,
                    "duration": 0.09347549999999671
                },
                {
                    "name": "B5",
                    "midi": 83,
                    "time": 102.26219699999919,
                    "velocity": 0.3937007874015748,
                    "duration": 0.09269653750000373
                },
                {
                    "name": "G#5",
                    "midi": 80,
                    "time": 102.35567249999919,
                    "velocity": 0.3700787401574803,
                    "duration": 0.09347549999999671
                },
                {
                    "name": "B5",
                    "midi": 83,
                    "time": 102.44914799999918,
                    "velocity": 0.4015748031496063,
                    "duration": 0.09269653750000373
                },
                {
                    "name": "G#5",
                    "midi": 80,
                    "time": 102.54262349999918,
                    "velocity": 0.3700787401574803,
                    "duration": 0.09347549999999671
                },
                {
                    "name": "B5",
                    "midi": 83,
                    "time": 102.63609899999918,
                    "velocity": 0.3937007874015748,
                    "duration": 0.09269653750000373
                },
                {
                    "name": "G#5",
                    "midi": 80,
                    "time": 102.72957449999917,
                    "velocity": 0.3700787401574803,
                    "duration": 0.09347549999999671
                },
                {
                    "name": "B5",
                    "midi": 83,
                    "time": 102.82304999999917,
                    "velocity": 0.4094488188976378,
                    "duration": 0.09269653750000373
                },
                {
                    "name": "G#5",
                    "midi": 80,
                    "time": 102.91652549999917,
                    "velocity": 0.3700787401574803,
                    "duration": 0.09347549999999671
                },
                {
                    "name": "B5",
                    "midi": 83,
                    "time": 103.01000099999916,
                    "velocity": 0.4015748031496063,
                    "duration": 0.09269653750000373
                },
                {
                    "name": "G#5",
                    "midi": 80,
                    "time": 103.10347649999916,
                    "velocity": 0.3700787401574803,
                    "duration": 0.09347549999999671
                },
                {
                    "name": "A5",
                    "midi": 81,
                    "time": 103.29042749999915,
                    "velocity": 0.33070866141732286,
                    "duration": 0.09347549999999671
                },
                {
                    "name": "B5",
                    "midi": 83,
                    "time": 103.38390299999915,
                    "velocity": 0.3543307086614173,
                    "duration": 0.09269653750000373
                },
                {
                    "name": "A5",
                    "midi": 81,
                    "time": 103.47737849999915,
                    "velocity": 0.3228346456692913,
                    "duration": 0.09347549999999671
                },
                {
                    "name": "C6",
                    "midi": 84,
                    "time": 103.57085399999914,
                    "velocity": 0.3464566929133858,
                    "duration": 0.09269653750000373
                },
                {
                    "name": "A5",
                    "midi": 81,
                    "time": 103.66432949999914,
                    "velocity": 0.31496062992125984,
                    "duration": 0.09347549999999671
                },
                {
                    "name": "B5",
                    "midi": 83,
                    "time": 103.75780499999914,
                    "velocity": 0.33070866141732286,
                    "duration": 0.09269653750000373
                },
                {
                    "name": "A5",
                    "midi": 81,
                    "time": 103.85128049999913,
                    "velocity": 0.30708661417322836,
                    "duration": 0.09347549999999671
                },
                {
                    "name": "C6",
                    "midi": 84,
                    "time": 103.94475599999913,
                    "velocity": 0.33070866141732286,
                    "duration": 0.09269653750000373
                },
                {
                    "name": "A5",
                    "midi": 81,
                    "time": 104.03823149999913,
                    "velocity": 0.2992125984251969,
                    "duration": 0.09347549999999671
                },
                {
                    "name": "B5",
                    "midi": 83,
                    "time": 104.13170699999912,
                    "velocity": 0.31496062992125984,
                    "duration": 0.09269653750000373
                },
                {
                    "name": "A5",
                    "midi": 81,
                    "time": 104.22518249999912,
                    "velocity": 0.29133858267716534,
                    "duration": 0.09347549999999671
                },
                {
                    "name": "C6",
                    "midi": 84,
                    "time": 104.31865799999912,
                    "velocity": 0.31496062992125984,
                    "duration": 0.09269653750000373
                },
                {
                    "name": "A5",
                    "midi": 81,
                    "time": 104.41213349999911,
                    "velocity": 0.28346456692913385,
                    "duration": 0.09347549999999671
                },
                {
                    "name": "B5",
                    "midi": 83,
                    "time": 104.50560899999911,
                    "velocity": 0.30708661417322836,
                    "duration": 0.09269653750000373
                },
                {
                    "name": "A5",
                    "midi": 81,
                    "time": 104.59908449999911,
                    "velocity": 0.2755905511811024,
                    "duration": 0.09347549999999671
                },
                {
                    "name": "C6",
                    "midi": 84,
                    "time": 104.6925599999991,
                    "velocity": 0.29133858267716534,
                    "duration": 0.09269653750000373
                },
                {
                    "name": "A5",
                    "midi": 81,
                    "time": 104.7860354999991,
                    "velocity": 0.2677165354330709,
                    "duration": 0.09347549999999671
                },
                {
                    "name": "B5",
                    "midi": 83,
                    "time": 104.8795109999991,
                    "velocity": 0.28346456692913385,
                    "duration": 0.09269653750000373
                },
                {
                    "name": "A5",
                    "midi": 81,
                    "time": 104.9729864999991,
                    "velocity": 0.2677165354330709,
                    "duration": 0.09347549999999671
                },
                {
                    "name": "C6",
                    "midi": 84,
                    "time": 105.06646199999909,
                    "velocity": 0.29133858267716534,
                    "duration": 0.09269653750000373
                },
                {
                    "name": "A5",
                    "midi": 81,
                    "time": 105.15993749999909,
                    "velocity": 0.2677165354330709,
                    "duration": 0.09347549999999671
                },
                {
                    "name": "B5",
                    "midi": 83,
                    "time": 105.25341299999909,
                    "velocity": 0.28346456692913385,
                    "duration": 0.09269653750000373
                },
                {
                    "name": "A5",
                    "midi": 81,
                    "time": 105.34688849999908,
                    "velocity": 0.2677165354330709,
                    "duration": 0.09347549999999671
                },
                {
                    "name": "C6",
                    "midi": 84,
                    "time": 105.44036399999908,
                    "velocity": 0.29133858267716534,
                    "duration": 0.09269653750000373
                },
                {
                    "name": "A5",
                    "midi": 81,
                    "time": 105.53383949999908,
                    "velocity": 0.2677165354330709,
                    "duration": 0.09347549999999671
                },
                {
                    "name": "B5",
                    "midi": 83,
                    "time": 105.62731499999907,
                    "velocity": 0.28346456692913385,
                    "duration": 0.09269653750000373
                },
                {
                    "name": "A5",
                    "midi": 81,
                    "time": 105.72079049999907,
                    "velocity": 0.2677165354330709,
                    "duration": 0.09347549999999671
                },
                {
                    "name": "C6",
                    "midi": 84,
                    "time": 105.81426599999907,
                    "velocity": 0.2992125984251969,
                    "duration": 0.09269653750000373
                },
                {
                    "name": "A5",
                    "midi": 81,
                    "time": 105.90774149999906,
                    "velocity": 0.2677165354330709,
                    "duration": 0.09347549999999671
                },
                {
                    "name": "B5",
                    "midi": 83,
                    "time": 106.00121699999906,
                    "velocity": 0.29133858267716534,
                    "duration": 0.09269653750000373
                },
                {
                    "name": "A5",
                    "midi": 81,
                    "time": 106.09469249999906,
                    "velocity": 0.2677165354330709,
                    "duration": 0.09347549999999671
                },
                {
                    "name": "C#6",
                    "midi": 85,
                    "time": 106.18816799999905,
                    "velocity": 0.29133858267716534,
                    "duration": 0.0942544624999897
                },
                {
                    "name": "A5",
                    "midi": 81,
                    "time": 106.28164349999905,
                    "velocity": 0.2677165354330709,
                    "duration": 0.07010662499999398
                },
                {
                    "name": "B5",
                    "midi": 83,
                    "time": 106.37511899999905,
                    "velocity": 0.28346456692913385,
                    "duration": 0.0942544624999897
                },
                {
                    "name": "A5",
                    "midi": 81,
                    "time": 106.46859449999904,
                    "velocity": 0.2755905511811024,
                    "duration": 0.09347549999999671
                },
                {
                    "name": "C#6",
                    "midi": 85,
                    "time": 106.56206999999904,
                    "velocity": 0.2992125984251969,
                    "duration": 0.0942544624999897
                },
                {
                    "name": "A5",
                    "midi": 81,
                    "time": 106.65554549999904,
                    "velocity": 0.28346456692913385,
                    "duration": 0.09347549999999671
                },
                {
                    "name": "B5",
                    "midi": 83,
                    "time": 106.74902099999903,
                    "velocity": 0.2992125984251969,
                    "duration": 0.0942544624999897
                },
                {
                    "name": "A5",
                    "midi": 81,
                    "time": 106.84249649999903,
                    "velocity": 0.28346456692913385,
                    "duration": 0.09347549999999671
                },
                {
                    "name": "C#6",
                    "midi": 85,
                    "time": 106.93597199999903,
                    "velocity": 0.31496062992125984,
                    "duration": 0.0942544624999897
                },
                {
                    "name": "A5",
                    "midi": 81,
                    "time": 107.02944749999902,
                    "velocity": 0.29133858267716534,
                    "duration": 0.09347549999999671
                },
                {
                    "name": "B5",
                    "midi": 83,
                    "time": 107.12292299999902,
                    "velocity": 0.31496062992125984,
                    "duration": 0.0942544624999897
                },
                {
                    "name": "A5",
                    "midi": 81,
                    "time": 107.21639849999902,
                    "velocity": 0.2992125984251969,
                    "duration": 0.09347549999999671
                },
                {
                    "name": "C#6",
                    "midi": 85,
                    "time": 107.30987399999901,
                    "velocity": 0.33858267716535434,
                    "duration": 0.0942544624999897
                },
                {
                    "name": "A5",
                    "midi": 81,
                    "time": 107.40334949999901,
                    "velocity": 0.30708661417322836,
                    "duration": 0.09347549999999671
                },
                {
                    "name": "B5",
                    "midi": 83,
                    "time": 107.496824999999,
                    "velocity": 0.33858267716535434,
                    "duration": 0.0942544624999897
                },
                {
                    "name": "A5",
                    "midi": 81,
                    "time": 107.590300499999,
                    "velocity": 0.31496062992125984,
                    "duration": 0.09347549999999671
                },
                {
                    "name": "F#6",
                    "midi": 90,
                    "time": 107.683775999999,
                    "velocity": 0.3464566929133858,
                    "duration": 0.0942544624999897
                },
                {
                    "name": "B5",
                    "midi": 83,
                    "time": 107.777251499999,
                    "velocity": 0.3228346456692913,
                    "duration": 0.09347549999999671
                },
                {
                    "name": "A5",
                    "midi": 81,
                    "time": 107.777251499999,
                    "velocity": 0.3228346456692913,
                    "duration": 0.09347549999999671
                },
                {
                    "name": "F#6",
                    "midi": 90,
                    "time": 107.870726999999,
                    "velocity": 0.33858267716535434,
                    "duration": 0.0942544624999897
                },
                {
                    "name": "B5",
                    "midi": 83,
                    "time": 107.96420249999899,
                    "velocity": 0.3228346456692913,
                    "duration": 0.09347549999999671
                },
                {
                    "name": "A5",
                    "midi": 81,
                    "time": 107.96420249999899,
                    "velocity": 0.3228346456692913,
                    "duration": 0.09347549999999671
                },
                {
                    "name": "F#6",
                    "midi": 90,
                    "time": 108.05767799999899,
                    "velocity": 0.36220472440944884,
                    "duration": 0.0942544624999897
                },
                {
                    "name": "B5",
                    "midi": 83,
                    "time": 108.15115349999898,
                    "velocity": 0.33070866141732286,
                    "duration": 0.09347549999999671
                },
                {
                    "name": "A5",
                    "midi": 81,
                    "time": 108.15115349999898,
                    "velocity": 0.33070866141732286,
                    "duration": 0.09347549999999671
                },
                {
                    "name": "F#6",
                    "midi": 90,
                    "time": 108.24462899999898,
                    "velocity": 0.36220472440944884,
                    "duration": 0.0942544624999897
                },
                {
                    "name": "B5",
                    "midi": 83,
                    "time": 108.33810449999898,
                    "velocity": 0.3464566929133858,
                    "duration": 0.09347549999999671
                },
                {
                    "name": "A5",
                    "midi": 81,
                    "time": 108.33810449999898,
                    "velocity": 0.3464566929133858,
                    "duration": 0.09347549999999671
                },
                {
                    "name": "F#6",
                    "midi": 90,
                    "time": 108.43157999999897,
                    "velocity": 0.3858267716535433,
                    "duration": 0.06309596250000027
                },
                {
                    "name": "B5",
                    "midi": 83,
                    "time": 108.52505549999897,
                    "velocity": 0.3543307086614173,
                    "duration": 0.09347549999999671
                },
                {
                    "name": "A5",
                    "midi": 81,
                    "time": 108.52505549999897,
                    "velocity": 0.3543307086614173,
                    "duration": 0.09347549999999671
                },
                {
                    "name": "F#6",
                    "midi": 90,
                    "time": 108.61853099999897,
                    "velocity": 0.3858267716535433,
                    "duration": 0.0942544624999897
                },
                {
                    "name": "B5",
                    "midi": 83,
                    "time": 108.71200649999896,
                    "velocity": 0.3700787401574803,
                    "duration": 0.09347549999999671
                },
                {
                    "name": "A5",
                    "midi": 81,
                    "time": 108.71200649999896,
                    "velocity": 0.3700787401574803,
                    "duration": 0.09347549999999671
                },
                {
                    "name": "F#6",
                    "midi": 90,
                    "time": 108.80548199999896,
                    "velocity": 0.4251968503937008,
                    "duration": 0.0942544624999897
                },
                {
                    "name": "B5",
                    "midi": 83,
                    "time": 108.89895749999896,
                    "velocity": 0.3779527559055118,
                    "duration": 0.09347549999999671
                },
                {
                    "name": "A5",
                    "midi": 81,
                    "time": 108.89895749999896,
                    "velocity": 0.3779527559055118,
                    "duration": 0.09347549999999671
                },
                {
                    "name": "F#6",
                    "midi": 90,
                    "time": 108.99243299999895,
                    "velocity": 0.41732283464566927,
                    "duration": 0.0942544624999897
                },
                {
                    "name": "B5",
                    "midi": 83,
                    "time": 109.08590849999895,
                    "velocity": 0.3858267716535433,
                    "duration": 0.09347549999999671
                },
                {
                    "name": "A5",
                    "midi": 81,
                    "time": 109.08590849999895,
                    "velocity": 0.3858267716535433,
                    "duration": 0.09347549999999671
                },
                {
                    "name": "G#5",
                    "midi": 80,
                    "time": 109.17938399999895,
                    "velocity": 0.5669291338582677,
                    "duration": 1.1217060000000032
                },
                {
                    "name": "B5",
                    "midi": 83,
                    "time": 109.17938399999895,
                    "velocity": 0.5669291338582677,
                    "duration": 1.1217060000000032
                },
                {
                    "name": "E6",
                    "midi": 88,
                    "time": 109.17938399999895,
                    "velocity": 0.5669291338582677,
                    "duration": 1.1217060000000032
                },
                {
                    "name": "E6",
                    "midi": 88,
                    "time": 110.30108999999895,
                    "velocity": 0.4566929133858268,
                    "duration": 0.09347549999999671
                },
                {
                    "name": "D6",
                    "midi": 86,
                    "time": 110.39456549999895,
                    "velocity": 0.44881889763779526,
                    "duration": 0.09347549999999671
                },
                {
                    "name": "C6",
                    "midi": 84,
                    "time": 110.48804099999894,
                    "velocity": 0.4409448818897638,
                    "duration": 0.09347549999999671
                },
                {
                    "name": "B5",
                    "midi": 83,
                    "time": 110.58151649999894,
                    "velocity": 0.4330708661417323,
                    "duration": 0.09347549999999671
                },
                {
                    "name": "C6",
                    "midi": 84,
                    "time": 110.67499199999894,
                    "velocity": 0.4566929133858268,
                    "duration": 0.09347549999999671
                },
                {
                    "name": "B5",
                    "midi": 83,
                    "time": 110.76846749999893,
                    "velocity": 0.44881889763779526,
                    "duration": 0.09347549999999671
                },
                {
                    "name": "A5",
                    "midi": 81,
                    "time": 110.86194299999893,
                    "velocity": 0.4409448818897638,
                    "duration": 0.09347549999999671
                },
                {
                    "name": "G#5",
                    "midi": 80,
                    "time": 110.95541849999893,
                    "velocity": 0.4330708661417323,
                    "duration": 0.09347549999999671
                },
                {
                    "name": "A5",
                    "midi": 81,
                    "time": 111.04889399999892,
                    "velocity": 0.4015748031496063,
                    "duration": 0.09347549999999671
                },
                {
                    "name": "B5",
                    "midi": 83,
                    "time": 111.14236949999892,
                    "velocity": 0.4094488188976378,
                    "duration": 0.09347549999999671
                },
                {
                    "name": "C6",
                    "midi": 84,
                    "time": 111.23584499999892,
                    "velocity": 0.41732283464566927,
                    "duration": 0.09347549999999671
                },
                {
                    "name": "D6",
                    "midi": 86,
                    "time": 111.32932049999891,
                    "velocity": 0.4251968503937008,
                    "duration": 0.09347549999999671
                },
                {
                    "name": "E6",
                    "midi": 88,
                    "time": 111.42279599999891,
                    "velocity": 0.4409448818897638,
                    "duration": 0.09347549999999671
                },
                {
                    "name": "F6",
                    "midi": 89,
                    "time": 111.51627149999891,
                    "velocity": 0.44881889763779526,
                    "duration": 0.09347549999999671
                },
                {
                    "name": "E6",
                    "midi": 88,
                    "time": 111.6097469999989,
                    "velocity": 0.44881889763779526,
                    "duration": 0.09347549999999671
                },
                {
                    "name": "D#6",
                    "midi": 87,
                    "time": 111.7032224999989,
                    "velocity": 0.4409448818897638,
                    "duration": 0.09347549999999671
                },
                {
                    "name": "E6",
                    "midi": 88,
                    "time": 111.7966979999989,
                    "velocity": 0.4409448818897638,
                    "duration": 0.09347549999999671
                },
                {
                    "name": "D6",
                    "midi": 86,
                    "time": 111.8901734999989,
                    "velocity": 0.4409448818897638,
                    "duration": 0.09347549999999671
                },
                {
                    "name": "C6",
                    "midi": 84,
                    "time": 111.98364899999889,
                    "velocity": 0.4409448818897638,
                    "duration": 0.09347549999999671
                },
                {
                    "name": "B5",
                    "midi": 83,
                    "time": 112.07712449999889,
                    "velocity": 0.4409448818897638,
                    "duration": 0.09347549999999671
                },
                {
                    "name": "C6",
                    "midi": 84,
                    "time": 112.17059999999888,
                    "velocity": 0.44881889763779526,
                    "duration": 0.09347549999999671
                },
                {
                    "name": "D6",
                    "midi": 86,
                    "time": 112.26407549999888,
                    "velocity": 0.44881889763779526,
                    "duration": 0.09347549999999671
                },
                {
                    "name": "C6",
                    "midi": 84,
                    "time": 112.35755099999888,
                    "velocity": 0.44881889763779526,
                    "duration": 0.09347549999999671
                },
                {
                    "name": "B5",
                    "midi": 83,
                    "time": 112.45102649999887,
                    "velocity": 0.41732283464566927,
                    "duration": 0.09347549999999671
                },
                {
                    "name": "A5",
                    "midi": 81,
                    "time": 112.54450199999887,
                    "velocity": 0.4409448818897638,
                    "duration": 0.09347549999999671
                },
                {
                    "name": "G#5",
                    "midi": 80,
                    "time": 112.63797749999887,
                    "velocity": 0.4094488188976378,
                    "duration": 0.09347549999999671
                },
                {
                    "name": "A5",
                    "midi": 81,
                    "time": 112.73145299999887,
                    "velocity": 0.4409448818897638,
                    "duration": 0.09347549999999671
                },
                {
                    "name": "B5",
                    "midi": 83,
                    "time": 112.82492849999886,
                    "velocity": 0.4094488188976378,
                    "duration": 0.09347549999999671
                },
                {
                    "name": "C5",
                    "midi": 72,
                    "time": 112.91840399999886,
                    "velocity": 0.3543307086614173,
                    "duration": 0.7478039999999879
                },
                {
                    "name": "C6",
                    "midi": 84,
                    "time": 112.91840399999886,
                    "velocity": 0.4645669291338583,
                    "duration": 0.37390200000000107
                },
                {
                    "name": "A5",
                    "midi": 81,
                    "time": 113.29230599999886,
                    "velocity": 0.4094488188976378,
                    "duration": 0.18695099999999343
                },
                {
                    "name": "F#5",
                    "midi": 78,
                    "time": 113.47925699999885,
                    "velocity": 0.4094488188976378,
                    "duration": 0.18695099999999343
                },
                {
                    "name": "B4",
                    "midi": 71,
                    "time": 113.66620799999885,
                    "velocity": 0.3543307086614173,
                    "duration": 0.7478039999999879
                },
                {
                    "name": "B5",
                    "midi": 83,
                    "time": 113.66620799999885,
                    "velocity": 0.44881889763779526,
                    "duration": 0.37390200000000107
                },
                {
                    "name": "G5",
                    "midi": 79,
                    "time": 114.04010999999885,
                    "velocity": 0.4094488188976378,
                    "duration": 0.18695099999999343
                },
                {
                    "name": "E5",
                    "midi": 76,
                    "time": 114.22706099999884,
                    "velocity": 0.4094488188976378,
                    "duration": 0.18695099999999343
                },
                {
                    "name": "A4",
                    "midi": 69,
                    "time": 114.41401199999883,
                    "velocity": 0.3543307086614173,
                    "duration": 0.7478039999999879
                },
                {
                    "name": "A5",
                    "midi": 81,
                    "time": 114.41401199999883,
                    "velocity": 0.44881889763779526,
                    "duration": 0.37390200000000107
                },
                {
                    "name": "F#5",
                    "midi": 78,
                    "time": 114.78791399999884,
                    "velocity": 0.4094488188976378,
                    "duration": 0.18695099999999343
                },
                {
                    "name": "D#5",
                    "midi": 75,
                    "time": 114.97486499999883,
                    "velocity": 0.4094488188976378,
                    "duration": 0.18695099999999343
                },
                {
                    "name": "E5",
                    "midi": 76,
                    "time": 115.16181599999882,
                    "velocity": 0.5669291338582677,
                    "duration": 1.1217060000000032
                },
                {
                    "name": "E5",
                    "midi": 76,
                    "time": 116.28352199999883,
                    "velocity": 0.4566929133858268,
                    "duration": 0.09347549999999671
                },
                {
                    "name": "D5",
                    "midi": 74,
                    "time": 116.37699749999882,
                    "velocity": 0.44881889763779526,
                    "duration": 0.09347549999999671
                },
                {
                    "name": "C5",
                    "midi": 72,
                    "time": 116.47047299999882,
                    "velocity": 0.4409448818897638,
                    "duration": 0.09347549999999671
                },
                {
                    "name": "B4",
                    "midi": 71,
                    "time": 116.56394849999882,
                    "velocity": 0.4330708661417323,
                    "duration": 0.09347549999999671
                },
                {
                    "name": "C5",
                    "midi": 72,
                    "time": 116.65742399999881,
                    "velocity": 0.4566929133858268,
                    "duration": 0.09347549999999671
                },
                {
                    "name": "B4",
                    "midi": 71,
                    "time": 116.75089949999881,
                    "velocity": 0.44881889763779526,
                    "duration": 0.09347549999999671
                },
                {
                    "name": "A4",
                    "midi": 69,
                    "time": 116.8443749999988,
                    "velocity": 0.4409448818897638,
                    "duration": 0.09347549999999671
                },
                {
                    "name": "G#4",
                    "midi": 68,
                    "time": 116.9378504999988,
                    "velocity": 0.4330708661417323,
                    "duration": 0.09347549999999671
                },
                {
                    "name": "A4",
                    "midi": 69,
                    "time": 117.0313259999988,
                    "velocity": 0.4015748031496063,
                    "duration": 0.09347549999999671
                },
                {
                    "name": "B4",
                    "midi": 71,
                    "time": 117.1248014999988,
                    "velocity": 0.4094488188976378,
                    "duration": 0.09347549999999671
                },
                {
                    "name": "C5",
                    "midi": 72,
                    "time": 117.21827699999879,
                    "velocity": 0.41732283464566927,
                    "duration": 0.09347549999999671
                },
                {
                    "name": "D5",
                    "midi": 74,
                    "time": 117.31175249999879,
                    "velocity": 0.4251968503937008,
                    "duration": 0.09347549999999671
                },
                {
                    "name": "E5",
                    "midi": 76,
                    "time": 117.40522799999879,
                    "velocity": 0.4409448818897638,
                    "duration": 0.09347549999999671
                },
                {
                    "name": "F5",
                    "midi": 77,
                    "time": 117.49870349999878,
                    "velocity": 0.44881889763779526,
                    "duration": 0.09347549999999671
                },
                {
                    "name": "E5",
                    "midi": 76,
                    "time": 117.59217899999878,
                    "velocity": 0.44881889763779526,
                    "duration": 0.09347549999999671
                },
                {
                    "name": "D#5",
                    "midi": 75,
                    "time": 117.68565449999878,
                    "velocity": 0.4409448818897638,
                    "duration": 0.09347549999999671
                },
                {
                    "name": "E5",
                    "midi": 76,
                    "time": 117.77912999999877,
                    "velocity": 0.4409448818897638,
                    "duration": 0.09347549999999671
                },
                {
                    "name": "D5",
                    "midi": 74,
                    "time": 117.87260549999877,
                    "velocity": 0.4409448818897638,
                    "duration": 0.09347549999999671
                },
                {
                    "name": "C5",
                    "midi": 72,
                    "time": 117.96608099999877,
                    "velocity": 0.4409448818897638,
                    "duration": 0.09347549999999671
                },
                {
                    "name": "B4",
                    "midi": 71,
                    "time": 118.05955649999876,
                    "velocity": 0.4409448818897638,
                    "duration": 0.09347549999999671
                },
                {
                    "name": "C5",
                    "midi": 72,
                    "time": 118.15303199999876,
                    "velocity": 0.44881889763779526,
                    "duration": 0.09347549999999671
                },
                {
                    "name": "D5",
                    "midi": 74,
                    "time": 118.24650749999876,
                    "velocity": 0.44881889763779526,
                    "duration": 0.09347549999999671
                },
                {
                    "name": "C5",
                    "midi": 72,
                    "time": 118.33998299999875,
                    "velocity": 0.44881889763779526,
                    "duration": 0.09347549999999671
                },
                {
                    "name": "B4",
                    "midi": 71,
                    "time": 118.43345849999875,
                    "velocity": 0.41732283464566927,
                    "duration": 0.09347549999999671
                },
                {
                    "name": "A4",
                    "midi": 69,
                    "time": 118.52693399999875,
                    "velocity": 0.4409448818897638,
                    "duration": 0.09347549999999671
                },
                {
                    "name": "G#4",
                    "midi": 68,
                    "time": 118.62040949999874,
                    "velocity": 0.4094488188976378,
                    "duration": 0.09347549999999671
                },
                {
                    "name": "A4",
                    "midi": 69,
                    "time": 118.71388499999874,
                    "velocity": 0.4409448818897638,
                    "duration": 0.09347549999999671
                },
                {
                    "name": "B4",
                    "midi": 71,
                    "time": 118.80736049999874,
                    "velocity": 0.4094488188976378,
                    "duration": 0.09347549999999671
                },
                {
                    "name": "C4",
                    "midi": 60,
                    "time": 118.90083599999873,
                    "velocity": 0.3543307086614173,
                    "duration": 0.7478039999999879
                },
                {
                    "name": "C5",
                    "midi": 72,
                    "time": 118.90083599999873,
                    "velocity": 0.4645669291338583,
                    "duration": 0.37390200000000107
                },
                {
                    "name": "A4",
                    "midi": 69,
                    "time": 119.27473799999873,
                    "velocity": 0.4094488188976378,
                    "duration": 0.18695099999999343
                },
                {
                    "name": "F#4",
                    "midi": 66,
                    "time": 119.46168899999873,
                    "velocity": 0.4094488188976378,
                    "duration": 0.18695099999999343
                },
                {
                    "name": "B3",
                    "midi": 59,
                    "time": 119.64863999999872,
                    "velocity": 0.3543307086614173,
                    "duration": 0.7478039999999879
                },
                {
                    "name": "B4",
                    "midi": 71,
                    "time": 119.64863999999872,
                    "velocity": 0.44881889763779526,
                    "duration": 0.37390200000000107
                },
                {
                    "name": "G4",
                    "midi": 67,
                    "time": 120.02254199999872,
                    "velocity": 0.4094488188976378,
                    "duration": 0.18695099999999343
                },
                {
                    "name": "E4",
                    "midi": 64,
                    "time": 120.20949299999872,
                    "velocity": 0.4094488188976378,
                    "duration": 0.18695099999999343
                },
                {
                    "name": "A3",
                    "midi": 57,
                    "time": 120.39644399999871,
                    "velocity": 0.3543307086614173,
                    "duration": 0.7478039999999879
                },
                {
                    "name": "A4",
                    "midi": 69,
                    "time": 120.39644399999871,
                    "velocity": 0.44881889763779526,
                    "duration": 0.37390200000000107
                },
                {
                    "name": "F#4",
                    "midi": 66,
                    "time": 120.77034599999871,
                    "velocity": 0.4094488188976378,
                    "duration": 0.18695099999999343
                },
                {
                    "name": "D#4",
                    "midi": 63,
                    "time": 120.9572969999987,
                    "velocity": 0.4094488188976378,
                    "duration": 0.18695099999999343
                },
                {
                    "name": "E4",
                    "midi": 64,
                    "time": 121.1442479999987,
                    "velocity": 0.4330708661417323,
                    "duration": 0.18695099999999343
                },
                {
                    "name": "E5",
                    "midi": 76,
                    "time": 121.51814999999868,
                    "velocity": 0.5275590551181102,
                    "duration": 0.18695099999999343
                },
                {
                    "name": "D5",
                    "midi": 74,
                    "time": 121.70510099999868,
                    "velocity": 0.4881889763779528,
                    "duration": 0.18695099999999343
                },
                {
                    "name": "C5",
                    "midi": 72,
                    "time": 121.89205199999867,
                    "velocity": 0.5196850393700787,
                    "duration": 0.37390200000000107
                },
                {
                    "name": "A4",
                    "midi": 69,
                    "time": 122.26595399999867,
                    "velocity": 0.48031496062992124,
                    "duration": 0.18695099999999343
                },
                {
                    "name": "F4",
                    "midi": 65,
                    "time": 122.45290499999867,
                    "velocity": 0.4251968503937008,
                    "duration": 0.18695099999999343
                },
                {
                    "name": "B4",
                    "midi": 71,
                    "time": 122.63985599999866,
                    "velocity": 0.4015748031496063,
                    "duration": 0.37390200000000107
                },
                {
                    "name": "G4",
                    "midi": 67,
                    "time": 123.01375799999866,
                    "velocity": 0.36220472440944884,
                    "duration": 0.18695099999999343
                },
                {
                    "name": "E4",
                    "midi": 64,
                    "time": 123.20070899999865,
                    "velocity": 0.36220472440944884,
                    "duration": 0.18695099999999343
                },
                {
                    "name": "A4",
                    "midi": 69,
                    "time": 123.38765999999865,
                    "velocity": 0.4015748031496063,
                    "duration": 0.37390200000000107
                },
                {
                    "name": "F#4",
                    "midi": 66,
                    "time": 123.76156199999865,
                    "velocity": 0.36220472440944884,
                    "duration": 0.18695099999999343
                },
                {
                    "name": "D#4",
                    "midi": 63,
                    "time": 123.94851299999864,
                    "velocity": 0.36220472440944884,
                    "duration": 0.18695099999999343
                },
                {
                    "name": "E4",
                    "midi": 64,
                    "time": 124.13546399999863,
                    "velocity": 0.4330708661417323,
                    "duration": 0.18695099999999343
                },
                {
                    "name": "C5",
                    "midi": 72,
                    "time": 124.50936599999862,
                    "velocity": 0.5196850393700787,
                    "duration": 0.18695099999999343
                },
                {
                    "name": "B4",
                    "midi": 71,
                    "time": 124.69631699999861,
                    "velocity": 0.4881889763779528,
                    "duration": 0.18695099999999343
                },
                {
                    "name": "A4",
                    "midi": 69,
                    "time": 124.88326799999861,
                    "velocity": 0.5196850393700787,
                    "duration": 0.37390200000000107
                },
                {
                    "name": "F4",
                    "midi": 65,
                    "time": 125.25716999999861,
                    "velocity": 0.48031496062992124,
                    "duration": 0.18695099999999343
                },
                {
                    "name": "D4",
                    "midi": 62,
                    "time": 125.4441209999986,
                    "velocity": 0.4251968503937008,
                    "duration": 0.18695099999999343
                },
                {
                    "name": "G4",
                    "midi": 67,
                    "time": 125.6310719999986,
                    "velocity": 0.4015748031496063,
                    "duration": 0.37390200000000107
                },
                {
                    "name": "E4",
                    "midi": 64,
                    "time": 126.0049739999986,
                    "velocity": 0.36220472440944884,
                    "duration": 0.18695099999999343
                },
                {
                    "name": "C4",
                    "midi": 60,
                    "time": 126.19192499999859,
                    "velocity": 0.36220472440944884,
                    "duration": 0.18695099999999343
                },
                {
                    "name": "F4",
                    "midi": 65,
                    "time": 126.37887599999858,
                    "velocity": 0.4015748031496063,
                    "duration": 0.37390200000000107
                },
                {
                    "name": "D4",
                    "midi": 62,
                    "time": 126.75277799999859,
                    "velocity": 0.36220472440944884,
                    "duration": 0.18695099999999343
                },
                {
                    "name": "B3",
                    "midi": 59,
                    "time": 126.93972899999858,
                    "velocity": 0.36220472440944884,
                    "duration": 0.18695099999999343
                },
                {
                    "name": "C3",
                    "midi": 48,
                    "time": 127.12667999999857,
                    "velocity": 0.2204724409448819,
                    "duration": 0.14021325000000218
                },
                {
                    "name": "E3",
                    "midi": 52,
                    "time": 127.12667999999857,
                    "velocity": 0.25984251968503935,
                    "duration": 0.14021325000000218
                },
                {
                    "name": "C4",
                    "midi": 60,
                    "time": 127.12667999999857,
                    "velocity": 0.31496062992125984,
                    "duration": 0.18695100000000764
                },
                {
                    "name": "C3",
                    "midi": 48,
                    "time": 127.31363099999858,
                    "velocity": 0.2204724409448819,
                    "duration": 0.14021325000000218
                },
                {
                    "name": "E3",
                    "midi": 52,
                    "time": 127.31363099999858,
                    "velocity": 0.25984251968503935,
                    "duration": 0.14021325000000218
                },
                {
                    "name": "C3",
                    "midi": 48,
                    "time": 127.50058199999859,
                    "velocity": 0.2204724409448819,
                    "duration": 0.14021325000000218
                },
                {
                    "name": "E3",
                    "midi": 52,
                    "time": 127.50058199999859,
                    "velocity": 0.25984251968503935,
                    "duration": 0.14021325000000218
                },
                {
                    "name": "C3",
                    "midi": 48,
                    "time": 127.6875329999986,
                    "velocity": 0.2204724409448819,
                    "duration": 0.14021325000000218
                },
                {
                    "name": "E3",
                    "midi": 52,
                    "time": 127.6875329999986,
                    "velocity": 0.2677165354330709,
                    "duration": 0.14021325000000218
                },
                {
                    "name": "C3",
                    "midi": 48,
                    "time": 127.8744839999986,
                    "velocity": 0.2204724409448819,
                    "duration": 0.14021324999998797
                },
                {
                    "name": "E3",
                    "midi": 52,
                    "time": 127.8744839999986,
                    "velocity": 0.2677165354330709,
                    "duration": 0.14021324999998797
                },
                {
                    "name": "C3",
                    "midi": 48,
                    "time": 128.0614349999986,
                    "velocity": 0.2204724409448819,
                    "duration": 0.14021324999998797
                },
                {
                    "name": "E3",
                    "midi": 52,
                    "time": 128.0614349999986,
                    "velocity": 0.2677165354330709,
                    "duration": 0.14021324999998797
                },
                {
                    "name": "C3",
                    "midi": 48,
                    "time": 128.2483859999986,
                    "velocity": 0.2283464566929134,
                    "duration": 0.14021324999998797
                },
                {
                    "name": "E3",
                    "midi": 52,
                    "time": 128.2483859999986,
                    "velocity": 0.2755905511811024,
                    "duration": 0.14021324999998797
                },
                {
                    "name": "C3",
                    "midi": 48,
                    "time": 128.43533699999858,
                    "velocity": 0.2283464566929134,
                    "duration": 0.14021324999998797
                },
                {
                    "name": "E3",
                    "midi": 52,
                    "time": 128.43533699999858,
                    "velocity": 0.2755905511811024,
                    "duration": 0.14021324999998797
                },
                {
                    "name": "C3",
                    "midi": 48,
                    "time": 128.62228799999858,
                    "velocity": 0.23622047244094488,
                    "duration": 0.14021324999998797
                },
                {
                    "name": "E3",
                    "midi": 52,
                    "time": 128.62228799999858,
                    "velocity": 0.28346456692913385,
                    "duration": 0.14021324999998797
                },
                {
                    "name": "C3",
                    "midi": 48,
                    "time": 128.80923899999857,
                    "velocity": 0.23622047244094488,
                    "duration": 0.14021324999998797
                },
                {
                    "name": "E3",
                    "midi": 52,
                    "time": 128.80923899999857,
                    "velocity": 0.28346456692913385,
                    "duration": 0.14021324999998797
                },
                {
                    "name": "C3",
                    "midi": 48,
                    "time": 128.99618999999856,
                    "velocity": 0.2440944881889764,
                    "duration": 0.14021324999998797
                },
                {
                    "name": "E3",
                    "midi": 52,
                    "time": 128.99618999999856,
                    "velocity": 0.29133858267716534,
                    "duration": 0.14021324999998797
                },
                {
                    "name": "C3",
                    "midi": 48,
                    "time": 129.18314099999856,
                    "velocity": 0.25196850393700787,
                    "duration": 0.14021324999998797
                },
                {
                    "name": "E3",
                    "midi": 52,
                    "time": 129.18314099999856,
                    "velocity": 0.2992125984251969,
                    "duration": 0.14021324999998797
                },
                {
                    "name": "C3",
                    "midi": 48,
                    "time": 129.37009199999855,
                    "velocity": 0.25984251968503935,
                    "duration": 0.14021324999998797
                },
                {
                    "name": "E3",
                    "midi": 52,
                    "time": 129.37009199999855,
                    "velocity": 0.30708661417322836,
                    "duration": 0.14021324999998797
                },
                {
                    "name": "C3",
                    "midi": 48,
                    "time": 129.55704299999854,
                    "velocity": 0.2677165354330709,
                    "duration": 0.14021324999998797
                },
                {
                    "name": "E3",
                    "midi": 52,
                    "time": 129.55704299999854,
                    "velocity": 0.31496062992125984,
                    "duration": 0.14021324999998797
                },
                {
                    "name": "D3",
                    "midi": 50,
                    "time": 129.74399399999854,
                    "velocity": 0.2677165354330709,
                    "duration": 0.14021324999998797
                },
                {
                    "name": "F#3",
                    "midi": 54,
                    "time": 129.74399399999854,
                    "velocity": 0.31496062992125984,
                    "duration": 0.14021324999998797
                },
                {
                    "name": "D3",
                    "midi": 50,
                    "time": 129.93094499999853,
                    "velocity": 0.2677165354330709,
                    "duration": 0.14021324999998797
                },
                {
                    "name": "F#3",
                    "midi": 54,
                    "time": 129.93094499999853,
                    "velocity": 0.31496062992125984,
                    "duration": 0.14021324999998797
                },
                {
                    "name": "D3",
                    "midi": 50,
                    "time": 130.11789599999852,
                    "velocity": 0.30708661417322836,
                    "duration": 0.5608530000000087
                },
                {
                    "name": "G3",
                    "midi": 55,
                    "time": 130.11789599999852,
                    "velocity": 0.36220472440944884,
                    "duration": 0.5608530000000087
                },
                {
                    "name": "B3",
                    "midi": 59,
                    "time": 130.67874899999853,
                    "velocity": 0.31496062992125984,
                    "duration": 0.09347550000001092
                },
                {
                    "name": "A3",
                    "midi": 57,
                    "time": 130.77222449999854,
                    "velocity": 0.31496062992125984,
                    "duration": 0.09347550000001092
                },
                {
                    "name": "G3",
                    "midi": 55,
                    "time": 130.86569999999855,
                    "velocity": 0.3543307086614173,
                    "duration": 0.09347550000001092
                },
                {
                    "name": "C#6",
                    "midi": 85,
                    "time": 131.56676624999858,
                    "velocity": 0.36220472440944884,
                    "duration": 0.04673775000000546
                },
                {
                    "name": "D6",
                    "midi": 86,
                    "time": 131.61350399999858,
                    "velocity": 0.44881889763779526,
                    "duration": 0.4673774999999978
                },
                {
                    "name": "C6",
                    "midi": 84,
                    "time": 132.08088149999858,
                    "velocity": 0.3779527559055118,
                    "duration": 0.09347550000001092
                },
                {
                    "name": "B5",
                    "midi": 83,
                    "time": 132.1743569999986,
                    "velocity": 0.3700787401574803,
                    "duration": 0.09347550000001092
                },
                {
                    "name": "A5",
                    "midi": 81,
                    "time": 132.2678324999986,
                    "velocity": 0.3543307086614173,
                    "duration": 0.09347550000001092
                },
                {
                    "name": "G5",
                    "midi": 79,
                    "time": 132.36130799999862,
                    "velocity": 0.3464566929133858,
                    "duration": 0.18695099999999343
                },
                {
                    "name": "A#2",
                    "midi": 46,
                    "time": 133.10911199999862,
                    "velocity": 0.2283464566929134,
                    "duration": 0.14021324999998797
                },
                {
                    "name": "D3",
                    "midi": 50,
                    "time": 133.10911199999862,
                    "velocity": 0.2755905511811024,
                    "duration": 0.14021324999998797
                },
                {
                    "name": "A#2",
                    "midi": 46,
                    "time": 133.2960629999986,
                    "velocity": 0.2283464566929134,
                    "duration": 0.14021324999998797
                },
                {
                    "name": "D3",
                    "midi": 50,
                    "time": 133.2960629999986,
                    "velocity": 0.2755905511811024,
                    "duration": 0.14021324999998797
                },
                {
                    "name": "A#2",
                    "midi": 46,
                    "time": 133.4830139999986,
                    "velocity": 0.2283464566929134,
                    "duration": 0.14021324999998797
                },
                {
                    "name": "D3",
                    "midi": 50,
                    "time": 133.4830139999986,
                    "velocity": 0.2755905511811024,
                    "duration": 0.14021324999998797
                },
                {
                    "name": "A#2",
                    "midi": 46,
                    "time": 133.6699649999986,
                    "velocity": 0.23622047244094488,
                    "duration": 0.14021324999998797
                },
                {
                    "name": "D3",
                    "midi": 50,
                    "time": 133.6699649999986,
                    "velocity": 0.28346456692913385,
                    "duration": 0.14021324999998797
                },
                {
                    "name": "A#2",
                    "midi": 46,
                    "time": 133.8569159999986,
                    "velocity": 0.2440944881889764,
                    "duration": 0.14021324999998797
                },
                {
                    "name": "D3",
                    "midi": 50,
                    "time": 133.8569159999986,
                    "velocity": 0.29133858267716534,
                    "duration": 0.14021324999998797
                },
                {
                    "name": "A#2",
                    "midi": 46,
                    "time": 134.04386699999858,
                    "velocity": 0.2440944881889764,
                    "duration": 0.14021324999998797
                },
                {
                    "name": "D3",
                    "midi": 50,
                    "time": 134.04386699999858,
                    "velocity": 0.29133858267716534,
                    "duration": 0.14021324999998797
                },
                {
                    "name": "A#2",
                    "midi": 46,
                    "time": 134.23081799999858,
                    "velocity": 0.25196850393700787,
                    "duration": 0.14021324999998797
                },
                {
                    "name": "D3",
                    "midi": 50,
                    "time": 134.23081799999858,
                    "velocity": 0.2992125984251969,
                    "duration": 0.14021324999998797
                },
                {
                    "name": "A#2",
                    "midi": 46,
                    "time": 134.41776899999857,
                    "velocity": 0.25984251968503935,
                    "duration": 0.14021324999998797
                },
                {
                    "name": "D3",
                    "midi": 50,
                    "time": 134.41776899999857,
                    "velocity": 0.30708661417322836,
                    "duration": 0.14021324999998797
                },
                {
                    "name": "A#2",
                    "midi": 46,
                    "time": 134.60471999999857,
                    "velocity": 0.25984251968503935,
                    "duration": 0.14021324999998797
                },
                {
                    "name": "D3",
                    "midi": 50,
                    "time": 134.60471999999857,
                    "velocity": 0.30708661417322836,
                    "duration": 0.14021324999998797
                },
                {
                    "name": "A#2",
                    "midi": 46,
                    "time": 134.79167099999856,
                    "velocity": 0.2677165354330709,
                    "duration": 0.14021324999998797
                },
                {
                    "name": "D3",
                    "midi": 50,
                    "time": 134.79167099999856,
                    "velocity": 0.31496062992125984,
                    "duration": 0.14021324999998797
                },
                {
                    "name": "A#2",
                    "midi": 46,
                    "time": 134.97862199999855,
                    "velocity": 0.2677165354330709,
                    "duration": 0.14021324999998797
                },
                {
                    "name": "D3",
                    "midi": 50,
                    "time": 134.97862199999855,
                    "velocity": 0.31496062992125984,
                    "duration": 0.14021324999998797
                },
                {
                    "name": "A#2",
                    "midi": 46,
                    "time": 135.16557299999855,
                    "velocity": 0.2677165354330709,
                    "duration": 0.14021324999998797
                },
                {
                    "name": "D3",
                    "midi": 50,
                    "time": 135.16557299999855,
                    "velocity": 0.31496062992125984,
                    "duration": 0.14021324999998797
                },
                {
                    "name": "A#2",
                    "midi": 46,
                    "time": 135.35252399999854,
                    "velocity": 0.2677165354330709,
                    "duration": 0.14021324999998797
                },
                {
                    "name": "D3",
                    "midi": 50,
                    "time": 135.35252399999854,
                    "velocity": 0.31496062992125984,
                    "duration": 0.14021324999998797
                },
                {
                    "name": "A#2",
                    "midi": 46,
                    "time": 135.53947499999853,
                    "velocity": 0.2677165354330709,
                    "duration": 0.14021324999998797
                },
                {
                    "name": "D3",
                    "midi": 50,
                    "time": 135.53947499999853,
                    "velocity": 0.31496062992125984,
                    "duration": 0.14021324999998797
                },
                {
                    "name": "C3",
                    "midi": 48,
                    "time": 135.72642599999853,
                    "velocity": 0.2677165354330709,
                    "duration": 0.14021324999998797
                },
                {
                    "name": "E3",
                    "midi": 52,
                    "time": 135.72642599999853,
                    "velocity": 0.31496062992125984,
                    "duration": 0.14021324999998797
                },
                {
                    "name": "C3",
                    "midi": 48,
                    "time": 135.91337699999852,
                    "velocity": 0.2677165354330709,
                    "duration": 0.14021324999998797
                },
                {
                    "name": "E3",
                    "midi": 52,
                    "time": 135.91337699999852,
                    "velocity": 0.31496062992125984,
                    "duration": 0.14021324999998797
                },
                {
                    "name": "C3",
                    "midi": 48,
                    "time": 136.1003279999985,
                    "velocity": 0.30708661417322836,
                    "duration": 0.5608530000000087
                },
                {
                    "name": "F3",
                    "midi": 53,
                    "time": 136.1003279999985,
                    "velocity": 0.36220472440944884,
                    "duration": 0.5608530000000087
                },
                {
                    "name": "A3",
                    "midi": 57,
                    "time": 136.66118099999852,
                    "velocity": 0.31496062992125984,
                    "duration": 0.09347550000001092
                },
                {
                    "name": "G3",
                    "midi": 55,
                    "time": 136.75465649999853,
                    "velocity": 0.31496062992125984,
                    "duration": 0.09347550000001092
                },
                {
                    "name": "F3",
                    "midi": 53,
                    "time": 136.84813199999854,
                    "velocity": 0.3543307086614173,
                    "duration": 0.09347550000001092
                },
                {
                    "name": "B5",
                    "midi": 83,
                    "time": 137.54919824999857,
                    "velocity": 0.36220472440944884,
                    "duration": 0.04673775000000546
                },
                {
                    "name": "C6",
                    "midi": 84,
                    "time": 137.59593599999857,
                    "velocity": 0.44881889763779526,
                    "duration": 0.4673774999999978
                },
                {
                    "name": "A#5",
                    "midi": 82,
                    "time": 138.06331349999857,
                    "velocity": 0.3937007874015748,
                    "duration": 0.09347550000001092
                },
                {
                    "name": "G#5",
                    "midi": 80,
                    "time": 138.15678899999858,
                    "velocity": 0.3858267716535433,
                    "duration": 0.09347550000001092
                },
                {
                    "name": "G5",
                    "midi": 79,
                    "time": 138.2502644999986,
                    "velocity": 0.3700787401574803,
                    "duration": 0.09347550000001092
                },
                {
                    "name": "F5",
                    "midi": 77,
                    "time": 138.3437399999986,
                    "velocity": 0.36220472440944884,
                    "duration": 0.18695099999999343
                },
                {
                    "name": "E6",
                    "midi": 88,
                    "time": 139.0448062499986,
                    "velocity": 0.5275590551181102,
                    "duration": 0.04673775000000546
                },
                {
                    "name": "F6",
                    "midi": 89,
                    "time": 139.0915439999986,
                    "velocity": 0.5748031496062992,
                    "duration": 1.121705999999989
                },
                {
                    "name": "F6",
                    "midi": 89,
                    "time": 140.2132499999986,
                    "velocity": 0.5826771653543307,
                    "duration": 0.09347550000001092
                },
                {
                    "name": "D#6",
                    "midi": 87,
                    "time": 140.3067254999986,
                    "velocity": 0.5748031496062992,
                    "duration": 0.09347550000001092
                },
                {
                    "name": "D6",
                    "midi": 86,
                    "time": 140.40020099999862,
                    "velocity": 0.5590551181102362,
                    "duration": 0.09347550000001092
                },
                {
                    "name": "C6",
                    "midi": 84,
                    "time": 140.49367649999863,
                    "velocity": 0.5511811023622047,
                    "duration": 0.09347550000001092
                },
                {
                    "name": "B5",
                    "midi": 83,
                    "time": 140.58715199999864,
                    "velocity": 0.5669291338582677,
                    "duration": 0.09347550000001092
                },
                {
                    "name": "C6",
                    "midi": 84,
                    "time": 140.68062749999865,
                    "velocity": 0.5590551181102362,
                    "duration": 0.09347550000001092
                },
                {
                    "name": "D6",
                    "midi": 86,
                    "time": 140.77410299999866,
                    "velocity": 0.5669291338582677,
                    "duration": 0.09347550000001092
                },
                {
                    "name": "D#6",
                    "midi": 87,
                    "time": 140.86757849999867,
                    "velocity": 0.5748031496062992,
                    "duration": 0.09347550000001092
                },
                {
                    "name": "F6",
                    "midi": 89,
                    "time": 140.96105399999868,
                    "velocity": 0.5826771653543307,
                    "duration": 0.09347550000001092
                },
                {
                    "name": "D#6",
                    "midi": 87,
                    "time": 141.0545294999987,
                    "velocity": 0.5669291338582677,
                    "duration": 0.09347550000001092
                },
                {
                    "name": "D6",
                    "midi": 86,
                    "time": 141.1480049999987,
                    "velocity": 0.5590551181102362,
                    "duration": 0.09347550000001092
                },
                {
                    "name": "C6",
                    "midi": 84,
                    "time": 141.24148049999872,
                    "velocity": 0.5433070866141733,
                    "duration": 0.09347550000001092
                },
                {
                    "name": "B5",
                    "midi": 83,
                    "time": 141.33495599999873,
                    "velocity": 0.5669291338582677,
                    "duration": 0.09347550000001092
                },
                {
                    "name": "C6",
                    "midi": 84,
                    "time": 141.42843149999874,
                    "velocity": 0.5905511811023622,
                    "duration": 0.09347550000001092
                },
                {
                    "name": "D6",
                    "midi": 86,
                    "time": 141.52190699999875,
                    "velocity": 0.6062992125984252,
                    "duration": 0.09347550000001092
                },
                {
                    "name": "D#6",
                    "midi": 87,
                    "time": 141.61538249999876,
                    "velocity": 0.6299212598425197,
                    "duration": 0.09347550000001092
                },
                {
                    "name": "F6",
                    "midi": 89,
                    "time": 141.70885799999877,
                    "velocity": 0.6299212598425197,
                    "duration": 0.09347550000001092
                },
                {
                    "name": "D#6",
                    "midi": 87,
                    "time": 141.80233349999878,
                    "velocity": 0.6299212598425197,
                    "duration": 0.09347550000001092
                },
                {
                    "name": "D6",
                    "midi": 86,
                    "time": 141.8958089999988,
                    "velocity": 0.6220472440944882,
                    "duration": 0.09347550000001092
                },
                {
                    "name": "C6",
                    "midi": 84,
                    "time": 141.9892844999988,
                    "velocity": 0.6377952755905512,
                    "duration": 0.09347550000001092
                },
                {
                    "name": "B5",
                    "midi": 83,
                    "time": 142.0827599999988,
                    "velocity": 0.6692913385826772,
                    "duration": 0.09347550000001092
                },
                {
                    "name": "C6",
                    "midi": 84,
                    "time": 142.17623549999882,
                    "velocity": 0.7007874015748031,
                    "duration": 0.09347550000001092
                },
                {
                    "name": "D6",
                    "midi": 86,
                    "time": 142.26971099999884,
                    "velocity": 0.7401574803149606,
                    "duration": 0.09347550000001092
                },
                {
                    "name": "D#6",
                    "midi": 87,
                    "time": 142.36318649999885,
                    "velocity": 0.7716535433070866,
                    "duration": 0.09347550000001092
                },
                {
                    "name": "F6",
                    "midi": 89,
                    "time": 142.45666199999886,
                    "velocity": 0.7874015748031497,
                    "duration": 0.09347550000001092
                },
                {
                    "name": "D#6",
                    "midi": 87,
                    "time": 142.55013749999887,
                    "velocity": 0.7716535433070866,
                    "duration": 0.09347550000001092
                },
                {
                    "name": "D6",
                    "midi": 86,
                    "time": 142.64361299999888,
                    "velocity": 0.7559055118110236,
                    "duration": 0.09347550000001092
                },
                {
                    "name": "C6",
                    "midi": 84,
                    "time": 142.7370884999989,
                    "velocity": 0.7401574803149606,
                    "duration": 0.09347550000001092
                },
                {
                    "name": "B5",
                    "midi": 83,
                    "time": 142.8305639999989,
                    "velocity": 0.7322834645669292,
                    "duration": 0.09347550000001092
                },
                {
                    "name": "G#5",
                    "midi": 80,
                    "time": 142.9240394999989,
                    "velocity": 0.7165354330708661,
                    "duration": 0.09347550000001092
                },
                {
                    "name": "G5",
                    "midi": 79,
                    "time": 143.01751499999892,
                    "velocity": 0.7007874015748031,
                    "duration": 0.09347550000001092
                },
                {
                    "name": "F5",
                    "midi": 77,
                    "time": 143.11099049999893,
                    "velocity": 0.6850393700787402,
                    "duration": 0.09347550000001092
                },
                {
                    "name": "D#5",
                    "midi": 75,
                    "time": 143.20446599999894,
                    "velocity": 0.6692913385826772,
                    "duration": 0.09347550000001092
                },
                {
                    "name": "D5",
                    "midi": 74,
                    "time": 143.29794149999896,
                    "velocity": 0.6535433070866141,
                    "duration": 0.09347550000001092
                },
                {
                    "name": "C5",
                    "midi": 72,
                    "time": 143.39141699999897,
                    "velocity": 0.6377952755905512,
                    "duration": 0.09347550000001092
                },
                {
                    "name": "B4",
                    "midi": 71,
                    "time": 143.48489249999898,
                    "velocity": 0.6220472440944882,
                    "duration": 0.09347550000001092
                },
                {
                    "name": "C5",
                    "midi": 72,
                    "time": 143.578367999999,
                    "velocity": 0.7322834645669292,
                    "duration": 0.14021324999998797
                },
                {
                    "name": "G4",
                    "midi": 67,
                    "time": 143.95226999999898,
                    "velocity": 0.6535433070866141,
                    "duration": 0.14021324999998797
                },
                {
                    "name": "D#4",
                    "midi": 63,
                    "time": 144.32617199999896,
                    "velocity": 0.5669291338582677,
                    "duration": 0.14021324999998797
                },
                {
                    "name": "C4",
                    "midi": 60,
                    "time": 144.70007399999895,
                    "velocity": 0.5039370078740157,
                    "duration": 0.14021324999998797
                },
                {
                    "name": "G3",
                    "midi": 55,
                    "time": 145.07397599999894,
                    "velocity": 0.47244094488188976,
                    "duration": 1.4956080000000043
                },
                {
                    "name": "E4",
                    "midi": 64,
                    "time": 146.56958399999894,
                    "velocity": 0.29133858267716534,
                    "duration": 0.09269653749998952
                },
                {
                    "name": "C4",
                    "midi": 60,
                    "time": 146.66305949999892,
                    "velocity": 0.25984251968503935,
                    "duration": 0.09347550000001092
                },
                {
                    "name": "E4",
                    "midi": 64,
                    "time": 146.75653499999893,
                    "velocity": 0.29133858267716534,
                    "duration": 0.09269653749998952
                },
                {
                    "name": "C4",
                    "midi": 60,
                    "time": 146.85001049999892,
                    "velocity": 0.25984251968503935,
                    "duration": 0.09347550000001092
                },
                {
                    "name": "E4",
                    "midi": 64,
                    "time": 146.94348599999893,
                    "velocity": 0.29133858267716534,
                    "duration": 0.09269653749998952
                },
                {
                    "name": "C4",
                    "midi": 60,
                    "time": 147.0369614999989,
                    "velocity": 0.25984251968503935,
                    "duration": 0.09347550000001092
                },
                {
                    "name": "E4",
                    "midi": 64,
                    "time": 147.13043699999892,
                    "velocity": 0.28346456692913385,
                    "duration": 0.09269653749998952
                },
                {
                    "name": "C4",
                    "midi": 60,
                    "time": 147.2239124999989,
                    "velocity": 0.25984251968503935,
                    "duration": 0.09347550000001092
                },
                {
                    "name": "E4",
                    "midi": 64,
                    "time": 147.3173879999989,
                    "velocity": 0.28346456692913385,
                    "duration": 0.09269653749998952
                },
                {
                    "name": "C4",
                    "midi": 60,
                    "time": 147.4108634999989,
                    "velocity": 0.25984251968503935,
                    "duration": 0.09347550000001092
                },
                {
                    "name": "E4",
                    "midi": 64,
                    "time": 147.5043389999989,
                    "velocity": 0.29133858267716534,
                    "duration": 0.09269653749998952
                },
                {
                    "name": "C4",
                    "midi": 60,
                    "time": 147.5978144999989,
                    "velocity": 0.25984251968503935,
                    "duration": 0.09347550000001092
                },
                {
                    "name": "E4",
                    "midi": 64,
                    "time": 147.6912899999989,
                    "velocity": 0.28346456692913385,
                    "duration": 0.09269653749998952
                },
                {
                    "name": "C4",
                    "midi": 60,
                    "time": 147.78476549999888,
                    "velocity": 0.25984251968503935,
                    "duration": 0.09347550000001092
                },
                {
                    "name": "E4",
                    "midi": 64,
                    "time": 147.8782409999989,
                    "velocity": 0.28346456692913385,
                    "duration": 0.09269653749998952
                },
                {
                    "name": "C4",
                    "midi": 60,
                    "time": 147.97171649999888,
                    "velocity": 0.25984251968503935,
                    "duration": 0.09347550000001092
                },
                {
                    "name": "E4",
                    "midi": 64,
                    "time": 148.0651919999989,
                    "velocity": 0.29133858267716534,
                    "duration": 0.09269653749998952
                },
                {
                    "name": "C4",
                    "midi": 60,
                    "time": 148.15866749999887,
                    "velocity": 0.25984251968503935,
                    "duration": 0.09347550000001092
                },
                {
                    "name": "E4",
                    "midi": 64,
                    "time": 148.25214299999888,
                    "velocity": 0.29133858267716534,
                    "duration": 0.09269653749998952
                },
                {
                    "name": "C4",
                    "midi": 60,
                    "time": 148.34561849999886,
                    "velocity": 0.25984251968503935,
                    "duration": 0.09347550000001092
                },
                {
                    "name": "E4",
                    "midi": 64,
                    "time": 148.43909399999887,
                    "velocity": 0.29133858267716534,
                    "duration": 0.09269653749998952
                },
                {
                    "name": "C4",
                    "midi": 60,
                    "time": 148.53256949999886,
                    "velocity": 0.25984251968503935,
                    "duration": 0.09347550000001092
                },
                {
                    "name": "E4",
                    "midi": 64,
                    "time": 148.62604499999887,
                    "velocity": 0.28346456692913385,
                    "duration": 0.09269653749998952
                },
                {
                    "name": "C4",
                    "midi": 60,
                    "time": 148.71952049999885,
                    "velocity": 0.25984251968503935,
                    "duration": 0.09347550000001092
                },
                {
                    "name": "E4",
                    "midi": 64,
                    "time": 148.81299599999886,
                    "velocity": 0.28346456692913385,
                    "duration": 0.09269653749998952
                },
                {
                    "name": "C4",
                    "midi": 60,
                    "time": 148.90647149999884,
                    "velocity": 0.25984251968503935,
                    "duration": 0.09347550000001092
                },
                {
                    "name": "E4",
                    "midi": 64,
                    "time": 148.99994699999885,
                    "velocity": 0.29133858267716534,
                    "duration": 0.09269653749998952
                },
                {
                    "name": "C4",
                    "midi": 60,
                    "time": 149.09342249999884,
                    "velocity": 0.25984251968503935,
                    "duration": 0.09347550000001092
                },
                {
                    "name": "F#4",
                    "midi": 66,
                    "time": 149.18689799999885,
                    "velocity": 0.28346456692913385,
                    "duration": 0.09269653749998952
                },
                {
                    "name": "D4",
                    "midi": 62,
                    "time": 149.28037349999883,
                    "velocity": 0.25984251968503935,
                    "duration": 0.09347550000001092
                },
                {
                    "name": "F#4",
                    "midi": 66,
                    "time": 149.37384899999884,
                    "velocity": 0.28346456692913385,
                    "duration": 0.09269653749998952
                },
                {
                    "name": "D4",
                    "midi": 62,
                    "time": 149.46732449999882,
                    "velocity": 0.25984251968503935,
                    "duration": 0.09347550000001092
                },
                {
                    "name": "G4",
                    "midi": 67,
                    "time": 149.56079999999884,
                    "velocity": 0.36220472440944884,
                    "duration": 0.5608530000000087
                },
                {
                    "name": "B4",
                    "midi": 71,
                    "time": 150.12165299999884,
                    "velocity": 0.31496062992125984,
                    "duration": 0.09347550000001092
                },
                {
                    "name": "A4",
                    "midi": 69,
                    "time": 150.21512849999885,
                    "velocity": 0.31496062992125984,
                    "duration": 0.09347550000001092
                },
                {
                    "name": "G4",
                    "midi": 67,
                    "time": 150.30860399999887,
                    "velocity": 0.3543307086614173,
                    "duration": 0.09347550000001092
                },
                {
                    "name": "C#6",
                    "midi": 85,
                    "time": 151.0096702499989,
                    "velocity": 0.36220472440944884,
                    "duration": 0.04673775000000546
                },
                {
                    "name": "D6",
                    "midi": 86,
                    "time": 151.0564079999989,
                    "velocity": 0.44881889763779526,
                    "duration": 0.4673774999999978
                },
                {
                    "name": "C6",
                    "midi": 84,
                    "time": 151.5237854999989,
                    "velocity": 0.3779527559055118,
                    "duration": 0.09347550000001092
                },
                {
                    "name": "B5",
                    "midi": 83,
                    "time": 151.6172609999989,
                    "velocity": 0.3700787401574803,
                    "duration": 0.09347550000001092
                },
                {
                    "name": "A5",
                    "midi": 81,
                    "time": 151.71073649999892,
                    "velocity": 0.3543307086614173,
                    "duration": 0.09347550000001092
                },
                {
                    "name": "G5",
                    "midi": 79,
                    "time": 151.80421199999893,
                    "velocity": 0.3464566929133858,
                    "duration": 0.18695099999999343
                },
                {
                    "name": "F4",
                    "midi": 65,
                    "time": 152.55201599999893,
                    "velocity": 0.31496062992125984,
                    "duration": 0.09269653749998952
                },
                {
                    "name": "D4",
                    "midi": 62,
                    "time": 152.6454914999989,
                    "velocity": 0.28346456692913385,
                    "duration": 0.09347550000001092
                },
                {
                    "name": "F4",
                    "midi": 65,
                    "time": 152.73896699999892,
                    "velocity": 0.31496062992125984,
                    "duration": 0.09269653749998952
                },
                {
                    "name": "D4",
                    "midi": 62,
                    "time": 152.8324424999989,
                    "velocity": 0.28346456692913385,
                    "duration": 0.09347550000001092
                },
                {
                    "name": "F4",
                    "midi": 65,
                    "time": 152.92591799999892,
                    "velocity": 0.31496062992125984,
                    "duration": 0.09269653749998952
                },
                {
                    "name": "D4",
                    "midi": 62,
                    "time": 153.0193934999989,
                    "velocity": 0.28346456692913385,
                    "duration": 0.09347550000001092
                },
                {
                    "name": "F4",
                    "midi": 65,
                    "time": 153.1128689999989,
                    "velocity": 0.30708661417322836,
                    "duration": 0.09269653749998952
                },
                {
                    "name": "D4",
                    "midi": 62,
                    "time": 153.2063444999989,
                    "velocity": 0.28346456692913385,
                    "duration": 0.09347550000001092
                },
                {
                    "name": "F4",
                    "midi": 65,
                    "time": 153.2998199999989,
                    "velocity": 0.30708661417322836,
                    "duration": 0.09269653749998952
                },
                {
                    "name": "D4",
                    "midi": 62,
                    "time": 153.39329549999889,
                    "velocity": 0.28346456692913385,
                    "duration": 0.09347550000001092
                },
                {
                    "name": "F4",
                    "midi": 65,
                    "time": 153.4867709999989,
                    "velocity": 0.3228346456692913,
                    "duration": 0.09269653749998952
                },
                {
                    "name": "D4",
                    "midi": 62,
                    "time": 153.58024649999888,
                    "velocity": 0.28346456692913385,
                    "duration": 0.09347550000001092
                },
                {
                    "name": "F4",
                    "midi": 65,
                    "time": 153.6737219999989,
                    "velocity": 0.31496062992125984,
                    "duration": 0.09269653749998952
                },
                {
                    "name": "D4",
                    "midi": 62,
                    "time": 153.76719749999887,
                    "velocity": 0.29133858267716534,
                    "duration": 0.09347550000001092
                },
                {
                    "name": "F4",
                    "midi": 65,
                    "time": 153.86067299999888,
                    "velocity": 0.31496062992125984,
                    "duration": 0.09269653749998952
                },
                {
                    "name": "D4",
                    "midi": 62,
                    "time": 153.95414849999887,
                    "velocity": 0.29133858267716534,
                    "duration": 0.09347550000001092
                },
                {
                    "name": "F4",
                    "midi": 65,
                    "time": 154.04762399999888,
                    "velocity": 0.3228346456692913,
                    "duration": 0.09269653749998952
                },
                {
                    "name": "D4",
                    "midi": 62,
                    "time": 154.14109949999886,
                    "velocity": 0.29133858267716534,
                    "duration": 0.09347550000001092
                },
                {
                    "name": "F4",
                    "midi": 65,
                    "time": 154.23457499999887,
                    "velocity": 0.3228346456692913,
                    "duration": 0.09269653749998952
                },
                {
                    "name": "D4",
                    "midi": 62,
                    "time": 154.32805049999885,
                    "velocity": 0.29133858267716534,
                    "duration": 0.09347550000001092
                },
                {
                    "name": "F4",
                    "midi": 65,
                    "time": 154.42152599999886,
                    "velocity": 0.33070866141732286,
                    "duration": 0.09269653749998952
                },
                {
                    "name": "D4",
                    "midi": 62,
                    "time": 154.51500149999885,
                    "velocity": 0.29133858267716534,
                    "duration": 0.09347550000001092
                },
                {
                    "name": "F4",
                    "midi": 65,
                    "time": 154.60847699999886,
                    "velocity": 0.3228346456692913,
                    "duration": 0.09269653749998952
                },
                {
                    "name": "D4",
                    "midi": 62,
                    "time": 154.70195249999884,
                    "velocity": 0.2992125984251969,
                    "duration": 0.09347550000001092
                },
                {
                    "name": "F4",
                    "midi": 65,
                    "time": 154.79542799999885,
                    "velocity": 0.3228346456692913,
                    "duration": 0.09269653749998952
                },
                {
                    "name": "D4",
                    "midi": 62,
                    "time": 154.88890349999883,
                    "velocity": 0.2992125984251969,
                    "duration": 0.09347550000001092
                },
                {
                    "name": "F4",
                    "midi": 65,
                    "time": 154.98237899999884,
                    "velocity": 0.33070866141732286,
                    "duration": 0.09269653749998952
                },
                {
                    "name": "D4",
                    "midi": 62,
                    "time": 155.07585449999883,
                    "velocity": 0.2992125984251969,
                    "duration": 0.09347550000001092
                },
                {
                    "name": "G#4",
                    "midi": 68,
                    "time": 155.16932999999884,
                    "velocity": 0.3228346456692913,
                    "duration": 0.09269653749998952
                },
                {
                    "name": "E4",
                    "midi": 64,
                    "time": 155.26280549999882,
                    "velocity": 0.2992125984251969,
                    "duration": 0.09347550000001092
                },
                {
                    "name": "G#4",
                    "midi": 68,
                    "time": 155.35628099999883,
                    "velocity": 0.33070866141732286,
                    "duration": 0.09269653749998952
                },
                {
                    "name": "E4",
                    "midi": 64,
                    "time": 155.4497564999988,
                    "velocity": 0.2992125984251969,
                    "duration": 0.09347550000001092
                },
                {
                    "name": "A4",
                    "midi": 69,
                    "time": 155.54323199999882,
                    "velocity": 0.4330708661417323,
                    "duration": 0.5608530000000087
                },
                {
                    "name": "C5",
                    "midi": 72,
                    "time": 156.10408499999883,
                    "velocity": 0.3779527559055118,
                    "duration": 0.09347550000001092
                },
                {
                    "name": "B4",
                    "midi": 71,
                    "time": 156.19756049999884,
                    "velocity": 0.3779527559055118,
                    "duration": 0.09347550000001092
                },
                {
                    "name": "A4",
                    "midi": 69,
                    "time": 156.29103599999885,
                    "velocity": 0.41732283464566927,
                    "duration": 0.09347550000001092
                },
                {
                    "name": "D#6",
                    "midi": 87,
                    "time": 156.99210224999888,
                    "velocity": 0.4330708661417323,
                    "duration": 0.04673775000000546
                },
                {
                    "name": "E6",
                    "midi": 88,
                    "time": 157.03883999999888,
                    "velocity": 0.5354330708661418,
                    "duration": 0.4673774999999978
                },
                {
                    "name": "D6",
                    "midi": 86,
                    "time": 157.50621749999888,
                    "velocity": 0.4645669291338583,
                    "duration": 0.09347550000001092
                },
                {
                    "name": "C6",
                    "midi": 84,
                    "time": 157.5996929999989,
                    "velocity": 0.4566929133858268,
                    "duration": 0.09347550000001092
                },
                {
                    "name": "B5",
                    "midi": 83,
                    "time": 157.6931684999989,
                    "velocity": 0.44881889763779526,
                    "duration": 0.09347550000001092
                },
                {
                    "name": "A5",
                    "midi": 81,
                    "time": 157.78664399999892,
                    "velocity": 0.44881889763779526,
                    "duration": 0.18695099999999343
                },
                {
                    "name": "D#6",
                    "midi": 87,
                    "time": 158.4877102499989,
                    "velocity": 0.5196850393700787,
                    "duration": 0.04673775000000546
                },
                {
                    "name": "E6",
                    "midi": 88,
                    "time": 158.53444799999892,
                    "velocity": 0.6692913385826772,
                    "duration": 0.4673774999999978
                },
                {
                    "name": "D6",
                    "midi": 86,
                    "time": 159.00182549999892,
                    "velocity": 0.5984251968503937,
                    "duration": 0.09347550000001092
                },
                {
                    "name": "C6",
                    "midi": 84,
                    "time": 159.09530099999893,
                    "velocity": 0.5905511811023622,
                    "duration": 0.09347550000001092
                },
                {
                    "name": "B5",
                    "midi": 83,
                    "time": 159.18877649999894,
                    "velocity": 0.5590551181102362,
                    "duration": 0.09347550000001092
                },
                {
                    "name": "A#5",
                    "midi": 82,
                    "time": 159.28225199999895,
                    "velocity": 0.5590551181102362,
                    "duration": 0.18695099999999343
                },
                {
                    "name": "B5",
                    "midi": 83,
                    "time": 160.03005599999895,
                    "velocity": 0.4409448818897638,
                    "duration": 0.4829567499999996
                },
                {
                    "name": "A5",
                    "midi": 81,
                    "time": 160.49743349999895,
                    "velocity": 0.4251968503937008,
                    "duration": 0.10905475000001275
                },
                {
                    "name": "G5",
                    "midi": 79,
                    "time": 160.59090899999896,
                    "velocity": 0.41732283464566927,
                    "duration": 0.10905475000001275
                },
                {
                    "name": "F#5",
                    "midi": 78,
                    "time": 160.68438449999897,
                    "velocity": 0.4015748031496063,
                    "duration": 0.10905475000001275
                },
                {
                    "name": "G5",
                    "midi": 79,
                    "time": 160.77785999999898,
                    "velocity": 0.41732283464566927,
                    "duration": 0.10905475000001275
                },
                {
                    "name": "F#5",
                    "midi": 78,
                    "time": 160.871335499999,
                    "velocity": 0.4094488188976378,
                    "duration": 0.10905475000001275
                },
                {
                    "name": "E5",
                    "midi": 76,
                    "time": 160.964810999999,
                    "velocity": 0.4015748031496063,
                    "duration": 0.10905475000001275
                },
                {
                    "name": "D#5",
                    "midi": 75,
                    "time": 161.058286499999,
                    "velocity": 0.3937007874015748,
                    "duration": 0.10905475000001275
                },
                {
                    "name": "E5",
                    "midi": 76,
                    "time": 161.15176199999902,
                    "velocity": 0.3937007874015748,
                    "duration": 0.10905475000001275
                },
                {
                    "name": "G5",
                    "midi": 79,
                    "time": 161.24523749999904,
                    "velocity": 0.4094488188976378,
                    "duration": 0.10905475000001275
                },
                {
                    "name": "F#5",
                    "midi": 78,
                    "time": 161.33871299999905,
                    "velocity": 0.3937007874015748,
                    "duration": 0.10905475000001275
                },
                {
                    "name": "E5",
                    "midi": 76,
                    "time": 161.43218849999906,
                    "velocity": 0.3937007874015748,
                    "duration": 0.10905475000001275
                },
                {
                    "name": "D#5",
                    "midi": 75,
                    "time": 161.52566399999907,
                    "velocity": 0.3937007874015748,
                    "duration": 0.10905475000001275
                },
                {
                    "name": "C#5",
                    "midi": 73,
                    "time": 161.61913949999908,
                    "velocity": 0.3858267716535433,
                    "duration": 0.10905475000001275
                },
                {
                    "name": "B4",
                    "midi": 71,
                    "time": 161.7126149999991,
                    "velocity": 0.3779527559055118,
                    "duration": 0.10905475000001275
                },
                {
                    "name": "A#4",
                    "midi": 70,
                    "time": 161.8060904999991,
                    "velocity": 0.3700787401574803,
                    "duration": 0.10905475000001275
                },
                {
                    "name": "B4",
                    "midi": 71,
                    "time": 161.8995659999991,
                    "velocity": 0.3858267716535433,
                    "duration": 0.10905475000001275
                },
                {
                    "name": "C#5",
                    "midi": 73,
                    "time": 161.99304149999912,
                    "velocity": 0.3858267716535433,
                    "duration": 0.10905475000001275
                },
                {
                    "name": "D5",
                    "midi": 74,
                    "time": 162.08651699999913,
                    "velocity": 0.3858267716535433,
                    "duration": 0.10905475000001275
                },
                {
                    "name": "D#5",
                    "midi": 75,
                    "time": 162.17999249999914,
                    "velocity": 0.3937007874015748,
                    "duration": 0.10905475000001275
                },
                {
                    "name": "E5",
                    "midi": 76,
                    "time": 162.27346799999916,
                    "velocity": 0.3937007874015748,
                    "duration": 0.10905475000001275
                },
                {
                    "name": "D#5",
                    "midi": 75,
                    "time": 162.36694349999917,
                    "velocity": 0.3937007874015748,
                    "duration": 0.10905475000001275
                },
                {
                    "name": "E5",
                    "midi": 76,
                    "time": 162.46041899999918,
                    "velocity": 0.4015748031496063,
                    "duration": 0.10905475000001275
                },
                {
                    "name": "F#5",
                    "midi": 78,
                    "time": 162.5538944999992,
                    "velocity": 0.4015748031496063,
                    "duration": 0.10905475000001275
                },
                {
                    "name": "G5",
                    "midi": 79,
                    "time": 162.6473699999992,
                    "velocity": 0.3858267716535433,
                    "duration": 0.10905475000001275
                },
                {
                    "name": "G#5",
                    "midi": 80,
                    "time": 162.7408454999992,
                    "velocity": 0.3937007874015748,
                    "duration": 0.10905475000001275
                },
                {
                    "name": "A5",
                    "midi": 81,
                    "time": 162.83432099999922,
                    "velocity": 0.4094488188976378,
                    "duration": 0.10905475000001275
                },
                {
                    "name": "A#5",
                    "midi": 82,
                    "time": 162.92779649999923,
                    "velocity": 0.41732283464566927,
                    "duration": 0.10905475000001275
                },
                {
                    "name": "B5",
                    "midi": 83,
                    "time": 163.02127199999924,
                    "velocity": 0.4330708661417323,
                    "duration": 0.10905475000001275
                },
                {
                    "name": "A#5",
                    "midi": 82,
                    "time": 163.11474749999925,
                    "velocity": 0.41732283464566927,
                    "duration": 0.10905475000001275
                },
                {
                    "name": "B5",
                    "midi": 83,
                    "time": 163.20822299999926,
                    "velocity": 0.41732283464566927,
                    "duration": 0.10905475000001275
                },
                {
                    "name": "A#5",
                    "midi": 82,
                    "time": 163.30169849999928,
                    "velocity": 0.3937007874015748,
                    "duration": 0.10905475000001275
                },
                {
                    "name": "B5",
                    "midi": 83,
                    "time": 163.3951739999993,
                    "velocity": 0.4094488188976378,
                    "duration": 0.10905475000001275
                },
                {
                    "name": "A5",
                    "midi": 81,
                    "time": 163.4886494999993,
                    "velocity": 0.4094488188976378,
                    "duration": 0.10905475000001275
                },
                {
                    "name": "G5",
                    "midi": 79,
                    "time": 163.5821249999993,
                    "velocity": 0.4015748031496063,
                    "duration": 0.10905475000001275
                },
                {
                    "name": "F#5",
                    "midi": 78,
                    "time": 163.67560049999932,
                    "velocity": 0.3937007874015748,
                    "duration": 0.10905475000001275
                },
                {
                    "name": "G5",
                    "midi": 79,
                    "time": 163.76907599999933,
                    "velocity": 0.4094488188976378,
                    "duration": 0.10905475000001275
                },
                {
                    "name": "F#5",
                    "midi": 78,
                    "time": 163.86255149999934,
                    "velocity": 0.4015748031496063,
                    "duration": 0.10905475000001275
                },
                {
                    "name": "E5",
                    "midi": 76,
                    "time": 163.95602699999935,
                    "velocity": 0.3858267716535433,
                    "duration": 0.10905475000001275
                },
                {
                    "name": "D#5",
                    "midi": 75,
                    "time": 164.04950249999936,
                    "velocity": 0.3937007874015748,
                    "duration": 0.10905475000001275
                },
                {
                    "name": "E5",
                    "midi": 76,
                    "time": 164.14297799999937,
                    "velocity": 0.3937007874015748,
                    "duration": 0.10905475000001275
                },
                {
                    "name": "G5",
                    "midi": 79,
                    "time": 164.23645349999939,
                    "velocity": 0.41732283464566927,
                    "duration": 0.10905475000001275
                },
                {
                    "name": "F#5",
                    "midi": 78,
                    "time": 164.3299289999994,
                    "velocity": 0.3937007874015748,
                    "duration": 0.10905475000001275
                },
                {
                    "name": "E5",
                    "midi": 76,
                    "time": 164.4234044999994,
                    "velocity": 0.3937007874015748,
                    "duration": 0.10905475000001275
                },
                {
                    "name": "D#5",
                    "midi": 75,
                    "time": 164.51687999999942,
                    "velocity": 0.3937007874015748,
                    "duration": 0.10905475000001275
                },
                {
                    "name": "C#5",
                    "midi": 73,
                    "time": 164.61035549999943,
                    "velocity": 0.3858267716535433,
                    "duration": 0.10905475000001275
                },
                {
                    "name": "B4",
                    "midi": 71,
                    "time": 164.70383099999944,
                    "velocity": 0.3779527559055118,
                    "duration": 0.10905475000001275
                },
                {
                    "name": "A#4",
                    "midi": 70,
                    "time": 164.79730649999945,
                    "velocity": 0.3700787401574803,
                    "duration": 0.10905475000001275
                },
                {
                    "name": "B4",
                    "midi": 71,
                    "time": 164.89078199999946,
                    "velocity": 0.3858267716535433,
                    "duration": 0.10905475000001275
                },
                {
                    "name": "C#5",
                    "midi": 73,
                    "time": 164.98425749999947,
                    "velocity": 0.3937007874015748,
                    "duration": 0.10905475000001275
                },
                {
                    "name": "D5",
                    "midi": 74,
                    "time": 165.07773299999948,
                    "velocity": 0.3937007874015748,
                    "duration": 0.10905475000001275
                },
                {
                    "name": "D#5",
                    "midi": 75,
                    "time": 165.1712084999995,
                    "velocity": 0.4094488188976378,
                    "duration": 0.10905475000001275
                },
                {
                    "name": "E5",
                    "midi": 76,
                    "time": 165.2646839999995,
                    "velocity": 0.4094488188976378,
                    "duration": 0.10905475000001275
                },
                {
                    "name": "D#5",
                    "midi": 75,
                    "time": 165.35815949999952,
                    "velocity": 0.4094488188976378,
                    "duration": 0.10905475000001275
                },
                {
                    "name": "E5",
                    "midi": 76,
                    "time": 165.45163499999953,
                    "velocity": 0.4251968503937008,
                    "duration": 0.10905475000001275
                },
                {
                    "name": "F#5",
                    "midi": 78,
                    "time": 165.54511049999954,
                    "velocity": 0.4251968503937008,
                    "duration": 0.10905475000001275
                },
                {
                    "name": "G5",
                    "midi": 79,
                    "time": 165.63858599999955,
                    "velocity": 0.4409448818897638,
                    "duration": 0.10905475000001275
                },
                {
                    "name": "G#5",
                    "midi": 80,
                    "time": 165.73206149999956,
                    "velocity": 0.4566929133858268,
                    "duration": 0.10905475000001275
                },
                {
                    "name": "A5",
                    "midi": 81,
                    "time": 165.82553699999957,
                    "velocity": 0.47244094488188976,
                    "duration": 0.10905475000001275
                },
                {
                    "name": "A#5",
                    "midi": 82,
                    "time": 165.91901249999958,
                    "velocity": 0.4881889763779528,
                    "duration": 0.10905475000001275
                },
                {
                    "name": "B5",
                    "midi": 83,
                    "time": 166.0124879999996,
                    "velocity": 0.5354330708661418,
                    "duration": 0.09347550000001092
                },
                {
                    "name": "F#5",
                    "midi": 78,
                    "time": 166.1059634999996,
                    "velocity": 0.47244094488188976,
                    "duration": 0.09347550000001092
                },
                {
                    "name": "D#5",
                    "midi": 75,
                    "time": 166.19943899999961,
                    "velocity": 0.48031496062992124,
                    "duration": 0.09347550000001092
                },
                {
                    "name": "B4",
                    "midi": 71,
                    "time": 166.29291449999963,
                    "velocity": 0.48031496062992124,
                    "duration": 0.09347550000001092
                },
                {
                    "name": "A#4",
                    "midi": 70,
                    "time": 166.38638999999964,
                    "velocity": 0.5905511811023622,
                    "duration": 0.09347550000001092
                },
                {
                    "name": "B4",
                    "midi": 71,
                    "time": 166.47986549999965,
                    "velocity": 0.49606299212598426,
                    "duration": 0.09347550000001092
                },
                {
                    "name": "E5",
                    "midi": 76,
                    "time": 166.57334099999966,
                    "velocity": 0.49606299212598426,
                    "duration": 0.09347550000001092
                },
                {
                    "name": "G5",
                    "midi": 79,
                    "time": 166.66681649999967,
                    "velocity": 0.49606299212598426,
                    "duration": 0.09347550000001092
                },
                {
                    "name": "B5",
                    "midi": 83,
                    "time": 166.76029199999968,
                    "velocity": 0.5826771653543307,
                    "duration": 0.09347550000001092
                },
                {
                    "name": "F#5",
                    "midi": 78,
                    "time": 166.8537674999997,
                    "velocity": 0.5118110236220472,
                    "duration": 0.09347550000001092
                },
                {
                    "name": "D#5",
                    "midi": 75,
                    "time": 166.9472429999997,
                    "velocity": 0.5354330708661418,
                    "duration": 0.09347550000001092
                },
                {
                    "name": "B4",
                    "midi": 71,
                    "time": 167.0407184999997,
                    "velocity": 0.5354330708661418,
                    "duration": 0.09347550000001092
                },
                {
                    "name": "A#4",
                    "midi": 70,
                    "time": 167.13419399999972,
                    "velocity": 0.6299212598425197,
                    "duration": 0.09347550000001092
                },
                {
                    "name": "B4",
                    "midi": 71,
                    "time": 167.22766949999973,
                    "velocity": 0.5590551181102362,
                    "duration": 0.09347550000001092
                },
                {
                    "name": "E5",
                    "midi": 76,
                    "time": 167.32114499999975,
                    "velocity": 0.5590551181102362,
                    "duration": 0.09347550000001092
                },
                {
                    "name": "G5",
                    "midi": 79,
                    "time": 167.41462049999976,
                    "velocity": 0.5669291338582677,
                    "duration": 0.09347550000001092
                },
                {
                    "name": "B5",
                    "midi": 83,
                    "time": 167.50809599999977,
                    "velocity": 0.7165354330708661,
                    "duration": 0.09347550000001092
                },
                {
                    "name": "F#5",
                    "midi": 78,
                    "time": 167.60157149999978,
                    "velocity": 0.6456692913385826,
                    "duration": 0.09347550000001092
                },
                {
                    "name": "D#5",
                    "midi": 75,
                    "time": 167.6950469999998,
                    "velocity": 0.6456692913385826,
                    "duration": 0.09347550000001092
                },
                {
                    "name": "B4",
                    "midi": 71,
                    "time": 167.7885224999998,
                    "velocity": 0.6456692913385826,
                    "duration": 0.09347550000001092
                },
                {
                    "name": "B5",
                    "midi": 83,
                    "time": 167.8819979999998,
                    "velocity": 0.7165354330708661,
                    "duration": 0.09347550000001092
                },
                {
                    "name": "G5",
                    "midi": 79,
                    "time": 167.97547349999982,
                    "velocity": 0.6456692913385826,
                    "duration": 0.09347550000001092
                },
                {
                    "name": "E5",
                    "midi": 76,
                    "time": 168.06894899999983,
                    "velocity": 0.6456692913385826,
                    "duration": 0.09347550000001092
                },
                {
                    "name": "B4",
                    "midi": 71,
                    "time": 168.16242449999984,
                    "velocity": 0.6456692913385826,
                    "duration": 0.09347550000001092
                },
                {
                    "name": "B5",
                    "midi": 83,
                    "time": 168.25589999999985,
                    "velocity": 0.7165354330708661,
                    "duration": 0.09347550000001092
                },
                {
                    "name": "F#5",
                    "midi": 78,
                    "time": 168.34937549999987,
                    "velocity": 0.6456692913385826,
                    "duration": 0.09347550000001092
                },
                {
                    "name": "D#5",
                    "midi": 75,
                    "time": 168.44285099999988,
                    "velocity": 0.6377952755905512,
                    "duration": 0.09347550000001092
                },
                {
                    "name": "B4",
                    "midi": 71,
                    "time": 168.5363264999999,
                    "velocity": 0.6377952755905512,
                    "duration": 0.09347550000001092
                },
                {
                    "name": "B5",
                    "midi": 83,
                    "time": 168.6298019999999,
                    "velocity": 0.7165354330708661,
                    "duration": 0.09347550000001092
                },
                {
                    "name": "G5",
                    "midi": 79,
                    "time": 168.7232774999999,
                    "velocity": 0.6377952755905512,
                    "duration": 0.09347550000001092
                },
                {
                    "name": "E5",
                    "midi": 76,
                    "time": 168.81675299999992,
                    "velocity": 0.6377952755905512,
                    "duration": 0.09347550000001092
                },
                {
                    "name": "B4",
                    "midi": 71,
                    "time": 168.91022849999993,
                    "velocity": 0.6456692913385826,
                    "duration": 0.09347550000001092
                },
                {
                    "name": "B5",
                    "midi": 83,
                    "time": 169.00370399999994,
                    "velocity": 0.7165354330708661,
                    "duration": 0.09347550000001092
                },
                {
                    "name": "F#5",
                    "midi": 78,
                    "time": 169.09717949999995,
                    "velocity": 0.6456692913385826,
                    "duration": 0.09347550000001092
                },
                {
                    "name": "D#5",
                    "midi": 75,
                    "time": 169.19065499999996,
                    "velocity": 0.6456692913385826,
                    "duration": 0.09347550000001092
                },
                {
                    "name": "B4",
                    "midi": 71,
                    "time": 169.28413049999997,
                    "velocity": 0.6456692913385826,
                    "duration": 0.09347550000001092
                },
                {
                    "name": "F#5",
                    "midi": 78,
                    "time": 169.377606,
                    "velocity": 0.7165354330708661,
                    "duration": 0.09347550000001092
                },
                {
                    "name": "D#5",
                    "midi": 75,
                    "time": 169.4710815,
                    "velocity": 0.6456692913385826,
                    "duration": 0.09347550000001092
                },
                {
                    "name": "B4",
                    "midi": 71,
                    "time": 169.564557,
                    "velocity": 0.6456692913385826,
                    "duration": 0.09347550000001092
                },
                {
                    "name": "F#4",
                    "midi": 66,
                    "time": 169.65803250000002,
                    "velocity": 0.6456692913385826,
                    "duration": 0.09347550000001092
                },
                {
                    "name": "D#5",
                    "midi": 75,
                    "time": 169.75150800000003,
                    "velocity": 0.7165354330708661,
                    "duration": 0.09347550000001092
                },
                {
                    "name": "B4",
                    "midi": 71,
                    "time": 169.84498350000004,
                    "velocity": 0.6456692913385826,
                    "duration": 0.09347550000001092
                },
                {
                    "name": "F#4",
                    "midi": 66,
                    "time": 169.93845900000005,
                    "velocity": 0.6377952755905512,
                    "duration": 0.09347550000001092
                },
                {
                    "name": "D#4",
                    "midi": 63,
                    "time": 170.03193450000006,
                    "velocity": 0.6377952755905512,
                    "duration": 0.09347550000001092
                },
                {
                    "name": "B4",
                    "midi": 71,
                    "time": 170.12541000000007,
                    "velocity": 0.7165354330708661,
                    "duration": 0.09347550000001092
                },
                {
                    "name": "F#4",
                    "midi": 66,
                    "time": 170.21888550000008,
                    "velocity": 0.6377952755905512,
                    "duration": 0.09347550000001092
                },
                {
                    "name": "D#4",
                    "midi": 63,
                    "time": 170.3123610000001,
                    "velocity": 0.6377952755905512,
                    "duration": 0.09347550000001092
                },
                {
                    "name": "B3",
                    "midi": 59,
                    "time": 170.4058365000001,
                    "velocity": 0.6456692913385826,
                    "duration": 0.09347550000001092
                },
                {
                    "name": "F#4",
                    "midi": 66,
                    "time": 170.49931200000012,
                    "velocity": 0.7165354330708661,
                    "duration": 0.09347550000001092
                },
                {
                    "name": "D#4",
                    "midi": 63,
                    "time": 170.59278750000013,
                    "velocity": 0.6377952755905512,
                    "duration": 0.09347550000001092
                },
                {
                    "name": "B3",
                    "midi": 59,
                    "time": 170.68626300000014,
                    "velocity": 0.6299212598425197,
                    "duration": 0.09347550000001092
                },
                {
                    "name": "F#3",
                    "midi": 54,
                    "time": 170.77973850000015,
                    "velocity": 0.6299212598425197,
                    "duration": 0.09347550000001092
                },
                {
                    "name": "D#4",
                    "midi": 63,
                    "time": 170.87321400000016,
                    "velocity": 0.7007874015748031,
                    "duration": 0.09347550000001092
                },
                {
                    "name": "B3",
                    "midi": 59,
                    "time": 170.96668950000017,
                    "velocity": 0.6220472440944882,
                    "duration": 0.09347550000001092
                },
                {
                    "name": "F#3",
                    "midi": 54,
                    "time": 171.06016500000018,
                    "velocity": 0.6220472440944882,
                    "duration": 0.09347550000001092
                },
                {
                    "name": "D#3",
                    "midi": 51,
                    "time": 171.1536405000002,
                    "velocity": 0.6141732283464567,
                    "duration": 0.09347550000001092
                },
                {
                    "name": "B3",
                    "midi": 59,
                    "time": 171.2471160000002,
                    "velocity": 0.6850393700787402,
                    "duration": 0.09347550000001092
                },
                {
                    "name": "F#3",
                    "midi": 54,
                    "time": 171.34059150000022,
                    "velocity": 0.6141732283464567,
                    "duration": 0.09347550000001092
                },
                {
                    "name": "D#3",
                    "midi": 51,
                    "time": 171.43406700000023,
                    "velocity": 0.6062992125984252,
                    "duration": 0.09347550000001092
                },
                {
                    "name": "B2",
                    "midi": 47,
                    "time": 171.52754250000024,
                    "velocity": 0.6062992125984252,
                    "duration": 0.09347550000001092
                },
                {
                    "name": "B4",
                    "midi": 71,
                    "time": 172.74272400000024,
                    "velocity": 0.5905511811023622,
                    "duration": 0.09347550000001092
                },
                {
                    "name": "B3",
                    "midi": 59,
                    "time": 172.92967500000026,
                    "velocity": 0.5433070866141733,
                    "duration": 0.09347550000001092
                },
                {
                    "name": "C#5",
                    "midi": 73,
                    "time": 173.11662600000028,
                    "velocity": 0.5826771653543307,
                    "duration": 0.09347550000001092
                },
                {
                    "name": "C#4",
                    "midi": 61,
                    "time": 173.3035770000003,
                    "velocity": 0.5118110236220472,
                    "duration": 0.09347550000001092
                },
                {
                    "name": "D#5",
                    "midi": 75,
                    "time": 173.49052800000032,
                    "velocity": 0.5590551181102362,
                    "duration": 0.09347550000001092
                },
                {
                    "name": "D#4",
                    "midi": 63,
                    "time": 173.67747900000035,
                    "velocity": 0.5039370078740157,
                    "duration": 0.09347550000001092
                },
                {
                    "name": "D#5",
                    "midi": 75,
                    "time": 174.23833200000036,
                    "velocity": 0.5275590551181102,
                    "duration": 0.09347550000001092
                },
                {
                    "name": "D#4",
                    "midi": 63,
                    "time": 174.42528300000038,
                    "velocity": 0.41732283464566927,
                    "duration": 0.09347550000001092
                },
                {
                    "name": "E5",
                    "midi": 76,
                    "time": 174.6122340000004,
                    "velocity": 0.4645669291338583,
                    "duration": 0.09347550000001092
                },
                {
                    "name": "E4",
                    "midi": 64,
                    "time": 174.79918500000042,
                    "velocity": 0.3937007874015748,
                    "duration": 0.09347550000001092
                },
                {
                    "name": "F#5",
                    "midi": 78,
                    "time": 174.98613600000044,
                    "velocity": 0.4094488188976378,
                    "duration": 0.09347550000001092
                },
                {
                    "name": "F#4",
                    "midi": 66,
                    "time": 175.17308700000046,
                    "velocity": 0.3858267716535433,
                    "duration": 0.09347550000001092
                },
                {
                    "name": "G#5",
                    "midi": 80,
                    "time": 175.3600380000005,
                    "velocity": 0.4094488188976378,
                    "duration": 0.09347550000001092
                },
                {
                    "name": "G#4",
                    "midi": 68,
                    "time": 175.5469890000005,
                    "velocity": 0.3858267716535433,
                    "duration": 0.09347550000001092
                },
                {
                    "name": "A5",
                    "midi": 81,
                    "time": 175.73394000000053,
                    "velocity": 0.4094488188976378,
                    "duration": 0.09347550000001092
                },
                {
                    "name": "A4",
                    "midi": 69,
                    "time": 175.92089100000055,
                    "velocity": 0.3779527559055118,
                    "duration": 0.09347550000001092
                },
                {
                    "name": "A5",
                    "midi": 81,
                    "time": 176.10784200000057,
                    "velocity": 0.4094488188976378,
                    "duration": 0.09347550000001092
                },
                {
                    "name": "B4",
                    "midi": 71,
                    "time": 176.2947930000006,
                    "velocity": 0.36220472440944884,
                    "duration": 0.09347550000001092
                },
                {
                    "name": "A5",
                    "midi": 81,
                    "time": 176.48174400000062,
                    "velocity": 0.4015748031496063,
                    "duration": 0.09347550000001092
                },
                {
                    "name": "C#5",
                    "midi": 73,
                    "time": 176.66869500000064,
                    "velocity": 0.36220472440944884,
                    "duration": 0.09347550000001092
                },
                {
                    "name": "A5",
                    "midi": 81,
                    "time": 176.85564600000066,
                    "velocity": 0.4015748031496063,
                    "duration": 0.09347550000001092
                },
                {
                    "name": "D#5",
                    "midi": 75,
                    "time": 177.04259700000068,
                    "velocity": 0.36220472440944884,
                    "duration": 0.09347550000001092
                },
                {
                    "name": "A5",
                    "midi": 81,
                    "time": 177.2295480000007,
                    "velocity": 0.4015748031496063,
                    "duration": 0.09347550000001092
                },
                {
                    "name": "E5",
                    "midi": 76,
                    "time": 177.41649900000073,
                    "velocity": 0.3700787401574803,
                    "duration": 0.09347550000001092
                },
                {
                    "name": "A5",
                    "midi": 81,
                    "time": 177.60345000000075,
                    "velocity": 0.3937007874015748,
                    "duration": 0.09347550000001092
                },
                {
                    "name": "F#5",
                    "midi": 78,
                    "time": 177.79040100000077,
                    "velocity": 0.36220472440944884,
                    "duration": 0.09347550000001092
                },
                {
                    "name": "B4",
                    "midi": 71,
                    "time": 177.9773520000008,
                    "velocity": 0.33070866141732286,
                    "duration": 0.7478040000000021
                },
                {
                    "name": "E5",
                    "midi": 76,
                    "time": 177.9773520000008,
                    "velocity": 0.33070866141732286,
                    "duration": 0.7478040000000021
                },
                {
                    "name": "G#5",
                    "midi": 80,
                    "time": 177.9773520000008,
                    "velocity": 0.4330708661417323,
                    "duration": 0.7478040000000021
                },
                {
                    "name": "A4",
                    "midi": 69,
                    "time": 178.7251560000008,
                    "velocity": 0.31496062992125984,
                    "duration": 0.37390199999998686
                },
                {
                    "name": "D#5",
                    "midi": 75,
                    "time": 178.7251560000008,
                    "velocity": 0.31496062992125984,
                    "duration": 0.37390199999998686
                },
                {
                    "name": "F#5",
                    "midi": 78,
                    "time": 178.7251560000008,
                    "velocity": 0.4094488188976378,
                    "duration": 0.37390199999998686
                },
                {
                    "name": "G#4",
                    "midi": 68,
                    "time": 179.09905800000078,
                    "velocity": 0.31496062992125984,
                    "duration": 0.37390199999998686
                },
                {
                    "name": "C#5",
                    "midi": 73,
                    "time": 179.09905800000078,
                    "velocity": 0.31496062992125984,
                    "duration": 0.37390199999998686
                },
                {
                    "name": "E5",
                    "midi": 76,
                    "time": 179.09905800000078,
                    "velocity": 0.4094488188976378,
                    "duration": 0.37390199999998686
                },
                {
                    "name": "F#4",
                    "midi": 66,
                    "time": 179.47296000000077,
                    "velocity": 0.33070866141732286,
                    "duration": 0.7478040000000021
                },
                {
                    "name": "C5",
                    "midi": 72,
                    "time": 179.47296000000077,
                    "velocity": 0.33070866141732286,
                    "duration": 0.7478040000000021
                },
                {
                    "name": "D#5",
                    "midi": 75,
                    "time": 179.47296000000077,
                    "velocity": 0.4330708661417323,
                    "duration": 0.7478040000000021
                },
                {
                    "name": "E4",
                    "midi": 64,
                    "time": 180.22076400000077,
                    "velocity": 0.31496062992125984,
                    "duration": 0.7478040000000021
                },
                {
                    "name": "C#5",
                    "midi": 73,
                    "time": 180.22076400000077,
                    "velocity": 0.4094488188976378,
                    "duration": 0.7478040000000021
                },
                {
                    "name": "A4",
                    "midi": 69,
                    "time": 180.96856800000077,
                    "velocity": 0.3858267716535433,
                    "duration": 0.7478040000000021
                },
                {
                    "name": "B4",
                    "midi": 71,
                    "time": 180.96856800000077,
                    "velocity": 0.3858267716535433,
                    "duration": 0.7478040000000021
                },
                {
                    "name": "D#5",
                    "midi": 75,
                    "time": 180.96856800000077,
                    "velocity": 0.49606299212598426,
                    "duration": 0.7478040000000021
                },
                {
                    "name": "B4",
                    "midi": 71,
                    "time": 181.71637200000077,
                    "velocity": 0.3937007874015748,
                    "duration": 0.37390199999998686
                },
                {
                    "name": "E5",
                    "midi": 76,
                    "time": 181.71637200000077,
                    "velocity": 0.5196850393700787,
                    "duration": 0.37390199999998686
                },
                {
                    "name": "C#5",
                    "midi": 73,
                    "time": 182.09027400000076,
                    "velocity": 0.3858267716535433,
                    "duration": 0.37390199999998686
                },
                {
                    "name": "E5",
                    "midi": 76,
                    "time": 182.09027400000076,
                    "velocity": 0.4330708661417323,
                    "duration": 0.37390199999998686
                },
                {
                    "name": "F#5",
                    "midi": 78,
                    "time": 182.09027400000076,
                    "velocity": 0.5669291338582677,
                    "duration": 0.37390199999998686
                },
                {
                    "name": "B4",
                    "midi": 71,
                    "time": 182.46417600000075,
                    "velocity": 0.4645669291338583,
                    "duration": 1.121705999999989
                },
                {
                    "name": "E5",
                    "midi": 76,
                    "time": 182.46417600000075,
                    "velocity": 0.4645669291338583,
                    "duration": 0.7478040000000021
                },
                {
                    "name": "G#5",
                    "midi": 80,
                    "time": 182.46417600000075,
                    "velocity": 0.6062992125984252,
                    "duration": 0.7478040000000021
                },
                {
                    "name": "D#5",
                    "midi": 75,
                    "time": 183.21198000000075,
                    "velocity": 0.25196850393700787,
                    "duration": 0.7478039999999737
                },
                {
                    "name": "F#5",
                    "midi": 78,
                    "time": 183.21198000000075,
                    "velocity": 0.3858267716535433,
                    "duration": 0.7478039999999737
                },
                {
                    "name": "A4",
                    "midi": 69,
                    "time": 183.58588200000074,
                    "velocity": 0.3779527559055118,
                    "duration": 0.37390199999998686
                },
                {
                    "name": "B3",
                    "midi": 59,
                    "time": 183.95978400000072,
                    "velocity": 0.29133858267716534,
                    "duration": 0.7478040000000021
                },
                {
                    "name": "E4",
                    "midi": 64,
                    "time": 183.95978400000072,
                    "velocity": 0.29133858267716534,
                    "duration": 0.7478040000000021
                },
                {
                    "name": "G#4",
                    "midi": 68,
                    "time": 183.95978400000072,
                    "velocity": 0.3543307086614173,
                    "duration": 0.7478040000000021
                },
                {
                    "name": "A3",
                    "midi": 57,
                    "time": 184.70758800000073,
                    "velocity": 0.28346456692913385,
                    "duration": 0.37390199999998686
                },
                {
                    "name": "D#4",
                    "midi": 63,
                    "time": 184.70758800000073,
                    "velocity": 0.28346456692913385,
                    "duration": 0.37390199999998686
                },
                {
                    "name": "F#4",
                    "midi": 66,
                    "time": 184.70758800000073,
                    "velocity": 0.33858267716535434,
                    "duration": 0.37390199999998686
                },
                {
                    "name": "G#3",
                    "midi": 56,
                    "time": 185.0814900000007,
                    "velocity": 0.28346456692913385,
                    "duration": 0.37390199999998686
                },
                {
                    "name": "C#4",
                    "midi": 61,
                    "time": 185.0814900000007,
                    "velocity": 0.28346456692913385,
                    "duration": 0.37390199999998686
                },
                {
                    "name": "E4",
                    "midi": 64,
                    "time": 185.0814900000007,
                    "velocity": 0.33858267716535434,
                    "duration": 0.37390199999998686
                },
                {
                    "name": "F#3",
                    "midi": 54,
                    "time": 185.4553920000007,
                    "velocity": 0.29133858267716534,
                    "duration": 0.7478040000000021
                },
                {
                    "name": "C4",
                    "midi": 60,
                    "time": 185.4553920000007,
                    "velocity": 0.29133858267716534,
                    "duration": 0.7478040000000021
                },
                {
                    "name": "D#4",
                    "midi": 63,
                    "time": 185.4553920000007,
                    "velocity": 0.3543307086614173,
                    "duration": 0.7478040000000021
                },
                {
                    "name": "A3",
                    "midi": 57,
                    "time": 186.2031960000007,
                    "velocity": 0.28346456692913385,
                    "duration": 0.7478040000000021
                },
                {
                    "name": "E3",
                    "midi": 52,
                    "time": 186.2031960000007,
                    "velocity": 0.28346456692913385,
                    "duration": 0.7478040000000021
                },
                {
                    "name": "C#4",
                    "midi": 61,
                    "time": 186.2031960000007,
                    "velocity": 0.33858267716535434,
                    "duration": 0.7478040000000021
                },
                {
                    "name": "E3",
                    "midi": 52,
                    "time": 186.9510000000007,
                    "velocity": 0.3464566929133858,
                    "duration": 0.37390199999998686
                },
                {
                    "name": "G#3",
                    "midi": 56,
                    "time": 186.9510000000007,
                    "velocity": 0.3464566929133858,
                    "duration": 0.37390199999998686
                },
                {
                    "name": "B3",
                    "midi": 59,
                    "time": 186.9510000000007,
                    "velocity": 0.4094488188976378,
                    "duration": 0.7478039999999737
                },
                {
                    "name": "F#3",
                    "midi": 54,
                    "time": 187.3249020000007,
                    "velocity": 0.3858267716535433,
                    "duration": 1.1217059999999606
                },
                {
                    "name": "A3",
                    "midi": 57,
                    "time": 187.3249020000007,
                    "velocity": 0.3858267716535433,
                    "duration": 1.1217059999999606
                },
                {
                    "name": "C#4",
                    "midi": 61,
                    "time": 187.69880400000068,
                    "velocity": 0.48031496062992124,
                    "duration": 0.37390199999998686
                },
                {
                    "name": "D#4",
                    "midi": 63,
                    "time": 188.07270600000066,
                    "velocity": 0.5354330708661418,
                    "duration": 0.37390199999998686
                },
                {
                    "name": "G#3",
                    "midi": 56,
                    "time": 188.44660800000065,
                    "velocity": 0.33070866141732286,
                    "duration": 0.12463400000001457
                },
                {
                    "name": "E4",
                    "midi": 64,
                    "time": 188.44660800000065,
                    "velocity": 0.3858267716535433,
                    "duration": 0.09347550000001092
                },
                {
                    "name": "F#4",
                    "midi": 66,
                    "time": 188.57124200000067,
                    "velocity": 0.3779527559055118,
                    "duration": 0.09347550000001092
                },
                {
                    "name": "G#4",
                    "midi": 68,
                    "time": 188.69587600000068,
                    "velocity": 0.3858267716535433,
                    "duration": 0.09347550000001092
                },
                {
                    "name": "A4",
                    "midi": 69,
                    "time": 188.8205100000007,
                    "velocity": 0.36220472440944884,
                    "duration": 0.09347550000001092
                },
                {
                    "name": "B4",
                    "midi": 71,
                    "time": 188.9451440000007,
                    "velocity": 0.3700787401574803,
                    "duration": 0.09347550000001092
                },
                {
                    "name": "C#5",
                    "midi": 73,
                    "time": 189.06977800000072,
                    "velocity": 0.3779527559055118,
                    "duration": 0.09347550000001092
                },
                {
                    "name": "D5",
                    "midi": 74,
                    "time": 189.19441200000074,
                    "velocity": 0.3937007874015748,
                    "duration": 0.09347550000001092
                },
                {
                    "name": "D#5",
                    "midi": 75,
                    "time": 189.31904600000075,
                    "velocity": 0.4015748031496063,
                    "duration": 0.09347550000001092
                },
                {
                    "name": "E5",
                    "midi": 76,
                    "time": 189.44368000000077,
                    "velocity": 0.4094488188976378,
                    "duration": 0.09347550000001092
                },
                {
                    "name": "F5",
                    "midi": 77,
                    "time": 189.56831400000078,
                    "velocity": 0.41732283464566927,
                    "duration": 0.09347550000001092
                },
                {
                    "name": "F#5",
                    "midi": 78,
                    "time": 189.6929480000008,
                    "velocity": 0.4015748031496063,
                    "duration": 0.09347550000001092
                },
                {
                    "name": "G5",
                    "midi": 79,
                    "time": 189.8175820000008,
                    "velocity": 0.4094488188976378,
                    "duration": 0.09347550000001092
                },
                {
                    "name": "B4",
                    "midi": 71,
                    "time": 189.94221600000083,
                    "velocity": 0.36220472440944884,
                    "duration": 0.7478039999999169
                },
                {
                    "name": "G#5",
                    "midi": 80,
                    "time": 189.94221600000083,
                    "velocity": 0.4409448818897638,
                    "duration": 0.12463399999998614
                },
                {
                    "name": "G5",
                    "midi": 79,
                    "time": 190.0668500000008,
                    "velocity": 0.41732283464566927,
                    "duration": 0.12463399999998614
                },
                {
                    "name": "G#5",
                    "midi": 80,
                    "time": 190.1914840000008,
                    "velocity": 0.41732283464566927,
                    "duration": 0.12463399999998614
                },
                {
                    "name": "A5",
                    "midi": 81,
                    "time": 190.31611800000078,
                    "velocity": 0.41732283464566927,
                    "duration": 0.12463399999998614
                },
                {
                    "name": "G5",
                    "midi": 79,
                    "time": 190.44075200000077,
                    "velocity": 0.41732283464566927,
                    "duration": 0.12463399999998614
                },
                {
                    "name": "G#5",
                    "midi": 80,
                    "time": 190.56538600000076,
                    "velocity": 0.41732283464566927,
                    "duration": 0.12463399999998614
                },
                {
                    "name": "A4",
                    "midi": 69,
                    "time": 190.69002000000074,
                    "velocity": 0.47244094488188976,
                    "duration": 0.37390199999995843
                },
                {
                    "name": "G#5",
                    "midi": 80,
                    "time": 190.81465400000073,
                    "velocity": 0.4251968503937008,
                    "duration": 0.12463399999998614
                },
                {
                    "name": "F#5",
                    "midi": 78,
                    "time": 190.93928800000072,
                    "velocity": 0.4251968503937008,
                    "duration": 0.12463399999998614
                },
                {
                    "name": "G#4",
                    "midi": 68,
                    "time": 191.0639220000007,
                    "velocity": 0.47244094488188976,
                    "duration": 0.37390199999995843
                },
                {
                    "name": "F#5",
                    "midi": 78,
                    "time": 191.1885560000007,
                    "velocity": 0.41732283464566927,
                    "duration": 0.12463399999998614
                },
                {
                    "name": "E5",
                    "midi": 76,
                    "time": 191.31319000000067,
                    "velocity": 0.41732283464566927,
                    "duration": 0.12463399999998614
                },
                {
                    "name": "F#4",
                    "midi": 66,
                    "time": 191.43782400000066,
                    "velocity": 0.47244094488188976,
                    "duration": 0.7478039999999169
                },
                {
                    "name": "C5",
                    "midi": 72,
                    "time": 191.56245800000065,
                    "velocity": 0.4251968503937008,
                    "duration": 0.12463399999998614
                },
                {
                    "name": "D#5",
                    "midi": 75,
                    "time": 191.68709200000063,
                    "velocity": 0.4251968503937008,
                    "duration": 0.12463399999998614
                },
                {
                    "name": "E5",
                    "midi": 76,
                    "time": 191.81172600000062,
                    "velocity": 0.4251968503937008,
                    "duration": 0.12463399999998614
                },
                {
                    "name": "C5",
                    "midi": 72,
                    "time": 191.9363600000006,
                    "velocity": 0.4251968503937008,
                    "duration": 0.12463399999998614
                },
                {
                    "name": "D#5",
                    "midi": 75,
                    "time": 192.0609940000006,
                    "velocity": 0.4251968503937008,
                    "duration": 0.12463399999998614
                },
                {
                    "name": "E4",
                    "midi": 64,
                    "time": 192.18562800000058,
                    "velocity": 0.47244094488188976,
                    "duration": 0.7478039999999169
                },
                {
                    "name": "A4",
                    "midi": 69,
                    "time": 192.31026200000056,
                    "velocity": 0.4251968503937008,
                    "duration": 0.12463399999998614
                },
                {
                    "name": "C#5",
                    "midi": 73,
                    "time": 192.43489600000055,
                    "velocity": 0.4251968503937008,
                    "duration": 0.12463399999998614
                },
                {
                    "name": "D#5",
                    "midi": 75,
                    "time": 192.55953000000054,
                    "velocity": 0.4251968503937008,
                    "duration": 0.12463399999998614
                },
                {
                    "name": "A4",
                    "midi": 69,
                    "time": 192.68416400000052,
                    "velocity": 0.4251968503937008,
                    "duration": 0.12463399999998614
                },
                {
                    "name": "C#5",
                    "midi": 73,
                    "time": 192.8087980000005,
                    "velocity": 0.4251968503937008,
                    "duration": 0.12463399999998614
                },
                {
                    "name": "A4",
                    "midi": 69,
                    "time": 192.9334320000005,
                    "velocity": 0.4881889763779528,
                    "duration": 0.7478039999999169
                },
                {
                    "name": "D5",
                    "midi": 74,
                    "time": 193.05806600000048,
                    "velocity": 0.4881889763779528,
                    "duration": 0.12463399999998614
                },
                {
                    "name": "D#5",
                    "midi": 75,
                    "time": 193.18270000000047,
                    "velocity": 0.44881889763779526,
                    "duration": 0.12463399999998614
                },
                {
                    "name": "E5",
                    "midi": 76,
                    "time": 193.30733400000045,
                    "velocity": 0.44881889763779526,
                    "duration": 0.12463399999998614
                },
                {
                    "name": "D5",
                    "midi": 74,
                    "time": 193.43196800000044,
                    "velocity": 0.4645669291338583,
                    "duration": 0.12463399999998614
                },
                {
                    "name": "D#5",
                    "midi": 75,
                    "time": 193.55660200000042,
                    "velocity": 0.4645669291338583,
                    "duration": 0.12463399999998614
                },
                {
                    "name": "B4",
                    "midi": 71,
                    "time": 193.6812360000004,
                    "velocity": 0.5590551181102362,
                    "duration": 0.37390199999995843
                },
                {
                    "name": "F#5",
                    "midi": 78,
                    "time": 193.8058700000004,
                    "velocity": 0.49606299212598426,
                    "duration": 0.12463399999998614
                },
                {
                    "name": "E5",
                    "midi": 76,
                    "time": 193.93050400000038,
                    "velocity": 0.5039370078740157,
                    "duration": 0.12463399999998614
                },
                {
                    "name": "C#5",
                    "midi": 73,
                    "time": 194.05513800000037,
                    "velocity": 0.5826771653543307,
                    "duration": 0.37390199999995843
                },
                {
                    "name": "G#5",
                    "midi": 80,
                    "time": 194.17977200000036,
                    "velocity": 0.5118110236220472,
                    "duration": 0.12463399999998614
                },
                {
                    "name": "F#5",
                    "midi": 78,
                    "time": 194.30440600000034,
                    "velocity": 0.5118110236220472,
                    "duration": 0.12463399999998614
                },
                {
                    "name": "G#5",
                    "midi": 80,
                    "time": 194.42904000000033,
                    "velocity": 0.6220472440944882,
                    "duration": 0.12463399999998614
                },
                {
                    "name": "E5",
                    "midi": 76,
                    "time": 194.42904000000033,
                    "velocity": 0.6220472440944882,
                    "duration": 0.7478039999999169
                },
                {
                    "name": "G5",
                    "midi": 79,
                    "time": 194.5536740000003,
                    "velocity": 0.5669291338582677,
                    "duration": 0.12463399999998614
                },
                {
                    "name": "G#5",
                    "midi": 80,
                    "time": 194.6783080000003,
                    "velocity": 0.5669291338582677,
                    "duration": 0.12463399999998614
                },
                {
                    "name": "B5",
                    "midi": 83,
                    "time": 194.8029420000003,
                    "velocity": 0.5354330708661418,
                    "duration": 0.12463399999998614
                },
                {
                    "name": "A5",
                    "midi": 81,
                    "time": 194.92757600000027,
                    "velocity": 0.5669291338582677,
                    "duration": 0.12463399999998614
                },
                {
                    "name": "G#5",
                    "midi": 80,
                    "time": 195.05221000000026,
                    "velocity": 0.5433070866141733,
                    "duration": 0.12463399999998614
                },
                {
                    "name": "D#5",
                    "midi": 75,
                    "time": 195.17684400000024,
                    "velocity": 0.5275590551181102,
                    "duration": 0.12463399999998614
                },
                {
                    "name": "F#5",
                    "midi": 78,
                    "time": 195.17684400000024,
                    "velocity": 0.5275590551181102,
                    "duration": 0.12463399999998614
                },
                {
                    "name": "C#5",
                    "midi": 73,
                    "time": 195.30147800000023,
                    "velocity": 0.5039370078740157,
                    "duration": 0.12463399999998614
                },
                {
                    "name": "E5",
                    "midi": 76,
                    "time": 195.30147800000023,
                    "velocity": 0.5039370078740157,
                    "duration": 0.12463399999998614
                },
                {
                    "name": "D#5",
                    "midi": 75,
                    "time": 195.42611200000022,
                    "velocity": 0.47244094488188976,
                    "duration": 0.12463399999998614
                },
                {
                    "name": "B4",
                    "midi": 71,
                    "time": 195.42611200000022,
                    "velocity": 0.47244094488188976,
                    "duration": 0.12463399999998614
                },
                {
                    "name": "A4",
                    "midi": 69,
                    "time": 195.5507460000002,
                    "velocity": 0.47244094488188976,
                    "duration": 0.12463399999998614
                },
                {
                    "name": "C#5",
                    "midi": 73,
                    "time": 195.5507460000002,
                    "velocity": 0.47244094488188976,
                    "duration": 0.12463399999998614
                },
                {
                    "name": "G#4",
                    "midi": 68,
                    "time": 195.6753800000002,
                    "velocity": 0.4409448818897638,
                    "duration": 0.12463399999998614
                },
                {
                    "name": "B4",
                    "midi": 71,
                    "time": 195.6753800000002,
                    "velocity": 0.4409448818897638,
                    "duration": 0.12463399999998614
                },
                {
                    "name": "F#4",
                    "midi": 66,
                    "time": 195.80001400000017,
                    "velocity": 0.41732283464566927,
                    "duration": 0.12463399999998614
                },
                {
                    "name": "A4",
                    "midi": 69,
                    "time": 195.80001400000017,
                    "velocity": 0.41732283464566927,
                    "duration": 0.12463399999998614
                },
                {
                    "name": "B3",
                    "midi": 59,
                    "time": 195.92464800000016,
                    "velocity": 0.44881889763779526,
                    "duration": 0.7478039999999169
                },
                {
                    "name": "G#4",
                    "midi": 68,
                    "time": 195.92464800000016,
                    "velocity": 0.44881889763779526,
                    "duration": 0.12463399999998614
                },
                {
                    "name": "G4",
                    "midi": 67,
                    "time": 196.04928200000015,
                    "velocity": 0.3858267716535433,
                    "duration": 0.12463399999998614
                },
                {
                    "name": "G#4",
                    "midi": 68,
                    "time": 196.17391600000013,
                    "velocity": 0.3858267716535433,
                    "duration": 0.12463399999998614
                },
                {
                    "name": "A4",
                    "midi": 69,
                    "time": 196.29855000000012,
                    "velocity": 0.3858267716535433,
                    "duration": 0.12463399999998614
                },
                {
                    "name": "G4",
                    "midi": 67,
                    "time": 196.4231840000001,
                    "velocity": 0.3858267716535433,
                    "duration": 0.12463399999998614
                },
                {
                    "name": "G#4",
                    "midi": 68,
                    "time": 196.5478180000001,
                    "velocity": 0.3858267716535433,
                    "duration": 0.12463399999998614
                },
                {
                    "name": "A3",
                    "midi": 57,
                    "time": 196.67245200000008,
                    "velocity": 0.4409448818897638,
                    "duration": 0.37390199999995843
                },
                {
                    "name": "G#4",
                    "midi": 68,
                    "time": 196.79708600000006,
                    "velocity": 0.3937007874015748,
                    "duration": 0.12463399999998614
                },
                {
                    "name": "F#4",
                    "midi": 66,
                    "time": 196.92172000000005,
                    "velocity": 0.3937007874015748,
                    "duration": 0.12463399999998614
                },
                {
                    "name": "G#3",
                    "midi": 56,
                    "time": 197.04635400000004,
                    "velocity": 0.4409448818897638,
                    "duration": 0.37390199999995843
                },
                {
                    "name": "F#4",
                    "midi": 66,
                    "time": 197.17098800000002,
                    "velocity": 0.3858267716535433,
                    "duration": 0.12463399999998614
                },
                {
                    "name": "E4",
                    "midi": 64,
                    "time": 197.295622,
                    "velocity": 0.3858267716535433,
                    "duration": 0.12463399999998614
                },
                {
                    "name": "C4",
                    "midi": 60,
                    "time": 197.54488999999998,
                    "velocity": 0.3937007874015748,
                    "duration": 0.12463399999998614
                },
                {
                    "name": "D#4",
                    "midi": 63,
                    "time": 197.66952399999997,
                    "velocity": 0.3937007874015748,
                    "duration": 0.12463399999998614
                },
                {
                    "name": "E4",
                    "midi": 64,
                    "time": 197.79415799999995,
                    "velocity": 0.41732283464566927,
                    "duration": 0.12463399999998614
                },
                {
                    "name": "C4",
                    "midi": 60,
                    "time": 197.91879199999994,
                    "velocity": 0.3937007874015748,
                    "duration": 0.12463399999998614
                },
                {
                    "name": "D#4",
                    "midi": 63,
                    "time": 198.04342599999993,
                    "velocity": 0.3937007874015748,
                    "duration": 0.12463399999998614
                },
                {
                    "name": "A3",
                    "midi": 57,
                    "time": 198.2926939999999,
                    "velocity": 0.3937007874015748,
                    "duration": 0.12463399999998614
                },
                {
                    "name": "C#4",
                    "midi": 61,
                    "time": 198.41732799999988,
                    "velocity": 0.3937007874015748,
                    "duration": 0.12463399999998614
                },
                {
                    "name": "D#4",
                    "midi": 63,
                    "time": 198.54196199999987,
                    "velocity": 0.41732283464566927,
                    "duration": 0.12463399999998614
                },
                {
                    "name": "A3",
                    "midi": 57,
                    "time": 198.66659599999986,
                    "velocity": 0.3937007874015748,
                    "duration": 0.12463399999998614
                },
                {
                    "name": "C#4",
                    "midi": 61,
                    "time": 198.79122999999984,
                    "velocity": 0.3937007874015748,
                    "duration": 0.12463399999998614
                },
                {
                    "name": "E3",
                    "midi": 52,
                    "time": 198.91586399999983,
                    "velocity": 0.47244094488188976,
                    "duration": 0.37390199999995843
                },
                {
                    "name": "G#3",
                    "midi": 56,
                    "time": 199.04049799999981,
                    "velocity": 0.4409448818897638,
                    "duration": 0.12463399999998614
                },
                {
                    "name": "B3",
                    "midi": 59,
                    "time": 199.1651319999998,
                    "velocity": 0.44881889763779526,
                    "duration": 0.12463399999998614
                },
                {
                    "name": "F#3",
                    "midi": 54,
                    "time": 199.2897659999998,
                    "velocity": 0.5196850393700787,
                    "duration": 0.37390199999995843
                },
                {
                    "name": "A3",
                    "midi": 57,
                    "time": 199.41439999999977,
                    "velocity": 0.48031496062992124,
                    "duration": 0.12463399999998614
                },
                {
                    "name": "B3",
                    "midi": 59,
                    "time": 199.53903399999976,
                    "velocity": 0.48031496062992124,
                    "duration": 0.12463399999998614
                },
                {
                    "name": "F#3",
                    "midi": 54,
                    "time": 199.66366799999975,
                    "velocity": 0.5826771653543307,
                    "duration": 0.37390199999995843
                },
                {
                    "name": "A3",
                    "midi": 57,
                    "time": 199.78830199999973,
                    "velocity": 0.5275590551181102,
                    "duration": 0.12463399999998614
                },
                {
                    "name": "C#4",
                    "midi": 61,
                    "time": 199.91293599999972,
                    "velocity": 0.5118110236220472,
                    "duration": 0.12463399999998614
                },
                {
                    "name": "F#3",
                    "midi": 54,
                    "time": 200.0375699999997,
                    "velocity": 0.6299212598425197,
                    "duration": 0.37390199999995843
                },
                {
                    "name": "A3",
                    "midi": 57,
                    "time": 200.1622039999997,
                    "velocity": 0.5590551181102362,
                    "duration": 0.12463399999998614
                },
                {
                    "name": "D#4",
                    "midi": 63,
                    "time": 200.28683799999968,
                    "velocity": 0.5511811023622047,
                    "duration": 0.12463399999998614
                },
                {
                    "name": "G#3",
                    "midi": 56,
                    "time": 200.41147199999966,
                    "velocity": 0.6062992125984252,
                    "duration": 0.12463399999998614
                },
                {
                    "name": "E4",
                    "midi": 64,
                    "time": 200.41147199999966,
                    "velocity": 0.6456692913385826,
                    "duration": 0.12463399999998614
                },
                {
                    "name": "B3",
                    "midi": 59,
                    "time": 200.53610599999965,
                    "velocity": 0.5905511811023622,
                    "duration": 0.12463399999998614
                },
                {
                    "name": "G#3",
                    "midi": 56,
                    "time": 200.66073999999963,
                    "velocity": 0.6062992125984252,
                    "duration": 0.12463399999998614
                },
                {
                    "name": "B3",
                    "midi": 59,
                    "time": 200.78537399999962,
                    "velocity": 0.6456692913385826,
                    "duration": 0.12463399999998614
                },
                {
                    "name": "E4",
                    "midi": 64,
                    "time": 200.9100079999996,
                    "velocity": 0.6062992125984252,
                    "duration": 0.12463399999998614
                },
                {
                    "name": "G#4",
                    "midi": 68,
                    "time": 201.0346419999996,
                    "velocity": 0.6062992125984252,
                    "duration": 0.12463399999998614
                },
                {
                    "name": "F#4",
                    "midi": 66,
                    "time": 201.15927599999958,
                    "velocity": 0.6456692913385826,
                    "duration": 0.12463399999998614
                },
                {
                    "name": "D#4",
                    "midi": 63,
                    "time": 201.28390999999957,
                    "velocity": 0.6062992125984252,
                    "duration": 0.12463399999998614
                },
                {
                    "name": "B3",
                    "midi": 59,
                    "time": 201.40854399999955,
                    "velocity": 0.6062992125984252,
                    "duration": 0.12463399999998614
                },
                {
                    "name": "D#4",
                    "midi": 63,
                    "time": 201.53317799999954,
                    "velocity": 0.6456692913385826,
                    "duration": 0.12463399999998614
                },
                {
                    "name": "F#4",
                    "midi": 66,
                    "time": 201.65781199999952,
                    "velocity": 0.6062992125984252,
                    "duration": 0.12463399999998614
                },
                {
                    "name": "A4",
                    "midi": 69,
                    "time": 201.7824459999995,
                    "velocity": 0.6062992125984252,
                    "duration": 0.12463399999998614
                },
                {
                    "name": "G#4",
                    "midi": 68,
                    "time": 201.9070799999995,
                    "velocity": 0.6456692913385826,
                    "duration": 0.12463399999998614
                },
                {
                    "name": "E4",
                    "midi": 64,
                    "time": 202.03171399999948,
                    "velocity": 0.5905511811023622,
                    "duration": 0.12463399999998614
                },
                {
                    "name": "B3",
                    "midi": 59,
                    "time": 202.15634799999947,
                    "velocity": 0.6062992125984252,
                    "duration": 0.12463399999998614
                },
                {
                    "name": "E4",
                    "midi": 64,
                    "time": 202.28098199999945,
                    "velocity": 0.6456692913385826,
                    "duration": 0.12463399999998614
                },
                {
                    "name": "G#4",
                    "midi": 68,
                    "time": 202.40561599999944,
                    "velocity": 0.6062992125984252,
                    "duration": 0.12463399999998614
                },
                {
                    "name": "B4",
                    "midi": 71,
                    "time": 202.53024999999943,
                    "velocity": 0.6062992125984252,
                    "duration": 0.12463399999998614
                },
                {
                    "name": "A4",
                    "midi": 69,
                    "time": 202.6548839999994,
                    "velocity": 0.6456692913385826,
                    "duration": 0.12463399999998614
                },
                {
                    "name": "F#4",
                    "midi": 66,
                    "time": 202.7795179999994,
                    "velocity": 0.6062992125984252,
                    "duration": 0.12463399999998614
                },
                {
                    "name": "D#4",
                    "midi": 63,
                    "time": 202.90415199999939,
                    "velocity": 0.6062992125984252,
                    "duration": 0.12463399999998614
                },
                {
                    "name": "D#5",
                    "midi": 75,
                    "time": 203.02878599999937,
                    "velocity": 0.6456692913385826,
                    "duration": 0.12463399999998614
                },
                {
                    "name": "A4",
                    "midi": 69,
                    "time": 203.15341999999936,
                    "velocity": 0.6062992125984252,
                    "duration": 0.12463399999998614
                },
                {
                    "name": "F#4",
                    "midi": 66,
                    "time": 203.27805399999934,
                    "velocity": 0.6062992125984252,
                    "duration": 0.12463399999998614
                },
                {
                    "name": "G#4",
                    "midi": 68,
                    "time": 203.40268799999933,
                    "velocity": 0.49606299212598426,
                    "duration": 0.37390199999998686
                },
                {
                    "name": "E5",
                    "midi": 76,
                    "time": 203.40268799999933,
                    "velocity": 0.5905511811023622,
                    "duration": 0.37390199999998686
                },
                {
                    "name": "B4",
                    "midi": 71,
                    "time": 203.77658999999932,
                    "velocity": 0.6299212598425197,
                    "duration": 0.7478040000000021
                },
                {
                    "name": "B4",
                    "midi": 71,
                    "time": 204.52439399999932,
                    "velocity": 0.6299212598425197,
                    "duration": 0.7478040000000021
                },
                {
                    "name": "B4",
                    "midi": 71,
                    "time": 205.27219799999932,
                    "velocity": 0.6299212598425197,
                    "duration": 0.7478040000000021
                },
                {
                    "name": "B4",
                    "midi": 71,
                    "time": 206.02000199999932,
                    "velocity": 0.6299212598425197,
                    "duration": 0.37390199999998686
                },
                {
                    "name": "E5",
                    "midi": 76,
                    "time": 206.3939039999993,
                    "velocity": 0.6456692913385826,
                    "duration": 0.12463399999998614
                },
                {
                    "name": "B4",
                    "midi": 71,
                    "time": 206.5185379999993,
                    "velocity": 0.5905511811023622,
                    "duration": 0.12463399999998614
                },
                {
                    "name": "G#4",
                    "midi": 68,
                    "time": 206.64317199999928,
                    "velocity": 0.6062992125984252,
                    "duration": 0.12463399999998614
                },
                {
                    "name": "B4",
                    "midi": 71,
                    "time": 206.76780599999927,
                    "velocity": 0.6456692913385826,
                    "duration": 0.12463399999998614
                },
                {
                    "name": "E5",
                    "midi": 76,
                    "time": 206.89243999999925,
                    "velocity": 0.6062992125984252,
                    "duration": 0.12463399999998614
                },
                {
                    "name": "G#5",
                    "midi": 80,
                    "time": 207.01707399999924,
                    "velocity": 0.6062992125984252,
                    "duration": 0.12463399999998614
                },
                {
                    "name": "F#5",
                    "midi": 78,
                    "time": 207.14170799999923,
                    "velocity": 0.6456692913385826,
                    "duration": 0.12463399999998614
                },
                {
                    "name": "D#5",
                    "midi": 75,
                    "time": 207.2663419999992,
                    "velocity": 0.6062992125984252,
                    "duration": 0.12463399999998614
                },
                {
                    "name": "B4",
                    "midi": 71,
                    "time": 207.3909759999992,
                    "velocity": 0.6062992125984252,
                    "duration": 0.12463399999998614
                },
                {
                    "name": "D#5",
                    "midi": 75,
                    "time": 207.51560999999919,
                    "velocity": 0.6456692913385826,
                    "duration": 0.12463399999998614
                },
                {
                    "name": "F#5",
                    "midi": 78,
                    "time": 207.64024399999917,
                    "velocity": 0.6062992125984252,
                    "duration": 0.12463399999998614
                },
                {
                    "name": "A5",
                    "midi": 81,
                    "time": 207.76487799999916,
                    "velocity": 0.6062992125984252,
                    "duration": 0.12463399999998614
                },
                {
                    "name": "G#5",
                    "midi": 80,
                    "time": 207.88951199999914,
                    "velocity": 0.6456692913385826,
                    "duration": 0.12463399999998614
                },
                {
                    "name": "E5",
                    "midi": 76,
                    "time": 208.01414599999913,
                    "velocity": 0.5905511811023622,
                    "duration": 0.12463399999998614
                },
                {
                    "name": "B4",
                    "midi": 71,
                    "time": 208.13877999999912,
                    "velocity": 0.6062992125984252,
                    "duration": 0.12463399999998614
                },
                {
                    "name": "E5",
                    "midi": 76,
                    "time": 208.2634139999991,
                    "velocity": 0.6456692913385826,
                    "duration": 0.12463399999998614
                },
                {
                    "name": "G#5",
                    "midi": 80,
                    "time": 208.3880479999991,
                    "velocity": 0.6062992125984252,
                    "duration": 0.12463399999998614
                },
                {
                    "name": "B5",
                    "midi": 83,
                    "time": 208.51268199999907,
                    "velocity": 0.6062992125984252,
                    "duration": 0.12463399999998614
                },
                {
                    "name": "A5",
                    "midi": 81,
                    "time": 208.63731599999906,
                    "velocity": 0.6456692913385826,
                    "duration": 0.12463399999998614
                },
                {
                    "name": "F#5",
                    "midi": 78,
                    "time": 208.76194999999905,
                    "velocity": 0.6062992125984252,
                    "duration": 0.12463399999998614
                },
                {
                    "name": "D#5",
                    "midi": 75,
                    "time": 208.88658399999903,
                    "velocity": 0.6062992125984252,
                    "duration": 0.12463399999998614
                },
                {
                    "name": "D#6",
                    "midi": 87,
                    "time": 209.01121799999902,
                    "velocity": 0.6456692913385826,
                    "duration": 0.12463399999998614
                },
                {
                    "name": "A5",
                    "midi": 81,
                    "time": 209.135851999999,
                    "velocity": 0.6062992125984252,
                    "duration": 0.12463399999998614
                },
                {
                    "name": "F#5",
                    "midi": 78,
                    "time": 209.260485999999,
                    "velocity": 0.6062992125984252,
                    "duration": 0.12463399999998614
                },
                {
                    "name": "E6",
                    "midi": 88,
                    "time": 209.38511999999898,
                    "velocity": 0.6771653543307087,
                    "duration": 0.18695099999999343
                },
                {
                    "name": "B5",
                    "midi": 83,
                    "time": 209.50975399999896,
                    "velocity": 0.5826771653543307,
                    "duration": 0.12463400000001457
                },
                {
                    "name": "G#5",
                    "midi": 80,
                    "time": 209.63438799999898,
                    "velocity": 0.5826771653543307,
                    "duration": 0.12463399999998614
                },
                {
                    "name": "B5",
                    "midi": 83,
                    "time": 209.75902199999896,
                    "velocity": 0.6456692913385826,
                    "duration": 0.18695099999999343
                },
                {
                    "name": "G#5",
                    "midi": 80,
                    "time": 209.88365599999895,
                    "velocity": 0.5748031496062992,
                    "duration": 0.12463400000001457
                },
                {
                    "name": "E5",
                    "midi": 76,
                    "time": 210.00828999999896,
                    "velocity": 0.5669291338582677,
                    "duration": 0.12463399999998614
                },
                {
                    "name": "A5",
                    "midi": 81,
                    "time": 210.13292399999895,
                    "velocity": 0.6220472440944882,
                    "duration": 0.18695099999999343
                },
                {
                    "name": "F#5",
                    "midi": 78,
                    "time": 210.25755799999894,
                    "velocity": 0.5590551181102362,
                    "duration": 0.12463400000001457
                },
                {
                    "name": "D#5",
                    "midi": 75,
                    "time": 210.38219199999895,
                    "velocity": 0.5511811023622047,
                    "duration": 0.12463399999998614
                },
                {
                    "name": "D#6",
                    "midi": 87,
                    "time": 210.50682599999894,
                    "velocity": 0.5984251968503937,
                    "duration": 0.18695099999999343
                },
                {
                    "name": "B5",
                    "midi": 83,
                    "time": 210.63145999999892,
                    "velocity": 0.5433070866141733,
                    "duration": 0.12463400000001457
                },
                {
                    "name": "F#5",
                    "midi": 78,
                    "time": 210.75609399999894,
                    "velocity": 0.5275590551181102,
                    "duration": 0.12463399999998614
                },
                {
                    "name": "E6",
                    "midi": 88,
                    "time": 210.88072799999892,
                    "velocity": 0.5905511811023622,
                    "duration": 0.18695099999999343
                },
                {
                    "name": "B5",
                    "midi": 83,
                    "time": 211.0053619999989,
                    "velocity": 0.5118110236220472,
                    "duration": 0.12463400000001457
                },
                {
                    "name": "G#5",
                    "midi": 80,
                    "time": 211.12999599999893,
                    "velocity": 0.5118110236220472,
                    "duration": 0.12463399999998614
                },
                {
                    "name": "B5",
                    "midi": 83,
                    "time": 211.2546299999989,
                    "velocity": 0.5669291338582677,
                    "duration": 0.18695099999999343
                },
                {
                    "name": "G#5",
                    "midi": 80,
                    "time": 211.3792639999989,
                    "velocity": 0.5039370078740157,
                    "duration": 0.12463400000001457
                },
                {
                    "name": "E5",
                    "midi": 76,
                    "time": 211.5038979999989,
                    "velocity": 0.49606299212598426,
                    "duration": 0.12463399999998614
                },
                {
                    "name": "A5",
                    "midi": 81,
                    "time": 211.6285319999989,
                    "velocity": 0.5433070866141733,
                    "duration": 0.18695099999999343
                },
                {
                    "name": "F#5",
                    "midi": 78,
                    "time": 211.75316599999888,
                    "velocity": 0.4881889763779528,
                    "duration": 0.12463400000001457
                },
                {
                    "name": "D#5",
                    "midi": 75,
                    "time": 211.8777999999989,
                    "velocity": 0.47244094488188976,
                    "duration": 0.12463399999998614
                },
                {
                    "name": "D#6",
                    "midi": 87,
                    "time": 212.00243399999889,
                    "velocity": 0.5433070866141733,
                    "duration": 0.18695099999999343
                },
                {
                    "name": "B5",
                    "midi": 83,
                    "time": 212.12706799999887,
                    "velocity": 0.4645669291338583,
                    "duration": 0.12463400000001457
                },
                {
                    "name": "F#5",
                    "midi": 78,
                    "time": 212.2517019999989,
                    "velocity": 0.4566929133858268,
                    "duration": 0.12463399999998614
                },
                {
                    "name": "E6",
                    "midi": 88,
                    "time": 212.37633599999887,
                    "velocity": 0.5039370078740157,
                    "duration": 0.09347550000001092
                },
                {
                    "name": "B5",
                    "midi": 83,
                    "time": 212.46981149999888,
                    "velocity": 0.4566929133858268,
                    "duration": 0.09347550000001092
                },
                {
                    "name": "G#5",
                    "midi": 80,
                    "time": 212.5632869999989,
                    "velocity": 0.4566929133858268,
                    "duration": 0.09347550000001092
                },
                {
                    "name": "E5",
                    "midi": 76,
                    "time": 212.6567624999989,
                    "velocity": 0.4645669291338583,
                    "duration": 0.09347550000001092
                },
                {
                    "name": "A5",
                    "midi": 81,
                    "time": 212.75023799999892,
                    "velocity": 0.5118110236220472,
                    "duration": 0.09347550000001092
                },
                {
                    "name": "F#5",
                    "midi": 78,
                    "time": 212.84371349999893,
                    "velocity": 0.4645669291338583,
                    "duration": 0.09347550000001092
                },
                {
                    "name": "D#6",
                    "midi": 87,
                    "time": 212.93718899999894,
                    "velocity": 0.4881889763779528,
                    "duration": 0.09347550000001092
                },
                {
                    "name": "B5",
                    "midi": 83,
                    "time": 213.03066449999895,
                    "velocity": 0.49606299212598426,
                    "duration": 0.09347550000001092
                },
                {
                    "name": "E6",
                    "midi": 88,
                    "time": 213.12413999999896,
                    "velocity": 0.5433070866141733,
                    "duration": 0.09347550000001092
                },
                {
                    "name": "B5",
                    "midi": 83,
                    "time": 213.21761549999897,
                    "velocity": 0.49606299212598426,
                    "duration": 0.09347550000001092
                },
                {
                    "name": "G#5",
                    "midi": 80,
                    "time": 213.31109099999898,
                    "velocity": 0.49606299212598426,
                    "duration": 0.09347550000001092
                },
                {
                    "name": "E5",
                    "midi": 76,
                    "time": 213.404566499999,
                    "velocity": 0.5039370078740157,
                    "duration": 0.09347550000001092
                },
                {
                    "name": "A5",
                    "midi": 81,
                    "time": 213.498041999999,
                    "velocity": 0.5590551181102362,
                    "duration": 0.09347550000001092
                },
                {
                    "name": "F#5",
                    "midi": 78,
                    "time": 213.59151749999901,
                    "velocity": 0.5196850393700787,
                    "duration": 0.09347550000001092
                },
                {
                    "name": "D#6",
                    "midi": 87,
                    "time": 213.68499299999903,
                    "velocity": 0.5275590551181102,
                    "duration": 0.09347550000001092
                },
                {
                    "name": "B5",
                    "midi": 83,
                    "time": 213.77846849999904,
                    "velocity": 0.5275590551181102,
                    "duration": 0.09347550000001092
                },
                {
                    "name": "E6",
                    "midi": 88,
                    "time": 213.87194399999905,
                    "velocity": 0.5826771653543307,
                    "duration": 0.09347550000001092
                },
                {
                    "name": "B5",
                    "midi": 83,
                    "time": 213.96541949999906,
                    "velocity": 0.5275590551181102,
                    "duration": 0.09347550000001092
                },
                {
                    "name": "D#6",
                    "midi": 87,
                    "time": 214.05889499999907,
                    "velocity": 0.5433070866141733,
                    "duration": 0.09347550000001092
                },
                {
                    "name": "B5",
                    "midi": 83,
                    "time": 214.15237049999908,
                    "velocity": 0.5433070866141733,
                    "duration": 0.09347550000001092
                },
                {
                    "name": "E6",
                    "midi": 88,
                    "time": 214.2458459999991,
                    "velocity": 0.6062992125984252,
                    "duration": 0.09347550000001092
                },
                {
                    "name": "B5",
                    "midi": 83,
                    "time": 214.3393214999991,
                    "velocity": 0.6062992125984252,
                    "duration": 0.09347550000001092
                },
                {
                    "name": "D#6",
                    "midi": 87,
                    "time": 214.4327969999991,
                    "velocity": 0.5669291338582677,
                    "duration": 0.09347550000001092
                },
                {
                    "name": "B5",
                    "midi": 83,
                    "time": 214.52627249999912,
                    "velocity": 0.5748031496062992,
                    "duration": 0.09347550000001092
                },
                {
                    "name": "E6",
                    "midi": 88,
                    "time": 214.61974799999913,
                    "velocity": 0.6299212598425197,
                    "duration": 0.09347550000001092
                },
                {
                    "name": "B5",
                    "midi": 83,
                    "time": 214.71322349999915,
                    "velocity": 0.5748031496062992,
                    "duration": 0.09347550000001092
                },
                {
                    "name": "D#6",
                    "midi": 87,
                    "time": 214.80669899999916,
                    "velocity": 0.5826771653543307,
                    "duration": 0.09347550000001092
                },
                {
                    "name": "B5",
                    "midi": 83,
                    "time": 214.90017449999917,
                    "velocity": 0.5826771653543307,
                    "duration": 0.09347550000001092
                },
                {
                    "name": "E6",
                    "midi": 88,
                    "time": 214.99364999999918,
                    "velocity": 0.6456692913385826,
                    "duration": 0.09347550000001092
                },
                {
                    "name": "B5",
                    "midi": 83,
                    "time": 215.0871254999992,
                    "velocity": 0.6692913385826772,
                    "duration": 0.09347550000001092
                },
                {
                    "name": "D#6",
                    "midi": 87,
                    "time": 215.1806009999992,
                    "velocity": 0.6141732283464567,
                    "duration": 0.09347550000001092
                },
                {
                    "name": "B5",
                    "midi": 83,
                    "time": 215.2740764999992,
                    "velocity": 0.6220472440944882,
                    "duration": 0.09347550000001092
                },
                {
                    "name": "E6",
                    "midi": 88,
                    "time": 215.36755199999922,
                    "velocity": 0.7007874015748031,
                    "duration": 0.09347550000001092
                },
                {
                    "name": "B5",
                    "midi": 83,
                    "time": 215.46102749999923,
                    "velocity": 0.6377952755905512,
                    "duration": 0.09347550000001092
                },
                {
                    "name": "D6",
                    "midi": 86,
                    "time": 215.55450299999924,
                    "velocity": 0.6377952755905512,
                    "duration": 0.09347550000001092
                },
                {
                    "name": "B5",
                    "midi": 83,
                    "time": 215.64797849999925,
                    "velocity": 0.6377952755905512,
                    "duration": 0.09347550000001092
                },
                {
                    "name": "D6",
                    "midi": 86,
                    "time": 215.74145399999927,
                    "velocity": 0.7007874015748031,
                    "duration": 0.09347550000001092
                },
                {
                    "name": "B5",
                    "midi": 83,
                    "time": 215.83492949999928,
                    "velocity": 0.6535433070866141,
                    "duration": 0.09347550000001092
                },
                {
                    "name": "D6",
                    "midi": 86,
                    "time": 215.9284049999993,
                    "velocity": 0.6456692913385826,
                    "duration": 0.09347550000001092
                },
                {
                    "name": "B5",
                    "midi": 83,
                    "time": 216.0218804999993,
                    "velocity": 0.6456692913385826,
                    "duration": 0.09347550000001092
                },
                {
                    "name": "D6",
                    "midi": 86,
                    "time": 216.1153559999993,
                    "velocity": 0.7007874015748031,
                    "duration": 0.09347550000001092
                },
                {
                    "name": "B5",
                    "midi": 83,
                    "time": 216.20883149999932,
                    "velocity": 0.6377952755905512,
                    "duration": 0.09347550000001092
                },
                {
                    "name": "D6",
                    "midi": 86,
                    "time": 216.30230699999933,
                    "velocity": 0.6377952755905512,
                    "duration": 0.09347550000001092
                },
                {
                    "name": "B5",
                    "midi": 83,
                    "time": 216.39578249999934,
                    "velocity": 0.6377952755905512,
                    "duration": 0.09347550000001092
                },
                {
                    "name": "D6",
                    "midi": 86,
                    "time": 216.48925799999935,
                    "velocity": 0.7007874015748031,
                    "duration": 0.09347550000001092
                },
                {
                    "name": "B5",
                    "midi": 83,
                    "time": 216.58273349999936,
                    "velocity": 0.6535433070866141,
                    "duration": 0.09347550000001092
                },
                {
                    "name": "D6",
                    "midi": 86,
                    "time": 216.67620899999937,
                    "velocity": 0.6456692913385826,
                    "duration": 0.09347550000001092
                },
                {
                    "name": "B5",
                    "midi": 83,
                    "time": 216.76968449999939,
                    "velocity": 0.6456692913385826,
                    "duration": 0.09347550000001092
                },
                {
                    "name": "D6",
                    "midi": 86,
                    "time": 216.8631599999994,
                    "velocity": 0.7007874015748031,
                    "duration": 0.18695099999999343
                },
                {
                    "name": "C#6",
                    "midi": 85,
                    "time": 217.0501109999994,
                    "velocity": 0.6377952755905512,
                    "duration": 0.09347550000001092
                },
                {
                    "name": "B5",
                    "midi": 83,
                    "time": 217.1435864999994,
                    "velocity": 0.6377952755905512,
                    "duration": 0.09347550000001092
                },
                {
                    "name": "A5",
                    "midi": 81,
                    "time": 217.2370619999994,
                    "velocity": 0.6771653543307087,
                    "duration": 0.09347550000001092
                },
                {
                    "name": "G#5",
                    "midi": 80,
                    "time": 217.33053749999942,
                    "velocity": 0.6456692913385826,
                    "duration": 0.09347550000001092
                },
                {
                    "name": "F#5",
                    "midi": 78,
                    "time": 217.42401299999943,
                    "velocity": 0.6535433070866141,
                    "duration": 0.09347550000001092
                },
                {
                    "name": "E5",
                    "midi": 76,
                    "time": 217.51748849999944,
                    "velocity": 0.6535433070866141,
                    "duration": 0.09347550000001092
                },
                {
                    "name": "D5",
                    "midi": 74,
                    "time": 217.61096399999946,
                    "velocity": 0.6771653543307087,
                    "duration": 0.09347550000001092
                },
                {
                    "name": "C#5",
                    "midi": 73,
                    "time": 217.70443949999947,
                    "velocity": 0.6456692913385826,
                    "duration": 0.09347550000001092
                },
                {
                    "name": "B4",
                    "midi": 71,
                    "time": 217.79791499999948,
                    "velocity": 0.6535433070866141,
                    "duration": 0.09347550000001092
                },
                {
                    "name": "A4",
                    "midi": 69,
                    "time": 217.8913904999995,
                    "velocity": 0.6535433070866141,
                    "duration": 0.09347550000001092
                },
                {
                    "name": "G#4",
                    "midi": 68,
                    "time": 217.9848659999995,
                    "velocity": 0.6929133858267716,
                    "duration": 0.09347550000001092
                },
                {
                    "name": "F#4",
                    "midi": 66,
                    "time": 218.0783414999995,
                    "velocity": 0.6692913385826772,
                    "duration": 0.09347550000001092
                },
                {
                    "name": "E4",
                    "midi": 64,
                    "time": 218.17181699999952,
                    "velocity": 0.6692913385826772,
                    "duration": 0.09347550000001092
                },
                {
                    "name": "D4",
                    "midi": 62,
                    "time": 218.26529249999953,
                    "velocity": 0.6692913385826772,
                    "duration": 0.09347550000001092
                },
                {
                    "name": "C#4",
                    "midi": 61,
                    "time": 218.35876799999954,
                    "velocity": 0.7322834645669292,
                    "duration": 0.09347550000001092
                },
                {
                    "name": "D#4",
                    "midi": 63,
                    "time": 218.45224349999955,
                    "velocity": 0.6535433070866141,
                    "duration": 0.09347550000001092
                },
                {
                    "name": "E4",
                    "midi": 64,
                    "time": 218.54571899999956,
                    "velocity": 0.6535433070866141,
                    "duration": 0.09347550000001092
                },
                {
                    "name": "D#4",
                    "midi": 63,
                    "time": 218.63919449999958,
                    "velocity": 0.6614173228346457,
                    "duration": 0.09347550000001092
                },
                {
                    "name": "E4",
                    "midi": 64,
                    "time": 218.7326699999996,
                    "velocity": 0.7244094488188977,
                    "duration": 0.09347550000001092
                },
                {
                    "name": "G#4",
                    "midi": 68,
                    "time": 218.8261454999996,
                    "velocity": 0.6614173228346457,
                    "duration": 0.09347550000001092
                },
                {
                    "name": "A4",
                    "midi": 69,
                    "time": 218.9196209999996,
                    "velocity": 0.6614173228346457,
                    "duration": 0.09347550000001092
                },
                {
                    "name": "G#4",
                    "midi": 68,
                    "time": 219.01309649999962,
                    "velocity": 0.6614173228346457,
                    "duration": 0.09347550000001092
                },
                {
                    "name": "A4",
                    "midi": 69,
                    "time": 219.10657199999963,
                    "velocity": 0.7322834645669292,
                    "duration": 0.09347550000001092
                },
                {
                    "name": "C5",
                    "midi": 72,
                    "time": 219.20004749999964,
                    "velocity": 0.6614173228346457,
                    "duration": 0.09347550000001092
                },
                {
                    "name": "C#5",
                    "midi": 73,
                    "time": 219.29352299999965,
                    "velocity": 0.6614173228346457,
                    "duration": 0.09347550000001092
                },
                {
                    "name": "C5",
                    "midi": 72,
                    "time": 219.38699849999966,
                    "velocity": 0.6614173228346457,
                    "duration": 0.09347550000001092
                },
                {
                    "name": "C#5",
                    "midi": 73,
                    "time": 219.48047399999967,
                    "velocity": 0.7322834645669292,
                    "duration": 0.09347550000001092
                },
                {
                    "name": "D#5",
                    "midi": 75,
                    "time": 219.57394949999969,
                    "velocity": 0.6614173228346457,
                    "duration": 0.09347550000001092
                },
                {
                    "name": "E5",
                    "midi": 76,
                    "time": 219.6674249999997,
                    "velocity": 0.6614173228346457,
                    "duration": 0.09347550000001092
                },
                {
                    "name": "D#5",
                    "midi": 75,
                    "time": 219.7609004999997,
                    "velocity": 0.6614173228346457,
                    "duration": 0.09347550000001092
                },
                {
                    "name": "E5",
                    "midi": 76,
                    "time": 219.85437599999972,
                    "velocity": 0.7480314960629921,
                    "duration": 0.09347550000001092
                },
                {
                    "name": "G#5",
                    "midi": 80,
                    "time": 219.94785149999973,
                    "velocity": 0.6692913385826772,
                    "duration": 0.09347550000001092
                },
                {
                    "name": "A5",
                    "midi": 81,
                    "time": 220.04132699999974,
                    "velocity": 0.6692913385826772,
                    "duration": 0.09347550000001092
                },
                {
                    "name": "G#5",
                    "midi": 80,
                    "time": 220.13480249999975,
                    "velocity": 0.6692913385826772,
                    "duration": 0.09347550000001092
                },
                {
                    "name": "A5",
                    "midi": 81,
                    "time": 220.22827799999976,
                    "velocity": 0.7480314960629921,
                    "duration": 0.09347550000001092
                },
                {
                    "name": "C6",
                    "midi": 84,
                    "time": 220.32175349999977,
                    "velocity": 0.6692913385826772,
                    "duration": 0.09347550000001092
                },
                {
                    "name": "C#6",
                    "midi": 85,
                    "time": 220.41522899999978,
                    "velocity": 0.6692913385826772,
                    "duration": 0.09347550000001092
                },
                {
                    "name": "C6",
                    "midi": 84,
                    "time": 220.5087044999998,
                    "velocity": 0.6771653543307087,
                    "duration": 0.09347550000001092
                },
                {
                    "name": "C#6",
                    "midi": 85,
                    "time": 220.6021799999998,
                    "velocity": 0.7480314960629921,
                    "duration": 0.09347550000001092
                },
                {
                    "name": "D#6",
                    "midi": 87,
                    "time": 220.69565549999982,
                    "velocity": 0.6771653543307087,
                    "duration": 0.09347550000001092
                },
                {
                    "name": "E6",
                    "midi": 88,
                    "time": 220.78913099999983,
                    "velocity": 0.6771653543307087,
                    "duration": 0.09347550000001092
                },
                {
                    "name": "D#6",
                    "midi": 87,
                    "time": 220.88260649999984,
                    "velocity": 0.6771653543307087,
                    "duration": 0.09347550000001092
                },
                {
                    "name": "E6",
                    "midi": 88,
                    "time": 220.97608199999985,
                    "velocity": 0.7480314960629921,
                    "duration": 0.09347550000001092
                },
                {
                    "name": "D#6",
                    "midi": 87,
                    "time": 221.06955749999986,
                    "velocity": 0.6771653543307087,
                    "duration": 0.09347550000001092
                },
                {
                    "name": "C#6",
                    "midi": 85,
                    "time": 221.16303299999987,
                    "velocity": 0.6771653543307087,
                    "duration": 0.09347550000001092
                },
                {
                    "name": "C6",
                    "midi": 84,
                    "time": 221.25650849999988,
                    "velocity": 0.6771653543307087,
                    "duration": 0.09347550000001092
                },
                {
                    "name": "C#6",
                    "midi": 85,
                    "time": 221.3499839999999,
                    "velocity": 0.7480314960629921,
                    "duration": 0.09347550000001092
                },
                {
                    "name": "C6",
                    "midi": 84,
                    "time": 221.4434594999999,
                    "velocity": 0.6771653543307087,
                    "duration": 0.09347550000001092
                },
                {
                    "name": "C#6",
                    "midi": 85,
                    "time": 221.53693499999991,
                    "velocity": 0.6771653543307087,
                    "duration": 0.09347550000001092
                },
                {
                    "name": "D#6",
                    "midi": 87,
                    "time": 221.63041049999993,
                    "velocity": 0.6771653543307087,
                    "duration": 0.09347550000001092
                },
                {
                    "name": "E6",
                    "midi": 88,
                    "time": 221.72388599999994,
                    "velocity": 0.7480314960629921,
                    "duration": 0.09347550000001092
                },
                {
                    "name": "D#6",
                    "midi": 87,
                    "time": 221.81736149999995,
                    "velocity": 0.6771653543307087,
                    "duration": 0.09347550000001092
                },
                {
                    "name": "C#6",
                    "midi": 85,
                    "time": 221.91083699999996,
                    "velocity": 0.6771653543307087,
                    "duration": 0.09347550000001092
                },
                {
                    "name": "C6",
                    "midi": 84,
                    "time": 222.00431249999997,
                    "velocity": 0.6771653543307087,
                    "duration": 0.09347550000001092
                },
                {
                    "name": "C#6",
                    "midi": 85,
                    "time": 222.09778799999998,
                    "velocity": 0.7480314960629921,
                    "duration": 0.09347550000001092
                },
                {
                    "name": "C6",
                    "midi": 84,
                    "time": 222.1912635,
                    "velocity": 0.6771653543307087,
                    "duration": 0.09347550000001092
                },
                {
                    "name": "C#6",
                    "midi": 85,
                    "time": 222.284739,
                    "velocity": 0.6771653543307087,
                    "duration": 0.09347550000001092
                },
                {
                    "name": "D#6",
                    "midi": 87,
                    "time": 222.3782145,
                    "velocity": 0.6771653543307087,
                    "duration": 0.09347550000001092
                },
                {
                    "name": "E6",
                    "midi": 88,
                    "time": 222.47169000000002,
                    "velocity": 0.7480314960629921,
                    "duration": 0.09347550000001092
                },
                {
                    "name": "D#6",
                    "midi": 87,
                    "time": 222.56516550000003,
                    "velocity": 0.6771653543307087,
                    "duration": 0.09347550000001092
                },
                {
                    "name": "C#6",
                    "midi": 85,
                    "time": 222.65864100000005,
                    "velocity": 0.6771653543307087,
                    "duration": 0.09347550000001092
                },
                {
                    "name": "C6",
                    "midi": 84,
                    "time": 222.75211650000006,
                    "velocity": 0.6771653543307087,
                    "duration": 0.09347550000001092
                },
                {
                    "name": "C#6",
                    "midi": 85,
                    "time": 222.84559200000007,
                    "velocity": 0.7480314960629921,
                    "duration": 0.09347550000001092
                },
                {
                    "name": "C6",
                    "midi": 84,
                    "time": 222.93906750000008,
                    "velocity": 0.6771653543307087,
                    "duration": 0.09347550000001092
                },
                {
                    "name": "C#6",
                    "midi": 85,
                    "time": 223.0325430000001,
                    "velocity": 0.6771653543307087,
                    "duration": 0.09347550000001092
                },
                {
                    "name": "D#6",
                    "midi": 87,
                    "time": 223.1260185000001,
                    "velocity": 0.6771653543307087,
                    "duration": 0.09347550000001092
                },
                {
                    "name": "E6",
                    "midi": 88,
                    "time": 223.2194940000001,
                    "velocity": 0.7480314960629921,
                    "duration": 0.09347550000001092
                },
                {
                    "name": "D#6",
                    "midi": 87,
                    "time": 223.31296950000012,
                    "velocity": 0.6771653543307087,
                    "duration": 0.09347550000001092
                },
                {
                    "name": "C#6",
                    "midi": 85,
                    "time": 223.40644500000013,
                    "velocity": 0.6771653543307087,
                    "duration": 0.09347550000001092
                },
                {
                    "name": "C6",
                    "midi": 84,
                    "time": 223.49992050000014,
                    "velocity": 0.6771653543307087,
                    "duration": 0.09347550000001092
                },
                {
                    "name": "C#6",
                    "midi": 85,
                    "time": 223.59339600000015,
                    "velocity": 0.7480314960629921,
                    "duration": 0.09347550000001092
                },
                {
                    "name": "C6",
                    "midi": 84,
                    "time": 223.68687150000017,
                    "velocity": 0.6771653543307087,
                    "duration": 0.09347550000001092
                },
                {
                    "name": "C#6",
                    "midi": 85,
                    "time": 223.78034700000018,
                    "velocity": 0.6771653543307087,
                    "duration": 0.09347550000001092
                },
                {
                    "name": "D#6",
                    "midi": 87,
                    "time": 223.8738225000002,
                    "velocity": 0.6771653543307087,
                    "duration": 0.09347550000001092
                },
                {
                    "name": "E6",
                    "midi": 88,
                    "time": 223.9672980000002,
                    "velocity": 0.7480314960629921,
                    "duration": 0.09347550000001092
                },
                {
                    "name": "D#6",
                    "midi": 87,
                    "time": 224.0607735000002,
                    "velocity": 0.6771653543307087,
                    "duration": 0.09347550000001092
                },
                {
                    "name": "E6",
                    "midi": 88,
                    "time": 224.15424900000022,
                    "velocity": 0.6771653543307087,
                    "duration": 0.09347550000001092
                },
                {
                    "name": "C#6",
                    "midi": 85,
                    "time": 224.24772450000023,
                    "velocity": 0.6771653543307087,
                    "duration": 0.09347550000001092
                },
                {
                    "name": "B4",
                    "midi": 71,
                    "time": 224.34120000000024,
                    "velocity": 0.6850393700787402,
                    "duration": 0.09347550000001092
                },
                {
                    "name": "B5",
                    "midi": 83,
                    "time": 224.34120000000024,
                    "velocity": 0.8110236220472441,
                    "duration": 0.09347550000001092
                },
                {
                    "name": "B4",
                    "midi": 71,
                    "time": 224.52815100000026,
                    "velocity": 0.5748031496062992,
                    "duration": 0.09347550000001092
                },
                {
                    "name": "B5",
                    "midi": 83,
                    "time": 224.52815100000026,
                    "velocity": 0.6850393700787402,
                    "duration": 0.09347550000001092
                },
                {
                    "name": "G#4",
                    "midi": 68,
                    "time": 224.7151020000003,
                    "velocity": 0.5826771653543307,
                    "duration": 0.09347550000001092
                },
                {
                    "name": "G#5",
                    "midi": 80,
                    "time": 224.7151020000003,
                    "velocity": 0.6929133858267716,
                    "duration": 0.09347550000001092
                },
                {
                    "name": "E4",
                    "midi": 64,
                    "time": 224.9020530000003,
                    "velocity": 0.5748031496062992,
                    "duration": 0.09347550000001092
                },
                {
                    "name": "E5",
                    "midi": 76,
                    "time": 224.9020530000003,
                    "velocity": 0.6850393700787402,
                    "duration": 0.09347550000001092
                },
                {
                    "name": "E5",
                    "midi": 76,
                    "time": 225.08900400000033,
                    "velocity": 0.6850393700787402,
                    "duration": 0.09347550000001092
                },
                {
                    "name": "E6",
                    "midi": 88,
                    "time": 225.08900400000033,
                    "velocity": 0.8110236220472441,
                    "duration": 0.09347550000001092
                },
                {
                    "name": "E5",
                    "midi": 76,
                    "time": 225.27595500000035,
                    "velocity": 0.5748031496062992,
                    "duration": 0.09347550000001092
                },
                {
                    "name": "E6",
                    "midi": 88,
                    "time": 225.27595500000035,
                    "velocity": 0.6850393700787402,
                    "duration": 0.09347550000001092
                },
                {
                    "name": "B4",
                    "midi": 71,
                    "time": 225.46290600000037,
                    "velocity": 0.5748031496062992,
                    "duration": 0.09347550000001092
                },
                {
                    "name": "B5",
                    "midi": 83,
                    "time": 225.46290600000037,
                    "velocity": 0.6850393700787402,
                    "duration": 0.09347550000001092
                },
                {
                    "name": "G#4",
                    "midi": 68,
                    "time": 225.6498570000004,
                    "velocity": 0.5748031496062992,
                    "duration": 0.09347550000001092
                },
                {
                    "name": "G#5",
                    "midi": 80,
                    "time": 225.6498570000004,
                    "velocity": 0.6850393700787402,
                    "duration": 0.09347550000001092
                },
                {
                    "name": "B4",
                    "midi": 71,
                    "time": 225.83680800000042,
                    "velocity": 0.6850393700787402,
                    "duration": 0.09347550000001092
                },
                {
                    "name": "B5",
                    "midi": 83,
                    "time": 225.83680800000042,
                    "velocity": 0.8110236220472441,
                    "duration": 0.09347550000001092
                },
                {
                    "name": "B4",
                    "midi": 71,
                    "time": 226.02375900000044,
                    "velocity": 0.5748031496062992,
                    "duration": 0.09347550000001092
                },
                {
                    "name": "B5",
                    "midi": 83,
                    "time": 226.02375900000044,
                    "velocity": 0.6850393700787402,
                    "duration": 0.09347550000001092
                },
                {
                    "name": "G#4",
                    "midi": 68,
                    "time": 226.21071000000046,
                    "velocity": 0.5826771653543307,
                    "duration": 0.09347550000001092
                },
                {
                    "name": "G#5",
                    "midi": 80,
                    "time": 226.21071000000046,
                    "velocity": 0.6929133858267716,
                    "duration": 0.09347550000001092
                },
                {
                    "name": "E4",
                    "midi": 64,
                    "time": 226.39766100000048,
                    "velocity": 0.5748031496062992,
                    "duration": 0.09347550000001092
                },
                {
                    "name": "E5",
                    "midi": 76,
                    "time": 226.39766100000048,
                    "velocity": 0.6850393700787402,
                    "duration": 0.09347550000001092
                },
                {
                    "name": "E5",
                    "midi": 76,
                    "time": 226.5846120000005,
                    "velocity": 0.6850393700787402,
                    "duration": 0.09347550000001092
                },
                {
                    "name": "E6",
                    "midi": 88,
                    "time": 226.5846120000005,
                    "velocity": 0.8110236220472441,
                    "duration": 0.09347550000001092
                },
                {
                    "name": "E5",
                    "midi": 76,
                    "time": 226.77156300000053,
                    "velocity": 0.5748031496062992,
                    "duration": 0.09347550000001092
                },
                {
                    "name": "E6",
                    "midi": 88,
                    "time": 226.77156300000053,
                    "velocity": 0.6850393700787402,
                    "duration": 0.09347550000001092
                },
                {
                    "name": "B4",
                    "midi": 71,
                    "time": 226.95851400000055,
                    "velocity": 0.5748031496062992,
                    "duration": 0.09347550000001092
                },
                {
                    "name": "B5",
                    "midi": 83,
                    "time": 226.95851400000055,
                    "velocity": 0.6850393700787402,
                    "duration": 0.09347550000001092
                },
                {
                    "name": "G#4",
                    "midi": 68,
                    "time": 227.14546500000057,
                    "velocity": 0.5748031496062992,
                    "duration": 0.09347550000001092
                },
                {
                    "name": "G#5",
                    "midi": 80,
                    "time": 227.14546500000057,
                    "velocity": 0.6850393700787402,
                    "duration": 0.09347550000001092
                },
                {
                    "name": "G#5",
                    "midi": 80,
                    "time": 227.42589150000057,
                    "velocity": 0.3700787401574803,
                    "duration": 0.09347550000001092
                },
                {
                    "name": "B5",
                    "midi": 83,
                    "time": 227.51936700000059,
                    "velocity": 0.3937007874015748,
                    "duration": 0.09269653749998952
                },
                {
                    "name": "G#5",
                    "midi": 80,
                    "time": 227.61284250000057,
                    "velocity": 0.3700787401574803,
                    "duration": 0.09347550000001092
                },
                {
                    "name": "B5",
                    "midi": 83,
                    "time": 227.70631800000058,
                    "velocity": 0.4015748031496063,
                    "duration": 0.09269653749998952
                },
                {
                    "name": "G#5",
                    "midi": 80,
                    "time": 227.79979350000056,
                    "velocity": 0.3700787401574803,
                    "duration": 0.09347550000001092
                },
                {
                    "name": "B5",
                    "midi": 83,
                    "time": 227.89326900000057,
                    "velocity": 0.3937007874015748,
                    "duration": 0.09269653749998952
                },
                {
                    "name": "G#5",
                    "midi": 80,
                    "time": 227.98674450000055,
                    "velocity": 0.3700787401574803,
                    "duration": 0.09347550000001092
                },
                {
                    "name": "B5",
                    "midi": 83,
                    "time": 228.08022000000057,
                    "velocity": 0.4015748031496063,
                    "duration": 0.09269653749998952
                },
                {
                    "name": "G#5",
                    "midi": 80,
                    "time": 228.17369550000055,
                    "velocity": 0.3700787401574803,
                    "duration": 0.09347550000001092
                },
                {
                    "name": "B5",
                    "midi": 83,
                    "time": 228.26717100000056,
                    "velocity": 0.3937007874015748,
                    "duration": 0.09269653749998952
                },
                {
                    "name": "G#5",
                    "midi": 80,
                    "time": 228.36064650000054,
                    "velocity": 0.3700787401574803,
                    "duration": 0.09347550000001092
                },
                {
                    "name": "B5",
                    "midi": 83,
                    "time": 228.45412200000055,
                    "velocity": 0.4094488188976378,
                    "duration": 0.09269653749998952
                },
                {
                    "name": "G#5",
                    "midi": 80,
                    "time": 228.54759750000053,
                    "velocity": 0.3700787401574803,
                    "duration": 0.09347550000001092
                },
                {
                    "name": "B5",
                    "midi": 83,
                    "time": 228.64107300000055,
                    "velocity": 0.4015748031496063,
                    "duration": 0.09269653749998952
                },
                {
                    "name": "G#5",
                    "midi": 80,
                    "time": 228.73454850000053,
                    "velocity": 0.3700787401574803,
                    "duration": 0.09347550000001092
                },
                {
                    "name": "B5",
                    "midi": 83,
                    "time": 228.82802400000054,
                    "velocity": 0.3937007874015748,
                    "duration": 0.09269653749998952
                },
                {
                    "name": "G#5",
                    "midi": 80,
                    "time": 228.92149950000052,
                    "velocity": 0.3700787401574803,
                    "duration": 0.09347550000001092
                },
                {
                    "name": "B5",
                    "midi": 83,
                    "time": 229.01497500000053,
                    "velocity": 0.3937007874015748,
                    "duration": 0.09269653749998952
                },
                {
                    "name": "G#5",
                    "midi": 80,
                    "time": 229.10845050000052,
                    "velocity": 0.3700787401574803,
                    "duration": 0.09347550000001092
                },
                {
                    "name": "B5",
                    "midi": 83,
                    "time": 229.20192600000053,
                    "velocity": 0.4015748031496063,
                    "duration": 0.09269653749998952
                },
                {
                    "name": "G#5",
                    "midi": 80,
                    "time": 229.2954015000005,
                    "velocity": 0.3700787401574803,
                    "duration": 0.09347550000001092
                },
                {
                    "name": "B5",
                    "midi": 83,
                    "time": 229.38887700000052,
                    "velocity": 0.3937007874015748,
                    "duration": 0.09269653749998952
                },
                {
                    "name": "G#5",
                    "midi": 80,
                    "time": 229.4823525000005,
                    "velocity": 0.3700787401574803,
                    "duration": 0.09347550000001092
                },
                {
                    "name": "B5",
                    "midi": 83,
                    "time": 229.5758280000005,
                    "velocity": 0.4015748031496063,
                    "duration": 0.09269653749998952
                },
                {
                    "name": "G#5",
                    "midi": 80,
                    "time": 229.6693035000005,
                    "velocity": 0.3700787401574803,
                    "duration": 0.09347550000001092
                },
                {
                    "name": "B5",
                    "midi": 83,
                    "time": 229.7627790000005,
                    "velocity": 0.3937007874015748,
                    "duration": 0.09269653749998952
                },
                {
                    "name": "G#5",
                    "midi": 80,
                    "time": 229.8562545000005,
                    "velocity": 0.3700787401574803,
                    "duration": 0.09347550000001092
                },
                {
                    "name": "B5",
                    "midi": 83,
                    "time": 229.9497300000005,
                    "velocity": 0.4094488188976378,
                    "duration": 0.09269653749998952
                },
                {
                    "name": "G#5",
                    "midi": 80,
                    "time": 230.04320550000048,
                    "velocity": 0.3700787401574803,
                    "duration": 0.09347550000001092
                },
                {
                    "name": "B5",
                    "midi": 83,
                    "time": 230.1366810000005,
                    "velocity": 0.4015748031496063,
                    "duration": 0.09269653749998952
                },
                {
                    "name": "G#5",
                    "midi": 80,
                    "time": 230.23015650000048,
                    "velocity": 0.3700787401574803,
                    "duration": 0.09347550000001092
                },
                {
                    "name": "A5",
                    "midi": 81,
                    "time": 230.4171075000005,
                    "velocity": 0.33070866141732286,
                    "duration": 0.09347550000001092
                },
                {
                    "name": "B5",
                    "midi": 83,
                    "time": 230.5105830000005,
                    "velocity": 0.3543307086614173,
                    "duration": 0.09269653749998952
                },
                {
                    "name": "A5",
                    "midi": 81,
                    "time": 230.6040585000005,
                    "velocity": 0.3228346456692913,
                    "duration": 0.09347550000001092
                },
                {
                    "name": "C6",
                    "midi": 84,
                    "time": 230.6975340000005,
                    "velocity": 0.3464566929133858,
                    "duration": 0.09269653749998952
                },
                {
                    "name": "A5",
                    "midi": 81,
                    "time": 230.79100950000048,
                    "velocity": 0.31496062992125984,
                    "duration": 0.09347550000001092
                },
                {
                    "name": "B5",
                    "midi": 83,
                    "time": 230.8844850000005,
                    "velocity": 0.33070866141732286,
                    "duration": 0.09269653749998952
                },
                {
                    "name": "A5",
                    "midi": 81,
                    "time": 230.97796050000048,
                    "velocity": 0.30708661417322836,
                    "duration": 0.09347550000001092
                },
                {
                    "name": "C6",
                    "midi": 84,
                    "time": 231.0714360000005,
                    "velocity": 0.33070866141732286,
                    "duration": 0.09269653749998952
                },
                {
                    "name": "A5",
                    "midi": 81,
                    "time": 231.16491150000047,
                    "velocity": 0.2992125984251969,
                    "duration": 0.09347550000001092
                },
                {
                    "name": "B5",
                    "midi": 83,
                    "time": 231.25838700000048,
                    "velocity": 0.31496062992125984,
                    "duration": 0.09269653749998952
                },
                {
                    "name": "A5",
                    "midi": 81,
                    "time": 231.35186250000046,
                    "velocity": 0.29133858267716534,
                    "duration": 0.09347550000001092
                },
                {
                    "name": "C6",
                    "midi": 84,
                    "time": 231.44533800000048,
                    "velocity": 0.31496062992125984,
                    "duration": 0.09269653749998952
                },
                {
                    "name": "A5",
                    "midi": 81,
                    "time": 231.53881350000046,
                    "velocity": 0.28346456692913385,
                    "duration": 0.09347550000001092
                },
                {
                    "name": "B5",
                    "midi": 83,
                    "time": 231.63228900000047,
                    "velocity": 0.30708661417322836,
                    "duration": 0.09269653749998952
                },
                {
                    "name": "A5",
                    "midi": 81,
                    "time": 231.72576450000045,
                    "velocity": 0.2755905511811024,
                    "duration": 0.09347550000001092
                },
                {
                    "name": "C6",
                    "midi": 84,
                    "time": 231.81924000000046,
                    "velocity": 0.29133858267716534,
                    "duration": 0.09269653749998952
                },
                {
                    "name": "A5",
                    "midi": 81,
                    "time": 231.91271550000044,
                    "velocity": 0.2677165354330709,
                    "duration": 0.09347550000001092
                },
                {
                    "name": "B5",
                    "midi": 83,
                    "time": 232.00619100000046,
                    "velocity": 0.28346456692913385,
                    "duration": 0.09269653749998952
                },
                {
                    "name": "A5",
                    "midi": 81,
                    "time": 232.09966650000044,
                    "velocity": 0.2677165354330709,
                    "duration": 0.09347550000001092
                },
                {
                    "name": "C6",
                    "midi": 84,
                    "time": 232.19314200000045,
                    "velocity": 0.29133858267716534,
                    "duration": 0.09269653749998952
                },
                {
                    "name": "A5",
                    "midi": 81,
                    "time": 232.28661750000043,
                    "velocity": 0.2677165354330709,
                    "duration": 0.09347550000001092
                },
                {
                    "name": "B5",
                    "midi": 83,
                    "time": 232.38009300000044,
                    "velocity": 0.28346456692913385,
                    "duration": 0.09269653749998952
                },
                {
                    "name": "A5",
                    "midi": 81,
                    "time": 232.47356850000043,
                    "velocity": 0.2677165354330709,
                    "duration": 0.09347550000001092
                },
                {
                    "name": "C6",
                    "midi": 84,
                    "time": 232.56704400000044,
                    "velocity": 0.29133858267716534,
                    "duration": 0.09269653749998952
                },
                {
                    "name": "A5",
                    "midi": 81,
                    "time": 232.66051950000042,
                    "velocity": 0.2677165354330709,
                    "duration": 0.09347550000001092
                },
                {
                    "name": "B5",
                    "midi": 83,
                    "time": 232.75399500000043,
                    "velocity": 0.28346456692913385,
                    "duration": 0.09269653749998952
                },
                {
                    "name": "A5",
                    "midi": 81,
                    "time": 232.8474705000004,
                    "velocity": 0.2677165354330709,
                    "duration": 0.09347550000001092
                },
                {
                    "name": "C6",
                    "midi": 84,
                    "time": 232.94094600000042,
                    "velocity": 0.2992125984251969,
                    "duration": 0.09269653749998952
                },
                {
                    "name": "A5",
                    "midi": 81,
                    "time": 233.0344215000004,
                    "velocity": 0.2677165354330709,
                    "duration": 0.09347550000001092
                },
                {
                    "name": "B5",
                    "midi": 83,
                    "time": 233.12789700000042,
                    "velocity": 0.29133858267716534,
                    "duration": 0.09269653749998952
                },
                {
                    "name": "A5",
                    "midi": 81,
                    "time": 233.2213725000004,
                    "velocity": 0.2677165354330709,
                    "duration": 0.09347550000001092
                },
                {
                    "name": "C#6",
                    "midi": 85,
                    "time": 233.3148480000004,
                    "velocity": 0.29133858267716534,
                    "duration": 0.09347550000001092
                },
                {
                    "name": "A5",
                    "midi": 81,
                    "time": 233.40832350000042,
                    "velocity": 0.2677165354330709,
                    "duration": 0.09347550000001092
                },
                {
                    "name": "B5",
                    "midi": 83,
                    "time": 233.50179900000043,
                    "velocity": 0.28346456692913385,
                    "duration": 0.09347550000001092
                },
                {
                    "name": "A5",
                    "midi": 81,
                    "time": 233.59527450000044,
                    "velocity": 0.2755905511811024,
                    "duration": 0.09347550000001092
                },
                {
                    "name": "C#6",
                    "midi": 85,
                    "time": 233.68875000000045,
                    "velocity": 0.2992125984251969,
                    "duration": 0.09347550000001092
                },
                {
                    "name": "A5",
                    "midi": 81,
                    "time": 233.78222550000046,
                    "velocity": 0.28346456692913385,
                    "duration": 0.09347550000001092
                },
                {
                    "name": "B5",
                    "midi": 83,
                    "time": 233.87570100000048,
                    "velocity": 0.2992125984251969,
                    "duration": 0.09347550000001092
                },
                {
                    "name": "A5",
                    "midi": 81,
                    "time": 233.9691765000005,
                    "velocity": 0.28346456692913385,
                    "duration": 0.09347550000001092
                },
                {
                    "name": "C#6",
                    "midi": 85,
                    "time": 234.0626520000005,
                    "velocity": 0.31496062992125984,
                    "duration": 0.09347550000001092
                },
                {
                    "name": "A5",
                    "midi": 81,
                    "time": 234.1561275000005,
                    "velocity": 0.29133858267716534,
                    "duration": 0.09347550000001092
                },
                {
                    "name": "B5",
                    "midi": 83,
                    "time": 234.24960300000052,
                    "velocity": 0.31496062992125984,
                    "duration": 0.09347550000001092
                },
                {
                    "name": "A5",
                    "midi": 81,
                    "time": 234.34307850000053,
                    "velocity": 0.2992125984251969,
                    "duration": 0.09347550000001092
                },
                {
                    "name": "C#6",
                    "midi": 85,
                    "time": 234.43655400000054,
                    "velocity": 0.33858267716535434,
                    "duration": 0.09347550000001092
                },
                {
                    "name": "A5",
                    "midi": 81,
                    "time": 234.53002950000055,
                    "velocity": 0.30708661417322836,
                    "duration": 0.09347550000001092
                },
                {
                    "name": "B5",
                    "midi": 83,
                    "time": 234.62350500000056,
                    "velocity": 0.33858267716535434,
                    "duration": 0.09347550000001092
                },
                {
                    "name": "A5",
                    "midi": 81,
                    "time": 234.71698050000057,
                    "velocity": 0.31496062992125984,
                    "duration": 0.09347550000001092
                },
                {
                    "name": "F#6",
                    "midi": 90,
                    "time": 234.81045600000058,
                    "velocity": 0.3464566929133858,
                    "duration": 0.09347550000001092
                },
                {
                    "name": "B5",
                    "midi": 83,
                    "time": 234.9039315000006,
                    "velocity": 0.3228346456692913,
                    "duration": 0.09347550000001092
                },
                {
                    "name": "A5",
                    "midi": 81,
                    "time": 234.9039315000006,
                    "velocity": 0.3228346456692913,
                    "duration": 0.09347550000001092
                },
                {
                    "name": "F#6",
                    "midi": 90,
                    "time": 234.9974070000006,
                    "velocity": 0.33858267716535434,
                    "duration": 0.09347550000001092
                },
                {
                    "name": "B5",
                    "midi": 83,
                    "time": 235.09088250000062,
                    "velocity": 0.3228346456692913,
                    "duration": 0.09347550000001092
                },
                {
                    "name": "A5",
                    "midi": 81,
                    "time": 235.09088250000062,
                    "velocity": 0.3228346456692913,
                    "duration": 0.09347550000001092
                },
                {
                    "name": "F#6",
                    "midi": 90,
                    "time": 235.18435800000063,
                    "velocity": 0.36220472440944884,
                    "duration": 0.09347550000001092
                },
                {
                    "name": "B5",
                    "midi": 83,
                    "time": 235.27783350000064,
                    "velocity": 0.33070866141732286,
                    "duration": 0.09347550000001092
                },
                {
                    "name": "A5",
                    "midi": 81,
                    "time": 235.27783350000064,
                    "velocity": 0.33070866141732286,
                    "duration": 0.09347550000001092
                },
                {
                    "name": "F#6",
                    "midi": 90,
                    "time": 235.37130900000065,
                    "velocity": 0.36220472440944884,
                    "duration": 0.09347550000001092
                },
                {
                    "name": "B5",
                    "midi": 83,
                    "time": 235.46478450000066,
                    "velocity": 0.3464566929133858,
                    "duration": 0.09347550000001092
                },
                {
                    "name": "A5",
                    "midi": 81,
                    "time": 235.46478450000066,
                    "velocity": 0.3464566929133858,
                    "duration": 0.09347550000001092
                },
                {
                    "name": "F#6",
                    "midi": 90,
                    "time": 235.55826000000067,
                    "velocity": 0.3858267716535433,
                    "duration": 0.09347550000001092
                },
                {
                    "name": "B5",
                    "midi": 83,
                    "time": 235.65173550000068,
                    "velocity": 0.3543307086614173,
                    "duration": 0.09347550000001092
                },
                {
                    "name": "A5",
                    "midi": 81,
                    "time": 235.65173550000068,
                    "velocity": 0.3543307086614173,
                    "duration": 0.09347550000001092
                },
                {
                    "name": "F#6",
                    "midi": 90,
                    "time": 235.7452110000007,
                    "velocity": 0.3858267716535433,
                    "duration": 0.09347550000001092
                },
                {
                    "name": "B5",
                    "midi": 83,
                    "time": 235.8386865000007,
                    "velocity": 0.3700787401574803,
                    "duration": 0.09347550000001092
                },
                {
                    "name": "A5",
                    "midi": 81,
                    "time": 235.8386865000007,
                    "velocity": 0.3700787401574803,
                    "duration": 0.09347550000001092
                },
                {
                    "name": "F#6",
                    "midi": 90,
                    "time": 235.93216200000072,
                    "velocity": 0.4251968503937008,
                    "duration": 0.09347550000001092
                },
                {
                    "name": "B5",
                    "midi": 83,
                    "time": 236.02563750000073,
                    "velocity": 0.3779527559055118,
                    "duration": 0.09347550000001092
                },
                {
                    "name": "A5",
                    "midi": 81,
                    "time": 236.02563750000073,
                    "velocity": 0.3779527559055118,
                    "duration": 0.09347550000001092
                },
                {
                    "name": "F#6",
                    "midi": 90,
                    "time": 236.11911300000074,
                    "velocity": 0.41732283464566927,
                    "duration": 0.09347550000001092
                },
                {
                    "name": "B5",
                    "midi": 83,
                    "time": 236.21258850000075,
                    "velocity": 0.3858267716535433,
                    "duration": 0.09347550000001092
                },
                {
                    "name": "A5",
                    "midi": 81,
                    "time": 236.21258850000075,
                    "velocity": 0.3858267716535433,
                    "duration": 0.09347550000001092
                },
                {
                    "name": "G#5",
                    "midi": 80,
                    "time": 236.30606400000076,
                    "velocity": 0.5669291338582677,
                    "duration": 1.121705999999989
                },
                {
                    "name": "B5",
                    "midi": 83,
                    "time": 236.30606400000076,
                    "velocity": 0.5669291338582677,
                    "duration": 1.121705999999989
                },
                {
                    "name": "E6",
                    "midi": 88,
                    "time": 236.30606400000076,
                    "velocity": 0.5669291338582677,
                    "duration": 1.121705999999989
                },
                {
                    "name": "E6",
                    "midi": 88,
                    "time": 237.42777000000075,
                    "velocity": 0.4566929133858268,
                    "duration": 0.09347550000001092
                },
                {
                    "name": "D6",
                    "midi": 86,
                    "time": 237.52124550000076,
                    "velocity": 0.44881889763779526,
                    "duration": 0.09347550000001092
                },
                {
                    "name": "C6",
                    "midi": 84,
                    "time": 237.61472100000077,
                    "velocity": 0.4409448818897638,
                    "duration": 0.09347550000001092
                },
                {
                    "name": "B5",
                    "midi": 83,
                    "time": 237.70819650000078,
                    "velocity": 0.4330708661417323,
                    "duration": 0.09347550000001092
                },
                {
                    "name": "C6",
                    "midi": 84,
                    "time": 237.8016720000008,
                    "velocity": 0.4566929133858268,
                    "duration": 0.09347550000001092
                },
                {
                    "name": "B5",
                    "midi": 83,
                    "time": 237.8951475000008,
                    "velocity": 0.44881889763779526,
                    "duration": 0.09347550000001092
                },
                {
                    "name": "A5",
                    "midi": 81,
                    "time": 237.9886230000008,
                    "velocity": 0.4409448818897638,
                    "duration": 0.09347550000001092
                },
                {
                    "name": "G#5",
                    "midi": 80,
                    "time": 238.08209850000082,
                    "velocity": 0.4330708661417323,
                    "duration": 0.09347550000001092
                },
                {
                    "name": "A5",
                    "midi": 81,
                    "time": 238.17557400000084,
                    "velocity": 0.4015748031496063,
                    "duration": 0.09347550000001092
                },
                {
                    "name": "B5",
                    "midi": 83,
                    "time": 238.26904950000085,
                    "velocity": 0.4094488188976378,
                    "duration": 0.09347550000001092
                },
                {
                    "name": "C6",
                    "midi": 84,
                    "time": 238.36252500000086,
                    "velocity": 0.41732283464566927,
                    "duration": 0.09347550000001092
                },
                {
                    "name": "D6",
                    "midi": 86,
                    "time": 238.45600050000087,
                    "velocity": 0.4251968503937008,
                    "duration": 0.09347550000001092
                },
                {
                    "name": "E6",
                    "midi": 88,
                    "time": 238.54947600000088,
                    "velocity": 0.4409448818897638,
                    "duration": 0.09347550000001092
                },
                {
                    "name": "F6",
                    "midi": 89,
                    "time": 238.6429515000009,
                    "velocity": 0.44881889763779526,
                    "duration": 0.09347550000001092
                },
                {
                    "name": "E6",
                    "midi": 88,
                    "time": 238.7364270000009,
                    "velocity": 0.44881889763779526,
                    "duration": 0.09347550000001092
                },
                {
                    "name": "D#6",
                    "midi": 87,
                    "time": 238.8299025000009,
                    "velocity": 0.4409448818897638,
                    "duration": 0.09347550000001092
                },
                {
                    "name": "E6",
                    "midi": 88,
                    "time": 238.92337800000092,
                    "velocity": 0.4409448818897638,
                    "duration": 0.09347550000001092
                },
                {
                    "name": "D6",
                    "midi": 86,
                    "time": 239.01685350000093,
                    "velocity": 0.4409448818897638,
                    "duration": 0.09347550000001092
                },
                {
                    "name": "C6",
                    "midi": 84,
                    "time": 239.11032900000095,
                    "velocity": 0.4409448818897638,
                    "duration": 0.09347550000001092
                },
                {
                    "name": "B5",
                    "midi": 83,
                    "time": 239.20380450000096,
                    "velocity": 0.4409448818897638,
                    "duration": 0.09347550000001092
                },
                {
                    "name": "C6",
                    "midi": 84,
                    "time": 239.29728000000097,
                    "velocity": 0.44881889763779526,
                    "duration": 0.09347550000001092
                },
                {
                    "name": "D6",
                    "midi": 86,
                    "time": 239.39075550000098,
                    "velocity": 0.44881889763779526,
                    "duration": 0.09347550000001092
                },
                {
                    "name": "C6",
                    "midi": 84,
                    "time": 239.484231000001,
                    "velocity": 0.44881889763779526,
                    "duration": 0.09347550000001092
                },
                {
                    "name": "B5",
                    "midi": 83,
                    "time": 239.577706500001,
                    "velocity": 0.41732283464566927,
                    "duration": 0.09347550000001092
                },
                {
                    "name": "A5",
                    "midi": 81,
                    "time": 239.671182000001,
                    "velocity": 0.4409448818897638,
                    "duration": 0.09347550000001092
                },
                {
                    "name": "G#5",
                    "midi": 80,
                    "time": 239.76465750000102,
                    "velocity": 0.4094488188976378,
                    "duration": 0.09347550000001092
                },
                {
                    "name": "A5",
                    "midi": 81,
                    "time": 239.85813300000103,
                    "velocity": 0.4409448818897638,
                    "duration": 0.09347550000001092
                },
                {
                    "name": "B5",
                    "midi": 83,
                    "time": 239.95160850000104,
                    "velocity": 0.4094488188976378,
                    "duration": 0.09347550000001092
                },
                {
                    "name": "C5",
                    "midi": 72,
                    "time": 240.04508400000105,
                    "velocity": 0.3543307086614173,
                    "duration": 0.7478039999999737
                },
                {
                    "name": "C6",
                    "midi": 84,
                    "time": 240.04508400000105,
                    "velocity": 0.4645669291338583,
                    "duration": 0.37390199999998686
                },
                {
                    "name": "A5",
                    "midi": 81,
                    "time": 240.41898600000104,
                    "velocity": 0.4094488188976378,
                    "duration": 0.18695099999999343
                },
                {
                    "name": "F#5",
                    "midi": 78,
                    "time": 240.60593700000103,
                    "velocity": 0.4094488188976378,
                    "duration": 0.18695099999999343
                },
                {
                    "name": "B4",
                    "midi": 71,
                    "time": 240.79288800000103,
                    "velocity": 0.3543307086614173,
                    "duration": 0.7478039999999737
                },
                {
                    "name": "B5",
                    "midi": 83,
                    "time": 240.79288800000103,
                    "velocity": 0.44881889763779526,
                    "duration": 0.37390199999998686
                },
                {
                    "name": "G5",
                    "midi": 79,
                    "time": 241.16679000000101,
                    "velocity": 0.4094488188976378,
                    "duration": 0.18695099999999343
                },
                {
                    "name": "E5",
                    "midi": 76,
                    "time": 241.353741000001,
                    "velocity": 0.4094488188976378,
                    "duration": 0.18695099999999343
                },
                {
                    "name": "A4",
                    "midi": 69,
                    "time": 241.540692000001,
                    "velocity": 0.3543307086614173,
                    "duration": 0.7478039999999737
                },
                {
                    "name": "A5",
                    "midi": 81,
                    "time": 241.540692000001,
                    "velocity": 0.44881889763779526,
                    "duration": 0.37390199999998686
                },
                {
                    "name": "F#5",
                    "midi": 78,
                    "time": 241.914594000001,
                    "velocity": 0.4094488188976378,
                    "duration": 0.18695099999999343
                },
                {
                    "name": "D#5",
                    "midi": 75,
                    "time": 242.10154500000098,
                    "velocity": 0.4094488188976378,
                    "duration": 0.18695099999999343
                },
                {
                    "name": "E5",
                    "midi": 76,
                    "time": 242.28849600000098,
                    "velocity": 0.5669291338582677,
                    "duration": 1.121705999999989
                },
                {
                    "name": "E5",
                    "midi": 76,
                    "time": 243.41020200000096,
                    "velocity": 0.4566929133858268,
                    "duration": 0.09347550000001092
                },
                {
                    "name": "D5",
                    "midi": 74,
                    "time": 243.50367750000098,
                    "velocity": 0.44881889763779526,
                    "duration": 0.09347550000001092
                },
                {
                    "name": "C5",
                    "midi": 72,
                    "time": 243.597153000001,
                    "velocity": 0.4409448818897638,
                    "duration": 0.09347550000001092
                },
                {
                    "name": "B4",
                    "midi": 71,
                    "time": 243.690628500001,
                    "velocity": 0.4330708661417323,
                    "duration": 0.09347550000001092
                },
                {
                    "name": "C5",
                    "midi": 72,
                    "time": 243.784104000001,
                    "velocity": 0.4566929133858268,
                    "duration": 0.09347550000001092
                },
                {
                    "name": "B4",
                    "midi": 71,
                    "time": 243.87757950000102,
                    "velocity": 0.44881889763779526,
                    "duration": 0.09347550000001092
                },
                {
                    "name": "A4",
                    "midi": 69,
                    "time": 243.97105500000103,
                    "velocity": 0.4409448818897638,
                    "duration": 0.09347550000001092
                },
                {
                    "name": "G#4",
                    "midi": 68,
                    "time": 244.06453050000104,
                    "velocity": 0.4330708661417323,
                    "duration": 0.09347550000001092
                },
                {
                    "name": "A4",
                    "midi": 69,
                    "time": 244.15800600000105,
                    "velocity": 0.4015748031496063,
                    "duration": 0.09347550000001092
                },
                {
                    "name": "B4",
                    "midi": 71,
                    "time": 244.25148150000106,
                    "velocity": 0.4094488188976378,
                    "duration": 0.09347550000001092
                },
                {
                    "name": "C5",
                    "midi": 72,
                    "time": 244.34495700000107,
                    "velocity": 0.41732283464566927,
                    "duration": 0.09347550000001092
                },
                {
                    "name": "D5",
                    "midi": 74,
                    "time": 244.43843250000108,
                    "velocity": 0.4251968503937008,
                    "duration": 0.09347550000001092
                },
                {
                    "name": "E5",
                    "midi": 76,
                    "time": 244.5319080000011,
                    "velocity": 0.4409448818897638,
                    "duration": 0.09347550000001092
                },
                {
                    "name": "F5",
                    "midi": 77,
                    "time": 244.6253835000011,
                    "velocity": 0.44881889763779526,
                    "duration": 0.09347550000001092
                },
                {
                    "name": "E5",
                    "midi": 76,
                    "time": 244.71885900000112,
                    "velocity": 0.44881889763779526,
                    "duration": 0.09347550000001092
                },
                {
                    "name": "D#5",
                    "midi": 75,
                    "time": 244.81233450000113,
                    "velocity": 0.4409448818897638,
                    "duration": 0.09347550000001092
                },
                {
                    "name": "E5",
                    "midi": 76,
                    "time": 244.90581000000114,
                    "velocity": 0.4409448818897638,
                    "duration": 0.09347550000001092
                },
                {
                    "name": "D5",
                    "midi": 74,
                    "time": 244.99928550000115,
                    "velocity": 0.4409448818897638,
                    "duration": 0.09347550000001092
                },
                {
                    "name": "C5",
                    "midi": 72,
                    "time": 245.09276100000116,
                    "velocity": 0.4409448818897638,
                    "duration": 0.09347550000001092
                },
                {
                    "name": "B4",
                    "midi": 71,
                    "time": 245.18623650000117,
                    "velocity": 0.4409448818897638,
                    "duration": 0.09347550000001092
                },
                {
                    "name": "C5",
                    "midi": 72,
                    "time": 245.27971200000118,
                    "velocity": 0.44881889763779526,
                    "duration": 0.09347550000001092
                },
                {
                    "name": "D5",
                    "midi": 74,
                    "time": 245.3731875000012,
                    "velocity": 0.44881889763779526,
                    "duration": 0.09347550000001092
                },
                {
                    "name": "C5",
                    "midi": 72,
                    "time": 245.4666630000012,
                    "velocity": 0.44881889763779526,
                    "duration": 0.09347550000001092
                },
                {
                    "name": "B4",
                    "midi": 71,
                    "time": 245.56013850000122,
                    "velocity": 0.41732283464566927,
                    "duration": 0.09347550000001092
                },
                {
                    "name": "A4",
                    "midi": 69,
                    "time": 245.65361400000123,
                    "velocity": 0.4409448818897638,
                    "duration": 0.09347550000001092
                },
                {
                    "name": "G#4",
                    "midi": 68,
                    "time": 245.74708950000124,
                    "velocity": 0.4094488188976378,
                    "duration": 0.09347550000001092
                },
                {
                    "name": "A4",
                    "midi": 69,
                    "time": 245.84056500000125,
                    "velocity": 0.4409448818897638,
                    "duration": 0.09347550000001092
                },
                {
                    "name": "B4",
                    "midi": 71,
                    "time": 245.93404050000126,
                    "velocity": 0.4094488188976378,
                    "duration": 0.09347550000001092
                },
                {
                    "name": "C4",
                    "midi": 60,
                    "time": 246.02751600000127,
                    "velocity": 0.3543307086614173,
                    "duration": 0.7478039999999737
                },
                {
                    "name": "C5",
                    "midi": 72,
                    "time": 246.02751600000127,
                    "velocity": 0.4645669291338583,
                    "duration": 0.37390199999998686
                },
                {
                    "name": "A4",
                    "midi": 69,
                    "time": 246.40141800000126,
                    "velocity": 0.4094488188976378,
                    "duration": 0.18695099999999343
                },
                {
                    "name": "F#4",
                    "midi": 66,
                    "time": 246.58836900000125,
                    "velocity": 0.4094488188976378,
                    "duration": 0.18695099999999343
                },
                {
                    "name": "B3",
                    "midi": 59,
                    "time": 246.77532000000124,
                    "velocity": 0.3543307086614173,
                    "duration": 0.7478039999999737
                },
                {
                    "name": "B4",
                    "midi": 71,
                    "time": 246.77532000000124,
                    "velocity": 0.44881889763779526,
                    "duration": 0.37390199999998686
                },
                {
                    "name": "G4",
                    "midi": 67,
                    "time": 247.14922200000123,
                    "velocity": 0.4094488188976378,
                    "duration": 0.18695099999999343
                },
                {
                    "name": "E4",
                    "midi": 64,
                    "time": 247.33617300000122,
                    "velocity": 0.4094488188976378,
                    "duration": 0.18695099999999343
                },
                {
                    "name": "A3",
                    "midi": 57,
                    "time": 247.52312400000122,
                    "velocity": 0.3543307086614173,
                    "duration": 0.7478039999999737
                },
                {
                    "name": "A4",
                    "midi": 69,
                    "time": 247.52312400000122,
                    "velocity": 0.44881889763779526,
                    "duration": 0.37390199999998686
                },
                {
                    "name": "F#4",
                    "midi": 66,
                    "time": 247.8970260000012,
                    "velocity": 0.4094488188976378,
                    "duration": 0.18695099999999343
                },
                {
                    "name": "D#4",
                    "midi": 63,
                    "time": 248.0839770000012,
                    "velocity": 0.4094488188976378,
                    "duration": 0.18695099999999343
                },
                {
                    "name": "E4",
                    "midi": 64,
                    "time": 248.2709280000012,
                    "velocity": 0.4330708661417323,
                    "duration": 0.18695099999999343
                },
                {
                    "name": "E5",
                    "midi": 76,
                    "time": 248.64483000000118,
                    "velocity": 0.5354330708661418,
                    "duration": 0.18695099999999343
                },
                {
                    "name": "D5",
                    "midi": 74,
                    "time": 248.83178100000117,
                    "velocity": 0.49606299212598426,
                    "duration": 0.18695099999999343
                },
                {
                    "name": "C5",
                    "midi": 72,
                    "time": 249.01873200000117,
                    "velocity": 0.5196850393700787,
                    "duration": 0.37390199999998686
                },
                {
                    "name": "A4",
                    "midi": 69,
                    "time": 249.39263400000115,
                    "velocity": 0.48031496062992124,
                    "duration": 0.18695099999999343
                },
                {
                    "name": "F4",
                    "midi": 65,
                    "time": 249.57958500000115,
                    "velocity": 0.4251968503937008,
                    "duration": 0.18695099999999343
                },
                {
                    "name": "B4",
                    "midi": 71,
                    "time": 249.76653600000114,
                    "velocity": 0.4015748031496063,
                    "duration": 0.37390199999998686
                },
                {
                    "name": "G4",
                    "midi": 67,
                    "time": 250.14043800000113,
                    "velocity": 0.36220472440944884,
                    "duration": 0.18695099999999343
                },
                {
                    "name": "E4",
                    "midi": 64,
                    "time": 250.32738900000112,
                    "velocity": 0.36220472440944884,
                    "duration": 0.18695099999999343
                },
                {
                    "name": "A4",
                    "midi": 69,
                    "time": 250.5143400000011,
                    "velocity": 0.4015748031496063,
                    "duration": 0.37390199999998686
                },
                {
                    "name": "F#4",
                    "midi": 66,
                    "time": 250.8882420000011,
                    "velocity": 0.36220472440944884,
                    "duration": 0.18695099999999343
                },
                {
                    "name": "D#4",
                    "midi": 63,
                    "time": 251.0751930000011,
                    "velocity": 0.36220472440944884,
                    "duration": 0.18695099999999343
                },
                {
                    "name": "E4",
                    "midi": 64,
                    "time": 251.2621440000011,
                    "velocity": 0.4330708661417323,
                    "duration": 0.18695099999999343
                },
                {
                    "name": "C5",
                    "midi": 72,
                    "time": 251.63604600000107,
                    "velocity": 0.5275590551181102,
                    "duration": 0.18695099999999343
                },
                {
                    "name": "B4",
                    "midi": 71,
                    "time": 251.82299700000107,
                    "velocity": 0.49606299212598426,
                    "duration": 0.18695099999999343
                },
                {
                    "name": "A4",
                    "midi": 69,
                    "time": 252.00994800000106,
                    "velocity": 0.5196850393700787,
                    "duration": 0.37390199999998686
                },
                {
                    "name": "F4",
                    "midi": 65,
                    "time": 252.38385000000105,
                    "velocity": 0.48031496062992124,
                    "duration": 0.18695099999999343
                },
                {
                    "name": "D4",
                    "midi": 62,
                    "time": 252.57080100000104,
                    "velocity": 0.4251968503937008,
                    "duration": 0.18695099999999343
                },
                {
                    "name": "G4",
                    "midi": 67,
                    "time": 252.75775200000103,
                    "velocity": 0.4015748031496063,
                    "duration": 0.37390199999998686
                },
                {
                    "name": "E4",
                    "midi": 64,
                    "time": 253.13165400000102,
                    "velocity": 0.36220472440944884,
                    "duration": 0.18695099999999343
                },
                {
                    "name": "C4",
                    "midi": 60,
                    "time": 253.318605000001,
                    "velocity": 0.36220472440944884,
                    "duration": 0.18695099999999343
                },
                {
                    "name": "F4",
                    "midi": 65,
                    "time": 253.505556000001,
                    "velocity": 0.4015748031496063,
                    "duration": 0.37390199999998686
                },
                {
                    "name": "D4",
                    "midi": 62,
                    "time": 253.879458000001,
                    "velocity": 0.36220472440944884,
                    "duration": 0.18695099999999343
                },
                {
                    "name": "B3",
                    "midi": 59,
                    "time": 254.066409000001,
                    "velocity": 0.36220472440944884,
                    "duration": 0.18695099999999343
                },
                {
                    "name": "C4",
                    "midi": 60,
                    "time": 254.25336000000098,
                    "velocity": 0.4330708661417323,
                    "duration": 0.37390199999998686
                },
                {
                    "name": "F5",
                    "midi": 77,
                    "time": 254.62726200000097,
                    "velocity": 0.5433070866141733,
                    "duration": 0.18695099999999343
                },
                {
                    "name": "E5",
                    "midi": 76,
                    "time": 254.81421300000096,
                    "velocity": 0.5039370078740157,
                    "duration": 0.18695099999999343
                },
                {
                    "name": "D5",
                    "midi": 74,
                    "time": 255.00116400000095,
                    "velocity": 0.5196850393700787,
                    "duration": 0.37390199999998686
                },
                {
                    "name": "A#4",
                    "midi": 70,
                    "time": 255.37506600000094,
                    "velocity": 0.48031496062992124,
                    "duration": 0.18695099999999343
                },
                {
                    "name": "G4",
                    "midi": 67,
                    "time": 255.56201700000094,
                    "velocity": 0.4251968503937008,
                    "duration": 0.18695099999999343
                },
                {
                    "name": "C5",
                    "midi": 72,
                    "time": 255.74896800000093,
                    "velocity": 0.4015748031496063,
                    "duration": 0.3739020000000153
                },
                {
                    "name": "A4",
                    "midi": 69,
                    "time": 256.12287000000094,
                    "velocity": 0.36220472440944884,
                    "duration": 0.18695100000002185
                },
                {
                    "name": "F4",
                    "midi": 65,
                    "time": 256.30982100000097,
                    "velocity": 0.36220472440944884,
                    "duration": 0.18695100000002185
                },
                {
                    "name": "A#4",
                    "midi": 70,
                    "time": 256.496772000001,
                    "velocity": 0.4015748031496063,
                    "duration": 0.37390199999998686
                },
                {
                    "name": "G4",
                    "midi": 67,
                    "time": 256.870674000001,
                    "velocity": 0.36220472440944884,
                    "duration": 0.18695100000002185
                },
                {
                    "name": "E4",
                    "midi": 64,
                    "time": 257.057625000001,
                    "velocity": 0.36220472440944884,
                    "duration": 0.18695100000002185
                },
                {
                    "name": "F4",
                    "midi": 65,
                    "time": 257.244576000001,
                    "velocity": 0.4330708661417323,
                    "duration": 0.18695100000002185
                },
                {
                    "name": "F4",
                    "midi": 65,
                    "time": 257.61847800000106,
                    "velocity": 0.5354330708661418,
                    "duration": 0.18695100000002185
                },
                {
                    "name": "E4",
                    "midi": 64,
                    "time": 257.8054290000011,
                    "velocity": 0.49606299212598426,
                    "duration": 0.18695100000002185
                },
                {
                    "name": "D4",
                    "midi": 62,
                    "time": 257.9923800000011,
                    "velocity": 0.5196850393700787,
                    "duration": 0.37390199999998686
                },
                {
                    "name": "A#3",
                    "midi": 58,
                    "time": 258.3662820000011,
                    "velocity": 0.48031496062992124,
                    "duration": 0.18695100000002185
                },
                {
                    "name": "G3",
                    "midi": 55,
                    "time": 258.5532330000011,
                    "velocity": 0.4251968503937008,
                    "duration": 0.18695100000002185
                },
                {
                    "name": "C4",
                    "midi": 60,
                    "time": 258.74018400000114,
                    "velocity": 0.4015748031496063,
                    "duration": 0.37390199999998686
                },
                {
                    "name": "A3",
                    "midi": 57,
                    "time": 259.1140860000011,
                    "velocity": 0.36220472440944884,
                    "duration": 0.18695100000002185
                },
                {
                    "name": "F3",
                    "midi": 53,
                    "time": 259.30103700000114,
                    "velocity": 0.36220472440944884,
                    "duration": 0.18695100000002185
                },
                {
                    "name": "A#3",
                    "midi": 58,
                    "time": 259.48798800000117,
                    "velocity": 0.4015748031496063,
                    "duration": 0.37390199999998686
                },
                {
                    "name": "G3",
                    "midi": 55,
                    "time": 259.86189000000115,
                    "velocity": 0.36220472440944884,
                    "duration": 0.18695100000002185
                },
                {
                    "name": "E3",
                    "midi": 52,
                    "time": 260.0488410000012,
                    "velocity": 0.36220472440944884,
                    "duration": 0.18695100000002185
                },
                {
                    "name": "A2",
                    "midi": 45,
                    "time": 260.2357920000012,
                    "velocity": 0.25984251968503935,
                    "duration": 0.09347550000001092
                },
                {
                    "name": "F3",
                    "midi": 53,
                    "time": 260.2357920000012,
                    "velocity": 0.31496062992125984,
                    "duration": 0.18695100000002185
                },
                {
                    "name": "F2",
                    "midi": 41,
                    "time": 260.4227430000012,
                    "velocity": 0.2204724409448819,
                    "duration": 0.09347550000001092
                },
                {
                    "name": "A2",
                    "midi": 45,
                    "time": 260.4227430000012,
                    "velocity": 0.25984251968503935,
                    "duration": 0.09347550000001092
                },
                {
                    "name": "F2",
                    "midi": 41,
                    "time": 260.60969400000124,
                    "velocity": 0.2204724409448819,
                    "duration": 0.09347550000001092
                },
                {
                    "name": "A2",
                    "midi": 45,
                    "time": 260.60969400000124,
                    "velocity": 0.25984251968503935,
                    "duration": 0.09347550000001092
                },
                {
                    "name": "F2",
                    "midi": 41,
                    "time": 260.79664500000126,
                    "velocity": 0.2204724409448819,
                    "duration": 0.09347550000001092
                },
                {
                    "name": "A2",
                    "midi": 45,
                    "time": 260.79664500000126,
                    "velocity": 0.2677165354330709,
                    "duration": 0.09347550000001092
                },
                {
                    "name": "F2",
                    "midi": 41,
                    "time": 260.9835960000013,
                    "velocity": 0.2204724409448819,
                    "duration": 0.09347550000001092
                },
                {
                    "name": "A2",
                    "midi": 45,
                    "time": 260.9835960000013,
                    "velocity": 0.2677165354330709,
                    "duration": 0.09347550000001092
                },
                {
                    "name": "F2",
                    "midi": 41,
                    "time": 261.1705470000013,
                    "velocity": 0.2204724409448819,
                    "duration": 0.09347550000001092
                },
                {
                    "name": "A2",
                    "midi": 45,
                    "time": 261.1705470000013,
                    "velocity": 0.2677165354330709,
                    "duration": 0.09347550000001092
                },
                {
                    "name": "F2",
                    "midi": 41,
                    "time": 261.3574980000013,
                    "velocity": 0.2283464566929134,
                    "duration": 0.09347550000001092
                },
                {
                    "name": "A2",
                    "midi": 45,
                    "time": 261.3574980000013,
                    "velocity": 0.2755905511811024,
                    "duration": 0.09347550000001092
                },
                {
                    "name": "F2",
                    "midi": 41,
                    "time": 261.54444900000135,
                    "velocity": 0.2283464566929134,
                    "duration": 0.09347550000001092
                },
                {
                    "name": "A2",
                    "midi": 45,
                    "time": 261.54444900000135,
                    "velocity": 0.2755905511811024,
                    "duration": 0.09347550000001092
                },
                {
                    "name": "F2",
                    "midi": 41,
                    "time": 261.7314000000014,
                    "velocity": 0.23622047244094488,
                    "duration": 0.09347550000001092
                },
                {
                    "name": "A2",
                    "midi": 45,
                    "time": 261.7314000000014,
                    "velocity": 0.28346456692913385,
                    "duration": 0.09347550000001092
                },
                {
                    "name": "F2",
                    "midi": 41,
                    "time": 261.9183510000014,
                    "velocity": 0.23622047244094488,
                    "duration": 0.09347550000001092
                },
                {
                    "name": "A2",
                    "midi": 45,
                    "time": 261.9183510000014,
                    "velocity": 0.28346456692913385,
                    "duration": 0.09347550000001092
                },
                {
                    "name": "F2",
                    "midi": 41,
                    "time": 262.1053020000014,
                    "velocity": 0.2440944881889764,
                    "duration": 0.09347550000001092
                },
                {
                    "name": "A2",
                    "midi": 45,
                    "time": 262.1053020000014,
                    "velocity": 0.29133858267716534,
                    "duration": 0.09347550000001092
                },
                {
                    "name": "F2",
                    "midi": 41,
                    "time": 262.29225300000144,
                    "velocity": 0.25196850393700787,
                    "duration": 0.09347550000001092
                },
                {
                    "name": "A2",
                    "midi": 45,
                    "time": 262.29225300000144,
                    "velocity": 0.2992125984251969,
                    "duration": 0.09347550000001092
                },
                {
                    "name": "F2",
                    "midi": 41,
                    "time": 262.47920400000146,
                    "velocity": 0.25984251968503935,
                    "duration": 0.09347550000001092
                },
                {
                    "name": "A2",
                    "midi": 45,
                    "time": 262.47920400000146,
                    "velocity": 0.30708661417322836,
                    "duration": 0.09347550000001092
                },
                {
                    "name": "F2",
                    "midi": 41,
                    "time": 262.6661550000015,
                    "velocity": 0.2677165354330709,
                    "duration": 0.09347550000001092
                },
                {
                    "name": "A2",
                    "midi": 45,
                    "time": 262.6661550000015,
                    "velocity": 0.31496062992125984,
                    "duration": 0.09347550000001092
                },
                {
                    "name": "G2",
                    "midi": 43,
                    "time": 262.8531060000015,
                    "velocity": 0.2677165354330709,
                    "duration": 0.09347550000001092
                },
                {
                    "name": "B2",
                    "midi": 47,
                    "time": 262.8531060000015,
                    "velocity": 0.31496062992125984,
                    "duration": 0.09347550000001092
                },
                {
                    "name": "G2",
                    "midi": 43,
                    "time": 263.0400570000015,
                    "velocity": 0.2677165354330709,
                    "duration": 0.09347550000001092
                },
                {
                    "name": "B2",
                    "midi": 47,
                    "time": 263.0400570000015,
                    "velocity": 0.31496062992125984,
                    "duration": 0.09347550000001092
                },
                {
                    "name": "C3",
                    "midi": 48,
                    "time": 263.22700800000155,
                    "velocity": 0.36220472440944884,
                    "duration": 0.5608530000000087
                },
                {
                    "name": "E3",
                    "midi": 52,
                    "time": 263.78786100000156,
                    "velocity": 0.31496062992125984,
                    "duration": 0.09347550000001092
                },
                {
                    "name": "D3",
                    "midi": 50,
                    "time": 263.88133650000157,
                    "velocity": 0.31496062992125984,
                    "duration": 0.09347550000001092
                },
                {
                    "name": "C3",
                    "midi": 48,
                    "time": 263.9748120000016,
                    "velocity": 0.3543307086614173,
                    "duration": 0.09347550000001092
                },
                {
                    "name": "F#5",
                    "midi": 78,
                    "time": 264.6758782500016,
                    "velocity": 0.36220472440944884,
                    "duration": 0.04673774999997704
                },
                {
                    "name": "G5",
                    "midi": 79,
                    "time": 264.72261600000155,
                    "velocity": 0.44881889763779526,
                    "duration": 0.4673774999999978
                },
                {
                    "name": "F5",
                    "midi": 77,
                    "time": 265.18999350000155,
                    "velocity": 0.3779527559055118,
                    "duration": 0.09347550000001092
                },
                {
                    "name": "D#5",
                    "midi": 75,
                    "time": 265.28346900000156,
                    "velocity": 0.3700787401574803,
                    "duration": 0.09347550000001092
                },
                {
                    "name": "D5",
                    "midi": 74,
                    "time": 265.37694450000157,
                    "velocity": 0.3543307086614173,
                    "duration": 0.09347550000001092
                },
                {
                    "name": "C5",
                    "midi": 72,
                    "time": 265.4704200000016,
                    "velocity": 0.3464566929133858,
                    "duration": 0.18695100000002185
                },
                {
                    "name": "F#3",
                    "midi": 54,
                    "time": 266.2182240000016,
                    "velocity": 0.36220472440944884,
                    "duration": 0.5608530000000087
                },
                {
                    "name": "A3",
                    "midi": 57,
                    "time": 266.7790770000016,
                    "velocity": 0.31496062992125984,
                    "duration": 0.09347550000001092
                },
                {
                    "name": "G3",
                    "midi": 55,
                    "time": 266.87255250000163,
                    "velocity": 0.31496062992125984,
                    "duration": 0.09347550000001092
                },
                {
                    "name": "F#3",
                    "midi": 54,
                    "time": 266.96602800000164,
                    "velocity": 0.3543307086614173,
                    "duration": 0.09347550000001092
                },
                {
                    "name": "D6",
                    "midi": 86,
                    "time": 267.66709425000164,
                    "velocity": 0.36220472440944884,
                    "duration": 0.04673774999997704
                },
                {
                    "name": "D#6",
                    "midi": 87,
                    "time": 267.7138320000016,
                    "velocity": 0.44881889763779526,
                    "duration": 0.4673774999999978
                },
                {
                    "name": "D6",
                    "midi": 86,
                    "time": 268.1812095000016,
                    "velocity": 0.3779527559055118,
                    "duration": 0.09347550000001092
                },
                {
                    "name": "C6",
                    "midi": 84,
                    "time": 268.2746850000016,
                    "velocity": 0.3700787401574803,
                    "duration": 0.09347550000001092
                },
                {
                    "name": "A#5",
                    "midi": 82,
                    "time": 268.36816050000164,
                    "velocity": 0.3543307086614173,
                    "duration": 0.09347550000001092
                },
                {
                    "name": "A5",
                    "midi": 81,
                    "time": 268.46163600000165,
                    "velocity": 0.3464566929133858,
                    "duration": 0.18695100000002185
                },
                {
                    "name": "A#3",
                    "midi": 58,
                    "time": 269.2094400000017,
                    "velocity": 0.44881889763779526,
                    "duration": 0.18695100000002185
                },
                {
                    "name": "D4",
                    "midi": 62,
                    "time": 269.3963910000017,
                    "velocity": 0.3779527559055118,
                    "duration": 0.09347550000001092
                },
                {
                    "name": "C4",
                    "midi": 60,
                    "time": 269.4898665000017,
                    "velocity": 0.3779527559055118,
                    "duration": 0.09347550000001092
                },
                {
                    "name": "A#3",
                    "midi": 58,
                    "time": 269.5833420000017,
                    "velocity": 0.4015748031496063,
                    "duration": 0.18695100000002185
                },
                {
                    "name": "C6",
                    "midi": 84,
                    "time": 269.95724400000177,
                    "velocity": 0.4251968503937008,
                    "duration": 0.09347550000001092
                },
                {
                    "name": "A#5",
                    "midi": 82,
                    "time": 270.0507195000018,
                    "velocity": 0.4094488188976378,
                    "duration": 0.09347550000001092
                },
                {
                    "name": "A5",
                    "midi": 81,
                    "time": 270.1441950000018,
                    "velocity": 0.3937007874015748,
                    "duration": 0.09347550000001092
                },
                {
                    "name": "G5",
                    "midi": 79,
                    "time": 270.2376705000018,
                    "velocity": 0.3779527559055118,
                    "duration": 0.09347550000001092
                },
                {
                    "name": "F#5",
                    "midi": 78,
                    "time": 270.3311460000018,
                    "velocity": 0.4015748031496063,
                    "duration": 0.18695100000002185
                },
                {
                    "name": "G4",
                    "midi": 67,
                    "time": 270.70504800000185,
                    "velocity": 0.44881889763779526,
                    "duration": 0.18695100000002185
                },
                {
                    "name": "A#4",
                    "midi": 70,
                    "time": 270.8919990000019,
                    "velocity": 0.3779527559055118,
                    "duration": 0.09347550000001092
                },
                {
                    "name": "A4",
                    "midi": 69,
                    "time": 270.9854745000019,
                    "velocity": 0.3779527559055118,
                    "duration": 0.09347550000001092
                },
                {
                    "name": "G4",
                    "midi": 67,
                    "time": 271.0789500000019,
                    "velocity": 0.4015748031496063,
                    "duration": 0.18695100000002185
                },
                {
                    "name": "D#6",
                    "midi": 87,
                    "time": 271.45285200000194,
                    "velocity": 0.4251968503937008,
                    "duration": 0.09347550000001092
                },
                {
                    "name": "D6",
                    "midi": 86,
                    "time": 271.54632750000195,
                    "velocity": 0.4094488188976378,
                    "duration": 0.09347550000001092
                },
                {
                    "name": "C6",
                    "midi": 84,
                    "time": 271.63980300000196,
                    "velocity": 0.3937007874015748,
                    "duration": 0.09347550000001092
                },
                {
                    "name": "A#5",
                    "midi": 82,
                    "time": 271.733278500002,
                    "velocity": 0.3779527559055118,
                    "duration": 0.09347550000001092
                },
                {
                    "name": "A5",
                    "midi": 81,
                    "time": 271.826754000002,
                    "velocity": 0.4015748031496063,
                    "duration": 0.18695100000002185
                },
                {
                    "name": "A#3",
                    "midi": 58,
                    "time": 272.200656000002,
                    "velocity": 0.4645669291338583,
                    "duration": 0.18695100000002185
                },
                {
                    "name": "D4",
                    "midi": 62,
                    "time": 272.38760700000205,
                    "velocity": 0.3937007874015748,
                    "duration": 0.09347550000001092
                },
                {
                    "name": "C4",
                    "midi": 60,
                    "time": 272.48108250000206,
                    "velocity": 0.4015748031496063,
                    "duration": 0.09347550000001092
                },
                {
                    "name": "A#3",
                    "midi": 58,
                    "time": 272.57455800000207,
                    "velocity": 0.4409448818897638,
                    "duration": 0.18695100000002185
                },
                {
                    "name": "C6",
                    "midi": 84,
                    "time": 272.9484600000021,
                    "velocity": 0.49606299212598426,
                    "duration": 0.09347550000001092
                },
                {
                    "name": "A#5",
                    "midi": 82,
                    "time": 273.0419355000021,
                    "velocity": 0.49606299212598426,
                    "duration": 0.09347550000001092
                },
                {
                    "name": "A5",
                    "midi": 81,
                    "time": 273.13541100000214,
                    "velocity": 0.4881889763779528,
                    "duration": 0.09347550000001092
                },
                {
                    "name": "G5",
                    "midi": 79,
                    "time": 273.22888650000215,
                    "velocity": 0.47244094488188976,
                    "duration": 0.09347550000001092
                },
                {
                    "name": "F#5",
                    "midi": 78,
                    "time": 273.32236200000216,
                    "velocity": 0.5039370078740157,
                    "duration": 0.18695100000002185
                },
                {
                    "name": "D5",
                    "midi": 74,
                    "time": 273.6962640000022,
                    "velocity": 0.5748031496062992,
                    "duration": 0.09347550000001092
                },
                {
                    "name": "C5",
                    "midi": 72,
                    "time": 273.7897395000022,
                    "velocity": 0.5590551181102362,
                    "duration": 0.09347550000001092
                },
                {
                    "name": "A#4",
                    "midi": 70,
                    "time": 273.8832150000022,
                    "velocity": 0.5590551181102362,
                    "duration": 0.09347550000001092
                },
                {
                    "name": "A4",
                    "midi": 69,
                    "time": 273.97669050000223,
                    "velocity": 0.5275590551181102,
                    "duration": 0.09347550000001092
                },
                {
                    "name": "G4",
                    "midi": 67,
                    "time": 274.07016600000225,
                    "velocity": 0.5826771653543307,
                    "duration": 0.18695100000002185
                },
                {
                    "name": "G#5",
                    "midi": 80,
                    "time": 274.4440680000023,
                    "velocity": 0.6850393700787402,
                    "duration": 0.09347550000001092
                },
                {
                    "name": "G5",
                    "midi": 79,
                    "time": 274.5375435000023,
                    "velocity": 0.6535433070866141,
                    "duration": 0.09347550000001092
                },
                {
                    "name": "F5",
                    "midi": 77,
                    "time": 274.6310190000023,
                    "velocity": 0.6377952755905512,
                    "duration": 0.09347550000001092
                },
                {
                    "name": "D#5",
                    "midi": 75,
                    "time": 274.7244945000023,
                    "velocity": 0.6141732283464567,
                    "duration": 0.09347550000001092
                },
                {
                    "name": "D5",
                    "midi": 74,
                    "time": 274.81797000000233,
                    "velocity": 0.6535433070866141,
                    "duration": 0.18695100000002185
                },
                {
                    "name": "D#4",
                    "midi": 63,
                    "time": 275.1918720000024,
                    "velocity": 0.44881889763779526,
                    "duration": 0.18695100000002185
                },
                {
                    "name": "G4",
                    "midi": 67,
                    "time": 275.3788230000024,
                    "velocity": 0.3779527559055118,
                    "duration": 0.09347550000001092
                },
                {
                    "name": "F4",
                    "midi": 65,
                    "time": 275.4722985000024,
                    "velocity": 0.3779527559055118,
                    "duration": 0.09347550000001092
                },
                {
                    "name": "D#4",
                    "midi": 63,
                    "time": 275.5657740000024,
                    "velocity": 0.4015748031496063,
                    "duration": 0.18695100000002185
                },
                {
                    "name": "F5",
                    "midi": 77,
                    "time": 275.93967600000246,
                    "velocity": 0.4251968503937008,
                    "duration": 0.09347550000001092
                },
                {
                    "name": "D#5",
                    "midi": 75,
                    "time": 276.0331515000025,
                    "velocity": 0.4094488188976378,
                    "duration": 0.09347550000001092
                },
                {
                    "name": "D5",
                    "midi": 74,
                    "time": 276.1266270000025,
                    "velocity": 0.3937007874015748,
                    "duration": 0.09347550000001092
                },
                {
                    "name": "C5",
                    "midi": 72,
                    "time": 276.2201025000025,
                    "velocity": 0.3779527559055118,
                    "duration": 0.09347550000001092
                },
                {
                    "name": "B4",
                    "midi": 71,
                    "time": 276.3135780000025,
                    "velocity": 0.4015748031496063,
                    "duration": 0.18695100000002185
                },
                {
                    "name": "C4",
                    "midi": 60,
                    "time": 276.68748000000255,
                    "velocity": 0.44881889763779526,
                    "duration": 0.18695100000002185
                },
                {
                    "name": "D#4",
                    "midi": 63,
                    "time": 276.8744310000026,
                    "velocity": 0.3779527559055118,
                    "duration": 0.09347550000001092
                },
                {
                    "name": "D4",
                    "midi": 62,
                    "time": 276.9679065000026,
                    "velocity": 0.3779527559055118,
                    "duration": 0.09347550000001092
                },
                {
                    "name": "C4",
                    "midi": 60,
                    "time": 277.0613820000026,
                    "velocity": 0.4015748031496063,
                    "duration": 0.18695100000002185
                },
                {
                    "name": "G#5",
                    "midi": 80,
                    "time": 277.43528400000264,
                    "velocity": 0.4251968503937008,
                    "duration": 0.09347550000001092
                },
                {
                    "name": "G5",
                    "midi": 79,
                    "time": 277.52875950000265,
                    "velocity": 0.4094488188976378,
                    "duration": 0.09347550000001092
                },
                {
                    "name": "F5",
                    "midi": 77,
                    "time": 277.62223500000266,
                    "velocity": 0.3937007874015748,
                    "duration": 0.09347550000001092
                },
                {
                    "name": "D#5",
                    "midi": 75,
                    "time": 277.7157105000027,
                    "velocity": 0.3779527559055118,
                    "duration": 0.09347550000001092
                },
                {
                    "name": "D5",
                    "midi": 74,
                    "time": 277.8091860000027,
                    "velocity": 0.4015748031496063,
                    "duration": 0.18695100000002185
                },
                {
                    "name": "D#4",
                    "midi": 63,
                    "time": 278.1830880000027,
                    "velocity": 0.4645669291338583,
                    "duration": 0.18695100000002185
                },
                {
                    "name": "G4",
                    "midi": 67,
                    "time": 278.37003900000275,
                    "velocity": 0.3937007874015748,
                    "duration": 0.09347550000001092
                },
                {
                    "name": "F4",
                    "midi": 65,
                    "time": 278.46351450000276,
                    "velocity": 0.4015748031496063,
                    "duration": 0.09347550000001092
                },
                {
                    "name": "D#4",
                    "midi": 63,
                    "time": 278.55699000000277,
                    "velocity": 0.4409448818897638,
                    "duration": 0.18695100000002185
                },
                {
                    "name": "F5",
                    "midi": 77,
                    "time": 278.9308920000028,
                    "velocity": 0.49606299212598426,
                    "duration": 0.09347550000001092
                },
                {
                    "name": "D#5",
                    "midi": 75,
                    "time": 279.0243675000028,
                    "velocity": 0.49606299212598426,
                    "duration": 0.09347550000001092
                },
                {
                    "name": "D5",
                    "midi": 74,
                    "time": 279.11784300000284,
                    "velocity": 0.4881889763779528,
                    "duration": 0.09347550000001092
                },
                {
                    "name": "C5",
                    "midi": 72,
                    "time": 279.21131850000285,
                    "velocity": 0.47244094488188976,
                    "duration": 0.09347550000001092
                },
                {
                    "name": "B4",
                    "midi": 71,
                    "time": 279.30479400000286,
                    "velocity": 0.5039370078740157,
                    "duration": 0.18695100000002185
                },
                {
                    "name": "G5",
                    "midi": 79,
                    "time": 279.6786960000029,
                    "velocity": 0.5748031496062992,
                    "duration": 0.09347550000001092
                },
                {
                    "name": "F5",
                    "midi": 77,
                    "time": 279.7721715000029,
                    "velocity": 0.5590551181102362,
                    "duration": 0.09347550000001092
                },
                {
                    "name": "D#5",
                    "midi": 75,
                    "time": 279.8656470000029,
                    "velocity": 0.5590551181102362,
                    "duration": 0.09347550000001092
                },
                {
                    "name": "D5",
                    "midi": 74,
                    "time": 279.95912250000293,
                    "velocity": 0.5275590551181102,
                    "duration": 0.09347550000001092
                },
                {
                    "name": "C5",
                    "midi": 72,
                    "time": 280.05259800000294,
                    "velocity": 0.5826771653543307,
                    "duration": 0.18695100000002185
                },
                {
                    "name": "C#6",
                    "midi": 85,
                    "time": 280.426500000003,
                    "velocity": 0.6850393700787402,
                    "duration": 0.09347550000001092
                },
                {
                    "name": "C6",
                    "midi": 84,
                    "time": 280.519975500003,
                    "velocity": 0.6535433070866141,
                    "duration": 0.09347550000001092
                },
                {
                    "name": "A#5",
                    "midi": 82,
                    "time": 280.613451000003,
                    "velocity": 0.6377952755905512,
                    "duration": 0.09347550000001092
                },
                {
                    "name": "G#5",
                    "midi": 80,
                    "time": 280.706926500003,
                    "velocity": 0.6141732283464567,
                    "duration": 0.09347550000001092
                },
                {
                    "name": "G5",
                    "midi": 79,
                    "time": 280.80040200000303,
                    "velocity": 0.6535433070866141,
                    "duration": 0.18695100000002185
                },
                {
                    "name": "G#5",
                    "midi": 80,
                    "time": 281.1743040000031,
                    "velocity": 0.3779527559055118,
                    "duration": 0.18695100000002185
                },
                {
                    "name": "C6",
                    "midi": 84,
                    "time": 281.3612550000031,
                    "velocity": 0.31496062992125984,
                    "duration": 0.09347550000001092
                },
                {
                    "name": "A#5",
                    "midi": 82,
                    "time": 281.4547305000031,
                    "velocity": 0.31496062992125984,
                    "duration": 0.09347550000001092
                },
                {
                    "name": "G#5",
                    "midi": 80,
                    "time": 281.5482060000031,
                    "velocity": 0.33858267716535434,
                    "duration": 0.18695100000002185
                },
                {
                    "name": "C#6",
                    "midi": 85,
                    "time": 281.92210800000316,
                    "velocity": 0.3779527559055118,
                    "duration": 0.18695100000002185
                },
                {
                    "name": "F6",
                    "midi": 89,
                    "time": 282.1090590000032,
                    "velocity": 0.31496062992125984,
                    "duration": 0.09347550000001092
                },
                {
                    "name": "D#6",
                    "midi": 87,
                    "time": 282.2025345000032,
                    "velocity": 0.31496062992125984,
                    "duration": 0.09347550000001092
                },
                {
                    "name": "C#6",
                    "midi": 85,
                    "time": 282.2960100000032,
                    "velocity": 0.33858267716535434,
                    "duration": 0.18695100000002185
                },
                {
                    "name": "F#4",
                    "midi": 66,
                    "time": 282.66991200000325,
                    "velocity": 0.31496062992125984,
                    "duration": 0.18695100000002185
                },
                {
                    "name": "A#4",
                    "midi": 70,
                    "time": 282.8568630000033,
                    "velocity": 0.2677165354330709,
                    "duration": 0.09347550000001092
                },
                {
                    "name": "G#4",
                    "midi": 68,
                    "time": 282.9503385000033,
                    "velocity": 0.2677165354330709,
                    "duration": 0.09347550000001092
                },
                {
                    "name": "F#4",
                    "midi": 66,
                    "time": 283.0438140000033,
                    "velocity": 0.28346456692913385,
                    "duration": 0.18695100000002185
                },
                {
                    "name": "B4",
                    "midi": 71,
                    "time": 283.41771600000334,
                    "velocity": 0.31496062992125984,
                    "duration": 0.7478039999999737
                },
                {
                    "name": "F5",
                    "midi": 77,
                    "time": 284.1655200000033,
                    "velocity": 0.3779527559055118,
                    "duration": 0.18695100000002185
                },
                {
                    "name": "A5",
                    "midi": 81,
                    "time": 284.35247100000333,
                    "velocity": 0.31496062992125984,
                    "duration": 0.09347550000001092
                },
                {
                    "name": "G5",
                    "midi": 79,
                    "time": 284.44594650000334,
                    "velocity": 0.31496062992125984,
                    "duration": 0.09347550000001092
                },
                {
                    "name": "F5",
                    "midi": 77,
                    "time": 284.53942200000336,
                    "velocity": 0.33858267716535434,
                    "duration": 0.18695100000002185
                },
                {
                    "name": "A#5",
                    "midi": 82,
                    "time": 284.9133240000034,
                    "velocity": 0.3779527559055118,
                    "duration": 0.18695100000002185
                },
                {
                    "name": "C#6",
                    "midi": 85,
                    "time": 285.1002750000034,
                    "velocity": 0.31496062992125984,
                    "duration": 0.09347550000001092
                },
                {
                    "name": "C6",
                    "midi": 84,
                    "time": 285.19375050000343,
                    "velocity": 0.31496062992125984,
                    "duration": 0.09347550000001092
                },
                {
                    "name": "A#5",
                    "midi": 82,
                    "time": 285.28722600000344,
                    "velocity": 0.33858267716535434,
                    "duration": 0.18695100000002185
                },
                {
                    "name": "D#4",
                    "midi": 63,
                    "time": 285.6611280000035,
                    "velocity": 0.31496062992125984,
                    "duration": 0.18695100000002185
                },
                {
                    "name": "G4",
                    "midi": 67,
                    "time": 285.8480790000035,
                    "velocity": 0.2677165354330709,
                    "duration": 0.09347550000001092
                },
                {
                    "name": "F4",
                    "midi": 65,
                    "time": 285.9415545000035,
                    "velocity": 0.2677165354330709,
                    "duration": 0.09347550000001092
                },
                {
                    "name": "D#4",
                    "midi": 63,
                    "time": 286.03503000000353,
                    "velocity": 0.28346456692913385,
                    "duration": 0.18695100000002185
                },
                {
                    "name": "G#4",
                    "midi": 68,
                    "time": 286.4089320000036,
                    "velocity": 0.31496062992125984,
                    "duration": 0.7478039999999737
                },
                {
                    "name": "C#5",
                    "midi": 73,
                    "time": 287.15673600000355,
                    "velocity": 0.3779527559055118,
                    "duration": 0.18695100000002185
                },
                {
                    "name": "F5",
                    "midi": 77,
                    "time": 287.34368700000357,
                    "velocity": 0.31496062992125984,
                    "duration": 0.09347550000001092
                },
                {
                    "name": "D#5",
                    "midi": 75,
                    "time": 287.4371625000036,
                    "velocity": 0.31496062992125984,
                    "duration": 0.09347550000001092
                },
                {
                    "name": "C#5",
                    "midi": 73,
                    "time": 287.5306380000036,
                    "velocity": 0.33858267716535434,
                    "duration": 0.18695100000002185
                },
                {
                    "name": "F#5",
                    "midi": 78,
                    "time": 287.90454000000364,
                    "velocity": 0.3779527559055118,
                    "duration": 0.18695100000002185
                },
                {
                    "name": "A#5",
                    "midi": 82,
                    "time": 288.09149100000366,
                    "velocity": 0.31496062992125984,
                    "duration": 0.09347550000001092
                },
                {
                    "name": "G#5",
                    "midi": 80,
                    "time": 288.18496650000367,
                    "velocity": 0.31496062992125984,
                    "duration": 0.09347550000001092
                },
                {
                    "name": "F#5",
                    "midi": 78,
                    "time": 288.2784420000037,
                    "velocity": 0.33858267716535434,
                    "duration": 0.18695100000002185
                },
                {
                    "name": "C4",
                    "midi": 60,
                    "time": 288.6523440000037,
                    "velocity": 0.33070866141732286,
                    "duration": 0.18695100000002185
                },
                {
                    "name": "E4",
                    "midi": 64,
                    "time": 288.83929500000374,
                    "velocity": 0.2755905511811024,
                    "duration": 0.09347550000001092
                },
                {
                    "name": "D4",
                    "midi": 62,
                    "time": 288.93277050000376,
                    "velocity": 0.2755905511811024,
                    "duration": 0.09347550000001092
                },
                {
                    "name": "C4",
                    "midi": 60,
                    "time": 289.02624600000377,
                    "velocity": 0.2992125984251969,
                    "duration": 0.18695100000002185
                },
                {
                    "name": "C5",
                    "midi": 72,
                    "time": 289.4001480000038,
                    "velocity": 0.33070866141732286,
                    "duration": 0.7478039999999737
                },
                {
                    "name": "C5",
                    "midi": 72,
                    "time": 290.1479520000038,
                    "velocity": 0.4645669291338583,
                    "duration": 0.18695100000002185
                },
                {
                    "name": "E5",
                    "midi": 76,
                    "time": 290.3349030000038,
                    "velocity": 0.4094488188976378,
                    "duration": 0.09347550000001092
                },
                {
                    "name": "D5",
                    "midi": 74,
                    "time": 290.4283785000038,
                    "velocity": 0.4094488188976378,
                    "duration": 0.09347550000001092
                },
                {
                    "name": "C5",
                    "midi": 72,
                    "time": 290.5218540000038,
                    "velocity": 0.4409448818897638,
                    "duration": 0.18695100000002185
                },
                {
                    "name": "C6",
                    "midi": 84,
                    "time": 290.89575600000387,
                    "velocity": 0.5433070866141733,
                    "duration": 0.7478039999999737
                },
                {
                    "name": "C6",
                    "midi": 84,
                    "time": 291.64356000000384,
                    "velocity": 0.5354330708661418,
                    "duration": 0.18695100000002185
                },
                {
                    "name": "E6",
                    "midi": 88,
                    "time": 291.83051100000387,
                    "velocity": 0.5511811023622047,
                    "duration": 0.09347550000001092
                },
                {
                    "name": "D6",
                    "midi": 86,
                    "time": 291.9239865000039,
                    "velocity": 0.5590551181102362,
                    "duration": 0.09347550000001092
                },
                {
                    "name": "C6",
                    "midi": 84,
                    "time": 292.0174620000039,
                    "velocity": 0.5748031496062992,
                    "duration": 0.09347550000001092
                },
                {
                    "name": "C6",
                    "midi": 84,
                    "time": 292.2044130000039,
                    "velocity": 0.6062992125984252,
                    "duration": 0.09347550000001092
                },
                {
                    "name": "C6",
                    "midi": 84,
                    "time": 292.39136400000393,
                    "velocity": 0.6377952755905512,
                    "duration": 0.09347550000001092
                },
                {
                    "name": "C6",
                    "midi": 84,
                    "time": 292.57831500000395,
                    "velocity": 0.6535433070866141,
                    "duration": 0.18695100000002185
                },
                {
                    "name": "F6",
                    "midi": 89,
                    "time": 292.765266000004,
                    "velocity": 0.6771653543307087,
                    "duration": 0.18695100000002185
                },
                {
                    "name": "B5",
                    "midi": 83,
                    "time": 292.952217000004,
                    "velocity": 0.7086614173228346,
                    "duration": 0.18695100000002185
                },
                {
                    "name": "C6",
                    "midi": 84,
                    "time": 293.139168000004,
                    "velocity": 0.7322834645669292,
                    "duration": 0.37390199999998686
                },
                {
                    "name": "G4",
                    "midi": 67,
                    "time": 293.513070000004,
                    "velocity": 0.5905511811023622,
                    "duration": 0.7478039999999737
                },
                {
                    "name": "G4",
                    "midi": 67,
                    "time": 294.260874000004,
                    "velocity": 0.5905511811023622,
                    "duration": 0.37390199999998686
                },
                {
                    "name": "C5",
                    "midi": 72,
                    "time": 294.63477600000397,
                    "velocity": 0.6456692913385826,
                    "duration": 0.12463400000001457
                },
                {
                    "name": "G4",
                    "midi": 67,
                    "time": 294.759410000004,
                    "velocity": 0.5826771653543307,
                    "duration": 0.12463400000001457
                },
                {
                    "name": "E4",
                    "midi": 64,
                    "time": 294.884044000004,
                    "velocity": 0.5826771653543307,
                    "duration": 0.12463400000001457
                },
                {
                    "name": "G4",
                    "midi": 67,
                    "time": 295.008678000004,
                    "velocity": 0.6456692913385826,
                    "duration": 0.12463400000001457
                },
                {
                    "name": "C5",
                    "midi": 72,
                    "time": 295.133312000004,
                    "velocity": 0.5826771653543307,
                    "duration": 0.12463400000001457
                },
                {
                    "name": "E5",
                    "midi": 76,
                    "time": 295.25794600000404,
                    "velocity": 0.5748031496062992,
                    "duration": 0.12463400000001457
                },
                {
                    "name": "D5",
                    "midi": 74,
                    "time": 295.38258000000405,
                    "velocity": 0.6456692913385826,
                    "duration": 0.12463400000001457
                },
                {
                    "name": "B4",
                    "midi": 71,
                    "time": 295.50721400000407,
                    "velocity": 0.5826771653543307,
                    "duration": 0.12463400000001457
                },
                {
                    "name": "G#4",
                    "midi": 68,
                    "time": 295.6318480000041,
                    "velocity": 0.5826771653543307,
                    "duration": 0.12463400000001457
                },
                {
                    "name": "B4",
                    "midi": 71,
                    "time": 295.7564820000041,
                    "velocity": 0.6456692913385826,
                    "duration": 0.12463400000001457
                },
                {
                    "name": "D5",
                    "midi": 74,
                    "time": 295.8811160000041,
                    "velocity": 0.5905511811023622,
                    "duration": 0.12463400000001457
                },
                {
                    "name": "F5",
                    "midi": 77,
                    "time": 296.0057500000041,
                    "velocity": 0.5905511811023622,
                    "duration": 0.12463400000001457
                },
                {
                    "name": "E5",
                    "midi": 76,
                    "time": 296.13038400000414,
                    "velocity": 0.6456692913385826,
                    "duration": 0.12463400000001457
                },
                {
                    "name": "C#5",
                    "midi": 73,
                    "time": 296.25501800000416,
                    "velocity": 0.5826771653543307,
                    "duration": 0.12463400000001457
                },
                {
                    "name": "A#4",
                    "midi": 70,
                    "time": 296.37965200000417,
                    "velocity": 0.6062992125984252,
                    "duration": 0.12463400000001457
                },
                {
                    "name": "C#5",
                    "midi": 73,
                    "time": 296.5042860000042,
                    "velocity": 0.6456692913385826,
                    "duration": 0.12463400000001457
                },
                {
                    "name": "E5",
                    "midi": 76,
                    "time": 296.6289200000042,
                    "velocity": 0.5905511811023622,
                    "duration": 0.12463400000001457
                },
                {
                    "name": "G5",
                    "midi": 79,
                    "time": 296.7535540000042,
                    "velocity": 0.5826771653543307,
                    "duration": 0.12463400000001457
                },
                {
                    "name": "A#5",
                    "midi": 82,
                    "time": 296.87818800000423,
                    "velocity": 0.6456692913385826,
                    "duration": 0.12463400000001457
                },
                {
                    "name": "E5",
                    "midi": 76,
                    "time": 297.00282200000424,
                    "velocity": 0.5826771653543307,
                    "duration": 0.12463400000001457
                },
                {
                    "name": "C#6",
                    "midi": 85,
                    "time": 297.12745600000426,
                    "velocity": 0.5826771653543307,
                    "duration": 0.12463400000001457
                },
                {
                    "name": "E5",
                    "midi": 76,
                    "time": 297.2520900000043,
                    "velocity": 0.6456692913385826,
                    "duration": 0.12463400000001457
                },
                {
                    "name": "C#5",
                    "midi": 73,
                    "time": 297.3767240000043,
                    "velocity": 0.5826771653543307,
                    "duration": 0.12463400000001457
                },
                {
                    "name": "A#5",
                    "midi": 82,
                    "time": 297.5013580000043,
                    "velocity": 0.5826771653543307,
                    "duration": 0.12463400000001457
                },
                {
                    "name": "C#5",
                    "midi": 73,
                    "time": 297.6259920000043,
                    "velocity": 0.6456692913385826,
                    "duration": 0.12463400000001457
                },
                {
                    "name": "A#4",
                    "midi": 70,
                    "time": 297.75062600000433,
                    "velocity": 0.5826771653543307,
                    "duration": 0.12463400000001457
                },
                {
                    "name": "E5",
                    "midi": 76,
                    "time": 297.87526000000435,
                    "velocity": 0.5826771653543307,
                    "duration": 0.12463400000001457
                },
                {
                    "name": "A#4",
                    "midi": 70,
                    "time": 297.99989400000436,
                    "velocity": 0.6141732283464567,
                    "duration": 0.12463400000001457
                },
                {
                    "name": "E4",
                    "midi": 64,
                    "time": 298.1245280000044,
                    "velocity": 0.5826771653543307,
                    "duration": 0.12463400000001457
                },
                {
                    "name": "C#5",
                    "midi": 73,
                    "time": 298.2491620000044,
                    "velocity": 0.5826771653543307,
                    "duration": 0.12463400000001457
                },
                {
                    "name": "A#4",
                    "midi": 70,
                    "time": 298.3737960000044,
                    "velocity": 0.6062992125984252,
                    "duration": 0.12463400000001457
                },
                {
                    "name": "E4",
                    "midi": 64,
                    "time": 298.4984300000044,
                    "velocity": 0.5590551181102362,
                    "duration": 0.12463400000001457
                },
                {
                    "name": "C5",
                    "midi": 72,
                    "time": 298.62306400000443,
                    "velocity": 0.5590551181102362,
                    "duration": 0.12463400000001457
                },
                {
                    "name": "A#4",
                    "midi": 70,
                    "time": 298.74769800000445,
                    "velocity": 0.5984251968503937,
                    "duration": 0.12463400000001457
                },
                {
                    "name": "E4",
                    "midi": 64,
                    "time": 298.87233200000446,
                    "velocity": 0.5590551181102362,
                    "duration": 0.12463400000001457
                },
                {
                    "name": "C5",
                    "midi": 72,
                    "time": 298.9969660000045,
                    "velocity": 0.5590551181102362,
                    "duration": 0.12463400000001457
                },
                {
                    "name": "F4",
                    "midi": 65,
                    "time": 299.1216000000045,
                    "velocity": 0.5275590551181102,
                    "duration": 0.37390199999998686
                },
                {
                    "name": "A4",
                    "midi": 69,
                    "time": 299.1216000000045,
                    "velocity": 0.5275590551181102,
                    "duration": 0.37390199999998686
                },
                {
                    "name": "C5",
                    "midi": 72,
                    "time": 299.1216000000045,
                    "velocity": 0.6220472440944882,
                    "duration": 0.37390199999998686
                },
                {
                    "name": "C5",
                    "midi": 72,
                    "time": 299.4955020000045,
                    "velocity": 0.5905511811023622,
                    "duration": 0.7478039999999737
                },
                {
                    "name": "C5",
                    "midi": 72,
                    "time": 300.24330600000445,
                    "velocity": 0.5905511811023622,
                    "duration": 0.37390199999998686
                },
                {
                    "name": "F5",
                    "midi": 77,
                    "time": 300.61720800000444,
                    "velocity": 0.6456692913385826,
                    "duration": 0.12463400000001457
                },
                {
                    "name": "C5",
                    "midi": 72,
                    "time": 300.74184200000445,
                    "velocity": 0.5826771653543307,
                    "duration": 0.12463400000001457
                },
                {
                    "name": "A4",
                    "midi": 69,
                    "time": 300.86647600000447,
                    "velocity": 0.5826771653543307,
                    "duration": 0.12463400000001457
                },
                {
                    "name": "C5",
                    "midi": 72,
                    "time": 300.9911100000045,
                    "velocity": 0.6456692913385826,
                    "duration": 0.12463400000001457
                },
                {
                    "name": "F5",
                    "midi": 77,
                    "time": 301.1157440000045,
                    "velocity": 0.5826771653543307,
                    "duration": 0.12463400000001457
                },
                {
                    "name": "A5",
                    "midi": 81,
                    "time": 301.2403780000045,
                    "velocity": 0.5748031496062992,
                    "duration": 0.12463400000001457
                },
                {
                    "name": "G5",
                    "midi": 79,
                    "time": 301.3650120000045,
                    "velocity": 0.6456692913385826,
                    "duration": 0.12463400000001457
                },
                {
                    "name": "E5",
                    "midi": 76,
                    "time": 301.48964600000454,
                    "velocity": 0.5826771653543307,
                    "duration": 0.12463400000001457
                },
                {
                    "name": "C#5",
                    "midi": 73,
                    "time": 301.61428000000456,
                    "velocity": 0.5826771653543307,
                    "duration": 0.12463400000001457
                },
                {
                    "name": "E5",
                    "midi": 76,
                    "time": 301.73891400000457,
                    "velocity": 0.6456692913385826,
                    "duration": 0.12463400000001457
                },
                {
                    "name": "G5",
                    "midi": 79,
                    "time": 301.8635480000046,
                    "velocity": 0.5905511811023622,
                    "duration": 0.12463400000001457
                },
                {
                    "name": "A#5",
                    "midi": 82,
                    "time": 301.9881820000046,
                    "velocity": 0.5905511811023622,
                    "duration": 0.12463400000001457
                },
                {
                    "name": "A5",
                    "midi": 81,
                    "time": 302.1128160000046,
                    "velocity": 0.6456692913385826,
                    "duration": 0.12463400000001457
                },
                {
                    "name": "F#5",
                    "midi": 78,
                    "time": 302.2374500000046,
                    "velocity": 0.5826771653543307,
                    "duration": 0.12463400000001457
                },
                {
                    "name": "D#5",
                    "midi": 75,
                    "time": 302.36208400000464,
                    "velocity": 0.6062992125984252,
                    "duration": 0.12463400000001457
                },
                {
                    "name": "F#5",
                    "midi": 78,
                    "time": 302.48671800000466,
                    "velocity": 0.6456692913385826,
                    "duration": 0.12463400000001457
                },
                {
                    "name": "A5",
                    "midi": 81,
                    "time": 302.6113520000047,
                    "velocity": 0.5905511811023622,
                    "duration": 0.12463400000001457
                },
                {
                    "name": "C6",
                    "midi": 84,
                    "time": 302.7359860000047,
                    "velocity": 0.5826771653543307,
                    "duration": 0.12463400000001457
                },
                {
                    "name": "A5",
                    "midi": 81,
                    "time": 302.8606200000047,
                    "velocity": 0.6456692913385826,
                    "duration": 0.12463400000001457
                },
                {
                    "name": "F#5",
                    "midi": 78,
                    "time": 302.9852540000047,
                    "velocity": 0.5826771653543307,
                    "duration": 0.12463400000001457
                },
                {
                    "name": "D#6",
                    "midi": 87,
                    "time": 303.10988800000473,
                    "velocity": 0.5826771653543307,
                    "duration": 0.12463400000001457
                },
                {
                    "name": "F#5",
                    "midi": 78,
                    "time": 303.23452200000474,
                    "velocity": 0.6456692913385826,
                    "duration": 0.12463400000001457
                },
                {
                    "name": "D#5",
                    "midi": 75,
                    "time": 303.35915600000476,
                    "velocity": 0.5826771653543307,
                    "duration": 0.12463400000001457
                },
                {
                    "name": "C6",
                    "midi": 84,
                    "time": 303.4837900000048,
                    "velocity": 0.5826771653543307,
                    "duration": 0.12463400000001457
                },
                {
                    "name": "D#5",
                    "midi": 75,
                    "time": 303.6084240000048,
                    "velocity": 0.6456692913385826,
                    "duration": 0.12463400000001457
                },
                {
                    "name": "C5",
                    "midi": 72,
                    "time": 303.7330580000048,
                    "velocity": 0.5826771653543307,
                    "duration": 0.12463400000001457
                },
                {
                    "name": "A5",
                    "midi": 81,
                    "time": 303.8576920000048,
                    "velocity": 0.5826771653543307,
                    "duration": 0.12463400000001457
                },
                {
                    "name": "D#5",
                    "midi": 75,
                    "time": 303.98232600000483,
                    "velocity": 0.6141732283464567,
                    "duration": 0.12463400000001457
                },
                {
                    "name": "A4",
                    "midi": 69,
                    "time": 304.10696000000485,
                    "velocity": 0.5826771653543307,
                    "duration": 0.12463400000001457
                },
                {
                    "name": "F#5",
                    "midi": 78,
                    "time": 304.23159400000486,
                    "velocity": 0.5826771653543307,
                    "duration": 0.12463400000001457
                },
                {
                    "name": "D#5",
                    "midi": 75,
                    "time": 304.3562280000049,
                    "velocity": 0.6062992125984252,
                    "duration": 0.12463400000001457
                },
                {
                    "name": "A4",
                    "midi": 69,
                    "time": 304.4808620000049,
                    "velocity": 0.5590551181102362,
                    "duration": 0.12463400000001457
                },
                {
                    "name": "F5",
                    "midi": 77,
                    "time": 304.6054960000049,
                    "velocity": 0.5590551181102362,
                    "duration": 0.12463400000001457
                },
                {
                    "name": "D#5",
                    "midi": 75,
                    "time": 304.7301300000049,
                    "velocity": 0.5984251968503937,
                    "duration": 0.12463400000001457
                },
                {
                    "name": "A4",
                    "midi": 69,
                    "time": 304.85476400000493,
                    "velocity": 0.5590551181102362,
                    "duration": 0.12463400000001457
                },
                {
                    "name": "F5",
                    "midi": 77,
                    "time": 304.97939800000495,
                    "velocity": 0.5590551181102362,
                    "duration": 0.12463400000001457
                },
                {
                    "name": "A#4",
                    "midi": 70,
                    "time": 305.10403200000496,
                    "velocity": 0.5275590551181102,
                    "duration": 0.37390199999998686
                },
                {
                    "name": "D5",
                    "midi": 74,
                    "time": 305.10403200000496,
                    "velocity": 0.5275590551181102,
                    "duration": 0.37390199999998686
                },
                {
                    "name": "F5",
                    "midi": 77,
                    "time": 305.10403200000496,
                    "velocity": 0.6220472440944882,
                    "duration": 0.37390199999998686
                },
                {
                    "name": "F4",
                    "midi": 65,
                    "time": 305.47793400000495,
                    "velocity": 0.5905511811023622,
                    "duration": 0.7478039999999737
                },
                {
                    "name": "F4",
                    "midi": 65,
                    "time": 306.2257380000049,
                    "velocity": 0.5905511811023622,
                    "duration": 0.37390199999998686
                },
                {
                    "name": "A#4",
                    "midi": 70,
                    "time": 306.5996400000049,
                    "velocity": 0.6456692913385826,
                    "duration": 0.12463400000001457
                },
                {
                    "name": "F4",
                    "midi": 65,
                    "time": 306.7242740000049,
                    "velocity": 0.5826771653543307,
                    "duration": 0.12463400000001457
                },
                {
                    "name": "D4",
                    "midi": 62,
                    "time": 306.84890800000494,
                    "velocity": 0.5826771653543307,
                    "duration": 0.12463400000001457
                },
                {
                    "name": "F4",
                    "midi": 65,
                    "time": 306.97354200000495,
                    "velocity": 0.6456692913385826,
                    "duration": 0.12463400000001457
                },
                {
                    "name": "A#4",
                    "midi": 70,
                    "time": 307.09817600000497,
                    "velocity": 0.5826771653543307,
                    "duration": 0.12463400000001457
                },
                {
                    "name": "D5",
                    "midi": 74,
                    "time": 307.222810000005,
                    "velocity": 0.5748031496062992,
                    "duration": 0.12463400000001457
                },
                {
                    "name": "C5",
                    "midi": 72,
                    "time": 307.347444000005,
                    "velocity": 0.6456692913385826,
                    "duration": 0.12463400000001457
                },
                {
                    "name": "A4",
                    "midi": 69,
                    "time": 307.472078000005,
                    "velocity": 0.5826771653543307,
                    "duration": 0.12463400000001457
                },
                {
                    "name": "F#4",
                    "midi": 66,
                    "time": 307.596712000005,
                    "velocity": 0.5826771653543307,
                    "duration": 0.12463400000001457
                },
                {
                    "name": "A4",
                    "midi": 69,
                    "time": 307.72134600000504,
                    "velocity": 0.6456692913385826,
                    "duration": 0.12463400000001457
                },
                {
                    "name": "C5",
                    "midi": 72,
                    "time": 307.84598000000506,
                    "velocity": 0.5905511811023622,
                    "duration": 0.12463400000001457
                },
                {
                    "name": "D#5",
                    "midi": 75,
                    "time": 307.97061400000507,
                    "velocity": 0.5905511811023622,
                    "duration": 0.12463400000001457
                },
                {
                    "name": "D5",
                    "midi": 74,
                    "time": 308.0952480000051,
                    "velocity": 0.6456692913385826,
                    "duration": 0.12463400000001457
                },
                {
                    "name": "B4",
                    "midi": 71,
                    "time": 308.2198820000051,
                    "velocity": 0.5826771653543307,
                    "duration": 0.12463400000001457
                },
                {
                    "name": "G#4",
                    "midi": 68,
                    "time": 308.3445160000051,
                    "velocity": 0.6062992125984252,
                    "duration": 0.12463400000001457
                },
                {
                    "name": "B4",
                    "midi": 71,
                    "time": 308.46915000000513,
                    "velocity": 0.6456692913385826,
                    "duration": 0.12463400000001457
                },
                {
                    "name": "D5",
                    "midi": 74,
                    "time": 308.59378400000514,
                    "velocity": 0.5905511811023622,
                    "duration": 0.12463400000001457
                },
                {
                    "name": "F5",
                    "midi": 77,
                    "time": 308.71841800000516,
                    "velocity": 0.5826771653543307,
                    "duration": 0.12463400000001457
                },
                {
                    "name": "G#5",
                    "midi": 80,
                    "time": 308.8430520000052,
                    "velocity": 0.6456692913385826,
                    "duration": 0.12463400000001457
                },
                {
                    "name": "D5",
                    "midi": 74,
                    "time": 308.9676860000052,
                    "velocity": 0.5826771653543307,
                    "duration": 0.12463400000001457
                },
                {
                    "name": "B5",
                    "midi": 83,
                    "time": 309.0923200000052,
                    "velocity": 0.5826771653543307,
                    "duration": 0.12463400000001457
                },
                {
                    "name": "D5",
                    "midi": 74,
                    "time": 309.2169540000052,
                    "velocity": 0.6456692913385826,
                    "duration": 0.12463400000001457
                },
                {
                    "name": "B4",
                    "midi": 71,
                    "time": 309.34158800000523,
                    "velocity": 0.5826771653543307,
                    "duration": 0.12463400000001457
                },
                {
                    "name": "G#5",
                    "midi": 80,
                    "time": 309.46622200000525,
                    "velocity": 0.5826771653543307,
                    "duration": 0.12463400000001457
                },
                {
                    "name": "B4",
                    "midi": 71,
                    "time": 309.59085600000526,
                    "velocity": 0.6456692913385826,
                    "duration": 0.12463400000001457
                },
                {
                    "name": "G#4",
                    "midi": 68,
                    "time": 309.7154900000053,
                    "velocity": 0.5826771653543307,
                    "duration": 0.12463400000001457
                },
                {
                    "name": "F5",
                    "midi": 77,
                    "time": 309.8401240000053,
                    "velocity": 0.5826771653543307,
                    "duration": 0.12463400000001457
                },
                {
                    "name": "G#4",
                    "midi": 68,
                    "time": 309.9647580000053,
                    "velocity": 0.6141732283464567,
                    "duration": 0.12463400000001457
                },
                {
                    "name": "F4",
                    "midi": 65,
                    "time": 310.0893920000053,
                    "velocity": 0.5826771653543307,
                    "duration": 0.12463400000001457
                },
                {
                    "name": "D5",
                    "midi": 74,
                    "time": 310.21402600000533,
                    "velocity": 0.5826771653543307,
                    "duration": 0.12463400000001457
                },
                {
                    "name": "G#4",
                    "midi": 68,
                    "time": 310.33866000000535,
                    "velocity": 0.6062992125984252,
                    "duration": 0.12463400000001457
                },
                {
                    "name": "D4",
                    "midi": 62,
                    "time": 310.46329400000536,
                    "velocity": 0.5590551181102362,
                    "duration": 0.12463400000001457
                },
                {
                    "name": "B4",
                    "midi": 71,
                    "time": 310.5879280000054,
                    "velocity": 0.5590551181102362,
                    "duration": 0.12463400000001457
                },
                {
                    "name": "G#4",
                    "midi": 68,
                    "time": 310.7125620000054,
                    "velocity": 0.5984251968503937,
                    "duration": 0.12463400000001457
                },
                {
                    "name": "D4",
                    "midi": 62,
                    "time": 310.8371960000054,
                    "velocity": 0.5590551181102362,
                    "duration": 0.12463400000001457
                },
                {
                    "name": "A#4",
                    "midi": 70,
                    "time": 310.9618300000054,
                    "velocity": 0.5590551181102362,
                    "duration": 0.12463400000001457
                },
                {
                    "name": "F#5",
                    "midi": 78,
                    "time": 311.08646400000544,
                    "velocity": 0.6456692913385826,
                    "duration": 0.12463400000001457
                },
                {
                    "name": "D#5",
                    "midi": 75,
                    "time": 311.21109800000545,
                    "velocity": 0.5826771653543307,
                    "duration": 0.12463400000001457
                },
                {
                    "name": "A#4",
                    "midi": 70,
                    "time": 311.33573200000546,
                    "velocity": 0.6062992125984252,
                    "duration": 0.12463400000001457
                },
                {
                    "name": "D#5",
                    "midi": 75,
                    "time": 311.4603660000055,
                    "velocity": 0.6456692913385826,
                    "duration": 0.12463400000001457
                },
                {
                    "name": "F#5",
                    "midi": 78,
                    "time": 311.5850000000055,
                    "velocity": 0.5905511811023622,
                    "duration": 0.12463400000001457
                },
                {
                    "name": "A#5",
                    "midi": 82,
                    "time": 311.7096340000055,
                    "velocity": 0.5826771653543307,
                    "duration": 0.12463400000001457
                },
                {
                    "name": "F#5",
                    "midi": 78,
                    "time": 311.8342680000055,
                    "velocity": 0.6456692913385826,
                    "duration": 0.12463400000001457
                },
                {
                    "name": "D#5",
                    "midi": 75,
                    "time": 311.95890200000554,
                    "velocity": 0.5826771653543307,
                    "duration": 0.12463400000001457
                },
                {
                    "name": "D#6",
                    "midi": 87,
                    "time": 312.08353600000555,
                    "velocity": 0.5826771653543307,
                    "duration": 0.12463400000001457
                },
                {
                    "name": "D#5",
                    "midi": 75,
                    "time": 312.20817000000557,
                    "velocity": 0.6456692913385826,
                    "duration": 0.12463400000001457
                },
                {
                    "name": "A#4",
                    "midi": 70,
                    "time": 312.3328040000056,
                    "velocity": 0.5826771653543307,
                    "duration": 0.12463400000001457
                },
                {
                    "name": "A#5",
                    "midi": 82,
                    "time": 312.4574380000056,
                    "velocity": 0.5826771653543307,
                    "duration": 0.12463400000001457
                },
                {
                    "name": "A#4",
                    "midi": 70,
                    "time": 312.5820720000056,
                    "velocity": 0.6456692913385826,
                    "duration": 0.12463400000001457
                },
                {
                    "name": "F#4",
                    "midi": 66,
                    "time": 312.7067060000056,
                    "velocity": 0.5826771653543307,
                    "duration": 0.12463400000001457
                },
                {
                    "name": "F#5",
                    "midi": 78,
                    "time": 312.83134000000564,
                    "velocity": 0.5826771653543307,
                    "duration": 0.12463400000001457
                },
                {
                    "name": "F#4",
                    "midi": 66,
                    "time": 312.95597400000565,
                    "velocity": 0.6141732283464567,
                    "duration": 0.12463400000001457
                },
                {
                    "name": "D#4",
                    "midi": 63,
                    "time": 313.08060800000567,
                    "velocity": 0.5826771653543307,
                    "duration": 0.12463400000001457
                },
                {
                    "name": "D#5",
                    "midi": 75,
                    "time": 313.2052420000057,
                    "velocity": 0.5826771653543307,
                    "duration": 0.12463400000001457
                },
                {
                    "name": "F#4",
                    "midi": 66,
                    "time": 313.3298760000057,
                    "velocity": 0.6062992125984252,
                    "duration": 0.12463400000001457
                },
                {
                    "name": "D#4",
                    "midi": 63,
                    "time": 313.4545100000057,
                    "velocity": 0.5590551181102362,
                    "duration": 0.12463400000001457
                },
                {
                    "name": "D#5",
                    "midi": 75,
                    "time": 313.5791440000057,
                    "velocity": 0.5590551181102362,
                    "duration": 0.12463400000001457
                },
                {
                    "name": "F#4",
                    "midi": 66,
                    "time": 313.70377800000574,
                    "velocity": 0.5984251968503937,
                    "duration": 0.12463400000001457
                },
                {
                    "name": "D#4",
                    "midi": 63,
                    "time": 313.82841200000576,
                    "velocity": 0.5590551181102362,
                    "duration": 0.12463400000001457
                },
                {
                    "name": "D#5",
                    "midi": 75,
                    "time": 313.95304600000577,
                    "velocity": 0.5590551181102362,
                    "duration": 0.12463400000001457
                },
                {
                    "name": "F#5",
                    "midi": 78,
                    "time": 314.0776800000058,
                    "velocity": 0.6456692913385826,
                    "duration": 0.12463400000001457
                },
                {
                    "name": "E5",
                    "midi": 76,
                    "time": 314.2023140000058,
                    "velocity": 0.5826771653543307,
                    "duration": 0.12463400000001457
                },
                {
                    "name": "C#5",
                    "midi": 73,
                    "time": 314.3269480000058,
                    "velocity": 0.6062992125984252,
                    "duration": 0.12463400000001457
                },
                {
                    "name": "E5",
                    "midi": 76,
                    "time": 314.4515820000058,
                    "velocity": 0.6456692913385826,
                    "duration": 0.12463400000001457
                },
                {
                    "name": "F#5",
                    "midi": 78,
                    "time": 314.57621600000584,
                    "velocity": 0.5905511811023622,
                    "duration": 0.12463400000001457
                },
                {
                    "name": "C#6",
                    "midi": 85,
                    "time": 314.70085000000586,
                    "velocity": 0.5826771653543307,
                    "duration": 0.12463400000001457
                },
                {
                    "name": "F#5",
                    "midi": 78,
                    "time": 314.8254840000059,
                    "velocity": 0.6456692913385826,
                    "duration": 0.12463400000001457
                },
                {
                    "name": "E5",
                    "midi": 76,
                    "time": 314.9501180000059,
                    "velocity": 0.5826771653543307,
                    "duration": 0.12463400000001457
                },
                {
                    "name": "E6",
                    "midi": 88,
                    "time": 315.0747520000059,
                    "velocity": 0.5826771653543307,
                    "duration": 0.12463400000001457
                },
                {
                    "name": "E5",
                    "midi": 76,
                    "time": 315.1993860000059,
                    "velocity": 0.6456692913385826,
                    "duration": 0.12463400000001457
                },
                {
                    "name": "C#5",
                    "midi": 73,
                    "time": 315.32402000000593,
                    "velocity": 0.5826771653543307,
                    "duration": 0.12463400000001457
                },
                {
                    "name": "C#6",
                    "midi": 85,
                    "time": 315.44865400000594,
                    "velocity": 0.5826771653543307,
                    "duration": 0.12463400000001457
                },
                {
                    "name": "C#5",
                    "midi": 73,
                    "time": 315.57328800000596,
                    "velocity": 0.6456692913385826,
                    "duration": 0.12463400000001457
                },
                {
                    "name": "F#4",
                    "midi": 66,
                    "time": 315.697922000006,
                    "velocity": 0.5826771653543307,
                    "duration": 0.12463400000001457
                },
                {
                    "name": "F#5",
                    "midi": 78,
                    "time": 315.822556000006,
                    "velocity": 0.5826771653543307,
                    "duration": 0.12463400000001457
                },
                {
                    "name": "F#4",
                    "midi": 66,
                    "time": 315.947190000006,
                    "velocity": 0.6141732283464567,
                    "duration": 0.12463400000001457
                },
                {
                    "name": "E4",
                    "midi": 64,
                    "time": 316.071824000006,
                    "velocity": 0.5826771653543307,
                    "duration": 0.12463400000001457
                },
                {
                    "name": "E5",
                    "midi": 76,
                    "time": 316.19645800000603,
                    "velocity": 0.5826771653543307,
                    "duration": 0.12463400000001457
                },
                {
                    "name": "F#4",
                    "midi": 66,
                    "time": 316.32109200000605,
                    "velocity": 0.6062992125984252,
                    "duration": 0.12463400000001457
                },
                {
                    "name": "E4",
                    "midi": 64,
                    "time": 316.44572600000606,
                    "velocity": 0.5590551181102362,
                    "duration": 0.12463400000001457
                },
                {
                    "name": "E5",
                    "midi": 76,
                    "time": 316.5703600000061,
                    "velocity": 0.5590551181102362,
                    "duration": 0.12463400000001457
                },
                {
                    "name": "F#4",
                    "midi": 66,
                    "time": 316.6949940000061,
                    "velocity": 0.5984251968503937,
                    "duration": 0.12463400000001457
                },
                {
                    "name": "E4",
                    "midi": 64,
                    "time": 316.8196280000061,
                    "velocity": 0.5590551181102362,
                    "duration": 0.12463400000001457
                },
                {
                    "name": "E5",
                    "midi": 76,
                    "time": 316.9442620000061,
                    "velocity": 0.5590551181102362,
                    "duration": 0.12463400000001457
                },
                {
                    "name": "F#5",
                    "midi": 78,
                    "time": 317.06889600000613,
                    "velocity": 0.6456692913385826,
                    "duration": 0.12463400000001457
                },
                {
                    "name": "D5",
                    "midi": 74,
                    "time": 317.19353000000615,
                    "velocity": 0.5826771653543307,
                    "duration": 0.12463400000001457
                },
                {
                    "name": "B4",
                    "midi": 71,
                    "time": 317.31816400000616,
                    "velocity": 0.6062992125984252,
                    "duration": 0.12463400000001457
                },
                {
                    "name": "D5",
                    "midi": 74,
                    "time": 317.4427980000062,
                    "velocity": 0.6456692913385826,
                    "duration": 0.12463400000001457
                },
                {
                    "name": "F#5",
                    "midi": 78,
                    "time": 317.5674320000062,
                    "velocity": 0.5905511811023622,
                    "duration": 0.12463400000001457
                },
                {
                    "name": "B5",
                    "midi": 83,
                    "time": 317.6920660000062,
                    "velocity": 0.5826771653543307,
                    "duration": 0.12463400000001457
                },
                {
                    "name": "F#5",
                    "midi": 78,
                    "time": 317.8167000000062,
                    "velocity": 0.6456692913385826,
                    "duration": 0.12463400000001457
                },
                {
                    "name": "D5",
                    "midi": 74,
                    "time": 317.94133400000624,
                    "velocity": 0.5826771653543307,
                    "duration": 0.12463400000001457
                },
                {
                    "name": "D6",
                    "midi": 86,
                    "time": 318.06596800000625,
                    "velocity": 0.5826771653543307,
                    "duration": 0.12463400000001457
                },
                {
                    "name": "D5",
                    "midi": 74,
                    "time": 318.19060200000627,
                    "velocity": 0.6456692913385826,
                    "duration": 0.12463400000001457
                },
                {
                    "name": "B4",
                    "midi": 71,
                    "time": 318.3152360000063,
                    "velocity": 0.5826771653543307,
                    "duration": 0.12463400000001457
                },
                {
                    "name": "B5",
                    "midi": 83,
                    "time": 318.4398700000063,
                    "velocity": 0.5826771653543307,
                    "duration": 0.12463400000001457
                },
                {
                    "name": "B4",
                    "midi": 71,
                    "time": 318.5645040000063,
                    "velocity": 0.6456692913385826,
                    "duration": 0.12463400000001457
                },
                {
                    "name": "F#4",
                    "midi": 66,
                    "time": 318.6891380000063,
                    "velocity": 0.5826771653543307,
                    "duration": 0.12463400000001457
                },
                {
                    "name": "F#5",
                    "midi": 78,
                    "time": 318.81377200000634,
                    "velocity": 0.5826771653543307,
                    "duration": 0.12463400000001457
                },
                {
                    "name": "F#4",
                    "midi": 66,
                    "time": 318.93840600000635,
                    "velocity": 0.6141732283464567,
                    "duration": 0.12463400000001457
                },
                {
                    "name": "D4",
                    "midi": 62,
                    "time": 319.06304000000637,
                    "velocity": 0.5826771653543307,
                    "duration": 0.12463400000001457
                },
                {
                    "name": "D5",
                    "midi": 74,
                    "time": 319.1876740000064,
                    "velocity": 0.5826771653543307,
                    "duration": 0.12463400000001457
                },
                {
                    "name": "F#4",
                    "midi": 66,
                    "time": 319.3123080000064,
                    "velocity": 0.6062992125984252,
                    "duration": 0.12463400000001457
                },
                {
                    "name": "D4",
                    "midi": 62,
                    "time": 319.4369420000064,
                    "velocity": 0.5590551181102362,
                    "duration": 0.12463400000001457
                },
                {
                    "name": "D5",
                    "midi": 74,
                    "time": 319.5615760000064,
                    "velocity": 0.5590551181102362,
                    "duration": 0.12463400000001457
                },
                {
                    "name": "F#4",
                    "midi": 66,
                    "time": 319.68621000000644,
                    "velocity": 0.5984251968503937,
                    "duration": 0.12463400000001457
                },
                {
                    "name": "D4",
                    "midi": 62,
                    "time": 319.81084400000645,
                    "velocity": 0.5590551181102362,
                    "duration": 0.12463400000001457
                },
                {
                    "name": "D5",
                    "midi": 74,
                    "time": 319.93547800000647,
                    "velocity": 0.5590551181102362,
                    "duration": 0.12463400000001457
                },
                {
                    "name": "G5",
                    "midi": 79,
                    "time": 320.0601120000065,
                    "velocity": 0.6456692913385826,
                    "duration": 0.12463400000001457
                },
                {
                    "name": "D5",
                    "midi": 74,
                    "time": 320.1847460000065,
                    "velocity": 0.5826771653543307,
                    "duration": 0.12463400000001457
                },
                {
                    "name": "B4",
                    "midi": 71,
                    "time": 320.3093800000065,
                    "velocity": 0.6062992125984252,
                    "duration": 0.12463400000001457
                },
                {
                    "name": "D5",
                    "midi": 74,
                    "time": 320.4340140000065,
                    "velocity": 0.6456692913385826,
                    "duration": 0.12463400000001457
                },
                {
                    "name": "G5",
                    "midi": 79,
                    "time": 320.55864800000654,
                    "velocity": 0.5905511811023622,
                    "duration": 0.12463400000001457
                },
                {
                    "name": "B5",
                    "midi": 83,
                    "time": 320.68328200000656,
                    "velocity": 0.5826771653543307,
                    "duration": 0.12463400000001457
                },
                {
                    "name": "G5",
                    "midi": 79,
                    "time": 320.80791600000657,
                    "velocity": 0.6456692913385826,
                    "duration": 0.12463400000001457
                },
                {
                    "name": "D5",
                    "midi": 74,
                    "time": 320.9325500000066,
                    "velocity": 0.5826771653543307,
                    "duration": 0.12463400000001457
                },
                {
                    "name": "D6",
                    "midi": 86,
                    "time": 321.0571840000066,
                    "velocity": 0.5826771653543307,
                    "duration": 0.12463400000001457
                },
                {
                    "name": "D5",
                    "midi": 74,
                    "time": 321.1818180000066,
                    "velocity": 0.6456692913385826,
                    "duration": 0.12463400000001457
                },
                {
                    "name": "B4",
                    "midi": 71,
                    "time": 321.30645200000663,
                    "velocity": 0.5826771653543307,
                    "duration": 0.12463400000001457
                },
                {
                    "name": "B5",
                    "midi": 83,
                    "time": 321.43108600000664,
                    "velocity": 0.5826771653543307,
                    "duration": 0.12463400000001457
                },
                {
                    "name": "B4",
                    "midi": 71,
                    "time": 321.55572000000666,
                    "velocity": 0.6456692913385826,
                    "duration": 0.12463400000001457
                },
                {
                    "name": "G4",
                    "midi": 67,
                    "time": 321.6803540000067,
                    "velocity": 0.5826771653543307,
                    "duration": 0.12463400000001457
                },
                {
                    "name": "G5",
                    "midi": 79,
                    "time": 321.8049880000067,
                    "velocity": 0.5826771653543307,
                    "duration": 0.12463400000001457
                },
                {
                    "name": "G4",
                    "midi": 67,
                    "time": 321.9296220000067,
                    "velocity": 0.6141732283464567,
                    "duration": 0.12463400000001457
                },
                {
                    "name": "F4",
                    "midi": 65,
                    "time": 322.0542560000067,
                    "velocity": 0.5826771653543307,
                    "duration": 0.12463400000001457
                },
                {
                    "name": "F5",
                    "midi": 77,
                    "time": 322.17889000000673,
                    "velocity": 0.5826771653543307,
                    "duration": 0.12463400000001457
                },
                {
                    "name": "G4",
                    "midi": 67,
                    "time": 322.30352400000675,
                    "velocity": 0.6062992125984252,
                    "duration": 0.12463400000001457
                },
                {
                    "name": "D4",
                    "midi": 62,
                    "time": 322.42815800000676,
                    "velocity": 0.5590551181102362,
                    "duration": 0.12463400000001457
                },
                {
                    "name": "D5",
                    "midi": 74,
                    "time": 322.5527920000068,
                    "velocity": 0.5590551181102362,
                    "duration": 0.12463400000001457
                },
                {
                    "name": "G4",
                    "midi": 67,
                    "time": 322.6774260000068,
                    "velocity": 0.5984251968503937,
                    "duration": 0.12463400000001457
                },
                {
                    "name": "D4",
                    "midi": 62,
                    "time": 322.8020600000068,
                    "velocity": 0.5590551181102362,
                    "duration": 0.12463400000001457
                },
                {
                    "name": "D5",
                    "midi": 74,
                    "time": 322.9266940000068,
                    "velocity": 0.5590551181102362,
                    "duration": 0.12463400000001457
                },
                {
                    "name": "C6",
                    "midi": 84,
                    "time": 323.05132800000683,
                    "velocity": 0.6456692913385826,
                    "duration": 0.12463400000001457
                },
                {
                    "name": "G5",
                    "midi": 79,
                    "time": 323.17596200000685,
                    "velocity": 0.5826771653543307,
                    "duration": 0.12463400000001457
                },
                {
                    "name": "D#5",
                    "midi": 75,
                    "time": 323.30059600000686,
                    "velocity": 0.6062992125984252,
                    "duration": 0.12463400000001457
                },
                {
                    "name": "G5",
                    "midi": 79,
                    "time": 323.4252300000069,
                    "velocity": 0.6456692913385826,
                    "duration": 0.12463400000001457
                },
                {
                    "name": "C6",
                    "midi": 84,
                    "time": 323.5498640000069,
                    "velocity": 0.5905511811023622,
                    "duration": 0.12463400000001457
                },
                {
                    "name": "D#6",
                    "midi": 87,
                    "time": 323.6744980000069,
                    "velocity": 0.5826771653543307,
                    "duration": 0.12463400000001457
                },
                {
                    "name": "G5",
                    "midi": 79,
                    "time": 323.7991320000069,
                    "velocity": 0.6456692913385826,
                    "duration": 0.12463400000001457
                },
                {
                    "name": "D#5",
                    "midi": 75,
                    "time": 323.92376600000694,
                    "velocity": 0.5826771653543307,
                    "duration": 0.12463400000001457
                },
                {
                    "name": "D#6",
                    "midi": 87,
                    "time": 324.04840000000695,
                    "velocity": 0.5826771653543307,
                    "duration": 0.12463400000001457
                },
                {
                    "name": "D#5",
                    "midi": 75,
                    "time": 324.17303400000696,
                    "velocity": 0.6456692913385826,
                    "duration": 0.12463400000001457
                },
                {
                    "name": "C5",
                    "midi": 72,
                    "time": 324.297668000007,
                    "velocity": 0.5826771653543307,
                    "duration": 0.12463400000001457
                },
                {
                    "name": "C6",
                    "midi": 84,
                    "time": 324.422302000007,
                    "velocity": 0.5826771653543307,
                    "duration": 0.12463400000001457
                },
                {
                    "name": "C5",
                    "midi": 72,
                    "time": 324.546936000007,
                    "velocity": 0.6456692913385826,
                    "duration": 0.12463400000001457
                },
                {
                    "name": "G4",
                    "midi": 67,
                    "time": 324.671570000007,
                    "velocity": 0.5826771653543307,
                    "duration": 0.12463400000001457
                },
                {
                    "name": "G5",
                    "midi": 79,
                    "time": 324.79620400000704,
                    "velocity": 0.5826771653543307,
                    "duration": 0.12463400000001457
                },
                {
                    "name": "G4",
                    "midi": 67,
                    "time": 324.92083800000705,
                    "velocity": 0.6141732283464567,
                    "duration": 0.12463400000001457
                },
                {
                    "name": "D#4",
                    "midi": 63,
                    "time": 325.04547200000707,
                    "velocity": 0.5826771653543307,
                    "duration": 0.12463400000001457
                },
                {
                    "name": "D#5",
                    "midi": 75,
                    "time": 325.1701060000071,
                    "velocity": 0.5826771653543307,
                    "duration": 0.12463400000001457
                },
                {
                    "name": "G4",
                    "midi": 67,
                    "time": 325.2947400000071,
                    "velocity": 0.6062992125984252,
                    "duration": 0.12463400000001457
                },
                {
                    "name": "D#4",
                    "midi": 63,
                    "time": 325.4193740000071,
                    "velocity": 0.5590551181102362,
                    "duration": 0.12463400000001457
                },
                {
                    "name": "D#5",
                    "midi": 75,
                    "time": 325.5440080000071,
                    "velocity": 0.5590551181102362,
                    "duration": 0.12463400000001457
                },
                {
                    "name": "G4",
                    "midi": 67,
                    "time": 325.66864200000714,
                    "velocity": 0.5984251968503937,
                    "duration": 0.12463400000001457
                },
                {
                    "name": "D#4",
                    "midi": 63,
                    "time": 325.79327600000715,
                    "velocity": 0.5590551181102362,
                    "duration": 0.12463400000001457
                },
                {
                    "name": "D#5",
                    "midi": 75,
                    "time": 325.91791000000717,
                    "velocity": 0.5590551181102362,
                    "duration": 0.12463400000001457
                },
                {
                    "name": "F5",
                    "midi": 77,
                    "time": 326.0425440000072,
                    "velocity": 0.6456692913385826,
                    "duration": 0.12463400000001457
                },
                {
                    "name": "C#5",
                    "midi": 73,
                    "time": 326.1671780000072,
                    "velocity": 0.5826771653543307,
                    "duration": 0.12463400000001457
                },
                {
                    "name": "G#4",
                    "midi": 68,
                    "time": 326.2918120000072,
                    "velocity": 0.6062992125984252,
                    "duration": 0.12463400000001457
                },
                {
                    "name": "C#5",
                    "midi": 73,
                    "time": 326.4164460000072,
                    "velocity": 0.6456692913385826,
                    "duration": 0.12463400000001457
                },
                {
                    "name": "F5",
                    "midi": 77,
                    "time": 326.54108000000724,
                    "velocity": 0.5905511811023622,
                    "duration": 0.12463400000001457
                },
                {
                    "name": "G#5",
                    "midi": 80,
                    "time": 326.66571400000726,
                    "velocity": 0.5826771653543307,
                    "duration": 0.12463400000001457
                },
                {
                    "name": "F5",
                    "midi": 77,
                    "time": 326.79034800000727,
                    "velocity": 0.6456692913385826,
                    "duration": 0.12463400000001457
                },
                {
                    "name": "C#5",
                    "midi": 73,
                    "time": 326.9149820000073,
                    "velocity": 0.5826771653543307,
                    "duration": 0.12463400000001457
                },
                {
                    "name": "G#4",
                    "midi": 68,
                    "time": 327.0396160000073,
                    "velocity": 0.5826771653543307,
                    "duration": 0.12463400000001457
                },
                {
                    "name": "F5",
                    "midi": 77,
                    "time": 327.1642500000073,
                    "velocity": 0.6456692913385826,
                    "duration": 0.12463400000001457
                },
                {
                    "name": "C#5",
                    "midi": 73,
                    "time": 327.28888400000733,
                    "velocity": 0.5826771653543307,
                    "duration": 0.12463400000001457
                },
                {
                    "name": "G#4",
                    "midi": 68,
                    "time": 327.41351800000734,
                    "velocity": 0.5826771653543307,
                    "duration": 0.12463400000001457
                },
                {
                    "name": "D#5",
                    "midi": 75,
                    "time": 327.53815200000736,
                    "velocity": 0.6456692913385826,
                    "duration": 0.12463400000001457
                },
                {
                    "name": "C5",
                    "midi": 72,
                    "time": 327.6627860000074,
                    "velocity": 0.5826771653543307,
                    "duration": 0.12463400000001457
                },
                {
                    "name": "A4",
                    "midi": 69,
                    "time": 327.7874200000074,
                    "velocity": 0.6062992125984252,
                    "duration": 0.12463400000001457
                },
                {
                    "name": "C5",
                    "midi": 72,
                    "time": 327.9120540000074,
                    "velocity": 0.6456692913385826,
                    "duration": 0.12463400000001457
                },
                {
                    "name": "D#5",
                    "midi": 75,
                    "time": 328.0366880000074,
                    "velocity": 0.5905511811023622,
                    "duration": 0.12463400000001457
                },
                {
                    "name": "A5",
                    "midi": 81,
                    "time": 328.16132200000743,
                    "velocity": 0.5826771653543307,
                    "duration": 0.12463400000001457
                },
                {
                    "name": "D#5",
                    "midi": 75,
                    "time": 328.28595600000745,
                    "velocity": 0.6456692913385826,
                    "duration": 0.12463400000001457
                },
                {
                    "name": "C5",
                    "midi": 72,
                    "time": 328.41059000000746,
                    "velocity": 0.5826771653543307,
                    "duration": 0.12463400000001457
                },
                {
                    "name": "A4",
                    "midi": 69,
                    "time": 328.5352240000075,
                    "velocity": 0.5826771653543307,
                    "duration": 0.12463400000001457
                },
                {
                    "name": "D#5",
                    "midi": 75,
                    "time": 328.6598580000075,
                    "velocity": 0.6456692913385826,
                    "duration": 0.12463400000001457
                },
                {
                    "name": "C5",
                    "midi": 72,
                    "time": 328.7844920000075,
                    "velocity": 0.5826771653543307,
                    "duration": 0.12463400000001457
                },
                {
                    "name": "A4",
                    "midi": 69,
                    "time": 328.9091260000075,
                    "velocity": 0.5826771653543307,
                    "duration": 0.12463400000001457
                },
                {
                    "name": "B4",
                    "midi": 71,
                    "time": 329.4076620000075,
                    "velocity": 0.6535433070866141,
                    "duration": 0.12463400000001457
                },
                {
                    "name": "D5",
                    "midi": 74,
                    "time": 329.53229600000753,
                    "velocity": 0.5669291338582677,
                    "duration": 0.12463400000001457
                },
                {
                    "name": "G5",
                    "midi": 79,
                    "time": 329.65693000000755,
                    "velocity": 0.5669291338582677,
                    "duration": 0.12463400000001457
                },
                {
                    "name": "D5",
                    "midi": 74,
                    "time": 329.78156400000756,
                    "velocity": 0.6535433070866141,
                    "duration": 0.12463400000001457
                },
                {
                    "name": "B4",
                    "midi": 71,
                    "time": 329.9061980000076,
                    "velocity": 0.5590551181102362,
                    "duration": 0.12463400000001457
                },
                {
                    "name": "G4",
                    "midi": 67,
                    "time": 330.0308320000076,
                    "velocity": 0.5511811023622047,
                    "duration": 0.12463400000001457
                },
                {
                    "name": "F5",
                    "midi": 77,
                    "time": 330.1554660000076,
                    "velocity": 0.4566929133858268,
                    "duration": 0.12463400000001457
                },
                {
                    "name": "B4",
                    "midi": 71,
                    "time": 330.2801000000076,
                    "velocity": 0.3700787401574803,
                    "duration": 0.12463400000001457
                },
                {
                    "name": "G4",
                    "midi": 67,
                    "time": 330.40473400000764,
                    "velocity": 0.3700787401574803,
                    "duration": 0.12463400000001457
                },
                {
                    "name": "F5",
                    "midi": 77,
                    "time": 330.52936800000765,
                    "velocity": 0.4330708661417323,
                    "duration": 0.12463400000001457
                },
                {
                    "name": "D5",
                    "midi": 74,
                    "time": 330.65400200000767,
                    "velocity": 0.3700787401574803,
                    "duration": 0.12463400000001457
                },
                {
                    "name": "G4",
                    "midi": 67,
                    "time": 330.7786360000077,
                    "velocity": 0.3700787401574803,
                    "duration": 0.12463400000001457
                },
                {
                    "name": "D#5",
                    "midi": 75,
                    "time": 330.9032700000077,
                    "velocity": 0.4330708661417323,
                    "duration": 0.12463400000001457
                },
                {
                    "name": "D5",
                    "midi": 74,
                    "time": 331.0279040000077,
                    "velocity": 0.3700787401574803,
                    "duration": 0.12463400000001457
                },
                {
                    "name": "G4",
                    "midi": 67,
                    "time": 331.1525380000077,
                    "velocity": 0.3700787401574803,
                    "duration": 0.12463400000001457
                },
                {
                    "name": "D#5",
                    "midi": 75,
                    "time": 331.27717200000774,
                    "velocity": 0.4330708661417323,
                    "duration": 0.12463400000001457
                },
                {
                    "name": "C5",
                    "midi": 72,
                    "time": 331.40180600000775,
                    "velocity": 0.3779527559055118,
                    "duration": 0.12463400000001457
                },
                {
                    "name": "G4",
                    "midi": 67,
                    "time": 331.52644000000777,
                    "velocity": 0.3779527559055118,
                    "duration": 0.12463400000001457
                },
                {
                    "name": "D5",
                    "midi": 74,
                    "time": 331.6510740000078,
                    "velocity": 0.4330708661417323,
                    "duration": 0.12463400000001457
                },
                {
                    "name": "C5",
                    "midi": 72,
                    "time": 331.7757080000078,
                    "velocity": 0.3700787401574803,
                    "duration": 0.12463400000001457
                },
                {
                    "name": "A4",
                    "midi": 69,
                    "time": 331.9003420000078,
                    "velocity": 0.3700787401574803,
                    "duration": 0.12463400000001457
                },
                {
                    "name": "B3",
                    "midi": 59,
                    "time": 332.3988780000078,
                    "velocity": 0.6141732283464567,
                    "duration": 0.12463400000001457
                },
                {
                    "name": "D4",
                    "midi": 62,
                    "time": 332.5235120000078,
                    "velocity": 0.5590551181102362,
                    "duration": 0.12463400000001457
                },
                {
                    "name": "G4",
                    "midi": 67,
                    "time": 332.64814600000784,
                    "velocity": 0.5590551181102362,
                    "duration": 0.12463400000001457
                },
                {
                    "name": "D4",
                    "midi": 62,
                    "time": 332.77278000000786,
                    "velocity": 0.5826771653543307,
                    "duration": 0.12463400000001457
                },
                {
                    "name": "B3",
                    "midi": 59,
                    "time": 332.89741400000787,
                    "velocity": 0.49606299212598426,
                    "duration": 0.12463400000001457
                },
                {
                    "name": "G3",
                    "midi": 55,
                    "time": 333.0220480000079,
                    "velocity": 0.4881889763779528,
                    "duration": 0.12463400000001457
                },
                {
                    "name": "F4",
                    "midi": 65,
                    "time": 333.1466820000079,
                    "velocity": 0.4094488188976378,
                    "duration": 0.12463400000001457
                },
                {
                    "name": "B3",
                    "midi": 59,
                    "time": 333.2713160000079,
                    "velocity": 0.33070866141732286,
                    "duration": 0.12463400000001457
                },
                {
                    "name": "G3",
                    "midi": 55,
                    "time": 333.39595000000793,
                    "velocity": 0.33070866141732286,
                    "duration": 0.12463400000001457
                },
                {
                    "name": "F4",
                    "midi": 65,
                    "time": 333.52058400000794,
                    "velocity": 0.3858267716535433,
                    "duration": 0.12463400000001457
                },
                {
                    "name": "D4",
                    "midi": 62,
                    "time": 333.64521800000796,
                    "velocity": 0.33070866141732286,
                    "duration": 0.12463400000001457
                },
                {
                    "name": "G3",
                    "midi": 55,
                    "time": 333.769852000008,
                    "velocity": 0.33070866141732286,
                    "duration": 0.12463400000001457
                },
                {
                    "name": "D#4",
                    "midi": 63,
                    "time": 333.894486000008,
                    "velocity": 0.3858267716535433,
                    "duration": 0.12463400000001457
                },
                {
                    "name": "D4",
                    "midi": 62,
                    "time": 334.019120000008,
                    "velocity": 0.33070866141732286,
                    "duration": 0.12463400000001457
                },
                {
                    "name": "G3",
                    "midi": 55,
                    "time": 334.143754000008,
                    "velocity": 0.33070866141732286,
                    "duration": 0.12463400000001457
                },
                {
                    "name": "D#4",
                    "midi": 63,
                    "time": 334.26838800000803,
                    "velocity": 0.3858267716535433,
                    "duration": 0.12463400000001457
                },
                {
                    "name": "C4",
                    "midi": 60,
                    "time": 334.39302200000805,
                    "velocity": 0.33858267716535434,
                    "duration": 0.12463400000001457
                },
                {
                    "name": "G3",
                    "midi": 55,
                    "time": 334.51765600000806,
                    "velocity": 0.33858267716535434,
                    "duration": 0.12463400000001457
                },
                {
                    "name": "D4",
                    "midi": 62,
                    "time": 334.6422900000081,
                    "velocity": 0.3858267716535433,
                    "duration": 0.12463400000001457
                },
                {
                    "name": "C4",
                    "midi": 60,
                    "time": 334.7669240000081,
                    "velocity": 0.33070866141732286,
                    "duration": 0.12463400000001457
                },
                {
                    "name": "A3",
                    "midi": 57,
                    "time": 334.8915580000081,
                    "velocity": 0.33070866141732286,
                    "duration": 0.12463400000001457
                },
                {
                    "name": "D4",
                    "midi": 62,
                    "time": 335.0161920000081,
                    "velocity": 0.3858267716535433,
                    "duration": 0.12463400000001457
                },
                {
                    "name": "B3",
                    "midi": 59,
                    "time": 335.14082600000813,
                    "velocity": 0.33070866141732286,
                    "duration": 0.12463400000001457
                },
                {
                    "name": "G3",
                    "midi": 55,
                    "time": 335.26546000000815,
                    "velocity": 0.33070866141732286,
                    "duration": 0.12463400000001457
                },
                {
                    "name": "C4",
                    "midi": 60,
                    "time": 335.39009400000816,
                    "velocity": 0.3858267716535433,
                    "duration": 0.12463400000001457
                },
                {
                    "name": "G3",
                    "midi": 55,
                    "time": 335.5147280000082,
                    "velocity": 0.33070866141732286,
                    "duration": 0.12463400000001457
                },
                {
                    "name": "D#3",
                    "midi": 51,
                    "time": 335.6393620000082,
                    "velocity": 0.3228346456692913,
                    "duration": 0.12463400000001457
                },
                {
                    "name": "B3",
                    "midi": 59,
                    "time": 335.7639960000082,
                    "velocity": 0.3779527559055118,
                    "duration": 0.12463400000001457
                },
                {
                    "name": "G3",
                    "midi": 55,
                    "time": 335.8886300000082,
                    "velocity": 0.3228346456692913,
                    "duration": 0.12463400000001457
                },
                {
                    "name": "D3",
                    "midi": 50,
                    "time": 336.01326400000823,
                    "velocity": 0.3228346456692913,
                    "duration": 0.12463400000001457
                },
                {
                    "name": "A3",
                    "midi": 57,
                    "time": 336.13789800000825,
                    "velocity": 0.36220472440944884,
                    "duration": 0.12463400000001457
                },
                {
                    "name": "D#3",
                    "midi": 51,
                    "time": 336.26253200000826,
                    "velocity": 0.30708661417322836,
                    "duration": 0.12463400000001457
                },
                {
                    "name": "C3",
                    "midi": 48,
                    "time": 336.3871660000083,
                    "velocity": 0.30708661417322836,
                    "duration": 0.12463400000001457
                },
                {
                    "name": "G3",
                    "midi": 55,
                    "time": 336.5118000000083,
                    "velocity": 0.3543307086614173,
                    "duration": 0.12463400000001457
                },
                {
                    "name": "D3",
                    "midi": 50,
                    "time": 336.6364340000083,
                    "velocity": 0.2992125984251969,
                    "duration": 0.12463400000001457
                },
                {
                    "name": "B2",
                    "midi": 47,
                    "time": 336.7610680000083,
                    "velocity": 0.29133858267716534,
                    "duration": 0.12463400000001457
                },
                {
                    "name": "F#3",
                    "midi": 54,
                    "time": 336.88570200000834,
                    "velocity": 0.33858267716535434,
                    "duration": 0.12463400000001457
                },
                {
                    "name": "D#3",
                    "midi": 51,
                    "time": 337.01033600000835,
                    "velocity": 0.28346456692913385,
                    "duration": 0.12463400000001457
                },
                {
                    "name": "A2",
                    "midi": 45,
                    "time": 337.13497000000837,
                    "velocity": 0.28346456692913385,
                    "duration": 0.12463400000001457
                },
                {
                    "name": "G3",
                    "midi": 55,
                    "time": 337.2596040000084,
                    "velocity": 0.33070866141732286,
                    "duration": 0.12463400000001457
                },
                {
                    "name": "D3",
                    "midi": 50,
                    "time": 337.3842380000084,
                    "velocity": 0.28346456692913385,
                    "duration": 0.12463400000001457
                },
                {
                    "name": "B2",
                    "midi": 47,
                    "time": 337.5088720000084,
                    "velocity": 0.28346456692913385,
                    "duration": 0.12463400000001457
                },
                {
                    "name": "F#3",
                    "midi": 54,
                    "time": 337.6335060000084,
                    "velocity": 0.31496062992125984,
                    "duration": 0.12463400000001457
                },
                {
                    "name": "D#3",
                    "midi": 51,
                    "time": 337.75814000000844,
                    "velocity": 0.2677165354330709,
                    "duration": 0.12463400000001457
                },
                {
                    "name": "A2",
                    "midi": 45,
                    "time": 337.88277400000845,
                    "velocity": 0.2677165354330709,
                    "duration": 0.12463400000001457
                },
                {
                    "name": "B2",
                    "midi": 47,
                    "time": 338.00740800000847,
                    "velocity": 0.2992125984251969,
                    "duration": 1.5890835000000152
                },
                {
                    "name": "D3",
                    "midi": 50,
                    "time": 338.00740800000847,
                    "velocity": 0.2992125984251969,
                    "duration": 1.5890835000000152
                },
                {
                    "name": "G3",
                    "midi": 55,
                    "time": 338.00740800000847,
                    "velocity": 0.3543307086614173,
                    "duration": 1.5890835000000152
                },
                {
                    "name": "D3",
                    "midi": 50,
                    "time": 339.5964915000085,
                    "velocity": 0.31496062992125984,
                    "duration": 0.09347550000001092
                },
                {
                    "name": "E3",
                    "midi": 52,
                    "time": 339.6899670000085,
                    "velocity": 0.31496062992125984,
                    "duration": 0.09347550000001092
                },
                {
                    "name": "F#3",
                    "midi": 54,
                    "time": 339.7834425000085,
                    "velocity": 0.31496062992125984,
                    "duration": 0.09347550000001092
                },
                {
                    "name": "G3",
                    "midi": 55,
                    "time": 339.8769180000085,
                    "velocity": 0.3543307086614173,
                    "duration": 0.09347550000001092
                },
                {
                    "name": "D3",
                    "midi": 50,
                    "time": 339.9703935000085,
                    "velocity": 0.31496062992125984,
                    "duration": 0.09347550000001092
                },
                {
                    "name": "E3",
                    "midi": 52,
                    "time": 340.06386900000854,
                    "velocity": 0.31496062992125984,
                    "duration": 0.09347550000001092
                },
                {
                    "name": "F#3",
                    "midi": 54,
                    "time": 340.15734450000855,
                    "velocity": 0.31496062992125984,
                    "duration": 0.09347550000001092
                },
                {
                    "name": "G3",
                    "midi": 55,
                    "time": 340.25082000000856,
                    "velocity": 0.3543307086614173,
                    "duration": 0.09347550000001092
                },
                {
                    "name": "D3",
                    "midi": 50,
                    "time": 340.34429550000857,
                    "velocity": 0.31496062992125984,
                    "duration": 0.09347550000001092
                },
                {
                    "name": "E3",
                    "midi": 52,
                    "time": 340.4377710000086,
                    "velocity": 0.31496062992125984,
                    "duration": 0.09347550000001092
                },
                {
                    "name": "F#3",
                    "midi": 54,
                    "time": 340.5312465000086,
                    "velocity": 0.31496062992125984,
                    "duration": 0.09347550000001092
                },
                {
                    "name": "G3",
                    "midi": 55,
                    "time": 340.6247220000086,
                    "velocity": 0.36220472440944884,
                    "duration": 0.09347550000001092
                },
                {
                    "name": "D3",
                    "midi": 50,
                    "time": 340.7181975000086,
                    "velocity": 0.31496062992125984,
                    "duration": 0.09347550000001092
                },
                {
                    "name": "E3",
                    "midi": 52,
                    "time": 340.8116730000086,
                    "velocity": 0.31496062992125984,
                    "duration": 0.09347550000001092
                },
                {
                    "name": "F#3",
                    "midi": 54,
                    "time": 340.90514850000864,
                    "velocity": 0.31496062992125984,
                    "duration": 0.09347550000001092
                },
                {
                    "name": "G3",
                    "midi": 55,
                    "time": 340.99862400000865,
                    "velocity": 0.3543307086614173,
                    "duration": 1.5890835000000152
                },
                {
                    "name": "F#3",
                    "midi": 54,
                    "time": 342.58770750000866,
                    "velocity": 0.31496062992125984,
                    "duration": 0.09347550000001092
                },
                {
                    "name": "G3",
                    "midi": 55,
                    "time": 342.6811830000087,
                    "velocity": 0.31496062992125984,
                    "duration": 0.09347550000001092
                },
                {
                    "name": "A3",
                    "midi": 57,
                    "time": 342.7746585000087,
                    "velocity": 0.31496062992125984,
                    "duration": 0.09347550000001092
                },
                {
                    "name": "B3",
                    "midi": 59,
                    "time": 342.8681340000087,
                    "velocity": 0.3543307086614173,
                    "duration": 0.09347550000001092
                },
                {
                    "name": "F#3",
                    "midi": 54,
                    "time": 342.9616095000087,
                    "velocity": 0.31496062992125984,
                    "duration": 0.09347550000001092
                },
                {
                    "name": "G3",
                    "midi": 55,
                    "time": 343.0550850000087,
                    "velocity": 0.31496062992125984,
                    "duration": 0.09347550000001092
                },
                {
                    "name": "A3",
                    "midi": 57,
                    "time": 343.1485605000087,
                    "velocity": 0.31496062992125984,
                    "duration": 0.09347550000001092
                },
                {
                    "name": "B3",
                    "midi": 59,
                    "time": 343.24203600000874,
                    "velocity": 0.3543307086614173,
                    "duration": 0.09347550000001092
                },
                {
                    "name": "F#3",
                    "midi": 54,
                    "time": 343.33551150000875,
                    "velocity": 0.31496062992125984,
                    "duration": 0.09347550000001092
                },
                {
                    "name": "G3",
                    "midi": 55,
                    "time": 343.42898700000876,
                    "velocity": 0.31496062992125984,
                    "duration": 0.09347550000001092
                },
                {
                    "name": "A3",
                    "midi": 57,
                    "time": 343.52246250000877,
                    "velocity": 0.31496062992125984,
                    "duration": 0.09347550000001092
                },
                {
                    "name": "B3",
                    "midi": 59,
                    "time": 343.6159380000088,
                    "velocity": 0.36220472440944884,
                    "duration": 0.09347550000001092
                },
                {
                    "name": "F#3",
                    "midi": 54,
                    "time": 343.7094135000088,
                    "velocity": 0.31496062992125984,
                    "duration": 0.09347550000001092
                },
                {
                    "name": "G3",
                    "midi": 55,
                    "time": 343.8028890000088,
                    "velocity": 0.31496062992125984,
                    "duration": 0.09347550000001092
                },
                {
                    "name": "A3",
                    "midi": 57,
                    "time": 343.8963645000088,
                    "velocity": 0.31496062992125984,
                    "duration": 0.09347550000001092
                },
                {
                    "name": "B3",
                    "midi": 59,
                    "time": 343.9898400000088,
                    "velocity": 0.3543307086614173,
                    "duration": 0.18695100000002185
                },
                {
                    "name": "B3",
                    "midi": 59,
                    "time": 344.55069300000883,
                    "velocity": 0.3228346456692913,
                    "duration": 0.09347550000001092
                },
                {
                    "name": "C4",
                    "midi": 60,
                    "time": 344.64416850000885,
                    "velocity": 0.3464566929133858,
                    "duration": 0.09347550000001092
                },
                {
                    "name": "D4",
                    "midi": 62,
                    "time": 344.73764400000886,
                    "velocity": 0.3779527559055118,
                    "duration": 0.09347550000001092
                },
                {
                    "name": "D4",
                    "midi": 62,
                    "time": 345.29849700000887,
                    "velocity": 0.3543307086614173,
                    "duration": 0.06231700000000728
                },
                {
                    "name": "E4",
                    "midi": 64,
                    "time": 345.3608140000089,
                    "velocity": 0.3700787401574803,
                    "duration": 0.06231700000000728
                },
                {
                    "name": "F#4",
                    "midi": 66,
                    "time": 345.4231310000089,
                    "velocity": 0.3779527559055118,
                    "duration": 0.06231700000000728
                },
                {
                    "name": "G4",
                    "midi": 67,
                    "time": 345.4854480000089,
                    "velocity": 0.41732283464566927,
                    "duration": 0.18695100000002185
                },
                {
                    "name": "G4",
                    "midi": 67,
                    "time": 346.0463010000089,
                    "velocity": 0.4015748031496063,
                    "duration": 0.09347550000001092
                },
                {
                    "name": "A4",
                    "midi": 69,
                    "time": 346.1397765000089,
                    "velocity": 0.4015748031496063,
                    "duration": 0.09347550000001092
                },
                {
                    "name": "B4",
                    "midi": 71,
                    "time": 346.2332520000089,
                    "velocity": 0.4330708661417323,
                    "duration": 0.09347550000001092
                },
                {
                    "name": "B4",
                    "midi": 71,
                    "time": 346.42020300000894,
                    "velocity": 0.4015748031496063,
                    "duration": 0.09347550000001092
                },
                {
                    "name": "C5",
                    "midi": 72,
                    "time": 346.51367850000895,
                    "velocity": 0.4094488188976378,
                    "duration": 0.09347550000001092
                },
                {
                    "name": "D5",
                    "midi": 74,
                    "time": 346.60715400000896,
                    "velocity": 0.4330708661417323,
                    "duration": 0.09347550000001092
                },
                {
                    "name": "D5",
                    "midi": 74,
                    "time": 346.794105000009,
                    "velocity": 0.4094488188976378,
                    "duration": 0.06231700000000728
                },
                {
                    "name": "E5",
                    "midi": 76,
                    "time": 346.856422000009,
                    "velocity": 0.4251968503937008,
                    "duration": 0.06231700000000728
                },
                {
                    "name": "F#5",
                    "midi": 78,
                    "time": 346.918739000009,
                    "velocity": 0.4409448818897638,
                    "duration": 0.06231700000000728
                },
                {
                    "name": "G5",
                    "midi": 79,
                    "time": 346.981056000009,
                    "velocity": 0.4566929133858268,
                    "duration": 0.18695100000002185
                },
                {
                    "name": "D4",
                    "midi": 62,
                    "time": 347.541909000009,
                    "velocity": 0.3937007874015748,
                    "duration": 0.06231700000000728
                },
                {
                    "name": "E4",
                    "midi": 64,
                    "time": 347.604226000009,
                    "velocity": 0.41732283464566927,
                    "duration": 0.06231700000000728
                },
                {
                    "name": "F#4",
                    "midi": 66,
                    "time": 347.666543000009,
                    "velocity": 0.4330708661417323,
                    "duration": 0.06231700000000728
                },
                {
                    "name": "G4",
                    "midi": 67,
                    "time": 347.72886000000904,
                    "velocity": 0.4566929133858268,
                    "duration": 0.18695100000002185
                },
                {
                    "name": "G4",
                    "midi": 67,
                    "time": 348.28971300000904,
                    "velocity": 0.4330708661417323,
                    "duration": 0.09347550000001092
                },
                {
                    "name": "A4",
                    "midi": 69,
                    "time": 348.38318850000906,
                    "velocity": 0.4645669291338583,
                    "duration": 0.09347550000001092
                },
                {
                    "name": "B4",
                    "midi": 71,
                    "time": 348.47666400000907,
                    "velocity": 0.49606299212598426,
                    "duration": 0.09347550000001092
                },
                {
                    "name": "B4",
                    "midi": 71,
                    "time": 349.0375170000091,
                    "velocity": 0.44881889763779526,
                    "duration": 0.09347550000001092
                },
                {
                    "name": "C5",
                    "midi": 72,
                    "time": 349.1309925000091,
                    "velocity": 0.4566929133858268,
                    "duration": 0.09347550000001092
                },
                {
                    "name": "D5",
                    "midi": 74,
                    "time": 349.2244680000091,
                    "velocity": 0.49606299212598426,
                    "duration": 0.09347550000001092
                },
                {
                    "name": "D5",
                    "midi": 74,
                    "time": 349.4114190000091,
                    "velocity": 0.4566929133858268,
                    "duration": 0.06231700000000728
                },
                {
                    "name": "E5",
                    "midi": 76,
                    "time": 349.4737360000091,
                    "velocity": 0.47244094488188976,
                    "duration": 0.06231700000000728
                },
                {
                    "name": "F#5",
                    "midi": 78,
                    "time": 349.53605300000913,
                    "velocity": 0.49606299212598426,
                    "duration": 0.06231700000000728
                },
                {
                    "name": "G5",
                    "midi": 79,
                    "time": 349.59837000000914,
                    "velocity": 0.5196850393700787,
                    "duration": 0.09347550000001092
                },
                {
                    "name": "G5",
                    "midi": 79,
                    "time": 349.78532100000916,
                    "velocity": 0.5118110236220472,
                    "duration": 0.09347550000001092
                },
                {
                    "name": "A5",
                    "midi": 81,
                    "time": 349.8787965000092,
                    "velocity": 0.5354330708661418,
                    "duration": 0.09347550000001092
                },
                {
                    "name": "B5",
                    "midi": 83,
                    "time": 349.9722720000092,
                    "velocity": 0.5511811023622047,
                    "duration": 0.09347550000001092
                },
                {
                    "name": "D5",
                    "midi": 74,
                    "time": 350.5331250000092,
                    "velocity": 0.5118110236220472,
                    "duration": 0.06231700000000728
                },
                {
                    "name": "E5",
                    "midi": 76,
                    "time": 350.5954420000092,
                    "velocity": 0.5354330708661418,
                    "duration": 0.06231700000000728
                },
                {
                    "name": "F#5",
                    "midi": 78,
                    "time": 350.6577590000092,
                    "velocity": 0.5433070866141733,
                    "duration": 0.06231700000000728
                },
                {
                    "name": "G5",
                    "midi": 79,
                    "time": 350.7200760000092,
                    "velocity": 0.5590551181102362,
                    "duration": 0.09347550000001092
                },
                {
                    "name": "G5",
                    "midi": 79,
                    "time": 351.2809290000092,
                    "velocity": 0.5196850393700787,
                    "duration": 0.09347550000001092
                },
                {
                    "name": "A5",
                    "midi": 81,
                    "time": 351.37440450000923,
                    "velocity": 0.5354330708661418,
                    "duration": 0.09347550000001092
                },
                {
                    "name": "B5",
                    "midi": 83,
                    "time": 351.46788000000925,
                    "velocity": 0.5748031496062992,
                    "duration": 0.09347550000001092
                },
                {
                    "name": "G5",
                    "midi": 79,
                    "time": 352.02873300000925,
                    "velocity": 0.5354330708661418,
                    "duration": 0.09347550000001092
                },
                {
                    "name": "A5",
                    "midi": 81,
                    "time": 352.12220850000926,
                    "velocity": 0.5669291338582677,
                    "duration": 0.09347550000001092
                },
                {
                    "name": "B5",
                    "midi": 83,
                    "time": 352.2156840000093,
                    "velocity": 0.5984251968503937,
                    "duration": 0.09347550000001092
                },
                {
                    "name": "B5",
                    "midi": 83,
                    "time": 352.4026350000093,
                    "velocity": 0.5354330708661418,
                    "duration": 0.09347550000001092
                },
                {
                    "name": "C6",
                    "midi": 84,
                    "time": 352.4961105000093,
                    "velocity": 0.5590551181102362,
                    "duration": 0.09347550000001092
                },
                {
                    "name": "D6",
                    "midi": 86,
                    "time": 352.5895860000093,
                    "velocity": 0.5905511811023622,
                    "duration": 0.09347550000001092
                },
                {
                    "name": "D6",
                    "midi": 86,
                    "time": 352.77653700000934,
                    "velocity": 0.5511811023622047,
                    "duration": 0.09347550000001092
                },
                {
                    "name": "E6",
                    "midi": 88,
                    "time": 352.87001250000935,
                    "velocity": 0.5905511811023622,
                    "duration": 0.09347550000001092
                },
                {
                    "name": "F6",
                    "midi": 89,
                    "time": 352.96348800000936,
                    "velocity": 0.6220472440944882,
                    "duration": 0.09347550000001092
                },
                {
                    "name": "D6",
                    "midi": 86,
                    "time": 353.5243410000094,
                    "velocity": 0.6062992125984252,
                    "duration": 0.09347550000001092
                },
                {
                    "name": "E6",
                    "midi": 88,
                    "time": 353.6178165000094,
                    "velocity": 0.6456692913385826,
                    "duration": 0.09347550000001092
                },
                {
                    "name": "F6",
                    "midi": 89,
                    "time": 353.7112920000094,
                    "velocity": 0.6771653543307087,
                    "duration": 0.09347550000001092
                },
                {
                    "name": "D6",
                    "midi": 86,
                    "time": 354.2721450000094,
                    "velocity": 0.6220472440944882,
                    "duration": 0.09347550000001092
                },
                {
                    "name": "E6",
                    "midi": 88,
                    "time": 354.3656205000094,
                    "velocity": 0.6614173228346457,
                    "duration": 0.09347550000001092
                },
                {
                    "name": "F6",
                    "midi": 89,
                    "time": 354.4590960000094,
                    "velocity": 0.6929133858267716,
                    "duration": 0.09347550000001092
                },
                {
                    "name": "D6",
                    "midi": 86,
                    "time": 354.64604700000945,
                    "velocity": 0.6220472440944882,
                    "duration": 0.09347550000001092
                },
                {
                    "name": "E6",
                    "midi": 88,
                    "time": 354.73952250000946,
                    "velocity": 0.6614173228346457,
                    "duration": 0.09347550000001092
                },
                {
                    "name": "F6",
                    "midi": 89,
                    "time": 354.83299800000947,
                    "velocity": 0.6929133858267716,
                    "duration": 0.09347550000001092
                },
                {
                    "name": "D6",
                    "midi": 86,
                    "time": 355.0199490000095,
                    "velocity": 0.6377952755905512,
                    "duration": 0.09347550000001092
                },
                {
                    "name": "E6",
                    "midi": 88,
                    "time": 355.1134245000095,
                    "velocity": 0.6692913385826772,
                    "duration": 0.09347550000001092
                },
                {
                    "name": "F6",
                    "midi": 89,
                    "time": 355.2069000000095,
                    "velocity": 0.7007874015748031,
                    "duration": 0.09347550000001092
                },
                {
                    "name": "D6",
                    "midi": 86,
                    "time": 355.39385100000953,
                    "velocity": 0.6377952755905512,
                    "duration": 0.09347550000001092
                },
                {
                    "name": "E6",
                    "midi": 88,
                    "time": 355.48732650000954,
                    "velocity": 0.6771653543307087,
                    "duration": 0.09347550000001092
                },
                {
                    "name": "F6",
                    "midi": 89,
                    "time": 355.58080200000956,
                    "velocity": 0.7244094488188977,
                    "duration": 0.09347550000001092
                },
                {
                    "name": "D6",
                    "midi": 86,
                    "time": 355.7677530000096,
                    "velocity": 0.6692913385826772,
                    "duration": 0.09347550000001092
                },
                {
                    "name": "E6",
                    "midi": 88,
                    "time": 355.8612285000096,
                    "velocity": 0.7165354330708661,
                    "duration": 0.09347550000001092
                },
                {
                    "name": "F6",
                    "midi": 89,
                    "time": 355.9547040000096,
                    "velocity": 0.7559055118110236,
                    "duration": 0.10905474999998432
                },
                {
                    "name": "E6",
                    "midi": 88,
                    "time": 356.0481795000096,
                    "velocity": 0.7401574803149606,
                    "duration": 0.10905474999992748
                },
                {
                    "name": "D6",
                    "midi": 86,
                    "time": 356.14165500000956,
                    "velocity": 0.7244094488188977,
                    "duration": 0.10905474999992748
                },
                {
                    "name": "C6",
                    "midi": 84,
                    "time": 356.2351305000095,
                    "velocity": 0.7165354330708661,
                    "duration": 0.10905474999992748
                },
                {
                    "name": "B5",
                    "midi": 83,
                    "time": 356.3286060000095,
                    "velocity": 0.7007874015748031,
                    "duration": 0.10905474999992748
                },
                {
                    "name": "C6",
                    "midi": 84,
                    "time": 356.4220815000094,
                    "velocity": 0.7165354330708661,
                    "duration": 0.10905474999992748
                },
                {
                    "name": "D6",
                    "midi": 86,
                    "time": 356.5155570000094,
                    "velocity": 0.7244094488188977,
                    "duration": 0.10905474999992748
                },
                {
                    "name": "E6",
                    "midi": 88,
                    "time": 356.60903250000933,
                    "velocity": 0.7322834645669292,
                    "duration": 0.10905474999992748
                },
                {
                    "name": "F6",
                    "midi": 89,
                    "time": 356.7025080000093,
                    "velocity": 0.7559055118110236,
                    "duration": 0.10905474999992748
                },
                {
                    "name": "E6",
                    "midi": 88,
                    "time": 356.79598350000924,
                    "velocity": 0.7480314960629921,
                    "duration": 0.10905474999992748
                },
                {
                    "name": "D6",
                    "midi": 86,
                    "time": 356.8894590000092,
                    "velocity": 0.7401574803149606,
                    "duration": 0.10905474999992748
                },
                {
                    "name": "C6",
                    "midi": 84,
                    "time": 356.98293450000915,
                    "velocity": 0.7322834645669292,
                    "duration": 0.10905474999992748
                },
                {
                    "name": "B5",
                    "midi": 83,
                    "time": 357.0764100000091,
                    "velocity": 0.7322834645669292,
                    "duration": 0.10905474999992748
                },
                {
                    "name": "C6",
                    "midi": 84,
                    "time": 357.16988550000906,
                    "velocity": 0.7322834645669292,
                    "duration": 0.10905474999992748
                },
                {
                    "name": "D6",
                    "midi": 86,
                    "time": 357.263361000009,
                    "velocity": 0.7480314960629921,
                    "duration": 0.10905474999992748
                },
                {
                    "name": "E6",
                    "midi": 88,
                    "time": 357.35683650000897,
                    "velocity": 0.7637795275590551,
                    "duration": 0.10905474999992748
                },
                {
                    "name": "F6",
                    "midi": 89,
                    "time": 357.4503120000089,
                    "velocity": 0.7795275590551181,
                    "duration": 0.2025302499999384
                },
                {
                    "name": "E6",
                    "midi": 88,
                    "time": 357.6372630000089,
                    "velocity": 0.7637795275590551,
                    "duration": 0.10905474999992748
                },
                {
                    "name": "D6",
                    "midi": 86,
                    "time": 357.73073850000884,
                    "velocity": 0.7559055118110236,
                    "duration": 0.10905474999992748
                },
                {
                    "name": "C6",
                    "midi": 84,
                    "time": 357.8242140000088,
                    "velocity": 0.7480314960629921,
                    "duration": 0.10905474999992748
                },
                {
                    "name": "B5",
                    "midi": 83,
                    "time": 357.91768950000875,
                    "velocity": 0.7322834645669292,
                    "duration": 0.10905474999992748
                },
                {
                    "name": "A5",
                    "midi": 81,
                    "time": 358.0111650000087,
                    "velocity": 0.7244094488188977,
                    "duration": 0.10905474999992748
                },
                {
                    "name": "G5",
                    "midi": 79,
                    "time": 358.10464050000866,
                    "velocity": 0.7165354330708661,
                    "duration": 0.10905474999992748
                },
                {
                    "name": "F5",
                    "midi": 77,
                    "time": 358.1981160000086,
                    "velocity": 0.7086614173228346,
                    "duration": 0.10905474999992748
                },
                {
                    "name": "E5",
                    "midi": 76,
                    "time": 358.29159150000856,
                    "velocity": 0.6929133858267716,
                    "duration": 0.10905474999992748
                },
                {
                    "name": "D5",
                    "midi": 74,
                    "time": 358.3850670000085,
                    "velocity": 0.6850393700787402,
                    "duration": 0.10905474999992748
                },
                {
                    "name": "C5",
                    "midi": 72,
                    "time": 358.4785425000085,
                    "velocity": 0.6771653543307087,
                    "duration": 0.10905474999992748
                },
                {
                    "name": "B4",
                    "midi": 71,
                    "time": 358.5720180000084,
                    "velocity": 0.6692913385826772,
                    "duration": 0.10905474999992748
                },
                {
                    "name": "A4",
                    "midi": 69,
                    "time": 358.6654935000084,
                    "velocity": 0.6535433070866141,
                    "duration": 0.10905474999992748
                },
                {
                    "name": "G4",
                    "midi": 67,
                    "time": 358.75896900000834,
                    "velocity": 0.6456692913385826,
                    "duration": 0.10905474999992748
                },
                {
                    "name": "F4",
                    "midi": 65,
                    "time": 358.8524445000083,
                    "velocity": 0.6377952755905512,
                    "duration": 0.10905474999992748
                },
                {
                    "name": "E4",
                    "midi": 64,
                    "time": 358.94592000000824,
                    "velocity": 0.6299212598425197,
                    "duration": 0.186950999999965
                },
                {
                    "name": "C3",
                    "midi": 48,
                    "time": 359.1328710000082,
                    "velocity": 0.2204724409448819,
                    "duration": 0.14021324999998797
                },
                {
                    "name": "E3",
                    "midi": 52,
                    "time": 359.1328710000082,
                    "velocity": 0.25984251968503935,
                    "duration": 0.14021324999998797
                },
                {
                    "name": "C3",
                    "midi": 48,
                    "time": 359.3198220000082,
                    "velocity": 0.2204724409448819,
                    "duration": 0.14021324999998797
                },
                {
                    "name": "E3",
                    "midi": 52,
                    "time": 359.3198220000082,
                    "velocity": 0.25984251968503935,
                    "duration": 0.14021324999998797
                },
                {
                    "name": "C3",
                    "midi": 48,
                    "time": 359.50677300000814,
                    "velocity": 0.2204724409448819,
                    "duration": 0.14021324999998797
                },
                {
                    "name": "E3",
                    "midi": 52,
                    "time": 359.50677300000814,
                    "velocity": 0.2677165354330709,
                    "duration": 0.14021324999998797
                },
                {
                    "name": "C3",
                    "midi": 48,
                    "time": 359.6937240000081,
                    "velocity": 0.2204724409448819,
                    "duration": 0.14021324999998797
                },
                {
                    "name": "E3",
                    "midi": 52,
                    "time": 359.6937240000081,
                    "velocity": 0.2677165354330709,
                    "duration": 0.14021324999998797
                },
                {
                    "name": "C3",
                    "midi": 48,
                    "time": 359.88067500000807,
                    "velocity": 0.2204724409448819,
                    "duration": 0.14021324999998797
                },
                {
                    "name": "E3",
                    "midi": 52,
                    "time": 359.88067500000807,
                    "velocity": 0.2677165354330709,
                    "duration": 0.14021324999998797
                },
                {
                    "name": "C3",
                    "midi": 48,
                    "time": 360.06762600000803,
                    "velocity": 0.2283464566929134,
                    "duration": 0.14021324999998797
                },
                {
                    "name": "E3",
                    "midi": 52,
                    "time": 360.06762600000803,
                    "velocity": 0.2755905511811024,
                    "duration": 0.14021324999998797
                },
                {
                    "name": "C3",
                    "midi": 48,
                    "time": 360.254577000008,
                    "velocity": 0.2283464566929134,
                    "duration": 0.14021324999998797
                },
                {
                    "name": "E3",
                    "midi": 52,
                    "time": 360.254577000008,
                    "velocity": 0.2755905511811024,
                    "duration": 0.14021324999998797
                },
                {
                    "name": "C3",
                    "midi": 48,
                    "time": 360.44152800000796,
                    "velocity": 0.23622047244094488,
                    "duration": 0.14021324999998797
                },
                {
                    "name": "E3",
                    "midi": 52,
                    "time": 360.44152800000796,
                    "velocity": 0.28346456692913385,
                    "duration": 0.14021324999998797
                },
                {
                    "name": "C3",
                    "midi": 48,
                    "time": 360.6284790000079,
                    "velocity": 0.23622047244094488,
                    "duration": 0.14021324999998797
                },
                {
                    "name": "E3",
                    "midi": 52,
                    "time": 360.6284790000079,
                    "velocity": 0.28346456692913385,
                    "duration": 0.14021324999998797
                },
                {
                    "name": "C3",
                    "midi": 48,
                    "time": 360.8154300000079,
                    "velocity": 0.2440944881889764,
                    "duration": 0.14021324999998797
                },
                {
                    "name": "E3",
                    "midi": 52,
                    "time": 360.8154300000079,
                    "velocity": 0.29133858267716534,
                    "duration": 0.14021324999998797
                },
                {
                    "name": "C3",
                    "midi": 48,
                    "time": 361.00238100000786,
                    "velocity": 0.25196850393700787,
                    "duration": 0.14021324999998797
                },
                {
                    "name": "E3",
                    "midi": 52,
                    "time": 361.00238100000786,
                    "velocity": 0.2992125984251969,
                    "duration": 0.14021324999998797
                },
                {
                    "name": "C3",
                    "midi": 48,
                    "time": 361.1893320000078,
                    "velocity": 0.25984251968503935,
                    "duration": 0.14021324999998797
                },
                {
                    "name": "E3",
                    "midi": 52,
                    "time": 361.1893320000078,
                    "velocity": 0.30708661417322836,
                    "duration": 0.14021324999998797
                },
                {
                    "name": "C3",
                    "midi": 48,
                    "time": 361.3762830000078,
                    "velocity": 0.2677165354330709,
                    "duration": 0.14021324999998797
                },
                {
                    "name": "E3",
                    "midi": 52,
                    "time": 361.3762830000078,
                    "velocity": 0.31496062992125984,
                    "duration": 0.14021324999998797
                },
                {
                    "name": "D3",
                    "midi": 50,
                    "time": 361.56323400000775,
                    "velocity": 0.2677165354330709,
                    "duration": 0.14021324999998797
                },
                {
                    "name": "F#3",
                    "midi": 54,
                    "time": 361.56323400000775,
                    "velocity": 0.31496062992125984,
                    "duration": 0.14021324999998797
                },
                {
                    "name": "D3",
                    "midi": 50,
                    "time": 361.7501850000077,
                    "velocity": 0.2677165354330709,
                    "duration": 0.14021324999998797
                },
                {
                    "name": "F#3",
                    "midi": 54,
                    "time": 361.7501850000077,
                    "velocity": 0.31496062992125984,
                    "duration": 0.14021324999998797
                },
                {
                    "name": "D3",
                    "midi": 50,
                    "time": 361.9371360000077,
                    "velocity": 0.30708661417322836,
                    "duration": 0.5608530000000087
                },
                {
                    "name": "G3",
                    "midi": 55,
                    "time": 361.9371360000077,
                    "velocity": 0.36220472440944884,
                    "duration": 0.5608530000000087
                },
                {
                    "name": "B3",
                    "midi": 59,
                    "time": 362.4979890000077,
                    "velocity": 0.31496062992125984,
                    "duration": 0.09347550000001092
                },
                {
                    "name": "A3",
                    "midi": 57,
                    "time": 362.5914645000077,
                    "velocity": 0.31496062992125984,
                    "duration": 0.09347550000001092
                },
                {
                    "name": "G3",
                    "midi": 55,
                    "time": 362.6849400000077,
                    "velocity": 0.3543307086614173,
                    "duration": 0.09347550000001092
                },
                {
                    "name": "C#6",
                    "midi": 85,
                    "time": 363.3860062500077,
                    "velocity": 0.36220472440944884,
                    "duration": 0.04673774999997704
                },
                {
                    "name": "D6",
                    "midi": 86,
                    "time": 363.4327440000077,
                    "velocity": 0.44881889763779526,
                    "duration": 0.4673774999999978
                },
                {
                    "name": "C6",
                    "midi": 84,
                    "time": 363.9001215000077,
                    "velocity": 0.3779527559055118,
                    "duration": 0.09347550000001092
                },
                {
                    "name": "B5",
                    "midi": 83,
                    "time": 363.9935970000077,
                    "velocity": 0.3700787401574803,
                    "duration": 0.09347550000001092
                },
                {
                    "name": "A5",
                    "midi": 81,
                    "time": 364.0870725000077,
                    "velocity": 0.3543307086614173,
                    "duration": 0.09347550000001092
                },
                {
                    "name": "G5",
                    "midi": 79,
                    "time": 364.1805480000077,
                    "velocity": 0.3464566929133858,
                    "duration": 0.18695100000002185
                },
                {
                    "name": "A#2",
                    "midi": 46,
                    "time": 364.92835200000775,
                    "velocity": 0.2283464566929134,
                    "duration": 0.14021324999998797
                },
                {
                    "name": "D3",
                    "midi": 50,
                    "time": 364.92835200000775,
                    "velocity": 0.29133858267716534,
                    "duration": 0.14021324999998797
                },
                {
                    "name": "A#2",
                    "midi": 46,
                    "time": 365.1153030000077,
                    "velocity": 0.2283464566929134,
                    "duration": 0.14021324999998797
                },
                {
                    "name": "D3",
                    "midi": 50,
                    "time": 365.1153030000077,
                    "velocity": 0.2755905511811024,
                    "duration": 0.14021324999998797
                },
                {
                    "name": "A#2",
                    "midi": 46,
                    "time": 365.3022540000077,
                    "velocity": 0.2283464566929134,
                    "duration": 0.14021324999998797
                },
                {
                    "name": "D3",
                    "midi": 50,
                    "time": 365.3022540000077,
                    "velocity": 0.2755905511811024,
                    "duration": 0.14021324999998797
                },
                {
                    "name": "A#2",
                    "midi": 46,
                    "time": 365.48920500000764,
                    "velocity": 0.23622047244094488,
                    "duration": 0.14021324999998797
                },
                {
                    "name": "D3",
                    "midi": 50,
                    "time": 365.48920500000764,
                    "velocity": 0.28346456692913385,
                    "duration": 0.14021324999998797
                },
                {
                    "name": "A#2",
                    "midi": 46,
                    "time": 365.6761560000076,
                    "velocity": 0.2440944881889764,
                    "duration": 0.14021324999998797
                },
                {
                    "name": "D3",
                    "midi": 50,
                    "time": 365.6761560000076,
                    "velocity": 0.29133858267716534,
                    "duration": 0.14021324999998797
                },
                {
                    "name": "A#2",
                    "midi": 46,
                    "time": 365.8631070000076,
                    "velocity": 0.2440944881889764,
                    "duration": 0.14021324999998797
                },
                {
                    "name": "D3",
                    "midi": 50,
                    "time": 365.8631070000076,
                    "velocity": 0.29133858267716534,
                    "duration": 0.14021324999998797
                },
                {
                    "name": "A#2",
                    "midi": 46,
                    "time": 366.05005800000754,
                    "velocity": 0.25196850393700787,
                    "duration": 0.14021324999998797
                },
                {
                    "name": "D3",
                    "midi": 50,
                    "time": 366.05005800000754,
                    "velocity": 0.2992125984251969,
                    "duration": 0.14021324999998797
                },
                {
                    "name": "A#2",
                    "midi": 46,
                    "time": 366.2370090000075,
                    "velocity": 0.25984251968503935,
                    "duration": 0.14021324999998797
                },
                {
                    "name": "D3",
                    "midi": 50,
                    "time": 366.2370090000075,
                    "velocity": 0.30708661417322836,
                    "duration": 0.14021324999998797
                },
                {
                    "name": "A#2",
                    "midi": 46,
                    "time": 366.42396000000747,
                    "velocity": 0.25984251968503935,
                    "duration": 0.14021324999998797
                },
                {
                    "name": "D3",
                    "midi": 50,
                    "time": 366.42396000000747,
                    "velocity": 0.30708661417322836,
                    "duration": 0.14021324999998797
                },
                {
                    "name": "A#2",
                    "midi": 46,
                    "time": 366.61091100000743,
                    "velocity": 0.2677165354330709,
                    "duration": 0.14021324999998797
                },
                {
                    "name": "D3",
                    "midi": 50,
                    "time": 366.61091100000743,
                    "velocity": 0.31496062992125984,
                    "duration": 0.14021324999998797
                },
                {
                    "name": "A#2",
                    "midi": 46,
                    "time": 366.7978620000074,
                    "velocity": 0.2677165354330709,
                    "duration": 0.14021324999998797
                },
                {
                    "name": "D3",
                    "midi": 50,
                    "time": 366.7978620000074,
                    "velocity": 0.31496062992125984,
                    "duration": 0.14021324999998797
                },
                {
                    "name": "A#2",
                    "midi": 46,
                    "time": 366.98481300000736,
                    "velocity": 0.2677165354330709,
                    "duration": 0.14021324999998797
                },
                {
                    "name": "D3",
                    "midi": 50,
                    "time": 366.98481300000736,
                    "velocity": 0.31496062992125984,
                    "duration": 0.14021324999998797
                },
                {
                    "name": "A#2",
                    "midi": 46,
                    "time": 367.17176400000733,
                    "velocity": 0.2677165354330709,
                    "duration": 0.14021324999998797
                },
                {
                    "name": "D3",
                    "midi": 50,
                    "time": 367.17176400000733,
                    "velocity": 0.31496062992125984,
                    "duration": 0.14021324999998797
                },
                {
                    "name": "A#2",
                    "midi": 46,
                    "time": 367.3587150000073,
                    "velocity": 0.2677165354330709,
                    "duration": 0.14021324999998797
                },
                {
                    "name": "D3",
                    "midi": 50,
                    "time": 367.3587150000073,
                    "velocity": 0.31496062992125984,
                    "duration": 0.14021324999998797
                },
                {
                    "name": "C3",
                    "midi": 48,
                    "time": 367.54566600000726,
                    "velocity": 0.2677165354330709,
                    "duration": 0.14021324999998797
                },
                {
                    "name": "E3",
                    "midi": 52,
                    "time": 367.54566600000726,
                    "velocity": 0.31496062992125984,
                    "duration": 0.14021324999998797
                },
                {
                    "name": "C3",
                    "midi": 48,
                    "time": 367.7326170000072,
                    "velocity": 0.2677165354330709,
                    "duration": 0.14021324999998797
                },
                {
                    "name": "E3",
                    "midi": 52,
                    "time": 367.7326170000072,
                    "velocity": 0.31496062992125984,
                    "duration": 0.14021324999998797
                },
                {
                    "name": "C3",
                    "midi": 48,
                    "time": 367.9195680000072,
                    "velocity": 0.30708661417322836,
                    "duration": 0.5608530000000087
                },
                {
                    "name": "F3",
                    "midi": 53,
                    "time": 367.9195680000072,
                    "velocity": 0.36220472440944884,
                    "duration": 0.5608530000000087
                },
                {
                    "name": "A3",
                    "midi": 57,
                    "time": 368.4804210000072,
                    "velocity": 0.31496062992125984,
                    "duration": 0.09347550000001092
                },
                {
                    "name": "G3",
                    "midi": 55,
                    "time": 368.5738965000072,
                    "velocity": 0.31496062992125984,
                    "duration": 0.09347550000001092
                },
                {
                    "name": "F3",
                    "midi": 53,
                    "time": 368.6673720000072,
                    "velocity": 0.3543307086614173,
                    "duration": 0.09347550000001092
                },
                {
                    "name": "B5",
                    "midi": 83,
                    "time": 369.3684382500072,
                    "velocity": 0.36220472440944884,
                    "duration": 0.04673774999997704
                },
                {
                    "name": "C6",
                    "midi": 84,
                    "time": 369.4151760000072,
                    "velocity": 0.44881889763779526,
                    "duration": 0.4673774999999978
                },
                {
                    "name": "A#5",
                    "midi": 82,
                    "time": 369.8825535000072,
                    "velocity": 0.3937007874015748,
                    "duration": 0.09347550000001092
                },
                {
                    "name": "G#5",
                    "midi": 80,
                    "time": 369.9760290000072,
                    "velocity": 0.3858267716535433,
                    "duration": 0.09347550000001092
                },
                {
                    "name": "G5",
                    "midi": 79,
                    "time": 370.0695045000072,
                    "velocity": 0.3700787401574803,
                    "duration": 0.09347550000001092
                },
                {
                    "name": "F5",
                    "midi": 77,
                    "time": 370.1629800000072,
                    "velocity": 0.36220472440944884,
                    "duration": 0.18695100000002185
                },
                {
                    "name": "E6",
                    "midi": 88,
                    "time": 370.8640462500072,
                    "velocity": 0.5275590551181102,
                    "duration": 0.04673774999997704
                },
                {
                    "name": "F6",
                    "midi": 89,
                    "time": 370.9107840000072,
                    "velocity": 0.5748031496062992,
                    "duration": 1.1217060000000174
                },
                {
                    "name": "F6",
                    "midi": 89,
                    "time": 372.0324900000072,
                    "velocity": 0.5826771653543307,
                    "duration": 0.09347550000001092
                },
                {
                    "name": "D#6",
                    "midi": 87,
                    "time": 372.1259655000072,
                    "velocity": 0.5748031496062992,
                    "duration": 0.09347550000001092
                },
                {
                    "name": "D6",
                    "midi": 86,
                    "time": 372.21944100000724,
                    "velocity": 0.5590551181102362,
                    "duration": 0.09347550000001092
                },
                {
                    "name": "C6",
                    "midi": 84,
                    "time": 372.31291650000725,
                    "velocity": 0.5511811023622047,
                    "duration": 0.09347550000001092
                },
                {
                    "name": "B5",
                    "midi": 83,
                    "time": 372.40639200000726,
                    "velocity": 0.5669291338582677,
                    "duration": 0.09347550000001092
                },
                {
                    "name": "C6",
                    "midi": 84,
                    "time": 372.49986750000727,
                    "velocity": 0.5590551181102362,
                    "duration": 0.09347550000001092
                },
                {
                    "name": "D6",
                    "midi": 86,
                    "time": 372.5933430000073,
                    "velocity": 0.5669291338582677,
                    "duration": 0.09347550000001092
                },
                {
                    "name": "D#6",
                    "midi": 87,
                    "time": 372.6868185000073,
                    "velocity": 0.5748031496062992,
                    "duration": 0.09347550000001092
                },
                {
                    "name": "F6",
                    "midi": 89,
                    "time": 372.7802940000073,
                    "velocity": 0.5826771653543307,
                    "duration": 0.09347550000001092
                },
                {
                    "name": "D#6",
                    "midi": 87,
                    "time": 372.8737695000073,
                    "velocity": 0.5669291338582677,
                    "duration": 0.09347550000001092
                },
                {
                    "name": "D6",
                    "midi": 86,
                    "time": 372.9672450000073,
                    "velocity": 0.5590551181102362,
                    "duration": 0.09347550000001092
                },
                {
                    "name": "C6",
                    "midi": 84,
                    "time": 373.06072050000733,
                    "velocity": 0.5433070866141733,
                    "duration": 0.09347550000001092
                },
                {
                    "name": "B5",
                    "midi": 83,
                    "time": 373.15419600000735,
                    "velocity": 0.5669291338582677,
                    "duration": 0.09347550000001092
                },
                {
                    "name": "C6",
                    "midi": 84,
                    "time": 373.24767150000736,
                    "velocity": 0.5905511811023622,
                    "duration": 0.09347550000001092
                },
                {
                    "name": "D6",
                    "midi": 86,
                    "time": 373.34114700000737,
                    "velocity": 0.6062992125984252,
                    "duration": 0.09347550000001092
                },
                {
                    "name": "D#6",
                    "midi": 87,
                    "time": 373.4346225000074,
                    "velocity": 0.6299212598425197,
                    "duration": 0.09347550000001092
                },
                {
                    "name": "F6",
                    "midi": 89,
                    "time": 373.5280980000074,
                    "velocity": 0.6299212598425197,
                    "duration": 0.09347550000001092
                },
                {
                    "name": "D#6",
                    "midi": 87,
                    "time": 373.6215735000074,
                    "velocity": 0.6299212598425197,
                    "duration": 0.09347550000001092
                },
                {
                    "name": "D6",
                    "midi": 86,
                    "time": 373.7150490000074,
                    "velocity": 0.6220472440944882,
                    "duration": 0.09347550000001092
                },
                {
                    "name": "C6",
                    "midi": 84,
                    "time": 373.8085245000074,
                    "velocity": 0.6377952755905512,
                    "duration": 0.09347550000001092
                },
                {
                    "name": "B5",
                    "midi": 83,
                    "time": 373.90200000000743,
                    "velocity": 0.6692913385826772,
                    "duration": 0.09347550000001092
                },
                {
                    "name": "C6",
                    "midi": 84,
                    "time": 373.99547550000744,
                    "velocity": 0.7007874015748031,
                    "duration": 0.09347550000001092
                },
                {
                    "name": "D6",
                    "midi": 86,
                    "time": 374.08895100000746,
                    "velocity": 0.7401574803149606,
                    "duration": 0.09347550000001092
                },
                {
                    "name": "D#6",
                    "midi": 87,
                    "time": 374.18242650000747,
                    "velocity": 0.7716535433070866,
                    "duration": 0.09347550000001092
                },
                {
                    "name": "F6",
                    "midi": 89,
                    "time": 374.2759020000075,
                    "velocity": 0.7874015748031497,
                    "duration": 0.09347550000001092
                },
                {
                    "name": "D#6",
                    "midi": 87,
                    "time": 374.3693775000075,
                    "velocity": 0.7716535433070866,
                    "duration": 0.09347550000001092
                },
                {
                    "name": "D6",
                    "midi": 86,
                    "time": 374.4628530000075,
                    "velocity": 0.7559055118110236,
                    "duration": 0.09347550000001092
                },
                {
                    "name": "C6",
                    "midi": 84,
                    "time": 374.5563285000075,
                    "velocity": 0.7401574803149606,
                    "duration": 0.09347550000001092
                },
                {
                    "name": "B5",
                    "midi": 83,
                    "time": 374.6498040000075,
                    "velocity": 0.7322834645669292,
                    "duration": 0.09347550000001092
                },
                {
                    "name": "G#5",
                    "midi": 80,
                    "time": 374.74327950000753,
                    "velocity": 0.7165354330708661,
                    "duration": 0.09347550000001092
                },
                {
                    "name": "G5",
                    "midi": 79,
                    "time": 374.83675500000754,
                    "velocity": 0.7007874015748031,
                    "duration": 0.09347550000001092
                },
                {
                    "name": "F5",
                    "midi": 77,
                    "time": 374.93023050000755,
                    "velocity": 0.6850393700787402,
                    "duration": 0.09347550000001092
                },
                {
                    "name": "D#5",
                    "midi": 75,
                    "time": 375.02370600000756,
                    "velocity": 0.6692913385826772,
                    "duration": 0.09347550000001092
                },
                {
                    "name": "D5",
                    "midi": 74,
                    "time": 375.1171815000076,
                    "velocity": 0.6535433070866141,
                    "duration": 0.09347550000001092
                },
                {
                    "name": "C5",
                    "midi": 72,
                    "time": 375.2106570000076,
                    "velocity": 0.6377952755905512,
                    "duration": 0.09347550000001092
                },
                {
                    "name": "B4",
                    "midi": 71,
                    "time": 375.3041325000076,
                    "velocity": 0.6220472440944882,
                    "duration": 0.09347550000001092
                },
                {
                    "name": "C5",
                    "midi": 72,
                    "time": 375.3976080000076,
                    "velocity": 0.7322834645669292,
                    "duration": 0.14021324999998797
                },
                {
                    "name": "G4",
                    "midi": 67,
                    "time": 375.7715100000076,
                    "velocity": 0.6535433070866141,
                    "duration": 0.14021324999998797
                },
                {
                    "name": "D#4",
                    "midi": 63,
                    "time": 376.1454120000076,
                    "velocity": 0.5669291338582677,
                    "duration": 0.14021324999998797
                },
                {
                    "name": "C4",
                    "midi": 60,
                    "time": 376.51931400000757,
                    "velocity": 0.5039370078740157,
                    "duration": 0.14021324999998797
                },
                {
                    "name": "G#3",
                    "midi": 56,
                    "time": 376.89321600000756,
                    "velocity": 0.47244094488188976,
                    "duration": 1.4956080000000043
                },
                {
                    "name": "C#5",
                    "midi": 73,
                    "time": 378.38882400000756,
                    "velocity": 0.4251968503937008,
                    "duration": 0.14021324999998797
                },
                {
                    "name": "G#4",
                    "midi": 68,
                    "time": 378.76272600000755,
                    "velocity": 0.4094488188976378,
                    "duration": 0.14021324999998797
                },
                {
                    "name": "F4",
                    "midi": 65,
                    "time": 379.13662800000753,
                    "velocity": 0.3779527559055118,
                    "duration": 0.14021324999998797
                },
                {
                    "name": "C#4",
                    "midi": 61,
                    "time": 379.5105300000075,
                    "velocity": 0.33858267716535434,
                    "duration": 0.14021324999998797
                },
                {
                    "name": "A#3",
                    "midi": 58,
                    "time": 379.8844320000075,
                    "velocity": 0.30708661417322836,
                    "duration": 1.4956080000000043
                },
                {
                    "name": "G4",
                    "midi": 67,
                    "time": 381.4735155000075,
                    "velocity": 0.29133858267716534,
                    "duration": 0.09347550000001092
                },
                {
                    "name": "A#4",
                    "midi": 70,
                    "time": 381.56699100000753,
                    "velocity": 0.29133858267716534,
                    "duration": 0.09347550000001092
                },
                {
                    "name": "D#5",
                    "midi": 75,
                    "time": 381.66046650000754,
                    "velocity": 0.29133858267716534,
                    "duration": 0.09347550000001092
                },
                {
                    "name": "G4",
                    "midi": 67,
                    "time": 381.84741750000757,
                    "velocity": 0.29133858267716534,
                    "duration": 0.09347550000001092
                },
                {
                    "name": "A#4",
                    "midi": 70,
                    "time": 381.9408930000076,
                    "velocity": 0.29133858267716534,
                    "duration": 0.09347550000001092
                },
                {
                    "name": "D#5",
                    "midi": 75,
                    "time": 382.0343685000076,
                    "velocity": 0.29133858267716534,
                    "duration": 0.09347550000001092
                },
                {
                    "name": "G4",
                    "midi": 67,
                    "time": 382.2213195000076,
                    "velocity": 0.29133858267716534,
                    "duration": 0.09347550000001092
                },
                {
                    "name": "A#4",
                    "midi": 70,
                    "time": 382.3147950000076,
                    "velocity": 0.29133858267716534,
                    "duration": 0.09347550000001092
                },
                {
                    "name": "D#5",
                    "midi": 75,
                    "time": 382.40827050000763,
                    "velocity": 0.29133858267716534,
                    "duration": 0.09347550000001092
                },
                {
                    "name": "G4",
                    "midi": 67,
                    "time": 382.59522150000765,
                    "velocity": 0.29133858267716534,
                    "duration": 0.09347550000001092
                },
                {
                    "name": "A#4",
                    "midi": 70,
                    "time": 382.68869700000766,
                    "velocity": 0.29133858267716534,
                    "duration": 0.09347550000001092
                },
                {
                    "name": "D#5",
                    "midi": 75,
                    "time": 382.7821725000077,
                    "velocity": 0.29133858267716534,
                    "duration": 0.09347550000001092
                },
                {
                    "name": "F4",
                    "midi": 65,
                    "time": 382.9691235000077,
                    "velocity": 0.29133858267716534,
                    "duration": 0.09347550000001092
                },
                {
                    "name": "G#4",
                    "midi": 68,
                    "time": 383.0625990000077,
                    "velocity": 0.29133858267716534,
                    "duration": 0.09347550000001092
                },
                {
                    "name": "D#5",
                    "midi": 75,
                    "time": 383.1560745000077,
                    "velocity": 0.29133858267716534,
                    "duration": 0.09347550000001092
                },
                {
                    "name": "F4",
                    "midi": 65,
                    "time": 383.34302550000774,
                    "velocity": 0.3228346456692913,
                    "duration": 0.09347550000001092
                },
                {
                    "name": "B4",
                    "midi": 71,
                    "time": 383.43650100000775,
                    "velocity": 0.3228346456692913,
                    "duration": 0.09347550000001092
                },
                {
                    "name": "D5",
                    "midi": 74,
                    "time": 383.52997650000776,
                    "velocity": 0.3228346456692913,
                    "duration": 0.09347550000001092
                },
                {
                    "name": "D#4",
                    "midi": 63,
                    "time": 383.7169275000078,
                    "velocity": 0.3543307086614173,
                    "duration": 0.09347550000001092
                },
                {
                    "name": "F#4",
                    "midi": 66,
                    "time": 383.8104030000078,
                    "velocity": 0.3543307086614173,
                    "duration": 0.09347550000001092
                },
                {
                    "name": "D5",
                    "midi": 74,
                    "time": 383.9038785000078,
                    "velocity": 0.3543307086614173,
                    "duration": 0.09347550000001092
                },
                {
                    "name": "D#4",
                    "midi": 63,
                    "time": 384.0908295000078,
                    "velocity": 0.30708661417322836,
                    "duration": 0.09347550000001092
                },
                {
                    "name": "A4",
                    "midi": 69,
                    "time": 384.18430500000784,
                    "velocity": 0.30708661417322836,
                    "duration": 0.09347550000001092
                },
                {
                    "name": "C5",
                    "midi": 72,
                    "time": 384.27778050000785,
                    "velocity": 0.30708661417322836,
                    "duration": 0.09347550000001092
                },
                {
                    "name": "D4",
                    "midi": 62,
                    "time": 384.4647315000079,
                    "velocity": 0.3464566929133858,
                    "duration": 0.09347550000001092
                },
                {
                    "name": "G4",
                    "midi": 67,
                    "time": 384.5582070000079,
                    "velocity": 0.3464566929133858,
                    "duration": 0.09347550000001092
                },
                {
                    "name": "C5",
                    "midi": 72,
                    "time": 384.6516825000079,
                    "velocity": 0.3464566929133858,
                    "duration": 0.09347550000001092
                },
                {
                    "name": "D4",
                    "midi": 62,
                    "time": 384.8386335000079,
                    "velocity": 0.3779527559055118,
                    "duration": 0.09347550000001092
                },
                {
                    "name": "G4",
                    "midi": 67,
                    "time": 384.9321090000079,
                    "velocity": 0.3779527559055118,
                    "duration": 0.09347550000001092
                },
                {
                    "name": "C5",
                    "midi": 72,
                    "time": 385.02558450000794,
                    "velocity": 0.3779527559055118,
                    "duration": 0.09347550000001092
                },
                {
                    "name": "D4",
                    "midi": 62,
                    "time": 385.21253550000796,
                    "velocity": 0.41732283464566927,
                    "duration": 0.09347550000001092
                },
                {
                    "name": "G4",
                    "midi": 67,
                    "time": 385.30601100000797,
                    "velocity": 0.41732283464566927,
                    "duration": 0.09347550000001092
                },
                {
                    "name": "B4",
                    "midi": 71,
                    "time": 385.399486500008,
                    "velocity": 0.41732283464566927,
                    "duration": 0.09347550000001092
                },
                {
                    "name": "D4",
                    "midi": 62,
                    "time": 385.586437500008,
                    "velocity": 0.4566929133858268,
                    "duration": 0.09347550000001092
                },
                {
                    "name": "F4",
                    "midi": 65,
                    "time": 385.679913000008,
                    "velocity": 0.4645669291338583,
                    "duration": 0.09347550000001092
                },
                {
                    "name": "B4",
                    "midi": 71,
                    "time": 385.773388500008,
                    "velocity": 0.4645669291338583,
                    "duration": 0.09347550000001092
                },
                {
                    "name": "E4",
                    "midi": 64,
                    "time": 385.86686400000804,
                    "velocity": 0.5354330708661418,
                    "duration": 0.18695100000002185
                },
                {
                    "name": "C5",
                    "midi": 72,
                    "time": 385.86686400000804,
                    "velocity": 0.6614173228346457,
                    "duration": 0.18695100000002185
                },
                {
                    "name": "E4",
                    "midi": 64,
                    "time": 386.05381500000806,
                    "velocity": 0.29133858267716534,
                    "duration": 0.09269653749998952
                },
                {
                    "name": "C4",
                    "midi": 60,
                    "time": 386.14729050000807,
                    "velocity": 0.25984251968503935,
                    "duration": 0.09347550000001092
                },
                {
                    "name": "E4",
                    "midi": 64,
                    "time": 386.2407660000081,
                    "velocity": 0.29133858267716534,
                    "duration": 0.09269653749998952
                },
                {
                    "name": "C4",
                    "midi": 60,
                    "time": 386.3342415000081,
                    "velocity": 0.25984251968503935,
                    "duration": 0.09347550000001092
                },
                {
                    "name": "E4",
                    "midi": 64,
                    "time": 386.4277170000081,
                    "velocity": 0.28346456692913385,
                    "duration": 0.09269653749998952
                },
                {
                    "name": "C4",
                    "midi": 60,
                    "time": 386.5211925000081,
                    "velocity": 0.25984251968503935,
                    "duration": 0.09347550000001092
                },
                {
                    "name": "E4",
                    "midi": 64,
                    "time": 386.6146680000081,
                    "velocity": 0.28346456692913385,
                    "duration": 0.09269653749998952
                },
                {
                    "name": "C4",
                    "midi": 60,
                    "time": 386.70814350000813,
                    "velocity": 0.25984251968503935,
                    "duration": 0.09347550000001092
                },
                {
                    "name": "E4",
                    "midi": 64,
                    "time": 386.80161900000815,
                    "velocity": 0.29133858267716534,
                    "duration": 0.09269653749998952
                },
                {
                    "name": "C4",
                    "midi": 60,
                    "time": 386.89509450000816,
                    "velocity": 0.25984251968503935,
                    "duration": 0.09347550000001092
                },
                {
                    "name": "E4",
                    "midi": 64,
                    "time": 386.98857000000817,
                    "velocity": 0.28346456692913385,
                    "duration": 0.09269653749998952
                },
                {
                    "name": "C4",
                    "midi": 60,
                    "time": 387.0820455000082,
                    "velocity": 0.25984251968503935,
                    "duration": 0.09347550000001092
                },
                {
                    "name": "E4",
                    "midi": 64,
                    "time": 387.1755210000082,
                    "velocity": 0.28346456692913385,
                    "duration": 0.09269653749998952
                },
                {
                    "name": "C4",
                    "midi": 60,
                    "time": 387.2689965000082,
                    "velocity": 0.25984251968503935,
                    "duration": 0.09347550000001092
                },
                {
                    "name": "E4",
                    "midi": 64,
                    "time": 387.3624720000082,
                    "velocity": 0.29133858267716534,
                    "duration": 0.09269653749998952
                },
                {
                    "name": "C4",
                    "midi": 60,
                    "time": 387.4559475000082,
                    "velocity": 0.25984251968503935,
                    "duration": 0.09347550000001092
                },
                {
                    "name": "E4",
                    "midi": 64,
                    "time": 387.54942300000823,
                    "velocity": 0.29133858267716534,
                    "duration": 0.09269653749998952
                },
                {
                    "name": "C4",
                    "midi": 60,
                    "time": 387.64289850000824,
                    "velocity": 0.25984251968503935,
                    "duration": 0.09347550000001092
                },
                {
                    "name": "E4",
                    "midi": 64,
                    "time": 387.73637400000825,
                    "velocity": 0.29133858267716534,
                    "duration": 0.09269653749998952
                },
                {
                    "name": "C4",
                    "midi": 60,
                    "time": 387.82984950000827,
                    "velocity": 0.25984251968503935,
                    "duration": 0.09347550000001092
                },
                {
                    "name": "E4",
                    "midi": 64,
                    "time": 387.9233250000083,
                    "velocity": 0.28346456692913385,
                    "duration": 0.09269653749998952
                },
                {
                    "name": "C4",
                    "midi": 60,
                    "time": 388.0168005000083,
                    "velocity": 0.25984251968503935,
                    "duration": 0.09347550000001092
                },
                {
                    "name": "E4",
                    "midi": 64,
                    "time": 388.1102760000083,
                    "velocity": 0.28346456692913385,
                    "duration": 0.09269653749998952
                },
                {
                    "name": "C4",
                    "midi": 60,
                    "time": 388.2037515000083,
                    "velocity": 0.25984251968503935,
                    "duration": 0.09347550000001092
                },
                {
                    "name": "E4",
                    "midi": 64,
                    "time": 388.2972270000083,
                    "velocity": 0.29133858267716534,
                    "duration": 0.09269653749998952
                },
                {
                    "name": "C4",
                    "midi": 60,
                    "time": 388.39070250000833,
                    "velocity": 0.25984251968503935,
                    "duration": 0.09347550000001092
                },
                {
                    "name": "F#4",
                    "midi": 66,
                    "time": 388.48417800000834,
                    "velocity": 0.28346456692913385,
                    "duration": 0.09269653749998952
                },
                {
                    "name": "D4",
                    "midi": 62,
                    "time": 388.57765350000835,
                    "velocity": 0.25984251968503935,
                    "duration": 0.09347550000001092
                },
                {
                    "name": "F#4",
                    "midi": 66,
                    "time": 388.67112900000836,
                    "velocity": 0.28346456692913385,
                    "duration": 0.09269653749998952
                },
                {
                    "name": "D4",
                    "midi": 62,
                    "time": 388.7646045000084,
                    "velocity": 0.25984251968503935,
                    "duration": 0.09347550000001092
                },
                {
                    "name": "G4",
                    "midi": 67,
                    "time": 388.8580800000084,
                    "velocity": 0.36220472440944884,
                    "duration": 0.5608530000000087
                },
                {
                    "name": "B4",
                    "midi": 71,
                    "time": 389.4189330000084,
                    "velocity": 0.31496062992125984,
                    "duration": 0.09347550000001092
                },
                {
                    "name": "A4",
                    "midi": 69,
                    "time": 389.5124085000084,
                    "velocity": 0.31496062992125984,
                    "duration": 0.09347550000001092
                },
                {
                    "name": "G4",
                    "midi": 67,
                    "time": 389.6058840000084,
                    "velocity": 0.3543307086614173,
                    "duration": 0.09347550000001092
                },
                {
                    "name": "C#6",
                    "midi": 85,
                    "time": 390.3069502500084,
                    "velocity": 0.36220472440944884,
                    "duration": 0.04673774999997704
                },
                {
                    "name": "D6",
                    "midi": 86,
                    "time": 390.3536880000084,
                    "velocity": 0.44881889763779526,
                    "duration": 0.4673774999999978
                },
                {
                    "name": "C6",
                    "midi": 84,
                    "time": 390.8210655000084,
                    "velocity": 0.3779527559055118,
                    "duration": 0.09347550000001092
                },
                {
                    "name": "B5",
                    "midi": 83,
                    "time": 390.9145410000084,
                    "velocity": 0.3700787401574803,
                    "duration": 0.09347550000001092
                },
                {
                    "name": "A5",
                    "midi": 81,
                    "time": 391.0080165000084,
                    "velocity": 0.3543307086614173,
                    "duration": 0.09347550000001092
                },
                {
                    "name": "G5",
                    "midi": 79,
                    "time": 391.1014920000084,
                    "velocity": 0.3464566929133858,
                    "duration": 0.18695100000002185
                },
                {
                    "name": "F4",
                    "midi": 65,
                    "time": 391.84929600000845,
                    "velocity": 0.31496062992125984,
                    "duration": 0.09269653749998952
                },
                {
                    "name": "D4",
                    "midi": 62,
                    "time": 391.94277150000846,
                    "velocity": 0.28346456692913385,
                    "duration": 0.09347550000001092
                },
                {
                    "name": "F4",
                    "midi": 65,
                    "time": 392.0362470000085,
                    "velocity": 0.31496062992125984,
                    "duration": 0.09269653749998952
                },
                {
                    "name": "D4",
                    "midi": 62,
                    "time": 392.1297225000085,
                    "velocity": 0.28346456692913385,
                    "duration": 0.09347550000001092
                },
                {
                    "name": "F4",
                    "midi": 65,
                    "time": 392.2231980000085,
                    "velocity": 0.31496062992125984,
                    "duration": 0.09269653749998952
                },
                {
                    "name": "D4",
                    "midi": 62,
                    "time": 392.3166735000085,
                    "velocity": 0.28346456692913385,
                    "duration": 0.09347550000001092
                },
                {
                    "name": "F4",
                    "midi": 65,
                    "time": 392.4101490000085,
                    "velocity": 0.30708661417322836,
                    "duration": 0.09269653749998952
                },
                {
                    "name": "D4",
                    "midi": 62,
                    "time": 392.5036245000085,
                    "velocity": 0.28346456692913385,
                    "duration": 0.09347550000001092
                },
                {
                    "name": "F4",
                    "midi": 65,
                    "time": 392.59710000000854,
                    "velocity": 0.30708661417322836,
                    "duration": 0.09269653749998952
                },
                {
                    "name": "D4",
                    "midi": 62,
                    "time": 392.69057550000855,
                    "velocity": 0.28346456692913385,
                    "duration": 0.09347550000001092
                },
                {
                    "name": "F4",
                    "midi": 65,
                    "time": 392.78405100000856,
                    "velocity": 0.3228346456692913,
                    "duration": 0.09269653749998952
                },
                {
                    "name": "D4",
                    "midi": 62,
                    "time": 392.87752650000857,
                    "velocity": 0.28346456692913385,
                    "duration": 0.09347550000001092
                },
                {
                    "name": "F4",
                    "midi": 65,
                    "time": 392.9710020000086,
                    "velocity": 0.31496062992125984,
                    "duration": 0.09269653749998952
                },
                {
                    "name": "D4",
                    "midi": 62,
                    "time": 393.0644775000086,
                    "velocity": 0.29133858267716534,
                    "duration": 0.09347550000001092
                },
                {
                    "name": "F4",
                    "midi": 65,
                    "time": 393.1579530000086,
                    "velocity": 0.31496062992125984,
                    "duration": 0.09269653749998952
                },
                {
                    "name": "D4",
                    "midi": 62,
                    "time": 393.2514285000086,
                    "velocity": 0.29133858267716534,
                    "duration": 0.09347550000001092
                },
                {
                    "name": "F4",
                    "midi": 65,
                    "time": 393.3449040000086,
                    "velocity": 0.3228346456692913,
                    "duration": 0.09269653749998952
                },
                {
                    "name": "D4",
                    "midi": 62,
                    "time": 393.43837950000864,
                    "velocity": 0.29133858267716534,
                    "duration": 0.09347550000001092
                },
                {
                    "name": "F4",
                    "midi": 65,
                    "time": 393.53185500000865,
                    "velocity": 0.3228346456692913,
                    "duration": 0.09269653749998952
                },
                {
                    "name": "D4",
                    "midi": 62,
                    "time": 393.62533050000866,
                    "velocity": 0.29133858267716534,
                    "duration": 0.09347550000001092
                },
                {
                    "name": "F4",
                    "midi": 65,
                    "time": 393.71880600000867,
                    "velocity": 0.33070866141732286,
                    "duration": 0.09269653749998952
                },
                {
                    "name": "D4",
                    "midi": 62,
                    "time": 393.8122815000087,
                    "velocity": 0.29133858267716534,
                    "duration": 0.09347550000001092
                },
                {
                    "name": "F4",
                    "midi": 65,
                    "time": 393.9057570000087,
                    "velocity": 0.3228346456692913,
                    "duration": 0.09269653749998952
                },
                {
                    "name": "D4",
                    "midi": 62,
                    "time": 393.9992325000087,
                    "velocity": 0.2992125984251969,
                    "duration": 0.09347550000001092
                },
                {
                    "name": "F4",
                    "midi": 65,
                    "time": 394.0927080000087,
                    "velocity": 0.3228346456692913,
                    "duration": 0.09269653749998952
                },
                {
                    "name": "D4",
                    "midi": 62,
                    "time": 394.1861835000087,
                    "velocity": 0.2992125984251969,
                    "duration": 0.09347550000001092
                },
                {
                    "name": "F4",
                    "midi": 65,
                    "time": 394.27965900000873,
                    "velocity": 0.33070866141732286,
                    "duration": 0.09269653749998952
                },
                {
                    "name": "D4",
                    "midi": 62,
                    "time": 394.37313450000875,
                    "velocity": 0.2992125984251969,
                    "duration": 0.09347550000001092
                },
                {
                    "name": "G#4",
                    "midi": 68,
                    "time": 394.46661000000876,
                    "velocity": 0.3228346456692913,
                    "duration": 0.09269653749998952
                },
                {
                    "name": "E4",
                    "midi": 64,
                    "time": 394.56008550000877,
                    "velocity": 0.2992125984251969,
                    "duration": 0.09347550000001092
                },
                {
                    "name": "G#4",
                    "midi": 68,
                    "time": 394.6535610000088,
                    "velocity": 0.33070866141732286,
                    "duration": 0.09269653749998952
                },
                {
                    "name": "E4",
                    "midi": 64,
                    "time": 394.7470365000088,
                    "velocity": 0.2992125984251969,
                    "duration": 0.09347550000001092
                },
                {
                    "name": "A4",
                    "midi": 69,
                    "time": 394.8405120000088,
                    "velocity": 0.4330708661417323,
                    "duration": 0.5608530000000087
                },
                {
                    "name": "C5",
                    "midi": 72,
                    "time": 395.4013650000088,
                    "velocity": 0.3779527559055118,
                    "duration": 0.09347550000001092
                },
                {
                    "name": "B4",
                    "midi": 71,
                    "time": 395.4948405000088,
                    "velocity": 0.3779527559055118,
                    "duration": 0.09347550000001092
                },
                {
                    "name": "A4",
                    "midi": 69,
                    "time": 395.58831600000883,
                    "velocity": 0.41732283464566927,
                    "duration": 0.09347550000001092
                },
                {
                    "name": "D#6",
                    "midi": 87,
                    "time": 396.2893822500088,
                    "velocity": 0.4330708661417323,
                    "duration": 0.04673774999997704
                },
                {
                    "name": "E6",
                    "midi": 88,
                    "time": 396.3361200000088,
                    "velocity": 0.5354330708661418,
                    "duration": 0.4673774999999978
                },
                {
                    "name": "D6",
                    "midi": 86,
                    "time": 396.8034975000088,
                    "velocity": 0.4566929133858268,
                    "duration": 0.09347550000001092
                },
                {
                    "name": "C6",
                    "midi": 84,
                    "time": 396.8969730000088,
                    "velocity": 0.44881889763779526,
                    "duration": 0.09347550000001092
                },
                {
                    "name": "B5",
                    "midi": 83,
                    "time": 396.9904485000088,
                    "velocity": 0.4330708661417323,
                    "duration": 0.09347550000001092
                },
                {
                    "name": "A5",
                    "midi": 81,
                    "time": 397.08392400000884,
                    "velocity": 0.4330708661417323,
                    "duration": 0.18695100000002185
                },
                {
                    "name": "B5",
                    "midi": 83,
                    "time": 397.78499025000883,
                    "velocity": 0.48031496062992124,
                    "duration": 0.04673774999997704
                },
                {
                    "name": "C6",
                    "midi": 84,
                    "time": 397.8317280000088,
                    "velocity": 0.6141732283464567,
                    "duration": 0.4673774999999978
                },
                {
                    "name": "B5",
                    "midi": 83,
                    "time": 398.2991055000088,
                    "velocity": 0.5354330708661418,
                    "duration": 0.09347550000001092
                },
                {
                    "name": "A5",
                    "midi": 81,
                    "time": 398.3925810000088,
                    "velocity": 0.5275590551181102,
                    "duration": 0.09347550000001092
                },
                {
                    "name": "G#5",
                    "midi": 80,
                    "time": 398.48605650000883,
                    "velocity": 0.5039370078740157,
                    "duration": 0.09347550000001092
                },
                {
                    "name": "A5",
                    "midi": 81,
                    "time": 398.57953200000884,
                    "velocity": 0.49606299212598426,
                    "duration": 0.18695100000002185
                },
                {
                    "name": "B5",
                    "midi": 83,
                    "time": 399.28059825000884,
                    "velocity": 0.49606299212598426,
                    "duration": 0.04673774999997704
                },
                {
                    "name": "C6",
                    "midi": 84,
                    "time": 399.3273360000088,
                    "velocity": 0.6377952755905512,
                    "duration": 0.4673774999999978
                },
                {
                    "name": "B5",
                    "midi": 83,
                    "time": 399.7947135000088,
                    "velocity": 0.5669291338582677,
                    "duration": 0.09347550000001092
                },
                {
                    "name": "A5",
                    "midi": 81,
                    "time": 399.8881890000088,
                    "velocity": 0.5590551181102362,
                    "duration": 0.09347550000001092
                },
                {
                    "name": "G#5",
                    "midi": 80,
                    "time": 399.98166450000883,
                    "velocity": 0.5275590551181102,
                    "duration": 0.09347550000001092
                },
                {
                    "name": "A5",
                    "midi": 81,
                    "time": 400.07514000000884,
                    "velocity": 0.5511811023622047,
                    "duration": 0.09347550000001092
                },
                {
                    "name": "G#5",
                    "midi": 80,
                    "time": 400.16861550000885,
                    "velocity": 0.5196850393700787,
                    "duration": 0.09347550000001092
                },
                {
                    "name": "A5",
                    "midi": 81,
                    "time": 400.26209100000887,
                    "velocity": 0.5196850393700787,
                    "duration": 0.09347550000001092
                },
                {
                    "name": "B5",
                    "midi": 83,
                    "time": 400.3555665000089,
                    "velocity": 0.5196850393700787,
                    "duration": 0.09347550000001092
                },
                {
                    "name": "C6",
                    "midi": 84,
                    "time": 400.4490420000089,
                    "velocity": 0.5433070866141733,
                    "duration": 0.09347550000001092
                },
                {
                    "name": "C#6",
                    "midi": 85,
                    "time": 400.5425175000089,
                    "velocity": 0.5511811023622047,
                    "duration": 0.09347550000001092
                },
                {
                    "name": "D6",
                    "midi": 86,
                    "time": 400.6359930000089,
                    "velocity": 0.5590551181102362,
                    "duration": 0.09347550000001092
                },
                {
                    "name": "D#6",
                    "midi": 87,
                    "time": 400.7294685000089,
                    "velocity": 0.5826771653543307,
                    "duration": 0.09347550000001092
                },
                {
                    "name": "E6",
                    "midi": 88,
                    "time": 400.82294400000893,
                    "velocity": 0.5354330708661418,
                    "duration": 0.4829567499999712
                },
                {
                    "name": "D6",
                    "midi": 86,
                    "time": 401.29032150000893,
                    "velocity": 0.4251968503937008,
                    "duration": 0.10905474999992748
                },
                {
                    "name": "C6",
                    "midi": 84,
                    "time": 401.3837970000089,
                    "velocity": 0.41732283464566927,
                    "duration": 0.10905474999992748
                },
                {
                    "name": "B5",
                    "midi": 83,
                    "time": 401.47727250000884,
                    "velocity": 0.4015748031496063,
                    "duration": 0.10905474999992748
                },
                {
                    "name": "C6",
                    "midi": 84,
                    "time": 401.5707480000088,
                    "velocity": 0.41732283464566927,
                    "duration": 0.10905474999992748
                },
                {
                    "name": "B5",
                    "midi": 83,
                    "time": 401.66422350000875,
                    "velocity": 0.4094488188976378,
                    "duration": 0.10905474999992748
                },
                {
                    "name": "A5",
                    "midi": 81,
                    "time": 401.7576990000087,
                    "velocity": 0.4015748031496063,
                    "duration": 0.10905474999992748
                },
                {
                    "name": "G#5",
                    "midi": 80,
                    "time": 401.85117450000865,
                    "velocity": 0.3937007874015748,
                    "duration": 0.10905474999992748
                },
                {
                    "name": "A5",
                    "midi": 81,
                    "time": 401.9446500000086,
                    "velocity": 0.3937007874015748,
                    "duration": 0.10905474999992748
                },
                {
                    "name": "C6",
                    "midi": 84,
                    "time": 402.03812550000856,
                    "velocity": 0.4094488188976378,
                    "duration": 0.10905474999992748
                },
                {
                    "name": "B5",
                    "midi": 83,
                    "time": 402.1316010000085,
                    "velocity": 0.3937007874015748,
                    "duration": 0.10905474999992748
                },
                {
                    "name": "A5",
                    "midi": 81,
                    "time": 402.22507650000847,
                    "velocity": 0.3937007874015748,
                    "duration": 0.10905474999992748
                },
                {
                    "name": "G#5",
                    "midi": 80,
                    "time": 402.3185520000084,
                    "velocity": 0.3937007874015748,
                    "duration": 0.10905474999992748
                },
                {
                    "name": "F#5",
                    "midi": 78,
                    "time": 402.4120275000084,
                    "velocity": 0.3858267716535433,
                    "duration": 0.10905474999992748
                },
                {
                    "name": "E5",
                    "midi": 76,
                    "time": 402.50550300000833,
                    "velocity": 0.3779527559055118,
                    "duration": 0.10905474999992748
                },
                {
                    "name": "D#5",
                    "midi": 75,
                    "time": 402.5989785000083,
                    "velocity": 0.3700787401574803,
                    "duration": 0.10905474999992748
                },
                {
                    "name": "E5",
                    "midi": 76,
                    "time": 402.69245400000824,
                    "velocity": 0.3858267716535433,
                    "duration": 0.10905474999992748
                },
                {
                    "name": "F#5",
                    "midi": 78,
                    "time": 402.7859295000082,
                    "velocity": 0.3858267716535433,
                    "duration": 0.10905474999992748
                },
                {
                    "name": "G5",
                    "midi": 79,
                    "time": 402.87940500000815,
                    "velocity": 0.3858267716535433,
                    "duration": 0.10905474999992748
                },
                {
                    "name": "G#5",
                    "midi": 80,
                    "time": 402.9728805000081,
                    "velocity": 0.3937007874015748,
                    "duration": 0.10905474999992748
                },
                {
                    "name": "A5",
                    "midi": 81,
                    "time": 403.06635600000806,
                    "velocity": 0.3937007874015748,
                    "duration": 0.10905474999992748
                },
                {
                    "name": "G#5",
                    "midi": 80,
                    "time": 403.159831500008,
                    "velocity": 0.3937007874015748,
                    "duration": 0.10905474999992748
                },
                {
                    "name": "A5",
                    "midi": 81,
                    "time": 403.25330700000796,
                    "velocity": 0.4015748031496063,
                    "duration": 0.10905474999992748
                },
                {
                    "name": "B5",
                    "midi": 83,
                    "time": 403.3467825000079,
                    "velocity": 0.4015748031496063,
                    "duration": 0.10905474999992748
                },
                {
                    "name": "C6",
                    "midi": 84,
                    "time": 403.4402580000079,
                    "velocity": 0.3858267716535433,
                    "duration": 0.10905474999992748
                },
                {
                    "name": "C#6",
                    "midi": 85,
                    "time": 403.5337335000078,
                    "velocity": 0.3937007874015748,
                    "duration": 0.10905474999992748
                },
                {
                    "name": "D6",
                    "midi": 86,
                    "time": 403.6272090000078,
                    "velocity": 0.4094488188976378,
                    "duration": 0.10905474999992748
                },
                {
                    "name": "D#6",
                    "midi": 87,
                    "time": 403.72068450000774,
                    "velocity": 0.41732283464566927,
                    "duration": 0.10905474999992748
                },
                {
                    "name": "E6",
                    "midi": 88,
                    "time": 403.8141600000077,
                    "velocity": 0.4330708661417323,
                    "duration": 0.10905474999992748
                },
                {
                    "name": "D#6",
                    "midi": 87,
                    "time": 403.90763550000764,
                    "velocity": 0.41732283464566927,
                    "duration": 0.10905474999992748
                },
                {
                    "name": "E6",
                    "midi": 88,
                    "time": 404.0011110000076,
                    "velocity": 0.41732283464566927,
                    "duration": 0.10905474999992748
                },
                {
                    "name": "D#6",
                    "midi": 87,
                    "time": 404.09458650000755,
                    "velocity": 0.3937007874015748,
                    "duration": 0.10905474999992748
                },
                {
                    "name": "E6",
                    "midi": 88,
                    "time": 404.1880620000075,
                    "velocity": 0.4094488188976378,
                    "duration": 0.10905474999992748
                },
                {
                    "name": "D6",
                    "midi": 86,
                    "time": 404.28153750000746,
                    "velocity": 0.4094488188976378,
                    "duration": 0.10905474999992748
                },
                {
                    "name": "C6",
                    "midi": 84,
                    "time": 404.3750130000074,
                    "velocity": 0.4015748031496063,
                    "duration": 0.10905474999992748
                },
                {
                    "name": "B5",
                    "midi": 83,
                    "time": 404.46848850000737,
                    "velocity": 0.3937007874015748,
                    "duration": 0.10905474999992748
                },
                {
                    "name": "C6",
                    "midi": 84,
                    "time": 404.5619640000073,
                    "velocity": 0.4094488188976378,
                    "duration": 0.10905474999992748
                },
                {
                    "name": "B5",
                    "midi": 83,
                    "time": 404.6554395000073,
                    "velocity": 0.4015748031496063,
                    "duration": 0.10905474999992748
                },
                {
                    "name": "A5",
                    "midi": 81,
                    "time": 404.74891500000723,
                    "velocity": 0.3858267716535433,
                    "duration": 0.10905474999992748
                },
                {
                    "name": "G#5",
                    "midi": 80,
                    "time": 404.8423905000072,
                    "velocity": 0.3937007874015748,
                    "duration": 0.10905474999992748
                },
                {
                    "name": "A5",
                    "midi": 81,
                    "time": 404.93586600000714,
                    "velocity": 0.3937007874015748,
                    "duration": 0.10905474999992748
                },
                {
                    "name": "C6",
                    "midi": 84,
                    "time": 405.0293415000071,
                    "velocity": 0.41732283464566927,
                    "duration": 0.10905474999992748
                },
                {
                    "name": "B5",
                    "midi": 83,
                    "time": 405.12281700000705,
                    "velocity": 0.3937007874015748,
                    "duration": 0.10905474999992748
                },
                {
                    "name": "A5",
                    "midi": 81,
                    "time": 405.216292500007,
                    "velocity": 0.3937007874015748,
                    "duration": 0.10905474999992748
                },
                {
                    "name": "G#5",
                    "midi": 80,
                    "time": 405.30976800000695,
                    "velocity": 0.3937007874015748,
                    "duration": 0.10905474999992748
                },
                {
                    "name": "F#5",
                    "midi": 78,
                    "time": 405.4032435000069,
                    "velocity": 0.3858267716535433,
                    "duration": 0.10905474999992748
                },
                {
                    "name": "E5",
                    "midi": 76,
                    "time": 405.49671900000686,
                    "velocity": 0.3779527559055118,
                    "duration": 0.10905474999992748
                },
                {
                    "name": "D#5",
                    "midi": 75,
                    "time": 405.5901945000068,
                    "velocity": 0.3700787401574803,
                    "duration": 0.10905474999992748
                },
                {
                    "name": "E5",
                    "midi": 76,
                    "time": 405.68367000000677,
                    "velocity": 0.3858267716535433,
                    "duration": 0.10905474999992748
                },
                {
                    "name": "F#5",
                    "midi": 78,
                    "time": 405.7771455000067,
                    "velocity": 0.3937007874015748,
                    "duration": 0.10905474999992748
                },
                {
                    "name": "G5",
                    "midi": 79,
                    "time": 405.8706210000067,
                    "velocity": 0.3937007874015748,
                    "duration": 0.10905474999992748
                },
                {
                    "name": "G#5",
                    "midi": 80,
                    "time": 405.96409650000663,
                    "velocity": 0.4094488188976378,
                    "duration": 0.10905474999992748
                },
                {
                    "name": "A5",
                    "midi": 81,
                    "time": 406.0575720000066,
                    "velocity": 0.4094488188976378,
                    "duration": 0.10905474999992748
                },
                {
                    "name": "G#5",
                    "midi": 80,
                    "time": 406.15104750000654,
                    "velocity": 0.4094488188976378,
                    "duration": 0.10905474999992748
                },
                {
                    "name": "A5",
                    "midi": 81,
                    "time": 406.2445230000065,
                    "velocity": 0.4251968503937008,
                    "duration": 0.10905474999992748
                },
                {
                    "name": "B5",
                    "midi": 83,
                    "time": 406.33799850000645,
                    "velocity": 0.4251968503937008,
                    "duration": 0.10905474999992748
                },
                {
                    "name": "C6",
                    "midi": 84,
                    "time": 406.4314740000064,
                    "velocity": 0.4409448818897638,
                    "duration": 0.10905474999992748
                },
                {
                    "name": "C#6",
                    "midi": 85,
                    "time": 406.52494950000636,
                    "velocity": 0.4566929133858268,
                    "duration": 0.10905474999992748
                },
                {
                    "name": "D6",
                    "midi": 86,
                    "time": 406.6184250000063,
                    "velocity": 0.47244094488188976,
                    "duration": 0.10905474999992748
                },
                {
                    "name": "D#6",
                    "midi": 87,
                    "time": 406.71190050000627,
                    "velocity": 0.4881889763779528,
                    "duration": 0.10905474999992748
                },
                {
                    "name": "E6",
                    "midi": 88,
                    "time": 406.8053760000062,
                    "velocity": 0.5354330708661418,
                    "duration": 0.09347549999995408
                },
                {
                    "name": "B5",
                    "midi": 83,
                    "time": 406.8988515000062,
                    "velocity": 0.47244094488188976,
                    "duration": 0.09347550000001092
                },
                {
                    "name": "G#5",
                    "midi": 80,
                    "time": 406.9923270000062,
                    "velocity": 0.48031496062992124,
                    "duration": 0.09347550000001092
                },
                {
                    "name": "E5",
                    "midi": 76,
                    "time": 407.0858025000062,
                    "velocity": 0.48031496062992124,
                    "duration": 0.09347550000001092
                },
                {
                    "name": "D#5",
                    "midi": 75,
                    "time": 407.1792780000062,
                    "velocity": 0.5905511811023622,
                    "duration": 0.09347550000001092
                },
                {
                    "name": "E5",
                    "midi": 76,
                    "time": 407.2727535000062,
                    "velocity": 0.49606299212598426,
                    "duration": 0.09347550000001092
                },
                {
                    "name": "A5",
                    "midi": 81,
                    "time": 407.36622900000623,
                    "velocity": 0.49606299212598426,
                    "duration": 0.09347550000001092
                },
                {
                    "name": "C6",
                    "midi": 84,
                    "time": 407.45970450000624,
                    "velocity": 0.49606299212598426,
                    "duration": 0.09347550000001092
                },
                {
                    "name": "E6",
                    "midi": 88,
                    "time": 407.55318000000625,
                    "velocity": 0.5826771653543307,
                    "duration": 0.09347550000001092
                },
                {
                    "name": "B5",
                    "midi": 83,
                    "time": 407.64665550000626,
                    "velocity": 0.5118110236220472,
                    "duration": 0.09347550000001092
                },
                {
                    "name": "G#5",
                    "midi": 80,
                    "time": 407.7401310000063,
                    "velocity": 0.5354330708661418,
                    "duration": 0.09347550000001092
                },
                {
                    "name": "E5",
                    "midi": 76,
                    "time": 407.8336065000063,
                    "velocity": 0.5354330708661418,
                    "duration": 0.09347550000001092
                },
                {
                    "name": "D#5",
                    "midi": 75,
                    "time": 407.9270820000063,
                    "velocity": 0.6299212598425197,
                    "duration": 0.09347550000001092
                },
                {
                    "name": "E5",
                    "midi": 76,
                    "time": 408.0205575000063,
                    "velocity": 0.5590551181102362,
                    "duration": 0.09347550000001092
                },
                {
                    "name": "A5",
                    "midi": 81,
                    "time": 408.1140330000063,
                    "velocity": 0.5590551181102362,
                    "duration": 0.09347550000001092
                },
                {
                    "name": "C6",
                    "midi": 84,
                    "time": 408.2075085000063,
                    "velocity": 0.5669291338582677,
                    "duration": 0.09347550000001092
                },
                {
                    "name": "E6",
                    "midi": 88,
                    "time": 408.30098400000634,
                    "velocity": 0.7165354330708661,
                    "duration": 0.09347550000001092
                },
                {
                    "name": "B5",
                    "midi": 83,
                    "time": 408.39445950000635,
                    "velocity": 0.6456692913385826,
                    "duration": 0.09347550000001092
                },
                {
                    "name": "G#5",
                    "midi": 80,
                    "time": 408.48793500000636,
                    "velocity": 0.6456692913385826,
                    "duration": 0.09347550000001092
                },
                {
                    "name": "E5",
                    "midi": 76,
                    "time": 408.58141050000637,
                    "velocity": 0.6456692913385826,
                    "duration": 0.09347550000001092
                },
                {
                    "name": "E6",
                    "midi": 88,
                    "time": 408.6748860000064,
                    "velocity": 0.7165354330708661,
                    "duration": 0.09347550000001092
                },
                {
                    "name": "C6",
                    "midi": 84,
                    "time": 408.7683615000064,
                    "velocity": 0.6456692913385826,
                    "duration": 0.09347550000001092
                },
                {
                    "name": "A5",
                    "midi": 81,
                    "time": 408.8618370000064,
                    "velocity": 0.6456692913385826,
                    "duration": 0.09347550000001092
                },
                {
                    "name": "E5",
                    "midi": 76,
                    "time": 408.9553125000064,
                    "velocity": 0.6456692913385826,
                    "duration": 0.09347550000001092
                },
                {
                    "name": "E6",
                    "midi": 88,
                    "time": 409.0487880000064,
                    "velocity": 0.7165354330708661,
                    "duration": 0.09347550000001092
                },
                {
                    "name": "B5",
                    "midi": 83,
                    "time": 409.14226350000644,
                    "velocity": 0.6456692913385826,
                    "duration": 0.09347550000001092
                },
                {
                    "name": "G#5",
                    "midi": 80,
                    "time": 409.23573900000645,
                    "velocity": 0.6377952755905512,
                    "duration": 0.09347550000001092
                },
                {
                    "name": "E5",
                    "midi": 76,
                    "time": 409.32921450000646,
                    "velocity": 0.6377952755905512,
                    "duration": 0.09347550000001092
                },
                {
                    "name": "E6",
                    "midi": 88,
                    "time": 409.42269000000647,
                    "velocity": 0.7165354330708661,
                    "duration": 0.09347550000001092
                },
                {
                    "name": "C6",
                    "midi": 84,
                    "time": 409.5161655000065,
                    "velocity": 0.6377952755905512,
                    "duration": 0.09347550000001092
                },
                {
                    "name": "A5",
                    "midi": 81,
                    "time": 409.6096410000065,
                    "velocity": 0.6377952755905512,
                    "duration": 0.09347550000001092
                },
                {
                    "name": "E5",
                    "midi": 76,
                    "time": 409.7031165000065,
                    "velocity": 0.6456692913385826,
                    "duration": 0.09347550000001092
                },
                {
                    "name": "E6",
                    "midi": 88,
                    "time": 409.7965920000065,
                    "velocity": 0.7165354330708661,
                    "duration": 0.09347550000001092
                },
                {
                    "name": "B5",
                    "midi": 83,
                    "time": 409.8900675000065,
                    "velocity": 0.6456692913385826,
                    "duration": 0.09347550000001092
                },
                {
                    "name": "G#5",
                    "midi": 80,
                    "time": 409.98354300000653,
                    "velocity": 0.6456692913385826,
                    "duration": 0.09347550000001092
                },
                {
                    "name": "E5",
                    "midi": 76,
                    "time": 410.07701850000655,
                    "velocity": 0.6456692913385826,
                    "duration": 0.09347550000001092
                },
                {
                    "name": "B5",
                    "midi": 83,
                    "time": 410.17049400000656,
                    "velocity": 0.7165354330708661,
                    "duration": 0.09347550000001092
                },
                {
                    "name": "G#5",
                    "midi": 80,
                    "time": 410.26396950000657,
                    "velocity": 0.6456692913385826,
                    "duration": 0.09347550000001092
                },
                {
                    "name": "E5",
                    "midi": 76,
                    "time": 410.3574450000066,
                    "velocity": 0.6456692913385826,
                    "duration": 0.09347550000001092
                },
                {
                    "name": "B4",
                    "midi": 71,
                    "time": 410.4509205000066,
                    "velocity": 0.6456692913385826,
                    "duration": 0.09347550000001092
                },
                {
                    "name": "G#5",
                    "midi": 80,
                    "time": 410.5443960000066,
                    "velocity": 0.7165354330708661,
                    "duration": 0.09347550000001092
                },
                {
                    "name": "E5",
                    "midi": 76,
                    "time": 410.6378715000066,
                    "velocity": 0.6456692913385826,
                    "duration": 0.09347550000001092
                },
                {
                    "name": "B4",
                    "midi": 71,
                    "time": 410.7313470000066,
                    "velocity": 0.6377952755905512,
                    "duration": 0.09347550000001092
                },
                {
                    "name": "G#4",
                    "midi": 68,
                    "time": 410.82482250000663,
                    "velocity": 0.6377952755905512,
                    "duration": 0.09347550000001092
                },
                {
                    "name": "E5",
                    "midi": 76,
                    "time": 410.91829800000664,
                    "velocity": 0.7165354330708661,
                    "duration": 0.09347550000001092
                },
                {
                    "name": "B4",
                    "midi": 71,
                    "time": 411.01177350000665,
                    "velocity": 0.6377952755905512,
                    "duration": 0.09347550000001092
                },
                {
                    "name": "G#4",
                    "midi": 68,
                    "time": 411.10524900000667,
                    "velocity": 0.6377952755905512,
                    "duration": 0.09347550000001092
                },
                {
                    "name": "E4",
                    "midi": 64,
                    "time": 411.1987245000067,
                    "velocity": 0.6456692913385826,
                    "duration": 0.09347550000001092
                },
                {
                    "name": "B4",
                    "midi": 71,
                    "time": 411.2922000000067,
                    "velocity": 0.7165354330708661,
                    "duration": 0.09347550000001092
                },
                {
                    "name": "G#4",
                    "midi": 68,
                    "time": 411.3856755000067,
                    "velocity": 0.6377952755905512,
                    "duration": 0.09347550000001092
                },
                {
                    "name": "E4",
                    "midi": 64,
                    "time": 411.4791510000067,
                    "velocity": 0.6299212598425197,
                    "duration": 0.09347550000001092
                },
                {
                    "name": "B3",
                    "midi": 59,
                    "time": 411.5726265000067,
                    "velocity": 0.6299212598425197,
                    "duration": 0.09347550000001092
                },
                {
                    "name": "G#4",
                    "midi": 68,
                    "time": 411.66610200000673,
                    "velocity": 0.7007874015748031,
                    "duration": 0.09347550000001092
                },
                {
                    "name": "E4",
                    "midi": 64,
                    "time": 411.75957750000674,
                    "velocity": 0.6220472440944882,
                    "duration": 0.09347550000001092
                },
                {
                    "name": "B3",
                    "midi": 59,
                    "time": 411.85305300000675,
                    "velocity": 0.6220472440944882,
                    "duration": 0.09347550000001092
                },
                {
                    "name": "G#3",
                    "midi": 56,
                    "time": 411.94652850000676,
                    "velocity": 0.6141732283464567,
                    "duration": 0.09347550000001092
                },
                {
                    "name": "E4",
                    "midi": 64,
                    "time": 412.0400040000068,
                    "velocity": 0.6850393700787402,
                    "duration": 0.09347550000001092
                },
                {
                    "name": "B3",
                    "midi": 59,
                    "time": 412.1334795000068,
                    "velocity": 0.6141732283464567,
                    "duration": 0.09347550000001092
                },
                {
                    "name": "G#3",
                    "midi": 56,
                    "time": 412.2269550000068,
                    "velocity": 0.6062992125984252,
                    "duration": 0.09347550000001092
                },
                {
                    "name": "E3",
                    "midi": 52,
                    "time": 412.3204305000068,
                    "velocity": 0.6062992125984252,
                    "duration": 0.09347550000001092
                },
                {
                    "name": "E5",
                    "midi": 76,
                    "time": 413.53561200000684,
                    "velocity": 0.5905511811023622,
                    "duration": 0.09347550000001092
                },
                {
                    "name": "E4",
                    "midi": 64,
                    "time": 413.72256300000686,
                    "velocity": 0.5433070866141733,
                    "duration": 0.09347550000001092
                },
                {
                    "name": "F#5",
                    "midi": 78,
                    "time": 413.9095140000069,
                    "velocity": 0.5826771653543307,
                    "duration": 0.09347550000001092
                },
                {
                    "name": "F#4",
                    "midi": 66,
                    "time": 414.0964650000069,
                    "velocity": 0.5118110236220472,
                    "duration": 0.09347550000001092
                },
                {
                    "name": "G#5",
                    "midi": 80,
                    "time": 414.2834160000069,
                    "velocity": 0.5590551181102362,
                    "duration": 0.09347550000001092
                },
                {
                    "name": "G#4",
                    "midi": 68,
                    "time": 414.47036700000695,
                    "velocity": 0.5039370078740157,
                    "duration": 0.09347550000001092
                },
                {
                    "name": "G#5",
                    "midi": 80,
                    "time": 415.03122000000695,
                    "velocity": 0.5275590551181102,
                    "duration": 0.09347550000001092
                },
                {
                    "name": "G#4",
                    "midi": 68,
                    "time": 415.218171000007,
                    "velocity": 0.41732283464566927,
                    "duration": 0.09347550000001092
                },
                {
                    "name": "A5",
                    "midi": 81,
                    "time": 415.405122000007,
                    "velocity": 0.4645669291338583,
                    "duration": 0.09347550000001092
                },
                {
                    "name": "A4",
                    "midi": 69,
                    "time": 415.592073000007,
                    "velocity": 0.3937007874015748,
                    "duration": 0.09347550000001092
                },
                {
                    "name": "B5",
                    "midi": 83,
                    "time": 415.77902400000704,
                    "velocity": 0.4094488188976378,
                    "duration": 0.09347550000001092
                },
                {
                    "name": "B4",
                    "midi": 71,
                    "time": 415.96597500000706,
                    "velocity": 0.3858267716535433,
                    "duration": 0.09347550000001092
                },
                {
                    "name": "C#6",
                    "midi": 85,
                    "time": 416.1529260000071,
                    "velocity": 0.4094488188976378,
                    "duration": 0.09347550000001092
                },
                {
                    "name": "C#5",
                    "midi": 73,
                    "time": 416.3398770000071,
                    "velocity": 0.3858267716535433,
                    "duration": 0.09347550000001092
                },
                {
                    "name": "D6",
                    "midi": 86,
                    "time": 416.52682800000713,
                    "velocity": 0.4094488188976378,
                    "duration": 0.09347550000001092
                },
                {
                    "name": "D5",
                    "midi": 74,
                    "time": 416.71377900000715,
                    "velocity": 0.3779527559055118,
                    "duration": 0.09347550000001092
                },
                {
                    "name": "D6",
                    "midi": 86,
                    "time": 416.9007300000072,
                    "velocity": 0.4094488188976378,
                    "duration": 0.09347550000001092
                },
                {
                    "name": "E5",
                    "midi": 76,
                    "time": 417.0876810000072,
                    "velocity": 0.36220472440944884,
                    "duration": 0.09347550000001092
                },
                {
                    "name": "D6",
                    "midi": 86,
                    "time": 417.2746320000072,
                    "velocity": 0.4015748031496063,
                    "duration": 0.09347550000001092
                },
                {
                    "name": "F#5",
                    "midi": 78,
                    "time": 417.46158300000724,
                    "velocity": 0.36220472440944884,
                    "duration": 0.09347550000001092
                },
                {
                    "name": "D6",
                    "midi": 86,
                    "time": 417.64853400000726,
                    "velocity": 0.4015748031496063,
                    "duration": 0.09347550000001092
                },
                {
                    "name": "G#5",
                    "midi": 80,
                    "time": 417.8354850000073,
                    "velocity": 0.36220472440944884,
                    "duration": 0.09347550000001092
                },
                {
                    "name": "D6",
                    "midi": 86,
                    "time": 418.0224360000073,
                    "velocity": 0.4015748031496063,
                    "duration": 0.09347550000001092
                },
                {
                    "name": "A5",
                    "midi": 81,
                    "time": 418.2093870000073,
                    "velocity": 0.3700787401574803,
                    "duration": 0.09347550000001092
                },
                {
                    "name": "D6",
                    "midi": 86,
                    "time": 418.39633800000735,
                    "velocity": 0.3937007874015748,
                    "duration": 0.09347550000001092
                },
                {
                    "name": "B5",
                    "midi": 83,
                    "time": 418.58328900000737,
                    "velocity": 0.36220472440944884,
                    "duration": 0.09347550000001092
                },
                {
                    "name": "C#5",
                    "midi": 73,
                    "time": 418.7702400000074,
                    "velocity": 0.33070866141732286,
                    "duration": 0.7478039999999737
                },
                {
                    "name": "E5",
                    "midi": 76,
                    "time": 418.7702400000074,
                    "velocity": 0.33070866141732286,
                    "duration": 0.7478039999999737
                },
                {
                    "name": "A5",
                    "midi": 81,
                    "time": 418.7702400000074,
                    "velocity": 0.33070866141732286,
                    "duration": 0.7478039999999737
                },
                {
                    "name": "C#6",
                    "midi": 85,
                    "time": 418.7702400000074,
                    "velocity": 0.4330708661417323,
                    "duration": 0.7478039999999737
                },
                {
                    "name": "B4",
                    "midi": 71,
                    "time": 419.51804400000736,
                    "velocity": 0.31496062992125984,
                    "duration": 0.37390199999998686
                },
                {
                    "name": "E5",
                    "midi": 76,
                    "time": 419.51804400000736,
                    "velocity": 0.31496062992125984,
                    "duration": 0.37390199999998686
                },
                {
                    "name": "G#5",
                    "midi": 80,
                    "time": 419.51804400000736,
                    "velocity": 0.31496062992125984,
                    "duration": 0.37390199999998686
                },
                {
                    "name": "B5",
                    "midi": 83,
                    "time": 419.51804400000736,
                    "velocity": 0.4094488188976378,
                    "duration": 0.37390199999998686
                },
                {
                    "name": "A4",
                    "midi": 69,
                    "time": 419.89194600000735,
                    "velocity": 0.31496062992125984,
                    "duration": 0.37390199999998686
                },
                {
                    "name": "C#5",
                    "midi": 73,
                    "time": 419.89194600000735,
                    "velocity": 0.31496062992125984,
                    "duration": 0.37390199999998686
                },
                {
                    "name": "F#5",
                    "midi": 78,
                    "time": 419.89194600000735,
                    "velocity": 0.31496062992125984,
                    "duration": 0.37390199999998686
                },
                {
                    "name": "A5",
                    "midi": 81,
                    "time": 419.89194600000735,
                    "velocity": 0.4094488188976378,
                    "duration": 0.37390199999998686
                },
                {
                    "name": "G#4",
                    "midi": 68,
                    "time": 420.26584800000734,
                    "velocity": 0.33070866141732286,
                    "duration": 0.7478039999999737
                },
                {
                    "name": "B4",
                    "midi": 71,
                    "time": 420.26584800000734,
                    "velocity": 0.33070866141732286,
                    "duration": 0.7478039999999737
                },
                {
                    "name": "F5",
                    "midi": 77,
                    "time": 420.26584800000734,
                    "velocity": 0.33070866141732286,
                    "duration": 0.7478039999999737
                },
                {
                    "name": "G#5",
                    "midi": 80,
                    "time": 420.26584800000734,
                    "velocity": 0.4330708661417323,
                    "duration": 0.7478039999999737
                },
                {
                    "name": "D5",
                    "midi": 74,
                    "time": 421.0136520000073,
                    "velocity": 0.31496062992125984,
                    "duration": 0.7478039999999737
                },
                {
                    "name": "F#4",
                    "midi": 66,
                    "time": 421.0136520000073,
                    "velocity": 0.31496062992125984,
                    "duration": 0.7478039999999737
                },
                {
                    "name": "A4",
                    "midi": 69,
                    "time": 421.0136520000073,
                    "velocity": 0.31496062992125984,
                    "duration": 0.7478039999999737
                },
                {
                    "name": "F#5",
                    "midi": 78,
                    "time": 421.0136520000073,
                    "velocity": 0.4094488188976378,
                    "duration": 0.7478039999999737
                },
                {
                    "name": "G#4",
                    "midi": 68,
                    "time": 421.7614560000073,
                    "velocity": 0.3858267716535433,
                    "duration": 0.7478039999999737
                },
                {
                    "name": "D5",
                    "midi": 74,
                    "time": 421.7614560000073,
                    "velocity": 0.3858267716535433,
                    "duration": 0.7478039999999737
                },
                {
                    "name": "E5",
                    "midi": 76,
                    "time": 421.7614560000073,
                    "velocity": 0.3858267716535433,
                    "duration": 0.7478039999999737
                },
                {
                    "name": "G#5",
                    "midi": 80,
                    "time": 421.7614560000073,
                    "velocity": 0.49606299212598426,
                    "duration": 0.7478039999999737
                },
                {
                    "name": "A4",
                    "midi": 69,
                    "time": 422.50926000000726,
                    "velocity": 0.3937007874015748,
                    "duration": 0.37390199999998686
                },
                {
                    "name": "E5",
                    "midi": 76,
                    "time": 422.50926000000726,
                    "velocity": 0.3937007874015748,
                    "duration": 0.37390199999998686
                },
                {
                    "name": "A5",
                    "midi": 81,
                    "time": 422.50926000000726,
                    "velocity": 0.5196850393700787,
                    "duration": 0.37390199999998686
                },
                {
                    "name": "B4",
                    "midi": 71,
                    "time": 422.88316200000725,
                    "velocity": 0.4330708661417323,
                    "duration": 0.37390199999998686
                },
                {
                    "name": "F#5",
                    "midi": 78,
                    "time": 422.88316200000725,
                    "velocity": 0.4330708661417323,
                    "duration": 0.37390199999998686
                },
                {
                    "name": "A5",
                    "midi": 81,
                    "time": 422.88316200000725,
                    "velocity": 0.4330708661417323,
                    "duration": 0.37390199999998686
                },
                {
                    "name": "B5",
                    "midi": 83,
                    "time": 422.88316200000725,
                    "velocity": 0.5669291338582677,
                    "duration": 0.37390199999998686
                },
                {
                    "name": "C#5",
                    "midi": 73,
                    "time": 423.25706400000723,
                    "velocity": 0.4645669291338583,
                    "duration": 0.7478039999999737
                },
                {
                    "name": "E5",
                    "midi": 76,
                    "time": 423.25706400000723,
                    "velocity": 0.4645669291338583,
                    "duration": 1.1217059999999606
                },
                {
                    "name": "A5",
                    "midi": 81,
                    "time": 423.25706400000723,
                    "velocity": 0.4645669291338583,
                    "duration": 0.7478039999999737
                },
                {
                    "name": "C#6",
                    "midi": 85,
                    "time": 423.25706400000723,
                    "velocity": 0.6062992125984252,
                    "duration": 0.7478039999999737
                },
                {
                    "name": "B4",
                    "midi": 71,
                    "time": 424.0048680000072,
                    "velocity": 0.25984251968503935,
                    "duration": 0.7478039999999737
                },
                {
                    "name": "G#5",
                    "midi": 80,
                    "time": 424.0048680000072,
                    "velocity": 0.25196850393700787,
                    "duration": 0.7478039999999737
                },
                {
                    "name": "B5",
                    "midi": 83,
                    "time": 424.0048680000072,
                    "velocity": 0.3858267716535433,
                    "duration": 0.7478039999999737
                },
                {
                    "name": "D5",
                    "midi": 74,
                    "time": 424.3787700000072,
                    "velocity": 0.4330708661417323,
                    "duration": 0.37390199999998686
                },
                {
                    "name": "E4",
                    "midi": 64,
                    "time": 424.7526720000072,
                    "velocity": 0.29133858267716534,
                    "duration": 0.7478039999999737
                },
                {
                    "name": "A4",
                    "midi": 69,
                    "time": 424.7526720000072,
                    "velocity": 0.29133858267716534,
                    "duration": 0.7478039999999737
                },
                {
                    "name": "C5",
                    "midi": 72,
                    "time": 424.7526720000072,
                    "velocity": 0.3543307086614173,
                    "duration": 0.7478039999999737
                },
                {
                    "name": "E4",
                    "midi": 64,
                    "time": 425.50047600000715,
                    "velocity": 0.28346456692913385,
                    "duration": 0.37390199999998686
                },
                {
                    "name": "G4",
                    "midi": 67,
                    "time": 425.50047600000715,
                    "velocity": 0.28346456692913385,
                    "duration": 0.37390199999998686
                },
                {
                    "name": "B4",
                    "midi": 71,
                    "time": 425.50047600000715,
                    "velocity": 0.33858267716535434,
                    "duration": 0.37390199999998686
                },
                {
                    "name": "C4",
                    "midi": 60,
                    "time": 425.87437800000714,
                    "velocity": 0.28346456692913385,
                    "duration": 0.37390199999998686
                },
                {
                    "name": "F4",
                    "midi": 65,
                    "time": 425.87437800000714,
                    "velocity": 0.28346456692913385,
                    "duration": 0.37390199999998686
                },
                {
                    "name": "A4",
                    "midi": 69,
                    "time": 425.87437800000714,
                    "velocity": 0.33858267716535434,
                    "duration": 0.37390199999998686
                },
                {
                    "name": "C4",
                    "midi": 60,
                    "time": 426.2482800000071,
                    "velocity": 0.29133858267716534,
                    "duration": 0.7478039999999737
                },
                {
                    "name": "E4",
                    "midi": 64,
                    "time": 426.2482800000071,
                    "velocity": 0.29133858267716534,
                    "duration": 0.7478039999999737
                },
                {
                    "name": "G4",
                    "midi": 67,
                    "time": 426.2482800000071,
                    "velocity": 0.3543307086614173,
                    "duration": 0.7478039999999737
                },
                {
                    "name": "D4",
                    "midi": 62,
                    "time": 426.9960840000071,
                    "velocity": 0.28346456692913385,
                    "duration": 0.7478039999999737
                },
                {
                    "name": "A3",
                    "midi": 57,
                    "time": 426.9960840000071,
                    "velocity": 0.28346456692913385,
                    "duration": 0.7478039999999737
                },
                {
                    "name": "F4",
                    "midi": 65,
                    "time": 426.9960840000071,
                    "velocity": 0.33858267716535434,
                    "duration": 0.7478039999999737
                },
                {
                    "name": "C4",
                    "midi": 60,
                    "time": 427.7438880000071,
                    "velocity": 0.3464566929133858,
                    "duration": 0.37390199999998686
                },
                {
                    "name": "E4",
                    "midi": 64,
                    "time": 427.7438880000071,
                    "velocity": 0.3464566929133858,
                    "duration": 0.37390199999998686
                },
                {
                    "name": "G4",
                    "midi": 67,
                    "time": 427.7438880000071,
                    "velocity": 0.4094488188976378,
                    "duration": 0.7478039999999737
                },
                {
                    "name": "D4",
                    "midi": 62,
                    "time": 428.11779000000706,
                    "velocity": 0.3543307086614173,
                    "duration": 1.1217059999999606
                },
                {
                    "name": "F4",
                    "midi": 65,
                    "time": 428.11779000000706,
                    "velocity": 0.3543307086614173,
                    "duration": 1.1217059999999606
                },
                {
                    "name": "A4",
                    "midi": 69,
                    "time": 428.49169200000705,
                    "velocity": 0.48031496062992124,
                    "duration": 0.37390199999998686
                },
                {
                    "name": "B4",
                    "midi": 71,
                    "time": 428.86559400000704,
                    "velocity": 0.5433070866141733,
                    "duration": 0.37390199999998686
                },
                {
                    "name": "C4",
                    "midi": 60,
                    "time": 429.239496000007,
                    "velocity": 0.3228346456692913,
                    "duration": 0.12463400000001457
                },
                {
                    "name": "E4",
                    "midi": 64,
                    "time": 429.239496000007,
                    "velocity": 0.3228346456692913,
                    "duration": 0.12463400000001457
                },
                {
                    "name": "C5",
                    "midi": 72,
                    "time": 429.239496000007,
                    "velocity": 0.4015748031496063,
                    "duration": 0.09347550000001092
                },
                {
                    "name": "D5",
                    "midi": 74,
                    "time": 429.36413000000704,
                    "velocity": 0.3779527559055118,
                    "duration": 0.09347550000001092
                },
                {
                    "name": "E5",
                    "midi": 76,
                    "time": 429.48876400000705,
                    "velocity": 0.3858267716535433,
                    "duration": 0.09347550000001092
                },
                {
                    "name": "F5",
                    "midi": 77,
                    "time": 429.61339800000707,
                    "velocity": 0.3937007874015748,
                    "duration": 0.09347550000001092
                },
                {
                    "name": "G5",
                    "midi": 79,
                    "time": 429.7380320000071,
                    "velocity": 0.3937007874015748,
                    "duration": 0.09347550000001092
                },
                {
                    "name": "A5",
                    "midi": 81,
                    "time": 429.8626660000071,
                    "velocity": 0.4015748031496063,
                    "duration": 0.09347550000001092
                },
                {
                    "name": "A#5",
                    "midi": 82,
                    "time": 429.9873000000071,
                    "velocity": 0.4094488188976378,
                    "duration": 0.09347550000001092
                },
                {
                    "name": "B5",
                    "midi": 83,
                    "time": 430.1119340000071,
                    "velocity": 0.3779527559055118,
                    "duration": 0.09347550000001092
                },
                {
                    "name": "C6",
                    "midi": 84,
                    "time": 430.23656800000714,
                    "velocity": 0.3858267716535433,
                    "duration": 0.09347550000001092
                },
                {
                    "name": "C#6",
                    "midi": 85,
                    "time": 430.36120200000715,
                    "velocity": 0.4015748031496063,
                    "duration": 0.09347550000001092
                },
                {
                    "name": "D6",
                    "midi": 86,
                    "time": 430.48583600000717,
                    "velocity": 0.41732283464566927,
                    "duration": 0.09347550000001092
                },
                {
                    "name": "D#6",
                    "midi": 87,
                    "time": 430.6104700000072,
                    "velocity": 0.4251968503937008,
                    "duration": 0.09347550000001092
                },
                {
                    "name": "C6",
                    "midi": 84,
                    "time": 430.7351040000072,
                    "velocity": 0.3779527559055118,
                    "duration": 0.7478040000000874
                },
                {
                    "name": "E6",
                    "midi": 88,
                    "time": 430.7351040000072,
                    "velocity": 0.4566929133858268,
                    "duration": 0.12463400000001457
                },
                {
                    "name": "D#6",
                    "midi": 87,
                    "time": 430.8597380000072,
                    "velocity": 0.41732283464566927,
                    "duration": 0.12463400000001457
                },
                {
                    "name": "E6",
                    "midi": 88,
                    "time": 430.9843720000072,
                    "velocity": 0.41732283464566927,
                    "duration": 0.12463400000001457
                },
                {
                    "name": "F6",
                    "midi": 89,
                    "time": 431.10900600000724,
                    "velocity": 0.41732283464566927,
                    "duration": 0.12463400000001457
                },
                {
                    "name": "D#6",
                    "midi": 87,
                    "time": 431.23364000000726,
                    "velocity": 0.41732283464566927,
                    "duration": 0.12463400000001457
                },
                {
                    "name": "E6",
                    "midi": 88,
                    "time": 431.35827400000727,
                    "velocity": 0.41732283464566927,
                    "duration": 0.12463400000001457
                },
                {
                    "name": "B5",
                    "midi": 83,
                    "time": 431.4829080000073,
                    "velocity": 0.47244094488188976,
                    "duration": 0.3739020000000437
                },
                {
                    "name": "E6",
                    "midi": 88,
                    "time": 431.6075420000073,
                    "velocity": 0.4251968503937008,
                    "duration": 0.12463400000001457
                },
                {
                    "name": "D6",
                    "midi": 86,
                    "time": 431.7321760000073,
                    "velocity": 0.4251968503937008,
                    "duration": 0.12463400000001457
                },
                {
                    "name": "E5",
                    "midi": 76,
                    "time": 431.85681000000733,
                    "velocity": 0.47244094488188976,
                    "duration": 0.3739020000000437
                },
                {
                    "name": "D6",
                    "midi": 86,
                    "time": 431.98144400000734,
                    "velocity": 0.41732283464566927,
                    "duration": 0.12463400000001457
                },
                {
                    "name": "C6",
                    "midi": 84,
                    "time": 432.10607800000736,
                    "velocity": 0.41732283464566927,
                    "duration": 0.12463400000001457
                },
                {
                    "name": "G#5",
                    "midi": 80,
                    "time": 432.2307120000074,
                    "velocity": 0.47244094488188976,
                    "duration": 0.7478040000000874
                },
                {
                    "name": "A#5",
                    "midi": 82,
                    "time": 432.3553460000074,
                    "velocity": 0.4251968503937008,
                    "duration": 0.12463400000001457
                },
                {
                    "name": "B5",
                    "midi": 83,
                    "time": 432.4799800000074,
                    "velocity": 0.4251968503937008,
                    "duration": 0.12463400000001457
                },
                {
                    "name": "C6",
                    "midi": 84,
                    "time": 432.6046140000074,
                    "velocity": 0.4251968503937008,
                    "duration": 0.12463400000001457
                },
                {
                    "name": "A#5",
                    "midi": 82,
                    "time": 432.72924800000743,
                    "velocity": 0.4251968503937008,
                    "duration": 0.12463400000001457
                },
                {
                    "name": "B5",
                    "midi": 83,
                    "time": 432.85388200000745,
                    "velocity": 0.4251968503937008,
                    "duration": 0.12463400000001457
                },
                {
                    "name": "F5",
                    "midi": 77,
                    "time": 432.97851600000746,
                    "velocity": 0.47244094488188976,
                    "duration": 0.7478040000000874
                },
                {
                    "name": "G#5",
                    "midi": 80,
                    "time": 433.1031500000075,
                    "velocity": 0.4251968503937008,
                    "duration": 0.12463400000001457
                },
                {
                    "name": "A5",
                    "midi": 81,
                    "time": 433.2277840000075,
                    "velocity": 0.4251968503937008,
                    "duration": 0.12463400000001457
                },
                {
                    "name": "B5",
                    "midi": 83,
                    "time": 433.3524180000075,
                    "velocity": 0.4251968503937008,
                    "duration": 0.12463400000001457
                },
                {
                    "name": "G#5",
                    "midi": 80,
                    "time": 433.4770520000075,
                    "velocity": 0.4251968503937008,
                    "duration": 0.12463400000001457
                },
                {
                    "name": "A5",
                    "midi": 81,
                    "time": 433.60168600000753,
                    "velocity": 0.4251968503937008,
                    "duration": 0.12463400000001457
                },
                {
                    "name": "F5",
                    "midi": 77,
                    "time": 433.72632000000755,
                    "velocity": 0.4881889763779528,
                    "duration": 0.7478040000000874
                },
                {
                    "name": "A#5",
                    "midi": 82,
                    "time": 433.85095400000756,
                    "velocity": 0.4881889763779528,
                    "duration": 0.12463400000001457
                },
                {
                    "name": "B5",
                    "midi": 83,
                    "time": 433.9755880000076,
                    "velocity": 0.44881889763779526,
                    "duration": 0.12463400000001457
                },
                {
                    "name": "C6",
                    "midi": 84,
                    "time": 434.1002220000076,
                    "velocity": 0.44881889763779526,
                    "duration": 0.12463400000001457
                },
                {
                    "name": "A#5",
                    "midi": 82,
                    "time": 434.2248560000076,
                    "velocity": 0.4645669291338583,
                    "duration": 0.12463400000001457
                },
                {
                    "name": "B5",
                    "midi": 83,
                    "time": 434.3494900000076,
                    "velocity": 0.4645669291338583,
                    "duration": 0.12463400000001457
                },
                {
                    "name": "G5",
                    "midi": 79,
                    "time": 434.47412400000763,
                    "velocity": 0.5590551181102362,
                    "duration": 0.3739020000000437
                },
                {
                    "name": "D6",
                    "midi": 86,
                    "time": 434.59875800000765,
                    "velocity": 0.49606299212598426,
                    "duration": 0.12463400000001457
                },
                {
                    "name": "C6",
                    "midi": 84,
                    "time": 434.72339200000766,
                    "velocity": 0.5039370078740157,
                    "duration": 0.12463400000001457
                },
                {
                    "name": "A5",
                    "midi": 81,
                    "time": 434.8480260000077,
                    "velocity": 0.5826771653543307,
                    "duration": 0.3739020000000437
                },
                {
                    "name": "E6",
                    "midi": 88,
                    "time": 434.9726600000077,
                    "velocity": 0.5118110236220472,
                    "duration": 0.12463400000001457
                },
                {
                    "name": "D6",
                    "midi": 86,
                    "time": 435.0972940000077,
                    "velocity": 0.5118110236220472,
                    "duration": 0.12463400000001457
                },
                {
                    "name": "E6",
                    "midi": 88,
                    "time": 435.2219280000077,
                    "velocity": 0.6220472440944882,
                    "duration": 0.12463400000001457
                },
                {
                    "name": "C6",
                    "midi": 84,
                    "time": 435.2219280000077,
                    "velocity": 0.6220472440944882,
                    "duration": 0.7478040000000874
                },
                {
                    "name": "D#6",
                    "midi": 87,
                    "time": 435.34656200000774,
                    "velocity": 0.5669291338582677,
                    "duration": 0.12463400000001457
                },
                {
                    "name": "E6",
                    "midi": 88,
                    "time": 435.47119600000775,
                    "velocity": 0.5669291338582677,
                    "duration": 0.12463400000001457
                },
                {
                    "name": "G6",
                    "midi": 91,
                    "time": 435.59583000000777,
                    "velocity": 0.5354330708661418,
                    "duration": 0.12463400000001457
                },
                {
                    "name": "F6",
                    "midi": 89,
                    "time": 435.7204640000078,
                    "velocity": 0.5669291338582677,
                    "duration": 0.12463400000001457
                },
                {
                    "name": "E6",
                    "midi": 88,
                    "time": 435.8450980000078,
                    "velocity": 0.5433070866141733,
                    "duration": 0.12463400000001457
                },
                {
                    "name": "B5",
                    "midi": 83,
                    "time": 435.9697320000078,
                    "velocity": 0.5275590551181102,
                    "duration": 0.12463400000001457
                },
                {
                    "name": "D6",
                    "midi": 86,
                    "time": 435.9697320000078,
                    "velocity": 0.5275590551181102,
                    "duration": 0.12463400000001457
                },
                {
                    "name": "A5",
                    "midi": 81,
                    "time": 436.0943660000078,
                    "velocity": 0.5039370078740157,
                    "duration": 0.12463400000001457
                },
                {
                    "name": "C6",
                    "midi": 84,
                    "time": 436.0943660000078,
                    "velocity": 0.5039370078740157,
                    "duration": 0.12463400000001457
                },
                {
                    "name": "B5",
                    "midi": 83,
                    "time": 436.21900000000784,
                    "velocity": 0.47244094488188976,
                    "duration": 0.12463400000001457
                },
                {
                    "name": "G5",
                    "midi": 79,
                    "time": 436.21900000000784,
                    "velocity": 0.47244094488188976,
                    "duration": 0.12463400000001457
                },
                {
                    "name": "F5",
                    "midi": 77,
                    "time": 436.34363400000785,
                    "velocity": 0.47244094488188976,
                    "duration": 0.12463400000001457
                },
                {
                    "name": "A5",
                    "midi": 81,
                    "time": 436.34363400000785,
                    "velocity": 0.47244094488188976,
                    "duration": 0.12463400000001457
                },
                {
                    "name": "E5",
                    "midi": 76,
                    "time": 436.46826800000787,
                    "velocity": 0.4409448818897638,
                    "duration": 0.12463400000001457
                },
                {
                    "name": "G5",
                    "midi": 79,
                    "time": 436.46826800000787,
                    "velocity": 0.4409448818897638,
                    "duration": 0.12463400000001457
                },
                {
                    "name": "D5",
                    "midi": 74,
                    "time": 436.5929020000079,
                    "velocity": 0.41732283464566927,
                    "duration": 0.12463400000001457
                },
                {
                    "name": "F5",
                    "midi": 77,
                    "time": 436.5929020000079,
                    "velocity": 0.41732283464566927,
                    "duration": 0.12463400000001457
                },
                {
                    "name": "G4",
                    "midi": 67,
                    "time": 436.7175360000079,
                    "velocity": 0.44881889763779526,
                    "duration": 0.7478040000000874
                },
                {
                    "name": "E5",
                    "midi": 76,
                    "time": 436.7175360000079,
                    "velocity": 0.44881889763779526,
                    "duration": 0.12463400000001457
                },
                {
                    "name": "D#5",
                    "midi": 75,
                    "time": 436.8421700000079,
                    "velocity": 0.3858267716535433,
                    "duration": 0.12463400000001457
                },
                {
                    "name": "E5",
                    "midi": 76,
                    "time": 436.9668040000079,
                    "velocity": 0.3858267716535433,
                    "duration": 0.12463400000001457
                },
                {
                    "name": "F5",
                    "midi": 77,
                    "time": 437.09143800000794,
                    "velocity": 0.3858267716535433,
                    "duration": 0.12463400000001457
                },
                {
                    "name": "D#5",
                    "midi": 75,
                    "time": 437.21607200000796,
                    "velocity": 0.3858267716535433,
                    "duration": 0.12463400000001457
                },
                {
                    "name": "E5",
                    "midi": 76,
                    "time": 437.34070600000797,
                    "velocity": 0.3858267716535433,
                    "duration": 0.12463400000001457
                },
                {
                    "name": "F4",
                    "midi": 65,
                    "time": 437.465340000008,
                    "velocity": 0.4409448818897638,
                    "duration": 0.3739020000000437
                },
                {
                    "name": "E5",
                    "midi": 76,
                    "time": 437.589974000008,
                    "velocity": 0.3937007874015748,
                    "duration": 0.12463400000001457
                },
                {
                    "name": "D5",
                    "midi": 74,
                    "time": 437.714608000008,
                    "velocity": 0.3937007874015748,
                    "duration": 0.12463400000001457
                },
                {
                    "name": "E4",
                    "midi": 64,
                    "time": 437.839242000008,
                    "velocity": 0.4409448818897638,
                    "duration": 0.3739020000000437
                },
                {
                    "name": "D5",
                    "midi": 74,
                    "time": 437.96387600000804,
                    "velocity": 0.3858267716535433,
                    "duration": 0.12463400000001457
                },
                {
                    "name": "C5",
                    "midi": 72,
                    "time": 438.08851000000806,
                    "velocity": 0.3858267716535433,
                    "duration": 0.12463400000001457
                },
                {
                    "name": "A#4",
                    "midi": 70,
                    "time": 438.3377780000081,
                    "velocity": 0.3937007874015748,
                    "duration": 0.12463400000001457
                },
                {
                    "name": "B4",
                    "midi": 71,
                    "time": 438.4624120000081,
                    "velocity": 0.3937007874015748,
                    "duration": 0.12463400000001457
                },
                {
                    "name": "C5",
                    "midi": 72,
                    "time": 438.5870460000081,
                    "velocity": 0.41732283464566927,
                    "duration": 0.12463400000001457
                },
                {
                    "name": "A#4",
                    "midi": 70,
                    "time": 438.71168000000813,
                    "velocity": 0.3937007874015748,
                    "duration": 0.12463400000001457
                },
                {
                    "name": "B4",
                    "midi": 71,
                    "time": 438.83631400000814,
                    "velocity": 0.3937007874015748,
                    "duration": 0.12463400000001457
                },
                {
                    "name": "G#4",
                    "midi": 68,
                    "time": 439.0855820000082,
                    "velocity": 0.3937007874015748,
                    "duration": 0.12463400000001457
                },
                {
                    "name": "A4",
                    "midi": 69,
                    "time": 439.2102160000082,
                    "velocity": 0.3937007874015748,
                    "duration": 0.12463400000001457
                },
                {
                    "name": "B4",
                    "midi": 71,
                    "time": 439.3348500000082,
                    "velocity": 0.41732283464566927,
                    "duration": 0.12463400000001457
                },
                {
                    "name": "G#4",
                    "midi": 68,
                    "time": 439.4594840000082,
                    "velocity": 0.3937007874015748,
                    "duration": 0.12463400000001457
                },
                {
                    "name": "A4",
                    "midi": 69,
                    "time": 439.58411800000823,
                    "velocity": 0.3937007874015748,
                    "duration": 0.12463400000001457
                },
                {
                    "name": "C4",
                    "midi": 60,
                    "time": 439.70875200000825,
                    "velocity": 0.47244094488188976,
                    "duration": 0.12463400000001457
                },
                {
                    "name": "E4",
                    "midi": 64,
                    "time": 439.83338600000826,
                    "velocity": 0.4409448818897638,
                    "duration": 0.12463400000001457
                },
                {
                    "name": "G4",
                    "midi": 67,
                    "time": 439.9580200000083,
                    "velocity": 0.44881889763779526,
                    "duration": 0.12463400000001457
                },
                {
                    "name": "D4",
                    "midi": 62,
                    "time": 440.0826540000083,
                    "velocity": 0.5196850393700787,
                    "duration": 0.12463400000001457
                },
                {
                    "name": "F4",
                    "midi": 65,
                    "time": 440.2072880000083,
                    "velocity": 0.48031496062992124,
                    "duration": 0.12463400000001457
                },
                {
                    "name": "G4",
                    "midi": 67,
                    "time": 440.3319220000083,
                    "velocity": 0.48031496062992124,
                    "duration": 0.12463400000001457
                },
                {
                    "name": "D4",
                    "midi": 62,
                    "time": 440.45655600000833,
                    "velocity": 0.5826771653543307,
                    "duration": 0.12463400000001457
                },
                {
                    "name": "F4",
                    "midi": 65,
                    "time": 440.58119000000835,
                    "velocity": 0.5275590551181102,
                    "duration": 0.12463400000001457
                },
                {
                    "name": "A4",
                    "midi": 69,
                    "time": 440.70582400000836,
                    "velocity": 0.5118110236220472,
                    "duration": 0.12463400000001457
                },
                {
                    "name": "D4",
                    "midi": 62,
                    "time": 440.8304580000084,
                    "velocity": 0.6299212598425197,
                    "duration": 0.12463400000001457
                },
                {
                    "name": "F4",
                    "midi": 65,
                    "time": 440.9550920000084,
                    "velocity": 0.5590551181102362,
                    "duration": 0.12463400000001457
                },
                {
                    "name": "B4",
                    "midi": 71,
                    "time": 441.0797260000084,
                    "velocity": 0.5511811023622047,
                    "duration": 0.12463400000001457
                },
                {
                    "name": "E4",
                    "midi": 64,
                    "time": 441.2043600000084,
                    "velocity": 0.6062992125984252,
                    "duration": 0.12463400000001457
                },
                {
                    "name": "C5",
                    "midi": 72,
                    "time": 441.2043600000084,
                    "velocity": 0.6456692913385826,
                    "duration": 0.12463400000001457
                },
                {
                    "name": "G3",
                    "midi": 55,
                    "time": 441.32899400000844,
                    "velocity": 0.5905511811023622,
                    "duration": 0.12463400000001457
                },
                {
                    "name": "E3",
                    "midi": 52,
                    "time": 441.45362800000845,
                    "velocity": 0.6062992125984252,
                    "duration": 0.12463400000001457
                },
                {
                    "name": "G3",
                    "midi": 55,
                    "time": 441.57826200000846,
                    "velocity": 0.6456692913385826,
                    "duration": 0.12463400000001457
                },
                {
                    "name": "C4",
                    "midi": 60,
                    "time": 441.7028960000085,
                    "velocity": 0.6062992125984252,
                    "duration": 0.12463400000001457
                },
                {
                    "name": "E4",
                    "midi": 64,
                    "time": 441.8275300000085,
                    "velocity": 0.6062992125984252,
                    "duration": 0.12463400000001457
                },
                {
                    "name": "D4",
                    "midi": 62,
                    "time": 441.9521640000085,
                    "velocity": 0.6456692913385826,
                    "duration": 0.12463400000001457
                },
                {
                    "name": "B3",
                    "midi": 59,
                    "time": 442.0767980000085,
                    "velocity": 0.6062992125984252,
                    "duration": 0.12463400000001457
                },
                {
                    "name": "G3",
                    "midi": 55,
                    "time": 442.20143200000854,
                    "velocity": 0.6062992125984252,
                    "duration": 0.12463400000001457
                },
                {
                    "name": "B3",
                    "midi": 59,
                    "time": 442.32606600000855,
                    "velocity": 0.6456692913385826,
                    "duration": 0.12463400000001457
                },
                {
                    "name": "D4",
                    "midi": 62,
                    "time": 442.45070000000857,
                    "velocity": 0.6062992125984252,
                    "duration": 0.12463400000001457
                },
                {
                    "name": "F4",
                    "midi": 65,
                    "time": 442.5753340000086,
                    "velocity": 0.6062992125984252,
                    "duration": 0.12463400000001457
                },
                {
                    "name": "E4",
                    "midi": 64,
                    "time": 442.6999680000086,
                    "velocity": 0.6456692913385826,
                    "duration": 0.12463400000001457
                },
                {
                    "name": "C4",
                    "midi": 60,
                    "time": 442.8246020000086,
                    "velocity": 0.5905511811023622,
                    "duration": 0.12463400000001457
                },
                {
                    "name": "G3",
                    "midi": 55,
                    "time": 442.9492360000086,
                    "velocity": 0.6062992125984252,
                    "duration": 0.12463400000001457
                },
                {
                    "name": "C4",
                    "midi": 60,
                    "time": 443.07387000000864,
                    "velocity": 0.6456692913385826,
                    "duration": 0.12463400000001457
                },
                {
                    "name": "E4",
                    "midi": 64,
                    "time": 443.19850400000865,
                    "velocity": 0.6062992125984252,
                    "duration": 0.12463400000001457
                },
                {
                    "name": "G4",
                    "midi": 67,
                    "time": 443.32313800000867,
                    "velocity": 0.6062992125984252,
                    "duration": 0.12463400000001457
                },
                {
                    "name": "F4",
                    "midi": 65,
                    "time": 443.4477720000087,
                    "velocity": 0.6456692913385826,
                    "duration": 0.12463400000001457
                },
                {
                    "name": "D4",
                    "midi": 62,
                    "time": 443.5724060000087,
                    "velocity": 0.6062992125984252,
                    "duration": 0.12463400000001457
                },
                {
                    "name": "B3",
                    "midi": 59,
                    "time": 443.6970400000087,
                    "velocity": 0.6062992125984252,
                    "duration": 0.12463400000001457
                },
                {
                    "name": "B4",
                    "midi": 71,
                    "time": 443.8216740000087,
                    "velocity": 0.6456692913385826,
                    "duration": 0.12463400000001457
                },
                {
                    "name": "F4",
                    "midi": 65,
                    "time": 443.94630800000874,
                    "velocity": 0.6062992125984252,
                    "duration": 0.12463400000001457
                },
                {
                    "name": "D4",
                    "midi": 62,
                    "time": 444.07094200000876,
                    "velocity": 0.6062992125984252,
                    "duration": 0.12463400000001457
                },
                {
                    "name": "E4",
                    "midi": 64,
                    "time": 444.19557600000877,
                    "velocity": 0.49606299212598426,
                    "duration": 0.37390199999998686
                },
                {
                    "name": "C5",
                    "midi": 72,
                    "time": 444.19557600000877,
                    "velocity": 0.5905511811023622,
                    "duration": 0.37390199999998686
                },
                {
                    "name": "G4",
                    "midi": 67,
                    "time": 444.56947800000876,
                    "velocity": 0.5905511811023622,
                    "duration": 0.7478039999999737
                },
                {
                    "name": "G4",
                    "midi": 67,
                    "time": 445.31728200000873,
                    "velocity": 0.5905511811023622,
                    "duration": 0.7478039999999737
                },
                {
                    "name": "G4",
                    "midi": 67,
                    "time": 446.0650860000087,
                    "velocity": 0.5905511811023622,
                    "duration": 0.7478039999999737
                },
                {
                    "name": "G4",
                    "midi": 67,
                    "time": 446.8128900000087,
                    "velocity": 0.5905511811023622,
                    "duration": 0.37390199999998686
                },
                {
                    "name": "C5",
                    "midi": 72,
                    "time": 447.18679200000867,
                    "velocity": 0.6456692913385826,
                    "duration": 0.12463400000001457
                },
                {
                    "name": "G4",
                    "midi": 67,
                    "time": 447.3114260000087,
                    "velocity": 0.5905511811023622,
                    "duration": 0.12463400000001457
                },
                {
                    "name": "E4",
                    "midi": 64,
                    "time": 447.4360600000087,
                    "velocity": 0.6062992125984252,
                    "duration": 0.12463400000001457
                },
                {
                    "name": "G4",
                    "midi": 67,
                    "time": 447.5606940000087,
                    "velocity": 0.6456692913385826,
                    "duration": 0.12463400000001457
                },
                {
                    "name": "C5",
                    "midi": 72,
                    "time": 447.6853280000087,
                    "velocity": 0.6062992125984252,
                    "duration": 0.12463400000001457
                },
                {
                    "name": "E5",
                    "midi": 76,
                    "time": 447.80996200000874,
                    "velocity": 0.6062992125984252,
                    "duration": 0.12463400000001457
                },
                {
                    "name": "D5",
                    "midi": 74,
                    "time": 447.93459600000875,
                    "velocity": 0.6456692913385826,
                    "duration": 0.12463400000001457
                },
                {
                    "name": "B4",
                    "midi": 71,
                    "time": 448.05923000000877,
                    "velocity": 0.6062992125984252,
                    "duration": 0.12463400000001457
                },
                {
                    "name": "G4",
                    "midi": 67,
                    "time": 448.1838640000088,
                    "velocity": 0.6062992125984252,
                    "duration": 0.12463400000001457
                },
                {
                    "name": "B4",
                    "midi": 71,
                    "time": 448.3084980000088,
                    "velocity": 0.6456692913385826,
                    "duration": 0.12463400000001457
                },
                {
                    "name": "D5",
                    "midi": 74,
                    "time": 448.4331320000088,
                    "velocity": 0.6062992125984252,
                    "duration": 0.12463400000001457
                },
                {
                    "name": "F5",
                    "midi": 77,
                    "time": 448.5577660000088,
                    "velocity": 0.6062992125984252,
                    "duration": 0.12463400000001457
                },
                {
                    "name": "E5",
                    "midi": 76,
                    "time": 448.68240000000884,
                    "velocity": 0.6456692913385826,
                    "duration": 0.12463400000001457
                },
                {
                    "name": "C5",
                    "midi": 72,
                    "time": 448.80703400000885,
                    "velocity": 0.5905511811023622,
                    "duration": 0.12463400000001457
                },
                {
                    "name": "G4",
                    "midi": 67,
                    "time": 448.93166800000887,
                    "velocity": 0.6062992125984252,
                    "duration": 0.12463400000001457
                },
                {
                    "name": "C5",
                    "midi": 72,
                    "time": 449.0563020000089,
                    "velocity": 0.6456692913385826,
                    "duration": 0.12463400000001457
                },
                {
                    "name": "E5",
                    "midi": 76,
                    "time": 449.1809360000089,
                    "velocity": 0.6062992125984252,
                    "duration": 0.12463400000001457
                },
                {
                    "name": "G5",
                    "midi": 79,
                    "time": 449.3055700000089,
                    "velocity": 0.6062992125984252,
                    "duration": 0.12463400000001457
                },
                {
                    "name": "F5",
                    "midi": 77,
                    "time": 449.4302040000089,
                    "velocity": 0.6456692913385826,
                    "duration": 0.12463400000001457
                },
                {
                    "name": "D5",
                    "midi": 74,
                    "time": 449.55483800000894,
                    "velocity": 0.6062992125984252,
                    "duration": 0.12463400000001457
                },
                {
                    "name": "B4",
                    "midi": 71,
                    "time": 449.67947200000896,
                    "velocity": 0.6062992125984252,
                    "duration": 0.12463400000001457
                },
                {
                    "name": "B5",
                    "midi": 83,
                    "time": 449.80410600000897,
                    "velocity": 0.6456692913385826,
                    "duration": 0.12463400000001457
                },
                {
                    "name": "F5",
                    "midi": 77,
                    "time": 449.928740000009,
                    "velocity": 0.6062992125984252,
                    "duration": 0.12463400000001457
                },
                {
                    "name": "D5",
                    "midi": 74,
                    "time": 450.053374000009,
                    "velocity": 0.6062992125984252,
                    "duration": 0.12463400000001457
                },
                {
                    "name": "C6",
                    "midi": 84,
                    "time": 450.178008000009,
                    "velocity": 0.6456692913385826,
                    "duration": 0.18695100000002185
                },
                {
                    "name": "G5",
                    "midi": 79,
                    "time": 450.30264200000903,
                    "velocity": 0.5826771653543307,
                    "duration": 0.12463400000001457
                },
                {
                    "name": "E5",
                    "midi": 76,
                    "time": 450.42727600000904,
                    "velocity": 0.5826771653543307,
                    "duration": 0.12463400000001457
                },
                {
                    "name": "G5",
                    "midi": 79,
                    "time": 450.55191000000906,
                    "velocity": 0.6220472440944882,
                    "duration": 0.18695100000002185
                },
                {
                    "name": "E5",
                    "midi": 76,
                    "time": 450.6765440000091,
                    "velocity": 0.5748031496062992,
                    "duration": 0.12463400000001457
                },
                {
                    "name": "C5",
                    "midi": 72,
                    "time": 450.8011780000091,
                    "velocity": 0.5669291338582677,
                    "duration": 0.12463400000001457
                },
                {
                    "name": "F5",
                    "midi": 77,
                    "time": 450.9258120000091,
                    "velocity": 0.6062992125984252,
                    "duration": 0.18695100000002185
                },
                {
                    "name": "D5",
                    "midi": 74,
                    "time": 451.0504460000091,
                    "velocity": 0.5590551181102362,
                    "duration": 0.12463400000001457
                },
                {
                    "name": "B4",
                    "midi": 71,
                    "time": 451.17508000000913,
                    "velocity": 0.5511811023622047,
                    "duration": 0.12463400000001457
                },
                {
                    "name": "B5",
                    "midi": 83,
                    "time": 451.29971400000915,
                    "velocity": 0.5826771653543307,
                    "duration": 0.18695100000002185
                },
                {
                    "name": "G5",
                    "midi": 79,
                    "time": 451.42434800000916,
                    "velocity": 0.5433070866141733,
                    "duration": 0.12463400000001457
                },
                {
                    "name": "D5",
                    "midi": 74,
                    "time": 451.5489820000092,
                    "velocity": 0.5275590551181102,
                    "duration": 0.12463400000001457
                },
                {
                    "name": "C6",
                    "midi": 84,
                    "time": 451.6736160000092,
                    "velocity": 0.5669291338582677,
                    "duration": 0.18695100000002185
                },
                {
                    "name": "G5",
                    "midi": 79,
                    "time": 451.7982500000092,
                    "velocity": 0.5118110236220472,
                    "duration": 0.12463400000001457
                },
                {
                    "name": "E5",
                    "midi": 76,
                    "time": 451.9228840000092,
                    "velocity": 0.5118110236220472,
                    "duration": 0.12463400000001457
                },
                {
                    "name": "G5",
                    "midi": 79,
                    "time": 452.04751800000923,
                    "velocity": 0.5511811023622047,
                    "duration": 0.18695100000002185
                },
                {
                    "name": "E5",
                    "midi": 76,
                    "time": 452.17215200000925,
                    "velocity": 0.5039370078740157,
                    "duration": 0.12463400000001457
                },
                {
                    "name": "C5",
                    "midi": 72,
                    "time": 452.29678600000926,
                    "velocity": 0.49606299212598426,
                    "duration": 0.12463400000001457
                },
                {
                    "name": "F5",
                    "midi": 77,
                    "time": 452.4214200000093,
                    "velocity": 0.5275590551181102,
                    "duration": 0.18695100000002185
                },
                {
                    "name": "D5",
                    "midi": 74,
                    "time": 452.5460540000093,
                    "velocity": 0.4881889763779528,
                    "duration": 0.12463400000001457
                },
                {
                    "name": "B4",
                    "midi": 71,
                    "time": 452.6706880000093,
                    "velocity": 0.47244094488188976,
                    "duration": 0.12463400000001457
                },
                {
                    "name": "B5",
                    "midi": 83,
                    "time": 452.7953220000093,
                    "velocity": 0.5039370078740157,
                    "duration": 0.18695100000002185
                },
                {
                    "name": "G5",
                    "midi": 79,
                    "time": 452.91995600000934,
                    "velocity": 0.4645669291338583,
                    "duration": 0.12463400000001457
                },
                {
                    "name": "D5",
                    "midi": 74,
                    "time": 453.04459000000935,
                    "velocity": 0.4566929133858268,
                    "duration": 0.12463400000001457
                },
                {
                    "name": "C6",
                    "midi": 84,
                    "time": 453.16922400000936,
                    "velocity": 0.5039370078740157,
                    "duration": 0.09347550000001092
                },
                {
                    "name": "G5",
                    "midi": 79,
                    "time": 453.2626995000094,
                    "velocity": 0.4566929133858268,
                    "duration": 0.09347550000001092
                },
                {
                    "name": "E5",
                    "midi": 76,
                    "time": 453.3561750000094,
                    "velocity": 0.4566929133858268,
                    "duration": 0.09347550000001092
                },
                {
                    "name": "C5",
                    "midi": 72,
                    "time": 453.4496505000094,
                    "velocity": 0.4645669291338583,
                    "duration": 0.09347550000001092
                },
                {
                    "name": "F5",
                    "midi": 77,
                    "time": 453.5431260000094,
                    "velocity": 0.5118110236220472,
                    "duration": 0.09347550000001092
                },
                {
                    "name": "D5",
                    "midi": 74,
                    "time": 453.6366015000094,
                    "velocity": 0.4645669291338583,
                    "duration": 0.09347550000001092
                },
                {
                    "name": "B5",
                    "midi": 83,
                    "time": 453.73007700000943,
                    "velocity": 0.4881889763779528,
                    "duration": 0.09347550000001092
                },
                {
                    "name": "G5",
                    "midi": 79,
                    "time": 453.82355250000944,
                    "velocity": 0.49606299212598426,
                    "duration": 0.09347550000001092
                },
                {
                    "name": "C6",
                    "midi": 84,
                    "time": 453.91702800000945,
                    "velocity": 0.5433070866141733,
                    "duration": 0.09347550000001092
                },
                {
                    "name": "G5",
                    "midi": 79,
                    "time": 454.01050350000946,
                    "velocity": 0.49606299212598426,
                    "duration": 0.09347550000001092
                },
                {
                    "name": "E5",
                    "midi": 76,
                    "time": 454.1039790000095,
                    "velocity": 0.49606299212598426,
                    "duration": 0.09347550000001092
                },
                {
                    "name": "C5",
                    "midi": 72,
                    "time": 454.1974545000095,
                    "velocity": 0.5039370078740157,
                    "duration": 0.09347550000001092
                },
                {
                    "name": "F5",
                    "midi": 77,
                    "time": 454.2909300000095,
                    "velocity": 0.5590551181102362,
                    "duration": 0.09347550000001092
                },
                {
                    "name": "D5",
                    "midi": 74,
                    "time": 454.3844055000095,
                    "velocity": 0.5196850393700787,
                    "duration": 0.09347550000001092
                },
                {
                    "name": "B5",
                    "midi": 83,
                    "time": 454.4778810000095,
                    "velocity": 0.5275590551181102,
                    "duration": 0.09347550000001092
                },
                {
                    "name": "G5",
                    "midi": 79,
                    "time": 454.57135650000953,
                    "velocity": 0.5275590551181102,
                    "duration": 0.09347550000001092
                },
                {
                    "name": "C6",
                    "midi": 84,
                    "time": 454.66483200000954,
                    "velocity": 0.5826771653543307,
                    "duration": 0.09347550000001092
                },
                {
                    "name": "G5",
                    "midi": 79,
                    "time": 454.75830750000955,
                    "velocity": 0.5275590551181102,
                    "duration": 0.09347550000001092
                },
                {
                    "name": "B5",
                    "midi": 83,
                    "time": 454.85178300000956,
                    "velocity": 0.5433070866141733,
                    "duration": 0.09347550000001092
                },
                {
                    "name": "G5",
                    "midi": 79,
                    "time": 454.9452585000096,
                    "velocity": 0.5433070866141733,
                    "duration": 0.09347550000001092
                },
                {
                    "name": "C6",
                    "midi": 84,
                    "time": 455.0387340000096,
                    "velocity": 0.6062992125984252,
                    "duration": 0.09347550000001092
                },
                {
                    "name": "G5",
                    "midi": 79,
                    "time": 455.1322095000096,
                    "velocity": 0.6062992125984252,
                    "duration": 0.09347550000001092
                },
                {
                    "name": "B5",
                    "midi": 83,
                    "time": 455.2256850000096,
                    "velocity": 0.5669291338582677,
                    "duration": 0.09347550000001092
                },
                {
                    "name": "G5",
                    "midi": 79,
                    "time": 455.3191605000096,
                    "velocity": 0.5748031496062992,
                    "duration": 0.09347550000001092
                },
                {
                    "name": "C6",
                    "midi": 84,
                    "time": 455.4126360000096,
                    "velocity": 0.6299212598425197,
                    "duration": 0.09347550000001092
                },
                {
                    "name": "G5",
                    "midi": 79,
                    "time": 455.50611150000964,
                    "velocity": 0.5748031496062992,
                    "duration": 0.09347550000001092
                },
                {
                    "name": "B5",
                    "midi": 83,
                    "time": 455.59958700000965,
                    "velocity": 0.5826771653543307,
                    "duration": 0.09347550000001092
                },
                {
                    "name": "G5",
                    "midi": 79,
                    "time": 455.69306250000966,
                    "velocity": 0.5826771653543307,
                    "duration": 0.09347550000001092
                },
                {
                    "name": "C6",
                    "midi": 84,
                    "time": 455.78653800000967,
                    "velocity": 0.6456692913385826,
                    "duration": 0.09347550000001092
                },
                {
                    "name": "G5",
                    "midi": 79,
                    "time": 455.8800135000097,
                    "velocity": 0.6692913385826772,
                    "duration": 0.09347550000001092
                },
                {
                    "name": "B5",
                    "midi": 83,
                    "time": 455.9734890000097,
                    "velocity": 0.6141732283464567,
                    "duration": 0.09347550000001092
                },
                {
                    "name": "G5",
                    "midi": 79,
                    "time": 456.0669645000097,
                    "velocity": 0.6220472440944882,
                    "duration": 0.09347550000001092
                },
                {
                    "name": "C6",
                    "midi": 84,
                    "time": 456.1604400000097,
                    "velocity": 0.7007874015748031,
                    "duration": 0.09347550000001092
                },
                {
                    "name": "G5",
                    "midi": 79,
                    "time": 456.2539155000097,
                    "velocity": 0.6377952755905512,
                    "duration": 0.09347550000001092
                },
                {
                    "name": "A#5",
                    "midi": 82,
                    "time": 456.34739100000974,
                    "velocity": 0.6377952755905512,
                    "duration": 0.09347550000001092
                },
                {
                    "name": "G5",
                    "midi": 79,
                    "time": 456.44086650000975,
                    "velocity": 0.6377952755905512,
                    "duration": 0.09347550000001092
                },
                {
                    "name": "A#5",
                    "midi": 82,
                    "time": 456.53434200000976,
                    "velocity": 0.7007874015748031,
                    "duration": 0.09347550000001092
                },
                {
                    "name": "G5",
                    "midi": 79,
                    "time": 456.62781750000977,
                    "velocity": 0.6535433070866141,
                    "duration": 0.09347550000001092
                },
                {
                    "name": "A#5",
                    "midi": 82,
                    "time": 456.7212930000098,
                    "velocity": 0.6456692913385826,
                    "duration": 0.09347550000001092
                },
                {
                    "name": "G5",
                    "midi": 79,
                    "time": 456.8147685000098,
                    "velocity": 0.6456692913385826,
                    "duration": 0.09347550000001092
                },
                {
                    "name": "A#5",
                    "midi": 82,
                    "time": 456.9082440000098,
                    "velocity": 0.7007874015748031,
                    "duration": 0.09347550000001092
                },
                {
                    "name": "G5",
                    "midi": 79,
                    "time": 457.0017195000098,
                    "velocity": 0.6377952755905512,
                    "duration": 0.09347550000001092
                },
                {
                    "name": "A#5",
                    "midi": 82,
                    "time": 457.0951950000098,
                    "velocity": 0.6377952755905512,
                    "duration": 0.09347550000001092
                },
                {
                    "name": "G5",
                    "midi": 79,
                    "time": 457.18867050000983,
                    "velocity": 0.6377952755905512,
                    "duration": 0.09347550000001092
                },
                {
                    "name": "A#5",
                    "midi": 82,
                    "time": 457.28214600000985,
                    "velocity": 0.7007874015748031,
                    "duration": 0.09347550000001092
                },
                {
                    "name": "G5",
                    "midi": 79,
                    "time": 457.37562150000986,
                    "velocity": 0.6535433070866141,
                    "duration": 0.09347550000001092
                },
                {
                    "name": "A#5",
                    "midi": 82,
                    "time": 457.46909700000987,
                    "velocity": 0.6456692913385826,
                    "duration": 0.09347550000001092
                },
                {
                    "name": "G5",
                    "midi": 79,
                    "time": 457.5625725000099,
                    "velocity": 0.6456692913385826,
                    "duration": 0.09347550000001092
                },
                {
                    "name": "A#5",
                    "midi": 82,
                    "time": 457.6560480000099,
                    "velocity": 0.7007874015748031,
                    "duration": 0.18695100000002185
                },
                {
                    "name": "A5",
                    "midi": 81,
                    "time": 457.8429990000099,
                    "velocity": 0.6377952755905512,
                    "duration": 0.09347550000001092
                },
                {
                    "name": "G5",
                    "midi": 79,
                    "time": 457.9364745000099,
                    "velocity": 0.6377952755905512,
                    "duration": 0.09347550000001092
                },
                {
                    "name": "F5",
                    "midi": 77,
                    "time": 458.02995000000993,
                    "velocity": 0.6614173228346457,
                    "duration": 0.09347550000001092
                },
                {
                    "name": "E5",
                    "midi": 76,
                    "time": 458.12342550000994,
                    "velocity": 0.6141732283464567,
                    "duration": 0.09347550000001092
                },
                {
                    "name": "D5",
                    "midi": 74,
                    "time": 458.21690100000995,
                    "velocity": 0.6141732283464567,
                    "duration": 0.09347550000001092
                },
                {
                    "name": "C5",
                    "midi": 72,
                    "time": 458.31037650000997,
                    "velocity": 0.6299212598425197,
                    "duration": 0.09347550000001092
                },
                {
                    "name": "A#4",
                    "midi": 70,
                    "time": 458.40385200001,
                    "velocity": 0.6614173228346457,
                    "duration": 0.09347550000001092
                },
                {
                    "name": "A4",
                    "midi": 69,
                    "time": 458.49732750001,
                    "velocity": 0.6299212598425197,
                    "duration": 0.09347550000001092
                },
                {
                    "name": "G4",
                    "midi": 67,
                    "time": 458.59080300001,
                    "velocity": 0.6299212598425197,
                    "duration": 0.09347550000001092
                },
                {
                    "name": "F4",
                    "midi": 65,
                    "time": 458.68427850001,
                    "velocity": 0.6377952755905512,
                    "duration": 0.09347550000001092
                },
                {
                    "name": "E4",
                    "midi": 64,
                    "time": 458.77775400001,
                    "velocity": 0.6771653543307087,
                    "duration": 0.09347550000001092
                },
                {
                    "name": "D4",
                    "midi": 62,
                    "time": 458.87122950001003,
                    "velocity": 0.6614173228346457,
                    "duration": 0.09347550000001092
                },
                {
                    "name": "C4",
                    "midi": 60,
                    "time": 458.96470500001004,
                    "velocity": 0.6692913385826772,
                    "duration": 0.09347550000001092
                },
                {
                    "name": "A#3",
                    "midi": 58,
                    "time": 459.05818050001005,
                    "velocity": 0.6692913385826772,
                    "duration": 0.09347550000001092
                },
                {
                    "name": "A3",
                    "midi": 57,
                    "time": 459.15165600001006,
                    "velocity": 0.7322834645669292,
                    "duration": 0.09347550000001092
                },
                {
                    "name": "B3",
                    "midi": 59,
                    "time": 459.2451315000101,
                    "velocity": 0.6377952755905512,
                    "duration": 0.09347550000001092
                },
                {
                    "name": "C4",
                    "midi": 60,
                    "time": 459.3386070000101,
                    "velocity": 0.6377952755905512,
                    "duration": 0.09347550000001092
                },
                {
                    "name": "B3",
                    "midi": 59,
                    "time": 459.4320825000101,
                    "velocity": 0.6377952755905512,
                    "duration": 0.09347550000001092
                },
                {
                    "name": "C4",
                    "midi": 60,
                    "time": 459.5255580000101,
                    "velocity": 0.7244094488188977,
                    "duration": 0.09347550000001092
                },
                {
                    "name": "E4",
                    "midi": 64,
                    "time": 459.6190335000101,
                    "velocity": 0.6377952755905512,
                    "duration": 0.09347550000001092
                },
                {
                    "name": "F4",
                    "midi": 65,
                    "time": 459.71250900001013,
                    "velocity": 0.6377952755905512,
                    "duration": 0.09347550000001092
                },
                {
                    "name": "E4",
                    "midi": 64,
                    "time": 459.80598450001014,
                    "velocity": 0.6456692913385826,
                    "duration": 0.09347550000001092
                },
                {
                    "name": "F4",
                    "midi": 65,
                    "time": 459.89946000001015,
                    "velocity": 0.7322834645669292,
                    "duration": 0.09347550000001092
                },
                {
                    "name": "G#4",
                    "midi": 68,
                    "time": 459.99293550001016,
                    "velocity": 0.6299212598425197,
                    "duration": 0.09347550000001092
                },
                {
                    "name": "A4",
                    "midi": 69,
                    "time": 460.0864110000102,
                    "velocity": 0.6299212598425197,
                    "duration": 0.09347550000001092
                },
                {
                    "name": "G#4",
                    "midi": 68,
                    "time": 460.1798865000102,
                    "velocity": 0.6377952755905512,
                    "duration": 0.09347550000001092
                },
                {
                    "name": "A4",
                    "midi": 69,
                    "time": 460.2733620000102,
                    "velocity": 0.7322834645669292,
                    "duration": 0.09347550000001092
                },
                {
                    "name": "B4",
                    "midi": 71,
                    "time": 460.3668375000102,
                    "velocity": 0.6535433070866141,
                    "duration": 0.09347550000001092
                },
                {
                    "name": "C5",
                    "midi": 72,
                    "time": 460.4603130000102,
                    "velocity": 0.6535433070866141,
                    "duration": 0.09347550000001092
                },
                {
                    "name": "B4",
                    "midi": 71,
                    "time": 460.5537885000102,
                    "velocity": 0.6535433070866141,
                    "duration": 0.09347550000001092
                },
                {
                    "name": "C5",
                    "midi": 72,
                    "time": 460.64726400001024,
                    "velocity": 0.7480314960629921,
                    "duration": 0.09347550000001092
                },
                {
                    "name": "E5",
                    "midi": 76,
                    "time": 460.74073950001025,
                    "velocity": 0.6614173228346457,
                    "duration": 0.09347550000001092
                },
                {
                    "name": "F5",
                    "midi": 77,
                    "time": 460.83421500001026,
                    "velocity": 0.6614173228346457,
                    "duration": 0.09347550000001092
                },
                {
                    "name": "E5",
                    "midi": 76,
                    "time": 460.92769050001027,
                    "velocity": 0.6614173228346457,
                    "duration": 0.09347550000001092
                },
                {
                    "name": "F5",
                    "midi": 77,
                    "time": 461.0211660000103,
                    "velocity": 0.7480314960629921,
                    "duration": 0.09347550000001092
                },
                {
                    "name": "G#5",
                    "midi": 80,
                    "time": 461.1146415000103,
                    "velocity": 0.6456692913385826,
                    "duration": 0.09347550000001092
                },
                {
                    "name": "A5",
                    "midi": 81,
                    "time": 461.2081170000103,
                    "velocity": 0.6456692913385826,
                    "duration": 0.09347550000001092
                },
                {
                    "name": "G#5",
                    "midi": 80,
                    "time": 461.3015925000103,
                    "velocity": 0.6456692913385826,
                    "duration": 0.09347550000001092
                },
                {
                    "name": "A5",
                    "midi": 81,
                    "time": 461.3950680000103,
                    "velocity": 0.7480314960629921,
                    "duration": 0.09347550000001092
                },
                {
                    "name": "B5",
                    "midi": 83,
                    "time": 461.48854350001034,
                    "velocity": 0.6456692913385826,
                    "duration": 0.09347550000001092
                },
                {
                    "name": "C6",
                    "midi": 84,
                    "time": 461.58201900001035,
                    "velocity": 0.6456692913385826,
                    "duration": 0.09347550000001092
                },
                {
                    "name": "B5",
                    "midi": 83,
                    "time": 461.67549450001036,
                    "velocity": 0.6456692913385826,
                    "duration": 0.09347550000001092
                },
                {
                    "name": "C6",
                    "midi": 84,
                    "time": 461.76897000001037,
                    "velocity": 0.7480314960629921,
                    "duration": 0.09347550000001092
                },
                {
                    "name": "B5",
                    "midi": 83,
                    "time": 461.8624455000104,
                    "velocity": 0.6456692913385826,
                    "duration": 0.09347550000001092
                },
                {
                    "name": "A5",
                    "midi": 81,
                    "time": 461.9559210000104,
                    "velocity": 0.6535433070866141,
                    "duration": 0.09347550000001092
                },
                {
                    "name": "G#5",
                    "midi": 80,
                    "time": 462.0493965000104,
                    "velocity": 0.6535433070866141,
                    "duration": 0.09347550000001092
                },
                {
                    "name": "A5",
                    "midi": 81,
                    "time": 462.1428720000104,
                    "velocity": 0.7480314960629921,
                    "duration": 0.09347550000001092
                },
                {
                    "name": "G#5",
                    "midi": 80,
                    "time": 462.2363475000104,
                    "velocity": 0.6535433070866141,
                    "duration": 0.09347550000001092
                },
                {
                    "name": "A5",
                    "midi": 81,
                    "time": 462.32982300001044,
                    "velocity": 0.6535433070866141,
                    "duration": 0.09347550000001092
                },
                {
                    "name": "B5",
                    "midi": 83,
                    "time": 462.42329850001045,
                    "velocity": 0.6535433070866141,
                    "duration": 0.09347550000001092
                },
                {
                    "name": "C6",
                    "midi": 84,
                    "time": 462.51677400001046,
                    "velocity": 0.7480314960629921,
                    "duration": 0.09347550000001092
                },
                {
                    "name": "B5",
                    "midi": 83,
                    "time": 462.61024950001047,
                    "velocity": 0.6692913385826772,
                    "duration": 0.09347550000001092
                },
                {
                    "name": "A5",
                    "midi": 81,
                    "time": 462.7037250000105,
                    "velocity": 0.6692913385826772,
                    "duration": 0.09347550000001092
                },
                {
                    "name": "G#5",
                    "midi": 80,
                    "time": 462.7972005000105,
                    "velocity": 0.6692913385826772,
                    "duration": 0.09347550000001092
                },
                {
                    "name": "A5",
                    "midi": 81,
                    "time": 462.8906760000105,
                    "velocity": 0.7480314960629921,
                    "duration": 0.09347550000001092
                },
                {
                    "name": "G#5",
                    "midi": 80,
                    "time": 462.9841515000105,
                    "velocity": 0.6614173228346457,
                    "duration": 0.09347550000001092
                },
                {
                    "name": "A5",
                    "midi": 81,
                    "time": 463.0776270000105,
                    "velocity": 0.6614173228346457,
                    "duration": 0.09347550000001092
                },
                {
                    "name": "B5",
                    "midi": 83,
                    "time": 463.17110250001053,
                    "velocity": 0.6614173228346457,
                    "duration": 0.09347550000001092
                },
                {
                    "name": "C6",
                    "midi": 84,
                    "time": 463.26457800001054,
                    "velocity": 0.7480314960629921,
                    "duration": 0.09347550000001092
                },
                {
                    "name": "B5",
                    "midi": 83,
                    "time": 463.35805350001056,
                    "velocity": 0.6614173228346457,
                    "duration": 0.09347550000001092
                },
                {
                    "name": "A5",
                    "midi": 81,
                    "time": 463.45152900001057,
                    "velocity": 0.6614173228346457,
                    "duration": 0.09347550000001092
                },
                {
                    "name": "G#5",
                    "midi": 80,
                    "time": 463.5450045000106,
                    "velocity": 0.6614173228346457,
                    "duration": 0.09347550000001092
                },
                {
                    "name": "A5",
                    "midi": 81,
                    "time": 463.6384800000106,
                    "velocity": 0.7480314960629921,
                    "duration": 0.09347550000001092
                },
                {
                    "name": "G#5",
                    "midi": 80,
                    "time": 463.7319555000106,
                    "velocity": 0.6614173228346457,
                    "duration": 0.09347550000001092
                },
                {
                    "name": "A5",
                    "midi": 81,
                    "time": 463.8254310000106,
                    "velocity": 0.6614173228346457,
                    "duration": 0.09347550000001092
                },
                {
                    "name": "B5",
                    "midi": 83,
                    "time": 463.9189065000106,
                    "velocity": 0.6614173228346457,
                    "duration": 0.09347550000001092
                },
                {
                    "name": "C6",
                    "midi": 84,
                    "time": 464.01238200001063,
                    "velocity": 0.7480314960629921,
                    "duration": 0.09347550000001092
                },
                {
                    "name": "B5",
                    "midi": 83,
                    "time": 464.10585750001064,
                    "velocity": 0.6535433070866141,
                    "duration": 0.09347550000001092
                },
                {
                    "name": "A5",
                    "midi": 81,
                    "time": 464.19933300001065,
                    "velocity": 0.6535433070866141,
                    "duration": 0.09347550000001092
                },
                {
                    "name": "G#5",
                    "midi": 80,
                    "time": 464.29280850001066,
                    "velocity": 0.6535433070866141,
                    "duration": 0.09347550000001092
                },
                {
                    "name": "A5",
                    "midi": 81,
                    "time": 464.3862840000107,
                    "velocity": 0.7480314960629921,
                    "duration": 0.09347550000001092
                },
                {
                    "name": "G#5",
                    "midi": 80,
                    "time": 464.4797595000107,
                    "velocity": 0.6535433070866141,
                    "duration": 0.09347550000001092
                },
                {
                    "name": "A5",
                    "midi": 81,
                    "time": 464.5732350000107,
                    "velocity": 0.6535433070866141,
                    "duration": 0.09347550000001092
                },
                {
                    "name": "B5",
                    "midi": 83,
                    "time": 464.6667105000107,
                    "velocity": 0.6535433070866141,
                    "duration": 0.09347550000001092
                },
                {
                    "name": "C6",
                    "midi": 84,
                    "time": 464.7601860000107,
                    "velocity": 0.7480314960629921,
                    "duration": 0.09347550000001092
                },
                {
                    "name": "B5",
                    "midi": 83,
                    "time": 464.85366150001073,
                    "velocity": 0.6614173228346457,
                    "duration": 0.09347550000001092
                },
                {
                    "name": "C6",
                    "midi": 84,
                    "time": 464.94713700001074,
                    "velocity": 0.6614173228346457,
                    "duration": 0.09347550000001092
                },
                {
                    "name": "A5",
                    "midi": 81,
                    "time": 465.04061250001075,
                    "velocity": 0.6771653543307087,
                    "duration": 0.09347550000001092
                },
                {
                    "name": "G4",
                    "midi": 67,
                    "time": 465.13408800001076,
                    "velocity": 0.6850393700787402,
                    "duration": 0.09347550000001092
                },
                {
                    "name": "G5",
                    "midi": 79,
                    "time": 465.13408800001076,
                    "velocity": 0.8110236220472441,
                    "duration": 0.09347550000001092
                },
                {
                    "name": "G4",
                    "midi": 67,
                    "time": 465.3210390000108,
                    "velocity": 0.5748031496062992,
                    "duration": 0.09347550000001092
                },
                {
                    "name": "G5",
                    "midi": 79,
                    "time": 465.3210390000108,
                    "velocity": 0.6850393700787402,
                    "duration": 0.09347550000001092
                },
                {
                    "name": "E4",
                    "midi": 64,
                    "time": 465.5079900000108,
                    "velocity": 0.5826771653543307,
                    "duration": 0.09347550000001092
                },
                {
                    "name": "E5",
                    "midi": 76,
                    "time": 465.5079900000108,
                    "velocity": 0.6929133858267716,
                    "duration": 0.09347550000001092
                },
                {
                    "name": "C4",
                    "midi": 60,
                    "time": 465.69494100001083,
                    "velocity": 0.5748031496062992,
                    "duration": 0.09347550000001092
                },
                {
                    "name": "C5",
                    "midi": 72,
                    "time": 465.69494100001083,
                    "velocity": 0.6850393700787402,
                    "duration": 0.09347550000001092
                },
                {
                    "name": "C5",
                    "midi": 72,
                    "time": 465.88189200001085,
                    "velocity": 0.6850393700787402,
                    "duration": 0.09347550000001092
                },
                {
                    "name": "C6",
                    "midi": 84,
                    "time": 465.88189200001085,
                    "velocity": 0.8110236220472441,
                    "duration": 0.09347550000001092
                },
                {
                    "name": "C5",
                    "midi": 72,
                    "time": 466.0688430000109,
                    "velocity": 0.5748031496062992,
                    "duration": 0.09347550000001092
                },
                {
                    "name": "C6",
                    "midi": 84,
                    "time": 466.0688430000109,
                    "velocity": 0.6850393700787402,
                    "duration": 0.09347550000001092
                },
                {
                    "name": "G4",
                    "midi": 67,
                    "time": 466.2557940000109,
                    "velocity": 0.5748031496062992,
                    "duration": 0.09347550000001092
                },
                {
                    "name": "G5",
                    "midi": 79,
                    "time": 466.2557940000109,
                    "velocity": 0.6850393700787402,
                    "duration": 0.09347550000001092
                },
                {
                    "name": "E4",
                    "midi": 64,
                    "time": 466.4427450000109,
                    "velocity": 0.5748031496062992,
                    "duration": 0.09347550000001092
                },
                {
                    "name": "E5",
                    "midi": 76,
                    "time": 466.4427450000109,
                    "velocity": 0.6850393700787402,
                    "duration": 0.09347550000001092
                },
                {
                    "name": "G4",
                    "midi": 67,
                    "time": 466.62969600001094,
                    "velocity": 0.6850393700787402,
                    "duration": 0.09347550000001092
                },
                {
                    "name": "G5",
                    "midi": 79,
                    "time": 466.62969600001094,
                    "velocity": 0.8110236220472441,
                    "duration": 0.09347550000001092
                },
                {
                    "name": "G4",
                    "midi": 67,
                    "time": 466.81664700001096,
                    "velocity": 0.5748031496062992,
                    "duration": 0.09347550000001092
                },
                {
                    "name": "G5",
                    "midi": 79,
                    "time": 466.81664700001096,
                    "velocity": 0.6850393700787402,
                    "duration": 0.09347550000001092
                },
                {
                    "name": "E4",
                    "midi": 64,
                    "time": 467.003598000011,
                    "velocity": 0.5826771653543307,
                    "duration": 0.09347550000001092
                },
                {
                    "name": "E5",
                    "midi": 76,
                    "time": 467.003598000011,
                    "velocity": 0.6929133858267716,
                    "duration": 0.09347550000001092
                },
                {
                    "name": "C4",
                    "midi": 60,
                    "time": 467.190549000011,
                    "velocity": 0.5748031496062992,
                    "duration": 0.09347550000001092
                },
                {
                    "name": "C5",
                    "midi": 72,
                    "time": 467.190549000011,
                    "velocity": 0.6850393700787402,
                    "duration": 0.09347550000001092
                },
                {
                    "name": "C5",
                    "midi": 72,
                    "time": 467.377500000011,
                    "velocity": 0.6850393700787402,
                    "duration": 0.09347550000001092
                },
                {
                    "name": "C6",
                    "midi": 84,
                    "time": 467.377500000011,
                    "velocity": 0.8110236220472441,
                    "duration": 0.09347550000001092
                },
                {
                    "name": "C5",
                    "midi": 72,
                    "time": 467.56445100001105,
                    "velocity": 0.5748031496062992,
                    "duration": 0.09347550000001092
                },
                {
                    "name": "C6",
                    "midi": 84,
                    "time": 467.56445100001105,
                    "velocity": 0.6850393700787402,
                    "duration": 0.09347550000001092
                },
                {
                    "name": "G4",
                    "midi": 67,
                    "time": 467.75140200001107,
                    "velocity": 0.5748031496062992,
                    "duration": 0.09347550000001092
                },
                {
                    "name": "G5",
                    "midi": 79,
                    "time": 467.75140200001107,
                    "velocity": 0.6850393700787402,
                    "duration": 0.09347550000001092
                },
                {
                    "name": "E4",
                    "midi": 64,
                    "time": 467.9383530000111,
                    "velocity": 0.5748031496062992,
                    "duration": 0.09347550000001092
                },
                {
                    "name": "E5",
                    "midi": 76,
                    "time": 467.9383530000111,
                    "velocity": 0.6850393700787402,
                    "duration": 0.09347550000001092
                },
                {
                    "name": "C6",
                    "midi": 84,
                    "time": 468.2187795000111,
                    "velocity": 0.3700787401574803,
                    "duration": 0.09347550000001092
                },
                {
                    "name": "E6",
                    "midi": 88,
                    "time": 468.31225500001113,
                    "velocity": 0.3937007874015748,
                    "duration": 0.09269653749998952
                },
                {
                    "name": "C6",
                    "midi": 84,
                    "time": 468.40573050001115,
                    "velocity": 0.3700787401574803,
                    "duration": 0.09347550000001092
                },
                {
                    "name": "G6",
                    "midi": 91,
                    "time": 468.49920600001116,
                    "velocity": 0.4015748031496063,
                    "duration": 0.09269653749998952
                },
                {
                    "name": "E6",
                    "midi": 88,
                    "time": 468.59268150001117,
                    "velocity": 0.3700787401574803,
                    "duration": 0.09347550000001092
                },
                {
                    "name": "G6",
                    "midi": 91,
                    "time": 468.6861570000112,
                    "velocity": 0.3937007874015748,
                    "duration": 0.09269653749998952
                },
                {
                    "name": "E6",
                    "midi": 88,
                    "time": 468.7796325000112,
                    "velocity": 0.3700787401574803,
                    "duration": 0.09347550000001092
                },
                {
                    "name": "G6",
                    "midi": 91,
                    "time": 468.8731080000112,
                    "velocity": 0.4015748031496063,
                    "duration": 0.09269653749998952
                },
                {
                    "name": "E6",
                    "midi": 88,
                    "time": 468.9665835000112,
                    "velocity": 0.3700787401574803,
                    "duration": 0.09347550000001092
                },
                {
                    "name": "G6",
                    "midi": 91,
                    "time": 469.0600590000112,
                    "velocity": 0.3937007874015748,
                    "duration": 0.09269653749998952
                },
                {
                    "name": "E6",
                    "midi": 88,
                    "time": 469.15353450001123,
                    "velocity": 0.3700787401574803,
                    "duration": 0.09347550000001092
                },
                {
                    "name": "G6",
                    "midi": 91,
                    "time": 469.24701000001124,
                    "velocity": 0.4094488188976378,
                    "duration": 0.09269653749998952
                },
                {
                    "name": "E6",
                    "midi": 88,
                    "time": 469.34048550001125,
                    "velocity": 0.3700787401574803,
                    "duration": 0.09347550000001092
                },
                {
                    "name": "G6",
                    "midi": 91,
                    "time": 469.43396100001127,
                    "velocity": 0.4015748031496063,
                    "duration": 0.09269653749998952
                },
                {
                    "name": "E6",
                    "midi": 88,
                    "time": 469.5274365000113,
                    "velocity": 0.3700787401574803,
                    "duration": 0.09347550000001092
                },
                {
                    "name": "G6",
                    "midi": 91,
                    "time": 469.6209120000113,
                    "velocity": 0.3937007874015748,
                    "duration": 0.09269653749998952
                },
                {
                    "name": "E6",
                    "midi": 88,
                    "time": 469.7143875000113,
                    "velocity": 0.3700787401574803,
                    "duration": 0.09347550000001092
                },
                {
                    "name": "G6",
                    "midi": 91,
                    "time": 469.8078630000113,
                    "velocity": 0.3937007874015748,
                    "duration": 0.09269653749998952
                },
                {
                    "name": "E6",
                    "midi": 88,
                    "time": 469.9013385000113,
                    "velocity": 0.3700787401574803,
                    "duration": 0.09347550000001092
                },
                {
                    "name": "G6",
                    "midi": 91,
                    "time": 469.99481400001133,
                    "velocity": 0.4015748031496063,
                    "duration": 0.09269653749998952
                },
                {
                    "name": "E6",
                    "midi": 88,
                    "time": 470.08828950001134,
                    "velocity": 0.3700787401574803,
                    "duration": 0.09347550000001092
                },
                {
                    "name": "G6",
                    "midi": 91,
                    "time": 470.18176500001135,
                    "velocity": 0.3937007874015748,
                    "duration": 0.09269653749998952
                },
                {
                    "name": "E6",
                    "midi": 88,
                    "time": 470.27524050001136,
                    "velocity": 0.3700787401574803,
                    "duration": 0.09347550000001092
                },
                {
                    "name": "G6",
                    "midi": 91,
                    "time": 470.3687160000114,
                    "velocity": 0.4015748031496063,
                    "duration": 0.09269653749998952
                },
                {
                    "name": "E6",
                    "midi": 88,
                    "time": 470.4621915000114,
                    "velocity": 0.3700787401574803,
                    "duration": 0.09347550000001092
                },
                {
                    "name": "G6",
                    "midi": 91,
                    "time": 470.5556670000114,
                    "velocity": 0.3937007874015748,
                    "duration": 0.09269653749998952
                },
                {
                    "name": "E6",
                    "midi": 88,
                    "time": 470.6491425000114,
                    "velocity": 0.3700787401574803,
                    "duration": 0.09347550000001092
                },
                {
                    "name": "G6",
                    "midi": 91,
                    "time": 470.7426180000114,
                    "velocity": 0.4094488188976378,
                    "duration": 0.09269653749998952
                },
                {
                    "name": "E6",
                    "midi": 88,
                    "time": 470.83609350001143,
                    "velocity": 0.3700787401574803,
                    "duration": 0.09347550000001092
                },
                {
                    "name": "G6",
                    "midi": 91,
                    "time": 470.92956900001144,
                    "velocity": 0.4015748031496063,
                    "duration": 0.09269653749998952
                },
                {
                    "name": "E6",
                    "midi": 88,
                    "time": 471.02304450001145,
                    "velocity": 0.3700787401574803,
                    "duration": 0.09347550000001092
                },
                {
                    "name": "F6",
                    "midi": 89,
                    "time": 471.2099955000115,
                    "velocity": 0.33070866141732286,
                    "duration": 0.09347550000001092
                },
                {
                    "name": "G6",
                    "midi": 91,
                    "time": 471.3034710000115,
                    "velocity": 0.3543307086614173,
                    "duration": 0.14021324999998797
                },
                {
                    "name": "F6",
                    "midi": 89,
                    "time": 471.3969465000115,
                    "velocity": 0.3228346456692913,
                    "duration": 0.09347549999995408
                },
                {
                    "name": "G#6",
                    "midi": 92,
                    "time": 471.49042200001145,
                    "velocity": 0.3464566929133858,
                    "duration": 0.14021324999998797
                },
                {
                    "name": "F6",
                    "midi": 89,
                    "time": 471.58389750001146,
                    "velocity": 0.31496062992125984,
                    "duration": 0.09347549999995408
                },
                {
                    "name": "G6",
                    "midi": 91,
                    "time": 471.6773730000114,
                    "velocity": 0.33070866141732286,
                    "duration": 0.14021324999998797
                },
                {
                    "name": "F6",
                    "midi": 89,
                    "time": 471.7708485000114,
                    "velocity": 0.30708661417322836,
                    "duration": 0.09347549999995408
                },
                {
                    "name": "G#6",
                    "midi": 92,
                    "time": 471.8643240000114,
                    "velocity": 0.33070866141732286,
                    "duration": 0.14021324999998797
                },
                {
                    "name": "F6",
                    "midi": 89,
                    "time": 471.9577995000114,
                    "velocity": 0.2992125984251969,
                    "duration": 0.09347549999995408
                },
                {
                    "name": "G6",
                    "midi": 91,
                    "time": 472.05127500001134,
                    "velocity": 0.31496062992125984,
                    "duration": 0.14021324999998797
                },
                {
                    "name": "F6",
                    "midi": 89,
                    "time": 472.14475050001136,
                    "velocity": 0.29133858267716534,
                    "duration": 0.09347549999995408
                },
                {
                    "name": "G#6",
                    "midi": 92,
                    "time": 472.2382260000113,
                    "velocity": 0.31496062992125984,
                    "duration": 0.14021324999998797
                },
                {
                    "name": "F6",
                    "midi": 89,
                    "time": 472.3317015000113,
                    "velocity": 0.28346456692913385,
                    "duration": 0.09347549999995408
                },
                {
                    "name": "G6",
                    "midi": 91,
                    "time": 472.4251770000113,
                    "velocity": 0.30708661417322836,
                    "duration": 0.14021324999998797
                },
                {
                    "name": "F6",
                    "midi": 89,
                    "time": 472.5186525000113,
                    "velocity": 0.2755905511811024,
                    "duration": 0.09347549999995408
                },
                {
                    "name": "G#6",
                    "midi": 92,
                    "time": 472.61212800001124,
                    "velocity": 0.29133858267716534,
                    "duration": 0.14021324999998797
                },
                {
                    "name": "F6",
                    "midi": 89,
                    "time": 472.70560350001125,
                    "velocity": 0.2677165354330709,
                    "duration": 0.09347549999995408
                },
                {
                    "name": "G6",
                    "midi": 91,
                    "time": 472.7990790000112,
                    "velocity": 0.28346456692913385,
                    "duration": 0.14021324999998797
                },
                {
                    "name": "F6",
                    "midi": 89,
                    "time": 472.8925545000112,
                    "velocity": 0.2677165354330709,
                    "duration": 0.09347549999995408
                },
                {
                    "name": "G#6",
                    "midi": 92,
                    "time": 472.98603000001117,
                    "velocity": 0.29133858267716534,
                    "duration": 0.14021324999998797
                },
                {
                    "name": "F6",
                    "midi": 89,
                    "time": 473.0795055000112,
                    "velocity": 0.2677165354330709,
                    "duration": 0.09347549999995408
                },
                {
                    "name": "G6",
                    "midi": 91,
                    "time": 473.17298100001113,
                    "velocity": 0.28346456692913385,
                    "duration": 0.14021324999998797
                },
                {
                    "name": "F6",
                    "midi": 89,
                    "time": 473.26645650001115,
                    "velocity": 0.2677165354330709,
                    "duration": 0.09347549999995408
                },
                {
                    "name": "G#6",
                    "midi": 92,
                    "time": 473.3599320000111,
                    "velocity": 0.29133858267716534,
                    "duration": 0.14021324999998797
                },
                {
                    "name": "F6",
                    "midi": 89,
                    "time": 473.4534075000111,
                    "velocity": 0.2677165354330709,
                    "duration": 0.09347549999995408
                },
                {
                    "name": "G6",
                    "midi": 91,
                    "time": 473.54688300001106,
                    "velocity": 0.28346456692913385,
                    "duration": 0.14021324999998797
                },
                {
                    "name": "F6",
                    "midi": 89,
                    "time": 473.6403585000111,
                    "velocity": 0.2677165354330709,
                    "duration": 0.09347549999995408
                },
                {
                    "name": "G#6",
                    "midi": 92,
                    "time": 473.73383400001103,
                    "velocity": 0.2992125984251969,
                    "duration": 0.14021324999998797
                },
                {
                    "name": "F6",
                    "midi": 89,
                    "time": 473.82730950001104,
                    "velocity": 0.2677165354330709,
                    "duration": 0.09347549999995408
                },
                {
                    "name": "G6",
                    "midi": 91,
                    "time": 473.920785000011,
                    "velocity": 0.29133858267716534,
                    "duration": 0.14021324999998797
                },
                {
                    "name": "F6",
                    "midi": 89,
                    "time": 474.014260500011,
                    "velocity": 0.2677165354330709,
                    "duration": 0.09347549999995408
                },
                {
                    "name": "A6",
                    "midi": 93,
                    "time": 474.10773600001096,
                    "velocity": 0.29133858267716534,
                    "duration": 0.09347550000001092
                },
                {
                    "name": "F6",
                    "midi": 89,
                    "time": 474.20121150001097,
                    "velocity": 0.2677165354330709,
                    "duration": 0.09347550000001092
                },
                {
                    "name": "G6",
                    "midi": 91,
                    "time": 474.294687000011,
                    "velocity": 0.28346456692913385,
                    "duration": 0.09347550000001092
                },
                {
                    "name": "F6",
                    "midi": 89,
                    "time": 474.388162500011,
                    "velocity": 0.2755905511811024,
                    "duration": 0.09347550000001092
                },
                {
                    "name": "A6",
                    "midi": 93,
                    "time": 474.481638000011,
                    "velocity": 0.2992125984251969,
                    "duration": 0.09347550000001092
                },
                {
                    "name": "F6",
                    "midi": 89,
                    "time": 474.575113500011,
                    "velocity": 0.28346456692913385,
                    "duration": 0.09347550000001092
                },
                {
                    "name": "G6",
                    "midi": 91,
                    "time": 474.668589000011,
                    "velocity": 0.2992125984251969,
                    "duration": 0.09347550000001092
                },
                {
                    "name": "F6",
                    "midi": 89,
                    "time": 474.76206450001104,
                    "velocity": 0.28346456692913385,
                    "duration": 0.09347550000001092
                },
                {
                    "name": "A6",
                    "midi": 93,
                    "time": 474.85554000001105,
                    "velocity": 0.31496062992125984,
                    "duration": 0.09347550000001092
                },
                {
                    "name": "F6",
                    "midi": 89,
                    "time": 474.94901550001106,
                    "velocity": 0.29133858267716534,
                    "duration": 0.09347550000001092
                },
                {
                    "name": "G6",
                    "midi": 91,
                    "time": 475.04249100001107,
                    "velocity": 0.31496062992125984,
                    "duration": 0.09347550000001092
                },
                {
                    "name": "F6",
                    "midi": 89,
                    "time": 475.1359665000111,
                    "velocity": 0.2992125984251969,
                    "duration": 0.09347550000001092
                },
                {
                    "name": "A6",
                    "midi": 93,
                    "time": 475.2294420000111,
                    "velocity": 0.33858267716535434,
                    "duration": 0.09347550000001092
                },
                {
                    "name": "F6",
                    "midi": 89,
                    "time": 475.3229175000111,
                    "velocity": 0.30708661417322836,
                    "duration": 0.09347550000001092
                },
                {
                    "name": "G6",
                    "midi": 91,
                    "time": 475.4163930000111,
                    "velocity": 0.33858267716535434,
                    "duration": 0.09347550000001092
                },
                {
                    "name": "F6",
                    "midi": 89,
                    "time": 475.5098685000111,
                    "velocity": 0.31496062992125984,
                    "duration": 0.09347550000001092
                },
                {
                    "name": "A6",
                    "midi": 93,
                    "time": 475.60334400001113,
                    "velocity": 0.3464566929133858,
                    "duration": 0.09347550000001092
                },
                {
                    "name": "F6",
                    "midi": 89,
                    "time": 475.79029500001116,
                    "velocity": 0.33858267716535434,
                    "duration": 0.09347550000001092
                },
                {
                    "name": "G6",
                    "midi": 91,
                    "time": 475.79029500001116,
                    "velocity": 0.33858267716535434,
                    "duration": 0.09347550000001092
                },
                {
                    "name": "F6",
                    "midi": 89,
                    "time": 475.9772460000112,
                    "velocity": 0.36220472440944884,
                    "duration": 0.09347550000001092
                },
                {
                    "name": "G6",
                    "midi": 91,
                    "time": 475.9772460000112,
                    "velocity": 0.36220472440944884,
                    "duration": 0.09347550000001092
                },
                {
                    "name": "F6",
                    "midi": 89,
                    "time": 476.1641970000112,
                    "velocity": 0.36220472440944884,
                    "duration": 0.09347550000001092
                },
                {
                    "name": "G6",
                    "midi": 91,
                    "time": 476.1641970000112,
                    "velocity": 0.36220472440944884,
                    "duration": 0.09347550000001092
                },
                {
                    "name": "F6",
                    "midi": 89,
                    "time": 476.3511480000112,
                    "velocity": 0.3858267716535433,
                    "duration": 0.09347550000001092
                },
                {
                    "name": "G6",
                    "midi": 91,
                    "time": 476.3511480000112,
                    "velocity": 0.3858267716535433,
                    "duration": 0.09347550000001092
                },
                {
                    "name": "F6",
                    "midi": 89,
                    "time": 476.53809900001124,
                    "velocity": 0.3858267716535433,
                    "duration": 0.09347550000001092
                },
                {
                    "name": "G6",
                    "midi": 91,
                    "time": 476.53809900001124,
                    "velocity": 0.3858267716535433,
                    "duration": 0.09347550000001092
                },
                {
                    "name": "F6",
                    "midi": 89,
                    "time": 476.72505000001127,
                    "velocity": 0.4251968503937008,
                    "duration": 0.09347550000001092
                },
                {
                    "name": "G6",
                    "midi": 91,
                    "time": 476.72505000001127,
                    "velocity": 0.4251968503937008,
                    "duration": 0.09347550000001092
                },
                {
                    "name": "F6",
                    "midi": 89,
                    "time": 476.9120010000113,
                    "velocity": 0.41732283464566927,
                    "duration": 0.09347550000001092
                },
                {
                    "name": "G6",
                    "midi": 91,
                    "time": 476.9120010000113,
                    "velocity": 0.41732283464566927,
                    "duration": 0.09347550000001092
                },
                {
                    "name": "C6",
                    "midi": 84,
                    "time": 477.0989520000113,
                    "velocity": 0.6456692913385826,
                    "duration": 1.1217060000000174
                },
                {
                    "name": "C6",
                    "midi": 84,
                    "time": 478.2206580000113,
                    "velocity": 0.4566929133858268,
                    "duration": 0.09347550000001092
                },
                {
                    "name": "A#5",
                    "midi": 82,
                    "time": 478.31413350001134,
                    "velocity": 0.44881889763779526,
                    "duration": 0.09347550000001092
                },
                {
                    "name": "G#5",
                    "midi": 80,
                    "time": 478.40760900001135,
                    "velocity": 0.4409448818897638,
                    "duration": 0.09347550000001092
                },
                {
                    "name": "G5",
                    "midi": 79,
                    "time": 478.50108450001136,
                    "velocity": 0.4330708661417323,
                    "duration": 0.09347550000001092
                },
                {
                    "name": "G#5",
                    "midi": 80,
                    "time": 478.59456000001137,
                    "velocity": 0.4566929133858268,
                    "duration": 0.09347550000001092
                },
                {
                    "name": "G5",
                    "midi": 79,
                    "time": 478.6880355000114,
                    "velocity": 0.44881889763779526,
                    "duration": 0.09347550000001092
                },
                {
                    "name": "F5",
                    "midi": 77,
                    "time": 478.7815110000114,
                    "velocity": 0.4409448818897638,
                    "duration": 0.09347550000001092
                },
                {
                    "name": "E5",
                    "midi": 76,
                    "time": 478.8749865000114,
                    "velocity": 0.4330708661417323,
                    "duration": 0.09347550000001092
                },
                {
                    "name": "F5",
                    "midi": 77,
                    "time": 478.9684620000114,
                    "velocity": 0.4015748031496063,
                    "duration": 0.09347550000001092
                },
                {
                    "name": "G5",
                    "midi": 79,
                    "time": 479.0619375000114,
                    "velocity": 0.4094488188976378,
                    "duration": 0.09347550000001092
                },
                {
                    "name": "G#5",
                    "midi": 80,
                    "time": 479.15541300001144,
                    "velocity": 0.41732283464566927,
                    "duration": 0.09347550000001092
                },
                {
                    "name": "A#5",
                    "midi": 82,
                    "time": 479.24888850001145,
                    "velocity": 0.4251968503937008,
                    "duration": 0.09347550000001092
                },
                {
                    "name": "C6",
                    "midi": 84,
                    "time": 479.34236400001146,
                    "velocity": 0.4409448818897638,
                    "duration": 0.09347550000001092
                },
                {
                    "name": "C#6",
                    "midi": 85,
                    "time": 479.43583950001147,
                    "velocity": 0.44881889763779526,
                    "duration": 0.09347550000001092
                },
                {
                    "name": "C6",
                    "midi": 84,
                    "time": 479.5293150000115,
                    "velocity": 0.44881889763779526,
                    "duration": 0.09347550000001092
                },
                {
                    "name": "B5",
                    "midi": 83,
                    "time": 479.6227905000115,
                    "velocity": 0.4409448818897638,
                    "duration": 0.09347550000001092
                },
                {
                    "name": "C6",
                    "midi": 84,
                    "time": 479.7162660000115,
                    "velocity": 0.4409448818897638,
                    "duration": 0.09347550000001092
                },
                {
                    "name": "A#5",
                    "midi": 82,
                    "time": 479.8097415000115,
                    "velocity": 0.4409448818897638,
                    "duration": 0.09347550000001092
                },
                {
                    "name": "G#5",
                    "midi": 80,
                    "time": 479.9032170000115,
                    "velocity": 0.4409448818897638,
                    "duration": 0.09347550000001092
                },
                {
                    "name": "G5",
                    "midi": 79,
                    "time": 479.99669250001153,
                    "velocity": 0.4409448818897638,
                    "duration": 0.09347550000001092
                },
                {
                    "name": "G#5",
                    "midi": 80,
                    "time": 480.09016800001154,
                    "velocity": 0.44881889763779526,
                    "duration": 0.09347550000001092
                },
                {
                    "name": "A#5",
                    "midi": 82,
                    "time": 480.18364350001156,
                    "velocity": 0.44881889763779526,
                    "duration": 0.09347550000001092
                },
                {
                    "name": "G#5",
                    "midi": 80,
                    "time": 480.27711900001157,
                    "velocity": 0.44881889763779526,
                    "duration": 0.09347550000001092
                },
                {
                    "name": "G5",
                    "midi": 79,
                    "time": 480.3705945000116,
                    "velocity": 0.41732283464566927,
                    "duration": 0.09347550000001092
                },
                {
                    "name": "F5",
                    "midi": 77,
                    "time": 480.4640700000116,
                    "velocity": 0.4409448818897638,
                    "duration": 0.09347550000001092
                },
                {
                    "name": "E5",
                    "midi": 76,
                    "time": 480.5575455000116,
                    "velocity": 0.4094488188976378,
                    "duration": 0.09347550000001092
                },
                {
                    "name": "F5",
                    "midi": 77,
                    "time": 480.6510210000116,
                    "velocity": 0.4409448818897638,
                    "duration": 0.09347550000001092
                },
                {
                    "name": "G5",
                    "midi": 79,
                    "time": 480.7444965000116,
                    "velocity": 0.4094488188976378,
                    "duration": 0.09347550000001092
                },
                {
                    "name": "G#4",
                    "midi": 68,
                    "time": 480.83797200001163,
                    "velocity": 0.3543307086614173,
                    "duration": 0.7478040000000306
                },
                {
                    "name": "G#5",
                    "midi": 80,
                    "time": 480.83797200001163,
                    "velocity": 0.4645669291338583,
                    "duration": 0.37390199999998686
                },
                {
                    "name": "F5",
                    "midi": 77,
                    "time": 481.2118740000116,
                    "velocity": 0.4094488188976378,
                    "duration": 0.18695100000002185
                },
                {
                    "name": "C#5",
                    "midi": 73,
                    "time": 481.39882500001164,
                    "velocity": 0.4094488188976378,
                    "duration": 0.18695100000002185
                },
                {
                    "name": "G4",
                    "midi": 67,
                    "time": 481.58577600001166,
                    "velocity": 0.3543307086614173,
                    "duration": 0.7478040000000306
                },
                {
                    "name": "G5",
                    "midi": 79,
                    "time": 481.58577600001166,
                    "velocity": 0.44881889763779526,
                    "duration": 0.37390199999998686
                },
                {
                    "name": "D#5",
                    "midi": 75,
                    "time": 481.95967800001165,
                    "velocity": 0.4094488188976378,
                    "duration": 0.18695100000002185
                },
                {
                    "name": "C5",
                    "midi": 72,
                    "time": 482.14662900001167,
                    "velocity": 0.4094488188976378,
                    "duration": 0.18695100000002185
                },
                {
                    "name": "F4",
                    "midi": 65,
                    "time": 482.3335800000117,
                    "velocity": 0.3543307086614173,
                    "duration": 0.7478040000000306
                },
                {
                    "name": "F5",
                    "midi": 77,
                    "time": 482.3335800000117,
                    "velocity": 0.44881889763779526,
                    "duration": 0.37390199999998686
                },
                {
                    "name": "D5",
                    "midi": 74,
                    "time": 482.7074820000117,
                    "velocity": 0.4094488188976378,
                    "duration": 0.18695100000002185
                },
                {
                    "name": "B4",
                    "midi": 71,
                    "time": 482.8944330000117,
                    "velocity": 0.4094488188976378,
                    "duration": 0.18695100000002185
                },
                {
                    "name": "C5",
                    "midi": 72,
                    "time": 483.0813840000117,
                    "velocity": 0.5669291338582677,
                    "duration": 1.1217060000000174
                },
                {
                    "name": "C5",
                    "midi": 72,
                    "time": 484.20309000001174,
                    "velocity": 0.4566929133858268,
                    "duration": 0.09347550000001092
                },
                {
                    "name": "A#4",
                    "midi": 70,
                    "time": 484.29656550001175,
                    "velocity": 0.44881889763779526,
                    "duration": 0.09347550000001092
                },
                {
                    "name": "A4",
                    "midi": 69,
                    "time": 484.39004100001176,
                    "velocity": 0.4409448818897638,
                    "duration": 0.09347550000001092
                },
                {
                    "name": "G4",
                    "midi": 67,
                    "time": 484.4835165000118,
                    "velocity": 0.4330708661417323,
                    "duration": 0.09347550000001092
                },
                {
                    "name": "A4",
                    "midi": 69,
                    "time": 484.5769920000118,
                    "velocity": 0.4566929133858268,
                    "duration": 0.09347550000001092
                },
                {
                    "name": "G4",
                    "midi": 67,
                    "time": 484.6704675000118,
                    "velocity": 0.44881889763779526,
                    "duration": 0.09347550000001092
                },
                {
                    "name": "F4",
                    "midi": 65,
                    "time": 484.7639430000118,
                    "velocity": 0.4409448818897638,
                    "duration": 0.09347550000001092
                },
                {
                    "name": "E4",
                    "midi": 64,
                    "time": 484.8574185000118,
                    "velocity": 0.4330708661417323,
                    "duration": 0.09347550000001092
                },
                {
                    "name": "F4",
                    "midi": 65,
                    "time": 484.95089400001183,
                    "velocity": 0.4015748031496063,
                    "duration": 0.09347550000001092
                },
                {
                    "name": "G4",
                    "midi": 67,
                    "time": 485.04436950001184,
                    "velocity": 0.4094488188976378,
                    "duration": 0.09347550000001092
                },
                {
                    "name": "A4",
                    "midi": 69,
                    "time": 485.13784500001185,
                    "velocity": 0.41732283464566927,
                    "duration": 0.09347550000001092
                },
                {
                    "name": "A#4",
                    "midi": 70,
                    "time": 485.23132050001186,
                    "velocity": 0.4251968503937008,
                    "duration": 0.09347550000001092
                },
                {
                    "name": "C5",
                    "midi": 72,
                    "time": 485.3247960000119,
                    "velocity": 0.4409448818897638,
                    "duration": 0.09347550000001092
                },
                {
                    "name": "D5",
                    "midi": 74,
                    "time": 485.4182715000119,
                    "velocity": 0.44881889763779526,
                    "duration": 0.09347550000001092
                },
                {
                    "name": "C5",
                    "midi": 72,
                    "time": 485.5117470000119,
                    "velocity": 0.44881889763779526,
                    "duration": 0.09347550000001092
                },
                {
                    "name": "B4",
                    "midi": 71,
                    "time": 485.6052225000119,
                    "velocity": 0.4409448818897638,
                    "duration": 0.09347550000001092
                },
                {
                    "name": "C5",
                    "midi": 72,
                    "time": 485.6986980000119,
                    "velocity": 0.4409448818897638,
                    "duration": 0.09347550000001092
                },
                {
                    "name": "A#4",
                    "midi": 70,
                    "time": 485.7921735000119,
                    "velocity": 0.4409448818897638,
                    "duration": 0.09347550000001092
                },
                {
                    "name": "A4",
                    "midi": 69,
                    "time": 485.88564900001194,
                    "velocity": 0.4409448818897638,
                    "duration": 0.09347550000001092
                },
                {
                    "name": "G4",
                    "midi": 67,
                    "time": 485.97912450001195,
                    "velocity": 0.4409448818897638,
                    "duration": 0.09347550000001092
                },
                {
                    "name": "A4",
                    "midi": 69,
                    "time": 486.07260000001196,
                    "velocity": 0.44881889763779526,
                    "duration": 0.09347550000001092
                },
                {
                    "name": "A#4",
                    "midi": 70,
                    "time": 486.16607550001197,
                    "velocity": 0.44881889763779526,
                    "duration": 0.09347550000001092
                },
                {
                    "name": "A4",
                    "midi": 69,
                    "time": 486.259551000012,
                    "velocity": 0.44881889763779526,
                    "duration": 0.09347550000001092
                },
                {
                    "name": "G4",
                    "midi": 67,
                    "time": 486.353026500012,
                    "velocity": 0.41732283464566927,
                    "duration": 0.09347550000001092
                },
                {
                    "name": "F4",
                    "midi": 65,
                    "time": 486.446502000012,
                    "velocity": 0.4409448818897638,
                    "duration": 0.09347550000001092
                },
                {
                    "name": "E4",
                    "midi": 64,
                    "time": 486.539977500012,
                    "velocity": 0.4094488188976378,
                    "duration": 0.09347550000001092
                },
                {
                    "name": "F4",
                    "midi": 65,
                    "time": 486.633453000012,
                    "velocity": 0.4409448818897638,
                    "duration": 0.09347550000001092
                },
                {
                    "name": "G4",
                    "midi": 67,
                    "time": 486.72692850001204,
                    "velocity": 0.4094488188976378,
                    "duration": 0.09347550000001092
                },
                {
                    "name": "A3",
                    "midi": 57,
                    "time": 486.82040400001205,
                    "velocity": 0.3543307086614173,
                    "duration": 0.7478040000000306
                },
                {
                    "name": "A4",
                    "midi": 69,
                    "time": 486.82040400001205,
                    "velocity": 0.4645669291338583,
                    "duration": 0.37390199999998686
                },
                {
                    "name": "F4",
                    "midi": 65,
                    "time": 487.19430600001203,
                    "velocity": 0.4094488188976378,
                    "duration": 0.18695100000002185
                },
                {
                    "name": "D4",
                    "midi": 62,
                    "time": 487.38125700001206,
                    "velocity": 0.4094488188976378,
                    "duration": 0.18695100000002185
                },
                {
                    "name": "G3",
                    "midi": 55,
                    "time": 487.5682080000121,
                    "velocity": 0.3543307086614173,
                    "duration": 1.495608000000061
                },
                {
                    "name": "G4",
                    "midi": 67,
                    "time": 487.5682080000121,
                    "velocity": 0.44881889763779526,
                    "duration": 0.37390199999998686
                },
                {
                    "name": "E4",
                    "midi": 64,
                    "time": 487.94211000001206,
                    "velocity": 0.4094488188976378,
                    "duration": 0.18695100000002185
                },
                {
                    "name": "C4",
                    "midi": 60,
                    "time": 488.1290610000121,
                    "velocity": 0.4094488188976378,
                    "duration": 0.18695100000002185
                },
                {
                    "name": "F4",
                    "midi": 65,
                    "time": 488.3160120000121,
                    "velocity": 0.44881889763779526,
                    "duration": 0.37390199999998686
                },
                {
                    "name": "D4",
                    "midi": 62,
                    "time": 488.6899140000121,
                    "velocity": 0.4094488188976378,
                    "duration": 0.18695100000002185
                },
                {
                    "name": "B3",
                    "midi": 59,
                    "time": 488.8768650000121,
                    "velocity": 0.4094488188976378,
                    "duration": 0.18695100000002185
                },
                {
                    "name": "G3",
                    "midi": 55,
                    "time": 489.06381600001214,
                    "velocity": 0.4015748031496063,
                    "duration": 0.37390199999998686
                },
                {
                    "name": "C4",
                    "midi": 60,
                    "time": 489.06381600001214,
                    "velocity": 0.4330708661417323,
                    "duration": 0.37390199999998686
                },
                {
                    "name": "C5",
                    "midi": 72,
                    "time": 489.4377180000121,
                    "velocity": 0.5354330708661418,
                    "duration": 0.18695100000002185
                },
                {
                    "name": "B4",
                    "midi": 71,
                    "time": 489.62466900001215,
                    "velocity": 0.5039370078740157,
                    "duration": 0.18695100000002185
                },
                {
                    "name": "A4",
                    "midi": 69,
                    "time": 489.81162000001217,
                    "velocity": 0.5196850393700787,
                    "duration": 0.37390199999998686
                },
                {
                    "name": "F4",
                    "midi": 65,
                    "time": 490.18552200001216,
                    "velocity": 0.48031496062992124,
                    "duration": 0.18695100000002185
                },
                {
                    "name": "D4",
                    "midi": 62,
                    "time": 490.3724730000122,
                    "velocity": 0.4251968503937008,
                    "duration": 0.18695100000002185
                },
                {
                    "name": "G4",
                    "midi": 67,
                    "time": 490.5594240000122,
                    "velocity": 0.4015748031496063,
                    "duration": 0.37390199999998686
                },
                {
                    "name": "E4",
                    "midi": 64,
                    "time": 490.9333260000122,
                    "velocity": 0.36220472440944884,
                    "duration": 0.18695100000002185
                },
                {
                    "name": "C4",
                    "midi": 60,
                    "time": 491.1202770000122,
                    "velocity": 0.36220472440944884,
                    "duration": 0.18695100000002185
                },
                {
                    "name": "F4",
                    "midi": 65,
                    "time": 491.30722800001223,
                    "velocity": 0.4015748031496063,
                    "duration": 0.37390199999998686
                },
                {
                    "name": "D4",
                    "midi": 62,
                    "time": 491.6811300000122,
                    "velocity": 0.36220472440944884,
                    "duration": 0.18695100000002185
                },
                {
                    "name": "B3",
                    "midi": 59,
                    "time": 491.86808100001224,
                    "velocity": 0.36220472440944884,
                    "duration": 0.18695100000002185
                },
                {
                    "name": "C4",
                    "midi": 60,
                    "time": 492.05503200001226,
                    "velocity": 0.4330708661417323,
                    "duration": 0.37390199999998686
                },
                {
                    "name": "F5",
                    "midi": 77,
                    "time": 492.42893400001225,
                    "velocity": 0.5354330708661418,
                    "duration": 0.18695100000002185
                },
                {
                    "name": "E5",
                    "midi": 76,
                    "time": 492.61588500001227,
                    "velocity": 0.5039370078740157,
                    "duration": 0.18695100000002185
                },
                {
                    "name": "D5",
                    "midi": 74,
                    "time": 492.8028360000123,
                    "velocity": 0.5196850393700787,
                    "duration": 0.37390199999998686
                },
                {
                    "name": "A#4",
                    "midi": 70,
                    "time": 493.1767380000123,
                    "velocity": 0.48031496062992124,
                    "duration": 0.18695100000002185
                },
                {
                    "name": "G4",
                    "midi": 67,
                    "time": 493.3636890000123,
                    "velocity": 0.4251968503937008,
                    "duration": 0.18695100000002185
                },
                {
                    "name": "C5",
                    "midi": 72,
                    "time": 493.5506400000123,
                    "velocity": 0.4015748031496063,
                    "duration": 0.37390199999998686
                },
                {
                    "name": "A4",
                    "midi": 69,
                    "time": 493.9245420000123,
                    "velocity": 0.36220472440944884,
                    "duration": 0.18695100000002185
                },
                {
                    "name": "F4",
                    "midi": 65,
                    "time": 494.11149300001233,
                    "velocity": 0.36220472440944884,
                    "duration": 0.18695100000002185
                },
                {
                    "name": "A#4",
                    "midi": 70,
                    "time": 494.29844400001235,
                    "velocity": 0.4015748031496063,
                    "duration": 0.37390199999998686
                },
                {
                    "name": "G4",
                    "midi": 67,
                    "time": 494.67234600001234,
                    "velocity": 0.36220472440944884,
                    "duration": 0.18695100000002185
                },
                {
                    "name": "E4",
                    "midi": 64,
                    "time": 494.85929700001236,
                    "velocity": 0.36220472440944884,
                    "duration": 0.18695100000002185
                },
                {
                    "name": "F4",
                    "midi": 65,
                    "time": 495.0462480000124,
                    "velocity": 0.4330708661417323,
                    "duration": 0.37390199999998686
                },
                {
                    "name": "F5",
                    "midi": 77,
                    "time": 495.42015000001237,
                    "velocity": 0.5275590551181102,
                    "duration": 0.18695100000002185
                },
                {
                    "name": "D#5",
                    "midi": 75,
                    "time": 495.6071010000124,
                    "velocity": 0.49606299212598426,
                    "duration": 0.18695100000002185
                },
                {
                    "name": "C#5",
                    "midi": 73,
                    "time": 495.7940520000124,
                    "velocity": 0.5196850393700787,
                    "duration": 0.37390199999998686
                },
                {
                    "name": "A#4",
                    "midi": 70,
                    "time": 496.1679540000124,
                    "velocity": 0.48031496062992124,
                    "duration": 0.18695100000002185
                },
                {
                    "name": "G4",
                    "midi": 67,
                    "time": 496.3549050000124,
                    "velocity": 0.4251968503937008,
                    "duration": 0.18695100000002185
                },
                {
                    "name": "C5",
                    "midi": 72,
                    "time": 496.54185600001244,
                    "velocity": 0.4015748031496063,
                    "duration": 0.37390199999998686
                },
                {
                    "name": "G#4",
                    "midi": 68,
                    "time": 496.91575800001243,
                    "velocity": 0.36220472440944884,
                    "duration": 0.18695100000002185
                },
                {
                    "name": "F4",
                    "midi": 65,
                    "time": 497.10270900001245,
                    "velocity": 0.36220472440944884,
                    "duration": 0.18695100000002185
                },
                {
                    "name": "A#4",
                    "midi": 70,
                    "time": 497.2896600000125,
                    "velocity": 0.4015748031496063,
                    "duration": 0.37390199999998686
                },
                {
                    "name": "G4",
                    "midi": 67,
                    "time": 497.66356200001246,
                    "velocity": 0.36220472440944884,
                    "duration": 0.18695100000002185
                },
                {
                    "name": "E4",
                    "midi": 64,
                    "time": 497.8505130000125,
                    "velocity": 0.36220472440944884,
                    "duration": 0.18695100000002185
                },
                {
                    "name": "F4",
                    "midi": 65,
                    "time": 498.0374640000125,
                    "velocity": 0.31496062992125984,
                    "duration": 0.18695100000002185
                },
                {
                    "name": "C#3",
                    "midi": 49,
                    "time": 498.2244150000125,
                    "velocity": 0.2204724409448819,
                    "duration": 0.09347550000001092
                },
                {
                    "name": "F3",
                    "midi": 53,
                    "time": 498.2244150000125,
                    "velocity": 0.25984251968503935,
                    "duration": 0.09347550000001092
                },
                {
                    "name": "C#3",
                    "midi": 49,
                    "time": 498.41136600001255,
                    "velocity": 0.2204724409448819,
                    "duration": 0.09347550000001092
                },
                {
                    "name": "F3",
                    "midi": 53,
                    "time": 498.41136600001255,
                    "velocity": 0.25984251968503935,
                    "duration": 0.09347550000001092
                },
                {
                    "name": "C#3",
                    "midi": 49,
                    "time": 498.59831700001257,
                    "velocity": 0.2204724409448819,
                    "duration": 0.09347550000001092
                },
                {
                    "name": "F3",
                    "midi": 53,
                    "time": 498.59831700001257,
                    "velocity": 0.2677165354330709,
                    "duration": 0.09347550000001092
                },
                {
                    "name": "C#3",
                    "midi": 49,
                    "time": 498.7852680000126,
                    "velocity": 0.2204724409448819,
                    "duration": 0.09347550000001092
                },
                {
                    "name": "F3",
                    "midi": 53,
                    "time": 498.7852680000126,
                    "velocity": 0.2677165354330709,
                    "duration": 0.09347550000001092
                },
                {
                    "name": "C#3",
                    "midi": 49,
                    "time": 498.9722190000126,
                    "velocity": 0.2204724409448819,
                    "duration": 0.09347550000001092
                },
                {
                    "name": "F3",
                    "midi": 53,
                    "time": 498.9722190000126,
                    "velocity": 0.2677165354330709,
                    "duration": 0.09347550000001092
                },
                {
                    "name": "C#3",
                    "midi": 49,
                    "time": 499.15917000001264,
                    "velocity": 0.2283464566929134,
                    "duration": 0.09347550000001092
                },
                {
                    "name": "F3",
                    "midi": 53,
                    "time": 499.15917000001264,
                    "velocity": 0.2755905511811024,
                    "duration": 0.09347550000001092
                },
                {
                    "name": "C#3",
                    "midi": 49,
                    "time": 499.34612100001266,
                    "velocity": 0.2283464566929134,
                    "duration": 0.09347550000001092
                },
                {
                    "name": "F3",
                    "midi": 53,
                    "time": 499.34612100001266,
                    "velocity": 0.2755905511811024,
                    "duration": 0.09347550000001092
                },
                {
                    "name": "C#3",
                    "midi": 49,
                    "time": 499.5330720000127,
                    "velocity": 0.23622047244094488,
                    "duration": 0.09347550000001092
                },
                {
                    "name": "F3",
                    "midi": 53,
                    "time": 499.5330720000127,
                    "velocity": 0.28346456692913385,
                    "duration": 0.09347550000001092
                },
                {
                    "name": "C#3",
                    "midi": 49,
                    "time": 499.7200230000127,
                    "velocity": 0.23622047244094488,
                    "duration": 0.09347550000001092
                },
                {
                    "name": "F3",
                    "midi": 53,
                    "time": 499.7200230000127,
                    "velocity": 0.28346456692913385,
                    "duration": 0.09347550000001092
                },
                {
                    "name": "C#3",
                    "midi": 49,
                    "time": 499.9069740000127,
                    "velocity": 0.2440944881889764,
                    "duration": 0.09347550000001092
                },
                {
                    "name": "F3",
                    "midi": 53,
                    "time": 499.9069740000127,
                    "velocity": 0.29133858267716534,
                    "duration": 0.09347550000001092
                },
                {
                    "name": "C#3",
                    "midi": 49,
                    "time": 500.09392500001275,
                    "velocity": 0.25196850393700787,
                    "duration": 0.09347550000001092
                },
                {
                    "name": "F3",
                    "midi": 53,
                    "time": 500.09392500001275,
                    "velocity": 0.2992125984251969,
                    "duration": 0.09347550000001092
                },
                {
                    "name": "C#3",
                    "midi": 49,
                    "time": 500.28087600001277,
                    "velocity": 0.25984251968503935,
                    "duration": 0.09347550000001092
                },
                {
                    "name": "F3",
                    "midi": 53,
                    "time": 500.28087600001277,
                    "velocity": 0.30708661417322836,
                    "duration": 0.09347550000001092
                },
                {
                    "name": "C#3",
                    "midi": 49,
                    "time": 500.4678270000128,
                    "velocity": 0.2677165354330709,
                    "duration": 0.09347550000001092
                },
                {
                    "name": "F3",
                    "midi": 53,
                    "time": 500.4678270000128,
                    "velocity": 0.31496062992125984,
                    "duration": 0.09347550000001092
                },
                {
                    "name": "D#3",
                    "midi": 51,
                    "time": 500.6547780000128,
                    "velocity": 0.2677165354330709,
                    "duration": 0.09347550000001092
                },
                {
                    "name": "G3",
                    "midi": 55,
                    "time": 500.6547780000128,
                    "velocity": 0.31496062992125984,
                    "duration": 0.09347550000001092
                },
                {
                    "name": "D#3",
                    "midi": 51,
                    "time": 500.84172900001283,
                    "velocity": 0.2677165354330709,
                    "duration": 0.09347550000001092
                },
                {
                    "name": "G3",
                    "midi": 55,
                    "time": 500.84172900001283,
                    "velocity": 0.31496062992125984,
                    "duration": 0.09347550000001092
                },
                {
                    "name": "G#3",
                    "midi": 56,
                    "time": 501.02868000001286,
                    "velocity": 0.36220472440944884,
                    "duration": 0.5608530000000087
                },
                {
                    "name": "C4",
                    "midi": 60,
                    "time": 501.58953300001286,
                    "velocity": 0.31496062992125984,
                    "duration": 0.09347550000001092
                },
                {
                    "name": "A#3",
                    "midi": 58,
                    "time": 501.6830085000129,
                    "velocity": 0.31496062992125984,
                    "duration": 0.09347550000001092
                },
                {
                    "name": "G#3",
                    "midi": 56,
                    "time": 501.7764840000129,
                    "velocity": 0.3543307086614173,
                    "duration": 0.09347550000001092
                },
                {
                    "name": "D6",
                    "midi": 86,
                    "time": 502.4775502500129,
                    "velocity": 0.5669291338582677,
                    "duration": 0.04673774999997704
                },
                {
                    "name": "D#6",
                    "midi": 87,
                    "time": 502.52428800001286,
                    "velocity": 0.7007874015748031,
                    "duration": 0.4673774999999978
                },
                {
                    "name": "C#6",
                    "midi": 85,
                    "time": 502.99166550001286,
                    "velocity": 0.5905511811023622,
                    "duration": 0.09347550000001092
                },
                {
                    "name": "C6",
                    "midi": 84,
                    "time": 503.08514100001287,
                    "velocity": 0.5748031496062992,
                    "duration": 0.09347550000001092
                },
                {
                    "name": "A#5",
                    "midi": 82,
                    "time": 503.1786165000129,
                    "velocity": 0.5511811023622047,
                    "duration": 0.09347550000001092
                },
                {
                    "name": "A5",
                    "midi": 81,
                    "time": 503.2720920000129,
                    "velocity": 0.5433070866141733,
                    "duration": 0.18695100000002185
                },
                {
                    "name": "A#3",
                    "midi": 58,
                    "time": 504.0198960000129,
                    "velocity": 0.36220472440944884,
                    "duration": 0.5608530000000087
                },
                {
                    "name": "C#4",
                    "midi": 61,
                    "time": 504.58074900001293,
                    "velocity": 0.31496062992125984,
                    "duration": 0.09347550000001092
                },
                {
                    "name": "C4",
                    "midi": 60,
                    "time": 504.67422450001294,
                    "velocity": 0.31496062992125984,
                    "duration": 0.09347550000001092
                },
                {
                    "name": "A#3",
                    "midi": 58,
                    "time": 504.76770000001295,
                    "velocity": 0.3543307086614173,
                    "duration": 0.09347550000001092
                },
                {
                    "name": "E6",
                    "midi": 88,
                    "time": 505.46876625001295,
                    "velocity": 0.5669291338582677,
                    "duration": 0.04673774999997704
                },
                {
                    "name": "F6",
                    "midi": 89,
                    "time": 505.5155040000129,
                    "velocity": 0.7007874015748031,
                    "duration": 0.4673774999999978
                },
                {
                    "name": "D#6",
                    "midi": 87,
                    "time": 505.9828815000129,
                    "velocity": 0.5905511811023622,
                    "duration": 0.09347550000001092
                },
                {
                    "name": "D6",
                    "midi": 86,
                    "time": 506.07635700001293,
                    "velocity": 0.5748031496062992,
                    "duration": 0.09347550000001092
                },
                {
                    "name": "C6",
                    "midi": 84,
                    "time": 506.16983250001294,
                    "velocity": 0.5511811023622047,
                    "duration": 0.09347550000001092
                },
                {
                    "name": "B5",
                    "midi": 83,
                    "time": 506.26330800001296,
                    "velocity": 0.5433070866141733,
                    "duration": 0.18695100000002185
                },
                {
                    "name": "C4",
                    "midi": 60,
                    "time": 507.011112000013,
                    "velocity": 0.6456692913385826,
                    "duration": 0.18695100000002185
                },
                {
                    "name": "D#4",
                    "midi": 63,
                    "time": 507.198063000013,
                    "velocity": 0.5511811023622047,
                    "duration": 0.09347550000001092
                },
                {
                    "name": "D4",
                    "midi": 62,
                    "time": 507.291538500013,
                    "velocity": 0.5511811023622047,
                    "duration": 0.09347550000001092
                },
                {
                    "name": "C4",
                    "midi": 60,
                    "time": 507.38501400001303,
                    "velocity": 0.5826771653543307,
                    "duration": 0.18695100000002185
                },
                {
                    "name": "G#5",
                    "midi": 80,
                    "time": 507.7589160000131,
                    "velocity": 0.6141732283464567,
                    "duration": 0.09347550000001092
                },
                {
                    "name": "G5",
                    "midi": 79,
                    "time": 507.8523915000131,
                    "velocity": 0.5905511811023622,
                    "duration": 0.09347550000001092
                },
                {
                    "name": "F5",
                    "midi": 77,
                    "time": 507.9458670000131,
                    "velocity": 0.5748031496062992,
                    "duration": 0.09347550000001092
                },
                {
                    "name": "D#5",
                    "midi": 75,
                    "time": 508.0393425000131,
                    "velocity": 0.5511811023622047,
                    "duration": 0.09347550000001092
                },
                {
                    "name": "D5",
                    "midi": 74,
                    "time": 508.1328180000131,
                    "velocity": 0.5826771653543307,
                    "duration": 0.18695100000002185
                },
                {
                    "name": "E4",
                    "midi": 64,
                    "time": 508.50672000001316,
                    "velocity": 0.6456692913385826,
                    "duration": 0.18695100000002185
                },
                {
                    "name": "G4",
                    "midi": 67,
                    "time": 508.6936710000132,
                    "velocity": 0.5511811023622047,
                    "duration": 0.09347550000001092
                },
                {
                    "name": "F4",
                    "midi": 65,
                    "time": 508.7871465000132,
                    "velocity": 0.5511811023622047,
                    "duration": 0.09347550000001092
                },
                {
                    "name": "E4",
                    "midi": 64,
                    "time": 508.8806220000132,
                    "velocity": 0.5826771653543307,
                    "duration": 0.18695100000002185
                },
                {
                    "name": "C6",
                    "midi": 84,
                    "time": 509.25452400001325,
                    "velocity": 0.6141732283464567,
                    "duration": 0.09347550000001092
                },
                {
                    "name": "A#5",
                    "midi": 82,
                    "time": 509.34799950001326,
                    "velocity": 0.5905511811023622,
                    "duration": 0.09347550000001092
                },
                {
                    "name": "G#5",
                    "midi": 80,
                    "time": 509.44147500001327,
                    "velocity": 0.5748031496062992,
                    "duration": 0.09347550000001092
                },
                {
                    "name": "G5",
                    "midi": 79,
                    "time": 509.5349505000133,
                    "velocity": 0.5511811023622047,
                    "duration": 0.09347550000001092
                },
                {
                    "name": "F5",
                    "midi": 77,
                    "time": 509.6284260000133,
                    "velocity": 0.5826771653543307,
                    "duration": 0.18695100000002185
                },
                {
                    "name": "D#6",
                    "midi": 87,
                    "time": 510.00232800001334,
                    "velocity": 0.7086614173228346,
                    "duration": 0.09347550000001092
                },
                {
                    "name": "D6",
                    "midi": 86,
                    "time": 510.09580350001335,
                    "velocity": 0.6771653543307087,
                    "duration": 0.09347550000001092
                },
                {
                    "name": "C6",
                    "midi": 84,
                    "time": 510.18927900001336,
                    "velocity": 0.6614173228346457,
                    "duration": 0.09347550000001092
                },
                {
                    "name": "B5",
                    "midi": 83,
                    "time": 510.28275450001337,
                    "velocity": 0.6299212598425197,
                    "duration": 0.09347550000001092
                },
                {
                    "name": "C6",
                    "midi": 84,
                    "time": 510.3762300000134,
                    "velocity": 0.6692913385826772,
                    "duration": 0.18695100000002185
                },
                {
                    "name": "D#5",
                    "midi": 75,
                    "time": 510.7501320000134,
                    "velocity": 0.7086614173228346,
                    "duration": 0.09347550000001092
                },
                {
                    "name": "D5",
                    "midi": 74,
                    "time": 510.84360750001343,
                    "velocity": 0.6771653543307087,
                    "duration": 0.09347550000001092
                },
                {
                    "name": "C5",
                    "midi": 72,
                    "time": 510.93708300001344,
                    "velocity": 0.6614173228346457,
                    "duration": 0.09347550000001092
                },
                {
                    "name": "B4",
                    "midi": 71,
                    "time": 511.03055850001346,
                    "velocity": 0.6299212598425197,
                    "duration": 0.09347550000001092
                },
                {
                    "name": "C5",
                    "midi": 72,
                    "time": 511.12403400001347,
                    "velocity": 0.6692913385826772,
                    "duration": 0.18695100000002185
                },
                {
                    "name": "D#4",
                    "midi": 63,
                    "time": 511.4979360000135,
                    "velocity": 0.7086614173228346,
                    "duration": 0.09347550000001092
                },
                {
                    "name": "D4",
                    "midi": 62,
                    "time": 511.5914115000135,
                    "velocity": 0.6771653543307087,
                    "duration": 0.09347550000001092
                },
                {
                    "name": "C4",
                    "midi": 60,
                    "time": 511.68488700001353,
                    "velocity": 0.6614173228346457,
                    "duration": 0.09347550000001092
                },
                {
                    "name": "B3",
                    "midi": 59,
                    "time": 511.77836250001354,
                    "velocity": 0.6299212598425197,
                    "duration": 0.09347550000001092
                },
                {
                    "name": "C4",
                    "midi": 60,
                    "time": 511.87183800001355,
                    "velocity": 0.6692913385826772,
                    "duration": 0.18695100000002185
                },
                {
                    "name": "D#5",
                    "midi": 75,
                    "time": 512.2457400000136,
                    "velocity": 0.7086614173228346,
                    "duration": 0.09347549999995408
                },
                {
                    "name": "D5",
                    "midi": 74,
                    "time": 512.3392155000136,
                    "velocity": 0.6771653543307087,
                    "duration": 0.09347549999995408
                },
                {
                    "name": "C5",
                    "midi": 72,
                    "time": 512.4326910000135,
                    "velocity": 0.6614173228346457,
                    "duration": 0.09347549999995408
                },
                {
                    "name": "B4",
                    "midi": 71,
                    "time": 512.5261665000135,
                    "velocity": 0.6299212598425197,
                    "duration": 0.09347549999995408
                },
                {
                    "name": "C5",
                    "midi": 72,
                    "time": 512.6196420000134,
                    "velocity": 0.6692913385826772,
                    "duration": 0.09347549999995408
                },
                {
                    "name": "D5",
                    "midi": 74,
                    "time": 512.7131175000134,
                    "velocity": 0.6692913385826772,
                    "duration": 0.09347549999995408
                },
                {
                    "name": "D#5",
                    "midi": 75,
                    "time": 512.8065930000133,
                    "velocity": 0.6692913385826772,
                    "duration": 0.09347549999995408
                },
                {
                    "name": "F#5",
                    "midi": 78,
                    "time": 512.9000685000133,
                    "velocity": 0.6692913385826772,
                    "duration": 0.09347549999995408
                },
                {
                    "name": "G5",
                    "midi": 79,
                    "time": 512.9935440000132,
                    "velocity": 0.6692913385826772,
                    "duration": 0.17137175000004845
                },
                {
                    "name": "G4",
                    "midi": 67,
                    "time": 513.1804950000133,
                    "velocity": 0.2992125984251969,
                    "duration": 0.17137175000004845
                },
                {
                    "name": "G5",
                    "midi": 79,
                    "time": 513.1804950000133,
                    "velocity": 0.3543307086614173,
                    "duration": 0.17137175000004845
                },
                {
                    "name": "G4",
                    "midi": 67,
                    "time": 513.3674460000133,
                    "velocity": 0.2992125984251969,
                    "duration": 0.17137175000004845
                },
                {
                    "name": "G5",
                    "midi": 79,
                    "time": 513.3674460000133,
                    "velocity": 0.3543307086614173,
                    "duration": 0.17137175000004845
                },
                {
                    "name": "G4",
                    "midi": 67,
                    "time": 513.5543970000133,
                    "velocity": 0.2992125984251969,
                    "duration": 0.17137175000004845
                },
                {
                    "name": "G5",
                    "midi": 79,
                    "time": 513.5543970000133,
                    "velocity": 0.3543307086614173,
                    "duration": 0.17137175000004845
                },
                {
                    "name": "G4",
                    "midi": 67,
                    "time": 513.7413480000133,
                    "velocity": 0.2992125984251969,
                    "duration": 0.17137175000004845
                },
                {
                    "name": "G5",
                    "midi": 79,
                    "time": 513.7413480000133,
                    "velocity": 0.3543307086614173,
                    "duration": 0.17137175000004845
                },
                {
                    "name": "G4",
                    "midi": 67,
                    "time": 513.9282990000133,
                    "velocity": 0.2992125984251969,
                    "duration": 0.17137175000004845
                },
                {
                    "name": "G5",
                    "midi": 79,
                    "time": 513.9282990000133,
                    "velocity": 0.3543307086614173,
                    "duration": 0.17137175000004845
                },
                {
                    "name": "G4",
                    "midi": 67,
                    "time": 514.1152500000134,
                    "velocity": 0.2992125984251969,
                    "duration": 0.17137175000004845
                },
                {
                    "name": "G5",
                    "midi": 79,
                    "time": 514.1152500000134,
                    "velocity": 0.3543307086614173,
                    "duration": 0.17137175000004845
                },
                {
                    "name": "G4",
                    "midi": 67,
                    "time": 514.3022010000134,
                    "velocity": 0.2992125984251969,
                    "duration": 0.17137175000004845
                },
                {
                    "name": "G5",
                    "midi": 79,
                    "time": 514.3022010000134,
                    "velocity": 0.3543307086614173,
                    "duration": 0.17137175000004845
                },
                {
                    "name": "G4",
                    "midi": 67,
                    "time": 514.4891520000134,
                    "velocity": 0.29133858267716534,
                    "duration": 0.17137175000004845
                },
                {
                    "name": "A#4",
                    "midi": 70,
                    "time": 514.4891520000134,
                    "velocity": 0.29133858267716534,
                    "duration": 0.17137175000004845
                },
                {
                    "name": "C#5",
                    "midi": 73,
                    "time": 514.4891520000134,
                    "velocity": 0.29133858267716534,
                    "duration": 0.17137175000004845
                },
                {
                    "name": "G5",
                    "midi": 79,
                    "time": 514.4891520000134,
                    "velocity": 0.3543307086614173,
                    "duration": 0.17137175000004845
                },
                {
                    "name": "G4",
                    "midi": 67,
                    "time": 514.6761030000134,
                    "velocity": 0.30708661417322836,
                    "duration": 0.17137175000004845
                },
                {
                    "name": "A#4",
                    "midi": 70,
                    "time": 514.6761030000134,
                    "velocity": 0.30708661417322836,
                    "duration": 0.17137175000004845
                },
                {
                    "name": "C#5",
                    "midi": 73,
                    "time": 514.6761030000134,
                    "velocity": 0.30708661417322836,
                    "duration": 0.17137175000004845
                },
                {
                    "name": "G5",
                    "midi": 79,
                    "time": 514.6761030000134,
                    "velocity": 0.3700787401574803,
                    "duration": 0.17137175000004845
                },
                {
                    "name": "G4",
                    "midi": 67,
                    "time": 514.8630540000134,
                    "velocity": 0.3228346456692913,
                    "duration": 0.17137175000004845
                },
                {
                    "name": "A#4",
                    "midi": 70,
                    "time": 514.8630540000134,
                    "velocity": 0.3228346456692913,
                    "duration": 0.17137175000004845
                },
                {
                    "name": "C#5",
                    "midi": 73,
                    "time": 514.8630540000134,
                    "velocity": 0.3228346456692913,
                    "duration": 0.17137175000004845
                },
                {
                    "name": "G5",
                    "midi": 79,
                    "time": 514.8630540000134,
                    "velocity": 0.3858267716535433,
                    "duration": 0.17137175000004845
                },
                {
                    "name": "G4",
                    "midi": 67,
                    "time": 515.0500050000135,
                    "velocity": 0.33858267716535434,
                    "duration": 0.17137175000004845
                },
                {
                    "name": "A#4",
                    "midi": 70,
                    "time": 515.0500050000135,
                    "velocity": 0.33858267716535434,
                    "duration": 0.17137175000004845
                },
                {
                    "name": "C#5",
                    "midi": 73,
                    "time": 515.0500050000135,
                    "velocity": 0.33858267716535434,
                    "duration": 0.17137175000004845
                },
                {
                    "name": "G5",
                    "midi": 79,
                    "time": 515.0500050000135,
                    "velocity": 0.4094488188976378,
                    "duration": 0.17137175000004845
                },
                {
                    "name": "G4",
                    "midi": 67,
                    "time": 515.2369560000135,
                    "velocity": 0.3543307086614173,
                    "duration": 0.17137175000004845
                },
                {
                    "name": "A#4",
                    "midi": 70,
                    "time": 515.2369560000135,
                    "velocity": 0.3543307086614173,
                    "duration": 0.17137175000004845
                },
                {
                    "name": "C#5",
                    "midi": 73,
                    "time": 515.2369560000135,
                    "velocity": 0.3543307086614173,
                    "duration": 0.17137175000004845
                },
                {
                    "name": "G5",
                    "midi": 79,
                    "time": 515.2369560000135,
                    "velocity": 0.4251968503937008,
                    "duration": 0.17137175000004845
                },
                {
                    "name": "G4",
                    "midi": 67,
                    "time": 515.4239070000135,
                    "velocity": 0.36220472440944884,
                    "duration": 0.17137175000004845
                },
                {
                    "name": "A#4",
                    "midi": 70,
                    "time": 515.4239070000135,
                    "velocity": 0.36220472440944884,
                    "duration": 0.17137175000004845
                },
                {
                    "name": "C#5",
                    "midi": 73,
                    "time": 515.4239070000135,
                    "velocity": 0.36220472440944884,
                    "duration": 0.17137175000004845
                },
                {
                    "name": "G5",
                    "midi": 79,
                    "time": 515.4239070000135,
                    "velocity": 0.4330708661417323,
                    "duration": 0.17137175000004845
                },
                {
                    "name": "G4",
                    "midi": 67,
                    "time": 515.6108580000135,
                    "velocity": 0.3858267716535433,
                    "duration": 0.17137175000004845
                },
                {
                    "name": "A#4",
                    "midi": 70,
                    "time": 515.6108580000135,
                    "velocity": 0.3858267716535433,
                    "duration": 0.17137175000004845
                },
                {
                    "name": "C#5",
                    "midi": 73,
                    "time": 515.6108580000135,
                    "velocity": 0.3858267716535433,
                    "duration": 0.17137175000004845
                },
                {
                    "name": "G5",
                    "midi": 79,
                    "time": 515.6108580000135,
                    "velocity": 0.4645669291338583,
                    "duration": 0.17137175000004845
                },
                {
                    "name": "G4",
                    "midi": 67,
                    "time": 515.7978090000136,
                    "velocity": 0.4015748031496063,
                    "duration": 0.17137175000004845
                },
                {
                    "name": "A#4",
                    "midi": 70,
                    "time": 515.7978090000136,
                    "velocity": 0.4015748031496063,
                    "duration": 0.17137175000004845
                },
                {
                    "name": "C#5",
                    "midi": 73,
                    "time": 515.7978090000136,
                    "velocity": 0.4015748031496063,
                    "duration": 0.17137175000004845
                },
                {
                    "name": "G5",
                    "midi": 79,
                    "time": 515.7978090000136,
                    "velocity": 0.48031496062992124,
                    "duration": 0.17137175000004845
                },
                {
                    "name": "G4",
                    "midi": 67,
                    "time": 515.9847600000136,
                    "velocity": 0.3228346456692913,
                    "duration": 0.18695100000002185
                },
                {
                    "name": "B4",
                    "midi": 71,
                    "time": 515.9847600000136,
                    "velocity": 0.3228346456692913,
                    "duration": 0.18695100000002185
                },
                {
                    "name": "D5",
                    "midi": 74,
                    "time": 515.9847600000136,
                    "velocity": 0.3228346456692913,
                    "duration": 0.18695100000002185
                },
                {
                    "name": "G5",
                    "midi": 79,
                    "time": 515.9847600000136,
                    "velocity": 0.3858267716535433,
                    "duration": 0.18695100000002185
                },
                {
                    "name": "G6",
                    "midi": 91,
                    "time": 516.1717110000136,
                    "velocity": 0.4566929133858268,
                    "duration": 0.3739020000000437
                },
                {
                    "name": "G5",
                    "midi": 79,
                    "time": 516.1717110000136,
                    "velocity": 0.3858267716535433,
                    "duration": 0.3739020000000437
                },
                {
                    "name": "F6",
                    "midi": 89,
                    "time": 516.5456130000136,
                    "velocity": 0.41732283464566927,
                    "duration": 0.3739020000000437
                },
                {
                    "name": "F5",
                    "midi": 77,
                    "time": 516.5456130000136,
                    "velocity": 0.41732283464566927,
                    "duration": 0.3739020000000437
                },
                {
                    "name": "E6",
                    "midi": 88,
                    "time": 516.9195150000137,
                    "velocity": 0.4330708661417323,
                    "duration": 0.3739020000000437
                },
                {
                    "name": "E5",
                    "midi": 76,
                    "time": 516.9195150000137,
                    "velocity": 0.36220472440944884,
                    "duration": 0.3739020000000437
                },
                {
                    "name": "D6",
                    "midi": 86,
                    "time": 517.2934170000137,
                    "velocity": 0.41732283464566927,
                    "duration": 0.3739020000000437
                },
                {
                    "name": "D5",
                    "midi": 74,
                    "time": 517.2934170000137,
                    "velocity": 0.3543307086614173,
                    "duration": 0.3739020000000437
                },
                {
                    "name": "C6",
                    "midi": 84,
                    "time": 517.6673190000138,
                    "velocity": 0.4094488188976378,
                    "duration": 0.3739020000000437
                },
                {
                    "name": "C5",
                    "midi": 72,
                    "time": 517.6673190000138,
                    "velocity": 0.3464566929133858,
                    "duration": 0.3739020000000437
                },
                {
                    "name": "B5",
                    "midi": 83,
                    "time": 518.0412210000138,
                    "velocity": 0.3937007874015748,
                    "duration": 0.3739020000000437
                },
                {
                    "name": "B4",
                    "midi": 71,
                    "time": 518.0412210000138,
                    "velocity": 0.33070866141732286,
                    "duration": 0.3739020000000437
                },
                {
                    "name": "A5",
                    "midi": 81,
                    "time": 518.4151230000139,
                    "velocity": 0.3858267716535433,
                    "duration": 0.3739020000000437
                },
                {
                    "name": "A4",
                    "midi": 69,
                    "time": 518.4151230000139,
                    "velocity": 0.3228346456692913,
                    "duration": 0.3739020000000437
                },
                {
                    "name": "G5",
                    "midi": 79,
                    "time": 518.7890250000139,
                    "velocity": 0.3700787401574803,
                    "duration": 0.18695100000002185
                },
                {
                    "name": "G4",
                    "midi": 67,
                    "time": 518.7890250000139,
                    "velocity": 0.30708661417322836,
                    "duration": 0.18695100000002185
                },
                {
                    "name": "F4",
                    "midi": 65,
                    "time": 518.9759760000139,
                    "velocity": 0.2992125984251969,
                    "duration": 0.09347549999995408
                },
                {
                    "name": "F5",
                    "midi": 77,
                    "time": 518.9759760000139,
                    "velocity": 0.3543307086614173,
                    "duration": 0.09347549999995408
                },
                {
                    "name": "D4",
                    "midi": 62,
                    "time": 519.0694515000139,
                    "velocity": 0.29133858267716534,
                    "duration": 0.09347549999995408
                },
                {
                    "name": "E4",
                    "midi": 64,
                    "time": 519.1629270000138,
                    "velocity": 0.30708661417322836,
                    "duration": 0.09347549999995408
                },
                {
                    "name": "F4",
                    "midi": 65,
                    "time": 519.2564025000138,
                    "velocity": 0.31496062992125984,
                    "duration": 0.09347549999995408
                },
                {
                    "name": "G4",
                    "midi": 67,
                    "time": 519.3498780000137,
                    "velocity": 0.33070866141732286,
                    "duration": 0.09347549999995408
                },
                {
                    "name": "A4",
                    "midi": 69,
                    "time": 519.4433535000137,
                    "velocity": 0.3464566929133858,
                    "duration": 0.09347549999995408
                },
                {
                    "name": "B4",
                    "midi": 71,
                    "time": 519.5368290000137,
                    "velocity": 0.3543307086614173,
                    "duration": 0.09347549999995408
                },
                {
                    "name": "C#5",
                    "midi": 73,
                    "time": 519.6303045000136,
                    "velocity": 0.3700787401574803,
                    "duration": 0.09347549999995408
                },
                {
                    "name": "D5",
                    "midi": 74,
                    "time": 519.7237800000136,
                    "velocity": 0.3779527559055118,
                    "duration": 0.09347549999995408
                },
                {
                    "name": "F4",
                    "midi": 65,
                    "time": 519.8172555000135,
                    "velocity": 0.33070866141732286,
                    "duration": 0.09347549999995408
                },
                {
                    "name": "G4",
                    "midi": 67,
                    "time": 519.9107310000135,
                    "velocity": 0.33858267716535434,
                    "duration": 0.09347549999995408
                },
                {
                    "name": "A4",
                    "midi": 69,
                    "time": 520.0042065000134,
                    "velocity": 0.3543307086614173,
                    "duration": 0.09347549999995408
                },
                {
                    "name": "B4",
                    "midi": 71,
                    "time": 520.0976820000134,
                    "velocity": 0.36220472440944884,
                    "duration": 0.09347549999995408
                },
                {
                    "name": "C#5",
                    "midi": 73,
                    "time": 520.1911575000133,
                    "velocity": 0.3779527559055118,
                    "duration": 0.09347549999995408
                },
                {
                    "name": "D5",
                    "midi": 74,
                    "time": 520.2846330000133,
                    "velocity": 0.3858267716535433,
                    "duration": 0.09347549999995408
                },
                {
                    "name": "E5",
                    "midi": 76,
                    "time": 520.3781085000132,
                    "velocity": 0.3937007874015748,
                    "duration": 0.09347549999995408
                },
                {
                    "name": "F5",
                    "midi": 77,
                    "time": 520.4715840000132,
                    "velocity": 0.4094488188976378,
                    "duration": 0.09347549999995408
                },
                {
                    "name": "D5",
                    "midi": 74,
                    "time": 520.5650595000131,
                    "velocity": 0.36220472440944884,
                    "duration": 0.09347549999995408
                },
                {
                    "name": "E5",
                    "midi": 76,
                    "time": 520.6585350000131,
                    "velocity": 0.36220472440944884,
                    "duration": 0.09347549999995408
                },
                {
                    "name": "F5",
                    "midi": 77,
                    "time": 520.7520105000131,
                    "velocity": 0.3700787401574803,
                    "duration": 0.09347549999995408
                },
                {
                    "name": "G5",
                    "midi": 79,
                    "time": 520.845486000013,
                    "velocity": 0.3779527559055118,
                    "duration": 0.09347549999995408
                },
                {
                    "name": "A5",
                    "midi": 81,
                    "time": 520.938961500013,
                    "velocity": 0.3858267716535433,
                    "duration": 0.09347549999995408
                },
                {
                    "name": "B5",
                    "midi": 83,
                    "time": 521.0324370000129,
                    "velocity": 0.3937007874015748,
                    "duration": 0.09347549999995408
                },
                {
                    "name": "C#6",
                    "midi": 85,
                    "time": 521.1259125000129,
                    "velocity": 0.4015748031496063,
                    "duration": 0.09347549999995408
                },
                {
                    "name": "D6",
                    "midi": 86,
                    "time": 521.2193880000128,
                    "velocity": 0.4094488188976378,
                    "duration": 0.09347549999995408
                },
                {
                    "name": "C#6",
                    "midi": 85,
                    "time": 521.3128635000128,
                    "velocity": 0.36220472440944884,
                    "duration": 0.09347549999995408
                },
                {
                    "name": "D6",
                    "midi": 86,
                    "time": 521.4063390000127,
                    "velocity": 0.3700787401574803,
                    "duration": 0.09347549999995408
                },
                {
                    "name": "E6",
                    "midi": 88,
                    "time": 521.4998145000127,
                    "velocity": 0.3779527559055118,
                    "duration": 0.09347549999995408
                },
                {
                    "name": "F6",
                    "midi": 89,
                    "time": 521.5932900000126,
                    "velocity": 0.3858267716535433,
                    "duration": 0.09347549999995408
                },
                {
                    "name": "C#6",
                    "midi": 85,
                    "time": 521.6867655000126,
                    "velocity": 0.4015748031496063,
                    "duration": 0.09347549999995408
                },
                {
                    "name": "D6",
                    "midi": 86,
                    "time": 521.7802410000126,
                    "velocity": 0.4094488188976378,
                    "duration": 0.09347549999995408
                },
                {
                    "name": "E6",
                    "midi": 88,
                    "time": 521.8737165000125,
                    "velocity": 0.41732283464566927,
                    "duration": 0.09347549999995408
                },
                {
                    "name": "F6",
                    "midi": 89,
                    "time": 521.9671920000125,
                    "velocity": 0.3858267716535433,
                    "duration": 0.18695100000002185
                },
                {
                    "name": "F6",
                    "midi": 89,
                    "time": 522.1541430000125,
                    "velocity": 0.4566929133858268,
                    "duration": 0.3739020000000437
                },
                {
                    "name": "F5",
                    "midi": 77,
                    "time": 522.1541430000125,
                    "velocity": 0.3858267716535433,
                    "duration": 0.3739020000000437
                },
                {
                    "name": "E6",
                    "midi": 88,
                    "time": 522.5280450000125,
                    "velocity": 0.41732283464566927,
                    "duration": 0.3739020000000437
                },
                {
                    "name": "E5",
                    "midi": 76,
                    "time": 522.5280450000125,
                    "velocity": 0.41732283464566927,
                    "duration": 0.3739020000000437
                },
                {
                    "name": "D6",
                    "midi": 86,
                    "time": 522.9019470000126,
                    "velocity": 0.4330708661417323,
                    "duration": 0.3739020000000437
                },
                {
                    "name": "D5",
                    "midi": 74,
                    "time": 522.9019470000126,
                    "velocity": 0.36220472440944884,
                    "duration": 0.3739020000000437
                },
                {
                    "name": "C6",
                    "midi": 84,
                    "time": 523.2758490000126,
                    "velocity": 0.41732283464566927,
                    "duration": 0.3739020000000437
                },
                {
                    "name": "C5",
                    "midi": 72,
                    "time": 523.2758490000126,
                    "velocity": 0.3543307086614173,
                    "duration": 0.3739020000000437
                },
                {
                    "name": "B5",
                    "midi": 83,
                    "time": 523.6497510000127,
                    "velocity": 0.4094488188976378,
                    "duration": 0.3739020000000437
                },
                {
                    "name": "B4",
                    "midi": 71,
                    "time": 523.6497510000127,
                    "velocity": 0.3464566929133858,
                    "duration": 0.3739020000000437
                },
                {
                    "name": "A5",
                    "midi": 81,
                    "time": 524.0236530000127,
                    "velocity": 0.3937007874015748,
                    "duration": 0.3739020000000437
                },
                {
                    "name": "A4",
                    "midi": 69,
                    "time": 524.0236530000127,
                    "velocity": 0.33070866141732286,
                    "duration": 0.3739020000000437
                },
                {
                    "name": "G5",
                    "midi": 79,
                    "time": 524.3975550000127,
                    "velocity": 0.3858267716535433,
                    "duration": 0.3739020000000437
                },
                {
                    "name": "G4",
                    "midi": 67,
                    "time": 524.3975550000127,
                    "velocity": 0.3228346456692913,
                    "duration": 0.3739020000000437
                },
                {
                    "name": "F5",
                    "midi": 77,
                    "time": 524.7714570000128,
                    "velocity": 0.3700787401574803,
                    "duration": 0.18695100000002185
                },
                {
                    "name": "F4",
                    "midi": 65,
                    "time": 524.7714570000128,
                    "velocity": 0.30708661417322836,
                    "duration": 0.18695100000002185
                },
                {
                    "name": "E4",
                    "midi": 64,
                    "time": 524.9584080000128,
                    "velocity": 0.2992125984251969,
                    "duration": 0.09347549999995408
                },
                {
                    "name": "E5",
                    "midi": 76,
                    "time": 524.9584080000128,
                    "velocity": 0.3543307086614173,
                    "duration": 0.09347549999995408
                },
                {
                    "name": "E4",
                    "midi": 64,
                    "time": 525.0518835000128,
                    "velocity": 0.29133858267716534,
                    "duration": 0.09347549999995408
                },
                {
                    "name": "F4",
                    "midi": 65,
                    "time": 525.1453590000127,
                    "velocity": 0.30708661417322836,
                    "duration": 0.09347549999995408
                },
                {
                    "name": "G4",
                    "midi": 67,
                    "time": 525.2388345000127,
                    "velocity": 0.31496062992125984,
                    "duration": 0.09347549999995408
                },
                {
                    "name": "A4",
                    "midi": 69,
                    "time": 525.3323100000126,
                    "velocity": 0.33070866141732286,
                    "duration": 0.09347549999995408
                },
                {
                    "name": "B4",
                    "midi": 71,
                    "time": 525.4257855000126,
                    "velocity": 0.3464566929133858,
                    "duration": 0.09347549999995408
                },
                {
                    "name": "C5",
                    "midi": 72,
                    "time": 525.5192610000125,
                    "velocity": 0.3543307086614173,
                    "duration": 0.09347549999995408
                },
                {
                    "name": "D5",
                    "midi": 74,
                    "time": 525.6127365000125,
                    "velocity": 0.3700787401574803,
                    "duration": 0.09347549999995408
                },
                {
                    "name": "E5",
                    "midi": 76,
                    "time": 525.7062120000124,
                    "velocity": 0.3779527559055118,
                    "duration": 0.09347549999995408
                },
                {
                    "name": "A4",
                    "midi": 69,
                    "time": 525.7996875000124,
                    "velocity": 0.33070866141732286,
                    "duration": 0.09347549999995408
                },
                {
                    "name": "B4",
                    "midi": 71,
                    "time": 525.8931630000124,
                    "velocity": 0.33858267716535434,
                    "duration": 0.09347549999995408
                },
                {
                    "name": "C5",
                    "midi": 72,
                    "time": 525.9866385000123,
                    "velocity": 0.3543307086614173,
                    "duration": 0.09347549999995408
                },
                {
                    "name": "D5",
                    "midi": 74,
                    "time": 526.0801140000123,
                    "velocity": 0.36220472440944884,
                    "duration": 0.09347549999995408
                },
                {
                    "name": "E5",
                    "midi": 76,
                    "time": 526.1735895000122,
                    "velocity": 0.3779527559055118,
                    "duration": 0.09347549999995408
                },
                {
                    "name": "F#5",
                    "midi": 78,
                    "time": 526.2670650000122,
                    "velocity": 0.3858267716535433,
                    "duration": 0.09347549999995408
                },
                {
                    "name": "G#5",
                    "midi": 80,
                    "time": 526.3605405000121,
                    "velocity": 0.3937007874015748,
                    "duration": 0.09347549999995408
                },
                {
                    "name": "A5",
                    "midi": 81,
                    "time": 526.4540160000121,
                    "velocity": 0.4094488188976378,
                    "duration": 0.09347549999995408
                },
                {
                    "name": "E5",
                    "midi": 76,
                    "time": 526.547491500012,
                    "velocity": 0.36220472440944884,
                    "duration": 0.09347549999995408
                },
                {
                    "name": "F#5",
                    "midi": 78,
                    "time": 526.640967000012,
                    "velocity": 0.36220472440944884,
                    "duration": 0.09347549999995408
                },
                {
                    "name": "G#5",
                    "midi": 80,
                    "time": 526.7344425000119,
                    "velocity": 0.3700787401574803,
                    "duration": 0.09347549999995408
                },
                {
                    "name": "A5",
                    "midi": 81,
                    "time": 526.8279180000119,
                    "velocity": 0.3779527559055118,
                    "duration": 0.09347549999995408
                },
                {
                    "name": "B5",
                    "midi": 83,
                    "time": 526.9213935000118,
                    "velocity": 0.3858267716535433,
                    "duration": 0.09347549999995408
                },
                {
                    "name": "C6",
                    "midi": 84,
                    "time": 527.0148690000118,
                    "velocity": 0.3937007874015748,
                    "duration": 0.09347549999995408
                },
                {
                    "name": "D6",
                    "midi": 86,
                    "time": 527.1083445000118,
                    "velocity": 0.4015748031496063,
                    "duration": 0.09347549999995408
                },
                {
                    "name": "E6",
                    "midi": 88,
                    "time": 527.2018200000117,
                    "velocity": 0.4094488188976378,
                    "duration": 0.09347549999995408
                },
                {
                    "name": "D6",
                    "midi": 86,
                    "time": 527.2952955000117,
                    "velocity": 0.36220472440944884,
                    "duration": 0.09347549999995408
                },
                {
                    "name": "C6",
                    "midi": 84,
                    "time": 527.3887710000116,
                    "velocity": 0.3700787401574803,
                    "duration": 0.09347549999995408
                },
                {
                    "name": "B5",
                    "midi": 83,
                    "time": 527.4822465000116,
                    "velocity": 0.3779527559055118,
                    "duration": 0.09347549999995408
                },
                {
                    "name": "A5",
                    "midi": 81,
                    "time": 527.5757220000115,
                    "velocity": 0.3858267716535433,
                    "duration": 0.09347549999995408
                },
                {
                    "name": "B5",
                    "midi": 83,
                    "time": 527.6691975000115,
                    "velocity": 0.4015748031496063,
                    "duration": 0.09347549999995408
                },
                {
                    "name": "C6",
                    "midi": 84,
                    "time": 527.7626730000114,
                    "velocity": 0.4094488188976378,
                    "duration": 0.09347549999995408
                },
                {
                    "name": "A5",
                    "midi": 81,
                    "time": 527.8561485000114,
                    "velocity": 0.41732283464566927,
                    "duration": 0.09347549999995408
                },
                {
                    "name": "F4",
                    "midi": 65,
                    "time": 528.0430995000113,
                    "velocity": 0.2992125984251969,
                    "duration": 0.09347549999995408
                },
                {
                    "name": "G4",
                    "midi": 67,
                    "time": 528.1365750000112,
                    "velocity": 0.3228346456692913,
                    "duration": 0.09347549999995408
                },
                {
                    "name": "A4",
                    "midi": 69,
                    "time": 528.2300505000112,
                    "velocity": 0.33070866141732286,
                    "duration": 0.09347549999995408
                },
                {
                    "name": "B4",
                    "midi": 71,
                    "time": 528.3235260000112,
                    "velocity": 0.3464566929133858,
                    "duration": 0.09347549999995408
                },
                {
                    "name": "C5",
                    "midi": 72,
                    "time": 528.4170015000111,
                    "velocity": 0.3700787401574803,
                    "duration": 0.09347549999995408
                },
                {
                    "name": "D5",
                    "midi": 74,
                    "time": 528.5104770000111,
                    "velocity": 0.3779527559055118,
                    "duration": 0.09347549999995408
                },
                {
                    "name": "E5",
                    "midi": 76,
                    "time": 528.603952500011,
                    "velocity": 0.3937007874015748,
                    "duration": 0.09347549999995408
                },
                {
                    "name": "F5",
                    "midi": 77,
                    "time": 528.697428000011,
                    "velocity": 0.4094488188976378,
                    "duration": 0.09347549999995408
                },
                {
                    "name": "B4",
                    "midi": 71,
                    "time": 528.7909035000109,
                    "velocity": 0.3543307086614173,
                    "duration": 0.09347549999995408
                },
                {
                    "name": "C5",
                    "midi": 72,
                    "time": 528.8843790000109,
                    "velocity": 0.3700787401574803,
                    "duration": 0.09347549999995408
                },
                {
                    "name": "D5",
                    "midi": 74,
                    "time": 528.9778545000108,
                    "velocity": 0.3858267716535433,
                    "duration": 0.09347549999995408
                },
                {
                    "name": "E5",
                    "midi": 76,
                    "time": 529.0713300000108,
                    "velocity": 0.4015748031496063,
                    "duration": 0.09347549999995408
                },
                {
                    "name": "F5",
                    "midi": 77,
                    "time": 529.1648055000107,
                    "velocity": 0.41732283464566927,
                    "duration": 0.09347549999995408
                },
                {
                    "name": "G5",
                    "midi": 79,
                    "time": 529.2582810000107,
                    "velocity": 0.4251968503937008,
                    "duration": 0.09347549999995408
                },
                {
                    "name": "A5",
                    "midi": 81,
                    "time": 529.3517565000107,
                    "velocity": 0.4409448818897638,
                    "duration": 0.09347549999995408
                },
                {
                    "name": "B5",
                    "midi": 83,
                    "time": 529.4452320000106,
                    "velocity": 0.4566929133858268,
                    "duration": 0.09347549999995408
                },
                {
                    "name": "F5",
                    "midi": 77,
                    "time": 529.5387075000106,
                    "velocity": 0.4015748031496063,
                    "duration": 0.09347549999995408
                },
                {
                    "name": "G5",
                    "midi": 79,
                    "time": 529.6321830000105,
                    "velocity": 0.4094488188976378,
                    "duration": 0.09347549999995408
                },
                {
                    "name": "A5",
                    "midi": 81,
                    "time": 529.7256585000105,
                    "velocity": 0.41732283464566927,
                    "duration": 0.09347549999995408
                },
                {
                    "name": "B5",
                    "midi": 83,
                    "time": 529.8191340000104,
                    "velocity": 0.4330708661417323,
                    "duration": 0.09347549999995408
                },
                {
                    "name": "C6",
                    "midi": 84,
                    "time": 529.9126095000104,
                    "velocity": 0.4409448818897638,
                    "duration": 0.09347549999995408
                },
                {
                    "name": "D6",
                    "midi": 86,
                    "time": 530.0060850000103,
                    "velocity": 0.4566929133858268,
                    "duration": 0.09347549999995408
                },
                {
                    "name": "E6",
                    "midi": 88,
                    "time": 530.0995605000103,
                    "velocity": 0.4645669291338583,
                    "duration": 0.09347549999995408
                },
                {
                    "name": "F6",
                    "midi": 89,
                    "time": 530.1930360000102,
                    "velocity": 0.47244094488188976,
                    "duration": 0.09347549999995408
                },
                {
                    "name": "E6",
                    "midi": 88,
                    "time": 530.2865115000102,
                    "velocity": 0.4251968503937008,
                    "duration": 0.09347549999995408
                },
                {
                    "name": "D6",
                    "midi": 86,
                    "time": 530.3799870000101,
                    "velocity": 0.4330708661417323,
                    "duration": 0.09347549999995408
                },
                {
                    "name": "C6",
                    "midi": 84,
                    "time": 530.4734625000101,
                    "velocity": 0.44881889763779526,
                    "duration": 0.09347549999995408
                },
                {
                    "name": "B5",
                    "midi": 83,
                    "time": 530.56693800001,
                    "velocity": 0.4566929133858268,
                    "duration": 0.09347549999995408
                },
                {
                    "name": "C6",
                    "midi": 84,
                    "time": 530.66041350001,
                    "velocity": 0.48031496062992124,
                    "duration": 0.09347549999995408
                },
                {
                    "name": "D6",
                    "midi": 86,
                    "time": 530.75388900001,
                    "velocity": 0.4881889763779528,
                    "duration": 0.09347549999995408
                },
                {
                    "name": "B5",
                    "midi": 83,
                    "time": 530.8473645000099,
                    "velocity": 0.5039370078740157,
                    "duration": 0.09347549999995408
                },
                {
                    "name": "G5",
                    "midi": 79,
                    "time": 531.0343155000098,
                    "velocity": 0.4409448818897638,
                    "duration": 0.09347549999995408
                },
                {
                    "name": "A5",
                    "midi": 81,
                    "time": 531.1277910000098,
                    "velocity": 0.4409448818897638,
                    "duration": 0.09347549999995408
                },
                {
                    "name": "B5",
                    "midi": 83,
                    "time": 531.2212665000097,
                    "velocity": 0.44881889763779526,
                    "duration": 0.09347549999995408
                },
                {
                    "name": "C6",
                    "midi": 84,
                    "time": 531.3147420000097,
                    "velocity": 0.4645669291338583,
                    "duration": 0.09347549999995408
                },
                {
                    "name": "D6",
                    "midi": 86,
                    "time": 531.4082175000096,
                    "velocity": 0.47244094488188976,
                    "duration": 0.09347549999995408
                },
                {
                    "name": "E6",
                    "midi": 88,
                    "time": 531.5016930000096,
                    "velocity": 0.4881889763779528,
                    "duration": 0.09347549999995408
                },
                {
                    "name": "F6",
                    "midi": 89,
                    "time": 531.5951685000095,
                    "velocity": 0.49606299212598426,
                    "duration": 0.09347549999995408
                },
                {
                    "name": "G6",
                    "midi": 91,
                    "time": 531.6886440000095,
                    "velocity": 0.5118110236220472,
                    "duration": 0.09347549999995408
                },
                {
                    "name": "F6",
                    "midi": 89,
                    "time": 531.7821195000095,
                    "velocity": 0.44881889763779526,
                    "duration": 0.09347549999995408
                },
                {
                    "name": "E6",
                    "midi": 88,
                    "time": 531.8755950000094,
                    "velocity": 0.4645669291338583,
                    "duration": 0.09347549999995408
                },
                {
                    "name": "D6",
                    "midi": 86,
                    "time": 531.9690705000094,
                    "velocity": 0.47244094488188976,
                    "duration": 0.09347549999995408
                },
                {
                    "name": "C#6",
                    "midi": 85,
                    "time": 532.0625460000093,
                    "velocity": 0.4881889763779528,
                    "duration": 0.09347549999995408
                },
                {
                    "name": "D6",
                    "midi": 86,
                    "time": 532.1560215000093,
                    "velocity": 0.5118110236220472,
                    "duration": 0.09347549999995408
                },
                {
                    "name": "E6",
                    "midi": 88,
                    "time": 532.2494970000092,
                    "velocity": 0.5196850393700787,
                    "duration": 0.09347549999995408
                },
                {
                    "name": "C#6",
                    "midi": 85,
                    "time": 532.3429725000092,
                    "velocity": 0.5354330708661418,
                    "duration": 0.09347549999995408
                },
                {
                    "name": "C#5",
                    "midi": 73,
                    "time": 532.5299235000091,
                    "velocity": 0.4645669291338583,
                    "duration": 0.09347549999995408
                },
                {
                    "name": "D5",
                    "midi": 74,
                    "time": 532.623399000009,
                    "velocity": 0.4645669291338583,
                    "duration": 0.09347549999995408
                },
                {
                    "name": "E5",
                    "midi": 76,
                    "time": 532.716874500009,
                    "velocity": 0.48031496062992124,
                    "duration": 0.09347549999995408
                },
                {
                    "name": "F5",
                    "midi": 77,
                    "time": 532.810350000009,
                    "velocity": 0.49606299212598426,
                    "duration": 0.09347549999995408
                },
                {
                    "name": "G5",
                    "midi": 79,
                    "time": 532.9038255000089,
                    "velocity": 0.5039370078740157,
                    "duration": 0.09347549999995408
                },
                {
                    "name": "A5",
                    "midi": 81,
                    "time": 532.9973010000089,
                    "velocity": 0.5196850393700787,
                    "duration": 0.09347549999995408
                },
                {
                    "name": "F5",
                    "midi": 77,
                    "time": 533.0907765000088,
                    "velocity": 0.5275590551181102,
                    "duration": 0.18695100000002185
                },
                {
                    "name": "D#5",
                    "midi": 75,
                    "time": 533.2777275000088,
                    "velocity": 0.48031496062992124,
                    "duration": 0.09347549999995408
                },
                {
                    "name": "E5",
                    "midi": 76,
                    "time": 533.3712030000088,
                    "velocity": 0.48031496062992124,
                    "duration": 0.09347549999995408
                },
                {
                    "name": "F5",
                    "midi": 77,
                    "time": 533.4646785000087,
                    "velocity": 0.5039370078740157,
                    "duration": 0.09347549999995408
                },
                {
                    "name": "G5",
                    "midi": 79,
                    "time": 533.5581540000087,
                    "velocity": 0.5118110236220472,
                    "duration": 0.09347549999995408
                },
                {
                    "name": "A5",
                    "midi": 81,
                    "time": 533.6516295000087,
                    "velocity": 0.5196850393700787,
                    "duration": 0.09347549999995408
                },
                {
                    "name": "B5",
                    "midi": 83,
                    "time": 533.7451050000086,
                    "velocity": 0.5433070866141733,
                    "duration": 0.09347549999995408
                },
                {
                    "name": "G5",
                    "midi": 79,
                    "time": 533.8385805000086,
                    "velocity": 0.5511811023622047,
                    "duration": 0.18695100000002185
                },
                {
                    "name": "E5",
                    "midi": 76,
                    "time": 534.0255315000086,
                    "velocity": 0.49606299212598426,
                    "duration": 0.09347549999995408
                },
                {
                    "name": "F5",
                    "midi": 77,
                    "time": 534.1190070000085,
                    "velocity": 0.5039370078740157,
                    "duration": 0.09347549999995408
                },
                {
                    "name": "G5",
                    "midi": 79,
                    "time": 534.2124825000085,
                    "velocity": 0.5196850393700787,
                    "duration": 0.09347549999995408
                },
                {
                    "name": "A5",
                    "midi": 81,
                    "time": 534.3059580000084,
                    "velocity": 0.5354330708661418,
                    "duration": 0.09347549999995408
                },
                {
                    "name": "B5",
                    "midi": 83,
                    "time": 534.3994335000084,
                    "velocity": 0.5433070866141733,
                    "duration": 0.09347549999995408
                },
                {
                    "name": "C6",
                    "midi": 84,
                    "time": 534.4929090000084,
                    "velocity": 0.5669291338582677,
                    "duration": 0.09347549999995408
                },
                {
                    "name": "A5",
                    "midi": 81,
                    "time": 534.5863845000083,
                    "velocity": 0.5748031496062992,
                    "duration": 0.18695100000002185
                },
                {
                    "name": "F#5",
                    "midi": 78,
                    "time": 534.7733355000083,
                    "velocity": 0.5196850393700787,
                    "duration": 0.09347549999995408
                },
                {
                    "name": "G5",
                    "midi": 79,
                    "time": 534.8668110000083,
                    "velocity": 0.5196850393700787,
                    "duration": 0.09347549999995408
                },
                {
                    "name": "A5",
                    "midi": 81,
                    "time": 534.9602865000082,
                    "velocity": 0.5354330708661418,
                    "duration": 0.09347549999995408
                },
                {
                    "name": "B5",
                    "midi": 83,
                    "time": 535.0537620000082,
                    "velocity": 0.5511811023622047,
                    "duration": 0.09347549999995408
                },
                {
                    "name": "C6",
                    "midi": 84,
                    "time": 535.1472375000081,
                    "velocity": 0.5590551181102362,
                    "duration": 0.09347549999995408
                },
                {
                    "name": "D6",
                    "midi": 86,
                    "time": 535.2407130000081,
                    "velocity": 0.5826771653543307,
                    "duration": 0.09347549999995408
                },
                {
                    "name": "B5",
                    "midi": 83,
                    "time": 535.334188500008,
                    "velocity": 0.5905511811023622,
                    "duration": 0.18695100000002185
                },
                {
                    "name": "G#5",
                    "midi": 80,
                    "time": 535.5211395000081,
                    "velocity": 0.5433070866141733,
                    "duration": 0.09347549999995408
                },
                {
                    "name": "A5",
                    "midi": 81,
                    "time": 535.614615000008,
                    "velocity": 0.5433070866141733,
                    "duration": 0.09347549999995408
                },
                {
                    "name": "B5",
                    "midi": 83,
                    "time": 535.708090500008,
                    "velocity": 0.5590551181102362,
                    "duration": 0.09347549999995408
                },
                {
                    "name": "C6",
                    "midi": 84,
                    "time": 535.8015660000079,
                    "velocity": 0.5748031496062992,
                    "duration": 0.09347549999995408
                },
                {
                    "name": "D6",
                    "midi": 86,
                    "time": 535.8950415000079,
                    "velocity": 0.5826771653543307,
                    "duration": 0.09347549999995408
                },
                {
                    "name": "E6",
                    "midi": 88,
                    "time": 535.9885170000078,
                    "velocity": 0.6062992125984252,
                    "duration": 0.09347549999995408
                },
                {
                    "name": "C6",
                    "midi": 84,
                    "time": 536.0819925000078,
                    "velocity": 0.6220472440944882,
                    "duration": 0.18695100000002185
                },
                {
                    "name": "A#5",
                    "midi": 82,
                    "time": 536.2689435000078,
                    "velocity": 0.5590551181102362,
                    "duration": 0.09347549999995408
                },
                {
                    "name": "B5",
                    "midi": 83,
                    "time": 536.3624190000078,
                    "velocity": 0.5590551181102362,
                    "duration": 0.09347549999995408
                },
                {
                    "name": "C6",
                    "midi": 84,
                    "time": 536.4558945000077,
                    "velocity": 0.5826771653543307,
                    "duration": 0.09347549999995408
                },
                {
                    "name": "D6",
                    "midi": 86,
                    "time": 536.5493700000077,
                    "velocity": 0.5905511811023622,
                    "duration": 0.09347549999995408
                },
                {
                    "name": "E6",
                    "midi": 88,
                    "time": 536.6428455000076,
                    "velocity": 0.6062992125984252,
                    "duration": 0.09347549999995408
                },
                {
                    "name": "F6",
                    "midi": 89,
                    "time": 536.7363210000076,
                    "velocity": 0.6220472440944882,
                    "duration": 0.09347549999995408
                },
                {
                    "name": "D6",
                    "midi": 86,
                    "time": 536.8297965000075,
                    "velocity": 0.6377952755905512,
                    "duration": 0.09347549999995408
                },
                {
                    "name": "G5",
                    "midi": 79,
                    "time": 537.1102230000075,
                    "velocity": 0.5984251968503937,
                    "duration": 0.06231700000000728
                },
                {
                    "name": "C6",
                    "midi": 84,
                    "time": 537.1725400000075,
                    "velocity": 0.5433070866141733,
                    "duration": 0.06231700000000728
                },
                {
                    "name": "G6",
                    "midi": 91,
                    "time": 537.2348570000075,
                    "velocity": 0.5511811023622047,
                    "duration": 0.06231700000000728
                },
                {
                    "name": "G5",
                    "midi": 79,
                    "time": 537.4841250000076,
                    "velocity": 0.6141732283464567,
                    "duration": 0.06231700000000728
                },
                {
                    "name": "C6",
                    "midi": 84,
                    "time": 537.5464420000076,
                    "velocity": 0.5669291338582677,
                    "duration": 0.06231700000000728
                },
                {
                    "name": "G6",
                    "midi": 91,
                    "time": 537.6087590000076,
                    "velocity": 0.5590551181102362,
                    "duration": 0.06231700000000728
                },
                {
                    "name": "G#5",
                    "midi": 80,
                    "time": 537.8580270000076,
                    "velocity": 0.6299212598425197,
                    "duration": 0.06231700000000728
                },
                {
                    "name": "C6",
                    "midi": 84,
                    "time": 537.9203440000076,
                    "velocity": 0.5748031496062992,
                    "duration": 0.06231700000000728
                },
                {
                    "name": "G#6",
                    "midi": 92,
                    "time": 537.9826610000076,
                    "velocity": 0.5826771653543307,
                    "duration": 0.06231700000000728
                },
                {
                    "name": "G#5",
                    "midi": 80,
                    "time": 538.2319290000077,
                    "velocity": 0.6456692913385826,
                    "duration": 0.06231700000000728
                },
                {
                    "name": "C6",
                    "midi": 84,
                    "time": 538.2942460000077,
                    "velocity": 0.5905511811023622,
                    "duration": 0.06231700000000728
                },
                {
                    "name": "G#6",
                    "midi": 92,
                    "time": 538.3565630000077,
                    "velocity": 0.5905511811023622,
                    "duration": 0.06231700000000728
                },
                {
                    "name": "A5",
                    "midi": 81,
                    "time": 538.4188800000077,
                    "velocity": 0.6692913385826772,
                    "duration": 0.09347549999995408
                },
                {
                    "name": "A6",
                    "midi": 93,
                    "time": 538.5123555000076,
                    "velocity": 0.6929133858267716,
                    "duration": 0.09347549999995408
                },
                {
                    "name": "G6",
                    "midi": 91,
                    "time": 538.6058310000076,
                    "velocity": 0.6850393700787402,
                    "duration": 0.09347549999995408
                },
                {
                    "name": "F6",
                    "midi": 89,
                    "time": 538.6993065000075,
                    "velocity": 0.6771653543307087,
                    "duration": 0.09347549999995408
                },
                {
                    "name": "E6",
                    "midi": 88,
                    "time": 538.7927820000075,
                    "velocity": 0.6771653543307087,
                    "duration": 0.09347549999995408
                },
                {
                    "name": "D6",
                    "midi": 86,
                    "time": 538.8862575000074,
                    "velocity": 0.6692913385826772,
                    "duration": 0.09347549999995408
                },
                {
                    "name": "C6",
                    "midi": 84,
                    "time": 538.9797330000074,
                    "velocity": 0.6614173228346457,
                    "duration": 0.09347549999995408
                },
                {
                    "name": "B5",
                    "midi": 83,
                    "time": 539.0732085000074,
                    "velocity": 0.6535433070866141,
                    "duration": 0.09347549999995408
                },
                {
                    "name": "A5",
                    "midi": 81,
                    "time": 539.1666840000073,
                    "velocity": 0.6456692913385826,
                    "duration": 0.09347549999995408
                },
                {
                    "name": "G5",
                    "midi": 79,
                    "time": 539.2601595000073,
                    "velocity": 0.6377952755905512,
                    "duration": 0.09347549999995408
                },
                {
                    "name": "F5",
                    "midi": 77,
                    "time": 539.3536350000072,
                    "velocity": 0.6299212598425197,
                    "duration": 0.09347549999995408
                },
                {
                    "name": "E5",
                    "midi": 76,
                    "time": 539.4471105000072,
                    "velocity": 0.6220472440944882,
                    "duration": 0.09347549999995408
                },
                {
                    "name": "D5",
                    "midi": 74,
                    "time": 539.5405860000071,
                    "velocity": 0.6141732283464567,
                    "duration": 0.09347549999995408
                },
                {
                    "name": "C5",
                    "midi": 72,
                    "time": 539.6340615000071,
                    "velocity": 0.6062992125984252,
                    "duration": 0.09347549999995408
                },
                {
                    "name": "B4",
                    "midi": 71,
                    "time": 539.727537000007,
                    "velocity": 0.6062992125984252,
                    "duration": 0.09347549999995408
                },
                {
                    "name": "A4",
                    "midi": 69,
                    "time": 539.821012500007,
                    "velocity": 0.5984251968503937,
                    "duration": 0.09347549999995408
                },
                {
                    "name": "G#4",
                    "midi": 68,
                    "time": 539.9144880000069,
                    "velocity": 0.5905511811023622,
                    "duration": 0.09347549999995408
                },
                {
                    "name": "A4",
                    "midi": 69,
                    "time": 540.0079635000069,
                    "velocity": 0.6141732283464567,
                    "duration": 0.09347549999995408
                },
                {
                    "name": "G4",
                    "midi": 67,
                    "time": 540.1014390000068,
                    "velocity": 0.6062992125984252,
                    "duration": 0.09347549999995408
                },
                {
                    "name": "F4",
                    "midi": 65,
                    "time": 540.1949145000068,
                    "velocity": 0.6062992125984252,
                    "duration": 0.09347549999995408
                },
                {
                    "name": "E4",
                    "midi": 64,
                    "time": 540.2883900000068,
                    "velocity": 0.6062992125984252,
                    "duration": 0.09347549999995408
                },
                {
                    "name": "D4",
                    "midi": 62,
                    "time": 540.3818655000067,
                    "velocity": 0.6062992125984252,
                    "duration": 0.09347549999995408
                },
                {
                    "name": "C4",
                    "midi": 60,
                    "time": 540.4753410000067,
                    "velocity": 0.5984251968503937,
                    "duration": 0.09347549999995408
                },
                {
                    "name": "B3",
                    "midi": 59,
                    "time": 540.5688165000066,
                    "velocity": 0.5984251968503937,
                    "duration": 0.09347549999995408
                },
                {
                    "name": "A3",
                    "midi": 57,
                    "time": 540.6622920000066,
                    "velocity": 0.5984251968503937,
                    "duration": 0.09347549999995408
                },
                {
                    "name": "G3",
                    "midi": 55,
                    "time": 540.7557675000065,
                    "velocity": 0.5905511811023622,
                    "duration": 0.09347549999995408
                },
                {
                    "name": "F3",
                    "midi": 53,
                    "time": 540.8492430000065,
                    "velocity": 0.5905511811023622,
                    "duration": 0.09347549999995408
                },
                {
                    "name": "E3",
                    "midi": 52,
                    "time": 540.9427185000064,
                    "velocity": 0.5905511811023622,
                    "duration": 0.09347549999995408
                },
                {
                    "name": "D3",
                    "midi": 50,
                    "time": 541.0361940000064,
                    "velocity": 0.5905511811023622,
                    "duration": 0.09347549999995408
                },
                {
                    "name": "C3",
                    "midi": 48,
                    "time": 541.1296695000063,
                    "velocity": 0.5826771653543307,
                    "duration": 0.09347549999995408
                },
                {
                    "name": "B2",
                    "midi": 47,
                    "time": 541.2231450000063,
                    "velocity": 0.5826771653543307,
                    "duration": 0.09347549999995408
                },
                {
                    "name": "A2",
                    "midi": 45,
                    "time": 541.3166205000063,
                    "velocity": 0.5826771653543307,
                    "duration": 0.09347549999995408
                },
                {
                    "name": "G2",
                    "midi": 43,
                    "time": 541.4100960000062,
                    "velocity": 0.5905511811023622,
                    "duration": 0.09347549999995408
                },
                {
                    "name": "C3",
                    "midi": 48,
                    "time": 541.5035715000062,
                    "velocity": 0.5905511811023622,
                    "duration": 0.09347549999995408
                },
                {
                    "name": "B2",
                    "midi": 47,
                    "time": 541.5970470000061,
                    "velocity": 0.3700787401574803,
                    "duration": 0.09347549999995408
                },
                {
                    "name": "D3",
                    "midi": 50,
                    "time": 541.6905225000061,
                    "velocity": 0.3700787401574803,
                    "duration": 0.09347549999995408
                },
                {
                    "name": "C3",
                    "midi": 48,
                    "time": 541.783998000006,
                    "velocity": 0.3700787401574803,
                    "duration": 0.09347549999995408
                },
                {
                    "name": "E3",
                    "midi": 52,
                    "time": 541.877473500006,
                    "velocity": 0.3779527559055118,
                    "duration": 0.09347549999995408
                },
                {
                    "name": "D#3",
                    "midi": 51,
                    "time": 541.9709490000059,
                    "velocity": 0.3779527559055118,
                    "duration": 0.09347549999995408
                },
                {
                    "name": "F3",
                    "midi": 53,
                    "time": 542.0644245000059,
                    "velocity": 0.3779527559055118,
                    "duration": 0.09347549999995408
                },
                {
                    "name": "E3",
                    "midi": 52,
                    "time": 542.1579000000058,
                    "velocity": 0.3779527559055118,
                    "duration": 0.09347549999995408
                },
                {
                    "name": "G3",
                    "midi": 55,
                    "time": 542.2513755000058,
                    "velocity": 0.3858267716535433,
                    "duration": 0.09347549999995408
                },
                {
                    "name": "F#3",
                    "midi": 54,
                    "time": 542.3448510000057,
                    "velocity": 0.3858267716535433,
                    "duration": 0.09347549999995408
                },
                {
                    "name": "A3",
                    "midi": 57,
                    "time": 542.4383265000057,
                    "velocity": 0.3858267716535433,
                    "duration": 0.09347549999995408
                },
                {
                    "name": "G3",
                    "midi": 55,
                    "time": 542.5318020000057,
                    "velocity": 0.3937007874015748,
                    "duration": 0.09347549999995408
                },
                {
                    "name": "C4",
                    "midi": 60,
                    "time": 542.6252775000056,
                    "velocity": 0.3937007874015748,
                    "duration": 0.09347549999995408
                },
                {
                    "name": "B3",
                    "midi": 59,
                    "time": 542.7187530000056,
                    "velocity": 0.3937007874015748,
                    "duration": 0.09347549999995408
                },
                {
                    "name": "D4",
                    "midi": 62,
                    "time": 542.8122285000055,
                    "velocity": 0.4015748031496063,
                    "duration": 0.09347549999995408
                },
                {
                    "name": "C4",
                    "midi": 60,
                    "time": 542.9057040000055,
                    "velocity": 0.4015748031496063,
                    "duration": 0.09347549999995408
                },
                {
                    "name": "E4",
                    "midi": 64,
                    "time": 542.9991795000054,
                    "velocity": 0.4015748031496063,
                    "duration": 0.09347549999995408
                },
                {
                    "name": "D#4",
                    "midi": 63,
                    "time": 543.0926550000054,
                    "velocity": 0.4094488188976378,
                    "duration": 0.09347549999995408
                },
                {
                    "name": "F4",
                    "midi": 65,
                    "time": 543.1861305000053,
                    "velocity": 0.4094488188976378,
                    "duration": 0.09347549999995408
                },
                {
                    "name": "E4",
                    "midi": 64,
                    "time": 543.2796060000053,
                    "velocity": 0.4094488188976378,
                    "duration": 0.09347549999995408
                },
                {
                    "name": "G4",
                    "midi": 67,
                    "time": 543.3730815000052,
                    "velocity": 0.41732283464566927,
                    "duration": 0.09347549999995408
                },
                {
                    "name": "F#4",
                    "midi": 66,
                    "time": 543.4665570000052,
                    "velocity": 0.41732283464566927,
                    "duration": 0.09347549999995408
                },
                {
                    "name": "A4",
                    "midi": 69,
                    "time": 543.5600325000051,
                    "velocity": 0.41732283464566927,
                    "duration": 0.09347549999995408
                },
                {
                    "name": "G4",
                    "midi": 67,
                    "time": 543.6535080000051,
                    "velocity": 0.4251968503937008,
                    "duration": 0.09347549999995408
                },
                {
                    "name": "C5",
                    "midi": 72,
                    "time": 543.7469835000051,
                    "velocity": 0.4251968503937008,
                    "duration": 0.09347549999995408
                },
                {
                    "name": "B4",
                    "midi": 71,
                    "time": 543.840459000005,
                    "velocity": 0.4251968503937008,
                    "duration": 0.09347549999995408
                },
                {
                    "name": "D5",
                    "midi": 74,
                    "time": 543.933934500005,
                    "velocity": 0.4330708661417323,
                    "duration": 0.09347549999995408
                },
                {
                    "name": "C5",
                    "midi": 72,
                    "time": 544.0274100000049,
                    "velocity": 0.4330708661417323,
                    "duration": 0.09347549999995408
                },
                {
                    "name": "E5",
                    "midi": 76,
                    "time": 544.1208855000049,
                    "velocity": 0.4330708661417323,
                    "duration": 0.09347549999995408
                },
                {
                    "name": "D#5",
                    "midi": 75,
                    "time": 544.2143610000048,
                    "velocity": 0.4409448818897638,
                    "duration": 0.09347549999995408
                },
                {
                    "name": "F5",
                    "midi": 77,
                    "time": 544.3078365000048,
                    "velocity": 0.4409448818897638,
                    "duration": 0.09347549999995408
                },
                {
                    "name": "E5",
                    "midi": 76,
                    "time": 544.4013120000047,
                    "velocity": 0.4409448818897638,
                    "duration": 0.09347549999995408
                },
                {
                    "name": "G5",
                    "midi": 79,
                    "time": 544.4947875000047,
                    "velocity": 0.4566929133858268,
                    "duration": 0.09347549999995408
                },
                {
                    "name": "F#5",
                    "midi": 78,
                    "time": 544.5882630000046,
                    "velocity": 0.47244094488188976,
                    "duration": 0.09347549999995408
                },
                {
                    "name": "A5",
                    "midi": 81,
                    "time": 544.6817385000046,
                    "velocity": 0.4881889763779528,
                    "duration": 0.09347549999995408
                },
                {
                    "name": "G5",
                    "midi": 79,
                    "time": 544.7752140000046,
                    "velocity": 0.5511811023622047,
                    "duration": 0.046737750000033884
                },
                {
                    "name": "C6",
                    "midi": 84,
                    "time": 544.8686895000046,
                    "velocity": 0.4881889763779528,
                    "duration": 0.09347549999995408
                },
                {
                    "name": "B5",
                    "midi": 83,
                    "time": 544.9621650000046,
                    "velocity": 0.4881889763779528,
                    "duration": 0.09347549999995408
                },
                {
                    "name": "C6",
                    "midi": 84,
                    "time": 545.0556405000045,
                    "velocity": 0.49606299212598426,
                    "duration": 0.09347549999995408
                },
                {
                    "name": "G5",
                    "midi": 79,
                    "time": 545.1491160000045,
                    "velocity": 0.5511811023622047,
                    "duration": 0.046737750000033884
                },
                {
                    "name": "E6",
                    "midi": 88,
                    "time": 545.2425915000046,
                    "velocity": 0.49606299212598426,
                    "duration": 0.09347549999995408
                },
                {
                    "name": "D#6",
                    "midi": 87,
                    "time": 545.3360670000045,
                    "velocity": 0.5039370078740157,
                    "duration": 0.09347549999995408
                },
                {
                    "name": "E6",
                    "midi": 88,
                    "time": 545.4295425000045,
                    "velocity": 0.5118110236220472,
                    "duration": 0.09347549999995408
                },
                {
                    "name": "G5",
                    "midi": 79,
                    "time": 545.5230180000044,
                    "velocity": 0.5669291338582677,
                    "duration": 0.046737750000033884
                },
                {
                    "name": "C6",
                    "midi": 84,
                    "time": 545.6164935000045,
                    "velocity": 0.5118110236220472,
                    "duration": 0.09347549999995408
                },
                {
                    "name": "B5",
                    "midi": 83,
                    "time": 545.7099690000044,
                    "velocity": 0.5196850393700787,
                    "duration": 0.09347549999995408
                },
                {
                    "name": "C6",
                    "midi": 84,
                    "time": 545.8034445000044,
                    "velocity": 0.5196850393700787,
                    "duration": 0.09347549999995408
                },
                {
                    "name": "G5",
                    "midi": 79,
                    "time": 545.8969200000043,
                    "velocity": 0.5826771653543307,
                    "duration": 0.046737750000033884
                },
                {
                    "name": "E6",
                    "midi": 88,
                    "time": 545.9903955000044,
                    "velocity": 0.5275590551181102,
                    "duration": 0.09347549999995408
                },
                {
                    "name": "D#6",
                    "midi": 87,
                    "time": 546.0838710000044,
                    "velocity": 0.5354330708661418,
                    "duration": 0.09347549999995408
                },
                {
                    "name": "E6",
                    "midi": 88,
                    "time": 546.1773465000043,
                    "velocity": 0.5354330708661418,
                    "duration": 0.09347549999995408
                },
                {
                    "name": "G5",
                    "midi": 79,
                    "time": 546.2708220000043,
                    "velocity": 0.5984251968503937,
                    "duration": 0.046737750000033884
                },
                {
                    "name": "C6",
                    "midi": 84,
                    "time": 546.3642975000043,
                    "velocity": 0.5433070866141733,
                    "duration": 0.09347549999995408
                },
                {
                    "name": "B5",
                    "midi": 83,
                    "time": 546.4577730000043,
                    "velocity": 0.5433070866141733,
                    "duration": 0.09347549999995408
                },
                {
                    "name": "C6",
                    "midi": 84,
                    "time": 546.5512485000042,
                    "velocity": 0.5511811023622047,
                    "duration": 0.09347549999995408
                },
                {
                    "name": "G5",
                    "midi": 79,
                    "time": 546.6447240000042,
                    "velocity": 0.6141732283464567,
                    "duration": 0.046737750000033884
                },
                {
                    "name": "E6",
                    "midi": 88,
                    "time": 546.7381995000043,
                    "velocity": 0.5590551181102362,
                    "duration": 0.09347549999995408
                },
                {
                    "name": "D#6",
                    "midi": 87,
                    "time": 546.8316750000042,
                    "velocity": 0.5590551181102362,
                    "duration": 0.09347549999995408
                },
                {
                    "name": "E6",
                    "midi": 88,
                    "time": 546.9251505000042,
                    "velocity": 0.5590551181102362,
                    "duration": 0.09347549999995408
                },
                {
                    "name": "G5",
                    "midi": 79,
                    "time": 547.0186260000041,
                    "velocity": 0.6299212598425197,
                    "duration": 0.046737750000033884
                },
                {
                    "name": "C6",
                    "midi": 84,
                    "time": 547.1121015000042,
                    "velocity": 0.5669291338582677,
                    "duration": 0.09347549999995408
                },
                {
                    "name": "B5",
                    "midi": 83,
                    "time": 547.2055770000042,
                    "velocity": 0.5748031496062992,
                    "duration": 0.09347549999995408
                },
                {
                    "name": "C6",
                    "midi": 84,
                    "time": 547.2990525000041,
                    "velocity": 0.5748031496062992,
                    "duration": 0.09347549999995408
                },
                {
                    "name": "F6",
                    "midi": 89,
                    "time": 547.3925280000041,
                    "velocity": 0.6850393700787402,
                    "duration": 0.9347549999999956
                },
                {
                    "name": "B5",
                    "midi": 83,
                    "time": 547.3925280000041,
                    "velocity": 0.6850393700787402,
                    "duration": 0.9347549999999956
                },
                {
                    "name": "F6",
                    "midi": 89,
                    "time": 548.3272830000041,
                    "velocity": 0.5748031496062992,
                    "duration": 0.046737750000033884
                },
                {
                    "name": "E6",
                    "midi": 88,
                    "time": 548.3740207500041,
                    "velocity": 0.5748031496062992,
                    "duration": 0.046737750000033884
                },
                {
                    "name": "D6",
                    "midi": 86,
                    "time": 548.4207585000041,
                    "velocity": 0.5669291338582677,
                    "duration": 0.046737750000033884
                },
                {
                    "name": "C6",
                    "midi": 84,
                    "time": 548.4674962500042,
                    "velocity": 0.5590551181102362,
                    "duration": 0.046737750000033884
                },
                {
                    "name": "B5",
                    "midi": 83,
                    "time": 548.5142340000042,
                    "velocity": 0.5511811023622047,
                    "duration": 0.046737750000033884
                },
                {
                    "name": "A5",
                    "midi": 81,
                    "time": 548.5609717500042,
                    "velocity": 0.5433070866141733,
                    "duration": 0.046737750000033884
                },
                {
                    "name": "G5",
                    "midi": 79,
                    "time": 548.6077095000043,
                    "velocity": 0.5354330708661418,
                    "duration": 0.046737750000033884
                },
                {
                    "name": "F5",
                    "midi": 77,
                    "time": 548.6544472500043,
                    "velocity": 0.5354330708661418,
                    "duration": 0.046737750000033884
                },
                {
                    "name": "E5",
                    "midi": 76,
                    "time": 548.7011850000043,
                    "velocity": 0.5196850393700787,
                    "duration": 0.046737750000033884
                },
                {
                    "name": "D5",
                    "midi": 74,
                    "time": 548.7479227500044,
                    "velocity": 0.5196850393700787,
                    "duration": 0.046737750000033884
                },
                {
                    "name": "C5",
                    "midi": 72,
                    "time": 548.7946605000044,
                    "velocity": 0.5118110236220472,
                    "duration": 0.046737750000033884
                },
                {
                    "name": "B4",
                    "midi": 71,
                    "time": 548.8413982500044,
                    "velocity": 0.5118110236220472,
                    "duration": 0.046737750000033884
                },
                {
                    "name": "B4",
                    "midi": 71,
                    "time": 548.8881360000045,
                    "velocity": 0.6141732283464567,
                    "duration": 1.1217060000000174
                },
                {
                    "name": "F5",
                    "midi": 77,
                    "time": 548.8881360000045,
                    "velocity": 0.6141732283464567,
                    "duration": 1.1217060000000174
                },
                {
                    "name": "F5",
                    "midi": 77,
                    "time": 550.0098420000045,
                    "velocity": 0.5039370078740157,
                    "duration": 0.046737750000033884
                },
                {
                    "name": "E5",
                    "midi": 76,
                    "time": 550.0565797500045,
                    "velocity": 0.4881889763779528,
                    "duration": 0.046737750000033884
                },
                {
                    "name": "D5",
                    "midi": 74,
                    "time": 550.1033175000046,
                    "velocity": 0.47244094488188976,
                    "duration": 0.046737750000033884
                },
                {
                    "name": "C5",
                    "midi": 72,
                    "time": 550.1500552500046,
                    "velocity": 0.47244094488188976,
                    "duration": 0.046737750000033884
                },
                {
                    "name": "B4",
                    "midi": 71,
                    "time": 550.1967930000046,
                    "velocity": 0.47244094488188976,
                    "duration": 0.046737750000033884
                },
                {
                    "name": "A4",
                    "midi": 69,
                    "time": 550.2435307500047,
                    "velocity": 0.4645669291338583,
                    "duration": 0.046737750000033884
                },
                {
                    "name": "G4",
                    "midi": 67,
                    "time": 550.2902685000047,
                    "velocity": 0.4409448818897638,
                    "duration": 0.046737750000033884
                },
                {
                    "name": "F4",
                    "midi": 65,
                    "time": 550.3370062500047,
                    "velocity": 0.4251968503937008,
                    "duration": 0.046737750000033884
                },
                {
                    "name": "G3",
                    "midi": 55,
                    "time": 550.3837440000048,
                    "velocity": 0.33070866141732286,
                    "duration": 0.7478039999999737
                },
                {
                    "name": "C4",
                    "midi": 60,
                    "time": 550.3837440000048,
                    "velocity": 0.33070866141732286,
                    "duration": 0.7478039999999737
                },
                {
                    "name": "E4",
                    "midi": 64,
                    "time": 550.3837440000048,
                    "velocity": 0.3937007874015748,
                    "duration": 0.7478039999999737
                },
                {
                    "name": "F3",
                    "midi": 53,
                    "time": 551.1315480000047,
                    "velocity": 0.31496062992125984,
                    "duration": 0.3739020000000437
                },
                {
                    "name": "B3",
                    "midi": 59,
                    "time": 551.1315480000047,
                    "velocity": 0.31496062992125984,
                    "duration": 0.3739020000000437
                },
                {
                    "name": "D4",
                    "midi": 62,
                    "time": 551.1315480000047,
                    "velocity": 0.3779527559055118,
                    "duration": 0.3739020000000437
                },
                {
                    "name": "E3",
                    "midi": 52,
                    "time": 551.5054500000048,
                    "velocity": 0.31496062992125984,
                    "duration": 0.3739020000000437
                },
                {
                    "name": "A3",
                    "midi": 57,
                    "time": 551.5054500000048,
                    "velocity": 0.31496062992125984,
                    "duration": 0.3739020000000437
                },
                {
                    "name": "C4",
                    "midi": 60,
                    "time": 551.5054500000048,
                    "velocity": 0.3779527559055118,
                    "duration": 0.3739020000000437
                },
                {
                    "name": "D3",
                    "midi": 50,
                    "time": 551.8793520000048,
                    "velocity": 0.33070866141732286,
                    "duration": 0.7478039999999737
                },
                {
                    "name": "G#3",
                    "midi": 56,
                    "time": 551.8793520000048,
                    "velocity": 0.33070866141732286,
                    "duration": 0.7478039999999737
                },
                {
                    "name": "B3",
                    "midi": 59,
                    "time": 551.8793520000048,
                    "velocity": 0.3937007874015748,
                    "duration": 0.7478039999999737
                },
                {
                    "name": "C3",
                    "midi": 48,
                    "time": 552.6271560000048,
                    "velocity": 0.31496062992125984,
                    "duration": 0.7478039999999737
                },
                {
                    "name": "A3",
                    "midi": 57,
                    "time": 552.6271560000048,
                    "velocity": 0.3779527559055118,
                    "duration": 0.7478039999999737
                },
                {
                    "name": "F4",
                    "midi": 65,
                    "time": 553.3749600000048,
                    "velocity": 0.3543307086614173,
                    "duration": 0.7478039999999737
                },
                {
                    "name": "G4",
                    "midi": 67,
                    "time": 553.3749600000048,
                    "velocity": 0.3543307086614173,
                    "duration": 0.7478039999999737
                },
                {
                    "name": "B4",
                    "midi": 71,
                    "time": 553.3749600000048,
                    "velocity": 0.41732283464566927,
                    "duration": 0.7478039999999737
                },
                {
                    "name": "G4",
                    "midi": 67,
                    "time": 554.1227640000047,
                    "velocity": 0.3700787401574803,
                    "duration": 0.3739020000000437
                },
                {
                    "name": "C5",
                    "midi": 72,
                    "time": 554.1227640000047,
                    "velocity": 0.4409448818897638,
                    "duration": 0.3739020000000437
                },
                {
                    "name": "A4",
                    "midi": 69,
                    "time": 554.4966660000048,
                    "velocity": 0.4015748031496063,
                    "duration": 0.3739020000000437
                },
                {
                    "name": "C5",
                    "midi": 72,
                    "time": 554.4966660000048,
                    "velocity": 0.4015748031496063,
                    "duration": 0.3739020000000437
                },
                {
                    "name": "D5",
                    "midi": 74,
                    "time": 554.4966660000048,
                    "velocity": 0.4881889763779528,
                    "duration": 0.3739020000000437
                },
                {
                    "name": "G4",
                    "midi": 67,
                    "time": 554.8705680000048,
                    "velocity": 0.4409448818897638,
                    "duration": 1.1217060000000174
                },
                {
                    "name": "C5",
                    "midi": 72,
                    "time": 554.8705680000048,
                    "velocity": 0.4409448818897638,
                    "duration": 0.7478039999999737
                },
                {
                    "name": "E5",
                    "midi": 76,
                    "time": 554.8705680000048,
                    "velocity": 0.5275590551181102,
                    "duration": 0.7478039999999737
                },
                {
                    "name": "B4",
                    "midi": 71,
                    "time": 555.6183720000048,
                    "velocity": 0.3937007874015748,
                    "duration": 0.7478040000000874
                },
                {
                    "name": "D5",
                    "midi": 74,
                    "time": 555.6183720000048,
                    "velocity": 0.47244094488188976,
                    "duration": 0.7478040000000874
                },
                {
                    "name": "G5",
                    "midi": 79,
                    "time": 555.9922740000048,
                    "velocity": 0.3937007874015748,
                    "duration": 0.18695100000002185
                },
                {
                    "name": "F5",
                    "midi": 77,
                    "time": 556.1792250000049,
                    "velocity": 0.3858267716535433,
                    "duration": 0.18695100000002185
                },
                {
                    "name": "E6",
                    "midi": 88,
                    "time": 556.7400780000049,
                    "velocity": 0.4094488188976378,
                    "duration": 0.3739020000000437
                },
                {
                    "name": "C6",
                    "midi": 84,
                    "time": 556.7400780000049,
                    "velocity": 0.3464566929133858,
                    "duration": 0.3739020000000437
                },
                {
                    "name": "D6",
                    "midi": 86,
                    "time": 557.113980000005,
                    "velocity": 0.3937007874015748,
                    "duration": 0.3739020000000437
                },
                {
                    "name": "B5",
                    "midi": 83,
                    "time": 557.113980000005,
                    "velocity": 0.33070866141732286,
                    "duration": 0.3739020000000437
                },
                {
                    "name": "F5",
                    "midi": 77,
                    "time": 557.113980000005,
                    "velocity": 0.33070866141732286,
                    "duration": 0.3739020000000437
                },
                {
                    "name": "C6",
                    "midi": 84,
                    "time": 557.487882000005,
                    "velocity": 0.3937007874015748,
                    "duration": 0.3739020000000437
                },
                {
                    "name": "A5",
                    "midi": 81,
                    "time": 557.487882000005,
                    "velocity": 0.33070866141732286,
                    "duration": 0.3739020000000437
                },
                {
                    "name": "E5",
                    "midi": 76,
                    "time": 557.487882000005,
                    "velocity": 0.33070866141732286,
                    "duration": 0.3739020000000437
                },
                {
                    "name": "D5",
                    "midi": 74,
                    "time": 557.8617840000051,
                    "velocity": 0.3543307086614173,
                    "duration": 0.7478039999999737
                },
                {
                    "name": "G#5",
                    "midi": 80,
                    "time": 557.8617840000051,
                    "velocity": 0.3543307086614173,
                    "duration": 0.7478039999999737
                },
                {
                    "name": "B5",
                    "midi": 83,
                    "time": 557.8617840000051,
                    "velocity": 0.41732283464566927,
                    "duration": 0.7478039999999737
                },
                {
                    "name": "C5",
                    "midi": 72,
                    "time": 558.609588000005,
                    "velocity": 0.33070866141732286,
                    "duration": 0.7478039999999737
                },
                {
                    "name": "A5",
                    "midi": 81,
                    "time": 558.609588000005,
                    "velocity": 0.3937007874015748,
                    "duration": 0.7478039999999737
                },
                {
                    "name": "C5",
                    "midi": 72,
                    "time": 559.357392000005,
                    "velocity": 0.3543307086614173,
                    "duration": 0.3739020000000437
                },
                {
                    "name": "E5",
                    "midi": 76,
                    "time": 559.357392000005,
                    "velocity": 0.3543307086614173,
                    "duration": 0.3739020000000437
                },
                {
                    "name": "G5",
                    "midi": 79,
                    "time": 559.357392000005,
                    "velocity": 0.41732283464566927,
                    "duration": 0.7478040000000874
                },
                {
                    "name": "D5",
                    "midi": 74,
                    "time": 559.731294000005,
                    "velocity": 0.31496062992125984,
                    "duration": 1.121706000000131
                },
                {
                    "name": "F5",
                    "midi": 77,
                    "time": 559.731294000005,
                    "velocity": 0.3779527559055118,
                    "duration": 1.121706000000131
                },
                {
                    "name": "A5",
                    "midi": 81,
                    "time": 560.1051960000051,
                    "velocity": 0.41732283464566927,
                    "duration": 0.3739020000000437
                },
                {
                    "name": "B5",
                    "midi": 83,
                    "time": 560.4790980000051,
                    "velocity": 0.4015748031496063,
                    "duration": 0.3739020000000437
                },
                {
                    "name": "C4",
                    "midi": 60,
                    "time": 560.8530000000052,
                    "velocity": 0.3543307086614173,
                    "duration": 0.3739020000000437
                },
                {
                    "name": "E4",
                    "midi": 64,
                    "time": 560.8530000000052,
                    "velocity": 0.3543307086614173,
                    "duration": 0.3739020000000437
                },
                {
                    "name": "G4",
                    "midi": 67,
                    "time": 560.8530000000052,
                    "velocity": 0.41732283464566927,
                    "duration": 1.495608000000061
                },
                {
                    "name": "D4",
                    "midi": 62,
                    "time": 561.2269020000052,
                    "velocity": 0.31496062992125984,
                    "duration": 2.617313999999965
                },
                {
                    "name": "F4",
                    "midi": 65,
                    "time": 561.2269020000052,
                    "velocity": 0.3779527559055118,
                    "duration": 2.617313999999965
                },
                {
                    "name": "G#4",
                    "midi": 68,
                    "time": 562.3486080000052,
                    "velocity": 0.4409448818897638,
                    "duration": 0.7478039999999737
                },
                {
                    "name": "B4",
                    "midi": 71,
                    "time": 563.0964120000052,
                    "velocity": 0.36220472440944884,
                    "duration": 0.7478039999999737
                },
                {
                    "name": "C3",
                    "midi": 48,
                    "time": 563.8442160000052,
                    "velocity": 0.3543307086614173,
                    "duration": 0.3739020000000437
                },
                {
                    "name": "E3",
                    "midi": 52,
                    "time": 563.8442160000052,
                    "velocity": 0.3543307086614173,
                    "duration": 0.3739020000000437
                },
                {
                    "name": "G3",
                    "midi": 55,
                    "time": 563.8442160000052,
                    "velocity": 0.41732283464566927,
                    "duration": 1.495608000000061
                },
                {
                    "name": "D3",
                    "midi": 50,
                    "time": 564.2181180000052,
                    "velocity": 0.31496062992125984,
                    "duration": 2.617313999999965
                },
                {
                    "name": "F3",
                    "midi": 53,
                    "time": 564.2181180000052,
                    "velocity": 0.3779527559055118,
                    "duration": 2.617313999999965
                },
                {
                    "name": "A3",
                    "midi": 57,
                    "time": 565.3398240000053,
                    "velocity": 0.4409448818897638,
                    "duration": 0.7478039999999737
                },
                {
                    "name": "B3",
                    "midi": 59,
                    "time": 566.0876280000052,
                    "velocity": 0.36220472440944884,
                    "duration": 0.7478039999999737
                },
                {
                    "name": "E3",
                    "midi": 52,
                    "time": 566.8354320000052,
                    "velocity": 0.2204724409448819,
                    "duration": 0.09347549999995408
                },
                {
                    "name": "C4",
                    "midi": 60,
                    "time": 566.8354320000052,
                    "velocity": 0.31496062992125984,
                    "duration": 0.18695099999990816
                },
                {
                    "name": "C4",
                    "midi": 60,
                    "time": 567.0223830000051,
                    "velocity": 0.2204724409448819,
                    "duration": 0.09347549999995408
                },
                {
                    "name": "E4",
                    "midi": 64,
                    "time": 567.0223830000051,
                    "velocity": 0.25984251968503935,
                    "duration": 0.09347549999995408
                },
                {
                    "name": "C4",
                    "midi": 60,
                    "time": 567.209334000005,
                    "velocity": 0.2204724409448819,
                    "duration": 0.09347549999995408
                },
                {
                    "name": "E4",
                    "midi": 64,
                    "time": 567.209334000005,
                    "velocity": 0.25984251968503935,
                    "duration": 0.09347549999995408
                },
                {
                    "name": "C4",
                    "midi": 60,
                    "time": 567.3962850000049,
                    "velocity": 0.2204724409448819,
                    "duration": 0.09347549999995408
                },
                {
                    "name": "E4",
                    "midi": 64,
                    "time": 567.3962850000049,
                    "velocity": 0.2677165354330709,
                    "duration": 0.09347549999995408
                },
                {
                    "name": "C4",
                    "midi": 60,
                    "time": 567.5832360000048,
                    "velocity": 0.2204724409448819,
                    "duration": 0.09347549999995408
                },
                {
                    "name": "E4",
                    "midi": 64,
                    "time": 567.5832360000048,
                    "velocity": 0.2677165354330709,
                    "duration": 0.09347549999995408
                },
                {
                    "name": "C4",
                    "midi": 60,
                    "time": 567.7701870000047,
                    "velocity": 0.2204724409448819,
                    "duration": 0.09347549999995408
                },
                {
                    "name": "E4",
                    "midi": 64,
                    "time": 567.7701870000047,
                    "velocity": 0.2677165354330709,
                    "duration": 0.09347549999995408
                },
                {
                    "name": "C4",
                    "midi": 60,
                    "time": 567.9571380000046,
                    "velocity": 0.2283464566929134,
                    "duration": 0.09347549999995408
                },
                {
                    "name": "E4",
                    "midi": 64,
                    "time": 567.9571380000046,
                    "velocity": 0.2755905511811024,
                    "duration": 0.09347549999995408
                },
                {
                    "name": "C4",
                    "midi": 60,
                    "time": 568.1440890000046,
                    "velocity": 0.2283464566929134,
                    "duration": 0.09347549999995408
                },
                {
                    "name": "E4",
                    "midi": 64,
                    "time": 568.1440890000046,
                    "velocity": 0.2755905511811024,
                    "duration": 0.09347549999995408
                },
                {
                    "name": "C4",
                    "midi": 60,
                    "time": 568.3310400000045,
                    "velocity": 0.23622047244094488,
                    "duration": 0.09347549999995408
                },
                {
                    "name": "E4",
                    "midi": 64,
                    "time": 568.3310400000045,
                    "velocity": 0.28346456692913385,
                    "duration": 0.09347549999995408
                },
                {
                    "name": "C4",
                    "midi": 60,
                    "time": 568.5179910000044,
                    "velocity": 0.23622047244094488,
                    "duration": 0.09347549999995408
                },
                {
                    "name": "E4",
                    "midi": 64,
                    "time": 568.5179910000044,
                    "velocity": 0.28346456692913385,
                    "duration": 0.09347549999995408
                },
                {
                    "name": "C4",
                    "midi": 60,
                    "time": 568.7049420000043,
                    "velocity": 0.2440944881889764,
                    "duration": 0.09347549999995408
                },
                {
                    "name": "E4",
                    "midi": 64,
                    "time": 568.7049420000043,
                    "velocity": 0.29133858267716534,
                    "duration": 0.09347549999995408
                },
                {
                    "name": "C4",
                    "midi": 60,
                    "time": 568.8918930000042,
                    "velocity": 0.25196850393700787,
                    "duration": 0.09347549999995408
                },
                {
                    "name": "E4",
                    "midi": 64,
                    "time": 568.8918930000042,
                    "velocity": 0.2992125984251969,
                    "duration": 0.09347549999995408
                },
                {
                    "name": "C4",
                    "midi": 60,
                    "time": 569.0788440000041,
                    "velocity": 0.25984251968503935,
                    "duration": 0.09347549999995408
                },
                {
                    "name": "E4",
                    "midi": 64,
                    "time": 569.0788440000041,
                    "velocity": 0.30708661417322836,
                    "duration": 0.09347549999995408
                },
                {
                    "name": "C4",
                    "midi": 60,
                    "time": 569.265795000004,
                    "velocity": 0.2677165354330709,
                    "duration": 0.09347549999995408
                },
                {
                    "name": "E4",
                    "midi": 64,
                    "time": 569.265795000004,
                    "velocity": 0.31496062992125984,
                    "duration": 0.09347549999995408
                },
                {
                    "name": "D4",
                    "midi": 62,
                    "time": 569.4527460000039,
                    "velocity": 0.2677165354330709,
                    "duration": 0.09347549999995408
                },
                {
                    "name": "F#4",
                    "midi": 66,
                    "time": 569.4527460000039,
                    "velocity": 0.31496062992125984,
                    "duration": 0.09347549999995408
                },
                {
                    "name": "D4",
                    "midi": 62,
                    "time": 569.6396970000038,
                    "velocity": 0.2677165354330709,
                    "duration": 0.09347549999995408
                },
                {
                    "name": "F#4",
                    "midi": 66,
                    "time": 569.6396970000038,
                    "velocity": 0.31496062992125984,
                    "duration": 0.09347549999995408
                },
                {
                    "name": "G4",
                    "midi": 67,
                    "time": 569.8266480000037,
                    "velocity": 0.4094488188976378,
                    "duration": 0.18695100000002185
                },
                {
                    "name": "B4",
                    "midi": 71,
                    "time": 570.0135990000038,
                    "velocity": 0.36220472440944884,
                    "duration": 0.09347549999995408
                },
                {
                    "name": "A4",
                    "midi": 69,
                    "time": 570.1070745000037,
                    "velocity": 0.36220472440944884,
                    "duration": 0.09347549999995408
                },
                {
                    "name": "G4",
                    "midi": 67,
                    "time": 570.2005500000037,
                    "velocity": 0.4094488188976378,
                    "duration": 0.09347549999995408
                },
                {
                    "name": "C5",
                    "midi": 72,
                    "time": 570.5744520000036,
                    "velocity": 0.5118110236220472,
                    "duration": 0.18695100000002185
                },
                {
                    "name": "E5",
                    "midi": 76,
                    "time": 570.7614030000036,
                    "velocity": 0.4566929133858268,
                    "duration": 0.09347549999995408
                },
                {
                    "name": "D5",
                    "midi": 74,
                    "time": 570.8548785000036,
                    "velocity": 0.4566929133858268,
                    "duration": 0.09347549999995408
                },
                {
                    "name": "C5",
                    "midi": 72,
                    "time": 570.9483540000035,
                    "velocity": 0.5039370078740157,
                    "duration": 0.09347549999995408
                },
                {
                    "name": "F5",
                    "midi": 77,
                    "time": 571.3222560000034,
                    "velocity": 0.5905511811023622,
                    "duration": 0.18695100000002185
                },
                {
                    "name": "A5",
                    "midi": 81,
                    "time": 571.5092070000035,
                    "velocity": 0.5118110236220472,
                    "duration": 0.09347549999995408
                },
                {
                    "name": "G5",
                    "midi": 79,
                    "time": 571.6026825000034,
                    "velocity": 0.5118110236220472,
                    "duration": 0.09347549999995408
                },
                {
                    "name": "F5",
                    "midi": 77,
                    "time": 571.6961580000034,
                    "velocity": 0.5748031496062992,
                    "duration": 0.09347549999995408
                },
                {
                    "name": "F6",
                    "midi": 89,
                    "time": 572.0700600000033,
                    "velocity": 0.6850393700787402,
                    "duration": 0.09347549999995408
                },
                {
                    "name": "E6",
                    "midi": 88,
                    "time": 572.1635355000033,
                    "velocity": 0.6220472440944882,
                    "duration": 0.09347549999995408
                },
                {
                    "name": "F6",
                    "midi": 89,
                    "time": 572.2570110000032,
                    "velocity": 0.6220472440944882,
                    "duration": 0.09347549999995408
                },
                {
                    "name": "E6",
                    "midi": 88,
                    "time": 572.3504865000032,
                    "velocity": 0.6220472440944882,
                    "duration": 0.09347549999995408
                },
                {
                    "name": "F6",
                    "midi": 89,
                    "time": 572.4439620000031,
                    "velocity": 0.6220472440944882,
                    "duration": 0.09347549999995408
                },
                {
                    "name": "E6",
                    "midi": 88,
                    "time": 572.5374375000031,
                    "velocity": 0.6220472440944882,
                    "duration": 0.09347549999995408
                },
                {
                    "name": "F6",
                    "midi": 89,
                    "time": 572.630913000003,
                    "velocity": 0.6220472440944882,
                    "duration": 0.09347549999995408
                },
                {
                    "name": "E6",
                    "midi": 88,
                    "time": 572.724388500003,
                    "velocity": 0.6220472440944882,
                    "duration": 0.09347549999995408
                },
                {
                    "name": "F6",
                    "midi": 89,
                    "time": 572.8178640000029,
                    "velocity": 0.6141732283464567,
                    "duration": 0.09347549999995408
                },
                {
                    "name": "E6",
                    "midi": 88,
                    "time": 572.9113395000029,
                    "velocity": 0.6141732283464567,
                    "duration": 0.09347549999995408
                },
                {
                    "name": "D6",
                    "midi": 86,
                    "time": 573.0048150000028,
                    "velocity": 0.6220472440944882,
                    "duration": 0.09347549999995408
                },
                {
                    "name": "C6",
                    "midi": 84,
                    "time": 573.0982905000028,
                    "velocity": 0.6299212598425197,
                    "duration": 0.09347549999995408
                },
                {
                    "name": "B5",
                    "midi": 83,
                    "time": 573.1917660000028,
                    "velocity": 0.6377952755905512,
                    "duration": 0.09347549999995408
                },
                {
                    "name": "A5",
                    "midi": 81,
                    "time": 573.2852415000027,
                    "velocity": 0.6456692913385826,
                    "duration": 0.09347549999995408
                },
                {
                    "name": "G5",
                    "midi": 79,
                    "time": 573.3787170000027,
                    "velocity": 0.6535433070866141,
                    "duration": 0.09347549999995408
                },
                {
                    "name": "F5",
                    "midi": 77,
                    "time": 573.4721925000026,
                    "velocity": 0.6614173228346457,
                    "duration": 0.09347549999995408
                },
                {
                    "name": "E5",
                    "midi": 76,
                    "time": 573.5656680000026,
                    "velocity": 0.6692913385826772,
                    "duration": 0.09347549999995408
                },
                {
                    "name": "D5",
                    "midi": 74,
                    "time": 573.6591435000025,
                    "velocity": 0.6771653543307087,
                    "duration": 0.09347549999995408
                },
                {
                    "name": "C5",
                    "midi": 72,
                    "time": 573.7526190000025,
                    "velocity": 0.6929133858267716,
                    "duration": 0.09347549999995408
                },
                {
                    "name": "B4",
                    "midi": 71,
                    "time": 573.8460945000024,
                    "velocity": 0.7007874015748031,
                    "duration": 0.09347549999995408
                },
                {
                    "name": "A4",
                    "midi": 69,
                    "time": 573.9395700000024,
                    "velocity": 0.7086614173228346,
                    "duration": 0.09347549999995408
                },
                {
                    "name": "G4",
                    "midi": 67,
                    "time": 574.0330455000023,
                    "velocity": 0.7244094488188977,
                    "duration": 0.09347549999995408
                },
                {
                    "name": "F4",
                    "midi": 65,
                    "time": 574.1265210000023,
                    "velocity": 0.7244094488188977,
                    "duration": 0.09347549999995408
                },
                {
                    "name": "E4",
                    "midi": 64,
                    "time": 574.2199965000023,
                    "velocity": 0.7322834645669292,
                    "duration": 0.09347549999995408
                },
                {
                    "name": "D4",
                    "midi": 62,
                    "time": 574.3134720000022,
                    "velocity": 0.7874015748031497,
                    "duration": 0.18695100000002185
                },
                {
                    "name": "G4",
                    "midi": 67,
                    "time": 574.6873740000023,
                    "velocity": 0.6692913385826772,
                    "duration": 0.18695100000002185
                },
                {
                    "name": "B4",
                    "midi": 71,
                    "time": 574.6873740000023,
                    "velocity": 0.6692913385826772,
                    "duration": 0.18695100000002185
                },
                {
                    "name": "D5",
                    "midi": 74,
                    "time": 574.6873740000023,
                    "velocity": 0.7874015748031497,
                    "duration": 0.18695100000002185
                },
                {
                    "name": "G5",
                    "midi": 79,
                    "time": 574.6873740000023,
                    "velocity": 0.7874015748031497,
                    "duration": 0.18695100000002185
                },
                {
                    "name": "E4",
                    "midi": 64,
                    "time": 575.8090800000023,
                    "velocity": 0.7007874015748031,
                    "duration": 0.18695100000002185
                },
                {
                    "name": "G4",
                    "midi": 67,
                    "time": 575.8090800000023,
                    "velocity": 0.7007874015748031,
                    "duration": 0.18695100000002185
                },
                {
                    "name": "C5",
                    "midi": 72,
                    "time": 575.8090800000023,
                    "velocity": 0.8346456692913385,
                    "duration": 0.18695100000002185
                },
                {
                    "name": "E5",
                    "midi": 76,
                    "time": 575.8090800000023,
                    "velocity": 0.8346456692913385,
                    "duration": 0.18695100000002185
                },
                {
                    "name": "G4",
                    "midi": 67,
                    "time": 576.5568840000022,
                    "velocity": 0.7007874015748031,
                    "duration": 0.18695100000002185
                },
                {
                    "name": "B4",
                    "midi": 71,
                    "time": 576.5568840000022,
                    "velocity": 0.7007874015748031,
                    "duration": 0.18695100000002185
                },
                {
                    "name": "D5",
                    "midi": 74,
                    "time": 576.5568840000022,
                    "velocity": 0.8346456692913385,
                    "duration": 0.18695100000002185
                },
                {
                    "name": "G5",
                    "midi": 79,
                    "time": 576.5568840000022,
                    "velocity": 0.8346456692913385,
                    "duration": 0.18695100000002185
                },
                {
                    "name": "C6",
                    "midi": 84,
                    "time": 577.3046880000022,
                    "velocity": 0.8346456692913385,
                    "duration": 0.18695100000002185
                },
                {
                    "name": "G5",
                    "midi": 79,
                    "time": 577.3046880000022,
                    "velocity": 0.8346456692913385,
                    "duration": 0.18695100000002185
                },
                {
                    "name": "E5",
                    "midi": 76,
                    "time": 577.3046880000022,
                    "velocity": 0.7007874015748031,
                    "duration": 0.18695100000002185
                },
                {
                    "name": "C5",
                    "midi": 72,
                    "time": 577.3046880000022,
                    "velocity": 0.7007874015748031,
                    "duration": 0.18695100000002185
                }
            ],
            "controlChanges": {
                "7": [
                    {
                        "number": 7,
                        "time": 0,
                        "value": 0.7874015748031497
                    }
                ],
                "10": [
                    {
                        "number": 10,
                        "time": 0,
                        "value": 0.5039370078740157
                    }
                ],
                "91": [
                    {
                        "number": 91,
                        "time": 0,
                        "value": 1
                    },
                    {
                        "number": 91,
                        "time": 5.982432,
                        "value": 1
                    },
                    {
                        "number": 91,
                        "time": 127.12667999999857,
                        "value": 1
                    },
                    {
                        "number": 91,
                        "time": 133.10911199999862,
                        "value": 1
                    },
                    {
                        "number": 91,
                        "time": 260.2357920000012,
                        "value": 1
                    },
                    {
                        "number": 91,
                        "time": 358.94592000000824,
                        "value": 1
                    },
                    {
                        "number": 91,
                        "time": 364.92835200000775,
                        "value": 1
                    },
                    {
                        "number": 91,
                        "time": 498.0374640000125,
                        "value": 1
                    },
                    {
                        "number": 91,
                        "time": 566.8354320000052,
                        "value": 1
                    }
                ]
            },
            "id": 1,
            "name": "Piano right",
            "instrumentNumber": 1,
            "instrument": "bright acoustic piano",
            "instrumentFamily": "piano",
            "channelNumber": 0,
            "isPercussion": false
        },
        {
            "startTime": 0,
            "duration": 577.4916389999964,
            "length": 4333,
            "notes": [
                {
                    "name": "C2",
                    "midi": 36,
                    "time": 0,
                    "velocity": 0.1968503937007874,
                    "duration": 0.14021325
                },
                {
                    "name": "G2",
                    "midi": 43,
                    "time": 0.186951,
                    "velocity": 0.2047244094488189,
                    "duration": 0.14021325000000004
                },
                {
                    "name": "C2",
                    "midi": 36,
                    "time": 0.186951,
                    "velocity": 0.1732283464566929,
                    "duration": 0.14021325000000004
                },
                {
                    "name": "G2",
                    "midi": 43,
                    "time": 0.37390200000000007,
                    "velocity": 0.2047244094488189,
                    "duration": 0.14021325000000007
                },
                {
                    "name": "C2",
                    "midi": 36,
                    "time": 0.37390200000000007,
                    "velocity": 0.1732283464566929,
                    "duration": 0.14021325000000007
                },
                {
                    "name": "G2",
                    "midi": 43,
                    "time": 0.5608530000000002,
                    "velocity": 0.2125984251968504,
                    "duration": 0.14021325000000007
                },
                {
                    "name": "C2",
                    "midi": 36,
                    "time": 0.5608530000000002,
                    "velocity": 0.1732283464566929,
                    "duration": 0.14021325000000007
                },
                {
                    "name": "G2",
                    "midi": 43,
                    "time": 0.7478040000000002,
                    "velocity": 0.2125984251968504,
                    "duration": 0.14021325000000007
                },
                {
                    "name": "C2",
                    "midi": 36,
                    "time": 0.7478040000000002,
                    "velocity": 0.1732283464566929,
                    "duration": 0.14021325000000007
                },
                {
                    "name": "G2",
                    "midi": 43,
                    "time": 0.9347550000000003,
                    "velocity": 0.2204724409448819,
                    "duration": 0.14021325000000007
                },
                {
                    "name": "C2",
                    "midi": 36,
                    "time": 0.9347550000000003,
                    "velocity": 0.18110236220472442,
                    "duration": 0.14021325000000007
                },
                {
                    "name": "G2",
                    "midi": 43,
                    "time": 1.1217060000000003,
                    "velocity": 0.2204724409448819,
                    "duration": 0.14021324999999996
                },
                {
                    "name": "C2",
                    "midi": 36,
                    "time": 1.1217060000000003,
                    "velocity": 0.18110236220472442,
                    "duration": 0.14021324999999996
                },
                {
                    "name": "G2",
                    "midi": 43,
                    "time": 1.3086570000000002,
                    "velocity": 0.2283464566929134,
                    "duration": 0.14021324999999996
                },
                {
                    "name": "C2",
                    "midi": 36,
                    "time": 1.3086570000000002,
                    "velocity": 0.1889763779527559,
                    "duration": 0.14021324999999996
                },
                {
                    "name": "C2",
                    "midi": 36,
                    "time": 1.495608,
                    "velocity": 0.1968503937007874,
                    "duration": 0.14021324999999996
                },
                {
                    "name": "G2",
                    "midi": 43,
                    "time": 1.495608,
                    "velocity": 0.23622047244094488,
                    "duration": 0.14021324999999996
                },
                {
                    "name": "C2",
                    "midi": 36,
                    "time": 1.682559,
                    "velocity": 0.1732283464566929,
                    "duration": 0.14021324999999996
                },
                {
                    "name": "G2",
                    "midi": 43,
                    "time": 1.682559,
                    "velocity": 0.2125984251968504,
                    "duration": 0.14021324999999996
                },
                {
                    "name": "C2",
                    "midi": 36,
                    "time": 1.8695099999999998,
                    "velocity": 0.18110236220472442,
                    "duration": 0.14021325000000018
                },
                {
                    "name": "G2",
                    "midi": 43,
                    "time": 1.8695099999999998,
                    "velocity": 0.2204724409448819,
                    "duration": 0.14021325000000018
                },
                {
                    "name": "C2",
                    "midi": 36,
                    "time": 2.056461,
                    "velocity": 0.1889763779527559,
                    "duration": 0.14021324999999996
                },
                {
                    "name": "G2",
                    "midi": 43,
                    "time": 2.056461,
                    "velocity": 0.2283464566929134,
                    "duration": 0.14021324999999996
                },
                {
                    "name": "C2",
                    "midi": 36,
                    "time": 2.243412,
                    "velocity": 0.1968503937007874,
                    "duration": 0.14021324999999996
                },
                {
                    "name": "G2",
                    "midi": 43,
                    "time": 2.243412,
                    "velocity": 0.23622047244094488,
                    "duration": 0.14021324999999996
                },
                {
                    "name": "C2",
                    "midi": 36,
                    "time": 2.4303630000000003,
                    "velocity": 0.1968503937007874,
                    "duration": 0.14021324999999996
                },
                {
                    "name": "G2",
                    "midi": 43,
                    "time": 2.4303630000000003,
                    "velocity": 0.23622047244094488,
                    "duration": 0.14021324999999996
                },
                {
                    "name": "C2",
                    "midi": 36,
                    "time": 2.6173140000000004,
                    "velocity": 0.1968503937007874,
                    "duration": 0.14021324999999996
                },
                {
                    "name": "A2",
                    "midi": 45,
                    "time": 2.6173140000000004,
                    "velocity": 0.23622047244094488,
                    "duration": 0.14021324999999996
                },
                {
                    "name": "C2",
                    "midi": 36,
                    "time": 2.8042650000000005,
                    "velocity": 0.1968503937007874,
                    "duration": 0.14021324999999996
                },
                {
                    "name": "A2",
                    "midi": 45,
                    "time": 2.8042650000000005,
                    "velocity": 0.23622047244094488,
                    "duration": 0.14021324999999996
                },
                {
                    "name": "B1",
                    "midi": 35,
                    "time": 2.9912160000000005,
                    "velocity": 0.1968503937007874,
                    "duration": 0.14021324999999996
                },
                {
                    "name": "G2",
                    "midi": 43,
                    "time": 2.9912160000000005,
                    "velocity": 0.23622047244094488,
                    "duration": 0.14021324999999996
                },
                {
                    "name": "B1",
                    "midi": 35,
                    "time": 3.1781670000000006,
                    "velocity": 0.1968503937007874,
                    "duration": 0.14021324999999996
                },
                {
                    "name": "G2",
                    "midi": 43,
                    "time": 3.1781670000000006,
                    "velocity": 0.23622047244094488,
                    "duration": 0.14021324999999996
                },
                {
                    "name": "B1",
                    "midi": 35,
                    "time": 3.3651180000000007,
                    "velocity": 0.1968503937007874,
                    "duration": 0.14021324999999996
                },
                {
                    "name": "G2",
                    "midi": 43,
                    "time": 3.3651180000000007,
                    "velocity": 0.23622047244094488,
                    "duration": 0.14021324999999996
                },
                {
                    "name": "B1",
                    "midi": 35,
                    "time": 3.552069000000001,
                    "velocity": 0.1968503937007874,
                    "duration": 0.14021324999999996
                },
                {
                    "name": "G2",
                    "midi": 43,
                    "time": 3.552069000000001,
                    "velocity": 0.23622047244094488,
                    "duration": 0.14021324999999996
                },
                {
                    "name": "B1",
                    "midi": 35,
                    "time": 3.739020000000001,
                    "velocity": 0.1968503937007874,
                    "duration": 0.14021324999999996
                },
                {
                    "name": "G2",
                    "midi": 43,
                    "time": 3.739020000000001,
                    "velocity": 0.23622047244094488,
                    "duration": 0.14021324999999996
                },
                {
                    "name": "B1",
                    "midi": 35,
                    "time": 3.925971000000001,
                    "velocity": 0.1968503937007874,
                    "duration": 0.14021324999999996
                },
                {
                    "name": "G2",
                    "midi": 43,
                    "time": 3.925971000000001,
                    "velocity": 0.23622047244094488,
                    "duration": 0.14021324999999996
                },
                {
                    "name": "B1",
                    "midi": 35,
                    "time": 4.112922000000001,
                    "velocity": 0.1968503937007874,
                    "duration": 0.1402132500000004
                },
                {
                    "name": "G2",
                    "midi": 43,
                    "time": 4.112922000000001,
                    "velocity": 0.23622047244094488,
                    "duration": 0.1402132500000004
                },
                {
                    "name": "B1",
                    "midi": 35,
                    "time": 4.299873000000002,
                    "velocity": 0.1968503937007874,
                    "duration": 0.1402132500000004
                },
                {
                    "name": "G2",
                    "midi": 43,
                    "time": 4.299873000000002,
                    "velocity": 0.23622047244094488,
                    "duration": 0.1402132500000004
                },
                {
                    "name": "B1",
                    "midi": 35,
                    "time": 4.486824000000002,
                    "velocity": 0.1968503937007874,
                    "duration": 0.1402132500000004
                },
                {
                    "name": "G2",
                    "midi": 43,
                    "time": 4.486824000000002,
                    "velocity": 0.23622047244094488,
                    "duration": 0.1402132500000004
                },
                {
                    "name": "B1",
                    "midi": 35,
                    "time": 4.673775000000003,
                    "velocity": 0.1968503937007874,
                    "duration": 0.1402132500000004
                },
                {
                    "name": "G2",
                    "midi": 43,
                    "time": 4.673775000000003,
                    "velocity": 0.23622047244094488,
                    "duration": 0.1402132500000004
                },
                {
                    "name": "B1",
                    "midi": 35,
                    "time": 4.860726000000003,
                    "velocity": 0.1968503937007874,
                    "duration": 0.1402132500000004
                },
                {
                    "name": "G2",
                    "midi": 43,
                    "time": 4.860726000000003,
                    "velocity": 0.23622047244094488,
                    "duration": 0.1402132500000004
                },
                {
                    "name": "B1",
                    "midi": 35,
                    "time": 5.047677000000004,
                    "velocity": 0.1968503937007874,
                    "duration": 0.1402132500000004
                },
                {
                    "name": "G2",
                    "midi": 43,
                    "time": 5.047677000000004,
                    "velocity": 0.23622047244094488,
                    "duration": 0.1402132500000004
                },
                {
                    "name": "B1",
                    "midi": 35,
                    "time": 5.234628000000004,
                    "velocity": 0.1968503937007874,
                    "duration": 0.1402132500000004
                },
                {
                    "name": "G2",
                    "midi": 43,
                    "time": 5.234628000000004,
                    "velocity": 0.23622047244094488,
                    "duration": 0.1402132500000004
                },
                {
                    "name": "B1",
                    "midi": 35,
                    "time": 5.421579000000005,
                    "velocity": 0.1968503937007874,
                    "duration": 0.1402132500000004
                },
                {
                    "name": "G2",
                    "midi": 43,
                    "time": 5.421579000000005,
                    "velocity": 0.23622047244094488,
                    "duration": 0.1402132500000004
                },
                {
                    "name": "B1",
                    "midi": 35,
                    "time": 5.608530000000005,
                    "velocity": 0.1968503937007874,
                    "duration": 0.1402132500000004
                },
                {
                    "name": "G2",
                    "midi": 43,
                    "time": 5.608530000000005,
                    "velocity": 0.23622047244094488,
                    "duration": 0.1402132500000004
                },
                {
                    "name": "B1",
                    "midi": 35,
                    "time": 5.795481000000006,
                    "velocity": 0.1968503937007874,
                    "duration": 0.1402132500000004
                },
                {
                    "name": "G2",
                    "midi": 43,
                    "time": 5.795481000000006,
                    "velocity": 0.23622047244094488,
                    "duration": 0.1402132500000004
                },
                {
                    "name": "F2",
                    "midi": 41,
                    "time": 5.982432000000006,
                    "velocity": 0.23622047244094488,
                    "duration": 0.1402132500000004
                },
                {
                    "name": "A#1",
                    "midi": 34,
                    "time": 5.982432000000006,
                    "velocity": 0.2047244094488189,
                    "duration": 0.1402132500000004
                },
                {
                    "name": "F2",
                    "midi": 41,
                    "time": 6.169383000000007,
                    "velocity": 0.23622047244094488,
                    "duration": 0.1402132500000004
                },
                {
                    "name": "A#1",
                    "midi": 34,
                    "time": 6.169383000000007,
                    "velocity": 0.1968503937007874,
                    "duration": 0.1402132500000004
                },
                {
                    "name": "F2",
                    "midi": 41,
                    "time": 6.3563340000000075,
                    "velocity": 0.23622047244094488,
                    "duration": 0.1402132500000004
                },
                {
                    "name": "A#1",
                    "midi": 34,
                    "time": 6.3563340000000075,
                    "velocity": 0.1968503937007874,
                    "duration": 0.1402132500000004
                },
                {
                    "name": "F2",
                    "midi": 41,
                    "time": 6.543285000000008,
                    "velocity": 0.2440944881889764,
                    "duration": 0.1402132500000004
                },
                {
                    "name": "A#1",
                    "midi": 34,
                    "time": 6.543285000000008,
                    "velocity": 0.2047244094488189,
                    "duration": 0.1402132500000004
                },
                {
                    "name": "F2",
                    "midi": 41,
                    "time": 6.7302360000000085,
                    "velocity": 0.2440944881889764,
                    "duration": 0.1402132500000004
                },
                {
                    "name": "A#1",
                    "midi": 34,
                    "time": 6.7302360000000085,
                    "velocity": 0.2047244094488189,
                    "duration": 0.1402132500000004
                },
                {
                    "name": "F2",
                    "midi": 41,
                    "time": 6.917187000000009,
                    "velocity": 0.2440944881889764,
                    "duration": 0.1402132500000004
                },
                {
                    "name": "A#1",
                    "midi": 34,
                    "time": 6.917187000000009,
                    "velocity": 0.2047244094488189,
                    "duration": 0.1402132500000004
                },
                {
                    "name": "F2",
                    "midi": 41,
                    "time": 7.10413800000001,
                    "velocity": 0.2440944881889764,
                    "duration": 0.1402132500000004
                },
                {
                    "name": "A#1",
                    "midi": 34,
                    "time": 7.10413800000001,
                    "velocity": 0.2047244094488189,
                    "duration": 0.1402132500000004
                },
                {
                    "name": "F2",
                    "midi": 41,
                    "time": 7.29108900000001,
                    "velocity": 0.2440944881889764,
                    "duration": 0.1402132500000004
                },
                {
                    "name": "A#1",
                    "midi": 34,
                    "time": 7.29108900000001,
                    "velocity": 0.2047244094488189,
                    "duration": 0.1402132500000004
                },
                {
                    "name": "A#1",
                    "midi": 34,
                    "time": 7.478040000000011,
                    "velocity": 0.2047244094488189,
                    "duration": 0.1402132500000004
                },
                {
                    "name": "F2",
                    "midi": 41,
                    "time": 7.478040000000011,
                    "velocity": 0.2440944881889764,
                    "duration": 0.1402132500000004
                },
                {
                    "name": "A#1",
                    "midi": 34,
                    "time": 7.664991000000011,
                    "velocity": 0.2047244094488189,
                    "duration": 0.1402132500000004
                },
                {
                    "name": "F2",
                    "midi": 41,
                    "time": 7.664991000000011,
                    "velocity": 0.2440944881889764,
                    "duration": 0.1402132500000004
                },
                {
                    "name": "A#1",
                    "midi": 34,
                    "time": 7.851942000000012,
                    "velocity": 0.2047244094488189,
                    "duration": 0.1402132500000004
                },
                {
                    "name": "F2",
                    "midi": 41,
                    "time": 7.851942000000012,
                    "velocity": 0.2440944881889764,
                    "duration": 0.1402132500000004
                },
                {
                    "name": "A#1",
                    "midi": 34,
                    "time": 8.038893000000012,
                    "velocity": 0.2047244094488189,
                    "duration": 0.1402132500000004
                },
                {
                    "name": "F2",
                    "midi": 41,
                    "time": 8.038893000000012,
                    "velocity": 0.2440944881889764,
                    "duration": 0.1402132500000004
                },
                {
                    "name": "A#1",
                    "midi": 34,
                    "time": 8.225844000000013,
                    "velocity": 0.2047244094488189,
                    "duration": 0.1402132500000004
                },
                {
                    "name": "F2",
                    "midi": 41,
                    "time": 8.225844000000013,
                    "velocity": 0.2440944881889764,
                    "duration": 0.1402132500000004
                },
                {
                    "name": "A#1",
                    "midi": 34,
                    "time": 8.412795000000013,
                    "velocity": 0.1968503937007874,
                    "duration": 0.1402132500000004
                },
                {
                    "name": "F2",
                    "midi": 41,
                    "time": 8.412795000000013,
                    "velocity": 0.23622047244094488,
                    "duration": 0.1402132500000004
                },
                {
                    "name": "A#1",
                    "midi": 34,
                    "time": 8.599746000000014,
                    "velocity": 0.1968503937007874,
                    "duration": 0.1402132500000004
                },
                {
                    "name": "G2",
                    "midi": 43,
                    "time": 8.599746000000014,
                    "velocity": 0.23622047244094488,
                    "duration": 0.1402132500000004
                },
                {
                    "name": "A#1",
                    "midi": 34,
                    "time": 8.786697000000014,
                    "velocity": 0.1968503937007874,
                    "duration": 0.1402132500000004
                },
                {
                    "name": "G2",
                    "midi": 43,
                    "time": 8.786697000000014,
                    "velocity": 0.23622047244094488,
                    "duration": 0.1402132500000004
                },
                {
                    "name": "A1",
                    "midi": 33,
                    "time": 8.973648000000015,
                    "velocity": 0.1968503937007874,
                    "duration": 0.1402132500000004
                },
                {
                    "name": "F2",
                    "midi": 41,
                    "time": 8.973648000000015,
                    "velocity": 0.23622047244094488,
                    "duration": 0.1402132500000004
                },
                {
                    "name": "A1",
                    "midi": 33,
                    "time": 9.160599000000015,
                    "velocity": 0.1968503937007874,
                    "duration": 0.1402132500000004
                },
                {
                    "name": "F2",
                    "midi": 41,
                    "time": 9.160599000000015,
                    "velocity": 0.23622047244094488,
                    "duration": 0.1402132500000004
                },
                {
                    "name": "A1",
                    "midi": 33,
                    "time": 9.347550000000016,
                    "velocity": 0.1968503937007874,
                    "duration": 0.1402132500000004
                },
                {
                    "name": "F2",
                    "midi": 41,
                    "time": 9.347550000000016,
                    "velocity": 0.23622047244094488,
                    "duration": 0.1402132500000004
                },
                {
                    "name": "A1",
                    "midi": 33,
                    "time": 9.534501000000017,
                    "velocity": 0.1968503937007874,
                    "duration": 0.1402132500000004
                },
                {
                    "name": "F2",
                    "midi": 41,
                    "time": 9.534501000000017,
                    "velocity": 0.23622047244094488,
                    "duration": 0.1402132500000004
                },
                {
                    "name": "A1",
                    "midi": 33,
                    "time": 9.721452000000017,
                    "velocity": 0.1968503937007874,
                    "duration": 0.1402132500000004
                },
                {
                    "name": "F2",
                    "midi": 41,
                    "time": 9.721452000000017,
                    "velocity": 0.23622047244094488,
                    "duration": 0.1402132500000004
                },
                {
                    "name": "A1",
                    "midi": 33,
                    "time": 9.908403000000018,
                    "velocity": 0.1968503937007874,
                    "duration": 0.1402132500000004
                },
                {
                    "name": "F2",
                    "midi": 41,
                    "time": 9.908403000000018,
                    "velocity": 0.23622047244094488,
                    "duration": 0.1402132500000004
                },
                {
                    "name": "A1",
                    "midi": 33,
                    "time": 10.095354000000018,
                    "velocity": 0.1968503937007874,
                    "duration": 0.1402132500000004
                },
                {
                    "name": "F2",
                    "midi": 41,
                    "time": 10.095354000000018,
                    "velocity": 0.23622047244094488,
                    "duration": 0.1402132500000004
                },
                {
                    "name": "A1",
                    "midi": 33,
                    "time": 10.282305000000019,
                    "velocity": 0.1968503937007874,
                    "duration": 0.1402132500000004
                },
                {
                    "name": "F2",
                    "midi": 41,
                    "time": 10.282305000000019,
                    "velocity": 0.23622047244094488,
                    "duration": 0.1402132500000004
                },
                {
                    "name": "G#1",
                    "midi": 32,
                    "time": 10.46925600000002,
                    "velocity": 0.1968503937007874,
                    "duration": 0.1402132500000004
                },
                {
                    "name": "F2",
                    "midi": 41,
                    "time": 10.46925600000002,
                    "velocity": 0.23622047244094488,
                    "duration": 0.1402132500000004
                },
                {
                    "name": "G#1",
                    "midi": 32,
                    "time": 10.65620700000002,
                    "velocity": 0.1968503937007874,
                    "duration": 0.1402132500000004
                },
                {
                    "name": "F2",
                    "midi": 41,
                    "time": 10.65620700000002,
                    "velocity": 0.23622047244094488,
                    "duration": 0.1402132500000004
                },
                {
                    "name": "G#1",
                    "midi": 32,
                    "time": 10.84315800000002,
                    "velocity": 0.1968503937007874,
                    "duration": 0.1402132500000004
                },
                {
                    "name": "F2",
                    "midi": 41,
                    "time": 10.84315800000002,
                    "velocity": 0.23622047244094488,
                    "duration": 0.1402132500000004
                },
                {
                    "name": "G#1",
                    "midi": 32,
                    "time": 11.03010900000002,
                    "velocity": 0.1968503937007874,
                    "duration": 0.1402132500000004
                },
                {
                    "name": "F2",
                    "midi": 41,
                    "time": 11.03010900000002,
                    "velocity": 0.23622047244094488,
                    "duration": 0.1402132500000004
                },
                {
                    "name": "G#1",
                    "midi": 32,
                    "time": 11.217060000000021,
                    "velocity": 0.1968503937007874,
                    "duration": 0.1402132500000004
                },
                {
                    "name": "F2",
                    "midi": 41,
                    "time": 11.217060000000021,
                    "velocity": 0.23622047244094488,
                    "duration": 0.1402132500000004
                },
                {
                    "name": "G#1",
                    "midi": 32,
                    "time": 11.404011000000022,
                    "velocity": 0.1968503937007874,
                    "duration": 0.1402132500000004
                },
                {
                    "name": "F2",
                    "midi": 41,
                    "time": 11.404011000000022,
                    "velocity": 0.23622047244094488,
                    "duration": 0.1402132500000004
                },
                {
                    "name": "G#1",
                    "midi": 32,
                    "time": 11.590962000000022,
                    "velocity": 0.1968503937007874,
                    "duration": 0.1402132500000004
                },
                {
                    "name": "F2",
                    "midi": 41,
                    "time": 11.590962000000022,
                    "velocity": 0.23622047244094488,
                    "duration": 0.1402132500000004
                },
                {
                    "name": "G#1",
                    "midi": 32,
                    "time": 11.777913000000023,
                    "velocity": 0.1968503937007874,
                    "duration": 0.1402132500000004
                },
                {
                    "name": "F2",
                    "midi": 41,
                    "time": 11.777913000000023,
                    "velocity": 0.23622047244094488,
                    "duration": 0.1402132500000004
                },
                {
                    "name": "G1",
                    "midi": 31,
                    "time": 11.964864000000023,
                    "velocity": 0.23622047244094488,
                    "duration": 0.1402132500000004
                },
                {
                    "name": "F2",
                    "midi": 41,
                    "time": 11.964864000000023,
                    "velocity": 0.28346456692913385,
                    "duration": 0.1402132500000004
                },
                {
                    "name": "G1",
                    "midi": 31,
                    "time": 12.151815000000024,
                    "velocity": 0.25196850393700787,
                    "duration": 0.1402132500000004
                },
                {
                    "name": "F2",
                    "midi": 41,
                    "time": 12.151815000000024,
                    "velocity": 0.2992125984251969,
                    "duration": 0.1402132500000004
                },
                {
                    "name": "G1",
                    "midi": 31,
                    "time": 12.338766000000025,
                    "velocity": 0.25984251968503935,
                    "duration": 0.1402132500000004
                },
                {
                    "name": "F2",
                    "midi": 41,
                    "time": 12.338766000000025,
                    "velocity": 0.30708661417322836,
                    "duration": 0.1402132500000004
                },
                {
                    "name": "G1",
                    "midi": 31,
                    "time": 12.525717000000025,
                    "velocity": 0.2677165354330709,
                    "duration": 0.1402132500000004
                },
                {
                    "name": "F2",
                    "midi": 41,
                    "time": 12.525717000000025,
                    "velocity": 0.3228346456692913,
                    "duration": 0.1402132500000004
                },
                {
                    "name": "G1",
                    "midi": 31,
                    "time": 12.712668000000026,
                    "velocity": 0.28346456692913385,
                    "duration": 0.1402132500000004
                },
                {
                    "name": "F2",
                    "midi": 41,
                    "time": 12.712668000000026,
                    "velocity": 0.33858267716535434,
                    "duration": 0.1402132500000004
                },
                {
                    "name": "G1",
                    "midi": 31,
                    "time": 12.899619000000026,
                    "velocity": 0.2992125984251969,
                    "duration": 0.1402132500000004
                },
                {
                    "name": "F2",
                    "midi": 41,
                    "time": 12.899619000000026,
                    "velocity": 0.3543307086614173,
                    "duration": 0.1402132500000004
                },
                {
                    "name": "G#1",
                    "midi": 32,
                    "time": 13.086570000000027,
                    "velocity": 0.30708661417322836,
                    "duration": 0.1402132500000004
                },
                {
                    "name": "F2",
                    "midi": 41,
                    "time": 13.086570000000027,
                    "velocity": 0.36220472440944884,
                    "duration": 0.1402132500000004
                },
                {
                    "name": "G#1",
                    "midi": 32,
                    "time": 13.273521000000027,
                    "velocity": 0.31496062992125984,
                    "duration": 0.1402132500000004
                },
                {
                    "name": "F2",
                    "midi": 41,
                    "time": 13.273521000000027,
                    "velocity": 0.3779527559055118,
                    "duration": 0.1402132500000004
                },
                {
                    "name": "G1",
                    "midi": 31,
                    "time": 13.460472000000028,
                    "velocity": 0.3464566929133858,
                    "duration": 0.1402132500000004
                },
                {
                    "name": "F2",
                    "midi": 41,
                    "time": 13.460472000000028,
                    "velocity": 0.4094488188976378,
                    "duration": 0.1402132500000004
                },
                {
                    "name": "G1",
                    "midi": 31,
                    "time": 13.647423000000028,
                    "velocity": 0.3464566929133858,
                    "duration": 0.1402132500000004
                },
                {
                    "name": "F2",
                    "midi": 41,
                    "time": 13.647423000000028,
                    "velocity": 0.4094488188976378,
                    "duration": 0.1402132500000004
                },
                {
                    "name": "G#1",
                    "midi": 32,
                    "time": 13.834374000000029,
                    "velocity": 0.3543307086614173,
                    "duration": 0.1402132500000004
                },
                {
                    "name": "F2",
                    "midi": 41,
                    "time": 13.834374000000029,
                    "velocity": 0.4330708661417323,
                    "duration": 0.1402132500000004
                },
                {
                    "name": "G#1",
                    "midi": 32,
                    "time": 14.02132500000003,
                    "velocity": 0.36220472440944884,
                    "duration": 0.1402132500000004
                },
                {
                    "name": "F2",
                    "midi": 41,
                    "time": 14.02132500000003,
                    "velocity": 0.4330708661417323,
                    "duration": 0.1402132500000004
                },
                {
                    "name": "G1",
                    "midi": 31,
                    "time": 14.20827600000003,
                    "velocity": 0.3779527559055118,
                    "duration": 0.1402132500000004
                },
                {
                    "name": "F2",
                    "midi": 41,
                    "time": 14.20827600000003,
                    "velocity": 0.4566929133858268,
                    "duration": 0.1402132500000004
                },
                {
                    "name": "G1",
                    "midi": 31,
                    "time": 14.39522700000003,
                    "velocity": 0.4015748031496063,
                    "duration": 0.1402132500000004
                },
                {
                    "name": "F2",
                    "midi": 41,
                    "time": 14.39522700000003,
                    "velocity": 0.47244094488188976,
                    "duration": 0.1402132500000004
                },
                {
                    "name": "G#1",
                    "midi": 32,
                    "time": 14.582178000000031,
                    "velocity": 0.4251968503937008,
                    "duration": 0.1402132500000004
                },
                {
                    "name": "F2",
                    "midi": 41,
                    "time": 14.582178000000031,
                    "velocity": 0.5039370078740157,
                    "duration": 0.1402132500000004
                },
                {
                    "name": "G#1",
                    "midi": 32,
                    "time": 14.769129000000031,
                    "velocity": 0.4409448818897638,
                    "duration": 0.1402132500000004
                },
                {
                    "name": "F2",
                    "midi": 41,
                    "time": 14.769129000000031,
                    "velocity": 0.5196850393700787,
                    "duration": 0.1402132500000004
                },
                {
                    "name": "G1",
                    "midi": 31,
                    "time": 14.956080000000032,
                    "velocity": 0.5511811023622047,
                    "duration": 0.3739019999999993
                },
                {
                    "name": "F2",
                    "midi": 41,
                    "time": 14.956080000000032,
                    "velocity": 0.6692913385826772,
                    "duration": 0.3739019999999993
                },
                {
                    "name": "G2",
                    "midi": 43,
                    "time": 15.329982000000031,
                    "velocity": 0.6377952755905512,
                    "duration": 0.9347550000000009
                },
                {
                    "name": "G3",
                    "midi": 55,
                    "time": 15.329982000000031,
                    "velocity": 0.7559055118110236,
                    "duration": 0.9347550000000009
                },
                {
                    "name": "A3",
                    "midi": 57,
                    "time": 16.264737000000032,
                    "velocity": 0.5275590551181102,
                    "duration": 0.09347550000000027
                },
                {
                    "name": "B3",
                    "midi": 59,
                    "time": 16.358212500000032,
                    "velocity": 0.5511811023622047,
                    "duration": 0.09347550000000027
                },
                {
                    "name": "C4",
                    "midi": 60,
                    "time": 16.451688000000033,
                    "velocity": 0.5669291338582677,
                    "duration": 0.14021324999999862
                },
                {
                    "name": "G2",
                    "midi": 43,
                    "time": 16.82559000000003,
                    "velocity": 0.4409448818897638,
                    "duration": 0.14021324999999862
                },
                {
                    "name": "G3",
                    "midi": 55,
                    "time": 16.82559000000003,
                    "velocity": 0.5196850393700787,
                    "duration": 0.14021324999999862
                },
                {
                    "name": "D#2",
                    "midi": 39,
                    "time": 17.199492000000028,
                    "velocity": 0.4094488188976378,
                    "duration": 0.14021324999999862
                },
                {
                    "name": "D#3",
                    "midi": 51,
                    "time": 17.199492000000028,
                    "velocity": 0.4881889763779528,
                    "duration": 0.14021324999999862
                },
                {
                    "name": "C2",
                    "midi": 36,
                    "time": 17.573394000000025,
                    "velocity": 0.3779527559055118,
                    "duration": 0.14021324999999862
                },
                {
                    "name": "C3",
                    "midi": 48,
                    "time": 17.573394000000025,
                    "velocity": 0.44881889763779526,
                    "duration": 0.14021324999999862
                },
                {
                    "name": "G1",
                    "midi": 31,
                    "time": 17.947296000000023,
                    "velocity": 0.36220472440944884,
                    "duration": 1.4956080000000007
                },
                {
                    "name": "G2",
                    "midi": 43,
                    "time": 17.947296000000023,
                    "velocity": 0.4251968503937008,
                    "duration": 1.4956080000000007
                },
                {
                    "name": "C2",
                    "midi": 36,
                    "time": 19.442904000000024,
                    "velocity": 0.23622047244094488,
                    "duration": 1.4956080000000043
                },
                {
                    "name": "C3",
                    "midi": 48,
                    "time": 19.442904000000024,
                    "velocity": 0.23622047244094488,
                    "duration": 0.18695100000000053
                },
                {
                    "name": "C3",
                    "midi": 48,
                    "time": 19.629855000000024,
                    "velocity": 0.2440944881889764,
                    "duration": 0.09269653750000018
                },
                {
                    "name": "G3",
                    "midi": 55,
                    "time": 19.723330500000024,
                    "velocity": 0.2047244094488189,
                    "duration": 0.09347550000000027
                },
                {
                    "name": "C3",
                    "midi": 48,
                    "time": 19.816806000000025,
                    "velocity": 0.2440944881889764,
                    "duration": 0.09269653750000018
                },
                {
                    "name": "G3",
                    "midi": 55,
                    "time": 19.910281500000025,
                    "velocity": 0.2125984251968504,
                    "duration": 0.09347550000000027
                },
                {
                    "name": "C3",
                    "midi": 48,
                    "time": 20.003757000000025,
                    "velocity": 0.2440944881889764,
                    "duration": 0.09269653750000018
                },
                {
                    "name": "G3",
                    "midi": 55,
                    "time": 20.097232500000025,
                    "velocity": 0.2125984251968504,
                    "duration": 0.09347550000000027
                },
                {
                    "name": "C3",
                    "midi": 48,
                    "time": 20.190708000000026,
                    "velocity": 0.2440944881889764,
                    "duration": 0.09269653750000018
                },
                {
                    "name": "G3",
                    "midi": 55,
                    "time": 20.284183500000026,
                    "velocity": 0.2047244094488189,
                    "duration": 0.09347550000000027
                },
                {
                    "name": "C3",
                    "midi": 48,
                    "time": 20.377659000000026,
                    "velocity": 0.2440944881889764,
                    "duration": 0.09269653750000018
                },
                {
                    "name": "G3",
                    "midi": 55,
                    "time": 20.471134500000026,
                    "velocity": 0.2125984251968504,
                    "duration": 0.09347550000000027
                },
                {
                    "name": "C3",
                    "midi": 48,
                    "time": 20.564610000000027,
                    "velocity": 0.2440944881889764,
                    "duration": 0.09269653750000018
                },
                {
                    "name": "G3",
                    "midi": 55,
                    "time": 20.658085500000027,
                    "velocity": 0.2125984251968504,
                    "duration": 0.09347550000000027
                },
                {
                    "name": "C3",
                    "midi": 48,
                    "time": 20.751561000000027,
                    "velocity": 0.2440944881889764,
                    "duration": 0.09269653750000018
                },
                {
                    "name": "G3",
                    "midi": 55,
                    "time": 20.845036500000028,
                    "velocity": 0.1968503937007874,
                    "duration": 0.09347550000000027
                },
                {
                    "name": "C3",
                    "midi": 48,
                    "time": 20.938512000000028,
                    "velocity": 0.2440944881889764,
                    "duration": 0.09269653750000018
                },
                {
                    "name": "G3",
                    "midi": 55,
                    "time": 21.031987500000028,
                    "velocity": 0.2047244094488189,
                    "duration": 0.09347550000000027
                },
                {
                    "name": "C3",
                    "midi": 48,
                    "time": 21.12546300000003,
                    "velocity": 0.2440944881889764,
                    "duration": 0.09269653750000018
                },
                {
                    "name": "G3",
                    "midi": 55,
                    "time": 21.21893850000003,
                    "velocity": 0.2047244094488189,
                    "duration": 0.09347550000000027
                },
                {
                    "name": "C3",
                    "midi": 48,
                    "time": 21.31241400000003,
                    "velocity": 0.2440944881889764,
                    "duration": 0.09269653750000018
                },
                {
                    "name": "G3",
                    "midi": 55,
                    "time": 21.40588950000003,
                    "velocity": 0.2125984251968504,
                    "duration": 0.09347550000000027
                },
                {
                    "name": "C3",
                    "midi": 48,
                    "time": 21.49936500000003,
                    "velocity": 0.2440944881889764,
                    "duration": 0.09269653750000018
                },
                {
                    "name": "G3",
                    "midi": 55,
                    "time": 21.59284050000003,
                    "velocity": 0.2125984251968504,
                    "duration": 0.09347550000000027
                },
                {
                    "name": "C3",
                    "midi": 48,
                    "time": 21.68631600000003,
                    "velocity": 0.2440944881889764,
                    "duration": 0.09269653750000018
                },
                {
                    "name": "G3",
                    "midi": 55,
                    "time": 21.77979150000003,
                    "velocity": 0.2047244094488189,
                    "duration": 0.09347550000000027
                },
                {
                    "name": "C3",
                    "midi": 48,
                    "time": 21.87326700000003,
                    "velocity": 0.2440944881889764,
                    "duration": 0.09269653750000018
                },
                {
                    "name": "G3",
                    "midi": 55,
                    "time": 21.96674250000003,
                    "velocity": 0.2125984251968504,
                    "duration": 0.09347550000000027
                },
                {
                    "name": "C3",
                    "midi": 48,
                    "time": 22.06021800000003,
                    "velocity": 0.2440944881889764,
                    "duration": 0.09269653750000018
                },
                {
                    "name": "A3",
                    "midi": 57,
                    "time": 22.15369350000003,
                    "velocity": 0.2125984251968504,
                    "duration": 0.09347550000000027
                },
                {
                    "name": "C3",
                    "midi": 48,
                    "time": 22.24716900000003,
                    "velocity": 0.2440944881889764,
                    "duration": 0.09269653750000018
                },
                {
                    "name": "A3",
                    "midi": 57,
                    "time": 22.34064450000003,
                    "velocity": 0.1968503937007874,
                    "duration": 0.09347550000000027
                },
                {
                    "name": "B2",
                    "midi": 47,
                    "time": 22.434120000000032,
                    "velocity": 0.2047244094488189,
                    "duration": 0.14021324999999862
                },
                {
                    "name": "D3",
                    "midi": 50,
                    "time": 22.434120000000032,
                    "velocity": 0.2440944881889764,
                    "duration": 0.14021324999999862
                },
                {
                    "name": "G3",
                    "midi": 55,
                    "time": 22.527595500000032,
                    "velocity": 0.1968503937007874,
                    "duration": 0.09347549999999671
                },
                {
                    "name": "B2",
                    "midi": 47,
                    "time": 22.62107100000003,
                    "velocity": 0.2047244094488189,
                    "duration": 0.14021324999999862
                },
                {
                    "name": "D3",
                    "midi": 50,
                    "time": 22.62107100000003,
                    "velocity": 0.2440944881889764,
                    "duration": 0.14021324999999862
                },
                {
                    "name": "G3",
                    "midi": 55,
                    "time": 22.71454650000003,
                    "velocity": 0.1968503937007874,
                    "duration": 0.09347549999999671
                },
                {
                    "name": "B2",
                    "midi": 47,
                    "time": 22.808022000000026,
                    "velocity": 0.2047244094488189,
                    "duration": 0.14021324999999862
                },
                {
                    "name": "D3",
                    "midi": 50,
                    "time": 22.808022000000026,
                    "velocity": 0.2440944881889764,
                    "duration": 0.14021324999999862
                },
                {
                    "name": "G3",
                    "midi": 55,
                    "time": 22.901497500000026,
                    "velocity": 0.1968503937007874,
                    "duration": 0.09347549999999671
                },
                {
                    "name": "B2",
                    "midi": 47,
                    "time": 22.994973000000023,
                    "velocity": 0.2047244094488189,
                    "duration": 0.14021324999999862
                },
                {
                    "name": "D3",
                    "midi": 50,
                    "time": 22.994973000000023,
                    "velocity": 0.2440944881889764,
                    "duration": 0.14021324999999862
                },
                {
                    "name": "G3",
                    "midi": 55,
                    "time": 23.088448500000023,
                    "velocity": 0.1968503937007874,
                    "duration": 0.09347549999999671
                },
                {
                    "name": "B2",
                    "midi": 47,
                    "time": 23.18192400000002,
                    "velocity": 0.2047244094488189,
                    "duration": 0.14021324999999862
                },
                {
                    "name": "D3",
                    "midi": 50,
                    "time": 23.18192400000002,
                    "velocity": 0.2440944881889764,
                    "duration": 0.14021324999999862
                },
                {
                    "name": "G3",
                    "midi": 55,
                    "time": 23.27539950000002,
                    "velocity": 0.1968503937007874,
                    "duration": 0.09347549999999671
                },
                {
                    "name": "B2",
                    "midi": 47,
                    "time": 23.368875000000017,
                    "velocity": 0.2047244094488189,
                    "duration": 0.14021324999999862
                },
                {
                    "name": "D3",
                    "midi": 50,
                    "time": 23.368875000000017,
                    "velocity": 0.2440944881889764,
                    "duration": 0.14021324999999862
                },
                {
                    "name": "G3",
                    "midi": 55,
                    "time": 23.462350500000017,
                    "velocity": 0.1968503937007874,
                    "duration": 0.09347549999999671
                },
                {
                    "name": "B2",
                    "midi": 47,
                    "time": 23.555826000000014,
                    "velocity": 0.2047244094488189,
                    "duration": 0.14021324999999862
                },
                {
                    "name": "D3",
                    "midi": 50,
                    "time": 23.555826000000014,
                    "velocity": 0.2440944881889764,
                    "duration": 0.14021324999999862
                },
                {
                    "name": "G3",
                    "midi": 55,
                    "time": 23.649301500000014,
                    "velocity": 0.1968503937007874,
                    "duration": 0.09347549999999671
                },
                {
                    "name": "B2",
                    "midi": 47,
                    "time": 23.74277700000001,
                    "velocity": 0.2047244094488189,
                    "duration": 0.14021324999999862
                },
                {
                    "name": "D3",
                    "midi": 50,
                    "time": 23.74277700000001,
                    "velocity": 0.2440944881889764,
                    "duration": 0.14021324999999862
                },
                {
                    "name": "G3",
                    "midi": 55,
                    "time": 23.83625250000001,
                    "velocity": 0.1968503937007874,
                    "duration": 0.09347549999999671
                },
                {
                    "name": "B2",
                    "midi": 47,
                    "time": 23.929728000000008,
                    "velocity": 0.2047244094488189,
                    "duration": 0.14021324999999862
                },
                {
                    "name": "D3",
                    "midi": 50,
                    "time": 23.929728000000008,
                    "velocity": 0.2440944881889764,
                    "duration": 0.14021324999999862
                },
                {
                    "name": "G3",
                    "midi": 55,
                    "time": 24.023203500000008,
                    "velocity": 0.1968503937007874,
                    "duration": 0.09347549999999671
                },
                {
                    "name": "B2",
                    "midi": 47,
                    "time": 24.116679000000005,
                    "velocity": 0.2047244094488189,
                    "duration": 0.14021324999999862
                },
                {
                    "name": "D3",
                    "midi": 50,
                    "time": 24.116679000000005,
                    "velocity": 0.2440944881889764,
                    "duration": 0.14021324999999862
                },
                {
                    "name": "G3",
                    "midi": 55,
                    "time": 24.210154500000005,
                    "velocity": 0.1968503937007874,
                    "duration": 0.09347549999999671
                },
                {
                    "name": "B2",
                    "midi": 47,
                    "time": 24.303630000000002,
                    "velocity": 0.2047244094488189,
                    "duration": 0.14021324999999862
                },
                {
                    "name": "D3",
                    "midi": 50,
                    "time": 24.303630000000002,
                    "velocity": 0.2440944881889764,
                    "duration": 0.14021324999999862
                },
                {
                    "name": "G3",
                    "midi": 55,
                    "time": 24.397105500000002,
                    "velocity": 0.1968503937007874,
                    "duration": 0.09347549999999671
                },
                {
                    "name": "B2",
                    "midi": 47,
                    "time": 24.490581,
                    "velocity": 0.2047244094488189,
                    "duration": 0.14021324999999862
                },
                {
                    "name": "D3",
                    "midi": 50,
                    "time": 24.490581,
                    "velocity": 0.2440944881889764,
                    "duration": 0.14021324999999862
                },
                {
                    "name": "G3",
                    "midi": 55,
                    "time": 24.5840565,
                    "velocity": 0.1968503937007874,
                    "duration": 0.09347549999999671
                },
                {
                    "name": "B2",
                    "midi": 47,
                    "time": 24.677531999999996,
                    "velocity": 0.2047244094488189,
                    "duration": 0.14021324999999862
                },
                {
                    "name": "D3",
                    "midi": 50,
                    "time": 24.677531999999996,
                    "velocity": 0.2440944881889764,
                    "duration": 0.14021324999999862
                },
                {
                    "name": "G3",
                    "midi": 55,
                    "time": 24.771007499999996,
                    "velocity": 0.1968503937007874,
                    "duration": 0.09347549999999671
                },
                {
                    "name": "B2",
                    "midi": 47,
                    "time": 24.864482999999993,
                    "velocity": 0.2047244094488189,
                    "duration": 0.14021324999999862
                },
                {
                    "name": "D3",
                    "midi": 50,
                    "time": 24.864482999999993,
                    "velocity": 0.2440944881889764,
                    "duration": 0.14021324999999862
                },
                {
                    "name": "G3",
                    "midi": 55,
                    "time": 24.957958499999993,
                    "velocity": 0.1968503937007874,
                    "duration": 0.09347549999999671
                },
                {
                    "name": "B2",
                    "midi": 47,
                    "time": 25.05143399999999,
                    "velocity": 0.2047244094488189,
                    "duration": 0.14021324999999862
                },
                {
                    "name": "D3",
                    "midi": 50,
                    "time": 25.05143399999999,
                    "velocity": 0.2440944881889764,
                    "duration": 0.14021324999999862
                },
                {
                    "name": "G3",
                    "midi": 55,
                    "time": 25.14490949999999,
                    "velocity": 0.1968503937007874,
                    "duration": 0.09347549999999671
                },
                {
                    "name": "B2",
                    "midi": 47,
                    "time": 25.238384999999987,
                    "velocity": 0.2047244094488189,
                    "duration": 0.14021324999999862
                },
                {
                    "name": "D3",
                    "midi": 50,
                    "time": 25.238384999999987,
                    "velocity": 0.2440944881889764,
                    "duration": 0.14021324999999862
                },
                {
                    "name": "G3",
                    "midi": 55,
                    "time": 25.331860499999987,
                    "velocity": 0.1968503937007874,
                    "duration": 0.09347549999999671
                },
                {
                    "name": "D2",
                    "midi": 38,
                    "time": 25.425335999999984,
                    "velocity": 0.25984251968503935,
                    "duration": 1.4956080000000043
                },
                {
                    "name": "D3",
                    "midi": 50,
                    "time": 25.425335999999984,
                    "velocity": 0.25984251968503935,
                    "duration": 0.18695100000000053
                },
                {
                    "name": "D3",
                    "midi": 50,
                    "time": 25.612286999999984,
                    "velocity": 0.2677165354330709,
                    "duration": 0.09269653750000018
                },
                {
                    "name": "A3",
                    "midi": 57,
                    "time": 25.705762499999985,
                    "velocity": 0.2204724409448819,
                    "duration": 0.09347550000000027
                },
                {
                    "name": "D3",
                    "midi": 50,
                    "time": 25.799237999999985,
                    "velocity": 0.2677165354330709,
                    "duration": 0.09269653750000018
                },
                {
                    "name": "A3",
                    "midi": 57,
                    "time": 25.892713499999985,
                    "velocity": 0.2283464566929134,
                    "duration": 0.09347550000000027
                },
                {
                    "name": "D3",
                    "midi": 50,
                    "time": 25.986188999999985,
                    "velocity": 0.2677165354330709,
                    "duration": 0.09269653750000018
                },
                {
                    "name": "A3",
                    "midi": 57,
                    "time": 26.079664499999986,
                    "velocity": 0.2283464566929134,
                    "duration": 0.09347550000000027
                },
                {
                    "name": "D3",
                    "midi": 50,
                    "time": 26.173139999999986,
                    "velocity": 0.2677165354330709,
                    "duration": 0.09269653750000018
                },
                {
                    "name": "A3",
                    "midi": 57,
                    "time": 26.266615499999986,
                    "velocity": 0.2204724409448819,
                    "duration": 0.09347550000000027
                },
                {
                    "name": "D3",
                    "midi": 50,
                    "time": 26.360090999999986,
                    "velocity": 0.2677165354330709,
                    "duration": 0.09269653750000018
                },
                {
                    "name": "A3",
                    "midi": 57,
                    "time": 26.453566499999987,
                    "velocity": 0.2283464566929134,
                    "duration": 0.09347550000000027
                },
                {
                    "name": "D3",
                    "midi": 50,
                    "time": 26.547041999999987,
                    "velocity": 0.2677165354330709,
                    "duration": 0.09269653750000018
                },
                {
                    "name": "A3",
                    "midi": 57,
                    "time": 26.640517499999987,
                    "velocity": 0.23622047244094488,
                    "duration": 0.09347550000000027
                },
                {
                    "name": "D3",
                    "midi": 50,
                    "time": 26.733992999999987,
                    "velocity": 0.2755905511811024,
                    "duration": 0.09269653750000018
                },
                {
                    "name": "A3",
                    "midi": 57,
                    "time": 26.827468499999988,
                    "velocity": 0.2204724409448819,
                    "duration": 0.09347550000000027
                },
                {
                    "name": "D3",
                    "midi": 50,
                    "time": 26.920943999999988,
                    "velocity": 0.2755905511811024,
                    "duration": 0.09269653750000018
                },
                {
                    "name": "A3",
                    "midi": 57,
                    "time": 27.01441949999999,
                    "velocity": 0.2283464566929134,
                    "duration": 0.09347550000000027
                },
                {
                    "name": "D3",
                    "midi": 50,
                    "time": 27.10789499999999,
                    "velocity": 0.2755905511811024,
                    "duration": 0.09269653750000018
                },
                {
                    "name": "A3",
                    "midi": 57,
                    "time": 27.20137049999999,
                    "velocity": 0.2283464566929134,
                    "duration": 0.09347550000000027
                },
                {
                    "name": "D3",
                    "midi": 50,
                    "time": 27.29484599999999,
                    "velocity": 0.2755905511811024,
                    "duration": 0.09269653750000018
                },
                {
                    "name": "A3",
                    "midi": 57,
                    "time": 27.38832149999999,
                    "velocity": 0.23622047244094488,
                    "duration": 0.09347550000000027
                },
                {
                    "name": "D3",
                    "midi": 50,
                    "time": 27.48179699999999,
                    "velocity": 0.2755905511811024,
                    "duration": 0.09269653750000018
                },
                {
                    "name": "A3",
                    "midi": 57,
                    "time": 27.57527249999999,
                    "velocity": 0.23622047244094488,
                    "duration": 0.09347550000000027
                },
                {
                    "name": "D3",
                    "midi": 50,
                    "time": 27.66874799999999,
                    "velocity": 0.28346456692913385,
                    "duration": 0.09269653750000018
                },
                {
                    "name": "A3",
                    "midi": 57,
                    "time": 27.76222349999999,
                    "velocity": 0.2283464566929134,
                    "duration": 0.09347550000000027
                },
                {
                    "name": "D3",
                    "midi": 50,
                    "time": 27.85569899999999,
                    "velocity": 0.28346456692913385,
                    "duration": 0.09269653750000018
                },
                {
                    "name": "A3",
                    "midi": 57,
                    "time": 27.94917449999999,
                    "velocity": 0.2440944881889764,
                    "duration": 0.09347550000000027
                },
                {
                    "name": "D3",
                    "midi": 50,
                    "time": 28.04264999999999,
                    "velocity": 0.28346456692913385,
                    "duration": 0.09269653750000018
                },
                {
                    "name": "B3",
                    "midi": 59,
                    "time": 28.13612549999999,
                    "velocity": 0.2440944881889764,
                    "duration": 0.09347550000000027
                },
                {
                    "name": "D3",
                    "midi": 50,
                    "time": 28.22960099999999,
                    "velocity": 0.28346456692913385,
                    "duration": 0.09269653750000018
                },
                {
                    "name": "B3",
                    "midi": 59,
                    "time": 28.323076499999992,
                    "velocity": 0.2283464566929134,
                    "duration": 0.09347550000000027
                },
                {
                    "name": "C3",
                    "midi": 48,
                    "time": 28.416551999999992,
                    "velocity": 0.23622047244094488,
                    "duration": 0.14021324999999862
                },
                {
                    "name": "E3",
                    "midi": 52,
                    "time": 28.416551999999992,
                    "velocity": 0.29133858267716534,
                    "duration": 0.14021324999999862
                },
                {
                    "name": "A3",
                    "midi": 57,
                    "time": 28.510027499999993,
                    "velocity": 0.2283464566929134,
                    "duration": 0.09347549999999671
                },
                {
                    "name": "C3",
                    "midi": 48,
                    "time": 28.60350299999999,
                    "velocity": 0.23622047244094488,
                    "duration": 0.14021324999999862
                },
                {
                    "name": "E3",
                    "midi": 52,
                    "time": 28.60350299999999,
                    "velocity": 0.29133858267716534,
                    "duration": 0.14021324999999862
                },
                {
                    "name": "A3",
                    "midi": 57,
                    "time": 28.69697849999999,
                    "velocity": 0.2283464566929134,
                    "duration": 0.09347549999999671
                },
                {
                    "name": "C3",
                    "midi": 48,
                    "time": 28.790453999999986,
                    "velocity": 0.23622047244094488,
                    "duration": 0.14021324999999862
                },
                {
                    "name": "E3",
                    "midi": 52,
                    "time": 28.790453999999986,
                    "velocity": 0.29133858267716534,
                    "duration": 0.14021324999999862
                },
                {
                    "name": "A3",
                    "midi": 57,
                    "time": 28.883929499999986,
                    "velocity": 0.2283464566929134,
                    "duration": 0.09347549999999671
                },
                {
                    "name": "C3",
                    "midi": 48,
                    "time": 28.977404999999983,
                    "velocity": 0.23622047244094488,
                    "duration": 0.14021324999999862
                },
                {
                    "name": "E3",
                    "midi": 52,
                    "time": 28.977404999999983,
                    "velocity": 0.29133858267716534,
                    "duration": 0.14021324999999862
                },
                {
                    "name": "A3",
                    "midi": 57,
                    "time": 29.070880499999983,
                    "velocity": 0.2283464566929134,
                    "duration": 0.09347549999999671
                },
                {
                    "name": "C3",
                    "midi": 48,
                    "time": 29.16435599999998,
                    "velocity": 0.23622047244094488,
                    "duration": 0.14021324999999862
                },
                {
                    "name": "E3",
                    "midi": 52,
                    "time": 29.16435599999998,
                    "velocity": 0.29133858267716534,
                    "duration": 0.14021324999999862
                },
                {
                    "name": "A3",
                    "midi": 57,
                    "time": 29.25783149999998,
                    "velocity": 0.2283464566929134,
                    "duration": 0.09347549999999671
                },
                {
                    "name": "C3",
                    "midi": 48,
                    "time": 29.351306999999977,
                    "velocity": 0.23622047244094488,
                    "duration": 0.14021324999999862
                },
                {
                    "name": "E3",
                    "midi": 52,
                    "time": 29.351306999999977,
                    "velocity": 0.29133858267716534,
                    "duration": 0.14021324999999862
                },
                {
                    "name": "A3",
                    "midi": 57,
                    "time": 29.444782499999977,
                    "velocity": 0.2283464566929134,
                    "duration": 0.09347549999999671
                },
                {
                    "name": "C3",
                    "midi": 48,
                    "time": 29.538257999999974,
                    "velocity": 0.23622047244094488,
                    "duration": 0.14021324999999862
                },
                {
                    "name": "E3",
                    "midi": 52,
                    "time": 29.538257999999974,
                    "velocity": 0.29133858267716534,
                    "duration": 0.14021324999999862
                },
                {
                    "name": "A3",
                    "midi": 57,
                    "time": 29.631733499999974,
                    "velocity": 0.2283464566929134,
                    "duration": 0.09347549999999671
                },
                {
                    "name": "C3",
                    "midi": 48,
                    "time": 29.72520899999997,
                    "velocity": 0.23622047244094488,
                    "duration": 0.14021324999999862
                },
                {
                    "name": "E3",
                    "midi": 52,
                    "time": 29.72520899999997,
                    "velocity": 0.29133858267716534,
                    "duration": 0.14021324999999862
                },
                {
                    "name": "A3",
                    "midi": 57,
                    "time": 29.81868449999997,
                    "velocity": 0.2283464566929134,
                    "duration": 0.09347549999999671
                },
                {
                    "name": "C3",
                    "midi": 48,
                    "time": 29.912159999999968,
                    "velocity": 0.23622047244094488,
                    "duration": 0.14021324999999862
                },
                {
                    "name": "E3",
                    "midi": 52,
                    "time": 29.912159999999968,
                    "velocity": 0.29133858267716534,
                    "duration": 0.14021324999999862
                },
                {
                    "name": "A3",
                    "midi": 57,
                    "time": 30.00563549999997,
                    "velocity": 0.2283464566929134,
                    "duration": 0.09347549999999671
                },
                {
                    "name": "C3",
                    "midi": 48,
                    "time": 30.099110999999965,
                    "velocity": 0.23622047244094488,
                    "duration": 0.14021324999999862
                },
                {
                    "name": "E3",
                    "midi": 52,
                    "time": 30.099110999999965,
                    "velocity": 0.29133858267716534,
                    "duration": 0.14021324999999862
                },
                {
                    "name": "A3",
                    "midi": 57,
                    "time": 30.192586499999965,
                    "velocity": 0.2283464566929134,
                    "duration": 0.09347549999999671
                },
                {
                    "name": "C3",
                    "midi": 48,
                    "time": 30.286061999999962,
                    "velocity": 0.23622047244094488,
                    "duration": 0.14021324999999862
                },
                {
                    "name": "E3",
                    "midi": 52,
                    "time": 30.286061999999962,
                    "velocity": 0.29133858267716534,
                    "duration": 0.14021324999999862
                },
                {
                    "name": "A3",
                    "midi": 57,
                    "time": 30.379537499999962,
                    "velocity": 0.2283464566929134,
                    "duration": 0.09347549999999671
                },
                {
                    "name": "C3",
                    "midi": 48,
                    "time": 30.47301299999996,
                    "velocity": 0.23622047244094488,
                    "duration": 0.14021324999999862
                },
                {
                    "name": "E3",
                    "midi": 52,
                    "time": 30.47301299999996,
                    "velocity": 0.30708661417322836,
                    "duration": 0.14021324999999862
                },
                {
                    "name": "A3",
                    "midi": 57,
                    "time": 30.56648849999996,
                    "velocity": 0.2440944881889764,
                    "duration": 0.09347549999999671
                },
                {
                    "name": "C3",
                    "midi": 48,
                    "time": 30.659963999999956,
                    "velocity": 0.25196850393700787,
                    "duration": 0.14021324999999862
                },
                {
                    "name": "E3",
                    "midi": 52,
                    "time": 30.659963999999956,
                    "velocity": 0.30708661417322836,
                    "duration": 0.14021324999999862
                },
                {
                    "name": "A3",
                    "midi": 57,
                    "time": 30.753439499999956,
                    "velocity": 0.2440944881889764,
                    "duration": 0.09347549999999671
                },
                {
                    "name": "C3",
                    "midi": 48,
                    "time": 30.846914999999953,
                    "velocity": 0.25196850393700787,
                    "duration": 0.14021324999999862
                },
                {
                    "name": "E3",
                    "midi": 52,
                    "time": 30.846914999999953,
                    "velocity": 0.3228346456692913,
                    "duration": 0.14021324999999862
                },
                {
                    "name": "A3",
                    "midi": 57,
                    "time": 30.940390499999953,
                    "velocity": 0.2440944881889764,
                    "duration": 0.09347549999999671
                },
                {
                    "name": "C3",
                    "midi": 48,
                    "time": 31.03386599999995,
                    "velocity": 0.25984251968503935,
                    "duration": 0.14021324999999862
                },
                {
                    "name": "E3",
                    "midi": 52,
                    "time": 31.03386599999995,
                    "velocity": 0.3228346456692913,
                    "duration": 0.14021324999999862
                },
                {
                    "name": "A3",
                    "midi": 57,
                    "time": 31.12734149999995,
                    "velocity": 0.25984251968503935,
                    "duration": 0.09347549999999671
                },
                {
                    "name": "C3",
                    "midi": 48,
                    "time": 31.220816999999947,
                    "velocity": 0.2755905511811024,
                    "duration": 0.14021324999999862
                },
                {
                    "name": "E3",
                    "midi": 52,
                    "time": 31.220816999999947,
                    "velocity": 0.33070866141732286,
                    "duration": 0.14021324999999862
                },
                {
                    "name": "A3",
                    "midi": 57,
                    "time": 31.314292499999947,
                    "velocity": 0.25984251968503935,
                    "duration": 0.09347549999999671
                },
                {
                    "name": "C3",
                    "midi": 48,
                    "time": 31.407767999999944,
                    "velocity": 0.29133858267716534,
                    "duration": 0.14021324999999862
                },
                {
                    "name": "E3",
                    "midi": 52,
                    "time": 31.407767999999944,
                    "velocity": 0.3543307086614173,
                    "duration": 0.14021324999999862
                },
                {
                    "name": "A#3",
                    "midi": 58,
                    "time": 31.501243499999944,
                    "velocity": 0.28346456692913385,
                    "duration": 0.09347549999999671
                },
                {
                    "name": "C3",
                    "midi": 48,
                    "time": 31.59471899999994,
                    "velocity": 0.2992125984251969,
                    "duration": 0.14021324999999862
                },
                {
                    "name": "E3",
                    "midi": 52,
                    "time": 31.59471899999994,
                    "velocity": 0.3543307086614173,
                    "duration": 0.14021324999999862
                },
                {
                    "name": "A#3",
                    "midi": 58,
                    "time": 31.68819449999994,
                    "velocity": 0.29133858267716534,
                    "duration": 0.09347549999999671
                },
                {
                    "name": "C3",
                    "midi": 48,
                    "time": 31.781669999999938,
                    "velocity": 0.30708661417322836,
                    "duration": 0.14021324999999862
                },
                {
                    "name": "E3",
                    "midi": 52,
                    "time": 31.781669999999938,
                    "velocity": 0.3700787401574803,
                    "duration": 0.14021324999999862
                },
                {
                    "name": "A#3",
                    "midi": 58,
                    "time": 31.875145499999938,
                    "velocity": 0.2992125984251969,
                    "duration": 0.09347549999999671
                },
                {
                    "name": "C3",
                    "midi": 48,
                    "time": 31.968620999999935,
                    "velocity": 0.30708661417322836,
                    "duration": 0.14021324999999507
                },
                {
                    "name": "E3",
                    "midi": 52,
                    "time": 31.968620999999935,
                    "velocity": 0.3700787401574803,
                    "duration": 0.14021324999999507
                },
                {
                    "name": "A#3",
                    "midi": 58,
                    "time": 32.06209649999993,
                    "velocity": 0.2992125984251969,
                    "duration": 0.09347549999999671
                },
                {
                    "name": "C3",
                    "midi": 48,
                    "time": 32.15557199999993,
                    "velocity": 0.3228346456692913,
                    "duration": 0.14021324999999507
                },
                {
                    "name": "E3",
                    "midi": 52,
                    "time": 32.15557199999993,
                    "velocity": 0.3937007874015748,
                    "duration": 0.14021324999999507
                },
                {
                    "name": "A#3",
                    "midi": 58,
                    "time": 32.249047499999925,
                    "velocity": 0.31496062992125984,
                    "duration": 0.09347549999999671
                },
                {
                    "name": "C3",
                    "midi": 48,
                    "time": 32.34252299999992,
                    "velocity": 0.3228346456692913,
                    "duration": 0.14021324999999507
                },
                {
                    "name": "E3",
                    "midi": 52,
                    "time": 32.34252299999992,
                    "velocity": 0.4015748031496063,
                    "duration": 0.14021324999999507
                },
                {
                    "name": "A#3",
                    "midi": 58,
                    "time": 32.43599849999992,
                    "velocity": 0.31496062992125984,
                    "duration": 0.09347549999999671
                },
                {
                    "name": "C3",
                    "midi": 48,
                    "time": 32.529473999999915,
                    "velocity": 0.33070866141732286,
                    "duration": 0.14021324999999507
                },
                {
                    "name": "E3",
                    "midi": 52,
                    "time": 32.529473999999915,
                    "velocity": 0.4015748031496063,
                    "duration": 0.14021324999999507
                },
                {
                    "name": "A#3",
                    "midi": 58,
                    "time": 32.62294949999991,
                    "velocity": 0.33070866141732286,
                    "duration": 0.09347549999999671
                },
                {
                    "name": "C3",
                    "midi": 48,
                    "time": 32.71642499999991,
                    "velocity": 0.33858267716535434,
                    "duration": 0.14021324999999507
                },
                {
                    "name": "E3",
                    "midi": 52,
                    "time": 32.71642499999991,
                    "velocity": 0.41732283464566927,
                    "duration": 0.14021324999999507
                },
                {
                    "name": "A#3",
                    "midi": 58,
                    "time": 32.809900499999905,
                    "velocity": 0.33070866141732286,
                    "duration": 0.09347549999999671
                },
                {
                    "name": "B2",
                    "midi": 47,
                    "time": 32.9033759999999,
                    "velocity": 0.31496062992125984,
                    "duration": 0.10905474999999853
                },
                {
                    "name": "D#3",
                    "midi": 51,
                    "time": 32.9968514999999,
                    "velocity": 0.2755905511811024,
                    "duration": 0.10905475000000564
                },
                {
                    "name": "F#3",
                    "midi": 54,
                    "time": 33.0903269999999,
                    "velocity": 0.2755905511811024,
                    "duration": 0.10905475000000564
                },
                {
                    "name": "B3",
                    "midi": 59,
                    "time": 33.183802499999906,
                    "velocity": 0.2755905511811024,
                    "duration": 0.09347550000000382
                },
                {
                    "name": "B2",
                    "midi": 47,
                    "time": 33.27727799999991,
                    "velocity": 0.3228346456692913,
                    "duration": 0.10905474999999853
                },
                {
                    "name": "D#3",
                    "midi": 51,
                    "time": 33.37075349999991,
                    "velocity": 0.2755905511811024,
                    "duration": 0.10905475000000564
                },
                {
                    "name": "F#3",
                    "midi": 54,
                    "time": 33.46422899999991,
                    "velocity": 0.2755905511811024,
                    "duration": 0.10905475000000564
                },
                {
                    "name": "B3",
                    "midi": 59,
                    "time": 33.557704499999915,
                    "velocity": 0.2755905511811024,
                    "duration": 0.09347550000000382
                },
                {
                    "name": "B2",
                    "midi": 47,
                    "time": 33.65117999999992,
                    "velocity": 0.30708661417322836,
                    "duration": 0.10905474999999853
                },
                {
                    "name": "E3",
                    "midi": 52,
                    "time": 33.744655499999915,
                    "velocity": 0.2755905511811024,
                    "duration": 0.10905475000000564
                },
                {
                    "name": "G3",
                    "midi": 55,
                    "time": 33.83813099999992,
                    "velocity": 0.2755905511811024,
                    "duration": 0.10905475000000564
                },
                {
                    "name": "B3",
                    "midi": 59,
                    "time": 33.93160649999992,
                    "velocity": 0.2755905511811024,
                    "duration": 0.09347550000000382
                },
                {
                    "name": "B2",
                    "midi": 47,
                    "time": 34.02508199999993,
                    "velocity": 0.31496062992125984,
                    "duration": 0.10905474999999853
                },
                {
                    "name": "E3",
                    "midi": 52,
                    "time": 34.11855749999992,
                    "velocity": 0.2755905511811024,
                    "duration": 0.10905475000000564
                },
                {
                    "name": "G3",
                    "midi": 55,
                    "time": 34.21203299999993,
                    "velocity": 0.2755905511811024,
                    "duration": 0.10905475000000564
                },
                {
                    "name": "B3",
                    "midi": 59,
                    "time": 34.30550849999993,
                    "velocity": 0.2755905511811024,
                    "duration": 0.09347550000000382
                },
                {
                    "name": "B2",
                    "midi": 47,
                    "time": 34.398983999999935,
                    "velocity": 0.31496062992125984,
                    "duration": 0.10905474999999853
                },
                {
                    "name": "F#3",
                    "midi": 54,
                    "time": 34.49245949999993,
                    "velocity": 0.2755905511811024,
                    "duration": 0.10905475000000564
                },
                {
                    "name": "A3",
                    "midi": 57,
                    "time": 34.585934999999935,
                    "velocity": 0.2755905511811024,
                    "duration": 0.10905475000000564
                },
                {
                    "name": "B3",
                    "midi": 59,
                    "time": 34.67941049999994,
                    "velocity": 0.2755905511811024,
                    "duration": 0.09347550000000382
                },
                {
                    "name": "B2",
                    "midi": 47,
                    "time": 34.77288599999994,
                    "velocity": 0.31496062992125984,
                    "duration": 0.10905474999999853
                },
                {
                    "name": "F#3",
                    "midi": 54,
                    "time": 34.86636149999994,
                    "velocity": 0.2755905511811024,
                    "duration": 0.10905475000000564
                },
                {
                    "name": "A3",
                    "midi": 57,
                    "time": 34.95983699999994,
                    "velocity": 0.2755905511811024,
                    "duration": 0.10905475000000564
                },
                {
                    "name": "B3",
                    "midi": 59,
                    "time": 35.05331249999995,
                    "velocity": 0.2755905511811024,
                    "duration": 0.09347550000000382
                },
                {
                    "name": "B2",
                    "midi": 47,
                    "time": 35.14678799999995,
                    "velocity": 0.31496062992125984,
                    "duration": 0.10905474999999853
                },
                {
                    "name": "E3",
                    "midi": 52,
                    "time": 35.24026349999995,
                    "velocity": 0.2755905511811024,
                    "duration": 0.10905475000000564
                },
                {
                    "name": "G3",
                    "midi": 55,
                    "time": 35.33373899999995,
                    "velocity": 0.2755905511811024,
                    "duration": 0.10905475000000564
                },
                {
                    "name": "B3",
                    "midi": 59,
                    "time": 35.427214499999955,
                    "velocity": 0.2755905511811024,
                    "duration": 0.09347550000000382
                },
                {
                    "name": "B2",
                    "midi": 47,
                    "time": 35.52068999999996,
                    "velocity": 0.31496062992125984,
                    "duration": 0.10905474999999853
                },
                {
                    "name": "E3",
                    "midi": 52,
                    "time": 35.614165499999956,
                    "velocity": 0.2755905511811024,
                    "duration": 0.10905475000000564
                },
                {
                    "name": "G3",
                    "midi": 55,
                    "time": 35.70764099999996,
                    "velocity": 0.2755905511811024,
                    "duration": 0.10905475000000564
                },
                {
                    "name": "B3",
                    "midi": 59,
                    "time": 35.801116499999964,
                    "velocity": 0.2755905511811024,
                    "duration": 0.09347550000000382
                },
                {
                    "name": "B2",
                    "midi": 47,
                    "time": 35.89459199999997,
                    "velocity": 0.31496062992125984,
                    "duration": 0.10905474999999853
                },
                {
                    "name": "D#3",
                    "midi": 51,
                    "time": 35.988067499999964,
                    "velocity": 0.2755905511811024,
                    "duration": 0.10905475000000564
                },
                {
                    "name": "F#3",
                    "midi": 54,
                    "time": 36.08154299999997,
                    "velocity": 0.2755905511811024,
                    "duration": 0.10905475000000564
                },
                {
                    "name": "B3",
                    "midi": 59,
                    "time": 36.17501849999997,
                    "velocity": 0.2755905511811024,
                    "duration": 0.09347550000000382
                },
                {
                    "name": "B2",
                    "midi": 47,
                    "time": 36.268493999999976,
                    "velocity": 0.31496062992125984,
                    "duration": 0.10905474999999853
                },
                {
                    "name": "D#3",
                    "midi": 51,
                    "time": 36.36196949999997,
                    "velocity": 0.2755905511811024,
                    "duration": 0.10905475000000564
                },
                {
                    "name": "F#3",
                    "midi": 54,
                    "time": 36.455444999999976,
                    "velocity": 0.2755905511811024,
                    "duration": 0.10905475000000564
                },
                {
                    "name": "B3",
                    "midi": 59,
                    "time": 36.54892049999998,
                    "velocity": 0.2755905511811024,
                    "duration": 0.09347550000000382
                },
                {
                    "name": "B2",
                    "midi": 47,
                    "time": 36.642395999999984,
                    "velocity": 0.31496062992125984,
                    "duration": 0.10905474999999853
                },
                {
                    "name": "E3",
                    "midi": 52,
                    "time": 36.73587149999998,
                    "velocity": 0.2755905511811024,
                    "duration": 0.10905475000000564
                },
                {
                    "name": "G3",
                    "midi": 55,
                    "time": 36.829346999999984,
                    "velocity": 0.2755905511811024,
                    "duration": 0.10905475000000564
                },
                {
                    "name": "B3",
                    "midi": 59,
                    "time": 36.92282249999999,
                    "velocity": 0.2755905511811024,
                    "duration": 0.09347550000000382
                },
                {
                    "name": "B2",
                    "midi": 47,
                    "time": 37.01629799999999,
                    "velocity": 0.3228346456692913,
                    "duration": 0.10905474999999853
                },
                {
                    "name": "E3",
                    "midi": 52,
                    "time": 37.10977349999999,
                    "velocity": 0.2755905511811024,
                    "duration": 0.10905475000000564
                },
                {
                    "name": "G3",
                    "midi": 55,
                    "time": 37.20324899999999,
                    "velocity": 0.2755905511811024,
                    "duration": 0.10905475000000564
                },
                {
                    "name": "B3",
                    "midi": 59,
                    "time": 37.296724499999996,
                    "velocity": 0.2755905511811024,
                    "duration": 0.09347550000000382
                },
                {
                    "name": "B2",
                    "midi": 47,
                    "time": 37.3902,
                    "velocity": 0.31496062992125984,
                    "duration": 0.10905474999999853
                },
                {
                    "name": "F#3",
                    "midi": 54,
                    "time": 37.4836755,
                    "velocity": 0.2755905511811024,
                    "duration": 0.10905475000000564
                },
                {
                    "name": "A3",
                    "midi": 57,
                    "time": 37.577151,
                    "velocity": 0.2755905511811024,
                    "duration": 0.10905475000000564
                },
                {
                    "name": "B3",
                    "midi": 59,
                    "time": 37.670626500000004,
                    "velocity": 0.2755905511811024,
                    "duration": 0.09347550000000382
                },
                {
                    "name": "B2",
                    "midi": 47,
                    "time": 37.76410200000001,
                    "velocity": 0.31496062992125984,
                    "duration": 0.10905474999999853
                },
                {
                    "name": "F#3",
                    "midi": 54,
                    "time": 37.857577500000005,
                    "velocity": 0.28346456692913385,
                    "duration": 0.10905475000000564
                },
                {
                    "name": "A3",
                    "midi": 57,
                    "time": 37.95105300000001,
                    "velocity": 0.28346456692913385,
                    "duration": 0.10905475000000564
                },
                {
                    "name": "B3",
                    "midi": 59,
                    "time": 38.04452850000001,
                    "velocity": 0.28346456692913385,
                    "duration": 0.09347550000000382
                },
                {
                    "name": "B2",
                    "midi": 47,
                    "time": 38.138004000000016,
                    "velocity": 0.33070866141732286,
                    "duration": 0.10905474999999853
                },
                {
                    "name": "E3",
                    "midi": 52,
                    "time": 38.23147950000001,
                    "velocity": 0.28346456692913385,
                    "duration": 0.10905475000000564
                },
                {
                    "name": "G3",
                    "midi": 55,
                    "time": 38.32495500000002,
                    "velocity": 0.29133858267716534,
                    "duration": 0.10905475000000564
                },
                {
                    "name": "B3",
                    "midi": 59,
                    "time": 38.41843050000002,
                    "velocity": 0.29133858267716534,
                    "duration": 0.09347550000000382
                },
                {
                    "name": "B2",
                    "midi": 47,
                    "time": 38.511906000000025,
                    "velocity": 0.33070866141732286,
                    "duration": 0.10905474999999853
                },
                {
                    "name": "E3",
                    "midi": 52,
                    "time": 38.60538150000002,
                    "velocity": 0.29133858267716534,
                    "duration": 0.10905475000000564
                },
                {
                    "name": "G3",
                    "midi": 55,
                    "time": 38.698857000000025,
                    "velocity": 0.29133858267716534,
                    "duration": 0.10905475000000564
                },
                {
                    "name": "B3",
                    "midi": 59,
                    "time": 38.79233250000003,
                    "velocity": 0.2992125984251969,
                    "duration": 0.09347550000000382
                },
                {
                    "name": "B2",
                    "midi": 47,
                    "time": 38.88580800000003,
                    "velocity": 0.3464566929133858,
                    "duration": 0.09347549999999671
                },
                {
                    "name": "D#3",
                    "midi": 51,
                    "time": 38.97928350000003,
                    "velocity": 0.2992125984251969,
                    "duration": 0.09347549999999671
                },
                {
                    "name": "F#3",
                    "midi": 54,
                    "time": 39.072759000000026,
                    "velocity": 0.2992125984251969,
                    "duration": 0.09347549999999671
                },
                {
                    "name": "B3",
                    "midi": 59,
                    "time": 39.16623450000002,
                    "velocity": 0.2992125984251969,
                    "duration": 0.09347549999999671
                },
                {
                    "name": "A#3",
                    "midi": 58,
                    "time": 39.25971000000002,
                    "velocity": 0.3937007874015748,
                    "duration": 0.09347549999999671
                },
                {
                    "name": "B3",
                    "midi": 59,
                    "time": 39.353185500000016,
                    "velocity": 0.3228346456692913,
                    "duration": 0.09347549999999671
                },
                {
                    "name": "G3",
                    "midi": 55,
                    "time": 39.44666100000001,
                    "velocity": 0.31496062992125984,
                    "duration": 0.09347549999999671
                },
                {
                    "name": "E3",
                    "midi": 52,
                    "time": 39.54013650000001,
                    "velocity": 0.3228346456692913,
                    "duration": 0.09347549999999671
                },
                {
                    "name": "B2",
                    "midi": 47,
                    "time": 39.63361200000001,
                    "velocity": 0.4094488188976378,
                    "duration": 0.09347549999999671
                },
                {
                    "name": "D#3",
                    "midi": 51,
                    "time": 39.7270875,
                    "velocity": 0.3464566929133858,
                    "duration": 0.09347549999999671
                },
                {
                    "name": "F#3",
                    "midi": 54,
                    "time": 39.820563,
                    "velocity": 0.3543307086614173,
                    "duration": 0.09347549999999671
                },
                {
                    "name": "B3",
                    "midi": 59,
                    "time": 39.9140385,
                    "velocity": 0.3543307086614173,
                    "duration": 0.09347549999999671
                },
                {
                    "name": "A#3",
                    "midi": 58,
                    "time": 40.00751399999999,
                    "velocity": 0.47244094488188976,
                    "duration": 0.09347549999999671
                },
                {
                    "name": "B3",
                    "midi": 59,
                    "time": 40.10098949999999,
                    "velocity": 0.4015748031496063,
                    "duration": 0.09347549999999671
                },
                {
                    "name": "G3",
                    "midi": 55,
                    "time": 40.19446499999999,
                    "velocity": 0.4015748031496063,
                    "duration": 0.09347549999999671
                },
                {
                    "name": "E3",
                    "midi": 52,
                    "time": 40.28794049999998,
                    "velocity": 0.4094488188976378,
                    "duration": 0.09347549999999671
                },
                {
                    "name": "B2",
                    "midi": 47,
                    "time": 40.38141599999998,
                    "velocity": 0.49606299212598426,
                    "duration": 0.09347549999999671
                },
                {
                    "name": "D#3",
                    "midi": 51,
                    "time": 40.47489149999998,
                    "velocity": 0.4094488188976378,
                    "duration": 0.09347549999999671
                },
                {
                    "name": "F#3",
                    "midi": 54,
                    "time": 40.568366999999974,
                    "velocity": 0.4094488188976378,
                    "duration": 0.09347549999999671
                },
                {
                    "name": "B3",
                    "midi": 59,
                    "time": 40.66184249999997,
                    "velocity": 0.4094488188976378,
                    "duration": 0.09347549999999671
                },
                {
                    "name": "B2",
                    "midi": 47,
                    "time": 40.75531799999997,
                    "velocity": 0.49606299212598426,
                    "duration": 0.09347549999999671
                },
                {
                    "name": "E3",
                    "midi": 52,
                    "time": 40.848793499999964,
                    "velocity": 0.4094488188976378,
                    "duration": 0.09347549999999671
                },
                {
                    "name": "G3",
                    "midi": 55,
                    "time": 40.94226899999996,
                    "velocity": 0.4094488188976378,
                    "duration": 0.09347549999999671
                },
                {
                    "name": "B3",
                    "midi": 59,
                    "time": 41.03574449999996,
                    "velocity": 0.4094488188976378,
                    "duration": 0.09347549999999671
                },
                {
                    "name": "B2",
                    "midi": 47,
                    "time": 41.129219999999954,
                    "velocity": 0.49606299212598426,
                    "duration": 0.09347549999999671
                },
                {
                    "name": "D#3",
                    "midi": 51,
                    "time": 41.22269549999995,
                    "velocity": 0.4094488188976378,
                    "duration": 0.09347549999999671
                },
                {
                    "name": "F#3",
                    "midi": 54,
                    "time": 41.31617099999995,
                    "velocity": 0.4094488188976378,
                    "duration": 0.09347549999999671
                },
                {
                    "name": "B3",
                    "midi": 59,
                    "time": 41.409646499999944,
                    "velocity": 0.4094488188976378,
                    "duration": 0.09347549999999671
                },
                {
                    "name": "B2",
                    "midi": 47,
                    "time": 41.50312199999994,
                    "velocity": 0.49606299212598426,
                    "duration": 0.09347549999999671
                },
                {
                    "name": "E3",
                    "midi": 52,
                    "time": 41.59659749999994,
                    "velocity": 0.4094488188976378,
                    "duration": 0.09347549999999671
                },
                {
                    "name": "G3",
                    "midi": 55,
                    "time": 41.690072999999934,
                    "velocity": 0.4094488188976378,
                    "duration": 0.09347549999999671
                },
                {
                    "name": "B3",
                    "midi": 59,
                    "time": 41.78354849999993,
                    "velocity": 0.4094488188976378,
                    "duration": 0.09347549999999671
                },
                {
                    "name": "B2",
                    "midi": 47,
                    "time": 41.87702399999993,
                    "velocity": 0.4251968503937008,
                    "duration": 0.37390200000000107
                },
                {
                    "name": "D#3",
                    "midi": 51,
                    "time": 41.87702399999993,
                    "velocity": 0.4251968503937008,
                    "duration": 0.37390200000000107
                },
                {
                    "name": "F#3",
                    "midi": 54,
                    "time": 41.87702399999993,
                    "velocity": 0.4251968503937008,
                    "duration": 0.37390200000000107
                },
                {
                    "name": "B3",
                    "midi": 59,
                    "time": 41.87702399999993,
                    "velocity": 0.49606299212598426,
                    "duration": 0.37390200000000107
                },
                {
                    "name": "B1",
                    "midi": 35,
                    "time": 44.49433799999993,
                    "velocity": 0.6692913385826772,
                    "duration": 0.09347549999999671
                },
                {
                    "name": "D#2",
                    "midi": 39,
                    "time": 44.587813499999925,
                    "velocity": 0.5984251968503937,
                    "duration": 0.09347549999999671
                },
                {
                    "name": "F#2",
                    "midi": 42,
                    "time": 44.68128899999992,
                    "velocity": 0.5984251968503937,
                    "duration": 0.09347549999999671
                },
                {
                    "name": "B2",
                    "midi": 47,
                    "time": 44.77476449999992,
                    "velocity": 0.5905511811023622,
                    "duration": 0.09347549999999671
                },
                {
                    "name": "B1",
                    "midi": 35,
                    "time": 44.868239999999915,
                    "velocity": 0.6062992125984252,
                    "duration": 0.09347549999999671
                },
                {
                    "name": "B2",
                    "midi": 47,
                    "time": 45.05519099999991,
                    "velocity": 0.5354330708661418,
                    "duration": 0.09347549999999671
                },
                {
                    "name": "C#2",
                    "midi": 37,
                    "time": 45.2421419999999,
                    "velocity": 0.5748031496062992,
                    "duration": 0.09347549999999671
                },
                {
                    "name": "C#3",
                    "midi": 49,
                    "time": 45.429092999999895,
                    "velocity": 0.5196850393700787,
                    "duration": 0.09347549999999671
                },
                {
                    "name": "D#2",
                    "midi": 39,
                    "time": 45.61604399999989,
                    "velocity": 0.5590551181102362,
                    "duration": 0.09347549999999671
                },
                {
                    "name": "D#3",
                    "midi": 51,
                    "time": 45.80299499999988,
                    "velocity": 0.5118110236220472,
                    "duration": 0.09347549999999671
                },
                {
                    "name": "D#2",
                    "midi": 39,
                    "time": 46.36384799999988,
                    "velocity": 0.5433070866141733,
                    "duration": 0.09347549999999671
                },
                {
                    "name": "D#3",
                    "midi": 51,
                    "time": 46.55079899999987,
                    "velocity": 0.48031496062992124,
                    "duration": 0.09347549999999671
                },
                {
                    "name": "E2",
                    "midi": 40,
                    "time": 46.73774999999986,
                    "velocity": 0.5118110236220472,
                    "duration": 0.09347549999999671
                },
                {
                    "name": "E3",
                    "midi": 52,
                    "time": 46.92470099999986,
                    "velocity": 0.4645669291338583,
                    "duration": 0.09347549999999671
                },
                {
                    "name": "F#2",
                    "midi": 42,
                    "time": 47.11165199999985,
                    "velocity": 0.5118110236220472,
                    "duration": 0.09347549999999671
                },
                {
                    "name": "F#3",
                    "midi": 54,
                    "time": 47.298602999999844,
                    "velocity": 0.4251968503937008,
                    "duration": 0.09347549999999671
                },
                {
                    "name": "F#2",
                    "midi": 42,
                    "time": 48.60725999999984,
                    "velocity": 0.3228346456692913,
                    "duration": 0.09347549999999671
                },
                {
                    "name": "F#3",
                    "midi": 54,
                    "time": 48.794210999999834,
                    "velocity": 0.28346456692913385,
                    "duration": 0.09347549999999671
                },
                {
                    "name": "G#2",
                    "midi": 44,
                    "time": 48.98116199999983,
                    "velocity": 0.3228346456692913,
                    "duration": 0.09347549999999671
                },
                {
                    "name": "G#3",
                    "midi": 56,
                    "time": 49.16811299999982,
                    "velocity": 0.28346456692913385,
                    "duration": 0.09347549999999671
                },
                {
                    "name": "A2",
                    "midi": 45,
                    "time": 49.355063999999814,
                    "velocity": 0.31496062992125984,
                    "duration": 0.09347549999999671
                },
                {
                    "name": "A3",
                    "midi": 57,
                    "time": 49.54201499999981,
                    "velocity": 0.29133858267716534,
                    "duration": 0.09347549999999671
                },
                {
                    "name": "B2",
                    "midi": 47,
                    "time": 49.7289659999998,
                    "velocity": 0.30708661417322836,
                    "duration": 0.09347549999999671
                },
                {
                    "name": "B3",
                    "midi": 59,
                    "time": 49.915916999999794,
                    "velocity": 0.28346456692913385,
                    "duration": 0.09347549999999671
                },
                {
                    "name": "C#3",
                    "midi": 49,
                    "time": 50.10286799999979,
                    "velocity": 0.2992125984251969,
                    "duration": 0.09347549999999671
                },
                {
                    "name": "C#4",
                    "midi": 61,
                    "time": 50.28981899999978,
                    "velocity": 0.29133858267716534,
                    "duration": 0.09347549999999671
                },
                {
                    "name": "D#3",
                    "midi": 51,
                    "time": 50.476769999999775,
                    "velocity": 0.31496062992125984,
                    "duration": 0.09347549999999671
                },
                {
                    "name": "D#4",
                    "midi": 63,
                    "time": 50.66372099999977,
                    "velocity": 0.29133858267716534,
                    "duration": 0.09347549999999671
                },
                {
                    "name": "G#4",
                    "midi": 68,
                    "time": 50.85067199999976,
                    "velocity": 0.30708661417322836,
                    "duration": 0.7478040000000021
                },
                {
                    "name": "E4",
                    "midi": 64,
                    "time": 50.85067199999976,
                    "velocity": 0.25984251968503935,
                    "duration": 0.7478040000000021
                },
                {
                    "name": "F#4",
                    "midi": 66,
                    "time": 51.59847599999976,
                    "velocity": 0.2755905511811024,
                    "duration": 0.37390200000000107
                },
                {
                    "name": "D#4",
                    "midi": 63,
                    "time": 51.59847599999976,
                    "velocity": 0.2283464566929134,
                    "duration": 0.37390200000000107
                },
                {
                    "name": "B3",
                    "midi": 59,
                    "time": 51.59847599999976,
                    "velocity": 0.2283464566929134,
                    "duration": 0.37390200000000107
                },
                {
                    "name": "E4",
                    "midi": 64,
                    "time": 51.972377999999765,
                    "velocity": 0.2755905511811024,
                    "duration": 0.37390200000000107
                },
                {
                    "name": "C#4",
                    "midi": 61,
                    "time": 51.972377999999765,
                    "velocity": 0.2283464566929134,
                    "duration": 0.37390200000000107
                },
                {
                    "name": "D#4",
                    "midi": 63,
                    "time": 52.346279999999766,
                    "velocity": 0.30708661417322836,
                    "duration": 0.7478040000000021
                },
                {
                    "name": "C4",
                    "midi": 60,
                    "time": 52.346279999999766,
                    "velocity": 0.25984251968503935,
                    "duration": 0.7478040000000021
                },
                {
                    "name": "G#3",
                    "midi": 56,
                    "time": 52.346279999999766,
                    "velocity": 0.25984251968503935,
                    "duration": 0.7478040000000021
                },
                {
                    "name": "C#4",
                    "midi": 61,
                    "time": 53.09408399999977,
                    "velocity": 0.2677165354330709,
                    "duration": 0.7478040000000021
                },
                {
                    "name": "A3",
                    "midi": 57,
                    "time": 53.09408399999977,
                    "velocity": 0.2204724409448819,
                    "duration": 0.7478040000000021
                },
                {
                    "name": "F#3",
                    "midi": 54,
                    "time": 53.84188799999977,
                    "velocity": 0.29133858267716534,
                    "duration": 0.7478040000000021
                },
                {
                    "name": "A3",
                    "midi": 57,
                    "time": 53.84188799999977,
                    "velocity": 0.3543307086614173,
                    "duration": 0.7478040000000021
                },
                {
                    "name": "B3",
                    "midi": 59,
                    "time": 53.84188799999977,
                    "velocity": 0.29133858267716534,
                    "duration": 0.7478040000000021
                },
                {
                    "name": "D#4",
                    "midi": 63,
                    "time": 53.84188799999977,
                    "velocity": 0.3543307086614173,
                    "duration": 0.7478040000000021
                },
                {
                    "name": "G#3",
                    "midi": 56,
                    "time": 54.58969199999977,
                    "velocity": 0.31496062992125984,
                    "duration": 0.37390200000000107
                },
                {
                    "name": "B3",
                    "midi": 59,
                    "time": 54.58969199999977,
                    "velocity": 0.31496062992125984,
                    "duration": 0.37390200000000107
                },
                {
                    "name": "E4",
                    "midi": 64,
                    "time": 54.58969199999977,
                    "velocity": 0.3858267716535433,
                    "duration": 0.37390200000000107
                },
                {
                    "name": "F#4",
                    "midi": 66,
                    "time": 54.96359399999977,
                    "velocity": 0.4015748031496063,
                    "duration": 0.37390200000000107
                },
                {
                    "name": "A3",
                    "midi": 57,
                    "time": 54.96359399999977,
                    "velocity": 0.36220472440944884,
                    "duration": 0.37390200000000107
                },
                {
                    "name": "C#4",
                    "midi": 61,
                    "time": 54.96359399999977,
                    "velocity": 0.33070866141732286,
                    "duration": 0.37390200000000107
                },
                {
                    "name": "B3",
                    "midi": 59,
                    "time": 55.337495999999774,
                    "velocity": 0.3858267716535433,
                    "duration": 1.494050075000004
                },
                {
                    "name": "E4",
                    "midi": 64,
                    "time": 55.337495999999774,
                    "velocity": 0.3858267716535433,
                    "duration": 0.7478040000000021
                },
                {
                    "name": "G#4",
                    "midi": 68,
                    "time": 55.337495999999774,
                    "velocity": 0.4645669291338583,
                    "duration": 0.7478040000000021
                },
                {
                    "name": "D#4",
                    "midi": 63,
                    "time": 56.085299999999776,
                    "velocity": 0.2125984251968504,
                    "duration": 0.7478040000000021
                },
                {
                    "name": "F#4",
                    "midi": 66,
                    "time": 56.085299999999776,
                    "velocity": 0.25196850393700787,
                    "duration": 0.7478040000000021
                },
                {
                    "name": "G#3",
                    "midi": 56,
                    "time": 56.83310399999978,
                    "velocity": 0.2755905511811024,
                    "duration": 0.7478040000000021
                },
                {
                    "name": "E3",
                    "midi": 52,
                    "time": 56.83310399999978,
                    "velocity": 0.2283464566929134,
                    "duration": 0.7478040000000021
                },
                {
                    "name": "F#3",
                    "midi": 54,
                    "time": 57.58090799999978,
                    "velocity": 0.2440944881889764,
                    "duration": 0.37390200000000107
                },
                {
                    "name": "D#3",
                    "midi": 51,
                    "time": 57.58090799999978,
                    "velocity": 0.2047244094488189,
                    "duration": 0.37390200000000107
                },
                {
                    "name": "B2",
                    "midi": 47,
                    "time": 57.58090799999978,
                    "velocity": 0.2047244094488189,
                    "duration": 0.37390200000000107
                },
                {
                    "name": "E3",
                    "midi": 52,
                    "time": 57.95480999999978,
                    "velocity": 0.2440944881889764,
                    "duration": 0.37390200000000107
                },
                {
                    "name": "C#3",
                    "midi": 49,
                    "time": 57.95480999999978,
                    "velocity": 0.2047244094488189,
                    "duration": 0.37390200000000107
                },
                {
                    "name": "D#3",
                    "midi": 51,
                    "time": 58.32871199999978,
                    "velocity": 0.2755905511811024,
                    "duration": 0.7478040000000021
                },
                {
                    "name": "C3",
                    "midi": 48,
                    "time": 58.32871199999978,
                    "velocity": 0.2283464566929134,
                    "duration": 0.7478040000000021
                },
                {
                    "name": "G#2",
                    "midi": 44,
                    "time": 58.32871199999978,
                    "velocity": 0.2283464566929134,
                    "duration": 0.7478040000000021
                },
                {
                    "name": "C#3",
                    "midi": 49,
                    "time": 59.076515999999785,
                    "velocity": 0.23622047244094488,
                    "duration": 0.7478040000000021
                },
                {
                    "name": "A2",
                    "midi": 45,
                    "time": 59.076515999999785,
                    "velocity": 0.1968503937007874,
                    "duration": 0.7478040000000021
                },
                {
                    "name": "B1",
                    "midi": 35,
                    "time": 59.82431999999979,
                    "velocity": 0.25984251968503935,
                    "duration": 1.4956079999999972
                },
                {
                    "name": "B2",
                    "midi": 47,
                    "time": 59.82431999999979,
                    "velocity": 0.31496062992125984,
                    "duration": 1.4956079999999972
                },
                {
                    "name": "E2",
                    "midi": 40,
                    "time": 61.319927999999784,
                    "velocity": 0.2992125984251969,
                    "duration": 0.37390200000000107
                },
                {
                    "name": "E3",
                    "midi": 52,
                    "time": 61.319927999999784,
                    "velocity": 0.33858267716535434,
                    "duration": 0.37390200000000107
                },
                {
                    "name": "G#4",
                    "midi": 68,
                    "time": 62.81553599999979,
                    "velocity": 0.3464566929133858,
                    "duration": 0.7478040000000021
                },
                {
                    "name": "E4",
                    "midi": 64,
                    "time": 62.81553599999979,
                    "velocity": 0.29133858267716534,
                    "duration": 0.7478040000000021
                },
                {
                    "name": "F#4",
                    "midi": 66,
                    "time": 63.56333999999979,
                    "velocity": 0.31496062992125984,
                    "duration": 0.37390200000000107
                },
                {
                    "name": "D#4",
                    "midi": 63,
                    "time": 63.56333999999979,
                    "velocity": 0.25984251968503935,
                    "duration": 0.37390200000000107
                },
                {
                    "name": "B3",
                    "midi": 59,
                    "time": 63.56333999999979,
                    "velocity": 0.25984251968503935,
                    "duration": 0.37390200000000107
                },
                {
                    "name": "E4",
                    "midi": 64,
                    "time": 63.93724199999979,
                    "velocity": 0.31496062992125984,
                    "duration": 0.37390199999999396
                },
                {
                    "name": "C#4",
                    "midi": 61,
                    "time": 63.93724199999979,
                    "velocity": 0.25984251968503935,
                    "duration": 0.37390199999999396
                },
                {
                    "name": "D#4",
                    "midi": 63,
                    "time": 64.31114399999979,
                    "velocity": 0.3464566929133858,
                    "duration": 0.7478040000000021
                },
                {
                    "name": "C4",
                    "midi": 60,
                    "time": 64.31114399999979,
                    "velocity": 0.29133858267716534,
                    "duration": 0.7478040000000021
                },
                {
                    "name": "G#3",
                    "midi": 56,
                    "time": 64.31114399999979,
                    "velocity": 0.29133858267716534,
                    "duration": 0.7478040000000021
                },
                {
                    "name": "C#4",
                    "midi": 61,
                    "time": 65.05894799999979,
                    "velocity": 0.30708661417322836,
                    "duration": 0.7478040000000021
                },
                {
                    "name": "A3",
                    "midi": 57,
                    "time": 65.05894799999979,
                    "velocity": 0.25196850393700787,
                    "duration": 0.7478040000000021
                },
                {
                    "name": "F#3",
                    "midi": 54,
                    "time": 65.80675199999979,
                    "velocity": 0.30708661417322836,
                    "duration": 0.7478040000000021
                },
                {
                    "name": "A3",
                    "midi": 57,
                    "time": 65.80675199999979,
                    "velocity": 0.3700787401574803,
                    "duration": 0.7478040000000021
                },
                {
                    "name": "B3",
                    "midi": 59,
                    "time": 65.80675199999979,
                    "velocity": 0.30708661417322836,
                    "duration": 0.7478040000000021
                },
                {
                    "name": "D#4",
                    "midi": 63,
                    "time": 65.80675199999979,
                    "velocity": 0.3700787401574803,
                    "duration": 0.7478040000000021
                },
                {
                    "name": "G#3",
                    "midi": 56,
                    "time": 66.55455599999979,
                    "velocity": 0.3543307086614173,
                    "duration": 0.37390200000000107
                },
                {
                    "name": "B3",
                    "midi": 59,
                    "time": 66.55455599999979,
                    "velocity": 0.3543307086614173,
                    "duration": 0.37390200000000107
                },
                {
                    "name": "E4",
                    "midi": 64,
                    "time": 66.55455599999979,
                    "velocity": 0.41732283464566927,
                    "duration": 0.37390200000000107
                },
                {
                    "name": "F#4",
                    "midi": 66,
                    "time": 66.9284579999998,
                    "velocity": 0.4645669291338583,
                    "duration": 0.37390200000000107
                },
                {
                    "name": "A3",
                    "midi": 57,
                    "time": 66.9284579999998,
                    "velocity": 0.3858267716535433,
                    "duration": 0.37390200000000107
                },
                {
                    "name": "C#4",
                    "midi": 61,
                    "time": 66.9284579999998,
                    "velocity": 0.3858267716535433,
                    "duration": 0.37390200000000107
                },
                {
                    "name": "B3",
                    "midi": 59,
                    "time": 67.3023599999998,
                    "velocity": 0.41732283464566927,
                    "duration": 1.494050075000004
                },
                {
                    "name": "E4",
                    "midi": 64,
                    "time": 67.3023599999998,
                    "velocity": 0.41732283464566927,
                    "duration": 0.7478040000000021
                },
                {
                    "name": "G#4",
                    "midi": 68,
                    "time": 67.3023599999998,
                    "velocity": 0.5118110236220472,
                    "duration": 0.7478040000000021
                },
                {
                    "name": "D#4",
                    "midi": 63,
                    "time": 68.0501639999998,
                    "velocity": 0.3543307086614173,
                    "duration": 0.37390200000000107
                },
                {
                    "name": "F#4",
                    "midi": 66,
                    "time": 68.0501639999998,
                    "velocity": 0.41732283464566927,
                    "duration": 0.37390200000000107
                },
                {
                    "name": "B2",
                    "midi": 47,
                    "time": 68.4240659999998,
                    "velocity": 0.3464566929133858,
                    "duration": 0.12463400000000036
                },
                {
                    "name": "C#3",
                    "midi": 49,
                    "time": 68.5486999999998,
                    "velocity": 0.33858267716535434,
                    "duration": 0.12463400000000036
                },
                {
                    "name": "D#3",
                    "midi": 51,
                    "time": 68.6733339999998,
                    "velocity": 0.3228346456692913,
                    "duration": 0.12463400000000036
                },
                {
                    "name": "G#3",
                    "midi": 56,
                    "time": 68.7979679999998,
                    "velocity": 0.3543307086614173,
                    "duration": 0.7478040000000021
                },
                {
                    "name": "E3",
                    "midi": 52,
                    "time": 68.7979679999998,
                    "velocity": 0.29133858267716534,
                    "duration": 0.7478040000000021
                },
                {
                    "name": "F#3",
                    "midi": 54,
                    "time": 69.5457719999998,
                    "velocity": 0.3228346456692913,
                    "duration": 0.37390200000000107
                },
                {
                    "name": "D#3",
                    "midi": 51,
                    "time": 69.5457719999998,
                    "velocity": 0.25984251968503935,
                    "duration": 0.37390200000000107
                },
                {
                    "name": "B2",
                    "midi": 47,
                    "time": 69.5457719999998,
                    "velocity": 0.25984251968503935,
                    "duration": 0.37390200000000107
                },
                {
                    "name": "E3",
                    "midi": 52,
                    "time": 69.9196739999998,
                    "velocity": 0.3228346456692913,
                    "duration": 0.37390200000000107
                },
                {
                    "name": "C#3",
                    "midi": 49,
                    "time": 69.9196739999998,
                    "velocity": 0.25984251968503935,
                    "duration": 0.37390200000000107
                },
                {
                    "name": "D#3",
                    "midi": 51,
                    "time": 70.2935759999998,
                    "velocity": 0.29133858267716534,
                    "duration": 0.7478040000000021
                },
                {
                    "name": "F#3",
                    "midi": 54,
                    "time": 70.2935759999998,
                    "velocity": 0.3858267716535433,
                    "duration": 0.7478040000000021
                },
                {
                    "name": "C3",
                    "midi": 48,
                    "time": 70.2935759999998,
                    "velocity": 0.29133858267716534,
                    "duration": 0.7478040000000021
                },
                {
                    "name": "G#2",
                    "midi": 44,
                    "time": 70.2935759999998,
                    "velocity": 0.29133858267716534,
                    "duration": 0.7478040000000021
                },
                {
                    "name": "A2",
                    "midi": 45,
                    "time": 71.0413799999998,
                    "velocity": 0.30708661417322836,
                    "duration": 0.7478040000000021
                },
                {
                    "name": "C#3",
                    "midi": 49,
                    "time": 71.0413799999998,
                    "velocity": 0.30708661417322836,
                    "duration": 0.7478040000000021
                },
                {
                    "name": "E3",
                    "midi": 52,
                    "time": 71.0413799999998,
                    "velocity": 0.25196850393700787,
                    "duration": 0.7478040000000021
                },
                {
                    "name": "B1",
                    "midi": 35,
                    "time": 71.7891839999998,
                    "velocity": 0.36220472440944884,
                    "duration": 1.4956080000000043
                },
                {
                    "name": "B2",
                    "midi": 47,
                    "time": 71.7891839999998,
                    "velocity": 0.4330708661417323,
                    "duration": 1.4956080000000043
                },
                {
                    "name": "E2",
                    "midi": 40,
                    "time": 73.28479199999981,
                    "velocity": 0.3937007874015748,
                    "duration": 0.37390200000000107
                },
                {
                    "name": "E3",
                    "midi": 52,
                    "time": 73.28479199999981,
                    "velocity": 0.47244094488188976,
                    "duration": 0.37390200000000107
                },
                {
                    "name": "B2",
                    "midi": 47,
                    "time": 73.65869399999981,
                    "velocity": 0.5984251968503937,
                    "duration": 0.7478040000000021
                },
                {
                    "name": "B2",
                    "midi": 47,
                    "time": 74.40649799999981,
                    "velocity": 0.5984251968503937,
                    "duration": 0.7478040000000021
                },
                {
                    "name": "B2",
                    "midi": 47,
                    "time": 75.15430199999982,
                    "velocity": 0.5905511811023622,
                    "duration": 0.7478040000000021
                },
                {
                    "name": "B2",
                    "midi": 47,
                    "time": 75.90210599999982,
                    "velocity": 0.5826771653543307,
                    "duration": 0.37390200000000107
                },
                {
                    "name": "E3",
                    "midi": 52,
                    "time": 76.27600799999982,
                    "velocity": 0.5748031496062992,
                    "duration": 0.12463400000000036
                },
                {
                    "name": "B2",
                    "midi": 47,
                    "time": 76.40064199999982,
                    "velocity": 0.5275590551181102,
                    "duration": 0.12463400000000036
                },
                {
                    "name": "G#2",
                    "midi": 44,
                    "time": 76.52527599999982,
                    "velocity": 0.5433070866141733,
                    "duration": 0.12463400000000036
                },
                {
                    "name": "B2",
                    "midi": 47,
                    "time": 76.64990999999982,
                    "velocity": 0.5748031496062992,
                    "duration": 0.12463400000000036
                },
                {
                    "name": "E3",
                    "midi": 52,
                    "time": 76.77454399999982,
                    "velocity": 0.5433070866141733,
                    "duration": 0.12463400000000036
                },
                {
                    "name": "G#3",
                    "midi": 56,
                    "time": 76.89917799999982,
                    "velocity": 0.5433070866141733,
                    "duration": 0.12463400000000036
                },
                {
                    "name": "F#3",
                    "midi": 54,
                    "time": 77.02381199999982,
                    "velocity": 0.5748031496062992,
                    "duration": 0.12463400000000036
                },
                {
                    "name": "D#3",
                    "midi": 51,
                    "time": 77.14844599999982,
                    "velocity": 0.5433070866141733,
                    "duration": 0.12463400000000036
                },
                {
                    "name": "B2",
                    "midi": 47,
                    "time": 77.27307999999982,
                    "velocity": 0.5433070866141733,
                    "duration": 0.12463400000000036
                },
                {
                    "name": "D#3",
                    "midi": 51,
                    "time": 77.39771399999982,
                    "velocity": 0.5748031496062992,
                    "duration": 0.12463400000000036
                },
                {
                    "name": "F#3",
                    "midi": 54,
                    "time": 77.52234799999982,
                    "velocity": 0.5433070866141733,
                    "duration": 0.12463400000000036
                },
                {
                    "name": "A3",
                    "midi": 57,
                    "time": 77.64698199999982,
                    "velocity": 0.5433070866141733,
                    "duration": 0.12463400000000036
                },
                {
                    "name": "G#3",
                    "midi": 56,
                    "time": 77.77161599999982,
                    "velocity": 0.5748031496062992,
                    "duration": 0.12463400000000036
                },
                {
                    "name": "E3",
                    "midi": 52,
                    "time": 77.89624999999982,
                    "velocity": 0.5275590551181102,
                    "duration": 0.12463400000000036
                },
                {
                    "name": "B2",
                    "midi": 47,
                    "time": 78.02088399999982,
                    "velocity": 0.5433070866141733,
                    "duration": 0.12463400000000036
                },
                {
                    "name": "E3",
                    "midi": 52,
                    "time": 78.14551799999983,
                    "velocity": 0.5748031496062992,
                    "duration": 0.12463400000000036
                },
                {
                    "name": "G#3",
                    "midi": 56,
                    "time": 78.27015199999983,
                    "velocity": 0.5433070866141733,
                    "duration": 0.12463400000000036
                },
                {
                    "name": "B3",
                    "midi": 59,
                    "time": 78.39478599999983,
                    "velocity": 0.5433070866141733,
                    "duration": 0.12463400000000036
                },
                {
                    "name": "A3",
                    "midi": 57,
                    "time": 78.51941999999983,
                    "velocity": 0.5748031496062992,
                    "duration": 0.12463400000000036
                },
                {
                    "name": "F#3",
                    "midi": 54,
                    "time": 78.64405399999983,
                    "velocity": 0.5433070866141733,
                    "duration": 0.12463400000000036
                },
                {
                    "name": "D#3",
                    "midi": 51,
                    "time": 78.76868799999983,
                    "velocity": 0.5433070866141733,
                    "duration": 0.12463400000000036
                },
                {
                    "name": "D#4",
                    "midi": 63,
                    "time": 78.89332199999983,
                    "velocity": 0.5748031496062992,
                    "duration": 0.12463400000000036
                },
                {
                    "name": "A3",
                    "midi": 57,
                    "time": 79.01795599999983,
                    "velocity": 0.5433070866141733,
                    "duration": 0.12463400000000036
                },
                {
                    "name": "F#3",
                    "midi": 54,
                    "time": 79.14258999999983,
                    "velocity": 0.5433070866141733,
                    "duration": 0.12463400000000036
                },
                {
                    "name": "G#3",
                    "midi": 56,
                    "time": 79.26722399999983,
                    "velocity": 0.5039370078740157,
                    "duration": 0.12463400000000036
                },
                {
                    "name": "B3",
                    "midi": 59,
                    "time": 79.39185799999983,
                    "velocity": 0.4409448818897638,
                    "duration": 0.12463400000000036
                },
                {
                    "name": "E4",
                    "midi": 64,
                    "time": 79.51649199999983,
                    "velocity": 0.4409448818897638,
                    "duration": 0.12463400000000036
                },
                {
                    "name": "B3",
                    "midi": 59,
                    "time": 79.64112599999983,
                    "velocity": 0.5039370078740157,
                    "duration": 0.12463400000000036
                },
                {
                    "name": "G#3",
                    "midi": 56,
                    "time": 79.76575999999983,
                    "velocity": 0.44881889763779526,
                    "duration": 0.12463400000000036
                },
                {
                    "name": "E3",
                    "midi": 52,
                    "time": 79.89039399999983,
                    "velocity": 0.44881889763779526,
                    "duration": 0.12463400000000036
                },
                {
                    "name": "D#3",
                    "midi": 51,
                    "time": 80.01502799999983,
                    "velocity": 0.5039370078740157,
                    "duration": 0.12463400000000036
                },
                {
                    "name": "F#3",
                    "midi": 54,
                    "time": 80.13966199999983,
                    "velocity": 0.4409448818897638,
                    "duration": 0.12463400000000036
                },
                {
                    "name": "A3",
                    "midi": 57,
                    "time": 80.26429599999983,
                    "velocity": 0.4409448818897638,
                    "duration": 0.12463400000000036
                },
                {
                    "name": "F#3",
                    "midi": 54,
                    "time": 80.38892999999983,
                    "velocity": 0.5039370078740157,
                    "duration": 0.12463400000000036
                },
                {
                    "name": "D#3",
                    "midi": 51,
                    "time": 80.51356399999983,
                    "velocity": 0.44881889763779526,
                    "duration": 0.12463400000000036
                },
                {
                    "name": "B2",
                    "midi": 47,
                    "time": 80.63819799999983,
                    "velocity": 0.4566929133858268,
                    "duration": 0.12463400000000036
                },
                {
                    "name": "E3",
                    "midi": 52,
                    "time": 80.76750577499983,
                    "velocity": 0.5039370078740157,
                    "duration": 0.12463400000000036
                },
                {
                    "name": "G#3",
                    "midi": 56,
                    "time": 80.88746599999983,
                    "velocity": 0.4409448818897638,
                    "duration": 0.12463400000000036
                },
                {
                    "name": "B3",
                    "midi": 59,
                    "time": 81.01209999999983,
                    "velocity": 0.4409448818897638,
                    "duration": 0.12463400000000036
                },
                {
                    "name": "G#3",
                    "midi": 56,
                    "time": 81.13673399999983,
                    "velocity": 0.5039370078740157,
                    "duration": 0.12463400000000036
                },
                {
                    "name": "E3",
                    "midi": 52,
                    "time": 81.26136799999983,
                    "velocity": 0.44881889763779526,
                    "duration": 0.12463400000000036
                },
                {
                    "name": "B2",
                    "midi": 47,
                    "time": 81.39067577499983,
                    "velocity": 0.44881889763779526,
                    "duration": 0.12463400000000036
                },
                {
                    "name": "D#3",
                    "midi": 51,
                    "time": 81.51063599999983,
                    "velocity": 0.5039370078740157,
                    "duration": 0.12463400000000036
                },
                {
                    "name": "A3",
                    "midi": 57,
                    "time": 81.63526999999984,
                    "velocity": 0.4409448818897638,
                    "duration": 0.12463400000000036
                },
                {
                    "name": "B3",
                    "midi": 59,
                    "time": 81.76457777499984,
                    "velocity": 0.4409448818897638,
                    "duration": 0.12463400000000036
                },
                {
                    "name": "A3",
                    "midi": 57,
                    "time": 81.88453799999984,
                    "velocity": 0.5039370078740157,
                    "duration": 0.12463400000000036
                },
                {
                    "name": "B3",
                    "midi": 59,
                    "time": 82.00917199999984,
                    "velocity": 0.44881889763779526,
                    "duration": 0.12463400000000036
                },
                {
                    "name": "F#4",
                    "midi": 66,
                    "time": 82.13380599999984,
                    "velocity": 0.4566929133858268,
                    "duration": 0.12463400000000036
                },
                {
                    "name": "G#3",
                    "midi": 56,
                    "time": 82.25843999999984,
                    "velocity": 0.5039370078740157,
                    "duration": 0.12463400000000036
                },
                {
                    "name": "B3",
                    "midi": 59,
                    "time": 82.38307399999984,
                    "velocity": 0.4330708661417323,
                    "duration": 0.12463400000000036
                },
                {
                    "name": "E4",
                    "midi": 64,
                    "time": 82.50770799999984,
                    "velocity": 0.4330708661417323,
                    "duration": 0.12463400000000036
                },
                {
                    "name": "E3",
                    "midi": 52,
                    "time": 82.63234199999984,
                    "velocity": 0.4881889763779528,
                    "duration": 0.12463400000000036
                },
                {
                    "name": "G#3",
                    "midi": 56,
                    "time": 82.75697599999984,
                    "velocity": 0.4330708661417323,
                    "duration": 0.12463400000000036
                },
                {
                    "name": "B3",
                    "midi": 59,
                    "time": 82.88160999999984,
                    "velocity": 0.4251968503937008,
                    "duration": 0.12463400000000036
                },
                {
                    "name": "F#3",
                    "midi": 54,
                    "time": 83.00624399999984,
                    "velocity": 0.4645669291338583,
                    "duration": 0.12463400000000036
                },
                {
                    "name": "A3",
                    "midi": 57,
                    "time": 83.13087799999984,
                    "velocity": 0.4015748031496063,
                    "duration": 0.12463400000000036
                },
                {
                    "name": "B3",
                    "midi": 59,
                    "time": 83.25551199999984,
                    "velocity": 0.4015748031496063,
                    "duration": 0.12463400000000036
                },
                {
                    "name": "A3",
                    "midi": 57,
                    "time": 83.38014599999984,
                    "velocity": 0.44881889763779526,
                    "duration": 0.12463400000000036
                },
                {
                    "name": "B3",
                    "midi": 59,
                    "time": 83.50477999999984,
                    "velocity": 0.4015748031496063,
                    "duration": 0.12463400000000036
                },
                {
                    "name": "F#4",
                    "midi": 66,
                    "time": 83.62941399999984,
                    "velocity": 0.4015748031496063,
                    "duration": 0.12463400000000036
                },
                {
                    "name": "G#3",
                    "midi": 56,
                    "time": 83.75404799999984,
                    "velocity": 0.4409448818897638,
                    "duration": 0.12463400000000036
                },
                {
                    "name": "B3",
                    "midi": 59,
                    "time": 83.87868199999984,
                    "velocity": 0.3779527559055118,
                    "duration": 0.12463400000000036
                },
                {
                    "name": "E4",
                    "midi": 64,
                    "time": 84.00331599999984,
                    "velocity": 0.3779527559055118,
                    "duration": 0.12463400000000036
                },
                {
                    "name": "E3",
                    "midi": 52,
                    "time": 84.12794999999984,
                    "velocity": 0.4251968503937008,
                    "duration": 0.12463400000000036
                },
                {
                    "name": "G#3",
                    "midi": 56,
                    "time": 84.25258399999984,
                    "velocity": 0.3779527559055118,
                    "duration": 0.12463400000000036
                },
                {
                    "name": "B3",
                    "midi": 59,
                    "time": 84.37721799999984,
                    "velocity": 0.3700787401574803,
                    "duration": 0.12463400000000036
                },
                {
                    "name": "F#3",
                    "midi": 54,
                    "time": 84.50185199999984,
                    "velocity": 0.4015748031496063,
                    "duration": 0.12463400000000036
                },
                {
                    "name": "A3",
                    "midi": 57,
                    "time": 84.62648599999984,
                    "velocity": 0.3464566929133858,
                    "duration": 0.12463400000000036
                },
                {
                    "name": "B3",
                    "midi": 59,
                    "time": 84.75111999999984,
                    "velocity": 0.3464566929133858,
                    "duration": 0.12463400000000036
                },
                {
                    "name": "A3",
                    "midi": 57,
                    "time": 84.87575399999984,
                    "velocity": 0.3937007874015748,
                    "duration": 0.12463400000000036
                },
                {
                    "name": "B3",
                    "midi": 59,
                    "time": 85.00038799999984,
                    "velocity": 0.3464566929133858,
                    "duration": 0.12463400000000036
                },
                {
                    "name": "F#4",
                    "midi": 66,
                    "time": 85.12502199999984,
                    "velocity": 0.3464566929133858,
                    "duration": 0.12463400000000036
                },
                {
                    "name": "G#3",
                    "midi": 56,
                    "time": 85.24965599999985,
                    "velocity": 0.3937007874015748,
                    "duration": 0.09347549999999671
                },
                {
                    "name": "B3",
                    "midi": 59,
                    "time": 85.34313149999984,
                    "velocity": 0.33858267716535434,
                    "duration": 0.09347549999999671
                },
                {
                    "name": "E3",
                    "midi": 52,
                    "time": 85.43660699999984,
                    "velocity": 0.33858267716535434,
                    "duration": 0.09347549999999671
                },
                {
                    "name": "B3",
                    "midi": 59,
                    "time": 85.53008249999984,
                    "velocity": 0.3464566929133858,
                    "duration": 0.09347549999999671
                },
                {
                    "name": "F#3",
                    "midi": 54,
                    "time": 85.62355799999983,
                    "velocity": 0.4015748031496063,
                    "duration": 0.09347549999999671
                },
                {
                    "name": "B3",
                    "midi": 59,
                    "time": 85.71703349999983,
                    "velocity": 0.3464566929133858,
                    "duration": 0.09347549999999671
                },
                {
                    "name": "A3",
                    "midi": 57,
                    "time": 85.81050899999983,
                    "velocity": 0.3464566929133858,
                    "duration": 0.09347549999999671
                },
                {
                    "name": "B3",
                    "midi": 59,
                    "time": 85.90398449999982,
                    "velocity": 0.3464566929133858,
                    "duration": 0.09347549999999671
                },
                {
                    "name": "G#3",
                    "midi": 56,
                    "time": 85.99745999999982,
                    "velocity": 0.4094488188976378,
                    "duration": 0.09347549999999671
                },
                {
                    "name": "B3",
                    "midi": 59,
                    "time": 86.09093549999982,
                    "velocity": 0.36220472440944884,
                    "duration": 0.09347549999999671
                },
                {
                    "name": "E3",
                    "midi": 52,
                    "time": 86.18441099999981,
                    "velocity": 0.3700787401574803,
                    "duration": 0.09347549999999671
                },
                {
                    "name": "B3",
                    "midi": 59,
                    "time": 86.27788649999981,
                    "velocity": 0.3858267716535433,
                    "duration": 0.09347549999999671
                },
                {
                    "name": "F#3",
                    "midi": 54,
                    "time": 86.3713619999998,
                    "velocity": 0.4330708661417323,
                    "duration": 0.09347549999999671
                },
                {
                    "name": "B3",
                    "midi": 59,
                    "time": 86.4648374999998,
                    "velocity": 0.3779527559055118,
                    "duration": 0.09347549999999671
                },
                {
                    "name": "A3",
                    "midi": 57,
                    "time": 86.5583129999998,
                    "velocity": 0.3779527559055118,
                    "duration": 0.09347549999999671
                },
                {
                    "name": "B3",
                    "midi": 59,
                    "time": 86.6517884999998,
                    "velocity": 0.3858267716535433,
                    "duration": 0.09347549999999671
                },
                {
                    "name": "G#3",
                    "midi": 56,
                    "time": 86.74526399999979,
                    "velocity": 0.4566929133858268,
                    "duration": 0.09347549999999671
                },
                {
                    "name": "B3",
                    "midi": 59,
                    "time": 86.83873949999979,
                    "velocity": 0.3937007874015748,
                    "duration": 0.09347549999999671
                },
                {
                    "name": "A3",
                    "midi": 57,
                    "time": 86.93221499999979,
                    "velocity": 0.4015748031496063,
                    "duration": 0.09347549999999671
                },
                {
                    "name": "B3",
                    "midi": 59,
                    "time": 87.02569049999978,
                    "velocity": 0.4094488188976378,
                    "duration": 0.09347549999999671
                },
                {
                    "name": "G#3",
                    "midi": 56,
                    "time": 87.11916599999978,
                    "velocity": 0.47244094488188976,
                    "duration": 0.09347549999999671
                },
                {
                    "name": "B3",
                    "midi": 59,
                    "time": 87.21264149999978,
                    "velocity": 0.4094488188976378,
                    "duration": 0.09347549999999671
                },
                {
                    "name": "A3",
                    "midi": 57,
                    "time": 87.30611699999977,
                    "velocity": 0.4094488188976378,
                    "duration": 0.09347549999999671
                },
                {
                    "name": "B3",
                    "midi": 59,
                    "time": 87.39959249999977,
                    "velocity": 0.4251968503937008,
                    "duration": 0.09347549999999671
                },
                {
                    "name": "G#3",
                    "midi": 56,
                    "time": 87.49306799999977,
                    "velocity": 0.4881889763779528,
                    "duration": 0.09347549999999671
                },
                {
                    "name": "B3",
                    "midi": 59,
                    "time": 87.58654349999976,
                    "velocity": 0.4330708661417323,
                    "duration": 0.09347549999999671
                },
                {
                    "name": "A3",
                    "midi": 57,
                    "time": 87.68001899999976,
                    "velocity": 0.4330708661417323,
                    "duration": 0.09347549999999671
                },
                {
                    "name": "B3",
                    "midi": 59,
                    "time": 87.77349449999976,
                    "velocity": 0.44881889763779526,
                    "duration": 0.09347549999999671
                },
                {
                    "name": "G#3",
                    "midi": 56,
                    "time": 87.86696999999975,
                    "velocity": 0.5118110236220472,
                    "duration": 0.09347549999999671
                },
                {
                    "name": "B3",
                    "midi": 59,
                    "time": 87.96044549999975,
                    "velocity": 0.44881889763779526,
                    "duration": 0.09347549999999671
                },
                {
                    "name": "A3",
                    "midi": 57,
                    "time": 88.05392099999975,
                    "velocity": 0.44881889763779526,
                    "duration": 0.09347549999999671
                },
                {
                    "name": "B3",
                    "midi": 59,
                    "time": 88.14739649999974,
                    "velocity": 0.4566929133858268,
                    "duration": 0.09347549999999671
                },
                {
                    "name": "G#3",
                    "midi": 56,
                    "time": 88.24087199999974,
                    "velocity": 0.5511811023622047,
                    "duration": 0.09347549999999671
                },
                {
                    "name": "B3",
                    "midi": 59,
                    "time": 88.33434749999974,
                    "velocity": 0.47244094488188976,
                    "duration": 0.09347549999999671
                },
                {
                    "name": "G#2",
                    "midi": 44,
                    "time": 88.42782299999973,
                    "velocity": 0.47244094488188976,
                    "duration": 0.09347549999999671
                },
                {
                    "name": "E3",
                    "midi": 52,
                    "time": 88.52129849999973,
                    "velocity": 0.4881889763779528,
                    "duration": 0.09347549999999671
                },
                {
                    "name": "G#2",
                    "midi": 44,
                    "time": 88.61477399999973,
                    "velocity": 0.5511811023622047,
                    "duration": 0.09347549999999671
                },
                {
                    "name": "E3",
                    "midi": 52,
                    "time": 88.70824949999972,
                    "velocity": 0.47244094488188976,
                    "duration": 0.09347549999999671
                },
                {
                    "name": "G#2",
                    "midi": 44,
                    "time": 88.80172499999972,
                    "velocity": 0.47244094488188976,
                    "duration": 0.09347549999999671
                },
                {
                    "name": "E3",
                    "midi": 52,
                    "time": 88.89520049999972,
                    "velocity": 0.47244094488188976,
                    "duration": 0.09347549999999671
                },
                {
                    "name": "G#2",
                    "midi": 44,
                    "time": 88.98867599999971,
                    "velocity": 0.5511811023622047,
                    "duration": 0.09347549999999671
                },
                {
                    "name": "E3",
                    "midi": 52,
                    "time": 89.08215149999971,
                    "velocity": 0.47244094488188976,
                    "duration": 0.09347549999999671
                },
                {
                    "name": "G#2",
                    "midi": 44,
                    "time": 89.17562699999971,
                    "velocity": 0.47244094488188976,
                    "duration": 0.09347549999999671
                },
                {
                    "name": "E3",
                    "midi": 52,
                    "time": 89.2691024999997,
                    "velocity": 0.4881889763779528,
                    "duration": 0.09347549999999671
                },
                {
                    "name": "G#2",
                    "midi": 44,
                    "time": 89.3625779999997,
                    "velocity": 0.5511811023622047,
                    "duration": 0.09347549999999671
                },
                {
                    "name": "E3",
                    "midi": 52,
                    "time": 89.4560534999997,
                    "velocity": 0.47244094488188976,
                    "duration": 0.09347549999999671
                },
                {
                    "name": "G#2",
                    "midi": 44,
                    "time": 89.5495289999997,
                    "velocity": 0.47244094488188976,
                    "duration": 0.09347549999999671
                },
                {
                    "name": "E3",
                    "midi": 52,
                    "time": 89.64300449999969,
                    "velocity": 0.47244094488188976,
                    "duration": 0.09347549999999671
                },
                {
                    "name": "G#2",
                    "midi": 44,
                    "time": 89.73647999999969,
                    "velocity": 0.5511811023622047,
                    "duration": 0.09347549999999671
                },
                {
                    "name": "E3",
                    "midi": 52,
                    "time": 89.82995549999968,
                    "velocity": 0.47244094488188976,
                    "duration": 0.09347549999999671
                },
                {
                    "name": "G#2",
                    "midi": 44,
                    "time": 89.92343099999968,
                    "velocity": 0.47244094488188976,
                    "duration": 0.09347549999999671
                },
                {
                    "name": "E3",
                    "midi": 52,
                    "time": 90.01690649999968,
                    "velocity": 0.4881889763779528,
                    "duration": 0.09347549999999671
                },
                {
                    "name": "G#2",
                    "midi": 44,
                    "time": 90.11038199999967,
                    "velocity": 0.5511811023622047,
                    "duration": 0.09347549999999671
                },
                {
                    "name": "E3",
                    "midi": 52,
                    "time": 90.20385749999967,
                    "velocity": 0.47244094488188976,
                    "duration": 0.09347549999999671
                },
                {
                    "name": "G#2",
                    "midi": 44,
                    "time": 90.29733299999967,
                    "velocity": 0.47244094488188976,
                    "duration": 0.09347549999999671
                },
                {
                    "name": "E3",
                    "midi": 52,
                    "time": 90.39080849999966,
                    "velocity": 0.48031496062992124,
                    "duration": 0.09347549999999671
                },
                {
                    "name": "G#2",
                    "midi": 44,
                    "time": 90.48428399999966,
                    "velocity": 0.5590551181102362,
                    "duration": 0.09347549999999671
                },
                {
                    "name": "E3",
                    "midi": 52,
                    "time": 90.57775949999966,
                    "velocity": 0.48031496062992124,
                    "duration": 0.09347549999999671
                },
                {
                    "name": "G#2",
                    "midi": 44,
                    "time": 90.67123499999965,
                    "velocity": 0.48031496062992124,
                    "duration": 0.09347549999999671
                },
                {
                    "name": "E3",
                    "midi": 52,
                    "time": 90.76471049999965,
                    "velocity": 0.49606299212598426,
                    "duration": 0.09347549999999671
                },
                {
                    "name": "G#2",
                    "midi": 44,
                    "time": 90.85818599999965,
                    "velocity": 0.5669291338582677,
                    "duration": 0.09347549999999671
                },
                {
                    "name": "E3",
                    "midi": 52,
                    "time": 90.95166149999964,
                    "velocity": 0.4881889763779528,
                    "duration": 0.09347549999999671
                },
                {
                    "name": "G#2",
                    "midi": 44,
                    "time": 91.04513699999964,
                    "velocity": 0.4881889763779528,
                    "duration": 0.09347549999999671
                },
                {
                    "name": "E3",
                    "midi": 52,
                    "time": 91.13861249999964,
                    "velocity": 0.4881889763779528,
                    "duration": 0.09347549999999671
                },
                {
                    "name": "A2",
                    "midi": 45,
                    "time": 91.23208799999964,
                    "velocity": 0.5275590551181102,
                    "duration": 0.14021325000000218
                },
                {
                    "name": "C#3",
                    "midi": 49,
                    "time": 91.23208799999964,
                    "velocity": 0.5275590551181102,
                    "duration": 0.14021325000000218
                },
                {
                    "name": "E3",
                    "midi": 52,
                    "time": 91.23208799999964,
                    "velocity": 0.6299212598425197,
                    "duration": 0.14021325000000218
                },
                {
                    "name": "A2",
                    "midi": 45,
                    "time": 91.41903899999964,
                    "velocity": 0.47244094488188976,
                    "duration": 0.14021325000000218
                },
                {
                    "name": "C#3",
                    "midi": 49,
                    "time": 91.41903899999964,
                    "velocity": 0.47244094488188976,
                    "duration": 0.14021325000000218
                },
                {
                    "name": "E3",
                    "midi": 52,
                    "time": 91.41903899999964,
                    "velocity": 0.5748031496062992,
                    "duration": 0.14021325000000218
                },
                {
                    "name": "A2",
                    "midi": 45,
                    "time": 91.79294099999964,
                    "velocity": 0.47244094488188976,
                    "duration": 0.14021325000000218
                },
                {
                    "name": "C#3",
                    "midi": 49,
                    "time": 91.79294099999964,
                    "velocity": 0.47244094488188976,
                    "duration": 0.14021325000000218
                },
                {
                    "name": "E3",
                    "midi": 52,
                    "time": 91.79294099999964,
                    "velocity": 0.5748031496062992,
                    "duration": 0.14021325000000218
                },
                {
                    "name": "A2",
                    "midi": 45,
                    "time": 91.97989199999965,
                    "velocity": 0.5275590551181102,
                    "duration": 0.14021325000000218
                },
                {
                    "name": "C#3",
                    "midi": 49,
                    "time": 91.97989199999965,
                    "velocity": 0.5275590551181102,
                    "duration": 0.14021325000000218
                },
                {
                    "name": "E3",
                    "midi": 52,
                    "time": 91.97989199999965,
                    "velocity": 0.6299212598425197,
                    "duration": 0.14021325000000218
                },
                {
                    "name": "A2",
                    "midi": 45,
                    "time": 92.16684299999966,
                    "velocity": 0.47244094488188976,
                    "duration": 0.14021325000000218
                },
                {
                    "name": "C#3",
                    "midi": 49,
                    "time": 92.16684299999966,
                    "velocity": 0.47244094488188976,
                    "duration": 0.14021325000000218
                },
                {
                    "name": "E3",
                    "midi": 52,
                    "time": 92.16684299999966,
                    "velocity": 0.5748031496062992,
                    "duration": 0.14021325000000218
                },
                {
                    "name": "A2",
                    "midi": 45,
                    "time": 92.54074499999966,
                    "velocity": 0.47244094488188976,
                    "duration": 0.14021325000000218
                },
                {
                    "name": "C#3",
                    "midi": 49,
                    "time": 92.54074499999966,
                    "velocity": 0.47244094488188976,
                    "duration": 0.14021325000000218
                },
                {
                    "name": "E3",
                    "midi": 52,
                    "time": 92.54074499999966,
                    "velocity": 0.5748031496062992,
                    "duration": 0.14021325000000218
                },
                {
                    "name": "A2",
                    "midi": 45,
                    "time": 92.72769599999967,
                    "velocity": 0.5275590551181102,
                    "duration": 0.14021325000000218
                },
                {
                    "name": "C#3",
                    "midi": 49,
                    "time": 92.72769599999967,
                    "velocity": 0.5275590551181102,
                    "duration": 0.14021325000000218
                },
                {
                    "name": "E3",
                    "midi": 52,
                    "time": 92.72769599999967,
                    "velocity": 0.6141732283464567,
                    "duration": 0.14021325000000218
                },
                {
                    "name": "A2",
                    "midi": 45,
                    "time": 92.91464699999968,
                    "velocity": 0.47244094488188976,
                    "duration": 0.14021325000000218
                },
                {
                    "name": "C#3",
                    "midi": 49,
                    "time": 92.91464699999968,
                    "velocity": 0.47244094488188976,
                    "duration": 0.14021325000000218
                },
                {
                    "name": "E3",
                    "midi": 52,
                    "time": 92.91464699999968,
                    "velocity": 0.5748031496062992,
                    "duration": 0.14021325000000218
                },
                {
                    "name": "A2",
                    "midi": 45,
                    "time": 93.28854899999968,
                    "velocity": 0.47244094488188976,
                    "duration": 0.14021325000000218
                },
                {
                    "name": "C#3",
                    "midi": 49,
                    "time": 93.28854899999968,
                    "velocity": 0.47244094488188976,
                    "duration": 0.14021325000000218
                },
                {
                    "name": "E3",
                    "midi": 52,
                    "time": 93.28854899999968,
                    "velocity": 0.5748031496062992,
                    "duration": 0.14021325000000218
                },
                {
                    "name": "A2",
                    "midi": 45,
                    "time": 93.47549999999968,
                    "velocity": 0.5275590551181102,
                    "duration": 0.14021325000000218
                },
                {
                    "name": "C#3",
                    "midi": 49,
                    "time": 93.47549999999968,
                    "velocity": 0.5275590551181102,
                    "duration": 0.14021325000000218
                },
                {
                    "name": "E3",
                    "midi": 52,
                    "time": 93.47549999999968,
                    "velocity": 0.6141732283464567,
                    "duration": 0.14021325000000218
                },
                {
                    "name": "A2",
                    "midi": 45,
                    "time": 93.66245099999969,
                    "velocity": 0.47244094488188976,
                    "duration": 0.14021325000000218
                },
                {
                    "name": "C#3",
                    "midi": 49,
                    "time": 93.66245099999969,
                    "velocity": 0.47244094488188976,
                    "duration": 0.14021325000000218
                },
                {
                    "name": "E3",
                    "midi": 52,
                    "time": 93.66245099999969,
                    "velocity": 0.5748031496062992,
                    "duration": 0.14021325000000218
                },
                {
                    "name": "A2",
                    "midi": 45,
                    "time": 94.03635299999969,
                    "velocity": 0.47244094488188976,
                    "duration": 0.14021325000000218
                },
                {
                    "name": "C#3",
                    "midi": 49,
                    "time": 94.03635299999969,
                    "velocity": 0.47244094488188976,
                    "duration": 0.14021325000000218
                },
                {
                    "name": "E3",
                    "midi": 52,
                    "time": 94.03635299999969,
                    "velocity": 0.5748031496062992,
                    "duration": 0.14021325000000218
                },
                {
                    "name": "E3",
                    "midi": 52,
                    "time": 94.2233039999997,
                    "velocity": 0.5275590551181102,
                    "duration": 0.14021325000000218
                },
                {
                    "name": "A#2",
                    "midi": 46,
                    "time": 94.2233039999997,
                    "velocity": 0.5275590551181102,
                    "duration": 0.14021325000000218
                },
                {
                    "name": "C#3",
                    "midi": 49,
                    "time": 94.2233039999997,
                    "velocity": 0.5275590551181102,
                    "duration": 0.14021325000000218
                },
                {
                    "name": "F#3",
                    "midi": 54,
                    "time": 94.2233039999997,
                    "velocity": 0.6141732283464567,
                    "duration": 0.14021325000000218
                },
                {
                    "name": "E3",
                    "midi": 52,
                    "time": 94.41025499999971,
                    "velocity": 0.47244094488188976,
                    "duration": 0.14021325000000218
                },
                {
                    "name": "A#2",
                    "midi": 46,
                    "time": 94.41025499999971,
                    "velocity": 0.47244094488188976,
                    "duration": 0.14021325000000218
                },
                {
                    "name": "C#3",
                    "midi": 49,
                    "time": 94.41025499999971,
                    "velocity": 0.47244094488188976,
                    "duration": 0.14021325000000218
                },
                {
                    "name": "F#3",
                    "midi": 54,
                    "time": 94.41025499999971,
                    "velocity": 0.5748031496062992,
                    "duration": 0.14021325000000218
                },
                {
                    "name": "E3",
                    "midi": 52,
                    "time": 94.78415699999971,
                    "velocity": 0.47244094488188976,
                    "duration": 0.14021325000000218
                },
                {
                    "name": "A#2",
                    "midi": 46,
                    "time": 94.78415699999971,
                    "velocity": 0.47244094488188976,
                    "duration": 0.14021325000000218
                },
                {
                    "name": "C#3",
                    "midi": 49,
                    "time": 94.78415699999971,
                    "velocity": 0.47244094488188976,
                    "duration": 0.14021325000000218
                },
                {
                    "name": "F#3",
                    "midi": 54,
                    "time": 94.78415699999971,
                    "velocity": 0.5748031496062992,
                    "duration": 0.14021325000000218
                },
                {
                    "name": "E3",
                    "midi": 52,
                    "time": 94.97110799999972,
                    "velocity": 0.5275590551181102,
                    "duration": 0.14021325000000218
                },
                {
                    "name": "A#2",
                    "midi": 46,
                    "time": 94.97110799999972,
                    "velocity": 0.5275590551181102,
                    "duration": 0.14021325000000218
                },
                {
                    "name": "C#3",
                    "midi": 49,
                    "time": 94.97110799999972,
                    "velocity": 0.5275590551181102,
                    "duration": 0.14021325000000218
                },
                {
                    "name": "F#3",
                    "midi": 54,
                    "time": 94.97110799999972,
                    "velocity": 0.6141732283464567,
                    "duration": 0.14021325000000218
                },
                {
                    "name": "E3",
                    "midi": 52,
                    "time": 95.15805899999972,
                    "velocity": 0.47244094488188976,
                    "duration": 0.14021325000000218
                },
                {
                    "name": "A#2",
                    "midi": 46,
                    "time": 95.15805899999972,
                    "velocity": 0.47244094488188976,
                    "duration": 0.14021325000000218
                },
                {
                    "name": "C#3",
                    "midi": 49,
                    "time": 95.15805899999972,
                    "velocity": 0.47244094488188976,
                    "duration": 0.14021325000000218
                },
                {
                    "name": "F#3",
                    "midi": 54,
                    "time": 95.15805899999972,
                    "velocity": 0.5748031496062992,
                    "duration": 0.14021325000000218
                },
                {
                    "name": "E3",
                    "midi": 52,
                    "time": 95.53196099999973,
                    "velocity": 0.47244094488188976,
                    "duration": 0.14021325000000218
                },
                {
                    "name": "A#2",
                    "midi": 46,
                    "time": 95.53196099999973,
                    "velocity": 0.47244094488188976,
                    "duration": 0.14021325000000218
                },
                {
                    "name": "C#3",
                    "midi": 49,
                    "time": 95.53196099999973,
                    "velocity": 0.47244094488188976,
                    "duration": 0.14021325000000218
                },
                {
                    "name": "F#3",
                    "midi": 54,
                    "time": 95.53196099999973,
                    "velocity": 0.5748031496062992,
                    "duration": 0.14021325000000218
                },
                {
                    "name": "E3",
                    "midi": 52,
                    "time": 95.71891199999973,
                    "velocity": 0.5275590551181102,
                    "duration": 0.14021325000000218
                },
                {
                    "name": "A#2",
                    "midi": 46,
                    "time": 95.71891199999973,
                    "velocity": 0.5275590551181102,
                    "duration": 0.14021325000000218
                },
                {
                    "name": "C#3",
                    "midi": 49,
                    "time": 95.71891199999973,
                    "velocity": 0.5275590551181102,
                    "duration": 0.14021325000000218
                },
                {
                    "name": "F#3",
                    "midi": 54,
                    "time": 95.71891199999973,
                    "velocity": 0.6141732283464567,
                    "duration": 0.14021325000000218
                },
                {
                    "name": "E3",
                    "midi": 52,
                    "time": 95.90586299999974,
                    "velocity": 0.47244094488188976,
                    "duration": 0.14021325000000218
                },
                {
                    "name": "A#2",
                    "midi": 46,
                    "time": 95.90586299999974,
                    "velocity": 0.47244094488188976,
                    "duration": 0.14021325000000218
                },
                {
                    "name": "C#3",
                    "midi": 49,
                    "time": 95.90586299999974,
                    "velocity": 0.47244094488188976,
                    "duration": 0.14021325000000218
                },
                {
                    "name": "F#3",
                    "midi": 54,
                    "time": 95.90586299999974,
                    "velocity": 0.5748031496062992,
                    "duration": 0.14021325000000218
                },
                {
                    "name": "E3",
                    "midi": 52,
                    "time": 96.27976499999974,
                    "velocity": 0.47244094488188976,
                    "duration": 0.14021325000000218
                },
                {
                    "name": "A#2",
                    "midi": 46,
                    "time": 96.27976499999974,
                    "velocity": 0.47244094488188976,
                    "duration": 0.14021325000000218
                },
                {
                    "name": "C#3",
                    "midi": 49,
                    "time": 96.27976499999974,
                    "velocity": 0.47244094488188976,
                    "duration": 0.14021325000000218
                },
                {
                    "name": "F#3",
                    "midi": 54,
                    "time": 96.27976499999974,
                    "velocity": 0.5748031496062992,
                    "duration": 0.14021325000000218
                },
                {
                    "name": "E3",
                    "midi": 52,
                    "time": 96.46671599999975,
                    "velocity": 0.5275590551181102,
                    "duration": 0.14021325000000218
                },
                {
                    "name": "A#2",
                    "midi": 46,
                    "time": 96.46671599999975,
                    "velocity": 0.5275590551181102,
                    "duration": 0.14021325000000218
                },
                {
                    "name": "C#3",
                    "midi": 49,
                    "time": 96.46671599999975,
                    "velocity": 0.5275590551181102,
                    "duration": 0.14021325000000218
                },
                {
                    "name": "F#3",
                    "midi": 54,
                    "time": 96.46671599999975,
                    "velocity": 0.6141732283464567,
                    "duration": 0.14021325000000218
                },
                {
                    "name": "E3",
                    "midi": 52,
                    "time": 96.65366699999976,
                    "velocity": 0.47244094488188976,
                    "duration": 0.14021325000000218
                },
                {
                    "name": "A#2",
                    "midi": 46,
                    "time": 96.65366699999976,
                    "velocity": 0.47244094488188976,
                    "duration": 0.14021325000000218
                },
                {
                    "name": "C#3",
                    "midi": 49,
                    "time": 96.65366699999976,
                    "velocity": 0.47244094488188976,
                    "duration": 0.14021325000000218
                },
                {
                    "name": "F#3",
                    "midi": 54,
                    "time": 96.65366699999976,
                    "velocity": 0.5748031496062992,
                    "duration": 0.14021325000000218
                },
                {
                    "name": "E3",
                    "midi": 52,
                    "time": 97.02756899999976,
                    "velocity": 0.47244094488188976,
                    "duration": 0.14021325000000218
                },
                {
                    "name": "A#2",
                    "midi": 46,
                    "time": 97.02756899999976,
                    "velocity": 0.47244094488188976,
                    "duration": 0.14021325000000218
                },
                {
                    "name": "C#3",
                    "midi": 49,
                    "time": 97.02756899999976,
                    "velocity": 0.47244094488188976,
                    "duration": 0.14021325000000218
                },
                {
                    "name": "F#3",
                    "midi": 54,
                    "time": 97.02756899999976,
                    "velocity": 0.5748031496062992,
                    "duration": 0.14021325000000218
                },
                {
                    "name": "B2",
                    "midi": 47,
                    "time": 97.21451999999977,
                    "velocity": 0.6141732283464567,
                    "duration": 0.09347549999999671
                },
                {
                    "name": "E3",
                    "midi": 52,
                    "time": 97.30799549999976,
                    "velocity": 0.5511811023622047,
                    "duration": 0.09347549999999671
                },
                {
                    "name": "G#3",
                    "midi": 56,
                    "time": 97.40147099999976,
                    "velocity": 0.5511811023622047,
                    "duration": 0.09347549999999671
                },
                {
                    "name": "B3",
                    "midi": 59,
                    "time": 97.49494649999976,
                    "velocity": 0.5511811023622047,
                    "duration": 0.09347549999999671
                },
                {
                    "name": "B2",
                    "midi": 47,
                    "time": 97.58842199999975,
                    "velocity": 0.6062992125984252,
                    "duration": 0.09347549999999671
                },
                {
                    "name": "E3",
                    "midi": 52,
                    "time": 97.68189749999975,
                    "velocity": 0.5511811023622047,
                    "duration": 0.09347549999999671
                },
                {
                    "name": "G#3",
                    "midi": 56,
                    "time": 97.77537299999975,
                    "velocity": 0.5511811023622047,
                    "duration": 0.09347549999999671
                },
                {
                    "name": "B3",
                    "midi": 59,
                    "time": 97.86884849999974,
                    "velocity": 0.5511811023622047,
                    "duration": 0.09347549999999671
                },
                {
                    "name": "B2",
                    "midi": 47,
                    "time": 97.96232399999974,
                    "velocity": 0.5905511811023622,
                    "duration": 0.09347549999999671
                },
                {
                    "name": "E3",
                    "midi": 52,
                    "time": 98.05579949999974,
                    "velocity": 0.5511811023622047,
                    "duration": 0.09347549999999671
                },
                {
                    "name": "G#3",
                    "midi": 56,
                    "time": 98.14927499999973,
                    "velocity": 0.5511811023622047,
                    "duration": 0.09347549999999671
                },
                {
                    "name": "B3",
                    "midi": 59,
                    "time": 98.24275049999973,
                    "velocity": 0.5511811023622047,
                    "duration": 0.09347549999999671
                },
                {
                    "name": "B2",
                    "midi": 47,
                    "time": 98.33622599999973,
                    "velocity": 0.5905511811023622,
                    "duration": 0.09347549999999671
                },
                {
                    "name": "E3",
                    "midi": 52,
                    "time": 98.42970149999972,
                    "velocity": 0.5511811023622047,
                    "duration": 0.09347549999999671
                },
                {
                    "name": "G#3",
                    "midi": 56,
                    "time": 98.52317699999972,
                    "velocity": 0.5511811023622047,
                    "duration": 0.09347549999999671
                },
                {
                    "name": "B3",
                    "midi": 59,
                    "time": 98.61665249999972,
                    "velocity": 0.5511811023622047,
                    "duration": 0.09347549999999671
                },
                {
                    "name": "B2",
                    "midi": 47,
                    "time": 98.71012799999971,
                    "velocity": 0.6141732283464567,
                    "duration": 0.09347549999999671
                },
                {
                    "name": "E3",
                    "midi": 52,
                    "time": 98.80360349999971,
                    "velocity": 0.5511811023622047,
                    "duration": 0.09347549999999671
                },
                {
                    "name": "G#3",
                    "midi": 56,
                    "time": 98.8970789999997,
                    "velocity": 0.5511811023622047,
                    "duration": 0.09347549999999671
                },
                {
                    "name": "B3",
                    "midi": 59,
                    "time": 98.9905544999997,
                    "velocity": 0.5511811023622047,
                    "duration": 0.09347549999999671
                },
                {
                    "name": "B2",
                    "midi": 47,
                    "time": 99.0840299999997,
                    "velocity": 0.6062992125984252,
                    "duration": 0.09347549999999671
                },
                {
                    "name": "E3",
                    "midi": 52,
                    "time": 99.1775054999997,
                    "velocity": 0.5511811023622047,
                    "duration": 0.09347549999999671
                },
                {
                    "name": "G#3",
                    "midi": 56,
                    "time": 99.2709809999997,
                    "velocity": 0.5511811023622047,
                    "duration": 0.09347549999999671
                },
                {
                    "name": "B3",
                    "midi": 59,
                    "time": 99.36445649999969,
                    "velocity": 0.5511811023622047,
                    "duration": 0.09347549999999671
                },
                {
                    "name": "G#3",
                    "midi": 56,
                    "time": 99.45793199999969,
                    "velocity": 0.5905511811023622,
                    "duration": 0.09347549999999671
                },
                {
                    "name": "G#3",
                    "midi": 56,
                    "time": 99.64488299999968,
                    "velocity": 0.5511811023622047,
                    "duration": 0.09347549999999671
                },
                {
                    "name": "E3",
                    "midi": 52,
                    "time": 99.83183399999967,
                    "velocity": 0.5905511811023622,
                    "duration": 0.09347549999999671
                },
                {
                    "name": "B2",
                    "midi": 47,
                    "time": 100.01878499999967,
                    "velocity": 0.5511811023622047,
                    "duration": 0.09347549999999671
                },
                {
                    "name": "B3",
                    "midi": 59,
                    "time": 100.20573599999966,
                    "velocity": 0.6771653543307087,
                    "duration": 0.09347549999999671
                },
                {
                    "name": "G#3",
                    "midi": 56,
                    "time": 100.39268699999965,
                    "velocity": 0.3700787401574803,
                    "duration": 0.09347549999999671
                },
                {
                    "name": "E4",
                    "midi": 64,
                    "time": 100.57963799999965,
                    "velocity": 0.41732283464566927,
                    "duration": 0.09347549999999671
                },
                {
                    "name": "B3",
                    "midi": 59,
                    "time": 100.76658899999964,
                    "velocity": 0.3779527559055118,
                    "duration": 0.09347549999999671
                },
                {
                    "name": "G#4",
                    "midi": 68,
                    "time": 100.95353999999963,
                    "velocity": 0.4094488188976378,
                    "duration": 0.09347549999999671
                },
                {
                    "name": "E4",
                    "midi": 64,
                    "time": 101.14049099999963,
                    "velocity": 0.3228346456692913,
                    "duration": 0.09347549999999671
                },
                {
                    "name": "B4",
                    "midi": 71,
                    "time": 101.32744199999962,
                    "velocity": 0.3937007874015748,
                    "duration": 0.09347549999999671
                },
                {
                    "name": "G#4",
                    "midi": 68,
                    "time": 101.51439299999961,
                    "velocity": 0.3228346456692913,
                    "duration": 0.09347549999999671
                },
                {
                    "name": "E5",
                    "midi": 76,
                    "time": 101.70134399999961,
                    "velocity": 0.3937007874015748,
                    "duration": 0.09347549999999671
                },
                {
                    "name": "B4",
                    "midi": 71,
                    "time": 101.8882949999996,
                    "velocity": 0.3228346456692913,
                    "duration": 0.09347549999999671
                },
                {
                    "name": "E5",
                    "midi": 76,
                    "time": 102.0752459999996,
                    "velocity": 0.3937007874015748,
                    "duration": 0.09347549999999671
                },
                {
                    "name": "B4",
                    "midi": 71,
                    "time": 102.26219699999959,
                    "velocity": 0.30708661417322836,
                    "duration": 0.09347549999999671
                },
                {
                    "name": "E5",
                    "midi": 76,
                    "time": 102.44914799999958,
                    "velocity": 0.3937007874015748,
                    "duration": 0.09347549999999671
                },
                {
                    "name": "B4",
                    "midi": 71,
                    "time": 102.63609899999958,
                    "velocity": 0.3228346456692913,
                    "duration": 0.09347549999999671
                },
                {
                    "name": "E5",
                    "midi": 76,
                    "time": 102.82304999999957,
                    "velocity": 0.3937007874015748,
                    "duration": 0.09347549999999671
                },
                {
                    "name": "B4",
                    "midi": 71,
                    "time": 103.01000099999956,
                    "velocity": 0.33070866141732286,
                    "duration": 0.09347549999999671
                },
                {
                    "name": "D#5",
                    "midi": 75,
                    "time": 103.19695199999956,
                    "velocity": 0.36220472440944884,
                    "duration": 0.09347549999999671
                },
                {
                    "name": "B4",
                    "midi": 71,
                    "time": 103.38390299999955,
                    "velocity": 0.29133858267716534,
                    "duration": 0.09347549999999671
                },
                {
                    "name": "D#5",
                    "midi": 75,
                    "time": 103.57085399999954,
                    "velocity": 0.33858267716535434,
                    "duration": 0.09347549999999671
                },
                {
                    "name": "B4",
                    "midi": 71,
                    "time": 103.75780499999954,
                    "velocity": 0.28346456692913385,
                    "duration": 0.09347549999999671
                },
                {
                    "name": "D#5",
                    "midi": 75,
                    "time": 103.94475599999953,
                    "velocity": 0.3228346456692913,
                    "duration": 0.09347549999999671
                },
                {
                    "name": "B4",
                    "midi": 71,
                    "time": 104.13170699999952,
                    "velocity": 0.25196850393700787,
                    "duration": 0.09347549999999671
                },
                {
                    "name": "D#5",
                    "midi": 75,
                    "time": 104.31865799999952,
                    "velocity": 0.30708661417322836,
                    "duration": 0.09347549999999671
                },
                {
                    "name": "B4",
                    "midi": 71,
                    "time": 104.50560899999951,
                    "velocity": 0.2440944881889764,
                    "duration": 0.09347549999999671
                },
                {
                    "name": "D#5",
                    "midi": 75,
                    "time": 104.6925599999995,
                    "velocity": 0.28346456692913385,
                    "duration": 0.09347549999999671
                },
                {
                    "name": "B4",
                    "midi": 71,
                    "time": 104.8795109999995,
                    "velocity": 0.23622047244094488,
                    "duration": 0.09347549999999671
                },
                {
                    "name": "D#5",
                    "midi": 75,
                    "time": 105.06646199999949,
                    "velocity": 0.28346456692913385,
                    "duration": 0.09347549999999671
                },
                {
                    "name": "B4",
                    "midi": 71,
                    "time": 105.25341299999948,
                    "velocity": 0.2440944881889764,
                    "duration": 0.09347549999999671
                },
                {
                    "name": "D#5",
                    "midi": 75,
                    "time": 105.44036399999948,
                    "velocity": 0.28346456692913385,
                    "duration": 0.09347549999999671
                },
                {
                    "name": "B4",
                    "midi": 71,
                    "time": 105.62731499999947,
                    "velocity": 0.2283464566929134,
                    "duration": 0.09347549999999671
                },
                {
                    "name": "D#5",
                    "midi": 75,
                    "time": 105.81426599999946,
                    "velocity": 0.28346456692913385,
                    "duration": 0.09347549999999671
                },
                {
                    "name": "B4",
                    "midi": 71,
                    "time": 106.00121699999946,
                    "velocity": 0.23622047244094488,
                    "duration": 0.09347549999999671
                },
                {
                    "name": "D#5",
                    "midi": 75,
                    "time": 106.18816799999945,
                    "velocity": 0.29133858267716534,
                    "duration": 0.06231699999999307
                },
                {
                    "name": "E5",
                    "midi": 76,
                    "time": 106.25048499999944,
                    "velocity": 0.25196850393700787,
                    "duration": 0.06231699999999307
                },
                {
                    "name": "D#5",
                    "midi": 75,
                    "time": 106.31280199999944,
                    "velocity": 0.28346456692913385,
                    "duration": 0.06231699999999307
                },
                {
                    "name": "E5",
                    "midi": 76,
                    "time": 106.37511899999943,
                    "velocity": 0.2440944881889764,
                    "duration": 0.06231699999999307
                },
                {
                    "name": "D#5",
                    "midi": 75,
                    "time": 106.43743599999942,
                    "velocity": 0.28346456692913385,
                    "duration": 0.06231699999999307
                },
                {
                    "name": "E5",
                    "midi": 76,
                    "time": 106.49975299999942,
                    "velocity": 0.25984251968503935,
                    "duration": 0.06231699999999307
                },
                {
                    "name": "D#5",
                    "midi": 75,
                    "time": 106.56206999999941,
                    "velocity": 0.29133858267716534,
                    "duration": 0.06231699999999307
                },
                {
                    "name": "E5",
                    "midi": 76,
                    "time": 106.6243869999994,
                    "velocity": 0.25984251968503935,
                    "duration": 0.06231699999999307
                },
                {
                    "name": "D#5",
                    "midi": 75,
                    "time": 106.6867039999994,
                    "velocity": 0.29133858267716534,
                    "duration": 0.06231699999999307
                },
                {
                    "name": "E5",
                    "midi": 76,
                    "time": 106.74902099999939,
                    "velocity": 0.25984251968503935,
                    "duration": 0.06231699999999307
                },
                {
                    "name": "D#5",
                    "midi": 75,
                    "time": 106.81133799999938,
                    "velocity": 0.2992125984251969,
                    "duration": 0.06231699999999307
                },
                {
                    "name": "E5",
                    "midi": 76,
                    "time": 106.87365499999937,
                    "velocity": 0.2677165354330709,
                    "duration": 0.06231699999999307
                },
                {
                    "name": "D#5",
                    "midi": 75,
                    "time": 106.93597199999937,
                    "velocity": 0.2992125984251969,
                    "duration": 0.06231699999999307
                },
                {
                    "name": "E5",
                    "midi": 76,
                    "time": 106.99828899999936,
                    "velocity": 0.2755905511811024,
                    "duration": 0.06231699999999307
                },
                {
                    "name": "D#5",
                    "midi": 75,
                    "time": 107.06060599999935,
                    "velocity": 0.30708661417322836,
                    "duration": 0.06231699999999307
                },
                {
                    "name": "E5",
                    "midi": 76,
                    "time": 107.12292299999935,
                    "velocity": 0.2755905511811024,
                    "duration": 0.06231699999999307
                },
                {
                    "name": "D#5",
                    "midi": 75,
                    "time": 107.18523999999934,
                    "velocity": 0.30708661417322836,
                    "duration": 0.06231699999999307
                },
                {
                    "name": "E5",
                    "midi": 76,
                    "time": 107.24755699999933,
                    "velocity": 0.28346456692913385,
                    "duration": 0.06231699999999307
                },
                {
                    "name": "D#5",
                    "midi": 75,
                    "time": 107.30987399999933,
                    "velocity": 0.31496062992125984,
                    "duration": 0.06231699999999307
                },
                {
                    "name": "E5",
                    "midi": 76,
                    "time": 107.37219099999932,
                    "velocity": 0.28346456692913385,
                    "duration": 0.06231699999999307
                },
                {
                    "name": "D#5",
                    "midi": 75,
                    "time": 107.43450799999931,
                    "velocity": 0.31496062992125984,
                    "duration": 0.06231699999999307
                },
                {
                    "name": "E5",
                    "midi": 76,
                    "time": 107.4968249999993,
                    "velocity": 0.28346456692913385,
                    "duration": 0.06231699999999307
                },
                {
                    "name": "D#5",
                    "midi": 75,
                    "time": 107.5591419999993,
                    "velocity": 0.3228346456692913,
                    "duration": 0.06231699999999307
                },
                {
                    "name": "E5",
                    "midi": 76,
                    "time": 107.62145899999929,
                    "velocity": 0.29133858267716534,
                    "duration": 0.06231699999999307
                },
                {
                    "name": "D#5",
                    "midi": 75,
                    "time": 107.68377599999928,
                    "velocity": 0.3228346456692913,
                    "duration": 0.06231699999999307
                },
                {
                    "name": "E5",
                    "midi": 76,
                    "time": 107.74609299999928,
                    "velocity": 0.28346456692913385,
                    "duration": 0.06231699999999307
                },
                {
                    "name": "D#5",
                    "midi": 75,
                    "time": 107.80840999999927,
                    "velocity": 0.33070866141732286,
                    "duration": 0.06231699999999307
                },
                {
                    "name": "E5",
                    "midi": 76,
                    "time": 107.87072699999926,
                    "velocity": 0.29133858267716534,
                    "duration": 0.06231699999999307
                },
                {
                    "name": "D#5",
                    "midi": 75,
                    "time": 107.93304399999926,
                    "velocity": 0.33070866141732286,
                    "duration": 0.06231699999999307
                },
                {
                    "name": "E5",
                    "midi": 76,
                    "time": 107.99536099999925,
                    "velocity": 0.29133858267716534,
                    "duration": 0.06231699999999307
                },
                {
                    "name": "D#5",
                    "midi": 75,
                    "time": 108.05767799999924,
                    "velocity": 0.33858267716535434,
                    "duration": 0.06231699999999307
                },
                {
                    "name": "E5",
                    "midi": 76,
                    "time": 108.11999499999924,
                    "velocity": 0.2992125984251969,
                    "duration": 0.06231699999999307
                },
                {
                    "name": "D#5",
                    "midi": 75,
                    "time": 108.18231199999923,
                    "velocity": 0.33858267716535434,
                    "duration": 0.06231699999999307
                },
                {
                    "name": "E5",
                    "midi": 76,
                    "time": 108.24462899999922,
                    "velocity": 0.30708661417322836,
                    "duration": 0.06231699999999307
                },
                {
                    "name": "D#5",
                    "midi": 75,
                    "time": 108.30694599999921,
                    "velocity": 0.3464566929133858,
                    "duration": 0.06231699999999307
                },
                {
                    "name": "E5",
                    "midi": 76,
                    "time": 108.36926299999921,
                    "velocity": 0.30708661417322836,
                    "duration": 0.06231699999999307
                },
                {
                    "name": "D#5",
                    "midi": 75,
                    "time": 108.4315799999992,
                    "velocity": 0.3464566929133858,
                    "duration": 0.06231699999999307
                },
                {
                    "name": "E5",
                    "midi": 76,
                    "time": 108.4938969999992,
                    "velocity": 0.2992125984251969,
                    "duration": 0.06231699999999307
                },
                {
                    "name": "D#5",
                    "midi": 75,
                    "time": 108.55621399999919,
                    "velocity": 0.3543307086614173,
                    "duration": 0.06231699999999307
                },
                {
                    "name": "E5",
                    "midi": 76,
                    "time": 108.61853099999918,
                    "velocity": 0.2992125984251969,
                    "duration": 0.06231699999999307
                },
                {
                    "name": "D#5",
                    "midi": 75,
                    "time": 108.68084799999917,
                    "velocity": 0.3543307086614173,
                    "duration": 0.06231699999999307
                },
                {
                    "name": "E5",
                    "midi": 76,
                    "time": 108.74316499999917,
                    "velocity": 0.31496062992125984,
                    "duration": 0.06231699999999307
                },
                {
                    "name": "D#5",
                    "midi": 75,
                    "time": 108.80548199999916,
                    "velocity": 0.3937007874015748,
                    "duration": 0.07478039999999453
                },
                {
                    "name": "E5",
                    "midi": 76,
                    "time": 108.88026239999915,
                    "velocity": 0.3464566929133858,
                    "duration": 0.07478039999999453
                },
                {
                    "name": "D#5",
                    "midi": 75,
                    "time": 108.95504279999915,
                    "velocity": 0.3937007874015748,
                    "duration": 0.07478039999999453
                },
                {
                    "name": "C#5",
                    "midi": 73,
                    "time": 109.02982319999914,
                    "velocity": 0.4094488188976378,
                    "duration": 0.07478039999999453
                },
                {
                    "name": "D#5",
                    "midi": 75,
                    "time": 109.10460359999914,
                    "velocity": 0.3700787401574803,
                    "duration": 0.07478039999999453
                },
                {
                    "name": "E4",
                    "midi": 64,
                    "time": 109.17938399999913,
                    "velocity": 0.3779527559055118,
                    "duration": 2.9912160000000085
                },
                {
                    "name": "E5",
                    "midi": 76,
                    "time": 109.17938399999913,
                    "velocity": 0.44881889763779526,
                    "duration": 0.7478040000000021
                },
                {
                    "name": "G#4",
                    "midi": 68,
                    "time": 109.92718799999913,
                    "velocity": 0.2992125984251969,
                    "duration": 0.7478040000000021
                },
                {
                    "name": "D5",
                    "midi": 74,
                    "time": 109.92718799999913,
                    "velocity": 0.3543307086614173,
                    "duration": 0.7478040000000021
                },
                {
                    "name": "B4",
                    "midi": 71,
                    "time": 109.92718799999913,
                    "velocity": 0.2992125984251969,
                    "duration": 0.7478040000000021
                },
                {
                    "name": "C5",
                    "midi": 72,
                    "time": 110.67499199999914,
                    "velocity": 0.3700787401574803,
                    "duration": 0.7478040000000021
                },
                {
                    "name": "A4",
                    "midi": 69,
                    "time": 110.67499199999914,
                    "velocity": 0.30708661417322836,
                    "duration": 0.7478040000000021
                },
                {
                    "name": "D5",
                    "midi": 74,
                    "time": 111.42279599999914,
                    "velocity": 0.36220472440944884,
                    "duration": 0.7478040000000021
                },
                {
                    "name": "B4",
                    "midi": 71,
                    "time": 111.42279599999914,
                    "velocity": 0.30708661417322836,
                    "duration": 0.7478040000000021
                },
                {
                    "name": "G#4",
                    "midi": 68,
                    "time": 111.42279599999914,
                    "velocity": 0.30708661417322836,
                    "duration": 0.7478040000000021
                },
                {
                    "name": "A4",
                    "midi": 69,
                    "time": 112.17059999999914,
                    "velocity": 0.31496062992125984,
                    "duration": 0.37390200000000107
                },
                {
                    "name": "C5",
                    "midi": 72,
                    "time": 112.17059999999914,
                    "velocity": 0.3779527559055118,
                    "duration": 0.37390200000000107
                },
                {
                    "name": "A3",
                    "midi": 57,
                    "time": 112.91840399999914,
                    "velocity": 0.30708661417322836,
                    "duration": 0.7478040000000021
                },
                {
                    "name": "C4",
                    "midi": 60,
                    "time": 112.91840399999914,
                    "velocity": 0.30708661417322836,
                    "duration": 0.7478040000000021
                },
                {
                    "name": "F#4",
                    "midi": 66,
                    "time": 112.91840399999914,
                    "velocity": 0.30708661417322836,
                    "duration": 0.7478040000000021
                },
                {
                    "name": "A4",
                    "midi": 69,
                    "time": 112.91840399999914,
                    "velocity": 0.3700787401574803,
                    "duration": 0.7478040000000021
                },
                {
                    "name": "B3",
                    "midi": 59,
                    "time": 113.66620799999914,
                    "velocity": 0.30708661417322836,
                    "duration": 0.7478040000000021
                },
                {
                    "name": "E4",
                    "midi": 64,
                    "time": 113.66620799999914,
                    "velocity": 0.30708661417322836,
                    "duration": 0.7478040000000021
                },
                {
                    "name": "G4",
                    "midi": 67,
                    "time": 113.66620799999914,
                    "velocity": 0.36220472440944884,
                    "duration": 0.7478040000000021
                },
                {
                    "name": "D#4",
                    "midi": 63,
                    "time": 114.41401199999915,
                    "velocity": 0.29133858267716534,
                    "duration": 0.7478040000000021
                },
                {
                    "name": "F#4",
                    "midi": 66,
                    "time": 114.41401199999915,
                    "velocity": 0.3464566929133858,
                    "duration": 0.7478040000000021
                },
                {
                    "name": "B3",
                    "midi": 59,
                    "time": 114.41401199999915,
                    "velocity": 0.29133858267716534,
                    "duration": 0.7478040000000021
                },
                {
                    "name": "E4",
                    "midi": 64,
                    "time": 115.16181599999915,
                    "velocity": 0.4409448818897638,
                    "duration": 0.7478040000000021
                },
                {
                    "name": "E3",
                    "midi": 52,
                    "time": 115.16181599999915,
                    "velocity": 0.3543307086614173,
                    "duration": 2.9912160000000085
                },
                {
                    "name": "D4",
                    "midi": 62,
                    "time": 115.90961999999915,
                    "velocity": 0.3543307086614173,
                    "duration": 0.7478040000000021
                },
                {
                    "name": "B3",
                    "midi": 59,
                    "time": 115.90961999999915,
                    "velocity": 0.2992125984251969,
                    "duration": 0.7478040000000021
                },
                {
                    "name": "G#3",
                    "midi": 56,
                    "time": 115.90961999999915,
                    "velocity": 0.2992125984251969,
                    "duration": 0.7478040000000021
                },
                {
                    "name": "A3",
                    "midi": 57,
                    "time": 116.65742399999915,
                    "velocity": 0.30708661417322836,
                    "duration": 0.7478040000000021
                },
                {
                    "name": "C4",
                    "midi": 60,
                    "time": 116.65742399999915,
                    "velocity": 0.3700787401574803,
                    "duration": 0.7478040000000021
                },
                {
                    "name": "D4",
                    "midi": 62,
                    "time": 117.40522799999916,
                    "velocity": 0.36220472440944884,
                    "duration": 0.7478040000000021
                },
                {
                    "name": "B3",
                    "midi": 59,
                    "time": 117.40522799999916,
                    "velocity": 0.30708661417322836,
                    "duration": 0.7478040000000021
                },
                {
                    "name": "G#3",
                    "midi": 56,
                    "time": 117.40522799999916,
                    "velocity": 0.30708661417322836,
                    "duration": 0.7478040000000021
                },
                {
                    "name": "A3",
                    "midi": 57,
                    "time": 118.15303199999916,
                    "velocity": 0.3779527559055118,
                    "duration": 0.37390200000000107
                },
                {
                    "name": "C4",
                    "midi": 60,
                    "time": 118.15303199999916,
                    "velocity": 0.3779527559055118,
                    "duration": 0.37390200000000107
                },
                {
                    "name": "A2",
                    "midi": 45,
                    "time": 118.90083599999916,
                    "velocity": 0.30708661417322836,
                    "duration": 0.7478040000000021
                },
                {
                    "name": "C3",
                    "midi": 48,
                    "time": 118.90083599999916,
                    "velocity": 0.30708661417322836,
                    "duration": 0.7478040000000021
                },
                {
                    "name": "F#3",
                    "midi": 54,
                    "time": 118.90083599999916,
                    "velocity": 0.30708661417322836,
                    "duration": 0.7478040000000021
                },
                {
                    "name": "A3",
                    "midi": 57,
                    "time": 118.90083599999916,
                    "velocity": 0.3700787401574803,
                    "duration": 0.7478040000000021
                },
                {
                    "name": "B2",
                    "midi": 47,
                    "time": 119.64863999999916,
                    "velocity": 0.30708661417322836,
                    "duration": 0.7478040000000021
                },
                {
                    "name": "E3",
                    "midi": 52,
                    "time": 119.64863999999916,
                    "velocity": 0.30708661417322836,
                    "duration": 0.7478040000000021
                },
                {
                    "name": "G3",
                    "midi": 55,
                    "time": 119.64863999999916,
                    "velocity": 0.36220472440944884,
                    "duration": 0.7478040000000021
                },
                {
                    "name": "F#3",
                    "midi": 54,
                    "time": 120.39644399999916,
                    "velocity": 0.3464566929133858,
                    "duration": 0.7478040000000021
                },
                {
                    "name": "D#3",
                    "midi": 51,
                    "time": 120.39644399999916,
                    "velocity": 0.29133858267716534,
                    "duration": 0.7478040000000021
                },
                {
                    "name": "B2",
                    "midi": 47,
                    "time": 120.39644399999916,
                    "velocity": 0.29133858267716534,
                    "duration": 0.7478040000000021
                },
                {
                    "name": "G3",
                    "midi": 55,
                    "time": 121.14424799999917,
                    "velocity": 0.3464566929133858,
                    "duration": 0.18695099999999343
                },
                {
                    "name": "E3",
                    "midi": 52,
                    "time": 121.14424799999917,
                    "velocity": 0.29133858267716534,
                    "duration": 0.18695099999999343
                },
                {
                    "name": "G2",
                    "midi": 43,
                    "time": 121.51814999999915,
                    "velocity": 0.33070866141732286,
                    "duration": 0.37390200000000107
                },
                {
                    "name": "E3",
                    "midi": 52,
                    "time": 121.51814999999915,
                    "velocity": 0.4015748031496063,
                    "duration": 0.5608529999999945
                },
                {
                    "name": "A2",
                    "midi": 45,
                    "time": 121.89205199999915,
                    "velocity": 0.33070866141732286,
                    "duration": 0.7478039999999737
                },
                {
                    "name": "F3",
                    "midi": 53,
                    "time": 122.07900299999915,
                    "velocity": 0.3858267716535433,
                    "duration": 0.18695099999999343
                },
                {
                    "name": "G3",
                    "midi": 55,
                    "time": 122.26595399999914,
                    "velocity": 0.4015748031496063,
                    "duration": 0.18695099999999343
                },
                {
                    "name": "A3",
                    "midi": 57,
                    "time": 122.45290499999913,
                    "velocity": 0.4330708661417323,
                    "duration": 0.18695099999999343
                },
                {
                    "name": "B3",
                    "midi": 59,
                    "time": 122.63985599999913,
                    "velocity": 0.3228346456692913,
                    "duration": 0.7478040000000021
                },
                {
                    "name": "B2",
                    "midi": 47,
                    "time": 122.63985599999913,
                    "velocity": 0.2755905511811024,
                    "duration": 1.4956080000000043
                },
                {
                    "name": "G3",
                    "midi": 55,
                    "time": 122.63985599999913,
                    "velocity": 0.2755905511811024,
                    "duration": 0.7478040000000021
                },
                {
                    "name": "F#3",
                    "midi": 54,
                    "time": 123.38765999999913,
                    "velocity": 0.25984251968503935,
                    "duration": 0.7478040000000021
                },
                {
                    "name": "A3",
                    "midi": 57,
                    "time": 123.38765999999913,
                    "velocity": 0.30708661417322836,
                    "duration": 0.7478040000000021
                },
                {
                    "name": "C3",
                    "midi": 48,
                    "time": 124.13546399999913,
                    "velocity": 0.29133858267716534,
                    "duration": 0.18695099999999343
                },
                {
                    "name": "E3",
                    "midi": 52,
                    "time": 124.13546399999913,
                    "velocity": 0.29133858267716534,
                    "duration": 0.18695099999999343
                },
                {
                    "name": "G3",
                    "midi": 55,
                    "time": 124.13546399999913,
                    "velocity": 0.3464566929133858,
                    "duration": 0.18695099999999343
                },
                {
                    "name": "E2",
                    "midi": 40,
                    "time": 124.50936599999912,
                    "velocity": 0.33070866141732286,
                    "duration": 0.37390200000000107
                },
                {
                    "name": "C3",
                    "midi": 48,
                    "time": 124.50936599999912,
                    "velocity": 0.4015748031496063,
                    "duration": 0.5608529999999945
                },
                {
                    "name": "F2",
                    "midi": 41,
                    "time": 124.88326799999912,
                    "velocity": 0.33070866141732286,
                    "duration": 0.7478039999999737
                },
                {
                    "name": "D3",
                    "midi": 50,
                    "time": 125.07021899999911,
                    "velocity": 0.3858267716535433,
                    "duration": 0.18695099999999343
                },
                {
                    "name": "E3",
                    "midi": 52,
                    "time": 125.2571699999991,
                    "velocity": 0.4015748031496063,
                    "duration": 0.18695099999999343
                },
                {
                    "name": "F3",
                    "midi": 53,
                    "time": 125.4441209999991,
                    "velocity": 0.4330708661417323,
                    "duration": 0.18695099999999343
                },
                {
                    "name": "E3",
                    "midi": 52,
                    "time": 125.6310719999991,
                    "velocity": 0.2755905511811024,
                    "duration": 0.7478040000000021
                },
                {
                    "name": "G2",
                    "midi": 43,
                    "time": 125.6310719999991,
                    "velocity": 0.2755905511811024,
                    "duration": 1.4956080000000043
                },
                {
                    "name": "G3",
                    "midi": 55,
                    "time": 125.6310719999991,
                    "velocity": 0.3228346456692913,
                    "duration": 0.7478040000000021
                },
                {
                    "name": "F3",
                    "midi": 53,
                    "time": 126.3788759999991,
                    "velocity": 0.30708661417322836,
                    "duration": 0.7478040000000021
                },
                {
                    "name": "D3",
                    "midi": 50,
                    "time": 126.3788759999991,
                    "velocity": 0.25984251968503935,
                    "duration": 0.7478040000000021
                },
                {
                    "name": "C2",
                    "midi": 36,
                    "time": 127.1266799999991,
                    "velocity": 0.1968503937007874,
                    "duration": 0.14021325000000218
                },
                {
                    "name": "G2",
                    "midi": 43,
                    "time": 127.3136309999991,
                    "velocity": 0.2047244094488189,
                    "duration": 0.14021325000000218
                },
                {
                    "name": "C2",
                    "midi": 36,
                    "time": 127.3136309999991,
                    "velocity": 0.1732283464566929,
                    "duration": 0.14021325000000218
                },
                {
                    "name": "G2",
                    "midi": 43,
                    "time": 127.50058199999911,
                    "velocity": 0.2047244094488189,
                    "duration": 0.14021325000000218
                },
                {
                    "name": "C2",
                    "midi": 36,
                    "time": 127.50058199999911,
                    "velocity": 0.1732283464566929,
                    "duration": 0.14021325000000218
                },
                {
                    "name": "G2",
                    "midi": 43,
                    "time": 127.68753299999912,
                    "velocity": 0.2125984251968504,
                    "duration": 0.14021325000000218
                },
                {
                    "name": "C2",
                    "midi": 36,
                    "time": 127.68753299999912,
                    "velocity": 0.1732283464566929,
                    "duration": 0.14021325000000218
                },
                {
                    "name": "G2",
                    "midi": 43,
                    "time": 127.87448399999913,
                    "velocity": 0.2125984251968504,
                    "duration": 0.14021325000000218
                },
                {
                    "name": "C2",
                    "midi": 36,
                    "time": 127.87448399999913,
                    "velocity": 0.1732283464566929,
                    "duration": 0.14021325000000218
                },
                {
                    "name": "G2",
                    "midi": 43,
                    "time": 128.06143499999914,
                    "velocity": 0.2204724409448819,
                    "duration": 0.14021324999998797
                },
                {
                    "name": "C2",
                    "midi": 36,
                    "time": 128.06143499999914,
                    "velocity": 0.18110236220472442,
                    "duration": 0.14021324999998797
                },
                {
                    "name": "G2",
                    "midi": 43,
                    "time": 128.24838599999913,
                    "velocity": 0.2204724409448819,
                    "duration": 0.14021324999998797
                },
                {
                    "name": "C2",
                    "midi": 36,
                    "time": 128.24838599999913,
                    "velocity": 0.18110236220472442,
                    "duration": 0.14021324999998797
                },
                {
                    "name": "G2",
                    "midi": 43,
                    "time": 128.43533699999912,
                    "velocity": 0.2283464566929134,
                    "duration": 0.14021324999998797
                },
                {
                    "name": "C2",
                    "midi": 36,
                    "time": 128.43533699999912,
                    "velocity": 0.1889763779527559,
                    "duration": 0.14021324999998797
                },
                {
                    "name": "C2",
                    "midi": 36,
                    "time": 128.62228799999912,
                    "velocity": 0.1968503937007874,
                    "duration": 0.14021324999998797
                },
                {
                    "name": "G2",
                    "midi": 43,
                    "time": 128.62228799999912,
                    "velocity": 0.23622047244094488,
                    "duration": 0.14021324999998797
                },
                {
                    "name": "C2",
                    "midi": 36,
                    "time": 128.8092389999991,
                    "velocity": 0.1732283464566929,
                    "duration": 0.14021324999998797
                },
                {
                    "name": "G2",
                    "midi": 43,
                    "time": 128.8092389999991,
                    "velocity": 0.2125984251968504,
                    "duration": 0.14021324999998797
                },
                {
                    "name": "C2",
                    "midi": 36,
                    "time": 128.9961899999991,
                    "velocity": 0.18110236220472442,
                    "duration": 0.14021324999998797
                },
                {
                    "name": "G2",
                    "midi": 43,
                    "time": 128.9961899999991,
                    "velocity": 0.2204724409448819,
                    "duration": 0.14021324999998797
                },
                {
                    "name": "C2",
                    "midi": 36,
                    "time": 129.1831409999991,
                    "velocity": 0.1889763779527559,
                    "duration": 0.14021324999998797
                },
                {
                    "name": "G2",
                    "midi": 43,
                    "time": 129.1831409999991,
                    "velocity": 0.2283464566929134,
                    "duration": 0.14021324999998797
                },
                {
                    "name": "C2",
                    "midi": 36,
                    "time": 129.3700919999991,
                    "velocity": 0.1968503937007874,
                    "duration": 0.14021324999998797
                },
                {
                    "name": "G2",
                    "midi": 43,
                    "time": 129.3700919999991,
                    "velocity": 0.23622047244094488,
                    "duration": 0.14021324999998797
                },
                {
                    "name": "C2",
                    "midi": 36,
                    "time": 129.55704299999908,
                    "velocity": 0.1968503937007874,
                    "duration": 0.14021324999998797
                },
                {
                    "name": "G2",
                    "midi": 43,
                    "time": 129.55704299999908,
                    "velocity": 0.23622047244094488,
                    "duration": 0.14021324999998797
                },
                {
                    "name": "C2",
                    "midi": 36,
                    "time": 129.74399399999908,
                    "velocity": 0.1968503937007874,
                    "duration": 0.14021324999998797
                },
                {
                    "name": "A2",
                    "midi": 45,
                    "time": 129.74399399999908,
                    "velocity": 0.23622047244094488,
                    "duration": 0.14021324999998797
                },
                {
                    "name": "C2",
                    "midi": 36,
                    "time": 129.93094499999907,
                    "velocity": 0.1968503937007874,
                    "duration": 0.14021324999998797
                },
                {
                    "name": "A2",
                    "midi": 45,
                    "time": 129.93094499999907,
                    "velocity": 0.23622047244094488,
                    "duration": 0.14021324999998797
                },
                {
                    "name": "B1",
                    "midi": 35,
                    "time": 130.11789599999906,
                    "velocity": 0.1968503937007874,
                    "duration": 0.14021324999998797
                },
                {
                    "name": "G2",
                    "midi": 43,
                    "time": 130.11789599999906,
                    "velocity": 0.23622047244094488,
                    "duration": 0.14021324999998797
                },
                {
                    "name": "B1",
                    "midi": 35,
                    "time": 130.30484699999906,
                    "velocity": 0.1968503937007874,
                    "duration": 0.14021324999998797
                },
                {
                    "name": "G2",
                    "midi": 43,
                    "time": 130.30484699999906,
                    "velocity": 0.23622047244094488,
                    "duration": 0.14021324999998797
                },
                {
                    "name": "B1",
                    "midi": 35,
                    "time": 130.49179799999905,
                    "velocity": 0.1968503937007874,
                    "duration": 0.14021324999998797
                },
                {
                    "name": "G2",
                    "midi": 43,
                    "time": 130.49179799999905,
                    "velocity": 0.23622047244094488,
                    "duration": 0.14021324999998797
                },
                {
                    "name": "B1",
                    "midi": 35,
                    "time": 130.67874899999904,
                    "velocity": 0.1968503937007874,
                    "duration": 0.14021324999998797
                },
                {
                    "name": "G2",
                    "midi": 43,
                    "time": 130.67874899999904,
                    "velocity": 0.23622047244094488,
                    "duration": 0.14021324999998797
                },
                {
                    "name": "B1",
                    "midi": 35,
                    "time": 130.86569999999904,
                    "velocity": 0.1968503937007874,
                    "duration": 0.14021324999998797
                },
                {
                    "name": "G2",
                    "midi": 43,
                    "time": 130.86569999999904,
                    "velocity": 0.23622047244094488,
                    "duration": 0.14021324999998797
                },
                {
                    "name": "B1",
                    "midi": 35,
                    "time": 131.05265099999903,
                    "velocity": 0.1968503937007874,
                    "duration": 0.14021324999998797
                },
                {
                    "name": "G2",
                    "midi": 43,
                    "time": 131.05265099999903,
                    "velocity": 0.23622047244094488,
                    "duration": 0.14021324999998797
                },
                {
                    "name": "B1",
                    "midi": 35,
                    "time": 131.23960199999902,
                    "velocity": 0.1968503937007874,
                    "duration": 0.14021324999998797
                },
                {
                    "name": "G2",
                    "midi": 43,
                    "time": 131.23960199999902,
                    "velocity": 0.23622047244094488,
                    "duration": 0.14021324999998797
                },
                {
                    "name": "B1",
                    "midi": 35,
                    "time": 131.42655299999902,
                    "velocity": 0.1968503937007874,
                    "duration": 0.14021324999998797
                },
                {
                    "name": "G2",
                    "midi": 43,
                    "time": 131.42655299999902,
                    "velocity": 0.23622047244094488,
                    "duration": 0.14021324999998797
                },
                {
                    "name": "B1",
                    "midi": 35,
                    "time": 131.613503999999,
                    "velocity": 0.1968503937007874,
                    "duration": 0.14021324999998797
                },
                {
                    "name": "G2",
                    "midi": 43,
                    "time": 131.613503999999,
                    "velocity": 0.23622047244094488,
                    "duration": 0.14021324999998797
                },
                {
                    "name": "B1",
                    "midi": 35,
                    "time": 131.800454999999,
                    "velocity": 0.1968503937007874,
                    "duration": 0.14021324999998797
                },
                {
                    "name": "G2",
                    "midi": 43,
                    "time": 131.800454999999,
                    "velocity": 0.23622047244094488,
                    "duration": 0.14021324999998797
                },
                {
                    "name": "B1",
                    "midi": 35,
                    "time": 131.987405999999,
                    "velocity": 0.1968503937007874,
                    "duration": 0.14021324999998797
                },
                {
                    "name": "G2",
                    "midi": 43,
                    "time": 131.987405999999,
                    "velocity": 0.23622047244094488,
                    "duration": 0.14021324999998797
                },
                {
                    "name": "B1",
                    "midi": 35,
                    "time": 132.174356999999,
                    "velocity": 0.1968503937007874,
                    "duration": 0.14021324999998797
                },
                {
                    "name": "G2",
                    "midi": 43,
                    "time": 132.174356999999,
                    "velocity": 0.23622047244094488,
                    "duration": 0.14021324999998797
                },
                {
                    "name": "B1",
                    "midi": 35,
                    "time": 132.36130799999898,
                    "velocity": 0.1968503937007874,
                    "duration": 0.14021324999998797
                },
                {
                    "name": "G2",
                    "midi": 43,
                    "time": 132.36130799999898,
                    "velocity": 0.23622047244094488,
                    "duration": 0.14021324999998797
                },
                {
                    "name": "B1",
                    "midi": 35,
                    "time": 132.54825899999898,
                    "velocity": 0.1968503937007874,
                    "duration": 0.14021324999998797
                },
                {
                    "name": "G2",
                    "midi": 43,
                    "time": 132.54825899999898,
                    "velocity": 0.23622047244094488,
                    "duration": 0.14021324999998797
                },
                {
                    "name": "B1",
                    "midi": 35,
                    "time": 132.73520999999897,
                    "velocity": 0.1968503937007874,
                    "duration": 0.14021324999998797
                },
                {
                    "name": "G2",
                    "midi": 43,
                    "time": 132.73520999999897,
                    "velocity": 0.23622047244094488,
                    "duration": 0.14021324999998797
                },
                {
                    "name": "B1",
                    "midi": 35,
                    "time": 132.92216099999897,
                    "velocity": 0.1968503937007874,
                    "duration": 0.14021324999998797
                },
                {
                    "name": "G2",
                    "midi": 43,
                    "time": 132.92216099999897,
                    "velocity": 0.23622047244094488,
                    "duration": 0.14021324999998797
                },
                {
                    "name": "F2",
                    "midi": 41,
                    "time": 133.10911199999896,
                    "velocity": 0.23622047244094488,
                    "duration": 0.14021324999998797
                },
                {
                    "name": "A#1",
                    "midi": 34,
                    "time": 133.10911199999896,
                    "velocity": 0.2047244094488189,
                    "duration": 0.14021324999998797
                },
                {
                    "name": "F2",
                    "midi": 41,
                    "time": 133.29606299999895,
                    "velocity": 0.23622047244094488,
                    "duration": 0.14021324999998797
                },
                {
                    "name": "A#1",
                    "midi": 34,
                    "time": 133.29606299999895,
                    "velocity": 0.1968503937007874,
                    "duration": 0.14021324999998797
                },
                {
                    "name": "F2",
                    "midi": 41,
                    "time": 133.48301399999895,
                    "velocity": 0.23622047244094488,
                    "duration": 0.14021324999998797
                },
                {
                    "name": "A#1",
                    "midi": 34,
                    "time": 133.48301399999895,
                    "velocity": 0.1968503937007874,
                    "duration": 0.14021324999998797
                },
                {
                    "name": "F2",
                    "midi": 41,
                    "time": 133.66996499999894,
                    "velocity": 0.2440944881889764,
                    "duration": 0.14021324999998797
                },
                {
                    "name": "A#1",
                    "midi": 34,
                    "time": 133.66996499999894,
                    "velocity": 0.2047244094488189,
                    "duration": 0.14021324999998797
                },
                {
                    "name": "F2",
                    "midi": 41,
                    "time": 133.85691599999893,
                    "velocity": 0.2440944881889764,
                    "duration": 0.14021324999998797
                },
                {
                    "name": "A#1",
                    "midi": 34,
                    "time": 133.85691599999893,
                    "velocity": 0.2047244094488189,
                    "duration": 0.14021324999998797
                },
                {
                    "name": "F2",
                    "midi": 41,
                    "time": 134.04386699999893,
                    "velocity": 0.2440944881889764,
                    "duration": 0.14021324999998797
                },
                {
                    "name": "A#1",
                    "midi": 34,
                    "time": 134.04386699999893,
                    "velocity": 0.2047244094488189,
                    "duration": 0.14021324999998797
                },
                {
                    "name": "F2",
                    "midi": 41,
                    "time": 134.23081799999892,
                    "velocity": 0.2440944881889764,
                    "duration": 0.14021324999998797
                },
                {
                    "name": "A#1",
                    "midi": 34,
                    "time": 134.23081799999892,
                    "velocity": 0.2047244094488189,
                    "duration": 0.14021324999998797
                },
                {
                    "name": "F2",
                    "midi": 41,
                    "time": 134.4177689999989,
                    "velocity": 0.2440944881889764,
                    "duration": 0.14021324999998797
                },
                {
                    "name": "A#1",
                    "midi": 34,
                    "time": 134.4177689999989,
                    "velocity": 0.2047244094488189,
                    "duration": 0.14021324999998797
                },
                {
                    "name": "A#1",
                    "midi": 34,
                    "time": 134.6047199999989,
                    "velocity": 0.2047244094488189,
                    "duration": 0.14021324999998797
                },
                {
                    "name": "F2",
                    "midi": 41,
                    "time": 134.6047199999989,
                    "velocity": 0.2440944881889764,
                    "duration": 0.14021324999998797
                },
                {
                    "name": "A#1",
                    "midi": 34,
                    "time": 134.7916709999989,
                    "velocity": 0.2047244094488189,
                    "duration": 0.14021324999998797
                },
                {
                    "name": "F2",
                    "midi": 41,
                    "time": 134.7916709999989,
                    "velocity": 0.2440944881889764,
                    "duration": 0.14021324999998797
                },
                {
                    "name": "A#1",
                    "midi": 34,
                    "time": 134.9786219999989,
                    "velocity": 0.2047244094488189,
                    "duration": 0.14021324999998797
                },
                {
                    "name": "F2",
                    "midi": 41,
                    "time": 134.9786219999989,
                    "velocity": 0.2440944881889764,
                    "duration": 0.14021324999998797
                },
                {
                    "name": "A#1",
                    "midi": 34,
                    "time": 135.1655729999989,
                    "velocity": 0.2047244094488189,
                    "duration": 0.14021324999998797
                },
                {
                    "name": "F2",
                    "midi": 41,
                    "time": 135.1655729999989,
                    "velocity": 0.2440944881889764,
                    "duration": 0.14021324999998797
                },
                {
                    "name": "A#1",
                    "midi": 34,
                    "time": 135.35252399999888,
                    "velocity": 0.2047244094488189,
                    "duration": 0.14021324999998797
                },
                {
                    "name": "F2",
                    "midi": 41,
                    "time": 135.35252399999888,
                    "velocity": 0.2440944881889764,
                    "duration": 0.14021324999998797
                },
                {
                    "name": "A#1",
                    "midi": 34,
                    "time": 135.53947499999887,
                    "velocity": 0.1968503937007874,
                    "duration": 0.14021324999998797
                },
                {
                    "name": "F2",
                    "midi": 41,
                    "time": 135.53947499999887,
                    "velocity": 0.23622047244094488,
                    "duration": 0.14021324999998797
                },
                {
                    "name": "A#1",
                    "midi": 34,
                    "time": 135.72642599999887,
                    "velocity": 0.1968503937007874,
                    "duration": 0.14021324999998797
                },
                {
                    "name": "G2",
                    "midi": 43,
                    "time": 135.72642599999887,
                    "velocity": 0.23622047244094488,
                    "duration": 0.14021324999998797
                },
                {
                    "name": "A#1",
                    "midi": 34,
                    "time": 135.91337699999886,
                    "velocity": 0.1968503937007874,
                    "duration": 0.14021324999998797
                },
                {
                    "name": "G2",
                    "midi": 43,
                    "time": 135.91337699999886,
                    "velocity": 0.23622047244094488,
                    "duration": 0.14021324999998797
                },
                {
                    "name": "A1",
                    "midi": 33,
                    "time": 136.10032799999885,
                    "velocity": 0.1968503937007874,
                    "duration": 0.14021324999998797
                },
                {
                    "name": "F2",
                    "midi": 41,
                    "time": 136.10032799999885,
                    "velocity": 0.23622047244094488,
                    "duration": 0.14021324999998797
                },
                {
                    "name": "A1",
                    "midi": 33,
                    "time": 136.28727899999885,
                    "velocity": 0.1968503937007874,
                    "duration": 0.14021324999998797
                },
                {
                    "name": "F2",
                    "midi": 41,
                    "time": 136.28727899999885,
                    "velocity": 0.23622047244094488,
                    "duration": 0.14021324999998797
                },
                {
                    "name": "A1",
                    "midi": 33,
                    "time": 136.47422999999884,
                    "velocity": 0.1968503937007874,
                    "duration": 0.14021324999998797
                },
                {
                    "name": "F2",
                    "midi": 41,
                    "time": 136.47422999999884,
                    "velocity": 0.23622047244094488,
                    "duration": 0.14021324999998797
                },
                {
                    "name": "A1",
                    "midi": 33,
                    "time": 136.66118099999883,
                    "velocity": 0.1968503937007874,
                    "duration": 0.14021324999998797
                },
                {
                    "name": "F2",
                    "midi": 41,
                    "time": 136.66118099999883,
                    "velocity": 0.23622047244094488,
                    "duration": 0.14021324999998797
                },
                {
                    "name": "A1",
                    "midi": 33,
                    "time": 136.84813199999883,
                    "velocity": 0.1968503937007874,
                    "duration": 0.14021324999998797
                },
                {
                    "name": "F2",
                    "midi": 41,
                    "time": 136.84813199999883,
                    "velocity": 0.23622047244094488,
                    "duration": 0.14021324999998797
                },
                {
                    "name": "A1",
                    "midi": 33,
                    "time": 137.03508299999882,
                    "velocity": 0.1968503937007874,
                    "duration": 0.14021324999998797
                },
                {
                    "name": "F2",
                    "midi": 41,
                    "time": 137.03508299999882,
                    "velocity": 0.23622047244094488,
                    "duration": 0.14021324999998797
                },
                {
                    "name": "A1",
                    "midi": 33,
                    "time": 137.2220339999988,
                    "velocity": 0.1968503937007874,
                    "duration": 0.14021324999998797
                },
                {
                    "name": "F2",
                    "midi": 41,
                    "time": 137.2220339999988,
                    "velocity": 0.23622047244094488,
                    "duration": 0.14021324999998797
                },
                {
                    "name": "A1",
                    "midi": 33,
                    "time": 137.4089849999988,
                    "velocity": 0.1968503937007874,
                    "duration": 0.14021324999998797
                },
                {
                    "name": "F2",
                    "midi": 41,
                    "time": 137.4089849999988,
                    "velocity": 0.23622047244094488,
                    "duration": 0.14021324999998797
                },
                {
                    "name": "G#1",
                    "midi": 32,
                    "time": 137.5959359999988,
                    "velocity": 0.1968503937007874,
                    "duration": 0.14021324999998797
                },
                {
                    "name": "F2",
                    "midi": 41,
                    "time": 137.5959359999988,
                    "velocity": 0.23622047244094488,
                    "duration": 0.14021324999998797
                },
                {
                    "name": "G#1",
                    "midi": 32,
                    "time": 137.7828869999988,
                    "velocity": 0.1968503937007874,
                    "duration": 0.14021324999998797
                },
                {
                    "name": "F2",
                    "midi": 41,
                    "time": 137.7828869999988,
                    "velocity": 0.23622047244094488,
                    "duration": 0.14021324999998797
                },
                {
                    "name": "G#1",
                    "midi": 32,
                    "time": 137.9698379999988,
                    "velocity": 0.1968503937007874,
                    "duration": 0.14021324999998797
                },
                {
                    "name": "F2",
                    "midi": 41,
                    "time": 137.9698379999988,
                    "velocity": 0.23622047244094488,
                    "duration": 0.14021324999998797
                },
                {
                    "name": "G#1",
                    "midi": 32,
                    "time": 138.15678899999878,
                    "velocity": 0.1968503937007874,
                    "duration": 0.14021324999998797
                },
                {
                    "name": "F2",
                    "midi": 41,
                    "time": 138.15678899999878,
                    "velocity": 0.23622047244094488,
                    "duration": 0.14021324999998797
                },
                {
                    "name": "G#1",
                    "midi": 32,
                    "time": 138.34373999999877,
                    "velocity": 0.1968503937007874,
                    "duration": 0.14021324999998797
                },
                {
                    "name": "F2",
                    "midi": 41,
                    "time": 138.34373999999877,
                    "velocity": 0.23622047244094488,
                    "duration": 0.14021324999998797
                },
                {
                    "name": "G#1",
                    "midi": 32,
                    "time": 138.53069099999877,
                    "velocity": 0.1968503937007874,
                    "duration": 0.14021324999998797
                },
                {
                    "name": "F2",
                    "midi": 41,
                    "time": 138.53069099999877,
                    "velocity": 0.23622047244094488,
                    "duration": 0.14021324999998797
                },
                {
                    "name": "G#1",
                    "midi": 32,
                    "time": 138.71764199999876,
                    "velocity": 0.1968503937007874,
                    "duration": 0.14021324999998797
                },
                {
                    "name": "F2",
                    "midi": 41,
                    "time": 138.71764199999876,
                    "velocity": 0.23622047244094488,
                    "duration": 0.14021324999998797
                },
                {
                    "name": "G#1",
                    "midi": 32,
                    "time": 138.90459299999875,
                    "velocity": 0.1968503937007874,
                    "duration": 0.14021324999998797
                },
                {
                    "name": "F2",
                    "midi": 41,
                    "time": 138.90459299999875,
                    "velocity": 0.23622047244094488,
                    "duration": 0.14021324999998797
                },
                {
                    "name": "G1",
                    "midi": 31,
                    "time": 139.09154399999875,
                    "velocity": 0.23622047244094488,
                    "duration": 0.14021324999998797
                },
                {
                    "name": "F2",
                    "midi": 41,
                    "time": 139.09154399999875,
                    "velocity": 0.28346456692913385,
                    "duration": 0.14021324999998797
                },
                {
                    "name": "G1",
                    "midi": 31,
                    "time": 139.27849499999874,
                    "velocity": 0.25196850393700787,
                    "duration": 0.14021324999998797
                },
                {
                    "name": "F2",
                    "midi": 41,
                    "time": 139.27849499999874,
                    "velocity": 0.2992125984251969,
                    "duration": 0.14021324999998797
                },
                {
                    "name": "G1",
                    "midi": 31,
                    "time": 139.46544599999874,
                    "velocity": 0.25984251968503935,
                    "duration": 0.14021324999998797
                },
                {
                    "name": "F2",
                    "midi": 41,
                    "time": 139.46544599999874,
                    "velocity": 0.30708661417322836,
                    "duration": 0.14021324999998797
                },
                {
                    "name": "G1",
                    "midi": 31,
                    "time": 139.65239699999873,
                    "velocity": 0.2677165354330709,
                    "duration": 0.14021324999998797
                },
                {
                    "name": "F2",
                    "midi": 41,
                    "time": 139.65239699999873,
                    "velocity": 0.3228346456692913,
                    "duration": 0.14021324999998797
                },
                {
                    "name": "G1",
                    "midi": 31,
                    "time": 139.83934799999872,
                    "velocity": 0.28346456692913385,
                    "duration": 0.14021324999998797
                },
                {
                    "name": "F2",
                    "midi": 41,
                    "time": 139.83934799999872,
                    "velocity": 0.33858267716535434,
                    "duration": 0.14021324999998797
                },
                {
                    "name": "G1",
                    "midi": 31,
                    "time": 140.02629899999872,
                    "velocity": 0.2992125984251969,
                    "duration": 0.14021324999998797
                },
                {
                    "name": "F2",
                    "midi": 41,
                    "time": 140.02629899999872,
                    "velocity": 0.3543307086614173,
                    "duration": 0.14021324999998797
                },
                {
                    "name": "G#1",
                    "midi": 32,
                    "time": 140.2132499999987,
                    "velocity": 0.30708661417322836,
                    "duration": 0.14021324999998797
                },
                {
                    "name": "F2",
                    "midi": 41,
                    "time": 140.2132499999987,
                    "velocity": 0.36220472440944884,
                    "duration": 0.14021324999998797
                },
                {
                    "name": "G#1",
                    "midi": 32,
                    "time": 140.4002009999987,
                    "velocity": 0.31496062992125984,
                    "duration": 0.14021324999998797
                },
                {
                    "name": "F2",
                    "midi": 41,
                    "time": 140.4002009999987,
                    "velocity": 0.3779527559055118,
                    "duration": 0.14021324999998797
                },
                {
                    "name": "G1",
                    "midi": 31,
                    "time": 140.5871519999987,
                    "velocity": 0.3464566929133858,
                    "duration": 0.14021324999998797
                },
                {
                    "name": "F2",
                    "midi": 41,
                    "time": 140.5871519999987,
                    "velocity": 0.4094488188976378,
                    "duration": 0.14021324999998797
                },
                {
                    "name": "G1",
                    "midi": 31,
                    "time": 140.7741029999987,
                    "velocity": 0.3464566929133858,
                    "duration": 0.14021324999998797
                },
                {
                    "name": "F2",
                    "midi": 41,
                    "time": 140.7741029999987,
                    "velocity": 0.4094488188976378,
                    "duration": 0.14021324999998797
                },
                {
                    "name": "G#1",
                    "midi": 32,
                    "time": 140.96105399999868,
                    "velocity": 0.3543307086614173,
                    "duration": 0.14021324999998797
                },
                {
                    "name": "F2",
                    "midi": 41,
                    "time": 140.96105399999868,
                    "velocity": 0.4330708661417323,
                    "duration": 0.14021324999998797
                },
                {
                    "name": "G#1",
                    "midi": 32,
                    "time": 141.14800499999868,
                    "velocity": 0.36220472440944884,
                    "duration": 0.14021324999998797
                },
                {
                    "name": "F2",
                    "midi": 41,
                    "time": 141.14800499999868,
                    "velocity": 0.4330708661417323,
                    "duration": 0.14021324999998797
                },
                {
                    "name": "G1",
                    "midi": 31,
                    "time": 141.33495599999867,
                    "velocity": 0.3779527559055118,
                    "duration": 0.14021324999998797
                },
                {
                    "name": "F2",
                    "midi": 41,
                    "time": 141.33495599999867,
                    "velocity": 0.4566929133858268,
                    "duration": 0.14021324999998797
                },
                {
                    "name": "G1",
                    "midi": 31,
                    "time": 141.52190699999866,
                    "velocity": 0.4015748031496063,
                    "duration": 0.14021324999998797
                },
                {
                    "name": "F2",
                    "midi": 41,
                    "time": 141.52190699999866,
                    "velocity": 0.47244094488188976,
                    "duration": 0.14021324999998797
                },
                {
                    "name": "G#1",
                    "midi": 32,
                    "time": 141.70885799999866,
                    "velocity": 0.4251968503937008,
                    "duration": 0.14021324999998797
                },
                {
                    "name": "F2",
                    "midi": 41,
                    "time": 141.70885799999866,
                    "velocity": 0.5039370078740157,
                    "duration": 0.14021324999998797
                },
                {
                    "name": "G#1",
                    "midi": 32,
                    "time": 141.89580899999865,
                    "velocity": 0.4409448818897638,
                    "duration": 0.14021324999998797
                },
                {
                    "name": "F2",
                    "midi": 41,
                    "time": 141.89580899999865,
                    "velocity": 0.5196850393700787,
                    "duration": 0.14021324999998797
                },
                {
                    "name": "G1",
                    "midi": 31,
                    "time": 142.08275999999864,
                    "velocity": 0.5511811023622047,
                    "duration": 0.37390199999998686
                },
                {
                    "name": "F2",
                    "midi": 41,
                    "time": 142.08275999999864,
                    "velocity": 0.6692913385826772,
                    "duration": 0.37390199999998686
                },
                {
                    "name": "G2",
                    "midi": 43,
                    "time": 142.45666199999863,
                    "velocity": 0.6377952755905512,
                    "duration": 0.9347549999999956
                },
                {
                    "name": "G3",
                    "midi": 55,
                    "time": 142.45666199999863,
                    "velocity": 0.7559055118110236,
                    "duration": 0.9347549999999956
                },
                {
                    "name": "A3",
                    "midi": 57,
                    "time": 143.39141699999863,
                    "velocity": 0.5275590551181102,
                    "duration": 0.09347550000001092
                },
                {
                    "name": "B3",
                    "midi": 59,
                    "time": 143.48489249999864,
                    "velocity": 0.5511811023622047,
                    "duration": 0.09347550000001092
                },
                {
                    "name": "C4",
                    "midi": 60,
                    "time": 143.57836799999865,
                    "velocity": 0.5669291338582677,
                    "duration": 0.14021324999998797
                },
                {
                    "name": "G2",
                    "midi": 43,
                    "time": 143.95226999999863,
                    "velocity": 0.4409448818897638,
                    "duration": 0.14021324999998797
                },
                {
                    "name": "G3",
                    "midi": 55,
                    "time": 143.95226999999863,
                    "velocity": 0.5196850393700787,
                    "duration": 0.14021324999998797
                },
                {
                    "name": "D#2",
                    "midi": 39,
                    "time": 144.32617199999862,
                    "velocity": 0.4094488188976378,
                    "duration": 0.14021324999998797
                },
                {
                    "name": "D#3",
                    "midi": 51,
                    "time": 144.32617199999862,
                    "velocity": 0.4881889763779528,
                    "duration": 0.14021324999998797
                },
                {
                    "name": "C2",
                    "midi": 36,
                    "time": 144.7000739999986,
                    "velocity": 0.3779527559055118,
                    "duration": 0.14021324999998797
                },
                {
                    "name": "C3",
                    "midi": 48,
                    "time": 144.7000739999986,
                    "velocity": 0.44881889763779526,
                    "duration": 0.14021324999998797
                },
                {
                    "name": "G1",
                    "midi": 31,
                    "time": 145.0739759999986,
                    "velocity": 0.36220472440944884,
                    "duration": 1.4956080000000043
                },
                {
                    "name": "G2",
                    "midi": 43,
                    "time": 145.0739759999986,
                    "velocity": 0.4251968503937008,
                    "duration": 1.4956080000000043
                },
                {
                    "name": "C2",
                    "midi": 36,
                    "time": 146.5695839999986,
                    "velocity": 0.23622047244094488,
                    "duration": 1.4956079999999474
                },
                {
                    "name": "C3",
                    "midi": 48,
                    "time": 146.5695839999986,
                    "velocity": 0.23622047244094488,
                    "duration": 0.18695099999999343
                },
                {
                    "name": "C3",
                    "midi": 48,
                    "time": 146.7565349999986,
                    "velocity": 0.2440944881889764,
                    "duration": 0.09269653749998952
                },
                {
                    "name": "G3",
                    "midi": 55,
                    "time": 146.85001049999858,
                    "velocity": 0.2047244094488189,
                    "duration": 0.09347550000001092
                },
                {
                    "name": "C3",
                    "midi": 48,
                    "time": 146.9434859999986,
                    "velocity": 0.2440944881889764,
                    "duration": 0.09269653749998952
                },
                {
                    "name": "G3",
                    "midi": 55,
                    "time": 147.03696149999857,
                    "velocity": 0.2125984251968504,
                    "duration": 0.09347550000001092
                },
                {
                    "name": "C3",
                    "midi": 48,
                    "time": 147.13043699999858,
                    "velocity": 0.2440944881889764,
                    "duration": 0.09269653749998952
                },
                {
                    "name": "G3",
                    "midi": 55,
                    "time": 147.22391249999856,
                    "velocity": 0.2125984251968504,
                    "duration": 0.09347550000001092
                },
                {
                    "name": "C3",
                    "midi": 48,
                    "time": 147.31738799999857,
                    "velocity": 0.2440944881889764,
                    "duration": 0.09269653749998952
                },
                {
                    "name": "G3",
                    "midi": 55,
                    "time": 147.41086349999856,
                    "velocity": 0.2047244094488189,
                    "duration": 0.09347550000001092
                },
                {
                    "name": "C3",
                    "midi": 48,
                    "time": 147.50433899999857,
                    "velocity": 0.2440944881889764,
                    "duration": 0.09269653749998952
                },
                {
                    "name": "G3",
                    "midi": 55,
                    "time": 147.59781449999855,
                    "velocity": 0.2125984251968504,
                    "duration": 0.09347550000001092
                },
                {
                    "name": "C3",
                    "midi": 48,
                    "time": 147.69128999999856,
                    "velocity": 0.2440944881889764,
                    "duration": 0.09269653749998952
                },
                {
                    "name": "G3",
                    "midi": 55,
                    "time": 147.78476549999854,
                    "velocity": 0.2125984251968504,
                    "duration": 0.09347550000001092
                },
                {
                    "name": "C3",
                    "midi": 48,
                    "time": 147.87824099999855,
                    "velocity": 0.2440944881889764,
                    "duration": 0.09269653749998952
                },
                {
                    "name": "G3",
                    "midi": 55,
                    "time": 147.97171649999854,
                    "velocity": 0.1968503937007874,
                    "duration": 0.09347550000001092
                },
                {
                    "name": "C3",
                    "midi": 48,
                    "time": 148.06519199999855,
                    "velocity": 0.2440944881889764,
                    "duration": 0.09269653749998952
                },
                {
                    "name": "G3",
                    "midi": 55,
                    "time": 148.15866749999853,
                    "velocity": 0.2047244094488189,
                    "duration": 0.09347550000001092
                },
                {
                    "name": "C3",
                    "midi": 48,
                    "time": 148.25214299999854,
                    "velocity": 0.2440944881889764,
                    "duration": 0.09269653749998952
                },
                {
                    "name": "G3",
                    "midi": 55,
                    "time": 148.34561849999852,
                    "velocity": 0.2047244094488189,
                    "duration": 0.09347550000001092
                },
                {
                    "name": "C3",
                    "midi": 48,
                    "time": 148.43909399999853,
                    "velocity": 0.2440944881889764,
                    "duration": 0.09269653749998952
                },
                {
                    "name": "G3",
                    "midi": 55,
                    "time": 148.53256949999852,
                    "velocity": 0.2125984251968504,
                    "duration": 0.09347550000001092
                },
                {
                    "name": "C3",
                    "midi": 48,
                    "time": 148.62604499999853,
                    "velocity": 0.2440944881889764,
                    "duration": 0.09269653749998952
                },
                {
                    "name": "G3",
                    "midi": 55,
                    "time": 148.7195204999985,
                    "velocity": 0.2125984251968504,
                    "duration": 0.09347550000001092
                },
                {
                    "name": "C3",
                    "midi": 48,
                    "time": 148.81299599999852,
                    "velocity": 0.2440944881889764,
                    "duration": 0.09269653749998952
                },
                {
                    "name": "G3",
                    "midi": 55,
                    "time": 148.9064714999985,
                    "velocity": 0.2047244094488189,
                    "duration": 0.09347550000001092
                },
                {
                    "name": "C3",
                    "midi": 48,
                    "time": 148.9999469999985,
                    "velocity": 0.2440944881889764,
                    "duration": 0.09269653749998952
                },
                {
                    "name": "G3",
                    "midi": 55,
                    "time": 149.0934224999985,
                    "velocity": 0.2125984251968504,
                    "duration": 0.09347550000001092
                },
                {
                    "name": "C3",
                    "midi": 48,
                    "time": 149.1868979999985,
                    "velocity": 0.2440944881889764,
                    "duration": 0.09269653749998952
                },
                {
                    "name": "A3",
                    "midi": 57,
                    "time": 149.2803734999985,
                    "velocity": 0.2125984251968504,
                    "duration": 0.09347550000001092
                },
                {
                    "name": "C3",
                    "midi": 48,
                    "time": 149.3738489999985,
                    "velocity": 0.2440944881889764,
                    "duration": 0.09269653749998952
                },
                {
                    "name": "A3",
                    "midi": 57,
                    "time": 149.46732449999848,
                    "velocity": 0.1968503937007874,
                    "duration": 0.09347550000001092
                },
                {
                    "name": "B2",
                    "midi": 47,
                    "time": 149.5607999999985,
                    "velocity": 0.2047244094488189,
                    "duration": 0.1402132500000164
                },
                {
                    "name": "D3",
                    "midi": 50,
                    "time": 149.5607999999985,
                    "velocity": 0.2440944881889764,
                    "duration": 0.1402132500000164
                },
                {
                    "name": "G3",
                    "midi": 55,
                    "time": 149.6542754999985,
                    "velocity": 0.1968503937007874,
                    "duration": 0.09347550000001092
                },
                {
                    "name": "B2",
                    "midi": 47,
                    "time": 149.74775099999852,
                    "velocity": 0.2047244094488189,
                    "duration": 0.1402132500000164
                },
                {
                    "name": "D3",
                    "midi": 50,
                    "time": 149.74775099999852,
                    "velocity": 0.2440944881889764,
                    "duration": 0.1402132500000164
                },
                {
                    "name": "G3",
                    "midi": 55,
                    "time": 149.84122649999853,
                    "velocity": 0.1968503937007874,
                    "duration": 0.09347550000001092
                },
                {
                    "name": "B2",
                    "midi": 47,
                    "time": 149.93470199999854,
                    "velocity": 0.2047244094488189,
                    "duration": 0.1402132500000164
                },
                {
                    "name": "D3",
                    "midi": 50,
                    "time": 149.93470199999854,
                    "velocity": 0.2440944881889764,
                    "duration": 0.1402132500000164
                },
                {
                    "name": "G3",
                    "midi": 55,
                    "time": 150.02817749999855,
                    "velocity": 0.1968503937007874,
                    "duration": 0.09347550000001092
                },
                {
                    "name": "B2",
                    "midi": 47,
                    "time": 150.12165299999856,
                    "velocity": 0.2047244094488189,
                    "duration": 0.1402132500000164
                },
                {
                    "name": "D3",
                    "midi": 50,
                    "time": 150.12165299999856,
                    "velocity": 0.2440944881889764,
                    "duration": 0.1402132500000164
                },
                {
                    "name": "G3",
                    "midi": 55,
                    "time": 150.21512849999857,
                    "velocity": 0.1968503937007874,
                    "duration": 0.09347550000001092
                },
                {
                    "name": "B2",
                    "midi": 47,
                    "time": 150.30860399999858,
                    "velocity": 0.2047244094488189,
                    "duration": 0.1402132500000164
                },
                {
                    "name": "D3",
                    "midi": 50,
                    "time": 150.30860399999858,
                    "velocity": 0.2440944881889764,
                    "duration": 0.1402132500000164
                },
                {
                    "name": "G3",
                    "midi": 55,
                    "time": 150.4020794999986,
                    "velocity": 0.1968503937007874,
                    "duration": 0.09347550000001092
                },
                {
                    "name": "B2",
                    "midi": 47,
                    "time": 150.4955549999986,
                    "velocity": 0.2047244094488189,
                    "duration": 0.1402132500000164
                },
                {
                    "name": "D3",
                    "midi": 50,
                    "time": 150.4955549999986,
                    "velocity": 0.2440944881889764,
                    "duration": 0.1402132500000164
                },
                {
                    "name": "G3",
                    "midi": 55,
                    "time": 150.58903049999861,
                    "velocity": 0.1968503937007874,
                    "duration": 0.09347550000001092
                },
                {
                    "name": "B2",
                    "midi": 47,
                    "time": 150.68250599999863,
                    "velocity": 0.2047244094488189,
                    "duration": 0.1402132500000164
                },
                {
                    "name": "D3",
                    "midi": 50,
                    "time": 150.68250599999863,
                    "velocity": 0.2440944881889764,
                    "duration": 0.1402132500000164
                },
                {
                    "name": "G3",
                    "midi": 55,
                    "time": 150.77598149999864,
                    "velocity": 0.1968503937007874,
                    "duration": 0.09347550000001092
                },
                {
                    "name": "B2",
                    "midi": 47,
                    "time": 150.86945699999865,
                    "velocity": 0.2047244094488189,
                    "duration": 0.1402132500000164
                },
                {
                    "name": "D3",
                    "midi": 50,
                    "time": 150.86945699999865,
                    "velocity": 0.2440944881889764,
                    "duration": 0.1402132500000164
                },
                {
                    "name": "G3",
                    "midi": 55,
                    "time": 150.96293249999866,
                    "velocity": 0.1968503937007874,
                    "duration": 0.09347550000001092
                },
                {
                    "name": "B2",
                    "midi": 47,
                    "time": 151.05640799999867,
                    "velocity": 0.2047244094488189,
                    "duration": 0.1402132500000164
                },
                {
                    "name": "D3",
                    "midi": 50,
                    "time": 151.05640799999867,
                    "velocity": 0.2440944881889764,
                    "duration": 0.1402132500000164
                },
                {
                    "name": "G3",
                    "midi": 55,
                    "time": 151.14988349999868,
                    "velocity": 0.1968503937007874,
                    "duration": 0.09347550000001092
                },
                {
                    "name": "B2",
                    "midi": 47,
                    "time": 151.2433589999987,
                    "velocity": 0.2047244094488189,
                    "duration": 0.1402132500000164
                },
                {
                    "name": "D3",
                    "midi": 50,
                    "time": 151.2433589999987,
                    "velocity": 0.2440944881889764,
                    "duration": 0.1402132500000164
                },
                {
                    "name": "G3",
                    "midi": 55,
                    "time": 151.3368344999987,
                    "velocity": 0.1968503937007874,
                    "duration": 0.09347550000001092
                },
                {
                    "name": "B2",
                    "midi": 47,
                    "time": 151.4303099999987,
                    "velocity": 0.2047244094488189,
                    "duration": 0.1402132500000164
                },
                {
                    "name": "D3",
                    "midi": 50,
                    "time": 151.4303099999987,
                    "velocity": 0.2440944881889764,
                    "duration": 0.1402132500000164
                },
                {
                    "name": "G3",
                    "midi": 55,
                    "time": 151.52378549999872,
                    "velocity": 0.1968503937007874,
                    "duration": 0.09347550000001092
                },
                {
                    "name": "B2",
                    "midi": 47,
                    "time": 151.61726099999873,
                    "velocity": 0.2047244094488189,
                    "duration": 0.1402132500000164
                },
                {
                    "name": "D3",
                    "midi": 50,
                    "time": 151.61726099999873,
                    "velocity": 0.2440944881889764,
                    "duration": 0.1402132500000164
                },
                {
                    "name": "G3",
                    "midi": 55,
                    "time": 151.71073649999875,
                    "velocity": 0.1968503937007874,
                    "duration": 0.09347550000001092
                },
                {
                    "name": "B2",
                    "midi": 47,
                    "time": 151.80421199999876,
                    "velocity": 0.2047244094488189,
                    "duration": 0.1402132500000164
                },
                {
                    "name": "D3",
                    "midi": 50,
                    "time": 151.80421199999876,
                    "velocity": 0.2440944881889764,
                    "duration": 0.1402132500000164
                },
                {
                    "name": "G3",
                    "midi": 55,
                    "time": 151.89768749999877,
                    "velocity": 0.1968503937007874,
                    "duration": 0.09347550000001092
                },
                {
                    "name": "B2",
                    "midi": 47,
                    "time": 151.99116299999878,
                    "velocity": 0.2047244094488189,
                    "duration": 0.1402132500000164
                },
                {
                    "name": "D3",
                    "midi": 50,
                    "time": 151.99116299999878,
                    "velocity": 0.2440944881889764,
                    "duration": 0.1402132500000164
                },
                {
                    "name": "G3",
                    "midi": 55,
                    "time": 152.0846384999988,
                    "velocity": 0.1968503937007874,
                    "duration": 0.09347550000001092
                },
                {
                    "name": "B2",
                    "midi": 47,
                    "time": 152.1781139999988,
                    "velocity": 0.2047244094488189,
                    "duration": 0.1402132500000164
                },
                {
                    "name": "D3",
                    "midi": 50,
                    "time": 152.1781139999988,
                    "velocity": 0.2440944881889764,
                    "duration": 0.1402132500000164
                },
                {
                    "name": "G3",
                    "midi": 55,
                    "time": 152.2715894999988,
                    "velocity": 0.1968503937007874,
                    "duration": 0.09347550000001092
                },
                {
                    "name": "B2",
                    "midi": 47,
                    "time": 152.36506499999882,
                    "velocity": 0.2047244094488189,
                    "duration": 0.1402132500000164
                },
                {
                    "name": "D3",
                    "midi": 50,
                    "time": 152.36506499999882,
                    "velocity": 0.2440944881889764,
                    "duration": 0.1402132500000164
                },
                {
                    "name": "G3",
                    "midi": 55,
                    "time": 152.45854049999883,
                    "velocity": 0.1968503937007874,
                    "duration": 0.09347550000001092
                },
                {
                    "name": "D2",
                    "midi": 38,
                    "time": 152.55201599999884,
                    "velocity": 0.25984251968503935,
                    "duration": 1.4956079999999474
                },
                {
                    "name": "D3",
                    "midi": 50,
                    "time": 152.55201599999884,
                    "velocity": 0.25984251968503935,
                    "duration": 0.18695099999999343
                },
                {
                    "name": "D3",
                    "midi": 50,
                    "time": 152.73896699999884,
                    "velocity": 0.2677165354330709,
                    "duration": 0.09269653749998952
                },
                {
                    "name": "A3",
                    "midi": 57,
                    "time": 152.83244249999882,
                    "velocity": 0.2204724409448819,
                    "duration": 0.09347550000001092
                },
                {
                    "name": "D3",
                    "midi": 50,
                    "time": 152.92591799999883,
                    "velocity": 0.2677165354330709,
                    "duration": 0.09269653749998952
                },
                {
                    "name": "A3",
                    "midi": 57,
                    "time": 153.0193934999988,
                    "velocity": 0.2283464566929134,
                    "duration": 0.09347550000001092
                },
                {
                    "name": "D3",
                    "midi": 50,
                    "time": 153.11286899999882,
                    "velocity": 0.2677165354330709,
                    "duration": 0.09269653749998952
                },
                {
                    "name": "A3",
                    "midi": 57,
                    "time": 153.2063444999988,
                    "velocity": 0.2283464566929134,
                    "duration": 0.09347550000001092
                },
                {
                    "name": "D3",
                    "midi": 50,
                    "time": 153.29981999999882,
                    "velocity": 0.2677165354330709,
                    "duration": 0.09269653749998952
                },
                {
                    "name": "A3",
                    "midi": 57,
                    "time": 153.3932954999988,
                    "velocity": 0.2204724409448819,
                    "duration": 0.09347550000001092
                },
                {
                    "name": "D3",
                    "midi": 50,
                    "time": 153.4867709999988,
                    "velocity": 0.2677165354330709,
                    "duration": 0.09269653749998952
                },
                {
                    "name": "A3",
                    "midi": 57,
                    "time": 153.5802464999988,
                    "velocity": 0.2283464566929134,
                    "duration": 0.09347550000001092
                },
                {
                    "name": "D3",
                    "midi": 50,
                    "time": 153.6737219999988,
                    "velocity": 0.2677165354330709,
                    "duration": 0.09269653749998952
                },
                {
                    "name": "A3",
                    "midi": 57,
                    "time": 153.7671974999988,
                    "velocity": 0.23622047244094488,
                    "duration": 0.09347550000001092
                },
                {
                    "name": "D3",
                    "midi": 50,
                    "time": 153.8606729999988,
                    "velocity": 0.2755905511811024,
                    "duration": 0.09269653749998952
                },
                {
                    "name": "A3",
                    "midi": 57,
                    "time": 153.95414849999878,
                    "velocity": 0.2204724409448819,
                    "duration": 0.09347550000001092
                },
                {
                    "name": "D3",
                    "midi": 50,
                    "time": 154.0476239999988,
                    "velocity": 0.2755905511811024,
                    "duration": 0.09269653749998952
                },
                {
                    "name": "A3",
                    "midi": 57,
                    "time": 154.14109949999877,
                    "velocity": 0.2283464566929134,
                    "duration": 0.09347550000001092
                },
                {
                    "name": "D3",
                    "midi": 50,
                    "time": 154.23457499999878,
                    "velocity": 0.2755905511811024,
                    "duration": 0.09269653749998952
                },
                {
                    "name": "A3",
                    "midi": 57,
                    "time": 154.32805049999877,
                    "velocity": 0.2283464566929134,
                    "duration": 0.09347550000001092
                },
                {
                    "name": "D3",
                    "midi": 50,
                    "time": 154.42152599999878,
                    "velocity": 0.2755905511811024,
                    "duration": 0.09269653749998952
                },
                {
                    "name": "A3",
                    "midi": 57,
                    "time": 154.51500149999876,
                    "velocity": 0.23622047244094488,
                    "duration": 0.09347550000001092
                },
                {
                    "name": "D3",
                    "midi": 50,
                    "time": 154.60847699999877,
                    "velocity": 0.2755905511811024,
                    "duration": 0.09269653749998952
                },
                {
                    "name": "A3",
                    "midi": 57,
                    "time": 154.70195249999875,
                    "velocity": 0.23622047244094488,
                    "duration": 0.09347550000001092
                },
                {
                    "name": "D3",
                    "midi": 50,
                    "time": 154.79542799999876,
                    "velocity": 0.28346456692913385,
                    "duration": 0.09269653749998952
                },
                {
                    "name": "A3",
                    "midi": 57,
                    "time": 154.88890349999875,
                    "velocity": 0.2283464566929134,
                    "duration": 0.09347550000001092
                },
                {
                    "name": "D3",
                    "midi": 50,
                    "time": 154.98237899999876,
                    "velocity": 0.28346456692913385,
                    "duration": 0.09269653749998952
                },
                {
                    "name": "A3",
                    "midi": 57,
                    "time": 155.07585449999874,
                    "velocity": 0.2440944881889764,
                    "duration": 0.09347550000001092
                },
                {
                    "name": "D3",
                    "midi": 50,
                    "time": 155.16932999999875,
                    "velocity": 0.28346456692913385,
                    "duration": 0.09269653749998952
                },
                {
                    "name": "B3",
                    "midi": 59,
                    "time": 155.26280549999873,
                    "velocity": 0.2440944881889764,
                    "duration": 0.09347550000001092
                },
                {
                    "name": "D3",
                    "midi": 50,
                    "time": 155.35628099999875,
                    "velocity": 0.28346456692913385,
                    "duration": 0.09269653749998952
                },
                {
                    "name": "B3",
                    "midi": 59,
                    "time": 155.44975649999873,
                    "velocity": 0.2283464566929134,
                    "duration": 0.09347550000001092
                },
                {
                    "name": "C3",
                    "midi": 48,
                    "time": 155.54323199999874,
                    "velocity": 0.23622047244094488,
                    "duration": 0.1402132500000164
                },
                {
                    "name": "E3",
                    "midi": 52,
                    "time": 155.54323199999874,
                    "velocity": 0.29133858267716534,
                    "duration": 0.1402132500000164
                },
                {
                    "name": "A3",
                    "midi": 57,
                    "time": 155.63670749999875,
                    "velocity": 0.2283464566929134,
                    "duration": 0.09347550000001092
                },
                {
                    "name": "C3",
                    "midi": 48,
                    "time": 155.73018299999876,
                    "velocity": 0.23622047244094488,
                    "duration": 0.1402132500000164
                },
                {
                    "name": "E3",
                    "midi": 52,
                    "time": 155.73018299999876,
                    "velocity": 0.29133858267716534,
                    "duration": 0.1402132500000164
                },
                {
                    "name": "A3",
                    "midi": 57,
                    "time": 155.82365849999877,
                    "velocity": 0.2283464566929134,
                    "duration": 0.09347550000001092
                },
                {
                    "name": "C3",
                    "midi": 48,
                    "time": 155.91713399999878,
                    "velocity": 0.23622047244094488,
                    "duration": 0.1402132500000164
                },
                {
                    "name": "E3",
                    "midi": 52,
                    "time": 155.91713399999878,
                    "velocity": 0.29133858267716534,
                    "duration": 0.1402132500000164
                },
                {
                    "name": "A3",
                    "midi": 57,
                    "time": 156.0106094999988,
                    "velocity": 0.2283464566929134,
                    "duration": 0.09347550000001092
                },
                {
                    "name": "C3",
                    "midi": 48,
                    "time": 156.1040849999988,
                    "velocity": 0.23622047244094488,
                    "duration": 0.1402132500000164
                },
                {
                    "name": "E3",
                    "midi": 52,
                    "time": 156.1040849999988,
                    "velocity": 0.29133858267716534,
                    "duration": 0.1402132500000164
                },
                {
                    "name": "A3",
                    "midi": 57,
                    "time": 156.19756049999881,
                    "velocity": 0.2283464566929134,
                    "duration": 0.09347550000001092
                },
                {
                    "name": "C3",
                    "midi": 48,
                    "time": 156.29103599999883,
                    "velocity": 0.23622047244094488,
                    "duration": 0.1402132500000164
                },
                {
                    "name": "E3",
                    "midi": 52,
                    "time": 156.29103599999883,
                    "velocity": 0.29133858267716534,
                    "duration": 0.1402132500000164
                },
                {
                    "name": "A3",
                    "midi": 57,
                    "time": 156.38451149999884,
                    "velocity": 0.2283464566929134,
                    "duration": 0.09347550000001092
                },
                {
                    "name": "C3",
                    "midi": 48,
                    "time": 156.47798699999885,
                    "velocity": 0.23622047244094488,
                    "duration": 0.1402132500000164
                },
                {
                    "name": "E3",
                    "midi": 52,
                    "time": 156.47798699999885,
                    "velocity": 0.29133858267716534,
                    "duration": 0.1402132500000164
                },
                {
                    "name": "A3",
                    "midi": 57,
                    "time": 156.57146249999886,
                    "velocity": 0.2283464566929134,
                    "duration": 0.09347550000001092
                },
                {
                    "name": "C3",
                    "midi": 48,
                    "time": 156.66493799999887,
                    "velocity": 0.23622047244094488,
                    "duration": 0.1402132500000164
                },
                {
                    "name": "E3",
                    "midi": 52,
                    "time": 156.66493799999887,
                    "velocity": 0.29133858267716534,
                    "duration": 0.1402132500000164
                },
                {
                    "name": "A3",
                    "midi": 57,
                    "time": 156.75841349999888,
                    "velocity": 0.2283464566929134,
                    "duration": 0.09347550000001092
                },
                {
                    "name": "C3",
                    "midi": 48,
                    "time": 156.8518889999989,
                    "velocity": 0.23622047244094488,
                    "duration": 0.1402132500000164
                },
                {
                    "name": "E3",
                    "midi": 52,
                    "time": 156.8518889999989,
                    "velocity": 0.29133858267716534,
                    "duration": 0.1402132500000164
                },
                {
                    "name": "A3",
                    "midi": 57,
                    "time": 156.9453644999989,
                    "velocity": 0.2283464566929134,
                    "duration": 0.09347550000001092
                },
                {
                    "name": "C3",
                    "midi": 48,
                    "time": 157.0388399999989,
                    "velocity": 0.23622047244094488,
                    "duration": 0.1402132500000164
                },
                {
                    "name": "E3",
                    "midi": 52,
                    "time": 157.0388399999989,
                    "velocity": 0.29133858267716534,
                    "duration": 0.1402132500000164
                },
                {
                    "name": "A3",
                    "midi": 57,
                    "time": 157.13231549999892,
                    "velocity": 0.2283464566929134,
                    "duration": 0.09347550000001092
                },
                {
                    "name": "C3",
                    "midi": 48,
                    "time": 157.22579099999894,
                    "velocity": 0.23622047244094488,
                    "duration": 0.1402132500000164
                },
                {
                    "name": "E3",
                    "midi": 52,
                    "time": 157.22579099999894,
                    "velocity": 0.29133858267716534,
                    "duration": 0.1402132500000164
                },
                {
                    "name": "A3",
                    "midi": 57,
                    "time": 157.31926649999895,
                    "velocity": 0.2283464566929134,
                    "duration": 0.09347550000001092
                },
                {
                    "name": "C3",
                    "midi": 48,
                    "time": 157.41274199999896,
                    "velocity": 0.23622047244094488,
                    "duration": 0.1402132500000164
                },
                {
                    "name": "E3",
                    "midi": 52,
                    "time": 157.41274199999896,
                    "velocity": 0.29133858267716534,
                    "duration": 0.1402132500000164
                },
                {
                    "name": "A3",
                    "midi": 57,
                    "time": 157.50621749999897,
                    "velocity": 0.2283464566929134,
                    "duration": 0.09347550000001092
                },
                {
                    "name": "C3",
                    "midi": 48,
                    "time": 157.59969299999898,
                    "velocity": 0.23622047244094488,
                    "duration": 0.1402132500000164
                },
                {
                    "name": "E3",
                    "midi": 52,
                    "time": 157.59969299999898,
                    "velocity": 0.30708661417322836,
                    "duration": 0.1402132500000164
                },
                {
                    "name": "A3",
                    "midi": 57,
                    "time": 157.693168499999,
                    "velocity": 0.2440944881889764,
                    "duration": 0.09347550000001092
                },
                {
                    "name": "C3",
                    "midi": 48,
                    "time": 157.786643999999,
                    "velocity": 0.25196850393700787,
                    "duration": 0.1402132500000164
                },
                {
                    "name": "E3",
                    "midi": 52,
                    "time": 157.786643999999,
                    "velocity": 0.30708661417322836,
                    "duration": 0.1402132500000164
                },
                {
                    "name": "A3",
                    "midi": 57,
                    "time": 157.880119499999,
                    "velocity": 0.2440944881889764,
                    "duration": 0.09347550000001092
                },
                {
                    "name": "C3",
                    "midi": 48,
                    "time": 157.97359499999902,
                    "velocity": 0.25196850393700787,
                    "duration": 0.1402132500000164
                },
                {
                    "name": "E3",
                    "midi": 52,
                    "time": 157.97359499999902,
                    "velocity": 0.3228346456692913,
                    "duration": 0.1402132500000164
                },
                {
                    "name": "A3",
                    "midi": 57,
                    "time": 158.06707049999903,
                    "velocity": 0.2440944881889764,
                    "duration": 0.09347550000001092
                },
                {
                    "name": "C3",
                    "midi": 48,
                    "time": 158.16054599999904,
                    "velocity": 0.25984251968503935,
                    "duration": 0.1402132500000164
                },
                {
                    "name": "E3",
                    "midi": 52,
                    "time": 158.16054599999904,
                    "velocity": 0.3228346456692913,
                    "duration": 0.1402132500000164
                },
                {
                    "name": "A3",
                    "midi": 57,
                    "time": 158.25402149999906,
                    "velocity": 0.25984251968503935,
                    "duration": 0.09347550000001092
                },
                {
                    "name": "C3",
                    "midi": 48,
                    "time": 158.34749699999907,
                    "velocity": 0.2755905511811024,
                    "duration": 0.1402132500000164
                },
                {
                    "name": "E3",
                    "midi": 52,
                    "time": 158.34749699999907,
                    "velocity": 0.33070866141732286,
                    "duration": 0.1402132500000164
                },
                {
                    "name": "A3",
                    "midi": 57,
                    "time": 158.44097249999908,
                    "velocity": 0.25984251968503935,
                    "duration": 0.09347550000001092
                },
                {
                    "name": "C3",
                    "midi": 48,
                    "time": 158.5344479999991,
                    "velocity": 0.29133858267716534,
                    "duration": 0.1402132500000164
                },
                {
                    "name": "E3",
                    "midi": 52,
                    "time": 158.5344479999991,
                    "velocity": 0.3543307086614173,
                    "duration": 0.1402132500000164
                },
                {
                    "name": "A#3",
                    "midi": 58,
                    "time": 158.6279234999991,
                    "velocity": 0.28346456692913385,
                    "duration": 0.09347550000001092
                },
                {
                    "name": "C3",
                    "midi": 48,
                    "time": 158.7213989999991,
                    "velocity": 0.2992125984251969,
                    "duration": 0.1402132500000164
                },
                {
                    "name": "E3",
                    "midi": 52,
                    "time": 158.7213989999991,
                    "velocity": 0.3543307086614173,
                    "duration": 0.1402132500000164
                },
                {
                    "name": "A#3",
                    "midi": 58,
                    "time": 158.81487449999912,
                    "velocity": 0.29133858267716534,
                    "duration": 0.09347550000001092
                },
                {
                    "name": "C3",
                    "midi": 48,
                    "time": 158.90834999999913,
                    "velocity": 0.30708661417322836,
                    "duration": 0.1402132500000164
                },
                {
                    "name": "E3",
                    "midi": 52,
                    "time": 158.90834999999913,
                    "velocity": 0.3700787401574803,
                    "duration": 0.1402132500000164
                },
                {
                    "name": "A#3",
                    "midi": 58,
                    "time": 159.00182549999914,
                    "velocity": 0.2992125984251969,
                    "duration": 0.09347550000001092
                },
                {
                    "name": "C3",
                    "midi": 48,
                    "time": 159.09530099999915,
                    "velocity": 0.30708661417322836,
                    "duration": 0.1402132500000164
                },
                {
                    "name": "E3",
                    "midi": 52,
                    "time": 159.09530099999915,
                    "velocity": 0.3700787401574803,
                    "duration": 0.1402132500000164
                },
                {
                    "name": "A#3",
                    "midi": 58,
                    "time": 159.18877649999916,
                    "velocity": 0.2992125984251969,
                    "duration": 0.09347550000001092
                },
                {
                    "name": "C3",
                    "midi": 48,
                    "time": 159.28225199999918,
                    "velocity": 0.3228346456692913,
                    "duration": 0.1402132500000164
                },
                {
                    "name": "E3",
                    "midi": 52,
                    "time": 159.28225199999918,
                    "velocity": 0.3937007874015748,
                    "duration": 0.1402132500000164
                },
                {
                    "name": "A#3",
                    "midi": 58,
                    "time": 159.3757274999992,
                    "velocity": 0.31496062992125984,
                    "duration": 0.09347550000001092
                },
                {
                    "name": "C3",
                    "midi": 48,
                    "time": 159.4692029999992,
                    "velocity": 0.3228346456692913,
                    "duration": 0.1402132500000164
                },
                {
                    "name": "E3",
                    "midi": 52,
                    "time": 159.4692029999992,
                    "velocity": 0.4015748031496063,
                    "duration": 0.1402132500000164
                },
                {
                    "name": "A#3",
                    "midi": 58,
                    "time": 159.5626784999992,
                    "velocity": 0.31496062992125984,
                    "duration": 0.09347550000001092
                },
                {
                    "name": "C3",
                    "midi": 48,
                    "time": 159.65615399999922,
                    "velocity": 0.33070866141732286,
                    "duration": 0.1402132500000164
                },
                {
                    "name": "E3",
                    "midi": 52,
                    "time": 159.65615399999922,
                    "velocity": 0.4015748031496063,
                    "duration": 0.1402132500000164
                },
                {
                    "name": "A#3",
                    "midi": 58,
                    "time": 159.74962949999923,
                    "velocity": 0.33070866141732286,
                    "duration": 0.09347550000001092
                },
                {
                    "name": "C3",
                    "midi": 48,
                    "time": 159.84310499999924,
                    "velocity": 0.33858267716535434,
                    "duration": 0.1402132500000164
                },
                {
                    "name": "E3",
                    "midi": 52,
                    "time": 159.84310499999924,
                    "velocity": 0.41732283464566927,
                    "duration": 0.1402132500000164
                },
                {
                    "name": "A#3",
                    "midi": 58,
                    "time": 159.93658049999925,
                    "velocity": 0.33070866141732286,
                    "duration": 0.09347550000001092
                },
                {
                    "name": "B2",
                    "midi": 47,
                    "time": 160.03005599999926,
                    "velocity": 0.31496062992125984,
                    "duration": 0.10905475000001275
                },
                {
                    "name": "D#3",
                    "midi": 51,
                    "time": 160.12353149999927,
                    "velocity": 0.2755905511811024,
                    "duration": 0.10905475000001275
                },
                {
                    "name": "F#3",
                    "midi": 54,
                    "time": 160.21700699999928,
                    "velocity": 0.2755905511811024,
                    "duration": 0.10905475000001275
                },
                {
                    "name": "B3",
                    "midi": 59,
                    "time": 160.3104824999993,
                    "velocity": 0.2755905511811024,
                    "duration": 0.09347550000001092
                },
                {
                    "name": "B2",
                    "midi": 47,
                    "time": 160.4039579999993,
                    "velocity": 0.3228346456692913,
                    "duration": 0.10905475000001275
                },
                {
                    "name": "D#3",
                    "midi": 51,
                    "time": 160.49743349999932,
                    "velocity": 0.2755905511811024,
                    "duration": 0.10905475000001275
                },
                {
                    "name": "F#3",
                    "midi": 54,
                    "time": 160.59090899999933,
                    "velocity": 0.2755905511811024,
                    "duration": 0.10905475000001275
                },
                {
                    "name": "B3",
                    "midi": 59,
                    "time": 160.68438449999934,
                    "velocity": 0.2755905511811024,
                    "duration": 0.09347550000001092
                },
                {
                    "name": "B2",
                    "midi": 47,
                    "time": 160.77785999999935,
                    "velocity": 0.30708661417322836,
                    "duration": 0.10905475000001275
                },
                {
                    "name": "E3",
                    "midi": 52,
                    "time": 160.87133549999936,
                    "velocity": 0.2755905511811024,
                    "duration": 0.10905475000001275
                },
                {
                    "name": "G3",
                    "midi": 55,
                    "time": 160.96481099999937,
                    "velocity": 0.2755905511811024,
                    "duration": 0.10905475000001275
                },
                {
                    "name": "B3",
                    "midi": 59,
                    "time": 161.05828649999938,
                    "velocity": 0.2755905511811024,
                    "duration": 0.09347550000001092
                },
                {
                    "name": "B2",
                    "midi": 47,
                    "time": 161.1517619999994,
                    "velocity": 0.31496062992125984,
                    "duration": 0.10905475000001275
                },
                {
                    "name": "E3",
                    "midi": 52,
                    "time": 161.2452374999994,
                    "velocity": 0.2755905511811024,
                    "duration": 0.10905475000001275
                },
                {
                    "name": "G3",
                    "midi": 55,
                    "time": 161.33871299999942,
                    "velocity": 0.2755905511811024,
                    "duration": 0.10905475000001275
                },
                {
                    "name": "B3",
                    "midi": 59,
                    "time": 161.43218849999943,
                    "velocity": 0.2755905511811024,
                    "duration": 0.09347550000001092
                },
                {
                    "name": "B2",
                    "midi": 47,
                    "time": 161.52566399999944,
                    "velocity": 0.31496062992125984,
                    "duration": 0.10905475000001275
                },
                {
                    "name": "F#3",
                    "midi": 54,
                    "time": 161.61913949999945,
                    "velocity": 0.2755905511811024,
                    "duration": 0.10905475000001275
                },
                {
                    "name": "A3",
                    "midi": 57,
                    "time": 161.71261499999946,
                    "velocity": 0.2755905511811024,
                    "duration": 0.10905475000001275
                },
                {
                    "name": "B3",
                    "midi": 59,
                    "time": 161.80609049999947,
                    "velocity": 0.2755905511811024,
                    "duration": 0.09347550000001092
                },
                {
                    "name": "B2",
                    "midi": 47,
                    "time": 161.89956599999948,
                    "velocity": 0.31496062992125984,
                    "duration": 0.10905475000001275
                },
                {
                    "name": "F#3",
                    "midi": 54,
                    "time": 161.9930414999995,
                    "velocity": 0.2755905511811024,
                    "duration": 0.10905475000001275
                },
                {
                    "name": "A3",
                    "midi": 57,
                    "time": 162.0865169999995,
                    "velocity": 0.2755905511811024,
                    "duration": 0.10905475000001275
                },
                {
                    "name": "B3",
                    "midi": 59,
                    "time": 162.1799924999995,
                    "velocity": 0.2755905511811024,
                    "duration": 0.09347550000001092
                },
                {
                    "name": "B2",
                    "midi": 47,
                    "time": 162.27346799999953,
                    "velocity": 0.31496062992125984,
                    "duration": 0.10905475000001275
                },
                {
                    "name": "E3",
                    "midi": 52,
                    "time": 162.36694349999954,
                    "velocity": 0.2755905511811024,
                    "duration": 0.10905475000001275
                },
                {
                    "name": "G3",
                    "midi": 55,
                    "time": 162.46041899999955,
                    "velocity": 0.2755905511811024,
                    "duration": 0.10905475000001275
                },
                {
                    "name": "B3",
                    "midi": 59,
                    "time": 162.55389449999956,
                    "velocity": 0.2755905511811024,
                    "duration": 0.09347550000001092
                },
                {
                    "name": "B2",
                    "midi": 47,
                    "time": 162.64736999999957,
                    "velocity": 0.31496062992125984,
                    "duration": 0.10905475000001275
                },
                {
                    "name": "E3",
                    "midi": 52,
                    "time": 162.74084549999958,
                    "velocity": 0.2755905511811024,
                    "duration": 0.10905475000001275
                },
                {
                    "name": "G3",
                    "midi": 55,
                    "time": 162.8343209999996,
                    "velocity": 0.2755905511811024,
                    "duration": 0.10905475000001275
                },
                {
                    "name": "B3",
                    "midi": 59,
                    "time": 162.9277964999996,
                    "velocity": 0.2755905511811024,
                    "duration": 0.09347550000001092
                },
                {
                    "name": "B2",
                    "midi": 47,
                    "time": 163.0212719999996,
                    "velocity": 0.31496062992125984,
                    "duration": 0.10905475000001275
                },
                {
                    "name": "D#3",
                    "midi": 51,
                    "time": 163.11474749999962,
                    "velocity": 0.2755905511811024,
                    "duration": 0.10905475000001275
                },
                {
                    "name": "F#3",
                    "midi": 54,
                    "time": 163.20822299999963,
                    "velocity": 0.2755905511811024,
                    "duration": 0.10905475000001275
                },
                {
                    "name": "B3",
                    "midi": 59,
                    "time": 163.30169849999965,
                    "velocity": 0.2755905511811024,
                    "duration": 0.09347550000001092
                },
                {
                    "name": "B2",
                    "midi": 47,
                    "time": 163.39517399999966,
                    "velocity": 0.31496062992125984,
                    "duration": 0.10905475000001275
                },
                {
                    "name": "D#3",
                    "midi": 51,
                    "time": 163.48864949999967,
                    "velocity": 0.2755905511811024,
                    "duration": 0.10905475000001275
                },
                {
                    "name": "F#3",
                    "midi": 54,
                    "time": 163.58212499999968,
                    "velocity": 0.2755905511811024,
                    "duration": 0.10905475000001275
                },
                {
                    "name": "B3",
                    "midi": 59,
                    "time": 163.6756004999997,
                    "velocity": 0.2755905511811024,
                    "duration": 0.09347550000001092
                },
                {
                    "name": "B2",
                    "midi": 47,
                    "time": 163.7690759999997,
                    "velocity": 0.31496062992125984,
                    "duration": 0.10905475000001275
                },
                {
                    "name": "E3",
                    "midi": 52,
                    "time": 163.8625514999997,
                    "velocity": 0.2755905511811024,
                    "duration": 0.10905475000001275
                },
                {
                    "name": "G3",
                    "midi": 55,
                    "time": 163.95602699999972,
                    "velocity": 0.2755905511811024,
                    "duration": 0.10905475000001275
                },
                {
                    "name": "B3",
                    "midi": 59,
                    "time": 164.04950249999973,
                    "velocity": 0.2755905511811024,
                    "duration": 0.09347550000001092
                },
                {
                    "name": "B2",
                    "midi": 47,
                    "time": 164.14297799999974,
                    "velocity": 0.3228346456692913,
                    "duration": 0.10905475000001275
                },
                {
                    "name": "E3",
                    "midi": 52,
                    "time": 164.23645349999975,
                    "velocity": 0.2755905511811024,
                    "duration": 0.10905475000001275
                },
                {
                    "name": "G3",
                    "midi": 55,
                    "time": 164.32992899999977,
                    "velocity": 0.2755905511811024,
                    "duration": 0.10905475000001275
                },
                {
                    "name": "B3",
                    "midi": 59,
                    "time": 164.42340449999978,
                    "velocity": 0.2755905511811024,
                    "duration": 0.09347550000001092
                },
                {
                    "name": "B2",
                    "midi": 47,
                    "time": 164.5168799999998,
                    "velocity": 0.31496062992125984,
                    "duration": 0.10905475000001275
                },
                {
                    "name": "F#3",
                    "midi": 54,
                    "time": 164.6103554999998,
                    "velocity": 0.2755905511811024,
                    "duration": 0.10905475000001275
                },
                {
                    "name": "A3",
                    "midi": 57,
                    "time": 164.7038309999998,
                    "velocity": 0.2755905511811024,
                    "duration": 0.10905475000001275
                },
                {
                    "name": "B3",
                    "midi": 59,
                    "time": 164.79730649999982,
                    "velocity": 0.2755905511811024,
                    "duration": 0.09347550000001092
                },
                {
                    "name": "B2",
                    "midi": 47,
                    "time": 164.89078199999983,
                    "velocity": 0.31496062992125984,
                    "duration": 0.10905475000001275
                },
                {
                    "name": "F#3",
                    "midi": 54,
                    "time": 164.98425749999984,
                    "velocity": 0.28346456692913385,
                    "duration": 0.10905475000001275
                },
                {
                    "name": "A3",
                    "midi": 57,
                    "time": 165.07773299999985,
                    "velocity": 0.28346456692913385,
                    "duration": 0.10905475000001275
                },
                {
                    "name": "B3",
                    "midi": 59,
                    "time": 165.17120849999986,
                    "velocity": 0.28346456692913385,
                    "duration": 0.09347550000001092
                },
                {
                    "name": "B2",
                    "midi": 47,
                    "time": 165.26468399999987,
                    "velocity": 0.33070866141732286,
                    "duration": 0.10905475000001275
                },
                {
                    "name": "E3",
                    "midi": 52,
                    "time": 165.35815949999989,
                    "velocity": 0.28346456692913385,
                    "duration": 0.10905475000001275
                },
                {
                    "name": "G3",
                    "midi": 55,
                    "time": 165.4516349999999,
                    "velocity": 0.29133858267716534,
                    "duration": 0.10905475000001275
                },
                {
                    "name": "B3",
                    "midi": 59,
                    "time": 165.5451104999999,
                    "velocity": 0.29133858267716534,
                    "duration": 0.09347550000001092
                },
                {
                    "name": "B2",
                    "midi": 47,
                    "time": 165.63858599999992,
                    "velocity": 0.33070866141732286,
                    "duration": 0.10905475000001275
                },
                {
                    "name": "E3",
                    "midi": 52,
                    "time": 165.73206149999993,
                    "velocity": 0.29133858267716534,
                    "duration": 0.10905475000001275
                },
                {
                    "name": "G3",
                    "midi": 55,
                    "time": 165.82553699999994,
                    "velocity": 0.29133858267716534,
                    "duration": 0.10905475000001275
                },
                {
                    "name": "B3",
                    "midi": 59,
                    "time": 165.91901249999995,
                    "velocity": 0.2992125984251969,
                    "duration": 0.09347550000001092
                },
                {
                    "name": "B2",
                    "midi": 47,
                    "time": 166.01248799999996,
                    "velocity": 0.3464566929133858,
                    "duration": 0.09347550000001092
                },
                {
                    "name": "D#3",
                    "midi": 51,
                    "time": 166.10596349999997,
                    "velocity": 0.2992125984251969,
                    "duration": 0.09347550000001092
                },
                {
                    "name": "F3",
                    "midi": 53,
                    "time": 166.19943899999998,
                    "velocity": 0.2992125984251969,
                    "duration": 0.09347550000001092
                },
                {
                    "name": "B3",
                    "midi": 59,
                    "time": 166.2929145,
                    "velocity": 0.2992125984251969,
                    "duration": 0.09347550000001092
                },
                {
                    "name": "A#3",
                    "midi": 58,
                    "time": 166.38639,
                    "velocity": 0.3937007874015748,
                    "duration": 0.09347550000001092
                },
                {
                    "name": "B3",
                    "midi": 59,
                    "time": 166.47986550000002,
                    "velocity": 0.3228346456692913,
                    "duration": 0.09347550000001092
                },
                {
                    "name": "G3",
                    "midi": 55,
                    "time": 166.57334100000003,
                    "velocity": 0.31496062992125984,
                    "duration": 0.09347550000001092
                },
                {
                    "name": "E3",
                    "midi": 52,
                    "time": 166.66681650000004,
                    "velocity": 0.3228346456692913,
                    "duration": 0.09347550000001092
                },
                {
                    "name": "B2",
                    "midi": 47,
                    "time": 166.76029200000005,
                    "velocity": 0.4094488188976378,
                    "duration": 0.09347550000001092
                },
                {
                    "name": "D#3",
                    "midi": 51,
                    "time": 166.85376750000006,
                    "velocity": 0.3464566929133858,
                    "duration": 0.09347550000001092
                },
                {
                    "name": "F#3",
                    "midi": 54,
                    "time": 166.94724300000007,
                    "velocity": 0.3543307086614173,
                    "duration": 0.09347550000001092
                },
                {
                    "name": "B3",
                    "midi": 59,
                    "time": 167.04071850000008,
                    "velocity": 0.3543307086614173,
                    "duration": 0.09347550000001092
                },
                {
                    "name": "A#3",
                    "midi": 58,
                    "time": 167.1341940000001,
                    "velocity": 0.47244094488188976,
                    "duration": 0.09347550000001092
                },
                {
                    "name": "B3",
                    "midi": 59,
                    "time": 167.2276695000001,
                    "velocity": 0.4015748031496063,
                    "duration": 0.09347550000001092
                },
                {
                    "name": "G3",
                    "midi": 55,
                    "time": 167.32114500000012,
                    "velocity": 0.4015748031496063,
                    "duration": 0.09347550000001092
                },
                {
                    "name": "E3",
                    "midi": 52,
                    "time": 167.41462050000013,
                    "velocity": 0.4094488188976378,
                    "duration": 0.09347550000001092
                },
                {
                    "name": "B2",
                    "midi": 47,
                    "time": 167.50809600000014,
                    "velocity": 0.49606299212598426,
                    "duration": 0.09347550000001092
                },
                {
                    "name": "D#3",
                    "midi": 51,
                    "time": 167.60157150000015,
                    "velocity": 0.4094488188976378,
                    "duration": 0.09347550000001092
                },
                {
                    "name": "F#3",
                    "midi": 54,
                    "time": 167.69504700000016,
                    "velocity": 0.4094488188976378,
                    "duration": 0.09347550000001092
                },
                {
                    "name": "B3",
                    "midi": 59,
                    "time": 167.78852250000017,
                    "velocity": 0.4094488188976378,
                    "duration": 0.09347550000001092
                },
                {
                    "name": "B2",
                    "midi": 47,
                    "time": 167.88199800000018,
                    "velocity": 0.49606299212598426,
                    "duration": 0.09347550000001092
                },
                {
                    "name": "E3",
                    "midi": 52,
                    "time": 167.9754735000002,
                    "velocity": 0.4094488188976378,
                    "duration": 0.09347550000001092
                },
                {
                    "name": "G3",
                    "midi": 55,
                    "time": 168.0689490000002,
                    "velocity": 0.4094488188976378,
                    "duration": 0.09347550000001092
                },
                {
                    "name": "B3",
                    "midi": 59,
                    "time": 168.1624245000002,
                    "velocity": 0.4094488188976378,
                    "duration": 0.09347550000001092
                },
                {
                    "name": "B2",
                    "midi": 47,
                    "time": 168.25590000000022,
                    "velocity": 0.49606299212598426,
                    "duration": 0.09347550000001092
                },
                {
                    "name": "D#3",
                    "midi": 51,
                    "time": 168.34937550000024,
                    "velocity": 0.4094488188976378,
                    "duration": 0.09347550000001092
                },
                {
                    "name": "F#3",
                    "midi": 54,
                    "time": 168.44285100000025,
                    "velocity": 0.4094488188976378,
                    "duration": 0.09347550000001092
                },
                {
                    "name": "B3",
                    "midi": 59,
                    "time": 168.53632650000026,
                    "velocity": 0.4094488188976378,
                    "duration": 0.09347550000001092
                },
                {
                    "name": "B2",
                    "midi": 47,
                    "time": 168.62980200000027,
                    "velocity": 0.49606299212598426,
                    "duration": 0.09347550000001092
                },
                {
                    "name": "E3",
                    "midi": 52,
                    "time": 168.72327750000028,
                    "velocity": 0.4094488188976378,
                    "duration": 0.09347550000001092
                },
                {
                    "name": "G3",
                    "midi": 55,
                    "time": 168.8167530000003,
                    "velocity": 0.4094488188976378,
                    "duration": 0.09347550000001092
                },
                {
                    "name": "B3",
                    "midi": 59,
                    "time": 168.9102285000003,
                    "velocity": 0.4094488188976378,
                    "duration": 0.09347550000001092
                },
                {
                    "name": "B2",
                    "midi": 47,
                    "time": 169.0037040000003,
                    "velocity": 0.4251968503937008,
                    "duration": 0.37390199999998686
                },
                {
                    "name": "D#3",
                    "midi": 51,
                    "time": 169.0037040000003,
                    "velocity": 0.4251968503937008,
                    "duration": 0.37390199999998686
                },
                {
                    "name": "F#3",
                    "midi": 54,
                    "time": 169.0037040000003,
                    "velocity": 0.4251968503937008,
                    "duration": 0.37390199999998686
                },
                {
                    "name": "B3",
                    "midi": 59,
                    "time": 169.0037040000003,
                    "velocity": 0.49606299212598426,
                    "duration": 0.37390199999998686
                },
                {
                    "name": "B1",
                    "midi": 35,
                    "time": 171.6210180000003,
                    "velocity": 0.6692913385826772,
                    "duration": 0.09347550000001092
                },
                {
                    "name": "D#2",
                    "midi": 39,
                    "time": 171.71449350000032,
                    "velocity": 0.5984251968503937,
                    "duration": 0.09347550000001092
                },
                {
                    "name": "F#2",
                    "midi": 42,
                    "time": 171.80796900000033,
                    "velocity": 0.5984251968503937,
                    "duration": 0.09347550000001092
                },
                {
                    "name": "B2",
                    "midi": 47,
                    "time": 171.90144450000034,
                    "velocity": 0.5905511811023622,
                    "duration": 0.09347550000001092
                },
                {
                    "name": "B1",
                    "midi": 35,
                    "time": 171.99492000000035,
                    "velocity": 0.6062992125984252,
                    "duration": 0.09347550000001092
                },
                {
                    "name": "B2",
                    "midi": 47,
                    "time": 172.18187100000037,
                    "velocity": 0.5354330708661418,
                    "duration": 0.09347550000001092
                },
                {
                    "name": "C#2",
                    "midi": 37,
                    "time": 172.3688220000004,
                    "velocity": 0.5748031496062992,
                    "duration": 0.09347550000001092
                },
                {
                    "name": "C#3",
                    "midi": 49,
                    "time": 172.5557730000004,
                    "velocity": 0.5196850393700787,
                    "duration": 0.09347550000001092
                },
                {
                    "name": "D#2",
                    "midi": 39,
                    "time": 172.74272400000044,
                    "velocity": 0.5590551181102362,
                    "duration": 0.09347550000001092
                },
                {
                    "name": "D#3",
                    "midi": 51,
                    "time": 172.92967500000046,
                    "velocity": 0.5118110236220472,
                    "duration": 0.09347550000001092
                },
                {
                    "name": "D#2",
                    "midi": 39,
                    "time": 173.49052800000047,
                    "velocity": 0.5433070866141733,
                    "duration": 0.09347550000001092
                },
                {
                    "name": "D#3",
                    "midi": 51,
                    "time": 173.6774790000005,
                    "velocity": 0.48031496062992124,
                    "duration": 0.09347550000001092
                },
                {
                    "name": "E2",
                    "midi": 40,
                    "time": 173.8644300000005,
                    "velocity": 0.5118110236220472,
                    "duration": 0.09347550000001092
                },
                {
                    "name": "E3",
                    "midi": 52,
                    "time": 174.05138100000053,
                    "velocity": 0.4645669291338583,
                    "duration": 0.09347550000001092
                },
                {
                    "name": "F#2",
                    "midi": 42,
                    "time": 174.23833200000055,
                    "velocity": 0.5118110236220472,
                    "duration": 0.09347550000001092
                },
                {
                    "name": "F#3",
                    "midi": 54,
                    "time": 174.42528300000058,
                    "velocity": 0.4251968503937008,
                    "duration": 0.09347550000001092
                },
                {
                    "name": "F#2",
                    "midi": 42,
                    "time": 175.7339400000006,
                    "velocity": 0.3228346456692913,
                    "duration": 0.09347550000001092
                },
                {
                    "name": "F#3",
                    "midi": 54,
                    "time": 175.9208910000006,
                    "velocity": 0.28346456692913385,
                    "duration": 0.09347550000001092
                },
                {
                    "name": "G#2",
                    "midi": 44,
                    "time": 176.10784200000063,
                    "velocity": 0.3228346456692913,
                    "duration": 0.09347550000001092
                },
                {
                    "name": "G#3",
                    "midi": 56,
                    "time": 176.29479300000065,
                    "velocity": 0.28346456692913385,
                    "duration": 0.09347550000001092
                },
                {
                    "name": "A2",
                    "midi": 45,
                    "time": 176.48174400000067,
                    "velocity": 0.31496062992125984,
                    "duration": 0.09347550000001092
                },
                {
                    "name": "A3",
                    "midi": 57,
                    "time": 176.6686950000007,
                    "velocity": 0.29133858267716534,
                    "duration": 0.09347550000001092
                },
                {
                    "name": "B2",
                    "midi": 47,
                    "time": 176.85564600000072,
                    "velocity": 0.30708661417322836,
                    "duration": 0.09347550000001092
                },
                {
                    "name": "B3",
                    "midi": 59,
                    "time": 177.04259700000074,
                    "velocity": 0.28346456692913385,
                    "duration": 0.09347550000001092
                },
                {
                    "name": "C#3",
                    "midi": 49,
                    "time": 177.22954800000076,
                    "velocity": 0.2992125984251969,
                    "duration": 0.09347550000001092
                },
                {
                    "name": "C#4",
                    "midi": 61,
                    "time": 177.41649900000078,
                    "velocity": 0.29133858267716534,
                    "duration": 0.09347550000001092
                },
                {
                    "name": "D#3",
                    "midi": 51,
                    "time": 177.6034500000008,
                    "velocity": 0.31496062992125984,
                    "duration": 0.09347550000001092
                },
                {
                    "name": "D#4",
                    "midi": 63,
                    "time": 177.79040100000083,
                    "velocity": 0.29133858267716534,
                    "duration": 0.09347550000001092
                },
                {
                    "name": "G#4",
                    "midi": 68,
                    "time": 177.97735200000085,
                    "velocity": 0.30708661417322836,
                    "duration": 0.7478040000000021
                },
                {
                    "name": "E4",
                    "midi": 64,
                    "time": 177.97735200000085,
                    "velocity": 0.25984251968503935,
                    "duration": 0.7478040000000021
                },
                {
                    "name": "F#4",
                    "midi": 66,
                    "time": 178.72515600000085,
                    "velocity": 0.2755905511811024,
                    "duration": 0.37390199999998686
                },
                {
                    "name": "D#4",
                    "midi": 63,
                    "time": 178.72515600000085,
                    "velocity": 0.2283464566929134,
                    "duration": 0.37390199999998686
                },
                {
                    "name": "B3",
                    "midi": 59,
                    "time": 178.72515600000085,
                    "velocity": 0.2283464566929134,
                    "duration": 0.37390199999998686
                },
                {
                    "name": "E4",
                    "midi": 64,
                    "time": 179.09905800000084,
                    "velocity": 0.2755905511811024,
                    "duration": 0.37390199999998686
                },
                {
                    "name": "C#4",
                    "midi": 61,
                    "time": 179.09905800000084,
                    "velocity": 0.2283464566929134,
                    "duration": 0.37390199999998686
                },
                {
                    "name": "D#4",
                    "midi": 63,
                    "time": 179.47296000000082,
                    "velocity": 0.30708661417322836,
                    "duration": 0.7478040000000021
                },
                {
                    "name": "C4",
                    "midi": 60,
                    "time": 179.47296000000082,
                    "velocity": 0.25984251968503935,
                    "duration": 0.7478040000000021
                },
                {
                    "name": "G#3",
                    "midi": 56,
                    "time": 179.47296000000082,
                    "velocity": 0.25984251968503935,
                    "duration": 0.7478040000000021
                },
                {
                    "name": "C#4",
                    "midi": 61,
                    "time": 180.22076400000083,
                    "velocity": 0.2677165354330709,
                    "duration": 0.7478040000000021
                },
                {
                    "name": "A3",
                    "midi": 57,
                    "time": 180.22076400000083,
                    "velocity": 0.2204724409448819,
                    "duration": 0.7478040000000021
                },
                {
                    "name": "F#3",
                    "midi": 54,
                    "time": 180.96856800000083,
                    "velocity": 0.29133858267716534,
                    "duration": 0.7478040000000021
                },
                {
                    "name": "A3",
                    "midi": 57,
                    "time": 180.96856800000083,
                    "velocity": 0.3543307086614173,
                    "duration": 0.7478040000000021
                },
                {
                    "name": "B3",
                    "midi": 59,
                    "time": 180.96856800000083,
                    "velocity": 0.29133858267716534,
                    "duration": 0.7478040000000021
                },
                {
                    "name": "D#4",
                    "midi": 63,
                    "time": 180.96856800000083,
                    "velocity": 0.3543307086614173,
                    "duration": 0.7478040000000021
                },
                {
                    "name": "G#3",
                    "midi": 56,
                    "time": 181.71637200000083,
                    "velocity": 0.31496062992125984,
                    "duration": 0.37390199999998686
                },
                {
                    "name": "B3",
                    "midi": 59,
                    "time": 181.71637200000083,
                    "velocity": 0.31496062992125984,
                    "duration": 0.37390199999998686
                },
                {
                    "name": "E4",
                    "midi": 64,
                    "time": 181.71637200000083,
                    "velocity": 0.3858267716535433,
                    "duration": 0.37390199999998686
                },
                {
                    "name": "F#4",
                    "midi": 66,
                    "time": 182.09027400000082,
                    "velocity": 0.4330708661417323,
                    "duration": 0.37390199999998686
                },
                {
                    "name": "A3",
                    "midi": 57,
                    "time": 182.09027400000082,
                    "velocity": 0.33070866141732286,
                    "duration": 0.37390199999998686
                },
                {
                    "name": "C#4",
                    "midi": 61,
                    "time": 182.09027400000082,
                    "velocity": 0.33858267716535434,
                    "duration": 0.37390199999998686
                },
                {
                    "name": "B3",
                    "midi": 59,
                    "time": 182.4641760000008,
                    "velocity": 0.3858267716535433,
                    "duration": 1.4940500749999899
                },
                {
                    "name": "E4",
                    "midi": 64,
                    "time": 182.4641760000008,
                    "velocity": 0.3858267716535433,
                    "duration": 0.7478040000000021
                },
                {
                    "name": "G#4",
                    "midi": 68,
                    "time": 182.4641760000008,
                    "velocity": 0.4645669291338583,
                    "duration": 0.7478040000000021
                },
                {
                    "name": "D#4",
                    "midi": 63,
                    "time": 183.2119800000008,
                    "velocity": 0.2125984251968504,
                    "duration": 0.7478039999999737
                },
                {
                    "name": "F#4",
                    "midi": 66,
                    "time": 183.2119800000008,
                    "velocity": 0.25196850393700787,
                    "duration": 0.7478039999999737
                },
                {
                    "name": "G#3",
                    "midi": 56,
                    "time": 183.95978400000078,
                    "velocity": 0.2755905511811024,
                    "duration": 0.7478040000000021
                },
                {
                    "name": "E3",
                    "midi": 52,
                    "time": 183.95978400000078,
                    "velocity": 0.2283464566929134,
                    "duration": 0.7478040000000021
                },
                {
                    "name": "F#3",
                    "midi": 54,
                    "time": 184.70758800000078,
                    "velocity": 0.2440944881889764,
                    "duration": 0.37390199999998686
                },
                {
                    "name": "D#3",
                    "midi": 51,
                    "time": 184.70758800000078,
                    "velocity": 0.2047244094488189,
                    "duration": 0.37390199999998686
                },
                {
                    "name": "B2",
                    "midi": 47,
                    "time": 184.70758800000078,
                    "velocity": 0.2047244094488189,
                    "duration": 0.37390199999998686
                },
                {
                    "name": "E3",
                    "midi": 52,
                    "time": 185.08149000000077,
                    "velocity": 0.2440944881889764,
                    "duration": 0.37390199999998686
                },
                {
                    "name": "C#3",
                    "midi": 49,
                    "time": 185.08149000000077,
                    "velocity": 0.2047244094488189,
                    "duration": 0.37390199999998686
                },
                {
                    "name": "D#3",
                    "midi": 51,
                    "time": 185.45539200000076,
                    "velocity": 0.2755905511811024,
                    "duration": 0.7478040000000021
                },
                {
                    "name": "C3",
                    "midi": 48,
                    "time": 185.45539200000076,
                    "velocity": 0.2283464566929134,
                    "duration": 0.7478040000000021
                },
                {
                    "name": "G#2",
                    "midi": 44,
                    "time": 185.45539200000076,
                    "velocity": 0.2283464566929134,
                    "duration": 0.7478040000000021
                },
                {
                    "name": "C#3",
                    "midi": 49,
                    "time": 186.20319600000076,
                    "velocity": 0.23622047244094488,
                    "duration": 0.7478040000000021
                },
                {
                    "name": "A2",
                    "midi": 45,
                    "time": 186.20319600000076,
                    "velocity": 0.1968503937007874,
                    "duration": 0.7478040000000021
                },
                {
                    "name": "B1",
                    "midi": 35,
                    "time": 186.95100000000076,
                    "velocity": 0.25984251968503935,
                    "duration": 1.4956080000000043
                },
                {
                    "name": "B2",
                    "midi": 47,
                    "time": 186.95100000000076,
                    "velocity": 0.31496062992125984,
                    "duration": 1.4956080000000043
                },
                {
                    "name": "E2",
                    "midi": 40,
                    "time": 188.44660800000077,
                    "velocity": 0.33070866141732286,
                    "duration": 0.37390199999998686
                },
                {
                    "name": "E3",
                    "midi": 52,
                    "time": 188.44660800000077,
                    "velocity": 0.3543307086614173,
                    "duration": 0.37390199999998686
                },
                {
                    "name": "G#4",
                    "midi": 68,
                    "time": 189.94221600000074,
                    "velocity": 0.33858267716535434,
                    "duration": 0.7478040000000021
                },
                {
                    "name": "E4",
                    "midi": 64,
                    "time": 189.94221600000074,
                    "velocity": 0.28346456692913385,
                    "duration": 0.7478040000000021
                },
                {
                    "name": "F#4",
                    "midi": 66,
                    "time": 190.69002000000074,
                    "velocity": 0.30708661417322836,
                    "duration": 0.37390199999998686
                },
                {
                    "name": "D#4",
                    "midi": 63,
                    "time": 190.69002000000074,
                    "velocity": 0.25196850393700787,
                    "duration": 0.37390199999998686
                },
                {
                    "name": "B3",
                    "midi": 59,
                    "time": 190.69002000000074,
                    "velocity": 0.25196850393700787,
                    "duration": 0.37390199999998686
                },
                {
                    "name": "E4",
                    "midi": 64,
                    "time": 191.06392200000073,
                    "velocity": 0.30708661417322836,
                    "duration": 0.37390199999998686
                },
                {
                    "name": "C#4",
                    "midi": 61,
                    "time": 191.06392200000073,
                    "velocity": 0.25196850393700787,
                    "duration": 0.37390199999998686
                },
                {
                    "name": "D#4",
                    "midi": 63,
                    "time": 191.43782400000072,
                    "velocity": 0.33858267716535434,
                    "duration": 0.7478040000000021
                },
                {
                    "name": "C4",
                    "midi": 60,
                    "time": 191.43782400000072,
                    "velocity": 0.28346456692913385,
                    "duration": 0.7478040000000021
                },
                {
                    "name": "G#3",
                    "midi": 56,
                    "time": 191.43782400000072,
                    "velocity": 0.28346456692913385,
                    "duration": 0.7478040000000021
                },
                {
                    "name": "C#4",
                    "midi": 61,
                    "time": 192.18562800000072,
                    "velocity": 0.2992125984251969,
                    "duration": 0.7478040000000021
                },
                {
                    "name": "A3",
                    "midi": 57,
                    "time": 192.18562800000072,
                    "velocity": 0.2440944881889764,
                    "duration": 0.7478040000000021
                },
                {
                    "name": "F#3",
                    "midi": 54,
                    "time": 192.93343200000072,
                    "velocity": 0.30708661417322836,
                    "duration": 0.7478040000000021
                },
                {
                    "name": "A3",
                    "midi": 57,
                    "time": 192.93343200000072,
                    "velocity": 0.3700787401574803,
                    "duration": 0.7478040000000021
                },
                {
                    "name": "B3",
                    "midi": 59,
                    "time": 192.93343200000072,
                    "velocity": 0.30708661417322836,
                    "duration": 0.7478040000000021
                },
                {
                    "name": "D#4",
                    "midi": 63,
                    "time": 192.93343200000072,
                    "velocity": 0.3700787401574803,
                    "duration": 0.7478040000000021
                },
                {
                    "name": "G#3",
                    "midi": 56,
                    "time": 193.68123600000072,
                    "velocity": 0.3543307086614173,
                    "duration": 0.37390199999998686
                },
                {
                    "name": "B3",
                    "midi": 59,
                    "time": 193.68123600000072,
                    "velocity": 0.3543307086614173,
                    "duration": 0.37390199999998686
                },
                {
                    "name": "E4",
                    "midi": 64,
                    "time": 193.68123600000072,
                    "velocity": 0.41732283464566927,
                    "duration": 0.37390199999998686
                },
                {
                    "name": "F#4",
                    "midi": 66,
                    "time": 194.0551380000007,
                    "velocity": 0.4645669291338583,
                    "duration": 0.37390199999998686
                },
                {
                    "name": "A3",
                    "midi": 57,
                    "time": 194.0551380000007,
                    "velocity": 0.3858267716535433,
                    "duration": 0.37390199999998686
                },
                {
                    "name": "C#4",
                    "midi": 61,
                    "time": 194.0551380000007,
                    "velocity": 0.3858267716535433,
                    "duration": 0.37390199999998686
                },
                {
                    "name": "B3",
                    "midi": 59,
                    "time": 194.4290400000007,
                    "velocity": 0.41732283464566927,
                    "duration": 1.4940500749999615
                },
                {
                    "name": "E4",
                    "midi": 64,
                    "time": 194.4290400000007,
                    "velocity": 0.41732283464566927,
                    "duration": 0.7478040000000021
                },
                {
                    "name": "G#4",
                    "midi": 68,
                    "time": 194.4290400000007,
                    "velocity": 0.5118110236220472,
                    "duration": 0.7478040000000021
                },
                {
                    "name": "D#4",
                    "midi": 63,
                    "time": 195.1768440000007,
                    "velocity": 0.3543307086614173,
                    "duration": 0.37390199999998686
                },
                {
                    "name": "F#4",
                    "midi": 66,
                    "time": 195.1768440000007,
                    "velocity": 0.41732283464566927,
                    "duration": 0.37390199999998686
                },
                {
                    "name": "B2",
                    "midi": 47,
                    "time": 195.5507460000007,
                    "velocity": 0.3464566929133858,
                    "duration": 0.12463399999998614
                },
                {
                    "name": "C#3",
                    "midi": 49,
                    "time": 195.67538000000067,
                    "velocity": 0.33858267716535434,
                    "duration": 0.12463399999998614
                },
                {
                    "name": "D#3",
                    "midi": 51,
                    "time": 195.80001400000066,
                    "velocity": 0.3228346456692913,
                    "duration": 0.12463399999998614
                },
                {
                    "name": "G#3",
                    "midi": 56,
                    "time": 195.92464800000064,
                    "velocity": 0.3543307086614173,
                    "duration": 0.7478040000000021
                },
                {
                    "name": "E3",
                    "midi": 52,
                    "time": 195.92464800000064,
                    "velocity": 0.29133858267716534,
                    "duration": 0.7478040000000021
                },
                {
                    "name": "F#3",
                    "midi": 54,
                    "time": 196.67245200000065,
                    "velocity": 0.3228346456692913,
                    "duration": 0.37390199999998686
                },
                {
                    "name": "D#3",
                    "midi": 51,
                    "time": 196.67245200000065,
                    "velocity": 0.25984251968503935,
                    "duration": 0.37390199999998686
                },
                {
                    "name": "B2",
                    "midi": 47,
                    "time": 196.67245200000065,
                    "velocity": 0.25984251968503935,
                    "duration": 0.37390199999998686
                },
                {
                    "name": "E3",
                    "midi": 52,
                    "time": 197.04635400000063,
                    "velocity": 0.3228346456692913,
                    "duration": 0.37390199999998686
                },
                {
                    "name": "C#3",
                    "midi": 49,
                    "time": 197.04635400000063,
                    "velocity": 0.25984251968503935,
                    "duration": 0.37390199999998686
                },
                {
                    "name": "D#3",
                    "midi": 51,
                    "time": 197.42025600000062,
                    "velocity": 0.29133858267716534,
                    "duration": 0.7478040000000021
                },
                {
                    "name": "F#3",
                    "midi": 54,
                    "time": 197.42025600000062,
                    "velocity": 0.3858267716535433,
                    "duration": 0.7478040000000021
                },
                {
                    "name": "C3",
                    "midi": 48,
                    "time": 197.42025600000062,
                    "velocity": 0.29133858267716534,
                    "duration": 0.7478040000000021
                },
                {
                    "name": "G#2",
                    "midi": 44,
                    "time": 197.42025600000062,
                    "velocity": 0.29133858267716534,
                    "duration": 0.7478040000000021
                },
                {
                    "name": "A2",
                    "midi": 45,
                    "time": 198.16806000000062,
                    "velocity": 0.30708661417322836,
                    "duration": 0.7478040000000021
                },
                {
                    "name": "C#3",
                    "midi": 49,
                    "time": 198.16806000000062,
                    "velocity": 0.30708661417322836,
                    "duration": 0.7478040000000021
                },
                {
                    "name": "E3",
                    "midi": 52,
                    "time": 198.16806000000062,
                    "velocity": 0.25196850393700787,
                    "duration": 0.7478040000000021
                },
                {
                    "name": "B1",
                    "midi": 35,
                    "time": 198.91586400000062,
                    "velocity": 0.36220472440944884,
                    "duration": 1.4956080000000043
                },
                {
                    "name": "B2",
                    "midi": 47,
                    "time": 198.91586400000062,
                    "velocity": 0.4330708661417323,
                    "duration": 1.4956080000000043
                },
                {
                    "name": "E2",
                    "midi": 40,
                    "time": 200.41147200000063,
                    "velocity": 0.3937007874015748,
                    "duration": 0.37390199999998686
                },
                {
                    "name": "E3",
                    "midi": 52,
                    "time": 200.41147200000063,
                    "velocity": 0.47244094488188976,
                    "duration": 0.37390199999998686
                },
                {
                    "name": "B2",
                    "midi": 47,
                    "time": 200.78537400000062,
                    "velocity": 0.5826771653543307,
                    "duration": 0.7478040000000021
                },
                {
                    "name": "B2",
                    "midi": 47,
                    "time": 201.53317800000062,
                    "velocity": 0.5826771653543307,
                    "duration": 0.7478040000000021
                },
                {
                    "name": "B2",
                    "midi": 47,
                    "time": 202.28098200000062,
                    "velocity": 0.5826771653543307,
                    "duration": 0.7478040000000021
                },
                {
                    "name": "B2",
                    "midi": 47,
                    "time": 203.02878600000062,
                    "velocity": 0.5748031496062992,
                    "duration": 0.37390199999998686
                },
                {
                    "name": "E3",
                    "midi": 52,
                    "time": 203.4026880000006,
                    "velocity": 0.5748031496062992,
                    "duration": 0.12463399999998614
                },
                {
                    "name": "B2",
                    "midi": 47,
                    "time": 203.5273220000006,
                    "velocity": 0.5275590551181102,
                    "duration": 0.12463399999998614
                },
                {
                    "name": "G#2",
                    "midi": 44,
                    "time": 203.65195600000058,
                    "velocity": 0.5433070866141733,
                    "duration": 0.12463399999998614
                },
                {
                    "name": "B2",
                    "midi": 47,
                    "time": 203.77659000000057,
                    "velocity": 0.5748031496062992,
                    "duration": 0.12463399999998614
                },
                {
                    "name": "E3",
                    "midi": 52,
                    "time": 203.90122400000055,
                    "velocity": 0.5433070866141733,
                    "duration": 0.12463399999998614
                },
                {
                    "name": "G#3",
                    "midi": 56,
                    "time": 204.02585800000054,
                    "velocity": 0.5433070866141733,
                    "duration": 0.12463399999998614
                },
                {
                    "name": "F#3",
                    "midi": 54,
                    "time": 204.15049200000053,
                    "velocity": 0.5748031496062992,
                    "duration": 0.12463399999998614
                },
                {
                    "name": "D#3",
                    "midi": 51,
                    "time": 204.2751260000005,
                    "velocity": 0.5433070866141733,
                    "duration": 0.12463399999998614
                },
                {
                    "name": "B2",
                    "midi": 47,
                    "time": 204.3997600000005,
                    "velocity": 0.5433070866141733,
                    "duration": 0.12463399999998614
                },
                {
                    "name": "D#3",
                    "midi": 51,
                    "time": 204.52439400000048,
                    "velocity": 0.5748031496062992,
                    "duration": 0.12463399999998614
                },
                {
                    "name": "F#3",
                    "midi": 54,
                    "time": 204.64902800000047,
                    "velocity": 0.5433070866141733,
                    "duration": 0.12463399999998614
                },
                {
                    "name": "A3",
                    "midi": 57,
                    "time": 204.77366200000046,
                    "velocity": 0.5433070866141733,
                    "duration": 0.12463399999998614
                },
                {
                    "name": "G#3",
                    "midi": 56,
                    "time": 204.89829600000044,
                    "velocity": 0.5748031496062992,
                    "duration": 0.12463399999998614
                },
                {
                    "name": "E3",
                    "midi": 52,
                    "time": 205.02293000000043,
                    "velocity": 0.5275590551181102,
                    "duration": 0.12463399999998614
                },
                {
                    "name": "B2",
                    "midi": 47,
                    "time": 205.14756400000041,
                    "velocity": 0.5433070866141733,
                    "duration": 0.12463399999998614
                },
                {
                    "name": "E3",
                    "midi": 52,
                    "time": 205.2721980000004,
                    "velocity": 0.5748031496062992,
                    "duration": 0.12463399999998614
                },
                {
                    "name": "G#3",
                    "midi": 56,
                    "time": 205.3968320000004,
                    "velocity": 0.5433070866141733,
                    "duration": 0.12463399999998614
                },
                {
                    "name": "B3",
                    "midi": 59,
                    "time": 205.52146600000037,
                    "velocity": 0.5433070866141733,
                    "duration": 0.12463399999998614
                },
                {
                    "name": "A3",
                    "midi": 57,
                    "time": 205.64610000000036,
                    "velocity": 0.5748031496062992,
                    "duration": 0.12463399999998614
                },
                {
                    "name": "F#3",
                    "midi": 54,
                    "time": 205.77073400000035,
                    "velocity": 0.5433070866141733,
                    "duration": 0.12463399999998614
                },
                {
                    "name": "D#3",
                    "midi": 51,
                    "time": 205.89536800000033,
                    "velocity": 0.5433070866141733,
                    "duration": 0.12463399999998614
                },
                {
                    "name": "D#4",
                    "midi": 63,
                    "time": 206.02000200000032,
                    "velocity": 0.5748031496062992,
                    "duration": 0.12463399999998614
                },
                {
                    "name": "A3",
                    "midi": 57,
                    "time": 206.1446360000003,
                    "velocity": 0.5433070866141733,
                    "duration": 0.12463399999998614
                },
                {
                    "name": "F#3",
                    "midi": 54,
                    "time": 206.2692700000003,
                    "velocity": 0.5433070866141733,
                    "duration": 0.12463399999998614
                },
                {
                    "name": "G#3",
                    "midi": 56,
                    "time": 206.39390400000028,
                    "velocity": 0.5039370078740157,
                    "duration": 0.12463399999998614
                },
                {
                    "name": "B3",
                    "midi": 59,
                    "time": 206.51853800000026,
                    "velocity": 0.4409448818897638,
                    "duration": 0.12463399999998614
                },
                {
                    "name": "E4",
                    "midi": 64,
                    "time": 206.64317200000025,
                    "velocity": 0.4409448818897638,
                    "duration": 0.12463399999998614
                },
                {
                    "name": "B3",
                    "midi": 59,
                    "time": 206.76780600000023,
                    "velocity": 0.5039370078740157,
                    "duration": 0.12463399999998614
                },
                {
                    "name": "G#3",
                    "midi": 56,
                    "time": 206.89244000000022,
                    "velocity": 0.44881889763779526,
                    "duration": 0.12463399999998614
                },
                {
                    "name": "E3",
                    "midi": 52,
                    "time": 207.0170740000002,
                    "velocity": 0.44881889763779526,
                    "duration": 0.12463399999998614
                },
                {
                    "name": "D#3",
                    "midi": 51,
                    "time": 207.1417080000002,
                    "velocity": 0.5039370078740157,
                    "duration": 0.12463399999998614
                },
                {
                    "name": "F#3",
                    "midi": 54,
                    "time": 207.26634200000018,
                    "velocity": 0.4409448818897638,
                    "duration": 0.12463399999998614
                },
                {
                    "name": "A3",
                    "midi": 57,
                    "time": 207.39097600000017,
                    "velocity": 0.4409448818897638,
                    "duration": 0.12463399999998614
                },
                {
                    "name": "F#3",
                    "midi": 54,
                    "time": 207.51561000000015,
                    "velocity": 0.5039370078740157,
                    "duration": 0.12463399999998614
                },
                {
                    "name": "D#3",
                    "midi": 51,
                    "time": 207.64024400000014,
                    "velocity": 0.44881889763779526,
                    "duration": 0.12463399999998614
                },
                {
                    "name": "B2",
                    "midi": 47,
                    "time": 207.76487800000012,
                    "velocity": 0.4566929133858268,
                    "duration": 0.12463399999998614
                },
                {
                    "name": "E3",
                    "midi": 52,
                    "time": 207.8941857750001,
                    "velocity": 0.5039370078740157,
                    "duration": 0.12463399999998614
                },
                {
                    "name": "G#3",
                    "midi": 56,
                    "time": 208.0141460000001,
                    "velocity": 0.4409448818897638,
                    "duration": 0.12463399999998614
                },
                {
                    "name": "B3",
                    "midi": 59,
                    "time": 208.13878000000008,
                    "velocity": 0.4409448818897638,
                    "duration": 0.12463399999998614
                },
                {
                    "name": "G#3",
                    "midi": 56,
                    "time": 208.26341400000007,
                    "velocity": 0.5039370078740157,
                    "duration": 0.12463399999998614
                },
                {
                    "name": "E3",
                    "midi": 52,
                    "time": 208.38804800000005,
                    "velocity": 0.44881889763779526,
                    "duration": 0.12463399999998614
                },
                {
                    "name": "B2",
                    "midi": 47,
                    "time": 208.51735577500003,
                    "velocity": 0.44881889763779526,
                    "duration": 0.12463399999998614
                },
                {
                    "name": "D#3",
                    "midi": 51,
                    "time": 208.63731600000003,
                    "velocity": 0.5039370078740157,
                    "duration": 0.12463399999998614
                },
                {
                    "name": "A3",
                    "midi": 57,
                    "time": 208.76195,
                    "velocity": 0.4409448818897638,
                    "duration": 0.12463399999998614
                },
                {
                    "name": "B3",
                    "midi": 59,
                    "time": 208.89125777499999,
                    "velocity": 0.4409448818897638,
                    "duration": 0.12463399999998614
                },
                {
                    "name": "A3",
                    "midi": 57,
                    "time": 209.01121799999999,
                    "velocity": 0.5039370078740157,
                    "duration": 0.12463399999998614
                },
                {
                    "name": "B3",
                    "midi": 59,
                    "time": 209.13585199999997,
                    "velocity": 0.44881889763779526,
                    "duration": 0.12463399999998614
                },
                {
                    "name": "F#4",
                    "midi": 66,
                    "time": 209.26048599999996,
                    "velocity": 0.4566929133858268,
                    "duration": 0.12463399999998614
                },
                {
                    "name": "G#3",
                    "midi": 56,
                    "time": 209.38511999999994,
                    "velocity": 0.5039370078740157,
                    "duration": 0.12463399999998614
                },
                {
                    "name": "B3",
                    "midi": 59,
                    "time": 209.50975399999993,
                    "velocity": 0.4330708661417323,
                    "duration": 0.12463399999998614
                },
                {
                    "name": "E4",
                    "midi": 64,
                    "time": 209.63438799999992,
                    "velocity": 0.4330708661417323,
                    "duration": 0.12463399999998614
                },
                {
                    "name": "E3",
                    "midi": 52,
                    "time": 209.7590219999999,
                    "velocity": 0.4881889763779528,
                    "duration": 0.12463399999998614
                },
                {
                    "name": "G#3",
                    "midi": 56,
                    "time": 209.8836559999999,
                    "velocity": 0.4330708661417323,
                    "duration": 0.12463399999998614
                },
                {
                    "name": "B3",
                    "midi": 59,
                    "time": 210.00828999999987,
                    "velocity": 0.4251968503937008,
                    "duration": 0.12463399999998614
                },
                {
                    "name": "F#3",
                    "midi": 54,
                    "time": 210.13292399999986,
                    "velocity": 0.4645669291338583,
                    "duration": 0.12463399999998614
                },
                {
                    "name": "A3",
                    "midi": 57,
                    "time": 210.25755799999985,
                    "velocity": 0.4015748031496063,
                    "duration": 0.12463399999998614
                },
                {
                    "name": "B3",
                    "midi": 59,
                    "time": 210.38219199999983,
                    "velocity": 0.4015748031496063,
                    "duration": 0.12463399999998614
                },
                {
                    "name": "A3",
                    "midi": 57,
                    "time": 210.50682599999982,
                    "velocity": 0.44881889763779526,
                    "duration": 0.12463399999998614
                },
                {
                    "name": "B3",
                    "midi": 59,
                    "time": 210.6314599999998,
                    "velocity": 0.4015748031496063,
                    "duration": 0.12463399999998614
                },
                {
                    "name": "F#4",
                    "midi": 66,
                    "time": 210.7560939999998,
                    "velocity": 0.4015748031496063,
                    "duration": 0.12463399999998614
                },
                {
                    "name": "G#3",
                    "midi": 56,
                    "time": 210.88072799999978,
                    "velocity": 0.4409448818897638,
                    "duration": 0.12463399999998614
                },
                {
                    "name": "B3",
                    "midi": 59,
                    "time": 211.00536199999976,
                    "velocity": 0.3779527559055118,
                    "duration": 0.12463399999998614
                },
                {
                    "name": "E4",
                    "midi": 64,
                    "time": 211.12999599999975,
                    "velocity": 0.3779527559055118,
                    "duration": 0.12463399999998614
                },
                {
                    "name": "E3",
                    "midi": 52,
                    "time": 211.25462999999974,
                    "velocity": 0.4251968503937008,
                    "duration": 0.12463399999998614
                },
                {
                    "name": "G#3",
                    "midi": 56,
                    "time": 211.37926399999972,
                    "velocity": 0.3779527559055118,
                    "duration": 0.12463399999998614
                },
                {
                    "name": "B3",
                    "midi": 59,
                    "time": 211.5038979999997,
                    "velocity": 0.3700787401574803,
                    "duration": 0.12463399999998614
                },
                {
                    "name": "F#3",
                    "midi": 54,
                    "time": 211.6285319999997,
                    "velocity": 0.4015748031496063,
                    "duration": 0.12463399999998614
                },
                {
                    "name": "A3",
                    "midi": 57,
                    "time": 211.75316599999968,
                    "velocity": 0.3464566929133858,
                    "duration": 0.12463399999998614
                },
                {
                    "name": "B3",
                    "midi": 59,
                    "time": 211.87779999999967,
                    "velocity": 0.3464566929133858,
                    "duration": 0.12463399999998614
                },
                {
                    "name": "A3",
                    "midi": 57,
                    "time": 212.00243399999965,
                    "velocity": 0.3937007874015748,
                    "duration": 0.12463399999998614
                },
                {
                    "name": "B3",
                    "midi": 59,
                    "time": 212.12706799999964,
                    "velocity": 0.3464566929133858,
                    "duration": 0.12463399999998614
                },
                {
                    "name": "F#4",
                    "midi": 66,
                    "time": 212.25170199999963,
                    "velocity": 0.3464566929133858,
                    "duration": 0.12463399999998614
                },
                {
                    "name": "G#3",
                    "midi": 56,
                    "time": 212.3763359999996,
                    "velocity": 0.3937007874015748,
                    "duration": 0.09347550000001092
                },
                {
                    "name": "B3",
                    "midi": 59,
                    "time": 212.46981149999962,
                    "velocity": 0.33858267716535434,
                    "duration": 0.09347550000001092
                },
                {
                    "name": "E3",
                    "midi": 52,
                    "time": 212.56328699999963,
                    "velocity": 0.33858267716535434,
                    "duration": 0.09347550000001092
                },
                {
                    "name": "B3",
                    "midi": 59,
                    "time": 212.65676249999964,
                    "velocity": 0.3464566929133858,
                    "duration": 0.09347550000001092
                },
                {
                    "name": "F#3",
                    "midi": 54,
                    "time": 212.75023799999965,
                    "velocity": 0.4015748031496063,
                    "duration": 0.09347550000001092
                },
                {
                    "name": "B3",
                    "midi": 59,
                    "time": 212.84371349999967,
                    "velocity": 0.3464566929133858,
                    "duration": 0.09347550000001092
                },
                {
                    "name": "A3",
                    "midi": 57,
                    "time": 212.93718899999968,
                    "velocity": 0.3464566929133858,
                    "duration": 0.09347550000001092
                },
                {
                    "name": "B3",
                    "midi": 59,
                    "time": 213.0306644999997,
                    "velocity": 0.3464566929133858,
                    "duration": 0.09347550000001092
                },
                {
                    "name": "G#3",
                    "midi": 56,
                    "time": 213.1241399999997,
                    "velocity": 0.4094488188976378,
                    "duration": 0.09347550000001092
                },
                {
                    "name": "B3",
                    "midi": 59,
                    "time": 213.2176154999997,
                    "velocity": 0.36220472440944884,
                    "duration": 0.09347550000001092
                },
                {
                    "name": "E3",
                    "midi": 52,
                    "time": 213.31109099999972,
                    "velocity": 0.3700787401574803,
                    "duration": 0.09347550000001092
                },
                {
                    "name": "B3",
                    "midi": 59,
                    "time": 213.40456649999973,
                    "velocity": 0.3858267716535433,
                    "duration": 0.09347550000001092
                },
                {
                    "name": "F#3",
                    "midi": 54,
                    "time": 213.49804199999974,
                    "velocity": 0.4330708661417323,
                    "duration": 0.09347550000001092
                },
                {
                    "name": "B3",
                    "midi": 59,
                    "time": 213.59151749999975,
                    "velocity": 0.3779527559055118,
                    "duration": 0.09347550000001092
                },
                {
                    "name": "A3",
                    "midi": 57,
                    "time": 213.68499299999976,
                    "velocity": 0.3779527559055118,
                    "duration": 0.09347550000001092
                },
                {
                    "name": "B3",
                    "midi": 59,
                    "time": 213.77846849999978,
                    "velocity": 0.3858267716535433,
                    "duration": 0.09347550000001092
                },
                {
                    "name": "G#3",
                    "midi": 56,
                    "time": 213.8719439999998,
                    "velocity": 0.4566929133858268,
                    "duration": 0.09347550000001092
                },
                {
                    "name": "B3",
                    "midi": 59,
                    "time": 213.9654194999998,
                    "velocity": 0.3937007874015748,
                    "duration": 0.09347550000001092
                },
                {
                    "name": "A3",
                    "midi": 57,
                    "time": 214.0588949999998,
                    "velocity": 0.4015748031496063,
                    "duration": 0.09347550000001092
                },
                {
                    "name": "B3",
                    "midi": 59,
                    "time": 214.15237049999982,
                    "velocity": 0.4094488188976378,
                    "duration": 0.09347550000001092
                },
                {
                    "name": "G#3",
                    "midi": 56,
                    "time": 214.24584599999983,
                    "velocity": 0.47244094488188976,
                    "duration": 0.09347550000001092
                },
                {
                    "name": "B3",
                    "midi": 59,
                    "time": 214.33932149999984,
                    "velocity": 0.4094488188976378,
                    "duration": 0.09347550000001092
                },
                {
                    "name": "A3",
                    "midi": 57,
                    "time": 214.43279699999985,
                    "velocity": 0.4094488188976378,
                    "duration": 0.09347550000001092
                },
                {
                    "name": "B3",
                    "midi": 59,
                    "time": 214.52627249999986,
                    "velocity": 0.4251968503937008,
                    "duration": 0.09347550000001092
                },
                {
                    "name": "G#3",
                    "midi": 56,
                    "time": 214.61974799999987,
                    "velocity": 0.4881889763779528,
                    "duration": 0.09347550000001092
                },
                {
                    "name": "B3",
                    "midi": 59,
                    "time": 214.71322349999988,
                    "velocity": 0.4330708661417323,
                    "duration": 0.09347550000001092
                },
                {
                    "name": "A3",
                    "midi": 57,
                    "time": 214.8066989999999,
                    "velocity": 0.4330708661417323,
                    "duration": 0.09347550000001092
                },
                {
                    "name": "B3",
                    "midi": 59,
                    "time": 214.9001744999999,
                    "velocity": 0.44881889763779526,
                    "duration": 0.09347550000001092
                },
                {
                    "name": "G#3",
                    "midi": 56,
                    "time": 214.99364999999992,
                    "velocity": 0.5118110236220472,
                    "duration": 0.09347550000001092
                },
                {
                    "name": "B3",
                    "midi": 59,
                    "time": 215.08712549999993,
                    "velocity": 0.44881889763779526,
                    "duration": 0.09347550000001092
                },
                {
                    "name": "A3",
                    "midi": 57,
                    "time": 215.18060099999994,
                    "velocity": 0.44881889763779526,
                    "duration": 0.09347550000001092
                },
                {
                    "name": "B3",
                    "midi": 59,
                    "time": 215.27407649999995,
                    "velocity": 0.4566929133858268,
                    "duration": 0.09347550000001092
                },
                {
                    "name": "G#3",
                    "midi": 56,
                    "time": 215.36755199999996,
                    "velocity": 0.5511811023622047,
                    "duration": 0.09347550000001092
                },
                {
                    "name": "B3",
                    "midi": 59,
                    "time": 215.46102749999997,
                    "velocity": 0.47244094488188976,
                    "duration": 0.09347550000001092
                },
                {
                    "name": "G#2",
                    "midi": 44,
                    "time": 215.55450299999998,
                    "velocity": 0.47244094488188976,
                    "duration": 0.09347550000001092
                },
                {
                    "name": "E3",
                    "midi": 52,
                    "time": 215.6479785,
                    "velocity": 0.4881889763779528,
                    "duration": 0.09347550000001092
                },
                {
                    "name": "G#2",
                    "midi": 44,
                    "time": 215.741454,
                    "velocity": 0.5511811023622047,
                    "duration": 0.09347550000001092
                },
                {
                    "name": "E3",
                    "midi": 52,
                    "time": 215.83492950000002,
                    "velocity": 0.47244094488188976,
                    "duration": 0.09347550000001092
                },
                {
                    "name": "G#2",
                    "midi": 44,
                    "time": 215.92840500000003,
                    "velocity": 0.47244094488188976,
                    "duration": 0.09347550000001092
                },
                {
                    "name": "E3",
                    "midi": 52,
                    "time": 216.02188050000004,
                    "velocity": 0.47244094488188976,
                    "duration": 0.09347550000001092
                },
                {
                    "name": "G#2",
                    "midi": 44,
                    "time": 216.11535600000005,
                    "velocity": 0.5511811023622047,
                    "duration": 0.09347550000001092
                },
                {
                    "name": "E3",
                    "midi": 52,
                    "time": 216.20883150000006,
                    "velocity": 0.47244094488188976,
                    "duration": 0.09347550000001092
                },
                {
                    "name": "G#2",
                    "midi": 44,
                    "time": 216.30230700000007,
                    "velocity": 0.47244094488188976,
                    "duration": 0.09347550000001092
                },
                {
                    "name": "E3",
                    "midi": 52,
                    "time": 216.39578250000008,
                    "velocity": 0.4881889763779528,
                    "duration": 0.09347550000001092
                },
                {
                    "name": "G#2",
                    "midi": 44,
                    "time": 216.4892580000001,
                    "velocity": 0.5511811023622047,
                    "duration": 0.09347550000001092
                },
                {
                    "name": "E3",
                    "midi": 52,
                    "time": 216.5827335000001,
                    "velocity": 0.47244094488188976,
                    "duration": 0.09347550000001092
                },
                {
                    "name": "G#2",
                    "midi": 44,
                    "time": 216.6762090000001,
                    "velocity": 0.47244094488188976,
                    "duration": 0.09347550000001092
                },
                {
                    "name": "E3",
                    "midi": 52,
                    "time": 216.76968450000012,
                    "velocity": 0.47244094488188976,
                    "duration": 0.09347550000001092
                },
                {
                    "name": "G#2",
                    "midi": 44,
                    "time": 216.86316000000014,
                    "velocity": 0.5511811023622047,
                    "duration": 0.09347550000001092
                },
                {
                    "name": "E3",
                    "midi": 52,
                    "time": 216.95663550000015,
                    "velocity": 0.47244094488188976,
                    "duration": 0.09347550000001092
                },
                {
                    "name": "G#2",
                    "midi": 44,
                    "time": 217.05011100000016,
                    "velocity": 0.47244094488188976,
                    "duration": 0.09347550000001092
                },
                {
                    "name": "E3",
                    "midi": 52,
                    "time": 217.14358650000017,
                    "velocity": 0.4881889763779528,
                    "duration": 0.09347550000001092
                },
                {
                    "name": "G#2",
                    "midi": 44,
                    "time": 217.23706200000018,
                    "velocity": 0.5511811023622047,
                    "duration": 0.09347550000001092
                },
                {
                    "name": "E3",
                    "midi": 52,
                    "time": 217.3305375000002,
                    "velocity": 0.47244094488188976,
                    "duration": 0.09347550000001092
                },
                {
                    "name": "G#2",
                    "midi": 44,
                    "time": 217.4240130000002,
                    "velocity": 0.47244094488188976,
                    "duration": 0.09347550000001092
                },
                {
                    "name": "E3",
                    "midi": 52,
                    "time": 217.5174885000002,
                    "velocity": 0.48031496062992124,
                    "duration": 0.09347550000001092
                },
                {
                    "name": "G#2",
                    "midi": 44,
                    "time": 217.61096400000022,
                    "velocity": 0.5590551181102362,
                    "duration": 0.09347550000001092
                },
                {
                    "name": "E3",
                    "midi": 52,
                    "time": 217.70443950000023,
                    "velocity": 0.48031496062992124,
                    "duration": 0.09347550000001092
                },
                {
                    "name": "G#2",
                    "midi": 44,
                    "time": 217.79791500000024,
                    "velocity": 0.48031496062992124,
                    "duration": 0.09347550000001092
                },
                {
                    "name": "E3",
                    "midi": 52,
                    "time": 217.89139050000026,
                    "velocity": 0.49606299212598426,
                    "duration": 0.09347550000001092
                },
                {
                    "name": "G#2",
                    "midi": 44,
                    "time": 217.98486600000027,
                    "velocity": 0.5669291338582677,
                    "duration": 0.09347550000001092
                },
                {
                    "name": "E3",
                    "midi": 52,
                    "time": 218.07834150000028,
                    "velocity": 0.4881889763779528,
                    "duration": 0.09347550000001092
                },
                {
                    "name": "G#2",
                    "midi": 44,
                    "time": 218.1718170000003,
                    "velocity": 0.4881889763779528,
                    "duration": 0.09347550000001092
                },
                {
                    "name": "E3",
                    "midi": 52,
                    "time": 218.2652925000003,
                    "velocity": 0.4881889763779528,
                    "duration": 0.09347550000001092
                },
                {
                    "name": "A2",
                    "midi": 45,
                    "time": 218.3587680000003,
                    "velocity": 0.5275590551181102,
                    "duration": 0.14021324999998797
                },
                {
                    "name": "C#3",
                    "midi": 49,
                    "time": 218.3587680000003,
                    "velocity": 0.5275590551181102,
                    "duration": 0.14021324999998797
                },
                {
                    "name": "E3",
                    "midi": 52,
                    "time": 218.3587680000003,
                    "velocity": 0.6299212598425197,
                    "duration": 0.14021324999998797
                },
                {
                    "name": "A2",
                    "midi": 45,
                    "time": 218.5457190000003,
                    "velocity": 0.47244094488188976,
                    "duration": 0.14021324999998797
                },
                {
                    "name": "C#3",
                    "midi": 49,
                    "time": 218.5457190000003,
                    "velocity": 0.47244094488188976,
                    "duration": 0.14021324999998797
                },
                {
                    "name": "E3",
                    "midi": 52,
                    "time": 218.5457190000003,
                    "velocity": 0.5748031496062992,
                    "duration": 0.14021324999998797
                },
                {
                    "name": "A2",
                    "midi": 45,
                    "time": 218.9196210000003,
                    "velocity": 0.47244094488188976,
                    "duration": 0.14021324999998797
                },
                {
                    "name": "C#3",
                    "midi": 49,
                    "time": 218.9196210000003,
                    "velocity": 0.47244094488188976,
                    "duration": 0.14021324999998797
                },
                {
                    "name": "E3",
                    "midi": 52,
                    "time": 218.9196210000003,
                    "velocity": 0.5748031496062992,
                    "duration": 0.14021324999998797
                },
                {
                    "name": "A2",
                    "midi": 45,
                    "time": 219.10657200000028,
                    "velocity": 0.5275590551181102,
                    "duration": 0.14021324999998797
                },
                {
                    "name": "C#3",
                    "midi": 49,
                    "time": 219.10657200000028,
                    "velocity": 0.5275590551181102,
                    "duration": 0.14021324999998797
                },
                {
                    "name": "E3",
                    "midi": 52,
                    "time": 219.10657200000028,
                    "velocity": 0.6299212598425197,
                    "duration": 0.14021324999998797
                },
                {
                    "name": "A2",
                    "midi": 45,
                    "time": 219.29352300000028,
                    "velocity": 0.47244094488188976,
                    "duration": 0.14021324999998797
                },
                {
                    "name": "C#3",
                    "midi": 49,
                    "time": 219.29352300000028,
                    "velocity": 0.47244094488188976,
                    "duration": 0.14021324999998797
                },
                {
                    "name": "E3",
                    "midi": 52,
                    "time": 219.29352300000028,
                    "velocity": 0.5748031496062992,
                    "duration": 0.14021324999998797
                },
                {
                    "name": "A2",
                    "midi": 45,
                    "time": 219.66742500000026,
                    "velocity": 0.47244094488188976,
                    "duration": 0.14021324999998797
                },
                {
                    "name": "C#3",
                    "midi": 49,
                    "time": 219.66742500000026,
                    "velocity": 0.47244094488188976,
                    "duration": 0.14021324999998797
                },
                {
                    "name": "E3",
                    "midi": 52,
                    "time": 219.66742500000026,
                    "velocity": 0.5748031496062992,
                    "duration": 0.14021324999998797
                },
                {
                    "name": "A2",
                    "midi": 45,
                    "time": 219.85437600000026,
                    "velocity": 0.5275590551181102,
                    "duration": 0.14021324999998797
                },
                {
                    "name": "C#3",
                    "midi": 49,
                    "time": 219.85437600000026,
                    "velocity": 0.5275590551181102,
                    "duration": 0.14021324999998797
                },
                {
                    "name": "E3",
                    "midi": 52,
                    "time": 219.85437600000026,
                    "velocity": 0.6141732283464567,
                    "duration": 0.14021324999998797
                },
                {
                    "name": "A2",
                    "midi": 45,
                    "time": 220.04132700000025,
                    "velocity": 0.47244094488188976,
                    "duration": 0.14021324999998797
                },
                {
                    "name": "C#3",
                    "midi": 49,
                    "time": 220.04132700000025,
                    "velocity": 0.47244094488188976,
                    "duration": 0.14021324999998797
                },
                {
                    "name": "E3",
                    "midi": 52,
                    "time": 220.04132700000025,
                    "velocity": 0.5748031496062992,
                    "duration": 0.14021324999998797
                },
                {
                    "name": "A2",
                    "midi": 45,
                    "time": 220.41522900000024,
                    "velocity": 0.47244094488188976,
                    "duration": 0.14021324999998797
                },
                {
                    "name": "C#3",
                    "midi": 49,
                    "time": 220.41522900000024,
                    "velocity": 0.47244094488188976,
                    "duration": 0.14021324999998797
                },
                {
                    "name": "E3",
                    "midi": 52,
                    "time": 220.41522900000024,
                    "velocity": 0.5748031496062992,
                    "duration": 0.14021324999998797
                },
                {
                    "name": "A2",
                    "midi": 45,
                    "time": 220.60218000000023,
                    "velocity": 0.5275590551181102,
                    "duration": 0.14021324999998797
                },
                {
                    "name": "C#3",
                    "midi": 49,
                    "time": 220.60218000000023,
                    "velocity": 0.5275590551181102,
                    "duration": 0.14021324999998797
                },
                {
                    "name": "E3",
                    "midi": 52,
                    "time": 220.60218000000023,
                    "velocity": 0.6141732283464567,
                    "duration": 0.14021324999998797
                },
                {
                    "name": "A2",
                    "midi": 45,
                    "time": 220.78913100000022,
                    "velocity": 0.47244094488188976,
                    "duration": 0.14021324999998797
                },
                {
                    "name": "C#3",
                    "midi": 49,
                    "time": 220.78913100000022,
                    "velocity": 0.47244094488188976,
                    "duration": 0.14021324999998797
                },
                {
                    "name": "E3",
                    "midi": 52,
                    "time": 220.78913100000022,
                    "velocity": 0.5748031496062992,
                    "duration": 0.14021324999998797
                },
                {
                    "name": "A2",
                    "midi": 45,
                    "time": 221.1630330000002,
                    "velocity": 0.47244094488188976,
                    "duration": 0.14021324999998797
                },
                {
                    "name": "C#3",
                    "midi": 49,
                    "time": 221.1630330000002,
                    "velocity": 0.47244094488188976,
                    "duration": 0.14021324999998797
                },
                {
                    "name": "E3",
                    "midi": 52,
                    "time": 221.1630330000002,
                    "velocity": 0.5748031496062992,
                    "duration": 0.14021324999998797
                },
                {
                    "name": "E3",
                    "midi": 52,
                    "time": 221.3499840000002,
                    "velocity": 0.5275590551181102,
                    "duration": 0.14021324999998797
                },
                {
                    "name": "A#2",
                    "midi": 46,
                    "time": 221.3499840000002,
                    "velocity": 0.5275590551181102,
                    "duration": 0.14021324999998797
                },
                {
                    "name": "C#3",
                    "midi": 49,
                    "time": 221.3499840000002,
                    "velocity": 0.5275590551181102,
                    "duration": 0.14021324999998797
                },
                {
                    "name": "F#3",
                    "midi": 54,
                    "time": 221.3499840000002,
                    "velocity": 0.6141732283464567,
                    "duration": 0.14021324999998797
                },
                {
                    "name": "E3",
                    "midi": 52,
                    "time": 221.5369350000002,
                    "velocity": 0.47244094488188976,
                    "duration": 0.14021324999998797
                },
                {
                    "name": "A#2",
                    "midi": 46,
                    "time": 221.5369350000002,
                    "velocity": 0.47244094488188976,
                    "duration": 0.14021324999998797
                },
                {
                    "name": "C#3",
                    "midi": 49,
                    "time": 221.5369350000002,
                    "velocity": 0.47244094488188976,
                    "duration": 0.14021324999998797
                },
                {
                    "name": "F#3",
                    "midi": 54,
                    "time": 221.5369350000002,
                    "velocity": 0.5748031496062992,
                    "duration": 0.14021324999998797
                },
                {
                    "name": "E3",
                    "midi": 52,
                    "time": 221.91083700000019,
                    "velocity": 0.47244094488188976,
                    "duration": 0.14021324999998797
                },
                {
                    "name": "A#2",
                    "midi": 46,
                    "time": 221.91083700000019,
                    "velocity": 0.47244094488188976,
                    "duration": 0.14021324999998797
                },
                {
                    "name": "C#3",
                    "midi": 49,
                    "time": 221.91083700000019,
                    "velocity": 0.47244094488188976,
                    "duration": 0.14021324999998797
                },
                {
                    "name": "F#3",
                    "midi": 54,
                    "time": 221.91083700000019,
                    "velocity": 0.5748031496062992,
                    "duration": 0.14021324999998797
                },
                {
                    "name": "E3",
                    "midi": 52,
                    "time": 222.09778800000018,
                    "velocity": 0.5275590551181102,
                    "duration": 0.14021324999998797
                },
                {
                    "name": "A#2",
                    "midi": 46,
                    "time": 222.09778800000018,
                    "velocity": 0.5275590551181102,
                    "duration": 0.14021324999998797
                },
                {
                    "name": "C#3",
                    "midi": 49,
                    "time": 222.09778800000018,
                    "velocity": 0.5275590551181102,
                    "duration": 0.14021324999998797
                },
                {
                    "name": "F#3",
                    "midi": 54,
                    "time": 222.09778800000018,
                    "velocity": 0.6141732283464567,
                    "duration": 0.14021324999998797
                },
                {
                    "name": "E3",
                    "midi": 52,
                    "time": 222.28473900000017,
                    "velocity": 0.47244094488188976,
                    "duration": 0.14021324999998797
                },
                {
                    "name": "A#2",
                    "midi": 46,
                    "time": 222.28473900000017,
                    "velocity": 0.47244094488188976,
                    "duration": 0.14021324999998797
                },
                {
                    "name": "C#3",
                    "midi": 49,
                    "time": 222.28473900000017,
                    "velocity": 0.47244094488188976,
                    "duration": 0.14021324999998797
                },
                {
                    "name": "F#3",
                    "midi": 54,
                    "time": 222.28473900000017,
                    "velocity": 0.5748031496062992,
                    "duration": 0.14021324999998797
                },
                {
                    "name": "E3",
                    "midi": 52,
                    "time": 222.65864100000016,
                    "velocity": 0.47244094488188976,
                    "duration": 0.14021324999998797
                },
                {
                    "name": "A#2",
                    "midi": 46,
                    "time": 222.65864100000016,
                    "velocity": 0.47244094488188976,
                    "duration": 0.14021324999998797
                },
                {
                    "name": "C#3",
                    "midi": 49,
                    "time": 222.65864100000016,
                    "velocity": 0.47244094488188976,
                    "duration": 0.14021324999998797
                },
                {
                    "name": "F#3",
                    "midi": 54,
                    "time": 222.65864100000016,
                    "velocity": 0.5748031496062992,
                    "duration": 0.14021324999998797
                },
                {
                    "name": "E3",
                    "midi": 52,
                    "time": 222.84559200000015,
                    "velocity": 0.5275590551181102,
                    "duration": 0.14021324999998797
                },
                {
                    "name": "A#2",
                    "midi": 46,
                    "time": 222.84559200000015,
                    "velocity": 0.5275590551181102,
                    "duration": 0.14021324999998797
                },
                {
                    "name": "C#3",
                    "midi": 49,
                    "time": 222.84559200000015,
                    "velocity": 0.5275590551181102,
                    "duration": 0.14021324999998797
                },
                {
                    "name": "F#3",
                    "midi": 54,
                    "time": 222.84559200000015,
                    "velocity": 0.6141732283464567,
                    "duration": 0.14021324999998797
                },
                {
                    "name": "E3",
                    "midi": 52,
                    "time": 223.03254300000015,
                    "velocity": 0.47244094488188976,
                    "duration": 0.14021324999998797
                },
                {
                    "name": "A#2",
                    "midi": 46,
                    "time": 223.03254300000015,
                    "velocity": 0.47244094488188976,
                    "duration": 0.14021324999998797
                },
                {
                    "name": "C#3",
                    "midi": 49,
                    "time": 223.03254300000015,
                    "velocity": 0.47244094488188976,
                    "duration": 0.14021324999998797
                },
                {
                    "name": "F#3",
                    "midi": 54,
                    "time": 223.03254300000015,
                    "velocity": 0.5748031496062992,
                    "duration": 0.14021324999998797
                },
                {
                    "name": "E3",
                    "midi": 52,
                    "time": 223.40644500000013,
                    "velocity": 0.47244094488188976,
                    "duration": 0.14021324999998797
                },
                {
                    "name": "A#2",
                    "midi": 46,
                    "time": 223.40644500000013,
                    "velocity": 0.47244094488188976,
                    "duration": 0.14021324999998797
                },
                {
                    "name": "C#3",
                    "midi": 49,
                    "time": 223.40644500000013,
                    "velocity": 0.47244094488188976,
                    "duration": 0.14021324999998797
                },
                {
                    "name": "F#3",
                    "midi": 54,
                    "time": 223.40644500000013,
                    "velocity": 0.5748031496062992,
                    "duration": 0.14021324999998797
                },
                {
                    "name": "E3",
                    "midi": 52,
                    "time": 223.59339600000013,
                    "velocity": 0.5275590551181102,
                    "duration": 0.14021324999998797
                },
                {
                    "name": "A#2",
                    "midi": 46,
                    "time": 223.59339600000013,
                    "velocity": 0.5275590551181102,
                    "duration": 0.14021324999998797
                },
                {
                    "name": "C#3",
                    "midi": 49,
                    "time": 223.59339600000013,
                    "velocity": 0.5275590551181102,
                    "duration": 0.14021324999998797
                },
                {
                    "name": "F#3",
                    "midi": 54,
                    "time": 223.59339600000013,
                    "velocity": 0.6141732283464567,
                    "duration": 0.14021324999998797
                },
                {
                    "name": "E3",
                    "midi": 52,
                    "time": 223.78034700000012,
                    "velocity": 0.47244094488188976,
                    "duration": 0.14021324999998797
                },
                {
                    "name": "A#2",
                    "midi": 46,
                    "time": 223.78034700000012,
                    "velocity": 0.47244094488188976,
                    "duration": 0.14021324999998797
                },
                {
                    "name": "C#3",
                    "midi": 49,
                    "time": 223.78034700000012,
                    "velocity": 0.47244094488188976,
                    "duration": 0.14021324999998797
                },
                {
                    "name": "F#3",
                    "midi": 54,
                    "time": 223.78034700000012,
                    "velocity": 0.5748031496062992,
                    "duration": 0.14021324999998797
                },
                {
                    "name": "E3",
                    "midi": 52,
                    "time": 224.1542490000001,
                    "velocity": 0.47244094488188976,
                    "duration": 0.14021324999998797
                },
                {
                    "name": "A#2",
                    "midi": 46,
                    "time": 224.1542490000001,
                    "velocity": 0.47244094488188976,
                    "duration": 0.14021324999998797
                },
                {
                    "name": "C#3",
                    "midi": 49,
                    "time": 224.1542490000001,
                    "velocity": 0.47244094488188976,
                    "duration": 0.14021324999998797
                },
                {
                    "name": "F#3",
                    "midi": 54,
                    "time": 224.1542490000001,
                    "velocity": 0.5748031496062992,
                    "duration": 0.14021324999998797
                },
                {
                    "name": "B2",
                    "midi": 47,
                    "time": 224.3412000000001,
                    "velocity": 0.6141732283464567,
                    "duration": 0.09347550000001092
                },
                {
                    "name": "E3",
                    "midi": 52,
                    "time": 224.4346755000001,
                    "velocity": 0.5511811023622047,
                    "duration": 0.09347550000001092
                },
                {
                    "name": "G#3",
                    "midi": 56,
                    "time": 224.52815100000012,
                    "velocity": 0.5511811023622047,
                    "duration": 0.09347550000001092
                },
                {
                    "name": "B3",
                    "midi": 59,
                    "time": 224.62162650000013,
                    "velocity": 0.5511811023622047,
                    "duration": 0.09347550000001092
                },
                {
                    "name": "B2",
                    "midi": 47,
                    "time": 224.71510200000014,
                    "velocity": 0.6062992125984252,
                    "duration": 0.09347550000001092
                },
                {
                    "name": "E3",
                    "midi": 52,
                    "time": 224.80857750000015,
                    "velocity": 0.5511811023622047,
                    "duration": 0.09347550000001092
                },
                {
                    "name": "G#3",
                    "midi": 56,
                    "time": 224.90205300000017,
                    "velocity": 0.5511811023622047,
                    "duration": 0.09347550000001092
                },
                {
                    "name": "B3",
                    "midi": 59,
                    "time": 224.99552850000018,
                    "velocity": 0.5511811023622047,
                    "duration": 0.09347550000001092
                },
                {
                    "name": "B2",
                    "midi": 47,
                    "time": 225.0890040000002,
                    "velocity": 0.5905511811023622,
                    "duration": 0.09347550000001092
                },
                {
                    "name": "E3",
                    "midi": 52,
                    "time": 225.1824795000002,
                    "velocity": 0.5511811023622047,
                    "duration": 0.09347550000001092
                },
                {
                    "name": "G#3",
                    "midi": 56,
                    "time": 225.2759550000002,
                    "velocity": 0.5511811023622047,
                    "duration": 0.09347550000001092
                },
                {
                    "name": "B3",
                    "midi": 59,
                    "time": 225.36943050000022,
                    "velocity": 0.5511811023622047,
                    "duration": 0.09347550000001092
                },
                {
                    "name": "B2",
                    "midi": 47,
                    "time": 225.46290600000023,
                    "velocity": 0.5905511811023622,
                    "duration": 0.09347550000001092
                },
                {
                    "name": "E3",
                    "midi": 52,
                    "time": 225.55638150000024,
                    "velocity": 0.5511811023622047,
                    "duration": 0.09347550000001092
                },
                {
                    "name": "G#3",
                    "midi": 56,
                    "time": 225.64985700000025,
                    "velocity": 0.5511811023622047,
                    "duration": 0.09347550000001092
                },
                {
                    "name": "B3",
                    "midi": 59,
                    "time": 225.74333250000026,
                    "velocity": 0.5511811023622047,
                    "duration": 0.09347550000001092
                },
                {
                    "name": "B2",
                    "midi": 47,
                    "time": 225.83680800000027,
                    "velocity": 0.6141732283464567,
                    "duration": 0.09347550000001092
                },
                {
                    "name": "E3",
                    "midi": 52,
                    "time": 225.9302835000003,
                    "velocity": 0.5511811023622047,
                    "duration": 0.09347550000001092
                },
                {
                    "name": "G#3",
                    "midi": 56,
                    "time": 226.0237590000003,
                    "velocity": 0.5511811023622047,
                    "duration": 0.09347550000001092
                },
                {
                    "name": "B3",
                    "midi": 59,
                    "time": 226.1172345000003,
                    "velocity": 0.5511811023622047,
                    "duration": 0.09347550000001092
                },
                {
                    "name": "B2",
                    "midi": 47,
                    "time": 226.21071000000032,
                    "velocity": 0.6062992125984252,
                    "duration": 0.09347550000001092
                },
                {
                    "name": "E3",
                    "midi": 52,
                    "time": 226.30418550000033,
                    "velocity": 0.5511811023622047,
                    "duration": 0.09347550000001092
                },
                {
                    "name": "G#3",
                    "midi": 56,
                    "time": 226.39766100000034,
                    "velocity": 0.5511811023622047,
                    "duration": 0.09347550000001092
                },
                {
                    "name": "B3",
                    "midi": 59,
                    "time": 226.49113650000035,
                    "velocity": 0.5511811023622047,
                    "duration": 0.09347550000001092
                },
                {
                    "name": "G#3",
                    "midi": 56,
                    "time": 226.58461200000036,
                    "velocity": 0.5905511811023622,
                    "duration": 0.09347550000001092
                },
                {
                    "name": "G#3",
                    "midi": 56,
                    "time": 226.77156300000038,
                    "velocity": 0.5511811023622047,
                    "duration": 0.09347550000001092
                },
                {
                    "name": "E3",
                    "midi": 52,
                    "time": 226.9585140000004,
                    "velocity": 0.5905511811023622,
                    "duration": 0.09347550000001092
                },
                {
                    "name": "B2",
                    "midi": 47,
                    "time": 227.14546500000043,
                    "velocity": 0.5511811023622047,
                    "duration": 0.09347550000001092
                },
                {
                    "name": "B3",
                    "midi": 59,
                    "time": 227.33241600000045,
                    "velocity": 0.6456692913385826,
                    "duration": 0.09347550000001092
                },
                {
                    "name": "G#3",
                    "midi": 56,
                    "time": 227.51936700000047,
                    "velocity": 0.3700787401574803,
                    "duration": 0.09347550000001092
                },
                {
                    "name": "E4",
                    "midi": 64,
                    "time": 227.7063180000005,
                    "velocity": 0.41732283464566927,
                    "duration": 0.09347550000001092
                },
                {
                    "name": "B3",
                    "midi": 59,
                    "time": 227.89326900000052,
                    "velocity": 0.3779527559055118,
                    "duration": 0.09347550000001092
                },
                {
                    "name": "G#4",
                    "midi": 68,
                    "time": 228.08022000000054,
                    "velocity": 0.4094488188976378,
                    "duration": 0.09347550000001092
                },
                {
                    "name": "E4",
                    "midi": 64,
                    "time": 228.26717100000056,
                    "velocity": 0.3228346456692913,
                    "duration": 0.09347550000001092
                },
                {
                    "name": "B4",
                    "midi": 71,
                    "time": 228.45412200000058,
                    "velocity": 0.3937007874015748,
                    "duration": 0.09347550000001092
                },
                {
                    "name": "G#4",
                    "midi": 68,
                    "time": 228.6410730000006,
                    "velocity": 0.3228346456692913,
                    "duration": 0.09347550000001092
                },
                {
                    "name": "E5",
                    "midi": 76,
                    "time": 228.82802400000062,
                    "velocity": 0.3937007874015748,
                    "duration": 0.09347550000001092
                },
                {
                    "name": "B4",
                    "midi": 71,
                    "time": 229.01497500000065,
                    "velocity": 0.3228346456692913,
                    "duration": 0.09347550000001092
                },
                {
                    "name": "E5",
                    "midi": 76,
                    "time": 229.20192600000067,
                    "velocity": 0.3937007874015748,
                    "duration": 0.09347550000001092
                },
                {
                    "name": "B4",
                    "midi": 71,
                    "time": 229.3888770000007,
                    "velocity": 0.30708661417322836,
                    "duration": 0.09347550000001092
                },
                {
                    "name": "E5",
                    "midi": 76,
                    "time": 229.5758280000007,
                    "velocity": 0.3937007874015748,
                    "duration": 0.09347550000001092
                },
                {
                    "name": "B4",
                    "midi": 71,
                    "time": 229.76277900000073,
                    "velocity": 0.3228346456692913,
                    "duration": 0.09347550000001092
                },
                {
                    "name": "E5",
                    "midi": 76,
                    "time": 229.94973000000076,
                    "velocity": 0.3937007874015748,
                    "duration": 0.09347550000001092
                },
                {
                    "name": "B4",
                    "midi": 71,
                    "time": 230.13668100000078,
                    "velocity": 0.33070866141732286,
                    "duration": 0.09347550000001092
                },
                {
                    "name": "D#5",
                    "midi": 75,
                    "time": 230.3236320000008,
                    "velocity": 0.36220472440944884,
                    "duration": 0.09347550000001092
                },
                {
                    "name": "B4",
                    "midi": 71,
                    "time": 230.51058300000082,
                    "velocity": 0.29133858267716534,
                    "duration": 0.09347550000001092
                },
                {
                    "name": "D#5",
                    "midi": 75,
                    "time": 230.69753400000084,
                    "velocity": 0.33858267716535434,
                    "duration": 0.09347550000001092
                },
                {
                    "name": "B4",
                    "midi": 71,
                    "time": 230.88448500000086,
                    "velocity": 0.28346456692913385,
                    "duration": 0.09347550000001092
                },
                {
                    "name": "D#5",
                    "midi": 75,
                    "time": 231.0714360000009,
                    "velocity": 0.3228346456692913,
                    "duration": 0.09347550000001092
                },
                {
                    "name": "B4",
                    "midi": 71,
                    "time": 231.2583870000009,
                    "velocity": 0.25196850393700787,
                    "duration": 0.09347550000001092
                },
                {
                    "name": "D#5",
                    "midi": 75,
                    "time": 231.44533800000093,
                    "velocity": 0.30708661417322836,
                    "duration": 0.09347550000001092
                },
                {
                    "name": "B4",
                    "midi": 71,
                    "time": 231.63228900000095,
                    "velocity": 0.2440944881889764,
                    "duration": 0.09347550000001092
                },
                {
                    "name": "D#5",
                    "midi": 75,
                    "time": 231.81924000000097,
                    "velocity": 0.28346456692913385,
                    "duration": 0.09347550000001092
                },
                {
                    "name": "B4",
                    "midi": 71,
                    "time": 232.006191000001,
                    "velocity": 0.23622047244094488,
                    "duration": 0.09347550000001092
                },
                {
                    "name": "D#5",
                    "midi": 75,
                    "time": 232.19314200000102,
                    "velocity": 0.28346456692913385,
                    "duration": 0.09347550000001092
                },
                {
                    "name": "B4",
                    "midi": 71,
                    "time": 232.38009300000104,
                    "velocity": 0.2440944881889764,
                    "duration": 0.09347550000001092
                },
                {
                    "name": "D#5",
                    "midi": 75,
                    "time": 232.56704400000106,
                    "velocity": 0.28346456692913385,
                    "duration": 0.09347550000001092
                },
                {
                    "name": "B4",
                    "midi": 71,
                    "time": 232.75399500000108,
                    "velocity": 0.2283464566929134,
                    "duration": 0.09347550000001092
                },
                {
                    "name": "D#5",
                    "midi": 75,
                    "time": 232.9409460000011,
                    "velocity": 0.28346456692913385,
                    "duration": 0.09347550000001092
                },
                {
                    "name": "B4",
                    "midi": 71,
                    "time": 233.12789700000113,
                    "velocity": 0.23622047244094488,
                    "duration": 0.09347550000001092
                },
                {
                    "name": "D#5",
                    "midi": 75,
                    "time": 233.31484800000115,
                    "velocity": 0.29133858267716534,
                    "duration": 0.06231700000000728
                },
                {
                    "name": "E5",
                    "midi": 76,
                    "time": 233.37716500000116,
                    "velocity": 0.25196850393700787,
                    "duration": 0.06231700000000728
                },
                {
                    "name": "D#5",
                    "midi": 75,
                    "time": 233.43948200000116,
                    "velocity": 0.28346456692913385,
                    "duration": 0.06231700000000728
                },
                {
                    "name": "E5",
                    "midi": 76,
                    "time": 233.50179900000117,
                    "velocity": 0.2440944881889764,
                    "duration": 0.06231700000000728
                },
                {
                    "name": "D#5",
                    "midi": 75,
                    "time": 233.56411600000118,
                    "velocity": 0.28346456692913385,
                    "duration": 0.06231700000000728
                },
                {
                    "name": "E5",
                    "midi": 76,
                    "time": 233.62643300000119,
                    "velocity": 0.25984251968503935,
                    "duration": 0.06231700000000728
                },
                {
                    "name": "D#5",
                    "midi": 75,
                    "time": 233.6887500000012,
                    "velocity": 0.29133858267716534,
                    "duration": 0.06231700000000728
                },
                {
                    "name": "E5",
                    "midi": 76,
                    "time": 233.7510670000012,
                    "velocity": 0.25984251968503935,
                    "duration": 0.06231700000000728
                },
                {
                    "name": "D#5",
                    "midi": 75,
                    "time": 233.8133840000012,
                    "velocity": 0.29133858267716534,
                    "duration": 0.06231700000000728
                },
                {
                    "name": "E5",
                    "midi": 76,
                    "time": 233.87570100000121,
                    "velocity": 0.25984251968503935,
                    "duration": 0.06231700000000728
                },
                {
                    "name": "D#5",
                    "midi": 75,
                    "time": 233.93801800000122,
                    "velocity": 0.2992125984251969,
                    "duration": 0.06231700000000728
                },
                {
                    "name": "E5",
                    "midi": 76,
                    "time": 234.00033500000123,
                    "velocity": 0.2677165354330709,
                    "duration": 0.06231700000000728
                },
                {
                    "name": "D#5",
                    "midi": 75,
                    "time": 234.06265200000124,
                    "velocity": 0.2992125984251969,
                    "duration": 0.06231700000000728
                },
                {
                    "name": "E5",
                    "midi": 76,
                    "time": 234.12496900000124,
                    "velocity": 0.2755905511811024,
                    "duration": 0.06231700000000728
                },
                {
                    "name": "D#5",
                    "midi": 75,
                    "time": 234.18728600000125,
                    "velocity": 0.30708661417322836,
                    "duration": 0.06231700000000728
                },
                {
                    "name": "E5",
                    "midi": 76,
                    "time": 234.24960300000126,
                    "velocity": 0.2755905511811024,
                    "duration": 0.06231700000000728
                },
                {
                    "name": "D#5",
                    "midi": 75,
                    "time": 234.31192000000127,
                    "velocity": 0.30708661417322836,
                    "duration": 0.06231700000000728
                },
                {
                    "name": "E5",
                    "midi": 76,
                    "time": 234.37423700000127,
                    "velocity": 0.28346456692913385,
                    "duration": 0.06231700000000728
                },
                {
                    "name": "D#5",
                    "midi": 75,
                    "time": 234.43655400000128,
                    "velocity": 0.31496062992125984,
                    "duration": 0.06231700000000728
                },
                {
                    "name": "E5",
                    "midi": 76,
                    "time": 234.4988710000013,
                    "velocity": 0.28346456692913385,
                    "duration": 0.06231700000000728
                },
                {
                    "name": "D#5",
                    "midi": 75,
                    "time": 234.5611880000013,
                    "velocity": 0.31496062992125984,
                    "duration": 0.06231700000000728
                },
                {
                    "name": "E5",
                    "midi": 76,
                    "time": 234.6235050000013,
                    "velocity": 0.28346456692913385,
                    "duration": 0.06231700000000728
                },
                {
                    "name": "D#5",
                    "midi": 75,
                    "time": 234.6858220000013,
                    "velocity": 0.3228346456692913,
                    "duration": 0.06231700000000728
                },
                {
                    "name": "E5",
                    "midi": 76,
                    "time": 234.74813900000132,
                    "velocity": 0.29133858267716534,
                    "duration": 0.06231700000000728
                },
                {
                    "name": "D#5",
                    "midi": 75,
                    "time": 234.81045600000132,
                    "velocity": 0.3228346456692913,
                    "duration": 0.06231700000000728
                },
                {
                    "name": "E5",
                    "midi": 76,
                    "time": 234.87277300000133,
                    "velocity": 0.28346456692913385,
                    "duration": 0.06231700000000728
                },
                {
                    "name": "D#5",
                    "midi": 75,
                    "time": 234.93509000000134,
                    "velocity": 0.33070866141732286,
                    "duration": 0.06231700000000728
                },
                {
                    "name": "E5",
                    "midi": 76,
                    "time": 234.99740700000135,
                    "velocity": 0.29133858267716534,
                    "duration": 0.06231700000000728
                },
                {
                    "name": "D#5",
                    "midi": 75,
                    "time": 235.05972400000135,
                    "velocity": 0.33070866141732286,
                    "duration": 0.06231700000000728
                },
                {
                    "name": "E5",
                    "midi": 76,
                    "time": 235.12204100000136,
                    "velocity": 0.29133858267716534,
                    "duration": 0.06231700000000728
                },
                {
                    "name": "D#5",
                    "midi": 75,
                    "time": 235.18435800000137,
                    "velocity": 0.33858267716535434,
                    "duration": 0.06231700000000728
                },
                {
                    "name": "E5",
                    "midi": 76,
                    "time": 235.24667500000137,
                    "velocity": 0.2992125984251969,
                    "duration": 0.06231700000000728
                },
                {
                    "name": "D#5",
                    "midi": 75,
                    "time": 235.30899200000138,
                    "velocity": 0.33858267716535434,
                    "duration": 0.06231700000000728
                },
                {
                    "name": "E5",
                    "midi": 76,
                    "time": 235.3713090000014,
                    "velocity": 0.30708661417322836,
                    "duration": 0.06231700000000728
                },
                {
                    "name": "D#5",
                    "midi": 75,
                    "time": 235.4336260000014,
                    "velocity": 0.3464566929133858,
                    "duration": 0.06231700000000728
                },
                {
                    "name": "E5",
                    "midi": 76,
                    "time": 235.4959430000014,
                    "velocity": 0.30708661417322836,
                    "duration": 0.06231700000000728
                },
                {
                    "name": "D#5",
                    "midi": 75,
                    "time": 235.5582600000014,
                    "velocity": 0.3464566929133858,
                    "duration": 0.06231700000000728
                },
                {
                    "name": "E5",
                    "midi": 76,
                    "time": 235.62057700000142,
                    "velocity": 0.2992125984251969,
                    "duration": 0.06231700000000728
                },
                {
                    "name": "D#5",
                    "midi": 75,
                    "time": 235.68289400000143,
                    "velocity": 0.3543307086614173,
                    "duration": 0.06231700000000728
                },
                {
                    "name": "E5",
                    "midi": 76,
                    "time": 235.74521100000143,
                    "velocity": 0.2992125984251969,
                    "duration": 0.06231700000000728
                },
                {
                    "name": "D#5",
                    "midi": 75,
                    "time": 235.80752800000144,
                    "velocity": 0.3543307086614173,
                    "duration": 0.06231700000000728
                },
                {
                    "name": "E5",
                    "midi": 76,
                    "time": 235.86984500000145,
                    "velocity": 0.31496062992125984,
                    "duration": 0.06231700000000728
                },
                {
                    "name": "D#5",
                    "midi": 75,
                    "time": 235.93216200000145,
                    "velocity": 0.3937007874015748,
                    "duration": 0.07478040000000874
                },
                {
                    "name": "E5",
                    "midi": 76,
                    "time": 236.00694240000146,
                    "velocity": 0.3464566929133858,
                    "duration": 0.07478040000000874
                },
                {
                    "name": "D#5",
                    "midi": 75,
                    "time": 236.08172280000147,
                    "velocity": 0.3937007874015748,
                    "duration": 0.07478040000000874
                },
                {
                    "name": "C#5",
                    "midi": 73,
                    "time": 236.15650320000148,
                    "velocity": 0.4094488188976378,
                    "duration": 0.07478040000000874
                },
                {
                    "name": "D#5",
                    "midi": 75,
                    "time": 236.2312836000015,
                    "velocity": 0.3700787401574803,
                    "duration": 0.07478040000000874
                },
                {
                    "name": "E4",
                    "midi": 64,
                    "time": 236.3060640000015,
                    "velocity": 0.3779527559055118,
                    "duration": 2.9912160000000085
                },
                {
                    "name": "E5",
                    "midi": 76,
                    "time": 236.3060640000015,
                    "velocity": 0.44881889763779526,
                    "duration": 0.7478040000000021
                },
                {
                    "name": "D5",
                    "midi": 74,
                    "time": 237.0538680000015,
                    "velocity": 0.3543307086614173,
                    "duration": 0.7478040000000021
                },
                {
                    "name": "B4",
                    "midi": 71,
                    "time": 237.0538680000015,
                    "velocity": 0.2992125984251969,
                    "duration": 0.7478040000000021
                },
                {
                    "name": "G#4",
                    "midi": 68,
                    "time": 237.0538680000015,
                    "velocity": 0.2992125984251969,
                    "duration": 0.7478040000000021
                },
                {
                    "name": "A4",
                    "midi": 69,
                    "time": 237.8016720000015,
                    "velocity": 0.30708661417322836,
                    "duration": 0.7478040000000021
                },
                {
                    "name": "C5",
                    "midi": 72,
                    "time": 237.8016720000015,
                    "velocity": 0.3700787401574803,
                    "duration": 0.7478040000000021
                },
                {
                    "name": "D5",
                    "midi": 74,
                    "time": 238.5494760000015,
                    "velocity": 0.36220472440944884,
                    "duration": 0.7478040000000021
                },
                {
                    "name": "G#4",
                    "midi": 68,
                    "time": 238.5494760000015,
                    "velocity": 0.30708661417322836,
                    "duration": 0.7478040000000021
                },
                {
                    "name": "B4",
                    "midi": 71,
                    "time": 238.5494760000015,
                    "velocity": 0.30708661417322836,
                    "duration": 0.7478040000000021
                },
                {
                    "name": "C5",
                    "midi": 72,
                    "time": 239.2972800000015,
                    "velocity": 0.3779527559055118,
                    "duration": 0.37390199999998686
                },
                {
                    "name": "A4",
                    "midi": 69,
                    "time": 239.2972800000015,
                    "velocity": 0.31496062992125984,
                    "duration": 0.37390199999998686
                },
                {
                    "name": "A4",
                    "midi": 69,
                    "time": 240.04508400000148,
                    "velocity": 0.3700787401574803,
                    "duration": 0.7478040000000021
                },
                {
                    "name": "A3",
                    "midi": 57,
                    "time": 240.04508400000148,
                    "velocity": 0.30708661417322836,
                    "duration": 0.7478040000000021
                },
                {
                    "name": "C4",
                    "midi": 60,
                    "time": 240.04508400000148,
                    "velocity": 0.30708661417322836,
                    "duration": 0.7478040000000021
                },
                {
                    "name": "F#4",
                    "midi": 66,
                    "time": 240.04508400000148,
                    "velocity": 0.30708661417322836,
                    "duration": 0.7478040000000021
                },
                {
                    "name": "G4",
                    "midi": 67,
                    "time": 240.79288800000148,
                    "velocity": 0.36220472440944884,
                    "duration": 0.7478040000000021
                },
                {
                    "name": "B3",
                    "midi": 59,
                    "time": 240.79288800000148,
                    "velocity": 0.30708661417322836,
                    "duration": 0.7478040000000021
                },
                {
                    "name": "E4",
                    "midi": 64,
                    "time": 240.79288800000148,
                    "velocity": 0.30708661417322836,
                    "duration": 0.7478040000000021
                },
                {
                    "name": "D#4",
                    "midi": 63,
                    "time": 241.54069200000148,
                    "velocity": 0.29133858267716534,
                    "duration": 0.7478040000000021
                },
                {
                    "name": "F#4",
                    "midi": 66,
                    "time": 241.54069200000148,
                    "velocity": 0.3464566929133858,
                    "duration": 0.7478040000000021
                },
                {
                    "name": "B3",
                    "midi": 59,
                    "time": 241.54069200000148,
                    "velocity": 0.29133858267716534,
                    "duration": 0.7478040000000021
                },
                {
                    "name": "E4",
                    "midi": 64,
                    "time": 242.2884960000015,
                    "velocity": 0.4409448818897638,
                    "duration": 0.7478040000000021
                },
                {
                    "name": "E3",
                    "midi": 52,
                    "time": 242.2884960000015,
                    "velocity": 0.3543307086614173,
                    "duration": 2.9912160000000085
                },
                {
                    "name": "G#3",
                    "midi": 56,
                    "time": 243.0363000000015,
                    "velocity": 0.2992125984251969,
                    "duration": 0.7478040000000021
                },
                {
                    "name": "D4",
                    "midi": 62,
                    "time": 243.0363000000015,
                    "velocity": 0.3543307086614173,
                    "duration": 0.7478040000000021
                },
                {
                    "name": "B3",
                    "midi": 59,
                    "time": 243.0363000000015,
                    "velocity": 0.2992125984251969,
                    "duration": 0.7478040000000021
                },
                {
                    "name": "A3",
                    "midi": 57,
                    "time": 243.7841040000015,
                    "velocity": 0.30708661417322836,
                    "duration": 0.7478040000000021
                },
                {
                    "name": "C4",
                    "midi": 60,
                    "time": 243.7841040000015,
                    "velocity": 0.3700787401574803,
                    "duration": 0.7478040000000021
                },
                {
                    "name": "D4",
                    "midi": 62,
                    "time": 244.5319080000015,
                    "velocity": 0.36220472440944884,
                    "duration": 0.7478040000000021
                },
                {
                    "name": "B3",
                    "midi": 59,
                    "time": 244.5319080000015,
                    "velocity": 0.30708661417322836,
                    "duration": 0.7478040000000021
                },
                {
                    "name": "G#3",
                    "midi": 56,
                    "time": 244.5319080000015,
                    "velocity": 0.30708661417322836,
                    "duration": 0.7478040000000021
                },
                {
                    "name": "C4",
                    "midi": 60,
                    "time": 245.2797120000015,
                    "velocity": 0.3779527559055118,
                    "duration": 0.37390199999998686
                },
                {
                    "name": "A3",
                    "midi": 57,
                    "time": 245.2797120000015,
                    "velocity": 0.3779527559055118,
                    "duration": 0.37390199999998686
                },
                {
                    "name": "A2",
                    "midi": 45,
                    "time": 246.02751600000147,
                    "velocity": 0.30708661417322836,
                    "duration": 0.7478040000000021
                },
                {
                    "name": "F#3",
                    "midi": 54,
                    "time": 246.02751600000147,
                    "velocity": 0.30708661417322836,
                    "duration": 0.7478040000000021
                },
                {
                    "name": "A3",
                    "midi": 57,
                    "time": 246.02751600000147,
                    "velocity": 0.3700787401574803,
                    "duration": 0.7478040000000021
                },
                {
                    "name": "C3",
                    "midi": 48,
                    "time": 246.02751600000147,
                    "velocity": 0.30708661417322836,
                    "duration": 0.7478040000000021
                },
                {
                    "name": "G3",
                    "midi": 55,
                    "time": 246.77532000000147,
                    "velocity": 0.36220472440944884,
                    "duration": 0.7478040000000021
                },
                {
                    "name": "B2",
                    "midi": 47,
                    "time": 246.77532000000147,
                    "velocity": 0.30708661417322836,
                    "duration": 0.7478040000000021
                },
                {
                    "name": "E3",
                    "midi": 52,
                    "time": 246.77532000000147,
                    "velocity": 0.30708661417322836,
                    "duration": 0.7478040000000021
                },
                {
                    "name": "F#3",
                    "midi": 54,
                    "time": 247.52312400000147,
                    "velocity": 0.3464566929133858,
                    "duration": 0.7478040000000021
                },
                {
                    "name": "D#3",
                    "midi": 51,
                    "time": 247.52312400000147,
                    "velocity": 0.29133858267716534,
                    "duration": 0.7478040000000021
                },
                {
                    "name": "B2",
                    "midi": 47,
                    "time": 247.52312400000147,
                    "velocity": 0.29133858267716534,
                    "duration": 0.7478040000000021
                },
                {
                    "name": "G3",
                    "midi": 55,
                    "time": 248.27092800000148,
                    "velocity": 0.3464566929133858,
                    "duration": 0.18695099999999343
                },
                {
                    "name": "E3",
                    "midi": 52,
                    "time": 248.27092800000148,
                    "velocity": 0.29133858267716534,
                    "duration": 0.18695099999999343
                },
                {
                    "name": "G2",
                    "midi": 43,
                    "time": 248.64483000000146,
                    "velocity": 0.33070866141732286,
                    "duration": 0.37390199999998686
                },
                {
                    "name": "E3",
                    "midi": 52,
                    "time": 248.64483000000146,
                    "velocity": 0.4015748031496063,
                    "duration": 0.5608529999999803
                },
                {
                    "name": "A2",
                    "midi": 45,
                    "time": 249.01873200000145,
                    "velocity": 0.33070866141732286,
                    "duration": 0.7478039999999737
                },
                {
                    "name": "F3",
                    "midi": 53,
                    "time": 249.20568300000144,
                    "velocity": 0.3858267716535433,
                    "duration": 0.18695099999999343
                },
                {
                    "name": "G3",
                    "midi": 55,
                    "time": 249.39263400000144,
                    "velocity": 0.4015748031496063,
                    "duration": 0.18695099999999343
                },
                {
                    "name": "A3",
                    "midi": 57,
                    "time": 249.57958500000143,
                    "velocity": 0.4330708661417323,
                    "duration": 0.18695099999999343
                },
                {
                    "name": "B3",
                    "midi": 59,
                    "time": 249.76653600000142,
                    "velocity": 0.3228346456692913,
                    "duration": 0.7478040000000021
                },
                {
                    "name": "G3",
                    "midi": 55,
                    "time": 249.76653600000142,
                    "velocity": 0.2755905511811024,
                    "duration": 0.7478040000000021
                },
                {
                    "name": "B2",
                    "midi": 47,
                    "time": 249.76653600000142,
                    "velocity": 0.2755905511811024,
                    "duration": 1.4956080000000043
                },
                {
                    "name": "A3",
                    "midi": 57,
                    "time": 250.51434000000143,
                    "velocity": 0.30708661417322836,
                    "duration": 0.7478040000000021
                },
                {
                    "name": "F#3",
                    "midi": 54,
                    "time": 250.51434000000143,
                    "velocity": 0.25984251968503935,
                    "duration": 0.7478040000000021
                },
                {
                    "name": "E3",
                    "midi": 52,
                    "time": 251.26214400000143,
                    "velocity": 0.29133858267716534,
                    "duration": 0.18695099999999343
                },
                {
                    "name": "G3",
                    "midi": 55,
                    "time": 251.26214400000143,
                    "velocity": 0.3464566929133858,
                    "duration": 0.18695099999999343
                },
                {
                    "name": "C3",
                    "midi": 48,
                    "time": 251.26214400000143,
                    "velocity": 0.29133858267716534,
                    "duration": 0.18695099999999343
                },
                {
                    "name": "C3",
                    "midi": 48,
                    "time": 251.63604600000141,
                    "velocity": 0.4015748031496063,
                    "duration": 0.5608529999999803
                },
                {
                    "name": "E2",
                    "midi": 40,
                    "time": 251.63604600000141,
                    "velocity": 0.33070866141732286,
                    "duration": 0.37390199999998686
                },
                {
                    "name": "F2",
                    "midi": 41,
                    "time": 252.0099480000014,
                    "velocity": 0.33070866141732286,
                    "duration": 0.7478039999999737
                },
                {
                    "name": "D3",
                    "midi": 50,
                    "time": 252.1968990000014,
                    "velocity": 0.3858267716535433,
                    "duration": 0.18695099999999343
                },
                {
                    "name": "E3",
                    "midi": 52,
                    "time": 252.3838500000014,
                    "velocity": 0.4015748031496063,
                    "duration": 0.18695099999999343
                },
                {
                    "name": "F3",
                    "midi": 53,
                    "time": 252.57080100000138,
                    "velocity": 0.4330708661417323,
                    "duration": 0.18695099999999343
                },
                {
                    "name": "E3",
                    "midi": 52,
                    "time": 252.75775200000137,
                    "velocity": 0.2755905511811024,
                    "duration": 0.7478040000000021
                },
                {
                    "name": "G3",
                    "midi": 55,
                    "time": 252.75775200000137,
                    "velocity": 0.3228346456692913,
                    "duration": 0.7478040000000021
                },
                {
                    "name": "G2",
                    "midi": 43,
                    "time": 252.75775200000137,
                    "velocity": 0.2755905511811024,
                    "duration": 1.4956080000000043
                },
                {
                    "name": "D3",
                    "midi": 50,
                    "time": 253.50555600000138,
                    "velocity": 0.25984251968503935,
                    "duration": 0.7478040000000021
                },
                {
                    "name": "F3",
                    "midi": 53,
                    "time": 253.50555600000138,
                    "velocity": 0.30708661417322836,
                    "duration": 0.7478040000000021
                },
                {
                    "name": "C3",
                    "midi": 48,
                    "time": 254.25336000000138,
                    "velocity": 0.29133858267716534,
                    "duration": 0.37390199999998686
                },
                {
                    "name": "E3",
                    "midi": 52,
                    "time": 254.25336000000138,
                    "velocity": 0.3464566929133858,
                    "duration": 0.37390199999998686
                },
                {
                    "name": "A2",
                    "midi": 45,
                    "time": 254.62726200000137,
                    "velocity": 0.33070866141732286,
                    "duration": 0.37390199999998686
                },
                {
                    "name": "F3",
                    "midi": 53,
                    "time": 254.62726200000137,
                    "velocity": 0.4015748031496063,
                    "duration": 0.5608529999999803
                },
                {
                    "name": "A#2",
                    "midi": 46,
                    "time": 255.00116400000135,
                    "velocity": 0.33070866141732286,
                    "duration": 0.7478039999999737
                },
                {
                    "name": "G3",
                    "midi": 55,
                    "time": 255.18811500000135,
                    "velocity": 0.3858267716535433,
                    "duration": 0.18695099999999343
                },
                {
                    "name": "A3",
                    "midi": 57,
                    "time": 255.37506600000134,
                    "velocity": 0.4015748031496063,
                    "duration": 0.18695099999999343
                },
                {
                    "name": "A#3",
                    "midi": 58,
                    "time": 255.56201700000133,
                    "velocity": 0.4330708661417323,
                    "duration": 0.18695099999999343
                },
                {
                    "name": "C4",
                    "midi": 60,
                    "time": 255.74896800000133,
                    "velocity": 0.3228346456692913,
                    "duration": 0.7478040000000021
                },
                {
                    "name": "C3",
                    "midi": 48,
                    "time": 255.74896800000133,
                    "velocity": 0.2755905511811024,
                    "duration": 1.4956079999999758
                },
                {
                    "name": "A3",
                    "midi": 57,
                    "time": 255.74896800000133,
                    "velocity": 0.2755905511811024,
                    "duration": 0.7478040000000021
                },
                {
                    "name": "G3",
                    "midi": 55,
                    "time": 256.49677200000133,
                    "velocity": 0.25984251968503935,
                    "duration": 0.7478039999999737
                },
                {
                    "name": "A#3",
                    "midi": 58,
                    "time": 256.49677200000133,
                    "velocity": 0.30708661417322836,
                    "duration": 0.7478039999999737
                },
                {
                    "name": "D3",
                    "midi": 50,
                    "time": 257.2445760000013,
                    "velocity": 0.29133858267716534,
                    "duration": 0.37390199999998686
                },
                {
                    "name": "F3",
                    "midi": 53,
                    "time": 257.2445760000013,
                    "velocity": 0.29133858267716534,
                    "duration": 0.37390199999998686
                },
                {
                    "name": "A3",
                    "midi": 57,
                    "time": 257.2445760000013,
                    "velocity": 0.3464566929133858,
                    "duration": 0.37390199999998686
                },
                {
                    "name": "A1",
                    "midi": 33,
                    "time": 257.6184780000013,
                    "velocity": 0.33070866141732286,
                    "duration": 0.37390199999998686
                },
                {
                    "name": "F2",
                    "midi": 41,
                    "time": 257.6184780000013,
                    "velocity": 0.4015748031496063,
                    "duration": 0.5608530000000087
                },
                {
                    "name": "A#1",
                    "midi": 34,
                    "time": 257.9923800000013,
                    "velocity": 0.33070866141732286,
                    "duration": 0.7478040000000874
                },
                {
                    "name": "G2",
                    "midi": 43,
                    "time": 258.1793310000013,
                    "velocity": 0.3858267716535433,
                    "duration": 0.18695100000002185
                },
                {
                    "name": "A2",
                    "midi": 45,
                    "time": 258.3662820000013,
                    "velocity": 0.4015748031496063,
                    "duration": 0.18695100000002185
                },
                {
                    "name": "A#2",
                    "midi": 46,
                    "time": 258.55323300000134,
                    "velocity": 0.4330708661417323,
                    "duration": 0.18695100000002185
                },
                {
                    "name": "C3",
                    "midi": 48,
                    "time": 258.74018400000136,
                    "velocity": 0.3228346456692913,
                    "duration": 0.7478039999999737
                },
                {
                    "name": "C2",
                    "midi": 36,
                    "time": 258.74018400000136,
                    "velocity": 0.2755905511811024,
                    "duration": 1.4956079999999474
                },
                {
                    "name": "A2",
                    "midi": 45,
                    "time": 258.74018400000136,
                    "velocity": 0.2755905511811024,
                    "duration": 0.7478039999999737
                },
                {
                    "name": "G2",
                    "midi": 43,
                    "time": 259.48798800000134,
                    "velocity": 0.25984251968503935,
                    "duration": 0.7478039999999737
                },
                {
                    "name": "A#2",
                    "midi": 46,
                    "time": 259.48798800000134,
                    "velocity": 0.30708661417322836,
                    "duration": 0.7478039999999737
                },
                {
                    "name": "F2",
                    "midi": 41,
                    "time": 260.2357920000013,
                    "velocity": 0.2204724409448819,
                    "duration": 0.09347550000001092
                },
                {
                    "name": "F1",
                    "midi": 29,
                    "time": 260.2357920000013,
                    "velocity": 0.1968503937007874,
                    "duration": 0.09347550000001092
                },
                {
                    "name": "C2",
                    "midi": 36,
                    "time": 260.42274300000133,
                    "velocity": 0.2047244094488189,
                    "duration": 0.09347550000001092
                },
                {
                    "name": "F1",
                    "midi": 29,
                    "time": 260.42274300000133,
                    "velocity": 0.1732283464566929,
                    "duration": 0.09347550000001092
                },
                {
                    "name": "C2",
                    "midi": 36,
                    "time": 260.60969400000135,
                    "velocity": 0.2047244094488189,
                    "duration": 0.09347550000001092
                },
                {
                    "name": "F1",
                    "midi": 29,
                    "time": 260.60969400000135,
                    "velocity": 0.1732283464566929,
                    "duration": 0.09347550000001092
                },
                {
                    "name": "C2",
                    "midi": 36,
                    "time": 260.7966450000014,
                    "velocity": 0.2125984251968504,
                    "duration": 0.09347550000001092
                },
                {
                    "name": "F1",
                    "midi": 29,
                    "time": 260.7966450000014,
                    "velocity": 0.1732283464566929,
                    "duration": 0.09347550000001092
                },
                {
                    "name": "C2",
                    "midi": 36,
                    "time": 260.9835960000014,
                    "velocity": 0.2125984251968504,
                    "duration": 0.09347550000001092
                },
                {
                    "name": "F1",
                    "midi": 29,
                    "time": 260.9835960000014,
                    "velocity": 0.1732283464566929,
                    "duration": 0.09347550000001092
                },
                {
                    "name": "C2",
                    "midi": 36,
                    "time": 261.1705470000014,
                    "velocity": 0.2204724409448819,
                    "duration": 0.09347550000001092
                },
                {
                    "name": "F1",
                    "midi": 29,
                    "time": 261.1705470000014,
                    "velocity": 0.18110236220472442,
                    "duration": 0.09347550000001092
                },
                {
                    "name": "C2",
                    "midi": 36,
                    "time": 261.35749800000144,
                    "velocity": 0.2204724409448819,
                    "duration": 0.09347550000001092
                },
                {
                    "name": "F1",
                    "midi": 29,
                    "time": 261.35749800000144,
                    "velocity": 0.18110236220472442,
                    "duration": 0.09347550000001092
                },
                {
                    "name": "C2",
                    "midi": 36,
                    "time": 261.54444900000146,
                    "velocity": 0.2283464566929134,
                    "duration": 0.09347550000001092
                },
                {
                    "name": "F1",
                    "midi": 29,
                    "time": 261.54444900000146,
                    "velocity": 0.1889763779527559,
                    "duration": 0.09347550000001092
                },
                {
                    "name": "F1",
                    "midi": 29,
                    "time": 261.7314000000015,
                    "velocity": 0.1968503937007874,
                    "duration": 0.09347550000001092
                },
                {
                    "name": "C2",
                    "midi": 36,
                    "time": 261.7314000000015,
                    "velocity": 0.23622047244094488,
                    "duration": 0.09347550000001092
                },
                {
                    "name": "F1",
                    "midi": 29,
                    "time": 261.9183510000015,
                    "velocity": 0.1732283464566929,
                    "duration": 0.09347550000001092
                },
                {
                    "name": "C2",
                    "midi": 36,
                    "time": 261.9183510000015,
                    "velocity": 0.2125984251968504,
                    "duration": 0.09347550000001092
                },
                {
                    "name": "F1",
                    "midi": 29,
                    "time": 262.10530200000153,
                    "velocity": 0.18110236220472442,
                    "duration": 0.09347550000001092
                },
                {
                    "name": "C2",
                    "midi": 36,
                    "time": 262.10530200000153,
                    "velocity": 0.2204724409448819,
                    "duration": 0.09347550000001092
                },
                {
                    "name": "F1",
                    "midi": 29,
                    "time": 262.29225300000155,
                    "velocity": 0.1889763779527559,
                    "duration": 0.09347550000001092
                },
                {
                    "name": "C2",
                    "midi": 36,
                    "time": 262.29225300000155,
                    "velocity": 0.2283464566929134,
                    "duration": 0.09347550000001092
                },
                {
                    "name": "F1",
                    "midi": 29,
                    "time": 262.4792040000016,
                    "velocity": 0.1968503937007874,
                    "duration": 0.09347550000001092
                },
                {
                    "name": "C2",
                    "midi": 36,
                    "time": 262.4792040000016,
                    "velocity": 0.23622047244094488,
                    "duration": 0.09347550000001092
                },
                {
                    "name": "F1",
                    "midi": 29,
                    "time": 262.6661550000016,
                    "velocity": 0.1968503937007874,
                    "duration": 0.09347550000001092
                },
                {
                    "name": "C2",
                    "midi": 36,
                    "time": 262.6661550000016,
                    "velocity": 0.23622047244094488,
                    "duration": 0.09347550000001092
                },
                {
                    "name": "F1",
                    "midi": 29,
                    "time": 262.8531060000016,
                    "velocity": 0.1968503937007874,
                    "duration": 0.09347550000001092
                },
                {
                    "name": "D2",
                    "midi": 38,
                    "time": 262.8531060000016,
                    "velocity": 0.23622047244094488,
                    "duration": 0.09347550000001092
                },
                {
                    "name": "F1",
                    "midi": 29,
                    "time": 263.04005700000164,
                    "velocity": 0.1968503937007874,
                    "duration": 0.09347550000001092
                },
                {
                    "name": "D2",
                    "midi": 38,
                    "time": 263.04005700000164,
                    "velocity": 0.23622047244094488,
                    "duration": 0.09347550000001092
                },
                {
                    "name": "E2",
                    "midi": 40,
                    "time": 263.22700800000166,
                    "velocity": 0.1968503937007874,
                    "duration": 0.14021324999998797
                },
                {
                    "name": "G2",
                    "midi": 43,
                    "time": 263.22700800000166,
                    "velocity": 0.23622047244094488,
                    "duration": 0.14021324999998797
                },
                {
                    "name": "E2",
                    "midi": 40,
                    "time": 263.4139590000016,
                    "velocity": 0.1968503937007874,
                    "duration": 0.14021324999998797
                },
                {
                    "name": "G2",
                    "midi": 43,
                    "time": 263.4139590000016,
                    "velocity": 0.23622047244094488,
                    "duration": 0.14021324999998797
                },
                {
                    "name": "E2",
                    "midi": 40,
                    "time": 263.6009100000016,
                    "velocity": 0.1968503937007874,
                    "duration": 0.14021324999998797
                },
                {
                    "name": "G2",
                    "midi": 43,
                    "time": 263.6009100000016,
                    "velocity": 0.23622047244094488,
                    "duration": 0.14021324999998797
                },
                {
                    "name": "E2",
                    "midi": 40,
                    "time": 263.78786100000156,
                    "velocity": 0.1968503937007874,
                    "duration": 0.14021324999998797
                },
                {
                    "name": "G2",
                    "midi": 43,
                    "time": 263.78786100000156,
                    "velocity": 0.23622047244094488,
                    "duration": 0.14021324999998797
                },
                {
                    "name": "E2",
                    "midi": 40,
                    "time": 263.9748120000015,
                    "velocity": 0.1968503937007874,
                    "duration": 0.14021324999998797
                },
                {
                    "name": "G2",
                    "midi": 43,
                    "time": 263.9748120000015,
                    "velocity": 0.23622047244094488,
                    "duration": 0.14021324999998797
                },
                {
                    "name": "E2",
                    "midi": 40,
                    "time": 264.1617630000015,
                    "velocity": 0.1968503937007874,
                    "duration": 0.14021324999998797
                },
                {
                    "name": "G2",
                    "midi": 43,
                    "time": 264.1617630000015,
                    "velocity": 0.23622047244094488,
                    "duration": 0.14021324999998797
                },
                {
                    "name": "E2",
                    "midi": 40,
                    "time": 264.34871400000145,
                    "velocity": 0.1968503937007874,
                    "duration": 0.14021324999998797
                },
                {
                    "name": "G2",
                    "midi": 43,
                    "time": 264.34871400000145,
                    "velocity": 0.23622047244094488,
                    "duration": 0.14021324999998797
                },
                {
                    "name": "E2",
                    "midi": 40,
                    "time": 264.5356650000014,
                    "velocity": 0.1968503937007874,
                    "duration": 0.14021324999998797
                },
                {
                    "name": "G2",
                    "midi": 43,
                    "time": 264.5356650000014,
                    "velocity": 0.23622047244094488,
                    "duration": 0.14021324999998797
                },
                {
                    "name": "D#2",
                    "midi": 39,
                    "time": 264.7226160000014,
                    "velocity": 0.1968503937007874,
                    "duration": 0.14021324999998797
                },
                {
                    "name": "G2",
                    "midi": 43,
                    "time": 264.7226160000014,
                    "velocity": 0.23622047244094488,
                    "duration": 0.14021324999998797
                },
                {
                    "name": "D#2",
                    "midi": 39,
                    "time": 264.90956700000135,
                    "velocity": 0.1968503937007874,
                    "duration": 0.14021324999998797
                },
                {
                    "name": "G2",
                    "midi": 43,
                    "time": 264.90956700000135,
                    "velocity": 0.23622047244094488,
                    "duration": 0.14021324999998797
                },
                {
                    "name": "D#2",
                    "midi": 39,
                    "time": 265.0965180000013,
                    "velocity": 0.1968503937007874,
                    "duration": 0.14021324999998797
                },
                {
                    "name": "G2",
                    "midi": 43,
                    "time": 265.0965180000013,
                    "velocity": 0.23622047244094488,
                    "duration": 0.14021324999998797
                },
                {
                    "name": "D#2",
                    "midi": 39,
                    "time": 265.2834690000013,
                    "velocity": 0.1968503937007874,
                    "duration": 0.14021324999998797
                },
                {
                    "name": "G2",
                    "midi": 43,
                    "time": 265.2834690000013,
                    "velocity": 0.23622047244094488,
                    "duration": 0.14021324999998797
                },
                {
                    "name": "D#2",
                    "midi": 39,
                    "time": 265.47042000000124,
                    "velocity": 0.1968503937007874,
                    "duration": 0.14021324999998797
                },
                {
                    "name": "G2",
                    "midi": 43,
                    "time": 265.47042000000124,
                    "velocity": 0.23622047244094488,
                    "duration": 0.14021324999998797
                },
                {
                    "name": "D#2",
                    "midi": 39,
                    "time": 265.6573710000012,
                    "velocity": 0.1968503937007874,
                    "duration": 0.14021324999998797
                },
                {
                    "name": "G2",
                    "midi": 43,
                    "time": 265.6573710000012,
                    "velocity": 0.23622047244094488,
                    "duration": 0.14021324999998797
                },
                {
                    "name": "D#2",
                    "midi": 39,
                    "time": 265.84432200000117,
                    "velocity": 0.1968503937007874,
                    "duration": 0.14021324999998797
                },
                {
                    "name": "G2",
                    "midi": 43,
                    "time": 265.84432200000117,
                    "velocity": 0.23622047244094488,
                    "duration": 0.14021324999998797
                },
                {
                    "name": "D#2",
                    "midi": 39,
                    "time": 266.03127300000114,
                    "velocity": 0.1968503937007874,
                    "duration": 0.14021324999998797
                },
                {
                    "name": "G2",
                    "midi": 43,
                    "time": 266.03127300000114,
                    "velocity": 0.23622047244094488,
                    "duration": 0.14021324999998797
                },
                {
                    "name": "D2",
                    "midi": 38,
                    "time": 266.2182240000011,
                    "velocity": 0.1968503937007874,
                    "duration": 0.14021324999998797
                },
                {
                    "name": "A2",
                    "midi": 45,
                    "time": 266.2182240000011,
                    "velocity": 0.23622047244094488,
                    "duration": 0.14021324999998797
                },
                {
                    "name": "D2",
                    "midi": 38,
                    "time": 266.40517500000107,
                    "velocity": 0.1968503937007874,
                    "duration": 0.14021324999998797
                },
                {
                    "name": "A2",
                    "midi": 45,
                    "time": 266.40517500000107,
                    "velocity": 0.23622047244094488,
                    "duration": 0.14021324999998797
                },
                {
                    "name": "D2",
                    "midi": 38,
                    "time": 266.59212600000103,
                    "velocity": 0.1968503937007874,
                    "duration": 0.14021324999998797
                },
                {
                    "name": "A2",
                    "midi": 45,
                    "time": 266.59212600000103,
                    "velocity": 0.23622047244094488,
                    "duration": 0.14021324999998797
                },
                {
                    "name": "D2",
                    "midi": 38,
                    "time": 266.779077000001,
                    "velocity": 0.1968503937007874,
                    "duration": 0.14021324999998797
                },
                {
                    "name": "A2",
                    "midi": 45,
                    "time": 266.779077000001,
                    "velocity": 0.23622047244094488,
                    "duration": 0.14021324999998797
                },
                {
                    "name": "D2",
                    "midi": 38,
                    "time": 266.96602800000096,
                    "velocity": 0.1968503937007874,
                    "duration": 0.14021324999998797
                },
                {
                    "name": "A2",
                    "midi": 45,
                    "time": 266.96602800000096,
                    "velocity": 0.23622047244094488,
                    "duration": 0.14021324999998797
                },
                {
                    "name": "D2",
                    "midi": 38,
                    "time": 267.1529790000009,
                    "velocity": 0.1968503937007874,
                    "duration": 0.14021324999998797
                },
                {
                    "name": "A2",
                    "midi": 45,
                    "time": 267.1529790000009,
                    "velocity": 0.23622047244094488,
                    "duration": 0.14021324999998797
                },
                {
                    "name": "D2",
                    "midi": 38,
                    "time": 267.3399300000009,
                    "velocity": 0.1968503937007874,
                    "duration": 0.14021324999998797
                },
                {
                    "name": "A2",
                    "midi": 45,
                    "time": 267.3399300000009,
                    "velocity": 0.23622047244094488,
                    "duration": 0.14021324999998797
                },
                {
                    "name": "D2",
                    "midi": 38,
                    "time": 267.52688100000086,
                    "velocity": 0.1968503937007874,
                    "duration": 0.14021324999998797
                },
                {
                    "name": "A2",
                    "midi": 45,
                    "time": 267.52688100000086,
                    "velocity": 0.23622047244094488,
                    "duration": 0.14021324999998797
                },
                {
                    "name": "F#2",
                    "midi": 42,
                    "time": 267.7138320000008,
                    "velocity": 0.1968503937007874,
                    "duration": 0.14021324999998797
                },
                {
                    "name": "D3",
                    "midi": 50,
                    "time": 267.7138320000008,
                    "velocity": 0.23622047244094488,
                    "duration": 0.14021324999998797
                },
                {
                    "name": "F#2",
                    "midi": 42,
                    "time": 267.9007830000008,
                    "velocity": 0.1968503937007874,
                    "duration": 0.14021324999998797
                },
                {
                    "name": "D3",
                    "midi": 50,
                    "time": 267.9007830000008,
                    "velocity": 0.23622047244094488,
                    "duration": 0.14021324999998797
                },
                {
                    "name": "F#2",
                    "midi": 42,
                    "time": 268.08773400000075,
                    "velocity": 0.1968503937007874,
                    "duration": 0.14021324999998797
                },
                {
                    "name": "D3",
                    "midi": 50,
                    "time": 268.08773400000075,
                    "velocity": 0.23622047244094488,
                    "duration": 0.14021324999998797
                },
                {
                    "name": "F#2",
                    "midi": 42,
                    "time": 268.2746850000007,
                    "velocity": 0.1968503937007874,
                    "duration": 0.14021324999998797
                },
                {
                    "name": "D3",
                    "midi": 50,
                    "time": 268.2746850000007,
                    "velocity": 0.23622047244094488,
                    "duration": 0.14021324999998797
                },
                {
                    "name": "F#2",
                    "midi": 42,
                    "time": 268.4616360000007,
                    "velocity": 0.1968503937007874,
                    "duration": 0.14021324999998797
                },
                {
                    "name": "D3",
                    "midi": 50,
                    "time": 268.4616360000007,
                    "velocity": 0.23622047244094488,
                    "duration": 0.14021324999998797
                },
                {
                    "name": "F#2",
                    "midi": 42,
                    "time": 268.64858700000065,
                    "velocity": 0.1968503937007874,
                    "duration": 0.14021324999998797
                },
                {
                    "name": "D3",
                    "midi": 50,
                    "time": 268.64858700000065,
                    "velocity": 0.23622047244094488,
                    "duration": 0.14021324999998797
                },
                {
                    "name": "F#2",
                    "midi": 42,
                    "time": 268.8355380000006,
                    "velocity": 0.1968503937007874,
                    "duration": 0.14021324999998797
                },
                {
                    "name": "D3",
                    "midi": 50,
                    "time": 268.8355380000006,
                    "velocity": 0.23622047244094488,
                    "duration": 0.14021324999998797
                },
                {
                    "name": "F#2",
                    "midi": 42,
                    "time": 269.0224890000006,
                    "velocity": 0.1968503937007874,
                    "duration": 0.14021324999998797
                },
                {
                    "name": "D3",
                    "midi": 50,
                    "time": 269.0224890000006,
                    "velocity": 0.23622047244094488,
                    "duration": 0.14021324999998797
                },
                {
                    "name": "G2",
                    "midi": 43,
                    "time": 269.20944000000054,
                    "velocity": 0.23622047244094488,
                    "duration": 0.12852881250000792
                },
                {
                    "name": "D3",
                    "midi": 50,
                    "time": 269.30291550000055,
                    "velocity": 0.2047244094488189,
                    "duration": 0.09347550000001092
                },
                {
                    "name": "G2",
                    "midi": 43,
                    "time": 269.39639100000056,
                    "velocity": 0.23622047244094488,
                    "duration": 0.12852881250000792
                },
                {
                    "name": "D3",
                    "midi": 50,
                    "time": 269.4898665000006,
                    "velocity": 0.2125984251968504,
                    "duration": 0.09347550000001092
                },
                {
                    "name": "G2",
                    "midi": 43,
                    "time": 269.5833420000006,
                    "velocity": 0.23622047244094488,
                    "duration": 0.12852881250000792
                },
                {
                    "name": "D3",
                    "midi": 50,
                    "time": 269.6768175000006,
                    "velocity": 0.2047244094488189,
                    "duration": 0.09347550000001092
                },
                {
                    "name": "G2",
                    "midi": 43,
                    "time": 269.7702930000006,
                    "velocity": 0.23622047244094488,
                    "duration": 0.12852881250000792
                },
                {
                    "name": "D3",
                    "midi": 50,
                    "time": 269.8637685000006,
                    "velocity": 0.1968503937007874,
                    "duration": 0.09347550000001092
                },
                {
                    "name": "A2",
                    "midi": 45,
                    "time": 269.9572440000006,
                    "velocity": 0.2440944881889764,
                    "duration": 0.12852881250000792
                },
                {
                    "name": "D3",
                    "midi": 50,
                    "time": 270.05071950000064,
                    "velocity": 0.2047244094488189,
                    "duration": 0.09347550000001092
                },
                {
                    "name": "A2",
                    "midi": 45,
                    "time": 270.14419500000065,
                    "velocity": 0.2440944881889764,
                    "duration": 0.12852881250000792
                },
                {
                    "name": "D3",
                    "midi": 50,
                    "time": 270.23767050000066,
                    "velocity": 0.2125984251968504,
                    "duration": 0.09347550000001092
                },
                {
                    "name": "A2",
                    "midi": 45,
                    "time": 270.3311460000007,
                    "velocity": 0.2440944881889764,
                    "duration": 0.12852881250000792
                },
                {
                    "name": "D3",
                    "midi": 50,
                    "time": 270.4246215000007,
                    "velocity": 0.2204724409448819,
                    "duration": 0.09347550000001092
                },
                {
                    "name": "A2",
                    "midi": 45,
                    "time": 270.5180970000007,
                    "velocity": 0.2440944881889764,
                    "duration": 0.12852881250000792
                },
                {
                    "name": "D3",
                    "midi": 50,
                    "time": 270.6115725000007,
                    "velocity": 0.2125984251968504,
                    "duration": 0.09347550000001092
                },
                {
                    "name": "A#2",
                    "midi": 46,
                    "time": 270.7050480000007,
                    "velocity": 0.23622047244094488,
                    "duration": 0.12852881250000792
                },
                {
                    "name": "D3",
                    "midi": 50,
                    "time": 270.7985235000007,
                    "velocity": 0.2047244094488189,
                    "duration": 0.09347550000001092
                },
                {
                    "name": "A#2",
                    "midi": 46,
                    "time": 270.89199900000074,
                    "velocity": 0.23622047244094488,
                    "duration": 0.12852881250000792
                },
                {
                    "name": "D3",
                    "midi": 50,
                    "time": 270.98547450000075,
                    "velocity": 0.2125984251968504,
                    "duration": 0.09347550000001092
                },
                {
                    "name": "A#2",
                    "midi": 46,
                    "time": 271.07895000000076,
                    "velocity": 0.23622047244094488,
                    "duration": 0.12852881250000792
                },
                {
                    "name": "D3",
                    "midi": 50,
                    "time": 271.17242550000077,
                    "velocity": 0.2047244094488189,
                    "duration": 0.09347550000001092
                },
                {
                    "name": "A#2",
                    "midi": 46,
                    "time": 271.2659010000008,
                    "velocity": 0.23622047244094488,
                    "duration": 0.12852881250000792
                },
                {
                    "name": "D3",
                    "midi": 50,
                    "time": 271.3593765000008,
                    "velocity": 0.1968503937007874,
                    "duration": 0.09347550000001092
                },
                {
                    "name": "F#2",
                    "midi": 42,
                    "time": 271.4528520000008,
                    "velocity": 0.2440944881889764,
                    "duration": 0.12852881250000792
                },
                {
                    "name": "D3",
                    "midi": 50,
                    "time": 271.5463275000008,
                    "velocity": 0.2047244094488189,
                    "duration": 0.09347550000001092
                },
                {
                    "name": "F#2",
                    "midi": 42,
                    "time": 271.6398030000008,
                    "velocity": 0.2440944881889764,
                    "duration": 0.12852881250000792
                },
                {
                    "name": "D3",
                    "midi": 50,
                    "time": 271.73327850000084,
                    "velocity": 0.2125984251968504,
                    "duration": 0.09347550000001092
                },
                {
                    "name": "F#2",
                    "midi": 42,
                    "time": 271.82675400000085,
                    "velocity": 0.2440944881889764,
                    "duration": 0.12852881250000792
                },
                {
                    "name": "D3",
                    "midi": 50,
                    "time": 271.92022950000086,
                    "velocity": 0.2204724409448819,
                    "duration": 0.09347550000001092
                },
                {
                    "name": "F#2",
                    "midi": 42,
                    "time": 272.01370500000087,
                    "velocity": 0.2440944881889764,
                    "duration": 0.12852881250000792
                },
                {
                    "name": "D3",
                    "midi": 50,
                    "time": 272.1071805000009,
                    "velocity": 0.2125984251968504,
                    "duration": 0.09347550000001092
                },
                {
                    "name": "G2",
                    "midi": 43,
                    "time": 272.2006560000009,
                    "velocity": 0.2440944881889764,
                    "duration": 0.12852881250000792
                },
                {
                    "name": "D3",
                    "midi": 50,
                    "time": 272.2941315000009,
                    "velocity": 0.2125984251968504,
                    "duration": 0.09347550000001092
                },
                {
                    "name": "G2",
                    "midi": 43,
                    "time": 272.3876070000009,
                    "velocity": 0.2440944881889764,
                    "duration": 0.12852881250000792
                },
                {
                    "name": "D3",
                    "midi": 50,
                    "time": 272.4810825000009,
                    "velocity": 0.2283464566929134,
                    "duration": 0.09347550000001092
                },
                {
                    "name": "G2",
                    "midi": 43,
                    "time": 272.57455800000093,
                    "velocity": 0.25196850393700787,
                    "duration": 0.12852881250000792
                },
                {
                    "name": "D3",
                    "midi": 50,
                    "time": 272.66803350000094,
                    "velocity": 0.2204724409448819,
                    "duration": 0.09347550000001092
                },
                {
                    "name": "G2",
                    "midi": 43,
                    "time": 272.76150900000096,
                    "velocity": 0.2677165354330709,
                    "duration": 0.12852881250000792
                },
                {
                    "name": "D3",
                    "midi": 50,
                    "time": 272.85498450000097,
                    "velocity": 0.2283464566929134,
                    "duration": 0.09347550000001092
                },
                {
                    "name": "A2",
                    "midi": 45,
                    "time": 272.948460000001,
                    "velocity": 0.28346456692913385,
                    "duration": 0.12852881250000792
                },
                {
                    "name": "D3",
                    "midi": 50,
                    "time": 273.041935500001,
                    "velocity": 0.2440944881889764,
                    "duration": 0.09347550000001092
                },
                {
                    "name": "A2",
                    "midi": 45,
                    "time": 273.135411000001,
                    "velocity": 0.2992125984251969,
                    "duration": 0.12852881250000792
                },
                {
                    "name": "D3",
                    "midi": 50,
                    "time": 273.228886500001,
                    "velocity": 0.2755905511811024,
                    "duration": 0.09347550000001092
                },
                {
                    "name": "A2",
                    "midi": 45,
                    "time": 273.322362000001,
                    "velocity": 0.31496062992125984,
                    "duration": 0.12852881250000792
                },
                {
                    "name": "D3",
                    "midi": 50,
                    "time": 273.41583750000103,
                    "velocity": 0.29133858267716534,
                    "duration": 0.09347550000001092
                },
                {
                    "name": "A2",
                    "midi": 45,
                    "time": 273.50931300000104,
                    "velocity": 0.33858267716535434,
                    "duration": 0.12852881250000792
                },
                {
                    "name": "D3",
                    "midi": 50,
                    "time": 273.60278850000105,
                    "velocity": 0.2992125984251969,
                    "duration": 0.09347550000001092
                },
                {
                    "name": "A#2",
                    "midi": 46,
                    "time": 273.69626400000107,
                    "velocity": 0.3543307086614173,
                    "duration": 0.12852881250000792
                },
                {
                    "name": "D3",
                    "midi": 50,
                    "time": 273.7897395000011,
                    "velocity": 0.30708661417322836,
                    "duration": 0.09347550000001092
                },
                {
                    "name": "A#2",
                    "midi": 46,
                    "time": 273.8832150000011,
                    "velocity": 0.3779527559055118,
                    "duration": 0.12852881250000792
                },
                {
                    "name": "D3",
                    "midi": 50,
                    "time": 273.9766905000011,
                    "velocity": 0.33070866141732286,
                    "duration": 0.09347550000001092
                },
                {
                    "name": "A#2",
                    "midi": 46,
                    "time": 274.0701660000011,
                    "velocity": 0.3937007874015748,
                    "duration": 0.12852881250000792
                },
                {
                    "name": "G3",
                    "midi": 55,
                    "time": 274.1636415000011,
                    "velocity": 0.36220472440944884,
                    "duration": 0.09347550000001092
                },
                {
                    "name": "A#2",
                    "midi": 46,
                    "time": 274.25711700000113,
                    "velocity": 0.4251968503937008,
                    "duration": 0.12852881250000792
                },
                {
                    "name": "G3",
                    "midi": 55,
                    "time": 274.35059250000114,
                    "velocity": 0.4015748031496063,
                    "duration": 0.09347550000001092
                },
                {
                    "name": "B2",
                    "midi": 47,
                    "time": 274.44406800000115,
                    "velocity": 0.5039370078740157,
                    "duration": 0.12852881250000792
                },
                {
                    "name": "G3",
                    "midi": 55,
                    "time": 274.53754350000116,
                    "velocity": 0.41732283464566927,
                    "duration": 0.09347550000001092
                },
                {
                    "name": "B2",
                    "midi": 47,
                    "time": 274.6310190000012,
                    "velocity": 0.5039370078740157,
                    "duration": 0.12852881250000792
                },
                {
                    "name": "G3",
                    "midi": 55,
                    "time": 274.7244945000012,
                    "velocity": 0.4409448818897638,
                    "duration": 0.09347550000001092
                },
                {
                    "name": "B2",
                    "midi": 47,
                    "time": 274.8179700000012,
                    "velocity": 0.5196850393700787,
                    "duration": 0.12852881250000792
                },
                {
                    "name": "G3",
                    "midi": 55,
                    "time": 274.9114455000012,
                    "velocity": 0.4645669291338583,
                    "duration": 0.09347550000001092
                },
                {
                    "name": "B2",
                    "midi": 47,
                    "time": 275.0049210000012,
                    "velocity": 0.5196850393700787,
                    "duration": 0.12852881250000792
                },
                {
                    "name": "G3",
                    "midi": 55,
                    "time": 275.09839650000123,
                    "velocity": 0.44881889763779526,
                    "duration": 0.09347550000001092
                },
                {
                    "name": "C3",
                    "midi": 48,
                    "time": 275.19187200000124,
                    "velocity": 0.23622047244094488,
                    "duration": 0.12852881250000792
                },
                {
                    "name": "G3",
                    "midi": 55,
                    "time": 275.28534750000125,
                    "velocity": 0.2047244094488189,
                    "duration": 0.09347550000001092
                },
                {
                    "name": "C3",
                    "midi": 48,
                    "time": 275.37882300000126,
                    "velocity": 0.23622047244094488,
                    "duration": 0.12852881250000792
                },
                {
                    "name": "G3",
                    "midi": 55,
                    "time": 275.4722985000013,
                    "velocity": 0.2125984251968504,
                    "duration": 0.09347550000001092
                },
                {
                    "name": "C3",
                    "midi": 48,
                    "time": 275.5657740000013,
                    "velocity": 0.23622047244094488,
                    "duration": 0.12852881250000792
                },
                {
                    "name": "G3",
                    "midi": 55,
                    "time": 275.6592495000013,
                    "velocity": 0.2047244094488189,
                    "duration": 0.09347550000001092
                },
                {
                    "name": "C3",
                    "midi": 48,
                    "time": 275.7527250000013,
                    "velocity": 0.23622047244094488,
                    "duration": 0.12852881250000792
                },
                {
                    "name": "G3",
                    "midi": 55,
                    "time": 275.8462005000013,
                    "velocity": 0.1968503937007874,
                    "duration": 0.09347550000001092
                },
                {
                    "name": "D3",
                    "midi": 50,
                    "time": 275.9396760000013,
                    "velocity": 0.2440944881889764,
                    "duration": 0.12852881250000792
                },
                {
                    "name": "G3",
                    "midi": 55,
                    "time": 276.03315150000134,
                    "velocity": 0.2047244094488189,
                    "duration": 0.09347550000001092
                },
                {
                    "name": "D3",
                    "midi": 50,
                    "time": 276.12662700000135,
                    "velocity": 0.2440944881889764,
                    "duration": 0.12852881250000792
                },
                {
                    "name": "G3",
                    "midi": 55,
                    "time": 276.22010250000136,
                    "velocity": 0.2125984251968504,
                    "duration": 0.09347550000001092
                },
                {
                    "name": "D3",
                    "midi": 50,
                    "time": 276.31357800000137,
                    "velocity": 0.2440944881889764,
                    "duration": 0.12852881250000792
                },
                {
                    "name": "G3",
                    "midi": 55,
                    "time": 276.4070535000014,
                    "velocity": 0.2204724409448819,
                    "duration": 0.09347550000001092
                },
                {
                    "name": "D3",
                    "midi": 50,
                    "time": 276.5005290000014,
                    "velocity": 0.2440944881889764,
                    "duration": 0.12852881250000792
                },
                {
                    "name": "G3",
                    "midi": 55,
                    "time": 276.5940045000014,
                    "velocity": 0.2125984251968504,
                    "duration": 0.09347550000001092
                },
                {
                    "name": "D#3",
                    "midi": 51,
                    "time": 276.6874800000014,
                    "velocity": 0.23622047244094488,
                    "duration": 0.12852881250000792
                },
                {
                    "name": "G3",
                    "midi": 55,
                    "time": 276.7809555000014,
                    "velocity": 0.2047244094488189,
                    "duration": 0.09347550000001092
                },
                {
                    "name": "D#3",
                    "midi": 51,
                    "time": 276.87443100000144,
                    "velocity": 0.23622047244094488,
                    "duration": 0.12852881250000792
                },
                {
                    "name": "G3",
                    "midi": 55,
                    "time": 276.96790650000145,
                    "velocity": 0.2125984251968504,
                    "duration": 0.09347550000001092
                },
                {
                    "name": "D#3",
                    "midi": 51,
                    "time": 277.06138200000146,
                    "velocity": 0.23622047244094488,
                    "duration": 0.12852881250000792
                },
                {
                    "name": "G3",
                    "midi": 55,
                    "time": 277.15485750000147,
                    "velocity": 0.2047244094488189,
                    "duration": 0.09347550000001092
                },
                {
                    "name": "D#3",
                    "midi": 51,
                    "time": 277.2483330000015,
                    "velocity": 0.23622047244094488,
                    "duration": 0.12852881250000792
                },
                {
                    "name": "G3",
                    "midi": 55,
                    "time": 277.3418085000015,
                    "velocity": 0.1968503937007874,
                    "duration": 0.09347550000001092
                },
                {
                    "name": "B2",
                    "midi": 47,
                    "time": 277.4352840000015,
                    "velocity": 0.2440944881889764,
                    "duration": 0.12852881250000792
                },
                {
                    "name": "G3",
                    "midi": 55,
                    "time": 277.5287595000015,
                    "velocity": 0.2047244094488189,
                    "duration": 0.09347550000001092
                },
                {
                    "name": "B2",
                    "midi": 47,
                    "time": 277.6222350000015,
                    "velocity": 0.2440944881889764,
                    "duration": 0.12852881250000792
                },
                {
                    "name": "G3",
                    "midi": 55,
                    "time": 277.71571050000153,
                    "velocity": 0.2125984251968504,
                    "duration": 0.09347550000001092
                },
                {
                    "name": "B2",
                    "midi": 47,
                    "time": 277.80918600000155,
                    "velocity": 0.2440944881889764,
                    "duration": 0.12852881250000792
                },
                {
                    "name": "G3",
                    "midi": 55,
                    "time": 277.90266150000156,
                    "velocity": 0.2204724409448819,
                    "duration": 0.09347550000001092
                },
                {
                    "name": "B2",
                    "midi": 47,
                    "time": 277.99613700000157,
                    "velocity": 0.2440944881889764,
                    "duration": 0.12852881250000792
                },
                {
                    "name": "G3",
                    "midi": 55,
                    "time": 278.0896125000016,
                    "velocity": 0.2125984251968504,
                    "duration": 0.09347550000001092
                },
                {
                    "name": "C3",
                    "midi": 48,
                    "time": 278.1830880000016,
                    "velocity": 0.2440944881889764,
                    "duration": 0.12852881250000792
                },
                {
                    "name": "G3",
                    "midi": 55,
                    "time": 278.2765635000016,
                    "velocity": 0.2125984251968504,
                    "duration": 0.09347550000001092
                },
                {
                    "name": "C3",
                    "midi": 48,
                    "time": 278.3700390000016,
                    "velocity": 0.2440944881889764,
                    "duration": 0.12852881250000792
                },
                {
                    "name": "G3",
                    "midi": 55,
                    "time": 278.4635145000016,
                    "velocity": 0.2283464566929134,
                    "duration": 0.09347550000001092
                },
                {
                    "name": "C3",
                    "midi": 48,
                    "time": 278.55699000000163,
                    "velocity": 0.25196850393700787,
                    "duration": 0.12852881250000792
                },
                {
                    "name": "G3",
                    "midi": 55,
                    "time": 278.65046550000164,
                    "velocity": 0.2204724409448819,
                    "duration": 0.09347550000001092
                },
                {
                    "name": "C3",
                    "midi": 48,
                    "time": 278.74394100000166,
                    "velocity": 0.2677165354330709,
                    "duration": 0.12852881250000792
                },
                {
                    "name": "G3",
                    "midi": 55,
                    "time": 278.83741650000167,
                    "velocity": 0.2283464566929134,
                    "duration": 0.09347550000001092
                },
                {
                    "name": "D3",
                    "midi": 50,
                    "time": 278.9308920000017,
                    "velocity": 0.28346456692913385,
                    "duration": 0.12852881250000792
                },
                {
                    "name": "G3",
                    "midi": 55,
                    "time": 279.0243675000017,
                    "velocity": 0.2440944881889764,
                    "duration": 0.09347550000001092
                },
                {
                    "name": "D3",
                    "midi": 50,
                    "time": 279.1178430000017,
                    "velocity": 0.2992125984251969,
                    "duration": 0.12852881250000792
                },
                {
                    "name": "G3",
                    "midi": 55,
                    "time": 279.2113185000017,
                    "velocity": 0.2755905511811024,
                    "duration": 0.09347550000001092
                },
                {
                    "name": "D3",
                    "midi": 50,
                    "time": 279.3047940000017,
                    "velocity": 0.31496062992125984,
                    "duration": 0.12852881250000792
                },
                {
                    "name": "G3",
                    "midi": 55,
                    "time": 279.39826950000173,
                    "velocity": 0.29133858267716534,
                    "duration": 0.09347550000001092
                },
                {
                    "name": "D3",
                    "midi": 50,
                    "time": 279.49174500000174,
                    "velocity": 0.33858267716535434,
                    "duration": 0.12852881250000792
                },
                {
                    "name": "G3",
                    "midi": 55,
                    "time": 279.58522050000175,
                    "velocity": 0.2992125984251969,
                    "duration": 0.09347550000001092
                },
                {
                    "name": "D#3",
                    "midi": 51,
                    "time": 279.67869600000176,
                    "velocity": 0.3543307086614173,
                    "duration": 0.12852881250000792
                },
                {
                    "name": "G3",
                    "midi": 55,
                    "time": 279.7721715000018,
                    "velocity": 0.30708661417322836,
                    "duration": 0.09347550000001092
                },
                {
                    "name": "D#3",
                    "midi": 51,
                    "time": 279.8656470000018,
                    "velocity": 0.3779527559055118,
                    "duration": 0.12852881250000792
                },
                {
                    "name": "G3",
                    "midi": 55,
                    "time": 279.9591225000018,
                    "velocity": 0.33070866141732286,
                    "duration": 0.09347550000001092
                },
                {
                    "name": "D#3",
                    "midi": 51,
                    "time": 280.0525980000018,
                    "velocity": 0.3937007874015748,
                    "duration": 0.12852881250000792
                },
                {
                    "name": "C4",
                    "midi": 60,
                    "time": 280.1460735000018,
                    "velocity": 0.36220472440944884,
                    "duration": 0.09347550000001092
                },
                {
                    "name": "D#3",
                    "midi": 51,
                    "time": 280.23954900000183,
                    "velocity": 0.4251968503937008,
                    "duration": 0.12852881250000792
                },
                {
                    "name": "C4",
                    "midi": 60,
                    "time": 280.33302450000184,
                    "velocity": 0.3700787401574803,
                    "duration": 0.09347550000001092
                },
                {
                    "name": "E3",
                    "midi": 52,
                    "time": 280.42650000000185,
                    "velocity": 0.5039370078740157,
                    "duration": 0.12852881250000792
                },
                {
                    "name": "C4",
                    "midi": 60,
                    "time": 280.51997550000186,
                    "velocity": 0.41732283464566927,
                    "duration": 0.09347550000001092
                },
                {
                    "name": "E3",
                    "midi": 52,
                    "time": 280.6134510000019,
                    "velocity": 0.5039370078740157,
                    "duration": 0.12852881250000792
                },
                {
                    "name": "C4",
                    "midi": 60,
                    "time": 280.7069265000019,
                    "velocity": 0.4409448818897638,
                    "duration": 0.09347550000001092
                },
                {
                    "name": "E3",
                    "midi": 52,
                    "time": 280.8004020000019,
                    "velocity": 0.5196850393700787,
                    "duration": 0.12852881250000792
                },
                {
                    "name": "C4",
                    "midi": 60,
                    "time": 280.8938775000019,
                    "velocity": 0.4645669291338583,
                    "duration": 0.09347550000001092
                },
                {
                    "name": "E3",
                    "midi": 52,
                    "time": 280.9873530000019,
                    "velocity": 0.5196850393700787,
                    "duration": 0.12852881250000792
                },
                {
                    "name": "C4",
                    "midi": 60,
                    "time": 281.0808285000019,
                    "velocity": 0.44881889763779526,
                    "duration": 0.09347550000001092
                },
                {
                    "name": "F3",
                    "midi": 53,
                    "time": 281.17430400000194,
                    "velocity": 0.1968503937007874,
                    "duration": 0.09347550000001092
                },
                {
                    "name": "G#3",
                    "midi": 56,
                    "time": 281.26777950000195,
                    "velocity": 0.1732283464566929,
                    "duration": 0.09347550000001092
                },
                {
                    "name": "C4",
                    "midi": 60,
                    "time": 281.36125500000196,
                    "velocity": 0.1732283464566929,
                    "duration": 0.09347550000001092
                },
                {
                    "name": "F4",
                    "midi": 65,
                    "time": 281.454730500002,
                    "velocity": 0.1732283464566929,
                    "duration": 0.09347550000001092
                },
                {
                    "name": "F3",
                    "midi": 53,
                    "time": 281.548206000002,
                    "velocity": 0.1968503937007874,
                    "duration": 0.09347550000001092
                },
                {
                    "name": "G#3",
                    "midi": 56,
                    "time": 281.641681500002,
                    "velocity": 0.1732283464566929,
                    "duration": 0.09347550000001092
                },
                {
                    "name": "C4",
                    "midi": 60,
                    "time": 281.735157000002,
                    "velocity": 0.1732283464566929,
                    "duration": 0.09347550000001092
                },
                {
                    "name": "F4",
                    "midi": 65,
                    "time": 281.828632500002,
                    "velocity": 0.1732283464566929,
                    "duration": 0.09347550000001092
                },
                {
                    "name": "F3",
                    "midi": 53,
                    "time": 281.922108000002,
                    "velocity": 0.2047244094488189,
                    "duration": 0.09347550000001092
                },
                {
                    "name": "A#3",
                    "midi": 58,
                    "time": 282.01558350000204,
                    "velocity": 0.1732283464566929,
                    "duration": 0.09347550000001092
                },
                {
                    "name": "C#4",
                    "midi": 61,
                    "time": 282.10905900000205,
                    "velocity": 0.1732283464566929,
                    "duration": 0.09347550000001092
                },
                {
                    "name": "F4",
                    "midi": 65,
                    "time": 282.20253450000206,
                    "velocity": 0.1732283464566929,
                    "duration": 0.09347550000001092
                },
                {
                    "name": "F3",
                    "midi": 53,
                    "time": 282.29601000000207,
                    "velocity": 0.2047244094488189,
                    "duration": 0.09347550000001092
                },
                {
                    "name": "A#3",
                    "midi": 58,
                    "time": 282.3894855000021,
                    "velocity": 0.18110236220472442,
                    "duration": 0.09347550000001092
                },
                {
                    "name": "C#4",
                    "midi": 61,
                    "time": 282.4829610000021,
                    "velocity": 0.1732283464566929,
                    "duration": 0.09347550000001092
                },
                {
                    "name": "F4",
                    "midi": 65,
                    "time": 282.5764365000021,
                    "velocity": 0.1732283464566929,
                    "duration": 0.09347550000001092
                },
                {
                    "name": "E3",
                    "midi": 52,
                    "time": 282.6699120000021,
                    "velocity": 0.1968503937007874,
                    "duration": 0.09347550000001092
                },
                {
                    "name": "F#3",
                    "midi": 54,
                    "time": 282.7633875000021,
                    "velocity": 0.1732283464566929,
                    "duration": 0.09347550000001092
                },
                {
                    "name": "A#3",
                    "midi": 58,
                    "time": 282.85686300000214,
                    "velocity": 0.1732283464566929,
                    "duration": 0.09347550000001092
                },
                {
                    "name": "C#4",
                    "midi": 61,
                    "time": 282.95033850000215,
                    "velocity": 0.1732283464566929,
                    "duration": 0.09347550000001092
                },
                {
                    "name": "E3",
                    "midi": 52,
                    "time": 283.04381400000216,
                    "velocity": 0.1968503937007874,
                    "duration": 0.09347550000001092
                },
                {
                    "name": "F#3",
                    "midi": 54,
                    "time": 283.13728950000217,
                    "velocity": 0.1732283464566929,
                    "duration": 0.09347550000001092
                },
                {
                    "name": "A#3",
                    "midi": 58,
                    "time": 283.2307650000022,
                    "velocity": 0.1732283464566929,
                    "duration": 0.09347550000001092
                },
                {
                    "name": "C#4",
                    "midi": 61,
                    "time": 283.3242405000022,
                    "velocity": 0.1732283464566929,
                    "duration": 0.09347550000001092
                },
                {
                    "name": "D#3",
                    "midi": 51,
                    "time": 283.4177160000022,
                    "velocity": 0.2047244094488189,
                    "duration": 0.09347550000001092
                },
                {
                    "name": "F#3",
                    "midi": 54,
                    "time": 283.5111915000022,
                    "velocity": 0.1732283464566929,
                    "duration": 0.09347550000001092
                },
                {
                    "name": "B3",
                    "midi": 59,
                    "time": 283.6046670000022,
                    "velocity": 0.1732283464566929,
                    "duration": 0.09347550000001092
                },
                {
                    "name": "D#4",
                    "midi": 63,
                    "time": 283.69814250000223,
                    "velocity": 0.1732283464566929,
                    "duration": 0.09347550000001092
                },
                {
                    "name": "D#3",
                    "midi": 51,
                    "time": 283.79161800000225,
                    "velocity": 0.2047244094488189,
                    "duration": 0.09347550000001092
                },
                {
                    "name": "F#3",
                    "midi": 54,
                    "time": 283.88509350000226,
                    "velocity": 0.18110236220472442,
                    "duration": 0.09347550000001092
                },
                {
                    "name": "B3",
                    "midi": 59,
                    "time": 283.97856900000227,
                    "velocity": 0.1732283464566929,
                    "duration": 0.09347550000001092
                },
                {
                    "name": "D#4",
                    "midi": 63,
                    "time": 284.0720445000023,
                    "velocity": 0.1732283464566929,
                    "duration": 0.09347550000001092
                },
                {
                    "name": "D#3",
                    "midi": 51,
                    "time": 284.1655200000023,
                    "velocity": 0.1968503937007874,
                    "duration": 0.09347550000001092
                },
                {
                    "name": "F3",
                    "midi": 53,
                    "time": 284.2589955000023,
                    "velocity": 0.1732283464566929,
                    "duration": 0.09347550000001092
                },
                {
                    "name": "A3",
                    "midi": 57,
                    "time": 284.3524710000023,
                    "velocity": 0.1732283464566929,
                    "duration": 0.09347550000001092
                },
                {
                    "name": "C4",
                    "midi": 60,
                    "time": 284.4459465000023,
                    "velocity": 0.1732283464566929,
                    "duration": 0.09347550000001092
                },
                {
                    "name": "D#3",
                    "midi": 51,
                    "time": 284.53942200000233,
                    "velocity": 0.1968503937007874,
                    "duration": 0.09347550000001092
                },
                {
                    "name": "F3",
                    "midi": 53,
                    "time": 284.63289750000234,
                    "velocity": 0.1732283464566929,
                    "duration": 0.09347550000001092
                },
                {
                    "name": "A3",
                    "midi": 57,
                    "time": 284.72637300000235,
                    "velocity": 0.1732283464566929,
                    "duration": 0.09347550000001092
                },
                {
                    "name": "C4",
                    "midi": 60,
                    "time": 284.81984850000237,
                    "velocity": 0.1732283464566929,
                    "duration": 0.09347550000001092
                },
                {
                    "name": "C#3",
                    "midi": 49,
                    "time": 284.9133240000024,
                    "velocity": 0.2047244094488189,
                    "duration": 0.09347550000001092
                },
                {
                    "name": "F3",
                    "midi": 53,
                    "time": 285.0067995000024,
                    "velocity": 0.1732283464566929,
                    "duration": 0.09347550000001092
                },
                {
                    "name": "A#3",
                    "midi": 58,
                    "time": 285.1002750000024,
                    "velocity": 0.1732283464566929,
                    "duration": 0.09347550000001092
                },
                {
                    "name": "C#4",
                    "midi": 61,
                    "time": 285.1937505000024,
                    "velocity": 0.1732283464566929,
                    "duration": 0.09347550000001092
                },
                {
                    "name": "C#3",
                    "midi": 49,
                    "time": 285.2872260000024,
                    "velocity": 0.2047244094488189,
                    "duration": 0.09347550000001092
                },
                {
                    "name": "F3",
                    "midi": 53,
                    "time": 285.38070150000243,
                    "velocity": 0.18110236220472442,
                    "duration": 0.09347550000001092
                },
                {
                    "name": "A#3",
                    "midi": 58,
                    "time": 285.47417700000244,
                    "velocity": 0.1732283464566929,
                    "duration": 0.09347550000001092
                },
                {
                    "name": "C#4",
                    "midi": 61,
                    "time": 285.56765250000245,
                    "velocity": 0.1732283464566929,
                    "duration": 0.09347550000001092
                },
                {
                    "name": "C#3",
                    "midi": 49,
                    "time": 285.66112800000246,
                    "velocity": 0.1968503937007874,
                    "duration": 0.09347550000001092
                },
                {
                    "name": "D#3",
                    "midi": 51,
                    "time": 285.7546035000025,
                    "velocity": 0.1732283464566929,
                    "duration": 0.09347550000001092
                },
                {
                    "name": "G3",
                    "midi": 55,
                    "time": 285.8480790000025,
                    "velocity": 0.1732283464566929,
                    "duration": 0.09347550000001092
                },
                {
                    "name": "A#3",
                    "midi": 58,
                    "time": 285.9415545000025,
                    "velocity": 0.1732283464566929,
                    "duration": 0.09347550000001092
                },
                {
                    "name": "C#3",
                    "midi": 49,
                    "time": 286.0350300000025,
                    "velocity": 0.1968503937007874,
                    "duration": 0.09347550000001092
                },
                {
                    "name": "D#3",
                    "midi": 51,
                    "time": 286.1285055000025,
                    "velocity": 0.1732283464566929,
                    "duration": 0.09347550000001092
                },
                {
                    "name": "G3",
                    "midi": 55,
                    "time": 286.22198100000253,
                    "velocity": 0.1732283464566929,
                    "duration": 0.09347550000001092
                },
                {
                    "name": "A#3",
                    "midi": 58,
                    "time": 286.31545650000254,
                    "velocity": 0.1732283464566929,
                    "duration": 0.09347550000001092
                },
                {
                    "name": "C3",
                    "midi": 48,
                    "time": 286.40893200000255,
                    "velocity": 0.2047244094488189,
                    "duration": 0.09347550000001092
                },
                {
                    "name": "D#3",
                    "midi": 51,
                    "time": 286.50240750000256,
                    "velocity": 0.1732283464566929,
                    "duration": 0.09347550000001092
                },
                {
                    "name": "G#3",
                    "midi": 56,
                    "time": 286.5958830000026,
                    "velocity": 0.1732283464566929,
                    "duration": 0.09347550000001092
                },
                {
                    "name": "C4",
                    "midi": 60,
                    "time": 286.6893585000026,
                    "velocity": 0.1732283464566929,
                    "duration": 0.09347550000001092
                },
                {
                    "name": "C3",
                    "midi": 48,
                    "time": 286.7828340000026,
                    "velocity": 0.2047244094488189,
                    "duration": 0.09347550000001092
                },
                {
                    "name": "D#3",
                    "midi": 51,
                    "time": 286.8763095000026,
                    "velocity": 0.18110236220472442,
                    "duration": 0.09347550000001092
                },
                {
                    "name": "G#3",
                    "midi": 56,
                    "time": 286.9697850000026,
                    "velocity": 0.1732283464566929,
                    "duration": 0.09347550000001092
                },
                {
                    "name": "C4",
                    "midi": 60,
                    "time": 287.0632605000026,
                    "velocity": 0.1732283464566929,
                    "duration": 0.09347550000001092
                },
                {
                    "name": "B2",
                    "midi": 47,
                    "time": 287.15673600000264,
                    "velocity": 0.1968503937007874,
                    "duration": 0.09347550000001092
                },
                {
                    "name": "C#3",
                    "midi": 49,
                    "time": 287.25021150000265,
                    "velocity": 0.1732283464566929,
                    "duration": 0.09347550000001092
                },
                {
                    "name": "F3",
                    "midi": 53,
                    "time": 287.34368700000266,
                    "velocity": 0.1732283464566929,
                    "duration": 0.09347550000001092
                },
                {
                    "name": "G#3",
                    "midi": 56,
                    "time": 287.43716250000267,
                    "velocity": 0.1732283464566929,
                    "duration": 0.09347550000001092
                },
                {
                    "name": "B2",
                    "midi": 47,
                    "time": 287.5306380000027,
                    "velocity": 0.1968503937007874,
                    "duration": 0.09347550000001092
                },
                {
                    "name": "C#3",
                    "midi": 49,
                    "time": 287.6241135000027,
                    "velocity": 0.1732283464566929,
                    "duration": 0.09347550000001092
                },
                {
                    "name": "F3",
                    "midi": 53,
                    "time": 287.7175890000027,
                    "velocity": 0.1732283464566929,
                    "duration": 0.09347550000001092
                },
                {
                    "name": "G#3",
                    "midi": 56,
                    "time": 287.8110645000027,
                    "velocity": 0.1732283464566929,
                    "duration": 0.09347550000001092
                },
                {
                    "name": "A#2",
                    "midi": 46,
                    "time": 287.9045400000027,
                    "velocity": 0.2047244094488189,
                    "duration": 0.09347550000001092
                },
                {
                    "name": "C#3",
                    "midi": 49,
                    "time": 287.99801550000274,
                    "velocity": 0.1732283464566929,
                    "duration": 0.09347550000001092
                },
                {
                    "name": "F#3",
                    "midi": 54,
                    "time": 288.09149100000275,
                    "velocity": 0.1732283464566929,
                    "duration": 0.09347550000001092
                },
                {
                    "name": "A#3",
                    "midi": 58,
                    "time": 288.18496650000276,
                    "velocity": 0.1732283464566929,
                    "duration": 0.09347550000001092
                },
                {
                    "name": "A#2",
                    "midi": 46,
                    "time": 288.27844200000277,
                    "velocity": 0.2047244094488189,
                    "duration": 0.09347550000001092
                },
                {
                    "name": "C#3",
                    "midi": 49,
                    "time": 288.3719175000028,
                    "velocity": 0.18110236220472442,
                    "duration": 0.09347550000001092
                },
                {
                    "name": "F#3",
                    "midi": 54,
                    "time": 288.4653930000028,
                    "velocity": 0.1732283464566929,
                    "duration": 0.09347550000001092
                },
                {
                    "name": "A#3",
                    "midi": 58,
                    "time": 288.5588685000028,
                    "velocity": 0.1732283464566929,
                    "duration": 0.09347550000001092
                },
                {
                    "name": "A#2",
                    "midi": 46,
                    "time": 288.6523440000028,
                    "velocity": 0.2047244094488189,
                    "duration": 0.09347550000001092
                },
                {
                    "name": "C3",
                    "midi": 48,
                    "time": 288.7458195000028,
                    "velocity": 0.18110236220472442,
                    "duration": 0.09347550000001092
                },
                {
                    "name": "E3",
                    "midi": 52,
                    "time": 288.83929500000283,
                    "velocity": 0.18110236220472442,
                    "duration": 0.09347550000001092
                },
                {
                    "name": "G3",
                    "midi": 55,
                    "time": 288.93277050000285,
                    "velocity": 0.18110236220472442,
                    "duration": 0.09347550000001092
                },
                {
                    "name": "A#2",
                    "midi": 46,
                    "time": 289.02624600000286,
                    "velocity": 0.2047244094488189,
                    "duration": 0.09347550000001092
                },
                {
                    "name": "C3",
                    "midi": 48,
                    "time": 289.11972150000287,
                    "velocity": 0.18110236220472442,
                    "duration": 0.09347550000001092
                },
                {
                    "name": "E3",
                    "midi": 52,
                    "time": 289.2131970000029,
                    "velocity": 0.18110236220472442,
                    "duration": 0.09347550000001092
                },
                {
                    "name": "G3",
                    "midi": 55,
                    "time": 289.3066725000029,
                    "velocity": 0.18110236220472442,
                    "duration": 0.09347550000001092
                },
                {
                    "name": "G#2",
                    "midi": 44,
                    "time": 289.4001480000029,
                    "velocity": 0.2125984251968504,
                    "duration": 0.09347550000001092
                },
                {
                    "name": "C3",
                    "midi": 48,
                    "time": 289.4936235000029,
                    "velocity": 0.18110236220472442,
                    "duration": 0.09347550000001092
                },
                {
                    "name": "F3",
                    "midi": 53,
                    "time": 289.5870990000029,
                    "velocity": 0.18110236220472442,
                    "duration": 0.09347550000001092
                },
                {
                    "name": "G#3",
                    "midi": 56,
                    "time": 289.68057450000293,
                    "velocity": 0.18110236220472442,
                    "duration": 0.09347550000001092
                },
                {
                    "name": "G#2",
                    "midi": 44,
                    "time": 289.77405000000294,
                    "velocity": 0.2204724409448819,
                    "duration": 0.09347550000001092
                },
                {
                    "name": "C3",
                    "midi": 48,
                    "time": 289.86752550000296,
                    "velocity": 0.1968503937007874,
                    "duration": 0.09347550000001092
                },
                {
                    "name": "F3",
                    "midi": 53,
                    "time": 289.96100100000297,
                    "velocity": 0.18110236220472442,
                    "duration": 0.09347550000001092
                },
                {
                    "name": "G#3",
                    "midi": 56,
                    "time": 290.054476500003,
                    "velocity": 0.18110236220472442,
                    "duration": 0.09347550000001092
                },
                {
                    "name": "G2",
                    "midi": 43,
                    "time": 290.147952000003,
                    "velocity": 0.25196850393700787,
                    "duration": 0.09347550000001092
                },
                {
                    "name": "A#2",
                    "midi": 46,
                    "time": 290.241427500003,
                    "velocity": 0.2204724409448819,
                    "duration": 0.09347550000001092
                },
                {
                    "name": "E3",
                    "midi": 52,
                    "time": 290.334903000003,
                    "velocity": 0.2204724409448819,
                    "duration": 0.09347550000001092
                },
                {
                    "name": "G3",
                    "midi": 55,
                    "time": 290.428378500003,
                    "velocity": 0.2283464566929134,
                    "duration": 0.09347550000001092
                },
                {
                    "name": "G2",
                    "midi": 43,
                    "time": 290.52185400000303,
                    "velocity": 0.2677165354330709,
                    "duration": 0.09347550000001092
                },
                {
                    "name": "A#2",
                    "midi": 46,
                    "time": 290.61532950000304,
                    "velocity": 0.2283464566929134,
                    "duration": 0.09347550000001092
                },
                {
                    "name": "E3",
                    "midi": 52,
                    "time": 290.70880500000305,
                    "velocity": 0.2440944881889764,
                    "duration": 0.09347550000001092
                },
                {
                    "name": "G3",
                    "midi": 55,
                    "time": 290.80228050000306,
                    "velocity": 0.25196850393700787,
                    "duration": 0.09347550000001092
                },
                {
                    "name": "F2",
                    "midi": 41,
                    "time": 290.8957560000031,
                    "velocity": 0.30708661417322836,
                    "duration": 0.09347550000001092
                },
                {
                    "name": "G#2",
                    "midi": 44,
                    "time": 290.9892315000031,
                    "velocity": 0.25984251968503935,
                    "duration": 0.09347550000001092
                },
                {
                    "name": "C3",
                    "midi": 48,
                    "time": 291.0827070000031,
                    "velocity": 0.25984251968503935,
                    "duration": 0.09347550000001092
                },
                {
                    "name": "F3",
                    "midi": 53,
                    "time": 291.1761825000031,
                    "velocity": 0.2677165354330709,
                    "duration": 0.09347550000001092
                },
                {
                    "name": "F2",
                    "midi": 41,
                    "time": 291.2696580000031,
                    "velocity": 0.3228346456692913,
                    "duration": 0.12463400000001457
                },
                {
                    "name": "G#2",
                    "midi": 44,
                    "time": 291.39429200000313,
                    "velocity": 0.2755905511811024,
                    "duration": 0.12463400000001457
                },
                {
                    "name": "F3",
                    "midi": 53,
                    "time": 291.51892600000315,
                    "velocity": 0.28346456692913385,
                    "duration": 0.12463400000001457
                },
                {
                    "name": "E2",
                    "midi": 40,
                    "time": 291.64356000000316,
                    "velocity": 0.3464566929133858,
                    "duration": 0.12463400000001457
                },
                {
                    "name": "G2",
                    "midi": 43,
                    "time": 291.7681940000032,
                    "velocity": 0.3543307086614173,
                    "duration": 0.12463400000001457
                },
                {
                    "name": "E3",
                    "midi": 52,
                    "time": 291.8928280000032,
                    "velocity": 0.3700787401574803,
                    "duration": 0.12463400000001457
                },
                {
                    "name": "D#2",
                    "midi": 39,
                    "time": 292.0174620000032,
                    "velocity": 0.3700787401574803,
                    "duration": 0.12463400000001457
                },
                {
                    "name": "G2",
                    "midi": 43,
                    "time": 292.1420960000032,
                    "velocity": 0.3858267716535433,
                    "duration": 0.12463400000001457
                },
                {
                    "name": "D#3",
                    "midi": 51,
                    "time": 292.26673000000324,
                    "velocity": 0.4015748031496063,
                    "duration": 0.12463400000001457
                },
                {
                    "name": "D2",
                    "midi": 38,
                    "time": 292.39136400000325,
                    "velocity": 0.4251968503937008,
                    "duration": 0.12463400000001457
                },
                {
                    "name": "F2",
                    "midi": 41,
                    "time": 292.51599800000326,
                    "velocity": 0.41732283464566927,
                    "duration": 0.12463400000001457
                },
                {
                    "name": "D3",
                    "midi": 50,
                    "time": 292.6406320000033,
                    "velocity": 0.4409448818897638,
                    "duration": 0.12463400000001457
                },
                {
                    "name": "C#2",
                    "midi": 37,
                    "time": 292.7652660000033,
                    "velocity": 0.4409448818897638,
                    "duration": 0.12463400000001457
                },
                {
                    "name": "F2",
                    "midi": 41,
                    "time": 292.8899000000033,
                    "velocity": 0.4566929133858268,
                    "duration": 0.12463400000001457
                },
                {
                    "name": "C#3",
                    "midi": 49,
                    "time": 293.0145340000033,
                    "velocity": 0.4645669291338583,
                    "duration": 0.12463400000001457
                },
                {
                    "name": "C2",
                    "midi": 36,
                    "time": 293.13916800000334,
                    "velocity": 0.5196850393700787,
                    "duration": 0.12463400000001457
                },
                {
                    "name": "C3",
                    "midi": 48,
                    "time": 293.13916800000334,
                    "velocity": 0.5511811023622047,
                    "duration": 0.12463400000001457
                },
                {
                    "name": "G2",
                    "midi": 43,
                    "time": 293.26380200000335,
                    "velocity": 0.48031496062992124,
                    "duration": 0.12463400000001457
                },
                {
                    "name": "E2",
                    "midi": 40,
                    "time": 293.38843600000337,
                    "velocity": 0.4881889763779528,
                    "duration": 0.12463400000001457
                },
                {
                    "name": "G2",
                    "midi": 43,
                    "time": 293.5130700000034,
                    "velocity": 0.5511811023622047,
                    "duration": 0.12463400000001457
                },
                {
                    "name": "C3",
                    "midi": 48,
                    "time": 293.6377040000034,
                    "velocity": 0.49606299212598426,
                    "duration": 0.12463400000001457
                },
                {
                    "name": "E3",
                    "midi": 52,
                    "time": 293.7623380000034,
                    "velocity": 0.5039370078740157,
                    "duration": 0.12463400000001457
                },
                {
                    "name": "D3",
                    "midi": 50,
                    "time": 293.8869720000034,
                    "velocity": 0.5511811023622047,
                    "duration": 0.12463400000001457
                },
                {
                    "name": "B2",
                    "midi": 47,
                    "time": 294.01160600000344,
                    "velocity": 0.49606299212598426,
                    "duration": 0.12463400000001457
                },
                {
                    "name": "G2",
                    "midi": 43,
                    "time": 294.13624000000345,
                    "velocity": 0.5039370078740157,
                    "duration": 0.12463400000001457
                },
                {
                    "name": "B2",
                    "midi": 47,
                    "time": 294.26087400000347,
                    "velocity": 0.5511811023622047,
                    "duration": 0.12463400000001457
                },
                {
                    "name": "D3",
                    "midi": 50,
                    "time": 294.3855080000035,
                    "velocity": 0.5118110236220472,
                    "duration": 0.12463400000001457
                },
                {
                    "name": "F3",
                    "midi": 53,
                    "time": 294.5101420000035,
                    "velocity": 0.5118110236220472,
                    "duration": 0.12463400000001457
                },
                {
                    "name": "E3",
                    "midi": 52,
                    "time": 294.6347760000035,
                    "velocity": 0.5039370078740157,
                    "duration": 0.12463400000001457
                },
                {
                    "name": "G3",
                    "midi": 55,
                    "time": 294.7594100000035,
                    "velocity": 0.4409448818897638,
                    "duration": 0.12463400000001457
                },
                {
                    "name": "C4",
                    "midi": 60,
                    "time": 294.88404400000354,
                    "velocity": 0.4409448818897638,
                    "duration": 0.12463400000001457
                },
                {
                    "name": "G3",
                    "midi": 55,
                    "time": 295.00867800000356,
                    "velocity": 0.5039370078740157,
                    "duration": 0.12463400000001457
                },
                {
                    "name": "E3",
                    "midi": 52,
                    "time": 295.13331200000357,
                    "velocity": 0.44881889763779526,
                    "duration": 0.12463400000001457
                },
                {
                    "name": "C3",
                    "midi": 48,
                    "time": 295.2579460000036,
                    "velocity": 0.44881889763779526,
                    "duration": 0.12463400000001457
                },
                {
                    "name": "F3",
                    "midi": 53,
                    "time": 295.3825800000036,
                    "velocity": 0.5039370078740157,
                    "duration": 0.12463400000001457
                },
                {
                    "name": "G#3",
                    "midi": 56,
                    "time": 295.5072140000036,
                    "velocity": 0.4409448818897638,
                    "duration": 0.12463400000001457
                },
                {
                    "name": "C4",
                    "midi": 60,
                    "time": 295.63184800000363,
                    "velocity": 0.4409448818897638,
                    "duration": 0.12463400000001457
                },
                {
                    "name": "G#3",
                    "midi": 56,
                    "time": 295.75648200000364,
                    "velocity": 0.5039370078740157,
                    "duration": 0.12463400000001457
                },
                {
                    "name": "F3",
                    "midi": 53,
                    "time": 295.88111600000366,
                    "velocity": 0.44881889763779526,
                    "duration": 0.12463400000001457
                },
                {
                    "name": "C3",
                    "midi": 48,
                    "time": 296.0057500000037,
                    "velocity": 0.4566929133858268,
                    "duration": 0.12463400000001457
                },
                {
                    "name": "G3",
                    "midi": 55,
                    "time": 296.1303840000037,
                    "velocity": 0.5039370078740157,
                    "duration": 0.49853600000005827
                },
                {
                    "name": "A#3",
                    "midi": 58,
                    "time": 296.2550180000037,
                    "velocity": 0.4409448818897638,
                    "duration": 0.24926800000002913
                },
                {
                    "name": "C4",
                    "midi": 60,
                    "time": 296.3796520000037,
                    "velocity": 0.4409448818897638,
                    "duration": 2.7419480000000362
                },
                {
                    "name": "A#3",
                    "midi": 58,
                    "time": 296.50428600000373,
                    "velocity": 0.5039370078740157,
                    "duration": 2.6173140000000217
                },
                {
                    "name": "G3",
                    "midi": 55,
                    "time": 296.62892000000375,
                    "velocity": 0.44881889763779526,
                    "duration": 2.492680000000007
                },
                {
                    "name": "C3",
                    "midi": 48,
                    "time": 296.75355400000376,
                    "velocity": 0.44881889763779526,
                    "duration": 2.3680459999999925
                },
                {
                    "name": "F2",
                    "midi": 41,
                    "time": 299.12160000000375,
                    "velocity": 0.5196850393700787,
                    "duration": 0.12463400000001457
                },
                {
                    "name": "F3",
                    "midi": 53,
                    "time": 299.12160000000375,
                    "velocity": 0.5511811023622047,
                    "duration": 0.12463400000001457
                },
                {
                    "name": "C3",
                    "midi": 48,
                    "time": 299.24623400000377,
                    "velocity": 0.48031496062992124,
                    "duration": 0.12463400000001457
                },
                {
                    "name": "A2",
                    "midi": 45,
                    "time": 299.3708680000038,
                    "velocity": 0.4881889763779528,
                    "duration": 0.12463400000001457
                },
                {
                    "name": "C3",
                    "midi": 48,
                    "time": 299.4955020000038,
                    "velocity": 0.5511811023622047,
                    "duration": 0.12463400000001457
                },
                {
                    "name": "F3",
                    "midi": 53,
                    "time": 299.6201360000038,
                    "velocity": 0.49606299212598426,
                    "duration": 0.12463400000001457
                },
                {
                    "name": "A3",
                    "midi": 57,
                    "time": 299.7447700000038,
                    "velocity": 0.5039370078740157,
                    "duration": 0.12463400000001457
                },
                {
                    "name": "G3",
                    "midi": 55,
                    "time": 299.86940400000384,
                    "velocity": 0.5511811023622047,
                    "duration": 0.12463400000001457
                },
                {
                    "name": "E3",
                    "midi": 52,
                    "time": 299.99403800000385,
                    "velocity": 0.49606299212598426,
                    "duration": 0.12463400000001457
                },
                {
                    "name": "C3",
                    "midi": 48,
                    "time": 300.11867200000387,
                    "velocity": 0.5039370078740157,
                    "duration": 0.12463400000001457
                },
                {
                    "name": "E3",
                    "midi": 52,
                    "time": 300.2433060000039,
                    "velocity": 0.5511811023622047,
                    "duration": 0.12463400000001457
                },
                {
                    "name": "G3",
                    "midi": 55,
                    "time": 300.3679400000039,
                    "velocity": 0.5118110236220472,
                    "duration": 0.12463400000001457
                },
                {
                    "name": "A#3",
                    "midi": 58,
                    "time": 300.4925740000039,
                    "velocity": 0.5118110236220472,
                    "duration": 0.12463400000001457
                },
                {
                    "name": "A3",
                    "midi": 57,
                    "time": 300.6172080000039,
                    "velocity": 0.5039370078740157,
                    "duration": 0.12463400000001457
                },
                {
                    "name": "C4",
                    "midi": 60,
                    "time": 300.74184200000394,
                    "velocity": 0.4409448818897638,
                    "duration": 0.12463400000001457
                },
                {
                    "name": "F4",
                    "midi": 65,
                    "time": 300.86647600000396,
                    "velocity": 0.4409448818897638,
                    "duration": 0.12463400000001457
                },
                {
                    "name": "C4",
                    "midi": 60,
                    "time": 300.99111000000397,
                    "velocity": 0.5039370078740157,
                    "duration": 0.12463400000001457
                },
                {
                    "name": "A3",
                    "midi": 57,
                    "time": 301.115744000004,
                    "velocity": 0.44881889763779526,
                    "duration": 0.12463400000001457
                },
                {
                    "name": "F3",
                    "midi": 53,
                    "time": 301.240378000004,
                    "velocity": 0.44881889763779526,
                    "duration": 0.12463400000001457
                },
                {
                    "name": "A#3",
                    "midi": 58,
                    "time": 301.365012000004,
                    "velocity": 0.5039370078740157,
                    "duration": 0.12463400000001457
                },
                {
                    "name": "C#4",
                    "midi": 61,
                    "time": 301.48964600000403,
                    "velocity": 0.4409448818897638,
                    "duration": 0.12463400000001457
                },
                {
                    "name": "F4",
                    "midi": 65,
                    "time": 301.61428000000404,
                    "velocity": 0.4409448818897638,
                    "duration": 0.12463400000001457
                },
                {
                    "name": "C#4",
                    "midi": 61,
                    "time": 301.73891400000406,
                    "velocity": 0.5039370078740157,
                    "duration": 0.12463400000001457
                },
                {
                    "name": "A#3",
                    "midi": 58,
                    "time": 301.8635480000041,
                    "velocity": 0.44881889763779526,
                    "duration": 0.12463400000001457
                },
                {
                    "name": "F3",
                    "midi": 53,
                    "time": 301.9881820000041,
                    "velocity": 0.4566929133858268,
                    "duration": 0.12463400000001457
                },
                {
                    "name": "C4",
                    "midi": 60,
                    "time": 302.1128160000041,
                    "velocity": 0.5039370078740157,
                    "duration": 0.49853600000005827
                },
                {
                    "name": "D#4",
                    "midi": 63,
                    "time": 302.2374500000041,
                    "velocity": 0.4409448818897638,
                    "duration": 0.24926800000002913
                },
                {
                    "name": "F4",
                    "midi": 65,
                    "time": 302.36208400000413,
                    "velocity": 0.4409448818897638,
                    "duration": 2.7419480000000362
                },
                {
                    "name": "D#4",
                    "midi": 63,
                    "time": 302.48671800000415,
                    "velocity": 0.5039370078740157,
                    "duration": 2.6173140000000217
                },
                {
                    "name": "C4",
                    "midi": 60,
                    "time": 302.61135200000416,
                    "velocity": 0.44881889763779526,
                    "duration": 2.492680000000007
                },
                {
                    "name": "F3",
                    "midi": 53,
                    "time": 302.7359860000042,
                    "velocity": 0.44881889763779526,
                    "duration": 2.3680459999999925
                },
                {
                    "name": "A#1",
                    "midi": 34,
                    "time": 305.10403200000417,
                    "velocity": 0.5196850393700787,
                    "duration": 0.12463400000001457
                },
                {
                    "name": "A#2",
                    "midi": 46,
                    "time": 305.10403200000417,
                    "velocity": 0.5511811023622047,
                    "duration": 0.12463400000001457
                },
                {
                    "name": "F2",
                    "midi": 41,
                    "time": 305.2286660000042,
                    "velocity": 0.48031496062992124,
                    "duration": 0.12463400000001457
                },
                {
                    "name": "D2",
                    "midi": 38,
                    "time": 305.3533000000042,
                    "velocity": 0.4881889763779528,
                    "duration": 0.12463400000001457
                },
                {
                    "name": "F2",
                    "midi": 41,
                    "time": 305.4779340000042,
                    "velocity": 0.5511811023622047,
                    "duration": 0.12463400000001457
                },
                {
                    "name": "A#2",
                    "midi": 46,
                    "time": 305.6025680000042,
                    "velocity": 0.49606299212598426,
                    "duration": 0.12463400000001457
                },
                {
                    "name": "D3",
                    "midi": 50,
                    "time": 305.72720200000424,
                    "velocity": 0.5039370078740157,
                    "duration": 0.12463400000001457
                },
                {
                    "name": "C3",
                    "midi": 48,
                    "time": 305.85183600000425,
                    "velocity": 0.5511811023622047,
                    "duration": 0.12463400000001457
                },
                {
                    "name": "A2",
                    "midi": 45,
                    "time": 305.97647000000427,
                    "velocity": 0.49606299212598426,
                    "duration": 0.12463400000001457
                },
                {
                    "name": "F2",
                    "midi": 41,
                    "time": 306.1011040000043,
                    "velocity": 0.5039370078740157,
                    "duration": 0.12463400000001457
                },
                {
                    "name": "A2",
                    "midi": 45,
                    "time": 306.2257380000043,
                    "velocity": 0.5511811023622047,
                    "duration": 0.12463400000001457
                },
                {
                    "name": "C3",
                    "midi": 48,
                    "time": 306.3503720000043,
                    "velocity": 0.5118110236220472,
                    "duration": 0.12463400000001457
                },
                {
                    "name": "D#3",
                    "midi": 51,
                    "time": 306.4750060000043,
                    "velocity": 0.5118110236220472,
                    "duration": 0.12463400000001457
                },
                {
                    "name": "D3",
                    "midi": 50,
                    "time": 306.59964000000434,
                    "velocity": 0.5039370078740157,
                    "duration": 0.12463400000001457
                },
                {
                    "name": "F3",
                    "midi": 53,
                    "time": 306.72427400000436,
                    "velocity": 0.4409448818897638,
                    "duration": 0.12463400000001457
                },
                {
                    "name": "A#3",
                    "midi": 58,
                    "time": 306.84890800000437,
                    "velocity": 0.4409448818897638,
                    "duration": 0.12463400000001457
                },
                {
                    "name": "F3",
                    "midi": 53,
                    "time": 306.9735420000044,
                    "velocity": 0.5039370078740157,
                    "duration": 0.12463400000001457
                },
                {
                    "name": "D3",
                    "midi": 50,
                    "time": 307.0981760000044,
                    "velocity": 0.44881889763779526,
                    "duration": 0.12463400000001457
                },
                {
                    "name": "A#2",
                    "midi": 46,
                    "time": 307.2228100000044,
                    "velocity": 0.44881889763779526,
                    "duration": 0.12463400000001457
                },
                {
                    "name": "D#3",
                    "midi": 51,
                    "time": 307.34744400000443,
                    "velocity": 0.5039370078740157,
                    "duration": 0.12463400000001457
                },
                {
                    "name": "F#3",
                    "midi": 54,
                    "time": 307.47207800000444,
                    "velocity": 0.4409448818897638,
                    "duration": 0.12463400000001457
                },
                {
                    "name": "A#3",
                    "midi": 58,
                    "time": 307.59671200000446,
                    "velocity": 0.4409448818897638,
                    "duration": 0.12463400000001457
                },
                {
                    "name": "F#3",
                    "midi": 54,
                    "time": 307.7213460000045,
                    "velocity": 0.5039370078740157,
                    "duration": 0.12463400000001457
                },
                {
                    "name": "D#3",
                    "midi": 51,
                    "time": 307.8459800000045,
                    "velocity": 0.44881889763779526,
                    "duration": 0.12463400000001457
                },
                {
                    "name": "A#2",
                    "midi": 46,
                    "time": 307.9706140000045,
                    "velocity": 0.4566929133858268,
                    "duration": 0.12463400000001457
                },
                {
                    "name": "F3",
                    "midi": 53,
                    "time": 308.0952480000045,
                    "velocity": 0.5039370078740157,
                    "duration": 0.49853600000005827
                },
                {
                    "name": "G#3",
                    "midi": 56,
                    "time": 308.21988200000453,
                    "velocity": 0.4409448818897638,
                    "duration": 0.24926800000002913
                },
                {
                    "name": "A#3",
                    "midi": 58,
                    "time": 308.34451600000455,
                    "velocity": 0.4409448818897638,
                    "duration": 2.7419480000000362
                },
                {
                    "name": "G#3",
                    "midi": 56,
                    "time": 308.46915000000456,
                    "velocity": 0.5039370078740157,
                    "duration": 2.6173140000000217
                },
                {
                    "name": "F3",
                    "midi": 53,
                    "time": 308.5937840000046,
                    "velocity": 0.44881889763779526,
                    "duration": 2.492680000000007
                },
                {
                    "name": "A#2",
                    "midi": 46,
                    "time": 308.7184180000046,
                    "velocity": 0.44881889763779526,
                    "duration": 2.3680459999999925
                },
                {
                    "name": "D#3",
                    "midi": 51,
                    "time": 311.0864640000046,
                    "velocity": 0.5039370078740157,
                    "duration": 0.49853600000005827
                },
                {
                    "name": "F#3",
                    "midi": 54,
                    "time": 311.2110980000046,
                    "velocity": 0.4409448818897638,
                    "duration": 0.24926800000002913
                },
                {
                    "name": "A#3",
                    "midi": 58,
                    "time": 311.3357320000046,
                    "velocity": 0.4409448818897638,
                    "duration": 2.7419480000000362
                },
                {
                    "name": "F#3",
                    "midi": 54,
                    "time": 311.4603660000046,
                    "velocity": 0.5039370078740157,
                    "duration": 2.6173140000000217
                },
                {
                    "name": "D#3",
                    "midi": 51,
                    "time": 311.58500000000464,
                    "velocity": 0.44881889763779526,
                    "duration": 2.492680000000007
                },
                {
                    "name": "A#2",
                    "midi": 46,
                    "time": 311.70963400000466,
                    "velocity": 0.44881889763779526,
                    "duration": 2.3680459999999925
                },
                {
                    "name": "C#3",
                    "midi": 49,
                    "time": 314.07768000000465,
                    "velocity": 0.5039370078740157,
                    "duration": 0.49853600000005827
                },
                {
                    "name": "F#3",
                    "midi": 54,
                    "time": 314.20231400000466,
                    "velocity": 0.4409448818897638,
                    "duration": 0.24926800000002913
                },
                {
                    "name": "A#3",
                    "midi": 58,
                    "time": 314.3269480000047,
                    "velocity": 0.4409448818897638,
                    "duration": 2.7419480000000362
                },
                {
                    "name": "F#3",
                    "midi": 54,
                    "time": 314.4515820000047,
                    "velocity": 0.5039370078740157,
                    "duration": 2.6173140000000217
                },
                {
                    "name": "C#3",
                    "midi": 49,
                    "time": 314.5762160000047,
                    "velocity": 0.44881889763779526,
                    "duration": 2.492680000000007
                },
                {
                    "name": "A#2",
                    "midi": 46,
                    "time": 314.7008500000047,
                    "velocity": 0.44881889763779526,
                    "duration": 2.3680459999999925
                },
                {
                    "name": "D3",
                    "midi": 50,
                    "time": 317.0688960000047,
                    "velocity": 0.5039370078740157,
                    "duration": 0.49853600000005827
                },
                {
                    "name": "F#3",
                    "midi": 54,
                    "time": 317.1935300000047,
                    "velocity": 0.4409448818897638,
                    "duration": 0.24926800000002913
                },
                {
                    "name": "B3",
                    "midi": 59,
                    "time": 317.31816400000474,
                    "velocity": 0.4409448818897638,
                    "duration": 2.7419480000000362
                },
                {
                    "name": "F#3",
                    "midi": 54,
                    "time": 317.44279800000476,
                    "velocity": 0.5039370078740157,
                    "duration": 2.6173140000000217
                },
                {
                    "name": "D3",
                    "midi": 50,
                    "time": 317.56743200000477,
                    "velocity": 0.44881889763779526,
                    "duration": 2.492680000000007
                },
                {
                    "name": "B2",
                    "midi": 47,
                    "time": 317.6920660000048,
                    "velocity": 0.44881889763779526,
                    "duration": 2.3680459999999925
                },
                {
                    "name": "D3",
                    "midi": 50,
                    "time": 320.0601120000048,
                    "velocity": 0.5039370078740157,
                    "duration": 0.49853600000005827
                },
                {
                    "name": "G3",
                    "midi": 55,
                    "time": 320.1847460000048,
                    "velocity": 0.4409448818897638,
                    "duration": 0.24926800000002913
                },
                {
                    "name": "B3",
                    "midi": 59,
                    "time": 320.3093800000048,
                    "velocity": 0.4409448818897638,
                    "duration": 2.7419480000000362
                },
                {
                    "name": "G3",
                    "midi": 55,
                    "time": 320.4340140000048,
                    "velocity": 0.5039370078740157,
                    "duration": 2.6173140000000217
                },
                {
                    "name": "D3",
                    "midi": 50,
                    "time": 320.55864800000484,
                    "velocity": 0.44881889763779526,
                    "duration": 2.492680000000007
                },
                {
                    "name": "B2",
                    "midi": 47,
                    "time": 320.68328200000485,
                    "velocity": 0.44881889763779526,
                    "duration": 2.3680459999999925
                },
                {
                    "name": "D#3",
                    "midi": 51,
                    "time": 323.05132800000484,
                    "velocity": 0.5039370078740157,
                    "duration": 0.49853600000005827
                },
                {
                    "name": "G3",
                    "midi": 55,
                    "time": 323.17596200000486,
                    "velocity": 0.4409448818897638,
                    "duration": 0.24926800000002913
                },
                {
                    "name": "C4",
                    "midi": 60,
                    "time": 323.3005960000049,
                    "velocity": 0.4409448818897638,
                    "duration": 2.7419480000000362
                },
                {
                    "name": "G3",
                    "midi": 55,
                    "time": 323.4252300000049,
                    "velocity": 0.5039370078740157,
                    "duration": 2.6173140000000217
                },
                {
                    "name": "D#3",
                    "midi": 51,
                    "time": 323.5498640000049,
                    "velocity": 0.44881889763779526,
                    "duration": 2.492680000000007
                },
                {
                    "name": "C3",
                    "midi": 48,
                    "time": 323.6744980000049,
                    "velocity": 0.44881889763779526,
                    "duration": 2.3680459999999925
                },
                {
                    "name": "G#3",
                    "midi": 56,
                    "time": 326.0425440000049,
                    "velocity": 0.5039370078740157,
                    "duration": 0.49853600000005827
                },
                {
                    "name": "C#4",
                    "midi": 61,
                    "time": 326.1671780000049,
                    "velocity": 0.4409448818897638,
                    "duration": 0.24926800000002913
                },
                {
                    "name": "F4",
                    "midi": 65,
                    "time": 326.29181200000494,
                    "velocity": 0.4409448818897638,
                    "duration": 1.246340000000032
                },
                {
                    "name": "C#4",
                    "midi": 61,
                    "time": 326.41644600000495,
                    "velocity": 0.5039370078740157,
                    "duration": 1.1217060000000174
                },
                {
                    "name": "G#3",
                    "midi": 56,
                    "time": 326.54108000000497,
                    "velocity": 0.44881889763779526,
                    "duration": 0.9970720000000028
                },
                {
                    "name": "F3",
                    "midi": 53,
                    "time": 326.665714000005,
                    "velocity": 0.44881889763779526,
                    "duration": 0.8724379999999883
                },
                {
                    "name": "C4",
                    "midi": 60,
                    "time": 327.53815200000497,
                    "velocity": 0.5039370078740157,
                    "duration": 0.49853600000005827
                },
                {
                    "name": "D#4",
                    "midi": 63,
                    "time": 327.662786000005,
                    "velocity": 0.4409448818897638,
                    "duration": 0.24926800000002913
                },
                {
                    "name": "F#4",
                    "midi": 66,
                    "time": 327.787420000005,
                    "velocity": 0.4409448818897638,
                    "duration": 1.246340000000032
                },
                {
                    "name": "D#4",
                    "midi": 63,
                    "time": 327.912054000005,
                    "velocity": 0.5039370078740157,
                    "duration": 0.3739020000000437
                },
                {
                    "name": "C4",
                    "midi": 60,
                    "time": 328.03668800000503,
                    "velocity": 0.44881889763779526,
                    "duration": 0.9970720000000028
                },
                {
                    "name": "F#3",
                    "midi": 54,
                    "time": 328.16132200000504,
                    "velocity": 0.44881889763779526,
                    "duration": 0.8724379999999883
                },
                {
                    "name": "B3",
                    "midi": 59,
                    "time": 329.03376000000503,
                    "velocity": 0.5511811023622047,
                    "duration": 0.49853600000005827
                },
                {
                    "name": "D4",
                    "midi": 62,
                    "time": 329.15839400000505,
                    "velocity": 0.48031496062992124,
                    "duration": 0.24926800000002913
                },
                {
                    "name": "G4",
                    "midi": 67,
                    "time": 329.28302800000506,
                    "velocity": 0.48031496062992124,
                    "duration": 0.8724380000000451
                },
                {
                    "name": "D4",
                    "midi": 62,
                    "time": 329.4076620000051,
                    "velocity": 0.5511811023622047,
                    "duration": 0.7478040000000306
                },
                {
                    "name": "B3",
                    "midi": 59,
                    "time": 329.5322960000051,
                    "velocity": 0.4881889763779528,
                    "duration": 0.623170000000016
                },
                {
                    "name": "G3",
                    "midi": 55,
                    "time": 329.6569300000051,
                    "velocity": 0.4881889763779528,
                    "duration": 1.2463399999999751
                },
                {
                    "name": "D4",
                    "midi": 62,
                    "time": 330.1554660000051,
                    "velocity": 0.28346456692913385,
                    "duration": 0.37390199999998686
                },
                {
                    "name": "B3",
                    "midi": 59,
                    "time": 330.5293680000051,
                    "velocity": 0.3228346456692913,
                    "duration": 0.37390199999998686
                },
                {
                    "name": "G3",
                    "midi": 55,
                    "time": 330.9032700000051,
                    "velocity": 0.28346456692913385,
                    "duration": 1.1217059999999606
                },
                {
                    "name": "C4",
                    "midi": 60,
                    "time": 331.27717200000507,
                    "velocity": 0.28346456692913385,
                    "duration": 0.37390199999998686
                },
                {
                    "name": "F#4",
                    "midi": 66,
                    "time": 331.65107400000505,
                    "velocity": 0.28346456692913385,
                    "duration": 0.37390199999998686
                },
                {
                    "name": "B2",
                    "midi": 47,
                    "time": 332.02497600000504,
                    "velocity": 0.4881889763779528,
                    "duration": 0.49853600000005827
                },
                {
                    "name": "D3",
                    "midi": 50,
                    "time": 332.14961000000505,
                    "velocity": 0.4330708661417323,
                    "duration": 0.24926800000002913
                },
                {
                    "name": "G3",
                    "midi": 55,
                    "time": 332.27424400000507,
                    "velocity": 0.4330708661417323,
                    "duration": 0.7439091875000372
                },
                {
                    "name": "D3",
                    "midi": 50,
                    "time": 332.3988780000051,
                    "velocity": 0.4881889763779528,
                    "duration": 0.7478040000000306
                },
                {
                    "name": "B2",
                    "midi": 47,
                    "time": 332.5235120000051,
                    "velocity": 0.4409448818897638,
                    "duration": 0.623170000000016
                },
                {
                    "name": "G2",
                    "midi": 43,
                    "time": 332.6481460000051,
                    "velocity": 0.4409448818897638,
                    "duration": 1.2463399999999751
                },
                {
                    "name": "D3",
                    "midi": 50,
                    "time": 333.1466820000051,
                    "velocity": 0.25196850393700787,
                    "duration": 0.37390199999998686
                },
                {
                    "name": "B2",
                    "midi": 47,
                    "time": 333.5205840000051,
                    "velocity": 0.28346456692913385,
                    "duration": 0.37390199999998686
                },
                {
                    "name": "G2",
                    "midi": 43,
                    "time": 333.8944860000051,
                    "velocity": 0.25196850393700787,
                    "duration": 1.3086569999999824
                },
                {
                    "name": "C3",
                    "midi": 48,
                    "time": 334.2683880000051,
                    "velocity": 0.25196850393700787,
                    "duration": 0.37390199999998686
                },
                {
                    "name": "F#3",
                    "midi": 54,
                    "time": 334.64229000000506,
                    "velocity": 0.25196850393700787,
                    "duration": 0.37390199999998686
                },
                {
                    "name": "G3",
                    "midi": 55,
                    "time": 335.01619200000505,
                    "velocity": 0.28346456692913385,
                    "duration": 0.18695100000002185
                },
                {
                    "name": "C3",
                    "midi": 48,
                    "time": 335.3900940000051,
                    "velocity": 0.25196850393700787,
                    "duration": 0.37390199999998686
                },
                {
                    "name": "G2",
                    "midi": 43,
                    "time": 335.7639960000051,
                    "velocity": 0.2440944881889764,
                    "duration": 0.37390199999998686
                },
                {
                    "name": "C2",
                    "midi": 36,
                    "time": 336.13789800000507,
                    "velocity": 0.23622047244094488,
                    "duration": 0.37390199999998686
                },
                {
                    "name": "G1",
                    "midi": 31,
                    "time": 336.51180000000505,
                    "velocity": 0.25984251968503935,
                    "duration": 0.37390199999998686
                },
                {
                    "name": "C2",
                    "midi": 36,
                    "time": 336.88570200000504,
                    "velocity": 0.2204724409448819,
                    "duration": 0.37390199999998686
                },
                {
                    "name": "G1",
                    "midi": 31,
                    "time": 337.259604000005,
                    "velocity": 0.2125984251968504,
                    "duration": 0.37390199999998686
                },
                {
                    "name": "C2",
                    "midi": 36,
                    "time": 337.633506000005,
                    "velocity": 0.2047244094488189,
                    "duration": 0.37390199999998686
                },
                {
                    "name": "G1",
                    "midi": 31,
                    "time": 338.007408000005,
                    "velocity": 0.29133858267716534,
                    "duration": 0.09347550000001092
                },
                {
                    "name": "C2",
                    "midi": 36,
                    "time": 338.100883500005,
                    "velocity": 0.25984251968503935,
                    "duration": 0.09347550000001092
                },
                {
                    "name": "B1",
                    "midi": 35,
                    "time": 338.194359000005,
                    "velocity": 0.25984251968503935,
                    "duration": 0.09347550000001092
                },
                {
                    "name": "A1",
                    "midi": 33,
                    "time": 338.28783450000503,
                    "velocity": 0.25984251968503935,
                    "duration": 0.09347550000001092
                },
                {
                    "name": "G1",
                    "midi": 31,
                    "time": 338.38131000000504,
                    "velocity": 0.29133858267716534,
                    "duration": 0.09347550000001092
                },
                {
                    "name": "C2",
                    "midi": 36,
                    "time": 338.47478550000505,
                    "velocity": 0.25984251968503935,
                    "duration": 0.09347550000001092
                },
                {
                    "name": "B1",
                    "midi": 35,
                    "time": 338.56826100000507,
                    "velocity": 0.25984251968503935,
                    "duration": 0.09347550000001092
                },
                {
                    "name": "A1",
                    "midi": 33,
                    "time": 338.6617365000051,
                    "velocity": 0.25984251968503935,
                    "duration": 0.09347550000001092
                },
                {
                    "name": "G1",
                    "midi": 31,
                    "time": 338.7552120000051,
                    "velocity": 0.29133858267716534,
                    "duration": 0.09347550000001092
                },
                {
                    "name": "C2",
                    "midi": 36,
                    "time": 338.8486875000051,
                    "velocity": 0.25984251968503935,
                    "duration": 0.09347550000001092
                },
                {
                    "name": "B1",
                    "midi": 35,
                    "time": 338.9421630000051,
                    "velocity": 0.25984251968503935,
                    "duration": 0.09347550000001092
                },
                {
                    "name": "A1",
                    "midi": 33,
                    "time": 339.0356385000051,
                    "velocity": 0.25984251968503935,
                    "duration": 0.09347550000001092
                },
                {
                    "name": "G1",
                    "midi": 31,
                    "time": 339.12911400000513,
                    "velocity": 0.29133858267716534,
                    "duration": 0.09347550000001092
                },
                {
                    "name": "C2",
                    "midi": 36,
                    "time": 339.22258950000514,
                    "velocity": 0.25984251968503935,
                    "duration": 0.09347550000001092
                },
                {
                    "name": "B1",
                    "midi": 35,
                    "time": 339.31606500000515,
                    "velocity": 0.25984251968503935,
                    "duration": 0.09347550000001092
                },
                {
                    "name": "A1",
                    "midi": 33,
                    "time": 339.40954050000516,
                    "velocity": 0.25984251968503935,
                    "duration": 0.09347550000001092
                },
                {
                    "name": "G1",
                    "midi": 31,
                    "time": 339.5030160000052,
                    "velocity": 0.25984251968503935,
                    "duration": 1.5890835000000152
                },
                {
                    "name": "C2",
                    "midi": 36,
                    "time": 341.0920995000052,
                    "velocity": 0.25984251968503935,
                    "duration": 0.09347550000001092
                },
                {
                    "name": "B1",
                    "midi": 35,
                    "time": 341.1855750000052,
                    "velocity": 0.25984251968503935,
                    "duration": 0.09347550000001092
                },
                {
                    "name": "A1",
                    "midi": 33,
                    "time": 341.2790505000052,
                    "velocity": 0.25984251968503935,
                    "duration": 0.09347550000001092
                },
                {
                    "name": "G1",
                    "midi": 31,
                    "time": 341.3725260000052,
                    "velocity": 0.29133858267716534,
                    "duration": 0.09347550000001092
                },
                {
                    "name": "C2",
                    "midi": 36,
                    "time": 341.46600150000523,
                    "velocity": 0.25984251968503935,
                    "duration": 0.09347550000001092
                },
                {
                    "name": "B1",
                    "midi": 35,
                    "time": 341.55947700000524,
                    "velocity": 0.25984251968503935,
                    "duration": 0.09347550000001092
                },
                {
                    "name": "A1",
                    "midi": 33,
                    "time": 341.65295250000526,
                    "velocity": 0.25984251968503935,
                    "duration": 0.09347550000001092
                },
                {
                    "name": "G1",
                    "midi": 31,
                    "time": 341.74642800000527,
                    "velocity": 0.29133858267716534,
                    "duration": 0.09347550000001092
                },
                {
                    "name": "C2",
                    "midi": 36,
                    "time": 341.8399035000053,
                    "velocity": 0.25984251968503935,
                    "duration": 0.09347550000001092
                },
                {
                    "name": "B1",
                    "midi": 35,
                    "time": 341.9333790000053,
                    "velocity": 0.25984251968503935,
                    "duration": 0.09347550000001092
                },
                {
                    "name": "A1",
                    "midi": 33,
                    "time": 342.0268545000053,
                    "velocity": 0.25984251968503935,
                    "duration": 0.09347550000001092
                },
                {
                    "name": "G1",
                    "midi": 31,
                    "time": 342.1203300000053,
                    "velocity": 0.29133858267716534,
                    "duration": 0.09347550000001092
                },
                {
                    "name": "C2",
                    "midi": 36,
                    "time": 342.2138055000053,
                    "velocity": 0.25984251968503935,
                    "duration": 0.09347550000001092
                },
                {
                    "name": "B1",
                    "midi": 35,
                    "time": 342.30728100000533,
                    "velocity": 0.25984251968503935,
                    "duration": 0.09347550000001092
                },
                {
                    "name": "A1",
                    "midi": 33,
                    "time": 342.40075650000534,
                    "velocity": 0.25984251968503935,
                    "duration": 0.09347550000001092
                },
                {
                    "name": "G1",
                    "midi": 31,
                    "time": 342.49423200000535,
                    "velocity": 0.25984251968503935,
                    "duration": 1.5890835000000152
                },
                {
                    "name": "C2",
                    "midi": 36,
                    "time": 344.08331550000537,
                    "velocity": 0.25984251968503935,
                    "duration": 0.09347550000001092
                },
                {
                    "name": "B1",
                    "midi": 35,
                    "time": 344.1767910000054,
                    "velocity": 0.25984251968503935,
                    "duration": 0.09347550000001092
                },
                {
                    "name": "A1",
                    "midi": 33,
                    "time": 344.2702665000054,
                    "velocity": 0.25984251968503935,
                    "duration": 0.09347550000001092
                },
                {
                    "name": "G1",
                    "midi": 31,
                    "time": 344.3637420000054,
                    "velocity": 0.29133858267716534,
                    "duration": 0.09347550000001092
                },
                {
                    "name": "C2",
                    "midi": 36,
                    "time": 344.4572175000054,
                    "velocity": 0.25984251968503935,
                    "duration": 0.09347550000001092
                },
                {
                    "name": "B1",
                    "midi": 35,
                    "time": 344.5506930000054,
                    "velocity": 0.25984251968503935,
                    "duration": 0.09347550000001092
                },
                {
                    "name": "A1",
                    "midi": 33,
                    "time": 344.64416850000543,
                    "velocity": 0.25984251968503935,
                    "duration": 0.09347550000001092
                },
                {
                    "name": "G1",
                    "midi": 31,
                    "time": 344.73764400000545,
                    "velocity": 0.2992125984251969,
                    "duration": 0.09347550000001092
                },
                {
                    "name": "C2",
                    "midi": 36,
                    "time": 344.83111950000546,
                    "velocity": 0.25984251968503935,
                    "duration": 0.09347550000001092
                },
                {
                    "name": "B1",
                    "midi": 35,
                    "time": 344.92459500000547,
                    "velocity": 0.2677165354330709,
                    "duration": 0.09347550000001092
                },
                {
                    "name": "A1",
                    "midi": 33,
                    "time": 345.0180705000055,
                    "velocity": 0.2677165354330709,
                    "duration": 0.09347550000001092
                },
                {
                    "name": "G1",
                    "midi": 31,
                    "time": 345.1115460000055,
                    "velocity": 0.2992125984251969,
                    "duration": 0.09347550000001092
                },
                {
                    "name": "C2",
                    "midi": 36,
                    "time": 345.2050215000055,
                    "velocity": 0.2677165354330709,
                    "duration": 0.09347550000001092
                },
                {
                    "name": "B1",
                    "midi": 35,
                    "time": 345.2984970000055,
                    "velocity": 0.2677165354330709,
                    "duration": 0.09347550000001092
                },
                {
                    "name": "A1",
                    "midi": 33,
                    "time": 345.3919725000055,
                    "velocity": 0.2677165354330709,
                    "duration": 0.09347550000001092
                },
                {
                    "name": "G1",
                    "midi": 31,
                    "time": 345.48544800000553,
                    "velocity": 0.30708661417322836,
                    "duration": 0.09347550000001092
                },
                {
                    "name": "C2",
                    "midi": 36,
                    "time": 345.57892350000554,
                    "velocity": 0.2755905511811024,
                    "duration": 0.09347550000001092
                },
                {
                    "name": "B1",
                    "midi": 35,
                    "time": 345.67239900000556,
                    "velocity": 0.2755905511811024,
                    "duration": 0.09347550000001092
                },
                {
                    "name": "A1",
                    "midi": 33,
                    "time": 345.76587450000557,
                    "velocity": 0.2755905511811024,
                    "duration": 0.09347550000001092
                },
                {
                    "name": "G1",
                    "midi": 31,
                    "time": 345.8593500000056,
                    "velocity": 0.30708661417322836,
                    "duration": 0.09347550000001092
                },
                {
                    "name": "C2",
                    "midi": 36,
                    "time": 345.9528255000056,
                    "velocity": 0.2755905511811024,
                    "duration": 0.09347550000001092
                },
                {
                    "name": "B1",
                    "midi": 35,
                    "time": 346.0463010000056,
                    "velocity": 0.2755905511811024,
                    "duration": 0.09347550000001092
                },
                {
                    "name": "A1",
                    "midi": 33,
                    "time": 346.1397765000056,
                    "velocity": 0.2755905511811024,
                    "duration": 0.09347550000001092
                },
                {
                    "name": "G1",
                    "midi": 31,
                    "time": 346.2332520000056,
                    "velocity": 0.31496062992125984,
                    "duration": 0.09347550000001092
                },
                {
                    "name": "C2",
                    "midi": 36,
                    "time": 346.32672750000563,
                    "velocity": 0.28346456692913385,
                    "duration": 0.09347550000001092
                },
                {
                    "name": "B1",
                    "midi": 35,
                    "time": 346.42020300000564,
                    "velocity": 0.28346456692913385,
                    "duration": 0.09347550000001092
                },
                {
                    "name": "A1",
                    "midi": 33,
                    "time": 346.51367850000565,
                    "velocity": 0.28346456692913385,
                    "duration": 0.09347550000001092
                },
                {
                    "name": "G1",
                    "midi": 31,
                    "time": 346.60715400000566,
                    "velocity": 0.31496062992125984,
                    "duration": 0.09347550000001092
                },
                {
                    "name": "C2",
                    "midi": 36,
                    "time": 346.7006295000057,
                    "velocity": 0.28346456692913385,
                    "duration": 0.09347550000001092
                },
                {
                    "name": "B1",
                    "midi": 35,
                    "time": 346.7941050000057,
                    "velocity": 0.28346456692913385,
                    "duration": 0.09347550000001092
                },
                {
                    "name": "A1",
                    "midi": 33,
                    "time": 346.8875805000057,
                    "velocity": 0.28346456692913385,
                    "duration": 0.09347550000001092
                },
                {
                    "name": "G1",
                    "midi": 31,
                    "time": 346.9810560000057,
                    "velocity": 0.3228346456692913,
                    "duration": 0.09347550000001092
                },
                {
                    "name": "C2",
                    "midi": 36,
                    "time": 347.0745315000057,
                    "velocity": 0.28346456692913385,
                    "duration": 0.09347550000001092
                },
                {
                    "name": "B1",
                    "midi": 35,
                    "time": 347.16800700000573,
                    "velocity": 0.29133858267716534,
                    "duration": 0.09347550000001092
                },
                {
                    "name": "A1",
                    "midi": 33,
                    "time": 347.26148250000574,
                    "velocity": 0.29133858267716534,
                    "duration": 0.09347550000001092
                },
                {
                    "name": "G1",
                    "midi": 31,
                    "time": 347.35495800000575,
                    "velocity": 0.33070866141732286,
                    "duration": 0.09347550000001092
                },
                {
                    "name": "C2",
                    "midi": 36,
                    "time": 347.44843350000576,
                    "velocity": 0.29133858267716534,
                    "duration": 0.09347550000001092
                },
                {
                    "name": "B1",
                    "midi": 35,
                    "time": 347.5419090000058,
                    "velocity": 0.29133858267716534,
                    "duration": 0.09347550000001092
                },
                {
                    "name": "A1",
                    "midi": 33,
                    "time": 347.6353845000058,
                    "velocity": 0.29133858267716534,
                    "duration": 0.09347550000001092
                },
                {
                    "name": "G1",
                    "midi": 31,
                    "time": 347.7288600000058,
                    "velocity": 0.33070866141732286,
                    "duration": 0.09347550000001092
                },
                {
                    "name": "C2",
                    "midi": 36,
                    "time": 347.8223355000058,
                    "velocity": 0.2992125984251969,
                    "duration": 0.09347550000001092
                },
                {
                    "name": "B1",
                    "midi": 35,
                    "time": 347.9158110000058,
                    "velocity": 0.2992125984251969,
                    "duration": 0.09347550000001092
                },
                {
                    "name": "A1",
                    "midi": 33,
                    "time": 348.0092865000058,
                    "velocity": 0.2992125984251969,
                    "duration": 0.09347550000001092
                },
                {
                    "name": "G1",
                    "midi": 31,
                    "time": 348.10276200000584,
                    "velocity": 0.3464566929133858,
                    "duration": 0.09347550000001092
                },
                {
                    "name": "C2",
                    "midi": 36,
                    "time": 348.19623750000585,
                    "velocity": 0.2992125984251969,
                    "duration": 0.09347550000001092
                },
                {
                    "name": "B1",
                    "midi": 35,
                    "time": 348.28971300000586,
                    "velocity": 0.2992125984251969,
                    "duration": 0.09347550000001092
                },
                {
                    "name": "A1",
                    "midi": 33,
                    "time": 348.3831885000059,
                    "velocity": 0.2992125984251969,
                    "duration": 0.09347550000001092
                },
                {
                    "name": "G1",
                    "midi": 31,
                    "time": 348.4766640000059,
                    "velocity": 0.3464566929133858,
                    "duration": 0.09347550000001092
                },
                {
                    "name": "C2",
                    "midi": 36,
                    "time": 348.5701395000059,
                    "velocity": 0.30708661417322836,
                    "duration": 0.09347550000001092
                },
                {
                    "name": "B1",
                    "midi": 35,
                    "time": 348.6636150000059,
                    "velocity": 0.30708661417322836,
                    "duration": 0.09347550000001092
                },
                {
                    "name": "A1",
                    "midi": 33,
                    "time": 348.7570905000059,
                    "velocity": 0.30708661417322836,
                    "duration": 0.09347550000001092
                },
                {
                    "name": "G1",
                    "midi": 31,
                    "time": 348.8505660000059,
                    "velocity": 0.3543307086614173,
                    "duration": 0.09347550000001092
                },
                {
                    "name": "C2",
                    "midi": 36,
                    "time": 348.94404150000594,
                    "velocity": 0.30708661417322836,
                    "duration": 0.09347550000001092
                },
                {
                    "name": "B1",
                    "midi": 35,
                    "time": 349.03751700000595,
                    "velocity": 0.30708661417322836,
                    "duration": 0.09347550000001092
                },
                {
                    "name": "A1",
                    "midi": 33,
                    "time": 349.13099250000596,
                    "velocity": 0.30708661417322836,
                    "duration": 0.09347550000001092
                },
                {
                    "name": "G1",
                    "midi": 31,
                    "time": 349.22446800000597,
                    "velocity": 0.3543307086614173,
                    "duration": 0.09347550000001092
                },
                {
                    "name": "C2",
                    "midi": 36,
                    "time": 349.317943500006,
                    "velocity": 0.30708661417322836,
                    "duration": 0.09347550000001092
                },
                {
                    "name": "B1",
                    "midi": 35,
                    "time": 349.411419000006,
                    "velocity": 0.31496062992125984,
                    "duration": 0.09347550000001092
                },
                {
                    "name": "A1",
                    "midi": 33,
                    "time": 349.504894500006,
                    "velocity": 0.31496062992125984,
                    "duration": 0.09347550000001092
                },
                {
                    "name": "G1",
                    "midi": 31,
                    "time": 349.598370000006,
                    "velocity": 0.36220472440944884,
                    "duration": 0.09347550000001092
                },
                {
                    "name": "C2",
                    "midi": 36,
                    "time": 349.691845500006,
                    "velocity": 0.31496062992125984,
                    "duration": 0.09347550000001092
                },
                {
                    "name": "B1",
                    "midi": 35,
                    "time": 349.78532100000604,
                    "velocity": 0.31496062992125984,
                    "duration": 0.09347550000001092
                },
                {
                    "name": "A1",
                    "midi": 33,
                    "time": 349.87879650000605,
                    "velocity": 0.31496062992125984,
                    "duration": 0.09347550000001092
                },
                {
                    "name": "G1",
                    "midi": 31,
                    "time": 349.97227200000606,
                    "velocity": 0.36220472440944884,
                    "duration": 0.09347550000001092
                },
                {
                    "name": "C2",
                    "midi": 36,
                    "time": 350.06574750000607,
                    "velocity": 0.3228346456692913,
                    "duration": 0.09347550000001092
                },
                {
                    "name": "B1",
                    "midi": 35,
                    "time": 350.1592230000061,
                    "velocity": 0.3228346456692913,
                    "duration": 0.09347550000001092
                },
                {
                    "name": "A1",
                    "midi": 33,
                    "time": 350.2526985000061,
                    "velocity": 0.3228346456692913,
                    "duration": 0.09347550000001092
                },
                {
                    "name": "G1",
                    "midi": 31,
                    "time": 350.3461740000061,
                    "velocity": 0.3700787401574803,
                    "duration": 0.09347550000001092
                },
                {
                    "name": "C2",
                    "midi": 36,
                    "time": 350.4396495000061,
                    "velocity": 0.3228346456692913,
                    "duration": 0.09347550000001092
                },
                {
                    "name": "B1",
                    "midi": 35,
                    "time": 350.5331250000061,
                    "velocity": 0.3228346456692913,
                    "duration": 0.09347550000001092
                },
                {
                    "name": "A1",
                    "midi": 33,
                    "time": 350.62660050000613,
                    "velocity": 0.3228346456692913,
                    "duration": 0.09347550000001092
                },
                {
                    "name": "G1",
                    "midi": 31,
                    "time": 350.72007600000615,
                    "velocity": 0.3779527559055118,
                    "duration": 0.09347550000001092
                },
                {
                    "name": "C2",
                    "midi": 36,
                    "time": 350.81355150000616,
                    "velocity": 0.33070866141732286,
                    "duration": 0.09347550000001092
                },
                {
                    "name": "B1",
                    "midi": 35,
                    "time": 350.90702700000617,
                    "velocity": 0.33070866141732286,
                    "duration": 0.09347550000001092
                },
                {
                    "name": "A1",
                    "midi": 33,
                    "time": 351.0005025000062,
                    "velocity": 0.33070866141732286,
                    "duration": 0.09347550000001092
                },
                {
                    "name": "G1",
                    "midi": 31,
                    "time": 351.0939780000062,
                    "velocity": 0.3779527559055118,
                    "duration": 0.09347550000001092
                },
                {
                    "name": "C2",
                    "midi": 36,
                    "time": 351.1874535000062,
                    "velocity": 0.33070866141732286,
                    "duration": 0.09347550000001092
                },
                {
                    "name": "B1",
                    "midi": 35,
                    "time": 351.2809290000062,
                    "velocity": 0.33070866141732286,
                    "duration": 0.09347550000001092
                },
                {
                    "name": "A1",
                    "midi": 33,
                    "time": 351.3744045000062,
                    "velocity": 0.33070866141732286,
                    "duration": 0.09347550000001092
                },
                {
                    "name": "G1",
                    "midi": 31,
                    "time": 351.46788000000623,
                    "velocity": 0.3858267716535433,
                    "duration": 0.09347550000001092
                },
                {
                    "name": "C2",
                    "midi": 36,
                    "time": 351.56135550000624,
                    "velocity": 0.33070866141732286,
                    "duration": 0.09347550000001092
                },
                {
                    "name": "B1",
                    "midi": 35,
                    "time": 351.65483100000625,
                    "velocity": 0.3464566929133858,
                    "duration": 0.09347550000001092
                },
                {
                    "name": "A1",
                    "midi": 33,
                    "time": 351.74830650000627,
                    "velocity": 0.3464566929133858,
                    "duration": 0.09347550000001092
                },
                {
                    "name": "G1",
                    "midi": 31,
                    "time": 351.8417820000063,
                    "velocity": 0.3858267716535433,
                    "duration": 0.09347550000001092
                },
                {
                    "name": "C2",
                    "midi": 36,
                    "time": 351.9352575000063,
                    "velocity": 0.3464566929133858,
                    "duration": 0.09347550000001092
                },
                {
                    "name": "B1",
                    "midi": 35,
                    "time": 352.0287330000063,
                    "velocity": 0.3464566929133858,
                    "duration": 0.09347550000001092
                },
                {
                    "name": "A1",
                    "midi": 33,
                    "time": 352.1222085000063,
                    "velocity": 0.3464566929133858,
                    "duration": 0.09347550000001092
                },
                {
                    "name": "G1",
                    "midi": 31,
                    "time": 352.2156840000063,
                    "velocity": 0.3937007874015748,
                    "duration": 0.09347550000001092
                },
                {
                    "name": "C2",
                    "midi": 36,
                    "time": 352.30915950000633,
                    "velocity": 0.3543307086614173,
                    "duration": 0.09347550000001092
                },
                {
                    "name": "B1",
                    "midi": 35,
                    "time": 352.40263500000634,
                    "velocity": 0.3543307086614173,
                    "duration": 0.09347550000001092
                },
                {
                    "name": "A1",
                    "midi": 33,
                    "time": 352.49611050000635,
                    "velocity": 0.3543307086614173,
                    "duration": 0.09347550000001092
                },
                {
                    "name": "G1",
                    "midi": 31,
                    "time": 352.58958600000636,
                    "velocity": 0.3937007874015748,
                    "duration": 0.09347550000001092
                },
                {
                    "name": "C2",
                    "midi": 36,
                    "time": 352.6830615000064,
                    "velocity": 0.3543307086614173,
                    "duration": 0.09347550000001092
                },
                {
                    "name": "B1",
                    "midi": 35,
                    "time": 352.7765370000064,
                    "velocity": 0.3543307086614173,
                    "duration": 0.09347550000001092
                },
                {
                    "name": "A1",
                    "midi": 33,
                    "time": 352.8700125000064,
                    "velocity": 0.3543307086614173,
                    "duration": 0.09347550000001092
                },
                {
                    "name": "G1",
                    "midi": 31,
                    "time": 352.9634880000064,
                    "velocity": 0.4015748031496063,
                    "duration": 0.09347550000001092
                },
                {
                    "name": "C2",
                    "midi": 36,
                    "time": 353.0569635000064,
                    "velocity": 0.36220472440944884,
                    "duration": 0.09347550000001092
                },
                {
                    "name": "B1",
                    "midi": 35,
                    "time": 353.15043900000643,
                    "velocity": 0.36220472440944884,
                    "duration": 0.09347550000001092
                },
                {
                    "name": "A1",
                    "midi": 33,
                    "time": 353.24391450000644,
                    "velocity": 0.36220472440944884,
                    "duration": 0.09347550000001092
                },
                {
                    "name": "G1",
                    "midi": 31,
                    "time": 353.33739000000645,
                    "velocity": 0.4094488188976378,
                    "duration": 0.09347550000001092
                },
                {
                    "name": "C2",
                    "midi": 36,
                    "time": 353.43086550000646,
                    "velocity": 0.3700787401574803,
                    "duration": 0.09347550000001092
                },
                {
                    "name": "B1",
                    "midi": 35,
                    "time": 353.5243410000065,
                    "velocity": 0.3779527559055118,
                    "duration": 0.09347550000001092
                },
                {
                    "name": "A1",
                    "midi": 33,
                    "time": 353.6178165000065,
                    "velocity": 0.3779527559055118,
                    "duration": 0.09347550000001092
                },
                {
                    "name": "G1",
                    "midi": 31,
                    "time": 353.7112920000065,
                    "velocity": 0.4251968503937008,
                    "duration": 0.09347550000001092
                },
                {
                    "name": "C#2",
                    "midi": 37,
                    "time": 353.8047675000065,
                    "velocity": 0.3858267716535433,
                    "duration": 0.09347550000001092
                },
                {
                    "name": "B1",
                    "midi": 35,
                    "time": 353.8982430000065,
                    "velocity": 0.3858267716535433,
                    "duration": 0.09347550000001092
                },
                {
                    "name": "A1",
                    "midi": 33,
                    "time": 353.9917185000065,
                    "velocity": 0.3937007874015748,
                    "duration": 0.09347550000001092
                },
                {
                    "name": "G1",
                    "midi": 31,
                    "time": 354.08519400000654,
                    "velocity": 0.4409448818897638,
                    "duration": 0.09347550000001092
                },
                {
                    "name": "C#2",
                    "midi": 37,
                    "time": 354.17866950000655,
                    "velocity": 0.4015748031496063,
                    "duration": 0.09347550000001092
                },
                {
                    "name": "B1",
                    "midi": 35,
                    "time": 354.27214500000656,
                    "velocity": 0.4015748031496063,
                    "duration": 0.09347550000001092
                },
                {
                    "name": "A1",
                    "midi": 33,
                    "time": 354.36562050000657,
                    "velocity": 0.4015748031496063,
                    "duration": 0.09347550000001092
                },
                {
                    "name": "G1",
                    "midi": 31,
                    "time": 354.4590960000066,
                    "velocity": 0.44881889763779526,
                    "duration": 0.10905474999998432
                },
                {
                    "name": "D2",
                    "midi": 38,
                    "time": 354.5525715000066,
                    "velocity": 0.4094488188976378,
                    "duration": 0.10905474999992748
                },
                {
                    "name": "B1",
                    "midi": 35,
                    "time": 354.64604700000655,
                    "velocity": 0.4094488188976378,
                    "duration": 0.10905474999992748
                },
                {
                    "name": "A1",
                    "midi": 33,
                    "time": 354.7395225000065,
                    "velocity": 0.41732283464566927,
                    "duration": 0.10905474999992748
                },
                {
                    "name": "G1",
                    "midi": 31,
                    "time": 354.83299800000646,
                    "velocity": 0.4645669291338583,
                    "duration": 0.10905474999992748
                },
                {
                    "name": "D2",
                    "midi": 38,
                    "time": 354.9264735000064,
                    "velocity": 0.4251968503937008,
                    "duration": 0.10905474999992748
                },
                {
                    "name": "B1",
                    "midi": 35,
                    "time": 355.01994900000636,
                    "velocity": 0.4251968503937008,
                    "duration": 0.10905474999992748
                },
                {
                    "name": "A1",
                    "midi": 33,
                    "time": 355.1134245000063,
                    "velocity": 0.4251968503937008,
                    "duration": 0.10905474999992748
                },
                {
                    "name": "G1",
                    "midi": 31,
                    "time": 355.20690000000627,
                    "velocity": 0.48031496062992124,
                    "duration": 0.10905474999992748
                },
                {
                    "name": "D2",
                    "midi": 38,
                    "time": 355.3003755000062,
                    "velocity": 0.4330708661417323,
                    "duration": 0.10905474999992748
                },
                {
                    "name": "B1",
                    "midi": 35,
                    "time": 355.3938510000062,
                    "velocity": 0.4409448818897638,
                    "duration": 0.10905474999992748
                },
                {
                    "name": "A1",
                    "midi": 33,
                    "time": 355.48732650000613,
                    "velocity": 0.4409448818897638,
                    "duration": 0.10905474999992748
                },
                {
                    "name": "G1",
                    "midi": 31,
                    "time": 355.5808020000061,
                    "velocity": 0.49606299212598426,
                    "duration": 0.10905474999992748
                },
                {
                    "name": "D2",
                    "midi": 38,
                    "time": 355.67427750000604,
                    "velocity": 0.44881889763779526,
                    "duration": 0.10905474999992748
                },
                {
                    "name": "B1",
                    "midi": 35,
                    "time": 355.767753000006,
                    "velocity": 0.44881889763779526,
                    "duration": 0.10905474999992748
                },
                {
                    "name": "A1",
                    "midi": 33,
                    "time": 355.86122850000595,
                    "velocity": 0.44881889763779526,
                    "duration": 0.10905474999992748
                },
                {
                    "name": "G1",
                    "midi": 31,
                    "time": 355.9547040000059,
                    "velocity": 0.5275590551181102,
                    "duration": 0.10905474999992748
                },
                {
                    "name": "A1",
                    "midi": 33,
                    "time": 356.04817950000586,
                    "velocity": 0.5196850393700787,
                    "duration": 0.10905474999992748
                },
                {
                    "name": "B1",
                    "midi": 35,
                    "time": 356.1416550000058,
                    "velocity": 0.5118110236220472,
                    "duration": 0.10905474999992748
                },
                {
                    "name": "C2",
                    "midi": 36,
                    "time": 356.23513050000577,
                    "velocity": 0.49606299212598426,
                    "duration": 0.10905474999992748
                },
                {
                    "name": "D2",
                    "midi": 38,
                    "time": 356.3286060000057,
                    "velocity": 0.4881889763779528,
                    "duration": 0.10905474999992748
                },
                {
                    "name": "C2",
                    "midi": 36,
                    "time": 356.4220815000057,
                    "velocity": 0.49606299212598426,
                    "duration": 0.10905474999992748
                },
                {
                    "name": "B1",
                    "midi": 35,
                    "time": 356.51555700000563,
                    "velocity": 0.5039370078740157,
                    "duration": 0.10905474999992748
                },
                {
                    "name": "A1",
                    "midi": 33,
                    "time": 356.6090325000056,
                    "velocity": 0.5196850393700787,
                    "duration": 0.10905474999992748
                },
                {
                    "name": "G1",
                    "midi": 31,
                    "time": 356.70250800000554,
                    "velocity": 0.5196850393700787,
                    "duration": 0.10905474999992748
                },
                {
                    "name": "A1",
                    "midi": 33,
                    "time": 356.7959835000055,
                    "velocity": 0.5118110236220472,
                    "duration": 0.10905474999992748
                },
                {
                    "name": "B1",
                    "midi": 35,
                    "time": 356.88945900000544,
                    "velocity": 0.5039370078740157,
                    "duration": 0.10905474999992748
                },
                {
                    "name": "C2",
                    "midi": 36,
                    "time": 356.9829345000054,
                    "velocity": 0.5039370078740157,
                    "duration": 0.10905474999992748
                },
                {
                    "name": "D2",
                    "midi": 38,
                    "time": 357.07641000000535,
                    "velocity": 0.48031496062992124,
                    "duration": 0.10905474999992748
                },
                {
                    "name": "C2",
                    "midi": 36,
                    "time": 357.1698855000053,
                    "velocity": 0.49606299212598426,
                    "duration": 0.10905474999992748
                },
                {
                    "name": "B1",
                    "midi": 35,
                    "time": 357.26336100000526,
                    "velocity": 0.5118110236220472,
                    "duration": 0.10905474999992748
                },
                {
                    "name": "A1",
                    "midi": 33,
                    "time": 357.3568365000052,
                    "velocity": 0.5275590551181102,
                    "duration": 0.10905474999992748
                },
                {
                    "name": "G1",
                    "midi": 31,
                    "time": 357.45031200000517,
                    "velocity": 0.5433070866141733,
                    "duration": 0.2025302499999384
                },
                {
                    "name": "A1",
                    "midi": 33,
                    "time": 357.63726300000513,
                    "velocity": 0.5196850393700787,
                    "duration": 0.10905474999992748
                },
                {
                    "name": "B1",
                    "midi": 35,
                    "time": 357.7307385000051,
                    "velocity": 0.5118110236220472,
                    "duration": 0.10905474999992748
                },
                {
                    "name": "C2",
                    "midi": 36,
                    "time": 357.82421400000504,
                    "velocity": 0.5039370078740157,
                    "duration": 0.10905474999992748
                },
                {
                    "name": "D2",
                    "midi": 38,
                    "time": 357.917689500005,
                    "velocity": 0.49606299212598426,
                    "duration": 0.10905474999992748
                },
                {
                    "name": "E2",
                    "midi": 40,
                    "time": 358.01116500000495,
                    "velocity": 0.49606299212598426,
                    "duration": 0.10905474999992748
                },
                {
                    "name": "F2",
                    "midi": 41,
                    "time": 358.1046405000049,
                    "velocity": 0.4881889763779528,
                    "duration": 0.10905474999992748
                },
                {
                    "name": "G2",
                    "midi": 43,
                    "time": 358.19811600000486,
                    "velocity": 0.48031496062992124,
                    "duration": 0.10905474999992748
                },
                {
                    "name": "A2",
                    "midi": 45,
                    "time": 358.2915915000048,
                    "velocity": 0.47244094488188976,
                    "duration": 0.10905474999992748
                },
                {
                    "name": "B2",
                    "midi": 47,
                    "time": 358.38506700000477,
                    "velocity": 0.4645669291338583,
                    "duration": 0.10905474999992748
                },
                {
                    "name": "C3",
                    "midi": 48,
                    "time": 358.4785425000047,
                    "velocity": 0.4566929133858268,
                    "duration": 0.10905474999992748
                },
                {
                    "name": "D3",
                    "midi": 50,
                    "time": 358.5720180000047,
                    "velocity": 0.44881889763779526,
                    "duration": 0.10905474999992748
                },
                {
                    "name": "E3",
                    "midi": 52,
                    "time": 358.66549350000463,
                    "velocity": 0.4409448818897638,
                    "duration": 0.10905474999992748
                },
                {
                    "name": "F3",
                    "midi": 53,
                    "time": 358.7589690000046,
                    "velocity": 0.4330708661417323,
                    "duration": 0.10905474999992748
                },
                {
                    "name": "G3",
                    "midi": 55,
                    "time": 358.85244450000454,
                    "velocity": 0.4330708661417323,
                    "duration": 0.10905474999992748
                },
                {
                    "name": "C3",
                    "midi": 48,
                    "time": 358.9459200000045,
                    "velocity": 0.4251968503937008,
                    "duration": 0.186950999999965
                },
                {
                    "name": "G2",
                    "midi": 43,
                    "time": 359.13287100000446,
                    "velocity": 0.2047244094488189,
                    "duration": 0.14021324999998797
                },
                {
                    "name": "C2",
                    "midi": 36,
                    "time": 359.13287100000446,
                    "velocity": 0.1732283464566929,
                    "duration": 0.14021324999998797
                },
                {
                    "name": "G2",
                    "midi": 43,
                    "time": 359.3198220000044,
                    "velocity": 0.2047244094488189,
                    "duration": 0.14021324999998797
                },
                {
                    "name": "C2",
                    "midi": 36,
                    "time": 359.3198220000044,
                    "velocity": 0.1732283464566929,
                    "duration": 0.14021324999998797
                },
                {
                    "name": "G2",
                    "midi": 43,
                    "time": 359.5067730000044,
                    "velocity": 0.2125984251968504,
                    "duration": 0.14021324999998797
                },
                {
                    "name": "C2",
                    "midi": 36,
                    "time": 359.5067730000044,
                    "velocity": 0.1732283464566929,
                    "duration": 0.14021324999998797
                },
                {
                    "name": "G2",
                    "midi": 43,
                    "time": 359.69372400000435,
                    "velocity": 0.2125984251968504,
                    "duration": 0.14021324999998797
                },
                {
                    "name": "C2",
                    "midi": 36,
                    "time": 359.69372400000435,
                    "velocity": 0.1732283464566929,
                    "duration": 0.14021324999998797
                },
                {
                    "name": "G2",
                    "midi": 43,
                    "time": 359.8806750000043,
                    "velocity": 0.2204724409448819,
                    "duration": 0.14021324999998797
                },
                {
                    "name": "C2",
                    "midi": 36,
                    "time": 359.8806750000043,
                    "velocity": 0.18110236220472442,
                    "duration": 0.14021324999998797
                },
                {
                    "name": "G2",
                    "midi": 43,
                    "time": 360.0676260000043,
                    "velocity": 0.2204724409448819,
                    "duration": 0.14021324999998797
                },
                {
                    "name": "C2",
                    "midi": 36,
                    "time": 360.0676260000043,
                    "velocity": 0.18110236220472442,
                    "duration": 0.14021324999998797
                },
                {
                    "name": "G2",
                    "midi": 43,
                    "time": 360.25457700000425,
                    "velocity": 0.2283464566929134,
                    "duration": 0.14021324999998797
                },
                {
                    "name": "C2",
                    "midi": 36,
                    "time": 360.25457700000425,
                    "velocity": 0.1889763779527559,
                    "duration": 0.14021324999998797
                },
                {
                    "name": "C2",
                    "midi": 36,
                    "time": 360.4415280000042,
                    "velocity": 0.1968503937007874,
                    "duration": 0.14021324999998797
                },
                {
                    "name": "G2",
                    "midi": 43,
                    "time": 360.4415280000042,
                    "velocity": 0.23622047244094488,
                    "duration": 0.14021324999998797
                },
                {
                    "name": "C2",
                    "midi": 36,
                    "time": 360.6284790000042,
                    "velocity": 0.1732283464566929,
                    "duration": 0.14021324999998797
                },
                {
                    "name": "G2",
                    "midi": 43,
                    "time": 360.6284790000042,
                    "velocity": 0.2125984251968504,
                    "duration": 0.14021324999998797
                },
                {
                    "name": "C2",
                    "midi": 36,
                    "time": 360.81543000000414,
                    "velocity": 0.18110236220472442,
                    "duration": 0.14021324999998797
                },
                {
                    "name": "G2",
                    "midi": 43,
                    "time": 360.81543000000414,
                    "velocity": 0.2204724409448819,
                    "duration": 0.14021324999998797
                },
                {
                    "name": "C2",
                    "midi": 36,
                    "time": 361.0023810000041,
                    "velocity": 0.1889763779527559,
                    "duration": 0.14021324999998797
                },
                {
                    "name": "G2",
                    "midi": 43,
                    "time": 361.0023810000041,
                    "velocity": 0.2283464566929134,
                    "duration": 0.14021324999998797
                },
                {
                    "name": "C2",
                    "midi": 36,
                    "time": 361.1893320000041,
                    "velocity": 0.1968503937007874,
                    "duration": 0.14021324999998797
                },
                {
                    "name": "G2",
                    "midi": 43,
                    "time": 361.1893320000041,
                    "velocity": 0.23622047244094488,
                    "duration": 0.14021324999998797
                },
                {
                    "name": "C2",
                    "midi": 36,
                    "time": 361.37628300000404,
                    "velocity": 0.1968503937007874,
                    "duration": 0.14021324999998797
                },
                {
                    "name": "G2",
                    "midi": 43,
                    "time": 361.37628300000404,
                    "velocity": 0.23622047244094488,
                    "duration": 0.14021324999998797
                },
                {
                    "name": "C2",
                    "midi": 36,
                    "time": 361.563234000004,
                    "velocity": 0.1968503937007874,
                    "duration": 0.14021324999998797
                },
                {
                    "name": "A2",
                    "midi": 45,
                    "time": 361.563234000004,
                    "velocity": 0.23622047244094488,
                    "duration": 0.14021324999998797
                },
                {
                    "name": "C2",
                    "midi": 36,
                    "time": 361.75018500000397,
                    "velocity": 0.1968503937007874,
                    "duration": 0.14021324999998797
                },
                {
                    "name": "A2",
                    "midi": 45,
                    "time": 361.75018500000397,
                    "velocity": 0.23622047244094488,
                    "duration": 0.14021324999998797
                },
                {
                    "name": "B1",
                    "midi": 35,
                    "time": 361.93713600000393,
                    "velocity": 0.1968503937007874,
                    "duration": 0.14021324999998797
                },
                {
                    "name": "G2",
                    "midi": 43,
                    "time": 361.93713600000393,
                    "velocity": 0.23622047244094488,
                    "duration": 0.14021324999998797
                },
                {
                    "name": "B1",
                    "midi": 35,
                    "time": 362.1240870000039,
                    "velocity": 0.1968503937007874,
                    "duration": 0.14021324999998797
                },
                {
                    "name": "G2",
                    "midi": 43,
                    "time": 362.1240870000039,
                    "velocity": 0.23622047244094488,
                    "duration": 0.14021324999998797
                },
                {
                    "name": "B1",
                    "midi": 35,
                    "time": 362.31103800000386,
                    "velocity": 0.1968503937007874,
                    "duration": 0.14021324999998797
                },
                {
                    "name": "G2",
                    "midi": 43,
                    "time": 362.31103800000386,
                    "velocity": 0.23622047244094488,
                    "duration": 0.14021324999998797
                },
                {
                    "name": "B1",
                    "midi": 35,
                    "time": 362.4979890000038,
                    "velocity": 0.1968503937007874,
                    "duration": 0.14021324999998797
                },
                {
                    "name": "G2",
                    "midi": 43,
                    "time": 362.4979890000038,
                    "velocity": 0.23622047244094488,
                    "duration": 0.14021324999998797
                },
                {
                    "name": "B1",
                    "midi": 35,
                    "time": 362.6849400000038,
                    "velocity": 0.1968503937007874,
                    "duration": 0.14021324999998797
                },
                {
                    "name": "G2",
                    "midi": 43,
                    "time": 362.6849400000038,
                    "velocity": 0.23622047244094488,
                    "duration": 0.14021324999998797
                },
                {
                    "name": "B1",
                    "midi": 35,
                    "time": 362.87189100000376,
                    "velocity": 0.1968503937007874,
                    "duration": 0.14021324999998797
                },
                {
                    "name": "G2",
                    "midi": 43,
                    "time": 362.87189100000376,
                    "velocity": 0.23622047244094488,
                    "duration": 0.14021324999998797
                },
                {
                    "name": "B1",
                    "midi": 35,
                    "time": 363.0588420000037,
                    "velocity": 0.1968503937007874,
                    "duration": 0.14021324999998797
                },
                {
                    "name": "G2",
                    "midi": 43,
                    "time": 363.0588420000037,
                    "velocity": 0.23622047244094488,
                    "duration": 0.14021324999998797
                },
                {
                    "name": "B1",
                    "midi": 35,
                    "time": 363.2457930000037,
                    "velocity": 0.1968503937007874,
                    "duration": 0.14021324999998797
                },
                {
                    "name": "G2",
                    "midi": 43,
                    "time": 363.2457930000037,
                    "velocity": 0.23622047244094488,
                    "duration": 0.14021324999998797
                },
                {
                    "name": "B1",
                    "midi": 35,
                    "time": 363.43274400000365,
                    "velocity": 0.1968503937007874,
                    "duration": 0.14021324999998797
                },
                {
                    "name": "G2",
                    "midi": 43,
                    "time": 363.43274400000365,
                    "velocity": 0.23622047244094488,
                    "duration": 0.14021324999998797
                },
                {
                    "name": "B1",
                    "midi": 35,
                    "time": 363.6196950000036,
                    "velocity": 0.1968503937007874,
                    "duration": 0.14021324999998797
                },
                {
                    "name": "G2",
                    "midi": 43,
                    "time": 363.6196950000036,
                    "velocity": 0.23622047244094488,
                    "duration": 0.14021324999998797
                },
                {
                    "name": "B1",
                    "midi": 35,
                    "time": 363.8066460000036,
                    "velocity": 0.1968503937007874,
                    "duration": 0.14021324999998797
                },
                {
                    "name": "G2",
                    "midi": 43,
                    "time": 363.8066460000036,
                    "velocity": 0.23622047244094488,
                    "duration": 0.14021324999998797
                },
                {
                    "name": "B1",
                    "midi": 35,
                    "time": 363.99359700000355,
                    "velocity": 0.1968503937007874,
                    "duration": 0.14021324999998797
                },
                {
                    "name": "G2",
                    "midi": 43,
                    "time": 363.99359700000355,
                    "velocity": 0.23622047244094488,
                    "duration": 0.14021324999998797
                },
                {
                    "name": "B1",
                    "midi": 35,
                    "time": 364.1805480000035,
                    "velocity": 0.1968503937007874,
                    "duration": 0.14021324999998797
                },
                {
                    "name": "G2",
                    "midi": 43,
                    "time": 364.1805480000035,
                    "velocity": 0.23622047244094488,
                    "duration": 0.14021324999998797
                },
                {
                    "name": "B1",
                    "midi": 35,
                    "time": 364.3674990000035,
                    "velocity": 0.1968503937007874,
                    "duration": 0.14021324999998797
                },
                {
                    "name": "G2",
                    "midi": 43,
                    "time": 364.3674990000035,
                    "velocity": 0.23622047244094488,
                    "duration": 0.14021324999998797
                },
                {
                    "name": "B1",
                    "midi": 35,
                    "time": 364.55445000000344,
                    "velocity": 0.1968503937007874,
                    "duration": 0.14021324999998797
                },
                {
                    "name": "G2",
                    "midi": 43,
                    "time": 364.55445000000344,
                    "velocity": 0.23622047244094488,
                    "duration": 0.14021324999998797
                },
                {
                    "name": "B1",
                    "midi": 35,
                    "time": 364.7414010000034,
                    "velocity": 0.1968503937007874,
                    "duration": 0.14021324999998797
                },
                {
                    "name": "G2",
                    "midi": 43,
                    "time": 364.7414010000034,
                    "velocity": 0.23622047244094488,
                    "duration": 0.14021324999998797
                },
                {
                    "name": "F2",
                    "midi": 41,
                    "time": 364.9283520000034,
                    "velocity": 0.23622047244094488,
                    "duration": 0.14021324999998797
                },
                {
                    "name": "A#1",
                    "midi": 34,
                    "time": 364.9283520000034,
                    "velocity": 0.2047244094488189,
                    "duration": 0.14021324999998797
                },
                {
                    "name": "F2",
                    "midi": 41,
                    "time": 365.11530300000334,
                    "velocity": 0.23622047244094488,
                    "duration": 0.14021324999998797
                },
                {
                    "name": "A#1",
                    "midi": 34,
                    "time": 365.11530300000334,
                    "velocity": 0.1968503937007874,
                    "duration": 0.14021324999998797
                },
                {
                    "name": "F2",
                    "midi": 41,
                    "time": 365.3022540000033,
                    "velocity": 0.23622047244094488,
                    "duration": 0.14021324999998797
                },
                {
                    "name": "A#1",
                    "midi": 34,
                    "time": 365.3022540000033,
                    "velocity": 0.1968503937007874,
                    "duration": 0.14021324999998797
                },
                {
                    "name": "F2",
                    "midi": 41,
                    "time": 365.48920500000327,
                    "velocity": 0.2440944881889764,
                    "duration": 0.14021324999998797
                },
                {
                    "name": "A#1",
                    "midi": 34,
                    "time": 365.48920500000327,
                    "velocity": 0.2047244094488189,
                    "duration": 0.14021324999998797
                },
                {
                    "name": "F2",
                    "midi": 41,
                    "time": 365.67615600000323,
                    "velocity": 0.2440944881889764,
                    "duration": 0.14021324999998797
                },
                {
                    "name": "A#1",
                    "midi": 34,
                    "time": 365.67615600000323,
                    "velocity": 0.2047244094488189,
                    "duration": 0.14021324999998797
                },
                {
                    "name": "F2",
                    "midi": 41,
                    "time": 365.8631070000032,
                    "velocity": 0.2440944881889764,
                    "duration": 0.14021324999998797
                },
                {
                    "name": "A#1",
                    "midi": 34,
                    "time": 365.8631070000032,
                    "velocity": 0.2047244094488189,
                    "duration": 0.14021324999998797
                },
                {
                    "name": "F2",
                    "midi": 41,
                    "time": 366.05005800000316,
                    "velocity": 0.2440944881889764,
                    "duration": 0.14021324999998797
                },
                {
                    "name": "A#1",
                    "midi": 34,
                    "time": 366.05005800000316,
                    "velocity": 0.2047244094488189,
                    "duration": 0.14021324999998797
                },
                {
                    "name": "F2",
                    "midi": 41,
                    "time": 366.2370090000031,
                    "velocity": 0.2440944881889764,
                    "duration": 0.14021324999998797
                },
                {
                    "name": "A#1",
                    "midi": 34,
                    "time": 366.2370090000031,
                    "velocity": 0.2047244094488189,
                    "duration": 0.14021324999998797
                },
                {
                    "name": "A#1",
                    "midi": 34,
                    "time": 366.4239600000031,
                    "velocity": 0.2047244094488189,
                    "duration": 0.14021324999998797
                },
                {
                    "name": "F2",
                    "midi": 41,
                    "time": 366.4239600000031,
                    "velocity": 0.2440944881889764,
                    "duration": 0.14021324999998797
                },
                {
                    "name": "A#1",
                    "midi": 34,
                    "time": 366.61091100000306,
                    "velocity": 0.2047244094488189,
                    "duration": 0.14021324999998797
                },
                {
                    "name": "F2",
                    "midi": 41,
                    "time": 366.61091100000306,
                    "velocity": 0.2440944881889764,
                    "duration": 0.14021324999998797
                },
                {
                    "name": "A#1",
                    "midi": 34,
                    "time": 366.797862000003,
                    "velocity": 0.2047244094488189,
                    "duration": 0.14021324999998797
                },
                {
                    "name": "F2",
                    "midi": 41,
                    "time": 366.797862000003,
                    "velocity": 0.2440944881889764,
                    "duration": 0.14021324999998797
                },
                {
                    "name": "A#1",
                    "midi": 34,
                    "time": 366.984813000003,
                    "velocity": 0.2047244094488189,
                    "duration": 0.14021324999998797
                },
                {
                    "name": "F2",
                    "midi": 41,
                    "time": 366.984813000003,
                    "velocity": 0.2440944881889764,
                    "duration": 0.14021324999998797
                },
                {
                    "name": "A#1",
                    "midi": 34,
                    "time": 367.17176400000295,
                    "velocity": 0.2047244094488189,
                    "duration": 0.14021324999998797
                },
                {
                    "name": "F2",
                    "midi": 41,
                    "time": 367.17176400000295,
                    "velocity": 0.2440944881889764,
                    "duration": 0.14021324999998797
                },
                {
                    "name": "A#1",
                    "midi": 34,
                    "time": 367.3587150000029,
                    "velocity": 0.1968503937007874,
                    "duration": 0.14021324999998797
                },
                {
                    "name": "F2",
                    "midi": 41,
                    "time": 367.3587150000029,
                    "velocity": 0.23622047244094488,
                    "duration": 0.14021324999998797
                },
                {
                    "name": "A#1",
                    "midi": 34,
                    "time": 367.5456660000029,
                    "velocity": 0.1968503937007874,
                    "duration": 0.14021324999998797
                },
                {
                    "name": "G2",
                    "midi": 43,
                    "time": 367.5456660000029,
                    "velocity": 0.23622047244094488,
                    "duration": 0.14021324999998797
                },
                {
                    "name": "A#1",
                    "midi": 34,
                    "time": 367.73261700000285,
                    "velocity": 0.1968503937007874,
                    "duration": 0.14021324999998797
                },
                {
                    "name": "G2",
                    "midi": 43,
                    "time": 367.73261700000285,
                    "velocity": 0.23622047244094488,
                    "duration": 0.14021324999998797
                },
                {
                    "name": "A1",
                    "midi": 33,
                    "time": 367.9195680000028,
                    "velocity": 0.1968503937007874,
                    "duration": 0.14021324999998797
                },
                {
                    "name": "F2",
                    "midi": 41,
                    "time": 367.9195680000028,
                    "velocity": 0.23622047244094488,
                    "duration": 0.14021324999998797
                },
                {
                    "name": "A1",
                    "midi": 33,
                    "time": 368.1065190000028,
                    "velocity": 0.1968503937007874,
                    "duration": 0.14021324999998797
                },
                {
                    "name": "F2",
                    "midi": 41,
                    "time": 368.1065190000028,
                    "velocity": 0.23622047244094488,
                    "duration": 0.14021324999998797
                },
                {
                    "name": "A1",
                    "midi": 33,
                    "time": 368.29347000000274,
                    "velocity": 0.1968503937007874,
                    "duration": 0.14021324999998797
                },
                {
                    "name": "F2",
                    "midi": 41,
                    "time": 368.29347000000274,
                    "velocity": 0.23622047244094488,
                    "duration": 0.14021324999998797
                },
                {
                    "name": "A1",
                    "midi": 33,
                    "time": 368.4804210000027,
                    "velocity": 0.1968503937007874,
                    "duration": 0.14021324999998797
                },
                {
                    "name": "F2",
                    "midi": 41,
                    "time": 368.4804210000027,
                    "velocity": 0.23622047244094488,
                    "duration": 0.14021324999998797
                },
                {
                    "name": "A1",
                    "midi": 33,
                    "time": 368.6673720000027,
                    "velocity": 0.1968503937007874,
                    "duration": 0.14021324999998797
                },
                {
                    "name": "F2",
                    "midi": 41,
                    "time": 368.6673720000027,
                    "velocity": 0.23622047244094488,
                    "duration": 0.14021324999998797
                },
                {
                    "name": "A1",
                    "midi": 33,
                    "time": 368.85432300000264,
                    "velocity": 0.1968503937007874,
                    "duration": 0.14021324999998797
                },
                {
                    "name": "F2",
                    "midi": 41,
                    "time": 368.85432300000264,
                    "velocity": 0.23622047244094488,
                    "duration": 0.14021324999998797
                },
                {
                    "name": "A1",
                    "midi": 33,
                    "time": 369.0412740000026,
                    "velocity": 0.1968503937007874,
                    "duration": 0.14021324999998797
                },
                {
                    "name": "F2",
                    "midi": 41,
                    "time": 369.0412740000026,
                    "velocity": 0.23622047244094488,
                    "duration": 0.14021324999998797
                },
                {
                    "name": "A1",
                    "midi": 33,
                    "time": 369.22822500000257,
                    "velocity": 0.1968503937007874,
                    "duration": 0.14021324999998797
                },
                {
                    "name": "F2",
                    "midi": 41,
                    "time": 369.22822500000257,
                    "velocity": 0.23622047244094488,
                    "duration": 0.14021324999998797
                },
                {
                    "name": "G#1",
                    "midi": 32,
                    "time": 369.41517600000253,
                    "velocity": 0.1968503937007874,
                    "duration": 0.14021324999998797
                },
                {
                    "name": "F2",
                    "midi": 41,
                    "time": 369.41517600000253,
                    "velocity": 0.23622047244094488,
                    "duration": 0.14021324999998797
                },
                {
                    "name": "G#1",
                    "midi": 32,
                    "time": 369.6021270000025,
                    "velocity": 0.1968503937007874,
                    "duration": 0.14021324999998797
                },
                {
                    "name": "F2",
                    "midi": 41,
                    "time": 369.6021270000025,
                    "velocity": 0.23622047244094488,
                    "duration": 0.14021324999998797
                },
                {
                    "name": "G#1",
                    "midi": 32,
                    "time": 369.78907800000246,
                    "velocity": 0.1968503937007874,
                    "duration": 0.14021324999998797
                },
                {
                    "name": "F2",
                    "midi": 41,
                    "time": 369.78907800000246,
                    "velocity": 0.23622047244094488,
                    "duration": 0.14021324999998797
                },
                {
                    "name": "G#1",
                    "midi": 32,
                    "time": 369.9760290000024,
                    "velocity": 0.1968503937007874,
                    "duration": 0.14021324999998797
                },
                {
                    "name": "F2",
                    "midi": 41,
                    "time": 369.9760290000024,
                    "velocity": 0.23622047244094488,
                    "duration": 0.14021324999998797
                },
                {
                    "name": "G#1",
                    "midi": 32,
                    "time": 370.1629800000024,
                    "velocity": 0.1968503937007874,
                    "duration": 0.14021324999998797
                },
                {
                    "name": "F2",
                    "midi": 41,
                    "time": 370.1629800000024,
                    "velocity": 0.23622047244094488,
                    "duration": 0.14021324999998797
                },
                {
                    "name": "G#1",
                    "midi": 32,
                    "time": 370.34993100000236,
                    "velocity": 0.1968503937007874,
                    "duration": 0.14021324999998797
                },
                {
                    "name": "F2",
                    "midi": 41,
                    "time": 370.34993100000236,
                    "velocity": 0.23622047244094488,
                    "duration": 0.14021324999998797
                },
                {
                    "name": "G#1",
                    "midi": 32,
                    "time": 370.5368820000023,
                    "velocity": 0.1968503937007874,
                    "duration": 0.14021324999998797
                },
                {
                    "name": "F2",
                    "midi": 41,
                    "time": 370.5368820000023,
                    "velocity": 0.23622047244094488,
                    "duration": 0.14021324999998797
                },
                {
                    "name": "G#1",
                    "midi": 32,
                    "time": 370.7238330000023,
                    "velocity": 0.1968503937007874,
                    "duration": 0.14021324999998797
                },
                {
                    "name": "F2",
                    "midi": 41,
                    "time": 370.7238330000023,
                    "velocity": 0.23622047244094488,
                    "duration": 0.14021324999998797
                },
                {
                    "name": "G1",
                    "midi": 31,
                    "time": 370.91078400000225,
                    "velocity": 0.23622047244094488,
                    "duration": 0.14021324999998797
                },
                {
                    "name": "F2",
                    "midi": 41,
                    "time": 370.91078400000225,
                    "velocity": 0.28346456692913385,
                    "duration": 0.14021324999998797
                },
                {
                    "name": "G1",
                    "midi": 31,
                    "time": 371.0977350000022,
                    "velocity": 0.25196850393700787,
                    "duration": 0.14021324999998797
                },
                {
                    "name": "F2",
                    "midi": 41,
                    "time": 371.0977350000022,
                    "velocity": 0.2992125984251969,
                    "duration": 0.14021324999998797
                },
                {
                    "name": "G1",
                    "midi": 31,
                    "time": 371.2846860000022,
                    "velocity": 0.25984251968503935,
                    "duration": 0.14021324999998797
                },
                {
                    "name": "F2",
                    "midi": 41,
                    "time": 371.2846860000022,
                    "velocity": 0.30708661417322836,
                    "duration": 0.14021324999998797
                },
                {
                    "name": "G1",
                    "midi": 31,
                    "time": 371.47163700000215,
                    "velocity": 0.2677165354330709,
                    "duration": 0.14021324999998797
                },
                {
                    "name": "F2",
                    "midi": 41,
                    "time": 371.47163700000215,
                    "velocity": 0.3228346456692913,
                    "duration": 0.14021324999998797
                },
                {
                    "name": "G1",
                    "midi": 31,
                    "time": 371.6585880000021,
                    "velocity": 0.28346456692913385,
                    "duration": 0.14021324999998797
                },
                {
                    "name": "F2",
                    "midi": 41,
                    "time": 371.6585880000021,
                    "velocity": 0.33858267716535434,
                    "duration": 0.14021324999998797
                },
                {
                    "name": "G1",
                    "midi": 31,
                    "time": 371.8455390000021,
                    "velocity": 0.2992125984251969,
                    "duration": 0.14021324999998797
                },
                {
                    "name": "F2",
                    "midi": 41,
                    "time": 371.8455390000021,
                    "velocity": 0.3543307086614173,
                    "duration": 0.14021324999998797
                },
                {
                    "name": "G#1",
                    "midi": 32,
                    "time": 372.03249000000204,
                    "velocity": 0.30708661417322836,
                    "duration": 0.14021324999998797
                },
                {
                    "name": "F2",
                    "midi": 41,
                    "time": 372.03249000000204,
                    "velocity": 0.36220472440944884,
                    "duration": 0.14021324999998797
                },
                {
                    "name": "G#1",
                    "midi": 32,
                    "time": 372.219441000002,
                    "velocity": 0.31496062992125984,
                    "duration": 0.14021324999998797
                },
                {
                    "name": "F2",
                    "midi": 41,
                    "time": 372.219441000002,
                    "velocity": 0.3779527559055118,
                    "duration": 0.14021324999998797
                },
                {
                    "name": "G1",
                    "midi": 31,
                    "time": 372.406392000002,
                    "velocity": 0.3464566929133858,
                    "duration": 0.14021324999998797
                },
                {
                    "name": "F2",
                    "midi": 41,
                    "time": 372.406392000002,
                    "velocity": 0.4094488188976378,
                    "duration": 0.14021324999998797
                },
                {
                    "name": "G1",
                    "midi": 31,
                    "time": 372.59334300000194,
                    "velocity": 0.3464566929133858,
                    "duration": 0.14021324999998797
                },
                {
                    "name": "F2",
                    "midi": 41,
                    "time": 372.59334300000194,
                    "velocity": 0.4094488188976378,
                    "duration": 0.14021324999998797
                },
                {
                    "name": "G#1",
                    "midi": 32,
                    "time": 372.7802940000019,
                    "velocity": 0.3543307086614173,
                    "duration": 0.14021324999998797
                },
                {
                    "name": "F2",
                    "midi": 41,
                    "time": 372.7802940000019,
                    "velocity": 0.4330708661417323,
                    "duration": 0.14021324999998797
                },
                {
                    "name": "G#1",
                    "midi": 32,
                    "time": 372.96724500000187,
                    "velocity": 0.36220472440944884,
                    "duration": 0.14021324999998797
                },
                {
                    "name": "F2",
                    "midi": 41,
                    "time": 372.96724500000187,
                    "velocity": 0.4330708661417323,
                    "duration": 0.14021324999998797
                },
                {
                    "name": "G1",
                    "midi": 31,
                    "time": 373.15419600000183,
                    "velocity": 0.3779527559055118,
                    "duration": 0.14021324999998797
                },
                {
                    "name": "F2",
                    "midi": 41,
                    "time": 373.15419600000183,
                    "velocity": 0.4566929133858268,
                    "duration": 0.14021324999998797
                },
                {
                    "name": "G1",
                    "midi": 31,
                    "time": 373.3411470000018,
                    "velocity": 0.4015748031496063,
                    "duration": 0.14021324999998797
                },
                {
                    "name": "F2",
                    "midi": 41,
                    "time": 373.3411470000018,
                    "velocity": 0.47244094488188976,
                    "duration": 0.14021324999998797
                },
                {
                    "name": "G#1",
                    "midi": 32,
                    "time": 373.52809800000176,
                    "velocity": 0.4251968503937008,
                    "duration": 0.14021324999998797
                },
                {
                    "name": "F2",
                    "midi": 41,
                    "time": 373.52809800000176,
                    "velocity": 0.5039370078740157,
                    "duration": 0.14021324999998797
                },
                {
                    "name": "G#1",
                    "midi": 32,
                    "time": 373.7150490000017,
                    "velocity": 0.4409448818897638,
                    "duration": 0.14021324999998797
                },
                {
                    "name": "F2",
                    "midi": 41,
                    "time": 373.7150490000017,
                    "velocity": 0.5196850393700787,
                    "duration": 0.14021324999998797
                },
                {
                    "name": "F2",
                    "midi": 41,
                    "time": 373.9020000000017,
                    "velocity": 0.6692913385826772,
                    "duration": 0.37390199999998686
                },
                {
                    "name": "G1",
                    "midi": 31,
                    "time": 373.9066737750017,
                    "velocity": 0.5511811023622047,
                    "duration": 0.37390199999998686
                },
                {
                    "name": "G2",
                    "midi": 43,
                    "time": 374.2759020000017,
                    "velocity": 0.6377952755905512,
                    "duration": 0.9347549999999956
                },
                {
                    "name": "G3",
                    "midi": 55,
                    "time": 374.2759020000017,
                    "velocity": 0.7559055118110236,
                    "duration": 0.9347549999999956
                },
                {
                    "name": "A3",
                    "midi": 57,
                    "time": 375.2106570000017,
                    "velocity": 0.5275590551181102,
                    "duration": 0.09347550000001092
                },
                {
                    "name": "B3",
                    "midi": 59,
                    "time": 375.3041325000017,
                    "velocity": 0.5511811023622047,
                    "duration": 0.09347550000001092
                },
                {
                    "name": "C4",
                    "midi": 60,
                    "time": 375.3976080000017,
                    "velocity": 0.5669291338582677,
                    "duration": 0.14021324999998797
                },
                {
                    "name": "G2",
                    "midi": 43,
                    "time": 375.7715100000017,
                    "velocity": 0.4409448818897638,
                    "duration": 0.14021324999998797
                },
                {
                    "name": "G3",
                    "midi": 55,
                    "time": 375.7715100000017,
                    "velocity": 0.5196850393700787,
                    "duration": 0.14021324999998797
                },
                {
                    "name": "D#2",
                    "midi": 39,
                    "time": 376.14541200000167,
                    "velocity": 0.4094488188976378,
                    "duration": 0.14021324999998797
                },
                {
                    "name": "D#3",
                    "midi": 51,
                    "time": 376.14541200000167,
                    "velocity": 0.4881889763779528,
                    "duration": 0.14021324999998797
                },
                {
                    "name": "C2",
                    "midi": 36,
                    "time": 376.51931400000166,
                    "velocity": 0.3779527559055118,
                    "duration": 0.14021324999998797
                },
                {
                    "name": "C3",
                    "midi": 48,
                    "time": 376.51931400000166,
                    "velocity": 0.44881889763779526,
                    "duration": 0.14021324999998797
                },
                {
                    "name": "G#1",
                    "midi": 32,
                    "time": 376.89321600000164,
                    "velocity": 0.36220472440944884,
                    "duration": 1.4956080000000043
                },
                {
                    "name": "G#2",
                    "midi": 44,
                    "time": 376.89321600000164,
                    "velocity": 0.4251968503937008,
                    "duration": 1.4956080000000043
                },
                {
                    "name": "C#4",
                    "midi": 61,
                    "time": 378.38882400000165,
                    "velocity": 0.29133858267716534,
                    "duration": 0.14021324999998797
                },
                {
                    "name": "G#3",
                    "midi": 56,
                    "time": 378.76272600000163,
                    "velocity": 0.25984251968503935,
                    "duration": 0.14021324999998797
                },
                {
                    "name": "F3",
                    "midi": 53,
                    "time": 379.1366280000016,
                    "velocity": 0.25196850393700787,
                    "duration": 0.14021324999998797
                },
                {
                    "name": "C#3",
                    "midi": 49,
                    "time": 379.5105300000016,
                    "velocity": 0.2283464566929134,
                    "duration": 0.14021324999998797
                },
                {
                    "name": "A#1",
                    "midi": 34,
                    "time": 379.8844320000016,
                    "velocity": 0.1889763779527559,
                    "duration": 1.4956080000000043
                },
                {
                    "name": "A#2",
                    "midi": 46,
                    "time": 379.8844320000016,
                    "velocity": 0.2283464566929134,
                    "duration": 1.4956080000000043
                },
                {
                    "name": "D#4",
                    "midi": 63,
                    "time": 381.3800400000016,
                    "velocity": 0.3228346456692913,
                    "duration": 0.14021324999998797
                },
                {
                    "name": "A#3",
                    "midi": 58,
                    "time": 381.7539420000016,
                    "velocity": 0.29133858267716534,
                    "duration": 0.14021324999998797
                },
                {
                    "name": "G3",
                    "midi": 55,
                    "time": 382.1278440000016,
                    "velocity": 0.29133858267716534,
                    "duration": 0.14021324999998797
                },
                {
                    "name": "D#3",
                    "midi": 51,
                    "time": 382.50174600000156,
                    "velocity": 0.29133858267716534,
                    "duration": 0.14021324999998797
                },
                {
                    "name": "F3",
                    "midi": 53,
                    "time": 382.87564800000155,
                    "velocity": 0.2755905511811024,
                    "duration": 0.14021324999998797
                },
                {
                    "name": "G#3",
                    "midi": 56,
                    "time": 383.24955000000153,
                    "velocity": 0.2992125984251969,
                    "duration": 0.14021324999998797
                },
                {
                    "name": "A3",
                    "midi": 57,
                    "time": 383.6234520000015,
                    "velocity": 0.30708661417322836,
                    "duration": 0.14021324999998797
                },
                {
                    "name": "F#3",
                    "midi": 54,
                    "time": 383.9973540000015,
                    "velocity": 0.29133858267716534,
                    "duration": 0.14021324999998797
                },
                {
                    "name": "G3",
                    "midi": 55,
                    "time": 384.3712560000015,
                    "velocity": 0.36220472440944884,
                    "duration": 0.14021324999998797
                },
                {
                    "name": "F#3",
                    "midi": 54,
                    "time": 384.7451580000015,
                    "velocity": 0.3464566929133858,
                    "duration": 0.14021324999998797
                },
                {
                    "name": "G3",
                    "midi": 55,
                    "time": 385.11906000000147,
                    "velocity": 0.47244094488188976,
                    "duration": 0.14021324999998797
                },
                {
                    "name": "G2",
                    "midi": 43,
                    "time": 385.49296200000146,
                    "velocity": 0.4409448818897638,
                    "duration": 0.14021324999998797
                },
                {
                    "name": "C2",
                    "midi": 36,
                    "time": 385.86686400000144,
                    "velocity": 0.5511811023622047,
                    "duration": 1.4956080000001748
                },
                {
                    "name": "C3",
                    "midi": 48,
                    "time": 385.86686400000144,
                    "velocity": 0.5511811023622047,
                    "duration": 0.18695100000002185
                },
                {
                    "name": "C3",
                    "midi": 48,
                    "time": 386.05381500000146,
                    "velocity": 0.2440944881889764,
                    "duration": 0.09269653749998952
                },
                {
                    "name": "G3",
                    "midi": 55,
                    "time": 386.1472905000015,
                    "velocity": 0.2047244094488189,
                    "duration": 0.09347550000001092
                },
                {
                    "name": "C3",
                    "midi": 48,
                    "time": 386.2407660000015,
                    "velocity": 0.2440944881889764,
                    "duration": 0.09269653749998952
                },
                {
                    "name": "G3",
                    "midi": 55,
                    "time": 386.3342415000015,
                    "velocity": 0.2125984251968504,
                    "duration": 0.09347550000001092
                },
                {
                    "name": "C3",
                    "midi": 48,
                    "time": 386.4277170000015,
                    "velocity": 0.2440944881889764,
                    "duration": 0.09269653749998952
                },
                {
                    "name": "G3",
                    "midi": 55,
                    "time": 386.5211925000015,
                    "velocity": 0.2125984251968504,
                    "duration": 0.09347550000001092
                },
                {
                    "name": "C3",
                    "midi": 48,
                    "time": 386.61466800000153,
                    "velocity": 0.2440944881889764,
                    "duration": 0.09269653749998952
                },
                {
                    "name": "G3",
                    "midi": 55,
                    "time": 386.70814350000154,
                    "velocity": 0.2047244094488189,
                    "duration": 0.09347550000001092
                },
                {
                    "name": "C3",
                    "midi": 48,
                    "time": 386.80161900000155,
                    "velocity": 0.2440944881889764,
                    "duration": 0.09269653749998952
                },
                {
                    "name": "G3",
                    "midi": 55,
                    "time": 386.89509450000156,
                    "velocity": 0.2125984251968504,
                    "duration": 0.09347550000001092
                },
                {
                    "name": "C3",
                    "midi": 48,
                    "time": 386.9885700000016,
                    "velocity": 0.2440944881889764,
                    "duration": 0.09269653749998952
                },
                {
                    "name": "G3",
                    "midi": 55,
                    "time": 387.0820455000016,
                    "velocity": 0.2125984251968504,
                    "duration": 0.09347550000001092
                },
                {
                    "name": "C3",
                    "midi": 48,
                    "time": 387.1755210000016,
                    "velocity": 0.2440944881889764,
                    "duration": 0.09269653749998952
                },
                {
                    "name": "G3",
                    "midi": 55,
                    "time": 387.2689965000016,
                    "velocity": 0.1968503937007874,
                    "duration": 0.09347550000001092
                },
                {
                    "name": "C3",
                    "midi": 48,
                    "time": 387.3624720000016,
                    "velocity": 0.2440944881889764,
                    "duration": 0.09269653749998952
                },
                {
                    "name": "G3",
                    "midi": 55,
                    "time": 387.4559475000016,
                    "velocity": 0.2047244094488189,
                    "duration": 0.09347550000001092
                },
                {
                    "name": "C3",
                    "midi": 48,
                    "time": 387.54942300000164,
                    "velocity": 0.2440944881889764,
                    "duration": 0.09269653749998952
                },
                {
                    "name": "G3",
                    "midi": 55,
                    "time": 387.64289850000165,
                    "velocity": 0.2047244094488189,
                    "duration": 0.09347550000001092
                },
                {
                    "name": "C3",
                    "midi": 48,
                    "time": 387.73637400000166,
                    "velocity": 0.2440944881889764,
                    "duration": 0.09269653749998952
                },
                {
                    "name": "G3",
                    "midi": 55,
                    "time": 387.82984950000167,
                    "velocity": 0.2125984251968504,
                    "duration": 0.09347550000001092
                },
                {
                    "name": "C3",
                    "midi": 48,
                    "time": 387.9233250000017,
                    "velocity": 0.2440944881889764,
                    "duration": 0.09269653749998952
                },
                {
                    "name": "G3",
                    "midi": 55,
                    "time": 388.0168005000017,
                    "velocity": 0.2125984251968504,
                    "duration": 0.09347550000001092
                },
                {
                    "name": "C3",
                    "midi": 48,
                    "time": 388.1102760000017,
                    "velocity": 0.2440944881889764,
                    "duration": 0.09269653749998952
                },
                {
                    "name": "G3",
                    "midi": 55,
                    "time": 388.2037515000017,
                    "velocity": 0.2047244094488189,
                    "duration": 0.09347550000001092
                },
                {
                    "name": "C3",
                    "midi": 48,
                    "time": 388.2972270000017,
                    "velocity": 0.2440944881889764,
                    "duration": 0.09269653749998952
                },
                {
                    "name": "G3",
                    "midi": 55,
                    "time": 388.39070250000174,
                    "velocity": 0.2125984251968504,
                    "duration": 0.09347550000001092
                },
                {
                    "name": "C3",
                    "midi": 48,
                    "time": 388.48417800000175,
                    "velocity": 0.2440944881889764,
                    "duration": 0.09269653749998952
                },
                {
                    "name": "A3",
                    "midi": 57,
                    "time": 388.57765350000176,
                    "velocity": 0.2125984251968504,
                    "duration": 0.09347550000001092
                },
                {
                    "name": "C3",
                    "midi": 48,
                    "time": 388.67112900000177,
                    "velocity": 0.2440944881889764,
                    "duration": 0.09269653749998952
                },
                {
                    "name": "A3",
                    "midi": 57,
                    "time": 388.7646045000018,
                    "velocity": 0.1968503937007874,
                    "duration": 0.09347550000001092
                },
                {
                    "name": "B2",
                    "midi": 47,
                    "time": 388.8580800000018,
                    "velocity": 0.2047244094488189,
                    "duration": 0.14021324999998797
                },
                {
                    "name": "D3",
                    "midi": 50,
                    "time": 388.8580800000018,
                    "velocity": 0.2440944881889764,
                    "duration": 0.14021324999998797
                },
                {
                    "name": "G3",
                    "midi": 55,
                    "time": 388.9515555000018,
                    "velocity": 0.1968503937007874,
                    "duration": 0.09347549999995408
                },
                {
                    "name": "B2",
                    "midi": 47,
                    "time": 389.04503100000176,
                    "velocity": 0.2047244094488189,
                    "duration": 0.14021324999998797
                },
                {
                    "name": "D3",
                    "midi": 50,
                    "time": 389.04503100000176,
                    "velocity": 0.2440944881889764,
                    "duration": 0.14021324999998797
                },
                {
                    "name": "G3",
                    "midi": 55,
                    "time": 389.13850650000177,
                    "velocity": 0.1968503937007874,
                    "duration": 0.09347549999995408
                },
                {
                    "name": "B2",
                    "midi": 47,
                    "time": 389.2319820000017,
                    "velocity": 0.2047244094488189,
                    "duration": 0.14021324999998797
                },
                {
                    "name": "D3",
                    "midi": 50,
                    "time": 389.2319820000017,
                    "velocity": 0.2440944881889764,
                    "duration": 0.14021324999998797
                },
                {
                    "name": "G3",
                    "midi": 55,
                    "time": 389.32545750000173,
                    "velocity": 0.1968503937007874,
                    "duration": 0.09347549999995408
                },
                {
                    "name": "B2",
                    "midi": 47,
                    "time": 389.4189330000017,
                    "velocity": 0.2047244094488189,
                    "duration": 0.14021324999998797
                },
                {
                    "name": "D3",
                    "midi": 50,
                    "time": 389.4189330000017,
                    "velocity": 0.2440944881889764,
                    "duration": 0.14021324999998797
                },
                {
                    "name": "G3",
                    "midi": 55,
                    "time": 389.5124085000017,
                    "velocity": 0.1968503937007874,
                    "duration": 0.09347549999995408
                },
                {
                    "name": "B2",
                    "midi": 47,
                    "time": 389.60588400000165,
                    "velocity": 0.2047244094488189,
                    "duration": 0.14021324999998797
                },
                {
                    "name": "D3",
                    "midi": 50,
                    "time": 389.60588400000165,
                    "velocity": 0.2440944881889764,
                    "duration": 0.14021324999998797
                },
                {
                    "name": "G3",
                    "midi": 55,
                    "time": 389.69935950000166,
                    "velocity": 0.1968503937007874,
                    "duration": 0.09347549999995408
                },
                {
                    "name": "B2",
                    "midi": 47,
                    "time": 389.7928350000016,
                    "velocity": 0.2047244094488189,
                    "duration": 0.14021324999998797
                },
                {
                    "name": "D3",
                    "midi": 50,
                    "time": 389.7928350000016,
                    "velocity": 0.2440944881889764,
                    "duration": 0.14021324999998797
                },
                {
                    "name": "G3",
                    "midi": 55,
                    "time": 389.8863105000016,
                    "velocity": 0.1968503937007874,
                    "duration": 0.09347549999995408
                },
                {
                    "name": "B2",
                    "midi": 47,
                    "time": 389.9797860000016,
                    "velocity": 0.2047244094488189,
                    "duration": 0.14021324999998797
                },
                {
                    "name": "D3",
                    "midi": 50,
                    "time": 389.9797860000016,
                    "velocity": 0.2440944881889764,
                    "duration": 0.14021324999998797
                },
                {
                    "name": "G3",
                    "midi": 55,
                    "time": 390.0732615000016,
                    "velocity": 0.1968503937007874,
                    "duration": 0.09347549999995408
                },
                {
                    "name": "B2",
                    "midi": 47,
                    "time": 390.16673700000155,
                    "velocity": 0.2047244094488189,
                    "duration": 0.14021324999998797
                },
                {
                    "name": "D3",
                    "midi": 50,
                    "time": 390.16673700000155,
                    "velocity": 0.2440944881889764,
                    "duration": 0.14021324999998797
                },
                {
                    "name": "G3",
                    "midi": 55,
                    "time": 390.26021250000156,
                    "velocity": 0.1968503937007874,
                    "duration": 0.09347549999995408
                },
                {
                    "name": "B2",
                    "midi": 47,
                    "time": 390.3536880000015,
                    "velocity": 0.2047244094488189,
                    "duration": 0.14021324999998797
                },
                {
                    "name": "D3",
                    "midi": 50,
                    "time": 390.3536880000015,
                    "velocity": 0.2440944881889764,
                    "duration": 0.14021324999998797
                },
                {
                    "name": "G3",
                    "midi": 55,
                    "time": 390.4471635000015,
                    "velocity": 0.1968503937007874,
                    "duration": 0.09347549999995408
                },
                {
                    "name": "B2",
                    "midi": 47,
                    "time": 390.5406390000015,
                    "velocity": 0.2047244094488189,
                    "duration": 0.14021324999998797
                },
                {
                    "name": "D3",
                    "midi": 50,
                    "time": 390.5406390000015,
                    "velocity": 0.2440944881889764,
                    "duration": 0.14021324999998797
                },
                {
                    "name": "G3",
                    "midi": 55,
                    "time": 390.6341145000015,
                    "velocity": 0.1968503937007874,
                    "duration": 0.09347549999995408
                },
                {
                    "name": "B2",
                    "midi": 47,
                    "time": 390.72759000000144,
                    "velocity": 0.2047244094488189,
                    "duration": 0.14021324999998797
                },
                {
                    "name": "D3",
                    "midi": 50,
                    "time": 390.72759000000144,
                    "velocity": 0.2440944881889764,
                    "duration": 0.14021324999998797
                },
                {
                    "name": "G3",
                    "midi": 55,
                    "time": 390.82106550000145,
                    "velocity": 0.1968503937007874,
                    "duration": 0.09347549999995408
                },
                {
                    "name": "B2",
                    "midi": 47,
                    "time": 390.9145410000014,
                    "velocity": 0.2047244094488189,
                    "duration": 0.14021324999998797
                },
                {
                    "name": "D3",
                    "midi": 50,
                    "time": 390.9145410000014,
                    "velocity": 0.2440944881889764,
                    "duration": 0.14021324999998797
                },
                {
                    "name": "G3",
                    "midi": 55,
                    "time": 391.0080165000014,
                    "velocity": 0.1968503937007874,
                    "duration": 0.09347549999995408
                },
                {
                    "name": "B2",
                    "midi": 47,
                    "time": 391.1014920000014,
                    "velocity": 0.2047244094488189,
                    "duration": 0.14021324999998797
                },
                {
                    "name": "D3",
                    "midi": 50,
                    "time": 391.1014920000014,
                    "velocity": 0.2440944881889764,
                    "duration": 0.14021324999998797
                },
                {
                    "name": "G3",
                    "midi": 55,
                    "time": 391.1949675000014,
                    "velocity": 0.1968503937007874,
                    "duration": 0.09347549999995408
                },
                {
                    "name": "B2",
                    "midi": 47,
                    "time": 391.28844300000134,
                    "velocity": 0.2047244094488189,
                    "duration": 0.14021324999998797
                },
                {
                    "name": "D3",
                    "midi": 50,
                    "time": 391.28844300000134,
                    "velocity": 0.2440944881889764,
                    "duration": 0.14021324999998797
                },
                {
                    "name": "G3",
                    "midi": 55,
                    "time": 391.38191850000135,
                    "velocity": 0.1968503937007874,
                    "duration": 0.09347549999995408
                },
                {
                    "name": "B2",
                    "midi": 47,
                    "time": 391.4753940000013,
                    "velocity": 0.2047244094488189,
                    "duration": 0.14021324999998797
                },
                {
                    "name": "D3",
                    "midi": 50,
                    "time": 391.4753940000013,
                    "velocity": 0.2440944881889764,
                    "duration": 0.14021324999998797
                },
                {
                    "name": "G3",
                    "midi": 55,
                    "time": 391.5688695000013,
                    "velocity": 0.1968503937007874,
                    "duration": 0.09347549999995408
                },
                {
                    "name": "B2",
                    "midi": 47,
                    "time": 391.66234500000127,
                    "velocity": 0.2047244094488189,
                    "duration": 0.14021324999998797
                },
                {
                    "name": "D3",
                    "midi": 50,
                    "time": 391.66234500000127,
                    "velocity": 0.2440944881889764,
                    "duration": 0.14021324999998797
                },
                {
                    "name": "G3",
                    "midi": 55,
                    "time": 391.7558205000013,
                    "velocity": 0.1968503937007874,
                    "duration": 0.09347549999995408
                },
                {
                    "name": "D2",
                    "midi": 38,
                    "time": 391.84929600000123,
                    "velocity": 0.25984251968503935,
                    "duration": 1.4956080000001748
                },
                {
                    "name": "D3",
                    "midi": 50,
                    "time": 391.84929600000123,
                    "velocity": 0.25984251968503935,
                    "duration": 0.18695100000002185
                },
                {
                    "name": "D3",
                    "midi": 50,
                    "time": 392.03624700000125,
                    "velocity": 0.2677165354330709,
                    "duration": 0.09269653749998952
                },
                {
                    "name": "A3",
                    "midi": 57,
                    "time": 392.12972250000126,
                    "velocity": 0.2204724409448819,
                    "duration": 0.09347550000001092
                },
                {
                    "name": "D3",
                    "midi": 50,
                    "time": 392.2231980000013,
                    "velocity": 0.2677165354330709,
                    "duration": 0.09269653749998952
                },
                {
                    "name": "A3",
                    "midi": 57,
                    "time": 392.3166735000013,
                    "velocity": 0.2283464566929134,
                    "duration": 0.09347550000001092
                },
                {
                    "name": "D3",
                    "midi": 50,
                    "time": 392.4101490000013,
                    "velocity": 0.2677165354330709,
                    "duration": 0.09269653749998952
                },
                {
                    "name": "A3",
                    "midi": 57,
                    "time": 392.5036245000013,
                    "velocity": 0.2283464566929134,
                    "duration": 0.09347550000001092
                },
                {
                    "name": "D3",
                    "midi": 50,
                    "time": 392.5971000000013,
                    "velocity": 0.2677165354330709,
                    "duration": 0.09269653749998952
                },
                {
                    "name": "A3",
                    "midi": 57,
                    "time": 392.69057550000133,
                    "velocity": 0.2204724409448819,
                    "duration": 0.09347550000001092
                },
                {
                    "name": "D3",
                    "midi": 50,
                    "time": 392.78405100000134,
                    "velocity": 0.2677165354330709,
                    "duration": 0.09269653749998952
                },
                {
                    "name": "A3",
                    "midi": 57,
                    "time": 392.87752650000135,
                    "velocity": 0.2283464566929134,
                    "duration": 0.09347550000001092
                },
                {
                    "name": "D3",
                    "midi": 50,
                    "time": 392.97100200000136,
                    "velocity": 0.2677165354330709,
                    "duration": 0.09269653749998952
                },
                {
                    "name": "A3",
                    "midi": 57,
                    "time": 393.0644775000014,
                    "velocity": 0.23622047244094488,
                    "duration": 0.09347550000001092
                },
                {
                    "name": "D3",
                    "midi": 50,
                    "time": 393.1579530000014,
                    "velocity": 0.2755905511811024,
                    "duration": 0.09269653749998952
                },
                {
                    "name": "A3",
                    "midi": 57,
                    "time": 393.2514285000014,
                    "velocity": 0.2204724409448819,
                    "duration": 0.09347550000001092
                },
                {
                    "name": "D3",
                    "midi": 50,
                    "time": 393.3449040000014,
                    "velocity": 0.2755905511811024,
                    "duration": 0.09269653749998952
                },
                {
                    "name": "A3",
                    "midi": 57,
                    "time": 393.4383795000014,
                    "velocity": 0.2283464566929134,
                    "duration": 0.09347550000001092
                },
                {
                    "name": "D3",
                    "midi": 50,
                    "time": 393.5318550000014,
                    "velocity": 0.2755905511811024,
                    "duration": 0.09269653749998952
                },
                {
                    "name": "A3",
                    "midi": 57,
                    "time": 393.62533050000144,
                    "velocity": 0.2283464566929134,
                    "duration": 0.09347550000001092
                },
                {
                    "name": "D3",
                    "midi": 50,
                    "time": 393.71880600000145,
                    "velocity": 0.2755905511811024,
                    "duration": 0.09269653749998952
                },
                {
                    "name": "A3",
                    "midi": 57,
                    "time": 393.81228150000146,
                    "velocity": 0.23622047244094488,
                    "duration": 0.09347550000001092
                },
                {
                    "name": "D3",
                    "midi": 50,
                    "time": 393.9057570000015,
                    "velocity": 0.2755905511811024,
                    "duration": 0.09269653749998952
                },
                {
                    "name": "A3",
                    "midi": 57,
                    "time": 393.9992325000015,
                    "velocity": 0.23622047244094488,
                    "duration": 0.09347550000001092
                },
                {
                    "name": "D3",
                    "midi": 50,
                    "time": 394.0927080000015,
                    "velocity": 0.28346456692913385,
                    "duration": 0.09269653749998952
                },
                {
                    "name": "A3",
                    "midi": 57,
                    "time": 394.1861835000015,
                    "velocity": 0.2283464566929134,
                    "duration": 0.09347550000001092
                },
                {
                    "name": "D3",
                    "midi": 50,
                    "time": 394.2796590000015,
                    "velocity": 0.28346456692913385,
                    "duration": 0.09269653749998952
                },
                {
                    "name": "A3",
                    "midi": 57,
                    "time": 394.3731345000015,
                    "velocity": 0.2440944881889764,
                    "duration": 0.09347550000001092
                },
                {
                    "name": "D3",
                    "midi": 50,
                    "time": 394.46661000000154,
                    "velocity": 0.28346456692913385,
                    "duration": 0.09269653749998952
                },
                {
                    "name": "B3",
                    "midi": 59,
                    "time": 394.56008550000155,
                    "velocity": 0.2440944881889764,
                    "duration": 0.09347550000001092
                },
                {
                    "name": "D3",
                    "midi": 50,
                    "time": 394.65356100000156,
                    "velocity": 0.28346456692913385,
                    "duration": 0.09269653749998952
                },
                {
                    "name": "B3",
                    "midi": 59,
                    "time": 394.74703650000157,
                    "velocity": 0.2283464566929134,
                    "duration": 0.09347550000001092
                },
                {
                    "name": "C3",
                    "midi": 48,
                    "time": 394.8405120000016,
                    "velocity": 0.23622047244094488,
                    "duration": 0.14021324999998797
                },
                {
                    "name": "E3",
                    "midi": 52,
                    "time": 394.8405120000016,
                    "velocity": 0.29133858267716534,
                    "duration": 0.14021324999998797
                },
                {
                    "name": "A3",
                    "midi": 57,
                    "time": 394.9339875000016,
                    "velocity": 0.2283464566929134,
                    "duration": 0.09347549999995408
                },
                {
                    "name": "C3",
                    "midi": 48,
                    "time": 395.02746300000155,
                    "velocity": 0.23622047244094488,
                    "duration": 0.14021324999998797
                },
                {
                    "name": "E3",
                    "midi": 52,
                    "time": 395.02746300000155,
                    "velocity": 0.29133858267716534,
                    "duration": 0.14021324999998797
                },
                {
                    "name": "A3",
                    "midi": 57,
                    "time": 395.12093850000156,
                    "velocity": 0.2283464566929134,
                    "duration": 0.09347549999995408
                },
                {
                    "name": "C3",
                    "midi": 48,
                    "time": 395.2144140000015,
                    "velocity": 0.23622047244094488,
                    "duration": 0.14021324999998797
                },
                {
                    "name": "E3",
                    "midi": 52,
                    "time": 395.2144140000015,
                    "velocity": 0.29133858267716534,
                    "duration": 0.14021324999998797
                },
                {
                    "name": "A3",
                    "midi": 57,
                    "time": 395.3078895000015,
                    "velocity": 0.2283464566929134,
                    "duration": 0.09347549999995408
                },
                {
                    "name": "C3",
                    "midi": 48,
                    "time": 395.4013650000015,
                    "velocity": 0.23622047244094488,
                    "duration": 0.14021324999998797
                },
                {
                    "name": "E3",
                    "midi": 52,
                    "time": 395.4013650000015,
                    "velocity": 0.29133858267716534,
                    "duration": 0.14021324999998797
                },
                {
                    "name": "A3",
                    "midi": 57,
                    "time": 395.4948405000015,
                    "velocity": 0.2283464566929134,
                    "duration": 0.09347549999995408
                },
                {
                    "name": "C3",
                    "midi": 48,
                    "time": 395.58831600000144,
                    "velocity": 0.23622047244094488,
                    "duration": 0.14021324999998797
                },
                {
                    "name": "E3",
                    "midi": 52,
                    "time": 395.58831600000144,
                    "velocity": 0.29133858267716534,
                    "duration": 0.14021324999998797
                },
                {
                    "name": "A3",
                    "midi": 57,
                    "time": 395.68179150000145,
                    "velocity": 0.2283464566929134,
                    "duration": 0.09347549999995408
                },
                {
                    "name": "C3",
                    "midi": 48,
                    "time": 395.7752670000014,
                    "velocity": 0.23622047244094488,
                    "duration": 0.14021324999998797
                },
                {
                    "name": "E3",
                    "midi": 52,
                    "time": 395.7752670000014,
                    "velocity": 0.29133858267716534,
                    "duration": 0.14021324999998797
                },
                {
                    "name": "A3",
                    "midi": 57,
                    "time": 395.8687425000014,
                    "velocity": 0.2283464566929134,
                    "duration": 0.09347549999995408
                },
                {
                    "name": "C3",
                    "midi": 48,
                    "time": 395.96221800000137,
                    "velocity": 0.23622047244094488,
                    "duration": 0.14021324999998797
                },
                {
                    "name": "E3",
                    "midi": 52,
                    "time": 395.96221800000137,
                    "velocity": 0.29133858267716534,
                    "duration": 0.14021324999998797
                },
                {
                    "name": "A3",
                    "midi": 57,
                    "time": 396.0556935000014,
                    "velocity": 0.2283464566929134,
                    "duration": 0.09347549999995408
                },
                {
                    "name": "C3",
                    "midi": 48,
                    "time": 396.14916900000134,
                    "velocity": 0.23622047244094488,
                    "duration": 0.14021324999998797
                },
                {
                    "name": "E3",
                    "midi": 52,
                    "time": 396.14916900000134,
                    "velocity": 0.29133858267716534,
                    "duration": 0.14021324999998797
                },
                {
                    "name": "A3",
                    "midi": 57,
                    "time": 396.24264450000135,
                    "velocity": 0.2283464566929134,
                    "duration": 0.09347549999995408
                },
                {
                    "name": "C3",
                    "midi": 48,
                    "time": 396.3361200000013,
                    "velocity": 0.23622047244094488,
                    "duration": 0.14021324999998797
                },
                {
                    "name": "E3",
                    "midi": 52,
                    "time": 396.3361200000013,
                    "velocity": 0.29133858267716534,
                    "duration": 0.14021324999998797
                },
                {
                    "name": "A3",
                    "midi": 57,
                    "time": 396.4295955000013,
                    "velocity": 0.2283464566929134,
                    "duration": 0.09347549999995408
                },
                {
                    "name": "C3",
                    "midi": 48,
                    "time": 396.52307100000127,
                    "velocity": 0.23622047244094488,
                    "duration": 0.14021324999998797
                },
                {
                    "name": "E3",
                    "midi": 52,
                    "time": 396.52307100000127,
                    "velocity": 0.29133858267716534,
                    "duration": 0.14021324999998797
                },
                {
                    "name": "A3",
                    "midi": 57,
                    "time": 396.6165465000013,
                    "velocity": 0.2283464566929134,
                    "duration": 0.09347549999995408
                },
                {
                    "name": "C3",
                    "midi": 48,
                    "time": 396.71002200000123,
                    "velocity": 0.23622047244094488,
                    "duration": 0.14021324999998797
                },
                {
                    "name": "E3",
                    "midi": 52,
                    "time": 396.71002200000123,
                    "velocity": 0.29133858267716534,
                    "duration": 0.14021324999998797
                },
                {
                    "name": "A3",
                    "midi": 57,
                    "time": 396.80349750000124,
                    "velocity": 0.2283464566929134,
                    "duration": 0.09347549999995408
                },
                {
                    "name": "C3",
                    "midi": 48,
                    "time": 396.8969730000012,
                    "velocity": 0.23622047244094488,
                    "duration": 0.14021324999998797
                },
                {
                    "name": "E3",
                    "midi": 52,
                    "time": 396.8969730000012,
                    "velocity": 0.2992125984251969,
                    "duration": 0.14021324999998797
                },
                {
                    "name": "A3",
                    "midi": 57,
                    "time": 396.9904485000012,
                    "velocity": 0.23622047244094488,
                    "duration": 0.09347549999995408
                },
                {
                    "name": "C3",
                    "midi": 48,
                    "time": 397.08392400000116,
                    "velocity": 0.2440944881889764,
                    "duration": 0.14021324999998797
                },
                {
                    "name": "E3",
                    "midi": 52,
                    "time": 397.08392400000116,
                    "velocity": 0.2992125984251969,
                    "duration": 0.14021324999998797
                },
                {
                    "name": "A3",
                    "midi": 57,
                    "time": 397.1773995000012,
                    "velocity": 0.23622047244094488,
                    "duration": 0.09347549999995408
                },
                {
                    "name": "C3",
                    "midi": 48,
                    "time": 397.2708750000011,
                    "velocity": 0.2440944881889764,
                    "duration": 0.14021324999998797
                },
                {
                    "name": "E3",
                    "midi": 52,
                    "time": 397.2708750000011,
                    "velocity": 0.30708661417322836,
                    "duration": 0.14021324999998797
                },
                {
                    "name": "A3",
                    "midi": 57,
                    "time": 397.36435050000114,
                    "velocity": 0.23622047244094488,
                    "duration": 0.09347549999995408
                },
                {
                    "name": "C3",
                    "midi": 48,
                    "time": 397.4578260000011,
                    "velocity": 0.2440944881889764,
                    "duration": 0.14021324999998797
                },
                {
                    "name": "E3",
                    "midi": 52,
                    "time": 397.4578260000011,
                    "velocity": 0.30708661417322836,
                    "duration": 0.14021324999998797
                },
                {
                    "name": "A3",
                    "midi": 57,
                    "time": 397.5513015000011,
                    "velocity": 0.2440944881889764,
                    "duration": 0.09347549999995408
                },
                {
                    "name": "C3",
                    "midi": 48,
                    "time": 397.64477700000106,
                    "velocity": 0.25984251968503935,
                    "duration": 0.14021324999998797
                },
                {
                    "name": "E3",
                    "midi": 52,
                    "time": 397.64477700000106,
                    "velocity": 0.30708661417322836,
                    "duration": 0.14021324999998797
                },
                {
                    "name": "A3",
                    "midi": 57,
                    "time": 397.73825250000107,
                    "velocity": 0.2440944881889764,
                    "duration": 0.09347549999995408
                },
                {
                    "name": "F3",
                    "midi": 53,
                    "time": 397.831728000001,
                    "velocity": 0.2677165354330709,
                    "duration": 0.14021324999998797
                },
                {
                    "name": "A3",
                    "midi": 57,
                    "time": 397.831728000001,
                    "velocity": 0.3228346456692913,
                    "duration": 0.14021324999998797
                },
                {
                    "name": "C4",
                    "midi": 60,
                    "time": 397.92520350000103,
                    "velocity": 0.25984251968503935,
                    "duration": 0.09347549999995408
                },
                {
                    "name": "F3",
                    "midi": 53,
                    "time": 398.018679000001,
                    "velocity": 0.2755905511811024,
                    "duration": 0.14021324999998797
                },
                {
                    "name": "A3",
                    "midi": 57,
                    "time": 398.018679000001,
                    "velocity": 0.3228346456692913,
                    "duration": 0.14021324999998797
                },
                {
                    "name": "C4",
                    "midi": 60,
                    "time": 398.112154500001,
                    "velocity": 0.2677165354330709,
                    "duration": 0.09347549999995408
                },
                {
                    "name": "F3",
                    "midi": 53,
                    "time": 398.20563000000095,
                    "velocity": 0.2755905511811024,
                    "duration": 0.14021324999998797
                },
                {
                    "name": "A3",
                    "midi": 57,
                    "time": 398.20563000000095,
                    "velocity": 0.33070866141732286,
                    "duration": 0.14021324999998797
                },
                {
                    "name": "C4",
                    "midi": 60,
                    "time": 398.29910550000096,
                    "velocity": 0.2677165354330709,
                    "duration": 0.09347549999995408
                },
                {
                    "name": "F3",
                    "midi": 53,
                    "time": 398.3925810000009,
                    "velocity": 0.2755905511811024,
                    "duration": 0.14021324999998797
                },
                {
                    "name": "A3",
                    "midi": 57,
                    "time": 398.3925810000009,
                    "velocity": 0.33070866141732286,
                    "duration": 0.14021324999998797
                },
                {
                    "name": "C4",
                    "midi": 60,
                    "time": 398.4860565000009,
                    "velocity": 0.2677165354330709,
                    "duration": 0.09347549999995408
                },
                {
                    "name": "F3",
                    "midi": 53,
                    "time": 398.5795320000009,
                    "velocity": 0.28346456692913385,
                    "duration": 0.14021324999998797
                },
                {
                    "name": "A3",
                    "midi": 57,
                    "time": 398.5795320000009,
                    "velocity": 0.3464566929133858,
                    "duration": 0.14021324999998797
                },
                {
                    "name": "D4",
                    "midi": 62,
                    "time": 398.6730075000009,
                    "velocity": 0.2755905511811024,
                    "duration": 0.09347549999995408
                },
                {
                    "name": "F3",
                    "midi": 53,
                    "time": 398.76648300000085,
                    "velocity": 0.29133858267716534,
                    "duration": 0.14021324999998797
                },
                {
                    "name": "A3",
                    "midi": 57,
                    "time": 398.76648300000085,
                    "velocity": 0.3543307086614173,
                    "duration": 0.14021324999998797
                },
                {
                    "name": "D4",
                    "midi": 62,
                    "time": 398.85995850000086,
                    "velocity": 0.28346456692913385,
                    "duration": 0.09347549999995408
                },
                {
                    "name": "F3",
                    "midi": 53,
                    "time": 398.9534340000008,
                    "velocity": 0.29133858267716534,
                    "duration": 0.14021324999998797
                },
                {
                    "name": "A3",
                    "midi": 57,
                    "time": 398.9534340000008,
                    "velocity": 0.3543307086614173,
                    "duration": 0.14021324999998797
                },
                {
                    "name": "D4",
                    "midi": 62,
                    "time": 399.0469095000008,
                    "velocity": 0.29133858267716534,
                    "duration": 0.09347549999995408
                },
                {
                    "name": "F3",
                    "midi": 53,
                    "time": 399.1403850000008,
                    "velocity": 0.2992125984251969,
                    "duration": 0.14021324999998797
                },
                {
                    "name": "A3",
                    "midi": 57,
                    "time": 399.1403850000008,
                    "velocity": 0.36220472440944884,
                    "duration": 0.14021324999998797
                },
                {
                    "name": "D4",
                    "midi": 62,
                    "time": 399.2338605000008,
                    "velocity": 0.29133858267716534,
                    "duration": 0.09347549999995408
                },
                {
                    "name": "F3",
                    "midi": 53,
                    "time": 399.32733600000074,
                    "velocity": 0.2755905511811024,
                    "duration": 0.14021324999998797
                },
                {
                    "name": "A3",
                    "midi": 57,
                    "time": 399.32733600000074,
                    "velocity": 0.33858267716535434,
                    "duration": 0.14021324999998797
                },
                {
                    "name": "D#4",
                    "midi": 63,
                    "time": 399.42081150000075,
                    "velocity": 0.2677165354330709,
                    "duration": 0.09347549999995408
                },
                {
                    "name": "F3",
                    "midi": 53,
                    "time": 399.5142870000007,
                    "velocity": 0.28346456692913385,
                    "duration": 0.14021324999998797
                },
                {
                    "name": "A3",
                    "midi": 57,
                    "time": 399.5142870000007,
                    "velocity": 0.33858267716535434,
                    "duration": 0.14021324999998797
                },
                {
                    "name": "D#4",
                    "midi": 63,
                    "time": 399.6077625000007,
                    "velocity": 0.2755905511811024,
                    "duration": 0.09347549999995408
                },
                {
                    "name": "F3",
                    "midi": 53,
                    "time": 399.70123800000067,
                    "velocity": 0.29133858267716534,
                    "duration": 0.14021324999998797
                },
                {
                    "name": "A3",
                    "midi": 57,
                    "time": 399.70123800000067,
                    "velocity": 0.3464566929133858,
                    "duration": 0.14021324999998797
                },
                {
                    "name": "D#4",
                    "midi": 63,
                    "time": 399.7947135000007,
                    "velocity": 0.28346456692913385,
                    "duration": 0.09347549999995408
                },
                {
                    "name": "F3",
                    "midi": 53,
                    "time": 399.88818900000064,
                    "velocity": 0.29133858267716534,
                    "duration": 0.14021324999998797
                },
                {
                    "name": "A3",
                    "midi": 57,
                    "time": 399.88818900000064,
                    "velocity": 0.3464566929133858,
                    "duration": 0.14021324999998797
                },
                {
                    "name": "D#4",
                    "midi": 63,
                    "time": 399.98166450000065,
                    "velocity": 0.28346456692913385,
                    "duration": 0.09347549999995408
                },
                {
                    "name": "F3",
                    "midi": 53,
                    "time": 400.0751400000006,
                    "velocity": 0.2992125984251969,
                    "duration": 0.14021324999998797
                },
                {
                    "name": "A3",
                    "midi": 57,
                    "time": 400.0751400000006,
                    "velocity": 0.3700787401574803,
                    "duration": 0.14021324999998797
                },
                {
                    "name": "C4",
                    "midi": 60,
                    "time": 400.1686155000006,
                    "velocity": 0.29133858267716534,
                    "duration": 0.09347549999995408
                },
                {
                    "name": "F3",
                    "midi": 53,
                    "time": 400.26209100000057,
                    "velocity": 0.2992125984251969,
                    "duration": 0.14021324999998797
                },
                {
                    "name": "A3",
                    "midi": 57,
                    "time": 400.26209100000057,
                    "velocity": 0.3700787401574803,
                    "duration": 0.14021324999998797
                },
                {
                    "name": "C4",
                    "midi": 60,
                    "time": 400.3555665000006,
                    "velocity": 0.29133858267716534,
                    "duration": 0.09347549999995408
                },
                {
                    "name": "F3",
                    "midi": 53,
                    "time": 400.44904200000053,
                    "velocity": 0.3700787401574803,
                    "duration": 0.14021324999998797
                },
                {
                    "name": "A3",
                    "midi": 57,
                    "time": 400.54251750000054,
                    "velocity": 0.30708661417322836,
                    "duration": 0.09347549999995408
                },
                {
                    "name": "F3",
                    "midi": 53,
                    "time": 400.6359930000005,
                    "velocity": 0.3858267716535433,
                    "duration": 0.14021324999998797
                },
                {
                    "name": "A3",
                    "midi": 57,
                    "time": 400.7294685000005,
                    "velocity": 0.30708661417322836,
                    "duration": 0.09347549999995408
                },
                {
                    "name": "E3",
                    "midi": 52,
                    "time": 400.82294400000046,
                    "velocity": 0.31496062992125984,
                    "duration": 0.10905474999998432
                },
                {
                    "name": "G#3",
                    "midi": 56,
                    "time": 400.9164195000005,
                    "velocity": 0.2755905511811024,
                    "duration": 0.10905474999992748
                },
                {
                    "name": "B3",
                    "midi": 59,
                    "time": 401.0098950000004,
                    "velocity": 0.2755905511811024,
                    "duration": 0.10905474999992748
                },
                {
                    "name": "E4",
                    "midi": 64,
                    "time": 401.1033705000004,
                    "velocity": 0.2755905511811024,
                    "duration": 0.09347549999995408
                },
                {
                    "name": "E3",
                    "midi": 52,
                    "time": 401.19684600000033,
                    "velocity": 0.3228346456692913,
                    "duration": 0.10905474999998432
                },
                {
                    "name": "G#3",
                    "midi": 56,
                    "time": 401.29032150000035,
                    "velocity": 0.2755905511811024,
                    "duration": 0.10905474999992748
                },
                {
                    "name": "B3",
                    "midi": 59,
                    "time": 401.3837970000003,
                    "velocity": 0.2755905511811024,
                    "duration": 0.10905474999992748
                },
                {
                    "name": "E4",
                    "midi": 64,
                    "time": 401.47727250000025,
                    "velocity": 0.2755905511811024,
                    "duration": 0.09347549999995408
                },
                {
                    "name": "E3",
                    "midi": 52,
                    "time": 401.5707480000002,
                    "velocity": 0.30708661417322836,
                    "duration": 0.10905474999998432
                },
                {
                    "name": "A3",
                    "midi": 57,
                    "time": 401.6642235000002,
                    "velocity": 0.2755905511811024,
                    "duration": 0.10905474999992748
                },
                {
                    "name": "C4",
                    "midi": 60,
                    "time": 401.7576990000002,
                    "velocity": 0.2755905511811024,
                    "duration": 0.10905474999992748
                },
                {
                    "name": "E4",
                    "midi": 64,
                    "time": 401.8511745000001,
                    "velocity": 0.2755905511811024,
                    "duration": 0.09347549999995408
                },
                {
                    "name": "E3",
                    "midi": 52,
                    "time": 401.9446500000001,
                    "velocity": 0.31496062992125984,
                    "duration": 0.10905474999998432
                },
                {
                    "name": "A3",
                    "midi": 57,
                    "time": 402.0381255000001,
                    "velocity": 0.2755905511811024,
                    "duration": 0.10905474999992748
                },
                {
                    "name": "C4",
                    "midi": 60,
                    "time": 402.13160100000005,
                    "velocity": 0.2755905511811024,
                    "duration": 0.10905474999992748
                },
                {
                    "name": "E4",
                    "midi": 64,
                    "time": 402.2250765,
                    "velocity": 0.2755905511811024,
                    "duration": 0.09347549999995408
                },
                {
                    "name": "E3",
                    "midi": 52,
                    "time": 402.31855199999995,
                    "velocity": 0.31496062992125984,
                    "duration": 0.10905474999998432
                },
                {
                    "name": "B3",
                    "midi": 59,
                    "time": 402.41202749999997,
                    "velocity": 0.2755905511811024,
                    "duration": 0.10905474999992748
                },
                {
                    "name": "D4",
                    "midi": 62,
                    "time": 402.5055029999999,
                    "velocity": 0.2755905511811024,
                    "duration": 0.10905474999992748
                },
                {
                    "name": "E4",
                    "midi": 64,
                    "time": 402.5989784999999,
                    "velocity": 0.2755905511811024,
                    "duration": 0.09347549999995408
                },
                {
                    "name": "E3",
                    "midi": 52,
                    "time": 402.6924539999998,
                    "velocity": 0.31496062992125984,
                    "duration": 0.10905474999998432
                },
                {
                    "name": "B3",
                    "midi": 59,
                    "time": 402.78592949999984,
                    "velocity": 0.2755905511811024,
                    "duration": 0.10905474999992748
                },
                {
                    "name": "D4",
                    "midi": 62,
                    "time": 402.8794049999998,
                    "velocity": 0.2755905511811024,
                    "duration": 0.10905474999992748
                },
                {
                    "name": "E4",
                    "midi": 64,
                    "time": 402.97288049999975,
                    "velocity": 0.2755905511811024,
                    "duration": 0.09347549999995408
                },
                {
                    "name": "E3",
                    "midi": 52,
                    "time": 403.0663559999997,
                    "velocity": 0.31496062992125984,
                    "duration": 0.10905474999998432
                },
                {
                    "name": "A3",
                    "midi": 57,
                    "time": 403.1598314999997,
                    "velocity": 0.2755905511811024,
                    "duration": 0.10905474999992748
                },
                {
                    "name": "C4",
                    "midi": 60,
                    "time": 403.25330699999967,
                    "velocity": 0.2755905511811024,
                    "duration": 0.10905474999992748
                },
                {
                    "name": "E4",
                    "midi": 64,
                    "time": 403.3467824999996,
                    "velocity": 0.2755905511811024,
                    "duration": 0.09347549999995408
                },
                {
                    "name": "E3",
                    "midi": 52,
                    "time": 403.4402579999996,
                    "velocity": 0.31496062992125984,
                    "duration": 0.10905474999998432
                },
                {
                    "name": "A3",
                    "midi": 57,
                    "time": 403.5337334999996,
                    "velocity": 0.2755905511811024,
                    "duration": 0.10905474999992748
                },
                {
                    "name": "C4",
                    "midi": 60,
                    "time": 403.62720899999954,
                    "velocity": 0.2755905511811024,
                    "duration": 0.10905474999992748
                },
                {
                    "name": "E4",
                    "midi": 64,
                    "time": 403.7206844999995,
                    "velocity": 0.2755905511811024,
                    "duration": 0.09347549999995408
                },
                {
                    "name": "E3",
                    "midi": 52,
                    "time": 403.81415999999945,
                    "velocity": 0.31496062992125984,
                    "duration": 0.10905474999998432
                },
                {
                    "name": "G#3",
                    "midi": 56,
                    "time": 403.90763549999946,
                    "velocity": 0.2755905511811024,
                    "duration": 0.10905474999992748
                },
                {
                    "name": "B3",
                    "midi": 59,
                    "time": 404.0011109999994,
                    "velocity": 0.2755905511811024,
                    "duration": 0.10905474999992748
                },
                {
                    "name": "E4",
                    "midi": 64,
                    "time": 404.09458649999937,
                    "velocity": 0.2755905511811024,
                    "duration": 0.09347549999995408
                },
                {
                    "name": "E3",
                    "midi": 52,
                    "time": 404.1880619999993,
                    "velocity": 0.31496062992125984,
                    "duration": 0.10905474999998432
                },
                {
                    "name": "G#3",
                    "midi": 56,
                    "time": 404.28153749999933,
                    "velocity": 0.2755905511811024,
                    "duration": 0.10905474999992748
                },
                {
                    "name": "B3",
                    "midi": 59,
                    "time": 404.3750129999993,
                    "velocity": 0.2755905511811024,
                    "duration": 0.10905474999992748
                },
                {
                    "name": "E4",
                    "midi": 64,
                    "time": 404.46848849999924,
                    "velocity": 0.2755905511811024,
                    "duration": 0.09347549999995408
                },
                {
                    "name": "E3",
                    "midi": 52,
                    "time": 404.5619639999992,
                    "velocity": 0.31496062992125984,
                    "duration": 0.10905474999998432
                },
                {
                    "name": "A3",
                    "midi": 57,
                    "time": 404.6554394999992,
                    "velocity": 0.2755905511811024,
                    "duration": 0.10905474999992748
                },
                {
                    "name": "C4",
                    "midi": 60,
                    "time": 404.74891499999916,
                    "velocity": 0.2755905511811024,
                    "duration": 0.10905474999992748
                },
                {
                    "name": "E4",
                    "midi": 64,
                    "time": 404.8423904999991,
                    "velocity": 0.2755905511811024,
                    "duration": 0.09347549999995408
                },
                {
                    "name": "E3",
                    "midi": 52,
                    "time": 404.93586599999907,
                    "velocity": 0.3228346456692913,
                    "duration": 0.10905474999998432
                },
                {
                    "name": "A3",
                    "midi": 57,
                    "time": 405.0293414999991,
                    "velocity": 0.2755905511811024,
                    "duration": 0.10905474999992748
                },
                {
                    "name": "C4",
                    "midi": 60,
                    "time": 405.12281699999903,
                    "velocity": 0.2755905511811024,
                    "duration": 0.10905474999992748
                },
                {
                    "name": "E4",
                    "midi": 64,
                    "time": 405.216292499999,
                    "velocity": 0.2755905511811024,
                    "duration": 0.09347549999995408
                },
                {
                    "name": "E3",
                    "midi": 52,
                    "time": 405.30976799999894,
                    "velocity": 0.31496062992125984,
                    "duration": 0.10905474999998432
                },
                {
                    "name": "B3",
                    "midi": 59,
                    "time": 405.40324349999895,
                    "velocity": 0.2755905511811024,
                    "duration": 0.10905474999992748
                },
                {
                    "name": "D4",
                    "midi": 62,
                    "time": 405.4967189999989,
                    "velocity": 0.2755905511811024,
                    "duration": 0.10905474999992748
                },
                {
                    "name": "E4",
                    "midi": 64,
                    "time": 405.59019449999886,
                    "velocity": 0.2755905511811024,
                    "duration": 0.09347549999995408
                },
                {
                    "name": "E3",
                    "midi": 52,
                    "time": 405.6836699999988,
                    "velocity": 0.31496062992125984,
                    "duration": 0.10905474999998432
                },
                {
                    "name": "B3",
                    "midi": 59,
                    "time": 405.7771454999988,
                    "velocity": 0.28346456692913385,
                    "duration": 0.10905474999992748
                },
                {
                    "name": "D4",
                    "midi": 62,
                    "time": 405.8706209999988,
                    "velocity": 0.28346456692913385,
                    "duration": 0.10905474999992748
                },
                {
                    "name": "E4",
                    "midi": 64,
                    "time": 405.96409649999873,
                    "velocity": 0.28346456692913385,
                    "duration": 0.09347549999995408
                },
                {
                    "name": "E3",
                    "midi": 52,
                    "time": 406.0575719999987,
                    "velocity": 0.33070866141732286,
                    "duration": 0.10905474999998432
                },
                {
                    "name": "A3",
                    "midi": 57,
                    "time": 406.1510474999987,
                    "velocity": 0.28346456692913385,
                    "duration": 0.10905474999992748
                },
                {
                    "name": "C4",
                    "midi": 60,
                    "time": 406.24452299999865,
                    "velocity": 0.29133858267716534,
                    "duration": 0.10905474999992748
                },
                {
                    "name": "E4",
                    "midi": 64,
                    "time": 406.3379984999986,
                    "velocity": 0.29133858267716534,
                    "duration": 0.09347549999995408
                },
                {
                    "name": "E3",
                    "midi": 52,
                    "time": 406.43147399999856,
                    "velocity": 0.33070866141732286,
                    "duration": 0.10905474999998432
                },
                {
                    "name": "A3",
                    "midi": 57,
                    "time": 406.52494949999857,
                    "velocity": 0.29133858267716534,
                    "duration": 0.10905474999992748
                },
                {
                    "name": "C4",
                    "midi": 60,
                    "time": 406.6184249999985,
                    "velocity": 0.29133858267716534,
                    "duration": 0.10905474999992748
                },
                {
                    "name": "E4",
                    "midi": 64,
                    "time": 406.7119004999985,
                    "velocity": 0.2992125984251969,
                    "duration": 0.09347549999995408
                },
                {
                    "name": "E3",
                    "midi": 52,
                    "time": 406.80537599999843,
                    "velocity": 0.3464566929133858,
                    "duration": 0.09347550000001092
                },
                {
                    "name": "G#3",
                    "midi": 56,
                    "time": 406.89885149999844,
                    "velocity": 0.2992125984251969,
                    "duration": 0.09347550000001092
                },
                {
                    "name": "B3",
                    "midi": 59,
                    "time": 406.99232699999845,
                    "velocity": 0.2992125984251969,
                    "duration": 0.09347550000001092
                },
                {
                    "name": "E4",
                    "midi": 64,
                    "time": 407.08580249999847,
                    "velocity": 0.2992125984251969,
                    "duration": 0.09347550000001092
                },
                {
                    "name": "D#4",
                    "midi": 63,
                    "time": 407.1792779999985,
                    "velocity": 0.3937007874015748,
                    "duration": 0.09347550000001092
                },
                {
                    "name": "E4",
                    "midi": 64,
                    "time": 407.2727534999985,
                    "velocity": 0.3228346456692913,
                    "duration": 0.09347550000001092
                },
                {
                    "name": "C4",
                    "midi": 60,
                    "time": 407.3662289999985,
                    "velocity": 0.31496062992125984,
                    "duration": 0.09347550000001092
                },
                {
                    "name": "A3",
                    "midi": 57,
                    "time": 407.4597044999985,
                    "velocity": 0.3228346456692913,
                    "duration": 0.09347550000001092
                },
                {
                    "name": "E3",
                    "midi": 52,
                    "time": 407.5531799999985,
                    "velocity": 0.4094488188976378,
                    "duration": 0.09347550000001092
                },
                {
                    "name": "G#3",
                    "midi": 56,
                    "time": 407.64665549999853,
                    "velocity": 0.3464566929133858,
                    "duration": 0.09347550000001092
                },
                {
                    "name": "B3",
                    "midi": 59,
                    "time": 407.74013099999854,
                    "velocity": 0.3543307086614173,
                    "duration": 0.09347550000001092
                },
                {
                    "name": "E4",
                    "midi": 64,
                    "time": 407.83360649999855,
                    "velocity": 0.3543307086614173,
                    "duration": 0.09347550000001092
                },
                {
                    "name": "D#4",
                    "midi": 63,
                    "time": 407.92708199999856,
                    "velocity": 0.47244094488188976,
                    "duration": 0.09347550000001092
                },
                {
                    "name": "E4",
                    "midi": 64,
                    "time": 408.0205574999986,
                    "velocity": 0.4015748031496063,
                    "duration": 0.09347550000001092
                },
                {
                    "name": "C4",
                    "midi": 60,
                    "time": 408.1140329999986,
                    "velocity": 0.4015748031496063,
                    "duration": 0.09347550000001092
                },
                {
                    "name": "A3",
                    "midi": 57,
                    "time": 408.2075084999986,
                    "velocity": 0.4094488188976378,
                    "duration": 0.09347550000001092
                },
                {
                    "name": "E3",
                    "midi": 52,
                    "time": 408.3009839999986,
                    "velocity": 0.49606299212598426,
                    "duration": 0.09347550000001092
                },
                {
                    "name": "G#3",
                    "midi": 56,
                    "time": 408.3944594999986,
                    "velocity": 0.4094488188976378,
                    "duration": 0.09347550000001092
                },
                {
                    "name": "B3",
                    "midi": 59,
                    "time": 408.48793499999863,
                    "velocity": 0.4094488188976378,
                    "duration": 0.09347550000001092
                },
                {
                    "name": "E4",
                    "midi": 64,
                    "time": 408.58141049999864,
                    "velocity": 0.4094488188976378,
                    "duration": 0.09347550000001092
                },
                {
                    "name": "E3",
                    "midi": 52,
                    "time": 408.67488599999865,
                    "velocity": 0.49606299212598426,
                    "duration": 0.09347550000001092
                },
                {
                    "name": "A3",
                    "midi": 57,
                    "time": 408.76836149999866,
                    "velocity": 0.4094488188976378,
                    "duration": 0.09347550000001092
                },
                {
                    "name": "C4",
                    "midi": 60,
                    "time": 408.8618369999987,
                    "velocity": 0.4094488188976378,
                    "duration": 0.09347550000001092
                },
                {
                    "name": "E4",
                    "midi": 64,
                    "time": 408.9553124999987,
                    "velocity": 0.4094488188976378,
                    "duration": 0.09347550000001092
                },
                {
                    "name": "E3",
                    "midi": 52,
                    "time": 409.0487879999987,
                    "velocity": 0.49606299212598426,
                    "duration": 0.09347550000001092
                },
                {
                    "name": "G#3",
                    "midi": 56,
                    "time": 409.1422634999987,
                    "velocity": 0.4094488188976378,
                    "duration": 0.09347550000001092
                },
                {
                    "name": "B3",
                    "midi": 59,
                    "time": 409.2357389999987,
                    "velocity": 0.4094488188976378,
                    "duration": 0.09347550000001092
                },
                {
                    "name": "E4",
                    "midi": 64,
                    "time": 409.3292144999987,
                    "velocity": 0.4094488188976378,
                    "duration": 0.09347550000001092
                },
                {
                    "name": "E3",
                    "midi": 52,
                    "time": 409.42268999999874,
                    "velocity": 0.49606299212598426,
                    "duration": 0.09347550000001092
                },
                {
                    "name": "A3",
                    "midi": 57,
                    "time": 409.51616549999875,
                    "velocity": 0.4094488188976378,
                    "duration": 0.09347550000001092
                },
                {
                    "name": "C4",
                    "midi": 60,
                    "time": 409.60964099999876,
                    "velocity": 0.4094488188976378,
                    "duration": 0.09347550000001092
                },
                {
                    "name": "E4",
                    "midi": 64,
                    "time": 409.70311649999877,
                    "velocity": 0.4094488188976378,
                    "duration": 0.09347550000001092
                },
                {
                    "name": "E3",
                    "midi": 52,
                    "time": 409.7965919999988,
                    "velocity": 0.4251968503937008,
                    "duration": 0.37390199999998686
                },
                {
                    "name": "G#3",
                    "midi": 56,
                    "time": 409.7965919999988,
                    "velocity": 0.4251968503937008,
                    "duration": 0.37390199999998686
                },
                {
                    "name": "B3",
                    "midi": 59,
                    "time": 409.7965919999988,
                    "velocity": 0.4251968503937008,
                    "duration": 0.37390199999998686
                },
                {
                    "name": "E4",
                    "midi": 64,
                    "time": 409.7965919999988,
                    "velocity": 0.49606299212598426,
                    "duration": 0.37390199999998686
                },
                {
                    "name": "E2",
                    "midi": 40,
                    "time": 412.41390599999875,
                    "velocity": 0.6692913385826772,
                    "duration": 0.09347550000001092
                },
                {
                    "name": "G#2",
                    "midi": 44,
                    "time": 412.50738149999876,
                    "velocity": 0.5984251968503937,
                    "duration": 0.09347550000001092
                },
                {
                    "name": "B2",
                    "midi": 47,
                    "time": 412.60085699999877,
                    "velocity": 0.5984251968503937,
                    "duration": 0.09347550000001092
                },
                {
                    "name": "E3",
                    "midi": 52,
                    "time": 412.6943324999988,
                    "velocity": 0.5905511811023622,
                    "duration": 0.09347550000001092
                },
                {
                    "name": "E2",
                    "midi": 40,
                    "time": 412.7878079999988,
                    "velocity": 0.6062992125984252,
                    "duration": 0.09347550000001092
                },
                {
                    "name": "E3",
                    "midi": 52,
                    "time": 412.9747589999988,
                    "velocity": 0.5354330708661418,
                    "duration": 0.09347550000001092
                },
                {
                    "name": "F#2",
                    "midi": 42,
                    "time": 413.16170999999883,
                    "velocity": 0.5748031496062992,
                    "duration": 0.09347550000001092
                },
                {
                    "name": "F#3",
                    "midi": 54,
                    "time": 413.34866099999886,
                    "velocity": 0.5196850393700787,
                    "duration": 0.09347550000001092
                },
                {
                    "name": "G#2",
                    "midi": 44,
                    "time": 413.5356119999989,
                    "velocity": 0.5590551181102362,
                    "duration": 0.09347550000001092
                },
                {
                    "name": "G#3",
                    "midi": 56,
                    "time": 413.7225629999989,
                    "velocity": 0.5118110236220472,
                    "duration": 0.09347550000001092
                },
                {
                    "name": "G#2",
                    "midi": 44,
                    "time": 414.2834159999989,
                    "velocity": 0.5433070866141733,
                    "duration": 0.09347550000001092
                },
                {
                    "name": "G#3",
                    "midi": 56,
                    "time": 414.47036699999893,
                    "velocity": 0.48031496062992124,
                    "duration": 0.09347550000001092
                },
                {
                    "name": "A2",
                    "midi": 45,
                    "time": 414.65731799999895,
                    "velocity": 0.5118110236220472,
                    "duration": 0.09347550000001092
                },
                {
                    "name": "A3",
                    "midi": 57,
                    "time": 414.844268999999,
                    "velocity": 0.4645669291338583,
                    "duration": 0.09347550000001092
                },
                {
                    "name": "B2",
                    "midi": 47,
                    "time": 415.031219999999,
                    "velocity": 0.5118110236220472,
                    "duration": 0.09347550000001092
                },
                {
                    "name": "B3",
                    "midi": 59,
                    "time": 415.218170999999,
                    "velocity": 0.4251968503937008,
                    "duration": 0.09347550000001092
                },
                {
                    "name": "B2",
                    "midi": 47,
                    "time": 416.52682799999906,
                    "velocity": 0.3228346456692913,
                    "duration": 0.09347550000001092
                },
                {
                    "name": "B3",
                    "midi": 59,
                    "time": 416.7137789999991,
                    "velocity": 0.28346456692913385,
                    "duration": 0.09347550000001092
                },
                {
                    "name": "C#3",
                    "midi": 49,
                    "time": 416.9007299999991,
                    "velocity": 0.3228346456692913,
                    "duration": 0.09347550000001092
                },
                {
                    "name": "C#4",
                    "midi": 61,
                    "time": 417.0876809999991,
                    "velocity": 0.28346456692913385,
                    "duration": 0.09347550000001092
                },
                {
                    "name": "D3",
                    "midi": 50,
                    "time": 417.27463199999914,
                    "velocity": 0.31496062992125984,
                    "duration": 0.09347550000001092
                },
                {
                    "name": "D4",
                    "midi": 62,
                    "time": 417.46158299999917,
                    "velocity": 0.29133858267716534,
                    "duration": 0.09347550000001092
                },
                {
                    "name": "E3",
                    "midi": 52,
                    "time": 417.6485339999992,
                    "velocity": 0.30708661417322836,
                    "duration": 0.09347550000001092
                },
                {
                    "name": "E4",
                    "midi": 64,
                    "time": 417.8354849999992,
                    "velocity": 0.28346456692913385,
                    "duration": 0.09347550000001092
                },
                {
                    "name": "F#3",
                    "midi": 54,
                    "time": 418.02243599999923,
                    "velocity": 0.2992125984251969,
                    "duration": 0.09347550000001092
                },
                {
                    "name": "F#4",
                    "midi": 66,
                    "time": 418.20938699999925,
                    "velocity": 0.29133858267716534,
                    "duration": 0.09347550000001092
                },
                {
                    "name": "G#3",
                    "midi": 56,
                    "time": 418.3963379999993,
                    "velocity": 0.31496062992125984,
                    "duration": 0.09347550000001092
                },
                {
                    "name": "G#4",
                    "midi": 68,
                    "time": 418.5832889999993,
                    "velocity": 0.29133858267716534,
                    "duration": 0.09347550000001092
                },
                {
                    "name": "E4",
                    "midi": 64,
                    "time": 418.7702399999993,
                    "velocity": 0.25984251968503935,
                    "duration": 0.7478039999999737
                },
                {
                    "name": "C#4",
                    "midi": 61,
                    "time": 418.7702399999993,
                    "velocity": 0.25984251968503935,
                    "duration": 0.7478039999999737
                },
                {
                    "name": "A4",
                    "midi": 69,
                    "time": 418.7702399999993,
                    "velocity": 0.30708661417322836,
                    "duration": 0.7478039999999737
                },
                {
                    "name": "A3",
                    "midi": 57,
                    "time": 418.7702399999993,
                    "velocity": 0.25984251968503935,
                    "duration": 0.7478039999999737
                },
                {
                    "name": "B3",
                    "midi": 59,
                    "time": 419.5180439999993,
                    "velocity": 0.2283464566929134,
                    "duration": 0.37390199999998686
                },
                {
                    "name": "E4",
                    "midi": 64,
                    "time": 419.5180439999993,
                    "velocity": 0.2755905511811024,
                    "duration": 0.37390199999998686
                },
                {
                    "name": "G#3",
                    "midi": 56,
                    "time": 419.5180439999993,
                    "velocity": 0.2283464566929134,
                    "duration": 0.37390199999998686
                },
                {
                    "name": "E3",
                    "midi": 52,
                    "time": 419.5180439999993,
                    "velocity": 0.2283464566929134,
                    "duration": 0.37390199999998686
                },
                {
                    "name": "A3",
                    "midi": 57,
                    "time": 419.8919459999993,
                    "velocity": 0.2283464566929134,
                    "duration": 0.37390199999998686
                },
                {
                    "name": "C#4",
                    "midi": 61,
                    "time": 419.8919459999993,
                    "velocity": 0.2283464566929134,
                    "duration": 0.37390199999998686
                },
                {
                    "name": "F#4",
                    "midi": 66,
                    "time": 419.8919459999993,
                    "velocity": 0.2755905511811024,
                    "duration": 0.37390199999998686
                },
                {
                    "name": "F#3",
                    "midi": 54,
                    "time": 419.8919459999993,
                    "velocity": 0.2283464566929134,
                    "duration": 0.37390199999998686
                },
                {
                    "name": "C#3",
                    "midi": 49,
                    "time": 420.26584799999927,
                    "velocity": 0.25984251968503935,
                    "duration": 0.7478039999999737
                },
                {
                    "name": "C#4",
                    "midi": 61,
                    "time": 420.26584799999927,
                    "velocity": 0.30708661417322836,
                    "duration": 0.7478039999999737
                },
                {
                    "name": "G#3",
                    "midi": 56,
                    "time": 420.26584799999927,
                    "velocity": 0.25984251968503935,
                    "duration": 0.7478039999999737
                },
                {
                    "name": "F3",
                    "midi": 53,
                    "time": 420.26584799999927,
                    "velocity": 0.25984251968503935,
                    "duration": 0.7478039999999737
                },
                {
                    "name": "F#3",
                    "midi": 54,
                    "time": 421.01365199999924,
                    "velocity": 0.2204724409448819,
                    "duration": 0.7478039999999737
                },
                {
                    "name": "D3",
                    "midi": 50,
                    "time": 421.01365199999924,
                    "velocity": 0.2204724409448819,
                    "duration": 0.7478039999999737
                },
                {
                    "name": "D4",
                    "midi": 62,
                    "time": 421.01365199999924,
                    "velocity": 0.2677165354330709,
                    "duration": 0.7478039999999737
                },
                {
                    "name": "A3",
                    "midi": 57,
                    "time": 421.01365199999924,
                    "velocity": 0.2204724409448819,
                    "duration": 0.7478039999999737
                },
                {
                    "name": "B2",
                    "midi": 47,
                    "time": 421.7614559999992,
                    "velocity": 0.29133858267716534,
                    "duration": 0.7478039999999737
                },
                {
                    "name": "E3",
                    "midi": 52,
                    "time": 421.7614559999992,
                    "velocity": 0.3543307086614173,
                    "duration": 0.7478039999999737
                },
                {
                    "name": "G#3",
                    "midi": 56,
                    "time": 421.7614559999992,
                    "velocity": 0.29133858267716534,
                    "duration": 0.7478039999999737
                },
                {
                    "name": "B3",
                    "midi": 59,
                    "time": 421.7614559999992,
                    "velocity": 0.3543307086614173,
                    "duration": 0.7478039999999737
                },
                {
                    "name": "A3",
                    "midi": 57,
                    "time": 422.5092599999992,
                    "velocity": 0.31496062992125984,
                    "duration": 0.37390199999998686
                },
                {
                    "name": "C#3",
                    "midi": 49,
                    "time": 422.5092599999992,
                    "velocity": 0.31496062992125984,
                    "duration": 0.37390199999998686
                },
                {
                    "name": "E3",
                    "midi": 52,
                    "time": 422.5092599999992,
                    "velocity": 0.31496062992125984,
                    "duration": 0.37390199999998686
                },
                {
                    "name": "C#4",
                    "midi": 61,
                    "time": 422.5092599999992,
                    "velocity": 0.3858267716535433,
                    "duration": 0.37390199999998686
                },
                {
                    "name": "B3",
                    "midi": 59,
                    "time": 422.8831619999992,
                    "velocity": 0.36220472440944884,
                    "duration": 0.37390199999998686
                },
                {
                    "name": "D4",
                    "midi": 62,
                    "time": 422.8831619999992,
                    "velocity": 0.4330708661417323,
                    "duration": 0.37390199999998686
                },
                {
                    "name": "D3",
                    "midi": 50,
                    "time": 422.8831619999992,
                    "velocity": 0.28346456692913385,
                    "duration": 0.37390199999998686
                },
                {
                    "name": "F#3",
                    "midi": 54,
                    "time": 422.8831619999992,
                    "velocity": 0.3228346456692913,
                    "duration": 0.37390199999998686
                },
                {
                    "name": "C#4",
                    "midi": 61,
                    "time": 423.25706399999916,
                    "velocity": 0.3858267716535433,
                    "duration": 0.7478039999999737
                },
                {
                    "name": "E3",
                    "midi": 52,
                    "time": 423.25706399999916,
                    "velocity": 0.3858267716535433,
                    "duration": 1.4956079999999474
                },
                {
                    "name": "A3",
                    "midi": 57,
                    "time": 423.25706399999916,
                    "velocity": 0.3858267716535433,
                    "duration": 0.7478039999999737
                },
                {
                    "name": "E4",
                    "midi": 64,
                    "time": 423.25706399999916,
                    "velocity": 0.4645669291338583,
                    "duration": 0.7478039999999737
                },
                {
                    "name": "B3",
                    "midi": 59,
                    "time": 424.00486799999914,
                    "velocity": 0.2125984251968504,
                    "duration": 0.7478039999999737
                },
                {
                    "name": "G#3",
                    "midi": 56,
                    "time": 424.00486799999914,
                    "velocity": 0.2125984251968504,
                    "duration": 0.7478039999999737
                },
                {
                    "name": "E4",
                    "midi": 64,
                    "time": 424.00486799999914,
                    "velocity": 0.25196850393700787,
                    "duration": 0.7462460749999877
                },
                {
                    "name": "C4",
                    "midi": 60,
                    "time": 424.7526719999991,
                    "velocity": 0.2755905511811024,
                    "duration": 0.7478039999999737
                },
                {
                    "name": "A3",
                    "midi": 57,
                    "time": 424.7526719999991,
                    "velocity": 0.2283464566929134,
                    "duration": 0.7478039999999737
                },
                {
                    "name": "B3",
                    "midi": 59,
                    "time": 425.5004759999991,
                    "velocity": 0.2440944881889764,
                    "duration": 0.37390199999998686
                },
                {
                    "name": "G3",
                    "midi": 55,
                    "time": 425.5004759999991,
                    "velocity": 0.2047244094488189,
                    "duration": 0.37390199999998686
                },
                {
                    "name": "E3",
                    "midi": 52,
                    "time": 425.5004759999991,
                    "velocity": 0.2047244094488189,
                    "duration": 0.37390199999998686
                },
                {
                    "name": "A3",
                    "midi": 57,
                    "time": 425.87437799999907,
                    "velocity": 0.2440944881889764,
                    "duration": 0.37390199999998686
                },
                {
                    "name": "F3",
                    "midi": 53,
                    "time": 425.87437799999907,
                    "velocity": 0.2047244094488189,
                    "duration": 0.37390199999998686
                },
                {
                    "name": "G3",
                    "midi": 55,
                    "time": 426.24827999999906,
                    "velocity": 0.2755905511811024,
                    "duration": 0.7478039999999737
                },
                {
                    "name": "E3",
                    "midi": 52,
                    "time": 426.24827999999906,
                    "velocity": 0.2283464566929134,
                    "duration": 0.7478039999999737
                },
                {
                    "name": "C3",
                    "midi": 48,
                    "time": 426.24827999999906,
                    "velocity": 0.2283464566929134,
                    "duration": 0.7478039999999737
                },
                {
                    "name": "F3",
                    "midi": 53,
                    "time": 426.99608399999903,
                    "velocity": 0.23622047244094488,
                    "duration": 0.7478039999999737
                },
                {
                    "name": "D3",
                    "midi": 50,
                    "time": 426.99608399999903,
                    "velocity": 0.1968503937007874,
                    "duration": 0.7478039999999737
                },
                {
                    "name": "C3",
                    "midi": 48,
                    "time": 427.743887999999,
                    "velocity": 0.2755905511811024,
                    "duration": 0.37390199999998686
                },
                {
                    "name": "E3",
                    "midi": 52,
                    "time": 427.743887999999,
                    "velocity": 0.2755905511811024,
                    "duration": 0.37390199999998686
                },
                {
                    "name": "G2",
                    "midi": 43,
                    "time": 427.743887999999,
                    "velocity": 0.2047244094488189,
                    "duration": 1.4956080000000043
                },
                {
                    "name": "D3",
                    "midi": 50,
                    "time": 428.117789999999,
                    "velocity": 0.2755905511811024,
                    "duration": 1.1217060000000174
                },
                {
                    "name": "F3",
                    "midi": 53,
                    "time": 428.117789999999,
                    "velocity": 0.2755905511811024,
                    "duration": 1.1217060000000174
                },
                {
                    "name": "C3",
                    "midi": 48,
                    "time": 429.239495999999,
                    "velocity": 0.29133858267716534,
                    "duration": 0.37390199999998686
                },
                {
                    "name": "E3",
                    "midi": 52,
                    "time": 429.239495999999,
                    "velocity": 0.31496062992125984,
                    "duration": 0.37390199999998686
                },
                {
                    "name": "E5",
                    "midi": 76,
                    "time": 430.735103999999,
                    "velocity": 0.3464566929133858,
                    "duration": 0.7478039999999737
                },
                {
                    "name": "C5",
                    "midi": 72,
                    "time": 430.735103999999,
                    "velocity": 0.29133858267716534,
                    "duration": 0.7478039999999737
                },
                {
                    "name": "F5",
                    "midi": 77,
                    "time": 431.482907999999,
                    "velocity": 0.31496062992125984,
                    "duration": 0.37390199999998686
                },
                {
                    "name": "D5",
                    "midi": 74,
                    "time": 431.482907999999,
                    "velocity": 0.31496062992125984,
                    "duration": 0.37390199999998686
                },
                {
                    "name": "B4",
                    "midi": 71,
                    "time": 431.482907999999,
                    "velocity": 0.25984251968503935,
                    "duration": 0.37390199999998686
                },
                {
                    "name": "G#4",
                    "midi": 68,
                    "time": 431.482907999999,
                    "velocity": 0.25984251968503935,
                    "duration": 0.37390199999998686
                },
                {
                    "name": "E5",
                    "midi": 76,
                    "time": 431.856809999999,
                    "velocity": 0.31496062992125984,
                    "duration": 0.37390199999998686
                },
                {
                    "name": "C5",
                    "midi": 72,
                    "time": 431.856809999999,
                    "velocity": 0.31496062992125984,
                    "duration": 0.37390199999998686
                },
                {
                    "name": "A4",
                    "midi": 69,
                    "time": 431.856809999999,
                    "velocity": 0.25984251968503935,
                    "duration": 0.37390199999998686
                },
                {
                    "name": "D5",
                    "midi": 74,
                    "time": 432.23071199999896,
                    "velocity": 0.3464566929133858,
                    "duration": 0.7478039999999737
                },
                {
                    "name": "B4",
                    "midi": 71,
                    "time": 432.23071199999896,
                    "velocity": 0.3464566929133858,
                    "duration": 0.7478039999999737
                },
                {
                    "name": "G#4",
                    "midi": 68,
                    "time": 432.23071199999896,
                    "velocity": 0.29133858267716534,
                    "duration": 0.7478039999999737
                },
                {
                    "name": "E4",
                    "midi": 64,
                    "time": 432.23071199999896,
                    "velocity": 0.29133858267716534,
                    "duration": 0.7478039999999737
                },
                {
                    "name": "C5",
                    "midi": 72,
                    "time": 432.97851599999893,
                    "velocity": 0.30708661417322836,
                    "duration": 0.7478039999999737
                },
                {
                    "name": "A4",
                    "midi": 69,
                    "time": 432.97851599999893,
                    "velocity": 0.30708661417322836,
                    "duration": 0.7478039999999737
                },
                {
                    "name": "F4",
                    "midi": 65,
                    "time": 432.97851599999893,
                    "velocity": 0.25196850393700787,
                    "duration": 0.7478039999999737
                },
                {
                    "name": "D4",
                    "midi": 62,
                    "time": 433.7263199999989,
                    "velocity": 0.30708661417322836,
                    "duration": 0.7478039999999737
                },
                {
                    "name": "F4",
                    "midi": 65,
                    "time": 433.7263199999989,
                    "velocity": 0.3700787401574803,
                    "duration": 0.7478039999999737
                },
                {
                    "name": "G4",
                    "midi": 67,
                    "time": 433.7263199999989,
                    "velocity": 0.30708661417322836,
                    "duration": 0.7478039999999737
                },
                {
                    "name": "B4",
                    "midi": 71,
                    "time": 433.7263199999989,
                    "velocity": 0.3700787401574803,
                    "duration": 0.7478039999999737
                },
                {
                    "name": "E4",
                    "midi": 64,
                    "time": 434.4741239999989,
                    "velocity": 0.3543307086614173,
                    "duration": 0.37390199999998686
                },
                {
                    "name": "G4",
                    "midi": 67,
                    "time": 434.4741239999989,
                    "velocity": 0.3543307086614173,
                    "duration": 0.37390199999998686
                },
                {
                    "name": "C5",
                    "midi": 72,
                    "time": 434.4741239999989,
                    "velocity": 0.41732283464566927,
                    "duration": 0.37390199999998686
                },
                {
                    "name": "C5",
                    "midi": 72,
                    "time": 434.84802599999887,
                    "velocity": 0.4409448818897638,
                    "duration": 0.37390199999998686
                },
                {
                    "name": "D5",
                    "midi": 74,
                    "time": 434.84802599999887,
                    "velocity": 0.44881889763779526,
                    "duration": 0.37390199999998686
                },
                {
                    "name": "F4",
                    "midi": 65,
                    "time": 434.84802599999887,
                    "velocity": 0.3543307086614173,
                    "duration": 0.37390199999998686
                },
                {
                    "name": "A4",
                    "midi": 69,
                    "time": 434.84802599999887,
                    "velocity": 0.3779527559055118,
                    "duration": 0.37390199999998686
                },
                {
                    "name": "G4",
                    "midi": 67,
                    "time": 435.22192799999885,
                    "velocity": 0.41732283464566927,
                    "duration": 1.1217059999999606
                },
                {
                    "name": "C5",
                    "midi": 72,
                    "time": 435.22192799999885,
                    "velocity": 0.41732283464566927,
                    "duration": 0.7478039999999737
                },
                {
                    "name": "E5",
                    "midi": 76,
                    "time": 435.22192799999885,
                    "velocity": 0.5118110236220472,
                    "duration": 0.7478039999999737
                },
                {
                    "name": "B4",
                    "midi": 71,
                    "time": 435.9697319999988,
                    "velocity": 0.3543307086614173,
                    "duration": 0.37390199999998686
                },
                {
                    "name": "D5",
                    "midi": 74,
                    "time": 435.9697319999988,
                    "velocity": 0.41732283464566927,
                    "duration": 0.37390199999998686
                },
                {
                    "name": "G3",
                    "midi": 55,
                    "time": 436.3436339999988,
                    "velocity": 0.3464566929133858,
                    "duration": 0.12463400000001457
                },
                {
                    "name": "A3",
                    "midi": 57,
                    "time": 436.46826799999883,
                    "velocity": 0.33858267716535434,
                    "duration": 0.12463400000001457
                },
                {
                    "name": "B3",
                    "midi": 59,
                    "time": 436.59290199999884,
                    "velocity": 0.3228346456692913,
                    "duration": 0.12463400000001457
                },
                {
                    "name": "E4",
                    "midi": 64,
                    "time": 436.71753599999886,
                    "velocity": 0.3543307086614173,
                    "duration": 0.7478039999999737
                },
                {
                    "name": "C4",
                    "midi": 60,
                    "time": 436.71753599999886,
                    "velocity": 0.29133858267716534,
                    "duration": 0.7478039999999737
                },
                {
                    "name": "D4",
                    "midi": 62,
                    "time": 437.46533999999883,
                    "velocity": 0.3228346456692913,
                    "duration": 0.37390199999998686
                },
                {
                    "name": "B3",
                    "midi": 59,
                    "time": 437.46533999999883,
                    "velocity": 0.25984251968503935,
                    "duration": 0.37390199999998686
                },
                {
                    "name": "G#3",
                    "midi": 56,
                    "time": 437.46533999999883,
                    "velocity": 0.25984251968503935,
                    "duration": 0.37390199999998686
                },
                {
                    "name": "C4",
                    "midi": 60,
                    "time": 437.8392419999988,
                    "velocity": 0.3228346456692913,
                    "duration": 0.37390199999998686
                },
                {
                    "name": "A3",
                    "midi": 57,
                    "time": 437.8392419999988,
                    "velocity": 0.25984251968503935,
                    "duration": 0.37390199999998686
                },
                {
                    "name": "B3",
                    "midi": 59,
                    "time": 438.2131439999988,
                    "velocity": 0.29133858267716534,
                    "duration": 0.7478039999999737
                },
                {
                    "name": "D4",
                    "midi": 62,
                    "time": 438.2131439999988,
                    "velocity": 0.4409448818897638,
                    "duration": 0.7478039999999737
                },
                {
                    "name": "G#3",
                    "midi": 56,
                    "time": 438.2131439999988,
                    "velocity": 0.29133858267716534,
                    "duration": 0.7478039999999737
                },
                {
                    "name": "E3",
                    "midi": 52,
                    "time": 438.2131439999988,
                    "velocity": 0.29133858267716534,
                    "duration": 0.7478039999999737
                },
                {
                    "name": "F3",
                    "midi": 53,
                    "time": 438.9609479999988,
                    "velocity": 0.30708661417322836,
                    "duration": 0.7478039999999737
                },
                {
                    "name": "A3",
                    "midi": 57,
                    "time": 438.9609479999988,
                    "velocity": 0.30708661417322836,
                    "duration": 0.7478039999999737
                },
                {
                    "name": "C4",
                    "midi": 60,
                    "time": 438.9609479999988,
                    "velocity": 0.25196850393700787,
                    "duration": 0.7478039999999737
                },
                {
                    "name": "C3",
                    "midi": 48,
                    "time": 439.70875199999875,
                    "velocity": 0.4094488188976378,
                    "duration": 0.37390199999998686
                },
                {
                    "name": "G2",
                    "midi": 43,
                    "time": 439.70875199999875,
                    "velocity": 0.36220472440944884,
                    "duration": 1.4956080000000043
                },
                {
                    "name": "E3",
                    "midi": 52,
                    "time": 439.70875199999875,
                    "velocity": 0.4330708661417323,
                    "duration": 0.37390199999998686
                },
                {
                    "name": "D3",
                    "midi": 50,
                    "time": 440.08265399999874,
                    "velocity": 0.4330708661417323,
                    "duration": 1.1217060000000174
                },
                {
                    "name": "F3",
                    "midi": 53,
                    "time": 440.08265399999874,
                    "velocity": 0.4566929133858268,
                    "duration": 1.1217060000000174
                },
                {
                    "name": "C2",
                    "midi": 36,
                    "time": 441.20435999999876,
                    "velocity": 0.3937007874015748,
                    "duration": 0.37390199999998686
                },
                {
                    "name": "C3",
                    "midi": 48,
                    "time": 441.20435999999876,
                    "velocity": 0.47244094488188976,
                    "duration": 0.37390199999998686
                },
                {
                    "name": "G2",
                    "midi": 43,
                    "time": 441.57826199999874,
                    "velocity": 0.47244094488188976,
                    "duration": 0.7478039999999737
                },
                {
                    "name": "G2",
                    "midi": 43,
                    "time": 442.3260659999987,
                    "velocity": 0.47244094488188976,
                    "duration": 0.7478039999999737
                },
                {
                    "name": "G2",
                    "midi": 43,
                    "time": 443.0738699999987,
                    "velocity": 0.47244094488188976,
                    "duration": 0.7478039999999737
                },
                {
                    "name": "G2",
                    "midi": 43,
                    "time": 443.82167399999867,
                    "velocity": 0.47244094488188976,
                    "duration": 0.37390199999998686
                },
                {
                    "name": "C3",
                    "midi": 48,
                    "time": 444.19557599999865,
                    "velocity": 0.5748031496062992,
                    "duration": 0.12463400000001457
                },
                {
                    "name": "G2",
                    "midi": 43,
                    "time": 444.32020999999867,
                    "velocity": 0.5275590551181102,
                    "duration": 0.12463400000001457
                },
                {
                    "name": "E2",
                    "midi": 40,
                    "time": 444.4448439999987,
                    "velocity": 0.5433070866141733,
                    "duration": 0.12463400000001457
                },
                {
                    "name": "G2",
                    "midi": 43,
                    "time": 444.5694779999987,
                    "velocity": 0.5748031496062992,
                    "duration": 0.12463400000001457
                },
                {
                    "name": "C3",
                    "midi": 48,
                    "time": 444.6941119999987,
                    "velocity": 0.5433070866141733,
                    "duration": 0.12463400000001457
                },
                {
                    "name": "E3",
                    "midi": 52,
                    "time": 444.8187459999987,
                    "velocity": 0.5433070866141733,
                    "duration": 0.12463400000001457
                },
                {
                    "name": "D3",
                    "midi": 50,
                    "time": 444.94337999999874,
                    "velocity": 0.5748031496062992,
                    "duration": 0.12463400000001457
                },
                {
                    "name": "B2",
                    "midi": 47,
                    "time": 445.06801399999875,
                    "velocity": 0.5433070866141733,
                    "duration": 0.12463400000001457
                },
                {
                    "name": "G2",
                    "midi": 43,
                    "time": 445.19264799999877,
                    "velocity": 0.5433070866141733,
                    "duration": 0.12463400000001457
                },
                {
                    "name": "B2",
                    "midi": 47,
                    "time": 445.3172819999988,
                    "velocity": 0.5748031496062992,
                    "duration": 0.12463400000001457
                },
                {
                    "name": "D3",
                    "midi": 50,
                    "time": 445.4419159999988,
                    "velocity": 0.5433070866141733,
                    "duration": 0.12463400000001457
                },
                {
                    "name": "F3",
                    "midi": 53,
                    "time": 445.5665499999988,
                    "velocity": 0.5433070866141733,
                    "duration": 0.12463400000001457
                },
                {
                    "name": "E3",
                    "midi": 52,
                    "time": 445.6911839999988,
                    "velocity": 0.5748031496062992,
                    "duration": 0.12463400000001457
                },
                {
                    "name": "C3",
                    "midi": 48,
                    "time": 445.81581799999884,
                    "velocity": 0.5275590551181102,
                    "duration": 0.12463400000001457
                },
                {
                    "name": "G2",
                    "midi": 43,
                    "time": 445.94045199999886,
                    "velocity": 0.5433070866141733,
                    "duration": 0.12463400000001457
                },
                {
                    "name": "C3",
                    "midi": 48,
                    "time": 446.06508599999887,
                    "velocity": 0.5748031496062992,
                    "duration": 0.12463400000001457
                },
                {
                    "name": "E3",
                    "midi": 52,
                    "time": 446.1897199999989,
                    "velocity": 0.5433070866141733,
                    "duration": 0.12463400000001457
                },
                {
                    "name": "G3",
                    "midi": 55,
                    "time": 446.3143539999989,
                    "velocity": 0.5433070866141733,
                    "duration": 0.12463400000001457
                },
                {
                    "name": "F3",
                    "midi": 53,
                    "time": 446.4389879999989,
                    "velocity": 0.5748031496062992,
                    "duration": 0.12463400000001457
                },
                {
                    "name": "D3",
                    "midi": 50,
                    "time": 446.56362199999893,
                    "velocity": 0.5433070866141733,
                    "duration": 0.12463400000001457
                },
                {
                    "name": "B2",
                    "midi": 47,
                    "time": 446.68825599999894,
                    "velocity": 0.5433070866141733,
                    "duration": 0.12463400000001457
                },
                {
                    "name": "B3",
                    "midi": 59,
                    "time": 446.81288999999896,
                    "velocity": 0.5748031496062992,
                    "duration": 0.12463400000001457
                },
                {
                    "name": "F3",
                    "midi": 53,
                    "time": 446.937523999999,
                    "velocity": 0.5433070866141733,
                    "duration": 0.12463400000001457
                },
                {
                    "name": "D3",
                    "midi": 50,
                    "time": 447.062157999999,
                    "velocity": 0.5433070866141733,
                    "duration": 0.12463400000001457
                },
                {
                    "name": "E3",
                    "midi": 52,
                    "time": 447.186791999999,
                    "velocity": 0.5039370078740157,
                    "duration": 0.12463400000001457
                },
                {
                    "name": "G3",
                    "midi": 55,
                    "time": 447.311425999999,
                    "velocity": 0.4409448818897638,
                    "duration": 0.12463400000001457
                },
                {
                    "name": "C4",
                    "midi": 60,
                    "time": 447.43605999999903,
                    "velocity": 0.4409448818897638,
                    "duration": 0.12463400000001457
                },
                {
                    "name": "G3",
                    "midi": 55,
                    "time": 447.56069399999905,
                    "velocity": 0.5039370078740157,
                    "duration": 0.12463400000001457
                },
                {
                    "name": "E3",
                    "midi": 52,
                    "time": 447.68532799999906,
                    "velocity": 0.44881889763779526,
                    "duration": 0.12463400000001457
                },
                {
                    "name": "C3",
                    "midi": 48,
                    "time": 447.8099619999991,
                    "velocity": 0.44881889763779526,
                    "duration": 0.12463400000001457
                },
                {
                    "name": "B2",
                    "midi": 47,
                    "time": 447.9345959999991,
                    "velocity": 0.5039370078740157,
                    "duration": 0.12463400000001457
                },
                {
                    "name": "D3",
                    "midi": 50,
                    "time": 448.0592299999991,
                    "velocity": 0.4409448818897638,
                    "duration": 0.12463400000001457
                },
                {
                    "name": "F3",
                    "midi": 53,
                    "time": 448.1838639999991,
                    "velocity": 0.4409448818897638,
                    "duration": 0.12463400000001457
                },
                {
                    "name": "D3",
                    "midi": 50,
                    "time": 448.30849799999913,
                    "velocity": 0.5039370078740157,
                    "duration": 0.12463400000001457
                },
                {
                    "name": "B2",
                    "midi": 47,
                    "time": 448.43313199999915,
                    "velocity": 0.44881889763779526,
                    "duration": 0.12463400000001457
                },
                {
                    "name": "G2",
                    "midi": 43,
                    "time": 448.55776599999916,
                    "velocity": 0.4566929133858268,
                    "duration": 0.12463400000001457
                },
                {
                    "name": "C3",
                    "midi": 48,
                    "time": 448.6870737749992,
                    "velocity": 0.5039370078740157,
                    "duration": 0.12463400000001457
                },
                {
                    "name": "E3",
                    "midi": 52,
                    "time": 448.8070339999992,
                    "velocity": 0.4409448818897638,
                    "duration": 0.12463400000001457
                },
                {
                    "name": "G3",
                    "midi": 55,
                    "time": 448.9316679999992,
                    "velocity": 0.4409448818897638,
                    "duration": 0.12463400000001457
                },
                {
                    "name": "E3",
                    "midi": 52,
                    "time": 449.0563019999992,
                    "velocity": 0.5039370078740157,
                    "duration": 0.12463400000001457
                },
                {
                    "name": "C3",
                    "midi": 48,
                    "time": 449.18093599999924,
                    "velocity": 0.44881889763779526,
                    "duration": 0.12463400000001457
                },
                {
                    "name": "G2",
                    "midi": 43,
                    "time": 449.31024377499926,
                    "velocity": 0.44881889763779526,
                    "duration": 0.12463400000001457
                },
                {
                    "name": "B2",
                    "midi": 47,
                    "time": 449.43020399999926,
                    "velocity": 0.5039370078740157,
                    "duration": 0.12463400000001457
                },
                {
                    "name": "F3",
                    "midi": 53,
                    "time": 449.5548379999993,
                    "velocity": 0.4409448818897638,
                    "duration": 0.12463400000001457
                },
                {
                    "name": "G3",
                    "midi": 55,
                    "time": 449.6841457749993,
                    "velocity": 0.4409448818897638,
                    "duration": 0.12463400000001457
                },
                {
                    "name": "F3",
                    "midi": 53,
                    "time": 449.8041059999993,
                    "velocity": 0.5039370078740157,
                    "duration": 0.12463400000001457
                },
                {
                    "name": "G3",
                    "midi": 55,
                    "time": 449.9287399999993,
                    "velocity": 0.44881889763779526,
                    "duration": 0.12463400000001457
                },
                {
                    "name": "D4",
                    "midi": 62,
                    "time": 450.05337399999934,
                    "velocity": 0.4566929133858268,
                    "duration": 0.12463400000001457
                },
                {
                    "name": "E3",
                    "midi": 52,
                    "time": 450.17800799999935,
                    "velocity": 0.5039370078740157,
                    "duration": 0.12463400000001457
                },
                {
                    "name": "G3",
                    "midi": 55,
                    "time": 450.30264199999937,
                    "velocity": 0.4330708661417323,
                    "duration": 0.12463400000001457
                },
                {
                    "name": "C4",
                    "midi": 60,
                    "time": 450.4272759999994,
                    "velocity": 0.4330708661417323,
                    "duration": 0.12463400000001457
                },
                {
                    "name": "C3",
                    "midi": 48,
                    "time": 450.5519099999994,
                    "velocity": 0.4881889763779528,
                    "duration": 0.12463400000001457
                },
                {
                    "name": "E3",
                    "midi": 52,
                    "time": 450.6765439999994,
                    "velocity": 0.4330708661417323,
                    "duration": 0.12463400000001457
                },
                {
                    "name": "G3",
                    "midi": 55,
                    "time": 450.8011779999994,
                    "velocity": 0.4251968503937008,
                    "duration": 0.12463400000001457
                },
                {
                    "name": "D3",
                    "midi": 50,
                    "time": 450.92581199999944,
                    "velocity": 0.4645669291338583,
                    "duration": 0.12463400000001457
                },
                {
                    "name": "F3",
                    "midi": 53,
                    "time": 451.05044599999945,
                    "velocity": 0.4015748031496063,
                    "duration": 0.12463400000001457
                },
                {
                    "name": "G3",
                    "midi": 55,
                    "time": 451.17507999999947,
                    "velocity": 0.4015748031496063,
                    "duration": 0.12463400000001457
                },
                {
                    "name": "F3",
                    "midi": 53,
                    "time": 451.2997139999995,
                    "velocity": 0.44881889763779526,
                    "duration": 0.12463400000001457
                },
                {
                    "name": "G3",
                    "midi": 55,
                    "time": 451.4243479999995,
                    "velocity": 0.4015748031496063,
                    "duration": 0.12463400000001457
                },
                {
                    "name": "D4",
                    "midi": 62,
                    "time": 451.5489819999995,
                    "velocity": 0.4015748031496063,
                    "duration": 0.12463400000001457
                },
                {
                    "name": "E3",
                    "midi": 52,
                    "time": 451.6736159999995,
                    "velocity": 0.4409448818897638,
                    "duration": 0.12463400000001457
                },
                {
                    "name": "G3",
                    "midi": 55,
                    "time": 451.79824999999954,
                    "velocity": 0.3779527559055118,
                    "duration": 0.12463400000001457
                },
                {
                    "name": "C4",
                    "midi": 60,
                    "time": 451.92288399999956,
                    "velocity": 0.3779527559055118,
                    "duration": 0.12463400000001457
                },
                {
                    "name": "C3",
                    "midi": 48,
                    "time": 452.04751799999957,
                    "velocity": 0.4251968503937008,
                    "duration": 0.12463400000001457
                },
                {
                    "name": "E3",
                    "midi": 52,
                    "time": 452.1721519999996,
                    "velocity": 0.3779527559055118,
                    "duration": 0.12463400000001457
                },
                {
                    "name": "G3",
                    "midi": 55,
                    "time": 452.2967859999996,
                    "velocity": 0.3700787401574803,
                    "duration": 0.12463400000001457
                },
                {
                    "name": "D3",
                    "midi": 50,
                    "time": 452.4214199999996,
                    "velocity": 0.4015748031496063,
                    "duration": 0.12463400000001457
                },
                {
                    "name": "F3",
                    "midi": 53,
                    "time": 452.54605399999963,
                    "velocity": 0.3464566929133858,
                    "duration": 0.12463400000001457
                },
                {
                    "name": "G3",
                    "midi": 55,
                    "time": 452.67068799999964,
                    "velocity": 0.3464566929133858,
                    "duration": 0.12463400000001457
                },
                {
                    "name": "F3",
                    "midi": 53,
                    "time": 452.79532199999966,
                    "velocity": 0.3937007874015748,
                    "duration": 0.12463400000001457
                },
                {
                    "name": "G3",
                    "midi": 55,
                    "time": 452.9199559999997,
                    "velocity": 0.3464566929133858,
                    "duration": 0.12463400000001457
                },
                {
                    "name": "D4",
                    "midi": 62,
                    "time": 453.0445899999997,
                    "velocity": 0.3464566929133858,
                    "duration": 0.12463400000001457
                },
                {
                    "name": "E3",
                    "midi": 52,
                    "time": 453.1692239999997,
                    "velocity": 0.3937007874015748,
                    "duration": 0.09347550000001092
                },
                {
                    "name": "G3",
                    "midi": 55,
                    "time": 453.2626994999997,
                    "velocity": 0.33858267716535434,
                    "duration": 0.09347550000001092
                },
                {
                    "name": "C3",
                    "midi": 48,
                    "time": 453.3561749999997,
                    "velocity": 0.33858267716535434,
                    "duration": 0.09347550000001092
                },
                {
                    "name": "G3",
                    "midi": 55,
                    "time": 453.44965049999973,
                    "velocity": 0.3464566929133858,
                    "duration": 0.09347550000001092
                },
                {
                    "name": "D3",
                    "midi": 50,
                    "time": 453.54312599999975,
                    "velocity": 0.4015748031496063,
                    "duration": 0.09347550000001092
                },
                {
                    "name": "G3",
                    "midi": 55,
                    "time": 453.63660149999976,
                    "velocity": 0.3464566929133858,
                    "duration": 0.09347550000001092
                },
                {
                    "name": "F3",
                    "midi": 53,
                    "time": 453.73007699999977,
                    "velocity": 0.3464566929133858,
                    "duration": 0.09347550000001092
                },
                {
                    "name": "G3",
                    "midi": 55,
                    "time": 453.8235524999998,
                    "velocity": 0.3464566929133858,
                    "duration": 0.09347550000001092
                },
                {
                    "name": "E3",
                    "midi": 52,
                    "time": 453.9170279999998,
                    "velocity": 0.4094488188976378,
                    "duration": 0.09347550000001092
                },
                {
                    "name": "G3",
                    "midi": 55,
                    "time": 454.0105034999998,
                    "velocity": 0.36220472440944884,
                    "duration": 0.09347550000001092
                },
                {
                    "name": "C3",
                    "midi": 48,
                    "time": 454.1039789999998,
                    "velocity": 0.3700787401574803,
                    "duration": 0.09347550000001092
                },
                {
                    "name": "G3",
                    "midi": 55,
                    "time": 454.1974544999998,
                    "velocity": 0.3858267716535433,
                    "duration": 0.09347550000001092
                },
                {
                    "name": "D3",
                    "midi": 50,
                    "time": 454.29092999999983,
                    "velocity": 0.4330708661417323,
                    "duration": 0.09347550000001092
                },
                {
                    "name": "G3",
                    "midi": 55,
                    "time": 454.38440549999984,
                    "velocity": 0.3779527559055118,
                    "duration": 0.09347550000001092
                },
                {
                    "name": "F3",
                    "midi": 53,
                    "time": 454.47788099999985,
                    "velocity": 0.3779527559055118,
                    "duration": 0.09347550000001092
                },
                {
                    "name": "G3",
                    "midi": 55,
                    "time": 454.57135649999987,
                    "velocity": 0.3858267716535433,
                    "duration": 0.09347550000001092
                },
                {
                    "name": "E3",
                    "midi": 52,
                    "time": 454.6648319999999,
                    "velocity": 0.4566929133858268,
                    "duration": 0.09347550000001092
                },
                {
                    "name": "G3",
                    "midi": 55,
                    "time": 454.7583074999999,
                    "velocity": 0.3937007874015748,
                    "duration": 0.09347550000001092
                },
                {
                    "name": "F3",
                    "midi": 53,
                    "time": 454.8517829999999,
                    "velocity": 0.4015748031496063,
                    "duration": 0.09347550000001092
                },
                {
                    "name": "G3",
                    "midi": 55,
                    "time": 454.9452584999999,
                    "velocity": 0.4094488188976378,
                    "duration": 0.09347550000001092
                },
                {
                    "name": "E3",
                    "midi": 52,
                    "time": 455.0387339999999,
                    "velocity": 0.47244094488188976,
                    "duration": 0.09347550000001092
                },
                {
                    "name": "G3",
                    "midi": 55,
                    "time": 455.13220949999993,
                    "velocity": 0.4094488188976378,
                    "duration": 0.09347550000001092
                },
                {
                    "name": "F3",
                    "midi": 53,
                    "time": 455.22568499999994,
                    "velocity": 0.4094488188976378,
                    "duration": 0.09347550000001092
                },
                {
                    "name": "G3",
                    "midi": 55,
                    "time": 455.31916049999995,
                    "velocity": 0.4251968503937008,
                    "duration": 0.09347550000001092
                },
                {
                    "name": "E3",
                    "midi": 52,
                    "time": 455.41263599999996,
                    "velocity": 0.4881889763779528,
                    "duration": 0.09347550000001092
                },
                {
                    "name": "G3",
                    "midi": 55,
                    "time": 455.5061115,
                    "velocity": 0.4330708661417323,
                    "duration": 0.09347550000001092
                },
                {
                    "name": "F3",
                    "midi": 53,
                    "time": 455.599587,
                    "velocity": 0.4330708661417323,
                    "duration": 0.09347550000001092
                },
                {
                    "name": "G3",
                    "midi": 55,
                    "time": 455.6930625,
                    "velocity": 0.44881889763779526,
                    "duration": 0.09347550000001092
                },
                {
                    "name": "E3",
                    "midi": 52,
                    "time": 455.786538,
                    "velocity": 0.5118110236220472,
                    "duration": 0.09347550000001092
                },
                {
                    "name": "G3",
                    "midi": 55,
                    "time": 455.8800135,
                    "velocity": 0.44881889763779526,
                    "duration": 0.09347550000001092
                },
                {
                    "name": "F3",
                    "midi": 53,
                    "time": 455.97348900000003,
                    "velocity": 0.44881889763779526,
                    "duration": 0.09347550000001092
                },
                {
                    "name": "G3",
                    "midi": 55,
                    "time": 456.06696450000004,
                    "velocity": 0.4566929133858268,
                    "duration": 0.09347550000001092
                },
                {
                    "name": "E3",
                    "midi": 52,
                    "time": 456.16044000000005,
                    "velocity": 0.5511811023622047,
                    "duration": 0.09347550000001092
                },
                {
                    "name": "G3",
                    "midi": 55,
                    "time": 456.25391550000006,
                    "velocity": 0.47244094488188976,
                    "duration": 0.09347550000001092
                },
                {
                    "name": "E2",
                    "midi": 40,
                    "time": 456.3473910000001,
                    "velocity": 0.47244094488188976,
                    "duration": 0.09347550000001092
                },
                {
                    "name": "C3",
                    "midi": 48,
                    "time": 456.4408665000001,
                    "velocity": 0.4881889763779528,
                    "duration": 0.09347550000001092
                },
                {
                    "name": "E2",
                    "midi": 40,
                    "time": 456.5343420000001,
                    "velocity": 0.5511811023622047,
                    "duration": 0.09347550000001092
                },
                {
                    "name": "C3",
                    "midi": 48,
                    "time": 456.6278175000001,
                    "velocity": 0.47244094488188976,
                    "duration": 0.09347550000001092
                },
                {
                    "name": "E2",
                    "midi": 40,
                    "time": 456.7212930000001,
                    "velocity": 0.47244094488188976,
                    "duration": 0.09347550000001092
                },
                {
                    "name": "C3",
                    "midi": 48,
                    "time": 456.8147685000001,
                    "velocity": 0.47244094488188976,
                    "duration": 0.09347550000001092
                },
                {
                    "name": "E2",
                    "midi": 40,
                    "time": 456.90824400000014,
                    "velocity": 0.5511811023622047,
                    "duration": 0.09347550000001092
                },
                {
                    "name": "C3",
                    "midi": 48,
                    "time": 457.00171950000015,
                    "velocity": 0.47244094488188976,
                    "duration": 0.09347550000001092
                },
                {
                    "name": "E2",
                    "midi": 40,
                    "time": 457.09519500000016,
                    "velocity": 0.47244094488188976,
                    "duration": 0.09347550000001092
                },
                {
                    "name": "C3",
                    "midi": 48,
                    "time": 457.18867050000017,
                    "velocity": 0.4881889763779528,
                    "duration": 0.09347550000001092
                },
                {
                    "name": "E2",
                    "midi": 40,
                    "time": 457.2821460000002,
                    "velocity": 0.5511811023622047,
                    "duration": 0.09347550000001092
                },
                {
                    "name": "C3",
                    "midi": 48,
                    "time": 457.3756215000002,
                    "velocity": 0.47244094488188976,
                    "duration": 0.09347550000001092
                },
                {
                    "name": "E2",
                    "midi": 40,
                    "time": 457.4690970000002,
                    "velocity": 0.47244094488188976,
                    "duration": 0.09347550000001092
                },
                {
                    "name": "C3",
                    "midi": 48,
                    "time": 457.5625725000002,
                    "velocity": 0.47244094488188976,
                    "duration": 0.09347550000001092
                },
                {
                    "name": "E2",
                    "midi": 40,
                    "time": 457.6560480000002,
                    "velocity": 0.5511811023622047,
                    "duration": 0.09347550000001092
                },
                {
                    "name": "C3",
                    "midi": 48,
                    "time": 457.74952350000024,
                    "velocity": 0.47244094488188976,
                    "duration": 0.09347550000001092
                },
                {
                    "name": "E2",
                    "midi": 40,
                    "time": 457.84299900000025,
                    "velocity": 0.47244094488188976,
                    "duration": 0.09347550000001092
                },
                {
                    "name": "C3",
                    "midi": 48,
                    "time": 457.93647450000026,
                    "velocity": 0.4881889763779528,
                    "duration": 0.09347550000001092
                },
                {
                    "name": "E2",
                    "midi": 40,
                    "time": 458.02995000000027,
                    "velocity": 0.5511811023622047,
                    "duration": 0.09347550000001092
                },
                {
                    "name": "C3",
                    "midi": 48,
                    "time": 458.1234255000003,
                    "velocity": 0.47244094488188976,
                    "duration": 0.09347550000001092
                },
                {
                    "name": "E2",
                    "midi": 40,
                    "time": 458.2169010000003,
                    "velocity": 0.47244094488188976,
                    "duration": 0.09347550000001092
                },
                {
                    "name": "C3",
                    "midi": 48,
                    "time": 458.3103765000003,
                    "velocity": 0.48031496062992124,
                    "duration": 0.09347550000001092
                },
                {
                    "name": "E2",
                    "midi": 40,
                    "time": 458.4038520000003,
                    "velocity": 0.5590551181102362,
                    "duration": 0.09347550000001092
                },
                {
                    "name": "C3",
                    "midi": 48,
                    "time": 458.4973275000003,
                    "velocity": 0.48031496062992124,
                    "duration": 0.09347550000001092
                },
                {
                    "name": "E2",
                    "midi": 40,
                    "time": 458.59080300000034,
                    "velocity": 0.48031496062992124,
                    "duration": 0.09347550000001092
                },
                {
                    "name": "C3",
                    "midi": 48,
                    "time": 458.68427850000035,
                    "velocity": 0.49606299212598426,
                    "duration": 0.09347550000001092
                },
                {
                    "name": "E2",
                    "midi": 40,
                    "time": 458.77775400000036,
                    "velocity": 0.5669291338582677,
                    "duration": 0.09347550000001092
                },
                {
                    "name": "C3",
                    "midi": 48,
                    "time": 458.87122950000037,
                    "velocity": 0.4881889763779528,
                    "duration": 0.09347550000001092
                },
                {
                    "name": "E2",
                    "midi": 40,
                    "time": 458.9647050000004,
                    "velocity": 0.4881889763779528,
                    "duration": 0.09347550000001092
                },
                {
                    "name": "C3",
                    "midi": 48,
                    "time": 459.0581805000004,
                    "velocity": 0.4881889763779528,
                    "duration": 0.09347550000001092
                },
                {
                    "name": "F2",
                    "midi": 41,
                    "time": 459.1516560000004,
                    "velocity": 0.5275590551181102,
                    "duration": 0.14021324999998797
                },
                {
                    "name": "A2",
                    "midi": 45,
                    "time": 459.1516560000004,
                    "velocity": 0.5275590551181102,
                    "duration": 0.14021324999998797
                },
                {
                    "name": "C3",
                    "midi": 48,
                    "time": 459.1516560000004,
                    "velocity": 0.6299212598425197,
                    "duration": 0.14021324999998797
                },
                {
                    "name": "F2",
                    "midi": 41,
                    "time": 459.33860700000037,
                    "velocity": 0.47244094488188976,
                    "duration": 0.14021324999998797
                },
                {
                    "name": "A2",
                    "midi": 45,
                    "time": 459.33860700000037,
                    "velocity": 0.47244094488188976,
                    "duration": 0.14021324999998797
                },
                {
                    "name": "C3",
                    "midi": 48,
                    "time": 459.33860700000037,
                    "velocity": 0.5748031496062992,
                    "duration": 0.14021324999998797
                },
                {
                    "name": "F2",
                    "midi": 41,
                    "time": 459.71250900000035,
                    "velocity": 0.47244094488188976,
                    "duration": 0.14021324999998797
                },
                {
                    "name": "A2",
                    "midi": 45,
                    "time": 459.71250900000035,
                    "velocity": 0.47244094488188976,
                    "duration": 0.14021324999998797
                },
                {
                    "name": "C3",
                    "midi": 48,
                    "time": 459.71250900000035,
                    "velocity": 0.5748031496062992,
                    "duration": 0.14021324999998797
                },
                {
                    "name": "F2",
                    "midi": 41,
                    "time": 459.8994600000003,
                    "velocity": 0.5275590551181102,
                    "duration": 0.14021324999998797
                },
                {
                    "name": "A2",
                    "midi": 45,
                    "time": 459.8994600000003,
                    "velocity": 0.5275590551181102,
                    "duration": 0.14021324999998797
                },
                {
                    "name": "C3",
                    "midi": 48,
                    "time": 459.8994600000003,
                    "velocity": 0.6299212598425197,
                    "duration": 0.14021324999998797
                },
                {
                    "name": "F2",
                    "midi": 41,
                    "time": 460.0864110000003,
                    "velocity": 0.47244094488188976,
                    "duration": 0.14021324999998797
                },
                {
                    "name": "A2",
                    "midi": 45,
                    "time": 460.0864110000003,
                    "velocity": 0.47244094488188976,
                    "duration": 0.14021324999998797
                },
                {
                    "name": "C3",
                    "midi": 48,
                    "time": 460.0864110000003,
                    "velocity": 0.5748031496062992,
                    "duration": 0.14021324999998797
                },
                {
                    "name": "F2",
                    "midi": 41,
                    "time": 460.46031300000027,
                    "velocity": 0.47244094488188976,
                    "duration": 0.14021324999998797
                },
                {
                    "name": "A2",
                    "midi": 45,
                    "time": 460.46031300000027,
                    "velocity": 0.47244094488188976,
                    "duration": 0.14021324999998797
                },
                {
                    "name": "C3",
                    "midi": 48,
                    "time": 460.46031300000027,
                    "velocity": 0.5748031496062992,
                    "duration": 0.14021324999998797
                },
                {
                    "name": "F2",
                    "midi": 41,
                    "time": 460.64726400000023,
                    "velocity": 0.5275590551181102,
                    "duration": 0.14021324999998797
                },
                {
                    "name": "A2",
                    "midi": 45,
                    "time": 460.64726400000023,
                    "velocity": 0.5275590551181102,
                    "duration": 0.14021324999998797
                },
                {
                    "name": "C3",
                    "midi": 48,
                    "time": 460.64726400000023,
                    "velocity": 0.6141732283464567,
                    "duration": 0.14021324999998797
                },
                {
                    "name": "F2",
                    "midi": 41,
                    "time": 460.8342150000002,
                    "velocity": 0.47244094488188976,
                    "duration": 0.14021324999998797
                },
                {
                    "name": "A2",
                    "midi": 45,
                    "time": 460.8342150000002,
                    "velocity": 0.47244094488188976,
                    "duration": 0.14021324999998797
                },
                {
                    "name": "C3",
                    "midi": 48,
                    "time": 460.8342150000002,
                    "velocity": 0.5748031496062992,
                    "duration": 0.14021324999998797
                },
                {
                    "name": "F2",
                    "midi": 41,
                    "time": 461.2081170000002,
                    "velocity": 0.47244094488188976,
                    "duration": 0.14021324999998797
                },
                {
                    "name": "A2",
                    "midi": 45,
                    "time": 461.2081170000002,
                    "velocity": 0.47244094488188976,
                    "duration": 0.14021324999998797
                },
                {
                    "name": "C3",
                    "midi": 48,
                    "time": 461.2081170000002,
                    "velocity": 0.5748031496062992,
                    "duration": 0.14021324999998797
                },
                {
                    "name": "F2",
                    "midi": 41,
                    "time": 461.39506800000015,
                    "velocity": 0.5275590551181102,
                    "duration": 0.14021324999998797
                },
                {
                    "name": "A2",
                    "midi": 45,
                    "time": 461.39506800000015,
                    "velocity": 0.5275590551181102,
                    "duration": 0.14021324999998797
                },
                {
                    "name": "C3",
                    "midi": 48,
                    "time": 461.39506800000015,
                    "velocity": 0.6141732283464567,
                    "duration": 0.14021324999998797
                },
                {
                    "name": "F2",
                    "midi": 41,
                    "time": 461.5820190000001,
                    "velocity": 0.47244094488188976,
                    "duration": 0.14021324999998797
                },
                {
                    "name": "A2",
                    "midi": 45,
                    "time": 461.5820190000001,
                    "velocity": 0.47244094488188976,
                    "duration": 0.14021324999998797
                },
                {
                    "name": "C3",
                    "midi": 48,
                    "time": 461.5820190000001,
                    "velocity": 0.5748031496062992,
                    "duration": 0.14021324999998797
                },
                {
                    "name": "F2",
                    "midi": 41,
                    "time": 461.9559210000001,
                    "velocity": 0.47244094488188976,
                    "duration": 0.14021324999998797
                },
                {
                    "name": "A2",
                    "midi": 45,
                    "time": 461.9559210000001,
                    "velocity": 0.47244094488188976,
                    "duration": 0.14021324999998797
                },
                {
                    "name": "C3",
                    "midi": 48,
                    "time": 461.9559210000001,
                    "velocity": 0.5748031496062992,
                    "duration": 0.14021324999998797
                },
                {
                    "name": "C3",
                    "midi": 48,
                    "time": 462.14287200000007,
                    "velocity": 0.5275590551181102,
                    "duration": 0.14021324999998797
                },
                {
                    "name": "F#2",
                    "midi": 42,
                    "time": 462.14287200000007,
                    "velocity": 0.5275590551181102,
                    "duration": 0.14021324999998797
                },
                {
                    "name": "A2",
                    "midi": 45,
                    "time": 462.14287200000007,
                    "velocity": 0.5275590551181102,
                    "duration": 0.14021324999998797
                },
                {
                    "name": "D3",
                    "midi": 50,
                    "time": 462.14287200000007,
                    "velocity": 0.6141732283464567,
                    "duration": 0.14021324999998797
                },
                {
                    "name": "C3",
                    "midi": 48,
                    "time": 462.32982300000003,
                    "velocity": 0.47244094488188976,
                    "duration": 0.14021324999998797
                },
                {
                    "name": "F#2",
                    "midi": 42,
                    "time": 462.32982300000003,
                    "velocity": 0.47244094488188976,
                    "duration": 0.14021324999998797
                },
                {
                    "name": "A2",
                    "midi": 45,
                    "time": 462.32982300000003,
                    "velocity": 0.47244094488188976,
                    "duration": 0.14021324999998797
                },
                {
                    "name": "D3",
                    "midi": 50,
                    "time": 462.32982300000003,
                    "velocity": 0.5748031496062992,
                    "duration": 0.14021324999998797
                },
                {
                    "name": "C3",
                    "midi": 48,
                    "time": 462.703725,
                    "velocity": 0.47244094488188976,
                    "duration": 0.14021324999998797
                },
                {
                    "name": "F#2",
                    "midi": 42,
                    "time": 462.703725,
                    "velocity": 0.47244094488188976,
                    "duration": 0.14021324999998797
                },
                {
                    "name": "A2",
                    "midi": 45,
                    "time": 462.703725,
                    "velocity": 0.47244094488188976,
                    "duration": 0.14021324999998797
                },
                {
                    "name": "D3",
                    "midi": 50,
                    "time": 462.703725,
                    "velocity": 0.5748031496062992,
                    "duration": 0.14021324999998797
                },
                {
                    "name": "C3",
                    "midi": 48,
                    "time": 462.890676,
                    "velocity": 0.5275590551181102,
                    "duration": 0.14021324999998797
                },
                {
                    "name": "F#2",
                    "midi": 42,
                    "time": 462.890676,
                    "velocity": 0.5275590551181102,
                    "duration": 0.14021324999998797
                },
                {
                    "name": "A2",
                    "midi": 45,
                    "time": 462.890676,
                    "velocity": 0.5275590551181102,
                    "duration": 0.14021324999998797
                },
                {
                    "name": "D3",
                    "midi": 50,
                    "time": 462.890676,
                    "velocity": 0.6141732283464567,
                    "duration": 0.14021324999998797
                },
                {
                    "name": "C3",
                    "midi": 48,
                    "time": 463.07762699999995,
                    "velocity": 0.47244094488188976,
                    "duration": 0.14021324999998797
                },
                {
                    "name": "F#2",
                    "midi": 42,
                    "time": 463.07762699999995,
                    "velocity": 0.47244094488188976,
                    "duration": 0.14021324999998797
                },
                {
                    "name": "A2",
                    "midi": 45,
                    "time": 463.07762699999995,
                    "velocity": 0.47244094488188976,
                    "duration": 0.14021324999998797
                },
                {
                    "name": "D3",
                    "midi": 50,
                    "time": 463.07762699999995,
                    "velocity": 0.5748031496062992,
                    "duration": 0.14021324999998797
                },
                {
                    "name": "C3",
                    "midi": 48,
                    "time": 463.45152899999994,
                    "velocity": 0.47244094488188976,
                    "duration": 0.14021324999998797
                },
                {
                    "name": "F#2",
                    "midi": 42,
                    "time": 463.45152899999994,
                    "velocity": 0.47244094488188976,
                    "duration": 0.14021324999998797
                },
                {
                    "name": "A2",
                    "midi": 45,
                    "time": 463.45152899999994,
                    "velocity": 0.47244094488188976,
                    "duration": 0.14021324999998797
                },
                {
                    "name": "D3",
                    "midi": 50,
                    "time": 463.45152899999994,
                    "velocity": 0.5748031496062992,
                    "duration": 0.14021324999998797
                },
                {
                    "name": "C3",
                    "midi": 48,
                    "time": 463.6384799999999,
                    "velocity": 0.5275590551181102,
                    "duration": 0.14021324999998797
                },
                {
                    "name": "F#2",
                    "midi": 42,
                    "time": 463.6384799999999,
                    "velocity": 0.5275590551181102,
                    "duration": 0.14021324999998797
                },
                {
                    "name": "A2",
                    "midi": 45,
                    "time": 463.6384799999999,
                    "velocity": 0.5275590551181102,
                    "duration": 0.14021324999998797
                },
                {
                    "name": "D3",
                    "midi": 50,
                    "time": 463.6384799999999,
                    "velocity": 0.6141732283464567,
                    "duration": 0.14021324999998797
                },
                {
                    "name": "C3",
                    "midi": 48,
                    "time": 463.82543099999987,
                    "velocity": 0.47244094488188976,
                    "duration": 0.14021324999998797
                },
                {
                    "name": "F#2",
                    "midi": 42,
                    "time": 463.82543099999987,
                    "velocity": 0.47244094488188976,
                    "duration": 0.14021324999998797
                },
                {
                    "name": "A2",
                    "midi": 45,
                    "time": 463.82543099999987,
                    "velocity": 0.47244094488188976,
                    "duration": 0.14021324999998797
                },
                {
                    "name": "D3",
                    "midi": 50,
                    "time": 463.82543099999987,
                    "velocity": 0.5748031496062992,
                    "duration": 0.14021324999998797
                },
                {
                    "name": "C3",
                    "midi": 48,
                    "time": 464.19933299999985,
                    "velocity": 0.47244094488188976,
                    "duration": 0.14021324999998797
                },
                {
                    "name": "F#2",
                    "midi": 42,
                    "time": 464.19933299999985,
                    "velocity": 0.47244094488188976,
                    "duration": 0.14021324999998797
                },
                {
                    "name": "A2",
                    "midi": 45,
                    "time": 464.19933299999985,
                    "velocity": 0.47244094488188976,
                    "duration": 0.14021324999998797
                },
                {
                    "name": "D3",
                    "midi": 50,
                    "time": 464.19933299999985,
                    "velocity": 0.5748031496062992,
                    "duration": 0.14021324999998797
                },
                {
                    "name": "C3",
                    "midi": 48,
                    "time": 464.3862839999998,
                    "velocity": 0.5275590551181102,
                    "duration": 0.14021324999998797
                },
                {
                    "name": "F#2",
                    "midi": 42,
                    "time": 464.3862839999998,
                    "velocity": 0.5275590551181102,
                    "duration": 0.14021324999998797
                },
                {
                    "name": "A2",
                    "midi": 45,
                    "time": 464.3862839999998,
                    "velocity": 0.5275590551181102,
                    "duration": 0.14021324999998797
                },
                {
                    "name": "D3",
                    "midi": 50,
                    "time": 464.3862839999998,
                    "velocity": 0.6141732283464567,
                    "duration": 0.14021324999998797
                },
                {
                    "name": "C3",
                    "midi": 48,
                    "time": 464.5732349999998,
                    "velocity": 0.47244094488188976,
                    "duration": 0.14021324999998797
                },
                {
                    "name": "F#2",
                    "midi": 42,
                    "time": 464.5732349999998,
                    "velocity": 0.47244094488188976,
                    "duration": 0.14021324999998797
                },
                {
                    "name": "A2",
                    "midi": 45,
                    "time": 464.5732349999998,
                    "velocity": 0.47244094488188976,
                    "duration": 0.14021324999998797
                },
                {
                    "name": "D3",
                    "midi": 50,
                    "time": 464.5732349999998,
                    "velocity": 0.5748031496062992,
                    "duration": 0.14021324999998797
                },
                {
                    "name": "C3",
                    "midi": 48,
                    "time": 464.94713699999977,
                    "velocity": 0.47244094488188976,
                    "duration": 0.14021324999998797
                },
                {
                    "name": "F#2",
                    "midi": 42,
                    "time": 464.94713699999977,
                    "velocity": 0.47244094488188976,
                    "duration": 0.14021324999998797
                },
                {
                    "name": "A2",
                    "midi": 45,
                    "time": 464.94713699999977,
                    "velocity": 0.47244094488188976,
                    "duration": 0.14021324999998797
                },
                {
                    "name": "D3",
                    "midi": 50,
                    "time": 464.94713699999977,
                    "velocity": 0.5748031496062992,
                    "duration": 0.14021324999998797
                },
                {
                    "name": "G2",
                    "midi": 43,
                    "time": 465.13408799999974,
                    "velocity": 0.6141732283464567,
                    "duration": 0.09347550000001092
                },
                {
                    "name": "C3",
                    "midi": 48,
                    "time": 465.22756349999975,
                    "velocity": 0.5511811023622047,
                    "duration": 0.09347550000001092
                },
                {
                    "name": "E3",
                    "midi": 52,
                    "time": 465.32103899999976,
                    "velocity": 0.5511811023622047,
                    "duration": 0.09347550000001092
                },
                {
                    "name": "G3",
                    "midi": 55,
                    "time": 465.41451449999977,
                    "velocity": 0.5511811023622047,
                    "duration": 0.09347550000001092
                },
                {
                    "name": "G2",
                    "midi": 43,
                    "time": 465.5079899999998,
                    "velocity": 0.6062992125984252,
                    "duration": 0.09347550000001092
                },
                {
                    "name": "C3",
                    "midi": 48,
                    "time": 465.6014654999998,
                    "velocity": 0.5511811023622047,
                    "duration": 0.09347550000001092
                },
                {
                    "name": "E3",
                    "midi": 52,
                    "time": 465.6949409999998,
                    "velocity": 0.5511811023622047,
                    "duration": 0.09347550000001092
                },
                {
                    "name": "G3",
                    "midi": 55,
                    "time": 465.7884164999998,
                    "velocity": 0.5511811023622047,
                    "duration": 0.09347550000001092
                },
                {
                    "name": "G2",
                    "midi": 43,
                    "time": 465.8818919999998,
                    "velocity": 0.5905511811023622,
                    "duration": 0.09347550000001092
                },
                {
                    "name": "C3",
                    "midi": 48,
                    "time": 465.97536749999983,
                    "velocity": 0.5511811023622047,
                    "duration": 0.09347550000001092
                },
                {
                    "name": "E3",
                    "midi": 52,
                    "time": 466.06884299999984,
                    "velocity": 0.5511811023622047,
                    "duration": 0.09347550000001092
                },
                {
                    "name": "G3",
                    "midi": 55,
                    "time": 466.16231849999986,
                    "velocity": 0.5511811023622047,
                    "duration": 0.09347550000001092
                },
                {
                    "name": "G2",
                    "midi": 43,
                    "time": 466.25579399999987,
                    "velocity": 0.5905511811023622,
                    "duration": 0.09347550000001092
                },
                {
                    "name": "C3",
                    "midi": 48,
                    "time": 466.3492694999999,
                    "velocity": 0.5511811023622047,
                    "duration": 0.09347550000001092
                },
                {
                    "name": "E3",
                    "midi": 52,
                    "time": 466.4427449999999,
                    "velocity": 0.5511811023622047,
                    "duration": 0.09347550000001092
                },
                {
                    "name": "G3",
                    "midi": 55,
                    "time": 466.5362204999999,
                    "velocity": 0.5511811023622047,
                    "duration": 0.09347550000001092
                },
                {
                    "name": "G2",
                    "midi": 43,
                    "time": 466.6296959999999,
                    "velocity": 0.6141732283464567,
                    "duration": 0.09347550000001092
                },
                {
                    "name": "C3",
                    "midi": 48,
                    "time": 466.7231714999999,
                    "velocity": 0.5511811023622047,
                    "duration": 0.09347550000001092
                },
                {
                    "name": "E3",
                    "midi": 52,
                    "time": 466.81664699999993,
                    "velocity": 0.5511811023622047,
                    "duration": 0.09347550000001092
                },
                {
                    "name": "G3",
                    "midi": 55,
                    "time": 466.91012249999994,
                    "velocity": 0.5511811023622047,
                    "duration": 0.09347550000001092
                },
                {
                    "name": "G2",
                    "midi": 43,
                    "time": 467.00359799999995,
                    "velocity": 0.6062992125984252,
                    "duration": 0.09347550000001092
                },
                {
                    "name": "C3",
                    "midi": 48,
                    "time": 467.09707349999996,
                    "velocity": 0.5511811023622047,
                    "duration": 0.09347550000001092
                },
                {
                    "name": "E3",
                    "midi": 52,
                    "time": 467.190549,
                    "velocity": 0.5511811023622047,
                    "duration": 0.09347550000001092
                },
                {
                    "name": "G3",
                    "midi": 55,
                    "time": 467.2840245,
                    "velocity": 0.5511811023622047,
                    "duration": 0.09347550000001092
                },
                {
                    "name": "E3",
                    "midi": 52,
                    "time": 467.3775,
                    "velocity": 0.5905511811023622,
                    "duration": 0.09347550000001092
                },
                {
                    "name": "E3",
                    "midi": 52,
                    "time": 467.564451,
                    "velocity": 0.5511811023622047,
                    "duration": 0.09347550000001092
                },
                {
                    "name": "C3",
                    "midi": 48,
                    "time": 467.75140200000004,
                    "velocity": 0.5905511811023622,
                    "duration": 0.09347550000001092
                },
                {
                    "name": "G2",
                    "midi": 43,
                    "time": 467.93835300000006,
                    "velocity": 0.5511811023622047,
                    "duration": 0.09347550000001092
                },
                {
                    "name": "G3",
                    "midi": 55,
                    "time": 468.1253040000001,
                    "velocity": 0.6771653543307087,
                    "duration": 0.09347550000001092
                },
                {
                    "name": "E3",
                    "midi": 52,
                    "time": 468.3122550000001,
                    "velocity": 0.3700787401574803,
                    "duration": 0.09347550000001092
                },
                {
                    "name": "C4",
                    "midi": 60,
                    "time": 468.49920600000013,
                    "velocity": 0.41732283464566927,
                    "duration": 0.09347550000001092
                },
                {
                    "name": "G3",
                    "midi": 55,
                    "time": 468.68615700000015,
                    "velocity": 0.3779527559055118,
                    "duration": 0.09347550000001092
                },
                {
                    "name": "E4",
                    "midi": 64,
                    "time": 468.8731080000002,
                    "velocity": 0.4094488188976378,
                    "duration": 0.09347550000001092
                },
                {
                    "name": "C4",
                    "midi": 60,
                    "time": 469.0600590000002,
                    "velocity": 0.3228346456692913,
                    "duration": 0.09347550000001092
                },
                {
                    "name": "G4",
                    "midi": 67,
                    "time": 469.2470100000002,
                    "velocity": 0.3937007874015748,
                    "duration": 0.09347550000001092
                },
                {
                    "name": "E4",
                    "midi": 64,
                    "time": 469.43396100000024,
                    "velocity": 0.3228346456692913,
                    "duration": 0.09347550000001092
                },
                {
                    "name": "C5",
                    "midi": 72,
                    "time": 469.62091200000026,
                    "velocity": 0.3937007874015748,
                    "duration": 0.09347550000001092
                },
                {
                    "name": "G4",
                    "midi": 67,
                    "time": 469.8078630000003,
                    "velocity": 0.3228346456692913,
                    "duration": 0.09347550000001092
                },
                {
                    "name": "E5",
                    "midi": 76,
                    "time": 469.9948140000003,
                    "velocity": 0.3937007874015748,
                    "duration": 0.09347550000001092
                },
                {
                    "name": "C5",
                    "midi": 72,
                    "time": 470.1817650000003,
                    "velocity": 0.30708661417322836,
                    "duration": 0.09347550000001092
                },
                {
                    "name": "G5",
                    "midi": 79,
                    "time": 470.36871600000035,
                    "velocity": 0.3937007874015748,
                    "duration": 0.09347550000001092
                },
                {
                    "name": "E5",
                    "midi": 76,
                    "time": 470.55566700000037,
                    "velocity": 0.3228346456692913,
                    "duration": 0.09347550000001092
                },
                {
                    "name": "C6",
                    "midi": 84,
                    "time": 470.7426180000004,
                    "velocity": 0.3937007874015748,
                    "duration": 0.09347550000001092
                },
                {
                    "name": "G5",
                    "midi": 79,
                    "time": 470.9295690000004,
                    "velocity": 0.33070866141732286,
                    "duration": 0.09347550000001092
                },
                {
                    "name": "B5",
                    "midi": 83,
                    "time": 471.11652000000043,
                    "velocity": 0.36220472440944884,
                    "duration": 0.09347550000001092
                },
                {
                    "name": "G5",
                    "midi": 79,
                    "time": 471.30347100000046,
                    "velocity": 0.29133858267716534,
                    "duration": 0.09347550000001092
                },
                {
                    "name": "B5",
                    "midi": 83,
                    "time": 471.4904220000005,
                    "velocity": 0.33858267716535434,
                    "duration": 0.09347550000001092
                },
                {
                    "name": "G5",
                    "midi": 79,
                    "time": 471.6773730000005,
                    "velocity": 0.28346456692913385,
                    "duration": 0.09347550000001092
                },
                {
                    "name": "B5",
                    "midi": 83,
                    "time": 471.8643240000005,
                    "velocity": 0.3228346456692913,
                    "duration": 0.09347550000001092
                },
                {
                    "name": "G5",
                    "midi": 79,
                    "time": 472.05127500000054,
                    "velocity": 0.25196850393700787,
                    "duration": 0.09347550000001092
                },
                {
                    "name": "B5",
                    "midi": 83,
                    "time": 472.23822600000057,
                    "velocity": 0.30708661417322836,
                    "duration": 0.09347550000001092
                },
                {
                    "name": "G5",
                    "midi": 79,
                    "time": 472.4251770000006,
                    "velocity": 0.2440944881889764,
                    "duration": 0.09347550000001092
                },
                {
                    "name": "B5",
                    "midi": 83,
                    "time": 472.6121280000006,
                    "velocity": 0.28346456692913385,
                    "duration": 0.09347550000001092
                },
                {
                    "name": "G5",
                    "midi": 79,
                    "time": 472.79907900000063,
                    "velocity": 0.23622047244094488,
                    "duration": 0.09347550000001092
                },
                {
                    "name": "B5",
                    "midi": 83,
                    "time": 472.98603000000065,
                    "velocity": 0.28346456692913385,
                    "duration": 0.09347550000001092
                },
                {
                    "name": "G5",
                    "midi": 79,
                    "time": 473.1729810000007,
                    "velocity": 0.2440944881889764,
                    "duration": 0.09347550000001092
                },
                {
                    "name": "B5",
                    "midi": 83,
                    "time": 473.3599320000007,
                    "velocity": 0.28346456692913385,
                    "duration": 0.09347550000001092
                },
                {
                    "name": "G5",
                    "midi": 79,
                    "time": 473.5468830000007,
                    "velocity": 0.2283464566929134,
                    "duration": 0.09347550000001092
                },
                {
                    "name": "B5",
                    "midi": 83,
                    "time": 473.73383400000074,
                    "velocity": 0.28346456692913385,
                    "duration": 0.09347550000001092
                },
                {
                    "name": "G5",
                    "midi": 79,
                    "time": 473.92078500000076,
                    "velocity": 0.23622047244094488,
                    "duration": 0.09347550000001092
                },
                {
                    "name": "B5",
                    "midi": 83,
                    "time": 474.1077360000008,
                    "velocity": 0.29133858267716534,
                    "duration": 0.06231700000000728
                },
                {
                    "name": "C6",
                    "midi": 84,
                    "time": 474.1700530000008,
                    "velocity": 0.25196850393700787,
                    "duration": 0.06231700000000728
                },
                {
                    "name": "B5",
                    "midi": 83,
                    "time": 474.2323700000008,
                    "velocity": 0.28346456692913385,
                    "duration": 0.06231700000000728
                },
                {
                    "name": "C6",
                    "midi": 84,
                    "time": 474.2946870000008,
                    "velocity": 0.2440944881889764,
                    "duration": 0.06231700000000728
                },
                {
                    "name": "B5",
                    "midi": 83,
                    "time": 474.3570040000008,
                    "velocity": 0.28346456692913385,
                    "duration": 0.06231700000000728
                },
                {
                    "name": "C6",
                    "midi": 84,
                    "time": 474.4193210000008,
                    "velocity": 0.25984251968503935,
                    "duration": 0.06231700000000728
                },
                {
                    "name": "B5",
                    "midi": 83,
                    "time": 474.4816380000008,
                    "velocity": 0.29133858267716534,
                    "duration": 0.06231700000000728
                },
                {
                    "name": "C6",
                    "midi": 84,
                    "time": 474.54395500000084,
                    "velocity": 0.25984251968503935,
                    "duration": 0.06231700000000728
                },
                {
                    "name": "B5",
                    "midi": 83,
                    "time": 474.60627200000084,
                    "velocity": 0.29133858267716534,
                    "duration": 0.06231700000000728
                },
                {
                    "name": "C6",
                    "midi": 84,
                    "time": 474.66858900000085,
                    "velocity": 0.25984251968503935,
                    "duration": 0.06231700000000728
                },
                {
                    "name": "B5",
                    "midi": 83,
                    "time": 474.73090600000086,
                    "velocity": 0.2992125984251969,
                    "duration": 0.06231700000000728
                },
                {
                    "name": "C6",
                    "midi": 84,
                    "time": 474.79322300000086,
                    "velocity": 0.2677165354330709,
                    "duration": 0.06231700000000728
                },
                {
                    "name": "B5",
                    "midi": 83,
                    "time": 474.8555400000009,
                    "velocity": 0.2992125984251969,
                    "duration": 0.06231700000000728
                },
                {
                    "name": "C6",
                    "midi": 84,
                    "time": 474.9178570000009,
                    "velocity": 0.2755905511811024,
                    "duration": 0.06231700000000728
                },
                {
                    "name": "B5",
                    "midi": 83,
                    "time": 474.9801740000009,
                    "velocity": 0.30708661417322836,
                    "duration": 0.06231700000000728
                },
                {
                    "name": "C6",
                    "midi": 84,
                    "time": 475.0424910000009,
                    "velocity": 0.2755905511811024,
                    "duration": 0.06231700000000728
                },
                {
                    "name": "B5",
                    "midi": 83,
                    "time": 475.1048080000009,
                    "velocity": 0.30708661417322836,
                    "duration": 0.06231700000000728
                },
                {
                    "name": "C6",
                    "midi": 84,
                    "time": 475.1671250000009,
                    "velocity": 0.28346456692913385,
                    "duration": 0.06231700000000728
                },
                {
                    "name": "B5",
                    "midi": 83,
                    "time": 475.2294420000009,
                    "velocity": 0.31496062992125984,
                    "duration": 0.06231700000000728
                },
                {
                    "name": "C6",
                    "midi": 84,
                    "time": 475.2917590000009,
                    "velocity": 0.28346456692913385,
                    "duration": 0.06231700000000728
                },
                {
                    "name": "B5",
                    "midi": 83,
                    "time": 475.35407600000093,
                    "velocity": 0.31496062992125984,
                    "duration": 0.06231700000000728
                },
                {
                    "name": "C6",
                    "midi": 84,
                    "time": 475.41639300000094,
                    "velocity": 0.28346456692913385,
                    "duration": 0.06231700000000728
                },
                {
                    "name": "B5",
                    "midi": 83,
                    "time": 475.47871000000094,
                    "velocity": 0.3228346456692913,
                    "duration": 0.06231700000000728
                },
                {
                    "name": "C6",
                    "midi": 84,
                    "time": 475.54102700000095,
                    "velocity": 0.29133858267716534,
                    "duration": 0.06231700000000728
                },
                {
                    "name": "B5",
                    "midi": 83,
                    "time": 475.60334400000096,
                    "velocity": 0.3228346456692913,
                    "duration": 0.06231700000000728
                },
                {
                    "name": "C6",
                    "midi": 84,
                    "time": 475.66566100000097,
                    "velocity": 0.28346456692913385,
                    "duration": 0.06231700000000728
                },
                {
                    "name": "B5",
                    "midi": 83,
                    "time": 475.727978000001,
                    "velocity": 0.33070866141732286,
                    "duration": 0.06231700000000728
                },
                {
                    "name": "C6",
                    "midi": 84,
                    "time": 475.790295000001,
                    "velocity": 0.29133858267716534,
                    "duration": 0.06231700000000728
                },
                {
                    "name": "B5",
                    "midi": 83,
                    "time": 475.852612000001,
                    "velocity": 0.33070866141732286,
                    "duration": 0.06231700000000728
                },
                {
                    "name": "C6",
                    "midi": 84,
                    "time": 475.914929000001,
                    "velocity": 0.29133858267716534,
                    "duration": 0.06231700000000728
                },
                {
                    "name": "B5",
                    "midi": 83,
                    "time": 475.977246000001,
                    "velocity": 0.33858267716535434,
                    "duration": 0.06231700000000728
                },
                {
                    "name": "C6",
                    "midi": 84,
                    "time": 476.039563000001,
                    "velocity": 0.2992125984251969,
                    "duration": 0.06231700000000728
                },
                {
                    "name": "B5",
                    "midi": 83,
                    "time": 476.101880000001,
                    "velocity": 0.33858267716535434,
                    "duration": 0.06231700000000728
                },
                {
                    "name": "C6",
                    "midi": 84,
                    "time": 476.164197000001,
                    "velocity": 0.30708661417322836,
                    "duration": 0.06231700000000728
                },
                {
                    "name": "B5",
                    "midi": 83,
                    "time": 476.22651400000103,
                    "velocity": 0.3464566929133858,
                    "duration": 0.06231700000000728
                },
                {
                    "name": "C6",
                    "midi": 84,
                    "time": 476.28883100000104,
                    "velocity": 0.30708661417322836,
                    "duration": 0.06231700000000728
                },
                {
                    "name": "B5",
                    "midi": 83,
                    "time": 476.35114800000105,
                    "velocity": 0.3464566929133858,
                    "duration": 0.06231700000000728
                },
                {
                    "name": "C6",
                    "midi": 84,
                    "time": 476.41346500000105,
                    "velocity": 0.2992125984251969,
                    "duration": 0.06231700000000728
                },
                {
                    "name": "B5",
                    "midi": 83,
                    "time": 476.47578200000106,
                    "velocity": 0.3543307086614173,
                    "duration": 0.06231700000000728
                },
                {
                    "name": "C6",
                    "midi": 84,
                    "time": 476.53809900000107,
                    "velocity": 0.2992125984251969,
                    "duration": 0.06231700000000728
                },
                {
                    "name": "B5",
                    "midi": 83,
                    "time": 476.6004160000011,
                    "velocity": 0.3543307086614173,
                    "duration": 0.06231700000000728
                },
                {
                    "name": "C6",
                    "midi": 84,
                    "time": 476.6627330000011,
                    "velocity": 0.31496062992125984,
                    "duration": 0.06231700000000728
                },
                {
                    "name": "B5",
                    "midi": 83,
                    "time": 476.7250500000011,
                    "velocity": 0.3937007874015748,
                    "duration": 0.07478040000000874
                },
                {
                    "name": "C6",
                    "midi": 84,
                    "time": 476.7998304000011,
                    "velocity": 0.3464566929133858,
                    "duration": 0.07478040000000874
                },
                {
                    "name": "B5",
                    "midi": 83,
                    "time": 476.8746108000011,
                    "velocity": 0.3937007874015748,
                    "duration": 0.07478040000000874
                },
                {
                    "name": "A5",
                    "midi": 81,
                    "time": 476.9493912000011,
                    "velocity": 0.4094488188976378,
                    "duration": 0.07478040000000874
                },
                {
                    "name": "B5",
                    "midi": 83,
                    "time": 477.0241716000011,
                    "velocity": 0.3700787401574803,
                    "duration": 0.07478040000000874
                },
                {
                    "name": "C4",
                    "midi": 60,
                    "time": 477.09895200000113,
                    "velocity": 0.4094488188976378,
                    "duration": 2.991215999999895
                },
                {
                    "name": "C5",
                    "midi": 72,
                    "time": 477.09895200000113,
                    "velocity": 0.4881889763779528,
                    "duration": 0.7478039999999737
                },
                {
                    "name": "E4",
                    "midi": 64,
                    "time": 477.8467560000011,
                    "velocity": 0.2992125984251969,
                    "duration": 0.7478039999999737
                },
                {
                    "name": "G4",
                    "midi": 67,
                    "time": 477.8467560000011,
                    "velocity": 0.2992125984251969,
                    "duration": 0.7478039999999737
                },
                {
                    "name": "A#4",
                    "midi": 70,
                    "time": 477.8467560000011,
                    "velocity": 0.3543307086614173,
                    "duration": 0.7478039999999737
                },
                {
                    "name": "F4",
                    "midi": 65,
                    "time": 478.5945600000011,
                    "velocity": 0.30708661417322836,
                    "duration": 0.7478039999999737
                },
                {
                    "name": "G#4",
                    "midi": 68,
                    "time": 478.5945600000011,
                    "velocity": 0.3700787401574803,
                    "duration": 0.7478039999999737
                },
                {
                    "name": "E4",
                    "midi": 64,
                    "time": 479.34236400000106,
                    "velocity": 0.30708661417322836,
                    "duration": 0.7478039999999737
                },
                {
                    "name": "G4",
                    "midi": 67,
                    "time": 479.34236400000106,
                    "velocity": 0.30708661417322836,
                    "duration": 0.7478039999999737
                },
                {
                    "name": "A#4",
                    "midi": 70,
                    "time": 479.34236400000106,
                    "velocity": 0.36220472440944884,
                    "duration": 0.7478039999999737
                },
                {
                    "name": "G#4",
                    "midi": 68,
                    "time": 480.09016800000103,
                    "velocity": 0.3779527559055118,
                    "duration": 0.37390199999998686
                },
                {
                    "name": "F4",
                    "midi": 65,
                    "time": 480.09016800000103,
                    "velocity": 0.31496062992125984,
                    "duration": 0.37390199999998686
                },
                {
                    "name": "F4",
                    "midi": 65,
                    "time": 480.837972000001,
                    "velocity": 0.3700787401574803,
                    "duration": 0.7478039999999737
                },
                {
                    "name": "C#4",
                    "midi": 61,
                    "time": 480.837972000001,
                    "velocity": 0.30708661417322836,
                    "duration": 0.7478039999999737
                },
                {
                    "name": "G#3",
                    "midi": 56,
                    "time": 480.837972000001,
                    "velocity": 0.30708661417322836,
                    "duration": 0.7478039999999737
                },
                {
                    "name": "F3",
                    "midi": 53,
                    "time": 480.837972000001,
                    "velocity": 0.30708661417322836,
                    "duration": 0.7478039999999737
                },
                {
                    "name": "C4",
                    "midi": 60,
                    "time": 481.585776000001,
                    "velocity": 0.30708661417322836,
                    "duration": 0.7478039999999737
                },
                {
                    "name": "G3",
                    "midi": 55,
                    "time": 481.585776000001,
                    "velocity": 0.30708661417322836,
                    "duration": 0.7478039999999737
                },
                {
                    "name": "D#4",
                    "midi": 63,
                    "time": 481.585776000001,
                    "velocity": 0.36220472440944884,
                    "duration": 0.7478039999999737
                },
                {
                    "name": "G3",
                    "midi": 55,
                    "time": 482.33358000000095,
                    "velocity": 0.29133858267716534,
                    "duration": 0.7478039999999737
                },
                {
                    "name": "B3",
                    "midi": 59,
                    "time": 482.33358000000095,
                    "velocity": 0.29133858267716534,
                    "duration": 0.7478039999999737
                },
                {
                    "name": "D4",
                    "midi": 62,
                    "time": 482.33358000000095,
                    "velocity": 0.3464566929133858,
                    "duration": 0.7478039999999737
                },
                {
                    "name": "C4",
                    "midi": 60,
                    "time": 483.0813840000009,
                    "velocity": 0.4409448818897638,
                    "duration": 0.7478039999999737
                },
                {
                    "name": "C3",
                    "midi": 48,
                    "time": 483.0813840000009,
                    "velocity": 0.3543307086614173,
                    "duration": 2.991215999999895
                },
                {
                    "name": "E3",
                    "midi": 52,
                    "time": 483.8291880000009,
                    "velocity": 0.2992125984251969,
                    "duration": 0.7478039999999737
                },
                {
                    "name": "G3",
                    "midi": 55,
                    "time": 483.8291880000009,
                    "velocity": 0.2992125984251969,
                    "duration": 0.7478039999999737
                },
                {
                    "name": "A#3",
                    "midi": 58,
                    "time": 483.8291880000009,
                    "velocity": 0.3543307086614173,
                    "duration": 0.7478039999999737
                },
                {
                    "name": "F3",
                    "midi": 53,
                    "time": 484.57699200000087,
                    "velocity": 0.30708661417322836,
                    "duration": 0.7478039999999737
                },
                {
                    "name": "A3",
                    "midi": 57,
                    "time": 484.57699200000087,
                    "velocity": 0.3700787401574803,
                    "duration": 0.7478039999999737
                },
                {
                    "name": "G3",
                    "midi": 55,
                    "time": 485.32479600000084,
                    "velocity": 0.30708661417322836,
                    "duration": 0.7478039999999737
                },
                {
                    "name": "A#3",
                    "midi": 58,
                    "time": 485.32479600000084,
                    "velocity": 0.36220472440944884,
                    "duration": 0.7478039999999737
                },
                {
                    "name": "E3",
                    "midi": 52,
                    "time": 485.32479600000084,
                    "velocity": 0.30708661417322836,
                    "duration": 0.7478039999999737
                },
                {
                    "name": "F3",
                    "midi": 53,
                    "time": 486.0726000000008,
                    "velocity": 0.3779527559055118,
                    "duration": 0.37390199999998686
                },
                {
                    "name": "A3",
                    "midi": 57,
                    "time": 486.0726000000008,
                    "velocity": 0.3779527559055118,
                    "duration": 0.37390199999998686
                },
                {
                    "name": "F2",
                    "midi": 41,
                    "time": 486.8204040000008,
                    "velocity": 0.30708661417322836,
                    "duration": 0.7478039999999737
                },
                {
                    "name": "D3",
                    "midi": 50,
                    "time": 486.8204040000008,
                    "velocity": 0.3700787401574803,
                    "duration": 0.7478039999999737
                },
                {
                    "name": "A2",
                    "midi": 45,
                    "time": 486.8204040000008,
                    "velocity": 0.30708661417322836,
                    "duration": 0.7478039999999737
                },
                {
                    "name": "C3",
                    "midi": 48,
                    "time": 487.56820800000077,
                    "velocity": 0.30708661417322836,
                    "duration": 0.7478039999999737
                },
                {
                    "name": "G2",
                    "midi": 43,
                    "time": 487.56820800000077,
                    "velocity": 0.30708661417322836,
                    "duration": 1.4956079999999474
                },
                {
                    "name": "E3",
                    "midi": 52,
                    "time": 487.56820800000077,
                    "velocity": 0.36220472440944884,
                    "duration": 0.7478039999999737
                },
                {
                    "name": "D3",
                    "midi": 50,
                    "time": 488.31601200000074,
                    "velocity": 0.29133858267716534,
                    "duration": 0.7478039999999737
                },
                {
                    "name": "F3",
                    "midi": 53,
                    "time": 488.31601200000074,
                    "velocity": 0.3464566929133858,
                    "duration": 0.7478039999999737
                },
                {
                    "name": "C3",
                    "midi": 48,
                    "time": 489.0638160000007,
                    "velocity": 0.29133858267716534,
                    "duration": 0.37390199999998686
                },
                {
                    "name": "E3",
                    "midi": 52,
                    "time": 489.0638160000007,
                    "velocity": 0.3464566929133858,
                    "duration": 0.37390199999998686
                },
                {
                    "name": "C3",
                    "midi": 48,
                    "time": 489.4377180000007,
                    "velocity": 0.4015748031496063,
                    "duration": 0.5608530000000087
                },
                {
                    "name": "E2",
                    "midi": 40,
                    "time": 489.4377180000007,
                    "velocity": 0.33070866141732286,
                    "duration": 0.37390199999998686
                },
                {
                    "name": "F2",
                    "midi": 41,
                    "time": 489.8116200000007,
                    "velocity": 0.33070866141732286,
                    "duration": 0.7478040000000874
                },
                {
                    "name": "D3",
                    "midi": 50,
                    "time": 489.9985710000007,
                    "velocity": 0.3858267716535433,
                    "duration": 0.18695100000002185
                },
                {
                    "name": "E3",
                    "midi": 52,
                    "time": 490.18552200000073,
                    "velocity": 0.4015748031496063,
                    "duration": 0.18695100000002185
                },
                {
                    "name": "F3",
                    "midi": 53,
                    "time": 490.37247300000075,
                    "velocity": 0.4330708661417323,
                    "duration": 0.18695100000002185
                },
                {
                    "name": "G2",
                    "midi": 43,
                    "time": 490.5594240000008,
                    "velocity": 0.2755905511811024,
                    "duration": 1.4956079999999474
                },
                {
                    "name": "E3",
                    "midi": 52,
                    "time": 490.5594240000008,
                    "velocity": 0.2755905511811024,
                    "duration": 0.7478039999999737
                },
                {
                    "name": "G3",
                    "midi": 55,
                    "time": 490.5594240000008,
                    "velocity": 0.3228346456692913,
                    "duration": 0.7478039999999737
                },
                {
                    "name": "D3",
                    "midi": 50,
                    "time": 491.30722800000075,
                    "velocity": 0.25984251968503935,
                    "duration": 0.7478039999999737
                },
                {
                    "name": "F3",
                    "midi": 53,
                    "time": 491.30722800000075,
                    "velocity": 0.30708661417322836,
                    "duration": 0.7478039999999737
                },
                {
                    "name": "E3",
                    "midi": 52,
                    "time": 492.0550320000007,
                    "velocity": 0.3464566929133858,
                    "duration": 0.37390199999998686
                },
                {
                    "name": "C3",
                    "midi": 48,
                    "time": 492.0550320000007,
                    "velocity": 0.29133858267716534,
                    "duration": 0.37390199999998686
                },
                {
                    "name": "A2",
                    "midi": 45,
                    "time": 492.4289340000007,
                    "velocity": 0.33070866141732286,
                    "duration": 0.37390199999998686
                },
                {
                    "name": "F3",
                    "midi": 53,
                    "time": 492.4289340000007,
                    "velocity": 0.4015748031496063,
                    "duration": 0.5608530000000087
                },
                {
                    "name": "A#2",
                    "midi": 46,
                    "time": 492.8028360000007,
                    "velocity": 0.33070866141732286,
                    "duration": 0.7478040000000874
                },
                {
                    "name": "G3",
                    "midi": 55,
                    "time": 492.9897870000007,
                    "velocity": 0.3858267716535433,
                    "duration": 0.18695100000002185
                },
                {
                    "name": "A3",
                    "midi": 57,
                    "time": 493.17673800000074,
                    "velocity": 0.4015748031496063,
                    "duration": 0.18695100000002185
                },
                {
                    "name": "A#3",
                    "midi": 58,
                    "time": 493.36368900000076,
                    "velocity": 0.4330708661417323,
                    "duration": 0.18695100000002185
                },
                {
                    "name": "C4",
                    "midi": 60,
                    "time": 493.5506400000008,
                    "velocity": 0.3228346456692913,
                    "duration": 0.7478039999999737
                },
                {
                    "name": "A3",
                    "midi": 57,
                    "time": 493.5506400000008,
                    "velocity": 0.2755905511811024,
                    "duration": 0.7478039999999737
                },
                {
                    "name": "C3",
                    "midi": 48,
                    "time": 493.5506400000008,
                    "velocity": 0.2755905511811024,
                    "duration": 1.4956079999999474
                },
                {
                    "name": "G3",
                    "midi": 55,
                    "time": 494.29844400000076,
                    "velocity": 0.25984251968503935,
                    "duration": 0.7478039999999737
                },
                {
                    "name": "A#3",
                    "midi": 58,
                    "time": 494.29844400000076,
                    "velocity": 0.30708661417322836,
                    "duration": 0.7478039999999737
                },
                {
                    "name": "G#3",
                    "midi": 56,
                    "time": 495.04624800000073,
                    "velocity": 0.3464566929133858,
                    "duration": 0.37390199999998686
                },
                {
                    "name": "F3",
                    "midi": 53,
                    "time": 495.04624800000073,
                    "velocity": 0.29133858267716534,
                    "duration": 0.37390199999998686
                },
                {
                    "name": "G#2",
                    "midi": 44,
                    "time": 495.4201500000007,
                    "velocity": 0.33070866141732286,
                    "duration": 0.37390199999998686
                },
                {
                    "name": "F3",
                    "midi": 53,
                    "time": 495.4201500000007,
                    "velocity": 0.4015748031496063,
                    "duration": 0.5608530000000087
                },
                {
                    "name": "A#2",
                    "midi": 46,
                    "time": 495.7940520000007,
                    "velocity": 0.33070866141732286,
                    "duration": 0.7478040000000874
                },
                {
                    "name": "G3",
                    "midi": 55,
                    "time": 495.9810030000007,
                    "velocity": 0.3858267716535433,
                    "duration": 0.18695100000002185
                },
                {
                    "name": "G#3",
                    "midi": 56,
                    "time": 496.16795400000075,
                    "velocity": 0.4015748031496063,
                    "duration": 0.18695100000002185
                },
                {
                    "name": "A#3",
                    "midi": 58,
                    "time": 496.35490500000077,
                    "velocity": 0.4330708661417323,
                    "duration": 0.18695100000002185
                },
                {
                    "name": "C3",
                    "midi": 48,
                    "time": 496.5418560000008,
                    "velocity": 0.2755905511811024,
                    "duration": 1.4956079999999474
                },
                {
                    "name": "C4",
                    "midi": 60,
                    "time": 496.5418560000008,
                    "velocity": 0.3228346456692913,
                    "duration": 0.7478039999999737
                },
                {
                    "name": "G#3",
                    "midi": 56,
                    "time": 496.5418560000008,
                    "velocity": 0.2755905511811024,
                    "duration": 0.7478039999999737
                },
                {
                    "name": "G3",
                    "midi": 55,
                    "time": 497.28966000000077,
                    "velocity": 0.25984251968503935,
                    "duration": 0.7478039999999737
                },
                {
                    "name": "A#3",
                    "midi": 58,
                    "time": 497.28966000000077,
                    "velocity": 0.30708661417322836,
                    "duration": 0.7478039999999737
                },
                {
                    "name": "C#3",
                    "midi": 49,
                    "time": 498.03746400000074,
                    "velocity": 0.1968503937007874,
                    "duration": 0.09347550000001092
                },
                {
                    "name": "G#3",
                    "midi": 56,
                    "time": 498.03746400000074,
                    "velocity": 0.2204724409448819,
                    "duration": 0.09347550000001092
                },
                {
                    "name": "F3",
                    "midi": 53,
                    "time": 498.03746400000074,
                    "velocity": 0.1968503937007874,
                    "duration": 0.09347550000001092
                },
                {
                    "name": "C#2",
                    "midi": 37,
                    "time": 498.22441500000076,
                    "velocity": 0.1732283464566929,
                    "duration": 0.09347550000001092
                },
                {
                    "name": "G#2",
                    "midi": 44,
                    "time": 498.22441500000076,
                    "velocity": 0.2047244094488189,
                    "duration": 0.09347550000001092
                },
                {
                    "name": "G#2",
                    "midi": 44,
                    "time": 498.4113660000008,
                    "velocity": 0.2047244094488189,
                    "duration": 0.09347550000001092
                },
                {
                    "name": "C#2",
                    "midi": 37,
                    "time": 498.4113660000008,
                    "velocity": 0.1732283464566929,
                    "duration": 0.09347550000001092
                },
                {
                    "name": "G#2",
                    "midi": 44,
                    "time": 498.5983170000008,
                    "velocity": 0.2125984251968504,
                    "duration": 0.09347550000001092
                },
                {
                    "name": "C#2",
                    "midi": 37,
                    "time": 498.5983170000008,
                    "velocity": 0.1732283464566929,
                    "duration": 0.09347550000001092
                },
                {
                    "name": "C#2",
                    "midi": 37,
                    "time": 498.7852680000008,
                    "velocity": 0.1732283464566929,
                    "duration": 0.09347550000001092
                },
                {
                    "name": "G#2",
                    "midi": 44,
                    "time": 498.7852680000008,
                    "velocity": 0.2125984251968504,
                    "duration": 0.09347550000001092
                },
                {
                    "name": "G#2",
                    "midi": 44,
                    "time": 498.97221900000085,
                    "velocity": 0.2204724409448819,
                    "duration": 0.09347550000001092
                },
                {
                    "name": "C#2",
                    "midi": 37,
                    "time": 498.97221900000085,
                    "velocity": 0.18110236220472442,
                    "duration": 0.09347550000001092
                },
                {
                    "name": "G#2",
                    "midi": 44,
                    "time": 499.15917000000087,
                    "velocity": 0.2204724409448819,
                    "duration": 0.09347550000001092
                },
                {
                    "name": "C#2",
                    "midi": 37,
                    "time": 499.15917000000087,
                    "velocity": 0.18110236220472442,
                    "duration": 0.09347550000001092
                },
                {
                    "name": "C#2",
                    "midi": 37,
                    "time": 499.3461210000009,
                    "velocity": 0.1889763779527559,
                    "duration": 0.09347550000001092
                },
                {
                    "name": "G#2",
                    "midi": 44,
                    "time": 499.3461210000009,
                    "velocity": 0.2283464566929134,
                    "duration": 0.09347550000001092
                },
                {
                    "name": "C#2",
                    "midi": 37,
                    "time": 499.5330720000009,
                    "velocity": 0.1968503937007874,
                    "duration": 0.09347550000001092
                },
                {
                    "name": "G#2",
                    "midi": 44,
                    "time": 499.5330720000009,
                    "velocity": 0.23622047244094488,
                    "duration": 0.09347550000001092
                },
                {
                    "name": "G#2",
                    "midi": 44,
                    "time": 499.72002300000094,
                    "velocity": 0.2125984251968504,
                    "duration": 0.09347550000001092
                },
                {
                    "name": "C#2",
                    "midi": 37,
                    "time": 499.72002300000094,
                    "velocity": 0.1732283464566929,
                    "duration": 0.09347550000001092
                },
                {
                    "name": "C#2",
                    "midi": 37,
                    "time": 499.90697400000096,
                    "velocity": 0.18110236220472442,
                    "duration": 0.09347550000001092
                },
                {
                    "name": "G#2",
                    "midi": 44,
                    "time": 499.90697400000096,
                    "velocity": 0.2204724409448819,
                    "duration": 0.09347550000001092
                },
                {
                    "name": "G#2",
                    "midi": 44,
                    "time": 500.093925000001,
                    "velocity": 0.2283464566929134,
                    "duration": 0.09347550000001092
                },
                {
                    "name": "C#2",
                    "midi": 37,
                    "time": 500.093925000001,
                    "velocity": 0.1889763779527559,
                    "duration": 0.09347550000001092
                },
                {
                    "name": "C#2",
                    "midi": 37,
                    "time": 500.280876000001,
                    "velocity": 0.1968503937007874,
                    "duration": 0.09347550000001092
                },
                {
                    "name": "G#2",
                    "midi": 44,
                    "time": 500.280876000001,
                    "velocity": 0.23622047244094488,
                    "duration": 0.09347550000001092
                },
                {
                    "name": "C#2",
                    "midi": 37,
                    "time": 500.467827000001,
                    "velocity": 0.1968503937007874,
                    "duration": 0.09347550000001092
                },
                {
                    "name": "G#2",
                    "midi": 44,
                    "time": 500.467827000001,
                    "velocity": 0.23622047244094488,
                    "duration": 0.09347550000001092
                },
                {
                    "name": "C#2",
                    "midi": 37,
                    "time": 500.65477800000104,
                    "velocity": 0.1968503937007874,
                    "duration": 0.09347550000001092
                },
                {
                    "name": "A#2",
                    "midi": 46,
                    "time": 500.65477800000104,
                    "velocity": 0.23622047244094488,
                    "duration": 0.09347550000001092
                },
                {
                    "name": "C#2",
                    "midi": 37,
                    "time": 500.84172900000107,
                    "velocity": 0.1968503937007874,
                    "duration": 0.09347550000001092
                },
                {
                    "name": "A#2",
                    "midi": 46,
                    "time": 500.84172900000107,
                    "velocity": 0.23622047244094488,
                    "duration": 0.09347550000001092
                },
                {
                    "name": "C2",
                    "midi": 36,
                    "time": 501.0286800000011,
                    "velocity": 0.1968503937007874,
                    "duration": 0.14021324999998797
                },
                {
                    "name": "G#2",
                    "midi": 44,
                    "time": 501.0286800000011,
                    "velocity": 0.23622047244094488,
                    "duration": 0.14021324999998797
                },
                {
                    "name": "D#2",
                    "midi": 39,
                    "time": 501.0286800000011,
                    "velocity": 0.1968503937007874,
                    "duration": 0.14021324999998797
                },
                {
                    "name": "C2",
                    "midi": 36,
                    "time": 501.21563100000105,
                    "velocity": 0.1968503937007874,
                    "duration": 0.14021324999998797
                },
                {
                    "name": "D#2",
                    "midi": 39,
                    "time": 501.21563100000105,
                    "velocity": 0.1968503937007874,
                    "duration": 0.14021324999998797
                },
                {
                    "name": "G#2",
                    "midi": 44,
                    "time": 501.21563100000105,
                    "velocity": 0.23622047244094488,
                    "duration": 0.14021324999998797
                },
                {
                    "name": "C2",
                    "midi": 36,
                    "time": 501.402582000001,
                    "velocity": 0.1968503937007874,
                    "duration": 0.14021324999998797
                },
                {
                    "name": "D#2",
                    "midi": 39,
                    "time": 501.402582000001,
                    "velocity": 0.1968503937007874,
                    "duration": 0.14021324999998797
                },
                {
                    "name": "G#2",
                    "midi": 44,
                    "time": 501.402582000001,
                    "velocity": 0.23622047244094488,
                    "duration": 0.14021324999998797
                },
                {
                    "name": "C2",
                    "midi": 36,
                    "time": 501.589533000001,
                    "velocity": 0.1968503937007874,
                    "duration": 0.14021324999998797
                },
                {
                    "name": "D#2",
                    "midi": 39,
                    "time": 501.589533000001,
                    "velocity": 0.1968503937007874,
                    "duration": 0.14021324999998797
                },
                {
                    "name": "G#2",
                    "midi": 44,
                    "time": 501.589533000001,
                    "velocity": 0.23622047244094488,
                    "duration": 0.14021324999998797
                },
                {
                    "name": "C2",
                    "midi": 36,
                    "time": 501.77648400000095,
                    "velocity": 0.1968503937007874,
                    "duration": 0.14021324999998797
                },
                {
                    "name": "D#2",
                    "midi": 39,
                    "time": 501.77648400000095,
                    "velocity": 0.1968503937007874,
                    "duration": 0.14021324999998797
                },
                {
                    "name": "G#2",
                    "midi": 44,
                    "time": 501.77648400000095,
                    "velocity": 0.23622047244094488,
                    "duration": 0.14021324999998797
                },
                {
                    "name": "G#2",
                    "midi": 44,
                    "time": 501.9634350000009,
                    "velocity": 0.23622047244094488,
                    "duration": 0.14021324999998797
                },
                {
                    "name": "D#2",
                    "midi": 39,
                    "time": 501.9634350000009,
                    "velocity": 0.1968503937007874,
                    "duration": 0.14021324999998797
                },
                {
                    "name": "C2",
                    "midi": 36,
                    "time": 501.9634350000009,
                    "velocity": 0.1968503937007874,
                    "duration": 0.14021324999998797
                },
                {
                    "name": "C2",
                    "midi": 36,
                    "time": 502.1503860000009,
                    "velocity": 0.1968503937007874,
                    "duration": 0.14021324999998797
                },
                {
                    "name": "D#2",
                    "midi": 39,
                    "time": 502.1503860000009,
                    "velocity": 0.1968503937007874,
                    "duration": 0.14021324999998797
                },
                {
                    "name": "G#2",
                    "midi": 44,
                    "time": 502.1503860000009,
                    "velocity": 0.23622047244094488,
                    "duration": 0.14021324999998797
                },
                {
                    "name": "C2",
                    "midi": 36,
                    "time": 502.33733700000084,
                    "velocity": 0.1968503937007874,
                    "duration": 0.14021324999998797
                },
                {
                    "name": "D#2",
                    "midi": 39,
                    "time": 502.33733700000084,
                    "velocity": 0.1968503937007874,
                    "duration": 0.14021324999998797
                },
                {
                    "name": "G#2",
                    "midi": 44,
                    "time": 502.33733700000084,
                    "velocity": 0.23622047244094488,
                    "duration": 0.14021324999998797
                },
                {
                    "name": "F2",
                    "midi": 41,
                    "time": 502.5242880000008,
                    "velocity": 0.2992125984251969,
                    "duration": 0.14021324999998797
                },
                {
                    "name": "D#2",
                    "midi": 39,
                    "time": 502.5242880000008,
                    "velocity": 0.2992125984251969,
                    "duration": 0.14021324999998797
                },
                {
                    "name": "C2",
                    "midi": 36,
                    "time": 502.5242880000008,
                    "velocity": 0.2992125984251969,
                    "duration": 0.14021324999998797
                },
                {
                    "name": "A2",
                    "midi": 45,
                    "time": 502.5242880000008,
                    "velocity": 0.3700787401574803,
                    "duration": 0.14021324999998797
                },
                {
                    "name": "D#2",
                    "midi": 39,
                    "time": 502.7112390000008,
                    "velocity": 0.2992125984251969,
                    "duration": 0.14021324999998797
                },
                {
                    "name": "C2",
                    "midi": 36,
                    "time": 502.7112390000008,
                    "velocity": 0.2992125984251969,
                    "duration": 0.14021324999998797
                },
                {
                    "name": "A2",
                    "midi": 45,
                    "time": 502.7112390000008,
                    "velocity": 0.3700787401574803,
                    "duration": 0.14021324999998797
                },
                {
                    "name": "F2",
                    "midi": 41,
                    "time": 502.7112390000008,
                    "velocity": 0.2992125984251969,
                    "duration": 0.14021324999998797
                },
                {
                    "name": "D#2",
                    "midi": 39,
                    "time": 502.89819000000074,
                    "velocity": 0.2992125984251969,
                    "duration": 0.14021324999998797
                },
                {
                    "name": "C2",
                    "midi": 36,
                    "time": 502.89819000000074,
                    "velocity": 0.2992125984251969,
                    "duration": 0.14021324999998797
                },
                {
                    "name": "F2",
                    "midi": 41,
                    "time": 502.89819000000074,
                    "velocity": 0.2992125984251969,
                    "duration": 0.14021324999998797
                },
                {
                    "name": "A2",
                    "midi": 45,
                    "time": 502.89819000000074,
                    "velocity": 0.3700787401574803,
                    "duration": 0.14021324999998797
                },
                {
                    "name": "F2",
                    "midi": 41,
                    "time": 503.0851410000007,
                    "velocity": 0.2992125984251969,
                    "duration": 0.14021324999998797
                },
                {
                    "name": "D#2",
                    "midi": 39,
                    "time": 503.0851410000007,
                    "velocity": 0.2992125984251969,
                    "duration": 0.14021324999998797
                },
                {
                    "name": "C2",
                    "midi": 36,
                    "time": 503.0851410000007,
                    "velocity": 0.2992125984251969,
                    "duration": 0.14021324999998797
                },
                {
                    "name": "A2",
                    "midi": 45,
                    "time": 503.0851410000007,
                    "velocity": 0.3700787401574803,
                    "duration": 0.14021324999998797
                },
                {
                    "name": "F2",
                    "midi": 41,
                    "time": 503.27209200000067,
                    "velocity": 0.2992125984251969,
                    "duration": 0.14021324999998797
                },
                {
                    "name": "A2",
                    "midi": 45,
                    "time": 503.27209200000067,
                    "velocity": 0.3700787401574803,
                    "duration": 0.14021324999998797
                },
                {
                    "name": "C2",
                    "midi": 36,
                    "time": 503.27209200000067,
                    "velocity": 0.2992125984251969,
                    "duration": 0.14021324999998797
                },
                {
                    "name": "D#2",
                    "midi": 39,
                    "time": 503.27209200000067,
                    "velocity": 0.2992125984251969,
                    "duration": 0.14021324999998797
                },
                {
                    "name": "C2",
                    "midi": 36,
                    "time": 503.45904300000063,
                    "velocity": 0.29133858267716534,
                    "duration": 0.14021324999998797
                },
                {
                    "name": "D#2",
                    "midi": 39,
                    "time": 503.45904300000063,
                    "velocity": 0.29133858267716534,
                    "duration": 0.14021324999998797
                },
                {
                    "name": "F2",
                    "midi": 41,
                    "time": 503.45904300000063,
                    "velocity": 0.29133858267716534,
                    "duration": 0.14021324999998797
                },
                {
                    "name": "A2",
                    "midi": 45,
                    "time": 503.45904300000063,
                    "velocity": 0.3543307086614173,
                    "duration": 0.14021324999998797
                },
                {
                    "name": "F2",
                    "midi": 41,
                    "time": 503.6459940000006,
                    "velocity": 0.29133858267716534,
                    "duration": 0.14021324999998797
                },
                {
                    "name": "D#2",
                    "midi": 39,
                    "time": 503.6459940000006,
                    "velocity": 0.29133858267716534,
                    "duration": 0.14021324999998797
                },
                {
                    "name": "C2",
                    "midi": 36,
                    "time": 503.6459940000006,
                    "velocity": 0.29133858267716534,
                    "duration": 0.14021324999998797
                },
                {
                    "name": "A2",
                    "midi": 45,
                    "time": 503.6459940000006,
                    "velocity": 0.3543307086614173,
                    "duration": 0.14021324999998797
                },
                {
                    "name": "F2",
                    "midi": 41,
                    "time": 503.83294500000056,
                    "velocity": 0.29133858267716534,
                    "duration": 0.14021324999998797
                },
                {
                    "name": "A2",
                    "midi": 45,
                    "time": 503.83294500000056,
                    "velocity": 0.3543307086614173,
                    "duration": 0.14021324999998797
                },
                {
                    "name": "D#2",
                    "midi": 39,
                    "time": 503.83294500000056,
                    "velocity": 0.29133858267716534,
                    "duration": 0.14021324999998797
                },
                {
                    "name": "C2",
                    "midi": 36,
                    "time": 503.83294500000056,
                    "velocity": 0.29133858267716534,
                    "duration": 0.14021324999998797
                },
                {
                    "name": "F2",
                    "midi": 41,
                    "time": 504.01989600000053,
                    "velocity": 0.1968503937007874,
                    "duration": 0.14021324999998797
                },
                {
                    "name": "C#2",
                    "midi": 37,
                    "time": 504.01989600000053,
                    "velocity": 0.1968503937007874,
                    "duration": 0.14021324999998797
                },
                {
                    "name": "A#2",
                    "midi": 46,
                    "time": 504.01989600000053,
                    "velocity": 0.23622047244094488,
                    "duration": 0.14021324999998797
                },
                {
                    "name": "F2",
                    "midi": 41,
                    "time": 504.2068470000005,
                    "velocity": 0.1968503937007874,
                    "duration": 0.14021324999998797
                },
                {
                    "name": "C#2",
                    "midi": 37,
                    "time": 504.2068470000005,
                    "velocity": 0.1968503937007874,
                    "duration": 0.14021324999998797
                },
                {
                    "name": "A#2",
                    "midi": 46,
                    "time": 504.2068470000005,
                    "velocity": 0.23622047244094488,
                    "duration": 0.14021324999998797
                },
                {
                    "name": "F2",
                    "midi": 41,
                    "time": 504.39379800000046,
                    "velocity": 0.1968503937007874,
                    "duration": 0.14021324999998797
                },
                {
                    "name": "C#2",
                    "midi": 37,
                    "time": 504.39379800000046,
                    "velocity": 0.1968503937007874,
                    "duration": 0.14021324999998797
                },
                {
                    "name": "A#2",
                    "midi": 46,
                    "time": 504.39379800000046,
                    "velocity": 0.23622047244094488,
                    "duration": 0.14021324999998797
                },
                {
                    "name": "F2",
                    "midi": 41,
                    "time": 504.5807490000004,
                    "velocity": 0.1968503937007874,
                    "duration": 0.14021324999998797
                },
                {
                    "name": "C#2",
                    "midi": 37,
                    "time": 504.5807490000004,
                    "velocity": 0.1968503937007874,
                    "duration": 0.14021324999998797
                },
                {
                    "name": "A#2",
                    "midi": 46,
                    "time": 504.5807490000004,
                    "velocity": 0.23622047244094488,
                    "duration": 0.14021324999998797
                },
                {
                    "name": "A#2",
                    "midi": 46,
                    "time": 504.7677000000004,
                    "velocity": 0.23622047244094488,
                    "duration": 0.14021324999998797
                },
                {
                    "name": "F2",
                    "midi": 41,
                    "time": 504.7677000000004,
                    "velocity": 0.1968503937007874,
                    "duration": 0.14021324999998797
                },
                {
                    "name": "C#2",
                    "midi": 37,
                    "time": 504.7677000000004,
                    "velocity": 0.1968503937007874,
                    "duration": 0.14021324999998797
                },
                {
                    "name": "C#2",
                    "midi": 37,
                    "time": 504.95465100000035,
                    "velocity": 0.1968503937007874,
                    "duration": 0.14021324999998797
                },
                {
                    "name": "A#2",
                    "midi": 46,
                    "time": 504.95465100000035,
                    "velocity": 0.23622047244094488,
                    "duration": 0.14021324999998797
                },
                {
                    "name": "F2",
                    "midi": 41,
                    "time": 504.95465100000035,
                    "velocity": 0.1968503937007874,
                    "duration": 0.14021324999998797
                },
                {
                    "name": "C#2",
                    "midi": 37,
                    "time": 505.1416020000003,
                    "velocity": 0.1968503937007874,
                    "duration": 0.14021324999998797
                },
                {
                    "name": "A#2",
                    "midi": 46,
                    "time": 505.1416020000003,
                    "velocity": 0.23622047244094488,
                    "duration": 0.14021324999998797
                },
                {
                    "name": "F2",
                    "midi": 41,
                    "time": 505.1416020000003,
                    "velocity": 0.1968503937007874,
                    "duration": 0.14021324999998797
                },
                {
                    "name": "C#2",
                    "midi": 37,
                    "time": 505.3285530000003,
                    "velocity": 0.1968503937007874,
                    "duration": 0.14021324999998797
                },
                {
                    "name": "A#2",
                    "midi": 46,
                    "time": 505.3285530000003,
                    "velocity": 0.23622047244094488,
                    "duration": 0.14021324999998797
                },
                {
                    "name": "F2",
                    "midi": 41,
                    "time": 505.3285530000003,
                    "velocity": 0.1968503937007874,
                    "duration": 0.14021324999998797
                },
                {
                    "name": "B2",
                    "midi": 47,
                    "time": 505.51550400000025,
                    "velocity": 0.3700787401574803,
                    "duration": 0.14021324999998797
                },
                {
                    "name": "F2",
                    "midi": 41,
                    "time": 505.51550400000025,
                    "velocity": 0.2992125984251969,
                    "duration": 0.14021324999998797
                },
                {
                    "name": "D2",
                    "midi": 38,
                    "time": 505.51550400000025,
                    "velocity": 0.2992125984251969,
                    "duration": 0.14021324999998797
                },
                {
                    "name": "F2",
                    "midi": 41,
                    "time": 505.7024550000002,
                    "velocity": 0.2992125984251969,
                    "duration": 0.14021324999998797
                },
                {
                    "name": "D2",
                    "midi": 38,
                    "time": 505.7024550000002,
                    "velocity": 0.2992125984251969,
                    "duration": 0.14021324999998797
                },
                {
                    "name": "B2",
                    "midi": 47,
                    "time": 505.7024550000002,
                    "velocity": 0.3700787401574803,
                    "duration": 0.14021324999998797
                },
                {
                    "name": "F2",
                    "midi": 41,
                    "time": 505.8894060000002,
                    "velocity": 0.2992125984251969,
                    "duration": 0.14021324999998797
                },
                {
                    "name": "D2",
                    "midi": 38,
                    "time": 505.8894060000002,
                    "velocity": 0.2992125984251969,
                    "duration": 0.14021324999998797
                },
                {
                    "name": "B2",
                    "midi": 47,
                    "time": 505.8894060000002,
                    "velocity": 0.3700787401574803,
                    "duration": 0.14021324999998797
                },
                {
                    "name": "F2",
                    "midi": 41,
                    "time": 506.07635700000014,
                    "velocity": 0.2992125984251969,
                    "duration": 0.14021324999998797
                },
                {
                    "name": "D2",
                    "midi": 38,
                    "time": 506.07635700000014,
                    "velocity": 0.2992125984251969,
                    "duration": 0.14021324999998797
                },
                {
                    "name": "B2",
                    "midi": 47,
                    "time": 506.07635700000014,
                    "velocity": 0.3700787401574803,
                    "duration": 0.14021324999998797
                },
                {
                    "name": "F2",
                    "midi": 41,
                    "time": 506.2633080000001,
                    "velocity": 0.29133858267716534,
                    "duration": 0.14021324999998797
                },
                {
                    "name": "D2",
                    "midi": 38,
                    "time": 506.2633080000001,
                    "velocity": 0.29133858267716534,
                    "duration": 0.14021324999998797
                },
                {
                    "name": "B2",
                    "midi": 47,
                    "time": 506.2633080000001,
                    "velocity": 0.3543307086614173,
                    "duration": 0.14021324999998797
                },
                {
                    "name": "B2",
                    "midi": 47,
                    "time": 506.4502590000001,
                    "velocity": 0.3543307086614173,
                    "duration": 0.14021324999998797
                },
                {
                    "name": "F2",
                    "midi": 41,
                    "time": 506.4502590000001,
                    "velocity": 0.29133858267716534,
                    "duration": 0.14021324999998797
                },
                {
                    "name": "D2",
                    "midi": 38,
                    "time": 506.4502590000001,
                    "velocity": 0.29133858267716534,
                    "duration": 0.14021324999998797
                },
                {
                    "name": "F2",
                    "midi": 41,
                    "time": 506.63721000000004,
                    "velocity": 0.29133858267716534,
                    "duration": 0.14021324999998797
                },
                {
                    "name": "B2",
                    "midi": 47,
                    "time": 506.63721000000004,
                    "velocity": 0.3543307086614173,
                    "duration": 0.14021324999998797
                },
                {
                    "name": "D2",
                    "midi": 38,
                    "time": 506.63721000000004,
                    "velocity": 0.29133858267716534,
                    "duration": 0.14021324999998797
                },
                {
                    "name": "D2",
                    "midi": 38,
                    "time": 506.824161,
                    "velocity": 0.29133858267716534,
                    "duration": 0.14021324999998797
                },
                {
                    "name": "F2",
                    "midi": 41,
                    "time": 506.824161,
                    "velocity": 0.29133858267716534,
                    "duration": 0.14021324999998797
                },
                {
                    "name": "B2",
                    "midi": 47,
                    "time": 506.824161,
                    "velocity": 0.3543307086614173,
                    "duration": 0.14021324999998797
                },
                {
                    "name": "G2",
                    "midi": 43,
                    "time": 507.01111199999997,
                    "velocity": 0.29133858267716534,
                    "duration": 0.14021324999998797
                },
                {
                    "name": "D#2",
                    "midi": 39,
                    "time": 507.01111199999997,
                    "velocity": 0.29133858267716534,
                    "duration": 0.14021324999998797
                },
                {
                    "name": "B2",
                    "midi": 47,
                    "time": 507.01111199999997,
                    "velocity": 0.3543307086614173,
                    "duration": 0.14021324999998797
                },
                {
                    "name": "G2",
                    "midi": 43,
                    "time": 507.19806299999993,
                    "velocity": 0.29133858267716534,
                    "duration": 0.14021324999998797
                },
                {
                    "name": "D#2",
                    "midi": 39,
                    "time": 507.19806299999993,
                    "velocity": 0.29133858267716534,
                    "duration": 0.14021324999998797
                },
                {
                    "name": "B2",
                    "midi": 47,
                    "time": 507.19806299999993,
                    "velocity": 0.3543307086614173,
                    "duration": 0.14021324999998797
                },
                {
                    "name": "G2",
                    "midi": 43,
                    "time": 507.3850139999999,
                    "velocity": 0.29133858267716534,
                    "duration": 0.14021324999998797
                },
                {
                    "name": "D#2",
                    "midi": 39,
                    "time": 507.3850139999999,
                    "velocity": 0.29133858267716534,
                    "duration": 0.14021324999998797
                },
                {
                    "name": "C3",
                    "midi": 48,
                    "time": 507.3850139999999,
                    "velocity": 0.3543307086614173,
                    "duration": 0.14021324999998797
                },
                {
                    "name": "D#2",
                    "midi": 39,
                    "time": 507.57196499999986,
                    "velocity": 0.29133858267716534,
                    "duration": 0.14021324999998797
                },
                {
                    "name": "C3",
                    "midi": 48,
                    "time": 507.57196499999986,
                    "velocity": 0.3543307086614173,
                    "duration": 0.14021324999998797
                },
                {
                    "name": "G2",
                    "midi": 43,
                    "time": 507.57196499999986,
                    "velocity": 0.29133858267716534,
                    "duration": 0.14021324999998797
                },
                {
                    "name": "F2",
                    "midi": 41,
                    "time": 507.75891599999983,
                    "velocity": 0.29133858267716534,
                    "duration": 0.14021324999998797
                },
                {
                    "name": "C3",
                    "midi": 48,
                    "time": 507.75891599999983,
                    "velocity": 0.3543307086614173,
                    "duration": 0.14021324999998797
                },
                {
                    "name": "G#2",
                    "midi": 44,
                    "time": 507.75891599999983,
                    "velocity": 0.29133858267716534,
                    "duration": 0.14021324999998797
                },
                {
                    "name": "F2",
                    "midi": 41,
                    "time": 507.9458669999998,
                    "velocity": 0.2992125984251969,
                    "duration": 0.14021324999998797
                },
                {
                    "name": "C3",
                    "midi": 48,
                    "time": 507.9458669999998,
                    "velocity": 0.36220472440944884,
                    "duration": 0.14021324999998797
                },
                {
                    "name": "G#2",
                    "midi": 44,
                    "time": 507.9458669999998,
                    "velocity": 0.2992125984251969,
                    "duration": 0.14021324999998797
                },
                {
                    "name": "G#2",
                    "midi": 44,
                    "time": 508.13281799999976,
                    "velocity": 0.2992125984251969,
                    "duration": 0.14021324999998797
                },
                {
                    "name": "F2",
                    "midi": 41,
                    "time": 508.13281799999976,
                    "velocity": 0.2992125984251969,
                    "duration": 0.14021324999998797
                },
                {
                    "name": "D3",
                    "midi": 50,
                    "time": 508.13281799999976,
                    "velocity": 0.36220472440944884,
                    "duration": 0.14021324999998797
                },
                {
                    "name": "D3",
                    "midi": 50,
                    "time": 508.3197689999997,
                    "velocity": 0.36220472440944884,
                    "duration": 0.14021324999998797
                },
                {
                    "name": "F2",
                    "midi": 41,
                    "time": 508.3197689999997,
                    "velocity": 0.2992125984251969,
                    "duration": 0.14021324999998797
                },
                {
                    "name": "G#2",
                    "midi": 44,
                    "time": 508.3197689999997,
                    "velocity": 0.2992125984251969,
                    "duration": 0.14021324999998797
                },
                {
                    "name": "G2",
                    "midi": 43,
                    "time": 508.5067199999997,
                    "velocity": 0.2992125984251969,
                    "duration": 0.14021324999998797
                },
                {
                    "name": "A#2",
                    "midi": 46,
                    "time": 508.5067199999997,
                    "velocity": 0.2992125984251969,
                    "duration": 0.14021324999998797
                },
                {
                    "name": "D3",
                    "midi": 50,
                    "time": 508.5067199999997,
                    "velocity": 0.3700787401574803,
                    "duration": 0.14021324999998797
                },
                {
                    "name": "G2",
                    "midi": 43,
                    "time": 508.69367099999965,
                    "velocity": 0.2992125984251969,
                    "duration": 0.14021324999998797
                },
                {
                    "name": "A#2",
                    "midi": 46,
                    "time": 508.69367099999965,
                    "velocity": 0.2992125984251969,
                    "duration": 0.14021324999998797
                },
                {
                    "name": "D3",
                    "midi": 50,
                    "time": 508.69367099999965,
                    "velocity": 0.3700787401574803,
                    "duration": 0.14021324999998797
                },
                {
                    "name": "G2",
                    "midi": 43,
                    "time": 508.8806219999996,
                    "velocity": 0.30708661417322836,
                    "duration": 0.14021324999998797
                },
                {
                    "name": "A#2",
                    "midi": 46,
                    "time": 508.8806219999996,
                    "velocity": 0.30708661417322836,
                    "duration": 0.14021324999998797
                },
                {
                    "name": "E3",
                    "midi": 52,
                    "time": 508.8806219999996,
                    "velocity": 0.3700787401574803,
                    "duration": 0.14021324999998797
                },
                {
                    "name": "A#2",
                    "midi": 46,
                    "time": 509.0675729999996,
                    "velocity": 0.30708661417322836,
                    "duration": 0.14021324999998797
                },
                {
                    "name": "G2",
                    "midi": 43,
                    "time": 509.0675729999996,
                    "velocity": 0.30708661417322836,
                    "duration": 0.14021324999998797
                },
                {
                    "name": "E3",
                    "midi": 52,
                    "time": 509.0675729999996,
                    "velocity": 0.3779527559055118,
                    "duration": 0.14021324999998797
                },
                {
                    "name": "G#2",
                    "midi": 44,
                    "time": 509.25452399999955,
                    "velocity": 0.30708661417322836,
                    "duration": 0.14021324999998797
                },
                {
                    "name": "E3",
                    "midi": 52,
                    "time": 509.25452399999955,
                    "velocity": 0.3779527559055118,
                    "duration": 0.14021324999998797
                },
                {
                    "name": "C3",
                    "midi": 48,
                    "time": 509.25452399999955,
                    "velocity": 0.30708661417322836,
                    "duration": 0.14021324999998797
                },
                {
                    "name": "G#2",
                    "midi": 44,
                    "time": 509.4414749999995,
                    "velocity": 0.30708661417322836,
                    "duration": 0.14021324999998797
                },
                {
                    "name": "E3",
                    "midi": 52,
                    "time": 509.4414749999995,
                    "velocity": 0.3779527559055118,
                    "duration": 0.14021324999998797
                },
                {
                    "name": "C3",
                    "midi": 48,
                    "time": 509.4414749999995,
                    "velocity": 0.30708661417322836,
                    "duration": 0.14021324999998797
                },
                {
                    "name": "G#2",
                    "midi": 44,
                    "time": 509.6284259999995,
                    "velocity": 0.31496062992125984,
                    "duration": 0.14021324999998797
                },
                {
                    "name": "F3",
                    "midi": 53,
                    "time": 509.6284259999995,
                    "velocity": 0.3858267716535433,
                    "duration": 0.14021324999998797
                },
                {
                    "name": "C3",
                    "midi": 48,
                    "time": 509.6284259999995,
                    "velocity": 0.31496062992125984,
                    "duration": 0.14021324999998797
                },
                {
                    "name": "C3",
                    "midi": 48,
                    "time": 509.81537699999944,
                    "velocity": 0.31496062992125984,
                    "duration": 0.14021324999998797
                },
                {
                    "name": "G#2",
                    "midi": 44,
                    "time": 509.81537699999944,
                    "velocity": 0.31496062992125984,
                    "duration": 0.14021324999998797
                },
                {
                    "name": "F3",
                    "midi": 53,
                    "time": 509.81537699999944,
                    "velocity": 0.3858267716535433,
                    "duration": 0.14021324999998797
                },
                {
                    "name": "F#3",
                    "midi": 54,
                    "time": 510.0023279999994,
                    "velocity": 0.4015748031496063,
                    "duration": 0.14021324999998797
                },
                {
                    "name": "A2",
                    "midi": 45,
                    "time": 510.0023279999994,
                    "velocity": 0.33070866141732286,
                    "duration": 0.14021324999998797
                },
                {
                    "name": "C3",
                    "midi": 48,
                    "time": 510.0023279999994,
                    "velocity": 0.33070866141732286,
                    "duration": 0.14021324999998797
                },
                {
                    "name": "F#3",
                    "midi": 54,
                    "time": 510.1892789999994,
                    "velocity": 0.4015748031496063,
                    "duration": 0.14021324999998797
                },
                {
                    "name": "A2",
                    "midi": 45,
                    "time": 510.1892789999994,
                    "velocity": 0.33070866141732286,
                    "duration": 0.14021324999998797
                },
                {
                    "name": "C3",
                    "midi": 48,
                    "time": 510.1892789999994,
                    "velocity": 0.33070866141732286,
                    "duration": 0.14021324999998797
                },
                {
                    "name": "C3",
                    "midi": 48,
                    "time": 510.37622999999934,
                    "velocity": 0.33070866141732286,
                    "duration": 0.14021324999998797
                },
                {
                    "name": "A2",
                    "midi": 45,
                    "time": 510.37622999999934,
                    "velocity": 0.33070866141732286,
                    "duration": 0.14021324999998797
                },
                {
                    "name": "F#3",
                    "midi": 54,
                    "time": 510.37622999999934,
                    "velocity": 0.4015748031496063,
                    "duration": 0.14021324999998797
                },
                {
                    "name": "C3",
                    "midi": 48,
                    "time": 510.5631809999993,
                    "velocity": 0.33070866141732286,
                    "duration": 0.14021324999998797
                },
                {
                    "name": "A2",
                    "midi": 45,
                    "time": 510.5631809999993,
                    "velocity": 0.33070866141732286,
                    "duration": 0.14021324999998797
                },
                {
                    "name": "F#3",
                    "midi": 54,
                    "time": 510.5631809999993,
                    "velocity": 0.4015748031496063,
                    "duration": 0.14021324999998797
                },
                {
                    "name": "F#3",
                    "midi": 54,
                    "time": 510.75013199999927,
                    "velocity": 0.4015748031496063,
                    "duration": 0.14021324999998797
                },
                {
                    "name": "C3",
                    "midi": 48,
                    "time": 510.75013199999927,
                    "velocity": 0.33070866141732286,
                    "duration": 0.14021324999998797
                },
                {
                    "name": "A2",
                    "midi": 45,
                    "time": 510.75013199999927,
                    "velocity": 0.33070866141732286,
                    "duration": 0.14021324999998797
                },
                {
                    "name": "C3",
                    "midi": 48,
                    "time": 510.93708299999923,
                    "velocity": 0.33070866141732286,
                    "duration": 0.14021324999998797
                },
                {
                    "name": "A2",
                    "midi": 45,
                    "time": 510.93708299999923,
                    "velocity": 0.33070866141732286,
                    "duration": 0.14021324999998797
                },
                {
                    "name": "F#3",
                    "midi": 54,
                    "time": 510.93708299999923,
                    "velocity": 0.4015748031496063,
                    "duration": 0.14021324999998797
                },
                {
                    "name": "C3",
                    "midi": 48,
                    "time": 511.1240339999992,
                    "velocity": 0.33070866141732286,
                    "duration": 0.14021324999998797
                },
                {
                    "name": "A2",
                    "midi": 45,
                    "time": 511.1240339999992,
                    "velocity": 0.33070866141732286,
                    "duration": 0.14021324999998797
                },
                {
                    "name": "F#3",
                    "midi": 54,
                    "time": 511.1240339999992,
                    "velocity": 0.4015748031496063,
                    "duration": 0.14021324999998797
                },
                {
                    "name": "C3",
                    "midi": 48,
                    "time": 511.31098499999916,
                    "velocity": 0.33070866141732286,
                    "duration": 0.14021324999998797
                },
                {
                    "name": "A2",
                    "midi": 45,
                    "time": 511.31098499999916,
                    "velocity": 0.33070866141732286,
                    "duration": 0.14021324999998797
                },
                {
                    "name": "F#3",
                    "midi": 54,
                    "time": 511.31098499999916,
                    "velocity": 0.4015748031496063,
                    "duration": 0.14021324999998797
                },
                {
                    "name": "C3",
                    "midi": 48,
                    "time": 511.49793599999913,
                    "velocity": 0.33070866141732286,
                    "duration": 0.14021324999998797
                },
                {
                    "name": "F#3",
                    "midi": 54,
                    "time": 511.49793599999913,
                    "velocity": 0.4015748031496063,
                    "duration": 0.14021324999998797
                },
                {
                    "name": "G#2",
                    "midi": 44,
                    "time": 511.49793599999913,
                    "velocity": 0.33070866141732286,
                    "duration": 0.14021324999998797
                },
                {
                    "name": "F#3",
                    "midi": 54,
                    "time": 511.6848869999991,
                    "velocity": 0.4015748031496063,
                    "duration": 0.14021324999998797
                },
                {
                    "name": "G#2",
                    "midi": 44,
                    "time": 511.6848869999991,
                    "velocity": 0.33070866141732286,
                    "duration": 0.14021324999998797
                },
                {
                    "name": "C3",
                    "midi": 48,
                    "time": 511.6848869999991,
                    "velocity": 0.33070866141732286,
                    "duration": 0.14021324999998797
                },
                {
                    "name": "C3",
                    "midi": 48,
                    "time": 511.87183799999906,
                    "velocity": 0.33070866141732286,
                    "duration": 0.1402132500000448
                },
                {
                    "name": "G#2",
                    "midi": 44,
                    "time": 511.87183799999906,
                    "velocity": 0.33070866141732286,
                    "duration": 0.1402132500000448
                },
                {
                    "name": "F#3",
                    "midi": 54,
                    "time": 511.87183799999906,
                    "velocity": 0.4015748031496063,
                    "duration": 0.1402132500000448
                },
                {
                    "name": "C3",
                    "midi": 48,
                    "time": 512.0587889999991,
                    "velocity": 0.33070866141732286,
                    "duration": 0.14021324999998797
                },
                {
                    "name": "G#2",
                    "midi": 44,
                    "time": 512.0587889999991,
                    "velocity": 0.33070866141732286,
                    "duration": 0.14021324999998797
                },
                {
                    "name": "F#3",
                    "midi": 54,
                    "time": 512.0587889999991,
                    "velocity": 0.4015748031496063,
                    "duration": 0.14021324999998797
                },
                {
                    "name": "C3",
                    "midi": 48,
                    "time": 512.2457399999992,
                    "velocity": 0.33070866141732286,
                    "duration": 0.14021324999998797
                },
                {
                    "name": "G#2",
                    "midi": 44,
                    "time": 512.2457399999992,
                    "velocity": 0.33070866141732286,
                    "duration": 0.14021324999998797
                },
                {
                    "name": "D#3",
                    "midi": 51,
                    "time": 512.2457399999992,
                    "velocity": 0.4015748031496063,
                    "duration": 0.14021324999998797
                },
                {
                    "name": "D#3",
                    "midi": 51,
                    "time": 512.4326909999992,
                    "velocity": 0.4015748031496063,
                    "duration": 0.14021324999998797
                },
                {
                    "name": "C3",
                    "midi": 48,
                    "time": 512.4326909999992,
                    "velocity": 0.33070866141732286,
                    "duration": 0.14021324999998797
                },
                {
                    "name": "G#2",
                    "midi": 44,
                    "time": 512.4326909999992,
                    "velocity": 0.33070866141732286,
                    "duration": 0.14021324999998797
                },
                {
                    "name": "G#2",
                    "midi": 44,
                    "time": 512.6196419999992,
                    "velocity": 0.33070866141732286,
                    "duration": 0.14021324999998797
                },
                {
                    "name": "C3",
                    "midi": 48,
                    "time": 512.6196419999992,
                    "velocity": 0.4015748031496063,
                    "duration": 0.14021324999998797
                },
                {
                    "name": "C3",
                    "midi": 48,
                    "time": 512.8065929999992,
                    "velocity": 0.4015748031496063,
                    "duration": 0.14021324999998797
                },
                {
                    "name": "G#2",
                    "midi": 44,
                    "time": 512.8065929999992,
                    "velocity": 0.33070866141732286,
                    "duration": 0.14021324999998797
                },
                {
                    "name": "G2",
                    "midi": 43,
                    "time": 512.9935439999992,
                    "velocity": 0.33070866141732286,
                    "duration": 0.17137175000004845
                },
                {
                    "name": "B2",
                    "midi": 47,
                    "time": 512.9935439999992,
                    "velocity": 0.4015748031496063,
                    "duration": 0.17137175000004845
                },
                {
                    "name": "B2",
                    "midi": 47,
                    "time": 515.9847599999993,
                    "velocity": 0.2283464566929134,
                    "duration": 0.14021324999998797
                },
                {
                    "name": "D3",
                    "midi": 50,
                    "time": 515.9847599999993,
                    "velocity": 0.2755905511811024,
                    "duration": 0.14021324999998797
                },
                {
                    "name": "D3",
                    "midi": 50,
                    "time": 516.1717109999993,
                    "velocity": 0.2755905511811024,
                    "duration": 0.14021324999998797
                },
                {
                    "name": "B2",
                    "midi": 47,
                    "time": 516.1717109999993,
                    "velocity": 0.2283464566929134,
                    "duration": 0.14021324999998797
                },
                {
                    "name": "D3",
                    "midi": 50,
                    "time": 516.3586619999993,
                    "velocity": 0.2755905511811024,
                    "duration": 0.14021324999998797
                },
                {
                    "name": "B2",
                    "midi": 47,
                    "time": 516.3586619999993,
                    "velocity": 0.2283464566929134,
                    "duration": 0.14021324999998797
                },
                {
                    "name": "B2",
                    "midi": 47,
                    "time": 516.5456129999993,
                    "velocity": 0.2283464566929134,
                    "duration": 0.14021324999998797
                },
                {
                    "name": "D3",
                    "midi": 50,
                    "time": 516.5456129999993,
                    "velocity": 0.2755905511811024,
                    "duration": 0.14021324999998797
                },
                {
                    "name": "B2",
                    "midi": 47,
                    "time": 516.7325639999993,
                    "velocity": 0.2283464566929134,
                    "duration": 0.14021324999998797
                },
                {
                    "name": "D3",
                    "midi": 50,
                    "time": 516.7325639999993,
                    "velocity": 0.2755905511811024,
                    "duration": 0.14021324999998797
                },
                {
                    "name": "D3",
                    "midi": 50,
                    "time": 516.9195149999994,
                    "velocity": 0.2755905511811024,
                    "duration": 0.14021324999998797
                },
                {
                    "name": "B2",
                    "midi": 47,
                    "time": 516.9195149999994,
                    "velocity": 0.2283464566929134,
                    "duration": 0.14021324999998797
                },
                {
                    "name": "B2",
                    "midi": 47,
                    "time": 517.1064659999994,
                    "velocity": 0.2283464566929134,
                    "duration": 0.14021324999998797
                },
                {
                    "name": "D3",
                    "midi": 50,
                    "time": 517.1064659999994,
                    "velocity": 0.2755905511811024,
                    "duration": 0.14021324999998797
                },
                {
                    "name": "B2",
                    "midi": 47,
                    "time": 517.2934169999994,
                    "velocity": 0.2283464566929134,
                    "duration": 0.14021324999998797
                },
                {
                    "name": "D3",
                    "midi": 50,
                    "time": 517.2934169999994,
                    "velocity": 0.2755905511811024,
                    "duration": 0.14021324999998797
                },
                {
                    "name": "B2",
                    "midi": 47,
                    "time": 517.4803679999994,
                    "velocity": 0.2283464566929134,
                    "duration": 0.14021324999998797
                },
                {
                    "name": "D3",
                    "midi": 50,
                    "time": 517.4803679999994,
                    "velocity": 0.2755905511811024,
                    "duration": 0.14021324999998797
                },
                {
                    "name": "B2",
                    "midi": 47,
                    "time": 517.6673189999995,
                    "velocity": 0.2283464566929134,
                    "duration": 0.14021324999998797
                },
                {
                    "name": "D3",
                    "midi": 50,
                    "time": 517.6673189999995,
                    "velocity": 0.2755905511811024,
                    "duration": 0.14021324999998797
                },
                {
                    "name": "B2",
                    "midi": 47,
                    "time": 517.8542699999995,
                    "velocity": 0.2283464566929134,
                    "duration": 0.14021324999998797
                },
                {
                    "name": "D3",
                    "midi": 50,
                    "time": 517.8542699999995,
                    "velocity": 0.2755905511811024,
                    "duration": 0.14021324999998797
                },
                {
                    "name": "B2",
                    "midi": 47,
                    "time": 518.0412209999995,
                    "velocity": 0.2283464566929134,
                    "duration": 0.14021324999998797
                },
                {
                    "name": "D3",
                    "midi": 50,
                    "time": 518.0412209999995,
                    "velocity": 0.2755905511811024,
                    "duration": 0.14021324999998797
                },
                {
                    "name": "D3",
                    "midi": 50,
                    "time": 518.2281719999995,
                    "velocity": 0.2755905511811024,
                    "duration": 0.14021324999998797
                },
                {
                    "name": "B2",
                    "midi": 47,
                    "time": 518.2281719999995,
                    "velocity": 0.2283464566929134,
                    "duration": 0.14021324999998797
                },
                {
                    "name": "B2",
                    "midi": 47,
                    "time": 518.4151229999995,
                    "velocity": 0.2283464566929134,
                    "duration": 0.14021324999998797
                },
                {
                    "name": "D3",
                    "midi": 50,
                    "time": 518.4151229999995,
                    "velocity": 0.2755905511811024,
                    "duration": 0.14021324999998797
                },
                {
                    "name": "E3",
                    "midi": 52,
                    "time": 518.6020739999996,
                    "velocity": 0.2755905511811024,
                    "duration": 0.14021324999998797
                },
                {
                    "name": "C#3",
                    "midi": 49,
                    "time": 518.6020739999996,
                    "velocity": 0.2283464566929134,
                    "duration": 0.14021324999998797
                },
                {
                    "name": "C#3",
                    "midi": 49,
                    "time": 518.7890249999996,
                    "velocity": 0.2283464566929134,
                    "duration": 0.14021324999998797
                },
                {
                    "name": "E3",
                    "midi": 52,
                    "time": 518.7890249999996,
                    "velocity": 0.2755905511811024,
                    "duration": 0.14021324999998797
                },
                {
                    "name": "F3",
                    "midi": 53,
                    "time": 518.9759759999996,
                    "velocity": 0.33070866141732286,
                    "duration": 0.5608529999999519
                },
                {
                    "name": "D3",
                    "midi": 50,
                    "time": 518.9759759999996,
                    "velocity": 0.33070866141732286,
                    "duration": 0.9347549999998819
                },
                {
                    "name": "A3",
                    "midi": 57,
                    "time": 519.5368289999996,
                    "velocity": 0.31496062992125984,
                    "duration": 0.09347549999995408
                },
                {
                    "name": "G3",
                    "midi": 55,
                    "time": 519.6303044999995,
                    "velocity": 0.31496062992125984,
                    "duration": 0.09347549999995408
                },
                {
                    "name": "F3",
                    "midi": 53,
                    "time": 519.7237799999995,
                    "velocity": 0.3543307086614173,
                    "duration": 0.18695100000002185
                },
                {
                    "name": "A4",
                    "midi": 69,
                    "time": 520.4715839999994,
                    "velocity": 0.36220472440944884,
                    "duration": 0.4673774999999978
                },
                {
                    "name": "G4",
                    "midi": 67,
                    "time": 520.9389614999994,
                    "velocity": 0.31496062992125984,
                    "duration": 0.09347549999995408
                },
                {
                    "name": "F4",
                    "midi": 65,
                    "time": 521.0324369999994,
                    "velocity": 0.31496062992125984,
                    "duration": 0.09347549999995408
                },
                {
                    "name": "E4",
                    "midi": 64,
                    "time": 521.1259124999993,
                    "velocity": 0.31496062992125984,
                    "duration": 0.09347549999995408
                },
                {
                    "name": "D4",
                    "midi": 62,
                    "time": 521.2193879999993,
                    "velocity": 0.3543307086614173,
                    "duration": 0.18695100000002185
                },
                {
                    "name": "A2",
                    "midi": 45,
                    "time": 521.9671919999993,
                    "velocity": 0.2283464566929134,
                    "duration": 0.14021324999998797
                },
                {
                    "name": "C3",
                    "midi": 48,
                    "time": 521.9671919999993,
                    "velocity": 0.2755905511811024,
                    "duration": 0.14021324999998797
                },
                {
                    "name": "A2",
                    "midi": 45,
                    "time": 522.1541429999993,
                    "velocity": 0.2283464566929134,
                    "duration": 0.14021324999998797
                },
                {
                    "name": "C3",
                    "midi": 48,
                    "time": 522.1541429999993,
                    "velocity": 0.2755905511811024,
                    "duration": 0.14021324999998797
                },
                {
                    "name": "C3",
                    "midi": 48,
                    "time": 522.3410939999993,
                    "velocity": 0.2755905511811024,
                    "duration": 0.14021324999998797
                },
                {
                    "name": "A2",
                    "midi": 45,
                    "time": 522.3410939999993,
                    "velocity": 0.2283464566929134,
                    "duration": 0.14021324999998797
                },
                {
                    "name": "A2",
                    "midi": 45,
                    "time": 522.5280449999993,
                    "velocity": 0.2283464566929134,
                    "duration": 0.14021324999998797
                },
                {
                    "name": "C3",
                    "midi": 48,
                    "time": 522.5280449999993,
                    "velocity": 0.2755905511811024,
                    "duration": 0.14021324999998797
                },
                {
                    "name": "A2",
                    "midi": 45,
                    "time": 522.7149959999994,
                    "velocity": 0.2283464566929134,
                    "duration": 0.14021324999998797
                },
                {
                    "name": "C3",
                    "midi": 48,
                    "time": 522.7149959999994,
                    "velocity": 0.2755905511811024,
                    "duration": 0.14021324999998797
                },
                {
                    "name": "C3",
                    "midi": 48,
                    "time": 522.9019469999994,
                    "velocity": 0.2755905511811024,
                    "duration": 0.14021324999998797
                },
                {
                    "name": "A2",
                    "midi": 45,
                    "time": 522.9019469999994,
                    "velocity": 0.2283464566929134,
                    "duration": 0.14021324999998797
                },
                {
                    "name": "A2",
                    "midi": 45,
                    "time": 523.0888979999994,
                    "velocity": 0.2283464566929134,
                    "duration": 0.14021324999998797
                },
                {
                    "name": "C3",
                    "midi": 48,
                    "time": 523.0888979999994,
                    "velocity": 0.2755905511811024,
                    "duration": 0.14021324999998797
                },
                {
                    "name": "A2",
                    "midi": 45,
                    "time": 523.2758489999994,
                    "velocity": 0.2283464566929134,
                    "duration": 0.14021324999998797
                },
                {
                    "name": "C3",
                    "midi": 48,
                    "time": 523.2758489999994,
                    "velocity": 0.2755905511811024,
                    "duration": 0.14021324999998797
                },
                {
                    "name": "C3",
                    "midi": 48,
                    "time": 523.4627999999994,
                    "velocity": 0.2755905511811024,
                    "duration": 0.14021324999998797
                },
                {
                    "name": "A2",
                    "midi": 45,
                    "time": 523.4627999999994,
                    "velocity": 0.2283464566929134,
                    "duration": 0.14021324999998797
                },
                {
                    "name": "A2",
                    "midi": 45,
                    "time": 523.6497509999995,
                    "velocity": 0.2283464566929134,
                    "duration": 0.14021324999998797
                },
                {
                    "name": "C3",
                    "midi": 48,
                    "time": 523.6497509999995,
                    "velocity": 0.2755905511811024,
                    "duration": 0.14021324999998797
                },
                {
                    "name": "A2",
                    "midi": 45,
                    "time": 523.8367019999995,
                    "velocity": 0.2283464566929134,
                    "duration": 0.14021324999998797
                },
                {
                    "name": "C3",
                    "midi": 48,
                    "time": 523.8367019999995,
                    "velocity": 0.2755905511811024,
                    "duration": 0.14021324999998797
                },
                {
                    "name": "C3",
                    "midi": 48,
                    "time": 524.0236529999995,
                    "velocity": 0.2755905511811024,
                    "duration": 0.14021324999998797
                },
                {
                    "name": "A2",
                    "midi": 45,
                    "time": 524.0236529999995,
                    "velocity": 0.2283464566929134,
                    "duration": 0.14021324999998797
                },
                {
                    "name": "A2",
                    "midi": 45,
                    "time": 524.2106039999995,
                    "velocity": 0.2283464566929134,
                    "duration": 0.14021324999998797
                },
                {
                    "name": "C3",
                    "midi": 48,
                    "time": 524.2106039999995,
                    "velocity": 0.2755905511811024,
                    "duration": 0.14021324999998797
                },
                {
                    "name": "C3",
                    "midi": 48,
                    "time": 524.3975549999996,
                    "velocity": 0.2755905511811024,
                    "duration": 0.14021324999998797
                },
                {
                    "name": "A2",
                    "midi": 45,
                    "time": 524.3975549999996,
                    "velocity": 0.2283464566929134,
                    "duration": 0.14021324999998797
                },
                {
                    "name": "B2",
                    "midi": 47,
                    "time": 524.5845059999996,
                    "velocity": 0.2283464566929134,
                    "duration": 0.14021324999998797
                },
                {
                    "name": "D3",
                    "midi": 50,
                    "time": 524.5845059999996,
                    "velocity": 0.2755905511811024,
                    "duration": 0.14021324999998797
                },
                {
                    "name": "B2",
                    "midi": 47,
                    "time": 524.7714569999996,
                    "velocity": 0.2283464566929134,
                    "duration": 0.14021324999998797
                },
                {
                    "name": "D3",
                    "midi": 50,
                    "time": 524.7714569999996,
                    "velocity": 0.2755905511811024,
                    "duration": 0.14021324999998797
                },
                {
                    "name": "E3",
                    "midi": 52,
                    "time": 524.9584079999996,
                    "velocity": 0.33070866141732286,
                    "duration": 0.5608529999999519
                },
                {
                    "name": "C3",
                    "midi": 48,
                    "time": 524.9584079999996,
                    "velocity": 0.33070866141732286,
                    "duration": 0.9347549999998819
                },
                {
                    "name": "G3",
                    "midi": 55,
                    "time": 525.5192609999996,
                    "velocity": 0.31496062992125984,
                    "duration": 0.09347549999995408
                },
                {
                    "name": "F3",
                    "midi": 53,
                    "time": 525.6127364999995,
                    "velocity": 0.31496062992125984,
                    "duration": 0.09347549999995408
                },
                {
                    "name": "E3",
                    "midi": 52,
                    "time": 525.7062119999995,
                    "velocity": 0.3543307086614173,
                    "duration": 0.18695100000002185
                },
                {
                    "name": "C3",
                    "midi": 48,
                    "time": 526.4072782499995,
                    "velocity": 0.28346456692913385,
                    "duration": 0.046737750000033884
                },
                {
                    "name": "E4",
                    "midi": 64,
                    "time": 526.4540159999996,
                    "velocity": 0.36220472440944884,
                    "duration": 0.4673774999999978
                },
                {
                    "name": "D4",
                    "midi": 62,
                    "time": 526.9213934999996,
                    "velocity": 0.31496062992125984,
                    "duration": 0.09347549999995408
                },
                {
                    "name": "C4",
                    "midi": 60,
                    "time": 527.0148689999995,
                    "velocity": 0.31496062992125984,
                    "duration": 0.09347549999995408
                },
                {
                    "name": "B3",
                    "midi": 59,
                    "time": 527.1083444999995,
                    "velocity": 0.31496062992125984,
                    "duration": 0.09347549999995408
                },
                {
                    "name": "A3",
                    "midi": 57,
                    "time": 527.2018199999994,
                    "velocity": 0.3543307086614173,
                    "duration": 0.18695100000002185
                },
                {
                    "name": "F3",
                    "midi": 53,
                    "time": 527.9496239999994,
                    "velocity": 0.3464566929133858,
                    "duration": 0.5608529999999519
                },
                {
                    "name": "D3",
                    "midi": 50,
                    "time": 527.9496239999994,
                    "velocity": 0.3464566929133858,
                    "duration": 0.9347549999998819
                },
                {
                    "name": "A3",
                    "midi": 57,
                    "time": 528.5104769999994,
                    "velocity": 0.33858267716535434,
                    "duration": 0.09347549999995408
                },
                {
                    "name": "G3",
                    "midi": 55,
                    "time": 528.6039524999993,
                    "velocity": 0.33858267716535434,
                    "duration": 0.09347549999995408
                },
                {
                    "name": "F3",
                    "midi": 53,
                    "time": 528.6974279999993,
                    "velocity": 0.3858267716535433,
                    "duration": 0.18695100000002185
                },
                {
                    "name": "D3",
                    "midi": 50,
                    "time": 529.3984942499993,
                    "velocity": 0.2755905511811024,
                    "duration": 0.046737750000033884
                },
                {
                    "name": "F4",
                    "midi": 65,
                    "time": 529.4452319999994,
                    "velocity": 0.4330708661417323,
                    "duration": 0.4673774999999978
                },
                {
                    "name": "E4",
                    "midi": 64,
                    "time": 529.9126094999993,
                    "velocity": 0.36220472440944884,
                    "duration": 0.09347549999995408
                },
                {
                    "name": "D4",
                    "midi": 62,
                    "time": 530.0060849999993,
                    "velocity": 0.36220472440944884,
                    "duration": 0.09347549999995408
                },
                {
                    "name": "C4",
                    "midi": 60,
                    "time": 530.0995604999993,
                    "velocity": 0.36220472440944884,
                    "duration": 0.09347549999995408
                },
                {
                    "name": "B3",
                    "midi": 59,
                    "time": 530.1930359999992,
                    "velocity": 0.4094488188976378,
                    "duration": 0.3739020000000437
                },
                {
                    "name": "E3",
                    "midi": 52,
                    "time": 530.8941022499993,
                    "velocity": 0.31496062992125984,
                    "duration": 0.046737750000033884
                },
                {
                    "name": "G4",
                    "midi": 67,
                    "time": 530.9408399999993,
                    "velocity": 0.5039370078740157,
                    "duration": 0.4673774999999978
                },
                {
                    "name": "F4",
                    "midi": 65,
                    "time": 531.4082174999993,
                    "velocity": 0.4094488188976378,
                    "duration": 0.09347549999995408
                },
                {
                    "name": "E4",
                    "midi": 64,
                    "time": 531.5016929999992,
                    "velocity": 0.4015748031496063,
                    "duration": 0.09347549999995408
                },
                {
                    "name": "D4",
                    "midi": 62,
                    "time": 531.5951684999992,
                    "velocity": 0.4015748031496063,
                    "duration": 0.09347549999995408
                },
                {
                    "name": "C#4",
                    "midi": 61,
                    "time": 531.6886439999992,
                    "velocity": 0.4409448818897638,
                    "duration": 0.3739020000000437
                },
                {
                    "name": "F3",
                    "midi": 53,
                    "time": 532.3897102499992,
                    "velocity": 0.36220472440944884,
                    "duration": 0.046737750000033884
                },
                {
                    "name": "A4",
                    "midi": 69,
                    "time": 532.4364479999992,
                    "velocity": 0.5748031496062992,
                    "duration": 0.3739020000000437
                },
                {
                    "name": "G4",
                    "midi": 67,
                    "time": 532.8103499999993,
                    "velocity": 0.47244094488188976,
                    "duration": 0.09347549999995408
                },
                {
                    "name": "F4",
                    "midi": 65,
                    "time": 532.9038254999992,
                    "velocity": 0.47244094488188976,
                    "duration": 0.09347549999995408
                },
                {
                    "name": "E4",
                    "midi": 64,
                    "time": 532.9973009999992,
                    "velocity": 0.47244094488188976,
                    "duration": 0.09347549999995408
                },
                {
                    "name": "D4",
                    "midi": 62,
                    "time": 533.0907764999992,
                    "velocity": 0.4645669291338583,
                    "duration": 0.046737750000033884
                },
                {
                    "name": "G3",
                    "midi": 55,
                    "time": 533.1375142499992,
                    "velocity": 0.3700787401574803,
                    "duration": 0.046737750000033884
                },
                {
                    "name": "B4",
                    "midi": 71,
                    "time": 533.1842519999992,
                    "velocity": 0.5905511811023622,
                    "duration": 0.3739020000000437
                },
                {
                    "name": "A4",
                    "midi": 69,
                    "time": 533.5581539999993,
                    "velocity": 0.4881889763779528,
                    "duration": 0.09347549999995408
                },
                {
                    "name": "G4",
                    "midi": 67,
                    "time": 533.6516294999992,
                    "velocity": 0.4881889763779528,
                    "duration": 0.09347549999995408
                },
                {
                    "name": "F4",
                    "midi": 65,
                    "time": 533.7451049999992,
                    "velocity": 0.49606299212598426,
                    "duration": 0.09347549999995408
                },
                {
                    "name": "E4",
                    "midi": 64,
                    "time": 533.8385804999991,
                    "velocity": 0.4881889763779528,
                    "duration": 0.046737750000033884
                },
                {
                    "name": "A3",
                    "midi": 57,
                    "time": 533.8853182499992,
                    "velocity": 0.3937007874015748,
                    "duration": 0.046737750000033884
                },
                {
                    "name": "C5",
                    "midi": 72,
                    "time": 533.9320559999992,
                    "velocity": 0.6141732283464567,
                    "duration": 0.3739020000000437
                },
                {
                    "name": "B4",
                    "midi": 71,
                    "time": 534.3059579999992,
                    "velocity": 0.5039370078740157,
                    "duration": 0.09347549999995408
                },
                {
                    "name": "A4",
                    "midi": 69,
                    "time": 534.3994334999992,
                    "velocity": 0.5039370078740157,
                    "duration": 0.09347549999995408
                },
                {
                    "name": "G4",
                    "midi": 67,
                    "time": 534.4929089999991,
                    "velocity": 0.5118110236220472,
                    "duration": 0.09347549999995408
                },
                {
                    "name": "F4",
                    "midi": 65,
                    "time": 534.5863844999991,
                    "velocity": 0.5039370078740157,
                    "duration": 0.046737750000033884
                },
                {
                    "name": "B3",
                    "midi": 59,
                    "time": 534.6331222499991,
                    "velocity": 0.4251968503937008,
                    "duration": 0.046737750000033884
                },
                {
                    "name": "D5",
                    "midi": 74,
                    "time": 534.6798599999992,
                    "velocity": 0.6377952755905512,
                    "duration": 0.3739020000000437
                },
                {
                    "name": "C5",
                    "midi": 72,
                    "time": 535.0537619999992,
                    "velocity": 0.5275590551181102,
                    "duration": 0.09347549999995408
                },
                {
                    "name": "B4",
                    "midi": 71,
                    "time": 535.1472374999992,
                    "velocity": 0.5275590551181102,
                    "duration": 0.09347549999995408
                },
                {
                    "name": "A4",
                    "midi": 69,
                    "time": 535.2407129999991,
                    "velocity": 0.5275590551181102,
                    "duration": 0.09347549999995408
                },
                {
                    "name": "G4",
                    "midi": 67,
                    "time": 535.3341884999991,
                    "velocity": 0.5196850393700787,
                    "duration": 0.046737750000033884
                },
                {
                    "name": "C4",
                    "midi": 60,
                    "time": 535.3809262499991,
                    "velocity": 0.4409448818897638,
                    "duration": 0.046737750000033884
                },
                {
                    "name": "E5",
                    "midi": 76,
                    "time": 535.4276639999991,
                    "velocity": 0.6614173228346457,
                    "duration": 0.3739020000000437
                },
                {
                    "name": "D5",
                    "midi": 74,
                    "time": 535.8015659999992,
                    "velocity": 0.5433070866141733,
                    "duration": 0.09347549999995408
                },
                {
                    "name": "C5",
                    "midi": 72,
                    "time": 535.8950414999991,
                    "velocity": 0.5511811023622047,
                    "duration": 0.09347549999995408
                },
                {
                    "name": "B4",
                    "midi": 71,
                    "time": 535.9885169999991,
                    "velocity": 0.5511811023622047,
                    "duration": 0.09347549999995408
                },
                {
                    "name": "A4",
                    "midi": 69,
                    "time": 536.081992499999,
                    "velocity": 0.5433070866141733,
                    "duration": 0.046737750000033884
                },
                {
                    "name": "D4",
                    "midi": 62,
                    "time": 536.1287302499991,
                    "velocity": 0.4566929133858268,
                    "duration": 0.046737750000033884
                },
                {
                    "name": "F5",
                    "midi": 77,
                    "time": 536.1754679999991,
                    "velocity": 0.6850393700787402,
                    "duration": 0.3739020000000437
                },
                {
                    "name": "E5",
                    "midi": 76,
                    "time": 536.5493699999992,
                    "velocity": 0.5590551181102362,
                    "duration": 0.09347549999995408
                },
                {
                    "name": "D5",
                    "midi": 74,
                    "time": 536.6428454999991,
                    "velocity": 0.5669291338582677,
                    "duration": 0.09347549999995408
                },
                {
                    "name": "C5",
                    "midi": 72,
                    "time": 536.7363209999991,
                    "velocity": 0.5669291338582677,
                    "duration": 0.09347549999995408
                },
                {
                    "name": "B4",
                    "midi": 71,
                    "time": 536.829796499999,
                    "velocity": 0.5590551181102362,
                    "duration": 0.09347549999995408
                },
                {
                    "name": "E4",
                    "midi": 64,
                    "time": 536.923271999999,
                    "velocity": 0.6141732283464567,
                    "duration": 0.06231700000000728
                },
                {
                    "name": "C5",
                    "midi": 72,
                    "time": 536.985588999999,
                    "velocity": 0.5826771653543307,
                    "duration": 0.06231700000000728
                },
                {
                    "name": "E5",
                    "midi": 76,
                    "time": 537.047905999999,
                    "velocity": 0.5826771653543307,
                    "duration": 0.06231700000000728
                },
                {
                    "name": "E4",
                    "midi": 64,
                    "time": 537.297173999999,
                    "velocity": 0.6220472440944882,
                    "duration": 0.06231700000000728
                },
                {
                    "name": "C5",
                    "midi": 72,
                    "time": 537.359490999999,
                    "velocity": 0.5826771653543307,
                    "duration": 0.06231700000000728
                },
                {
                    "name": "E5",
                    "midi": 76,
                    "time": 537.421807999999,
                    "velocity": 0.5905511811023622,
                    "duration": 0.06231700000000728
                },
                {
                    "name": "E4",
                    "midi": 64,
                    "time": 537.6710759999991,
                    "velocity": 0.6377952755905512,
                    "duration": 0.06231700000000728
                },
                {
                    "name": "C5",
                    "midi": 72,
                    "time": 537.7333929999991,
                    "velocity": 0.6062992125984252,
                    "duration": 0.06231700000000728
                },
                {
                    "name": "E5",
                    "midi": 76,
                    "time": 537.7957099999991,
                    "velocity": 0.6062992125984252,
                    "duration": 0.06231700000000728
                },
                {
                    "name": "E4",
                    "midi": 64,
                    "time": 538.0449779999991,
                    "velocity": 0.6377952755905512,
                    "duration": 0.06231700000000728
                },
                {
                    "name": "C5",
                    "midi": 72,
                    "time": 538.1072949999991,
                    "velocity": 0.6141732283464567,
                    "duration": 0.06231700000000728
                },
                {
                    "name": "E5",
                    "midi": 76,
                    "time": 538.1696119999991,
                    "velocity": 0.6220472440944882,
                    "duration": 0.06231700000000728
                },
                {
                    "name": "C5",
                    "midi": 72,
                    "time": 538.4188799999991,
                    "velocity": 0.5905511811023622,
                    "duration": 0.3739020000000437
                },
                {
                    "name": "F5",
                    "midi": 77,
                    "time": 538.4188799999991,
                    "velocity": 0.5905511811023622,
                    "duration": 0.3739020000000437
                },
                {
                    "name": "F4",
                    "midi": 65,
                    "time": 538.4188799999991,
                    "velocity": 0.5905511811023622,
                    "duration": 0.3739020000000437
                },
                {
                    "name": "F1",
                    "midi": 29,
                    "time": 540.2883899999991,
                    "velocity": 0.5905511811023622,
                    "duration": 0.4673774999999978
                },
                {
                    "name": "G1",
                    "midi": 31,
                    "time": 540.7557674999991,
                    "velocity": 0.5354330708661418,
                    "duration": 0.09347549999995408
                },
                {
                    "name": "A1",
                    "midi": 33,
                    "time": 540.8492429999991,
                    "velocity": 0.5433070866141733,
                    "duration": 0.09347549999995408
                },
                {
                    "name": "B1",
                    "midi": 35,
                    "time": 540.942718499999,
                    "velocity": 0.5511811023622047,
                    "duration": 0.09347549999995408
                },
                {
                    "name": "C2",
                    "midi": 36,
                    "time": 541.036193999999,
                    "velocity": 0.5590551181102362,
                    "duration": 0.09347549999995408
                },
                {
                    "name": "D2",
                    "midi": 38,
                    "time": 541.129669499999,
                    "velocity": 0.5748031496062992,
                    "duration": 0.09347549999995408
                },
                {
                    "name": "E2",
                    "midi": 40,
                    "time": 541.2231449999989,
                    "velocity": 0.5826771653543307,
                    "duration": 0.09347549999995408
                },
                {
                    "name": "F2",
                    "midi": 41,
                    "time": 541.3166204999989,
                    "velocity": 0.5905511811023622,
                    "duration": 0.09347549999995408
                },
                {
                    "name": "G1",
                    "midi": 31,
                    "time": 541.4100959999988,
                    "velocity": 0.49606299212598426,
                    "duration": 0.3739020000000437
                },
                {
                    "name": "C2",
                    "midi": 36,
                    "time": 541.4100959999988,
                    "velocity": 0.49606299212598426,
                    "duration": 0.3739020000000437
                },
                {
                    "name": "E2",
                    "midi": 40,
                    "time": 541.4100959999988,
                    "velocity": 0.5905511811023622,
                    "duration": 0.3739020000000437
                },
                {
                    "name": "E5",
                    "midi": 76,
                    "time": 544.8686894999988,
                    "velocity": 0.4094488188976378,
                    "duration": 0.09347549999995408
                },
                {
                    "name": "D#5",
                    "midi": 75,
                    "time": 544.9621649999988,
                    "velocity": 0.4094488188976378,
                    "duration": 0.09347549999995408
                },
                {
                    "name": "E5",
                    "midi": 76,
                    "time": 545.0556404999987,
                    "velocity": 0.41732283464566927,
                    "duration": 0.09347549999995408
                },
                {
                    "name": "G4",
                    "midi": 67,
                    "time": 545.1491159999987,
                    "velocity": 0.47244094488188976,
                    "duration": 0.046737750000033884
                },
                {
                    "name": "C5",
                    "midi": 72,
                    "time": 545.2425914999988,
                    "velocity": 0.4251968503937008,
                    "duration": 0.09347549999995408
                },
                {
                    "name": "B4",
                    "midi": 71,
                    "time": 545.3360669999987,
                    "velocity": 0.4330708661417323,
                    "duration": 0.09347549999995408
                },
                {
                    "name": "C5",
                    "midi": 72,
                    "time": 545.4295424999987,
                    "velocity": 0.4330708661417323,
                    "duration": 0.09347549999995408
                },
                {
                    "name": "G4",
                    "midi": 67,
                    "time": 545.5230179999986,
                    "velocity": 0.48031496062992124,
                    "duration": 0.046737750000033884
                },
                {
                    "name": "E5",
                    "midi": 76,
                    "time": 545.6164934999987,
                    "velocity": 0.4409448818897638,
                    "duration": 0.09347549999995408
                },
                {
                    "name": "D#5",
                    "midi": 75,
                    "time": 545.7099689999986,
                    "velocity": 0.4409448818897638,
                    "duration": 0.09347549999995408
                },
                {
                    "name": "E5",
                    "midi": 76,
                    "time": 545.8034444999986,
                    "velocity": 0.4409448818897638,
                    "duration": 0.09347549999995408
                },
                {
                    "name": "G4",
                    "midi": 67,
                    "time": 545.8969199999985,
                    "velocity": 0.49606299212598426,
                    "duration": 0.046737750000033884
                },
                {
                    "name": "C5",
                    "midi": 72,
                    "time": 545.9903954999986,
                    "velocity": 0.44881889763779526,
                    "duration": 0.09347549999995408
                },
                {
                    "name": "B4",
                    "midi": 71,
                    "time": 546.0838709999986,
                    "velocity": 0.4566929133858268,
                    "duration": 0.09347549999995408
                },
                {
                    "name": "C5",
                    "midi": 72,
                    "time": 546.1773464999985,
                    "velocity": 0.4566929133858268,
                    "duration": 0.09347549999995408
                },
                {
                    "name": "G4",
                    "midi": 67,
                    "time": 546.2708219999985,
                    "velocity": 0.5118110236220472,
                    "duration": 0.046737750000033884
                },
                {
                    "name": "E5",
                    "midi": 76,
                    "time": 546.3642974999985,
                    "velocity": 0.4645669291338583,
                    "duration": 0.09347549999995408
                },
                {
                    "name": "D#5",
                    "midi": 75,
                    "time": 546.4577729999985,
                    "velocity": 0.4645669291338583,
                    "duration": 0.09347549999995408
                },
                {
                    "name": "E5",
                    "midi": 76,
                    "time": 546.5512484999985,
                    "velocity": 0.4645669291338583,
                    "duration": 0.09347549999995408
                },
                {
                    "name": "G4",
                    "midi": 67,
                    "time": 546.6447239999984,
                    "velocity": 0.5275590551181102,
                    "duration": 0.046737750000033884
                },
                {
                    "name": "C5",
                    "midi": 72,
                    "time": 546.7381994999985,
                    "velocity": 0.47244094488188976,
                    "duration": 0.09347549999995408
                },
                {
                    "name": "B4",
                    "midi": 71,
                    "time": 546.8316749999984,
                    "velocity": 0.47244094488188976,
                    "duration": 0.09347549999995408
                },
                {
                    "name": "C5",
                    "midi": 72,
                    "time": 546.9251504999984,
                    "velocity": 0.48031496062992124,
                    "duration": 0.09347549999995408
                },
                {
                    "name": "G4",
                    "midi": 67,
                    "time": 547.0186259999983,
                    "velocity": 0.5433070866141733,
                    "duration": 0.046737750000033884
                },
                {
                    "name": "E5",
                    "midi": 76,
                    "time": 547.1121014999984,
                    "velocity": 0.4881889763779528,
                    "duration": 0.09347549999995408
                },
                {
                    "name": "D#5",
                    "midi": 75,
                    "time": 547.2055769999984,
                    "velocity": 0.4881889763779528,
                    "duration": 0.09347549999995408
                },
                {
                    "name": "E5",
                    "midi": 76,
                    "time": 547.2990524999983,
                    "velocity": 0.49606299212598426,
                    "duration": 0.09347549999995408
                },
                {
                    "name": "D5",
                    "midi": 74,
                    "time": 547.3925279999983,
                    "velocity": 0.5748031496062992,
                    "duration": 1.4956079999999474
                },
                {
                    "name": "G4",
                    "midi": 67,
                    "time": 547.3925279999983,
                    "velocity": 0.5748031496062992,
                    "duration": 1.4956079999999474
                },
                {
                    "name": "F5",
                    "midi": 77,
                    "time": 547.3925279999983,
                    "velocity": 0.5748031496062992,
                    "duration": 1.4956079999999474
                },
                {
                    "name": "F4",
                    "midi": 65,
                    "time": 548.8881359999982,
                    "velocity": 0.5118110236220472,
                    "duration": 1.4956079999999474
                },
                {
                    "name": "G3",
                    "midi": 55,
                    "time": 548.8881359999982,
                    "velocity": 0.5118110236220472,
                    "duration": 1.4956079999999474
                },
                {
                    "name": "D4",
                    "midi": 62,
                    "time": 548.8881359999982,
                    "velocity": 0.5118110236220472,
                    "duration": 1.4956079999999474
                },
                {
                    "name": "C3",
                    "midi": 48,
                    "time": 550.3837439999982,
                    "velocity": 0.30708661417322836,
                    "duration": 0.7478039999999737
                },
                {
                    "name": "C2",
                    "midi": 36,
                    "time": 550.3837439999982,
                    "velocity": 0.25984251968503935,
                    "duration": 0.7478039999999737
                },
                {
                    "name": "G#2",
                    "midi": 44,
                    "time": 551.1315479999981,
                    "velocity": 0.2283464566929134,
                    "duration": 0.3739020000000437
                },
                {
                    "name": "G#1",
                    "midi": 32,
                    "time": 551.1315479999981,
                    "velocity": 0.2283464566929134,
                    "duration": 0.3739020000000437
                },
                {
                    "name": "A2",
                    "midi": 45,
                    "time": 551.5054499999982,
                    "velocity": 0.2755905511811024,
                    "duration": 0.3739020000000437
                },
                {
                    "name": "A1",
                    "midi": 33,
                    "time": 551.5054499999982,
                    "velocity": 0.2283464566929134,
                    "duration": 0.3739020000000437
                },
                {
                    "name": "E2",
                    "midi": 40,
                    "time": 551.8793519999982,
                    "velocity": 0.30708661417322836,
                    "duration": 0.7478039999999737
                },
                {
                    "name": "F2",
                    "midi": 41,
                    "time": 552.6271559999982,
                    "velocity": 0.2677165354330709,
                    "duration": 0.7478039999999737
                },
                {
                    "name": "F3",
                    "midi": 53,
                    "time": 553.3749599999982,
                    "velocity": 0.3228346456692913,
                    "duration": 0.7478039999999737
                },
                {
                    "name": "G3",
                    "midi": 55,
                    "time": 553.3749599999982,
                    "velocity": 0.2677165354330709,
                    "duration": 0.7478039999999737
                },
                {
                    "name": "B3",
                    "midi": 59,
                    "time": 553.3749599999982,
                    "velocity": 0.3228346456692913,
                    "duration": 0.7478039999999737
                },
                {
                    "name": "D3",
                    "midi": 50,
                    "time": 553.3749599999982,
                    "velocity": 0.2677165354330709,
                    "duration": 0.7478039999999737
                },
                {
                    "name": "G3",
                    "midi": 55,
                    "time": 554.1227639999981,
                    "velocity": 0.2992125984251969,
                    "duration": 0.3739020000000437
                },
                {
                    "name": "C4",
                    "midi": 60,
                    "time": 554.1227639999981,
                    "velocity": 0.36220472440944884,
                    "duration": 0.3739020000000437
                },
                {
                    "name": "E3",
                    "midi": 52,
                    "time": 554.1227639999981,
                    "velocity": 0.2992125984251969,
                    "duration": 0.3739020000000437
                },
                {
                    "name": "D4",
                    "midi": 62,
                    "time": 554.4966659999982,
                    "velocity": 0.4015748031496063,
                    "duration": 0.3739020000000437
                },
                {
                    "name": "F3",
                    "midi": 53,
                    "time": 554.4966659999982,
                    "velocity": 0.33858267716535434,
                    "duration": 0.3739020000000437
                },
                {
                    "name": "C4",
                    "midi": 60,
                    "time": 554.4966659999982,
                    "velocity": 0.33858267716535434,
                    "duration": 0.3739020000000437
                },
                {
                    "name": "A3",
                    "midi": 57,
                    "time": 554.4966659999982,
                    "velocity": 0.33858267716535434,
                    "duration": 0.3739020000000437
                },
                {
                    "name": "G3",
                    "midi": 55,
                    "time": 554.8705679999982,
                    "velocity": 0.36220472440944884,
                    "duration": 1.4956079999999474
                },
                {
                    "name": "C4",
                    "midi": 60,
                    "time": 554.8705679999982,
                    "velocity": 0.36220472440944884,
                    "duration": 0.7478039999999737
                },
                {
                    "name": "E4",
                    "midi": 64,
                    "time": 554.8705679999982,
                    "velocity": 0.4409448818897638,
                    "duration": 0.7478039999999737
                },
                {
                    "name": "B3",
                    "midi": 59,
                    "time": 555.6183719999982,
                    "velocity": 0.3228346456692913,
                    "duration": 0.7478039999999737
                },
                {
                    "name": "D4",
                    "midi": 62,
                    "time": 555.6183719999982,
                    "velocity": 0.3858267716535433,
                    "duration": 0.7478039999999737
                },
                {
                    "name": "E5",
                    "midi": 76,
                    "time": 556.3661759999982,
                    "velocity": 0.3937007874015748,
                    "duration": 0.7478039999999737
                },
                {
                    "name": "C5",
                    "midi": 72,
                    "time": 556.3661759999982,
                    "velocity": 0.33070866141732286,
                    "duration": 0.7478039999999737
                },
                {
                    "name": "D5",
                    "midi": 74,
                    "time": 557.1139799999982,
                    "velocity": 0.3779527559055118,
                    "duration": 0.3739020000000437
                },
                {
                    "name": "G#4",
                    "midi": 68,
                    "time": 557.1139799999982,
                    "velocity": 0.31496062992125984,
                    "duration": 0.3739020000000437
                },
                {
                    "name": "B4",
                    "midi": 71,
                    "time": 557.1139799999982,
                    "velocity": 0.31496062992125984,
                    "duration": 0.3739020000000437
                },
                {
                    "name": "A4",
                    "midi": 69,
                    "time": 557.4878819999982,
                    "velocity": 0.31496062992125984,
                    "duration": 0.3739020000000437
                },
                {
                    "name": "C5",
                    "midi": 72,
                    "time": 557.4878819999982,
                    "velocity": 0.3779527559055118,
                    "duration": 0.3739020000000437
                },
                {
                    "name": "E4",
                    "midi": 64,
                    "time": 557.8617839999982,
                    "velocity": 0.33070866141732286,
                    "duration": 0.7478039999999737
                },
                {
                    "name": "G#4",
                    "midi": 68,
                    "time": 557.8617839999982,
                    "velocity": 0.33070866141732286,
                    "duration": 0.7478039999999737
                },
                {
                    "name": "B4",
                    "midi": 71,
                    "time": 557.8617839999982,
                    "velocity": 0.3937007874015748,
                    "duration": 0.7478039999999737
                },
                {
                    "name": "F4",
                    "midi": 65,
                    "time": 558.6095879999982,
                    "velocity": 0.31496062992125984,
                    "duration": 0.7478039999999737
                },
                {
                    "name": "A4",
                    "midi": 69,
                    "time": 558.6095879999982,
                    "velocity": 0.3779527559055118,
                    "duration": 0.7478039999999737
                },
                {
                    "name": "C4",
                    "midi": 60,
                    "time": 559.3573919999982,
                    "velocity": 0.2677165354330709,
                    "duration": 0.3739020000000437
                },
                {
                    "name": "E4",
                    "midi": 64,
                    "time": 559.3573919999982,
                    "velocity": 0.31496062992125984,
                    "duration": 0.3739020000000437
                },
                {
                    "name": "G3",
                    "midi": 55,
                    "time": 559.3573919999982,
                    "velocity": 0.2677165354330709,
                    "duration": 1.495608000000061
                },
                {
                    "name": "F4",
                    "midi": 65,
                    "time": 559.7312939999982,
                    "velocity": 0.2755905511811024,
                    "duration": 1.1217060000000174
                },
                {
                    "name": "D4",
                    "midi": 62,
                    "time": 559.7312939999982,
                    "velocity": 0.2283464566929134,
                    "duration": 1.1217060000000174
                },
                {
                    "name": "G2",
                    "midi": 43,
                    "time": 560.8529999999982,
                    "velocity": 0.2677165354330709,
                    "duration": 2.9912160000000085
                },
                {
                    "name": "E3",
                    "midi": 52,
                    "time": 560.8529999999982,
                    "velocity": 0.31496062992125984,
                    "duration": 0.3739020000000437
                },
                {
                    "name": "C3",
                    "midi": 48,
                    "time": 560.8529999999982,
                    "velocity": 0.2677165354330709,
                    "duration": 0.3739020000000437
                },
                {
                    "name": "D3",
                    "midi": 50,
                    "time": 561.2269019999983,
                    "velocity": 0.2283464566929134,
                    "duration": 2.617313999999965
                },
                {
                    "name": "F3",
                    "midi": 53,
                    "time": 561.2269019999983,
                    "velocity": 0.2755905511811024,
                    "duration": 2.617313999999965
                },
                {
                    "name": "G1",
                    "midi": 31,
                    "time": 563.8442159999983,
                    "velocity": 0.2677165354330709,
                    "duration": 2.9912160000000085
                },
                {
                    "name": "C2",
                    "midi": 36,
                    "time": 563.8442159999983,
                    "velocity": 0.2677165354330709,
                    "duration": 0.3739020000000437
                },
                {
                    "name": "E2",
                    "midi": 40,
                    "time": 563.8442159999983,
                    "velocity": 0.31496062992125984,
                    "duration": 0.3739020000000437
                },
                {
                    "name": "D2",
                    "midi": 38,
                    "time": 564.2181179999983,
                    "velocity": 0.2283464566929134,
                    "duration": 2.617313999999965
                },
                {
                    "name": "F2",
                    "midi": 41,
                    "time": 564.2181179999983,
                    "velocity": 0.2755905511811024,
                    "duration": 2.617313999999965
                },
                {
                    "name": "C3",
                    "midi": 48,
                    "time": 566.8354319999983,
                    "velocity": 0.1968503937007874,
                    "duration": 0.09347549999995408
                },
                {
                    "name": "C2",
                    "midi": 36,
                    "time": 566.8354319999983,
                    "velocity": 0.1968503937007874,
                    "duration": 0.09347549999995408
                },
                {
                    "name": "G3",
                    "midi": 55,
                    "time": 567.0223829999982,
                    "velocity": 0.2047244094488189,
                    "duration": 0.09347549999995408
                },
                {
                    "name": "C3",
                    "midi": 48,
                    "time": 567.0223829999982,
                    "velocity": 0.1732283464566929,
                    "duration": 0.09347549999995408
                },
                {
                    "name": "G3",
                    "midi": 55,
                    "time": 567.2093339999981,
                    "velocity": 0.2047244094488189,
                    "duration": 0.09347549999995408
                },
                {
                    "name": "C3",
                    "midi": 48,
                    "time": 567.2093339999981,
                    "velocity": 0.1732283464566929,
                    "duration": 0.09347549999995408
                },
                {
                    "name": "G3",
                    "midi": 55,
                    "time": 567.396284999998,
                    "velocity": 0.2125984251968504,
                    "duration": 0.09347549999995408
                },
                {
                    "name": "C3",
                    "midi": 48,
                    "time": 567.396284999998,
                    "velocity": 0.1732283464566929,
                    "duration": 0.09347549999995408
                },
                {
                    "name": "C3",
                    "midi": 48,
                    "time": 567.5832359999979,
                    "velocity": 0.1732283464566929,
                    "duration": 0.09347549999995408
                },
                {
                    "name": "G3",
                    "midi": 55,
                    "time": 567.5832359999979,
                    "velocity": 0.2125984251968504,
                    "duration": 0.09347549999995408
                },
                {
                    "name": "G3",
                    "midi": 55,
                    "time": 567.7701869999978,
                    "velocity": 0.2204724409448819,
                    "duration": 0.09347549999995408
                },
                {
                    "name": "C3",
                    "midi": 48,
                    "time": 567.7701869999978,
                    "velocity": 0.18110236220472442,
                    "duration": 0.09347549999995408
                },
                {
                    "name": "G3",
                    "midi": 55,
                    "time": 567.9571379999977,
                    "velocity": 0.2204724409448819,
                    "duration": 0.09347549999995408
                },
                {
                    "name": "C3",
                    "midi": 48,
                    "time": 567.9571379999977,
                    "velocity": 0.18110236220472442,
                    "duration": 0.09347549999995408
                },
                {
                    "name": "G3",
                    "midi": 55,
                    "time": 568.1440889999976,
                    "velocity": 0.2283464566929134,
                    "duration": 0.09347549999995408
                },
                {
                    "name": "C3",
                    "midi": 48,
                    "time": 568.1440889999976,
                    "velocity": 0.1889763779527559,
                    "duration": 0.09347549999995408
                },
                {
                    "name": "C3",
                    "midi": 48,
                    "time": 568.3310399999975,
                    "velocity": 0.1968503937007874,
                    "duration": 0.09347549999995408
                },
                {
                    "name": "G3",
                    "midi": 55,
                    "time": 568.3310399999975,
                    "velocity": 0.23622047244094488,
                    "duration": 0.09347549999995408
                },
                {
                    "name": "C3",
                    "midi": 48,
                    "time": 568.5179909999974,
                    "velocity": 0.1732283464566929,
                    "duration": 0.09347549999995408
                },
                {
                    "name": "G3",
                    "midi": 55,
                    "time": 568.5179909999974,
                    "velocity": 0.2125984251968504,
                    "duration": 0.09347549999995408
                },
                {
                    "name": "C3",
                    "midi": 48,
                    "time": 568.7049419999973,
                    "velocity": 0.18110236220472442,
                    "duration": 0.09347549999995408
                },
                {
                    "name": "G3",
                    "midi": 55,
                    "time": 568.7049419999973,
                    "velocity": 0.2204724409448819,
                    "duration": 0.09347549999995408
                },
                {
                    "name": "G3",
                    "midi": 55,
                    "time": 568.8918929999973,
                    "velocity": 0.2283464566929134,
                    "duration": 0.09347549999995408
                },
                {
                    "name": "C3",
                    "midi": 48,
                    "time": 568.8918929999973,
                    "velocity": 0.1889763779527559,
                    "duration": 0.09347549999995408
                },
                {
                    "name": "G3",
                    "midi": 55,
                    "time": 569.0788439999972,
                    "velocity": 0.23622047244094488,
                    "duration": 0.09347549999995408
                },
                {
                    "name": "C3",
                    "midi": 48,
                    "time": 569.0788439999972,
                    "velocity": 0.1968503937007874,
                    "duration": 0.09347549999995408
                },
                {
                    "name": "C3",
                    "midi": 48,
                    "time": 569.2657949999971,
                    "velocity": 0.1968503937007874,
                    "duration": 0.09347549999995408
                },
                {
                    "name": "G3",
                    "midi": 55,
                    "time": 569.2657949999971,
                    "velocity": 0.23622047244094488,
                    "duration": 0.09347549999995408
                },
                {
                    "name": "A3",
                    "midi": 57,
                    "time": 569.452745999997,
                    "velocity": 0.23622047244094488,
                    "duration": 0.09347549999995408
                },
                {
                    "name": "C3",
                    "midi": 48,
                    "time": 569.452745999997,
                    "velocity": 0.1968503937007874,
                    "duration": 0.09347549999995408
                },
                {
                    "name": "C3",
                    "midi": 48,
                    "time": 569.6396969999969,
                    "velocity": 0.1968503937007874,
                    "duration": 0.09347549999995408
                },
                {
                    "name": "A3",
                    "midi": 57,
                    "time": 569.6396969999969,
                    "velocity": 0.23622047244094488,
                    "duration": 0.09347549999995408
                },
                {
                    "name": "B2",
                    "midi": 47,
                    "time": 569.8266479999968,
                    "velocity": 0.2204724409448819,
                    "duration": 0.14021324999998797
                },
                {
                    "name": "D3",
                    "midi": 50,
                    "time": 569.8266479999968,
                    "velocity": 0.2204724409448819,
                    "duration": 0.14021324999998797
                },
                {
                    "name": "G3",
                    "midi": 55,
                    "time": 569.8266479999968,
                    "velocity": 0.2677165354330709,
                    "duration": 0.14021324999998797
                },
                {
                    "name": "G3",
                    "midi": 55,
                    "time": 570.0135989999968,
                    "velocity": 0.2677165354330709,
                    "duration": 0.14021324999998797
                },
                {
                    "name": "B2",
                    "midi": 47,
                    "time": 570.0135989999968,
                    "velocity": 0.2204724409448819,
                    "duration": 0.14021324999998797
                },
                {
                    "name": "D3",
                    "midi": 50,
                    "time": 570.0135989999968,
                    "velocity": 0.2204724409448819,
                    "duration": 0.14021324999998797
                },
                {
                    "name": "B2",
                    "midi": 47,
                    "time": 570.2005499999968,
                    "velocity": 0.2204724409448819,
                    "duration": 0.14021324999998797
                },
                {
                    "name": "D3",
                    "midi": 50,
                    "time": 570.2005499999968,
                    "velocity": 0.2204724409448819,
                    "duration": 0.14021324999998797
                },
                {
                    "name": "G3",
                    "midi": 55,
                    "time": 570.2005499999968,
                    "velocity": 0.2677165354330709,
                    "duration": 0.14021324999998797
                },
                {
                    "name": "B2",
                    "midi": 47,
                    "time": 570.3875009999969,
                    "velocity": 0.2204724409448819,
                    "duration": 0.14021324999998797
                },
                {
                    "name": "D3",
                    "midi": 50,
                    "time": 570.3875009999969,
                    "velocity": 0.2204724409448819,
                    "duration": 0.14021324999998797
                },
                {
                    "name": "G3",
                    "midi": 55,
                    "time": 570.3875009999969,
                    "velocity": 0.2755905511811024,
                    "duration": 0.14021324999998797
                },
                {
                    "name": "A#2",
                    "midi": 46,
                    "time": 570.5744519999969,
                    "velocity": 0.2677165354330709,
                    "duration": 0.14021324999998797
                },
                {
                    "name": "C3",
                    "midi": 48,
                    "time": 570.5744519999969,
                    "velocity": 0.2677165354330709,
                    "duration": 0.14021324999998797
                },
                {
                    "name": "G3",
                    "midi": 55,
                    "time": 570.5744519999969,
                    "velocity": 0.33070866141732286,
                    "duration": 0.14021324999998797
                },
                {
                    "name": "G3",
                    "midi": 55,
                    "time": 570.7614029999969,
                    "velocity": 0.33070866141732286,
                    "duration": 0.14021324999998797
                },
                {
                    "name": "A#2",
                    "midi": 46,
                    "time": 570.7614029999969,
                    "velocity": 0.2677165354330709,
                    "duration": 0.14021324999998797
                },
                {
                    "name": "C3",
                    "midi": 48,
                    "time": 570.7614029999969,
                    "velocity": 0.2677165354330709,
                    "duration": 0.14021324999998797
                },
                {
                    "name": "G3",
                    "midi": 55,
                    "time": 570.9483539999969,
                    "velocity": 0.33070866141732286,
                    "duration": 0.14021324999998797
                },
                {
                    "name": "C3",
                    "midi": 48,
                    "time": 570.9483539999969,
                    "velocity": 0.2755905511811024,
                    "duration": 0.14021324999998797
                },
                {
                    "name": "A#2",
                    "midi": 46,
                    "time": 570.9483539999969,
                    "velocity": 0.2755905511811024,
                    "duration": 0.14021324999998797
                },
                {
                    "name": "G3",
                    "midi": 55,
                    "time": 571.135304999997,
                    "velocity": 0.33858267716535434,
                    "duration": 0.14021324999998797
                },
                {
                    "name": "A#2",
                    "midi": 46,
                    "time": 571.135304999997,
                    "velocity": 0.2755905511811024,
                    "duration": 0.14021324999998797
                },
                {
                    "name": "C3",
                    "midi": 48,
                    "time": 571.135304999997,
                    "velocity": 0.2755905511811024,
                    "duration": 0.14021324999998797
                },
                {
                    "name": "A2",
                    "midi": 45,
                    "time": 571.322255999997,
                    "velocity": 0.2992125984251969,
                    "duration": 0.14021324999998797
                },
                {
                    "name": "C3",
                    "midi": 48,
                    "time": 571.322255999997,
                    "velocity": 0.2992125984251969,
                    "duration": 0.14021324999998797
                },
                {
                    "name": "F3",
                    "midi": 53,
                    "time": 571.322255999997,
                    "velocity": 0.3779527559055118,
                    "duration": 0.14021324999998797
                },
                {
                    "name": "A2",
                    "midi": 45,
                    "time": 571.509206999997,
                    "velocity": 0.2992125984251969,
                    "duration": 0.14021324999998797
                },
                {
                    "name": "C3",
                    "midi": 48,
                    "time": 571.509206999997,
                    "velocity": 0.2992125984251969,
                    "duration": 0.14021324999998797
                },
                {
                    "name": "F3",
                    "midi": 53,
                    "time": 571.509206999997,
                    "velocity": 0.3779527559055118,
                    "duration": 0.14021324999998797
                },
                {
                    "name": "A2",
                    "midi": 45,
                    "time": 571.696157999997,
                    "velocity": 0.30708661417322836,
                    "duration": 0.14021324999998797
                },
                {
                    "name": "C3",
                    "midi": 48,
                    "time": 571.696157999997,
                    "velocity": 0.30708661417322836,
                    "duration": 0.14021324999998797
                },
                {
                    "name": "F3",
                    "midi": 53,
                    "time": 571.696157999997,
                    "velocity": 0.3858267716535433,
                    "duration": 0.14021324999998797
                },
                {
                    "name": "A2",
                    "midi": 45,
                    "time": 571.883108999997,
                    "velocity": 0.30708661417322836,
                    "duration": 0.14021324999998797
                },
                {
                    "name": "F3",
                    "midi": 53,
                    "time": 571.883108999997,
                    "velocity": 0.3858267716535433,
                    "duration": 0.14021324999998797
                },
                {
                    "name": "C3",
                    "midi": 48,
                    "time": 571.883108999997,
                    "velocity": 0.30708661417322836,
                    "duration": 0.14021324999998797
                },
                {
                    "name": "G#2",
                    "midi": 44,
                    "time": 572.070059999997,
                    "velocity": 0.4881889763779528,
                    "duration": 0.14021324999998797
                },
                {
                    "name": "C3",
                    "midi": 48,
                    "time": 572.070059999997,
                    "velocity": 0.4881889763779528,
                    "duration": 0.14021324999998797
                },
                {
                    "name": "F3",
                    "midi": 53,
                    "time": 572.070059999997,
                    "velocity": 0.4881889763779528,
                    "duration": 0.14021324999998797
                },
                {
                    "name": "G#1",
                    "midi": 32,
                    "time": 572.2570109999971,
                    "velocity": 0.4330708661417323,
                    "duration": 0.14021324999998797
                },
                {
                    "name": "G#2",
                    "midi": 44,
                    "time": 572.2570109999971,
                    "velocity": 0.4330708661417323,
                    "duration": 0.14021324999998797
                },
                {
                    "name": "G#1",
                    "midi": 32,
                    "time": 572.4439619999971,
                    "velocity": 0.4330708661417323,
                    "duration": 0.14021324999998797
                },
                {
                    "name": "G#2",
                    "midi": 44,
                    "time": 572.4439619999971,
                    "velocity": 0.4330708661417323,
                    "duration": 0.14021324999998797
                },
                {
                    "name": "G#1",
                    "midi": 32,
                    "time": 572.6309129999971,
                    "velocity": 0.4330708661417323,
                    "duration": 0.14021324999998797
                },
                {
                    "name": "G#2",
                    "midi": 44,
                    "time": 572.6309129999971,
                    "velocity": 0.4330708661417323,
                    "duration": 0.14021324999998797
                },
                {
                    "name": "G2",
                    "midi": 43,
                    "time": 572.8178639999971,
                    "velocity": 0.4409448818897638,
                    "duration": 0.09347549999995408
                },
                {
                    "name": "G1",
                    "midi": 31,
                    "time": 572.8178639999971,
                    "velocity": 0.4409448818897638,
                    "duration": 0.09347549999995408
                },
                {
                    "name": "A1",
                    "midi": 33,
                    "time": 572.9113394999971,
                    "velocity": 0.44881889763779526,
                    "duration": 0.09347549999995408
                },
                {
                    "name": "B1",
                    "midi": 35,
                    "time": 573.004814999997,
                    "velocity": 0.44881889763779526,
                    "duration": 0.09347549999995408
                },
                {
                    "name": "C2",
                    "midi": 36,
                    "time": 573.098290499997,
                    "velocity": 0.4566929133858268,
                    "duration": 0.09347549999995408
                },
                {
                    "name": "D2",
                    "midi": 38,
                    "time": 573.191765999997,
                    "velocity": 0.4645669291338583,
                    "duration": 0.09347549999995408
                },
                {
                    "name": "E2",
                    "midi": 40,
                    "time": 573.2852414999969,
                    "velocity": 0.4645669291338583,
                    "duration": 0.09347549999995408
                },
                {
                    "name": "F2",
                    "midi": 41,
                    "time": 573.3787169999969,
                    "velocity": 0.47244094488188976,
                    "duration": 0.09347549999995408
                },
                {
                    "name": "G2",
                    "midi": 43,
                    "time": 573.4721924999968,
                    "velocity": 0.4881889763779528,
                    "duration": 0.09347549999995408
                },
                {
                    "name": "A2",
                    "midi": 45,
                    "time": 573.5656679999968,
                    "velocity": 0.4881889763779528,
                    "duration": 0.09347549999995408
                },
                {
                    "name": "B2",
                    "midi": 47,
                    "time": 573.6591434999967,
                    "velocity": 0.49606299212598426,
                    "duration": 0.09347549999995408
                },
                {
                    "name": "C3",
                    "midi": 48,
                    "time": 573.7526189999967,
                    "velocity": 0.49606299212598426,
                    "duration": 0.09347549999995408
                },
                {
                    "name": "D3",
                    "midi": 50,
                    "time": 573.8460944999966,
                    "velocity": 0.5039370078740157,
                    "duration": 0.09347549999995408
                },
                {
                    "name": "E3",
                    "midi": 52,
                    "time": 573.9395699999966,
                    "velocity": 0.5118110236220472,
                    "duration": 0.09347549999995408
                },
                {
                    "name": "F3",
                    "midi": 53,
                    "time": 574.0330454999965,
                    "velocity": 0.5196850393700787,
                    "duration": 0.09347549999995408
                },
                {
                    "name": "G3",
                    "midi": 55,
                    "time": 574.1265209999965,
                    "velocity": 0.5275590551181102,
                    "duration": 0.09347549999995408
                },
                {
                    "name": "A3",
                    "midi": 57,
                    "time": 574.2199964999965,
                    "velocity": 0.5354330708661418,
                    "duration": 0.09347549999995408
                },
                {
                    "name": "F3",
                    "midi": 53,
                    "time": 574.3134719999964,
                    "velocity": 0.6141732283464567,
                    "duration": 0.18695100000002185
                },
                {
                    "name": "F2",
                    "midi": 41,
                    "time": 574.3134719999964,
                    "velocity": 0.5196850393700787,
                    "duration": 0.18695100000002185
                },
                {
                    "name": "G2",
                    "midi": 43,
                    "time": 574.6873739999965,
                    "velocity": 0.5196850393700787,
                    "duration": 0.18695100000002185
                },
                {
                    "name": "B2",
                    "midi": 47,
                    "time": 574.6873739999965,
                    "velocity": 0.5196850393700787,
                    "duration": 0.18695100000002185
                },
                {
                    "name": "D3",
                    "midi": 50,
                    "time": 574.6873739999965,
                    "velocity": 0.6141732283464567,
                    "duration": 0.18695100000002185
                },
                {
                    "name": "G3",
                    "midi": 55,
                    "time": 574.6873739999965,
                    "velocity": 0.6141732283464567,
                    "duration": 0.18695100000002185
                },
                {
                    "name": "C4",
                    "midi": 60,
                    "time": 575.8090799999965,
                    "velocity": 0.6141732283464567,
                    "duration": 0.18695100000002185
                },
                {
                    "name": "G3",
                    "midi": 55,
                    "time": 575.8090799999965,
                    "velocity": 0.6141732283464567,
                    "duration": 0.18695100000002185
                },
                {
                    "name": "C3",
                    "midi": 48,
                    "time": 575.8090799999965,
                    "velocity": 0.5196850393700787,
                    "duration": 0.18695100000002185
                },
                {
                    "name": "E3",
                    "midi": 52,
                    "time": 575.8090799999965,
                    "velocity": 0.5196850393700787,
                    "duration": 0.18695100000002185
                },
                {
                    "name": "B2",
                    "midi": 47,
                    "time": 576.5568839999964,
                    "velocity": 0.5196850393700787,
                    "duration": 0.18695100000002185
                },
                {
                    "name": "G2",
                    "midi": 43,
                    "time": 576.5568839999964,
                    "velocity": 0.5196850393700787,
                    "duration": 0.18695100000002185
                },
                {
                    "name": "D3",
                    "midi": 50,
                    "time": 576.5568839999964,
                    "velocity": 0.6141732283464567,
                    "duration": 0.18695100000002185
                },
                {
                    "name": "G3",
                    "midi": 55,
                    "time": 576.5568839999964,
                    "velocity": 0.6141732283464567,
                    "duration": 0.18695100000002185
                },
                {
                    "name": "C2",
                    "midi": 36,
                    "time": 577.3046879999964,
                    "velocity": 0.5118110236220472,
                    "duration": 0.18695100000002185
                },
                {
                    "name": "E2",
                    "midi": 40,
                    "time": 577.3046879999964,
                    "velocity": 0.5118110236220472,
                    "duration": 0.18695100000002185
                },
                {
                    "name": "G2",
                    "midi": 43,
                    "time": 577.3046879999964,
                    "velocity": 0.6062992125984252,
                    "duration": 0.18695100000002185
                },
                {
                    "name": "C3",
                    "midi": 48,
                    "time": 577.3046879999964,
                    "velocity": 0.6062992125984252,
                    "duration": 0.18695100000002185
                }
            ],
            "controlChanges": {
                "7": [
                    {
                        "number": 7,
                        "time": 0,
                        "value": 0.7874015748031497
                    }
                ],
                "10": [
                    {
                        "number": 10,
                        "time": 0,
                        "value": 0.5039370078740157
                    }
                ]
            },
            "id": 2,
            "name": "Piano left",
            "instrumentNumber": 1,
            "instrument": "bright acoustic piano",
            "instrumentFamily": "piano",
            "channelNumber": 0,
            "isPercussion": false
        },
        {
            "startTime": 0,
            "duration": 0,
            "length": 0,
            "notes": [],
            "controlChanges": {
                "64": [
                    {
                        "number": 64,
                        "time": 0,
                        "value": 0
                    },
                    {
                        "number": 64,
                        "time": 2.991216,
                        "value": 0
                    },
                    {
                        "number": 64,
                        "time": 5.982432,
                        "value": 0
                    },
                    {
                        "number": 64,
                        "time": 19.6711400125,
                        "value": 1
                    },
                    {
                        "number": 64,
                        "time": 21.96985835,
                        "value": 0
                    },
                    {
                        "number": 64,
                        "time": 22.0111433625,
                        "value": 1
                    },
                    {
                        "number": 64,
                        "time": 22.43412,
                        "value": 0
                    },
                    {
                        "number": 64,
                        "time": 25.4666210125,
                        "value": 1
                    },
                    {
                        "number": 64,
                        "time": 28.0512185875,
                        "value": 0
                    },
                    {
                        "number": 64,
                        "time": 28.0948404875,
                        "value": 1
                    },
                    {
                        "number": 64,
                        "time": 28.42589955,
                        "value": 0
                    },
                    {
                        "number": 64,
                        "time": 38.9348826375,
                        "value": 1
                    },
                    {
                        "number": 64,
                        "time": 39.26905755000001,
                        "value": 0
                    },
                    {
                        "number": 64,
                        "time": 39.318132187500005,
                        "value": 1
                    },
                    {
                        "number": 64,
                        "time": 39.64685436250001,
                        "value": 0
                    },
                    {
                        "number": 64,
                        "time": 39.69592900000001,
                        "value": 1
                    },
                    {
                        "number": 64,
                        "time": 40.02075636250001,
                        "value": 0
                    },
                    {
                        "number": 64,
                        "time": 40.08774713750001,
                        "value": 1
                    },
                    {
                        "number": 64,
                        "time": 40.39154251250001,
                        "value": 0
                    },
                    {
                        "number": 64,
                        "time": 40.43049063750001,
                        "value": 1
                    },
                    {
                        "number": 64,
                        "time": 40.767002437500004,
                        "value": 0
                    },
                    {
                        "number": 64,
                        "time": 40.822308775,
                        "value": 1
                    },
                    {
                        "number": 64,
                        "time": 41.140125475000005,
                        "value": 0
                    },
                    {
                        "number": 64,
                        "time": 41.1876421875,
                        "value": 1
                    },
                    {
                        "number": 64,
                        "time": 41.51792228750001,
                        "value": 0
                    },
                    {
                        "number": 64,
                        "time": 41.561544187500004,
                        "value": 1
                    },
                    {
                        "number": 64,
                        "time": 41.88403466250001,
                        "value": 0
                    },
                    {
                        "number": 64,
                        "time": 41.930772412500005,
                        "value": 1
                    },
                    {
                        "number": 64,
                        "time": 44.86824000000001,
                        "value": 0
                    },
                    {
                        "number": 64,
                        "time": 71.82969005000001,
                        "value": 1
                    },
                    {
                        "number": 64,
                        "time": 72.17087562500001,
                        "value": 0
                    },
                    {
                        "number": 64,
                        "time": 72.2168344125,
                        "value": 1
                    },
                    {
                        "number": 64,
                        "time": 72.5517882875,
                        "value": 0
                    },
                    {
                        "number": 64,
                        "time": 72.59073641250001,
                        "value": 1
                    },
                    {
                        "number": 64,
                        "time": 72.9256902875,
                        "value": 0
                    },
                    {
                        "number": 64,
                        "time": 72.973207,
                        "value": 1
                    },
                    {
                        "number": 64,
                        "time": 73.2886868125,
                        "value": 0
                    },
                    {
                        "number": 64,
                        "time": 73.3603513625,
                        "value": 1
                    },
                    {
                        "number": 64,
                        "time": 74.04583836249999,
                        "value": 0
                    },
                    {
                        "number": 64,
                        "time": 74.1260715,
                        "value": 1
                    },
                    {
                        "number": 64,
                        "time": 74.7874106625,
                        "value": 0
                    },
                    {
                        "number": 64,
                        "time": 74.842717,
                        "value": 1
                    },
                    {
                        "number": 64,
                        "time": 75.5414463625,
                        "value": 0
                    },
                    {
                        "number": 64,
                        "time": 75.595194775,
                        "value": 1
                    },
                    {
                        "number": 64,
                        "time": 76.2783448875,
                        "value": 0
                    },
                    {
                        "number": 64,
                        "time": 76.3250826375,
                        "value": 1
                    },
                    {
                        "number": 64,
                        "time": 77.03471747500001,
                        "value": 0
                    },
                    {
                        "number": 64,
                        "time": 77.09937136250001,
                        "value": 1
                    },
                    {
                        "number": 64,
                        "time": 77.7848583625,
                        "value": 0
                    },
                    {
                        "number": 64,
                        "time": 77.83003818750001,
                        "value": 1
                    },
                    {
                        "number": 64,
                        "time": 78.53188340000001,
                        "value": 0
                    },
                    {
                        "number": 64,
                        "time": 78.59497936250001,
                        "value": 1
                    },
                    {
                        "number": 64,
                        "time": 79.27890843750001,
                        "value": 0
                    },
                    {
                        "number": 64,
                        "time": 79.32097241250001,
                        "value": 1
                    },
                    {
                        "number": 64,
                        "time": 80.02515451250001,
                        "value": 0
                    },
                    {
                        "number": 64,
                        "time": 80.07345018750001,
                        "value": 1
                    },
                    {
                        "number": 64,
                        "time": 80.77217955000002,
                        "value": 0
                    },
                    {
                        "number": 64,
                        "time": 80.82125418750002,
                        "value": 1
                    },
                    {
                        "number": 64,
                        "time": 81.52621525000002,
                        "value": 0
                    },
                    {
                        "number": 64,
                        "time": 81.59086913750002,
                        "value": 1
                    },
                    {
                        "number": 64,
                        "time": 82.27090340000002,
                        "value": 0
                    },
                    {
                        "number": 64,
                        "time": 82.32543077500003,
                        "value": 1
                    },
                    {
                        "number": 64,
                        "time": 83.01481258750003,
                        "value": 0
                    },
                    {
                        "number": 64,
                        "time": 83.05999241250004,
                        "value": 1
                    },
                    {
                        "number": 64,
                        "time": 83.76261658750003,
                        "value": 0
                    },
                    {
                        "number": 64,
                        "time": 83.80312263750004,
                        "value": 1
                    },
                    {
                        "number": 64,
                        "time": 84.51042058750004,
                        "value": 0
                    },
                    {
                        "number": 64,
                        "time": 84.56884277500004,
                        "value": 1
                    },
                    {
                        "number": 64,
                        "time": 85.25666666250004,
                        "value": 0
                    },
                    {
                        "number": 64,
                        "time": 88.69033336250004,
                        "value": 1
                    },
                    {
                        "number": 64,
                        "time": 89.74426962500004,
                        "value": 0
                    },
                    {
                        "number": 64,
                        "time": 89.79022841250004,
                        "value": 1
                    },
                    {
                        "number": 64,
                        "time": 91.24766725000005,
                        "value": 0
                    },
                    {
                        "number": 64,
                        "time": 97.29007936250005,
                        "value": 1
                    },
                    {
                        "number": 64,
                        "time": 98.71012800000005,
                        "value": 0
                    },
                    {
                        "number": 64,
                        "time": 98.77244500000005,
                        "value": 1
                    },
                    {
                        "number": 64,
                        "time": 100.20573600000004,
                        "value": 0
                    },
                    {
                        "number": 64,
                        "time": 100.29531668750005,
                        "value": 1
                    },
                    {
                        "number": 64,
                        "time": 103.19695200000005,
                        "value": 0
                    },
                    {
                        "number": 64,
                        "time": 103.24135286250005,
                        "value": 1
                    },
                    {
                        "number": 64,
                        "time": 106.18816800000005,
                        "value": 0
                    },
                    {
                        "number": 64,
                        "time": 106.23957952500005,
                        "value": 1
                    },
                    {
                        "number": 64,
                        "time": 107.68377600000005,
                        "value": 0
                    },
                    {
                        "number": 64,
                        "time": 107.70870280000005,
                        "value": 1
                    },
                    {
                        "number": 64,
                        "time": 109.18483673750005,
                        "value": 0
                    },
                    {
                        "number": 64,
                        "time": 113.11470255000005,
                        "value": 1
                    },
                    {
                        "number": 64,
                        "time": 113.68100828750005,
                        "value": 0
                    },
                    {
                        "number": 64,
                        "time": 113.75578868750004,
                        "value": 1
                    },
                    {
                        "number": 64,
                        "time": 114.42413851250005,
                        "value": 0
                    },
                    {
                        "number": 64,
                        "time": 114.53007741250005,
                        "value": 1
                    },
                    {
                        "number": 64,
                        "time": 115.17272147500005,
                        "value": 0
                    },
                    {
                        "number": 64,
                        "time": 119.05273368750005,
                        "value": 1
                    },
                    {
                        "number": 64,
                        "time": 119.66110340000006,
                        "value": 0
                    },
                    {
                        "number": 64,
                        "time": 119.75535786250006,
                        "value": 1
                    },
                    {
                        "number": 64,
                        "time": 120.41124428750007,
                        "value": 0
                    },
                    {
                        "number": 64,
                        "time": 120.52107800000007,
                        "value": 1
                    },
                    {
                        "number": 64,
                        "time": 121.15281658750007,
                        "value": 0
                    },
                    {
                        "number": 64,
                        "time": 122.82680700000007,
                        "value": 1
                    },
                    {
                        "number": 64,
                        "time": 123.40323925000007,
                        "value": 0
                    },
                    {
                        "number": 64,
                        "time": 123.51229400000007,
                        "value": 1
                    },
                    {
                        "number": 64,
                        "time": 124.14013777500007,
                        "value": 0
                    },
                    {
                        "number": 64,
                        "time": 125.80711752500007,
                        "value": 1
                    },
                    {
                        "number": 64,
                        "time": 126.39367628750007,
                        "value": 0
                    },
                    {
                        "number": 64,
                        "time": 126.59932238750007,
                        "value": 1
                    },
                    {
                        "number": 64,
                        "time": 127.14070132500007,
                        "value": 0
                    },
                    {
                        "number": 64,
                        "time": 130.11789600000006,
                        "value": 0
                    },
                    {
                        "number": 64,
                        "time": 133.10911200000007,
                        "value": 0
                    },
                    {
                        "number": 64,
                        "time": 146.78691453750008,
                        "value": 1
                    },
                    {
                        "number": 64,
                        "time": 149.1978034750001,
                        "value": 0
                    },
                    {
                        "number": 64,
                        "time": 149.24532018750008,
                        "value": 1
                    },
                    {
                        "number": 64,
                        "time": 149.5670317000001,
                        "value": 0
                    },
                    {
                        "number": 64,
                        "time": 152.5964168625001,
                        "value": 1
                    },
                    {
                        "number": 64,
                        "time": 155.1810144375001,
                        "value": 0
                    },
                    {
                        "number": 64,
                        "time": 155.2277521875001,
                        "value": 1
                    },
                    {
                        "number": 64,
                        "time": 155.5572533250001,
                        "value": 0
                    },
                    {
                        "number": 64,
                        "time": 166.0615626375001,
                        "value": 1
                    },
                    {
                        "number": 64,
                        "time": 166.3957375500001,
                        "value": 0
                    },
                    {
                        "number": 64,
                        "time": 166.4448121875001,
                        "value": 1
                    },
                    {
                        "number": 64,
                        "time": 166.7735343625001,
                        "value": 0
                    },
                    {
                        "number": 64,
                        "time": 166.8226090000001,
                        "value": 1
                    },
                    {
                        "number": 64,
                        "time": 167.14743636250012,
                        "value": 0
                    },
                    {
                        "number": 64,
                        "time": 167.2144271375001,
                        "value": 1
                    },
                    {
                        "number": 64,
                        "time": 167.5182225125001,
                        "value": 0
                    },
                    {
                        "number": 64,
                        "time": 167.5571706375001,
                        "value": 1
                    },
                    {
                        "number": 64,
                        "time": 167.8936824375001,
                        "value": 0
                    },
                    {
                        "number": 64,
                        "time": 167.94898877500012,
                        "value": 1
                    },
                    {
                        "number": 64,
                        "time": 168.26680547500013,
                        "value": 0
                    },
                    {
                        "number": 64,
                        "time": 168.31432218750012,
                        "value": 1
                    },
                    {
                        "number": 64,
                        "time": 168.64460228750013,
                        "value": 0
                    },
                    {
                        "number": 64,
                        "time": 168.68822418750014,
                        "value": 1
                    },
                    {
                        "number": 64,
                        "time": 169.01071466250013,
                        "value": 0
                    },
                    {
                        "number": 64,
                        "time": 169.05745241250014,
                        "value": 1
                    },
                    {
                        "number": 64,
                        "time": 171.99492000000015,
                        "value": 0
                    },
                    {
                        "number": 64,
                        "time": 198.95637005000015,
                        "value": 1
                    },
                    {
                        "number": 64,
                        "time": 199.29755562500014,
                        "value": 0
                    },
                    {
                        "number": 64,
                        "time": 199.34351441250016,
                        "value": 1
                    },
                    {
                        "number": 64,
                        "time": 199.67846828750015,
                        "value": 0
                    },
                    {
                        "number": 64,
                        "time": 199.71741641250014,
                        "value": 1
                    },
                    {
                        "number": 64,
                        "time": 200.05237028750014,
                        "value": 0
                    },
                    {
                        "number": 64,
                        "time": 200.09988700000014,
                        "value": 1
                    },
                    {
                        "number": 64,
                        "time": 200.41536681250014,
                        "value": 0
                    },
                    {
                        "number": 64,
                        "time": 200.48703136250015,
                        "value": 1
                    },
                    {
                        "number": 64,
                        "time": 201.17251836250014,
                        "value": 0
                    },
                    {
                        "number": 64,
                        "time": 201.25275150000013,
                        "value": 1
                    },
                    {
                        "number": 64,
                        "time": 201.91409066250014,
                        "value": 0
                    },
                    {
                        "number": 64,
                        "time": 201.96939700000016,
                        "value": 1
                    },
                    {
                        "number": 64,
                        "time": 202.66812636250015,
                        "value": 0
                    },
                    {
                        "number": 64,
                        "time": 202.72187477500015,
                        "value": 1
                    },
                    {
                        "number": 64,
                        "time": 203.40502488750013,
                        "value": 0
                    },
                    {
                        "number": 64,
                        "time": 203.45176263750014,
                        "value": 1
                    },
                    {
                        "number": 64,
                        "time": 204.16139747500014,
                        "value": 0
                    },
                    {
                        "number": 64,
                        "time": 204.22605136250013,
                        "value": 1
                    },
                    {
                        "number": 64,
                        "time": 204.91153836250012,
                        "value": 0
                    },
                    {
                        "number": 64,
                        "time": 204.95671818750012,
                        "value": 1
                    },
                    {
                        "number": 64,
                        "time": 205.6585634000001,
                        "value": 0
                    },
                    {
                        "number": 64,
                        "time": 205.7216593625001,
                        "value": 1
                    },
                    {
                        "number": 64,
                        "time": 206.4055884375001,
                        "value": 0
                    },
                    {
                        "number": 64,
                        "time": 206.4476524125001,
                        "value": 1
                    },
                    {
                        "number": 64,
                        "time": 207.1518345125001,
                        "value": 0
                    },
                    {
                        "number": 64,
                        "time": 207.2001301875001,
                        "value": 1
                    },
                    {
                        "number": 64,
                        "time": 207.89885955000008,
                        "value": 0
                    },
                    {
                        "number": 64,
                        "time": 207.9479341875001,
                        "value": 1
                    },
                    {
                        "number": 64,
                        "time": 208.65289525000009,
                        "value": 0
                    },
                    {
                        "number": 64,
                        "time": 208.71754913750007,
                        "value": 1
                    },
                    {
                        "number": 64,
                        "time": 209.39758340000006,
                        "value": 0
                    },
                    {
                        "number": 64,
                        "time": 209.45211077500005,
                        "value": 1
                    },
                    {
                        "number": 64,
                        "time": 210.14149258750004,
                        "value": 0
                    },
                    {
                        "number": 64,
                        "time": 210.18667241250003,
                        "value": 1
                    },
                    {
                        "number": 64,
                        "time": 210.88929658750004,
                        "value": 0
                    },
                    {
                        "number": 64,
                        "time": 210.92980263750005,
                        "value": 1
                    },
                    {
                        "number": 64,
                        "time": 211.63710058750004,
                        "value": 0
                    },
                    {
                        "number": 64,
                        "time": 211.69552277500006,
                        "value": 1
                    },
                    {
                        "number": 64,
                        "time": 212.38334666250006,
                        "value": 0
                    },
                    {
                        "number": 64,
                        "time": 215.81701336250006,
                        "value": 1
                    },
                    {
                        "number": 64,
                        "time": 216.87094962500007,
                        "value": 0
                    },
                    {
                        "number": 64,
                        "time": 216.91690841250008,
                        "value": 1
                    },
                    {
                        "number": 64,
                        "time": 217.62420636250008,
                        "value": 0
                    },
                    {
                        "number": 64,
                        "time": 217.69119713750007,
                        "value": 1
                    },
                    {
                        "number": 64,
                        "time": 218.37434725000006,
                        "value": 0
                    },
                    {
                        "number": 64,
                        "time": 224.37703227500006,
                        "value": 1
                    },
                    {
                        "number": 64,
                        "time": 225.84459762500006,
                        "value": 0
                    },
                    {
                        "number": 64,
                        "time": 225.89055641250008,
                        "value": 1
                    },
                    {
                        "number": 64,
                        "time": 227.3409845875001,
                        "value": 0
                    },
                    {
                        "number": 64,
                        "time": 227.3682482750001,
                        "value": 1
                    },
                    {
                        "number": 64,
                        "time": 230.3306426625001,
                        "value": 0
                    },
                    {
                        "number": 64,
                        "time": 230.37036975000012,
                        "value": 1
                    },
                    {
                        "number": 64,
                        "time": 233.32107970000013,
                        "value": 0
                    },
                    {
                        "number": 64,
                        "time": 233.33977480000013,
                        "value": 1
                    },
                    {
                        "number": 64,
                        "time": 234.82058251250012,
                        "value": 0
                    },
                    {
                        "number": 64,
                        "time": 234.85719375000014,
                        "value": 1
                    },
                    {
                        "number": 64,
                        "time": 236.31307466250013,
                        "value": 0
                    },
                    {
                        "number": 64,
                        "time": 240.24138255000014,
                        "value": 1
                    },
                    {
                        "number": 64,
                        "time": 240.80768828750013,
                        "value": 0
                    },
                    {
                        "number": 64,
                        "time": 240.88246868750014,
                        "value": 1
                    },
                    {
                        "number": 64,
                        "time": 241.55081851250014,
                        "value": 0
                    },
                    {
                        "number": 64,
                        "time": 241.65675741250016,
                        "value": 1
                    },
                    {
                        "number": 64,
                        "time": 242.29940147500017,
                        "value": 0
                    },
                    {
                        "number": 64,
                        "time": 246.17941368750016,
                        "value": 1
                    },
                    {
                        "number": 64,
                        "time": 246.78778340000017,
                        "value": 0
                    },
                    {
                        "number": 64,
                        "time": 246.88203786250017,
                        "value": 1
                    },
                    {
                        "number": 64,
                        "time": 247.53792428750018,
                        "value": 0
                    },
                    {
                        "number": 64,
                        "time": 247.64775800000018,
                        "value": 1
                    },
                    {
                        "number": 64,
                        "time": 248.27949658750018,
                        "value": 0
                    },
                    {
                        "number": 64,
                        "time": 249.95348700000017,
                        "value": 1
                    },
                    {
                        "number": 64,
                        "time": 250.52991925000018,
                        "value": 0
                    },
                    {
                        "number": 64,
                        "time": 250.6389740000002,
                        "value": 1
                    },
                    {
                        "number": 64,
                        "time": 251.2668177750002,
                        "value": 0
                    },
                    {
                        "number": 64,
                        "time": 252.84577476250018,
                        "value": 1
                    },
                    {
                        "number": 64,
                        "time": 253.5203562875002,
                        "value": 0
                    },
                    {
                        "number": 64,
                        "time": 253.7260023875002,
                        "value": 1
                    },
                    {
                        "number": 64,
                        "time": 254.2673813250002,
                        "value": 0
                    },
                    {
                        "number": 64,
                        "time": 255.9250135250002,
                        "value": 1
                    },
                    {
                        "number": 64,
                        "time": 256.5061195500002,
                        "value": 0
                    },
                    {
                        "number": 64,
                        "time": 256.87067400000024,
                        "value": 1
                    },
                    {
                        "number": 64,
                        "time": 257.2523656250002,
                        "value": 0
                    },
                    {
                        "number": 64,
                        "time": 258.8726076250002,
                        "value": 1
                    },
                    {
                        "number": 64,
                        "time": 259.49733555000023,
                        "value": 0
                    },
                    {
                        "number": 64,
                        "time": 259.6749390000002,
                        "value": 1
                    },
                    {
                        "number": 64,
                        "time": 260.2474764375002,
                        "value": 0
                    },
                    {
                        "number": 64,
                        "time": 281.2187048625002,
                        "value": 1
                    },
                    {
                        "number": 64,
                        "time": 281.55677458750023,
                        "value": 0
                    },
                    {
                        "number": 64,
                        "time": 281.61519677500024,
                        "value": 1
                    },
                    {
                        "number": 64,
                        "time": 281.93535036250023,
                        "value": 0
                    },
                    {
                        "number": 64,
                        "time": 281.97118263750025,
                        "value": 1
                    },
                    {
                        "number": 64,
                        "time": 282.30847340000025,
                        "value": 0
                    },
                    {
                        "number": 64,
                        "time": 282.35443218750027,
                        "value": 1
                    },
                    {
                        "number": 64,
                        "time": 282.6777016250003,
                        "value": 0
                    },
                    {
                        "number": 64,
                        "time": 282.7197656000003,
                        "value": 1
                    },
                    {
                        "number": 64,
                        "time": 283.0523825875003,
                        "value": 0
                    },
                    {
                        "number": 64,
                        "time": 283.0882148625003,
                        "value": 1
                    },
                    {
                        "number": 64,
                        "time": 283.4309583625003,
                        "value": 0
                    },
                    {
                        "number": 64,
                        "time": 283.4761381875003,
                        "value": 1
                    },
                    {
                        "number": 64,
                        "time": 284.1756465125003,
                        "value": 0
                    },
                    {
                        "number": 64,
                        "time": 284.2325107750003,
                        "value": 1
                    },
                    {
                        "number": 64,
                        "time": 284.5550012500003,
                        "value": 0
                    },
                    {
                        "number": 64,
                        "time": 284.6110865500003,
                        "value": 1
                    },
                    {
                        "number": 64,
                        "time": 284.92812428750034,
                        "value": 0
                    },
                    {
                        "number": 64,
                        "time": 284.97174618750034,
                        "value": 1
                    },
                    {
                        "number": 64,
                        "time": 285.30358421250037,
                        "value": 0
                    },
                    {
                        "number": 64,
                        "time": 285.3495430000004,
                        "value": 1
                    },
                    {
                        "number": 64,
                        "time": 285.67592828750037,
                        "value": 0
                    },
                    {
                        "number": 64,
                        "time": 285.72344500000037,
                        "value": 1
                    },
                    {
                        "number": 64,
                        "time": 286.04827236250037,
                        "value": 0
                    },
                    {
                        "number": 64,
                        "time": 286.10202077500037,
                        "value": 1
                    },
                    {
                        "number": 64,
                        "time": 286.4229533250004,
                        "value": 0
                    },
                    {
                        "number": 64,
                        "time": 286.48059655000037,
                        "value": 1
                    },
                    {
                        "number": 64,
                        "time": 287.16686251250036,
                        "value": 0
                    },
                    {
                        "number": 64,
                        "time": 287.20581063750035,
                        "value": 1
                    },
                    {
                        "number": 64,
                        "time": 287.5438803625004,
                        "value": 0
                    },
                    {
                        "number": 64,
                        "time": 287.5797126375004,
                        "value": 1
                    },
                    {
                        "number": 64,
                        "time": 287.92011925000037,
                        "value": 0
                    },
                    {
                        "number": 64,
                        "time": 287.96685700000035,
                        "value": 1
                    },
                    {
                        "number": 64,
                        "time": 288.2909054000003,
                        "value": 0
                    },
                    {
                        "number": 64,
                        "time": 288.34075900000033,
                        "value": 1
                    },
                    {
                        "number": 64,
                        "time": 288.66558636250033,
                        "value": 0
                    },
                    {
                        "number": 64,
                        "time": 288.69674486250034,
                        "value": 1
                    },
                    {
                        "number": 64,
                        "time": 289.0355935500003,
                        "value": 0
                    },
                    {
                        "number": 64,
                        "time": 289.0885630000003,
                        "value": 1
                    },
                    {
                        "number": 64,
                        "time": 289.4157272500003,
                        "value": 0
                    },
                    {
                        "number": 64,
                        "time": 289.4850549125003,
                        "value": 1
                    },
                    {
                        "number": 64,
                        "time": 290.1611943625003,
                        "value": 0
                    },
                    {
                        "number": 64,
                        "time": 290.1970266375003,
                        "value": 1
                    },
                    {
                        "number": 64,
                        "time": 290.5312015500003,
                        "value": 0
                    },
                    {
                        "number": 64,
                        "time": 290.5623600500003,
                        "value": 1
                    },
                    {
                        "number": 64,
                        "time": 290.9105562875003,
                        "value": 0
                    },
                    {
                        "number": 64,
                        "time": 290.9580730000003,
                        "value": 1
                    },
                    {
                        "number": 64,
                        "time": 291.6568023625003,
                        "value": 0
                    },
                    {
                        "number": 64,
                        "time": 291.7105507750003,
                        "value": 1
                    },
                    {
                        "number": 64,
                        "time": 292.0330412500003,
                        "value": 0
                    },
                    {
                        "number": 64,
                        "time": 292.8190144125003,
                        "value": 1
                    },
                    {
                        "number": 64,
                        "time": 293.15163140000027,
                        "value": 0
                    },
                    {
                        "number": 64,
                        "time": 293.22173802500026,
                        "value": 1
                    },
                    {
                        "number": 64,
                        "time": 293.9009933250003,
                        "value": 0
                    },
                    {
                        "number": 64,
                        "time": 293.9804475000003,
                        "value": 1
                    },
                    {
                        "number": 64,
                        "time": 294.64100770000033,
                        "value": 0
                    },
                    {
                        "number": 64,
                        "time": 294.70176677500035,
                        "value": 1
                    },
                    {
                        "number": 64,
                        "time": 295.39270651250035,
                        "value": 0
                    },
                    {
                        "number": 64,
                        "time": 295.4410021875004,
                        "value": 1
                    },
                    {
                        "number": 64,
                        "time": 296.1381736250004,
                        "value": 0
                    },
                    {
                        "number": 64,
                        "time": 296.16621627500035,
                        "value": 1
                    },
                    {
                        "number": 64,
                        "time": 296.88519866250033,
                        "value": 0
                    },
                    {
                        "number": 64,
                        "time": 296.9116833875003,
                        "value": 1
                    },
                    {
                        "number": 64,
                        "time": 298.38703836250033,
                        "value": 0
                    },
                    {
                        "number": 64,
                        "time": 298.44935536250034,
                        "value": 1
                    },
                    {
                        "number": 64,
                        "time": 299.12393688750035,
                        "value": 0
                    },
                    {
                        "number": 64,
                        "time": 299.16600086250037,
                        "value": 1
                    },
                    {
                        "number": 64,
                        "time": 299.8779725875004,
                        "value": 0
                    },
                    {
                        "number": 64,
                        "time": 299.91847863750036,
                        "value": 1
                    },
                    {
                        "number": 64,
                        "time": 300.6226607375004,
                        "value": 0
                    },
                    {
                        "number": 64,
                        "time": 300.6795250000004,
                        "value": 1
                    },
                    {
                        "number": 64,
                        "time": 301.3743595500004,
                        "value": 0
                    },
                    {
                        "number": 64,
                        "time": 301.4140866375004,
                        "value": 1
                    },
                    {
                        "number": 64,
                        "time": 302.11982666250043,
                        "value": 0
                    },
                    {
                        "number": 64,
                        "time": 302.1689013000004,
                        "value": 1
                    },
                    {
                        "number": 64,
                        "time": 304.3694703625004,
                        "value": 0
                    },
                    {
                        "number": 64,
                        "time": 304.4411349125004,
                        "value": 1
                    },
                    {
                        "number": 64,
                        "time": 305.1110426625004,
                        "value": 0
                    },
                    {
                        "number": 64,
                        "time": 305.1484328625004,
                        "value": 1
                    },
                    {
                        "number": 64,
                        "time": 305.8650783625004,
                        "value": 0
                    },
                    {
                        "number": 64,
                        "time": 305.9141530000004,
                        "value": 1
                    },
                    {
                        "number": 64,
                        "time": 306.6035348125004,
                        "value": 0
                    },
                    {
                        "number": 64,
                        "time": 306.6533884125004,
                        "value": 1
                    },
                    {
                        "number": 64,
                        "time": 307.3567915500004,
                        "value": 0
                    },
                    {
                        "number": 64,
                        "time": 307.41910855000043,
                        "value": 1
                    },
                    {
                        "number": 64,
                        "time": 308.10459555000045,
                        "value": 0
                    },
                    {
                        "number": 64,
                        "time": 308.13575405000046,
                        "value": 1
                    },
                    {
                        "number": 64,
                        "time": 310.34722858750047,
                        "value": 0
                    },
                    {
                        "number": 64,
                        "time": 310.41889313750045,
                        "value": 1
                    },
                    {
                        "number": 64,
                        "time": 311.10204325000046,
                        "value": 0
                    },
                    {
                        "number": 64,
                        "time": 311.14488618750045,
                        "value": 1
                    },
                    {
                        "number": 64,
                        "time": 314.0854696250004,
                        "value": 0
                    },
                    {
                        "number": 64,
                        "time": 314.1205229375004,
                        "value": 1
                    },
                    {
                        "number": 64,
                        "time": 317.08135940000045,
                        "value": 0
                    },
                    {
                        "number": 64,
                        "time": 317.1382236625005,
                        "value": 1
                    },
                    {
                        "number": 64,
                        "time": 320.07023851250045,
                        "value": 0
                    },
                    {
                        "number": 64,
                        "time": 320.11541833750044,
                        "value": 1
                    },
                    {
                        "number": 64,
                        "time": 323.0622334750004,
                        "value": 0
                    },
                    {
                        "number": 64,
                        "time": 323.1011816000004,
                        "value": 1
                    },
                    {
                        "number": 64,
                        "time": 326.0526705125004,
                        "value": 0
                    },
                    {
                        "number": 64,
                        "time": 326.07837627500044,
                        "value": 1
                    },
                    {
                        "number": 64,
                        "time": 327.55139436250045,
                        "value": 0
                    },
                    {
                        "number": 64,
                        "time": 327.5919004125004,
                        "value": 1
                    },
                    {
                        "number": 64,
                        "time": 329.04466547500044,
                        "value": 0
                    },
                    {
                        "number": 64,
                        "time": 329.09451907500045,
                        "value": 1
                    },
                    {
                        "number": 64,
                        "time": 330.16403458750045,
                        "value": 0
                    },
                    {
                        "number": 64,
                        "time": 330.21077233750043,
                        "value": 1
                    },
                    {
                        "number": 64,
                        "time": 330.91495443750046,
                        "value": 0
                    },
                    {
                        "number": 64,
                        "time": 330.96169218750043,
                        "value": 1
                    },
                    {
                        "number": 64,
                        "time": 331.29275125000044,
                        "value": 0
                    },
                    {
                        "number": 64,
                        "time": 331.3394890000004,
                        "value": 1
                    },
                    {
                        "number": 64,
                        "time": 331.65886362500044,
                        "value": 0
                    },
                    {
                        "number": 64,
                        "time": 331.7266333625004,
                        "value": 1
                    },
                    {
                        "number": 64,
                        "time": 332.03977628750044,
                        "value": 0
                    },
                    {
                        "number": 64,
                        "time": 332.08573507500046,
                        "value": 1
                    },
                    {
                        "number": 64,
                        "time": 333.15525058750046,
                        "value": 0
                    },
                    {
                        "number": 64,
                        "time": 333.1910828625005,
                        "value": 1
                    },
                    {
                        "number": 64,
                        "time": 333.90227562500047,
                        "value": 0
                    },
                    {
                        "number": 64,
                        "time": 333.93888686250045,
                        "value": 1
                    },
                    {
                        "number": 64,
                        "time": 334.27929347500043,
                        "value": 0
                    },
                    {
                        "number": 64,
                        "time": 334.31746263750046,
                        "value": 1
                    },
                    {
                        "number": 64,
                        "time": 334.65163755000043,
                        "value": 0
                    },
                    {
                        "number": 64,
                        "time": 334.7007121875004,
                        "value": 1
                    },
                    {
                        "number": 64,
                        "time": 335.0232026625004,
                        "value": 0
                    },
                    {
                        "number": 64,
                        "time": 335.0831827750004,
                        "value": 1
                    },
                    {
                        "number": 64,
                        "time": 335.40255740000043,
                        "value": 0
                    },
                    {
                        "number": 64,
                        "time": 335.44851618750045,
                        "value": 1
                    },
                    {
                        "number": 64,
                        "time": 335.77723836250044,
                        "value": 0
                    },
                    {
                        "number": 64,
                        "time": 335.83098677500044,
                        "value": 1
                    },
                    {
                        "number": 64,
                        "time": 336.14802451250046,
                        "value": 0
                    },
                    {
                        "number": 64,
                        "time": 336.21813113750045,
                        "value": 1
                    },
                    {
                        "number": 64,
                        "time": 336.5211475500005,
                        "value": 0
                    },
                    {
                        "number": 64,
                        "time": 336.5608746375005,
                        "value": 1
                    },
                    {
                        "number": 64,
                        "time": 336.8989443625005,
                        "value": 0
                    },
                    {
                        "number": 64,
                        "time": 336.9441241875005,
                        "value": 1
                    },
                    {
                        "number": 64,
                        "time": 337.2728463625005,
                        "value": 0
                    },
                    {
                        "number": 64,
                        "time": 337.3133524125005,
                        "value": 1
                    },
                    {
                        "number": 64,
                        "time": 337.6467483625005,
                        "value": 0
                    },
                    {
                        "number": 64,
                        "time": 337.6825806375005,
                        "value": 1
                    },
                    {
                        "number": 64,
                        "time": 338.0190924375005,
                        "value": 0
                    },
                    {
                        "number": 64,
                        "time": 358.9459200000005,
                        "value": 0
                    },
                    {
                        "number": 64,
                        "time": 386.2797141250005,
                        "value": 1
                    },
                    {
                        "number": 64,
                        "time": 388.4935255500005,
                        "value": 0
                    },
                    {
                        "number": 64,
                        "time": 388.5464950000005,
                        "value": 1
                    },
                    {
                        "number": 64,
                        "time": 388.8682065125005,
                        "value": 0
                    },
                    {
                        "number": 64,
                        "time": 392.0915533375005,
                        "value": 1
                    },
                    {
                        "number": 64,
                        "time": 394.4790734000005,
                        "value": 0
                    },
                    {
                        "number": 64,
                        "time": 394.53360077500054,
                        "value": 1
                    },
                    {
                        "number": 64,
                        "time": 394.8514174750005,
                        "value": 0
                    },
                    {
                        "number": 64,
                        "time": 406.83653450000054,
                        "value": 1
                    },
                    {
                        "number": 64,
                        "time": 407.19407828750053,
                        "value": 0
                    },
                    {
                        "number": 64,
                        "time": 407.24159500000053,
                        "value": 1
                    },
                    {
                        "number": 64,
                        "time": 407.56642236250053,
                        "value": 0
                    },
                    {
                        "number": 64,
                        "time": 407.6116021875005,
                        "value": 1
                    },
                    {
                        "number": 64,
                        "time": 407.9403243625005,
                        "value": 0
                    },
                    {
                        "number": 64,
                        "time": 407.9940727750005,
                        "value": 1
                    },
                    {
                        "number": 64,
                        "time": 408.3142263625005,
                        "value": 0
                    },
                    {
                        "number": 64,
                        "time": 408.3453848625005,
                        "value": 1
                    },
                    {
                        "number": 64,
                        "time": 408.68968628750054,
                        "value": 0
                    },
                    {
                        "number": 64,
                        "time": 408.73720300000053,
                        "value": 1
                    },
                    {
                        "number": 64,
                        "time": 409.06203036250054,
                        "value": 0
                    },
                    {
                        "number": 64,
                        "time": 409.1111050000005,
                        "value": 1
                    },
                    {
                        "number": 64,
                        "time": 409.43826925000053,
                        "value": 0
                    },
                    {
                        "number": 64,
                        "time": 409.4896807750005,
                        "value": 1
                    },
                    {
                        "number": 64,
                        "time": 409.8098343625005,
                        "value": 0
                    },
                    {
                        "number": 64,
                        "time": 409.8635827750005,
                        "value": 1
                    },
                    {
                        "number": 64,
                        "time": 412.7979345125005,
                        "value": 0
                    },
                    {
                        "number": 64,
                        "time": 439.7804165500005,
                        "value": 1
                    },
                    {
                        "number": 64,
                        "time": 440.0912225875005,
                        "value": 0
                    },
                    {
                        "number": 64,
                        "time": 440.1379603375005,
                        "value": 1
                    },
                    {
                        "number": 64,
                        "time": 440.4690194000005,
                        "value": 0
                    },
                    {
                        "number": 64,
                        "time": 440.5336732875005,
                        "value": 1
                    },
                    {
                        "number": 64,
                        "time": 440.8444793250005,
                        "value": 0
                    },
                    {
                        "number": 64,
                        "time": 440.92393350000054,
                        "value": 1
                    },
                    {
                        "number": 64,
                        "time": 441.21838132500056,
                        "value": 0
                    },
                    {
                        "number": 64,
                        "time": 441.27602455000056,
                        "value": 1
                    },
                    {
                        "number": 64,
                        "time": 441.96618532500054,
                        "value": 0
                    },
                    {
                        "number": 64,
                        "time": 442.05109223750054,
                        "value": 1
                    },
                    {
                        "number": 64,
                        "time": 442.71476828750053,
                        "value": 0
                    },
                    {
                        "number": 64,
                        "time": 442.7552743375005,
                        "value": 1
                    },
                    {
                        "number": 64,
                        "time": 443.4625722875005,
                        "value": 0
                    },
                    {
                        "number": 64,
                        "time": 443.5085310750005,
                        "value": 1
                    },
                    {
                        "number": 64,
                        "time": 444.2033656250005,
                        "value": 0
                    },
                    {
                        "number": 64,
                        "time": 444.26178781250053,
                        "value": 1
                    },
                    {
                        "number": 64,
                        "time": 444.9581802875005,
                        "value": 0
                    },
                    {
                        "number": 64,
                        "time": 445.0259500250005,
                        "value": 1
                    },
                    {
                        "number": 64,
                        "time": 445.7005315500005,
                        "value": 0
                    },
                    {
                        "number": 64,
                        "time": 445.7519430750005,
                        "value": 1
                    },
                    {
                        "number": 64,
                        "time": 446.4530093250005,
                        "value": 0
                    },
                    {
                        "number": 64,
                        "time": 446.51610528750047,
                        "value": 1
                    },
                    {
                        "number": 64,
                        "time": 447.1953605875005,
                        "value": 0
                    },
                    {
                        "number": 64,
                        "time": 447.2475510750005,
                        "value": 1
                    },
                    {
                        "number": 64,
                        "time": 447.9455014750005,
                        "value": 0
                    },
                    {
                        "number": 64,
                        "time": 448.00626055000055,
                        "value": 1
                    },
                    {
                        "number": 64,
                        "time": 448.69642132500053,
                        "value": 0
                    },
                    {
                        "number": 64,
                        "time": 448.74861181250054,
                        "value": 1
                    },
                    {
                        "number": 64,
                        "time": 449.44110947500053,
                        "value": 0
                    },
                    {
                        "number": 64,
                        "time": 449.5127740250005,
                        "value": 1
                    },
                    {
                        "number": 64,
                        "time": 450.1904714000005,
                        "value": 0
                    },
                    {
                        "number": 64,
                        "time": 450.24967255000047,
                        "value": 1
                    },
                    {
                        "number": 64,
                        "time": 450.93593851250046,
                        "value": 0
                    },
                    {
                        "number": 64,
                        "time": 451.0029292875005,
                        "value": 1
                    },
                    {
                        "number": 64,
                        "time": 451.68452147500045,
                        "value": 0
                    },
                    {
                        "number": 64,
                        "time": 451.75073328750045,
                        "value": 1
                    },
                    {
                        "number": 64,
                        "time": 452.43388340000047,
                        "value": 0
                    },
                    {
                        "number": 64,
                        "time": 452.4985372875005,
                        "value": 1
                    },
                    {
                        "number": 64,
                        "time": 453.18012947500046,
                        "value": 0
                    },
                    {
                        "number": 64,
                        "time": 456.57874286250046,
                        "value": 1
                    },
                    {
                        "number": 64,
                        "time": 457.6692903625005,
                        "value": 0
                    },
                    {
                        "number": 64,
                        "time": 457.6965540500005,
                        "value": 1
                    },
                    {
                        "number": 64,
                        "time": 459.1625614750005,
                        "value": 0
                    },
                    {
                        "number": 64,
                        "time": 465.2112052875005,
                        "value": 1
                    },
                    {
                        "number": 64,
                        "time": 466.6406014750005,
                        "value": 0
                    },
                    {
                        "number": 64,
                        "time": 466.7068132875005,
                        "value": 1
                    },
                    {
                        "number": 64,
                        "time": 468.1338725875005,
                        "value": 0
                    },
                    {
                        "number": 64,
                        "time": 468.2024212875005,
                        "value": 1
                    },
                    {
                        "number": 64,
                        "time": 471.1165200000005,
                        "value": 0
                    },
                    {
                        "number": 64,
                        "time": 471.16325775000047,
                        "value": 1
                    },
                    {
                        "number": 64,
                        "time": 474.11396770000044,
                        "value": 0
                    },
                    {
                        "number": 64,
                        "time": 474.1630423375004,
                        "value": 1
                    },
                    {
                        "number": 64,
                        "time": 475.6150284375004,
                        "value": 0
                    },
                    {
                        "number": 64,
                        "time": 475.63372353750043,
                        "value": 1
                    },
                    {
                        "number": 64,
                        "time": 477.1036257750004,
                        "value": 0
                    },
                    {
                        "number": 64,
                        "time": 480.9540374125004,
                        "value": 1
                    },
                    {
                        "number": 64,
                        "time": 481.5951235500004,
                        "value": 0
                    },
                    {
                        "number": 64,
                        "time": 481.7376736875004,
                        "value": 1
                    },
                    {
                        "number": 64,
                        "time": 482.34526443750036,
                        "value": 0
                    },
                    {
                        "number": 64,
                        "time": 482.44029786250036,
                        "value": 1
                    },
                    {
                        "number": 64,
                        "time": 483.09384740000036,
                        "value": 0
                    },
                    {
                        "number": 64,
                        "time": 486.9855440500004,
                        "value": 1
                    },
                    {
                        "number": 64,
                        "time": 487.57833451250036,
                        "value": 0
                    },
                    {
                        "number": 64,
                        "time": 487.7551590000004,
                        "value": 1
                    },
                    {
                        "number": 64,
                        "time": 488.3308122875004,
                        "value": 0
                    },
                    {
                        "number": 64,
                        "time": 488.4811520500004,
                        "value": 1
                    },
                    {
                        "number": 64,
                        "time": 489.0723845875004,
                        "value": 0
                    },
                    {
                        "number": 64,
                        "time": 490.65835223750037,
                        "value": 1
                    },
                    {
                        "number": 64,
                        "time": 491.3204703625004,
                        "value": 0
                    },
                    {
                        "number": 64,
                        "time": 491.43965162500035,
                        "value": 1
                    },
                    {
                        "number": 64,
                        "time": 492.06983228750033,
                        "value": 0
                    },
                    {
                        "number": 64,
                        "time": 493.73759100000035,
                        "value": 1
                    },
                    {
                        "number": 64,
                        "time": 494.3093494750004,
                        "value": 0
                    },
                    {
                        "number": 64,
                        "time": 494.4417731000004,
                        "value": 1
                    },
                    {
                        "number": 64,
                        "time": 495.05793243750037,
                        "value": 0
                    },
                    {
                        "number": 64,
                        "time": 496.72023841250035,
                        "value": 1
                    },
                    {
                        "number": 64,
                        "time": 497.30134443750035,
                        "value": 0
                    },
                    {
                        "number": 64,
                        "time": 497.42364155000035,
                        "value": 1
                    },
                    {
                        "number": 64,
                        "time": 498.04603258750035,
                        "value": 0
                    },
                    {
                        "number": 64,
                        "time": 536.9520936125003,
                        "value": 1
                    },
                    {
                        "number": 64,
                        "time": 537.6858762875004,
                        "value": 0
                    },
                    {
                        "number": 64,
                        "time": 537.7154768625004,
                        "value": 1
                    },
                    {
                        "number": 64,
                        "time": 538.4352382125004,
                        "value": 0
                    },
                    {
                        "number": 64,
                        "time": 538.4850918125004,
                        "value": 1
                    },
                    {
                        "number": 64,
                        "time": 539.9144880000003,
                        "value": 0
                    },
                    {
                        "number": 64,
                        "time": 539.9635626375003,
                        "value": 1
                    },
                    {
                        "number": 64,
                        "time": 540.2946217000003,
                        "value": 0
                    },
                    {
                        "number": 64,
                        "time": 540.3468121875003,
                        "value": 1
                    },
                    {
                        "number": 64,
                        "time": 540.6747554000003,
                        "value": 0
                    },
                    {
                        "number": 64,
                        "time": 540.7292827750003,
                        "value": 1
                    },
                    {
                        "number": 64,
                        "time": 541.0455415500004,
                        "value": 0
                    },
                    {
                        "number": 64,
                        "time": 541.0985110000004,
                        "value": 1
                    },
                    {
                        "number": 64,
                        "time": 541.4202225125003,
                        "value": 0
                    },
                    {
                        "number": 64,
                        "time": 544.9076376250003,
                        "value": 1
                    },
                    {
                        "number": 64,
                        "time": 545.1545687375003,
                        "value": 0
                    },
                    {
                        "number": 64,
                        "time": 545.2480442375003,
                        "value": 1
                    },
                    {
                        "number": 64,
                        "time": 545.5393762125003,
                        "value": 0
                    },
                    {
                        "number": 64,
                        "time": 545.6359675625004,
                        "value": 1
                    },
                    {
                        "number": 64,
                        "time": 545.9023727375004,
                        "value": 0
                    },
                    {
                        "number": 64,
                        "time": 546.0184381500004,
                        "value": 1
                    },
                    {
                        "number": 64,
                        "time": 546.2801695500004,
                        "value": 0
                    },
                    {
                        "number": 64,
                        "time": 546.4164879875004,
                        "value": 1
                    },
                    {
                        "number": 64,
                        "time": 546.6556294750004,
                        "value": 0
                    },
                    {
                        "number": 64,
                        "time": 546.7685790375004,
                        "value": 1
                    },
                    {
                        "number": 64,
                        "time": 547.0295314750005,
                        "value": 0
                    },
                    {
                        "number": 64,
                        "time": 547.1401441500004,
                        "value": 1
                    },
                    {
                        "number": 64,
                        "time": 547.3979807375005,
                        "value": 0
                    },
                    {
                        "number": 64,
                        "time": 547.4532870750005,
                        "value": 1
                    },
                    {
                        "number": 64,
                        "time": 548.9021573250005,
                        "value": 0
                    },
                    {
                        "number": 64,
                        "time": 548.9598005500005,
                        "value": 1
                    },
                    {
                        "number": 64,
                        "time": 550.3891967375005,
                        "value": 0
                    },
                    {
                        "number": 64,
                        "time": 566.8354320000004,
                        "value": 0
                    },
                    {
                        "number": 64,
                        "time": 572.1362718125005,
                        "value": 1
                    },
                    {
                        "number": 64,
                        "time": 572.8272115500005,
                        "value": 0
                    },
                    {
                        "number": 64,
                        "time": 572.9331504500004,
                        "value": 1
                    },
                    {
                        "number": 64,
                        "time": 574.3197037000004,
                        "value": 0
                    }
                ]
            },
            "id": 3,
            "name": "Pedal"
        },
        {
            "startTime": 0,
            "duration": 0,
            "length": 0,
            "notes": [],
            "controlChanges": {},
            "id": 4,
            "name": "Beethoven Sonata No. 21 C major, Waldsteinsonate 1. Movement"
        },
        {
            "startTime": 0,
            "duration": 0,
            "length": 0,
            "notes": [],
            "controlChanges": {},
            "id": 5,
            "name": "Copyright  2003 by Bernd Krueger"
        },
        {
            "startTime": 0,
            "duration": 0,
            "length": 0,
            "notes": [],
            "controlChanges": {},
            "id": 6,
            "name": "http://www.piano-midi.de"
        },
        {
            "startTime": 0,
            "duration": 0,
            "length": 0,
            "notes": [],
            "controlChanges": {},
            "id": 7,
            "name": "Edition: 2012-06-23"
        }
    ]
}