{
    "header": {
        "PPQ": 480,
        "timeSignature": [
            8,
            8
        ],
        "bpm": 47.700024088512166,
        "name": ""
    },
    "startTime": 0,
    "duration": 263.9097199750003,
    "tracks": [
        {
            "startTime": 0,
            "duration": 0,
            "length": 0,
            "notes": [],
            "controlChanges": {},
            "id": 0
        },
        {
            "startTime": 36.058682,
            "duration": 255.31957756249977,
            "length": 276,
            "notes": [
                {
                    "name": "C4",
                    "midi": 60,
                    "time": 36.058682,
                    "velocity": 0.4330708661417323,
                    "duration": 0.40880482499999715
                },
                {
                    "name": "D4",
                    "midi": 62,
                    "time": 36.477968999999995,
                    "velocity": 0.3228346456692913,
                    "duration": 0.3983226499999972
                },
                {
                    "name": "D4",
                    "midi": 62,
                    "time": 37.10689949999999,
                    "velocity": 0.47244094488188976,
                    "duration": 0.21488458750000206
                },
                {
                    "name": "D4",
                    "midi": 62,
                    "time": 37.421364749999995,
                    "velocity": 0.5354330708661418,
                    "duration": 0.29612144375000327
                },
                {
                    "name": "G4",
                    "midi": 67,
                    "time": 37.73583,
                    "velocity": 0.7165354330708661,
                    "duration": 0.23846948125000011
                },
                {
                    "name": "G4",
                    "midi": 67,
                    "time": 38.05029525,
                    "velocity": 0.5826771653543307,
                    "duration": 0.21488458750000206
                },
                {
                    "name": "G4",
                    "midi": 67,
                    "time": 38.3647605,
                    "velocity": 0.5118110236220472,
                    "duration": 0.20440241250000213
                },
                {
                    "name": "G4",
                    "midi": 67,
                    "time": 38.67922575000001,
                    "velocity": 0.4645669291338583,
                    "duration": 0.3039830749999979
                },
                {
                    "name": "A4",
                    "midi": 69,
                    "time": 38.993691000000005,
                    "velocity": 0.5354330708661418,
                    "duration": 0.40880482499999715
                },
                {
                    "name": "F4",
                    "midi": 65,
                    "time": 39.412978,
                    "velocity": 0.5354330708661418,
                    "duration": 0.40880482499999715
                },
                {
                    "name": "G4",
                    "midi": 67,
                    "time": 39.832265,
                    "velocity": 0.4409448818897638,
                    "duration": 0.3852199312499991
                },
                {
                    "name": "F4",
                    "midi": 65,
                    "time": 40.251552,
                    "velocity": 0.33858267716535434,
                    "duration": 1.4072319937500026
                },
                {
                    "name": "E4",
                    "midi": 64,
                    "time": 44.33960025,
                    "velocity": 0.3858267716535433,
                    "duration": 0.14675044999999898
                },
                {
                    "name": "E4",
                    "midi": 64,
                    "time": 44.654065499999994,
                    "velocity": 0.3700787401574803,
                    "duration": 0.17033534374999704
                },
                {
                    "name": "E4",
                    "midi": 64,
                    "time": 44.96853074999999,
                    "velocity": 0.3543307086614173,
                    "duration": 0.3039830749999979
                },
                {
                    "name": "A4",
                    "midi": 69,
                    "time": 45.28299599999999,
                    "velocity": 0.47244094488188976,
                    "duration": 0.24895165625000004
                },
                {
                    "name": "A4",
                    "midi": 69,
                    "time": 45.59746124999999,
                    "velocity": 0.5826771653543307,
                    "duration": 0.21488458750000206
                },
                {
                    "name": "A4",
                    "midi": 69,
                    "time": 45.91192649999999,
                    "velocity": 0.5826771653543307,
                    "duration": 0.3039830749999979
                },
                {
                    "name": "C5",
                    "midi": 72,
                    "time": 46.22639174999999,
                    "velocity": 0.49606299212598426,
                    "duration": 0.29612144375000327
                },
                {
                    "name": "A4",
                    "midi": 69,
                    "time": 46.540856999999995,
                    "velocity": 0.36220472440944884,
                    "duration": 1.2264144749999986
                },
                {
                    "name": "G4",
                    "midi": 67,
                    "time": 48.21800499999999,
                    "velocity": 0.47244094488188976,
                    "duration": 0.3066036187500032
                },
                {
                    "name": "G4",
                    "midi": 67,
                    "time": 48.637291999999995,
                    "velocity": 0.5826771653543307,
                    "duration": 0.3537734062499993
                },
                {
                    "name": "A4",
                    "midi": 69,
                    "time": 49.05657899999999,
                    "velocity": 0.6929133858267716,
                    "duration": 0.36425558124999924
                },
                {
                    "name": "A4",
                    "midi": 69,
                    "time": 49.47586599999999,
                    "velocity": 0.7637795275590551,
                    "duration": 0.3066036187500032
                },
                {
                    "name": "A4",
                    "midi": 69,
                    "time": 49.89515299999999,
                    "velocity": 0.7165354330708661,
                    "duration": 0.28301872499999803
                },
                {
                    "name": "D5",
                    "midi": 74,
                    "time": 50.31443999999999,
                    "velocity": 0.5511811023622047,
                    "duration": 1.1373159875000027
                },
                {
                    "name": "C5",
                    "midi": 72,
                    "time": 51.572300999999996,
                    "velocity": 0.5984251968503937,
                    "duration": 0.40880482499999715
                },
                {
                    "name": "D5",
                    "midi": 74,
                    "time": 51.99158799999999,
                    "velocity": 0.4094488188976378,
                    "duration": 0.40880482499999715
                },
                {
                    "name": "C5",
                    "midi": 72,
                    "time": 52.41087499999999,
                    "velocity": 0.36220472440944884,
                    "duration": 0.40880482499999715
                },
                {
                    "name": "G4",
                    "midi": 67,
                    "time": 52.83016199999999,
                    "velocity": 0.49606299212598426,
                    "duration": 1.0220120624999964
                },
                {
                    "name": "F4",
                    "midi": 65,
                    "time": 54.40248824999998,
                    "velocity": 0.4645669291338583,
                    "duration": 0.17033534374999704
                },
                {
                    "name": "F4",
                    "midi": 65,
                    "time": 54.71695349999998,
                    "velocity": 0.44881889763779526,
                    "duration": 0.18081751874999696
                },
                {
                    "name": "F4",
                    "midi": 65,
                    "time": 55.03141874999998,
                    "velocity": 0.4409448818897638,
                    "duration": 0.3039830749999979
                },
                {
                    "name": "A4",
                    "midi": 69,
                    "time": 55.34588399999998,
                    "velocity": 0.4409448818897638,
                    "duration": 0.18081751874999696
                },
                {
                    "name": "A4",
                    "midi": 69,
                    "time": 55.660349249999975,
                    "velocity": 0.49606299212598426,
                    "duration": 0.3039830749999979
                },
                {
                    "name": "G4",
                    "midi": 67,
                    "time": 55.97481449999997,
                    "velocity": 0.5669291338582677,
                    "duration": 0.3039830749999979
                },
                {
                    "name": "A4",
                    "midi": 69,
                    "time": 56.28927974999997,
                    "velocity": 0.5669291338582677,
                    "duration": 0.3039830749999979
                },
                {
                    "name": "C5",
                    "midi": 72,
                    "time": 56.60374499999997,
                    "velocity": 0.5748031496062992,
                    "duration": 1.2264144749999986
                },
                {
                    "name": "C5",
                    "midi": 72,
                    "time": 58.28089299999996,
                    "velocity": 0.5669291338582677,
                    "duration": 0.3039830749999979
                },
                {
                    "name": "C5",
                    "midi": 72,
                    "time": 58.70017999999996,
                    "velocity": 0.5511811023622047,
                    "duration": 0.40880482499999715
                },
                {
                    "name": "B4",
                    "midi": 71,
                    "time": 59.11946699999996,
                    "velocity": 0.5354330708661418,
                    "duration": 0.40880482499999715
                },
                {
                    "name": "A4",
                    "midi": 69,
                    "time": 59.538753999999955,
                    "velocity": 0.4330708661417323,
                    "duration": 0.40880482499999715
                },
                {
                    "name": "E4",
                    "midi": 64,
                    "time": 59.95804099999995,
                    "velocity": 0.5669291338582677,
                    "duration": 2.890459756250003
                },
                {
                    "name": "E4",
                    "midi": 64,
                    "time": 63.521980499999955,
                    "velocity": 0.3543307086614173,
                    "duration": 0.1572326249999989
                },
                {
                    "name": "E4",
                    "midi": 64,
                    "time": 63.83644574999995,
                    "velocity": 0.2755905511811024,
                    "duration": 0.1572326249999989
                },
                {
                    "name": "E4",
                    "midi": 64,
                    "time": 64.15091099999995,
                    "velocity": 0.31496062992125984,
                    "duration": 0.303983075000005
                },
                {
                    "name": "F4",
                    "midi": 65,
                    "time": 64.46537624999996,
                    "velocity": 0.25196850393700787,
                    "duration": 0.303983075000005
                },
                {
                    "name": "C4",
                    "midi": 60,
                    "time": 64.77984149999997,
                    "velocity": 0.3543307086614173,
                    "duration": 0.5686579937499943
                },
                {
                    "name": "E4",
                    "midi": 64,
                    "time": 75.15719474999997,
                    "velocity": 0.6141732283464567,
                    "duration": 0.303983075000005
                },
                {
                    "name": "E5",
                    "midi": 76,
                    "time": 75.47165999999999,
                    "velocity": 0.7165354330708661,
                    "duration": 1.3941292749999974
                },
                {
                    "name": "A4",
                    "midi": 69,
                    "time": 77.04398624999999,
                    "velocity": 0.5669291338582677,
                    "duration": 0.25681328749999466
                },
                {
                    "name": "A4",
                    "midi": 69,
                    "time": 77.35845149999999,
                    "velocity": 0.6299212598425197,
                    "duration": 0.28039818125000693
                },
                {
                    "name": "A4",
                    "midi": 69,
                    "time": 77.67291675,
                    "velocity": 0.6692913385826772,
                    "duration": 0.28039818125000693
                },
                {
                    "name": "B4",
                    "midi": 71,
                    "time": 77.98738200000001,
                    "velocity": 0.6929133858267716,
                    "duration": 0.6787208312500042
                },
                {
                    "name": "B4",
                    "midi": 71,
                    "time": 78.82595600000002,
                    "velocity": 0.6456692913385826,
                    "duration": 0.40880482500000426
                },
                {
                    "name": "A4",
                    "midi": 69,
                    "time": 79.24524300000003,
                    "velocity": 0.6456692913385826,
                    "duration": 0.3852199312500062
                },
                {
                    "name": "B4",
                    "midi": 71,
                    "time": 79.66453000000004,
                    "velocity": 0.5984251968503937,
                    "duration": 0.3616350374999939
                },
                {
                    "name": "C5",
                    "midi": 72,
                    "time": 80.08381700000004,
                    "velocity": 0.6299212598425197,
                    "duration": 0.37473775624999917
                },
                {
                    "name": "C#5",
                    "midi": 73,
                    "time": 80.50310400000004,
                    "velocity": 0.5826771653543307,
                    "duration": 0.5738990812500049
                },
                {
                    "name": "A4",
                    "midi": 69,
                    "time": 81.13203450000005,
                    "velocity": 0.6456692913385826,
                    "duration": 0.47955950624999844
                },
                {
                    "name": "A4",
                    "midi": 69,
                    "time": 81.76096500000004,
                    "velocity": 0.6692913385826772,
                    "duration": 0.6184483250000028
                },
                {
                    "name": "B4",
                    "midi": 71,
                    "time": 82.38989550000005,
                    "velocity": 0.5669291338582677,
                    "duration": 0.6184483250000028
                },
                {
                    "name": "A4",
                    "midi": 69,
                    "time": 83.01882600000006,
                    "velocity": 0.6692913385826772,
                    "duration": 0.8280918250000013
                },
                {
                    "name": "E4",
                    "midi": 64,
                    "time": 83.85740000000007,
                    "velocity": 0.5511811023622047,
                    "duration": 0.40880482500000426
                },
                {
                    "name": "A4",
                    "midi": 69,
                    "time": 84.27668700000008,
                    "velocity": 0.6692913385826772,
                    "duration": 0.8280918250000013
                },
                {
                    "name": "E4",
                    "midi": 64,
                    "time": 85.11526100000009,
                    "velocity": 0.5511811023622047,
                    "duration": 0.40880482500000426
                },
                {
                    "name": "G4",
                    "midi": 67,
                    "time": 85.5345480000001,
                    "velocity": 0.6456692913385826,
                    "duration": 0.7206495312500039
                },
                {
                    "name": "G4",
                    "midi": 67,
                    "time": 86.37312200000011,
                    "velocity": 0.6299212598425197,
                    "duration": 0.40880482500000426
                },
                {
                    "name": "B4",
                    "midi": 71,
                    "time": 86.79240900000012,
                    "velocity": 0.6456692913385826,
                    "duration": 0.8280918250000013
                },
                {
                    "name": "G4",
                    "midi": 67,
                    "time": 87.63098300000013,
                    "velocity": 0.5669291338582677,
                    "duration": 0.3485323187500029
                },
                {
                    "name": "G4",
                    "midi": 67,
                    "time": 88.05027000000013,
                    "velocity": 0.5511811023622047,
                    "duration": 0.40880482500000426
                },
                {
                    "name": "B4",
                    "midi": 71,
                    "time": 88.46955700000014,
                    "velocity": 0.5511811023622047,
                    "duration": 0.40880482500000426
                },
                {
                    "name": "E4",
                    "midi": 64,
                    "time": 88.88884400000015,
                    "velocity": 0.49606299212598426,
                    "duration": 0.8831232437500063
                },
                {
                    "name": "C#5",
                    "midi": 73,
                    "time": 96.22636650000015,
                    "velocity": 0.5511811023622047,
                    "duration": 0.6184483250000028
                },
                {
                    "name": "A4",
                    "midi": 69,
                    "time": 96.85529700000016,
                    "velocity": 0.5354330708661418,
                    "duration": 0.5110060312500053
                },
                {
                    "name": "A4",
                    "midi": 69,
                    "time": 97.48422750000017,
                    "velocity": 0.6929133858267716,
                    "duration": 0.474318418750002
                },
                {
                    "name": "A#4",
                    "midi": 70,
                    "time": 98.11315800000017,
                    "velocity": 0.6299212598425197,
                    "duration": 0.33280905624999946
                },
                {
                    "name": "A#4",
                    "midi": 70,
                    "time": 98.53244500000017,
                    "velocity": 0.6299212598425197,
                    "duration": 0.2725365499999981
                },
                {
                    "name": "A#4",
                    "midi": 70,
                    "time": 98.95173200000016,
                    "velocity": 0.6299212598425197,
                    "duration": 0.32232688125000664
                },
                {
                    "name": "D#5",
                    "midi": 75,
                    "time": 99.37101900000017,
                    "velocity": 0.5511811023622047,
                    "duration": 0.22274621875000378
                },
                {
                    "name": "D#5",
                    "midi": 75,
                    "time": 99.68548425000017,
                    "velocity": 0.5984251968503937,
                    "duration": 0.25157219999999825
                },
                {
                    "name": "C5",
                    "midi": 72,
                    "time": 99.99994950000017,
                    "velocity": 0.5669291338582677,
                    "duration": 0.24895165625000004
                },
                {
                    "name": "C5",
                    "midi": 72,
                    "time": 100.31441475000017,
                    "velocity": 0.4094488188976378,
                    "duration": 0.303983075000005
                },
                {
                    "name": "F4",
                    "midi": 65,
                    "time": 100.62888000000018,
                    "velocity": 0.4330708661417323,
                    "duration": 0.7940247562499962
                },
                {
                    "name": "F4",
                    "midi": 65,
                    "time": 101.57227575000017,
                    "velocity": 0.5354330708661418,
                    "duration": 0.25419274374999645
                },
                {
                    "name": "G4",
                    "midi": 67,
                    "time": 101.88674100000017,
                    "velocity": 0.7401574803149606,
                    "duration": 0.24109002500000543
                },
                {
                    "name": "G4",
                    "midi": 67,
                    "time": 102.20120625000018,
                    "velocity": 0.5984251968503937,
                    "duration": 0.303983075000005
                },
                {
                    "name": "G#4",
                    "midi": 68,
                    "time": 102.5156715000002,
                    "velocity": 0.7637795275590551,
                    "duration": 0.2332283937499966
                },
                {
                    "name": "G#4",
                    "midi": 68,
                    "time": 102.8301367500002,
                    "velocity": 0.8188976377952756,
                    "duration": 0.303983075000005
                },
                {
                    "name": "C5",
                    "midi": 72,
                    "time": 103.1446020000002,
                    "velocity": 0.6929133858267716,
                    "duration": 0.6184483250000028
                },
                {
                    "name": "A#4",
                    "midi": 70,
                    "time": 103.77353250000021,
                    "velocity": 0.2677165354330709,
                    "duration": 0.45073352500000397
                },
                {
                    "name": "F#4",
                    "midi": 66,
                    "time": 104.40246300000022,
                    "velocity": 0.7165354330708661,
                    "duration": 0.33542959999999766
                },
                {
                    "name": "F#4",
                    "midi": 66,
                    "time": 104.82175000000022,
                    "velocity": 0.6692913385826772,
                    "duration": 0.3013625312500068
                },
                {
                    "name": "F#4",
                    "midi": 66,
                    "time": 105.24103700000023,
                    "velocity": 0.5984251968503937,
                    "duration": 0.29088035624999975
                },
                {
                    "name": "C4",
                    "midi": 60,
                    "time": 105.66032400000023,
                    "velocity": 0.5748031496062992,
                    "duration": 1.2473788249999984
                },
                {
                    "name": "C#4",
                    "midi": 61,
                    "time": 114.88463800000022,
                    "velocity": 0.4881889763779528,
                    "duration": 0.3092241625000014
                },
                {
                    "name": "C#4",
                    "midi": 61,
                    "time": 115.30392500000022,
                    "velocity": 0.4094488188976378,
                    "duration": 0.40880482500000426
                },
                {
                    "name": "F4",
                    "midi": 65,
                    "time": 115.72321200000023,
                    "velocity": 0.4881889763779528,
                    "duration": 0.40880482500000426
                },
                {
                    "name": "E4",
                    "midi": 64,
                    "time": 116.14249900000024,
                    "velocity": 0.4015748031496063,
                    "duration": 0.40880482500000426
                },
                {
                    "name": "F4",
                    "midi": 65,
                    "time": 116.56178600000025,
                    "velocity": 0.33070866141732286,
                    "duration": 0.40880482500000426
                },
                {
                    "name": "C#4",
                    "midi": 61,
                    "time": 116.98107300000026,
                    "velocity": 0.3858267716535433,
                    "duration": 0.7809220375000052
                },
                {
                    "name": "D#4",
                    "midi": 63,
                    "time": 124.21377375000027,
                    "velocity": 0.49606299212598426,
                    "duration": 0.21226404374999674
                },
                {
                    "name": "G#4",
                    "midi": 68,
                    "time": 124.52823900000027,
                    "velocity": 0.5354330708661418,
                    "duration": 0.22536676250000198
                },
                {
                    "name": "G#4",
                    "midi": 68,
                    "time": 124.84270425000027,
                    "velocity": 0.6456692913385826,
                    "duration": 0.29874198749999437
                },
                {
                    "name": "F4",
                    "midi": 65,
                    "time": 125.15716950000026,
                    "velocity": 0.5669291338582677,
                    "duration": 0.303983075000005
                },
                {
                    "name": "C#4",
                    "midi": 61,
                    "time": 125.47163475000028,
                    "velocity": 0.3858267716535433,
                    "duration": 0.303983075000005
                },
                {
                    "name": "A#4",
                    "midi": 70,
                    "time": 125.78610000000029,
                    "velocity": 0.6692913385826772,
                    "duration": 0.6184483250000028
                },
                {
                    "name": "G4",
                    "midi": 67,
                    "time": 126.4150305000003,
                    "velocity": 0.5826771653543307,
                    "duration": 0.303983075000005
                },
                {
                    "name": "A#4",
                    "midi": 70,
                    "time": 126.72949575000031,
                    "velocity": 0.6456692913385826,
                    "duration": 0.303983075000005
                },
                {
                    "name": "D5",
                    "midi": 74,
                    "time": 127.04396100000032,
                    "velocity": 0.6692913385826772,
                    "duration": 0.6184483250000028
                },
                {
                    "name": "A#4",
                    "midi": 70,
                    "time": 127.67289150000033,
                    "velocity": 0.7165354330708661,
                    "duration": 0.303983075000005
                },
                {
                    "name": "D5",
                    "midi": 74,
                    "time": 127.98735675000034,
                    "velocity": 0.5826771653543307,
                    "duration": 0.3039830749999908
                },
                {
                    "name": "C5",
                    "midi": 72,
                    "time": 128.30182200000033,
                    "velocity": 0.6299212598425197,
                    "duration": 0.40880482500000426
                },
                {
                    "name": "G#4",
                    "midi": 68,
                    "time": 128.72110900000033,
                    "velocity": 0.8188976377952756,
                    "duration": 0.40880482500000426
                },
                {
                    "name": "C5",
                    "midi": 72,
                    "time": 129.14039600000032,
                    "velocity": 0.6692913385826772,
                    "duration": 0.40880482500000426
                },
                {
                    "name": "D#5",
                    "midi": 75,
                    "time": 129.55968300000032,
                    "velocity": 0.5748031496062992,
                    "duration": 1.2473788249999984
                },
                {
                    "name": "C5",
                    "midi": 72,
                    "time": 132.48945091250033,
                    "velocity": 0.6929133858267716,
                    "duration": 0.13364773124999374
                },
                {
                    "name": "D5",
                    "midi": 74,
                    "time": 132.71743821875032,
                    "velocity": 0.7165354330708661,
                    "duration": 0.3459117749999905
                },
                {
                    "name": "D5",
                    "midi": 74,
                    "time": 133.1576895687503,
                    "velocity": 0.7165354330708661,
                    "duration": 0.1467504500000132
                },
                {
                    "name": "D5",
                    "midi": 74,
                    "time": 133.3856768750003,
                    "velocity": 0.7165354330708661,
                    "duration": 0.15985316875000422
                },
                {
                    "name": "B4",
                    "midi": 71,
                    "time": 133.57435602500033,
                    "velocity": 0.5984251968503937,
                    "duration": 0.15985316875000422
                },
                {
                    "name": "D5",
                    "midi": 74,
                    "time": 133.77613789375033,
                    "velocity": 0.5826771653543307,
                    "duration": 0.13364773124999374
                },
                {
                    "name": "E5",
                    "midi": 76,
                    "time": 133.97529921875034,
                    "velocity": 0.7637795275590551,
                    "duration": 0.9329135749999864
                },
                {
                    "name": "F5",
                    "midi": 77,
                    "time": 135.22005750000034,
                    "velocity": 0.7401574803149606,
                    "duration": 0.3039830749999908
                },
                {
                    "name": "D5",
                    "midi": 74,
                    "time": 135.53452275000032,
                    "velocity": 0.5826771653543307,
                    "duration": 1.1661419687499972
                },
                {
                    "name": "F5",
                    "midi": 77,
                    "time": 137.73577950000032,
                    "velocity": 0.6692913385826772,
                    "duration": 0.2306078500000126
                },
                {
                    "name": "D5",
                    "midi": 74,
                    "time": 138.05024475000033,
                    "velocity": 0.5118110236220472,
                    "duration": 1.0167709749999858
                },
                {
                    "name": "F#4",
                    "midi": 66,
                    "time": 140.88043200000033,
                    "velocity": 0.5984251968503937,
                    "duration": 0.08909848749999583
                },
                {
                    "name": "F#4",
                    "midi": 66,
                    "time": 141.1948972500003,
                    "velocity": 0.5984251968503937,
                    "duration": 0.09958066249998865
                },
                {
                    "name": "B4",
                    "midi": 71,
                    "time": 141.5093625000003,
                    "velocity": 0.5669291338582677,
                    "duration": 0.16509425625000063
                },
                {
                    "name": "A4",
                    "midi": 69,
                    "time": 141.8238277500003,
                    "velocity": 0.5118110236220472,
                    "duration": 0.08647794374999762
                },
                {
                    "name": "A4",
                    "midi": 69,
                    "time": 142.1382930000003,
                    "velocity": 0.4409448818897638,
                    "duration": 0.06551359375001198
                },
                {
                    "name": "A4",
                    "midi": 69,
                    "time": 142.4527582500003,
                    "velocity": 0.4330708661417323,
                    "duration": 0.0759957687500048
                },
                {
                    "name": "A4",
                    "midi": 69,
                    "time": 142.7672235000003,
                    "velocity": 0.4330708661417323,
                    "duration": 0.11006283750000989
                },
                {
                    "name": "B4",
                    "midi": 71,
                    "time": 143.08168875000032,
                    "velocity": 0.4094488188976378,
                    "duration": 0.13102718749999553
                },
                {
                    "name": "F#4",
                    "midi": 66,
                    "time": 143.3961540000003,
                    "velocity": 0.4881889763779528,
                    "duration": 0.11006283750000989
                },
                {
                    "name": "F#4",
                    "midi": 66,
                    "time": 149.05128741250033,
                    "velocity": 0.33858267716535434,
                    "duration": 0.17033534374999704
                },
                {
                    "name": "F#4",
                    "midi": 66,
                    "time": 149.32120341875031,
                    "velocity": 0.6299212598425197,
                    "duration": 0.12578609999999912
                },
                {
                    "name": "F#4",
                    "midi": 66,
                    "time": 149.51774420000032,
                    "velocity": 0.6456692913385826,
                    "duration": 0.11006283750000989
                },
                {
                    "name": "F#4",
                    "midi": 66,
                    "time": 149.68545900000032,
                    "velocity": 0.4015748031496063,
                    "duration": 0.09958066249998865
                },
                {
                    "name": "F#4",
                    "midi": 66,
                    "time": 149.90296413125031,
                    "velocity": 0.6456692913385826,
                    "duration": 0.16771479999999883
                },
                {
                    "name": "G4",
                    "midi": 67,
                    "time": 150.31438950000032,
                    "velocity": 0.5826771653543307,
                    "duration": 1.2473788249999984
                },
                {
                    "name": "G4",
                    "midi": 67,
                    "time": 152.2011810000003,
                    "velocity": 0.49606299212598426,
                    "duration": 0.1493709937500114
                },
                {
                    "name": "G4",
                    "midi": 67,
                    "time": 152.51564625000032,
                    "velocity": 0.5196850393700787,
                    "duration": 0.3039830749999908
                },
                {
                    "name": "C5",
                    "midi": 72,
                    "time": 152.8301115000003,
                    "velocity": 0.5354330708661418,
                    "duration": 0.2646749187499893
                },
                {
                    "name": "C5",
                    "midi": 72,
                    "time": 153.14457675000028,
                    "velocity": 0.5354330708661418,
                    "duration": 0.3039830749999908
                },
                {
                    "name": "G4",
                    "midi": 67,
                    "time": 153.45904200000027,
                    "velocity": 0.5826771653543307,
                    "duration": 0.3039830749999908
                },
                {
                    "name": "A#4",
                    "midi": 70,
                    "time": 153.77350725000025,
                    "velocity": 0.47244094488188976,
                    "duration": 0.3039830749999908
                },
                {
                    "name": "G4",
                    "midi": 67,
                    "time": 154.08797250000023,
                    "velocity": 0.33858267716535434,
                    "duration": 1.273584262500009
                },
                {
                    "name": "G4",
                    "midi": 67,
                    "time": 155.97476400000025,
                    "velocity": 0.2677165354330709,
                    "duration": 0.17033534374999704
                },
                {
                    "name": "G4",
                    "midi": 67,
                    "time": 156.28922925000023,
                    "velocity": 0.49606299212598426,
                    "duration": 0.3039830749999908
                },
                {
                    "name": "A#4",
                    "midi": 70,
                    "time": 156.60369450000022,
                    "velocity": 0.6299212598425197,
                    "duration": 0.2777776375000087
                },
                {
                    "name": "A#4",
                    "midi": 70,
                    "time": 156.91815975000023,
                    "velocity": 0.6692913385826772,
                    "duration": 0.3039830749999908
                },
                {
                    "name": "C5",
                    "midi": 72,
                    "time": 157.2326250000002,
                    "velocity": 0.5984251968503937,
                    "duration": 0.25419274374999645
                },
                {
                    "name": "C5",
                    "midi": 72,
                    "time": 157.5470902500002,
                    "velocity": 0.5826771653543307,
                    "duration": 0.28039818125000693
                },
                {
                    "name": "D5",
                    "midi": 74,
                    "time": 157.8615555000002,
                    "velocity": 0.5984251968503937,
                    "duration": 0.24633111250000184
                },
                {
                    "name": "D5",
                    "midi": 74,
                    "time": 158.17602075000022,
                    "velocity": 0.5354330708661418,
                    "duration": 0.3039830749999908
                },
                {
                    "name": "C#5",
                    "midi": 73,
                    "time": 158.4904860000002,
                    "velocity": 0.5196850393700787,
                    "duration": 0.1965407812500075
                },
                {
                    "name": "C#5",
                    "midi": 73,
                    "time": 158.80495125000022,
                    "velocity": 0.44881889763779526,
                    "duration": 0.28039818125000693
                },
                {
                    "name": "C5",
                    "midi": 72,
                    "time": 159.11941650000023,
                    "velocity": 0.4330708661417323,
                    "duration": 0.2306078500000126
                },
                {
                    "name": "C5",
                    "midi": 72,
                    "time": 159.43388175000024,
                    "velocity": 0.4251968503937008,
                    "duration": 0.28039818125000693
                },
                {
                    "name": "G4",
                    "midi": 67,
                    "time": 159.74834700000025,
                    "velocity": 0.5196850393700787,
                    "duration": 0.22012567499999136
                },
                {
                    "name": "G4",
                    "midi": 67,
                    "time": 160.06281225000023,
                    "velocity": 0.4645669291338583,
                    "duration": 0.3039830749999908
                },
                {
                    "name": "C5",
                    "midi": 72,
                    "time": 160.37727750000022,
                    "velocity": 0.4015748031496063,
                    "duration": 0.6184483250000028
                },
                {
                    "name": "F4",
                    "midi": 65,
                    "time": 161.0062080000002,
                    "velocity": 0.2677165354330709,
                    "duration": 0.914569768749999
                },
                {
                    "name": "F4",
                    "midi": 65,
                    "time": 162.8929995000002,
                    "velocity": 0.4330708661417323,
                    "duration": 0.33280905624999946
                },
                {
                    "name": "F4",
                    "midi": 65,
                    "time": 163.5009656500002,
                    "velocity": 0.5354330708661418,
                    "duration": 0.6551359375000061
                },
                {
                    "name": "A#4",
                    "midi": 70,
                    "time": 164.1665837625002,
                    "velocity": 0.6299212598425197,
                    "duration": 0.6236894124999992
                },
                {
                    "name": "F4",
                    "midi": 65,
                    "time": 164.8007553500002,
                    "velocity": 0.47244094488188976,
                    "duration": 0.16247371250000242
                },
                {
                    "name": "F4",
                    "midi": 65,
                    "time": 165.0103988500002,
                    "velocity": 0.47244094488188976,
                    "duration": 0.17033534374999704
                },
                {
                    "name": "A4",
                    "midi": 69,
                    "time": 165.2174218062502,
                    "velocity": 0.5669291338582677,
                    "duration": 0.18081751874998986
                },
                {
                    "name": "F4",
                    "midi": 65,
                    "time": 165.40872150000018,
                    "velocity": 0.3700787401574803,
                    "duration": 0.8254712812500031
                },
                {
                    "name": "A#4",
                    "midi": 70,
                    "time": 169.4967697500002,
                    "velocity": 0.4330708661417323,
                    "duration": 0.26205437499999107
                },
                {
                    "name": "A#4",
                    "midi": 70,
                    "time": 169.81123500000018,
                    "velocity": 0.6299212598425197,
                    "duration": 0.22536676249998777
                },
                {
                    "name": "A#4",
                    "midi": 70,
                    "time": 170.12570025000016,
                    "velocity": 0.6299212598425197,
                    "duration": 0.3039830749999908
                },
                {
                    "name": "C5",
                    "midi": 72,
                    "time": 170.44016550000015,
                    "velocity": 0.6929133858267716,
                    "duration": 0.40880482500000426
                },
                {
                    "name": "A#4",
                    "midi": 70,
                    "time": 170.85945250000015,
                    "velocity": 0.6692913385826772,
                    "duration": 0.39570210625001323
                },
                {
                    "name": "C5",
                    "midi": 72,
                    "time": 171.27873950000017,
                    "velocity": 0.5196850393700787,
                    "duration": 0.40880482500000426
                },
                {
                    "name": "C#5",
                    "midi": 73,
                    "time": 171.69802650000017,
                    "velocity": 0.6299212598425197,
                    "duration": 0.7887836687499998
                },
                {
                    "name": "C#5",
                    "midi": 73,
                    "time": 172.53660050000016,
                    "velocity": 0.6456692913385826,
                    "duration": 0.36949666875000275
                },
                {
                    "name": "A#4",
                    "midi": 70,
                    "time": 172.95588750000016,
                    "velocity": 0.6692913385826772,
                    "duration": 0.40880482500000426
                },
                {
                    "name": "C#5",
                    "midi": 73,
                    "time": 173.37517450000016,
                    "velocity": 0.6692913385826772,
                    "duration": 0.32494742500000484
                },
                {
                    "name": "C#5",
                    "midi": 73,
                    "time": 173.79446150000015,
                    "velocity": 0.6692913385826772,
                    "duration": 0.40880482500000426
                },
                {
                    "name": "F5",
                    "midi": 77,
                    "time": 174.21374850000015,
                    "velocity": 0.5669291338582677,
                    "duration": 1.2788253500000053
                },
                {
                    "name": "F5",
                    "midi": 77,
                    "time": 175.83324453750015,
                    "velocity": 0.5511811023622047,
                    "duration": 0.314465250000012
                },
                {
                    "name": "C#5",
                    "midi": 73,
                    "time": 176.15819196250015,
                    "velocity": 0.6299212598425197,
                    "duration": 0.21488458749999495
                },
                {
                    "name": "A#4",
                    "midi": 70,
                    "time": 176.38355872500014,
                    "velocity": 0.5826771653543307,
                    "duration": 0.18343806249998806
                },
                {
                    "name": "F4",
                    "midi": 65,
                    "time": 176.57747896250012,
                    "velocity": 0.4330708661417323,
                    "duration": 0.22798730624998598
                },
                {
                    "name": "E4",
                    "midi": 64,
                    "time": 176.8159484437501,
                    "velocity": 0.6141732283464567,
                    "duration": 0.29350089999999796
                },
                {
                    "name": "E4",
                    "midi": 64,
                    "time": 177.2011683750001,
                    "velocity": 0.5511811023622047,
                    "duration": 0.1912996937500111
                },
                {
                    "name": "E4",
                    "midi": 64,
                    "time": 177.4501200312501,
                    "velocity": 0.5354330708661418,
                    "duration": 0.23846948125000722
                },
                {
                    "name": "C5",
                    "midi": 72,
                    "time": 177.6990716875001,
                    "velocity": 0.6141732283464567,
                    "duration": 0.29350089999999796
                },
                {
                    "name": "A#4",
                    "midi": 70,
                    "time": 178.00305476250008,
                    "velocity": 0.5826771653543307,
                    "duration": 0.621068868750001
                },
                {
                    "name": "F4",
                    "midi": 65,
                    "time": 178.63460580625008,
                    "velocity": 0.4094488188976378,
                    "duration": 0.5083854874999929
                },
                {
                    "name": "C#4",
                    "midi": 61,
                    "time": 182.38984500000007,
                    "velocity": 0.5984251968503937,
                    "duration": 0.3039830749999908
                },
                {
                    "name": "D#4",
                    "midi": 63,
                    "time": 182.70431025000005,
                    "velocity": 0.47244094488188976,
                    "duration": 0.22536676249998777
                },
                {
                    "name": "F4",
                    "midi": 65,
                    "time": 183.01877550000003,
                    "velocity": 0.5669291338582677,
                    "duration": 0.25943383124999286
                },
                {
                    "name": "F4",
                    "midi": 65,
                    "time": 183.43806250000003,
                    "velocity": 0.5354330708661418,
                    "duration": 0.22536676249998777
                },
                {
                    "name": "F4",
                    "midi": 65,
                    "time": 183.85734950000003,
                    "velocity": 0.4645669291338583,
                    "duration": 0.21488458749999495
                },
                {
                    "name": "G4",
                    "midi": 67,
                    "time": 184.27663650000002,
                    "velocity": 0.4330708661417323,
                    "duration": 0.40880482500000426
                },
                {
                    "name": "F4",
                    "midi": 65,
                    "time": 184.69592350000002,
                    "velocity": 0.33858267716535434,
                    "duration": 0.3563939500000117
                },
                {
                    "name": "G4",
                    "midi": 67,
                    "time": 185.11521050000005,
                    "velocity": 0.3779527559055118,
                    "duration": 0.40880482500000426
                },
                {
                    "name": "C#4",
                    "midi": 61,
                    "time": 185.53449750000004,
                    "velocity": 0.3700787401574803,
                    "duration": 1.1006283750000136
                },
                {
                    "name": "D4",
                    "midi": 62,
                    "time": 197.48417700000005,
                    "velocity": 0.47244094488188976,
                    "duration": 0.555555274999989
                },
                {
                    "name": "D4",
                    "midi": 62,
                    "time": 198.11310750000004,
                    "velocity": 0.44881889763779526,
                    "duration": 0.22536676249998777
                },
                {
                    "name": "D4",
                    "midi": 62,
                    "time": 198.42757275000002,
                    "velocity": 0.5984251968503937,
                    "duration": 0.18343806249998806
                },
                {
                    "name": "D4",
                    "midi": 62,
                    "time": 198.742038,
                    "velocity": 0.5984251968503937,
                    "duration": 0.18343806249998806
                },
                {
                    "name": "D4",
                    "midi": 62,
                    "time": 199.05650325,
                    "velocity": 0.5511811023622047,
                    "duration": 0.1519915375000096
                },
                {
                    "name": "F#4",
                    "midi": 66,
                    "time": 199.3709685,
                    "velocity": 0.6692913385826772,
                    "duration": 0.6472743062500115
                },
                {
                    "name": "F#4",
                    "midi": 66,
                    "time": 200.31436425,
                    "velocity": 0.3858267716535433,
                    "duration": 0.16247371250000242
                },
                {
                    "name": "F#4",
                    "midi": 66,
                    "time": 200.62882950000002,
                    "velocity": 0.5826771653543307,
                    "duration": 0.2751570937500105
                },
                {
                    "name": "E4",
                    "midi": 64,
                    "time": 201.06383976250004,
                    "velocity": 0.5511811023622047,
                    "duration": 0.3537734062500135
                },
                {
                    "name": "G4",
                    "midi": 67,
                    "time": 201.42809534375004,
                    "velocity": 0.6141732283464567,
                    "duration": 0.22274621874998957
                },
                {
                    "name": "A4",
                    "midi": 69,
                    "time": 201.66132373750003,
                    "velocity": 0.6141732283464567,
                    "duration": 0.21488458749999495
                },
                {
                    "name": "B4",
                    "midi": 71,
                    "time": 201.88669050000001,
                    "velocity": 0.7401574803149606,
                    "duration": 1.2473788249999984
                },
                {
                    "name": "A4",
                    "midi": 69,
                    "time": 203.45901675000002,
                    "velocity": 0.5669291338582677,
                    "duration": 0.17557643124999345
                },
                {
                    "name": "A4",
                    "midi": 69,
                    "time": 203.773482,
                    "velocity": 0.5354330708661418,
                    "duration": 0.16509425625000063
                },
                {
                    "name": "A4",
                    "midi": 69,
                    "time": 204.08794725,
                    "velocity": 0.5196850393700787,
                    "duration": 0.1546120812500078
                },
                {
                    "name": "C5",
                    "midi": 72,
                    "time": 204.40241250000003,
                    "velocity": 0.6929133858267716,
                    "duration": 0.2306078500000126
                },
                {
                    "name": "C5",
                    "midi": 72,
                    "time": 204.71687775000004,
                    "velocity": 0.5669291338582677,
                    "duration": 0.19916132500000572
                },
                {
                    "name": "C5",
                    "midi": 72,
                    "time": 205.03134300000005,
                    "velocity": 0.4015748031496063,
                    "duration": 0.3039830749999908
                },
                {
                    "name": "E5",
                    "midi": 76,
                    "time": 205.34580825000003,
                    "velocity": 0.4645669291338583,
                    "duration": 0.3039830749999908
                },
                {
                    "name": "A4",
                    "midi": 69,
                    "time": 205.66027350000002,
                    "velocity": 0.4330708661417323,
                    "duration": 1.2342761062500074
                },
                {
                    "name": "G#4",
                    "midi": 68,
                    "time": 210.6917175,
                    "velocity": 0.8503937007874016,
                    "duration": 0.2306078500000126
                },
                {
                    "name": "G#4",
                    "midi": 68,
                    "time": 211.00618275000002,
                    "velocity": 0.7637795275590551,
                    "duration": 0.17557643124999345
                },
                {
                    "name": "G#4",
                    "midi": 68,
                    "time": 211.320648,
                    "velocity": 0.8503937007874016,
                    "duration": 0.2751570937500105
                },
                {
                    "name": "A4",
                    "midi": 69,
                    "time": 211.63511325000002,
                    "velocity": 0.5826771653543307,
                    "duration": 0.3039830749999908
                },
                {
                    "name": "E5",
                    "midi": 76,
                    "time": 211.9495785,
                    "velocity": 0.6692913385826772,
                    "duration": 0.7258906187499861
                },
                {
                    "name": "E5",
                    "midi": 76,
                    "time": 212.7881525,
                    "velocity": 0.5669291338582677,
                    "duration": 0.40880482500000426
                },
                {
                    "name": "C5",
                    "midi": 72,
                    "time": 213.2074395,
                    "velocity": 0.6456692913385826,
                    "duration": 0.3511528624999869
                },
                {
                    "name": "C5",
                    "midi": 72,
                    "time": 213.6267265,
                    "velocity": 0.5196850393700787,
                    "duration": 0.3092241624999872
                },
                {
                    "name": "C5",
                    "midi": 72,
                    "time": 214.0460135,
                    "velocity": 0.5984251968503937,
                    "duration": 0.36425558125000634
                },
                {
                    "name": "B4",
                    "midi": 71,
                    "time": 214.46530049999998,
                    "velocity": 0.6929133858267716,
                    "duration": 0.3537734062500135
                },
                {
                    "name": "B4",
                    "midi": 71,
                    "time": 214.8845875,
                    "velocity": 0.6456692913385826,
                    "duration": 0.40880482500000426
                },
                {
                    "name": "E5",
                    "midi": 76,
                    "time": 215.3038745,
                    "velocity": 0.5354330708661418,
                    "duration": 0.40880482500000426
                },
                {
                    "name": "B4",
                    "midi": 71,
                    "time": 215.7231615,
                    "velocity": 0.7165354330708661,
                    "duration": 1.1346954437499903
                },
                {
                    "name": "B4",
                    "midi": 71,
                    "time": 216.9810225,
                    "velocity": 0.5511811023622047,
                    "duration": 0.8280918250000013
                },
                {
                    "name": "G4",
                    "midi": 67,
                    "time": 217.8195965,
                    "velocity": 0.5984251968503937,
                    "duration": 0.31970633750000843
                },
                {
                    "name": "G4",
                    "midi": 67,
                    "time": 218.2388835,
                    "velocity": 0.5984251968503937,
                    "duration": 0.3537734062500135
                },
                {
                    "name": "G4",
                    "midi": 67,
                    "time": 218.6581705,
                    "velocity": 0.5669291338582677,
                    "duration": 0.40880482500000426
                },
                {
                    "name": "B4",
                    "midi": 71,
                    "time": 219.0774575,
                    "velocity": 0.4409448818897638,
                    "duration": 0.40880482500000426
                },
                {
                    "name": "E4",
                    "midi": 64,
                    "time": 219.4967445,
                    "velocity": 0.36220472440944884,
                    "duration": 1.0351147812500017
                },
                {
                    "name": "C#4",
                    "midi": 61,
                    "time": 228.930702,
                    "velocity": 0.3700787401574803,
                    "duration": 0.2672954624999875
                },
                {
                    "name": "C#4",
                    "midi": 61,
                    "time": 229.24516724999998,
                    "velocity": 0.4881889763779528,
                    "duration": 0.3039830749999908
                },
                {
                    "name": "F4",
                    "midi": 65,
                    "time": 229.55963249999996,
                    "velocity": 0.5669291338582677,
                    "duration": 0.32494742500000484
                },
                {
                    "name": "F4",
                    "midi": 65,
                    "time": 230.18856299999996,
                    "velocity": 0.5669291338582677,
                    "duration": 0.32494742500000484
                },
                {
                    "name": "F4",
                    "midi": 65,
                    "time": 230.81749349999996,
                    "velocity": 0.5826771653543307,
                    "duration": 0.40880482500000426
                },
                {
                    "name": "F#4",
                    "midi": 66,
                    "time": 231.23678049999995,
                    "velocity": 0.6692913385826772,
                    "duration": 0.25419274374999645
                },
                {
                    "name": "F#4",
                    "midi": 66,
                    "time": 231.65606749999995,
                    "velocity": 0.7165354330708661,
                    "duration": 0.40880482500000426
                },
                {
                    "name": "C#5",
                    "midi": 73,
                    "time": 232.07535449999995,
                    "velocity": 0.6299212598425197,
                    "duration": 0.5817607124999995
                },
                {
                    "name": "A#4",
                    "midi": 70,
                    "time": 232.91392849999994,
                    "velocity": 0.5984251968503937,
                    "duration": 0.25419274374999645
                },
                {
                    "name": "C5",
                    "midi": 72,
                    "time": 233.33321549999994,
                    "velocity": 0.5511811023622047,
                    "duration": 0.2646749187499893
                },
                {
                    "name": "C5",
                    "midi": 72,
                    "time": 233.64768074999992,
                    "velocity": 0.5511811023622047,
                    "duration": 0.2751570937500105
                },
                {
                    "name": "G#4",
                    "midi": 68,
                    "time": 233.96214599999993,
                    "velocity": 0.8188976377952756,
                    "duration": 0.5922428874999923
                },
                {
                    "name": "A#4",
                    "midi": 70,
                    "time": 234.59107649999993,
                    "velocity": 0.5354330708661418,
                    "duration": 0.3039830749999908
                },
                {
                    "name": "F4",
                    "midi": 65,
                    "time": 234.9055417499999,
                    "velocity": 0.4251968503937008,
                    "duration": 0.3039830749999908
                },
                {
                    "name": "G#4",
                    "midi": 68,
                    "time": 235.2200069999999,
                    "velocity": 0.6456692913385826,
                    "duration": 0.3039830749999908
                },
                {
                    "name": "F4",
                    "midi": 65,
                    "time": 235.53447224999988,
                    "velocity": 0.4409448818897638,
                    "duration": 0.24895165625000004
                },
                {
                    "name": "F4",
                    "midi": 65,
                    "time": 235.8489374999999,
                    "velocity": 0.5511811023622047,
                    "duration": 0.21750513124999316
                },
                {
                    "name": "F4",
                    "midi": 65,
                    "time": 236.16340274999988,
                    "velocity": 0.5118110236220472,
                    "duration": 0.3039830749999908
                },
                {
                    "name": "D#4",
                    "midi": 63,
                    "time": 236.47786799999986,
                    "velocity": 0.44881889763779526,
                    "duration": 0.3039830749999908
                },
                {
                    "name": "F4",
                    "midi": 65,
                    "time": 236.79233324999984,
                    "velocity": 0.36220472440944884,
                    "duration": 0.3039830749999908
                },
                {
                    "name": "C4",
                    "midi": 60,
                    "time": 237.10679849999983,
                    "velocity": 0.2992125984251969,
                    "duration": 0.5057649437499947
                },
                {
                    "name": "C4",
                    "midi": 60,
                    "time": 237.73572899999982,
                    "velocity": 0.2204724409448819,
                    "duration": 0.5817607124999995
                },
                {
                    "name": "F4",
                    "midi": 65,
                    "time": 250.31433899999982,
                    "velocity": 0.4251968503937008,
                    "duration": 0.24109002500000543
                },
                {
                    "name": "F4",
                    "midi": 65,
                    "time": 250.62880424999983,
                    "velocity": 0.5984251968503937,
                    "duration": 0.3039830749999908
                },
                {
                    "name": "G4",
                    "midi": 67,
                    "time": 250.94326949999981,
                    "velocity": 0.6456692913385826,
                    "duration": 0.3118447062500138
                },
                {
                    "name": "G4",
                    "midi": 67,
                    "time": 251.36255649999984,
                    "velocity": 0.5826771653543307,
                    "duration": 0.29612144374999616
                },
                {
                    "name": "G4",
                    "midi": 67,
                    "time": 251.78184349999984,
                    "velocity": 0.5511811023622047,
                    "duration": 0.33805014374999587
                },
                {
                    "name": "G4",
                    "midi": 67,
                    "time": 252.20113049999983,
                    "velocity": 0.5669291338582677,
                    "duration": 0.40880482500000426
                },
                {
                    "name": "C5",
                    "midi": 72,
                    "time": 252.62041749999983,
                    "velocity": 0.5354330708661418,
                    "duration": 0.40880482500000426
                },
                {
                    "name": "G4",
                    "midi": 67,
                    "time": 253.03970449999983,
                    "velocity": 0.5984251968503937,
                    "duration": 0.3485323187499887
                },
                {
                    "name": "G4",
                    "midi": 67,
                    "time": 253.45899149999983,
                    "velocity": 0.5826771653543307,
                    "duration": 0.18343806249998806
                },
                {
                    "name": "G4",
                    "midi": 67,
                    "time": 253.7734567499998,
                    "velocity": 0.5118110236220472,
                    "duration": 0.3039830749999908
                },
                {
                    "name": "A4",
                    "midi": 69,
                    "time": 254.0879219999998,
                    "velocity": 0.4330708661417323,
                    "duration": 0.3039830749999908
                },
                {
                    "name": "F4",
                    "midi": 65,
                    "time": 254.40238724999978,
                    "velocity": 0.3779527559055118,
                    "duration": 0.9171903124999972
                }
            ],
            "controlChanges": {},
            "id": 1,
            "name": " Grand Piano *samengevoegd",
            "channelNumber": 0,
            "isPercussion": false
        },
        {
            "startTime": 0,
            "duration": 263.9097199750003,
            "length": 1313,
            "notes": [
                {
                    "name": "F1",
                    "midi": 29,
                    "time": 0,
                    "velocity": 0.44881889763779526,
                    "duration": 2.3506277437499996
                },
                {
                    "name": "F2",
                    "midi": 41,
                    "time": 0,
                    "velocity": 0.44881889763779526,
                    "duration": 2.3899359
                },
                {
                    "name": "G3",
                    "midi": 55,
                    "time": 0.9433957499999999,
                    "velocity": 0.23622047244094488,
                    "duration": 0.38521993125
                },
                {
                    "name": "A3",
                    "midi": 57,
                    "time": 0.9433957499999999,
                    "velocity": 0.1968503937007874,
                    "duration": 0.41666645625
                },
                {
                    "name": "C4",
                    "midi": 60,
                    "time": 0.9433957499999999,
                    "velocity": 0.1732283464566929,
                    "duration": 0.3642555812499999
                },
                {
                    "name": "G4",
                    "midi": 67,
                    "time": 0.9433957499999999,
                    "velocity": 0.33070866141732286,
                    "duration": 0.20964349999999987
                },
                {
                    "name": "G4",
                    "midi": 67,
                    "time": 1.2578609999999997,
                    "velocity": 0.3464566929133858,
                    "duration": 1.7767286624999996
                },
                {
                    "name": "A4",
                    "midi": 69,
                    "time": 1.2578609999999997,
                    "velocity": 0.33070866141732286,
                    "duration": 1.6954918062499997
                },
                {
                    "name": "C5",
                    "midi": 72,
                    "time": 1.2578609999999997,
                    "velocity": 0.33858267716535434,
                    "duration": 1.8081751874999994
                },
                {
                    "name": "G5",
                    "midi": 79,
                    "time": 1.2578609999999997,
                    "velocity": 0.4251968503937008,
                    "duration": 1.7164561562499996
                },
                {
                    "name": "G1",
                    "midi": 31,
                    "time": 2.2012567499999998,
                    "velocity": 0.3543307086614173,
                    "duration": 0.38784047499999996
                },
                {
                    "name": "G2",
                    "midi": 43,
                    "time": 2.2012567499999998,
                    "velocity": 0.4330708661417323,
                    "duration": 0.40618428124999983
                },
                {
                    "name": "A1",
                    "midi": 33,
                    "time": 2.515722,
                    "velocity": 0.4094488188976378,
                    "duration": 2.3349044812499984
                },
                {
                    "name": "A2",
                    "midi": 45,
                    "time": 2.515722,
                    "velocity": 0.5118110236220472,
                    "duration": 2.3349044812499984
                },
                {
                    "name": "G4",
                    "midi": 67,
                    "time": 3.459117749999999,
                    "velocity": 0.4330708661417323,
                    "duration": 0.19654078124999952
                },
                {
                    "name": "E5",
                    "midi": 76,
                    "time": 3.459117749999999,
                    "velocity": 0.5118110236220472,
                    "duration": 0.16771479999999972
                },
                {
                    "name": "C5",
                    "midi": 72,
                    "time": 3.616350374999999,
                    "velocity": 0.5354330708661418,
                    "duration": 0.09433957499999979
                },
                {
                    "name": "G3",
                    "midi": 55,
                    "time": 3.7735829999999986,
                    "velocity": 0.44881889763779526,
                    "duration": 1.8265189937499988
                },
                {
                    "name": "C4",
                    "midi": 60,
                    "time": 3.7735829999999986,
                    "velocity": 0.44881889763779526,
                    "duration": 2.075470649999999
                },
                {
                    "name": "E4",
                    "midi": 64,
                    "time": 3.7735829999999986,
                    "velocity": 0.5511811023622047,
                    "duration": 1.8553449749999986
                },
                {
                    "name": "A#1",
                    "midi": 34,
                    "time": 4.716978749999998,
                    "velocity": 0.5511811023622047,
                    "duration": 0.09433957500000023
                },
                {
                    "name": "A#2",
                    "midi": 46,
                    "time": 4.716978749999998,
                    "velocity": 0.33858267716535434,
                    "duration": 0.17295588749999968
                },
                {
                    "name": "C2",
                    "midi": 36,
                    "time": 4.874211374999998,
                    "velocity": 0.5354330708661418,
                    "duration": 0.17819697499999965
                },
                {
                    "name": "C3",
                    "midi": 48,
                    "time": 4.874211374999998,
                    "velocity": 0.4094488188976378,
                    "duration": 0.16771479999999972
                },
                {
                    "name": "D2",
                    "midi": 38,
                    "time": 5.031443999999998,
                    "velocity": 0.6141732283464567,
                    "duration": 2.0911939124999996
                },
                {
                    "name": "D3",
                    "midi": 50,
                    "time": 5.031443999999998,
                    "velocity": 0.5984251968503937,
                    "duration": 2.1016760874999996
                },
                {
                    "name": "F3",
                    "midi": 53,
                    "time": 5.9748397499999975,
                    "velocity": 0.2204724409448819,
                    "duration": 0.2830187250000007
                },
                {
                    "name": "A3",
                    "midi": 57,
                    "time": 5.9748397499999975,
                    "velocity": 0.29133858267716534,
                    "duration": 0.2935009000000006
                },
                {
                    "name": "D4",
                    "midi": 62,
                    "time": 5.9748397499999975,
                    "velocity": 0.4094488188976378,
                    "duration": 0.30398307500000055
                },
                {
                    "name": "A3",
                    "midi": 57,
                    "time": 6.289304999999998,
                    "velocity": 0.25196850393700787,
                    "duration": 0.6446537625
                },
                {
                    "name": "C4",
                    "midi": 60,
                    "time": 6.289304999999998,
                    "velocity": 0.3464566929133858,
                    "duration": 0.6158277812500002
                },
                {
                    "name": "F4",
                    "midi": 65,
                    "time": 6.289304999999998,
                    "velocity": 0.47244094488188976,
                    "duration": 0.8359534562499995
                },
                {
                    "name": "E2",
                    "midi": 40,
                    "time": 7.232700749999998,
                    "velocity": 0.2755905511811024,
                    "duration": 0.1834380624999996
                },
                {
                    "name": "E3",
                    "midi": 52,
                    "time": 7.232700749999998,
                    "velocity": 0.30708661417322836,
                    "duration": 0.18081751874999963
                },
                {
                    "name": "C4",
                    "midi": 60,
                    "time": 7.232700749999998,
                    "velocity": 0.1968503937007874,
                    "duration": 0.19654078124999952
                },
                {
                    "name": "D4",
                    "midi": 62,
                    "time": 7.232700749999998,
                    "velocity": 0.2204724409448819,
                    "duration": 0.19654078124999952
                },
                {
                    "name": "A4",
                    "midi": 69,
                    "time": 7.232700749999998,
                    "velocity": 0.33070866141732286,
                    "duration": 0.23322839374999926
                },
                {
                    "name": "F2",
                    "midi": 41,
                    "time": 7.389933374999997,
                    "velocity": 0.4094488188976378,
                    "duration": 0.15199153749999894
                },
                {
                    "name": "F3",
                    "midi": 53,
                    "time": 7.389933374999997,
                    "velocity": 0.4330708661417323,
                    "duration": 0.13364773124999907
                },
                {
                    "name": "G2",
                    "midi": 43,
                    "time": 7.547165999999996,
                    "velocity": 0.5118110236220472,
                    "duration": 3.524631343749996
                },
                {
                    "name": "G3",
                    "midi": 55,
                    "time": 7.547165999999996,
                    "velocity": 0.5511811023622047,
                    "duration": 3.516769712499996
                },
                {
                    "name": "C4",
                    "midi": 60,
                    "time": 7.547165999999996,
                    "velocity": 0.3543307086614173,
                    "duration": 0.9302930312499997
                },
                {
                    "name": "D4",
                    "midi": 62,
                    "time": 7.547165999999996,
                    "velocity": 0.4015748031496063,
                    "duration": 0.7914042125000007
                },
                {
                    "name": "A4",
                    "midi": 69,
                    "time": 7.547165999999996,
                    "velocity": 0.5511811023622047,
                    "duration": 0.8962259625
                },
                {
                    "name": "A#3",
                    "midi": 58,
                    "time": 8.490561749999996,
                    "velocity": 0.23622047244094488,
                    "duration": 0.29088035624999975
                },
                {
                    "name": "D4",
                    "midi": 62,
                    "time": 8.490561749999996,
                    "velocity": 0.2204724409448819,
                    "duration": 0.23060785000000017
                },
                {
                    "name": "G4",
                    "midi": 67,
                    "time": 8.490561749999996,
                    "velocity": 0.4409448818897638,
                    "duration": 0.24633111250000006
                },
                {
                    "name": "D4",
                    "midi": 62,
                    "time": 8.805026999999995,
                    "velocity": 0.4881889763779528,
                    "duration": 0.904087593749999
                },
                {
                    "name": "F4",
                    "midi": 65,
                    "time": 8.805026999999995,
                    "velocity": 0.3779527559055118,
                    "duration": 0.660377024999999
                },
                {
                    "name": "A#4",
                    "midi": 70,
                    "time": 8.805026999999995,
                    "velocity": 0.5511811023622047,
                    "duration": 0.6027250624999994
                },
                {
                    "name": "F4",
                    "midi": 65,
                    "time": 9.748422749999994,
                    "velocity": 0.49606299212598426,
                    "duration": 0.3590144937499993
                },
                {
                    "name": "A4",
                    "midi": 69,
                    "time": 9.748422749999994,
                    "velocity": 0.3858267716535433,
                    "duration": 0.09433957499999934
                },
                {
                    "name": "D5",
                    "midi": 74,
                    "time": 9.748422749999994,
                    "velocity": 0.4881889763779528,
                    "duration": 0.14150936249999901
                },
                {
                    "name": "A4",
                    "midi": 69,
                    "time": 10.062887999999994,
                    "velocity": 0.47244094488188976,
                    "duration": 1.6194960374999958
                },
                {
                    "name": "A#4",
                    "midi": 70,
                    "time": 10.062887999999994,
                    "velocity": 0.4409448818897638,
                    "duration": 1.7112150687499952
                },
                {
                    "name": "F5",
                    "midi": 77,
                    "time": 10.062887999999994,
                    "velocity": 0.5669291338582677,
                    "duration": 1.9496845499999953
                },
                {
                    "name": "A2",
                    "midi": 45,
                    "time": 11.006283749999993,
                    "velocity": 0.2283464566929134,
                    "duration": 0.22012567499999847
                },
                {
                    "name": "A3",
                    "midi": 57,
                    "time": 11.006283749999993,
                    "velocity": 0.2677165354330709,
                    "duration": 0.19129969374999867
                },
                {
                    "name": "A#2",
                    "midi": 46,
                    "time": 11.163516374999991,
                    "velocity": 0.4094488188976378,
                    "duration": 0.1729558874999988
                },
                {
                    "name": "A#3",
                    "midi": 58,
                    "time": 11.163516374999991,
                    "velocity": 0.4881889763779528,
                    "duration": 0.18081751874999874
                },
                {
                    "name": "C3",
                    "midi": 48,
                    "time": 11.32074899999999,
                    "velocity": 0.5669291338582677,
                    "duration": 2.2955963249999947
                },
                {
                    "name": "C4",
                    "midi": 60,
                    "time": 11.32074899999999,
                    "velocity": 0.5511811023622047,
                    "duration": 2.277252518749995
                },
                {
                    "name": "D4",
                    "midi": 62,
                    "time": 12.26414474999999,
                    "velocity": 0.5196850393700787,
                    "duration": 0.2987419874999997
                },
                {
                    "name": "A#4",
                    "midi": 70,
                    "time": 12.26414474999999,
                    "velocity": 0.4881889763779528,
                    "duration": 0.21488458750000028
                },
                {
                    "name": "E5",
                    "midi": 76,
                    "time": 12.26414474999999,
                    "velocity": 0.5511811023622047,
                    "duration": 0.3092241624999996
                },
                {
                    "name": "E4",
                    "midi": 64,
                    "time": 12.578609999999989,
                    "velocity": 0.6299212598425197,
                    "duration": 0.7154084437499986
                },
                {
                    "name": "A#4",
                    "midi": 70,
                    "time": 12.578609999999989,
                    "velocity": 0.5826771653543307,
                    "duration": 0.5948634312499994
                },
                {
                    "name": "D5",
                    "midi": 74,
                    "time": 12.578609999999989,
                    "velocity": 0.5826771653543307,
                    "duration": 0.8176096499999979
                },
                {
                    "name": "D3",
                    "midi": 50,
                    "time": 13.522005749999986,
                    "velocity": 0.36220472440944884,
                    "duration": 0.18343806249999872
                },
                {
                    "name": "D4",
                    "midi": 62,
                    "time": 13.522005749999986,
                    "velocity": 0.36220472440944884,
                    "duration": 0.1729558874999988
                },
                {
                    "name": "F4",
                    "midi": 65,
                    "time": 13.522005749999986,
                    "velocity": 0.5354330708661418,
                    "duration": 0.19654078124999863
                },
                {
                    "name": "A#4",
                    "midi": 70,
                    "time": 13.522005749999986,
                    "velocity": 0.5196850393700787,
                    "duration": 0.1598531687499989
                },
                {
                    "name": "C5",
                    "midi": 72,
                    "time": 13.522005749999986,
                    "velocity": 0.5511811023622047,
                    "duration": 0.23322839374999838
                },
                {
                    "name": "E3",
                    "midi": 52,
                    "time": 13.679238374999985,
                    "velocity": 0.5511811023622047,
                    "duration": 0.1729558874999988
                },
                {
                    "name": "E4",
                    "midi": 64,
                    "time": 13.679238374999985,
                    "velocity": 0.5511811023622047,
                    "duration": 0.19392023749999865
                },
                {
                    "name": "F3",
                    "midi": 53,
                    "time": 13.836470999999984,
                    "velocity": 0.6141732283464567,
                    "duration": 1.0770434812499996
                },
                {
                    "name": "F4",
                    "midi": 65,
                    "time": 13.836470999999984,
                    "velocity": 0.6929133858267716,
                    "duration": 1.02725315
                },
                {
                    "name": "G4",
                    "midi": 67,
                    "time": 13.836470999999984,
                    "velocity": 0.7165354330708661,
                    "duration": 1.1058694624999994
                },
                {
                    "name": "A4",
                    "midi": 69,
                    "time": 13.836470999999984,
                    "velocity": 0.6456692913385826,
                    "duration": 1.2421377374999985
                },
                {
                    "name": "E5",
                    "midi": 76,
                    "time": 13.836470999999984,
                    "velocity": 0.6299212598425197,
                    "duration": 1.962787268749997
                },
                {
                    "name": "G3",
                    "midi": 55,
                    "time": 14.779866749999984,
                    "velocity": 0.4094488188976378,
                    "duration": 0.18343806249999872
                },
                {
                    "name": "G4",
                    "midi": 67,
                    "time": 14.779866749999984,
                    "velocity": 0.5669291338582677,
                    "duration": 1.0455969562499963
                },
                {
                    "name": "A3",
                    "midi": 57,
                    "time": 14.937099374999983,
                    "velocity": 0.4251968503937008,
                    "duration": 0.1991613249999986
                },
                {
                    "name": "A4",
                    "midi": 69,
                    "time": 14.937099374999983,
                    "velocity": 0.5511811023622047,
                    "duration": 0.9198108562499971
                },
                {
                    "name": "A#3",
                    "midi": 58,
                    "time": 15.094331999999982,
                    "velocity": 0.6456692913385826,
                    "duration": 2.547168525000002
                },
                {
                    "name": "A#4",
                    "midi": 70,
                    "time": 15.094331999999982,
                    "velocity": 0.6456692913385826,
                    "duration": 2.547168525000002
                },
                {
                    "name": "F4",
                    "midi": 65,
                    "time": 16.03772774999998,
                    "velocity": 0.4251968503937008,
                    "duration": 0.22536676250000198
                },
                {
                    "name": "A4",
                    "midi": 69,
                    "time": 16.03772774999998,
                    "velocity": 0.4251968503937008,
                    "duration": 0.20702295625000033
                },
                {
                    "name": "D5",
                    "midi": 74,
                    "time": 16.03772774999998,
                    "velocity": 0.5196850393700787,
                    "duration": 0.27253655000000165
                },
                {
                    "name": "D4",
                    "midi": 62,
                    "time": 16.352192999999982,
                    "velocity": 0.2677165354330709,
                    "duration": 0.4926622250000001
                },
                {
                    "name": "F4",
                    "midi": 65,
                    "time": 16.352192999999982,
                    "velocity": 0.25196850393700787,
                    "duration": 0.5293498374999999
                },
                {
                    "name": "A4",
                    "midi": 69,
                    "time": 16.352192999999982,
                    "velocity": 0.4094488188976378,
                    "duration": 0.7468549687500001
                },
                {
                    "name": "A3",
                    "midi": 57,
                    "time": 17.295588749999983,
                    "velocity": 0.14960629921259844,
                    "duration": 0.1388888187500008
                },
                {
                    "name": "D4",
                    "midi": 62,
                    "time": 17.295588749999983,
                    "velocity": 0.23622047244094488,
                    "duration": 0.1781969750000023
                },
                {
                    "name": "F4",
                    "midi": 65,
                    "time": 17.295588749999983,
                    "velocity": 0.2992125984251969,
                    "duration": 0.15985316875000066
                },
                {
                    "name": "A#3",
                    "midi": 58,
                    "time": 17.610053999999984,
                    "velocity": 0.18110236220472442,
                    "duration": 3.41456850625001
                },
                {
                    "name": "D4",
                    "midi": 62,
                    "time": 17.610053999999984,
                    "velocity": 0.12598425196850394,
                    "duration": 3.330711106250007
                },
                {
                    "name": "F4",
                    "midi": 65,
                    "time": 17.610053999999984,
                    "velocity": 0.2677165354330709,
                    "duration": 3.162996306250008
                },
                {
                    "name": "A4",
                    "midi": 69,
                    "time": 17.610053999999984,
                    "velocity": 0.2125984251968504,
                    "duration": 3.3595370875000086
                },
                {
                    "name": "D2",
                    "midi": 38,
                    "time": 18.553449749999988,
                    "velocity": 0.5196850393700787,
                    "duration": 0.3747377562500027
                },
                {
                    "name": "D3",
                    "midi": 50,
                    "time": 18.553449749999988,
                    "velocity": 0.4330708661417323,
                    "duration": 0.3773583000000045
                },
                {
                    "name": "E2",
                    "midi": 40,
                    "time": 18.86791499999999,
                    "velocity": 0.3543307086614173,
                    "duration": 0.9748422750000039
                },
                {
                    "name": "E3",
                    "midi": 52,
                    "time": 18.86791499999999,
                    "velocity": 0.4094488188976378,
                    "duration": 0.9643601000000039
                },
                {
                    "name": "F2",
                    "midi": 41,
                    "time": 19.811310749999993,
                    "velocity": 0.29133858267716534,
                    "duration": 0.395702106249999
                },
                {
                    "name": "F3",
                    "midi": 53,
                    "time": 19.811310749999993,
                    "velocity": 0.3228346456692913,
                    "duration": 0.3563939499999975
                },
                {
                    "name": "G2",
                    "midi": 43,
                    "time": 20.12577599999999,
                    "velocity": 0.3858267716535433,
                    "duration": 2.6257848375000137
                },
                {
                    "name": "G3",
                    "midi": 55,
                    "time": 20.12577599999999,
                    "velocity": 0.4251968503937008,
                    "duration": 2.6572313625000135
                },
                {
                    "name": "A3",
                    "midi": 57,
                    "time": 21.069171749999995,
                    "velocity": 0.28346456692913385,
                    "duration": 0.36949666875000275
                },
                {
                    "name": "C4",
                    "midi": 60,
                    "time": 21.069171749999995,
                    "velocity": 0.29133858267716534,
                    "duration": 0.3013625312499997
                },
                {
                    "name": "E4",
                    "midi": 64,
                    "time": 21.069171749999995,
                    "velocity": 0.4330708661417323,
                    "duration": 0.3013625312499997
                },
                {
                    "name": "A#3",
                    "midi": 58,
                    "time": 21.383636999999997,
                    "velocity": 0.4409448818897638,
                    "duration": 0.7101673562500039
                },
                {
                    "name": "D4",
                    "midi": 62,
                    "time": 21.383636999999997,
                    "velocity": 0.4251968503937008,
                    "duration": 0.7101673562500039
                },
                {
                    "name": "F4",
                    "midi": 65,
                    "time": 21.383636999999997,
                    "velocity": 0.47244094488188976,
                    "duration": 0.7101673562500039
                },
                {
                    "name": "A3",
                    "midi": 57,
                    "time": 22.32703275,
                    "velocity": 0.14960629921259844,
                    "duration": 0.23846948125000367
                },
                {
                    "name": "C4",
                    "midi": 60,
                    "time": 22.32703275,
                    "velocity": 0.1732283464566929,
                    "duration": 0.19916132500000217
                },
                {
                    "name": "E4",
                    "midi": 64,
                    "time": 22.32703275,
                    "velocity": 0.3779527559055118,
                    "duration": 0.18081751875000052
                },
                {
                    "name": "G4",
                    "midi": 67,
                    "time": 22.32703275,
                    "velocity": 0.4409448818897638,
                    "duration": 0.23846948125000367
                },
                {
                    "name": "A#3",
                    "midi": 58,
                    "time": 22.641498000000006,
                    "velocity": 0.3464566929133858,
                    "duration": 3.354296000000005
                },
                {
                    "name": "D4",
                    "midi": 62,
                    "time": 22.641498000000006,
                    "velocity": 0.33070866141732286,
                    "duration": 3.3831219812500066
                },
                {
                    "name": "F4",
                    "midi": 65,
                    "time": 22.641498000000006,
                    "velocity": 0.25984251968503935,
                    "duration": 3.422430137500008
                },
                {
                    "name": "A4",
                    "midi": 69,
                    "time": 22.641498000000006,
                    "velocity": 0.36220472440944884,
                    "duration": 3.5036669937500093
                },
                {
                    "name": "D2",
                    "midi": 38,
                    "time": 23.584893750000006,
                    "velocity": 0.3700787401574803,
                    "duration": 0.39570210625000257
                },
                {
                    "name": "D3",
                    "midi": 50,
                    "time": 23.584893750000006,
                    "velocity": 0.4251968503937008,
                    "duration": 0.4035637375000043
                },
                {
                    "name": "E2",
                    "midi": 40,
                    "time": 23.899359000000008,
                    "velocity": 0.3543307086614173,
                    "duration": 0.993186081250002
                },
                {
                    "name": "E3",
                    "midi": 52,
                    "time": 23.899359000000008,
                    "velocity": 0.4409448818897638,
                    "duration": 0.993186081250002
                },
                {
                    "name": "F2",
                    "midi": 41,
                    "time": 24.842754750000008,
                    "velocity": 0.3700787401574803,
                    "duration": 0.4140459125000042
                },
                {
                    "name": "F3",
                    "midi": 53,
                    "time": 24.842754750000008,
                    "velocity": 0.3858267716535433,
                    "duration": 0.4061842812500025
                },
                {
                    "name": "G2",
                    "midi": 43,
                    "time": 25.15722000000001,
                    "velocity": 0.4094488188976378,
                    "duration": 4.667188418750008
                },
                {
                    "name": "G3",
                    "midi": 55,
                    "time": 25.15722000000001,
                    "velocity": 0.4330708661417323,
                    "duration": 4.69601440000001
                },
                {
                    "name": "A3",
                    "midi": 57,
                    "time": 26.415081000000015,
                    "velocity": 0.2204724409448819,
                    "duration": 0.47693896250000023
                },
                {
                    "name": "A#3",
                    "midi": 58,
                    "time": 26.415081000000015,
                    "velocity": 0.12598425196850394,
                    "duration": 0.4979033125000001
                },
                {
                    "name": "D4",
                    "midi": 62,
                    "time": 26.415081000000015,
                    "velocity": 0.1968503937007874,
                    "duration": 0.5896223437500012
                },
                {
                    "name": "F4",
                    "midi": 65,
                    "time": 26.415081000000015,
                    "velocity": 0.2125984251968504,
                    "duration": 0.4690773312499985
                },
                {
                    "name": "F3",
                    "midi": 53,
                    "time": 27.672942000000017,
                    "velocity": 0.11811023622047244,
                    "duration": 0.4952827687500019
                },
                {
                    "name": "A3",
                    "midi": 57,
                    "time": 27.672942000000017,
                    "velocity": 0.12598425196850394,
                    "duration": 0.46907733125000206
                },
                {
                    "name": "A#3",
                    "midi": 58,
                    "time": 27.672942000000017,
                    "velocity": 0.07874015748031496,
                    "duration": 0.4402513500000005
                },
                {
                    "name": "D4",
                    "midi": 62,
                    "time": 27.672942000000017,
                    "velocity": 0.16535433070866143,
                    "duration": 0.45859515625000213
                },
                {
                    "name": "A#2",
                    "midi": 46,
                    "time": 28.93080300000002,
                    "velocity": 0.07874015748031496,
                    "duration": 0.1153039249999992
                },
                {
                    "name": "D3",
                    "midi": 50,
                    "time": 28.93080300000002,
                    "velocity": 0.18110236220472442,
                    "duration": 0.12316555625000092
                },
                {
                    "name": "F3",
                    "midi": 53,
                    "time": 28.93080300000002,
                    "velocity": 0.06299212598425197,
                    "duration": 0.10482174999999927
                },
                {
                    "name": "A3",
                    "midi": 57,
                    "time": 28.93080300000002,
                    "velocity": 0.11811023622047244,
                    "duration": 0.14412990625000077
                },
                {
                    "name": "C2",
                    "midi": 36,
                    "time": 30.188664000000017,
                    "velocity": 0.49606299212598426,
                    "duration": 1.8658271500000012
                },
                {
                    "name": "G2",
                    "midi": 43,
                    "time": 30.188664000000017,
                    "velocity": 0.4330708661417323,
                    "duration": 1.8553449750000013
                },
                {
                    "name": "G3",
                    "midi": 55,
                    "time": 30.188664000000017,
                    "velocity": 0.44881889763779526,
                    "duration": 1.5513619000000034
                },
                {
                    "name": "C4",
                    "midi": 60,
                    "time": 30.188664000000017,
                    "velocity": 0.47244094488188976,
                    "duration": 1.0089093437499983
                },
                {
                    "name": "C4",
                    "midi": 60,
                    "time": 31.132059750000014,
                    "velocity": 0.3543307086614173,
                    "duration": 0.21226404375000385
                },
                {
                    "name": "C5",
                    "midi": 72,
                    "time": 31.132059750000014,
                    "velocity": 0.5354330708661418,
                    "duration": 0.07337522500000304
                },
                {
                    "name": "C4",
                    "midi": 60,
                    "time": 31.289292375000016,
                    "velocity": 0.4094488188976378,
                    "duration": 0.7442344250000019
                },
                {
                    "name": "C3",
                    "midi": 48,
                    "time": 31.44652500000002,
                    "velocity": 0.4094488188976378,
                    "duration": 0.8280918249999978
                },
                {
                    "name": "C4",
                    "midi": 60,
                    "time": 31.44652500000002,
                    "velocity": 0.36220472440944884,
                    "duration": 0.8385739999999977
                },
                {
                    "name": "A#1",
                    "midi": 34,
                    "time": 32.07545550000002,
                    "velocity": 0.3543307086614173,
                    "duration": 0.6944440937500005
                },
                {
                    "name": "F2",
                    "midi": 41,
                    "time": 32.07545550000002,
                    "velocity": 0.44881889763779526,
                    "duration": 0.6656181124999989
                },
                {
                    "name": "F3",
                    "midi": 53,
                    "time": 32.07545550000002,
                    "velocity": 0.2125984251968504,
                    "duration": 0.7101673562500039
                },
                {
                    "name": "A#3",
                    "midi": 58,
                    "time": 32.07545550000002,
                    "velocity": 0.3858267716535433,
                    "duration": 0.7285111625000056
                },
                {
                    "name": "G1",
                    "midi": 31,
                    "time": 32.704386000000014,
                    "velocity": 0.47244094488188976,
                    "duration": 1.3469594875000155
                },
                {
                    "name": "D2",
                    "midi": 38,
                    "time": 32.704386000000014,
                    "velocity": 0.5511811023622047,
                    "duration": 1.3286156812500138
                },
                {
                    "name": "D3",
                    "midi": 50,
                    "time": 32.704386000000014,
                    "velocity": 0.4094488188976378,
                    "duration": 1.2945486125000158
                },
                {
                    "name": "G3",
                    "midi": 55,
                    "time": 32.704386000000014,
                    "velocity": 0.3543307086614173,
                    "duration": 1.352200575000019
                },
                {
                    "name": "A#1",
                    "midi": 34,
                    "time": 33.962247000000026,
                    "velocity": 0.3858267716535433,
                    "duration": 0.6498948500000026
                },
                {
                    "name": "F2",
                    "midi": 41,
                    "time": 33.962247000000026,
                    "velocity": 0.4015748031496063,
                    "duration": 0.6787208312500042
                },
                {
                    "name": "F3",
                    "midi": 53,
                    "time": 33.962247000000026,
                    "velocity": 0.3228346456692913,
                    "duration": 0.6158277812500046
                },
                {
                    "name": "A#3",
                    "midi": 58,
                    "time": 33.962247000000026,
                    "velocity": 0.4015748031496063,
                    "duration": 0.6551359375000061
                },
                {
                    "name": "D2",
                    "midi": 38,
                    "time": 34.59117750000003,
                    "velocity": 0.29133858267716534,
                    "duration": 0.7127879000000092
                },
                {
                    "name": "A2",
                    "midi": 45,
                    "time": 34.59117750000003,
                    "velocity": 0.4094488188976378,
                    "duration": 0.676100287500006
                },
                {
                    "name": "A3",
                    "midi": 57,
                    "time": 34.59117750000003,
                    "velocity": 0.4409448818897638,
                    "duration": 0.720649531250011
                },
                {
                    "name": "D4",
                    "midi": 62,
                    "time": 34.59117750000003,
                    "velocity": 0.4645669291338583,
                    "duration": 0.720649531250011
                },
                {
                    "name": "C2",
                    "midi": 36,
                    "time": 35.22010800000003,
                    "velocity": 0.2755905511811024,
                    "duration": 1.9234791125000115
                },
                {
                    "name": "G2",
                    "midi": 43,
                    "time": 35.22010800000003,
                    "velocity": 0.3779527559055118,
                    "duration": 1.9051353062500098
                },
                {
                    "name": "G3",
                    "midi": 55,
                    "time": 35.22010800000003,
                    "velocity": 0.3700787401574803,
                    "duration": 1.897273675000008
                },
                {
                    "name": "C4",
                    "midi": 60,
                    "time": 35.22010800000003,
                    "velocity": 0.4330708661417323,
                    "duration": 1.0089093437500054
                },
                {
                    "name": "C4",
                    "midi": 60,
                    "time": 36.16350375000004,
                    "velocity": 0.2204724409448819,
                    "duration": 0.20178186874999682
                },
                {
                    "name": "C5",
                    "midi": 72,
                    "time": 36.16350375000004,
                    "velocity": 0.44881889763779526,
                    "duration": 0.09433957499999934
                },
                {
                    "name": "C4",
                    "midi": 60,
                    "time": 36.32073637500004,
                    "velocity": 0.3779527559055118,
                    "duration": 0.7756809500000017
                },
                {
                    "name": "C3",
                    "midi": 48,
                    "time": 36.47796900000004,
                    "velocity": 0.36220472440944884,
                    "duration": 0.9224314000000078
                },
                {
                    "name": "C4",
                    "midi": 60,
                    "time": 36.47796900000004,
                    "velocity": 0.2755905511811024,
                    "duration": 0.9302930312500095
                },
                {
                    "name": "A#1",
                    "midi": 34,
                    "time": 37.10689950000004,
                    "velocity": 0.2440944881889764,
                    "duration": 0.7049262687500146
                },
                {
                    "name": "F2",
                    "midi": 41,
                    "time": 37.10689950000004,
                    "velocity": 0.2204724409448819,
                    "duration": 0.686582462500013
                },
                {
                    "name": "F3",
                    "midi": 53,
                    "time": 37.10689950000004,
                    "velocity": 0.09448818897637795,
                    "duration": 0.6577564812500114
                },
                {
                    "name": "A#3",
                    "midi": 58,
                    "time": 37.10689950000004,
                    "velocity": 0.14173228346456693,
                    "duration": 0.7049262687500146
                },
                {
                    "name": "G1",
                    "midi": 31,
                    "time": 37.73583000000005,
                    "velocity": 0.1968503937007874,
                    "duration": 0.6682386562500042
                },
                {
                    "name": "D2",
                    "midi": 38,
                    "time": 37.73583000000005,
                    "velocity": 0.1732283464566929,
                    "duration": 0.6577564812500043
                },
                {
                    "name": "D3",
                    "midi": 50,
                    "time": 37.73583000000005,
                    "velocity": 0.07086614173228346,
                    "duration": 0.7049262687500075
                },
                {
                    "name": "G3",
                    "midi": 55,
                    "time": 37.73583000000005,
                    "velocity": 0.2047244094488189,
                    "duration": 0.6682386562500042
                },
                {
                    "name": "A#1",
                    "midi": 34,
                    "time": 38.36476050000005,
                    "velocity": 0.2125984251968504,
                    "duration": 0.6839619187500006
                },
                {
                    "name": "F2",
                    "midi": 41,
                    "time": 38.36476050000005,
                    "velocity": 0.1732283464566929,
                    "duration": 0.7416138812499966
                },
                {
                    "name": "F3",
                    "midi": 53,
                    "time": 38.36476050000005,
                    "velocity": 0.07874015748031496,
                    "duration": 0.7075468124999986
                },
                {
                    "name": "A#3",
                    "midi": 58,
                    "time": 38.36476050000005,
                    "velocity": 0.12598425196850394,
                    "duration": 0.6970646374999987
                },
                {
                    "name": "G1",
                    "midi": 31,
                    "time": 38.993691000000055,
                    "velocity": 0.1889763779527559,
                    "duration": 1.221173387499995
                },
                {
                    "name": "D2",
                    "midi": 38,
                    "time": 38.993691000000055,
                    "velocity": 0.11023622047244094,
                    "duration": 1.231655562499995
                },
                {
                    "name": "D3",
                    "midi": 50,
                    "time": 38.993691000000055,
                    "velocity": 0.10236220472440945,
                    "duration": 1.1687625124999954
                },
                {
                    "name": "G3",
                    "midi": 55,
                    "time": 38.993691000000055,
                    "velocity": 0.09448818897637795,
                    "duration": 1.1792446874999953
                },
                {
                    "name": "F1",
                    "midi": 29,
                    "time": 40.25155200000005,
                    "velocity": 0.4330708661417323,
                    "duration": 2.190774574999992
                },
                {
                    "name": "F2",
                    "midi": 41,
                    "time": 40.25155200000005,
                    "velocity": 0.44881889763779526,
                    "duration": 2.2012567499999918
                },
                {
                    "name": "G3",
                    "midi": 55,
                    "time": 41.19494775000005,
                    "velocity": 0.2677165354330709,
                    "duration": 0.28563926874999623
                },
                {
                    "name": "A3",
                    "midi": 57,
                    "time": 41.19494775000005,
                    "velocity": 0.2204724409448819,
                    "duration": 0.32232688124999953
                },
                {
                    "name": "C4",
                    "midi": 60,
                    "time": 41.19494775000005,
                    "velocity": 0.2992125984251969,
                    "duration": 0.3039830749999979
                },
                {
                    "name": "G4",
                    "midi": 67,
                    "time": 41.19494775000005,
                    "velocity": 0.36220472440944884,
                    "duration": 0.1912996937499969
                },
                {
                    "name": "G4",
                    "midi": 67,
                    "time": 41.509413000000045,
                    "velocity": 0.3937007874015748,
                    "duration": 1.9156174812499955
                },
                {
                    "name": "A4",
                    "midi": 69,
                    "time": 41.509413000000045,
                    "velocity": 0.3700787401574803,
                    "duration": 1.8710682374999976
                },
                {
                    "name": "C5",
                    "midi": 72,
                    "time": 41.509413000000045,
                    "velocity": 0.3700787401574803,
                    "duration": 1.9287201999999937
                },
                {
                    "name": "G5",
                    "midi": 79,
                    "time": 41.509413000000045,
                    "velocity": 0.4645669291338583,
                    "duration": 1.8710682374999976
                },
                {
                    "name": "G1",
                    "midi": 31,
                    "time": 42.452808750000045,
                    "velocity": 0.33858267716535434,
                    "duration": 0.33805014374999587
                },
                {
                    "name": "G2",
                    "midi": 43,
                    "time": 42.452808750000045,
                    "velocity": 0.4015748031496063,
                    "duration": 0.36949666874999565
                },
                {
                    "name": "A1",
                    "midi": 33,
                    "time": 42.76727400000004,
                    "velocity": 0.33070866141732286,
                    "duration": 2.306078499999991
                },
                {
                    "name": "A2",
                    "midi": 45,
                    "time": 42.76727400000004,
                    "velocity": 0.4409448818897638,
                    "duration": 2.295596324999991
                },
                {
                    "name": "G4",
                    "midi": 67,
                    "time": 43.71066975000004,
                    "velocity": 0.2992125984251969,
                    "duration": 0.20440241250000213
                },
                {
                    "name": "E5",
                    "midi": 76,
                    "time": 43.71066975000004,
                    "velocity": 0.2677165354330709,
                    "duration": 0.1572326249999989
                },
                {
                    "name": "C5",
                    "midi": 72,
                    "time": 43.867902375000035,
                    "velocity": 0.36220472440944884,
                    "duration": 0.08385740000000652
                },
                {
                    "name": "G3",
                    "midi": 55,
                    "time": 44.02513500000004,
                    "velocity": 0.2677165354330709,
                    "duration": 1.8029341000000016
                },
                {
                    "name": "C4",
                    "midi": 60,
                    "time": 44.02513500000004,
                    "velocity": 0.3228346456692913,
                    "duration": 1.8684476937500065
                },
                {
                    "name": "E4",
                    "midi": 64,
                    "time": 44.02513500000004,
                    "velocity": 0.4330708661417323,
                    "duration": 1.8422422562500032
                },
                {
                    "name": "A#1",
                    "midi": 34,
                    "time": 44.968530750000035,
                    "velocity": 0.16535433070866143,
                    "duration": 0.1912996937499969
                },
                {
                    "name": "A#2",
                    "midi": 46,
                    "time": 44.968530750000035,
                    "velocity": 0.30708661417322836,
                    "duration": 0.18081751874999696
                },
                {
                    "name": "C2",
                    "midi": 36,
                    "time": 45.125763375000034,
                    "velocity": 0.3700787401574803,
                    "duration": 0.1965407812500075
                },
                {
                    "name": "C3",
                    "midi": 48,
                    "time": 45.125763375000034,
                    "velocity": 0.3700787401574803,
                    "duration": 0.1519915375000025
                },
                {
                    "name": "D2",
                    "midi": 38,
                    "time": 45.28299600000004,
                    "velocity": 0.3937007874015748,
                    "duration": 2.175051312500017
                },
                {
                    "name": "D3",
                    "midi": 50,
                    "time": 45.28299600000004,
                    "velocity": 0.4409448818897638,
                    "duration": 2.22222110000002
                },
                {
                    "name": "F3",
                    "midi": 53,
                    "time": 46.22639175000005,
                    "velocity": 0.07874015748031496,
                    "duration": 0.20702295625000033
                },
                {
                    "name": "A3",
                    "midi": 57,
                    "time": 46.22639175000005,
                    "velocity": 0.2440944881889764,
                    "duration": 0.17819697499999876
                },
                {
                    "name": "D4",
                    "midi": 62,
                    "time": 46.22639175000005,
                    "velocity": 0.4409448818897638,
                    "duration": 0.24371056875000363
                },
                {
                    "name": "A3",
                    "midi": 57,
                    "time": 46.54085700000005,
                    "velocity": 0.44881889763779526,
                    "duration": 0.5372114687500016
                },
                {
                    "name": "C4",
                    "midi": 60,
                    "time": 46.54085700000005,
                    "velocity": 0.3779527559055118,
                    "duration": 0.5110060312499982
                },
                {
                    "name": "F4",
                    "midi": 65,
                    "time": 46.54085700000005,
                    "velocity": 0.5196850393700787,
                    "duration": 0.5660374500000032
                },
                {
                    "name": "E2",
                    "midi": 40,
                    "time": 47.48425275000006,
                    "velocity": 0.3858267716535433,
                    "duration": 0.1912996937499969
                },
                {
                    "name": "E3",
                    "midi": 52,
                    "time": 47.48425275000006,
                    "velocity": 0.4251968503937008,
                    "duration": 0.20178186874999682
                },
                {
                    "name": "C4",
                    "midi": 60,
                    "time": 47.48425275000006,
                    "velocity": 0.28346456692913385,
                    "duration": 0.20702295625000033
                },
                {
                    "name": "D4",
                    "midi": 62,
                    "time": 47.48425275000006,
                    "velocity": 0.33070866141732286,
                    "duration": 0.2358489375000019
                },
                {
                    "name": "A4",
                    "midi": 69,
                    "time": 47.48425275000006,
                    "velocity": 0.36220472440944884,
                    "duration": 0.2358489375000019
                },
                {
                    "name": "F2",
                    "midi": 41,
                    "time": 47.64148537500006,
                    "velocity": 0.5354330708661418,
                    "duration": 0.191299693750004
                },
                {
                    "name": "F3",
                    "midi": 53,
                    "time": 47.64148537500006,
                    "velocity": 0.5118110236220472,
                    "duration": 0.19916132500000572
                },
                {
                    "name": "G2",
                    "midi": 43,
                    "time": 47.798718000000065,
                    "velocity": 0.5669291338582677,
                    "duration": 3.501046450000011
                },
                {
                    "name": "G3",
                    "midi": 55,
                    "time": 47.798718000000065,
                    "velocity": 0.5669291338582677,
                    "duration": 3.4931848187500094
                },
                {
                    "name": "C4",
                    "midi": 60,
                    "time": 47.798718000000065,
                    "velocity": 0.5354330708661418,
                    "duration": 0.621068868750001
                },
                {
                    "name": "D4",
                    "midi": 62,
                    "time": 47.798718000000065,
                    "velocity": 0.5354330708661418,
                    "duration": 0.7127879000000021
                },
                {
                    "name": "A4",
                    "midi": 69,
                    "time": 47.798718000000065,
                    "velocity": 0.5984251968503937,
                    "duration": 0.5765196250000031
                },
                {
                    "name": "B3",
                    "midi": 59,
                    "time": 48.742113750000065,
                    "velocity": 0.3543307086614173,
                    "duration": 0.10220120625000106
                },
                {
                    "name": "D4",
                    "midi": 62,
                    "time": 48.742113750000065,
                    "velocity": 0.44881889763779526,
                    "duration": 0.08385739999999942
                },
                {
                    "name": "G4",
                    "midi": 67,
                    "time": 48.742113750000065,
                    "velocity": 0.5354330708661418,
                    "duration": 0.15985316875000422
                },
                {
                    "name": "D4",
                    "midi": 62,
                    "time": 49.05657900000007,
                    "velocity": 0.5354330708661418,
                    "duration": 0.4245280875000077
                },
                {
                    "name": "F4",
                    "midi": 65,
                    "time": 49.05657900000007,
                    "velocity": 0.5669291338582677,
                    "duration": 0.44549243750000755
                },
                {
                    "name": "B4",
                    "midi": 71,
                    "time": 49.05657900000007,
                    "velocity": 0.6692913385826772,
                    "duration": 0.49004168125000547
                },
                {
                    "name": "F4",
                    "midi": 65,
                    "time": 49.99997475000008,
                    "velocity": 0.5669291338582677,
                    "duration": 0.0759957687499977
                },
                {
                    "name": "A4",
                    "midi": 69,
                    "time": 49.99997475000008,
                    "velocity": 0.5669291338582677,
                    "duration": 0.0759957687499977
                },
                {
                    "name": "D5",
                    "midi": 74,
                    "time": 49.99997475000008,
                    "velocity": 0.6929133858267716,
                    "duration": 0.14937099374999718
                },
                {
                    "name": "A4",
                    "midi": 69,
                    "time": 50.314440000000076,
                    "velocity": 0.6692913385826772,
                    "duration": 2.0702295625000033
                },
                {
                    "name": "B4",
                    "midi": 71,
                    "time": 50.314440000000076,
                    "velocity": 0.7165354330708661,
                    "duration": 2.099055543750005
                },
                {
                    "name": "D5",
                    "midi": 74,
                    "time": 50.314440000000076,
                    "velocity": 0.7165354330708661,
                    "duration": 2.099055543750005
                },
                {
                    "name": "F5",
                    "midi": 77,
                    "time": 50.314440000000076,
                    "velocity": 0.6929133858267716,
                    "duration": 1.9968543375000039
                },
                {
                    "name": "A2",
                    "midi": 45,
                    "time": 51.257835750000076,
                    "velocity": 0.3858267716535433,
                    "duration": 0.1519915375000025
                },
                {
                    "name": "A3",
                    "midi": 57,
                    "time": 51.257835750000076,
                    "velocity": 0.3937007874015748,
                    "duration": 0.20178186875000392
                },
                {
                    "name": "B2",
                    "midi": 47,
                    "time": 51.41506837500008,
                    "velocity": 0.4094488188976378,
                    "duration": 0.17033534374999704
                },
                {
                    "name": "B3",
                    "midi": 59,
                    "time": 51.41506837500008,
                    "velocity": 0.4251968503937008,
                    "duration": 0.18867914999999869
                },
                {
                    "name": "C3",
                    "midi": 48,
                    "time": 51.57230100000008,
                    "velocity": 0.5826771653543307,
                    "duration": 3.5377340625000073
                },
                {
                    "name": "C4",
                    "midi": 60,
                    "time": 51.57230100000008,
                    "velocity": 0.5826771653543307,
                    "duration": 3.5482162375000073
                },
                {
                    "name": "G4",
                    "midi": 67,
                    "time": 52.51569675000008,
                    "velocity": 0.4645669291338583,
                    "duration": 0.17033534375000414
                },
                {
                    "name": "B4",
                    "midi": 71,
                    "time": 52.51569675000008,
                    "velocity": 0.4330708661417323,
                    "duration": 0.12316555625000092
                },
                {
                    "name": "C5",
                    "midi": 72,
                    "time": 52.51569675000008,
                    "velocity": 0.3937007874015748,
                    "duration": 0.13364773125000085
                },
                {
                    "name": "E5",
                    "midi": 76,
                    "time": 52.51569675000008,
                    "velocity": 0.4409448818897638,
                    "duration": 0.14412990625000077
                },
                {
                    "name": "F4",
                    "midi": 65,
                    "time": 52.83016200000009,
                    "velocity": 0.3543307086614173,
                    "duration": 0.47955950624999133
                },
                {
                    "name": "G4",
                    "midi": 67,
                    "time": 52.83016200000009,
                    "velocity": 0.4251968503937008,
                    "duration": 0.4219075437499953
                },
                {
                    "name": "B4",
                    "midi": 71,
                    "time": 52.83016200000009,
                    "velocity": 0.3937007874015748,
                    "duration": 0.4245280874999935
                },
                {
                    "name": "D5",
                    "midi": 74,
                    "time": 52.83016200000009,
                    "velocity": 0.3858267716535433,
                    "duration": 0.41404591249999356
                },
                {
                    "name": "E4",
                    "midi": 64,
                    "time": 53.77355775000008,
                    "velocity": 0.3543307086614173,
                    "duration": 0.08647794375000473
                },
                {
                    "name": "G4",
                    "midi": 67,
                    "time": 53.77355775000008,
                    "velocity": 0.4015748031496063,
                    "duration": 0.06813413750000308
                },
                {
                    "name": "A4",
                    "midi": 69,
                    "time": 53.77355775000008,
                    "velocity": 0.2755905511811024,
                    "duration": 0.06813413750000308
                },
                {
                    "name": "C5",
                    "midi": 72,
                    "time": 53.77355775000008,
                    "velocity": 0.4330708661417323,
                    "duration": 0.12316555625000802
                },
                {
                    "name": "F4",
                    "midi": 65,
                    "time": 54.088023000000085,
                    "velocity": 0.5511811023622047,
                    "duration": 1.8998942187500134
                },
                {
                    "name": "A4",
                    "midi": 69,
                    "time": 54.088023000000085,
                    "velocity": 0.5669291338582677,
                    "duration": 1.9260996562500168
                },
                {
                    "name": "C5",
                    "midi": 72,
                    "time": 54.088023000000085,
                    "velocity": 0.5118110236220472,
                    "duration": 1.9156174812500169
                },
                {
                    "name": "E5",
                    "midi": 76,
                    "time": 54.088023000000085,
                    "velocity": 0.5511811023622047,
                    "duration": 1.8422422562500103
                },
                {
                    "name": "D3",
                    "midi": 50,
                    "time": 55.031418750000086,
                    "velocity": 0.47244094488188976,
                    "duration": 0.22012567500000557
                },
                {
                    "name": "D4",
                    "midi": 62,
                    "time": 55.031418750000086,
                    "velocity": 0.44881889763779526,
                    "duration": 0.21226404375000385
                },
                {
                    "name": "E3",
                    "midi": 52,
                    "time": 55.18865137500009,
                    "velocity": 0.5511811023622047,
                    "duration": 0.16247371250000242
                },
                {
                    "name": "E4",
                    "midi": 64,
                    "time": 55.18865137500009,
                    "velocity": 0.5826771653543307,
                    "duration": 0.20964350000000564
                },
                {
                    "name": "F3",
                    "midi": 53,
                    "time": 55.34588400000009,
                    "velocity": 0.5826771653543307,
                    "duration": 2.64150810000001
                },
                {
                    "name": "F4",
                    "midi": 65,
                    "time": 55.34588400000009,
                    "velocity": 0.6929133858267716,
                    "duration": 2.64150810000001
                },
                {
                    "name": "E4",
                    "midi": 64,
                    "time": 56.289279750000105,
                    "velocity": 0.36220472440944884,
                    "duration": 0.09433957499999934
                },
                {
                    "name": "A4",
                    "midi": 69,
                    "time": 56.289279750000105,
                    "velocity": 0.33070866141732286,
                    "duration": 0.08385739999999942
                },
                {
                    "name": "C5",
                    "midi": 72,
                    "time": 56.289279750000105,
                    "velocity": 0.33070866141732286,
                    "duration": 0.24895165625000004
                },
                {
                    "name": "C4",
                    "midi": 60,
                    "time": 56.6037450000001,
                    "velocity": 0.2677165354330709,
                    "duration": 0.6708591999999953
                },
                {
                    "name": "E4",
                    "midi": 64,
                    "time": 56.6037450000001,
                    "velocity": 0.2440944881889764,
                    "duration": 0.5267292937499946
                },
                {
                    "name": "A4",
                    "midi": 69,
                    "time": 56.6037450000001,
                    "velocity": 0.2755905511811024,
                    "duration": 0.3799788437499956
                },
                {
                    "name": "G3",
                    "midi": 55,
                    "time": 57.547140750000096,
                    "velocity": 0.16535433070866143,
                    "duration": 0.1493709937500043
                },
                {
                    "name": "C4",
                    "midi": 60,
                    "time": 57.547140750000096,
                    "velocity": 0.16535433070866143,
                    "duration": 0.14150936250000257
                },
                {
                    "name": "E4",
                    "midi": 64,
                    "time": 57.547140750000096,
                    "velocity": 0.13385826771653545,
                    "duration": 0.1493709937500043
                },
                {
                    "name": "F3",
                    "midi": 53,
                    "time": 57.8616060000001,
                    "velocity": 0.1732283464566929,
                    "duration": 3.286161862500016
                },
                {
                    "name": "C4",
                    "midi": 60,
                    "time": 57.8616060000001,
                    "velocity": 0.14960629921259844,
                    "duration": 3.2783002312500145
                },
                {
                    "name": "E4",
                    "midi": 64,
                    "time": 57.8616060000001,
                    "velocity": 0.1732283464566929,
                    "duration": 3.304505668750018
                },
                {
                    "name": "A1",
                    "midi": 33,
                    "time": 58.8050017500001,
                    "velocity": 0.25984251968503935,
                    "duration": 0.32756796874999594
                },
                {
                    "name": "A2",
                    "midi": 45,
                    "time": 58.8050017500001,
                    "velocity": 0.25984251968503935,
                    "duration": 0.37473775624999917
                },
                {
                    "name": "B1",
                    "midi": 35,
                    "time": 59.1194670000001,
                    "velocity": 0.28346456692913385,
                    "duration": 0.9460162937499987
                },
                {
                    "name": "B2",
                    "midi": 47,
                    "time": 59.1194670000001,
                    "velocity": 0.30708661417322836,
                    "duration": 0.982703906250002
                },
                {
                    "name": "C2",
                    "midi": 36,
                    "time": 60.0628627500001,
                    "velocity": 0.4251968503937008,
                    "duration": 0.35901449375000993
                },
                {
                    "name": "C3",
                    "midi": 48,
                    "time": 60.0628627500001,
                    "velocity": 0.23622047244094488,
                    "duration": 0.3406706875000083
                },
                {
                    "name": "D2",
                    "midi": 38,
                    "time": 60.377328000000105,
                    "velocity": 0.2677165354330709,
                    "duration": 2.570753418750016
                },
                {
                    "name": "D3",
                    "midi": 50,
                    "time": 60.377328000000105,
                    "velocity": 0.3228346456692913,
                    "duration": 2.5890972250000175
                },
                {
                    "name": "C3",
                    "midi": 48,
                    "time": 61.32072375000012,
                    "velocity": 0.10236220472440945,
                    "duration": 0.18867914999999869
                },
                {
                    "name": "E3",
                    "midi": 52,
                    "time": 61.32072375000012,
                    "velocity": 0.2125984251968504,
                    "duration": 0.20702295625000033
                },
                {
                    "name": "A3",
                    "midi": 57,
                    "time": 61.32072375000012,
                    "velocity": 0.28346456692913385,
                    "duration": 0.2358489375000019
                },
                {
                    "name": "E3",
                    "midi": 52,
                    "time": 61.635189000000125,
                    "velocity": 0.4881889763779528,
                    "duration": 0.7363727937500002
                },
                {
                    "name": "G3",
                    "midi": 55,
                    "time": 61.635189000000125,
                    "velocity": 0.4251968503937008,
                    "duration": 0.7730604062500035
                },
                {
                    "name": "C4",
                    "midi": 60,
                    "time": 61.635189000000125,
                    "velocity": 0.36220472440944884,
                    "duration": 0.7468549687500001
                },
                {
                    "name": "F#3",
                    "midi": 54,
                    "time": 62.578584750000125,
                    "velocity": 0.2440944881889764,
                    "duration": 0.14937099374999718
                },
                {
                    "name": "A3",
                    "midi": 57,
                    "time": 62.578584750000125,
                    "velocity": 0.1732283464566929,
                    "duration": 0.22536676249999488
                },
                {
                    "name": "D4",
                    "midi": 62,
                    "time": 62.578584750000125,
                    "velocity": 0.33858267716535434,
                    "duration": 0.21488458749999495
                },
                {
                    "name": "F3",
                    "midi": 53,
                    "time": 62.89305000000012,
                    "velocity": 0.31496062992125984,
                    "duration": 3.849578768750014
                },
                {
                    "name": "C4",
                    "midi": 60,
                    "time": 62.89305000000012,
                    "velocity": 0.2440944881889764,
                    "duration": 3.3831219812500066
                },
                {
                    "name": "E4",
                    "midi": 64,
                    "time": 62.89305000000012,
                    "velocity": 0.2204724409448819,
                    "duration": 3.860060943750021
                },
                {
                    "name": "A1",
                    "midi": 33,
                    "time": 63.836445750000124,
                    "velocity": 0.2677165354330709,
                    "duration": 0.33542959999999766
                },
                {
                    "name": "A2",
                    "midi": 45,
                    "time": 63.836445750000124,
                    "velocity": 0.2755905511811024,
                    "duration": 0.385219931249992
                },
                {
                    "name": "B1",
                    "midi": 35,
                    "time": 64.15091100000012,
                    "velocity": 0.2677165354330709,
                    "duration": 1.0115298875000036
                },
                {
                    "name": "B2",
                    "midi": 47,
                    "time": 64.15091100000012,
                    "velocity": 0.33070866141732286,
                    "duration": 0.9722217312500021
                },
                {
                    "name": "C2",
                    "midi": 36,
                    "time": 65.09430675000013,
                    "velocity": 0.29133858267716534,
                    "duration": 0.3590144937499957
                },
                {
                    "name": "C3",
                    "midi": 48,
                    "time": 65.09430675000013,
                    "velocity": 0.2440944881889764,
                    "duration": 0.3799788437499956
                },
                {
                    "name": "D2",
                    "midi": 38,
                    "time": 65.40877200000013,
                    "velocity": 0.1889763779527559,
                    "duration": 4.774630712500027
                },
                {
                    "name": "D3",
                    "midi": 50,
                    "time": 65.40877200000013,
                    "velocity": 0.1889763779527559,
                    "duration": 4.999997475000029
                },
                {
                    "name": "E3",
                    "midi": 52,
                    "time": 66.66663300000013,
                    "velocity": 0.2204724409448819,
                    "duration": 0.8123685624999979
                },
                {
                    "name": "A3",
                    "midi": 57,
                    "time": 66.66663300000013,
                    "velocity": 0.18110236220472442,
                    "duration": 0.791404212499998
                },
                {
                    "name": "C4",
                    "midi": 60,
                    "time": 66.66663300000013,
                    "velocity": 0.2755905511811024,
                    "duration": 1.3443389437499889
                },
                {
                    "name": "C3",
                    "midi": 48,
                    "time": 67.92449400000012,
                    "velocity": 0.2677165354330709,
                    "duration": 0.8254712812500173
                },
                {
                    "name": "E3",
                    "midi": 52,
                    "time": 67.92449400000012,
                    "velocity": 0.14173228346456693,
                    "duration": 0.8071274750000157
                },
                {
                    "name": "A3",
                    "midi": 57,
                    "time": 67.92449400000012,
                    "velocity": 0.2204724409448819,
                    "duration": 0.6236894125000134
                },
                {
                    "name": "F#2",
                    "midi": 42,
                    "time": 69.18235500000014,
                    "velocity": 0.1732283464566929,
                    "duration": 0.8176096500000085
                },
                {
                    "name": "C3",
                    "midi": 48,
                    "time": 69.18235500000014,
                    "velocity": 0.11023622047244094,
                    "duration": 0.8857437875000045
                },
                {
                    "name": "E3",
                    "midi": 52,
                    "time": 69.18235500000014,
                    "velocity": 0.13385826771653545,
                    "duration": 0.8857437875000045
                },
                {
                    "name": "D2",
                    "midi": 38,
                    "time": 70.44021600000016,
                    "velocity": 0.1889763779527559,
                    "duration": 4.774630712499999
                },
                {
                    "name": "A2",
                    "midi": 45,
                    "time": 70.44021600000016,
                    "velocity": 0.4330708661417323,
                    "duration": 4.806077237500006
                },
                {
                    "name": "C3",
                    "midi": 48,
                    "time": 70.44021600000016,
                    "velocity": 0.25196850393700787,
                    "duration": 2.617923206250012
                },
                {
                    "name": "E3",
                    "midi": 52,
                    "time": 70.44021600000016,
                    "velocity": 0.3700787401574803,
                    "duration": 2.607441031250005
                },
                {
                    "name": "D3",
                    "midi": 50,
                    "time": 72.95593800000017,
                    "velocity": 0.1889763779527559,
                    "duration": 0.9748422750000003
                },
                {
                    "name": "F#3",
                    "midi": 54,
                    "time": 72.95593800000017,
                    "velocity": 0.12598425196850394,
                    "duration": 1.0377353249999999
                },
                {
                    "name": "A1",
                    "midi": 33,
                    "time": 75.47166000000017,
                    "velocity": 0.4881889763779528,
                    "duration": 3.5036669937500875
                },
                {
                    "name": "E2",
                    "midi": 40,
                    "time": 75.47166000000017,
                    "velocity": 0.5196850393700787,
                    "duration": 3.060795100000078
                },
                {
                    "name": "A2",
                    "midi": 45,
                    "time": 75.47166000000017,
                    "velocity": 0.5511811023622047,
                    "duration": 3.050312925000071
                },
                {
                    "name": "E3",
                    "midi": 52,
                    "time": 75.47166000000017,
                    "velocity": 0.5669291338582677,
                    "duration": 1.3417184000000049
                },
                {
                    "name": "A3",
                    "midi": 57,
                    "time": 75.47166000000017,
                    "velocity": 0.5118110236220472,
                    "duration": 2.0911939125000316
                },
                {
                    "name": "E4",
                    "midi": 64,
                    "time": 75.47166000000017,
                    "velocity": 0.5826771653543307,
                    "duration": 1.3810265562500206
                },
                {
                    "name": "E3",
                    "midi": 52,
                    "time": 76.41505575000018,
                    "velocity": 0.5984251968503937,
                    "duration": 1.6273576687500508
                },
                {
                    "name": "D4",
                    "midi": 62,
                    "time": 76.41505575000018,
                    "velocity": 0.6141732283464567,
                    "duration": 0.4192870000000113
                },
                {
                    "name": "E4",
                    "midi": 64,
                    "time": 76.41505575000018,
                    "velocity": 0.5826771653543307,
                    "duration": 1.9339612875000682
                },
                {
                    "name": "E5",
                    "midi": 76,
                    "time": 76.41505575000018,
                    "velocity": 0.5984251968503937,
                    "duration": 0.40880482500000426
                },
                {
                    "name": "D6",
                    "midi": 86,
                    "time": 76.41505575000018,
                    "velocity": 0.47244094488188976,
                    "duration": 0.17033534374999704
                },
                {
                    "name": "E6",
                    "midi": 88,
                    "time": 76.41505575000018,
                    "velocity": 0.6929133858267716,
                    "duration": 0.2646749187500035
                },
                {
                    "name": "A3",
                    "midi": 57,
                    "time": 76.72952100000018,
                    "velocity": 0.5511811023622047,
                    "duration": 1.7452821375000696
                },
                {
                    "name": "C#4",
                    "midi": 61,
                    "time": 76.72952100000018,
                    "velocity": 0.5511811023622047,
                    "duration": 0.7678193187500284
                },
                {
                    "name": "D#4",
                    "midi": 63,
                    "time": 76.72952100000018,
                    "velocity": 0.5826771653543307,
                    "duration": 0.78616312500003
                },
                {
                    "name": "A5",
                    "midi": 81,
                    "time": 76.72952100000018,
                    "velocity": 0.5984251968503937,
                    "duration": 0.9067081375000328
                },
                {
                    "name": "C#6",
                    "midi": 85,
                    "time": 76.72952100000018,
                    "velocity": 0.49606299212598426,
                    "duration": 0.6472743062500257
                },
                {
                    "name": "D#6",
                    "midi": 87,
                    "time": 76.72952100000018,
                    "velocity": 0.6692913385826772,
                    "duration": 0.6079661500000242
                },
                {
                    "name": "A6",
                    "midi": 93,
                    "time": 76.72952100000018,
                    "velocity": 0.6141732283464567,
                    "duration": 0.48480059375002327
                },
                {
                    "name": "E3",
                    "midi": 52,
                    "time": 77.67291675000021,
                    "velocity": 0.4094488188976378,
                    "duration": 0.8805027000000507
                },
                {
                    "name": "C4",
                    "midi": 60,
                    "time": 77.67291675000021,
                    "velocity": 0.3543307086614173,
                    "duration": 0.3013625312500068
                },
                {
                    "name": "D4",
                    "midi": 62,
                    "time": 77.67291675000021,
                    "velocity": 0.4409448818897638,
                    "duration": 0.379978843750024
                },
                {
                    "name": "E5",
                    "midi": 76,
                    "time": 77.67291675000021,
                    "velocity": 0.3700787401574803,
                    "duration": 0.4114253687500309
                },
                {
                    "name": "C6",
                    "midi": 84,
                    "time": 77.67291675000021,
                    "velocity": 0.4881889763779528,
                    "duration": 0.14675044999999898
                },
                {
                    "name": "D6",
                    "midi": 86,
                    "time": 77.67291675000021,
                    "velocity": 0.5669291338582677,
                    "duration": 0.20440241250000213
                },
                {
                    "name": "E6",
                    "midi": 88,
                    "time": 77.67291675000021,
                    "velocity": 0.5669291338582677,
                    "duration": 0.32494742500001905
                },
                {
                    "name": "G3",
                    "midi": 55,
                    "time": 77.98738200000022,
                    "velocity": 0.3700787401574803,
                    "duration": 1.362682750000019
                },
                {
                    "name": "B3",
                    "midi": 59,
                    "time": 77.98738200000022,
                    "velocity": 0.4409448818897638,
                    "duration": 1.362682750000019
                },
                {
                    "name": "C#4",
                    "midi": 61,
                    "time": 77.98738200000022,
                    "velocity": 0.47244094488188976,
                    "duration": 1.352200575000012
                },
                {
                    "name": "G5",
                    "midi": 79,
                    "time": 77.98738200000022,
                    "velocity": 0.5354330708661418,
                    "duration": 1.1975884937500183
                },
                {
                    "name": "B5",
                    "midi": 83,
                    "time": 77.98738200000022,
                    "velocity": 0.5669291338582677,
                    "duration": 1.1975884937500183
                },
                {
                    "name": "C#6",
                    "midi": 85,
                    "time": 77.98738200000022,
                    "velocity": 0.5826771653543307,
                    "duration": 1.2080706687500253
                },
                {
                    "name": "G6",
                    "midi": 91,
                    "time": 77.98738200000022,
                    "velocity": 0.5669291338582677,
                    "duration": 1.1897268625000237
                },
                {
                    "name": "G1",
                    "midi": 31,
                    "time": 78.93077775000026,
                    "velocity": 0.4330708661417323,
                    "duration": 0.21750513124999316
                },
                {
                    "name": "G2",
                    "midi": 43,
                    "time": 78.93077775000026,
                    "velocity": 0.4094488188976378,
                    "duration": 0.17819697499999165
                },
                {
                    "name": "F1",
                    "midi": 29,
                    "time": 79.08801037500025,
                    "velocity": 0.4330708661417323,
                    "duration": 0.11268338124999389
                },
                {
                    "name": "F2",
                    "midi": 41,
                    "time": 79.08801037500025,
                    "velocity": 0.4409448818897638,
                    "duration": 0.15985316874999
                },
                {
                    "name": "E1",
                    "midi": 28,
                    "time": 79.24524300000024,
                    "velocity": 0.5669291338582677,
                    "duration": 3.430291768750024
                },
                {
                    "name": "E2",
                    "midi": 40,
                    "time": 79.24524300000024,
                    "velocity": 0.5511811023622047,
                    "duration": 3.409327418750024
                },
                {
                    "name": "E3",
                    "midi": 52,
                    "time": 80.18863875000024,
                    "velocity": 0.4094488188976378,
                    "duration": 0.3904610187500168
                },
                {
                    "name": "A#3",
                    "midi": 58,
                    "time": 80.18863875000024,
                    "velocity": 0.3543307086614173,
                    "duration": 0.3511528625000153
                },
                {
                    "name": "C4",
                    "midi": 60,
                    "time": 80.18863875000024,
                    "velocity": 0.33858267716535434,
                    "duration": 0.526729293750023
                },
                {
                    "name": "E5",
                    "midi": 76,
                    "time": 80.18863875000024,
                    "velocity": 0.4881889763779528,
                    "duration": 0.3852199312500204
                },
                {
                    "name": "A#5",
                    "midi": 82,
                    "time": 80.18863875000024,
                    "velocity": 0.44881889763779526,
                    "duration": 0.2620543750000053
                },
                {
                    "name": "C6",
                    "midi": 84,
                    "time": 80.18863875000024,
                    "velocity": 0.4330708661417323,
                    "duration": 0.21226404374999674
                },
                {
                    "name": "E6",
                    "midi": 88,
                    "time": 80.18863875000024,
                    "velocity": 0.6141732283464567,
                    "duration": 0.32756796875001726
                },
                {
                    "name": "G3",
                    "midi": 55,
                    "time": 80.50310400000025,
                    "velocity": 0.6141732283464567,
                    "duration": 0.9748422750000145
                },
                {
                    "name": "B3",
                    "midi": 59,
                    "time": 80.50310400000025,
                    "velocity": 0.4881889763779528,
                    "duration": 0.6001045187500154
                },
                {
                    "name": "C#4",
                    "midi": 61,
                    "time": 80.50310400000025,
                    "velocity": 0.5984251968503937,
                    "duration": 0.9171903125000114
                },
                {
                    "name": "G5",
                    "midi": 79,
                    "time": 80.50310400000025,
                    "velocity": 0.6299212598425197,
                    "duration": 0.9381546625000112
                },
                {
                    "name": "B5",
                    "midi": 83,
                    "time": 80.50310400000025,
                    "velocity": 0.6456692913385826,
                    "duration": 0.6761002875000202
                },
                {
                    "name": "C#6",
                    "midi": 85,
                    "time": 80.50310400000025,
                    "velocity": 0.5984251968503937,
                    "duration": 0.8280918250000155
                },
                {
                    "name": "G6",
                    "midi": 91,
                    "time": 80.50310400000025,
                    "velocity": 0.7401574803149606,
                    "duration": 0.7625782312500178
                },
                {
                    "name": "E3",
                    "midi": 52,
                    "time": 81.44649975000026,
                    "velocity": 0.3228346456692913,
                    "duration": 0.4507335250000182
                },
                {
                    "name": "C4",
                    "midi": 60,
                    "time": 81.44649975000026,
                    "velocity": 0.2677165354330709,
                    "duration": 0.44025135000001114
                },
                {
                    "name": "D4",
                    "midi": 62,
                    "time": 81.44649975000026,
                    "velocity": 0.3779527559055118,
                    "duration": 0.36163503750000814
                },
                {
                    "name": "E5",
                    "midi": 76,
                    "time": 81.44649975000026,
                    "velocity": 0.44881889763779526,
                    "duration": 0.39832265000001144
                },
                {
                    "name": "C6",
                    "midi": 84,
                    "time": 81.44649975000026,
                    "velocity": 0.44881889763779526,
                    "duration": 0.24633111250001605
                },
                {
                    "name": "E6",
                    "midi": 88,
                    "time": 81.44649975000026,
                    "velocity": 0.5826771653543307,
                    "duration": 0.20964350000001275
                },
                {
                    "name": "A3",
                    "midi": 57,
                    "time": 81.76096500000027,
                    "velocity": 0.4409448818897638,
                    "duration": 1.26572263125
                },
                {
                    "name": "C#4",
                    "midi": 61,
                    "time": 81.76096500000027,
                    "velocity": 0.3464566929133858,
                    "duration": 1.2552404562500072
                },
                {
                    "name": "D#4",
                    "midi": 63,
                    "time": 81.76096500000027,
                    "velocity": 0.44881889763779526,
                    "duration": 1.2840664375000017
                },
                {
                    "name": "A5",
                    "midi": 81,
                    "time": 81.76096500000027,
                    "velocity": 0.6692913385826772,
                    "duration": 1.1111105500000065
                },
                {
                    "name": "C#6",
                    "midi": 85,
                    "time": 81.76096500000027,
                    "velocity": 0.5196850393700787,
                    "duration": 1.1477981625000098
                },
                {
                    "name": "D#6",
                    "midi": 87,
                    "time": 81.76096500000027,
                    "velocity": 0.7165354330708661,
                    "duration": 1.1687625125000096
                },
                {
                    "name": "A6",
                    "midi": 93,
                    "time": 81.76096500000027,
                    "velocity": 0.6692913385826772,
                    "duration": 1.1137310937500047
                },
                {
                    "name": "F1",
                    "midi": 29,
                    "time": 82.70436075000026,
                    "velocity": 0.4094488188976378,
                    "duration": 0.2279873062500144
                },
                {
                    "name": "F2",
                    "midi": 41,
                    "time": 82.70436075000026,
                    "velocity": 0.2677165354330709,
                    "duration": 0.12316555625000092
                },
                {
                    "name": "G1",
                    "midi": 31,
                    "time": 82.86159337500027,
                    "velocity": 0.4645669291338583,
                    "duration": 0.13102718750000975
                },
                {
                    "name": "G2",
                    "midi": 43,
                    "time": 82.86159337500027,
                    "velocity": 0.4330708661417323,
                    "duration": 0.1126833812500081
                },
                {
                    "name": "A1",
                    "midi": 33,
                    "time": 83.01882600000027,
                    "velocity": 0.5826771653543307,
                    "duration": 3.532492975000025
                },
                {
                    "name": "A2",
                    "midi": 45,
                    "time": 83.01882600000027,
                    "velocity": 0.5826771653543307,
                    "duration": 3.485323187500029
                },
                {
                    "name": "E3",
                    "midi": 52,
                    "time": 83.96222175000028,
                    "velocity": 0.4094488188976378,
                    "duration": 0.393081562500015
                },
                {
                    "name": "D4",
                    "midi": 62,
                    "time": 83.96222175000028,
                    "velocity": 0.47244094488188976,
                    "duration": 0.3904610187500168
                },
                {
                    "name": "E4",
                    "midi": 64,
                    "time": 83.96222175000028,
                    "velocity": 0.47244094488188976,
                    "duration": 0.37211721250001517
                },
                {
                    "name": "E4",
                    "midi": 64,
                    "time": 83.96222175000028,
                    "velocity": 0.3464566929133858,
                    "duration": 0.4245280875000219
                },
                {
                    "name": "D5",
                    "midi": 74,
                    "time": 83.96222175000028,
                    "velocity": 0.4251968503937008,
                    "duration": 0.18867914999999869
                },
                {
                    "name": "E5",
                    "midi": 76,
                    "time": 83.96222175000028,
                    "velocity": 0.5118110236220472,
                    "duration": 0.19916132500000572
                },
                {
                    "name": "A3",
                    "midi": 57,
                    "time": 84.2766870000003,
                    "velocity": 0.44881889763779526,
                    "duration": 0.990565537500018
                },
                {
                    "name": "C#4",
                    "midi": 61,
                    "time": 84.2766870000003,
                    "velocity": 0.44881889763779526,
                    "duration": 0.9224314000000078
                },
                {
                    "name": "D#4",
                    "midi": 63,
                    "time": 84.2766870000003,
                    "velocity": 0.5511811023622047,
                    "duration": 0.9329135750000148
                },
                {
                    "name": "A4",
                    "midi": 69,
                    "time": 84.2766870000003,
                    "velocity": 0.3543307086614173,
                    "duration": 0.9224314000000078
                },
                {
                    "name": "C#5",
                    "midi": 73,
                    "time": 84.2766870000003,
                    "velocity": 0.11811023622047244,
                    "duration": 0.7311317062500109
                },
                {
                    "name": "D#5",
                    "midi": 75,
                    "time": 84.2766870000003,
                    "velocity": 0.30708661417322836,
                    "duration": 0.7023057250000164
                },
                {
                    "name": "A5",
                    "midi": 81,
                    "time": 84.2766870000003,
                    "velocity": 0.4094488188976378,
                    "duration": 0.6289305000000098
                },
                {
                    "name": "E3",
                    "midi": 52,
                    "time": 85.22008275000032,
                    "velocity": 0.33858267716535434,
                    "duration": 0.3904610187499884
                },
                {
                    "name": "C4",
                    "midi": 60,
                    "time": 85.22008275000032,
                    "velocity": 0.2204724409448819,
                    "duration": 0.1519915374999954
                },
                {
                    "name": "D4",
                    "midi": 62,
                    "time": 85.22008275000032,
                    "velocity": 0.31496062992125984,
                    "duration": 0.3825993874999938
                },
                {
                    "name": "E4",
                    "midi": 64,
                    "time": 85.22008275000032,
                    "velocity": 0.3464566929133858,
                    "duration": 0.41404591249998646
                },
                {
                    "name": "C5",
                    "midi": 72,
                    "time": 85.22008275000032,
                    "velocity": 0.4330708661417323,
                    "duration": 0.3825993874999938
                },
                {
                    "name": "D5",
                    "midi": 74,
                    "time": 85.22008275000032,
                    "velocity": 0.47244094488188976,
                    "duration": 0.10744229374999748
                },
                {
                    "name": "E5",
                    "midi": 76,
                    "time": 85.22008275000032,
                    "velocity": 0.5196850393700787,
                    "duration": 0.4245280874999935
                },
                {
                    "name": "G3",
                    "midi": 55,
                    "time": 85.53454800000031,
                    "velocity": 0.3858267716535433,
                    "duration": 0.9722217312499879
                },
                {
                    "name": "B3",
                    "midi": 59,
                    "time": 85.53454800000031,
                    "velocity": 0.10236220472440945,
                    "duration": 1.0010477124999824
                },
                {
                    "name": "C#4",
                    "midi": 61,
                    "time": 85.53454800000031,
                    "velocity": 0.25984251968503935,
                    "duration": 1.0220120624999822
                },
                {
                    "name": "G4",
                    "midi": 67,
                    "time": 85.53454800000031,
                    "velocity": 0.3937007874015748,
                    "duration": 1.1084900062499798
                },
                {
                    "name": "B4",
                    "midi": 71,
                    "time": 85.53454800000031,
                    "velocity": 0.1732283464566929,
                    "duration": 1.0455969562499803
                },
                {
                    "name": "C#5",
                    "midi": 73,
                    "time": 85.53454800000031,
                    "velocity": 0.3464566929133858,
                    "duration": 1.074422937499989
                },
                {
                    "name": "G5",
                    "midi": 79,
                    "time": 85.53454800000031,
                    "velocity": 0.4251968503937008,
                    "duration": 1.063940762499982
                },
                {
                    "name": "G1",
                    "midi": 31,
                    "time": 86.4779437500003,
                    "velocity": 0.2677165354330709,
                    "duration": 0.18081751874998986
                },
                {
                    "name": "G2",
                    "midi": 43,
                    "time": 86.4779437500003,
                    "velocity": 0.36220472440944884,
                    "duration": 0.2017818687499897
                },
                {
                    "name": "F1",
                    "midi": 29,
                    "time": 86.6351763750003,
                    "velocity": 0.4015748031496063,
                    "duration": 0.18867914999999869
                },
                {
                    "name": "F2",
                    "midi": 41,
                    "time": 86.6351763750003,
                    "velocity": 0.3937007874015748,
                    "duration": 0.1519915374999954
                },
                {
                    "name": "E1",
                    "midi": 28,
                    "time": 86.79240900000029,
                    "velocity": 0.49606299212598426,
                    "duration": 3.5482162375000286
                },
                {
                    "name": "E2",
                    "midi": 40,
                    "time": 86.79240900000029,
                    "velocity": 0.5511811023622047,
                    "duration": 3.56656004375003
                },
                {
                    "name": "E3",
                    "midi": 52,
                    "time": 87.7358047500003,
                    "velocity": 0.2992125984251969,
                    "duration": 0.3904610187500026
                },
                {
                    "name": "A#3",
                    "midi": 58,
                    "time": 87.7358047500003,
                    "velocity": 0.2677165354330709,
                    "duration": 0.37211721250000096
                },
                {
                    "name": "C4",
                    "midi": 60,
                    "time": 87.7358047500003,
                    "velocity": 0.4881889763779528,
                    "duration": 0.3904610187500026
                },
                {
                    "name": "E4",
                    "midi": 64,
                    "time": 87.7358047500003,
                    "velocity": 0.3464566929133858,
                    "duration": 0.33805014374999587
                },
                {
                    "name": "A#4",
                    "midi": 70,
                    "time": 87.7358047500003,
                    "velocity": 0.4094488188976378,
                    "duration": 0.3904610187500026
                },
                {
                    "name": "C5",
                    "midi": 72,
                    "time": 87.7358047500003,
                    "velocity": 0.2440944881889764,
                    "duration": 0.3485323187500029
                },
                {
                    "name": "E5",
                    "midi": 76,
                    "time": 87.7358047500003,
                    "velocity": 0.3937007874015748,
                    "duration": 0.28825981250000154
                },
                {
                    "name": "G3",
                    "midi": 55,
                    "time": 88.0502700000003,
                    "velocity": 0.5354330708661418,
                    "duration": 0.6446537625000133
                },
                {
                    "name": "B3",
                    "midi": 59,
                    "time": 88.0502700000003,
                    "velocity": 0.4330708661417323,
                    "duration": 0.6001045187500154
                },
                {
                    "name": "C#4",
                    "midi": 61,
                    "time": 88.0502700000003,
                    "velocity": 0.5196850393700787,
                    "duration": 0.6289305000000098
                },
                {
                    "name": "G4",
                    "midi": 67,
                    "time": 88.0502700000003,
                    "velocity": 0.4094488188976378,
                    "duration": 0.8857437875000045
                },
                {
                    "name": "B4",
                    "midi": 71,
                    "time": 88.0502700000003,
                    "velocity": 0.2677165354330709,
                    "duration": 0.8647794375000046
                },
                {
                    "name": "C#5",
                    "midi": 73,
                    "time": 88.0502700000003,
                    "velocity": 0.3464566929133858,
                    "duration": 0.6394126750000169
                },
                {
                    "name": "G5",
                    "midi": 79,
                    "time": 88.0502700000003,
                    "velocity": 0.4251968503937008,
                    "duration": 0.7154084437500075
                },
                {
                    "name": "E3",
                    "midi": 52,
                    "time": 88.9936657500003,
                    "velocity": 0.44881889763779526,
                    "duration": 0.37211721250001517
                },
                {
                    "name": "C4",
                    "midi": 60,
                    "time": 88.9936657500003,
                    "velocity": 0.36220472440944884,
                    "duration": 0.37211721250001517
                },
                {
                    "name": "D4",
                    "midi": 62,
                    "time": 88.9936657500003,
                    "velocity": 0.47244094488188976,
                    "duration": 0.3799788437500098
                },
                {
                    "name": "E4",
                    "midi": 64,
                    "time": 88.9936657500003,
                    "velocity": 0.2992125984251969,
                    "duration": 0.4166664562500131
                },
                {
                    "name": "C5",
                    "midi": 72,
                    "time": 88.9936657500003,
                    "velocity": 0.3464566929133858,
                    "duration": 0.23846948125000722
                },
                {
                    "name": "E5",
                    "midi": 76,
                    "time": 88.9936657500003,
                    "velocity": 0.3937007874015748,
                    "duration": 0.22012567500000557
                },
                {
                    "name": "A3",
                    "midi": 57,
                    "time": 89.30813100000032,
                    "velocity": 0.5826771653543307,
                    "duration": 0.9093286812500025
                },
                {
                    "name": "C#4",
                    "midi": 61,
                    "time": 89.30813100000032,
                    "velocity": 0.5354330708661418,
                    "duration": 0.8752616124999975
                },
                {
                    "name": "D#4",
                    "midi": 63,
                    "time": 89.30813100000032,
                    "velocity": 0.5984251968503937,
                    "duration": 0.8726410687499992
                },
                {
                    "name": "A4",
                    "midi": 69,
                    "time": 89.30813100000032,
                    "velocity": 0.5669291338582677,
                    "duration": 1.2604815437500037
                },
                {
                    "name": "C#5",
                    "midi": 73,
                    "time": 89.30813100000032,
                    "velocity": 0.44881889763779526,
                    "duration": 1.1687625125000096
                },
                {
                    "name": "D#5",
                    "midi": 75,
                    "time": 89.30813100000032,
                    "velocity": 0.6299212598425197,
                    "duration": 1.1687625125000096
                },
                {
                    "name": "A5",
                    "midi": 81,
                    "time": 89.30813100000032,
                    "velocity": 0.5196850393700787,
                    "duration": 1.1713830562500078
                },
                {
                    "name": "F1",
                    "midi": 29,
                    "time": 90.25152675000032,
                    "velocity": 0.13385826771653545,
                    "duration": 0.24895165625000004
                },
                {
                    "name": "F2",
                    "midi": 41,
                    "time": 90.25152675000032,
                    "velocity": 0.1889763779527559,
                    "duration": 0.14412990625000077
                },
                {
                    "name": "G1",
                    "midi": 31,
                    "time": 90.40875937500033,
                    "velocity": 0.31496062992125984,
                    "duration": 0.1991613249999915
                },
                {
                    "name": "G2",
                    "midi": 43,
                    "time": 90.40875937500033,
                    "velocity": 0.4330708661417323,
                    "duration": 0.13102718749999553
                },
                {
                    "name": "A1",
                    "midi": 33,
                    "time": 90.56599200000032,
                    "velocity": 0.4645669291338583,
                    "duration": 3.600627112500021
                },
                {
                    "name": "A2",
                    "midi": 45,
                    "time": 90.56599200000032,
                    "velocity": 0.5669291338582677,
                    "duration": 1.87368878125001
                },
                {
                    "name": "D3",
                    "midi": 50,
                    "time": 91.50938775000033,
                    "velocity": 0.2047244094488189,
                    "duration": 0.41142536875000246
                },
                {
                    "name": "E3",
                    "midi": 52,
                    "time": 91.50938775000033,
                    "velocity": 0.33070866141732286,
                    "duration": 0.40094319374999543
                },
                {
                    "name": "D4",
                    "midi": 62,
                    "time": 91.50938775000033,
                    "velocity": 0.5354330708661418,
                    "duration": 0.41404591250000067
                },
                {
                    "name": "E4",
                    "midi": 64,
                    "time": 91.50938775000033,
                    "velocity": 0.49606299212598426,
                    "duration": 0.395702106249999
                },
                {
                    "name": "A2",
                    "midi": 45,
                    "time": 91.82385300000033,
                    "velocity": 0.3779527559055118,
                    "duration": 2.3506277437500103
                },
                {
                    "name": "D#3",
                    "midi": 51,
                    "time": 91.82385300000033,
                    "velocity": 0.4409448818897638,
                    "duration": 0.5974839750000029
                },
                {
                    "name": "F3",
                    "midi": 53,
                    "time": 91.82385300000033,
                    "velocity": 0.4251968503937008,
                    "duration": 0.5712785375000067
                },
                {
                    "name": "D#4",
                    "midi": 63,
                    "time": 91.82385300000033,
                    "velocity": 0.6456692913385826,
                    "duration": 0.6656181124999989
                },
                {
                    "name": "F4",
                    "midi": 65,
                    "time": 91.82385300000033,
                    "velocity": 0.5984251968503937,
                    "duration": 0.6577564812500043
                },
                {
                    "name": "A4",
                    "midi": 69,
                    "time": 91.82385300000033,
                    "velocity": 0.7165354330708661,
                    "duration": 0.859538349999994
                },
                {
                    "name": "E3",
                    "midi": 52,
                    "time": 92.76724875000032,
                    "velocity": 0.5669291338582677,
                    "duration": 0.2594338312500071
                },
                {
                    "name": "F#3",
                    "midi": 54,
                    "time": 92.76724875000032,
                    "velocity": 0.6299212598425197,
                    "duration": 0.2987419875000086
                },
                {
                    "name": "E4",
                    "midi": 64,
                    "time": 92.76724875000032,
                    "velocity": 0.6299212598425197,
                    "duration": 0.32494742500001905
                },
                {
                    "name": "F#4",
                    "midi": 66,
                    "time": 92.76724875000032,
                    "velocity": 0.8188976377952756,
                    "duration": 0.2987419875000086
                },
                {
                    "name": "C#3",
                    "midi": 49,
                    "time": 93.08171400000033,
                    "velocity": 0.6456692913385826,
                    "duration": 0.6813413750000166
                },
                {
                    "name": "F3",
                    "midi": 53,
                    "time": 93.08171400000033,
                    "velocity": 0.5984251968503937,
                    "duration": 0.7285111625000127
                },
                {
                    "name": "G3",
                    "midi": 55,
                    "time": 93.08171400000033,
                    "velocity": 0.6456692913385826,
                    "duration": 0.7285111625000127
                },
                {
                    "name": "F4",
                    "midi": 65,
                    "time": 93.08171400000033,
                    "velocity": 0.5984251968503937,
                    "duration": 0.9774628187500127
                },
                {
                    "name": "G4",
                    "midi": 67,
                    "time": 93.08171400000033,
                    "velocity": 0.7165354330708661,
                    "duration": 0.9669806437500057
                },
                {
                    "name": "C#5",
                    "midi": 73,
                    "time": 93.08171400000033,
                    "velocity": 0.7401574803149606,
                    "duration": 0.9669806437500057
                },
                {
                    "name": "G#2",
                    "midi": 44,
                    "time": 94.02510975000034,
                    "velocity": 0.3228346456692913,
                    "duration": 0.0759957687500048
                },
                {
                    "name": "G#3",
                    "midi": 56,
                    "time": 94.02510975000034,
                    "velocity": 0.3858267716535433,
                    "duration": 0.08385739999999942
                },
                {
                    "name": "G#2",
                    "midi": 44,
                    "time": 94.18234237500033,
                    "velocity": 0.36220472440944884,
                    "duration": 0.055031418750004946
                },
                {
                    "name": "C#2",
                    "midi": 37,
                    "time": 94.33957500000034,
                    "velocity": 0.30708661417322836,
                    "duration": 1.0220120625000106
                },
                {
                    "name": "G#2",
                    "midi": 44,
                    "time": 94.33957500000034,
                    "velocity": 0.2677165354330709,
                    "duration": 1.0115298875000036
                },
                {
                    "name": "G#3",
                    "midi": 56,
                    "time": 95.28297075000035,
                    "velocity": 0.31496062992125984,
                    "duration": 0.3616350374999939
                },
                {
                    "name": "C#4",
                    "midi": 61,
                    "time": 95.28297075000035,
                    "velocity": 0.4094488188976378,
                    "duration": 1.0272531499999786
                },
                {
                    "name": "F4",
                    "midi": 65,
                    "time": 95.28297075000035,
                    "velocity": 0.4251968503937008,
                    "duration": 1.063940762499982
                },
                {
                    "name": "A#4",
                    "midi": 70,
                    "time": 95.28297075000035,
                    "velocity": 0.2440944881889764,
                    "duration": 0.40880482499999005
                },
                {
                    "name": "F5",
                    "midi": 77,
                    "time": 95.28297075000035,
                    "velocity": 0.2204724409448819,
                    "duration": 0.2646749187500035
                },
                {
                    "name": "A#5",
                    "midi": 82,
                    "time": 95.28297075000035,
                    "velocity": 0.30708661417322836,
                    "duration": 0.23846948125000722
                },
                {
                    "name": "G3",
                    "midi": 55,
                    "time": 95.59743600000034,
                    "velocity": 0.2204724409448819,
                    "duration": 0.6446537624999849
                },
                {
                    "name": "F5",
                    "midi": 77,
                    "time": 95.59743600000034,
                    "velocity": 0.23622047244094488,
                    "duration": 0.7573371437499787
                },
                {
                    "name": "A5",
                    "midi": 81,
                    "time": 95.59743600000034,
                    "velocity": 0.2204724409448819,
                    "duration": 0.9617395562499809
                },
                {
                    "name": "F6",
                    "midi": 89,
                    "time": 95.59743600000034,
                    "velocity": 0.33070866141732286,
                    "duration": 0.5896223437499941
                },
                {
                    "name": "G#3",
                    "midi": 56,
                    "time": 96.54083175000032,
                    "velocity": 0.3464566929133858,
                    "duration": 0.21750513125000737
                },
                {
                    "name": "C#4",
                    "midi": 61,
                    "time": 96.54083175000032,
                    "velocity": 0.31496062992125984,
                    "duration": 0.1965407812500075
                },
                {
                    "name": "F4",
                    "midi": 65,
                    "time": 96.54083175000032,
                    "velocity": 0.47244094488188976,
                    "duration": 0.22536676250000198
                },
                {
                    "name": "C#5",
                    "midi": 73,
                    "time": 96.54083175000032,
                    "velocity": 0.3464566929133858,
                    "duration": 0.33280905624999946
                },
                {
                    "name": "F5",
                    "midi": 77,
                    "time": 96.54083175000032,
                    "velocity": 0.2755905511811024,
                    "duration": 0.2279873062500002
                },
                {
                    "name": "C#6",
                    "midi": 85,
                    "time": 96.54083175000032,
                    "velocity": 0.3543307086614173,
                    "duration": 0.317085793749996
                },
                {
                    "name": "A3",
                    "midi": 57,
                    "time": 96.85529700000032,
                    "velocity": 0.15748031496062992,
                    "duration": 1.0560791312499873
                },
                {
                    "name": "C4",
                    "midi": 60,
                    "time": 96.85529700000032,
                    "velocity": 0.1968503937007874,
                    "duration": 1.0586996749999855
                },
                {
                    "name": "D4",
                    "midi": 62,
                    "time": 96.85529700000032,
                    "velocity": 0.33070866141732286,
                    "duration": 1.0770434812499872
                },
                {
                    "name": "F#4",
                    "midi": 66,
                    "time": 96.85529700000032,
                    "velocity": 0.5511811023622047,
                    "duration": 1.0482174999999927
                },
                {
                    "name": "A4",
                    "midi": 69,
                    "time": 96.85529700000032,
                    "velocity": 0.18110236220472442,
                    "duration": 0.5398320124999998
                },
                {
                    "name": "D5",
                    "midi": 74,
                    "time": 96.85529700000032,
                    "velocity": 0.2283464566929134,
                    "duration": 0.5214882062499981
                },
                {
                    "name": "A5",
                    "midi": 81,
                    "time": 96.85529700000032,
                    "velocity": 0.30708661417322836,
                    "duration": 0.9669806437499915
                },
                {
                    "name": "G#3",
                    "midi": 56,
                    "time": 97.79869275000031,
                    "velocity": 0.28346456692913385,
                    "duration": 0.06551359374999777
                },
                {
                    "name": "G#4",
                    "midi": 68,
                    "time": 97.79869275000031,
                    "velocity": 0.3779527559055118,
                    "duration": 0.09433957499999224
                },
                {
                    "name": "G#3",
                    "midi": 56,
                    "time": 97.9559253750003,
                    "velocity": 0.28346456692913385,
                    "duration": 0.06551359374999777
                },
                {
                    "name": "G#1",
                    "midi": 32,
                    "time": 98.1131580000003,
                    "velocity": 0.31496062992125984,
                    "duration": 2.5366863499999823
                },
                {
                    "name": "G#2",
                    "midi": 44,
                    "time": 98.1131580000003,
                    "velocity": 0.2440944881889764,
                    "duration": 2.507860368749988
                },
                {
                    "name": "A#3",
                    "midi": 58,
                    "time": 99.0565537500003,
                    "velocity": 0.2440944881889764,
                    "duration": 0.25157219999998404
                },
                {
                    "name": "D#4",
                    "midi": 63,
                    "time": 99.0565537500003,
                    "velocity": 0.4409448818897638,
                    "duration": 0.17557643124999345
                },
                {
                    "name": "F#4",
                    "midi": 66,
                    "time": 99.0565537500003,
                    "velocity": 0.6299212598425197,
                    "duration": 0.22536676249998777
                },
                {
                    "name": "A#4",
                    "midi": 70,
                    "time": 99.0565537500003,
                    "velocity": 0.3543307086614173,
                    "duration": 0.36949666874998854
                },
                {
                    "name": "D#5",
                    "midi": 75,
                    "time": 99.0565537500003,
                    "velocity": 0.47244094488188976,
                    "duration": 1.2368966499999914
                },
                {
                    "name": "A#5",
                    "midi": 82,
                    "time": 99.0565537500003,
                    "velocity": 0.4330708661417323,
                    "duration": 0.24633111249998763
                },
                {
                    "name": "B3",
                    "midi": 59,
                    "time": 99.37101900000029,
                    "velocity": 0.4015748031496063,
                    "duration": 0.6184483250000028
                },
                {
                    "name": "F4",
                    "midi": 65,
                    "time": 99.37101900000029,
                    "velocity": 0.4330708661417323,
                    "duration": 0.5896223437500083
                },
                {
                    "name": "A4",
                    "midi": 69,
                    "time": 99.37101900000029,
                    "velocity": 0.5669291338582677,
                    "duration": 0.6944440937500076
                },
                {
                    "name": "D#5",
                    "midi": 75,
                    "time": 99.37101900000029,
                    "velocity": 0.6299212598425197,
                    "duration": 0.9407752062500094
                },
                {
                    "name": "A5",
                    "midi": 81,
                    "time": 99.37101900000029,
                    "velocity": 0.4330708661417323,
                    "duration": 1.0403558687500123
                },
                {
                    "name": "D#6",
                    "midi": 87,
                    "time": 99.37101900000029,
                    "velocity": 0.6299212598425197,
                    "duration": 0.9224314000000078
                },
                {
                    "name": "C4",
                    "midi": 60,
                    "time": 100.3144147500003,
                    "velocity": 0.15748031496062992,
                    "duration": 0.1546120812499936
                },
                {
                    "name": "E4",
                    "midi": 64,
                    "time": 100.3144147500003,
                    "velocity": 0.31496062992125984,
                    "duration": 0.078616312500003
                },
                {
                    "name": "G#4",
                    "midi": 68,
                    "time": 100.3144147500003,
                    "velocity": 0.3858267716535433,
                    "duration": 0.08909848750001004
                },
                {
                    "name": "C5",
                    "midi": 72,
                    "time": 100.3144147500003,
                    "velocity": 0.2283464566929134,
                    "duration": 0.10482174999999927
                },
                {
                    "name": "E5",
                    "midi": 76,
                    "time": 100.3144147500003,
                    "velocity": 0.14173228346456693,
                    "duration": 0.44811298124997734
                },
                {
                    "name": "C6",
                    "midi": 84,
                    "time": 100.3144147500003,
                    "velocity": 0.3464566929133858,
                    "duration": 0.5476936437499802
                },
                {
                    "name": "G3",
                    "midi": 55,
                    "time": 100.62888000000028,
                    "velocity": 0.1968503937007874,
                    "duration": 1.0036682562499948
                },
                {
                    "name": "A3",
                    "midi": 57,
                    "time": 100.62888000000028,
                    "velocity": 0.1889763779527559,
                    "duration": 1.0324942374999893
                },
                {
                    "name": "C#4",
                    "midi": 61,
                    "time": 100.62888000000028,
                    "velocity": 0.06299212598425197,
                    "duration": 1.0324942374999893
                },
                {
                    "name": "F4",
                    "midi": 65,
                    "time": 100.62888000000028,
                    "velocity": 0.16535433070866143,
                    "duration": 0.48742113749999305
                },
                {
                    "name": "A4",
                    "midi": 69,
                    "time": 100.62888000000028,
                    "velocity": 0.2677165354330709,
                    "duration": 0.47955950624999844
                },
                {
                    "name": "F5",
                    "midi": 77,
                    "time": 100.62888000000028,
                    "velocity": 0.18110236220472442,
                    "duration": 0.6787208312499899
                },
                {
                    "name": "G#3",
                    "midi": 56,
                    "time": 101.57227575000027,
                    "velocity": 0.28346456692913385,
                    "duration": 0.06551359374999777
                },
                {
                    "name": "G#4",
                    "midi": 68,
                    "time": 101.57227575000027,
                    "velocity": 0.3779527559055118,
                    "duration": 0.09433957499999224
                },
                {
                    "name": "G#3",
                    "midi": 56,
                    "time": 101.72950837500026,
                    "velocity": 0.28346456692913385,
                    "duration": 0.06551359374999777
                },
                {
                    "name": "C#2",
                    "midi": 37,
                    "time": 101.88674100000026,
                    "velocity": 0.14960629921259844,
                    "duration": 3.2887824062500073
                },
                {
                    "name": "G#2",
                    "midi": 44,
                    "time": 101.88674100000026,
                    "velocity": 0.16535433070866143,
                    "duration": 3.2887824062500073
                },
                {
                    "name": "G#3",
                    "midi": 56,
                    "time": 102.83013675000025,
                    "velocity": 0.4409448818897638,
                    "duration": 0.4245280874999935
                },
                {
                    "name": "C#4",
                    "midi": 61,
                    "time": 102.83013675000025,
                    "velocity": 0.4881889763779528,
                    "duration": 0.914569768749999
                },
                {
                    "name": "F4",
                    "midi": 65,
                    "time": 102.83013675000025,
                    "velocity": 0.5826771653543307,
                    "duration": 0.395702106249999
                },
                {
                    "name": "A#4",
                    "midi": 70,
                    "time": 102.83013675000025,
                    "velocity": 0.6299212598425197,
                    "duration": 0.385219931249992
                },
                {
                    "name": "G3",
                    "midi": 55,
                    "time": 103.14460200000025,
                    "velocity": 0.28346456692913385,
                    "duration": 0.531970381249991
                },
                {
                    "name": "F4",
                    "midi": 65,
                    "time": 103.14460200000025,
                    "velocity": 0.3464566929133858,
                    "duration": 0.7887836687499998
                },
                {
                    "name": "A4",
                    "midi": 69,
                    "time": 103.14460200000025,
                    "velocity": 0.3464566929133858,
                    "duration": 0.7494755124999983
                },
                {
                    "name": "F5",
                    "midi": 77,
                    "time": 103.14460200000025,
                    "velocity": 0.4094488188976378,
                    "duration": 0.8647794375000046
                },
                {
                    "name": "G#3",
                    "midi": 56,
                    "time": 104.08799775000026,
                    "velocity": 0.44881889763779526,
                    "duration": 0.317085793749996
                },
                {
                    "name": "C#4",
                    "midi": 61,
                    "time": 104.08799775000026,
                    "velocity": 0.49606299212598426,
                    "duration": 0.33542959999999766
                },
                {
                    "name": "F4",
                    "midi": 65,
                    "time": 104.08799775000026,
                    "velocity": 0.4251968503937008,
                    "duration": 0.36949666875000275
                },
                {
                    "name": "C#5",
                    "midi": 73,
                    "time": 104.08799775000026,
                    "velocity": 0.47244094488188976,
                    "duration": 0.3590144937499957
                },
                {
                    "name": "A3",
                    "midi": 57,
                    "time": 104.40246300000025,
                    "velocity": 0.2440944881889764,
                    "duration": 0.9224314000000078
                },
                {
                    "name": "C4",
                    "midi": 60,
                    "time": 104.40246300000025,
                    "velocity": 0.29133858267716534,
                    "duration": 0.9696011875000039
                },
                {
                    "name": "D4",
                    "midi": 62,
                    "time": 104.40246300000025,
                    "velocity": 0.44881889763779526,
                    "duration": 0.9512573812500023
                },
                {
                    "name": "F#4",
                    "midi": 66,
                    "time": 104.40246300000025,
                    "velocity": 0.5984251968503937,
                    "duration": 0.9224314000000078
                },
                {
                    "name": "A4",
                    "midi": 69,
                    "time": 104.40246300000025,
                    "velocity": 0.3228346456692913,
                    "duration": 0.8202301937500067
                },
                {
                    "name": "G#4",
                    "midi": 68,
                    "time": 105.34585875000026,
                    "velocity": 0.2440944881889764,
                    "duration": 0.06551359374999777
                },
                {
                    "name": "G#5",
                    "midi": 80,
                    "time": 105.34585875000026,
                    "velocity": 0.2440944881889764,
                    "duration": 0.06551359374999777
                },
                {
                    "name": "G#4",
                    "midi": 68,
                    "time": 105.50309137500025,
                    "velocity": 0.29133858267716534,
                    "duration": 0.0733752250000066
                },
                {
                    "name": "G#1",
                    "midi": 32,
                    "time": 105.66032400000026,
                    "velocity": 0.31496062992125984,
                    "duration": 1.8527244312500102
                },
                {
                    "name": "G#2",
                    "midi": 44,
                    "time": 105.66032400000026,
                    "velocity": 0.2440944881889764,
                    "duration": 1.952305093750013
                },
                {
                    "name": "A#3",
                    "midi": 58,
                    "time": 106.60371975000027,
                    "velocity": 0.4015748031496063,
                    "duration": 0.25943383124999286
                },
                {
                    "name": "D#4",
                    "midi": 63,
                    "time": 106.60371975000027,
                    "velocity": 0.5984251968503937,
                    "duration": 0.36425558124999213
                },
                {
                    "name": "F#4",
                    "midi": 66,
                    "time": 106.60371975000027,
                    "velocity": 0.2677165354330709,
                    "duration": 0.4219075437499953
                },
                {
                    "name": "A#4",
                    "midi": 70,
                    "time": 106.60371975000027,
                    "velocity": 0.4015748031496063,
                    "duration": 0.40356373749999364
                },
                {
                    "name": "B3",
                    "midi": 59,
                    "time": 106.91818500000026,
                    "velocity": 0.44881889763779526,
                    "duration": 0.6263099562500116
                },
                {
                    "name": "F4",
                    "midi": 65,
                    "time": 106.91818500000026,
                    "velocity": 0.5354330708661418,
                    "duration": 0.5398320124999998
                },
                {
                    "name": "A4",
                    "midi": 69,
                    "time": 106.91818500000026,
                    "velocity": 0.3543307086614173,
                    "duration": 0.9827039062500091
                },
                {
                    "name": "D#5",
                    "midi": 75,
                    "time": 106.91818500000026,
                    "velocity": 0.29133858267716534,
                    "duration": 0.9381546625000112
                },
                {
                    "name": "C4",
                    "midi": 60,
                    "time": 107.86158075000027,
                    "velocity": 0.29133858267716534,
                    "duration": 0.3590144937499957
                },
                {
                    "name": "E4",
                    "midi": 64,
                    "time": 107.86158075000027,
                    "velocity": 0.3543307086614173,
                    "duration": 0.33280905624999946
                },
                {
                    "name": "G#4",
                    "midi": 68,
                    "time": 107.86158075000027,
                    "velocity": 0.15748031496062992,
                    "duration": 0.36687612499999034
                },
                {
                    "name": "C5",
                    "midi": 72,
                    "time": 107.86158075000027,
                    "velocity": 0.2125984251968504,
                    "duration": 0.33805014374999587
                },
                {
                    "name": "G3",
                    "midi": 55,
                    "time": 108.17604600000027,
                    "velocity": 0.18110236220472442,
                    "duration": 0.6787208312499899
                },
                {
                    "name": "A3",
                    "midi": 57,
                    "time": 108.17604600000027,
                    "velocity": 0.16535433070866143,
                    "duration": 0.6787208312499899
                },
                {
                    "name": "C#4",
                    "midi": 61,
                    "time": 108.17604600000027,
                    "velocity": 0.07086614173228346,
                    "duration": 0.5136265749999893
                },
                {
                    "name": "F4",
                    "midi": 65,
                    "time": 108.17604600000027,
                    "velocity": 0.2204724409448819,
                    "duration": 0.5057649437499947
                },
                {
                    "name": "G#2",
                    "midi": 44,
                    "time": 109.11944175000026,
                    "velocity": 0.28346456692913385,
                    "duration": 0.06551359374999777
                },
                {
                    "name": "G#3",
                    "midi": 56,
                    "time": 109.11944175000026,
                    "velocity": 0.3779527559055118,
                    "duration": 0.09433957499999224
                },
                {
                    "name": "G#2",
                    "midi": 44,
                    "time": 109.27667437500025,
                    "velocity": 0.28346456692913385,
                    "duration": 0.06551359374999777
                },
                {
                    "name": "C#2",
                    "midi": 37,
                    "time": 109.43390700000025,
                    "velocity": 0.23622047244094488,
                    "duration": 1.2499993687500108
                },
                {
                    "name": "G#2",
                    "midi": 44,
                    "time": 109.43390700000025,
                    "velocity": 0.2440944881889764,
                    "duration": 1.2893075249999981
                },
                {
                    "name": "C4",
                    "midi": 60,
                    "time": 110.37730275000025,
                    "velocity": 0.4251968503937008,
                    "duration": 0.3406706874999941
                },
                {
                    "name": "E4",
                    "midi": 64,
                    "time": 110.37730275000025,
                    "velocity": 0.4330708661417323,
                    "duration": 0.3223268812499924
                },
                {
                    "name": "A#4",
                    "midi": 70,
                    "time": 110.37730275000025,
                    "velocity": 0.5354330708661418,
                    "duration": 0.2279873062500002
                },
                {
                    "name": "G3",
                    "midi": 55,
                    "time": 110.69176800000025,
                    "velocity": 0.06299212598425197,
                    "duration": 0.24109002499999121
                },
                {
                    "name": "A3",
                    "midi": 57,
                    "time": 110.69176800000025,
                    "velocity": 0.06299212598425197,
                    "duration": 0.48742113749999305
                },
                {
                    "name": "C#4",
                    "midi": 61,
                    "time": 110.69176800000025,
                    "velocity": 0.06299212598425197,
                    "duration": 0.44287189374999514
                },
                {
                    "name": "F4",
                    "midi": 65,
                    "time": 110.69176800000025,
                    "velocity": 0.10236220472440945,
                    "duration": 0.4690773312499914
                },
                {
                    "name": "G#2",
                    "midi": 44,
                    "time": 111.63516375000025,
                    "velocity": 0.2283464566929134,
                    "duration": 0.0733752250000066
                },
                {
                    "name": "G#2",
                    "midi": 44,
                    "time": 111.79239637500025,
                    "velocity": 0.29133858267716534,
                    "duration": 0.055031418750004946
                },
                {
                    "name": "C#2",
                    "midi": 37,
                    "time": 111.94962900000026,
                    "velocity": 0.18110236220472442,
                    "duration": 0.8149891062500103
                },
                {
                    "name": "G#2",
                    "midi": 44,
                    "time": 111.94962900000026,
                    "velocity": 0.007874015748031496,
                    "duration": 0.8254712812500173
                },
                {
                    "name": "C4",
                    "midi": 60,
                    "time": 112.89302475000028,
                    "velocity": 0.2125984251968504,
                    "duration": 0.3799788437499956
                },
                {
                    "name": "E4",
                    "midi": 64,
                    "time": 112.89302475000028,
                    "velocity": 0.3228346456692913,
                    "duration": 0.3406706874999941
                },
                {
                    "name": "A#4",
                    "midi": 70,
                    "time": 112.89302475000028,
                    "velocity": 0.23622047244094488,
                    "duration": 0.17033534374999704
                },
                {
                    "name": "G3",
                    "midi": 55,
                    "time": 113.20749000000028,
                    "velocity": 0.07874015748031496,
                    "duration": 8.519387731250006
                },
                {
                    "name": "A3",
                    "midi": 57,
                    "time": 113.20749000000028,
                    "velocity": 0.07874015748031496,
                    "duration": 8.5482137125
                },
                {
                    "name": "C#4",
                    "midi": 61,
                    "time": 113.20749000000028,
                    "velocity": 0.12598425196850394,
                    "duration": 8.519387731250006
                },
                {
                    "name": "F4",
                    "midi": 65,
                    "time": 113.20749000000028,
                    "velocity": 0.4251968503937008,
                    "duration": 8.5482137125
                },
                {
                    "name": "A1",
                    "midi": 33,
                    "time": 114.41294012500028,
                    "velocity": 0.3700787401574803,
                    "duration": 0.17557643125000766
                },
                {
                    "name": "A2",
                    "midi": 45,
                    "time": 114.46535100000028,
                    "velocity": 0.5511811023622047,
                    "duration": 0.08385739999999942
                },
                {
                    "name": "A1",
                    "midi": 33,
                    "time": 116.92866212500029,
                    "velocity": 0.30708661417322836,
                    "duration": 0.13102718750000975
                },
                {
                    "name": "A2",
                    "midi": 45,
                    "time": 116.9810730000003,
                    "velocity": 0.5984251968503937,
                    "duration": 0.08385739999999942
                },
                {
                    "name": "A#1",
                    "midi": 34,
                    "time": 120.7546560000003,
                    "velocity": 0.6456692913385826,
                    "duration": 3.6818639687499797
                },
                {
                    "name": "D3",
                    "midi": 50,
                    "time": 120.7546560000003,
                    "velocity": 0.5669291338582677,
                    "duration": 1.0298736937499768
                },
                {
                    "name": "G#3",
                    "midi": 56,
                    "time": 120.7546560000003,
                    "velocity": 0.3228346456692913,
                    "duration": 1.053458587499975
                },
                {
                    "name": "C4",
                    "midi": 60,
                    "time": 120.7546560000003,
                    "velocity": 0.2440944881889764,
                    "duration": 1.1084900062499656
                },
                {
                    "name": "F4",
                    "midi": 65,
                    "time": 120.7546560000003,
                    "velocity": 0.3779527559055118,
                    "duration": 1.1792446874999598
                },
                {
                    "name": "D#3",
                    "midi": 51,
                    "time": 121.69805175000029,
                    "velocity": 0.4330708661417323,
                    "duration": 0.19129969374996847
                },
                {
                    "name": "F3",
                    "midi": 53,
                    "time": 121.85528437500027,
                    "velocity": 0.3858267716535433,
                    "duration": 0.18867914999999869
                },
                {
                    "name": "C3",
                    "midi": 48,
                    "time": 122.01251700000026,
                    "velocity": 0.4330708661417323,
                    "duration": 1.147798162500024
                },
                {
                    "name": "G3",
                    "midi": 55,
                    "time": 122.01251700000026,
                    "velocity": 0.5511811023622047,
                    "duration": 0.9958066250000144
                },
                {
                    "name": "G3",
                    "midi": 55,
                    "time": 122.01251700000026,
                    "velocity": 0.6456692913385826,
                    "duration": 1.331236225000012
                },
                {
                    "name": "G#3",
                    "midi": 56,
                    "time": 122.01251700000026,
                    "velocity": 0.3700787401574803,
                    "duration": 1.116351637500017
                },
                {
                    "name": "D#4",
                    "midi": 63,
                    "time": 122.01251700000026,
                    "velocity": 0.5826771653543307,
                    "duration": 1.192347406250022
                },
                {
                    "name": "G#3",
                    "midi": 56,
                    "time": 122.95591275000027,
                    "velocity": 0.44881889763779526,
                    "duration": 0.3563939500000117
                },
                {
                    "name": "A#3",
                    "midi": 58,
                    "time": 123.11314537500027,
                    "velocity": 0.5826771653543307,
                    "duration": 0.22536676250000198
                },
                {
                    "name": "D#3",
                    "midi": 51,
                    "time": 123.27037800000028,
                    "velocity": 0.2440944881889764,
                    "duration": 1.2106912124999951
                },
                {
                    "name": "G#3",
                    "midi": 56,
                    "time": 123.27037800000028,
                    "velocity": 0.47244094488188976,
                    "duration": 1.2473788249999984
                },
                {
                    "name": "C4",
                    "midi": 60,
                    "time": 123.27037800000028,
                    "velocity": 0.5826771653543307,
                    "duration": 0.9329135749999864
                },
                {
                    "name": "G4",
                    "midi": 67,
                    "time": 123.27037800000028,
                    "velocity": 0.6929133858267716,
                    "duration": 1.4386785187500095
                },
                {
                    "name": "D4",
                    "midi": 62,
                    "time": 124.21377375000027,
                    "velocity": 0.33858267716535434,
                    "duration": 0.22536676250000198
                },
                {
                    "name": "D#4",
                    "midi": 63,
                    "time": 124.37100637500028,
                    "velocity": 0.4881889763779528,
                    "duration": 0.21750513125000737
                },
                {
                    "name": "G#3",
                    "midi": 56,
                    "time": 124.52823900000028,
                    "velocity": 0.5984251968503937,
                    "duration": 1.0220120624999964
                },
                {
                    "name": "D4",
                    "midi": 62,
                    "time": 124.52823900000028,
                    "velocity": 0.5354330708661418,
                    "duration": 1.278825349999991
                },
                {
                    "name": "F4",
                    "midi": 65,
                    "time": 124.52823900000028,
                    "velocity": 0.44881889763779526,
                    "duration": 1.3181335062499926
                },
                {
                    "name": "C5",
                    "midi": 72,
                    "time": 124.52823900000028,
                    "velocity": 0.5354330708661418,
                    "duration": 1.299789699999991
                },
                {
                    "name": "A#1",
                    "midi": 34,
                    "time": 125.15716950000028,
                    "velocity": 0.7401574803149606,
                    "duration": 6.318130981249979
                },
                {
                    "name": "A#3",
                    "midi": 58,
                    "time": 125.47163475000028,
                    "velocity": 0.4881889763779528,
                    "duration": 0.2279873062500002
                },
                {
                    "name": "C4",
                    "midi": 60,
                    "time": 125.62886737500028,
                    "velocity": 0.44881889763779526,
                    "duration": 0.1179244687499903
                },
                {
                    "name": "G3",
                    "midi": 55,
                    "time": 125.78610000000027,
                    "velocity": 0.6929133858267716,
                    "duration": 1.6797685437500292
                },
                {
                    "name": "D4",
                    "midi": 62,
                    "time": 125.78610000000027,
                    "velocity": 0.7874015748031497,
                    "duration": 0.9879449937500056
                },
                {
                    "name": "D#4",
                    "midi": 63,
                    "time": 125.78610000000027,
                    "velocity": 0.4094488188976378,
                    "duration": 1.0613202187500121
                },
                {
                    "name": "A#4",
                    "midi": 70,
                    "time": 125.78610000000027,
                    "velocity": 0.6299212598425197,
                    "duration": 1.270963718750025
                },
                {
                    "name": "D#4",
                    "midi": 63,
                    "time": 126.72949575000028,
                    "velocity": 0.5511811023622047,
                    "duration": 0.3459117750000189
                },
                {
                    "name": "F4",
                    "midi": 65,
                    "time": 126.88672837500029,
                    "velocity": 0.5984251968503937,
                    "duration": 0.08123685625000121
                },
                {
                    "name": "A#3",
                    "midi": 58,
                    "time": 127.0439610000003,
                    "velocity": 0.3858267716535433,
                    "duration": 1.2447582812500144
                },
                {
                    "name": "G4",
                    "midi": 67,
                    "time": 127.0439610000003,
                    "velocity": 0.7637795275590551,
                    "duration": 1.0849051125000102
                },
                {
                    "name": "D5",
                    "midi": 74,
                    "time": 127.0439610000003,
                    "velocity": 0.6456692913385826,
                    "duration": 1.3390978562500067
                },
                {
                    "name": "G#4",
                    "midi": 68,
                    "time": 127.9873567500003,
                    "velocity": 0.5826771653543307,
                    "duration": 0.18081751875000407
                },
                {
                    "name": "A#4",
                    "midi": 70,
                    "time": 128.1445893750003,
                    "velocity": 0.5984251968503937,
                    "duration": 0.08909848750002425
                },
                {
                    "name": "D4",
                    "midi": 62,
                    "time": 128.3018220000003,
                    "velocity": 0.6141732283464567,
                    "duration": 1.1477981624999813
                },
                {
                    "name": "G#4",
                    "midi": 68,
                    "time": 128.3018220000003,
                    "velocity": 0.8818897637795275,
                    "duration": 1.0298736937499768
                },
                {
                    "name": "C5",
                    "midi": 72,
                    "time": 128.3018220000003,
                    "velocity": 0.6299212598425197,
                    "duration": 1.2080706687499685
                },
                {
                    "name": "F5",
                    "midi": 77,
                    "time": 128.3018220000003,
                    "velocity": 0.6299212598425197,
                    "duration": 1.3495800312499853
                },
                {
                    "name": "A#4",
                    "midi": 70,
                    "time": 129.24521775000028,
                    "velocity": 0.49606299212598426,
                    "duration": 0.1546120812500078
                },
                {
                    "name": "C5",
                    "midi": 72,
                    "time": 129.40245037500029,
                    "velocity": 0.5354330708661418,
                    "duration": 0.25943383124999286
                },
                {
                    "name": "C4",
                    "midi": 60,
                    "time": 129.55968300000026,
                    "velocity": 0.47244094488188976,
                    "duration": 0.6708591999999953
                },
                {
                    "name": "G4",
                    "midi": 67,
                    "time": 129.55968300000026,
                    "velocity": 0.6299212598425197,
                    "duration": 0.6158277812500046
                },
                {
                    "name": "A#4",
                    "midi": 70,
                    "time": 129.55968300000026,
                    "velocity": 0.6456692913385826,
                    "duration": 1.2788253499999769
                },
                {
                    "name": "D5",
                    "midi": 74,
                    "time": 129.55968300000026,
                    "velocity": 0.7401574803149606,
                    "duration": 1.0115298875000178
                },
                {
                    "name": "D#5",
                    "midi": 75,
                    "time": 129.55968300000026,
                    "velocity": 0.6692913385826772,
                    "duration": 1.0429764125000247
                },
                {
                    "name": "E5",
                    "midi": 76,
                    "time": 129.55968300000026,
                    "velocity": 0.18110236220472442,
                    "duration": 0.02882598125000868
                },
                {
                    "name": "D#5",
                    "midi": 75,
                    "time": 130.50307875000027,
                    "velocity": 0.4881889763779528,
                    "duration": 0.3275679687499746
                },
                {
                    "name": "F5",
                    "midi": 77,
                    "time": 130.66031137500028,
                    "velocity": 0.5511811023622047,
                    "duration": 0.09696011874999044
                },
                {
                    "name": "D#4",
                    "midi": 63,
                    "time": 130.81754400000025,
                    "velocity": 0.5984251968503937,
                    "duration": 0.4979033125000001
                },
                {
                    "name": "G#4",
                    "midi": 68,
                    "time": 130.81754400000025,
                    "velocity": 0.8188976377952756,
                    "duration": 0.4979033125000001
                },
                {
                    "name": "C5",
                    "midi": 72,
                    "time": 130.81754400000025,
                    "velocity": 0.5826771653543307,
                    "duration": 0.9512573812500023
                },
                {
                    "name": "G5",
                    "midi": 79,
                    "time": 130.81754400000025,
                    "velocity": 0.7637795275590551,
                    "duration": 0.993186081250002
                },
                {
                    "name": "G#5",
                    "midi": 80,
                    "time": 131.76093975000026,
                    "velocity": 0.4015748031496063,
                    "duration": 0.11792446875000451
                },
                {
                    "name": "A#5",
                    "midi": 82,
                    "time": 131.91817237500027,
                    "velocity": 0.6456692913385826,
                    "duration": 0.1886791500000129
                },
                {
                    "name": "G#5",
                    "midi": 80,
                    "time": 132.07540500000027,
                    "velocity": 0.4330708661417323,
                    "duration": 0.0759957687500048
                },
                {
                    "name": "C6",
                    "midi": 84,
                    "time": 132.07540500000027,
                    "velocity": 0.5196850393700787,
                    "duration": 0.09171903124999403
                },
                {
                    "name": "G#4",
                    "midi": 68,
                    "time": 132.18022675000026,
                    "velocity": 0.44881889763779526,
                    "duration": 0.05241087499999253
                },
                {
                    "name": "C5",
                    "midi": 72,
                    "time": 132.18022675000026,
                    "velocity": 0.4330708661417323,
                    "duration": 0.06813413749998176
                },
                {
                    "name": "G#5",
                    "midi": 80,
                    "time": 132.28504850000022,
                    "velocity": 0.2440944881889764,
                    "duration": 0.06813413750001018
                },
                {
                    "name": "C6",
                    "midi": 84,
                    "time": 132.28504850000022,
                    "velocity": 0.36220472440944884,
                    "duration": 0.10744229375001169
                },
                {
                    "name": "G#4",
                    "midi": 68,
                    "time": 132.38987025000023,
                    "velocity": 0.31496062992125984,
                    "duration": 0.060272506249987146
                },
                {
                    "name": "C5",
                    "midi": 72,
                    "time": 132.38987025000023,
                    "velocity": 0.4330708661417323,
                    "duration": 0.07599576874997638
                },
                {
                    "name": "G#5",
                    "midi": 80,
                    "time": 132.4946920000002,
                    "velocity": 0.28346456692913385,
                    "duration": 0.08385739999999942
                },
                {
                    "name": "C6",
                    "midi": 84,
                    "time": 132.4946920000002,
                    "velocity": 0.36220472440944884,
                    "duration": 0.12316555625000092
                },
                {
                    "name": "G#4",
                    "midi": 68,
                    "time": 132.59951375000023,
                    "velocity": 0.47244094488188976,
                    "duration": 0.09958066249998865
                },
                {
                    "name": "C5",
                    "midi": 72,
                    "time": 132.59951375000023,
                    "velocity": 0.36220472440944884,
                    "duration": 0.08385739999999942
                },
                {
                    "name": "G#5",
                    "midi": 80,
                    "time": 132.7043355000002,
                    "velocity": 0.4881889763779528,
                    "duration": 0.10744229375001169
                },
                {
                    "name": "C6",
                    "midi": 84,
                    "time": 132.7043355000002,
                    "velocity": 0.4881889763779528,
                    "duration": 0.1493709937500114
                },
                {
                    "name": "D6",
                    "midi": 86,
                    "time": 132.7043355000002,
                    "velocity": 0.5984251968503937,
                    "duration": 0.13888881875001857
                },
                {
                    "name": "G#4",
                    "midi": 68,
                    "time": 132.80915725000023,
                    "velocity": 0.5354330708661418,
                    "duration": 0.09433957499999224
                },
                {
                    "name": "C5",
                    "midi": 72,
                    "time": 132.80915725000023,
                    "velocity": 0.4330708661417323,
                    "duration": 0.078616312500003
                },
                {
                    "name": "D5",
                    "midi": 74,
                    "time": 132.80915725000023,
                    "velocity": 0.3779527559055118,
                    "duration": 0.08647794374999762
                },
                {
                    "name": "G#5",
                    "midi": 80,
                    "time": 132.9139790000002,
                    "velocity": 0.31496062992125984,
                    "duration": 0.08385739999999942
                },
                {
                    "name": "C6",
                    "midi": 84,
                    "time": 132.9139790000002,
                    "velocity": 0.25984251968503935,
                    "duration": 0.12578609999999912
                },
                {
                    "name": "D6",
                    "midi": 86,
                    "time": 132.9139790000002,
                    "velocity": 0.4251968503937008,
                    "duration": 0.11792446875000451
                },
                {
                    "name": "G#4",
                    "midi": 68,
                    "time": 133.01880075000022,
                    "velocity": 0.4409448818897638,
                    "duration": 0.09433957499999224
                },
                {
                    "name": "C5",
                    "midi": 72,
                    "time": 133.01880075000022,
                    "velocity": 0.3779527559055118,
                    "duration": 0.09433957499999224
                },
                {
                    "name": "D5",
                    "midi": 74,
                    "time": 133.01880075000022,
                    "velocity": 0.2755905511811024,
                    "duration": 0.09433957499999224
                },
                {
                    "name": "G#5",
                    "midi": 80,
                    "time": 133.1236225000002,
                    "velocity": 0.29133858267716534,
                    "duration": 0.09171903124999403
                },
                {
                    "name": "C6",
                    "midi": 84,
                    "time": 133.1236225000002,
                    "velocity": 0.28346456692913385,
                    "duration": 0.12578609999999912
                },
                {
                    "name": "D6",
                    "midi": 86,
                    "time": 133.1236225000002,
                    "velocity": 0.33070866141732286,
                    "duration": 0.16509425625000063
                },
                {
                    "name": "G#4",
                    "midi": 68,
                    "time": 133.2284442500002,
                    "velocity": 0.47244094488188976,
                    "duration": 0.1126833812500081
                },
                {
                    "name": "C5",
                    "midi": 72,
                    "time": 133.2284442500002,
                    "velocity": 0.4330708661417323,
                    "duration": 0.07075468125000839
                },
                {
                    "name": "D5",
                    "midi": 74,
                    "time": 133.2284442500002,
                    "velocity": 0.4330708661417323,
                    "duration": 0.09433957500002066
                },
                {
                    "name": "G#5",
                    "midi": 80,
                    "time": 133.3332660000002,
                    "velocity": 0.5354330708661418,
                    "duration": 0.007861631249994616
                },
                {
                    "name": "B5",
                    "midi": 83,
                    "time": 133.3332660000002,
                    "velocity": 0.6929133858267716,
                    "duration": 0.10220120624998685
                },
                {
                    "name": "D6",
                    "midi": 86,
                    "time": 133.3332660000002,
                    "velocity": 0.49606299212598426,
                    "duration": 0.16771479999999883
                },
                {
                    "name": "G#4",
                    "midi": 68,
                    "time": 133.4380877500002,
                    "velocity": 0.5826771653543307,
                    "duration": 0.12054501250000271
                },
                {
                    "name": "B4",
                    "midi": 71,
                    "time": 133.4380877500002,
                    "velocity": 0.5118110236220472,
                    "duration": 0.12054501250000271
                },
                {
                    "name": "D5",
                    "midi": 74,
                    "time": 133.4380877500002,
                    "velocity": 0.4409448818897638,
                    "duration": 0.12840664374999733
                },
                {
                    "name": "G#5",
                    "midi": 80,
                    "time": 133.5429095000002,
                    "velocity": 0.5354330708661418,
                    "duration": 0.10482174999998506
                },
                {
                    "name": "B5",
                    "midi": 83,
                    "time": 133.5429095000002,
                    "velocity": 0.5354330708661418,
                    "duration": 0.12840664374999733
                },
                {
                    "name": "D6",
                    "midi": 86,
                    "time": 133.5429095000002,
                    "velocity": 0.4409448818897638,
                    "duration": 0.13626827499999195
                },
                {
                    "name": "G#4",
                    "midi": 68,
                    "time": 133.6477312500002,
                    "velocity": 0.5826771653543307,
                    "duration": 0.12316555625000092
                },
                {
                    "name": "B4",
                    "midi": 71,
                    "time": 133.6477312500002,
                    "velocity": 0.5196850393700787,
                    "duration": 0.1126833812500081
                },
                {
                    "name": "D5",
                    "midi": 74,
                    "time": 133.6477312500002,
                    "velocity": 0.4409448818897638,
                    "duration": 0.1126833812500081
                },
                {
                    "name": "G#5",
                    "midi": 80,
                    "time": 133.7525530000002,
                    "velocity": 0.5354330708661418,
                    "duration": 0.12054501249997429
                },
                {
                    "name": "B5",
                    "midi": 83,
                    "time": 133.7525530000002,
                    "velocity": 0.5669291338582677,
                    "duration": 0.10220120624998685
                },
                {
                    "name": "D6",
                    "midi": 86,
                    "time": 133.7525530000002,
                    "velocity": 0.4881889763779528,
                    "duration": 0.13888881874996173
                },
                {
                    "name": "G#4",
                    "midi": 68,
                    "time": 133.8573747500002,
                    "velocity": 0.5984251968503937,
                    "duration": 0.15461208124997938
                },
                {
                    "name": "B4",
                    "midi": 71,
                    "time": 133.8573747500002,
                    "velocity": 0.5354330708661418,
                    "duration": 0.15461208124997938
                },
                {
                    "name": "D5",
                    "midi": 74,
                    "time": 133.8573747500002,
                    "velocity": 0.4409448818897638,
                    "duration": 0.162473712499974
                },
                {
                    "name": "G#5",
                    "midi": 80,
                    "time": 133.96219650000018,
                    "velocity": 0.6692913385826772,
                    "duration": 0.13626827499999195
                },
                {
                    "name": "A#5",
                    "midi": 82,
                    "time": 133.96219650000018,
                    "velocity": 0.6692913385826772,
                    "duration": 0.13626827499999195
                },
                {
                    "name": "E6",
                    "midi": 88,
                    "time": 133.96219650000018,
                    "velocity": 0.6929133858267716,
                    "duration": 0.162473712499974
                },
                {
                    "name": "G#4",
                    "midi": 68,
                    "time": 134.06701825000016,
                    "velocity": 0.6299212598425197,
                    "duration": 0.09696011874999044
                },
                {
                    "name": "A#4",
                    "midi": 70,
                    "time": 134.06701825000016,
                    "velocity": 0.5354330708661418,
                    "duration": 0.10482174999998506
                },
                {
                    "name": "E5",
                    "midi": 76,
                    "time": 134.06701825000016,
                    "velocity": 0.3700787401574803,
                    "duration": 0.10482174999998506
                },
                {
                    "name": "G#5",
                    "midi": 80,
                    "time": 134.17184000000015,
                    "velocity": 0.3228346456692913,
                    "duration": 0.09433957499999224
                },
                {
                    "name": "A#5",
                    "midi": 82,
                    "time": 134.17184000000015,
                    "velocity": 0.47244094488188976,
                    "duration": 0.09433957499999224
                },
                {
                    "name": "E6",
                    "midi": 88,
                    "time": 134.17184000000015,
                    "velocity": 0.4409448818897638,
                    "duration": 0.12054501249997429
                },
                {
                    "name": "G#4",
                    "midi": 68,
                    "time": 134.27666175000013,
                    "velocity": 0.4330708661417323,
                    "duration": 0.09433957499999224
                },
                {
                    "name": "A#4",
                    "midi": 70,
                    "time": 134.27666175000013,
                    "velocity": 0.4094488188976378,
                    "duration": 0.10220120624998685
                },
                {
                    "name": "E5",
                    "midi": 76,
                    "time": 134.27666175000013,
                    "velocity": 0.33858267716535434,
                    "duration": 0.10220120624998685
                },
                {
                    "name": "G#5",
                    "midi": 80,
                    "time": 134.38148350000012,
                    "velocity": 0.5984251968503937,
                    "duration": 0.11792446875000451
                },
                {
                    "name": "A#5",
                    "midi": 82,
                    "time": 134.38148350000012,
                    "velocity": 0.5984251968503937,
                    "duration": 0.11006283750000989
                },
                {
                    "name": "E6",
                    "midi": 88,
                    "time": 134.38148350000012,
                    "velocity": 0.6141732283464567,
                    "duration": 0.13626827499999195
                },
                {
                    "name": "G#4",
                    "midi": 68,
                    "time": 134.48630525000013,
                    "velocity": 0.7401574803149606,
                    "duration": 0.11792446874997609
                },
                {
                    "name": "A#4",
                    "midi": 70,
                    "time": 134.48630525000013,
                    "velocity": 0.5354330708661418,
                    "duration": 0.1284066437499689
                },
                {
                    "name": "E5",
                    "midi": 76,
                    "time": 134.48630525000013,
                    "velocity": 0.5826771653543307,
                    "duration": 0.12054501249997429
                },
                {
                    "name": "G#5",
                    "midi": 80,
                    "time": 134.5911270000001,
                    "velocity": 0.5511811023622047,
                    "duration": 0.10220120624998685
                },
                {
                    "name": "A#5",
                    "midi": 82,
                    "time": 134.5911270000001,
                    "velocity": 0.6456692913385826,
                    "duration": 0.10220120624998685
                },
                {
                    "name": "E6",
                    "midi": 88,
                    "time": 134.5911270000001,
                    "velocity": 0.6929133858267716,
                    "duration": 0.12054501249997429
                },
                {
                    "name": "G#4",
                    "midi": 68,
                    "time": 134.6959487500001,
                    "velocity": 0.7401574803149606,
                    "duration": 0.10482174999998506
                },
                {
                    "name": "A#4",
                    "midi": 70,
                    "time": 134.6959487500001,
                    "velocity": 0.6299212598425197,
                    "duration": 0.12054501249997429
                },
                {
                    "name": "E5",
                    "midi": 76,
                    "time": 134.6959487500001,
                    "velocity": 0.5511811023622047,
                    "duration": 0.11268338124997967
                },
                {
                    "name": "G#5",
                    "midi": 80,
                    "time": 134.80077050000008,
                    "velocity": 0.6299212598425197,
                    "duration": 0.11792446874997609
                },
                {
                    "name": "A#5",
                    "midi": 82,
                    "time": 134.80077050000008,
                    "velocity": 0.6299212598425197,
                    "duration": 0.12054501249997429
                },
                {
                    "name": "E6",
                    "midi": 88,
                    "time": 134.80077050000008,
                    "velocity": 0.6692913385826772,
                    "duration": 0.1284066437499689
                },
                {
                    "name": "G#4",
                    "midi": 68,
                    "time": 134.90559225000007,
                    "velocity": 0.8188976377952756,
                    "duration": 0.11268338124997967
                },
                {
                    "name": "A#4",
                    "midi": 70,
                    "time": 134.90559225000007,
                    "velocity": 0.6299212598425197,
                    "duration": 0.11792446874997609
                },
                {
                    "name": "E5",
                    "midi": 76,
                    "time": 134.90559225000007,
                    "velocity": 0.6456692913385826,
                    "duration": 0.11268338124997967
                },
                {
                    "name": "G#5",
                    "midi": 80,
                    "time": 135.01041400000005,
                    "velocity": 0.6692913385826772,
                    "duration": 0.10220120624998685
                },
                {
                    "name": "A#5",
                    "midi": 82,
                    "time": 135.01041400000005,
                    "velocity": 0.7401574803149606,
                    "duration": 0.11268338124997967
                },
                {
                    "name": "E6",
                    "midi": 88,
                    "time": 135.01041400000005,
                    "velocity": 0.7637795275590551,
                    "duration": 0.11268338124997967
                },
                {
                    "name": "G#4",
                    "midi": 68,
                    "time": 135.11523575000004,
                    "velocity": 0.8818897637795275,
                    "duration": 0.078616312500003
                },
                {
                    "name": "A#4",
                    "midi": 70,
                    "time": 135.11523575000004,
                    "velocity": 0.7165354330708661,
                    "duration": 0.078616312500003
                },
                {
                    "name": "E5",
                    "midi": 76,
                    "time": 135.11523575000004,
                    "velocity": 0.7165354330708661,
                    "duration": 0.07075468125000839
                },
                {
                    "name": "A4",
                    "midi": 69,
                    "time": 135.22005750000005,
                    "velocity": 0.7165354330708661,
                    "duration": 2.269390887499924
                },
                {
                    "name": "C5",
                    "midi": 72,
                    "time": 135.22005750000005,
                    "velocity": 0.7165354330708661,
                    "duration": 2.269390887499924
                },
                {
                    "name": "F#5",
                    "midi": 78,
                    "time": 135.22005750000005,
                    "velocity": 0.7637795275590551,
                    "duration": 2.261529256249929
                },
                {
                    "name": "G#5",
                    "midi": 80,
                    "time": 135.23840130625004,
                    "velocity": 0.6456692913385826,
                    "duration": 0.29088035624997133
                },
                {
                    "name": "F6",
                    "midi": 89,
                    "time": 135.23840130625004,
                    "velocity": 0.8110236220472441,
                    "duration": 0.30398307499996235
                },
                {
                    "name": "F5",
                    "midi": 77,
                    "time": 135.24626293750003,
                    "velocity": 0.7637795275590551,
                    "duration": 0.37735829999996895
                },
                {
                    "name": "D5",
                    "midi": 74,
                    "time": 135.57383090625,
                    "velocity": 0.7716535433070866,
                    "duration": 2.057126843749984
                },
                {
                    "name": "A5",
                    "midi": 81,
                    "time": 135.57383090625,
                    "velocity": 0.7165354330708661,
                    "duration": 2.0335419499999716
                },
                {
                    "name": "D6",
                    "midi": 86,
                    "time": 135.57645145,
                    "velocity": 0.7716535433070866,
                    "duration": 2.0545062999999857
                },
                {
                    "name": "F#3",
                    "midi": 54,
                    "time": 135.848988,
                    "velocity": 0.8188976377952756,
                    "duration": 2.0702295625000318
                },
                {
                    "name": "F#4",
                    "midi": 66,
                    "time": 135.848988,
                    "velocity": 0.9448818897637795,
                    "duration": 2.062367931250037
                },
                {
                    "name": "A4",
                    "midi": 69,
                    "time": 137.7357795,
                    "velocity": 0.7401574803149606,
                    "duration": 1.9627872687499632
                },
                {
                    "name": "C5",
                    "midi": 72,
                    "time": 137.7357795,
                    "velocity": 0.7401574803149606,
                    "duration": 1.9785105312499525
                },
                {
                    "name": "F#5",
                    "midi": 78,
                    "time": 137.7357795,
                    "velocity": 0.7637795275590551,
                    "duration": 1.9627872687499632
                },
                {
                    "name": "G#5",
                    "midi": 80,
                    "time": 137.76198493750002,
                    "velocity": 0.7401574803149606,
                    "duration": 0.3590144937499815
                },
                {
                    "name": "F6",
                    "midi": 89,
                    "time": 137.76198493750002,
                    "velocity": 0.7952755905511811,
                    "duration": 0.4009431937499528
                },
                {
                    "name": "F5",
                    "midi": 77,
                    "time": 137.76198493750002,
                    "velocity": 0.84251968503937,
                    "duration": 0.38521993124996357
                },
                {
                    "name": "D6",
                    "midi": 86,
                    "time": 138.1288610625,
                    "velocity": 0.6850393700787402,
                    "duration": 2.28511414999997
                },
                {
                    "name": "D5",
                    "midi": 74,
                    "time": 138.1393432375,
                    "velocity": 0.6614173228346457,
                    "duration": 2.2903552374999663
                },
                {
                    "name": "A5",
                    "midi": 81,
                    "time": 138.1393432375,
                    "velocity": 0.5196850393700787,
                    "duration": 2.2824936062499717
                },
                {
                    "name": "F#3",
                    "midi": 54,
                    "time": 138.36470999999997,
                    "velocity": 0.8188976377952756,
                    "duration": 11.88416590624999
                },
                {
                    "name": "F#4",
                    "midi": 66,
                    "time": 138.36470999999997,
                    "velocity": 0.8818897637795275,
                    "duration": 11.836996118749994
                },
                {
                    "name": "A3",
                    "midi": 57,
                    "time": 141.56439391874994,
                    "velocity": 0.4645669291338583,
                    "duration": 0.12316555625000092
                },
                {
                    "name": "B3",
                    "midi": 59,
                    "time": 141.64825131874994,
                    "velocity": 0.4409448818897638,
                    "duration": 0.08385739999999942
                },
                {
                    "name": "A4",
                    "midi": 69,
                    "time": 141.73997034999994,
                    "velocity": 0.28346456692913385,
                    "duration": 0.031446525000006886
                },
                {
                    "name": "B4",
                    "midi": 71,
                    "time": 141.73997034999994,
                    "velocity": 0.5511811023622047,
                    "duration": 0.04716978749999612
                },
                {
                    "name": "A#3",
                    "midi": 58,
                    "time": 144.06177211249994,
                    "velocity": 0.4094488188976378,
                    "duration": 0.08385739999999942
                },
                {
                    "name": "C4",
                    "midi": 60,
                    "time": 144.13776788124994,
                    "velocity": 0.5118110236220472,
                    "duration": 0.04716978749999612
                },
                {
                    "name": "A#4",
                    "midi": 70,
                    "time": 144.22162528124994,
                    "velocity": 0.4015748031496063,
                    "duration": 0.08647794375002604
                },
                {
                    "name": "C5",
                    "midi": 72,
                    "time": 144.28451833124996,
                    "velocity": 0.49606299212598426,
                    "duration": 0.05241087500002095
                },
                {
                    "name": "C4",
                    "midi": 60,
                    "time": 146.58797628749997,
                    "velocity": 0.36220472440944884,
                    "duration": 0.09433957499999224
                },
                {
                    "name": "D4",
                    "midi": 62,
                    "time": 146.66659259999997,
                    "velocity": 0.5118110236220472,
                    "duration": 0.04454924374999791
                },
                {
                    "name": "C5",
                    "midi": 72,
                    "time": 146.75044999999997,
                    "velocity": 0.4409448818897638,
                    "duration": 0.05241087499999253
                },
                {
                    "name": "D5",
                    "midi": 74,
                    "time": 146.80286087499996,
                    "velocity": 0.5984251968503937,
                    "duration": 0.031446525000006886
                },
                {
                    "name": "C2",
                    "midi": 36,
                    "time": 150.31438949999998,
                    "velocity": 0.5511811023622047,
                    "duration": 2.74895039375005
                },
                {
                    "name": "D4",
                    "midi": 62,
                    "time": 151.25778524999998,
                    "velocity": 0.47244094488188976,
                    "duration": 0.2306078500000126
                },
                {
                    "name": "D#4",
                    "midi": 63,
                    "time": 151.25778524999998,
                    "velocity": 0.4015748031496063,
                    "duration": 0.20178186875000392
                },
                {
                    "name": "G4",
                    "midi": 67,
                    "time": 151.25778524999998,
                    "velocity": 0.6692913385826772,
                    "duration": 0.686582462500013
                },
                {
                    "name": "D5",
                    "midi": 74,
                    "time": 151.25778524999998,
                    "velocity": 0.5196850393700787,
                    "duration": 0.39570210625001323
                },
                {
                    "name": "G5",
                    "midi": 79,
                    "time": 151.25778524999998,
                    "velocity": 0.44881889763779526,
                    "duration": 0.8359534562500244
                },
                {
                    "name": "D6",
                    "midi": 86,
                    "time": 151.25778524999998,
                    "velocity": 0.5826771653543307,
                    "duration": 0.39570210625001323
                },
                {
                    "name": "C4",
                    "midi": 60,
                    "time": 151.5722505,
                    "velocity": 0.3543307086614173,
                    "duration": 0.3432912312499923
                },
                {
                    "name": "D#4",
                    "midi": 63,
                    "time": 151.5722505,
                    "velocity": 0.28346456692913385,
                    "duration": 0.33542959999999766
                },
                {
                    "name": "C5",
                    "midi": 72,
                    "time": 151.5722505,
                    "velocity": 0.36220472440944884,
                    "duration": 0.529349837500007
                },
                {
                    "name": "C6",
                    "midi": 84,
                    "time": 151.5722505,
                    "velocity": 0.4094488188976378,
                    "duration": 0.44287189375000935
                },
                {
                    "name": "G3",
                    "midi": 55,
                    "time": 152.51564625,
                    "velocity": 0.3779527559055118,
                    "duration": 0.5476936437500228
                },
                {
                    "name": "D4",
                    "midi": 62,
                    "time": 152.51564625,
                    "velocity": 0.4094488188976378,
                    "duration": 0.6472743062500115
                },
                {
                    "name": "F#4",
                    "midi": 66,
                    "time": 152.51564625,
                    "velocity": 0.6299212598425197,
                    "duration": 0.6761002875000202
                },
                {
                    "name": "G4",
                    "midi": 67,
                    "time": 152.51564625,
                    "velocity": 0.44881889763779526,
                    "duration": 0.6761002875000202
                },
                {
                    "name": "D5",
                    "midi": 74,
                    "time": 152.51564625,
                    "velocity": 0.4015748031496063,
                    "duration": 0.8149891062500103
                },
                {
                    "name": "F#5",
                    "midi": 78,
                    "time": 152.51564625,
                    "velocity": 0.3858267716535433,
                    "duration": 0.8149891062500103
                },
                {
                    "name": "G5",
                    "midi": 79,
                    "time": 152.51564625,
                    "velocity": 0.47244094488188976,
                    "duration": 0.8359534562500244
                },
                {
                    "name": "G2",
                    "midi": 43,
                    "time": 152.83011150000002,
                    "velocity": 0.5669291338582677,
                    "duration": 2.6048204874999783
                },
                {
                    "name": "G3",
                    "midi": 55,
                    "time": 153.77350725000002,
                    "velocity": 0.4251968503937008,
                    "duration": 0.7756809500000088
                },
                {
                    "name": "C#4",
                    "midi": 61,
                    "time": 153.77350725000002,
                    "velocity": 0.5354330708661418,
                    "duration": 0.4271486312499917
                },
                {
                    "name": "F4",
                    "midi": 65,
                    "time": 153.77350725000002,
                    "velocity": 0.5511811023622047,
                    "duration": 0.49004168125000547
                },
                {
                    "name": "G4",
                    "midi": 67,
                    "time": 153.77350725000002,
                    "velocity": 0.4645669291338583,
                    "duration": 0.4926622250000037
                },
                {
                    "name": "C#5",
                    "midi": 73,
                    "time": 153.77350725000002,
                    "velocity": 0.47244094488188976,
                    "duration": 0.45335406875000217
                },
                {
                    "name": "G5",
                    "midi": 79,
                    "time": 153.77350725000002,
                    "velocity": 0.6456692913385826,
                    "duration": 0.5031443999999965
                },
                {
                    "name": "C4",
                    "midi": 60,
                    "time": 154.0879725,
                    "velocity": 0.2204724409448819,
                    "duration": 0.4559746125000288
                },
                {
                    "name": "E4",
                    "midi": 64,
                    "time": 154.0879725,
                    "velocity": 0.4251968503937008,
                    "duration": 0.39832265000001144
                },
                {
                    "name": "C5",
                    "midi": 72,
                    "time": 154.0879725,
                    "velocity": 0.3937007874015748,
                    "duration": 0.7809220375000052
                },
                {
                    "name": "E5",
                    "midi": 76,
                    "time": 154.0879725,
                    "velocity": 0.3464566929133858,
                    "duration": 0.7809220375000052
                },
                {
                    "name": "C6",
                    "midi": 84,
                    "time": 154.0879725,
                    "velocity": 0.44881889763779526,
                    "duration": 0.4219075437500237
                },
                {
                    "name": "G3",
                    "midi": 55,
                    "time": 155.03136825,
                    "velocity": 0.3543307086614173,
                    "duration": 0.4376308062499845
                },
                {
                    "name": "B3",
                    "midi": 59,
                    "time": 155.03136825,
                    "velocity": 0.2992125984251969,
                    "duration": 0.4795595062499842
                },
                {
                    "name": "D#4",
                    "midi": 63,
                    "time": 155.03136825,
                    "velocity": 0.44881889763779526,
                    "duration": 0.5267292937499803
                },
                {
                    "name": "G4",
                    "midi": 67,
                    "time": 155.03136825,
                    "velocity": 0.25196850393700787,
                    "duration": 0.49528276874997346
                },
                {
                    "name": "B4",
                    "midi": 71,
                    "time": 155.03136825,
                    "velocity": 0.31496062992125984,
                    "duration": 0.6001045187499869
                },
                {
                    "name": "D#5",
                    "midi": 75,
                    "time": 155.03136825,
                    "velocity": 0.3464566929133858,
                    "duration": 0.4350102624999863
                },
                {
                    "name": "G5",
                    "midi": 79,
                    "time": 155.03136825,
                    "velocity": 0.3543307086614173,
                    "duration": 0.56865799374998
                },
                {
                    "name": "C2",
                    "midi": 36,
                    "time": 155.3458335,
                    "velocity": 0.6456692913385826,
                    "duration": 2.6048204874999783
                },
                {
                    "name": "D4",
                    "midi": 62,
                    "time": 156.28922925,
                    "velocity": 0.5511811023622047,
                    "duration": 0.3668761249999761
                },
                {
                    "name": "D#4",
                    "midi": 63,
                    "time": 156.28922925,
                    "velocity": 0.6299212598425197,
                    "duration": 1.1530392499999493
                },
                {
                    "name": "G4",
                    "midi": 67,
                    "time": 156.28922925,
                    "velocity": 0.7165354330708661,
                    "duration": 0.7756809499999804
                },
                {
                    "name": "D5",
                    "midi": 74,
                    "time": 156.28922925,
                    "velocity": 0.5984251968503937,
                    "duration": 0.49004168124997705
                },
                {
                    "name": "G5",
                    "midi": 79,
                    "time": 156.28922925,
                    "velocity": 0.5669291338582677,
                    "duration": 0.919810856249967
                },
                {
                    "name": "D6",
                    "midi": 86,
                    "time": 156.28922925,
                    "velocity": 0.5826771653543307,
                    "duration": 0.476938962499986
                },
                {
                    "name": "C4",
                    "midi": 60,
                    "time": 156.6036945,
                    "velocity": 0.3937007874015748,
                    "duration": 0.8647794374999762
                },
                {
                    "name": "C5",
                    "midi": 72,
                    "time": 156.6036945,
                    "velocity": 0.3464566929133858,
                    "duration": 0.704926268749972
                },
                {
                    "name": "C6",
                    "midi": 84,
                    "time": 156.6036945,
                    "velocity": 0.3779527559055118,
                    "duration": 0.3957021062499848
                },
                {
                    "name": "G3",
                    "midi": 55,
                    "time": 157.54709024999997,
                    "velocity": 0.30708661417322836,
                    "duration": 0.39832265000001144
                },
                {
                    "name": "D4",
                    "midi": 62,
                    "time": 157.54709024999997,
                    "velocity": 0.3779527559055118,
                    "duration": 0.4979033125000001
                },
                {
                    "name": "F#4",
                    "midi": 66,
                    "time": 157.54709024999997,
                    "velocity": 0.5984251968503937,
                    "duration": 0.529349837500007
                },
                {
                    "name": "G4",
                    "midi": 67,
                    "time": 157.54709024999997,
                    "velocity": 0.4094488188976378,
                    "duration": 0.5267292937500088
                },
                {
                    "name": "D5",
                    "midi": 74,
                    "time": 157.54709024999997,
                    "velocity": 0.23622047244094488,
                    "duration": 0.5529347312500192
                },
                {
                    "name": "F#5",
                    "midi": 78,
                    "time": 157.54709024999997,
                    "velocity": 0.28346456692913385,
                    "duration": 0.6289304999999956
                },
                {
                    "name": "G5",
                    "midi": 79,
                    "time": 157.54709024999997,
                    "velocity": 0.30708661417322836,
                    "duration": 0.6132072375000064
                },
                {
                    "name": "G2",
                    "midi": 43,
                    "time": 157.86155549999998,
                    "velocity": 0.4094488188976378,
                    "duration": 2.5917177687499873
                },
                {
                    "name": "G3",
                    "midi": 55,
                    "time": 158.80495124999996,
                    "velocity": 0.36220472440944884,
                    "duration": 0.44025135000003957
                },
                {
                    "name": "C#4",
                    "midi": 61,
                    "time": 158.80495124999996,
                    "velocity": 0.3858267716535433,
                    "duration": 0.39570210625001323
                },
                {
                    "name": "F4",
                    "midi": 65,
                    "time": 158.80495124999996,
                    "velocity": 0.47244094488188976,
                    "duration": 0.46907733125004825
                },
                {
                    "name": "G4",
                    "midi": 67,
                    "time": 158.80495124999996,
                    "velocity": 0.5511811023622047,
                    "duration": 0.4166664562500273
                },
                {
                    "name": "C#5",
                    "midi": 73,
                    "time": 158.80495124999996,
                    "velocity": 0.6299212598425197,
                    "duration": 0.4166664562500273
                },
                {
                    "name": "G5",
                    "midi": 79,
                    "time": 158.80495124999996,
                    "velocity": 0.6456692913385826,
                    "duration": 0.4848005937500375
                },
                {
                    "name": "C4",
                    "midi": 60,
                    "time": 159.11941649999997,
                    "velocity": 0.11023622047244094,
                    "duration": 0.5529347312499908
                },
                {
                    "name": "E4",
                    "midi": 64,
                    "time": 159.11941649999997,
                    "velocity": 0.2204724409448819,
                    "duration": 0.778301493750007
                },
                {
                    "name": "C5",
                    "midi": 72,
                    "time": 159.11941649999997,
                    "velocity": 0.3543307086614173,
                    "duration": 0.5057649437500231
                },
                {
                    "name": "E5",
                    "midi": 76,
                    "time": 159.11941649999997,
                    "velocity": 0.33070866141732286,
                    "duration": 0.7101673562499968
                },
                {
                    "name": "C6",
                    "midi": 84,
                    "time": 159.11941649999997,
                    "velocity": 0.44881889763779526,
                    "duration": 0.4061842812500345
                },
                {
                    "name": "G3",
                    "midi": 55,
                    "time": 160.06281224999998,
                    "velocity": 0.3228346456692913,
                    "duration": 0.3537734062499851
                },
                {
                    "name": "B3",
                    "midi": 59,
                    "time": 160.06281224999998,
                    "velocity": 0.28346456692913385,
                    "duration": 0.40618428124997763
                },
                {
                    "name": "D#4",
                    "midi": 63,
                    "time": 160.06281224999998,
                    "velocity": 0.47244094488188976,
                    "duration": 0.4743184187499878
                },
                {
                    "name": "G4",
                    "midi": 67,
                    "time": 160.06281224999998,
                    "velocity": 0.1732283464566929,
                    "duration": 0.5136265749999893
                },
                {
                    "name": "B4",
                    "midi": 71,
                    "time": 160.06281224999998,
                    "velocity": 0.2440944881889764,
                    "duration": 0.5870017999999959
                },
                {
                    "name": "D#5",
                    "midi": 75,
                    "time": 160.06281224999998,
                    "velocity": 0.4094488188976378,
                    "duration": 0.48742113749997884
                },
                {
                    "name": "G5",
                    "midi": 79,
                    "time": 160.06281224999998,
                    "velocity": 0.36220472440944884,
                    "duration": 0.5765196250000031
                },
                {
                    "name": "A#1",
                    "midi": 34,
                    "time": 160.37727749999996,
                    "velocity": 0.5354330708661418,
                    "duration": 2.6939189750000594
                },
                {
                    "name": "C4",
                    "midi": 60,
                    "time": 161.32067324999997,
                    "velocity": 0.4330708661417323,
                    "duration": 0.3852199312500204
                },
                {
                    "name": "C#4",
                    "midi": 61,
                    "time": 161.32067324999997,
                    "velocity": 0.5511811023622047,
                    "duration": 0.9905655375000606
                },
                {
                    "name": "F4",
                    "midi": 65,
                    "time": 161.32067324999997,
                    "velocity": 0.5511811023622047,
                    "duration": 0.8857437875000471
                },
                {
                    "name": "C5",
                    "midi": 72,
                    "time": 161.32067324999997,
                    "velocity": 0.4645669291338583,
                    "duration": 0.44287189375000935
                },
                {
                    "name": "F5",
                    "midi": 77,
                    "time": 161.32067324999997,
                    "velocity": 0.5354330708661418,
                    "duration": 0.9067081375000612
                },
                {
                    "name": "C6",
                    "midi": 84,
                    "time": 161.32067324999997,
                    "velocity": 0.6299212598425197,
                    "duration": 0.44287189375000935
                },
                {
                    "name": "A#3",
                    "midi": 58,
                    "time": 161.63513849999998,
                    "velocity": 0.4330708661417323,
                    "duration": 0.458595156250027
                },
                {
                    "name": "A#4",
                    "midi": 70,
                    "time": 161.63513849999998,
                    "velocity": 0.4094488188976378,
                    "duration": 0.7809220375000621
                },
                {
                    "name": "A#5",
                    "midi": 82,
                    "time": 161.63513849999998,
                    "velocity": 0.47244094488188976,
                    "duration": 0.5267292937500372
                },
                {
                    "name": "F3",
                    "midi": 53,
                    "time": 162.57853425000005,
                    "velocity": 0.33858267716535434,
                    "duration": 0.5005238562499699
                },
                {
                    "name": "C4",
                    "midi": 60,
                    "time": 162.57853425000005,
                    "velocity": 0.3779527559055118,
                    "duration": 0.6001045187499869
                },
                {
                    "name": "E4",
                    "midi": 64,
                    "time": 162.57853425000005,
                    "velocity": 0.47244094488188976,
                    "duration": 0.5896223437499941
                },
                {
                    "name": "F4",
                    "midi": 65,
                    "time": 162.57853425000005,
                    "velocity": 0.25196850393700787,
                    "duration": 0.8411945437499924
                },
                {
                    "name": "C5",
                    "midi": 72,
                    "time": 162.57853425000005,
                    "velocity": 0.2755905511811024,
                    "duration": 0.6761002874999917
                },
                {
                    "name": "E5",
                    "midi": 76,
                    "time": 162.57853425000005,
                    "velocity": 0.2204724409448819,
                    "duration": 0.7023057250000022
                },
                {
                    "name": "F5",
                    "midi": 77,
                    "time": 162.57853425000005,
                    "velocity": 0.31496062992125984,
                    "duration": 0.8542972624999834
                },
                {
                    "name": "C#2",
                    "midi": 37,
                    "time": 162.89299950000003,
                    "velocity": 0.49606299212598426,
                    "duration": 2.486896018750002
                },
                {
                    "name": "F3",
                    "midi": 53,
                    "time": 163.83639525000004,
                    "velocity": 0.3464566929133858,
                    "duration": 0.40880482500000426
                },
                {
                    "name": "B3",
                    "midi": 59,
                    "time": 163.83639525000004,
                    "velocity": 0.33070866141732286,
                    "duration": 0.39832265000001144
                },
                {
                    "name": "D#4",
                    "midi": 63,
                    "time": 163.83639525000004,
                    "velocity": 0.49606299212598426,
                    "duration": 0.4297691750000183
                },
                {
                    "name": "F4",
                    "midi": 65,
                    "time": 163.83639525000004,
                    "velocity": 0.44881889763779526,
                    "duration": 0.40094319375000964
                },
                {
                    "name": "B4",
                    "midi": 71,
                    "time": 163.83639525000004,
                    "velocity": 0.4881889763779528,
                    "duration": 0.40356373750000785
                },
                {
                    "name": "D#5",
                    "midi": 75,
                    "time": 163.83639525000004,
                    "velocity": 0.49606299212598426,
                    "duration": 0.314465250000012
                },
                {
                    "name": "F5",
                    "midi": 77,
                    "time": 163.83639525000004,
                    "velocity": 0.5669291338582677,
                    "duration": 0.4533540687500306
                },
                {
                    "name": "A#3",
                    "midi": 58,
                    "time": 164.15086050000005,
                    "velocity": 0.23622047244094488,
                    "duration": 0.48480059375000906
                },
                {
                    "name": "D4",
                    "midi": 62,
                    "time": 164.15086050000005,
                    "velocity": 0.2125984251968504,
                    "duration": 0.4926622250000037
                },
                {
                    "name": "A#4",
                    "midi": 70,
                    "time": 164.15086050000005,
                    "velocity": 0.3543307086614173,
                    "duration": 0.4926622250000037
                },
                {
                    "name": "D5",
                    "midi": 74,
                    "time": 164.15086050000005,
                    "velocity": 0.07086614173228346,
                    "duration": 0.4297691750000183
                },
                {
                    "name": "A#5",
                    "midi": 82,
                    "time": 164.15086050000005,
                    "velocity": 0.2677165354330709,
                    "duration": 0.5712785374999783
                },
                {
                    "name": "F3",
                    "midi": 53,
                    "time": 165.09425625000003,
                    "velocity": 0.12598425196850394,
                    "duration": 0.39570210625001323
                },
                {
                    "name": "A3",
                    "midi": 57,
                    "time": 165.09425625000003,
                    "velocity": 0.11023622047244094,
                    "duration": 0.3852199312500204
                },
                {
                    "name": "C#4",
                    "midi": 61,
                    "time": 165.09425625000003,
                    "velocity": 0.31496062992125984,
                    "duration": 0.39570210625001323
                },
                {
                    "name": "F4",
                    "midi": 65,
                    "time": 165.09425625000003,
                    "velocity": 0.25196850393700787,
                    "duration": 0.5817607125000563
                },
                {
                    "name": "A4",
                    "midi": 69,
                    "time": 165.09425625000003,
                    "velocity": 0.3543307086614173,
                    "duration": 0.6970646375000626
                },
                {
                    "name": "C#5",
                    "midi": 73,
                    "time": 165.09425625000003,
                    "velocity": 0.3228346456692913,
                    "duration": 0.5555552750000459
                },
                {
                    "name": "F5",
                    "midi": 77,
                    "time": 165.09425625000003,
                    "velocity": 0.4330708661417323,
                    "duration": 0.6996851812500609
                },
                {
                    "name": "A#1",
                    "midi": 34,
                    "time": 165.40872150000004,
                    "velocity": 0.6456692913385826,
                    "duration": 2.6336464687500154
                },
                {
                    "name": "C4",
                    "midi": 60,
                    "time": 166.35211725000008,
                    "velocity": 0.4251968503937008,
                    "duration": 0.3878404750000186
                },
                {
                    "name": "C#4",
                    "midi": 61,
                    "time": 166.35211725000008,
                    "velocity": 0.47244094488188976,
                    "duration": 0.7337522500000091
                },
                {
                    "name": "F4",
                    "midi": 65,
                    "time": 166.35211725000008,
                    "velocity": 0.6299212598425197,
                    "duration": 0.8254712812500031
                },
                {
                    "name": "C5",
                    "midi": 72,
                    "time": 166.35211725000008,
                    "velocity": 0.5826771653543307,
                    "duration": 0.3380501437500243
                },
                {
                    "name": "F5",
                    "midi": 77,
                    "time": 166.35211725000008,
                    "velocity": 0.5354330708661418,
                    "duration": 1.0744229375000032
                },
                {
                    "name": "C6",
                    "midi": 84,
                    "time": 166.35211725000008,
                    "velocity": 0.6141732283464567,
                    "duration": 0.3721172125000294
                },
                {
                    "name": "A#3",
                    "midi": 58,
                    "time": 166.6665825000001,
                    "velocity": 0.5196850393700787,
                    "duration": 0.4376308062499845
                },
                {
                    "name": "A#4",
                    "midi": 70,
                    "time": 166.6665825000001,
                    "velocity": 0.5984251968503937,
                    "duration": 0.7389933374999771
                },
                {
                    "name": "A#5",
                    "midi": 82,
                    "time": 166.6665825000001,
                    "velocity": 0.6456692913385826,
                    "duration": 0.7285111624999843
                },
                {
                    "name": "F3",
                    "midi": 53,
                    "time": 167.60997825000007,
                    "velocity": 0.4645669291338583,
                    "duration": 0.4795595062499842
                },
                {
                    "name": "C#4",
                    "midi": 61,
                    "time": 167.60997825000007,
                    "velocity": 0.6299212598425197,
                    "duration": 0.49790331249997166
                },
                {
                    "name": "F4",
                    "midi": 65,
                    "time": 167.60997825000007,
                    "velocity": 0.49606299212598426,
                    "duration": 0.5110060312499627
                },
                {
                    "name": "C#5",
                    "midi": 73,
                    "time": 167.60997825000007,
                    "velocity": 0.6299212598425197,
                    "duration": 0.5214882062499555
                },
                {
                    "name": "F5",
                    "midi": 77,
                    "time": 167.60997825000007,
                    "velocity": 0.7165354330708661,
                    "duration": 0.5110060312499627
                },
                {
                    "name": "D#2",
                    "midi": 39,
                    "time": 167.92444350000005,
                    "velocity": 0.7165354330708661,
                    "duration": 7.431862075000055
                },
                {
                    "name": "A#2",
                    "midi": 46,
                    "time": 167.92444350000005,
                    "velocity": 0.8503937007874016,
                    "duration": 7.416138812500066
                },
                {
                    "name": "G3",
                    "midi": 55,
                    "time": 169.17968395625002,
                    "velocity": 0.5826771653543307,
                    "duration": 1.7452821374999985
                },
                {
                    "name": "A#3",
                    "midi": 58,
                    "time": 169.17968395625002,
                    "velocity": 0.5984251968503937,
                    "duration": 1.8396217125000192
                },
                {
                    "name": "C#4",
                    "midi": 61,
                    "time": 169.17968395625002,
                    "velocity": 0.7165354330708661,
                    "duration": 1.818657362500005
                },
                {
                    "name": "G4",
                    "midi": 67,
                    "time": 169.17968395625002,
                    "velocity": 0.7874015748031497,
                    "duration": 2.064988475000007
                },
                {
                    "name": "F5",
                    "midi": 77,
                    "time": 169.17968395625002,
                    "velocity": 0.7165354330708661,
                    "duration": 1.8160368187500069
                },
                {
                    "name": "A#5",
                    "midi": 82,
                    "time": 169.17968395625002,
                    "velocity": 0.6692913385826772,
                    "duration": 1.7976930125000194
                },
                {
                    "name": "C#6",
                    "midi": 85,
                    "time": 169.17968395625002,
                    "velocity": 0.5984251968503937,
                    "duration": 1.7688670312500108
                },
                {
                    "name": "F6",
                    "midi": 89,
                    "time": 169.17968395625002,
                    "velocity": 0.6456692913385826,
                    "duration": 1.7138356124999916
                },
                {
                    "name": "C#4",
                    "midi": 61,
                    "time": 171.69540595625003,
                    "velocity": 0.5984251968503937,
                    "duration": 0.7704398625000124
                },
                {
                    "name": "G4",
                    "midi": 67,
                    "time": 171.69540595625003,
                    "velocity": 0.5826771653543307,
                    "duration": 0.6682386562500255
                },
                {
                    "name": "A4",
                    "midi": 69,
                    "time": 171.69540595625003,
                    "velocity": 0.5669291338582677,
                    "duration": 0.6787208312500184
                },
                {
                    "name": "C#5",
                    "midi": 73,
                    "time": 171.69540595625003,
                    "velocity": 0.44881889763779526,
                    "duration": 0.8595383500000082
                },
                {
                    "name": "E5",
                    "midi": 76,
                    "time": 171.69540595625003,
                    "velocity": 0.5511811023622047,
                    "duration": 0.6472743062500115
                },
                {
                    "name": "A5",
                    "midi": 81,
                    "time": 171.69540595625003,
                    "velocity": 0.5118110236220472,
                    "duration": 0.6053456062500118
                },
                {
                    "name": "C#6",
                    "midi": 85,
                    "time": 171.69540595625003,
                    "velocity": 0.5826771653543307,
                    "duration": 0.6053456062500118
                },
                {
                    "name": "A#3",
                    "midi": 58,
                    "time": 172.95326695625005,
                    "velocity": 0.2440944881889764,
                    "duration": 0.5267292937500372
                },
                {
                    "name": "F4",
                    "midi": 65,
                    "time": 172.95326695625005,
                    "velocity": 0.3543307086614173,
                    "duration": 0.4612156999999968
                },
                {
                    "name": "G4",
                    "midi": 67,
                    "time": 172.95326695625005,
                    "velocity": 0.3464566929133858,
                    "duration": 0.45073352500000397
                },
                {
                    "name": "A#4",
                    "midi": 70,
                    "time": 172.95326695625005,
                    "velocity": 0.13385826771653545,
                    "duration": 0.5555552750000459
                },
                {
                    "name": "C#5",
                    "midi": 73,
                    "time": 172.95326695625005,
                    "velocity": 0.3700787401574803,
                    "duration": 0.5057649437500231
                },
                {
                    "name": "F5",
                    "midi": 77,
                    "time": 172.95326695625005,
                    "velocity": 0.3700787401574803,
                    "duration": 0.48480059375000906
                },
                {
                    "name": "A#5",
                    "midi": 82,
                    "time": 172.95326695625005,
                    "velocity": 0.3858267716535433,
                    "duration": 0.45335406875000217
                },
                {
                    "name": "G3",
                    "midi": 55,
                    "time": 174.2111279562501,
                    "velocity": 0.30708661417322836,
                    "duration": 1.968028356250045
                },
                {
                    "name": "C#4",
                    "midi": 61,
                    "time": 174.2111279562501,
                    "velocity": 0.2440944881889764,
                    "duration": 1.9182380250000222
                },
                {
                    "name": "D#4",
                    "midi": 63,
                    "time": 174.2111279562501,
                    "velocity": 0.1968503937007874,
                    "duration": 1.8946531312500383
                },
                {
                    "name": "F4",
                    "midi": 65,
                    "time": 174.2111279562501,
                    "velocity": 0.33070866141732286,
                    "duration": 1.9077558500000293
                },
                {
                    "name": "A4",
                    "midi": 69,
                    "time": 174.2111279562501,
                    "velocity": 0.28346456692913385,
                    "duration": 1.9392023750000362
                },
                {
                    "name": "C#5",
                    "midi": 73,
                    "time": 174.2111279562501,
                    "velocity": 0.4409448818897638,
                    "duration": 1.9418229187500344
                },
                {
                    "name": "F5",
                    "midi": 77,
                    "time": 174.2111279562501,
                    "velocity": 0.3858267716535433,
                    "duration": 1.8946531312500383
                },
                {
                    "name": "D#2",
                    "midi": 39,
                    "time": 175.46898895625012,
                    "velocity": 0.3700787401574803,
                    "duration": 4.85062648125006
                },
                {
                    "name": "A#2",
                    "midi": 46,
                    "time": 175.46898895625012,
                    "velocity": 0.44881889763779526,
                    "duration": 3.1708579375000454
                },
                {
                    "name": "C#3",
                    "midi": 49,
                    "time": 176.72684995625013,
                    "velocity": 0.2440944881889764,
                    "duration": 0.6184483250000028
                },
                {
                    "name": "G3",
                    "midi": 55,
                    "time": 176.72684995625013,
                    "velocity": 0.36220472440944884,
                    "duration": 0.5817607124999995
                },
                {
                    "name": "A3",
                    "midi": 57,
                    "time": 176.72684995625013,
                    "velocity": 0.2755905511811024,
                    "duration": 0.5398320125000282
                },
                {
                    "name": "C#4",
                    "midi": 61,
                    "time": 176.72684995625013,
                    "velocity": 0.16535433070866143,
                    "duration": 0.03406706875000509
                },
                {
                    "name": "E4",
                    "midi": 64,
                    "time": 176.72684995625013,
                    "velocity": 0.4094488188976378,
                    "duration": 0.5634169062500121
                },
                {
                    "name": "A4",
                    "midi": 69,
                    "time": 176.72684995625013,
                    "velocity": 0.3779527559055118,
                    "duration": 0.5529347312500192
                },
                {
                    "name": "C#5",
                    "midi": 73,
                    "time": 176.72684995625013,
                    "velocity": 0.4409448818897638,
                    "duration": 0.5712785375000067
                },
                {
                    "name": "A#2",
                    "midi": 46,
                    "time": 177.98471095625013,
                    "velocity": 0.06299212598425197,
                    "duration": 2.439726231250063
                },
                {
                    "name": "F3",
                    "midi": 53,
                    "time": 177.98471095625013,
                    "velocity": 0.07874015748031496,
                    "duration": 0.5607963625000423
                },
                {
                    "name": "G3",
                    "midi": 55,
                    "time": 177.98471095625013,
                    "velocity": 0.11811023622047244,
                    "duration": 0.5398320125000282
                },
                {
                    "name": "A#3",
                    "midi": 58,
                    "time": 177.98471095625013,
                    "velocity": 0.14173228346456693,
                    "duration": 0.602725062500042
                },
                {
                    "name": "C#4",
                    "midi": 61,
                    "time": 177.98471095625013,
                    "velocity": 0.1732283464566929,
                    "duration": 0.5634169062500405
                },
                {
                    "name": "F4",
                    "midi": 65,
                    "time": 177.98471095625013,
                    "velocity": 0.11023622047244094,
                    "duration": 0.5738990812500333
                },
                {
                    "name": "A#4",
                    "midi": 70,
                    "time": 177.98471095625013,
                    "velocity": 0.09448818897637795,
                    "duration": 0.5712785375000351
                },
                {
                    "name": "G2",
                    "midi": 43,
                    "time": 179.24519250000017,
                    "velocity": 0.16535433070866143,
                    "duration": 0.5948634312499905
                },
                {
                    "name": "C#3",
                    "midi": 49,
                    "time": 179.24519250000017,
                    "velocity": 0.11023622047244094,
                    "duration": 0.5712785375000067
                },
                {
                    "name": "D#3",
                    "midi": 51,
                    "time": 179.24519250000017,
                    "velocity": 0.06299212598425197,
                    "duration": 0.5607963625000139
                },
                {
                    "name": "F3",
                    "midi": 53,
                    "time": 179.24519250000017,
                    "velocity": 0.07874015748031496,
                    "duration": 0.5712785375000067
                },
                {
                    "name": "A3",
                    "midi": 57,
                    "time": 179.24519250000017,
                    "velocity": 0.07874015748031496,
                    "duration": 0.5843812562499977
                },
                {
                    "name": "C#4",
                    "midi": 61,
                    "time": 179.24519250000017,
                    "velocity": 0.1732283464566929,
                    "duration": 0.6158277812500046
                },
                {
                    "name": "F4",
                    "midi": 65,
                    "time": 179.24519250000017,
                    "velocity": 0.10236220472440945,
                    "duration": 0.6263099562499974
                },
                {
                    "name": "D#2",
                    "midi": 39,
                    "time": 180.5030535000002,
                    "velocity": 0.5511811023622047,
                    "duration": 4.819179956250025
                },
                {
                    "name": "A#2",
                    "midi": 46,
                    "time": 181.76091450000018,
                    "velocity": 0.23622047244094488,
                    "duration": 3.5220108000000323
                },
                {
                    "name": "C#3",
                    "midi": 49,
                    "time": 181.76091450000018,
                    "velocity": 0.12598425196850394,
                    "duration": 1.994233793750027
                },
                {
                    "name": "F3",
                    "midi": 53,
                    "time": 181.76091450000018,
                    "velocity": 0.31496062992125984,
                    "duration": 2.50261928125002
                },
                {
                    "name": "D#3",
                    "midi": 51,
                    "time": 184.2766365000002,
                    "velocity": 0.16535433070866143,
                    "duration": 1.0849051125000244
                },
                {
                    "name": "G3",
                    "midi": 55,
                    "time": 184.2766365000002,
                    "velocity": 0.2440944881889764,
                    "duration": 1.1006283750000136
                },
                {
                    "name": "C#2",
                    "midi": 37,
                    "time": 185.5344975000002,
                    "velocity": 0.5039370078740157,
                    "duration": 1.8658271499999728
                },
                {
                    "name": "G#2",
                    "midi": 44,
                    "time": 185.5344975000002,
                    "velocity": 0.4409448818897638,
                    "duration": 1.85534497499998
                },
                {
                    "name": "G#3",
                    "midi": 56,
                    "time": 185.5344975000002,
                    "velocity": 0.4566929133858268,
                    "duration": 1.5513618999999892
                },
                {
                    "name": "C#4",
                    "midi": 61,
                    "time": 185.5344975000002,
                    "velocity": 0.48031496062992124,
                    "duration": 1.0089093437500196
                },
                {
                    "name": "C#4",
                    "midi": 61,
                    "time": 186.47789325000022,
                    "velocity": 0.36220472440944884,
                    "duration": 0.21226404374999674
                },
                {
                    "name": "C#5",
                    "midi": 73,
                    "time": 186.47789325000022,
                    "velocity": 0.5433070866141733,
                    "duration": 0.0733752250000066
                },
                {
                    "name": "C#4",
                    "midi": 61,
                    "time": 186.63512587500023,
                    "velocity": 0.41732283464566927,
                    "duration": 0.7442344249999735
                },
                {
                    "name": "C#3",
                    "midi": 49,
                    "time": 186.7923585000002,
                    "velocity": 0.41732283464566927,
                    "duration": 0.8280918250000013
                },
                {
                    "name": "C#4",
                    "midi": 61,
                    "time": 186.7923585000002,
                    "velocity": 0.3700787401574803,
                    "duration": 0.8385739999999942
                },
                {
                    "name": "B1",
                    "midi": 35,
                    "time": 187.4212890000002,
                    "velocity": 0.36220472440944884,
                    "duration": 0.694444093750036
                },
                {
                    "name": "F#2",
                    "midi": 42,
                    "time": 187.4212890000002,
                    "velocity": 0.4566929133858268,
                    "duration": 0.6656181125000273
                },
                {
                    "name": "F#3",
                    "midi": 54,
                    "time": 187.4212890000002,
                    "velocity": 0.2204724409448819,
                    "duration": 0.7101673562500253
                },
                {
                    "name": "B3",
                    "midi": 59,
                    "time": 187.4212890000002,
                    "velocity": 0.3937007874015748,
                    "duration": 0.7285111625000127
                },
                {
                    "name": "G#1",
                    "midi": 32,
                    "time": 188.05021950000022,
                    "velocity": 0.48031496062992124,
                    "duration": 1.3469594874999586
                },
                {
                    "name": "D#2",
                    "midi": 39,
                    "time": 188.05021950000022,
                    "velocity": 0.5590551181102362,
                    "duration": 1.3286156812499712
                },
                {
                    "name": "D#3",
                    "midi": 51,
                    "time": 188.05021950000022,
                    "velocity": 0.41732283464566927,
                    "duration": 1.2945486124999661
                },
                {
                    "name": "G#3",
                    "midi": 56,
                    "time": 188.05021950000022,
                    "velocity": 0.36220472440944884,
                    "duration": 1.352200574999955
                },
                {
                    "name": "B1",
                    "midi": 35,
                    "time": 189.3080805000002,
                    "velocity": 0.3937007874015748,
                    "duration": 0.6498948499999813
                },
                {
                    "name": "F#2",
                    "midi": 42,
                    "time": 189.3080805000002,
                    "velocity": 0.4094488188976378,
                    "duration": 0.6787208312499899
                },
                {
                    "name": "F#3",
                    "midi": 54,
                    "time": 189.3080805000002,
                    "velocity": 0.33070866141732286,
                    "duration": 0.6158277812499762
                },
                {
                    "name": "B3",
                    "midi": 59,
                    "time": 189.3080805000002,
                    "velocity": 0.4094488188976378,
                    "duration": 0.6551359374999777
                },
                {
                    "name": "D#2",
                    "midi": 39,
                    "time": 189.93701100000015,
                    "velocity": 0.2992125984251969,
                    "duration": 0.7127879000000519
                },
                {
                    "name": "A#2",
                    "midi": 46,
                    "time": 189.93701100000015,
                    "velocity": 0.41732283464566927,
                    "duration": 0.6761002875000486
                },
                {
                    "name": "A#3",
                    "midi": 58,
                    "time": 189.93701100000015,
                    "velocity": 0.44881889763779526,
                    "duration": 0.7206495312500465
                },
                {
                    "name": "D#4",
                    "midi": 63,
                    "time": 189.93701100000015,
                    "velocity": 0.47244094488188976,
                    "duration": 0.7206495312500465
                },
                {
                    "name": "C#2",
                    "midi": 37,
                    "time": 190.5659415000002,
                    "velocity": 0.28346456692913385,
                    "duration": 1.9234791125000186
                },
                {
                    "name": "G#2",
                    "midi": 44,
                    "time": 190.5659415000002,
                    "velocity": 0.3858267716535433,
                    "duration": 1.9051353062500311
                },
                {
                    "name": "G#3",
                    "midi": 56,
                    "time": 190.5659415000002,
                    "velocity": 0.3779527559055118,
                    "duration": 1.8972736750000365
                },
                {
                    "name": "C#4",
                    "midi": 61,
                    "time": 190.5659415000002,
                    "velocity": 0.4409448818897638,
                    "duration": 1.0089093437500196
                },
                {
                    "name": "C#4",
                    "midi": 61,
                    "time": 191.50933725000021,
                    "velocity": 0.2283464566929134,
                    "duration": 0.20178186875003234
                },
                {
                    "name": "C#5",
                    "midi": 73,
                    "time": 191.50933725000021,
                    "velocity": 0.4566929133858268,
                    "duration": 0.09433957500002066
                },
                {
                    "name": "C#4",
                    "midi": 61,
                    "time": 191.66656987500025,
                    "velocity": 0.3858267716535433,
                    "duration": 0.7756809500000088
                },
                {
                    "name": "C#3",
                    "midi": 49,
                    "time": 191.82380250000026,
                    "velocity": 0.3700787401574803,
                    "duration": 0.9224313999999652
                },
                {
                    "name": "C#4",
                    "midi": 61,
                    "time": 191.82380250000026,
                    "velocity": 0.28346456692913385,
                    "duration": 0.9302930312499598
                },
                {
                    "name": "B1",
                    "midi": 35,
                    "time": 192.45273300000025,
                    "velocity": 0.25196850393700787,
                    "duration": 0.704926268749972
                },
                {
                    "name": "F#2",
                    "midi": 42,
                    "time": 192.45273300000025,
                    "velocity": 0.2283464566929134,
                    "duration": 0.6865824624999846
                },
                {
                    "name": "F#3",
                    "midi": 54,
                    "time": 192.45273300000025,
                    "velocity": 0.10236220472440945,
                    "duration": 0.6577564812499759
                },
                {
                    "name": "B3",
                    "midi": 59,
                    "time": 192.45273300000025,
                    "velocity": 0.14960629921259844,
                    "duration": 0.704926268749972
                },
                {
                    "name": "G#1",
                    "midi": 32,
                    "time": 193.08166350000022,
                    "velocity": 0.2047244094488189,
                    "duration": 0.6682386562499971
                },
                {
                    "name": "D#2",
                    "midi": 39,
                    "time": 193.08166350000022,
                    "velocity": 0.18110236220472442,
                    "duration": 0.6577564812500043
                },
                {
                    "name": "D#3",
                    "midi": 51,
                    "time": 193.08166350000022,
                    "velocity": 0.07874015748031496,
                    "duration": 0.7049262687500004
                },
                {
                    "name": "G#3",
                    "midi": 56,
                    "time": 193.08166350000022,
                    "velocity": 0.2125984251968504,
                    "duration": 0.6682386562499971
                },
                {
                    "name": "B1",
                    "midi": 35,
                    "time": 193.7105940000002,
                    "velocity": 0.2204724409448819,
                    "duration": 0.6839619187499864
                },
                {
                    "name": "F#2",
                    "midi": 42,
                    "time": 193.7105940000002,
                    "velocity": 0.18110236220472442,
                    "duration": 0.7416138812499753
                },
                {
                    "name": "F#3",
                    "midi": 54,
                    "time": 193.7105940000002,
                    "velocity": 0.08661417322834646,
                    "duration": 0.7075468124999702
                },
                {
                    "name": "B3",
                    "midi": 59,
                    "time": 193.7105940000002,
                    "velocity": 0.13385826771653545,
                    "duration": 0.6970646374999774
                },
                {
                    "name": "G#1",
                    "midi": 32,
                    "time": 194.3395245000002,
                    "velocity": 0.1968503937007874,
                    "duration": 1.221173387499988
                },
                {
                    "name": "D#2",
                    "midi": 39,
                    "time": 194.3395245000002,
                    "velocity": 0.11811023622047244,
                    "duration": 1.2316555624999808
                },
                {
                    "name": "D#3",
                    "midi": 51,
                    "time": 194.3395245000002,
                    "velocity": 0.11023622047244094,
                    "duration": 1.1687625124999954
                },
                {
                    "name": "G#3",
                    "midi": 56,
                    "time": 194.3395245000002,
                    "velocity": 0.10236220472440945,
                    "duration": 1.1792446874999882
                },
                {
                    "name": "G1",
                    "midi": 31,
                    "time": 195.5973855000002,
                    "velocity": 0.3464566929133858,
                    "duration": 2.227462187499981
                },
                {
                    "name": "G2",
                    "midi": 43,
                    "time": 195.5973855000002,
                    "velocity": 0.5354330708661418,
                    "duration": 2.287734693749968
                },
                {
                    "name": "A3",
                    "midi": 57,
                    "time": 196.5407812500002,
                    "velocity": 0.2125984251968504,
                    "duration": 0.13364773124996532
                },
                {
                    "name": "B3",
                    "midi": 59,
                    "time": 196.5407812500002,
                    "velocity": 0.25984251968503935,
                    "duration": 0.1231655562499725
                },
                {
                    "name": "D4",
                    "midi": 62,
                    "time": 196.5407812500002,
                    "velocity": 0.33858267716535434,
                    "duration": 0.11268338124997967
                },
                {
                    "name": "A4",
                    "midi": 69,
                    "time": 196.5407812500002,
                    "velocity": 0.30708661417322836,
                    "duration": 0.10220120624998685
                },
                {
                    "name": "A4",
                    "midi": 69,
                    "time": 196.85524650000016,
                    "velocity": 0.1732283464566929,
                    "duration": 1.5513618999999892
                },
                {
                    "name": "B4",
                    "midi": 71,
                    "time": 196.85524650000016,
                    "velocity": 0.16535433070866143,
                    "duration": 1.5408797249999964
                },
                {
                    "name": "D5",
                    "midi": 74,
                    "time": 196.85524650000016,
                    "velocity": 0.3779527559055118,
                    "duration": 1.7295588749999808
                },
                {
                    "name": "A5",
                    "midi": 81,
                    "time": 196.85524650000016,
                    "velocity": 0.3228346456692913,
                    "duration": 1.5120537437499877
                },
                {
                    "name": "A1",
                    "midi": 33,
                    "time": 197.79864225000017,
                    "velocity": 0.16535433070866143,
                    "duration": 0.4297691749999899
                },
                {
                    "name": "A2",
                    "midi": 45,
                    "time": 197.79864225000017,
                    "velocity": 0.18110236220472442,
                    "duration": 0.40880482499997584
                },
                {
                    "name": "B1",
                    "midi": 35,
                    "time": 198.11310750000015,
                    "velocity": 0.3464566929133858,
                    "duration": 2.2117389249999917
                },
                {
                    "name": "B2",
                    "midi": 47,
                    "time": 198.11310750000015,
                    "velocity": 0.4330708661417323,
                    "duration": 2.180292399999985
                },
                {
                    "name": "A4",
                    "midi": 69,
                    "time": 199.05650325000013,
                    "velocity": 0.1968503937007874,
                    "duration": 0.24895165625000004
                },
                {
                    "name": "F#5",
                    "midi": 78,
                    "time": 199.05650325000013,
                    "velocity": 0.3464566929133858,
                    "duration": 0.17033534374999704
                },
                {
                    "name": "D5",
                    "midi": 74,
                    "time": 199.21373587500014,
                    "velocity": 0.4645669291338583,
                    "duration": 0.14937099374998297
                },
                {
                    "name": "A3",
                    "midi": 57,
                    "time": 199.37096850000012,
                    "velocity": 0.2440944881889764,
                    "duration": 1.7295588750000093
                },
                {
                    "name": "D4",
                    "midi": 62,
                    "time": 199.37096850000012,
                    "velocity": 0.4330708661417323,
                    "duration": 1.6719069125000203
                },
                {
                    "name": "F#4",
                    "midi": 66,
                    "time": 199.37096850000012,
                    "velocity": 0.5511811023622047,
                    "duration": 1.5801878812500263
                },
                {
                    "name": "C2",
                    "midi": 36,
                    "time": 200.31436425000015,
                    "velocity": 0.4251968503937008,
                    "duration": 0.21750513124999316
                },
                {
                    "name": "C3",
                    "midi": 48,
                    "time": 200.31436425000015,
                    "velocity": 0.2677165354330709,
                    "duration": 0.21750513124999316
                },
                {
                    "name": "D2",
                    "midi": 38,
                    "time": 200.47159687500016,
                    "velocity": 0.5354330708661418,
                    "duration": 0.2044024124999737
                },
                {
                    "name": "D3",
                    "midi": 50,
                    "time": 200.47159687500016,
                    "velocity": 0.5669291338582677,
                    "duration": 0.162473712499974
                },
                {
                    "name": "E2",
                    "midi": 40,
                    "time": 200.62882950000014,
                    "velocity": 0.5669291338582677,
                    "duration": 2.3689715499999693
                },
                {
                    "name": "E3",
                    "midi": 52,
                    "time": 200.62882950000014,
                    "velocity": 0.5511811023622047,
                    "duration": 2.4213824249999334
                },
                {
                    "name": "G3",
                    "midi": 55,
                    "time": 201.57222525000012,
                    "velocity": 0.2047244094488189,
                    "duration": 0.3537734062500135
                },
                {
                    "name": "D4",
                    "midi": 62,
                    "time": 201.57222525000012,
                    "velocity": 0.2047244094488189,
                    "duration": 0.17295588749999524
                },
                {
                    "name": "E4",
                    "midi": 64,
                    "time": 201.57222525000012,
                    "velocity": 0.33858267716535434,
                    "duration": 0.25157219999999825
                },
                {
                    "name": "B3",
                    "midi": 59,
                    "time": 201.88669050000013,
                    "velocity": 0.5354330708661418,
                    "duration": 1.0429764124999963
                },
                {
                    "name": "D4",
                    "midi": 62,
                    "time": 201.88669050000013,
                    "velocity": 0.44881889763779526,
                    "duration": 0.44811298125000576
                },
                {
                    "name": "G4",
                    "midi": 67,
                    "time": 201.88669050000013,
                    "velocity": 0.5826771653543307,
                    "duration": 0.5581758187500157
                },
                {
                    "name": "F#2",
                    "midi": 42,
                    "time": 202.83008625000014,
                    "velocity": 0.3858267716535433,
                    "duration": 0.19916132499994887
                },
                {
                    "name": "F#3",
                    "midi": 54,
                    "time": 202.83008625000014,
                    "velocity": 0.25984251968503935,
                    "duration": 0.19129969374995426
                },
                {
                    "name": "D4",
                    "midi": 62,
                    "time": 202.83008625000014,
                    "velocity": 0.4015748031496063,
                    "duration": 0.20440241249994529
                },
                {
                    "name": "E4",
                    "midi": 64,
                    "time": 202.83008625000014,
                    "velocity": 0.36220472440944884,
                    "duration": 0.18343806249995964
                },
                {
                    "name": "B4",
                    "midi": 71,
                    "time": 202.83008625000014,
                    "velocity": 0.4645669291338583,
                    "duration": 0.2148845874999381
                },
                {
                    "name": "G2",
                    "midi": 43,
                    "time": 202.9873188750001,
                    "velocity": 0.5118110236220472,
                    "duration": 0.18605860624995785
                },
                {
                    "name": "G3",
                    "midi": 55,
                    "time": 202.9873188750001,
                    "velocity": 0.5196850393700787,
                    "duration": 0.14412990624995814
                },
                {
                    "name": "A2",
                    "midi": 45,
                    "time": 203.14455150000006,
                    "velocity": 0.6929133858267716,
                    "duration": 3.5193902562500625
                },
                {
                    "name": "A3",
                    "midi": 57,
                    "time": 203.14455150000006,
                    "velocity": 0.5669291338582677,
                    "duration": 3.5193902562500625
                },
                {
                    "name": "D4",
                    "midi": 62,
                    "time": 203.14455150000006,
                    "velocity": 0.5196850393700787,
                    "duration": 0.8202301937500067
                },
                {
                    "name": "E4",
                    "midi": 64,
                    "time": 203.14455150000006,
                    "velocity": 0.47244094488188976,
                    "duration": 0.699685181250004
                },
                {
                    "name": "B4",
                    "midi": 71,
                    "time": 203.14455150000006,
                    "velocity": 0.6456692913385826,
                    "duration": 0.8202301937500067
                },
                {
                    "name": "C4",
                    "midi": 60,
                    "time": 204.08794725000007,
                    "velocity": 0.2755905511811024,
                    "duration": 0.25157219999999825
                },
                {
                    "name": "E4",
                    "midi": 64,
                    "time": 204.08794725000007,
                    "velocity": 0.2283464566929134,
                    "duration": 0.1912996937500111
                },
                {
                    "name": "A4",
                    "midi": 69,
                    "time": 204.08794725000007,
                    "velocity": 0.4015748031496063,
                    "duration": 0.2332283937500108
                },
                {
                    "name": "E4",
                    "midi": 64,
                    "time": 204.40241250000008,
                    "velocity": 0.5511811023622047,
                    "duration": 0.7783014937500354
                },
                {
                    "name": "G4",
                    "midi": 67,
                    "time": 204.40241250000008,
                    "velocity": 0.6141732283464567,
                    "duration": 0.6498948500000381
                },
                {
                    "name": "C5",
                    "midi": 72,
                    "time": 204.40241250000008,
                    "velocity": 0.6141732283464567,
                    "duration": 0.7704398625000408
                },
                {
                    "name": "G4",
                    "midi": 67,
                    "time": 205.34580825000012,
                    "velocity": 0.5511811023622047,
                    "duration": 0.12054501250000271
                },
                {
                    "name": "B4",
                    "midi": 71,
                    "time": 205.34580825000012,
                    "velocity": 0.5196850393700787,
                    "duration": 0.09171903124999403
                },
                {
                    "name": "E5",
                    "midi": 76,
                    "time": 205.34580825000012,
                    "velocity": 0.5826771653543307,
                    "duration": 0.14150936250001678
                },
                {
                    "name": "B4",
                    "midi": 71,
                    "time": 205.66027350000013,
                    "velocity": 0.7401574803149606,
                    "duration": 2.1042966312499516
                },
                {
                    "name": "C5",
                    "midi": 72,
                    "time": 205.66027350000013,
                    "velocity": 0.6299212598425197,
                    "duration": 2.0571268437499555
                },
                {
                    "name": "G5",
                    "midi": 79,
                    "time": 205.66027350000013,
                    "velocity": 0.7165354330708661,
                    "duration": 1.9654078124999614
                },
                {
                    "name": "B2",
                    "midi": 47,
                    "time": 206.60366925000014,
                    "velocity": 0.3464566929133858,
                    "duration": 0.22798730624998598
                },
                {
                    "name": "B3",
                    "midi": 59,
                    "time": 206.60366925000014,
                    "velocity": 0.33858267716535434,
                    "duration": 0.2070229562499719
                },
                {
                    "name": "C3",
                    "midi": 48,
                    "time": 206.76090187500012,
                    "velocity": 0.5196850393700787,
                    "duration": 0.20702295625000033
                },
                {
                    "name": "C4",
                    "midi": 60,
                    "time": 206.76090187500012,
                    "velocity": 0.49606299212598426,
                    "duration": 0.14412990625001498
                },
                {
                    "name": "D3",
                    "midi": 50,
                    "time": 206.91813450000012,
                    "velocity": 0.7401574803149606,
                    "duration": 2.3637304624999445
                },
                {
                    "name": "D4",
                    "midi": 62,
                    "time": 206.91813450000012,
                    "velocity": 0.7165354330708661,
                    "duration": 2.371592093749939
                },
                {
                    "name": "A4",
                    "midi": 69,
                    "time": 207.86153025000007,
                    "velocity": 0.3779527559055118,
                    "duration": 0.2725365500000123
                },
                {
                    "name": "B4",
                    "midi": 71,
                    "time": 207.86153025000007,
                    "velocity": 0.4251968503937008,
                    "duration": 0.28301872500000513
                },
                {
                    "name": "F5",
                    "midi": 77,
                    "time": 207.86153025000007,
                    "velocity": 0.4881889763779528,
                    "duration": 0.33280905624999946
                },
                {
                    "name": "G#4",
                    "midi": 68,
                    "time": 208.17599550000008,
                    "velocity": 0.8503937007874016,
                    "duration": 0.7311317062499825
                },
                {
                    "name": "B4",
                    "midi": 71,
                    "time": 208.17599550000008,
                    "velocity": 0.6299212598425197,
                    "duration": 0.6498948499999813
                },
                {
                    "name": "E5",
                    "midi": 76,
                    "time": 208.17599550000008,
                    "velocity": 0.5826771653543307,
                    "duration": 0.7599576874999912
                },
                {
                    "name": "E3",
                    "midi": 52,
                    "time": 209.11939125000006,
                    "velocity": 0.36220472440944884,
                    "duration": 0.19916132500000572
                },
                {
                    "name": "E4",
                    "midi": 64,
                    "time": 209.11939125000006,
                    "velocity": 0.4645669291338583,
                    "duration": 0.19916132500000572
                },
                {
                    "name": "F#4",
                    "midi": 66,
                    "time": 209.11939125000006,
                    "velocity": 0.7165354330708661,
                    "duration": 0.2541927437500249
                },
                {
                    "name": "B4",
                    "midi": 71,
                    "time": 209.11939125000006,
                    "velocity": 0.4881889763779528,
                    "duration": 0.222746218750018
                },
                {
                    "name": "D5",
                    "midi": 74,
                    "time": 209.11939125000006,
                    "velocity": 0.6141732283464567,
                    "duration": 0.2646749187500177
                },
                {
                    "name": "F#3",
                    "midi": 54,
                    "time": 209.27662387500007,
                    "velocity": 0.5984251968503937,
                    "duration": 0.12316555625000092
                },
                {
                    "name": "F#4",
                    "midi": 66,
                    "time": 209.27662387500007,
                    "velocity": 0.6692913385826772,
                    "duration": 0.1860586062500147
                },
                {
                    "name": "G#3",
                    "midi": 56,
                    "time": 209.43385650000008,
                    "velocity": 0.5433070866141733,
                    "duration": 0.020964350000014065
                },
                {
                    "name": "G#4",
                    "midi": 68,
                    "time": 209.43385650000008,
                    "velocity": 0.5984251968503937,
                    "duration": 0.9853244500000358
                },
                {
                    "name": "G#4",
                    "midi": 68,
                    "time": 209.43385650000008,
                    "velocity": 0.8818897637795275,
                    "duration": 1.9392023750000362
                },
                {
                    "name": "B4",
                    "midi": 71,
                    "time": 209.43385650000008,
                    "velocity": 0.7401574803149606,
                    "duration": 1.2028295812500573
                },
                {
                    "name": "F5",
                    "midi": 77,
                    "time": 209.43385650000008,
                    "velocity": 0.7165354330708661,
                    "duration": 1.7426615937500287
                },
                {
                    "name": "A3",
                    "midi": 57,
                    "time": 210.3772522500001,
                    "velocity": 0.4409448818897638,
                    "duration": 0.18343806250001649
                },
                {
                    "name": "A4",
                    "midi": 69,
                    "time": 210.3772522500001,
                    "velocity": 0.4881889763779528,
                    "duration": 0.20702295625002876
                },
                {
                    "name": "B3",
                    "midi": 59,
                    "time": 210.53448487500012,
                    "velocity": 0.5826771653543307,
                    "duration": 0.10220120625001528
                },
                {
                    "name": "B4",
                    "midi": 71,
                    "time": 210.53448487500012,
                    "velocity": 0.6141732283464567,
                    "duration": 0.6629975687500007
                },
                {
                    "name": "B3",
                    "midi": 59,
                    "time": 210.69171750000012,
                    "velocity": 0.4409448818897638,
                    "duration": 0.020964350000014065
                },
                {
                    "name": "C4",
                    "midi": 60,
                    "time": 210.69171750000012,
                    "velocity": 0.7401574803149606,
                    "duration": 3.3726398062500493
                },
                {
                    "name": "C5",
                    "midi": 72,
                    "time": 210.69171750000012,
                    "velocity": 0.6929133858267716,
                    "duration": 1.1582803374999742
                },
                {
                    "name": "G4",
                    "midi": 67,
                    "time": 211.6351132500001,
                    "velocity": 0.2125984251968504,
                    "duration": 0.22536676249998777
                },
                {
                    "name": "A4",
                    "midi": 69,
                    "time": 211.6351132500001,
                    "velocity": 0.25196850393700787,
                    "duration": 0.22536676249998777
                },
                {
                    "name": "C5",
                    "midi": 72,
                    "time": 211.6351132500001,
                    "velocity": 0.3228346456692913,
                    "duration": 0.6996851812499756
                },
                {
                    "name": "E5",
                    "midi": 76,
                    "time": 211.6351132500001,
                    "velocity": 0.3700787401574803,
                    "duration": 0.18605860624998627
                },
                {
                    "name": "E4",
                    "midi": 64,
                    "time": 211.9495785000001,
                    "velocity": 0.31496062992125984,
                    "duration": 0.5607963625000423
                },
                {
                    "name": "G4",
                    "midi": 67,
                    "time": 211.9495785000001,
                    "velocity": 0.31496062992125984,
                    "duration": 0.43501026250001473
                },
                {
                    "name": "A4",
                    "midi": 69,
                    "time": 211.9495785000001,
                    "velocity": 0.2204724409448819,
                    "duration": 0.41404591250000067
                },
                {
                    "name": "C5",
                    "midi": 72,
                    "time": 211.9495785000001,
                    "velocity": 0.4330708661417323,
                    "duration": 2.0125776000000997
                },
                {
                    "name": "D4",
                    "midi": 62,
                    "time": 212.89297425000012,
                    "velocity": 0.2125984251968504,
                    "duration": 0.07075468125000839
                },
                {
                    "name": "E4",
                    "midi": 64,
                    "time": 212.89297425000012,
                    "velocity": 0.2440944881889764,
                    "duration": 0.09171903125002245
                },
                {
                    "name": "G4",
                    "midi": 67,
                    "time": 212.89297425000012,
                    "velocity": 0.30708661417322836,
                    "duration": 0.06289305000001377
                },
                {
                    "name": "B4",
                    "midi": 71,
                    "time": 212.89297425000012,
                    "velocity": 0.28346456692913385,
                    "duration": 0.12316555625002934
                },
                {
                    "name": "C4",
                    "midi": 60,
                    "time": 213.20743950000016,
                    "velocity": 0.2992125984251969,
                    "duration": 3.236371531250029
                },
                {
                    "name": "E4",
                    "midi": 64,
                    "time": 213.20743950000016,
                    "velocity": 0.44881889763779526,
                    "duration": 3.2861618625000233
                },
                {
                    "name": "G4",
                    "midi": 67,
                    "time": 213.20743950000016,
                    "velocity": 0.4094488188976378,
                    "duration": 3.296644037500016
                },
                {
                    "name": "B4",
                    "midi": 71,
                    "time": 213.20743950000016,
                    "velocity": 0.44881889763779526,
                    "duration": 3.2887824062500215
                },
                {
                    "name": "E2",
                    "midi": 40,
                    "time": 214.15083525000017,
                    "velocity": 0.3464566929133858,
                    "duration": 0.47693896250001444
                },
                {
                    "name": "E3",
                    "midi": 52,
                    "time": 214.15083525000017,
                    "velocity": 0.33858267716535434,
                    "duration": 0.43763080625001294
                },
                {
                    "name": "F#2",
                    "midi": 42,
                    "time": 214.46530050000018,
                    "velocity": 0.4015748031496063,
                    "duration": 1.0089093437499912
                },
                {
                    "name": "F#3",
                    "midi": 54,
                    "time": 214.46530050000018,
                    "velocity": 0.4094488188976378,
                    "duration": 0.9355341187499846
                },
                {
                    "name": "G2",
                    "midi": 43,
                    "time": 215.40869625000016,
                    "velocity": 0.2283464566929134,
                    "duration": 0.3852199312500204
                },
                {
                    "name": "G3",
                    "midi": 55,
                    "time": 215.40869625000016,
                    "velocity": 0.3700787401574803,
                    "duration": 0.36425558125000634
                },
                {
                    "name": "A2",
                    "midi": 45,
                    "time": 215.72316150000017,
                    "velocity": 0.16535433070866143,
                    "duration": 3.511528625000011
                },
                {
                    "name": "A3",
                    "midi": 57,
                    "time": 215.72316150000017,
                    "velocity": 0.2283464566929134,
                    "duration": 1.2997897000000194
                },
                {
                    "name": "G3",
                    "midi": 55,
                    "time": 216.66655725000018,
                    "velocity": 0.4409448818897638,
                    "duration": 0.28301872500000513
                },
                {
                    "name": "B3",
                    "midi": 59,
                    "time": 216.66655725000018,
                    "velocity": 0.3937007874015748,
                    "duration": 0.24633111250000184
                },
                {
                    "name": "E4",
                    "midi": 64,
                    "time": 216.66655725000018,
                    "velocity": 0.5511811023622047,
                    "duration": 0.2751570937500105
                },
                {
                    "name": "A3",
                    "midi": 57,
                    "time": 216.9810225000002,
                    "velocity": 0.3700787401574803,
                    "duration": 2.2117389249999917
                },
                {
                    "name": "B3",
                    "midi": 59,
                    "time": 216.9810225000002,
                    "velocity": 0.3700787401574803,
                    "duration": 0.7887836687499998
                },
                {
                    "name": "D4",
                    "midi": 62,
                    "time": 216.9810225000002,
                    "velocity": 0.49606299212598426,
                    "duration": 0.6629975687500007
                },
                {
                    "name": "G4",
                    "midi": 67,
                    "time": 216.9810225000002,
                    "velocity": 0.47244094488188976,
                    "duration": 0.6420332187499866
                },
                {
                    "name": "C#4",
                    "midi": 61,
                    "time": 217.9244182500002,
                    "velocity": 0.1732283464566929,
                    "duration": 0.4166664562499989
                },
                {
                    "name": "E4",
                    "midi": 64,
                    "time": 217.9244182500002,
                    "velocity": 0.25984251968503935,
                    "duration": 0.25157219999999825
                },
                {
                    "name": "A4",
                    "midi": 69,
                    "time": 217.9244182500002,
                    "velocity": 0.2755905511811024,
                    "duration": 0.17295588749999524
                },
                {
                    "name": "C4",
                    "midi": 60,
                    "time": 218.2388835000002,
                    "velocity": 0.2677165354330709,
                    "duration": 3.4198095937500455
                },
                {
                    "name": "E4",
                    "midi": 64,
                    "time": 218.2388835000002,
                    "velocity": 0.29133858267716534,
                    "duration": 3.459117750000047
                },
                {
                    "name": "G4",
                    "midi": 67,
                    "time": 218.2388835000002,
                    "velocity": 0.15748031496062992,
                    "duration": 3.4224301375000437
                },
                {
                    "name": "B4",
                    "midi": 71,
                    "time": 218.2388835000002,
                    "velocity": 0.2755905511811024,
                    "duration": 3.320228931250057
                },
                {
                    "name": "E2",
                    "midi": 40,
                    "time": 219.1822792500002,
                    "velocity": 0.1968503937007874,
                    "duration": 0.3878404749999902
                },
                {
                    "name": "E3",
                    "midi": 52,
                    "time": 219.1822792500002,
                    "velocity": 0.1889763779527559,
                    "duration": 0.4271486312499917
                },
                {
                    "name": "F#2",
                    "midi": 42,
                    "time": 219.49674450000018,
                    "velocity": 0.3543307086614173,
                    "duration": 0.9696011875000465
                },
                {
                    "name": "F#3",
                    "midi": 54,
                    "time": 219.49674450000018,
                    "velocity": 0.4015748031496063,
                    "duration": 0.9171903125000256
                },
                {
                    "name": "G2",
                    "midi": 43,
                    "time": 220.4401402500002,
                    "velocity": 0.1968503937007874,
                    "duration": 0.4061842812500345
                },
                {
                    "name": "G3",
                    "midi": 55,
                    "time": 220.4401402500002,
                    "velocity": 0.31496062992125984,
                    "duration": 0.3852199312500204
                },
                {
                    "name": "A2",
                    "midi": 45,
                    "time": 220.75460550000022,
                    "velocity": 0.2204724409448819,
                    "duration": 5.110060312500053
                },
                {
                    "name": "A3",
                    "midi": 57,
                    "time": 220.75460550000022,
                    "velocity": 0.25196850393700787,
                    "duration": 4.549263950000039
                },
                {
                    "name": "B3",
                    "midi": 59,
                    "time": 222.01246650000027,
                    "velocity": 0.1732283464566929,
                    "duration": 0.8018863874999909
                },
                {
                    "name": "C4",
                    "midi": 60,
                    "time": 222.01246650000027,
                    "velocity": 0.12598425196850394,
                    "duration": 0.8778821562499957
                },
                {
                    "name": "E4",
                    "midi": 64,
                    "time": 222.01246650000027,
                    "velocity": 0.2283464566929134,
                    "duration": 0.6394126749999884
                },
                {
                    "name": "G4",
                    "midi": 67,
                    "time": 222.01246650000027,
                    "velocity": 0.29133858267716534,
                    "duration": 0.6315510437499938
                },
                {
                    "name": "G3",
                    "midi": 55,
                    "time": 223.27032750000026,
                    "velocity": 0.13385826771653545,
                    "duration": 0.6708591999999953
                },
                {
                    "name": "B3",
                    "midi": 59,
                    "time": 223.27032750000026,
                    "velocity": 0.08661417322834646,
                    "duration": 0.7180289874999914
                },
                {
                    "name": "C4",
                    "midi": 60,
                    "time": 223.27032750000026,
                    "velocity": 0.10236220472440945,
                    "duration": 0.5974839749999887
                },
                {
                    "name": "E4",
                    "midi": 64,
                    "time": 223.27032750000026,
                    "velocity": 0.1732283464566929,
                    "duration": 0.5581758187499872
                },
                {
                    "name": "D3",
                    "midi": 50,
                    "time": 224.52818850000025,
                    "velocity": 0.14173228346456693,
                    "duration": 0.36425558125000634
                },
                {
                    "name": "E3",
                    "midi": 52,
                    "time": 224.52818850000025,
                    "velocity": 0.11811023622047244,
                    "duration": 0.3432912312499923
                },
                {
                    "name": "G3",
                    "midi": 55,
                    "time": 224.52818850000025,
                    "velocity": 0.06299212598425197,
                    "duration": 0.30136253124999257
                },
                {
                    "name": "B3",
                    "midi": 59,
                    "time": 224.52818850000025,
                    "velocity": 0.09448818897637795,
                    "duration": 0.3930815624999866
                },
                {
                    "name": "G#2",
                    "midi": 44,
                    "time": 225.78604950000027,
                    "velocity": 0.2677165354330709,
                    "duration": 4.800836149999981
                },
                {
                    "name": "C#3",
                    "midi": 49,
                    "time": 225.78604950000027,
                    "velocity": 0.18110236220472442,
                    "duration": 4.800836149999981
                },
                {
                    "name": "D#3",
                    "midi": 51,
                    "time": 225.78604950000027,
                    "velocity": 0.4094488188976378,
                    "duration": 4.808697781249975
                },
                {
                    "name": "F#3",
                    "midi": 54,
                    "time": 225.78604950000027,
                    "velocity": 0.3543307086614173,
                    "duration": 4.819179956249968
                },
                {
                    "name": "A#3",
                    "midi": 58,
                    "time": 225.78604950000027,
                    "velocity": 0.3543307086614173,
                    "duration": 4.821800499999966
                },
                {
                    "name": "F3",
                    "midi": 53,
                    "time": 227.04391050000027,
                    "velocity": 0.2047244094488189,
                    "duration": 0.11792446875000451
                },
                {
                    "name": "F4",
                    "midi": 65,
                    "time": 227.04391050000027,
                    "velocity": 0.2125984251968504,
                    "duration": 0.11006283750000989
                },
                {
                    "name": "F3",
                    "midi": 53,
                    "time": 229.55963250000028,
                    "velocity": 0.11023622047244094,
                    "duration": 0.2646749187499893
                },
                {
                    "name": "F4",
                    "midi": 65,
                    "time": 229.55963250000028,
                    "velocity": 0.14173228346456693,
                    "duration": 0.12054501250000271
                },
                {
                    "name": "G#1",
                    "midi": 32,
                    "time": 230.92755633750025,
                    "velocity": 0.2440944881889764,
                    "duration": 0.1572326249999776
                },
                {
                    "name": "F#7",
                    "midi": 102,
                    "time": 230.93279742500025,
                    "velocity": 0.5511811023622047,
                    "duration": 0.12316555625000092
                },
                {
                    "name": "A#1",
                    "midi": 34,
                    "time": 231.04548080625025,
                    "velocity": 0.4409448818897638,
                    "duration": 0.1677147999999704
                },
                {
                    "name": "D#7",
                    "midi": 99,
                    "time": 231.07430678750023,
                    "velocity": 0.2204724409448819,
                    "duration": 0.08647794374999762
                },
                {
                    "name": "C#2",
                    "midi": 37,
                    "time": 231.14768201250024,
                    "velocity": 0.4330708661417323,
                    "duration": 0.13626827499999195
                },
                {
                    "name": "C#7",
                    "midi": 97,
                    "time": 231.15292310000024,
                    "velocity": 0.4409448818897638,
                    "duration": 0.06289304999998535
                },
                {
                    "name": "A#6",
                    "midi": 94,
                    "time": 231.21581615000022,
                    "velocity": 0.4881889763779528,
                    "duration": 0.07075468125000839
                },
                {
                    "name": "D#2",
                    "midi": 39,
                    "time": 231.23678050000024,
                    "velocity": 0.4409448818897638,
                    "duration": 0.10220120624998685
                },
                {
                    "name": "G#6",
                    "midi": 92,
                    "time": 231.27870920000024,
                    "velocity": 0.4330708661417323,
                    "duration": 0.04716978749999612
                },
                {
                    "name": "F#6",
                    "midi": 90,
                    "time": 231.32587898750023,
                    "velocity": 0.4015748031496063,
                    "duration": 0.04716978749999612
                },
                {
                    "name": "F#2",
                    "midi": 42,
                    "time": 231.33112007500023,
                    "velocity": 0.4409448818897638,
                    "duration": 0.11006283749998147
                },
                {
                    "name": "D#6",
                    "midi": 87,
                    "time": 231.37304877500023,
                    "velocity": 0.3700787401574803,
                    "duration": 0.06551359374998356
                },
                {
                    "name": "G#2",
                    "midi": 44,
                    "time": 231.40973638750023,
                    "velocity": 0.2677165354330709,
                    "duration": 0.12054501249997429
                },
                {
                    "name": "C#6",
                    "midi": 85,
                    "time": 231.42808019375022,
                    "velocity": 0.3228346456692913,
                    "duration": 0.049790331249994324
                },
                {
                    "name": "A#2",
                    "midi": 46,
                    "time": 231.47524998125022,
                    "velocity": 0.44881889763779526,
                    "duration": 0.1284066437499689
                },
                {
                    "name": "A#5",
                    "midi": 82,
                    "time": 231.4778705250002,
                    "velocity": 0.3700787401574803,
                    "duration": 0.055031418749990735
                },
                {
                    "name": "C#3",
                    "midi": 49,
                    "time": 231.51455813750022,
                    "velocity": 0.33858267716535434,
                    "duration": 0.1284066437499689
                },
                {
                    "name": "G#5",
                    "midi": 80,
                    "time": 231.51717868125021,
                    "velocity": 0.11023622047244094,
                    "duration": 0.055031418749990735
                },
                {
                    "name": "F#5",
                    "midi": 78,
                    "time": 231.55648683750022,
                    "velocity": 0.09448818897637795,
                    "duration": 0.0497903312499659
                },
                {
                    "name": "D#3",
                    "midi": 51,
                    "time": 231.5800717312502,
                    "velocity": 0.5826771653543307,
                    "duration": 0.11006283749998147
                },
                {
                    "name": "D#5",
                    "midi": 75,
                    "time": 231.5984155375002,
                    "velocity": 0.4330708661417323,
                    "duration": 0.06289304999998535
                },
                {
                    "name": "C#5",
                    "midi": 73,
                    "time": 231.65344695625018,
                    "velocity": 0.15748031496062992,
                    "duration": 0.04716978749999612
                },
                {
                    "name": "F#3",
                    "midi": 54,
                    "time": 231.6822729375002,
                    "velocity": 0.4015748031496063,
                    "duration": 0.12054501249997429
                },
                {
                    "name": "A#4",
                    "midi": 70,
                    "time": 231.70061674375017,
                    "velocity": 0.4015748031496063,
                    "duration": 0.055031418749990735
                },
                {
                    "name": "G#4",
                    "midi": 68,
                    "time": 231.74778653125017,
                    "velocity": 0.4015748031496063,
                    "duration": 0.04716978749999612
                },
                {
                    "name": "G#3",
                    "midi": 56,
                    "time": 231.76088925000016,
                    "velocity": 0.33858267716535434,
                    "duration": 0.1126833812500081
                },
                {
                    "name": "F#4",
                    "midi": 66,
                    "time": 231.78709468750017,
                    "velocity": 0.3700787401574803,
                    "duration": 0.04716978749999612
                },
                {
                    "name": "D#4",
                    "midi": 63,
                    "time": 231.84474665000016,
                    "velocity": 0.4094488188976378,
                    "duration": 0.078616312500003
                },
                {
                    "name": "A#3",
                    "midi": 58,
                    "time": 231.84998773750016,
                    "velocity": 0.5196850393700787,
                    "duration": 0.157232625000006
                },
                {
                    "name": "C#4",
                    "midi": 61,
                    "time": 231.90763970000017,
                    "velocity": 0.1968503937007874,
                    "duration": 0.06289304999998535
                },
                {
                    "name": "A#3",
                    "midi": 58,
                    "time": 231.99411764375017,
                    "velocity": 0.28346456692913385,
                    "duration": 0.031446524999978465
                },
                {
                    "name": "F#4",
                    "midi": 66,
                    "time": 232.07535450000015,
                    "velocity": 0.5669291338582677,
                    "duration": 0.4245280875000219
                },
                {
                    "name": "A#4",
                    "midi": 70,
                    "time": 232.07535450000015,
                    "velocity": 0.4566929133858268,
                    "duration": 0.314465250000012
                },
                {
                    "name": "F4",
                    "midi": 65,
                    "time": 232.70428500000017,
                    "velocity": 0.5118110236220472,
                    "duration": 0.2437105687499752
                },
                {
                    "name": "A#4",
                    "midi": 70,
                    "time": 232.70428500000017,
                    "velocity": 0.4645669291338583,
                    "duration": 0.21488458749999495
                },
                {
                    "name": "C#5",
                    "midi": 73,
                    "time": 232.70428500000017,
                    "velocity": 0.5275590551181102,
                    "duration": 0.20702295625000033
                },
                {
                    "name": "F5",
                    "midi": 77,
                    "time": 232.70428500000017,
                    "velocity": 0.4566929133858268,
                    "duration": 0.2332283937499824
                },
                {
                    "name": "A#5",
                    "midi": 82,
                    "time": 232.70428500000017,
                    "velocity": 0.49606299212598426,
                    "duration": 0.25943383124996444
                },
                {
                    "name": "C#6",
                    "midi": 85,
                    "time": 232.70428500000017,
                    "velocity": 0.5354330708661418,
                    "duration": 0.25943383124996444
                },
                {
                    "name": "F6",
                    "midi": 89,
                    "time": 232.70428500000017,
                    "velocity": 0.5196850393700787,
                    "duration": 0.2332283937499824
                },
                {
                    "name": "C4",
                    "midi": 60,
                    "time": 233.33321550000014,
                    "velocity": 0.44881889763779526,
                    "duration": 0.6053456062500118
                },
                {
                    "name": "F4",
                    "midi": 65,
                    "time": 233.33321550000014,
                    "velocity": 0.49606299212598426,
                    "duration": 0.5712785375000067
                },
                {
                    "name": "G#4",
                    "midi": 68,
                    "time": 233.33321550000014,
                    "velocity": 0.6377952755905512,
                    "duration": 0.5450730999999962
                },
                {
                    "name": "C5",
                    "midi": 72,
                    "time": 233.33321550000014,
                    "velocity": 0.4409448818897638,
                    "duration": 1.1897268625000095
                },
                {
                    "name": "F5",
                    "midi": 77,
                    "time": 233.33321550000014,
                    "velocity": 0.5118110236220472,
                    "duration": 1.2237939312500146
                },
                {
                    "name": "G#5",
                    "midi": 80,
                    "time": 233.33321550000014,
                    "velocity": 0.4881889763779528,
                    "duration": 1.2185528437500182
                },
                {
                    "name": "C6",
                    "midi": 84,
                    "time": 233.33321550000014,
                    "velocity": 0.5196850393700787,
                    "duration": 1.184485775000013
                },
                {
                    "name": "G#1",
                    "midi": 32,
                    "time": 234.59107650000016,
                    "velocity": 0.4881889763779528,
                    "duration": 0.5791401687500013
                },
                {
                    "name": "G#2",
                    "midi": 44,
                    "time": 234.59107650000016,
                    "velocity": 0.4881889763779528,
                    "duration": 0.6734797437499935
                },
                {
                    "name": "F3",
                    "midi": 53,
                    "time": 235.84893750000015,
                    "velocity": 0.29133858267716534,
                    "duration": 0.7101673562499968
                },
                {
                    "name": "F#3",
                    "midi": 54,
                    "time": 235.84893750000015,
                    "velocity": 0.31496062992125984,
                    "duration": 0.8595383500000082
                },
                {
                    "name": "A#3",
                    "midi": 58,
                    "time": 235.84893750000015,
                    "velocity": 0.4094488188976378,
                    "duration": 0.7442344250000019
                },
                {
                    "name": "C#4",
                    "midi": 61,
                    "time": 235.84893750000015,
                    "velocity": 0.2440944881889764,
                    "duration": 0.60796615000001
                },
                {
                    "name": "F4",
                    "midi": 65,
                    "time": 235.84893750000015,
                    "velocity": 0.3858267716535433,
                    "duration": 0.8516767187500136
                },
                {
                    "name": "A#4",
                    "midi": 70,
                    "time": 235.84893750000015,
                    "velocity": 0.4881889763779528,
                    "duration": 0.8123685625000121
                },
                {
                    "name": "C#5",
                    "midi": 73,
                    "time": 235.84893750000015,
                    "velocity": 0.47244094488188976,
                    "duration": 0.7809220375000052
                },
                {
                    "name": "F5",
                    "midi": 77,
                    "time": 235.84893750000015,
                    "velocity": 0.3937007874015748,
                    "duration": 0.712787899999995
                },
                {
                    "name": "C3",
                    "midi": 48,
                    "time": 237.10679850000017,
                    "velocity": 0.09448818897637795,
                    "duration": 0.3878404749999902
                },
                {
                    "name": "F3",
                    "midi": 53,
                    "time": 237.10679850000017,
                    "velocity": 0.11023622047244094,
                    "duration": 0.4297691749999899
                },
                {
                    "name": "G#3",
                    "midi": 56,
                    "time": 237.10679850000017,
                    "velocity": 0.07874015748031496,
                    "duration": 0.3459117749999905
                },
                {
                    "name": "C4",
                    "midi": 60,
                    "time": 237.10679850000017,
                    "velocity": 0.06299212598425197,
                    "duration": 0.45335406875000217
                },
                {
                    "name": "F4",
                    "midi": 65,
                    "time": 237.10679850000017,
                    "velocity": 0.11023622047244094,
                    "duration": 0.5188676625000141
                },
                {
                    "name": "G#4",
                    "midi": 68,
                    "time": 237.10679850000017,
                    "velocity": 0.33858267716535434,
                    "duration": 0.5424525562500264
                },
                {
                    "name": "C5",
                    "midi": 72,
                    "time": 237.10679850000017,
                    "velocity": 0.14173228346456693,
                    "duration": 0.4952827687500019
                },
                {
                    "name": "G#1",
                    "midi": 32,
                    "time": 238.3646595000002,
                    "velocity": 0.5826771653543307,
                    "duration": 10.089093437499969
                },
                {
                    "name": "G#2",
                    "midi": 44,
                    "time": 238.3646595000002,
                    "velocity": 0.5826771653543307,
                    "duration": 10.07337017499998
                },
                {
                    "name": "F#3",
                    "midi": 54,
                    "time": 239.6225205000002,
                    "velocity": 0.11023622047244094,
                    "duration": 3.451256118750024
                },
                {
                    "name": "A#3",
                    "midi": 58,
                    "time": 239.6225205000002,
                    "velocity": 0.3700787401574803,
                    "duration": 2.2169800125000165
                },
                {
                    "name": "C#4",
                    "midi": 61,
                    "time": 239.6225205000002,
                    "velocity": 0.47244094488188976,
                    "duration": 1.255240456249993
                },
                {
                    "name": "F4",
                    "midi": 65,
                    "time": 239.6225205000002,
                    "velocity": 0.44881889763779526,
                    "duration": 1.3233745937500032
                },
                {
                    "name": "C4",
                    "midi": 60,
                    "time": 242.13824250000022,
                    "velocity": 0.14960629921259844,
                    "duration": 0.6970646375000058
                },
                {
                    "name": "D#4",
                    "midi": 63,
                    "time": 242.13824250000022,
                    "velocity": 0.2204724409448819,
                    "duration": 0.6551359375000061
                },
                {
                    "name": "A#3",
                    "midi": 58,
                    "time": 242.7671730000002,
                    "velocity": 0.1968503937007874,
                    "duration": 0.5476936437500228
                },
                {
                    "name": "C#4",
                    "midi": 61,
                    "time": 242.7671730000002,
                    "velocity": 0.18110236220472442,
                    "duration": 0.4690773312500198
                },
                {
                    "name": "G#3",
                    "midi": 56,
                    "time": 243.39610350000024,
                    "velocity": 0.2204724409448819,
                    "duration": 1.8265189937499713
                },
                {
                    "name": "C4",
                    "midi": 60,
                    "time": 243.39610350000024,
                    "velocity": 0.2677165354330709,
                    "duration": 3.071277274999943
                },
                {
                    "name": "D#4",
                    "midi": 63,
                    "time": 243.39610350000024,
                    "velocity": 0.33858267716535434,
                    "duration": 3.805029524999952
                },
                {
                    "name": "F#3",
                    "midi": 54,
                    "time": 245.91182550000022,
                    "velocity": 0.06299212598425197,
                    "duration": 2.2510470812499364
                },
                {
                    "name": "A#3",
                    "midi": 58,
                    "time": 245.91182550000022,
                    "velocity": 0.11811023622047244,
                    "duration": 2.2510470812499364
                },
                {
                    "name": "F4",
                    "midi": 65,
                    "time": 247.79861700000018,
                    "velocity": 0.2677165354330709,
                    "duration": 0.3485323187499887
                },
                {
                    "name": "F2",
                    "midi": 41,
                    "time": 248.23886835000016,
                    "velocity": 0.2677165354330709,
                    "duration": 0.3485323187499887
                },
                {
                    "name": "F2",
                    "midi": 41,
                    "time": 248.42754750000017,
                    "velocity": 0.23622047244094488,
                    "duration": 1.3469594874999586
                },
                {
                    "name": "C3",
                    "midi": 48,
                    "time": 248.42754750000017,
                    "velocity": 0.2047244094488189,
                    "duration": 1.1975884937499757
                },
                {
                    "name": "F3",
                    "midi": 53,
                    "time": 248.42754750000017,
                    "velocity": 0.29133858267716534,
                    "duration": 1.6823890874999563
                },
                {
                    "name": "C4",
                    "midi": 60,
                    "time": 248.42754750000017,
                    "velocity": 0.07086614173228346,
                    "duration": 0.8385739999999942
                },
                {
                    "name": "F4",
                    "midi": 65,
                    "time": 248.42754750000017,
                    "velocity": 0.05511811023622047,
                    "duration": 0.870020525000001
                },
                {
                    "name": "C4",
                    "midi": 60,
                    "time": 249.37094325000018,
                    "velocity": 0.047244094488188976,
                    "duration": 0.10220120624998685
                },
                {
                    "name": "C5",
                    "midi": 72,
                    "time": 249.37094325000018,
                    "velocity": 0.14960629921259844,
                    "duration": 0.04716978749999612
                },
                {
                    "name": "C4",
                    "midi": 60,
                    "time": 249.52817587500016,
                    "velocity": 0.31496062992125984,
                    "duration": 0.04716978749999612
                },
                {
                    "name": "C3",
                    "midi": 48,
                    "time": 249.68540850000014,
                    "velocity": 0.2125984251968504,
                    "duration": 0.8149891062499819
                },
                {
                    "name": "C4",
                    "midi": 60,
                    "time": 249.68540850000014,
                    "velocity": 0.18110236220472442,
                    "duration": 0.8071274749999873
                },
                {
                    "name": "D#2",
                    "midi": 39,
                    "time": 250.31433900000013,
                    "velocity": 0.3543307086614173,
                    "duration": 0.6813413749999881
                },
                {
                    "name": "A#2",
                    "midi": 46,
                    "time": 250.31433900000013,
                    "velocity": 0.33070866141732286,
                    "duration": 0.2751570937499821
                },
                {
                    "name": "D#3",
                    "midi": 51,
                    "time": 250.31433900000013,
                    "velocity": 0.41732283464566927,
                    "duration": 0.7049262687500004
                },
                {
                    "name": "C2",
                    "midi": 36,
                    "time": 250.94326950000013,
                    "velocity": 0.3858267716535433,
                    "duration": 1.3443389437499604
                },
                {
                    "name": "G2",
                    "midi": 43,
                    "time": 250.94326950000013,
                    "velocity": 0.3464566929133858,
                    "duration": 0.7809220374999768
                },
                {
                    "name": "C3",
                    "midi": 48,
                    "time": 250.94326950000013,
                    "velocity": 0.3228346456692913,
                    "duration": 1.3128924187499535
                },
                {
                    "name": "D#2",
                    "midi": 39,
                    "time": 252.2011305000001,
                    "velocity": 0.3228346456692913,
                    "duration": 0.6996851812499756
                },
                {
                    "name": "A#2",
                    "midi": 46,
                    "time": 252.2011305000001,
                    "velocity": 0.05511811023622047,
                    "duration": 0.56865799374998
                },
                {
                    "name": "D#3",
                    "midi": 51,
                    "time": 252.2011305000001,
                    "velocity": 0.2677165354330709,
                    "duration": 0.37473775624999917
                },
                {
                    "name": "G#2",
                    "midi": 44,
                    "time": 252.83006100000006,
                    "velocity": 0.11811023622047244,
                    "duration": 0.6839619187499864
                },
                {
                    "name": "D#3",
                    "midi": 51,
                    "time": 252.83006100000006,
                    "velocity": 0.25984251968503935,
                    "duration": 0.5712785375000067
                },
                {
                    "name": "G#3",
                    "midi": 56,
                    "time": 252.83006100000006,
                    "velocity": 0.29133858267716534,
                    "duration": 0.5162471187500159
                },
                {
                    "name": "F2",
                    "midi": 41,
                    "time": 253.45899150000005,
                    "velocity": 0.2283464566929134,
                    "duration": 1.4884688500000323
                },
                {
                    "name": "C3",
                    "midi": 48,
                    "time": 253.45899150000005,
                    "velocity": 0.06299212598425197,
                    "duration": 1.3757854687500242
                },
                {
                    "name": "F3",
                    "midi": 53,
                    "time": 253.45899150000005,
                    "velocity": 0.1968503937007874,
                    "duration": 1.8867915000000437
                },
                {
                    "name": "C4",
                    "midi": 60,
                    "time": 254.40238725000006,
                    "velocity": 0.047244094488188976,
                    "duration": 0.07075468125000839
                },
                {
                    "name": "C5",
                    "midi": 72,
                    "time": 254.40238725000006,
                    "velocity": 0.14173228346456693,
                    "duration": 0.04716978749999612
                },
                {
                    "name": "C4",
                    "midi": 60,
                    "time": 254.55961987500007,
                    "velocity": 0.2125984251968504,
                    "duration": 0.02358489375001227
                },
                {
                    "name": "C3",
                    "midi": 48,
                    "time": 254.71685250000007,
                    "velocity": 0.07874015748031496,
                    "duration": 0.6682386562500255
                },
                {
                    "name": "C4",
                    "midi": 60,
                    "time": 254.71685250000007,
                    "velocity": 0.007874015748031496,
                    "duration": 0.11006283750000989
                },
                {
                    "name": "D#2",
                    "midi": 39,
                    "time": 255.3457830000001,
                    "velocity": 0.2047244094488189,
                    "duration": 0.7206495312499896
                },
                {
                    "name": "A#2",
                    "midi": 46,
                    "time": 255.3457830000001,
                    "velocity": 0.07874015748031496,
                    "duration": 0.2672954624999875
                },
                {
                    "name": "D#3",
                    "midi": 51,
                    "time": 255.3457830000001,
                    "velocity": 0.2125984251968504,
                    "duration": 0.7311317062499825
                },
                {
                    "name": "C2",
                    "midi": 36,
                    "time": 255.97471350000006,
                    "velocity": 0.23622047244094488,
                    "duration": 0.6498948500000097
                },
                {
                    "name": "G2",
                    "midi": 43,
                    "time": 255.97471350000006,
                    "velocity": 0.13385826771653545,
                    "duration": 0.2987419875000228
                },
                {
                    "name": "C3",
                    "midi": 48,
                    "time": 255.97471350000006,
                    "velocity": 0.16535433070866143,
                    "duration": 0.6918235500000378
                },
                {
                    "name": "D#2",
                    "midi": 39,
                    "time": 256.6036440000001,
                    "velocity": 0.3543307086614173,
                    "duration": 0.6315510437501075
                },
                {
                    "name": "A#2",
                    "midi": 46,
                    "time": 256.6036440000001,
                    "velocity": 0.2125984251968504,
                    "duration": 0.15461208125003623
                },
                {
                    "name": "D#3",
                    "midi": 51,
                    "time": 256.6036440000001,
                    "velocity": 0.3464566929133858,
                    "duration": 0.6158277812500614
                },
                {
                    "name": "C2",
                    "midi": 36,
                    "time": 257.23257450000017,
                    "velocity": 0.31496062992125984,
                    "duration": 6.603770250000139
                },
                {
                    "name": "G2",
                    "midi": 43,
                    "time": 257.23257450000017,
                    "velocity": 0.25196850393700787,
                    "duration": 6.653560581250133
                },
                {
                    "name": "C3",
                    "midi": 48,
                    "time": 257.23257450000017,
                    "velocity": 0.3464566929133858,
                    "duration": 2.272011431250064
                },
                {
                    "name": "F1",
                    "midi": 29,
                    "time": 258.4904355000002,
                    "velocity": 0.49606299212598426,
                    "duration": 5.379976318750096
                },
                {
                    "name": "C3",
                    "midi": 48,
                    "time": 259.43383125000025,
                    "velocity": 0.007874015748031496,
                    "duration": 0.20964350000002696
                },
                {
                    "name": "C4",
                    "midi": 60,
                    "time": 259.43383125000025,
                    "velocity": 0.11811023622047244,
                    "duration": 0.055031418749990735
                },
                {
                    "name": "C3",
                    "midi": 48,
                    "time": 259.59106387500026,
                    "velocity": 0.2755905511811024,
                    "duration": 0.22012567500001978
                },
                {
                    "name": "C3",
                    "midi": 48,
                    "time": 259.74829650000027,
                    "velocity": 0.14960629921259844,
                    "duration": 2.2798730625000303
                },
                {
                    "name": "C3",
                    "midi": 48,
                    "time": 261.9495532500003,
                    "velocity": 0.007874015748031496,
                    "duration": 0.20440241250003055
                },
                {
                    "name": "C4",
                    "midi": 60,
                    "time": 261.9495532500003,
                    "velocity": 0.007874015748031496,
                    "duration": 0.04716978750002454
                },
                {
                    "name": "C3",
                    "midi": 48,
                    "time": 262.1067858750003,
                    "velocity": 0.2204724409448819,
                    "duration": 0.22012567500001978
                },
                {
                    "name": "C3",
                    "midi": 48,
                    "time": 262.2640185000003,
                    "velocity": 0.09448818897637795,
                    "duration": 1.6457014750000099
                }
            ],
            "controlChanges": {
                "64": [
                    {
                        "number": 64,
                        "time": 1.1373159874999998,
                        "value": 0.5039370078740157
                    },
                    {
                        "number": 64,
                        "time": 1.1792446874999998,
                        "value": 1
                    },
                    {
                        "number": 64,
                        "time": 3.7788240874999985,
                        "value": 0
                    },
                    {
                        "number": 64,
                        "time": 5.448110456249998,
                        "value": 0.5039370078740157
                    },
                    {
                        "number": 64,
                        "time": 5.466454262499997,
                        "value": 0
                    },
                    {
                        "number": 64,
                        "time": 5.484798068749997,
                        "value": 1
                    },
                    {
                        "number": 64,
                        "time": 6.171380531249998,
                        "value": 0
                    },
                    {
                        "number": 64,
                        "time": 6.247376299999998,
                        "value": 1
                    },
                    {
                        "number": 64,
                        "time": 6.265720106249998,
                        "value": 0
                    },
                    {
                        "number": 64,
                        "time": 6.305028262499998,
                        "value": 1
                    },
                    {
                        "number": 64,
                        "time": 6.533015568749998,
                        "value": 0
                    },
                    {
                        "number": 64,
                        "time": 6.931338218749998,
                        "value": 1
                    },
                    {
                        "number": 64,
                        "time": 6.949682024999998,
                        "value": 0
                    },
                    {
                        "number": 64,
                        "time": 6.996851812499997,
                        "value": 1
                    },
                    {
                        "number": 64,
                        "time": 7.7699122187499965,
                        "value": 0
                    },
                    {
                        "number": 64,
                        "time": 8.102721274999997,
                        "value": 0.5039370078740157
                    },
                    {
                        "number": 64,
                        "time": 8.121065081249997,
                        "value": 1
                    },
                    {
                        "number": 64,
                        "time": 8.710687424999996,
                        "value": 0
                    },
                    {
                        "number": 64,
                        "time": 8.844335156249995,
                        "value": 1
                    },
                    {
                        "number": 64,
                        "time": 8.865299506249995,
                        "value": 0.5039370078740157
                    },
                    {
                        "number": 64,
                        "time": 8.883643312499995,
                        "value": 1
                    },
                    {
                        "number": 64,
                        "time": 9.101148443749995,
                        "value": 0
                    },
                    {
                        "number": 64,
                        "time": 9.281965962499996,
                        "value": 1
                    },
                    {
                        "number": 64,
                        "time": 10.377353249999993,
                        "value": 0
                    },
                    {
                        "number": 64,
                        "time": 10.670854149999993,
                        "value": 1
                    },
                    {
                        "number": 64,
                        "time": 10.689197956249993,
                        "value": 0.5039370078740157
                    },
                    {
                        "number": 64,
                        "time": 10.710162306249993,
                        "value": 1
                    },
                    {
                        "number": 64,
                        "time": 12.830182199999989,
                        "value": 0
                    },
                    {
                        "number": 64,
                        "time": 13.123683099999988,
                        "value": 0.7559055118110236
                    },
                    {
                        "number": 64,
                        "time": 13.142026906249988,
                        "value": 0
                    },
                    {
                        "number": 64,
                        "time": 13.162991256249988,
                        "value": 1
                    },
                    {
                        "number": 64,
                        "time": 14.077561024999984,
                        "value": 0
                    },
                    {
                        "number": 64,
                        "time": 14.323892137499984,
                        "value": 1
                    },
                    {
                        "number": 64,
                        "time": 14.342235943749984,
                        "value": 0
                    },
                    {
                        "number": 64,
                        "time": 14.389405731249983,
                        "value": 1
                    },
                    {
                        "number": 64,
                        "time": 15.490034106249981,
                        "value": 0
                    },
                    {
                        "number": 64,
                        "time": 15.74684739374998,
                        "value": 0.5039370078740157
                    },
                    {
                        "number": 64,
                        "time": 15.78353500624998,
                        "value": 1
                    },
                    {
                        "number": 64,
                        "time": 16.60376519999998,
                        "value": 0
                    },
                    {
                        "number": 64,
                        "time": 16.77672108749998,
                        "value": 0.5039370078740157
                    },
                    {
                        "number": 64,
                        "time": 16.79506489374998,
                        "value": 0
                    },
                    {
                        "number": 64,
                        "time": 16.834373049999982,
                        "value": 1
                    },
                    {
                        "number": 64,
                        "time": 17.806594781249984,
                        "value": 0
                    },
                    {
                        "number": 64,
                        "time": 17.824938587499986,
                        "value": 0.5039370078740157
                    },
                    {
                        "number": 64,
                        "time": 17.845902937499986,
                        "value": 0
                    },
                    {
                        "number": 64,
                        "time": 18.367391143749987,
                        "value": 0.5039370078740157
                    },
                    {
                        "number": 64,
                        "time": 18.38573494999999,
                        "value": 1
                    },
                    {
                        "number": 64,
                        "time": 18.91246424374999,
                        "value": 0
                    },
                    {
                        "number": 64,
                        "time": 19.07755849999999,
                        "value": 0.7559055118110236
                    },
                    {
                        "number": 64,
                        "time": 19.095902306249993,
                        "value": 1
                    },
                    {
                        "number": 64,
                        "time": 20.06288294999999,
                        "value": 0
                    },
                    {
                        "number": 64,
                        "time": 20.40093309374999,
                        "value": 0.5039370078740157
                    },
                    {
                        "number": 64,
                        "time": 20.419276899999993,
                        "value": 1
                    },
                    {
                        "number": 64,
                        "time": 20.555545174999992,
                        "value": 0
                    },
                    {
                        "number": 64,
                        "time": 20.746844868749992,
                        "value": 1
                    },
                    {
                        "number": 64,
                        "time": 21.582798325,
                        "value": 0
                    },
                    {
                        "number": 64,
                        "time": 21.90774575,
                        "value": 1
                    },
                    {
                        "number": 64,
                        "time": 22.798730625000005,
                        "value": 0
                    },
                    {
                        "number": 64,
                        "time": 23.068646631250004,
                        "value": 1
                    },
                    {
                        "number": 64,
                        "time": 23.967493137500007,
                        "value": 0.5039370078740157
                    },
                    {
                        "number": 64,
                        "time": 23.98845748750001,
                        "value": 0
                    },
                    {
                        "number": 64,
                        "time": 24.17189555000001,
                        "value": 1
                    },
                    {
                        "number": 64,
                        "time": 25.20438978750001,
                        "value": 0.5039370078740157
                    },
                    {
                        "number": 64,
                        "time": 25.22535413750001,
                        "value": 0
                    },
                    {
                        "number": 64,
                        "time": 25.40879220000001,
                        "value": 0.5039370078740157
                    },
                    {
                        "number": 64,
                        "time": 25.44547981250001,
                        "value": 1
                    },
                    {
                        "number": 64,
                        "time": 30.026190287500018,
                        "value": 0
                    },
                    {
                        "number": 64,
                        "time": 30.382584237500016,
                        "value": 1
                    },
                    {
                        "number": 64,
                        "time": 32.20124160000002,
                        "value": 0
                    },
                    {
                        "number": 64,
                        "time": 32.473778150000015,
                        "value": 1
                    },
                    {
                        "number": 64,
                        "time": 32.843274818750025,
                        "value": 0
                    },
                    {
                        "number": 64,
                        "time": 33.34379867500002,
                        "value": 1
                    },
                    {
                        "number": 64,
                        "time": 33.362142481250025,
                        "value": 0
                    },
                    {
                        "number": 64,
                        "time": 33.38048628750003,
                        "value": 1
                    },
                    {
                        "number": 64,
                        "time": 34.074930381250034,
                        "value": 0
                    },
                    {
                        "number": 64,
                        "time": 34.376292912500034,
                        "value": 1
                    },
                    {
                        "number": 64,
                        "time": 34.71958414375003,
                        "value": 0
                    },
                    {
                        "number": 64,
                        "time": 34.99212069375003,
                        "value": 0.5039370078740157
                    },
                    {
                        "number": 64,
                        "time": 35.03142885000003,
                        "value": 1
                    },
                    {
                        "number": 64,
                        "time": 35.38258171250004,
                        "value": 0
                    },
                    {
                        "number": 64,
                        "time": 36.11371341875004,
                        "value": 1
                    },
                    {
                        "number": 64,
                        "time": 37.287717018750044,
                        "value": 0
                    },
                    {
                        "number": 64,
                        "time": 39.74578705625005,
                        "value": 0.5039370078740157
                    },
                    {
                        "number": 64,
                        "time": 39.76675140625005,
                        "value": 0
                    },
                    {
                        "number": 64,
                        "time": 40.45333386875005,
                        "value": 1
                    },
                    {
                        "number": 64,
                        "time": 41.768846831250045,
                        "value": 0
                    },
                    {
                        "number": 64,
                        "time": 42.04138338125004,
                        "value": 1
                    },
                    {
                        "number": 64,
                        "time": 42.95857369375004,
                        "value": 0
                    },
                    {
                        "number": 64,
                        "time": 43.14201175625004,
                        "value": 0.7559055118110236
                    },
                    {
                        "number": 64,
                        "time": 43.16297610625004,
                        "value": 1
                    },
                    {
                        "number": 64,
                        "time": 44.24788121875004,
                        "value": 0
                    },
                    {
                        "number": 64,
                        "time": 44.48635070000004,
                        "value": 1
                    },
                    {
                        "number": 64,
                        "time": 45.20962077500003,
                        "value": 0
                    },
                    {
                        "number": 64,
                        "time": 45.87261834375005,
                        "value": 1
                    },
                    {
                        "number": 64,
                        "time": 45.89096215000005,
                        "value": 0.7559055118110236
                    },
                    {
                        "number": 64,
                        "time": 45.91192650000005,
                        "value": 1
                    },
                    {
                        "number": 64,
                        "time": 46.71905397500005,
                        "value": 0
                    },
                    {
                        "number": 64,
                        "time": 47.01255487500005,
                        "value": 1
                    },
                    {
                        "number": 64,
                        "time": 47.94022736250007,
                        "value": 0
                    },
                    {
                        "number": 64,
                        "time": 48.142009231250064,
                        "value": 1
                    },
                    {
                        "number": 64,
                        "time": 48.160353037500066,
                        "value": 0
                    },
                    {
                        "number": 64,
                        "time": 48.17869684375007,
                        "value": 1
                    },
                    {
                        "number": 64,
                        "time": 49.26360195625007,
                        "value": 0
                    },
                    {
                        "number": 64,
                        "time": 49.43655784375007,
                        "value": 0.7559055118110236
                    },
                    {
                        "number": 64,
                        "time": 49.454901650000075,
                        "value": 1
                    },
                    {
                        "number": 64,
                        "time": 50.52670404375007,
                        "value": 0
                    },
                    {
                        "number": 64,
                        "time": 50.762552981250074,
                        "value": 0.5039370078740157
                    },
                    {
                        "number": 64,
                        "time": 50.783517331250074,
                        "value": 1
                    },
                    {
                        "number": 64,
                        "time": 51.81601156875008,
                        "value": 0
                    },
                    {
                        "number": 64,
                        "time": 52.09116866250008,
                        "value": 1
                    },
                    {
                        "number": 64,
                        "time": 53.06339039375008,
                        "value": 0
                    },
                    {
                        "number": 64,
                        "time": 53.27565443750008,
                        "value": 1
                    },
                    {
                        "number": 64,
                        "time": 54.33435411250009,
                        "value": 0
                    },
                    {
                        "number": 64,
                        "time": 54.585926312500085,
                        "value": 0.7559055118110236
                    },
                    {
                        "number": 64,
                        "time": 54.606890662500085,
                        "value": 1
                    },
                    {
                        "number": 64,
                        "time": 55.4087770500001,
                        "value": 0
                    },
                    {
                        "number": 64,
                        "time": 55.566009675000096,
                        "value": 1
                    },
                    {
                        "number": 64,
                        "time": 56.7924241500001,
                        "value": 0
                    },
                    {
                        "number": 64,
                        "time": 56.9732416687501,
                        "value": 0.5039370078740157
                    },
                    {
                        "number": 64,
                        "time": 56.9942060187501,
                        "value": 1
                    },
                    {
                        "number": 64,
                        "time": 58.0371824312501,
                        "value": 0
                    },
                    {
                        "number": 64,
                        "time": 58.3411655062501,
                        "value": 1
                    },
                    {
                        "number": 64,
                        "time": 59.3553159375001,
                        "value": 0
                    },
                    {
                        "number": 64,
                        "time": 60.85426696250011,
                        "value": 1
                    },
                    {
                        "number": 64,
                        "time": 61.079633725000114,
                        "value": 0
                    },
                    {
                        "number": 64,
                        "time": 61.11632133750012,
                        "value": 1
                    },
                    {
                        "number": 64,
                        "time": 61.83697086875012,
                        "value": 0
                    },
                    {
                        "number": 64,
                        "time": 62.122610137500125,
                        "value": 1
                    },
                    {
                        "number": 64,
                        "time": 62.14095394375013,
                        "value": 0
                    },
                    {
                        "number": 64,
                        "time": 62.16191829375013,
                        "value": 1
                    },
                    {
                        "number": 64,
                        "time": 63.02931827500012,
                        "value": 0
                    },
                    {
                        "number": 64,
                        "time": 63.304475368750126,
                        "value": 0.5039370078740157
                    },
                    {
                        "number": 64,
                        "time": 63.34378352500013,
                        "value": 1
                    },
                    {
                        "number": 64,
                        "time": 64.44179135625012,
                        "value": 0
                    },
                    {
                        "number": 64,
                        "time": 64.64095268125013,
                        "value": 1
                    },
                    {
                        "number": 64,
                        "time": 64.65929648750013,
                        "value": 0.5039370078740157
                    },
                    {
                        "number": 64,
                        "time": 64.68026083750013,
                        "value": 1
                    },
                    {
                        "number": 64,
                        "time": 65.45070070000013,
                        "value": 0.5039370078740157
                    },
                    {
                        "number": 64,
                        "time": 65.46904450625013,
                        "value": 0
                    },
                    {
                        "number": 64,
                        "time": 65.63151821875013,
                        "value": 0.7559055118110236
                    },
                    {
                        "number": 64,
                        "time": 65.64986202500013,
                        "value": 0
                    },
                    {
                        "number": 64,
                        "time": 65.66820583125013,
                        "value": 1
                    },
                    {
                        "number": 64,
                        "time": 65.92239857500013,
                        "value": 0
                    },
                    {
                        "number": 64,
                        "time": 66.05604630625012,
                        "value": 1
                    },
                    {
                        "number": 64,
                        "time": 66.82124508125014,
                        "value": 0.5039370078740157
                    },
                    {
                        "number": 64,
                        "time": 66.83958888750014,
                        "value": 0
                    },
                    {
                        "number": 64,
                        "time": 67.03350912500014,
                        "value": 1
                    },
                    {
                        "number": 64,
                        "time": 68.19178946250013,
                        "value": 0.5039370078740157
                    },
                    {
                        "number": 64,
                        "time": 68.21275381250013,
                        "value": 0
                    },
                    {
                        "number": 64,
                        "time": 68.41191513750013,
                        "value": 1
                    },
                    {
                        "number": 64,
                        "time": 69.34744925625014,
                        "value": 0
                    },
                    {
                        "number": 64,
                        "time": 69.59378036875015,
                        "value": 1
                    },
                    {
                        "number": 64,
                        "time": 70.51621176875017,
                        "value": 0
                    },
                    {
                        "number": 64,
                        "time": 70.65510058750017,
                        "value": 1
                    },
                    {
                        "number": 64,
                        "time": 70.67344439375017,
                        "value": 0
                    },
                    {
                        "number": 64,
                        "time": 70.69440874375017,
                        "value": 1
                    },
                    {
                        "number": 64,
                        "time": 73.10268845000017,
                        "value": 0
                    },
                    {
                        "number": 64,
                        "time": 73.38570717500018,
                        "value": 1
                    },
                    {
                        "number": 64,
                        "time": 74.97899777500017,
                        "value": 0
                    },
                    {
                        "number": 64,
                        "time": 76.35478324375018,
                        "value": 1
                    },
                    {
                        "number": 64,
                        "time": 76.9732315687502,
                        "value": 0
                    },
                    {
                        "number": 64,
                        "time": 77.1723928937502,
                        "value": 1
                    },
                    {
                        "number": 64,
                        "time": 77.1907367000002,
                        "value": 0.7559055118110236
                    },
                    {
                        "number": 64,
                        "time": 77.2117010500002,
                        "value": 1
                    },
                    {
                        "number": 64,
                        "time": 78.14985571250024,
                        "value": 0
                    },
                    {
                        "number": 64,
                        "time": 78.54293727500026,
                        "value": 1
                    },
                    {
                        "number": 64,
                        "time": 79.10635418125025,
                        "value": 0
                    },
                    {
                        "number": 64,
                        "time": 80.43496986250024,
                        "value": 1
                    },
                    {
                        "number": 64,
                        "time": 80.73109130625026,
                        "value": 0
                    },
                    {
                        "number": 64,
                        "time": 81.04555655625026,
                        "value": 1
                    },
                    {
                        "number": 64,
                        "time": 81.06652090625026,
                        "value": 0
                    },
                    {
                        "number": 64,
                        "time": 81.08486471250026,
                        "value": 1
                    },
                    {
                        "number": 64,
                        "time": 81.92081816875027,
                        "value": 0
                    },
                    {
                        "number": 64,
                        "time": 83.87050271875027,
                        "value": 1
                    },
                    {
                        "number": 64,
                        "time": 83.88884652500028,
                        "value": 0
                    },
                    {
                        "number": 64,
                        "time": 83.90719033125028,
                        "value": 1
                    },
                    {
                        "number": 64,
                        "time": 84.4732277812503,
                        "value": 0
                    },
                    {
                        "number": 64,
                        "time": 84.8217601000003,
                        "value": 0.7559055118110236
                    },
                    {
                        "number": 64,
                        "time": 84.8401039062503,
                        "value": 0.5039370078740157
                    },
                    {
                        "number": 64,
                        "time": 84.85844771250031,
                        "value": 1
                    },
                    {
                        "number": 64,
                        "time": 85.70750388750031,
                        "value": 0
                    },
                    {
                        "number": 64,
                        "time": 86.08224164375031,
                        "value": 1
                    },
                    {
                        "number": 64,
                        "time": 86.76882410625029,
                        "value": 0
                    },
                    {
                        "number": 64,
                        "time": 87.9428277062503,
                        "value": 0.7559055118110236
                    },
                    {
                        "number": 64,
                        "time": 87.9637920562503,
                        "value": 0.5039370078740157
                    },
                    {
                        "number": 64,
                        "time": 87.9821358625003,
                        "value": 1
                    },
                    {
                        "number": 64,
                        "time": 88.2966011125003,
                        "value": 0
                    },
                    {
                        "number": 64,
                        "time": 88.6005841875003,
                        "value": 0.5039370078740157
                    },
                    {
                        "number": 64,
                        "time": 88.6189279937503,
                        "value": 0
                    },
                    {
                        "number": 64,
                        "time": 88.6398923437503,
                        "value": 1
                    },
                    {
                        "number": 64,
                        "time": 89.51777450000031,
                        "value": 0
                    },
                    {
                        "number": 64,
                        "time": 90.01305726875032,
                        "value": 0.7559055118110236
                    },
                    {
                        "number": 64,
                        "time": 90.03402161875032,
                        "value": 1
                    },
                    {
                        "number": 64,
                        "time": 90.72846571250032,
                        "value": 0
                    },
                    {
                        "number": 64,
                        "time": 91.66137928750032,
                        "value": 1
                    },
                    {
                        "number": 64,
                        "time": 91.68234363750032,
                        "value": 0
                    },
                    {
                        "number": 64,
                        "time": 91.70068744375033,
                        "value": 1
                    },
                    {
                        "number": 64,
                        "time": 92.04397867500033,
                        "value": 0
                    },
                    {
                        "number": 64,
                        "time": 92.42657806250033,
                        "value": 1
                    },
                    {
                        "number": 64,
                        "time": 92.97165116250032,
                        "value": 0
                    },
                    {
                        "number": 64,
                        "time": 93.12888378750034,
                        "value": 0.5039370078740157
                    },
                    {
                        "number": 64,
                        "time": 93.14984813750034,
                        "value": 1
                    },
                    {
                        "number": 64,
                        "time": 93.33590674375034,
                        "value": 0
                    },
                    {
                        "number": 64,
                        "time": 93.81022516250034,
                        "value": 1
                    },
                    {
                        "number": 64,
                        "time": 94.25571760000034,
                        "value": 0
                    },
                    {
                        "number": 64,
                        "time": 94.85582211875034,
                        "value": 0.7559055118110236
                    },
                    {
                        "number": 64,
                        "time": 94.87678646875034,
                        "value": 0
                    },
                    {
                        "number": 64,
                        "time": 94.89513027500034,
                        "value": 1
                    },
                    {
                        "number": 64,
                        "time": 95.81494113125034,
                        "value": 0
                    },
                    {
                        "number": 64,
                        "time": 96.19491997500033,
                        "value": 1
                    },
                    {
                        "number": 64,
                        "time": 97.14617735625032,
                        "value": 0
                    },
                    {
                        "number": 64,
                        "time": 97.48422750000032,
                        "value": 0.5039370078740157
                    },
                    {
                        "number": 64,
                        "time": 97.50257130625032,
                        "value": 0
                    },
                    {
                        "number": 64,
                        "time": 97.52353565625032,
                        "value": 1
                    },
                    {
                        "number": 64,
                        "time": 98.3123193250003,
                        "value": 0
                    },
                    {
                        "number": 64,
                        "time": 98.6005791375003,
                        "value": 1
                    },
                    {
                        "number": 64,
                        "time": 98.6215434875003,
                        "value": 0
                    },
                    {
                        "number": 64,
                        "time": 98.6398872937503,
                        "value": 1
                    },
                    {
                        "number": 64,
                        "time": 99.6461760937503,
                        "value": 0
                    },
                    {
                        "number": 64,
                        "time": 99.9606413437503,
                        "value": 1
                    },
                    {
                        "number": 64,
                        "time": 99.9816056937503,
                        "value": 0
                    },
                    {
                        "number": 64,
                        "time": 99.9999495000003,
                        "value": 1
                    },
                    {
                        "number": 64,
                        "time": 100.85686730625028,
                        "value": 0
                    },
                    {
                        "number": 64,
                        "time": 101.56965520625027,
                        "value": 1
                    },
                    {
                        "number": 64,
                        "time": 102.07279960625026,
                        "value": 0
                    },
                    {
                        "number": 64,
                        "time": 102.34271561250026,
                        "value": 1
                    },
                    {
                        "number": 64,
                        "time": 102.36105941875026,
                        "value": 0
                    },
                    {
                        "number": 64,
                        "time": 102.38988540000025,
                        "value": 1
                    },
                    {
                        "number": 64,
                        "time": 103.32017843125024,
                        "value": 0
                    },
                    {
                        "number": 64,
                        "time": 103.66871075000024,
                        "value": 0.5039370078740157
                    },
                    {
                        "number": 64,
                        "time": 103.68705455625025,
                        "value": 0
                    },
                    {
                        "number": 64,
                        "time": 103.70801890625025,
                        "value": 1
                    },
                    {
                        "number": 64,
                        "time": 104.69334335625025,
                        "value": 0
                    },
                    {
                        "number": 64,
                        "time": 105.05759893750026,
                        "value": 1
                    },
                    {
                        "number": 64,
                        "time": 105.07594274375026,
                        "value": 0.5039370078740157
                    },
                    {
                        "number": 64,
                        "time": 105.09690709375026,
                        "value": 1
                    },
                    {
                        "number": 64,
                        "time": 105.89879348125025,
                        "value": 0
                    },
                    {
                        "number": 64,
                        "time": 106.17919166250026,
                        "value": 1
                    },
                    {
                        "number": 64,
                        "time": 106.19753546875026,
                        "value": 0
                    },
                    {
                        "number": 64,
                        "time": 106.21587927500026,
                        "value": 1
                    },
                    {
                        "number": 64,
                        "time": 107.20382426875027,
                        "value": 0
                    },
                    {
                        "number": 64,
                        "time": 107.49470462500027,
                        "value": 1
                    },
                    {
                        "number": 64,
                        "time": 108.35162243125026,
                        "value": 0
                    },
                    {
                        "number": 64,
                        "time": 108.65036441875026,
                        "value": 0.5039370078740157
                    },
                    {
                        "number": 64,
                        "time": 108.66870822500026,
                        "value": 0
                    },
                    {
                        "number": 64,
                        "time": 108.68705203125026,
                        "value": 1
                    },
                    {
                        "number": 64,
                        "time": 109.59376016875025,
                        "value": 0
                    },
                    {
                        "number": 64,
                        "time": 109.90298433125025,
                        "value": 0.5039370078740157
                    },
                    {
                        "number": 64,
                        "time": 109.92132813750025,
                        "value": 0
                    },
                    {
                        "number": 64,
                        "time": 109.93967194375026,
                        "value": 1
                    },
                    {
                        "number": 64,
                        "time": 110.93023748125024,
                        "value": 0
                    },
                    {
                        "number": 64,
                        "time": 111.15822478750025,
                        "value": 0.5039370078740157
                    },
                    {
                        "number": 64,
                        "time": 111.17656859375025,
                        "value": 0
                    },
                    {
                        "number": 64,
                        "time": 111.19491240000025,
                        "value": 1
                    },
                    {
                        "number": 64,
                        "time": 112.07017401250026,
                        "value": 0
                    },
                    {
                        "number": 64,
                        "time": 112.37939817500026,
                        "value": 1
                    },
                    {
                        "number": 64,
                        "time": 113.43285676250028,
                        "value": 0
                    },
                    {
                        "number": 64,
                        "time": 121.5460602125003,
                        "value": 1
                    },
                    {
                        "number": 64,
                        "time": 122.16974962500026,
                        "value": 0
                    },
                    {
                        "number": 64,
                        "time": 122.41083965000027,
                        "value": 0.5039370078740157
                    },
                    {
                        "number": 64,
                        "time": 122.42918345625027,
                        "value": 0
                    },
                    {
                        "number": 64,
                        "time": 122.44752726250027,
                        "value": 1
                    },
                    {
                        "number": 64,
                        "time": 123.45381606250027,
                        "value": 0.5039370078740157
                    },
                    {
                        "number": 64,
                        "time": 123.47215986875027,
                        "value": 0
                    },
                    {
                        "number": 64,
                        "time": 123.62153086250026,
                        "value": 1
                    },
                    {
                        "number": 64,
                        "time": 124.73788250000028,
                        "value": 0
                    },
                    {
                        "number": 64,
                        "time": 126.34689636250027,
                        "value": 0.5039370078740157
                    },
                    {
                        "number": 64,
                        "time": 126.36524016875028,
                        "value": 0
                    },
                    {
                        "number": 64,
                        "time": 126.38358397500028,
                        "value": 1
                    },
                    {
                        "number": 64,
                        "time": 127.2221579750003,
                        "value": 0
                    },
                    {
                        "number": 64,
                        "time": 127.4265603875003,
                        "value": 0.7559055118110236
                    },
                    {
                        "number": 64,
                        "time": 127.4449041937503,
                        "value": 0
                    },
                    {
                        "number": 64,
                        "time": 127.4632480000003,
                        "value": 1
                    },
                    {
                        "number": 64,
                        "time": 128.4852600625003,
                        "value": 0
                    },
                    {
                        "number": 64,
                        "time": 128.65821595000028,
                        "value": 1
                    },
                    {
                        "number": 64,
                        "time": 128.6791803000003,
                        "value": 0
                    },
                    {
                        "number": 64,
                        "time": 128.69752410625028,
                        "value": 1
                    },
                    {
                        "number": 64,
                        "time": 129.74050051875028,
                        "value": 0
                    },
                    {
                        "number": 64,
                        "time": 129.96324673750027,
                        "value": 0.5039370078740157
                    },
                    {
                        "number": 64,
                        "time": 129.99993435000027,
                        "value": 1
                    },
                    {
                        "number": 64,
                        "time": 131.11628598750025,
                        "value": 0
                    },
                    {
                        "number": 64,
                        "time": 131.32855003125024,
                        "value": 1
                    },
                    {
                        "number": 64,
                        "time": 131.89458748125026,
                        "value": 0
                    },
                    {
                        "number": 64,
                        "time": 132.23525816875025,
                        "value": 0.5039370078740157
                    },
                    {
                        "number": 64,
                        "time": 132.25098143125024,
                        "value": 0
                    },
                    {
                        "number": 64,
                        "time": 132.26670469375023,
                        "value": 1
                    },
                    {
                        "number": 64,
                        "time": 133.4669137312502,
                        "value": 0
                    },
                    {
                        "number": 64,
                        "time": 133.4983602562502,
                        "value": 1
                    },
                    {
                        "number": 64,
                        "time": 133.5167040625002,
                        "value": 0
                    },
                    {
                        "number": 64,
                        "time": 133.5481505875002,
                        "value": 1
                    },
                    {
                        "number": 64,
                        "time": 134.06701825000016,
                        "value": 0
                    },
                    {
                        "number": 64,
                        "time": 134.10894695000016,
                        "value": 1
                    },
                    {
                        "number": 64,
                        "time": 134.12467021250015,
                        "value": 0
                    },
                    {
                        "number": 64,
                        "time": 134.15087565000016,
                        "value": 1
                    },
                    {
                        "number": 64,
                        "time": 135.34584360000002,
                        "value": 0.5039370078740157
                    },
                    {
                        "number": 64,
                        "time": 135.3615668625,
                        "value": 0
                    },
                    {
                        "number": 64,
                        "time": 135.75202788125,
                        "value": 0.7559055118110236
                    },
                    {
                        "number": 64,
                        "time": 135.7703716875,
                        "value": 1
                    },
                    {
                        "number": 64,
                        "time": 138.01355713750002,
                        "value": 0.5039370078740157
                    },
                    {
                        "number": 64,
                        "time": 138.0292804,
                        "value": 0
                    },
                    {
                        "number": 64,
                        "time": 138.33588401874997,
                        "value": 1
                    },
                    {
                        "number": 64,
                        "time": 140.41921629999996,
                        "value": 0
                    },
                    {
                        "number": 64,
                        "time": 150.48996593124997,
                        "value": 1
                    },
                    {
                        "number": 64,
                        "time": 150.67078344999996,
                        "value": 0
                    },
                    {
                        "number": 64,
                        "time": 150.69436834374997,
                        "value": 0.5039370078740157
                    },
                    {
                        "number": 64,
                        "time": 150.71795323749998,
                        "value": 0
                    },
                    {
                        "number": 64,
                        "time": 150.84111879374998,
                        "value": 0.5039370078740157
                    },
                    {
                        "number": 64,
                        "time": 150.8647036875,
                        "value": 1
                    },
                    {
                        "number": 64,
                        "time": 152.54971331875,
                        "value": 0
                    },
                    {
                        "number": 64,
                        "time": 152.79604443125,
                        "value": 1
                    },
                    {
                        "number": 64,
                        "time": 153.91763715625,
                        "value": 0
                    },
                    {
                        "number": 64,
                        "time": 154.08011086875,
                        "value": 1
                    },
                    {
                        "number": 64,
                        "time": 154.32644198125,
                        "value": 0
                    },
                    {
                        "number": 64,
                        "time": 154.52036221875002,
                        "value": 0.5039370078740157
                    },
                    {
                        "number": 64,
                        "time": 154.54132656875004,
                        "value": 0
                    },
                    {
                        "number": 64,
                        "time": 154.56229091875002,
                        "value": 1
                    },
                    {
                        "number": 64,
                        "time": 155.24363229375,
                        "value": 0
                    },
                    {
                        "number": 64,
                        "time": 155.5083072125,
                        "value": 0.5039370078740157
                    },
                    {
                        "number": 64,
                        "time": 155.52927156249999,
                        "value": 1
                    },
                    {
                        "number": 64,
                        "time": 156.43335915625,
                        "value": 0
                    },
                    {
                        "number": 64,
                        "time": 156.65086428749999,
                        "value": 1
                    },
                    {
                        "number": 64,
                        "time": 156.82382017499998,
                        "value": 0
                    },
                    {
                        "number": 64,
                        "time": 157.11994161874998,
                        "value": 1
                    },
                    {
                        "number": 64,
                        "time": 157.66763526249997,
                        "value": 0
                    },
                    {
                        "number": 64,
                        "time": 157.94279235624998,
                        "value": 0.7559055118110236
                    },
                    {
                        "number": 64,
                        "time": 157.96375670624997,
                        "value": 0
                    },
                    {
                        "number": 64,
                        "time": 157.98472105624998,
                        "value": 1
                    },
                    {
                        "number": 64,
                        "time": 158.88094701874996,
                        "value": 0
                    },
                    {
                        "number": 64,
                        "time": 159.08272888749997,
                        "value": 1
                    },
                    {
                        "number": 64,
                        "time": 159.33692163125,
                        "value": 0
                    },
                    {
                        "number": 64,
                        "time": 159.6225609,
                        "value": 0.5039370078740157
                    },
                    {
                        "number": 64,
                        "time": 159.64352524999998,
                        "value": 0
                    },
                    {
                        "number": 64,
                        "time": 159.66186905624997,
                        "value": 1
                    },
                    {
                        "number": 64,
                        "time": 160.19645998124997,
                        "value": 0
                    },
                    {
                        "number": 64,
                        "time": 160.35893369374998,
                        "value": 0.5039370078740157
                    },
                    {
                        "number": 64,
                        "time": 160.37989804374996,
                        "value": 1
                    },
                    {
                        "number": 64,
                        "time": 160.74153308124997,
                        "value": 0
                    },
                    {
                        "number": 64,
                        "time": 160.99834636874996,
                        "value": 0.7559055118110236
                    },
                    {
                        "number": 64,
                        "time": 161.01931071874998,
                        "value": 0
                    },
                    {
                        "number": 64,
                        "time": 161.03765452499997,
                        "value": 1
                    },
                    {
                        "number": 64,
                        "time": 161.80285329999998,
                        "value": 0
                    },
                    {
                        "number": 64,
                        "time": 162.0387022375,
                        "value": 0.5039370078740157
                    },
                    {
                        "number": 64,
                        "time": 162.0596665875,
                        "value": 0
                    },
                    {
                        "number": 64,
                        "time": 162.08063093750002,
                        "value": 1
                    },
                    {
                        "number": 64,
                        "time": 162.75673122500004,
                        "value": 0
                    },
                    {
                        "number": 64,
                        "time": 163.092160825,
                        "value": 1
                    },
                    {
                        "number": 64,
                        "time": 163.11312517500002,
                        "value": 0
                    },
                    {
                        "number": 64,
                        "time": 163.13408952500004,
                        "value": 1
                    },
                    {
                        "number": 64,
                        "time": 163.96218135000004,
                        "value": 0
                    },
                    {
                        "number": 64,
                        "time": 164.17706593750006,
                        "value": 1
                    },
                    {
                        "number": 64,
                        "time": 164.37098617500007,
                        "value": 0
                    },
                    {
                        "number": 64,
                        "time": 164.62517891875007,
                        "value": 0.5039370078740157
                    },
                    {
                        "number": 64,
                        "time": 164.64614326875005,
                        "value": 0
                    },
                    {
                        "number": 64,
                        "time": 164.66448707500004,
                        "value": 1
                    },
                    {
                        "number": 64,
                        "time": 165.29341757500003,
                        "value": 0
                    },
                    {
                        "number": 64,
                        "time": 165.51878433750005,
                        "value": 1
                    },
                    {
                        "number": 64,
                        "time": 165.53974868750007,
                        "value": 0
                    },
                    {
                        "number": 64,
                        "time": 165.56071303750008,
                        "value": 1
                    },
                    {
                        "number": 64,
                        "time": 166.39666649375008,
                        "value": 0
                    },
                    {
                        "number": 64,
                        "time": 166.6298948875001,
                        "value": 1
                    },
                    {
                        "number": 64,
                        "time": 166.8736054562501,
                        "value": 0
                    },
                    {
                        "number": 64,
                        "time": 167.08849004375008,
                        "value": 1
                    },
                    {
                        "number": 64,
                        "time": 167.91920241250006,
                        "value": 0
                    },
                    {
                        "number": 64,
                        "time": 168.12098428125003,
                        "value": 1
                    },
                    {
                        "number": 64,
                        "time": 169.3971890875,
                        "value": 0
                    },
                    {
                        "number": 64,
                        "time": 169.7011721625,
                        "value": 0.5039370078740157
                    },
                    {
                        "number": 64,
                        "time": 169.72213651250001,
                        "value": 1
                    },
                    {
                        "number": 64,
                        "time": 171.92077271875002,
                        "value": 0
                    },
                    {
                        "number": 64,
                        "time": 172.11993404375002,
                        "value": 0.7559055118110236
                    },
                    {
                        "number": 64,
                        "time": 172.14089839375004,
                        "value": 1
                    },
                    {
                        "number": 64,
                        "time": 173.22842405000006,
                        "value": 0
                    },
                    {
                        "number": 64,
                        "time": 173.43806755000006,
                        "value": 1
                    },
                    {
                        "number": 64,
                        "time": 174.4155303687501,
                        "value": 0
                    },
                    {
                        "number": 64,
                        "time": 174.7352367062501,
                        "value": 1
                    },
                    {
                        "number": 64,
                        "time": 175.5659490750001,
                        "value": 0.5039370078740157
                    },
                    {
                        "number": 64,
                        "time": 175.58691342500012,
                        "value": 0
                    },
                    {
                        "number": 64,
                        "time": 175.78607475000013,
                        "value": 1
                    },
                    {
                        "number": 64,
                        "time": 176.99414541875015,
                        "value": 0
                    },
                    {
                        "number": 64,
                        "time": 177.26406142500016,
                        "value": 1
                    },
                    {
                        "number": 64,
                        "time": 178.14194358125013,
                        "value": 0
                    },
                    {
                        "number": 64,
                        "time": 178.41972121875014,
                        "value": 1
                    },
                    {
                        "number": 64,
                        "time": 179.41290730000017,
                        "value": 0
                    },
                    {
                        "number": 64,
                        "time": 179.71164928750017,
                        "value": 0.5039370078740157
                    },
                    {
                        "number": 64,
                        "time": 179.73261363750018,
                        "value": 0
                    },
                    {
                        "number": 64,
                        "time": 179.7561985312502,
                        "value": 1
                    },
                    {
                        "number": 64,
                        "time": 180.5476027437502,
                        "value": 0
                    },
                    {
                        "number": 64,
                        "time": 181.8657362500002,
                        "value": 0.5039370078740157
                    },
                    {
                        "number": 64,
                        "time": 181.8867006000002,
                        "value": 1
                    },
                    {
                        "number": 64,
                        "time": 184.3631144437502,
                        "value": 0.5039370078740157
                    },
                    {
                        "number": 64,
                        "time": 184.3840787937502,
                        "value": 0
                    },
                    {
                        "number": 64,
                        "time": 184.5020032625002,
                        "value": 0.5039370078740157
                    },
                    {
                        "number": 64,
                        "time": 184.5413114187502,
                        "value": 1
                    },
                    {
                        "number": 64,
                        "time": 185.4585017312502,
                        "value": 0.5039370078740157
                    },
                    {
                        "number": 64,
                        "time": 185.47946608125022,
                        "value": 0
                    },
                    {
                        "number": 64,
                        "time": 185.72841773750022,
                        "value": 1
                    },
                    {
                        "number": 64,
                        "time": 187.5470751000002,
                        "value": 0
                    },
                    {
                        "number": 64,
                        "time": 187.8196116500002,
                        "value": 1
                    },
                    {
                        "number": 64,
                        "time": 188.18910831875021,
                        "value": 0
                    },
                    {
                        "number": 64,
                        "time": 188.6896321750002,
                        "value": 1
                    },
                    {
                        "number": 64,
                        "time": 188.7079759812502,
                        "value": 0
                    },
                    {
                        "number": 64,
                        "time": 188.7263197875002,
                        "value": 1
                    },
                    {
                        "number": 64,
                        "time": 189.42076388125017,
                        "value": 0
                    },
                    {
                        "number": 64,
                        "time": 189.72212641250016,
                        "value": 1
                    },
                    {
                        "number": 64,
                        "time": 190.06541764375018,
                        "value": 0
                    },
                    {
                        "number": 64,
                        "time": 190.3379541937502,
                        "value": 0.5039370078740157
                    },
                    {
                        "number": 64,
                        "time": 190.3772623500002,
                        "value": 1
                    },
                    {
                        "number": 64,
                        "time": 190.7284152125002,
                        "value": 0
                    },
                    {
                        "number": 64,
                        "time": 191.45954691875022,
                        "value": 1
                    },
                    {
                        "number": 64,
                        "time": 192.6335505187502,
                        "value": 0
                    },
                    {
                        "number": 64,
                        "time": 195.09162055625018,
                        "value": 0.5039370078740157
                    },
                    {
                        "number": 64,
                        "time": 195.1125849062502,
                        "value": 0
                    },
                    {
                        "number": 64,
                        "time": 195.8253728062502,
                        "value": 0.5039370078740157
                    },
                    {
                        "number": 64,
                        "time": 195.8489577000002,
                        "value": 0
                    },
                    {
                        "number": 64,
                        "time": 196.1450791437502,
                        "value": 1
                    },
                    {
                        "number": 64,
                        "time": 199.51771895000013,
                        "value": 0
                    },
                    {
                        "number": 64,
                        "time": 199.74308571250012,
                        "value": 0.5039370078740157
                    },
                    {
                        "number": 64,
                        "time": 199.76405006250013,
                        "value": 1
                    },
                    {
                        "number": 64,
                        "time": 200.73365125000012,
                        "value": 0
                    },
                    {
                        "number": 64,
                        "time": 200.90660713750012,
                        "value": 0.7559055118110236
                    },
                    {
                        "number": 64,
                        "time": 200.92757148750013,
                        "value": 0
                    },
                    {
                        "number": 64,
                        "time": 200.94853583750015,
                        "value": 1
                    },
                    {
                        "number": 64,
                        "time": 202.07012856250012,
                        "value": 0
                    },
                    {
                        "number": 64,
                        "time": 202.27715151875012,
                        "value": 0.7559055118110236
                    },
                    {
                        "number": 64,
                        "time": 202.29811586875013,
                        "value": 0
                    },
                    {
                        "number": 64,
                        "time": 202.31908021875014,
                        "value": 1
                    },
                    {
                        "number": 64,
                        "time": 203.42757022500007,
                        "value": 0
                    },
                    {
                        "number": 64,
                        "time": 203.68438351250006,
                        "value": 1
                    },
                    {
                        "number": 64,
                        "time": 204.6015738250001,
                        "value": 0
                    },
                    {
                        "number": 64,
                        "time": 204.7954940625001,
                        "value": 1
                    },
                    {
                        "number": 64,
                        "time": 204.8164584125001,
                        "value": 0
                    },
                    {
                        "number": 64,
                        "time": 204.83742276250013,
                        "value": 1
                    },
                    {
                        "number": 64,
                        "time": 205.86991700000013,
                        "value": 0
                    },
                    {
                        "number": 64,
                        "time": 206.16341790000013,
                        "value": 1
                    },
                    {
                        "number": 64,
                        "time": 206.18438225000014,
                        "value": 0
                    },
                    {
                        "number": 64,
                        "time": 206.25775747500015,
                        "value": 1
                    },
                    {
                        "number": 64,
                        "time": 207.1068136500001,
                        "value": 0.5039370078740157
                    },
                    {
                        "number": 64,
                        "time": 207.1251574562501,
                        "value": 0
                    },
                    {
                        "number": 64,
                        "time": 207.2588051875001,
                        "value": 0.5039370078740157
                    },
                    {
                        "number": 64,
                        "time": 207.2797695375001,
                        "value": 1
                    },
                    {
                        "number": 64,
                        "time": 208.41970606875006,
                        "value": 0
                    },
                    {
                        "number": 64,
                        "time": 208.64245228750005,
                        "value": 0.5039370078740157
                    },
                    {
                        "number": 64,
                        "time": 208.66341663750006,
                        "value": 1
                    },
                    {
                        "number": 64,
                        "time": 209.6618438062501,
                        "value": 0
                    },
                    {
                        "number": 64,
                        "time": 209.9055543750001,
                        "value": 0.5039370078740157
                    },
                    {
                        "number": 64,
                        "time": 209.9265187250001,
                        "value": 1
                    },
                    {
                        "number": 64,
                        "time": 210.85681175625012,
                        "value": 0
                    },
                    {
                        "number": 64,
                        "time": 211.0795579750001,
                        "value": 1
                    },
                    {
                        "number": 64,
                        "time": 212.1513603687501,
                        "value": 0
                    },
                    {
                        "number": 64,
                        "time": 212.4107942000001,
                        "value": 0.5039370078740157
                    },
                    {
                        "number": 64,
                        "time": 212.43175855000013,
                        "value": 0
                    },
                    {
                        "number": 64,
                        "time": 212.45272290000014,
                        "value": 1
                    },
                    {
                        "number": 64,
                        "time": 213.39873919375017,
                        "value": 0
                    },
                    {
                        "number": 64,
                        "time": 213.77347695000017,
                        "value": 1
                    },
                    {
                        "number": 64,
                        "time": 214.46267995625018,
                        "value": 0
                    },
                    {
                        "number": 64,
                        "time": 214.63825638750018,
                        "value": 1
                    },
                    {
                        "number": 64,
                        "time": 215.9956980500002,
                        "value": 0
                    },
                    {
                        "number": 64,
                        "time": 216.18175665625017,
                        "value": 0.5039370078740157
                    },
                    {
                        "number": 64,
                        "time": 216.20534155000018,
                        "value": 1
                    },
                    {
                        "number": 64,
                        "time": 216.8971651000002,
                        "value": 0
                    },
                    {
                        "number": 64,
                        "time": 217.0098484812502,
                        "value": 1
                    },
                    {
                        "number": 64,
                        "time": 217.1906660000002,
                        "value": 0
                    },
                    {
                        "number": 64,
                        "time": 217.49989016250018,
                        "value": 1
                    },
                    {
                        "number": 64,
                        "time": 218.4013572125002,
                        "value": 0
                    },
                    {
                        "number": 64,
                        "time": 218.7682333375002,
                        "value": 1
                    },
                    {
                        "number": 64,
                        "time": 219.58060190000018,
                        "value": 0
                    },
                    {
                        "number": 64,
                        "time": 219.7561783312502,
                        "value": 1
                    },
                    {
                        "number": 64,
                        "time": 220.6917124500002,
                        "value": 0
                    },
                    {
                        "number": 64,
                        "time": 220.93018193125025,
                        "value": 1
                    },
                    {
                        "number": 64,
                        "time": 220.95114628125026,
                        "value": 0
                    },
                    {
                        "number": 64,
                        "time": 220.97211063125027,
                        "value": 1
                    },
                    {
                        "number": 64,
                        "time": 222.19066347500026,
                        "value": 0
                    },
                    {
                        "number": 64,
                        "time": 222.52347253125026,
                        "value": 0.5039370078740157
                    },
                    {
                        "number": 64,
                        "time": 222.54443688125028,
                        "value": 1
                    },
                    {
                        "number": 64,
                        "time": 223.44328338750026,
                        "value": 0
                    },
                    {
                        "number": 64,
                        "time": 223.73416374375026,
                        "value": 1
                    },
                    {
                        "number": 64,
                        "time": 224.69066221250026,
                        "value": 0
                    },
                    {
                        "number": 64,
                        "time": 224.90816734375025,
                        "value": 0.5039370078740157
                    },
                    {
                        "number": 64,
                        "time": 224.92913169375024,
                        "value": 0
                    },
                    {
                        "number": 64,
                        "time": 224.95009604375025,
                        "value": 1
                    },
                    {
                        "number": 64,
                        "time": 225.91445614375027,
                        "value": 0
                    },
                    {
                        "number": 64,
                        "time": 226.33898423125027,
                        "value": 0.5039370078740157
                    },
                    {
                        "number": 64,
                        "time": 226.35994858125028,
                        "value": 1
                    },
                    {
                        "number": 64,
                        "time": 230.77556480000024,
                        "value": 0
                    },
                    {
                        "number": 64,
                        "time": 230.97472612500025,
                        "value": 0.5039370078740157
                    },
                    {
                        "number": 64,
                        "time": 232.22996658125015,
                        "value": 0
                    },
                    {
                        "number": 64,
                        "time": 232.34527050625016,
                        "value": 0.7559055118110236
                    },
                    {
                        "number": 64,
                        "time": 232.36099376875015,
                        "value": 1
                    },
                    {
                        "number": 64,
                        "time": 233.59789041875013,
                        "value": 0
                    },
                    {
                        "number": 64,
                        "time": 233.77346685000012,
                        "value": 1
                    },
                    {
                        "number": 64,
                        "time": 234.79547891250016,
                        "value": 0
                    },
                    {
                        "number": 64,
                        "time": 235.06015383125015,
                        "value": 1
                    },
                    {
                        "number": 64,
                        "time": 238.5114099500002,
                        "value": 0
                    },
                    {
                        "number": 64,
                        "time": 238.8049108500002,
                        "value": 1
                    },
                    {
                        "number": 64,
                        "time": 239.7456860562502,
                        "value": 0
                    },
                    {
                        "number": 64,
                        "time": 240.0863567437502,
                        "value": 1
                    },
                    {
                        "number": 64,
                        "time": 243.63981406875024,
                        "value": 0
                    },
                    {
                        "number": 64,
                        "time": 243.84945756875024,
                        "value": 0.5039370078740157
                    },
                    {
                        "number": 64,
                        "time": 243.86780137500023,
                        "value": 0.7559055118110236
                    },
                    {
                        "number": 64,
                        "time": 243.88352463750022,
                        "value": 1
                    },
                    {
                        "number": 64,
                        "time": 246.16077715625022,
                        "value": 0
                    },
                    {
                        "number": 64,
                        "time": 246.4175904437502,
                        "value": 0.5039370078740157
                    },
                    {
                        "number": 64,
                        "time": 246.4333137062502,
                        "value": 0.7559055118110236
                    },
                    {
                        "number": 64,
                        "time": 246.4516575125002,
                        "value": 1
                    },
                    {
                        "number": 64,
                        "time": 248.57691849375016,
                        "value": 0
                    },
                    {
                        "number": 64,
                        "time": 248.74201275000016,
                        "value": 1
                    },
                    {
                        "number": 64,
                        "time": 250.48729488750013,
                        "value": 0
                    },
                    {
                        "number": 64,
                        "time": 250.5528084812501,
                        "value": 1
                    },
                    {
                        "number": 64,
                        "time": 250.5685317437501,
                        "value": 0
                    },
                    {
                        "number": 64,
                        "time": 250.62618370625012,
                        "value": 1
                    },
                    {
                        "number": 64,
                        "time": 251.10836375625013,
                        "value": 0
                    },
                    {
                        "number": 64,
                        "time": 251.49882477500012,
                        "value": 1
                    },
                    {
                        "number": 64,
                        "time": 252.3950507375001,
                        "value": 0
                    },
                    {
                        "number": 64,
                        "time": 252.5653860812501,
                        "value": 0.7559055118110236
                    },
                    {
                        "number": 64,
                        "time": 252.58372988750008,
                        "value": 0
                    },
                    {
                        "number": 64,
                        "time": 252.59945315000007,
                        "value": 1
                    },
                    {
                        "number": 64,
                        "time": 253.05280721875008,
                        "value": 0
                    },
                    {
                        "number": 64,
                        "time": 253.20741930000008,
                        "value": 1
                    },
                    {
                        "number": 64,
                        "time": 253.22314256250007,
                        "value": 0
                    },
                    {
                        "number": 64,
                        "time": 253.23886582500006,
                        "value": 1
                    },
                    {
                        "number": 64,
                        "time": 253.64505010625004,
                        "value": 0
                    },
                    {
                        "number": 64,
                        "time": 254.04337275625005,
                        "value": 1
                    },
                    {
                        "number": 64,
                        "time": 255.4820512750001,
                        "value": 0
                    },
                    {
                        "number": 64,
                        "time": 255.67073042500007,
                        "value": 0.7559055118110236
                    },
                    {
                        "number": 64,
                        "time": 255.68907423125006,
                        "value": 0
                    },
                    {
                        "number": 64,
                        "time": 255.70479749375005,
                        "value": 1
                    },
                    {
                        "number": 64,
                        "time": 256.1686337375001,
                        "value": 0
                    },
                    {
                        "number": 64,
                        "time": 256.4071032187501,
                        "value": 1
                    },
                    {
                        "number": 64,
                        "time": 256.79232315000013,
                        "value": 0
                    },
                    {
                        "number": 64,
                        "time": 256.91024761875013,
                        "value": 0.5039370078740157
                    },
                    {
                        "number": 64,
                        "time": 256.9259708812501,
                        "value": 1
                    },
                    {
                        "number": 64,
                        "time": 257.3583606000002,
                        "value": 0
                    },
                    {
                        "number": 64,
                        "time": 257.5155932250002,
                        "value": 1
                    },
                    {
                        "number": 64,
                        "time": 257.5313164875002,
                        "value": 0
                    },
                    {
                        "number": 64,
                        "time": 257.5549013812502,
                        "value": 1
                    },
                    {
                        "number": 64,
                        "time": 258.66601193125024,
                        "value": 0
                    },
                    {
                        "number": 64,
                        "time": 258.78917748750024,
                        "value": 0.5039370078740157
                    },
                    {
                        "number": 64,
                        "time": 258.82324455625024,
                        "value": 1
                    },
                    {
                        "number": 64,
                        "time": 268.4196757687503,
                        "value": 0
                    }
                ]
            },
            "id": 2,
            "name": " Grand Piano *samengevoegd",
            "channelNumber": 0,
            "isPercussion": false
        }
    ]
}