{
    "header": {
        "PPQ": 240,
        "bpm": 120,
        "timeSignature": [
            3,
            4
        ],
        "name": "@Ravel \"La valse\"                       Play by Katsuhiro Oguri"
    },
    "startTime": 0,
    "duration": 840.064583333352,
    "tracks": [
        {
            "startTime": 0,
            "duration": 0,
            "length": 0,
            "notes": [],
            "controlChanges": {},
            "id": 0,
            "name": "@Ravel \"La valse\"                       Play by Katsuhiro Oguri"
        },
        {
            "startTime": 4.00625,
            "duration": 742.2583333333519,
            "length": 5269,
            "notes": [
                {
                    "name": "E1",
                    "midi": 28,
                    "time": 4.00625,
                    "velocity": 0.2755905511811024,
                    "duration": 0.16875000000000018
                },
                {
                    "name": "F1",
                    "midi": 29,
                    "time": 4.0375,
                    "velocity": 0.1889763779527559,
                    "duration": 0.14374999999999982
                },
                {
                    "name": "G#1",
                    "midi": 32,
                    "time": 4.172916666666667,
                    "velocity": 0.3228346456692913,
                    "duration": 0.16458333333333286
                },
                {
                    "name": "E1",
                    "midi": 28,
                    "time": 4.366666666666666,
                    "velocity": 0.23622047244094488,
                    "duration": 0.17708333333333304
                },
                {
                    "name": "F1",
                    "midi": 29,
                    "time": 4.38125,
                    "velocity": 0.1732283464566929,
                    "duration": 0.14999999999999947
                },
                {
                    "name": "G#1",
                    "midi": 32,
                    "time": 4.479166666666666,
                    "velocity": 0.25196850393700787,
                    "duration": 0.1875
                },
                {
                    "name": "E1",
                    "midi": 28,
                    "time": 4.6812499999999995,
                    "velocity": 0.29133858267716534,
                    "duration": 0.17708333333333304
                },
                {
                    "name": "F1",
                    "midi": 29,
                    "time": 4.683333333333333,
                    "velocity": 0.25984251968503935,
                    "duration": 0.1729166666666666
                },
                {
                    "name": "G#1",
                    "midi": 32,
                    "time": 4.797916666666666,
                    "velocity": 0.2204724409448819,
                    "duration": 0.19583333333333375
                },
                {
                    "name": "E1",
                    "midi": 28,
                    "time": 5.012499999999999,
                    "velocity": 0.25196850393700787,
                    "duration": 0.1854166666666659
                },
                {
                    "name": "F1",
                    "midi": 29,
                    "time": 5.018749999999999,
                    "velocity": 0.2440944881889764,
                    "duration": 0.17708333333333304
                },
                {
                    "name": "G#1",
                    "midi": 32,
                    "time": 5.1604166666666655,
                    "velocity": 0.2992125984251969,
                    "duration": 0.16458333333333286
                },
                {
                    "name": "E1",
                    "midi": 28,
                    "time": 5.347916666666665,
                    "velocity": 0.18110236220472442,
                    "duration": 0.1729166666666666
                },
                {
                    "name": "F1",
                    "midi": 29,
                    "time": 5.381249999999998,
                    "velocity": 0.10236220472440945,
                    "duration": 0.10833333333333339
                },
                {
                    "name": "G#1",
                    "midi": 32,
                    "time": 5.464583333333331,
                    "velocity": 0.2283464566929134,
                    "duration": 0.18125000000000036
                },
                {
                    "name": "E1",
                    "midi": 28,
                    "time": 5.652083333333331,
                    "velocity": 0.2047244094488189,
                    "duration": 0.1729166666666666
                },
                {
                    "name": "G#1",
                    "midi": 32,
                    "time": 5.791666666666664,
                    "velocity": 0.29133858267716534,
                    "duration": 0.17916666666666625
                },
                {
                    "name": "E1",
                    "midi": 28,
                    "time": 5.9812499999999975,
                    "velocity": 0.2992125984251969,
                    "duration": 0.16250000000000053
                },
                {
                    "name": "G#1",
                    "midi": 32,
                    "time": 6.1166666666666645,
                    "velocity": 0.2283464566929134,
                    "duration": 0.17499999999999982
                },
                {
                    "name": "E1",
                    "midi": 28,
                    "time": 6.308333333333331,
                    "velocity": 0.18110236220472442,
                    "duration": 0.15833333333333321
                },
                {
                    "name": "G#1",
                    "midi": 32,
                    "time": 6.414583333333331,
                    "velocity": 0.2283464566929134,
                    "duration": 0.17499999999999982
                },
                {
                    "name": "E1",
                    "midi": 28,
                    "time": 6.604166666666664,
                    "velocity": 0.15748031496062992,
                    "duration": 0.16875000000000018
                },
                {
                    "name": "G#1",
                    "midi": 32,
                    "time": 6.714583333333331,
                    "velocity": 0.2755905511811024,
                    "duration": 0.15833333333333321
                },
                {
                    "name": "E1",
                    "midi": 28,
                    "time": 6.922916666666664,
                    "velocity": 0.16535433070866143,
                    "duration": 0.18333333333333357
                },
                {
                    "name": "G#1",
                    "midi": 32,
                    "time": 7.049999999999997,
                    "velocity": 0.29133858267716534,
                    "duration": 0.18125000000000036
                },
                {
                    "name": "E1",
                    "midi": 28,
                    "time": 7.254166666666664,
                    "velocity": 0.11811023622047244,
                    "duration": 0.18125000000000036
                },
                {
                    "name": "G#1",
                    "midi": 32,
                    "time": 7.3562499999999975,
                    "velocity": 0.23622047244094488,
                    "duration": 0.18333333333333357
                },
                {
                    "name": "E1",
                    "midi": 28,
                    "time": 7.558333333333331,
                    "velocity": 0.06299212598425197,
                    "duration": 0.19791666666666696
                },
                {
                    "name": "F1",
                    "midi": 29,
                    "time": 7.593749999999997,
                    "velocity": 0.07086614173228346,
                    "duration": 0.12083333333333357
                },
                {
                    "name": "G#1",
                    "midi": 32,
                    "time": 7.729166666666664,
                    "velocity": 0.23622047244094488,
                    "duration": 0.15208333333333357
                },
                {
                    "name": "E1",
                    "midi": 28,
                    "time": 7.920833333333332,
                    "velocity": 0.5196850393700787,
                    "duration": 0.15208333333333268
                },
                {
                    "name": "G#1",
                    "midi": 32,
                    "time": 8.027083333333332,
                    "velocity": 0.2755905511811024,
                    "duration": 0.21874999999999822
                },
                {
                    "name": "G#1",
                    "midi": 32,
                    "time": 8.393749999999997,
                    "velocity": 0.33858267716535434,
                    "duration": 0.1416666666666675
                },
                {
                    "name": "G#1",
                    "midi": 32,
                    "time": 8.685416666666665,
                    "velocity": 0.29133858267716534,
                    "duration": 0.2062500000000007
                },
                {
                    "name": "E1",
                    "midi": 28,
                    "time": 8.893749999999999,
                    "velocity": 0.5826771653543307,
                    "duration": 0.14791666666666714
                },
                {
                    "name": "G#1",
                    "midi": 32,
                    "time": 9.0125,
                    "velocity": 0.25196850393700787,
                    "duration": 0.19374999999999964
                },
                {
                    "name": "F1",
                    "midi": 29,
                    "time": 9.225,
                    "velocity": 0.2677165354330709,
                    "duration": 0.15208333333333357
                },
                {
                    "name": "G#1",
                    "midi": 32,
                    "time": 9.345833333333333,
                    "velocity": 0.3779527559055118,
                    "duration": 0.14583333333333393
                },
                {
                    "name": "F1",
                    "midi": 29,
                    "time": 9.510416666666668,
                    "velocity": 0.23622047244094488,
                    "duration": 0.14999999999999858
                },
                {
                    "name": "G#1",
                    "midi": 32,
                    "time": 9.614583333333334,
                    "velocity": 0.3228346456692913,
                    "duration": 0.1999999999999993
                },
                {
                    "name": "E1",
                    "midi": 28,
                    "time": 9.833333333333332,
                    "velocity": 0.5590551181102362,
                    "duration": 0.12916666666666465
                },
                {
                    "name": "G#1",
                    "midi": 32,
                    "time": 9.947916666666664,
                    "velocity": 0.25984251968503935,
                    "duration": 0.19583333333333286
                },
                {
                    "name": "F1",
                    "midi": 29,
                    "time": 10.147916666666664,
                    "velocity": 0.3858267716535433,
                    "duration": 0.15833333333333321
                },
                {
                    "name": "G#1",
                    "midi": 32,
                    "time": 10.28333333333333,
                    "velocity": 0.31496062992125984,
                    "duration": 0.16041666666666643
                },
                {
                    "name": "F1",
                    "midi": 29,
                    "time": 10.47083333333333,
                    "velocity": 0.14173228346456693,
                    "duration": 0.11666666666666714
                },
                {
                    "name": "G#1",
                    "midi": 32,
                    "time": 10.556249999999997,
                    "velocity": 0.2755905511811024,
                    "duration": 0.20624999999999893
                },
                {
                    "name": "E1",
                    "midi": 28,
                    "time": 10.768749999999995,
                    "velocity": 0.5826771653543307,
                    "duration": 0.13333333333333464
                },
                {
                    "name": "G#1",
                    "midi": 32,
                    "time": 10.885416666666663,
                    "velocity": 0.2755905511811024,
                    "duration": 0.20208333333333428
                },
                {
                    "name": "F1",
                    "midi": 29,
                    "time": 11.093749999999996,
                    "velocity": 0.3700787401574803,
                    "duration": 0.1374999999999993
                },
                {
                    "name": "G#1",
                    "midi": 32,
                    "time": 11.218749999999996,
                    "velocity": 0.3700787401574803,
                    "duration": 0.14583333333333215
                },
                {
                    "name": "F1",
                    "midi": 29,
                    "time": 11.404166666666661,
                    "velocity": 0.1968503937007874,
                    "duration": 0.09166666666666501
                },
                {
                    "name": "G#1",
                    "midi": 32,
                    "time": 11.502083333333326,
                    "velocity": 0.3779527559055118,
                    "duration": 0.09999999999999964
                },
                {
                    "name": "E1",
                    "midi": 28,
                    "time": 11.702083333333325,
                    "velocity": 0.5590551181102362,
                    "duration": 0.14583333333333393
                },
                {
                    "name": "G#1",
                    "midi": 32,
                    "time": 11.870833333333326,
                    "velocity": 0.25196850393700787,
                    "duration": 0.16249999999999964
                },
                {
                    "name": "F1",
                    "midi": 29,
                    "time": 12.031249999999993,
                    "velocity": 0.47244094488188976,
                    "duration": 0.16458333333333286
                },
                {
                    "name": "G#1",
                    "midi": 32,
                    "time": 12.19166666666666,
                    "velocity": 0.33858267716535434,
                    "duration": 0.12916666666666643
                },
                {
                    "name": "F2",
                    "midi": 41,
                    "time": 12.349999999999993,
                    "velocity": 0.5275590551181102,
                    "duration": 0.1395833333333325
                },
                {
                    "name": "G#1",
                    "midi": 32,
                    "time": 12.481249999999992,
                    "velocity": 0.5118110236220472,
                    "duration": 0.18333333333333357
                },
                {
                    "name": "E1",
                    "midi": 28,
                    "time": 12.643749999999992,
                    "velocity": 0.6299212598425197,
                    "duration": 0.17708333333333393
                },
                {
                    "name": "G#1",
                    "midi": 32,
                    "time": 12.77916666666666,
                    "velocity": 0.4251968503937008,
                    "duration": 0.14166666666666572
                },
                {
                    "name": "F1",
                    "midi": 29,
                    "time": 12.970833333333326,
                    "velocity": 0.47244094488188976,
                    "duration": 0.1687499999999993
                },
                {
                    "name": "G#1",
                    "midi": 32,
                    "time": 13.072916666666659,
                    "velocity": 0.41732283464566927,
                    "duration": 0.17499999999999893
                },
                {
                    "name": "F2",
                    "midi": 41,
                    "time": 13.281249999999991,
                    "velocity": 0.4881889763779528,
                    "duration": 0.12916666666666643
                },
                {
                    "name": "G#1",
                    "midi": 32,
                    "time": 13.404166666666658,
                    "velocity": 0.4566929133858268,
                    "duration": 0.1833333333333318
                },
                {
                    "name": "E1",
                    "midi": 28,
                    "time": 13.570833333333324,
                    "velocity": 0.5748031496062992,
                    "duration": 0.20416666666666572
                },
                {
                    "name": "G#1",
                    "midi": 32,
                    "time": 13.727083333333324,
                    "velocity": 0.3700787401574803,
                    "duration": 0.15624999999999822
                },
                {
                    "name": "F1",
                    "midi": 29,
                    "time": 13.910416666666656,
                    "velocity": 0.5039370078740157,
                    "duration": 0.18125000000000036
                },
                {
                    "name": "G#1",
                    "midi": 32,
                    "time": 14.022916666666656,
                    "velocity": 0.4330708661417323,
                    "duration": 0.15000000000000036
                },
                {
                    "name": "F2",
                    "midi": 41,
                    "time": 14.21249999999999,
                    "velocity": 0.3858267716535433,
                    "duration": 0.08958333333333357
                },
                {
                    "name": "G#1",
                    "midi": 32,
                    "time": 14.335416666666656,
                    "velocity": 0.4330708661417323,
                    "duration": 0.19791666666666607
                },
                {
                    "name": "E1",
                    "midi": 28,
                    "time": 14.583333333333323,
                    "velocity": 0.3700787401574803,
                    "duration": 0.22916666666666607
                },
                {
                    "name": "G#2",
                    "midi": 44,
                    "time": 14.583333333333323,
                    "velocity": 0.5275590551181102,
                    "duration": 0.34791666666666643
                },
                {
                    "name": "F2",
                    "midi": 41,
                    "time": 14.597916666666656,
                    "velocity": 0.3464566929133858,
                    "duration": 0.21250000000000036
                },
                {
                    "name": "G#1",
                    "midi": 32,
                    "time": 14.791666666666655,
                    "velocity": 0.4330708661417323,
                    "duration": 0.1437500000000007
                },
                {
                    "name": "D3",
                    "midi": 50,
                    "time": 15.002083333333323,
                    "velocity": 0.5826771653543307,
                    "duration": 0.22291666666666643
                },
                {
                    "name": "C3",
                    "midi": 48,
                    "time": 15.004166666666656,
                    "velocity": 0.6062992125984252,
                    "duration": 0.2875000000000014
                },
                {
                    "name": "F1",
                    "midi": 29,
                    "time": 15.008333333333322,
                    "velocity": 0.33858267716535434,
                    "duration": 0.23958333333333393
                },
                {
                    "name": "G#1",
                    "midi": 32,
                    "time": 15.112499999999988,
                    "velocity": 0.4409448818897638,
                    "duration": 0.15208333333333535
                },
                {
                    "name": "F2",
                    "midi": 41,
                    "time": 15.316666666666658,
                    "velocity": 0.28346456692913385,
                    "duration": 0.045833333333332504
                },
                {
                    "name": "G#1",
                    "midi": 32,
                    "time": 15.397916666666656,
                    "velocity": 0.5905511811023622,
                    "duration": 0.17083333333333428
                },
                {
                    "name": "G#2",
                    "midi": 44,
                    "time": 15.510416666666657,
                    "velocity": 0.6614173228346457,
                    "duration": 0.13750000000000107
                },
                {
                    "name": "F2",
                    "midi": 41,
                    "time": 15.529166666666658,
                    "velocity": 0.5590551181102362,
                    "duration": 0.06666666666666643
                },
                {
                    "name": "F1",
                    "midi": 29,
                    "time": 15.57499999999999,
                    "velocity": 0.16535433070866143,
                    "duration": 0.11458333333333393
                },
                {
                    "name": "E1",
                    "midi": 28,
                    "time": 15.691666666666658,
                    "velocity": 0.5590551181102362,
                    "duration": 0.22916666666666607
                },
                {
                    "name": "D3",
                    "midi": 50,
                    "time": 15.695833333333324,
                    "velocity": 0.6850393700787402,
                    "duration": 0.23958333333333215
                },
                {
                    "name": "C3",
                    "midi": 48,
                    "time": 15.702083333333324,
                    "velocity": 0.6614173228346457,
                    "duration": 0.2312499999999993
                },
                {
                    "name": "G#1",
                    "midi": 32,
                    "time": 15.889583333333324,
                    "velocity": 0.5196850393700787,
                    "duration": 0.11874999999999858
                },
                {
                    "name": "F1",
                    "midi": 29,
                    "time": 16.04374999999999,
                    "velocity": 0.5826771653543307,
                    "duration": 0.3187500000000014
                },
                {
                    "name": "G#1",
                    "midi": 32,
                    "time": 16.122916666666654,
                    "velocity": 0.6929133858267716,
                    "duration": 0.185416666666665
                },
                {
                    "name": "F3",
                    "midi": 53,
                    "time": 16.310416666666654,
                    "velocity": 0.6850393700787402,
                    "duration": 0.04375000000000284
                },
                {
                    "name": "G#3",
                    "midi": 56,
                    "time": 16.31249999999999,
                    "velocity": 0.7716535433070866,
                    "duration": 0.07083333333333286
                },
                {
                    "name": "F2",
                    "midi": 41,
                    "time": 16.354166666666657,
                    "velocity": 0.18110236220472442,
                    "duration": 0.09375
                },
                {
                    "name": "G#1",
                    "midi": 32,
                    "time": 16.449999999999992,
                    "velocity": 0.5669291338582677,
                    "duration": 0.1999999999999993
                },
                {
                    "name": "F1",
                    "midi": 29,
                    "time": 16.66249999999999,
                    "velocity": 0.2125984251968504,
                    "duration": 0.08958333333333357
                },
                {
                    "name": "E1",
                    "midi": 28,
                    "time": 16.729166666666657,
                    "velocity": 0.5826771653543307,
                    "duration": 0.22083333333333144
                },
                {
                    "name": "G#5",
                    "midi": 80,
                    "time": 16.741666666666656,
                    "velocity": 0.5354330708661418,
                    "duration": 0.13124999999999787
                },
                {
                    "name": "D5",
                    "midi": 74,
                    "time": 16.78124999999999,
                    "velocity": 0.3700787401574803,
                    "duration": 0.12291666666666501
                },
                {
                    "name": "G#4",
                    "midi": 68,
                    "time": 16.899999999999988,
                    "velocity": 0.5669291338582677,
                    "duration": 0.09166666666666856
                },
                {
                    "name": "G#1",
                    "midi": 32,
                    "time": 16.935416666666654,
                    "velocity": 0.44881889763779526,
                    "duration": 0.13750000000000284
                },
                {
                    "name": "G#5",
                    "midi": 80,
                    "time": 16.99999999999999,
                    "velocity": 0.5905511811023622,
                    "duration": 0.0833333333333357
                },
                {
                    "name": "D5",
                    "midi": 74,
                    "time": 17.01249999999999,
                    "velocity": 0.4015748031496063,
                    "duration": 0.09583333333333854
                },
                {
                    "name": "C5",
                    "midi": 72,
                    "time": 17.04999999999999,
                    "velocity": 0.03937007874015748,
                    "duration": 0.20208333333333783
                },
                {
                    "name": "F1",
                    "midi": 29,
                    "time": 17.09791666666666,
                    "velocity": 0.5354330708661418,
                    "duration": 0.2770833333333371
                },
                {
                    "name": "G#4",
                    "midi": 68,
                    "time": 17.110416666666662,
                    "velocity": 0.3700787401574803,
                    "duration": 0.05416666666666714
                },
                {
                    "name": "G#5",
                    "midi": 80,
                    "time": 17.158333333333328,
                    "velocity": 0.5669291338582677,
                    "duration": 0.07708333333333428
                },
                {
                    "name": "D5",
                    "midi": 74,
                    "time": 17.18333333333333,
                    "velocity": 0.5590551181102362,
                    "duration": 0.05208333333333215
                },
                {
                    "name": "G#1",
                    "midi": 32,
                    "time": 17.197916666666664,
                    "velocity": 0.5590551181102362,
                    "duration": 0.14999999999999858
                },
                {
                    "name": "G#4",
                    "midi": 68,
                    "time": 17.210416666666664,
                    "velocity": 0.48031496062992124,
                    "duration": 0.07499999999999929
                },
                {
                    "name": "F2",
                    "midi": 41,
                    "time": 17.40416666666666,
                    "velocity": 0.4251968503937008,
                    "duration": 0.12916666666666643
                },
                {
                    "name": "G#4",
                    "midi": 68,
                    "time": 17.472916666666663,
                    "velocity": 0.4094488188976378,
                    "duration": 0.11874999999999858
                },
                {
                    "name": "D4",
                    "midi": 62,
                    "time": 17.49791666666666,
                    "velocity": 0.2125984251968504,
                    "duration": 0.42708333333333215
                },
                {
                    "name": "G#1",
                    "midi": 32,
                    "time": 17.527083333333326,
                    "velocity": 0.5275590551181102,
                    "duration": 0.16250000000000142
                },
                {
                    "name": "G#3",
                    "midi": 56,
                    "time": 17.577083333333327,
                    "velocity": 0.5433070866141733,
                    "duration": 0.07708333333333428
                },
                {
                    "name": "G#4",
                    "midi": 68,
                    "time": 17.643749999999994,
                    "velocity": 0.1732283464566929,
                    "duration": 0.08125000000000071
                },
                {
                    "name": "F1",
                    "midi": 29,
                    "time": 17.681249999999995,
                    "velocity": 0.36220472440944884,
                    "duration": 0.13958333333333428
                },
                {
                    "name": "C4",
                    "midi": 60,
                    "time": 17.699999999999996,
                    "velocity": 0.03937007874015748,
                    "duration": 0.22499999999999787
                },
                {
                    "name": "G#3",
                    "midi": 56,
                    "time": 17.75833333333333,
                    "velocity": 0.25984251968503935,
                    "duration": 0.07083333333333286
                },
                {
                    "name": "E1",
                    "midi": 28,
                    "time": 17.804166666666664,
                    "velocity": 0.5039370078740157,
                    "duration": 0.2062499999999936
                },
                {
                    "name": "G#4",
                    "midi": 68,
                    "time": 17.83958333333333,
                    "velocity": 0.5118110236220472,
                    "duration": 0.06874999999999787
                },
                {
                    "name": "G#3",
                    "midi": 56,
                    "time": 17.899999999999995,
                    "velocity": 0.5118110236220472,
                    "duration": 0.08124999999999716
                },
                {
                    "name": "G#1",
                    "midi": 32,
                    "time": 18.04999999999999,
                    "velocity": 0.4645669291338583,
                    "duration": 0.23124999999999574
                },
                {
                    "name": "F1",
                    "midi": 29,
                    "time": 18.110416666666655,
                    "velocity": 0.30708661417322836,
                    "duration": 0.17708333333333215
                },
                {
                    "name": "G#3",
                    "midi": 56,
                    "time": 18.15833333333332,
                    "velocity": 0.6377952755905512,
                    "duration": 0.09791666666666643
                },
                {
                    "name": "D3",
                    "midi": 50,
                    "time": 18.174999999999986,
                    "velocity": 0.3543307086614173,
                    "duration": 0.04791666666666572
                },
                {
                    "name": "C3",
                    "midi": 48,
                    "time": 18.249999999999986,
                    "velocity": 0.31496062992125984,
                    "duration": 0.0520833333333357
                },
                {
                    "name": "F2",
                    "midi": 41,
                    "time": 18.316666666666656,
                    "velocity": 0.25196850393700787,
                    "duration": 0.1145833333333357
                },
                {
                    "name": "G#3",
                    "midi": 56,
                    "time": 18.31874999999999,
                    "velocity": 0.29133858267716534,
                    "duration": 0.07083333333333286
                },
                {
                    "name": "D3",
                    "midi": 50,
                    "time": 18.33124999999999,
                    "velocity": 0.33070866141732286,
                    "duration": 0.36875000000000924
                },
                {
                    "name": "C3",
                    "midi": 48,
                    "time": 18.385416666666657,
                    "velocity": 0.4330708661417323,
                    "duration": 0.09166666666666856
                },
                {
                    "name": "G#1",
                    "midi": 32,
                    "time": 18.433333333333326,
                    "velocity": 0.3858267716535433,
                    "duration": 0.158333333333335
                },
                {
                    "name": "G#3",
                    "midi": 56,
                    "time": 18.464583333333326,
                    "velocity": 0.1732283464566929,
                    "duration": 0.08749999999999858
                },
                {
                    "name": "C3",
                    "midi": 48,
                    "time": 18.53749999999999,
                    "velocity": 0.23622047244094488,
                    "duration": 0.21458333333334068
                },
                {
                    "name": "F1",
                    "midi": 29,
                    "time": 18.58541666666666,
                    "velocity": 0.3937007874015748,
                    "duration": 0.2000000000000064
                },
                {
                    "name": "G#3",
                    "midi": 56,
                    "time": 18.624999999999996,
                    "velocity": 0.12598425196850394,
                    "duration": 0.07083333333333641
                },
                {
                    "name": "E1",
                    "midi": 28,
                    "time": 18.74583333333333,
                    "velocity": 0.6377952755905512,
                    "duration": 0.2083333333333357
                },
                {
                    "name": "G#1",
                    "midi": 32,
                    "time": 18.93125,
                    "velocity": 0.36220472440944884,
                    "duration": 0.15208333333333357
                },
                {
                    "name": "D3",
                    "midi": 50,
                    "time": 19.06458333333333,
                    "velocity": 0.5826771653543307,
                    "duration": 0.18749999999999645
                },
                {
                    "name": "C3",
                    "midi": 48,
                    "time": 19.083333333333332,
                    "velocity": 0.6141732283464567,
                    "duration": 0.2833333333333279
                },
                {
                    "name": "F1",
                    "midi": 29,
                    "time": 19.099999999999998,
                    "velocity": 0.47244094488188976,
                    "duration": 0.2562499999999943
                },
                {
                    "name": "G#1",
                    "midi": 32,
                    "time": 19.212499999999995,
                    "velocity": 0.33070866141732286,
                    "duration": 0.12708333333333144
                },
                {
                    "name": "F2",
                    "midi": 41,
                    "time": 19.418749999999992,
                    "velocity": 0.5196850393700787,
                    "duration": 0.1687499999999993
                },
                {
                    "name": "E2",
                    "midi": 40,
                    "time": 19.420833333333327,
                    "velocity": 0.6062992125984252,
                    "duration": 0.16249999999999787
                },
                {
                    "name": "G#1",
                    "midi": 32,
                    "time": 19.527083333333326,
                    "velocity": 0.44881889763779526,
                    "duration": 0.19166666666666643
                },
                {
                    "name": "E1",
                    "midi": 28,
                    "time": 19.731249999999992,
                    "velocity": 0.5511811023622047,
                    "duration": 0.1875000000000071
                },
                {
                    "name": "F2",
                    "midi": 41,
                    "time": 19.735416666666662,
                    "velocity": 0.6299212598425197,
                    "duration": 0.16250000000000142
                },
                {
                    "name": "G#2",
                    "midi": 44,
                    "time": 19.737499999999997,
                    "velocity": 0.7007874015748031,
                    "duration": 0.252083333333335
                },
                {
                    "name": "G#1",
                    "midi": 32,
                    "time": 19.904166666666665,
                    "velocity": 0.47244094488188976,
                    "duration": 0.127083333333335
                },
                {
                    "name": "F1",
                    "midi": 29,
                    "time": 20.0625,
                    "velocity": 0.5433070866141733,
                    "duration": 0.27916666666666856
                },
                {
                    "name": "G#1",
                    "midi": 32,
                    "time": 20.15625,
                    "velocity": 0.5905511811023622,
                    "duration": 0.2083333333333357
                },
                {
                    "name": "C#3",
                    "midi": 49,
                    "time": 20.329166666666666,
                    "velocity": 0.7480314960629921,
                    "duration": 0.1062500000000064
                },
                {
                    "name": "B2",
                    "midi": 47,
                    "time": 20.335416666666667,
                    "velocity": 0.6850393700787402,
                    "duration": 0.08125000000000426
                },
                {
                    "name": "F2",
                    "midi": 41,
                    "time": 20.3625,
                    "velocity": 0.4645669291338583,
                    "duration": 0.11875000000000568
                },
                {
                    "name": "G#1",
                    "midi": 32,
                    "time": 20.481250000000006,
                    "velocity": 0.5905511811023622,
                    "duration": 0.16458333333333286
                },
                {
                    "name": "E1",
                    "midi": 28,
                    "time": 20.610416666666673,
                    "velocity": 0.7401574803149606,
                    "duration": 0.1750000000000007
                },
                {
                    "name": "G#1",
                    "midi": 32,
                    "time": 20.772916666666674,
                    "velocity": 0.4881889763779528,
                    "duration": 0.12708333333333144
                },
                {
                    "name": "C#3",
                    "midi": 49,
                    "time": 20.912500000000005,
                    "velocity": 0.7244094488188977,
                    "duration": 0.06666666666666643
                },
                {
                    "name": "B2",
                    "midi": 47,
                    "time": 20.91666666666667,
                    "velocity": 0.6062992125984252,
                    "duration": 0.04583333333333428
                },
                {
                    "name": "F1",
                    "midi": 29,
                    "time": 20.950000000000006,
                    "velocity": 0.47244094488188976,
                    "duration": 0.3291666666666657
                },
                {
                    "name": "G#1",
                    "midi": 32,
                    "time": 21.056250000000006,
                    "velocity": 0.5748031496062992,
                    "duration": 0.17291666666666572
                },
                {
                    "name": "F4",
                    "midi": 65,
                    "time": 21.250000000000004,
                    "velocity": 0.8346456692913385,
                    "duration": 0.06875000000000142
                },
                {
                    "name": "F3",
                    "midi": 53,
                    "time": 21.25416666666667,
                    "velocity": 0.7716535433070866,
                    "duration": 0.04166666666666785
                },
                {
                    "name": "F2",
                    "midi": 41,
                    "time": 21.277083333333337,
                    "velocity": 0.30708661417322836,
                    "duration": 0.1166666666666707
                },
                {
                    "name": "G#1",
                    "midi": 32,
                    "time": 21.391666666666673,
                    "velocity": 0.5511811023622047,
                    "duration": 0.19791666666666785
                },
                {
                    "name": "E1",
                    "midi": 28,
                    "time": 21.579166666666673,
                    "velocity": 0.5118110236220472,
                    "duration": 0.17291666666666927
                },
                {
                    "name": "B3",
                    "midi": 59,
                    "time": 21.585416666666674,
                    "velocity": 0.7165354330708661,
                    "duration": 0.13958333333333428
                },
                {
                    "name": "G#1",
                    "midi": 32,
                    "time": 21.766666666666676,
                    "velocity": 0.36220472440944884,
                    "duration": 0.11874999999999858
                },
                {
                    "name": "C#4",
                    "midi": 61,
                    "time": 21.77500000000001,
                    "velocity": 0.5590551181102362,
                    "duration": 0.07499999999999929
                },
                {
                    "name": "B3",
                    "midi": 59,
                    "time": 21.88125000000001,
                    "velocity": 0.2047244094488189,
                    "duration": 0.05208333333333215
                },
                {
                    "name": "F1",
                    "midi": 29,
                    "time": 21.92083333333334,
                    "velocity": 0.4566929133858268,
                    "duration": 0.1770833333333357
                },
                {
                    "name": "C#4",
                    "midi": 61,
                    "time": 21.925000000000008,
                    "velocity": 0.5984251968503937,
                    "duration": 0.07708333333333428
                },
                {
                    "name": "G#1",
                    "midi": 32,
                    "time": 22.008333333333344,
                    "velocity": 0.5118110236220472,
                    "duration": 0.12916666666666643
                },
                {
                    "name": "B3",
                    "midi": 59,
                    "time": 22.01875000000001,
                    "velocity": 0.4094488188976378,
                    "duration": 0.2083333333333357
                },
                {
                    "name": "C#4",
                    "midi": 61,
                    "time": 22.07291666666668,
                    "velocity": 0.5984251968503937,
                    "duration": 0.07916666666666572
                },
                {
                    "name": "F2",
                    "midi": 41,
                    "time": 22.179166666666678,
                    "velocity": 0.36220472440944884,
                    "duration": 0.10000000000000497
                },
                {
                    "name": "C#4",
                    "midi": 61,
                    "time": 22.212500000000013,
                    "velocity": 0.6299212598425197,
                    "duration": 0.08125000000000426
                },
                {
                    "name": "G#1",
                    "midi": 32,
                    "time": 22.26458333333335,
                    "velocity": 0.4881889763779528,
                    "duration": 0.15208333333333357
                },
                {
                    "name": "B3",
                    "midi": 59,
                    "time": 22.279166666666683,
                    "velocity": 0.36220472440944884,
                    "duration": 0.5645833333333314
                },
                {
                    "name": "C#4",
                    "midi": 61,
                    "time": 22.34583333333335,
                    "velocity": 0.4015748031496063,
                    "duration": 0.41249999999999787
                },
                {
                    "name": "F1",
                    "midi": 29,
                    "time": 22.425000000000015,
                    "velocity": 0.30708661417322836,
                    "duration": 0.14166666666666572
                },
                {
                    "name": "E1",
                    "midi": 28,
                    "time": 22.543750000000014,
                    "velocity": 0.5433070866141733,
                    "duration": 0.18125000000000213
                },
                {
                    "name": "G#1",
                    "midi": 32,
                    "time": 22.74166666666668,
                    "velocity": 0.33858267716535434,
                    "duration": 0.11458333333333215
                },
                {
                    "name": "F1",
                    "midi": 29,
                    "time": 22.875000000000014,
                    "velocity": 0.47244094488188976,
                    "duration": 0.22083333333333144
                },
                {
                    "name": "G#1",
                    "midi": 32,
                    "time": 22.98541666666668,
                    "velocity": 0.4094488188976378,
                    "duration": 0.13333333333333286
                },
                {
                    "name": "F2",
                    "midi": 41,
                    "time": 23.17291666666668,
                    "velocity": 0.23622047244094488,
                    "duration": 0.08333333333333215
                },
                {
                    "name": "G#1",
                    "midi": 32,
                    "time": 23.285416666666677,
                    "velocity": 0.44881889763779526,
                    "duration": 0.18125000000000213
                },
                {
                    "name": "E1",
                    "midi": 28,
                    "time": 23.45625000000001,
                    "velocity": 0.6062992125984252,
                    "duration": 0.15416666666666856
                },
                {
                    "name": "G#1",
                    "midi": 32,
                    "time": 23.637500000000014,
                    "velocity": 0.33070866141732286,
                    "duration": 0.14166666666666572
                },
                {
                    "name": "F1",
                    "midi": 29,
                    "time": 23.814583333333346,
                    "velocity": 0.4251968503937008,
                    "duration": 0.1750000000000007
                },
                {
                    "name": "G#1",
                    "midi": 32,
                    "time": 23.92291666666668,
                    "velocity": 0.3937007874015748,
                    "duration": 0.12916666666666643
                },
                {
                    "name": "G#1",
                    "midi": 32,
                    "time": 24.243750000000013,
                    "velocity": 0.3937007874015748,
                    "duration": 0.16250000000000142
                },
                {
                    "name": "E1",
                    "midi": 28,
                    "time": 24.406250000000014,
                    "velocity": 0.5748031496062992,
                    "duration": 0.13541666666666785
                },
                {
                    "name": "G#1",
                    "midi": 32,
                    "time": 24.568750000000016,
                    "velocity": 0.3228346456692913,
                    "duration": 0.1374999999999993
                },
                {
                    "name": "F1",
                    "midi": 29,
                    "time": 24.75208333333335,
                    "velocity": 0.3937007874015748,
                    "duration": 0.25624999999999787
                },
                {
                    "name": "G#1",
                    "midi": 32,
                    "time": 24.843750000000014,
                    "velocity": 0.48031496062992124,
                    "duration": 0.14166666666666572
                },
                {
                    "name": "G#1",
                    "midi": 32,
                    "time": 25.187500000000014,
                    "velocity": 0.2677165354330709,
                    "duration": 0.14791666666666714
                },
                {
                    "name": "E1",
                    "midi": 28,
                    "time": 25.34791666666668,
                    "velocity": 0.44881889763779526,
                    "duration": 0.1458333333333357
                },
                {
                    "name": "G#1",
                    "midi": 32,
                    "time": 25.500000000000018,
                    "velocity": 0.3228346456692913,
                    "duration": 0.158333333333335
                },
                {
                    "name": "F1",
                    "midi": 29,
                    "time": 25.677083333333353,
                    "velocity": 0.4330708661417323,
                    "duration": 0.24583333333333357
                },
                {
                    "name": "G#1",
                    "midi": 32,
                    "time": 25.820833333333354,
                    "velocity": 0.2677165354330709,
                    "duration": 0.13541666666666785
                },
                {
                    "name": "G#1",
                    "midi": 32,
                    "time": 26.131250000000023,
                    "velocity": 0.2992125984251969,
                    "duration": 0.185416666666665
                },
                {
                    "name": "G#2",
                    "midi": 44,
                    "time": 26.318750000000023,
                    "velocity": 0.5275590551181102,
                    "duration": 0.3020833333333357
                },
                {
                    "name": "F2",
                    "midi": 41,
                    "time": 26.318750000000023,
                    "velocity": 0.3700787401574803,
                    "duration": 0.2062500000000007
                },
                {
                    "name": "E1",
                    "midi": 28,
                    "time": 26.32916666666669,
                    "velocity": 0.16535433070866143,
                    "duration": 0.1750000000000007
                },
                {
                    "name": "G#1",
                    "midi": 32,
                    "time": 26.512500000000024,
                    "velocity": 0.3464566929133858,
                    "duration": 0.13125000000000142
                },
                {
                    "name": "F1",
                    "midi": 29,
                    "time": 26.681250000000027,
                    "velocity": 0.4409448818897638,
                    "duration": 0.23750000000000426
                },
                {
                    "name": "A#2",
                    "midi": 46,
                    "time": 26.691666666666695,
                    "velocity": 0.4566929133858268,
                    "duration": 0.3708333333333371
                },
                {
                    "name": "D3",
                    "midi": 50,
                    "time": 26.69375000000003,
                    "velocity": 0.4330708661417323,
                    "duration": 0.3833333333333364
                },
                {
                    "name": "G#1",
                    "midi": 32,
                    "time": 26.78750000000003,
                    "velocity": 0.4094488188976378,
                    "duration": 0.1437500000000007
                },
                {
                    "name": "G#1",
                    "midi": 32,
                    "time": 27.070833333333365,
                    "velocity": 0.5669291338582677,
                    "duration": 0.15625
                },
                {
                    "name": "G#2",
                    "midi": 44,
                    "time": 27.152083333333366,
                    "velocity": 0.6456692913385826,
                    "duration": 0.12083333333333357
                },
                {
                    "name": "F2",
                    "midi": 41,
                    "time": 27.1541666666667,
                    "velocity": 0.5984251968503937,
                    "duration": 0.06041666666666501
                },
                {
                    "name": "E1",
                    "midi": 28,
                    "time": 27.283333333333367,
                    "velocity": 0.4881889763779528,
                    "duration": 0.19166666666666998
                },
                {
                    "name": "D3",
                    "midi": 50,
                    "time": 27.316666666666702,
                    "velocity": 0.6692913385826772,
                    "duration": 0.21458333333333712
                },
                {
                    "name": "A#2",
                    "midi": 46,
                    "time": 27.318750000000037,
                    "velocity": 0.6929133858267716,
                    "duration": 0.189583333333335
                },
                {
                    "name": "G#1",
                    "midi": 32,
                    "time": 27.468750000000036,
                    "velocity": 0.47244094488188976,
                    "duration": 0.11875000000000213
                },
                {
                    "name": "F1",
                    "midi": 29,
                    "time": 27.610416666666705,
                    "velocity": 0.6141732283464567,
                    "duration": 0.32291666666666785
                },
                {
                    "name": "G#1",
                    "midi": 32,
                    "time": 27.691666666666706,
                    "velocity": 0.6456692913385826,
                    "duration": 0.20833333333333215
                },
                {
                    "name": "G#3",
                    "midi": 56,
                    "time": 27.89583333333337,
                    "velocity": 0.7637795275590551,
                    "duration": 0.05000000000000071
                },
                {
                    "name": "A#3",
                    "midi": 58,
                    "time": 27.90625000000004,
                    "velocity": 0.7165354330708661,
                    "duration": 0.05208333333333215
                },
                {
                    "name": "F2",
                    "midi": 41,
                    "time": 27.91250000000004,
                    "velocity": 0.4881889763779528,
                    "duration": 0.11249999999999716
                },
                {
                    "name": "G#1",
                    "midi": 32,
                    "time": 28.016666666666705,
                    "velocity": 0.5196850393700787,
                    "duration": 0.18124999999999858
                },
                {
                    "name": "F1",
                    "midi": 29,
                    "time": 28.143750000000036,
                    "velocity": 0.4330708661417323,
                    "duration": 0.16875000000000284
                },
                {
                    "name": "E1",
                    "midi": 28,
                    "time": 28.279166666666704,
                    "velocity": 0.6299212598425197,
                    "duration": 0.21041666666666714
                },
                {
                    "name": "A#5",
                    "midi": 82,
                    "time": 28.297916666666705,
                    "velocity": 0.7480314960629921,
                    "duration": 0.15416666666666856
                },
                {
                    "name": "D5",
                    "midi": 74,
                    "time": 28.314583333333374,
                    "velocity": 0.6220472440944882,
                    "duration": 0.08125000000000071
                },
                {
                    "name": "C#5",
                    "midi": 73,
                    "time": 28.32916666666671,
                    "velocity": 0.4251968503937008,
                    "duration": 0.04791666666666572
                },
                {
                    "name": "G#5",
                    "midi": 80,
                    "time": 28.35000000000004,
                    "velocity": 0.48031496062992124,
                    "duration": 0.11041666666666572
                },
                {
                    "name": "C#5",
                    "midi": 73,
                    "time": 28.48125000000004,
                    "velocity": 0.5118110236220472,
                    "duration": 0.05833333333333357
                },
                {
                    "name": "F1",
                    "midi": 29,
                    "time": 28.516666666666705,
                    "velocity": 0.49606299212598426,
                    "duration": 0.2270833333333364
                },
                {
                    "name": "D5",
                    "midi": 74,
                    "time": 28.529166666666704,
                    "velocity": 0.5275590551181102,
                    "duration": 0.127083333333335
                },
                {
                    "name": "G#5",
                    "midi": 80,
                    "time": 28.547916666666705,
                    "velocity": 0.3464566929133858,
                    "duration": 0.05208333333333215
                },
                {
                    "name": "A#5",
                    "midi": 82,
                    "time": 28.56250000000004,
                    "velocity": 0.30708661417322836,
                    "duration": 0.04374999999999929
                },
                {
                    "name": "G#1",
                    "midi": 32,
                    "time": 28.591666666666704,
                    "velocity": 0.5590551181102362,
                    "duration": 0.16250000000000497
                },
                {
                    "name": "C#5",
                    "midi": 73,
                    "time": 28.61458333333337,
                    "velocity": 0.5039370078740157,
                    "duration": 0.07291666666666785
                },
                {
                    "name": "A#5",
                    "midi": 82,
                    "time": 28.67708333333337,
                    "velocity": 0.5748031496062992,
                    "duration": 0.0854166666666707
                },
                {
                    "name": "G#5",
                    "midi": 80,
                    "time": 28.69375000000004,
                    "velocity": 0.7165354330708661,
                    "duration": 0.08541666666666714
                },
                {
                    "name": "D5",
                    "midi": 74,
                    "time": 28.72500000000004,
                    "velocity": 0.5196850393700787,
                    "duration": 0.06041666666666856
                },
                {
                    "name": "C#5",
                    "midi": 73,
                    "time": 28.741666666666706,
                    "velocity": 0.5433070866141733,
                    "duration": 0.06666666666666998
                },
                {
                    "name": "F2",
                    "midi": 41,
                    "time": 28.779166666666708,
                    "velocity": 0.5511811023622047,
                    "duration": 0.1437500000000007
                },
                {
                    "name": "G#1",
                    "midi": 32,
                    "time": 28.883333333333375,
                    "velocity": 0.5354330708661418,
                    "duration": 0.16666666666666785
                },
                {
                    "name": "D4",
                    "midi": 62,
                    "time": 28.97500000000004,
                    "velocity": 0.7086614173228346,
                    "duration": 0.03958333333333286
                },
                {
                    "name": "A#4",
                    "midi": 70,
                    "time": 28.98750000000004,
                    "velocity": 0.6062992125984252,
                    "duration": 0.09583333333333854
                },
                {
                    "name": "G#4",
                    "midi": 68,
                    "time": 29.020833333333375,
                    "velocity": 0.5669291338582677,
                    "duration": 0.06458333333333854
                },
                {
                    "name": "F1",
                    "midi": 29,
                    "time": 29.03750000000004,
                    "velocity": 0.30708661417322836,
                    "duration": 0.23750000000001137
                },
                {
                    "name": "C#4",
                    "midi": 61,
                    "time": 29.039583333333375,
                    "velocity": 0.4251968503937008,
                    "duration": 0.10208333333333641
                },
                {
                    "name": "A#4",
                    "midi": 70,
                    "time": 29.18333333333338,
                    "velocity": 0.5511811023622047,
                    "duration": 0.12916666666667354
                },
                {
                    "name": "G#4",
                    "midi": 68,
                    "time": 29.18958333333338,
                    "velocity": 0.6141732283464567,
                    "duration": 0.13125000000000497
                },
                {
                    "name": "G#1",
                    "midi": 32,
                    "time": 29.20000000000005,
                    "velocity": 0.3543307086614173,
                    "duration": 0.14375000000000426
                },
                {
                    "name": "C#4",
                    "midi": 61,
                    "time": 29.272916666666717,
                    "velocity": 0.5669291338582677,
                    "duration": 0.07083333333333641
                },
                {
                    "name": "D4",
                    "midi": 62,
                    "time": 29.277083333333387,
                    "velocity": 0.47244094488188976,
                    "duration": 0.08125000000000071
                },
                {
                    "name": "E1",
                    "midi": 28,
                    "time": 29.31666666666672,
                    "velocity": 0.5354330708661418,
                    "duration": 0.16250000000000142
                },
                {
                    "name": "F1",
                    "midi": 29,
                    "time": 29.49166666666672,
                    "velocity": 0.41732283464566927,
                    "duration": 0.19791666666666785
                },
                {
                    "name": "G#1",
                    "midi": 32,
                    "time": 29.625000000000053,
                    "velocity": 0.5275590551181102,
                    "duration": 0.12083333333333357
                },
                {
                    "name": "A#3",
                    "midi": 58,
                    "time": 29.64166666666672,
                    "velocity": 0.6929133858267716,
                    "duration": 0.1458333333333357
                },
                {
                    "name": "D3",
                    "midi": 50,
                    "time": 29.643750000000054,
                    "velocity": 0.6299212598425197,
                    "duration": 0.07499999999999929
                },
                {
                    "name": "G#3",
                    "midi": 56,
                    "time": 29.675000000000054,
                    "velocity": 0.5511811023622047,
                    "duration": 0.2270833333333364
                },
                {
                    "name": "F2",
                    "midi": 41,
                    "time": 29.793750000000056,
                    "velocity": 0.2047244094488189,
                    "duration": 0.08958333333333357
                },
                {
                    "name": "C#3",
                    "midi": 49,
                    "time": 29.806250000000055,
                    "velocity": 0.5905511811023622,
                    "duration": 0.1145833333333357
                },
                {
                    "name": "G#1",
                    "midi": 32,
                    "time": 29.881250000000055,
                    "velocity": 0.3543307086614173,
                    "duration": 0.06666666666666998
                },
                {
                    "name": "A#3",
                    "midi": 58,
                    "time": 30.01250000000006,
                    "velocity": 0.03937007874015748,
                    "duration": 0.09375
                },
                {
                    "name": "G#3",
                    "midi": 56,
                    "time": 30.01250000000006,
                    "velocity": 0.48031496062992124,
                    "duration": 0.11041666666666572
                },
                {
                    "name": "D3",
                    "midi": 50,
                    "time": 30.027083333333394,
                    "velocity": 0.03937007874015748,
                    "duration": 0.11666666666666359
                },
                {
                    "name": "G#1",
                    "midi": 32,
                    "time": 30.04375000000006,
                    "velocity": 0.23622047244094488,
                    "duration": 0.14583333333333215
                },
                {
                    "name": "C#3",
                    "midi": 49,
                    "time": 30.08750000000006,
                    "velocity": 0.08661417322834646,
                    "duration": 0.06458333333333144
                },
                {
                    "name": "E1",
                    "midi": 28,
                    "time": 30.20208333333339,
                    "velocity": 0.6850393700787402,
                    "duration": 0.1875
                },
                {
                    "name": "G#1",
                    "midi": 32,
                    "time": 30.335416666666724,
                    "velocity": 0.33858267716535434,
                    "duration": 0.13541666666666785
                },
                {
                    "name": "D3",
                    "midi": 50,
                    "time": 30.497916666666725,
                    "velocity": 0.44881889763779526,
                    "duration": 0.6104166666666693
                },
                {
                    "name": "F1",
                    "midi": 29,
                    "time": 30.504166666666727,
                    "velocity": 0.3543307086614173,
                    "duration": 0.6416666666666693
                },
                {
                    "name": "F3",
                    "midi": 53,
                    "time": 30.520833333333393,
                    "velocity": 0.2125984251968504,
                    "duration": 0.4583333333333357
                },
                {
                    "name": "G#1",
                    "midi": 32,
                    "time": 30.629166666666727,
                    "velocity": 0.3700787401574803,
                    "duration": 0.16041666666666643
                },
                {
                    "name": "G#2",
                    "midi": 44,
                    "time": 30.845833333333392,
                    "velocity": 0.48031496062992124,
                    "duration": 0.23541666666666927
                },
                {
                    "name": "A#2",
                    "midi": 46,
                    "time": 30.860416666666726,
                    "velocity": 0.5039370078740157,
                    "duration": 0.24791666666666856
                },
                {
                    "name": "G#1",
                    "midi": 32,
                    "time": 30.943750000000062,
                    "velocity": 0.41732283464566927,
                    "duration": 0.21875000000000355
                },
                {
                    "name": "E1",
                    "midi": 28,
                    "time": 31.14791666666673,
                    "velocity": 0.5590551181102362,
                    "duration": 0.19375000000000497
                },
                {
                    "name": "B2",
                    "midi": 47,
                    "time": 31.156250000000064,
                    "velocity": 0.6614173228346457,
                    "duration": 0.3562500000000064
                },
                {
                    "name": "G2",
                    "midi": 43,
                    "time": 31.172916666666733,
                    "velocity": 0.5196850393700787,
                    "duration": 0.2083333333333357
                },
                {
                    "name": "G#1",
                    "midi": 32,
                    "time": 31.331250000000068,
                    "velocity": 0.5354330708661418,
                    "duration": 0.13541666666666785
                },
                {
                    "name": "F1",
                    "midi": 29,
                    "time": 31.47500000000007,
                    "velocity": 0.5590551181102362,
                    "duration": 0.47291666666667354
                },
                {
                    "name": "G#1",
                    "midi": 32,
                    "time": 31.55625000000007,
                    "velocity": 0.5275590551181102,
                    "duration": 0.18750000000000355
                },
                {
                    "name": "G3",
                    "midi": 55,
                    "time": 31.73125000000007,
                    "velocity": 0.6535433070866141,
                    "duration": 0.09791666666666998
                },
                {
                    "name": "F3",
                    "midi": 53,
                    "time": 31.733333333333405,
                    "velocity": 0.7086614173228346,
                    "duration": 0.09375
                },
                {
                    "name": "F2",
                    "midi": 41,
                    "time": 31.756250000000072,
                    "velocity": 0.47244094488188976,
                    "duration": 0.10625000000000284
                },
                {
                    "name": "G#1",
                    "midi": 32,
                    "time": 31.86666666666674,
                    "velocity": 0.5275590551181102,
                    "duration": 0.18749999999999645
                },
                {
                    "name": "E1",
                    "midi": 28,
                    "time": 32.02708333333341,
                    "velocity": 0.7244094488188977,
                    "duration": 0.16458333333333997
                },
                {
                    "name": "G#1",
                    "midi": 32,
                    "time": 32.179166666666745,
                    "velocity": 0.5118110236220472,
                    "duration": 0.12916666666666998
                },
                {
                    "name": "G3",
                    "midi": 55,
                    "time": 32.32083333333342,
                    "velocity": 0.7637795275590551,
                    "duration": 0.07083333333333286
                },
                {
                    "name": "F3",
                    "midi": 53,
                    "time": 32.32708333333342,
                    "velocity": 0.7007874015748031,
                    "duration": 0.06875000000000142
                },
                {
                    "name": "F1",
                    "midi": 29,
                    "time": 32.337500000000084,
                    "velocity": 0.6062992125984252,
                    "duration": 0.6541666666666686
                },
                {
                    "name": "G#1",
                    "midi": 32,
                    "time": 32.42083333333342,
                    "velocity": 0.7165354330708661,
                    "duration": 0.23750000000000426
                },
                {
                    "name": "F4",
                    "midi": 65,
                    "time": 32.658333333333424,
                    "velocity": 0.8188976377952756,
                    "duration": 0.07083333333333286
                },
                {
                    "name": "F3",
                    "midi": 53,
                    "time": 32.66666666666676,
                    "velocity": 0.8188976377952756,
                    "duration": 0.04791666666666572
                },
                {
                    "name": "F2",
                    "midi": 41,
                    "time": 32.67291666666676,
                    "velocity": 0.6771653543307087,
                    "duration": 0.15833333333333144
                },
                {
                    "name": "G#1",
                    "midi": 32,
                    "time": 32.83958333333342,
                    "velocity": 0.5039370078740157,
                    "duration": 0.1874999999999929
                },
                {
                    "name": "A#2",
                    "midi": 46,
                    "time": 33.01875000000008,
                    "velocity": 0.7244094488188977,
                    "duration": 0.06041666666666856
                },
                {
                    "name": "C#3",
                    "midi": 49,
                    "time": 33.01875000000008,
                    "velocity": 0.7401574803149606,
                    "duration": 0.14375000000000426
                },
                {
                    "name": "E1",
                    "midi": 28,
                    "time": 33.025000000000084,
                    "velocity": 0.6614173228346457,
                    "duration": 0.20000000000000284
                },
                {
                    "name": "G#1",
                    "midi": 32,
                    "time": 33.222916666666755,
                    "velocity": 0.33070866141732286,
                    "duration": 0.13333333333333997
                },
                {
                    "name": "D3",
                    "midi": 50,
                    "time": 33.26250000000009,
                    "velocity": 0.15748031496062992,
                    "duration": 0.04375000000000284
                },
                {
                    "name": "A#2",
                    "midi": 46,
                    "time": 33.318750000000094,
                    "velocity": 0.4251968503937008,
                    "duration": 0.041666666666671404
                },
                {
                    "name": "C#3",
                    "midi": 49,
                    "time": 33.34166666666676,
                    "velocity": 0.5196850393700787,
                    "duration": 0.039583333333339965
                },
                {
                    "name": "F1",
                    "midi": 29,
                    "time": 33.36666666666677,
                    "velocity": 0.5039370078740157,
                    "duration": 0.34583333333332433
                },
                {
                    "name": "D3",
                    "midi": 50,
                    "time": 33.37708333333343,
                    "velocity": 0.5669291338582677,
                    "duration": 0.11250000000000426
                },
                {
                    "name": "A#2",
                    "midi": 46,
                    "time": 33.4500000000001,
                    "velocity": 0.4409448818897638,
                    "duration": 0.060416666666661456
                },
                {
                    "name": "G#1",
                    "midi": 32,
                    "time": 33.46666666666677,
                    "velocity": 0.4881889763779528,
                    "duration": 0.12708333333332433
                },
                {
                    "name": "C#3",
                    "midi": 49,
                    "time": 33.49166666666677,
                    "velocity": 0.5669291338582677,
                    "duration": 0.060416666666661456
                },
                {
                    "name": "D3",
                    "midi": 50,
                    "time": 33.59375000000009,
                    "velocity": 0.3779527559055118,
                    "duration": 0.10208333333333286
                },
                {
                    "name": "F2",
                    "midi": 41,
                    "time": 33.64791666666676,
                    "velocity": 0.31496062992125984,
                    "duration": 0.08958333333333712
                },
                {
                    "name": "C#3",
                    "midi": 49,
                    "time": 33.69791666666676,
                    "velocity": 0.5590551181102362,
                    "duration": 0.10000000000000853
                },
                {
                    "name": "A#2",
                    "midi": 46,
                    "time": 33.720833333333424,
                    "velocity": 0.3543307086614173,
                    "duration": 0.05208333333334281
                },
                {
                    "name": "G#1",
                    "midi": 32,
                    "time": 33.73333333333343,
                    "velocity": 0.48031496062992124,
                    "duration": 0.16875000000000284
                },
                {
                    "name": "D3",
                    "midi": 50,
                    "time": 33.795833333333434,
                    "velocity": 0.5590551181102362,
                    "duration": 0.11249999999999716
                },
                {
                    "name": "C#3",
                    "midi": 49,
                    "time": 33.9000000000001,
                    "velocity": 0.48031496062992124,
                    "duration": 0.1145833333333357
                },
                {
                    "name": "F1",
                    "midi": 29,
                    "time": 33.9312500000001,
                    "velocity": 0.11811023622047244,
                    "duration": 0.06875000000000142
                },
                {
                    "name": "E1",
                    "midi": 28,
                    "time": 33.96041666666677,
                    "velocity": 0.6299212598425197,
                    "duration": 0.15208333333333002
                },
                {
                    "name": "D3",
                    "midi": 50,
                    "time": 34.05416666666677,
                    "velocity": 0.03937007874015748,
                    "duration": 0.08749999999999858
                },
                {
                    "name": "G#1",
                    "midi": 32,
                    "time": 34.110416666666765,
                    "velocity": 0.4015748031496063,
                    "duration": 0.11666666666666714
                },
                {
                    "name": "C#3",
                    "midi": 49,
                    "time": 34.2062500000001,
                    "velocity": 0.08661417322834646,
                    "duration": 0.054166666666674246
                },
                {
                    "name": "F1",
                    "midi": 29,
                    "time": 34.2562500000001,
                    "velocity": 0.3937007874015748,
                    "duration": 0.30000000000000426
                },
                {
                    "name": "G#1",
                    "midi": 32,
                    "time": 34.34375000000011,
                    "velocity": 0.4566929133858268,
                    "duration": 0.14374999999999716
                },
                {
                    "name": "C#3",
                    "midi": 49,
                    "time": 34.38333333333344,
                    "velocity": 0.3700787401574803,
                    "duration": 0.10624999999999574
                },
                {
                    "name": "A#2",
                    "midi": 46,
                    "time": 34.54166666666677,
                    "velocity": 0.23622047244094488,
                    "duration": 0.125
                },
                {
                    "name": "F2",
                    "midi": 41,
                    "time": 34.56666666666677,
                    "velocity": 0.23622047244094488,
                    "duration": 0.09583333333333144
                },
                {
                    "name": "D3",
                    "midi": 50,
                    "time": 34.577083333333434,
                    "velocity": 0.07874015748031496,
                    "duration": 0.12083333333333712
                },
                {
                    "name": "C#3",
                    "midi": 49,
                    "time": 34.608333333333434,
                    "velocity": 0.2440944881889764,
                    "duration": 0.10208333333333997
                },
                {
                    "name": "G#1",
                    "midi": 32,
                    "time": 34.67291666666677,
                    "velocity": 0.48031496062992124,
                    "duration": 0.16458333333333286
                },
                {
                    "name": "F1",
                    "midi": 29,
                    "time": 34.81458333333344,
                    "velocity": 0.18110236220472442,
                    "duration": 0.11041666666666572
                },
                {
                    "name": "E1",
                    "midi": 28,
                    "time": 34.895833333333435,
                    "velocity": 0.5354330708661418,
                    "duration": 0.18333333333333712
                },
                {
                    "name": "G#1",
                    "midi": 32,
                    "time": 35.1062500000001,
                    "velocity": 0.14173228346456693,
                    "duration": 0.07500000000000284
                },
                {
                    "name": "F1",
                    "midi": 29,
                    "time": 35.22708333333344,
                    "velocity": 0.31496062992125984,
                    "duration": 0.2499999999999929
                },
                {
                    "name": "G#1",
                    "midi": 32,
                    "time": 35.33958333333344,
                    "velocity": 0.2992125984251969,
                    "duration": 0.12708333333333144
                },
                {
                    "name": "F2",
                    "midi": 41,
                    "time": 35.53333333333343,
                    "velocity": 0.2992125984251969,
                    "duration": 0.11666666666666714
                },
                {
                    "name": "G#1",
                    "midi": 32,
                    "time": 35.64583333333343,
                    "velocity": 0.4645669291338583,
                    "duration": 0.22708333333333997
                },
                {
                    "name": "E1",
                    "midi": 28,
                    "time": 35.8687500000001,
                    "velocity": 0.6614173228346457,
                    "duration": 0.13750000000000284
                },
                {
                    "name": "F1",
                    "midi": 29,
                    "time": 36.083333333333435,
                    "velocity": 0.3858267716535433,
                    "duration": 0.2916666666666714
                },
                {
                    "name": "G#1",
                    "midi": 32,
                    "time": 36.19791666666677,
                    "velocity": 0.4015748031496063,
                    "duration": 0.15416666666666856
                },
                {
                    "name": "F2",
                    "midi": 41,
                    "time": 36.435416666666775,
                    "velocity": 0.30708661417322836,
                    "duration": 0.12291666666666856
                },
                {
                    "name": "G#1",
                    "midi": 32,
                    "time": 36.560416666666775,
                    "velocity": 0.29133858267716534,
                    "duration": 0.2395833333333357
                },
                {
                    "name": "F1",
                    "midi": 29,
                    "time": 36.66666666666678,
                    "velocity": 0.29133858267716534,
                    "duration": 0.2874999999999943
                },
                {
                    "name": "E1",
                    "midi": 28,
                    "time": 36.91458333333345,
                    "velocity": 0.48031496062992124,
                    "duration": 0.22083333333333144
                },
                {
                    "name": "D2",
                    "midi": 38,
                    "time": 36.91666666666678,
                    "velocity": 0.5511811023622047,
                    "duration": 0.28958333333333286
                },
                {
                    "name": "F#2",
                    "midi": 42,
                    "time": 37.32708333333344,
                    "velocity": 0.6299212598425197,
                    "duration": 0.3500000000000085
                },
                {
                    "name": "F1",
                    "midi": 29,
                    "time": 37.32708333333344,
                    "velocity": 0.4566929133858268,
                    "duration": 0.1666666666666714
                },
                {
                    "name": "F2",
                    "midi": 41,
                    "time": 37.531250000000114,
                    "velocity": 0.2992125984251969,
                    "duration": 0.10625000000000284
                },
                {
                    "name": "F1",
                    "midi": 29,
                    "time": 37.65208333333345,
                    "velocity": 0.4881889763779528,
                    "duration": 0.15208333333333002
                },
                {
                    "name": "D2",
                    "midi": 38,
                    "time": 37.76458333333345,
                    "velocity": 0.5511811023622047,
                    "duration": 0.10625000000000284
                },
                {
                    "name": "F2",
                    "midi": 41,
                    "time": 37.79375000000012,
                    "velocity": 0.3937007874015748,
                    "duration": 0.11041666666666572
                },
                {
                    "name": "G2",
                    "midi": 43,
                    "time": 37.94166666666678,
                    "velocity": 0.7086614173228346,
                    "duration": 0.42499999999999716
                },
                {
                    "name": "E1",
                    "midi": 28,
                    "time": 37.94166666666678,
                    "velocity": 0.7007874015748031,
                    "duration": 0.09791666666666288
                },
                {
                    "name": "F2",
                    "midi": 41,
                    "time": 38.17083333333344,
                    "velocity": 0.10236220472440945,
                    "duration": 0.05416666666666714
                },
                {
                    "name": "F1",
                    "midi": 29,
                    "time": 38.25833333333344,
                    "velocity": 0.6929133858267716,
                    "duration": 0.1458333333333357
                },
                {
                    "name": "F2",
                    "midi": 41,
                    "time": 38.404166666666775,
                    "velocity": 0.3779527559055118,
                    "duration": 0.12916666666666998
                },
                {
                    "name": "D2",
                    "midi": 38,
                    "time": 38.408333333333445,
                    "velocity": 0.5118110236220472,
                    "duration": 0.14374999999999716
                },
                {
                    "name": "F1",
                    "midi": 29,
                    "time": 38.560416666666775,
                    "velocity": 0.5354330708661418,
                    "duration": 0.1458333333333357
                },
                {
                    "name": "G#2",
                    "midi": 44,
                    "time": 38.57083333333344,
                    "velocity": 0.6614173228346457,
                    "duration": 0.04999999999999716
                },
                {
                    "name": "F2",
                    "midi": 41,
                    "time": 38.69583333333344,
                    "velocity": 0.4645669291338583,
                    "duration": 0.15208333333333712
                },
                {
                    "name": "E1",
                    "midi": 28,
                    "time": 38.89166666666678,
                    "velocity": 0.6850393700787402,
                    "duration": 0.13124999999999432
                },
                {
                    "name": "E3",
                    "midi": 52,
                    "time": 38.92708333333344,
                    "velocity": 0.6614173228346457,
                    "duration": 0.30833333333333
                },
                {
                    "name": "C#3",
                    "midi": 49,
                    "time": 38.929166666666774,
                    "velocity": 0.5669291338582677,
                    "duration": 0.25208333333333144
                },
                {
                    "name": "E2",
                    "midi": 40,
                    "time": 39.10416666666677,
                    "velocity": 0.4251968503937008,
                    "duration": 0.10000000000000142
                },
                {
                    "name": "G#3",
                    "midi": 56,
                    "time": 39.2625000000001,
                    "velocity": 0.7086614173228346,
                    "duration": 0.39375000000000426
                },
                {
                    "name": "G3",
                    "midi": 55,
                    "time": 39.27916666666677,
                    "velocity": 0.6062992125984252,
                    "duration": 0.43541666666667567
                },
                {
                    "name": "E1",
                    "midi": 28,
                    "time": 39.28541666666677,
                    "velocity": 0.5669291338582677,
                    "duration": 0.0833333333333357
                },
                {
                    "name": "G#1",
                    "midi": 32,
                    "time": 39.56250000000011,
                    "velocity": 0.6929133858267716,
                    "duration": 0.11874999999999858
                },
                {
                    "name": "G#2",
                    "midi": 44,
                    "time": 39.70208333333344,
                    "velocity": 0.6850393700787402,
                    "duration": 0.04583333333333428
                },
                {
                    "name": "C#3",
                    "midi": 49,
                    "time": 39.72500000000011,
                    "velocity": 0.7007874015748031,
                    "duration": 0.09375
                },
                {
                    "name": "E3",
                    "midi": 52,
                    "time": 39.73333333333344,
                    "velocity": 0.6692913385826772,
                    "duration": 0.17500000000000426
                },
                {
                    "name": "E1",
                    "midi": 28,
                    "time": 39.86041666666677,
                    "velocity": 0.8582677165354331,
                    "duration": 0.08750000000000568
                },
                {
                    "name": "A3",
                    "midi": 57,
                    "time": 39.872916666666775,
                    "velocity": 0.7716535433070866,
                    "duration": 0.42500000000000426
                },
                {
                    "name": "G3",
                    "midi": 55,
                    "time": 39.87916666666678,
                    "velocity": 0.7244094488188977,
                    "duration": 0.5333333333333314
                },
                {
                    "name": "E2",
                    "midi": 40,
                    "time": 40.01875000000011,
                    "velocity": 0.5118110236220472,
                    "duration": 0.0833333333333357
                },
                {
                    "name": "E1",
                    "midi": 28,
                    "time": 40.15416666666678,
                    "velocity": 0.7716535433070866,
                    "duration": 0.1041666666666643
                },
                {
                    "name": "E2",
                    "midi": 40,
                    "time": 40.283333333333445,
                    "velocity": 0.5590551181102362,
                    "duration": 0.07916666666666572
                },
                {
                    "name": "C#3",
                    "midi": 49,
                    "time": 40.34791666666678,
                    "velocity": 0.7637795275590551,
                    "duration": 0.08749999999999858
                },
                {
                    "name": "E3",
                    "midi": 52,
                    "time": 40.35833333333344,
                    "velocity": 0.7086614173228346,
                    "duration": 0.16875000000000284
                },
                {
                    "name": "A#3",
                    "midi": 58,
                    "time": 40.470833333333445,
                    "velocity": 0.8582677165354331,
                    "duration": 0.14166666666666572
                },
                {
                    "name": "G3",
                    "midi": 55,
                    "time": 40.47291666666678,
                    "velocity": 0.6299212598425197,
                    "duration": 0.13125000000000142
                },
                {
                    "name": "A#1",
                    "midi": 34,
                    "time": 40.47708333333345,
                    "velocity": 0.7322834645669292,
                    "duration": 0.11874999999999858
                },
                {
                    "name": "A#2",
                    "midi": 46,
                    "time": 40.625000000000114,
                    "velocity": 0.6456692913385826,
                    "duration": 0.03125
                },
                {
                    "name": "E1",
                    "midi": 28,
                    "time": 40.86041666666678,
                    "velocity": 0.7559055118110236,
                    "duration": 0.8937499999999972
                },
                {
                    "name": "A1",
                    "midi": 33,
                    "time": 41.11250000000011,
                    "velocity": 0.5039370078740157,
                    "duration": 0.6124999999999972
                },
                {
                    "name": "A#1",
                    "midi": 34,
                    "time": 41.310416666666775,
                    "velocity": 0.4645669291338583,
                    "duration": 0.4104166666666629
                },
                {
                    "name": "C#2",
                    "midi": 37,
                    "time": 41.42708333333344,
                    "velocity": 0.5118110236220472,
                    "duration": 0.29374999999999574
                },
                {
                    "name": "E2",
                    "midi": 40,
                    "time": 41.52083333333344,
                    "velocity": 0.47244094488188976,
                    "duration": 0.28333333333333144
                },
                {
                    "name": "A2",
                    "midi": 45,
                    "time": 41.67083333333344,
                    "velocity": 0.4566929133858268,
                    "duration": 0.2874999999999943
                },
                {
                    "name": "A#2",
                    "midi": 46,
                    "time": 41.80208333333344,
                    "velocity": 0.49606299212598426,
                    "duration": 0.22708333333332575
                },
                {
                    "name": "C#3",
                    "midi": 49,
                    "time": 41.93958333333344,
                    "velocity": 0.5196850393700787,
                    "duration": 0.13749999999999574
                },
                {
                    "name": "D1",
                    "midi": 26,
                    "time": 42.237500000000104,
                    "velocity": 0.5984251968503937,
                    "duration": 0.40416666666666146
                },
                {
                    "name": "C3",
                    "midi": 48,
                    "time": 42.35208333333344,
                    "velocity": 0.5669291338582677,
                    "duration": 0.2041666666666586
                },
                {
                    "name": "F#3",
                    "midi": 54,
                    "time": 42.41666666666677,
                    "velocity": 0.5511811023622047,
                    "duration": 0.2187499999999929
                },
                {
                    "name": "A3",
                    "midi": 57,
                    "time": 42.52916666666677,
                    "velocity": 0.5984251968503937,
                    "duration": 0.13958333333332718
                },
                {
                    "name": "D2",
                    "midi": 38,
                    "time": 42.72083333333343,
                    "velocity": 0.3937007874015748,
                    "duration": 0.04791666666666572
                },
                {
                    "name": "C#3",
                    "midi": 49,
                    "time": 42.98958333333343,
                    "velocity": 0.4645669291338583,
                    "duration": 0.11874999999999858
                },
                {
                    "name": "E4",
                    "midi": 64,
                    "time": 43.02083333333343,
                    "velocity": 0.5118110236220472,
                    "duration": 0.21041666666666003
                },
                {
                    "name": "C4",
                    "midi": 60,
                    "time": 43.02083333333343,
                    "velocity": 0.5433070866141733,
                    "duration": 0.23124999999998863
                },
                {
                    "name": "D3",
                    "midi": 50,
                    "time": 43.127083333333424,
                    "velocity": 0.5748031496062992,
                    "duration": 0.12291666666666146
                },
                {
                    "name": "C#3",
                    "midi": 49,
                    "time": 43.26666666666675,
                    "velocity": 0.5039370078740157,
                    "duration": 0.03750000000000142
                },
                {
                    "name": "D3",
                    "midi": 50,
                    "time": 43.310416666666754,
                    "velocity": 0.5511811023622047,
                    "duration": 0.10000000000000142
                },
                {
                    "name": "C#3",
                    "midi": 49,
                    "time": 43.406250000000085,
                    "velocity": 0.8110236220472441,
                    "duration": 0.0729166666666714
                },
                {
                    "name": "F#3",
                    "midi": 54,
                    "time": 43.49375000000009,
                    "velocity": 0.7480314960629921,
                    "duration": 0.11041666666666572
                },
                {
                    "name": "A3",
                    "midi": 57,
                    "time": 43.50000000000009,
                    "velocity": 0.6692913385826772,
                    "duration": 0.2083333333333286
                },
                {
                    "name": "D3",
                    "midi": 50,
                    "time": 43.502083333333424,
                    "velocity": 0.7322834645669292,
                    "duration": 0.12916666666666288
                },
                {
                    "name": "D2",
                    "midi": 38,
                    "time": 43.68333333333342,
                    "velocity": 0.7559055118110236,
                    "duration": 0.11874999999999147
                },
                {
                    "name": "C4",
                    "midi": 60,
                    "time": 43.685416666666754,
                    "velocity": 0.7716535433070866,
                    "duration": 0.33541666666666003
                },
                {
                    "name": "E4",
                    "midi": 64,
                    "time": 43.689583333333424,
                    "velocity": 0.7165354330708661,
                    "duration": 0.3062499999999915
                },
                {
                    "name": "D3",
                    "midi": 50,
                    "time": 43.85208333333342,
                    "velocity": 0.49606299212598426,
                    "duration": 0.11249999999999716
                },
                {
                    "name": "C#3",
                    "midi": 49,
                    "time": 43.94583333333342,
                    "velocity": 0.7480314960629921,
                    "duration": 0.07499999999999574
                },
                {
                    "name": "D3",
                    "midi": 50,
                    "time": 44.02916666666675,
                    "velocity": 0.6141732283464567,
                    "duration": 0.09375
                },
                {
                    "name": "C#3",
                    "midi": 49,
                    "time": 44.11250000000008,
                    "velocity": 0.7244094488188977,
                    "duration": 0.05416666666666714
                },
                {
                    "name": "D3",
                    "midi": 50,
                    "time": 44.177083333333414,
                    "velocity": 0.5590551181102362,
                    "duration": 0.10833333333333428
                },
                {
                    "name": "C#3",
                    "midi": 49,
                    "time": 44.272916666666745,
                    "velocity": 0.7322834645669292,
                    "duration": 0.06458333333333854
                },
                {
                    "name": "F#3",
                    "midi": 54,
                    "time": 44.27916666666675,
                    "velocity": 0.8110236220472441,
                    "duration": 0.16250000000000142
                },
                {
                    "name": "A#3",
                    "midi": 58,
                    "time": 44.28125000000008,
                    "velocity": 0.7952755905511811,
                    "duration": 0.1666666666666714
                },
                {
                    "name": "D3",
                    "midi": 50,
                    "time": 44.35625000000008,
                    "velocity": 0.6614173228346457,
                    "duration": 0.08958333333333712
                },
                {
                    "name": "B3",
                    "midi": 59,
                    "time": 44.60416666666675,
                    "velocity": 0.7086614173228346,
                    "duration": 0.2958333333333272
                },
                {
                    "name": "G3",
                    "midi": 55,
                    "time": 44.60625000000008,
                    "velocity": 0.6535433070866141,
                    "duration": 0.20624999999999716
                },
                {
                    "name": "D1",
                    "midi": 26,
                    "time": 44.620833333333415,
                    "velocity": 0.7559055118110236,
                    "duration": 0.10208333333333286
                },
                {
                    "name": "D2",
                    "midi": 38,
                    "time": 44.75833333333341,
                    "velocity": 0.6614173228346457,
                    "duration": 0.07916666666666572
                },
                {
                    "name": "C#3",
                    "midi": 49,
                    "time": 44.985416666666744,
                    "velocity": 0.7716535433070866,
                    "duration": 0.07083333333333286
                },
                {
                    "name": "D4",
                    "midi": 62,
                    "time": 45.00625000000008,
                    "velocity": 0.7007874015748031,
                    "duration": 0.22083333333333144
                },
                {
                    "name": "E4",
                    "midi": 64,
                    "time": 45.00625000000008,
                    "velocity": 0.6377952755905512,
                    "duration": 0.23333333333332718
                },
                {
                    "name": "D3",
                    "midi": 50,
                    "time": 45.12708333333341,
                    "velocity": 0.6771653543307087,
                    "duration": 0.10208333333333286
                },
                {
                    "name": "C#3",
                    "midi": 49,
                    "time": 45.22708333333341,
                    "velocity": 0.6929133858267716,
                    "duration": 0.04374999999999574
                },
                {
                    "name": "D3",
                    "midi": 50,
                    "time": 45.29166666666674,
                    "velocity": 0.6614173228346457,
                    "duration": 0.11041666666666572
                },
                {
                    "name": "C#3",
                    "midi": 49,
                    "time": 45.37916666666674,
                    "velocity": 0.8503937007874016,
                    "duration": 0.0625
                },
                {
                    "name": "D3",
                    "midi": 50,
                    "time": 45.46875000000007,
                    "velocity": 0.7244094488188977,
                    "duration": 0.1729166666666586
                },
                {
                    "name": "B3",
                    "midi": 59,
                    "time": 45.48750000000007,
                    "velocity": 0.7795275590551181,
                    "duration": 0.23541666666666572
                },
                {
                    "name": "G3",
                    "midi": 55,
                    "time": 45.4895833333334,
                    "velocity": 0.7244094488188977,
                    "duration": 0.14166666666666572
                },
                {
                    "name": "D2",
                    "midi": 38,
                    "time": 45.6708333333334,
                    "velocity": 0.7637795275590551,
                    "duration": 0.09166666666666856
                },
                {
                    "name": "E4",
                    "midi": 64,
                    "time": 45.6770833333334,
                    "velocity": 0.7874015748031497,
                    "duration": 0.30833333333333
                },
                {
                    "name": "D4",
                    "midi": 62,
                    "time": 45.6833333333334,
                    "velocity": 0.7874015748031497,
                    "duration": 0.3020833333333286
                },
                {
                    "name": "D3",
                    "midi": 50,
                    "time": 45.80000000000006,
                    "velocity": 0.5039370078740157,
                    "duration": 0.12916666666666288
                },
                {
                    "name": "C#3",
                    "midi": 49,
                    "time": 45.91250000000006,
                    "velocity": 0.7795275590551181,
                    "duration": 0.06041666666666856
                },
                {
                    "name": "D3",
                    "midi": 50,
                    "time": 45.9895833333334,
                    "velocity": 0.6535433070866141,
                    "duration": 0.09791666666666288
                },
                {
                    "name": "C#3",
                    "midi": 49,
                    "time": 46.068750000000065,
                    "velocity": 0.8346456692913385,
                    "duration": 0.0625
                },
                {
                    "name": "D3",
                    "midi": 50,
                    "time": 46.135416666666735,
                    "velocity": 0.6377952755905512,
                    "duration": 0.10624999999999574
                },
                {
                    "name": "C#3",
                    "midi": 49,
                    "time": 46.21666666666673,
                    "velocity": 0.7795275590551181,
                    "duration": 0.0729166666666643
                },
                {
                    "name": "B3",
                    "midi": 59,
                    "time": 46.3020833333334,
                    "velocity": 0.84251968503937,
                    "duration": 0.14791666666667425
                },
                {
                    "name": "G3",
                    "midi": 55,
                    "time": 46.30625000000007,
                    "velocity": 0.7716535433070866,
                    "duration": 0.13125000000000142
                },
                {
                    "name": "D3",
                    "midi": 50,
                    "time": 46.31250000000007,
                    "velocity": 0.6456692913385826,
                    "duration": 0.1145833333333357
                },
                {
                    "name": "E1",
                    "midi": 28,
                    "time": 46.66041666666674,
                    "velocity": 0.5826771653543307,
                    "duration": 0.18958333333334565
                },
                {
                    "name": "B3",
                    "midi": 59,
                    "time": 46.66666666666674,
                    "velocity": 0.7637795275590551,
                    "duration": 0.4666666666666828
                },
                {
                    "name": "G#3",
                    "midi": 56,
                    "time": 46.67083333333341,
                    "velocity": 0.7559055118110236,
                    "duration": 0.32500000000000995
                },
                {
                    "name": "E2",
                    "midi": 40,
                    "time": 46.872916666666754,
                    "velocity": 0.48031496062992124,
                    "duration": 0.07708333333333428
                },
                {
                    "name": "F#4",
                    "midi": 66,
                    "time": 47.14583333333343,
                    "velocity": 0.8503937007874016,
                    "duration": 0.20625000000000426
                },
                {
                    "name": "D4",
                    "midi": 62,
                    "time": 47.15208333333343,
                    "velocity": 0.7244094488188977,
                    "duration": 0.24583333333334423
                },
                {
                    "name": "D#3",
                    "midi": 51,
                    "time": 47.15833333333343,
                    "velocity": 0.5039370078740157,
                    "duration": 0.10000000000000142
                },
                {
                    "name": "E3",
                    "midi": 52,
                    "time": 47.2875000000001,
                    "velocity": 0.6141732283464567,
                    "duration": 0.10625000000000284
                },
                {
                    "name": "D#3",
                    "midi": 51,
                    "time": 47.3812500000001,
                    "velocity": 0.84251968503937,
                    "duration": 0.0729166666666714
                },
                {
                    "name": "E3",
                    "midi": 52,
                    "time": 47.466666666666775,
                    "velocity": 0.6850393700787402,
                    "duration": 0.125
                },
                {
                    "name": "D#3",
                    "midi": 51,
                    "time": 47.558333333333444,
                    "velocity": 0.8188976377952756,
                    "duration": 0.07708333333333428
                },
                {
                    "name": "G#3",
                    "midi": 56,
                    "time": 47.63541666666678,
                    "velocity": 0.7952755905511811,
                    "duration": 0.06666666666666998
                },
                {
                    "name": "B3",
                    "midi": 59,
                    "time": 47.63541666666678,
                    "velocity": 0.7952755905511811,
                    "duration": 0.0833333333333357
                },
                {
                    "name": "E3",
                    "midi": 52,
                    "time": 47.65000000000011,
                    "velocity": 0.5511811023622047,
                    "duration": 0.08958333333333712
                },
                {
                    "name": "D#3",
                    "midi": 51,
                    "time": 47.71041666666678,
                    "velocity": 0.44881889763779526,
                    "duration": 0.03958333333333286
                },
                {
                    "name": "E3",
                    "midi": 52,
                    "time": 47.787500000000115,
                    "velocity": 0.3543307086614173,
                    "duration": 0.09375
                },
                {
                    "name": "E2",
                    "midi": 40,
                    "time": 48.004166666666784,
                    "velocity": 0.5354330708661418,
                    "duration": 0.3812500000000085
                },
                {
                    "name": "D4",
                    "midi": 62,
                    "time": 48.01250000000012,
                    "velocity": 0.5669291338582677,
                    "duration": 0.18541666666667567
                },
                {
                    "name": "F#4",
                    "midi": 66,
                    "time": 48.035416666666784,
                    "velocity": 0.6141732283464567,
                    "duration": 0.23750000000001137
                },
                {
                    "name": "B4",
                    "midi": 71,
                    "time": 48.14166666666679,
                    "velocity": 0.6771653543307087,
                    "duration": 0.11041666666667282
                },
                {
                    "name": "D5",
                    "midi": 74,
                    "time": 48.16666666666679,
                    "velocity": 0.7637795275590551,
                    "duration": 0.3708333333333371
                },
                {
                    "name": "B4",
                    "midi": 71,
                    "time": 48.47708333333346,
                    "velocity": 0.6141732283464567,
                    "duration": 0.17916666666666714
                },
                {
                    "name": "F#4",
                    "midi": 66,
                    "time": 48.60000000000013,
                    "velocity": 0.5039370078740157,
                    "duration": 0.14999999999999858
                },
                {
                    "name": "D4",
                    "midi": 62,
                    "time": 48.70208333333346,
                    "velocity": 0.4645669291338583,
                    "duration": 0.14374999999999716
                },
                {
                    "name": "C#5",
                    "midi": 73,
                    "time": 48.86875000000013,
                    "velocity": 0.8267716535433071,
                    "duration": 0.4312499999999986
                },
                {
                    "name": "A#4",
                    "midi": 70,
                    "time": 48.97916666666679,
                    "velocity": 0.6062992125984252,
                    "duration": 0.3333333333333357
                },
                {
                    "name": "F4",
                    "midi": 65,
                    "time": 49.13541666666679,
                    "velocity": 0.2440944881889764,
                    "duration": 0.13333333333333286
                },
                {
                    "name": "C#4",
                    "midi": 61,
                    "time": 49.210416666666795,
                    "velocity": 0.5748031496062992,
                    "duration": 0.09583333333333144
                },
                {
                    "name": "E3",
                    "midi": 52,
                    "time": 49.35833333333346,
                    "velocity": 0.7165354330708661,
                    "duration": 0.5687499999999943
                },
                {
                    "name": "D5",
                    "midi": 74,
                    "time": 49.42083333333346,
                    "velocity": 0.8188976377952756,
                    "duration": 0.22708333333333286
                },
                {
                    "name": "B4",
                    "midi": 71,
                    "time": 49.5979166666668,
                    "velocity": 0.6535433070866141,
                    "duration": 0.18124999999999147
                },
                {
                    "name": "F#4",
                    "midi": 66,
                    "time": 49.75208333333346,
                    "velocity": 0.5669291338582677,
                    "duration": 0.08958333333333002
                },
                {
                    "name": "D4",
                    "midi": 62,
                    "time": 49.85000000000012,
                    "velocity": 0.47244094488188976,
                    "duration": 0.05624999999999858
                },
                {
                    "name": "F#4",
                    "midi": 66,
                    "time": 50.081250000000125,
                    "velocity": 0.7874015748031497,
                    "duration": 0.34375
                },
                {
                    "name": "D4",
                    "midi": 62,
                    "time": 50.24583333333346,
                    "velocity": 0.5984251968503937,
                    "duration": 0.18333333333333712
                },
                {
                    "name": "B3",
                    "midi": 59,
                    "time": 50.39583333333346,
                    "velocity": 0.44881889763779526,
                    "duration": 0.11041666666667282
                },
                {
                    "name": "F#3",
                    "midi": 54,
                    "time": 50.489583333333464,
                    "velocity": 0.6220472440944882,
                    "duration": 0.07083333333333286
                },
                {
                    "name": "E1",
                    "midi": 28,
                    "time": 50.56250000000013,
                    "velocity": 0.4094488188976378,
                    "duration": 0.20208333333333428
                },
                {
                    "name": "E2",
                    "midi": 40,
                    "time": 50.70000000000013,
                    "velocity": 0.4330708661417323,
                    "duration": 0.1458333333333286
                },
                {
                    "name": "B3",
                    "midi": 59,
                    "time": 50.73125000000013,
                    "velocity": 0.5826771653543307,
                    "duration": 0.2041666666666586
                },
                {
                    "name": "F#3",
                    "midi": 54,
                    "time": 50.91041666666679,
                    "velocity": 0.48031496062992124,
                    "duration": 0.26875000000000426
                },
                {
                    "name": "D3",
                    "midi": 50,
                    "time": 51.07291666666679,
                    "velocity": 0.47244094488188976,
                    "duration": 0.1770833333333357
                },
                {
                    "name": "B2",
                    "midi": 47,
                    "time": 51.18750000000013,
                    "velocity": 0.49606299212598426,
                    "duration": 0.0520833333333357
                },
                {
                    "name": "D3",
                    "midi": 50,
                    "time": 51.3791666666668,
                    "velocity": 0.07874015748031496,
                    "duration": 0.11874999999999858
                },
                {
                    "name": "B2",
                    "midi": 47,
                    "time": 51.5104166666668,
                    "velocity": 0.2755905511811024,
                    "duration": 0.125
                },
                {
                    "name": "F#2",
                    "midi": 42,
                    "time": 51.6291666666668,
                    "velocity": 0.48031496062992124,
                    "duration": 0.1666666666666714
                },
                {
                    "name": "E2",
                    "midi": 40,
                    "time": 51.7604166666668,
                    "velocity": 0.5826771653543307,
                    "duration": 0.5125000000000028
                },
                {
                    "name": "F#2",
                    "midi": 42,
                    "time": 51.93958333333347,
                    "velocity": 0.5826771653543307,
                    "duration": 0.3020833333333286
                },
                {
                    "name": "B2",
                    "midi": 47,
                    "time": 52.05208333333347,
                    "velocity": 0.47244094488188976,
                    "duration": 0.15625
                },
                {
                    "name": "D3",
                    "midi": 50,
                    "time": 52.1479166666668,
                    "velocity": 0.6929133858267716,
                    "duration": 0.07500000000000284
                },
                {
                    "name": "F4",
                    "midi": 65,
                    "time": 52.32500000000014,
                    "velocity": 0.7637795275590551,
                    "duration": 0.15208333333333712
                },
                {
                    "name": "C#4",
                    "midi": 61,
                    "time": 52.447916666666806,
                    "velocity": 0.6929133858267716,
                    "duration": 0.1354166666666714
                },
                {
                    "name": "A#3",
                    "midi": 58,
                    "time": 52.512500000000145,
                    "velocity": 0.6299212598425197,
                    "duration": 0.14999999999999858
                },
                {
                    "name": "F3",
                    "midi": 53,
                    "time": 52.59375000000014,
                    "velocity": 0.6771653543307087,
                    "duration": 0.08958333333333712
                },
                {
                    "name": "E1",
                    "midi": 28,
                    "time": 52.670833333333476,
                    "velocity": 0.7086614173228346,
                    "duration": 1.26666666666668
                },
                {
                    "name": "E2",
                    "midi": 40,
                    "time": 52.77500000000015,
                    "velocity": 0.6771653543307087,
                    "duration": 0.8583333333333414
                },
                {
                    "name": "F#4",
                    "midi": 66,
                    "time": 52.82708333333348,
                    "velocity": 0.889763779527559,
                    "duration": 0.24583333333333002
                },
                {
                    "name": "D4",
                    "midi": 62,
                    "time": 52.85000000000015,
                    "velocity": 0.7401574803149606,
                    "duration": 0.22083333333333144
                },
                {
                    "name": "B3",
                    "midi": 59,
                    "time": 52.99375000000015,
                    "velocity": 0.6456692913385826,
                    "duration": 0.11666666666666714
                },
                {
                    "name": "F#3",
                    "midi": 54,
                    "time": 53.07291666666681,
                    "velocity": 0.6692913385826772,
                    "duration": 0.0729166666666714
                },
                {
                    "name": "G#4",
                    "midi": 68,
                    "time": 53.19791666666682,
                    "velocity": 0.7795275590551181,
                    "duration": 0.18541666666666856
                },
                {
                    "name": "E4",
                    "midi": 64,
                    "time": 53.218750000000156,
                    "velocity": 0.7322834645669292,
                    "duration": 0.21041666666666714
                },
                {
                    "name": "C4",
                    "midi": 60,
                    "time": 53.35625000000016,
                    "velocity": 0.5826771653543307,
                    "duration": 0.09166666666666146
                },
                {
                    "name": "G#3",
                    "midi": 56,
                    "time": 53.41458333333349,
                    "velocity": 0.5354330708661418,
                    "duration": 0.03958333333333286
                },
                {
                    "name": "A4",
                    "midi": 69,
                    "time": 53.51666666666682,
                    "velocity": 0.8188976377952756,
                    "duration": 0.17083333333333428
                },
                {
                    "name": "F4",
                    "midi": 65,
                    "time": 53.525000000000155,
                    "velocity": 0.7637795275590551,
                    "duration": 0.18958333333333144
                },
                {
                    "name": "C#4",
                    "midi": 61,
                    "time": 53.64375000000015,
                    "velocity": 0.84251968503937,
                    "duration": 0.11875000000000568
                },
                {
                    "name": "A3",
                    "midi": 57,
                    "time": 53.72708333333349,
                    "velocity": 0.6614173228346457,
                    "duration": 0.07500000000000284
                },
                {
                    "name": "E2",
                    "midi": 40,
                    "time": 53.86458333333349,
                    "velocity": 0.8740157480314961,
                    "duration": 0.46041666666666714
                },
                {
                    "name": "D5",
                    "midi": 74,
                    "time": 53.997916666666825,
                    "velocity": 0.84251968503937,
                    "duration": 0.2562499999999943
                },
                {
                    "name": "A#4",
                    "midi": 70,
                    "time": 54.20000000000015,
                    "velocity": 0.7086614173228346,
                    "duration": 0.16875000000000995
                },
                {
                    "name": "F#4",
                    "midi": 66,
                    "time": 54.32083333333349,
                    "velocity": 0.6929133858267716,
                    "duration": 0.11041666666667282
                },
                {
                    "name": "D4",
                    "midi": 62,
                    "time": 54.43125000000016,
                    "velocity": 0.5590551181102362,
                    "duration": 0.0833333333333357
                },
                {
                    "name": "G4",
                    "midi": 67,
                    "time": 54.58750000000016,
                    "velocity": 0.6692913385826772,
                    "duration": 0.12291666666666146
                },
                {
                    "name": "D4",
                    "midi": 62,
                    "time": 54.691666666666826,
                    "velocity": 0.6535433070866141,
                    "duration": 0.12708333333333144
                },
                {
                    "name": "A#3",
                    "midi": 58,
                    "time": 54.84583333333349,
                    "velocity": 0.6535433070866141,
                    "duration": 0.12916666666666998
                },
                {
                    "name": "G3",
                    "midi": 55,
                    "time": 54.97708333333349,
                    "velocity": 0.3700787401574803,
                    "duration": 0.10000000000000142
                },
                {
                    "name": "E1",
                    "midi": 28,
                    "time": 55.212500000000155,
                    "velocity": 0.8740157480314961,
                    "duration": 0.44999999999999574
                },
                {
                    "name": "D5",
                    "midi": 74,
                    "time": 55.51666666666682,
                    "velocity": 0.5826771653543307,
                    "duration": 0.10624999999999574
                },
                {
                    "name": "G5",
                    "midi": 79,
                    "time": 55.61250000000015,
                    "velocity": 0.49606299212598426,
                    "duration": 0.09999999999999432
                },
                {
                    "name": "E2",
                    "midi": 40,
                    "time": 55.65416666666682,
                    "velocity": 0.5984251968503937,
                    "duration": 0.07499999999999574
                },
                {
                    "name": "A#5",
                    "midi": 82,
                    "time": 55.66250000000015,
                    "velocity": 0.6299212598425197,
                    "duration": 0.09999999999999432
                },
                {
                    "name": "D6",
                    "midi": 86,
                    "time": 55.71458333333348,
                    "velocity": 0.7874015748031497,
                    "duration": 0.08124999999999716
                },
                {
                    "name": "A#5",
                    "midi": 82,
                    "time": 55.987500000000146,
                    "velocity": 0.3858267716535433,
                    "duration": 0.14791666666666714
                },
                {
                    "name": "D6",
                    "midi": 86,
                    "time": 56.00416666666681,
                    "velocity": 0.2204724409448819,
                    "duration": 0.1145833333333357
                },
                {
                    "name": "G5",
                    "midi": 79,
                    "time": 56.00833333333348,
                    "velocity": 0.06299212598425197,
                    "duration": 0.12708333333333144
                },
                {
                    "name": "D4",
                    "midi": 62,
                    "time": 56.08958333333348,
                    "velocity": 0.7165354330708661,
                    "duration": 0.04375000000000284
                },
                {
                    "name": "A#3",
                    "midi": 58,
                    "time": 56.09791666666681,
                    "velocity": 0.6535433070866141,
                    "duration": 0.05833333333333712
                },
                {
                    "name": "F#5",
                    "midi": 78,
                    "time": 56.112500000000146,
                    "velocity": 0.3228346456692913,
                    "duration": 0.10000000000000142
                },
                {
                    "name": "F#5",
                    "midi": 78,
                    "time": 56.22083333333348,
                    "velocity": 0.84251968503937,
                    "duration": 0.125
                },
                {
                    "name": "D5",
                    "midi": 74,
                    "time": 56.22500000000015,
                    "velocity": 0.7559055118110236,
                    "duration": 0.09583333333333144
                },
                {
                    "name": "G5",
                    "midi": 79,
                    "time": 56.241666666666816,
                    "velocity": 0.29133858267716534,
                    "duration": 0.12083333333333002
                },
                {
                    "name": "A5",
                    "midi": 81,
                    "time": 56.360416666666815,
                    "velocity": 0.11811023622047244,
                    "duration": 0.36249999999999005
                },
                {
                    "name": "F#5",
                    "midi": 78,
                    "time": 56.37083333333348,
                    "velocity": 0.33858267716535434,
                    "duration": 0.06249999999998579
                },
                {
                    "name": "C6",
                    "midi": 84,
                    "time": 56.40000000000014,
                    "velocity": 0.84251968503937,
                    "duration": 0.2812499999999929
                },
                {
                    "name": "E2",
                    "midi": 40,
                    "time": 56.404166666666804,
                    "velocity": 0.7322834645669292,
                    "duration": 0.31041666666666146
                },
                {
                    "name": "C#6",
                    "midi": 85,
                    "time": 56.406250000000135,
                    "velocity": 0.5511811023622047,
                    "duration": 0.08958333333333002
                },
                {
                    "name": "G5",
                    "midi": 79,
                    "time": 56.45625000000013,
                    "velocity": 0.33858267716535434,
                    "duration": 0.09375
                },
                {
                    "name": "F#5",
                    "midi": 78,
                    "time": 56.53958333333347,
                    "velocity": 0.4330708661417323,
                    "duration": 0.07499999999999574
                },
                {
                    "name": "C#6",
                    "midi": 85,
                    "time": 56.589583333333465,
                    "velocity": 0.36220472440944884,
                    "duration": 0.0625
                },
                {
                    "name": "D6",
                    "midi": 86,
                    "time": 56.5916666666668,
                    "velocity": 0.28346456692913385,
                    "duration": 0.05624999999999858
                },
                {
                    "name": "G5",
                    "midi": 79,
                    "time": 56.63125000000013,
                    "velocity": 0.41732283464566927,
                    "duration": 0.09166666666667567
                },
                {
                    "name": "F#5",
                    "midi": 78,
                    "time": 56.70625000000013,
                    "velocity": 0.5275590551181102,
                    "duration": 0.0625000000000071
                },
                {
                    "name": "E3",
                    "midi": 52,
                    "time": 56.718750000000135,
                    "velocity": 0.7874015748031497,
                    "duration": 0.06458333333333854
                },
                {
                    "name": "D6",
                    "midi": 86,
                    "time": 56.73333333333347,
                    "velocity": 0.44881889763779526,
                    "duration": 0.056250000000005684
                },
                {
                    "name": "G5",
                    "midi": 79,
                    "time": 56.791666666666806,
                    "velocity": 0.44881889763779526,
                    "duration": 0.0833333333333286
                },
                {
                    "name": "A5",
                    "midi": 81,
                    "time": 56.80833333333347,
                    "velocity": 0.44881889763779526,
                    "duration": 0.06874999999999432
                },
                {
                    "name": "F#5",
                    "midi": 78,
                    "time": 56.85833333333347,
                    "velocity": 0.6535433070866141,
                    "duration": 0.060416666666661456
                },
                {
                    "name": "C#6",
                    "midi": 85,
                    "time": 56.868750000000134,
                    "velocity": 0.5118110236220472,
                    "duration": 0.08124999999999716
                },
                {
                    "name": "D6",
                    "midi": 86,
                    "time": 56.8791666666668,
                    "velocity": 0.3937007874015748,
                    "duration": 0.04583333333333428
                },
                {
                    "name": "G5",
                    "midi": 79,
                    "time": 56.939583333333466,
                    "velocity": 0.5905511811023622,
                    "duration": 0.08541666666666714
                },
                {
                    "name": "A5",
                    "midi": 81,
                    "time": 56.9479166666668,
                    "velocity": 0.5118110236220472,
                    "duration": 0.07083333333333286
                },
                {
                    "name": "F#5",
                    "midi": 78,
                    "time": 56.993750000000134,
                    "velocity": 0.6614173228346457,
                    "duration": 0.0729166666666643
                },
                {
                    "name": "D5",
                    "midi": 74,
                    "time": 57.0041666666668,
                    "velocity": 0.49606299212598426,
                    "duration": 0.09583333333333854
                },
                {
                    "name": "A#5",
                    "midi": 82,
                    "time": 57.0041666666668,
                    "velocity": 0.03937007874015748,
                    "duration": 0.4354166666666828
                },
                {
                    "name": "C#6",
                    "midi": 85,
                    "time": 57.0104166666668,
                    "velocity": 0.6456692913385826,
                    "duration": 0.07708333333333428
                },
                {
                    "name": "D6",
                    "midi": 86,
                    "time": 57.01250000000013,
                    "velocity": 0.5275590551181102,
                    "duration": 0.06041666666666856
                },
                {
                    "name": "A#3",
                    "midi": 58,
                    "time": 57.020833333333464,
                    "velocity": 0.5590551181102362,
                    "duration": 0.06041666666666856
                },
                {
                    "name": "D4",
                    "midi": 62,
                    "time": 57.027083333333465,
                    "velocity": 0.6614173228346457,
                    "duration": 0.04583333333333428
                },
                {
                    "name": "G5",
                    "midi": 79,
                    "time": 57.054166666666795,
                    "velocity": 0.6299212598425197,
                    "duration": 0.11041666666668704
                },
                {
                    "name": "A5",
                    "midi": 81,
                    "time": 57.0854166666668,
                    "velocity": 0.5590551181102362,
                    "duration": 0.07500000000000995
                },
                {
                    "name": "F#5",
                    "midi": 78,
                    "time": 57.135416666666806,
                    "velocity": 0.6299212598425197,
                    "duration": 0.07708333333334139
                },
                {
                    "name": "C#6",
                    "midi": 85,
                    "time": 57.14791666666681,
                    "velocity": 0.6929133858267716,
                    "duration": 0.08125000000000426
                },
                {
                    "name": "D6",
                    "midi": 86,
                    "time": 57.16041666666681,
                    "velocity": 0.5511811023622047,
                    "duration": 0.04583333333333428
                },
                {
                    "name": "A5",
                    "midi": 81,
                    "time": 57.22083333333348,
                    "velocity": 0.5433070866141733,
                    "duration": 0.08749999999999858
                },
                {
                    "name": "G5",
                    "midi": 79,
                    "time": 57.22916666666681,
                    "velocity": 0.5984251968503937,
                    "duration": 0.08958333333333712
                },
                {
                    "name": "F#5",
                    "midi": 78,
                    "time": 57.297916666666815,
                    "velocity": 0.5669291338582677,
                    "duration": 0.07916666666666572
                },
                {
                    "name": "C#6",
                    "midi": 85,
                    "time": 57.297916666666815,
                    "velocity": 0.5511811023622047,
                    "duration": 0.10833333333333428
                },
                {
                    "name": "D6",
                    "midi": 86,
                    "time": 57.31250000000015,
                    "velocity": 0.5905511811023622,
                    "duration": 0.08541666666666714
                },
                {
                    "name": "E1",
                    "midi": 28,
                    "time": 57.38333333333348,
                    "velocity": 0.7401574803149606,
                    "duration": 0.38750000000000284
                },
                {
                    "name": "G5",
                    "midi": 79,
                    "time": 57.391666666666815,
                    "velocity": 0.4645669291338583,
                    "duration": 0.07708333333332718
                },
                {
                    "name": "A5",
                    "midi": 81,
                    "time": 57.397916666666816,
                    "velocity": 0.31496062992125984,
                    "duration": 0.062499999999992895
                },
                {
                    "name": "F#5",
                    "midi": 78,
                    "time": 57.44791666666681,
                    "velocity": 0.4881889763779528,
                    "duration": 0.0625
                },
                {
                    "name": "G4",
                    "midi": 67,
                    "time": 57.56250000000015,
                    "velocity": 0.5590551181102362,
                    "duration": 0.06874999999999432
                },
                {
                    "name": "A#4",
                    "midi": 70,
                    "time": 57.581250000000146,
                    "velocity": 0.7874015748031497,
                    "duration": 0.07499999999999574
                },
                {
                    "name": "D5",
                    "midi": 74,
                    "time": 57.64166666666681,
                    "velocity": 0.4094488188976378,
                    "duration": 0.06875000000000142
                },
                {
                    "name": "F#5",
                    "midi": 78,
                    "time": 57.68541666666681,
                    "velocity": 0.6771653543307087,
                    "duration": 0.13750000000000995
                },
                {
                    "name": "D5",
                    "midi": 74,
                    "time": 57.731250000000145,
                    "velocity": 0.4330708661417323,
                    "duration": 0.08333333333334281
                },
                {
                    "name": "A#5",
                    "midi": 82,
                    "time": 57.75208333333348,
                    "velocity": 0.6692913385826772,
                    "duration": 0.09791666666666998
                },
                {
                    "name": "A5",
                    "midi": 81,
                    "time": 57.75833333333348,
                    "velocity": 0.7874015748031497,
                    "duration": 0.11249999999999716
                },
                {
                    "name": "G5",
                    "midi": 79,
                    "time": 57.76250000000015,
                    "velocity": 0.5511811023622047,
                    "duration": 0.10624999999999574
                },
                {
                    "name": "E2",
                    "midi": 40,
                    "time": 57.76458333333348,
                    "velocity": 0.6614173228346457,
                    "duration": 0.06666666666666998
                },
                {
                    "name": "C#5",
                    "midi": 73,
                    "time": 57.82916666666682,
                    "velocity": 0.4015748031496063,
                    "duration": 0.04374999999998863
                },
                {
                    "name": "F#5",
                    "midi": 78,
                    "time": 57.88541666666681,
                    "velocity": 0.2677165354330709,
                    "duration": 0.0416666666666643
                },
                {
                    "name": "D5",
                    "midi": 74,
                    "time": 57.893750000000146,
                    "velocity": 0.4645669291338583,
                    "duration": 0.07708333333333428
                },
                {
                    "name": "A#5",
                    "midi": 82,
                    "time": 57.92916666666681,
                    "velocity": 0.4251968503937008,
                    "duration": 0.06666666666667709
                },
                {
                    "name": "A5",
                    "midi": 81,
                    "time": 57.93541666666681,
                    "velocity": 0.4251968503937008,
                    "duration": 0.0625000000000071
                },
                {
                    "name": "C#5",
                    "midi": 73,
                    "time": 57.97500000000015,
                    "velocity": 0.6062992125984252,
                    "duration": 0.03958333333333286
                },
                {
                    "name": "F#5",
                    "midi": 78,
                    "time": 58.01250000000015,
                    "velocity": 0.3700787401574803,
                    "duration": 0.060416666666661456
                },
                {
                    "name": "D5",
                    "midi": 74,
                    "time": 58.04583333333348,
                    "velocity": 0.5354330708661418,
                    "duration": 0.07499999999999574
                },
                {
                    "name": "A#5",
                    "midi": 82,
                    "time": 58.079166666666815,
                    "velocity": 0.4330708661417323,
                    "duration": 0.06666666666666288
                },
                {
                    "name": "D4",
                    "midi": 62,
                    "time": 58.09583333333348,
                    "velocity": 0.7086614173228346,
                    "duration": 0.05833333333333002
                },
                {
                    "name": "A#3",
                    "midi": 58,
                    "time": 58.09791666666681,
                    "velocity": 0.5748031496062992,
                    "duration": 0.04583333333333428
                },
                {
                    "name": "A5",
                    "midi": 81,
                    "time": 58.110416666666815,
                    "velocity": 0.2677165354330709,
                    "duration": 0.060416666666661456
                },
                {
                    "name": "C#5",
                    "midi": 73,
                    "time": 58.12083333333348,
                    "velocity": 0.6299212598425197,
                    "duration": 0.03958333333333286
                },
                {
                    "name": "G5",
                    "midi": 79,
                    "time": 58.12500000000015,
                    "velocity": 0.03937007874015748,
                    "duration": 0.07916666666665861
                },
                {
                    "name": "F#5",
                    "midi": 78,
                    "time": 58.17291666666681,
                    "velocity": 0.5118110236220472,
                    "duration": 0.060416666666661456
                },
                {
                    "name": "D5",
                    "midi": 74,
                    "time": 58.18541666666681,
                    "velocity": 0.5275590551181102,
                    "duration": 0.08749999999999147
                },
                {
                    "name": "A4",
                    "midi": 69,
                    "time": 58.229166666666806,
                    "velocity": 0.6535433070866141,
                    "duration": 0.26874999999999716
                },
                {
                    "name": "C#5",
                    "midi": 73,
                    "time": 58.23125000000014,
                    "velocity": 0.7874015748031497,
                    "duration": 0.5104166666666643
                },
                {
                    "name": "A#5",
                    "midi": 82,
                    "time": 58.2354166666668,
                    "velocity": 0.48031496062992124,
                    "duration": 0.06666666666666998
                },
                {
                    "name": "G5",
                    "midi": 79,
                    "time": 58.287500000000136,
                    "velocity": 0.2677165354330709,
                    "duration": 0.22708333333333997
                },
                {
                    "name": "F#5",
                    "midi": 78,
                    "time": 58.3041666666668,
                    "velocity": 0.4251968503937008,
                    "duration": 0.08124999999999716
                },
                {
                    "name": "D5",
                    "midi": 74,
                    "time": 58.32083333333347,
                    "velocity": 0.5354330708661418,
                    "duration": 0.10000000000000142
                },
                {
                    "name": "F#5",
                    "midi": 78,
                    "time": 58.3854166666668,
                    "velocity": 0.7874015748031497,
                    "duration": 0.3895833333333343
                },
                {
                    "name": "E2",
                    "midi": 40,
                    "time": 58.38958333333347,
                    "velocity": 0.6614173228346457,
                    "duration": 0.30416666666666714
                },
                {
                    "name": "A#5",
                    "midi": 82,
                    "time": 58.3916666666668,
                    "velocity": 0.48031496062992124,
                    "duration": 0.06041666666666856
                },
                {
                    "name": "A5",
                    "midi": 81,
                    "time": 58.3979166666668,
                    "velocity": 0.8188976377952756,
                    "duration": 0.27291666666666714
                },
                {
                    "name": "D5",
                    "midi": 74,
                    "time": 58.4604166666668,
                    "velocity": 0.4566929133858268,
                    "duration": 0.09583333333333854
                },
                {
                    "name": "A#5",
                    "midi": 82,
                    "time": 58.54791666666681,
                    "velocity": 0.4015748031496063,
                    "duration": 0.05833333333333002
                },
                {
                    "name": "D5",
                    "midi": 74,
                    "time": 58.60625000000014,
                    "velocity": 0.49606299212598426,
                    "duration": 0.10208333333333286
                },
                {
                    "name": "G5",
                    "midi": 79,
                    "time": 58.6166666666668,
                    "velocity": 0.09448818897637795,
                    "duration": 0.07500000000000284
                },
                {
                    "name": "E3",
                    "midi": 52,
                    "time": 58.697916666666806,
                    "velocity": 0.6850393700787402,
                    "duration": 0.05833333333333002
                },
                {
                    "name": "A#5",
                    "midi": 82,
                    "time": 58.71458333333347,
                    "velocity": 0.2755905511811024,
                    "duration": 0.052083333333328596
                },
                {
                    "name": "D5",
                    "midi": 74,
                    "time": 58.754166666666805,
                    "velocity": 0.44881889763779526,
                    "duration": 0.09583333333333144
                },
                {
                    "name": "G5",
                    "midi": 79,
                    "time": 58.76875000000013,
                    "velocity": 0.047244094488188976,
                    "duration": 0.22708333333333286
                },
                {
                    "name": "F#5",
                    "midi": 78,
                    "time": 58.781250000000135,
                    "velocity": 0.33858267716535434,
                    "duration": 0.08125000000000426
                },
                {
                    "name": "C#5",
                    "midi": 73,
                    "time": 58.814583333333466,
                    "velocity": 0.5354330708661418,
                    "duration": 0.08125000000000426
                },
                {
                    "name": "A#5",
                    "midi": 82,
                    "time": 58.85833333333347,
                    "velocity": 0.4330708661417323,
                    "duration": 0.07499999999999574
                },
                {
                    "name": "D5",
                    "midi": 74,
                    "time": 58.906250000000135,
                    "velocity": 0.5354330708661418,
                    "duration": 0.10208333333333286
                },
                {
                    "name": "F#5",
                    "midi": 78,
                    "time": 58.9416666666668,
                    "velocity": 0.2283464566929134,
                    "duration": 0.07916666666667282
                },
                {
                    "name": "C#5",
                    "midi": 73,
                    "time": 58.9791666666668,
                    "velocity": 0.4566929133858268,
                    "duration": 0.09375000000001421
                },
                {
                    "name": "A#5",
                    "midi": 82,
                    "time": 59.02500000000014,
                    "velocity": 0.49606299212598426,
                    "duration": 0.13750000000000284
                },
                {
                    "name": "A#3",
                    "midi": 58,
                    "time": 59.06041666666681,
                    "velocity": 0.6299212598425197,
                    "duration": 0.06875000000000142
                },
                {
                    "name": "D4",
                    "midi": 62,
                    "time": 59.06458333333348,
                    "velocity": 0.5590551181102362,
                    "duration": 0.03958333333333286
                },
                {
                    "name": "G5",
                    "midi": 79,
                    "time": 59.08333333333348,
                    "velocity": 0.6929133858267716,
                    "duration": 0.11249999999999716
                },
                {
                    "name": "D5",
                    "midi": 74,
                    "time": 59.08541666666681,
                    "velocity": 0.4881889763779528,
                    "duration": 0.16458333333333286
                },
                {
                    "name": "A#4",
                    "midi": 70,
                    "time": 59.08958333333348,
                    "velocity": 0.5669291338582677,
                    "duration": 0.05416666666666714
                },
                {
                    "name": "F#5",
                    "midi": 78,
                    "time": 59.141666666666815,
                    "velocity": 0.36220472440944884,
                    "duration": 0.08541666666666003
                },
                {
                    "name": "C#5",
                    "midi": 73,
                    "time": 59.18125000000014,
                    "velocity": 0.5039370078740157,
                    "duration": 0.11666666666666714
                },
                {
                    "name": "E1",
                    "midi": 28,
                    "time": 59.447916666666806,
                    "velocity": 0.7401574803149606,
                    "duration": 0.4791666666666714
                },
                {
                    "name": "D4",
                    "midi": 62,
                    "time": 59.63125000000014,
                    "velocity": 0.4330708661417323,
                    "duration": 0.09166666666666856
                },
                {
                    "name": "G#4",
                    "midi": 68,
                    "time": 59.68333333333348,
                    "velocity": 0.3858267716535433,
                    "duration": 0.10833333333332718
                },
                {
                    "name": "A#4",
                    "midi": 70,
                    "time": 59.71041666666681,
                    "velocity": 0.5118110236220472,
                    "duration": 0.09791666666666998
                },
                {
                    "name": "D5",
                    "midi": 74,
                    "time": 59.73958333333348,
                    "velocity": 0.2204724409448819,
                    "duration": 0.05624999999999858
                },
                {
                    "name": "G4",
                    "midi": 67,
                    "time": 59.78125000000014,
                    "velocity": 0.4409448818897638,
                    "duration": 0.08958333333333712
                },
                {
                    "name": "D5",
                    "midi": 74,
                    "time": 59.81458333333348,
                    "velocity": 0.6220472440944882,
                    "duration": 0.12916666666666288
                },
                {
                    "name": "G#4",
                    "midi": 68,
                    "time": 59.87291666666681,
                    "velocity": 0.5039370078740157,
                    "duration": 0.04791666666666572
                },
                {
                    "name": "F5",
                    "midi": 77,
                    "time": 59.887500000000145,
                    "velocity": 0.6456692913385826,
                    "duration": 0.09166666666666856
                },
                {
                    "name": "C#5",
                    "midi": 73,
                    "time": 59.89791666666681,
                    "velocity": 0.4566929133858268,
                    "duration": 0.05000000000000426
                },
                {
                    "name": "E2",
                    "midi": 40,
                    "time": 59.918750000000145,
                    "velocity": 0.5669291338582677,
                    "duration": 0.07708333333333428
                },
                {
                    "name": "G4",
                    "midi": 67,
                    "time": 59.95208333333348,
                    "velocity": 0.4251968503937008,
                    "duration": 0.08124999999999716
                },
                {
                    "name": "A4",
                    "midi": 69,
                    "time": 59.96875000000015,
                    "velocity": 0.33858267716535434,
                    "duration": 0.07499999999999574
                },
                {
                    "name": "G#4",
                    "midi": 68,
                    "time": 60.02500000000015,
                    "velocity": 0.6299212598425197,
                    "duration": 0.045833333333327175
                },
                {
                    "name": "C#5",
                    "midi": 73,
                    "time": 60.03541666666681,
                    "velocity": 0.5039370078740157,
                    "duration": 0.07499999999999574
                },
                {
                    "name": "D5",
                    "midi": 74,
                    "time": 60.03750000000014,
                    "velocity": 0.3858267716535433,
                    "duration": 0.05624999999999858
                },
                {
                    "name": "A#4",
                    "midi": 70,
                    "time": 60.06875000000014,
                    "velocity": 0.03937007874015748,
                    "duration": 0.07499999999999574
                },
                {
                    "name": "G4",
                    "midi": 67,
                    "time": 60.09583333333347,
                    "velocity": 0.5354330708661418,
                    "duration": 0.08958333333333002
                },
                {
                    "name": "A4",
                    "midi": 69,
                    "time": 60.11041666666681,
                    "velocity": 0.44881889763779526,
                    "duration": 0.07708333333332718
                },
                {
                    "name": "G#4",
                    "midi": 68,
                    "time": 60.17500000000014,
                    "velocity": 0.6062992125984252,
                    "duration": 0.0416666666666643
                },
                {
                    "name": "C#5",
                    "midi": 73,
                    "time": 60.193750000000136,
                    "velocity": 0.5354330708661418,
                    "duration": 0.15416666666666856
                },
                {
                    "name": "D5",
                    "midi": 74,
                    "time": 60.19583333333347,
                    "velocity": 0.2677165354330709,
                    "duration": 0.06041666666666856
                },
                {
                    "name": "G4",
                    "midi": 67,
                    "time": 60.23125000000014,
                    "velocity": 0.3937007874015748,
                    "duration": 0.08958333333333002
                },
                {
                    "name": "A#4",
                    "midi": 70,
                    "time": 60.23333333333347,
                    "velocity": 0.3464566929133858,
                    "duration": 0.10625000000000284
                },
                {
                    "name": "A4",
                    "midi": 69,
                    "time": 60.24583333333347,
                    "velocity": 0.5590551181102362,
                    "duration": 0.14791666666666003
                },
                {
                    "name": "G#4",
                    "midi": 68,
                    "time": 60.29375000000014,
                    "velocity": 0.6850393700787402,
                    "duration": 0.06875000000000142
                },
                {
                    "name": "D4",
                    "midi": 62,
                    "time": 60.318750000000136,
                    "velocity": 0.6614173228346457,
                    "duration": 0.05624999999999858
                },
                {
                    "name": "A#3",
                    "midi": 58,
                    "time": 60.32708333333347,
                    "velocity": 0.5275590551181102,
                    "duration": 0.04999999999999716
                },
                {
                    "name": "G4",
                    "midi": 67,
                    "time": 60.372916666666804,
                    "velocity": 0.5984251968503937,
                    "duration": 0.07083333333332575
                },
                {
                    "name": "E4",
                    "midi": 64,
                    "time": 60.4479166666668,
                    "velocity": 0.6377952755905512,
                    "duration": 0.11874999999999858
                },
                {
                    "name": "G4",
                    "midi": 67,
                    "time": 60.45625000000013,
                    "velocity": 0.6614173228346457,
                    "duration": 0.40833333333333854
                },
                {
                    "name": "G#4",
                    "midi": 68,
                    "time": 60.4854166666668,
                    "velocity": 0.3937007874015748,
                    "duration": 0.05416666666666714
                },
                {
                    "name": "C#5",
                    "midi": 73,
                    "time": 60.60625000000013,
                    "velocity": 0.7480314960629921,
                    "duration": 0.4166666666666714
                },
                {
                    "name": "E5",
                    "midi": 76,
                    "time": 60.620833333333465,
                    "velocity": 0.7874015748031497,
                    "duration": 0.2708333333333357
                },
                {
                    "name": "A#4",
                    "midi": 70,
                    "time": 60.620833333333465,
                    "velocity": 0.5826771653543307,
                    "duration": 0.1041666666666714
                },
                {
                    "name": "E2",
                    "midi": 40,
                    "time": 60.6291666666668,
                    "velocity": 0.6771653543307087,
                    "duration": 0.3083333333333371
                },
                {
                    "name": "G#4",
                    "midi": 68,
                    "time": 60.63333333333347,
                    "velocity": 0.3858267716535433,
                    "duration": 0.14375000000000426
                },
                {
                    "name": "D4",
                    "midi": 62,
                    "time": 60.63750000000014,
                    "velocity": 0.4251968503937008,
                    "duration": 0.13333333333333286
                },
                {
                    "name": "C#4",
                    "midi": 61,
                    "time": 60.79583333333347,
                    "velocity": 0.44881889763779526,
                    "duration": 0.10833333333333428
                },
                {
                    "name": "A#4",
                    "midi": 70,
                    "time": 60.83333333333347,
                    "velocity": 0.2047244094488189,
                    "duration": 0.06666666666666288
                },
                {
                    "name": "G#4",
                    "midi": 68,
                    "time": 60.88333333333347,
                    "velocity": 0.4015748031496063,
                    "duration": 0.1708333333333414
                },
                {
                    "name": "G4",
                    "midi": 67,
                    "time": 60.931250000000134,
                    "velocity": 0.03937007874015748,
                    "duration": 0.0520833333333357
                },
                {
                    "name": "E3",
                    "midi": 52,
                    "time": 60.933333333333465,
                    "velocity": 0.8110236220472441,
                    "duration": 0.0729166666666714
                },
                {
                    "name": "D4",
                    "midi": 62,
                    "time": 60.933333333333465,
                    "velocity": 0.30708661417322836,
                    "duration": 0.0520833333333357
                },
                {
                    "name": "A#4",
                    "midi": 70,
                    "time": 60.9854166666668,
                    "velocity": 0.4330708661417323,
                    "duration": 0.06458333333333854
                },
                {
                    "name": "C#4",
                    "midi": 61,
                    "time": 60.98958333333347,
                    "velocity": 0.5039370078740157,
                    "duration": 0.05624999999999858
                },
                {
                    "name": "D4",
                    "midi": 62,
                    "time": 61.04583333333347,
                    "velocity": 0.4409448818897638,
                    "duration": 0.09166666666667567
                },
                {
                    "name": "G#4",
                    "midi": 68,
                    "time": 61.06250000000014,
                    "velocity": 0.7795275590551181,
                    "duration": 0.12916666666666998
                },
                {
                    "name": "G4",
                    "midi": 67,
                    "time": 61.06458333333347,
                    "velocity": 0.49606299212598426,
                    "duration": 0.0729166666666714
                },
                {
                    "name": "F4",
                    "midi": 65,
                    "time": 61.06875000000014,
                    "velocity": 0.6692913385826772,
                    "duration": 0.09583333333333144
                },
                {
                    "name": "C#4",
                    "midi": 61,
                    "time": 61.12708333333347,
                    "velocity": 0.47244094488188976,
                    "duration": 0.04375000000000284
                },
                {
                    "name": "A#4",
                    "midi": 70,
                    "time": 61.13125000000014,
                    "velocity": 0.5275590551181102,
                    "duration": 0.08124999999999716
                },
                {
                    "name": "D4",
                    "midi": 62,
                    "time": 61.17916666666681,
                    "velocity": 0.41732283464566927,
                    "duration": 0.10624999999999574
                },
                {
                    "name": "G#4",
                    "midi": 68,
                    "time": 61.21041666666681,
                    "velocity": 0.03937007874015748,
                    "duration": 0.19166666666665577
                },
                {
                    "name": "G4",
                    "midi": 67,
                    "time": 61.222916666666805,
                    "velocity": 0.3228346456692913,
                    "duration": 0.17916666666666003
                },
                {
                    "name": "D5",
                    "midi": 74,
                    "time": 61.23541666666681,
                    "velocity": 0.8582677165354331,
                    "duration": 0.20208333333332007
                },
                {
                    "name": "A#4",
                    "midi": 70,
                    "time": 61.24375000000014,
                    "velocity": 0.8188976377952756,
                    "duration": 0.21666666666665435
                },
                {
                    "name": "A#3",
                    "midi": 58,
                    "time": 61.24375000000014,
                    "velocity": 0.6377952755905512,
                    "duration": 0.060416666666661456
                },
                {
                    "name": "C#4",
                    "midi": 61,
                    "time": 61.26875000000014,
                    "velocity": 0.48031496062992124,
                    "duration": 0.04374999999999574
                },
                {
                    "name": "A4",
                    "midi": 69,
                    "time": 61.32500000000014,
                    "velocity": 0.14173228346456693,
                    "duration": 0.06874999999999432
                },
                {
                    "name": "D4",
                    "midi": 62,
                    "time": 61.343750000000135,
                    "velocity": 0.4881889763779528,
                    "duration": 0.08749999999999147
                },
                {
                    "name": "C#4",
                    "midi": 61,
                    "time": 61.41250000000013,
                    "velocity": 0.5354330708661418,
                    "duration": 0.06666666666666288
                },
                {
                    "name": "D4",
                    "midi": 62,
                    "time": 61.50833333333346,
                    "velocity": 0.5118110236220472,
                    "duration": 0.04583333333333428
                },
                {
                    "name": "E1",
                    "midi": 28,
                    "time": 61.57291666666679,
                    "velocity": 0.7716535433070866,
                    "duration": 0.3645833333333428
                },
                {
                    "name": "A#3",
                    "midi": 58,
                    "time": 61.641666666666794,
                    "velocity": 0.5118110236220472,
                    "duration": 0.0833333333333357
                },
                {
                    "name": "D4",
                    "midi": 62,
                    "time": 61.65625000000013,
                    "velocity": 0.5433070866141733,
                    "duration": 0.09583333333333854
                },
                {
                    "name": "C#4",
                    "midi": 61,
                    "time": 61.71458333333346,
                    "velocity": 0.7952755905511811,
                    "duration": 0.11875000000001279
                },
                {
                    "name": "E4",
                    "midi": 64,
                    "time": 61.71875000000013,
                    "velocity": 0.7244094488188977,
                    "duration": 0.16458333333333997
                },
                {
                    "name": "A3",
                    "midi": 57,
                    "time": 61.7479166666668,
                    "velocity": 0.36220472440944884,
                    "duration": 0.07916666666667282
                },
                {
                    "name": "D4",
                    "midi": 62,
                    "time": 61.85833333333347,
                    "velocity": 0.36220472440944884,
                    "duration": 0.08124999999999716
                },
                {
                    "name": "A#3",
                    "midi": 58,
                    "time": 61.85833333333347,
                    "velocity": 0.3858267716535433,
                    "duration": 0.0833333333333286
                },
                {
                    "name": "A#4",
                    "midi": 70,
                    "time": 61.88333333333347,
                    "velocity": 0.8661417322834646,
                    "duration": 0.13749999999999574
                },
                {
                    "name": "F4",
                    "midi": 65,
                    "time": 61.8916666666668,
                    "velocity": 0.7874015748031497,
                    "duration": 0.13333333333332575
                },
                {
                    "name": "E2",
                    "midi": 40,
                    "time": 61.89583333333347,
                    "velocity": 0.7086614173228346,
                    "duration": 0.09583333333332433
                },
                {
                    "name": "C#4",
                    "midi": 61,
                    "time": 61.9416666666668,
                    "velocity": 0.5511811023622047,
                    "duration": 0.06666666666666288
                },
                {
                    "name": "A3",
                    "midi": 57,
                    "time": 61.94375000000013,
                    "velocity": 0.49606299212598426,
                    "duration": 0.07083333333333286
                },
                {
                    "name": "A#3",
                    "midi": 58,
                    "time": 62.022916666666795,
                    "velocity": 0.5511811023622047,
                    "duration": 0.09791666666666288
                },
                {
                    "name": "C#4",
                    "midi": 61,
                    "time": 62.11458333333346,
                    "velocity": 0.47244094488188976,
                    "duration": 0.08125000000000426
                },
                {
                    "name": "A#3",
                    "midi": 58,
                    "time": 62.241666666666795,
                    "velocity": 0.2204724409448819,
                    "duration": 0.0833333333333357
                },
                {
                    "name": "D3",
                    "midi": 50,
                    "time": 62.270833333333464,
                    "velocity": 0.6614173228346457,
                    "duration": 0.06666666666666998
                },
                {
                    "name": "C#4",
                    "midi": 61,
                    "time": 62.3229166666668,
                    "velocity": 0.23622047244094488,
                    "duration": 0.17083333333333428
                },
                {
                    "name": "D4",
                    "midi": 62,
                    "time": 62.38958333333347,
                    "velocity": 0.03937007874015748,
                    "duration": 0.13124999999999432
                },
                {
                    "name": "G#3",
                    "midi": 56,
                    "time": 62.4229166666668,
                    "velocity": 0.5433070866141733,
                    "duration": 0.1249999999999929
                },
                {
                    "name": "A#3",
                    "midi": 58,
                    "time": 62.547916666666794,
                    "velocity": 0.2047244094488189,
                    "duration": 0.49166666666666003
                },
                {
                    "name": "E1",
                    "midi": 28,
                    "time": 62.68750000000013,
                    "velocity": 0.6377952755905512,
                    "duration": 0.22708333333332575
                },
                {
                    "name": "E2",
                    "midi": 40,
                    "time": 62.88125000000012,
                    "velocity": 0.5039370078740157,
                    "duration": 0.10000000000000142
                },
                {
                    "name": "E1",
                    "midi": 28,
                    "time": 63.02291666666679,
                    "velocity": 0.5039370078740157,
                    "duration": 0.06666666666666998
                },
                {
                    "name": "E2",
                    "midi": 40,
                    "time": 63.075000000000124,
                    "velocity": 0.5669291338582677,
                    "duration": 0.08749999999999858
                },
                {
                    "name": "E3",
                    "midi": 52,
                    "time": 63.08333333333346,
                    "velocity": 0.44881889763779526,
                    "duration": 0.07499999999999574
                },
                {
                    "name": "C#4",
                    "midi": 61,
                    "time": 63.08750000000013,
                    "velocity": 0.5669291338582677,
                    "duration": 0.10833333333332718
                },
                {
                    "name": "A3",
                    "midi": 57,
                    "time": 63.10000000000012,
                    "velocity": 0.29133858267716534,
                    "duration": 0.06458333333333144
                },
                {
                    "name": "E1",
                    "midi": 28,
                    "time": 63.191666666666784,
                    "velocity": 0.6141732283464567,
                    "duration": 0.07083333333333286
                },
                {
                    "name": "E2",
                    "midi": 40,
                    "time": 63.24375000000012,
                    "velocity": 0.6299212598425197,
                    "duration": 0.09166666666666856
                },
                {
                    "name": "E1",
                    "midi": 28,
                    "time": 63.33125000000012,
                    "velocity": 0.7401574803149606,
                    "duration": 0.09166666666666856
                },
                {
                    "name": "E2",
                    "midi": 40,
                    "time": 63.39583333333346,
                    "velocity": 0.7165354330708661,
                    "duration": 0.10208333333332575
                },
                {
                    "name": "D4",
                    "midi": 62,
                    "time": 63.445833333333454,
                    "velocity": 0.889763779527559,
                    "duration": 0.10833333333332718
                },
                {
                    "name": "A#3",
                    "midi": 58,
                    "time": 63.447916666666785,
                    "velocity": 0.8503937007874016,
                    "duration": 0.07708333333332718
                },
                {
                    "name": "F3",
                    "midi": 53,
                    "time": 63.45416666666679,
                    "velocity": 0.7637795275590551,
                    "duration": 0.0416666666666643
                },
                {
                    "name": "E1",
                    "midi": 28,
                    "time": 63.52291666666678,
                    "velocity": 0.5275590551181102,
                    "duration": 0.16250000000000142
                },
                {
                    "name": "E2",
                    "midi": 40,
                    "time": 63.67708333333345,
                    "velocity": 0.6614173228346457,
                    "duration": 0.08749999999999858
                },
                {
                    "name": "E2",
                    "midi": 40,
                    "time": 63.88958333333345,
                    "velocity": 0.5039370078740157,
                    "duration": 0.20000000000000284
                },
                {
                    "name": "A#4",
                    "midi": 70,
                    "time": 63.89791666666678,
                    "velocity": 0.6299212598425197,
                    "duration": 0.19583333333333286
                },
                {
                    "name": "F4",
                    "midi": 65,
                    "time": 63.89791666666678,
                    "velocity": 0.5984251968503937,
                    "duration": 0.19999999999999574
                },
                {
                    "name": "C#5",
                    "midi": 73,
                    "time": 63.90416666666678,
                    "velocity": 0.7007874015748031,
                    "duration": 0.20624999999999716
                },
                {
                    "name": "E3",
                    "midi": 52,
                    "time": 64.10208333333344,
                    "velocity": 0.25196850393700787,
                    "duration": 0.05833333333333712
                },
                {
                    "name": "E2",
                    "midi": 40,
                    "time": 64.17916666666677,
                    "velocity": 0.5984251968503937,
                    "duration": 0.08333333333334281
                },
                {
                    "name": "E3",
                    "midi": 52,
                    "time": 64.23541666666678,
                    "velocity": 0.5905511811023622,
                    "duration": 0.08333333333334281
                },
                {
                    "name": "E2",
                    "midi": 40,
                    "time": 64.32083333333345,
                    "velocity": 0.7322834645669292,
                    "duration": 0.09583333333333144
                },
                {
                    "name": "E3",
                    "midi": 52,
                    "time": 64.39375000000013,
                    "velocity": 0.7637795275590551,
                    "duration": 0.09374999999998579
                },
                {
                    "name": "A#4",
                    "midi": 70,
                    "time": 64.41875000000012,
                    "velocity": 0.8110236220472441,
                    "duration": 0.054166666666660035
                },
                {
                    "name": "C#5",
                    "midi": 73,
                    "time": 64.41875000000012,
                    "velocity": 0.8110236220472441,
                    "duration": 0.054166666666660035
                },
                {
                    "name": "F4",
                    "midi": 65,
                    "time": 64.42083333333345,
                    "velocity": 0.7165354330708661,
                    "duration": 0.052083333333328596
                },
                {
                    "name": "E2",
                    "midi": 40,
                    "time": 64.48958333333344,
                    "velocity": 0.6692913385826772,
                    "duration": 0.09166666666665435
                },
                {
                    "name": "A#4",
                    "midi": 70,
                    "time": 64.52708333333344,
                    "velocity": 0.8818897637795275,
                    "duration": 0.06249999999998579
                },
                {
                    "name": "C#5",
                    "midi": 73,
                    "time": 64.52916666666677,
                    "velocity": 0.905511811023622,
                    "duration": 0.08749999999999147
                },
                {
                    "name": "F4",
                    "midi": 65,
                    "time": 64.53333333333343,
                    "velocity": 0.7795275590551181,
                    "duration": 0.04999999999999716
                },
                {
                    "name": "E3",
                    "midi": 52,
                    "time": 64.5500000000001,
                    "velocity": 0.6692913385826772,
                    "duration": 0.11041666666666572
                },
                {
                    "name": "E2",
                    "midi": 40,
                    "time": 64.66666666666676,
                    "velocity": 0.6929133858267716,
                    "duration": 0.1041666666666714
                },
                {
                    "name": "E1",
                    "midi": 28,
                    "time": 64.92708333333343,
                    "velocity": 0.6299212598425197,
                    "duration": 0.1874999999999858
                },
                {
                    "name": "E2",
                    "midi": 40,
                    "time": 65.08958333333342,
                    "velocity": 0.5669291338582677,
                    "duration": 0.0999999999999801
                },
                {
                    "name": "F#3",
                    "midi": 54,
                    "time": 65.29166666666674,
                    "velocity": 0.6929133858267716,
                    "duration": 0.39375000000001137
                },
                {
                    "name": "E2",
                    "midi": 40,
                    "time": 65.29166666666674,
                    "velocity": 0.5511811023622047,
                    "duration": 0.10208333333333997
                },
                {
                    "name": "A#2",
                    "midi": 46,
                    "time": 65.30000000000008,
                    "velocity": 0.5984251968503937,
                    "duration": 0.2541666666666629
                },
                {
                    "name": "D3",
                    "midi": 50,
                    "time": 65.31458333333342,
                    "velocity": 0.5039370078740157,
                    "duration": 0.3125
                },
                {
                    "name": "E1",
                    "midi": 28,
                    "time": 65.42916666666675,
                    "velocity": 0.6377952755905512,
                    "duration": 0.06874999999999432
                },
                {
                    "name": "E2",
                    "midi": 40,
                    "time": 65.51041666666674,
                    "velocity": 0.6614173228346457,
                    "duration": 0.15000000000000568
                },
                {
                    "name": "G3",
                    "midi": 55,
                    "time": 65.63958333333342,
                    "velocity": 0.7952755905511811,
                    "duration": 0.09999999999999432
                },
                {
                    "name": "F2",
                    "midi": 41,
                    "time": 65.67083333333342,
                    "velocity": 0.6929133858267716,
                    "duration": 0.1520833333333229
                },
                {
                    "name": "F#2",
                    "midi": 42,
                    "time": 65.81875000000008,
                    "velocity": 0.5590551181102362,
                    "duration": 0.09999999999999432
                },
                {
                    "name": "G2",
                    "midi": 43,
                    "time": 65.9395833333334,
                    "velocity": 0.5669291338582677,
                    "duration": 0.16041666666666288
                },
                {
                    "name": "A#3",
                    "midi": 58,
                    "time": 66.0645833333334,
                    "velocity": 0.5511811023622047,
                    "duration": 0.38333333333333997
                },
                {
                    "name": "D4",
                    "midi": 62,
                    "time": 66.08541666666673,
                    "velocity": 0.5748031496062992,
                    "duration": 0.3500000000000085
                },
                {
                    "name": "F#4",
                    "midi": 66,
                    "time": 66.09375000000007,
                    "velocity": 0.6929133858267716,
                    "duration": 0.3583333333333343
                },
                {
                    "name": "G#1",
                    "midi": 32,
                    "time": 66.11041666666674,
                    "velocity": 0.5669291338582677,
                    "duration": 0.25833333333333997
                },
                {
                    "name": "G#2",
                    "midi": 44,
                    "time": 66.35208333333341,
                    "velocity": 0.3937007874015748,
                    "duration": 0.09166666666666856
                },
                {
                    "name": "G#1",
                    "midi": 32,
                    "time": 66.47708333333341,
                    "velocity": 0.5433070866141733,
                    "duration": 0.08958333333332291
                },
                {
                    "name": "G#2",
                    "midi": 44,
                    "time": 66.56041666666674,
                    "velocity": 0.41732283464566927,
                    "duration": 0.09583333333333144
                },
                {
                    "name": "F#4",
                    "midi": 66,
                    "time": 66.66250000000007,
                    "velocity": 0.7244094488188977,
                    "duration": 0.07916666666665151
                },
                {
                    "name": "A#3",
                    "midi": 58,
                    "time": 66.66666666666673,
                    "velocity": 0.6062992125984252,
                    "duration": 0.04791666666666572
                },
                {
                    "name": "G#1",
                    "midi": 32,
                    "time": 66.66666666666673,
                    "velocity": 0.41732283464566927,
                    "duration": 0.11874999999999147
                },
                {
                    "name": "D4",
                    "midi": 62,
                    "time": 66.66875000000006,
                    "velocity": 0.6141732283464567,
                    "duration": 0.052083333333328596
                },
                {
                    "name": "G#2",
                    "midi": 44,
                    "time": 66.78333333333339,
                    "velocity": 0.4409448818897638,
                    "duration": 0.15208333333333712
                },
                {
                    "name": "A#3",
                    "midi": 58,
                    "time": 66.80208333333339,
                    "velocity": 0.5905511811023622,
                    "duration": 0.07083333333333997
                },
                {
                    "name": "F#4",
                    "midi": 66,
                    "time": 66.80416666666672,
                    "velocity": 0.6929133858267716,
                    "duration": 0.10208333333333997
                },
                {
                    "name": "D4",
                    "midi": 62,
                    "time": 66.81666666666672,
                    "velocity": 0.5984251968503937,
                    "duration": 0.04375000000000284
                },
                {
                    "name": "G#1",
                    "midi": 32,
                    "time": 66.94791666666673,
                    "velocity": 0.5511811023622047,
                    "duration": 0.13750000000000284
                },
                {
                    "name": "G#2",
                    "midi": 44,
                    "time": 67.10416666666673,
                    "velocity": 0.3937007874015748,
                    "duration": 0.15833333333333144
                },
                {
                    "name": "G#1",
                    "midi": 32,
                    "time": 67.26666666666672,
                    "velocity": 0.5511811023622047,
                    "duration": 0.125
                },
                {
                    "name": "G#2",
                    "midi": 44,
                    "time": 67.45833333333339,
                    "velocity": 0.3779527559055118,
                    "duration": 0.07916666666666572
                },
                {
                    "name": "G#1",
                    "midi": 32,
                    "time": 67.63750000000005,
                    "velocity": 0.36220472440944884,
                    "duration": 0.12083333333333712
                },
                {
                    "name": "C#2",
                    "midi": 37,
                    "time": 67.66666666666671,
                    "velocity": 0.6771653543307087,
                    "duration": 0.11249999999999716
                },
                {
                    "name": "G#1",
                    "midi": 32,
                    "time": 68.02708333333338,
                    "velocity": 0.06299212598425197,
                    "duration": 0.08958333333333712
                },
                {
                    "name": "D2",
                    "midi": 38,
                    "time": 68.03541666666672,
                    "velocity": 0.6692913385826772,
                    "duration": 0.11874999999999147
                },
                {
                    "name": "G#1",
                    "midi": 32,
                    "time": 68.27916666666671,
                    "velocity": 0.1889763779527559,
                    "duration": 0.14374999999999716
                },
                {
                    "name": "G#1",
                    "midi": 32,
                    "time": 68.47916666666671,
                    "velocity": 0.2125984251968504,
                    "duration": 0.18333333333333712
                },
                {
                    "name": "A#2",
                    "midi": 46,
                    "time": 68.47916666666671,
                    "velocity": 0.5354330708661418,
                    "duration": 0.47291666666664867
                },
                {
                    "name": "D2",
                    "midi": 38,
                    "time": 68.56875000000005,
                    "velocity": 0.2283464566929134,
                    "duration": 0.15416666666666856
                },
                {
                    "name": "G#1",
                    "midi": 32,
                    "time": 68.71041666666672,
                    "velocity": 0.29133858267716534,
                    "duration": 0.08124999999999716
                },
                {
                    "name": "D2",
                    "midi": 38,
                    "time": 68.81458333333337,
                    "velocity": 0.3858267716535433,
                    "duration": 0.08749999999999147
                },
                {
                    "name": "G#1",
                    "midi": 32,
                    "time": 68.88125000000004,
                    "velocity": 0.4330708661417323,
                    "duration": 0.07916666666666572
                },
                {
                    "name": "D2",
                    "midi": 38,
                    "time": 68.97500000000004,
                    "velocity": 0.29133858267716534,
                    "duration": 0.07500000000000284
                },
                {
                    "name": "G#1",
                    "midi": 32,
                    "time": 69.02083333333337,
                    "velocity": 0.5984251968503937,
                    "duration": 0.08750000000000568
                },
                {
                    "name": "D2",
                    "midi": 38,
                    "time": 69.11458333333337,
                    "velocity": 0.44881889763779526,
                    "duration": 0.10208333333332575
                },
                {
                    "name": "G#1",
                    "midi": 32,
                    "time": 69.18125000000003,
                    "velocity": 0.4330708661417323,
                    "duration": 0.08958333333332291
                },
                {
                    "name": "A#2",
                    "midi": 46,
                    "time": 69.2104166666667,
                    "velocity": 0.6692913385826772,
                    "duration": 0.4708333333333172
                },
                {
                    "name": "D2",
                    "midi": 38,
                    "time": 69.29583333333336,
                    "velocity": 0.2047244094488189,
                    "duration": 0.07083333333333997
                },
                {
                    "name": "G#1",
                    "midi": 32,
                    "time": 69.35208333333337,
                    "velocity": 0.4645669291338583,
                    "duration": 0.0833333333333286
                },
                {
                    "name": "D2",
                    "midi": 38,
                    "time": 69.47083333333336,
                    "velocity": 0.36220472440944884,
                    "duration": 0.06666666666666288
                },
                {
                    "name": "G#1",
                    "midi": 32,
                    "time": 69.53333333333336,
                    "velocity": 0.49606299212598426,
                    "duration": 0.11041666666666572
                },
                {
                    "name": "D2",
                    "midi": 38,
                    "time": 69.65833333333336,
                    "velocity": 0.3464566929133858,
                    "duration": 0.056249999999991473
                },
                {
                    "name": "A#1",
                    "midi": 34,
                    "time": 69.69791666666669,
                    "velocity": 0.4330708661417323,
                    "duration": 0.06666666666666288
                },
                {
                    "name": "D2",
                    "midi": 38,
                    "time": 69.88750000000002,
                    "velocity": 0.30708661417322836,
                    "duration": 0.0729166666666714
                },
                {
                    "name": "G#1",
                    "midi": 32,
                    "time": 69.96250000000002,
                    "velocity": 0.48031496062992124,
                    "duration": 0.07916666666666572
                },
                {
                    "name": "D2",
                    "midi": 38,
                    "time": 70.06458333333335,
                    "velocity": 0.4094488188976378,
                    "duration": 0.0833333333333286
                },
                {
                    "name": "G#1",
                    "midi": 32,
                    "time": 70.14166666666668,
                    "velocity": 0.48031496062992124,
                    "duration": 0.0833333333333286
                },
                {
                    "name": "G#1",
                    "midi": 32,
                    "time": 70.36458333333334,
                    "velocity": 0.28346456692913385,
                    "duration": 0.06458333333333144
                },
                {
                    "name": "A#1",
                    "midi": 34,
                    "time": 70.42291666666668,
                    "velocity": 0.5905511811023622,
                    "duration": 0.1354166666666572
                },
                {
                    "name": "G#1",
                    "midi": 32,
                    "time": 70.80625,
                    "velocity": 0.5354330708661418,
                    "duration": 0.0625
                },
                {
                    "name": "A#1",
                    "midi": 34,
                    "time": 70.90625,
                    "velocity": 0.3464566929133858,
                    "duration": 0.0729166666666714
                },
                {
                    "name": "G#1",
                    "midi": 32,
                    "time": 71.00416666666668,
                    "velocity": 0.41732283464566927,
                    "duration": 0.07916666666666572
                },
                {
                    "name": "A#1",
                    "midi": 34,
                    "time": 71.09791666666668,
                    "velocity": 0.3937007874015748,
                    "duration": 0.08958333333333712
                },
                {
                    "name": "G#1",
                    "midi": 32,
                    "time": 71.21041666666667,
                    "velocity": 0.4409448818897638,
                    "duration": 0.08124999999999716
                },
                {
                    "name": "A#1",
                    "midi": 34,
                    "time": 71.32708333333333,
                    "velocity": 0.33858267716535434,
                    "duration": 0.08124999999999716
                },
                {
                    "name": "G#1",
                    "midi": 32,
                    "time": 71.45416666666667,
                    "velocity": 0.3228346456692913,
                    "duration": 0.06041666666666856
                },
                {
                    "name": "A#1",
                    "midi": 34,
                    "time": 71.72708333333334,
                    "velocity": 0.30708661417322836,
                    "duration": 0.17916666666666003
                },
                {
                    "name": "A#1",
                    "midi": 34,
                    "time": 72.11458333333333,
                    "velocity": 0.25196850393700787,
                    "duration": 0.06874999999999432
                },
                {
                    "name": "G#1",
                    "midi": 32,
                    "time": 72.21666666666665,
                    "velocity": 0.3700787401574803,
                    "duration": 0.07083333333333997
                },
                {
                    "name": "A#1",
                    "midi": 34,
                    "time": 72.33125,
                    "velocity": 0.2047244094488189,
                    "duration": 0.06458333333333144
                },
                {
                    "name": "G#1",
                    "midi": 32,
                    "time": 72.42291666666667,
                    "velocity": 0.3464566929133858,
                    "duration": 0.07708333333333428
                },
                {
                    "name": "A#1",
                    "midi": 34,
                    "time": 72.52916666666667,
                    "velocity": 0.2204724409448819,
                    "duration": 0.09166666666666856
                },
                {
                    "name": "G#1",
                    "midi": 32,
                    "time": 72.65208333333334,
                    "velocity": 0.2283464566929134,
                    "duration": 0.0729166666666714
                },
                {
                    "name": "A#1",
                    "midi": 34,
                    "time": 72.74166666666667,
                    "velocity": 0.23622047244094488,
                    "duration": 0.10625000000000284
                },
                {
                    "name": "G#1",
                    "midi": 32,
                    "time": 72.87083333333334,
                    "velocity": 0.28346456692913385,
                    "duration": 0.0833333333333286
                },
                {
                    "name": "A#1",
                    "midi": 34,
                    "time": 72.98125,
                    "velocity": 0.2047244094488189,
                    "duration": 0.11666666666666003
                },
                {
                    "name": "G#1",
                    "midi": 32,
                    "time": 73.10833333333333,
                    "velocity": 0.23622047244094488,
                    "duration": 0.0729166666666714
                },
                {
                    "name": "A#1",
                    "midi": 34,
                    "time": 73.2125,
                    "velocity": 0.18110236220472442,
                    "duration": 0.38750000000000284
                },
                {
                    "name": "G#1",
                    "midi": 32,
                    "time": 73.60208333333334,
                    "velocity": 0.2992125984251969,
                    "duration": 0.52291666666666
                },
                {
                    "name": "A#1",
                    "midi": 34,
                    "time": 74.15833333333333,
                    "velocity": 0.2677165354330709,
                    "duration": 0.2041666666666515
                },
                {
                    "name": "A1",
                    "midi": 33,
                    "time": 74.40624999999999,
                    "velocity": 0.3700787401574803,
                    "duration": 0.13750000000000284
                },
                {
                    "name": "A#1",
                    "midi": 34,
                    "time": 74.55416666666666,
                    "velocity": 0.4330708661417323,
                    "duration": 0.10833333333333428
                },
                {
                    "name": "D2",
                    "midi": 38,
                    "time": 74.66666666666666,
                    "velocity": 0.5275590551181102,
                    "duration": 0.13124999999999432
                },
                {
                    "name": "F#2",
                    "midi": 42,
                    "time": 74.79374999999999,
                    "velocity": 0.6535433070866141,
                    "duration": 0.1833333333333229
                },
                {
                    "name": "D2",
                    "midi": 38,
                    "time": 74.92708333333331,
                    "velocity": 0.3464566929133858,
                    "duration": 0.18124999999999147
                },
                {
                    "name": "A#1",
                    "midi": 34,
                    "time": 75.03124999999997,
                    "velocity": 0.5275590551181102,
                    "duration": 0.16041666666666288
                },
                {
                    "name": "A1",
                    "midi": 33,
                    "time": 75.13124999999997,
                    "velocity": 0.5669291338582677,
                    "duration": 0.0833333333333286
                },
                {
                    "name": "D2",
                    "midi": 38,
                    "time": 75.38749999999996,
                    "velocity": 0.5196850393700787,
                    "duration": 0.2541666666666629
                },
                {
                    "name": "A2",
                    "midi": 45,
                    "time": 75.61458333333329,
                    "velocity": 0.5118110236220472,
                    "duration": 0.1041666666666714
                },
                {
                    "name": "A#2",
                    "midi": 46,
                    "time": 75.74999999999996,
                    "velocity": 0.47244094488188976,
                    "duration": 0.06874999999999432
                },
                {
                    "name": "D3",
                    "midi": 50,
                    "time": 75.85416666666661,
                    "velocity": 0.44881889763779526,
                    "duration": 0.11041666666666572
                },
                {
                    "name": "A2",
                    "midi": 45,
                    "time": 75.89791666666662,
                    "velocity": 0.5354330708661418,
                    "duration": 0.09375
                },
                {
                    "name": "F#3",
                    "midi": 54,
                    "time": 75.96249999999995,
                    "velocity": 0.6141732283464567,
                    "duration": 0.12916666666666288
                },
                {
                    "name": "D3",
                    "midi": 50,
                    "time": 76.0979166666666,
                    "velocity": 0.49606299212598426,
                    "duration": 0.1666666666666714
                },
                {
                    "name": "A#2",
                    "midi": 46,
                    "time": 76.21666666666661,
                    "velocity": 0.6141732283464567,
                    "duration": 0.12916666666666288
                },
                {
                    "name": "A2",
                    "midi": 45,
                    "time": 76.32916666666661,
                    "velocity": 0.5590551181102362,
                    "duration": 0.07500000000000284
                },
                {
                    "name": "A1",
                    "midi": 33,
                    "time": 76.56249999999994,
                    "velocity": 0.48031496062992124,
                    "duration": 0.12916666666666288
                },
                {
                    "name": "A1",
                    "midi": 33,
                    "time": 76.75833333333327,
                    "velocity": 0.5196850393700787,
                    "duration": 0.11666666666666003
                },
                {
                    "name": "A#1",
                    "midi": 34,
                    "time": 76.88124999999992,
                    "velocity": 0.5905511811023622,
                    "duration": 0.09166666666666856
                },
                {
                    "name": "D2",
                    "midi": 38,
                    "time": 76.9979166666666,
                    "velocity": 0.5196850393700787,
                    "duration": 0.1312499999999801
                },
                {
                    "name": "A2",
                    "midi": 45,
                    "time": 77.05624999999992,
                    "velocity": 0.3779527559055118,
                    "duration": 0.04791666666666572
                },
                {
                    "name": "F#2",
                    "midi": 42,
                    "time": 77.12499999999991,
                    "velocity": 0.5905511811023622,
                    "duration": 0.13124999999999432
                },
                {
                    "name": "D2",
                    "midi": 38,
                    "time": 77.27708333333324,
                    "velocity": 0.4251968503937008,
                    "duration": 0.14791666666667425
                },
                {
                    "name": "A#1",
                    "midi": 34,
                    "time": 77.3687499999999,
                    "velocity": 0.5669291338582677,
                    "duration": 0.15208333333333712
                },
                {
                    "name": "A1",
                    "midi": 33,
                    "time": 77.47083333333325,
                    "velocity": 0.6614173228346457,
                    "duration": 0.07291666666665719
                },
                {
                    "name": "D2",
                    "midi": 38,
                    "time": 77.62916666666656,
                    "velocity": 0.47244094488188976,
                    "duration": 0.4895833333333144
                },
                {
                    "name": "F#3",
                    "midi": 54,
                    "time": 77.71041666666656,
                    "velocity": 0.4251968503937008,
                    "duration": 0.5708333333333258
                },
                {
                    "name": "A3",
                    "midi": 57,
                    "time": 77.71249999999989,
                    "velocity": 0.5905511811023622,
                    "duration": 0.7499999999999858
                },
                {
                    "name": "G#2",
                    "midi": 44,
                    "time": 78.04166666666654,
                    "velocity": 0.4645669291338583,
                    "duration": 0.22500000000000853
                },
                {
                    "name": "A2",
                    "midi": 45,
                    "time": 78.22499999999988,
                    "velocity": 0.49606299212598426,
                    "duration": 0.0729166666666714
                },
                {
                    "name": "D3",
                    "midi": 50,
                    "time": 78.34999999999988,
                    "velocity": 0.5433070866141733,
                    "duration": 0.15833333333333144
                },
                {
                    "name": "D4",
                    "midi": 62,
                    "time": 78.49166666666655,
                    "velocity": 0.7559055118110236,
                    "duration": 1.1124999999999972
                },
                {
                    "name": "B3",
                    "midi": 59,
                    "time": 78.49374999999988,
                    "velocity": 0.6771653543307087,
                    "duration": 1.152083333333323
                },
                {
                    "name": "F#3",
                    "midi": 54,
                    "time": 78.49791666666654,
                    "velocity": 0.5984251968503937,
                    "duration": 0.09583333333333144
                },
                {
                    "name": "D3",
                    "midi": 50,
                    "time": 78.64791666666653,
                    "velocity": 0.6535433070866141,
                    "duration": 0.13750000000000284
                },
                {
                    "name": "A2",
                    "midi": 45,
                    "time": 78.79999999999987,
                    "velocity": 0.5748031496062992,
                    "duration": 0.09166666666666856
                },
                {
                    "name": "G#2",
                    "midi": 44,
                    "time": 78.87291666666654,
                    "velocity": 0.7401574803149606,
                    "duration": 0.07916666666666572
                },
                {
                    "name": "A1",
                    "midi": 33,
                    "time": 79.07291666666654,
                    "velocity": 0.6614173228346457,
                    "duration": 0.2708333333333286
                },
                {
                    "name": "C#2",
                    "midi": 37,
                    "time": 79.40624999999987,
                    "velocity": 0.5039370078740157,
                    "duration": 0.19583333333333997
                },
                {
                    "name": "D2",
                    "midi": 38,
                    "time": 79.6083333333332,
                    "velocity": 0.49606299212598426,
                    "duration": 0.11874999999999147
                },
                {
                    "name": "A2",
                    "midi": 45,
                    "time": 79.74999999999986,
                    "velocity": 0.3700787401574803,
                    "duration": 0.1145833333333286
                },
                {
                    "name": "D2",
                    "midi": 38,
                    "time": 79.85833333333319,
                    "velocity": 0.49606299212598426,
                    "duration": 0.14374999999999716
                },
                {
                    "name": "C#2",
                    "midi": 37,
                    "time": 79.98541666666652,
                    "velocity": 0.5196850393700787,
                    "duration": 0.10416666666665719
                },
                {
                    "name": "F#3",
                    "midi": 54,
                    "time": 80.03749999999985,
                    "velocity": 0.5511811023622047,
                    "duration": 0.11249999999999716
                },
                {
                    "name": "A#1",
                    "midi": 34,
                    "time": 80.06249999999986,
                    "velocity": 0.5511811023622047,
                    "duration": 0.06874999999999432
                },
                {
                    "name": "A3",
                    "midi": 57,
                    "time": 80.06666666666652,
                    "velocity": 0.44881889763779526,
                    "duration": 0.3458333333333172
                },
                {
                    "name": "D2",
                    "midi": 38,
                    "time": 80.26458333333318,
                    "velocity": 0.6377952755905512,
                    "duration": 0.2770833333333087
                },
                {
                    "name": "B3",
                    "midi": 59,
                    "time": 80.32499999999985,
                    "velocity": 0.5984251968503937,
                    "duration": 0.24166666666664582
                },
                {
                    "name": "D4",
                    "midi": 62,
                    "time": 80.32916666666651,
                    "velocity": 0.6456692913385826,
                    "duration": 0.26249999999998863
                },
                {
                    "name": "G#2",
                    "midi": 44,
                    "time": 80.49374999999982,
                    "velocity": 0.5984251968503937,
                    "duration": 0.18333333333335133
                },
                {
                    "name": "A2",
                    "midi": 45,
                    "time": 80.63333333333317,
                    "velocity": 0.5826771653543307,
                    "duration": 0.08750000000000568
                },
                {
                    "name": "D3",
                    "midi": 50,
                    "time": 80.73541666666651,
                    "velocity": 0.6929133858267716,
                    "duration": 0.17499999999999716
                },
                {
                    "name": "F#3",
                    "midi": 54,
                    "time": 80.88124999999984,
                    "velocity": 0.7795275590551181,
                    "duration": 0.08750000000000568
                },
                {
                    "name": "A3",
                    "midi": 57,
                    "time": 80.92083333333318,
                    "velocity": 0.47244094488188976,
                    "duration": 0.0729166666666714
                },
                {
                    "name": "F#4",
                    "midi": 66,
                    "time": 80.95416666666651,
                    "velocity": 0.7322834645669292,
                    "duration": 0.11458333333334281
                },
                {
                    "name": "A4",
                    "midi": 69,
                    "time": 80.96666666666651,
                    "velocity": 0.6771653543307087,
                    "duration": 0.11666666666667425
                },
                {
                    "name": "D3",
                    "midi": 50,
                    "time": 81.04791666666652,
                    "velocity": 0.6062992125984252,
                    "duration": 0.13750000000000284
                },
                {
                    "name": "A2",
                    "midi": 45,
                    "time": 81.19999999999986,
                    "velocity": 0.5196850393700787,
                    "duration": 0.10208333333333997
                },
                {
                    "name": "G#2",
                    "midi": 44,
                    "time": 81.2770833333332,
                    "velocity": 0.6850393700787402,
                    "duration": 0.07500000000000284
                },
                {
                    "name": "A1",
                    "midi": 33,
                    "time": 81.46874999999987,
                    "velocity": 0.6220472440944882,
                    "duration": 0.23333333333333428
                },
                {
                    "name": "A#1",
                    "midi": 34,
                    "time": 81.65416666666654,
                    "velocity": 0.48031496062992124,
                    "duration": 0.20000000000000284
                },
                {
                    "name": "C#2",
                    "midi": 37,
                    "time": 81.81041666666653,
                    "velocity": 0.5905511811023622,
                    "duration": 0.17291666666667993
                },
                {
                    "name": "F#3",
                    "midi": 54,
                    "time": 81.81874999999987,
                    "velocity": 0.5669291338582677,
                    "duration": 0.5395833333333542
                },
                {
                    "name": "D3",
                    "midi": 50,
                    "time": 81.8270833333332,
                    "velocity": 0.41732283464566927,
                    "duration": 0.3187500000000085
                },
                {
                    "name": "D2",
                    "midi": 38,
                    "time": 81.97916666666654,
                    "velocity": 0.4094488188976378,
                    "duration": 0.125
                },
                {
                    "name": "A2",
                    "midi": 45,
                    "time": 82.14583333333321,
                    "velocity": 0.3228346456692913,
                    "duration": 0.12291666666666856
                },
                {
                    "name": "D2",
                    "midi": 38,
                    "time": 82.26458333333322,
                    "velocity": 0.3858267716535433,
                    "duration": 0.13750000000000284
                },
                {
                    "name": "C#2",
                    "midi": 37,
                    "time": 82.39166666666655,
                    "velocity": 0.48031496062992124,
                    "duration": 0.08541666666666003
                },
                {
                    "name": "A#1",
                    "midi": 34,
                    "time": 82.45416666666655,
                    "velocity": 0.5511811023622047,
                    "duration": 0.07916666666666572
                },
                {
                    "name": "D2",
                    "midi": 38,
                    "time": 82.63541666666656,
                    "velocity": 0.7244094488188977,
                    "duration": 0.25833333333333997
                },
                {
                    "name": "G#2",
                    "midi": 44,
                    "time": 82.80416666666656,
                    "velocity": 0.7007874015748031,
                    "duration": 0.2187500000000142
                },
                {
                    "name": "A2",
                    "midi": 45,
                    "time": 82.9687499999999,
                    "velocity": 0.5433070866141733,
                    "duration": 0.11250000000001137
                },
                {
                    "name": "D4",
                    "midi": 62,
                    "time": 83.0124999999999,
                    "velocity": 0.9133858267716536,
                    "duration": 0.9208333333333059
                },
                {
                    "name": "B3",
                    "midi": 59,
                    "time": 83.03124999999991,
                    "velocity": 0.7244094488188977,
                    "duration": 0.9333333333332945
                },
                {
                    "name": "D3",
                    "midi": 50,
                    "time": 83.13333333333324,
                    "velocity": 0.2992125984251969,
                    "duration": 0.16875000000000284
                },
                {
                    "name": "F#3",
                    "midi": 54,
                    "time": 83.27708333333324,
                    "velocity": 0.7007874015748031,
                    "duration": 0.07916666666666572
                },
                {
                    "name": "D3",
                    "midi": 50,
                    "time": 83.41041666666656,
                    "velocity": 0.5984251968503937,
                    "duration": 0.12708333333333144
                },
                {
                    "name": "A2",
                    "midi": 45,
                    "time": 83.55833333333322,
                    "velocity": 0.5511811023622047,
                    "duration": 0.13124999999999432
                },
                {
                    "name": "A1",
                    "midi": 33,
                    "time": 83.84583333333322,
                    "velocity": 0.7637795275590551,
                    "duration": 0.24166666666666003
                },
                {
                    "name": "A#1",
                    "midi": 34,
                    "time": 84.03958333333321,
                    "velocity": 0.5984251968503937,
                    "duration": 0.18333333333333712
                },
                {
                    "name": "C#2",
                    "midi": 37,
                    "time": 84.19583333333321,
                    "velocity": 0.5669291338582677,
                    "duration": 0.15833333333333144
                },
                {
                    "name": "F#3",
                    "midi": 54,
                    "time": 84.24583333333321,
                    "velocity": 0.8188976377952756,
                    "duration": 0.6416666666666941
                },
                {
                    "name": "D#3",
                    "midi": 51,
                    "time": 84.26041666666654,
                    "velocity": 0.6771653543307087,
                    "duration": 0.5375000000000227
                },
                {
                    "name": "D2",
                    "midi": 38,
                    "time": 84.33749999999988,
                    "velocity": 0.49606299212598426,
                    "duration": 0.10625000000000284
                },
                {
                    "name": "A2",
                    "midi": 45,
                    "time": 84.48958333333321,
                    "velocity": 0.3700787401574803,
                    "duration": 0.08750000000000568
                },
                {
                    "name": "D2",
                    "midi": 38,
                    "time": 84.57708333333322,
                    "velocity": 0.49606299212598426,
                    "duration": 0.14791666666667425
                },
                {
                    "name": "C#2",
                    "midi": 37,
                    "time": 84.67499999999988,
                    "velocity": 0.6299212598425197,
                    "duration": 0.10625000000001705
                },
                {
                    "name": "A#1",
                    "midi": 34,
                    "time": 84.71458333333322,
                    "velocity": 0.6850393700787402,
                    "duration": 0.09166666666668277
                },
                {
                    "name": "E2",
                    "midi": 40,
                    "time": 84.95833333333324,
                    "velocity": 0.5984251968503937,
                    "duration": 0.3583333333333343
                },
                {
                    "name": "G3",
                    "midi": 55,
                    "time": 84.97291666666658,
                    "velocity": 0.7795275590551181,
                    "duration": 0.41458333333333997
                },
                {
                    "name": "E3",
                    "midi": 52,
                    "time": 84.98541666666658,
                    "velocity": 0.6535433070866141,
                    "duration": 0.3374999999999915
                },
                {
                    "name": "A#2",
                    "midi": 46,
                    "time": 85.17291666666658,
                    "velocity": 0.5826771653543307,
                    "duration": 0.27916666666666856
                },
                {
                    "name": "B2",
                    "midi": 47,
                    "time": 85.33124999999991,
                    "velocity": 0.5826771653543307,
                    "duration": 0.15625
                },
                {
                    "name": "C#3",
                    "midi": 49,
                    "time": 85.45833333333324,
                    "velocity": 0.6141732283464567,
                    "duration": 0.10208333333333997
                },
                {
                    "name": "G3",
                    "midi": 55,
                    "time": 85.52916666666658,
                    "velocity": 0.47244094488188976,
                    "duration": 0.21875
                },
                {
                    "name": "A3",
                    "midi": 57,
                    "time": 85.64583333333324,
                    "velocity": 0.5433070866141733,
                    "duration": 0.16250000000000853
                },
                {
                    "name": "C#4",
                    "midi": 61,
                    "time": 85.68124999999992,
                    "velocity": 0.8188976377952756,
                    "duration": 0.13333333333332575
                },
                {
                    "name": "C#3",
                    "midi": 49,
                    "time": 85.80624999999992,
                    "velocity": 0.4645669291338583,
                    "duration": 0.08958333333332291
                },
                {
                    "name": "B2",
                    "midi": 47,
                    "time": 85.88124999999991,
                    "velocity": 0.44881889763779526,
                    "duration": 0.08958333333333712
                },
                {
                    "name": "A#2",
                    "midi": 46,
                    "time": 85.94374999999991,
                    "velocity": 0.7480314960629921,
                    "duration": 0.04375000000000284
                },
                {
                    "name": "A1",
                    "midi": 33,
                    "time": 86.1187499999999,
                    "velocity": 0.7165354330708661,
                    "duration": 0.22083333333333144
                },
                {
                    "name": "D#2",
                    "midi": 39,
                    "time": 86.29166666666657,
                    "velocity": 0.6614173228346457,
                    "duration": 0.17083333333333428
                },
                {
                    "name": "E2",
                    "midi": 40,
                    "time": 86.43541666666657,
                    "velocity": 0.5905511811023622,
                    "duration": 0.14166666666666572
                },
                {
                    "name": "C#3",
                    "midi": 49,
                    "time": 86.49166666666657,
                    "velocity": 0.47244094488188976,
                    "duration": 0.6124999999999687
                },
                {
                    "name": "A3",
                    "midi": 57,
                    "time": 86.50833333333324,
                    "velocity": 0.4094488188976378,
                    "duration": 0.4916666666666316
                },
                {
                    "name": "C#4",
                    "midi": 61,
                    "time": 86.5124999999999,
                    "velocity": 0.6771653543307087,
                    "duration": 0.47291666666664867
                },
                {
                    "name": "G3",
                    "midi": 55,
                    "time": 86.5187499999999,
                    "velocity": 0.4094488188976378,
                    "duration": 0.4812499999999744
                },
                {
                    "name": "G2",
                    "midi": 43,
                    "time": 86.6124999999999,
                    "velocity": 0.47244094488188976,
                    "duration": 0.14166666666666572
                },
                {
                    "name": "A2",
                    "midi": 45,
                    "time": 86.74791666666657,
                    "velocity": 0.5354330708661418,
                    "duration": 0.08333333333331439
                },
                {
                    "name": "G2",
                    "midi": 43,
                    "time": 86.85833333333322,
                    "velocity": 0.5354330708661418,
                    "duration": 0.1354166666666572
                },
                {
                    "name": "E2",
                    "midi": 40,
                    "time": 86.98749999999988,
                    "velocity": 0.49606299212598426,
                    "duration": 0.13124999999999432
                },
                {
                    "name": "D#2",
                    "midi": 39,
                    "time": 87.09374999999987,
                    "velocity": 0.6692913385826772,
                    "duration": 0.16458333333332575
                },
                {
                    "name": "E2",
                    "midi": 40,
                    "time": 87.24166666666653,
                    "velocity": 0.6535433070866141,
                    "duration": 0.5562500000000057
                },
                {
                    "name": "G#2",
                    "midi": 44,
                    "time": 87.39999999999986,
                    "velocity": 0.6614173228346457,
                    "duration": 0.12083333333333712
                },
                {
                    "name": "A2",
                    "midi": 45,
                    "time": 87.5270833333332,
                    "velocity": 0.6141732283464567,
                    "duration": 0.16458333333333997
                },
                {
                    "name": "C#3",
                    "midi": 49,
                    "time": 87.66041666666653,
                    "velocity": 0.7874015748031497,
                    "duration": 0.13750000000000284
                },
                {
                    "name": "G3",
                    "midi": 55,
                    "time": 87.79791666666654,
                    "velocity": 0.7086614173228346,
                    "duration": 0.15416666666666856
                },
                {
                    "name": "C#3",
                    "midi": 49,
                    "time": 87.8895833333332,
                    "velocity": 0.6141732283464567,
                    "duration": 0.1458333333333286
                },
                {
                    "name": "A2",
                    "midi": 45,
                    "time": 88.0333333333332,
                    "velocity": 0.5748031496062992,
                    "duration": 0.15208333333333712
                },
                {
                    "name": "G#2",
                    "midi": 44,
                    "time": 88.17499999999987,
                    "velocity": 0.5826771653543307,
                    "duration": 0.10208333333333997
                },
                {
                    "name": "A1",
                    "midi": 33,
                    "time": 88.30624999999988,
                    "velocity": 0.5826771653543307,
                    "duration": 0.5979166666666629
                },
                {
                    "name": "A2",
                    "midi": 45,
                    "time": 88.45833333333321,
                    "velocity": 0.5354330708661418,
                    "duration": 0.14374999999999716
                },
                {
                    "name": "G#2",
                    "midi": 44,
                    "time": 88.59374999999987,
                    "velocity": 0.5354330708661418,
                    "duration": 0.15416666666668277
                },
                {
                    "name": "C#2",
                    "midi": 37,
                    "time": 88.68958333333322,
                    "velocity": 0.30708661417322836,
                    "duration": 0.35624999999998863
                },
                {
                    "name": "G2",
                    "midi": 43,
                    "time": 88.73749999999988,
                    "velocity": 0.25196850393700787,
                    "duration": 0.2520833333333172
                },
                {
                    "name": "A2",
                    "midi": 45,
                    "time": 88.75416666666655,
                    "velocity": 0.4015748031496063,
                    "duration": 0.19374999999999432
                },
                {
                    "name": "A#2",
                    "midi": 46,
                    "time": 88.9083333333332,
                    "velocity": 0.5039370078740157,
                    "duration": 0.13750000000000284
                },
                {
                    "name": "B2",
                    "midi": 47,
                    "time": 89.05833333333321,
                    "velocity": 0.4566929133858268,
                    "duration": 0.15625
                },
                {
                    "name": "A#2",
                    "midi": 46,
                    "time": 89.18333333333321,
                    "velocity": 0.4330708661417323,
                    "duration": 0.1875
                },
                {
                    "name": "A2",
                    "midi": 45,
                    "time": 89.39166666666654,
                    "velocity": 0.4015748031496063,
                    "duration": 0.17083333333333428
                },
                {
                    "name": "E2",
                    "midi": 40,
                    "time": 89.55833333333321,
                    "velocity": 0.5118110236220472,
                    "duration": 0.4937499999999915
                },
                {
                    "name": "G3",
                    "midi": 55,
                    "time": 89.74999999999987,
                    "velocity": 0.6614173228346457,
                    "duration": 0.4062499999999858
                },
                {
                    "name": "E3",
                    "midi": 52,
                    "time": 89.78541666666653,
                    "velocity": 0.49606299212598426,
                    "duration": 0.33541666666666003
                },
                {
                    "name": "A#2",
                    "midi": 46,
                    "time": 89.94791666666653,
                    "velocity": 0.41732283464566927,
                    "duration": 0.2145833333333229
                },
                {
                    "name": "B2",
                    "midi": 47,
                    "time": 90.12499999999986,
                    "velocity": 0.5196850393700787,
                    "duration": 0.11874999999999147
                },
                {
                    "name": "D3",
                    "midi": 50,
                    "time": 90.27291666666652,
                    "velocity": 0.5275590551181102,
                    "duration": 0.19166666666666288
                },
                {
                    "name": "G3",
                    "midi": 55,
                    "time": 90.41666666666652,
                    "velocity": 0.3464566929133858,
                    "duration": 0.08958333333333712
                },
                {
                    "name": "D4",
                    "midi": 62,
                    "time": 90.53124999999986,
                    "velocity": 0.952755905511811,
                    "duration": 0.9625000000000057
                },
                {
                    "name": "B3",
                    "midi": 59,
                    "time": 90.56041666666653,
                    "velocity": 0.6771653543307087,
                    "duration": 0.9104166666666771
                },
                {
                    "name": "D3",
                    "midi": 50,
                    "time": 90.5708333333332,
                    "velocity": 0.4094488188976378,
                    "duration": 0.15625
                },
                {
                    "name": "B2",
                    "midi": 47,
                    "time": 90.72916666666653,
                    "velocity": 0.47244094488188976,
                    "duration": 0.09166666666665435
                },
                {
                    "name": "A#2",
                    "midi": 46,
                    "time": 90.79791666666652,
                    "velocity": 0.7165354330708661,
                    "duration": 0.06458333333333144
                },
                {
                    "name": "A1",
                    "midi": 33,
                    "time": 90.98124999999986,
                    "velocity": 0.8031496062992126,
                    "duration": 0.2750000000000057
                },
                {
                    "name": "D#2",
                    "midi": 39,
                    "time": 91.2333333333332,
                    "velocity": 0.5433070866141733,
                    "duration": 0.16875000000000284
                },
                {
                    "name": "E2",
                    "midi": 40,
                    "time": 91.3895833333332,
                    "velocity": 0.6062992125984252,
                    "duration": 0.1354166666666572
                },
                {
                    "name": "G2",
                    "midi": 43,
                    "time": 91.57291666666653,
                    "velocity": 0.36220472440944884,
                    "duration": 0.13333333333333997
                },
                {
                    "name": "A2",
                    "midi": 45,
                    "time": 91.69791666666653,
                    "velocity": 0.6141732283464567,
                    "duration": 0.08125000000001137
                },
                {
                    "name": "G2",
                    "midi": 43,
                    "time": 91.79999999999987,
                    "velocity": 0.5590551181102362,
                    "duration": 0.13124999999999432
                },
                {
                    "name": "E2",
                    "midi": 40,
                    "time": 91.91666666666653,
                    "velocity": 0.6141732283464567,
                    "duration": 0.09583333333333144
                },
                {
                    "name": "D#2",
                    "midi": 39,
                    "time": 91.97291666666653,
                    "velocity": 0.6377952755905512,
                    "duration": 0.08749999999999147
                },
                {
                    "name": "G3",
                    "midi": 55,
                    "time": 91.9833333333332,
                    "velocity": 0.7086614173228346,
                    "duration": 0.15416666666665435
                },
                {
                    "name": "E3",
                    "midi": 52,
                    "time": 91.9895833333332,
                    "velocity": 0.6299212598425197,
                    "duration": 0.09999999999999432
                },
                {
                    "name": "E2",
                    "midi": 40,
                    "time": 92.1520833333332,
                    "velocity": 0.7322834645669292,
                    "duration": 0.20416666666666572
                },
                {
                    "name": "D4",
                    "midi": 62,
                    "time": 92.16666666666653,
                    "velocity": 0.8740157480314961,
                    "duration": 0.26458333333332007
                },
                {
                    "name": "B3",
                    "midi": 59,
                    "time": 92.1770833333332,
                    "velocity": 0.7637795275590551,
                    "duration": 0.23124999999998863
                },
                {
                    "name": "A#2",
                    "midi": 46,
                    "time": 92.33749999999986,
                    "velocity": 0.6929133858267716,
                    "duration": 0.1562499999999858
                },
                {
                    "name": "B2",
                    "midi": 47,
                    "time": 92.48541666666651,
                    "velocity": 0.6062992125984252,
                    "duration": 0.09791666666667709
                },
                {
                    "name": "D3",
                    "midi": 50,
                    "time": 92.59999999999985,
                    "velocity": 0.6614173228346457,
                    "duration": 0.14374999999999716
                },
                {
                    "name": "G3",
                    "midi": 55,
                    "time": 92.71458333333318,
                    "velocity": 0.6929133858267716,
                    "duration": 0.1041666666666714
                },
                {
                    "name": "G4",
                    "midi": 67,
                    "time": 92.82499999999985,
                    "velocity": 0.8346456692913385,
                    "duration": 0.054166666666660035
                },
                {
                    "name": "B4",
                    "midi": 71,
                    "time": 92.83124999999984,
                    "velocity": 0.8346456692913385,
                    "duration": 0.05833333333333712
                },
                {
                    "name": "D3",
                    "midi": 50,
                    "time": 92.89166666666651,
                    "velocity": 0.47244094488188976,
                    "duration": 0.13333333333332575
                },
                {
                    "name": "B2",
                    "midi": 47,
                    "time": 93.00208333333318,
                    "velocity": 0.6377952755905512,
                    "duration": 0.12291666666666856
                },
                {
                    "name": "A#2",
                    "midi": 46,
                    "time": 93.09999999999984,
                    "velocity": 0.7244094488188977,
                    "duration": 0.0625
                },
                {
                    "name": "A1",
                    "midi": 33,
                    "time": 93.26874999999983,
                    "velocity": 0.7716535433070866,
                    "duration": 0.28333333333333144
                },
                {
                    "name": "D#2",
                    "midi": 39,
                    "time": 93.48333333333316,
                    "velocity": 0.5826771653543307,
                    "duration": 0.21875
                },
                {
                    "name": "E2",
                    "midi": 40,
                    "time": 93.66874999999983,
                    "velocity": 0.47244094488188976,
                    "duration": 0.14375000000001137
                },
                {
                    "name": "C#3",
                    "midi": 49,
                    "time": 93.68958333333316,
                    "velocity": 0.48031496062992124,
                    "duration": 0.7166666666666828
                },
                {
                    "name": "A2",
                    "midi": 45,
                    "time": 93.69999999999983,
                    "velocity": 0.29133858267716534,
                    "duration": 0.40833333333334565
                },
                {
                    "name": "G3",
                    "midi": 55,
                    "time": 93.74791666666651,
                    "velocity": 0.5590551181102362,
                    "duration": 0.7354166666666657
                },
                {
                    "name": "G2",
                    "midi": 43,
                    "time": 93.87499999999984,
                    "velocity": 0.25984251968503935,
                    "duration": 0.14374999999999716
                },
                {
                    "name": "G2",
                    "midi": 43,
                    "time": 94.13749999999985,
                    "velocity": 0.4409448818897638,
                    "duration": 0.1354166666666714
                },
                {
                    "name": "E2",
                    "midi": 40,
                    "time": 94.27083333333319,
                    "velocity": 0.5275590551181102,
                    "duration": 0.1145833333333286
                },
                {
                    "name": "D#2",
                    "midi": 39,
                    "time": 94.36458333333319,
                    "velocity": 0.5590551181102362,
                    "duration": 0.06249999999998579
                },
                {
                    "name": "E2",
                    "midi": 40,
                    "time": 94.52499999999985,
                    "velocity": 0.7322834645669292,
                    "duration": 0.28958333333333997
                },
                {
                    "name": "A#2",
                    "midi": 46,
                    "time": 94.70416666666652,
                    "velocity": 0.6850393700787402,
                    "duration": 0.22499999999999432
                },
                {
                    "name": "B2",
                    "midi": 47,
                    "time": 94.84791666666652,
                    "velocity": 0.6456692913385826,
                    "duration": 0.15833333333334565
                },
                {
                    "name": "G4",
                    "midi": 67,
                    "time": 94.96874999999986,
                    "velocity": 0.9212598425196851,
                    "duration": 0.8520833333333542
                },
                {
                    "name": "B3",
                    "midi": 59,
                    "time": 94.98124999999986,
                    "velocity": 0.7795275590551181,
                    "duration": 0.887500000000017
                },
                {
                    "name": "E4",
                    "midi": 64,
                    "time": 94.99166666666653,
                    "velocity": 0.7716535433070866,
                    "duration": 0.8270833333333485
                },
                {
                    "name": "D3",
                    "midi": 50,
                    "time": 95.0145833333332,
                    "velocity": 0.5669291338582677,
                    "duration": 0.18124999999999147
                },
                {
                    "name": "G3",
                    "midi": 55,
                    "time": 95.17291666666654,
                    "velocity": 0.6062992125984252,
                    "duration": 0.08541666666666003
                },
                {
                    "name": "D3",
                    "midi": 50,
                    "time": 95.34374999999986,
                    "velocity": 0.5354330708661418,
                    "duration": 0.11875000000000568
                },
                {
                    "name": "B2",
                    "midi": 47,
                    "time": 95.4708333333332,
                    "velocity": 0.3700787401574803,
                    "duration": 0.11874999999999147
                },
                {
                    "name": "A#2",
                    "midi": 46,
                    "time": 95.55416666666653,
                    "velocity": 0.7322834645669292,
                    "duration": 0.07500000000000284
                },
                {
                    "name": "A1",
                    "midi": 33,
                    "time": 95.7520833333332,
                    "velocity": 0.7952755905511811,
                    "duration": 0.2854166666666771
                },
                {
                    "name": "D#2",
                    "midi": 39,
                    "time": 95.94166666666655,
                    "velocity": 0.6692913385826772,
                    "duration": 0.2395833333333286
                },
                {
                    "name": "E2",
                    "midi": 40,
                    "time": 96.11666666666655,
                    "velocity": 0.5590551181102362,
                    "duration": 0.16458333333332575
                },
                {
                    "name": "C#4",
                    "midi": 61,
                    "time": 96.21041666666655,
                    "velocity": 0.9291338582677166,
                    "duration": 0.46666666666666856
                },
                {
                    "name": "F3",
                    "midi": 53,
                    "time": 96.22708333333321,
                    "velocity": 0.7322834645669292,
                    "duration": 0.27916666666666856
                },
                {
                    "name": "A#3",
                    "midi": 58,
                    "time": 96.22916666666654,
                    "velocity": 0.7559055118110236,
                    "duration": 0.4937500000000057
                },
                {
                    "name": "G2",
                    "midi": 43,
                    "time": 96.32083333333321,
                    "velocity": 0.48031496062992124,
                    "duration": 0.16249999999999432
                },
                {
                    "name": "A2",
                    "midi": 45,
                    "time": 96.49583333333321,
                    "velocity": 0.4015748031496063,
                    "duration": 0.0625
                },
                {
                    "name": "G2",
                    "midi": 43,
                    "time": 96.59999999999988,
                    "velocity": 0.44881889763779526,
                    "duration": 0.12083333333333712
                },
                {
                    "name": "D#2",
                    "midi": 39,
                    "time": 96.70624999999988,
                    "velocity": 0.6614173228346457,
                    "duration": 0.13958333333333428
                },
                {
                    "name": "D2",
                    "midi": 38,
                    "time": 96.85416666666656,
                    "velocity": 0.7637795275590551,
                    "duration": 0.3187499999999943
                },
                {
                    "name": "D4",
                    "midi": 62,
                    "time": 96.87499999999989,
                    "velocity": 0.889763779527559,
                    "duration": 0.34583333333333144
                },
                {
                    "name": "B3",
                    "midi": 59,
                    "time": 96.88333333333321,
                    "velocity": 0.7559055118110236,
                    "duration": 0.3062500000000057
                },
                {
                    "name": "F#3",
                    "midi": 54,
                    "time": 96.88333333333321,
                    "velocity": 0.8188976377952756,
                    "duration": 0.2604166666666714
                },
                {
                    "name": "F#2",
                    "midi": 42,
                    "time": 97.06666666666655,
                    "velocity": 0.6929133858267716,
                    "duration": 0.18333333333333712
                },
                {
                    "name": "A2",
                    "midi": 45,
                    "time": 97.20208333333322,
                    "velocity": 0.6456692913385826,
                    "duration": 0.1041666666666714
                },
                {
                    "name": "B2",
                    "midi": 47,
                    "time": 97.29166666666656,
                    "velocity": 0.7007874015748031,
                    "duration": 0.0729166666666714
                },
                {
                    "name": "C3",
                    "midi": 48,
                    "time": 97.44791666666656,
                    "velocity": 0.31496062992125984,
                    "duration": 0.11875000000000568
                },
                {
                    "name": "D3",
                    "midi": 50,
                    "time": 97.5062499999999,
                    "velocity": 0.07086614173228346,
                    "duration": 0.18541666666666856
                },
                {
                    "name": "F#3",
                    "midi": 54,
                    "time": 97.57083333333323,
                    "velocity": 0.5984251968503937,
                    "duration": 0.23125000000001705
                },
                {
                    "name": "B4",
                    "midi": 71,
                    "time": 97.57083333333323,
                    "velocity": 0.84251968503937,
                    "duration": 0.12083333333333712
                },
                {
                    "name": "A4",
                    "midi": 69,
                    "time": 97.5812499999999,
                    "velocity": 0.7401574803149606,
                    "duration": 0.11666666666666003
                },
                {
                    "name": "D4",
                    "midi": 62,
                    "time": 97.58958333333324,
                    "velocity": 0.6456692913385826,
                    "duration": 0.052083333333328596
                },
                {
                    "name": "F#4",
                    "midi": 66,
                    "time": 97.59166666666657,
                    "velocity": 0.7716535433070866,
                    "duration": 0.06666666666666288
                },
                {
                    "name": "A3",
                    "midi": 57,
                    "time": 97.69583333333323,
                    "velocity": 0.5669291338582677,
                    "duration": 0.15833333333334565
                },
                {
                    "name": "B3",
                    "midi": 59,
                    "time": 97.7937499999999,
                    "velocity": 0.5748031496062992,
                    "duration": 0.12083333333333712
                },
                {
                    "name": "D3",
                    "midi": 50,
                    "time": 97.92291666666658,
                    "velocity": 0.7322834645669292,
                    "duration": 0.7583333333333258
                },
                {
                    "name": "F#3",
                    "midi": 54,
                    "time": 98.04999999999991,
                    "velocity": 0.6141732283464567,
                    "duration": 0.5791666666666657
                },
                {
                    "name": "A3",
                    "midi": 57,
                    "time": 98.16041666666658,
                    "velocity": 0.5433070866141733,
                    "duration": 0.4208333333333343
                },
                {
                    "name": "B3",
                    "midi": 59,
                    "time": 98.29166666666657,
                    "velocity": 0.6614173228346457,
                    "duration": 0.2916666666666714
                },
                {
                    "name": "B4",
                    "midi": 71,
                    "time": 98.51874999999991,
                    "velocity": 0.8740157480314961,
                    "duration": 0.34375
                },
                {
                    "name": "D4",
                    "midi": 62,
                    "time": 98.53541666666658,
                    "velocity": 0.7401574803149606,
                    "duration": 0.04375000000000284
                },
                {
                    "name": "A4",
                    "midi": 69,
                    "time": 98.76041666666657,
                    "velocity": 0.5826771653543307,
                    "duration": 0.22500000000000853
                },
                {
                    "name": "F#4",
                    "midi": 66,
                    "time": 98.93958333333325,
                    "velocity": 0.5826771653543307,
                    "duration": 0.1145833333333286
                },
                {
                    "name": "D4",
                    "midi": 62,
                    "time": 99.05208333333324,
                    "velocity": 0.5669291338582677,
                    "duration": 0.04791666666666572
                },
                {
                    "name": "B3",
                    "midi": 59,
                    "time": 99.24999999999991,
                    "velocity": 0.6377952755905512,
                    "duration": 0.1979166666666714
                },
                {
                    "name": "A3",
                    "midi": 57,
                    "time": 99.38749999999992,
                    "velocity": 0.5275590551181102,
                    "duration": 0.20416666666666572
                },
                {
                    "name": "F#3",
                    "midi": 54,
                    "time": 99.55624999999992,
                    "velocity": 0.5118110236220472,
                    "duration": 0.17291666666666572
                },
                {
                    "name": "D3",
                    "midi": 50,
                    "time": 99.68333333333325,
                    "velocity": 0.1889763779527559,
                    "duration": 0.13333333333332575
                },
                {
                    "name": "B2",
                    "midi": 47,
                    "time": 99.81458333333325,
                    "velocity": 0.4409448818897638,
                    "duration": 0.11041666666666572
                },
                {
                    "name": "A2",
                    "midi": 45,
                    "time": 99.92499999999991,
                    "velocity": 0.3543307086614173,
                    "duration": 0.1875
                },
                {
                    "name": "F#2",
                    "midi": 42,
                    "time": 100.03541666666658,
                    "velocity": 0.49606299212598426,
                    "duration": 0.16458333333333997
                },
                {
                    "name": "D2",
                    "midi": 38,
                    "time": 100.12499999999991,
                    "velocity": 0.5590551181102362,
                    "duration": 0.11249999999999716
                },
                {
                    "name": "A1",
                    "midi": 33,
                    "time": 100.36458333333324,
                    "velocity": 0.6377952755905512,
                    "duration": 0.4270833333333428
                },
                {
                    "name": "A2",
                    "midi": 45,
                    "time": 100.54166666666659,
                    "velocity": 0.31496062992125984,
                    "duration": 0.18333333333333712
                },
                {
                    "name": "G#2",
                    "midi": 44,
                    "time": 100.69374999999992,
                    "velocity": 0.5196850393700787,
                    "duration": 0.14374999999999716
                },
                {
                    "name": "D2",
                    "midi": 38,
                    "time": 100.83541666666659,
                    "velocity": 0.4015748031496063,
                    "duration": 0.21041666666668846
                },
                {
                    "name": "A2",
                    "midi": 45,
                    "time": 100.86249999999993,
                    "velocity": 0.28346456692913385,
                    "duration": 0.14791666666667425
                },
                {
                    "name": "A#2",
                    "midi": 46,
                    "time": 100.99999999999993,
                    "velocity": 0.48031496062992124,
                    "duration": 0.1187500000000199
                },
                {
                    "name": "B2",
                    "midi": 47,
                    "time": 101.13958333333328,
                    "velocity": 0.41732283464566927,
                    "duration": 0.11874999999999147
                },
                {
                    "name": "A#2",
                    "midi": 46,
                    "time": 101.23124999999993,
                    "velocity": 0.4566929133858268,
                    "duration": 0.14374999999999716
                },
                {
                    "name": "A2",
                    "midi": 45,
                    "time": 101.41041666666659,
                    "velocity": 0.36220472440944884,
                    "duration": 0.23333333333333428
                },
                {
                    "name": "D2",
                    "midi": 38,
                    "time": 101.56666666666659,
                    "velocity": 0.6062992125984252,
                    "duration": 0.47083333333333144
                },
                {
                    "name": "A3",
                    "midi": 57,
                    "time": 101.79374999999993,
                    "velocity": 0.7322834645669292,
                    "duration": 0.36249999999999716
                },
                {
                    "name": "F#3",
                    "midi": 54,
                    "time": 101.82291666666659,
                    "velocity": 0.5590551181102362,
                    "duration": 0.3479166666666771
                },
                {
                    "name": "G#2",
                    "midi": 44,
                    "time": 102.01874999999993,
                    "velocity": 0.4094488188976378,
                    "duration": 0.24375000000000568
                },
                {
                    "name": "A2",
                    "midi": 45,
                    "time": 102.18958333333326,
                    "velocity": 0.2992125984251969,
                    "duration": 0.15625
                },
                {
                    "name": "D3",
                    "midi": 50,
                    "time": 102.34583333333326,
                    "velocity": 0.4330708661417323,
                    "duration": 0.09791666666666288
                },
                {
                    "name": "F#3",
                    "midi": 54,
                    "time": 102.41041666666659,
                    "velocity": 0.5433070866141733,
                    "duration": 0.17499999999999716
                },
                {
                    "name": "D4",
                    "midi": 62,
                    "time": 102.59583333333326,
                    "velocity": 0.8503937007874016,
                    "duration": 0.7479166666666544
                },
                {
                    "name": "B3",
                    "midi": 59,
                    "time": 102.61458333333326,
                    "velocity": 0.6929133858267716,
                    "duration": 0.74166666666666
                },
                {
                    "name": "D3",
                    "midi": 50,
                    "time": 102.75208333333326,
                    "velocity": 0.3228346456692913,
                    "duration": 0.09999999999999432
                },
                {
                    "name": "A2",
                    "midi": 45,
                    "time": 102.88333333333325,
                    "velocity": 0.30708661417322836,
                    "duration": 0.06458333333333144
                },
                {
                    "name": "G#2",
                    "midi": 44,
                    "time": 102.92499999999993,
                    "velocity": 0.7086614173228346,
                    "duration": 0.06041666666665435
                },
                {
                    "name": "F#3",
                    "midi": 54,
                    "time": 103.07499999999992,
                    "velocity": 0.2283464566929134,
                    "duration": 0.34583333333333144
                },
                {
                    "name": "A1",
                    "midi": 33,
                    "time": 103.08124999999991,
                    "velocity": 0.7874015748031497,
                    "duration": 0.2604166666666714
                },
                {
                    "name": "A#1",
                    "midi": 34,
                    "time": 103.26666666666658,
                    "velocity": 0.6456692913385826,
                    "duration": 0.17291666666666572
                },
                {
                    "name": "C#2",
                    "midi": 37,
                    "time": 103.39791666666659,
                    "velocity": 0.6299212598425197,
                    "duration": 0.16249999999999432
                },
                {
                    "name": "D2",
                    "midi": 38,
                    "time": 103.50208333333325,
                    "velocity": 0.5984251968503937,
                    "duration": 0.12291666666666856
                },
                {
                    "name": "A2",
                    "midi": 45,
                    "time": 103.64791666666657,
                    "velocity": 0.5039370078740157,
                    "duration": 0.11874999999999147
                },
                {
                    "name": "D2",
                    "midi": 38,
                    "time": 103.7624999999999,
                    "velocity": 0.5354330708661418,
                    "duration": 0.14166666666666572
                },
                {
                    "name": "C#2",
                    "midi": 37,
                    "time": 103.8687499999999,
                    "velocity": 0.6299212598425197,
                    "duration": 0.08124999999999716
                },
                {
                    "name": "A#1",
                    "midi": 34,
                    "time": 103.8999999999999,
                    "velocity": 0.6929133858267716,
                    "duration": 0.07916666666666572
                },
                {
                    "name": "A3",
                    "midi": 57,
                    "time": 103.96666666666657,
                    "velocity": 0.7716535433070866,
                    "duration": 0.10833333333334849
                },
                {
                    "name": "F#3",
                    "midi": 54,
                    "time": 103.98958333333324,
                    "velocity": 0.6220472440944882,
                    "duration": 0.056250000000005684
                },
                {
                    "name": "D2",
                    "midi": 38,
                    "time": 104.14999999999992,
                    "velocity": 0.4566929133858268,
                    "duration": 0.21041666666666003
                },
                {
                    "name": "E2",
                    "midi": 40,
                    "time": 104.16041666666659,
                    "velocity": 0.5039370078740157,
                    "duration": 0.19374999999999432
                },
                {
                    "name": "D4",
                    "midi": 62,
                    "time": 104.17708333333326,
                    "velocity": 0.8976377952755905,
                    "duration": 0.34791666666664867
                },
                {
                    "name": "B3",
                    "midi": 59,
                    "time": 104.19791666666659,
                    "velocity": 0.7244094488188977,
                    "duration": 0.29583333333332007
                },
                {
                    "name": "G#2",
                    "midi": 44,
                    "time": 104.33958333333325,
                    "velocity": 0.5905511811023622,
                    "duration": 0.19583333333332575
                },
                {
                    "name": "A2",
                    "midi": 45,
                    "time": 104.47291666666658,
                    "velocity": 0.5905511811023622,
                    "duration": 0.10208333333333997
                },
                {
                    "name": "D3",
                    "midi": 50,
                    "time": 104.57708333333325,
                    "velocity": 0.7874015748031497,
                    "duration": 0.1666666666666714
                },
                {
                    "name": "F#3",
                    "midi": 54,
                    "time": 104.71041666666659,
                    "velocity": 0.8818897637795275,
                    "duration": 0.08541666666666003
                },
                {
                    "name": "A3",
                    "midi": 57,
                    "time": 104.84374999999991,
                    "velocity": 0.5669291338582677,
                    "duration": 0.039583333333325754
                },
                {
                    "name": "A4",
                    "midi": 69,
                    "time": 104.84999999999991,
                    "velocity": 0.8110236220472441,
                    "duration": 0.08749999999999147
                },
                {
                    "name": "F#4",
                    "midi": 66,
                    "time": 104.85208333333324,
                    "velocity": 0.8346456692913385,
                    "duration": 0.0625
                },
                {
                    "name": "E3",
                    "midi": 52,
                    "time": 104.88541666666657,
                    "velocity": 0.3700787401574803,
                    "duration": 0.08124999999999716
                },
                {
                    "name": "D3",
                    "midi": 50,
                    "time": 104.89791666666657,
                    "velocity": 0.2677165354330709,
                    "duration": 0.07083333333332575
                },
                {
                    "name": "A2",
                    "midi": 45,
                    "time": 105.00624999999991,
                    "velocity": 0.5984251968503937,
                    "duration": 0.09791666666666288
                },
                {
                    "name": "G#2",
                    "midi": 44,
                    "time": 105.08333333333324,
                    "velocity": 0.6771653543307087,
                    "duration": 0.04583333333333428
                },
                {
                    "name": "A1",
                    "midi": 33,
                    "time": 105.23958333333324,
                    "velocity": 0.7244094488188977,
                    "duration": 0.1979166666666714
                },
                {
                    "name": "A#1",
                    "midi": 34,
                    "time": 105.40833333333325,
                    "velocity": 0.5275590551181102,
                    "duration": 0.1354166666666714
                },
                {
                    "name": "C#2",
                    "midi": 37,
                    "time": 105.52291666666657,
                    "velocity": 0.5669291338582677,
                    "duration": 0.1666666666666572
                },
                {
                    "name": "F#3",
                    "midi": 54,
                    "time": 105.56458333333325,
                    "velocity": 0.6141732283464567,
                    "duration": 0.6937499999999801
                },
                {
                    "name": "D3",
                    "midi": 50,
                    "time": 105.58541666666657,
                    "velocity": 0.5118110236220472,
                    "duration": 0.2666666666666515
                },
                {
                    "name": "D2",
                    "midi": 38,
                    "time": 105.67291666666657,
                    "velocity": 0.47244094488188976,
                    "duration": 0.1354166666666572
                },
                {
                    "name": "A2",
                    "midi": 45,
                    "time": 105.83958333333322,
                    "velocity": 0.4881889763779528,
                    "duration": 0.13124999999999432
                },
                {
                    "name": "D2",
                    "midi": 38,
                    "time": 105.96458333333322,
                    "velocity": 0.41732283464566927,
                    "duration": 0.14374999999999716
                },
                {
                    "name": "C#2",
                    "midi": 37,
                    "time": 106.08124999999988,
                    "velocity": 0.4330708661417323,
                    "duration": 0.10000000000000853
                },
                {
                    "name": "A#1",
                    "midi": 34,
                    "time": 106.14791666666656,
                    "velocity": 0.4094488188976378,
                    "duration": 0.0833333333333286
                },
                {
                    "name": "D2",
                    "midi": 38,
                    "time": 106.34583333333323,
                    "velocity": 0.7165354330708661,
                    "duration": 0.27916666666666856
                },
                {
                    "name": "G#2",
                    "midi": 44,
                    "time": 106.5249999999999,
                    "velocity": 0.7086614173228346,
                    "duration": 0.2145833333333229
                },
                {
                    "name": "A2",
                    "midi": 45,
                    "time": 106.6624999999999,
                    "velocity": 0.5984251968503937,
                    "duration": 0.11875000000000568
                },
                {
                    "name": "D4",
                    "midi": 62,
                    "time": 106.7374999999999,
                    "velocity": 0.9606299212598425,
                    "duration": 1.0937500000000142
                },
                {
                    "name": "B3",
                    "midi": 59,
                    "time": 106.75208333333323,
                    "velocity": 0.8031496062992126,
                    "duration": 1.11041666666668
                },
                {
                    "name": "D3",
                    "midi": 50,
                    "time": 106.82708333333323,
                    "velocity": 0.5118110236220472,
                    "duration": 0.1666666666666714
                },
                {
                    "name": "F#3",
                    "midi": 54,
                    "time": 106.96666666666657,
                    "velocity": 0.7559055118110236,
                    "duration": 0.06666666666667709
                },
                {
                    "name": "D3",
                    "midi": 50,
                    "time": 107.10833333333325,
                    "velocity": 0.6535433070866141,
                    "duration": 0.125
                },
                {
                    "name": "A2",
                    "midi": 45,
                    "time": 107.27291666666659,
                    "velocity": 0.47244094488188976,
                    "duration": 0.09583333333333144
                },
                {
                    "name": "G#2",
                    "midi": 44,
                    "time": 107.34999999999992,
                    "velocity": 0.7086614173228346,
                    "duration": 0.07083333333332575
                },
                {
                    "name": "A1",
                    "midi": 33,
                    "time": 107.56874999999992,
                    "velocity": 0.6299212598425197,
                    "duration": 0.24166666666666003
                },
                {
                    "name": "C#2",
                    "midi": 37,
                    "time": 107.88333333333324,
                    "velocity": 0.6062992125984252,
                    "duration": 0.19166666666666288
                },
                {
                    "name": "F#3",
                    "midi": 54,
                    "time": 107.9687499999999,
                    "velocity": 0.7795275590551181,
                    "duration": 0.57083333333334
                },
                {
                    "name": "D3",
                    "midi": 50,
                    "time": 108.00833333333324,
                    "velocity": 0.3700787401574803,
                    "duration": 0.2645833333333343
                },
                {
                    "name": "D2",
                    "midi": 38,
                    "time": 108.0624999999999,
                    "velocity": 0.47244094488188976,
                    "duration": 0.14166666666666572
                },
                {
                    "name": "A2",
                    "midi": 45,
                    "time": 108.22916666666657,
                    "velocity": 0.49606299212598426,
                    "duration": 0.12291666666666856
                },
                {
                    "name": "D2",
                    "midi": 38,
                    "time": 108.34791666666658,
                    "velocity": 0.48031496062992124,
                    "duration": 0.17499999999999716
                },
                {
                    "name": "C#2",
                    "midi": 37,
                    "time": 108.49583333333324,
                    "velocity": 0.3937007874015748,
                    "duration": 0.12291666666666856
                },
                {
                    "name": "A#1",
                    "midi": 34,
                    "time": 108.5624999999999,
                    "velocity": 0.4881889763779528,
                    "duration": 0.07500000000000284
                },
                {
                    "name": "E2",
                    "midi": 40,
                    "time": 108.80416666666657,
                    "velocity": 0.6614173228346457,
                    "duration": 0.31041666666665435
                },
                {
                    "name": "A3",
                    "midi": 57,
                    "time": 108.85833333333323,
                    "velocity": 0.6614173228346457,
                    "duration": 0.32083333333333997
                },
                {
                    "name": "C#3",
                    "midi": 49,
                    "time": 108.87083333333324,
                    "velocity": 0.5354330708661418,
                    "duration": 0.2187499999999858
                },
                {
                    "name": "F#3",
                    "midi": 54,
                    "time": 108.8749999999999,
                    "velocity": 0.5984251968503937,
                    "duration": 0.27916666666666856
                },
                {
                    "name": "A2",
                    "midi": 45,
                    "time": 109.08333333333323,
                    "velocity": 0.4645669291338583,
                    "duration": 0.1875000000000142
                },
                {
                    "name": "C#3",
                    "midi": 49,
                    "time": 109.25208333333325,
                    "velocity": 0.7007874015748031,
                    "duration": 0.10416666666665719
                },
                {
                    "name": "E3",
                    "midi": 52,
                    "time": 109.37083333333324,
                    "velocity": 0.5433070866141733,
                    "duration": 0.14374999999999716
                },
                {
                    "name": "F#3",
                    "midi": 54,
                    "time": 109.49166666666657,
                    "velocity": 0.5669291338582677,
                    "duration": 0.09791666666664867
                },
                {
                    "name": "F#4",
                    "midi": 66,
                    "time": 109.5624999999999,
                    "velocity": 0.8818897637795275,
                    "duration": 0.09999999999999432
                },
                {
                    "name": "A3",
                    "midi": 57,
                    "time": 109.5687499999999,
                    "velocity": 0.6771653543307087,
                    "duration": 0.04374999999998863
                },
                {
                    "name": "C#4",
                    "midi": 61,
                    "time": 109.57083333333323,
                    "velocity": 0.8188976377952756,
                    "duration": 0.04999999999999716
                },
                {
                    "name": "E3",
                    "midi": 52,
                    "time": 109.65208333333322,
                    "velocity": 0.44881889763779526,
                    "duration": 0.12291666666668277
                },
                {
                    "name": "C#3",
                    "midi": 49,
                    "time": 109.77291666666657,
                    "velocity": 0.6850393700787402,
                    "duration": 0.11041666666666572
                },
                {
                    "name": "A2",
                    "midi": 45,
                    "time": 109.90833333333325,
                    "velocity": 0.6850393700787402,
                    "duration": 0.16458333333332575
                },
                {
                    "name": "E2",
                    "midi": 40,
                    "time": 109.9624999999999,
                    "velocity": 0.6771653543307087,
                    "duration": 0.9562499999999687
                },
                {
                    "name": "A2",
                    "midi": 45,
                    "time": 110.1187499999999,
                    "velocity": 0.6299212598425197,
                    "duration": 0.7166666666666401
                },
                {
                    "name": "C#3",
                    "midi": 49,
                    "time": 110.22916666666657,
                    "velocity": 0.7559055118110236,
                    "duration": 0.5999999999999801
                },
                {
                    "name": "F#3",
                    "midi": 54,
                    "time": 110.32916666666657,
                    "velocity": 0.6062992125984252,
                    "duration": 0.45208333333332007
                },
                {
                    "name": "A3",
                    "midi": 57,
                    "time": 110.39791666666656,
                    "velocity": 0.5511811023622047,
                    "duration": 0.23749999999999716
                },
                {
                    "name": "C#4",
                    "midi": 61,
                    "time": 110.50833333333323,
                    "velocity": 0.6929133858267716,
                    "duration": 0.1770833333333286
                },
                {
                    "name": "F#4",
                    "midi": 66,
                    "time": 110.5812499999999,
                    "velocity": 0.8503937007874016,
                    "duration": 0.5708333333333115
                },
                {
                    "name": "C#4",
                    "midi": 61,
                    "time": 110.82291666666656,
                    "velocity": 0.6456692913385826,
                    "duration": 0.4437499999999801
                },
                {
                    "name": "A3",
                    "midi": 57,
                    "time": 110.98541666666654,
                    "velocity": 0.5118110236220472,
                    "duration": 0.2916666666666714
                },
                {
                    "name": "F#3",
                    "midi": 54,
                    "time": 111.12499999999987,
                    "velocity": 0.5275590551181102,
                    "duration": 0.21666666666668277
                },
                {
                    "name": "E1",
                    "midi": 28,
                    "time": 111.30208333333321,
                    "velocity": 0.6929133858267716,
                    "duration": 0.18541666666666856
                },
                {
                    "name": "E2",
                    "midi": 40,
                    "time": 111.49999999999989,
                    "velocity": 0.6299212598425197,
                    "duration": 0.08958333333333712
                },
                {
                    "name": "A2",
                    "midi": 45,
                    "time": 111.69583333333323,
                    "velocity": 0.6062992125984252,
                    "duration": 0.25833333333332575
                },
                {
                    "name": "C#3",
                    "midi": 49,
                    "time": 111.81041666666655,
                    "velocity": 0.6299212598425197,
                    "duration": 0.17291666666666572
                },
                {
                    "name": "F3",
                    "midi": 53,
                    "time": 111.93333333333322,
                    "velocity": 0.5984251968503937,
                    "duration": 0.09791666666666288
                },
                {
                    "name": "F#3",
                    "midi": 54,
                    "time": 112.01041666666656,
                    "velocity": 0.6299212598425197,
                    "duration": 0.1354166666666572
                },
                {
                    "name": "A3",
                    "midi": 57,
                    "time": 112.15416666666655,
                    "velocity": 0.4094488188976378,
                    "duration": 0.125
                },
                {
                    "name": "C#4",
                    "midi": 61,
                    "time": 112.24791666666655,
                    "velocity": 0.7086614173228346,
                    "duration": 0.08958333333333712
                },
                {
                    "name": "E2",
                    "midi": 40,
                    "time": 112.40624999999989,
                    "velocity": 0.6220472440944882,
                    "duration": 0.1395833333333485
                },
                {
                    "name": "D#4",
                    "midi": 63,
                    "time": 112.48958333333323,
                    "velocity": 0.6299212598425197,
                    "duration": 0.18333333333333712
                },
                {
                    "name": "E4",
                    "midi": 64,
                    "time": 112.67916666666656,
                    "velocity": 0.48031496062992124,
                    "duration": 0.12916666666666288
                },
                {
                    "name": "F#3",
                    "midi": 54,
                    "time": 112.86041666666655,
                    "velocity": 0.36220472440944884,
                    "duration": 0.1729166666666515
                },
                {
                    "name": "A3",
                    "midi": 57,
                    "time": 112.86249999999988,
                    "velocity": 0.3858267716535433,
                    "duration": 0.14374999999998295
                },
                {
                    "name": "C#3",
                    "midi": 49,
                    "time": 112.86666666666655,
                    "velocity": 0.4094488188976378,
                    "duration": 0.1729166666666515
                },
                {
                    "name": "F4",
                    "midi": 65,
                    "time": 112.8895833333332,
                    "velocity": 0.49606299212598426,
                    "duration": 0.125
                },
                {
                    "name": "A4",
                    "midi": 69,
                    "time": 113.06249999999986,
                    "velocity": 0.5039370078740157,
                    "duration": 0.054166666666660035
                },
                {
                    "name": "C#5",
                    "midi": 73,
                    "time": 113.31249999999986,
                    "velocity": 0.7401574803149606,
                    "duration": 0.07291666666665719
                },
                {
                    "name": "D5",
                    "midi": 74,
                    "time": 113.47708333333318,
                    "velocity": 0.8031496062992126,
                    "duration": 0.07916666666666572
                },
                {
                    "name": "E2",
                    "midi": 40,
                    "time": 113.71041666666652,
                    "velocity": 0.6062992125984252,
                    "duration": 0.07708333333333428
                },
                {
                    "name": "C#5",
                    "midi": 73,
                    "time": 113.72083333333319,
                    "velocity": 0.6929133858267716,
                    "duration": 0.11041666666666572
                },
                {
                    "name": "F4",
                    "midi": 65,
                    "time": 113.73333333333319,
                    "velocity": 0.5118110236220472,
                    "duration": 0.08541666666666003
                },
                {
                    "name": "A#4",
                    "midi": 70,
                    "time": 113.73749999999986,
                    "velocity": 0.5039370078740157,
                    "duration": 0.07083333333332575
                },
                {
                    "name": "E3",
                    "midi": 52,
                    "time": 113.92291666666652,
                    "velocity": 0.2125984251968504,
                    "duration": 0.08124999999999716
                },
                {
                    "name": "D#3",
                    "midi": 51,
                    "time": 114.01666666666652,
                    "velocity": 0.4094488188976378,
                    "duration": 0.04375000000000284
                },
                {
                    "name": "E3",
                    "midi": 52,
                    "time": 114.09374999999986,
                    "velocity": 0.4645669291338583,
                    "duration": 0.3604166666666657
                },
                {
                    "name": "D#3",
                    "midi": 51,
                    "time": 114.21666666666653,
                    "velocity": 0.5196850393700787,
                    "duration": 0.06041666666666856
                },
                {
                    "name": "B4",
                    "midi": 71,
                    "time": 114.40624999999986,
                    "velocity": 0.6299212598425197,
                    "duration": 0.08541666666666003
                },
                {
                    "name": "F#4",
                    "midi": 66,
                    "time": 114.40624999999986,
                    "velocity": 0.6377952755905512,
                    "duration": 0.054166666666660035
                },
                {
                    "name": "D4",
                    "midi": 62,
                    "time": 114.41041666666652,
                    "velocity": 0.5354330708661418,
                    "duration": 0.04583333333333428
                },
                {
                    "name": "D#3",
                    "midi": 51,
                    "time": 114.45416666666652,
                    "velocity": 0.4251968503937008,
                    "duration": 0.0625
                },
                {
                    "name": "E3",
                    "midi": 52,
                    "time": 114.59166666666653,
                    "velocity": 0.4015748031496063,
                    "duration": 0.11666666666666003
                },
                {
                    "name": "E2",
                    "midi": 40,
                    "time": 114.74374999999985,
                    "velocity": 0.7007874015748031,
                    "duration": 0.0833333333333286
                },
                {
                    "name": "E3",
                    "midi": 52,
                    "time": 114.87499999999984,
                    "velocity": 0.4015748031496063,
                    "duration": 0.1145833333333286
                },
                {
                    "name": "D#3",
                    "midi": 51,
                    "time": 115.0041666666665,
                    "velocity": 0.5433070866141733,
                    "duration": 0.052083333333328596
                },
                {
                    "name": "E3",
                    "midi": 52,
                    "time": 115.08124999999984,
                    "velocity": 0.5039370078740157,
                    "duration": 0.11249999999999716
                },
                {
                    "name": "D#3",
                    "midi": 51,
                    "time": 115.19583333333317,
                    "velocity": 0.6771653543307087,
                    "duration": 0.056250000000005684
                },
                {
                    "name": "E3",
                    "midi": 52,
                    "time": 115.26041666666652,
                    "velocity": 0.5590551181102362,
                    "duration": 0.1354166666666714
                },
                {
                    "name": "D#3",
                    "midi": 51,
                    "time": 115.40624999999986,
                    "velocity": 0.5196850393700787,
                    "duration": 0.052083333333328596
                },
                {
                    "name": "C#5",
                    "midi": 73,
                    "time": 115.44999999999986,
                    "velocity": 0.8267716535433071,
                    "duration": 0.10833333333332007
                },
                {
                    "name": "F4",
                    "midi": 65,
                    "time": 115.45416666666652,
                    "velocity": 0.7165354330708661,
                    "duration": 0.06666666666666288
                },
                {
                    "name": "E3",
                    "midi": 52,
                    "time": 115.58124999999984,
                    "velocity": 0.5905511811023622,
                    "duration": 0.1291666666666771
                },
                {
                    "name": "G#4",
                    "midi": 68,
                    "time": 115.59166666666651,
                    "velocity": 0.7086614173228346,
                    "duration": 0.10833333333333428
                },
                {
                    "name": "E2",
                    "midi": 40,
                    "time": 115.74166666666652,
                    "velocity": 0.6141732283464567,
                    "duration": 0.08541666666667425
                },
                {
                    "name": "B4",
                    "midi": 71,
                    "time": 115.75624999999985,
                    "velocity": 0.7165354330708661,
                    "duration": 0.10625000000000284
                },
                {
                    "name": "C#4",
                    "midi": 61,
                    "time": 115.77291666666652,
                    "velocity": 0.5433070866141733,
                    "duration": 0.039583333333339965
                },
                {
                    "name": "F#4",
                    "midi": 66,
                    "time": 115.78124999999986,
                    "velocity": 0.6220472440944882,
                    "duration": 0.04583333333333428
                },
                {
                    "name": "E3",
                    "midi": 52,
                    "time": 115.86458333333319,
                    "velocity": 0.41732283464566927,
                    "duration": 0.13124999999999432
                },
                {
                    "name": "D#3",
                    "midi": 51,
                    "time": 116.00624999999985,
                    "velocity": 0.6220472440944882,
                    "duration": 0.06041666666666856
                },
                {
                    "name": "E3",
                    "midi": 52,
                    "time": 116.10208333333318,
                    "velocity": 0.5196850393700787,
                    "duration": 0.3500000000000085
                },
                {
                    "name": "D#3",
                    "midi": 51,
                    "time": 116.20208333333318,
                    "velocity": 0.6377952755905512,
                    "duration": 0.06875000000000853
                },
                {
                    "name": "C#4",
                    "midi": 61,
                    "time": 116.42291666666652,
                    "velocity": 0.5984251968503937,
                    "duration": 0.056250000000005684
                },
                {
                    "name": "A4",
                    "midi": 69,
                    "time": 116.43958333333319,
                    "velocity": 0.5669291338582677,
                    "duration": 0.06666666666667709
                },
                {
                    "name": "D#3",
                    "midi": 51,
                    "time": 116.44166666666652,
                    "velocity": 0.47244094488188976,
                    "duration": 0.09375000000001421
                },
                {
                    "name": "F#4",
                    "midi": 66,
                    "time": 116.44374999999985,
                    "velocity": 0.4409448818897638,
                    "duration": 0.04791666666667993
                },
                {
                    "name": "E3",
                    "midi": 52,
                    "time": 116.57916666666654,
                    "velocity": 0.3937007874015748,
                    "duration": 0.11666666666667425
                },
                {
                    "name": "E2",
                    "midi": 40,
                    "time": 116.74166666666655,
                    "velocity": 0.6929133858267716,
                    "duration": 0.07708333333333428
                },
                {
                    "name": "E3",
                    "midi": 52,
                    "time": 116.84583333333322,
                    "velocity": 0.4645669291338583,
                    "duration": 0.125
                },
                {
                    "name": "D#3",
                    "midi": 51,
                    "time": 116.98541666666655,
                    "velocity": 0.4645669291338583,
                    "duration": 0.052083333333328596
                },
                {
                    "name": "E3",
                    "midi": 52,
                    "time": 117.07291666666654,
                    "velocity": 0.4251968503937008,
                    "duration": 0.13749999999998863
                },
                {
                    "name": "D#3",
                    "midi": 51,
                    "time": 117.18541666666653,
                    "velocity": 0.5984251968503937,
                    "duration": 0.06041666666666856
                },
                {
                    "name": "E3",
                    "midi": 52,
                    "time": 117.2583333333332,
                    "velocity": 0.12598425196850394,
                    "duration": 0.1520833333333229
                },
                {
                    "name": "D#3",
                    "midi": 51,
                    "time": 117.40416666666653,
                    "velocity": 0.5826771653543307,
                    "duration": 0.07708333333332007
                },
                {
                    "name": "G#4",
                    "midi": 68,
                    "time": 117.44166666666652,
                    "velocity": 0.7637795275590551,
                    "duration": 0.09583333333333144
                },
                {
                    "name": "C4",
                    "midi": 60,
                    "time": 117.45624999999986,
                    "velocity": 0.6771653543307087,
                    "duration": 0.037499999999994316
                },
                {
                    "name": "D#4",
                    "midi": 63,
                    "time": 117.46041666666652,
                    "velocity": 0.6377952755905512,
                    "duration": 0.037499999999994316
                },
                {
                    "name": "E3",
                    "midi": 52,
                    "time": 117.52708333333318,
                    "velocity": 0.3937007874015748,
                    "duration": 0.16250000000000853
                },
                {
                    "name": "D#4",
                    "midi": 63,
                    "time": 117.58958333333318,
                    "velocity": 0.49606299212598426,
                    "duration": 0.056250000000005684
                },
                {
                    "name": "F#4",
                    "midi": 66,
                    "time": 117.59791666666652,
                    "velocity": 0.6850393700787402,
                    "duration": 0.08750000000000568
                },
                {
                    "name": "E2",
                    "midi": 40,
                    "time": 117.74999999999984,
                    "velocity": 0.47244094488188976,
                    "duration": 0.10625000000000284
                },
                {
                    "name": "G#4",
                    "midi": 68,
                    "time": 117.77916666666651,
                    "velocity": 0.7480314960629921,
                    "duration": 0.09999999999999432
                },
                {
                    "name": "D#4",
                    "midi": 63,
                    "time": 117.80624999999985,
                    "velocity": 0.4251968503937008,
                    "duration": 0.04375000000000284
                },
                {
                    "name": "C4",
                    "midi": 60,
                    "time": 117.81666666666652,
                    "velocity": 0.2755905511811024,
                    "duration": 0.039583333333325754
                },
                {
                    "name": "E3",
                    "midi": 52,
                    "time": 117.9166666666665,
                    "velocity": 0.33858267716535434,
                    "duration": 0.1145833333333286
                },
                {
                    "name": "D#3",
                    "midi": 51,
                    "time": 118.02083333333316,
                    "velocity": 0.5275590551181102,
                    "duration": 0.07708333333333428
                },
                {
                    "name": "E3",
                    "midi": 52,
                    "time": 118.11666666666649,
                    "velocity": 0.5275590551181102,
                    "duration": 0.1416666666666515
                },
                {
                    "name": "D#3",
                    "midi": 51,
                    "time": 118.22083333333315,
                    "velocity": 0.6377952755905512,
                    "duration": 0.08749999999997726
                },
                {
                    "name": "E3",
                    "midi": 52,
                    "time": 118.30624999999979,
                    "velocity": 0.2125984251968504,
                    "duration": 0.15833333333333144
                },
                {
                    "name": "F#4",
                    "midi": 66,
                    "time": 118.40833333333312,
                    "velocity": 0.7086614173228346,
                    "duration": 0.08124999999999716
                },
                {
                    "name": "D#4",
                    "midi": 63,
                    "time": 118.41041666666645,
                    "velocity": 0.7322834645669292,
                    "duration": 0.07500000000000284
                },
                {
                    "name": "C4",
                    "midi": 60,
                    "time": 118.41874999999979,
                    "velocity": 0.5826771653543307,
                    "duration": 0.04583333333333428
                },
                {
                    "name": "D#3",
                    "midi": 51,
                    "time": 118.43333333333312,
                    "velocity": 0.5984251968503937,
                    "duration": 0.09374999999998579
                },
                {
                    "name": "E3",
                    "midi": 52,
                    "time": 118.57291666666644,
                    "velocity": 0.44881889763779526,
                    "duration": 0.1145833333333286
                },
                {
                    "name": "F#4",
                    "midi": 66,
                    "time": 118.73749999999977,
                    "velocity": 0.7165354330708661,
                    "duration": 0.0833333333333286
                },
                {
                    "name": "E2",
                    "midi": 40,
                    "time": 118.74166666666643,
                    "velocity": 0.5826771653543307,
                    "duration": 0.07708333333333428
                },
                {
                    "name": "G#3",
                    "midi": 56,
                    "time": 118.7458333333331,
                    "velocity": 0.6614173228346457,
                    "duration": 0.04999999999999716
                },
                {
                    "name": "D4",
                    "midi": 62,
                    "time": 118.76666666666642,
                    "velocity": 0.5196850393700787,
                    "duration": 0.04375000000000284
                },
                {
                    "name": "E3",
                    "midi": 52,
                    "time": 118.84791666666644,
                    "velocity": 0.4645669291338583,
                    "duration": 0.18958333333333144
                },
                {
                    "name": "G#3",
                    "midi": 56,
                    "time": 118.8770833333331,
                    "velocity": 0.6299212598425197,
                    "duration": 0.06041666666666856
                },
                {
                    "name": "D4",
                    "midi": 62,
                    "time": 118.8833333333331,
                    "velocity": 0.6062992125984252,
                    "duration": 0.07916666666666572
                },
                {
                    "name": "F#4",
                    "midi": 66,
                    "time": 118.8833333333331,
                    "velocity": 0.7007874015748031,
                    "duration": 0.08124999999999716
                },
                {
                    "name": "F#4",
                    "midi": 66,
                    "time": 119.00624999999977,
                    "velocity": 0.5118110236220472,
                    "duration": 0.10208333333332575
                },
                {
                    "name": "D#3",
                    "midi": 51,
                    "time": 119.03749999999977,
                    "velocity": 0.5118110236220472,
                    "duration": 0.08749999999999147
                },
                {
                    "name": "D4",
                    "midi": 62,
                    "time": 119.03749999999977,
                    "velocity": 0.4251968503937008,
                    "duration": 0.052083333333328596
                },
                {
                    "name": "E3",
                    "midi": 52,
                    "time": 119.15416666666643,
                    "velocity": 0.36220472440944884,
                    "duration": 0.18333333333333712
                },
                {
                    "name": "D#3",
                    "midi": 51,
                    "time": 119.31249999999976,
                    "velocity": 0.5275590551181102,
                    "duration": 0.09375
                },
                {
                    "name": "E4",
                    "midi": 64,
                    "time": 119.38958333333309,
                    "velocity": 0.6614173228346457,
                    "duration": 0.10208333333333997
                },
                {
                    "name": "G#3",
                    "midi": 56,
                    "time": 119.40624999999976,
                    "velocity": 0.48031496062992124,
                    "duration": 0.041666666666671404
                },
                {
                    "name": "E3",
                    "midi": 52,
                    "time": 119.40624999999976,
                    "velocity": 0.4409448818897638,
                    "duration": 0.06875000000000853
                },
                {
                    "name": "D4",
                    "midi": 62,
                    "time": 119.43958333333309,
                    "velocity": 0.28346456692913385,
                    "duration": 0.05000000000001137
                },
                {
                    "name": "A1",
                    "midi": 33,
                    "time": 119.70416666666642,
                    "velocity": 0.6456692913385826,
                    "duration": 0.07083333333333997
                },
                {
                    "name": "A2",
                    "midi": 45,
                    "time": 119.70624999999976,
                    "velocity": 0.7007874015748031,
                    "duration": 0.056250000000005684
                },
                {
                    "name": "B2",
                    "midi": 47,
                    "time": 120.02291666666643,
                    "velocity": 0.6850393700787402,
                    "duration": 0.11666666666666003
                },
                {
                    "name": "C#3",
                    "midi": 49,
                    "time": 120.06874999999977,
                    "velocity": 0.5984251968503937,
                    "duration": 0.08958333333332291
                },
                {
                    "name": "E3",
                    "midi": 52,
                    "time": 120.13541666666643,
                    "velocity": 0.5354330708661418,
                    "duration": 0.07708333333333428
                },
                {
                    "name": "G3",
                    "midi": 55,
                    "time": 120.18541666666643,
                    "velocity": 0.5118110236220472,
                    "duration": 0.04791666666666572
                },
                {
                    "name": "B3",
                    "midi": 59,
                    "time": 120.25416666666642,
                    "velocity": 0.6062992125984252,
                    "duration": 0.3541666666666856
                },
                {
                    "name": "C#4",
                    "midi": 61,
                    "time": 120.34374999999976,
                    "velocity": 0.6692913385826772,
                    "duration": 0.45000000000001705
                },
                {
                    "name": "E4",
                    "midi": 64,
                    "time": 120.41874999999976,
                    "velocity": 0.5905511811023622,
                    "duration": 0.24791666666666856
                },
                {
                    "name": "G4",
                    "midi": 67,
                    "time": 120.44999999999976,
                    "velocity": 0.7244094488188977,
                    "duration": 0.17916666666667425
                },
                {
                    "name": "B4",
                    "midi": 71,
                    "time": 120.49166666666643,
                    "velocity": 0.4251968503937008,
                    "duration": 0.09375
                },
                {
                    "name": "C#5",
                    "midi": 73,
                    "time": 120.55416666666643,
                    "velocity": 0.7480314960629921,
                    "duration": 0.06041666666666856
                },
                {
                    "name": "E5",
                    "midi": 76,
                    "time": 120.5958333333331,
                    "velocity": 0.6929133858267716,
                    "duration": 0.09583333333333144
                },
                {
                    "name": "G5",
                    "midi": 79,
                    "time": 120.67499999999977,
                    "velocity": 0.7401574803149606,
                    "duration": 0.09791666666666288
                },
                {
                    "name": "B5",
                    "midi": 83,
                    "time": 120.70833333333312,
                    "velocity": 0.8582677165354331,
                    "duration": 0.25833333333332575
                },
                {
                    "name": "G4",
                    "midi": 67,
                    "time": 120.72916666666644,
                    "velocity": 0.84251968503937,
                    "duration": 0.25
                },
                {
                    "name": "E4",
                    "midi": 64,
                    "time": 120.73124999999978,
                    "velocity": 0.7244094488188977,
                    "duration": 0.47708333333331154
                },
                {
                    "name": "B3",
                    "midi": 59,
                    "time": 120.73749999999977,
                    "velocity": 0.7322834645669292,
                    "duration": 0.22708333333333997
                },
                {
                    "name": "G5",
                    "midi": 79,
                    "time": 120.93333333333311,
                    "velocity": 0.3937007874015748,
                    "duration": 0.17916666666666003
                },
                {
                    "name": "E5",
                    "midi": 76,
                    "time": 121.02916666666644,
                    "velocity": 0.5984251968503937,
                    "duration": 0.11249999999998295
                },
                {
                    "name": "B4",
                    "midi": 71,
                    "time": 121.11874999999976,
                    "velocity": 0.6062992125984252,
                    "duration": 0.07708333333332007
                },
                {
                    "name": "A#3",
                    "midi": 58,
                    "time": 121.14583333333309,
                    "velocity": 0.6614173228346457,
                    "duration": 0.24166666666667425
                },
                {
                    "name": "D#4",
                    "midi": 63,
                    "time": 121.15833333333309,
                    "velocity": 0.6850393700787402,
                    "duration": 0.20000000000000284
                },
                {
                    "name": "F#4",
                    "midi": 66,
                    "time": 121.25208333333309,
                    "velocity": 0.9291338582677166,
                    "duration": 0.08541666666667425
                },
                {
                    "name": "A#4",
                    "midi": 70,
                    "time": 121.29583333333309,
                    "velocity": 0.8503937007874016,
                    "duration": 0.25
                },
                {
                    "name": "D#5",
                    "midi": 75,
                    "time": 121.4333333333331,
                    "velocity": 0.7322834645669292,
                    "duration": 0.24375000000000568
                },
                {
                    "name": "F#5",
                    "midi": 78,
                    "time": 121.53124999999976,
                    "velocity": 0.6062992125984252,
                    "duration": 0.18125000000000568
                },
                {
                    "name": "A#5",
                    "midi": 82,
                    "time": 121.61666666666643,
                    "velocity": 0.7322834645669292,
                    "duration": 0.09999999999999432
                },
                {
                    "name": "E2",
                    "midi": 40,
                    "time": 121.72499999999977,
                    "velocity": 0.6929133858267716,
                    "duration": 0.10625000000000284
                },
                {
                    "name": "B5",
                    "midi": 83,
                    "time": 121.76666666666644,
                    "velocity": 0.8503937007874016,
                    "duration": 0.18333333333333712
                },
                {
                    "name": "E3",
                    "midi": 52,
                    "time": 121.77291666666643,
                    "velocity": 0.84251968503937,
                    "duration": 0.11875000000000568
                },
                {
                    "name": "G5",
                    "midi": 79,
                    "time": 121.93749999999977,
                    "velocity": 0.5590551181102362,
                    "duration": 0.17083333333332007
                },
                {
                    "name": "E5",
                    "midi": 76,
                    "time": 122.0645833333331,
                    "velocity": 0.6535433070866141,
                    "duration": 0.07708333333333428
                },
                {
                    "name": "G3",
                    "midi": 55,
                    "time": 122.09791666666644,
                    "velocity": 0.5826771653543307,
                    "duration": 0.15625
                },
                {
                    "name": "B3",
                    "midi": 59,
                    "time": 122.1020833333331,
                    "velocity": 0.6377952755905512,
                    "duration": 0.11041666666666572
                },
                {
                    "name": "B4",
                    "midi": 71,
                    "time": 122.1333333333331,
                    "velocity": 0.6929133858267716,
                    "duration": 0.0729166666666714
                },
                {
                    "name": "C#5",
                    "midi": 73,
                    "time": 122.3645833333331,
                    "velocity": 0.8346456692913385,
                    "duration": 0.2874999999999943
                },
                {
                    "name": "B4",
                    "midi": 71,
                    "time": 122.56249999999977,
                    "velocity": 0.47244094488188976,
                    "duration": 0.1145833333333286
                },
                {
                    "name": "G4",
                    "midi": 67,
                    "time": 122.62916666666644,
                    "velocity": 0.4881889763779528,
                    "duration": 0.08958333333333712
                },
                {
                    "name": "C#4",
                    "midi": 61,
                    "time": 122.6895833333331,
                    "velocity": 0.6771653543307087,
                    "duration": 0.06875000000000853
                },
                {
                    "name": "A1",
                    "midi": 33,
                    "time": 122.69166666666644,
                    "velocity": 0.6692913385826772,
                    "duration": 0.08750000000000568
                },
                {
                    "name": "A2",
                    "midi": 45,
                    "time": 122.71874999999977,
                    "velocity": 0.7874015748031497,
                    "duration": 0.0833333333333286
                },
                {
                    "name": "G3",
                    "midi": 55,
                    "time": 123.04166666666643,
                    "velocity": 0.5826771653543307,
                    "duration": 0.15625
                },
                {
                    "name": "B3",
                    "midi": 59,
                    "time": 123.14374999999977,
                    "velocity": 0.6220472440944882,
                    "duration": 0.11666666666666003
                },
                {
                    "name": "C#4",
                    "midi": 61,
                    "time": 123.2145833333331,
                    "velocity": 0.7322834645669292,
                    "duration": 0.08333333333334281
                },
                {
                    "name": "G4",
                    "midi": 67,
                    "time": 123.27291666666643,
                    "velocity": 0.6850393700787402,
                    "duration": 0.14166666666666572
                },
                {
                    "name": "C#4",
                    "midi": 61,
                    "time": 123.36249999999977,
                    "velocity": 0.5984251968503937,
                    "duration": 0.16041666666666288
                },
                {
                    "name": "B3",
                    "midi": 59,
                    "time": 123.41666666666643,
                    "velocity": 0.6614173228346457,
                    "duration": 0.11875000000000568
                },
                {
                    "name": "G3",
                    "midi": 55,
                    "time": 123.48124999999976,
                    "velocity": 0.6377952755905512,
                    "duration": 0.08333333333334281
                },
                {
                    "name": "E3",
                    "midi": 52,
                    "time": 123.63124999999977,
                    "velocity": 0.9133858267716536,
                    "duration": 0.6791666666666742
                },
                {
                    "name": "E2",
                    "midi": 40,
                    "time": 123.6333333333331,
                    "velocity": 0.8346456692913385,
                    "duration": 0.7291666666666714
                },
                {
                    "name": "C#4",
                    "midi": 61,
                    "time": 123.83958333333311,
                    "velocity": 0.5826771653543307,
                    "duration": 0.09375
                },
                {
                    "name": "G4",
                    "midi": 67,
                    "time": 123.91874999999978,
                    "velocity": 0.5433070866141733,
                    "duration": 0.12708333333333144
                },
                {
                    "name": "B4",
                    "midi": 71,
                    "time": 124.0145833333331,
                    "velocity": 0.5748031496062992,
                    "duration": 0.16041666666666288
                },
                {
                    "name": "C5",
                    "midi": 72,
                    "time": 124.21666666666644,
                    "velocity": 0.8110236220472441,
                    "duration": 0.20624999999999716
                },
                {
                    "name": "G4",
                    "midi": 67,
                    "time": 124.40208333333311,
                    "velocity": 0.6220472440944882,
                    "duration": 0.08124999999999716
                },
                {
                    "name": "E4",
                    "midi": 64,
                    "time": 124.47499999999977,
                    "velocity": 0.4330708661417323,
                    "duration": 0.09375000000001421
                },
                {
                    "name": "C4",
                    "midi": 60,
                    "time": 124.52291666666645,
                    "velocity": 0.6850393700787402,
                    "duration": 0.0729166666666714
                },
                {
                    "name": "A2",
                    "midi": 45,
                    "time": 124.62291666666646,
                    "velocity": 0.6614173228346457,
                    "duration": 0.5125000000000028
                },
                {
                    "name": "A1",
                    "midi": 33,
                    "time": 124.62708333333312,
                    "velocity": 0.7244094488188977,
                    "duration": 0.42291666666667993
                },
                {
                    "name": "C#5",
                    "midi": 73,
                    "time": 124.63749999999979,
                    "velocity": 0.84251968503937,
                    "duration": 0.22083333333334565
                },
                {
                    "name": "G4",
                    "midi": 67,
                    "time": 124.78333333333313,
                    "velocity": 0.5354330708661418,
                    "duration": 0.11875000000000568
                },
                {
                    "name": "E4",
                    "midi": 64,
                    "time": 124.86666666666648,
                    "velocity": 0.6692913385826772,
                    "duration": 0.07708333333333428
                },
                {
                    "name": "E5",
                    "midi": 76,
                    "time": 124.96458333333314,
                    "velocity": 0.8503937007874016,
                    "duration": 0.18541666666665435
                },
                {
                    "name": "B4",
                    "midi": 71,
                    "time": 125.05208333333313,
                    "velocity": 0.6614173228346457,
                    "duration": 0.10833333333333428
                },
                {
                    "name": "G4",
                    "midi": 67,
                    "time": 125.13541666666646,
                    "velocity": 0.5984251968503937,
                    "duration": 0.0729166666666714
                },
                {
                    "name": "G5",
                    "midi": 79,
                    "time": 125.23541666666647,
                    "velocity": 0.8582677165354331,
                    "duration": 0.1979166666666572
                },
                {
                    "name": "D#5",
                    "midi": 75,
                    "time": 125.33333333333313,
                    "velocity": 0.7480314960629921,
                    "duration": 0.125
                },
                {
                    "name": "A#4",
                    "midi": 70,
                    "time": 125.41458333333313,
                    "velocity": 0.7952755905511811,
                    "duration": 0.08958333333333712
                },
                {
                    "name": "D2",
                    "midi": 38,
                    "time": 125.52499999999979,
                    "velocity": 0.6771653543307087,
                    "duration": 0.6666666666666856
                },
                {
                    "name": "D3",
                    "midi": 50,
                    "time": 125.54583333333314,
                    "velocity": 0.8976377952755905,
                    "duration": 0.57083333333334
                },
                {
                    "name": "B5",
                    "midi": 83,
                    "time": 125.5687499999998,
                    "velocity": 0.8740157480314961,
                    "duration": 0.23125000000000284
                },
                {
                    "name": "F#5",
                    "midi": 78,
                    "time": 125.7687499999998,
                    "velocity": 0.6771653543307087,
                    "duration": 0.1458333333333428
                },
                {
                    "name": "D5",
                    "midi": 74,
                    "time": 125.87291666666647,
                    "velocity": 0.5590551181102362,
                    "duration": 0.07708333333333428
                },
                {
                    "name": "B4",
                    "midi": 71,
                    "time": 125.93541666666647,
                    "velocity": 0.5905511811023622,
                    "duration": 0.04791666666666572
                },
                {
                    "name": "B4",
                    "midi": 71,
                    "time": 126.10208333333314,
                    "velocity": 0.5669291338582677,
                    "duration": 0.08750000000000568
                },
                {
                    "name": "F#4",
                    "midi": 66,
                    "time": 126.14791666666648,
                    "velocity": 0.6929133858267716,
                    "duration": 0.11041666666667993
                },
                {
                    "name": "D5",
                    "midi": 74,
                    "time": 126.24999999999982,
                    "velocity": 0.889763779527559,
                    "duration": 0.21666666666666856
                },
                {
                    "name": "B4",
                    "midi": 71,
                    "time": 126.36666666666649,
                    "velocity": 0.6692913385826772,
                    "duration": 0.1979166666666572
                },
                {
                    "name": "F#4",
                    "midi": 66,
                    "time": 126.46666666666648,
                    "velocity": 0.6220472440944882,
                    "duration": 0.12916666666666288
                },
                {
                    "name": "D4",
                    "midi": 62,
                    "time": 126.56041666666648,
                    "velocity": 0.5354330708661418,
                    "duration": 0.06458333333333144
                },
                {
                    "name": "A2",
                    "midi": 45,
                    "time": 126.59374999999982,
                    "velocity": 0.8582677165354331,
                    "duration": 0.6187499999999915
                },
                {
                    "name": "A1",
                    "midi": 33,
                    "time": 126.59999999999981,
                    "velocity": 0.7874015748031497,
                    "duration": 0.5458333333333343
                },
                {
                    "name": "F#3",
                    "midi": 54,
                    "time": 126.94374999999981,
                    "velocity": 0.7244094488188977,
                    "duration": 0.12708333333333144
                },
                {
                    "name": "B3",
                    "midi": 59,
                    "time": 127.02916666666647,
                    "velocity": 0.6062992125984252,
                    "duration": 0.11875000000000568
                },
                {
                    "name": "D4",
                    "midi": 62,
                    "time": 127.09999999999981,
                    "velocity": 0.6377952755905512,
                    "duration": 0.1145833333333286
                },
                {
                    "name": "F#4",
                    "midi": 66,
                    "time": 127.17083333333314,
                    "velocity": 0.8188976377952756,
                    "duration": 0.21041666666667425
                },
                {
                    "name": "D4",
                    "midi": 62,
                    "time": 127.28749999999981,
                    "velocity": 0.5905511811023622,
                    "duration": 0.15833333333333144
                },
                {
                    "name": "B3",
                    "midi": 59,
                    "time": 127.34166666666647,
                    "velocity": 0.5905511811023622,
                    "duration": 0.1354166666666714
                },
                {
                    "name": "F#3",
                    "midi": 54,
                    "time": 127.40416666666647,
                    "velocity": 0.7716535433070866,
                    "duration": 0.06458333333333144
                },
                {
                    "name": "D2",
                    "midi": 38,
                    "time": 127.56041666666647,
                    "velocity": 0.8582677165354331,
                    "duration": 0.14999999999999147
                },
                {
                    "name": "D3",
                    "midi": 50,
                    "time": 127.56041666666647,
                    "velocity": 0.9448818897637795,
                    "duration": 0.20208333333332007
                },
                {
                    "name": "D4",
                    "midi": 62,
                    "time": 128.04166666666646,
                    "velocity": 0.6614173228346457,
                    "duration": 0.0895833333333087
                },
                {
                    "name": "D6",
                    "midi": 86,
                    "time": 128.0437499999998,
                    "velocity": 0.8976377952755905,
                    "duration": 0.15416666666666856
                },
                {
                    "name": "F#3",
                    "midi": 54,
                    "time": 128.05416666666645,
                    "velocity": 0.5984251968503937,
                    "duration": 0.14791666666667425
                },
                {
                    "name": "B3",
                    "midi": 59,
                    "time": 128.05624999999978,
                    "velocity": 0.5511811023622047,
                    "duration": 0.07708333333332007
                },
                {
                    "name": "B5",
                    "midi": 83,
                    "time": 128.18124999999978,
                    "velocity": 0.5354330708661418,
                    "duration": 0.10624999999998863
                },
                {
                    "name": "F#5",
                    "midi": 78,
                    "time": 128.27291666666645,
                    "velocity": 0.5984251968503937,
                    "duration": 0.06458333333333144
                },
                {
                    "name": "C#6",
                    "midi": 85,
                    "time": 128.38958333333312,
                    "velocity": 0.8110236220472441,
                    "duration": 0.22083333333335986
                },
                {
                    "name": "A#5",
                    "midi": 82,
                    "time": 128.47291666666646,
                    "velocity": 0.7559055118110236,
                    "duration": 0.15833333333335986
                },
                {
                    "name": "F5",
                    "midi": 77,
                    "time": 128.58333333333314,
                    "velocity": 0.6692913385826772,
                    "duration": 0.07291666666668561
                },
                {
                    "name": "A1",
                    "midi": 33,
                    "time": 128.6479166666665,
                    "velocity": 0.7874015748031497,
                    "duration": 0.08333333333328596
                },
                {
                    "name": "A2",
                    "midi": 45,
                    "time": 128.6541666666665,
                    "velocity": 0.7795275590551181,
                    "duration": 0.10833333333329165
                },
                {
                    "name": "D6",
                    "midi": 86,
                    "time": 128.6666666666665,
                    "velocity": 0.8818897637795275,
                    "duration": 0.1624999999999659
                },
                {
                    "name": "B5",
                    "midi": 83,
                    "time": 128.79166666666646,
                    "velocity": 0.7322834645669292,
                    "duration": 0.1416666666666515
                },
                {
                    "name": "F#5",
                    "midi": 78,
                    "time": 128.89791666666645,
                    "velocity": 0.6692913385826772,
                    "duration": 0.07291666666665719
                },
                {
                    "name": "F#3",
                    "midi": 54,
                    "time": 128.98541666666642,
                    "velocity": 0.7952755905511811,
                    "duration": 0.07291666666665719
                },
                {
                    "name": "B3",
                    "midi": 59,
                    "time": 128.9895833333331,
                    "velocity": 0.6299212598425197,
                    "duration": 0.04166666666665719
                },
                {
                    "name": "B5",
                    "midi": 83,
                    "time": 128.99999999999974,
                    "velocity": 0.8188976377952756,
                    "duration": 0.16875000000001705
                },
                {
                    "name": "F#5",
                    "midi": 78,
                    "time": 129.1083333333331,
                    "velocity": 0.7795275590551181,
                    "duration": 0.10833333333334849
                },
                {
                    "name": "D5",
                    "midi": 74,
                    "time": 129.1958333333331,
                    "velocity": 0.6535433070866141,
                    "duration": 0.07291666666668561
                },
                {
                    "name": "F#5",
                    "midi": 78,
                    "time": 129.31666666666646,
                    "velocity": 0.8582677165354331,
                    "duration": 0.14791666666667425
                },
                {
                    "name": "D5",
                    "midi": 74,
                    "time": 129.39791666666648,
                    "velocity": 0.6535433070866141,
                    "duration": 0.10416666666665719
                },
                {
                    "name": "B4",
                    "midi": 71,
                    "time": 129.47916666666646,
                    "velocity": 0.5590551181102362,
                    "duration": 0.04583333333334849
                },
                {
                    "name": "D#2",
                    "midi": 39,
                    "time": 129.6437499999998,
                    "velocity": 0.7716535433070866,
                    "duration": 0.06041666666664014
                },
                {
                    "name": "D#3",
                    "midi": 51,
                    "time": 129.65833333333313,
                    "velocity": 0.9921259842519685,
                    "duration": 0.06458333333330302
                },
                {
                    "name": "C#6",
                    "midi": 85,
                    "time": 129.6687499999998,
                    "velocity": 0.9763779527559056,
                    "duration": 0.08958333333333712
                },
                {
                    "name": "C#5",
                    "midi": 73,
                    "time": 129.67499999999978,
                    "velocity": 0.9133858267716536,
                    "duration": 0.04374999999998863
                },
                {
                    "name": "F#5",
                    "midi": 78,
                    "time": 129.67708333333312,
                    "velocity": 0.8976377952755905,
                    "duration": 0.06458333333333144
                },
                {
                    "name": "A3",
                    "midi": 57,
                    "time": 130.04166666666646,
                    "velocity": 0.6614173228346457,
                    "duration": 0.2666666666666515
                },
                {
                    "name": "C#4",
                    "midi": 61,
                    "time": 130.16458333333313,
                    "velocity": 0.6614173228346457,
                    "duration": 0.13124999999999432
                },
                {
                    "name": "F#4",
                    "midi": 66,
                    "time": 130.23749999999978,
                    "velocity": 0.8976377952755905,
                    "duration": 0.06666666666666288
                },
                {
                    "name": "A4",
                    "midi": 69,
                    "time": 130.30208333333312,
                    "velocity": 0.5590551181102362,
                    "duration": 0.11458333333331439
                },
                {
                    "name": "C#5",
                    "midi": 73,
                    "time": 130.4020833333331,
                    "velocity": 0.7086614173228346,
                    "duration": 0.12291666666666856
                },
                {
                    "name": "F#5",
                    "midi": 78,
                    "time": 130.50624999999977,
                    "velocity": 0.7322834645669292,
                    "duration": 0.07500000000001705
                },
                {
                    "name": "A1",
                    "midi": 33,
                    "time": 130.67291666666645,
                    "velocity": 0.7244094488188977,
                    "duration": 0.06041666666664014
                },
                {
                    "name": "A2",
                    "midi": 45,
                    "time": 130.68749999999977,
                    "velocity": 0.8582677165354331,
                    "duration": 0.06874999999999432
                },
                {
                    "name": "C#4",
                    "midi": 61,
                    "time": 131.0583333333331,
                    "velocity": 0.7401574803149606,
                    "duration": 0.0625
                },
                {
                    "name": "F#4",
                    "midi": 66,
                    "time": 131.06666666666644,
                    "velocity": 0.952755905511811,
                    "duration": 0.05833333333333712
                },
                {
                    "name": "F#5",
                    "midi": 78,
                    "time": 131.06874999999977,
                    "velocity": 0.8818897637795275,
                    "duration": 0.09166666666666856
                },
                {
                    "name": "C#5",
                    "midi": 73,
                    "time": 131.0708333333331,
                    "velocity": 0.84251968503937,
                    "duration": 0.06458333333333144
                },
                {
                    "name": "A3",
                    "midi": 57,
                    "time": 131.0708333333331,
                    "velocity": 0.6299212598425197,
                    "duration": 0.04791666666667993
                },
                {
                    "name": "A5",
                    "midi": 81,
                    "time": 131.39583333333312,
                    "velocity": 0.8818897637795275,
                    "duration": 0.06874999999999432
                },
                {
                    "name": "A4",
                    "midi": 69,
                    "time": 131.4083333333331,
                    "velocity": 0.7244094488188977,
                    "duration": 0.07916666666667993
                },
                {
                    "name": "E2",
                    "midi": 40,
                    "time": 131.6645833333331,
                    "velocity": 0.7716535433070866,
                    "duration": 0.08333333333331439
                },
                {
                    "name": "E3",
                    "midi": 52,
                    "time": 131.69374999999977,
                    "velocity": 0.8976377952755905,
                    "duration": 0.07291666666665719
                },
                {
                    "name": "G5",
                    "midi": 79,
                    "time": 131.70416666666642,
                    "velocity": 0.8503937007874016,
                    "duration": 0.07499999999998863
                },
                {
                    "name": "C#6",
                    "midi": 85,
                    "time": 131.7083333333331,
                    "velocity": 0.9133858267716536,
                    "duration": 0.09791666666666288
                },
                {
                    "name": "C#5",
                    "midi": 73,
                    "time": 131.71041666666642,
                    "velocity": 0.952755905511811,
                    "duration": 0.06666666666666288
                },
                {
                    "name": "A3",
                    "midi": 57,
                    "time": 132.04791666666642,
                    "velocity": 0.6535433070866141,
                    "duration": 0.2604166666666572
                },
                {
                    "name": "C#4",
                    "midi": 61,
                    "time": 132.10624999999976,
                    "velocity": 0.7795275590551181,
                    "duration": 0.1875
                },
                {
                    "name": "G4",
                    "midi": 67,
                    "time": 132.1958333333331,
                    "velocity": 0.889763779527559,
                    "duration": 0.07083333333332575
                },
                {
                    "name": "C#6",
                    "midi": 85,
                    "time": 132.31874999999974,
                    "velocity": 0.984251968503937,
                    "duration": 0.38333333333329733
                },
                {
                    "name": "G5",
                    "midi": 79,
                    "time": 132.31874999999974,
                    "velocity": 0.8503937007874016,
                    "duration": 0.3874999999999602
                },
                {
                    "name": "C#5",
                    "midi": 73,
                    "time": 132.31874999999974,
                    "velocity": 0.968503937007874,
                    "duration": 0.40624999999994316
                },
                {
                    "name": "A1",
                    "midi": 33,
                    "time": 132.64583333333306,
                    "velocity": 0.7716535433070866,
                    "duration": 0.07083333333329733
                },
                {
                    "name": "A2",
                    "midi": 45,
                    "time": 132.66458333333304,
                    "velocity": 0.8818897637795275,
                    "duration": 0.07916666666665151
                },
                {
                    "name": "A3",
                    "midi": 57,
                    "time": 132.98958333333303,
                    "velocity": 0.6614173228346457,
                    "duration": 0.09166666666664014
                },
                {
                    "name": "G5",
                    "midi": 79,
                    "time": 132.9999999999997,
                    "velocity": 0.8346456692913385,
                    "duration": 0.07291666666665719
                },
                {
                    "name": "C#5",
                    "midi": 73,
                    "time": 133.00208333333302,
                    "velocity": 0.8503937007874016,
                    "duration": 0.04583333333332007
                },
                {
                    "name": "G4",
                    "midi": 67,
                    "time": 133.008333333333,
                    "velocity": 0.6850393700787402,
                    "duration": 0.04166666666665719
                },
                {
                    "name": "C#4",
                    "midi": 61,
                    "time": 133.01249999999968,
                    "velocity": 0.6141732283464567,
                    "duration": 0.039583333333325754
                },
                {
                    "name": "A#4",
                    "midi": 70,
                    "time": 133.31041666666633,
                    "velocity": 0.952755905511811,
                    "duration": 0.06666666666666288
                },
                {
                    "name": "A#5",
                    "midi": 82,
                    "time": 133.31249999999966,
                    "velocity": 0.889763779527559,
                    "duration": 0.07916666666665151
                },
                {
                    "name": "F3",
                    "midi": 53,
                    "time": 133.63124999999962,
                    "velocity": 0.889763779527559,
                    "duration": 0.06666666666666288
                },
                {
                    "name": "F2",
                    "midi": 41,
                    "time": 133.63749999999962,
                    "velocity": 0.6141732283464567,
                    "duration": 0.03541666666666288
                },
                {
                    "name": "C#6",
                    "midi": 85,
                    "time": 133.64166666666628,
                    "velocity": 0.9133858267716536,
                    "duration": 0.05208333333334281
                },
                {
                    "name": "C#5",
                    "midi": 73,
                    "time": 133.6437499999996,
                    "velocity": 0.9921259842519685,
                    "duration": 0.054166666666674246
                },
                {
                    "name": "G#5",
                    "midi": 80,
                    "time": 133.64791666666628,
                    "velocity": 0.8818897637795275,
                    "duration": 0.0625
                },
                {
                    "name": "A3",
                    "midi": 57,
                    "time": 134.01249999999962,
                    "velocity": 0.6692913385826772,
                    "duration": 0.13749999999998863
                },
                {
                    "name": "C#4",
                    "midi": 61,
                    "time": 134.10624999999962,
                    "velocity": 0.7244094488188977,
                    "duration": 0.12916666666666288
                },
                {
                    "name": "C#6",
                    "midi": 85,
                    "time": 134.20416666666628,
                    "velocity": 0.8976377952755905,
                    "duration": 0.04166666666665719
                },
                {
                    "name": "G#4",
                    "midi": 68,
                    "time": 134.2062499999996,
                    "velocity": 0.8582677165354331,
                    "duration": 0.05833333333333712
                },
                {
                    "name": "C#5",
                    "midi": 73,
                    "time": 134.2062499999996,
                    "velocity": 0.9763779527559056,
                    "duration": 0.04166666666665719
                },
                {
                    "name": "G#5",
                    "midi": 80,
                    "time": 134.21041666666628,
                    "velocity": 0.84251968503937,
                    "duration": 0.03333333333333144
                },
                {
                    "name": "C#6",
                    "midi": 85,
                    "time": 134.3229166666663,
                    "velocity": 0.8661417322834646,
                    "duration": 0.36041666666667993
                },
                {
                    "name": "C#5",
                    "midi": 73,
                    "time": 134.33333333333294,
                    "velocity": 0.905511811023622,
                    "duration": 0.3895833333333485
                },
                {
                    "name": "G#5",
                    "midi": 80,
                    "time": 134.3374999999996,
                    "velocity": 0.8503937007874016,
                    "duration": 0.3625000000000398
                },
                {
                    "name": "A1",
                    "midi": 33,
                    "time": 134.64166666666628,
                    "velocity": 0.7086614173228346,
                    "duration": 0.0666666666666913
                },
                {
                    "name": "A2",
                    "midi": 45,
                    "time": 134.65833333333296,
                    "velocity": 0.7952755905511811,
                    "duration": 0.07499999999998863
                },
                {
                    "name": "G#4",
                    "midi": 68,
                    "time": 134.9791666666663,
                    "velocity": 0.9133858267716536,
                    "duration": 0.0625
                },
                {
                    "name": "G#5",
                    "midi": 80,
                    "time": 134.98124999999962,
                    "velocity": 0.9133858267716536,
                    "duration": 0.09166666666666856
                },
                {
                    "name": "A3",
                    "midi": 57,
                    "time": 134.99999999999963,
                    "velocity": 0.5984251968503937,
                    "duration": 0.252083333333303
                },
                {
                    "name": "C#4",
                    "midi": 61,
                    "time": 135.0562499999996,
                    "velocity": 0.6929133858267716,
                    "duration": 0.18541666666666856
                },
                {
                    "name": "F4",
                    "midi": 65,
                    "time": 135.14791666666628,
                    "velocity": 0.8110236220472441,
                    "duration": 0.08125000000001137
                },
                {
                    "name": "C#6",
                    "midi": 85,
                    "time": 135.27708333333294,
                    "velocity": 0.889763779527559,
                    "duration": 0.07499999999998863
                },
                {
                    "name": "C#5",
                    "midi": 73,
                    "time": 135.28333333333293,
                    "velocity": 0.889763779527559,
                    "duration": 0.06666666666666288
                },
                {
                    "name": "G#5",
                    "midi": 80,
                    "time": 135.61458333333292,
                    "velocity": 0.905511811023622,
                    "duration": 0.2812499999999716
                },
                {
                    "name": "G#4",
                    "midi": 68,
                    "time": 135.6208333333329,
                    "velocity": 0.8818897637795275,
                    "duration": 0.23749999999998295
                },
                {
                    "name": "F#2",
                    "midi": 42,
                    "time": 135.6270833333329,
                    "velocity": 0.8110236220472441,
                    "duration": 0.1729166666666515
                },
                {
                    "name": "F#3",
                    "midi": 54,
                    "time": 135.6270833333329,
                    "velocity": 0.8346456692913385,
                    "duration": 0.20208333333332007
                },
                {
                    "name": "C#5",
                    "midi": 73,
                    "time": 135.63124999999957,
                    "velocity": 0.7795275590551181,
                    "duration": 0.21875
                },
                {
                    "name": "A5",
                    "midi": 81,
                    "time": 136.02708333333288,
                    "velocity": 0.84251968503937,
                    "duration": 0.07083333333332575
                },
                {
                    "name": "A4",
                    "midi": 69,
                    "time": 136.0354166666662,
                    "velocity": 0.7952755905511811,
                    "duration": 0.039583333333325754
                },
                {
                    "name": "C#4",
                    "midi": 61,
                    "time": 136.03749999999954,
                    "velocity": 0.8818897637795275,
                    "duration": 0.07291666666665719
                },
                {
                    "name": "A3",
                    "midi": 57,
                    "time": 136.03958333333287,
                    "velocity": 0.6535433070866141,
                    "duration": 0.06458333333333144
                },
                {
                    "name": "C#5",
                    "midi": 73,
                    "time": 136.4166666666662,
                    "velocity": 0.889763779527559,
                    "duration": 0.06041666666666856
                },
                {
                    "name": "C#6",
                    "midi": 85,
                    "time": 136.4166666666662,
                    "velocity": 0.937007874015748,
                    "duration": 0.12291666666666856
                },
                {
                    "name": "F#5",
                    "midi": 78,
                    "time": 136.4229166666662,
                    "velocity": 0.8110236220472441,
                    "duration": 0.05833333333333712
                },
                {
                    "name": "A1",
                    "midi": 33,
                    "time": 136.81249999999952,
                    "velocity": 0.7401574803149606,
                    "duration": 0.1770833333333428
                },
                {
                    "name": "E6",
                    "midi": 88,
                    "time": 136.83958333333285,
                    "velocity": 0.8818897637795275,
                    "duration": 0.4520833333333485
                },
                {
                    "name": "A2",
                    "midi": 45,
                    "time": 136.85833333333287,
                    "velocity": 0.9212598425196851,
                    "duration": 0.1875
                },
                {
                    "name": "C6",
                    "midi": 84,
                    "time": 137.15208333333285,
                    "velocity": 0.6614173228346457,
                    "duration": 0.3583333333333485
                },
                {
                    "name": "A5",
                    "midi": 81,
                    "time": 137.26458333333287,
                    "velocity": 0.44881889763779526,
                    "duration": 0.19583333333332575
                },
                {
                    "name": "E4",
                    "midi": 64,
                    "time": 137.31458333333288,
                    "velocity": 0.8818897637795275,
                    "duration": 0.41666666666662877
                },
                {
                    "name": "E5",
                    "midi": 76,
                    "time": 137.34999999999954,
                    "velocity": 0.6614173228346457,
                    "duration": 0.09791666666666288
                },
                {
                    "name": "D#5",
                    "midi": 75,
                    "time": 137.5229166666662,
                    "velocity": 0.8976377952755905,
                    "duration": 0.3958333333333144
                },
                {
                    "name": "G#5",
                    "midi": 80,
                    "time": 137.62708333333285,
                    "velocity": 0.7637795275590551,
                    "duration": 0.36041666666667993
                },
                {
                    "name": "D#4",
                    "midi": 63,
                    "time": 137.68958333333285,
                    "velocity": 0.9921259842519685,
                    "duration": 0.06874999999999432
                },
                {
                    "name": "B5",
                    "midi": 83,
                    "time": 137.73333333333284,
                    "velocity": 0.5433070866141733,
                    "duration": 0.23541666666667993
                },
                {
                    "name": "D#6",
                    "midi": 87,
                    "time": 137.8562499999995,
                    "velocity": 0.8503937007874016,
                    "duration": 0.17916666666670267
                },
                {
                    "name": "A2",
                    "midi": 45,
                    "time": 138.07499999999953,
                    "velocity": 0.6535433070866141,
                    "duration": 0.11874999999997726
                },
                {
                    "name": "E6",
                    "midi": 88,
                    "time": 138.08124999999953,
                    "velocity": 0.889763779527559,
                    "duration": 0.3604166666666515
                },
                {
                    "name": "A3",
                    "midi": 57,
                    "time": 138.09999999999954,
                    "velocity": 0.8818897637795275,
                    "duration": 0.17708333333331439
                },
                {
                    "name": "C6",
                    "midi": 84,
                    "time": 138.3499999999995,
                    "velocity": 0.5511811023622047,
                    "duration": 0.2145833333333087
                },
                {
                    "name": "C4",
                    "midi": 60,
                    "time": 138.48333333333284,
                    "velocity": 0.8503937007874016,
                    "duration": 0.09374999999997158
                },
                {
                    "name": "F#3",
                    "midi": 54,
                    "time": 138.49166666666616,
                    "velocity": 0.8110236220472441,
                    "duration": 0.17708333333328596
                },
                {
                    "name": "A5",
                    "midi": 81,
                    "time": 138.4999999999995,
                    "velocity": 0.47244094488188976,
                    "duration": 0.09374999999997158
                },
                {
                    "name": "E5",
                    "midi": 76,
                    "time": 138.57916666666614,
                    "velocity": 0.6929133858267716,
                    "duration": 0.07916666666665151
                },
                {
                    "name": "F#5",
                    "midi": 78,
                    "time": 138.79583333333278,
                    "velocity": 0.8661417322834646,
                    "duration": 0.15208333333333712
                },
                {
                    "name": "E5",
                    "midi": 76,
                    "time": 138.96666666666613,
                    "velocity": 0.49606299212598426,
                    "duration": 0.12083333333333712
                },
                {
                    "name": "C5",
                    "midi": 72,
                    "time": 139.06041666666613,
                    "velocity": 0.6220472440944882,
                    "duration": 0.07499999999998863
                },
                {
                    "name": "D2",
                    "midi": 38,
                    "time": 139.0958333333328,
                    "velocity": 0.7401574803149606,
                    "duration": 0.07291666666665719
                },
                {
                    "name": "D3",
                    "midi": 50,
                    "time": 139.1104166666661,
                    "velocity": 0.9212598425196851,
                    "duration": 0.08125000000001137
                },
                {
                    "name": "A4",
                    "midi": 69,
                    "time": 139.13333333333279,
                    "velocity": 0.5354330708661418,
                    "duration": 0.05833333333333712
                },
                {
                    "name": "F#3",
                    "midi": 54,
                    "time": 139.44791666666612,
                    "velocity": 0.8110236220472441,
                    "duration": 0.06041666666666856
                },
                {
                    "name": "C4",
                    "midi": 60,
                    "time": 139.47499999999945,
                    "velocity": 0.6771653543307087,
                    "duration": 0.10416666666665719
                },
                {
                    "name": "E4",
                    "midi": 64,
                    "time": 139.57499999999945,
                    "velocity": 0.5748031496062992,
                    "duration": 0.11458333333334281
                },
                {
                    "name": "F#4",
                    "midi": 66,
                    "time": 139.63958333333278,
                    "velocity": 0.6929133858267716,
                    "duration": 0.12291666666666856
                },
                {
                    "name": "C5",
                    "midi": 72,
                    "time": 139.74999999999946,
                    "velocity": 0.7401574803149606,
                    "duration": 0.14375000000001137
                },
                {
                    "name": "F#4",
                    "midi": 66,
                    "time": 139.84374999999946,
                    "velocity": 0.5669291338582677,
                    "duration": 0.15000000000000568
                },
                {
                    "name": "E4",
                    "midi": 64,
                    "time": 139.91874999999948,
                    "velocity": 0.5590551181102362,
                    "duration": 0.10208333333332575
                },
                {
                    "name": "C4",
                    "midi": 60,
                    "time": 139.99791666666613,
                    "velocity": 0.5196850393700787,
                    "duration": 0.06041666666666856
                },
                {
                    "name": "A3",
                    "midi": 57,
                    "time": 140.0791666666661,
                    "velocity": 0.7952755905511811,
                    "duration": 0.22291666666666288
                },
                {
                    "name": "A2",
                    "midi": 45,
                    "time": 140.08124999999944,
                    "velocity": 0.6850393700787402,
                    "duration": 0.16041666666666288
                },
                {
                    "name": "C4",
                    "midi": 60,
                    "time": 140.23749999999944,
                    "velocity": 0.7716535433070866,
                    "duration": 0.12916666666666288
                },
                {
                    "name": "E4",
                    "midi": 64,
                    "time": 140.38124999999943,
                    "velocity": 0.6062992125984252,
                    "duration": 0.1708333333333485
                },
                {
                    "name": "C4",
                    "midi": 60,
                    "time": 140.3979166666661,
                    "velocity": 0.7165354330708661,
                    "duration": 0.0625
                },
                {
                    "name": "F#4",
                    "midi": 66,
                    "time": 140.51874999999944,
                    "velocity": 0.84251968503937,
                    "duration": 0.07916666666665151
                },
                {
                    "name": "F5",
                    "midi": 77,
                    "time": 140.68958333333276,
                    "velocity": 0.9448818897637795,
                    "duration": 0.17500000000001137
                },
                {
                    "name": "C5",
                    "midi": 72,
                    "time": 140.8041666666661,
                    "velocity": 0.6614173228346457,
                    "duration": 0.1354166666666572
                },
                {
                    "name": "A4",
                    "midi": 69,
                    "time": 140.90833333333276,
                    "velocity": 0.5905511811023622,
                    "duration": 0.10624999999998863
                },
                {
                    "name": "D3",
                    "midi": 50,
                    "time": 141.03333333333276,
                    "velocity": 0.84251968503937,
                    "duration": 0.5541666666666458
                },
                {
                    "name": "D2",
                    "midi": 38,
                    "time": 141.03749999999943,
                    "velocity": 0.7086614173228346,
                    "duration": 0.4645833333333371
                },
                {
                    "name": "F#5",
                    "midi": 78,
                    "time": 141.03958333333276,
                    "velocity": 0.905511811023622,
                    "duration": 0.22291666666666288
                },
                {
                    "name": "C5",
                    "midi": 72,
                    "time": 141.1562499999994,
                    "velocity": 0.6062992125984252,
                    "duration": 0.11250000000001137
                },
                {
                    "name": "A4",
                    "midi": 69,
                    "time": 141.23958333333275,
                    "velocity": 0.5590551181102362,
                    "duration": 0.05208333333334281
                },
                {
                    "name": "A5",
                    "midi": 81,
                    "time": 141.33958333333277,
                    "velocity": 0.8740157480314961,
                    "duration": 0.20624999999998295
                },
                {
                    "name": "C4",
                    "midi": 60,
                    "time": 141.37499999999943,
                    "velocity": 0.6771653543307087,
                    "duration": 0.25833333333329733
                },
                {
                    "name": "E4",
                    "midi": 64,
                    "time": 141.37708333333276,
                    "velocity": 0.7086614173228346,
                    "duration": 0.2729166666666174
                },
                {
                    "name": "E5",
                    "midi": 76,
                    "time": 141.43749999999943,
                    "velocity": 0.47244094488188976,
                    "duration": 0.09791666666666288
                },
                {
                    "name": "D5",
                    "midi": 74,
                    "time": 141.44583333333276,
                    "velocity": 0.49606299212598426,
                    "duration": 0.06458333333333144
                },
                {
                    "name": "C5",
                    "midi": 72,
                    "time": 141.5041666666661,
                    "velocity": 0.6535433070866141,
                    "duration": 0.08333333333331439
                },
                {
                    "name": "C6",
                    "midi": 84,
                    "time": 141.6374999999994,
                    "velocity": 0.7952755905511811,
                    "duration": 0.2041666666666515
                },
                {
                    "name": "B5",
                    "midi": 83,
                    "time": 141.66041666666604,
                    "velocity": 0.5039370078740157,
                    "duration": 0.15208333333333712
                },
                {
                    "name": "G#5",
                    "midi": 80,
                    "time": 141.73958333333272,
                    "velocity": 0.6929133858267716,
                    "duration": 0.11249999999998295
                },
                {
                    "name": "D#5",
                    "midi": 75,
                    "time": 141.82291666666603,
                    "velocity": 0.7952755905511811,
                    "duration": 0.08541666666667425
                },
                {
                    "name": "G2",
                    "midi": 43,
                    "time": 141.90416666666604,
                    "velocity": 0.7559055118110236,
                    "duration": 0.125
                },
                {
                    "name": "G3",
                    "midi": 55,
                    "time": 141.94999999999936,
                    "velocity": 0.9291338582677166,
                    "duration": 0.13333333333335418
                },
                {
                    "name": "E6",
                    "midi": 88,
                    "time": 141.96249999999935,
                    "velocity": 0.9133858267716536,
                    "duration": 0.2333333333333769
                },
                {
                    "name": "B5",
                    "midi": 83,
                    "time": 142.14583333333272,
                    "velocity": 0.6377952755905512,
                    "duration": 0.14791666666667425
                },
                {
                    "name": "G5",
                    "midi": 79,
                    "time": 142.2749999999994,
                    "velocity": 0.5669291338582677,
                    "duration": 0.08541666666664582
                },
                {
                    "name": "B3",
                    "midi": 59,
                    "time": 142.2874999999994,
                    "velocity": 0.7716535433070866,
                    "duration": 0.13124999999999432
                },
                {
                    "name": "G3",
                    "midi": 55,
                    "time": 142.28958333333273,
                    "velocity": 0.6771653543307087,
                    "duration": 0.1458333333333428
                },
                {
                    "name": "E5",
                    "midi": 76,
                    "time": 142.35208333333273,
                    "velocity": 0.6141732283464567,
                    "duration": 0.03541666666666288
                },
                {
                    "name": "E5",
                    "midi": 76,
                    "time": 142.49791666666607,
                    "velocity": 0.7086614173228346,
                    "duration": 0.09999999999999432
                },
                {
                    "name": "B4",
                    "midi": 71,
                    "time": 142.53333333333273,
                    "velocity": 0.7322834645669292,
                    "duration": 0.07291666666665719
                },
                {
                    "name": "G5",
                    "midi": 79,
                    "time": 142.63541666666606,
                    "velocity": 0.9133858267716536,
                    "duration": 0.17708333333331439
                },
                {
                    "name": "E5",
                    "midi": 76,
                    "time": 142.74374999999938,
                    "velocity": 0.6929133858267716,
                    "duration": 0.18125000000000568
                },
                {
                    "name": "B4",
                    "midi": 71,
                    "time": 142.89166666666605,
                    "velocity": 0.1732283464566929,
                    "duration": 0.0583333333333087
                },
                {
                    "name": "D3",
                    "midi": 50,
                    "time": 142.92916666666605,
                    "velocity": 0.889763779527559,
                    "duration": 0.22083333333330302
                },
                {
                    "name": "D2",
                    "midi": 38,
                    "time": 142.9333333333327,
                    "velocity": 0.8346456692913385,
                    "duration": 0.15833333333330302
                },
                {
                    "name": "G4",
                    "midi": 67,
                    "time": 142.93749999999937,
                    "velocity": 0.6692913385826772,
                    "duration": 0.07916666666665151
                },
                {
                    "name": "F#5",
                    "midi": 78,
                    "time": 143.27499999999935,
                    "velocity": 0.8582677165354331,
                    "duration": 0.18958333333333144
                },
                {
                    "name": "B3",
                    "midi": 59,
                    "time": 143.285416666666,
                    "velocity": 0.6771653543307087,
                    "duration": 0.04791666666665151
                },
                {
                    "name": "D#5",
                    "midi": 75,
                    "time": 143.285416666666,
                    "velocity": 0.8346456692913385,
                    "duration": 0.23125000000001705
                },
                {
                    "name": "G3",
                    "midi": 55,
                    "time": 143.29374999999933,
                    "velocity": 0.7165354330708661,
                    "duration": 0.037499999999994316
                },
                {
                    "name": "A#4",
                    "midi": 70,
                    "time": 143.44374999999934,
                    "velocity": 0.5984251968503937,
                    "duration": 0.10416666666668561
                },
                {
                    "name": "F#4",
                    "midi": 66,
                    "time": 143.4833333333327,
                    "velocity": 0.7244094488188977,
                    "duration": 0.05833333333333712
                },
                {
                    "name": "G5",
                    "midi": 79,
                    "time": 143.59791666666604,
                    "velocity": 0.84251968503937,
                    "duration": 0.1458333333333428
                },
                {
                    "name": "E5",
                    "midi": 76,
                    "time": 143.61874999999938,
                    "velocity": 0.8031496062992126,
                    "duration": 0.1729166666666515
                },
                {
                    "name": "B4",
                    "midi": 71,
                    "time": 143.74791666666604,
                    "velocity": 0.6377952755905512,
                    "duration": 0.09166666666664014
                },
                {
                    "name": "G4",
                    "midi": 67,
                    "time": 143.79999999999936,
                    "velocity": 0.7244094488188977,
                    "duration": 0.07083333333332575
                },
                {
                    "name": "G3",
                    "midi": 55,
                    "time": 143.90416666666601,
                    "velocity": 0.9133858267716536,
                    "duration": 0.07916666666667993
                },
                {
                    "name": "G2",
                    "midi": 43,
                    "time": 143.90833333333268,
                    "velocity": 0.7559055118110236,
                    "duration": 0.05833333333333712
                },
                {
                    "name": "E4",
                    "midi": 64,
                    "time": 144.22499999999937,
                    "velocity": 0.7559055118110236,
                    "duration": 0.05833333333333712
                },
                {
                    "name": "A#5",
                    "midi": 82,
                    "time": 144.2270833333327,
                    "velocity": 0.889763779527559,
                    "duration": 0.1708333333333485
                },
                {
                    "name": "B3",
                    "midi": 59,
                    "time": 144.22916666666603,
                    "velocity": 0.7795275590551181,
                    "duration": 0.05833333333333712
                },
                {
                    "name": "F#5",
                    "midi": 78,
                    "time": 144.2520833333327,
                    "velocity": 0.7637795275590551,
                    "duration": 0.15833333333333144
                },
                {
                    "name": "D#5",
                    "midi": 75,
                    "time": 144.3395833333327,
                    "velocity": 0.7322834645669292,
                    "duration": 0.12291666666666856
                },
                {
                    "name": "A#4",
                    "midi": 70,
                    "time": 144.43749999999937,
                    "velocity": 0.6377952755905512,
                    "duration": 0.037499999999994316
                },
                {
                    "name": "B5",
                    "midi": 83,
                    "time": 144.52916666666604,
                    "velocity": 0.8346456692913385,
                    "duration": 0.14791666666664582
                },
                {
                    "name": "G5",
                    "midi": 79,
                    "time": 144.54166666666603,
                    "velocity": 0.8031496062992126,
                    "duration": 0.1875
                },
                {
                    "name": "E5",
                    "midi": 76,
                    "time": 144.64374999999936,
                    "velocity": 0.7401574803149606,
                    "duration": 0.11875000000000568
                },
                {
                    "name": "B4",
                    "midi": 71,
                    "time": 144.71249999999935,
                    "velocity": 0.6850393700787402,
                    "duration": 0.07500000000001705
                },
                {
                    "name": "D3",
                    "midi": 50,
                    "time": 144.8458333333327,
                    "velocity": 0.984251968503937,
                    "duration": 0.09791666666666288
                },
                {
                    "name": "D2",
                    "midi": 38,
                    "time": 144.84999999999937,
                    "velocity": 0.9763779527559056,
                    "duration": 0.06874999999999432
                },
                {
                    "name": "D3",
                    "midi": 50,
                    "time": 145.21666666666604,
                    "velocity": 0.7952755905511811,
                    "duration": 0.5916666666666117
                },
                {
                    "name": "D5",
                    "midi": 74,
                    "time": 145.26249999999936,
                    "velocity": 0.7795275590551181,
                    "duration": 0.12708333333333144
                },
                {
                    "name": "G5",
                    "midi": 79,
                    "time": 145.29999999999936,
                    "velocity": 0.7795275590551181,
                    "duration": 0.12083333333333712
                },
                {
                    "name": "B5",
                    "midi": 83,
                    "time": 145.33749999999935,
                    "velocity": 0.7637795275590551,
                    "duration": 0.09999999999999432
                },
                {
                    "name": "D6",
                    "midi": 86,
                    "time": 145.36249999999936,
                    "velocity": 0.9133858267716536,
                    "duration": 0.11458333333331439
                },
                {
                    "name": "G3",
                    "midi": 55,
                    "time": 145.43541666666601,
                    "velocity": 0.7165354330708661,
                    "duration": 0.33749999999997726
                },
                {
                    "name": "B3",
                    "midi": 59,
                    "time": 145.53124999999935,
                    "velocity": 0.7952755905511811,
                    "duration": 0.2291666666666572
                },
                {
                    "name": "D4",
                    "midi": 62,
                    "time": 145.69999999999933,
                    "velocity": 0.9606299212598425,
                    "duration": 0.07083333333332575
                },
                {
                    "name": "B5",
                    "midi": 83,
                    "time": 145.97083333333265,
                    "velocity": 0.8031496062992126,
                    "duration": 0.06458333333330302
                },
                {
                    "name": "G5",
                    "midi": 79,
                    "time": 145.97083333333265,
                    "velocity": 0.8031496062992126,
                    "duration": 0.05624999999997726
                },
                {
                    "name": "D5",
                    "midi": 74,
                    "time": 145.9749999999993,
                    "velocity": 0.8346456692913385,
                    "duration": 0.04583333333332007
                },
                {
                    "name": "D6",
                    "midi": 86,
                    "time": 145.97916666666598,
                    "velocity": 0.8346456692913385,
                    "duration": 0.07499999999998863
                },
                {
                    "name": "D6",
                    "midi": 86,
                    "time": 146.30416666666596,
                    "velocity": 0.9291338582677166,
                    "duration": 0.3291666666666231
                },
                {
                    "name": "E1",
                    "midi": 28,
                    "time": 146.3062499999993,
                    "velocity": 0.889763779527559,
                    "duration": 0.07083333333329733
                },
                {
                    "name": "E2",
                    "midi": 40,
                    "time": 146.30833333333263,
                    "velocity": 0.9212598425196851,
                    "duration": 0.09583333333330302
                },
                {
                    "name": "D5",
                    "midi": 74,
                    "time": 146.31458333333262,
                    "velocity": 0.8740157480314961,
                    "duration": 0.06666666666663446
                },
                {
                    "name": "B5",
                    "midi": 83,
                    "time": 146.31874999999928,
                    "velocity": 0.7952755905511811,
                    "duration": 0.037499999999994316
                },
                {
                    "name": "B5",
                    "midi": 83,
                    "time": 146.6208333333326,
                    "velocity": 0.6850393700787402,
                    "duration": 0.16041666666666288
                },
                {
                    "name": "D3",
                    "midi": 50,
                    "time": 146.62499999999926,
                    "velocity": 0.7007874015748031,
                    "duration": 0.3916666666666231
                },
                {
                    "name": "G3",
                    "midi": 55,
                    "time": 146.7145833333326,
                    "velocity": 0.6456692913385826,
                    "duration": 0.283333333333303
                },
                {
                    "name": "G5",
                    "midi": 79,
                    "time": 146.72291666666592,
                    "velocity": 0.6062992125984252,
                    "duration": 0.10416666666665719
                },
                {
                    "name": "D5",
                    "midi": 74,
                    "time": 146.78749999999926,
                    "velocity": 0.7401574803149606,
                    "duration": 0.16874999999998863
                },
                {
                    "name": "B3",
                    "midi": 59,
                    "time": 146.80208333333258,
                    "velocity": 0.7952755905511811,
                    "duration": 0.1875
                },
                {
                    "name": "G5",
                    "midi": 79,
                    "time": 146.88124999999926,
                    "velocity": 0.7795275590551181,
                    "duration": 0.11874999999997726
                },
                {
                    "name": "B5",
                    "midi": 83,
                    "time": 146.91666666666592,
                    "velocity": 0.7952755905511811,
                    "duration": 0.10416666666662877
                },
                {
                    "name": "D4",
                    "midi": 62,
                    "time": 146.95208333333258,
                    "velocity": 0.889763779527559,
                    "duration": 0.054166666666645824
                },
                {
                    "name": "D6",
                    "midi": 86,
                    "time": 146.9541666666659,
                    "velocity": 0.9212598425196851,
                    "duration": 0.09374999999997158
                },
                {
                    "name": "E2",
                    "midi": 40,
                    "time": 147.27916666666587,
                    "velocity": 0.9921259842519685,
                    "duration": 0.07499999999998863
                },
                {
                    "name": "D3",
                    "midi": 50,
                    "time": 147.54583333333252,
                    "velocity": 0.6141732283464567,
                    "duration": 0.41041666666660603
                },
                {
                    "name": "B5",
                    "midi": 83,
                    "time": 147.5895833333325,
                    "velocity": 0.8582677165354331,
                    "duration": 0.32708333333329165
                },
                {
                    "name": "D6",
                    "midi": 86,
                    "time": 147.59374999999918,
                    "velocity": 0.9133858267716536,
                    "duration": 0.2874999999999659
                },
                {
                    "name": "D5",
                    "midi": 74,
                    "time": 147.59791666666584,
                    "velocity": 0.8582677165354331,
                    "duration": 0.24791666666664014
                },
                {
                    "name": "G5",
                    "midi": 79,
                    "time": 147.6020833333325,
                    "velocity": 0.8031496062992126,
                    "duration": 0.29583333333329165
                },
                {
                    "name": "G3",
                    "midi": 55,
                    "time": 147.6645833333325,
                    "velocity": 0.6141732283464567,
                    "duration": 0.26874999999998295
                },
                {
                    "name": "B3",
                    "midi": 59,
                    "time": 147.79999999999916,
                    "velocity": 0.7401574803149606,
                    "duration": 0.1416666666666515
                },
                {
                    "name": "D4",
                    "midi": 62,
                    "time": 147.89374999999913,
                    "velocity": 0.8582677165354331,
                    "duration": 0.056250000000005684
                },
                {
                    "name": "D6",
                    "midi": 86,
                    "time": 148.0416666666658,
                    "velocity": 0.8582677165354331,
                    "duration": 0.09375
                },
                {
                    "name": "D5",
                    "midi": 74,
                    "time": 148.04374999999914,
                    "velocity": 0.9291338582677166,
                    "duration": 0.06041666666666856
                },
                {
                    "name": "B5",
                    "midi": 83,
                    "time": 148.04374999999914,
                    "velocity": 0.8188976377952756,
                    "duration": 0.0625
                },
                {
                    "name": "G5",
                    "midi": 79,
                    "time": 148.04999999999913,
                    "velocity": 0.7559055118110236,
                    "duration": 0.03541666666666288
                },
                {
                    "name": "A1",
                    "midi": 33,
                    "time": 148.24583333333248,
                    "velocity": 0.9606299212598425,
                    "duration": 0.06666666666666288
                },
                {
                    "name": "D6",
                    "midi": 86,
                    "time": 148.24791666666582,
                    "velocity": 0.9606299212598425,
                    "duration": 0.15833333333333144
                },
                {
                    "name": "B5",
                    "midi": 83,
                    "time": 148.38958333333247,
                    "velocity": 0.7401574803149606,
                    "duration": 0.16875000000001705
                },
                {
                    "name": "D3",
                    "midi": 50,
                    "time": 148.47708333333247,
                    "velocity": 0.6062992125984252,
                    "duration": 0.4166666666666572
                },
                {
                    "name": "F#5",
                    "midi": 78,
                    "time": 148.49791666666582,
                    "velocity": 0.7401574803149606,
                    "duration": 0.10833333333334849
                },
                {
                    "name": "D5",
                    "midi": 74,
                    "time": 148.56874999999914,
                    "velocity": 0.5354330708661418,
                    "duration": 0.20000000000001705
                },
                {
                    "name": "F#3",
                    "midi": 54,
                    "time": 148.58541666666582,
                    "velocity": 0.7637795275590551,
                    "duration": 0.28541666666663446
                },
                {
                    "name": "F#5",
                    "midi": 78,
                    "time": 148.6708333333325,
                    "velocity": 0.7322834645669292,
                    "duration": 0.14999999999997726
                },
                {
                    "name": "B3",
                    "midi": 59,
                    "time": 148.6895833333325,
                    "velocity": 0.6614173228346457,
                    "duration": 0.1729166666666231
                },
                {
                    "name": "B5",
                    "midi": 83,
                    "time": 148.7333333333325,
                    "velocity": 0.7007874015748031,
                    "duration": 0.12291666666664014
                },
                {
                    "name": "D6",
                    "midi": 86,
                    "time": 148.79999999999916,
                    "velocity": 0.9212598425196851,
                    "duration": 0.07708333333329165
                },
                {
                    "name": "D4",
                    "midi": 62,
                    "time": 148.81458333333248,
                    "velocity": 0.9133858267716536,
                    "duration": 0.04791666666665151
                },
                {
                    "name": "A1",
                    "midi": 33,
                    "time": 149.14374999999913,
                    "velocity": 0.889763779527559,
                    "duration": 0.07291666666662877
                },
                {
                    "name": "G1",
                    "midi": 31,
                    "time": 149.15833333333245,
                    "velocity": 0.5354330708661418,
                    "duration": 0.04374999999998863
                },
                {
                    "name": "C#3",
                    "midi": 49,
                    "time": 149.44583333333242,
                    "velocity": 0.8976377952755905,
                    "duration": 0.06666666666666288
                },
                {
                    "name": "D5",
                    "midi": 74,
                    "time": 149.44791666666575,
                    "velocity": 0.7401574803149606,
                    "duration": 0.07916666666665151
                },
                {
                    "name": "B5",
                    "midi": 83,
                    "time": 149.44999999999908,
                    "velocity": 0.7086614173228346,
                    "duration": 0.07708333333332007
                },
                {
                    "name": "F#5",
                    "midi": 78,
                    "time": 149.4520833333324,
                    "velocity": 0.7637795275590551,
                    "duration": 0.08333333333331439
                },
                {
                    "name": "B4",
                    "midi": 71,
                    "time": 149.4583333333324,
                    "velocity": 0.6692913385826772,
                    "duration": 0.056250000000005684
                },
                {
                    "name": "D3",
                    "midi": 50,
                    "time": 149.76458333333238,
                    "velocity": 0.952755905511811,
                    "duration": 0.08541666666664582
                },
                {
                    "name": "D5",
                    "midi": 74,
                    "time": 149.89166666666569,
                    "velocity": 0.7244094488188977,
                    "duration": 0.07500000000001705
                },
                {
                    "name": "F#5",
                    "midi": 78,
                    "time": 149.89166666666569,
                    "velocity": 0.6929133858267716,
                    "duration": 0.08750000000000568
                },
                {
                    "name": "B5",
                    "midi": 83,
                    "time": 149.89583333333235,
                    "velocity": 0.6614173228346457,
                    "duration": 0.08750000000000568
                },
                {
                    "name": "B4",
                    "midi": 71,
                    "time": 149.89791666666568,
                    "velocity": 0.6850393700787402,
                    "duration": 0.04791666666667993
                },
                {
                    "name": "B5",
                    "midi": 83,
                    "time": 150.087499999999,
                    "velocity": 0.8976377952755905,
                    "duration": 0.29791666666667993
                },
                {
                    "name": "D#2",
                    "midi": 39,
                    "time": 150.093749999999,
                    "velocity": 0.905511811023622,
                    "duration": 0.05000000000001137
                },
                {
                    "name": "D#3",
                    "midi": 51,
                    "time": 150.093749999999,
                    "velocity": 0.9448818897637795,
                    "duration": 0.05833333333333712
                },
                {
                    "name": "G5",
                    "midi": 79,
                    "time": 150.23749999999902,
                    "velocity": 0.7401574803149606,
                    "duration": 0.22083333333333144
                },
                {
                    "name": "D#5",
                    "midi": 75,
                    "time": 150.39583333333235,
                    "velocity": 0.7559055118110236,
                    "duration": 0.10624999999998863
                },
                {
                    "name": "E2",
                    "midi": 40,
                    "time": 150.39791666666568,
                    "velocity": 0.8740157480314961,
                    "duration": 0.07291666666665719
                },
                {
                    "name": "E3",
                    "midi": 52,
                    "time": 150.40208333333234,
                    "velocity": 0.8740157480314961,
                    "duration": 0.06874999999999432
                },
                {
                    "name": "B4",
                    "midi": 71,
                    "time": 150.44999999999902,
                    "velocity": 0.5984251968503937,
                    "duration": 0.1979166666666572
                },
                {
                    "name": "D#5",
                    "midi": 75,
                    "time": 150.55208333333235,
                    "velocity": 0.7795275590551181,
                    "duration": 0.14999999999997726
                },
                {
                    "name": "G5",
                    "midi": 79,
                    "time": 150.61666666666568,
                    "velocity": 0.6771653543307087,
                    "duration": 0.12708333333330302
                },
                {
                    "name": "B5",
                    "midi": 83,
                    "time": 150.68958333333234,
                    "velocity": 0.9133858267716536,
                    "duration": 0.07708333333329165
                },
                {
                    "name": "F2",
                    "midi": 41,
                    "time": 150.70416666666566,
                    "velocity": 0.84251968503937,
                    "duration": 0.07916666666665151
                },
                {
                    "name": "F3",
                    "midi": 53,
                    "time": 150.70416666666566,
                    "velocity": 0.9133858267716536,
                    "duration": 0.052083333333314386
                },
                {
                    "name": "F#3",
                    "midi": 54,
                    "time": 151.00416666666564,
                    "velocity": 1,
                    "duration": 0.06666666666663446
                },
                {
                    "name": "F#2",
                    "midi": 42,
                    "time": 151.01041666666563,
                    "velocity": 0.9291338582677166,
                    "duration": 0.07083333333329733
                },
                {
                    "name": "G3",
                    "midi": 55,
                    "time": 151.32708333333227,
                    "velocity": 0.8188976377952756,
                    "duration": 0.06458333333333144
                },
                {
                    "name": "B5",
                    "midi": 83,
                    "time": 151.3291666666656,
                    "velocity": 0.889763779527559,
                    "duration": 0.07499999999998863
                },
                {
                    "name": "G2",
                    "midi": 43,
                    "time": 151.3291666666656,
                    "velocity": 0.8031496062992126,
                    "duration": 0.06041666666666856
                },
                {
                    "name": "G5",
                    "midi": 79,
                    "time": 151.33333333333226,
                    "velocity": 0.8188976377952756,
                    "duration": 0.03333333333333144
                },
                {
                    "name": "C5",
                    "midi": 72,
                    "time": 151.3354166666656,
                    "velocity": 0.8976377952755905,
                    "duration": 0.027083333333337123
                },
                {
                    "name": "E5",
                    "midi": 76,
                    "time": 151.34583333333225,
                    "velocity": 0.6377952755905512,
                    "duration": 0.039583333333354176
                },
                {
                    "name": "G#3",
                    "midi": 56,
                    "time": 151.6374999999989,
                    "velocity": 0.952755905511811,
                    "duration": 0.06874999999999432
                },
                {
                    "name": "G#2",
                    "midi": 44,
                    "time": 151.6437499999989,
                    "velocity": 0.889763779527559,
                    "duration": 0.06458333333333144
                },
                {
                    "name": "B5",
                    "midi": 83,
                    "time": 151.77291666666557,
                    "velocity": 0.84251968503937,
                    "duration": 0.09375
                },
                {
                    "name": "C#5",
                    "midi": 73,
                    "time": 151.7749999999989,
                    "velocity": 0.9291338582677166,
                    "duration": 0.06874999999999432
                },
                {
                    "name": "F5",
                    "midi": 77,
                    "time": 151.7874999999989,
                    "velocity": 0.7401574803149606,
                    "duration": 0.03541666666666288
                },
                {
                    "name": "A3",
                    "midi": 57,
                    "time": 151.95416666666554,
                    "velocity": 0.9133858267716536,
                    "duration": 0.0625
                },
                {
                    "name": "A2",
                    "midi": 45,
                    "time": 151.95624999999887,
                    "velocity": 0.8740157480314961,
                    "duration": 0.056250000000005684
                },
                {
                    "name": "B5",
                    "midi": 83,
                    "time": 151.96249999999887,
                    "velocity": 0.9921259842519685,
                    "duration": 0.45000000000001705
                },
                {
                    "name": "A5",
                    "midi": 81,
                    "time": 152.14999999999887,
                    "velocity": 0.5590551181102362,
                    "duration": 0.18333333333333712
                },
                {
                    "name": "A#3",
                    "midi": 58,
                    "time": 152.26041666666555,
                    "velocity": 0.937007874015748,
                    "duration": 0.07916666666665151
                },
                {
                    "name": "A#2",
                    "midi": 46,
                    "time": 152.26249999999888,
                    "velocity": 0.8818897637795275,
                    "duration": 0.07499999999998863
                },
                {
                    "name": "F#5",
                    "midi": 78,
                    "time": 152.27291666666554,
                    "velocity": 0.5354330708661418,
                    "duration": 0.09166666666666856
                },
                {
                    "name": "D5",
                    "midi": 74,
                    "time": 152.3458333333322,
                    "velocity": 0.6299212598425197,
                    "duration": 0.17500000000001137
                },
                {
                    "name": "F#5",
                    "midi": 78,
                    "time": 152.4270833333322,
                    "velocity": 0.5826771653543307,
                    "duration": 0.17708333333331439
                },
                {
                    "name": "A5",
                    "midi": 81,
                    "time": 152.45624999999887,
                    "velocity": 0.7401574803149606,
                    "duration": 0.1729166666666231
                },
                {
                    "name": "B5",
                    "midi": 83,
                    "time": 152.5520833333322,
                    "velocity": 0.889763779527559,
                    "duration": 0.0958333333332746
                },
                {
                    "name": "B3",
                    "midi": 59,
                    "time": 152.56041666666553,
                    "velocity": 0.9448818897637795,
                    "duration": 0.06249999999997158
                },
                {
                    "name": "B2",
                    "midi": 47,
                    "time": 152.56874999999886,
                    "velocity": 0.8582677165354331,
                    "duration": 0.06041666666664014
                },
                {
                    "name": "D5",
                    "midi": 74,
                    "time": 152.57499999999885,
                    "velocity": 0.6062992125984252,
                    "duration": 0.04166666666665719
                },
                {
                    "name": "D2",
                    "midi": 38,
                    "time": 152.92083333333215,
                    "velocity": 0.84251968503937,
                    "duration": 0.04791666666667993
                },
                {
                    "name": "D3",
                    "midi": 50,
                    "time": 152.92083333333215,
                    "velocity": 0.9133858267716536,
                    "duration": 0.0666666666666913
                },
                {
                    "name": "B3",
                    "midi": 59,
                    "time": 153.3041666666655,
                    "velocity": 0.8740157480314961,
                    "duration": 0.03333333333333144
                },
                {
                    "name": "D4",
                    "midi": 62,
                    "time": 153.30624999999884,
                    "velocity": 0.889763779527559,
                    "duration": 0.05208333333334281
                },
                {
                    "name": "D6",
                    "midi": 86,
                    "time": 153.30833333333217,
                    "velocity": 0.8503937007874016,
                    "duration": 0.07708333333332007
                },
                {
                    "name": "B5",
                    "midi": 83,
                    "time": 153.3104166666655,
                    "velocity": 0.8346456692913385,
                    "duration": 0.06458333333333144
                },
                {
                    "name": "F#5",
                    "midi": 78,
                    "time": 153.3104166666655,
                    "velocity": 0.8976377952755905,
                    "duration": 0.056250000000005684
                },
                {
                    "name": "F#3",
                    "midi": 54,
                    "time": 153.31249999999883,
                    "velocity": 0.84251968503937,
                    "duration": 0.05208333333334281
                },
                {
                    "name": "D5",
                    "midi": 74,
                    "time": 153.31458333333217,
                    "velocity": 0.8503937007874016,
                    "duration": 0.05000000000001137
                },
                {
                    "name": "D4",
                    "midi": 62,
                    "time": 153.7416666666655,
                    "velocity": 0.9291338582677166,
                    "duration": 0.056250000000005684
                },
                {
                    "name": "F#3",
                    "midi": 54,
                    "time": 153.74583333333217,
                    "velocity": 0.8976377952755905,
                    "duration": 0.0625
                },
                {
                    "name": "B3",
                    "midi": 59,
                    "time": 153.75208333333217,
                    "velocity": 0.7952755905511811,
                    "duration": 0.02916666666666856
                },
                {
                    "name": "D6",
                    "midi": 86,
                    "time": 153.87708333333217,
                    "velocity": 0.8503937007874016,
                    "duration": 0.12916666666666288
                },
                {
                    "name": "B5",
                    "midi": 83,
                    "time": 153.8791666666655,
                    "velocity": 0.8031496062992126,
                    "duration": 0.08333333333334281
                },
                {
                    "name": "D5",
                    "midi": 74,
                    "time": 153.8854166666655,
                    "velocity": 0.7874015748031497,
                    "duration": 0.056250000000005684
                },
                {
                    "name": "F#5",
                    "midi": 78,
                    "time": 153.8854166666655,
                    "velocity": 0.7952755905511811,
                    "duration": 0.07291666666668561
                },
                {
                    "name": "E1",
                    "midi": 28,
                    "time": 154.15416666666547,
                    "velocity": 0.8818897637795275,
                    "duration": 0.0687499999999659
                },
                {
                    "name": "D6",
                    "midi": 86,
                    "time": 154.16041666666547,
                    "velocity": 0.8818897637795275,
                    "duration": 0.5458333333332916
                },
                {
                    "name": "E2",
                    "midi": 40,
                    "time": 154.16041666666547,
                    "velocity": 0.9133858267716536,
                    "duration": 0.04583333333332007
                },
                {
                    "name": "B5",
                    "midi": 83,
                    "time": 154.1624999999988,
                    "velocity": 0.889763779527559,
                    "duration": 0.5624999999999432
                },
                {
                    "name": "D5",
                    "midi": 74,
                    "time": 154.16458333333213,
                    "velocity": 0.9133858267716536,
                    "duration": 0.5374999999999659
                },
                {
                    "name": "G5",
                    "midi": 79,
                    "time": 154.16458333333213,
                    "velocity": 0.8503937007874016,
                    "duration": 0.5374999999999659
                },
                {
                    "name": "D4",
                    "midi": 62,
                    "time": 154.64791666666545,
                    "velocity": 0.8582677165354331,
                    "duration": 0.07916666666662309
                },
                {
                    "name": "E3",
                    "midi": 52,
                    "time": 154.65208333333211,
                    "velocity": 0.6771653543307087,
                    "duration": 0.09791666666663446
                },
                {
                    "name": "B3",
                    "midi": 59,
                    "time": 154.65416666666545,
                    "velocity": 0.6929133858267716,
                    "duration": 0.06666666666663446
                },
                {
                    "name": "G3",
                    "midi": 55,
                    "time": 154.6583333333321,
                    "velocity": 0.5590551181102362,
                    "duration": 0.06041666666664014
                },
                {
                    "name": "B3",
                    "midi": 59,
                    "time": 155.00833333333208,
                    "velocity": 0.7244094488188977,
                    "duration": 0.03541666666666288
                },
                {
                    "name": "D4",
                    "midi": 62,
                    "time": 155.0104166666654,
                    "velocity": 0.7795275590551181,
                    "duration": 0.03333333333333144
                },
                {
                    "name": "E3",
                    "midi": 52,
                    "time": 155.0104166666654,
                    "velocity": 0.7086614173228346,
                    "duration": 0.07708333333329165
                },
                {
                    "name": "G3",
                    "midi": 55,
                    "time": 155.01249999999874,
                    "velocity": 0.6220472440944882,
                    "duration": 0.04583333333332007
                },
                {
                    "name": "D6",
                    "midi": 86,
                    "time": 155.0166666666654,
                    "velocity": 0.8503937007874016,
                    "duration": 0.0854166666666174
                },
                {
                    "name": "B5",
                    "midi": 83,
                    "time": 155.01874999999873,
                    "velocity": 0.8188976377952756,
                    "duration": 0.06041666666664014
                },
                {
                    "name": "D5",
                    "midi": 74,
                    "time": 155.01874999999873,
                    "velocity": 0.889763779527559,
                    "duration": 0.05624999999997726
                },
                {
                    "name": "G5",
                    "midi": 79,
                    "time": 155.02083333333206,
                    "velocity": 0.8110236220472441,
                    "duration": 0.04374999999998863
                },
                {
                    "name": "E3",
                    "midi": 52,
                    "time": 155.364583333332,
                    "velocity": 0.9291338582677166,
                    "duration": 0.06874999999999432
                },
                {
                    "name": "E2",
                    "midi": 40,
                    "time": 155.364583333332,
                    "velocity": 0.9212598425196851,
                    "duration": 0.054166666666674246
                },
                {
                    "name": "B3",
                    "midi": 59,
                    "time": 155.68749999999866,
                    "velocity": 0.8188976377952756,
                    "duration": 0.06249999999997158
                },
                {
                    "name": "G3",
                    "midi": 55,
                    "time": 155.69166666666533,
                    "velocity": 0.6771653543307087,
                    "duration": 0.06666666666663446
                },
                {
                    "name": "D4",
                    "midi": 62,
                    "time": 155.69166666666533,
                    "velocity": 0.8818897637795275,
                    "duration": 0.06666666666663446
                },
                {
                    "name": "D6",
                    "midi": 86,
                    "time": 155.69374999999866,
                    "velocity": 0.8818897637795275,
                    "duration": 0.0854166666666174
                },
                {
                    "name": "D5",
                    "midi": 74,
                    "time": 155.69374999999866,
                    "velocity": 0.952755905511811,
                    "duration": 0.0583333333333087
                },
                {
                    "name": "G5",
                    "midi": 79,
                    "time": 155.69374999999866,
                    "velocity": 0.8582677165354331,
                    "duration": 0.06041666666664014
                },
                {
                    "name": "B5",
                    "midi": 83,
                    "time": 155.695833333332,
                    "velocity": 0.8346456692913385,
                    "duration": 0.06458333333330302
                },
                {
                    "name": "E3",
                    "midi": 52,
                    "time": 155.70624999999865,
                    "velocity": 0.5748031496062992,
                    "duration": 0.06666666666663446
                },
                {
                    "name": "D4",
                    "midi": 62,
                    "time": 156.00833333333196,
                    "velocity": 0.889763779527559,
                    "duration": 0.0583333333333087
                },
                {
                    "name": "E3",
                    "midi": 52,
                    "time": 156.01249999999862,
                    "velocity": 0.7401574803149606,
                    "duration": 0.10833333333332007
                },
                {
                    "name": "B3",
                    "midi": 59,
                    "time": 156.01249999999862,
                    "velocity": 0.7716535433070866,
                    "duration": 0.04583333333332007
                },
                {
                    "name": "G3",
                    "midi": 55,
                    "time": 156.01458333333196,
                    "velocity": 0.6850393700787402,
                    "duration": 0.07916666666665151
                },
                {
                    "name": "B5",
                    "midi": 83,
                    "time": 156.15833333333194,
                    "velocity": 0.7637795275590551,
                    "duration": 0.04791666666665151
                },
                {
                    "name": "D5",
                    "midi": 74,
                    "time": 156.16041666666527,
                    "velocity": 0.7795275590551181,
                    "duration": 0.03333333333333144
                },
                {
                    "name": "D6",
                    "midi": 86,
                    "time": 156.1624999999986,
                    "velocity": 0.7322834645669292,
                    "duration": 0.05624999999997726
                },
                {
                    "name": "D6",
                    "midi": 86,
                    "time": 156.2645833333319,
                    "velocity": 0.8110236220472441,
                    "duration": 0.10624999999998863
                },
                {
                    "name": "B5",
                    "midi": 83,
                    "time": 156.26666666666523,
                    "velocity": 0.8110236220472441,
                    "duration": 0.07916666666665151
                },
                {
                    "name": "A1",
                    "midi": 33,
                    "time": 156.26874999999856,
                    "velocity": 0.9921259842519685,
                    "duration": 0.08124999999998295
                },
                {
                    "name": "D5",
                    "midi": 74,
                    "time": 156.27499999999856,
                    "velocity": 0.7401574803149606,
                    "duration": 0.04166666666665719
                },
                {
                    "name": "F#5",
                    "midi": 78,
                    "time": 156.27916666666522,
                    "velocity": 0.7165354330708661,
                    "duration": 0.04166666666665719
                },
                {
                    "name": "F#3",
                    "midi": 54,
                    "time": 156.6083333333319,
                    "velocity": 0.6850393700787402,
                    "duration": 0.09166666666666856
                },
                {
                    "name": "D4",
                    "midi": 62,
                    "time": 156.61874999999856,
                    "velocity": 0.5590551181102362,
                    "duration": 0.05208333333334281
                },
                {
                    "name": "B3",
                    "midi": 59,
                    "time": 156.6208333333319,
                    "velocity": 0.44881889763779526,
                    "duration": 0.04791666666667993
                },
                {
                    "name": "D4",
                    "midi": 62,
                    "time": 156.8895833333319,
                    "velocity": 0.8740157480314961,
                    "duration": 0.05624999999997726
                },
                {
                    "name": "F#5",
                    "midi": 78,
                    "time": 156.8895833333319,
                    "velocity": 0.937007874015748,
                    "duration": 0.052083333333314386
                },
                {
                    "name": "D6",
                    "midi": 86,
                    "time": 156.89166666666523,
                    "velocity": 0.8818897637795275,
                    "duration": 0.06666666666663446
                },
                {
                    "name": "B5",
                    "midi": 83,
                    "time": 156.89166666666523,
                    "velocity": 0.8346456692913385,
                    "duration": 0.04374999999998863
                },
                {
                    "name": "D5",
                    "midi": 74,
                    "time": 156.89374999999856,
                    "velocity": 0.889763779527559,
                    "duration": 0.04791666666665151
                },
                {
                    "name": "B3",
                    "midi": 59,
                    "time": 156.8958333333319,
                    "velocity": 0.8031496062992126,
                    "duration": 0.03333333333333144
                },
                {
                    "name": "F#3",
                    "midi": 54,
                    "time": 156.89791666666522,
                    "velocity": 0.8267716535433071,
                    "duration": 0.07083333333329733
                },
                {
                    "name": "A2",
                    "midi": 45,
                    "time": 157.1937499999985,
                    "velocity": 0.9763779527559056,
                    "duration": 0.06041666666666856
                },
                {
                    "name": "A1",
                    "midi": 33,
                    "time": 157.1937499999985,
                    "velocity": 0.9133858267716536,
                    "duration": 0.05000000000001137
                },
                {
                    "name": "D5",
                    "midi": 74,
                    "time": 157.4999999999985,
                    "velocity": 0.8582677165354331,
                    "duration": 0.07499999999998863
                },
                {
                    "name": "D4",
                    "midi": 62,
                    "time": 157.4999999999985,
                    "velocity": 0.9291338582677166,
                    "duration": 0.0625
                },
                {
                    "name": "B5",
                    "midi": 83,
                    "time": 157.50208333333183,
                    "velocity": 0.8031496062992126,
                    "duration": 0.0895833333333087
                },
                {
                    "name": "B3",
                    "midi": 59,
                    "time": 157.50208333333183,
                    "velocity": 0.8740157480314961,
                    "duration": 0.0625
                },
                {
                    "name": "F#3",
                    "midi": 54,
                    "time": 157.5062499999985,
                    "velocity": 0.889763779527559,
                    "duration": 0.06666666666666288
                },
                {
                    "name": "B4",
                    "midi": 71,
                    "time": 157.5062499999985,
                    "velocity": 0.8503937007874016,
                    "duration": 0.06041666666666856
                },
                {
                    "name": "F#5",
                    "midi": 78,
                    "time": 157.50833333333182,
                    "velocity": 0.7795275590551181,
                    "duration": 0.06874999999999432
                },
                {
                    "name": "D4",
                    "midi": 62,
                    "time": 157.82291666666512,
                    "velocity": 0.9133858267716536,
                    "duration": 0.06041666666666856
                },
                {
                    "name": "F#3",
                    "midi": 54,
                    "time": 157.82708333333179,
                    "velocity": 0.905511811023622,
                    "duration": 0.08125000000001137
                },
                {
                    "name": "B3",
                    "midi": 59,
                    "time": 157.8354166666651,
                    "velocity": 0.7716535433070866,
                    "duration": 0.02916666666666856
                },
                {
                    "name": "D5",
                    "midi": 74,
                    "time": 157.93541666666513,
                    "velocity": 0.8188976377952756,
                    "duration": 0.07083333333332575
                },
                {
                    "name": "B4",
                    "midi": 71,
                    "time": 157.93749999999847,
                    "velocity": 0.8110236220472441,
                    "duration": 0.05833333333333712
                },
                {
                    "name": "B5",
                    "midi": 83,
                    "time": 157.93749999999847,
                    "velocity": 0.7559055118110236,
                    "duration": 0.08124999999998295
                },
                {
                    "name": "F#5",
                    "midi": 78,
                    "time": 157.9395833333318,
                    "velocity": 0.7007874015748031,
                    "duration": 0.07291666666665719
                },
                {
                    "name": "B5",
                    "midi": 83,
                    "time": 158.0708333333318,
                    "velocity": 0.9921259842519685,
                    "duration": 0.07708333333334849
                },
                {
                    "name": "G5",
                    "midi": 79,
                    "time": 158.09166666666513,
                    "velocity": 0.8031496062992126,
                    "duration": 0.07916666666667993
                },
                {
                    "name": "C#5",
                    "midi": 73,
                    "time": 158.09374999999847,
                    "velocity": 0.8031496062992126,
                    "duration": 0.08125000000001137
                },
                {
                    "name": "B4",
                    "midi": 71,
                    "time": 158.09374999999847,
                    "velocity": 0.7401574803149606,
                    "duration": 0.03333333333333144
                },
                {
                    "name": "A1",
                    "midi": 33,
                    "time": 158.1020833333318,
                    "velocity": 1,
                    "duration": 0.09166666666669698
                },
                {
                    "name": "F#5",
                    "midi": 78,
                    "time": 158.10416666666512,
                    "velocity": 0.4881889763779528,
                    "duration": 0.041666666666685614
                },
                {
                    "name": "A#3",
                    "midi": 58,
                    "time": 158.5249999999985,
                    "velocity": 0.968503937007874,
                    "duration": 0.06458333333330302
                },
                {
                    "name": "C#3",
                    "midi": 49,
                    "time": 158.53333333333183,
                    "velocity": 0.8503937007874016,
                    "duration": 0.07499999999998863
                },
                {
                    "name": "F#3",
                    "midi": 54,
                    "time": 158.53541666666516,
                    "velocity": 0.8267716535433071,
                    "duration": 0.04583333333332007
                },
                {
                    "name": "C#5",
                    "midi": 73,
                    "time": 158.54374999999848,
                    "velocity": 0.889763779527559,
                    "duration": 0.06458333333333144
                },
                {
                    "name": "F#4",
                    "midi": 66,
                    "time": 158.5458333333318,
                    "velocity": 0.9291338582677166,
                    "duration": 0.04583333333332007
                },
                {
                    "name": "A#4",
                    "midi": 70,
                    "time": 158.55416666666514,
                    "velocity": 0.7480314960629921,
                    "duration": 0.03125
                },
                {
                    "name": "F#4",
                    "midi": 66,
                    "time": 158.64374999999848,
                    "velocity": 0.8818897637795275,
                    "duration": 0.06458333333333144
                },
                {
                    "name": "A#4",
                    "midi": 70,
                    "time": 158.64999999999847,
                    "velocity": 0.6929133858267716,
                    "duration": 0.0625
                },
                {
                    "name": "A#3",
                    "midi": 58,
                    "time": 158.65416666666513,
                    "velocity": 0.7716535433070866,
                    "duration": 0.0354166666666913
                },
                {
                    "name": "C#5",
                    "midi": 73,
                    "time": 158.65624999999847,
                    "velocity": 0.8818897637795275,
                    "duration": 0.08333333333331439
                },
                {
                    "name": "C#3",
                    "midi": 49,
                    "time": 158.65624999999847,
                    "velocity": 0.7716535433070866,
                    "duration": 0.06874999999999432
                },
                {
                    "name": "F#3",
                    "midi": 54,
                    "time": 158.67291666666515,
                    "velocity": 0.7244094488188977,
                    "duration": 0.02916666666666856
                },
                {
                    "name": "B5",
                    "midi": 83,
                    "time": 158.99999999999844,
                    "velocity": 0.8346456692913385,
                    "duration": 0.0583333333333087
                },
                {
                    "name": "G5",
                    "midi": 79,
                    "time": 159.0041666666651,
                    "velocity": 0.8740157480314961,
                    "duration": 0.04166666666665719
                },
                {
                    "name": "B4",
                    "midi": 71,
                    "time": 159.0041666666651,
                    "velocity": 0.9212598425196851,
                    "duration": 0.04999999999998295
                },
                {
                    "name": "A1",
                    "midi": 33,
                    "time": 159.00833333333176,
                    "velocity": 0.84251968503937,
                    "duration": 0.0583333333333087
                },
                {
                    "name": "A2",
                    "midi": 45,
                    "time": 159.01458333333176,
                    "velocity": 0.8976377952755905,
                    "duration": 0.06041666666664014
                },
                {
                    "name": "C#5",
                    "midi": 73,
                    "time": 159.02291666666508,
                    "velocity": 0.6220472440944882,
                    "duration": 0.04166666666665719
                },
                {
                    "name": "A#3",
                    "midi": 58,
                    "time": 159.45833333333172,
                    "velocity": 0.9291338582677166,
                    "duration": 0.06458333333330302
                },
                {
                    "name": "C#3",
                    "midi": 49,
                    "time": 159.4708333333317,
                    "velocity": 0.8346456692913385,
                    "duration": 0.07708333333329165
                },
                {
                    "name": "F#3",
                    "midi": 54,
                    "time": 159.4708333333317,
                    "velocity": 0.8503937007874016,
                    "duration": 0.037499999999994316
                },
                {
                    "name": "F#4",
                    "midi": 66,
                    "time": 159.4833333333317,
                    "velocity": 0.952755905511811,
                    "duration": 0.04999999999998295
                },
                {
                    "name": "C#5",
                    "midi": 73,
                    "time": 159.48749999999836,
                    "velocity": 0.84251968503937,
                    "duration": 0.03541666666666288
                },
                {
                    "name": "A#4",
                    "midi": 70,
                    "time": 159.49166666666503,
                    "velocity": 0.7716535433070866,
                    "duration": 0.03125
                },
                {
                    "name": "F#4",
                    "midi": 66,
                    "time": 159.57708333333167,
                    "velocity": 0.8976377952755905,
                    "duration": 0.06041666666664014
                },
                {
                    "name": "C#5",
                    "midi": 73,
                    "time": 159.58124999999833,
                    "velocity": 0.7480314960629921,
                    "duration": 0.08541666666664582
                },
                {
                    "name": "A#4",
                    "midi": 70,
                    "time": 159.58333333333167,
                    "velocity": 0.6692913385826772,
                    "duration": 0.0583333333333087
                },
                {
                    "name": "C#3",
                    "midi": 49,
                    "time": 159.58958333333166,
                    "velocity": 0.8818897637795275,
                    "duration": 0.037499999999994316
                },
                {
                    "name": "A#3",
                    "midi": 58,
                    "time": 159.58958333333166,
                    "velocity": 0.7952755905511811,
                    "duration": 0.039583333333325754
                },
                {
                    "name": "F#3",
                    "midi": 54,
                    "time": 159.60416666666498,
                    "velocity": 0.7559055118110236,
                    "duration": 0.027083333333337123
                },
                {
                    "name": "C#5",
                    "midi": 73,
                    "time": 159.95624999999828,
                    "velocity": 0.7559055118110236,
                    "duration": 0.25
                },
                {
                    "name": "B5",
                    "midi": 83,
                    "time": 159.95624999999828,
                    "velocity": 0.84251968503937,
                    "duration": 0.06041666666666856
                },
                {
                    "name": "B4",
                    "midi": 71,
                    "time": 159.95624999999828,
                    "velocity": 0.952755905511811,
                    "duration": 0.056250000000005684
                },
                {
                    "name": "G5",
                    "midi": 79,
                    "time": 159.9583333333316,
                    "velocity": 0.8582677165354331,
                    "duration": 0.05208333333334281
                },
                {
                    "name": "A1",
                    "midi": 33,
                    "time": 159.9583333333316,
                    "velocity": 0.9212598425196851,
                    "duration": 0.056250000000005684
                },
                {
                    "name": "A2",
                    "midi": 45,
                    "time": 159.9583333333316,
                    "velocity": 0.9212598425196851,
                    "duration": 0.056250000000005684
                },
                {
                    "name": "A2",
                    "midi": 45,
                    "time": 160.49999999999827,
                    "velocity": 0.8818897637795275,
                    "duration": 0.06458333333330302
                },
                {
                    "name": "A1",
                    "midi": 33,
                    "time": 160.50416666666493,
                    "velocity": 0.8976377952755905,
                    "duration": 0.06249999999997158
                },
                {
                    "name": "A5",
                    "midi": 81,
                    "time": 160.51041666666492,
                    "velocity": 0.9133858267716536,
                    "duration": 0.052083333333314386
                },
                {
                    "name": "A4",
                    "midi": 69,
                    "time": 160.5145833333316,
                    "velocity": 0.8740157480314961,
                    "duration": 0.03125
                },
                {
                    "name": "C#5",
                    "midi": 73,
                    "time": 160.5145833333316,
                    "velocity": 0.9291338582677166,
                    "duration": 0.03333333333333144
                },
                {
                    "name": "A2",
                    "midi": 45,
                    "time": 160.63749999999823,
                    "velocity": 0.8346456692913385,
                    "duration": 0.0687499999999659
                },
                {
                    "name": "A1",
                    "midi": 33,
                    "time": 160.63958333333156,
                    "velocity": 0.8110236220472441,
                    "duration": 0.06666666666663446
                },
                {
                    "name": "G5",
                    "midi": 79,
                    "time": 160.64583333333155,
                    "velocity": 0.7874015748031497,
                    "duration": 0.07083333333329733
                },
                {
                    "name": "C#5",
                    "midi": 73,
                    "time": 160.65208333333155,
                    "velocity": 0.8346456692913385,
                    "duration": 0.052083333333314386
                },
                {
                    "name": "A4",
                    "midi": 69,
                    "time": 160.6624999999982,
                    "velocity": 0.5511811023622047,
                    "duration": 0.04791666666665151
                },
                {
                    "name": "E5",
                    "midi": 76,
                    "time": 160.7895833333315,
                    "velocity": 0.8740157480314961,
                    "duration": 0.0895833333333087
                },
                {
                    "name": "A4",
                    "midi": 69,
                    "time": 160.79374999999817,
                    "velocity": 0.8031496062992126,
                    "duration": 0.07291666666665719
                },
                {
                    "name": "A2",
                    "midi": 45,
                    "time": 160.79374999999817,
                    "velocity": 0.7559055118110236,
                    "duration": 0.03541666666666288
                },
                {
                    "name": "A1",
                    "midi": 33,
                    "time": 160.79374999999817,
                    "velocity": 0.7952755905511811,
                    "duration": 0.07083333333332575
                },
                {
                    "name": "C#5",
                    "midi": 73,
                    "time": 160.79999999999816,
                    "velocity": 0.7637795275590551,
                    "duration": 0.04374999999998863
                },
                {
                    "name": "A4",
                    "midi": 69,
                    "time": 161.01874999999814,
                    "velocity": 0.6456692913385826,
                    "duration": 0.5062499999999375
                },
                {
                    "name": "D5",
                    "midi": 74,
                    "time": 161.0229166666648,
                    "velocity": 0.7401574803149606,
                    "duration": 0.5374999999999375
                },
                {
                    "name": "D1",
                    "midi": 26,
                    "time": 161.0354166666648,
                    "velocity": 0.889763779527559,
                    "duration": 0.4187499999999602
                },
                {
                    "name": "D2",
                    "midi": 38,
                    "time": 161.03749999999812,
                    "velocity": 0.8582677165354331,
                    "duration": 0.44166666666663446
                },
                {
                    "name": "F#4",
                    "midi": 66,
                    "time": 161.03958333333145,
                    "velocity": 0.7007874015748031,
                    "duration": 0.47916666666662877
                },
                {
                    "name": "A4",
                    "midi": 69,
                    "time": 161.9374999999981,
                    "velocity": 0.6141732283464567,
                    "duration": 0.706249999999983
                },
                {
                    "name": "A#4",
                    "midi": 70,
                    "time": 162.54166666666475,
                    "velocity": 0.5511811023622047,
                    "duration": 0.8666666666666458
                },
                {
                    "name": "D#3",
                    "midi": 51,
                    "time": 163.21874999999807,
                    "velocity": 0.3937007874015748,
                    "duration": 0.45208333333332007
                },
                {
                    "name": "A5",
                    "midi": 81,
                    "time": 163.3020833333314,
                    "velocity": 0.5118110236220472,
                    "duration": 0.4437499999999659
                },
                {
                    "name": "A#3",
                    "midi": 58,
                    "time": 163.6270833333314,
                    "velocity": 0.3858267716535433,
                    "duration": 0.2812499999999716
                },
                {
                    "name": "C#4",
                    "midi": 61,
                    "time": 163.86249999999805,
                    "velocity": 0.5433070866141733,
                    "duration": 0.18749999999997158
                },
                {
                    "name": "A#4",
                    "midi": 70,
                    "time": 164.04374999999803,
                    "velocity": 0.6220472440944882,
                    "duration": 0.13124999999999432
                },
                {
                    "name": "G4",
                    "midi": 67,
                    "time": 164.08749999999802,
                    "velocity": 0.4015748031496063,
                    "duration": 0.16249999999999432
                },
                {
                    "name": "A5",
                    "midi": 81,
                    "time": 164.24374999999802,
                    "velocity": 0.8031496062992126,
                    "duration": 0.6937499999999943
                },
                {
                    "name": "C#4",
                    "midi": 61,
                    "time": 164.2666666666647,
                    "velocity": 0.5669291338582677,
                    "duration": 0.1520833333333087
                },
                {
                    "name": "A#3",
                    "midi": 58,
                    "time": 164.40416666666468,
                    "velocity": 0.6220472440944882,
                    "duration": 0.08541666666664582
                },
                {
                    "name": "A2",
                    "midi": 45,
                    "time": 164.61666666666466,
                    "velocity": 0.6929133858267716,
                    "duration": 0.11250000000001137
                },
                {
                    "name": "G5",
                    "midi": 79,
                    "time": 164.87916666666467,
                    "velocity": 0.6929133858267716,
                    "duration": 0.2604166666666856
                },
                {
                    "name": "B3",
                    "midi": 59,
                    "time": 164.90833333333134,
                    "velocity": 0.5275590551181102,
                    "duration": 0.20000000000001705
                },
                {
                    "name": "F#5",
                    "midi": 78,
                    "time": 165.08749999999802,
                    "velocity": 0.8267716535433071,
                    "duration": 0.08958333333333712
                },
                {
                    "name": "C#4",
                    "midi": 61,
                    "time": 165.10624999999803,
                    "velocity": 0.5748031496062992,
                    "duration": 0.125
                },
                {
                    "name": "G4",
                    "midi": 67,
                    "time": 165.27708333333135,
                    "velocity": 0.5275590551181102,
                    "duration": 0.21041666666667425
                },
                {
                    "name": "C#4",
                    "midi": 61,
                    "time": 165.45208333333136,
                    "velocity": 0.6377952755905512,
                    "duration": 0.20000000000001705
                },
                {
                    "name": "B3",
                    "midi": 59,
                    "time": 165.60833333333136,
                    "velocity": 0.6614173228346457,
                    "duration": 0.09166666666669698
                },
                {
                    "name": "C#5",
                    "midi": 73,
                    "time": 165.63124999999803,
                    "velocity": 0.84251968503937,
                    "duration": 0.2333333333333485
                },
                {
                    "name": "E5",
                    "midi": 76,
                    "time": 165.8041666666647,
                    "velocity": 0.8110236220472441,
                    "duration": 0.4749999999999659
                },
                {
                    "name": "D3",
                    "midi": 50,
                    "time": 165.8166666666647,
                    "velocity": 0.6377952755905512,
                    "duration": 0.314583333333303
                },
                {
                    "name": "G#3",
                    "midi": 56,
                    "time": 166.006249999998,
                    "velocity": 0.6220472440944882,
                    "duration": 0.22083333333333144
                },
                {
                    "name": "A#3",
                    "midi": 58,
                    "time": 166.137499999998,
                    "velocity": 0.6614173228346457,
                    "duration": 0.15416666666666856
                },
                {
                    "name": "F4",
                    "midi": 65,
                    "time": 166.299999999998,
                    "velocity": 0.8503937007874016,
                    "duration": 0.13124999999999432
                },
                {
                    "name": "E5",
                    "midi": 76,
                    "time": 166.46041666666466,
                    "velocity": 0.8503937007874016,
                    "duration": 0.5687499999999943
                },
                {
                    "name": "A#3",
                    "midi": 58,
                    "time": 166.4708333333313,
                    "velocity": 0.5826771653543307,
                    "duration": 0.16666666666668561
                },
                {
                    "name": "G#3",
                    "midi": 56,
                    "time": 166.618749999998,
                    "velocity": 0.7401574803149606,
                    "duration": 0.06875000000002274
                },
                {
                    "name": "A2",
                    "midi": 45,
                    "time": 166.79791666666466,
                    "velocity": 0.6850393700787402,
                    "duration": 0.054166666666674246
                },
                {
                    "name": "D5",
                    "midi": 74,
                    "time": 166.956249999998,
                    "velocity": 0.6850393700787402,
                    "duration": 0.2354166666666515
                },
                {
                    "name": "A3",
                    "midi": 57,
                    "time": 167.01666666666466,
                    "velocity": 0.25984251968503935,
                    "duration": 0.125
                },
                {
                    "name": "B4",
                    "midi": 71,
                    "time": 167.149999999998,
                    "velocity": 0.8110236220472441,
                    "duration": 0.10208333333332575
                },
                {
                    "name": "B3",
                    "midi": 59,
                    "time": 167.17708333333132,
                    "velocity": 0.47244094488188976,
                    "duration": 0.11666666666664582
                },
                {
                    "name": "F#4",
                    "midi": 66,
                    "time": 167.34374999999798,
                    "velocity": 0.6614173228346457,
                    "duration": 0.11458333333334281
                },
                {
                    "name": "B3",
                    "midi": 59,
                    "time": 167.518749999998,
                    "velocity": 0.3700787401574803,
                    "duration": 0.11666666666667425
                },
                {
                    "name": "A3",
                    "midi": 57,
                    "time": 167.618749999998,
                    "velocity": 0.5354330708661418,
                    "duration": 0.056250000000005684
                },
                {
                    "name": "F#4",
                    "midi": 66,
                    "time": 167.674999999998,
                    "velocity": 0.7401574803149606,
                    "duration": 0.08958333333333712
                },
                {
                    "name": "C#3",
                    "midi": 49,
                    "time": 167.83958333333132,
                    "velocity": 0.5905511811023622,
                    "duration": 0.5854166666666174
                },
                {
                    "name": "G4",
                    "midi": 67,
                    "time": 167.88124999999798,
                    "velocity": 0.7086614173228346,
                    "duration": 0.38749999999998863
                },
                {
                    "name": "F3",
                    "midi": 53,
                    "time": 168.04999999999797,
                    "velocity": 0.44881889763779526,
                    "duration": 0.19374999999999432
                },
                {
                    "name": "G3",
                    "midi": 55,
                    "time": 168.21874999999795,
                    "velocity": 0.6062992125984252,
                    "duration": 0.16041666666666288
                },
                {
                    "name": "B3",
                    "midi": 59,
                    "time": 168.3708333333313,
                    "velocity": 0.7322834645669292,
                    "duration": 0.1979166666666572
                },
                {
                    "name": "G4",
                    "midi": 67,
                    "time": 168.53749999999795,
                    "velocity": 0.7795275590551181,
                    "duration": 0.5708333333333542
                },
                {
                    "name": "G3",
                    "midi": 55,
                    "time": 168.62291666666462,
                    "velocity": 0.4094488188976378,
                    "duration": 0.125
                },
                {
                    "name": "F3",
                    "midi": 53,
                    "time": 168.78333333333129,
                    "velocity": 0.3937007874015748,
                    "duration": 0.04791666666667993
                },
                {
                    "name": "A2",
                    "midi": 45,
                    "time": 168.92499999999797,
                    "velocity": 0.7086614173228346,
                    "duration": 0.08541666666667425
                },
                {
                    "name": "C4",
                    "midi": 60,
                    "time": 169.0708333333313,
                    "velocity": 0.6535433070866141,
                    "duration": 0.11041666666665151
                },
                {
                    "name": "F3",
                    "midi": 53,
                    "time": 169.08124999999797,
                    "velocity": 0.3464566929133858,
                    "duration": 0.19999999999998863
                },
                {
                    "name": "G4",
                    "midi": 67,
                    "time": 169.22083333333129,
                    "velocity": 0.7401574803149606,
                    "duration": 0.08958333333333712
                },
                {
                    "name": "G3",
                    "midi": 55,
                    "time": 169.24374999999796,
                    "velocity": 0.5118110236220472,
                    "duration": 0.1458333333333428
                },
                {
                    "name": "C4",
                    "midi": 60,
                    "time": 169.40624999999798,
                    "velocity": 0.49606299212598426,
                    "duration": 0.12708333333333144
                },
                {
                    "name": "G3",
                    "midi": 55,
                    "time": 169.57499999999797,
                    "velocity": 0.3700787401574803,
                    "duration": 0.15624999999997158
                },
                {
                    "name": "G4",
                    "midi": 67,
                    "time": 169.58541666666463,
                    "velocity": 0.6220472440944882,
                    "duration": 0.16458333333332575
                },
                {
                    "name": "C#4",
                    "midi": 61,
                    "time": 169.59791666666462,
                    "velocity": 0.6771653543307087,
                    "duration": 0.12291666666666856
                },
                {
                    "name": "F3",
                    "midi": 53,
                    "time": 169.71249999999796,
                    "velocity": 0.4881889763779528,
                    "duration": 0.06458333333333144
                },
                {
                    "name": "D2",
                    "midi": 38,
                    "time": 169.97291666666462,
                    "velocity": 0.5354330708661418,
                    "duration": 0.24791666666664014
                },
                {
                    "name": "G4",
                    "midi": 67,
                    "time": 170.00416666666462,
                    "velocity": 0.6377952755905512,
                    "duration": 0.6104166666666231
                },
                {
                    "name": "A3",
                    "midi": 57,
                    "time": 170.0104166666646,
                    "velocity": 0.48031496062992124,
                    "duration": 0.45208333333332007
                },
                {
                    "name": "E4",
                    "midi": 64,
                    "time": 170.02499999999793,
                    "velocity": 0.6141732283464567,
                    "duration": 0.6041666666666288
                },
                {
                    "name": "A2",
                    "midi": 45,
                    "time": 170.21249999999793,
                    "velocity": 0.5275590551181102,
                    "duration": 0.21250000000000568
                },
                {
                    "name": "B2",
                    "midi": 47,
                    "time": 170.40208333333126,
                    "velocity": 0.6062992125984252,
                    "duration": 0.13749999999998863
                },
                {
                    "name": "D3",
                    "midi": 50,
                    "time": 170.52708333333126,
                    "velocity": 0.7559055118110236,
                    "duration": 0.17708333333328596
                },
                {
                    "name": "F3",
                    "midi": 53,
                    "time": 170.69583333333122,
                    "velocity": 0.6220472440944882,
                    "duration": 0.18958333333333144
                },
                {
                    "name": "F#4",
                    "midi": 66,
                    "time": 170.72083333333123,
                    "velocity": 0.84251968503937,
                    "duration": 0.21458333333333712
                },
                {
                    "name": "D4",
                    "midi": 62,
                    "time": 170.73333333333122,
                    "velocity": 0.6535433070866141,
                    "duration": 0.09166666666666856
                },
                {
                    "name": "F#3",
                    "midi": 54,
                    "time": 170.86041666666455,
                    "velocity": 0.7165354330708661,
                    "duration": 0.07291666666668561
                },
                {
                    "name": "G#3",
                    "midi": 56,
                    "time": 171.02916666666457,
                    "velocity": 0.7716535433070866,
                    "duration": 0.11666666666667425
                },
                {
                    "name": "A3",
                    "midi": 57,
                    "time": 171.16249999999792,
                    "velocity": 0.5984251968503937,
                    "duration": 0.17499999999998295
                },
                {
                    "name": "C#4",
                    "midi": 61,
                    "time": 171.32708333333125,
                    "velocity": 0.5433070866141733,
                    "duration": 0.2249999999999659
                },
                {
                    "name": "F4",
                    "midi": 65,
                    "time": 171.37916666666456,
                    "velocity": 0.48031496062992124,
                    "duration": 0.20208333333332007
                },
                {
                    "name": "D4",
                    "midi": 62,
                    "time": 171.53958333333122,
                    "velocity": 0.4645669291338583,
                    "duration": 0.2416666666666174
                },
                {
                    "name": "F#4",
                    "midi": 66,
                    "time": 171.55624999999787,
                    "velocity": 0.6062992125984252,
                    "duration": 0.12708333333333144
                },
                {
                    "name": "A4",
                    "midi": 69,
                    "time": 171.75624999999786,
                    "velocity": 0.5275590551181102,
                    "duration": 0.19999999999998863
                },
                {
                    "name": "A#4",
                    "midi": 70,
                    "time": 171.96458333333118,
                    "velocity": 0.5275590551181102,
                    "duration": 0.10416666666665719
                },
                {
                    "name": "D#3",
                    "midi": 51,
                    "time": 172.23749999999782,
                    "velocity": 0.30708661417322836,
                    "duration": 0.32499999999998863
                },
                {
                    "name": "A5",
                    "midi": 81,
                    "time": 172.29583333333116,
                    "velocity": 0.6535433070866141,
                    "duration": 0.3333333333333144
                },
                {
                    "name": "A#3",
                    "midi": 58,
                    "time": 172.55208333333115,
                    "velocity": 0.4015748031496063,
                    "duration": 0.29166666666662877
                },
                {
                    "name": "C#4",
                    "midi": 61,
                    "time": 172.76666666666446,
                    "velocity": 0.5984251968503937,
                    "duration": 0.17083333333332007
                },
                {
                    "name": "A#4",
                    "midi": 70,
                    "time": 172.90833333333111,
                    "velocity": 0.7165354330708661,
                    "duration": 0.10000000000002274
                },
                {
                    "name": "G4",
                    "midi": 67,
                    "time": 172.98541666666446,
                    "velocity": 0.3779527559055118,
                    "duration": 0.15625
                },
                {
                    "name": "A5",
                    "midi": 81,
                    "time": 173.09791666666447,
                    "velocity": 0.8110236220472441,
                    "duration": 0.6166666666666458
                },
                {
                    "name": "C#4",
                    "midi": 61,
                    "time": 173.14166666666446,
                    "velocity": 0.5905511811023622,
                    "duration": 0.13749999999998863
                },
                {
                    "name": "A#3",
                    "midi": 58,
                    "time": 173.2687499999978,
                    "velocity": 0.5905511811023622,
                    "duration": 0.06041666666666856
                },
                {
                    "name": "A2",
                    "midi": 45,
                    "time": 173.4562499999978,
                    "velocity": 0.6929133858267716,
                    "duration": 0.09374999999997158
                },
                {
                    "name": "G5",
                    "midi": 79,
                    "time": 173.6645833333311,
                    "velocity": 0.6771653543307087,
                    "duration": 0.2770833333333371
                },
                {
                    "name": "B3",
                    "midi": 59,
                    "time": 173.6958333333311,
                    "velocity": 0.5826771653543307,
                    "duration": 0.20416666666667993
                },
                {
                    "name": "C#4",
                    "midi": 61,
                    "time": 173.88958333333113,
                    "velocity": 0.5748031496062992,
                    "duration": 0.12708333333330302
                },
                {
                    "name": "F#5",
                    "midi": 78,
                    "time": 173.89166666666446,
                    "velocity": 0.7874015748031497,
                    "duration": 0.09374999999997158
                },
                {
                    "name": "G4",
                    "midi": 67,
                    "time": 174.06666666666445,
                    "velocity": 0.5118110236220472,
                    "duration": 0.21250000000000568
                },
                {
                    "name": "C#4",
                    "midi": 61,
                    "time": 174.24583333333112,
                    "velocity": 0.6929133858267716,
                    "duration": 0.13333333333332575
                },
                {
                    "name": "B3",
                    "midi": 59,
                    "time": 174.3687499999978,
                    "velocity": 0.5590551181102362,
                    "duration": 0.06874999999999432
                },
                {
                    "name": "C#5",
                    "midi": 73,
                    "time": 174.39791666666446,
                    "velocity": 0.8110236220472441,
                    "duration": 0.24166666666664582
                },
                {
                    "name": "E5",
                    "midi": 76,
                    "time": 174.56041666666445,
                    "velocity": 0.7874015748031497,
                    "duration": 0.42083333333332007
                },
                {
                    "name": "D3",
                    "midi": 50,
                    "time": 174.56458333333111,
                    "velocity": 0.5511811023622047,
                    "duration": 0.2854166666666629
                },
                {
                    "name": "G#3",
                    "midi": 56,
                    "time": 174.75208333333111,
                    "velocity": 0.5669291338582677,
                    "duration": 0.22083333333333144
                },
                {
                    "name": "A#3",
                    "midi": 58,
                    "time": 174.8999999999978,
                    "velocity": 0.6456692913385826,
                    "duration": 0.14374999999998295
                },
                {
                    "name": "F4",
                    "midi": 65,
                    "time": 175.0708333333311,
                    "velocity": 0.7244094488188977,
                    "duration": 0.11875000000000568
                },
                {
                    "name": "E5",
                    "midi": 76,
                    "time": 175.21458333333112,
                    "velocity": 0.8346456692913385,
                    "duration": 0.566666666666606
                },
                {
                    "name": "A#3",
                    "midi": 58,
                    "time": 175.23958333333113,
                    "velocity": 0.5118110236220472,
                    "duration": 0.14791666666664582
                },
                {
                    "name": "G#3",
                    "midi": 56,
                    "time": 175.37708333333111,
                    "velocity": 0.6141732283464567,
                    "duration": 0.04374999999998863
                },
                {
                    "name": "A2",
                    "midi": 45,
                    "time": 175.5333333333311,
                    "velocity": 0.7244094488188977,
                    "duration": 0.08333333333331439
                },
                {
                    "name": "D5",
                    "midi": 74,
                    "time": 175.68124999999773,
                    "velocity": 0.6614173228346457,
                    "duration": 0.26458333333332007
                },
                {
                    "name": "A3",
                    "midi": 57,
                    "time": 175.74999999999773,
                    "velocity": 0.44881889763779526,
                    "duration": 0.11666666666667425
                },
                {
                    "name": "B4",
                    "midi": 71,
                    "time": 175.90208333333106,
                    "velocity": 0.7086614173228346,
                    "duration": 0.11666666666664582
                },
                {
                    "name": "F#4",
                    "midi": 66,
                    "time": 176.08541666666437,
                    "velocity": 0.5748031496062992,
                    "duration": 0.13749999999998863
                },
                {
                    "name": "B3",
                    "midi": 59,
                    "time": 176.2562499999977,
                    "velocity": 0.4645669291338583,
                    "duration": 0.14791666666664582
                },
                {
                    "name": "A3",
                    "midi": 57,
                    "time": 176.41874999999766,
                    "velocity": 0.3228346456692913,
                    "duration": 0.09999999999999432
                },
                {
                    "name": "F#4",
                    "midi": 66,
                    "time": 176.44791666666433,
                    "velocity": 0.5984251968503937,
                    "duration": 0.11458333333331439
                },
                {
                    "name": "C#4",
                    "midi": 61,
                    "time": 176.6916666666643,
                    "velocity": 0.7165354330708661,
                    "duration": 0.3812499999999943
                },
                {
                    "name": "F#3",
                    "midi": 54,
                    "time": 176.70208333333096,
                    "velocity": 0.49606299212598426,
                    "duration": 0.8937500000000114
                },
                {
                    "name": "A4",
                    "midi": 69,
                    "time": 176.96249999999762,
                    "velocity": 0.4645669291338583,
                    "duration": 0.2437500000000341
                },
                {
                    "name": "C#5",
                    "midi": 73,
                    "time": 177.1354166666643,
                    "velocity": 0.7086614173228346,
                    "duration": 0.33541666666667425
                },
                {
                    "name": "C#4",
                    "midi": 61,
                    "time": 177.15833333333097,
                    "velocity": 0.6062992125984252,
                    "duration": 0.8145833333333314
                },
                {
                    "name": "D4",
                    "midi": 62,
                    "time": 177.3104166666643,
                    "velocity": 0.7637795275590551,
                    "duration": 0.07708333333332007
                },
                {
                    "name": "D#4",
                    "midi": 63,
                    "time": 177.4729166666643,
                    "velocity": 0.8346456692913385,
                    "duration": 0.4166666666666856
                },
                {
                    "name": "A4",
                    "midi": 69,
                    "time": 177.6229166666643,
                    "velocity": 0.6929133858267716,
                    "duration": 0.24583333333333712
                },
                {
                    "name": "C#3",
                    "midi": 49,
                    "time": 177.7854166666643,
                    "velocity": 0.6377952755905512,
                    "duration": 0.7208333333333314
                },
                {
                    "name": "C#5",
                    "midi": 73,
                    "time": 177.8104166666643,
                    "velocity": 0.7637795275590551,
                    "duration": 0.33124999999998295
                },
                {
                    "name": "E4",
                    "midi": 64,
                    "time": 177.9666666666643,
                    "velocity": 0.84251968503937,
                    "duration": 0.11249999999998295
                },
                {
                    "name": "C#4",
                    "midi": 61,
                    "time": 178.13749999999763,
                    "velocity": 0.7165354330708661,
                    "duration": 0.24791666666666856
                },
                {
                    "name": "F4",
                    "midi": 65,
                    "time": 178.14583333333096,
                    "velocity": 0.8110236220472441,
                    "duration": 0.4124999999999943
                },
                {
                    "name": "A4",
                    "midi": 69,
                    "time": 178.2916666666643,
                    "velocity": 0.7559055118110236,
                    "duration": 0.2541666666666629
                },
                {
                    "name": "C#5",
                    "midi": 73,
                    "time": 178.4979166666643,
                    "velocity": 0.7559055118110236,
                    "duration": 0.12499999999997158
                },
                {
                    "name": "A4",
                    "midi": 69,
                    "time": 178.68124999999762,
                    "velocity": 0.8110236220472441,
                    "duration": 0.15416666666666856
                },
                {
                    "name": "C#5",
                    "midi": 73,
                    "time": 178.87916666666428,
                    "velocity": 0.8661417322834646,
                    "duration": 0.5854166666667027
                },
                {
                    "name": "F#2",
                    "midi": 42,
                    "time": 178.87916666666428,
                    "velocity": 0.6692913385826772,
                    "duration": 0.08333333333337123
                },
                {
                    "name": "F#3",
                    "midi": 54,
                    "time": 178.89999999999762,
                    "velocity": 0.5984251968503937,
                    "duration": 0.08333333333337123
                },
                {
                    "name": "A4",
                    "midi": 69,
                    "time": 179.06874999999766,
                    "velocity": 0.5984251968503937,
                    "duration": 0.21041666666667425
                },
                {
                    "name": "C#4",
                    "midi": 61,
                    "time": 179.22499999999766,
                    "velocity": 0.7086614173228346,
                    "duration": 0.08958333333333712
                },
                {
                    "name": "F#4",
                    "midi": 66,
                    "time": 179.24374999999768,
                    "velocity": 0.7637795275590551,
                    "duration": 0.11041666666665151
                },
                {
                    "name": "D5",
                    "midi": 74,
                    "time": 179.40624999999767,
                    "velocity": 0.8110236220472441,
                    "duration": 0.12499999999997158
                },
                {
                    "name": "G4",
                    "midi": 67,
                    "time": 179.420833333331,
                    "velocity": 0.6850393700787402,
                    "duration": 0.10833333333332007
                },
                {
                    "name": "A#4",
                    "midi": 70,
                    "time": 179.43124999999765,
                    "velocity": 0.7007874015748031,
                    "duration": 0.12708333333333144
                },
                {
                    "name": "D#5",
                    "midi": 75,
                    "time": 179.608333333331,
                    "velocity": 0.8503937007874016,
                    "duration": 0.6249999999999147
                },
                {
                    "name": "B4",
                    "midi": 71,
                    "time": 179.77291666666432,
                    "velocity": 0.6692913385826772,
                    "duration": 0.3104166666666117
                },
                {
                    "name": "G#4",
                    "midi": 68,
                    "time": 179.99583333333095,
                    "velocity": 0.6535433070866141,
                    "duration": 0.18124999999997726
                },
                {
                    "name": "C#2",
                    "midi": 37,
                    "time": 180.00416666666428,
                    "velocity": 0.5275590551181102,
                    "duration": 0.22291666666663446
                },
                {
                    "name": "F5",
                    "midi": 77,
                    "time": 180.21041666666426,
                    "velocity": 0.7086614173228346,
                    "duration": 0.17708333333331439
                },
                {
                    "name": "A4",
                    "midi": 69,
                    "time": 180.22083333333092,
                    "velocity": 0.4645669291338583,
                    "duration": 0.6604166666666629
                },
                {
                    "name": "C#5",
                    "midi": 73,
                    "time": 180.22916666666424,
                    "velocity": 0.7165354330708661,
                    "duration": 0.7520833333333314
                },
                {
                    "name": "F#2",
                    "midi": 42,
                    "time": 180.56041666666425,
                    "velocity": 0.4094488188976378,
                    "duration": 0.48124999999998863
                },
                {
                    "name": "F#1",
                    "midi": 30,
                    "time": 180.56458333333092,
                    "velocity": 0.36220472440944884,
                    "duration": 0.38958333333332007
                },
                {
                    "name": "F#5",
                    "midi": 78,
                    "time": 180.5708333333309,
                    "velocity": 0.6062992125984252,
                    "duration": 0.48750000000001137
                },
                {
                    "name": "D#3",
                    "midi": 51,
                    "time": 181.68333333333092,
                    "velocity": 0.4015748031496063,
                    "duration": 0.3541666666666572
                },
                {
                    "name": "A6",
                    "midi": 93,
                    "time": 181.68749999999758,
                    "velocity": 0.5590551181102362,
                    "duration": 0.41458333333332575
                },
                {
                    "name": "A5",
                    "midi": 81,
                    "time": 181.70416666666426,
                    "velocity": 0.47244094488188976,
                    "duration": 0.38958333333332007
                },
                {
                    "name": "A#3",
                    "midi": 58,
                    "time": 182.0145833333309,
                    "velocity": 0.4015748031496063,
                    "duration": 0.2708333333333428
                },
                {
                    "name": "C#4",
                    "midi": 61,
                    "time": 182.23124999999757,
                    "velocity": 0.6299212598425197,
                    "duration": 0.16666666666668561
                },
                {
                    "name": "A#5",
                    "midi": 82,
                    "time": 182.41041666666425,
                    "velocity": 0.7165354330708661,
                    "duration": 0.11250000000001137
                },
                {
                    "name": "G4",
                    "midi": 67,
                    "time": 182.44166666666425,
                    "velocity": 0.5590551181102362,
                    "duration": 0.25
                },
                {
                    "name": "A6",
                    "midi": 93,
                    "time": 182.64583333333093,
                    "velocity": 0.7401574803149606,
                    "duration": 0.32500000000001705
                },
                {
                    "name": "A5",
                    "midi": 81,
                    "time": 182.65624999999758,
                    "velocity": 0.6299212598425197,
                    "duration": 0.3791666666666913
                },
                {
                    "name": "C#4",
                    "midi": 61,
                    "time": 182.65624999999758,
                    "velocity": 0.6929133858267716,
                    "duration": 0.20625000000001137
                },
                {
                    "name": "A#3",
                    "midi": 58,
                    "time": 182.83958333333092,
                    "velocity": 0.6771653543307087,
                    "duration": 0.08125000000001137
                },
                {
                    "name": "A2",
                    "midi": 45,
                    "time": 183.05624999999762,
                    "velocity": 0.8031496062992126,
                    "duration": 0.08958333333333712
                },
                {
                    "name": "G6",
                    "midi": 91,
                    "time": 183.27916666666428,
                    "velocity": 0.7716535433070866,
                    "duration": 0.08333333333331439
                },
                {
                    "name": "G5",
                    "midi": 79,
                    "time": 183.28958333333094,
                    "velocity": 0.6377952755905512,
                    "duration": 0.07916666666665151
                },
                {
                    "name": "B3",
                    "midi": 59,
                    "time": 183.29166666666427,
                    "velocity": 0.6062992125984252,
                    "duration": 0.18124999999997726
                },
                {
                    "name": "C#4",
                    "midi": 61,
                    "time": 183.4833333333309,
                    "velocity": 0.6614173228346457,
                    "duration": 0.14374999999998295
                },
                {
                    "name": "F#6",
                    "midi": 90,
                    "time": 183.49166666666423,
                    "velocity": 0.7795275590551181,
                    "duration": 0.07291666666665719
                },
                {
                    "name": "F#5",
                    "midi": 78,
                    "time": 183.50416666666422,
                    "velocity": 0.7480314960629921,
                    "duration": 0.0625
                },
                {
                    "name": "G4",
                    "midi": 67,
                    "time": 183.6770833333309,
                    "velocity": 0.6929133858267716,
                    "duration": 0.22083333333333144
                },
                {
                    "name": "C#4",
                    "midi": 61,
                    "time": 183.84791666666422,
                    "velocity": 0.8110236220472441,
                    "duration": 0.1708333333333485
                },
                {
                    "name": "B3",
                    "midi": 59,
                    "time": 183.99999999999756,
                    "velocity": 0.7322834645669292,
                    "duration": 0.07500000000001705
                },
                {
                    "name": "C#6",
                    "midi": 85,
                    "time": 184.01666666666424,
                    "velocity": 0.8661417322834646,
                    "duration": 0.07916666666665151
                },
                {
                    "name": "C#5",
                    "midi": 73,
                    "time": 184.01874999999757,
                    "velocity": 0.8582677165354331,
                    "duration": 0.07083333333332575
                },
                {
                    "name": "D3",
                    "midi": 50,
                    "time": 184.19999999999754,
                    "velocity": 0.7559055118110236,
                    "duration": 0.2541666666666629
                },
                {
                    "name": "E6",
                    "midi": 88,
                    "time": 184.20624999999754,
                    "velocity": 0.8188976377952756,
                    "duration": 0.37708333333333144
                },
                {
                    "name": "E5",
                    "midi": 76,
                    "time": 184.2104166666642,
                    "velocity": 0.7559055118110236,
                    "duration": 0.2916666666666856
                },
                {
                    "name": "G#3",
                    "midi": 56,
                    "time": 184.42708333333087,
                    "velocity": 0.7559055118110236,
                    "duration": 0.21250000000000568
                },
                {
                    "name": "A#3",
                    "midi": 58,
                    "time": 184.57708333333088,
                    "velocity": 0.7874015748031497,
                    "duration": 0.1729166666666515
                },
                {
                    "name": "F5",
                    "midi": 77,
                    "time": 184.73124999999754,
                    "velocity": 0.7401574803149606,
                    "duration": 0.08333333333331439
                },
                {
                    "name": "F4",
                    "midi": 65,
                    "time": 184.7416666666642,
                    "velocity": 0.6535433070866141,
                    "duration": 0.23958333333331439
                },
                {
                    "name": "A#3",
                    "midi": 58,
                    "time": 184.93958333333086,
                    "velocity": 0.7086614173228346,
                    "duration": 0.19999999999998863
                },
                {
                    "name": "E6",
                    "midi": 88,
                    "time": 184.94583333333085,
                    "velocity": 0.7795275590551181,
                    "duration": 0.26874999999998295
                },
                {
                    "name": "E5",
                    "midi": 76,
                    "time": 184.9624999999975,
                    "velocity": 0.6299212598425197,
                    "duration": 0.30416666666667425
                },
                {
                    "name": "G#3",
                    "midi": 56,
                    "time": 185.11458333333084,
                    "velocity": 0.7244094488188977,
                    "duration": 0.07083333333332575
                },
                {
                    "name": "A2",
                    "midi": 45,
                    "time": 185.29166666666418,
                    "velocity": 0.8188976377952756,
                    "duration": 0.08750000000000568
                },
                {
                    "name": "D6",
                    "midi": 86,
                    "time": 185.4874999999975,
                    "velocity": 0.7795275590551181,
                    "duration": 0.06874999999999432
                },
                {
                    "name": "A3",
                    "midi": 57,
                    "time": 185.48958333333084,
                    "velocity": 0.5669291338582677,
                    "duration": 0.12291666666666856
                },
                {
                    "name": "D5",
                    "midi": 74,
                    "time": 185.48958333333084,
                    "velocity": 0.7007874015748031,
                    "duration": 0.07083333333332575
                },
                {
                    "name": "B3",
                    "midi": 59,
                    "time": 185.64791666666417,
                    "velocity": 0.5354330708661418,
                    "duration": 0.16458333333332575
                },
                {
                    "name": "B5",
                    "midi": 83,
                    "time": 185.69999999999752,
                    "velocity": 0.7165354330708661,
                    "duration": 0.06249999999997158
                },
                {
                    "name": "B4",
                    "midi": 71,
                    "time": 185.7124999999975,
                    "velocity": 0.6299212598425197,
                    "duration": 0.04166666666665719
                },
                {
                    "name": "F#4",
                    "midi": 66,
                    "time": 185.87708333333083,
                    "velocity": 0.6141732283464567,
                    "duration": 0.13333333333332575
                },
                {
                    "name": "B3",
                    "midi": 59,
                    "time": 186.04999999999748,
                    "velocity": 0.5039370078740157,
                    "duration": 0.16250000000002274
                },
                {
                    "name": "A3",
                    "midi": 57,
                    "time": 186.19583333333082,
                    "velocity": 0.4566929133858268,
                    "duration": 0.06874999999999432
                },
                {
                    "name": "F#5",
                    "midi": 78,
                    "time": 186.22291666666416,
                    "velocity": 0.7322834645669292,
                    "duration": 0.09583333333333144
                },
                {
                    "name": "F#4",
                    "midi": 66,
                    "time": 186.2249999999975,
                    "velocity": 0.7007874015748031,
                    "duration": 0.07499999999998863
                },
                {
                    "name": "G5",
                    "midi": 79,
                    "time": 186.38958333333082,
                    "velocity": 0.7401574803149606,
                    "duration": 0.2312499999999602
                },
                {
                    "name": "G4",
                    "midi": 67,
                    "time": 186.4083333333308,
                    "velocity": 0.4645669291338583,
                    "duration": 0.23333333333332007
                },
                {
                    "name": "C#3",
                    "midi": 49,
                    "time": 186.4083333333308,
                    "velocity": 0.6929133858267716,
                    "duration": 0.14583333333331439
                },
                {
                    "name": "G3",
                    "midi": 55,
                    "time": 186.60624999999746,
                    "velocity": 0.5905511811023622,
                    "duration": 0.17916666666667425
                },
                {
                    "name": "B3",
                    "midi": 59,
                    "time": 186.7645833333308,
                    "velocity": 0.7401574803149606,
                    "duration": 0.15416666666669698
                },
                {
                    "name": "B4",
                    "midi": 71,
                    "time": 186.9020833333308,
                    "velocity": 0.8110236220472441,
                    "duration": 0.07500000000001705
                },
                {
                    "name": "F4",
                    "midi": 65,
                    "time": 186.9270833333308,
                    "velocity": 0.6771653543307087,
                    "duration": 0.13125000000002274
                },
                {
                    "name": "G5",
                    "midi": 79,
                    "time": 187.0812499999975,
                    "velocity": 0.8346456692913385,
                    "duration": 0.4229166666666515
                },
                {
                    "name": "G4",
                    "midi": 67,
                    "time": 187.08958333333084,
                    "velocity": 0.8110236220472441,
                    "duration": 0.35833333333332007
                },
                {
                    "name": "B3",
                    "midi": 59,
                    "time": 187.0937499999975,
                    "velocity": 0.6771653543307087,
                    "duration": 0.13958333333332007
                },
                {
                    "name": "G3",
                    "midi": 55,
                    "time": 187.22083333333083,
                    "velocity": 0.6850393700787402,
                    "duration": 0.07499999999996021
                },
                {
                    "name": "A2",
                    "midi": 45,
                    "time": 187.38541666666416,
                    "velocity": 0.8740157480314961,
                    "duration": 0.06041666666666856
                },
                {
                    "name": "C5",
                    "midi": 72,
                    "time": 187.59791666666416,
                    "velocity": 0.7559055118110236,
                    "duration": 0.10416666666665719
                },
                {
                    "name": "G3",
                    "midi": 55,
                    "time": 187.60208333333082,
                    "velocity": 0.5590551181102362,
                    "duration": 0.502083333333303
                },
                {
                    "name": "C4",
                    "midi": 60,
                    "time": 187.7499999999975,
                    "velocity": 0.6850393700787402,
                    "duration": 0.12916666666663446
                },
                {
                    "name": "G5",
                    "midi": 79,
                    "time": 187.75833333333082,
                    "velocity": 0.7952755905511811,
                    "duration": 0.06458333333330302
                },
                {
                    "name": "G4",
                    "midi": 67,
                    "time": 187.7624999999975,
                    "velocity": 0.7874015748031497,
                    "duration": 0.04583333333332007
                },
                {
                    "name": "F4",
                    "midi": 65,
                    "time": 187.9270833333308,
                    "velocity": 0.7244094488188977,
                    "duration": 0.2416666666666174
                },
                {
                    "name": "C#4",
                    "midi": 61,
                    "time": 188.11458333333078,
                    "velocity": 0.8110236220472441,
                    "duration": 0.17499999999998295
                },
                {
                    "name": "G5",
                    "midi": 79,
                    "time": 188.1291666666641,
                    "velocity": 0.8346456692913385,
                    "duration": 0.04999999999998295
                },
                {
                    "name": "G4",
                    "midi": 67,
                    "time": 188.13124999999744,
                    "velocity": 0.8188976377952756,
                    "duration": 0.03541666666666288
                },
                {
                    "name": "C#5",
                    "midi": 73,
                    "time": 188.13749999999743,
                    "velocity": 0.7795275590551181,
                    "duration": 0.04374999999998863
                },
                {
                    "name": "G3",
                    "midi": 55,
                    "time": 188.26458333333076,
                    "velocity": 0.7086614173228346,
                    "duration": 0.07708333333334849
                },
                {
                    "name": "D2",
                    "midi": 38,
                    "time": 188.52083333333078,
                    "velocity": 0.7874015748031497,
                    "duration": 0.26874999999998295
                },
                {
                    "name": "G5",
                    "midi": 79,
                    "time": 188.5458333333308,
                    "velocity": 0.7716535433070866,
                    "duration": 0.3708333333333087
                },
                {
                    "name": "G4",
                    "midi": 67,
                    "time": 188.5458333333308,
                    "velocity": 0.7322834645669292,
                    "duration": 0.4416666666666629
                },
                {
                    "name": "E5",
                    "midi": 76,
                    "time": 188.55208333333078,
                    "velocity": 0.6929133858267716,
                    "duration": 0.4729166666666629
                },
                {
                    "name": "A2",
                    "midi": 45,
                    "time": 188.76249999999743,
                    "velocity": 0.5511811023622047,
                    "duration": 0.2333333333333485
                },
                {
                    "name": "B2",
                    "midi": 47,
                    "time": 188.9666666666641,
                    "velocity": 0.5669291338582677,
                    "duration": 0.12083333333333712
                },
                {
                    "name": "D3",
                    "midi": 50,
                    "time": 189.0979166666641,
                    "velocity": 0.6614173228346457,
                    "duration": 0.09375
                },
                {
                    "name": "F#5",
                    "midi": 78,
                    "time": 189.25624999999744,
                    "velocity": 0.7716535433070866,
                    "duration": 0.35833333333332007
                },
                {
                    "name": "F#4",
                    "midi": 66,
                    "time": 189.26874999999742,
                    "velocity": 0.7637795275590551,
                    "duration": 0.23749999999998295
                },
                {
                    "name": "F3",
                    "midi": 53,
                    "time": 189.27083333333076,
                    "velocity": 0.6141732283464567,
                    "duration": 0.1979166666666572
                },
                {
                    "name": "D5",
                    "midi": 74,
                    "time": 189.28333333333075,
                    "velocity": 0.6456692913385826,
                    "duration": 0.28125
                },
                {
                    "name": "F#3",
                    "midi": 54,
                    "time": 189.40208333333075,
                    "velocity": 0.6614173228346457,
                    "duration": 0.13333333333332575
                },
                {
                    "name": "G#3",
                    "midi": 56,
                    "time": 189.61249999999742,
                    "velocity": 0.8188976377952756,
                    "duration": 0.17916666666667425
                },
                {
                    "name": "A3",
                    "midi": 57,
                    "time": 189.77083333333076,
                    "velocity": 0.6771653543307087,
                    "duration": 0.08958333333333712
                },
                {
                    "name": "F5",
                    "midi": 77,
                    "time": 189.97083333333077,
                    "velocity": 0.6456692913385826,
                    "duration": 0.27291666666667425
                },
                {
                    "name": "C#4",
                    "midi": 61,
                    "time": 189.9979166666641,
                    "velocity": 0.6535433070866141,
                    "duration": 0.14791666666667425
                },
                {
                    "name": "D4",
                    "midi": 62,
                    "time": 190.16874999999746,
                    "velocity": 0.5748031496062992,
                    "duration": 0.06458333333333144
                },
                {
                    "name": "F#5",
                    "midi": 78,
                    "time": 190.21041666666412,
                    "velocity": 0.5669291338582677,
                    "duration": 0.15208333333333712
                },
                {
                    "name": "A5",
                    "midi": 81,
                    "time": 190.43124999999745,
                    "velocity": 0.5433070866141733,
                    "duration": 0.32708333333332007
                },
                {
                    "name": "A#5",
                    "midi": 82,
                    "time": 190.68333333333078,
                    "velocity": 0.5984251968503937,
                    "duration": 0.0895833333333087
                },
                {
                    "name": "D#3",
                    "midi": 51,
                    "time": 191.00416666666408,
                    "velocity": 0.4881889763779528,
                    "duration": 0.3270833333333485
                },
                {
                    "name": "A6",
                    "midi": 93,
                    "time": 191.0541666666641,
                    "velocity": 0.6692913385826772,
                    "duration": 0.3499999999999943
                },
                {
                    "name": "A5",
                    "midi": 81,
                    "time": 191.0624999999974,
                    "velocity": 0.5590551181102362,
                    "duration": 0.28125
                },
                {
                    "name": "A#3",
                    "midi": 58,
                    "time": 191.29999999999742,
                    "velocity": 0.5118110236220472,
                    "duration": 0.25833333333332575
                },
                {
                    "name": "C#4",
                    "midi": 61,
                    "time": 191.51458333333076,
                    "velocity": 0.7637795275590551,
                    "duration": 0.16874999999998863
                },
                {
                    "name": "A#5",
                    "midi": 82,
                    "time": 191.6791666666641,
                    "velocity": 0.7874015748031497,
                    "duration": 0.08541666666667425
                },
                {
                    "name": "G4",
                    "midi": 67,
                    "time": 191.71249999999742,
                    "velocity": 0.49606299212598426,
                    "duration": 0.24166666666664582
                },
                {
                    "name": "A6",
                    "midi": 93,
                    "time": 191.88749999999743,
                    "velocity": 0.7795275590551181,
                    "duration": 0.27916666666664014
                },
                {
                    "name": "A5",
                    "midi": 81,
                    "time": 191.89583333333076,
                    "velocity": 0.6850393700787402,
                    "duration": 0.1729166666666515
                },
                {
                    "name": "C#4",
                    "midi": 61,
                    "time": 191.91041666666408,
                    "velocity": 0.7322834645669292,
                    "duration": 0.18125000000000568
                },
                {
                    "name": "B5",
                    "midi": 83,
                    "time": 192.0124999999974,
                    "velocity": 0.03937007874015748,
                    "duration": 0.14166666666667993
                },
                {
                    "name": "A#3",
                    "midi": 58,
                    "time": 192.06666666666408,
                    "velocity": 0.7322834645669292,
                    "duration": 0.07916666666667993
                },
                {
                    "name": "A2",
                    "midi": 45,
                    "time": 192.25833333333074,
                    "velocity": 0.8031496062992126,
                    "duration": 0.07083333333332575
                },
                {
                    "name": "G6",
                    "midi": 91,
                    "time": 192.42291666666407,
                    "velocity": 0.7952755905511811,
                    "duration": 0.07083333333335418
                },
                {
                    "name": "G5",
                    "midi": 79,
                    "time": 192.4249999999974,
                    "velocity": 0.7322834645669292,
                    "duration": 0.0666666666666913
                },
                {
                    "name": "B3",
                    "midi": 59,
                    "time": 192.44166666666408,
                    "velocity": 0.7637795275590551,
                    "duration": 0.16666666666668561
                },
                {
                    "name": "F#6",
                    "midi": 90,
                    "time": 192.6166666666641,
                    "velocity": 0.8346456692913385,
                    "duration": 0.07499999999998863
                },
                {
                    "name": "F#5",
                    "midi": 78,
                    "time": 192.6249999999974,
                    "velocity": 0.8267716535433071,
                    "duration": 0.0625
                },
                {
                    "name": "C#4",
                    "midi": 61,
                    "time": 192.62708333333075,
                    "velocity": 0.7401574803149606,
                    "duration": 0.15208333333333712
                },
                {
                    "name": "G4",
                    "midi": 67,
                    "time": 192.80624999999742,
                    "velocity": 0.7559055118110236,
                    "duration": 0.2541666666666629
                },
                {
                    "name": "C#4",
                    "midi": 61,
                    "time": 192.9999999999974,
                    "velocity": 0.7952755905511811,
                    "duration": 0.19374999999999432
                },
                {
                    "name": "C#6",
                    "midi": 85,
                    "time": 193.15833333333075,
                    "velocity": 0.84251968503937,
                    "duration": 0.07916666666665151
                },
                {
                    "name": "C#5",
                    "midi": 73,
                    "time": 193.16041666666408,
                    "velocity": 0.8503937007874016,
                    "duration": 0.06666666666666288
                },
                {
                    "name": "B3",
                    "midi": 59,
                    "time": 193.1624999999974,
                    "velocity": 0.7401574803149606,
                    "duration": 0.08749999999997726
                },
                {
                    "name": "E6",
                    "midi": 88,
                    "time": 193.3520833333307,
                    "velocity": 0.7795275590551181,
                    "duration": 0.3687500000000057
                },
                {
                    "name": "E5",
                    "midi": 76,
                    "time": 193.36041666666404,
                    "velocity": 0.6929133858267716,
                    "duration": 0.2770833333333371
                },
                {
                    "name": "D3",
                    "midi": 50,
                    "time": 193.3708333333307,
                    "velocity": 0.6456692913385826,
                    "duration": 0.23125000000001705
                },
                {
                    "name": "G#3",
                    "midi": 56,
                    "time": 193.57291666666404,
                    "velocity": 0.7559055118110236,
                    "duration": 0.22708333333332575
                },
                {
                    "name": "A#3",
                    "midi": 58,
                    "time": 193.7270833333307,
                    "velocity": 0.7637795275590551,
                    "duration": 0.18124999999997726
                },
                {
                    "name": "F5",
                    "midi": 77,
                    "time": 193.87291666666403,
                    "velocity": 0.7401574803149606,
                    "duration": 0.08750000000000568
                },
                {
                    "name": "F4",
                    "midi": 65,
                    "time": 193.88333333333068,
                    "velocity": 0.6929133858267716,
                    "duration": 0.26874999999998295
                },
                {
                    "name": "A#3",
                    "midi": 58,
                    "time": 194.09999999999735,
                    "velocity": 0.6220472440944882,
                    "duration": 0.20624999999998295
                },
                {
                    "name": "E6",
                    "midi": 88,
                    "time": 194.10624999999735,
                    "velocity": 0.8031496062992126,
                    "duration": 0.27916666666666856
                },
                {
                    "name": "E5",
                    "midi": 76,
                    "time": 194.12083333333067,
                    "velocity": 0.5984251968503937,
                    "duration": 0.3125000000000284
                },
                {
                    "name": "G#3",
                    "midi": 56,
                    "time": 194.27499999999733,
                    "velocity": 0.6771653543307087,
                    "duration": 0.08125000000001137
                },
                {
                    "name": "A2",
                    "midi": 45,
                    "time": 194.46666666666403,
                    "velocity": 0.7795275590551181,
                    "duration": 0.09583333333333144
                },
                {
                    "name": "D6",
                    "midi": 86,
                    "time": 194.6458333333307,
                    "velocity": 0.7795275590551181,
                    "duration": 0.07291666666665719
                },
                {
                    "name": "D5",
                    "midi": 74,
                    "time": 194.6520833333307,
                    "velocity": 0.6614173228346457,
                    "duration": 0.07083333333332575
                },
                {
                    "name": "A3",
                    "midi": 57,
                    "time": 194.68124999999736,
                    "velocity": 0.5826771653543307,
                    "duration": 0.15833333333330302
                },
                {
                    "name": "B3",
                    "midi": 59,
                    "time": 194.82708333333068,
                    "velocity": 0.6141732283464567,
                    "duration": 0.21041666666664582
                },
                {
                    "name": "B5",
                    "midi": 83,
                    "time": 194.87499999999733,
                    "velocity": 0.7874015748031497,
                    "duration": 0.07083333333332575
                },
                {
                    "name": "B4",
                    "midi": 71,
                    "time": 194.88541666666399,
                    "velocity": 0.6614173228346457,
                    "duration": 0.039583333333325754
                },
                {
                    "name": "F#4",
                    "midi": 66,
                    "time": 195.08749999999733,
                    "velocity": 0.5984251968503937,
                    "duration": 0.15833333333333144
                },
                {
                    "name": "B3",
                    "midi": 59,
                    "time": 195.272916666664,
                    "velocity": 0.48031496062992124,
                    "duration": 0.2770833333333087
                },
                {
                    "name": "F#5",
                    "midi": 78,
                    "time": 195.49374999999733,
                    "velocity": 0.7007874015748031,
                    "duration": 0.3312499999999545
                },
                {
                    "name": "F#4",
                    "midi": 66,
                    "time": 195.497916666664,
                    "velocity": 0.6062992125984252,
                    "duration": 0.09791666666663446
                },
                {
                    "name": "A3",
                    "midi": 57,
                    "time": 195.51041666666399,
                    "velocity": 0.4251968503937008,
                    "duration": 0.09791666666663446
                },
                {
                    "name": "B2",
                    "midi": 47,
                    "time": 195.84583333333063,
                    "velocity": 0.5354330708661418,
                    "duration": 0.2541666666666629
                },
                {
                    "name": "F#4",
                    "midi": 66,
                    "time": 195.86458333333064,
                    "velocity": 0.6929133858267716,
                    "duration": 0.42499999999998295
                },
                {
                    "name": "D5",
                    "midi": 74,
                    "time": 196.14374999999728,
                    "velocity": 0.5511811023622047,
                    "duration": 0.29374999999998863
                },
                {
                    "name": "F#3",
                    "midi": 54,
                    "time": 196.3437499999973,
                    "velocity": 0.47244094488188976,
                    "duration": 0.3083333333332803
                },
                {
                    "name": "F#5",
                    "midi": 78,
                    "time": 196.3499999999973,
                    "velocity": 0.7165354330708661,
                    "duration": 0.30208333333328596
                },
                {
                    "name": "D4",
                    "midi": 62,
                    "time": 196.36041666666395,
                    "velocity": 0.4094488188976378,
                    "duration": 0.20833333333331439
                },
                {
                    "name": "G4",
                    "midi": 67,
                    "time": 196.50624999999727,
                    "velocity": 0.7244094488188977,
                    "duration": 0.06874999999999432
                },
                {
                    "name": "G#4",
                    "midi": 68,
                    "time": 196.6770833333306,
                    "velocity": 0.8267716535433071,
                    "duration": 0.4062500000000284
                },
                {
                    "name": "D5",
                    "midi": 74,
                    "time": 196.84999999999727,
                    "velocity": 0.5590551181102362,
                    "duration": 0.21875000000002842
                },
                {
                    "name": "F#2",
                    "midi": 42,
                    "time": 196.97083333333063,
                    "velocity": 0.7637795275590551,
                    "duration": 0.07499999999998863
                },
                {
                    "name": "F#5",
                    "midi": 78,
                    "time": 197.02499999999728,
                    "velocity": 0.7322834645669292,
                    "duration": 0.2708333333333428
                },
                {
                    "name": "A4",
                    "midi": 69,
                    "time": 197.1520833333306,
                    "velocity": 0.7401574803149606,
                    "duration": 0.09375
                },
                {
                    "name": "D4",
                    "midi": 62,
                    "time": 197.32083333333063,
                    "velocity": 0.6771653543307087,
                    "duration": 0.21249999999997726
                },
                {
                    "name": "A#4",
                    "midi": 70,
                    "time": 197.32708333333062,
                    "velocity": 0.8582677165354331,
                    "duration": 0.44791666666662877
                },
                {
                    "name": "F#3",
                    "midi": 54,
                    "time": 197.33124999999728,
                    "velocity": 0.6141732283464567,
                    "duration": 0.3645833333333144
                },
                {
                    "name": "D5",
                    "midi": 74,
                    "time": 197.49374999999728,
                    "velocity": 0.6614173228346457,
                    "duration": 0.24791666666664014
                },
                {
                    "name": "F#5",
                    "midi": 78,
                    "time": 197.7083333333306,
                    "velocity": 0.7244094488188977,
                    "duration": 0.16041666666666288
                },
                {
                    "name": "D5",
                    "midi": 74,
                    "time": 197.85416666666393,
                    "velocity": 0.6456692913385826,
                    "duration": 0.12708333333333144
                },
                {
                    "name": "B2",
                    "midi": 47,
                    "time": 198.0416666666639,
                    "velocity": 0.6299212598425197,
                    "duration": 0.09166666666664014
                },
                {
                    "name": "F#5",
                    "midi": 78,
                    "time": 198.04999999999723,
                    "velocity": 0.7874015748031497,
                    "duration": 0.5187499999999545
                },
                {
                    "name": "D5",
                    "midi": 74,
                    "time": 198.2312499999972,
                    "velocity": 0.6220472440944882,
                    "duration": 0.29999999999998295
                },
                {
                    "name": "D4",
                    "midi": 62,
                    "time": 198.4249999999972,
                    "velocity": 0.5984251968503937,
                    "duration": 0.12916666666666288
                },
                {
                    "name": "F#3",
                    "midi": 54,
                    "time": 198.42916666666386,
                    "velocity": 0.5511811023622047,
                    "duration": 0.19166666666663446
                },
                {
                    "name": "B4",
                    "midi": 71,
                    "time": 198.43958333333052,
                    "velocity": 0.6299212598425197,
                    "duration": 0.12291666666666856
                },
                {
                    "name": "G5",
                    "midi": 79,
                    "time": 198.60624999999717,
                    "velocity": 0.6299212598425197,
                    "duration": 0.12291666666666856
                },
                {
                    "name": "D#5",
                    "midi": 75,
                    "time": 198.64374999999717,
                    "velocity": 0.6850393700787402,
                    "duration": 0.10833333333334849
                },
                {
                    "name": "C5",
                    "midi": 72,
                    "time": 198.64791666666383,
                    "velocity": 0.5826771653543307,
                    "duration": 0.11250000000001137
                },
                {
                    "name": "G#5",
                    "midi": 80,
                    "time": 198.83958333333052,
                    "velocity": 0.7952755905511811,
                    "duration": 0.6666666666666003
                },
                {
                    "name": "E5",
                    "midi": 76,
                    "time": 199.0312499999972,
                    "velocity": 0.6062992125984252,
                    "duration": 0.32499999999998863
                },
                {
                    "name": "C#5",
                    "midi": 73,
                    "time": 199.23541666666384,
                    "velocity": 0.5984251968503937,
                    "duration": 0.23749999999998295
                },
                {
                    "name": "F#2",
                    "midi": 42,
                    "time": 199.2583333333305,
                    "velocity": 0.41732283464566927,
                    "duration": 0.13958333333332007
                },
                {
                    "name": "A#5",
                    "midi": 82,
                    "time": 199.47708333333048,
                    "velocity": 0.6692913385826772,
                    "duration": 0.3083333333333087
                },
                {
                    "name": "F#5",
                    "midi": 78,
                    "time": 199.48958333333047,
                    "velocity": 0.44881889763779526,
                    "duration": 0.8729166666666686
                },
                {
                    "name": "D5",
                    "midi": 74,
                    "time": 199.49583333333047,
                    "velocity": 0.47244094488188976,
                    "duration": 0.7125000000000057
                },
                {
                    "name": "B5",
                    "midi": 83,
                    "time": 199.8479166666638,
                    "velocity": 0.5826771653543307,
                    "duration": 0.42500000000001137
                },
                {
                    "name": "B1",
                    "midi": 35,
                    "time": 199.86458333333047,
                    "velocity": 0.4566929133858268,
                    "duration": 0.35624999999998863
                },
                {
                    "name": "B2",
                    "midi": 47,
                    "time": 199.89374999999714,
                    "velocity": 0.14960629921259844,
                    "duration": 0.29583333333332007
                },
                {
                    "name": "B2",
                    "midi": 47,
                    "time": 201.0916666666638,
                    "velocity": 0.3464566929133858,
                    "duration": 0.21875
                },
                {
                    "name": "D6",
                    "midi": 86,
                    "time": 201.18749999999713,
                    "velocity": 0.6692913385826772,
                    "duration": 0.9041666666666686
                },
                {
                    "name": "F5",
                    "midi": 77,
                    "time": 201.53958333333046,
                    "velocity": 0.5511811023622047,
                    "duration": 0.28333333333333144
                },
                {
                    "name": "D5",
                    "midi": 74,
                    "time": 201.78333333333046,
                    "velocity": 0.44881889763779526,
                    "duration": 0.45208333333332007
                },
                {
                    "name": "F4",
                    "midi": 65,
                    "time": 201.79374999999712,
                    "velocity": 0.4881889763779528,
                    "duration": 0.3645833333333428
                },
                {
                    "name": "F#5",
                    "midi": 78,
                    "time": 201.99583333333047,
                    "velocity": 0.5354330708661418,
                    "duration": 0.16874999999998863
                },
                {
                    "name": "D6",
                    "midi": 86,
                    "time": 202.18749999999713,
                    "velocity": 0.8503937007874016,
                    "duration": 0.6187499999999773
                },
                {
                    "name": "F#4",
                    "midi": 66,
                    "time": 202.19583333333046,
                    "velocity": 0.6692913385826772,
                    "duration": 0.04791666666665151
                },
                {
                    "name": "F#5",
                    "midi": 78,
                    "time": 202.38749999999712,
                    "velocity": 0.6456692913385826,
                    "duration": 0.27499999999997726
                },
                {
                    "name": "E2",
                    "midi": 40,
                    "time": 202.57708333333045,
                    "velocity": 0.8031496062992126,
                    "duration": 0.1208333333333087
                },
                {
                    "name": "D5",
                    "midi": 74,
                    "time": 202.58958333333044,
                    "velocity": 0.6220472440944882,
                    "duration": 0.4749999999999943
                },
                {
                    "name": "G5",
                    "midi": 79,
                    "time": 202.7874999999971,
                    "velocity": 0.6771653543307087,
                    "duration": 0.3187499999999943
                },
                {
                    "name": "G4",
                    "midi": 67,
                    "time": 203.0374999999971,
                    "velocity": 0.6614173228346457,
                    "duration": 0.08333333333331439
                },
                {
                    "name": "C#6",
                    "midi": 85,
                    "time": 203.03958333333043,
                    "velocity": 0.84251968503937,
                    "duration": 0.09999999999999432
                },
                {
                    "name": "B5",
                    "midi": 83,
                    "time": 203.54583333333042,
                    "velocity": 0.6535433070866141,
                    "duration": 0.35208333333332575
                },
                {
                    "name": "G#5",
                    "midi": 80,
                    "time": 203.54791666666375,
                    "velocity": 0.6062992125984252,
                    "duration": 0.42083333333332007
                },
                {
                    "name": "G#4",
                    "midi": 68,
                    "time": 203.56458333333043,
                    "velocity": 0.5669291338582677,
                    "duration": 0.1666666666666572
                },
                {
                    "name": "D#5",
                    "midi": 75,
                    "time": 203.56666666666376,
                    "velocity": 0.4881889763779528,
                    "duration": 0.3437499999999716
                },
                {
                    "name": "C5",
                    "midi": 72,
                    "time": 203.5749999999971,
                    "velocity": 0.4566929133858268,
                    "duration": 0.46249999999997726
                },
                {
                    "name": "A2",
                    "midi": 45,
                    "time": 204.12291666666374,
                    "velocity": 0.5590551181102362,
                    "duration": 0.43958333333333144
                },
                {
                    "name": "B5",
                    "midi": 83,
                    "time": 204.19791666666373,
                    "velocity": 0.6377952755905512,
                    "duration": 0.7812499999999716
                },
                {
                    "name": "E3",
                    "midi": 52,
                    "time": 204.41666666666373,
                    "velocity": 0.4094488188976378,
                    "duration": 0.20625000000001137
                },
                {
                    "name": "A3",
                    "midi": 57,
                    "time": 204.62916666666374,
                    "velocity": 0.47244094488188976,
                    "duration": 0.08124999999998295
                },
                {
                    "name": "E5",
                    "midi": 76,
                    "time": 204.66874999999706,
                    "velocity": 0.5590551181102362,
                    "duration": 0.38958333333329165
                },
                {
                    "name": "C5",
                    "midi": 72,
                    "time": 204.67499999999706,
                    "velocity": 0.49606299212598426,
                    "duration": 0.3291666666666231
                },
                {
                    "name": "C4",
                    "midi": 60,
                    "time": 204.7854166666637,
                    "velocity": 0.7165354330708661,
                    "duration": 0.2249999999999659
                },
                {
                    "name": "A5",
                    "midi": 81,
                    "time": 204.9916666666637,
                    "velocity": 0.7637795275590551,
                    "duration": 0.25
                },
                {
                    "name": "E4",
                    "midi": 64,
                    "time": 204.9916666666637,
                    "velocity": 0.5433070866141733,
                    "duration": 0.1354166666666572
                },
                {
                    "name": "A4",
                    "midi": 69,
                    "time": 205.12708333333035,
                    "velocity": 0.5984251968503937,
                    "duration": 0.19583333333332575
                },
                {
                    "name": "B4",
                    "midi": 71,
                    "time": 205.31249999999702,
                    "velocity": 0.5511811023622047,
                    "duration": 0.17083333333332007
                },
                {
                    "name": "C5",
                    "midi": 72,
                    "time": 205.481249999997,
                    "velocity": 0.5905511811023622,
                    "duration": 0.08750000000000568
                },
                {
                    "name": "D#5",
                    "midi": 75,
                    "time": 205.69583333333034,
                    "velocity": 0.7165354330708661,
                    "duration": 0.15208333333333712
                },
                {
                    "name": "E5",
                    "midi": 76,
                    "time": 205.84791666666368,
                    "velocity": 0.6377952755905512,
                    "duration": 0.3166666666666629
                },
                {
                    "name": "G#5",
                    "midi": 80,
                    "time": 206.074999999997,
                    "velocity": 0.6535433070866141,
                    "duration": 0.18125000000000568
                },
                {
                    "name": "A5",
                    "midi": 81,
                    "time": 206.24999999999702,
                    "velocity": 0.49606299212598426,
                    "duration": 0.2249999999999659
                },
                {
                    "name": "A2",
                    "midi": 45,
                    "time": 206.45416666666367,
                    "velocity": 0.5275590551181102,
                    "duration": 0.16249999999999432
                },
                {
                    "name": "C6",
                    "midi": 84,
                    "time": 206.50416666666365,
                    "velocity": 0.6535433070866141,
                    "duration": 0.4416666666666913
                },
                {
                    "name": "D#5",
                    "midi": 75,
                    "time": 206.79791666666367,
                    "velocity": 0.4094488188976378,
                    "duration": 0.310416666666697
                },
                {
                    "name": "D#4",
                    "midi": 63,
                    "time": 207.02499999999702,
                    "velocity": 0.5984251968503937,
                    "duration": 0.341666666666697
                },
                {
                    "name": "C5",
                    "midi": 72,
                    "time": 207.04999999999703,
                    "velocity": 0.5354330708661418,
                    "duration": 0.25625000000002274
                },
                {
                    "name": "E5",
                    "midi": 76,
                    "time": 207.22708333333037,
                    "velocity": 0.6929133858267716,
                    "duration": 0.12291666666666856
                },
                {
                    "name": "C6",
                    "midi": 84,
                    "time": 207.3958333333304,
                    "velocity": 0.8503937007874016,
                    "duration": 0.6479166666666174
                },
                {
                    "name": "E4",
                    "midi": 64,
                    "time": 207.4104166666637,
                    "velocity": 0.6850393700787402,
                    "duration": 0.04583333333332007
                },
                {
                    "name": "E5",
                    "midi": 76,
                    "time": 207.5791666666637,
                    "velocity": 0.7401574803149606,
                    "duration": 0.2562499999999659
                },
                {
                    "name": "D2",
                    "midi": 38,
                    "time": 207.78958333333034,
                    "velocity": 0.8031496062992126,
                    "duration": 0.11249999999998295
                },
                {
                    "name": "C5",
                    "midi": 72,
                    "time": 207.79583333333034,
                    "velocity": 0.6850393700787402,
                    "duration": 0.502083333333303
                },
                {
                    "name": "F5",
                    "midi": 77,
                    "time": 207.98958333333033,
                    "velocity": 0.6771653543307087,
                    "duration": 0.34166666666664014
                },
                {
                    "name": "B5",
                    "midi": 83,
                    "time": 208.24166666666366,
                    "velocity": 0.8110236220472441,
                    "duration": 0.1208333333333087
                },
                {
                    "name": "F4",
                    "midi": 65,
                    "time": 208.25208333333032,
                    "velocity": 0.6771653543307087,
                    "duration": 0.07916666666665151
                },
                {
                    "name": "A5",
                    "midi": 81,
                    "time": 208.76874999999697,
                    "velocity": 0.5511811023622047,
                    "duration": 0.3291666666666231
                },
                {
                    "name": "F#4",
                    "midi": 66,
                    "time": 208.7833333333303,
                    "velocity": 0.5669291338582677,
                    "duration": 0.20624999999998295
                },
                {
                    "name": "F#5",
                    "midi": 78,
                    "time": 208.7979166666636,
                    "velocity": 0.5196850393700787,
                    "duration": 0.4437499999999943
                },
                {
                    "name": "C#5",
                    "midi": 73,
                    "time": 208.8145833333303,
                    "velocity": 0.5433070866141733,
                    "duration": 0.29999999999998295
                },
                {
                    "name": "A#4",
                    "midi": 70,
                    "time": 208.82083333333028,
                    "velocity": 0.2677165354330709,
                    "duration": 0.23958333333331439
                },
                {
                    "name": "G2",
                    "midi": 43,
                    "time": 209.4291666666636,
                    "velocity": 0.5984251968503937,
                    "duration": 0.4312500000000057
                },
                {
                    "name": "A5",
                    "midi": 81,
                    "time": 209.46249999999694,
                    "velocity": 0.5354330708661418,
                    "duration": 0.8333333333333144
                },
                {
                    "name": "D3",
                    "midi": 50,
                    "time": 209.71874999999693,
                    "velocity": 0.4409448818897638,
                    "duration": 0.21041666666667425
                },
                {
                    "name": "A#4",
                    "midi": 70,
                    "time": 209.93958333333026,
                    "velocity": 0.4094488188976378,
                    "duration": 0.19374999999999432
                },
                {
                    "name": "D5",
                    "midi": 74,
                    "time": 209.9479166666636,
                    "velocity": 0.4015748031496063,
                    "duration": 0.5458333333333201
                },
                {
                    "name": "G3",
                    "midi": 55,
                    "time": 209.9666666666636,
                    "velocity": 0.28346456692913385,
                    "duration": 0.15625
                },
                {
                    "name": "A#3",
                    "midi": 58,
                    "time": 210.10624999999692,
                    "velocity": 0.4015748031496063,
                    "duration": 0.2291666666666572
                },
                {
                    "name": "G5",
                    "midi": 79,
                    "time": 210.3166666666636,
                    "velocity": 0.4330708661417323,
                    "duration": 0.26041666666662877
                },
                {
                    "name": "D4",
                    "midi": 62,
                    "time": 210.3229166666636,
                    "velocity": 0.5275590551181102,
                    "duration": 0.14374999999998295
                },
                {
                    "name": "G4",
                    "midi": 67,
                    "time": 210.50416666666356,
                    "velocity": 0.33858267716535434,
                    "duration": 0.17708333333331439
                },
                {
                    "name": "A4",
                    "midi": 69,
                    "time": 210.69166666666354,
                    "velocity": 0.44881889763779526,
                    "duration": 0.18125000000000568
                },
                {
                    "name": "A#4",
                    "midi": 70,
                    "time": 210.86874999999688,
                    "velocity": 0.5275590551181102,
                    "duration": 0.19583333333332575
                },
                {
                    "name": "C#5",
                    "midi": 73,
                    "time": 211.06874999999687,
                    "velocity": 0.6141732283464567,
                    "duration": 0.15625
                },
                {
                    "name": "D5",
                    "midi": 74,
                    "time": 211.2395833333302,
                    "velocity": 0.5354330708661418,
                    "duration": 0.38333333333332575
                },
                {
                    "name": "F#5",
                    "midi": 78,
                    "time": 211.46874999999685,
                    "velocity": 0.5433070866141733,
                    "duration": 0.22291666666666288
                },
                {
                    "name": "G5",
                    "midi": 79,
                    "time": 211.6979166666635,
                    "velocity": 0.36220472440944884,
                    "duration": 0.3499999999999943
                },
                {
                    "name": "G2",
                    "midi": 43,
                    "time": 211.96874999999685,
                    "velocity": 0.44881889763779526,
                    "duration": 0.2041666666666515
                },
                {
                    "name": "A#5",
                    "midi": 82,
                    "time": 212.01249999999683,
                    "velocity": 0.5669291338582677,
                    "duration": 0.5479166666666515
                },
                {
                    "name": "C#5",
                    "midi": 73,
                    "time": 212.31041666666349,
                    "velocity": 0.5118110236220472,
                    "duration": 0.28958333333332575
                },
                {
                    "name": "C#4",
                    "midi": 61,
                    "time": 212.56041666666349,
                    "velocity": 0.6299212598425197,
                    "duration": 0.3812499999999659
                },
                {
                    "name": "A#4",
                    "midi": 70,
                    "time": 212.56458333333015,
                    "velocity": 0.5511811023622047,
                    "duration": 0.28958333333332575
                },
                {
                    "name": "D5",
                    "midi": 74,
                    "time": 212.74583333333015,
                    "velocity": 0.6377952755905512,
                    "duration": 0.2104166666666174
                },
                {
                    "name": "A#5",
                    "midi": 82,
                    "time": 212.92916666666346,
                    "velocity": 0.84251968503937,
                    "duration": 0.6249999999999147
                },
                {
                    "name": "D4",
                    "midi": 62,
                    "time": 212.93333333333013,
                    "velocity": 0.7322834645669292,
                    "duration": 0.09374999999997158
                },
                {
                    "name": "D5",
                    "midi": 74,
                    "time": 213.09166666666343,
                    "velocity": 0.7244094488188977,
                    "duration": 0.29166666666662877
                },
                {
                    "name": "A#4",
                    "midi": 70,
                    "time": 213.2979166666634,
                    "velocity": 0.6929133858267716,
                    "duration": 0.3916666666666231
                },
                {
                    "name": "G2",
                    "midi": 43,
                    "time": 213.3041666666634,
                    "velocity": 0.8346456692913385,
                    "duration": 0.10208333333332575
                },
                {
                    "name": "D#5",
                    "midi": 75,
                    "time": 213.51458333333005,
                    "velocity": 0.5748031496062992,
                    "duration": 0.18124999999997726
                },
                {
                    "name": "A#5",
                    "midi": 82,
                    "time": 213.73958333333002,
                    "velocity": 0.8110236220472441,
                    "duration": 0.14999999999997726
                },
                {
                    "name": "D#4",
                    "midi": 63,
                    "time": 213.75416666666334,
                    "velocity": 0.8503937007874016,
                    "duration": 0.5666666666666629
                },
                {
                    "name": "A#5",
                    "midi": 82,
                    "time": 214.24999999999667,
                    "velocity": 0.8110236220472441,
                    "duration": 0.48750000000001137
                },
                {
                    "name": "E4",
                    "midi": 64,
                    "time": 214.2687499999967,
                    "velocity": 0.7559055118110236,
                    "duration": 0.25833333333332575
                },
                {
                    "name": "E5",
                    "midi": 76,
                    "time": 214.27916666666334,
                    "velocity": 0.6141732283464567,
                    "duration": 0.7854166666666913
                },
                {
                    "name": "D5",
                    "midi": 74,
                    "time": 214.28333333333,
                    "velocity": 0.5354330708661418,
                    "duration": 0.7208333333333599
                },
                {
                    "name": "A#4",
                    "midi": 70,
                    "time": 214.28541666666334,
                    "velocity": 0.49606299212598426,
                    "duration": 1.3000000000000398
                },
                {
                    "name": "G#2",
                    "midi": 44,
                    "time": 214.86874999999668,
                    "velocity": 0.6771653543307087,
                    "duration": 0.5541666666666742
                },
                {
                    "name": "A#5",
                    "midi": 82,
                    "time": 214.94791666666336,
                    "velocity": 0.7086614173228346,
                    "duration": 0.43958333333333144
                },
                {
                    "name": "G5",
                    "midi": 79,
                    "time": 214.9749999999967,
                    "velocity": 0.5590551181102362,
                    "duration": 0.6437500000000114
                },
                {
                    "name": "E3",
                    "midi": 52,
                    "time": 215.31041666666337,
                    "velocity": 0.3228346456692913,
                    "duration": 0.19999999999998863
                },
                {
                    "name": "F3",
                    "midi": 53,
                    "time": 215.52708333333004,
                    "velocity": 0.5118110236220472,
                    "duration": 0.17916666666667425
                },
                {
                    "name": "G#3",
                    "midi": 56,
                    "time": 215.6874999999967,
                    "velocity": 0.6771653543307087,
                    "duration": 0.24374999999997726
                },
                {
                    "name": "C4",
                    "midi": 60,
                    "time": 215.88124999999673,
                    "velocity": 0.5669291338582677,
                    "duration": 0.18333333333328028
                },
                {
                    "name": "G#5",
                    "midi": 80,
                    "time": 215.89583333333005,
                    "velocity": 0.7480314960629921,
                    "duration": 0.520833333333286
                },
                {
                    "name": "G#4",
                    "midi": 68,
                    "time": 215.90208333333004,
                    "velocity": 0.6771653543307087,
                    "duration": 0.3083333333332803
                },
                {
                    "name": "F5",
                    "midi": 77,
                    "time": 215.91666666666336,
                    "velocity": 0.5984251968503937,
                    "duration": 0.36874999999994884
                },
                {
                    "name": "F4",
                    "midi": 65,
                    "time": 216.09166666666334,
                    "velocity": 0.5433070866141733,
                    "duration": 0.07499999999998863
                },
                {
                    "name": "F2",
                    "midi": 41,
                    "time": 216.39791666666332,
                    "velocity": 0.7637795275590551,
                    "duration": 0.24791666666664014
                },
                {
                    "name": "D#4",
                    "midi": 63,
                    "time": 216.9604166666633,
                    "velocity": 0.4645669291338583,
                    "duration": 0.6562500000000284
                },
                {
                    "name": "B4",
                    "midi": 71,
                    "time": 217.0541666666633,
                    "velocity": 0.5039370078740157,
                    "duration": 0.25208333333335986
                },
                {
                    "name": "G#4",
                    "midi": 68,
                    "time": 217.0729166666633,
                    "velocity": 0.4251968503937008,
                    "duration": 0.46041666666667425
                },
                {
                    "name": "D#5",
                    "midi": 75,
                    "time": 217.09999999999664,
                    "velocity": 0.48031496062992124,
                    "duration": 0.34166666666666856
                },
                {
                    "name": "A#5",
                    "midi": 82,
                    "time": 217.18749999999665,
                    "velocity": 0.6299212598425197,
                    "duration": 0.59375
                },
                {
                    "name": "G#5",
                    "midi": 80,
                    "time": 217.71458333332998,
                    "velocity": 0.6535433070866141,
                    "duration": 0.29583333333332007
                },
                {
                    "name": "A#2",
                    "midi": 46,
                    "time": 218.15416666666331,
                    "velocity": 0.5118110236220472,
                    "duration": 0.2291666666666572
                },
                {
                    "name": "G5",
                    "midi": 79,
                    "time": 218.22499999999664,
                    "velocity": 0.5511811023622047,
                    "duration": 0.3083333333333371
                },
                {
                    "name": "B3",
                    "midi": 59,
                    "time": 218.80416666666332,
                    "velocity": 0.3937007874015748,
                    "duration": 0.38749999999998863
                },
                {
                    "name": "G#4",
                    "midi": 68,
                    "time": 218.80624999999665,
                    "velocity": 0.3937007874015748,
                    "duration": 0.41874999999998863
                },
                {
                    "name": "E4",
                    "midi": 64,
                    "time": 218.81874999999664,
                    "velocity": 0.33070866141732286,
                    "duration": 0.4104166666666629
                },
                {
                    "name": "B4",
                    "midi": 71,
                    "time": 218.99791666666331,
                    "velocity": 0.6692913385826772,
                    "duration": 0.18333333333333712
                },
                {
                    "name": "G5",
                    "midi": 79,
                    "time": 219.21666666666331,
                    "velocity": 0.7244094488188977,
                    "duration": 0.612499999999983
                },
                {
                    "name": "C4",
                    "midi": 60,
                    "time": 219.22499999999664,
                    "velocity": 0.5433070866141733,
                    "duration": 0.04583333333332007
                },
                {
                    "name": "A#2",
                    "midi": 46,
                    "time": 219.5791666666633,
                    "velocity": 0.7401574803149606,
                    "duration": 0.06874999999999432
                },
                {
                    "name": "C5",
                    "midi": 72,
                    "time": 219.74374999999662,
                    "velocity": 0.7637795275590551,
                    "duration": 0.2750000000000341
                },
                {
                    "name": "G5",
                    "midi": 79,
                    "time": 219.9541666666633,
                    "velocity": 0.7874015748031497,
                    "duration": 0.4145833333333542
                },
                {
                    "name": "G#4",
                    "midi": 68,
                    "time": 219.9729166666633,
                    "velocity": 0.6535433070866141,
                    "duration": 0.3645833333333428
                },
                {
                    "name": "E4",
                    "midi": 64,
                    "time": 219.98958333333,
                    "velocity": 0.5433070866141733,
                    "duration": 0.36666666666667425
                },
                {
                    "name": "C4",
                    "midi": 60,
                    "time": 219.99166666666332,
                    "velocity": 0.5905511811023622,
                    "duration": 0.38333333333332575
                },
                {
                    "name": "C#4",
                    "midi": 61,
                    "time": 220.32708333333,
                    "velocity": 0.8188976377952756,
                    "duration": 0.07499999999998863
                },
                {
                    "name": "C#5",
                    "midi": 73,
                    "time": 220.48541666666333,
                    "velocity": 0.84251968503937,
                    "duration": 0.18958333333330302
                },
                {
                    "name": "A#2",
                    "midi": 46,
                    "time": 220.7041666666633,
                    "velocity": 0.7559055118110236,
                    "duration": 0.08333333333334281
                },
                {
                    "name": "G5",
                    "midi": 79,
                    "time": 220.7291666666633,
                    "velocity": 0.8503937007874016,
                    "duration": 0.45416666666667993
                },
                {
                    "name": "A#4",
                    "midi": 70,
                    "time": 221.20208333333,
                    "velocity": 0.5826771653543307,
                    "duration": 0.3645833333333428
                },
                {
                    "name": "G#4",
                    "midi": 68,
                    "time": 221.21249999999665,
                    "velocity": 0.5984251968503937,
                    "duration": 0.36250000000001137
                },
                {
                    "name": "C#4",
                    "midi": 61,
                    "time": 221.22916666666333,
                    "velocity": 0.5984251968503937,
                    "duration": 0.34375
                },
                {
                    "name": "D5",
                    "midi": 74,
                    "time": 221.40208333333,
                    "velocity": 0.7952755905511811,
                    "duration": 0.22708333333329733
                },
                {
                    "name": "G5",
                    "midi": 79,
                    "time": 221.56874999999667,
                    "velocity": 0.84251968503937,
                    "duration": 0.25416666666663446
                },
                {
                    "name": "D4",
                    "midi": 62,
                    "time": 221.57499999999666,
                    "velocity": 0.6614173228346457,
                    "duration": 0.039583333333325754
                },
                {
                    "name": "D5",
                    "midi": 74,
                    "time": 221.7291666666633,
                    "velocity": 0.8346456692913385,
                    "duration": 0.25416666666663446
                },
                {
                    "name": "D#2",
                    "midi": 39,
                    "time": 221.9166666666633,
                    "velocity": 0.7559055118110236,
                    "duration": 0.23333333333332007
                },
                {
                    "name": "D#5",
                    "midi": 75,
                    "time": 221.93749999999662,
                    "velocity": 0.8976377952755905,
                    "duration": 0.8708333333333371
                },
                {
                    "name": "A#2",
                    "midi": 46,
                    "time": 222.10208333332994,
                    "velocity": 0.7637795275590551,
                    "duration": 0.28333333333333144
                },
                {
                    "name": "D#3",
                    "midi": 51,
                    "time": 222.31666666666328,
                    "velocity": 0.8267716535433071,
                    "duration": 0.19583333333332575
                },
                {
                    "name": "G3",
                    "midi": 55,
                    "time": 222.49999999999662,
                    "velocity": 0.7952755905511811,
                    "duration": 0.24375000000000568
                },
                {
                    "name": "A#3",
                    "midi": 58,
                    "time": 222.6937499999966,
                    "velocity": 0.8582677165354331,
                    "duration": 0.19791666666668561
                },
                {
                    "name": "D#4",
                    "midi": 63,
                    "time": 222.88749999999663,
                    "velocity": 0.905511811023622,
                    "duration": 0.06666666666666288
                },
                {
                    "name": "C2",
                    "midi": 36,
                    "time": 223.26458333332994,
                    "velocity": 0.9291338582677166,
                    "duration": 0.20625000000001137
                },
                {
                    "name": "D#6",
                    "midi": 87,
                    "time": 223.2874999999966,
                    "velocity": 0.8976377952755905,
                    "duration": 0.46666666666666856
                },
                {
                    "name": "D#5",
                    "midi": 75,
                    "time": 223.28958333332994,
                    "velocity": 0.889763779527559,
                    "duration": 0.512500000000017
                },
                {
                    "name": "G3",
                    "midi": 55,
                    "time": 223.8416666666633,
                    "velocity": 0.6377952755905512,
                    "duration": 0.37291666666664014
                },
                {
                    "name": "D#4",
                    "midi": 63,
                    "time": 223.85208333332994,
                    "velocity": 0.8110236220472441,
                    "duration": 0.4020833333333087
                },
                {
                    "name": "G5",
                    "midi": 79,
                    "time": 224.0374999999966,
                    "velocity": 0.8110236220472441,
                    "duration": 0.5291666666666401
                },
                {
                    "name": "D4",
                    "midi": 62,
                    "time": 224.20208333332994,
                    "velocity": 0.84251968503937,
                    "duration": 0.07499999999998863
                },
                {
                    "name": "D6",
                    "midi": 86,
                    "time": 224.2062499999966,
                    "velocity": 0.8976377952755905,
                    "duration": 0.5583333333332803
                },
                {
                    "name": "D5",
                    "midi": 74,
                    "time": 224.21041666666326,
                    "velocity": 0.8503937007874016,
                    "duration": 0.47708333333329733
                },
                {
                    "name": "E1",
                    "midi": 28,
                    "time": 224.59791666666325,
                    "velocity": 0.7244094488188977,
                    "duration": 0.06249999999997158
                },
                {
                    "name": "E2",
                    "midi": 40,
                    "time": 224.61249999999657,
                    "velocity": 0.8976377952755905,
                    "duration": 0.07499999999998863
                },
                {
                    "name": "F1",
                    "midi": 29,
                    "time": 224.64791666666324,
                    "velocity": 0.4330708661417323,
                    "duration": 0.04999999999998295
                },
                {
                    "name": "G#5",
                    "midi": 80,
                    "time": 224.7729166666632,
                    "velocity": 0.8582677165354331,
                    "duration": 0.22083333333330302
                },
                {
                    "name": "D4",
                    "midi": 62,
                    "time": 224.9541666666632,
                    "velocity": 0.6614173228346457,
                    "duration": 0.44166666666660603
                },
                {
                    "name": "C#4",
                    "midi": 61,
                    "time": 224.96249999999654,
                    "velocity": 0.6062992125984252,
                    "duration": 0.23749999999995453
                },
                {
                    "name": "C#6",
                    "midi": 85,
                    "time": 224.9666666666632,
                    "velocity": 0.905511811023622,
                    "duration": 0.10208333333329733
                },
                {
                    "name": "C#5",
                    "midi": 73,
                    "time": 224.97083333332986,
                    "velocity": 0.905511811023622,
                    "duration": 0.0687499999999659
                },
                {
                    "name": "G#3",
                    "midi": 56,
                    "time": 224.98541666666318,
                    "velocity": 0.4094488188976378,
                    "duration": 0.44791666666662877
                },
                {
                    "name": "B3",
                    "midi": 59,
                    "time": 225.3499999999965,
                    "velocity": 0.8188976377952756,
                    "duration": 0.07708333333332007
                },
                {
                    "name": "B5",
                    "midi": 83,
                    "time": 225.35833333332982,
                    "velocity": 0.7637795275590551,
                    "duration": 0.10624999999998863
                },
                {
                    "name": "B4",
                    "midi": 71,
                    "time": 225.36458333332982,
                    "velocity": 0.8031496062992126,
                    "duration": 0.07708333333332007
                },
                {
                    "name": "A1",
                    "midi": 33,
                    "time": 225.71041666666315,
                    "velocity": 0.8976377952755905,
                    "duration": 0.25833333333329733
                },
                {
                    "name": "B5",
                    "midi": 83,
                    "time": 225.7145833333298,
                    "velocity": 0.84251968503937,
                    "duration": 0.439583333333303
                },
                {
                    "name": "B4",
                    "midi": 71,
                    "time": 225.72499999999647,
                    "velocity": 0.7637795275590551,
                    "duration": 0.4604166666666458
                },
                {
                    "name": "E5",
                    "midi": 76,
                    "time": 225.7270833333298,
                    "velocity": 0.7795275590551181,
                    "duration": 1.270833333333286
                },
                {
                    "name": "C5",
                    "midi": 72,
                    "time": 225.7270833333298,
                    "velocity": 0.7952755905511811,
                    "duration": 0.4479166666666572
                },
                {
                    "name": "A2",
                    "midi": 45,
                    "time": 225.98333333332977,
                    "velocity": 0.6220472440944882,
                    "duration": 0.08750000000000568
                },
                {
                    "name": "E3",
                    "midi": 52,
                    "time": 226.1916666666631,
                    "velocity": 0.7716535433070866,
                    "duration": 0.26874999999998295
                },
                {
                    "name": "A3",
                    "midi": 57,
                    "time": 226.36249999999643,
                    "velocity": 0.7716535433070866,
                    "duration": 0.13958333333332007
                },
                {
                    "name": "A5",
                    "midi": 81,
                    "time": 226.50833333332974,
                    "velocity": 0.8031496062992126,
                    "duration": 0.5145833333333201
                },
                {
                    "name": "A4",
                    "midi": 69,
                    "time": 226.52083333332973,
                    "velocity": 0.6692913385826772,
                    "duration": 0.3895833333333485
                },
                {
                    "name": "C4",
                    "midi": 60,
                    "time": 226.54583333332974,
                    "velocity": 0.7401574803149606,
                    "duration": 0.13333333333332575
                },
                {
                    "name": "E4",
                    "midi": 64,
                    "time": 226.6812499999964,
                    "velocity": 0.7874015748031497,
                    "duration": 0.15000000000000568
                },
                {
                    "name": "A4",
                    "midi": 69,
                    "time": 226.91041666666308,
                    "velocity": 0.5354330708661418,
                    "duration": 0.09999999999999432
                },
                {
                    "name": "C5",
                    "midi": 72,
                    "time": 227.07083333332974,
                    "velocity": 0.6377952755905512,
                    "duration": 0.09375
                },
                {
                    "name": "D#5",
                    "midi": 75,
                    "time": 227.30208333332973,
                    "velocity": 0.7480314960629921,
                    "duration": 0.18333333333333712
                },
                {
                    "name": "E5",
                    "midi": 76,
                    "time": 227.4562499999964,
                    "velocity": 0.7716535433070866,
                    "duration": 0.28125
                },
                {
                    "name": "G#5",
                    "midi": 80,
                    "time": 227.66458333332974,
                    "velocity": 0.84251968503937,
                    "duration": 0.2333333333333485
                },
                {
                    "name": "A5",
                    "midi": 81,
                    "time": 227.8187499999964,
                    "velocity": 0.8031496062992126,
                    "duration": 0.27291666666667425
                },
                {
                    "name": "A1",
                    "midi": 33,
                    "time": 228.00208333332975,
                    "velocity": 0.8582677165354331,
                    "duration": 0.17916666666664582
                },
                {
                    "name": "C6",
                    "midi": 84,
                    "time": 228.10416666666308,
                    "velocity": 0.8503937007874016,
                    "duration": 0.33124999999998295
                },
                {
                    "name": "C5",
                    "midi": 72,
                    "time": 228.11458333332973,
                    "velocity": 0.7952755905511811,
                    "duration": 0.4437499999999943
                },
                {
                    "name": "C4",
                    "midi": 60,
                    "time": 228.56874999999638,
                    "velocity": 0.8740157480314961,
                    "duration": 0.3333333333333428
                },
                {
                    "name": "E3",
                    "midi": 52,
                    "time": 228.56874999999638,
                    "velocity": 0.8503937007874016,
                    "duration": 0.4062500000000284
                },
                {
                    "name": "E5",
                    "midi": 76,
                    "time": 228.69791666666305,
                    "velocity": 0.8818897637795275,
                    "duration": 0.30208333333337123
                },
                {
                    "name": "B5",
                    "midi": 83,
                    "time": 228.72499999999638,
                    "velocity": 0.5905511811023622,
                    "duration": 0.07916666666667993
                },
                {
                    "name": "B5",
                    "midi": 83,
                    "time": 228.88958333332974,
                    "velocity": 0.84251968503937,
                    "duration": 0.512500000000017
                },
                {
                    "name": "B4",
                    "midi": 71,
                    "time": 228.89583333332973,
                    "velocity": 0.8818897637795275,
                    "duration": 0.47500000000002274
                },
                {
                    "name": "B3",
                    "midi": 59,
                    "time": 228.90833333332972,
                    "velocity": 0.8503937007874016,
                    "duration": 0.04791666666667993
                },
                {
                    "name": "C#1",
                    "midi": 25,
                    "time": 229.24374999999642,
                    "velocity": 0.9291338582677166,
                    "duration": 0.08541666666667425
                },
                {
                    "name": "F5",
                    "midi": 77,
                    "time": 229.42708333332976,
                    "velocity": 0.7795275590551181,
                    "duration": 0.09375
                },
                {
                    "name": "A#5",
                    "midi": 82,
                    "time": 229.68124999999642,
                    "velocity": 0.8661417322834646,
                    "duration": 0.08125000000001137
                },
                {
                    "name": "A#4",
                    "midi": 70,
                    "time": 229.6854166666631,
                    "velocity": 0.937007874015748,
                    "duration": 0.06041666666666856
                },
                {
                    "name": "A#3",
                    "midi": 58,
                    "time": 229.68749999999642,
                    "velocity": 0.6929133858267716,
                    "duration": 0.43958333333335986
                },
                {
                    "name": "B3",
                    "midi": 59,
                    "time": 229.70833333332976,
                    "velocity": 0.4881889763779528,
                    "duration": 0.5666666666666629
                },
                {
                    "name": "F3",
                    "midi": 53,
                    "time": 229.7104166666631,
                    "velocity": 0.5511811023622047,
                    "duration": 0.5604166666666686
                },
                {
                    "name": "G#3",
                    "midi": 56,
                    "time": 230.23124999999644,
                    "velocity": 0.8188976377952756,
                    "duration": 0.07708333333332007
                },
                {
                    "name": "G#5",
                    "midi": 80,
                    "time": 230.23958333332976,
                    "velocity": 0.8346456692913385,
                    "duration": 0.12499999999997158
                },
                {
                    "name": "G#4",
                    "midi": 68,
                    "time": 230.24374999999642,
                    "velocity": 0.8267716535433071,
                    "duration": 0.07916666666665151
                },
                {
                    "name": "F5",
                    "midi": 77,
                    "time": 230.25416666666308,
                    "velocity": 0.7007874015748031,
                    "duration": 0.09999999999999432
                },
                {
                    "name": "F#1",
                    "midi": 30,
                    "time": 230.72083333332972,
                    "velocity": 0.8661417322834646,
                    "duration": 0.3395833333333087
                },
                {
                    "name": "A4",
                    "midi": 69,
                    "time": 230.83749999999637,
                    "velocity": 0.8661417322834646,
                    "duration": 0.1875
                },
                {
                    "name": "G#5",
                    "midi": 80,
                    "time": 230.83749999999637,
                    "velocity": 0.8818897637795275,
                    "duration": 0.5270833333333087
                },
                {
                    "name": "G#4",
                    "midi": 68,
                    "time": 230.84374999999636,
                    "velocity": 0.8661417322834646,
                    "duration": 0.5666666666666345
                },
                {
                    "name": "C#5",
                    "midi": 73,
                    "time": 230.8520833333297,
                    "velocity": 0.7716535433070866,
                    "duration": 1.1729166666665947
                },
                {
                    "name": "F#2",
                    "midi": 42,
                    "time": 231.05416666666304,
                    "velocity": 0.7559055118110236,
                    "duration": 0.06458333333333144
                },
                {
                    "name": "C#3",
                    "midi": 49,
                    "time": 231.25624999999636,
                    "velocity": 0.8188976377952756,
                    "duration": 0.18124999999997726
                },
                {
                    "name": "F#3",
                    "midi": 54,
                    "time": 231.41249999999633,
                    "velocity": 0.7952755905511811,
                    "duration": 0.18958333333333144
                },
                {
                    "name": "F#5",
                    "midi": 78,
                    "time": 231.61249999999632,
                    "velocity": 0.7637795275590551,
                    "duration": 0.5604166666666401
                },
                {
                    "name": "F#4",
                    "midi": 66,
                    "time": 231.61458333332965,
                    "velocity": 0.7559055118110236,
                    "duration": 0.2145833333333087
                },
                {
                    "name": "A3",
                    "midi": 57,
                    "time": 231.61666666666298,
                    "velocity": 0.5590551181102362,
                    "duration": 0.15416666666666856
                },
                {
                    "name": "C#4",
                    "midi": 61,
                    "time": 231.78541666666297,
                    "velocity": 0.6929133858267716,
                    "duration": 0.12708333333333144
                },
                {
                    "name": "F#4",
                    "midi": 66,
                    "time": 232.02083333332962,
                    "velocity": 0.6771653543307087,
                    "duration": 0.1354166666666572
                },
                {
                    "name": "A4",
                    "midi": 69,
                    "time": 232.20416666666296,
                    "velocity": 0.5275590551181102,
                    "duration": 0.12708333333333144
                },
                {
                    "name": "C5",
                    "midi": 72,
                    "time": 232.42291666666296,
                    "velocity": 0.5669291338582677,
                    "duration": 0.27291666666667425
                },
                {
                    "name": "C#5",
                    "midi": 73,
                    "time": 232.63958333332963,
                    "velocity": 0.6299212598425197,
                    "duration": 0.25208333333333144
                },
                {
                    "name": "F5",
                    "midi": 77,
                    "time": 232.87916666666297,
                    "velocity": 0.5511811023622047,
                    "duration": 0.2729166666666458
                },
                {
                    "name": "F#5",
                    "midi": 78,
                    "time": 233.0895833333296,
                    "velocity": 0.6141732283464567,
                    "duration": 0.3395833333333371
                },
                {
                    "name": "F#2",
                    "midi": 42,
                    "time": 233.3458333333296,
                    "velocity": 0.47244094488188976,
                    "duration": 0.21458333333333712
                },
                {
                    "name": "A5",
                    "midi": 81,
                    "time": 233.4395833333296,
                    "velocity": 0.7007874015748031,
                    "duration": 0.8062500000000057
                },
                {
                    "name": "C5",
                    "midi": 72,
                    "time": 233.77499999999628,
                    "velocity": 0.5275590551181102,
                    "duration": 0.29583333333332007
                },
                {
                    "name": "C3",
                    "midi": 48,
                    "time": 234.0020833333296,
                    "velocity": 0.49606299212598426,
                    "duration": 0.11875000000000568
                },
                {
                    "name": "A3",
                    "midi": 57,
                    "time": 234.01041666666293,
                    "velocity": 0.44881889763779526,
                    "duration": 0.16458333333335418
                },
                {
                    "name": "C4",
                    "midi": 60,
                    "time": 234.01249999999627,
                    "velocity": 0.3779527559055118,
                    "duration": 0.1604166666666913
                },
                {
                    "name": "A4",
                    "midi": 69,
                    "time": 234.01666666666293,
                    "velocity": 0.5354330708661418,
                    "duration": 0.3229166666666856
                },
                {
                    "name": "C#5",
                    "midi": 73,
                    "time": 234.21666666666295,
                    "velocity": 0.6141732283464567,
                    "duration": 0.15833333333333144
                },
                {
                    "name": "A5",
                    "midi": 81,
                    "time": 234.39791666666295,
                    "velocity": 0.8503937007874016,
                    "duration": 0.6895833333332746
                },
                {
                    "name": "C#3",
                    "midi": 49,
                    "time": 234.39791666666295,
                    "velocity": 0.6141732283464567,
                    "duration": 0.06874999999999432
                },
                {
                    "name": "C#4",
                    "midi": 61,
                    "time": 234.39999999999628,
                    "velocity": 0.8582677165354331,
                    "duration": 0.0625
                },
                {
                    "name": "C#5",
                    "midi": 73,
                    "time": 234.5895833333296,
                    "velocity": 0.8110236220472441,
                    "duration": 0.25416666666663446
                },
                {
                    "name": "F#2",
                    "midi": 42,
                    "time": 234.77291666666292,
                    "velocity": 0.889763779527559,
                    "duration": 0.08333333333331439
                },
                {
                    "name": "A4",
                    "midi": 69,
                    "time": 234.78124999999625,
                    "velocity": 0.6850393700787402,
                    "duration": 0.535416666666606
                },
                {
                    "name": "D5",
                    "midi": 74,
                    "time": 234.9604166666629,
                    "velocity": 0.7165354330708661,
                    "duration": 0.3937499999999545
                },
                {
                    "name": "A5",
                    "midi": 81,
                    "time": 235.19166666666288,
                    "velocity": 0.8582677165354331,
                    "duration": 0.1687499999999602
                },
                {
                    "name": "D3",
                    "midi": 50,
                    "time": 235.20416666666287,
                    "velocity": 0.7401574803149606,
                    "duration": 0.09375
                },
                {
                    "name": "C4",
                    "midi": 60,
                    "time": 235.21041666666287,
                    "velocity": 0.6614173228346457,
                    "duration": 0.09583333333333144
                },
                {
                    "name": "D4",
                    "midi": 62,
                    "time": 235.21041666666287,
                    "velocity": 0.6929133858267716,
                    "duration": 0.09999999999999432
                },
                {
                    "name": "A5",
                    "midi": 81,
                    "time": 235.79374999999618,
                    "velocity": 0.6535433070866141,
                    "duration": 0.36458333333328596
                },
                {
                    "name": "D#5",
                    "midi": 75,
                    "time": 235.80416666666284,
                    "velocity": 0.6220472440944882,
                    "duration": 0.39999999999994884
                },
                {
                    "name": "A4",
                    "midi": 69,
                    "time": 235.81874999999616,
                    "velocity": 0.5511811023622047,
                    "duration": 0.5458333333332916
                },
                {
                    "name": "D#4",
                    "midi": 63,
                    "time": 235.8208333333295,
                    "velocity": 0.5275590551181102,
                    "duration": 0.24791666666664014
                },
                {
                    "name": "D#3",
                    "midi": 51,
                    "time": 235.8208333333295,
                    "velocity": 0.5118110236220472,
                    "duration": 0.314583333333303
                },
                {
                    "name": "C5",
                    "midi": 72,
                    "time": 235.82291666666282,
                    "velocity": 0.6614173228346457,
                    "duration": 0.37291666666664014
                },
                {
                    "name": "G2",
                    "midi": 43,
                    "time": 236.49791666666277,
                    "velocity": 0.5039370078740157,
                    "duration": 0.5187500000000398
                },
                {
                    "name": "F#5",
                    "midi": 78,
                    "time": 236.56458333332944,
                    "velocity": 0.5118110236220472,
                    "duration": 0.637500000000017
                },
                {
                    "name": "A5",
                    "midi": 81,
                    "time": 236.57291666666276,
                    "velocity": 0.6062992125984252,
                    "duration": 0.5833333333333712
                },
                {
                    "name": "A4",
                    "midi": 69,
                    "time": 236.5937499999961,
                    "velocity": 0.2755905511811024,
                    "duration": 0.6291666666666913
                },
                {
                    "name": "D#3",
                    "midi": 51,
                    "time": 236.90208333332947,
                    "velocity": 0.36220472440944884,
                    "duration": 0.28958333333332575
                },
                {
                    "name": "E3",
                    "midi": 52,
                    "time": 237.11249999999615,
                    "velocity": 0.5984251968503937,
                    "duration": 0.19166666666663446
                },
                {
                    "name": "G3",
                    "midi": 55,
                    "time": 237.2916666666628,
                    "velocity": 0.6220472440944882,
                    "duration": 0.16249999999999432
                },
                {
                    "name": "B3",
                    "midi": 59,
                    "time": 237.49166666666278,
                    "velocity": 0.4881889763779528,
                    "duration": 0.1979166666666572
                },
                {
                    "name": "G5",
                    "midi": 79,
                    "time": 237.51249999999612,
                    "velocity": 0.7007874015748031,
                    "duration": 0.4541666666666515
                },
                {
                    "name": "E5",
                    "midi": 76,
                    "time": 237.52083333332945,
                    "velocity": 0.6062992125984252,
                    "duration": 0.5520833333333144
                },
                {
                    "name": "G4",
                    "midi": 67,
                    "time": 237.52083333332945,
                    "velocity": 0.47244094488188976,
                    "duration": 0.25833333333332575
                },
                {
                    "name": "E4",
                    "midi": 64,
                    "time": 237.7124999999961,
                    "velocity": 0.48031496062992124,
                    "duration": 0.0625
                },
                {
                    "name": "E2",
                    "midi": 40,
                    "time": 238.08541666666275,
                    "velocity": 0.4645669291338583,
                    "duration": 0.24166666666664582
                },
                {
                    "name": "D4",
                    "midi": 62,
                    "time": 238.86874999999606,
                    "velocity": 0.2440944881889764,
                    "duration": 0.5020833333333599
                },
                {
                    "name": "A#4",
                    "midi": 70,
                    "time": 238.8791666666627,
                    "velocity": 0.25984251968503935,
                    "duration": 0.20833333333337123
                },
                {
                    "name": "G4",
                    "midi": 67,
                    "time": 238.90416666666272,
                    "velocity": 0.2755905511811024,
                    "duration": 0.36041666666670835
                },
                {
                    "name": "D5",
                    "midi": 74,
                    "time": 238.95416666666273,
                    "velocity": 0.2992125984251969,
                    "duration": 0.23125000000001705
                },
                {
                    "name": "A5",
                    "midi": 81,
                    "time": 238.9708333333294,
                    "velocity": 0.4094488188976378,
                    "duration": 0.21250000000000568
                },
                {
                    "name": "G5",
                    "midi": 79,
                    "time": 239.5333333333294,
                    "velocity": 0.5748031496062992,
                    "duration": 0.21666666666666856
                },
                {
                    "name": "A2",
                    "midi": 45,
                    "time": 239.96666666666275,
                    "velocity": 0.41732283464566927,
                    "duration": 0.13333333333332575
                },
                {
                    "name": "F#5",
                    "midi": 78,
                    "time": 239.99166666666275,
                    "velocity": 0.6850393700787402,
                    "duration": 0.28333333333333144
                },
                {
                    "name": "G4",
                    "midi": 67,
                    "time": 240.53749999999607,
                    "velocity": 0.4015748031496063,
                    "duration": 0.3499999999999659
                },
                {
                    "name": "A#3",
                    "midi": 58,
                    "time": 240.54166666666273,
                    "velocity": 0.44881889763779526,
                    "duration": 0.24166666666664582
                },
                {
                    "name": "D#4",
                    "midi": 63,
                    "time": 240.54791666666273,
                    "velocity": 0.48031496062992124,
                    "duration": 0.3041666666666458
                },
                {
                    "name": "A#4",
                    "midi": 70,
                    "time": 240.7145833333294,
                    "velocity": 0.6377952755905512,
                    "duration": 0.2145833333333087
                },
                {
                    "name": "B3",
                    "midi": 59,
                    "time": 240.91874999999604,
                    "velocity": 0.5433070866141733,
                    "duration": 0.054166666666645824
                },
                {
                    "name": "F#5",
                    "midi": 78,
                    "time": 240.93749999999602,
                    "velocity": 0.7401574803149606,
                    "duration": 0.5791666666666515
                },
                {
                    "name": "A2",
                    "midi": 45,
                    "time": 241.30208333332936,
                    "velocity": 0.5590551181102362,
                    "duration": 0.07708333333332007
                },
                {
                    "name": "B4",
                    "midi": 71,
                    "time": 241.50624999999602,
                    "velocity": 0.6614173228346457,
                    "duration": 0.30624999999997726
                },
                {
                    "name": "B3",
                    "midi": 59,
                    "time": 241.812499999996,
                    "velocity": 0.5748031496062992,
                    "duration": 0.3645833333333144
                },
                {
                    "name": "F#5",
                    "midi": 78,
                    "time": 241.8270833333293,
                    "velocity": 0.7874015748031497,
                    "duration": 0.5541666666666458
                },
                {
                    "name": "G4",
                    "midi": 67,
                    "time": 241.83541666666264,
                    "velocity": 0.36220472440944884,
                    "duration": 0.3687500000000057
                },
                {
                    "name": "D#4",
                    "midi": 63,
                    "time": 241.85416666666265,
                    "velocity": 0.5118110236220472,
                    "duration": 0.31041666666666856
                },
                {
                    "name": "C4",
                    "midi": 60,
                    "time": 242.19999999999598,
                    "velocity": 0.7401574803149606,
                    "duration": 0.04166666666665719
                },
                {
                    "name": "C5",
                    "midi": 72,
                    "time": 242.34374999999596,
                    "velocity": 0.7322834645669292,
                    "duration": 0.2583333333333542
                },
                {
                    "name": "A2",
                    "midi": 45,
                    "time": 242.54791666666262,
                    "velocity": 0.7716535433070866,
                    "duration": 0.08125000000003979
                },
                {
                    "name": "F#5",
                    "midi": 78,
                    "time": 242.5645833333293,
                    "velocity": 0.905511811023622,
                    "duration": 0.24166666666670267
                },
                {
                    "name": "C4",
                    "midi": 60,
                    "time": 242.97291666666266,
                    "velocity": 0.7874015748031497,
                    "duration": 0.09999999999999432
                },
                {
                    "name": "A4",
                    "midi": 69,
                    "time": 242.97708333332932,
                    "velocity": 0.6850393700787402,
                    "duration": 0.07916666666665151
                },
                {
                    "name": "G4",
                    "midi": 67,
                    "time": 242.98124999999598,
                    "velocity": 0.6850393700787402,
                    "duration": 0.06874999999999432
                },
                {
                    "name": "C#5",
                    "midi": 73,
                    "time": 243.15208333332933,
                    "velocity": 0.8818897637795275,
                    "duration": 0.2020833333333485
                },
                {
                    "name": "C#4",
                    "midi": 61,
                    "time": 243.32916666666267,
                    "velocity": 0.7795275590551181,
                    "duration": 0.039583333333325754
                },
                {
                    "name": "F#5",
                    "midi": 78,
                    "time": 243.362499999996,
                    "velocity": 0.8267716535433071,
                    "duration": 0.24374999999997726
                },
                {
                    "name": "C#5",
                    "midi": 73,
                    "time": 243.47291666666266,
                    "velocity": 0.7480314960629921,
                    "duration": 0.13749999999998863
                },
                {
                    "name": "D2",
                    "midi": 38,
                    "time": 243.68541666666263,
                    "velocity": 0.8582677165354331,
                    "duration": 0.06458333333333144
                },
                {
                    "name": "D5",
                    "midi": 74,
                    "time": 243.69166666666263,
                    "velocity": 0.889763779527559,
                    "duration": 0.09583333333333144
                },
                {
                    "name": "A3",
                    "midi": 57,
                    "time": 243.91874999999595,
                    "velocity": 0.5984251968503937,
                    "duration": 0.06041666666666856
                },
                {
                    "name": "F#4",
                    "midi": 66,
                    "time": 244.0854166666626,
                    "velocity": 0.9291338582677166,
                    "duration": 0.06458333333333144
                },
                {
                    "name": "A4",
                    "midi": 69,
                    "time": 244.24999999999594,
                    "velocity": 0.9291338582677166,
                    "duration": 0.08333333333334281
                },
                {
                    "name": "F#5",
                    "midi": 78,
                    "time": 244.40833333332927,
                    "velocity": 0.9291338582677166,
                    "duration": 0.07499999999998863
                },
                {
                    "name": "D6",
                    "midi": 86,
                    "time": 244.57499999999592,
                    "velocity": 0.9763779527559056,
                    "duration": 0.07708333333332007
                },
                {
                    "name": "A#1",
                    "midi": 34,
                    "time": 244.88541666666256,
                    "velocity": 1,
                    "duration": 0.22083333333330302
                },
                {
                    "name": "A#0",
                    "midi": 22,
                    "time": 244.88958333332923,
                    "velocity": 1,
                    "duration": 0.283333333333303
                },
                {
                    "name": "C#1",
                    "midi": 25,
                    "time": 244.89166666666256,
                    "velocity": 1,
                    "duration": 0.27499999999997726
                },
                {
                    "name": "F1",
                    "midi": 29,
                    "time": 244.8937499999959,
                    "velocity": 1,
                    "duration": 0.26458333333332007
                },
                {
                    "name": "E1",
                    "midi": 28,
                    "time": 244.8937499999959,
                    "velocity": 1,
                    "duration": 0.2666666666666515
                },
                {
                    "name": "C1",
                    "midi": 24,
                    "time": 244.89583333332922,
                    "velocity": 0.9763779527559056,
                    "duration": 0.1979166666666572
                },
                {
                    "name": "A0",
                    "midi": 21,
                    "time": 244.89791666666255,
                    "velocity": 0.84251968503937,
                    "duration": 0.26874999999998295
                },
                {
                    "name": "D1",
                    "midi": 26,
                    "time": 244.89999999999588,
                    "velocity": 0.9921259842519685,
                    "duration": 0.19583333333332575
                },
                {
                    "name": "B0",
                    "midi": 23,
                    "time": 244.89999999999588,
                    "velocity": 0.9448818897637795,
                    "duration": 0.2770833333333087
                },
                {
                    "name": "A1",
                    "midi": 33,
                    "time": 244.90416666666255,
                    "velocity": 0.8346456692913385,
                    "duration": 0.027083333333337123
                },
                {
                    "name": "A#2",
                    "midi": 46,
                    "time": 245.4645833333292,
                    "velocity": 0.7795275590551181,
                    "duration": 0.09166666666664014
                },
                {
                    "name": "A#3",
                    "midi": 58,
                    "time": 245.46666666666252,
                    "velocity": 0.9291338582677166,
                    "duration": 0.06874999999999432
                },
                {
                    "name": "E3",
                    "midi": 52,
                    "time": 245.47083333332918,
                    "velocity": 0.8346456692913385,
                    "duration": 0.08333333333331439
                },
                {
                    "name": "D5",
                    "midi": 74,
                    "time": 245.4791666666625,
                    "velocity": 0.9133858267716536,
                    "duration": 0.07083333333332575
                },
                {
                    "name": "D4",
                    "midi": 62,
                    "time": 245.48333333332917,
                    "velocity": 0.9448818897637795,
                    "duration": 0.056250000000005684
                },
                {
                    "name": "A#4",
                    "midi": 70,
                    "time": 245.4854166666625,
                    "velocity": 0.905511811023622,
                    "duration": 0.054166666666674246
                },
                {
                    "name": "E4",
                    "midi": 64,
                    "time": 245.4854166666625,
                    "velocity": 0.9448818897637795,
                    "duration": 0.05833333333333712
                },
                {
                    "name": "D5",
                    "midi": 74,
                    "time": 245.60208333332915,
                    "velocity": 0.8346456692913385,
                    "duration": 0.07499999999996021
                },
                {
                    "name": "A#3",
                    "midi": 58,
                    "time": 245.6062499999958,
                    "velocity": 0.7480314960629921,
                    "duration": 0.06041666666664014
                },
                {
                    "name": "E3",
                    "midi": 52,
                    "time": 245.60833333332914,
                    "velocity": 0.7952755905511811,
                    "duration": 0.07708333333329165
                },
                {
                    "name": "A#2",
                    "midi": 46,
                    "time": 245.61041666666247,
                    "velocity": 0.7480314960629921,
                    "duration": 0.06458333333330302
                },
                {
                    "name": "A#4",
                    "midi": 70,
                    "time": 245.61458333332914,
                    "velocity": 0.8188976377952756,
                    "duration": 0.0583333333333087
                },
                {
                    "name": "D4",
                    "midi": 62,
                    "time": 245.61458333332914,
                    "velocity": 0.8346456692913385,
                    "duration": 0.04791666666665151
                },
                {
                    "name": "E4",
                    "midi": 64,
                    "time": 245.61666666666247,
                    "velocity": 0.7795275590551181,
                    "duration": 0.037499999999994316
                },
                {
                    "name": "A#3",
                    "midi": 58,
                    "time": 245.75624999999576,
                    "velocity": 0.8346456692913385,
                    "duration": 0.06041666666666856
                },
                {
                    "name": "E3",
                    "midi": 52,
                    "time": 245.7583333333291,
                    "velocity": 0.7559055118110236,
                    "duration": 0.07708333333332007
                },
                {
                    "name": "A#2",
                    "midi": 46,
                    "time": 245.7583333333291,
                    "velocity": 0.7322834645669292,
                    "duration": 0.09791666666666288
                },
                {
                    "name": "D5",
                    "midi": 74,
                    "time": 245.76041666666242,
                    "velocity": 0.8582677165354331,
                    "duration": 0.07499999999998863
                },
                {
                    "name": "A#4",
                    "midi": 70,
                    "time": 245.76666666666242,
                    "velocity": 0.8661417322834646,
                    "duration": 0.06041666666666856
                },
                {
                    "name": "D4",
                    "midi": 62,
                    "time": 245.76874999999575,
                    "velocity": 0.7244094488188977,
                    "duration": 0.04375000000001705
                },
                {
                    "name": "E4",
                    "midi": 64,
                    "time": 245.78749999999576,
                    "velocity": 0.47244094488188976,
                    "duration": 0.04791666666665151
                },
                {
                    "name": "F4",
                    "midi": 65,
                    "time": 246.10624999999575,
                    "velocity": 0.8188976377952756,
                    "duration": 0.0625
                },
                {
                    "name": "A#3",
                    "midi": 58,
                    "time": 246.10624999999575,
                    "velocity": 0.8976377952755905,
                    "duration": 0.06041666666666856
                },
                {
                    "name": "D4",
                    "midi": 62,
                    "time": 246.10833333332909,
                    "velocity": 0.8503937007874016,
                    "duration": 0.05833333333333712
                },
                {
                    "name": "A#2",
                    "midi": 46,
                    "time": 246.11041666666242,
                    "velocity": 0.7874015748031497,
                    "duration": 0.07083333333332575
                },
                {
                    "name": "D5",
                    "midi": 74,
                    "time": 246.11041666666242,
                    "velocity": 0.7637795275590551,
                    "duration": 0.06041666666666856
                },
                {
                    "name": "A#4",
                    "midi": 70,
                    "time": 246.11041666666242,
                    "velocity": 0.7480314960629921,
                    "duration": 0.06874999999999432
                },
                {
                    "name": "F3",
                    "midi": 53,
                    "time": 246.11249999999575,
                    "velocity": 0.8346456692913385,
                    "duration": 0.06041666666666856
                },
                {
                    "name": "A#3",
                    "midi": 58,
                    "time": 246.23333333332909,
                    "velocity": 0.7637795275590551,
                    "duration": 0.0687499999999659
                },
                {
                    "name": "A#2",
                    "midi": 46,
                    "time": 246.23958333332908,
                    "velocity": 0.6850393700787402,
                    "duration": 0.06666666666663446
                },
                {
                    "name": "F3",
                    "midi": 53,
                    "time": 246.2479166666624,
                    "velocity": 0.7322834645669292,
                    "duration": 0.054166666666645824
                },
                {
                    "name": "D5",
                    "midi": 74,
                    "time": 246.24999999999574,
                    "velocity": 0.6692913385826772,
                    "duration": 0.0687499999999659
                },
                {
                    "name": "D4",
                    "midi": 62,
                    "time": 246.24999999999574,
                    "velocity": 0.7716535433070866,
                    "duration": 0.052083333333314386
                },
                {
                    "name": "F4",
                    "midi": 65,
                    "time": 246.2541666666624,
                    "velocity": 0.7007874015748031,
                    "duration": 0.054166666666645824
                },
                {
                    "name": "A#4",
                    "midi": 70,
                    "time": 246.25624999999573,
                    "velocity": 0.5354330708661418,
                    "duration": 0.054166666666645824
                },
                {
                    "name": "A#3",
                    "midi": 58,
                    "time": 246.37499999999568,
                    "velocity": 0.7716535433070866,
                    "duration": 0.06666666666666288
                },
                {
                    "name": "A#2",
                    "midi": 46,
                    "time": 246.377083333329,
                    "velocity": 0.7086614173228346,
                    "duration": 0.07916666666665151
                },
                {
                    "name": "A#4",
                    "midi": 70,
                    "time": 246.37916666666234,
                    "velocity": 0.7559055118110236,
                    "duration": 0.06874999999999432
                },
                {
                    "name": "D4",
                    "midi": 62,
                    "time": 246.38124999999567,
                    "velocity": 0.8031496062992126,
                    "duration": 0.05000000000001137
                },
                {
                    "name": "F4",
                    "midi": 65,
                    "time": 246.38124999999567,
                    "velocity": 0.8031496062992126,
                    "duration": 0.06458333333333144
                },
                {
                    "name": "F3",
                    "midi": 53,
                    "time": 246.383333333329,
                    "velocity": 0.7952755905511811,
                    "duration": 0.06666666666666288
                },
                {
                    "name": "A#3",
                    "midi": 58,
                    "time": 246.72916666666234,
                    "velocity": 0.8346456692913385,
                    "duration": 0.04583333333332007
                },
                {
                    "name": "D4",
                    "midi": 62,
                    "time": 246.72916666666234,
                    "velocity": 0.8818897637795275,
                    "duration": 0.04583333333332007
                },
                {
                    "name": "F#4",
                    "midi": 66,
                    "time": 246.72916666666234,
                    "velocity": 0.8661417322834646,
                    "duration": 0.0583333333333087
                },
                {
                    "name": "A#4",
                    "midi": 70,
                    "time": 246.73124999999567,
                    "velocity": 0.8110236220472441,
                    "duration": 0.06041666666664014
                },
                {
                    "name": "F#3",
                    "midi": 54,
                    "time": 246.73124999999567,
                    "velocity": 0.8582677165354331,
                    "duration": 0.052083333333314386
                },
                {
                    "name": "D5",
                    "midi": 74,
                    "time": 246.73749999999566,
                    "velocity": 0.7165354330708661,
                    "duration": 0.04374999999998863
                },
                {
                    "name": "A#2",
                    "midi": 46,
                    "time": 246.739583333329,
                    "velocity": 0.7086614173228346,
                    "duration": 0.039583333333325754
                },
                {
                    "name": "F#3",
                    "midi": 54,
                    "time": 246.84374999999565,
                    "velocity": 0.7874015748031497,
                    "duration": 0.07499999999998863
                },
                {
                    "name": "A#3",
                    "midi": 58,
                    "time": 246.84583333332898,
                    "velocity": 0.6535433070866141,
                    "duration": 0.07083333333332575
                },
                {
                    "name": "D5",
                    "midi": 74,
                    "time": 246.84583333332898,
                    "velocity": 0.7559055118110236,
                    "duration": 0.06874999999999432
                },
                {
                    "name": "A#2",
                    "midi": 46,
                    "time": 246.84791666666231,
                    "velocity": 0.6929133858267716,
                    "duration": 0.07916666666665151
                },
                {
                    "name": "D4",
                    "midi": 62,
                    "time": 246.84999999999565,
                    "velocity": 0.7952755905511811,
                    "duration": 0.0625
                },
                {
                    "name": "F#4",
                    "midi": 66,
                    "time": 246.85208333332898,
                    "velocity": 0.7795275590551181,
                    "duration": 0.0625
                },
                {
                    "name": "A#4",
                    "midi": 70,
                    "time": 246.85624999999564,
                    "velocity": 0.6299212598425197,
                    "duration": 0.056250000000005684
                },
                {
                    "name": "A#2",
                    "midi": 46,
                    "time": 246.98749999999563,
                    "velocity": 0.7007874015748031,
                    "duration": 0.12499999999994316
                },
                {
                    "name": "A#3",
                    "midi": 58,
                    "time": 246.98958333332897,
                    "velocity": 0.6850393700787402,
                    "duration": 0.06458333333330302
                },
                {
                    "name": "F#3",
                    "midi": 54,
                    "time": 246.9916666666623,
                    "velocity": 0.7401574803149606,
                    "duration": 0.06666666666663446
                },
                {
                    "name": "D4",
                    "midi": 62,
                    "time": 246.99583333332896,
                    "velocity": 0.8818897637795275,
                    "duration": 0.07083333333329733
                },
                {
                    "name": "D5",
                    "midi": 74,
                    "time": 246.9979166666623,
                    "velocity": 0.8188976377952756,
                    "duration": 0.07291666666662877
                },
                {
                    "name": "F#4",
                    "midi": 66,
                    "time": 247.00208333332895,
                    "velocity": 0.8188976377952756,
                    "duration": 0.052083333333314386
                },
                {
                    "name": "A#4",
                    "midi": 70,
                    "time": 247.00833333332895,
                    "velocity": 0.6614173228346457,
                    "duration": 0.037499999999994316
                },
                {
                    "name": "A#2",
                    "midi": 46,
                    "time": 247.33749999999557,
                    "velocity": 0.6850393700787402,
                    "duration": 0.10833333333329165
                },
                {
                    "name": "A#3",
                    "midi": 58,
                    "time": 247.3395833333289,
                    "velocity": 0.7007874015748031,
                    "duration": 0.06249999999997158
                },
                {
                    "name": "A#4",
                    "midi": 70,
                    "time": 247.34374999999557,
                    "velocity": 0.8818897637795275,
                    "duration": 0.07291666666662877
                },
                {
                    "name": "D5",
                    "midi": 74,
                    "time": 247.34374999999557,
                    "velocity": 0.84251968503937,
                    "duration": 0.07291666666662877
                },
                {
                    "name": "G4",
                    "midi": 67,
                    "time": 247.3458333333289,
                    "velocity": 0.8188976377952756,
                    "duration": 0.0583333333333087
                },
                {
                    "name": "D4",
                    "midi": 62,
                    "time": 247.3458333333289,
                    "velocity": 0.889763779527559,
                    "duration": 0.04791666666665151
                },
                {
                    "name": "G3",
                    "midi": 55,
                    "time": 247.34791666666223,
                    "velocity": 0.5748031496062992,
                    "duration": 0.0583333333333087
                },
                {
                    "name": "A#2",
                    "midi": 46,
                    "time": 247.63749999999553,
                    "velocity": 0.03937007874015748,
                    "duration": 0.07708333333332007
                },
                {
                    "name": "A#3",
                    "midi": 58,
                    "time": 247.6541666666622,
                    "velocity": 0.7874015748031497,
                    "duration": 0.0583333333333087
                },
                {
                    "name": "G#3",
                    "midi": 56,
                    "time": 247.6604166666622,
                    "velocity": 0.7637795275590551,
                    "duration": 0.04791666666665151
                },
                {
                    "name": "A#4",
                    "midi": 70,
                    "time": 247.66458333332886,
                    "velocity": 0.9133858267716536,
                    "duration": 0.06249999999997158
                },
                {
                    "name": "D4",
                    "midi": 62,
                    "time": 247.66874999999553,
                    "velocity": 0.889763779527559,
                    "duration": 0.04583333333332007
                },
                {
                    "name": "G#4",
                    "midi": 68,
                    "time": 247.66874999999553,
                    "velocity": 0.8818897637795275,
                    "duration": 0.06041666666664014
                },
                {
                    "name": "D5",
                    "midi": 74,
                    "time": 247.67083333332886,
                    "velocity": 0.8346456692913385,
                    "duration": 0.04166666666665719
                },
                {
                    "name": "B4",
                    "midi": 71,
                    "time": 248.02291666666216,
                    "velocity": 0.8503937007874016,
                    "duration": 0.11041666666667993
                },
                {
                    "name": "B3",
                    "midi": 59,
                    "time": 248.02291666666216,
                    "velocity": 0.9291338582677166,
                    "duration": 0.06874999999999432
                },
                {
                    "name": "G4",
                    "midi": 67,
                    "time": 248.02291666666216,
                    "velocity": 0.84251968503937,
                    "duration": 0.08958333333333712
                },
                {
                    "name": "D#4",
                    "midi": 63,
                    "time": 248.02708333332882,
                    "velocity": 0.8661417322834646,
                    "duration": 0.06666666666666288
                },
                {
                    "name": "F#2",
                    "midi": 42,
                    "time": 248.16666666666217,
                    "velocity": 0.9133858267716536,
                    "duration": 0.1979166666666572
                },
                {
                    "name": "G2",
                    "midi": 43,
                    "time": 248.30208333332882,
                    "velocity": 0.8582677165354331,
                    "duration": 0.2041666666666515
                },
                {
                    "name": "B2",
                    "midi": 47,
                    "time": 248.4437499999955,
                    "velocity": 0.84251968503937,
                    "duration": 0.15208333333328028
                },
                {
                    "name": "D4",
                    "midi": 62,
                    "time": 248.4499999999955,
                    "velocity": 0.889763779527559,
                    "duration": 0.06041666666664014
                },
                {
                    "name": "B4",
                    "midi": 71,
                    "time": 248.45208333332883,
                    "velocity": 0.8110236220472441,
                    "duration": 0.07083333333329733
                },
                {
                    "name": "D5",
                    "midi": 74,
                    "time": 248.45416666666216,
                    "velocity": 0.8346456692913385,
                    "duration": 0.08333333333328596
                },
                {
                    "name": "G4",
                    "midi": 67,
                    "time": 248.46041666666216,
                    "velocity": 0.6929133858267716,
                    "duration": 0.037499999999994316
                },
                {
                    "name": "C3",
                    "midi": 48,
                    "time": 248.60833333332877,
                    "velocity": 0.8818897637795275,
                    "duration": 0.08124999999998295
                },
                {
                    "name": "D5",
                    "midi": 74,
                    "time": 248.6104166666621,
                    "velocity": 0.84251968503937,
                    "duration": 0.4020833333333371
                },
                {
                    "name": "B4",
                    "midi": 71,
                    "time": 248.61458333332877,
                    "velocity": 0.8346456692913385,
                    "duration": 0.45625000000001137
                },
                {
                    "name": "D4",
                    "midi": 62,
                    "time": 248.6166666666621,
                    "velocity": 0.889763779527559,
                    "duration": 0.3791666666666913
                },
                {
                    "name": "G4",
                    "midi": 67,
                    "time": 248.6166666666621,
                    "velocity": 0.8031496062992126,
                    "duration": 0.4270833333333428
                },
                {
                    "name": "D#3",
                    "midi": 51,
                    "time": 248.7791666666621,
                    "velocity": 0.9291338582677166,
                    "duration": 0.05833333333333712
                },
                {
                    "name": "D#2",
                    "midi": 39,
                    "time": 248.91874999999544,
                    "velocity": 1,
                    "duration": 0.5020833333332746
                },
                {
                    "name": "F#3",
                    "midi": 54,
                    "time": 248.94374999999545,
                    "velocity": 0.984251968503937,
                    "duration": 0.09583333333333144
                },
                {
                    "name": "G3",
                    "midi": 55,
                    "time": 248.9645833333288,
                    "velocity": 0.6929133858267716,
                    "duration": 0.037499999999994316
                },
                {
                    "name": "G3",
                    "midi": 55,
                    "time": 249.0729166666621,
                    "velocity": 0.8188976377952756,
                    "duration": 0.13124999999999432
                },
                {
                    "name": "C5",
                    "midi": 72,
                    "time": 249.23749999999544,
                    "velocity": 0.8976377952755905,
                    "duration": 0.08124999999995453
                },
                {
                    "name": "G#4",
                    "midi": 68,
                    "time": 249.2416666666621,
                    "velocity": 0.8976377952755905,
                    "duration": 0.06458333333330302
                },
                {
                    "name": "B3",
                    "midi": 59,
                    "time": 249.24583333332876,
                    "velocity": 0.8740157480314961,
                    "duration": 0.09374999999997158
                },
                {
                    "name": "E4",
                    "midi": 64,
                    "time": 249.2479166666621,
                    "velocity": 0.7401574803149606,
                    "duration": 0.04583333333332007
                },
                {
                    "name": "C4",
                    "midi": 60,
                    "time": 249.37916666666206,
                    "velocity": 0.9133858267716536,
                    "duration": 0.08958333333333712
                },
                {
                    "name": "G5",
                    "midi": 79,
                    "time": 249.53541666666206,
                    "velocity": 0.84251968503937,
                    "duration": 0.12083333333333712
                },
                {
                    "name": "D#5",
                    "midi": 75,
                    "time": 249.5374999999954,
                    "velocity": 0.8818897637795275,
                    "duration": 0.08333333333334281
                },
                {
                    "name": "B4",
                    "midi": 71,
                    "time": 249.5374999999954,
                    "velocity": 0.8188976377952756,
                    "duration": 0.06458333333333144
                },
                {
                    "name": "D4",
                    "midi": 62,
                    "time": 249.57083333332872,
                    "velocity": 0.6850393700787402,
                    "duration": 0.15416666666669698
                },
                {
                    "name": "D#4",
                    "midi": 63,
                    "time": 249.70416666666208,
                    "velocity": 0.9291338582677166,
                    "duration": 0.09375
                },
                {
                    "name": "F#4",
                    "midi": 66,
                    "time": 249.87708333332876,
                    "velocity": 0.9763779527559056,
                    "duration": 0.12083333333336554
                },
                {
                    "name": "F#5",
                    "midi": 78,
                    "time": 249.8791666666621,
                    "velocity": 0.9133858267716536,
                    "duration": 0.11458333333337123
                },
                {
                    "name": "G5",
                    "midi": 79,
                    "time": 250.00833333332878,
                    "velocity": 0.8503937007874016,
                    "duration": 0.12916666666666288
                },
                {
                    "name": "G4",
                    "midi": 67,
                    "time": 250.0104166666621,
                    "velocity": 0.8031496062992126,
                    "duration": 0.14791666666667425
                },
                {
                    "name": "B5",
                    "midi": 83,
                    "time": 250.16874999999544,
                    "velocity": 0.889763779527559,
                    "duration": 0.20000000000001705
                },
                {
                    "name": "B4",
                    "midi": 71,
                    "time": 250.17499999999544,
                    "velocity": 0.8976377952755905,
                    "duration": 0.17291666666667993
                },
                {
                    "name": "C5",
                    "midi": 72,
                    "time": 250.30624999999546,
                    "velocity": 0.9133858267716536,
                    "duration": 0.1770833333333428
                },
                {
                    "name": "C6",
                    "midi": 84,
                    "time": 250.31458333332878,
                    "velocity": 0.8740157480314961,
                    "duration": 0.20625000000001137
                },
                {
                    "name": "D5",
                    "midi": 74,
                    "time": 250.45416666666213,
                    "velocity": 0.8582677165354331,
                    "duration": 0.20416666666667993
                },
                {
                    "name": "D6",
                    "midi": 86,
                    "time": 250.48124999999547,
                    "velocity": 0.8740157480314961,
                    "duration": 0.09999999999999432
                },
                {
                    "name": "D#5",
                    "midi": 75,
                    "time": 250.6208333333288,
                    "velocity": 0.952755905511811,
                    "duration": 0.058333333333365545
                },
                {
                    "name": "D#6",
                    "midi": 87,
                    "time": 250.64166666666213,
                    "velocity": 0.937007874015748,
                    "duration": 0.0875000000000341
                },
                {
                    "name": "C1",
                    "midi": 24,
                    "time": 251.0874999999955,
                    "velocity": 0.8976377952755905,
                    "duration": 0.5395833333333258
                },
                {
                    "name": "C2",
                    "midi": 36,
                    "time": 251.08958333332882,
                    "velocity": 0.8818897637795275,
                    "duration": 0.37291666666666856
                },
                {
                    "name": "A#7",
                    "midi": 106,
                    "time": 251.72291666666214,
                    "velocity": 0.8503937007874016,
                    "duration": 0.2583333333332689
                },
                {
                    "name": "A7",
                    "midi": 105,
                    "time": 251.73541666666213,
                    "velocity": 0.7244094488188977,
                    "duration": 0.13958333333329165
                },
                {
                    "name": "G7",
                    "midi": 103,
                    "time": 251.74999999999545,
                    "velocity": 0.7007874015748031,
                    "duration": 0.22083333333330302
                },
                {
                    "name": "A#5",
                    "midi": 82,
                    "time": 251.76458333332877,
                    "velocity": 0.9921259842519685,
                    "duration": 0.6145833333332291
                },
                {
                    "name": "A#6",
                    "midi": 94,
                    "time": 251.76458333332877,
                    "velocity": 0.9133858267716536,
                    "duration": 0.5833333333332291
                },
                {
                    "name": "G6",
                    "midi": 91,
                    "time": 251.7666666666621,
                    "velocity": 0.84251968503937,
                    "duration": 0.6583333333332178
                },
                {
                    "name": "D#6",
                    "midi": 87,
                    "time": 251.7666666666621,
                    "velocity": 0.9133858267716536,
                    "duration": 0.491666666666589
                },
                {
                    "name": "G4",
                    "midi": 67,
                    "time": 251.77083333332877,
                    "velocity": 0.8976377952755905,
                    "duration": 0.649999999999892
                },
                {
                    "name": "D#4",
                    "midi": 63,
                    "time": 251.7729166666621,
                    "velocity": 0.9291338582677166,
                    "duration": 0.6520833333332234
                },
                {
                    "name": "A#3",
                    "midi": 58,
                    "time": 251.7791666666621,
                    "velocity": 0.8661417322834646,
                    "duration": 0.6354166666665719
                },
                {
                    "name": "G#7",
                    "midi": 104,
                    "time": 251.8916666666621,
                    "velocity": 0.33070866141732286,
                    "duration": 0.12708333333330302
                },
                {
                    "name": "F7",
                    "midi": 101,
                    "time": 251.9354166666621,
                    "velocity": 0.4330708661417323,
                    "duration": 0.09583333333330302
                },
                {
                    "name": "F#7",
                    "midi": 102,
                    "time": 251.98333333332874,
                    "velocity": 0.2440944881889764,
                    "duration": 0.10416666666665719
                },
                {
                    "name": "E7",
                    "midi": 100,
                    "time": 252.00833333332875,
                    "velocity": 0.5669291338582677,
                    "duration": 0.07708333333332007
                },
                {
                    "name": "D#7",
                    "midi": 99,
                    "time": 252.05416666666207,
                    "velocity": 0.7795275590551181,
                    "duration": 0.10208333333332575
                },
                {
                    "name": "D7",
                    "midi": 98,
                    "time": 252.06666666666206,
                    "velocity": 0.5118110236220472,
                    "duration": 0.0625
                },
                {
                    "name": "C7",
                    "midi": 96,
                    "time": 252.1187499999954,
                    "velocity": 0.31496062992125984,
                    "duration": 0.04374999999998863
                },
                {
                    "name": "C#7",
                    "midi": 97,
                    "time": 252.1249999999954,
                    "velocity": 0.4566929133858268,
                    "duration": 0.09791666666663446
                },
                {
                    "name": "B6",
                    "midi": 95,
                    "time": 252.15208333332873,
                    "velocity": 0.6771653543307087,
                    "duration": 0.05624999999997726
                },
                {
                    "name": "A6",
                    "midi": 93,
                    "time": 252.20416666666205,
                    "velocity": 0.5118110236220472,
                    "duration": 0.054166666666645824
                },
                {
                    "name": "G#6",
                    "midi": 92,
                    "time": 252.24374999999537,
                    "velocity": 0.6377952755905512,
                    "duration": 0.09374999999997158
                },
                {
                    "name": "F6",
                    "midi": 89,
                    "time": 252.29374999999536,
                    "velocity": 0.33070866141732286,
                    "duration": 0.04999999999998295
                },
                {
                    "name": "F#6",
                    "midi": 90,
                    "time": 252.29374999999536,
                    "velocity": 0.6456692913385826,
                    "duration": 0.10208333333329733
                },
                {
                    "name": "E6",
                    "midi": 88,
                    "time": 252.33124999999535,
                    "velocity": 0.6377952755905512,
                    "duration": 0.06041666666664014
                },
                {
                    "name": "D#6",
                    "midi": 87,
                    "time": 252.36458333332868,
                    "velocity": 0.7716535433070866,
                    "duration": 0.10416666666662877
                },
                {
                    "name": "D6",
                    "midi": 86,
                    "time": 252.379166666662,
                    "velocity": 0.5511811023622047,
                    "duration": 0.06458333333333144
                },
                {
                    "name": "C6",
                    "midi": 84,
                    "time": 252.416666666662,
                    "velocity": 0.4330708661417323,
                    "duration": 0.07499999999998863
                },
                {
                    "name": "C#6",
                    "midi": 85,
                    "time": 252.42499999999532,
                    "velocity": 0.5669291338582677,
                    "duration": 0.09583333333333144
                },
                {
                    "name": "B5",
                    "midi": 83,
                    "time": 252.45624999999532,
                    "velocity": 0.4645669291338583,
                    "duration": 0.07499999999998863
                },
                {
                    "name": "A#5",
                    "midi": 82,
                    "time": 252.48958333332865,
                    "velocity": 0.6220472440944882,
                    "duration": 0.5041666666665492
                },
                {
                    "name": "A5",
                    "midi": 81,
                    "time": 252.49374999999532,
                    "velocity": 0.4409448818897638,
                    "duration": 0.07083333333332575
                },
                {
                    "name": "G4",
                    "midi": 67,
                    "time": 252.52708333332865,
                    "velocity": 0.984251968503937,
                    "duration": 0.4791666666665435
                },
                {
                    "name": "D#4",
                    "midi": 63,
                    "time": 252.52916666666198,
                    "velocity": 0.9921259842519685,
                    "duration": 0.5354166666665208
                },
                {
                    "name": "G6",
                    "midi": 91,
                    "time": 252.5312499999953,
                    "velocity": 0.8582677165354331,
                    "duration": 0.4520833333332348
                },
                {
                    "name": "A#3",
                    "midi": 58,
                    "time": 252.5312499999953,
                    "velocity": 0.9763779527559056,
                    "duration": 0.41666666666660035
                },
                {
                    "name": "A#6",
                    "midi": 94,
                    "time": 252.53333333332864,
                    "velocity": 0.937007874015748,
                    "duration": 0.429166666666589
                },
                {
                    "name": "G5",
                    "midi": 79,
                    "time": 252.53333333332864,
                    "velocity": 0.44881889763779526,
                    "duration": 0.07916666666665151
                },
                {
                    "name": "D#6",
                    "midi": 87,
                    "time": 252.5374999999953,
                    "velocity": 0.889763779527559,
                    "duration": 0.3916666666666231
                },
                {
                    "name": "G#5",
                    "midi": 80,
                    "time": 252.54166666666197,
                    "velocity": 0.1968503937007874,
                    "duration": 0.10208333333332575
                },
                {
                    "name": "F5",
                    "midi": 77,
                    "time": 252.57916666666196,
                    "velocity": 0.5905511811023622,
                    "duration": 0.07499999999998863
                },
                {
                    "name": "F#5",
                    "midi": 78,
                    "time": 252.59166666666195,
                    "velocity": 0.5590551181102362,
                    "duration": 0.10208333333332575
                },
                {
                    "name": "E5",
                    "midi": 76,
                    "time": 252.62291666666195,
                    "velocity": 0.6141732283464567,
                    "duration": 0.08541666666664582
                },
                {
                    "name": "D5",
                    "midi": 74,
                    "time": 252.6645833333286,
                    "velocity": 0.5590551181102362,
                    "duration": 0.08333333333331439
                },
                {
                    "name": "D#5",
                    "midi": 75,
                    "time": 252.6645833333286,
                    "velocity": 0.5433070866141733,
                    "duration": 0.10416666666665719
                },
                {
                    "name": "C5",
                    "midi": 72,
                    "time": 252.7083333333286,
                    "velocity": 0.4645669291338583,
                    "duration": 0.08541666666667425
                },
                {
                    "name": "C#5",
                    "midi": 73,
                    "time": 252.72291666666192,
                    "velocity": 0.5590551181102362,
                    "duration": 0.11041666666667993
                },
                {
                    "name": "B4",
                    "midi": 71,
                    "time": 252.75208333332859,
                    "velocity": 0.5354330708661418,
                    "duration": 0.08125000000001137
                },
                {
                    "name": "A#4",
                    "midi": 70,
                    "time": 252.79374999999527,
                    "velocity": 0.7480314960629921,
                    "duration": 0.10208333333332575
                },
                {
                    "name": "A4",
                    "midi": 69,
                    "time": 252.79791666666193,
                    "velocity": 0.4251968503937008,
                    "duration": 0.08541666666667425
                },
                {
                    "name": "G#4",
                    "midi": 68,
                    "time": 252.8520833333286,
                    "velocity": 0.14173228346456693,
                    "duration": 0.09583333333330302
                },
                {
                    "name": "F4",
                    "midi": 65,
                    "time": 252.8958333333286,
                    "velocity": 0.3543307086614173,
                    "duration": 0.07291666666662877
                },
                {
                    "name": "F#4",
                    "midi": 66,
                    "time": 252.89999999999526,
                    "velocity": 0.6929133858267716,
                    "duration": 0.09374999999994316
                },
                {
                    "name": "E4",
                    "midi": 64,
                    "time": 252.93541666666192,
                    "velocity": 0.4566929133858268,
                    "duration": 0.07708333333326323
                },
                {
                    "name": "D4",
                    "midi": 62,
                    "time": 252.97916666666188,
                    "velocity": 0.3937007874015748,
                    "duration": 0.07083333333329733
                },
                {
                    "name": "C#4",
                    "midi": 61,
                    "time": 253.02291666666184,
                    "velocity": 0.12598425196850394,
                    "duration": 0.08333333333331439
                },
                {
                    "name": "C4",
                    "midi": 60,
                    "time": 253.02499999999517,
                    "velocity": 0.2283464566929134,
                    "duration": 0.06458333333333144
                },
                {
                    "name": "B3",
                    "midi": 59,
                    "time": 253.05416666666184,
                    "velocity": 0.44881889763779526,
                    "duration": 0.07708333333332007
                },
                {
                    "name": "A#3",
                    "midi": 58,
                    "time": 253.0833333333285,
                    "velocity": 0.1889763779527559,
                    "duration": 0.0895833333333087
                },
                {
                    "name": "A3",
                    "midi": 57,
                    "time": 253.09374999999517,
                    "velocity": 0.4015748031496063,
                    "duration": 0.07916666666665151
                },
                {
                    "name": "G#3",
                    "midi": 56,
                    "time": 253.13124999999516,
                    "velocity": 0.1889763779527559,
                    "duration": 0.07916666666665151
                },
                {
                    "name": "G3",
                    "midi": 55,
                    "time": 253.1333333333285,
                    "velocity": 0.2677165354330709,
                    "duration": 0.07916666666665151
                },
                {
                    "name": "F#3",
                    "midi": 54,
                    "time": 253.1708333333285,
                    "velocity": 0.2992125984251969,
                    "duration": 0.07499999999996021
                },
                {
                    "name": "F3",
                    "midi": 53,
                    "time": 253.17291666666182,
                    "velocity": 0.4015748031496063,
                    "duration": 0.07291666666662877
                },
                {
                    "name": "G6",
                    "midi": 91,
                    "time": 253.1791666666618,
                    "velocity": 0.8346456692913385,
                    "duration": 0.514583333333178
                },
                {
                    "name": "A#6",
                    "midi": 94,
                    "time": 253.18124999999515,
                    "velocity": 0.905511811023622,
                    "duration": 0.4833333333332064
                },
                {
                    "name": "A#5",
                    "midi": 82,
                    "time": 253.18333333332848,
                    "velocity": 0.984251968503937,
                    "duration": 0.49166666666653214
                },
                {
                    "name": "G4",
                    "midi": 67,
                    "time": 253.18333333332848,
                    "velocity": 0.8818897637795275,
                    "duration": 0.05624999999997726
                },
                {
                    "name": "D#6",
                    "midi": 87,
                    "time": 253.1854166666618,
                    "velocity": 0.8976377952755905,
                    "duration": 0.4687499999998863
                },
                {
                    "name": "D#4",
                    "midi": 63,
                    "time": 253.1854166666618,
                    "velocity": 0.9448818897637795,
                    "duration": 0.04999999999998295
                },
                {
                    "name": "A#3",
                    "midi": 58,
                    "time": 253.18958333332847,
                    "velocity": 0.8818897637795275,
                    "duration": 0.06249999999997158
                },
                {
                    "name": "E3",
                    "midi": 52,
                    "time": 253.20833333332848,
                    "velocity": 0.3858267716535433,
                    "duration": 0.07708333333329165
                },
                {
                    "name": "D#3",
                    "midi": 51,
                    "time": 253.2229166666618,
                    "velocity": 0.6929133858267716,
                    "duration": 0.08333333333331439
                },
                {
                    "name": "D3",
                    "midi": 50,
                    "time": 253.24583333332845,
                    "velocity": 0.3937007874015748,
                    "duration": 0.07499999999998863
                },
                {
                    "name": "C#3",
                    "midi": 49,
                    "time": 253.26041666666177,
                    "velocity": 0.4566929133858268,
                    "duration": 0.08749999999997726
                },
                {
                    "name": "C3",
                    "midi": 48,
                    "time": 253.2874999999951,
                    "velocity": 0.4645669291338583,
                    "duration": 0.08124999999995453
                },
                {
                    "name": "B2",
                    "midi": 47,
                    "time": 253.3249999999951,
                    "velocity": 0.5039370078740157,
                    "duration": 0.0999999999999659
                },
                {
                    "name": "A#2",
                    "midi": 46,
                    "time": 253.33333333332843,
                    "velocity": 0.7637795275590551,
                    "duration": 0.17708333333328596
                },
                {
                    "name": "A2",
                    "midi": 45,
                    "time": 253.3708333333284,
                    "velocity": 0.3937007874015748,
                    "duration": 0.13958333333332007
                },
                {
                    "name": "G#2",
                    "midi": 44,
                    "time": 253.46874999999505,
                    "velocity": 0.12598425196850394,
                    "duration": 0.05624999999997726
                },
                {
                    "name": "F2",
                    "midi": 41,
                    "time": 253.62499999999503,
                    "velocity": 1,
                    "duration": 0.3187499999999659
                },
                {
                    "name": "F1",
                    "midi": 29,
                    "time": 253.63749999999501,
                    "velocity": 0.9448818897637795,
                    "duration": 0.09166666666664014
                },
                {
                    "name": "G4",
                    "midi": 67,
                    "time": 254.12291666666167,
                    "velocity": 0.7874015748031497,
                    "duration": 0.0687499999999659
                },
                {
                    "name": "A#3",
                    "midi": 58,
                    "time": 254.12916666666166,
                    "velocity": 0.7952755905511811,
                    "duration": 0.0687499999999659
                },
                {
                    "name": "A#5",
                    "midi": 82,
                    "time": 254.12916666666166,
                    "velocity": 0.968503937007874,
                    "duration": 0.06249999999997158
                },
                {
                    "name": "D#4",
                    "midi": 63,
                    "time": 254.13333333332832,
                    "velocity": 0.7480314960629921,
                    "duration": 0.03541666666666288
                },
                {
                    "name": "G6",
                    "midi": 91,
                    "time": 254.13541666666165,
                    "velocity": 0.7559055118110236,
                    "duration": 0.07708333333329165
                },
                {
                    "name": "A#6",
                    "midi": 94,
                    "time": 254.14166666666165,
                    "velocity": 0.7559055118110236,
                    "duration": 0.03125
                },
                {
                    "name": "D#6",
                    "midi": 87,
                    "time": 254.14374999999498,
                    "velocity": 0.7244094488188977,
                    "duration": 0.03333333333333144
                },
                {
                    "name": "A#5",
                    "midi": 82,
                    "time": 254.26041666666163,
                    "velocity": 0.8582677165354331,
                    "duration": 0.06249999999997158
                },
                {
                    "name": "G4",
                    "midi": 67,
                    "time": 254.26249999999496,
                    "velocity": 0.8031496062992126,
                    "duration": 0.07291666666662877
                },
                {
                    "name": "G6",
                    "midi": 91,
                    "time": 254.26666666666162,
                    "velocity": 0.6771653543307087,
                    "duration": 0.06666666666663446
                },
                {
                    "name": "A#6",
                    "midi": 94,
                    "time": 254.27083333332828,
                    "velocity": 0.7007874015748031,
                    "duration": 0.03541666666666288
                },
                {
                    "name": "A#3",
                    "midi": 58,
                    "time": 254.27083333332828,
                    "velocity": 0.7007874015748031,
                    "duration": 0.0583333333333087
                },
                {
                    "name": "D#4",
                    "midi": 63,
                    "time": 254.27499999999495,
                    "velocity": 0.7322834645669292,
                    "duration": 0.03541666666666288
                },
                {
                    "name": "D#6",
                    "midi": 87,
                    "time": 254.28749999999494,
                    "velocity": 0.5511811023622047,
                    "duration": 0.03541666666666288
                },
                {
                    "name": "A#5",
                    "midi": 82,
                    "time": 254.38749999999493,
                    "velocity": 0.84251968503937,
                    "duration": 0.09374999999997158
                },
                {
                    "name": "A#6",
                    "midi": 94,
                    "time": 254.39374999999492,
                    "velocity": 0.7559055118110236,
                    "duration": 0.09166666666664014
                },
                {
                    "name": "A#3",
                    "midi": 58,
                    "time": 254.39374999999492,
                    "velocity": 0.7007874015748031,
                    "duration": 0.10833333333329165
                },
                {
                    "name": "G4",
                    "midi": 67,
                    "time": 254.3979166666616,
                    "velocity": 0.7244094488188977,
                    "duration": 0.0895833333333087
                },
                {
                    "name": "G6",
                    "midi": 91,
                    "time": 254.3979166666616,
                    "velocity": 0.6535433070866141,
                    "duration": 0.08541666666664582
                },
                {
                    "name": "D#6",
                    "midi": 87,
                    "time": 254.41041666666158,
                    "velocity": 0.5748031496062992,
                    "duration": 0.037499999999994316
                },
                {
                    "name": "D#4",
                    "midi": 63,
                    "time": 254.41458333332824,
                    "velocity": 0.6692913385826772,
                    "duration": 0.03333333333333144
                },
                {
                    "name": "D4",
                    "midi": 62,
                    "time": 254.72499999999488,
                    "velocity": 0.7874015748031497,
                    "duration": 0.07083333333329733
                },
                {
                    "name": "A3",
                    "midi": 57,
                    "time": 254.7270833333282,
                    "velocity": 0.6141732283464567,
                    "duration": 0.06041666666664014
                },
                {
                    "name": "F#4",
                    "midi": 66,
                    "time": 254.7333333333282,
                    "velocity": 0.7795275590551181,
                    "duration": 0.04791666666665151
                },
                {
                    "name": "A5",
                    "midi": 81,
                    "time": 254.74166666666153,
                    "velocity": 0.8031496062992126,
                    "duration": 0.06458333333330302
                },
                {
                    "name": "A6",
                    "midi": 93,
                    "time": 254.7458333333282,
                    "velocity": 0.6850393700787402,
                    "duration": 0.05624999999997726
                },
                {
                    "name": "D6",
                    "midi": 86,
                    "time": 254.74791666666152,
                    "velocity": 0.6692913385826772,
                    "duration": 0.04166666666665719
                },
                {
                    "name": "F#6",
                    "midi": 90,
                    "time": 254.74999999999486,
                    "velocity": 0.6377952755905512,
                    "duration": 0.04374999999998863
                },
                {
                    "name": "F#4",
                    "midi": 66,
                    "time": 254.85624999999484,
                    "velocity": 0.7559055118110236,
                    "duration": 0.0583333333333087
                },
                {
                    "name": "A6",
                    "midi": 93,
                    "time": 254.85833333332818,
                    "velocity": 0.6377952755905512,
                    "duration": 0.07291666666662877
                },
                {
                    "name": "A5",
                    "midi": 81,
                    "time": 254.85833333332818,
                    "velocity": 0.7637795275590551,
                    "duration": 0.07083333333329733
                },
                {
                    "name": "D4",
                    "midi": 62,
                    "time": 254.8604166666615,
                    "velocity": 0.7244094488188977,
                    "duration": 0.07499999999996021
                },
                {
                    "name": "A3",
                    "midi": 57,
                    "time": 254.87083333332816,
                    "velocity": 0.47244094488188976,
                    "duration": 0.054166666666645824
                },
                {
                    "name": "F#6",
                    "midi": 90,
                    "time": 254.8729166666615,
                    "velocity": 0.6299212598425197,
                    "duration": 0.06041666666664014
                },
                {
                    "name": "D6",
                    "midi": 86,
                    "time": 254.87499999999483,
                    "velocity": 0.7007874015748031,
                    "duration": 0.037499999999994316
                },
                {
                    "name": "A6",
                    "midi": 93,
                    "time": 254.9937499999948,
                    "velocity": 0.7401574803149606,
                    "duration": 0.06666666666666288
                },
                {
                    "name": "A5",
                    "midi": 81,
                    "time": 254.99583333332814,
                    "velocity": 0.8346456692913385,
                    "duration": 0.08124999999998295
                },
                {
                    "name": "F#4",
                    "midi": 66,
                    "time": 254.9999999999948,
                    "velocity": 0.8503937007874016,
                    "duration": 0.08333333333331439
                },
                {
                    "name": "D6",
                    "midi": 86,
                    "time": 254.9999999999948,
                    "velocity": 0.8346456692913385,
                    "duration": 0.06666666666666288
                },
                {
                    "name": "F#6",
                    "midi": 90,
                    "time": 255.00208333332813,
                    "velocity": 0.6929133858267716,
                    "duration": 0.06041666666666856
                },
                {
                    "name": "A3",
                    "midi": 57,
                    "time": 255.00208333332813,
                    "velocity": 0.7007874015748031,
                    "duration": 0.09166666666664014
                },
                {
                    "name": "D4",
                    "midi": 62,
                    "time": 255.00208333332813,
                    "velocity": 0.7559055118110236,
                    "duration": 0.06666666666666288
                },
                {
                    "name": "D#4",
                    "midi": 63,
                    "time": 255.33333333332808,
                    "velocity": 0.7952755905511811,
                    "duration": 0.04583333333332007
                },
                {
                    "name": "G5",
                    "midi": 79,
                    "time": 255.33749999999475,
                    "velocity": 0.7952755905511811,
                    "duration": 0.04999999999998295
                },
                {
                    "name": "C6",
                    "midi": 84,
                    "time": 255.3416666666614,
                    "velocity": 0.7559055118110236,
                    "duration": 0.04583333333332007
                },
                {
                    "name": "G6",
                    "midi": 91,
                    "time": 255.3416666666614,
                    "velocity": 0.7086614173228346,
                    "duration": 0.04374999999998863
                },
                {
                    "name": "D#6",
                    "midi": 87,
                    "time": 255.3416666666614,
                    "velocity": 0.7165354330708661,
                    "duration": 0.04791666666665151
                },
                {
                    "name": "G3",
                    "midi": 55,
                    "time": 255.34374999999474,
                    "velocity": 0.5748031496062992,
                    "duration": 0.054166666666645824
                },
                {
                    "name": "C4",
                    "midi": 60,
                    "time": 255.34374999999474,
                    "velocity": 0.6377952755905512,
                    "duration": 0.04374999999998863
                },
                {
                    "name": "D#4",
                    "midi": 63,
                    "time": 255.4479166666614,
                    "velocity": 0.7244094488188977,
                    "duration": 0.07083333333329733
                },
                {
                    "name": "G3",
                    "midi": 55,
                    "time": 255.44999999999473,
                    "velocity": 0.6535433070866141,
                    "duration": 0.07708333333329165
                },
                {
                    "name": "G5",
                    "midi": 79,
                    "time": 255.4604166666614,
                    "velocity": 0.7716535433070866,
                    "duration": 0.04166666666665719
                },
                {
                    "name": "G6",
                    "midi": 91,
                    "time": 255.46458333332805,
                    "velocity": 0.6614173228346457,
                    "duration": 0.04999999999998295
                },
                {
                    "name": "C6",
                    "midi": 84,
                    "time": 255.47083333332805,
                    "velocity": 0.6062992125984252,
                    "duration": 0.04166666666665719
                },
                {
                    "name": "C4",
                    "midi": 60,
                    "time": 255.47291666666138,
                    "velocity": 0.6456692913385826,
                    "duration": 0.03541666666666288
                },
                {
                    "name": "D#6",
                    "midi": 87,
                    "time": 255.47708333332804,
                    "velocity": 0.5511811023622047,
                    "duration": 0.03333333333333144
                },
                {
                    "name": "G5",
                    "midi": 79,
                    "time": 255.5874999999947,
                    "velocity": 0.7952755905511811,
                    "duration": 0.04166666666665719
                },
                {
                    "name": "C6",
                    "midi": 84,
                    "time": 255.58958333332802,
                    "velocity": 0.7952755905511811,
                    "duration": 0.0583333333333087
                },
                {
                    "name": "D#4",
                    "midi": 63,
                    "time": 255.59374999999469,
                    "velocity": 0.7007874015748031,
                    "duration": 0.06041666666664014
                },
                {
                    "name": "G3",
                    "midi": 55,
                    "time": 255.59374999999469,
                    "velocity": 0.6062992125984252,
                    "duration": 0.06666666666663446
                },
                {
                    "name": "G6",
                    "midi": 91,
                    "time": 255.59583333332802,
                    "velocity": 0.5984251968503937,
                    "duration": 0.04374999999998863
                },
                {
                    "name": "D#6",
                    "midi": 87,
                    "time": 255.59583333332802,
                    "velocity": 0.6299212598425197,
                    "duration": 0.052083333333314386
                },
                {
                    "name": "C4",
                    "midi": 60,
                    "time": 255.59999999999468,
                    "velocity": 0.7874015748031497,
                    "duration": 0.06249999999997158
                },
                {
                    "name": "F#3",
                    "midi": 54,
                    "time": 255.91041666666132,
                    "velocity": 0.7874015748031497,
                    "duration": 0.10624999999998863
                },
                {
                    "name": "F#6",
                    "midi": 90,
                    "time": 255.91874999999465,
                    "velocity": 0.84251968503937,
                    "duration": 0.08749999999997726
                },
                {
                    "name": "F#5",
                    "midi": 78,
                    "time": 255.91874999999465,
                    "velocity": 0.8582677165354331,
                    "duration": 0.039583333333325754
                },
                {
                    "name": "D#4",
                    "midi": 63,
                    "time": 255.9229166666613,
                    "velocity": 0.7637795275590551,
                    "duration": 0.06458333333330302
                },
                {
                    "name": "B3",
                    "midi": 59,
                    "time": 255.9229166666613,
                    "velocity": 0.6929133858267716,
                    "duration": 0.04999999999998295
                },
                {
                    "name": "B5",
                    "midi": 83,
                    "time": 255.92499999999464,
                    "velocity": 0.6850393700787402,
                    "duration": 0.04374999999998863
                },
                {
                    "name": "D#6",
                    "midi": 87,
                    "time": 255.93333333332797,
                    "velocity": 0.6220472440944882,
                    "duration": 0.037499999999994316
                },
                {
                    "name": "G3",
                    "midi": 55,
                    "time": 256.22083333332796,
                    "velocity": 0.6850393700787402,
                    "duration": 0.07083333333349628
                },
                {
                    "name": "C6",
                    "midi": 84,
                    "time": 256.2291666666613,
                    "velocity": 0.8188976377952756,
                    "duration": 0.05625000000014779
                },
                {
                    "name": "D#4",
                    "midi": 63,
                    "time": 256.23124999999465,
                    "velocity": 0.8503937007874016,
                    "duration": 0.06458333333347355
                },
                {
                    "name": "D#6",
                    "midi": 87,
                    "time": 256.233333333328,
                    "velocity": 0.7716535433070866,
                    "duration": 0.06458333333347355
                },
                {
                    "name": "C4",
                    "midi": 60,
                    "time": 256.23541666666137,
                    "velocity": 0.7244094488188977,
                    "duration": 0.03750000000002274
                },
                {
                    "name": "G6",
                    "midi": 91,
                    "time": 256.23541666666137,
                    "velocity": 0.7165354330708661,
                    "duration": 0.06041666666675383
                },
                {
                    "name": "G5",
                    "midi": 79,
                    "time": 256.2374999999947,
                    "velocity": 0.7244094488188977,
                    "duration": 0.03750000000002274
                },
                {
                    "name": "A4",
                    "midi": 69,
                    "time": 256.5479166666615,
                    "velocity": 0.8582677165354331,
                    "duration": 0.06250000000017053
                },
                {
                    "name": "D4",
                    "midi": 62,
                    "time": 256.54999999999484,
                    "velocity": 0.8503937007874016,
                    "duration": 0.06875000000019327
                },
                {
                    "name": "F#4",
                    "midi": 66,
                    "time": 256.5520833333282,
                    "velocity": 0.8818897637795275,
                    "duration": 0.06041666666681067
                },
                {
                    "name": "D6",
                    "midi": 86,
                    "time": 256.5604166666616,
                    "velocity": 0.8976377952755905,
                    "duration": 0.05833333333345081
                },
                {
                    "name": "A6",
                    "midi": 93,
                    "time": 256.5604166666616,
                    "velocity": 0.7874015748031497,
                    "duration": 0.08541666666678793
                },
                {
                    "name": "F#6",
                    "midi": 90,
                    "time": 256.56249999999494,
                    "velocity": 0.8503937007874016,
                    "duration": 0.08750000000009095
                },
                {
                    "name": "A5",
                    "midi": 81,
                    "time": 256.56249999999494,
                    "velocity": 0.9291338582677166,
                    "duration": 0.041666666666685614
                },
                {
                    "name": "A5",
                    "midi": 81,
                    "time": 256.71249999999503,
                    "velocity": 0.7244094488188977,
                    "duration": 0.10000000000002274
                },
                {
                    "name": "F#6",
                    "midi": 90,
                    "time": 256.71874999999505,
                    "velocity": 0.33858267716535434,
                    "duration": 0.04374999999998863
                },
                {
                    "name": "C#6",
                    "midi": 85,
                    "time": 256.89374999999507,
                    "velocity": 0.84251968503937,
                    "duration": 0.08333333333331439
                },
                {
                    "name": "A#3",
                    "midi": 58,
                    "time": 256.98749999999507,
                    "velocity": 0.7795275590551181,
                    "duration": 0.1020833333333826
                },
                {
                    "name": "F#4",
                    "midi": 66,
                    "time": 256.98749999999507,
                    "velocity": 0.8188976377952756,
                    "duration": 0.06875000000002274
                },
                {
                    "name": "D#4",
                    "midi": 63,
                    "time": 256.99791666666175,
                    "velocity": 0.7007874015748031,
                    "duration": 0.06458333333335986
                },
                {
                    "name": "D6",
                    "midi": 86,
                    "time": 257.0208333333284,
                    "velocity": 0.7874015748031497,
                    "duration": 0.13125000000002274
                },
                {
                    "name": "F6",
                    "midi": 89,
                    "time": 257.1749999999951,
                    "velocity": 0.9291338582677166,
                    "duration": 0.19375000000002274
                },
                {
                    "name": "A4",
                    "midi": 69,
                    "time": 257.18333333332845,
                    "velocity": 0.8740157480314961,
                    "duration": 0.027083333333337123
                },
                {
                    "name": "F#4",
                    "midi": 66,
                    "time": 257.1874999999951,
                    "velocity": 0.8818897637795275,
                    "duration": 0.056250000000034106
                },
                {
                    "name": "D4",
                    "midi": 62,
                    "time": 257.1874999999951,
                    "velocity": 0.84251968503937,
                    "duration": 0.07291666666668561
                },
                {
                    "name": "F#6",
                    "midi": 90,
                    "time": 257.3104166666618,
                    "velocity": 0.8503937007874016,
                    "duration": 0.19166666666671972
                },
                {
                    "name": "A6",
                    "midi": 93,
                    "time": 257.46041666666184,
                    "velocity": 0.8740157480314961,
                    "duration": 0.1875
                },
                {
                    "name": "A#2",
                    "midi": 46,
                    "time": 257.46666666666187,
                    "velocity": 0.7322834645669292,
                    "duration": 0.06041666666664014
                },
                {
                    "name": "A#1",
                    "midi": 34,
                    "time": 257.4708333333285,
                    "velocity": 0.7716535433070866,
                    "duration": 0.06458333333330302
                },
                {
                    "name": "F#6",
                    "midi": 90,
                    "time": 257.59374999999517,
                    "velocity": 0.8661417322834646,
                    "duration": 0.14999999999997726
                },
                {
                    "name": "D4",
                    "midi": 62,
                    "time": 257.73124999999516,
                    "velocity": 0.8976377952755905,
                    "duration": 0.07499999999998863
                },
                {
                    "name": "A6",
                    "midi": 93,
                    "time": 257.7354166666618,
                    "velocity": 0.8346456692913385,
                    "duration": 0.23750000000001137
                },
                {
                    "name": "A#3",
                    "midi": 58,
                    "time": 257.7395833333285,
                    "velocity": 0.8503937007874016,
                    "duration": 0.06666666666666288
                },
                {
                    "name": "F3",
                    "midi": 53,
                    "time": 257.74999999999517,
                    "velocity": 0.6692913385826772,
                    "duration": 0.07083333333332575
                },
                {
                    "name": "G6",
                    "midi": 91,
                    "time": 257.8708333333285,
                    "velocity": 0.8110236220472441,
                    "duration": 0.24583333333333712
                },
                {
                    "name": "F6",
                    "midi": 89,
                    "time": 258.0583333333285,
                    "velocity": 0.8110236220472441,
                    "duration": 0.12708333333335986
                },
                {
                    "name": "D4",
                    "midi": 62,
                    "time": 258.06041666666187,
                    "velocity": 0.8346456692913385,
                    "duration": 0.03541666666666288
                },
                {
                    "name": "F3",
                    "midi": 53,
                    "time": 258.06041666666187,
                    "velocity": 0.8740157480314961,
                    "duration": 0.07083333333332575
                },
                {
                    "name": "A#3",
                    "midi": 58,
                    "time": 258.0666666666619,
                    "velocity": 0.7716535433070866,
                    "duration": 0.03333333333330302
                },
                {
                    "name": "D6",
                    "midi": 86,
                    "time": 258.17708333332854,
                    "velocity": 0.7716535433070866,
                    "duration": 0.07083333333332575
                },
                {
                    "name": "A#1",
                    "midi": 34,
                    "time": 258.3229166666619,
                    "velocity": 0.8110236220472441,
                    "duration": 0.06666666666666288
                },
                {
                    "name": "A#2",
                    "midi": 46,
                    "time": 258.3333333333286,
                    "velocity": 0.7322834645669292,
                    "duration": 0.05624999999997726
                },
                {
                    "name": "C6",
                    "midi": 84,
                    "time": 258.3416666666619,
                    "velocity": 0.7952755905511811,
                    "duration": 0.17083333333329165
                },
                {
                    "name": "A#5",
                    "midi": 82,
                    "time": 258.4604166666619,
                    "velocity": 0.8661417322834646,
                    "duration": 0.2104166666667311
                },
                {
                    "name": "A#3",
                    "midi": 58,
                    "time": 258.61249999999524,
                    "velocity": 0.7795275590551181,
                    "duration": 0.11041666666670835
                },
                {
                    "name": "D4",
                    "midi": 62,
                    "time": 258.61874999999526,
                    "velocity": 0.7716535433070866,
                    "duration": 0.10000000000002274
                },
                {
                    "name": "A5",
                    "midi": 81,
                    "time": 258.6249999999953,
                    "velocity": 0.8188976377952756,
                    "duration": 0.10000000000002274
                },
                {
                    "name": "F3",
                    "midi": 53,
                    "time": 258.63749999999527,
                    "velocity": 0.5039370078740157,
                    "duration": 0.12708333333335986
                },
                {
                    "name": "G5",
                    "midi": 79,
                    "time": 258.75208333332864,
                    "velocity": 0.6299212598425197,
                    "duration": 0.037499999999965894
                },
                {
                    "name": "C#5",
                    "midi": 73,
                    "time": 258.91249999999525,
                    "velocity": 0.889763779527559,
                    "duration": 0.039583333333325754
                },
                {
                    "name": "D4",
                    "midi": 62,
                    "time": 258.9270833333286,
                    "velocity": 0.7401574803149606,
                    "duration": 0.03333333333330302
                },
                {
                    "name": "A#3",
                    "midi": 58,
                    "time": 258.93124999999526,
                    "velocity": 0.7244094488188977,
                    "duration": 0.037499999999965894
                },
                {
                    "name": "F3",
                    "midi": 53,
                    "time": 258.9354166666619,
                    "velocity": 0.6614173228346457,
                    "duration": 0.06458333333330302
                },
                {
                    "name": "E5",
                    "midi": 76,
                    "time": 259.05208333332854,
                    "velocity": 0.8188976377952756,
                    "duration": 0.09791666666666288
                },
                {
                    "name": "F2",
                    "midi": 41,
                    "time": 259.2520833333285,
                    "velocity": 0.8110236220472441,
                    "duration": 0.0625
                },
                {
                    "name": "D3",
                    "midi": 50,
                    "time": 259.66458333332855,
                    "velocity": 0.6220472440944882,
                    "duration": 0.125
                },
                {
                    "name": "C#3",
                    "midi": 49,
                    "time": 259.6812499999952,
                    "velocity": 0.3858267716535433,
                    "duration": 0.0395833333333826
                },
                {
                    "name": "D#3",
                    "midi": 51,
                    "time": 259.68333333332856,
                    "velocity": 0.6062992125984252,
                    "duration": 0.23541666666670835
                },
                {
                    "name": "A#3",
                    "midi": 58,
                    "time": 259.6874999999952,
                    "velocity": 0.8267716535433071,
                    "duration": 0.06041666666669698
                },
                {
                    "name": "A4",
                    "midi": 69,
                    "time": 259.6895833333286,
                    "velocity": 0.9133858267716536,
                    "duration": 0.07083333333332575
                },
                {
                    "name": "F#3",
                    "midi": 54,
                    "time": 259.6979166666619,
                    "velocity": 0.7086614173228346,
                    "duration": 0.03750000000002274
                },
                {
                    "name": "D4",
                    "midi": 62,
                    "time": 259.70416666666193,
                    "velocity": 0.8110236220472441,
                    "duration": 0.02916666666664014
                },
                {
                    "name": "E3",
                    "midi": 52,
                    "time": 259.73541666666193,
                    "velocity": 0.06299212598425197,
                    "duration": 0.13541666666662877
                },
                {
                    "name": "F#3",
                    "midi": 54,
                    "time": 259.91249999999525,
                    "velocity": 0.4094488188976378,
                    "duration": 0.1333333333333826
                },
                {
                    "name": "G3",
                    "midi": 55,
                    "time": 260.0020833333286,
                    "velocity": 0.33858267716535434,
                    "duration": 0.058333333333393966
                },
                {
                    "name": "G#3",
                    "midi": 56,
                    "time": 260.0083333333286,
                    "velocity": 0.07874015748031496,
                    "duration": 0.10625000000010232
                },
                {
                    "name": "A3",
                    "midi": 57,
                    "time": 260.04166666666197,
                    "velocity": 0.3937007874015748,
                    "duration": 0.0791666666667652
                },
                {
                    "name": "B3",
                    "midi": 59,
                    "time": 260.07083333332866,
                    "velocity": 0.4409448818897638,
                    "duration": 0.12916666666671972
                },
                {
                    "name": "A#3",
                    "midi": 58,
                    "time": 260.08124999999535,
                    "velocity": 0.05511811023622047,
                    "duration": 0.14583333333342807
                },
                {
                    "name": "C#4",
                    "midi": 61,
                    "time": 260.20208333332874,
                    "velocity": 0.06299212598425197,
                    "duration": 0.14375000000001137
                },
                {
                    "name": "C4",
                    "midi": 60,
                    "time": 260.2249999999954,
                    "velocity": 0.7007874015748031,
                    "duration": 0.043750000000045475
                },
                {
                    "name": "D4",
                    "midi": 62,
                    "time": 260.2958333333288,
                    "velocity": 0.6299212598425197,
                    "duration": 0.037499999999965894
                },
                {
                    "name": "D#4",
                    "midi": 63,
                    "time": 260.31249999999545,
                    "velocity": 0.03937007874015748,
                    "duration": 0.1229166666665833
                },
                {
                    "name": "E4",
                    "midi": 64,
                    "time": 260.3749999999954,
                    "velocity": 0.6220472440944882,
                    "duration": 0.039583333333325754
                },
                {
                    "name": "F#4",
                    "midi": 66,
                    "time": 260.41041666666206,
                    "velocity": 0.047244094488188976,
                    "duration": 0.1895833333334167
                },
                {
                    "name": "F4",
                    "midi": 65,
                    "time": 260.460416666662,
                    "velocity": 0.6062992125984252,
                    "duration": 0.06875000000002274
                },
                {
                    "name": "G4",
                    "midi": 67,
                    "time": 260.541666666662,
                    "velocity": 0.7952755905511811,
                    "duration": 0.670833333333519
                },
                {
                    "name": "A#3",
                    "midi": 58,
                    "time": 260.5437499999954,
                    "velocity": 0.5118110236220472,
                    "duration": 0.641666666666822
                },
                {
                    "name": "G#4",
                    "midi": 68,
                    "time": 260.5499999999954,
                    "velocity": 0.03937007874015748,
                    "duration": 0.1437500000000682
                },
                {
                    "name": "D4",
                    "midi": 62,
                    "time": 260.5604166666621,
                    "velocity": 0.7401574803149606,
                    "duration": 0.6333333333334394
                },
                {
                    "name": "F3",
                    "midi": 53,
                    "time": 260.58749999999543,
                    "velocity": 0.5748031496062992,
                    "duration": 0.8166666666667197
                },
                {
                    "name": "A#4",
                    "midi": 70,
                    "time": 260.5979166666621,
                    "velocity": 0.3937007874015748,
                    "duration": 0.1791666666667311
                },
                {
                    "name": "A4",
                    "midi": 69,
                    "time": 260.64166666666216,
                    "velocity": 0.08661417322834646,
                    "duration": 0.10416666666662877
                },
                {
                    "name": "B4",
                    "midi": 71,
                    "time": 260.7229166666621,
                    "velocity": 0.28346456692913385,
                    "duration": 0.11666666666673109
                },
                {
                    "name": "C#5",
                    "midi": 73,
                    "time": 260.7520833333288,
                    "velocity": 0.4094488188976378,
                    "duration": 0.3208333333333826
                },
                {
                    "name": "C5",
                    "midi": 72,
                    "time": 260.79583333332886,
                    "velocity": 0.2283464566929134,
                    "duration": 0.2354166666666515
                },
                {
                    "name": "D5",
                    "midi": 74,
                    "time": 261.0208333333288,
                    "velocity": 0.16535433070866143,
                    "duration": 0.11458333333337123
                },
                {
                    "name": "D#5",
                    "midi": 75,
                    "time": 261.0499999999955,
                    "velocity": 0.3228346456692913,
                    "duration": 0.14375000000001137
                },
                {
                    "name": "A#3",
                    "midi": 58,
                    "time": 261.3312499999955,
                    "velocity": 0.5275590551181102,
                    "duration": 0.0854166666666174
                },
                {
                    "name": "E3",
                    "midi": 52,
                    "time": 261.3437499999955,
                    "velocity": 0.5354330708661418,
                    "duration": 0.11041666666665151
                },
                {
                    "name": "F#4",
                    "midi": 66,
                    "time": 261.36041666666216,
                    "velocity": 0.7401574803149606,
                    "duration": 0.2708333333333144
                },
                {
                    "name": "D4",
                    "midi": 62,
                    "time": 261.3666666666622,
                    "velocity": 0.5354330708661418,
                    "duration": 0.252083333333303
                },
                {
                    "name": "A#0",
                    "midi": 22,
                    "time": 262.0833333333288,
                    "velocity": 1,
                    "duration": 0.29166666666696983
                },
                {
                    "name": "E1",
                    "midi": 28,
                    "time": 262.0854166666622,
                    "velocity": 1,
                    "duration": 0.24583333333350765
                },
                {
                    "name": "A0",
                    "midi": 21,
                    "time": 262.08749999999554,
                    "velocity": 0.9448818897637795,
                    "duration": 0.2791666666668675
                },
                {
                    "name": "F1",
                    "midi": 29,
                    "time": 262.0895833333289,
                    "velocity": 1,
                    "duration": 0.04583333333346218
                },
                {
                    "name": "B0",
                    "midi": 23,
                    "time": 262.0895833333289,
                    "velocity": 0.984251968503937,
                    "duration": 0.2791666666668675
                },
                {
                    "name": "C#1",
                    "midi": 25,
                    "time": 262.0895833333289,
                    "velocity": 0.968503937007874,
                    "duration": 0.2437500000001478
                },
                {
                    "name": "D1",
                    "midi": 26,
                    "time": 262.09166666666226,
                    "velocity": 0.984251968503937,
                    "duration": 0.1979166666667993
                },
                {
                    "name": "C1",
                    "midi": 24,
                    "time": 262.0937499999956,
                    "velocity": 0.9448818897637795,
                    "duration": 0.2208333333334167
                },
                {
                    "name": "A#1",
                    "midi": 34,
                    "time": 262.1062499999956,
                    "velocity": 0.9763779527559056,
                    "duration": 0.1729166666667652
                },
                {
                    "name": "G#1",
                    "midi": 32,
                    "time": 262.1062499999956,
                    "velocity": 0.968503937007874,
                    "duration": 0.16666666666674246
                },
                {
                    "name": "A1",
                    "midi": 33,
                    "time": 262.10833333332897,
                    "velocity": 0.952755905511811,
                    "duration": 0.13750000000004547
                },
                {
                    "name": "C#2",
                    "midi": 37,
                    "time": 262.11249999999563,
                    "velocity": 0.8818897637795275,
                    "duration": 0.1645833333333826
                },
                {
                    "name": "B1",
                    "midi": 35,
                    "time": 262.1166666666623,
                    "velocity": 0.8976377952755905,
                    "duration": 0.11250000000006821
                },
                {
                    "name": "G1",
                    "midi": 31,
                    "time": 262.11874999999566,
                    "velocity": 0.889763779527559,
                    "duration": 0.11458333333337123
                },
                {
                    "name": "C2",
                    "midi": 36,
                    "time": 262.120833333329,
                    "velocity": 0.9133858267716536,
                    "duration": 0.07708333333334849
                },
                {
                    "name": "D2",
                    "midi": 38,
                    "time": 262.1229166666624,
                    "velocity": 0.8582677165354331,
                    "duration": 0.03541666666666288
                },
                {
                    "name": "E2",
                    "midi": 40,
                    "time": 262.12708333332904,
                    "velocity": 0.7795275590551181,
                    "duration": 0.02916666666664014
                },
                {
                    "name": "A#3",
                    "midi": 58,
                    "time": 262.70208333332914,
                    "velocity": 0.9133858267716536,
                    "duration": 0.06041666666681067
                },
                {
                    "name": "E3",
                    "midi": 52,
                    "time": 262.7041666666625,
                    "velocity": 0.7874015748031497,
                    "duration": 0.07083333333349628
                },
                {
                    "name": "A#2",
                    "midi": 46,
                    "time": 262.7041666666625,
                    "velocity": 0.8188976377952756,
                    "duration": 0.2083333333335986
                },
                {
                    "name": "D5",
                    "midi": 74,
                    "time": 262.70624999999586,
                    "velocity": 0.9212598425196851,
                    "duration": 0.0729166666667993
                },
                {
                    "name": "E4",
                    "midi": 64,
                    "time": 262.7104166666625,
                    "velocity": 0.889763779527559,
                    "duration": 0.05625000000009095
                },
                {
                    "name": "A#4",
                    "midi": 70,
                    "time": 262.7124999999959,
                    "velocity": 0.8818897637795275,
                    "duration": 0.06041666666675383
                },
                {
                    "name": "D4",
                    "midi": 62,
                    "time": 262.7187499999959,
                    "velocity": 0.9133858267716536,
                    "duration": 0.024999999999977263
                },
                {
                    "name": "G#4",
                    "midi": 68,
                    "time": 262.74583333332924,
                    "velocity": 0.2992125984251969,
                    "duration": 0.035416666666776564
                },
                {
                    "name": "F4",
                    "midi": 65,
                    "time": 262.75208333332927,
                    "velocity": 0.30708661417322836,
                    "duration": 0.03750000000007958
                },
                {
                    "name": "A#3",
                    "midi": 58,
                    "time": 262.83333333332934,
                    "velocity": 0.7244094488188977,
                    "duration": 0.058333333333393966
                },
                {
                    "name": "E3",
                    "midi": 52,
                    "time": 262.8354166666627,
                    "velocity": 0.7795275590551181,
                    "duration": 0.07500000000004547
                },
                {
                    "name": "D5",
                    "midi": 74,
                    "time": 262.83958333332936,
                    "velocity": 0.8976377952755905,
                    "duration": 0.06250000000005684
                },
                {
                    "name": "A#4",
                    "midi": 70,
                    "time": 262.843749999996,
                    "velocity": 0.889763779527559,
                    "duration": 0.06250000000005684
                },
                {
                    "name": "E4",
                    "midi": 64,
                    "time": 262.8458333333294,
                    "velocity": 0.8582677165354331,
                    "duration": 0.04791666666670835
                },
                {
                    "name": "D4",
                    "midi": 62,
                    "time": 262.8458333333294,
                    "velocity": 0.9212598425196851,
                    "duration": 0.041666666666685614
                },
                {
                    "name": "E3",
                    "midi": 52,
                    "time": 262.9687499999961,
                    "velocity": 0.7637795275590551,
                    "duration": 0.08333333333348492
                },
                {
                    "name": "A#2",
                    "midi": 46,
                    "time": 262.97083333332944,
                    "velocity": 0.6771653543307087,
                    "duration": 0.09583333333347355
                },
                {
                    "name": "D5",
                    "midi": 74,
                    "time": 262.97083333332944,
                    "velocity": 0.8503937007874016,
                    "duration": 0.08750000000014779
                },
                {
                    "name": "A#4",
                    "midi": 70,
                    "time": 262.9729166666628,
                    "velocity": 0.8503937007874016,
                    "duration": 0.06875000000007958
                },
                {
                    "name": "A#3",
                    "midi": 58,
                    "time": 262.97499999999616,
                    "velocity": 0.6850393700787402,
                    "duration": 0.05208333333337123
                },
                {
                    "name": "D4",
                    "midi": 62,
                    "time": 262.9791666666628,
                    "velocity": 0.8346456692913385,
                    "duration": 0.04583333333334849
                },
                {
                    "name": "E4",
                    "midi": 64,
                    "time": 262.9791666666628,
                    "velocity": 0.7637795275590551,
                    "duration": 0.04791666666670835
                },
                {
                    "name": "A#3",
                    "midi": 58,
                    "time": 263.31874999999627,
                    "velocity": 0.8661417322834646,
                    "duration": 0.06250000000005684
                },
                {
                    "name": "A#2",
                    "midi": 46,
                    "time": 263.32291666666293,
                    "velocity": 0.8110236220472441,
                    "duration": 0.0791666666667652
                },
                {
                    "name": "F4",
                    "midi": 65,
                    "time": 263.32291666666293,
                    "velocity": 0.8031496062992126,
                    "duration": 0.06041666666675383
                },
                {
                    "name": "F3",
                    "midi": 53,
                    "time": 263.3249999999963,
                    "velocity": 0.7637795275590551,
                    "duration": 0.06875000000007958
                },
                {
                    "name": "D4",
                    "midi": 62,
                    "time": 263.3249999999963,
                    "velocity": 0.7716535433070866,
                    "duration": 0.03750000000002274
                },
                {
                    "name": "A#4",
                    "midi": 70,
                    "time": 263.32708333332965,
                    "velocity": 0.7165354330708661,
                    "duration": 0.06250000000005684
                },
                {
                    "name": "D5",
                    "midi": 74,
                    "time": 263.3312499999963,
                    "velocity": 0.6220472440944882,
                    "duration": 0.04374999999998863
                },
                {
                    "name": "A#3",
                    "midi": 58,
                    "time": 263.4437499999964,
                    "velocity": 0.7322834645669292,
                    "duration": 0.06666666666677656
                },
                {
                    "name": "F3",
                    "midi": 53,
                    "time": 263.44791666666305,
                    "velocity": 0.7322834645669292,
                    "duration": 0.0729166666667993
                },
                {
                    "name": "A#2",
                    "midi": 46,
                    "time": 263.4499999999964,
                    "velocity": 0.6692913385826772,
                    "duration": 0.07500000000010232
                },
                {
                    "name": "F4",
                    "midi": 65,
                    "time": 263.45416666666307,
                    "velocity": 0.7874015748031497,
                    "duration": 0.0645833333334167
                },
                {
                    "name": "A#4",
                    "midi": 70,
                    "time": 263.45624999999643,
                    "velocity": 0.6456692913385826,
                    "duration": 0.06875000000007958
                },
                {
                    "name": "D4",
                    "midi": 62,
                    "time": 263.4583333333298,
                    "velocity": 0.7952755905511811,
                    "duration": 0.03750000000002274
                },
                {
                    "name": "D5",
                    "midi": 74,
                    "time": 263.46249999999645,
                    "velocity": 0.6141732283464567,
                    "duration": 0.04583333333334849
                },
                {
                    "name": "A#2",
                    "midi": 46,
                    "time": 263.58958333332987,
                    "velocity": 0.6535433070866141,
                    "duration": 0.07500000000010232
                },
                {
                    "name": "A#3",
                    "midi": 58,
                    "time": 263.58958333332987,
                    "velocity": 0.7401574803149606,
                    "duration": 0.06875000000007958
                },
                {
                    "name": "F3",
                    "midi": 53,
                    "time": 263.5958333333299,
                    "velocity": 0.7559055118110236,
                    "duration": 0.07291666666674246
                },
                {
                    "name": "A#4",
                    "midi": 70,
                    "time": 263.59791666666325,
                    "velocity": 0.7795275590551181,
                    "duration": 0.07916666666670835
                },
                {
                    "name": "F4",
                    "midi": 65,
                    "time": 263.59791666666325,
                    "velocity": 0.8582677165354331,
                    "duration": 0.06250000000005684
                },
                {
                    "name": "D4",
                    "midi": 62,
                    "time": 263.6041666666633,
                    "velocity": 0.7559055118110236,
                    "duration": 0.03333333333335986
                },
                {
                    "name": "F#4",
                    "midi": 66,
                    "time": 263.9229166666633,
                    "velocity": 0.889763779527559,
                    "duration": 0.06041666666686751
                },
                {
                    "name": "D5",
                    "midi": 74,
                    "time": 263.9229166666633,
                    "velocity": 0.8346456692913385,
                    "duration": 0.06875000000025011
                },
                {
                    "name": "D4",
                    "midi": 62,
                    "time": 263.92499999999666,
                    "velocity": 0.8740157480314961,
                    "duration": 0.04583333333346218
                },
                {
                    "name": "A#4",
                    "midi": 70,
                    "time": 263.92499999999666,
                    "velocity": 0.7952755905511811,
                    "duration": 0.06041666666686751
                },
                {
                    "name": "A#3",
                    "midi": 58,
                    "time": 263.92708333333,
                    "velocity": 0.8582677165354331,
                    "duration": 0.04166666666674246
                },
                {
                    "name": "F#3",
                    "midi": 54,
                    "time": 263.9291666666634,
                    "velocity": 0.8267716535433071,
                    "duration": 0.04375000000010232
                },
                {
                    "name": "A#2",
                    "midi": 46,
                    "time": 263.9354166666634,
                    "velocity": 0.7086614173228346,
                    "duration": 0.047916666666765195
                },
                {
                    "name": "A#3",
                    "midi": 58,
                    "time": 264.0395833333302,
                    "velocity": 0.6771653543307087,
                    "duration": 0.06666666666677656
                },
                {
                    "name": "F#3",
                    "midi": 54,
                    "time": 264.0458333333302,
                    "velocity": 0.7165354330708661,
                    "duration": 0.06666666666677656
                },
                {
                    "name": "D5",
                    "midi": 74,
                    "time": 264.0499999999969,
                    "velocity": 0.6692913385826772,
                    "duration": 0.07500000000015916
                },
                {
                    "name": "A#2",
                    "midi": 46,
                    "time": 264.05208333333024,
                    "velocity": 0.6929133858267716,
                    "duration": 0.058333333333393966
                },
                {
                    "name": "F#4",
                    "midi": 66,
                    "time": 264.0541666666636,
                    "velocity": 0.7244094488188977,
                    "duration": 0.06875000000007958
                },
                {
                    "name": "A#4",
                    "midi": 70,
                    "time": 264.0645833333303,
                    "velocity": 0.5905511811023622,
                    "duration": 0.041666666666685614
                },
                {
                    "name": "D4",
                    "midi": 62,
                    "time": 264.06666666666365,
                    "velocity": 0.5905511811023622,
                    "duration": 0.04374999999998863
                },
                {
                    "name": "A#2",
                    "midi": 46,
                    "time": 264.1791666666637,
                    "velocity": 0.7165354330708661,
                    "duration": 0.10000000000013642
                },
                {
                    "name": "F#3",
                    "midi": 54,
                    "time": 264.1812499999971,
                    "velocity": 0.7322834645669292,
                    "duration": 0.07083333333343944
                },
                {
                    "name": "A#3",
                    "midi": 58,
                    "time": 264.1812499999971,
                    "velocity": 0.6929133858267716,
                    "duration": 0.06875000000007958
                },
                {
                    "name": "D5",
                    "midi": 74,
                    "time": 264.18541666666374,
                    "velocity": 0.7086614173228346,
                    "duration": 0.08125000000012506
                },
                {
                    "name": "F#4",
                    "midi": 66,
                    "time": 264.19166666666376,
                    "velocity": 0.7480314960629921,
                    "duration": 0.0645833333334167
                },
                {
                    "name": "A#4",
                    "midi": 70,
                    "time": 264.1979166666638,
                    "velocity": 0.7716535433070866,
                    "duration": 0.06666666666671972
                },
                {
                    "name": "D4",
                    "midi": 62,
                    "time": 264.19999999999715,
                    "velocity": 0.7244094488188977,
                    "duration": 0.03750000000002274
                },
                {
                    "name": "A#2",
                    "midi": 46,
                    "time": 264.5020833333305,
                    "velocity": 0.6299212598425197,
                    "duration": 0.1104166666667652
                },
                {
                    "name": "A#3",
                    "midi": 58,
                    "time": 264.51041666666384,
                    "velocity": 0.8110236220472441,
                    "duration": 0.0708333333333826
                },
                {
                    "name": "G3",
                    "midi": 55,
                    "time": 264.51874999999717,
                    "velocity": 0.6771653543307087,
                    "duration": 0.06875000000007958
                },
                {
                    "name": "A#4",
                    "midi": 70,
                    "time": 264.52083333333053,
                    "velocity": 0.8661417322834646,
                    "duration": 0.07916666666670835
                },
                {
                    "name": "G4",
                    "midi": 67,
                    "time": 264.5229166666639,
                    "velocity": 0.8188976377952756,
                    "duration": 0.06458333333335986
                },
                {
                    "name": "D4",
                    "midi": 62,
                    "time": 264.5229166666639,
                    "velocity": 0.8976377952755905,
                    "duration": 0.05833333333333712
                },
                {
                    "name": "D5",
                    "midi": 74,
                    "time": 264.5229166666639,
                    "velocity": 0.8503937007874016,
                    "duration": 0.0875000000000341
                },
                {
                    "name": "F#3",
                    "midi": 54,
                    "time": 264.5333333333306,
                    "velocity": 0.6062992125984252,
                    "duration": 0.039583333333325754
                },
                {
                    "name": "A#3",
                    "midi": 58,
                    "time": 264.81249999999727,
                    "velocity": 0.8503937007874016,
                    "duration": 0.0645833333334167
                },
                {
                    "name": "A#4",
                    "midi": 70,
                    "time": 264.8187499999973,
                    "velocity": 0.905511811023622,
                    "duration": 0.06875000000007958
                },
                {
                    "name": "D5",
                    "midi": 74,
                    "time": 264.82083333333065,
                    "velocity": 0.8031496062992126,
                    "duration": 0.0708333333333826
                },
                {
                    "name": "G#3",
                    "midi": 56,
                    "time": 264.8249999999973,
                    "velocity": 0.8110236220472441,
                    "duration": 0.0395833333333826
                },
                {
                    "name": "D4",
                    "midi": 62,
                    "time": 264.8249999999973,
                    "velocity": 0.8582677165354331,
                    "duration": 0.05208333333337123
                },
                {
                    "name": "G#4",
                    "midi": 68,
                    "time": 264.8270833333307,
                    "velocity": 0.8110236220472441,
                    "duration": 0.04583333333334849
                },
                {
                    "name": "B3",
                    "midi": 59,
                    "time": 265.1395833333307,
                    "velocity": 0.9212598425196851,
                    "duration": 0.06458333333335986
                },
                {
                    "name": "G4",
                    "midi": 67,
                    "time": 265.14166666666404,
                    "velocity": 0.8110236220472441,
                    "duration": 0.0875000000000341
                },
                {
                    "name": "D#4",
                    "midi": 63,
                    "time": 265.1437499999974,
                    "velocity": 0.8582677165354331,
                    "duration": 0.06458333333330302
                },
                {
                    "name": "B4",
                    "midi": 71,
                    "time": 265.14583333333076,
                    "velocity": 0.7637795275590551,
                    "duration": 0.11249999999995453
                },
                {
                    "name": "A4",
                    "midi": 69,
                    "time": 265.1749999999974,
                    "velocity": 0.44881889763779526,
                    "duration": 0.052083333333314386
                },
                {
                    "name": "F#2",
                    "midi": 42,
                    "time": 265.2812499999974,
                    "velocity": 0.889763779527559,
                    "duration": 0.18958333333335986
                },
                {
                    "name": "G2",
                    "midi": 43,
                    "time": 265.41666666666407,
                    "velocity": 0.8188976377952756,
                    "duration": 0.16666666666674246
                },
                {
                    "name": "B2",
                    "midi": 47,
                    "time": 265.56458333333075,
                    "velocity": 0.8031496062992126,
                    "duration": 0.11041666666670835
                },
                {
                    "name": "B4",
                    "midi": 71,
                    "time": 265.57291666666407,
                    "velocity": 0.7952755905511811,
                    "duration": 0.07291666666674246
                },
                {
                    "name": "D4",
                    "midi": 62,
                    "time": 265.57499999999743,
                    "velocity": 0.8740157480314961,
                    "duration": 0.056250000000034106
                },
                {
                    "name": "D5",
                    "midi": 74,
                    "time": 265.5791666666641,
                    "velocity": 0.7244094488188977,
                    "duration": 0.07500000000004547
                },
                {
                    "name": "G4",
                    "midi": 67,
                    "time": 265.58124999999745,
                    "velocity": 0.6850393700787402,
                    "duration": 0.04583333333334849
                },
                {
                    "name": "C3",
                    "midi": 48,
                    "time": 265.71666666666414,
                    "velocity": 0.8818897637795275,
                    "duration": 0.08958333333339397
                },
                {
                    "name": "D5",
                    "midi": 74,
                    "time": 265.7291666666641,
                    "velocity": 0.7401574803149606,
                    "duration": 0.38333333333343944
                },
                {
                    "name": "B4",
                    "midi": 71,
                    "time": 265.73541666666415,
                    "velocity": 0.7952755905511811,
                    "duration": 0.41041666666677656
                },
                {
                    "name": "D4",
                    "midi": 62,
                    "time": 265.7374999999975,
                    "velocity": 0.7952755905511811,
                    "duration": 0.3500000000000796
                },
                {
                    "name": "G4",
                    "midi": 67,
                    "time": 265.73958333333087,
                    "velocity": 0.7559055118110236,
                    "duration": 0.404166666666697
                },
                {
                    "name": "D#3",
                    "midi": 51,
                    "time": 265.8541666666642,
                    "velocity": 0.8503937007874016,
                    "duration": 0.06458333333335986
                },
                {
                    "name": "D#2",
                    "midi": 39,
                    "time": 265.99999999999756,
                    "velocity": 1,
                    "duration": 0.4354166666668675
                },
                {
                    "name": "F#3",
                    "midi": 54,
                    "time": 266.0270833333309,
                    "velocity": 0.952755905511811,
                    "duration": 0.09166666666669698
                },
                {
                    "name": "F3",
                    "midi": 53,
                    "time": 266.04999999999757,
                    "velocity": 0.6535433070866141,
                    "duration": 0.03541666666666288
                },
                {
                    "name": "G3",
                    "midi": 55,
                    "time": 266.1479166666643,
                    "velocity": 0.8346456692913385,
                    "duration": 0.10416666666668561
                },
                {
                    "name": "C5",
                    "midi": 72,
                    "time": 266.33749999999765,
                    "velocity": 0.8818897637795275,
                    "duration": 0.08333333333342807
                },
                {
                    "name": "B3",
                    "midi": 59,
                    "time": 266.339583333331,
                    "velocity": 0.7637795275590551,
                    "duration": 0.0645833333334167
                },
                {
                    "name": "G#4",
                    "midi": 68,
                    "time": 266.34166666666437,
                    "velocity": 0.8188976377952756,
                    "duration": 0.04791666666670835
                },
                {
                    "name": "E4",
                    "midi": 64,
                    "time": 266.3437499999977,
                    "velocity": 0.7637795275590551,
                    "duration": 0.03541666666666288
                },
                {
                    "name": "C4",
                    "midi": 60,
                    "time": 266.46458333333106,
                    "velocity": 0.7795275590551181,
                    "duration": 0.06875000000002274
                },
                {
                    "name": "D4",
                    "midi": 62,
                    "time": 266.62916666666445,
                    "velocity": 0.8976377952755905,
                    "duration": 0.08333333333337123
                },
                {
                    "name": "G5",
                    "midi": 79,
                    "time": 266.6312499999978,
                    "velocity": 0.6220472440944882,
                    "duration": 0.1020833333333826
                },
                {
                    "name": "D#5",
                    "midi": 75,
                    "time": 266.63749999999783,
                    "velocity": 0.7637795275590551,
                    "duration": 0.08541666666667425
                },
                {
                    "name": "B4",
                    "midi": 71,
                    "time": 266.6395833333312,
                    "velocity": 0.6220472440944882,
                    "duration": 0.04374999999998863
                },
                {
                    "name": "D#4",
                    "midi": 63,
                    "time": 266.7645833333312,
                    "velocity": 0.905511811023622,
                    "duration": 0.0625
                },
                {
                    "name": "G#5",
                    "midi": 80,
                    "time": 266.85208333333117,
                    "velocity": 0.4409448818897638,
                    "duration": 0.04583333333329165
                },
                {
                    "name": "F#4",
                    "midi": 66,
                    "time": 266.9187499999978,
                    "velocity": 0.968503937007874,
                    "duration": 0.13750000000010232
                },
                {
                    "name": "F#5",
                    "midi": 78,
                    "time": 266.92916666666446,
                    "velocity": 0.889763779527559,
                    "duration": 0.10833333333334849
                },
                {
                    "name": "G5",
                    "midi": 79,
                    "time": 267.0458333333312,
                    "velocity": 0.8740157480314961,
                    "duration": 0.12291666666669698
                },
                {
                    "name": "G4",
                    "midi": 67,
                    "time": 267.04999999999785,
                    "velocity": 0.7795275590551181,
                    "duration": 0.041666666666685614
                },
                {
                    "name": "B5",
                    "midi": 83,
                    "time": 267.20833333333127,
                    "velocity": 0.8818897637795275,
                    "duration": 0.20000000000004547
                },
                {
                    "name": "B4",
                    "midi": 71,
                    "time": 267.21874999999795,
                    "velocity": 0.9291338582677166,
                    "duration": 0.17916666666667425
                },
                {
                    "name": "C5",
                    "midi": 72,
                    "time": 267.3479166666646,
                    "velocity": 0.9212598425196851,
                    "duration": 0.13750000000004547
                },
                {
                    "name": "C6",
                    "midi": 84,
                    "time": 267.3583333333313,
                    "velocity": 0.8582677165354331,
                    "duration": 0.1479166666667311
                },
                {
                    "name": "D5",
                    "midi": 74,
                    "time": 267.5041666666647,
                    "velocity": 0.8740157480314961,
                    "duration": 0.17500000000001137
                },
                {
                    "name": "D6",
                    "midi": 86,
                    "time": 267.531249999998,
                    "velocity": 0.84251968503937,
                    "duration": 0.09166666666664014
                },
                {
                    "name": "D#5",
                    "midi": 75,
                    "time": 267.6770833333313,
                    "velocity": 0.9133858267716536,
                    "duration": 0.04166666666674246
                },
                {
                    "name": "D#6",
                    "midi": 87,
                    "time": 267.6854166666647,
                    "velocity": 0.9291338582677166,
                    "duration": 0.0875000000000341
                },
                {
                    "name": "C1",
                    "midi": 24,
                    "time": 268.10416666666475,
                    "velocity": 0.8818897637795275,
                    "duration": 0.3062500000000341
                },
                {
                    "name": "C2",
                    "midi": 36,
                    "time": 268.1062499999981,
                    "velocity": 0.9448818897637795,
                    "duration": 0.34375
                },
                {
                    "name": "A#6",
                    "midi": 94,
                    "time": 268.7541666666648,
                    "velocity": 0.9133858267716536,
                    "duration": 0.28958333333332575
                },
                {
                    "name": "A#3",
                    "midi": 58,
                    "time": 268.75833333333145,
                    "velocity": 0.7795275590551181,
                    "duration": 0.26249999999998863
                },
                {
                    "name": "D6",
                    "midi": 86,
                    "time": 268.75833333333145,
                    "velocity": 0.8818897637795275,
                    "duration": 0.3187500000000796
                },
                {
                    "name": "A#5",
                    "midi": 82,
                    "time": 268.75833333333145,
                    "velocity": 0.952755905511811,
                    "duration": 0.358333333333519
                },
                {
                    "name": "A#4",
                    "midi": 70,
                    "time": 268.7604166666648,
                    "velocity": 0.9921259842519685,
                    "duration": 0.22916666666662877
                },
                {
                    "name": "E4",
                    "midi": 64,
                    "time": 268.7604166666648,
                    "velocity": 0.8346456692913385,
                    "duration": 0.2770833333332803
                },
                {
                    "name": "E6",
                    "midi": 88,
                    "time": 268.7604166666648,
                    "velocity": 0.8818897637795275,
                    "duration": 0.33958333333339397
                },
                {
                    "name": "D4",
                    "midi": 62,
                    "time": 268.76249999999817,
                    "velocity": 0.7952755905511811,
                    "duration": 0.2895833333332689
                },
                {
                    "name": "A6",
                    "midi": 93,
                    "time": 268.81874999999815,
                    "velocity": 0.6614173228346457,
                    "duration": 0.06458333333330302
                },
                {
                    "name": "G6",
                    "midi": 91,
                    "time": 268.83124999999814,
                    "velocity": 0.7795275590551181,
                    "duration": 0.08749999999997726
                },
                {
                    "name": "G#6",
                    "midi": 92,
                    "time": 268.88333333333145,
                    "velocity": 0.25196850393700787,
                    "duration": 0.07708333333334849
                },
                {
                    "name": "F#6",
                    "midi": 90,
                    "time": 268.92499999999814,
                    "velocity": 0.6141732283464567,
                    "duration": 0.05624999999997726
                },
                {
                    "name": "D#6",
                    "midi": 87,
                    "time": 268.96458333333146,
                    "velocity": 0.7874015748031497,
                    "duration": 0.0687499999999659
                },
                {
                    "name": "C#6",
                    "midi": 85,
                    "time": 268.9999999999981,
                    "velocity": 0.7401574803149606,
                    "duration": 0.06458333333335986
                },
                {
                    "name": "A5",
                    "midi": 81,
                    "time": 269.0624999999981,
                    "velocity": 0.44881889763779526,
                    "duration": 0.052083333333484916
                },
                {
                    "name": "G#5",
                    "midi": 80,
                    "time": 269.0708333333315,
                    "velocity": 0.5826771653543307,
                    "duration": 0.09375000000017053
                },
                {
                    "name": "G5",
                    "midi": 79,
                    "time": 269.0874999999982,
                    "velocity": 0.29133858267716534,
                    "duration": 0.05625000000009095
                },
                {
                    "name": "F#5",
                    "midi": 78,
                    "time": 269.10208333333156,
                    "velocity": 0.33858267716535434,
                    "duration": 0.10625000000015916
                },
                {
                    "name": "F5",
                    "midi": 77,
                    "time": 269.1041666666649,
                    "velocity": 0.4566929133858268,
                    "duration": 0.0645833333334167
                },
                {
                    "name": "D#5",
                    "midi": 75,
                    "time": 269.1249999999983,
                    "velocity": 0.6771653543307087,
                    "duration": 0.13333333333343944
                },
                {
                    "name": "E5",
                    "midi": 76,
                    "time": 269.12916666666496,
                    "velocity": 0.3543307086614173,
                    "duration": 0.06666666666671972
                },
                {
                    "name": "C#5",
                    "midi": 73,
                    "time": 269.1624999999983,
                    "velocity": 0.6377952755905512,
                    "duration": 0.1354166666667993
                },
                {
                    "name": "D5",
                    "midi": 74,
                    "time": 269.17499999999836,
                    "velocity": 0.18110236220472442,
                    "duration": 0.04791666666670835
                },
                {
                    "name": "C5",
                    "midi": 72,
                    "time": 269.19791666666504,
                    "velocity": 0.4409448818897638,
                    "duration": 0.06250000000005684
                },
                {
                    "name": "B4",
                    "midi": 71,
                    "time": 269.22708333333173,
                    "velocity": 0.6299212598425197,
                    "duration": 0.06250000000005684
                },
                {
                    "name": "A#4",
                    "midi": 70,
                    "time": 269.22708333333173,
                    "velocity": 0.49606299212598426,
                    "duration": 0.12291666666669698
                },
                {
                    "name": "A4",
                    "midi": 69,
                    "time": 269.25833333333173,
                    "velocity": 0.5118110236220472,
                    "duration": 0.07291666666668561
                },
                {
                    "name": "G#4",
                    "midi": 68,
                    "time": 269.25833333333173,
                    "velocity": 0.6929133858267716,
                    "duration": 0.12291666666675383
                },
                {
                    "name": "G4",
                    "midi": 67,
                    "time": 269.28749999999843,
                    "velocity": 0.5905511811023622,
                    "duration": 0.07291666666668561
                },
                {
                    "name": "F4",
                    "midi": 65,
                    "time": 269.3229166666651,
                    "velocity": 0.6377952755905512,
                    "duration": 0.06041666666675383
                },
                {
                    "name": "F#4",
                    "midi": 66,
                    "time": 269.3333333333318,
                    "velocity": 0.14173228346456693,
                    "duration": 0.09791666666671972
                },
                {
                    "name": "E4",
                    "midi": 64,
                    "time": 269.3520833333318,
                    "velocity": 0.6692913385826772,
                    "duration": 0.06250000000005684
                },
                {
                    "name": "D#4",
                    "midi": 63,
                    "time": 269.37499999999847,
                    "velocity": 0.84251968503937,
                    "duration": 0.10833333333340533
                },
                {
                    "name": "D4",
                    "midi": 62,
                    "time": 269.3812499999985,
                    "velocity": 0.6771653543307087,
                    "duration": 0.06875000000002274
                },
                {
                    "name": "C4",
                    "midi": 60,
                    "time": 269.4124999999985,
                    "velocity": 0.5669291338582677,
                    "duration": 0.06458333333335986
                },
                {
                    "name": "C#4",
                    "midi": 61,
                    "time": 269.4187499999985,
                    "velocity": 0.7165354330708661,
                    "duration": 0.11041666666670835
                },
                {
                    "name": "B3",
                    "midi": 59,
                    "time": 269.44583333333185,
                    "velocity": 0.7007874015748031,
                    "duration": 0.041666666666685614
                },
                {
                    "name": "A#3",
                    "midi": 58,
                    "time": 269.47708333333185,
                    "velocity": 0.7874015748031497,
                    "duration": 0.15416666666681067
                },
                {
                    "name": "A3",
                    "midi": 57,
                    "time": 269.4791666666652,
                    "velocity": 0.6456692913385826,
                    "duration": 0.03541666666666288
                },
                {
                    "name": "G3",
                    "midi": 55,
                    "time": 269.5104166666652,
                    "velocity": 0.6850393700787402,
                    "duration": 0.03541666666671972
                },
                {
                    "name": "G#3",
                    "midi": 56,
                    "time": 269.51666666666523,
                    "velocity": 0.7874015748031497,
                    "duration": 0.11666666666678793
                },
                {
                    "name": "A#4",
                    "midi": 70,
                    "time": 269.5333333333319,
                    "velocity": 1,
                    "duration": 0.0645833333334167
                },
                {
                    "name": "A#6",
                    "midi": 94,
                    "time": 269.53749999999854,
                    "velocity": 0.9448818897637795,
                    "duration": 0.7937500000003865
                },
                {
                    "name": "E4",
                    "midi": 64,
                    "time": 269.5395833333319,
                    "velocity": 0.7637795275590551,
                    "duration": 0.06666666666671972
                },
                {
                    "name": "A#5",
                    "midi": 82,
                    "time": 269.5395833333319,
                    "velocity": 0.984251968503937,
                    "duration": 0.8645833333338828
                },
                {
                    "name": "D6",
                    "midi": 86,
                    "time": 269.5395833333319,
                    "velocity": 0.8976377952755905,
                    "duration": 0.8041666666670721
                },
                {
                    "name": "E6",
                    "midi": 88,
                    "time": 269.54166666666526,
                    "velocity": 0.8503937007874016,
                    "duration": 0.806250000000432
                },
                {
                    "name": "D4",
                    "midi": 62,
                    "time": 269.54166666666526,
                    "velocity": 0.7559055118110236,
                    "duration": 0.0708333333333826
                },
                {
                    "name": "F3",
                    "midi": 53,
                    "time": 269.54166666666526,
                    "velocity": 0.6771653543307087,
                    "duration": 0.03750000000002274
                },
                {
                    "name": "F#3",
                    "midi": 54,
                    "time": 269.5562499999986,
                    "velocity": 0.7244094488188977,
                    "duration": 0.10416666666674246
                },
                {
                    "name": "E3",
                    "midi": 52,
                    "time": 269.57291666666526,
                    "velocity": 0.7007874015748031,
                    "duration": 0.03333333333335986
                },
                {
                    "name": "C3",
                    "midi": 48,
                    "time": 269.70208333333204,
                    "velocity": 0.14960629921259844,
                    "duration": 0.1416666666666515
                },
                {
                    "name": "A#2",
                    "midi": 46,
                    "time": 269.758333333332,
                    "velocity": 0.5275590551181102,
                    "duration": 0.09791666666671972
                },
                {
                    "name": "C#3",
                    "midi": 49,
                    "time": 269.84583333333205,
                    "velocity": 0.03937007874015748,
                    "duration": 0.08125000000001137
                },
                {
                    "name": "D#3",
                    "midi": 51,
                    "time": 269.89374999999876,
                    "velocity": 0.12598425196850394,
                    "duration": 0.06666666666666288
                },
                {
                    "name": "F#3",
                    "midi": 54,
                    "time": 269.9145833333321,
                    "velocity": 0.47244094488188976,
                    "duration": 0.08958333333345081
                },
                {
                    "name": "F3",
                    "midi": 53,
                    "time": 269.9229166666654,
                    "velocity": 0.4251968503937008,
                    "duration": 0.05000000000006821
                },
                {
                    "name": "G3",
                    "midi": 55,
                    "time": 269.9354166666654,
                    "velocity": 0.6692913385826772,
                    "duration": 0.03750000000007958
                },
                {
                    "name": "G#3",
                    "midi": 56,
                    "time": 269.9458333333321,
                    "velocity": 0.47244094488188976,
                    "duration": 0.08333333333348492
                },
                {
                    "name": "A3",
                    "midi": 57,
                    "time": 269.9624999999988,
                    "velocity": 0.6141732283464567,
                    "duration": 0.05000000000006821
                },
                {
                    "name": "A#3",
                    "midi": 58,
                    "time": 269.9791666666655,
                    "velocity": 0.41732283464566927,
                    "duration": 0.08125000000006821
                },
                {
                    "name": "B3",
                    "midi": 59,
                    "time": 269.9854166666655,
                    "velocity": 0.6535433070866141,
                    "duration": 0.0395833333333826
                },
                {
                    "name": "C#4",
                    "midi": 61,
                    "time": 270.0187499999989,
                    "velocity": 0.5511811023622047,
                    "duration": 0.07916666666665151
                },
                {
                    "name": "D#4",
                    "midi": 63,
                    "time": 270.0458333333322,
                    "velocity": 0.6929133858267716,
                    "duration": 0.08125000000001137
                },
                {
                    "name": "F#4",
                    "midi": 66,
                    "time": 270.08541666666554,
                    "velocity": 0.6535433070866141,
                    "duration": 0.08749999999997726
                },
                {
                    "name": "G#4",
                    "midi": 68,
                    "time": 270.1124999999989,
                    "velocity": 0.5905511811023622,
                    "duration": 0.09166666666664014
                },
                {
                    "name": "A#4",
                    "midi": 70,
                    "time": 270.14791666666554,
                    "velocity": 0.4645669291338583,
                    "duration": 0.08749999999997726
                },
                {
                    "name": "B4",
                    "midi": 71,
                    "time": 270.1833333333322,
                    "velocity": 0.4645669291338583,
                    "duration": 0.052083333333314386
                },
                {
                    "name": "C#5",
                    "midi": 73,
                    "time": 270.18749999999886,
                    "velocity": 0.5905511811023622,
                    "duration": 0.0875000000000341
                },
                {
                    "name": "D#5",
                    "midi": 75,
                    "time": 270.22083333333217,
                    "velocity": 0.5511811023622047,
                    "duration": 0.08541666666678793
                },
                {
                    "name": "D5",
                    "midi": 74,
                    "time": 270.2479166666655,
                    "velocity": 0.3228346456692913,
                    "duration": 0.04375000000010232
                },
                {
                    "name": "E5",
                    "midi": 76,
                    "time": 270.2583333333322,
                    "velocity": 0.6220472440944882,
                    "duration": 0.04166666666674246
                },
                {
                    "name": "F#5",
                    "midi": 78,
                    "time": 270.26041666666555,
                    "velocity": 0.5511811023622047,
                    "duration": 0.08541666666678793
                },
                {
                    "name": "F5",
                    "midi": 77,
                    "time": 270.2854166666656,
                    "velocity": 0.5905511811023622,
                    "duration": 0.04791666666670835
                },
                {
                    "name": "G#5",
                    "midi": 80,
                    "time": 270.2916666666656,
                    "velocity": 0.5511811023622047,
                    "duration": 0.08333333333348492
                },
                {
                    "name": "G5",
                    "midi": 79,
                    "time": 270.31874999999894,
                    "velocity": 0.4330708661417323,
                    "duration": 0.05208333333342807
                },
                {
                    "name": "A5",
                    "midi": 81,
                    "time": 270.3479166666657,
                    "velocity": 0.47244094488188976,
                    "duration": 0.05000000000006821
                },
                {
                    "name": "B5",
                    "midi": 83,
                    "time": 270.37083333333237,
                    "velocity": 0.5196850393700787,
                    "duration": 0.045833333333405335
                },
                {
                    "name": "C#6",
                    "midi": 85,
                    "time": 270.37291666666573,
                    "velocity": 0.5354330708661418,
                    "duration": 0.08541666666667425
                },
                {
                    "name": "C6",
                    "midi": 84,
                    "time": 270.4020833333324,
                    "velocity": 0.5590551181102362,
                    "duration": 0.04374999999998863
                },
                {
                    "name": "D#6",
                    "midi": 87,
                    "time": 270.4041666666658,
                    "velocity": 0.5826771653543307,
                    "duration": 0.09374999999994316
                },
                {
                    "name": "D6",
                    "midi": 86,
                    "time": 270.42916666666576,
                    "velocity": 0.6299212598425197,
                    "duration": 0.037499999999965894
                },
                {
                    "name": "E6",
                    "midi": 88,
                    "time": 270.46666666666573,
                    "velocity": 0.5275590551181102,
                    "duration": 0.04374999999998863
                },
                {
                    "name": "F#6",
                    "midi": 90,
                    "time": 270.4708333333324,
                    "velocity": 0.3858267716535433,
                    "duration": 0.09166666666669698
                },
                {
                    "name": "F6",
                    "midi": 89,
                    "time": 270.5020833333324,
                    "velocity": 0.5196850393700787,
                    "duration": 0.03750000000002274
                },
                {
                    "name": "G#6",
                    "midi": 92,
                    "time": 270.5124999999991,
                    "velocity": 0.4645669291338583,
                    "duration": 0.12500000000005684
                },
                {
                    "name": "G6",
                    "midi": 91,
                    "time": 270.5749999999991,
                    "velocity": 0.1968503937007874,
                    "duration": 0.037499999999965894
                },
                {
                    "name": "A#6",
                    "midi": 94,
                    "time": 270.58749999999907,
                    "velocity": 0.25984251968503935,
                    "duration": 0.12916666666677656
                },
                {
                    "name": "A#3",
                    "midi": 58,
                    "time": 270.61249999999905,
                    "velocity": 0.8188976377952756,
                    "duration": 0.12500000000017053
                },
                {
                    "name": "A#5",
                    "midi": 82,
                    "time": 270.6145833333324,
                    "velocity": 0.984251968503937,
                    "duration": 0.08541666666678793
                },
                {
                    "name": "E6",
                    "midi": 88,
                    "time": 270.61666666666576,
                    "velocity": 0.8582677165354331,
                    "duration": 0.10833333333346218
                },
                {
                    "name": "A6",
                    "midi": 93,
                    "time": 270.61666666666576,
                    "velocity": 0.6692913385826772,
                    "duration": 0.09166666666675383
                },
                {
                    "name": "D6",
                    "midi": 86,
                    "time": 270.6187499999991,
                    "velocity": 0.8818897637795275,
                    "duration": 0.10416666666674246
                },
                {
                    "name": "A#4",
                    "midi": 70,
                    "time": 270.6229166666658,
                    "velocity": 0.9448818897637795,
                    "duration": 0.056250000000034106
                },
                {
                    "name": "E4",
                    "midi": 64,
                    "time": 270.62708333333245,
                    "velocity": 0.6771653543307087,
                    "duration": 0.06666666666671972
                },
                {
                    "name": "D4",
                    "midi": 62,
                    "time": 270.62708333333245,
                    "velocity": 0.7559055118110236,
                    "duration": 0.07291666666674246
                },
                {
                    "name": "C2",
                    "midi": 36,
                    "time": 271.4979166666659,
                    "velocity": 0.8818897637795275,
                    "duration": 0.07500000000004547
                },
                {
                    "name": "C3",
                    "midi": 48,
                    "time": 271.50208333333256,
                    "velocity": 0.9133858267716536,
                    "duration": 0.07708333333340533
                },
                {
                    "name": "A6",
                    "midi": 93,
                    "time": 271.53124999999926,
                    "velocity": 0.9448818897637795,
                    "duration": 0.2916666666666856
                },
                {
                    "name": "G6",
                    "midi": 91,
                    "time": 271.73958333333263,
                    "velocity": 0.8346456692913385,
                    "duration": 0.2687499999999545
                },
                {
                    "name": "A#3",
                    "midi": 58,
                    "time": 271.9416666666659,
                    "velocity": 0.7952755905511811,
                    "duration": 0.08125000000001137
                },
                {
                    "name": "A6",
                    "midi": 93,
                    "time": 271.94791666666595,
                    "velocity": 0.8740157480314961,
                    "duration": 0.19166666666666288
                },
                {
                    "name": "E3",
                    "midi": 52,
                    "time": 271.9562499999993,
                    "velocity": 0.5984251968503937,
                    "duration": 0.054166666666674246
                },
                {
                    "name": "G6",
                    "midi": 91,
                    "time": 272.07499999999925,
                    "velocity": 0.7795275590551181,
                    "duration": 0.16875000000004547
                },
                {
                    "name": "A#3",
                    "midi": 58,
                    "time": 272.1916666666659,
                    "velocity": 0.7480314960629921,
                    "duration": 0.041666666666685614
                },
                {
                    "name": "E3",
                    "midi": 52,
                    "time": 272.2062499999993,
                    "velocity": 0.5590551181102362,
                    "duration": 0.03750000000002274
                },
                {
                    "name": "E6",
                    "midi": 88,
                    "time": 272.23541666666597,
                    "velocity": 0.6456692913385826,
                    "duration": 0.1729166666666515
                },
                {
                    "name": "A#5",
                    "midi": 82,
                    "time": 272.35208333333264,
                    "velocity": 0.84251968503937,
                    "duration": 0.13541666666662877
                },
                {
                    "name": "C#2",
                    "midi": 37,
                    "time": 272.5645833333326,
                    "velocity": 0.8110236220472441,
                    "duration": 0.05625000000009095
                },
                {
                    "name": "C#3",
                    "midi": 49,
                    "time": 272.57083333333264,
                    "velocity": 0.905511811023622,
                    "duration": 0.07291666666674246
                },
                {
                    "name": "G6",
                    "midi": 91,
                    "time": 272.57708333333267,
                    "velocity": 0.952755905511811,
                    "duration": 0.5666666666667197
                },
                {
                    "name": "B5",
                    "midi": 83,
                    "time": 272.5833333333327,
                    "velocity": 0.8740157480314961,
                    "duration": 0.29791666666670835
                },
                {
                    "name": "B3",
                    "midi": 59,
                    "time": 272.94791666666606,
                    "velocity": 0.7165354330708661,
                    "duration": 0.09583333333330302
                },
                {
                    "name": "F3",
                    "midi": 53,
                    "time": 272.94791666666606,
                    "velocity": 0.7165354330708661,
                    "duration": 0.08749999999997726
                },
                {
                    "name": "B3",
                    "midi": 59,
                    "time": 273.235416666666,
                    "velocity": 0.6692913385826772,
                    "duration": 0.041666666666685614
                },
                {
                    "name": "F3",
                    "midi": 53,
                    "time": 273.235416666666,
                    "velocity": 0.6929133858267716,
                    "duration": 0.03750000000002274
                },
                {
                    "name": "F6",
                    "midi": 89,
                    "time": 273.25416666666604,
                    "velocity": 0.9212598425196851,
                    "duration": 0.2729166666666174
                },
                {
                    "name": "D2",
                    "midi": 38,
                    "time": 273.58124999999933,
                    "velocity": 0.8976377952755905,
                    "duration": 0.05416666666673109
                },
                {
                    "name": "D3",
                    "midi": 50,
                    "time": 273.58749999999935,
                    "velocity": 0.84251968503937,
                    "duration": 0.0708333333333826
                },
                {
                    "name": "G6",
                    "midi": 91,
                    "time": 273.610416666666,
                    "velocity": 0.9448818897637795,
                    "duration": 0.23750000000001137
                },
                {
                    "name": "F6",
                    "midi": 89,
                    "time": 273.7645833333327,
                    "velocity": 0.8110236220472441,
                    "duration": 0.18958333333330302
                },
                {
                    "name": "G#3",
                    "midi": 56,
                    "time": 273.93124999999935,
                    "velocity": 0.6535433070866141,
                    "duration": 0.06875000000007958
                },
                {
                    "name": "A#3",
                    "midi": 58,
                    "time": 273.935416666666,
                    "velocity": 0.6062992125984252,
                    "duration": 0.06250000000005684
                },
                {
                    "name": "G6",
                    "midi": 91,
                    "time": 273.935416666666,
                    "velocity": 0.8740157480314961,
                    "duration": 0.18750000000005684
                },
                {
                    "name": "F4",
                    "midi": 65,
                    "time": 273.947916666666,
                    "velocity": 0.4645669291338583,
                    "duration": 0.04791666666670835
                },
                {
                    "name": "F6",
                    "midi": 89,
                    "time": 274.0479166666661,
                    "velocity": 0.8188976377952756,
                    "duration": 0.19791666666674246
                },
                {
                    "name": "F4",
                    "midi": 65,
                    "time": 274.1916666666661,
                    "velocity": 0.6377952755905512,
                    "duration": 0.03750000000002274
                },
                {
                    "name": "A#3",
                    "midi": 58,
                    "time": 274.1979166666661,
                    "velocity": 0.6614173228346457,
                    "duration": 0.03750000000002274
                },
                {
                    "name": "G#3",
                    "midi": 56,
                    "time": 274.1999999999995,
                    "velocity": 0.6929133858267716,
                    "duration": 0.06458333333335986
                },
                {
                    "name": "D6",
                    "midi": 86,
                    "time": 274.2083333333328,
                    "velocity": 0.8503937007874016,
                    "duration": 0.1708333333333485
                },
                {
                    "name": "G#5",
                    "midi": 80,
                    "time": 274.3312499999995,
                    "velocity": 0.8818897637795275,
                    "duration": 0.12083333333333712
                },
                {
                    "name": "D#2",
                    "midi": 39,
                    "time": 274.53333333333285,
                    "velocity": 0.84251968503937,
                    "duration": 0.058333333333393966
                },
                {
                    "name": "D#3",
                    "midi": 51,
                    "time": 274.54583333333284,
                    "velocity": 0.8818897637795275,
                    "duration": 0.05625000000009095
                },
                {
                    "name": "F6",
                    "midi": 89,
                    "time": 274.5479166666662,
                    "velocity": 0.952755905511811,
                    "duration": 0.6541666666667538
                },
                {
                    "name": "G5",
                    "midi": 79,
                    "time": 274.5541666666662,
                    "velocity": 0.8976377952755905,
                    "duration": 0.06041666666669698
                },
                {
                    "name": "A#3",
                    "midi": 58,
                    "time": 274.9583333333329,
                    "velocity": 0.6062992125984252,
                    "duration": 0.03750000000002274
                },
                {
                    "name": "G4",
                    "midi": 67,
                    "time": 274.96458333333294,
                    "velocity": 0.8503937007874016,
                    "duration": 0.07083333333332575
                },
                {
                    "name": "G3",
                    "midi": 55,
                    "time": 274.9666666666663,
                    "velocity": 0.7716535433070866,
                    "duration": 0.08749999999997726
                },
                {
                    "name": "B3",
                    "midi": 59,
                    "time": 274.97083333333296,
                    "velocity": 0.7952755905511811,
                    "duration": 0.07916666666665151
                },
                {
                    "name": "D#4",
                    "midi": 63,
                    "time": 274.98333333333295,
                    "velocity": 0.7401574803149606,
                    "duration": 0.03125
                },
                {
                    "name": "B3",
                    "midi": 59,
                    "time": 275.29583333333295,
                    "velocity": 0.7874015748031497,
                    "duration": 0.07291666666668561
                },
                {
                    "name": "G4",
                    "midi": 67,
                    "time": 275.302083333333,
                    "velocity": 0.7559055118110236,
                    "duration": 0.041666666666685614
                },
                {
                    "name": "D#4",
                    "midi": 63,
                    "time": 275.30416666666633,
                    "velocity": 0.8188976377952756,
                    "duration": 0.04374999999998863
                },
                {
                    "name": "D#6",
                    "midi": 87,
                    "time": 275.314583333333,
                    "velocity": 0.9763779527559056,
                    "duration": 0.09374999999994316
                },
                {
                    "name": "E3",
                    "midi": 52,
                    "time": 275.6354166666663,
                    "velocity": 0.8976377952755905,
                    "duration": 0.07291666666674246
                },
                {
                    "name": "E2",
                    "midi": 40,
                    "time": 275.63749999999965,
                    "velocity": 0.84251968503937,
                    "duration": 0.03541666666671972
                },
                {
                    "name": "D6",
                    "midi": 86,
                    "time": 275.64374999999967,
                    "velocity": 0.9606299212598425,
                    "duration": 0.20416666666670835
                },
                {
                    "name": "C6",
                    "midi": 84,
                    "time": 275.7729166666664,
                    "velocity": 0.889763779527559,
                    "duration": 0.1395833333333485
                },
                {
                    "name": "D4",
                    "midi": 62,
                    "time": 275.9374999999997,
                    "velocity": 0.8188976377952756,
                    "duration": 0.0708333333333826
                },
                {
                    "name": "G4",
                    "midi": 67,
                    "time": 275.9395833333331,
                    "velocity": 0.7874015748031497,
                    "duration": 0.0708333333333826
                },
                {
                    "name": "D6",
                    "midi": 86,
                    "time": 275.94166666666644,
                    "velocity": 0.8976377952755905,
                    "duration": 0.20625000000001137
                },
                {
                    "name": "A#3",
                    "midi": 58,
                    "time": 275.9520833333331,
                    "velocity": 0.6456692913385826,
                    "duration": 0.052083333333314386
                },
                {
                    "name": "C6",
                    "midi": 84,
                    "time": 276.06041666666647,
                    "velocity": 0.8031496062992126,
                    "duration": 0.20625000000001137
                },
                {
                    "name": "A#5",
                    "midi": 82,
                    "time": 276.22291666666644,
                    "velocity": 0.9133858267716536,
                    "duration": 0.11250000000006821
                },
                {
                    "name": "A#3",
                    "midi": 58,
                    "time": 276.22291666666644,
                    "velocity": 0.7952755905511811,
                    "duration": 0.07291666666674246
                },
                {
                    "name": "G4",
                    "midi": 67,
                    "time": 276.22916666666646,
                    "velocity": 0.5039370078740157,
                    "duration": 0.05416666666673109
                },
                {
                    "name": "D4",
                    "midi": 62,
                    "time": 276.2333333333331,
                    "velocity": 0.5433070866141733,
                    "duration": 0.043750000000045475
                },
                {
                    "name": "D5",
                    "midi": 74,
                    "time": 276.33958333333317,
                    "velocity": 0.7874015748031497,
                    "duration": 0.09583333333335986
                },
                {
                    "name": "A5",
                    "midi": 81,
                    "time": 276.5374999999999,
                    "velocity": 0.9763779527559056,
                    "duration": 0.4229166666667652
                },
                {
                    "name": "F2",
                    "midi": 41,
                    "time": 276.54583333333323,
                    "velocity": 0.952755905511811,
                    "duration": 0.10208333333332575
                },
                {
                    "name": "F3",
                    "midi": 53,
                    "time": 276.5499999999999,
                    "velocity": 0.889763779527559,
                    "duration": 0.054166666666674246
                },
                {
                    "name": "B3",
                    "midi": 59,
                    "time": 276.8708333333332,
                    "velocity": 0.7086614173228346,
                    "duration": 0.08750000000009095
                },
                {
                    "name": "B4",
                    "midi": 71,
                    "time": 276.8729166666666,
                    "velocity": 0.84251968503937,
                    "duration": 0.10000000000007958
                },
                {
                    "name": "G4",
                    "midi": 67,
                    "time": 276.88749999999993,
                    "velocity": 0.49606299212598426,
                    "duration": 0.05000000000001137
                },
                {
                    "name": "F#5",
                    "midi": 78,
                    "time": 276.9020833333333,
                    "velocity": 0.44881889763779526,
                    "duration": 0.041666666666685614
                },
                {
                    "name": "F4",
                    "midi": 65,
                    "time": 276.9083333333333,
                    "velocity": 0.3858267716535433,
                    "duration": 0.04791666666665151
                },
                {
                    "name": "D4",
                    "midi": 62,
                    "time": 276.92499999999995,
                    "velocity": 0.23622047244094488,
                    "duration": 0.03541666666671972
                },
                {
                    "name": "B3",
                    "midi": 59,
                    "time": 277.1791666666667,
                    "velocity": 0.7559055118110236,
                    "duration": 0.07291666666674246
                },
                {
                    "name": "G4",
                    "midi": 67,
                    "time": 277.18125000000003,
                    "velocity": 0.6929133858267716,
                    "duration": 0.03750000000002274
                },
                {
                    "name": "D#4",
                    "midi": 63,
                    "time": 277.1854166666667,
                    "velocity": 0.7480314960629921,
                    "duration": 0.03333333333335986
                },
                {
                    "name": "G5",
                    "midi": 79,
                    "time": 277.2041666666667,
                    "velocity": 0.952755905511811,
                    "duration": 0.10833333333334849
                },
                {
                    "name": "B4",
                    "midi": 71,
                    "time": 277.2250000000001,
                    "velocity": 0.6692913385826772,
                    "duration": 0.039583333333325754
                },
                {
                    "name": "F2",
                    "midi": 41,
                    "time": 277.4958333333334,
                    "velocity": 0.952755905511811,
                    "duration": 0.06666666666666288
                },
                {
                    "name": "F1",
                    "midi": 29,
                    "time": 277.5041666666667,
                    "velocity": 0.9291338582677166,
                    "duration": 0.06458333333335986
                },
                {
                    "name": "A4",
                    "midi": 69,
                    "time": 277.5166666666667,
                    "velocity": 0.952755905511811,
                    "duration": 0.056250000000034106
                },
                {
                    "name": "G5",
                    "midi": 79,
                    "time": 277.5166666666667,
                    "velocity": 0.8976377952755905,
                    "duration": 0.06875000000007958
                },
                {
                    "name": "D#5",
                    "midi": 75,
                    "time": 277.52083333333337,
                    "velocity": 0.8818897637795275,
                    "duration": 0.04791666666670835
                },
                {
                    "name": "B4",
                    "midi": 71,
                    "time": 277.5375,
                    "velocity": 0.6220472440944882,
                    "duration": 0.04166666666674246
                },
                {
                    "name": "F1",
                    "midi": 29,
                    "time": 277.6250000000001,
                    "velocity": 0.7165354330708661,
                    "duration": 0.06875000000013642
                },
                {
                    "name": "F2",
                    "midi": 41,
                    "time": 277.6270833333335,
                    "velocity": 0.8503937007874016,
                    "duration": 0.0645833333334167
                },
                {
                    "name": "G5",
                    "midi": 79,
                    "time": 277.62916666666683,
                    "velocity": 0.8031496062992126,
                    "duration": 0.06875000000007958
                },
                {
                    "name": "D#5",
                    "midi": 75,
                    "time": 277.6333333333335,
                    "velocity": 0.8503937007874016,
                    "duration": 0.07083333333343944
                },
                {
                    "name": "A4",
                    "midi": 69,
                    "time": 277.63750000000016,
                    "velocity": 0.5669291338582677,
                    "duration": 0.04583333333334849
                },
                {
                    "name": "G4",
                    "midi": 67,
                    "time": 277.6437500000002,
                    "velocity": 0.6535433070866141,
                    "duration": 0.041666666666685614
                },
                {
                    "name": "A4",
                    "midi": 69,
                    "time": 277.77500000000026,
                    "velocity": 0.8346456692913385,
                    "duration": 0.0625
                },
                {
                    "name": "D#5",
                    "midi": 75,
                    "time": 277.77500000000026,
                    "velocity": 0.8110236220472441,
                    "duration": 0.05624999999997726
                },
                {
                    "name": "G5",
                    "midi": 79,
                    "time": 277.77500000000026,
                    "velocity": 0.7637795275590551,
                    "duration": 0.04166666666662877
                },
                {
                    "name": "F2",
                    "midi": 41,
                    "time": 277.7916666666669,
                    "velocity": 0.8818897637795275,
                    "duration": 0.06875000000002274
                },
                {
                    "name": "F1",
                    "midi": 29,
                    "time": 277.7958333333336,
                    "velocity": 0.84251968503937,
                    "duration": 0.07916666666670835
                },
                {
                    "name": "F1",
                    "midi": 29,
                    "time": 278.11666666666696,
                    "velocity": 0.9212598425196851,
                    "duration": 0.058333333333393966
                },
                {
                    "name": "A4",
                    "midi": 69,
                    "time": 278.1187500000003,
                    "velocity": 0.9212598425196851,
                    "duration": 0.07500000000004547
                },
                {
                    "name": "F2",
                    "midi": 41,
                    "time": 278.1187500000003,
                    "velocity": 0.952755905511811,
                    "duration": 0.06041666666669698
                },
                {
                    "name": "D#4",
                    "midi": 63,
                    "time": 278.1208333333337,
                    "velocity": 1,
                    "duration": 0.06666666666666288
                },
                {
                    "name": "C4",
                    "midi": 60,
                    "time": 278.12500000000034,
                    "velocity": 0.9212598425196851,
                    "duration": 0.04791666666665151
                },
                {
                    "name": "G1",
                    "midi": 31,
                    "time": 278.1520833333337,
                    "velocity": 0.3858267716535433,
                    "duration": 0.043750000000045475
                },
                {
                    "name": "D4",
                    "midi": 62,
                    "time": 278.4458333333337,
                    "velocity": 0.889763779527559,
                    "duration": 0.3541666666666856
                },
                {
                    "name": "A#4",
                    "midi": 70,
                    "time": 278.4458333333337,
                    "velocity": 0.8976377952755905,
                    "duration": 0.33333333333337123
                },
                {
                    "name": "A#3",
                    "midi": 58,
                    "time": 278.4500000000004,
                    "velocity": 1,
                    "duration": 0.19375000000002274
                },
                {
                    "name": "F4",
                    "midi": 65,
                    "time": 278.45416666666705,
                    "velocity": 0.7716535433070866,
                    "duration": 0.36458333333337123
                },
                {
                    "name": "A#2",
                    "midi": 46,
                    "time": 278.4562500000004,
                    "velocity": 0.984251968503937,
                    "duration": 0.1708333333333485
                },
                {
                    "name": "A#1",
                    "midi": 34,
                    "time": 278.46250000000043,
                    "velocity": 0.905511811023622,
                    "duration": 0.08125000000001137
                },
                {
                    "name": "A#2",
                    "midi": 46,
                    "time": 278.81458333333376,
                    "velocity": 0.9448818897637795,
                    "duration": 0.12708333333335986
                },
                {
                    "name": "A#3",
                    "midi": 58,
                    "time": 279.23125000000044,
                    "velocity": 0.7874015748031497,
                    "duration": 0.34375
                },
                {
                    "name": "C4",
                    "midi": 60,
                    "time": 279.80208333333377,
                    "velocity": 0.2755905511811024,
                    "duration": 0.3020833333334281
                },
                {
                    "name": "G#2",
                    "midi": 44,
                    "time": 279.8291666666671,
                    "velocity": 0.3779527559055118,
                    "duration": 0.2562500000000796
                },
                {
                    "name": "D#4",
                    "midi": 63,
                    "time": 279.83125000000047,
                    "velocity": 0.5511811023622047,
                    "duration": 1.5895833333333371
                },
                {
                    "name": "A#4",
                    "midi": 70,
                    "time": 279.9000000000005,
                    "velocity": 0.5354330708661418,
                    "duration": 1.5416666666666288
                },
                {
                    "name": "D3",
                    "midi": 50,
                    "time": 279.9062500000005,
                    "velocity": 0.3464566929133858,
                    "duration": 0.21666666666669698
                },
                {
                    "name": "D#3",
                    "midi": 51,
                    "time": 280.10625000000056,
                    "velocity": 0.4881889763779528,
                    "duration": 0.19791666666662877
                },
                {
                    "name": "E3",
                    "midi": 52,
                    "time": 280.32083333333384,
                    "velocity": 0.4881889763779528,
                    "duration": 0.17916666666667425
                },
                {
                    "name": "G3",
                    "midi": 55,
                    "time": 280.3750000000005,
                    "velocity": 0.3464566929133858,
                    "duration": 0.41874999999998863
                },
                {
                    "name": "F3",
                    "midi": 53,
                    "time": 280.4916666666672,
                    "velocity": 0.4566929133858268,
                    "duration": 0.1729166666666515
                },
                {
                    "name": "F#3",
                    "midi": 54,
                    "time": 280.6604166666672,
                    "velocity": 0.5511811023622047,
                    "duration": 0.16041666666666288
                },
                {
                    "name": "C4",
                    "midi": 60,
                    "time": 280.73541666666716,
                    "velocity": 0.4645669291338583,
                    "duration": 0.05833333333333712
                },
                {
                    "name": "G3",
                    "midi": 55,
                    "time": 280.8354166666672,
                    "velocity": 0.4251968503937008,
                    "duration": 0.24791666666664014
                },
                {
                    "name": "D#2",
                    "midi": 39,
                    "time": 281.03958333333384,
                    "velocity": 0.6377952755905512,
                    "duration": 0.14374999999995453
                },
                {
                    "name": "G#3",
                    "midi": 56,
                    "time": 281.05833333333385,
                    "velocity": 0.48031496062992124,
                    "duration": 0.1645833333332689
                },
                {
                    "name": "G3",
                    "midi": 55,
                    "time": 281.2458333333338,
                    "velocity": 0.31496062992125984,
                    "duration": 0.14375000000001137
                },
                {
                    "name": "C4",
                    "midi": 60,
                    "time": 281.4104166666671,
                    "velocity": 0.7086614173228346,
                    "duration": 0.2541666666666629
                },
                {
                    "name": "F3",
                    "midi": 53,
                    "time": 281.41875000000044,
                    "velocity": 0.30708661417322836,
                    "duration": 0.4145833333333826
                },
                {
                    "name": "F#3",
                    "midi": 54,
                    "time": 281.4208333333338,
                    "velocity": 0.3858267716535433,
                    "duration": 0.12708333333330302
                },
                {
                    "name": "E3",
                    "midi": 52,
                    "time": 281.74166666666713,
                    "velocity": 0.33858267716535434,
                    "duration": 0.12500000000005684
                },
                {
                    "name": "D#4",
                    "midi": 63,
                    "time": 281.7562500000005,
                    "velocity": 0.8582677165354331,
                    "duration": 1.6208333333335077
                },
                {
                    "name": "C4",
                    "midi": 60,
                    "time": 281.76041666666714,
                    "velocity": 0.6220472440944882,
                    "duration": 0.06666666666666288
                },
                {
                    "name": "D#3",
                    "midi": 51,
                    "time": 281.86875000000055,
                    "velocity": 0.3937007874015748,
                    "duration": 0.19166666666666288
                },
                {
                    "name": "D3",
                    "midi": 50,
                    "time": 282.0812500000005,
                    "velocity": 0.4094488188976378,
                    "duration": 0.19791666666674246
                },
                {
                    "name": "C4",
                    "midi": 60,
                    "time": 282.1041666666672,
                    "velocity": 0.4330708661417323,
                    "duration": 0.2333333333333485
                },
                {
                    "name": "A#4",
                    "midi": 70,
                    "time": 282.12083333333385,
                    "velocity": 0.8503937007874016,
                    "duration": 1.2333333333334622
                },
                {
                    "name": "G#2",
                    "midi": 44,
                    "time": 282.1229166666672,
                    "velocity": 0.6377952755905512,
                    "duration": 0.19375000000002274
                },
                {
                    "name": "D#3",
                    "midi": 51,
                    "time": 282.27916666666727,
                    "velocity": 0.47244094488188976,
                    "duration": 0.18333333333328028
                },
                {
                    "name": "G3",
                    "midi": 55,
                    "time": 282.47083333333387,
                    "velocity": 0.5118110236220472,
                    "duration": 0.14583333333337123
                },
                {
                    "name": "E3",
                    "midi": 52,
                    "time": 282.4854166666672,
                    "velocity": 0.48031496062992124,
                    "duration": 0.19375000000002274
                },
                {
                    "name": "F3",
                    "midi": 53,
                    "time": 282.67916666666724,
                    "velocity": 0.4566929133858268,
                    "duration": 0.14791666666667425
                },
                {
                    "name": "C4",
                    "midi": 60,
                    "time": 282.79166666666725,
                    "velocity": 0.49606299212598426,
                    "duration": 0.05208333333337123
                },
                {
                    "name": "F#3",
                    "midi": 54,
                    "time": 282.8291666666673,
                    "velocity": 0.5433070866141733,
                    "duration": 0.1500000000000341
                },
                {
                    "name": "G3",
                    "midi": 55,
                    "time": 282.98750000000064,
                    "velocity": 0.4330708661417323,
                    "duration": 0.16458333333332575
                },
                {
                    "name": "D#2",
                    "midi": 39,
                    "time": 283.0666666666673,
                    "velocity": 0.6141732283464567,
                    "duration": 0.11041666666665151
                },
                {
                    "name": "G#3",
                    "midi": 56,
                    "time": 283.1416666666673,
                    "velocity": 0.6062992125984252,
                    "duration": 0.1395833333333485
                },
                {
                    "name": "G3",
                    "midi": 55,
                    "time": 283.2916666666673,
                    "velocity": 0.4015748031496063,
                    "duration": 0.125
                },
                {
                    "name": "C4",
                    "midi": 60,
                    "time": 283.40000000000066,
                    "velocity": 0.6614173228346457,
                    "duration": 0.19166666666671972
                },
                {
                    "name": "F3",
                    "midi": 53,
                    "time": 283.427083333334,
                    "velocity": 0.25984251968503935,
                    "duration": 0.36041666666670835
                },
                {
                    "name": "F#3",
                    "midi": 54,
                    "time": 283.4375000000007,
                    "velocity": 0.47244094488188976,
                    "duration": 0.13541666666668561
                },
                {
                    "name": "D#4",
                    "midi": 63,
                    "time": 283.7250000000007,
                    "velocity": 0.8110236220472441,
                    "duration": 0.11874999999997726
                },
                {
                    "name": "C4",
                    "midi": 60,
                    "time": 283.73958333333405,
                    "velocity": 0.5433070866141733,
                    "duration": 0.04374999999998863
                },
                {
                    "name": "E3",
                    "midi": 52,
                    "time": 283.7541666666674,
                    "velocity": 0.3937007874015748,
                    "duration": 0.1166666666666174
                },
                {
                    "name": "D#3",
                    "midi": 51,
                    "time": 283.8729166666674,
                    "velocity": 0.5196850393700787,
                    "duration": 0.16458333333332575
                },
                {
                    "name": "A#4",
                    "midi": 70,
                    "time": 284.05208333333405,
                    "velocity": 0.8267716535433071,
                    "duration": 0.6666666666667993
                },
                {
                    "name": "D3",
                    "midi": 50,
                    "time": 284.05208333333405,
                    "velocity": 0.49606299212598426,
                    "duration": 0.125
                },
                {
                    "name": "G#2",
                    "midi": 44,
                    "time": 284.0750000000007,
                    "velocity": 0.49606299212598426,
                    "duration": 0.1958333333333826
                },
                {
                    "name": "D#3",
                    "midi": 51,
                    "time": 284.1916666666674,
                    "velocity": 0.5196850393700787,
                    "duration": 0.1395833333333485
                },
                {
                    "name": "D#4",
                    "midi": 63,
                    "time": 284.26875000000075,
                    "velocity": 0.03937007874015748,
                    "duration": 0.13750000000004547
                },
                {
                    "name": "E3",
                    "midi": 52,
                    "time": 284.3645833333341,
                    "velocity": 0.4251968503937008,
                    "duration": 0.17291666666670835
                },
                {
                    "name": "C4",
                    "midi": 60,
                    "time": 284.4166666666675,
                    "velocity": 0.7637795275590551,
                    "duration": 0.2125000000000341
                },
                {
                    "name": "G3",
                    "midi": 55,
                    "time": 284.4437500000008,
                    "velocity": 0.47244094488188976,
                    "duration": 0.22916666666668561
                },
                {
                    "name": "F3",
                    "midi": 53,
                    "time": 284.5479166666675,
                    "velocity": 0.3779527559055118,
                    "duration": 0.11250000000001137
                },
                {
                    "name": "F#3",
                    "midi": 54,
                    "time": 284.67708333333417,
                    "velocity": 0.44881889763779526,
                    "duration": 0.15833333333335986
                },
                {
                    "name": "C4",
                    "midi": 60,
                    "time": 284.7041666666675,
                    "velocity": 0.5984251968503937,
                    "duration": 0.05208333333337123
                },
                {
                    "name": "D#4",
                    "midi": 63,
                    "time": 284.71250000000083,
                    "velocity": 0.8661417322834646,
                    "duration": 0.7000000000001023
                },
                {
                    "name": "G3",
                    "midi": 55,
                    "time": 284.86458333333417,
                    "velocity": 0.3779527559055118,
                    "duration": 0.1750000000000682
                },
                {
                    "name": "A#4",
                    "midi": 70,
                    "time": 285.0291666666675,
                    "velocity": 0.8110236220472441,
                    "duration": 0.39375000000012506
                },
                {
                    "name": "D#2",
                    "midi": 39,
                    "time": 285.03125000000085,
                    "velocity": 0.5196850393700787,
                    "duration": 0.12916666666677656
                },
                {
                    "name": "G#3",
                    "midi": 56,
                    "time": 285.0333333333342,
                    "velocity": 0.5511811023622047,
                    "duration": 0.12500000000005684
                },
                {
                    "name": "G3",
                    "midi": 55,
                    "time": 285.17916666666764,
                    "velocity": 0.3858267716535433,
                    "duration": 0.11666666666667425
                },
                {
                    "name": "F#3",
                    "midi": 54,
                    "time": 285.331250000001,
                    "velocity": 0.49606299212598426,
                    "duration": 0.12708333333330302
                },
                {
                    "name": "C4",
                    "midi": 60,
                    "time": 285.3833333333343,
                    "velocity": 0.7086614173228346,
                    "duration": 0.19583333333332575
                },
                {
                    "name": "F3",
                    "midi": 53,
                    "time": 285.47500000000093,
                    "velocity": 0.3937007874015748,
                    "duration": 0.2729166666667311
                },
                {
                    "name": "D#4",
                    "midi": 63,
                    "time": 285.67916666666764,
                    "velocity": 0.7401574803149606,
                    "duration": 1.6104166666667652
                },
                {
                    "name": "C4",
                    "midi": 60,
                    "time": 285.6833333333343,
                    "velocity": 0.5590551181102362,
                    "duration": 0.05208333333337123
                },
                {
                    "name": "E3",
                    "midi": 52,
                    "time": 285.69791666666765,
                    "velocity": 0.2677165354330709,
                    "duration": 0.13749999999998863
                },
                {
                    "name": "D#3",
                    "midi": 51,
                    "time": 285.84375000000097,
                    "velocity": 0.4645669291338583,
                    "duration": 0.15833333333335986
                },
                {
                    "name": "A#4",
                    "midi": 70,
                    "time": 286.018750000001,
                    "velocity": 0.7007874015748031,
                    "duration": 0.4625000000000341
                },
                {
                    "name": "D3",
                    "midi": 50,
                    "time": 286.02291666666764,
                    "velocity": 0.3937007874015748,
                    "duration": 0.13541666666668561
                },
                {
                    "name": "G#2",
                    "midi": 44,
                    "time": 286.04166666666765,
                    "velocity": 0.5590551181102362,
                    "duration": 0.17291666666670835
                },
                {
                    "name": "D#3",
                    "midi": 51,
                    "time": 286.16458333333435,
                    "velocity": 0.5275590551181102,
                    "duration": 0.14375000000001137
                },
                {
                    "name": "E3",
                    "midi": 52,
                    "time": 286.33958333333436,
                    "velocity": 0.4094488188976378,
                    "duration": 0.16666666666662877
                },
                {
                    "name": "G3",
                    "midi": 55,
                    "time": 286.375000000001,
                    "velocity": 0.5511811023622047,
                    "duration": 0.14583333333331439
                },
                {
                    "name": "F3",
                    "midi": 53,
                    "time": 286.5166666666677,
                    "velocity": 0.4330708661417323,
                    "duration": 0.15208333333333712
                },
                {
                    "name": "F#3",
                    "midi": 54,
                    "time": 286.6729166666677,
                    "velocity": 0.5511811023622047,
                    "duration": 0.15625
                },
                {
                    "name": "C4",
                    "midi": 60,
                    "time": 286.700000000001,
                    "velocity": 0.5354330708661418,
                    "duration": 0.04791666666665151
                },
                {
                    "name": "G#4",
                    "midi": 68,
                    "time": 286.718750000001,
                    "velocity": 0.7795275590551181,
                    "duration": 0.7833333333333599
                },
                {
                    "name": "G3",
                    "midi": 55,
                    "time": 286.8479166666677,
                    "velocity": 0.4566929133858268,
                    "duration": 0.17916666666667425
                },
                {
                    "name": "D#2",
                    "midi": 39,
                    "time": 286.9729166666677,
                    "velocity": 0.6850393700787402,
                    "duration": 0.08958333333333712
                },
                {
                    "name": "G#3",
                    "midi": 56,
                    "time": 287.0541666666677,
                    "velocity": 0.5590551181102362,
                    "duration": 0.15625
                },
                {
                    "name": "G3",
                    "midi": 55,
                    "time": 287.21250000000106,
                    "velocity": 0.3858267716535433,
                    "duration": 0.12083333333333712
                },
                {
                    "name": "C4",
                    "midi": 60,
                    "time": 287.31875000000105,
                    "velocity": 0.6850393700787402,
                    "duration": 0.12083333333333712
                },
                {
                    "name": "G#3",
                    "midi": 56,
                    "time": 287.3333333333344,
                    "velocity": 0.5433070866141733,
                    "duration": 0.11250000000001137
                },
                {
                    "name": "F3",
                    "midi": 53,
                    "time": 287.33750000000106,
                    "velocity": 0.44881889763779526,
                    "duration": 0.33749999999997726
                },
                {
                    "name": "B3",
                    "midi": 59,
                    "time": 287.48125000000107,
                    "velocity": 0.5669291338582677,
                    "duration": 0.17708333333331439
                },
                {
                    "name": "C4",
                    "midi": 60,
                    "time": 287.6479166666677,
                    "velocity": 0.6614173228346457,
                    "duration": 0.1708333333333485
                },
                {
                    "name": "D#4",
                    "midi": 63,
                    "time": 287.8458333333344,
                    "velocity": 0.5669291338582677,
                    "duration": 0.1624999999999659
                },
                {
                    "name": "C2",
                    "midi": 36,
                    "time": 288.000000000001,
                    "velocity": 0.29133858267716534,
                    "duration": 0.19583333333343944
                },
                {
                    "name": "A3",
                    "midi": 57,
                    "time": 288.0229166666677,
                    "velocity": 0.4330708661417323,
                    "duration": 0.31666666666677656
                },
                {
                    "name": "G4",
                    "midi": 67,
                    "time": 288.02500000000106,
                    "velocity": 0.6535433070866141,
                    "duration": 1.395833333333485
                },
                {
                    "name": "D#4",
                    "midi": 63,
                    "time": 288.0270833333344,
                    "velocity": 0.6299212598425197,
                    "duration": 1.460416666666788
                },
                {
                    "name": "F2",
                    "midi": 41,
                    "time": 288.04166666666777,
                    "velocity": 0.28346456692913385,
                    "duration": 0.16666666666668561
                },
                {
                    "name": "C3",
                    "midi": 48,
                    "time": 288.0666666666678,
                    "velocity": 0.4015748031496063,
                    "duration": 0.22708333333332575
                },
                {
                    "name": "A#3",
                    "midi": 58,
                    "time": 288.1916666666678,
                    "velocity": 0.48031496062992124,
                    "duration": 0.2020833333333485
                },
                {
                    "name": "B3",
                    "midi": 59,
                    "time": 288.4020833333345,
                    "velocity": 0.33858267716535434,
                    "duration": 0.16874999999998863
                },
                {
                    "name": "F3",
                    "midi": 53,
                    "time": 288.49791666666783,
                    "velocity": 0.4645669291338583,
                    "duration": 0.15416666666664014
                },
                {
                    "name": "C4",
                    "midi": 60,
                    "time": 288.5583333333345,
                    "velocity": 0.4251968503937008,
                    "duration": 0.17500000000001137
                },
                {
                    "name": "C#4",
                    "midi": 61,
                    "time": 288.7291666666678,
                    "velocity": 0.6535433070866141,
                    "duration": 0.18333333333333712
                },
                {
                    "name": "A3",
                    "midi": 57,
                    "time": 288.83125000000115,
                    "velocity": 0.49606299212598426,
                    "duration": 0.054166666666674246
                },
                {
                    "name": "D4",
                    "midi": 62,
                    "time": 288.9020833333345,
                    "velocity": 0.5826771653543307,
                    "duration": 0.22916666666668561
                },
                {
                    "name": "F1",
                    "midi": 29,
                    "time": 289.1375000000012,
                    "velocity": 0.7401574803149606,
                    "duration": 0.06875000000002274
                },
                {
                    "name": "F2",
                    "midi": 41,
                    "time": 289.1437500000012,
                    "velocity": 0.5511811023622047,
                    "duration": 0.08958333333333712
                },
                {
                    "name": "D4",
                    "midi": 62,
                    "time": 289.26458333333454,
                    "velocity": 0.5275590551181102,
                    "duration": 0.18333333333333712
                },
                {
                    "name": "D#3",
                    "midi": 51,
                    "time": 289.46458333333453,
                    "velocity": 0.5039370078740157,
                    "duration": 0.3083333333333371
                },
                {
                    "name": "C#4",
                    "midi": 61,
                    "time": 289.46458333333453,
                    "velocity": 0.5511811023622047,
                    "duration": 0.14375000000001137
                },
                {
                    "name": "A3",
                    "midi": 57,
                    "time": 289.48541666666785,
                    "velocity": 0.6299212598425197,
                    "duration": 0.2625000000000455
                },
                {
                    "name": "C4",
                    "midi": 60,
                    "time": 289.6312500000012,
                    "velocity": 0.3228346456692913,
                    "duration": 0.5354166666667197
                },
                {
                    "name": "G3",
                    "midi": 55,
                    "time": 289.77708333333453,
                    "velocity": 0.5118110236220472,
                    "duration": 0.05000000000001137
                },
                {
                    "name": "B3",
                    "midi": 59,
                    "time": 289.8291666666679,
                    "velocity": 0.3937007874015748,
                    "duration": 0.15833333333335986
                },
                {
                    "name": "A#3",
                    "midi": 58,
                    "time": 289.9916666666679,
                    "velocity": 0.28346456692913385,
                    "duration": 0.1875
                },
                {
                    "name": "C2",
                    "midi": 36,
                    "time": 290.08125000000126,
                    "velocity": 0.5118110236220472,
                    "duration": 0.1187500000000341
                },
                {
                    "name": "A3",
                    "midi": 57,
                    "time": 290.1291666666679,
                    "velocity": 0.5826771653543307,
                    "duration": 0.21875000000005684
                },
                {
                    "name": "D#4",
                    "midi": 63,
                    "time": 290.14166666666796,
                    "velocity": 0.7637795275590551,
                    "duration": 1.3000000000002387
                },
                {
                    "name": "G4",
                    "midi": 67,
                    "time": 290.15416666666795,
                    "velocity": 0.7952755905511811,
                    "duration": 1.2270833333335531
                },
                {
                    "name": "C3",
                    "midi": 48,
                    "time": 290.15416666666795,
                    "velocity": 0.4251968503937008,
                    "duration": 0.12708333333330302
                },
                {
                    "name": "A#3",
                    "midi": 58,
                    "time": 290.3458333333346,
                    "velocity": 0.49606299212598426,
                    "duration": 0.17291666666670835
                },
                {
                    "name": "F3",
                    "midi": 53,
                    "time": 290.47500000000133,
                    "velocity": 0.49606299212598426,
                    "duration": 0.11250000000001137
                },
                {
                    "name": "B3",
                    "midi": 59,
                    "time": 290.510416666668,
                    "velocity": 0.5984251968503937,
                    "duration": 0.17500000000001137
                },
                {
                    "name": "C4",
                    "midi": 60,
                    "time": 290.666666666668,
                    "velocity": 0.6062992125984252,
                    "duration": 0.1645833333333826
                },
                {
                    "name": "A3",
                    "midi": 57,
                    "time": 290.7895833333347,
                    "velocity": 0.25984251968503935,
                    "duration": 0.043750000000045475
                },
                {
                    "name": "C#4",
                    "midi": 61,
                    "time": 290.80416666666804,
                    "velocity": 0.6850393700787402,
                    "duration": 0.1812500000000341
                },
                {
                    "name": "D4",
                    "midi": 62,
                    "time": 290.96458333333476,
                    "velocity": 0.6299212598425197,
                    "duration": 0.1875
                },
                {
                    "name": "F1",
                    "midi": 29,
                    "time": 291.08333333333474,
                    "velocity": 0.5511811023622047,
                    "duration": 0.10833333333340533
                },
                {
                    "name": "F2",
                    "midi": 41,
                    "time": 291.14375000000143,
                    "velocity": 0.18110236220472442,
                    "duration": 0.10000000000002274
                },
                {
                    "name": "D4",
                    "midi": 62,
                    "time": 291.31666666666814,
                    "velocity": 0.49606299212598426,
                    "duration": 0.1437500000000682
                },
                {
                    "name": "A3",
                    "midi": 57,
                    "time": 291.41458333333486,
                    "velocity": 0.5669291338582677,
                    "duration": 0.22708333333332575
                },
                {
                    "name": "D#3",
                    "midi": 51,
                    "time": 291.4229166666682,
                    "velocity": 0.5354330708661418,
                    "duration": 0.07916666666670835
                },
                {
                    "name": "C#4",
                    "midi": 61,
                    "time": 291.49375000000157,
                    "velocity": 0.5669291338582677,
                    "duration": 0.1312499999999659
                },
                {
                    "name": "C4",
                    "midi": 60,
                    "time": 291.63333333333486,
                    "velocity": 0.5669291338582677,
                    "duration": 0.372916666666697
                },
                {
                    "name": "G3",
                    "midi": 55,
                    "time": 291.73750000000155,
                    "velocity": 0.4645669291338583,
                    "duration": 0.054166666666674246
                },
                {
                    "name": "B3",
                    "midi": 59,
                    "time": 291.7916666666682,
                    "velocity": 0.4881889763779528,
                    "duration": 0.15208333333333712
                },
                {
                    "name": "A#3",
                    "midi": 58,
                    "time": 291.9479166666682,
                    "velocity": 0.49606299212598426,
                    "duration": 0.13125000000002274
                },
                {
                    "name": "C2",
                    "midi": 36,
                    "time": 292.0104166666682,
                    "velocity": 0.5984251968503937,
                    "duration": 0.08333333333337123
                },
                {
                    "name": "G4",
                    "midi": 67,
                    "time": 292.05000000000155,
                    "velocity": 0.7874015748031497,
                    "duration": 0.32916666666670835
                },
                {
                    "name": "D#4",
                    "midi": 63,
                    "time": 292.05000000000155,
                    "velocity": 0.7874015748031497,
                    "duration": 0.3875000000001023
                },
                {
                    "name": "A3",
                    "midi": 57,
                    "time": 292.05416666666827,
                    "velocity": 0.5669291338582677,
                    "duration": 0.17708333333331439
                },
                {
                    "name": "C3",
                    "midi": 48,
                    "time": 292.0833333333349,
                    "velocity": 0.49606299212598426,
                    "duration": 0.09583333333335986
                },
                {
                    "name": "A#3",
                    "midi": 58,
                    "time": 292.23541666666824,
                    "velocity": 0.5118110236220472,
                    "duration": 0.14791666666667425
                },
                {
                    "name": "F3",
                    "midi": 53,
                    "time": 292.39166666666824,
                    "velocity": 0.5039370078740157,
                    "duration": 0.17500000000012506
                },
                {
                    "name": "B3",
                    "midi": 59,
                    "time": 292.3937500000016,
                    "velocity": 0.49606299212598426,
                    "duration": 0.1437500000000682
                },
                {
                    "name": "A3",
                    "midi": 57,
                    "time": 292.39583333333496,
                    "velocity": 0.7795275590551181,
                    "duration": 0.10000000000002274
                },
                {
                    "name": "C4",
                    "midi": 60,
                    "time": 292.5437500000017,
                    "velocity": 0.49606299212598426,
                    "duration": 0.1416666666666515
                },
                {
                    "name": "C#4",
                    "midi": 61,
                    "time": 292.68541666666835,
                    "velocity": 0.6299212598425197,
                    "duration": 0.14374999999995453
                },
                {
                    "name": "A3",
                    "midi": 57,
                    "time": 292.689583333335,
                    "velocity": 0.5590551181102362,
                    "duration": 0.04374999999998863
                },
                {
                    "name": "C4",
                    "midi": 60,
                    "time": 292.702083333335,
                    "velocity": 0.8740157480314961,
                    "duration": 0.11874999999997726
                },
                {
                    "name": "D4",
                    "midi": 62,
                    "time": 292.84375000000165,
                    "velocity": 0.5275590551181102,
                    "duration": 0.16041666666666288
                },
                {
                    "name": "F1",
                    "midi": 29,
                    "time": 293.01666666666836,
                    "velocity": 0.5433070866141733,
                    "duration": 0.07500000000004547
                },
                {
                    "name": "D#4",
                    "midi": 63,
                    "time": 293.03541666666837,
                    "velocity": 0.6141732283464567,
                    "duration": 0.3333333333334281
                },
                {
                    "name": "G4",
                    "midi": 67,
                    "time": 293.04583333333505,
                    "velocity": 0.6771653543307087,
                    "duration": 0.2416666666667311
                },
                {
                    "name": "A3",
                    "midi": 57,
                    "time": 293.0520833333351,
                    "velocity": 0.49606299212598426,
                    "duration": 0.15833333333335986
                },
                {
                    "name": "F2",
                    "midi": 41,
                    "time": 293.06458333333507,
                    "velocity": 0.4645669291338583,
                    "duration": 0.07708333333334849
                },
                {
                    "name": "E4",
                    "midi": 64,
                    "time": 293.18750000000176,
                    "velocity": 0.5118110236220472,
                    "duration": 0.18750000000005684
                },
                {
                    "name": "D#3",
                    "midi": 51,
                    "time": 293.3458333333351,
                    "velocity": 0.5669291338582677,
                    "duration": 0.29583333333340533
                },
                {
                    "name": "A3",
                    "midi": 57,
                    "time": 293.37083333333516,
                    "velocity": 0.5984251968503937,
                    "duration": 0.10624999999998863
                },
                {
                    "name": "F4",
                    "midi": 65,
                    "time": 293.38333333333514,
                    "velocity": 0.4251968503937008,
                    "duration": 0.16666666666668561
                },
                {
                    "name": "F#4",
                    "midi": 66,
                    "time": 293.5520833333352,
                    "velocity": 0.5275590551181102,
                    "duration": 0.13125000000002274
                },
                {
                    "name": "G3",
                    "midi": 55,
                    "time": 293.66875000000186,
                    "velocity": 0.5039370078740157,
                    "duration": 0.043750000000045475
                },
                {
                    "name": "C4",
                    "midi": 60,
                    "time": 293.7062500000019,
                    "velocity": 0.5669291338582677,
                    "duration": 0.07708333333340533
                },
                {
                    "name": "G4",
                    "midi": 67,
                    "time": 293.71458333333527,
                    "velocity": 0.4094488188976378,
                    "duration": 0.16250000000002274
                },
                {
                    "name": "A4",
                    "midi": 69,
                    "time": 293.887500000002,
                    "velocity": 0.4015748031496063,
                    "duration": 0.14583333333337123
                },
                {
                    "name": "F3",
                    "midi": 53,
                    "time": 293.9708333333353,
                    "velocity": 0.16535433070866143,
                    "duration": 0.07083333333343944
                },
                {
                    "name": "A#3",
                    "midi": 58,
                    "time": 294.00625000000196,
                    "velocity": 0.6220472440944882,
                    "duration": 0.08958333333350765
                },
                {
                    "name": "A#1",
                    "midi": 34,
                    "time": 294.02500000000197,
                    "velocity": 0.5275590551181102,
                    "duration": 0.10000000000013642
                },
                {
                    "name": "A#4",
                    "midi": 70,
                    "time": 294.0395833333354,
                    "velocity": 0.49606299212598426,
                    "duration": 0.1437500000000682
                },
                {
                    "name": "D4",
                    "midi": 62,
                    "time": 294.0562500000021,
                    "velocity": 0.5905511811023622,
                    "duration": 0.08541666666667425
                },
                {
                    "name": "A#2",
                    "midi": 46,
                    "time": 294.0854166666688,
                    "velocity": 0.5275590551181102,
                    "duration": 0.06041666666664014
                },
                {
                    "name": "G4",
                    "midi": 67,
                    "time": 294.1000000000021,
                    "velocity": 0.5511811023622047,
                    "duration": 0.0687499999999659
                },
                {
                    "name": "B4",
                    "midi": 71,
                    "time": 294.20416666666875,
                    "velocity": 0.4881889763779528,
                    "duration": 0.15833333333335986
                },
                {
                    "name": "C5",
                    "midi": 72,
                    "time": 294.3979166666688,
                    "velocity": 0.3228346456692913,
                    "duration": 0.13749999999998863
                },
                {
                    "name": "F3",
                    "midi": 53,
                    "time": 294.4375000000021,
                    "velocity": 0.6220472440944882,
                    "duration": 0.08125000000001137
                },
                {
                    "name": "C#5",
                    "midi": 73,
                    "time": 294.5437500000021,
                    "velocity": 0.5826771653543307,
                    "duration": 0.16041666666666288
                },
                {
                    "name": "D4",
                    "midi": 62,
                    "time": 294.59791666666877,
                    "velocity": 0.6692913385826772,
                    "duration": 0.07916666666665151
                },
                {
                    "name": "D5",
                    "midi": 74,
                    "time": 294.72500000000207,
                    "velocity": 0.4251968503937008,
                    "duration": 0.15625000000005684
                },
                {
                    "name": "D4",
                    "midi": 62,
                    "time": 294.76041666666873,
                    "velocity": 0.5984251968503937,
                    "duration": 0.08541666666673109
                },
                {
                    "name": "A4",
                    "midi": 69,
                    "time": 294.7625000000021,
                    "velocity": 0.6377952755905512,
                    "duration": 0.09791666666671972
                },
                {
                    "name": "A#3",
                    "midi": 58,
                    "time": 294.7687500000021,
                    "velocity": 0.5669291338582677,
                    "duration": 0.09583333333335986
                },
                {
                    "name": "D#5",
                    "midi": 75,
                    "time": 294.90000000000214,
                    "velocity": 0.49606299212598426,
                    "duration": 0.1416666666666515
                },
                {
                    "name": "E5",
                    "midi": 76,
                    "time": 295.08750000000214,
                    "velocity": 0.4409448818897638,
                    "duration": 0.16458333333332575
                },
                {
                    "name": "F2",
                    "midi": 41,
                    "time": 295.1000000000021,
                    "velocity": 0.6299212598425197,
                    "duration": 0.08749999999997726
                },
                {
                    "name": "D4",
                    "midi": 62,
                    "time": 295.2854166666688,
                    "velocity": 0.6062992125984252,
                    "duration": 0.10833333333334849
                },
                {
                    "name": "F5",
                    "midi": 77,
                    "time": 295.2854166666688,
                    "velocity": 0.3543307086614173,
                    "duration": 0.16874999999998863
                },
                {
                    "name": "F#5",
                    "midi": 78,
                    "time": 295.4645833333355,
                    "velocity": 0.5354330708661418,
                    "duration": 0.1166666666666174
                },
                {
                    "name": "F4",
                    "midi": 65,
                    "time": 295.5208333333355,
                    "velocity": 0.5275590551181102,
                    "duration": 0.21875
                },
                {
                    "name": "F3",
                    "midi": 53,
                    "time": 295.5270833333355,
                    "velocity": 0.3700787401574803,
                    "duration": 0.2687499999999545
                },
                {
                    "name": "A#3",
                    "midi": 58,
                    "time": 295.5354166666688,
                    "velocity": 0.4645669291338583,
                    "duration": 0.13749999999998863
                },
                {
                    "name": "G5",
                    "midi": 79,
                    "time": 295.62708333333546,
                    "velocity": 0.2992125984251969,
                    "duration": 0.26875000000001137
                },
                {
                    "name": "G#5",
                    "midi": 80,
                    "time": 295.8645833333355,
                    "velocity": 0.36220472440944884,
                    "duration": 0.23333333333340533
                },
                {
                    "name": "D4",
                    "midi": 62,
                    "time": 295.9041666666688,
                    "velocity": 0.5433070866141733,
                    "duration": 0.05208333333337123
                },
                {
                    "name": "A#3",
                    "midi": 58,
                    "time": 295.9145833333355,
                    "velocity": 0.5275590551181102,
                    "duration": 0.07500000000004547
                },
                {
                    "name": "A5",
                    "midi": 81,
                    "time": 296.13333333333554,
                    "velocity": 0.14173228346456693,
                    "duration": 0.25
                },
                {
                    "name": "G#2",
                    "midi": 44,
                    "time": 296.35208333333554,
                    "velocity": 0.44881889763779526,
                    "duration": 0.7979166666667084
                },
                {
                    "name": "A#4",
                    "midi": 70,
                    "time": 296.40208333333555,
                    "velocity": 0.6850393700787402,
                    "duration": 1.8645833333333712
                },
                {
                    "name": "D3",
                    "midi": 50,
                    "time": 296.4041666666689,
                    "velocity": 0.3464566929133858,
                    "duration": 0.310416666666697
                },
                {
                    "name": "D#4",
                    "midi": 63,
                    "time": 296.42083333333557,
                    "velocity": 0.5275590551181102,
                    "duration": 1.5458333333334053
                },
                {
                    "name": "C4",
                    "midi": 60,
                    "time": 296.4250000000022,
                    "velocity": 0.3779527559055118,
                    "duration": 0.3875000000000455
                },
                {
                    "name": "D#3",
                    "midi": 51,
                    "time": 296.6104166666689,
                    "velocity": 0.44881889763779526,
                    "duration": 0.279166666666697
                },
                {
                    "name": "E3",
                    "midi": 52,
                    "time": 296.8291666666689,
                    "velocity": 0.3937007874015748,
                    "duration": 0.1708333333333485
                },
                {
                    "name": "G3",
                    "midi": 55,
                    "time": 296.8520833333356,
                    "velocity": 0.33858267716535434,
                    "duration": 0.2041666666666515
                },
                {
                    "name": "F3",
                    "midi": 53,
                    "time": 297.0000000000023,
                    "velocity": 0.5039370078740157,
                    "duration": 0.21666666666669698
                },
                {
                    "name": "F#3",
                    "midi": 54,
                    "time": 297.1875000000023,
                    "velocity": 0.49606299212598426,
                    "duration": 0.1875
                },
                {
                    "name": "C4",
                    "midi": 60,
                    "time": 297.18958333333563,
                    "velocity": 0.3937007874015748,
                    "duration": 0.5229166666666174
                },
                {
                    "name": "G3",
                    "midi": 55,
                    "time": 297.35416666666896,
                    "velocity": 0.5748031496062992,
                    "duration": 0.15416666666664014
                },
                {
                    "name": "D#2",
                    "midi": 39,
                    "time": 297.51250000000226,
                    "velocity": 0.6377952755905512,
                    "duration": 0.2750000000000341
                },
                {
                    "name": "G#3",
                    "midi": 56,
                    "time": 297.5333333333356,
                    "velocity": 0.5354330708661418,
                    "duration": 0.18541666666669698
                },
                {
                    "name": "G3",
                    "midi": 55,
                    "time": 297.72083333333563,
                    "velocity": 0.3700787401574803,
                    "duration": 0.18124999999997726
                },
                {
                    "name": "F#3",
                    "midi": 54,
                    "time": 297.91875000000226,
                    "velocity": 0.4566929133858268,
                    "duration": 0.1395833333333485
                },
                {
                    "name": "C4",
                    "midi": 60,
                    "time": 297.92916666666895,
                    "velocity": 0.6141732283464567,
                    "duration": 0.22291666666666288
                },
                {
                    "name": "F3",
                    "midi": 53,
                    "time": 297.96666666666897,
                    "velocity": 0.41732283464566927,
                    "duration": 0.09791666666666288
                },
                {
                    "name": "F3",
                    "midi": 53,
                    "time": 298.08541666666895,
                    "velocity": 0.25196850393700787,
                    "duration": 0.22083333333335986
                },
                {
                    "name": "D#4",
                    "midi": 63,
                    "time": 298.29583333333557,
                    "velocity": 0.7637795275590551,
                    "duration": 0.0791666666667652
                },
                {
                    "name": "E3",
                    "midi": 52,
                    "time": 298.2979166666689,
                    "velocity": 0.4251968503937008,
                    "duration": 0.16250000000007958
                },
                {
                    "name": "C4",
                    "midi": 60,
                    "time": 298.3000000000023,
                    "velocity": 0.6614173228346457,
                    "duration": 0.07291666666668561
                },
                {
                    "name": "D#3",
                    "midi": 51,
                    "time": 298.46458333333567,
                    "velocity": 0.4251968503937008,
                    "duration": 0.19375000000002274
                },
                {
                    "name": "A#4",
                    "midi": 70,
                    "time": 298.629166666669,
                    "velocity": 0.889763779527559,
                    "duration": 1.3041666666669585
                },
                {
                    "name": "D#4",
                    "midi": 63,
                    "time": 298.64375000000234,
                    "velocity": 0.7322834645669292,
                    "duration": 1.2937500000002728
                },
                {
                    "name": "G#2",
                    "midi": 44,
                    "time": 298.6458333333357,
                    "velocity": 0.6535433070866141,
                    "duration": 0.1791666666667311
                },
                {
                    "name": "C4",
                    "midi": 60,
                    "time": 298.6458333333357,
                    "velocity": 0.6614173228346457,
                    "duration": 0.2562500000000796
                },
                {
                    "name": "D3",
                    "midi": 50,
                    "time": 298.6645833333357,
                    "velocity": 0.1889763779527559,
                    "duration": 0.15416666666669698
                },
                {
                    "name": "D#3",
                    "midi": 51,
                    "time": 298.81666666666905,
                    "velocity": 0.5590551181102362,
                    "duration": 0.16250000000007958
                },
                {
                    "name": "E3",
                    "midi": 52,
                    "time": 298.9895833333358,
                    "velocity": 0.5511811023622047,
                    "duration": 0.19791666666674246
                },
                {
                    "name": "G3",
                    "midi": 55,
                    "time": 299.0000000000025,
                    "velocity": 0.3228346456692913,
                    "duration": 0.13125000000002274
                },
                {
                    "name": "F3",
                    "midi": 53,
                    "time": 299.1645833333359,
                    "velocity": 0.5118110236220472,
                    "duration": 0.20625000000001137
                },
                {
                    "name": "C4",
                    "midi": 60,
                    "time": 299.30000000000257,
                    "velocity": 0.5905511811023622,
                    "duration": 0.07291666666668561
                },
                {
                    "name": "F#3",
                    "midi": 54,
                    "time": 299.32500000000255,
                    "velocity": 0.5984251968503937,
                    "duration": 0.16666666666674246
                },
                {
                    "name": "G3",
                    "midi": 55,
                    "time": 299.48541666666927,
                    "velocity": 0.5039370078740157,
                    "duration": 0.18124999999997726
                },
                {
                    "name": "D#2",
                    "midi": 39,
                    "time": 299.57916666666927,
                    "velocity": 0.7007874015748031,
                    "duration": 0.12291666666664014
                },
                {
                    "name": "G#3",
                    "midi": 56,
                    "time": 299.64166666666927,
                    "velocity": 0.6141732283464567,
                    "duration": 0.1479166666666174
                },
                {
                    "name": "G3",
                    "midi": 55,
                    "time": 299.7958333333359,
                    "velocity": 0.48031496062992124,
                    "duration": 0.12083333333333712
                },
                {
                    "name": "C4",
                    "midi": 60,
                    "time": 299.92291666666927,
                    "velocity": 0.7165354330708661,
                    "duration": 0.13749999999998863
                },
                {
                    "name": "F3",
                    "midi": 53,
                    "time": 299.9250000000026,
                    "velocity": 0.5905511811023622,
                    "duration": 0.34374999999994316
                },
                {
                    "name": "F#3",
                    "midi": 54,
                    "time": 299.9375000000026,
                    "velocity": 0.5118110236220472,
                    "duration": 0.1479166666666174
                },
                {
                    "name": "C4",
                    "midi": 60,
                    "time": 300.2125000000026,
                    "velocity": 0.6692913385826772,
                    "duration": 0.06458333333330302
                },
                {
                    "name": "D#4",
                    "midi": 63,
                    "time": 300.2125000000026,
                    "velocity": 0.8976377952755905,
                    "duration": 0.10416666666662877
                },
                {
                    "name": "E3",
                    "midi": 52,
                    "time": 300.26041666666924,
                    "velocity": 0.49606299212598426,
                    "duration": 0.13333333333332575
                },
                {
                    "name": "D#3",
                    "midi": 51,
                    "time": 300.39375000000257,
                    "velocity": 0.5275590551181102,
                    "duration": 0.12708333333335986
                },
                {
                    "name": "D#4",
                    "midi": 63,
                    "time": 300.5375000000026,
                    "velocity": 0.7244094488188977,
                    "duration": 0.45833333333337123
                },
                {
                    "name": "G#2",
                    "midi": 44,
                    "time": 300.5458333333359,
                    "velocity": 0.6535433070866141,
                    "duration": 0.2562500000000796
                },
                {
                    "name": "D3",
                    "midi": 50,
                    "time": 300.55208333333593,
                    "velocity": 0.6220472440944882,
                    "duration": 0.1395833333333485
                },
                {
                    "name": "A#4",
                    "midi": 70,
                    "time": 300.55833333333595,
                    "velocity": 0.84251968503937,
                    "duration": 0.6291666666666629
                },
                {
                    "name": "D#3",
                    "midi": 51,
                    "time": 300.6916666666693,
                    "velocity": 0.6220472440944882,
                    "duration": 0.1500000000000341
                },
                {
                    "name": "E3",
                    "midi": 52,
                    "time": 300.85000000000264,
                    "velocity": 0.5511811023622047,
                    "duration": 0.1729166666666515
                },
                {
                    "name": "C4",
                    "midi": 60,
                    "time": 300.9062500000026,
                    "velocity": 0.7795275590551181,
                    "duration": 0.16874999999998863
                },
                {
                    "name": "G3",
                    "midi": 55,
                    "time": 300.91458333333594,
                    "velocity": 0.5826771653543307,
                    "duration": 0.29374999999998863
                },
                {
                    "name": "F3",
                    "midi": 53,
                    "time": 301.01666666666927,
                    "velocity": 0.5039370078740157,
                    "duration": 0.16041666666666288
                },
                {
                    "name": "F#3",
                    "midi": 54,
                    "time": 301.18333333333595,
                    "velocity": 0.5354330708661418,
                    "duration": 0.17500000000001137
                },
                {
                    "name": "C4",
                    "midi": 60,
                    "time": 301.21458333333595,
                    "velocity": 0.6377952755905512,
                    "duration": 0.05833333333333712
                },
                {
                    "name": "D#4",
                    "midi": 63,
                    "time": 301.220833333336,
                    "velocity": 0.9133858267716536,
                    "duration": 0.7000000000000455
                },
                {
                    "name": "G3",
                    "midi": 55,
                    "time": 301.36875000000265,
                    "velocity": 0.4015748031496063,
                    "duration": 0.19166666666666288
                },
                {
                    "name": "D#2",
                    "midi": 39,
                    "time": 301.520833333336,
                    "velocity": 0.5275590551181102,
                    "duration": 0.16458333333332575
                },
                {
                    "name": "A#4",
                    "midi": 70,
                    "time": 301.539583333336,
                    "velocity": 0.7716535433070866,
                    "duration": 0.6729166666667652
                },
                {
                    "name": "G#3",
                    "midi": 56,
                    "time": 301.552083333336,
                    "velocity": 0.5669291338582677,
                    "duration": 0.13541666666668561
                },
                {
                    "name": "G3",
                    "midi": 55,
                    "time": 301.708333333336,
                    "velocity": 0.3858267716535433,
                    "duration": 0.13333333333332575
                },
                {
                    "name": "C4",
                    "midi": 60,
                    "time": 301.864583333336,
                    "velocity": 0.5984251968503937,
                    "duration": 0.10000000000002274
                },
                {
                    "name": "F3",
                    "midi": 53,
                    "time": 301.8729166666693,
                    "velocity": 0.6614173228346457,
                    "duration": 0.43541666666681067
                },
                {
                    "name": "F#3",
                    "midi": 54,
                    "time": 301.87916666666933,
                    "velocity": 0.44881889763779526,
                    "duration": 0.12291666666669698
                },
                {
                    "name": "E3",
                    "midi": 52,
                    "time": 302.2000000000027,
                    "velocity": 0.4251968503937008,
                    "duration": 0.13958333333340533
                },
                {
                    "name": "D#4",
                    "midi": 63,
                    "time": 302.2104166666694,
                    "velocity": 0.48031496062992124,
                    "duration": 2.3187500000001933
                },
                {
                    "name": "C4",
                    "midi": 60,
                    "time": 302.2104166666694,
                    "velocity": 0.5984251968503937,
                    "duration": 0.07916666666670835
                },
                {
                    "name": "D#3",
                    "midi": 51,
                    "time": 302.3437500000028,
                    "velocity": 0.5669291338582677,
                    "duration": 0.15625
                },
                {
                    "name": "D3",
                    "midi": 50,
                    "time": 302.5270833333361,
                    "velocity": 0.4409448818897638,
                    "duration": 0.14166666666670835
                },
                {
                    "name": "A#4",
                    "midi": 70,
                    "time": 302.6062500000028,
                    "velocity": 0.6850393700787402,
                    "duration": 0.7833333333334167
                },
                {
                    "name": "G#2",
                    "midi": 44,
                    "time": 302.60833333333613,
                    "velocity": 0.4566929133858268,
                    "duration": 0.2708333333334281
                },
                {
                    "name": "C4",
                    "midi": 60,
                    "time": 302.6104166666695,
                    "velocity": 0.44881889763779526,
                    "duration": 0.2562500000000796
                },
                {
                    "name": "D#3",
                    "midi": 51,
                    "time": 302.68541666666954,
                    "velocity": 0.47244094488188976,
                    "duration": 0.16875000000004547
                },
                {
                    "name": "E3",
                    "midi": 52,
                    "time": 302.8937500000029,
                    "velocity": 0.4330708661417323,
                    "duration": 0.17083333333329165
                },
                {
                    "name": "G3",
                    "midi": 55,
                    "time": 303.03541666666956,
                    "velocity": 0.3228346456692913,
                    "duration": 0.3812499999999659
                },
                {
                    "name": "F3",
                    "midi": 53,
                    "time": 303.06666666666956,
                    "velocity": 0.47244094488188976,
                    "duration": 0.19999999999998863
                },
                {
                    "name": "F#3",
                    "midi": 54,
                    "time": 303.2625000000029,
                    "velocity": 0.5590551181102362,
                    "duration": 0.14583333333331439
                },
                {
                    "name": "C4",
                    "midi": 60,
                    "time": 303.38125000000286,
                    "velocity": 0.5511811023622047,
                    "duration": 0.0625
                },
                {
                    "name": "G#4",
                    "midi": 68,
                    "time": 303.4000000000029,
                    "velocity": 0.5669291338582677,
                    "duration": 0.6333333333333826
                },
                {
                    "name": "G3",
                    "midi": 55,
                    "time": 303.4291666666695,
                    "velocity": 0.3543307086614173,
                    "duration": 0.2583333333333826
                },
                {
                    "name": "D#2",
                    "midi": 39,
                    "time": 303.6687500000029,
                    "velocity": 0.6614173228346457,
                    "duration": 0.08541666666667425
                },
                {
                    "name": "G#3",
                    "midi": 56,
                    "time": 303.6750000000029,
                    "velocity": 0.49606299212598426,
                    "duration": 0.1875
                },
                {
                    "name": "G3",
                    "midi": 55,
                    "time": 303.86041666666955,
                    "velocity": 0.3779527559055118,
                    "duration": 0.16875000000004547
                },
                {
                    "name": "F3",
                    "midi": 53,
                    "time": 304.00416666666956,
                    "velocity": 0.4645669291338583,
                    "duration": 0.2895833333333826
                },
                {
                    "name": "C4",
                    "midi": 60,
                    "time": 304.0187500000029,
                    "velocity": 0.7165354330708661,
                    "duration": 0.27291666666667425
                },
                {
                    "name": "G#3",
                    "midi": 56,
                    "time": 304.05208333333627,
                    "velocity": 0.5511811023622047,
                    "duration": 0.14999999999997726
                },
                {
                    "name": "B3",
                    "midi": 59,
                    "time": 304.2291666666696,
                    "velocity": 0.4645669291338583,
                    "duration": 0.18333333333333712
                },
                {
                    "name": "C4",
                    "midi": 60,
                    "time": 304.34583333333626,
                    "velocity": 0.2047244094488189,
                    "duration": 0.2541666666666629
                },
                {
                    "name": "D#4",
                    "midi": 63,
                    "time": 304.64583333333627,
                    "velocity": 0.49606299212598426,
                    "duration": 1.7208333333334167
                },
                {
                    "name": "C2",
                    "midi": 36,
                    "time": 304.7562500000029,
                    "velocity": 0.3464566929133858,
                    "duration": 0.22916666666668561
                },
                {
                    "name": "F2",
                    "midi": 41,
                    "time": 304.80833333333624,
                    "velocity": 0.09448818897637795,
                    "duration": 0.20416666666670835
                },
                {
                    "name": "A3",
                    "midi": 57,
                    "time": 304.8125000000029,
                    "velocity": 0.4094488188976378,
                    "duration": 0.31250000000005684
                },
                {
                    "name": "C3",
                    "midi": 48,
                    "time": 304.8354166666696,
                    "velocity": 0.3937007874015748,
                    "duration": 0.25625000000002274
                },
                {
                    "name": "G4",
                    "midi": 67,
                    "time": 304.8500000000029,
                    "velocity": 0.7244094488188977,
                    "duration": 1.5604166666667538
                },
                {
                    "name": "A#3",
                    "midi": 58,
                    "time": 305.0708333333363,
                    "velocity": 0.48031496062992124,
                    "duration": 0.19166666666671972
                },
                {
                    "name": "B3",
                    "midi": 59,
                    "time": 305.26041666666964,
                    "velocity": 0.5905511811023622,
                    "duration": 0.16250000000007958
                },
                {
                    "name": "F3",
                    "midi": 53,
                    "time": 305.26458333333636,
                    "velocity": 0.5354330708661418,
                    "duration": 0.3375000000000341
                },
                {
                    "name": "C4",
                    "midi": 60,
                    "time": 305.42083333333636,
                    "velocity": 0.6062992125984252,
                    "duration": 0.17916666666667425
                },
                {
                    "name": "C#4",
                    "midi": 61,
                    "time": 305.56875000000304,
                    "velocity": 0.6929133858267716,
                    "duration": 0.18958333333335986
                },
                {
                    "name": "A3",
                    "midi": 57,
                    "time": 305.6020833333364,
                    "velocity": 0.5039370078740157,
                    "duration": 0.04374999999998863
                },
                {
                    "name": "D4",
                    "midi": 62,
                    "time": 305.72500000000304,
                    "velocity": 0.6141732283464567,
                    "duration": 0.20625000000001137
                },
                {
                    "name": "F1",
                    "midi": 29,
                    "time": 305.93125000000305,
                    "velocity": 0.5433070866141733,
                    "duration": 0.1312499999999659
                },
                {
                    "name": "D4",
                    "midi": 62,
                    "time": 306.0854166666697,
                    "velocity": 0.4881889763779528,
                    "duration": 0.19375000000002274
                },
                {
                    "name": "A3",
                    "midi": 57,
                    "time": 306.27500000000305,
                    "velocity": 0.6141732283464567,
                    "duration": 0.2749999999999204
                },
                {
                    "name": "D#3",
                    "midi": 51,
                    "time": 306.29583333333636,
                    "velocity": 0.5511811023622047,
                    "duration": 0.23749999999995453
                },
                {
                    "name": "C#4",
                    "midi": 61,
                    "time": 306.300000000003,
                    "velocity": 0.5039370078740157,
                    "duration": 0.125
                },
                {
                    "name": "C4",
                    "midi": 60,
                    "time": 306.45416666666966,
                    "velocity": 0.4645669291338583,
                    "duration": 0.7666666666667084
                },
                {
                    "name": "G3",
                    "midi": 55,
                    "time": 306.5708333333363,
                    "velocity": 0.5905511811023622,
                    "duration": 0.041666666666685614
                },
                {
                    "name": "B3",
                    "midi": 59,
                    "time": 306.64375000000297,
                    "velocity": 0.4094488188976378,
                    "duration": 0.14999999999997726
                },
                {
                    "name": "A#3",
                    "midi": 58,
                    "time": 306.80416666666963,
                    "velocity": 0.3700787401574803,
                    "duration": 0.16875000000010232
                },
                {
                    "name": "C2",
                    "midi": 36,
                    "time": 306.837500000003,
                    "velocity": 0.47244094488188976,
                    "duration": 0.11250000000006821
                },
                {
                    "name": "A3",
                    "midi": 57,
                    "time": 306.8895833333363,
                    "velocity": 0.5905511811023622,
                    "duration": 0.22916666666674246
                },
                {
                    "name": "G4",
                    "midi": 67,
                    "time": 306.9083333333363,
                    "velocity": 0.8031496062992126,
                    "duration": 1.3208333333335531
                },
                {
                    "name": "D#4",
                    "midi": 63,
                    "time": 306.9104166666697,
                    "velocity": 0.7637795275590551,
                    "duration": 1.3833333333335531
                },
                {
                    "name": "C3",
                    "midi": 48,
                    "time": 306.9270833333364,
                    "velocity": 0.5118110236220472,
                    "duration": 0.09583333333335986
                },
                {
                    "name": "A#3",
                    "midi": 58,
                    "time": 307.10625000000306,
                    "velocity": 0.5275590551181102,
                    "duration": 0.16874999999998863
                },
                {
                    "name": "F3",
                    "midi": 53,
                    "time": 307.2104166666697,
                    "velocity": 0.5984251968503937,
                    "duration": 0.2916666666666856
                },
                {
                    "name": "B3",
                    "midi": 59,
                    "time": 307.268750000003,
                    "velocity": 0.6062992125984252,
                    "duration": 0.17916666666667425
                },
                {
                    "name": "C4",
                    "midi": 60,
                    "time": 307.41875000000306,
                    "velocity": 0.7007874015748031,
                    "duration": 0.15833333333335986
                },
                {
                    "name": "A3",
                    "midi": 57,
                    "time": 307.5333333333364,
                    "velocity": 0.5196850393700787,
                    "duration": 0.041666666666685614
                },
                {
                    "name": "C#4",
                    "midi": 61,
                    "time": 307.5604166666697,
                    "velocity": 0.7086614173228346,
                    "duration": 0.15416666666669698
                },
                {
                    "name": "D4",
                    "midi": 62,
                    "time": 307.70000000000306,
                    "velocity": 0.6377952755905512,
                    "duration": 0.20000000000004547
                },
                {
                    "name": "F1",
                    "midi": 29,
                    "time": 307.91666666666976,
                    "velocity": 0.5354330708661418,
                    "duration": 0.12500000000005684
                },
                {
                    "name": "D4",
                    "midi": 62,
                    "time": 308.0416666666698,
                    "velocity": 0.5354330708661418,
                    "duration": 0.12708333333335986
                },
                {
                    "name": "C#4",
                    "midi": 61,
                    "time": 308.22291666666985,
                    "velocity": 0.5669291338582677,
                    "duration": 0.1333333333333826
                },
                {
                    "name": "A3",
                    "midi": 57,
                    "time": 308.24166666666986,
                    "velocity": 0.5354330708661418,
                    "duration": 0.24583333333339397
                },
                {
                    "name": "D#3",
                    "midi": 51,
                    "time": 308.26041666666987,
                    "velocity": 0.6377952755905512,
                    "duration": 0.08333333333337123
                },
                {
                    "name": "C4",
                    "midi": 60,
                    "time": 308.3791666666699,
                    "velocity": 0.44881889763779526,
                    "duration": 0.14583333333337123
                },
                {
                    "name": "G3",
                    "midi": 55,
                    "time": 308.5541666666699,
                    "velocity": 0.6929133858267716,
                    "duration": 0.06666666666671972
                },
                {
                    "name": "C4",
                    "midi": 60,
                    "time": 308.56041666666994,
                    "velocity": 0.84251968503937,
                    "duration": 0.3833333333334963
                },
                {
                    "name": "B3",
                    "midi": 59,
                    "time": 308.5750000000033,
                    "velocity": 0.33858267716535434,
                    "duration": 0.13333333333332575
                },
                {
                    "name": "A#3",
                    "midi": 58,
                    "time": 308.72500000000326,
                    "velocity": 0.49606299212598426,
                    "duration": 0.15208333333333712
                },
                {
                    "name": "C2",
                    "midi": 36,
                    "time": 308.87916666666996,
                    "velocity": 0.49606299212598426,
                    "duration": 0.10208333333343944
                },
                {
                    "name": "A3",
                    "midi": 57,
                    "time": 308.88541666667,
                    "velocity": 0.6377952755905512,
                    "duration": 0.16875000000010232
                },
                {
                    "name": "G4",
                    "midi": 67,
                    "time": 308.8895833333367,
                    "velocity": 0.7637795275590551,
                    "duration": 0.30625000000009095
                },
                {
                    "name": "D#4",
                    "midi": 63,
                    "time": 308.89166666667006,
                    "velocity": 0.7637795275590551,
                    "duration": 0.3979166666667311
                },
                {
                    "name": "C3",
                    "midi": 48,
                    "time": 308.9416666666701,
                    "velocity": 0.23622047244094488,
                    "duration": 0.11458333333337123
                },
                {
                    "name": "A#3",
                    "midi": 58,
                    "time": 309.06875000000343,
                    "velocity": 0.44881889763779526,
                    "duration": 0.15833333333335986
                },
                {
                    "name": "F3",
                    "midi": 53,
                    "time": 309.22500000000343,
                    "velocity": 0.6220472440944882,
                    "duration": 0.14166666666670835
                },
                {
                    "name": "A3",
                    "midi": 57,
                    "time": 309.2333333333368,
                    "velocity": 0.7165354330708661,
                    "duration": 0.19583333333332575
                },
                {
                    "name": "B3",
                    "midi": 59,
                    "time": 309.24166666667014,
                    "velocity": 0.4881889763779528,
                    "duration": 0.16250000000002274
                },
                {
                    "name": "C4",
                    "midi": 60,
                    "time": 309.4250000000035,
                    "velocity": 0.5039370078740157,
                    "duration": 0.21458333333328028
                },
                {
                    "name": "A3",
                    "midi": 57,
                    "time": 309.51250000000346,
                    "velocity": 0.5354330708661418,
                    "duration": 0.05624999999997726
                },
                {
                    "name": "C#4",
                    "midi": 61,
                    "time": 309.58958333333675,
                    "velocity": 0.6220472440944882,
                    "duration": 0.12291666666669698
                },
                {
                    "name": "D4",
                    "midi": 62,
                    "time": 309.7375000000034,
                    "velocity": 0.5354330708661418,
                    "duration": 0.1333333333333826
                },
                {
                    "name": "G#3",
                    "midi": 56,
                    "time": 309.8229166666701,
                    "velocity": 0.5826771653543307,
                    "duration": 0.10000000000007958
                },
                {
                    "name": "A#1",
                    "midi": 34,
                    "time": 309.85625000000346,
                    "velocity": 0.6220472440944882,
                    "duration": 0.08541666666673109
                },
                {
                    "name": "C4",
                    "midi": 60,
                    "time": 309.88750000000346,
                    "velocity": 0.3858267716535433,
                    "duration": 0.20416666666670835
                },
                {
                    "name": "D#4",
                    "midi": 63,
                    "time": 309.8937500000035,
                    "velocity": 0.6062992125984252,
                    "duration": 0.24166666666667425
                },
                {
                    "name": "A#2",
                    "midi": 46,
                    "time": 309.9000000000035,
                    "velocity": 0.48031496062992124,
                    "duration": 0.08541666666667425
                },
                {
                    "name": "G4",
                    "midi": 67,
                    "time": 309.91458333333685,
                    "velocity": 0.5984251968503937,
                    "duration": 0.17083333333329165
                },
                {
                    "name": "E4",
                    "midi": 64,
                    "time": 310.04166666667015,
                    "velocity": 0.48031496062992124,
                    "duration": 0.16458333333332575
                },
                {
                    "name": "C3",
                    "midi": 48,
                    "time": 310.23125000000346,
                    "velocity": 0.5275590551181102,
                    "duration": 0.12291666666669698
                },
                {
                    "name": "F4",
                    "midi": 65,
                    "time": 310.2375000000035,
                    "velocity": 0.4094488188976378,
                    "duration": 0.14791666666667425
                },
                {
                    "name": "G#3",
                    "midi": 56,
                    "time": 310.37291666667016,
                    "velocity": 0.6062992125984252,
                    "duration": 0.06666666666666288
                },
                {
                    "name": "C4",
                    "midi": 60,
                    "time": 310.3895833333368,
                    "velocity": 0.5590551181102362,
                    "duration": 0.16874999999998863
                },
                {
                    "name": "F#4",
                    "midi": 66,
                    "time": 310.39583333333684,
                    "velocity": 0.48031496062992124,
                    "duration": 0.17083333333329165
                },
                {
                    "name": "G4",
                    "midi": 67,
                    "time": 310.58541666667014,
                    "velocity": 0.4645669291338583,
                    "duration": 0.18333333333339397
                },
                {
                    "name": "G#3",
                    "midi": 56,
                    "time": 310.5875000000035,
                    "velocity": 0.49606299212598426,
                    "duration": 0.07291666666668561
                },
                {
                    "name": "D#4",
                    "midi": 63,
                    "time": 310.59166666667016,
                    "velocity": 0.6535433070866141,
                    "duration": 0.2020833333333485
                },
                {
                    "name": "A4",
                    "midi": 69,
                    "time": 310.76875000000354,
                    "velocity": 0.3779527559055118,
                    "duration": 0.1624999999999659
                },
                {
                    "name": "D#2",
                    "midi": 39,
                    "time": 310.9229166666702,
                    "velocity": 0.5118110236220472,
                    "duration": 0.07916666666670835
                },
                {
                    "name": "A#2",
                    "midi": 46,
                    "time": 310.92708333333684,
                    "velocity": 0.5118110236220472,
                    "duration": 0.07291666666668561
                },
                {
                    "name": "A#4",
                    "midi": 70,
                    "time": 310.9687500000035,
                    "velocity": 0.47244094488188976,
                    "duration": 0.13749999999998863
                },
                {
                    "name": "A#3",
                    "midi": 58,
                    "time": 311.0729166666702,
                    "velocity": 0.5748031496062992,
                    "duration": 0.18333333333333712
                },
                {
                    "name": "G3",
                    "midi": 55,
                    "time": 311.08125000000354,
                    "velocity": 0.3937007874015748,
                    "duration": 0.07916666666665151
                },
                {
                    "name": "B4",
                    "midi": 71,
                    "time": 311.13333333333685,
                    "velocity": 0.3543307086614173,
                    "duration": 0.16250000000002274
                },
                {
                    "name": "G3",
                    "midi": 55,
                    "time": 311.27500000000356,
                    "velocity": 0.4566929133858268,
                    "duration": 0.16666666666674246
                },
                {
                    "name": "D#4",
                    "midi": 63,
                    "time": 311.3083333333369,
                    "velocity": 0.33858267716535434,
                    "duration": 0.21666666666675383
                },
                {
                    "name": "C4",
                    "midi": 60,
                    "time": 311.3104166666703,
                    "velocity": 0.4566929133858268,
                    "duration": 0.19375000000002274
                },
                {
                    "name": "C5",
                    "midi": 72,
                    "time": 311.36458333333695,
                    "velocity": 0.2047244094488189,
                    "duration": 0.13125000000002274
                },
                {
                    "name": "D5",
                    "midi": 74,
                    "time": 311.5104166666703,
                    "velocity": 0.3779527559055118,
                    "duration": 0.22500000000002274
                },
                {
                    "name": "C4",
                    "midi": 60,
                    "time": 311.7500000000037,
                    "velocity": 0.3543307086614173,
                    "duration": 0.22916666666668561
                },
                {
                    "name": "D#5",
                    "midi": 75,
                    "time": 311.758333333337,
                    "velocity": 0.4094488188976378,
                    "duration": 0.25625000000002274
                },
                {
                    "name": "F#4",
                    "midi": 66,
                    "time": 312.31458333333705,
                    "velocity": 0.4881889763779528,
                    "duration": 0.3249999999999318
                },
                {
                    "name": "G4",
                    "midi": 67,
                    "time": 312.5875000000037,
                    "velocity": 0.5118110236220472,
                    "duration": 0.24583333333328028
                },
                {
                    "name": "A4",
                    "midi": 69,
                    "time": 312.7937500000036,
                    "velocity": 0.49606299212598426,
                    "duration": 0.19999999999998863
                },
                {
                    "name": "A#4",
                    "midi": 70,
                    "time": 312.9750000000036,
                    "velocity": 0.7401574803149606,
                    "duration": 0.18958333333335986
                },
                {
                    "name": "F#4",
                    "midi": 66,
                    "time": 313.1541666666703,
                    "velocity": 0.7559055118110236,
                    "duration": 0.1500000000000341
                },
                {
                    "name": "G4",
                    "midi": 67,
                    "time": 313.2979166666703,
                    "velocity": 0.6850393700787402,
                    "duration": 0.24791666666669698
                },
                {
                    "name": "C3",
                    "midi": 48,
                    "time": 313.50625000000366,
                    "velocity": 0.4409448818897638,
                    "duration": 0.9541666666667084
                },
                {
                    "name": "D5",
                    "midi": 74,
                    "time": 313.53125000000364,
                    "velocity": 0.5984251968503937,
                    "duration": 0.22083333333335986
                },
                {
                    "name": "G4",
                    "midi": 67,
                    "time": 313.7104166666703,
                    "velocity": 0.5275590551181102,
                    "duration": 0.14166666666670835
                },
                {
                    "name": "A#3",
                    "midi": 58,
                    "time": 313.939583333337,
                    "velocity": 0.5590551181102362,
                    "duration": 0.07291666666668561
                },
                {
                    "name": "D5",
                    "midi": 74,
                    "time": 313.945833333337,
                    "velocity": 0.6850393700787402,
                    "duration": 0.15416666666664014
                },
                {
                    "name": "D#4",
                    "midi": 63,
                    "time": 313.95416666667035,
                    "velocity": 0.6299212598425197,
                    "duration": 0.808333333333394
                },
                {
                    "name": "G4",
                    "midi": 67,
                    "time": 314.1187500000037,
                    "velocity": 0.5905511811023622,
                    "duration": 0.1395833333333485
                },
                {
                    "name": "A#3",
                    "midi": 58,
                    "time": 314.3312500000037,
                    "velocity": 0.5984251968503937,
                    "duration": 0.09583333333330302
                },
                {
                    "name": "D5",
                    "midi": 74,
                    "time": 314.33541666667037,
                    "velocity": 0.7952755905511811,
                    "duration": 0.4625000000000341
                },
                {
                    "name": "C3",
                    "midi": 48,
                    "time": 314.6625000000037,
                    "velocity": 0.7795275590551181,
                    "duration": 0.7291666666667425
                },
                {
                    "name": "G#4",
                    "midi": 68,
                    "time": 314.82500000000374,
                    "velocity": 0.7244094488188977,
                    "duration": 0.11458333333331439
                },
                {
                    "name": "B3",
                    "midi": 59,
                    "time": 314.99375000000373,
                    "velocity": 0.6062992125984252,
                    "duration": 0.06458333333335986
                },
                {
                    "name": "D5",
                    "midi": 74,
                    "time": 314.9979166666704,
                    "velocity": 0.7716535433070866,
                    "duration": 0.2020833333333485
                },
                {
                    "name": "E4",
                    "midi": 64,
                    "time": 315.0083333333371,
                    "velocity": 0.6771653543307087,
                    "duration": 0.7395833333334281
                },
                {
                    "name": "G#4",
                    "midi": 68,
                    "time": 315.1479166666704,
                    "velocity": 0.7637795275590551,
                    "duration": 0.12916666666666288
                },
                {
                    "name": "B3",
                    "midi": 59,
                    "time": 315.3270833333371,
                    "velocity": 0.6929133858267716,
                    "duration": 0.05833333333333712
                },
                {
                    "name": "D5",
                    "midi": 74,
                    "time": 315.3354166666704,
                    "velocity": 0.8110236220472441,
                    "duration": 0.5062500000000796
                },
                {
                    "name": "F2",
                    "midi": 41,
                    "time": 315.65208333333715,
                    "velocity": 0.47244094488188976,
                    "duration": 0.04791666666665151
                },
                {
                    "name": "C3",
                    "midi": 48,
                    "time": 315.65833333333717,
                    "velocity": 0.5590551181102362,
                    "duration": 0.052083333333314386
                },
                {
                    "name": "A4",
                    "midi": 69,
                    "time": 315.8104166666705,
                    "velocity": 0.6377952755905512,
                    "duration": 0.10208333333332575
                },
                {
                    "name": "C4",
                    "midi": 60,
                    "time": 315.9791666666705,
                    "velocity": 0.6614173228346457,
                    "duration": 0.0395833333333826
                },
                {
                    "name": "A3",
                    "midi": 57,
                    "time": 315.98125000000385,
                    "velocity": 0.5590551181102362,
                    "duration": 0.041666666666685614
                },
                {
                    "name": "D5",
                    "midi": 74,
                    "time": 315.9854166666705,
                    "velocity": 0.7874015748031497,
                    "duration": 0.21875000000005684
                },
                {
                    "name": "F4",
                    "midi": 65,
                    "time": 316.00000000000387,
                    "velocity": 0.6771653543307087,
                    "duration": 0.22500000000002274
                },
                {
                    "name": "A4",
                    "midi": 69,
                    "time": 316.13541666667055,
                    "velocity": 0.6456692913385826,
                    "duration": 0.12083333333333712
                },
                {
                    "name": "C2",
                    "midi": 36,
                    "time": 316.31250000000387,
                    "velocity": 0.6771653543307087,
                    "duration": 0.03333333333335986
                },
                {
                    "name": "D5",
                    "midi": 74,
                    "time": 316.3395833333372,
                    "velocity": 0.8346456692913385,
                    "duration": 0.5208333333333712
                },
                {
                    "name": "A4",
                    "midi": 69,
                    "time": 316.3479166666706,
                    "velocity": 0.7322834645669292,
                    "duration": 0.4416666666666629
                },
                {
                    "name": "F4",
                    "midi": 65,
                    "time": 316.35208333333725,
                    "velocity": 0.7086614173228346,
                    "duration": 0.5
                },
                {
                    "name": "F2",
                    "midi": 41,
                    "time": 316.66458333333725,
                    "velocity": 0.7322834645669292,
                    "duration": 0.05833333333333712
                },
                {
                    "name": "B4",
                    "midi": 71,
                    "time": 316.82708333333727,
                    "velocity": 0.6850393700787402,
                    "duration": 0.11249999999995453
                },
                {
                    "name": "C4",
                    "midi": 60,
                    "time": 316.99791666667056,
                    "velocity": 0.5905511811023622,
                    "duration": 0.05000000000006821
                },
                {
                    "name": "A3",
                    "midi": 57,
                    "time": 317.0041666666706,
                    "velocity": 0.4251968503937008,
                    "duration": 0.05416666666673109
                },
                {
                    "name": "D5",
                    "midi": 74,
                    "time": 317.00625000000394,
                    "velocity": 0.7952755905511811,
                    "duration": 0.2375000000000682
                },
                {
                    "name": "F4",
                    "midi": 65,
                    "time": 317.02708333333726,
                    "velocity": 0.5748031496062992,
                    "duration": 0.13750000000004547
                },
                {
                    "name": "A4",
                    "midi": 69,
                    "time": 317.0291666666706,
                    "velocity": 0.6614173228346457,
                    "duration": 0.17708333333337123
                },
                {
                    "name": "C5",
                    "midi": 72,
                    "time": 317.187500000004,
                    "velocity": 0.7086614173228346,
                    "duration": 0.07500000000004547
                },
                {
                    "name": "C2",
                    "midi": 36,
                    "time": 317.37708333333734,
                    "velocity": 0.5669291338582677,
                    "duration": 0.054166666666674246
                },
                {
                    "name": "F5",
                    "midi": 77,
                    "time": 317.39583333333735,
                    "velocity": 0.6850393700787402,
                    "duration": 0.14375000000001137
                },
                {
                    "name": "A4",
                    "midi": 69,
                    "time": 317.400000000004,
                    "velocity": 0.4251968503937008,
                    "duration": 0.05833333333333712
                },
                {
                    "name": "D5",
                    "midi": 74,
                    "time": 317.4020833333374,
                    "velocity": 0.5984251968503937,
                    "duration": 0.10208333333332575
                },
                {
                    "name": "A5",
                    "midi": 81,
                    "time": 317.575000000004,
                    "velocity": 0.7401574803149606,
                    "duration": 0.10624999999998863
                },
                {
                    "name": "G3",
                    "midi": 55,
                    "time": 317.850000000004,
                    "velocity": 0.5118110236220472,
                    "duration": 0.8270833333333485
                },
                {
                    "name": "A5",
                    "midi": 81,
                    "time": 317.868750000004,
                    "velocity": 0.6220472440944882,
                    "duration": 0.2354166666666515
                },
                {
                    "name": "C#5",
                    "midi": 73,
                    "time": 318.0604166666707,
                    "velocity": 0.6929133858267716,
                    "duration": 0.09583333333330302
                },
                {
                    "name": "F4",
                    "midi": 65,
                    "time": 318.2583333333373,
                    "velocity": 0.5511811023622047,
                    "duration": 0.07916666666670835
                },
                {
                    "name": "A5",
                    "midi": 81,
                    "time": 318.268750000004,
                    "velocity": 0.7401574803149606,
                    "duration": 0.17500000000001137
                },
                {
                    "name": "B4",
                    "midi": 71,
                    "time": 318.281250000004,
                    "velocity": 0.6062992125984252,
                    "duration": 0.16666666666668561
                },
                {
                    "name": "C#5",
                    "midi": 73,
                    "time": 318.4020833333373,
                    "velocity": 0.7795275590551181,
                    "duration": 0.10416666666668561
                },
                {
                    "name": "A5",
                    "midi": 81,
                    "time": 318.5854166666707,
                    "velocity": 0.8346456692913385,
                    "duration": 0.44999999999998863
                },
                {
                    "name": "F4",
                    "midi": 65,
                    "time": 318.5979166666707,
                    "velocity": 0.6062992125984252,
                    "duration": 0.05624999999997726
                },
                {
                    "name": "C3",
                    "midi": 48,
                    "time": 318.92708333333735,
                    "velocity": 0.7952755905511811,
                    "duration": 0.09583333333335986
                },
                {
                    "name": "D5",
                    "midi": 74,
                    "time": 319.08125000000405,
                    "velocity": 0.7637795275590551,
                    "duration": 0.10624999999998863
                },
                {
                    "name": "E4",
                    "midi": 64,
                    "time": 319.243750000004,
                    "velocity": 0.6535433070866141,
                    "duration": 0.07291666666668561
                },
                {
                    "name": "A5",
                    "midi": 81,
                    "time": 319.25208333333734,
                    "velocity": 0.8188976377952756,
                    "duration": 0.17500000000001137
                },
                {
                    "name": "A#4",
                    "midi": 70,
                    "time": 319.262500000004,
                    "velocity": 0.7086614173228346,
                    "duration": 0.07083333333332575
                },
                {
                    "name": "D5",
                    "midi": 74,
                    "time": 319.400000000004,
                    "velocity": 0.6377952755905512,
                    "duration": 0.09375
                },
                {
                    "name": "E4",
                    "midi": 64,
                    "time": 319.59375000000404,
                    "velocity": 0.5748031496062992,
                    "duration": 0.06666666666666288
                },
                {
                    "name": "A5",
                    "midi": 81,
                    "time": 319.5979166666707,
                    "velocity": 0.8582677165354331,
                    "duration": 0.43958333333335986
                },
                {
                    "name": "A#4",
                    "midi": 70,
                    "time": 319.6208333333374,
                    "velocity": 0.7952755905511811,
                    "duration": 0.4208333333333485
                },
                {
                    "name": "B3",
                    "midi": 59,
                    "time": 319.9604166666707,
                    "velocity": 0.84251968503937,
                    "duration": 0.7604166666666856
                },
                {
                    "name": "F3",
                    "midi": 53,
                    "time": 319.96250000000407,
                    "velocity": 0.8110236220472441,
                    "duration": 0.8375000000000341
                },
                {
                    "name": "E5",
                    "midi": 76,
                    "time": 320.1666666666707,
                    "velocity": 0.6850393700787402,
                    "duration": 0.22708333333332575
                },
                {
                    "name": "G5",
                    "midi": 79,
                    "time": 320.3541666666707,
                    "velocity": 0.6614173228346457,
                    "duration": 0.2020833333333485
                },
                {
                    "name": "A4",
                    "midi": 69,
                    "time": 320.3791666666707,
                    "velocity": 0.6614173228346457,
                    "duration": 0.22500000000002274
                },
                {
                    "name": "F5",
                    "midi": 77,
                    "time": 320.5229166666707,
                    "velocity": 0.7637795275590551,
                    "duration": 0.09375
                },
                {
                    "name": "C4",
                    "midi": 60,
                    "time": 320.73541666667074,
                    "velocity": 0.7322834645669292,
                    "duration": 0.07291666666668561
                },
                {
                    "name": "F4",
                    "midi": 65,
                    "time": 320.74375000000407,
                    "velocity": 0.8110236220472441,
                    "duration": 0.23541666666670835
                },
                {
                    "name": "D5",
                    "midi": 74,
                    "time": 320.75416666667076,
                    "velocity": 0.7086614173228346,
                    "duration": 0.11666666666667425
                },
                {
                    "name": "A4",
                    "midi": 69,
                    "time": 320.9125000000041,
                    "velocity": 0.7007874015748031,
                    "duration": 0.10624999999998863
                },
                {
                    "name": "G2",
                    "midi": 43,
                    "time": 321.1333333333375,
                    "velocity": 0.7795275590551181,
                    "duration": 0.15833333333330302
                },
                {
                    "name": "C5",
                    "midi": 72,
                    "time": 321.1500000000041,
                    "velocity": 0.8110236220472441,
                    "duration": 0.25
                },
                {
                    "name": "C#4",
                    "midi": 61,
                    "time": 321.15833333333745,
                    "velocity": 0.7795275590551181,
                    "duration": 0.720833333333303
                },
                {
                    "name": "F#5",
                    "midi": 78,
                    "time": 321.1666666666708,
                    "velocity": 0.44881889763779526,
                    "duration": 0.23750000000001137
                },
                {
                    "name": "A#4",
                    "midi": 70,
                    "time": 321.35625000000414,
                    "velocity": 0.7637795275590551,
                    "duration": 0.2687499999999545
                },
                {
                    "name": "G5",
                    "midi": 79,
                    "time": 321.3791666666708,
                    "velocity": 0.5039370078740157,
                    "duration": 0.2729166666666174
                },
                {
                    "name": "A#3",
                    "midi": 58,
                    "time": 321.58958333333743,
                    "velocity": 0.6220472440944882,
                    "duration": 0.04583333333334849
                },
                {
                    "name": "A4",
                    "midi": 69,
                    "time": 321.59791666667076,
                    "velocity": 0.6456692913385826,
                    "duration": 0.2125000000000341
                },
                {
                    "name": "F3",
                    "midi": 53,
                    "time": 321.6000000000041,
                    "velocity": 0.4881889763779528,
                    "duration": 0.054166666666674246
                },
                {
                    "name": "A5",
                    "midi": 81,
                    "time": 321.6000000000041,
                    "velocity": 0.5748031496062992,
                    "duration": 0.23124999999998863
                },
                {
                    "name": "A#5",
                    "midi": 82,
                    "time": 321.76458333333744,
                    "velocity": 0.7637795275590551,
                    "duration": 0.3083333333333371
                },
                {
                    "name": "A#4",
                    "midi": 70,
                    "time": 321.7666666666708,
                    "velocity": 0.7401574803149606,
                    "duration": 0.1999999999999318
                },
                {
                    "name": "A#3",
                    "midi": 58,
                    "time": 321.96250000000407,
                    "velocity": 0.6299212598425197,
                    "duration": 0.10000000000002274
                },
                {
                    "name": "D4",
                    "midi": 62,
                    "time": 321.9708333333374,
                    "velocity": 0.7795275590551181,
                    "duration": 0.4937500000001478
                },
                {
                    "name": "F#5",
                    "midi": 78,
                    "time": 321.97500000000406,
                    "velocity": 0.7322834645669292,
                    "duration": 0.18333333333339397
                },
                {
                    "name": "F#4",
                    "midi": 66,
                    "time": 321.9770833333374,
                    "velocity": 0.8188976377952756,
                    "duration": 0.20000000000004547
                },
                {
                    "name": "F3",
                    "midi": 53,
                    "time": 321.98333333333744,
                    "velocity": 0.4330708661417323,
                    "duration": 0.054166666666674246
                },
                {
                    "name": "G4",
                    "midi": 67,
                    "time": 322.1333333333374,
                    "velocity": 0.7795275590551181,
                    "duration": 0.11458333333337123
                },
                {
                    "name": "G5",
                    "midi": 79,
                    "time": 322.1354166666708,
                    "velocity": 0.7637795275590551,
                    "duration": 0.28750000000002274
                },
                {
                    "name": "C3",
                    "midi": 48,
                    "time": 322.33541666667077,
                    "velocity": 0.5905511811023622,
                    "duration": 0.8500000000001933
                },
                {
                    "name": "D6",
                    "midi": 86,
                    "time": 322.3812500000041,
                    "velocity": 0.5118110236220472,
                    "duration": 0.05000000000006821
                },
                {
                    "name": "D5",
                    "midi": 74,
                    "time": 322.40208333333743,
                    "velocity": 0.6299212598425197,
                    "duration": 0.20625000000012506
                },
                {
                    "name": "G4",
                    "midi": 67,
                    "time": 322.5729166666709,
                    "velocity": 0.6062992125984252,
                    "duration": 0.12291666666669698
                },
                {
                    "name": "A#3",
                    "midi": 58,
                    "time": 322.75625000000423,
                    "velocity": 0.5905511811023622,
                    "duration": 0.07291666666668561
                },
                {
                    "name": "D5",
                    "midi": 74,
                    "time": 322.76458333333755,
                    "velocity": 0.5433070866141733,
                    "duration": 0.14583333333337123
                },
                {
                    "name": "D#4",
                    "midi": 63,
                    "time": 322.7812500000042,
                    "velocity": 0.6141732283464567,
                    "duration": 0.6520833333334508
                },
                {
                    "name": "D6",
                    "midi": 86,
                    "time": 322.83750000000424,
                    "velocity": 0.6535433070866141,
                    "duration": 0.5500000000000682
                },
                {
                    "name": "G4",
                    "midi": 67,
                    "time": 322.9229166666709,
                    "velocity": 0.5669291338582677,
                    "duration": 0.125
                },
                {
                    "name": "A#3",
                    "midi": 58,
                    "time": 323.1041666666709,
                    "velocity": 0.6456692913385826,
                    "duration": 0.07916666666670835
                },
                {
                    "name": "D5",
                    "midi": 74,
                    "time": 323.12083333333754,
                    "velocity": 0.8031496062992126,
                    "duration": 0.40833333333347355
                },
                {
                    "name": "C3",
                    "midi": 48,
                    "time": 323.42083333333767,
                    "velocity": 0.8188976377952756,
                    "duration": 0.743750000000091
                },
                {
                    "name": "D6",
                    "midi": 86,
                    "time": 323.447916666671,
                    "velocity": 0.6771653543307087,
                    "duration": 0.0875000000000341
                },
                {
                    "name": "G#4",
                    "midi": 68,
                    "time": 323.5812500000044,
                    "velocity": 0.7952755905511811,
                    "duration": 0.12291666666664014
                },
                {
                    "name": "B3",
                    "midi": 59,
                    "time": 323.7583333333377,
                    "velocity": 0.5984251968503937,
                    "duration": 0.0791666666667652
                },
                {
                    "name": "D5",
                    "midi": 74,
                    "time": 323.76041666667106,
                    "velocity": 0.7874015748031497,
                    "duration": 0.1958333333333826
                },
                {
                    "name": "E4",
                    "midi": 64,
                    "time": 323.7687500000044,
                    "velocity": 0.7007874015748031,
                    "duration": 0.7854166666667197
                },
                {
                    "name": "D6",
                    "midi": 86,
                    "time": 323.8270833333378,
                    "velocity": 0.7559055118110236,
                    "duration": 0.5041666666666629
                },
                {
                    "name": "G#4",
                    "midi": 68,
                    "time": 323.91041666667115,
                    "velocity": 0.7559055118110236,
                    "duration": 0.1333333333332689
                },
                {
                    "name": "B3",
                    "midi": 59,
                    "time": 324.0916666666711,
                    "velocity": 0.7165354330708661,
                    "duration": 0.07083333333332575
                },
                {
                    "name": "D5",
                    "midi": 74,
                    "time": 324.1000000000044,
                    "velocity": 0.8188976377952756,
                    "duration": 0.5562500000000341
                },
                {
                    "name": "D6",
                    "midi": 86,
                    "time": 324.4229166666711,
                    "velocity": 0.6535433070866141,
                    "duration": 0.06875000000002274
                },
                {
                    "name": "F2",
                    "midi": 41,
                    "time": 324.4416666666711,
                    "velocity": 0.5826771653543307,
                    "duration": 0.04583333333334849
                },
                {
                    "name": "C3",
                    "midi": 48,
                    "time": 324.4520833333378,
                    "velocity": 0.6141732283464567,
                    "duration": 0.07708333333334849
                },
                {
                    "name": "A4",
                    "midi": 69,
                    "time": 324.62083333333777,
                    "velocity": 0.6062992125984252,
                    "duration": 0.12916666666666288
                },
                {
                    "name": "D5",
                    "midi": 74,
                    "time": 324.7354166666711,
                    "velocity": 0.5196850393700787,
                    "duration": 0.3375000000000341
                },
                {
                    "name": "D6",
                    "midi": 86,
                    "time": 324.7979166666711,
                    "velocity": 0.7086614173228346,
                    "duration": 0.6374999999999886
                },
                {
                    "name": "C4",
                    "midi": 60,
                    "time": 324.8291666666711,
                    "velocity": 0.6062992125984252,
                    "duration": 0.043750000000045475
                },
                {
                    "name": "A3",
                    "midi": 57,
                    "time": 324.83125000000445,
                    "velocity": 0.5196850393700787,
                    "duration": 0.05833333333333712
                },
                {
                    "name": "F4",
                    "midi": 65,
                    "time": 324.8354166666711,
                    "velocity": 0.6614173228346457,
                    "duration": 0.24791666666669698
                },
                {
                    "name": "A4",
                    "midi": 69,
                    "time": 325.00000000000443,
                    "velocity": 0.7007874015748031,
                    "duration": 0.12291666666669698
                },
                {
                    "name": "C2",
                    "midi": 36,
                    "time": 325.1687500000045,
                    "velocity": 0.6692913385826772,
                    "duration": 0.039583333333325754
                },
                {
                    "name": "D5",
                    "midi": 74,
                    "time": 325.1833333333378,
                    "velocity": 0.9212598425196851,
                    "duration": 0.44999999999987494
                },
                {
                    "name": "A4",
                    "midi": 69,
                    "time": 325.1958333333378,
                    "velocity": 0.8110236220472441,
                    "duration": 0.40208333333322344
                },
                {
                    "name": "F4",
                    "midi": 65,
                    "time": 325.2000000000045,
                    "velocity": 0.8031496062992126,
                    "duration": 0.5041666666665492
                },
                {
                    "name": "F2",
                    "midi": 41,
                    "time": 325.4958333333377,
                    "velocity": 0.7952755905511811,
                    "duration": 0.06666666666666288
                },
                {
                    "name": "B4",
                    "midi": 71,
                    "time": 325.66250000000434,
                    "velocity": 0.7637795275590551,
                    "duration": 0.11250000000001137
                },
                {
                    "name": "C4",
                    "midi": 60,
                    "time": 325.8270833333377,
                    "velocity": 0.6220472440944882,
                    "duration": 0.0395833333333826
                },
                {
                    "name": "D5",
                    "midi": 74,
                    "time": 325.83333333333775,
                    "velocity": 0.8818897637795275,
                    "duration": 0.19583333333332575
                },
                {
                    "name": "A3",
                    "midi": 57,
                    "time": 325.83958333333777,
                    "velocity": 0.3779527559055118,
                    "duration": 0.054166666666674246
                },
                {
                    "name": "A4",
                    "midi": 69,
                    "time": 325.84166666667113,
                    "velocity": 0.7874015748031497,
                    "duration": 0.1645833333332689
                },
                {
                    "name": "F4",
                    "midi": 65,
                    "time": 325.84166666667113,
                    "velocity": 0.7716535433070866,
                    "duration": 0.12291666666664014
                },
                {
                    "name": "C5",
                    "midi": 72,
                    "time": 325.9937500000044,
                    "velocity": 0.6614173228346457,
                    "duration": 0.05833333333333712
                },
                {
                    "name": "C2",
                    "midi": 36,
                    "time": 326.1562500000044,
                    "velocity": 0.5669291338582677,
                    "duration": 0.03958333333343944
                },
                {
                    "name": "C3",
                    "midi": 48,
                    "time": 326.1708333333377,
                    "velocity": 0.6929133858267716,
                    "duration": 0.06875000000007958
                },
                {
                    "name": "A4",
                    "midi": 69,
                    "time": 326.1854166666711,
                    "velocity": 0.7559055118110236,
                    "duration": 0.05416666666673109
                },
                {
                    "name": "D5",
                    "midi": 74,
                    "time": 326.1916666666711,
                    "velocity": 0.7322834645669292,
                    "duration": 0.056250000000034106
                },
                {
                    "name": "F5",
                    "midi": 77,
                    "time": 326.19375000000446,
                    "velocity": 0.7559055118110236,
                    "duration": 0.11250000000001137
                },
                {
                    "name": "A5",
                    "midi": 81,
                    "time": 326.34791666667115,
                    "velocity": 0.7874015748031497,
                    "duration": 0.08125000000001137
                },
                {
                    "name": "C6",
                    "midi": 84,
                    "time": 326.6125000000045,
                    "velocity": 0.7952755905511811,
                    "duration": 0.28958333333332575
                },
                {
                    "name": "A2",
                    "midi": 45,
                    "time": 326.6229166666712,
                    "velocity": 0.7559055118110236,
                    "duration": 0.06666666666666288
                },
                {
                    "name": "D#5",
                    "midi": 75,
                    "time": 326.84583333333785,
                    "velocity": 0.7244094488188977,
                    "duration": 0.12291666666664014
                },
                {
                    "name": "D#4",
                    "midi": 63,
                    "time": 327.0708333333378,
                    "velocity": 0.6929133858267716,
                    "duration": 0.08333333333337123
                },
                {
                    "name": "G3",
                    "midi": 55,
                    "time": 327.0729166666712,
                    "velocity": 0.5826771653543307,
                    "duration": 0.12291666666669698
                },
                {
                    "name": "C4",
                    "midi": 60,
                    "time": 327.08333333333786,
                    "velocity": 0.6220472440944882,
                    "duration": 0.0625
                },
                {
                    "name": "C6",
                    "midi": 84,
                    "time": 327.0979166666712,
                    "velocity": 0.889763779527559,
                    "duration": 0.26458333333329165
                },
                {
                    "name": "D#5",
                    "midi": 75,
                    "time": 327.28333333333785,
                    "velocity": 0.84251968503937,
                    "duration": 0.08749999999997726
                },
                {
                    "name": "D#4",
                    "midi": 63,
                    "time": 327.46041666667116,
                    "velocity": 0.7480314960629921,
                    "duration": 0.039583333333325754
                },
                {
                    "name": "C6",
                    "midi": 84,
                    "time": 327.47291666667115,
                    "velocity": 0.9291338582677166,
                    "duration": 0.5666666666667197
                },
                {
                    "name": "G3",
                    "midi": 55,
                    "time": 327.4770833333378,
                    "velocity": 0.4094488188976378,
                    "duration": 0.054166666666674246
                },
                {
                    "name": "A2",
                    "midi": 45,
                    "time": 327.79583333333784,
                    "velocity": 0.889763779527559,
                    "duration": 0.0875000000000341
                },
                {
                    "name": "E5",
                    "midi": 76,
                    "time": 327.97083333333785,
                    "velocity": 0.8818897637795275,
                    "duration": 0.11250000000001137
                },
                {
                    "name": "E4",
                    "midi": 64,
                    "time": 328.13750000000454,
                    "velocity": 0.7716535433070866,
                    "duration": 0.07708333333340533
                },
                {
                    "name": "C6",
                    "midi": 84,
                    "time": 328.14375000000456,
                    "velocity": 0.9448818897637795,
                    "duration": 0.2375000000000682
                },
                {
                    "name": "C4",
                    "midi": 60,
                    "time": 328.14375000000456,
                    "velocity": 0.6850393700787402,
                    "duration": 0.056250000000034106
                },
                {
                    "name": "G3",
                    "midi": 55,
                    "time": 328.1500000000046,
                    "velocity": 0.5039370078740157,
                    "duration": 0.0708333333333826
                },
                {
                    "name": "E5",
                    "midi": 76,
                    "time": 328.30625000000464,
                    "velocity": 0.8188976377952756,
                    "duration": 0.09375
                },
                {
                    "name": "G3",
                    "midi": 55,
                    "time": 328.4729166666713,
                    "velocity": 0.7244094488188977,
                    "duration": 0.07708333333329165
                },
                {
                    "name": "E4",
                    "midi": 64,
                    "time": 328.47916666667135,
                    "velocity": 0.6535433070866141,
                    "duration": 0.037499999999965894
                },
                {
                    "name": "C6",
                    "midi": 84,
                    "time": 328.4875000000047,
                    "velocity": 0.984251968503937,
                    "duration": 0.6416666666666515
                },
                {
                    "name": "C4",
                    "midi": 60,
                    "time": 328.495833333338,
                    "velocity": 0.41732283464566927,
                    "duration": 0.049999999999954525
                },
                {
                    "name": "D2",
                    "midi": 38,
                    "time": 328.8458333333379,
                    "velocity": 0.952755905511811,
                    "duration": 0.07500000000004547
                },
                {
                    "name": "F5",
                    "midi": 77,
                    "time": 329.03333333333796,
                    "velocity": 0.7007874015748031,
                    "duration": 0.21041666666667425
                },
                {
                    "name": "F4",
                    "midi": 65,
                    "time": 329.2479166666713,
                    "velocity": 0.8976377952755905,
                    "duration": 0.11041666666670835
                },
                {
                    "name": "C4",
                    "midi": 60,
                    "time": 329.2479166666713,
                    "velocity": 0.9133858267716536,
                    "duration": 0.10625000000004547
                },
                {
                    "name": "A3",
                    "midi": 57,
                    "time": 329.25000000000466,
                    "velocity": 0.84251968503937,
                    "duration": 0.40416666666664014
                },
                {
                    "name": "C6",
                    "midi": 84,
                    "time": 329.252083333338,
                    "velocity": 0.8740157480314961,
                    "duration": 0.26249999999998863
                },
                {
                    "name": "F#5",
                    "midi": 78,
                    "time": 329.42916666667134,
                    "velocity": 0.8267716535433071,
                    "duration": 0.11666666666667425
                },
                {
                    "name": "F#4",
                    "midi": 66,
                    "time": 329.59375000000466,
                    "velocity": 0.9291338582677166,
                    "duration": 0.06041666666664014
                },
                {
                    "name": "A#3",
                    "midi": 58,
                    "time": 329.602083333338,
                    "velocity": 0.03937007874015748,
                    "duration": 0.05833333333333712
                },
                {
                    "name": "B5",
                    "midi": 83,
                    "time": 329.60625000000465,
                    "velocity": 0.8740157480314961,
                    "duration": 0.18958333333335986
                },
                {
                    "name": "A5",
                    "midi": 81,
                    "time": 329.7375000000047,
                    "velocity": 0.8188976377952756,
                    "duration": 0.10208333333332575
                },
                {
                    "name": "G2",
                    "midi": 43,
                    "time": 329.952083333338,
                    "velocity": 0.9448818897637795,
                    "duration": 0.07499999999998863
                },
                {
                    "name": "A5",
                    "midi": 81,
                    "time": 329.964583333338,
                    "velocity": 0.9212598425196851,
                    "duration": 0.25625000000002274
                },
                {
                    "name": "B4",
                    "midi": 71,
                    "time": 330.127083333338,
                    "velocity": 0.6614173228346457,
                    "duration": 0.12083333333333712
                },
                {
                    "name": "G5",
                    "midi": 79,
                    "time": 330.32291666667135,
                    "velocity": 0.8976377952755905,
                    "duration": 0.09791666666666288
                },
                {
                    "name": "D3",
                    "midi": 50,
                    "time": 330.327083333338,
                    "velocity": 0.7007874015748031,
                    "duration": 0.5749999999999886
                },
                {
                    "name": "B3",
                    "midi": 59,
                    "time": 330.327083333338,
                    "velocity": 0.7637795275590551,
                    "duration": 0.11458333333331439
                },
                {
                    "name": "D4",
                    "midi": 62,
                    "time": 330.32916666667137,
                    "velocity": 0.8818897637795275,
                    "duration": 0.1166666666666174
                },
                {
                    "name": "G3",
                    "midi": 55,
                    "time": 330.33333333333803,
                    "velocity": 0.7165354330708661,
                    "duration": 0.12916666666660603
                },
                {
                    "name": "B4",
                    "midi": 71,
                    "time": 330.7562500000046,
                    "velocity": 0.7637795275590551,
                    "duration": 0.06666666666666288
                },
                {
                    "name": "D5",
                    "midi": 74,
                    "time": 330.7729166666713,
                    "velocity": 0.8503937007874016,
                    "duration": 0.07291666666668561
                },
                {
                    "name": "B3",
                    "midi": 59,
                    "time": 330.7875000000046,
                    "velocity": 0.8503937007874016,
                    "duration": 0.06458333333335986
                },
                {
                    "name": "D4",
                    "midi": 62,
                    "time": 330.7916666666713,
                    "velocity": 0.9212598425196851,
                    "duration": 0.054166666666674246
                },
                {
                    "name": "G5",
                    "midi": 79,
                    "time": 330.7916666666713,
                    "velocity": 0.8110236220472441,
                    "duration": 0.07500000000004547
                },
                {
                    "name": "G3",
                    "midi": 55,
                    "time": 330.79375000000465,
                    "velocity": 0.7637795275590551,
                    "duration": 0.08541666666667425
                },
                {
                    "name": "A#6",
                    "midi": 94,
                    "time": 331.302083333338,
                    "velocity": 0.9448818897637795,
                    "duration": 0.06041666666669698
                },
                {
                    "name": "A#5",
                    "midi": 82,
                    "time": 331.302083333338,
                    "velocity": 0.9921259842519685,
                    "duration": 0.07708333333340533
                },
                {
                    "name": "G2",
                    "midi": 43,
                    "time": 331.30416666667134,
                    "velocity": 1,
                    "duration": 0.07291666666668561
                },
                {
                    "name": "G1",
                    "midi": 31,
                    "time": 331.30416666667134,
                    "velocity": 0.984251968503937,
                    "duration": 0.06875000000002274
                },
                {
                    "name": "D6",
                    "midi": 86,
                    "time": 331.3062500000047,
                    "velocity": 0.9133858267716536,
                    "duration": 0.07291666666668561
                },
                {
                    "name": "F6",
                    "midi": 89,
                    "time": 331.3062500000047,
                    "velocity": 0.8503937007874016,
                    "duration": 0.07083333333332575
                },
                {
                    "name": "D#4",
                    "midi": 63,
                    "time": 331.85833333333807,
                    "velocity": 0.984251968503937,
                    "duration": 0.05833333333345081
                },
                {
                    "name": "C#4",
                    "midi": 61,
                    "time": 331.8666666666714,
                    "velocity": 0.8346456692913385,
                    "duration": 0.06041666666686751
                },
                {
                    "name": "A#3",
                    "midi": 58,
                    "time": 331.8729166666714,
                    "velocity": 0.6929133858267716,
                    "duration": 0.047916666666765195
                },
                {
                    "name": "G4",
                    "midi": 67,
                    "time": 331.8770833333381,
                    "velocity": 0.9606299212598425,
                    "duration": 0.05208333333354176
                },
                {
                    "name": "G3",
                    "midi": 55,
                    "time": 331.8770833333381,
                    "velocity": 0.5590551181102362,
                    "duration": 0.04791666666682204
                },
                {
                    "name": "D#5",
                    "midi": 75,
                    "time": 331.87916666667144,
                    "velocity": 0.9133858267716536,
                    "duration": 0.0500000000001819
                },
                {
                    "name": "A#4",
                    "midi": 70,
                    "time": 331.8812500000048,
                    "velocity": 0.905511811023622,
                    "duration": 0.0395833333333826
                },
                {
                    "name": "C#5",
                    "midi": 73,
                    "time": 331.88333333333816,
                    "velocity": 0.8267716535433071,
                    "duration": 0.0395833333333826
                },
                {
                    "name": "D#4",
                    "midi": 63,
                    "time": 331.962500000005,
                    "velocity": 0.9291338582677166,
                    "duration": 0.058333333333393966
                },
                {
                    "name": "G3",
                    "midi": 55,
                    "time": 331.96458333333834,
                    "velocity": 0.8110236220472441,
                    "duration": 0.07291666666674246
                },
                {
                    "name": "C#4",
                    "midi": 61,
                    "time": 331.97291666667167,
                    "velocity": 0.8110236220472441,
                    "duration": 0.03125000000005684
                },
                {
                    "name": "A#3",
                    "midi": 58,
                    "time": 331.975000000005,
                    "velocity": 0.7244094488188977,
                    "duration": 0.0645833333334167
                },
                {
                    "name": "D#5",
                    "midi": 75,
                    "time": 331.975000000005,
                    "velocity": 0.8661417322834646,
                    "duration": 0.07500000000010232
                },
                {
                    "name": "G4",
                    "midi": 67,
                    "time": 331.9770833333384,
                    "velocity": 0.84251968503937,
                    "duration": 0.05208333333337123
                },
                {
                    "name": "A#4",
                    "midi": 70,
                    "time": 331.97916666667174,
                    "velocity": 0.7716535433070866,
                    "duration": 0.05000000000001137
                },
                {
                    "name": "C#5",
                    "midi": 73,
                    "time": 331.9833333333384,
                    "velocity": 0.6850393700787402,
                    "duration": 0.04374999999998863
                },
                {
                    "name": "C2",
                    "midi": 36,
                    "time": 332.3541666666718,
                    "velocity": 0.984251968503937,
                    "duration": 0.07708333333334849
                },
                {
                    "name": "C#3",
                    "midi": 49,
                    "time": 332.57500000000516,
                    "velocity": 0.8661417322834646,
                    "duration": 0.18125000000009095
                },
                {
                    "name": "D3",
                    "midi": 50,
                    "time": 332.74375000000515,
                    "velocity": 0.84251968503937,
                    "duration": 0.16041666666677656
                },
                {
                    "name": "E5",
                    "midi": 76,
                    "time": 332.7458333333385,
                    "velocity": 0.84251968503937,
                    "duration": 0.5291666666667538
                },
                {
                    "name": "E4",
                    "midi": 64,
                    "time": 332.74791666667187,
                    "velocity": 0.8503937007874016,
                    "duration": 0.5333333333334167
                },
                {
                    "name": "G#4",
                    "midi": 68,
                    "time": 332.75000000000523,
                    "velocity": 0.8346456692913385,
                    "duration": 0.5375000000000796
                },
                {
                    "name": "D5",
                    "midi": 74,
                    "time": 332.75000000000523,
                    "velocity": 0.8031496062992126,
                    "duration": 0.5333333333334167
                },
                {
                    "name": "B4",
                    "midi": 71,
                    "time": 332.75000000000523,
                    "velocity": 0.7637795275590551,
                    "duration": 0.5520833333334281
                },
                {
                    "name": "D#3",
                    "midi": 51,
                    "time": 332.8854166666719,
                    "velocity": 0.9133858267716536,
                    "duration": 0.19791666666668561
                },
                {
                    "name": "E3",
                    "midi": 52,
                    "time": 333.02500000000526,
                    "velocity": 0.8582677165354331,
                    "duration": 0.1729166666666515
                },
                {
                    "name": "G3",
                    "midi": 55,
                    "time": 333.1708333333386,
                    "velocity": 0.7086614173228346,
                    "duration": 0.09583333333335986
                },
                {
                    "name": "F2",
                    "midi": 41,
                    "time": 333.34583333333865,
                    "velocity": 0.9606299212598425,
                    "duration": 0.07916666666670835
                },
                {
                    "name": "F3",
                    "midi": 53,
                    "time": 333.50625000000537,
                    "velocity": 0.8503937007874016,
                    "duration": 0.12291666666664014
                },
                {
                    "name": "C#5",
                    "midi": 73,
                    "time": 333.672916666672,
                    "velocity": 0.8661417322834646,
                    "duration": 0.08958333333339397
                },
                {
                    "name": "E3",
                    "midi": 52,
                    "time": 333.67500000000535,
                    "velocity": 0.8976377952755905,
                    "duration": 0.06875000000002274
                },
                {
                    "name": "F4",
                    "midi": 65,
                    "time": 333.6770833333387,
                    "velocity": 0.7795275590551181,
                    "duration": 0.05000000000001137
                },
                {
                    "name": "A4",
                    "midi": 69,
                    "time": 333.6791666666721,
                    "velocity": 0.7007874015748031,
                    "duration": 0.039583333333325754
                },
                {
                    "name": "B4",
                    "midi": 71,
                    "time": 333.68333333333874,
                    "velocity": 0.6377952755905512,
                    "duration": 0.039583333333325754
                },
                {
                    "name": "D3",
                    "midi": 50,
                    "time": 333.8125000000054,
                    "velocity": 0.8818897637795275,
                    "duration": 0.09583333333335986
                },
                {
                    "name": "D3",
                    "midi": 50,
                    "time": 333.9791666666721,
                    "velocity": 0.889763779527559,
                    "duration": 0.12291666666681067
                },
                {
                    "name": "C5",
                    "midi": 72,
                    "time": 333.98333333333875,
                    "velocity": 0.8740157480314961,
                    "duration": 0.06666666666677656
                },
                {
                    "name": "B4",
                    "midi": 71,
                    "time": 333.9854166666721,
                    "velocity": 0.8110236220472441,
                    "duration": 0.06041666666675383
                },
                {
                    "name": "E5",
                    "midi": 76,
                    "time": 333.98750000000547,
                    "velocity": 0.8031496062992126,
                    "duration": 0.07708333333340533
                },
                {
                    "name": "G#4",
                    "midi": 68,
                    "time": 334.0020833333388,
                    "velocity": 0.5433070866141733,
                    "duration": 0.041666666666685614
                },
                {
                    "name": "G#2",
                    "midi": 44,
                    "time": 334.1208333333389,
                    "velocity": 0.937007874015748,
                    "duration": 0.10000000000002274
                },
                {
                    "name": "B2",
                    "midi": 47,
                    "time": 334.28958333333895,
                    "velocity": 0.952755905511811,
                    "duration": 0.09791666666666288
                },
                {
                    "name": "D3",
                    "midi": 50,
                    "time": 334.4229166666723,
                    "velocity": 0.8740157480314961,
                    "duration": 0.11874999999997726
                },
                {
                    "name": "B5",
                    "midi": 83,
                    "time": 334.6062500000056,
                    "velocity": 0.8346456692913385,
                    "duration": 0.056250000000034106
                },
                {
                    "name": "C3",
                    "midi": 48,
                    "time": 334.6062500000056,
                    "velocity": 0.9212598425196851,
                    "duration": 0.0708333333333826
                },
                {
                    "name": "C#6",
                    "midi": 85,
                    "time": 334.6062500000056,
                    "velocity": 0.889763779527559,
                    "duration": 0.06875000000002274
                },
                {
                    "name": "F5",
                    "midi": 77,
                    "time": 334.608333333339,
                    "velocity": 0.8818897637795275,
                    "duration": 0.05000000000001137
                },
                {
                    "name": "A5",
                    "midi": 81,
                    "time": 334.61041666667234,
                    "velocity": 0.8110236220472441,
                    "duration": 0.03125
                },
                {
                    "name": "A2",
                    "midi": 45,
                    "time": 334.7604166666723,
                    "velocity": 0.7007874015748031,
                    "duration": 0.08541666666667425
                },
                {
                    "name": "G#5",
                    "midi": 80,
                    "time": 334.914583333339,
                    "velocity": 0.9133858267716536,
                    "duration": 0.05416666666673109
                },
                {
                    "name": "B5",
                    "midi": 83,
                    "time": 334.91666666667237,
                    "velocity": 0.8188976377952756,
                    "duration": 0.06041666666669698
                },
                {
                    "name": "C6",
                    "midi": 84,
                    "time": 334.91875000000573,
                    "velocity": 0.8110236220472441,
                    "duration": 0.06041666666669698
                },
                {
                    "name": "E2",
                    "midi": 40,
                    "time": 334.91875000000573,
                    "velocity": 0.889763779527559,
                    "duration": 0.07708333333334849
                },
                {
                    "name": "E6",
                    "midi": 88,
                    "time": 334.92500000000575,
                    "velocity": 0.7165354330708661,
                    "duration": 0.052083333333314386
                },
                {
                    "name": "D2",
                    "midi": 38,
                    "time": 335.0416666666724,
                    "velocity": 0.9448818897637795,
                    "duration": 0.06666666666666288
                },
                {
                    "name": "A#6",
                    "midi": 94,
                    "time": 335.25625000000576,
                    "velocity": 0.905511811023622,
                    "duration": 0.05625000000009095
                },
                {
                    "name": "A#5",
                    "midi": 82,
                    "time": 335.2583333333391,
                    "velocity": 0.9763779527559056,
                    "duration": 0.0645833333334167
                },
                {
                    "name": "D6",
                    "midi": 86,
                    "time": 335.26458333333915,
                    "velocity": 0.8110236220472441,
                    "duration": 0.05416666666673109
                },
                {
                    "name": "F6",
                    "midi": 89,
                    "time": 335.2666666666725,
                    "velocity": 0.8031496062992126,
                    "duration": 0.06666666666671972
                },
                {
                    "name": "G2",
                    "midi": 43,
                    "time": 335.27291666667253,
                    "velocity": 1,
                    "duration": 0.054166666666674246
                },
                {
                    "name": "G1",
                    "midi": 31,
                    "time": 335.27291666667253,
                    "velocity": 1,
                    "duration": 0.054166666666674246
                },
                {
                    "name": "D#4",
                    "midi": 63,
                    "time": 335.7395833333392,
                    "velocity": 0.952755905511811,
                    "duration": 0.05833333333333712
                },
                {
                    "name": "G3",
                    "midi": 55,
                    "time": 335.7520833333392,
                    "velocity": 0.6692913385826772,
                    "duration": 0.058333333333393966
                },
                {
                    "name": "D#5",
                    "midi": 75,
                    "time": 335.7562500000059,
                    "velocity": 0.889763779527559,
                    "duration": 0.05000000000006821
                },
                {
                    "name": "G4",
                    "midi": 67,
                    "time": 335.7562500000059,
                    "velocity": 0.9212598425196851,
                    "duration": 0.05416666666673109
                },
                {
                    "name": "A#3",
                    "midi": 58,
                    "time": 335.7562500000059,
                    "velocity": 0.6535433070866141,
                    "duration": 0.043750000000045475
                },
                {
                    "name": "A#4",
                    "midi": 70,
                    "time": 335.7645833333392,
                    "velocity": 0.7795275590551181,
                    "duration": 0.03125
                },
                {
                    "name": "C#5",
                    "midi": 73,
                    "time": 335.7645833333392,
                    "velocity": 0.6929133858267716,
                    "duration": 0.03333333333335986
                },
                {
                    "name": "G4",
                    "midi": 67,
                    "time": 335.84375000000597,
                    "velocity": 0.8110236220472441,
                    "duration": 0.06041666666675383
                },
                {
                    "name": "D#5",
                    "midi": 75,
                    "time": 335.84375000000597,
                    "velocity": 0.8582677165354331,
                    "duration": 0.07916666666682204
                },
                {
                    "name": "G3",
                    "midi": 55,
                    "time": 335.8458333333393,
                    "velocity": 0.7007874015748031,
                    "duration": 0.08333333333348492
                },
                {
                    "name": "C#5",
                    "midi": 73,
                    "time": 335.8458333333393,
                    "velocity": 0.7480314960629921,
                    "duration": 0.0645833333334167
                },
                {
                    "name": "A#4",
                    "midi": 70,
                    "time": 335.8458333333393,
                    "velocity": 0.7244094488188977,
                    "duration": 0.05208333333337123
                },
                {
                    "name": "D#4",
                    "midi": 63,
                    "time": 335.850000000006,
                    "velocity": 0.8188976377952756,
                    "duration": 0.041666666666685614
                },
                {
                    "name": "A#3",
                    "midi": 58,
                    "time": 335.8583333333393,
                    "velocity": 0.6220472440944882,
                    "duration": 0.05000000000006821
                },
                {
                    "name": "C#4",
                    "midi": 61,
                    "time": 335.86458333333934,
                    "velocity": 0.7322834645669292,
                    "duration": 0.029166666666696983
                },
                {
                    "name": "C2",
                    "midi": 36,
                    "time": 336.19583333333946,
                    "velocity": 1,
                    "duration": 0.09583333333335986
                },
                {
                    "name": "B2",
                    "midi": 47,
                    "time": 336.3895833333395,
                    "velocity": 0.889763779527559,
                    "duration": 0.09583333333335986
                },
                {
                    "name": "C3",
                    "midi": 48,
                    "time": 336.5520833333395,
                    "velocity": 0.6771653543307087,
                    "duration": 0.1958333333333826
                },
                {
                    "name": "D5",
                    "midi": 74,
                    "time": 336.5562500000062,
                    "velocity": 0.7952755905511811,
                    "duration": 0.5166666666667652
                },
                {
                    "name": "G#4",
                    "midi": 68,
                    "time": 336.5562500000062,
                    "velocity": 0.8661417322834646,
                    "duration": 0.5270833333334508
                },
                {
                    "name": "B4",
                    "midi": 71,
                    "time": 336.55833333333953,
                    "velocity": 0.7401574803149606,
                    "duration": 0.5500000000000682
                },
                {
                    "name": "E4",
                    "midi": 64,
                    "time": 336.5604166666729,
                    "velocity": 0.889763779527559,
                    "duration": 0.5020833333333599
                },
                {
                    "name": "E5",
                    "midi": 76,
                    "time": 336.56250000000625,
                    "velocity": 0.8346456692913385,
                    "duration": 0.49791666666664014
                },
                {
                    "name": "C#3",
                    "midi": 49,
                    "time": 336.6916666666729,
                    "velocity": 0.905511811023622,
                    "duration": 0.2041666666666515
                },
                {
                    "name": "D3",
                    "midi": 50,
                    "time": 336.83750000000623,
                    "velocity": 0.8976377952755905,
                    "duration": 0.1729166666666515
                },
                {
                    "name": "E3",
                    "midi": 52,
                    "time": 336.98125000000624,
                    "velocity": 0.8110236220472441,
                    "duration": 0.10625000000004547
                },
                {
                    "name": "F2",
                    "midi": 41,
                    "time": 337.16666666667294,
                    "velocity": 0.9606299212598425,
                    "duration": 0.10416666666668561
                },
                {
                    "name": "F3",
                    "midi": 53,
                    "time": 337.3187500000063,
                    "velocity": 0.889763779527559,
                    "duration": 0.10624999999998863
                },
                {
                    "name": "C#5",
                    "midi": 73,
                    "time": 337.4645833333396,
                    "velocity": 0.9133858267716536,
                    "duration": 0.09166666666675383
                },
                {
                    "name": "B4",
                    "midi": 71,
                    "time": 337.4645833333396,
                    "velocity": 0.8346456692913385,
                    "duration": 0.06875000000007958
                },
                {
                    "name": "G#3",
                    "midi": 56,
                    "time": 337.46666666667295,
                    "velocity": 0.9291338582677166,
                    "duration": 0.3479166666668334
                },
                {
                    "name": "F4",
                    "midi": 65,
                    "time": 337.4687500000063,
                    "velocity": 0.8740157480314961,
                    "duration": 0.052083333333314386
                },
                {
                    "name": "A4",
                    "midi": 69,
                    "time": 337.4687500000063,
                    "velocity": 0.8503937007874016,
                    "duration": 0.05833333333333712
                },
                {
                    "name": "A3",
                    "midi": 57,
                    "time": 337.60000000000633,
                    "velocity": 0.8503937007874016,
                    "duration": 0.16041666666671972
                },
                {
                    "name": "A#4",
                    "midi": 70,
                    "time": 337.672916666673,
                    "velocity": 0.5275590551181102,
                    "duration": 0.041666666666685614
                },
                {
                    "name": "E5",
                    "midi": 76,
                    "time": 337.7520833333397,
                    "velocity": 0.889763779527559,
                    "duration": 0.08125000000006821
                },
                {
                    "name": "A#4",
                    "midi": 70,
                    "time": 337.7562500000064,
                    "velocity": 0.84251968503937,
                    "duration": 0.029166666666696983
                },
                {
                    "name": "G#4",
                    "midi": 68,
                    "time": 337.7645833333397,
                    "velocity": 0.968503937007874,
                    "duration": 0.06041666666675383
                },
                {
                    "name": "E4",
                    "midi": 64,
                    "time": 337.7770833333397,
                    "velocity": 0.952755905511811,
                    "duration": 0.07291666666674246
                },
                {
                    "name": "B4",
                    "midi": 71,
                    "time": 337.7812500000064,
                    "velocity": 0.7322834645669292,
                    "duration": 0.03541666666671972
                },
                {
                    "name": "C#5",
                    "midi": 73,
                    "time": 337.78750000000645,
                    "velocity": 0.5196850393700787,
                    "duration": 0.041666666666685614
                },
                {
                    "name": "A3",
                    "midi": 57,
                    "time": 338.0854166666731,
                    "velocity": 0.7952755905511811,
                    "duration": 0.041666666666685614
                },
                {
                    "name": "A2",
                    "midi": 45,
                    "time": 338.08958333333976,
                    "velocity": 0.7795275590551181,
                    "duration": 0.05833333333333712
                },
                {
                    "name": "C#6",
                    "midi": 85,
                    "time": 338.0937500000064,
                    "velocity": 0.905511811023622,
                    "duration": 0.09166666666664014
                },
                {
                    "name": "B5",
                    "midi": 83,
                    "time": 338.10000000000645,
                    "velocity": 0.7401574803149606,
                    "duration": 0.07708333333329165
                },
                {
                    "name": "A5",
                    "midi": 81,
                    "time": 338.1145833333398,
                    "velocity": 0.7244094488188977,
                    "duration": 0.04166666666662877
                },
                {
                    "name": "F5",
                    "midi": 77,
                    "time": 338.2333333333397,
                    "velocity": 0.7322834645669292,
                    "duration": 0.12083333333333712
                },
                {
                    "name": "C#6",
                    "midi": 85,
                    "time": 338.29166666667305,
                    "velocity": 0.6929133858267716,
                    "duration": 0.07291666666668561
                },
                {
                    "name": "A5",
                    "midi": 81,
                    "time": 338.2958333333397,
                    "velocity": 0.30708661417322836,
                    "duration": 0.07291666666668561
                },
                {
                    "name": "F3",
                    "midi": 53,
                    "time": 338.4083333333397,
                    "velocity": 0.8740157480314961,
                    "duration": 0.056250000000034106
                },
                {
                    "name": "F2",
                    "midi": 41,
                    "time": 338.4083333333397,
                    "velocity": 0.8976377952755905,
                    "duration": 0.056250000000034106
                },
                {
                    "name": "D6",
                    "midi": 86,
                    "time": 338.4250000000064,
                    "velocity": 0.9291338582677166,
                    "duration": 0.13749999999998863
                },
                {
                    "name": "C6",
                    "midi": 84,
                    "time": 338.4312500000064,
                    "velocity": 0.8976377952755905,
                    "duration": 0.10208333333332575
                },
                {
                    "name": "A5",
                    "midi": 81,
                    "time": 338.4375000000064,
                    "velocity": 0.8346456692913385,
                    "duration": 0.10416666666662877
                },
                {
                    "name": "F5",
                    "midi": 77,
                    "time": 338.52083333333974,
                    "velocity": 0.84251968503937,
                    "duration": 0.09791666666660603
                },
                {
                    "name": "C6",
                    "midi": 84,
                    "time": 338.604166666673,
                    "velocity": 0.7716535433070866,
                    "duration": 0.06875000000007958
                },
                {
                    "name": "D6",
                    "midi": 86,
                    "time": 338.6145833333397,
                    "velocity": 0.6062992125984252,
                    "duration": 0.03750000000002274
                },
                {
                    "name": "A5",
                    "midi": 81,
                    "time": 338.62500000000637,
                    "velocity": 0.6141732283464567,
                    "duration": 0.041666666666685614
                },
                {
                    "name": "F6",
                    "midi": 89,
                    "time": 338.7333333333398,
                    "velocity": 0.9606299212598425,
                    "duration": 0.1270833333334167
                },
                {
                    "name": "D#6",
                    "midi": 87,
                    "time": 338.73541666667313,
                    "velocity": 0.937007874015748,
                    "duration": 0.12500000000005684
                },
                {
                    "name": "C#2",
                    "midi": 37,
                    "time": 338.74166666667315,
                    "velocity": 0.9133858267716536,
                    "duration": 0.06458333333335986
                },
                {
                    "name": "C#3",
                    "midi": 49,
                    "time": 338.74166666667315,
                    "velocity": 0.937007874015748,
                    "duration": 0.05208333333337123
                },
                {
                    "name": "B5",
                    "midi": 83,
                    "time": 338.7437500000065,
                    "velocity": 0.8031496062992126,
                    "duration": 0.15625000000005684
                },
                {
                    "name": "G#5",
                    "midi": 80,
                    "time": 338.86250000000655,
                    "velocity": 0.8582677165354331,
                    "duration": 0.10833333333340533
                },
                {
                    "name": "B5",
                    "midi": 83,
                    "time": 338.9500000000066,
                    "velocity": 0.6456692913385826,
                    "duration": 0.03750000000007958
                },
                {
                    "name": "D#6",
                    "midi": 87,
                    "time": 338.95208333333994,
                    "velocity": 0.7952755905511811,
                    "duration": 0.07291666666674246
                },
                {
                    "name": "F6",
                    "midi": 89,
                    "time": 338.9541666666733,
                    "velocity": 0.6614173228346457,
                    "duration": 0.05208333333337123
                },
                {
                    "name": "F#6",
                    "midi": 90,
                    "time": 339.11250000000666,
                    "velocity": 0.5275590551181102,
                    "duration": 0.11458333333337123
                },
                {
                    "name": "G1",
                    "midi": 31,
                    "time": 339.17083333334,
                    "velocity": 0.7322834645669292,
                    "duration": 0.0791666666667652
                },
                {
                    "name": "D6",
                    "midi": 86,
                    "time": 339.1812500000067,
                    "velocity": 0.8740157480314961,
                    "duration": 0.08541666666678793
                },
                {
                    "name": "G2",
                    "midi": 43,
                    "time": 339.18958333334,
                    "velocity": 0.9606299212598425,
                    "duration": 0.06666666666677656
                },
                {
                    "name": "A#5",
                    "midi": 82,
                    "time": 339.18958333334,
                    "velocity": 0.9133858267716536,
                    "duration": 0.058333333333393966
                },
                {
                    "name": "A#6",
                    "midi": 94,
                    "time": 339.19583333334003,
                    "velocity": 0.9606299212598425,
                    "duration": 0.05000000000001137
                },
                {
                    "name": "D#4",
                    "midi": 63,
                    "time": 339.77083333334014,
                    "velocity": 0.984251968503937,
                    "duration": 0.056250000000034106
                },
                {
                    "name": "G3",
                    "midi": 55,
                    "time": 339.77708333334016,
                    "velocity": 0.7244094488188977,
                    "duration": 0.0708333333333826
                },
                {
                    "name": "C#4",
                    "midi": 61,
                    "time": 339.7812500000068,
                    "velocity": 0.7716535433070866,
                    "duration": 0.03750000000002274
                },
                {
                    "name": "A#3",
                    "midi": 58,
                    "time": 339.7854166666735,
                    "velocity": 0.6771653543307087,
                    "duration": 0.041666666666685614
                },
                {
                    "name": "C#5",
                    "midi": 73,
                    "time": 339.78958333334015,
                    "velocity": 0.9291338582677166,
                    "duration": 0.058333333333393966
                },
                {
                    "name": "D#5",
                    "midi": 75,
                    "time": 339.7916666666735,
                    "velocity": 0.905511811023622,
                    "duration": 0.04791666666670835
                },
                {
                    "name": "G4",
                    "midi": 67,
                    "time": 339.7916666666735,
                    "velocity": 0.9448818897637795,
                    "duration": 0.05208333333337123
                },
                {
                    "name": "A#4",
                    "midi": 70,
                    "time": 339.79791666667353,
                    "velocity": 0.8267716535433071,
                    "duration": 0.03125
                },
                {
                    "name": "D#4",
                    "midi": 63,
                    "time": 339.8770833333402,
                    "velocity": 0.9291338582677166,
                    "duration": 0.05625000000009095
                },
                {
                    "name": "C#4",
                    "midi": 61,
                    "time": 339.88750000000687,
                    "velocity": 0.6929133858267716,
                    "duration": 0.04166666666674246
                },
                {
                    "name": "D#5",
                    "midi": 75,
                    "time": 339.88750000000687,
                    "velocity": 0.8976377952755905,
                    "duration": 0.07291666666674246
                },
                {
                    "name": "G3",
                    "midi": 55,
                    "time": 339.8895833333402,
                    "velocity": 0.7244094488188977,
                    "duration": 0.05416666666673109
                },
                {
                    "name": "C#5",
                    "midi": 73,
                    "time": 339.8937500000069,
                    "velocity": 0.8267716535433071,
                    "duration": 0.04791666666670835
                },
                {
                    "name": "G4",
                    "midi": 67,
                    "time": 339.9000000000069,
                    "velocity": 0.7322834645669292,
                    "duration": 0.03750000000002274
                },
                {
                    "name": "A#3",
                    "midi": 58,
                    "time": 339.9020833333403,
                    "velocity": 0.48031496062992124,
                    "duration": 0.039583333333325754
                },
                {
                    "name": "A#4",
                    "midi": 70,
                    "time": 339.9020833333403,
                    "velocity": 0.7244094488188977,
                    "duration": 0.03125
                },
                {
                    "name": "C2",
                    "midi": 36,
                    "time": 340.27500000000697,
                    "velocity": 1,
                    "duration": 0.10416666666662877
                },
                {
                    "name": "C#3",
                    "midi": 49,
                    "time": 340.55000000000695,
                    "velocity": 0.889763779527559,
                    "duration": 0.11666666666667425
                },
                {
                    "name": "D5",
                    "midi": 74,
                    "time": 340.7020833333403,
                    "velocity": 0.7716535433070866,
                    "duration": 0.6000000000001933
                },
                {
                    "name": "G#4",
                    "midi": 68,
                    "time": 340.70416666667364,
                    "velocity": 0.8503937007874016,
                    "duration": 0.5916666666668107
                },
                {
                    "name": "E5",
                    "midi": 76,
                    "time": 340.70416666667364,
                    "velocity": 0.8346456692913385,
                    "duration": 0.610416666666822
                },
                {
                    "name": "B4",
                    "midi": 71,
                    "time": 340.706250000007,
                    "velocity": 0.7244094488188977,
                    "duration": 0.6125000000001251
                },
                {
                    "name": "E4",
                    "midi": 64,
                    "time": 340.706250000007,
                    "velocity": 0.8976377952755905,
                    "duration": 0.5812500000000682
                },
                {
                    "name": "D3",
                    "midi": 50,
                    "time": 340.712500000007,
                    "velocity": 0.8346456692913385,
                    "duration": 0.11250000000001137
                },
                {
                    "name": "D#3",
                    "midi": 51,
                    "time": 340.84583333334035,
                    "velocity": 0.889763779527559,
                    "duration": 0.19166666666666288
                },
                {
                    "name": "E3",
                    "midi": 52,
                    "time": 340.98333333334034,
                    "velocity": 0.6929133858267716,
                    "duration": 0.14999999999997726
                },
                {
                    "name": "G3",
                    "midi": 55,
                    "time": 341.11666666667367,
                    "velocity": 0.7716535433070866,
                    "duration": 0.09583333333335986
                },
                {
                    "name": "F2",
                    "midi": 41,
                    "time": 341.2854166666737,
                    "velocity": 1,
                    "duration": 0.10000000000007958
                },
                {
                    "name": "F3",
                    "midi": 53,
                    "time": 341.4375000000071,
                    "velocity": 0.8346456692913385,
                    "duration": 0.11250000000001137
                },
                {
                    "name": "C#5",
                    "midi": 73,
                    "time": 341.59791666667377,
                    "velocity": 0.8976377952755905,
                    "duration": 0.09166666666669698
                },
                {
                    "name": "E3",
                    "midi": 52,
                    "time": 341.60208333334043,
                    "velocity": 0.8740157480314961,
                    "duration": 0.14583333333337123
                },
                {
                    "name": "A4",
                    "midi": 69,
                    "time": 341.6041666666738,
                    "velocity": 0.7874015748031497,
                    "duration": 0.05000000000001137
                },
                {
                    "name": "F4",
                    "midi": 65,
                    "time": 341.60625000000715,
                    "velocity": 0.7952755905511811,
                    "duration": 0.04791666666665151
                },
                {
                    "name": "B4",
                    "midi": 71,
                    "time": 341.6104166666738,
                    "velocity": 0.6377952755905512,
                    "duration": 0.039583333333325754
                },
                {
                    "name": "D#3",
                    "midi": 51,
                    "time": 341.72083333334047,
                    "velocity": 0.9133858267716536,
                    "duration": 0.09375
                },
                {
                    "name": "A#4",
                    "midi": 70,
                    "time": 341.7916666666738,
                    "velocity": 0.5118110236220472,
                    "duration": 0.04791666666665151
                },
                {
                    "name": "D3",
                    "midi": 50,
                    "time": 341.88333333334043,
                    "velocity": 0.9212598425196851,
                    "duration": 0.11875000000009095
                },
                {
                    "name": "E5",
                    "midi": 76,
                    "time": 341.9000000000071,
                    "velocity": 0.7952755905511811,
                    "duration": 0.10000000000007958
                },
                {
                    "name": "G#4",
                    "midi": 68,
                    "time": 341.9062500000071,
                    "velocity": 0.84251968503937,
                    "duration": 0.058333333333393966
                },
                {
                    "name": "C5",
                    "midi": 72,
                    "time": 341.91458333334043,
                    "velocity": 0.7559055118110236,
                    "duration": 0.058333333333393966
                },
                {
                    "name": "B4",
                    "midi": 71,
                    "time": 341.91458333334043,
                    "velocity": 0.7086614173228346,
                    "duration": 0.03333333333335986
                },
                {
                    "name": "A#4",
                    "midi": 70,
                    "time": 341.92083333334045,
                    "velocity": 0.1732283464566929,
                    "duration": 0.03333333333335986
                },
                {
                    "name": "G#2",
                    "midi": 44,
                    "time": 342.02083333334053,
                    "velocity": 0.9921259842519685,
                    "duration": 0.08958333333333712
                },
                {
                    "name": "B2",
                    "midi": 47,
                    "time": 342.1895833333405,
                    "velocity": 0.9763779527559056,
                    "duration": 0.09583333333335986
                },
                {
                    "name": "D3",
                    "midi": 50,
                    "time": 342.3125000000072,
                    "velocity": 0.8976377952755905,
                    "duration": 0.11250000000001137
                },
                {
                    "name": "C3",
                    "midi": 48,
                    "time": 342.48750000000723,
                    "velocity": 0.8976377952755905,
                    "duration": 0.07083333333343944
                },
                {
                    "name": "C#6",
                    "midi": 85,
                    "time": 342.49375000000725,
                    "velocity": 0.889763779527559,
                    "duration": 0.08750000000009095
                },
                {
                    "name": "A5",
                    "midi": 81,
                    "time": 342.49375000000725,
                    "velocity": 0.84251968503937,
                    "duration": 0.058333333333393966
                },
                {
                    "name": "F5",
                    "midi": 77,
                    "time": 342.4979166666739,
                    "velocity": 0.8031496062992126,
                    "duration": 0.04791666666670835
                },
                {
                    "name": "A2",
                    "midi": 45,
                    "time": 342.635416666674,
                    "velocity": 0.7874015748031497,
                    "duration": 0.07916666666670835
                },
                {
                    "name": "G2",
                    "midi": 43,
                    "time": 342.64166666667404,
                    "velocity": 0.7244094488188977,
                    "duration": 0.03541666666666288
                },
                {
                    "name": "E2",
                    "midi": 40,
                    "time": 342.80416666667406,
                    "velocity": 0.9763779527559056,
                    "duration": 0.07499999999998863
                },
                {
                    "name": "E6",
                    "midi": 88,
                    "time": 342.8125000000074,
                    "velocity": 0.8976377952755905,
                    "duration": 0.07916666666665151
                },
                {
                    "name": "G#5",
                    "midi": 80,
                    "time": 342.81666666667405,
                    "velocity": 0.905511811023622,
                    "duration": 0.054166666666674246
                },
                {
                    "name": "C#6",
                    "midi": 85,
                    "time": 342.8312500000074,
                    "velocity": 0.7007874015748031,
                    "duration": 0.03125
                },
                {
                    "name": "D2",
                    "midi": 38,
                    "time": 342.9458333333407,
                    "velocity": 0.952755905511811,
                    "duration": 0.08333333333331439
                },
                {
                    "name": "A#6",
                    "midi": 94,
                    "time": 343.22291666667405,
                    "velocity": 0.937007874015748,
                    "duration": 0.06250000000005684
                },
                {
                    "name": "D6",
                    "midi": 86,
                    "time": 343.2312500000074,
                    "velocity": 0.8346456692913385,
                    "duration": 0.06666666666671972
                },
                {
                    "name": "A#5",
                    "midi": 82,
                    "time": 343.23333333334074,
                    "velocity": 0.8976377952755905,
                    "duration": 0.09166666666669698
                },
                {
                    "name": "G2",
                    "midi": 43,
                    "time": 343.23958333334076,
                    "velocity": 0.9763779527559056,
                    "duration": 0.0625
                },
                {
                    "name": "G1",
                    "midi": 31,
                    "time": 343.23958333334076,
                    "velocity": 0.9921259842519685,
                    "duration": 0.054166666666674246
                },
                {
                    "name": "F6",
                    "midi": 89,
                    "time": 343.2458333333408,
                    "velocity": 0.6141732283464567,
                    "duration": 0.04374999999998863
                },
                {
                    "name": "D#4",
                    "midi": 63,
                    "time": 343.7416666666741,
                    "velocity": 0.984251968503937,
                    "duration": 0.05625000000009095
                },
                {
                    "name": "G3",
                    "midi": 55,
                    "time": 343.74791666667414,
                    "velocity": 0.8110236220472441,
                    "duration": 0.17500000000029559
                },
                {
                    "name": "C#5",
                    "midi": 73,
                    "time": 343.75833333334083,
                    "velocity": 0.8818897637795275,
                    "duration": 0.058333333333393966
                },
                {
                    "name": "D#5",
                    "midi": 75,
                    "time": 343.7604166666742,
                    "velocity": 0.889763779527559,
                    "duration": 0.05000000000001137
                },
                {
                    "name": "G4",
                    "midi": 67,
                    "time": 343.7604166666742,
                    "velocity": 0.9448818897637795,
                    "duration": 0.054166666666674246
                },
                {
                    "name": "A#4",
                    "midi": 70,
                    "time": 343.76458333334085,
                    "velocity": 0.8818897637795275,
                    "duration": 0.029166666666696983
                },
                {
                    "name": "A#3",
                    "midi": 58,
                    "time": 343.7666666666742,
                    "velocity": 0.5511811023622047,
                    "duration": 0.03541666666666288
                },
                {
                    "name": "D#4",
                    "midi": 63,
                    "time": 343.83541666667423,
                    "velocity": 0.9291338582677166,
                    "duration": 0.06250000000017053
                },
                {
                    "name": "A#3",
                    "midi": 58,
                    "time": 343.8500000000076,
                    "velocity": 0.6929133858267716,
                    "duration": 0.06250000000017053
                },
                {
                    "name": "D#5",
                    "midi": 75,
                    "time": 343.85208333334094,
                    "velocity": 0.8976377952755905,
                    "duration": 0.08333333333348492
                },
                {
                    "name": "G4",
                    "midi": 67,
                    "time": 343.85833333334097,
                    "velocity": 0.8110236220472441,
                    "duration": 0.05625000000014779
                },
                {
                    "name": "C#4",
                    "midi": 61,
                    "time": 343.8604166666743,
                    "velocity": 0.7322834645669292,
                    "duration": 0.029166666666696983
                },
                {
                    "name": "C#5",
                    "midi": 73,
                    "time": 343.86666666667435,
                    "velocity": 0.7637795275590551,
                    "duration": 0.04166666666674246
                },
                {
                    "name": "A#4",
                    "midi": 70,
                    "time": 343.8687500000077,
                    "velocity": 0.6299212598425197,
                    "duration": 0.03125000000005684
                },
                {
                    "name": "C2",
                    "midi": 36,
                    "time": 344.2500000000078,
                    "velocity": 1,
                    "duration": 0.2895833333333826
                },
                {
                    "name": "B2",
                    "midi": 47,
                    "time": 344.48125000000783,
                    "velocity": 0.7322834645669292,
                    "duration": 0.1416666666666515
                },
                {
                    "name": "D5",
                    "midi": 74,
                    "time": 344.68750000000784,
                    "velocity": 0.7952755905511811,
                    "duration": 0.5500000000001251
                },
                {
                    "name": "E5",
                    "midi": 76,
                    "time": 344.6916666666745,
                    "velocity": 0.8740157480314961,
                    "duration": 0.5604166666668107
                },
                {
                    "name": "E4",
                    "midi": 64,
                    "time": 344.69375000000787,
                    "velocity": 0.8582677165354331,
                    "duration": 0.47083333333347355
                },
                {
                    "name": "C3",
                    "midi": 48,
                    "time": 344.6958333333412,
                    "velocity": 0.8503937007874016,
                    "duration": 0.19583333333343944
                },
                {
                    "name": "G#4",
                    "midi": 68,
                    "time": 344.6958333333412,
                    "velocity": 0.8346456692913385,
                    "duration": 0.4854166666667652
                },
                {
                    "name": "B4",
                    "midi": 71,
                    "time": 344.6979166666746,
                    "velocity": 0.6141732283464567,
                    "duration": 0.5125000000000455
                },
                {
                    "name": "C5",
                    "midi": 72,
                    "time": 344.7083333333413,
                    "velocity": 0.7322834645669292,
                    "duration": 0.1500000000000341
                },
                {
                    "name": "F4",
                    "midi": 65,
                    "time": 344.71875000000796,
                    "velocity": 0.49606299212598426,
                    "duration": 0.05624999999997726
                },
                {
                    "name": "C#3",
                    "midi": 49,
                    "time": 344.8395833333413,
                    "velocity": 0.8661417322834646,
                    "duration": 0.12500000000005684
                },
                {
                    "name": "D3",
                    "midi": 50,
                    "time": 344.99583333334135,
                    "velocity": 0.8976377952755905,
                    "duration": 0.11874999999997726
                },
                {
                    "name": "E3",
                    "midi": 52,
                    "time": 345.1291666666747,
                    "velocity": 0.84251968503937,
                    "duration": 0.12291666666664014
                },
                {
                    "name": "F2",
                    "midi": 41,
                    "time": 345.312500000008,
                    "velocity": 0.9921259842519685,
                    "duration": 0.12708333333330302
                },
                {
                    "name": "F3",
                    "midi": 53,
                    "time": 345.45833333334133,
                    "velocity": 0.8188976377952756,
                    "duration": 0.10624999999998863
                },
                {
                    "name": "C#6",
                    "midi": 85,
                    "time": 345.63333333334134,
                    "velocity": 0.889763779527559,
                    "duration": 0.10000000000013642
                },
                {
                    "name": "F5",
                    "midi": 77,
                    "time": 345.63333333334134,
                    "velocity": 0.8188976377952756,
                    "duration": 0.05833333333345081
                },
                {
                    "name": "A5",
                    "midi": 81,
                    "time": 345.6354166666747,
                    "velocity": 0.7952755905511811,
                    "duration": 0.05000000000006821
                },
                {
                    "name": "B5",
                    "midi": 83,
                    "time": 345.63750000000806,
                    "velocity": 0.7165354330708661,
                    "duration": 0.0645833333334167
                },
                {
                    "name": "G#3",
                    "midi": 56,
                    "time": 345.6437500000081,
                    "velocity": 0.8661417322834646,
                    "duration": 0.11458333333337123
                },
                {
                    "name": "A3",
                    "midi": 57,
                    "time": 345.8041666666748,
                    "velocity": 0.8740157480314961,
                    "duration": 0.04374999999998863
                },
                {
                    "name": "F6",
                    "midi": 89,
                    "time": 345.94375000000815,
                    "velocity": 0.984251968503937,
                    "duration": 0.06875000000002274
                },
                {
                    "name": "F4",
                    "midi": 65,
                    "time": 345.94375000000815,
                    "velocity": 0.9763779527559056,
                    "duration": 0.07291666666668561
                },
                {
                    "name": "C6",
                    "midi": 84,
                    "time": 345.9500000000082,
                    "velocity": 0.9291338582677166,
                    "duration": 0.05000000000001137
                },
                {
                    "name": "A5",
                    "midi": 81,
                    "time": 345.9500000000082,
                    "velocity": 0.9291338582677166,
                    "duration": 0.05000000000001137
                },
                {
                    "name": "C#3",
                    "midi": 49,
                    "time": 346.2500000000082,
                    "velocity": 1,
                    "duration": 0.058333333333393966
                },
                {
                    "name": "C#2",
                    "midi": 37,
                    "time": 346.2562500000082,
                    "velocity": 0.984251968503937,
                    "duration": 0.06041666666669698
                },
                {
                    "name": "A3",
                    "midi": 57,
                    "time": 346.3583333333416,
                    "velocity": 0.7322834645669292,
                    "duration": 0.13541666666668561
                },
                {
                    "name": "B3",
                    "midi": 59,
                    "time": 346.3583333333416,
                    "velocity": 0.7637795275590551,
                    "duration": 0.14166666666670835
                },
                {
                    "name": "F4",
                    "midi": 65,
                    "time": 346.44375000000827,
                    "velocity": 0.7874015748031497,
                    "duration": 0.09166666666669698
                },
                {
                    "name": "E4",
                    "midi": 64,
                    "time": 346.4520833333416,
                    "velocity": 0.7401574803149606,
                    "duration": 0.09375000000005684
                },
                {
                    "name": "A4",
                    "midi": 69,
                    "time": 346.4520833333416,
                    "velocity": 0.7401574803149606,
                    "duration": 0.11458333333342807
                },
                {
                    "name": "C3",
                    "midi": 48,
                    "time": 346.5437500000083,
                    "velocity": 0.889763779527559,
                    "duration": 0.05416666666673109
                },
                {
                    "name": "C2",
                    "midi": 36,
                    "time": 346.55625000000833,
                    "velocity": 0.8740157480314961,
                    "duration": 0.05208333333337123
                },
                {
                    "name": "A3",
                    "midi": 57,
                    "time": 346.6520833333417,
                    "velocity": 0.7559055118110236,
                    "duration": 0.1500000000000341
                },
                {
                    "name": "B3",
                    "midi": 59,
                    "time": 346.6520833333417,
                    "velocity": 0.8110236220472441,
                    "duration": 0.15208333333339397
                },
                {
                    "name": "E4",
                    "midi": 64,
                    "time": 346.73750000000837,
                    "velocity": 0.6929133858267716,
                    "duration": 0.11250000000006821
                },
                {
                    "name": "F4",
                    "midi": 65,
                    "time": 346.7458333333417,
                    "velocity": 0.7795275590551181,
                    "duration": 0.10833333333340533
                },
                {
                    "name": "A4",
                    "midi": 69,
                    "time": 346.74791666667505,
                    "velocity": 0.7716535433070866,
                    "duration": 0.23541666666682204
                },
                {
                    "name": "F1",
                    "midi": 29,
                    "time": 346.8770833333418,
                    "velocity": 0.9291338582677166,
                    "duration": 0.10625000000010232
                },
                {
                    "name": "F2",
                    "midi": 41,
                    "time": 346.8770833333418,
                    "velocity": 0.9763779527559056,
                    "duration": 0.08125000000012506
                },
                {
                    "name": "F4",
                    "midi": 65,
                    "time": 346.8833333333418,
                    "velocity": 0.9133858267716536,
                    "duration": 0.08333333333342807
                },
                {
                    "name": "C4",
                    "midi": 60,
                    "time": 346.88541666667516,
                    "velocity": 0.952755905511811,
                    "duration": 0.04791666666670835
                },
                {
                    "name": "A6",
                    "midi": 93,
                    "time": 347.23541666667523,
                    "velocity": 0.8346456692913385,
                    "duration": 0.0791666666667652
                },
                {
                    "name": "A5",
                    "midi": 81,
                    "time": 347.2375000000086,
                    "velocity": 0.8976377952755905,
                    "duration": 0.07291666666674246
                },
                {
                    "name": "A3",
                    "midi": 57,
                    "time": 347.24166666667526,
                    "velocity": 0.7716535433070866,
                    "duration": 0.08958333333339397
                },
                {
                    "name": "A4",
                    "midi": 69,
                    "time": 347.2437500000086,
                    "velocity": 0.9606299212598425,
                    "duration": 0.06458333333335986
                },
                {
                    "name": "A4",
                    "midi": 69,
                    "time": 347.8291666666753,
                    "velocity": 0.8503937007874016,
                    "duration": 0.07500000000004547
                },
                {
                    "name": "A5",
                    "midi": 81,
                    "time": 347.83125000000865,
                    "velocity": 0.8188976377952756,
                    "duration": 0.07708333333334849
                },
                {
                    "name": "A3",
                    "midi": 57,
                    "time": 347.8354166666753,
                    "velocity": 0.889763779527559,
                    "duration": 0.07708333333334849
                },
                {
                    "name": "A2",
                    "midi": 45,
                    "time": 347.839583333342,
                    "velocity": 0.8031496062992126,
                    "duration": 0.17708333333337123
                },
                {
                    "name": "A3",
                    "midi": 57,
                    "time": 347.9479166666753,
                    "velocity": 0.7795275590551181,
                    "duration": 0.06458333333335986
                },
                {
                    "name": "A4",
                    "midi": 69,
                    "time": 347.958333333342,
                    "velocity": 0.8188976377952756,
                    "duration": 0.06041666666669698
                },
                {
                    "name": "A5",
                    "midi": 81,
                    "time": 347.9625000000087,
                    "velocity": 0.7874015748031497,
                    "duration": 0.07916666666670835
                },
                {
                    "name": "A3",
                    "midi": 57,
                    "time": 348.445833333342,
                    "velocity": 0.6614173228346457,
                    "duration": 0.10208333333332575
                },
                {
                    "name": "A#5",
                    "midi": 82,
                    "time": 348.6979166666753,
                    "velocity": 0.6929133858267716,
                    "duration": 0.16666666666668561
                },
                {
                    "name": "A#4",
                    "midi": 70,
                    "time": 348.89791666667537,
                    "velocity": 0.8267716535433071,
                    "duration": 0.07083333333332575
                },
                {
                    "name": "B5",
                    "midi": 83,
                    "time": 348.91041666667536,
                    "velocity": 0.6850393700787402,
                    "duration": 0.16250000000002274
                },
                {
                    "name": "G#4",
                    "midi": 68,
                    "time": 348.914583333342,
                    "velocity": 0.6614173228346457,
                    "duration": 0.052083333333314386
                },
                {
                    "name": "A4",
                    "midi": 69,
                    "time": 348.9187500000087,
                    "velocity": 0.5118110236220472,
                    "duration": 0.04374999999998863
                },
                {
                    "name": "C6",
                    "midi": 84,
                    "time": 349.08750000000873,
                    "velocity": 0.7716535433070866,
                    "duration": 0.21666666666669698
                },
                {
                    "name": "C#6",
                    "midi": 85,
                    "time": 349.23958333334207,
                    "velocity": 0.8818897637795275,
                    "duration": 0.1791666666667311
                },
                {
                    "name": "F6",
                    "midi": 89,
                    "time": 349.3687500000088,
                    "velocity": 0.8110236220472441,
                    "duration": 0.2416666666667311
                },
                {
                    "name": "A3",
                    "midi": 57,
                    "time": 349.5208333333422,
                    "velocity": 0.7165354330708661,
                    "duration": 0.07916666666665151
                },
                {
                    "name": "E6",
                    "midi": 88,
                    "time": 349.5291666666755,
                    "velocity": 0.8503937007874016,
                    "duration": 0.2020833333333485
                },
                {
                    "name": "C#6",
                    "midi": 85,
                    "time": 349.6729166666755,
                    "velocity": 0.8346456692913385,
                    "duration": 0.18958333333330302
                },
                {
                    "name": "E6",
                    "midi": 88,
                    "time": 349.83750000000884,
                    "velocity": 0.8031496062992126,
                    "duration": 0.21666666666664014
                },
                {
                    "name": "B4",
                    "midi": 71,
                    "time": 349.85833333334216,
                    "velocity": 0.6220472440944882,
                    "duration": 0.12083333333333712
                },
                {
                    "name": "G4",
                    "midi": 67,
                    "time": 349.87708333334217,
                    "velocity": 0.3543307086614173,
                    "duration": 0.19583333333332575
                },
                {
                    "name": "A4",
                    "midi": 69,
                    "time": 349.87916666667553,
                    "velocity": 0.4015748031496063,
                    "duration": 0.08749999999997726
                },
                {
                    "name": "D6",
                    "midi": 86,
                    "time": 349.97500000000883,
                    "velocity": 0.7952755905511811,
                    "duration": 0.22500000000002274
                },
                {
                    "name": "C#6",
                    "midi": 85,
                    "time": 350.13125000000883,
                    "velocity": 0.7795275590551181,
                    "duration": 0.1729166666667652
                },
                {
                    "name": "F4",
                    "midi": 65,
                    "time": 350.15000000000884,
                    "velocity": 0.7244094488188977,
                    "duration": 0.06458333333335986
                },
                {
                    "name": "C5",
                    "midi": 72,
                    "time": 350.1520833333422,
                    "velocity": 0.7401574803149606,
                    "duration": 0.03333333333330302
                },
                {
                    "name": "A4",
                    "midi": 69,
                    "time": 350.16041666667553,
                    "velocity": 0.47244094488188976,
                    "duration": 0.056250000000034106
                },
                {
                    "name": "C6",
                    "midi": 84,
                    "time": 350.2812500000089,
                    "velocity": 0.7322834645669292,
                    "duration": 0.19791666666668561
                },
                {
                    "name": "A3",
                    "midi": 57,
                    "time": 350.45416666667563,
                    "velocity": 0.6614173228346457,
                    "duration": 0.0687499999999659
                },
                {
                    "name": "C#6",
                    "midi": 85,
                    "time": 350.4583333333423,
                    "velocity": 0.8346456692913385,
                    "duration": 0.20625000000001137
                },
                {
                    "name": "C6",
                    "midi": 84,
                    "time": 350.5958333333423,
                    "velocity": 0.7637795275590551,
                    "duration": 0.20833333333342807
                },
                {
                    "name": "C#5",
                    "midi": 73,
                    "time": 350.77291666667566,
                    "velocity": 0.8110236220472441,
                    "duration": 0.0875000000000341
                },
                {
                    "name": "G#4",
                    "midi": 68,
                    "time": 350.775000000009,
                    "velocity": 0.6299212598425197,
                    "duration": 0.09583333333335986
                },
                {
                    "name": "B5",
                    "midi": 83,
                    "time": 350.78958333334236,
                    "velocity": 0.6692913385826772,
                    "duration": 0.11041666666665151
                },
                {
                    "name": "F4",
                    "midi": 65,
                    "time": 350.793750000009,
                    "velocity": 0.31496062992125984,
                    "duration": 0.07083333333332575
                },
                {
                    "name": "A4",
                    "midi": 69,
                    "time": 350.8291666666757,
                    "velocity": 0.16535433070866143,
                    "duration": 0.03750000000002274
                },
                {
                    "name": "C6",
                    "midi": 84,
                    "time": 350.92916666667566,
                    "velocity": 0.7244094488188977,
                    "duration": 0.2125000000000341
                },
                {
                    "name": "B5",
                    "midi": 83,
                    "time": 351.07708333334233,
                    "velocity": 0.7007874015748031,
                    "duration": 0.14375000000001137
                },
                {
                    "name": "F4",
                    "midi": 65,
                    "time": 351.08333333334235,
                    "velocity": 0.6614173228346457,
                    "duration": 0.07916666666665151
                },
                {
                    "name": "D5",
                    "midi": 74,
                    "time": 351.0854166666757,
                    "velocity": 0.7086614173228346,
                    "duration": 0.039583333333325754
                },
                {
                    "name": "G#4",
                    "midi": 68,
                    "time": 351.0895833333424,
                    "velocity": 0.6299212598425197,
                    "duration": 0.04374999999998863
                },
                {
                    "name": "A#5",
                    "midi": 82,
                    "time": 351.206250000009,
                    "velocity": 0.7086614173228346,
                    "duration": 0.07083333333332575
                },
                {
                    "name": "A3",
                    "midi": 57,
                    "time": 351.4458333333423,
                    "velocity": 0.7401574803149606,
                    "duration": 0.06875000000002274
                },
                {
                    "name": "A6",
                    "midi": 93,
                    "time": 351.4458333333423,
                    "velocity": 0.8110236220472441,
                    "duration": 0.06458333333335986
                },
                {
                    "name": "A4",
                    "midi": 69,
                    "time": 351.44791666667567,
                    "velocity": 0.8818897637795275,
                    "duration": 0.027083333333337123
                },
                {
                    "name": "A5",
                    "midi": 81,
                    "time": 351.45208333334233,
                    "velocity": 0.8740157480314961,
                    "duration": 0.054166666666674246
                },
                {
                    "name": "G6",
                    "midi": 91,
                    "time": 351.47708333334236,
                    "velocity": 0.41732283464566927,
                    "duration": 0.052083333333314386
                },
                {
                    "name": "A4",
                    "midi": 69,
                    "time": 351.9666666666757,
                    "velocity": 0.7952755905511811,
                    "duration": 0.06458333333330302
                },
                {
                    "name": "A5",
                    "midi": 81,
                    "time": 351.9666666666757,
                    "velocity": 0.7952755905511811,
                    "duration": 0.08333333333331439
                },
                {
                    "name": "A3",
                    "midi": 57,
                    "time": 351.97083333334234,
                    "velocity": 0.8188976377952756,
                    "duration": 0.0687499999999659
                },
                {
                    "name": "A2",
                    "midi": 45,
                    "time": 351.97083333334234,
                    "velocity": 0.7401574803149606,
                    "duration": 0.07291666666662877
                },
                {
                    "name": "A4",
                    "midi": 69,
                    "time": 352.07708333334233,
                    "velocity": 0.7716535433070866,
                    "duration": 0.056250000000034106
                },
                {
                    "name": "A5",
                    "midi": 81,
                    "time": 352.0791666666757,
                    "velocity": 0.7086614173228346,
                    "duration": 0.07291666666674246
                },
                {
                    "name": "A3",
                    "midi": 57,
                    "time": 352.08333333334235,
                    "velocity": 0.8188976377952756,
                    "duration": 0.06666666666671972
                },
                {
                    "name": "A2",
                    "midi": 45,
                    "time": 352.0895833333424,
                    "velocity": 0.8346456692913385,
                    "duration": 0.054166666666674246
                },
                {
                    "name": "A3",
                    "midi": 57,
                    "time": 352.4541666666758,
                    "velocity": 0.7874015748031497,
                    "duration": 0.07499999999998863
                },
                {
                    "name": "G#5",
                    "midi": 80,
                    "time": 352.7166666666758,
                    "velocity": 0.7086614173228346,
                    "duration": 0.22500000000002274
                },
                {
                    "name": "A#4",
                    "midi": 70,
                    "time": 352.9437500000092,
                    "velocity": 0.7559055118110236,
                    "duration": 0.22291666666666288
                },
                {
                    "name": "A5",
                    "midi": 81,
                    "time": 352.94791666667584,
                    "velocity": 0.6614173228346457,
                    "duration": 0.2333333333333485
                },
                {
                    "name": "A4",
                    "midi": 69,
                    "time": 352.9520833333425,
                    "velocity": 0.5354330708661418,
                    "duration": 0.23541666666670835
                },
                {
                    "name": "G#4",
                    "midi": 68,
                    "time": 352.9583333333425,
                    "velocity": 0.5590551181102362,
                    "duration": 0.26875000000001137
                },
                {
                    "name": "A#5",
                    "midi": 82,
                    "time": 353.1395833333425,
                    "velocity": 0.7637795275590551,
                    "duration": 0.1958333333333826
                },
                {
                    "name": "B5",
                    "midi": 83,
                    "time": 353.3020833333425,
                    "velocity": 0.7795275590551181,
                    "duration": 0.1958333333333826
                },
                {
                    "name": "C6",
                    "midi": 84,
                    "time": 353.44375000000923,
                    "velocity": 0.8188976377952756,
                    "duration": 0.2041666666666515
                },
                {
                    "name": "A3",
                    "midi": 57,
                    "time": 353.5854166666759,
                    "velocity": 0.7874015748031497,
                    "duration": 0.08749999999997726
                },
                {
                    "name": "E6",
                    "midi": 88,
                    "time": 353.6250000000092,
                    "velocity": 0.8188976377952756,
                    "duration": 0.19166666666666288
                },
                {
                    "name": "C#6",
                    "midi": 85,
                    "time": 353.7708333333425,
                    "velocity": 0.8661417322834646,
                    "duration": 0.15416666666669698
                },
                {
                    "name": "B4",
                    "midi": 71,
                    "time": 353.9250000000092,
                    "velocity": 0.8110236220472441,
                    "duration": 0.16041666666671972
                },
                {
                    "name": "D6",
                    "midi": 86,
                    "time": 353.93333333334255,
                    "velocity": 0.8031496062992126,
                    "duration": 0.16875000000004547
                },
                {
                    "name": "A4",
                    "midi": 69,
                    "time": 353.9354166666759,
                    "velocity": 0.6535433070866141,
                    "duration": 0.1020833333333826
                },
                {
                    "name": "G4",
                    "midi": 67,
                    "time": 353.93750000000927,
                    "velocity": 0.6062992125984252,
                    "duration": 0.21041666666667425
                },
                {
                    "name": "F6",
                    "midi": 89,
                    "time": 354.06250000000927,
                    "velocity": 0.8110236220472441,
                    "duration": 0.1395833333333485
                },
                {
                    "name": "C#7",
                    "midi": 97,
                    "time": 354.2145833333426,
                    "velocity": 0.8976377952755905,
                    "duration": 0.05833333333345081
                },
                {
                    "name": "C#5",
                    "midi": 73,
                    "time": 354.21666666667596,
                    "velocity": 0.889763779527559,
                    "duration": 0.045833333333405335
                },
                {
                    "name": "F4",
                    "midi": 65,
                    "time": 354.2187500000093,
                    "velocity": 0.7716535433070866,
                    "duration": 0.07291666666674246
                },
                {
                    "name": "G#6",
                    "midi": 92,
                    "time": 354.222916666676,
                    "velocity": 0.84251968503937,
                    "duration": 0.03750000000002274
                },
                {
                    "name": "G#4",
                    "midi": 68,
                    "time": 354.222916666676,
                    "velocity": 0.7007874015748031,
                    "duration": 0.03333333333335986
                },
                {
                    "name": "D2",
                    "midi": 38,
                    "time": 354.5666666666761,
                    "velocity": 0.889763779527559,
                    "duration": 0.06041666666669698
                },
                {
                    "name": "D3",
                    "midi": 50,
                    "time": 354.56875000000946,
                    "velocity": 0.7716535433070866,
                    "duration": 0.03333333333335986
                },
                {
                    "name": "A#2",
                    "midi": 46,
                    "time": 354.8895833333428,
                    "velocity": 0.6850393700787402,
                    "duration": 0.03333333333335986
                },
                {
                    "name": "D4",
                    "midi": 62,
                    "time": 354.89375000000945,
                    "velocity": 0.6299212598425197,
                    "duration": 0.03750000000002274
                },
                {
                    "name": "A#1",
                    "midi": 34,
                    "time": 354.8979166666761,
                    "velocity": 0.49606299212598426,
                    "duration": 0.05416666666673109
                },
                {
                    "name": "G#4",
                    "midi": 68,
                    "time": 354.9020833333428,
                    "velocity": 0.6141732283464567,
                    "duration": 0.043750000000045475
                },
                {
                    "name": "A#4",
                    "midi": 70,
                    "time": 354.9083333333428,
                    "velocity": 0.6141732283464567,
                    "duration": 0.041666666666685614
                },
                {
                    "name": "D5",
                    "midi": 74,
                    "time": 354.9083333333428,
                    "velocity": 0.5590551181102362,
                    "duration": 0.0708333333333826
                },
                {
                    "name": "F4",
                    "midi": 65,
                    "time": 355.2500000000095,
                    "velocity": 0.5354330708661418,
                    "duration": 0.043750000000045475
                },
                {
                    "name": "A4",
                    "midi": 69,
                    "time": 355.2604166666762,
                    "velocity": 0.6456692913385826,
                    "duration": 0.03750000000007958
                },
                {
                    "name": "F1",
                    "midi": 29,
                    "time": 355.2604166666762,
                    "velocity": 0.7007874015748031,
                    "duration": 0.047916666666765195
                },
                {
                    "name": "C5",
                    "midi": 72,
                    "time": 355.2666666666762,
                    "velocity": 0.7637795275590551,
                    "duration": 0.06666666666671972
                },
                {
                    "name": "F2",
                    "midi": 41,
                    "time": 355.27083333334286,
                    "velocity": 0.5669291338582677,
                    "duration": 0.04166666666674246
                },
                {
                    "name": "F5",
                    "midi": 77,
                    "time": 355.2958333333429,
                    "velocity": 0.7716535433070866,
                    "duration": 0.054166666666674246
                },
                {
                    "name": "A6",
                    "midi": 93,
                    "time": 355.65416666667625,
                    "velocity": 0.84251968503937,
                    "duration": 0.07708333333334849
                },
                {
                    "name": "A5",
                    "midi": 81,
                    "time": 355.6583333333429,
                    "velocity": 0.9291338582677166,
                    "duration": 0.07291666666668561
                },
                {
                    "name": "A4",
                    "midi": 69,
                    "time": 355.66041666667627,
                    "velocity": 0.9763779527559056,
                    "duration": 0.05833333333333712
                },
                {
                    "name": "A3",
                    "midi": 57,
                    "time": 355.66041666667627,
                    "velocity": 0.8503937007874016,
                    "duration": 0.07916666666665151
                },
                {
                    "name": "A4",
                    "midi": 69,
                    "time": 356.1875000000096,
                    "velocity": 0.8188976377952756,
                    "duration": 0.07291666666668561
                },
                {
                    "name": "A5",
                    "midi": 81,
                    "time": 356.18958333334297,
                    "velocity": 0.8346456692913385,
                    "duration": 0.09166666666669698
                },
                {
                    "name": "A3",
                    "midi": 57,
                    "time": 356.20208333334296,
                    "velocity": 0.8582677165354331,
                    "duration": 0.07291666666668561
                },
                {
                    "name": "A2",
                    "midi": 45,
                    "time": 356.208333333343,
                    "velocity": 0.7716535433070866,
                    "duration": 0.06875000000002274
                },
                {
                    "name": "A5",
                    "midi": 81,
                    "time": 356.30625000000964,
                    "velocity": 0.5354330708661418,
                    "duration": 0.09166666666675383
                },
                {
                    "name": "A2",
                    "midi": 45,
                    "time": 356.308333333343,
                    "velocity": 0.7559055118110236,
                    "duration": 0.0708333333333826
                },
                {
                    "name": "A3",
                    "midi": 57,
                    "time": 356.308333333343,
                    "velocity": 0.8346456692913385,
                    "duration": 0.06875000000002274
                },
                {
                    "name": "A4",
                    "midi": 69,
                    "time": 356.308333333343,
                    "velocity": 0.7244094488188977,
                    "duration": 0.07291666666674246
                },
                {
                    "name": "A3",
                    "midi": 57,
                    "time": 356.75416666667644,
                    "velocity": 0.7322834645669292,
                    "duration": 0.14999999999997726
                },
                {
                    "name": "A#5",
                    "midi": 82,
                    "time": 356.9895833333431,
                    "velocity": 0.7559055118110236,
                    "duration": 0.19791666666668561
                },
                {
                    "name": "B5",
                    "midi": 83,
                    "time": 357.20000000000977,
                    "velocity": 0.7086614173228346,
                    "duration": 0.20833333333331439
                },
                {
                    "name": "A#4",
                    "midi": 70,
                    "time": 357.21250000000975,
                    "velocity": 0.7165354330708661,
                    "duration": 0.2437500000000341
                },
                {
                    "name": "A4",
                    "midi": 69,
                    "time": 357.2187500000098,
                    "velocity": 0.5039370078740157,
                    "duration": 0.2354166666666515
                },
                {
                    "name": "G#4",
                    "midi": 68,
                    "time": 357.2187500000098,
                    "velocity": 0.5354330708661418,
                    "duration": 0.2645833333333485
                },
                {
                    "name": "C6",
                    "midi": 84,
                    "time": 357.36875000000975,
                    "velocity": 0.8031496062992126,
                    "duration": 0.23125000000004547
                },
                {
                    "name": "C#6",
                    "midi": 85,
                    "time": 357.5375000000098,
                    "velocity": 0.8582677165354331,
                    "duration": 0.18958333333335986
                },
                {
                    "name": "F6",
                    "midi": 89,
                    "time": 357.6687500000098,
                    "velocity": 0.8188976377952756,
                    "duration": 0.24374999999992042
                },
                {
                    "name": "A3",
                    "midi": 57,
                    "time": 357.8187500000098,
                    "velocity": 0.7165354330708661,
                    "duration": 0.07708333333329165
                },
                {
                    "name": "E6",
                    "midi": 88,
                    "time": 357.83541666667645,
                    "velocity": 0.8503937007874016,
                    "duration": 0.17708333333325754
                },
                {
                    "name": "C#6",
                    "midi": 85,
                    "time": 357.96458333334306,
                    "velocity": 0.8661417322834646,
                    "duration": 0.16041666666666288
                },
                {
                    "name": "E6",
                    "midi": 88,
                    "time": 358.1270833333431,
                    "velocity": 0.8110236220472441,
                    "duration": 0.2062500000000682
                },
                {
                    "name": "B4",
                    "midi": 71,
                    "time": 358.13958333334307,
                    "velocity": 0.6535433070866141,
                    "duration": 0.09166666666669698
                },
                {
                    "name": "G4",
                    "midi": 67,
                    "time": 358.1479166666764,
                    "velocity": 0.4566929133858268,
                    "duration": 0.05208333333337123
                },
                {
                    "name": "A4",
                    "midi": 69,
                    "time": 358.15000000000975,
                    "velocity": 0.48031496062992124,
                    "duration": 0.056250000000034106
                },
                {
                    "name": "D6",
                    "midi": 86,
                    "time": 358.2500000000098,
                    "velocity": 0.8503937007874016,
                    "duration": 0.23958333333337123
                },
                {
                    "name": "C#6",
                    "midi": 85,
                    "time": 358.4041666666765,
                    "velocity": 0.8661417322834646,
                    "duration": 0.2041666666666515
                },
                {
                    "name": "C5",
                    "midi": 72,
                    "time": 358.4250000000098,
                    "velocity": 0.7559055118110236,
                    "duration": 0.05833333333333712
                },
                {
                    "name": "F4",
                    "midi": 65,
                    "time": 358.4333333333431,
                    "velocity": 0.6535433070866141,
                    "duration": 0.06041666666669698
                },
                {
                    "name": "C6",
                    "midi": 84,
                    "time": 358.55208333334315,
                    "velocity": 0.8110236220472441,
                    "duration": 0.19583333333332575
                },
                {
                    "name": "A3",
                    "midi": 57,
                    "time": 358.7062500000098,
                    "velocity": 0.7165354330708661,
                    "duration": 0.07708333333334849
                },
                {
                    "name": "C#6",
                    "midi": 85,
                    "time": 358.72916666667646,
                    "velocity": 0.889763779527559,
                    "duration": 0.22916666666668561
                },
                {
                    "name": "C6",
                    "midi": 84,
                    "time": 358.8625000000098,
                    "velocity": 0.8346456692913385,
                    "duration": 0.1958333333333826
                },
                {
                    "name": "C#5",
                    "midi": 73,
                    "time": 359.0187500000098,
                    "velocity": 0.7874015748031497,
                    "duration": 0.05000000000006821
                },
                {
                    "name": "G#4",
                    "midi": 68,
                    "time": 359.0187500000098,
                    "velocity": 0.6456692913385826,
                    "duration": 0.045833333333405335
                },
                {
                    "name": "F4",
                    "midi": 65,
                    "time": 359.0250000000098,
                    "velocity": 0.5669291338582677,
                    "duration": 0.04791666666670835
                },
                {
                    "name": "B5",
                    "midi": 83,
                    "time": 359.0250000000098,
                    "velocity": 0.7401574803149606,
                    "duration": 0.10000000000002274
                },
                {
                    "name": "C6",
                    "midi": 84,
                    "time": 359.17500000000985,
                    "velocity": 0.7874015748031497,
                    "duration": 0.21458333333333712
                },
                {
                    "name": "D5",
                    "midi": 74,
                    "time": 359.3250000000098,
                    "velocity": 0.6614173228346457,
                    "duration": 0.0395833333333826
                },
                {
                    "name": "F4",
                    "midi": 65,
                    "time": 359.33333333334315,
                    "velocity": 0.5196850393700787,
                    "duration": 0.058333333333393966
                },
                {
                    "name": "A4",
                    "midi": 69,
                    "time": 359.33958333334317,
                    "velocity": 0.4645669291338583,
                    "duration": 0.05416666666673109
                },
                {
                    "name": "B5",
                    "midi": 83,
                    "time": 359.3458333333432,
                    "velocity": 0.7401574803149606,
                    "duration": 0.12291666666675383
                },
                {
                    "name": "A#5",
                    "midi": 82,
                    "time": 359.4625000000099,
                    "velocity": 0.7952755905511811,
                    "duration": 0.07291666666668561
                },
                {
                    "name": "A4",
                    "midi": 69,
                    "time": 359.7041666666766,
                    "velocity": 0.8976377952755905,
                    "duration": 0.05416666666673109
                },
                {
                    "name": "A3",
                    "midi": 57,
                    "time": 359.7041666666766,
                    "velocity": 0.7716535433070866,
                    "duration": 0.07708333333340533
                },
                {
                    "name": "A5",
                    "midi": 81,
                    "time": 359.7104166666766,
                    "velocity": 0.8818897637795275,
                    "duration": 0.056250000000034106
                },
                {
                    "name": "A4",
                    "midi": 69,
                    "time": 360.2291666666767,
                    "velocity": 0.8110236220472441,
                    "duration": 0.0708333333333826
                },
                {
                    "name": "A5",
                    "midi": 81,
                    "time": 360.2291666666767,
                    "velocity": 0.8110236220472441,
                    "duration": 0.0791666666667652
                },
                {
                    "name": "A3",
                    "midi": 57,
                    "time": 360.2395833333434,
                    "velocity": 0.8582677165354331,
                    "duration": 0.06666666666671972
                },
                {
                    "name": "A2",
                    "midi": 45,
                    "time": 360.24166666667674,
                    "velocity": 0.8031496062992126,
                    "duration": 0.16458333333343944
                },
                {
                    "name": "A4",
                    "midi": 69,
                    "time": 360.3416666666768,
                    "velocity": 0.8110236220472441,
                    "duration": 0.054166666666674246
                },
                {
                    "name": "A3",
                    "midi": 57,
                    "time": 360.3416666666768,
                    "velocity": 0.8818897637795275,
                    "duration": 0.0708333333333826
                },
                {
                    "name": "A5",
                    "midi": 81,
                    "time": 360.35000000001014,
                    "velocity": 0.7952755905511811,
                    "duration": 0.07291666666674246
                },
                {
                    "name": "A3",
                    "midi": 57,
                    "time": 360.7645833333436,
                    "velocity": 0.7165354330708661,
                    "duration": 0.3666666666666174
                },
                {
                    "name": "C#7",
                    "midi": 97,
                    "time": 360.93750000001023,
                    "velocity": 0.5669291338582677,
                    "duration": 0.15833333333330302
                },
                {
                    "name": "D7",
                    "midi": 98,
                    "time": 361.0666666666769,
                    "velocity": 0.6929133858267716,
                    "duration": 0.15208333333333712
                },
                {
                    "name": "A5",
                    "midi": 81,
                    "time": 361.0791666666769,
                    "velocity": 0.7165354330708661,
                    "duration": 0.38125000000002274
                },
                {
                    "name": "A4",
                    "midi": 69,
                    "time": 361.0916666666769,
                    "velocity": 0.7165354330708661,
                    "duration": 0.08125000000001137
                },
                {
                    "name": "D#7",
                    "midi": 99,
                    "time": 361.1916666666769,
                    "velocity": 0.889763779527559,
                    "duration": 0.11041666666665151
                },
                {
                    "name": "E7",
                    "midi": 100,
                    "time": 361.2979166666769,
                    "velocity": 0.8110236220472441,
                    "duration": 0.1333333333333826
                },
                {
                    "name": "F7",
                    "midi": 101,
                    "time": 361.3916666666769,
                    "velocity": 0.7795275590551181,
                    "duration": 0.12291666666669698
                },
                {
                    "name": "F6",
                    "midi": 89,
                    "time": 361.40208333334357,
                    "velocity": 0.8031496062992126,
                    "duration": 0.12291666666669698
                },
                {
                    "name": "C6",
                    "midi": 84,
                    "time": 361.40416666667693,
                    "velocity": 0.8188976377952756,
                    "duration": 0.0687499999999659
                },
                {
                    "name": "D#6",
                    "midi": 87,
                    "time": 361.4062500000103,
                    "velocity": 0.8110236220472441,
                    "duration": 0.0854166666666174
                },
                {
                    "name": "F#7",
                    "midi": 102,
                    "time": 361.4812500000102,
                    "velocity": 0.8976377952755905,
                    "duration": 0.11458333333337123
                },
                {
                    "name": "G7",
                    "midi": 103,
                    "time": 361.58750000001027,
                    "velocity": 0.7952755905511811,
                    "duration": 0.11041666666665151
                },
                {
                    "name": "G#7",
                    "midi": 104,
                    "time": 361.67291666667694,
                    "velocity": 0.905511811023622,
                    "duration": 0.15625
                },
                {
                    "name": "A6",
                    "midi": 93,
                    "time": 361.72708333334356,
                    "velocity": 0.8818897637795275,
                    "duration": 0.06666666666671972
                },
                {
                    "name": "D#6",
                    "midi": 87,
                    "time": 361.7312500000102,
                    "velocity": 0.889763779527559,
                    "duration": 0.8270833333334622
                },
                {
                    "name": "C#6",
                    "midi": 85,
                    "time": 361.7333333333436,
                    "velocity": 0.7952755905511811,
                    "duration": 0.837500000000091
                },
                {
                    "name": "G5",
                    "midi": 79,
                    "time": 361.7395833333436,
                    "velocity": 0.7244094488188977,
                    "duration": 0.06666666666666288
                },
                {
                    "name": "A#5",
                    "midi": 82,
                    "time": 361.7395833333436,
                    "velocity": 0.7401574803149606,
                    "duration": 0.15625
                },
                {
                    "name": "A7",
                    "midi": 105,
                    "time": 361.7895833333436,
                    "velocity": 0.84251968503937,
                    "duration": 0.18333333333328028
                },
                {
                    "name": "G#7",
                    "midi": 104,
                    "time": 361.9208333333436,
                    "velocity": 0.8346456692913385,
                    "duration": 0.11250000000001137
                },
                {
                    "name": "G7",
                    "midi": 103,
                    "time": 362.02708333334357,
                    "velocity": 0.7086614173228346,
                    "duration": 0.10000000000002274
                },
                {
                    "name": "F#7",
                    "midi": 102,
                    "time": 362.1270833333436,
                    "velocity": 0.8267716535433071,
                    "duration": 0.10000000000002274
                },
                {
                    "name": "F7",
                    "midi": 101,
                    "time": 362.22291666667695,
                    "velocity": 0.7007874015748031,
                    "duration": 0.10000000000002274
                },
                {
                    "name": "A5",
                    "midi": 81,
                    "time": 362.2583333333436,
                    "velocity": 0.8110236220472441,
                    "duration": 0.0708333333333826
                },
                {
                    "name": "E7",
                    "midi": 100,
                    "time": 362.3083333333436,
                    "velocity": 0.7559055118110236,
                    "duration": 0.12083333333339397
                },
                {
                    "name": "A5",
                    "midi": 81,
                    "time": 362.3812500000103,
                    "velocity": 0.7086614173228346,
                    "duration": 0.07291666666668561
                },
                {
                    "name": "D#7",
                    "midi": 99,
                    "time": 362.41875000001033,
                    "velocity": 0.7637795275590551,
                    "duration": 0.08125000000001137
                },
                {
                    "name": "D7",
                    "midi": 98,
                    "time": 362.4937500000103,
                    "velocity": 0.6062992125984252,
                    "duration": 0.1020833333333826
                },
                {
                    "name": "C#7",
                    "midi": 97,
                    "time": 362.59375000001035,
                    "velocity": 0.7795275590551181,
                    "duration": 0.10833333333334849
                },
                {
                    "name": "C7",
                    "midi": 96,
                    "time": 362.70625000001036,
                    "velocity": 0.7244094488188977,
                    "duration": 0.10000000000002274
                },
                {
                    "name": "A4",
                    "midi": 69,
                    "time": 362.7708333333437,
                    "velocity": 0.5590551181102362,
                    "duration": 0.09791666666666288
                },
                {
                    "name": "B6",
                    "midi": 95,
                    "time": 362.80833333334374,
                    "velocity": 0.6614173228346457,
                    "duration": 0.1416666666666515
                },
                {
                    "name": "A#6",
                    "midi": 94,
                    "time": 362.91666666667703,
                    "velocity": 0.7244094488188977,
                    "duration": 0.11041666666670835
                },
                {
                    "name": "A6",
                    "midi": 93,
                    "time": 363.0312500000104,
                    "velocity": 0.6062992125984252,
                    "duration": 0.10624999999998863
                },
                {
                    "name": "A4",
                    "midi": 69,
                    "time": 363.0875000000104,
                    "velocity": 0.7874015748031497,
                    "duration": 0.3395833333333371
                },
                {
                    "name": "G#6",
                    "midi": 92,
                    "time": 363.13541666667703,
                    "velocity": 0.7165354330708661,
                    "duration": 0.125
                },
                {
                    "name": "G6",
                    "midi": 91,
                    "time": 363.2625000000104,
                    "velocity": 0.6377952755905512,
                    "duration": 0.10208333333332575
                },
                {
                    "name": "F#6",
                    "midi": 90,
                    "time": 363.3645833333437,
                    "velocity": 0.7637795275590551,
                    "duration": 0.1333333333333826
                },
                {
                    "name": "F5",
                    "midi": 77,
                    "time": 363.38125000001037,
                    "velocity": 0.8031496062992126,
                    "duration": 0.11458333333337123
                },
                {
                    "name": "C5",
                    "midi": 72,
                    "time": 363.3833333333437,
                    "velocity": 0.8110236220472441,
                    "duration": 0.09375
                },
                {
                    "name": "D#5",
                    "midi": 75,
                    "time": 363.3833333333437,
                    "velocity": 0.8267716535433071,
                    "duration": 0.12291666666669698
                },
                {
                    "name": "F6",
                    "midi": 89,
                    "time": 363.50208333334376,
                    "velocity": 0.6614173228346457,
                    "duration": 0.11041666666665151
                },
                {
                    "name": "E6",
                    "midi": 88,
                    "time": 363.6250000000104,
                    "velocity": 0.5748031496062992,
                    "duration": 0.11666666666673109
                },
                {
                    "name": "D#6",
                    "midi": 87,
                    "time": 363.72083333334376,
                    "velocity": 0.7480314960629921,
                    "duration": 0.10416666666674246
                },
                {
                    "name": "A5",
                    "midi": 81,
                    "time": 363.7291666666771,
                    "velocity": 0.8110236220472441,
                    "duration": 0.08958333333339397
                },
                {
                    "name": "C5",
                    "midi": 72,
                    "time": 363.73125000001045,
                    "velocity": 0.7637795275590551,
                    "duration": 0.8687499999999773
                },
                {
                    "name": "F#4",
                    "midi": 66,
                    "time": 363.7333333333438,
                    "velocity": 0.7637795275590551,
                    "duration": 0.15833333333335986
                },
                {
                    "name": "D5",
                    "midi": 74,
                    "time": 363.73750000001047,
                    "velocity": 0.7716535433070866,
                    "duration": 0.847916666666606
                },
                {
                    "name": "D6",
                    "midi": 86,
                    "time": 363.8354166666772,
                    "velocity": 0.6141732283464567,
                    "duration": 0.10624999999998863
                },
                {
                    "name": "C#6",
                    "midi": 85,
                    "time": 363.9375000000105,
                    "velocity": 0.7165354330708661,
                    "duration": 0.11458333333331439
                },
                {
                    "name": "C6",
                    "midi": 84,
                    "time": 364.0562500000105,
                    "velocity": 0.6141732283464567,
                    "duration": 0.11458333333331439
                },
                {
                    "name": "B5",
                    "midi": 83,
                    "time": 364.17500000001047,
                    "velocity": 0.5826771653543307,
                    "duration": 0.12916666666666288
                },
                {
                    "name": "A4",
                    "midi": 69,
                    "time": 364.2229166666771,
                    "velocity": 0.7244094488188977,
                    "duration": 0.07499999999998863
                },
                {
                    "name": "A#5",
                    "midi": 82,
                    "time": 364.27291666667713,
                    "velocity": 0.6850393700787402,
                    "duration": 0.10624999999998863
                },
                {
                    "name": "A4",
                    "midi": 69,
                    "time": 364.3520833333438,
                    "velocity": 0.6062992125984252,
                    "duration": 0.052083333333314386
                },
                {
                    "name": "A5",
                    "midi": 81,
                    "time": 364.3833333333438,
                    "velocity": 0.5905511811023622,
                    "duration": 0.10416666666662877
                },
                {
                    "name": "G#5",
                    "midi": 80,
                    "time": 364.48333333334375,
                    "velocity": 0.6929133858267716,
                    "duration": 0.11250000000001137
                },
                {
                    "name": "G5",
                    "midi": 79,
                    "time": 364.60625000001045,
                    "velocity": 0.6062992125984252,
                    "duration": 0.09375
                },
                {
                    "name": "F#5",
                    "midi": 78,
                    "time": 364.6958333333438,
                    "velocity": 0.7322834645669292,
                    "duration": 0.11249999999995453
                },
                {
                    "name": "A3",
                    "midi": 57,
                    "time": 364.7354166666771,
                    "velocity": 0.5984251968503937,
                    "duration": 0.6229166666666401
                },
                {
                    "name": "F5",
                    "midi": 77,
                    "time": 364.81458333334376,
                    "velocity": 0.5905511811023622,
                    "duration": 0.10625000000004547
                },
                {
                    "name": "E5",
                    "midi": 76,
                    "time": 364.91875000001045,
                    "velocity": 0.5511811023622047,
                    "duration": 0.12916666666666288
                },
                {
                    "name": "D#5",
                    "midi": 75,
                    "time": 365.02291666667713,
                    "velocity": 0.6692913385826772,
                    "duration": 0.10624999999998863
                },
                {
                    "name": "D4",
                    "midi": 62,
                    "time": 365.04375000001045,
                    "velocity": 0.8346456692913385,
                    "duration": 0.345833333333303
                },
                {
                    "name": "D5",
                    "midi": 74,
                    "time": 365.1416666666771,
                    "velocity": 0.5039370078740157,
                    "duration": 0.11041666666665151
                },
                {
                    "name": "C#5",
                    "midi": 73,
                    "time": 365.2479166666771,
                    "velocity": 0.6692913385826772,
                    "duration": 0.12083333333333712
                },
                {
                    "name": "A#4",
                    "midi": 70,
                    "time": 365.3625000000104,
                    "velocity": 0.8346456692913385,
                    "duration": 0.08958333333333712
                },
                {
                    "name": "G#4",
                    "midi": 68,
                    "time": 365.3666666666771,
                    "velocity": 0.7086614173228346,
                    "duration": 0.06041666666669698
                },
                {
                    "name": "F4",
                    "midi": 65,
                    "time": 365.3729166666771,
                    "velocity": 0.6377952755905512,
                    "duration": 0.052083333333314386
                },
                {
                    "name": "C5",
                    "midi": 72,
                    "time": 365.3729166666771,
                    "velocity": 0.5826771653543307,
                    "duration": 0.10833333333329165
                },
                {
                    "name": "B4",
                    "midi": 71,
                    "time": 365.48541666667705,
                    "velocity": 0.5354330708661418,
                    "duration": 0.12708333333330302
                },
                {
                    "name": "A#4",
                    "midi": 70,
                    "time": 365.5958333333437,
                    "velocity": 0.6220472440944882,
                    "duration": 0.0999999999999659
                },
                {
                    "name": "A4",
                    "midi": 69,
                    "time": 365.69791666667703,
                    "velocity": 0.6299212598425197,
                    "duration": 0.1187500000000341
                },
                {
                    "name": "G4",
                    "midi": 67,
                    "time": 365.70416666667705,
                    "velocity": 0.7244094488188977,
                    "duration": 0.9812500000000455
                },
                {
                    "name": "F4",
                    "midi": 65,
                    "time": 365.7104166666771,
                    "velocity": 0.7637795275590551,
                    "duration": 0.9645833333333371
                },
                {
                    "name": "B3",
                    "midi": 59,
                    "time": 365.71250000001044,
                    "velocity": 0.6850393700787402,
                    "duration": 0.26249999999998863
                },
                {
                    "name": "D4",
                    "midi": 62,
                    "time": 365.7145833333438,
                    "velocity": 0.6929133858267716,
                    "duration": 0.9687499999999432
                },
                {
                    "name": "G#4",
                    "midi": 68,
                    "time": 365.8125000000104,
                    "velocity": 0.6614173228346457,
                    "duration": 0.125
                },
                {
                    "name": "F#4",
                    "midi": 66,
                    "time": 366.04583333334375,
                    "velocity": 0.6850393700787402,
                    "duration": 0.11666666666667425
                },
                {
                    "name": "A3",
                    "midi": 57,
                    "time": 366.18333333334374,
                    "velocity": 0.6456692913385826,
                    "duration": 0.08125000000001137
                },
                {
                    "name": "E4",
                    "midi": 64,
                    "time": 366.30833333334374,
                    "velocity": 0.33070866141732286,
                    "duration": 0.10624999999998863
                },
                {
                    "name": "A3",
                    "midi": 57,
                    "time": 366.3375000000104,
                    "velocity": 0.5748031496062992,
                    "duration": 0.06458333333335986
                },
                {
                    "name": "D#4",
                    "midi": 63,
                    "time": 366.39166666667705,
                    "velocity": 0.6220472440944882,
                    "duration": 0.10000000000002274
                },
                {
                    "name": "C#4",
                    "midi": 61,
                    "time": 366.6250000000104,
                    "velocity": 0.5511811023622047,
                    "duration": 0.10000000000002274
                },
                {
                    "name": "A2",
                    "midi": 45,
                    "time": 366.6979166666771,
                    "velocity": 0.6850393700787402,
                    "duration": 0.6375000000000455
                },
                {
                    "name": "C4",
                    "midi": 60,
                    "time": 366.73125000001045,
                    "velocity": 0.5354330708661418,
                    "duration": 0.12083333333333712
                },
                {
                    "name": "B3",
                    "midi": 59,
                    "time": 366.85625000001045,
                    "velocity": 0.4566929133858268,
                    "duration": 0.11666666666667425
                },
                {
                    "name": "A#3",
                    "midi": 58,
                    "time": 366.9541666666771,
                    "velocity": 0.5275590551181102,
                    "duration": 0.1020833333333826
                },
                {
                    "name": "G3",
                    "midi": 55,
                    "time": 367.04166666667714,
                    "velocity": 0.6535433070866141,
                    "duration": 0.36875000000009095
                },
                {
                    "name": "A3",
                    "midi": 57,
                    "time": 367.06041666667716,
                    "velocity": 0.47244094488188976,
                    "duration": 0.11041666666665151
                },
                {
                    "name": "A3",
                    "midi": 57,
                    "time": 367.1708333333438,
                    "velocity": 0.48031496062992124,
                    "duration": 0.10208333333332575
                },
                {
                    "name": "G#3",
                    "midi": 56,
                    "time": 367.1708333333438,
                    "velocity": 0.5669291338582677,
                    "duration": 0.13541666666668561
                },
                {
                    "name": "D#4",
                    "midi": 63,
                    "time": 367.35416666667714,
                    "velocity": 0.7480314960629921,
                    "duration": 0.08541666666678793
                },
                {
                    "name": "A#3",
                    "midi": 58,
                    "time": 367.3562500000105,
                    "velocity": 0.5905511811023622,
                    "duration": 0.07291666666674246
                },
                {
                    "name": "C#4",
                    "midi": 61,
                    "time": 367.3625000000105,
                    "velocity": 0.6850393700787402,
                    "duration": 0.0791666666667652
                },
                {
                    "name": "F#3",
                    "midi": 54,
                    "time": 367.4083333333439,
                    "velocity": 0.6299212598425197,
                    "duration": 0.1104166666667652
                },
                {
                    "name": "F3",
                    "midi": 53,
                    "time": 367.5291666666773,
                    "velocity": 0.48031496062992124,
                    "duration": 0.11458333333331439
                },
                {
                    "name": "E3",
                    "midi": 52,
                    "time": 367.65000000001066,
                    "velocity": 0.4645669291338583,
                    "duration": 0.1187500000000341
                },
                {
                    "name": "C4",
                    "midi": 60,
                    "time": 367.739583333344,
                    "velocity": 0.5511811023622047,
                    "duration": 0.40000000000009095
                },
                {
                    "name": "A3",
                    "midi": 57,
                    "time": 367.74166666667736,
                    "velocity": 0.28346456692913385,
                    "duration": 0.18333333333333712
                },
                {
                    "name": "D#3",
                    "midi": 51,
                    "time": 367.745833333344,
                    "velocity": 0.5984251968503937,
                    "duration": 0.11458333333331439
                },
                {
                    "name": "A#3",
                    "midi": 58,
                    "time": 367.758333333344,
                    "velocity": 0.5984251968503937,
                    "duration": 0.40208333333339397
                },
                {
                    "name": "G3",
                    "midi": 55,
                    "time": 367.76666666667734,
                    "velocity": 0.2992125984251969,
                    "duration": 0.40000000000009095
                },
                {
                    "name": "E3",
                    "midi": 52,
                    "time": 367.7812500000107,
                    "velocity": 0.2755905511811024,
                    "duration": 0.3833333333333826
                },
                {
                    "name": "D3",
                    "midi": 50,
                    "time": 367.86875000001066,
                    "velocity": 0.5275590551181102,
                    "duration": 0.12500000000005684
                },
                {
                    "name": "C#3",
                    "midi": 49,
                    "time": 367.9958333333441,
                    "velocity": 0.5590551181102362,
                    "duration": 0.13749999999998863
                },
                {
                    "name": "C3",
                    "midi": 48,
                    "time": 368.13750000001073,
                    "velocity": 0.4645669291338583,
                    "duration": 0.12500000000005684
                },
                {
                    "name": "A2",
                    "midi": 45,
                    "time": 368.2312500000108,
                    "velocity": 0.4094488188976378,
                    "duration": 0.08541666666667425
                },
                {
                    "name": "B2",
                    "midi": 47,
                    "time": 368.2583333333441,
                    "velocity": 0.49606299212598426,
                    "duration": 0.12291666666669698
                },
                {
                    "name": "A#2",
                    "midi": 46,
                    "time": 368.35833333334415,
                    "velocity": 0.5433070866141733,
                    "duration": 0.11874999999997726
                },
                {
                    "name": "A2",
                    "midi": 45,
                    "time": 368.4166666666775,
                    "velocity": 0.36220472440944884,
                    "duration": 0.18124999999997726
                },
                {
                    "name": "C3",
                    "midi": 48,
                    "time": 368.4250000000108,
                    "velocity": 0.7401574803149606,
                    "duration": 0.7166666666666401
                },
                {
                    "name": "G#2",
                    "midi": 44,
                    "time": 368.61041666667745,
                    "velocity": 0.5433070866141733,
                    "duration": 0.10624999999998863
                },
                {
                    "name": "G2",
                    "midi": 43,
                    "time": 368.7395833333441,
                    "velocity": 0.49606299212598426,
                    "duration": 0.11250000000001137
                },
                {
                    "name": "A1",
                    "midi": 33,
                    "time": 368.8062500000108,
                    "velocity": 0.6614173228346457,
                    "duration": 1.1958333333333826
                },
                {
                    "name": "F#2",
                    "midi": 42,
                    "time": 368.85000000001077,
                    "velocity": 0.5590551181102362,
                    "duration": 0.11458333333337123
                },
                {
                    "name": "F2",
                    "midi": 41,
                    "time": 368.98541666667745,
                    "velocity": 0.4330708661417323,
                    "duration": 0.12916666666666288
                },
                {
                    "name": "E2",
                    "midi": 40,
                    "time": 369.1166666666775,
                    "velocity": 0.3858267716535433,
                    "duration": 0.10833333333334849
                },
                {
                    "name": "G#3",
                    "midi": 56,
                    "time": 369.2104166666775,
                    "velocity": 0.7401574803149606,
                    "duration": 0.6437500000000114
                },
                {
                    "name": "F#3",
                    "midi": 54,
                    "time": 369.22291666667746,
                    "velocity": 0.7637795275590551,
                    "duration": 0.6708333333333485
                },
                {
                    "name": "C3",
                    "midi": 48,
                    "time": 369.2250000000108,
                    "velocity": 0.47244094488188976,
                    "duration": 0.5770833333332916
                },
                {
                    "name": "D#2",
                    "midi": 39,
                    "time": 369.23333333334415,
                    "velocity": 0.33070866141732286,
                    "duration": 0.10624999999998863
                },
                {
                    "name": "D2",
                    "midi": 38,
                    "time": 369.37083333334414,
                    "velocity": 0.28346456692913385,
                    "duration": 0.11250000000001137
                },
                {
                    "name": "C#2",
                    "midi": 37,
                    "time": 369.4979166666775,
                    "velocity": 0.47244094488188976,
                    "duration": 0.13541666666668561
                },
                {
                    "name": "A2",
                    "midi": 45,
                    "time": 369.65000000001083,
                    "velocity": 0.4330708661417323,
                    "duration": 0.2666666666666515
                },
                {
                    "name": "C2",
                    "midi": 36,
                    "time": 369.6791666666775,
                    "velocity": 0.18110236220472442,
                    "duration": 0.125
                },
                {
                    "name": "F3",
                    "midi": 53,
                    "time": 369.96458333334414,
                    "velocity": 0.4645669291338583,
                    "duration": 1.5749999999999318
                },
                {
                    "name": "A2",
                    "midi": 45,
                    "time": 369.9687500000108,
                    "velocity": 0.31496062992125984,
                    "duration": 0.9812499999999886
                },
                {
                    "name": "D#3",
                    "midi": 51,
                    "time": 369.9750000000108,
                    "velocity": 0.5039370078740157,
                    "duration": 1.6520833333332803
                },
                {
                    "name": "B1",
                    "midi": 35,
                    "time": 369.9750000000108,
                    "velocity": 0.4251968503937008,
                    "duration": 0.37499999999994316
                },
                {
                    "name": "C2",
                    "midi": 36,
                    "time": 370.2291666666775,
                    "velocity": 0.49606299212598426,
                    "duration": 0.1791666666666174
                },
                {
                    "name": "C#2",
                    "midi": 37,
                    "time": 370.3770833333441,
                    "velocity": 0.5511811023622047,
                    "duration": 0.11250000000001137
                },
                {
                    "name": "D2",
                    "midi": 38,
                    "time": 370.4833333333441,
                    "velocity": 0.47244094488188976,
                    "duration": 0.13541666666668561
                },
                {
                    "name": "D#2",
                    "midi": 39,
                    "time": 370.6020833333441,
                    "velocity": 0.6456692913385826,
                    "duration": 0.1312499999999659
                },
                {
                    "name": "E2",
                    "midi": 40,
                    "time": 370.7333333333441,
                    "velocity": 0.5748031496062992,
                    "duration": 0.13750000000004547
                },
                {
                    "name": "F2",
                    "midi": 41,
                    "time": 370.86041666667745,
                    "velocity": 0.5354330708661418,
                    "duration": 0.15625
                },
                {
                    "name": "F#2",
                    "midi": 42,
                    "time": 370.9875000000108,
                    "velocity": 0.5826771653543307,
                    "duration": 0.1333333333332689
                },
                {
                    "name": "G2",
                    "midi": 43,
                    "time": 371.1187500000107,
                    "velocity": 0.44881889763779526,
                    "duration": 0.1729166666666515
                },
                {
                    "name": "G#2",
                    "midi": 44,
                    "time": 371.27083333334406,
                    "velocity": 0.6062992125984252,
                    "duration": 0.15208333333333712
                },
                {
                    "name": "A2",
                    "midi": 45,
                    "time": 371.4312500000107,
                    "velocity": 0.44881889763779526,
                    "duration": 0.16250000000002274
                },
                {
                    "name": "A#2",
                    "midi": 46,
                    "time": 371.58125000001075,
                    "velocity": 0.5275590551181102,
                    "duration": 0.16250000000002274
                },
                {
                    "name": "B2",
                    "midi": 47,
                    "time": 371.76875000001075,
                    "velocity": 0.3858267716535433,
                    "duration": 0.12916666666671972
                },
                {
                    "name": "C3",
                    "midi": 48,
                    "time": 371.92083333334415,
                    "velocity": 0.3858267716535433,
                    "duration": 0.18333333333333712
                },
                {
                    "name": "C#3",
                    "midi": 49,
                    "time": 372.09791666667746,
                    "velocity": 0.47244094488188976,
                    "duration": 0.17500000000001137
                },
                {
                    "name": "F#3",
                    "midi": 54,
                    "time": 372.28541666667746,
                    "velocity": 0.5905511811023622,
                    "duration": 0.34583333333335986
                },
                {
                    "name": "D3",
                    "midi": 50,
                    "time": 372.29583333334415,
                    "velocity": 0.31496062992125984,
                    "duration": 0.2020833333333485
                },
                {
                    "name": "D#3",
                    "midi": 51,
                    "time": 372.4854166666775,
                    "velocity": 0.47244094488188976,
                    "duration": 0.26041666666662877
                },
                {
                    "name": "D4",
                    "midi": 62,
                    "time": 372.59375000001086,
                    "velocity": 0.5669291338582677,
                    "duration": 0.4854166666666515
                },
                {
                    "name": "B3",
                    "midi": 59,
                    "time": 372.6104166666775,
                    "velocity": 0.44881889763779526,
                    "duration": 0.24791666666664014
                },
                {
                    "name": "E3",
                    "midi": 52,
                    "time": 372.7625000000108,
                    "velocity": 0.4645669291338583,
                    "duration": 0.09791666666671972
                },
                {
                    "name": "C#4",
                    "midi": 61,
                    "time": 373.0479166666775,
                    "velocity": 0.6692913385826772,
                    "duration": 0.4791666666666856
                },
                {
                    "name": "D2",
                    "midi": 38,
                    "time": 373.0479166666775,
                    "velocity": 0.3858267716535433,
                    "duration": 0.7437499999999773
                },
                {
                    "name": "A#3",
                    "midi": 58,
                    "time": 373.0583333333442,
                    "velocity": 0.49606299212598426,
                    "duration": 0.4541666666666515
                },
                {
                    "name": "F3",
                    "midi": 53,
                    "time": 373.0708333333442,
                    "velocity": 0.33070866141732286,
                    "duration": 0.4104166666666629
                },
                {
                    "name": "A3",
                    "midi": 57,
                    "time": 373.33541666667753,
                    "velocity": 0.3779527559055118,
                    "duration": 0.32083333333332575
                },
                {
                    "name": "A2",
                    "midi": 45,
                    "time": 373.5083333333442,
                    "velocity": 0.44881889763779526,
                    "duration": 0.2041666666666515
                },
                {
                    "name": "A4",
                    "midi": 69,
                    "time": 373.57291666667754,
                    "velocity": 0.4881889763779528,
                    "duration": 0.22291666666660603
                },
                {
                    "name": "A3",
                    "midi": 57,
                    "time": 373.76250000001085,
                    "velocity": 0.49606299212598426,
                    "duration": 0.20208333333329165
                },
                {
                    "name": "F#3",
                    "midi": 54,
                    "time": 373.87708333334416,
                    "velocity": 0.5984251968503937,
                    "duration": 0.1479166666666174
                },
                {
                    "name": "D3",
                    "midi": 50,
                    "time": 373.9041666666775,
                    "velocity": 0.28346456692913385,
                    "duration": 0.07291666666662877
                },
                {
                    "name": "A4",
                    "midi": 69,
                    "time": 373.93958333334416,
                    "velocity": 0.4566929133858268,
                    "duration": 0.17499999999995453
                },
                {
                    "name": "B3",
                    "midi": 59,
                    "time": 374.05833333334414,
                    "velocity": 0.5826771653543307,
                    "duration": 0.0854166666666174
                },
                {
                    "name": "D4",
                    "midi": 62,
                    "time": 374.0708333333441,
                    "velocity": 0.6692913385826772,
                    "duration": 0.2416666666666174
                },
                {
                    "name": "A3",
                    "midi": 57,
                    "time": 374.09166666667744,
                    "velocity": 0.3937007874015748,
                    "duration": 0.13958333333329165
                },
                {
                    "name": "A1",
                    "midi": 33,
                    "time": 374.2645833333441,
                    "velocity": 0.44881889763779526,
                    "duration": 0.39999999999997726
                },
                {
                    "name": "C#4",
                    "midi": 61,
                    "time": 374.29375000001073,
                    "velocity": 0.7874015748031497,
                    "duration": 0.34166666666664014
                },
                {
                    "name": "A#3",
                    "midi": 58,
                    "time": 374.32500000001073,
                    "velocity": 0.5354330708661418,
                    "duration": 0.2999999999999545
                },
                {
                    "name": "F3",
                    "midi": 53,
                    "time": 374.3291666666774,
                    "velocity": 0.4330708661417323,
                    "duration": 0.27499999999997726
                },
                {
                    "name": "A3",
                    "midi": 57,
                    "time": 374.4229166666774,
                    "velocity": 0.36220472440944884,
                    "duration": 0.2645833333333485
                },
                {
                    "name": "A4",
                    "midi": 69,
                    "time": 374.6125000000107,
                    "velocity": 0.49606299212598426,
                    "duration": 0.21666666666675383
                },
                {
                    "name": "A2",
                    "midi": 45,
                    "time": 374.63750000001073,
                    "velocity": 0.6614173228346457,
                    "duration": 0.09375
                },
                {
                    "name": "A3",
                    "midi": 57,
                    "time": 374.7958333333441,
                    "velocity": 0.4330708661417323,
                    "duration": 0.24166666666667425
                },
                {
                    "name": "D3",
                    "midi": 50,
                    "time": 375.0083333333441,
                    "velocity": 0.7244094488188977,
                    "duration": 0.07916666666665151
                },
                {
                    "name": "F#3",
                    "midi": 54,
                    "time": 375.0083333333441,
                    "velocity": 0.7637795275590551,
                    "duration": 0.17708333333331439
                },
                {
                    "name": "A4",
                    "midi": 69,
                    "time": 375.01666666667745,
                    "velocity": 0.33858267716535434,
                    "duration": 0.19791666666668561
                },
                {
                    "name": "D4",
                    "midi": 62,
                    "time": 375.16041666667746,
                    "velocity": 0.8110236220472441,
                    "duration": 0.14791666666667425
                },
                {
                    "name": "B3",
                    "midi": 59,
                    "time": 375.17291666667745,
                    "velocity": 0.5511811023622047,
                    "duration": 0.039583333333325754
                },
                {
                    "name": "A3",
                    "midi": 57,
                    "time": 375.1958333333441,
                    "velocity": 0.3700787401574803,
                    "duration": 0.12083333333333712
                },
                {
                    "name": "A#3",
                    "midi": 58,
                    "time": 375.37291666667744,
                    "velocity": 0.7244094488188977,
                    "duration": 0.38333333333332575
                },
                {
                    "name": "E2",
                    "midi": 40,
                    "time": 375.3979166666774,
                    "velocity": 0.5118110236220472,
                    "duration": 0.3583333333333485
                },
                {
                    "name": "F#3",
                    "midi": 54,
                    "time": 375.41875000001073,
                    "velocity": 0.5826771653543307,
                    "duration": 0.6687500000000455
                },
                {
                    "name": "A3",
                    "midi": 57,
                    "time": 375.5770833333441,
                    "velocity": 0.4881889763779528,
                    "duration": 0.23124999999998863
                },
                {
                    "name": "A2",
                    "midi": 45,
                    "time": 375.71666666667744,
                    "velocity": 0.6771653543307087,
                    "duration": 0.09166666666664014
                },
                {
                    "name": "A4",
                    "midi": 69,
                    "time": 375.74791666667744,
                    "velocity": 0.5590551181102362,
                    "duration": 0.18958333333330302
                },
                {
                    "name": "A3",
                    "midi": 57,
                    "time": 375.92708333334406,
                    "velocity": 0.4566929133858268,
                    "duration": 0.2187500000001137
                },
                {
                    "name": "A#3",
                    "midi": 58,
                    "time": 376.0458333333441,
                    "velocity": 0.7165354330708661,
                    "duration": 0.043750000000045475
                },
                {
                    "name": "C#4",
                    "midi": 61,
                    "time": 376.05000000001075,
                    "velocity": 0.7559055118110236,
                    "duration": 0.05000000000006821
                },
                {
                    "name": "A4",
                    "midi": 69,
                    "time": 376.1312500000108,
                    "velocity": 0.4645669291338583,
                    "duration": 0.16250000000002274
                },
                {
                    "name": "A3",
                    "midi": 57,
                    "time": 376.2791666666775,
                    "velocity": 0.4015748031496063,
                    "duration": 0.09583333333335986
                },
                {
                    "name": "A1",
                    "midi": 33,
                    "time": 376.4208333333442,
                    "velocity": 0.29133858267716534,
                    "duration": 0.3625000000000682
                },
                {
                    "name": "C#4",
                    "midi": 61,
                    "time": 376.4458333333442,
                    "velocity": 0.7165354330708661,
                    "duration": 0.23125000000010232
                },
                {
                    "name": "A#3",
                    "midi": 58,
                    "time": 376.4520833333442,
                    "velocity": 0.6377952755905512,
                    "duration": 0.21666666666675383
                },
                {
                    "name": "F#3",
                    "midi": 54,
                    "time": 376.46041666667753,
                    "velocity": 0.6299212598425197,
                    "duration": 0.13541666666674246
                },
                {
                    "name": "A3",
                    "midi": 57,
                    "time": 376.6145833333443,
                    "velocity": 0.48031496062992124,
                    "duration": 0.21666666666669698
                },
                {
                    "name": "A2",
                    "midi": 45,
                    "time": 376.7895833333443,
                    "velocity": 0.6535433070866141,
                    "duration": 0.06875000000002274
                },
                {
                    "name": "A4",
                    "midi": 69,
                    "time": 376.79375000001096,
                    "velocity": 0.6220472440944882,
                    "duration": 0.18958333333335986
                },
                {
                    "name": "A3",
                    "midi": 57,
                    "time": 376.95000000001096,
                    "velocity": 0.5039370078740157,
                    "duration": 0.22083333333330302
                },
                {
                    "name": "G3",
                    "midi": 55,
                    "time": 377.13750000001096,
                    "velocity": 0.6850393700787402,
                    "duration": 0.0999999999999659
                },
                {
                    "name": "B3",
                    "midi": 59,
                    "time": 377.1541666666776,
                    "velocity": 0.6377952755905512,
                    "duration": 0.17083333333329165
                },
                {
                    "name": "A4",
                    "midi": 69,
                    "time": 377.1666666666776,
                    "velocity": 0.4251968503937008,
                    "duration": 0.1812500000000341
                },
                {
                    "name": "E4",
                    "midi": 64,
                    "time": 377.2937500000109,
                    "velocity": 0.6614173228346457,
                    "duration": 0.05208333333337123
                },
                {
                    "name": "G4",
                    "midi": 67,
                    "time": 377.3187500000109,
                    "velocity": 0.7007874015748031,
                    "duration": 0.06041666666675383
                },
                {
                    "name": "A3",
                    "midi": 57,
                    "time": 377.3312500000109,
                    "velocity": 0.3779527559055118,
                    "duration": 0.12083333333339397
                },
                {
                    "name": "C#2",
                    "midi": 37,
                    "time": 377.518750000011,
                    "velocity": 0.5905511811023622,
                    "duration": 0.39375000000001137
                },
                {
                    "name": "A3",
                    "midi": 57,
                    "time": 377.52916666667767,
                    "velocity": 0.44881889763779526,
                    "duration": 0.3854166666666856
                },
                {
                    "name": "A4",
                    "midi": 69,
                    "time": 377.531250000011,
                    "velocity": 0.6771653543307087,
                    "duration": 0.2937499999999318
                },
                {
                    "name": "C#4",
                    "midi": 61,
                    "time": 377.531250000011,
                    "velocity": 0.6771653543307087,
                    "duration": 0.2999999999999545
                },
                {
                    "name": "F#4",
                    "midi": 66,
                    "time": 377.55000000001104,
                    "velocity": 0.7874015748031497,
                    "duration": 0.29791666666659467
                },
                {
                    "name": "A4",
                    "midi": 69,
                    "time": 377.8583333333443,
                    "velocity": 0.5984251968503937,
                    "duration": 0.18541666666669698
                },
                {
                    "name": "C#3",
                    "midi": 49,
                    "time": 377.9020833333443,
                    "velocity": 0.7795275590551181,
                    "duration": 0.07500000000004547
                },
                {
                    "name": "A3",
                    "midi": 57,
                    "time": 378.037500000011,
                    "velocity": 0.4251968503937008,
                    "duration": 0.2333333333333485
                },
                {
                    "name": "G3",
                    "midi": 55,
                    "time": 378.21666666667767,
                    "velocity": 0.7795275590551181,
                    "duration": 0.06875000000002274
                },
                {
                    "name": "B3",
                    "midi": 59,
                    "time": 378.22708333334435,
                    "velocity": 0.8031496062992126,
                    "duration": 0.07499999999998863
                },
                {
                    "name": "A4",
                    "midi": 69,
                    "time": 378.24583333334436,
                    "velocity": 0.44881889763779526,
                    "duration": 0.1791666666666174
                },
                {
                    "name": "G4",
                    "midi": 67,
                    "time": 378.356250000011,
                    "velocity": 0.8346456692913385,
                    "duration": 0.13958333333329165
                },
                {
                    "name": "E4",
                    "midi": 64,
                    "time": 378.38541666667766,
                    "velocity": 0.4251968503937008,
                    "duration": 0.054166666666674246
                },
                {
                    "name": "A3",
                    "midi": 57,
                    "time": 378.41666666667766,
                    "velocity": 0.3779527559055118,
                    "duration": 0.12291666666669698
                },
                {
                    "name": "A1",
                    "midi": 33,
                    "time": 378.52916666667767,
                    "velocity": 0.5905511811023622,
                    "duration": 0.3645833333334281
                },
                {
                    "name": "D#4",
                    "midi": 63,
                    "time": 378.56458333334433,
                    "velocity": 0.8110236220472441,
                    "duration": 0.30625000000009095
                },
                {
                    "name": "B3",
                    "midi": 59,
                    "time": 378.58333333334434,
                    "velocity": 0.6692913385826772,
                    "duration": 0.2541666666667197
                },
                {
                    "name": "G3",
                    "midi": 55,
                    "time": 378.600000000011,
                    "velocity": 0.4094488188976378,
                    "duration": 0.23125000000004547
                },
                {
                    "name": "A3",
                    "midi": 57,
                    "time": 378.756250000011,
                    "velocity": 0.5826771653543307,
                    "duration": 0.20833333333342807
                },
                {
                    "name": "A2",
                    "midi": 45,
                    "time": 378.89166666667774,
                    "velocity": 0.7795275590551181,
                    "duration": 0.07708333333334849
                },
                {
                    "name": "A4",
                    "midi": 69,
                    "time": 378.9062500000111,
                    "velocity": 0.5354330708661418,
                    "duration": 0.19999999999998863
                },
                {
                    "name": "A3",
                    "midi": 57,
                    "time": 379.0833333333444,
                    "velocity": 0.44881889763779526,
                    "duration": 0.2270833333333826
                },
                {
                    "name": "E4",
                    "midi": 64,
                    "time": 379.2166666666777,
                    "velocity": 0.7952755905511811,
                    "duration": 0.09791666666671972
                },
                {
                    "name": "G3",
                    "midi": 55,
                    "time": 379.22291666667775,
                    "velocity": 0.6220472440944882,
                    "duration": 0.041666666666685614
                },
                {
                    "name": "C4",
                    "midi": 60,
                    "time": 379.23333333334443,
                    "velocity": 0.5590551181102362,
                    "duration": 0.03750000000002274
                },
                {
                    "name": "A4",
                    "midi": 69,
                    "time": 379.2875000000111,
                    "velocity": 0.5118110236220472,
                    "duration": 0.1624999999999659
                },
                {
                    "name": "B4",
                    "midi": 71,
                    "time": 379.36666666667776,
                    "velocity": 0.9133858267716536,
                    "duration": 0.08958333333333712
                },
                {
                    "name": "A3",
                    "midi": 57,
                    "time": 379.42916666667776,
                    "velocity": 0.3700787401574803,
                    "duration": 0.11250000000001137
                },
                {
                    "name": "D2",
                    "midi": 38,
                    "time": 379.58541666667776,
                    "velocity": 0.5590551181102362,
                    "duration": 0.3979166666667311
                },
                {
                    "name": "B4",
                    "midi": 71,
                    "time": 379.6000000000111,
                    "velocity": 0.7401574803149606,
                    "duration": 0.28750000000002274
                },
                {
                    "name": "F4",
                    "midi": 65,
                    "time": 379.6125000000111,
                    "velocity": 0.6299212598425197,
                    "duration": 0.2895833333333826
                },
                {
                    "name": "C#4",
                    "midi": 61,
                    "time": 379.6250000000111,
                    "velocity": 0.7952755905511811,
                    "duration": 0.2604166666666856
                },
                {
                    "name": "A3",
                    "midi": 57,
                    "time": 379.7479166666778,
                    "velocity": 0.5196850393700787,
                    "duration": 0.23125000000004547
                },
                {
                    "name": "A4",
                    "midi": 69,
                    "time": 379.9208333333445,
                    "velocity": 0.5826771653543307,
                    "duration": 0.20625000000001137
                },
                {
                    "name": "A2",
                    "midi": 45,
                    "time": 379.95625000001115,
                    "velocity": 0.7086614173228346,
                    "duration": 0.07499999999998863
                },
                {
                    "name": "A3",
                    "midi": 57,
                    "time": 380.0958333333445,
                    "velocity": 0.47244094488188976,
                    "duration": 0.23124999999998863
                },
                {
                    "name": "F4",
                    "midi": 65,
                    "time": 380.2916666666778,
                    "velocity": 0.7716535433070866,
                    "duration": 0.07708333333334849
                },
                {
                    "name": "C#4",
                    "midi": 61,
                    "time": 380.3083333333445,
                    "velocity": 0.6614173228346457,
                    "duration": 0.029166666666696983
                },
                {
                    "name": "A4",
                    "midi": 69,
                    "time": 380.3083333333445,
                    "velocity": 0.5118110236220472,
                    "duration": 0.16041666666671972
                },
                {
                    "name": "A3",
                    "midi": 57,
                    "time": 380.45416666667785,
                    "velocity": 0.36220472440944884,
                    "duration": 0.11250000000001137
                },
                {
                    "name": "A1",
                    "midi": 33,
                    "time": 380.6312500000112,
                    "velocity": 0.3858267716535433,
                    "duration": 0.3645833333334281
                },
                {
                    "name": "B4",
                    "midi": 71,
                    "time": 380.66875000001124,
                    "velocity": 0.7716535433070866,
                    "duration": 0.13125000000002274
                },
                {
                    "name": "F#4",
                    "midi": 66,
                    "time": 380.6854166666779,
                    "velocity": 0.6062992125984252,
                    "duration": 0.10416666666668561
                },
                {
                    "name": "D4",
                    "midi": 62,
                    "time": 380.6979166666779,
                    "velocity": 0.33070866141732286,
                    "duration": 0.05000000000001137
                },
                {
                    "name": "A3",
                    "midi": 57,
                    "time": 380.8645833333446,
                    "velocity": 0.47244094488188976,
                    "duration": 0.23750000000001137
                },
                {
                    "name": "A2",
                    "midi": 45,
                    "time": 381.0312500000113,
                    "velocity": 0.5590551181102362,
                    "duration": 0.0625
                },
                {
                    "name": "A4",
                    "midi": 69,
                    "time": 381.05833333334465,
                    "velocity": 0.5590551181102362,
                    "duration": 0.1791666666666174
                },
                {
                    "name": "A3",
                    "midi": 57,
                    "time": 381.21666666667795,
                    "velocity": 0.41732283464566927,
                    "duration": 0.31875000000002274
                },
                {
                    "name": "F#3",
                    "midi": 54,
                    "time": 381.3895833333446,
                    "velocity": 0.5196850393700787,
                    "duration": 0.07916666666670835
                },
                {
                    "name": "A4",
                    "midi": 69,
                    "time": 381.4312500000113,
                    "velocity": 0.4330708661417323,
                    "duration": 0.1750000000000682
                },
                {
                    "name": "D4",
                    "midi": 62,
                    "time": 381.55833333334465,
                    "velocity": 0.5984251968503937,
                    "duration": 0.041666666666685614
                },
                {
                    "name": "F#4",
                    "midi": 66,
                    "time": 381.56875000001133,
                    "velocity": 0.6692913385826772,
                    "duration": 0.07291666666668561
                },
                {
                    "name": "A3",
                    "midi": 57,
                    "time": 381.597916666678,
                    "velocity": 0.36220472440944884,
                    "duration": 0.1020833333333826
                },
                {
                    "name": "B1",
                    "midi": 35,
                    "time": 381.84166666667807,
                    "velocity": 0.5590551181102362,
                    "duration": 0.07916666666665151
                },
                {
                    "name": "G#4",
                    "midi": 68,
                    "time": 381.8562500000114,
                    "velocity": 0.6771653543307087,
                    "duration": 0.1708333333333485
                },
                {
                    "name": "B2",
                    "midi": 47,
                    "time": 381.88541666667805,
                    "velocity": 0.5511811023622047,
                    "duration": 0.08541666666667425
                },
                {
                    "name": "F4",
                    "midi": 65,
                    "time": 381.8895833333447,
                    "velocity": 0.6220472440944882,
                    "duration": 0.25208333333335986
                },
                {
                    "name": "A3",
                    "midi": 57,
                    "time": 381.9854166666781,
                    "velocity": 0.25984251968503935,
                    "duration": 0.2770833333333371
                },
                {
                    "name": "A4",
                    "midi": 69,
                    "time": 382.19583333334475,
                    "velocity": 0.49606299212598426,
                    "duration": 0.21249999999992042
                },
                {
                    "name": "C#4",
                    "midi": 61,
                    "time": 382.2750000000114,
                    "velocity": 0.8503937007874016,
                    "duration": 0.06041666666664014
                },
                {
                    "name": "A3",
                    "midi": 57,
                    "time": 382.37916666667803,
                    "velocity": 0.4094488188976378,
                    "duration": 0.435416666666697
                },
                {
                    "name": "A4",
                    "midi": 69,
                    "time": 382.62916666667803,
                    "velocity": 0.3858267716535433,
                    "duration": 0.2208333333334167
                },
                {
                    "name": "F#3",
                    "midi": 54,
                    "time": 382.6520833333447,
                    "velocity": 0.6535433070866141,
                    "duration": 0.08125000000001137
                },
                {
                    "name": "D4",
                    "midi": 62,
                    "time": 382.7750000000114,
                    "velocity": 0.5984251968503937,
                    "duration": 0.14166666666670835
                },
                {
                    "name": "F#4",
                    "midi": 66,
                    "time": 382.7875000000114,
                    "velocity": 0.8110236220472441,
                    "duration": 0.10625000000004547
                },
                {
                    "name": "A3",
                    "midi": 57,
                    "time": 382.8166666666781,
                    "velocity": 0.31496062992125984,
                    "duration": 0.12291666666669698
                },
                {
                    "name": "B1",
                    "midi": 35,
                    "time": 382.9375000000114,
                    "velocity": 0.6614173228346457,
                    "duration": 0.09375000000011369
                },
                {
                    "name": "D4",
                    "midi": 62,
                    "time": 382.97916666667817,
                    "velocity": 0.6929133858267716,
                    "duration": 0.20416666666670835
                },
                {
                    "name": "F4",
                    "midi": 65,
                    "time": 382.9854166666782,
                    "velocity": 0.7874015748031497,
                    "duration": 0.19583333333332575
                },
                {
                    "name": "B2",
                    "midi": 47,
                    "time": 382.9916666666782,
                    "velocity": 0.7401574803149606,
                    "duration": 0.08749999999997726
                },
                {
                    "name": "A3",
                    "midi": 57,
                    "time": 383.19583333334486,
                    "velocity": 0.5196850393700787,
                    "duration": 0.1624999999999659
                },
                {
                    "name": "C4",
                    "midi": 60,
                    "time": 383.31458333334484,
                    "velocity": 0.8346456692913385,
                    "duration": 0.10208333333332575
                },
                {
                    "name": "A4",
                    "midi": 69,
                    "time": 383.3395833333448,
                    "velocity": 0.48031496062992124,
                    "duration": 0.22083333333335986
                },
                {
                    "name": "A3",
                    "midi": 57,
                    "time": 383.5062500000115,
                    "velocity": 0.4645669291338583,
                    "duration": 0.27916666666664014
                },
                {
                    "name": "F#3",
                    "midi": 54,
                    "time": 383.6312500000115,
                    "velocity": 0.6220472440944882,
                    "duration": 0.09791666666666288
                },
                {
                    "name": "A4",
                    "midi": 69,
                    "time": 383.69791666667817,
                    "velocity": 0.4566929133858268,
                    "duration": 0.2604166666666856
                },
                {
                    "name": "D#4",
                    "midi": 63,
                    "time": 383.7875000000115,
                    "velocity": 0.7165354330708661,
                    "duration": 0.15416666666669698
                },
                {
                    "name": "F#4",
                    "midi": 66,
                    "time": 383.7937500000115,
                    "velocity": 0.6535433070866141,
                    "duration": 0.13541666666668561
                },
                {
                    "name": "A3",
                    "midi": 57,
                    "time": 383.8395833333449,
                    "velocity": 0.3543307086614173,
                    "duration": 0.11458333333331439
                },
                {
                    "name": "E2",
                    "midi": 40,
                    "time": 384.0354166666782,
                    "velocity": 0.5905511811023622,
                    "duration": 0.08333333333337123
                },
                {
                    "name": "F#4",
                    "midi": 66,
                    "time": 384.03750000001156,
                    "velocity": 0.7401574803149606,
                    "duration": 0.08958333333333712
                },
                {
                    "name": "D4",
                    "midi": 62,
                    "time": 384.05416666667827,
                    "velocity": 0.7165354330708661,
                    "duration": 0.08124999999995453
                },
                {
                    "name": "B3",
                    "midi": 59,
                    "time": 384.23541666667825,
                    "velocity": 0.6535433070866141,
                    "duration": 0.26666666666670835
                },
                {
                    "name": "B4",
                    "midi": 71,
                    "time": 384.42083333334494,
                    "velocity": 0.6456692913385826,
                    "duration": 0.24791666666664014
                },
                {
                    "name": "G3",
                    "midi": 55,
                    "time": 384.5000000000116,
                    "velocity": 0.6929133858267716,
                    "duration": 0.03125
                },
                {
                    "name": "B3",
                    "midi": 59,
                    "time": 384.5875000000116,
                    "velocity": 0.4251968503937008,
                    "duration": 0.23124999999998863
                },
                {
                    "name": "D4",
                    "midi": 62,
                    "time": 384.8062500000116,
                    "velocity": 0.6535433070866141,
                    "duration": 0.45208333333329165
                },
                {
                    "name": "E4",
                    "midi": 64,
                    "time": 384.8062500000116,
                    "velocity": 0.5590551181102362,
                    "duration": 0.4270833333333144
                },
                {
                    "name": "G3",
                    "midi": 55,
                    "time": 384.81041666667824,
                    "velocity": 0.4251968503937008,
                    "duration": 0.408333333333303
                },
                {
                    "name": "B3",
                    "midi": 59,
                    "time": 384.81875000001156,
                    "velocity": 0.4330708661417323,
                    "duration": 0.408333333333303
                },
                {
                    "name": "B4",
                    "midi": 71,
                    "time": 384.8270833333449,
                    "velocity": 0.44881889763779526,
                    "duration": 0.2354166666666515
                },
                {
                    "name": "B1",
                    "midi": 35,
                    "time": 385.14583333334485,
                    "velocity": 0.5984251968503937,
                    "duration": 0.05833333333333712
                },
                {
                    "name": "B3",
                    "midi": 59,
                    "time": 385.36250000001155,
                    "velocity": 0.5669291338582677,
                    "duration": 0.2041666666667652
                },
                {
                    "name": "E3",
                    "midi": 52,
                    "time": 385.5083333333449,
                    "velocity": 0.5748031496062992,
                    "duration": 0.05208333333337123
                },
                {
                    "name": "D3",
                    "midi": 50,
                    "time": 385.5104166666783,
                    "velocity": 0.5669291338582677,
                    "duration": 0.03750000000002274
                },
                {
                    "name": "B4",
                    "midi": 71,
                    "time": 385.5166666666783,
                    "velocity": 0.5511811023622047,
                    "duration": 0.21041666666667425
                },
                {
                    "name": "A#3",
                    "midi": 58,
                    "time": 385.51875000001166,
                    "velocity": 0.5590551181102362,
                    "duration": 0.3812499999999659
                },
                {
                    "name": "G#3",
                    "midi": 56,
                    "time": 385.539583333345,
                    "velocity": 0.5354330708661418,
                    "duration": 0.48541666666670835
                },
                {
                    "name": "B3",
                    "midi": 59,
                    "time": 385.69791666667834,
                    "velocity": 0.4251968503937008,
                    "duration": 0.20833333333331439
                },
                {
                    "name": "E3",
                    "midi": 52,
                    "time": 385.8729166666783,
                    "velocity": 0.6850393700787402,
                    "duration": 0.05208333333337123
                },
                {
                    "name": "D3",
                    "midi": 50,
                    "time": 385.87500000001165,
                    "velocity": 0.6692913385826772,
                    "duration": 0.03333333333335986
                },
                {
                    "name": "B4",
                    "midi": 71,
                    "time": 385.89583333334497,
                    "velocity": 0.5196850393700787,
                    "duration": 0.18125000000009095
                },
                {
                    "name": "B3",
                    "midi": 59,
                    "time": 385.98750000001166,
                    "velocity": 0.6614173228346457,
                    "duration": 0.18541666666675383
                },
                {
                    "name": "D4",
                    "midi": 62,
                    "time": 386.0750000000117,
                    "velocity": 0.16535433070866143,
                    "duration": 0.056250000000034106
                },
                {
                    "name": "E2",
                    "midi": 40,
                    "time": 386.18125000001174,
                    "velocity": 0.6614173228346457,
                    "duration": 0.05208333333342807
                },
                {
                    "name": "F#4",
                    "midi": 66,
                    "time": 386.1833333333451,
                    "velocity": 0.8346456692913385,
                    "duration": 0.0708333333333826
                },
                {
                    "name": "D4",
                    "midi": 62,
                    "time": 386.18541666667846,
                    "velocity": 0.6692913385826772,
                    "duration": 0.06875000000002274
                },
                {
                    "name": "B3",
                    "midi": 59,
                    "time": 386.3895833333452,
                    "velocity": 0.5984251968503937,
                    "duration": 0.18958333333330302
                },
                {
                    "name": "G3",
                    "midi": 55,
                    "time": 386.5125000000118,
                    "velocity": 0.6850393700787402,
                    "duration": 0.03750000000002274
                },
                {
                    "name": "B4",
                    "midi": 71,
                    "time": 386.53750000001185,
                    "velocity": 0.6220472440944882,
                    "duration": 0.22083333333330302
                },
                {
                    "name": "B3",
                    "midi": 59,
                    "time": 386.7104166666785,
                    "velocity": 0.5118110236220472,
                    "duration": 0.20416666666670835
                },
                {
                    "name": "D4",
                    "midi": 62,
                    "time": 386.8916666666785,
                    "velocity": 0.5669291338582677,
                    "duration": 0.5166666666667652
                },
                {
                    "name": "E4",
                    "midi": 64,
                    "time": 386.89375000001183,
                    "velocity": 0.5984251968503937,
                    "duration": 0.46875000000005684
                },
                {
                    "name": "G3",
                    "midi": 55,
                    "time": 386.90208333334516,
                    "velocity": 0.4251968503937008,
                    "duration": 0.46250000000009095
                },
                {
                    "name": "B4",
                    "midi": 71,
                    "time": 386.91250000001185,
                    "velocity": 0.5748031496062992,
                    "duration": 0.20416666666670835
                },
                {
                    "name": "B3",
                    "midi": 59,
                    "time": 386.94166666667854,
                    "velocity": 0.2047244094488189,
                    "duration": 0.3854166666666856
                },
                {
                    "name": "B1",
                    "midi": 35,
                    "time": 387.2270833333452,
                    "velocity": 0.5984251968503937,
                    "duration": 0.05000000000001137
                },
                {
                    "name": "B3",
                    "midi": 59,
                    "time": 387.4500000000119,
                    "velocity": 0.5984251968503937,
                    "duration": 0.1645833333333826
                },
                {
                    "name": "B4",
                    "midi": 71,
                    "time": 387.61250000001195,
                    "velocity": 0.5354330708661418,
                    "duration": 0.1875
                },
                {
                    "name": "A#3",
                    "midi": 58,
                    "time": 387.64375000001195,
                    "velocity": 0.6299212598425197,
                    "duration": 0.16250000000002274
                },
                {
                    "name": "E3",
                    "midi": 52,
                    "time": 387.6583333333453,
                    "velocity": 0.31496062992125984,
                    "duration": 0.07083333333332575
                },
                {
                    "name": "D3",
                    "midi": 50,
                    "time": 387.66250000001196,
                    "velocity": 0.2755905511811024,
                    "duration": 0.06041666666664014
                },
                {
                    "name": "G#3",
                    "midi": 56,
                    "time": 387.67500000001195,
                    "velocity": 0.48031496062992124,
                    "duration": 0.28750000000002274
                },
                {
                    "name": "B3",
                    "midi": 59,
                    "time": 387.78750000001196,
                    "velocity": 0.3937007874015748,
                    "duration": 0.2666666666667652
                },
                {
                    "name": "E3",
                    "midi": 52,
                    "time": 387.968750000012,
                    "velocity": 0.7165354330708661,
                    "duration": 0.0708333333333826
                },
                {
                    "name": "D3",
                    "midi": 50,
                    "time": 387.97083333334535,
                    "velocity": 0.6456692913385826,
                    "duration": 0.03750000000002274
                },
                {
                    "name": "B4",
                    "midi": 71,
                    "time": 387.993750000012,
                    "velocity": 0.5196850393700787,
                    "duration": 0.20833333333331439
                },
                {
                    "name": "G#3",
                    "midi": 56,
                    "time": 388.11458333334537,
                    "velocity": 0.5905511811023622,
                    "duration": 0.14999999999997726
                },
                {
                    "name": "B3",
                    "midi": 59,
                    "time": 388.118750000012,
                    "velocity": 0.6614173228346457,
                    "duration": 0.6250000000000568
                },
                {
                    "name": "A1",
                    "midi": 33,
                    "time": 388.3479166666787,
                    "velocity": 0.6377952755905512,
                    "duration": 0.8937500000000114
                },
                {
                    "name": "D4",
                    "midi": 62,
                    "time": 388.37708333334535,
                    "velocity": 0.4566929133858268,
                    "duration": 0.2125000000000341
                },
                {
                    "name": "F#4",
                    "midi": 66,
                    "time": 388.3833333333454,
                    "velocity": 0.7244094488188977,
                    "duration": 0.3062500000000341
                },
                {
                    "name": "B4",
                    "midi": 71,
                    "time": 388.72708333334543,
                    "velocity": 0.6692913385826772,
                    "duration": 0.22083333333330302
                },
                {
                    "name": "A2",
                    "midi": 45,
                    "time": 388.7437500000121,
                    "velocity": 0.5196850393700787,
                    "duration": 0.5874999999999773
                },
                {
                    "name": "D#4",
                    "midi": 63,
                    "time": 388.74791666667875,
                    "velocity": 0.8267716535433071,
                    "duration": 0.43541666666664014
                },
                {
                    "name": "B3",
                    "midi": 59,
                    "time": 388.76875000001206,
                    "velocity": 0.5118110236220472,
                    "duration": 0.29374999999998863
                },
                {
                    "name": "G3",
                    "midi": 55,
                    "time": 388.77916666667875,
                    "velocity": 0.44881889763779526,
                    "duration": 0.22291666666666288
                },
                {
                    "name": "C5",
                    "midi": 72,
                    "time": 389.14375000001206,
                    "velocity": 0.5984251968503937,
                    "duration": 0.20833333333337123
                },
                {
                    "name": "E4",
                    "midi": 64,
                    "time": 389.1791666666787,
                    "velocity": 0.7007874015748031,
                    "duration": 0.16250000000002274
                },
                {
                    "name": "G#3",
                    "midi": 56,
                    "time": 389.2000000000121,
                    "velocity": 0.6141732283464567,
                    "duration": 0.11458333333331439
                },
                {
                    "name": "C4",
                    "midi": 60,
                    "time": 389.2125000000121,
                    "velocity": 0.44881889763779526,
                    "duration": 0.06666666666666288
                },
                {
                    "name": "C4",
                    "midi": 60,
                    "time": 389.34791666667877,
                    "velocity": 0.5433070866141733,
                    "duration": 0.11458333333331439
                },
                {
                    "name": "A2",
                    "midi": 45,
                    "time": 389.66666666667874,
                    "velocity": 0.25984251968503935,
                    "duration": 1.0208333333333144
                },
                {
                    "name": "A4",
                    "midi": 69,
                    "time": 389.66666666667874,
                    "velocity": 0.5433070866141733,
                    "duration": 0.5291666666666401
                },
                {
                    "name": "C#4",
                    "midi": 61,
                    "time": 389.6895833333454,
                    "velocity": 0.4094488188976378,
                    "duration": 0.502083333333303
                },
                {
                    "name": "F4",
                    "midi": 65,
                    "time": 389.69583333334543,
                    "velocity": 0.4645669291338583,
                    "duration": 0.46666666666664014
                },
                {
                    "name": "A3",
                    "midi": 57,
                    "time": 390.13333333334543,
                    "velocity": 0.4094488188976378,
                    "duration": 0.38958333333329165
                },
                {
                    "name": "C#5",
                    "midi": 73,
                    "time": 390.1458333333454,
                    "velocity": 0.5039370078740157,
                    "duration": 0.283333333333303
                },
                {
                    "name": "C#4",
                    "midi": 61,
                    "time": 390.39583333334537,
                    "velocity": 0.47244094488188976,
                    "duration": 0.3083333333333371
                },
                {
                    "name": "C#5",
                    "midi": 73,
                    "time": 390.6583333333454,
                    "velocity": 0.4409448818897638,
                    "duration": 0.47916666666662877
                },
                {
                    "name": "A4",
                    "midi": 69,
                    "time": 390.70833333334537,
                    "velocity": 0.41732283464566927,
                    "duration": 0.2708333333333144
                },
                {
                    "name": "F4",
                    "midi": 65,
                    "time": 390.7166666666787,
                    "velocity": 0.33070866141732286,
                    "duration": 0.14583333333331439
                },
                {
                    "name": "C#4",
                    "midi": 61,
                    "time": 390.98333333334534,
                    "velocity": 0.3779527559055118,
                    "duration": 0.15208333333333712
                },
                {
                    "name": "F5",
                    "midi": 77,
                    "time": 391.02708333334533,
                    "velocity": 0.6377952755905512,
                    "duration": 0.11250000000006821
                },
                {
                    "name": "E5",
                    "midi": 76,
                    "time": 391.4395833333454,
                    "velocity": 0.5826771653543307,
                    "duration": 0.5166666666667084
                },
                {
                    "name": "C#5",
                    "midi": 73,
                    "time": 391.45625000001206,
                    "velocity": 0.47244094488188976,
                    "duration": 0.5687500000000796
                },
                {
                    "name": "G#4",
                    "midi": 68,
                    "time": 391.4708333333454,
                    "velocity": 0.49606299212598426,
                    "duration": 0.4500000000000455
                },
                {
                    "name": "E4",
                    "midi": 64,
                    "time": 391.48541666667876,
                    "velocity": 0.31496062992125984,
                    "duration": 0.3895833333333485
                },
                {
                    "name": "F2",
                    "midi": 41,
                    "time": 391.49583333334544,
                    "velocity": 0.4251968503937008,
                    "duration": 0.19166666666666288
                },
                {
                    "name": "C5",
                    "midi": 72,
                    "time": 391.76458333334546,
                    "velocity": 0.2992125984251969,
                    "duration": 0.37708333333335986
                },
                {
                    "name": "C6",
                    "midi": 84,
                    "time": 392.0208333333455,
                    "velocity": 0.48031496062992124,
                    "duration": 0.33541666666667425
                },
                {
                    "name": "C3",
                    "midi": 48,
                    "time": 392.0416666666788,
                    "velocity": 0.5354330708661418,
                    "duration": 0.06666666666666288
                },
                {
                    "name": "C5",
                    "midi": 72,
                    "time": 392.27500000001214,
                    "velocity": 0.5354330708661418,
                    "duration": 0.28125000000005684
                },
                {
                    "name": "F4",
                    "midi": 65,
                    "time": 392.46250000001214,
                    "velocity": 0.5590551181102362,
                    "duration": 0.09375000000005684
                },
                {
                    "name": "C4",
                    "midi": 60,
                    "time": 392.4645833333455,
                    "velocity": 0.6456692913385826,
                    "duration": 0.05000000000001137
                },
                {
                    "name": "A4",
                    "midi": 69,
                    "time": 392.46875000001216,
                    "velocity": 0.5669291338582677,
                    "duration": 0.11041666666670835
                },
                {
                    "name": "C6",
                    "midi": 84,
                    "time": 392.4750000000122,
                    "velocity": 0.6299212598425197,
                    "duration": 0.2541666666667197
                },
                {
                    "name": "F5",
                    "midi": 77,
                    "time": 392.6375000000122,
                    "velocity": 0.6141732283464567,
                    "duration": 0.0875000000000341
                },
                {
                    "name": "C#5",
                    "midi": 73,
                    "time": 392.6479166666789,
                    "velocity": 0.5118110236220472,
                    "duration": 0.09791666666666288
                },
                {
                    "name": "C5",
                    "midi": 72,
                    "time": 392.6666666666789,
                    "velocity": 0.5354330708661418,
                    "duration": 0.09791666666666288
                },
                {
                    "name": "C2",
                    "midi": 36,
                    "time": 392.8854166666789,
                    "velocity": 0.7716535433070866,
                    "duration": 0.4395833333334167
                },
                {
                    "name": "C#5",
                    "midi": 73,
                    "time": 392.9041666666789,
                    "velocity": 0.5354330708661418,
                    "duration": 0.40208333333339397
                },
                {
                    "name": "E5",
                    "midi": 76,
                    "time": 392.9125000000123,
                    "velocity": 0.5590551181102362,
                    "duration": 0.36458333333337123
                },
                {
                    "name": "E4",
                    "midi": 64,
                    "time": 392.9625000000123,
                    "velocity": 0.1968503937007874,
                    "duration": 0.13750000000004547
                },
                {
                    "name": "C5",
                    "midi": 72,
                    "time": 393.072916666679,
                    "velocity": 0.5905511811023622,
                    "duration": 0.29166666666662877
                },
                {
                    "name": "C6",
                    "midi": 84,
                    "time": 393.272916666679,
                    "velocity": 0.5984251968503937,
                    "duration": 0.2562499999999659
                },
                {
                    "name": "C3",
                    "midi": 48,
                    "time": 393.310416666679,
                    "velocity": 0.7637795275590551,
                    "duration": 0.14999999999997726
                },
                {
                    "name": "C5",
                    "midi": 72,
                    "time": 393.4562500000123,
                    "velocity": 0.6141732283464567,
                    "duration": 0.28958333333343944
                },
                {
                    "name": "A4",
                    "midi": 69,
                    "time": 393.660416666679,
                    "velocity": 0.6614173228346457,
                    "duration": 0.15625000000005684
                },
                {
                    "name": "C4",
                    "midi": 60,
                    "time": 393.66250000001236,
                    "velocity": 0.6377952755905512,
                    "duration": 0.05000000000001137
                },
                {
                    "name": "F4",
                    "midi": 65,
                    "time": 393.66250000001236,
                    "velocity": 0.5590551181102362,
                    "duration": 0.056250000000034106
                },
                {
                    "name": "C6",
                    "midi": 84,
                    "time": 393.6708333333457,
                    "velocity": 0.5590551181102362,
                    "duration": 0.21458333333333712
                },
                {
                    "name": "F5",
                    "midi": 77,
                    "time": 393.7708333333457,
                    "velocity": 0.8031496062992126,
                    "duration": 0.08125000000001137
                },
                {
                    "name": "C5",
                    "midi": 72,
                    "time": 393.8645833333457,
                    "velocity": 0.41732283464566927,
                    "duration": 0.0999999999999659
                },
                {
                    "name": "G2",
                    "midi": 43,
                    "time": 394.02083333334565,
                    "velocity": 0.8346456692913385,
                    "duration": 0.10833333333340533
                },
                {
                    "name": "C#5",
                    "midi": 73,
                    "time": 394.06250000001234,
                    "velocity": 0.6535433070866141,
                    "duration": 0.2562500000001364
                },
                {
                    "name": "A4",
                    "midi": 69,
                    "time": 394.06250000001234,
                    "velocity": 0.5118110236220472,
                    "duration": 0.1979166666667993
                },
                {
                    "name": "C#4",
                    "midi": 61,
                    "time": 394.0770833333457,
                    "velocity": 0.6377952755905512,
                    "duration": 0.13125000000007958
                },
                {
                    "name": "C5",
                    "midi": 72,
                    "time": 394.2145833333458,
                    "velocity": 0.6456692913385826,
                    "duration": 0.27083333333337123
                },
                {
                    "name": "C6",
                    "midi": 84,
                    "time": 394.39166666667916,
                    "velocity": 0.6614173228346457,
                    "duration": 0.22291666666666288
                },
                {
                    "name": "C3",
                    "midi": 48,
                    "time": 394.4395833333458,
                    "velocity": 0.4094488188976378,
                    "duration": 0.05208333333337123
                },
                {
                    "name": "C5",
                    "midi": 72,
                    "time": 394.58958333334584,
                    "velocity": 0.47244094488188976,
                    "duration": 0.24374999999997726
                },
                {
                    "name": "E5",
                    "midi": 76,
                    "time": 394.7958333333458,
                    "velocity": 0.6220472440944882,
                    "duration": 0.07500000000004547
                },
                {
                    "name": "C4",
                    "midi": 60,
                    "time": 394.8062500000125,
                    "velocity": 0.6692913385826772,
                    "duration": 0.039583333333325754
                },
                {
                    "name": "C#5",
                    "midi": 73,
                    "time": 394.8062500000125,
                    "velocity": 0.5590551181102362,
                    "duration": 0.041666666666685614
                },
                {
                    "name": "E4",
                    "midi": 64,
                    "time": 394.8062500000125,
                    "velocity": 0.4566929133858268,
                    "duration": 0.06041666666669698
                },
                {
                    "name": "C6",
                    "midi": 84,
                    "time": 394.8270833333458,
                    "velocity": 0.48031496062992124,
                    "duration": 0.1645833333333826
                },
                {
                    "name": "C5",
                    "midi": 72,
                    "time": 394.9812500000125,
                    "velocity": 0.2440944881889764,
                    "duration": 0.13541666666668561
                },
                {
                    "name": "C2",
                    "midi": 36,
                    "time": 395.15208333334584,
                    "velocity": 0.8031496062992126,
                    "duration": 0.07291666666674246
                },
                {
                    "name": "E5",
                    "midi": 76,
                    "time": 395.1625000000125,
                    "velocity": 0.5590551181102362,
                    "duration": 0.11666666666673109
                },
                {
                    "name": "C#5",
                    "midi": 73,
                    "time": 395.16666666667925,
                    "velocity": 0.6299212598425197,
                    "duration": 0.08541666666667425
                },
                {
                    "name": "C5",
                    "midi": 72,
                    "time": 395.3625000000126,
                    "velocity": 0.5118110236220472,
                    "duration": 0.22083333333335986
                },
                {
                    "name": "C3",
                    "midi": 48,
                    "time": 395.5187500000126,
                    "velocity": 0.8031496062992126,
                    "duration": 0.10416666666668561
                },
                {
                    "name": "C6",
                    "midi": 84,
                    "time": 395.5375000000126,
                    "velocity": 0.5511811023622047,
                    "duration": 0.19166666666666288
                },
                {
                    "name": "C5",
                    "midi": 72,
                    "time": 395.6937500000126,
                    "velocity": 0.5433070866141733,
                    "duration": 0.2562499999999659
                },
                {
                    "name": "C4",
                    "midi": 60,
                    "time": 395.8520833333459,
                    "velocity": 0.5984251968503937,
                    "duration": 0.039583333333325754
                },
                {
                    "name": "A#4",
                    "midi": 70,
                    "time": 395.8583333333459,
                    "velocity": 0.7480314960629921,
                    "duration": 0.07708333333329165
                },
                {
                    "name": "D5",
                    "midi": 74,
                    "time": 395.86666666667924,
                    "velocity": 0.7007874015748031,
                    "duration": 0.14999999999997726
                },
                {
                    "name": "C6",
                    "midi": 84,
                    "time": 395.89791666667924,
                    "velocity": 0.6220472440944882,
                    "duration": 0.18749999999994316
                },
                {
                    "name": "A#5",
                    "midi": 82,
                    "time": 395.9854166666792,
                    "velocity": 0.7874015748031497,
                    "duration": 0.12708333333330302
                },
                {
                    "name": "C5",
                    "midi": 72,
                    "time": 396.0416666666792,
                    "velocity": 0.4566929133858268,
                    "duration": 0.09583333333330302
                },
                {
                    "name": "E2",
                    "midi": 40,
                    "time": 396.22916666667913,
                    "velocity": 0.8110236220472441,
                    "duration": 0.06875000000002274
                },
                {
                    "name": "A5",
                    "midi": 81,
                    "time": 396.2333333333458,
                    "velocity": 0.84251968503937,
                    "duration": 0.06041666666669698
                },
                {
                    "name": "C6",
                    "midi": 84,
                    "time": 396.2395833333458,
                    "velocity": 0.8031496062992126,
                    "duration": 0.06041666666669698
                },
                {
                    "name": "C5",
                    "midi": 72,
                    "time": 396.24791666667915,
                    "velocity": 0.7322834645669292,
                    "duration": 0.03333333333335986
                },
                {
                    "name": "C5",
                    "midi": 72,
                    "time": 396.4166666666792,
                    "velocity": 0.5354330708661418,
                    "duration": 0.2916666666666856
                },
                {
                    "name": "C3",
                    "midi": 48,
                    "time": 396.5937500000125,
                    "velocity": 0.8346456692913385,
                    "duration": 0.09166666666669698
                },
                {
                    "name": "C6",
                    "midi": 84,
                    "time": 396.6125000000125,
                    "velocity": 0.7007874015748031,
                    "duration": 0.23958333333337123
                },
                {
                    "name": "C5",
                    "midi": 72,
                    "time": 396.76250000001255,
                    "velocity": 0.31496062992125984,
                    "duration": 0.21666666666669698
                },
                {
                    "name": "C4",
                    "midi": 60,
                    "time": 396.90000000001254,
                    "velocity": 0.7401574803149606,
                    "duration": 0.06875000000002274
                },
                {
                    "name": "D5",
                    "midi": 74,
                    "time": 396.9104166666792,
                    "velocity": 0.7322834645669292,
                    "duration": 0.2437500000000341
                },
                {
                    "name": "A#4",
                    "midi": 70,
                    "time": 396.9125000000126,
                    "velocity": 0.7007874015748031,
                    "duration": 0.08333333333331439
                },
                {
                    "name": "C6",
                    "midi": 84,
                    "time": 396.9729166666792,
                    "velocity": 0.5826771653543307,
                    "duration": 0.14375000000001137
                },
                {
                    "name": "A#5",
                    "midi": 82,
                    "time": 397.0333333333459,
                    "velocity": 0.7952755905511811,
                    "duration": 0.10624999999998863
                },
                {
                    "name": "G5",
                    "midi": 79,
                    "time": 397.0812500000126,
                    "velocity": 0.3464566929133858,
                    "duration": 0.05624999999997726
                },
                {
                    "name": "C5",
                    "midi": 72,
                    "time": 397.0895833333459,
                    "velocity": 0.4881889763779528,
                    "duration": 0.09583333333335986
                },
                {
                    "name": "C2",
                    "midi": 36,
                    "time": 397.2541666666793,
                    "velocity": 0.9212598425196851,
                    "duration": 0.07916666666670835
                },
                {
                    "name": "D5",
                    "midi": 74,
                    "time": 397.26875000001263,
                    "velocity": 0.8346456692913385,
                    "duration": 0.07916666666670835
                },
                {
                    "name": "F#4",
                    "midi": 66,
                    "time": 397.26875000001263,
                    "velocity": 0.952755905511811,
                    "duration": 0.06666666666671972
                },
                {
                    "name": "F#5",
                    "midi": 78,
                    "time": 397.270833333346,
                    "velocity": 0.8346456692913385,
                    "duration": 0.12083333333333712
                },
                {
                    "name": "C5",
                    "midi": 72,
                    "time": 397.427083333346,
                    "velocity": 0.5984251968503937,
                    "duration": 0.2333333333333485
                },
                {
                    "name": "C6",
                    "midi": 84,
                    "time": 397.60000000001264,
                    "velocity": 0.7244094488188977,
                    "duration": 0.23125000000004547
                },
                {
                    "name": "C3",
                    "midi": 48,
                    "time": 397.6104166666793,
                    "velocity": 0.9448818897637795,
                    "duration": 0.31875000000002274
                },
                {
                    "name": "C5",
                    "midi": 72,
                    "time": 397.745833333346,
                    "velocity": 0.7165354330708661,
                    "duration": 0.2604166666666856
                },
                {
                    "name": "G5",
                    "midi": 79,
                    "time": 397.9229166666793,
                    "velocity": 0.7716535433070866,
                    "duration": 0.1479166666667311
                },
                {
                    "name": "C4",
                    "midi": 60,
                    "time": 397.927083333346,
                    "velocity": 0.7322834645669292,
                    "duration": 0.03125
                },
                {
                    "name": "D#5",
                    "midi": 75,
                    "time": 397.927083333346,
                    "velocity": 0.7952755905511811,
                    "duration": 0.06875000000002274
                },
                {
                    "name": "C6",
                    "midi": 84,
                    "time": 397.958333333346,
                    "velocity": 0.7086614173228346,
                    "duration": 0.18541666666669698
                },
                {
                    "name": "A#5",
                    "midi": 82,
                    "time": 398.05833333334607,
                    "velocity": 0.7952755905511811,
                    "duration": 0.10416666666662877
                },
                {
                    "name": "D6",
                    "midi": 86,
                    "time": 398.07083333334606,
                    "velocity": 0.7322834645669292,
                    "duration": 0.08749999999997726
                },
                {
                    "name": "C5",
                    "midi": 72,
                    "time": 398.11458333334605,
                    "velocity": 0.5826771653543307,
                    "duration": 0.08749999999997726
                },
                {
                    "name": "D6",
                    "midi": 86,
                    "time": 398.21875000001273,
                    "velocity": 0.7874015748031497,
                    "duration": 0.05208333333342807
                },
                {
                    "name": "G#5",
                    "midi": 80,
                    "time": 398.2291666666794,
                    "velocity": 0.889763779527559,
                    "duration": 0.05000000000006821
                },
                {
                    "name": "D5",
                    "midi": 74,
                    "time": 398.23541666667944,
                    "velocity": 0.7795275590551181,
                    "duration": 0.03333333333335986
                },
                {
                    "name": "F2",
                    "midi": 41,
                    "time": 398.24166666667946,
                    "velocity": 0.9212598425196851,
                    "duration": 0.0708333333333826
                },
                {
                    "name": "C5",
                    "midi": 72,
                    "time": 398.4395833333462,
                    "velocity": 0.7559055118110236,
                    "duration": 0.21458333333333712
                },
                {
                    "name": "C3",
                    "midi": 48,
                    "time": 398.5750000000129,
                    "velocity": 0.9291338582677166,
                    "duration": 0.36874999999997726
                },
                {
                    "name": "C6",
                    "midi": 84,
                    "time": 398.5875000000129,
                    "velocity": 0.7874015748031497,
                    "duration": 0.24791666666664014
                },
                {
                    "name": "C5",
                    "midi": 72,
                    "time": 398.7520833333462,
                    "velocity": 0.8031496062992126,
                    "duration": 0.2437500000000341
                },
                {
                    "name": "C4",
                    "midi": 60,
                    "time": 398.8791666666795,
                    "velocity": 0.8740157480314961,
                    "duration": 0.056250000000034106
                },
                {
                    "name": "G#5",
                    "midi": 80,
                    "time": 398.8833333333462,
                    "velocity": 0.8267716535433071,
                    "duration": 0.07500000000004547
                },
                {
                    "name": "G#4",
                    "midi": 68,
                    "time": 398.88541666667953,
                    "velocity": 0.7952755905511811,
                    "duration": 0.03125
                },
                {
                    "name": "C6",
                    "midi": 84,
                    "time": 398.9520833333462,
                    "velocity": 0.7007874015748031,
                    "duration": 0.15208333333339397
                },
                {
                    "name": "C5",
                    "midi": 72,
                    "time": 399.1000000000129,
                    "velocity": 0.5275590551181102,
                    "duration": 0.09166666666664014
                },
                {
                    "name": "D5",
                    "midi": 74,
                    "time": 399.2104166666796,
                    "velocity": 0.7559055118110236,
                    "duration": 0.06666666666671972
                },
                {
                    "name": "A5",
                    "midi": 81,
                    "time": 399.21250000001294,
                    "velocity": 0.7165354330708661,
                    "duration": 0.06666666666671972
                },
                {
                    "name": "F5",
                    "midi": 77,
                    "time": 399.21250000001294,
                    "velocity": 0.7244094488188977,
                    "duration": 0.06041666666669698
                },
                {
                    "name": "C2",
                    "midi": 36,
                    "time": 399.21666666667966,
                    "velocity": 0.9763779527559056,
                    "duration": 0.07083333333332575
                },
                {
                    "name": "D6",
                    "midi": 86,
                    "time": 399.21666666667966,
                    "velocity": 0.6771653543307087,
                    "duration": 0.08333333333331439
                },
                {
                    "name": "C5",
                    "midi": 72,
                    "time": 399.400000000013,
                    "velocity": 0.7401574803149606,
                    "duration": 0.20833333333331439
                },
                {
                    "name": "C6",
                    "midi": 84,
                    "time": 399.54166666667965,
                    "velocity": 0.7952755905511811,
                    "duration": 0.26249999999998863
                },
                {
                    "name": "C3",
                    "midi": 48,
                    "time": 399.56041666667966,
                    "velocity": 0.984251968503937,
                    "duration": 0.40624999999994316
                },
                {
                    "name": "C5",
                    "midi": 72,
                    "time": 399.71041666667963,
                    "velocity": 0.7401574803149606,
                    "duration": 0.12291666666664014
                },
                {
                    "name": "A5",
                    "midi": 81,
                    "time": 399.88750000001295,
                    "velocity": 0.8346456692913385,
                    "duration": 0.09375
                },
                {
                    "name": "F5",
                    "midi": 77,
                    "time": 399.90000000001294,
                    "velocity": 0.8110236220472441,
                    "duration": 0.06875000000002274
                },
                {
                    "name": "C4",
                    "midi": 60,
                    "time": 399.9020833333463,
                    "velocity": 0.8582677165354331,
                    "duration": 0.04791666666665151
                },
                {
                    "name": "D6",
                    "midi": 86,
                    "time": 400.02916666667966,
                    "velocity": 0.7874015748031497,
                    "duration": 0.09791666666671972
                },
                {
                    "name": "F6",
                    "midi": 89,
                    "time": 400.031250000013,
                    "velocity": 0.7716535433070866,
                    "duration": 0.09791666666671972
                },
                {
                    "name": "D2",
                    "midi": 38,
                    "time": 400.2395833333464,
                    "velocity": 0.8346456692913385,
                    "duration": 0.06041666666681067
                },
                {
                    "name": "G6",
                    "midi": 91,
                    "time": 400.24166666667975,
                    "velocity": 0.84251968503937,
                    "duration": 0.07500000000010232
                },
                {
                    "name": "D3",
                    "midi": 50,
                    "time": 400.24791666667977,
                    "velocity": 0.8818897637795275,
                    "duration": 0.0645833333334167
                },
                {
                    "name": "E6",
                    "midi": 88,
                    "time": 400.25000000001313,
                    "velocity": 0.84251968503937,
                    "duration": 0.06250000000005684
                },
                {
                    "name": "G5",
                    "midi": 79,
                    "time": 400.2520833333465,
                    "velocity": 0.84251968503937,
                    "duration": 0.043750000000045475
                },
                {
                    "name": "C3",
                    "midi": 48,
                    "time": 400.2812500000132,
                    "velocity": 0.33070866141732286,
                    "duration": 0.04374999999998863
                },
                {
                    "name": "A4",
                    "midi": 69,
                    "time": 400.4479166666798,
                    "velocity": 0.7716535433070866,
                    "duration": 0.24166666666667425
                },
                {
                    "name": "A3",
                    "midi": 57,
                    "time": 400.61250000001314,
                    "velocity": 0.9291338582677166,
                    "duration": 0.42291666666670835
                },
                {
                    "name": "A5",
                    "midi": 81,
                    "time": 400.62083333334647,
                    "velocity": 0.7874015748031497,
                    "duration": 0.23541666666670835
                },
                {
                    "name": "A4",
                    "midi": 69,
                    "time": 400.76666666667984,
                    "velocity": 0.6692913385826772,
                    "duration": 0.21875000000005684
                },
                {
                    "name": "F4",
                    "midi": 65,
                    "time": 400.9458333333465,
                    "velocity": 0.7874015748031497,
                    "duration": 0.0395833333333826
                },
                {
                    "name": "D4",
                    "midi": 62,
                    "time": 400.9500000000132,
                    "velocity": 0.7559055118110236,
                    "duration": 0.06458333333335986
                },
                {
                    "name": "A5",
                    "midi": 81,
                    "time": 400.9562500000132,
                    "velocity": 0.7716535433070866,
                    "duration": 0.22083333333330302
                },
                {
                    "name": "F5",
                    "midi": 77,
                    "time": 400.95833333334656,
                    "velocity": 0.7795275590551181,
                    "duration": 0.07291666666662877
                },
                {
                    "name": "D6",
                    "midi": 86,
                    "time": 401.0708333333465,
                    "velocity": 0.7795275590551181,
                    "duration": 0.12083333333333712
                },
                {
                    "name": "F6",
                    "midi": 89,
                    "time": 401.0812500000132,
                    "velocity": 0.7322834645669292,
                    "duration": 0.09583333333330302
                },
                {
                    "name": "A4",
                    "midi": 69,
                    "time": 401.1062500000132,
                    "velocity": 0.36220472440944884,
                    "duration": 0.125
                },
                {
                    "name": "E6",
                    "midi": 88,
                    "time": 401.29583333334654,
                    "velocity": 0.6771653543307087,
                    "duration": 0.06666666666671972
                },
                {
                    "name": "C#6",
                    "midi": 85,
                    "time": 401.29583333334654,
                    "velocity": 0.84251968503937,
                    "duration": 0.06250000000005684
                },
                {
                    "name": "E5",
                    "midi": 76,
                    "time": 401.2979166666799,
                    "velocity": 0.8503937007874016,
                    "duration": 0.03333333333335986
                },
                {
                    "name": "D2",
                    "midi": 38,
                    "time": 401.2979166666799,
                    "velocity": 0.9763779527559056,
                    "duration": 0.07500000000004547
                },
                {
                    "name": "D6",
                    "midi": 86,
                    "time": 401.3104166666799,
                    "velocity": 0.6771653543307087,
                    "duration": 0.043750000000045475
                },
                {
                    "name": "D3",
                    "midi": 50,
                    "time": 401.31250000001324,
                    "velocity": 0.6062992125984252,
                    "duration": 0.03541666666666288
                },
                {
                    "name": "A4",
                    "midi": 69,
                    "time": 401.4208333333466,
                    "velocity": 0.7401574803149606,
                    "duration": 0.24583333333328028
                },
                {
                    "name": "A5",
                    "midi": 81,
                    "time": 401.60208333334657,
                    "velocity": 0.8346456692913385,
                    "duration": 0.24374999999997726
                },
                {
                    "name": "A3",
                    "midi": 57,
                    "time": 401.60625000001323,
                    "velocity": 0.9133858267716536,
                    "duration": 0.4020833333334508
                },
                {
                    "name": "A4",
                    "midi": 69,
                    "time": 401.7500000000132,
                    "velocity": 0.7559055118110236,
                    "duration": 0.21041666666684478
                },
                {
                    "name": "A5",
                    "midi": 81,
                    "time": 401.91458333334657,
                    "velocity": 0.8031496062992126,
                    "duration": 0.20208333333346218
                },
                {
                    "name": "F4",
                    "midi": 65,
                    "time": 401.91666666667993,
                    "velocity": 0.7795275590551181,
                    "duration": 0.03750000000007958
                },
                {
                    "name": "F5",
                    "midi": 77,
                    "time": 401.9187500000133,
                    "velocity": 0.7874015748031497,
                    "duration": 0.08125000000006821
                },
                {
                    "name": "D4",
                    "midi": 62,
                    "time": 401.92083333334665,
                    "velocity": 0.7637795275590551,
                    "duration": 0.06458333333335986
                },
                {
                    "name": "D6",
                    "midi": 86,
                    "time": 402.04791666668,
                    "velocity": 0.6614173228346457,
                    "duration": 0.13333333333332575
                },
                {
                    "name": "F6",
                    "midi": 89,
                    "time": 402.05000000001337,
                    "velocity": 0.7165354330708661,
                    "duration": 0.1416666666666515
                },
                {
                    "name": "A4",
                    "midi": 69,
                    "time": 402.1208333333467,
                    "velocity": 0.48031496062992124,
                    "duration": 0.06458333333330302
                },
                {
                    "name": "F6",
                    "midi": 89,
                    "time": 402.26250000001335,
                    "velocity": 0.7874015748031497,
                    "duration": 0.08958333333339397
                },
                {
                    "name": "D6",
                    "midi": 86,
                    "time": 402.2708333333467,
                    "velocity": 0.8582677165354331,
                    "duration": 0.0708333333333826
                },
                {
                    "name": "F5",
                    "midi": 77,
                    "time": 402.2708333333467,
                    "velocity": 0.8582677165354331,
                    "duration": 0.06041666666669698
                },
                {
                    "name": "G1",
                    "midi": 31,
                    "time": 402.2770833333467,
                    "velocity": 0.8740157480314961,
                    "duration": 0.03125
                },
                {
                    "name": "G2",
                    "midi": 43,
                    "time": 402.28125000001336,
                    "velocity": 0.8740157480314961,
                    "duration": 0.056250000000034106
                },
                {
                    "name": "A#4",
                    "midi": 70,
                    "time": 402.45833333334673,
                    "velocity": 0.889763779527559,
                    "duration": 0.22708333333332575
                },
                {
                    "name": "A#5",
                    "midi": 82,
                    "time": 402.62291666668006,
                    "velocity": 0.8582677165354331,
                    "duration": 0.28125
                },
                {
                    "name": "A#3",
                    "midi": 58,
                    "time": 402.63333333334674,
                    "velocity": 0.84251968503937,
                    "duration": 0.44374999999990905
                },
                {
                    "name": "A#4",
                    "midi": 70,
                    "time": 402.7958333333467,
                    "velocity": 0.8503937007874016,
                    "duration": 0.2583333333332689
                },
                {
                    "name": "A#5",
                    "midi": 82,
                    "time": 402.9645833333467,
                    "velocity": 0.8976377952755905,
                    "duration": 0.23749999999995453
                },
                {
                    "name": "A4",
                    "midi": 69,
                    "time": 402.9770833333467,
                    "velocity": 0.8346456692913385,
                    "duration": 0.02916666666664014
                },
                {
                    "name": "F4",
                    "midi": 65,
                    "time": 402.98125000001335,
                    "velocity": 0.7559055118110236,
                    "duration": 0.037499999999965894
                },
                {
                    "name": "D4",
                    "midi": 62,
                    "time": 402.9895833333467,
                    "velocity": 0.7007874015748031,
                    "duration": 0.0541666666666174
                },
                {
                    "name": "A#4",
                    "midi": 70,
                    "time": 403.18125000001334,
                    "velocity": 0.5039370078740157,
                    "duration": 0.07708333333329165
                },
                {
                    "name": "D6",
                    "midi": 86,
                    "time": 403.3333333333466,
                    "velocity": 0.8582677165354331,
                    "duration": 0.06458333333335986
                },
                {
                    "name": "F5",
                    "midi": 77,
                    "time": 403.33958333334664,
                    "velocity": 0.84251968503937,
                    "duration": 0.03333333333335986
                },
                {
                    "name": "F6",
                    "midi": 89,
                    "time": 403.34166666668,
                    "velocity": 0.8110236220472441,
                    "duration": 0.07083333333332575
                },
                {
                    "name": "A#5",
                    "midi": 82,
                    "time": 403.34583333334666,
                    "velocity": 0.7716535433070866,
                    "duration": 0.03125
                },
                {
                    "name": "G1",
                    "midi": 31,
                    "time": 403.3500000000133,
                    "velocity": 0.9133858267716536,
                    "duration": 0.08125000000001137
                },
                {
                    "name": "G2",
                    "midi": 43,
                    "time": 403.35416666668,
                    "velocity": 0.9212598425196851,
                    "duration": 0.08958333333333712
                },
                {
                    "name": "A#4",
                    "midi": 70,
                    "time": 403.52916666668,
                    "velocity": 0.8582677165354331,
                    "duration": 0.24166666666667425
                },
                {
                    "name": "A#5",
                    "midi": 82,
                    "time": 403.6750000000133,
                    "velocity": 0.8267716535433071,
                    "duration": 0.28333333333335986
                },
                {
                    "name": "F4",
                    "midi": 65,
                    "time": 403.72916666668,
                    "velocity": 0.9133858267716536,
                    "duration": 0.14583333333337123
                },
                {
                    "name": "A#3",
                    "midi": 58,
                    "time": 403.7395833333467,
                    "velocity": 0.8582677165354331,
                    "duration": 0.49374999999997726
                },
                {
                    "name": "D4",
                    "midi": 62,
                    "time": 403.7458333333467,
                    "velocity": 0.7952755905511811,
                    "duration": 0.2562499999999659
                },
                {
                    "name": "C#4",
                    "midi": 61,
                    "time": 403.77291666668003,
                    "velocity": 0.3700787401574803,
                    "duration": 0.03541666666666288
                },
                {
                    "name": "A#4",
                    "midi": 70,
                    "time": 403.85416666668004,
                    "velocity": 0.7007874015748031,
                    "duration": 0.252083333333303
                },
                {
                    "name": "A#5",
                    "midi": 82,
                    "time": 404.07916666668,
                    "velocity": 0.6062992125984252,
                    "duration": 0.24583333333333712
                },
                {
                    "name": "F#4",
                    "midi": 66,
                    "time": 404.11875000001334,
                    "velocity": 1,
                    "duration": 0.07708333333334849
                },
                {
                    "name": "F#5",
                    "midi": 78,
                    "time": 404.1312500000133,
                    "velocity": 0.8661417322834646,
                    "duration": 0.08125000000001137
                },
                {
                    "name": "D5",
                    "midi": 74,
                    "time": 404.13750000001335,
                    "velocity": 0.7322834645669292,
                    "duration": 0.04791666666665151
                },
                {
                    "name": "D4",
                    "midi": 62,
                    "time": 404.14166666668,
                    "velocity": 0.6062992125984252,
                    "duration": 0.04374999999998863
                },
                {
                    "name": "F6",
                    "midi": 89,
                    "time": 404.27500000001334,
                    "velocity": 0.7874015748031497,
                    "duration": 0.0875000000000341
                },
                {
                    "name": "A#4",
                    "midi": 70,
                    "time": 404.29791666668,
                    "velocity": 0.5511811023622047,
                    "duration": 0.09583333333335986
                },
                {
                    "name": "D6",
                    "midi": 86,
                    "time": 404.53541666668,
                    "velocity": 0.8188976377952756,
                    "duration": 0.1333333333333826
                },
                {
                    "name": "C2",
                    "midi": 36,
                    "time": 404.5375000000134,
                    "velocity": 0.952755905511811,
                    "duration": 0.0875000000000341
                },
                {
                    "name": "A#5",
                    "midi": 82,
                    "time": 404.54166666668004,
                    "velocity": 0.7795275590551181,
                    "duration": 0.11041666666670835
                },
                {
                    "name": "D5",
                    "midi": 74,
                    "time": 404.55208333334673,
                    "velocity": 0.6771653543307087,
                    "duration": 0.06875000000002274
                },
                {
                    "name": "A#4",
                    "midi": 70,
                    "time": 404.7500000000134,
                    "velocity": 0.8976377952755905,
                    "duration": 0.2854166666666629
                },
                {
                    "name": "F#4",
                    "midi": 66,
                    "time": 404.9187500000134,
                    "velocity": 0.9448818897637795,
                    "duration": 0.12916666666666288
                },
                {
                    "name": "A#3",
                    "midi": 58,
                    "time": 404.9250000000134,
                    "velocity": 0.7637795275590551,
                    "duration": 0.24166666666667425
                },
                {
                    "name": "D4",
                    "midi": 62,
                    "time": 404.9270833333468,
                    "velocity": 0.7559055118110236,
                    "duration": 0.22083333333330302
                },
                {
                    "name": "A#5",
                    "midi": 82,
                    "time": 404.94375000001344,
                    "velocity": 0.7401574803149606,
                    "duration": 0.26875000000001137
                },
                {
                    "name": "A#4",
                    "midi": 70,
                    "time": 405.1250000000134,
                    "velocity": 0.7874015748031497,
                    "duration": 0.24583333333339397
                },
                {
                    "name": "A#3",
                    "midi": 58,
                    "time": 405.2270833333468,
                    "velocity": 0.49606299212598426,
                    "duration": 0.11250000000001137
                },
                {
                    "name": "G4",
                    "midi": 67,
                    "time": 405.2479166666801,
                    "velocity": 0.8346456692913385,
                    "duration": 0.05208333333337123
                },
                {
                    "name": "D#4",
                    "midi": 63,
                    "time": 405.2500000000135,
                    "velocity": 0.8346456692913385,
                    "duration": 0.06458333333335986
                },
                {
                    "name": "D#5",
                    "midi": 75,
                    "time": 405.25208333334683,
                    "velocity": 0.7795275590551181,
                    "duration": 0.02916666666664014
                },
                {
                    "name": "G5",
                    "midi": 79,
                    "time": 405.2770833333468,
                    "velocity": 0.5275590551181102,
                    "duration": 0.041666666666685614
                },
                {
                    "name": "A#5",
                    "midi": 82,
                    "time": 405.30416666668015,
                    "velocity": 0.7007874015748031,
                    "duration": 0.20625000000001137
                },
                {
                    "name": "F6",
                    "midi": 89,
                    "time": 405.38750000001346,
                    "velocity": 0.8188976377952756,
                    "duration": 0.08958333333333712
                },
                {
                    "name": "A#4",
                    "midi": 70,
                    "time": 405.4687500000135,
                    "velocity": 0.7086614173228346,
                    "duration": 0.06875000000002274
                },
                {
                    "name": "C2",
                    "midi": 36,
                    "time": 405.60208333334685,
                    "velocity": 0.9606299212598425,
                    "duration": 0.07500000000010232
                },
                {
                    "name": "D6",
                    "midi": 86,
                    "time": 405.6083333333469,
                    "velocity": 0.8740157480314961,
                    "duration": 0.03541666666671972
                },
                {
                    "name": "D5",
                    "midi": 74,
                    "time": 405.61041666668024,
                    "velocity": 0.8582677165354331,
                    "duration": 0.03541666666671972
                },
                {
                    "name": "A#5",
                    "midi": 82,
                    "time": 405.6125000000136,
                    "velocity": 0.8346456692913385,
                    "duration": 0.0395833333333826
                },
                {
                    "name": "A#4",
                    "midi": 70,
                    "time": 405.78125000001364,
                    "velocity": 0.8818897637795275,
                    "duration": 0.21458333333339397
                },
                {
                    "name": "A#5",
                    "midi": 82,
                    "time": 405.94375000001367,
                    "velocity": 0.8818897637795275,
                    "duration": 0.3187500000000796
                },
                {
                    "name": "D#4",
                    "midi": 63,
                    "time": 405.9791666666803,
                    "velocity": 0.9448818897637795,
                    "duration": 0.13958333333340533
                },
                {
                    "name": "G4",
                    "midi": 67,
                    "time": 405.9791666666803,
                    "velocity": 0.8976377952755905,
                    "duration": 0.13750000000004547
                },
                {
                    "name": "A#3",
                    "midi": 58,
                    "time": 405.9812500000137,
                    "velocity": 0.8976377952755905,
                    "duration": 0.4312500000000341
                },
                {
                    "name": "A#4",
                    "midi": 70,
                    "time": 406.09791666668036,
                    "velocity": 0.8267716535433071,
                    "duration": 0.18750000000005684
                },
                {
                    "name": "E4",
                    "midi": 64,
                    "time": 406.2979166666804,
                    "velocity": 0.7952755905511811,
                    "duration": 0.07708333333334849
                },
                {
                    "name": "G#4",
                    "midi": 68,
                    "time": 406.2979166666804,
                    "velocity": 0.952755905511811,
                    "duration": 0.06666666666666288
                },
                {
                    "name": "G#5",
                    "midi": 80,
                    "time": 406.3104166666804,
                    "velocity": 0.8582677165354331,
                    "duration": 0.08125000000001137
                },
                {
                    "name": "E5",
                    "midi": 76,
                    "time": 406.31250000001376,
                    "velocity": 0.7874015748031497,
                    "duration": 0.05833333333333712
                },
                {
                    "name": "B5",
                    "midi": 83,
                    "time": 406.32500000001374,
                    "velocity": 0.7322834645669292,
                    "duration": 0.21874999999994316
                },
                {
                    "name": "F6",
                    "midi": 89,
                    "time": 406.44166666668036,
                    "velocity": 0.7874015748031497,
                    "duration": 0.08541666666667425
                },
                {
                    "name": "B4",
                    "midi": 71,
                    "time": 406.5125000000137,
                    "velocity": 0.6850393700787402,
                    "duration": 0.07291666666668561
                },
                {
                    "name": "G#2",
                    "midi": 44,
                    "time": 406.570833333347,
                    "velocity": 0.2125984251968504,
                    "duration": 0.06458333333335986
                },
                {
                    "name": "F2",
                    "midi": 41,
                    "time": 406.7041666666804,
                    "velocity": 0.7086614173228346,
                    "duration": 0.06458333333347355
                },
                {
                    "name": "D6",
                    "midi": 86,
                    "time": 406.71041666668043,
                    "velocity": 0.9133858267716536,
                    "duration": 0.07916666666682204
                },
                {
                    "name": "D5",
                    "midi": 74,
                    "time": 406.71666666668045,
                    "velocity": 0.8503937007874016,
                    "duration": 0.06041666666681067
                },
                {
                    "name": "G#5",
                    "midi": 80,
                    "time": 406.7187500000138,
                    "velocity": 0.7559055118110236,
                    "duration": 0.0395833333333826
                },
                {
                    "name": "F3",
                    "midi": 53,
                    "time": 406.72500000001384,
                    "velocity": 0.9212598425196851,
                    "duration": 0.06041666666675383
                },
                {
                    "name": "A5",
                    "midi": 81,
                    "time": 406.76041666668056,
                    "velocity": 0.2755905511811024,
                    "duration": 0.03333333333335986
                },
                {
                    "name": "B4",
                    "midi": 71,
                    "time": 406.8979166666806,
                    "velocity": 0.8110236220472441,
                    "duration": 0.26249999999998863
                },
                {
                    "name": "B5",
                    "midi": 83,
                    "time": 407.0854166666806,
                    "velocity": 0.8503937007874016,
                    "duration": 0.2854166666666629
                },
                {
                    "name": "B3",
                    "midi": 59,
                    "time": 407.08958333334726,
                    "velocity": 0.7165354330708661,
                    "duration": 0.35416666666674246
                },
                {
                    "name": "G#4",
                    "midi": 68,
                    "time": 407.0979166666806,
                    "velocity": 0.9448818897637795,
                    "duration": 0.16666666666668561
                },
                {
                    "name": "E4",
                    "midi": 64,
                    "time": 407.0979166666806,
                    "velocity": 0.7401574803149606,
                    "duration": 0.12916666666666288
                },
                {
                    "name": "B4",
                    "midi": 71,
                    "time": 407.26875000001394,
                    "velocity": 0.6929133858267716,
                    "duration": 0.16458333333332575
                },
                {
                    "name": "F4",
                    "midi": 65,
                    "time": 407.4375000000139,
                    "velocity": 0.8740157480314961,
                    "duration": 0.06666666666677656
                },
                {
                    "name": "A5",
                    "midi": 81,
                    "time": 407.4375000000139,
                    "velocity": 0.8740157480314961,
                    "duration": 0.09583333333347355
                },
                {
                    "name": "A4",
                    "midi": 69,
                    "time": 407.4395833333473,
                    "velocity": 0.9133858267716536,
                    "duration": 0.045833333333405335
                },
                {
                    "name": "F5",
                    "midi": 77,
                    "time": 407.44166666668065,
                    "velocity": 0.8031496062992126,
                    "duration": 0.0645833333334167
                },
                {
                    "name": "C4",
                    "midi": 60,
                    "time": 407.456250000014,
                    "velocity": 0.5984251968503937,
                    "duration": 0.06875000000007958
                },
                {
                    "name": "C6",
                    "midi": 84,
                    "time": 407.47083333334734,
                    "velocity": 0.6614173228346457,
                    "duration": 0.2416666666667311
                },
                {
                    "name": "B5",
                    "midi": 83,
                    "time": 407.48125000001403,
                    "velocity": 0.6929133858267716,
                    "duration": 0.03750000000002274
                },
                {
                    "name": "F6",
                    "midi": 89,
                    "time": 407.5562500000141,
                    "velocity": 0.8188976377952756,
                    "duration": 0.10000000000002274
                },
                {
                    "name": "C5",
                    "midi": 72,
                    "time": 407.65416666668074,
                    "velocity": 0.6535433070866141,
                    "duration": 0.07916666666665151
                },
                {
                    "name": "A5",
                    "midi": 81,
                    "time": 407.8000000000141,
                    "velocity": 0.8818897637795275,
                    "duration": 0.06875000000007958
                },
                {
                    "name": "F2",
                    "midi": 41,
                    "time": 407.80416666668077,
                    "velocity": 0.9921259842519685,
                    "duration": 0.08333333333342807
                },
                {
                    "name": "D6",
                    "midi": 86,
                    "time": 407.80625000001413,
                    "velocity": 0.8740157480314961,
                    "duration": 0.10000000000007958
                },
                {
                    "name": "D5",
                    "midi": 74,
                    "time": 407.8083333333475,
                    "velocity": 0.8110236220472441,
                    "duration": 0.04583333333334849
                },
                {
                    "name": "C5",
                    "midi": 72,
                    "time": 408.03958333334754,
                    "velocity": 0.8031496062992126,
                    "duration": 0.24583333333339397
                },
                {
                    "name": "C6",
                    "midi": 84,
                    "time": 408.2125000000142,
                    "velocity": 0.8976377952755905,
                    "duration": 0.2875000000001364
                },
                {
                    "name": "F4",
                    "midi": 65,
                    "time": 408.21458333334755,
                    "velocity": 0.9133858267716536,
                    "duration": 0.06458333333335986
                },
                {
                    "name": "C4",
                    "midi": 60,
                    "time": 408.2166666666809,
                    "velocity": 0.9212598425196851,
                    "duration": 0.07916666666670835
                },
                {
                    "name": "C5",
                    "midi": 72,
                    "time": 408.422916666681,
                    "velocity": 0.7244094488188977,
                    "duration": 0.11666666666667425
                },
                {
                    "name": "C6",
                    "midi": 84,
                    "time": 408.7437500000143,
                    "velocity": 0.9212598425196851,
                    "duration": 0.19999999999998863
                },
                {
                    "name": "A5",
                    "midi": 81,
                    "time": 408.7500000000143,
                    "velocity": 0.8582677165354331,
                    "duration": 0.15416666666664014
                },
                {
                    "name": "A6",
                    "midi": 93,
                    "time": 409.03541666668093,
                    "velocity": 0.8818897637795275,
                    "duration": 0.09375
                },
                {
                    "name": "F6",
                    "midi": 89,
                    "time": 409.04166666668095,
                    "velocity": 0.8346456692913385,
                    "duration": 0.07499999999998863
                },
                {
                    "name": "B6",
                    "midi": 95,
                    "time": 409.56041666668096,
                    "velocity": 0.8582677165354331,
                    "duration": 0.466666666666697
                },
                {
                    "name": "F#6",
                    "midi": 90,
                    "time": 409.56041666668096,
                    "velocity": 0.889763779527559,
                    "duration": 0.5229166666667311
                },
                {
                    "name": "B5",
                    "midi": 83,
                    "time": 409.56041666668096,
                    "velocity": 0.7874015748031497,
                    "duration": 0.5125000000000455
                },
                {
                    "name": "D2",
                    "midi": 38,
                    "time": 409.5687500000143,
                    "velocity": 0.8818897637795275,
                    "duration": 0.07916666666670835
                },
                {
                    "name": "D3",
                    "midi": 50,
                    "time": 409.57083333334765,
                    "velocity": 0.8818897637795275,
                    "duration": 0.13333333333332575
                },
                {
                    "name": "F#4",
                    "midi": 66,
                    "time": 410.1020833333477,
                    "velocity": 0.984251968503937,
                    "duration": 0.11666666666667425
                },
                {
                    "name": "F#3",
                    "midi": 54,
                    "time": 410.10625000001437,
                    "velocity": 0.8503937007874016,
                    "duration": 0.12708333333335986
                },
                {
                    "name": "C4",
                    "midi": 60,
                    "time": 410.10625000001437,
                    "velocity": 0.8503937007874016,
                    "duration": 0.10000000000002274
                },
                {
                    "name": "F#3",
                    "midi": 54,
                    "time": 410.48958333334775,
                    "velocity": 0.7165354330708661,
                    "duration": 0.09375
                },
                {
                    "name": "F#4",
                    "midi": 66,
                    "time": 410.4916666666811,
                    "velocity": 0.905511811023622,
                    "duration": 0.05624999999997726
                },
                {
                    "name": "C4",
                    "midi": 60,
                    "time": 410.4958333333478,
                    "velocity": 0.7559055118110236,
                    "duration": 0.04791666666665151
                },
                {
                    "name": "C6",
                    "midi": 84,
                    "time": 410.5145833333478,
                    "velocity": 0.8818897637795275,
                    "duration": 0.11666666666667425
                },
                {
                    "name": "A5",
                    "midi": 81,
                    "time": 410.51875000001445,
                    "velocity": 0.8188976377952756,
                    "duration": 0.07499999999998863
                },
                {
                    "name": "A6",
                    "midi": 93,
                    "time": 410.6479166666811,
                    "velocity": 0.7874015748031497,
                    "duration": 0.10416666666668561
                },
                {
                    "name": "F6",
                    "midi": 89,
                    "time": 410.78750000001446,
                    "velocity": 0.03937007874015748,
                    "duration": 0.05624999999997726
                },
                {
                    "name": "C2",
                    "midi": 36,
                    "time": 410.8854166666811,
                    "velocity": 0.8503937007874016,
                    "duration": 0.0645833333334167
                },
                {
                    "name": "C3",
                    "midi": 48,
                    "time": 410.89166666668115,
                    "velocity": 0.8582677165354331,
                    "duration": 0.07708333333340533
                },
                {
                    "name": "F6",
                    "midi": 89,
                    "time": 410.89791666668117,
                    "velocity": 0.8031496062992126,
                    "duration": 0.38541666666674246
                },
                {
                    "name": "G#5",
                    "midi": 80,
                    "time": 410.9041666666812,
                    "velocity": 0.8582677165354331,
                    "duration": 0.341666666666697
                },
                {
                    "name": "G#6",
                    "midi": 92,
                    "time": 410.9145833333479,
                    "velocity": 0.8503937007874016,
                    "duration": 0.33333333333337123
                },
                {
                    "name": "F#4",
                    "midi": 66,
                    "time": 411.29791666668126,
                    "velocity": 0.9133858267716536,
                    "duration": 0.08125000000006821
                },
                {
                    "name": "F#3",
                    "midi": 54,
                    "time": 411.3000000000146,
                    "velocity": 0.7086614173228346,
                    "duration": 0.09166666666669698
                },
                {
                    "name": "D4",
                    "midi": 62,
                    "time": 411.302083333348,
                    "velocity": 0.8188976377952756,
                    "duration": 0.07083333333332575
                },
                {
                    "name": "D4",
                    "midi": 62,
                    "time": 411.64791666668134,
                    "velocity": 0.8346456692913385,
                    "duration": 0.06666666666677656
                },
                {
                    "name": "F#4",
                    "midi": 66,
                    "time": 411.652083333348,
                    "velocity": 0.8503937007874016,
                    "duration": 0.047916666666765195
                },
                {
                    "name": "F#3",
                    "midi": 54,
                    "time": 411.65416666668136,
                    "velocity": 0.7322834645669292,
                    "duration": 0.09375000000005684
                },
                {
                    "name": "C6",
                    "midi": 84,
                    "time": 411.6562500000147,
                    "velocity": 0.8818897637795275,
                    "duration": 0.09166666666669698
                },
                {
                    "name": "A5",
                    "midi": 81,
                    "time": 411.6583333333481,
                    "velocity": 0.7952755905511811,
                    "duration": 0.06458333333335986
                },
                {
                    "name": "A6",
                    "midi": 93,
                    "time": 411.79791666668143,
                    "velocity": 0.8110236220472441,
                    "duration": 0.09374999999994316
                },
                {
                    "name": "F#6",
                    "midi": 90,
                    "time": 411.8020833333481,
                    "velocity": 0.7952755905511811,
                    "duration": 0.06041666666664014
                },
                {
                    "name": "C7",
                    "midi": 96,
                    "time": 412.0625000000147,
                    "velocity": 0.8818897637795275,
                    "duration": 0.0645833333334167
                },
                {
                    "name": "F#6",
                    "midi": 90,
                    "time": 412.0645833333481,
                    "velocity": 0.889763779527559,
                    "duration": 0.0645833333334167
                },
                {
                    "name": "C6",
                    "midi": 84,
                    "time": 412.06666666668144,
                    "velocity": 0.7874015748031497,
                    "duration": 0.03125
                },
                {
                    "name": "A#1",
                    "midi": 34,
                    "time": 412.0708333333481,
                    "velocity": 0.8818897637795275,
                    "duration": 0.054166666666674246
                },
                {
                    "name": "A#2",
                    "midi": 46,
                    "time": 412.07500000001477,
                    "velocity": 0.952755905511811,
                    "duration": 0.06666666666671972
                },
                {
                    "name": "D4",
                    "midi": 62,
                    "time": 412.4958333333482,
                    "velocity": 0.9212598425196851,
                    "duration": 0.05833333333333712
                },
                {
                    "name": "G3",
                    "midi": 55,
                    "time": 412.50000000001484,
                    "velocity": 0.8031496062992126,
                    "duration": 0.0625
                },
                {
                    "name": "A#3",
                    "midi": 58,
                    "time": 412.5041666666815,
                    "velocity": 0.8267716535433071,
                    "duration": 0.0625
                },
                {
                    "name": "D4",
                    "midi": 62,
                    "time": 412.97083333334814,
                    "velocity": 0.8818897637795275,
                    "duration": 0.05208333333342807
                },
                {
                    "name": "G6",
                    "midi": 91,
                    "time": 412.97083333334814,
                    "velocity": 0.8346456692913385,
                    "duration": 0.07083333333343944
                },
                {
                    "name": "G3",
                    "midi": 55,
                    "time": 412.9729166666815,
                    "velocity": 0.7952755905511811,
                    "duration": 0.07291666666674246
                },
                {
                    "name": "A#3",
                    "midi": 58,
                    "time": 412.97500000001486,
                    "velocity": 0.8661417322834646,
                    "duration": 0.056250000000034106
                },
                {
                    "name": "A#5",
                    "midi": 82,
                    "time": 412.9770833333482,
                    "velocity": 0.889763779527559,
                    "duration": 0.054166666666674246
                },
                {
                    "name": "E1",
                    "midi": 28,
                    "time": 413.5187500000149,
                    "velocity": 0.8818897637795275,
                    "duration": 0.07291666666674246
                },
                {
                    "name": "E2",
                    "midi": 40,
                    "time": 413.52083333334826,
                    "velocity": 0.8582677165354331,
                    "duration": 0.10416666666674246
                },
                {
                    "name": "A#6",
                    "midi": 94,
                    "time": 413.5229166666816,
                    "velocity": 0.8503937007874016,
                    "duration": 0.527083333333394
                },
                {
                    "name": "A#5",
                    "midi": 82,
                    "time": 413.5354166666816,
                    "velocity": 0.889763779527559,
                    "duration": 0.5520833333334281
                },
                {
                    "name": "G6",
                    "midi": 91,
                    "time": 413.5395833333483,
                    "velocity": 0.7874015748031497,
                    "duration": 0.5791666666667652
                },
                {
                    "name": "D4",
                    "midi": 62,
                    "time": 414.15833333334837,
                    "velocity": 0.5984251968503937,
                    "duration": 0.34583333333335986
                },
                {
                    "name": "A#3",
                    "midi": 58,
                    "time": 414.15833333334837,
                    "velocity": 0.5511811023622047,
                    "duration": 0.310416666666697
                },
                {
                    "name": "G3",
                    "midi": 55,
                    "time": 414.1854166666817,
                    "velocity": 0.4015748031496063,
                    "duration": 0.3208333333333826
                },
                {
                    "name": "D4",
                    "midi": 62,
                    "time": 414.7437500000151,
                    "velocity": 0.5984251968503937,
                    "duration": 0.04583333333334849
                },
                {
                    "name": "A#3",
                    "midi": 58,
                    "time": 414.7500000000151,
                    "velocity": 0.5826771653543307,
                    "duration": 0.07499999999998863
                },
                {
                    "name": "G3",
                    "midi": 55,
                    "time": 414.7520833333485,
                    "velocity": 0.47244094488188976,
                    "duration": 0.09583333333330302
                },
                {
                    "name": "A#5",
                    "midi": 82,
                    "time": 414.7812500000151,
                    "velocity": 0.7244094488188977,
                    "duration": 0.18541666666664014
                },
                {
                    "name": "G5",
                    "midi": 79,
                    "time": 414.7979166666818,
                    "velocity": 0.5433070866141733,
                    "duration": 0.11041666666665151
                },
                {
                    "name": "G6",
                    "midi": 91,
                    "time": 415.0270833333484,
                    "velocity": 0.7952755905511811,
                    "duration": 0.07916666666665151
                },
                {
                    "name": "D6",
                    "midi": 86,
                    "time": 415.0354166666817,
                    "velocity": 0.6299212598425197,
                    "duration": 0.041666666666685614
                },
                {
                    "name": "A1",
                    "midi": 33,
                    "time": 415.3104166666817,
                    "velocity": 0.6141732283464567,
                    "duration": 0.2875000000001364
                },
                {
                    "name": "B5",
                    "midi": 83,
                    "time": 415.44791666668175,
                    "velocity": 0.5748031496062992,
                    "duration": 0.5520833333334281
                },
                {
                    "name": "A2",
                    "midi": 45,
                    "time": 415.4520833333484,
                    "velocity": 0.5433070866141733,
                    "duration": 0.2208333333334167
                },
                {
                    "name": "D6",
                    "midi": 86,
                    "time": 415.4541666666818,
                    "velocity": 0.7559055118110236,
                    "duration": 0.48541666666670835
                },
                {
                    "name": "F#5",
                    "midi": 78,
                    "time": 415.4604166666818,
                    "velocity": 0.6141732283464567,
                    "duration": 0.5333333333333599
                },
                {
                    "name": "D5",
                    "midi": 74,
                    "time": 415.46250000001515,
                    "velocity": 0.3858267716535433,
                    "duration": 0.40625
                },
                {
                    "name": "D4",
                    "midi": 62,
                    "time": 416.0062500000152,
                    "velocity": 0.6850393700787402,
                    "duration": 0.09583333333335986
                },
                {
                    "name": "B3",
                    "midi": 59,
                    "time": 416.01041666668186,
                    "velocity": 0.6535433070866141,
                    "duration": 0.08958333333333712
                },
                {
                    "name": "F#3",
                    "midi": 54,
                    "time": 416.02083333334855,
                    "velocity": 0.5905511811023622,
                    "duration": 0.10416666666668561
                },
                {
                    "name": "D4",
                    "midi": 62,
                    "time": 416.37500000001523,
                    "velocity": 0.6377952755905512,
                    "duration": 0.03750000000002274
                },
                {
                    "name": "F#3",
                    "midi": 54,
                    "time": 416.38333333334856,
                    "velocity": 0.6377952755905512,
                    "duration": 0.08333333333342807
                },
                {
                    "name": "B3",
                    "midi": 59,
                    "time": 416.3854166666819,
                    "velocity": 0.49606299212598426,
                    "duration": 0.043750000000045475
                },
                {
                    "name": "F#5",
                    "midi": 78,
                    "time": 416.41250000001526,
                    "velocity": 0.8503937007874016,
                    "duration": 0.1729166666667652
                },
                {
                    "name": "D5",
                    "midi": 74,
                    "time": 416.4187500000153,
                    "velocity": 0.7401574803149606,
                    "duration": 0.09791666666671972
                },
                {
                    "name": "D6",
                    "midi": 86,
                    "time": 416.547916666682,
                    "velocity": 0.8740157480314961,
                    "duration": 0.10833333333334849
                },
                {
                    "name": "A1",
                    "midi": 33,
                    "time": 416.78125000001535,
                    "velocity": 0.6614173228346457,
                    "duration": 0.1104166666667652
                },
                {
                    "name": "A2",
                    "midi": 45,
                    "time": 416.82916666668206,
                    "velocity": 0.7322834645669292,
                    "duration": 0.11250000000006821
                },
                {
                    "name": "B5",
                    "midi": 83,
                    "time": 416.82916666668206,
                    "velocity": 0.6771653543307087,
                    "duration": 0.35416666666674246
                },
                {
                    "name": "G5",
                    "midi": 79,
                    "time": 416.83958333334874,
                    "velocity": 0.5748031496062992,
                    "duration": 0.3833333333333826
                },
                {
                    "name": "D#5",
                    "midi": 75,
                    "time": 416.8500000000154,
                    "velocity": 0.7559055118110236,
                    "duration": 0.3479166666667197
                },
                {
                    "name": "D#4",
                    "midi": 63,
                    "time": 417.27500000001544,
                    "velocity": 0.7716535433070866,
                    "duration": 0.0875000000000341
                },
                {
                    "name": "B3",
                    "midi": 59,
                    "time": 417.28125000001546,
                    "velocity": 0.5748031496062992,
                    "duration": 0.11041666666665151
                },
                {
                    "name": "D#4",
                    "midi": 63,
                    "time": 417.6729166666821,
                    "velocity": 0.6456692913385826,
                    "duration": 0.0395833333333826
                },
                {
                    "name": "D#5",
                    "midi": 75,
                    "time": 417.67916666668214,
                    "velocity": 0.6929133858267716,
                    "duration": 0.16666666666674246
                },
                {
                    "name": "B4",
                    "midi": 71,
                    "time": 417.6958333333488,
                    "velocity": 0.5433070866141733,
                    "duration": 0.08750000000009095
                },
                {
                    "name": "B3",
                    "midi": 59,
                    "time": 417.69791666668215,
                    "velocity": 0.4645669291338583,
                    "duration": 0.04583333333334849
                },
                {
                    "name": "G3",
                    "midi": 55,
                    "time": 417.7000000000155,
                    "velocity": 0.2755905511811024,
                    "duration": 0.07708333333334849
                },
                {
                    "name": "B5",
                    "midi": 83,
                    "time": 417.83958333334886,
                    "velocity": 0.7559055118110236,
                    "duration": 0.2541666666667197
                },
                {
                    "name": "A1",
                    "midi": 33,
                    "time": 418.1000000000156,
                    "velocity": 0.6141732283464567,
                    "duration": 0.10000000000002274
                },
                {
                    "name": "G5",
                    "midi": 79,
                    "time": 418.10208333334896,
                    "velocity": 0.7007874015748031,
                    "duration": 0.3666666666666174
                },
                {
                    "name": "E5",
                    "midi": 76,
                    "time": 418.11458333334895,
                    "velocity": 0.5118110236220472,
                    "duration": 0.3291666666666515
                },
                {
                    "name": "C5",
                    "midi": 72,
                    "time": 418.12083333334897,
                    "velocity": 0.5039370078740157,
                    "duration": 0.26249999999998863
                },
                {
                    "name": "A2",
                    "midi": 45,
                    "time": 418.12500000001563,
                    "velocity": 0.44881889763779526,
                    "duration": 0.11458333333331439
                },
                {
                    "name": "G3",
                    "midi": 55,
                    "time": 418.5791666666822,
                    "velocity": 0.4330708661417323,
                    "duration": 0.22916666666668561
                },
                {
                    "name": "E4",
                    "midi": 64,
                    "time": 418.58541666668225,
                    "velocity": 0.3858267716535433,
                    "duration": 0.18541666666664014
                },
                {
                    "name": "C4",
                    "midi": 60,
                    "time": 418.5937500000156,
                    "velocity": 0.49606299212598426,
                    "duration": 0.13333333333332575
                },
                {
                    "name": "A4",
                    "midi": 69,
                    "time": 419.1645833333489,
                    "velocity": 0.49606299212598426,
                    "duration": 0.27291666666667425
                },
                {
                    "name": "C#4",
                    "midi": 61,
                    "time": 419.1645833333489,
                    "velocity": 0.5511811023622047,
                    "duration": 0.25208333333335986
                },
                {
                    "name": "F#4",
                    "midi": 66,
                    "time": 419.1750000000156,
                    "velocity": 0.4566929133858268,
                    "duration": 0.2125000000000341
                },
                {
                    "name": "A3",
                    "midi": 57,
                    "time": 419.19166666668224,
                    "velocity": 0.3779527559055118,
                    "duration": 0.279166666666697
                },
                {
                    "name": "F#5",
                    "midi": 78,
                    "time": 419.4729166666823,
                    "velocity": 0.6929133858267716,
                    "duration": 0.07708333333334849
                },
                {
                    "name": "C#5",
                    "midi": 73,
                    "time": 419.4812500000156,
                    "velocity": 0.5905511811023622,
                    "duration": 0.08333333333337123
                },
                {
                    "name": "F#4",
                    "midi": 66,
                    "time": 419.89166666668234,
                    "velocity": 0.5511811023622047,
                    "duration": 0.5083333333333258
                },
                {
                    "name": "D5",
                    "midi": 74,
                    "time": 419.8937500000157,
                    "velocity": 0.5118110236220472,
                    "duration": 0.6395833333333485
                },
                {
                    "name": "D2",
                    "midi": 38,
                    "time": 419.89791666668236,
                    "velocity": 0.25984251968503935,
                    "duration": 0.28958333333332575
                },
                {
                    "name": "D3",
                    "midi": 50,
                    "time": 419.9000000000157,
                    "velocity": 0.3228346456692913,
                    "duration": 0.37916666666660603
                },
                {
                    "name": "A4",
                    "midi": 69,
                    "time": 419.90833333334905,
                    "velocity": 0.4645669291338583,
                    "duration": 0.5562499999999773
                },
                {
                    "name": "F#3",
                    "midi": 54,
                    "time": 420.6666666666824,
                    "velocity": 0.2677165354330709,
                    "duration": 1.0145833333333485
                },
                {
                    "name": "A3",
                    "midi": 57,
                    "time": 420.66875000001573,
                    "velocity": 0.25984251968503935,
                    "duration": 0.9562500000000114
                },
                {
                    "name": "D4",
                    "midi": 62,
                    "time": 420.69583333334907,
                    "velocity": 0.10236220472440945,
                    "duration": 0.9104166666666629
                },
                {
                    "name": "D6",
                    "midi": 86,
                    "time": 421.9625000000157,
                    "velocity": 0.33858267716535434,
                    "duration": 1.858333333333519
                },
                {
                    "name": "F#5",
                    "midi": 78,
                    "time": 421.9645833333491,
                    "velocity": 0.4015748031496063,
                    "duration": 1.9187500000001592
                },
                {
                    "name": "D5",
                    "midi": 74,
                    "time": 421.97500000001577,
                    "velocity": 0.2440944881889764,
                    "duration": 1.9166666666667993
                },
                {
                    "name": "F#2",
                    "midi": 42,
                    "time": 423.2229166666825,
                    "velocity": 0.4015748031496063,
                    "duration": 0.5250000000000341
                },
                {
                    "name": "A#2",
                    "midi": 46,
                    "time": 423.6625000000159,
                    "velocity": 0.4094488188976378,
                    "duration": 0.18958333333335986
                },
                {
                    "name": "D3",
                    "midi": 50,
                    "time": 423.8666666666826,
                    "velocity": 0.48031496062992124,
                    "duration": 0.09375
                },
                {
                    "name": "F#3",
                    "midi": 54,
                    "time": 424.02500000001595,
                    "velocity": 0.6299212598425197,
                    "duration": 0.33125000000001137
                },
                {
                    "name": "A#3",
                    "midi": 58,
                    "time": 424.16250000001594,
                    "velocity": 0.6692913385826772,
                    "duration": 0.15416666666669698
                },
                {
                    "name": "D4",
                    "midi": 62,
                    "time": 424.2666666666826,
                    "velocity": 0.5590551181102362,
                    "duration": 0.11458333333331439
                },
                {
                    "name": "F#4",
                    "midi": 66,
                    "time": 424.3416666666826,
                    "velocity": 0.5748031496062992,
                    "duration": 0.10624999999998863
                },
                {
                    "name": "A#4",
                    "midi": 70,
                    "time": 424.4041666666826,
                    "velocity": 0.6929133858267716,
                    "duration": 0.08749999999997726
                },
                {
                    "name": "D5",
                    "midi": 74,
                    "time": 424.47500000001594,
                    "velocity": 0.6220472440944882,
                    "duration": 0.1374999999999318
                },
                {
                    "name": "A#4",
                    "midi": 70,
                    "time": 424.55208333334923,
                    "velocity": 0.5905511811023622,
                    "duration": 0.18124999999997726
                },
                {
                    "name": "F#4",
                    "midi": 66,
                    "time": 424.5958333333492,
                    "velocity": 0.6614173228346457,
                    "duration": 0.3583333333333485
                },
                {
                    "name": "A#3",
                    "midi": 58,
                    "time": 424.63750000001585,
                    "velocity": 0.48031496062992124,
                    "duration": 0.11458333333337123
                },
                {
                    "name": "D4",
                    "midi": 62,
                    "time": 424.67916666668253,
                    "velocity": 0.4094488188976378,
                    "duration": 0.24583333333339397
                },
                {
                    "name": "F#3",
                    "midi": 54,
                    "time": 424.75833333334924,
                    "velocity": 0.5196850393700787,
                    "duration": 0.03333333333335986
                },
                {
                    "name": "A#2",
                    "midi": 46,
                    "time": 424.98958333334923,
                    "velocity": 0.5826771653543307,
                    "duration": 0.10624999999998863
                },
                {
                    "name": "A#2",
                    "midi": 46,
                    "time": 425.1812500000159,
                    "velocity": 0.5118110236220472,
                    "duration": 0.10624999999998863
                },
                {
                    "name": "D3",
                    "midi": 50,
                    "time": 425.28958333334924,
                    "velocity": 0.5275590551181102,
                    "duration": 0.06666666666666288
                },
                {
                    "name": "F#3",
                    "midi": 54,
                    "time": 425.41458333334924,
                    "velocity": 0.6850393700787402,
                    "duration": 0.16250000000002274
                },
                {
                    "name": "C6",
                    "midi": 84,
                    "time": 425.48333333334926,
                    "velocity": 0.8031496062992126,
                    "duration": 0.13749999999998863
                },
                {
                    "name": "F#5",
                    "midi": 78,
                    "time": 425.4854166666826,
                    "velocity": 0.7165354330708661,
                    "duration": 0.15833333333330302
                },
                {
                    "name": "C5",
                    "midi": 72,
                    "time": 425.49166666668265,
                    "velocity": 0.5984251968503937,
                    "duration": 0.0687499999999659
                },
                {
                    "name": "A#3",
                    "midi": 58,
                    "time": 425.5479166666826,
                    "velocity": 0.5511811023622047,
                    "duration": 0.15416666666664014
                },
                {
                    "name": "D4",
                    "midi": 62,
                    "time": 425.7229166666826,
                    "velocity": 0.49606299212598426,
                    "duration": 0.10208333333332575
                },
                {
                    "name": "A#3",
                    "midi": 58,
                    "time": 425.81041666668256,
                    "velocity": 0.3464566929133858,
                    "duration": 0.10416666666668561
                },
                {
                    "name": "F#3",
                    "midi": 54,
                    "time": 425.9062500000159,
                    "velocity": 0.5118110236220472,
                    "duration": 0.06666666666666288
                },
                {
                    "name": "A#5",
                    "midi": 82,
                    "time": 426.0854166666826,
                    "velocity": 0.7559055118110236,
                    "duration": 0.08541666666667425
                },
                {
                    "name": "D3",
                    "midi": 50,
                    "time": 426.08958333334925,
                    "velocity": 0.4645669291338583,
                    "duration": 0.17291666666670835
                },
                {
                    "name": "A#4",
                    "midi": 70,
                    "time": 426.08958333334925,
                    "velocity": 0.6850393700787402,
                    "duration": 0.0875000000000341
                },
                {
                    "name": "A#2",
                    "midi": 46,
                    "time": 426.2708333333493,
                    "velocity": 0.49606299212598426,
                    "duration": 0.19999999999998863
                },
                {
                    "name": "F#2",
                    "midi": 42,
                    "time": 426.46250000001595,
                    "velocity": 0.47244094488188976,
                    "duration": 0.07708333333334849
                },
                {
                    "name": "C2",
                    "midi": 36,
                    "time": 426.81875000001594,
                    "velocity": 0.5905511811023622,
                    "duration": 0.2854166666667197
                },
                {
                    "name": "F#4",
                    "midi": 66,
                    "time": 426.87083333334925,
                    "velocity": 0.33858267716535434,
                    "duration": 0.4625000000000341
                },
                {
                    "name": "D5",
                    "midi": 74,
                    "time": 426.8729166666826,
                    "velocity": 0.6614173228346457,
                    "duration": 0.5354166666666629
                },
                {
                    "name": "D4",
                    "midi": 62,
                    "time": 426.8833333333493,
                    "velocity": 0.3543307086614173,
                    "duration": 0.3395833333333371
                },
                {
                    "name": "G3",
                    "midi": 55,
                    "time": 427.5916666666826,
                    "velocity": 0.4094488188976378,
                    "duration": 0.33125000000001137
                },
                {
                    "name": "G4",
                    "midi": 67,
                    "time": 428.0708333333493,
                    "velocity": 0.33858267716535434,
                    "duration": 0.056250000000034106
                },
                {
                    "name": "D#4",
                    "midi": 63,
                    "time": 428.07291666668266,
                    "velocity": 0.5196850393700787,
                    "duration": 0.054166666666674246
                },
                {
                    "name": "D#5",
                    "midi": 75,
                    "time": 428.081250000016,
                    "velocity": 0.5984251968503937,
                    "duration": 0.2458333333334508
                },
                {
                    "name": "C4",
                    "midi": 60,
                    "time": 428.08333333334934,
                    "velocity": 0.44881889763779526,
                    "duration": 0.0625
                },
                {
                    "name": "A#4",
                    "midi": 70,
                    "time": 428.09583333334933,
                    "velocity": 0.3700787401574803,
                    "duration": 0.22916666666674246
                },
                {
                    "name": "A#5",
                    "midi": 82,
                    "time": 428.27500000001606,
                    "velocity": 0.5433070866141733,
                    "duration": 0.1500000000000341
                },
                {
                    "name": "G5",
                    "midi": 79,
                    "time": 428.3125000000161,
                    "velocity": 0.36220472440944884,
                    "duration": 0.10833333333334849
                },
                {
                    "name": "C2",
                    "midi": 36,
                    "time": 428.5250000000161,
                    "velocity": 0.5984251968503937,
                    "duration": 0.054166666666674246
                },
                {
                    "name": "D#5",
                    "midi": 75,
                    "time": 428.9645833333495,
                    "velocity": 0.5748031496062992,
                    "duration": 0.26666666666670835
                },
                {
                    "name": "A#4",
                    "midi": 70,
                    "time": 428.97708333334947,
                    "velocity": 0.48031496062992124,
                    "duration": 0.23958333333337123
                },
                {
                    "name": "G3",
                    "midi": 55,
                    "time": 428.97708333334947,
                    "velocity": 0.4251968503937008,
                    "duration": 0.21666666666664014
                },
                {
                    "name": "A#5",
                    "midi": 82,
                    "time": 429.20000000001613,
                    "velocity": 0.5196850393700787,
                    "duration": 0.11458333333337123
                },
                {
                    "name": "G5",
                    "midi": 79,
                    "time": 429.2020833333495,
                    "velocity": 0.4566929133858268,
                    "duration": 0.12083333333333712
                },
                {
                    "name": "D#4",
                    "midi": 63,
                    "time": 429.51041666668283,
                    "velocity": 0.4251968503937008,
                    "duration": 0.10625000000004547
                },
                {
                    "name": "G4",
                    "midi": 67,
                    "time": 429.51666666668285,
                    "velocity": 0.3228346456692913,
                    "duration": 0.06041666666669698
                },
                {
                    "name": "C4",
                    "midi": 60,
                    "time": 429.5312500000162,
                    "velocity": 0.36220472440944884,
                    "duration": 0.10000000000002274
                },
                {
                    "name": "F2",
                    "midi": 41,
                    "time": 430.1541666666829,
                    "velocity": 0.47244094488188976,
                    "duration": 0.6291666666667197
                },
                {
                    "name": "C#3",
                    "midi": 49,
                    "time": 430.59375000001626,
                    "velocity": 0.3700787401574803,
                    "duration": 0.2645833333333485
                },
                {
                    "name": "E3",
                    "midi": 52,
                    "time": 430.86250000001627,
                    "velocity": 0.47244094488188976,
                    "duration": 0.21666666666669698
                },
                {
                    "name": "A#5",
                    "midi": 82,
                    "time": 431.04166666668294,
                    "velocity": 0.6535433070866141,
                    "duration": 0.17708333333337123
                },
                {
                    "name": "A#4",
                    "midi": 70,
                    "time": 431.04166666668294,
                    "velocity": 0.5590551181102362,
                    "duration": 0.2104166666667311
                },
                {
                    "name": "F#5",
                    "midi": 78,
                    "time": 431.05416666668293,
                    "velocity": 0.5590551181102362,
                    "duration": 0.1791666666667311
                },
                {
                    "name": "F#3",
                    "midi": 54,
                    "time": 431.07291666668294,
                    "velocity": 0.5511811023622047,
                    "duration": 0.3208333333333826
                },
                {
                    "name": "A#3",
                    "midi": 58,
                    "time": 431.25625000001634,
                    "velocity": 0.5748031496062992,
                    "duration": 0.17916666666667425
                },
                {
                    "name": "E4",
                    "midi": 64,
                    "time": 431.4083333333497,
                    "velocity": 0.5433070866141733,
                    "duration": 0.12291666666664014
                },
                {
                    "name": "F#4",
                    "midi": 66,
                    "time": 431.4875000000163,
                    "velocity": 0.5433070866141733,
                    "duration": 0.10833333333334849
                },
                {
                    "name": "A#4",
                    "midi": 70,
                    "time": 431.5500000000163,
                    "velocity": 0.5984251968503937,
                    "duration": 0.09583333333335986
                },
                {
                    "name": "E5",
                    "midi": 76,
                    "time": 431.6270833333497,
                    "velocity": 0.6692913385826772,
                    "duration": 0.6291666666667766
                },
                {
                    "name": "A#4",
                    "midi": 70,
                    "time": 431.7145833333497,
                    "velocity": 0.49606299212598426,
                    "duration": 0.49583333333339397
                },
                {
                    "name": "E4",
                    "midi": 64,
                    "time": 431.74166666668305,
                    "velocity": 0.4251968503937008,
                    "duration": 0.09166666666664014
                },
                {
                    "name": "F#4",
                    "midi": 66,
                    "time": 431.81250000001637,
                    "velocity": 0.4330708661417323,
                    "duration": 0.3354166666667311
                },
                {
                    "name": "A#3",
                    "midi": 58,
                    "time": 431.82500000001636,
                    "velocity": 0.4645669291338583,
                    "duration": 0.09375
                },
                {
                    "name": "F#3",
                    "midi": 54,
                    "time": 431.9250000000164,
                    "velocity": 0.3779527559055118,
                    "duration": 0.041666666666685614
                },
                {
                    "name": "E3",
                    "midi": 52,
                    "time": 432.0479166666831,
                    "velocity": 0.3779527559055118,
                    "duration": 0.06666666666666288
                },
                {
                    "name": "F2",
                    "midi": 41,
                    "time": 432.2854166666831,
                    "velocity": 0.33070866141732286,
                    "duration": 0.22083333333330302
                },
                {
                    "name": "C#3",
                    "midi": 49,
                    "time": 432.43958333334973,
                    "velocity": 0.5826771653543307,
                    "duration": 0.11458333333331439
                },
                {
                    "name": "E3",
                    "midi": 52,
                    "time": 432.5458333333497,
                    "velocity": 0.4645669291338583,
                    "duration": 0.09583333333330302
                },
                {
                    "name": "F#3",
                    "midi": 54,
                    "time": 432.6833333333497,
                    "velocity": 0.6929133858267716,
                    "duration": 0.16041666666666288
                },
                {
                    "name": "A5",
                    "midi": 81,
                    "time": 432.7062500000164,
                    "velocity": 0.8188976377952756,
                    "duration": 0.12708333333330302
                },
                {
                    "name": "C#5",
                    "midi": 73,
                    "time": 432.71041666668305,
                    "velocity": 0.7322834645669292,
                    "duration": 0.15416666666664014
                },
                {
                    "name": "A4",
                    "midi": 69,
                    "time": 432.7270833333497,
                    "velocity": 0.2992125984251969,
                    "duration": 0.052083333333314386
                },
                {
                    "name": "A#3",
                    "midi": 58,
                    "time": 432.83541666668305,
                    "velocity": 0.5984251968503937,
                    "duration": 0.12291666666664014
                },
                {
                    "name": "E4",
                    "midi": 64,
                    "time": 432.99166666668305,
                    "velocity": 0.44881889763779526,
                    "duration": 0.12083333333333712
                },
                {
                    "name": "A#3",
                    "midi": 58,
                    "time": 433.09583333334973,
                    "velocity": 0.5039370078740157,
                    "duration": 0.18541666666669698
                },
                {
                    "name": "F#3",
                    "midi": 54,
                    "time": 433.27083333334974,
                    "velocity": 0.48031496062992124,
                    "duration": 0.09166666666669698
                },
                {
                    "name": "G5",
                    "midi": 79,
                    "time": 433.30000000001644,
                    "velocity": 0.7401574803149606,
                    "duration": 0.10000000000002274
                },
                {
                    "name": "G4",
                    "midi": 67,
                    "time": 433.3291666666831,
                    "velocity": 0.3228346456692913,
                    "duration": 0.11041666666670835
                },
                {
                    "name": "E3",
                    "midi": 52,
                    "time": 433.4812500000165,
                    "velocity": 0.5275590551181102,
                    "duration": 0.2541666666666629
                },
                {
                    "name": "C#3",
                    "midi": 49,
                    "time": 433.72291666668315,
                    "velocity": 0.5275590551181102,
                    "duration": 0.09375
                },
                {
                    "name": "A#1",
                    "midi": 34,
                    "time": 434.1770833333498,
                    "velocity": 0.6220472440944882,
                    "duration": 0.23958333333337123
                },
                {
                    "name": "C#5",
                    "midi": 73,
                    "time": 434.1833333333498,
                    "velocity": 0.5984251968503937,
                    "duration": 0.5854166666667311
                },
                {
                    "name": "C#4",
                    "midi": 61,
                    "time": 434.2000000000165,
                    "velocity": 0.33858267716535434,
                    "duration": 0.40625000000005684
                },
                {
                    "name": "A4",
                    "midi": 69,
                    "time": 434.22291666668315,
                    "velocity": 0.3858267716535433,
                    "duration": 0.4458333333333826
                },
                {
                    "name": "F3",
                    "midi": 53,
                    "time": 434.78958333334987,
                    "velocity": 0.5354330708661418,
                    "duration": 0.5104166666667425
                },
                {
                    "name": "F4",
                    "midi": 65,
                    "time": 435.2145833333499,
                    "velocity": 0.5590551181102362,
                    "duration": 0.04166666666674246
                },
                {
                    "name": "A#3",
                    "midi": 58,
                    "time": 435.23541666668325,
                    "velocity": 0.5748031496062992,
                    "duration": 0.0708333333333826
                },
                {
                    "name": "D5",
                    "midi": 74,
                    "time": 435.23541666668325,
                    "velocity": 0.5590551181102362,
                    "duration": 0.1645833333333826
                },
                {
                    "name": "D4",
                    "midi": 62,
                    "time": 435.2375000000166,
                    "velocity": 0.5669291338582677,
                    "duration": 0.03750000000002274
                },
                {
                    "name": "A#4",
                    "midi": 70,
                    "time": 435.2375000000166,
                    "velocity": 0.47244094488188976,
                    "duration": 0.08333333333337123
                },
                {
                    "name": "F5",
                    "midi": 77,
                    "time": 435.42083333334995,
                    "velocity": 0.6062992125984252,
                    "duration": 0.10208333333332575
                },
                {
                    "name": "A5",
                    "midi": 81,
                    "time": 435.43333333334994,
                    "velocity": 0.48031496062992124,
                    "duration": 0.11250000000001137
                },
                {
                    "name": "F1",
                    "midi": 29,
                    "time": 435.6666666666833,
                    "velocity": 0.7401574803149606,
                    "duration": 0.06458333333335986
                },
                {
                    "name": "F3",
                    "midi": 53,
                    "time": 436.15000000001663,
                    "velocity": 0.5196850393700787,
                    "duration": 0.6854166666665833
                },
                {
                    "name": "A#4",
                    "midi": 70,
                    "time": 436.15208333335,
                    "velocity": 0.5275590551181102,
                    "duration": 0.11458333333331439
                },
                {
                    "name": "D5",
                    "midi": 74,
                    "time": 436.1604166666833,
                    "velocity": 0.44881889763779526,
                    "duration": 0.2354166666666515
                },
                {
                    "name": "F5",
                    "midi": 77,
                    "time": 436.39791666668333,
                    "velocity": 0.5118110236220472,
                    "duration": 0.1312499999999659
                },
                {
                    "name": "A5",
                    "midi": 81,
                    "time": 436.4104166666833,
                    "velocity": 0.49606299212598426,
                    "duration": 0.13958333333329165
                },
                {
                    "name": "F4",
                    "midi": 65,
                    "time": 436.71458333334994,
                    "velocity": 0.4015748031496063,
                    "duration": 0.0999999999999659
                },
                {
                    "name": "A#3",
                    "midi": 58,
                    "time": 436.7312500000166,
                    "velocity": 0.3543307086614173,
                    "duration": 0.1312499999999659
                },
                {
                    "name": "D4",
                    "midi": 62,
                    "time": 436.7312500000166,
                    "velocity": 0.3937007874015748,
                    "duration": 0.10624999999998863
                },
                {
                    "name": "G2",
                    "midi": 43,
                    "time": 437.3666666666832,
                    "velocity": 0.5748031496062992,
                    "duration": 0.4500000000000455
                },
                {
                    "name": "B2",
                    "midi": 47,
                    "time": 437.71666666668324,
                    "velocity": 0.36220472440944884,
                    "duration": 0.20833333333337123
                },
                {
                    "name": "D#3",
                    "midi": 51,
                    "time": 437.86041666668325,
                    "velocity": 0.6220472440944882,
                    "duration": 0.14166666666670835
                },
                {
                    "name": "G3",
                    "midi": 55,
                    "time": 437.99583333334994,
                    "velocity": 0.5590551181102362,
                    "duration": 0.11041666666670835
                },
                {
                    "name": "G5",
                    "midi": 79,
                    "time": 438.14583333334997,
                    "velocity": 0.8031496062992126,
                    "duration": 1.0416666666668561
                },
                {
                    "name": "G4",
                    "midi": 67,
                    "time": 438.1541666666833,
                    "velocity": 0.5590551181102362,
                    "duration": 0.1645833333333826
                },
                {
                    "name": "B4",
                    "midi": 71,
                    "time": 438.15625000001666,
                    "velocity": 0.6850393700787402,
                    "duration": 1.1187500000002046
                },
                {
                    "name": "B3",
                    "midi": 59,
                    "time": 438.17916666668333,
                    "velocity": 0.23622047244094488,
                    "duration": 0.43333333333339397
                },
                {
                    "name": "D#4",
                    "midi": 63,
                    "time": 438.34583333335,
                    "velocity": 0.5826771653543307,
                    "duration": 0.1812500000000341
                },
                {
                    "name": "G4",
                    "midi": 67,
                    "time": 438.5125000000167,
                    "velocity": 0.5511811023622047,
                    "duration": 0.7562500000001364
                },
                {
                    "name": "D#4",
                    "midi": 63,
                    "time": 438.66458333335004,
                    "velocity": 0.5118110236220472,
                    "duration": 0.10416666666668561
                },
                {
                    "name": "B3",
                    "midi": 59,
                    "time": 438.7812500000167,
                    "velocity": 0.4251968503937008,
                    "duration": 0.04583333333334849
                },
                {
                    "name": "G3",
                    "midi": 55,
                    "time": 438.90000000001675,
                    "velocity": 0.5748031496062992,
                    "duration": 0.10833333333334849
                },
                {
                    "name": "D#3",
                    "midi": 51,
                    "time": 439.0145833333501,
                    "velocity": 0.6299212598425197,
                    "duration": 0.05833333333333712
                },
                {
                    "name": "B2",
                    "midi": 47,
                    "time": 439.1187500000168,
                    "velocity": 0.2283464566929134,
                    "duration": 0.11458333333337123
                },
                {
                    "name": "G2",
                    "midi": 43,
                    "time": 439.2333333333502,
                    "velocity": 0.5826771653543307,
                    "duration": 0.2125000000000341
                },
                {
                    "name": "B2",
                    "midi": 47,
                    "time": 439.3458333333502,
                    "velocity": 0.47244094488188976,
                    "duration": 0.14583333333337123
                },
                {
                    "name": "D#3",
                    "midi": 51,
                    "time": 439.4458333333502,
                    "velocity": 0.7952755905511811,
                    "duration": 0.09583333333335986
                },
                {
                    "name": "G3",
                    "midi": 55,
                    "time": 439.5270833333502,
                    "velocity": 0.6614173228346457,
                    "duration": 0.08541666666667425
                },
                {
                    "name": "F5",
                    "midi": 77,
                    "time": 439.5604166666836,
                    "velocity": 0.8188976377952756,
                    "duration": 0.14999999999997726
                },
                {
                    "name": "B3",
                    "midi": 59,
                    "time": 439.65833333335024,
                    "velocity": 0.6771653543307087,
                    "duration": 0.15624999999994316
                },
                {
                    "name": "D#4",
                    "midi": 63,
                    "time": 439.76666666668353,
                    "velocity": 0.7716535433070866,
                    "duration": 0.09583333333330302
                },
                {
                    "name": "B3",
                    "midi": 59,
                    "time": 439.8645833333502,
                    "velocity": 0.33070866141732286,
                    "duration": 0.05624999999997726
                },
                {
                    "name": "D#5",
                    "midi": 75,
                    "time": 439.96250000001686,
                    "velocity": 0.8661417322834646,
                    "duration": 0.1395833333333485
                },
                {
                    "name": "G4",
                    "midi": 67,
                    "time": 439.97291666668355,
                    "velocity": 0.7322834645669292,
                    "duration": 0.11874999999997726
                },
                {
                    "name": "D#4",
                    "midi": 63,
                    "time": 439.99166666668356,
                    "velocity": 0.5984251968503937,
                    "duration": 0.039583333333325754
                },
                {
                    "name": "G3",
                    "midi": 55,
                    "time": 440.00208333335024,
                    "velocity": 0.5905511811023622,
                    "duration": 0.10833333333329165
                },
                {
                    "name": "D#3",
                    "midi": 51,
                    "time": 440.12916666668355,
                    "velocity": 0.6614173228346457,
                    "duration": 0.08541666666667425
                },
                {
                    "name": "B2",
                    "midi": 47,
                    "time": 440.23125000001687,
                    "velocity": 0.5118110236220472,
                    "duration": 0.041666666666685614
                },
                {
                    "name": "F#4",
                    "midi": 66,
                    "time": 440.46041666668356,
                    "velocity": 0.8188976377952756,
                    "duration": 0.43125000000009095
                },
                {
                    "name": "C2",
                    "midi": 36,
                    "time": 440.47291666668355,
                    "velocity": 0.5984251968503937,
                    "duration": 0.1791666666667311
                },
                {
                    "name": "F#3",
                    "midi": 54,
                    "time": 440.48333333335023,
                    "velocity": 0.5826771653543307,
                    "duration": 0.26458333333340533
                },
                {
                    "name": "D4",
                    "midi": 62,
                    "time": 440.4854166666836,
                    "velocity": 0.6377952755905512,
                    "duration": 0.3312500000000682
                },
                {
                    "name": "D#3",
                    "midi": 51,
                    "time": 440.99166666668367,
                    "velocity": 0.6456692913385826,
                    "duration": 0.5416666666666856
                },
                {
                    "name": "D#4",
                    "midi": 63,
                    "time": 441.5083333333503,
                    "velocity": 0.5275590551181102,
                    "duration": 0.08333333333337123
                },
                {
                    "name": "G4",
                    "midi": 67,
                    "time": 441.5104166666837,
                    "velocity": 0.5275590551181102,
                    "duration": 0.24375000000009095
                },
                {
                    "name": "D4",
                    "midi": 62,
                    "time": 441.52291666668367,
                    "velocity": 0.3464566929133858,
                    "duration": 0.13541666666674246
                },
                {
                    "name": "B3",
                    "midi": 59,
                    "time": 441.5291666666837,
                    "velocity": 0.33070866141732286,
                    "duration": 0.06875000000002274
                },
                {
                    "name": "G3",
                    "midi": 55,
                    "time": 441.54583333335034,
                    "velocity": 0.3858267716535433,
                    "duration": 0.09791666666671972
                },
                {
                    "name": "B4",
                    "midi": 71,
                    "time": 441.7229166666838,
                    "velocity": 0.4881889763779528,
                    "duration": 0.11250000000001137
                },
                {
                    "name": "D5",
                    "midi": 74,
                    "time": 441.7500000000171,
                    "velocity": 0.36220472440944884,
                    "duration": 0.10624999999998863
                },
                {
                    "name": "C2",
                    "midi": 36,
                    "time": 441.9583333333504,
                    "velocity": 0.7007874015748031,
                    "duration": 0.07708333333340533
                },
                {
                    "name": "D5",
                    "midi": 74,
                    "time": 442.39791666668384,
                    "velocity": 0.7795275590551181,
                    "duration": 1.147916666666731
                },
                {
                    "name": "D#3",
                    "midi": 51,
                    "time": 442.4020833333505,
                    "velocity": 0.5748031496062992,
                    "duration": 0.45625000000001137
                },
                {
                    "name": "D#4",
                    "midi": 63,
                    "time": 442.40416666668386,
                    "velocity": 0.5826771653543307,
                    "duration": 0.15833333333330302
                },
                {
                    "name": "B4",
                    "midi": 71,
                    "time": 442.4083333333505,
                    "velocity": 0.6456692913385826,
                    "duration": 1.1875000000000568
                },
                {
                    "name": "G4",
                    "midi": 67,
                    "time": 442.41666666668385,
                    "velocity": 0.5748031496062992,
                    "duration": 1.2062500000000682
                },
                {
                    "name": "D#4",
                    "midi": 63,
                    "time": 442.8458333333505,
                    "velocity": 0.6535433070866141,
                    "duration": 0.052083333333314386
                },
                {
                    "name": "B3",
                    "midi": 59,
                    "time": 442.85416666668385,
                    "velocity": 0.4251968503937008,
                    "duration": 0.04583333333334849
                },
                {
                    "name": "G3",
                    "midi": 55,
                    "time": 442.88750000001716,
                    "velocity": 0.3228346456692913,
                    "duration": 0.06250000000005684
                },
                {
                    "name": "F1",
                    "midi": 29,
                    "time": 443.4083333333505,
                    "velocity": 0.5354330708661418,
                    "duration": 0.20000000000004547
                },
                {
                    "name": "F2",
                    "midi": 41,
                    "time": 443.4291666666839,
                    "velocity": 0.4251968503937008,
                    "duration": 0.23958333333337123
                },
                {
                    "name": "C4",
                    "midi": 60,
                    "time": 444.0020833333506,
                    "velocity": 0.49606299212598426,
                    "duration": 0.06666666666666288
                },
                {
                    "name": "D#4",
                    "midi": 63,
                    "time": 444.0291666666839,
                    "velocity": 0.5433070866141733,
                    "duration": 0.06875000000002274
                },
                {
                    "name": "F3",
                    "midi": 53,
                    "time": 444.05833333335056,
                    "velocity": 0.3228346456692913,
                    "duration": 0.2750000000000341
                },
                {
                    "name": "G4",
                    "midi": 67,
                    "time": 444.07500000001727,
                    "velocity": 0.3937007874015748,
                    "duration": 0.10624999999998863
                },
                {
                    "name": "C5",
                    "midi": 72,
                    "time": 444.0937500000173,
                    "velocity": 0.7244094488188977,
                    "duration": 0.08958333333333712
                },
                {
                    "name": "F4",
                    "midi": 65,
                    "time": 444.6708333333506,
                    "velocity": 0.5669291338582677,
                    "duration": 0.08750000000009095
                },
                {
                    "name": "G3",
                    "midi": 55,
                    "time": 444.6791666666839,
                    "velocity": 0.5984251968503937,
                    "duration": 0.05416666666673109
                },
                {
                    "name": "D#4",
                    "midi": 63,
                    "time": 444.68125000001726,
                    "velocity": 0.6850393700787402,
                    "duration": 0.07291666666674246
                },
                {
                    "name": "F3",
                    "midi": 53,
                    "time": 444.6854166666839,
                    "velocity": 0.5511811023622047,
                    "duration": 0.058333333333393966
                },
                {
                    "name": "A#3",
                    "midi": 58,
                    "time": 444.6895833333506,
                    "velocity": 0.5511811023622047,
                    "duration": 0.03750000000002274
                },
                {
                    "name": "A#1",
                    "midi": 34,
                    "time": 445.1375000000173,
                    "velocity": 0.7086614173228346,
                    "duration": 0.1583333333334167
                },
                {
                    "name": "A#3",
                    "midi": 58,
                    "time": 445.147916666684,
                    "velocity": 0.5984251968503937,
                    "duration": 0.30625000000009095
                },
                {
                    "name": "G3",
                    "midi": 55,
                    "time": 445.15000000001737,
                    "velocity": 0.2283464566929134,
                    "duration": 0.05208333333337123
                },
                {
                    "name": "G4",
                    "midi": 67,
                    "time": 445.16041666668406,
                    "velocity": 0.7086614173228346,
                    "duration": 0.3562500000000455
                },
                {
                    "name": "D4",
                    "midi": 62,
                    "time": 445.1666666666841,
                    "velocity": 0.6614173228346457,
                    "duration": 0.3479166666666629
                },
                {
                    "name": "A#2",
                    "midi": 46,
                    "time": 445.17083333335074,
                    "velocity": 0.7559055118110236,
                    "duration": 0.1875
                },
                {
                    "name": "F3",
                    "midi": 53,
                    "time": 445.59375000001745,
                    "velocity": 0.6929133858267716,
                    "duration": 0.5041666666666629
                },
                {
                    "name": "A#3",
                    "midi": 58,
                    "time": 445.9729166666841,
                    "velocity": 0.47244094488188976,
                    "duration": 0.11250000000001137
                },
                {
                    "name": "A#4",
                    "midi": 70,
                    "time": 445.9937500000174,
                    "velocity": 0.7559055118110236,
                    "duration": 0.4833333333333485
                },
                {
                    "name": "F4",
                    "midi": 65,
                    "time": 446.00000000001745,
                    "velocity": 0.5511811023622047,
                    "duration": 0.36874999999997726
                },
                {
                    "name": "D4",
                    "midi": 62,
                    "time": 446.0041666666841,
                    "velocity": 0.5433070866141733,
                    "duration": 0.40625
                },
                {
                    "name": "A#1",
                    "midi": 34,
                    "time": 446.47083333335075,
                    "velocity": 0.6299212598425197,
                    "duration": 0.06041666666669698
                },
                {
                    "name": "A#2",
                    "midi": 46,
                    "time": 446.4770833333508,
                    "velocity": 0.8188976377952756,
                    "duration": 0.08333333333331439
                },
                {
                    "name": "D5",
                    "midi": 74,
                    "time": 446.8791666666841,
                    "velocity": 0.7952755905511811,
                    "duration": 0.43958333333347355
                },
                {
                    "name": "F3",
                    "midi": 53,
                    "time": 446.89375000001746,
                    "velocity": 0.6771653543307087,
                    "duration": 0.5437500000001592
                },
                {
                    "name": "A4",
                    "midi": 69,
                    "time": 446.9000000000175,
                    "velocity": 0.6850393700787402,
                    "duration": 0.3812500000000796
                },
                {
                    "name": "D4",
                    "midi": 62,
                    "time": 446.90208333335084,
                    "velocity": 0.7244094488188977,
                    "duration": 0.28333333333335986
                },
                {
                    "name": "F4",
                    "midi": 65,
                    "time": 446.91250000001753,
                    "velocity": 0.6850393700787402,
                    "duration": 0.3062500000000341
                },
                {
                    "name": "D4",
                    "midi": 62,
                    "time": 447.3166666666842,
                    "velocity": 0.84251968503937,
                    "duration": 0.0708333333333826
                },
                {
                    "name": "A3",
                    "midi": 57,
                    "time": 447.32083333335095,
                    "velocity": 0.6850393700787402,
                    "duration": 0.07916666666665151
                },
                {
                    "name": "F5",
                    "midi": 77,
                    "time": 447.8125000000176,
                    "velocity": 0.8582677165354331,
                    "duration": 0.279166666666697
                },
                {
                    "name": "D5",
                    "midi": 74,
                    "time": 447.8166666666843,
                    "velocity": 0.7559055118110236,
                    "duration": 0.27291666666667425
                },
                {
                    "name": "A#1",
                    "midi": 34,
                    "time": 447.8229166666843,
                    "velocity": 0.7559055118110236,
                    "duration": 0.125
                },
                {
                    "name": "A#4",
                    "midi": 70,
                    "time": 447.8229166666843,
                    "velocity": 0.7637795275590551,
                    "duration": 0.24374999999997726
                },
                {
                    "name": "A#2",
                    "midi": 46,
                    "time": 447.8354166666843,
                    "velocity": 0.7795275590551181,
                    "duration": 0.1875
                },
                {
                    "name": "F4",
                    "midi": 65,
                    "time": 447.83750000001766,
                    "velocity": 0.6141732283464567,
                    "duration": 0.20833333333331439
                },
                {
                    "name": "G4",
                    "midi": 67,
                    "time": 447.83750000001766,
                    "velocity": 0.6614173228346457,
                    "duration": 0.20624999999995453
                },
                {
                    "name": "G5",
                    "midi": 79,
                    "time": 448.3854166666843,
                    "velocity": 0.7952755905511811,
                    "duration": 0.22083333333335986
                },
                {
                    "name": "G4",
                    "midi": 67,
                    "time": 448.4041666666843,
                    "velocity": 0.5433070866141733,
                    "duration": 0.07916666666670835
                },
                {
                    "name": "A#3",
                    "midi": 58,
                    "time": 448.408333333351,
                    "velocity": 0.5196850393700787,
                    "duration": 0.6312500000000227
                },
                {
                    "name": "D4",
                    "midi": 62,
                    "time": 448.41875000001767,
                    "velocity": 0.47244094488188976,
                    "duration": 0.5354166666666629
                },
                {
                    "name": "F6",
                    "midi": 89,
                    "time": 449.15000000001766,
                    "velocity": 0.5748031496062992,
                    "duration": 2.714583333333451
                },
                {
                    "name": "C#6",
                    "midi": 85,
                    "time": 449.152083333351,
                    "velocity": 0.5590551181102362,
                    "duration": 2.8875000000001023
                },
                {
                    "name": "F5",
                    "midi": 77,
                    "time": 449.18125000001766,
                    "velocity": 0.2755905511811024,
                    "duration": 2.741666666666788
                },
                {
                    "name": "A2",
                    "midi": 45,
                    "time": 449.8979166666843,
                    "velocity": 0.4015748031496063,
                    "duration": 0.20625000000001137
                },
                {
                    "name": "G3",
                    "midi": 55,
                    "time": 450.52500000001766,
                    "velocity": 0.14173228346456693,
                    "duration": 0.10833333333334849
                },
                {
                    "name": "A3",
                    "midi": 57,
                    "time": 450.5604166666843,
                    "velocity": 0.10236220472440945,
                    "duration": 0.18541666666669698
                },
                {
                    "name": "C#4",
                    "midi": 61,
                    "time": 450.69166666668434,
                    "velocity": 0.11023622047244094,
                    "duration": 0.3395833333333371
                },
                {
                    "name": "B3",
                    "midi": 59,
                    "time": 450.6937500000177,
                    "velocity": 0.03937007874015748,
                    "duration": 0.14791666666667425
                },
                {
                    "name": "A4",
                    "midi": 69,
                    "time": 450.79166666668436,
                    "velocity": 0.33858267716535434,
                    "duration": 0.16666666666668561
                },
                {
                    "name": "C4",
                    "midi": 60,
                    "time": 450.795833333351,
                    "velocity": 0.047244094488188976,
                    "duration": 0.12291666666669698
                },
                {
                    "name": "F4",
                    "midi": 65,
                    "time": 450.7979166666844,
                    "velocity": 0.07086614173228346,
                    "duration": 0.18124999999997726
                },
                {
                    "name": "D4",
                    "midi": 62,
                    "time": 450.87708333335104,
                    "velocity": 0.05511811023622047,
                    "duration": 0.11874999999997726
                },
                {
                    "name": "E4",
                    "midi": 64,
                    "time": 450.9541666666844,
                    "velocity": 0.07086614173228346,
                    "duration": 0.10624999999998863
                },
                {
                    "name": "F4",
                    "midi": 65,
                    "time": 451.0187500000177,
                    "velocity": 0.09448818897637795,
                    "duration": 0.09583333333335986
                },
                {
                    "name": "G4",
                    "midi": 67,
                    "time": 451.058333333351,
                    "velocity": 0.2204724409448819,
                    "duration": 0.11041666666670835
                },
                {
                    "name": "A4",
                    "midi": 69,
                    "time": 451.1125000000177,
                    "velocity": 0.18110236220472442,
                    "duration": 0.10416666666668561
                },
                {
                    "name": "B4",
                    "midi": 71,
                    "time": 451.16458333335106,
                    "velocity": 0.2204724409448819,
                    "duration": 0.09791666666671972
                },
                {
                    "name": "C5",
                    "midi": 72,
                    "time": 451.21875000001774,
                    "velocity": 0.23622047244094488,
                    "duration": 0.09166666666669698
                },
                {
                    "name": "D5",
                    "midi": 74,
                    "time": 451.2604166666844,
                    "velocity": 0.30708661417322836,
                    "duration": 0.10000000000002274
                },
                {
                    "name": "E5",
                    "midi": 76,
                    "time": 451.31041666668443,
                    "velocity": 0.30708661417322836,
                    "duration": 0.10000000000002274
                },
                {
                    "name": "G5",
                    "midi": 79,
                    "time": 451.40000000001777,
                    "velocity": 0.36220472440944884,
                    "duration": 0.10625000000004547
                },
                {
                    "name": "A5",
                    "midi": 81,
                    "time": 451.4479166666845,
                    "velocity": 0.3228346456692913,
                    "duration": 0.11041666666665151
                },
                {
                    "name": "B5",
                    "midi": 83,
                    "time": 451.5062500000178,
                    "velocity": 0.2440944881889764,
                    "duration": 0.11041666666659467
                },
                {
                    "name": "C6",
                    "midi": 84,
                    "time": 451.58750000001777,
                    "velocity": 0.11023622047244094,
                    "duration": 0.09374999999994316
                },
                {
                    "name": "D6",
                    "midi": 86,
                    "time": 451.62500000001774,
                    "velocity": 0.3858267716535433,
                    "duration": 0.11874999999997726
                },
                {
                    "name": "E6",
                    "midi": 88,
                    "time": 451.6937500000177,
                    "velocity": 0.23622047244094488,
                    "duration": 0.11458333333337123
                },
                {
                    "name": "A2",
                    "midi": 45,
                    "time": 451.77083333335105,
                    "velocity": 0.4566929133858268,
                    "duration": 0.11041666666670835
                },
                {
                    "name": "G6",
                    "midi": 91,
                    "time": 451.8145833333511,
                    "velocity": 0.3700787401574803,
                    "duration": 0.10416666666668561
                },
                {
                    "name": "A6",
                    "midi": 93,
                    "time": 451.87291666668443,
                    "velocity": 0.36220472440944884,
                    "duration": 0.21041666666667425
                },
                {
                    "name": "G6",
                    "midi": 91,
                    "time": 452.11666666668447,
                    "velocity": 0.06299212598425197,
                    "duration": 0.06666666666666288
                },
                {
                    "name": "F6",
                    "midi": 89,
                    "time": 452.15208333335113,
                    "velocity": 0.08661417322834646,
                    "duration": 0.10000000000002274
                },
                {
                    "name": "E6",
                    "midi": 88,
                    "time": 452.1875000000178,
                    "velocity": 0.2125984251968504,
                    "duration": 0.12083333333339397
                },
                {
                    "name": "C#4",
                    "midi": 61,
                    "time": 452.2312500000178,
                    "velocity": 0.08661417322834646,
                    "duration": 0.32708333333340533
                },
                {
                    "name": "F4",
                    "midi": 65,
                    "time": 452.2500000000178,
                    "velocity": 0.3228346456692913,
                    "duration": 0.2333333333333485
                },
                {
                    "name": "D6",
                    "midi": 86,
                    "time": 452.2541666666845,
                    "velocity": 0.07086614173228346,
                    "duration": 0.11250000000001137
                },
                {
                    "name": "A4",
                    "midi": 69,
                    "time": 452.3041666666845,
                    "velocity": 0.4094488188976378,
                    "duration": 0.17083333333329165
                },
                {
                    "name": "C6",
                    "midi": 84,
                    "time": 452.3479166666845,
                    "velocity": 0.03937007874015748,
                    "duration": 0.07499999999998863
                },
                {
                    "name": "D#6",
                    "midi": 87,
                    "time": 452.3520833333512,
                    "velocity": 0.8110236220472441,
                    "duration": 0.3645833333333144
                },
                {
                    "name": "D#5",
                    "midi": 75,
                    "time": 452.3770833333512,
                    "velocity": 0.4409448818897638,
                    "duration": 0.25624999999990905
                },
                {
                    "name": "B5",
                    "midi": 83,
                    "time": 452.39375000001786,
                    "velocity": 0.05511811023622047,
                    "duration": 0.0854166666666174
                },
                {
                    "name": "A5",
                    "midi": 81,
                    "time": 452.4104166666845,
                    "velocity": 0.25196850393700787,
                    "duration": 0.6354166666667425
                },
                {
                    "name": "G5",
                    "midi": 79,
                    "time": 452.4937500000178,
                    "velocity": 0.05511811023622047,
                    "duration": 0.09375
                },
                {
                    "name": "F5",
                    "midi": 77,
                    "time": 452.55208333335116,
                    "velocity": 0.05511811023622047,
                    "duration": 0.09375
                },
                {
                    "name": "E5",
                    "midi": 76,
                    "time": 452.6041666666845,
                    "velocity": 0.05511811023622047,
                    "duration": 0.09583333333335986
                },
                {
                    "name": "D5",
                    "midi": 74,
                    "time": 452.6437500000178,
                    "velocity": 0.08661417322834646,
                    "duration": 0.10833333333334849
                },
                {
                    "name": "C5",
                    "midi": 72,
                    "time": 452.68750000001785,
                    "velocity": 0.11811023622047244,
                    "duration": 0.12291666666664014
                },
                {
                    "name": "B4",
                    "midi": 71,
                    "time": 452.7354166666845,
                    "velocity": 0.11023622047244094,
                    "duration": 0.13333333333332575
                },
                {
                    "name": "A4",
                    "midi": 69,
                    "time": 452.79375000001784,
                    "velocity": 0.07874015748031496,
                    "duration": 0.13541666666668561
                },
                {
                    "name": "G4",
                    "midi": 67,
                    "time": 452.8541666666845,
                    "velocity": 0.07086614173228346,
                    "duration": 0.13541666666674246
                },
                {
                    "name": "F4",
                    "midi": 65,
                    "time": 452.9229166666845,
                    "velocity": 0.05511811023622047,
                    "duration": 0.12291666666675383
                },
                {
                    "name": "C#6",
                    "midi": 85,
                    "time": 452.9770833333512,
                    "velocity": 0.7165354330708661,
                    "duration": 0.1520833333334508
                },
                {
                    "name": "E4",
                    "midi": 64,
                    "time": 452.97916666668453,
                    "velocity": 0.06299212598425197,
                    "duration": 0.13125000000007958
                },
                {
                    "name": "C#5",
                    "midi": 73,
                    "time": 452.99791666668455,
                    "velocity": 0.28346456692913385,
                    "duration": 0.16250000000007958
                },
                {
                    "name": "D4",
                    "midi": 62,
                    "time": 453.0437500000179,
                    "velocity": 0.06299212598425197,
                    "duration": 0.12291666666675383
                },
                {
                    "name": "C4",
                    "midi": 60,
                    "time": 453.1041666666846,
                    "velocity": 0.06299212598425197,
                    "duration": 0.12083333333339397
                },
                {
                    "name": "B3",
                    "midi": 59,
                    "time": 453.1604166666846,
                    "velocity": 0.07086614173228346,
                    "duration": 0.13333333333332575
                },
                {
                    "name": "A3",
                    "midi": 57,
                    "time": 453.200000000018,
                    "velocity": 0.14960629921259844,
                    "duration": 0.16041666666660603
                },
                {
                    "name": "G3",
                    "midi": 55,
                    "time": 453.2541666666846,
                    "velocity": 0.23622047244094488,
                    "duration": 0.1708333333333485
                },
                {
                    "name": "F3",
                    "midi": 53,
                    "time": 453.362500000018,
                    "velocity": 0.047244094488188976,
                    "duration": 0.11249999999995453
                },
                {
                    "name": "E3",
                    "midi": 52,
                    "time": 453.4458333333513,
                    "velocity": 0.03937007874015748,
                    "duration": 0.06041666666664014
                },
                {
                    "name": "D#2",
                    "midi": 39,
                    "time": 453.65000000001794,
                    "velocity": 0.41732283464566927,
                    "duration": 0.27499999999997726
                },
                {
                    "name": "F5",
                    "midi": 77,
                    "time": 453.71250000001794,
                    "velocity": 0.5748031496062992,
                    "duration": 0.59375
                },
                {
                    "name": "A4",
                    "midi": 69,
                    "time": 453.7375000000179,
                    "velocity": 0.4094488188976378,
                    "duration": 0.4375
                },
                {
                    "name": "F4",
                    "midi": 65,
                    "time": 453.75416666668457,
                    "velocity": 0.3464566929133858,
                    "duration": 0.36666666666667425
                },
                {
                    "name": "A#3",
                    "midi": 58,
                    "time": 454.3187500000179,
                    "velocity": 0.44881889763779526,
                    "duration": 0.21041666666667425
                },
                {
                    "name": "F#5",
                    "midi": 78,
                    "time": 454.80833333335124,
                    "velocity": 0.6535433070866141,
                    "duration": 0.18333333333333712
                },
                {
                    "name": "A#4",
                    "midi": 70,
                    "time": 454.80833333335124,
                    "velocity": 0.5590551181102362,
                    "duration": 0.05000000000001137
                },
                {
                    "name": "D#4",
                    "midi": 63,
                    "time": 454.82916666668456,
                    "velocity": 0.5118110236220472,
                    "duration": 0.05416666666673109
                },
                {
                    "name": "F#4",
                    "midi": 66,
                    "time": 454.8312500000179,
                    "velocity": 0.47244094488188976,
                    "duration": 0.041666666666685614
                },
                {
                    "name": "A#5",
                    "midi": 82,
                    "time": 455.0062500000179,
                    "velocity": 0.6220472440944882,
                    "duration": 0.0875000000000341
                },
                {
                    "name": "C#6",
                    "midi": 85,
                    "time": 455.01250000001795,
                    "velocity": 0.5905511811023622,
                    "duration": 0.10416666666668561
                },
                {
                    "name": "C#5",
                    "midi": 73,
                    "time": 455.0166666666846,
                    "velocity": 0.5511811023622047,
                    "duration": 0.06458333333335986
                },
                {
                    "name": "D#2",
                    "midi": 39,
                    "time": 455.26250000001795,
                    "velocity": 0.7086614173228346,
                    "duration": 0.06875000000002274
                },
                {
                    "name": "A#3",
                    "midi": 58,
                    "time": 455.63541666668465,
                    "velocity": 0.6062992125984252,
                    "duration": 0.2437500000000341
                },
                {
                    "name": "F#5",
                    "midi": 78,
                    "time": 455.662500000018,
                    "velocity": 0.8110236220472441,
                    "duration": 0.18541666666669698
                },
                {
                    "name": "A#5",
                    "midi": 82,
                    "time": 455.831250000018,
                    "velocity": 0.6850393700787402,
                    "duration": 0.08541666666673109
                },
                {
                    "name": "C#6",
                    "midi": 85,
                    "time": 455.83333333335133,
                    "velocity": 0.6929133858267716,
                    "duration": 0.10416666666668561
                },
                {
                    "name": "C#5",
                    "midi": 73,
                    "time": 455.8479166666847,
                    "velocity": 0.5984251968503937,
                    "duration": 0.04583333333334849
                },
                {
                    "name": "A#4",
                    "midi": 70,
                    "time": 456.0645833333514,
                    "velocity": 0.6850393700787402,
                    "duration": 0.039583333333325754
                },
                {
                    "name": "D#4",
                    "midi": 63,
                    "time": 456.07708333335137,
                    "velocity": 0.6299212598425197,
                    "duration": 0.0625
                },
                {
                    "name": "F#4",
                    "midi": 66,
                    "time": 456.0791666666847,
                    "velocity": 0.5905511811023622,
                    "duration": 0.03541666666666288
                },
                {
                    "name": "G#2",
                    "midi": 44,
                    "time": 456.6666666666847,
                    "velocity": 0.5433070866141733,
                    "duration": 0.20416666666670835
                },
                {
                    "name": "G3",
                    "midi": 55,
                    "time": 457.25416666668474,
                    "velocity": 0.15748031496062992,
                    "duration": 0.09166666666664014
                },
                {
                    "name": "A3",
                    "midi": 57,
                    "time": 457.2895833333514,
                    "velocity": 0.10236220472440945,
                    "duration": 0.14791666666667425
                },
                {
                    "name": "B3",
                    "midi": 59,
                    "time": 457.3958333333514,
                    "velocity": 0.03937007874015748,
                    "duration": 0.11041666666665151
                },
                {
                    "name": "A3",
                    "midi": 57,
                    "time": 457.46250000001805,
                    "velocity": 0.12598425196850394,
                    "duration": 0.2645833333334622
                },
                {
                    "name": "C4",
                    "midi": 60,
                    "time": 457.4791666666847,
                    "velocity": 0.09448818897637795,
                    "duration": 0.09166666666669698
                },
                {
                    "name": "C#4",
                    "midi": 61,
                    "time": 457.48333333335137,
                    "velocity": 0.36220472440944884,
                    "duration": 0.20208333333346218
                },
                {
                    "name": "D4",
                    "midi": 62,
                    "time": 457.5395833333514,
                    "velocity": 0.1732283464566929,
                    "duration": 0.09791666666671972
                },
                {
                    "name": "G4",
                    "midi": 67,
                    "time": 457.57291666668476,
                    "velocity": 0.08661417322834646,
                    "duration": 0.1020833333333826
                },
                {
                    "name": "C#5",
                    "midi": 73,
                    "time": 457.5791666666848,
                    "velocity": 0.3700787401574803,
                    "duration": 1.2812500000002274
                },
                {
                    "name": "E4",
                    "midi": 64,
                    "time": 457.6000000000181,
                    "velocity": 0.25984251968503935,
                    "duration": 0.09791666666671972
                },
                {
                    "name": "C#6",
                    "midi": 85,
                    "time": 457.6208333333514,
                    "velocity": 0.5275590551181102,
                    "duration": 1.2208333333335872
                },
                {
                    "name": "A5",
                    "midi": 81,
                    "time": 457.6229166666848,
                    "velocity": 0.3700787401574803,
                    "duration": 1.1937500000002501
                },
                {
                    "name": "F4",
                    "midi": 65,
                    "time": 457.66458333335146,
                    "velocity": 0.3228346456692913,
                    "duration": 0.0958333333334167
                },
                {
                    "name": "G4",
                    "midi": 67,
                    "time": 457.71666666668483,
                    "velocity": 0.33858267716535434,
                    "duration": 0.09583333333335986
                },
                {
                    "name": "A4",
                    "midi": 69,
                    "time": 457.7687500000182,
                    "velocity": 0.3700787401574803,
                    "duration": 0.10208333333332575
                },
                {
                    "name": "B4",
                    "midi": 71,
                    "time": 457.8187500000182,
                    "velocity": 0.4094488188976378,
                    "duration": 0.09583333333335986
                },
                {
                    "name": "C5",
                    "midi": 72,
                    "time": 457.87708333335155,
                    "velocity": 0.3700787401574803,
                    "duration": 0.09166666666669698
                },
                {
                    "name": "D5",
                    "midi": 74,
                    "time": 457.92500000001826,
                    "velocity": 0.4251968503937008,
                    "duration": 0.09375
                },
                {
                    "name": "E5",
                    "midi": 76,
                    "time": 457.9708333333516,
                    "velocity": 0.44881889763779526,
                    "duration": 0.09166666666669698
                },
                {
                    "name": "F5",
                    "midi": 77,
                    "time": 458.0250000000183,
                    "velocity": 0.3779527559055118,
                    "duration": 0.09791666666671972
                },
                {
                    "name": "G5",
                    "midi": 79,
                    "time": 458.07708333335165,
                    "velocity": 0.3858267716535433,
                    "duration": 0.08958333333333712
                },
                {
                    "name": "B5",
                    "midi": 83,
                    "time": 458.16875000001835,
                    "velocity": 0.44881889763779526,
                    "duration": 0.11041666666665151
                },
                {
                    "name": "C6",
                    "midi": 84,
                    "time": 458.23125000001835,
                    "velocity": 0.4330708661417323,
                    "duration": 0.10208333333332575
                },
                {
                    "name": "D6",
                    "midi": 86,
                    "time": 458.28125000001836,
                    "velocity": 0.4645669291338583,
                    "duration": 0.11458333333331439
                },
                {
                    "name": "E6",
                    "midi": 88,
                    "time": 458.35833333335165,
                    "velocity": 0.4094488188976378,
                    "duration": 0.10624999999998863
                },
                {
                    "name": "F6",
                    "midi": 89,
                    "time": 458.4250000000183,
                    "velocity": 0.4094488188976378,
                    "duration": 0.15833333333335986
                },
                {
                    "name": "G#2",
                    "midi": 44,
                    "time": 458.5500000000183,
                    "velocity": 0.6377952755905512,
                    "duration": 0.23541666666670835
                },
                {
                    "name": "D6",
                    "midi": 86,
                    "time": 458.7270833333517,
                    "velocity": 0.03937007874015748,
                    "duration": 0.08749999999997726
                },
                {
                    "name": "C6",
                    "midi": 84,
                    "time": 458.747916666685,
                    "velocity": 0.047244094488188976,
                    "duration": 0.13125000000002274
                },
                {
                    "name": "B5",
                    "midi": 83,
                    "time": 458.83750000001834,
                    "velocity": 0.03937007874015748,
                    "duration": 0.09583333333335986
                },
                {
                    "name": "A5",
                    "midi": 81,
                    "time": 458.8812500000184,
                    "velocity": 0.05511811023622047,
                    "duration": 0.10208333333332575
                },
                {
                    "name": "G5",
                    "midi": 79,
                    "time": 458.9520833333517,
                    "velocity": 0.047244094488188976,
                    "duration": 0.08958333333333712
                },
                {
                    "name": "F5",
                    "midi": 77,
                    "time": 458.98958333335173,
                    "velocity": 0.08661417322834646,
                    "duration": 0.10208333333332575
                },
                {
                    "name": "E5",
                    "midi": 76,
                    "time": 459.0333333333517,
                    "velocity": 0.11023622047244094,
                    "duration": 0.11041666666665151
                },
                {
                    "name": "D5",
                    "midi": 74,
                    "time": 459.07916666668507,
                    "velocity": 0.09448818897637795,
                    "duration": 0.11041666666665151
                },
                {
                    "name": "A3",
                    "midi": 57,
                    "time": 459.11666666668503,
                    "velocity": 0.09448818897637795,
                    "duration": 0.28958333333332575
                },
                {
                    "name": "C5",
                    "midi": 72,
                    "time": 459.12291666668506,
                    "velocity": 0.09448818897637795,
                    "duration": 0.19999999999998863
                },
                {
                    "name": "B4",
                    "midi": 71,
                    "time": 459.14583333335173,
                    "velocity": 0.29133858267716534,
                    "duration": 0.15208333333333712
                },
                {
                    "name": "C#4",
                    "midi": 61,
                    "time": 459.1750000000184,
                    "velocity": 0.5118110236220472,
                    "duration": 0.22291666666666288
                },
                {
                    "name": "A4",
                    "midi": 69,
                    "time": 459.19583333335174,
                    "velocity": 0.2677165354330709,
                    "duration": 0.15416666666664014
                },
                {
                    "name": "C6",
                    "midi": 84,
                    "time": 459.21666666668506,
                    "velocity": 0.7322834645669292,
                    "duration": 0.14999999999997726
                },
                {
                    "name": "G4",
                    "midi": 67,
                    "time": 459.22708333335174,
                    "velocity": 0.4251968503937008,
                    "duration": 0.1791666666666174
                },
                {
                    "name": "E5",
                    "midi": 76,
                    "time": 459.23958333335173,
                    "velocity": 0.49606299212598426,
                    "duration": 0.14374999999995453
                },
                {
                    "name": "F4",
                    "midi": 65,
                    "time": 459.3458333333517,
                    "velocity": 0.05511811023622047,
                    "duration": 0.11250000000001137
                },
                {
                    "name": "E4",
                    "midi": 64,
                    "time": 459.3958333333517,
                    "velocity": 0.07874015748031496,
                    "duration": 0.12291666666669698
                },
                {
                    "name": "D4",
                    "midi": 62,
                    "time": 459.4520833333517,
                    "velocity": 0.07086614173228346,
                    "duration": 0.125
                },
                {
                    "name": "C4",
                    "midi": 60,
                    "time": 459.51041666668505,
                    "velocity": 0.07086614173228346,
                    "duration": 0.125
                },
                {
                    "name": "B3",
                    "midi": 59,
                    "time": 459.5375000000184,
                    "velocity": 0.23622047244094488,
                    "duration": 0.16458333333332575
                },
                {
                    "name": "A3",
                    "midi": 57,
                    "time": 459.6020833333517,
                    "velocity": 0.1968503937007874,
                    "duration": 0.16666666666668561
                },
                {
                    "name": "G3",
                    "midi": 55,
                    "time": 459.6750000000184,
                    "velocity": 0.13385826771653545,
                    "duration": 0.16666666666662877
                },
                {
                    "name": "A#5",
                    "midi": 82,
                    "time": 459.73541666668507,
                    "velocity": 0.7874015748031497,
                    "duration": 0.07499999999993179
                },
                {
                    "name": "A#4",
                    "midi": 70,
                    "time": 459.7437500000184,
                    "velocity": 0.8267716535433071,
                    "duration": 0.05833333333328028
                },
                {
                    "name": "F3",
                    "midi": 53,
                    "time": 459.77291666668503,
                    "velocity": 0.03937007874015748,
                    "duration": 0.1312499999999659
                },
                {
                    "name": "E3",
                    "midi": 52,
                    "time": 459.84375000001836,
                    "velocity": 0.03937007874015748,
                    "duration": 0.11041666666665151
                },
                {
                    "name": "C#2",
                    "midi": 37,
                    "time": 460.09583333335166,
                    "velocity": 0.7086614173228346,
                    "duration": 0.43958333333335986
                },
                {
                    "name": "E5",
                    "midi": 76,
                    "time": 460.1708333333517,
                    "velocity": 0.8031496062992126,
                    "duration": 0.44999999999998863
                },
                {
                    "name": "E4",
                    "midi": 64,
                    "time": 460.17916666668503,
                    "velocity": 0.6850393700787402,
                    "duration": 0.33125000000001137
                },
                {
                    "name": "C5",
                    "midi": 72,
                    "time": 460.1833333333517,
                    "velocity": 0.7716535433070866,
                    "duration": 0.4104166666666629
                },
                {
                    "name": "G#3",
                    "midi": 56,
                    "time": 460.58750000001834,
                    "velocity": 0.7874015748031497,
                    "duration": 0.1333333333333826
                },
                {
                    "name": "G#4",
                    "midi": 68,
                    "time": 460.9875000000184,
                    "velocity": 0.6377952755905512,
                    "duration": 0.041666666666685614
                },
                {
                    "name": "F5",
                    "midi": 77,
                    "time": 460.98958333335173,
                    "velocity": 0.7322834645669292,
                    "duration": 0.25625000000002274
                },
                {
                    "name": "C#4",
                    "midi": 61,
                    "time": 461.01666666668507,
                    "velocity": 0.5748031496062992,
                    "duration": 0.04791666666665151
                },
                {
                    "name": "C6",
                    "midi": 84,
                    "time": 461.17708333335173,
                    "velocity": 0.6692913385826772,
                    "duration": 0.1395833333333485
                },
                {
                    "name": "G#5",
                    "midi": 80,
                    "time": 461.1791666666851,
                    "velocity": 0.7007874015748031,
                    "duration": 0.12708333333330302
                },
                {
                    "name": "C5",
                    "midi": 72,
                    "time": 461.2000000000184,
                    "velocity": 0.4015748031496063,
                    "duration": 0.07708333333334849
                },
                {
                    "name": "G#1",
                    "midi": 32,
                    "time": 461.41250000001844,
                    "velocity": 0.7559055118110236,
                    "duration": 0.08333333333331439
                },
                {
                    "name": "G#3",
                    "midi": 56,
                    "time": 461.8666666666851,
                    "velocity": 0.5275590551181102,
                    "duration": 0.1812500000000341
                },
                {
                    "name": "F5",
                    "midi": 77,
                    "time": 461.8729166666851,
                    "velocity": 0.6535433070866141,
                    "duration": 0.22916666666662877
                },
                {
                    "name": "G#5",
                    "midi": 80,
                    "time": 462.0604166666851,
                    "velocity": 0.6377952755905512,
                    "duration": 0.12916666666660603
                },
                {
                    "name": "C6",
                    "midi": 84,
                    "time": 462.08125000001843,
                    "velocity": 0.5984251968503937,
                    "duration": 0.12499999999994316
                },
                {
                    "name": "C5",
                    "midi": 72,
                    "time": 462.0979166666851,
                    "velocity": 0.3543307086614173,
                    "duration": 0.08749999999997726
                },
                {
                    "name": "G#4",
                    "midi": 68,
                    "time": 462.329166666685,
                    "velocity": 0.6220472440944882,
                    "duration": 0.05000000000001137
                },
                {
                    "name": "C#4",
                    "midi": 61,
                    "time": 462.36875000001834,
                    "velocity": 0.4566929133858268,
                    "duration": 0.043750000000045475
                },
                {
                    "name": "F4",
                    "midi": 65,
                    "time": 725.6416666666851,
                    "velocity": 0.9133858267716536,
                    "duration": 1.0500000000000682
                },
                {
                    "name": "A4",
                    "midi": 69,
                    "time": 725.6458333333518,
                    "velocity": 0.9291338582677166,
                    "duration": 1.1166666666666742
                },
                {
                    "name": "A5",
                    "midi": 81,
                    "time": 725.6500000000185,
                    "velocity": 0.9448818897637795,
                    "duration": 1.033333333333303
                },
                {
                    "name": "C#4",
                    "midi": 61,
                    "time": 725.6520833333518,
                    "velocity": 0.8582677165354331,
                    "duration": 1.3770833333331893
                },
                {
                    "name": "C#5",
                    "midi": 73,
                    "time": 725.6520833333518,
                    "velocity": 0.9763779527559056,
                    "duration": 1.0812499999999545
                },
                {
                    "name": "F5",
                    "midi": 77,
                    "time": 725.6520833333518,
                    "velocity": 0.9448818897637795,
                    "duration": 1.2770833333332803
                },
                {
                    "name": "D#4",
                    "midi": 63,
                    "time": 726.9604166666851,
                    "velocity": 0.9291338582677166,
                    "duration": 1.5499999999998408
                },
                {
                    "name": "G4",
                    "midi": 67,
                    "time": 726.9625000000184,
                    "velocity": 0.952755905511811,
                    "duration": 1.3645833333332575
                },
                {
                    "name": "G5",
                    "midi": 79,
                    "time": 726.9645833333517,
                    "velocity": 0.9448818897637795,
                    "duration": 1.3854166666666288
                },
                {
                    "name": "D#5",
                    "midi": 75,
                    "time": 726.9645833333517,
                    "velocity": 0.9763779527559056,
                    "duration": 1.5312499999998863
                },
                {
                    "name": "B3",
                    "midi": 59,
                    "time": 726.966666666685,
                    "velocity": 0.8503937007874016,
                    "duration": 1.631249999999909
                },
                {
                    "name": "B4",
                    "midi": 71,
                    "time": 726.966666666685,
                    "velocity": 0.9606299212598425,
                    "duration": 1.4333333333332803
                },
                {
                    "name": "E4",
                    "midi": 64,
                    "time": 727.016666666685,
                    "velocity": 0.6535433070866141,
                    "duration": 0.18333333333339397
                },
                {
                    "name": "A3",
                    "midi": 57,
                    "time": 728.5187500000183,
                    "velocity": 0.7401574803149606,
                    "duration": 1.1458333333333712
                },
                {
                    "name": "F5",
                    "midi": 77,
                    "time": 728.5250000000183,
                    "velocity": 0.9606299212598425,
                    "duration": 1.1354166666666288
                },
                {
                    "name": "F4",
                    "midi": 65,
                    "time": 728.5270833333516,
                    "velocity": 0.9448818897637795,
                    "duration": 1.0375000000000227
                },
                {
                    "name": "C#4",
                    "midi": 61,
                    "time": 728.5270833333516,
                    "velocity": 0.889763779527559,
                    "duration": 1.095833333333303
                },
                {
                    "name": "C#5",
                    "midi": 73,
                    "time": 728.5291666666849,
                    "velocity": 0.984251968503937,
                    "duration": 1.1604166666667197
                },
                {
                    "name": "A4",
                    "midi": 69,
                    "time": 728.5291666666849,
                    "velocity": 0.9606299212598425,
                    "duration": 1.1770833333333712
                },
                {
                    "name": "D#4",
                    "midi": 63,
                    "time": 728.5479166666848,
                    "velocity": 0.5669291338582677,
                    "duration": 0.03333333333330302
                },
                {
                    "name": "D#5",
                    "midi": 75,
                    "time": 728.5562500000182,
                    "velocity": 0.5433070866141733,
                    "duration": 0.03750000000002274
                },
                {
                    "name": "G1",
                    "midi": 31,
                    "time": 730.2500000000183,
                    "velocity": 0.8188976377952756,
                    "duration": 0.39999999999997726
                },
                {
                    "name": "A4",
                    "midi": 69,
                    "time": 730.2520833333516,
                    "velocity": 0.9291338582677166,
                    "duration": 0.7625000000000455
                },
                {
                    "name": "G2",
                    "midi": 43,
                    "time": 730.2562500000183,
                    "velocity": 0.984251968503937,
                    "duration": 0.44374999999990905
                },
                {
                    "name": "C#4",
                    "midi": 61,
                    "time": 730.2583333333516,
                    "velocity": 1,
                    "duration": 0.6729166666666515
                },
                {
                    "name": "F4",
                    "midi": 65,
                    "time": 730.2583333333516,
                    "velocity": 0.8740157480314961,
                    "duration": 0.7333333333333485
                },
                {
                    "name": "A#3",
                    "midi": 58,
                    "time": 731.0125000000183,
                    "velocity": 0.9133858267716536,
                    "duration": 0.3104166666665833
                },
                {
                    "name": "D3",
                    "midi": 50,
                    "time": 731.0187500000184,
                    "velocity": 0.8503937007874016,
                    "duration": 0.28749999999990905
                },
                {
                    "name": "A#3",
                    "midi": 58,
                    "time": 731.4791666666849,
                    "velocity": 0.8582677165354331,
                    "duration": 0.07499999999993179
                },
                {
                    "name": "D4",
                    "midi": 62,
                    "time": 731.485416666685,
                    "velocity": 0.8503937007874016,
                    "duration": 0.05833333333328028
                },
                {
                    "name": "F3",
                    "midi": 53,
                    "time": 731.485416666685,
                    "velocity": 0.7007874015748031,
                    "duration": 0.1083333333332348
                },
                {
                    "name": "A#4",
                    "midi": 70,
                    "time": 731.4875000000183,
                    "velocity": 0.937007874015748,
                    "duration": 0.11874999999997726
                },
                {
                    "name": "F4",
                    "midi": 65,
                    "time": 731.4937500000183,
                    "velocity": 0.8188976377952756,
                    "duration": 0.0916666666665833
                },
                {
                    "name": "F4",
                    "midi": 65,
                    "time": 731.7083333333516,
                    "velocity": 0.8188976377952756,
                    "duration": 0.054166666666674246
                },
                {
                    "name": "D5",
                    "midi": 74,
                    "time": 731.7125000000183,
                    "velocity": 0.7952755905511811,
                    "duration": 0.08958333333328028
                },
                {
                    "name": "F5",
                    "midi": 77,
                    "time": 731.7125000000183,
                    "velocity": 0.7716535433070866,
                    "duration": 0.09583333333330302
                },
                {
                    "name": "G1",
                    "midi": 31,
                    "time": 731.9333333333515,
                    "velocity": 0.8818897637795275,
                    "duration": 0.07499999999993179
                },
                {
                    "name": "G2",
                    "midi": 43,
                    "time": 731.9354166666848,
                    "velocity": 0.9291338582677166,
                    "duration": 0.09999999999990905
                },
                {
                    "name": "D3",
                    "midi": 50,
                    "time": 732.3520833333514,
                    "velocity": 0.7559055118110236,
                    "duration": 0.18125000000009095
                },
                {
                    "name": "A#3",
                    "midi": 58,
                    "time": 732.3583333333514,
                    "velocity": 0.8346456692913385,
                    "duration": 0.17708333333337123
                },
                {
                    "name": "A#4",
                    "midi": 70,
                    "time": 732.3708333333515,
                    "velocity": 0.968503937007874,
                    "duration": 0.08541666666667425
                },
                {
                    "name": "F4",
                    "midi": 65,
                    "time": 732.3729166666848,
                    "velocity": 0.8503937007874016,
                    "duration": 0.0645833333334167
                },
                {
                    "name": "F5",
                    "midi": 77,
                    "time": 732.5375000000181,
                    "velocity": 0.8503937007874016,
                    "duration": 0.10416666666662877
                },
                {
                    "name": "D5",
                    "midi": 74,
                    "time": 732.5395833333514,
                    "velocity": 0.8031496062992126,
                    "duration": 0.07916666666665151
                },
                {
                    "name": "F3",
                    "midi": 53,
                    "time": 732.7520833333514,
                    "velocity": 0.7559055118110236,
                    "duration": 0.16041666666671972
                },
                {
                    "name": "A#3",
                    "midi": 58,
                    "time": 732.7541666666847,
                    "velocity": 0.889763779527559,
                    "duration": 0.11250000000006821
                },
                {
                    "name": "D4",
                    "midi": 62,
                    "time": 732.7583333333514,
                    "velocity": 0.9212598425196851,
                    "duration": 0.09791666666671972
                },
                {
                    "name": "C2",
                    "midi": 36,
                    "time": 733.2625000000181,
                    "velocity": 1,
                    "duration": 0.30208333333337123
                },
                {
                    "name": "C1",
                    "midi": 24,
                    "time": 733.2666666666848,
                    "velocity": 0.9606299212598425,
                    "duration": 0.25416666666660603
                },
                {
                    "name": "G#5",
                    "midi": 80,
                    "time": 734.0979166666848,
                    "velocity": 0.8110236220472441,
                    "duration": 1.2124999999999773
                },
                {
                    "name": "F6",
                    "midi": 89,
                    "time": 734.0979166666848,
                    "velocity": 0.7716535433070866,
                    "duration": 1.152083333333394
                },
                {
                    "name": "F5",
                    "midi": 77,
                    "time": 734.1000000000181,
                    "velocity": 0.7637795275590551,
                    "duration": 1.183333333333394
                },
                {
                    "name": "C#6",
                    "midi": 85,
                    "time": 734.1041666666848,
                    "velocity": 0.8188976377952756,
                    "duration": 1.2104166666666742
                },
                {
                    "name": "G#3",
                    "midi": 56,
                    "time": 734.1062500000181,
                    "velocity": 0.7165354330708661,
                    "duration": 0.12708333333330302
                },
                {
                    "name": "F4",
                    "midi": 65,
                    "time": 734.1083333333514,
                    "velocity": 0.8582677165354331,
                    "duration": 0.16666666666662877
                },
                {
                    "name": "G#4",
                    "midi": 68,
                    "time": 734.1104166666847,
                    "velocity": 0.905511811023622,
                    "duration": 0.17916666666667425
                },
                {
                    "name": "C#4",
                    "midi": 61,
                    "time": 734.1145833333514,
                    "velocity": 0.7952755905511811,
                    "duration": 0.18958333333330302
                },
                {
                    "name": "C2",
                    "midi": 36,
                    "time": 735.0604166666848,
                    "velocity": 0.7401574803149606,
                    "duration": 0.19166666666671972
                },
                {
                    "name": "C3",
                    "midi": 48,
                    "time": 735.0729166666848,
                    "velocity": 0.9921259842519685,
                    "duration": 0.22916666666662877
                },
                {
                    "name": "E3",
                    "midi": 52,
                    "time": 735.6833333333515,
                    "velocity": 0.7401574803149606,
                    "duration": 0.8229166666665151
                },
                {
                    "name": "E6",
                    "midi": 88,
                    "time": 735.6895833333515,
                    "velocity": 0.8582677165354331,
                    "duration": 0.3249999999999318
                },
                {
                    "name": "B5",
                    "midi": 83,
                    "time": 735.6895833333515,
                    "velocity": 0.8031496062992126,
                    "duration": 0.7041666666665378
                },
                {
                    "name": "B3",
                    "midi": 59,
                    "time": 735.6916666666848,
                    "velocity": 0.9133858267716536,
                    "duration": 0.627083333333303
                },
                {
                    "name": "G#5",
                    "midi": 80,
                    "time": 735.6937500000181,
                    "velocity": 0.8582677165354331,
                    "duration": 0.6979166666666288
                },
                {
                    "name": "G#3",
                    "midi": 56,
                    "time": 735.6937500000181,
                    "velocity": 0.8582677165354331,
                    "duration": 0.6354166666666288
                },
                {
                    "name": "E4",
                    "midi": 64,
                    "time": 735.6958333333514,
                    "velocity": 0.952755905511811,
                    "duration": 0.4729166666667197
                },
                {
                    "name": "E5",
                    "midi": 76,
                    "time": 735.6958333333514,
                    "velocity": 0.889763779527559,
                    "duration": 0.3166666666667197
                },
                {
                    "name": "D6",
                    "midi": 86,
                    "time": 736.3854166666847,
                    "velocity": 0.7637795275590551,
                    "duration": 0.08958333333328028
                },
                {
                    "name": "D5",
                    "midi": 74,
                    "time": 736.3958333333513,
                    "velocity": 0.8582677165354331,
                    "duration": 0.08541666666667425
                },
                {
                    "name": "D4",
                    "midi": 62,
                    "time": 736.406250000018,
                    "velocity": 0.984251968503937,
                    "duration": 0.07708333333334849
                },
                {
                    "name": "G#5",
                    "midi": 80,
                    "time": 736.9666666666847,
                    "velocity": 0.8503937007874016,
                    "duration": 0.6145833333332575
                },
                {
                    "name": "F1",
                    "midi": 29,
                    "time": 736.975000000018,
                    "velocity": 0.8346456692913385,
                    "duration": 0.2041666666666515
                },
                {
                    "name": "G#4",
                    "midi": 68,
                    "time": 736.975000000018,
                    "velocity": 0.8976377952755905,
                    "duration": 0.5562499999999773
                },
                {
                    "name": "F2",
                    "midi": 41,
                    "time": 736.975000000018,
                    "velocity": 0.9763779527559056,
                    "duration": 0.2354166666666515
                },
                {
                    "name": "B4",
                    "midi": 71,
                    "time": 736.9770833333513,
                    "velocity": 0.8346456692913385,
                    "duration": 0.560416666666697
                },
                {
                    "name": "E5",
                    "midi": 76,
                    "time": 736.9854166666846,
                    "velocity": 0.7322834645669292,
                    "duration": 0.5791666666666515
                },
                {
                    "name": "A4",
                    "midi": 69,
                    "time": 737.0020833333513,
                    "velocity": 0.49606299212598426,
                    "duration": 0.05208333333337123
                },
                {
                    "name": "A3",
                    "midi": 57,
                    "time": 737.5854166666846,
                    "velocity": 0.8976377952755905,
                    "duration": 0.5916666666668107
                },
                {
                    "name": "C4",
                    "midi": 60,
                    "time": 737.5895833333514,
                    "velocity": 0.8976377952755905,
                    "duration": 0.10625000000004547
                },
                {
                    "name": "A4",
                    "midi": 69,
                    "time": 738.0437500000181,
                    "velocity": 0.8346456692913385,
                    "duration": 0.06875000000002274
                },
                {
                    "name": "F4",
                    "midi": 65,
                    "time": 738.0500000000181,
                    "velocity": 0.7401574803149606,
                    "duration": 0.04791666666665151
                },
                {
                    "name": "C4",
                    "midi": 60,
                    "time": 738.0520833333514,
                    "velocity": 0.6929133858267716,
                    "duration": 0.10000000000002274
                },
                {
                    "name": "A5",
                    "midi": 81,
                    "time": 738.0750000000181,
                    "velocity": 0.9291338582677166,
                    "duration": 0.12291666666669698
                },
                {
                    "name": "F5",
                    "midi": 77,
                    "time": 738.0833333333514,
                    "velocity": 0.7952755905511811,
                    "duration": 0.07291666666674246
                },
                {
                    "name": "E5",
                    "midi": 76,
                    "time": 738.0854166666848,
                    "velocity": 0.8503937007874016,
                    "duration": 0.07291666666674246
                },
                {
                    "name": "E6",
                    "midi": 88,
                    "time": 738.2729166666849,
                    "velocity": 0.889763779527559,
                    "duration": 0.11874999999997726
                },
                {
                    "name": "C6",
                    "midi": 84,
                    "time": 738.2729166666849,
                    "velocity": 0.8503937007874016,
                    "duration": 0.10833333333334849
                },
                {
                    "name": "C1",
                    "midi": 24,
                    "time": 738.5395833333515,
                    "velocity": 0.984251968503937,
                    "duration": 0.10416666666674246
                },
                {
                    "name": "A5",
                    "midi": 81,
                    "time": 738.9729166666849,
                    "velocity": 0.9133858267716536,
                    "duration": 0.13333333333321207
                },
                {
                    "name": "F4",
                    "midi": 65,
                    "time": 738.9791666666849,
                    "velocity": 0.9133858267716536,
                    "duration": 0.2958333333332348
                },
                {
                    "name": "C4",
                    "midi": 60,
                    "time": 738.9812500000182,
                    "velocity": 0.7952755905511811,
                    "duration": 0.3541666666665151
                },
                {
                    "name": "E5",
                    "midi": 76,
                    "time": 738.9833333333515,
                    "velocity": 0.7874015748031497,
                    "duration": 0.08124999999995453
                },
                {
                    "name": "F5",
                    "midi": 77,
                    "time": 738.9833333333515,
                    "velocity": 0.8346456692913385,
                    "duration": 0.07916666666665151
                },
                {
                    "name": "A3",
                    "midi": 57,
                    "time": 738.9916666666849,
                    "velocity": 0.6614173228346457,
                    "duration": 0.33541666666656056
                },
                {
                    "name": "C6",
                    "midi": 84,
                    "time": 739.1520833333515,
                    "velocity": 0.8582677165354331,
                    "duration": 0.10416666666674246
                },
                {
                    "name": "E6",
                    "midi": 88,
                    "time": 739.1562500000182,
                    "velocity": 0.8818897637795275,
                    "duration": 0.12083333333328028
                },
                {
                    "name": "C4",
                    "midi": 60,
                    "time": 739.3666666666848,
                    "velocity": 0.5590551181102362,
                    "duration": 0.12916666666671972
                },
                {
                    "name": "F4",
                    "midi": 65,
                    "time": 739.3708333333515,
                    "velocity": 0.8818897637795275,
                    "duration": 0.07708333333334849
                },
                {
                    "name": "A4",
                    "midi": 69,
                    "time": 739.3729166666848,
                    "velocity": 0.9291338582677166,
                    "duration": 0.06666666666671972
                },
                {
                    "name": "D2",
                    "midi": 38,
                    "time": 739.9250000000183,
                    "velocity": 1,
                    "duration": 0.3916666666666515
                },
                {
                    "name": "D5",
                    "midi": 74,
                    "time": 740.3812500000182,
                    "velocity": 0.8188976377952756,
                    "duration": 0.6750000000000682
                },
                {
                    "name": "F#4",
                    "midi": 66,
                    "time": 740.3875000000182,
                    "velocity": 0.8818897637795275,
                    "duration": 0.7250000000001364
                },
                {
                    "name": "D4",
                    "midi": 62,
                    "time": 740.4041666666849,
                    "velocity": 0.7559055118110236,
                    "duration": 0.03541666666671972
                },
                {
                    "name": "D3",
                    "midi": 50,
                    "time": 740.8083333333516,
                    "velocity": 0.8346456692913385,
                    "duration": 0.3000000000000682
                },
                {
                    "name": "A#3",
                    "midi": 58,
                    "time": 741.2187500000184,
                    "velocity": 0.8582677165354331,
                    "duration": 0.11458333333325754
                },
                {
                    "name": "D4",
                    "midi": 62,
                    "time": 741.2208333333517,
                    "velocity": 0.889763779527559,
                    "duration": 0.08333333333325754
                },
                {
                    "name": "F#3",
                    "midi": 54,
                    "time": 741.222916666685,
                    "velocity": 0.8188976377952756,
                    "duration": 0.12708333333330302
                },
                {
                    "name": "C5",
                    "midi": 72,
                    "time": 741.6208333333517,
                    "velocity": 0.889763779527559,
                    "duration": 0.15416666666669698
                },
                {
                    "name": "D#4",
                    "midi": 63,
                    "time": 741.6270833333517,
                    "velocity": 0.8976377952755905,
                    "duration": 0.1708333333333485
                },
                {
                    "name": "A#4",
                    "midi": 70,
                    "time": 742.0562500000184,
                    "velocity": 0.8818897637795275,
                    "duration": 0.1895833333334167
                },
                {
                    "name": "A#3",
                    "midi": 58,
                    "time": 742.0604166666851,
                    "velocity": 0.8110236220472441,
                    "duration": 0.10625000000004547
                },
                {
                    "name": "D4",
                    "midi": 62,
                    "time": 742.0645833333518,
                    "velocity": 0.8346456692913385,
                    "duration": 0.19375000000002274
                }
            ],
            "controlChanges": {
                "1": [
                    {
                        "number": 1,
                        "time": 1.3875,
                        "value": 0
                    }
                ],
                "6": [
                    {
                        "number": 6,
                        "time": 1.4145833333333333,
                        "value": 0.4881889763779528
                    },
                    {
                        "number": 6,
                        "time": 1.4270833333333333,
                        "value": 0.4251968503937008
                    },
                    {
                        "number": 6,
                        "time": 1.4395833333333332,
                        "value": 0.4881889763779528
                    },
                    {
                        "number": 6,
                        "time": 1.4520833333333332,
                        "value": 0.47244094488188976
                    },
                    {
                        "number": 6,
                        "time": 1.4645833333333331,
                        "value": 0.5511811023622047
                    }
                ],
                "7": [
                    {
                        "number": 7,
                        "time": 0.7875,
                        "value": 0.7874015748031497
                    }
                ],
                "10": [
                    {
                        "number": 10,
                        "time": 1.1875,
                        "value": 0.5039370078740157
                    }
                ],
                "11": [
                    {
                        "number": 11,
                        "time": 0.9875,
                        "value": 0.7874015748031497
                    }
                ],
                "32": [
                    {
                        "number": 32,
                        "time": 0.7791666666666667,
                        "value": 0.007874015748031496
                    }
                ],
                "64": [
                    {
                        "number": 64,
                        "time": 3.8999999999999995,
                        "value": 0.49606299212598426
                    },
                    {
                        "number": 64,
                        "time": 3.9395833333333328,
                        "value": 1
                    },
                    {
                        "number": 64,
                        "time": 8.022916666666665,
                        "value": 0.49606299212598426
                    },
                    {
                        "number": 64,
                        "time": 8.116666666666664,
                        "value": 0
                    },
                    {
                        "number": 64,
                        "time": 8.38958333333333,
                        "value": 0.49606299212598426
                    },
                    {
                        "number": 64,
                        "time": 8.474999999999998,
                        "value": 1
                    },
                    {
                        "number": 64,
                        "time": 8.910416666666666,
                        "value": 0.49606299212598426
                    },
                    {
                        "number": 64,
                        "time": 9.341666666666667,
                        "value": 1
                    },
                    {
                        "number": 64,
                        "time": 9.766666666666666,
                        "value": 0.49606299212598426
                    },
                    {
                        "number": 64,
                        "time": 9.825,
                        "value": 0
                    },
                    {
                        "number": 64,
                        "time": 9.902083333333332,
                        "value": 0.49606299212598426
                    },
                    {
                        "number": 64,
                        "time": 9.993749999999997,
                        "value": 1
                    },
                    {
                        "number": 64,
                        "time": 10.137499999999998,
                        "value": 0.49606299212598426
                    },
                    {
                        "number": 64,
                        "time": 10.160416666666663,
                        "value": 1
                    },
                    {
                        "number": 64,
                        "time": 10.474999999999996,
                        "value": 0.49606299212598426
                    },
                    {
                        "number": 64,
                        "time": 10.656249999999996,
                        "value": 0
                    },
                    {
                        "number": 64,
                        "time": 10.816666666666663,
                        "value": 0.49606299212598426
                    },
                    {
                        "number": 64,
                        "time": 10.862499999999995,
                        "value": 1
                    },
                    {
                        "number": 64,
                        "time": 11.06458333333333,
                        "value": 0.49606299212598426
                    },
                    {
                        "number": 64,
                        "time": 11.149999999999997,
                        "value": 0
                    },
                    {
                        "number": 64,
                        "time": 11.179166666666664,
                        "value": 0.49606299212598426
                    },
                    {
                        "number": 64,
                        "time": 11.264583333333329,
                        "value": 1
                    },
                    {
                        "number": 64,
                        "time": 11.445833333333328,
                        "value": 0.49606299212598426
                    },
                    {
                        "number": 64,
                        "time": 11.489583333333327,
                        "value": 0
                    },
                    {
                        "number": 64,
                        "time": 11.666666666666659,
                        "value": 0.49606299212598426
                    },
                    {
                        "number": 64,
                        "time": 11.693749999999993,
                        "value": 1
                    },
                    {
                        "number": 64,
                        "time": 12.641666666666659,
                        "value": 0.49606299212598426
                    },
                    {
                        "number": 64,
                        "time": 12.670833333333325,
                        "value": 0
                    },
                    {
                        "number": 64,
                        "time": 12.677083333333325,
                        "value": 0.49606299212598426
                    },
                    {
                        "number": 64,
                        "time": 12.756249999999993,
                        "value": 1
                    },
                    {
                        "number": 64,
                        "time": 13.56874999999999,
                        "value": 0.49606299212598426
                    },
                    {
                        "number": 64,
                        "time": 13.579166666666657,
                        "value": 0
                    },
                    {
                        "number": 64,
                        "time": 13.70624999999999,
                        "value": 0.49606299212598426
                    },
                    {
                        "number": 64,
                        "time": 13.73124999999999,
                        "value": 1
                    },
                    {
                        "number": 64,
                        "time": 14.535416666666656,
                        "value": 0.49606299212598426
                    },
                    {
                        "number": 64,
                        "time": 14.552083333333323,
                        "value": 0
                    },
                    {
                        "number": 64,
                        "time": 14.674999999999988,
                        "value": 0.49606299212598426
                    },
                    {
                        "number": 64,
                        "time": 14.702083333333322,
                        "value": 1
                    },
                    {
                        "number": 64,
                        "time": 15.677083333333325,
                        "value": 0.49606299212598426
                    },
                    {
                        "number": 64,
                        "time": 15.687499999999991,
                        "value": 0
                    },
                    {
                        "number": 64,
                        "time": 15.791666666666657,
                        "value": 0.49606299212598426
                    },
                    {
                        "number": 64,
                        "time": 15.816666666666658,
                        "value": 1
                    },
                    {
                        "number": 64,
                        "time": 18.693749999999998,
                        "value": 0.49606299212598426
                    },
                    {
                        "number": 64,
                        "time": 18.716666666666665,
                        "value": 0
                    },
                    {
                        "number": 64,
                        "time": 18.833333333333332,
                        "value": 0.49606299212598426
                    },
                    {
                        "number": 64,
                        "time": 18.87708333333333,
                        "value": 1
                    },
                    {
                        "number": 64,
                        "time": 19,
                        "value": 0.49606299212598426
                    },
                    {
                        "number": 64,
                        "time": 19.029166666666665,
                        "value": 0
                    },
                    {
                        "number": 64,
                        "time": 19.18333333333333,
                        "value": 0.49606299212598426
                    },
                    {
                        "number": 64,
                        "time": 19.21666666666666,
                        "value": 1
                    },
                    {
                        "number": 64,
                        "time": 19.714583333333326,
                        "value": 0.49606299212598426
                    },
                    {
                        "number": 64,
                        "time": 19.733333333333327,
                        "value": 0
                    },
                    {
                        "number": 64,
                        "time": 19.87083333333333,
                        "value": 0.49606299212598426
                    },
                    {
                        "number": 64,
                        "time": 19.904166666666665,
                        "value": 1
                    },
                    {
                        "number": 64,
                        "time": 20.370833333333337,
                        "value": 0.49606299212598426
                    },
                    {
                        "number": 64,
                        "time": 20.38541666666667,
                        "value": 0
                    },
                    {
                        "number": 64,
                        "time": 20.735416666666673,
                        "value": 0.49606299212598426
                    },
                    {
                        "number": 64,
                        "time": 20.74583333333334,
                        "value": 1
                    },
                    {
                        "number": 64,
                        "time": 24.760416666666682,
                        "value": 0.49606299212598426
                    },
                    {
                        "number": 64,
                        "time": 24.862500000000015,
                        "value": 1
                    },
                    {
                        "number": 64,
                        "time": 25.350000000000016,
                        "value": 0.49606299212598426
                    },
                    {
                        "number": 64,
                        "time": 25.391666666666683,
                        "value": 0
                    },
                    {
                        "number": 64,
                        "time": 25.454166666666683,
                        "value": 0.49606299212598426
                    },
                    {
                        "number": 64,
                        "time": 25.50625000000002,
                        "value": 1
                    },
                    {
                        "number": 64,
                        "time": 25.72500000000002,
                        "value": 0.49606299212598426
                    },
                    {
                        "number": 64,
                        "time": 25.85625000000002,
                        "value": 1
                    },
                    {
                        "number": 64,
                        "time": 26.183333333333355,
                        "value": 0.49606299212598426
                    },
                    {
                        "number": 64,
                        "time": 26.222916666666688,
                        "value": 0
                    },
                    {
                        "number": 64,
                        "time": 26.381250000000023,
                        "value": 0.49606299212598426
                    },
                    {
                        "number": 64,
                        "time": 26.414583333333358,
                        "value": 1
                    },
                    {
                        "number": 64,
                        "time": 27.283333333333367,
                        "value": 0.49606299212598426
                    },
                    {
                        "number": 64,
                        "time": 27.302083333333368,
                        "value": 0
                    },
                    {
                        "number": 64,
                        "time": 27.410416666666702,
                        "value": 0.49606299212598426
                    },
                    {
                        "number": 64,
                        "time": 27.4354166666667,
                        "value": 1
                    },
                    {
                        "number": 64,
                        "time": 30.247916666666725,
                        "value": 0.49606299212598426
                    },
                    {
                        "number": 64,
                        "time": 30.272916666666724,
                        "value": 0
                    },
                    {
                        "number": 64,
                        "time": 30.460416666666724,
                        "value": 0.49606299212598426
                    },
                    {
                        "number": 64,
                        "time": 30.527083333333394,
                        "value": 1
                    },
                    {
                        "number": 64,
                        "time": 30.764583333333395,
                        "value": 0.49606299212598426
                    },
                    {
                        "number": 64,
                        "time": 30.789583333333393,
                        "value": 0
                    },
                    {
                        "number": 64,
                        "time": 30.89375000000006,
                        "value": 0.49606299212598426
                    },
                    {
                        "number": 64,
                        "time": 30.927083333333396,
                        "value": 1
                    },
                    {
                        "number": 64,
                        "time": 31.179166666666735,
                        "value": 0.49606299212598426
                    },
                    {
                        "number": 64,
                        "time": 31.216666666666736,
                        "value": 0
                    },
                    {
                        "number": 64,
                        "time": 31.272916666666735,
                        "value": 0.49606299212598426
                    },
                    {
                        "number": 64,
                        "time": 31.322916666666735,
                        "value": 1
                    },
                    {
                        "number": 64,
                        "time": 31.78125000000007,
                        "value": 0.49606299212598426
                    },
                    {
                        "number": 64,
                        "time": 31.79375000000007,
                        "value": 0
                    },
                    {
                        "number": 64,
                        "time": 32.08333333333341,
                        "value": 0.49606299212598426
                    },
                    {
                        "number": 64,
                        "time": 32.09583333333341,
                        "value": 1
                    },
                    {
                        "number": 64,
                        "time": 32.48958333333342,
                        "value": 0.49606299212598426
                    },
                    {
                        "number": 64,
                        "time": 32.49583333333342,
                        "value": 0
                    },
                    {
                        "number": 64,
                        "time": 32.627083333333424,
                        "value": 0.49606299212598426
                    },
                    {
                        "number": 64,
                        "time": 32.64166666666676,
                        "value": 1
                    },
                    {
                        "number": 64,
                        "time": 36.47916666666678,
                        "value": 0.49606299212598426
                    },
                    {
                        "number": 64,
                        "time": 36.55000000000011,
                        "value": 0
                    },
                    {
                        "number": 64,
                        "time": 36.75625000000011,
                        "value": 0.49606299212598426
                    },
                    {
                        "number": 64,
                        "time": 36.935416666666775,
                        "value": 0
                    },
                    {
                        "number": 64,
                        "time": 37.060416666666775,
                        "value": 0.49606299212598426
                    },
                    {
                        "number": 64,
                        "time": 37.10416666666678,
                        "value": 1
                    },
                    {
                        "number": 64,
                        "time": 37.341666666666775,
                        "value": 0.49606299212598426
                    },
                    {
                        "number": 64,
                        "time": 37.47291666666678,
                        "value": 1
                    },
                    {
                        "number": 64,
                        "time": 37.61666666666678,
                        "value": 0.49606299212598426
                    },
                    {
                        "number": 64,
                        "time": 37.69583333333345,
                        "value": 0
                    },
                    {
                        "number": 64,
                        "time": 37.92291666666678,
                        "value": 0.49606299212598426
                    },
                    {
                        "number": 64,
                        "time": 37.960416666666774,
                        "value": 1
                    },
                    {
                        "number": 64,
                        "time": 38.25625000000011,
                        "value": 0.49606299212598426
                    },
                    {
                        "number": 64,
                        "time": 38.28750000000011,
                        "value": 0
                    },
                    {
                        "number": 64,
                        "time": 38.397916666666774,
                        "value": 0.49606299212598426
                    },
                    {
                        "number": 64,
                        "time": 38.435416666666775,
                        "value": 1
                    },
                    {
                        "number": 64,
                        "time": 38.70208333333344,
                        "value": 0.49606299212598426
                    },
                    {
                        "number": 64,
                        "time": 38.752083333333445,
                        "value": 0
                    },
                    {
                        "number": 64,
                        "time": 38.86250000000011,
                        "value": 0.49606299212598426
                    },
                    {
                        "number": 64,
                        "time": 38.902083333333444,
                        "value": 1
                    },
                    {
                        "number": 64,
                        "time": 39.68750000000011,
                        "value": 0.49606299212598426
                    },
                    {
                        "number": 64,
                        "time": 39.72500000000011,
                        "value": 0
                    },
                    {
                        "number": 64,
                        "time": 39.87916666666678,
                        "value": 0.49606299212598426
                    },
                    {
                        "number": 64,
                        "time": 39.904166666666775,
                        "value": 1
                    },
                    {
                        "number": 64,
                        "time": 41.11041666666678,
                        "value": 0.49606299212598426
                    },
                    {
                        "number": 64,
                        "time": 41.127083333333445,
                        "value": 1
                    },
                    {
                        "number": 64,
                        "time": 41.460416666666774,
                        "value": 0.49606299212598426
                    },
                    {
                        "number": 64,
                        "time": 41.464583333333444,
                        "value": 0
                    },
                    {
                        "number": 64,
                        "time": 41.58333333333344,
                        "value": 0.49606299212598426
                    },
                    {
                        "number": 64,
                        "time": 41.59375000000011,
                        "value": 1
                    },
                    {
                        "number": 64,
                        "time": 42.33958333333344,
                        "value": 0.49606299212598426
                    },
                    {
                        "number": 64,
                        "time": 42.34791666666677,
                        "value": 0
                    },
                    {
                        "number": 64,
                        "time": 42.46666666666677,
                        "value": 0.49606299212598426
                    },
                    {
                        "number": 64,
                        "time": 42.47916666666677,
                        "value": 1
                    },
                    {
                        "number": 64,
                        "time": 43.74166666666675,
                        "value": 0.49606299212598426
                    },
                    {
                        "number": 64,
                        "time": 43.75208333333342,
                        "value": 0
                    },
                    {
                        "number": 64,
                        "time": 43.804166666666745,
                        "value": 0.49606299212598426
                    },
                    {
                        "number": 64,
                        "time": 43.839583333333415,
                        "value": 1
                    },
                    {
                        "number": 64,
                        "time": 44.64375000000008,
                        "value": 0.49606299212598426
                    },
                    {
                        "number": 64,
                        "time": 44.652083333333415,
                        "value": 0
                    },
                    {
                        "number": 64,
                        "time": 44.72500000000008,
                        "value": 0.49606299212598426
                    },
                    {
                        "number": 64,
                        "time": 44.75000000000008,
                        "value": 1
                    },
                    {
                        "number": 64,
                        "time": 45.67500000000007,
                        "value": 0.49606299212598426
                    },
                    {
                        "number": 64,
                        "time": 45.68541666666673,
                        "value": 0
                    },
                    {
                        "number": 64,
                        "time": 45.754166666666734,
                        "value": 0.49606299212598426
                    },
                    {
                        "number": 64,
                        "time": 45.781250000000064,
                        "value": 1
                    },
                    {
                        "number": 64,
                        "time": 46.65000000000008,
                        "value": 0.49606299212598426
                    },
                    {
                        "number": 64,
                        "time": 46.65833333333341,
                        "value": 0
                    },
                    {
                        "number": 64,
                        "time": 46.76875000000008,
                        "value": 0.49606299212598426
                    },
                    {
                        "number": 64,
                        "time": 46.781250000000085,
                        "value": 1
                    },
                    {
                        "number": 64,
                        "time": 48.041666666666785,
                        "value": 0.49606299212598426
                    },
                    {
                        "number": 64,
                        "time": 48.04791666666679,
                        "value": 0
                    },
                    {
                        "number": 64,
                        "time": 48.16250000000012,
                        "value": 0.49606299212598426
                    },
                    {
                        "number": 64,
                        "time": 48.172916666666794,
                        "value": 1
                    },
                    {
                        "number": 64,
                        "time": 49.43958333333346,
                        "value": 0.49606299212598426
                    },
                    {
                        "number": 64,
                        "time": 49.44791666666679,
                        "value": 0
                    },
                    {
                        "number": 64,
                        "time": 49.516666666666794,
                        "value": 0.49606299212598426
                    },
                    {
                        "number": 64,
                        "time": 49.53750000000013,
                        "value": 1
                    },
                    {
                        "number": 64,
                        "time": 51.92083333333347,
                        "value": 0.49606299212598426
                    },
                    {
                        "number": 64,
                        "time": 51.93333333333347,
                        "value": 0
                    },
                    {
                        "number": 64,
                        "time": 51.966666666666804,
                        "value": 0.49606299212598426
                    },
                    {
                        "number": 64,
                        "time": 52.00208333333347,
                        "value": 1
                    },
                    {
                        "number": 64,
                        "time": 52.80208333333348,
                        "value": 0.49606299212598426
                    },
                    {
                        "number": 64,
                        "time": 52.81458333333348,
                        "value": 0
                    },
                    {
                        "number": 64,
                        "time": 52.87500000000015,
                        "value": 0.49606299212598426
                    },
                    {
                        "number": 64,
                        "time": 52.90833333333348,
                        "value": 1
                    },
                    {
                        "number": 64,
                        "time": 53.88958333333349,
                        "value": 0.49606299212598426
                    },
                    {
                        "number": 64,
                        "time": 53.900000000000155,
                        "value": 0
                    },
                    {
                        "number": 64,
                        "time": 54.031250000000156,
                        "value": 0.49606299212598426
                    },
                    {
                        "number": 64,
                        "time": 54.04166666666682,
                        "value": 1
                    },
                    {
                        "number": 64,
                        "time": 55.17291666666682,
                        "value": 0.49606299212598426
                    },
                    {
                        "number": 64,
                        "time": 55.183333333333486,
                        "value": 0
                    },
                    {
                        "number": 64,
                        "time": 55.31875000000016,
                        "value": 0.49606299212598426
                    },
                    {
                        "number": 64,
                        "time": 55.32916666666682,
                        "value": 1
                    },
                    {
                        "number": 64,
                        "time": 56.389583333333476,
                        "value": 0.49606299212598426
                    },
                    {
                        "number": 64,
                        "time": 56.40208333333347,
                        "value": 0
                    },
                    {
                        "number": 64,
                        "time": 56.493750000000134,
                        "value": 0.49606299212598426
                    },
                    {
                        "number": 64,
                        "time": 56.5104166666668,
                        "value": 1
                    },
                    {
                        "number": 64,
                        "time": 57.38125000000015,
                        "value": 0.49606299212598426
                    },
                    {
                        "number": 64,
                        "time": 57.395833333333485,
                        "value": 0
                    },
                    {
                        "number": 64,
                        "time": 57.45833333333348,
                        "value": 0.49606299212598426
                    },
                    {
                        "number": 64,
                        "time": 57.481250000000145,
                        "value": 1
                    },
                    {
                        "number": 64,
                        "time": 58.41458333333347,
                        "value": 0.49606299212598426
                    },
                    {
                        "number": 64,
                        "time": 58.4229166666668,
                        "value": 0
                    },
                    {
                        "number": 64,
                        "time": 58.50208333333347,
                        "value": 0.49606299212598426
                    },
                    {
                        "number": 64,
                        "time": 58.52500000000014,
                        "value": 1
                    },
                    {
                        "number": 64,
                        "time": 59.45833333333347,
                        "value": 0.49606299212598426
                    },
                    {
                        "number": 64,
                        "time": 59.47083333333347,
                        "value": 0
                    },
                    {
                        "number": 64,
                        "time": 59.51666666666681,
                        "value": 0.49606299212598426
                    },
                    {
                        "number": 64,
                        "time": 59.545833333333476,
                        "value": 1
                    },
                    {
                        "number": 64,
                        "time": 60.6479166666668,
                        "value": 0.49606299212598426
                    },
                    {
                        "number": 64,
                        "time": 60.656250000000135,
                        "value": 0
                    },
                    {
                        "number": 64,
                        "time": 60.76458333333347,
                        "value": 0.49606299212598426
                    },
                    {
                        "number": 64,
                        "time": 60.779166666666804,
                        "value": 1
                    },
                    {
                        "number": 64,
                        "time": 62.71458333333346,
                        "value": 0.49606299212598426
                    },
                    {
                        "number": 64,
                        "time": 62.72708333333346,
                        "value": 0
                    },
                    {
                        "number": 64,
                        "time": 62.84375000000013,
                        "value": 0.49606299212598426
                    },
                    {
                        "number": 64,
                        "time": 62.862500000000125,
                        "value": 1
                    },
                    {
                        "number": 64,
                        "time": 63.93125000000011,
                        "value": 0.49606299212598426
                    },
                    {
                        "number": 64,
                        "time": 63.939583333333445,
                        "value": 0
                    },
                    {
                        "number": 64,
                        "time": 64.06041666666678,
                        "value": 0.49606299212598426
                    },
                    {
                        "number": 64,
                        "time": 64.07291666666679,
                        "value": 1
                    },
                    {
                        "number": 64,
                        "time": 64.99583333333342,
                        "value": 0.49606299212598426
                    },
                    {
                        "number": 64,
                        "time": 65.00416666666676,
                        "value": 0
                    },
                    {
                        "number": 64,
                        "time": 65.09583333333342,
                        "value": 0.49606299212598426
                    },
                    {
                        "number": 64,
                        "time": 65.12083333333341,
                        "value": 1
                    },
                    {
                        "number": 64,
                        "time": 66.15208333333341,
                        "value": 0.49606299212598426
                    },
                    {
                        "number": 64,
                        "time": 66.16041666666675,
                        "value": 0
                    },
                    {
                        "number": 64,
                        "time": 66.27291666666675,
                        "value": 0.49606299212598426
                    },
                    {
                        "number": 64,
                        "time": 66.29166666666674,
                        "value": 1
                    },
                    {
                        "number": 64,
                        "time": 68.61458333333339,
                        "value": 0.49606299212598426
                    },
                    {
                        "number": 64,
                        "time": 68.68958333333339,
                        "value": 1
                    },
                    {
                        "number": 64,
                        "time": 74.17916666666666,
                        "value": 0.49606299212598426
                    },
                    {
                        "number": 64,
                        "time": 74.19375,
                        "value": 0
                    },
                    {
                        "number": 64,
                        "time": 74.32499999999999,
                        "value": 0.49606299212598426
                    },
                    {
                        "number": 64,
                        "time": 74.33958333333332,
                        "value": 1
                    },
                    {
                        "number": 64,
                        "time": 75.4145833333333,
                        "value": 0.49606299212598426
                    },
                    {
                        "number": 64,
                        "time": 75.4270833333333,
                        "value": 0
                    },
                    {
                        "number": 64,
                        "time": 75.5395833333333,
                        "value": 0.49606299212598426
                    },
                    {
                        "number": 64,
                        "time": 75.56041666666663,
                        "value": 1
                    },
                    {
                        "number": 64,
                        "time": 76.58124999999994,
                        "value": 0.49606299212598426
                    },
                    {
                        "number": 64,
                        "time": 76.5979166666666,
                        "value": 0
                    },
                    {
                        "number": 64,
                        "time": 76.68333333333327,
                        "value": 0.49606299212598426
                    },
                    {
                        "number": 64,
                        "time": 76.70833333333327,
                        "value": 1
                    },
                    {
                        "number": 64,
                        "time": 77.59166666666657,
                        "value": 0.49606299212598426
                    },
                    {
                        "number": 64,
                        "time": 77.5937499999999,
                        "value": 1
                    },
                    {
                        "number": 64,
                        "time": 77.72708333333323,
                        "value": 0.49606299212598426
                    },
                    {
                        "number": 64,
                        "time": 77.73124999999989,
                        "value": 0
                    },
                    {
                        "number": 64,
                        "time": 77.87916666666655,
                        "value": 0.49606299212598426
                    },
                    {
                        "number": 64,
                        "time": 77.88333333333321,
                        "value": 1
                    },
                    {
                        "number": 64,
                        "time": 77.92499999999988,
                        "value": 0.49606299212598426
                    },
                    {
                        "number": 64,
                        "time": 77.93333333333322,
                        "value": 0
                    },
                    {
                        "number": 64,
                        "time": 78.03124999999989,
                        "value": 0.49606299212598426
                    },
                    {
                        "number": 64,
                        "time": 78.03749999999988,
                        "value": 1
                    },
                    {
                        "number": 64,
                        "time": 79.07083333333321,
                        "value": 0.49606299212598426
                    },
                    {
                        "number": 64,
                        "time": 79.07916666666654,
                        "value": 0
                    },
                    {
                        "number": 64,
                        "time": 79.16041666666653,
                        "value": 0.49606299212598426
                    },
                    {
                        "number": 64,
                        "time": 79.17916666666653,
                        "value": 1
                    },
                    {
                        "number": 64,
                        "time": 80.32083333333318,
                        "value": 0.49606299212598426
                    },
                    {
                        "number": 64,
                        "time": 80.3354166666665,
                        "value": 0
                    },
                    {
                        "number": 64,
                        "time": 80.44999999999983,
                        "value": 0.49606299212598426
                    },
                    {
                        "number": 64,
                        "time": 80.47291666666649,
                        "value": 1
                    },
                    {
                        "number": 64,
                        "time": 80.93958333333318,
                        "value": 0.49606299212598426
                    },
                    {
                        "number": 64,
                        "time": 80.95416666666651,
                        "value": 0
                    },
                    {
                        "number": 64,
                        "time": 81.01874999999986,
                        "value": 0.49606299212598426
                    },
                    {
                        "number": 64,
                        "time": 81.04583333333319,
                        "value": 1
                    },
                    {
                        "number": 64,
                        "time": 81.4270833333332,
                        "value": 0.49606299212598426
                    },
                    {
                        "number": 64,
                        "time": 81.43749999999987,
                        "value": 0
                    },
                    {
                        "number": 64,
                        "time": 81.73749999999987,
                        "value": 0.49606299212598426
                    },
                    {
                        "number": 64,
                        "time": 81.75624999999987,
                        "value": 1
                    },
                    {
                        "number": 64,
                        "time": 82.04374999999987,
                        "value": 0.49606299212598426
                    },
                    {
                        "number": 64,
                        "time": 82.0645833333332,
                        "value": 0
                    },
                    {
                        "number": 64,
                        "time": 82.13749999999987,
                        "value": 0.49606299212598426
                    },
                    {
                        "number": 64,
                        "time": 82.17083333333322,
                        "value": 1
                    },
                    {
                        "number": 64,
                        "time": 82.59166666666655,
                        "value": 0.49606299212598426
                    },
                    {
                        "number": 64,
                        "time": 82.60624999999989,
                        "value": 0
                    },
                    {
                        "number": 64,
                        "time": 82.74166666666656,
                        "value": 0.49606299212598426
                    },
                    {
                        "number": 64,
                        "time": 82.77708333333322,
                        "value": 1
                    },
                    {
                        "number": 64,
                        "time": 83.78749999999988,
                        "value": 0.49606299212598426
                    },
                    {
                        "number": 64,
                        "time": 83.79583333333322,
                        "value": 0
                    },
                    {
                        "number": 64,
                        "time": 83.90416666666655,
                        "value": 0.49606299212598426
                    },
                    {
                        "number": 64,
                        "time": 83.92708333333321,
                        "value": 1
                    },
                    {
                        "number": 64,
                        "time": 85.00833333333324,
                        "value": 0.49606299212598426
                    },
                    {
                        "number": 64,
                        "time": 85.02083333333324,
                        "value": 0
                    },
                    {
                        "number": 64,
                        "time": 85.17291666666658,
                        "value": 0.49606299212598426
                    },
                    {
                        "number": 64,
                        "time": 85.19583333333324,
                        "value": 1
                    },
                    {
                        "number": 64,
                        "time": 85.65624999999991,
                        "value": 0.49606299212598426
                    },
                    {
                        "number": 64,
                        "time": 85.67291666666658,
                        "value": 0
                    },
                    {
                        "number": 64,
                        "time": 85.76249999999992,
                        "value": 0.49606299212598426
                    },
                    {
                        "number": 64,
                        "time": 85.78749999999992,
                        "value": 1
                    },
                    {
                        "number": 64,
                        "time": 85.8999999999999,
                        "value": 0.49606299212598426
                    },
                    {
                        "number": 64,
                        "time": 85.9187499999999,
                        "value": 0
                    },
                    {
                        "number": 64,
                        "time": 86.06458333333325,
                        "value": 0.49606299212598426
                    },
                    {
                        "number": 64,
                        "time": 86.08333333333324,
                        "value": 1
                    },
                    {
                        "number": 64,
                        "time": 86.31874999999991,
                        "value": 0.49606299212598426
                    },
                    {
                        "number": 64,
                        "time": 86.3374999999999,
                        "value": 0
                    },
                    {
                        "number": 64,
                        "time": 86.51041666666657,
                        "value": 0.49606299212598426
                    },
                    {
                        "number": 64,
                        "time": 86.5312499999999,
                        "value": 1
                    },
                    {
                        "number": 64,
                        "time": 86.79166666666656,
                        "value": 0.49606299212598426
                    },
                    {
                        "number": 64,
                        "time": 86.81041666666655,
                        "value": 0
                    },
                    {
                        "number": 64,
                        "time": 86.93333333333322,
                        "value": 0.49606299212598426
                    },
                    {
                        "number": 64,
                        "time": 86.95624999999988,
                        "value": 1
                    },
                    {
                        "number": 64,
                        "time": 87.1708333333332,
                        "value": 0.49606299212598426
                    },
                    {
                        "number": 64,
                        "time": 87.19166666666653,
                        "value": 0
                    },
                    {
                        "number": 64,
                        "time": 87.44791666666653,
                        "value": 0.49606299212598426
                    },
                    {
                        "number": 64,
                        "time": 87.4645833333332,
                        "value": 1
                    },
                    {
                        "number": 64,
                        "time": 88.24583333333321,
                        "value": 0.49606299212598426
                    },
                    {
                        "number": 64,
                        "time": 88.27499999999988,
                        "value": 0
                    },
                    {
                        "number": 64,
                        "time": 88.54374999999987,
                        "value": 0.49606299212598426
                    },
                    {
                        "number": 64,
                        "time": 88.55833333333321,
                        "value": 1
                    },
                    {
                        "number": 64,
                        "time": 88.81874999999988,
                        "value": 0.49606299212598426
                    },
                    {
                        "number": 64,
                        "time": 88.83541666666655,
                        "value": 0
                    },
                    {
                        "number": 64,
                        "time": 88.96249999999988,
                        "value": 0.49606299212598426
                    },
                    {
                        "number": 64,
                        "time": 88.9833333333332,
                        "value": 1
                    },
                    {
                        "number": 64,
                        "time": 89.62083333333321,
                        "value": 0.49606299212598426
                    },
                    {
                        "number": 64,
                        "time": 89.63541666666654,
                        "value": 0
                    },
                    {
                        "number": 64,
                        "time": 89.87499999999987,
                        "value": 0.49606299212598426
                    },
                    {
                        "number": 64,
                        "time": 89.87916666666653,
                        "value": 1
                    },
                    {
                        "number": 64,
                        "time": 91.01458333333319,
                        "value": 0.49606299212598426
                    },
                    {
                        "number": 64,
                        "time": 91.02291666666653,
                        "value": 0
                    },
                    {
                        "number": 64,
                        "time": 91.15624999999987,
                        "value": 0.49606299212598426
                    },
                    {
                        "number": 64,
                        "time": 91.17291666666654,
                        "value": 1
                    },
                    {
                        "number": 64,
                        "time": 92.09583333333319,
                        "value": 0.49606299212598426
                    },
                    {
                        "number": 64,
                        "time": 92.10624999999986,
                        "value": 0
                    },
                    {
                        "number": 64,
                        "time": 92.2270833333332,
                        "value": 0.49606299212598426
                    },
                    {
                        "number": 64,
                        "time": 92.24791666666653,
                        "value": 1
                    },
                    {
                        "number": 64,
                        "time": 92.82083333333318,
                        "value": 0.49606299212598426
                    },
                    {
                        "number": 64,
                        "time": 92.83333333333317,
                        "value": 0
                    },
                    {
                        "number": 64,
                        "time": 92.99791666666651,
                        "value": 0.49606299212598426
                    },
                    {
                        "number": 64,
                        "time": 93.00208333333318,
                        "value": 1
                    },
                    {
                        "number": 64,
                        "time": 93.24374999999984,
                        "value": 0.49606299212598426
                    },
                    {
                        "number": 64,
                        "time": 93.24999999999983,
                        "value": 0
                    },
                    {
                        "number": 64,
                        "time": 93.37916666666649,
                        "value": 0.49606299212598426
                    },
                    {
                        "number": 64,
                        "time": 93.38749999999983,
                        "value": 1
                    },
                    {
                        "number": 64,
                        "time": 93.6416666666665,
                        "value": 0.49606299212598426
                    },
                    {
                        "number": 64,
                        "time": 93.6541666666665,
                        "value": 0
                    },
                    {
                        "number": 64,
                        "time": 93.7104166666665,
                        "value": 0.49606299212598426
                    },
                    {
                        "number": 64,
                        "time": 93.73749999999984,
                        "value": 1
                    },
                    {
                        "number": 64,
                        "time": 93.98541666666651,
                        "value": 0.49606299212598426
                    },
                    {
                        "number": 64,
                        "time": 93.99999999999984,
                        "value": 0
                    },
                    {
                        "number": 64,
                        "time": 94.04999999999984,
                        "value": 0.49606299212598426
                    },
                    {
                        "number": 64,
                        "time": 94.07708333333318,
                        "value": 1
                    },
                    {
                        "number": 64,
                        "time": 94.56666666666652,
                        "value": 0.49606299212598426
                    },
                    {
                        "number": 64,
                        "time": 94.57916666666652,
                        "value": 0
                    },
                    {
                        "number": 64,
                        "time": 94.68541666666653,
                        "value": 0.49606299212598426
                    },
                    {
                        "number": 64,
                        "time": 94.70833333333319,
                        "value": 1
                    },
                    {
                        "number": 64,
                        "time": 95.79999999999987,
                        "value": 0.49606299212598426
                    },
                    {
                        "number": 64,
                        "time": 95.81041666666654,
                        "value": 0
                    },
                    {
                        "number": 64,
                        "time": 95.88541666666654,
                        "value": 0.49606299212598426
                    },
                    {
                        "number": 64,
                        "time": 95.91041666666655,
                        "value": 1
                    },
                    {
                        "number": 64,
                        "time": 96.86874999999989,
                        "value": 0.49606299212598426
                    },
                    {
                        "number": 64,
                        "time": 96.88124999999988,
                        "value": 0
                    },
                    {
                        "number": 64,
                        "time": 97.00208333333322,
                        "value": 0.49606299212598426
                    },
                    {
                        "number": 64,
                        "time": 97.01458333333322,
                        "value": 1
                    },
                    {
                        "number": 64,
                        "time": 97.74374999999989,
                        "value": 0.49606299212598426
                    },
                    {
                        "number": 64,
                        "time": 97.75416666666656,
                        "value": 0
                    },
                    {
                        "number": 64,
                        "time": 98.25208333333325,
                        "value": 0.49606299212598426
                    },
                    {
                        "number": 64,
                        "time": 98.25624999999991,
                        "value": 1
                    },
                    {
                        "number": 64,
                        "time": 100.50416666666658,
                        "value": 0.49606299212598426
                    },
                    {
                        "number": 64,
                        "time": 100.52916666666658,
                        "value": 0
                    },
                    {
                        "number": 64,
                        "time": 100.68124999999992,
                        "value": 0.49606299212598426
                    },
                    {
                        "number": 64,
                        "time": 100.69999999999992,
                        "value": 1
                    },
                    {
                        "number": 64,
                        "time": 100.77291666666659,
                        "value": 0.49606299212598426
                    },
                    {
                        "number": 64,
                        "time": 100.79374999999992,
                        "value": 0
                    },
                    {
                        "number": 64,
                        "time": 100.9229166666666,
                        "value": 0.49606299212598426
                    },
                    {
                        "number": 64,
                        "time": 100.94374999999992,
                        "value": 1
                    },
                    {
                        "number": 64,
                        "time": 101.02083333333327,
                        "value": 0.49606299212598426
                    },
                    {
                        "number": 64,
                        "time": 101.05624999999995,
                        "value": 0
                    },
                    {
                        "number": 64,
                        "time": 101.12499999999994,
                        "value": 0.49606299212598426
                    },
                    {
                        "number": 64,
                        "time": 101.16249999999994,
                        "value": 1
                    },
                    {
                        "number": 64,
                        "time": 101.62499999999993,
                        "value": 0.49606299212598426
                    },
                    {
                        "number": 64,
                        "time": 101.63749999999993,
                        "value": 0
                    },
                    {
                        "number": 64,
                        "time": 101.79999999999993,
                        "value": 0.49606299212598426
                    },
                    {
                        "number": 64,
                        "time": 101.82083333333325,
                        "value": 1
                    },
                    {
                        "number": 64,
                        "time": 103.07916666666658,
                        "value": 0.49606299212598426
                    },
                    {
                        "number": 64,
                        "time": 103.08958333333325,
                        "value": 0
                    },
                    {
                        "number": 64,
                        "time": 103.20416666666658,
                        "value": 0.49606299212598426
                    },
                    {
                        "number": 64,
                        "time": 103.22708333333324,
                        "value": 1
                    },
                    {
                        "number": 64,
                        "time": 104.13749999999992,
                        "value": 0.49606299212598426
                    },
                    {
                        "number": 64,
                        "time": 104.14999999999992,
                        "value": 0
                    },
                    {
                        "number": 64,
                        "time": 104.27291666666659,
                        "value": 0.49606299212598426
                    },
                    {
                        "number": 64,
                        "time": 104.29583333333325,
                        "value": 1
                    },
                    {
                        "number": 64,
                        "time": 104.8562499999999,
                        "value": 0.49606299212598426
                    },
                    {
                        "number": 64,
                        "time": 104.86666666666657,
                        "value": 0
                    },
                    {
                        "number": 64,
                        "time": 104.97916666666657,
                        "value": 0.49606299212598426
                    },
                    {
                        "number": 64,
                        "time": 104.99166666666657,
                        "value": 1
                    },
                    {
                        "number": 64,
                        "time": 105.22499999999991,
                        "value": 0.49606299212598426
                    },
                    {
                        "number": 64,
                        "time": 105.24166666666657,
                        "value": 0
                    },
                    {
                        "number": 64,
                        "time": 105.36041666666658,
                        "value": 0.49606299212598426
                    },
                    {
                        "number": 64,
                        "time": 105.39791666666657,
                        "value": 1
                    },
                    {
                        "number": 64,
                        "time": 105.53541666666658,
                        "value": 0.49606299212598426
                    },
                    {
                        "number": 64,
                        "time": 105.55833333333325,
                        "value": 0
                    },
                    {
                        "number": 64,
                        "time": 105.66666666666657,
                        "value": 0.49606299212598426
                    },
                    {
                        "number": 64,
                        "time": 105.69166666666656,
                        "value": 1
                    },
                    {
                        "number": 64,
                        "time": 105.78333333333323,
                        "value": 0.49606299212598426
                    },
                    {
                        "number": 64,
                        "time": 105.80416666666656,
                        "value": 0
                    },
                    {
                        "number": 64,
                        "time": 105.91458333333323,
                        "value": 0.49606299212598426
                    },
                    {
                        "number": 64,
                        "time": 105.93749999999989,
                        "value": 1
                    },
                    {
                        "number": 64,
                        "time": 106.40833333333323,
                        "value": 0.49606299212598426
                    },
                    {
                        "number": 64,
                        "time": 106.42291666666657,
                        "value": 0
                    },
                    {
                        "number": 64,
                        "time": 106.5624999999999,
                        "value": 0.49606299212598426
                    },
                    {
                        "number": 64,
                        "time": 106.58333333333323,
                        "value": 1
                    },
                    {
                        "number": 64,
                        "time": 107.53958333333325,
                        "value": 0.49606299212598426
                    },
                    {
                        "number": 64,
                        "time": 107.5479166666666,
                        "value": 0
                    },
                    {
                        "number": 64,
                        "time": 107.64791666666659,
                        "value": 0.49606299212598426
                    },
                    {
                        "number": 64,
                        "time": 107.66874999999992,
                        "value": 1
                    },
                    {
                        "number": 64,
                        "time": 108.8624999999999,
                        "value": 0.49606299212598426
                    },
                    {
                        "number": 64,
                        "time": 108.87916666666656,
                        "value": 0
                    },
                    {
                        "number": 64,
                        "time": 109.0312499999999,
                        "value": 0.49606299212598426
                    },
                    {
                        "number": 64,
                        "time": 109.04791666666657,
                        "value": 1
                    },
                    {
                        "number": 64,
                        "time": 109.54583333333323,
                        "value": 0.49606299212598426
                    },
                    {
                        "number": 64,
                        "time": 109.56041666666657,
                        "value": 0
                    },
                    {
                        "number": 64,
                        "time": 109.64583333333323,
                        "value": 0.49606299212598426
                    },
                    {
                        "number": 64,
                        "time": 109.67083333333323,
                        "value": 1
                    },
                    {
                        "number": 64,
                        "time": 109.79791666666657,
                        "value": 0.49606299212598426
                    },
                    {
                        "number": 64,
                        "time": 109.8124999999999,
                        "value": 0
                    },
                    {
                        "number": 64,
                        "time": 109.98958333333324,
                        "value": 0.49606299212598426
                    },
                    {
                        "number": 64,
                        "time": 110.47708333333323,
                        "value": 0.49606299212598426
                    },
                    {
                        "number": 64,
                        "time": 110.47708333333323,
                        "value": 1
                    },
                    {
                        "number": 64,
                        "time": 111.36249999999988,
                        "value": 0.49606299212598426
                    },
                    {
                        "number": 64,
                        "time": 111.37083333333322,
                        "value": 0
                    },
                    {
                        "number": 64,
                        "time": 111.43958333333322,
                        "value": 0.49606299212598426
                    },
                    {
                        "number": 64,
                        "time": 111.45624999999988,
                        "value": 1
                    },
                    {
                        "number": 64,
                        "time": 112.42083333333322,
                        "value": 0.49606299212598426
                    },
                    {
                        "number": 64,
                        "time": 112.43124999999989,
                        "value": 0
                    },
                    {
                        "number": 64,
                        "time": 112.47291666666656,
                        "value": 0.49606299212598426
                    },
                    {
                        "number": 64,
                        "time": 112.49791666666657,
                        "value": 1
                    },
                    {
                        "number": 64,
                        "time": 113.33333333333319,
                        "value": 0.49606299212598426
                    },
                    {
                        "number": 64,
                        "time": 113.33333333333319,
                        "value": 0
                    },
                    {
                        "number": 64,
                        "time": 113.7458333333332,
                        "value": 0.49606299212598426
                    },
                    {
                        "number": 64,
                        "time": 113.74791666666653,
                        "value": 1
                    },
                    {
                        "number": 64,
                        "time": 114.59374999999986,
                        "value": 0.49606299212598426
                    },
                    {
                        "number": 64,
                        "time": 114.60416666666653,
                        "value": 0
                    },
                    {
                        "number": 64,
                        "time": 114.68749999999986,
                        "value": 0.49606299212598426
                    },
                    {
                        "number": 64,
                        "time": 114.70416666666652,
                        "value": 1
                    },
                    {
                        "number": 64,
                        "time": 115.59374999999984,
                        "value": 0.49606299212598426
                    },
                    {
                        "number": 64,
                        "time": 115.60416666666652,
                        "value": 0
                    },
                    {
                        "number": 64,
                        "time": 115.72291666666652,
                        "value": 0.49606299212598426
                    },
                    {
                        "number": 64,
                        "time": 115.73958333333319,
                        "value": 1
                    },
                    {
                        "number": 64,
                        "time": 116.05208333333319,
                        "value": 0.49606299212598426
                    },
                    {
                        "number": 64,
                        "time": 116.06041666666653,
                        "value": 0
                    },
                    {
                        "number": 64,
                        "time": 116.21458333333318,
                        "value": 0.49606299212598426
                    },
                    {
                        "number": 64,
                        "time": 116.23124999999985,
                        "value": 1
                    },
                    {
                        "number": 64,
                        "time": 116.6395833333332,
                        "value": 0.49606299212598426
                    },
                    {
                        "number": 64,
                        "time": 116.64999999999988,
                        "value": 0
                    },
                    {
                        "number": 64,
                        "time": 116.72499999999988,
                        "value": 0.49606299212598426
                    },
                    {
                        "number": 64,
                        "time": 116.74583333333321,
                        "value": 1
                    },
                    {
                        "number": 64,
                        "time": 117.06874999999988,
                        "value": 0.49606299212598426
                    },
                    {
                        "number": 64,
                        "time": 117.09166666666654,
                        "value": 0
                    },
                    {
                        "number": 64,
                        "time": 117.11249999999987,
                        "value": 0.49606299212598426
                    },
                    {
                        "number": 64,
                        "time": 117.14999999999986,
                        "value": 1
                    },
                    {
                        "number": 64,
                        "time": 117.62083333333318,
                        "value": 0.49606299212598426
                    },
                    {
                        "number": 64,
                        "time": 117.63541666666652,
                        "value": 0
                    },
                    {
                        "number": 64,
                        "time": 117.72291666666652,
                        "value": 0.49606299212598426
                    },
                    {
                        "number": 64,
                        "time": 117.74374999999985,
                        "value": 1
                    },
                    {
                        "number": 64,
                        "time": 117.9854166666665,
                        "value": 0.49606299212598426
                    },
                    {
                        "number": 64,
                        "time": 117.99999999999983,
                        "value": 0
                    },
                    {
                        "number": 64,
                        "time": 118.09374999999983,
                        "value": 0.49606299212598426
                    },
                    {
                        "number": 64,
                        "time": 118.12083333333315,
                        "value": 1
                    },
                    {
                        "number": 64,
                        "time": 118.26458333333314,
                        "value": 0.49606299212598426
                    },
                    {
                        "number": 64,
                        "time": 118.2874999999998,
                        "value": 0
                    },
                    {
                        "number": 64,
                        "time": 118.34166666666646,
                        "value": 0.49606299212598426
                    },
                    {
                        "number": 64,
                        "time": 118.37499999999979,
                        "value": 1
                    },
                    {
                        "number": 64,
                        "time": 118.60624999999978,
                        "value": 0.49606299212598426
                    },
                    {
                        "number": 64,
                        "time": 118.6270833333331,
                        "value": 0
                    },
                    {
                        "number": 64,
                        "time": 118.68333333333311,
                        "value": 0.49606299212598426
                    },
                    {
                        "number": 64,
                        "time": 118.71041666666643,
                        "value": 1
                    },
                    {
                        "number": 64,
                        "time": 118.8770833333331,
                        "value": 0.49606299212598426
                    },
                    {
                        "number": 64,
                        "time": 118.8958333333331,
                        "value": 0
                    },
                    {
                        "number": 64,
                        "time": 118.94166666666644,
                        "value": 0.49606299212598426
                    },
                    {
                        "number": 64,
                        "time": 118.97291666666644,
                        "value": 1
                    },
                    {
                        "number": 64,
                        "time": 118.99166666666643,
                        "value": 0.49606299212598426
                    },
                    {
                        "number": 64,
                        "time": 119.0208333333331,
                        "value": 0
                    },
                    {
                        "number": 64,
                        "time": 119.10833333333309,
                        "value": 0.49606299212598426
                    },
                    {
                        "number": 64,
                        "time": 119.12708333333309,
                        "value": 1
                    },
                    {
                        "number": 64,
                        "time": 119.5333333333331,
                        "value": 0.49606299212598426
                    },
                    {
                        "number": 64,
                        "time": 119.54374999999978,
                        "value": 0
                    },
                    {
                        "number": 64,
                        "time": 119.69166666666644,
                        "value": 0.49606299212598426
                    },
                    {
                        "number": 64,
                        "time": 119.69791666666643,
                        "value": 1
                    },
                    {
                        "number": 64,
                        "time": 120.69999999999978,
                        "value": 0.49606299212598426
                    },
                    {
                        "number": 64,
                        "time": 120.71249999999978,
                        "value": 0
                    },
                    {
                        "number": 64,
                        "time": 120.7708333333331,
                        "value": 0.49606299212598426
                    },
                    {
                        "number": 64,
                        "time": 120.78541666666644,
                        "value": 1
                    },
                    {
                        "number": 64,
                        "time": 121.7395833333331,
                        "value": 0.49606299212598426
                    },
                    {
                        "number": 64,
                        "time": 121.75416666666644,
                        "value": 0
                    },
                    {
                        "number": 64,
                        "time": 121.79791666666644,
                        "value": 0.49606299212598426
                    },
                    {
                        "number": 64,
                        "time": 121.81874999999977,
                        "value": 1
                    },
                    {
                        "number": 64,
                        "time": 123.64166666666644,
                        "value": 0.49606299212598426
                    },
                    {
                        "number": 64,
                        "time": 123.65208333333311,
                        "value": 0
                    },
                    {
                        "number": 64,
                        "time": 123.7020833333331,
                        "value": 0.49606299212598426
                    },
                    {
                        "number": 64,
                        "time": 123.73124999999978,
                        "value": 1
                    },
                    {
                        "number": 64,
                        "time": 124.6624999999998,
                        "value": 0.49606299212598426
                    },
                    {
                        "number": 64,
                        "time": 124.6749999999998,
                        "value": 0
                    },
                    {
                        "number": 64,
                        "time": 124.71249999999979,
                        "value": 0.49606299212598426
                    },
                    {
                        "number": 64,
                        "time": 124.74166666666646,
                        "value": 1
                    },
                    {
                        "number": 64,
                        "time": 125.52499999999979,
                        "value": 0.49606299212598426
                    },
                    {
                        "number": 64,
                        "time": 125.53541666666646,
                        "value": 0
                    },
                    {
                        "number": 64,
                        "time": 125.60833333333314,
                        "value": 0.49606299212598426
                    },
                    {
                        "number": 64,
                        "time": 125.6249999999998,
                        "value": 1
                    },
                    {
                        "number": 64,
                        "time": 127.5437499999998,
                        "value": 0.49606299212598426
                    },
                    {
                        "number": 64,
                        "time": 127.5562499999998,
                        "value": 0
                    },
                    {
                        "number": 64,
                        "time": 127.66041666666646,
                        "value": 0.49606299212598426
                    },
                    {
                        "number": 64,
                        "time": 127.66666666666646,
                        "value": 1
                    },
                    {
                        "number": 64,
                        "time": 128.66249999999982,
                        "value": 0.49606299212598426
                    },
                    {
                        "number": 64,
                        "time": 128.67708333333314,
                        "value": 0
                    },
                    {
                        "number": 64,
                        "time": 128.72291666666646,
                        "value": 0.49606299212598426
                    },
                    {
                        "number": 64,
                        "time": 128.74166666666645,
                        "value": 1
                    },
                    {
                        "number": 64,
                        "time": 129.55208333333314,
                        "value": 0.49606299212598426
                    },
                    {
                        "number": 64,
                        "time": 129.55416666666648,
                        "value": 0
                    },
                    {
                        "number": 64,
                        "time": 129.66041666666646,
                        "value": 0.49606299212598426
                    },
                    {
                        "number": 64,
                        "time": 129.66666666666646,
                        "value": 1
                    },
                    {
                        "number": 64,
                        "time": 131.58749999999978,
                        "value": 0.49606299212598426
                    },
                    {
                        "number": 64,
                        "time": 131.59791666666644,
                        "value": 0
                    },
                    {
                        "number": 64,
                        "time": 131.7395833333331,
                        "value": 0.49606299212598426
                    },
                    {
                        "number": 64,
                        "time": 131.7395833333331,
                        "value": 1
                    },
                    {
                        "number": 64,
                        "time": 132.4416666666664,
                        "value": 0.49606299212598426
                    },
                    {
                        "number": 64,
                        "time": 132.4479166666664,
                        "value": 0
                    },
                    {
                        "number": 64,
                        "time": 132.65416666666638,
                        "value": 1
                    },
                    {
                        "number": 64,
                        "time": 133.44791666666632,
                        "value": 0.49606299212598426
                    },
                    {
                        "number": 64,
                        "time": 133.4604166666663,
                        "value": 0
                    },
                    {
                        "number": 64,
                        "time": 133.6499999999996,
                        "value": 1
                    },
                    {
                        "number": 64,
                        "time": 134.49166666666628,
                        "value": 0.49606299212598426
                    },
                    {
                        "number": 64,
                        "time": 134.49583333333294,
                        "value": 0
                    },
                    {
                        "number": 64,
                        "time": 134.65833333333296,
                        "value": 0.49606299212598426
                    },
                    {
                        "number": 64,
                        "time": 134.6604166666663,
                        "value": 1
                    },
                    {
                        "number": 64,
                        "time": 135.55208333333292,
                        "value": 0.49606299212598426
                    },
                    {
                        "number": 64,
                        "time": 135.56249999999957,
                        "value": 0
                    },
                    {
                        "number": 64,
                        "time": 135.6958333333329,
                        "value": 1
                    },
                    {
                        "number": 64,
                        "time": 136.79583333333287,
                        "value": 0.49606299212598426
                    },
                    {
                        "number": 64,
                        "time": 136.80624999999952,
                        "value": 0
                    },
                    {
                        "number": 64,
                        "time": 136.94583333333287,
                        "value": 0.49606299212598426
                    },
                    {
                        "number": 64,
                        "time": 136.9479166666662,
                        "value": 1
                    },
                    {
                        "number": 64,
                        "time": 138.1041666666662,
                        "value": 0.49606299212598426
                    },
                    {
                        "number": 64,
                        "time": 138.11458333333286,
                        "value": 0
                    },
                    {
                        "number": 64,
                        "time": 138.1791666666662,
                        "value": 0.49606299212598426
                    },
                    {
                        "number": 64,
                        "time": 138.1937499999995,
                        "value": 1
                    },
                    {
                        "number": 64,
                        "time": 140.07083333333279,
                        "value": 0.49606299212598426
                    },
                    {
                        "number": 64,
                        "time": 140.08958333333277,
                        "value": 0
                    },
                    {
                        "number": 64,
                        "time": 140.13333333333276,
                        "value": 0.49606299212598426
                    },
                    {
                        "number": 64,
                        "time": 140.1541666666661,
                        "value": 1
                    },
                    {
                        "number": 64,
                        "time": 141.07083333333276,
                        "value": 0.49606299212598426
                    },
                    {
                        "number": 64,
                        "time": 141.11041666666608,
                        "value": 1
                    },
                    {
                        "number": 64,
                        "time": 141.91874999999936,
                        "value": 0.49606299212598426
                    },
                    {
                        "number": 64,
                        "time": 141.92916666666602,
                        "value": 0
                    },
                    {
                        "number": 64,
                        "time": 141.98749999999936,
                        "value": 0.49606299212598426
                    },
                    {
                        "number": 64,
                        "time": 142.00416666666604,
                        "value": 1
                    },
                    {
                        "number": 64,
                        "time": 143.78541666666604,
                        "value": 0.49606299212598426
                    },
                    {
                        "number": 64,
                        "time": 143.79791666666603,
                        "value": 0
                    },
                    {
                        "number": 64,
                        "time": 143.910416666666,
                        "value": 0.49606299212598426
                    },
                    {
                        "number": 64,
                        "time": 143.91458333333267,
                        "value": 1
                    },
                    {
                        "number": 64,
                        "time": 144.6770833333327,
                        "value": 0.49606299212598426
                    },
                    {
                        "number": 64,
                        "time": 144.67916666666602,
                        "value": 0
                    },
                    {
                        "number": 64,
                        "time": 144.92291666666603,
                        "value": 1
                    },
                    {
                        "number": 64,
                        "time": 146.2374999999993,
                        "value": 0.49606299212598426
                    },
                    {
                        "number": 64,
                        "time": 146.24791666666596,
                        "value": 0
                    },
                    {
                        "number": 64,
                        "time": 146.36666666666594,
                        "value": 0.49606299212598426
                    },
                    {
                        "number": 64,
                        "time": 146.36874999999927,
                        "value": 1
                    },
                    {
                        "number": 64,
                        "time": 147.1916666666659,
                        "value": 0.49606299212598426
                    },
                    {
                        "number": 64,
                        "time": 147.20208333333255,
                        "value": 0
                    },
                    {
                        "number": 64,
                        "time": 147.30208333333255,
                        "value": 0.49606299212598426
                    },
                    {
                        "number": 64,
                        "time": 147.30833333333254,
                        "value": 1
                    },
                    {
                        "number": 64,
                        "time": 148.03958333333247,
                        "value": 0.49606299212598426
                    },
                    {
                        "number": 64,
                        "time": 148.05624999999912,
                        "value": 0
                    },
                    {
                        "number": 64,
                        "time": 148.26666666666583,
                        "value": 1
                    },
                    {
                        "number": 64,
                        "time": 149.05208333333246,
                        "value": 0.49606299212598426
                    },
                    {
                        "number": 64,
                        "time": 149.06249999999912,
                        "value": 0
                    },
                    {
                        "number": 64,
                        "time": 149.16666666666578,
                        "value": 0.49606299212598426
                    },
                    {
                        "number": 64,
                        "time": 149.1749999999991,
                        "value": 1
                    },
                    {
                        "number": 64,
                        "time": 149.82708333333238,
                        "value": 0.49606299212598426
                    },
                    {
                        "number": 64,
                        "time": 149.8354166666657,
                        "value": 0
                    },
                    {
                        "number": 64,
                        "time": 150.08124999999902,
                        "value": 1
                    },
                    {
                        "number": 64,
                        "time": 150.87916666666564,
                        "value": 0.49606299212598426
                    },
                    {
                        "number": 64,
                        "time": 150.88124999999897,
                        "value": 0
                    },
                    {
                        "number": 64,
                        "time": 151.0208333333323,
                        "value": 0.49606299212598426
                    },
                    {
                        "number": 64,
                        "time": 151.02499999999895,
                        "value": 1
                    },
                    {
                        "number": 64,
                        "time": 151.6374999999989,
                        "value": 0.49606299212598426
                    },
                    {
                        "number": 64,
                        "time": 151.64166666666557,
                        "value": 0
                    },
                    {
                        "number": 64,
                        "time": 151.93958333333222,
                        "value": 1
                    },
                    {
                        "number": 64,
                        "time": 152.63749999999882,
                        "value": 0.49606299212598426
                    },
                    {
                        "number": 64,
                        "time": 152.64583333333215,
                        "value": 0
                    },
                    {
                        "number": 64,
                        "time": 152.94374999999883,
                        "value": 1
                    },
                    {
                        "number": 64,
                        "time": 153.4729166666655,
                        "value": 0.49606299212598426
                    },
                    {
                        "number": 64,
                        "time": 153.47499999999883,
                        "value": 0
                    },
                    {
                        "number": 64,
                        "time": 153.75833333333216,
                        "value": 0.49606299212598426
                    },
                    {
                        "number": 64,
                        "time": 153.7604166666655,
                        "value": 1
                    },
                    {
                        "number": 64,
                        "time": 154.14583333333215,
                        "value": 0.49606299212598426
                    },
                    {
                        "number": 64,
                        "time": 154.1562499999988,
                        "value": 0
                    },
                    {
                        "number": 64,
                        "time": 154.21458333333211,
                        "value": 0.49606299212598426
                    },
                    {
                        "number": 64,
                        "time": 154.22499999999877,
                        "value": 1
                    },
                    {
                        "number": 64,
                        "time": 155.1312499999987,
                        "value": 0.49606299212598426
                    },
                    {
                        "number": 64,
                        "time": 155.14374999999868,
                        "value": 0
                    },
                    {
                        "number": 64,
                        "time": 155.38333333333202,
                        "value": 0.49606299212598426
                    },
                    {
                        "number": 64,
                        "time": 155.38541666666535,
                        "value": 1
                    },
                    {
                        "number": 64,
                        "time": 155.92499999999862,
                        "value": 0.49606299212598426
                    },
                    {
                        "number": 64,
                        "time": 155.94583333333196,
                        "value": 0
                    },
                    {
                        "number": 64,
                        "time": 156.22291666666524,
                        "value": 0.49606299212598426
                    },
                    {
                        "number": 64,
                        "time": 156.2333333333319,
                        "value": 1
                    },
                    {
                        "number": 64,
                        "time": 157.01458333333184,
                        "value": 0.49606299212598426
                    },
                    {
                        "number": 64,
                        "time": 157.02916666666516,
                        "value": 0
                    },
                    {
                        "number": 64,
                        "time": 157.1874999999985,
                        "value": 0.49606299212598426
                    },
                    {
                        "number": 64,
                        "time": 157.19583333333182,
                        "value": 1
                    },
                    {
                        "number": 64,
                        "time": 157.6770833333318,
                        "value": 0.49606299212598426
                    },
                    {
                        "number": 64,
                        "time": 157.6895833333318,
                        "value": 0
                    },
                    {
                        "number": 64,
                        "time": 158.09999999999846,
                        "value": 0.49606299212598426
                    },
                    {
                        "number": 64,
                        "time": 158.1020833333318,
                        "value": 1
                    },
                    {
                        "number": 64,
                        "time": 158.55624999999847,
                        "value": 0.49606299212598426
                    },
                    {
                        "number": 64,
                        "time": 158.5770833333318,
                        "value": 0
                    },
                    {
                        "number": 64,
                        "time": 158.99583333333177,
                        "value": 0.49606299212598426
                    },
                    {
                        "number": 64,
                        "time": 159.00624999999843,
                        "value": 1
                    },
                    {
                        "number": 64,
                        "time": 159.57708333333167,
                        "value": 0.49606299212598426
                    },
                    {
                        "number": 64,
                        "time": 159.60208333333165,
                        "value": 0
                    },
                    {
                        "number": 64,
                        "time": 159.92708333333164,
                        "value": 0.49606299212598426
                    },
                    {
                        "number": 64,
                        "time": 159.94166666666496,
                        "value": 1
                    },
                    {
                        "number": 64,
                        "time": 161.08541666666477,
                        "value": 0.49606299212598426
                    },
                    {
                        "number": 64,
                        "time": 161.09791666666476,
                        "value": 0
                    },
                    {
                        "number": 64,
                        "time": 161.26666666666475,
                        "value": 0.49606299212598426
                    },
                    {
                        "number": 64,
                        "time": 161.28124999999807,
                        "value": 1
                    },
                    {
                        "number": 64,
                        "time": 161.74374999999807,
                        "value": 0.49606299212598426
                    },
                    {
                        "number": 64,
                        "time": 161.79583333333142,
                        "value": 0
                    },
                    {
                        "number": 64,
                        "time": 162.6583333333314,
                        "value": 0.49606299212598426
                    },
                    {
                        "number": 64,
                        "time": 162.66666666666472,
                        "value": 1
                    },
                    {
                        "number": 64,
                        "time": 163.39791666666474,
                        "value": 0.49606299212598426
                    },
                    {
                        "number": 64,
                        "time": 163.4145833333314,
                        "value": 1
                    },
                    {
                        "number": 64,
                        "time": 164.5958333333313,
                        "value": 0.49606299212598426
                    },
                    {
                        "number": 64,
                        "time": 164.612499999998,
                        "value": 0
                    },
                    {
                        "number": 64,
                        "time": 164.674999999998,
                        "value": 0.49606299212598426
                    },
                    {
                        "number": 64,
                        "time": 164.69791666666467,
                        "value": 1
                    },
                    {
                        "number": 64,
                        "time": 165.87708333333137,
                        "value": 0.49606299212598426
                    },
                    {
                        "number": 64,
                        "time": 165.8916666666647,
                        "value": 0
                    },
                    {
                        "number": 64,
                        "time": 165.96666666666468,
                        "value": 0.49606299212598426
                    },
                    {
                        "number": 64,
                        "time": 165.99791666666468,
                        "value": 1
                    },
                    {
                        "number": 64,
                        "time": 166.72291666666467,
                        "value": 0.49606299212598426
                    },
                    {
                        "number": 64,
                        "time": 166.72916666666467,
                        "value": 0
                    },
                    {
                        "number": 64,
                        "time": 166.799999999998,
                        "value": 0.49606299212598426
                    },
                    {
                        "number": 64,
                        "time": 166.82708333333133,
                        "value": 1
                    },
                    {
                        "number": 64,
                        "time": 167.94374999999798,
                        "value": 0.49606299212598426
                    },
                    {
                        "number": 64,
                        "time": 167.95624999999797,
                        "value": 0
                    },
                    {
                        "number": 64,
                        "time": 168.06041666666462,
                        "value": 0.49606299212598426
                    },
                    {
                        "number": 64,
                        "time": 168.0833333333313,
                        "value": 1
                    },
                    {
                        "number": 64,
                        "time": 168.8645833333313,
                        "value": 0.49606299212598426
                    },
                    {
                        "number": 64,
                        "time": 168.8708333333313,
                        "value": 0
                    },
                    {
                        "number": 64,
                        "time": 168.9770833333313,
                        "value": 0.49606299212598426
                    },
                    {
                        "number": 64,
                        "time": 168.99166666666463,
                        "value": 1
                    },
                    {
                        "number": 64,
                        "time": 169.5770833333313,
                        "value": 0.49606299212598426
                    },
                    {
                        "number": 64,
                        "time": 169.59166666666462,
                        "value": 0
                    },
                    {
                        "number": 64,
                        "time": 169.62291666666462,
                        "value": 0.49606299212598426
                    },
                    {
                        "number": 64,
                        "time": 169.66249999999795,
                        "value": 1
                    },
                    {
                        "number": 64,
                        "time": 170.02083333333127,
                        "value": 0.49606299212598426
                    },
                    {
                        "number": 64,
                        "time": 170.03333333333126,
                        "value": 0
                    },
                    {
                        "number": 64,
                        "time": 170.1479166666646,
                        "value": 0.49606299212598426
                    },
                    {
                        "number": 64,
                        "time": 170.1666666666646,
                        "value": 1
                    },
                    {
                        "number": 64,
                        "time": 171.3104166666646,
                        "value": 0.49606299212598426
                    },
                    {
                        "number": 64,
                        "time": 171.3249999999979,
                        "value": 0
                    },
                    {
                        "number": 64,
                        "time": 171.47708333333122,
                        "value": 0.49606299212598426
                    },
                    {
                        "number": 64,
                        "time": 171.49791666666457,
                        "value": 1
                    },
                    {
                        "number": 64,
                        "time": 171.74791666666454,
                        "value": 0.49606299212598426
                    },
                    {
                        "number": 64,
                        "time": 171.76666666666452,
                        "value": 0
                    },
                    {
                        "number": 64,
                        "time": 171.84374999999784,
                        "value": 0.49606299212598426
                    },
                    {
                        "number": 64,
                        "time": 171.86874999999785,
                        "value": 1
                    },
                    {
                        "number": 64,
                        "time": 172.27291666666449,
                        "value": 0.49606299212598426
                    },
                    {
                        "number": 64,
                        "time": 172.27916666666448,
                        "value": 0
                    },
                    {
                        "number": 64,
                        "time": 172.43124999999782,
                        "value": 0.49606299212598426
                    },
                    {
                        "number": 64,
                        "time": 172.43958333333114,
                        "value": 1
                    },
                    {
                        "number": 64,
                        "time": 173.3812499999978,
                        "value": 0.49606299212598426
                    },
                    {
                        "number": 64,
                        "time": 173.38958333333113,
                        "value": 0
                    },
                    {
                        "number": 64,
                        "time": 173.4937499999978,
                        "value": 0.49606299212598426
                    },
                    {
                        "number": 64,
                        "time": 173.50624999999778,
                        "value": 1
                    },
                    {
                        "number": 64,
                        "time": 174.58333333333113,
                        "value": 0.49606299212598426
                    },
                    {
                        "number": 64,
                        "time": 174.59583333333111,
                        "value": 0
                    },
                    {
                        "number": 64,
                        "time": 174.6958333333311,
                        "value": 0.49606299212598426
                    },
                    {
                        "number": 64,
                        "time": 174.72291666666445,
                        "value": 1
                    },
                    {
                        "number": 64,
                        "time": 175.4270833333311,
                        "value": 0.49606299212598426
                    },
                    {
                        "number": 64,
                        "time": 175.4333333333311,
                        "value": 0
                    },
                    {
                        "number": 64,
                        "time": 175.52499999999776,
                        "value": 0.49606299212598426
                    },
                    {
                        "number": 64,
                        "time": 175.54374999999774,
                        "value": 1
                    },
                    {
                        "number": 64,
                        "time": 176.8229166666643,
                        "value": 0.49606299212598426
                    },
                    {
                        "number": 64,
                        "time": 176.82499999999763,
                        "value": 1
                    },
                    {
                        "number": 64,
                        "time": 177.78124999999764,
                        "value": 0.49606299212598426
                    },
                    {
                        "number": 64,
                        "time": 177.79374999999763,
                        "value": 0
                    },
                    {
                        "number": 64,
                        "time": 177.83958333333098,
                        "value": 0.49606299212598426
                    },
                    {
                        "number": 64,
                        "time": 177.8729166666643,
                        "value": 1
                    },
                    {
                        "number": 64,
                        "time": 178.85624999999763,
                        "value": 0.49606299212598426
                    },
                    {
                        "number": 64,
                        "time": 178.8666666666643,
                        "value": 0
                    },
                    {
                        "number": 64,
                        "time": 178.9166666666643,
                        "value": 0.49606299212598426
                    },
                    {
                        "number": 64,
                        "time": 178.94374999999764,
                        "value": 1
                    },
                    {
                        "number": 64,
                        "time": 179.97083333333097,
                        "value": 0.49606299212598426
                    },
                    {
                        "number": 64,
                        "time": 179.98333333333096,
                        "value": 0
                    },
                    {
                        "number": 64,
                        "time": 180.0687499999976,
                        "value": 0.49606299212598426
                    },
                    {
                        "number": 64,
                        "time": 180.09583333333092,
                        "value": 1
                    },
                    {
                        "number": 64,
                        "time": 180.65208333333092,
                        "value": 0.49606299212598426
                    },
                    {
                        "number": 64,
                        "time": 180.6645833333309,
                        "value": 0
                    },
                    {
                        "number": 64,
                        "time": 180.7895833333309,
                        "value": 0.49606299212598426
                    },
                    {
                        "number": 64,
                        "time": 180.8062499999976,
                        "value": 1
                    },
                    {
                        "number": 64,
                        "time": 181.28333333333092,
                        "value": 0.49606299212598426
                    },
                    {
                        "number": 64,
                        "time": 181.3374999999976,
                        "value": 0
                    },
                    {
                        "number": 64,
                        "time": 181.78124999999758,
                        "value": 0.49606299212598426
                    },
                    {
                        "number": 64,
                        "time": 181.78333333333092,
                        "value": 1
                    },
                    {
                        "number": 64,
                        "time": 182.68541666666425,
                        "value": 0.49606299212598426
                    },
                    {
                        "number": 64,
                        "time": 182.69999999999757,
                        "value": 0
                    },
                    {
                        "number": 64,
                        "time": 182.74791666666425,
                        "value": 0.49606299212598426
                    },
                    {
                        "number": 64,
                        "time": 182.7687499999976,
                        "value": 1
                    },
                    {
                        "number": 64,
                        "time": 184.24374999999753,
                        "value": 0.49606299212598426
                    },
                    {
                        "number": 64,
                        "time": 184.2604166666642,
                        "value": 0
                    },
                    {
                        "number": 64,
                        "time": 184.2979166666642,
                        "value": 0.49606299212598426
                    },
                    {
                        "number": 64,
                        "time": 184.3354166666642,
                        "value": 1
                    },
                    {
                        "number": 64,
                        "time": 184.95208333333085,
                        "value": 0.49606299212598426
                    },
                    {
                        "number": 64,
                        "time": 185.0187499999975,
                        "value": 1
                    },
                    {
                        "number": 64,
                        "time": 186.4020833333308,
                        "value": 0.49606299212598426
                    },
                    {
                        "number": 64,
                        "time": 186.4208333333308,
                        "value": 0
                    },
                    {
                        "number": 64,
                        "time": 186.49374999999745,
                        "value": 0.49606299212598426
                    },
                    {
                        "number": 64,
                        "time": 186.51041666666413,
                        "value": 1
                    },
                    {
                        "number": 64,
                        "time": 187.27291666666414,
                        "value": 0.49606299212598426
                    },
                    {
                        "number": 64,
                        "time": 187.28124999999747,
                        "value": 0
                    },
                    {
                        "number": 64,
                        "time": 187.3458333333308,
                        "value": 0.49606299212598426
                    },
                    {
                        "number": 64,
                        "time": 187.36874999999748,
                        "value": 1
                    },
                    {
                        "number": 64,
                        "time": 188.08749999999748,
                        "value": 0.49606299212598426
                    },
                    {
                        "number": 64,
                        "time": 188.09791666666413,
                        "value": 0
                    },
                    {
                        "number": 64,
                        "time": 188.1354166666641,
                        "value": 0.49606299212598426
                    },
                    {
                        "number": 64,
                        "time": 188.15624999999744,
                        "value": 1
                    },
                    {
                        "number": 64,
                        "time": 188.58958333333078,
                        "value": 0.49606299212598426
                    },
                    {
                        "number": 64,
                        "time": 188.59999999999744,
                        "value": 0
                    },
                    {
                        "number": 64,
                        "time": 188.66458333333077,
                        "value": 0.49606299212598426
                    },
                    {
                        "number": 64,
                        "time": 188.68749999999744,
                        "value": 1
                    },
                    {
                        "number": 64,
                        "time": 190.01666666666412,
                        "value": 0.49606299212598426
                    },
                    {
                        "number": 64,
                        "time": 190.06249999999744,
                        "value": 1
                    },
                    {
                        "number": 64,
                        "time": 191.06458333333075,
                        "value": 0.49606299212598426
                    },
                    {
                        "number": 64,
                        "time": 191.07291666666407,
                        "value": 0
                    },
                    {
                        "number": 64,
                        "time": 191.15833333333075,
                        "value": 0.49606299212598426
                    },
                    {
                        "number": 64,
                        "time": 191.18124999999742,
                        "value": 1
                    },
                    {
                        "number": 64,
                        "time": 191.92291666666407,
                        "value": 0.49606299212598426
                    },
                    {
                        "number": 64,
                        "time": 191.93541666666405,
                        "value": 0
                    },
                    {
                        "number": 64,
                        "time": 191.9874999999974,
                        "value": 0.49606299212598426
                    },
                    {
                        "number": 64,
                        "time": 192.01458333333073,
                        "value": 1
                    },
                    {
                        "number": 64,
                        "time": 193.34791666666405,
                        "value": 0.49606299212598426
                    },
                    {
                        "number": 64,
                        "time": 193.37916666666402,
                        "value": 0
                    },
                    {
                        "number": 64,
                        "time": 193.40416666666403,
                        "value": 0.49606299212598426
                    },
                    {
                        "number": 64,
                        "time": 193.4520833333307,
                        "value": 1
                    },
                    {
                        "number": 64,
                        "time": 194.11458333333067,
                        "value": 0.49606299212598426
                    },
                    {
                        "number": 64,
                        "time": 194.13124999999732,
                        "value": 0
                    },
                    {
                        "number": 64,
                        "time": 194.185416666664,
                        "value": 0.49606299212598426
                    },
                    {
                        "number": 64,
                        "time": 194.21874999999733,
                        "value": 1
                    },
                    {
                        "number": 64,
                        "time": 195.90416666666397,
                        "value": 0.49606299212598426
                    },
                    {
                        "number": 64,
                        "time": 195.91666666666396,
                        "value": 0
                    },
                    {
                        "number": 64,
                        "time": 195.99374999999728,
                        "value": 0.49606299212598426
                    },
                    {
                        "number": 64,
                        "time": 196.01666666666395,
                        "value": 1
                    },
                    {
                        "number": 64,
                        "time": 196.9333333333306,
                        "value": 0.49606299212598426
                    },
                    {
                        "number": 64,
                        "time": 196.95416666666395,
                        "value": 0
                    },
                    {
                        "number": 64,
                        "time": 196.97708333333063,
                        "value": 0.49606299212598426
                    },
                    {
                        "number": 64,
                        "time": 197.0124999999973,
                        "value": 1
                    },
                    {
                        "number": 64,
                        "time": 198.02291666666392,
                        "value": 0.49606299212598426
                    },
                    {
                        "number": 64,
                        "time": 198.03749999999724,
                        "value": 0
                    },
                    {
                        "number": 64,
                        "time": 198.08749999999722,
                        "value": 0.49606299212598426
                    },
                    {
                        "number": 64,
                        "time": 198.12291666666388,
                        "value": 1
                    },
                    {
                        "number": 64,
                        "time": 199.22083333333052,
                        "value": 0.49606299212598426
                    },
                    {
                        "number": 64,
                        "time": 199.24166666666383,
                        "value": 0
                    },
                    {
                        "number": 64,
                        "time": 199.29166666666384,
                        "value": 0.49606299212598426
                    },
                    {
                        "number": 64,
                        "time": 199.33541666666383,
                        "value": 1
                    },
                    {
                        "number": 64,
                        "time": 199.88333333333048,
                        "value": 0.49606299212598426
                    },
                    {
                        "number": 64,
                        "time": 199.90624999999713,
                        "value": 0
                    },
                    {
                        "number": 64,
                        "time": 199.96458333333047,
                        "value": 0.49606299212598426
                    },
                    {
                        "number": 64,
                        "time": 200.0041666666638,
                        "value": 1
                    },
                    {
                        "number": 64,
                        "time": 200.5604166666638,
                        "value": 0.49606299212598426
                    },
                    {
                        "number": 64,
                        "time": 200.5854166666638,
                        "value": 0
                    },
                    {
                        "number": 64,
                        "time": 201.17708333333047,
                        "value": 0.49606299212598426
                    },
                    {
                        "number": 64,
                        "time": 201.1791666666638,
                        "value": 1
                    },
                    {
                        "number": 64,
                        "time": 202.56874999999712,
                        "value": 0.49606299212598426
                    },
                    {
                        "number": 64,
                        "time": 202.57499999999712,
                        "value": 0
                    },
                    {
                        "number": 64,
                        "time": 202.65208333333044,
                        "value": 0.49606299212598426
                    },
                    {
                        "number": 64,
                        "time": 202.67083333333042,
                        "value": 1
                    },
                    {
                        "number": 64,
                        "time": 203.57291666666376,
                        "value": 0.49606299212598426
                    },
                    {
                        "number": 64,
                        "time": 203.6249999999971,
                        "value": 0
                    },
                    {
                        "number": 64,
                        "time": 203.66041666666376,
                        "value": 0.49606299212598426
                    },
                    {
                        "number": 64,
                        "time": 203.69791666666376,
                        "value": 1
                    },
                    {
                        "number": 64,
                        "time": 204.2895833333304,
                        "value": 0.49606299212598426
                    },
                    {
                        "number": 64,
                        "time": 204.31666666666374,
                        "value": 0
                    },
                    {
                        "number": 64,
                        "time": 204.37916666666374,
                        "value": 0.49606299212598426
                    },
                    {
                        "number": 64,
                        "time": 204.4083333333304,
                        "value": 1
                    },
                    {
                        "number": 64,
                        "time": 206.168749999997,
                        "value": 0.49606299212598426
                    },
                    {
                        "number": 64,
                        "time": 206.21874999999702,
                        "value": 0
                    },
                    {
                        "number": 64,
                        "time": 206.44583333333034,
                        "value": 0.49606299212598426
                    },
                    {
                        "number": 64,
                        "time": 206.46041666666366,
                        "value": 1
                    },
                    {
                        "number": 64,
                        "time": 207.74999999999702,
                        "value": 0.49606299212598426
                    },
                    {
                        "number": 64,
                        "time": 207.75833333333034,
                        "value": 0
                    },
                    {
                        "number": 64,
                        "time": 207.82291666666367,
                        "value": 0.49606299212598426
                    },
                    {
                        "number": 64,
                        "time": 207.84791666666365,
                        "value": 1
                    },
                    {
                        "number": 64,
                        "time": 208.81874999999695,
                        "value": 0.49606299212598426
                    },
                    {
                        "number": 64,
                        "time": 208.8979166666636,
                        "value": 1
                    },
                    {
                        "number": 64,
                        "time": 209.58749999999694,
                        "value": 0.49606299212598426
                    },
                    {
                        "number": 64,
                        "time": 209.62083333333027,
                        "value": 0
                    },
                    {
                        "number": 64,
                        "time": 209.72083333333026,
                        "value": 0.49606299212598426
                    },
                    {
                        "number": 64,
                        "time": 209.7479166666636,
                        "value": 1
                    },
                    {
                        "number": 64,
                        "time": 211.90624999999685,
                        "value": 0.49606299212598426
                    },
                    {
                        "number": 64,
                        "time": 211.93124999999685,
                        "value": 0
                    },
                    {
                        "number": 64,
                        "time": 212.0354166666635,
                        "value": 0.49606299212598426
                    },
                    {
                        "number": 64,
                        "time": 212.05624999999682,
                        "value": 1
                    },
                    {
                        "number": 64,
                        "time": 213.26249999999675,
                        "value": 0.49606299212598426
                    },
                    {
                        "number": 64,
                        "time": 213.27708333333007,
                        "value": 0
                    },
                    {
                        "number": 64,
                        "time": 213.30624999999674,
                        "value": 0.49606299212598426
                    },
                    {
                        "number": 64,
                        "time": 213.33958333333007,
                        "value": 1
                    },
                    {
                        "number": 64,
                        "time": 214.34374999999667,
                        "value": 0.49606299212598426
                    },
                    {
                        "number": 64,
                        "time": 214.44374999999667,
                        "value": 1
                    },
                    {
                        "number": 64,
                        "time": 215.08124999999671,
                        "value": 0.49606299212598426
                    },
                    {
                        "number": 64,
                        "time": 215.10208333333006,
                        "value": 0
                    },
                    {
                        "number": 64,
                        "time": 215.17916666666338,
                        "value": 0.49606299212598426
                    },
                    {
                        "number": 64,
                        "time": 215.20208333333005,
                        "value": 1
                    },
                    {
                        "number": 64,
                        "time": 216.43124999999665,
                        "value": 0.49606299212598426
                    },
                    {
                        "number": 64,
                        "time": 216.44374999999664,
                        "value": 0
                    },
                    {
                        "number": 64,
                        "time": 216.54374999999663,
                        "value": 0.49606299212598426
                    },
                    {
                        "number": 64,
                        "time": 216.55624999999662,
                        "value": 1
                    },
                    {
                        "number": 64,
                        "time": 218.2291666666633,
                        "value": 0.49606299212598426
                    },
                    {
                        "number": 64,
                        "time": 218.23958333332996,
                        "value": 0
                    },
                    {
                        "number": 64,
                        "time": 218.29583333332997,
                        "value": 0.49606299212598426
                    },
                    {
                        "number": 64,
                        "time": 218.32083333332997,
                        "value": 1
                    },
                    {
                        "number": 64,
                        "time": 219.53958333332997,
                        "value": 0.49606299212598426
                    },
                    {
                        "number": 64,
                        "time": 219.5479166666633,
                        "value": 0
                    },
                    {
                        "number": 64,
                        "time": 219.6166666666633,
                        "value": 0.49606299212598426
                    },
                    {
                        "number": 64,
                        "time": 219.63958333332997,
                        "value": 1
                    },
                    {
                        "number": 64,
                        "time": 220.65624999999665,
                        "value": 0.49606299212598426
                    },
                    {
                        "number": 64,
                        "time": 220.66458333332997,
                        "value": 0
                    },
                    {
                        "number": 64,
                        "time": 220.74374999999662,
                        "value": 0.49606299212598426
                    },
                    {
                        "number": 64,
                        "time": 220.76249999999663,
                        "value": 1
                    },
                    {
                        "number": 64,
                        "time": 221.92499999999663,
                        "value": 0.49606299212598426
                    },
                    {
                        "number": 64,
                        "time": 221.93333333332995,
                        "value": 0
                    },
                    {
                        "number": 64,
                        "time": 222.03333333332995,
                        "value": 0.49606299212598426
                    },
                    {
                        "number": 64,
                        "time": 222.04583333332994,
                        "value": 1
                    },
                    {
                        "number": 64,
                        "time": 223.24374999999662,
                        "value": 0.49606299212598426
                    },
                    {
                        "number": 64,
                        "time": 223.25416666666328,
                        "value": 0
                    },
                    {
                        "number": 64,
                        "time": 223.41458333332994,
                        "value": 0.49606299212598426
                    },
                    {
                        "number": 64,
                        "time": 223.4187499999966,
                        "value": 1
                    },
                    {
                        "number": 64,
                        "time": 224.52916666666326,
                        "value": 0.49606299212598426
                    },
                    {
                        "number": 64,
                        "time": 224.53749999999658,
                        "value": 0
                    },
                    {
                        "number": 64,
                        "time": 224.6395833333299,
                        "value": 0.49606299212598426
                    },
                    {
                        "number": 64,
                        "time": 224.6458333333299,
                        "value": 1
                    },
                    {
                        "number": 64,
                        "time": 225.7062499999965,
                        "value": 0.49606299212598426
                    },
                    {
                        "number": 64,
                        "time": 225.72499999999647,
                        "value": 0
                    },
                    {
                        "number": 64,
                        "time": 225.83124999999646,
                        "value": 0.49606299212598426
                    },
                    {
                        "number": 64,
                        "time": 225.84374999999645,
                        "value": 1
                    },
                    {
                        "number": 64,
                        "time": 227.9041666666631,
                        "value": 0.49606299212598426
                    },
                    {
                        "number": 64,
                        "time": 227.93958333332975,
                        "value": 0
                    },
                    {
                        "number": 64,
                        "time": 228.06249999999642,
                        "value": 0.49606299212598426
                    },
                    {
                        "number": 64,
                        "time": 228.1249999999964,
                        "value": 1
                    },
                    {
                        "number": 64,
                        "time": 229.1854166666631,
                        "value": 0.49606299212598426
                    },
                    {
                        "number": 64,
                        "time": 229.19583333332974,
                        "value": 0
                    },
                    {
                        "number": 64,
                        "time": 229.2916666666631,
                        "value": 0.49606299212598426
                    },
                    {
                        "number": 64,
                        "time": 229.29999999999643,
                        "value": 1
                    },
                    {
                        "number": 64,
                        "time": 230.8124999999964,
                        "value": 0.49606299212598426
                    },
                    {
                        "number": 64,
                        "time": 230.82291666666305,
                        "value": 0
                    },
                    {
                        "number": 64,
                        "time": 230.91666666666302,
                        "value": 0.49606299212598426
                    },
                    {
                        "number": 64,
                        "time": 230.93541666666303,
                        "value": 1
                    },
                    {
                        "number": 64,
                        "time": 232.99374999999628,
                        "value": 0.49606299212598426
                    },
                    {
                        "number": 64,
                        "time": 233.09166666666295,
                        "value": 0
                    },
                    {
                        "number": 64,
                        "time": 233.44166666666294,
                        "value": 0.49606299212598426
                    },
                    {
                        "number": 64,
                        "time": 233.44374999999627,
                        "value": 1
                    },
                    {
                        "number": 64,
                        "time": 234.76041666666293,
                        "value": 0.49606299212598426
                    },
                    {
                        "number": 64,
                        "time": 234.76874999999626,
                        "value": 0
                    },
                    {
                        "number": 64,
                        "time": 234.83541666666292,
                        "value": 0.49606299212598426
                    },
                    {
                        "number": 64,
                        "time": 234.84999999999624,
                        "value": 1
                    },
                    {
                        "number": 64,
                        "time": 235.85416666666282,
                        "value": 0.49606299212598426
                    },
                    {
                        "number": 64,
                        "time": 235.86874999999614,
                        "value": 0
                    },
                    {
                        "number": 64,
                        "time": 235.93958333332947,
                        "value": 0.49606299212598426
                    },
                    {
                        "number": 64,
                        "time": 235.96874999999613,
                        "value": 1
                    },
                    {
                        "number": 64,
                        "time": 236.71666666666277,
                        "value": 0.49606299212598426
                    },
                    {
                        "number": 64,
                        "time": 236.7354166666628,
                        "value": 0
                    },
                    {
                        "number": 64,
                        "time": 236.81874999999613,
                        "value": 0.49606299212598426
                    },
                    {
                        "number": 64,
                        "time": 236.83958333332947,
                        "value": 1
                    },
                    {
                        "number": 64,
                        "time": 238.0812499999961,
                        "value": 0.49606299212598426
                    },
                    {
                        "number": 64,
                        "time": 238.0958333333294,
                        "value": 0
                    },
                    {
                        "number": 64,
                        "time": 238.2062499999961,
                        "value": 0.49606299212598426
                    },
                    {
                        "number": 64,
                        "time": 238.21874999999608,
                        "value": 1
                    },
                    {
                        "number": 64,
                        "time": 239.98958333332942,
                        "value": 0.49606299212598426
                    },
                    {
                        "number": 64,
                        "time": 240.00624999999607,
                        "value": 0
                    },
                    {
                        "number": 64,
                        "time": 240.03749999999607,
                        "value": 0.49606299212598426
                    },
                    {
                        "number": 64,
                        "time": 240.06874999999607,
                        "value": 1
                    },
                    {
                        "number": 64,
                        "time": 241.16458333332935,
                        "value": 0.49606299212598426
                    },
                    {
                        "number": 64,
                        "time": 241.18333333332936,
                        "value": 0
                    },
                    {
                        "number": 64,
                        "time": 241.2729166666627,
                        "value": 0.49606299212598426
                    },
                    {
                        "number": 64,
                        "time": 241.2979166666627,
                        "value": 1
                    },
                    {
                        "number": 64,
                        "time": 242.4708333333293,
                        "value": 0.49606299212598426
                    },
                    {
                        "number": 64,
                        "time": 242.48124999999595,
                        "value": 0
                    },
                    {
                        "number": 64,
                        "time": 242.5833333333293,
                        "value": 0.49606299212598426
                    },
                    {
                        "number": 64,
                        "time": 242.60416666666265,
                        "value": 1
                    },
                    {
                        "number": 64,
                        "time": 243.52708333332933,
                        "value": 0.49606299212598426
                    },
                    {
                        "number": 64,
                        "time": 243.53541666666266,
                        "value": 0
                    },
                    {
                        "number": 64,
                        "time": 243.7145833333293,
                        "value": 0.49606299212598426
                    },
                    {
                        "number": 64,
                        "time": 243.71666666666263,
                        "value": 1
                    },
                    {
                        "number": 64,
                        "time": 244.71666666666258,
                        "value": 0.49606299212598426
                    },
                    {
                        "number": 64,
                        "time": 244.7187499999959,
                        "value": 0
                    },
                    {
                        "number": 64,
                        "time": 245.02083333332922,
                        "value": 1
                    },
                    {
                        "number": 64,
                        "time": 245.8145833333291,
                        "value": 0.49606299212598426
                    },
                    {
                        "number": 64,
                        "time": 245.82499999999575,
                        "value": 0
                    },
                    {
                        "number": 64,
                        "time": 246.0854166666624,
                        "value": 0.49606299212598426
                    },
                    {
                        "number": 64,
                        "time": 246.10624999999575,
                        "value": 1
                    },
                    {
                        "number": 64,
                        "time": 246.3624999999957,
                        "value": 0.49606299212598426
                    },
                    {
                        "number": 64,
                        "time": 246.36458333332902,
                        "value": 0
                    },
                    {
                        "number": 64,
                        "time": 248.08333333332882,
                        "value": 0.49606299212598426
                    },
                    {
                        "number": 64,
                        "time": 248.08541666666216,
                        "value": 1
                    },
                    {
                        "number": 64,
                        "time": 248.88749999999544,
                        "value": 0.49606299212598426
                    },
                    {
                        "number": 64,
                        "time": 248.89583333332877,
                        "value": 0
                    },
                    {
                        "number": 64,
                        "time": 248.96249999999546,
                        "value": 0.49606299212598426
                    },
                    {
                        "number": 64,
                        "time": 248.9895833333288,
                        "value": 1
                    },
                    {
                        "number": 64,
                        "time": 249.89583333332877,
                        "value": 0.49606299212598426
                    },
                    {
                        "number": 64,
                        "time": 249.91458333332878,
                        "value": 0
                    },
                    {
                        "number": 64,
                        "time": 249.93541666666212,
                        "value": 0.49606299212598426
                    },
                    {
                        "number": 64,
                        "time": 249.97499999999545,
                        "value": 1
                    },
                    {
                        "number": 64,
                        "time": 250.23333333332877,
                        "value": 0.49606299212598426
                    },
                    {
                        "number": 64,
                        "time": 250.24999999999545,
                        "value": 0
                    },
                    {
                        "number": 64,
                        "time": 250.28124999999545,
                        "value": 0.49606299212598426
                    },
                    {
                        "number": 64,
                        "time": 250.31041666666212,
                        "value": 1
                    },
                    {
                        "number": 64,
                        "time": 250.4208333333288,
                        "value": 0.49606299212598426
                    },
                    {
                        "number": 64,
                        "time": 250.49791666666212,
                        "value": 1
                    },
                    {
                        "number": 64,
                        "time": 251.0749999999955,
                        "value": 0.49606299212598426
                    },
                    {
                        "number": 64,
                        "time": 251.08333333332882,
                        "value": 0
                    },
                    {
                        "number": 64,
                        "time": 251.38124999999548,
                        "value": 1
                    },
                    {
                        "number": 64,
                        "time": 253.35624999999507,
                        "value": 0.49606299212598426
                    },
                    {
                        "number": 64,
                        "time": 253.3708333333284,
                        "value": 0
                    },
                    {
                        "number": 64,
                        "time": 253.68541666666167,
                        "value": 1
                    },
                    {
                        "number": 64,
                        "time": 255.05833333332814,
                        "value": 0.49606299212598426
                    },
                    {
                        "number": 64,
                        "time": 255.07291666666146,
                        "value": 0
                    },
                    {
                        "number": 64,
                        "time": 255.15416666666144,
                        "value": 0.49606299212598426
                    },
                    {
                        "number": 64,
                        "time": 255.1958333333281,
                        "value": 1
                    },
                    {
                        "number": 64,
                        "time": 255.60624999999467,
                        "value": 0.49606299212598426
                    },
                    {
                        "number": 64,
                        "time": 255.633333333328,
                        "value": 0
                    },
                    {
                        "number": 64,
                        "time": 256.3187499999948,
                        "value": 0.49606299212598426
                    },
                    {
                        "number": 64,
                        "time": 256.4229166666615,
                        "value": 0
                    },
                    {
                        "number": 64,
                        "time": 256.52916666666147,
                        "value": 0.49606299212598426
                    },
                    {
                        "number": 64,
                        "time": 256.55416666666156,
                        "value": 1
                    },
                    {
                        "number": 64,
                        "time": 257.40833333332847,
                        "value": 0.49606299212598426
                    },
                    {
                        "number": 64,
                        "time": 257.41874999999516,
                        "value": 0
                    },
                    {
                        "number": 64,
                        "time": 257.46666666666187,
                        "value": 0.49606299212598426
                    },
                    {
                        "number": 64,
                        "time": 257.4874999999952,
                        "value": 1
                    },
                    {
                        "number": 64,
                        "time": 257.9874999999952,
                        "value": 0.49606299212598426
                    },
                    {
                        "number": 64,
                        "time": 257.9958333333285,
                        "value": 0
                    },
                    {
                        "number": 64,
                        "time": 258.31041666666187,
                        "value": 0.49606299212598426
                    },
                    {
                        "number": 64,
                        "time": 258.3124999999952,
                        "value": 1
                    },
                    {
                        "number": 64,
                        "time": 258.91249999999525,
                        "value": 0.49606299212598426
                    },
                    {
                        "number": 64,
                        "time": 258.9270833333286,
                        "value": 0
                    },
                    {
                        "number": 64,
                        "time": 259.2541666666619,
                        "value": 0.49606299212598426
                    },
                    {
                        "number": 64,
                        "time": 259.25833333332855,
                        "value": 1
                    },
                    {
                        "number": 64,
                        "time": 260.74791666666215,
                        "value": 0.49606299212598426
                    },
                    {
                        "number": 64,
                        "time": 260.7749999999955,
                        "value": 0
                    },
                    {
                        "number": 64,
                        "time": 260.90208333332885,
                        "value": 0.49606299212598426
                    },
                    {
                        "number": 64,
                        "time": 260.9270833333288,
                        "value": 1
                    },
                    {
                        "number": 64,
                        "time": 261.35208333332884,
                        "value": 0.49606299212598426
                    },
                    {
                        "number": 64,
                        "time": 261.3749999999955,
                        "value": 0
                    },
                    {
                        "number": 64,
                        "time": 261.42291666666216,
                        "value": 0.49606299212598426
                    },
                    {
                        "number": 64,
                        "time": 261.4687499999955,
                        "value": 1
                    },
                    {
                        "number": 64,
                        "time": 262.07291666666214,
                        "value": 0.49606299212598426
                    },
                    {
                        "number": 64,
                        "time": 262.0770833333288,
                        "value": 0
                    },
                    {
                        "number": 64,
                        "time": 262.202083333329,
                        "value": 0.49606299212598426
                    },
                    {
                        "number": 64,
                        "time": 262.21041666666235,
                        "value": 1
                    },
                    {
                        "number": 64,
                        "time": 263.04374999999624,
                        "value": 0.49606299212598426
                    },
                    {
                        "number": 64,
                        "time": 263.06874999999627,
                        "value": 0
                    },
                    {
                        "number": 64,
                        "time": 265.21249999999736,
                        "value": 0.49606299212598426
                    },
                    {
                        "number": 64,
                        "time": 265.2145833333307,
                        "value": 1
                    },
                    {
                        "number": 64,
                        "time": 266.01874999999757,
                        "value": 0.49606299212598426
                    },
                    {
                        "number": 64,
                        "time": 266.0874999999976,
                        "value": 1
                    },
                    {
                        "number": 64,
                        "time": 266.8729166666645,
                        "value": 0.49606299212598426
                    },
                    {
                        "number": 64,
                        "time": 266.88541666666447,
                        "value": 0
                    },
                    {
                        "number": 64,
                        "time": 267.0291666666645,
                        "value": 0.49606299212598426
                    },
                    {
                        "number": 64,
                        "time": 267.04374999999783,
                        "value": 1
                    },
                    {
                        "number": 64,
                        "time": 267.20208333333125,
                        "value": 0.49606299212598426
                    },
                    {
                        "number": 64,
                        "time": 267.224999999998,
                        "value": 0
                    },
                    {
                        "number": 64,
                        "time": 267.26041666666464,
                        "value": 0.49606299212598426
                    },
                    {
                        "number": 64,
                        "time": 267.2854166666646,
                        "value": 1
                    },
                    {
                        "number": 64,
                        "time": 267.38749999999794,
                        "value": 0.49606299212598426
                    },
                    {
                        "number": 64,
                        "time": 267.4916666666647,
                        "value": 1
                    },
                    {
                        "number": 64,
                        "time": 268.0687499999981,
                        "value": 0.49606299212598426
                    },
                    {
                        "number": 64,
                        "time": 268.0749999999981,
                        "value": 0
                    },
                    {
                        "number": 64,
                        "time": 268.3916666666648,
                        "value": 0.49606299212598426
                    },
                    {
                        "number": 64,
                        "time": 268.39374999999814,
                        "value": 1
                    },
                    {
                        "number": 64,
                        "time": 271.0208333333326,
                        "value": 0.49606299212598426
                    },
                    {
                        "number": 64,
                        "time": 271.1770833333326,
                        "value": 1
                    },
                    {
                        "number": 64,
                        "time": 271.39999999999924,
                        "value": 0.49606299212598426
                    },
                    {
                        "number": 64,
                        "time": 271.4145833333326,
                        "value": 0
                    },
                    {
                        "number": 64,
                        "time": 271.5208333333326,
                        "value": 0.49606299212598426
                    },
                    {
                        "number": 64,
                        "time": 271.5354166666659,
                        "value": 1
                    },
                    {
                        "number": 64,
                        "time": 272.49999999999926,
                        "value": 0.49606299212598426
                    },
                    {
                        "number": 64,
                        "time": 272.51041666666595,
                        "value": 0
                    },
                    {
                        "number": 64,
                        "time": 272.5895833333327,
                        "value": 0.49606299212598426
                    },
                    {
                        "number": 64,
                        "time": 272.610416666666,
                        "value": 1
                    },
                    {
                        "number": 64,
                        "time": 273.49374999999935,
                        "value": 0.49606299212598426
                    },
                    {
                        "number": 64,
                        "time": 273.50624999999934,
                        "value": 0
                    },
                    {
                        "number": 64,
                        "time": 273.6145833333327,
                        "value": 0.49606299212598426
                    },
                    {
                        "number": 64,
                        "time": 273.62916666666604,
                        "value": 1
                    },
                    {
                        "number": 64,
                        "time": 274.4624999999995,
                        "value": 0.49606299212598426
                    },
                    {
                        "number": 64,
                        "time": 274.4729166666662,
                        "value": 0
                    },
                    {
                        "number": 64,
                        "time": 274.57291666666623,
                        "value": 0.49606299212598426
                    },
                    {
                        "number": 64,
                        "time": 274.5854166666662,
                        "value": 1
                    },
                    {
                        "number": 64,
                        "time": 275.5687499999996,
                        "value": 0.49606299212598426
                    },
                    {
                        "number": 64,
                        "time": 275.5791666666663,
                        "value": 0
                    },
                    {
                        "number": 64,
                        "time": 275.6624999999997,
                        "value": 0.49606299212598426
                    },
                    {
                        "number": 64,
                        "time": 275.6812499999997,
                        "value": 1
                    },
                    {
                        "number": 64,
                        "time": 276.48541666666654,
                        "value": 0.49606299212598426
                    },
                    {
                        "number": 64,
                        "time": 276.4958333333332,
                        "value": 0
                    },
                    {
                        "number": 64,
                        "time": 276.5729166666666,
                        "value": 0.49606299212598426
                    },
                    {
                        "number": 64,
                        "time": 276.58541666666656,
                        "value": 1
                    },
                    {
                        "number": 64,
                        "time": 277.5395833333334,
                        "value": 0.49606299212598426
                    },
                    {
                        "number": 64,
                        "time": 277.55208333333337,
                        "value": 0
                    },
                    {
                        "number": 64,
                        "time": 278.50208333333376,
                        "value": 1
                    },
                    {
                        "number": 64,
                        "time": 278.77500000000043,
                        "value": 0.49606299212598426
                    },
                    {
                        "number": 64,
                        "time": 278.77500000000043,
                        "value": 0
                    },
                    {
                        "number": 64,
                        "time": 278.88750000000044,
                        "value": 0.49606299212598426
                    },
                    {
                        "number": 64,
                        "time": 278.89791666666713,
                        "value": 1
                    },
                    {
                        "number": 64,
                        "time": 278.9729166666671,
                        "value": 0.49606299212598426
                    },
                    {
                        "number": 64,
                        "time": 278.98125000000044,
                        "value": 0
                    },
                    {
                        "number": 64,
                        "time": 279.1354166666671,
                        "value": 0.49606299212598426
                    },
                    {
                        "number": 64,
                        "time": 279.15833333333376,
                        "value": 1
                    },
                    {
                        "number": 64,
                        "time": 279.37708333333376,
                        "value": 0.49606299212598426
                    },
                    {
                        "number": 64,
                        "time": 279.4166666666671,
                        "value": 1
                    },
                    {
                        "number": 64,
                        "time": 279.8958333333338,
                        "value": 0.49606299212598426
                    },
                    {
                        "number": 64,
                        "time": 279.90833333333387,
                        "value": 0
                    },
                    {
                        "number": 64,
                        "time": 279.9770833333339,
                        "value": 0.49606299212598426
                    },
                    {
                        "number": 64,
                        "time": 280.00625000000053,
                        "value": 1
                    },
                    {
                        "number": 64,
                        "time": 281.0875000000005,
                        "value": 0.49606299212598426
                    },
                    {
                        "number": 64,
                        "time": 281.13541666666714,
                        "value": 1
                    },
                    {
                        "number": 64,
                        "time": 282.19166666666723,
                        "value": 0.49606299212598426
                    },
                    {
                        "number": 64,
                        "time": 282.2041666666672,
                        "value": 0
                    },
                    {
                        "number": 64,
                        "time": 282.27291666666724,
                        "value": 0.49606299212598426
                    },
                    {
                        "number": 64,
                        "time": 282.2958333333339,
                        "value": 1
                    },
                    {
                        "number": 64,
                        "time": 283.0958333333339,
                        "value": 0.49606299212598426
                    },
                    {
                        "number": 64,
                        "time": 283.11458333333394,
                        "value": 1
                    },
                    {
                        "number": 64,
                        "time": 284.10416666666737,
                        "value": 0.49606299212598426
                    },
                    {
                        "number": 64,
                        "time": 284.19375000000076,
                        "value": 1
                    },
                    {
                        "number": 64,
                        "time": 285.02083333333417,
                        "value": 0.49606299212598426
                    },
                    {
                        "number": 64,
                        "time": 285.03958333333424,
                        "value": 0
                    },
                    {
                        "number": 64,
                        "time": 285.07708333333426,
                        "value": 0.49606299212598426
                    },
                    {
                        "number": 64,
                        "time": 285.12083333333425,
                        "value": 1
                    },
                    {
                        "number": 64,
                        "time": 286.05416666666764,
                        "value": 0.49606299212598426
                    },
                    {
                        "number": 64,
                        "time": 286.0645833333343,
                        "value": 0
                    },
                    {
                        "number": 64,
                        "time": 286.162500000001,
                        "value": 0.49606299212598426
                    },
                    {
                        "number": 64,
                        "time": 286.18333333333436,
                        "value": 1
                    },
                    {
                        "number": 64,
                        "time": 286.931250000001,
                        "value": 0.49606299212598426
                    },
                    {
                        "number": 64,
                        "time": 286.9395833333343,
                        "value": 0
                    },
                    {
                        "number": 64,
                        "time": 287.00625000000105,
                        "value": 0.49606299212598426
                    },
                    {
                        "number": 64,
                        "time": 287.0291666666677,
                        "value": 1
                    },
                    {
                        "number": 64,
                        "time": 288.0604166666678,
                        "value": 0.49606299212598426
                    },
                    {
                        "number": 64,
                        "time": 288.07083333333446,
                        "value": 0
                    },
                    {
                        "number": 64,
                        "time": 288.1604166666678,
                        "value": 0.49606299212598426
                    },
                    {
                        "number": 64,
                        "time": 288.1812500000011,
                        "value": 1
                    },
                    {
                        "number": 64,
                        "time": 289.14791666666787,
                        "value": 0.49606299212598426
                    },
                    {
                        "number": 64,
                        "time": 289.17083333333454,
                        "value": 1
                    },
                    {
                        "number": 64,
                        "time": 290.1208333333346,
                        "value": 0.49606299212598426
                    },
                    {
                        "number": 64,
                        "time": 290.1312500000013,
                        "value": 0
                    },
                    {
                        "number": 64,
                        "time": 290.1895833333346,
                        "value": 0.49606299212598426
                    },
                    {
                        "number": 64,
                        "time": 290.2208333333346,
                        "value": 1
                    },
                    {
                        "number": 64,
                        "time": 291.10208333333475,
                        "value": 0.49606299212598426
                    },
                    {
                        "number": 64,
                        "time": 291.1166666666681,
                        "value": 0
                    },
                    {
                        "number": 64,
                        "time": 291.15208333333476,
                        "value": 0.49606299212598426
                    },
                    {
                        "number": 64,
                        "time": 291.1895833333348,
                        "value": 1
                    },
                    {
                        "number": 64,
                        "time": 292.0520833333349,
                        "value": 0.49606299212598426
                    },
                    {
                        "number": 64,
                        "time": 292.0625000000016,
                        "value": 0
                    },
                    {
                        "number": 64,
                        "time": 292.11041666666824,
                        "value": 0.49606299212598426
                    },
                    {
                        "number": 64,
                        "time": 292.14166666666824,
                        "value": 1
                    },
                    {
                        "number": 64,
                        "time": 293.014583333335,
                        "value": 0.49606299212598426
                    },
                    {
                        "number": 64,
                        "time": 293.02916666666835,
                        "value": 0
                    },
                    {
                        "number": 64,
                        "time": 293.07500000000175,
                        "value": 0.49606299212598426
                    },
                    {
                        "number": 64,
                        "time": 293.10833333333505,
                        "value": 1
                    },
                    {
                        "number": 64,
                        "time": 293.9833333333353,
                        "value": 0.49606299212598426
                    },
                    {
                        "number": 64,
                        "time": 294.0041666666686,
                        "value": 0
                    },
                    {
                        "number": 64,
                        "time": 294.0270833333353,
                        "value": 0.49606299212598426
                    },
                    {
                        "number": 64,
                        "time": 294.0750000000021,
                        "value": 1
                    },
                    {
                        "number": 64,
                        "time": 294.5854166666688,
                        "value": 0.49606299212598426
                    },
                    {
                        "number": 64,
                        "time": 294.6458333333354,
                        "value": 0
                    },
                    {
                        "number": 64,
                        "time": 294.69583333333543,
                        "value": 0.49606299212598426
                    },
                    {
                        "number": 64,
                        "time": 294.7416666666687,
                        "value": 1
                    },
                    {
                        "number": 64,
                        "time": 295.5604166666688,
                        "value": 0.49606299212598426
                    },
                    {
                        "number": 64,
                        "time": 295.5833333333355,
                        "value": 1
                    },
                    {
                        "number": 64,
                        "time": 296.4083333333356,
                        "value": 0.49606299212598426
                    },
                    {
                        "number": 64,
                        "time": 296.4354166666689,
                        "value": 0
                    },
                    {
                        "number": 64,
                        "time": 296.5645833333356,
                        "value": 0.49606299212598426
                    },
                    {
                        "number": 64,
                        "time": 296.58750000000225,
                        "value": 1
                    },
                    {
                        "number": 64,
                        "time": 297.52500000000225,
                        "value": 0.49606299212598426
                    },
                    {
                        "number": 64,
                        "time": 297.6104166666689,
                        "value": 1
                    },
                    {
                        "number": 64,
                        "time": 298.654166666669,
                        "value": 0.49606299212598426
                    },
                    {
                        "number": 64,
                        "time": 298.66250000000235,
                        "value": 0
                    },
                    {
                        "number": 64,
                        "time": 298.73333333333574,
                        "value": 0.49606299212598426
                    },
                    {
                        "number": 64,
                        "time": 298.7583333333357,
                        "value": 1
                    },
                    {
                        "number": 64,
                        "time": 299.5937500000026,
                        "value": 0.49606299212598426
                    },
                    {
                        "number": 64,
                        "time": 299.6062500000026,
                        "value": 0
                    },
                    {
                        "number": 64,
                        "time": 299.6500000000026,
                        "value": 0.49606299212598426
                    },
                    {
                        "number": 64,
                        "time": 299.6812500000026,
                        "value": 1
                    },
                    {
                        "number": 64,
                        "time": 300.62083333333595,
                        "value": 0.49606299212598426
                    },
                    {
                        "number": 64,
                        "time": 300.63333333333594,
                        "value": 0
                    },
                    {
                        "number": 64,
                        "time": 300.67291666666927,
                        "value": 0.49606299212598426
                    },
                    {
                        "number": 64,
                        "time": 300.70208333333596,
                        "value": 1
                    },
                    {
                        "number": 64,
                        "time": 301.53541666666933,
                        "value": 0.49606299212598426
                    },
                    {
                        "number": 64,
                        "time": 301.5479166666693,
                        "value": 0
                    },
                    {
                        "number": 64,
                        "time": 301.595833333336,
                        "value": 0.49606299212598426
                    },
                    {
                        "number": 64,
                        "time": 301.6229166666693,
                        "value": 1
                    },
                    {
                        "number": 64,
                        "time": 302.66458333333617,
                        "value": 0.49606299212598426
                    },
                    {
                        "number": 64,
                        "time": 302.6791666666695,
                        "value": 0
                    },
                    {
                        "number": 64,
                        "time": 302.7208333333362,
                        "value": 0.49606299212598426
                    },
                    {
                        "number": 64,
                        "time": 302.75416666666956,
                        "value": 1
                    },
                    {
                        "number": 64,
                        "time": 304.84583333333626,
                        "value": 0.49606299212598426
                    },
                    {
                        "number": 64,
                        "time": 304.85833333333625,
                        "value": 0
                    },
                    {
                        "number": 64,
                        "time": 304.9125000000029,
                        "value": 0.49606299212598426
                    },
                    {
                        "number": 64,
                        "time": 304.9458333333363,
                        "value": 1
                    },
                    {
                        "number": 64,
                        "time": 305.96250000000305,
                        "value": 0.49606299212598426
                    },
                    {
                        "number": 64,
                        "time": 305.98333333333636,
                        "value": 1
                    },
                    {
                        "number": 64,
                        "time": 306.8958333333363,
                        "value": 0.49606299212598426
                    },
                    {
                        "number": 64,
                        "time": 306.91250000000304,
                        "value": 0
                    },
                    {
                        "number": 64,
                        "time": 306.93125000000305,
                        "value": 0.49606299212598426
                    },
                    {
                        "number": 64,
                        "time": 306.9708333333364,
                        "value": 1
                    },
                    {
                        "number": 64,
                        "time": 307.88541666666976,
                        "value": 0.49606299212598426
                    },
                    {
                        "number": 64,
                        "time": 307.90416666666977,
                        "value": 0
                    },
                    {
                        "number": 64,
                        "time": 307.9229166666698,
                        "value": 0.49606299212598426
                    },
                    {
                        "number": 64,
                        "time": 307.96458333333646,
                        "value": 1
                    },
                    {
                        "number": 64,
                        "time": 308.8770833333366,
                        "value": 0.49606299212598426
                    },
                    {
                        "number": 64,
                        "time": 308.88750000000334,
                        "value": 0
                    },
                    {
                        "number": 64,
                        "time": 308.94375000000343,
                        "value": 0.49606299212598426
                    },
                    {
                        "number": 64,
                        "time": 308.9729166666701,
                        "value": 1
                    },
                    {
                        "number": 64,
                        "time": 309.82500000000346,
                        "value": 0.49606299212598426
                    },
                    {
                        "number": 64,
                        "time": 309.83541666667014,
                        "value": 0
                    },
                    {
                        "number": 64,
                        "time": 309.9375000000035,
                        "value": 0.49606299212598426
                    },
                    {
                        "number": 64,
                        "time": 309.9604166666702,
                        "value": 1
                    },
                    {
                        "number": 64,
                        "time": 310.28541666667013,
                        "value": 0.49606299212598426
                    },
                    {
                        "number": 64,
                        "time": 310.29166666667015,
                        "value": 0
                    },
                    {
                        "number": 64,
                        "time": 310.6062500000035,
                        "value": 0.49606299212598426
                    },
                    {
                        "number": 64,
                        "time": 310.6083333333369,
                        "value": 1
                    },
                    {
                        "number": 64,
                        "time": 310.8666666666702,
                        "value": 0.49606299212598426
                    },
                    {
                        "number": 64,
                        "time": 310.8916666666702,
                        "value": 1
                    },
                    {
                        "number": 64,
                        "time": 311.28750000000355,
                        "value": 0.49606299212598426
                    },
                    {
                        "number": 64,
                        "time": 311.3020833333369,
                        "value": 0
                    },
                    {
                        "number": 64,
                        "time": 311.3562500000036,
                        "value": 0.49606299212598426
                    },
                    {
                        "number": 64,
                        "time": 311.3875000000036,
                        "value": 1
                    },
                    {
                        "number": 64,
                        "time": 312.30625000000373,
                        "value": 0.49606299212598426
                    },
                    {
                        "number": 64,
                        "time": 312.33958333333703,
                        "value": 1
                    },
                    {
                        "number": 64,
                        "time": 312.84583333333694,
                        "value": 0.49606299212598426
                    },
                    {
                        "number": 64,
                        "time": 312.8625000000036,
                        "value": 0
                    },
                    {
                        "number": 64,
                        "time": 315.67083333333716,
                        "value": 0.49606299212598426
                    },
                    {
                        "number": 64,
                        "time": 315.6791666666705,
                        "value": 1
                    },
                    {
                        "number": 64,
                        "time": 315.9958333333372,
                        "value": 0.49606299212598426
                    },
                    {
                        "number": 64,
                        "time": 316.0062500000039,
                        "value": 0
                    },
                    {
                        "number": 64,
                        "time": 316.2520833333372,
                        "value": 0.49606299212598426
                    },
                    {
                        "number": 64,
                        "time": 316.26041666667055,
                        "value": 1
                    },
                    {
                        "number": 64,
                        "time": 316.4166666666706,
                        "value": 0.49606299212598426
                    },
                    {
                        "number": 64,
                        "time": 316.4291666666706,
                        "value": 0
                    },
                    {
                        "number": 64,
                        "time": 316.64375000000393,
                        "value": 0.49606299212598426
                    },
                    {
                        "number": 64,
                        "time": 316.6479166666706,
                        "value": 1
                    },
                    {
                        "number": 64,
                        "time": 316.90416666667056,
                        "value": 0.49606299212598426
                    },
                    {
                        "number": 64,
                        "time": 316.91458333333725,
                        "value": 0
                    },
                    {
                        "number": 64,
                        "time": 316.96666666667056,
                        "value": 0.49606299212598426
                    },
                    {
                        "number": 64,
                        "time": 316.98958333333724,
                        "value": 1
                    },
                    {
                        "number": 64,
                        "time": 317.8604166666707,
                        "value": 0.49606299212598426
                    },
                    {
                        "number": 64,
                        "time": 317.88541666667066,
                        "value": 0
                    },
                    {
                        "number": 64,
                        "time": 318.025000000004,
                        "value": 0.49606299212598426
                    },
                    {
                        "number": 64,
                        "time": 318.0458333333373,
                        "value": 1
                    },
                    {
                        "number": 64,
                        "time": 318.1708333333373,
                        "value": 0.49606299212598426
                    },
                    {
                        "number": 64,
                        "time": 318.187500000004,
                        "value": 0
                    },
                    {
                        "number": 64,
                        "time": 318.331250000004,
                        "value": 0.49606299212598426
                    },
                    {
                        "number": 64,
                        "time": 318.34583333333734,
                        "value": 1
                    },
                    {
                        "number": 64,
                        "time": 318.4354166666707,
                        "value": 0.49606299212598426
                    },
                    {
                        "number": 64,
                        "time": 318.4520833333373,
                        "value": 0
                    },
                    {
                        "number": 64,
                        "time": 318.53333333333734,
                        "value": 0.49606299212598426
                    },
                    {
                        "number": 64,
                        "time": 318.5479166666707,
                        "value": 1
                    },
                    {
                        "number": 64,
                        "time": 318.9291666666707,
                        "value": 0.49606299212598426
                    },
                    {
                        "number": 64,
                        "time": 318.97708333333736,
                        "value": 1
                    },
                    {
                        "number": 64,
                        "time": 319.8708333333374,
                        "value": 0.49606299212598426
                    },
                    {
                        "number": 64,
                        "time": 319.8895833333374,
                        "value": 0
                    },
                    {
                        "number": 64,
                        "time": 319.9895833333374,
                        "value": 0.49606299212598426
                    },
                    {
                        "number": 64,
                        "time": 320.0083333333374,
                        "value": 1
                    },
                    {
                        "number": 64,
                        "time": 321.1312500000041,
                        "value": 0.49606299212598426
                    },
                    {
                        "number": 64,
                        "time": 321.14583333333746,
                        "value": 0
                    },
                    {
                        "number": 64,
                        "time": 321.2562500000041,
                        "value": 0.49606299212598426
                    },
                    {
                        "number": 64,
                        "time": 321.27291666667077,
                        "value": 1
                    },
                    {
                        "number": 64,
                        "time": 322.4125000000041,
                        "value": 0.49606299212598426
                    },
                    {
                        "number": 64,
                        "time": 322.4291666666708,
                        "value": 0
                    },
                    {
                        "number": 64,
                        "time": 322.6041666666709,
                        "value": 0.49606299212598426
                    },
                    {
                        "number": 64,
                        "time": 322.61875000000424,
                        "value": 1
                    },
                    {
                        "number": 64,
                        "time": 322.7729166666709,
                        "value": 0.49606299212598426
                    },
                    {
                        "number": 64,
                        "time": 322.78333333333757,
                        "value": 0
                    },
                    {
                        "number": 64,
                        "time": 323.1354166666709,
                        "value": 0.49606299212598426
                    },
                    {
                        "number": 64,
                        "time": 323.13750000000425,
                        "value": 1
                    },
                    {
                        "number": 64,
                        "time": 323.46458333333766,
                        "value": 0.49606299212598426
                    },
                    {
                        "number": 64,
                        "time": 323.479166666671,
                        "value": 0
                    },
                    {
                        "number": 64,
                        "time": 323.77083333333775,
                        "value": 0.49606299212598426
                    },
                    {
                        "number": 64,
                        "time": 323.7729166666711,
                        "value": 1
                    },
                    {
                        "number": 64,
                        "time": 323.9270833333378,
                        "value": 0.49606299212598426
                    },
                    {
                        "number": 64,
                        "time": 323.93541666667113,
                        "value": 0
                    },
                    {
                        "number": 64,
                        "time": 324.0666666666711,
                        "value": 0.49606299212598426
                    },
                    {
                        "number": 64,
                        "time": 324.0791666666711,
                        "value": 1
                    },
                    {
                        "number": 64,
                        "time": 324.3479166666711,
                        "value": 0.49606299212598426
                    },
                    {
                        "number": 64,
                        "time": 324.3791666666711,
                        "value": 0
                    },
                    {
                        "number": 64,
                        "time": 324.4000000000044,
                        "value": 0.49606299212598426
                    },
                    {
                        "number": 64,
                        "time": 324.43958333333774,
                        "value": 1
                    },
                    {
                        "number": 64,
                        "time": 324.75833333333776,
                        "value": 0.49606299212598426
                    },
                    {
                        "number": 64,
                        "time": 324.8458333333378,
                        "value": 1
                    },
                    {
                        "number": 64,
                        "time": 325.1354166666711,
                        "value": 0.49606299212598426
                    },
                    {
                        "number": 64,
                        "time": 325.1583333333378,
                        "value": 0
                    },
                    {
                        "number": 64,
                        "time": 325.17916666667116,
                        "value": 0.49606299212598426
                    },
                    {
                        "number": 64,
                        "time": 325.21250000000447,
                        "value": 1
                    },
                    {
                        "number": 64,
                        "time": 325.3979166666711,
                        "value": 0.49606299212598426
                    },
                    {
                        "number": 64,
                        "time": 325.41458333333776,
                        "value": 0
                    },
                    {
                        "number": 64,
                        "time": 325.46041666667105,
                        "value": 0.49606299212598426
                    },
                    {
                        "number": 64,
                        "time": 325.48125000000437,
                        "value": 1
                    },
                    {
                        "number": 64,
                        "time": 325.76458333333767,
                        "value": 0.49606299212598426
                    },
                    {
                        "number": 64,
                        "time": 325.8083333333377,
                        "value": 1
                    },
                    {
                        "number": 64,
                        "time": 326.1125000000044,
                        "value": 0.49606299212598426
                    },
                    {
                        "number": 64,
                        "time": 326.16875000000437,
                        "value": 1
                    },
                    {
                        "number": 64,
                        "time": 326.4500000000045,
                        "value": 0.49606299212598426
                    },
                    {
                        "number": 64,
                        "time": 326.56666666667115,
                        "value": 1
                    },
                    {
                        "number": 64,
                        "time": 327.77291666667116,
                        "value": 0.49606299212598426
                    },
                    {
                        "number": 64,
                        "time": 327.78541666667115,
                        "value": 0
                    },
                    {
                        "number": 64,
                        "time": 327.8416666666712,
                        "value": 0.49606299212598426
                    },
                    {
                        "number": 64,
                        "time": 327.8729166666712,
                        "value": 1
                    },
                    {
                        "number": 64,
                        "time": 328.78958333333793,
                        "value": 0.49606299212598426
                    },
                    {
                        "number": 64,
                        "time": 328.8062500000046,
                        "value": 0
                    },
                    {
                        "number": 64,
                        "time": 328.91458333333793,
                        "value": 0.49606299212598426
                    },
                    {
                        "number": 64,
                        "time": 328.92083333333795,
                        "value": 1
                    },
                    {
                        "number": 64,
                        "time": 329.8812500000047,
                        "value": 0.49606299212598426
                    },
                    {
                        "number": 64,
                        "time": 329.89166666667137,
                        "value": 0
                    },
                    {
                        "number": 64,
                        "time": 329.96666666667136,
                        "value": 0.49606299212598426
                    },
                    {
                        "number": 64,
                        "time": 329.9875000000047,
                        "value": 1
                    },
                    {
                        "number": 64,
                        "time": 330.920833333338,
                        "value": 0.49606299212598426
                    },
                    {
                        "number": 64,
                        "time": 330.933333333338,
                        "value": 0
                    },
                    {
                        "number": 64,
                        "time": 331.3500000000047,
                        "value": 1
                    },
                    {
                        "number": 64,
                        "time": 332.10833333333846,
                        "value": 0.49606299212598426
                    },
                    {
                        "number": 64,
                        "time": 332.1229166666718,
                        "value": 0
                    },
                    {
                        "number": 64,
                        "time": 332.3729166666718,
                        "value": 0.49606299212598426
                    },
                    {
                        "number": 64,
                        "time": 332.3750000000052,
                        "value": 1
                    },
                    {
                        "number": 64,
                        "time": 333.2395833333386,
                        "value": 0.49606299212598426
                    },
                    {
                        "number": 64,
                        "time": 333.2500000000053,
                        "value": 0
                    },
                    {
                        "number": 64,
                        "time": 333.36458333333866,
                        "value": 0.49606299212598426
                    },
                    {
                        "number": 64,
                        "time": 333.379166666672,
                        "value": 1
                    },
                    {
                        "number": 64,
                        "time": 333.7583333333387,
                        "value": 0.49606299212598426
                    },
                    {
                        "number": 64,
                        "time": 333.76458333333875,
                        "value": 0
                    },
                    {
                        "number": 64,
                        "time": 334.33333333333894,
                        "value": 1
                    },
                    {
                        "number": 64,
                        "time": 334.50208333333893,
                        "value": 0.49606299212598426
                    },
                    {
                        "number": 64,
                        "time": 334.5145833333389,
                        "value": 0
                    },
                    {
                        "number": 64,
                        "time": 335.2958333333392,
                        "value": 1
                    },
                    {
                        "number": 64,
                        "time": 335.92083333333943,
                        "value": 0.49606299212598426
                    },
                    {
                        "number": 64,
                        "time": 335.92500000000615,
                        "value": 0
                    },
                    {
                        "number": 64,
                        "time": 336.20833333333945,
                        "value": 0.49606299212598426
                    },
                    {
                        "number": 64,
                        "time": 336.2104166666728,
                        "value": 1
                    },
                    {
                        "number": 64,
                        "time": 336.93958333333956,
                        "value": 0.49606299212598426
                    },
                    {
                        "number": 64,
                        "time": 336.9458333333396,
                        "value": 0
                    },
                    {
                        "number": 64,
                        "time": 337.1895833333396,
                        "value": 0.49606299212598426
                    },
                    {
                        "number": 64,
                        "time": 337.191666666673,
                        "value": 1
                    },
                    {
                        "number": 64,
                        "time": 337.56250000000637,
                        "value": 0.49606299212598426
                    },
                    {
                        "number": 64,
                        "time": 337.5708333333397,
                        "value": 0
                    },
                    {
                        "number": 64,
                        "time": 337.77916666667306,
                        "value": 0.49606299212598426
                    },
                    {
                        "number": 64,
                        "time": 337.7812500000064,
                        "value": 1
                    },
                    {
                        "number": 64,
                        "time": 337.8854166666731,
                        "value": 0.49606299212598426
                    },
                    {
                        "number": 64,
                        "time": 337.8979166666731,
                        "value": 0
                    },
                    {
                        "number": 64,
                        "time": 338.08333333333974,
                        "value": 1
                    },
                    {
                        "number": 64,
                        "time": 338.37083333333976,
                        "value": 0.49606299212598426
                    },
                    {
                        "number": 64,
                        "time": 338.3791666666731,
                        "value": 0
                    },
                    {
                        "number": 64,
                        "time": 338.42916666667304,
                        "value": 0.49606299212598426
                    },
                    {
                        "number": 64,
                        "time": 338.4395833333398,
                        "value": 1
                    },
                    {
                        "number": 64,
                        "time": 338.5708333333397,
                        "value": 0.49606299212598426
                    },
                    {
                        "number": 64,
                        "time": 338.579166666673,
                        "value": 0
                    },
                    {
                        "number": 64,
                        "time": 338.7000000000064,
                        "value": 0.49606299212598426
                    },
                    {
                        "number": 64,
                        "time": 338.7020833333398,
                        "value": 1
                    },
                    {
                        "number": 64,
                        "time": 338.9729166666733,
                        "value": 0.49606299212598426
                    },
                    {
                        "number": 64,
                        "time": 338.97916666667334,
                        "value": 0
                    },
                    {
                        "number": 64,
                        "time": 339.21458333334004,
                        "value": 1
                    },
                    {
                        "number": 64,
                        "time": 339.97708333334026,
                        "value": 0.49606299212598426
                    },
                    {
                        "number": 64,
                        "time": 339.9916666666736,
                        "value": 0
                    },
                    {
                        "number": 64,
                        "time": 340.31875000000696,
                        "value": 0.49606299212598426
                    },
                    {
                        "number": 64,
                        "time": 340.3229166666736,
                        "value": 1
                    },
                    {
                        "number": 64,
                        "time": 341.206250000007,
                        "value": 0.49606299212598426
                    },
                    {
                        "number": 64,
                        "time": 341.23958333334036,
                        "value": 0
                    },
                    {
                        "number": 64,
                        "time": 341.28958333334043,
                        "value": 0.49606299212598426
                    },
                    {
                        "number": 64,
                        "time": 341.3229166666738,
                        "value": 1
                    },
                    {
                        "number": 64,
                        "time": 341.57708333334045,
                        "value": 0.49606299212598426
                    },
                    {
                        "number": 64,
                        "time": 341.58958333334044,
                        "value": 0
                    },
                    {
                        "number": 64,
                        "time": 342.2645833333405,
                        "value": 0.49606299212598426
                    },
                    {
                        "number": 64,
                        "time": 342.26666666667387,
                        "value": 1
                    },
                    {
                        "number": 64,
                        "time": 342.5000000000073,
                        "value": 0.49606299212598426
                    },
                    {
                        "number": 64,
                        "time": 342.5062500000073,
                        "value": 0
                    },
                    {
                        "number": 64,
                        "time": 343.26250000000744,
                        "value": 1
                    },
                    {
                        "number": 64,
                        "time": 343.88541666667436,
                        "value": 0.49606299212598426
                    },
                    {
                        "number": 64,
                        "time": 343.8916666666744,
                        "value": 0
                    },
                    {
                        "number": 64,
                        "time": 344.4750000000078,
                        "value": 1
                    },
                    {
                        "number": 64,
                        "time": 345.21666666667466,
                        "value": 0.49606299212598426
                    },
                    {
                        "number": 64,
                        "time": 345.225000000008,
                        "value": 0
                    },
                    {
                        "number": 64,
                        "time": 345.31041666667466,
                        "value": 0.49606299212598426
                    },
                    {
                        "number": 64,
                        "time": 345.32083333334134,
                        "value": 1
                    },
                    {
                        "number": 64,
                        "time": 346.1208333333415,
                        "value": 0.49606299212598426
                    },
                    {
                        "number": 64,
                        "time": 346.1333333333415,
                        "value": 0
                    },
                    {
                        "number": 64,
                        "time": 346.30208333334156,
                        "value": 1
                    },
                    {
                        "number": 64,
                        "time": 346.8833333333418,
                        "value": 0.49606299212598426
                    },
                    {
                        "number": 64,
                        "time": 346.89583333334184,
                        "value": 0
                    },
                    {
                        "number": 64,
                        "time": 346.94375000000855,
                        "value": 0.49606299212598426
                    },
                    {
                        "number": 64,
                        "time": 346.95416666667523,
                        "value": 1
                    },
                    {
                        "number": 64,
                        "time": 347.0979166666752,
                        "value": 0.49606299212598426
                    },
                    {
                        "number": 64,
                        "time": 347.1041666666752,
                        "value": 0
                    },
                    {
                        "number": 64,
                        "time": 347.277083333342,
                        "value": 1
                    },
                    {
                        "number": 64,
                        "time": 348.37916666667536,
                        "value": 0.49606299212598426
                    },
                    {
                        "number": 64,
                        "time": 348.39166666667535,
                        "value": 0
                    },
                    {
                        "number": 64,
                        "time": 348.477083333342,
                        "value": 0.49606299212598426
                    },
                    {
                        "number": 64,
                        "time": 348.4875000000087,
                        "value": 1
                    },
                    {
                        "number": 64,
                        "time": 349.50833333334214,
                        "value": 0.49606299212598426
                    },
                    {
                        "number": 64,
                        "time": 349.5187500000088,
                        "value": 0
                    },
                    {
                        "number": 64,
                        "time": 349.5729166666755,
                        "value": 0.49606299212598426
                    },
                    {
                        "number": 64,
                        "time": 349.5916666666755,
                        "value": 1
                    },
                    {
                        "number": 64,
                        "time": 350.1437500000088,
                        "value": 0.49606299212598426
                    },
                    {
                        "number": 64,
                        "time": 350.1458333333422,
                        "value": 0
                    },
                    {
                        "number": 64,
                        "time": 350.4520833333423,
                        "value": 0.49606299212598426
                    },
                    {
                        "number": 64,
                        "time": 350.45416666667563,
                        "value": 1
                    },
                    {
                        "number": 64,
                        "time": 350.975000000009,
                        "value": 0.49606299212598426
                    },
                    {
                        "number": 64,
                        "time": 350.98333333334233,
                        "value": 0
                    },
                    {
                        "number": 64,
                        "time": 351.4541666666757,
                        "value": 1
                    },
                    {
                        "number": 64,
                        "time": 352.42083333334244,
                        "value": 0.49606299212598426
                    },
                    {
                        "number": 64,
                        "time": 352.43125000000913,
                        "value": 0
                    },
                    {
                        "number": 64,
                        "time": 352.49375000000913,
                        "value": 1
                    },
                    {
                        "number": 64,
                        "time": 353.54583333334256,
                        "value": 0.49606299212598426
                    },
                    {
                        "number": 64,
                        "time": 353.5541666666759,
                        "value": 0
                    },
                    {
                        "number": 64,
                        "time": 353.63333333334253,
                        "value": 0.49606299212598426
                    },
                    {
                        "number": 64,
                        "time": 353.6458333333425,
                        "value": 1
                    },
                    {
                        "number": 64,
                        "time": 354.56458333334274,
                        "value": 0.49606299212598426
                    },
                    {
                        "number": 64,
                        "time": 354.5833333333428,
                        "value": 0
                    },
                    {
                        "number": 64,
                        "time": 355.7104166666763,
                        "value": 1
                    },
                    {
                        "number": 64,
                        "time": 356.70208333334307,
                        "value": 0.49606299212598426
                    },
                    {
                        "number": 64,
                        "time": 356.71250000000975,
                        "value": 0
                    },
                    {
                        "number": 64,
                        "time": 356.7833333333431,
                        "value": 0.49606299212598426
                    },
                    {
                        "number": 64,
                        "time": 356.8020833333431,
                        "value": 1
                    },
                    {
                        "number": 64,
                        "time": 357.77083333334315,
                        "value": 0.49606299212598426
                    },
                    {
                        "number": 64,
                        "time": 357.7791666666765,
                        "value": 0
                    },
                    {
                        "number": 64,
                        "time": 357.8833333333431,
                        "value": 0.49606299212598426
                    },
                    {
                        "number": 64,
                        "time": 357.90000000000975,
                        "value": 1
                    },
                    {
                        "number": 64,
                        "time": 358.3208333333431,
                        "value": 0.49606299212598426
                    },
                    {
                        "number": 64,
                        "time": 358.3270833333431,
                        "value": 0
                    },
                    {
                        "number": 64,
                        "time": 358.72291666667644,
                        "value": 0.49606299212598426
                    },
                    {
                        "number": 64,
                        "time": 358.7250000000098,
                        "value": 1
                    },
                    {
                        "number": 64,
                        "time": 359.0645833333432,
                        "value": 0.49606299212598426
                    },
                    {
                        "number": 64,
                        "time": 359.0729166666765,
                        "value": 0
                    },
                    {
                        "number": 64,
                        "time": 359.72500000000997,
                        "value": 1
                    },
                    {
                        "number": 64,
                        "time": 360.7041666666769,
                        "value": 0.49606299212598426
                    },
                    {
                        "number": 64,
                        "time": 360.71458333334357,
                        "value": 0
                    },
                    {
                        "number": 64,
                        "time": 360.80833333334357,
                        "value": 0.49606299212598426
                    },
                    {
                        "number": 64,
                        "time": 360.8250000000102,
                        "value": 1
                    },
                    {
                        "number": 64,
                        "time": 363.6937500000104,
                        "value": 0.49606299212598426
                    },
                    {
                        "number": 64,
                        "time": 363.6958333333438,
                        "value": 0
                    },
                    {
                        "number": 64,
                        "time": 363.8083333333438,
                        "value": 0.49606299212598426
                    },
                    {
                        "number": 64,
                        "time": 363.8145833333438,
                        "value": 1
                    },
                    {
                        "number": 64,
                        "time": 364.78333333334376,
                        "value": 0.49606299212598426
                    },
                    {
                        "number": 64,
                        "time": 364.7916666666771,
                        "value": 0
                    },
                    {
                        "number": 64,
                        "time": 364.85833333334375,
                        "value": 0.49606299212598426
                    },
                    {
                        "number": 64,
                        "time": 364.87708333334376,
                        "value": 1
                    },
                    {
                        "number": 64,
                        "time": 365.691666666677,
                        "value": 0.49606299212598426
                    },
                    {
                        "number": 64,
                        "time": 365.7000000000104,
                        "value": 0
                    },
                    {
                        "number": 64,
                        "time": 365.77500000001044,
                        "value": 0.49606299212598426
                    },
                    {
                        "number": 64,
                        "time": 365.7916666666771,
                        "value": 1
                    },
                    {
                        "number": 64,
                        "time": 366.8104166666771,
                        "value": 0.49606299212598426
                    },
                    {
                        "number": 64,
                        "time": 366.8208333333438,
                        "value": 0
                    },
                    {
                        "number": 64,
                        "time": 366.8895833333438,
                        "value": 0.49606299212598426
                    },
                    {
                        "number": 64,
                        "time": 366.9145833333438,
                        "value": 1
                    },
                    {
                        "number": 64,
                        "time": 367.8104166666773,
                        "value": 0.49606299212598426
                    },
                    {
                        "number": 64,
                        "time": 367.820833333344,
                        "value": 0
                    },
                    {
                        "number": 64,
                        "time": 367.902083333344,
                        "value": 0.49606299212598426
                    },
                    {
                        "number": 64,
                        "time": 367.92083333334404,
                        "value": 1
                    },
                    {
                        "number": 64,
                        "time": 370.31666666667746,
                        "value": 0.49606299212598426
                    },
                    {
                        "number": 64,
                        "time": 370.3250000000108,
                        "value": 1
                    },
                    {
                        "number": 64,
                        "time": 371.06875000001077,
                        "value": 0.49606299212598426
                    },
                    {
                        "number": 64,
                        "time": 371.09375000001074,
                        "value": 0
                    },
                    {
                        "number": 64,
                        "time": 371.25000000001074,
                        "value": 0.49606299212598426
                    },
                    {
                        "number": 64,
                        "time": 371.2666666666774,
                        "value": 1
                    },
                    {
                        "number": 64,
                        "time": 372.32708333334415,
                        "value": 0.49606299212598426
                    },
                    {
                        "number": 64,
                        "time": 372.4229166666775,
                        "value": 1
                    },
                    {
                        "number": 64,
                        "time": 373.17916666667753,
                        "value": 0.49606299212598426
                    },
                    {
                        "number": 64,
                        "time": 373.21041666667753,
                        "value": 0
                    },
                    {
                        "number": 64,
                        "time": 373.30208333334417,
                        "value": 0.49606299212598426
                    },
                    {
                        "number": 64,
                        "time": 373.3291666666775,
                        "value": 1
                    },
                    {
                        "number": 64,
                        "time": 374.39583333334406,
                        "value": 0.49606299212598426
                    },
                    {
                        "number": 64,
                        "time": 374.42083333334404,
                        "value": 0
                    },
                    {
                        "number": 64,
                        "time": 374.53333333334405,
                        "value": 0.49606299212598426
                    },
                    {
                        "number": 64,
                        "time": 374.55416666667736,
                        "value": 1
                    },
                    {
                        "number": 64,
                        "time": 375.34166666667744,
                        "value": 0.49606299212598426
                    },
                    {
                        "number": 64,
                        "time": 375.3583333333441,
                        "value": 0
                    },
                    {
                        "number": 64,
                        "time": 375.58125000001075,
                        "value": 0.49606299212598426
                    },
                    {
                        "number": 64,
                        "time": 375.5895833333441,
                        "value": 1
                    },
                    {
                        "number": 64,
                        "time": 376.03125000001074,
                        "value": 0.49606299212598426
                    },
                    {
                        "number": 64,
                        "time": 376.03750000001077,
                        "value": 0
                    },
                    {
                        "number": 64,
                        "time": 376.4625000000109,
                        "value": 0.49606299212598426
                    },
                    {
                        "number": 64,
                        "time": 376.46458333334425,
                        "value": 1
                    },
                    {
                        "number": 64,
                        "time": 377.5666666666777,
                        "value": 0.49606299212598426
                    },
                    {
                        "number": 64,
                        "time": 377.58333333334434,
                        "value": 0
                    },
                    {
                        "number": 64,
                        "time": 377.693750000011,
                        "value": 0.49606299212598426
                    },
                    {
                        "number": 64,
                        "time": 377.71041666667765,
                        "value": 1
                    },
                    {
                        "number": 64,
                        "time": 378.587500000011,
                        "value": 0.49606299212598426
                    },
                    {
                        "number": 64,
                        "time": 378.606250000011,
                        "value": 0
                    },
                    {
                        "number": 64,
                        "time": 378.75208333334433,
                        "value": 0.49606299212598426
                    },
                    {
                        "number": 64,
                        "time": 378.7666666666777,
                        "value": 1
                    },
                    {
                        "number": 64,
                        "time": 379.62916666667775,
                        "value": 0.49606299212598426
                    },
                    {
                        "number": 64,
                        "time": 379.63958333334443,
                        "value": 0
                    },
                    {
                        "number": 64,
                        "time": 379.7770833333444,
                        "value": 0.49606299212598426
                    },
                    {
                        "number": 64,
                        "time": 379.7895833333444,
                        "value": 1
                    },
                    {
                        "number": 64,
                        "time": 380.2958333333445,
                        "value": 0.49606299212598426
                    },
                    {
                        "number": 64,
                        "time": 380.30000000001115,
                        "value": 0
                    },
                    {
                        "number": 64,
                        "time": 380.6666666666779,
                        "value": 0.49606299212598426
                    },
                    {
                        "number": 64,
                        "time": 380.6666666666779,
                        "value": 1
                    },
                    {
                        "number": 64,
                        "time": 381.8312500000114,
                        "value": 0.49606299212598426
                    },
                    {
                        "number": 64,
                        "time": 381.84166666667807,
                        "value": 0
                    },
                    {
                        "number": 64,
                        "time": 381.91041666667803,
                        "value": 0.49606299212598426
                    },
                    {
                        "number": 64,
                        "time": 381.9250000000114,
                        "value": 1
                    },
                    {
                        "number": 64,
                        "time": 382.9666666666781,
                        "value": 0.49606299212598426
                    },
                    {
                        "number": 64,
                        "time": 382.9770833333448,
                        "value": 0
                    },
                    {
                        "number": 64,
                        "time": 383.03958333334486,
                        "value": 0.49606299212598426
                    },
                    {
                        "number": 64,
                        "time": 383.0604166666782,
                        "value": 1
                    },
                    {
                        "number": 64,
                        "time": 384.0270833333449,
                        "value": 0.49606299212598426
                    },
                    {
                        "number": 64,
                        "time": 384.0395833333449,
                        "value": 0
                    },
                    {
                        "number": 64,
                        "time": 384.07916666667825,
                        "value": 0.49606299212598426
                    },
                    {
                        "number": 64,
                        "time": 384.09791666667826,
                        "value": 1
                    },
                    {
                        "number": 64,
                        "time": 384.30416666667827,
                        "value": 0.49606299212598426
                    },
                    {
                        "number": 64,
                        "time": 384.3125000000116,
                        "value": 0
                    },
                    {
                        "number": 64,
                        "time": 385.1812500000115,
                        "value": 0.49606299212598426
                    },
                    {
                        "number": 64,
                        "time": 385.1812500000115,
                        "value": 1
                    },
                    {
                        "number": 64,
                        "time": 385.5020833333449,
                        "value": 0.49606299212598426
                    },
                    {
                        "number": 64,
                        "time": 385.5104166666783,
                        "value": 0
                    },
                    {
                        "number": 64,
                        "time": 386.1875000000118,
                        "value": 0.49606299212598426
                    },
                    {
                        "number": 64,
                        "time": 386.1895833333452,
                        "value": 1
                    },
                    {
                        "number": 64,
                        "time": 386.5166666666785,
                        "value": 0.49606299212598426
                    },
                    {
                        "number": 64,
                        "time": 386.5229166666785,
                        "value": 0
                    },
                    {
                        "number": 64,
                        "time": 387.23125000001187,
                        "value": 1
                    },
                    {
                        "number": 64,
                        "time": 388.3416666666787,
                        "value": 0.49606299212598426
                    },
                    {
                        "number": 64,
                        "time": 388.3520833333454,
                        "value": 0
                    },
                    {
                        "number": 64,
                        "time": 388.4833333333454,
                        "value": 0.49606299212598426
                    },
                    {
                        "number": 64,
                        "time": 388.49791666667875,
                        "value": 1
                    },
                    {
                        "number": 64,
                        "time": 388.82916666667876,
                        "value": 0.49606299212598426
                    },
                    {
                        "number": 64,
                        "time": 388.8458333333454,
                        "value": 0
                    },
                    {
                        "number": 64,
                        "time": 388.9312500000121,
                        "value": 0.49606299212598426
                    },
                    {
                        "number": 64,
                        "time": 388.94791666667874,
                        "value": 1
                    },
                    {
                        "number": 64,
                        "time": 389.1895833333454,
                        "value": 0.49606299212598426
                    },
                    {
                        "number": 64,
                        "time": 389.20416666667876,
                        "value": 0
                    },
                    {
                        "number": 64,
                        "time": 389.2520833333454,
                        "value": 0.49606299212598426
                    },
                    {
                        "number": 64,
                        "time": 389.2770833333454,
                        "value": 1
                    },
                    {
                        "number": 64,
                        "time": 389.77708333334544,
                        "value": 0.49606299212598426
                    },
                    {
                        "number": 64,
                        "time": 389.79791666667876,
                        "value": 0
                    },
                    {
                        "number": 64,
                        "time": 389.9750000000121,
                        "value": 0.49606299212598426
                    },
                    {
                        "number": 64,
                        "time": 389.9895833333454,
                        "value": 1
                    },
                    {
                        "number": 64,
                        "time": 391.5208333333454,
                        "value": 0.49606299212598426
                    },
                    {
                        "number": 64,
                        "time": 391.52708333334544,
                        "value": 0
                    },
                    {
                        "number": 64,
                        "time": 391.64166666667876,
                        "value": 0.49606299212598426
                    },
                    {
                        "number": 64,
                        "time": 391.65416666667875,
                        "value": 1
                    },
                    {
                        "number": 64,
                        "time": 392.9062500000123,
                        "value": 0.49606299212598426
                    },
                    {
                        "number": 64,
                        "time": 392.9250000000123,
                        "value": 0
                    },
                    {
                        "number": 64,
                        "time": 392.97083333334564,
                        "value": 0.49606299212598426
                    },
                    {
                        "number": 64,
                        "time": 393.00833333334566,
                        "value": 1
                    },
                    {
                        "number": 64,
                        "time": 394.0375000000123,
                        "value": 0.49606299212598426
                    },
                    {
                        "number": 64,
                        "time": 394.047916666679,
                        "value": 0
                    },
                    {
                        "number": 64,
                        "time": 394.1270833333457,
                        "value": 0.49606299212598426
                    },
                    {
                        "number": 64,
                        "time": 394.13958333334574,
                        "value": 1
                    },
                    {
                        "number": 64,
                        "time": 394.82291666667913,
                        "value": 0.49606299212598426
                    },
                    {
                        "number": 64,
                        "time": 394.82916666667916,
                        "value": 0
                    },
                    {
                        "number": 64,
                        "time": 395.1645833333459,
                        "value": 0.49606299212598426
                    },
                    {
                        "number": 64,
                        "time": 395.16666666667925,
                        "value": 1
                    },
                    {
                        "number": 64,
                        "time": 395.9145833333459,
                        "value": 0.49606299212598426
                    },
                    {
                        "number": 64,
                        "time": 395.9270833333459,
                        "value": 0
                    },
                    {
                        "number": 64,
                        "time": 396.24791666667915,
                        "value": 0.49606299212598426
                    },
                    {
                        "number": 64,
                        "time": 396.2500000000125,
                        "value": 1
                    },
                    {
                        "number": 64,
                        "time": 397.1875000000126,
                        "value": 0.49606299212598426
                    },
                    {
                        "number": 64,
                        "time": 397.2000000000126,
                        "value": 0
                    },
                    {
                        "number": 64,
                        "time": 397.28541666667934,
                        "value": 0.49606299212598426
                    },
                    {
                        "number": 64,
                        "time": 397.30416666667935,
                        "value": 1
                    },
                    {
                        "number": 64,
                        "time": 398.0000000000127,
                        "value": 0.49606299212598426
                    },
                    {
                        "number": 64,
                        "time": 398.0250000000127,
                        "value": 0
                    },
                    {
                        "number": 64,
                        "time": 398.2125000000127,
                        "value": 0.49606299212598426
                    },
                    {
                        "number": 64,
                        "time": 398.2208333333461,
                        "value": 1
                    },
                    {
                        "number": 64,
                        "time": 398.9520833333462,
                        "value": 0.49606299212598426
                    },
                    {
                        "number": 64,
                        "time": 398.9937500000129,
                        "value": 0
                    },
                    {
                        "number": 64,
                        "time": 399.20416666667955,
                        "value": 0.49606299212598426
                    },
                    {
                        "number": 64,
                        "time": 399.2145833333463,
                        "value": 1
                    },
                    {
                        "number": 64,
                        "time": 399.9833333333463,
                        "value": 0.49606299212598426
                    },
                    {
                        "number": 64,
                        "time": 400.018750000013,
                        "value": 0
                    },
                    {
                        "number": 64,
                        "time": 400.2583333333465,
                        "value": 0.49606299212598426
                    },
                    {
                        "number": 64,
                        "time": 400.26458333334654,
                        "value": 1
                    },
                    {
                        "number": 64,
                        "time": 401.23333333334654,
                        "value": 0.49606299212598426
                    },
                    {
                        "number": 64,
                        "time": 401.2458333333465,
                        "value": 0
                    },
                    {
                        "number": 64,
                        "time": 401.3104166666799,
                        "value": 0.49606299212598426
                    },
                    {
                        "number": 64,
                        "time": 401.3291666666799,
                        "value": 1
                    },
                    {
                        "number": 64,
                        "time": 402.18958333334666,
                        "value": 0.49606299212598426
                    },
                    {
                        "number": 64,
                        "time": 402.20416666668,
                        "value": 0
                    },
                    {
                        "number": 64,
                        "time": 402.2895833333467,
                        "value": 0.49606299212598426
                    },
                    {
                        "number": 64,
                        "time": 402.29791666668,
                        "value": 1
                    },
                    {
                        "number": 64,
                        "time": 403.07291666668,
                        "value": 0.49606299212598426
                    },
                    {
                        "number": 64,
                        "time": 403.0833333333467,
                        "value": 0
                    },
                    {
                        "number": 64,
                        "time": 403.36666666668,
                        "value": 0.49606299212598426
                    },
                    {
                        "number": 64,
                        "time": 403.36875000001334,
                        "value": 1
                    },
                    {
                        "number": 64,
                        "time": 404.51250000001335,
                        "value": 0.49606299212598426
                    },
                    {
                        "number": 64,
                        "time": 404.52500000001334,
                        "value": 0
                    },
                    {
                        "number": 64,
                        "time": 404.6000000000134,
                        "value": 0.49606299212598426
                    },
                    {
                        "number": 64,
                        "time": 404.61458333334673,
                        "value": 1
                    },
                    {
                        "number": 64,
                        "time": 405.53958333334685,
                        "value": 0.49606299212598426
                    },
                    {
                        "number": 64,
                        "time": 405.55208333334684,
                        "value": 0
                    },
                    {
                        "number": 64,
                        "time": 405.6250000000136,
                        "value": 0.49606299212598426
                    },
                    {
                        "number": 64,
                        "time": 405.63958333334693,
                        "value": 1
                    },
                    {
                        "number": 64,
                        "time": 406.68125000001373,
                        "value": 0.49606299212598426
                    },
                    {
                        "number": 64,
                        "time": 406.6937500000137,
                        "value": 0
                    },
                    {
                        "number": 64,
                        "time": 406.7750000000139,
                        "value": 0.49606299212598426
                    },
                    {
                        "number": 64,
                        "time": 406.7854166666806,
                        "value": 1
                    },
                    {
                        "number": 64,
                        "time": 407.7750000000141,
                        "value": 0.49606299212598426
                    },
                    {
                        "number": 64,
                        "time": 407.78541666668076,
                        "value": 0
                    },
                    {
                        "number": 64,
                        "time": 407.8479166666808,
                        "value": 0.49606299212598426
                    },
                    {
                        "number": 64,
                        "time": 407.8645833333475,
                        "value": 1
                    },
                    {
                        "number": 64,
                        "time": 409.55416666668094,
                        "value": 0.49606299212598426
                    },
                    {
                        "number": 64,
                        "time": 409.5583333333476,
                        "value": 0
                    },
                    {
                        "number": 64,
                        "time": 409.66458333334765,
                        "value": 0.49606299212598426
                    },
                    {
                        "number": 64,
                        "time": 409.672916666681,
                        "value": 1
                    },
                    {
                        "number": 64,
                        "time": 410.87500000001444,
                        "value": 0.49606299212598426
                    },
                    {
                        "number": 64,
                        "time": 410.8875000000145,
                        "value": 0
                    },
                    {
                        "number": 64,
                        "time": 410.9541666666812,
                        "value": 0.49606299212598426
                    },
                    {
                        "number": 64,
                        "time": 410.9645833333479,
                        "value": 1
                    },
                    {
                        "number": 64,
                        "time": 412.02916666668136,
                        "value": 0.49606299212598426
                    },
                    {
                        "number": 64,
                        "time": 412.03958333334805,
                        "value": 0
                    },
                    {
                        "number": 64,
                        "time": 412.09791666668144,
                        "value": 0.49606299212598426
                    },
                    {
                        "number": 64,
                        "time": 412.11041666668143,
                        "value": 1
                    },
                    {
                        "number": 64,
                        "time": 413.07708333334824,
                        "value": 0.49606299212598426
                    },
                    {
                        "number": 64,
                        "time": 413.08541666668157,
                        "value": 0
                    },
                    {
                        "number": 64,
                        "time": 413.5541666666816,
                        "value": 1
                    },
                    {
                        "number": 64,
                        "time": 415.4458333333484,
                        "value": 0.49606299212598426
                    },
                    {
                        "number": 64,
                        "time": 415.4666666666818,
                        "value": 0
                    },
                    {
                        "number": 64,
                        "time": 415.5312500000152,
                        "value": 0.49606299212598426
                    },
                    {
                        "number": 64,
                        "time": 415.54791666668183,
                        "value": 1
                    },
                    {
                        "number": 64,
                        "time": 416.81875000001537,
                        "value": 0.49606299212598426
                    },
                    {
                        "number": 64,
                        "time": 416.8270833333487,
                        "value": 0
                    },
                    {
                        "number": 64,
                        "time": 416.8833333333488,
                        "value": 0.49606299212598426
                    },
                    {
                        "number": 64,
                        "time": 416.9041666666821,
                        "value": 1
                    },
                    {
                        "number": 64,
                        "time": 418.0833333333489,
                        "value": 0.49606299212598426
                    },
                    {
                        "number": 64,
                        "time": 418.0937500000156,
                        "value": 0
                    },
                    {
                        "number": 64,
                        "time": 418.1687500000156,
                        "value": 0.49606299212598426
                    },
                    {
                        "number": 64,
                        "time": 418.18958333334893,
                        "value": 1
                    },
                    {
                        "number": 64,
                        "time": 419.3083333333489,
                        "value": 0.49606299212598426
                    },
                    {
                        "number": 64,
                        "time": 419.3500000000156,
                        "value": 1
                    },
                    {
                        "number": 64,
                        "time": 419.99166666668236,
                        "value": 0.49606299212598426
                    },
                    {
                        "number": 64,
                        "time": 420.00208333334905,
                        "value": 0
                    },
                    {
                        "number": 64,
                        "time": 420.0666666666824,
                        "value": 0.49606299212598426
                    },
                    {
                        "number": 64,
                        "time": 420.09583333334905,
                        "value": 1
                    },
                    {
                        "number": 64,
                        "time": 421.9812500000158,
                        "value": 0.49606299212598426
                    },
                    {
                        "number": 64,
                        "time": 422.01458333334915,
                        "value": 0
                    },
                    {
                        "number": 64,
                        "time": 423.1770833333492,
                        "value": 0.49606299212598426
                    },
                    {
                        "number": 64,
                        "time": 423.18958333334916,
                        "value": 1
                    },
                    {
                        "number": 64,
                        "time": 426.893750000016,
                        "value": 0.49606299212598426
                    },
                    {
                        "number": 64,
                        "time": 426.906250000016,
                        "value": 0
                    },
                    {
                        "number": 64,
                        "time": 427.0270833333493,
                        "value": 0.49606299212598426
                    },
                    {
                        "number": 64,
                        "time": 427.0395833333493,
                        "value": 1
                    },
                    {
                        "number": 64,
                        "time": 428.131250000016,
                        "value": 0.49606299212598426
                    },
                    {
                        "number": 64,
                        "time": 428.1479166666827,
                        "value": 0
                    },
                    {
                        "number": 64,
                        "time": 428.55208333334946,
                        "value": 0.49606299212598426
                    },
                    {
                        "number": 64,
                        "time": 428.55208333334946,
                        "value": 1
                    },
                    {
                        "number": 64,
                        "time": 429.6354166666829,
                        "value": 0.49606299212598426
                    },
                    {
                        "number": 64,
                        "time": 429.65208333334954,
                        "value": 0
                    },
                    {
                        "number": 64,
                        "time": 430.46875000001626,
                        "value": 0.49606299212598426
                    },
                    {
                        "number": 64,
                        "time": 430.4750000000163,
                        "value": 1
                    },
                    {
                        "number": 64,
                        "time": 434.21250000001646,
                        "value": 0.49606299212598426
                    },
                    {
                        "number": 64,
                        "time": 434.2312500000165,
                        "value": 0
                    },
                    {
                        "number": 64,
                        "time": 434.36041666668314,
                        "value": 0.49606299212598426
                    },
                    {
                        "number": 64,
                        "time": 434.3708333333498,
                        "value": 1
                    },
                    {
                        "number": 64,
                        "time": 435.21666666668324,
                        "value": 0.49606299212598426
                    },
                    {
                        "number": 64,
                        "time": 435.22500000001656,
                        "value": 0
                    },
                    {
                        "number": 64,
                        "time": 435.6937500000166,
                        "value": 0.49606299212598426
                    },
                    {
                        "number": 64,
                        "time": 435.69583333335,
                        "value": 1
                    },
                    {
                        "number": 64,
                        "time": 436.47916666668334,
                        "value": 0.49606299212598426
                    },
                    {
                        "number": 64,
                        "time": 436.50833333335,
                        "value": 0
                    },
                    {
                        "number": 64,
                        "time": 437.3854166666832,
                        "value": 0.49606299212598426
                    },
                    {
                        "number": 64,
                        "time": 437.39375000001655,
                        "value": 1
                    },
                    {
                        "number": 64,
                        "time": 440.50000000001694,
                        "value": 0.49606299212598426
                    },
                    {
                        "number": 64,
                        "time": 440.5104166666836,
                        "value": 0
                    },
                    {
                        "number": 64,
                        "time": 440.60208333335027,
                        "value": 0.49606299212598426
                    },
                    {
                        "number": 64,
                        "time": 440.6187500000169,
                        "value": 1
                    },
                    {
                        "number": 64,
                        "time": 441.5604166666837,
                        "value": 0.49606299212598426
                    },
                    {
                        "number": 64,
                        "time": 441.57500000001704,
                        "value": 0
                    },
                    {
                        "number": 64,
                        "time": 442.0000000000171,
                        "value": 0.49606299212598426
                    },
                    {
                        "number": 64,
                        "time": 442.00208333335047,
                        "value": 1
                    },
                    {
                        "number": 64,
                        "time": 443.4187500000172,
                        "value": 0.49606299212598426
                    },
                    {
                        "number": 64,
                        "time": 443.42708333335054,
                        "value": 0
                    },
                    {
                        "number": 64,
                        "time": 443.5000000000172,
                        "value": 0.49606299212598426
                    },
                    {
                        "number": 64,
                        "time": 443.5145833333506,
                        "value": 1
                    },
                    {
                        "number": 64,
                        "time": 445.1562500000174,
                        "value": 0.49606299212598426
                    },
                    {
                        "number": 64,
                        "time": 445.1729166666841,
                        "value": 0
                    },
                    {
                        "number": 64,
                        "time": 445.23333333335074,
                        "value": 0.49606299212598426
                    },
                    {
                        "number": 64,
                        "time": 445.25208333335075,
                        "value": 1
                    },
                    {
                        "number": 64,
                        "time": 447.8541666666843,
                        "value": 0.49606299212598426
                    },
                    {
                        "number": 64,
                        "time": 447.86250000001763,
                        "value": 0
                    },
                    {
                        "number": 64,
                        "time": 447.94583333335095,
                        "value": 0.49606299212598426
                    },
                    {
                        "number": 64,
                        "time": 447.95625000001763,
                        "value": 1
                    },
                    {
                        "number": 64,
                        "time": 449.2729166666843,
                        "value": 0.49606299212598426
                    },
                    {
                        "number": 64,
                        "time": 449.30625000001766,
                        "value": 0
                    },
                    {
                        "number": 64,
                        "time": 449.9729166666843,
                        "value": 0.49606299212598426
                    },
                    {
                        "number": 64,
                        "time": 449.9791666666843,
                        "value": 1
                    },
                    {
                        "number": 64,
                        "time": 453.76458333335125,
                        "value": 0.49606299212598426
                    },
                    {
                        "number": 64,
                        "time": 453.77708333335124,
                        "value": 0
                    },
                    {
                        "number": 64,
                        "time": 453.9062500000179,
                        "value": 0.49606299212598426
                    },
                    {
                        "number": 64,
                        "time": 453.9187500000179,
                        "value": 1
                    },
                    {
                        "number": 64,
                        "time": 454.8916666666846,
                        "value": 0.49606299212598426
                    },
                    {
                        "number": 64,
                        "time": 454.9041666666846,
                        "value": 0
                    },
                    {
                        "number": 64,
                        "time": 455.331250000018,
                        "value": 0.49606299212598426
                    },
                    {
                        "number": 64,
                        "time": 455.33333333335133,
                        "value": 1
                    },
                    {
                        "number": 64,
                        "time": 456.01458333335137,
                        "value": 0.49606299212598426
                    },
                    {
                        "number": 64,
                        "time": 456.0229166666847,
                        "value": 0
                    },
                    {
                        "number": 64,
                        "time": 456.73125000001806,
                        "value": 0.49606299212598426
                    },
                    {
                        "number": 64,
                        "time": 456.7354166666847,
                        "value": 1
                    },
                    {
                        "number": 64,
                        "time": 458.60625000001835,
                        "value": 0.49606299212598426
                    },
                    {
                        "number": 64,
                        "time": 458.6312500000183,
                        "value": 0
                    },
                    {
                        "number": 64,
                        "time": 458.63958333335165,
                        "value": 0.49606299212598426
                    },
                    {
                        "number": 64,
                        "time": 458.672916666685,
                        "value": 1
                    },
                    {
                        "number": 64,
                        "time": 460.1645833333517,
                        "value": 0.49606299212598426
                    },
                    {
                        "number": 64,
                        "time": 460.17916666668503,
                        "value": 0
                    },
                    {
                        "number": 64,
                        "time": 460.25000000001836,
                        "value": 0.49606299212598426
                    },
                    {
                        "number": 64,
                        "time": 460.2645833333517,
                        "value": 1
                    },
                    {
                        "number": 64,
                        "time": 461.07916666668507,
                        "value": 0.49606299212598426
                    },
                    {
                        "number": 64,
                        "time": 461.08958333335175,
                        "value": 0
                    },
                    {
                        "number": 64,
                        "time": 461.4687500000184,
                        "value": 0.49606299212598426
                    },
                    {
                        "number": 64,
                        "time": 461.4687500000184,
                        "value": 1
                    },
                    {
                        "number": 64,
                        "time": 462.37708333335166,
                        "value": 0.49606299212598426
                    },
                    {
                        "number": 64,
                        "time": 462.3895833333517,
                        "value": 0
                    },
                    {
                        "number": 64,
                        "time": 730.5250000000183,
                        "value": 1
                    },
                    {
                        "number": 64,
                        "time": 731.060416666685,
                        "value": 0.49606299212598426
                    },
                    {
                        "number": 64,
                        "time": 731.0875000000183,
                        "value": 1
                    },
                    {
                        "number": 64,
                        "time": 731.4666666666849,
                        "value": 0.49606299212598426
                    },
                    {
                        "number": 64,
                        "time": 731.4708333333516,
                        "value": 0
                    },
                    {
                        "number": 64,
                        "time": 731.5208333333516,
                        "value": 0.49606299212598426
                    },
                    {
                        "number": 64,
                        "time": 731.5354166666849,
                        "value": 1
                    },
                    {
                        "number": 64,
                        "time": 731.8812500000182,
                        "value": 0.49606299212598426
                    },
                    {
                        "number": 64,
                        "time": 731.8833333333515,
                        "value": 0
                    },
                    {
                        "number": 64,
                        "time": 731.9604166666848,
                        "value": 0.49606299212598426
                    },
                    {
                        "number": 64,
                        "time": 731.9708333333514,
                        "value": 1
                    },
                    {
                        "number": 64,
                        "time": 732.3562500000181,
                        "value": 0.49606299212598426
                    },
                    {
                        "number": 64,
                        "time": 732.3770833333515,
                        "value": 1
                    },
                    {
                        "number": 64,
                        "time": 732.9500000000181,
                        "value": 0.49606299212598426
                    },
                    {
                        "number": 64,
                        "time": 732.9729166666848,
                        "value": 0
                    },
                    {
                        "number": 64,
                        "time": 733.3770833333515,
                        "value": 1
                    },
                    {
                        "number": 64,
                        "time": 735.0375000000181,
                        "value": 0.49606299212598426
                    },
                    {
                        "number": 64,
                        "time": 735.0395833333514,
                        "value": 0
                    },
                    {
                        "number": 64,
                        "time": 735.1166666666849,
                        "value": 0.49606299212598426
                    },
                    {
                        "number": 64,
                        "time": 735.1270833333515,
                        "value": 1
                    },
                    {
                        "number": 64,
                        "time": 736.9958333333512,
                        "value": 0.49606299212598426
                    },
                    {
                        "number": 64,
                        "time": 736.9979166666845,
                        "value": 0
                    },
                    {
                        "number": 64,
                        "time": 737.100000000018,
                        "value": 0.49606299212598426
                    },
                    {
                        "number": 64,
                        "time": 737.106250000018,
                        "value": 1
                    },
                    {
                        "number": 64,
                        "time": 738.4687500000182,
                        "value": 0.49606299212598426
                    },
                    {
                        "number": 64,
                        "time": 738.4812500000182,
                        "value": 0
                    },
                    {
                        "number": 64,
                        "time": 738.5750000000182,
                        "value": 0.49606299212598426
                    },
                    {
                        "number": 64,
                        "time": 738.5812500000183,
                        "value": 1
                    },
                    {
                        "number": 64,
                        "time": 739.7750000000182,
                        "value": 0.49606299212598426
                    },
                    {
                        "number": 64,
                        "time": 739.7875000000182,
                        "value": 0
                    },
                    {
                        "number": 64,
                        "time": 740.172916666685,
                        "value": 0.49606299212598426
                    },
                    {
                        "number": 64,
                        "time": 740.1750000000183,
                        "value": 1
                    },
                    {
                        "number": 64,
                        "time": 742.2458333333518,
                        "value": 0.49606299212598426
                    },
                    {
                        "number": 64,
                        "time": 742.2729166666852,
                        "value": 0
                    }
                ],
                "67": [
                    {
                        "number": 67,
                        "time": 2.9187499999999997,
                        "value": 1
                    },
                    {
                        "number": 67,
                        "time": 41.36458333333344,
                        "value": 1
                    },
                    {
                        "number": 67,
                        "time": 77.05208333333326,
                        "value": 1
                    },
                    {
                        "number": 67,
                        "time": 110.78124999999989,
                        "value": 1
                    },
                    {
                        "number": 67,
                        "time": 113.75416666666652,
                        "value": 0
                    },
                    {
                        "number": 67,
                        "time": 162.7770833333314,
                        "value": 1
                    },
                    {
                        "number": 67,
                        "time": 163.28124999999807,
                        "value": 1
                    },
                    {
                        "number": 67,
                        "time": 176.32708333333102,
                        "value": 1
                    },
                    {
                        "number": 67,
                        "time": 181.50208333333092,
                        "value": 0
                    },
                    {
                        "number": 67,
                        "time": 354.4812500000094,
                        "value": 1
                    },
                    {
                        "number": 67,
                        "time": 355.63541666667624,
                        "value": 0
                    },
                    {
                        "number": 67,
                        "time": 368.06250000001074,
                        "value": 1
                    },
                    {
                        "number": 67,
                        "time": 371.8645833333441,
                        "value": 0
                    },
                    {
                        "number": 67,
                        "time": 423.38541666668254,
                        "value": 1
                    },
                    {
                        "number": 67,
                        "time": 427.2458333333493,
                        "value": 0
                    },
                    {
                        "number": 67,
                        "time": 430.79166666668294,
                        "value": 1
                    },
                    {
                        "number": 67,
                        "time": 434.45833333334986,
                        "value": 0
                    },
                    {
                        "number": 67,
                        "time": 443.32291666668385,
                        "value": 1
                    },
                    {
                        "number": 67,
                        "time": 445.3229166666841,
                        "value": 0
                    }
                ],
                "91": [
                    {
                        "number": 91,
                        "time": 1.3875,
                        "value": 0.6299212598425197
                    }
                ],
                "98": [
                    {
                        "number": 98,
                        "time": 1.4104166666666667,
                        "value": 0.25196850393700787
                    },
                    {
                        "number": 98,
                        "time": 1.4229166666666666,
                        "value": 0.25984251968503935
                    },
                    {
                        "number": 98,
                        "time": 1.4354166666666666,
                        "value": 0.7795275590551181
                    },
                    {
                        "number": 98,
                        "time": 1.4479166666666665,
                        "value": 0.7874015748031497
                    },
                    {
                        "number": 98,
                        "time": 1.4604166666666665,
                        "value": 0.8031496062992126
                    }
                ],
                "99": [
                    {
                        "number": 99,
                        "time": 1.40625,
                        "value": 0.007874015748031496
                    },
                    {
                        "number": 99,
                        "time": 1.41875,
                        "value": 0.007874015748031496
                    },
                    {
                        "number": 99,
                        "time": 1.43125,
                        "value": 0.007874015748031496
                    },
                    {
                        "number": 99,
                        "time": 1.4437499999999999,
                        "value": 0.007874015748031496
                    },
                    {
                        "number": 99,
                        "time": 1.4562499999999998,
                        "value": 0.007874015748031496
                    }
                ]
            },
            "id": 1,
            "name": "PIANO",
            "instrumentNumber": 0,
            "instrument": "acoustic grand piano",
            "instrumentFamily": "piano",
            "channelNumber": 0,
            "isPercussion": false
        },
        {
            "startTime": 462.9125,
            "duration": 840.064583333352,
            "length": 5945,
            "notes": [
                {
                    "name": "A#1",
                    "midi": 34,
                    "time": 462.9125,
                    "velocity": 0.5433070866141733,
                    "duration": 0.41250000000002274
                },
                {
                    "name": "D3",
                    "midi": 50,
                    "time": 463.75625,
                    "velocity": 0.10236220472440945,
                    "duration": 0.16875000000004547
                },
                {
                    "name": "G#5",
                    "midi": 80,
                    "time": 463.78333333333336,
                    "velocity": 0.7480314960629921,
                    "duration": 1.1645833333334963
                },
                {
                    "name": "G#3",
                    "midi": 56,
                    "time": 463.79375000000005,
                    "velocity": 0.3543307086614173,
                    "duration": 0.13541666666668561
                },
                {
                    "name": "D4",
                    "midi": 62,
                    "time": 463.7958333333334,
                    "velocity": 0.3779527559055118,
                    "duration": 0.16041666666666288
                },
                {
                    "name": "G#4",
                    "midi": 68,
                    "time": 463.80000000000007,
                    "velocity": 0.4409448818897638,
                    "duration": 1.1916666666667766
                },
                {
                    "name": "C5",
                    "midi": 72,
                    "time": 463.8083333333334,
                    "velocity": 0.5905511811023622,
                    "duration": 1.1666666666667993
                },
                {
                    "name": "E3",
                    "midi": 52,
                    "time": 463.87500000000006,
                    "velocity": 0.03937007874015748,
                    "duration": 0.1708333333333485
                },
                {
                    "name": "F3",
                    "midi": 53,
                    "time": 463.99791666666675,
                    "velocity": 0.03937007874015748,
                    "duration": 0.15416666666664014
                },
                {
                    "name": "G3",
                    "midi": 55,
                    "time": 464.1020833333334,
                    "velocity": 0.03937007874015748,
                    "duration": 0.15416666666664014
                },
                {
                    "name": "A3",
                    "midi": 57,
                    "time": 464.20833333333337,
                    "velocity": 0.047244094488188976,
                    "duration": 0.13333333333332575
                },
                {
                    "name": "B3",
                    "midi": 59,
                    "time": 464.29375000000005,
                    "velocity": 0.05511811023622047,
                    "duration": 0.11250000000001137
                },
                {
                    "name": "C4",
                    "midi": 60,
                    "time": 464.36458333333337,
                    "velocity": 0.10236220472440945,
                    "duration": 0.1020833333333826
                },
                {
                    "name": "D4",
                    "midi": 62,
                    "time": 464.42916666666673,
                    "velocity": 0.10236220472440945,
                    "duration": 0.09166666666669698
                },
                {
                    "name": "E4",
                    "midi": 64,
                    "time": 464.4895833333334,
                    "velocity": 0.14960629921259844,
                    "duration": 0.10000000000002274
                },
                {
                    "name": "F4",
                    "midi": 65,
                    "time": 464.53958333333344,
                    "velocity": 0.3858267716535433,
                    "duration": 0.10416666666668561
                },
                {
                    "name": "G4",
                    "midi": 67,
                    "time": 464.5958333333335,
                    "velocity": 0.2992125984251969,
                    "duration": 0.10833333333334849
                },
                {
                    "name": "A4",
                    "midi": 69,
                    "time": 464.6583333333335,
                    "velocity": 0.2992125984251969,
                    "duration": 0.10625000000004547
                },
                {
                    "name": "A#1",
                    "midi": 34,
                    "time": 464.70000000000016,
                    "velocity": 0.7559055118110236,
                    "duration": 0.16666666666674246
                },
                {
                    "name": "B4",
                    "midi": 71,
                    "time": 464.7166666666668,
                    "velocity": 0.33858267716535434,
                    "duration": 0.10833333333340533
                },
                {
                    "name": "D5",
                    "midi": 74,
                    "time": 464.83958333333356,
                    "velocity": 0.3543307086614173,
                    "duration": 0.12499999999994316
                },
                {
                    "name": "E5",
                    "midi": 76,
                    "time": 464.9187500000002,
                    "velocity": 0.1732283464566929,
                    "duration": 0.3333333333333144
                },
                {
                    "name": "D5",
                    "midi": 74,
                    "time": 465.2375000000002,
                    "velocity": 0.05511811023622047,
                    "duration": 0.07291666666668561
                },
                {
                    "name": "C5",
                    "midi": 72,
                    "time": 465.2562500000002,
                    "velocity": 0.2125984251968504,
                    "duration": 0.15000000000009095
                },
                {
                    "name": "G#3",
                    "midi": 56,
                    "time": 465.3166666666669,
                    "velocity": 0.5433070866141733,
                    "duration": 0.1833333333334508
                },
                {
                    "name": "D4",
                    "midi": 62,
                    "time": 465.3166666666669,
                    "velocity": 0.49606299212598426,
                    "duration": 0.11250000000006821
                },
                {
                    "name": "F#5",
                    "midi": 78,
                    "time": 465.3250000000002,
                    "velocity": 0.8346456692913385,
                    "duration": 0.13541666666674246
                },
                {
                    "name": "A#4",
                    "midi": 70,
                    "time": 465.3354166666669,
                    "velocity": 0.7165354330708661,
                    "duration": 0.0875000000000341
                },
                {
                    "name": "F#4",
                    "midi": 66,
                    "time": 465.3416666666669,
                    "velocity": 0.5275590551181102,
                    "duration": 0.041666666666685614
                },
                {
                    "name": "B4",
                    "midi": 71,
                    "time": 465.35000000000025,
                    "velocity": 0.14173228346456693,
                    "duration": 0.11666666666673109
                },
                {
                    "name": "A4",
                    "midi": 69,
                    "time": 465.41041666666695,
                    "velocity": 0.3858267716535433,
                    "duration": 0.1187500000000341
                },
                {
                    "name": "G4",
                    "midi": 67,
                    "time": 465.472916666667,
                    "velocity": 0.3858267716535433,
                    "duration": 0.10833333333329165
                },
                {
                    "name": "F4",
                    "midi": 65,
                    "time": 465.53333333333364,
                    "velocity": 0.4094488188976378,
                    "duration": 0.10000000000002274
                },
                {
                    "name": "E4",
                    "midi": 64,
                    "time": 465.5875000000003,
                    "velocity": 0.3937007874015748,
                    "duration": 0.1020833333333826
                },
                {
                    "name": "D4",
                    "midi": 62,
                    "time": 465.6395833333337,
                    "velocity": 0.44881889763779526,
                    "duration": 0.10416666666668561
                },
                {
                    "name": "C4",
                    "midi": 60,
                    "time": 465.69375000000036,
                    "velocity": 0.4094488188976378,
                    "duration": 0.10000000000002274
                },
                {
                    "name": "B3",
                    "midi": 59,
                    "time": 465.7437500000004,
                    "velocity": 0.3937007874015748,
                    "duration": 0.11041666666670835
                },
                {
                    "name": "A3",
                    "midi": 57,
                    "time": 465.79583333333375,
                    "velocity": 0.4094488188976378,
                    "duration": 0.11458333333337123
                },
                {
                    "name": "G3",
                    "midi": 55,
                    "time": 465.84583333333376,
                    "velocity": 0.3937007874015748,
                    "duration": 0.1333333333333826
                },
                {
                    "name": "F5",
                    "midi": 77,
                    "time": 465.8604166666671,
                    "velocity": 0.7559055118110236,
                    "duration": 0.07916666666670835
                },
                {
                    "name": "F4",
                    "midi": 65,
                    "time": 465.86666666666713,
                    "velocity": 0.6062992125984252,
                    "duration": 0.05833333333333712
                },
                {
                    "name": "A4",
                    "midi": 69,
                    "time": 465.8708333333338,
                    "velocity": 0.5984251968503937,
                    "duration": 0.04791666666665151
                },
                {
                    "name": "F3",
                    "midi": 53,
                    "time": 465.90625000000045,
                    "velocity": 0.2755905511811024,
                    "duration": 0.15625
                },
                {
                    "name": "E3",
                    "midi": 52,
                    "time": 465.96041666666713,
                    "velocity": 0.2125984251968504,
                    "duration": 0.25625000000002274
                },
                {
                    "name": "D3",
                    "midi": 50,
                    "time": 466.13541666666714,
                    "velocity": 0.03937007874015748,
                    "duration": 0.10208333333332575
                },
                {
                    "name": "B1",
                    "midi": 35,
                    "time": 466.2854166666671,
                    "velocity": 0.6456692913385826,
                    "duration": 0.07708333333334849
                },
                {
                    "name": "A4",
                    "midi": 69,
                    "time": 466.3166666666671,
                    "velocity": 0.7007874015748031,
                    "duration": 0.4791666666666856
                },
                {
                    "name": "B2",
                    "midi": 47,
                    "time": 466.32500000000044,
                    "velocity": 0.5669291338582677,
                    "duration": 0.08958333333333712
                },
                {
                    "name": "F4",
                    "midi": 65,
                    "time": 466.3270833333338,
                    "velocity": 0.5905511811023622,
                    "duration": 0.44999999999998863
                },
                {
                    "name": "D4",
                    "midi": 62,
                    "time": 466.3333333333338,
                    "velocity": 0.5354330708661418,
                    "duration": 0.3666666666666174
                },
                {
                    "name": "F3",
                    "midi": 53,
                    "time": 466.7458333333338,
                    "velocity": 0.6456692913385826,
                    "duration": 0.4187500000000455
                },
                {
                    "name": "A#4",
                    "midi": 70,
                    "time": 466.75000000000045,
                    "velocity": 0.7559055118110236,
                    "duration": 0.07291666666668561
                },
                {
                    "name": "A#3",
                    "midi": 58,
                    "time": 466.8520833333338,
                    "velocity": 0.6220472440944882,
                    "duration": 0.125
                },
                {
                    "name": "D4",
                    "midi": 62,
                    "time": 466.95000000000044,
                    "velocity": 0.6771653543307087,
                    "duration": 0.18333333333333712
                },
                {
                    "name": "A#3",
                    "midi": 58,
                    "time": 467.08750000000043,
                    "velocity": 0.8110236220472441,
                    "duration": 0.07500000000004547
                },
                {
                    "name": "A#5",
                    "midi": 82,
                    "time": 467.14583333333377,
                    "velocity": 0.8582677165354331,
                    "duration": 0.4604166666667311
                },
                {
                    "name": "F5",
                    "midi": 77,
                    "time": 467.1541666666671,
                    "velocity": 0.7559055118110236,
                    "duration": 0.4583333333334281
                },
                {
                    "name": "A#4",
                    "midi": 70,
                    "time": 467.1541666666671,
                    "velocity": 0.7165354330708661,
                    "duration": 0.5083333333334963
                },
                {
                    "name": "D5",
                    "midi": 74,
                    "time": 467.15625000000045,
                    "velocity": 0.7244094488188977,
                    "duration": 0.4687500000001137
                },
                {
                    "name": "C2",
                    "midi": 36,
                    "time": 467.53958333333384,
                    "velocity": 0.7401574803149606,
                    "duration": 0.0625
                },
                {
                    "name": "C3",
                    "midi": 48,
                    "time": 467.5520833333338,
                    "velocity": 0.8503937007874016,
                    "duration": 0.0708333333333826
                },
                {
                    "name": "E4",
                    "midi": 64,
                    "time": 468.0166666666673,
                    "velocity": 0.7637795275590551,
                    "duration": 0.03541666666666288
                },
                {
                    "name": "A#3",
                    "midi": 58,
                    "time": 468.0166666666673,
                    "velocity": 0.8110236220472441,
                    "duration": 0.05833333333333712
                },
                {
                    "name": "G#5",
                    "midi": 80,
                    "time": 468.0312500000006,
                    "velocity": 0.8503937007874016,
                    "duration": 0.07499999999998863
                },
                {
                    "name": "G#4",
                    "midi": 68,
                    "time": 468.0312500000006,
                    "velocity": 0.8346456692913385,
                    "duration": 0.05624999999997726
                },
                {
                    "name": "C5",
                    "midi": 72,
                    "time": 468.03958333333395,
                    "velocity": 0.7165354330708661,
                    "duration": 0.039583333333325754
                },
                {
                    "name": "D#5",
                    "midi": 75,
                    "time": 468.0437500000006,
                    "velocity": 0.6692913385826772,
                    "duration": 0.03541666666666288
                },
                {
                    "name": "G5",
                    "midi": 79,
                    "time": 468.3979166666673,
                    "velocity": 0.6614173228346457,
                    "duration": 0.06250000000005684
                },
                {
                    "name": "D5",
                    "midi": 74,
                    "time": 468.40000000000066,
                    "velocity": 0.6929133858267716,
                    "duration": 0.06875000000007958
                },
                {
                    "name": "B4",
                    "midi": 71,
                    "time": 468.40000000000066,
                    "velocity": 0.7007874015748031,
                    "duration": 0.06250000000005684
                },
                {
                    "name": "G4",
                    "midi": 67,
                    "time": 468.402083333334,
                    "velocity": 0.5905511811023622,
                    "duration": 0.054166666666674246
                },
                {
                    "name": "B4",
                    "midi": 71,
                    "time": 468.7541666666674,
                    "velocity": 0.8188976377952756,
                    "duration": 0.3812499999999659
                },
                {
                    "name": "G4",
                    "midi": 67,
                    "time": 468.75625000000076,
                    "velocity": 0.7795275590551181,
                    "duration": 0.3708333333332803
                },
                {
                    "name": "C#2",
                    "midi": 37,
                    "time": 468.75625000000076,
                    "velocity": 0.7244094488188977,
                    "duration": 0.024999999999977263
                },
                {
                    "name": "C#3",
                    "midi": 49,
                    "time": 468.75625000000076,
                    "velocity": 0.9448818897637795,
                    "duration": 0.06041666666664014
                },
                {
                    "name": "E4",
                    "midi": 64,
                    "time": 468.7604166666674,
                    "velocity": 0.7637795275590551,
                    "duration": 0.2541666666666629
                },
                {
                    "name": "G3",
                    "midi": 55,
                    "time": 469.1062500000007,
                    "velocity": 0.7086614173228346,
                    "duration": 0.3520833333334963
                },
                {
                    "name": "C5",
                    "midi": 72,
                    "time": 469.1104166666674,
                    "velocity": 0.7086614173228346,
                    "duration": 0.039583333333325754
                },
                {
                    "name": "C4",
                    "midi": 60,
                    "time": 469.1854166666674,
                    "velocity": 0.7637795275590551,
                    "duration": 0.10833333333340533
                },
                {
                    "name": "E4",
                    "midi": 64,
                    "time": 469.2729166666674,
                    "velocity": 0.7322834645669292,
                    "duration": 0.1833333333334508
                },
                {
                    "name": "C#4",
                    "midi": 61,
                    "time": 469.4187500000008,
                    "velocity": 0.905511811023622,
                    "duration": 0.06041666666675383
                },
                {
                    "name": "E5",
                    "midi": 76,
                    "time": 469.4375000000008,
                    "velocity": 0.7952755905511811,
                    "duration": 0.38333333333343944
                },
                {
                    "name": "C5",
                    "midi": 72,
                    "time": 469.4437500000008,
                    "velocity": 0.7795275590551181,
                    "duration": 0.18333333333339397
                },
                {
                    "name": "C6",
                    "midi": 84,
                    "time": 469.4437500000008,
                    "velocity": 0.84251968503937,
                    "duration": 0.3458333333334167
                },
                {
                    "name": "G5",
                    "midi": 79,
                    "time": 469.45000000000084,
                    "velocity": 0.6929133858267716,
                    "duration": 0.3687500000000341
                },
                {
                    "name": "D5",
                    "midi": 74,
                    "time": 469.4812500000009,
                    "velocity": 0.25196850393700787,
                    "duration": 0.13749999999998863
                },
                {
                    "name": "D2",
                    "midi": 38,
                    "time": 469.7708333333342,
                    "velocity": 0.7244094488188977,
                    "duration": 0.05208333333337123
                },
                {
                    "name": "D3",
                    "midi": 50,
                    "time": 469.77916666666755,
                    "velocity": 0.8582677165354331,
                    "duration": 0.05416666666673109
                },
                {
                    "name": "A#5",
                    "midi": 82,
                    "time": 470.1104166666676,
                    "velocity": 0.8661417322834646,
                    "duration": 0.047916666666765195
                },
                {
                    "name": "A#4",
                    "midi": 70,
                    "time": 470.112500000001,
                    "velocity": 0.9133858267716536,
                    "duration": 0.06041666666675383
                },
                {
                    "name": "D5",
                    "midi": 74,
                    "time": 470.11666666666764,
                    "velocity": 0.7637795275590551,
                    "duration": 0.03541666666671972
                },
                {
                    "name": "F#5",
                    "midi": 78,
                    "time": 470.12291666666766,
                    "velocity": 0.6771653543307087,
                    "duration": 0.03125000000005684
                },
                {
                    "name": "C#5",
                    "midi": 73,
                    "time": 470.42291666666773,
                    "velocity": 0.905511811023622,
                    "duration": 0.0791666666667652
                },
                {
                    "name": "E4",
                    "midi": 64,
                    "time": 470.4250000000011,
                    "velocity": 0.8110236220472441,
                    "duration": 0.058333333333393966
                },
                {
                    "name": "G#4",
                    "midi": 68,
                    "time": 470.4333333333345,
                    "velocity": 0.7322834645669292,
                    "duration": 0.03333333333335986
                },
                {
                    "name": "A#3",
                    "midi": 58,
                    "time": 470.4333333333345,
                    "velocity": 0.937007874015748,
                    "duration": 0.054166666666674246
                },
                {
                    "name": "A#2",
                    "midi": 46,
                    "time": 470.43541666666783,
                    "velocity": 0.905511811023622,
                    "duration": 0.07291666666668561
                },
                {
                    "name": "G5",
                    "midi": 79,
                    "time": 470.79791666666785,
                    "velocity": 0.8582677165354331,
                    "duration": 0.03750000000007958
                },
                {
                    "name": "B5",
                    "midi": 83,
                    "time": 470.8000000000012,
                    "velocity": 0.7716535433070866,
                    "duration": 0.03541666666671972
                },
                {
                    "name": "E6",
                    "midi": 88,
                    "time": 470.8000000000012,
                    "velocity": 0.7952755905511811,
                    "duration": 0.05416666666673109
                },
                {
                    "name": "E5",
                    "midi": 76,
                    "time": 470.8104166666679,
                    "velocity": 0.6220472440944882,
                    "duration": 0.041666666666685614
                },
                {
                    "name": "F#3",
                    "midi": 54,
                    "time": 470.8187500000012,
                    "velocity": 0.968503937007874,
                    "duration": 0.05208333333342807
                },
                {
                    "name": "F#2",
                    "midi": 42,
                    "time": 470.8187500000012,
                    "velocity": 0.905511811023622,
                    "duration": 0.05625000000009095
                },
                {
                    "name": "D6",
                    "midi": 86,
                    "time": 470.82500000000124,
                    "velocity": 0.5354330708661418,
                    "duration": 0.043750000000045475
                },
                {
                    "name": "A#5",
                    "midi": 82,
                    "time": 470.99791666666795,
                    "velocity": 0.3858267716535433,
                    "duration": 0.04374999999998863
                },
                {
                    "name": "F#5",
                    "midi": 78,
                    "time": 471.1333333333346,
                    "velocity": 0.9448818897637795,
                    "duration": 0.06250000000005684
                },
                {
                    "name": "D6",
                    "midi": 86,
                    "time": 471.13750000000124,
                    "velocity": 0.8740157480314961,
                    "duration": 0.027083333333337123
                },
                {
                    "name": "D5",
                    "midi": 74,
                    "time": 471.14583333333456,
                    "velocity": 0.7007874015748031,
                    "duration": 0.03541666666671972
                },
                {
                    "name": "F5",
                    "midi": 77,
                    "time": 471.4562500000013,
                    "velocity": 0.7874015748031497,
                    "duration": 0.06875000000007958
                },
                {
                    "name": "G#4",
                    "midi": 68,
                    "time": 471.460416666668,
                    "velocity": 0.8503937007874016,
                    "duration": 0.03541666666671972
                },
                {
                    "name": "C5",
                    "midi": 72,
                    "time": 471.46458333333464,
                    "velocity": 0.7637795275590551,
                    "duration": 0.033333333333416704
                },
                {
                    "name": "D4",
                    "midi": 62,
                    "time": 471.466666666668,
                    "velocity": 0.8503937007874016,
                    "duration": 0.027083333333337123
                },
                {
                    "name": "D3",
                    "midi": 50,
                    "time": 471.46875000000136,
                    "velocity": 0.84251968503937,
                    "duration": 0.03125000000005684
                },
                {
                    "name": "G#6",
                    "midi": 92,
                    "time": 471.76041666666805,
                    "velocity": 0.8582677165354331,
                    "duration": 0.0958333333334167
                },
                {
                    "name": "D#6",
                    "midi": 87,
                    "time": 471.76041666666805,
                    "velocity": 0.8661417322834646,
                    "duration": 0.10000000000007958
                },
                {
                    "name": "A#3",
                    "midi": 58,
                    "time": 471.7625000000014,
                    "velocity": 0.905511811023622,
                    "duration": 0.06041666666669698
                },
                {
                    "name": "A#2",
                    "midi": 46,
                    "time": 471.76458333333477,
                    "velocity": 0.8582677165354331,
                    "duration": 0.06875000000002274
                },
                {
                    "name": "C6",
                    "midi": 84,
                    "time": 471.9479166666681,
                    "velocity": 0.6771653543307087,
                    "duration": 0.054166666666674246
                },
                {
                    "name": "E6",
                    "midi": 88,
                    "time": 471.95000000000147,
                    "velocity": 0.6771653543307087,
                    "duration": 0.05624999999997726
                },
                {
                    "name": "B3",
                    "midi": 59,
                    "time": 472.08750000000146,
                    "velocity": 0.8818897637795275,
                    "duration": 0.04583333333334849
                },
                {
                    "name": "B2",
                    "midi": 47,
                    "time": 472.0895833333348,
                    "velocity": 0.8818897637795275,
                    "duration": 0.04791666666665151
                },
                {
                    "name": "G6",
                    "midi": 91,
                    "time": 472.0895833333348,
                    "velocity": 0.8503937007874016,
                    "duration": 0.07291666666662877
                },
                {
                    "name": "E6",
                    "midi": 88,
                    "time": 472.0916666666682,
                    "velocity": 0.8346456692913385,
                    "duration": 0.06249999999994316
                },
                {
                    "name": "F6",
                    "midi": 89,
                    "time": 472.21458333333476,
                    "velocity": 0.8031496062992126,
                    "duration": 0.07083333333332575
                },
                {
                    "name": "C#6",
                    "midi": 85,
                    "time": 472.2229166666681,
                    "velocity": 0.8110236220472441,
                    "duration": 0.04374999999998863
                },
                {
                    "name": "F6",
                    "midi": 89,
                    "time": 472.3625000000014,
                    "velocity": 0.8346456692913385,
                    "duration": 0.05625000000009095
                },
                {
                    "name": "C4",
                    "midi": 60,
                    "time": 472.36458333333474,
                    "velocity": 0.952755905511811,
                    "duration": 0.041666666666685614
                },
                {
                    "name": "A#6",
                    "midi": 94,
                    "time": 472.36458333333474,
                    "velocity": 0.8661417322834646,
                    "duration": 0.0708333333333826
                },
                {
                    "name": "C3",
                    "midi": 48,
                    "time": 472.36458333333474,
                    "velocity": 0.9212598425196851,
                    "duration": 0.04791666666670835
                },
                {
                    "name": "F#6",
                    "midi": 90,
                    "time": 472.48333333333477,
                    "velocity": 0.889763779527559,
                    "duration": 0.06458333333335986
                },
                {
                    "name": "D6",
                    "midi": 86,
                    "time": 472.50625000000144,
                    "velocity": 0.5354330708661418,
                    "duration": 0.027083333333337123
                },
                {
                    "name": "C#4",
                    "midi": 61,
                    "time": 472.6333333333348,
                    "velocity": 0.968503937007874,
                    "duration": 0.043750000000045475
                },
                {
                    "name": "C#3",
                    "midi": 49,
                    "time": 472.63541666666816,
                    "velocity": 0.9291338582677166,
                    "duration": 0.04583333333334849
                },
                {
                    "name": "A6",
                    "midi": 93,
                    "time": 472.63541666666816,
                    "velocity": 0.9212598425196851,
                    "duration": 0.0625
                },
                {
                    "name": "F#6",
                    "midi": 90,
                    "time": 472.6416666666682,
                    "velocity": 0.7244094488188977,
                    "duration": 0.03541666666666288
                },
                {
                    "name": "G6",
                    "midi": 91,
                    "time": 472.7625000000015,
                    "velocity": 0.889763779527559,
                    "duration": 0.06458333333335986
                },
                {
                    "name": "D#6",
                    "midi": 87,
                    "time": 472.7729166666682,
                    "velocity": 0.8661417322834646,
                    "duration": 0.03333333333335986
                },
                {
                    "name": "C7",
                    "midi": 96,
                    "time": 472.9104166666682,
                    "velocity": 0.984251968503937,
                    "duration": 0.05416666666678793
                },
                {
                    "name": "G6",
                    "midi": 91,
                    "time": 472.9104166666682,
                    "velocity": 0.9606299212598425,
                    "duration": 0.04375000000010232
                },
                {
                    "name": "D4",
                    "midi": 62,
                    "time": 472.91250000000156,
                    "velocity": 0.9606299212598425,
                    "duration": 0.0395833333333826
                },
                {
                    "name": "D3",
                    "midi": 50,
                    "time": 472.9145833333349,
                    "velocity": 0.9448818897637795,
                    "duration": 0.0395833333333826
                },
                {
                    "name": "G#6",
                    "midi": 92,
                    "time": 473.04375000000164,
                    "velocity": 0.905511811023622,
                    "duration": 0.045833333333405335
                },
                {
                    "name": "E6",
                    "midi": 88,
                    "time": 473.04791666666836,
                    "velocity": 0.7874015748031497,
                    "duration": 0.03125
                },
                {
                    "name": "B6",
                    "midi": 95,
                    "time": 473.18333333333504,
                    "velocity": 1,
                    "duration": 0.050000000000125056
                },
                {
                    "name": "D#4",
                    "midi": 63,
                    "time": 473.1854166666684,
                    "velocity": 1,
                    "duration": 0.03958333333343944
                },
                {
                    "name": "D#3",
                    "midi": 51,
                    "time": 473.18750000000176,
                    "velocity": 0.9763779527559056,
                    "duration": 0.03541666666671972
                },
                {
                    "name": "G#6",
                    "midi": 92,
                    "time": 473.1895833333351,
                    "velocity": 0.9921259842519685,
                    "duration": 0.043750000000045475
                },
                {
                    "name": "A6",
                    "midi": 93,
                    "time": 473.3145833333352,
                    "velocity": 0.9921259842519685,
                    "duration": 0.056250000000034106
                },
                {
                    "name": "F6",
                    "midi": 89,
                    "time": 473.3208333333352,
                    "velocity": 0.9291338582677166,
                    "duration": 0.039583333333325754
                },
                {
                    "name": "E4",
                    "midi": 64,
                    "time": 473.51041666666856,
                    "velocity": 1,
                    "duration": 0.20625000000001137
                },
                {
                    "name": "F4",
                    "midi": 65,
                    "time": 473.72708333333526,
                    "velocity": 0.6062992125984252,
                    "duration": 0.06666666666666288
                },
                {
                    "name": "E4",
                    "midi": 64,
                    "time": 473.80208333333525,
                    "velocity": 0.6614173228346457,
                    "duration": 0.04374999999998863
                },
                {
                    "name": "F4",
                    "midi": 65,
                    "time": 473.8583333333352,
                    "velocity": 0.6220472440944882,
                    "duration": 0.07083333333332575
                },
                {
                    "name": "E4",
                    "midi": 64,
                    "time": 473.9020833333352,
                    "velocity": 0.6929133858267716,
                    "duration": 0.06250000000005684
                },
                {
                    "name": "F4",
                    "midi": 65,
                    "time": 473.9625000000019,
                    "velocity": 0.5354330708661418,
                    "duration": 0.07708333333334849
                },
                {
                    "name": "E4",
                    "midi": 64,
                    "time": 474.0125000000019,
                    "velocity": 0.7165354330708661,
                    "duration": 0.0708333333333826
                },
                {
                    "name": "F4",
                    "midi": 65,
                    "time": 474.08125000000194,
                    "velocity": 0.5748031496062992,
                    "duration": 0.09166666666675383
                },
                {
                    "name": "E4",
                    "midi": 64,
                    "time": 474.1333333333353,
                    "velocity": 0.6929133858267716,
                    "duration": 0.07916666666670835
                },
                {
                    "name": "A5",
                    "midi": 81,
                    "time": 474.15416666666863,
                    "velocity": 0.9133858267716536,
                    "duration": 0.07291666666674246
                },
                {
                    "name": "E5",
                    "midi": 76,
                    "time": 474.156250000002,
                    "velocity": 0.8740157480314961,
                    "duration": 0.04791666666670835
                },
                {
                    "name": "C#6",
                    "midi": 85,
                    "time": 474.1666666666687,
                    "velocity": 0.7165354330708661,
                    "duration": 0.06250000000005684
                },
                {
                    "name": "F4",
                    "midi": 65,
                    "time": 474.22083333333535,
                    "velocity": 0.5039370078740157,
                    "duration": 0.1250000000001137
                },
                {
                    "name": "E4",
                    "midi": 64,
                    "time": 474.2625000000021,
                    "velocity": 0.6771653543307087,
                    "duration": 0.05000000000001137
                },
                {
                    "name": "D6",
                    "midi": 86,
                    "time": 474.2750000000021,
                    "velocity": 0.6850393700787402,
                    "duration": 0.08958333333339397
                },
                {
                    "name": "C#6",
                    "midi": 85,
                    "time": 474.30833333333544,
                    "velocity": 0.5511811023622047,
                    "duration": 0.10625000000004547
                },
                {
                    "name": "D#5",
                    "midi": 75,
                    "time": 474.4437500000022,
                    "velocity": 0.889763779527559,
                    "duration": 0.03958333333343944
                },
                {
                    "name": "C6",
                    "midi": 84,
                    "time": 474.44583333333554,
                    "velocity": 0.7952755905511811,
                    "duration": 0.05000000000006821
                },
                {
                    "name": "G#5",
                    "midi": 80,
                    "time": 474.4500000000022,
                    "velocity": 0.8346456692913385,
                    "duration": 0.025000000000034106
                },
                {
                    "name": "E5",
                    "midi": 76,
                    "time": 474.46458333333555,
                    "velocity": 0.8582677165354331,
                    "duration": 0.06875000000007958
                },
                {
                    "name": "F5",
                    "midi": 77,
                    "time": 474.5708333333356,
                    "velocity": 0.6614173228346457,
                    "duration": 0.08125000000001137
                },
                {
                    "name": "E5",
                    "midi": 76,
                    "time": 474.6333333333356,
                    "velocity": 0.6692913385826772,
                    "duration": 0.08125000000001137
                },
                {
                    "name": "F5",
                    "midi": 77,
                    "time": 474.72291666666894,
                    "velocity": 0.6062992125984252,
                    "duration": 0.07291666666668561
                },
                {
                    "name": "E5",
                    "midi": 76,
                    "time": 474.7812500000023,
                    "velocity": 0.6299212598425197,
                    "duration": 0.07291666666668561
                },
                {
                    "name": "F5",
                    "midi": 77,
                    "time": 474.8562500000023,
                    "velocity": 0.5590551181102362,
                    "duration": 0.07708333333329165
                },
                {
                    "name": "E5",
                    "midi": 76,
                    "time": 474.9125000000023,
                    "velocity": 0.6535433070866141,
                    "duration": 0.0854166666666174
                },
                {
                    "name": "F5",
                    "midi": 77,
                    "time": 474.99375000000225,
                    "velocity": 0.5669291338582677,
                    "duration": 0.07499999999998863
                },
                {
                    "name": "E5",
                    "midi": 76,
                    "time": 475.03750000000224,
                    "velocity": 0.6850393700787402,
                    "duration": 0.09583333333330302
                },
                {
                    "name": "C#6",
                    "midi": 85,
                    "time": 475.0416666666689,
                    "velocity": 0.8267716535433071,
                    "duration": 0.052083333333314386
                },
                {
                    "name": "A5",
                    "midi": 81,
                    "time": 475.04375000000226,
                    "velocity": 0.7716535433070866,
                    "duration": 0.037499999999965894
                },
                {
                    "name": "F5",
                    "midi": 77,
                    "time": 475.12083333333555,
                    "velocity": 0.6614173228346457,
                    "duration": 0.03333333333330302
                },
                {
                    "name": "E4",
                    "midi": 64,
                    "time": 475.3312500000022,
                    "velocity": 0.889763779527559,
                    "duration": 0.125
                },
                {
                    "name": "F4",
                    "midi": 65,
                    "time": 475.4416666666689,
                    "velocity": 0.6614173228346457,
                    "duration": 0.09166666666669698
                },
                {
                    "name": "E4",
                    "midi": 64,
                    "time": 475.5229166666689,
                    "velocity": 0.5354330708661418,
                    "duration": 0.09583333333335986
                },
                {
                    "name": "F4",
                    "midi": 65,
                    "time": 475.61875000000225,
                    "velocity": 0.44881889763779526,
                    "duration": 0.07916666666670835
                },
                {
                    "name": "G#5",
                    "midi": 80,
                    "time": 475.6729166666689,
                    "velocity": 0.8188976377952756,
                    "duration": 0.08750000000009095
                },
                {
                    "name": "F5",
                    "midi": 77,
                    "time": 475.6750000000023,
                    "velocity": 0.7795275590551181,
                    "duration": 0.05416666666673109
                },
                {
                    "name": "C5",
                    "midi": 72,
                    "time": 475.6750000000023,
                    "velocity": 0.7322834645669292,
                    "duration": 0.04791666666670835
                },
                {
                    "name": "E4",
                    "midi": 64,
                    "time": 475.7000000000023,
                    "velocity": 0.4409448818897638,
                    "duration": 0.09791666666671972
                },
                {
                    "name": "A5",
                    "midi": 81,
                    "time": 475.7958333333357,
                    "velocity": 0.7244094488188977,
                    "duration": 0.08333333333337123
                },
                {
                    "name": "F4",
                    "midi": 65,
                    "time": 475.79791666666904,
                    "velocity": 0.5433070866141733,
                    "duration": 0.1333333333333826
                },
                {
                    "name": "F5",
                    "midi": 77,
                    "time": 475.92708333333576,
                    "velocity": 0.84251968503937,
                    "duration": 0.1479166666667311
                },
                {
                    "name": "E4",
                    "midi": 64,
                    "time": 475.9333333333358,
                    "velocity": 0.6614173228346457,
                    "duration": 0.10416666666674246
                },
                {
                    "name": "C5",
                    "midi": 72,
                    "time": 475.93541666666914,
                    "velocity": 0.7244094488188977,
                    "duration": 0.06041666666669698
                },
                {
                    "name": "F#5",
                    "midi": 78,
                    "time": 476.04583333333585,
                    "velocity": 0.8661417322834646,
                    "duration": 0.06458333333330302
                },
                {
                    "name": "E4",
                    "midi": 64,
                    "time": 476.06666666666916,
                    "velocity": 0.4881889763779528,
                    "duration": 0.06666666666666288
                },
                {
                    "name": "F4",
                    "midi": 65,
                    "time": 476.0812500000025,
                    "velocity": 0.47244094488188976,
                    "duration": 0.07499999999998863
                },
                {
                    "name": "A5",
                    "midi": 81,
                    "time": 476.2270833333358,
                    "velocity": 0.8582677165354331,
                    "duration": 0.022916666666674246
                },
                {
                    "name": "C#6",
                    "midi": 85,
                    "time": 476.2291666666692,
                    "velocity": 0.889763779527559,
                    "duration": 0.029166666666696983
                },
                {
                    "name": "F#6",
                    "midi": 90,
                    "time": 476.2291666666692,
                    "velocity": 0.889763779527559,
                    "duration": 0.022916666666674246
                },
                {
                    "name": "E5",
                    "midi": 76,
                    "time": 476.25208333333586,
                    "velocity": 0.6850393700787402,
                    "duration": 0.029166666666696983
                },
                {
                    "name": "F5",
                    "midi": 77,
                    "time": 476.3562500000026,
                    "velocity": 0.5590551181102362,
                    "duration": 0.052083333333314386
                },
                {
                    "name": "E5",
                    "midi": 76,
                    "time": 476.4083333333359,
                    "velocity": 0.5826771653543307,
                    "duration": 0.09583333333335986
                },
                {
                    "name": "F5",
                    "midi": 77,
                    "time": 476.4937500000026,
                    "velocity": 0.6377952755905512,
                    "duration": 0.06875000000002274
                },
                {
                    "name": "E5",
                    "midi": 76,
                    "time": 476.55833333333595,
                    "velocity": 0.5984251968503937,
                    "duration": 0.07708333333334849
                },
                {
                    "name": "F5",
                    "midi": 77,
                    "time": 476.63125000000264,
                    "velocity": 0.5039370078740157,
                    "duration": 0.07499999999998863
                },
                {
                    "name": "E5",
                    "midi": 76,
                    "time": 476.6916666666693,
                    "velocity": 0.5275590551181102,
                    "duration": 0.0875000000000341
                },
                {
                    "name": "F#6",
                    "midi": 90,
                    "time": 476.71250000000265,
                    "velocity": 0.8661417322834646,
                    "duration": 0.039583333333325754
                },
                {
                    "name": "C#6",
                    "midi": 85,
                    "time": 476.71250000000265,
                    "velocity": 0.8346456692913385,
                    "duration": 0.02916666666664014
                },
                {
                    "name": "A5",
                    "midi": 81,
                    "time": 476.71250000000265,
                    "velocity": 0.8110236220472441,
                    "duration": 0.03125
                },
                {
                    "name": "F5",
                    "midi": 77,
                    "time": 476.78541666666933,
                    "velocity": 0.4566929133858268,
                    "duration": 0.0687499999999659
                },
                {
                    "name": "F#6",
                    "midi": 90,
                    "time": 476.8125000000027,
                    "velocity": 0.7401574803149606,
                    "duration": 0.03333333333330302
                },
                {
                    "name": "A5",
                    "midi": 81,
                    "time": 476.820833333336,
                    "velocity": 0.5826771653543307,
                    "duration": 0.04166666666662877
                },
                {
                    "name": "E5",
                    "midi": 76,
                    "time": 476.845833333336,
                    "velocity": 0.5748031496062992,
                    "duration": 0.08958333333328028
                },
                {
                    "name": "F5",
                    "midi": 77,
                    "time": 476.9104166666693,
                    "velocity": 0.6299212598425197,
                    "duration": 0.03333333333330302
                },
                {
                    "name": "E4",
                    "midi": 64,
                    "time": 477.08125000000257,
                    "velocity": 0.8503937007874016,
                    "duration": 0.1270833333334167
                },
                {
                    "name": "F4",
                    "midi": 65,
                    "time": 477.19375000000264,
                    "velocity": 0.6456692913385826,
                    "duration": 0.07708333333334849
                },
                {
                    "name": "E4",
                    "midi": 64,
                    "time": 477.314583333336,
                    "velocity": 0.14173228346456693,
                    "duration": 0.054166666666674246
                },
                {
                    "name": "F4",
                    "midi": 65,
                    "time": 477.3625000000026,
                    "velocity": 0.4251968503937008,
                    "duration": 0.08125000000006821
                },
                {
                    "name": "D#6",
                    "midi": 87,
                    "time": 477.41041666666933,
                    "velocity": 0.8188976377952756,
                    "duration": 0.16041666666677656
                },
                {
                    "name": "E4",
                    "midi": 64,
                    "time": 477.47708333333605,
                    "velocity": 0.31496062992125984,
                    "duration": 0.08333333333337123
                },
                {
                    "name": "C6",
                    "midi": 84,
                    "time": 477.51875000000274,
                    "velocity": 0.6062992125984252,
                    "duration": 0.10000000000002274
                },
                {
                    "name": "F4",
                    "midi": 65,
                    "time": 477.5520833333361,
                    "velocity": 0.49606299212598426,
                    "duration": 0.09791666666666288
                },
                {
                    "name": "G#5",
                    "midi": 80,
                    "time": 477.57916666666944,
                    "velocity": 0.5511811023622047,
                    "duration": 0.03541666666666288
                },
                {
                    "name": "E6",
                    "midi": 88,
                    "time": 477.6541666666694,
                    "velocity": 0.8582677165354331,
                    "duration": 0.14375000000001137
                },
                {
                    "name": "E4",
                    "midi": 64,
                    "time": 477.6562500000028,
                    "velocity": 0.5984251968503937,
                    "duration": 0.11458333333331439
                },
                {
                    "name": "C#6",
                    "midi": 85,
                    "time": 477.7270833333361,
                    "velocity": 0.7795275590551181,
                    "duration": 0.11458333333331439
                },
                {
                    "name": "F4",
                    "midi": 65,
                    "time": 477.7479166666694,
                    "velocity": 0.6377952755905512,
                    "duration": 0.07291666666668561
                },
                {
                    "name": "A5",
                    "midi": 81,
                    "time": 477.79791666666944,
                    "velocity": 0.7007874015748031,
                    "duration": 0.0625
                },
                {
                    "name": "F6",
                    "midi": 89,
                    "time": 477.91250000000275,
                    "velocity": 0.9133858267716536,
                    "duration": 0.05000000000006821
                },
                {
                    "name": "B6",
                    "midi": 95,
                    "time": 477.9208333333361,
                    "velocity": 0.889763779527559,
                    "duration": 0.05000000000006821
                },
                {
                    "name": "C#6",
                    "midi": 85,
                    "time": 477.92291666666944,
                    "velocity": 0.9291338582677166,
                    "duration": 0.02083333333337123
                },
                {
                    "name": "E5",
                    "midi": 76,
                    "time": 477.94166666666945,
                    "velocity": 0.8582677165354331,
                    "duration": 0.08125000000001137
                },
                {
                    "name": "F5",
                    "midi": 77,
                    "time": 478.0687500000028,
                    "velocity": 0.5748031496062992,
                    "duration": 0.04791666666665151
                },
                {
                    "name": "E5",
                    "midi": 76,
                    "time": 478.1229166666695,
                    "velocity": 0.6377952755905512,
                    "duration": 0.09166666666664014
                },
                {
                    "name": "F5",
                    "midi": 77,
                    "time": 478.19791666666947,
                    "velocity": 0.6141732283464567,
                    "duration": 0.06875000000002274
                },
                {
                    "name": "E5",
                    "midi": 76,
                    "time": 478.26041666666947,
                    "velocity": 0.5275590551181102,
                    "duration": 0.22916666666668561
                },
                {
                    "name": "F5",
                    "midi": 77,
                    "time": 478.33333333333616,
                    "velocity": 0.5905511811023622,
                    "duration": 0.07916666666665151
                },
                {
                    "name": "F5",
                    "midi": 77,
                    "time": 478.4750000000028,
                    "velocity": 0.5984251968503937,
                    "duration": 0.08125000000006821
                },
                {
                    "name": "A6",
                    "midi": 93,
                    "time": 478.5229166666695,
                    "velocity": 0.7874015748031497,
                    "duration": 0.043750000000045475
                },
                {
                    "name": "C#6",
                    "midi": 85,
                    "time": 478.53125000000284,
                    "velocity": 0.8188976377952756,
                    "duration": 0.02083333333337123
                },
                {
                    "name": "E5",
                    "midi": 76,
                    "time": 478.53125000000284,
                    "velocity": 0.3937007874015748,
                    "duration": 0.10416666666668561
                },
                {
                    "name": "F#6",
                    "midi": 90,
                    "time": 478.5333333333362,
                    "velocity": 0.7401574803149606,
                    "duration": 0.025000000000034106
                },
                {
                    "name": "F5",
                    "midi": 77,
                    "time": 478.6187500000029,
                    "velocity": 0.6220472440944882,
                    "duration": 0.02916666666664014
                },
                {
                    "name": "E4",
                    "midi": 64,
                    "time": 478.8020833333362,
                    "velocity": 0.8740157480314961,
                    "duration": 0.10000000000002274
                },
                {
                    "name": "F4",
                    "midi": 65,
                    "time": 478.9000000000029,
                    "velocity": 0.6929133858267716,
                    "duration": 0.08958333333333712
                },
                {
                    "name": "E4",
                    "midi": 64,
                    "time": 478.9812500000029,
                    "velocity": 0.5039370078740157,
                    "duration": 0.08958333333339397
                },
                {
                    "name": "F4",
                    "midi": 65,
                    "time": 479.0625000000029,
                    "velocity": 0.5275590551181102,
                    "duration": 0.08125000000006821
                },
                {
                    "name": "F#6",
                    "midi": 90,
                    "time": 479.0625000000029,
                    "velocity": 0.9448818897637795,
                    "duration": 0.05625000000009095
                },
                {
                    "name": "C#6",
                    "midi": 85,
                    "time": 479.0687500000029,
                    "velocity": 0.889763779527559,
                    "duration": 0.027083333333393966
                },
                {
                    "name": "A5",
                    "midi": 81,
                    "time": 479.07291666666964,
                    "velocity": 0.8110236220472441,
                    "duration": 0.027083333333337123
                },
                {
                    "name": "E4",
                    "midi": 64,
                    "time": 479.13541666666964,
                    "velocity": 0.44881889763779526,
                    "duration": 0.07499999999998863
                },
                {
                    "name": "F4",
                    "midi": 65,
                    "time": 479.2229166666696,
                    "velocity": 0.47244094488188976,
                    "duration": 0.07499999999998863
                },
                {
                    "name": "E4",
                    "midi": 64,
                    "time": 479.27291666666963,
                    "velocity": 0.6614173228346457,
                    "duration": 0.07916666666665151
                },
                {
                    "name": "C#6",
                    "midi": 85,
                    "time": 479.4833333333363,
                    "velocity": 0.8976377952755905,
                    "duration": 0.05625000000009095
                },
                {
                    "name": "G#5",
                    "midi": 80,
                    "time": 479.48541666666966,
                    "velocity": 0.9133858267716536,
                    "duration": 0.06041666666675383
                },
                {
                    "name": "E5",
                    "midi": 76,
                    "time": 479.48541666666966,
                    "velocity": 0.8976377952755905,
                    "duration": 0.04791666666670835
                },
                {
                    "name": "F#2",
                    "midi": 42,
                    "time": 479.6312500000031,
                    "velocity": 0.8818897637795275,
                    "duration": 0.20833333333348492
                },
                {
                    "name": "G#5",
                    "midi": 80,
                    "time": 479.6416666666698,
                    "velocity": 1,
                    "duration": 0.08958333333345081
                },
                {
                    "name": "C#6",
                    "midi": 85,
                    "time": 479.6416666666698,
                    "velocity": 0.9763779527559056,
                    "duration": 0.08750000000009095
                },
                {
                    "name": "E5",
                    "midi": 76,
                    "time": 479.64375000000314,
                    "velocity": 0.984251968503937,
                    "duration": 0.05208333333337123
                },
                {
                    "name": "C#3",
                    "midi": 49,
                    "time": 479.78958333333657,
                    "velocity": 0.6535433070866141,
                    "duration": 0.09791666666666288
                },
                {
                    "name": "E3",
                    "midi": 52,
                    "time": 479.9041666666699,
                    "velocity": 0.5984251968503937,
                    "duration": 0.054166666666674246
                },
                {
                    "name": "A#3",
                    "midi": 58,
                    "time": 480.0229166666699,
                    "velocity": 0.6535433070866141,
                    "duration": 0.1416666666666515
                },
                {
                    "name": "C#4",
                    "midi": 61,
                    "time": 480.12500000000324,
                    "velocity": 0.7401574803149606,
                    "duration": 0.08125000000001137
                },
                {
                    "name": "E4",
                    "midi": 64,
                    "time": 480.20625000000325,
                    "velocity": 0.5275590551181102,
                    "duration": 0.08125000000001137
                },
                {
                    "name": "G#4",
                    "midi": 68,
                    "time": 480.2458333333366,
                    "velocity": 0.7795275590551181,
                    "duration": 0.07916666666670835
                },
                {
                    "name": "A#4",
                    "midi": 70,
                    "time": 480.27916666666994,
                    "velocity": 0.7322834645669292,
                    "duration": 0.07291666666668561
                },
                {
                    "name": "C#5",
                    "midi": 73,
                    "time": 480.32708333333665,
                    "velocity": 0.7401574803149606,
                    "duration": 0.04583333333329165
                },
                {
                    "name": "E5",
                    "midi": 76,
                    "time": 480.4208333333366,
                    "velocity": 0.7559055118110236,
                    "duration": 0.07083333333332575
                },
                {
                    "name": "G#5",
                    "midi": 80,
                    "time": 480.4916666666699,
                    "velocity": 0.7874015748031497,
                    "duration": 0.07291666666662877
                },
                {
                    "name": "A#5",
                    "midi": 82,
                    "time": 480.5354166666699,
                    "velocity": 0.7952755905511811,
                    "duration": 0.09166666666664014
                },
                {
                    "name": "C#6",
                    "midi": 85,
                    "time": 480.60208333333657,
                    "velocity": 0.6929133858267716,
                    "duration": 0.08541666666667425
                },
                {
                    "name": "E4",
                    "midi": 64,
                    "time": 480.66666666666987,
                    "velocity": 0.8740157480314961,
                    "duration": 0.0708333333333826
                },
                {
                    "name": "E6",
                    "midi": 88,
                    "time": 480.66875000000323,
                    "velocity": 0.7244094488188977,
                    "duration": 0.09791666666671972
                },
                {
                    "name": "C#6",
                    "midi": 85,
                    "time": 480.75625000000326,
                    "velocity": 0.7007874015748031,
                    "duration": 0.08333333333337123
                },
                {
                    "name": "F#4",
                    "midi": 66,
                    "time": 480.81666666666996,
                    "velocity": 0.49606299212598426,
                    "duration": 0.03750000000002274
                },
                {
                    "name": "A#5",
                    "midi": 82,
                    "time": 480.82916666666995,
                    "velocity": 0.7165354330708661,
                    "duration": 0.06666666666671972
                },
                {
                    "name": "G#5",
                    "midi": 80,
                    "time": 480.88750000000334,
                    "velocity": 0.7559055118110236,
                    "duration": 0.05000000000001137
                },
                {
                    "name": "E4",
                    "midi": 64,
                    "time": 480.9020833333367,
                    "velocity": 0.23622047244094488,
                    "duration": 0.06041666666664014
                },
                {
                    "name": "E5",
                    "midi": 76,
                    "time": 480.9333333333367,
                    "velocity": 0.7007874015748031,
                    "duration": 0.07708333333329165
                },
                {
                    "name": "C#5",
                    "midi": 73,
                    "time": 481.0395833333366,
                    "velocity": 0.7637795275590551,
                    "duration": 0.06666666666666288
                },
                {
                    "name": "A#4",
                    "midi": 70,
                    "time": 481.1125000000033,
                    "velocity": 0.7401574803149606,
                    "duration": 0.0625
                },
                {
                    "name": "G#4",
                    "midi": 68,
                    "time": 481.1625000000033,
                    "velocity": 0.7952755905511811,
                    "duration": 0.06666666666666288
                },
                {
                    "name": "E4",
                    "midi": 64,
                    "time": 481.24583333333663,
                    "velocity": 0.6377952755905512,
                    "duration": 0.10000000000002274
                },
                {
                    "name": "C#4",
                    "midi": 61,
                    "time": 481.3312500000033,
                    "velocity": 0.8267716535433071,
                    "duration": 0.08333333333337123
                },
                {
                    "name": "A#3",
                    "midi": 58,
                    "time": 481.40833333333666,
                    "velocity": 0.7952755905511811,
                    "duration": 0.07916666666665151
                },
                {
                    "name": "G#3",
                    "midi": 56,
                    "time": 481.4750000000033,
                    "velocity": 0.8267716535433071,
                    "duration": 0.06666666666666288
                },
                {
                    "name": "E3",
                    "midi": 52,
                    "time": 481.55416666666997,
                    "velocity": 0.8110236220472441,
                    "duration": 0.06041666666664014
                },
                {
                    "name": "E2",
                    "midi": 40,
                    "time": 481.6500000000033,
                    "velocity": 1,
                    "duration": 0.19166666666671972
                },
                {
                    "name": "B2",
                    "midi": 47,
                    "time": 481.83750000000333,
                    "velocity": 0.5984251968503937,
                    "duration": 0.07708333333334849
                },
                {
                    "name": "E3",
                    "midi": 52,
                    "time": 481.93958333333666,
                    "velocity": 0.5354330708661418,
                    "duration": 0.04583333333334849
                },
                {
                    "name": "G#3",
                    "midi": 56,
                    "time": 482.02083333333667,
                    "velocity": 0.6929133858267716,
                    "duration": 0.26458333333329165
                },
                {
                    "name": "B3",
                    "midi": 59,
                    "time": 482.10416666667,
                    "velocity": 0.6771653543307087,
                    "duration": 0.17708333333331439
                },
                {
                    "name": "D4",
                    "midi": 62,
                    "time": 482.14166666667,
                    "velocity": 0.6692913385826772,
                    "duration": 0.06666666666666288
                },
                {
                    "name": "E4",
                    "midi": 64,
                    "time": 482.16666666667,
                    "velocity": 0.7086614173228346,
                    "duration": 0.08125000000001137
                },
                {
                    "name": "G#4",
                    "midi": 68,
                    "time": 482.19791666667,
                    "velocity": 0.6850393700787402,
                    "duration": 0.09166666666664014
                },
                {
                    "name": "B4",
                    "midi": 71,
                    "time": 482.2687500000033,
                    "velocity": 0.7322834645669292,
                    "duration": 0.05833333333333712
                },
                {
                    "name": "D5",
                    "midi": 74,
                    "time": 482.37708333333666,
                    "velocity": 0.6614173228346457,
                    "duration": 0.0625
                },
                {
                    "name": "E5",
                    "midi": 76,
                    "time": 482.42291666667,
                    "velocity": 0.7716535433070866,
                    "duration": 0.06249999999994316
                },
                {
                    "name": "G#5",
                    "midi": 80,
                    "time": 482.46458333333663,
                    "velocity": 0.7559055118110236,
                    "duration": 0.08333333333331439
                },
                {
                    "name": "B5",
                    "midi": 83,
                    "time": 482.5395833333366,
                    "velocity": 0.5905511811023622,
                    "duration": 0.0541666666666174
                },
                {
                    "name": "E6",
                    "midi": 88,
                    "time": 482.5729166666699,
                    "velocity": 0.7795275590551181,
                    "duration": 0.049999999999954525
                },
                {
                    "name": "E4",
                    "midi": 64,
                    "time": 482.8062500000032,
                    "velocity": 0.9291338582677166,
                    "duration": 0.17500000000001137
                },
                {
                    "name": "F#4",
                    "midi": 66,
                    "time": 483.00000000000324,
                    "velocity": 0.6614173228346457,
                    "duration": 0.06041666666664014
                },
                {
                    "name": "E4",
                    "midi": 64,
                    "time": 483.07083333333657,
                    "velocity": 0.5196850393700787,
                    "duration": 0.04791666666665151
                },
                {
                    "name": "F#4",
                    "midi": 66,
                    "time": 483.1291666666699,
                    "velocity": 0.5984251968503937,
                    "duration": 0.06041666666669698
                },
                {
                    "name": "E4",
                    "midi": 64,
                    "time": 483.18750000000324,
                    "velocity": 0.6062992125984252,
                    "duration": 0.06041666666669698
                },
                {
                    "name": "F#4",
                    "midi": 66,
                    "time": 483.2500000000033,
                    "velocity": 0.5984251968503937,
                    "duration": 0.05624999999997726
                },
                {
                    "name": "E4",
                    "midi": 64,
                    "time": 483.3062500000033,
                    "velocity": 0.6456692913385826,
                    "duration": 0.07916666666665151
                },
                {
                    "name": "F#4",
                    "midi": 66,
                    "time": 483.37291666666994,
                    "velocity": 0.6850393700787402,
                    "duration": 0.0687499999999659
                },
                {
                    "name": "E4",
                    "midi": 64,
                    "time": 483.4291666666699,
                    "velocity": 0.49606299212598426,
                    "duration": 0.06041666666664014
                },
                {
                    "name": "B5",
                    "midi": 83,
                    "time": 483.4937500000032,
                    "velocity": 0.84251968503937,
                    "duration": 0.10833333333334849
                },
                {
                    "name": "F#5",
                    "midi": 78,
                    "time": 483.4979166666699,
                    "velocity": 0.7795275590551181,
                    "duration": 0.027083333333337123
                },
                {
                    "name": "D6",
                    "midi": 86,
                    "time": 483.50208333333654,
                    "velocity": 0.7165354330708661,
                    "duration": 0.04583333333334849
                },
                {
                    "name": "E6",
                    "midi": 88,
                    "time": 483.5791666666699,
                    "velocity": 0.7874015748031497,
                    "duration": 0.11875000000009095
                },
                {
                    "name": "D6",
                    "midi": 86,
                    "time": 483.64375000000325,
                    "velocity": 0.5826771653543307,
                    "duration": 0.13750000000010232
                },
                {
                    "name": "C#6",
                    "midi": 85,
                    "time": 483.73958333333667,
                    "velocity": 0.8582677165354331,
                    "duration": 0.08333333333348492
                },
                {
                    "name": "F5",
                    "midi": 77,
                    "time": 483.74166666667,
                    "velocity": 0.7322834645669292,
                    "duration": 0.04791666666670835
                },
                {
                    "name": "E5",
                    "midi": 76,
                    "time": 483.75000000000335,
                    "velocity": 0.7007874015748031,
                    "duration": 0.06250000000011369
                },
                {
                    "name": "A#5",
                    "midi": 82,
                    "time": 483.75416666667,
                    "velocity": 0.8110236220472441,
                    "duration": 0.045833333333405335
                },
                {
                    "name": "F#5",
                    "midi": 78,
                    "time": 483.8583333333368,
                    "velocity": 0.44881889763779526,
                    "duration": 0.039583333333325754
                },
                {
                    "name": "E5",
                    "midi": 76,
                    "time": 483.90416666667016,
                    "velocity": 0.5433070866141733,
                    "duration": 0.08541666666667425
                },
                {
                    "name": "F#5",
                    "midi": 78,
                    "time": 483.9812500000035,
                    "velocity": 0.5905511811023622,
                    "duration": 0.056250000000034106
                },
                {
                    "name": "E5",
                    "midi": 76,
                    "time": 484.04375000000357,
                    "velocity": 0.5354330708661418,
                    "duration": 0.07500000000004547
                },
                {
                    "name": "F#5",
                    "midi": 78,
                    "time": 484.10833333333693,
                    "velocity": 0.6220472440944882,
                    "duration": 0.0625
                },
                {
                    "name": "E5",
                    "midi": 76,
                    "time": 484.1750000000036,
                    "velocity": 0.5275590551181102,
                    "duration": 0.0708333333333826
                },
                {
                    "name": "F#5",
                    "midi": 78,
                    "time": 484.23958333333695,
                    "velocity": 0.5511811023622047,
                    "duration": 0.0625
                },
                {
                    "name": "E5",
                    "midi": 76,
                    "time": 484.3041666666703,
                    "velocity": 0.6141732283464567,
                    "duration": 0.09791666666677656
                },
                {
                    "name": "D6",
                    "midi": 86,
                    "time": 484.345833333337,
                    "velocity": 0.8740157480314961,
                    "duration": 0.05833333333345081
                },
                {
                    "name": "B5",
                    "midi": 83,
                    "time": 484.34791666667036,
                    "velocity": 0.8346456692913385,
                    "duration": 0.04791666666670835
                },
                {
                    "name": "F#5",
                    "midi": 78,
                    "time": 484.3500000000037,
                    "velocity": 0.7637795275590551,
                    "duration": 0.06250000000005684
                },
                {
                    "name": "E4",
                    "midi": 64,
                    "time": 484.6270833333371,
                    "velocity": 0.6456692913385826,
                    "duration": 0.0625
                },
                {
                    "name": "F#4",
                    "midi": 66,
                    "time": 484.7437500000038,
                    "velocity": 0.49606299212598426,
                    "duration": 0.05833333333333712
                },
                {
                    "name": "E4",
                    "midi": 64,
                    "time": 484.80833333333715,
                    "velocity": 0.11023622047244094,
                    "duration": 0.11458333333337123
                },
                {
                    "name": "F#4",
                    "midi": 66,
                    "time": 484.8854166666705,
                    "velocity": 0.4645669291338583,
                    "duration": 0.08125000000012506
                },
                {
                    "name": "A#5",
                    "midi": 82,
                    "time": 484.92916666667054,
                    "velocity": 0.8267716535433071,
                    "duration": 0.1104166666667652
                },
                {
                    "name": "F5",
                    "midi": 77,
                    "time": 484.9312500000039,
                    "velocity": 0.8031496062992126,
                    "duration": 0.0645833333334167
                },
                {
                    "name": "C#5",
                    "midi": 73,
                    "time": 484.93333333333726,
                    "velocity": 0.7795275590551181,
                    "duration": 0.04791666666670835
                },
                {
                    "name": "E4",
                    "midi": 64,
                    "time": 484.9708333333373,
                    "velocity": 0.2125984251968504,
                    "duration": 0.09375000000011369
                },
                {
                    "name": "F#4",
                    "midi": 66,
                    "time": 485.0458333333373,
                    "velocity": 0.5275590551181102,
                    "duration": 0.08125000000006821
                },
                {
                    "name": "B5",
                    "midi": 83,
                    "time": 485.0479166666707,
                    "velocity": 0.7716535433070866,
                    "duration": 0.09166666666675383
                },
                {
                    "name": "F5",
                    "midi": 77,
                    "time": 485.0583333333374,
                    "velocity": 0.5433070866141733,
                    "duration": 0.06458333333335986
                },
                {
                    "name": "E4",
                    "midi": 64,
                    "time": 485.1333333333374,
                    "velocity": 0.5354330708661418,
                    "duration": 0.08958333333339397
                },
                {
                    "name": "F5",
                    "midi": 77,
                    "time": 485.1937500000041,
                    "velocity": 0.8818897637795275,
                    "duration": 0.14791666666667425
                },
                {
                    "name": "C#5",
                    "midi": 73,
                    "time": 485.2041666666708,
                    "velocity": 0.7716535433070866,
                    "duration": 0.11666666666667425
                },
                {
                    "name": "F#4",
                    "midi": 66,
                    "time": 485.2145833333375,
                    "velocity": 0.7007874015748031,
                    "duration": 0.07083333333332575
                },
                {
                    "name": "E4",
                    "midi": 64,
                    "time": 485.28125000000415,
                    "velocity": 0.5984251968503937,
                    "duration": 0.07916666666665151
                },
                {
                    "name": "F#5",
                    "midi": 78,
                    "time": 485.3041666666708,
                    "velocity": 0.8346456692913385,
                    "duration": 0.07083333333332575
                },
                {
                    "name": "F#4",
                    "midi": 66,
                    "time": 485.34583333333745,
                    "velocity": 0.6771653543307087,
                    "duration": 0.04791666666670835
                },
                {
                    "name": "F#6",
                    "midi": 90,
                    "time": 485.4833333333375,
                    "velocity": 0.8976377952755905,
                    "duration": 0.056250000000034106
                },
                {
                    "name": "B5",
                    "midi": 83,
                    "time": 485.48541666667086,
                    "velocity": 0.7716535433070866,
                    "duration": 0.027083333333337123
                },
                {
                    "name": "D6",
                    "midi": 86,
                    "time": 485.4895833333375,
                    "velocity": 0.7637795275590551,
                    "duration": 0.025000000000034106
                },
                {
                    "name": "E5",
                    "midi": 76,
                    "time": 485.50833333333753,
                    "velocity": 0.8031496062992126,
                    "duration": 0.08125000000001137
                },
                {
                    "name": "F#5",
                    "midi": 78,
                    "time": 485.6041666666709,
                    "velocity": 0.6535433070866141,
                    "duration": 0.04583333333334849
                },
                {
                    "name": "E5",
                    "midi": 76,
                    "time": 485.66250000000423,
                    "velocity": 0.5354330708661418,
                    "duration": 0.08333333333331439
                },
                {
                    "name": "F#5",
                    "midi": 78,
                    "time": 485.7187500000042,
                    "velocity": 0.49606299212598426,
                    "duration": 0.07083333333332575
                },
                {
                    "name": "E5",
                    "midi": 76,
                    "time": 485.7916666666709,
                    "velocity": 0.6535433070866141,
                    "duration": 0.22500000000002274
                },
                {
                    "name": "F#5",
                    "midi": 78,
                    "time": 485.8666666666709,
                    "velocity": 0.6299212598425197,
                    "duration": 0.0625
                },
                {
                    "name": "F#6",
                    "midi": 90,
                    "time": 485.90208333333754,
                    "velocity": 0.8503937007874016,
                    "duration": 0.054166666666674246
                },
                {
                    "name": "D6",
                    "midi": 86,
                    "time": 485.9062500000042,
                    "velocity": 0.7952755905511811,
                    "duration": 0.056250000000034106
                },
                {
                    "name": "B5",
                    "midi": 83,
                    "time": 485.91250000000423,
                    "velocity": 0.6299212598425197,
                    "duration": 0.03125
                },
                {
                    "name": "F#5",
                    "midi": 78,
                    "time": 486.0083333333376,
                    "velocity": 0.6929133858267716,
                    "duration": 0.06250000000011369
                },
                {
                    "name": "F#6",
                    "midi": 90,
                    "time": 486.0166666666709,
                    "velocity": 0.8582677165354331,
                    "duration": 0.07500000000015916
                },
                {
                    "name": "D6",
                    "midi": 86,
                    "time": 486.02291666667094,
                    "velocity": 0.84251968503937,
                    "duration": 0.050000000000125056
                },
                {
                    "name": "B5",
                    "midi": 83,
                    "time": 486.0250000000043,
                    "velocity": 0.8110236220472441,
                    "duration": 0.03750000000002274
                },
                {
                    "name": "E5",
                    "midi": 76,
                    "time": 486.0645833333377,
                    "velocity": 0.6062992125984252,
                    "duration": 0.10000000000002274
                },
                {
                    "name": "F#5",
                    "midi": 78,
                    "time": 486.14791666667105,
                    "velocity": 0.6929133858267716,
                    "duration": 0.04791666666665151
                },
                {
                    "name": "E4",
                    "midi": 64,
                    "time": 486.3250000000044,
                    "velocity": 0.7874015748031497,
                    "duration": 0.1812500000000341
                },
                {
                    "name": "F#4",
                    "midi": 66,
                    "time": 486.5041666666711,
                    "velocity": 0.5275590551181102,
                    "duration": 0.06875000000002274
                },
                {
                    "name": "E4",
                    "midi": 64,
                    "time": 486.59166666667113,
                    "velocity": 0.33858267716535434,
                    "duration": 0.07083333333332575
                },
                {
                    "name": "F6",
                    "midi": 89,
                    "time": 486.6375000000045,
                    "velocity": 0.9448818897637795,
                    "duration": 0.1624999999999659
                },
                {
                    "name": "F#4",
                    "midi": 66,
                    "time": 486.65416666667113,
                    "velocity": 0.6614173228346457,
                    "duration": 0.07499999999998863
                },
                {
                    "name": "E4",
                    "midi": 64,
                    "time": 486.7229166666711,
                    "velocity": 0.5669291338582677,
                    "duration": 0.09583333333335986
                },
                {
                    "name": "C#6",
                    "midi": 85,
                    "time": 486.7520833333378,
                    "velocity": 0.7637795275590551,
                    "duration": 0.09583333333335986
                },
                {
                    "name": "F#4",
                    "midi": 66,
                    "time": 486.8041666666711,
                    "velocity": 0.5275590551181102,
                    "duration": 0.07708333333340533
                },
                {
                    "name": "A#5",
                    "midi": 82,
                    "time": 486.84166666667113,
                    "velocity": 0.4330708661417323,
                    "duration": 0.0395833333333826
                },
                {
                    "name": "E4",
                    "midi": 64,
                    "time": 486.88750000000454,
                    "velocity": 0.5354330708661418,
                    "duration": 0.09583333333330302
                },
                {
                    "name": "F#6",
                    "midi": 90,
                    "time": 486.90833333333785,
                    "velocity": 0.8661417322834646,
                    "duration": 0.17916666666667425
                },
                {
                    "name": "F#4",
                    "midi": 66,
                    "time": 486.9666666666712,
                    "velocity": 0.7007874015748031,
                    "duration": 0.054166666666674246
                },
                {
                    "name": "D6",
                    "midi": 86,
                    "time": 487.00208333333785,
                    "velocity": 0.7086614173228346,
                    "duration": 0.09583333333335986
                },
                {
                    "name": "B5",
                    "midi": 83,
                    "time": 487.0666666666712,
                    "velocity": 0.6062992125984252,
                    "duration": 0.06666666666666288
                },
                {
                    "name": "C#7",
                    "midi": 97,
                    "time": 487.2687500000045,
                    "velocity": 0.8661417322834646,
                    "duration": 0.056250000000034106
                },
                {
                    "name": "D6",
                    "midi": 86,
                    "time": 487.2687500000045,
                    "velocity": 0.7795275590551181,
                    "duration": 0.03125000000005684
                },
                {
                    "name": "A6",
                    "midi": 93,
                    "time": 487.27083333333786,
                    "velocity": 0.7716535433070866,
                    "duration": 0.05833333333333712
                },
                {
                    "name": "E5",
                    "midi": 76,
                    "time": 487.27083333333786,
                    "velocity": 0.7165354330708661,
                    "duration": 0.10833333333334849
                },
                {
                    "name": "F#5",
                    "midi": 78,
                    "time": 487.3833333333379,
                    "velocity": 0.5984251968503937,
                    "duration": 0.0625
                },
                {
                    "name": "E5",
                    "midi": 76,
                    "time": 487.4520833333379,
                    "velocity": 0.4881889763779528,
                    "duration": 0.08125000000001137
                },
                {
                    "name": "F#5",
                    "midi": 78,
                    "time": 487.5270833333379,
                    "velocity": 0.49606299212598426,
                    "duration": 0.05208333333337123
                },
                {
                    "name": "E5",
                    "midi": 76,
                    "time": 487.59791666667127,
                    "velocity": 0.4645669291338583,
                    "duration": 0.07499999999998863
                },
                {
                    "name": "F#5",
                    "midi": 78,
                    "time": 487.6583333333379,
                    "velocity": 0.5511811023622047,
                    "duration": 0.06875000000002274
                },
                {
                    "name": "E5",
                    "midi": 76,
                    "time": 487.7312500000046,
                    "velocity": 0.5118110236220472,
                    "duration": 0.08749999999997726
                },
                {
                    "name": "F#5",
                    "midi": 78,
                    "time": 487.8020833333379,
                    "velocity": 0.49606299212598426,
                    "duration": 0.06875000000002274
                },
                {
                    "name": "B6",
                    "midi": 95,
                    "time": 487.8645833333379,
                    "velocity": 0.9291338582677166,
                    "duration": 0.05000000000006821
                },
                {
                    "name": "G#6",
                    "midi": 92,
                    "time": 487.87083333333794,
                    "velocity": 0.8661417322834646,
                    "duration": 0.03750000000002274
                },
                {
                    "name": "E6",
                    "midi": 88,
                    "time": 487.8729166666713,
                    "velocity": 0.8740157480314961,
                    "duration": 0.024999999999977263
                },
                {
                    "name": "E5",
                    "midi": 76,
                    "time": 487.87708333333796,
                    "velocity": 0.6299212598425197,
                    "duration": 0.09166666666669698
                },
                {
                    "name": "F#5",
                    "midi": 78,
                    "time": 487.96250000000464,
                    "velocity": 0.7086614173228346,
                    "duration": 0.03750000000002274
                },
                {
                    "name": "E4",
                    "midi": 64,
                    "time": 488.17083333333795,
                    "velocity": 0.7795275590551181,
                    "duration": 0.10416666666662877
                },
                {
                    "name": "F#4",
                    "midi": 66,
                    "time": 488.28541666667127,
                    "velocity": 0.6929133858267716,
                    "duration": 0.04583333333334849
                },
                {
                    "name": "E4",
                    "midi": 64,
                    "time": 488.364583333338,
                    "velocity": 0.3464566929133858,
                    "duration": 0.05833333333333712
                },
                {
                    "name": "F#4",
                    "midi": 66,
                    "time": 488.40833333333796,
                    "velocity": 0.6141732283464567,
                    "duration": 0.06250000000011369
                },
                {
                    "name": "F#6",
                    "midi": 90,
                    "time": 488.4416666666713,
                    "velocity": 0.937007874015748,
                    "duration": 0.05625000000014779
                },
                {
                    "name": "D6",
                    "midi": 86,
                    "time": 488.4437500000047,
                    "velocity": 0.8976377952755905,
                    "duration": 0.047916666666765195
                },
                {
                    "name": "B5",
                    "midi": 83,
                    "time": 488.4500000000047,
                    "velocity": 0.7716535433070866,
                    "duration": 0.027083333333393966
                },
                {
                    "name": "E4",
                    "midi": 64,
                    "time": 488.46458333333806,
                    "velocity": 0.5354330708661418,
                    "duration": 0.08541666666678793
                },
                {
                    "name": "F#4",
                    "midi": 66,
                    "time": 488.5479166666715,
                    "velocity": 0.5748031496062992,
                    "duration": 0.04583333333334849
                },
                {
                    "name": "E4",
                    "midi": 64,
                    "time": 488.6104166666715,
                    "velocity": 0.44881889763779526,
                    "duration": 0.06041666666664014
                },
                {
                    "name": "F#4",
                    "midi": 66,
                    "time": 488.6729166666715,
                    "velocity": 0.6929133858267716,
                    "duration": 0.0625
                },
                {
                    "name": "E4",
                    "midi": 64,
                    "time": 488.7104166666715,
                    "velocity": 0.5118110236220472,
                    "duration": 0.08958333333328028
                },
                {
                    "name": "F#4",
                    "midi": 66,
                    "time": 488.78333333333813,
                    "velocity": 0.7322834645669292,
                    "duration": 0.054166666666674246
                },
                {
                    "name": "G#5",
                    "midi": 80,
                    "time": 488.84375000000483,
                    "velocity": 0.889763779527559,
                    "duration": 0.07083333333332575
                },
                {
                    "name": "D#5",
                    "midi": 75,
                    "time": 488.8479166666715,
                    "velocity": 0.8661417322834646,
                    "duration": 0.05000000000001137
                },
                {
                    "name": "C5",
                    "midi": 72,
                    "time": 488.8541666666715,
                    "velocity": 0.7086614173228346,
                    "duration": 0.02916666666664014
                },
                {
                    "name": "A2",
                    "midi": 45,
                    "time": 489.11875000000487,
                    "velocity": 0.9212598425196851,
                    "duration": 0.3187500000000796
                },
                {
                    "name": "C#6",
                    "midi": 85,
                    "time": 489.1250000000049,
                    "velocity": 0.8503937007874016,
                    "duration": 0.2750000000000341
                },
                {
                    "name": "A5",
                    "midi": 81,
                    "time": 489.12708333333825,
                    "velocity": 0.7637795275590551,
                    "duration": 0.2979166666666515
                },
                {
                    "name": "F#5",
                    "midi": 78,
                    "time": 489.1291666666716,
                    "velocity": 0.8188976377952756,
                    "duration": 0.3020833333333144
                },
                {
                    "name": "E3",
                    "midi": 52,
                    "time": 489.4166666666716,
                    "velocity": 0.6771653543307087,
                    "duration": 0.08333333333337123
                },
                {
                    "name": "A3",
                    "midi": 57,
                    "time": 489.5229166666716,
                    "velocity": 0.6377952755905512,
                    "duration": 0.08333333333331439
                },
                {
                    "name": "C#4",
                    "midi": 61,
                    "time": 489.62500000000495,
                    "velocity": 0.8346456692913385,
                    "duration": 0.04583333333334849
                },
                {
                    "name": "E4",
                    "midi": 64,
                    "time": 489.72708333333827,
                    "velocity": 0.5748031496062992,
                    "duration": 0.09791666666666288
                },
                {
                    "name": "F#4",
                    "midi": 66,
                    "time": 489.7791666666716,
                    "velocity": 0.7165354330708661,
                    "duration": 0.07291666666668561
                },
                {
                    "name": "A4",
                    "midi": 69,
                    "time": 489.84375000000495,
                    "velocity": 0.5984251968503937,
                    "duration": 0.06458333333330302
                },
                {
                    "name": "C#5",
                    "midi": 73,
                    "time": 489.88750000000493,
                    "velocity": 0.6692913385826772,
                    "duration": 0.02916666666664014
                },
                {
                    "name": "E5",
                    "midi": 76,
                    "time": 489.9875000000049,
                    "velocity": 0.7086614173228346,
                    "duration": 0.06666666666666288
                },
                {
                    "name": "F#5",
                    "midi": 78,
                    "time": 490.04791666667154,
                    "velocity": 0.7716535433070866,
                    "duration": 0.06666666666666288
                },
                {
                    "name": "A5",
                    "midi": 81,
                    "time": 490.11666666667156,
                    "velocity": 0.5433070866141733,
                    "duration": 0.0687499999999659
                },
                {
                    "name": "C#6",
                    "midi": 85,
                    "time": 490.1562500000049,
                    "velocity": 0.7086614173228346,
                    "duration": 0.10416666666662877
                },
                {
                    "name": "E4",
                    "midi": 64,
                    "time": 490.18125000000487,
                    "velocity": 0.9606299212598425,
                    "duration": 0.10624999999998863
                },
                {
                    "name": "E6",
                    "midi": 88,
                    "time": 490.2291666666715,
                    "velocity": 0.6850393700787402,
                    "duration": 0.10833333333334849
                },
                {
                    "name": "C#6",
                    "midi": 85,
                    "time": 490.3250000000049,
                    "velocity": 0.4330708661417323,
                    "duration": 0.07083333333332575
                },
                {
                    "name": "F#4",
                    "midi": 66,
                    "time": 490.3458333333382,
                    "velocity": 0.6929133858267716,
                    "duration": 0.0708333333333826
                },
                {
                    "name": "A5",
                    "midi": 81,
                    "time": 490.3958333333382,
                    "velocity": 0.5039370078740157,
                    "duration": 0.07916666666670835
                },
                {
                    "name": "E4",
                    "midi": 64,
                    "time": 490.41041666667155,
                    "velocity": 0.5748031496062992,
                    "duration": 0.1020833333333826
                },
                {
                    "name": "F#5",
                    "midi": 78,
                    "time": 490.4625000000049,
                    "velocity": 0.8188976377952756,
                    "duration": 0.05208333333337123
                },
                {
                    "name": "F#4",
                    "midi": 66,
                    "time": 490.47708333333827,
                    "velocity": 0.5669291338582677,
                    "duration": 0.06250000000005684
                },
                {
                    "name": "E5",
                    "midi": 76,
                    "time": 490.525000000005,
                    "velocity": 0.5590551181102362,
                    "duration": 0.06458333333335986
                },
                {
                    "name": "C#5",
                    "midi": 73,
                    "time": 490.6166666666717,
                    "velocity": 0.7244094488188977,
                    "duration": 0.06041666666664014
                },
                {
                    "name": "A4",
                    "midi": 69,
                    "time": 490.6895833333383,
                    "velocity": 0.6614173228346457,
                    "duration": 0.08958333333333712
                },
                {
                    "name": "F#4",
                    "midi": 66,
                    "time": 490.762500000005,
                    "velocity": 0.8267716535433071,
                    "duration": 0.05000000000001137
                },
                {
                    "name": "E4",
                    "midi": 64,
                    "time": 490.8541666666717,
                    "velocity": 0.48031496062992124,
                    "duration": 0.06875000000002274
                },
                {
                    "name": "C#4",
                    "midi": 61,
                    "time": 490.9166666666717,
                    "velocity": 0.5511811023622047,
                    "duration": 0.03541666666666288
                },
                {
                    "name": "A3",
                    "midi": 57,
                    "time": 490.9541666666717,
                    "velocity": 0.5590551181102362,
                    "duration": 0.12083333333333712
                },
                {
                    "name": "F#3",
                    "midi": 54,
                    "time": 491.06458333333836,
                    "velocity": 0.84251968503937,
                    "duration": 0.06458333333335986
                },
                {
                    "name": "G2",
                    "midi": 43,
                    "time": 491.3208333333384,
                    "velocity": 0.952755905511811,
                    "duration": 0.25
                },
                {
                    "name": "D3",
                    "midi": 50,
                    "time": 491.56250000000506,
                    "velocity": 0.6062992125984252,
                    "duration": 0.37708333333335986
                },
                {
                    "name": "F3",
                    "midi": 53,
                    "time": 491.6645833333384,
                    "velocity": 0.6377952755905512,
                    "duration": 0.30208333333337123
                },
                {
                    "name": "B3",
                    "midi": 59,
                    "time": 491.73125000000505,
                    "velocity": 0.6850393700787402,
                    "duration": 0.27500000000009095
                },
                {
                    "name": "F4",
                    "midi": 65,
                    "time": 491.8020833333384,
                    "velocity": 0.5984251968503937,
                    "duration": 0.07916666666670835
                },
                {
                    "name": "A4",
                    "midi": 69,
                    "time": 491.86666666667173,
                    "velocity": 0.6929133858267716,
                    "duration": 0.0875000000000341
                },
                {
                    "name": "B4",
                    "midi": 71,
                    "time": 491.9083333333384,
                    "velocity": 0.6456692913385826,
                    "duration": 0.07291666666668561
                },
                {
                    "name": "D5",
                    "midi": 74,
                    "time": 491.9875000000051,
                    "velocity": 0.3779527559055118,
                    "duration": 0.04374999999998863
                },
                {
                    "name": "F5",
                    "midi": 77,
                    "time": 492.07916666667177,
                    "velocity": 0.7322834645669292,
                    "duration": 0.0875000000000341
                },
                {
                    "name": "A5",
                    "midi": 81,
                    "time": 492.1604166666718,
                    "velocity": 0.7559055118110236,
                    "duration": 0.07708333333334849
                },
                {
                    "name": "B5",
                    "midi": 83,
                    "time": 492.2187500000051,
                    "velocity": 0.6141732283464567,
                    "duration": 0.07291666666668561
                },
                {
                    "name": "D6",
                    "midi": 86,
                    "time": 492.27708333333845,
                    "velocity": 0.7165354330708661,
                    "duration": 0.08125000000001137
                },
                {
                    "name": "F6",
                    "midi": 89,
                    "time": 492.3312500000051,
                    "velocity": 0.6535433070866141,
                    "duration": 0.06666666666666288
                },
                {
                    "name": "E4",
                    "midi": 64,
                    "time": 492.4791666666718,
                    "velocity": 0.9763779527559056,
                    "duration": 0.16666666666662877
                },
                {
                    "name": "G3",
                    "midi": 55,
                    "time": 492.48333333333846,
                    "velocity": 0.8740157480314961,
                    "duration": 0.22708333333332575
                },
                {
                    "name": "F4",
                    "midi": 65,
                    "time": 492.7000000000051,
                    "velocity": 0.4094488188976378,
                    "duration": 0.07500000000004547
                },
                {
                    "name": "E4",
                    "midi": 64,
                    "time": 492.7833333333385,
                    "velocity": 0.7007874015748031,
                    "duration": 0.05624999999997726
                },
                {
                    "name": "F4",
                    "midi": 65,
                    "time": 492.8625000000051,
                    "velocity": 0.6929133858267716,
                    "duration": 0.06875000000002274
                },
                {
                    "name": "E4",
                    "midi": 64,
                    "time": 492.9166666666718,
                    "velocity": 0.7401574803149606,
                    "duration": 0.06041666666669698
                },
                {
                    "name": "F4",
                    "midi": 65,
                    "time": 492.97916666667186,
                    "velocity": 0.5590551181102362,
                    "duration": 0.07708333333334849
                },
                {
                    "name": "E4",
                    "midi": 64,
                    "time": 493.03333333333853,
                    "velocity": 0.7244094488188977,
                    "duration": 0.07499999999998863
                },
                {
                    "name": "F4",
                    "midi": 65,
                    "time": 493.1125000000052,
                    "velocity": 0.6456692913385826,
                    "duration": 0.07499999999998863
                },
                {
                    "name": "E4",
                    "midi": 64,
                    "time": 493.1416666666718,
                    "velocity": 0.5354330708661418,
                    "duration": 0.06041666666669698
                },
                {
                    "name": "D6",
                    "midi": 86,
                    "time": 493.16875000000516,
                    "velocity": 0.9133858267716536,
                    "duration": 0.14583333333331439
                },
                {
                    "name": "A5",
                    "midi": 81,
                    "time": 493.1729166666718,
                    "velocity": 0.8110236220472441,
                    "duration": 0.027083333333337123
                },
                {
                    "name": "F6",
                    "midi": 89,
                    "time": 493.1833333333385,
                    "velocity": 0.6614173228346457,
                    "duration": 0.039583333333325754
                },
                {
                    "name": "G6",
                    "midi": 91,
                    "time": 493.29375000000516,
                    "velocity": 0.7637795275590551,
                    "duration": 0.10416666666674246
                },
                {
                    "name": "F6",
                    "midi": 89,
                    "time": 493.34791666667184,
                    "velocity": 0.7952755905511811,
                    "duration": 0.15208333333350765
                },
                {
                    "name": "E6",
                    "midi": 88,
                    "time": 493.45625000000524,
                    "velocity": 0.7874015748031497,
                    "duration": 0.08125000000012506
                },
                {
                    "name": "E5",
                    "midi": 76,
                    "time": 493.47083333333865,
                    "velocity": 0.7401574803149606,
                    "duration": 0.07708333333340533
                },
                {
                    "name": "G#5",
                    "midi": 80,
                    "time": 493.47083333333865,
                    "velocity": 0.7874015748031497,
                    "duration": 0.043750000000045475
                },
                {
                    "name": "B4",
                    "midi": 71,
                    "time": 493.479166666672,
                    "velocity": 0.5511811023622047,
                    "duration": 0.6291666666667766
                },
                {
                    "name": "C#6",
                    "midi": 85,
                    "time": 493.48125000000533,
                    "velocity": 0.7244094488188977,
                    "duration": 0.03333333333335986
                },
                {
                    "name": "F5",
                    "midi": 77,
                    "time": 493.5708333333387,
                    "velocity": 0.5748031496062992,
                    "duration": 0.05833333333333712
                },
                {
                    "name": "E5",
                    "midi": 76,
                    "time": 493.6375000000054,
                    "velocity": 0.5669291338582677,
                    "duration": 0.04374999999998863
                },
                {
                    "name": "F5",
                    "midi": 77,
                    "time": 493.7020833333387,
                    "velocity": 0.5590551181102362,
                    "duration": 0.0625
                },
                {
                    "name": "E5",
                    "midi": 76,
                    "time": 493.75625000000537,
                    "velocity": 0.6850393700787402,
                    "duration": 0.06666666666666288
                },
                {
                    "name": "F5",
                    "midi": 77,
                    "time": 493.82291666667203,
                    "velocity": 0.6220472440944882,
                    "duration": 0.08541666666667425
                },
                {
                    "name": "E5",
                    "midi": 76,
                    "time": 493.87500000000534,
                    "velocity": 0.7165354330708661,
                    "duration": 0.07916666666670835
                },
                {
                    "name": "F5",
                    "midi": 77,
                    "time": 493.9583333333387,
                    "velocity": 0.6220472440944882,
                    "duration": 0.07499999999998863
                },
                {
                    "name": "E5",
                    "midi": 76,
                    "time": 494.00625000000537,
                    "velocity": 0.6377952755905512,
                    "duration": 0.11041666666670835
                },
                {
                    "name": "F6",
                    "midi": 89,
                    "time": 494.0395833333387,
                    "velocity": 0.8976377952755905,
                    "duration": 0.07916666666670835
                },
                {
                    "name": "D6",
                    "midi": 86,
                    "time": 494.04583333333875,
                    "velocity": 0.8740157480314961,
                    "duration": 0.054166666666674246
                },
                {
                    "name": "A5",
                    "midi": 81,
                    "time": 494.0500000000054,
                    "velocity": 0.7952755905511811,
                    "duration": 0.03333333333335986
                },
                {
                    "name": "F5",
                    "midi": 77,
                    "time": 494.1000000000054,
                    "velocity": 0.7244094488188977,
                    "duration": 0.0625
                },
                {
                    "name": "E4",
                    "midi": 64,
                    "time": 494.40833333333876,
                    "velocity": 0.9448818897637795,
                    "duration": 0.18333333333333712
                },
                {
                    "name": "G3",
                    "midi": 55,
                    "time": 494.4166666666721,
                    "velocity": 0.7716535433070866,
                    "duration": 0.3708333333332803
                },
                {
                    "name": "F4",
                    "midi": 65,
                    "time": 494.58750000000543,
                    "velocity": 0.4645669291338583,
                    "duration": 0.08333333333331439
                },
                {
                    "name": "E4",
                    "midi": 64,
                    "time": 494.7104166666721,
                    "velocity": 0.7086614173228346,
                    "duration": 0.0999999999999659
                },
                {
                    "name": "C#6",
                    "midi": 85,
                    "time": 494.71458333333874,
                    "velocity": 0.9448818897637795,
                    "duration": 0.13958333333329165
                },
                {
                    "name": "E5",
                    "midi": 76,
                    "time": 494.72291666667206,
                    "velocity": 0.8740157480314961,
                    "duration": 0.15416666666664014
                },
                {
                    "name": "F4",
                    "midi": 65,
                    "time": 494.7833333333387,
                    "velocity": 0.6220472440944882,
                    "duration": 0.10833333333334849
                },
                {
                    "name": "D6",
                    "midi": 86,
                    "time": 494.8145833333387,
                    "velocity": 0.7007874015748031,
                    "duration": 0.22500000000002274
                },
                {
                    "name": "E4",
                    "midi": 64,
                    "time": 494.8687500000054,
                    "velocity": 0.6535433070866141,
                    "duration": 0.07291666666668561
                },
                {
                    "name": "G#5",
                    "midi": 80,
                    "time": 494.98541666667205,
                    "velocity": 0.8346456692913385,
                    "duration": 0.16250000000002274
                },
                {
                    "name": "E5",
                    "midi": 76,
                    "time": 494.9875000000054,
                    "velocity": 0.6771653543307087,
                    "duration": 0.17500000000001137
                },
                {
                    "name": "A5",
                    "midi": 81,
                    "time": 495.1125000000054,
                    "velocity": 0.8503937007874016,
                    "duration": 0.08541666666667425
                },
                {
                    "name": "C#3",
                    "midi": 49,
                    "time": 495.26458333333875,
                    "velocity": 0.7874015748031497,
                    "duration": 0.06666666666677656
                },
                {
                    "name": "G3",
                    "midi": 55,
                    "time": 495.2666666666721,
                    "velocity": 0.8110236220472441,
                    "duration": 0.06250000000005684
                },
                {
                    "name": "F6",
                    "midi": 89,
                    "time": 495.26875000000547,
                    "velocity": 0.9212598425196851,
                    "duration": 0.056250000000034106
                },
                {
                    "name": "D6",
                    "midi": 86,
                    "time": 495.2708333333388,
                    "velocity": 0.889763779527559,
                    "duration": 0.05000000000001137
                },
                {
                    "name": "C#4",
                    "midi": 61,
                    "time": 495.2708333333388,
                    "velocity": 0.9133858267716536,
                    "duration": 0.31250000000005684
                },
                {
                    "name": "B3",
                    "midi": 59,
                    "time": 495.2729166666722,
                    "velocity": 0.9212598425196851,
                    "duration": 0.08333333333331439
                },
                {
                    "name": "A5",
                    "midi": 81,
                    "time": 495.27500000000555,
                    "velocity": 0.8740157480314961,
                    "duration": 0.03333333333330302
                },
                {
                    "name": "F4",
                    "midi": 65,
                    "time": 495.5000000000055,
                    "velocity": 0.6614173228346457,
                    "duration": 0.1479166666667311
                },
                {
                    "name": "E4",
                    "midi": 64,
                    "time": 495.5187500000055,
                    "velocity": 0.5590551181102362,
                    "duration": 0.06458333333335986
                },
                {
                    "name": "G4",
                    "midi": 67,
                    "time": 495.60625000000556,
                    "velocity": 0.5590551181102362,
                    "duration": 0.07708333333334849
                },
                {
                    "name": "E4",
                    "midi": 64,
                    "time": 495.6416666666722,
                    "velocity": 0.6692913385826772,
                    "duration": 0.06875000000002274
                },
                {
                    "name": "B4",
                    "midi": 71,
                    "time": 495.6645833333389,
                    "velocity": 0.7086614173228346,
                    "duration": 0.15208333333350765
                },
                {
                    "name": "F4",
                    "midi": 65,
                    "time": 495.7125000000056,
                    "velocity": 0.5590551181102362,
                    "duration": 0.06041666666669698
                },
                {
                    "name": "E4",
                    "midi": 64,
                    "time": 495.75833333333895,
                    "velocity": 0.7322834645669292,
                    "duration": 0.0729166666667993
                },
                {
                    "name": "F6",
                    "midi": 89,
                    "time": 495.7791666666723,
                    "velocity": 0.9133858267716536,
                    "duration": 0.06875000000013642
                },
                {
                    "name": "D6",
                    "midi": 86,
                    "time": 495.7812500000057,
                    "velocity": 0.889763779527559,
                    "duration": 0.06250000000011369
                },
                {
                    "name": "C#5",
                    "midi": 73,
                    "time": 495.78333333333904,
                    "velocity": 0.8661417322834646,
                    "duration": 0.38541666666696983
                },
                {
                    "name": "A5",
                    "midi": 81,
                    "time": 495.7854166666724,
                    "velocity": 0.889763779527559,
                    "duration": 0.04791666666670835
                },
                {
                    "name": "F4",
                    "midi": 65,
                    "time": 495.8541666666725,
                    "velocity": 0.3937007874015748,
                    "duration": 0.047916666666765195
                },
                {
                    "name": "E4",
                    "midi": 64,
                    "time": 495.88750000000584,
                    "velocity": 0.7086614173228346,
                    "duration": 0.08125000000006821
                },
                {
                    "name": "F6",
                    "midi": 89,
                    "time": 495.89375000000587,
                    "velocity": 0.84251968503937,
                    "duration": 0.1104166666667652
                },
                {
                    "name": "D6",
                    "midi": 86,
                    "time": 495.8958333333392,
                    "velocity": 0.8346456692913385,
                    "duration": 0.09166666666675383
                },
                {
                    "name": "A5",
                    "midi": 81,
                    "time": 495.8979166666726,
                    "velocity": 0.8740157480314961,
                    "duration": 0.07500000000004547
                },
                {
                    "name": "F5",
                    "midi": 77,
                    "time": 495.9104166666726,
                    "velocity": 0.6850393700787402,
                    "duration": 0.23125000000010232
                },
                {
                    "name": "G5",
                    "midi": 79,
                    "time": 495.91250000000593,
                    "velocity": 0.6377952755905512,
                    "duration": 0.24791666666675383
                },
                {
                    "name": "F4",
                    "midi": 65,
                    "time": 495.97083333333927,
                    "velocity": 0.6771653543307087,
                    "duration": 0.12500000000005684
                },
                {
                    "name": "B5",
                    "midi": 83,
                    "time": 495.9854166666726,
                    "velocity": 0.6771653543307087,
                    "duration": 0.2208333333334167
                },
                {
                    "name": "C#6",
                    "midi": 85,
                    "time": 496.0583333333393,
                    "velocity": 0.8346456692913385,
                    "duration": 0.1750000000000682
                },
                {
                    "name": "F6",
                    "midi": 89,
                    "time": 496.15416666667267,
                    "velocity": 0.8740157480314961,
                    "duration": 0.33750000000009095
                },
                {
                    "name": "E4",
                    "midi": 64,
                    "time": 496.1708333333394,
                    "velocity": 0.9606299212598425,
                    "duration": 0.09791666666671972
                },
                {
                    "name": "C#4",
                    "midi": 61,
                    "time": 496.1791666666727,
                    "velocity": 0.9291338582677166,
                    "duration": 0.3145833333334167
                },
                {
                    "name": "F4",
                    "midi": 65,
                    "time": 496.29375000000607,
                    "velocity": 0.5039370078740157,
                    "duration": 0.03750000000002274
                },
                {
                    "name": "C#6",
                    "midi": 85,
                    "time": 496.29375000000607,
                    "velocity": 0.7007874015748031,
                    "duration": 0.33750000000009095
                },
                {
                    "name": "B5",
                    "midi": 83,
                    "time": 496.3208333333394,
                    "velocity": 0.5354330708661418,
                    "duration": 0.33958333333339397
                },
                {
                    "name": "E4",
                    "midi": 64,
                    "time": 496.3708333333394,
                    "velocity": 0.5196850393700787,
                    "duration": 0.04583333333334849
                },
                {
                    "name": "F4",
                    "midi": 65,
                    "time": 496.4229166666728,
                    "velocity": 0.5826771653543307,
                    "duration": 0.06041666666664014
                },
                {
                    "name": "F5",
                    "midi": 77,
                    "time": 496.4437500000061,
                    "velocity": 0.5354330708661418,
                    "duration": 0.25208333333335986
                },
                {
                    "name": "G5",
                    "midi": 79,
                    "time": 496.44791666667277,
                    "velocity": 0.5118110236220472,
                    "duration": 0.23958333333337123
                },
                {
                    "name": "E4",
                    "midi": 64,
                    "time": 496.4750000000061,
                    "velocity": 0.6614173228346457,
                    "duration": 0.06666666666666288
                },
                {
                    "name": "C#5",
                    "midi": 73,
                    "time": 496.48333333333943,
                    "velocity": 0.6929133858267716,
                    "duration": 0.07500000000004547
                },
                {
                    "name": "F4",
                    "midi": 65,
                    "time": 496.55208333333945,
                    "velocity": 0.6771653543307087,
                    "duration": 0.06458333333335986
                },
                {
                    "name": "B4",
                    "midi": 71,
                    "time": 496.5895833333395,
                    "velocity": 0.5748031496062992,
                    "duration": 0.10208333333332575
                },
                {
                    "name": "E4",
                    "midi": 64,
                    "time": 496.60000000000616,
                    "velocity": 0.6771653543307087,
                    "duration": 0.08124999999995453
                },
                {
                    "name": "F4",
                    "midi": 65,
                    "time": 496.6812500000061,
                    "velocity": 0.5984251968503937,
                    "duration": 0.0875000000000341
                },
                {
                    "name": "G4",
                    "midi": 67,
                    "time": 496.7104166666728,
                    "velocity": 0.5984251968503937,
                    "duration": 0.08958333333339397
                },
                {
                    "name": "E4",
                    "midi": 64,
                    "time": 496.74791666667284,
                    "velocity": 0.7322834645669292,
                    "duration": 0.07708333333334849
                },
                {
                    "name": "F4",
                    "midi": 65,
                    "time": 496.78750000000616,
                    "velocity": 0.5511811023622047,
                    "duration": 0.11666666666678793
                },
                {
                    "name": "F6",
                    "midi": 89,
                    "time": 496.7937500000062,
                    "velocity": 0.9291338582677166,
                    "duration": 0.07916666666670835
                },
                {
                    "name": "D6",
                    "midi": 86,
                    "time": 496.79791666667285,
                    "velocity": 0.952755905511811,
                    "duration": 0.11458333333342807
                },
                {
                    "name": "A5",
                    "midi": 81,
                    "time": 496.8000000000062,
                    "velocity": 0.889763779527559,
                    "duration": 0.03125
                },
                {
                    "name": "G6",
                    "midi": 91,
                    "time": 496.88750000000624,
                    "velocity": 0.7637795275590551,
                    "duration": 0.11041666666670835
                },
                {
                    "name": "C#4",
                    "midi": 61,
                    "time": 496.8895833333396,
                    "velocity": 0.7795275590551181,
                    "duration": 0.07708333333334849
                },
                {
                    "name": "F6",
                    "midi": 89,
                    "time": 496.9395833333396,
                    "velocity": 0.5826771653543307,
                    "duration": 0.11666666666667425
                },
                {
                    "name": "D4",
                    "midi": 62,
                    "time": 496.9520833333396,
                    "velocity": 0.4409448818897638,
                    "duration": 0.04374999999998863
                },
                {
                    "name": "G2",
                    "midi": 43,
                    "time": 497.0645833333396,
                    "velocity": 0.9212598425196851,
                    "duration": 0.06250000000005684
                },
                {
                    "name": "E6",
                    "midi": 88,
                    "time": 497.08958333333965,
                    "velocity": 0.8188976377952756,
                    "duration": 0.09583333333335986
                },
                {
                    "name": "G#5",
                    "midi": 80,
                    "time": 497.10000000000633,
                    "velocity": 0.84251968503937,
                    "duration": 0.0625
                },
                {
                    "name": "C#6",
                    "midi": 85,
                    "time": 497.110416666673,
                    "velocity": 0.7716535433070866,
                    "duration": 0.049999999999954525
                },
                {
                    "name": "F3",
                    "midi": 53,
                    "time": 497.15208333333965,
                    "velocity": 0.8188976377952756,
                    "duration": 0.05833333333333712
                },
                {
                    "name": "B3",
                    "midi": 59,
                    "time": 497.16875000000636,
                    "velocity": 0.84251968503937,
                    "duration": 0.06458333333330302
                },
                {
                    "name": "E4",
                    "midi": 64,
                    "time": 497.40000000000634,
                    "velocity": 0.7244094488188977,
                    "duration": 0.06041666666664014
                },
                {
                    "name": "F4",
                    "midi": 65,
                    "time": 497.4875000000063,
                    "velocity": 0.5590551181102362,
                    "duration": 0.04583333333334849
                },
                {
                    "name": "E4",
                    "midi": 64,
                    "time": 497.52708333333965,
                    "velocity": 0.6929133858267716,
                    "duration": 0.06458333333335986
                },
                {
                    "name": "F4",
                    "midi": 65,
                    "time": 497.59375000000637,
                    "velocity": 0.5984251968503937,
                    "duration": 0.07291666666668561
                },
                {
                    "name": "E4",
                    "midi": 64,
                    "time": 497.66041666667303,
                    "velocity": 0.7086614173228346,
                    "duration": 0.06250000000005684
                },
                {
                    "name": "F6",
                    "midi": 89,
                    "time": 497.6833333333397,
                    "velocity": 0.9606299212598425,
                    "duration": 0.058333333333393966
                },
                {
                    "name": "D6",
                    "midi": 86,
                    "time": 497.68541666667306,
                    "velocity": 0.9212598425196851,
                    "duration": 0.03333333333335986
                },
                {
                    "name": "A5",
                    "midi": 81,
                    "time": 497.6875000000064,
                    "velocity": 0.9133858267716536,
                    "duration": 0.02916666666664014
                },
                {
                    "name": "F4",
                    "midi": 65,
                    "time": 497.73958333333974,
                    "velocity": 0.3228346456692913,
                    "duration": 0.06041666666669698
                },
                {
                    "name": "E4",
                    "midi": 64,
                    "time": 497.7937500000064,
                    "velocity": 0.7086614173228346,
                    "duration": 0.06666666666666288
                },
                {
                    "name": "F4",
                    "midi": 65,
                    "time": 497.8875000000064,
                    "velocity": 0.5354330708661418,
                    "duration": 0.039583333333325754
                },
                {
                    "name": "B3",
                    "midi": 59,
                    "time": 497.9708333333397,
                    "velocity": 0.889763779527559,
                    "duration": 0.5229166666668448
                },
                {
                    "name": "E4",
                    "midi": 64,
                    "time": 497.9750000000064,
                    "velocity": 0.8031496062992126,
                    "duration": 0.07916666666665151
                },
                {
                    "name": "F4",
                    "midi": 65,
                    "time": 498.0875000000064,
                    "velocity": 0.6141732283464567,
                    "duration": 0.052083333333314386
                },
                {
                    "name": "E4",
                    "midi": 64,
                    "time": 498.1625000000064,
                    "velocity": 0.5984251968503937,
                    "duration": 0.06875000000002274
                },
                {
                    "name": "F4",
                    "midi": 65,
                    "time": 498.2333333333398,
                    "velocity": 0.6692913385826772,
                    "duration": 0.1020833333333826
                },
                {
                    "name": "C#6",
                    "midi": 85,
                    "time": 498.2791666666731,
                    "velocity": 0.968503937007874,
                    "duration": 0.13958333333340533
                },
                {
                    "name": "E5",
                    "midi": 76,
                    "time": 498.28750000000645,
                    "velocity": 0.8976377952755905,
                    "duration": 0.058333333333393966
                },
                {
                    "name": "E4",
                    "midi": 64,
                    "time": 498.32916666667313,
                    "velocity": 0.6850393700787402,
                    "duration": 0.10625000000010232
                },
                {
                    "name": "D6",
                    "midi": 86,
                    "time": 498.3687500000065,
                    "velocity": 0.7716535433070866,
                    "duration": 0.22708333333343944
                },
                {
                    "name": "F4",
                    "midi": 65,
                    "time": 498.4208333333399,
                    "velocity": 0.7244094488188977,
                    "duration": 0.06875000000002274
                },
                {
                    "name": "G#5",
                    "midi": 80,
                    "time": 498.53541666667326,
                    "velocity": 0.8503937007874016,
                    "duration": 0.14583333333337123
                },
                {
                    "name": "E5",
                    "midi": 76,
                    "time": 498.5375000000066,
                    "velocity": 0.7244094488188977,
                    "duration": 0.1500000000000341
                },
                {
                    "name": "A5",
                    "midi": 81,
                    "time": 498.6541666666733,
                    "velocity": 0.8503937007874016,
                    "duration": 0.06041666666669698
                },
                {
                    "name": "F6",
                    "midi": 89,
                    "time": 498.79166666667334,
                    "velocity": 0.8346456692913385,
                    "duration": 0.27499999999997726
                },
                {
                    "name": "C#2",
                    "midi": 37,
                    "time": 498.79166666667334,
                    "velocity": 0.9448818897637795,
                    "duration": 0.10624999999998863
                },
                {
                    "name": "F5",
                    "midi": 77,
                    "time": 498.79583333334,
                    "velocity": 0.9133858267716536,
                    "duration": 0.26041666666662877
                },
                {
                    "name": "A5",
                    "midi": 81,
                    "time": 498.79583333334,
                    "velocity": 0.889763779527559,
                    "duration": 0.26458333333329165
                },
                {
                    "name": "B2",
                    "midi": 47,
                    "time": 498.79583333334,
                    "velocity": 0.9448818897637795,
                    "duration": 0.13958333333329165
                },
                {
                    "name": "G2",
                    "midi": 43,
                    "time": 498.79583333334,
                    "velocity": 0.9212598425196851,
                    "duration": 0.11041666666665151
                },
                {
                    "name": "D6",
                    "midi": 86,
                    "time": 498.80000000000666,
                    "velocity": 0.8582677165354331,
                    "duration": 0.283333333333303
                },
                {
                    "name": "C#3",
                    "midi": 49,
                    "time": 498.83125000000666,
                    "velocity": 0.905511811023622,
                    "duration": 0.4166666666666856
                },
                {
                    "name": "F3",
                    "midi": 53,
                    "time": 499.0104166666733,
                    "velocity": 0.6299212598425197,
                    "duration": 0.22500000000007958
                },
                {
                    "name": "G3",
                    "midi": 55,
                    "time": 499.0979166666733,
                    "velocity": 0.6614173228346457,
                    "duration": 0.1645833333333826
                },
                {
                    "name": "E4",
                    "midi": 64,
                    "time": 499.13541666667334,
                    "velocity": 0.8740157480314961,
                    "duration": 0.08958333333333712
                },
                {
                    "name": "B3",
                    "midi": 59,
                    "time": 499.18541666667335,
                    "velocity": 0.7244094488188977,
                    "duration": 0.15208333333333712
                },
                {
                    "name": "F4",
                    "midi": 65,
                    "time": 499.23333333334,
                    "velocity": 0.7322834645669292,
                    "duration": 0.46666666666664014
                },
                {
                    "name": "A5",
                    "midi": 81,
                    "time": 499.25416666667337,
                    "velocity": 0.8031496062992126,
                    "duration": 0.08333333333331439
                },
                {
                    "name": "F6",
                    "midi": 89,
                    "time": 499.25416666667337,
                    "velocity": 0.7086614173228346,
                    "duration": 0.08333333333331439
                },
                {
                    "name": "F5",
                    "midi": 77,
                    "time": 499.25833333334003,
                    "velocity": 0.8188976377952756,
                    "duration": 0.0625
                },
                {
                    "name": "D6",
                    "midi": 86,
                    "time": 499.2625000000067,
                    "velocity": 0.7637795275590551,
                    "duration": 0.08333333333331439
                },
                {
                    "name": "E4",
                    "midi": 64,
                    "time": 499.3062500000067,
                    "velocity": 0.6456692913385826,
                    "duration": 0.06666666666666288
                },
                {
                    "name": "G4",
                    "midi": 67,
                    "time": 499.3062500000067,
                    "velocity": 0.6535433070866141,
                    "duration": 0.25625000000002274
                },
                {
                    "name": "F6",
                    "midi": 89,
                    "time": 499.37083333334,
                    "velocity": 0.4015748031496063,
                    "duration": 0.08750000000009095
                },
                {
                    "name": "F5",
                    "midi": 77,
                    "time": 499.37083333334,
                    "velocity": 0.7086614173228346,
                    "duration": 0.10416666666674246
                },
                {
                    "name": "A5",
                    "midi": 81,
                    "time": 499.3750000000067,
                    "velocity": 0.8110236220472441,
                    "duration": 0.1020833333333826
                },
                {
                    "name": "D6",
                    "midi": 86,
                    "time": 499.38125000000673,
                    "velocity": 0.7165354330708661,
                    "duration": 0.09375
                },
                {
                    "name": "B4",
                    "midi": 71,
                    "time": 499.4145833333401,
                    "velocity": 0.7559055118110236,
                    "duration": 0.22499999999990905
                },
                {
                    "name": "E4",
                    "midi": 64,
                    "time": 499.43125000000674,
                    "velocity": 0.6850393700787402,
                    "duration": 0.07083333333332575
                },
                {
                    "name": "C#5",
                    "midi": 73,
                    "time": 499.4895833333401,
                    "velocity": 0.8267716535433071,
                    "duration": 0.19583333333321207
                },
                {
                    "name": "E4",
                    "midi": 64,
                    "time": 499.5416666666734,
                    "velocity": 0.7401574803149606,
                    "duration": 0.08124999999995453
                },
                {
                    "name": "F5",
                    "midi": 77,
                    "time": 499.57916666667336,
                    "velocity": 0.8582677165354331,
                    "duration": 0.14374999999995453
                },
                {
                    "name": "E4",
                    "midi": 64,
                    "time": 499.6604166666733,
                    "velocity": 0.8976377952755905,
                    "duration": 0.28125
                },
                {
                    "name": "B3",
                    "midi": 59,
                    "time": 499.66458333334,
                    "velocity": 0.9133858267716536,
                    "duration": 0.72708333333361
                },
                {
                    "name": "C#4",
                    "midi": 61,
                    "time": 499.73125000000664,
                    "velocity": 0.84251968503937,
                    "duration": 0.7625000000003865
                },
                {
                    "name": "F4",
                    "midi": 65,
                    "time": 499.7666666666733,
                    "velocity": 0.5984251968503937,
                    "duration": 0.6687500000003297
                },
                {
                    "name": "G4",
                    "midi": 67,
                    "time": 499.9000000000066,
                    "velocity": 0.6929133858267716,
                    "duration": 0.5458333333336896
                },
                {
                    "name": "B4",
                    "midi": 71,
                    "time": 499.95833333333997,
                    "velocity": 0.8346456692913385,
                    "duration": 0.4770833333336668
                },
                {
                    "name": "E4",
                    "midi": 64,
                    "time": 499.9729166666733,
                    "velocity": 0.5275590551181102,
                    "duration": 0.11875000000009095
                },
                {
                    "name": "C#6",
                    "midi": 85,
                    "time": 499.99583333334,
                    "velocity": 0.968503937007874,
                    "duration": 0.13541666666674246
                },
                {
                    "name": "E5",
                    "midi": 76,
                    "time": 500.00208333334,
                    "velocity": 0.9448818897637795,
                    "duration": 0.17500000000012506
                },
                {
                    "name": "G#5",
                    "midi": 80,
                    "time": 500.00416666667337,
                    "velocity": 0.8976377952755905,
                    "duration": 0.15625000000005684
                },
                {
                    "name": "F5",
                    "midi": 77,
                    "time": 500.0729166666734,
                    "velocity": 0.7874015748031497,
                    "duration": 0.2687500000001819
                },
                {
                    "name": "G5",
                    "midi": 79,
                    "time": 500.0729166666734,
                    "velocity": 0.7637795275590551,
                    "duration": 0.29166666666685614
                },
                {
                    "name": "D6",
                    "midi": 86,
                    "time": 500.1104166666734,
                    "velocity": 0.8818897637795275,
                    "duration": 0.2041666666667652
                },
                {
                    "name": "B5",
                    "midi": 83,
                    "time": 500.13750000000675,
                    "velocity": 0.5511811023622047,
                    "duration": 0.25625000000019327
                },
                {
                    "name": "E4",
                    "midi": 64,
                    "time": 500.1750000000068,
                    "velocity": 0.5118110236220472,
                    "duration": 0.11041666666670835
                },
                {
                    "name": "C#6",
                    "midi": 85,
                    "time": 500.1937500000068,
                    "velocity": 0.7795275590551181,
                    "duration": 0.19583333333343944
                },
                {
                    "name": "G#5",
                    "midi": 80,
                    "time": 500.27916666667346,
                    "velocity": 0.9448818897637795,
                    "duration": 0.1583333333335304
                },
                {
                    "name": "E5",
                    "midi": 76,
                    "time": 500.2854166666735,
                    "velocity": 0.8740157480314961,
                    "duration": 0.16666666666685614
                },
                {
                    "name": "A#5",
                    "midi": 82,
                    "time": 500.30833333334016,
                    "velocity": 0.5669291338582677,
                    "duration": 0.03125000000005684
                },
                {
                    "name": "F6",
                    "midi": 89,
                    "time": 500.3208333333402,
                    "velocity": 0.889763779527559,
                    "duration": 0.11250000000006821
                },
                {
                    "name": "E4",
                    "midi": 64,
                    "time": 500.32916666667353,
                    "velocity": 0.7874015748031497,
                    "duration": 0.0645833333334167
                },
                {
                    "name": "A5",
                    "midi": 81,
                    "time": 500.3979166666736,
                    "velocity": 0.8503937007874016,
                    "duration": 0.08541666666673109
                },
                {
                    "name": "G1",
                    "midi": 31,
                    "time": 500.5583333333404,
                    "velocity": 0.9448818897637795,
                    "duration": 0.09791666666666288
                },
                {
                    "name": "F2",
                    "midi": 41,
                    "time": 500.73125000000704,
                    "velocity": 0.9291338582677166,
                    "duration": 0.05624999999997726
                },
                {
                    "name": "D6",
                    "midi": 86,
                    "time": 500.73125000000704,
                    "velocity": 0.8188976377952756,
                    "duration": 0.07291666666668561
                },
                {
                    "name": "F6",
                    "midi": 89,
                    "time": 500.7354166666737,
                    "velocity": 0.8110236220472441,
                    "duration": 0.06666666666666288
                },
                {
                    "name": "F5",
                    "midi": 77,
                    "time": 500.73750000000706,
                    "velocity": 0.84251968503937,
                    "duration": 0.06041666666664014
                },
                {
                    "name": "B2",
                    "midi": 47,
                    "time": 500.7416666666737,
                    "velocity": 0.8346456692913385,
                    "duration": 0.06041666666664014
                },
                {
                    "name": "C#6",
                    "midi": 85,
                    "time": 500.76250000000704,
                    "velocity": 0.5748031496062992,
                    "duration": 0.02916666666664014
                },
                {
                    "name": "C#6",
                    "midi": 85,
                    "time": 501.0708333333404,
                    "velocity": 0.9448818897637795,
                    "duration": 0.14375000000001137
                },
                {
                    "name": "E5",
                    "midi": 76,
                    "time": 501.0770833333404,
                    "velocity": 0.8740157480314961,
                    "duration": 0.052083333333314386
                },
                {
                    "name": "G#5",
                    "midi": 80,
                    "time": 501.0770833333404,
                    "velocity": 0.8582677165354331,
                    "duration": 0.18124999999997726
                },
                {
                    "name": "D6",
                    "midi": 86,
                    "time": 501.17708333334036,
                    "velocity": 0.889763779527559,
                    "duration": 0.17916666666667425
                },
                {
                    "name": "E5",
                    "midi": 76,
                    "time": 501.18750000000705,
                    "velocity": 0.4645669291338583,
                    "duration": 0.04583333333334849
                },
                {
                    "name": "G#5",
                    "midi": 80,
                    "time": 501.318750000007,
                    "velocity": 0.8661417322834646,
                    "duration": 0.15416666666669698
                },
                {
                    "name": "E5",
                    "midi": 76,
                    "time": 501.32708333334034,
                    "velocity": 0.8582677165354331,
                    "duration": 0.14583333333337123
                },
                {
                    "name": "A#5",
                    "midi": 82,
                    "time": 501.350000000007,
                    "velocity": 0.4094488188976378,
                    "duration": 0.03541666666671972
                },
                {
                    "name": "C#2",
                    "midi": 37,
                    "time": 501.37500000000705,
                    "velocity": 0.6456692913385826,
                    "duration": 0.11874999999997726
                },
                {
                    "name": "A5",
                    "midi": 81,
                    "time": 501.4333333333404,
                    "velocity": 0.8110236220472441,
                    "duration": 0.07916666666665151
                },
                {
                    "name": "B2",
                    "midi": 47,
                    "time": 501.53333333334035,
                    "velocity": 0.7952755905511811,
                    "duration": 0.08958333333339397
                },
                {
                    "name": "D6",
                    "midi": 86,
                    "time": 501.57500000000704,
                    "velocity": 0.889763779527559,
                    "duration": 0.05000000000006821
                },
                {
                    "name": "F3",
                    "midi": 53,
                    "time": 501.5791666666737,
                    "velocity": 0.8976377952755905,
                    "duration": 0.05416666666673109
                },
                {
                    "name": "F5",
                    "midi": 77,
                    "time": 501.58125000000706,
                    "velocity": 0.8582677165354331,
                    "duration": 0.027083333333337123
                },
                {
                    "name": "F6",
                    "midi": 89,
                    "time": 501.5875000000071,
                    "velocity": 0.84251968503937,
                    "duration": 0.022916666666674246
                },
                {
                    "name": "G5",
                    "midi": 79,
                    "time": 501.5875000000071,
                    "velocity": 0.7952755905511811,
                    "duration": 0.027083333333337123
                },
                {
                    "name": "C#6",
                    "midi": 85,
                    "time": 501.8562500000071,
                    "velocity": 0.9291338582677166,
                    "duration": 0.11250000000001137
                },
                {
                    "name": "E5",
                    "midi": 76,
                    "time": 501.8645833333404,
                    "velocity": 0.9212598425196851,
                    "duration": 0.054166666666674246
                },
                {
                    "name": "G#5",
                    "midi": 80,
                    "time": 501.8666666666738,
                    "velocity": 0.905511811023622,
                    "duration": 0.15833333333330302
                },
                {
                    "name": "D6",
                    "midi": 86,
                    "time": 501.9583333333404,
                    "velocity": 0.8346456692913385,
                    "duration": 0.10624999999998863
                },
                {
                    "name": "E5",
                    "midi": 76,
                    "time": 501.97708333334043,
                    "velocity": 0.3228346456692913,
                    "duration": 0.039583333333325754
                },
                {
                    "name": "G#5",
                    "midi": 80,
                    "time": 502.1083333333404,
                    "velocity": 0.968503937007874,
                    "duration": 0.14166666666670835
                },
                {
                    "name": "E5",
                    "midi": 76,
                    "time": 502.1145833333404,
                    "velocity": 0.889763779527559,
                    "duration": 0.14791666666667425
                },
                {
                    "name": "A5",
                    "midi": 81,
                    "time": 502.2125000000071,
                    "velocity": 0.7874015748031497,
                    "duration": 0.08541666666667425
                },
                {
                    "name": "G2",
                    "midi": 43,
                    "time": 502.2625000000071,
                    "velocity": 0.7322834645669292,
                    "duration": 0.08125000000001137
                },
                {
                    "name": "F3",
                    "midi": 53,
                    "time": 502.3645833333404,
                    "velocity": 0.889763779527559,
                    "duration": 0.0645833333334167
                },
                {
                    "name": "B3",
                    "midi": 59,
                    "time": 502.37916666667377,
                    "velocity": 0.9212598425196851,
                    "duration": 0.06041666666675383
                },
                {
                    "name": "D6",
                    "midi": 86,
                    "time": 502.37916666667377,
                    "velocity": 0.9133858267716536,
                    "duration": 0.045833333333405335
                },
                {
                    "name": "F6",
                    "midi": 89,
                    "time": 502.3854166666738,
                    "velocity": 0.8503937007874016,
                    "duration": 0.02083333333337123
                },
                {
                    "name": "F5",
                    "midi": 77,
                    "time": 502.3854166666738,
                    "velocity": 0.8582677165354331,
                    "duration": 0.025000000000034106
                },
                {
                    "name": "G5",
                    "midi": 79,
                    "time": 502.4041666666738,
                    "velocity": 0.4566929133858268,
                    "duration": 0.043750000000045475
                },
                {
                    "name": "C#6",
                    "midi": 85,
                    "time": 502.6375000000072,
                    "velocity": 0.9448818897637795,
                    "duration": 0.11874999999997726
                },
                {
                    "name": "E5",
                    "midi": 76,
                    "time": 502.64166666667387,
                    "velocity": 0.9133858267716536,
                    "duration": 0.052083333333314386
                },
                {
                    "name": "G#5",
                    "midi": 80,
                    "time": 502.6500000000072,
                    "velocity": 0.7874015748031497,
                    "duration": 0.04583333333334849
                },
                {
                    "name": "G#5",
                    "midi": 80,
                    "time": 502.73541666667387,
                    "velocity": 0.6062992125984252,
                    "duration": 0.0687499999999659
                },
                {
                    "name": "D6",
                    "midi": 86,
                    "time": 502.73958333334053,
                    "velocity": 0.8740157480314961,
                    "duration": 0.08124999999995453
                },
                {
                    "name": "E5",
                    "midi": 76,
                    "time": 502.74791666667386,
                    "velocity": 0.5590551181102362,
                    "duration": 0.03333333333330302
                },
                {
                    "name": "G#5",
                    "midi": 80,
                    "time": 502.8791666666738,
                    "velocity": 0.9448818897637795,
                    "duration": 0.13541666666668561
                },
                {
                    "name": "E5",
                    "midi": 76,
                    "time": 502.88541666667385,
                    "velocity": 0.8503937007874016,
                    "duration": 0.13541666666668561
                },
                {
                    "name": "A5",
                    "midi": 81,
                    "time": 502.9729166666738,
                    "velocity": 0.8188976377952756,
                    "duration": 0.0875000000000341
                },
                {
                    "name": "C#3",
                    "midi": 49,
                    "time": 503.0458333333405,
                    "velocity": 0.6771653543307087,
                    "duration": 0.06666666666666288
                },
                {
                    "name": "B3",
                    "midi": 59,
                    "time": 503.1083333333405,
                    "velocity": 0.6614173228346457,
                    "duration": 0.07916666666670835
                },
                {
                    "name": "D6",
                    "midi": 86,
                    "time": 503.1312500000072,
                    "velocity": 0.9212598425196851,
                    "duration": 0.04583333333334849
                },
                {
                    "name": "F5",
                    "midi": 77,
                    "time": 503.13541666667385,
                    "velocity": 0.9448818897637795,
                    "duration": 0.03333333333335986
                },
                {
                    "name": "F6",
                    "midi": 89,
                    "time": 503.1375000000072,
                    "velocity": 0.8582677165354331,
                    "duration": 0.022916666666674246
                },
                {
                    "name": "G5",
                    "midi": 79,
                    "time": 503.1500000000072,
                    "velocity": 0.6771653543307087,
                    "duration": 0.03541666666666288
                },
                {
                    "name": "C#6",
                    "midi": 85,
                    "time": 503.1583333333405,
                    "velocity": 0.4251968503937008,
                    "duration": 0.03541666666671972
                },
                {
                    "name": "F4",
                    "midi": 65,
                    "time": 503.1583333333405,
                    "velocity": 0.84251968503937,
                    "duration": 0.04791666666670835
                },
                {
                    "name": "C#6",
                    "midi": 85,
                    "time": 503.3979166666739,
                    "velocity": 0.968503937007874,
                    "duration": 0.11250000000001137
                },
                {
                    "name": "E5",
                    "midi": 76,
                    "time": 503.40208333334056,
                    "velocity": 0.9133858267716536,
                    "duration": 0.05000000000001137
                },
                {
                    "name": "G#5",
                    "midi": 80,
                    "time": 503.4062500000072,
                    "velocity": 0.8661417322834646,
                    "duration": 0.054166666666674246
                },
                {
                    "name": "D6",
                    "midi": 86,
                    "time": 503.4979166666739,
                    "velocity": 0.889763779527559,
                    "duration": 0.10624999999998863
                },
                {
                    "name": "G#5",
                    "midi": 80,
                    "time": 503.5020833333406,
                    "velocity": 0.7165354330708661,
                    "duration": 0.06666666666666288
                },
                {
                    "name": "E5",
                    "midi": 76,
                    "time": 503.51458333334057,
                    "velocity": 0.48031496062992124,
                    "duration": 0.039583333333325754
                },
                {
                    "name": "G#5",
                    "midi": 80,
                    "time": 503.63750000000726,
                    "velocity": 0.7637795275590551,
                    "duration": 0.1437500000000682
                },
                {
                    "name": "E5",
                    "midi": 76,
                    "time": 503.6395833333406,
                    "velocity": 0.84251968503937,
                    "duration": 0.14166666666670835
                },
                {
                    "name": "A5",
                    "midi": 81,
                    "time": 503.73958333334065,
                    "velocity": 0.8503937007874016,
                    "duration": 0.08125000000001137
                },
                {
                    "name": "E4",
                    "midi": 64,
                    "time": 503.89375000000734,
                    "velocity": 0.9763779527559056,
                    "duration": 0.18958333333347355
                },
                {
                    "name": "G3",
                    "midi": 55,
                    "time": 503.8958333333407,
                    "velocity": 0.8976377952755905,
                    "duration": 0.5875000000003183
                },
                {
                    "name": "D6",
                    "midi": 86,
                    "time": 503.8958333333407,
                    "velocity": 0.9212598425196851,
                    "duration": 0.22708333333343944
                },
                {
                    "name": "F6",
                    "midi": 89,
                    "time": 503.9000000000074,
                    "velocity": 0.9133858267716536,
                    "duration": 0.23333333333340533
                },
                {
                    "name": "F4",
                    "midi": 65,
                    "time": 504.0458333333408,
                    "velocity": 0.7086614173228346,
                    "duration": 0.10625000000004547
                },
                {
                    "name": "G#5",
                    "midi": 80,
                    "time": 504.0645833333408,
                    "velocity": 0.8503937007874016,
                    "duration": 0.05833333333333712
                },
                {
                    "name": "E4",
                    "midi": 64,
                    "time": 504.15833333334086,
                    "velocity": 0.7007874015748031,
                    "duration": 0.11041666666665151
                },
                {
                    "name": "A5",
                    "midi": 81,
                    "time": 504.17083333334085,
                    "velocity": 0.84251968503937,
                    "duration": 0.14166666666670835
                },
                {
                    "name": "F4",
                    "midi": 65,
                    "time": 504.22708333334083,
                    "velocity": 0.6456692913385826,
                    "duration": 0.13333333333343944
                },
                {
                    "name": "F6",
                    "midi": 89,
                    "time": 504.28333333334086,
                    "velocity": 0.84251968503937,
                    "duration": 0.24166666666690162
                },
                {
                    "name": "D6",
                    "midi": 86,
                    "time": 504.2854166666742,
                    "velocity": 0.8110236220472441,
                    "duration": 0.22083333333347355
                },
                {
                    "name": "E4",
                    "midi": 64,
                    "time": 504.32291666667425,
                    "velocity": 0.6535433070866141,
                    "duration": 0.10833333333340533
                },
                {
                    "name": "G#5",
                    "midi": 80,
                    "time": 504.4104166666743,
                    "velocity": 0.8661417322834646,
                    "duration": 0.11250000000012506
                },
                {
                    "name": "F4",
                    "midi": 65,
                    "time": 504.42083333334097,
                    "velocity": 0.6614173228346457,
                    "duration": 0.11666666666678793
                },
                {
                    "name": "E4",
                    "midi": 64,
                    "time": 504.4687500000077,
                    "velocity": 0.7007874015748031,
                    "duration": 0.0645833333334167
                },
                {
                    "name": "A5",
                    "midi": 81,
                    "time": 504.5166666666744,
                    "velocity": 0.8031496062992126,
                    "duration": 0.1270833333334167
                },
                {
                    "name": "G4",
                    "midi": 67,
                    "time": 504.6333333333411,
                    "velocity": 0.8818897637795275,
                    "duration": 0.2937500000000455
                },
                {
                    "name": "F6",
                    "midi": 89,
                    "time": 504.6375000000078,
                    "velocity": 0.8582677165354331,
                    "duration": 0.2583333333333826
                },
                {
                    "name": "D6",
                    "midi": 86,
                    "time": 504.64166666667444,
                    "velocity": 0.84251968503937,
                    "duration": 0.2270833333333826
                },
                {
                    "name": "E5",
                    "midi": 76,
                    "time": 504.64583333334116,
                    "velocity": 0.7716535433070866,
                    "duration": 0.09583333333335986
                },
                {
                    "name": "F5",
                    "midi": 77,
                    "time": 504.7729166666745,
                    "velocity": 0.5590551181102362,
                    "duration": 0.09166666666664014
                },
                {
                    "name": "G#5",
                    "midi": 80,
                    "time": 504.80208333334116,
                    "velocity": 0.8661417322834646,
                    "duration": 0.08541666666667425
                },
                {
                    "name": "E5",
                    "midi": 76,
                    "time": 504.85625000000783,
                    "velocity": 0.03937007874015748,
                    "duration": 0.2666666666666515
                },
                {
                    "name": "A5",
                    "midi": 81,
                    "time": 504.9166666666745,
                    "velocity": 0.8346456692913385,
                    "duration": 0.14583333333337123
                },
                {
                    "name": "F5",
                    "midi": 77,
                    "time": 504.9333333333412,
                    "velocity": 0.6614173228346457,
                    "duration": 0.09791666666666288
                },
                {
                    "name": "F6",
                    "midi": 89,
                    "time": 505.0250000000078,
                    "velocity": 0.84251968503937,
                    "duration": 0.2437500000000341
                },
                {
                    "name": "D6",
                    "midi": 86,
                    "time": 505.0270833333412,
                    "velocity": 0.8503937007874016,
                    "duration": 0.2104166666666174
                },
                {
                    "name": "F5",
                    "midi": 77,
                    "time": 505.09375000000784,
                    "velocity": 0.6299212598425197,
                    "duration": 0.11874999999997726
                },
                {
                    "name": "G#5",
                    "midi": 80,
                    "time": 505.1666666666745,
                    "velocity": 0.8188976377952756,
                    "duration": 0.08125000000001137
                },
                {
                    "name": "E5",
                    "midi": 76,
                    "time": 505.1750000000078,
                    "velocity": 0.7244094488188977,
                    "duration": 0.18750000000005684
                },
                {
                    "name": "A5",
                    "midi": 81,
                    "time": 505.23333333334114,
                    "velocity": 0.7637795275590551,
                    "duration": 0.0875000000000341
                },
                {
                    "name": "F5",
                    "midi": 77,
                    "time": 505.2666666666745,
                    "velocity": 0.6299212598425197,
                    "duration": 0.11041666666670835
                },
                {
                    "name": "G4",
                    "midi": 67,
                    "time": 505.44791666667453,
                    "velocity": 0.6220472440944882,
                    "duration": 0.07708333333329165
                },
                {
                    "name": "E5",
                    "midi": 76,
                    "time": 505.45625000000786,
                    "velocity": 0.7559055118110236,
                    "duration": 0.09166666666664014
                },
                {
                    "name": "E7",
                    "midi": 100,
                    "time": 505.46875000000784,
                    "velocity": 0.9448818897637795,
                    "duration": 0.12708333333330302
                },
                {
                    "name": "F5",
                    "midi": 77,
                    "time": 505.53125000000784,
                    "velocity": 0.7795275590551181,
                    "duration": 0.05833333333328028
                },
                {
                    "name": "F7",
                    "midi": 101,
                    "time": 505.5729166666745,
                    "velocity": 0.8031496062992126,
                    "duration": 0.13541666666668561
                },
                {
                    "name": "E7",
                    "midi": 100,
                    "time": 505.65833333334115,
                    "velocity": 0.8346456692913385,
                    "duration": 0.07083333333332575
                },
                {
                    "name": "E6",
                    "midi": 88,
                    "time": 505.75416666667445,
                    "velocity": 0.84251968503937,
                    "duration": 0.09375
                },
                {
                    "name": "F6",
                    "midi": 89,
                    "time": 505.8458333333411,
                    "velocity": 0.6456692913385826,
                    "duration": 0.06666666666671972
                },
                {
                    "name": "E6",
                    "midi": 88,
                    "time": 505.9166666666745,
                    "velocity": 0.8188976377952756,
                    "duration": 0.054166666666674246
                },
                {
                    "name": "E5",
                    "midi": 76,
                    "time": 506.0354166666745,
                    "velocity": 0.8818897637795275,
                    "duration": 0.08541666666667425
                },
                {
                    "name": "F5",
                    "midi": 77,
                    "time": 506.11458333334116,
                    "velocity": 0.6377952755905512,
                    "duration": 0.11041666666670835
                },
                {
                    "name": "E5",
                    "midi": 76,
                    "time": 506.19791666667453,
                    "velocity": 0.6614173228346457,
                    "duration": 0.10833333333334849
                },
                {
                    "name": "E4",
                    "midi": 64,
                    "time": 506.32291666667453,
                    "velocity": 0.7086614173228346,
                    "duration": 0.09166666666664014
                },
                {
                    "name": "F4",
                    "midi": 65,
                    "time": 506.41458333334117,
                    "velocity": 0.6456692913385826,
                    "duration": 0.08541666666667425
                },
                {
                    "name": "E4",
                    "midi": 64,
                    "time": 506.50625000000787,
                    "velocity": 0.6692913385826772,
                    "duration": 0.05000000000001137
                },
                {
                    "name": "E3",
                    "midi": 52,
                    "time": 506.63125000000787,
                    "velocity": 0.7874015748031497,
                    "duration": 0.10000000000002274
                },
                {
                    "name": "F3",
                    "midi": 53,
                    "time": 506.72500000000787,
                    "velocity": 0.5826771653543307,
                    "duration": 0.06458333333335986
                },
                {
                    "name": "E3",
                    "midi": 52,
                    "time": 506.7937500000079,
                    "velocity": 0.6456692913385826,
                    "duration": 0.10208333333332575
                },
                {
                    "name": "E2",
                    "midi": 40,
                    "time": 507.0083333333412,
                    "velocity": 0.5354330708661418,
                    "duration": 0.125
                },
                {
                    "name": "F2",
                    "midi": 41,
                    "time": 507.1250000000079,
                    "velocity": 0.47244094488188976,
                    "duration": 0.16041666666666288
                },
                {
                    "name": "E2",
                    "midi": 40,
                    "time": 507.25416666667456,
                    "velocity": 0.3543307086614173,
                    "duration": 0.31875000000002274
                },
                {
                    "name": "E1",
                    "midi": 28,
                    "time": 507.40208333334124,
                    "velocity": 0.5905511811023622,
                    "duration": 0.2875000000000796
                },
                {
                    "name": "G#1",
                    "midi": 32,
                    "time": 507.59375000000796,
                    "velocity": 0.4566929133858268,
                    "duration": 0.19375000000002274
                },
                {
                    "name": "F1",
                    "midi": 29,
                    "time": 507.80000000000797,
                    "velocity": 0.41732283464566927,
                    "duration": 0.3020833333333144
                },
                {
                    "name": "G#1",
                    "midi": 32,
                    "time": 507.9541666666746,
                    "velocity": 0.4015748031496063,
                    "duration": 0.310416666666697
                },
                {
                    "name": "F1",
                    "midi": 29,
                    "time": 508.26250000000795,
                    "velocity": 0.5354330708661418,
                    "duration": 0.2333333333333485
                },
                {
                    "name": "E1",
                    "midi": 28,
                    "time": 508.5333333333413,
                    "velocity": 0.4094488188976378,
                    "duration": 0.38749999999998863
                },
                {
                    "name": "G#2",
                    "midi": 44,
                    "time": 508.56250000000796,
                    "velocity": 0.6141732283464567,
                    "duration": 0.49166666666667425
                },
                {
                    "name": "F2",
                    "midi": 41,
                    "time": 508.58125000000797,
                    "velocity": 0.44881889763779526,
                    "duration": 0.3479166666666629
                },
                {
                    "name": "G#1",
                    "midi": 32,
                    "time": 508.7854166666746,
                    "velocity": 0.3228346456692913,
                    "duration": 0.25
                },
                {
                    "name": "D3",
                    "midi": 50,
                    "time": 509.0666666666746,
                    "velocity": 0.5433070866141733,
                    "duration": 0.22916666666668561
                },
                {
                    "name": "C3",
                    "midi": 48,
                    "time": 509.0770833333413,
                    "velocity": 0.5354330708661418,
                    "duration": 0.47708333333332575
                },
                {
                    "name": "F1",
                    "midi": 29,
                    "time": 509.1020833333413,
                    "velocity": 0.2047244094488189,
                    "duration": 0.4958333333333371
                },
                {
                    "name": "G#1",
                    "midi": 32,
                    "time": 509.24166666667463,
                    "velocity": 0.4645669291338583,
                    "duration": 0.18541666666669698
                },
                {
                    "name": "F2",
                    "midi": 41,
                    "time": 509.443750000008,
                    "velocity": 0.49606299212598426,
                    "duration": 0.07499999999998863
                },
                {
                    "name": "G#1",
                    "midi": 32,
                    "time": 509.5395833333413,
                    "velocity": 0.5354330708661418,
                    "duration": 0.15625
                },
                {
                    "name": "G#2",
                    "midi": 44,
                    "time": 509.5791666666746,
                    "velocity": 0.7480314960629921,
                    "duration": 0.11666666666667425
                },
                {
                    "name": "F2",
                    "midi": 41,
                    "time": 509.59375000000796,
                    "velocity": 0.5590551181102362,
                    "duration": 0.052083333333314386
                },
                {
                    "name": "E1",
                    "midi": 28,
                    "time": 509.7333333333413,
                    "velocity": 0.5118110236220472,
                    "duration": 0.24791666666669698
                },
                {
                    "name": "D3",
                    "midi": 50,
                    "time": 509.74166666667463,
                    "velocity": 0.7086614173228346,
                    "duration": 0.2604166666666856
                },
                {
                    "name": "C3",
                    "midi": 48,
                    "time": 509.7583333333413,
                    "velocity": 0.6929133858267716,
                    "duration": 0.23958333333337123
                },
                {
                    "name": "G#1",
                    "midi": 32,
                    "time": 509.9291666666747,
                    "velocity": 0.5039370078740157,
                    "duration": 0.13749999999998863
                },
                {
                    "name": "F1",
                    "midi": 29,
                    "time": 510.07916666667467,
                    "velocity": 0.7637795275590551,
                    "duration": 0.529166666666697
                },
                {
                    "name": "G#1",
                    "midi": 32,
                    "time": 510.175000000008,
                    "velocity": 0.7952755905511811,
                    "duration": 0.18333333333333712
                },
                {
                    "name": "G#3",
                    "midi": 56,
                    "time": 510.35208333334134,
                    "velocity": 0.8188976377952756,
                    "duration": 0.07291666666668561
                },
                {
                    "name": "F3",
                    "midi": 53,
                    "time": 510.3604166666747,
                    "velocity": 0.6141732283464567,
                    "duration": 0.037499999999965894
                },
                {
                    "name": "F2",
                    "midi": 41,
                    "time": 510.36875000000805,
                    "velocity": 0.5590551181102362,
                    "duration": 0.10624999999998863
                },
                {
                    "name": "G#1",
                    "midi": 32,
                    "time": 510.5020833333414,
                    "velocity": 0.5748031496062992,
                    "duration": 0.2895833333333826
                },
                {
                    "name": "E1",
                    "midi": 28,
                    "time": 510.7895833333414,
                    "velocity": 0.5748031496062992,
                    "duration": 0.26875000000012506
                },
                {
                    "name": "G#5",
                    "midi": 80,
                    "time": 510.8166666666748,
                    "velocity": 0.6299212598425197,
                    "duration": 0.19791666666674246
                },
                {
                    "name": "D5",
                    "midi": 74,
                    "time": 510.84375000000813,
                    "velocity": 0.4645669291338583,
                    "duration": 0.18125000000009095
                },
                {
                    "name": "C5",
                    "midi": 72,
                    "time": 510.85000000000815,
                    "velocity": 0.36220472440944884,
                    "duration": 0.15833333333335986
                },
                {
                    "name": "G#1",
                    "midi": 32,
                    "time": 511.0166666666749,
                    "velocity": 0.5433070866141733,
                    "duration": 0.14999999999997726
                },
                {
                    "name": "G#4",
                    "midi": 68,
                    "time": 511.0500000000082,
                    "velocity": 0.6062992125984252,
                    "duration": 0.07499999999998863
                },
                {
                    "name": "D5",
                    "midi": 74,
                    "time": 511.1437500000082,
                    "velocity": 0.5590551181102362,
                    "duration": 0.09791666666666288
                },
                {
                    "name": "G#5",
                    "midi": 80,
                    "time": 511.1541666666749,
                    "velocity": 0.5196850393700787,
                    "duration": 0.04374999999998863
                },
                {
                    "name": "F1",
                    "midi": 29,
                    "time": 511.17916666667486,
                    "velocity": 0.49606299212598426,
                    "duration": 0.40416666666664014
                },
                {
                    "name": "C5",
                    "midi": 72,
                    "time": 511.1958333333415,
                    "velocity": 0.30708661417322836,
                    "duration": 0.19999999999998863
                },
                {
                    "name": "G#4",
                    "midi": 68,
                    "time": 511.2250000000082,
                    "velocity": 0.5669291338582677,
                    "duration": 0.0541666666666174
                },
                {
                    "name": "G#1",
                    "midi": 32,
                    "time": 511.2625000000082,
                    "velocity": 0.3779527559055118,
                    "duration": 0.15208333333333712
                },
                {
                    "name": "G#5",
                    "midi": 80,
                    "time": 511.2833333333415,
                    "velocity": 0.6929133858267716,
                    "duration": 0.08333333333331439
                },
                {
                    "name": "D5",
                    "midi": 74,
                    "time": 511.30833333334147,
                    "velocity": 0.6377952755905512,
                    "duration": 0.07708333333334849
                },
                {
                    "name": "G#4",
                    "midi": 68,
                    "time": 511.36458333334144,
                    "velocity": 0.5669291338582677,
                    "duration": 0.05416666666673109
                },
                {
                    "name": "F2",
                    "midi": 41,
                    "time": 511.4395833333415,
                    "velocity": 0.48031496062992124,
                    "duration": 0.12916666666666288
                },
                {
                    "name": "G#1",
                    "midi": 32,
                    "time": 511.5437500000082,
                    "velocity": 0.5275590551181102,
                    "duration": 0.3187500000000796
                },
                {
                    "name": "D4",
                    "midi": 62,
                    "time": 511.6020833333415,
                    "velocity": 0.5118110236220472,
                    "duration": 0.06458333333335986
                },
                {
                    "name": "G#3",
                    "midi": 56,
                    "time": 511.7125000000082,
                    "velocity": 0.49606299212598426,
                    "duration": 0.05833333333333712
                },
                {
                    "name": "F1",
                    "midi": 29,
                    "time": 511.7750000000082,
                    "velocity": 0.4015748031496063,
                    "duration": 0.16041666666671972
                },
                {
                    "name": "D4",
                    "midi": 62,
                    "time": 511.78958333334157,
                    "velocity": 0.4566929133858268,
                    "duration": 0.08541666666667425
                },
                {
                    "name": "C4",
                    "midi": 60,
                    "time": 511.8604166666749,
                    "velocity": 0.2204724409448819,
                    "duration": 0.06875000000002274
                },
                {
                    "name": "G#3",
                    "midi": 56,
                    "time": 511.8666666666749,
                    "velocity": 0.4330708661417323,
                    "duration": 0.06875000000002274
                },
                {
                    "name": "E1",
                    "midi": 28,
                    "time": 511.9291666666749,
                    "velocity": 0.36220472440944884,
                    "duration": 0.21875000000005684
                },
                {
                    "name": "G#4",
                    "midi": 68,
                    "time": 511.9583333333416,
                    "velocity": 0.5354330708661418,
                    "duration": 0.08958333333333712
                },
                {
                    "name": "D4",
                    "midi": 62,
                    "time": 512.0145833333416,
                    "velocity": 0.2440944881889764,
                    "duration": 0.054166666666674246
                },
                {
                    "name": "C4",
                    "midi": 60,
                    "time": 512.0250000000083,
                    "velocity": 0.3543307086614173,
                    "duration": 0.05000000000006821
                },
                {
                    "name": "G#3",
                    "midi": 56,
                    "time": 512.0520833333417,
                    "velocity": 0.5984251968503937,
                    "duration": 0.07708333333334849
                },
                {
                    "name": "G#1",
                    "midi": 32,
                    "time": 512.1562500000083,
                    "velocity": 0.4330708661417323,
                    "duration": 0.10624999999993179
                },
                {
                    "name": "F1",
                    "midi": 29,
                    "time": 512.2291666666749,
                    "velocity": 0.5118110236220472,
                    "duration": 0.36458333333325754
                },
                {
                    "name": "G#3",
                    "midi": 56,
                    "time": 512.2916666666749,
                    "velocity": 0.6692913385826772,
                    "duration": 0.1395833333332348
                },
                {
                    "name": "G#1",
                    "midi": 32,
                    "time": 512.3333333333416,
                    "velocity": 0.3858267716535433,
                    "duration": 0.12916666666660603
                },
                {
                    "name": "C3",
                    "midi": 48,
                    "time": 512.4229166666748,
                    "velocity": 0.16535433070866143,
                    "duration": 0.11458333333337123
                },
                {
                    "name": "F2",
                    "midi": 41,
                    "time": 512.4916666666749,
                    "velocity": 0.36220472440944884,
                    "duration": 0.09375
                },
                {
                    "name": "G#3",
                    "midi": 56,
                    "time": 512.5291666666749,
                    "velocity": 0.33858267716535434,
                    "duration": 0.10416666666662877
                },
                {
                    "name": "D3",
                    "midi": 50,
                    "time": 512.5312500000082,
                    "velocity": 0.1968503937007874,
                    "duration": 0.2979166666666515
                },
                {
                    "name": "G#1",
                    "midi": 32,
                    "time": 512.6041666666748,
                    "velocity": 0.3700787401574803,
                    "duration": 0.35208333333332575
                },
                {
                    "name": "C3",
                    "midi": 48,
                    "time": 512.6250000000082,
                    "velocity": 0.1732283464566929,
                    "duration": 0.27083333333337123
                },
                {
                    "name": "G#3",
                    "midi": 56,
                    "time": 512.7125000000082,
                    "velocity": 0.2440944881889764,
                    "duration": 0.09583333333330302
                },
                {
                    "name": "F1",
                    "midi": 29,
                    "time": 512.7854166666748,
                    "velocity": 0.2047244094488189,
                    "duration": 0.1708333333333485
                },
                {
                    "name": "E1",
                    "midi": 28,
                    "time": 512.9229166666748,
                    "velocity": 0.5354330708661418,
                    "duration": 0.28958333333332575
                },
                {
                    "name": "G#1",
                    "midi": 32,
                    "time": 513.1125000000081,
                    "velocity": 0.3779527559055118,
                    "duration": 0.1708333333333485
                },
                {
                    "name": "D3",
                    "midi": 50,
                    "time": 513.2812500000082,
                    "velocity": 0.5748031496062992,
                    "duration": 0.10833333333334849
                },
                {
                    "name": "F1",
                    "midi": 29,
                    "time": 513.2979166666748,
                    "velocity": 0.4251968503937008,
                    "duration": 0.4874999999999545
                },
                {
                    "name": "C3",
                    "midi": 48,
                    "time": 513.3062500000082,
                    "velocity": 0.5354330708661418,
                    "duration": 0.09375
                },
                {
                    "name": "G#1",
                    "midi": 32,
                    "time": 513.3979166666749,
                    "velocity": 0.3858267716535433,
                    "duration": 0.17499999999995453
                },
                {
                    "name": "E2",
                    "midi": 40,
                    "time": 513.6354166666748,
                    "velocity": 0.7716535433070866,
                    "duration": 0.10208333333332575
                },
                {
                    "name": "F2",
                    "midi": 41,
                    "time": 513.6375000000081,
                    "velocity": 0.6062992125984252,
                    "duration": 0.10625000000004547
                },
                {
                    "name": "G#1",
                    "midi": 32,
                    "time": 513.7375000000081,
                    "velocity": 0.6377952755905512,
                    "duration": 0.2020833333333485
                },
                {
                    "name": "E1",
                    "midi": 28,
                    "time": 513.9354166666748,
                    "velocity": 0.7559055118110236,
                    "duration": 0.2041666666667652
                },
                {
                    "name": "G#2",
                    "midi": 44,
                    "time": 513.9520833333415,
                    "velocity": 0.7952755905511811,
                    "duration": 0.25833333333343944
                },
                {
                    "name": "F2",
                    "midi": 41,
                    "time": 513.9541666666748,
                    "velocity": 0.7007874015748031,
                    "duration": 0.1895833333334167
                },
                {
                    "name": "G#1",
                    "midi": 32,
                    "time": 514.1000000000082,
                    "velocity": 0.6299212598425197,
                    "duration": 0.13125000000002274
                },
                {
                    "name": "F1",
                    "midi": 29,
                    "time": 514.2208333333416,
                    "velocity": 0.7874015748031497,
                    "duration": 0.5520833333333712
                },
                {
                    "name": "G#1",
                    "midi": 32,
                    "time": 514.3416666666749,
                    "velocity": 0.7874015748031497,
                    "duration": 0.19375000000002274
                },
                {
                    "name": "C#3",
                    "midi": 49,
                    "time": 514.547916666675,
                    "velocity": 0.7874015748031497,
                    "duration": 0.11249999999995453
                },
                {
                    "name": "F2",
                    "midi": 41,
                    "time": 514.5500000000083,
                    "velocity": 0.5826771653543307,
                    "duration": 0.11458333333337123
                },
                {
                    "name": "B2",
                    "midi": 47,
                    "time": 514.5520833333416,
                    "velocity": 0.7401574803149606,
                    "duration": 0.07291666666662877
                },
                {
                    "name": "G#1",
                    "midi": 32,
                    "time": 514.6875000000083,
                    "velocity": 0.6614173228346457,
                    "duration": 0.16041666666671972
                },
                {
                    "name": "E1",
                    "midi": 28,
                    "time": 514.8708333333417,
                    "velocity": 0.6456692913385826,
                    "duration": 0.21041666666667425
                },
                {
                    "name": "G#1",
                    "midi": 32,
                    "time": 515.035416666675,
                    "velocity": 0.3858267716535433,
                    "duration": 0.1708333333333485
                },
                {
                    "name": "C#3",
                    "midi": 49,
                    "time": 515.1708333333416,
                    "velocity": 0.7007874015748031,
                    "duration": 0.07500000000027285
                },
                {
                    "name": "B2",
                    "midi": 47,
                    "time": 515.185416666675,
                    "velocity": 0.5039370078740157,
                    "duration": 0.04375000000015916
                },
                {
                    "name": "F1",
                    "midi": 29,
                    "time": 515.2187500000084,
                    "velocity": 0.5039370078740157,
                    "duration": 0.6104166666667652
                },
                {
                    "name": "G#1",
                    "midi": 32,
                    "time": 515.3104166666752,
                    "velocity": 0.33858267716535434,
                    "duration": 0.28750000000002274
                },
                {
                    "name": "F3",
                    "midi": 53,
                    "time": 515.6104166666752,
                    "velocity": 0.7952755905511811,
                    "duration": 0.0625
                },
                {
                    "name": "F4",
                    "midi": 65,
                    "time": 515.6125000000085,
                    "velocity": 0.8346456692913385,
                    "duration": 0.08958333333339397
                },
                {
                    "name": "F2",
                    "midi": 41,
                    "time": 515.6291666666751,
                    "velocity": 0.49606299212598426,
                    "duration": 0.1437500000000682
                },
                {
                    "name": "G#1",
                    "midi": 32,
                    "time": 515.7833333333418,
                    "velocity": 0.5511811023622047,
                    "duration": 0.24166666666678793
                },
                {
                    "name": "E1",
                    "midi": 28,
                    "time": 516.0208333333419,
                    "velocity": 0.5118110236220472,
                    "duration": 0.2375000000000682
                },
                {
                    "name": "G#1",
                    "midi": 32,
                    "time": 516.2354166666753,
                    "velocity": 0.33858267716535434,
                    "duration": 0.23958333333348492
                },
                {
                    "name": "D#4",
                    "midi": 63,
                    "time": 516.3062500000086,
                    "velocity": 0.5984251968503937,
                    "duration": 0.1250000000001137
                },
                {
                    "name": "G#4",
                    "midi": 68,
                    "time": 516.3500000000087,
                    "velocity": 0.5196850393700787,
                    "duration": 0.16458333333355313
                },
                {
                    "name": "B4",
                    "midi": 71,
                    "time": 516.402083333342,
                    "velocity": 0.4881889763779528,
                    "duration": 0.14583333333348492
                },
                {
                    "name": "D#5",
                    "midi": 75,
                    "time": 516.4791666666755,
                    "velocity": 0.7952755905511811,
                    "duration": 0.08958333333339397
                },
                {
                    "name": "F1",
                    "midi": 29,
                    "time": 516.4937500000088,
                    "velocity": 0.4251968503937008,
                    "duration": 0.7270833333332121
                },
                {
                    "name": "G#1",
                    "midi": 32,
                    "time": 516.6458333333422,
                    "velocity": 0.48031496062992124,
                    "duration": 0.15416666666669698
                },
                {
                    "name": "F2",
                    "midi": 41,
                    "time": 516.8583333333422,
                    "velocity": 0.30708661417322836,
                    "duration": 0.09375
                },
                {
                    "name": "G#1",
                    "midi": 32,
                    "time": 516.9291666666755,
                    "velocity": 0.5354330708661418,
                    "duration": 0.25416666666660603
                },
                {
                    "name": "D#4",
                    "midi": 63,
                    "time": 517.0395833333422,
                    "velocity": 0.6062992125984252,
                    "duration": 0.0916666666665833
                },
                {
                    "name": "G4",
                    "midi": 67,
                    "time": 517.0500000000088,
                    "velocity": 0.6377952755905512,
                    "duration": 0.19374999999990905
                },
                {
                    "name": "E1",
                    "midi": 28,
                    "time": 517.2104166666754,
                    "velocity": 0.4881889763779528,
                    "duration": 0.2687499999999545
                },
                {
                    "name": "C#5",
                    "midi": 73,
                    "time": 517.2187500000088,
                    "velocity": 0.6850393700787402,
                    "duration": 0.3312499999999545
                },
                {
                    "name": "A#4",
                    "midi": 70,
                    "time": 517.2187500000088,
                    "velocity": 0.6614173228346457,
                    "duration": 0.3562499999999318
                },
                {
                    "name": "G#1",
                    "midi": 32,
                    "time": 517.4104166666754,
                    "velocity": 0.4566929133858268,
                    "duration": 0.14583333333337123
                },
                {
                    "name": "F1",
                    "midi": 29,
                    "time": 517.5812500000087,
                    "velocity": 0.6141732283464567,
                    "duration": 0.43333333333339397
                },
                {
                    "name": "G#1",
                    "midi": 32,
                    "time": 517.6729166666754,
                    "velocity": 0.7165354330708661,
                    "duration": 0.17499999999995453
                },
                {
                    "name": "B4",
                    "midi": 71,
                    "time": 517.8625000000087,
                    "velocity": 0.7322834645669292,
                    "duration": 0.09375
                },
                {
                    "name": "F2",
                    "midi": 41,
                    "time": 517.864583333342,
                    "velocity": 0.47244094488188976,
                    "duration": 0.12083333333339397
                },
                {
                    "name": "G#4",
                    "midi": 68,
                    "time": 517.8687500000087,
                    "velocity": 0.7086614173228346,
                    "duration": 0.06458333333330302
                },
                {
                    "name": "G#1",
                    "midi": 32,
                    "time": 517.9895833333421,
                    "velocity": 0.5511811023622047,
                    "duration": 0.18958333333330302
                },
                {
                    "name": "E1",
                    "midi": 28,
                    "time": 518.1666666666754,
                    "velocity": 0.8188976377952756,
                    "duration": 0.2041666666667652
                },
                {
                    "name": "G#1",
                    "midi": 32,
                    "time": 518.3104166666755,
                    "velocity": 0.5590551181102362,
                    "duration": 0.1854166666665833
                },
                {
                    "name": "B3",
                    "midi": 59,
                    "time": 518.3770833333422,
                    "velocity": 0.5590551181102362,
                    "duration": 0.1229166666665833
                },
                {
                    "name": "D#4",
                    "midi": 63,
                    "time": 518.4041666666755,
                    "velocity": 0.6299212598425197,
                    "duration": 0.16666666666662877
                },
                {
                    "name": "G4",
                    "midi": 67,
                    "time": 518.4770833333421,
                    "velocity": 0.6377952755905512,
                    "duration": 0.15625
                },
                {
                    "name": "F1",
                    "midi": 29,
                    "time": 518.5187500000087,
                    "velocity": 0.5590551181102362,
                    "duration": 0.6770833333332575
                },
                {
                    "name": "A#4",
                    "midi": 70,
                    "time": 518.5250000000087,
                    "velocity": 0.7637795275590551,
                    "duration": 0.125
                },
                {
                    "name": "G#1",
                    "midi": 32,
                    "time": 518.6416666666754,
                    "velocity": 0.47244094488188976,
                    "duration": 0.13333333333332575
                },
                {
                    "name": "F2",
                    "midi": 41,
                    "time": 518.808333333342,
                    "velocity": 0.4330708661417323,
                    "duration": 0.11249999999995453
                },
                {
                    "name": "G#1",
                    "midi": 32,
                    "time": 518.9187500000087,
                    "velocity": 0.5511811023622047,
                    "duration": 0.35208333333321207
                },
                {
                    "name": "A#3",
                    "midi": 58,
                    "time": 519.033333333342,
                    "velocity": 0.6771653543307087,
                    "duration": 0.1729166666666515
                },
                {
                    "name": "D4",
                    "midi": 62,
                    "time": 519.033333333342,
                    "velocity": 0.6850393700787402,
                    "duration": 0.2958333333332348
                },
                {
                    "name": "E1",
                    "midi": 28,
                    "time": 519.2395833333419,
                    "velocity": 0.5354330708661418,
                    "duration": 0.28958333333332575
                },
                {
                    "name": "A#4",
                    "midi": 70,
                    "time": 519.2458333333419,
                    "velocity": 0.6850393700787402,
                    "duration": 0.3562499999999318
                },
                {
                    "name": "G4",
                    "midi": 67,
                    "time": 519.252083333342,
                    "velocity": 0.5196850393700787,
                    "duration": 0.5895833333332803
                },
                {
                    "name": "F1",
                    "midi": 29,
                    "time": 519.5250000000085,
                    "velocity": 0.5590551181102362,
                    "duration": 0.4250000000000682
                },
                {
                    "name": "G#1",
                    "midi": 32,
                    "time": 519.6458333333419,
                    "velocity": 0.6220472440944882,
                    "duration": 0.14999999999997726
                },
                {
                    "name": "F2",
                    "midi": 41,
                    "time": 519.8104166666752,
                    "velocity": 0.5511811023622047,
                    "duration": 0.13541666666662877
                },
                {
                    "name": "G#4",
                    "midi": 68,
                    "time": 519.8875000000086,
                    "velocity": 0.7244094488188977,
                    "duration": 0.10624999999993179
                },
                {
                    "name": "D#4",
                    "midi": 63,
                    "time": 519.9041666666752,
                    "velocity": 0.6771653543307087,
                    "duration": 0.0625
                },
                {
                    "name": "G#1",
                    "midi": 32,
                    "time": 519.9750000000085,
                    "velocity": 0.5196850393700787,
                    "duration": 0.19583333333321207
                },
                {
                    "name": "E1",
                    "midi": 28,
                    "time": 520.1687500000085,
                    "velocity": 0.7637795275590551,
                    "duration": 0.2041666666666515
                },
                {
                    "name": "G#1",
                    "midi": 32,
                    "time": 520.2958333333418,
                    "velocity": 0.5669291338582677,
                    "duration": 0.18333333333339397
                },
                {
                    "name": "D#3",
                    "midi": 51,
                    "time": 520.4166666666752,
                    "velocity": 0.6377952755905512,
                    "duration": 0.12083333333328028
                },
                {
                    "name": "G#3",
                    "midi": 56,
                    "time": 520.4562500000085,
                    "velocity": 0.6299212598425197,
                    "duration": 0.14374999999995453
                },
                {
                    "name": "F1",
                    "midi": 29,
                    "time": 520.4791666666752,
                    "velocity": 0.5748031496062992,
                    "duration": 0.5395833333334394
                },
                {
                    "name": "B3",
                    "midi": 59,
                    "time": 520.4875000000085,
                    "velocity": 0.7086614173228346,
                    "duration": 0.16041666666660603
                },
                {
                    "name": "D#4",
                    "midi": 63,
                    "time": 520.5208333333418,
                    "velocity": 0.8346456692913385,
                    "duration": 0.15625
                },
                {
                    "name": "G#1",
                    "midi": 32,
                    "time": 520.6145833333418,
                    "velocity": 0.5118110236220472,
                    "duration": 0.16041666666671972
                },
                {
                    "name": "G#1",
                    "midi": 32,
                    "time": 520.9541666666752,
                    "velocity": 0.5118110236220472,
                    "duration": 0.21666666666681067
                },
                {
                    "name": "D#3",
                    "midi": 51,
                    "time": 520.9979166666752,
                    "velocity": 0.5826771653543307,
                    "duration": 0.1395833333333485
                },
                {
                    "name": "G3",
                    "midi": 55,
                    "time": 521.0041666666752,
                    "velocity": 0.5826771653543307,
                    "duration": 0.24375000000009095
                },
                {
                    "name": "E1",
                    "midi": 28,
                    "time": 521.158333333342,
                    "velocity": 0.4645669291338583,
                    "duration": 0.22708333333343944
                },
                {
                    "name": "C#4",
                    "midi": 61,
                    "time": 521.1666666666753,
                    "velocity": 0.6535433070866141,
                    "duration": 0.2375000000000682
                },
                {
                    "name": "A#3",
                    "midi": 58,
                    "time": 521.177083333342,
                    "velocity": 0.6062992125984252,
                    "duration": 0.28750000000002274
                },
                {
                    "name": "G#1",
                    "midi": 32,
                    "time": 521.3416666666753,
                    "velocity": 0.49606299212598426,
                    "duration": 0.15416666666669698
                },
                {
                    "name": "F1",
                    "midi": 29,
                    "time": 521.5083333333421,
                    "velocity": 0.5118110236220472,
                    "duration": 0.49791666666681067
                },
                {
                    "name": "G#1",
                    "midi": 32,
                    "time": 521.6041666666754,
                    "velocity": 0.44881889763779526,
                    "duration": 0.1729166666667652
                },
                {
                    "name": "G3",
                    "midi": 55,
                    "time": 521.6437500000087,
                    "velocity": 0.5984251968503937,
                    "duration": 0.17083333333357587
                },
                {
                    "name": "D#3",
                    "midi": 51,
                    "time": 521.6562500000088,
                    "velocity": 0.5118110236220472,
                    "duration": 0.05208333333337123
                },
                {
                    "name": "G#3",
                    "midi": 56,
                    "time": 521.8062500000088,
                    "velocity": 0.5826771653543307,
                    "duration": 0.21250000000009095
                },
                {
                    "name": "B3",
                    "midi": 59,
                    "time": 521.8104166666756,
                    "velocity": 0.5669291338582677,
                    "duration": 0.19375000000002274
                },
                {
                    "name": "F2",
                    "midi": 41,
                    "time": 521.8229166666756,
                    "velocity": 0.4094488188976378,
                    "duration": 0.10833333333334849
                },
                {
                    "name": "G#1",
                    "midi": 32,
                    "time": 521.9729166666756,
                    "velocity": 0.5039370078740157,
                    "duration": 0.18124999999997726
                },
                {
                    "name": "E1",
                    "midi": 28,
                    "time": 522.1312500000089,
                    "velocity": 0.6771653543307087,
                    "duration": 0.2354166666666515
                },
                {
                    "name": "D3",
                    "midi": 50,
                    "time": 522.3145833333423,
                    "velocity": 0.5826771653543307,
                    "duration": 0.10208333333321207
                },
                {
                    "name": "G#1",
                    "midi": 32,
                    "time": 522.3250000000089,
                    "velocity": 0.49606299212598426,
                    "duration": 0.16250000000002274
                },
                {
                    "name": "A#3",
                    "midi": 58,
                    "time": 522.4520833333422,
                    "velocity": 0.7480314960629921,
                    "duration": 0.23125000000004547
                },
                {
                    "name": "F#3",
                    "midi": 54,
                    "time": 522.4562500000089,
                    "velocity": 0.5748031496062992,
                    "duration": 0.252083333333303
                },
                {
                    "name": "F1",
                    "midi": 29,
                    "time": 522.5041666666756,
                    "velocity": 0.41732283464566927,
                    "duration": 0.4812499999998181
                },
                {
                    "name": "G#1",
                    "midi": 32,
                    "time": 522.6437500000089,
                    "velocity": 0.3779527559055118,
                    "duration": 0.1374999999999318
                },
                {
                    "name": "F2",
                    "midi": 41,
                    "time": 522.8062500000088,
                    "velocity": 0.41732283464566927,
                    "duration": 0.12083333333328028
                },
                {
                    "name": "D3",
                    "midi": 50,
                    "time": 522.9375000000088,
                    "velocity": 0.5590551181102362,
                    "duration": 0.22083333333330302
                },
                {
                    "name": "G#1",
                    "midi": 32,
                    "time": 522.9479166666754,
                    "velocity": 0.3858267716535433,
                    "duration": 0.18541666666669698
                },
                {
                    "name": "D#3",
                    "midi": 51,
                    "time": 523.1020833333421,
                    "velocity": 0.6850393700787402,
                    "duration": 0.29166666666662877
                },
                {
                    "name": "G#3",
                    "midi": 56,
                    "time": 523.1166666666754,
                    "velocity": 0.6220472440944882,
                    "duration": 0.20624999999995453
                },
                {
                    "name": "E1",
                    "midi": 28,
                    "time": 523.120833333342,
                    "velocity": 0.5196850393700787,
                    "duration": 0.2333333333333485
                },
                {
                    "name": "G#1",
                    "midi": 32,
                    "time": 523.3062500000087,
                    "velocity": 0.5275590551181102,
                    "duration": 0.15833333333330302
                },
                {
                    "name": "F1",
                    "midi": 29,
                    "time": 523.464583333342,
                    "velocity": 0.49606299212598426,
                    "duration": 0.5229166666667879
                },
                {
                    "name": "G#1",
                    "midi": 32,
                    "time": 523.5604166666753,
                    "velocity": 0.3464566929133858,
                    "duration": 0.1583333333334167
                },
                {
                    "name": "B2",
                    "midi": 47,
                    "time": 523.6125000000087,
                    "velocity": 0.5354330708661418,
                    "duration": 0.20833333333337123
                },
                {
                    "name": "G#2",
                    "midi": 44,
                    "time": 523.6166666666754,
                    "velocity": 0.5511811023622047,
                    "duration": 0.15208333333328028
                },
                {
                    "name": "F#3",
                    "midi": 54,
                    "time": 523.7916666666754,
                    "velocity": 0.4645669291338583,
                    "duration": 0.8958333333335986
                },
                {
                    "name": "D3",
                    "midi": 50,
                    "time": 523.7979166666754,
                    "velocity": 0.4881889763779528,
                    "duration": 0.9020833333336213
                },
                {
                    "name": "G#1",
                    "midi": 32,
                    "time": 523.8958333333421,
                    "velocity": 0.4094488188976378,
                    "duration": 0.33541666666667425
                },
                {
                    "name": "E1",
                    "midi": 28,
                    "time": 524.2208333333422,
                    "velocity": 0.3858267716535433,
                    "duration": 0.43125000000009095
                },
                {
                    "name": "A#2",
                    "midi": 46,
                    "time": 524.3770833333422,
                    "velocity": 0.5511811023622047,
                    "duration": 0.4083333333335304
                },
                {
                    "name": "F#2",
                    "midi": 42,
                    "time": 524.3895833333422,
                    "velocity": 0.2125984251968504,
                    "duration": 0.3166666666668334
                },
                {
                    "name": "G#1",
                    "midi": 32,
                    "time": 524.4520833333422,
                    "velocity": 0.44881889763779526,
                    "duration": 0.24791666666681067
                },
                {
                    "name": "E2",
                    "midi": 40,
                    "time": 524.7208333333424,
                    "velocity": 0.48031496062992124,
                    "duration": 0.10833333333334849
                },
                {
                    "name": "F2",
                    "midi": 41,
                    "time": 524.893750000009,
                    "velocity": 0.4566929133858268,
                    "duration": 0.3791666666667197
                },
                {
                    "name": "G#2",
                    "midi": 44,
                    "time": 525.0270833333424,
                    "velocity": 0.5669291338582677,
                    "duration": 0.2520833333334167
                },
                {
                    "name": "C3",
                    "midi": 48,
                    "time": 525.1666666666757,
                    "velocity": 0.5275590551181102,
                    "duration": 0.08541666666667425
                },
                {
                    "name": "E3",
                    "midi": 52,
                    "time": 525.3479166666758,
                    "velocity": 0.25984251968503935,
                    "duration": 0.23958333333325754
                },
                {
                    "name": "F3",
                    "midi": 53,
                    "time": 525.5458333333424,
                    "velocity": 0.3543307086614173,
                    "duration": 0.6020833333333258
                },
                {
                    "name": "C#1",
                    "midi": 25,
                    "time": 525.7916666666757,
                    "velocity": 0.4566929133858268,
                    "duration": 0.41666666666674246
                },
                {
                    "name": "G#3",
                    "midi": 56,
                    "time": 525.925000000009,
                    "velocity": 0.6141732283464567,
                    "duration": 0.2666666666667652
                },
                {
                    "name": "C#2",
                    "midi": 37,
                    "time": 526.2104166666758,
                    "velocity": 0.5984251968503937,
                    "duration": 0.05833333333328028
                },
                {
                    "name": "C3",
                    "midi": 48,
                    "time": 526.5708333333424,
                    "velocity": 0.4645669291338583,
                    "duration": 0.27083333333337123
                },
                {
                    "name": "D#4",
                    "midi": 63,
                    "time": 526.6083333333424,
                    "velocity": 0.6929133858267716,
                    "duration": 0.5312500000001137
                },
                {
                    "name": "B3",
                    "midi": 59,
                    "time": 526.6250000000091,
                    "velocity": 0.5275590551181102,
                    "duration": 0.5479166666667652
                },
                {
                    "name": "C#3",
                    "midi": 49,
                    "time": 526.8333333333425,
                    "velocity": 0.48031496062992124,
                    "duration": 0.14999999999997726
                },
                {
                    "name": "C3",
                    "midi": 48,
                    "time": 527.0041666666758,
                    "velocity": 0.4409448818897638,
                    "duration": 0.12291666666669698
                },
                {
                    "name": "C#3",
                    "midi": 49,
                    "time": 527.1062500000091,
                    "velocity": 0.6299212598425197,
                    "duration": 0.10625000000004547
                },
                {
                    "name": "C3",
                    "midi": 48,
                    "time": 527.1812500000092,
                    "velocity": 0.4094488188976378,
                    "duration": 0.08333333333325754
                },
                {
                    "name": "G#3",
                    "midi": 56,
                    "time": 527.1979166666758,
                    "velocity": 0.7559055118110236,
                    "duration": 0.27083333333325754
                },
                {
                    "name": "F3",
                    "midi": 53,
                    "time": 527.2125000000092,
                    "velocity": 0.5669291338582677,
                    "duration": 0.13124999999990905
                },
                {
                    "name": "C#3",
                    "midi": 49,
                    "time": 527.2541666666758,
                    "velocity": 0.5118110236220472,
                    "duration": 0.10416666666662877
                },
                {
                    "name": "C#2",
                    "midi": 37,
                    "time": 527.4125000000091,
                    "velocity": 0.6929133858267716,
                    "duration": 0.24166666666667425
                },
                {
                    "name": "B3",
                    "midi": 59,
                    "time": 527.4145833333424,
                    "velocity": 0.6614173228346457,
                    "duration": 0.8000000000000682
                },
                {
                    "name": "D#4",
                    "midi": 63,
                    "time": 527.4145833333424,
                    "velocity": 0.7559055118110236,
                    "duration": 0.8895833333333485
                },
                {
                    "name": "C#3",
                    "midi": 49,
                    "time": 527.6687500000091,
                    "velocity": 0.4094488188976378,
                    "duration": 0.15416666666669698
                },
                {
                    "name": "C3",
                    "midi": 48,
                    "time": 527.8604166666759,
                    "velocity": 0.41732283464566927,
                    "duration": 0.12083333333328028
                },
                {
                    "name": "C#3",
                    "midi": 49,
                    "time": 527.9645833333425,
                    "velocity": 0.6535433070866141,
                    "duration": 0.10208333333332575
                },
                {
                    "name": "C3",
                    "midi": 48,
                    "time": 528.0562500000092,
                    "velocity": 0.6141732283464567,
                    "duration": 0.11041666666665151
                },
                {
                    "name": "C#3",
                    "midi": 49,
                    "time": 528.1416666666759,
                    "velocity": 0.5669291338582677,
                    "duration": 0.10416666666662877
                },
                {
                    "name": "A3",
                    "midi": 57,
                    "time": 528.1604166666758,
                    "velocity": 0.7952755905511811,
                    "duration": 0.4187500000000455
                },
                {
                    "name": "F3",
                    "midi": 53,
                    "time": 528.1916666666758,
                    "velocity": 0.5669291338582677,
                    "duration": 0.1687499999999318
                },
                {
                    "name": "C3",
                    "midi": 48,
                    "time": 528.2437500000092,
                    "velocity": 0.5039370078740157,
                    "duration": 0.08541666666656056
                },
                {
                    "name": "C#3",
                    "midi": 49,
                    "time": 528.3041666666758,
                    "velocity": 0.7007874015748031,
                    "duration": 0.07708333333334849
                },
                {
                    "name": "A#3",
                    "midi": 58,
                    "time": 528.5458333333424,
                    "velocity": 0.7165354330708661,
                    "duration": 0.4250000000001819
                },
                {
                    "name": "F#3",
                    "midi": 54,
                    "time": 528.5500000000092,
                    "velocity": 0.6299212598425197,
                    "duration": 0.3458333333334167
                },
                {
                    "name": "C#1",
                    "midi": 25,
                    "time": 528.5645833333425,
                    "velocity": 0.6377952755905512,
                    "duration": 0.2062500000000682
                },
                {
                    "name": "C#2",
                    "midi": 37,
                    "time": 528.8000000000093,
                    "velocity": 0.6220472440944882,
                    "duration": 0.04791666666665151
                },
                {
                    "name": "D#4",
                    "midi": 63,
                    "time": 529.0562500000093,
                    "velocity": 0.7007874015748031,
                    "duration": 0.16458333333332575
                },
                {
                    "name": "C#4",
                    "midi": 61,
                    "time": 529.0625000000093,
                    "velocity": 0.7401574803149606,
                    "duration": 0.18333333333328028
                },
                {
                    "name": "B2",
                    "midi": 47,
                    "time": 529.0812500000093,
                    "velocity": 0.1732283464566929,
                    "duration": 0.14583333333337123
                },
                {
                    "name": "C#3",
                    "midi": 49,
                    "time": 529.2437500000093,
                    "velocity": 0.5511811023622047,
                    "duration": 0.10833333333334849
                },
                {
                    "name": "C3",
                    "midi": 48,
                    "time": 529.366666666676,
                    "velocity": 0.5118110236220472,
                    "duration": 0.07500000000004547
                },
                {
                    "name": "C#3",
                    "midi": 49,
                    "time": 529.435416666676,
                    "velocity": 0.5984251968503937,
                    "duration": 0.09166666666669698
                },
                {
                    "name": "C3",
                    "midi": 48,
                    "time": 529.5125000000094,
                    "velocity": 0.6614173228346457,
                    "duration": 0.09791666666671972
                },
                {
                    "name": "A#3",
                    "midi": 58,
                    "time": 529.5687500000093,
                    "velocity": 0.8188976377952756,
                    "duration": 0.24374999999997726
                },
                {
                    "name": "F#3",
                    "midi": 54,
                    "time": 529.5833333333427,
                    "velocity": 0.7322834645669292,
                    "duration": 0.10625000000004547
                },
                {
                    "name": "C#3",
                    "midi": 49,
                    "time": 529.6041666666761,
                    "velocity": 0.7244094488188977,
                    "duration": 0.1999999999999318
                },
                {
                    "name": "D#4",
                    "midi": 63,
                    "time": 529.7604166666761,
                    "velocity": 0.7874015748031497,
                    "duration": 0.283333333333303
                },
                {
                    "name": "C#4",
                    "midi": 61,
                    "time": 529.7625000000094,
                    "velocity": 0.8188976377952756,
                    "duration": 0.408333333333303
                },
                {
                    "name": "C#2",
                    "midi": 37,
                    "time": 529.779166666676,
                    "velocity": 0.7480314960629921,
                    "duration": 0.19166666666671972
                },
                {
                    "name": "C#3",
                    "midi": 49,
                    "time": 529.9500000000094,
                    "velocity": 0.6377952755905512,
                    "duration": 0.11874999999997726
                },
                {
                    "name": "C3",
                    "midi": 48,
                    "time": 530.0750000000094,
                    "velocity": 0.6220472440944882,
                    "duration": 0.10416666666662877
                },
                {
                    "name": "C#3",
                    "midi": 49,
                    "time": 530.1625000000093,
                    "velocity": 0.7007874015748031,
                    "duration": 0.10208333333332575
                },
                {
                    "name": "C3",
                    "midi": 48,
                    "time": 530.2520833333426,
                    "velocity": 0.6771653543307087,
                    "duration": 0.10833333333346218
                },
                {
                    "name": "C#3",
                    "midi": 49,
                    "time": 530.3312500000094,
                    "velocity": 0.6062992125984252,
                    "duration": 0.10416666666662877
                },
                {
                    "name": "F#3",
                    "midi": 54,
                    "time": 530.3916666666761,
                    "velocity": 0.8110236220472441,
                    "duration": 0.060416666666583296
                },
                {
                    "name": "A#3",
                    "midi": 58,
                    "time": 530.3937500000094,
                    "velocity": 0.8188976377952756,
                    "duration": 0.09375
                },
                {
                    "name": "C3",
                    "midi": 48,
                    "time": 530.4250000000094,
                    "velocity": 0.7086614173228346,
                    "duration": 0.09791666666660603
                },
                {
                    "name": "C#3",
                    "midi": 49,
                    "time": 530.504166666676,
                    "velocity": 0.5984251968503937,
                    "duration": 0.0625
                },
                {
                    "name": "G#4",
                    "midi": 68,
                    "time": 530.8250000000094,
                    "velocity": 0.7007874015748031,
                    "duration": 0.41666666666662877
                },
                {
                    "name": "F4",
                    "midi": 65,
                    "time": 530.8458333333427,
                    "velocity": 0.4881889763779528,
                    "duration": 0.21458333333328028
                },
                {
                    "name": "C#1",
                    "midi": 25,
                    "time": 530.8854166666761,
                    "velocity": 0.3779527559055118,
                    "duration": 0.16458333333332575
                },
                {
                    "name": "C#2",
                    "midi": 37,
                    "time": 531.0437500000094,
                    "velocity": 0.5433070866141733,
                    "duration": 0.0625
                },
                {
                    "name": "C3",
                    "midi": 48,
                    "time": 531.3333333333427,
                    "velocity": 0.3937007874015748,
                    "duration": 0.20000000000004547
                },
                {
                    "name": "D#5",
                    "midi": 75,
                    "time": 531.347916666676,
                    "velocity": 0.7165354330708661,
                    "duration": 0.2520833333334167
                },
                {
                    "name": "B4",
                    "midi": 71,
                    "time": 531.3520833333428,
                    "velocity": 0.6299212598425197,
                    "duration": 0.3145833333334167
                },
                {
                    "name": "C#3",
                    "midi": 49,
                    "time": 531.5166666666761,
                    "velocity": 0.5511811023622047,
                    "duration": 0.11875000000009095
                },
                {
                    "name": "C3",
                    "midi": 48,
                    "time": 531.6437500000095,
                    "velocity": 0.4409448818897638,
                    "duration": 0.08750000000009095
                },
                {
                    "name": "C#3",
                    "midi": 49,
                    "time": 531.7020833333429,
                    "velocity": 0.6377952755905512,
                    "duration": 0.11250000000006821
                },
                {
                    "name": "C3",
                    "midi": 48,
                    "time": 531.8000000000096,
                    "velocity": 0.6929133858267716,
                    "duration": 0.11250000000006821
                },
                {
                    "name": "G#4",
                    "midi": 68,
                    "time": 531.8541666666763,
                    "velocity": 0.8346456692913385,
                    "duration": 0.2854166666667197
                },
                {
                    "name": "F4",
                    "midi": 65,
                    "time": 531.8750000000097,
                    "velocity": 0.7244094488188977,
                    "duration": 0.2333333333333485
                },
                {
                    "name": "C#3",
                    "midi": 49,
                    "time": 531.8916666666763,
                    "velocity": 0.7401574803149606,
                    "duration": 0.21041666666667425
                },
                {
                    "name": "C#2",
                    "midi": 37,
                    "time": 532.0562500000096,
                    "velocity": 0.8582677165354331,
                    "duration": 0.18125000000020464
                },
                {
                    "name": "B4",
                    "midi": 71,
                    "time": 532.070833333343,
                    "velocity": 0.7322834645669292,
                    "duration": 0.32291666666696983
                },
                {
                    "name": "D#5",
                    "midi": 75,
                    "time": 532.0729166666763,
                    "velocity": 0.8267716535433071,
                    "duration": 0.2854166666669471
                },
                {
                    "name": "C#3",
                    "midi": 49,
                    "time": 532.2166666666765,
                    "velocity": 0.7007874015748031,
                    "duration": 0.11875000000009095
                },
                {
                    "name": "C3",
                    "midi": 48,
                    "time": 532.3437500000099,
                    "velocity": 0.5748031496062992,
                    "duration": 0.0958333333334167
                },
                {
                    "name": "C#3",
                    "midi": 49,
                    "time": 532.4270833333433,
                    "velocity": 0.6692913385826772,
                    "duration": 0.09375
                },
                {
                    "name": "C3",
                    "midi": 48,
                    "time": 532.5125000000099,
                    "velocity": 0.6377952755905512,
                    "duration": 0.12291666666669698
                },
                {
                    "name": "C#3",
                    "midi": 49,
                    "time": 532.5916666666766,
                    "velocity": 0.6299212598425197,
                    "duration": 0.11666666666667425
                },
                {
                    "name": "C3",
                    "midi": 48,
                    "time": 532.6916666666766,
                    "velocity": 0.7007874015748031,
                    "duration": 0.10416666666674246
                },
                {
                    "name": "A4",
                    "midi": 69,
                    "time": 532.71250000001,
                    "velocity": 0.7559055118110236,
                    "duration": 0.13750000000004547
                },
                {
                    "name": "F4",
                    "midi": 65,
                    "time": 532.7291666666766,
                    "velocity": 0.6062992125984252,
                    "duration": 0.10000000000002274
                },
                {
                    "name": "C#3",
                    "midi": 49,
                    "time": 532.7958333333434,
                    "velocity": 0.7244094488188977,
                    "duration": 0.04583333333334849
                },
                {
                    "name": "A#4",
                    "midi": 70,
                    "time": 533.10625000001,
                    "velocity": 0.6692913385826772,
                    "duration": 0.18541666666681067
                },
                {
                    "name": "F#4",
                    "midi": 66,
                    "time": 533.1104166666768,
                    "velocity": 0.5669291338582677,
                    "duration": 0.3125000000001137
                },
                {
                    "name": "C#1",
                    "midi": 25,
                    "time": 533.1145833333435,
                    "velocity": 0.6062992125984252,
                    "duration": 0.15625
                },
                {
                    "name": "C#2",
                    "midi": 37,
                    "time": 533.2520833333435,
                    "velocity": 0.5984251968503937,
                    "duration": 0.06875000000002274
                },
                {
                    "name": "D#5",
                    "midi": 75,
                    "time": 533.5541666666769,
                    "velocity": 0.6929133858267716,
                    "duration": 0.10625000000004547
                },
                {
                    "name": "C#5",
                    "midi": 73,
                    "time": 533.5687500000103,
                    "velocity": 0.7007874015748031,
                    "duration": 0.08541666666667425
                },
                {
                    "name": "C3",
                    "midi": 48,
                    "time": 533.6145833333436,
                    "velocity": 0.29133858267716534,
                    "duration": 0.12291666666669698
                },
                {
                    "name": "C#3",
                    "midi": 49,
                    "time": 533.7250000000103,
                    "velocity": 0.6377952755905512,
                    "duration": 0.10416666666674246
                },
                {
                    "name": "C3",
                    "midi": 48,
                    "time": 533.8312500000103,
                    "velocity": 0.5826771653543307,
                    "duration": 0.10625000000004547
                },
                {
                    "name": "C#3",
                    "midi": 49,
                    "time": 533.916666666677,
                    "velocity": 0.6614173228346457,
                    "duration": 0.09791666666671972
                },
                {
                    "name": "C3",
                    "midi": 48,
                    "time": 534.0062500000104,
                    "velocity": 0.6535433070866141,
                    "duration": 0.11041666666665151
                },
                {
                    "name": "A#4",
                    "midi": 70,
                    "time": 534.041666666677,
                    "velocity": 0.8976377952755905,
                    "duration": 0.18333333333339397
                },
                {
                    "name": "F#4",
                    "midi": 66,
                    "time": 534.0562500000103,
                    "velocity": 0.8188976377952756,
                    "duration": 0.13125000000002274
                },
                {
                    "name": "C#3",
                    "midi": 49,
                    "time": 534.1020833333437,
                    "velocity": 0.8188976377952756,
                    "duration": 0.19166666666660603
                },
                {
                    "name": "C#5",
                    "midi": 73,
                    "time": 534.2520833333436,
                    "velocity": 0.8582677165354331,
                    "duration": 0.3083333333332803
                },
                {
                    "name": "D#5",
                    "midi": 75,
                    "time": 534.2520833333436,
                    "velocity": 0.8661417322834646,
                    "duration": 0.2479166666665833
                },
                {
                    "name": "C#2",
                    "midi": 37,
                    "time": 534.2520833333436,
                    "velocity": 0.8976377952755905,
                    "duration": 0.16666666666662877
                },
                {
                    "name": "C#3",
                    "midi": 49,
                    "time": 534.3937500000103,
                    "velocity": 0.7165354330708661,
                    "duration": 0.1374999999999318
                },
                {
                    "name": "C3",
                    "midi": 48,
                    "time": 534.5291666666769,
                    "velocity": 0.6062992125984252,
                    "duration": 0.12291666666669698
                },
                {
                    "name": "C#3",
                    "midi": 49,
                    "time": 534.6437500000103,
                    "velocity": 0.6614173228346457,
                    "duration": 0.10000000000002274
                },
                {
                    "name": "C3",
                    "midi": 48,
                    "time": 534.7437500000103,
                    "velocity": 0.5118110236220472,
                    "duration": 0.10624999999993179
                },
                {
                    "name": "C#3",
                    "midi": 49,
                    "time": 534.822916666677,
                    "velocity": 0.5118110236220472,
                    "duration": 0.12916666666660603
                },
                {
                    "name": "C3",
                    "midi": 48,
                    "time": 534.9458333333436,
                    "velocity": 0.4015748031496063,
                    "duration": 0.10416666666685614
                },
                {
                    "name": "A#4",
                    "midi": 70,
                    "time": 534.9791666666769,
                    "velocity": 0.6456692913385826,
                    "duration": 0.047916666666765195
                },
                {
                    "name": "F#4",
                    "midi": 66,
                    "time": 534.9833333333436,
                    "velocity": 0.5669291338582677,
                    "duration": 0.06041666666681067
                },
                {
                    "name": "C#3",
                    "midi": 49,
                    "time": 535.0395833333437,
                    "velocity": 0.6062992125984252,
                    "duration": 0.0645833333334167
                },
                {
                    "name": "D#1",
                    "midi": 27,
                    "time": 535.4312500000104,
                    "velocity": 0.5669291338582677,
                    "duration": 0.2500000000001137
                },
                {
                    "name": "A#3",
                    "midi": 58,
                    "time": 535.4437500000105,
                    "velocity": 0.5196850393700787,
                    "duration": 0.4250000000000682
                },
                {
                    "name": "G3",
                    "midi": 55,
                    "time": 535.4666666666772,
                    "velocity": 0.2677165354330709,
                    "duration": 0.2854166666667197
                },
                {
                    "name": "D#2",
                    "midi": 39,
                    "time": 535.6687500000105,
                    "velocity": 0.49606299212598426,
                    "duration": 0.07708333333334849
                },
                {
                    "name": "F4",
                    "midi": 65,
                    "time": 535.9729166666772,
                    "velocity": 0.5905511811023622,
                    "duration": 0.2541666666667197
                },
                {
                    "name": "C#4",
                    "midi": 61,
                    "time": 535.9770833333439,
                    "velocity": 0.7244094488188977,
                    "duration": 0.5791666666667652
                },
                {
                    "name": "D3",
                    "midi": 50,
                    "time": 536.0291666666773,
                    "velocity": 0.11023622047244094,
                    "duration": 0.11666666666667425
                },
                {
                    "name": "D#3",
                    "midi": 51,
                    "time": 536.1625000000106,
                    "velocity": 0.6220472440944882,
                    "duration": 0.10000000000002274
                },
                {
                    "name": "D3",
                    "midi": 50,
                    "time": 536.2750000000107,
                    "velocity": 0.5905511811023622,
                    "duration": 0.08541666666667425
                },
                {
                    "name": "D#3",
                    "midi": 51,
                    "time": 536.3375000000107,
                    "velocity": 0.6299212598425197,
                    "duration": 0.11874999999997726
                },
                {
                    "name": "D3",
                    "midi": 50,
                    "time": 536.4291666666774,
                    "velocity": 0.6929133858267716,
                    "duration": 0.1229166666665833
                },
                {
                    "name": "A#3",
                    "midi": 58,
                    "time": 536.489583333344,
                    "velocity": 0.8346456692913385,
                    "duration": 0.10208333333332575
                },
                {
                    "name": "G3",
                    "midi": 55,
                    "time": 536.495833333344,
                    "velocity": 0.7165354330708661,
                    "duration": 0.07083333333332575
                },
                {
                    "name": "D#3",
                    "midi": 51,
                    "time": 536.5250000000107,
                    "velocity": 0.6929133858267716,
                    "duration": 0.27499999999997726
                },
                {
                    "name": "D#2",
                    "midi": 39,
                    "time": 536.8437500000107,
                    "velocity": 0.5511811023622047,
                    "duration": 0.5624999999998863
                },
                {
                    "name": "C#4",
                    "midi": 61,
                    "time": 536.908333333344,
                    "velocity": 0.4251968503937008,
                    "duration": 0.5541666666665606
                },
                {
                    "name": "F4",
                    "midi": 65,
                    "time": 536.9437500000107,
                    "velocity": 0.5275590551181102,
                    "duration": 0.2979166666665378
                },
                {
                    "name": "A4",
                    "midi": 69,
                    "time": 537.0041666666774,
                    "velocity": 0.5354330708661418,
                    "duration": 0.22083333333318933
                },
                {
                    "name": "C#5",
                    "midi": 73,
                    "time": 537.0937500000107,
                    "velocity": 0.7559055118110236,
                    "duration": 0.5854166666665606
                },
                {
                    "name": "A4",
                    "midi": 69,
                    "time": 537.4229166666772,
                    "velocity": 0.4251968503937008,
                    "duration": 0.24166666666667425
                },
                {
                    "name": "F4",
                    "midi": 65,
                    "time": 537.5791666666772,
                    "velocity": 0.33070866141732286,
                    "duration": 0.2187500000001137
                },
                {
                    "name": "C#4",
                    "midi": 61,
                    "time": 537.6937500000106,
                    "velocity": 0.5354330708661418,
                    "duration": 0.06875000000002274
                },
                {
                    "name": "C5",
                    "midi": 72,
                    "time": 537.845833333344,
                    "velocity": 0.8031496062992126,
                    "duration": 0.21666666666669698
                },
                {
                    "name": "G#4",
                    "midi": 68,
                    "time": 538.0062500000107,
                    "velocity": 0.7165354330708661,
                    "duration": 0.16041666666671972
                },
                {
                    "name": "E4",
                    "midi": 64,
                    "time": 538.1145833333441,
                    "velocity": 0.1889763779527559,
                    "duration": 0.0958333333334167
                },
                {
                    "name": "C4",
                    "midi": 60,
                    "time": 538.1729166666775,
                    "velocity": 0.7086614173228346,
                    "duration": 0.08333333333337123
                },
                {
                    "name": "D#3",
                    "midi": 51,
                    "time": 538.3395833333442,
                    "velocity": 0.84251968503937,
                    "duration": 0.5249999999998636
                },
                {
                    "name": "C#5",
                    "midi": 73,
                    "time": 538.3937500000109,
                    "velocity": 0.8818897637795275,
                    "duration": 0.36458333333325754
                },
                {
                    "name": "A4",
                    "midi": 69,
                    "time": 538.5729166666774,
                    "velocity": 0.48031496062992124,
                    "duration": 0.18541666666669698
                },
                {
                    "name": "F4",
                    "midi": 65,
                    "time": 538.6812500000108,
                    "velocity": 0.47244094488188976,
                    "duration": 0.12708333333330302
                },
                {
                    "name": "C#4",
                    "midi": 61,
                    "time": 538.7770833333441,
                    "velocity": 0.7401574803149606,
                    "duration": 0.07708333333334849
                },
                {
                    "name": "F4",
                    "midi": 65,
                    "time": 538.9916666666774,
                    "velocity": 0.7637795275590551,
                    "duration": 0.2312499999999318
                },
                {
                    "name": "C#4",
                    "midi": 61,
                    "time": 539.158333333344,
                    "velocity": 0.6614173228346457,
                    "duration": 0.22499999999990905
                },
                {
                    "name": "A3",
                    "midi": 57,
                    "time": 539.2937500000106,
                    "velocity": 0.33858267716535434,
                    "duration": 0.1541666666665833
                },
                {
                    "name": "F3",
                    "midi": 53,
                    "time": 539.4333333333439,
                    "velocity": 0.49606299212598426,
                    "duration": 0.10208333333332575
                },
                {
                    "name": "D#1",
                    "midi": 27,
                    "time": 539.5937500000105,
                    "velocity": 0.5511811023622047,
                    "duration": 0.3333333333334849
                },
                {
                    "name": "A3",
                    "midi": 57,
                    "time": 539.6604166666772,
                    "velocity": 0.5433070866141733,
                    "duration": 0.17708333333337123
                },
                {
                    "name": "F3",
                    "midi": 53,
                    "time": 539.7916666666772,
                    "velocity": 0.49606299212598426,
                    "duration": 0.14791666666678793
                },
                {
                    "name": "D#2",
                    "midi": 39,
                    "time": 539.8604166666772,
                    "velocity": 0.4015748031496063,
                    "duration": 0.10416666666674246
                },
                {
                    "name": "C#3",
                    "midi": 49,
                    "time": 539.945833333344,
                    "velocity": 0.7322834645669292,
                    "duration": 0.09791666666660603
                },
                {
                    "name": "A2",
                    "midi": 45,
                    "time": 540.095833333344,
                    "velocity": 0.5590551181102362,
                    "duration": 0.125
                },
                {
                    "name": "C#3",
                    "midi": 49,
                    "time": 540.2854166666773,
                    "velocity": 0.5669291338582677,
                    "duration": 0.12291666666669698
                },
                {
                    "name": "F2",
                    "midi": 41,
                    "time": 540.520833333344,
                    "velocity": 0.5748031496062992,
                    "duration": 0.17916666666667425
                },
                {
                    "name": "D#2",
                    "midi": 39,
                    "time": 540.652083333344,
                    "velocity": 0.6771653543307087,
                    "duration": 0.6687500000000455
                },
                {
                    "name": "F2",
                    "midi": 41,
                    "time": 540.8520833333439,
                    "velocity": 0.5196850393700787,
                    "duration": 0.43333333333339397
                },
                {
                    "name": "A2",
                    "midi": 45,
                    "time": 541.0000000000106,
                    "velocity": 0.3937007874015748,
                    "duration": 0.2354166666667652
                },
                {
                    "name": "C#3",
                    "midi": 49,
                    "time": 541.0937500000106,
                    "velocity": 0.5275590551181102,
                    "duration": 0.12916666666671972
                },
                {
                    "name": "E4",
                    "midi": 64,
                    "time": 541.339583333344,
                    "velocity": 0.6614173228346457,
                    "duration": 0.15833333333330302
                },
                {
                    "name": "C4",
                    "midi": 60,
                    "time": 541.4125000000106,
                    "velocity": 0.4094488188976378,
                    "duration": 0.18124999999997726
                },
                {
                    "name": "G#3",
                    "midi": 56,
                    "time": 541.5437500000106,
                    "velocity": 0.6456692913385826,
                    "duration": 0.11874999999997726
                },
                {
                    "name": "E3",
                    "midi": 52,
                    "time": 541.6187500000106,
                    "velocity": 0.4566929133858268,
                    "duration": 0.0791666666667652
                },
                {
                    "name": "D#1",
                    "midi": 27,
                    "time": 541.6937500000106,
                    "velocity": 0.6141732283464567,
                    "duration": 1.0374999999997954
                },
                {
                    "name": "D#2",
                    "midi": 39,
                    "time": 541.8104166666773,
                    "velocity": 0.5433070866141733,
                    "duration": 0.9458333333330984
                },
                {
                    "name": "F4",
                    "midi": 65,
                    "time": 541.8770833333439,
                    "velocity": 0.7559055118110236,
                    "duration": 0.13541666666662877
                },
                {
                    "name": "C#4",
                    "midi": 61,
                    "time": 541.8958333333438,
                    "velocity": 0.8582677165354331,
                    "duration": 0.21666666666669698
                },
                {
                    "name": "A3",
                    "midi": 57,
                    "time": 542.0354166666772,
                    "velocity": 0.6062992125984252,
                    "duration": 0.10416666666674246
                },
                {
                    "name": "F3",
                    "midi": 53,
                    "time": 542.1333333333439,
                    "velocity": 0.44881889763779526,
                    "duration": 0.0625
                },
                {
                    "name": "G4",
                    "midi": 67,
                    "time": 542.3229166666772,
                    "velocity": 0.7559055118110236,
                    "duration": 0.1374999999999318
                },
                {
                    "name": "D#4",
                    "midi": 63,
                    "time": 542.3333333333438,
                    "velocity": 0.7559055118110236,
                    "duration": 0.2166666666665833
                },
                {
                    "name": "B3",
                    "midi": 59,
                    "time": 542.4875000000104,
                    "velocity": 0.28346456692913385,
                    "duration": 0.07291666666662877
                },
                {
                    "name": "G#4",
                    "midi": 68,
                    "time": 542.6604166666771,
                    "velocity": 0.8110236220472441,
                    "duration": 0.21041666666667425
                },
                {
                    "name": "E4",
                    "midi": 64,
                    "time": 542.6750000000104,
                    "velocity": 0.5196850393700787,
                    "duration": 0.22291666666660603
                },
                {
                    "name": "C4",
                    "midi": 60,
                    "time": 542.804166666677,
                    "velocity": 0.6062992125984252,
                    "duration": 0.08333333333337123
                },
                {
                    "name": "G#3",
                    "midi": 56,
                    "time": 542.8333333333437,
                    "velocity": 0.7637795275590551,
                    "duration": 0.07499999999993179
                },
                {
                    "name": "D#1",
                    "midi": 27,
                    "time": 543.141666666677,
                    "velocity": 0.6062992125984252,
                    "duration": 0.6166666666665606
                },
                {
                    "name": "F4",
                    "midi": 65,
                    "time": 543.197916666677,
                    "velocity": 0.6299212598425197,
                    "duration": 0.14583333333325754
                },
                {
                    "name": "A4",
                    "midi": 69,
                    "time": 543.2479166666769,
                    "velocity": 0.5118110236220472,
                    "duration": 0.13541666666662877
                },
                {
                    "name": "C#5",
                    "midi": 73,
                    "time": 543.3145833333436,
                    "velocity": 0.7480314960629921,
                    "duration": 0.11874999999986358
                },
                {
                    "name": "D#2",
                    "midi": 39,
                    "time": 543.7270833333436,
                    "velocity": 0.6377952755905512,
                    "duration": 0.0770833333332348
                },
                {
                    "name": "C#5",
                    "midi": 73,
                    "time": 543.7854166666768,
                    "velocity": 0.4094488188976378,
                    "duration": 0.16666666666662877
                },
                {
                    "name": "F5",
                    "midi": 77,
                    "time": 543.8750000000101,
                    "velocity": 0.4330708661417323,
                    "duration": 0.2645833333333485
                },
                {
                    "name": "A5",
                    "midi": 81,
                    "time": 543.9145833333434,
                    "velocity": 0.6614173228346457,
                    "duration": 0.4229166666666515
                },
                {
                    "name": "C#6",
                    "midi": 85,
                    "time": 543.9604166666768,
                    "velocity": 0.84251968503937,
                    "duration": 0.36666666666667425
                },
                {
                    "name": "F#5",
                    "midi": 78,
                    "time": 544.0354166666768,
                    "velocity": 0.4251968503937008,
                    "duration": 0.27083333333325754
                },
                {
                    "name": "C6",
                    "midi": 84,
                    "time": 544.2895833333434,
                    "velocity": 0.2755905511811024,
                    "duration": 0.07499999999993179
                },
                {
                    "name": "F5",
                    "midi": 77,
                    "time": 544.3000000000101,
                    "velocity": 0.3937007874015748,
                    "duration": 0.15416666666669698
                },
                {
                    "name": "C#4",
                    "midi": 61,
                    "time": 544.3187500000101,
                    "velocity": 0.8346456692913385,
                    "duration": 0.05624999999997726
                },
                {
                    "name": "A3",
                    "midi": 57,
                    "time": 544.3250000000102,
                    "velocity": 0.6614173228346457,
                    "duration": 0.06249999999988631
                },
                {
                    "name": "C#6",
                    "midi": 85,
                    "time": 544.3687500000101,
                    "velocity": 0.5354330708661418,
                    "duration": 0.09583333333330302
                },
                {
                    "name": "G#5",
                    "midi": 80,
                    "time": 544.3854166666767,
                    "velocity": 0.4330708661417323,
                    "duration": 0.09999999999990905
                },
                {
                    "name": "A5",
                    "midi": 81,
                    "time": 544.4333333333434,
                    "velocity": 0.2755905511811024,
                    "duration": 0.12499999999988631
                },
                {
                    "name": "C#5",
                    "midi": 73,
                    "time": 544.47500000001,
                    "velocity": 0.7559055118110236,
                    "duration": 0.6166666666666742
                },
                {
                    "name": "C6",
                    "midi": 84,
                    "time": 544.48750000001,
                    "velocity": 0.4015748031496063,
                    "duration": 0.07708333333334849
                },
                {
                    "name": "F5",
                    "midi": 77,
                    "time": 544.4895833333433,
                    "velocity": 0.6850393700787402,
                    "duration": 0.6250000000001137
                },
                {
                    "name": "G#5",
                    "midi": 80,
                    "time": 544.5458333333432,
                    "velocity": 0.4645669291338583,
                    "duration": 0.10416666666685614
                },
                {
                    "name": "C#6",
                    "midi": 85,
                    "time": 544.5604166666766,
                    "velocity": 0.5275590551181102,
                    "duration": 0.0645833333334167
                },
                {
                    "name": "A5",
                    "midi": 81,
                    "time": 544.63125000001,
                    "velocity": 0.5039370078740157,
                    "duration": 0.10000000000002274
                },
                {
                    "name": "C6",
                    "midi": 84,
                    "time": 544.6437500000101,
                    "velocity": 0.33858267716535434,
                    "duration": 0.08333333333337123
                },
                {
                    "name": "C#6",
                    "midi": 85,
                    "time": 544.7041666666768,
                    "velocity": 0.6062992125984252,
                    "duration": 0.08958333333316659
                },
                {
                    "name": "G#5",
                    "midi": 80,
                    "time": 544.7229166666767,
                    "velocity": 0.33070866141732286,
                    "duration": 0.4229166666666515
                },
                {
                    "name": "D#2",
                    "midi": 39,
                    "time": 544.7291666666767,
                    "velocity": 0.6299212598425197,
                    "duration": 0.1416666666666515
                },
                {
                    "name": "F#5",
                    "midi": 78,
                    "time": 544.7333333333434,
                    "velocity": 0.47244094488188976,
                    "duration": 0.05833333333328028
                },
                {
                    "name": "B5",
                    "midi": 83,
                    "time": 544.7458333333433,
                    "velocity": 0.6850393700787402,
                    "duration": 0.3479166666667197
                },
                {
                    "name": "A5",
                    "midi": 81,
                    "time": 544.80000000001,
                    "velocity": 0.47244094488188976,
                    "duration": 0.25625000000002274
                },
                {
                    "name": "C6",
                    "midi": 84,
                    "time": 544.8041666666767,
                    "velocity": 0.4330708661417323,
                    "duration": 0.08958333333339397
                },
                {
                    "name": "F#5",
                    "midi": 78,
                    "time": 544.8645833333434,
                    "velocity": 0.5196850393700787,
                    "duration": 0.10416666666662877
                },
                {
                    "name": "C#6",
                    "midi": 85,
                    "time": 544.8645833333434,
                    "velocity": 0.6535433070866141,
                    "duration": 0.08958333333328028
                },
                {
                    "name": "C6",
                    "midi": 84,
                    "time": 544.9520833333434,
                    "velocity": 0.3543307086614173,
                    "duration": 0.0916666666665833
                },
                {
                    "name": "C#6",
                    "midi": 85,
                    "time": 545.0166666666767,
                    "velocity": 0.6377952755905512,
                    "duration": 0.08958333333339397
                },
                {
                    "name": "F#5",
                    "midi": 78,
                    "time": 545.0270833333433,
                    "velocity": 0.6220472440944882,
                    "duration": 0.09375000000011369
                },
                {
                    "name": "A5",
                    "midi": 81,
                    "time": 545.0979166666767,
                    "velocity": 0.49606299212598426,
                    "duration": 0.11041666666665151
                },
                {
                    "name": "C6",
                    "midi": 84,
                    "time": 545.1083333333434,
                    "velocity": 0.3700787401574803,
                    "duration": 0.09583333333330302
                },
                {
                    "name": "C#6",
                    "midi": 85,
                    "time": 545.1729166666767,
                    "velocity": 0.6614173228346457,
                    "duration": 0.09583333333353039
                },
                {
                    "name": "D#3",
                    "midi": 51,
                    "time": 545.1791666666767,
                    "velocity": 0.3543307086614173,
                    "duration": 0.32291666666685614
                },
                {
                    "name": "F#5",
                    "midi": 78,
                    "time": 545.18750000001,
                    "velocity": 0.5511811023622047,
                    "duration": 0.0812500000001819
                },
                {
                    "name": "F5",
                    "midi": 77,
                    "time": 545.2041666666767,
                    "velocity": 0.31496062992125984,
                    "duration": 0.052083333333484916
                },
                {
                    "name": "A5",
                    "midi": 81,
                    "time": 545.2520833333434,
                    "velocity": 0.2755905511811024,
                    "duration": 0.12708333333330302
                },
                {
                    "name": "C6",
                    "midi": 84,
                    "time": 545.2791666666768,
                    "velocity": 0.2047244094488189,
                    "duration": 0.07916666666665151
                },
                {
                    "name": "C#6",
                    "midi": 85,
                    "time": 545.3291666666768,
                    "velocity": 0.5984251968503937,
                    "duration": 0.09583333333330302
                },
                {
                    "name": "G#5",
                    "midi": 80,
                    "time": 545.3604166666768,
                    "velocity": 0.3543307086614173,
                    "duration": 0.08750000000009095
                },
                {
                    "name": "F#5",
                    "midi": 78,
                    "time": 545.3708333333434,
                    "velocity": 0.31496062992125984,
                    "duration": 0.0645833333334167
                },
                {
                    "name": "C6",
                    "midi": 84,
                    "time": 545.4229166666768,
                    "velocity": 0.1732283464566929,
                    "duration": 0.09375000000011369
                },
                {
                    "name": "A5",
                    "midi": 81,
                    "time": 545.4312500000101,
                    "velocity": 0.14960629921259844,
                    "duration": 0.21666666666681067
                },
                {
                    "name": "A3",
                    "midi": 57,
                    "time": 545.5000000000102,
                    "velocity": 0.3543307086614173,
                    "duration": 0.07916666666665151
                },
                {
                    "name": "C#4",
                    "midi": 61,
                    "time": 545.5000000000102,
                    "velocity": 0.7244094488188977,
                    "duration": 0.07083333333332575
                },
                {
                    "name": "C#6",
                    "midi": 85,
                    "time": 545.5062500000103,
                    "velocity": 0.3937007874015748,
                    "duration": 0.1374999999999318
                },
                {
                    "name": "F#5",
                    "midi": 78,
                    "time": 545.5145833333436,
                    "velocity": 0.5748031496062992,
                    "duration": 0.14374999999995453
                },
                {
                    "name": "C#5",
                    "midi": 73,
                    "time": 545.5229166666769,
                    "velocity": 0.5196850393700787,
                    "duration": 0.10208333333332575
                },
                {
                    "name": "G#5",
                    "midi": 80,
                    "time": 545.5458333333436,
                    "velocity": 0.25196850393700787,
                    "duration": 0.08749999999997726
                },
                {
                    "name": "A5",
                    "midi": 81,
                    "time": 545.6812500000102,
                    "velocity": 0.2283464566929134,
                    "duration": 0.11458333333325754
                },
                {
                    "name": "C#6",
                    "midi": 85,
                    "time": 545.7375000000102,
                    "velocity": 0.5196850393700787,
                    "duration": 0.08749999999997726
                },
                {
                    "name": "D#1",
                    "midi": 27,
                    "time": 545.8187500000101,
                    "velocity": 0.8110236220472441,
                    "duration": 0.09583333333330302
                },
                {
                    "name": "F#5",
                    "midi": 78,
                    "time": 545.8666666666768,
                    "velocity": 0.2677165354330709,
                    "duration": 0.16041666666671972
                },
                {
                    "name": "C#5",
                    "midi": 73,
                    "time": 545.8895833333435,
                    "velocity": 0.48031496062992124,
                    "duration": 0.1395833333333485
                },
                {
                    "name": "A5",
                    "midi": 81,
                    "time": 545.9250000000101,
                    "velocity": 0.5984251968503937,
                    "duration": 0.1250000000001137
                },
                {
                    "name": "F5",
                    "midi": 77,
                    "time": 546.0229166666768,
                    "velocity": 0.49606299212598426,
                    "duration": 0.11875000000009095
                },
                {
                    "name": "G#5",
                    "midi": 80,
                    "time": 546.0645833333435,
                    "velocity": 0.5511811023622047,
                    "duration": 0.08749999999997726
                },
                {
                    "name": "F#5",
                    "midi": 78,
                    "time": 546.1187500000102,
                    "velocity": 0.49606299212598426,
                    "duration": 0.0916666666665833
                },
                {
                    "name": "C#5",
                    "midi": 73,
                    "time": 546.1666666666769,
                    "velocity": 0.28346456692913385,
                    "duration": 0.3854166666665151
                },
                {
                    "name": "A5",
                    "midi": 81,
                    "time": 546.1729166666769,
                    "velocity": 0.48031496062992124,
                    "duration": 0.07291666666651508
                },
                {
                    "name": "A4",
                    "midi": 69,
                    "time": 546.1750000000102,
                    "velocity": 0.23622047244094488,
                    "duration": 0.3270833333332348
                },
                {
                    "name": "F5",
                    "midi": 77,
                    "time": 546.2083333333435,
                    "velocity": 0.4566929133858268,
                    "duration": 0.4020833333332803
                },
                {
                    "name": "G#5",
                    "midi": 80,
                    "time": 546.2354166666768,
                    "velocity": 0.5748031496062992,
                    "duration": 0.08541666666656056
                },
                {
                    "name": "F#5",
                    "midi": 78,
                    "time": 546.2791666666767,
                    "velocity": 0.5590551181102362,
                    "duration": 0.07916666666665151
                },
                {
                    "name": "A5",
                    "midi": 81,
                    "time": 546.3270833333434,
                    "velocity": 0.49606299212598426,
                    "duration": 0.08958333333339397
                },
                {
                    "name": "G#5",
                    "midi": 80,
                    "time": 546.3729166666767,
                    "velocity": 0.7952755905511811,
                    "duration": 0.2645833333333485
                },
                {
                    "name": "D#2",
                    "midi": 39,
                    "time": 546.38750000001,
                    "velocity": 0.47244094488188976,
                    "duration": 0.0625
                },
                {
                    "name": "F#5",
                    "midi": 78,
                    "time": 546.4312500000101,
                    "velocity": 0.49606299212598426,
                    "duration": 0.07083333333332575
                },
                {
                    "name": "A5",
                    "midi": 81,
                    "time": 546.4895833333434,
                    "velocity": 0.5118110236220472,
                    "duration": 0.07708333333334849
                },
                {
                    "name": "F#5",
                    "midi": 78,
                    "time": 546.5708333333434,
                    "velocity": 0.5590551181102362,
                    "duration": 0.07499999999993179
                },
                {
                    "name": "C#5",
                    "midi": 73,
                    "time": 546.5916666666768,
                    "velocity": 0.4330708661417323,
                    "duration": 0.0749999999998181
                },
                {
                    "name": "A5",
                    "midi": 81,
                    "time": 546.6395833333434,
                    "velocity": 0.49606299212598426,
                    "duration": 0.2791666666665833
                },
                {
                    "name": "F5",
                    "midi": 77,
                    "time": 546.6479166666767,
                    "velocity": 0.2992125984251969,
                    "duration": 0.27083333333325754
                },
                {
                    "name": "G#5",
                    "midi": 80,
                    "time": 546.70625000001,
                    "velocity": 0.5984251968503937,
                    "duration": 0.08124999999995453
                },
                {
                    "name": "F#5",
                    "midi": 78,
                    "time": 546.7250000000099,
                    "velocity": 0.3937007874015748,
                    "duration": 0.07916666666665151
                },
                {
                    "name": "C#4",
                    "midi": 61,
                    "time": 546.7645833333432,
                    "velocity": 0.7007874015748031,
                    "duration": 0.0625
                },
                {
                    "name": "A3",
                    "midi": 57,
                    "time": 546.7812500000099,
                    "velocity": 0.48031496062992124,
                    "duration": 0.05208333333337123
                },
                {
                    "name": "F#5",
                    "midi": 78,
                    "time": 546.8791666666766,
                    "velocity": 0.4645669291338583,
                    "duration": 0.08541666666667425
                },
                {
                    "name": "G#5",
                    "midi": 80,
                    "time": 546.9020833333433,
                    "velocity": 0.6850393700787402,
                    "duration": 0.10208333333332575
                },
                {
                    "name": "C5",
                    "midi": 72,
                    "time": 546.9187500000099,
                    "velocity": 0.8188976377952756,
                    "duration": 0.5166666666668789
                },
                {
                    "name": "A4",
                    "midi": 69,
                    "time": 546.9291666666766,
                    "velocity": 0.7165354330708661,
                    "duration": 0.5166666666668789
                },
                {
                    "name": "F5",
                    "midi": 77,
                    "time": 546.9750000000099,
                    "velocity": 0.14960629921259844,
                    "duration": 0.10000000000013642
                },
                {
                    "name": "A5",
                    "midi": 81,
                    "time": 547.0270833333433,
                    "velocity": 0.14173228346456693,
                    "duration": 0.06458333333353039
                },
                {
                    "name": "F#5",
                    "midi": 78,
                    "time": 547.0479166666767,
                    "velocity": 0.3937007874015748,
                    "duration": 0.07708333333346218
                },
                {
                    "name": "G#5",
                    "midi": 80,
                    "time": 547.07500000001,
                    "velocity": 0.44881889763779526,
                    "duration": 0.3291666666668789
                },
                {
                    "name": "D#2",
                    "midi": 39,
                    "time": 547.1000000000101,
                    "velocity": 0.6062992125984252,
                    "duration": 0.09791666666671972
                },
                {
                    "name": "F5",
                    "midi": 77,
                    "time": 547.1062500000102,
                    "velocity": 0.6771653543307087,
                    "duration": 0.3000000000000682
                },
                {
                    "name": "A5",
                    "midi": 81,
                    "time": 547.1770833333435,
                    "velocity": 0.1732283464566929,
                    "duration": 0.09791666666671972
                },
                {
                    "name": "F#5",
                    "midi": 78,
                    "time": 547.2229166666768,
                    "velocity": 0.3779527559055118,
                    "duration": 0.07708333333334849
                },
                {
                    "name": "F#5",
                    "midi": 78,
                    "time": 547.3916666666769,
                    "velocity": 0.4566929133858268,
                    "duration": 0.06458333333318933
                },
                {
                    "name": "D#3",
                    "midi": 51,
                    "time": 547.4250000000102,
                    "velocity": 0.6456692913385826,
                    "duration": 0.44166666666660603
                },
                {
                    "name": "G#5",
                    "midi": 80,
                    "time": 547.4270833333435,
                    "velocity": 0.41732283464566927,
                    "duration": 0.10624999999993179
                },
                {
                    "name": "F5",
                    "midi": 77,
                    "time": 547.4875000000101,
                    "velocity": 0.23622047244094488,
                    "duration": 0.14166666666653782
                },
                {
                    "name": "F#5",
                    "midi": 78,
                    "time": 547.5833333333434,
                    "velocity": 0.30708661417322836,
                    "duration": 0.06874999999990905
                },
                {
                    "name": "C#5",
                    "midi": 73,
                    "time": 547.5854166666767,
                    "velocity": 0.2283464566929134,
                    "duration": 0.1229166666665833
                },
                {
                    "name": "G#5",
                    "midi": 80,
                    "time": 547.61250000001,
                    "velocity": 0.4094488188976378,
                    "duration": 0.09791666666660603
                },
                {
                    "name": "A5",
                    "midi": 81,
                    "time": 547.7291666666765,
                    "velocity": 0.2125984251968504,
                    "duration": 0.07708333333346218
                },
                {
                    "name": "C#4",
                    "midi": 61,
                    "time": 547.7625000000098,
                    "velocity": 0.6299212598425197,
                    "duration": 0.03125000000011369
                },
                {
                    "name": "F#5",
                    "midi": 78,
                    "time": 547.7770833333432,
                    "velocity": 0.6614173228346457,
                    "duration": 0.07083333333355313
                },
                {
                    "name": "C#5",
                    "midi": 73,
                    "time": 547.7812500000099,
                    "velocity": 0.6929133858267716,
                    "duration": 0.0833333333335986
                },
                {
                    "name": "A3",
                    "midi": 57,
                    "time": 547.7812500000099,
                    "velocity": 0.3779527559055118,
                    "duration": 0.05416666666678793
                },
                {
                    "name": "A4",
                    "midi": 69,
                    "time": 547.7875000000099,
                    "velocity": 0.5196850393700787,
                    "duration": 0.05625000000009095
                },
                {
                    "name": "G#5",
                    "midi": 80,
                    "time": 547.7895833333432,
                    "velocity": 0.4330708661417323,
                    "duration": 0.17500000000029559
                },
                {
                    "name": "A5",
                    "midi": 81,
                    "time": 547.9041666666768,
                    "velocity": 0.14960629921259844,
                    "duration": 0.043750000000045475
                },
                {
                    "name": "D#1",
                    "midi": 27,
                    "time": 548.1250000000102,
                    "velocity": 0.6771653543307087,
                    "duration": 0.4875000000000682
                },
                {
                    "name": "F#3",
                    "midi": 54,
                    "time": 548.1729166666769,
                    "velocity": 0.4645669291338583,
                    "duration": 0.19375000000002274
                },
                {
                    "name": "A3",
                    "midi": 57,
                    "time": 548.2729166666769,
                    "velocity": 0.03937007874015748,
                    "duration": 0.14374999999995453
                },
                {
                    "name": "C#4",
                    "midi": 61,
                    "time": 548.4416666666768,
                    "velocity": 0.5433070866141733,
                    "duration": 0.42916666666678793
                },
                {
                    "name": "F4",
                    "midi": 65,
                    "time": 548.4979166666768,
                    "velocity": 0.5354330708661418,
                    "duration": 0.35625000000015916
                },
                {
                    "name": "A3",
                    "midi": 57,
                    "time": 548.5104166666769,
                    "velocity": 0.31496062992125984,
                    "duration": 0.10833333333346218
                },
                {
                    "name": "A4",
                    "midi": 69,
                    "time": 548.5416666666769,
                    "velocity": 0.49606299212598426,
                    "duration": 0.5791666666666515
                },
                {
                    "name": "D#2",
                    "midi": 39,
                    "time": 548.5625000000102,
                    "velocity": 0.5118110236220472,
                    "duration": 0.08750000000009095
                },
                {
                    "name": "C4",
                    "midi": 60,
                    "time": 548.5687500000103,
                    "velocity": 0.28346456692913385,
                    "duration": 0.07291666666674246
                },
                {
                    "name": "C#5",
                    "midi": 73,
                    "time": 548.572916666677,
                    "velocity": 0.6929133858267716,
                    "duration": 0.3583333333332348
                },
                {
                    "name": "F3",
                    "midi": 53,
                    "time": 548.5833333333436,
                    "velocity": 0.03937007874015748,
                    "duration": 0.10625000000004547
                },
                {
                    "name": "F#3",
                    "midi": 54,
                    "time": 548.5916666666769,
                    "velocity": 0.49606299212598426,
                    "duration": 0.06875000000002274
                },
                {
                    "name": "A3",
                    "midi": 57,
                    "time": 548.6770833333436,
                    "velocity": 0.13385826771653545,
                    "duration": 0.10416666666674246
                },
                {
                    "name": "C4",
                    "midi": 60,
                    "time": 548.7208333333436,
                    "velocity": 0.18110236220472442,
                    "duration": 0.08541666666667425
                },
                {
                    "name": "F#3",
                    "midi": 54,
                    "time": 548.760416666677,
                    "velocity": 0.5118110236220472,
                    "duration": 0.07291666666662877
                },
                {
                    "name": "F3",
                    "midi": 53,
                    "time": 548.791666666677,
                    "velocity": 0.14960629921259844,
                    "duration": 0.06041666666669698
                },
                {
                    "name": "A3",
                    "midi": 57,
                    "time": 548.847916666677,
                    "velocity": 0.3543307086614173,
                    "duration": 0.10624999999993179
                },
                {
                    "name": "C4",
                    "midi": 60,
                    "time": 548.885416666677,
                    "velocity": 0.2283464566929134,
                    "duration": 0.0770833333332348
                },
                {
                    "name": "F#3",
                    "midi": 54,
                    "time": 548.9125000000103,
                    "velocity": 0.5511811023622047,
                    "duration": 0.09791666666660603
                },
                {
                    "name": "C#4",
                    "midi": 61,
                    "time": 548.9437500000103,
                    "velocity": 0.5669291338582677,
                    "duration": 0.08958333333328028
                },
                {
                    "name": "A3",
                    "midi": 57,
                    "time": 549.0145833333436,
                    "velocity": 0.25196850393700787,
                    "duration": 0.09791666666660603
                },
                {
                    "name": "C4",
                    "midi": 60,
                    "time": 549.0333333333435,
                    "velocity": 0.2677165354330709,
                    "duration": 0.09375
                },
                {
                    "name": "F#3",
                    "midi": 54,
                    "time": 549.0958333333435,
                    "velocity": 0.25984251968503935,
                    "duration": 0.05833333333328028
                },
                {
                    "name": "C#4",
                    "midi": 61,
                    "time": 549.1041666666769,
                    "velocity": 0.5433070866141733,
                    "duration": 0.08333333333325754
                },
                {
                    "name": "A3",
                    "midi": 57,
                    "time": 549.1604166666768,
                    "velocity": 0.2125984251968504,
                    "duration": 0.2895833333330984
                },
                {
                    "name": "C4",
                    "midi": 60,
                    "time": 549.1895833333434,
                    "velocity": 0.18110236220472442,
                    "duration": 0.1083333333332348
                },
                {
                    "name": "C#4",
                    "midi": 61,
                    "time": 549.1979166666767,
                    "velocity": 0.6456692913385826,
                    "duration": 0.15208333333328028
                },
                {
                    "name": "F4",
                    "midi": 65,
                    "time": 549.2166666666767,
                    "velocity": 0.5984251968503937,
                    "duration": 0.23958333333325754
                },
                {
                    "name": "F#3",
                    "midi": 54,
                    "time": 549.26250000001,
                    "velocity": 0.4094488188976378,
                    "duration": 0.07291666666662877
                },
                {
                    "name": "F3",
                    "midi": 53,
                    "time": 549.28125000001,
                    "velocity": 0.13385826771653545,
                    "duration": 0.09166666666669698
                },
                {
                    "name": "C4",
                    "midi": 60,
                    "time": 549.3645833333434,
                    "velocity": 0.10236220472440945,
                    "duration": 0.27083333333314386
                },
                {
                    "name": "G#4",
                    "midi": 68,
                    "time": 549.4020833333433,
                    "velocity": 0.6614173228346457,
                    "duration": 0.2624999999998181
                },
                {
                    "name": "D#2",
                    "midi": 39,
                    "time": 549.4020833333433,
                    "velocity": 0.5196850393700787,
                    "duration": 0.36458333333314386
                },
                {
                    "name": "B4",
                    "midi": 71,
                    "time": 549.4083333333433,
                    "velocity": 0.6614173228346457,
                    "duration": 0.25416666666649235
                },
                {
                    "name": "F#3",
                    "midi": 54,
                    "time": 549.4187500000099,
                    "velocity": 0.4251968503937008,
                    "duration": 0.08124999999995453
                },
                {
                    "name": "C#4",
                    "midi": 61,
                    "time": 549.4375000000099,
                    "velocity": 0.4409448818897638,
                    "duration": 0.08958333333328028
                },
                {
                    "name": "A3",
                    "midi": 57,
                    "time": 549.5187500000098,
                    "velocity": 0.09448818897637795,
                    "duration": 0.11041666666665151
                },
                {
                    "name": "F#3",
                    "midi": 54,
                    "time": 549.6000000000098,
                    "velocity": 0.3858267716535433,
                    "duration": 0.09999999999990905
                },
                {
                    "name": "C#4",
                    "midi": 61,
                    "time": 549.6291666666765,
                    "velocity": 0.47244094488188976,
                    "duration": 0.0770833333332348
                },
                {
                    "name": "A3",
                    "midi": 57,
                    "time": 549.6979166666764,
                    "velocity": 0.11811023622047244,
                    "duration": 0.6708333333332348
                },
                {
                    "name": "D#3",
                    "midi": 51,
                    "time": 549.739583333343,
                    "velocity": 0.7480314960629921,
                    "duration": 0.07708333333346218
                },
                {
                    "name": "C4",
                    "midi": 60,
                    "time": 549.7520833333431,
                    "velocity": 0.05511811023622047,
                    "duration": 0.0645833333334167
                },
                {
                    "name": "F#3",
                    "midi": 54,
                    "time": 549.7916666666764,
                    "velocity": 0.31496062992125984,
                    "duration": 0.08333333333337123
                },
                {
                    "name": "C#4",
                    "midi": 61,
                    "time": 549.8125000000098,
                    "velocity": 0.5354330708661418,
                    "duration": 0.07708333333334849
                },
                {
                    "name": "D#4",
                    "midi": 63,
                    "time": 549.8854166666764,
                    "velocity": 0.7480314960629921,
                    "duration": 0.15625
                },
                {
                    "name": "C4",
                    "midi": 60,
                    "time": 549.9000000000098,
                    "velocity": 0.6220472440944882,
                    "duration": 0.08958333333328028
                },
                {
                    "name": "F#3",
                    "midi": 54,
                    "time": 549.989583333343,
                    "velocity": 0.2992125984251969,
                    "duration": 0.07291666666674246
                },
                {
                    "name": "C#4",
                    "midi": 61,
                    "time": 550.0020833333431,
                    "velocity": 0.49606299212598426,
                    "duration": 0.06041666666669698
                },
                {
                    "name": "A4",
                    "midi": 69,
                    "time": 550.0895833333431,
                    "velocity": 0.7244094488188977,
                    "duration": 0.3562499999999318
                },
                {
                    "name": "F#4",
                    "midi": 66,
                    "time": 550.0937500000098,
                    "velocity": 0.7480314960629921,
                    "duration": 0.3854166666665151
                },
                {
                    "name": "C4",
                    "midi": 60,
                    "time": 550.1145833333431,
                    "velocity": 0.07874015748031496,
                    "duration": 0.06666666666660603
                },
                {
                    "name": "F#3",
                    "midi": 54,
                    "time": 550.1645833333431,
                    "velocity": 0.36220472440944884,
                    "duration": 0.08333333333325754
                },
                {
                    "name": "C#4",
                    "midi": 61,
                    "time": 550.1791666666765,
                    "velocity": 0.5118110236220472,
                    "duration": 0.05833333333328028
                },
                {
                    "name": "C4",
                    "midi": 60,
                    "time": 550.2770833333431,
                    "velocity": 0.05511811023622047,
                    "duration": 0.06458333333330302
                },
                {
                    "name": "C#4",
                    "midi": 61,
                    "time": 550.345833333343,
                    "velocity": 0.48031496062992124,
                    "duration": 0.08333333333337123
                },
                {
                    "name": "F#3",
                    "midi": 54,
                    "time": 550.3645833333429,
                    "velocity": 0.3858267716535433,
                    "duration": 0.07500000000004547
                },
                {
                    "name": "A3",
                    "midi": 57,
                    "time": 550.445833333343,
                    "velocity": 0.13385826771653545,
                    "duration": 0.125
                },
                {
                    "name": "D#1",
                    "midi": 27,
                    "time": 550.464583333343,
                    "velocity": 0.7952755905511811,
                    "duration": 0.3812500000001364
                },
                {
                    "name": "C#4",
                    "midi": 61,
                    "time": 550.5437500000096,
                    "velocity": 0.1732283464566929,
                    "duration": 0.058333333333393966
                },
                {
                    "name": "F#3",
                    "midi": 54,
                    "time": 550.558333333343,
                    "velocity": 0.47244094488188976,
                    "duration": 0.09375000000011369
                },
                {
                    "name": "F3",
                    "midi": 53,
                    "time": 550.5812500000096,
                    "velocity": 0.05511811023622047,
                    "duration": 0.058333333333393966
                },
                {
                    "name": "A3",
                    "midi": 57,
                    "time": 550.595833333343,
                    "velocity": 0.4881889763779528,
                    "duration": 0.20833333333337123
                },
                {
                    "name": "C4",
                    "midi": 60,
                    "time": 550.6229166666764,
                    "velocity": 0.5354330708661418,
                    "duration": 0.16458333333332575
                },
                {
                    "name": "C#4",
                    "midi": 61,
                    "time": 550.6916666666764,
                    "velocity": 0.4251968503937008,
                    "duration": 0.09791666666660603
                },
                {
                    "name": "F#3",
                    "midi": 54,
                    "time": 550.7979166666763,
                    "velocity": 0.5275590551181102,
                    "duration": 0.20833333333337123
                },
                {
                    "name": "D#2",
                    "midi": 39,
                    "time": 550.8187500000097,
                    "velocity": 0.6614173228346457,
                    "duration": 0.05625000000009095
                },
                {
                    "name": "C#3",
                    "midi": 49,
                    "time": 550.8312500000097,
                    "velocity": 0.5590551181102362,
                    "duration": 0.17708333333325754
                },
                {
                    "name": "G#4",
                    "midi": 68,
                    "time": 550.8354166666765,
                    "velocity": 0.7007874015748031,
                    "duration": 0.3583333333331211
                },
                {
                    "name": "F4",
                    "midi": 65,
                    "time": 550.8520833333431,
                    "velocity": 0.3543307086614173,
                    "duration": 0.4791666666665151
                },
                {
                    "name": "G#3",
                    "midi": 56,
                    "time": 550.9875000000097,
                    "velocity": 0.5196850393700787,
                    "duration": 0.07916666666653782
                },
                {
                    "name": "F3",
                    "midi": 53,
                    "time": 551.0479166666763,
                    "velocity": 0.4251968503937008,
                    "duration": 0.2645833333332348
                },
                {
                    "name": "A3",
                    "midi": 57,
                    "time": 551.1083333333429,
                    "velocity": 0.31496062992125984,
                    "duration": 0.09791666666671972
                },
                {
                    "name": "F#3",
                    "midi": 54,
                    "time": 551.1333333333429,
                    "velocity": 0.23622047244094488,
                    "duration": 0.058333333333393966
                },
                {
                    "name": "C#3",
                    "midi": 49,
                    "time": 551.1375000000096,
                    "velocity": 0.10236220472440945,
                    "duration": 0.054166666666674246
                },
                {
                    "name": "G#3",
                    "midi": 56,
                    "time": 551.1750000000096,
                    "velocity": 0.5511811023622047,
                    "duration": 0.0625
                },
                {
                    "name": "C#3",
                    "midi": 49,
                    "time": 551.1979166666763,
                    "velocity": 0.6299212598425197,
                    "duration": 0.08333333333325754
                },
                {
                    "name": "A3",
                    "midi": 57,
                    "time": 551.2645833333429,
                    "velocity": 0.12598425196850394,
                    "duration": 0.1104166666667652
                },
                {
                    "name": "C#3",
                    "midi": 49,
                    "time": 551.3166666666763,
                    "velocity": 0.2047244094488189,
                    "duration": 0.07083333333343944
                },
                {
                    "name": "F#3",
                    "midi": 54,
                    "time": 551.3166666666763,
                    "velocity": 0.4015748031496063,
                    "duration": 0.05208333333337123
                },
                {
                    "name": "G#3",
                    "midi": 56,
                    "time": 551.3500000000096,
                    "velocity": 0.44881889763779526,
                    "duration": 0.11041666666687888
                },
                {
                    "name": "C4",
                    "midi": 60,
                    "time": 551.3645833333429,
                    "velocity": 0.49606299212598426,
                    "duration": 0.2520833333335304
                },
                {
                    "name": "F3",
                    "midi": 53,
                    "time": 551.4104166666764,
                    "velocity": 0.16535433070866143,
                    "duration": 0.09791666666683341
                },
                {
                    "name": "A3",
                    "midi": 57,
                    "time": 551.4458333333431,
                    "velocity": 0.13385826771653545,
                    "duration": 0.32291666666674246
                },
                {
                    "name": "F#3",
                    "midi": 54,
                    "time": 551.4958333333432,
                    "velocity": 0.49606299212598426,
                    "duration": 0.08749999999997726
                },
                {
                    "name": "C#3",
                    "midi": 49,
                    "time": 551.5187500000098,
                    "velocity": 0.2283464566929134,
                    "duration": 0.08124999999995453
                },
                {
                    "name": "G#3",
                    "midi": 56,
                    "time": 551.5395833333432,
                    "velocity": 0.4566929133858268,
                    "duration": 0.07499999999993179
                },
                {
                    "name": "F#4",
                    "midi": 66,
                    "time": 551.5854166666765,
                    "velocity": 0.6299212598425197,
                    "duration": 0.2958333333332348
                },
                {
                    "name": "C#4",
                    "midi": 61,
                    "time": 551.5916666666765,
                    "velocity": 0.5984251968503937,
                    "duration": 0.3062499999998636
                },
                {
                    "name": "D#2",
                    "midi": 39,
                    "time": 551.5979166666765,
                    "velocity": 0.5984251968503937,
                    "duration": 0.4791666666665151
                },
                {
                    "name": "F3",
                    "midi": 53,
                    "time": 551.6354166666764,
                    "velocity": 0.30708661417322836,
                    "duration": 0.17083333333346218
                },
                {
                    "name": "G#3",
                    "midi": 56,
                    "time": 551.7312500000098,
                    "velocity": 0.4094488188976378,
                    "duration": 0.12708333333330302
                },
                {
                    "name": "C#3",
                    "midi": 49,
                    "time": 551.8166666666765,
                    "velocity": 0.5275590551181102,
                    "duration": 0.13333333333321207
                },
                {
                    "name": "F#3",
                    "midi": 54,
                    "time": 551.8604166666764,
                    "velocity": 0.4094488188976378,
                    "duration": 0.11666666666656056
                },
                {
                    "name": "A2",
                    "midi": 45,
                    "time": 551.8791666666764,
                    "velocity": 0.1968503937007874,
                    "duration": 0.6354166666666288
                },
                {
                    "name": "D#3",
                    "midi": 51,
                    "time": 552.014583333343,
                    "velocity": 0.5354330708661418,
                    "duration": 0.07708333333334849
                },
                {
                    "name": "C#3",
                    "midi": 49,
                    "time": 552.033333333343,
                    "velocity": 0.3543307086614173,
                    "duration": 0.11666666666667425
                },
                {
                    "name": "F#3",
                    "midi": 54,
                    "time": 552.0812500000097,
                    "velocity": 0.2677165354330709,
                    "duration": 0.08749999999986358
                },
                {
                    "name": "F#3",
                    "midi": 54,
                    "time": 552.1729166666763,
                    "velocity": 0.4409448818897638,
                    "duration": 0.1708333333333485
                },
                {
                    "name": "F3",
                    "midi": 53,
                    "time": 552.1812500000096,
                    "velocity": 0.07874015748031496,
                    "duration": 0.65625
                },
                {
                    "name": "A3",
                    "midi": 57,
                    "time": 552.189583333343,
                    "velocity": 0.3858267716535433,
                    "duration": 0.21041666666667425
                },
                {
                    "name": "C#3",
                    "midi": 49,
                    "time": 552.2437500000096,
                    "velocity": 0.3937007874015748,
                    "duration": 0.11041666666665151
                },
                {
                    "name": "C#4",
                    "midi": 61,
                    "time": 552.4375000000097,
                    "velocity": 0.5669291338582677,
                    "duration": 0.5874999999999773
                },
                {
                    "name": "F#3",
                    "midi": 54,
                    "time": 552.4479166666763,
                    "velocity": 0.2677165354330709,
                    "duration": 0.07500000000004547
                },
                {
                    "name": "C#3",
                    "midi": 49,
                    "time": 552.4625000000096,
                    "velocity": 0.29133858267716534,
                    "duration": 0.11250000000006821
                },
                {
                    "name": "E4",
                    "midi": 64,
                    "time": 552.470833333343,
                    "velocity": 0.5118110236220472,
                    "duration": 0.4500000000000455
                },
                {
                    "name": "F#3",
                    "midi": 54,
                    "time": 552.602083333343,
                    "velocity": 0.15748031496062992,
                    "duration": 0.30624999999997726
                },
                {
                    "name": "A2",
                    "midi": 45,
                    "time": 552.6479166666763,
                    "velocity": 0.09448818897637795,
                    "duration": 0.24583333333328028
                },
                {
                    "name": "C#3",
                    "midi": 49,
                    "time": 552.7791666666764,
                    "velocity": 0.07874015748031496,
                    "duration": 0.07499999999993179
                },
                {
                    "name": "E2",
                    "midi": 40,
                    "time": 552.9437500000097,
                    "velocity": 0.41732283464566927,
                    "duration": 0.22083333333330302
                },
                {
                    "name": "E3",
                    "midi": 52,
                    "time": 552.9687500000097,
                    "velocity": 0.4645669291338583,
                    "duration": 0.10416666666662877
                },
                {
                    "name": "E3",
                    "midi": 52,
                    "time": 553.152083333343,
                    "velocity": 0.4409448818897638,
                    "duration": 0.15625
                },
                {
                    "name": "C#4",
                    "midi": 61,
                    "time": 553.1916666666763,
                    "velocity": 0.6456692913385826,
                    "duration": 0.07916666666665151
                },
                {
                    "name": "C#4",
                    "midi": 61,
                    "time": 553.3666666666762,
                    "velocity": 0.7322834645669292,
                    "duration": 0.08749999999997726
                },
                {
                    "name": "F2",
                    "midi": 41,
                    "time": 553.3729166666762,
                    "velocity": 0.49606299212598426,
                    "duration": 0.22291666666660603
                },
                {
                    "name": "E3",
                    "midi": 52,
                    "time": 553.5437500000095,
                    "velocity": 0.44881889763779526,
                    "duration": 0.1750000000000682
                },
                {
                    "name": "F#3",
                    "midi": 54,
                    "time": 553.6937500000096,
                    "velocity": 0.7007874015748031,
                    "duration": 0.12083333333328028
                },
                {
                    "name": "F#2",
                    "midi": 42,
                    "time": 553.7166666666762,
                    "velocity": 0.5590551181102362,
                    "duration": 0.14374999999984084
                },
                {
                    "name": "C#4",
                    "midi": 61,
                    "time": 553.8416666666761,
                    "velocity": 0.7244094488188977,
                    "duration": 0.09375
                },
                {
                    "name": "E3",
                    "midi": 52,
                    "time": 553.8437500000094,
                    "velocity": 0.5275590551181102,
                    "duration": 0.2020833333333485
                },
                {
                    "name": "C#4",
                    "midi": 61,
                    "time": 554.0270833333428,
                    "velocity": 0.7874015748031497,
                    "duration": 0.09791666666671972
                },
                {
                    "name": "G2",
                    "midi": 43,
                    "time": 554.0354166666762,
                    "velocity": 0.6535433070866141,
                    "duration": 0.2041666666666515
                },
                {
                    "name": "E3",
                    "midi": 52,
                    "time": 554.1666666666762,
                    "velocity": 0.5590551181102362,
                    "duration": 0.20416666666653782
                },
                {
                    "name": "G#2",
                    "midi": 44,
                    "time": 554.3500000000095,
                    "velocity": 0.6299212598425197,
                    "duration": 0.14999999999997726
                },
                {
                    "name": "G#3",
                    "midi": 56,
                    "time": 554.3520833333428,
                    "velocity": 0.8346456692913385,
                    "duration": 0.14374999999995453
                },
                {
                    "name": "E3",
                    "midi": 52,
                    "time": 554.4812500000094,
                    "velocity": 0.5748031496062992,
                    "duration": 0.19166666666671972
                },
                {
                    "name": "C#4",
                    "midi": 61,
                    "time": 554.4937500000094,
                    "velocity": 0.8110236220472441,
                    "duration": 0.10000000000002274
                },
                {
                    "name": "A2",
                    "midi": 45,
                    "time": 554.6791666666761,
                    "velocity": 0.6929133858267716,
                    "duration": 0.15625
                },
                {
                    "name": "C#4",
                    "midi": 61,
                    "time": 554.6791666666761,
                    "velocity": 0.7874015748031497,
                    "duration": 0.08541666666667425
                },
                {
                    "name": "E3",
                    "midi": 52,
                    "time": 554.8062500000094,
                    "velocity": 0.6377952755905512,
                    "duration": 0.24375000000009095
                },
                {
                    "name": "A#2",
                    "midi": 46,
                    "time": 555.0250000000094,
                    "velocity": 0.7165354330708661,
                    "duration": 0.16875000000004547
                },
                {
                    "name": "D3",
                    "midi": 50,
                    "time": 555.0312500000094,
                    "velocity": 0.7007874015748031,
                    "duration": 0.12083333333339397
                },
                {
                    "name": "A#3",
                    "midi": 58,
                    "time": 555.0354166666762,
                    "velocity": 0.7322834645669292,
                    "duration": 0.2770833333332803
                },
                {
                    "name": "E3",
                    "midi": 52,
                    "time": 555.1937500000095,
                    "velocity": 0.5354330708661418,
                    "duration": 0.15208333333328028
                },
                {
                    "name": "C#4",
                    "midi": 61,
                    "time": 555.3916666666761,
                    "velocity": 0.905511811023622,
                    "duration": 0.43333333333339397
                },
                {
                    "name": "B2",
                    "midi": 47,
                    "time": 555.3958333333428,
                    "velocity": 0.7952755905511811,
                    "duration": 0.20624999999995453
                },
                {
                    "name": "E3",
                    "midi": 52,
                    "time": 555.5437500000095,
                    "velocity": 0.6456692913385826,
                    "duration": 0.14791666666667425
                },
                {
                    "name": "C3",
                    "midi": 48,
                    "time": 555.7250000000095,
                    "velocity": 0.9133858267716536,
                    "duration": 0.16666666666662877
                },
                {
                    "name": "E3",
                    "midi": 52,
                    "time": 555.8583333333428,
                    "velocity": 0.6614173228346457,
                    "duration": 0.21041666666667425
                },
                {
                    "name": "B3",
                    "midi": 59,
                    "time": 555.8812500000095,
                    "velocity": 0.7401574803149606,
                    "duration": 0.16041666666660603
                },
                {
                    "name": "F#4",
                    "midi": 66,
                    "time": 556.0500000000094,
                    "velocity": 0.8346456692913385,
                    "duration": 0.20000000000004547
                },
                {
                    "name": "C#3",
                    "midi": 49,
                    "time": 556.0541666666761,
                    "velocity": 0.8346456692913385,
                    "duration": 0.2020833333333485
                },
                {
                    "name": "E3",
                    "midi": 52,
                    "time": 556.2000000000095,
                    "velocity": 0.6929133858267716,
                    "duration": 0.2229166666668334
                },
                {
                    "name": "C#4",
                    "midi": 61,
                    "time": 556.2083333333428,
                    "velocity": 0.84251968503937,
                    "duration": 0.14374999999995453
                },
                {
                    "name": "D3",
                    "midi": 50,
                    "time": 556.3937500000095,
                    "velocity": 0.8503937007874016,
                    "duration": 0.13958333333346218
                },
                {
                    "name": "F#4",
                    "midi": 66,
                    "time": 556.3979166666762,
                    "velocity": 0.8188976377952756,
                    "duration": 0.21250000000009095
                },
                {
                    "name": "E3",
                    "midi": 52,
                    "time": 556.5187500000096,
                    "velocity": 0.7559055118110236,
                    "duration": 0.19375000000002274
                },
                {
                    "name": "C#4",
                    "midi": 61,
                    "time": 556.527083333343,
                    "velocity": 0.7401574803149606,
                    "duration": 0.11041666666665151
                },
                {
                    "name": "D#3",
                    "midi": 51,
                    "time": 556.7104166666763,
                    "velocity": 0.9448818897637795,
                    "duration": 0.05624999999997726
                },
                {
                    "name": "E4",
                    "midi": 64,
                    "time": 556.714583333343,
                    "velocity": 0.9291338582677166,
                    "duration": 0.08125000000006821
                },
                {
                    "name": "G1",
                    "midi": 31,
                    "time": 557.1458333333431,
                    "velocity": 0.9606299212598425,
                    "duration": 0.19791666666662877
                },
                {
                    "name": "G2",
                    "midi": 43,
                    "time": 557.1583333333432,
                    "velocity": 0.9606299212598425,
                    "duration": 0.08124999999995453
                },
                {
                    "name": "F#1",
                    "midi": 30,
                    "time": 557.2937500000098,
                    "velocity": 0.9291338582677166,
                    "duration": 0.08541666666667425
                },
                {
                    "name": "F#2",
                    "midi": 42,
                    "time": 557.3020833333431,
                    "velocity": 0.937007874015748,
                    "duration": 0.07708333333334849
                },
                {
                    "name": "G2",
                    "midi": 43,
                    "time": 557.4625000000099,
                    "velocity": 0.9291338582677166,
                    "duration": 0.08750000000009095
                },
                {
                    "name": "G1",
                    "midi": 31,
                    "time": 557.4666666666766,
                    "velocity": 0.9212598425196851,
                    "duration": 0.10416666666674246
                },
                {
                    "name": "F#1",
                    "midi": 30,
                    "time": 557.5916666666767,
                    "velocity": 0.8976377952755905,
                    "duration": 0.08750000000009095
                },
                {
                    "name": "F#2",
                    "midi": 42,
                    "time": 557.6125000000101,
                    "velocity": 0.9133858267716536,
                    "duration": 0.07708333333334849
                },
                {
                    "name": "F1",
                    "midi": 29,
                    "time": 557.7708333333434,
                    "velocity": 0.9763779527559056,
                    "duration": 0.08333333333325754
                },
                {
                    "name": "F2",
                    "midi": 41,
                    "time": 557.78125000001,
                    "velocity": 0.9763779527559056,
                    "duration": 0.05833333333328028
                },
                {
                    "name": "E2",
                    "midi": 40,
                    "time": 557.9270833333433,
                    "velocity": 0.952755905511811,
                    "duration": 0.07291666666674246
                },
                {
                    "name": "E1",
                    "midi": 28,
                    "time": 557.9291666666766,
                    "velocity": 0.9763779527559056,
                    "duration": 0.2041666666667652
                },
                {
                    "name": "E2",
                    "midi": 40,
                    "time": 558.0416666666766,
                    "velocity": 0.84251968503937,
                    "duration": 0.25833333333332575
                },
                {
                    "name": "E4",
                    "midi": 64,
                    "time": 558.2208333333433,
                    "velocity": 0.7795275590551181,
                    "duration": 0.17916666666667425
                },
                {
                    "name": "C#5",
                    "midi": 73,
                    "time": 558.4708333333433,
                    "velocity": 0.5905511811023622,
                    "duration": 0.05624999999997726
                },
                {
                    "name": "A#2",
                    "midi": 46,
                    "time": 558.65000000001,
                    "velocity": 0.5590551181102362,
                    "duration": 0.18541666666681067
                },
                {
                    "name": "C#5",
                    "midi": 73,
                    "time": 558.66250000001,
                    "velocity": 0.6929133858267716,
                    "duration": 0.08958333333339397
                },
                {
                    "name": "F3",
                    "midi": 53,
                    "time": 558.6750000000101,
                    "velocity": 0.4566929133858268,
                    "duration": 0.12291666666669698
                },
                {
                    "name": "D3",
                    "midi": 50,
                    "time": 558.6791666666768,
                    "velocity": 0.47244094488188976,
                    "duration": 0.08958333333328028
                },
                {
                    "name": "F#3",
                    "midi": 54,
                    "time": 559.0104166666767,
                    "velocity": 0.6929133858267716,
                    "duration": 0.1416666666666515
                },
                {
                    "name": "B2",
                    "midi": 47,
                    "time": 559.0145833333435,
                    "velocity": 0.47244094488188976,
                    "duration": 0.2666666666665378
                },
                {
                    "name": "D#3",
                    "midi": 51,
                    "time": 559.0166666666768,
                    "velocity": 0.5826771653543307,
                    "duration": 0.11041666666665151
                },
                {
                    "name": "F#4",
                    "midi": 66,
                    "time": 559.0375000000101,
                    "velocity": 0.7165354330708661,
                    "duration": 0.0625
                },
                {
                    "name": "C#5",
                    "midi": 73,
                    "time": 559.1770833333434,
                    "velocity": 0.7480314960629921,
                    "duration": 0.09375
                },
                {
                    "name": "C#5",
                    "midi": 73,
                    "time": 559.35000000001,
                    "velocity": 0.8976377952755905,
                    "duration": 0.09999999999990905
                },
                {
                    "name": "C3",
                    "midi": 48,
                    "time": 559.3583333333434,
                    "velocity": 0.6929133858267716,
                    "duration": 0.08124999999995453
                },
                {
                    "name": "G3",
                    "midi": 55,
                    "time": 559.3604166666767,
                    "velocity": 0.6614173228346457,
                    "duration": 0.07708333333334849
                },
                {
                    "name": "E3",
                    "midi": 52,
                    "time": 559.3666666666767,
                    "velocity": 0.6456692913385826,
                    "duration": 0.043750000000045475
                },
                {
                    "name": "C#3",
                    "midi": 49,
                    "time": 559.6666666666766,
                    "velocity": 0.7637795275590551,
                    "duration": 0.1229166666665833
                },
                {
                    "name": "G#3",
                    "midi": 56,
                    "time": 559.6729166666767,
                    "velocity": 0.7716535433070866,
                    "duration": 0.11666666666656056
                },
                {
                    "name": "G#4",
                    "midi": 68,
                    "time": 559.67500000001,
                    "velocity": 0.84251968503937,
                    "duration": 0.0770833333332348
                },
                {
                    "name": "F3",
                    "midi": 53,
                    "time": 559.6854166666766,
                    "velocity": 0.5590551181102362,
                    "duration": 0.04791666666665151
                },
                {
                    "name": "C#5",
                    "midi": 73,
                    "time": 559.8354166666766,
                    "velocity": 0.8503937007874016,
                    "duration": 0.09791666666671972
                },
                {
                    "name": "F#3",
                    "midi": 54,
                    "time": 560.00000000001,
                    "velocity": 0.7559055118110236,
                    "duration": 0.12708333333318933
                },
                {
                    "name": "D3",
                    "midi": 50,
                    "time": 560.00000000001,
                    "velocity": 0.7952755905511811,
                    "duration": 0.1541666666664696
                },
                {
                    "name": "A3",
                    "midi": 57,
                    "time": 560.0020833333433,
                    "velocity": 0.7165354330708661,
                    "duration": 0.11666666666656056
                },
                {
                    "name": "C#5",
                    "midi": 73,
                    "time": 560.0041666666766,
                    "velocity": 0.889763779527559,
                    "duration": 0.13124999999990905
                },
                {
                    "name": "D#3",
                    "midi": 51,
                    "time": 560.3520833333431,
                    "velocity": 0.7952755905511811,
                    "duration": 0.11666666666667425
                },
                {
                    "name": "A#3",
                    "midi": 58,
                    "time": 560.3520833333431,
                    "velocity": 0.84251968503937,
                    "duration": 0.11874999999997726
                },
                {
                    "name": "A#4",
                    "midi": 70,
                    "time": 560.3520833333431,
                    "velocity": 0.968503937007874,
                    "duration": 0.17499999999995453
                },
                {
                    "name": "G3",
                    "midi": 55,
                    "time": 560.3604166666764,
                    "velocity": 0.6141732283464567,
                    "duration": 0.06458333333330302
                },
                {
                    "name": "C#5",
                    "midi": 73,
                    "time": 560.6958333333431,
                    "velocity": 0.9448818897637795,
                    "duration": 0.2020833333333485
                },
                {
                    "name": "B3",
                    "midi": 59,
                    "time": 560.7083333333431,
                    "velocity": 0.8740157480314961,
                    "duration": 0.08333333333325754
                },
                {
                    "name": "G#3",
                    "midi": 56,
                    "time": 560.7104166666765,
                    "velocity": 0.8267716535433071,
                    "duration": 0.09375
                },
                {
                    "name": "E3",
                    "midi": 52,
                    "time": 560.7125000000098,
                    "velocity": 0.84251968503937,
                    "duration": 0.1416666666666515
                },
                {
                    "name": "C4",
                    "midi": 60,
                    "time": 561.0333333333431,
                    "velocity": 0.9212598425196851,
                    "duration": 0.08958333333328028
                },
                {
                    "name": "F3",
                    "midi": 53,
                    "time": 561.0354166666764,
                    "velocity": 0.8740157480314961,
                    "duration": 0.08541666666667425
                },
                {
                    "name": "A3",
                    "midi": 57,
                    "time": 561.0354166666764,
                    "velocity": 0.8188976377952756,
                    "duration": 0.07083333333332575
                },
                {
                    "name": "B4",
                    "midi": 71,
                    "time": 561.1875000000097,
                    "velocity": 0.7795275590551181,
                    "duration": 0.1395833333333485
                },
                {
                    "name": "C#4",
                    "midi": 61,
                    "time": 561.3708333333431,
                    "velocity": 0.9291338582677166,
                    "duration": 0.09583333333353039
                },
                {
                    "name": "A#3",
                    "midi": 58,
                    "time": 561.3770833333431,
                    "velocity": 0.8267716535433071,
                    "duration": 0.07083333333343944
                },
                {
                    "name": "F#3",
                    "midi": 54,
                    "time": 561.3770833333431,
                    "velocity": 0.8188976377952756,
                    "duration": 0.08541666666678793
                },
                {
                    "name": "F#5",
                    "midi": 78,
                    "time": 561.3812500000098,
                    "velocity": 0.905511811023622,
                    "duration": 0.19583333333355313
                },
                {
                    "name": "C#5",
                    "midi": 73,
                    "time": 561.5229166666766,
                    "velocity": 0.9291338582677166,
                    "duration": 0.1250000000001137
                },
                {
                    "name": "F#5",
                    "midi": 78,
                    "time": 561.6979166666767,
                    "velocity": 0.905511811023622,
                    "duration": 0.17708333333325754
                },
                {
                    "name": "D4",
                    "midi": 62,
                    "time": 561.70000000001,
                    "velocity": 0.9291338582677166,
                    "duration": 0.07916666666665151
                },
                {
                    "name": "G3",
                    "midi": 55,
                    "time": 561.7020833333434,
                    "velocity": 0.8503937007874016,
                    "duration": 0.07708333333334849
                },
                {
                    "name": "B3",
                    "midi": 59,
                    "time": 561.7020833333434,
                    "velocity": 0.8503937007874016,
                    "duration": 0.06458333333330302
                },
                {
                    "name": "C#5",
                    "midi": 73,
                    "time": 561.8270833333434,
                    "velocity": 0.905511811023622,
                    "duration": 0.10625000000004547
                },
                {
                    "name": "C4",
                    "midi": 60,
                    "time": 562.00625000001,
                    "velocity": 0.7952755905511811,
                    "duration": 0.04166666666662877
                },
                {
                    "name": "D#4",
                    "midi": 63,
                    "time": 562.00625000001,
                    "velocity": 0.8582677165354331,
                    "duration": 0.060416666666583296
                },
                {
                    "name": "G#3",
                    "midi": 56,
                    "time": 562.0083333333433,
                    "velocity": 0.7795275590551181,
                    "duration": 0.07499999999993179
                },
                {
                    "name": "E5",
                    "midi": 76,
                    "time": 562.0208333333434,
                    "velocity": 0.952755905511811,
                    "duration": 0.09999999999990905
                },
                {
                    "name": "E2",
                    "midi": 40,
                    "time": 562.3416666666766,
                    "velocity": 0.7716535433070866,
                    "duration": 0.06875000000002274
                },
                {
                    "name": "E3",
                    "midi": 52,
                    "time": 562.3520833333432,
                    "velocity": 0.9291338582677166,
                    "duration": 0.06875000000002274
                },
                {
                    "name": "E5",
                    "midi": 76,
                    "time": 562.3583333333432,
                    "velocity": 0.8110236220472441,
                    "duration": 0.11249999999995453
                },
                {
                    "name": "C#5",
                    "midi": 73,
                    "time": 562.36250000001,
                    "velocity": 0.8267716535433071,
                    "duration": 0.08333333333325754
                },
                {
                    "name": "C#6",
                    "midi": 85,
                    "time": 562.5250000000099,
                    "velocity": 0.7165354330708661,
                    "duration": 0.10625000000004547
                },
                {
                    "name": "F4",
                    "midi": 65,
                    "time": 562.6958333333432,
                    "velocity": 0.7637795275590551,
                    "duration": 0.06874999999990905
                },
                {
                    "name": "A#3",
                    "midi": 58,
                    "time": 562.6958333333432,
                    "velocity": 0.7716535433070866,
                    "duration": 0.07499999999993179
                },
                {
                    "name": "C#6",
                    "midi": 85,
                    "time": 562.6979166666765,
                    "velocity": 0.7637795275590551,
                    "duration": 0.14166666666653782
                },
                {
                    "name": "D4",
                    "midi": 62,
                    "time": 562.6979166666765,
                    "velocity": 0.7322834645669292,
                    "duration": 0.039583333333325754
                },
                {
                    "name": "F5",
                    "midi": 77,
                    "time": 562.7062500000098,
                    "velocity": 0.7874015748031497,
                    "duration": 0.09374999999988631
                },
                {
                    "name": "C#5",
                    "midi": 73,
                    "time": 562.7062500000098,
                    "velocity": 0.8110236220472441,
                    "duration": 0.07499999999993179
                },
                {
                    "name": "F#5",
                    "midi": 78,
                    "time": 563.0187500000097,
                    "velocity": 0.8976377952755905,
                    "duration": 0.19166666666671972
                },
                {
                    "name": "F#4",
                    "midi": 66,
                    "time": 563.0270833333431,
                    "velocity": 0.8818897637795275,
                    "duration": 0.08749999999997726
                },
                {
                    "name": "C#5",
                    "midi": 73,
                    "time": 563.0270833333431,
                    "velocity": 0.8346456692913385,
                    "duration": 0.07916666666665151
                },
                {
                    "name": "B3",
                    "midi": 59,
                    "time": 563.0291666666764,
                    "velocity": 0.7952755905511811,
                    "duration": 0.06458333333330302
                },
                {
                    "name": "D#4",
                    "midi": 63,
                    "time": 563.0312500000097,
                    "velocity": 0.7874015748031497,
                    "duration": 0.08125000000006821
                },
                {
                    "name": "C#6",
                    "midi": 85,
                    "time": 563.1500000000098,
                    "velocity": 0.8582677165354331,
                    "duration": 0.11250000000006821
                },
                {
                    "name": "G4",
                    "midi": 67,
                    "time": 563.3250000000098,
                    "velocity": 0.8346456692913385,
                    "duration": 0.08958333333350765
                },
                {
                    "name": "C4",
                    "midi": 60,
                    "time": 563.3291666666765,
                    "velocity": 0.7952755905511811,
                    "duration": 0.07500000000004547
                },
                {
                    "name": "E4",
                    "midi": 64,
                    "time": 563.3312500000098,
                    "velocity": 0.7952755905511811,
                    "duration": 0.06666666666671972
                },
                {
                    "name": "C#6",
                    "midi": 85,
                    "time": 563.3312500000098,
                    "velocity": 0.905511811023622,
                    "duration": 0.1583333333335304
                },
                {
                    "name": "G5",
                    "midi": 79,
                    "time": 563.3354166666766,
                    "velocity": 0.8976377952755905,
                    "duration": 0.10000000000013642
                },
                {
                    "name": "C#5",
                    "midi": 73,
                    "time": 563.3395833333433,
                    "velocity": 0.937007874015748,
                    "duration": 0.06875000000002274
                },
                {
                    "name": "G#4",
                    "midi": 68,
                    "time": 563.6541666666767,
                    "velocity": 0.8976377952755905,
                    "duration": 0.13333333333332575
                },
                {
                    "name": "G#5",
                    "midi": 80,
                    "time": 563.6541666666767,
                    "velocity": 0.9291338582677166,
                    "duration": 0.17499999999995453
                },
                {
                    "name": "C#4",
                    "midi": 61,
                    "time": 563.65625000001,
                    "velocity": 0.7716535433070866,
                    "duration": 0.10000000000002274
                },
                {
                    "name": "F4",
                    "midi": 65,
                    "time": 563.6583333333433,
                    "velocity": 0.7559055118110236,
                    "duration": 0.07291666666674246
                },
                {
                    "name": "C#5",
                    "midi": 73,
                    "time": 563.66250000001,
                    "velocity": 0.952755905511811,
                    "duration": 0.07708333333334849
                },
                {
                    "name": "C#6",
                    "midi": 85,
                    "time": 563.7958333333434,
                    "velocity": 0.8661417322834646,
                    "duration": 0.11250000000006821
                },
                {
                    "name": "C#5",
                    "midi": 73,
                    "time": 563.80625000001,
                    "velocity": 0.44881889763779526,
                    "duration": 0.058333333333393966
                },
                {
                    "name": "A4",
                    "midi": 69,
                    "time": 563.9625000000101,
                    "velocity": 0.8346456692913385,
                    "duration": 0.08958333333339397
                },
                {
                    "name": "D4",
                    "midi": 62,
                    "time": 563.9625000000101,
                    "velocity": 0.8582677165354331,
                    "duration": 0.08541666666667425
                },
                {
                    "name": "F#4",
                    "midi": 66,
                    "time": 563.9645833333434,
                    "velocity": 0.8582677165354331,
                    "duration": 0.10416666666674246
                },
                {
                    "name": "C#6",
                    "midi": 85,
                    "time": 563.9666666666767,
                    "velocity": 0.84251968503937,
                    "duration": 0.2041666666667652
                },
                {
                    "name": "A5",
                    "midi": 81,
                    "time": 563.9708333333434,
                    "velocity": 0.889763779527559,
                    "duration": 0.11666666666667425
                },
                {
                    "name": "C#5",
                    "midi": 73,
                    "time": 563.9729166666767,
                    "velocity": 0.984251968503937,
                    "duration": 0.0958333333334167
                },
                {
                    "name": "A#5",
                    "midi": 82,
                    "time": 564.3041666666768,
                    "velocity": 0.9133858267716536,
                    "duration": 0.16041666666671972
                },
                {
                    "name": "A#4",
                    "midi": 70,
                    "time": 564.3083333333435,
                    "velocity": 0.8976377952755905,
                    "duration": 0.08124999999995453
                },
                {
                    "name": "D#4",
                    "midi": 63,
                    "time": 564.3104166666768,
                    "velocity": 0.8267716535433071,
                    "duration": 0.09375
                },
                {
                    "name": "G4",
                    "midi": 67,
                    "time": 564.3104166666768,
                    "velocity": 0.7952755905511811,
                    "duration": 0.06875000000002274
                },
                {
                    "name": "G5",
                    "midi": 79,
                    "time": 564.3125000000101,
                    "velocity": 0.8818897637795275,
                    "duration": 0.10000000000002274
                },
                {
                    "name": "C#5",
                    "midi": 73,
                    "time": 564.3125000000101,
                    "velocity": 0.9763779527559056,
                    "duration": 0.08958333333339397
                },
                {
                    "name": "C#6",
                    "midi": 85,
                    "time": 564.7020833333435,
                    "velocity": 0.937007874015748,
                    "duration": 0.43333333333339397
                },
                {
                    "name": "B4",
                    "midi": 71,
                    "time": 564.7062500000102,
                    "velocity": 0.8740157480314961,
                    "duration": 0.1395833333333485
                },
                {
                    "name": "G#4",
                    "midi": 68,
                    "time": 564.7083333333435,
                    "velocity": 0.84251968503937,
                    "duration": 0.13333333333332575
                },
                {
                    "name": "E4",
                    "midi": 64,
                    "time": 564.7083333333435,
                    "velocity": 0.8503937007874016,
                    "duration": 0.15625
                },
                {
                    "name": "B5",
                    "midi": 83,
                    "time": 564.7104166666768,
                    "velocity": 0.8740157480314961,
                    "duration": 0.3562500000000455
                },
                {
                    "name": "C#5",
                    "midi": 73,
                    "time": 564.7104166666768,
                    "velocity": 0.984251968503937,
                    "duration": 0.3125
                },
                {
                    "name": "G#5",
                    "midi": 80,
                    "time": 564.7229166666768,
                    "velocity": 0.8188976377952756,
                    "duration": 0.18333333333328028
                },
                {
                    "name": "A4",
                    "midi": 69,
                    "time": 565.1854166666768,
                    "velocity": 0.8740157480314961,
                    "duration": 0.11874999999986358
                },
                {
                    "name": "C5",
                    "midi": 72,
                    "time": 565.1875000000101,
                    "velocity": 0.9212598425196851,
                    "duration": 0.08958333333328028
                },
                {
                    "name": "F4",
                    "midi": 65,
                    "time": 565.1875000000101,
                    "velocity": 0.8110236220472441,
                    "duration": 0.15833333333318933
                },
                {
                    "name": "A5",
                    "midi": 81,
                    "time": 565.2270833333434,
                    "velocity": 0.84251968503937,
                    "duration": 0.09374999999988631
                },
                {
                    "name": "B5",
                    "midi": 83,
                    "time": 565.50625000001,
                    "velocity": 0.9921259842519685,
                    "duration": 0.08541666666667425
                },
                {
                    "name": "F#1",
                    "midi": 30,
                    "time": 565.9000000000101,
                    "velocity": 0.7716535433070866,
                    "duration": 0.06874999999990905
                },
                {
                    "name": "F#2",
                    "midi": 42,
                    "time": 565.9104166666767,
                    "velocity": 0.984251968503937,
                    "duration": 0.08124999999995453
                },
                {
                    "name": "A4",
                    "midi": 69,
                    "time": 565.91250000001,
                    "velocity": 0.7795275590551181,
                    "duration": 0.10208333333332575
                },
                {
                    "name": "G#1",
                    "midi": 32,
                    "time": 565.94375000001,
                    "velocity": 0.48031496062992124,
                    "duration": 0.04374999999993179
                },
                {
                    "name": "C#5",
                    "midi": 73,
                    "time": 565.9854166666767,
                    "velocity": 0.7480314960629921,
                    "duration": 0.08333333333337123
                },
                {
                    "name": "F5",
                    "midi": 77,
                    "time": 566.0583333333434,
                    "velocity": 0.7165354330708661,
                    "duration": 0.04583333333334849
                },
                {
                    "name": "A5",
                    "midi": 81,
                    "time": 566.1833333333434,
                    "velocity": 0.7874015748031497,
                    "duration": 0.16666666666662877
                },
                {
                    "name": "C#6",
                    "midi": 85,
                    "time": 566.31875000001,
                    "velocity": 0.7244094488188977,
                    "duration": 0.08541666666667425
                },
                {
                    "name": "F6",
                    "midi": 89,
                    "time": 566.4458333333433,
                    "velocity": 0.7716535433070866,
                    "duration": 0.07083333333332575
                },
                {
                    "name": "F4",
                    "midi": 65,
                    "time": 566.4458333333433,
                    "velocity": 0.9133858267716536,
                    "duration": 0.06875000000002274
                },
                {
                    "name": "C#6",
                    "midi": 85,
                    "time": 566.4520833333434,
                    "velocity": 0.7874015748031497,
                    "duration": 0.04791666666665151
                },
                {
                    "name": "B3",
                    "midi": 59,
                    "time": 566.4520833333434,
                    "velocity": 0.9133858267716536,
                    "duration": 0.05624999999997726
                },
                {
                    "name": "A6",
                    "midi": 93,
                    "time": 566.4604166666767,
                    "velocity": 0.8818897637795275,
                    "duration": 0.07499999999993179
                },
                {
                    "name": "A5",
                    "midi": 81,
                    "time": 566.4666666666767,
                    "velocity": 0.7322834645669292,
                    "duration": 0.035416666666606034
                },
                {
                    "name": "F4",
                    "midi": 65,
                    "time": 566.9145833333433,
                    "velocity": 0.889763779527559,
                    "duration": 0.05624999999997726
                },
                {
                    "name": "B3",
                    "midi": 59,
                    "time": 566.9166666666766,
                    "velocity": 0.9448818897637795,
                    "duration": 0.05624999999997726
                },
                {
                    "name": "A5",
                    "midi": 81,
                    "time": 567.0895833333433,
                    "velocity": 0.84251968503937,
                    "duration": 0.08541666666667425
                },
                {
                    "name": "C#6",
                    "midi": 85,
                    "time": 567.0979166666766,
                    "velocity": 0.8110236220472441,
                    "duration": 0.15208333333339397
                },
                {
                    "name": "F#1",
                    "midi": 30,
                    "time": 567.3229166666766,
                    "velocity": 0.8582677165354331,
                    "duration": 0.060416666666583296
                },
                {
                    "name": "F#2",
                    "midi": 42,
                    "time": 567.3250000000099,
                    "velocity": 0.9133858267716536,
                    "duration": 0.06666666666660603
                },
                {
                    "name": "G#6",
                    "midi": 92,
                    "time": 567.3333333333433,
                    "velocity": 0.937007874015748,
                    "duration": 0.41041666666660603
                },
                {
                    "name": "E6",
                    "midi": 88,
                    "time": 567.3354166666766,
                    "velocity": 0.8582677165354331,
                    "duration": 0.4208333333333485
                },
                {
                    "name": "G#5",
                    "midi": 80,
                    "time": 567.3354166666766,
                    "velocity": 0.952755905511811,
                    "duration": 0.4375
                },
                {
                    "name": "E4",
                    "midi": 64,
                    "time": 567.7625000000099,
                    "velocity": 0.8346456692913385,
                    "duration": 0.0625
                },
                {
                    "name": "A3",
                    "midi": 57,
                    "time": 567.7645833333432,
                    "velocity": 0.8188976377952756,
                    "duration": 0.0625
                },
                {
                    "name": "A3",
                    "midi": 57,
                    "time": 568.1520833333433,
                    "velocity": 0.84251968503937,
                    "duration": 0.06041666666669698
                },
                {
                    "name": "F#5",
                    "midi": 78,
                    "time": 568.1541666666766,
                    "velocity": 0.9448818897637795,
                    "duration": 0.05208333333337123
                },
                {
                    "name": "F#6",
                    "midi": 90,
                    "time": 568.1562500000099,
                    "velocity": 0.905511811023622,
                    "duration": 0.06250000000011369
                },
                {
                    "name": "E4",
                    "midi": 64,
                    "time": 568.1562500000099,
                    "velocity": 0.7086614173228346,
                    "duration": 0.04166666666674246
                },
                {
                    "name": "C#6",
                    "midi": 85,
                    "time": 568.1604166666766,
                    "velocity": 0.8818897637795275,
                    "duration": 0.0645833333334167
                },
                {
                    "name": "F#1",
                    "midi": 30,
                    "time": 568.5604166666768,
                    "velocity": 0.7480314960629921,
                    "duration": 0.05833333333328028
                },
                {
                    "name": "F#2",
                    "midi": 42,
                    "time": 568.5729166666769,
                    "velocity": 0.9291338582677166,
                    "duration": 0.06458333333318933
                },
                {
                    "name": "E5",
                    "midi": 76,
                    "time": 568.5791666666768,
                    "velocity": 0.7244094488188977,
                    "duration": 0.16041666666660603
                },
                {
                    "name": "A5",
                    "midi": 81,
                    "time": 568.6666666666767,
                    "velocity": 0.6377952755905512,
                    "duration": 0.1875
                },
                {
                    "name": "C#6",
                    "midi": 85,
                    "time": 568.7687500000101,
                    "velocity": 0.8110236220472441,
                    "duration": 0.1729166666666515
                },
                {
                    "name": "E6",
                    "midi": 88,
                    "time": 568.88125000001,
                    "velocity": 0.8582677165354331,
                    "duration": 0.07291666666674246
                },
                {
                    "name": "E4",
                    "midi": 64,
                    "time": 568.8895833333434,
                    "velocity": 0.8740157480314961,
                    "duration": 0.0645833333334167
                },
                {
                    "name": "A3",
                    "midi": 57,
                    "time": 568.8916666666767,
                    "velocity": 0.7874015748031497,
                    "duration": 0.07083333333343944
                },
                {
                    "name": "A5",
                    "midi": 81,
                    "time": 568.8958333333434,
                    "velocity": 0.3937007874015748,
                    "duration": 0.05208333333337123
                },
                {
                    "name": "A3",
                    "midi": 57,
                    "time": 569.26250000001,
                    "velocity": 0.8740157480314961,
                    "duration": 0.07708333333334849
                },
                {
                    "name": "E4",
                    "midi": 64,
                    "time": 569.2687500000101,
                    "velocity": 0.8346456692913385,
                    "duration": 0.04166666666662877
                },
                {
                    "name": "G#5",
                    "midi": 80,
                    "time": 569.4020833333434,
                    "velocity": 0.8582677165354331,
                    "duration": 0.11041666666665151
                },
                {
                    "name": "E5",
                    "midi": 76,
                    "time": 569.4083333333434,
                    "velocity": 0.6456692913385826,
                    "duration": 0.04791666666665151
                },
                {
                    "name": "D#6",
                    "midi": 87,
                    "time": 569.5979166666767,
                    "velocity": 0.889763779527559,
                    "duration": 0.11666666666678793
                },
                {
                    "name": "D#5",
                    "midi": 75,
                    "time": 569.60000000001,
                    "velocity": 0.952755905511811,
                    "duration": 0.07083333333343944
                },
                {
                    "name": "B5",
                    "midi": 83,
                    "time": 569.6020833333433,
                    "velocity": 0.7716535433070866,
                    "duration": 0.09583333333353039
                },
                {
                    "name": "F#2",
                    "midi": 42,
                    "time": 569.6104166666768,
                    "velocity": 0.8661417322834646,
                    "duration": 0.06041666666669698
                },
                {
                    "name": "F#1",
                    "midi": 30,
                    "time": 569.6125000000101,
                    "velocity": 0.8503937007874016,
                    "duration": 0.06250000000011369
                },
                {
                    "name": "G#5",
                    "midi": 80,
                    "time": 569.6250000000101,
                    "velocity": 0.4566929133858268,
                    "duration": 0.04583333333334849
                },
                {
                    "name": "A3",
                    "midi": 57,
                    "time": 569.9541666666769,
                    "velocity": 0.84251968503937,
                    "duration": 0.0645833333334167
                },
                {
                    "name": "E4",
                    "midi": 64,
                    "time": 569.9604166666769,
                    "velocity": 0.7637795275590551,
                    "duration": 0.054166666666674246
                },
                {
                    "name": "C#6",
                    "midi": 85,
                    "time": 570.2791666666769,
                    "velocity": 0.8582677165354331,
                    "duration": 0.10416666666662877
                },
                {
                    "name": "C#5",
                    "midi": 73,
                    "time": 570.2833333333436,
                    "velocity": 0.968503937007874,
                    "duration": 0.11666666666656056
                },
                {
                    "name": "E4",
                    "midi": 64,
                    "time": 570.2833333333436,
                    "velocity": 0.8503937007874016,
                    "duration": 0.060416666666583296
                },
                {
                    "name": "A5",
                    "midi": 81,
                    "time": 570.285416666677,
                    "velocity": 0.8031496062992126,
                    "duration": 0.07083333333332575
                },
                {
                    "name": "A3",
                    "midi": 57,
                    "time": 570.2875000000103,
                    "velocity": 0.84251968503937,
                    "duration": 0.06875000000002274
                },
                {
                    "name": "B1",
                    "midi": 35,
                    "time": 570.6333333333436,
                    "velocity": 0.984251968503937,
                    "duration": 0.08541666666656056
                },
                {
                    "name": "C#5",
                    "midi": 73,
                    "time": 570.9770833333434,
                    "velocity": 0.8661417322834646,
                    "duration": 0.08333333333337123
                },
                {
                    "name": "A4",
                    "midi": 69,
                    "time": 570.9833333333435,
                    "velocity": 0.6062992125984252,
                    "duration": 0.043750000000045475
                },
                {
                    "name": "F5",
                    "midi": 77,
                    "time": 571.0062500000101,
                    "velocity": 0.7952755905511811,
                    "duration": 0.09166666666669698
                },
                {
                    "name": "F4",
                    "midi": 65,
                    "time": 571.0145833333435,
                    "velocity": 0.7401574803149606,
                    "duration": 0.06666666666671972
                },
                {
                    "name": "A3",
                    "midi": 57,
                    "time": 571.0166666666768,
                    "velocity": 0.6220472440944882,
                    "duration": 0.10000000000002274
                },
                {
                    "name": "C#4",
                    "midi": 61,
                    "time": 571.0208333333435,
                    "velocity": 0.6299212598425197,
                    "duration": 0.0625
                },
                {
                    "name": "A5",
                    "midi": 81,
                    "time": 571.0416666666769,
                    "velocity": 0.8031496062992126,
                    "duration": 0.08333333333325754
                },
                {
                    "name": "F4",
                    "midi": 65,
                    "time": 571.3562500000102,
                    "velocity": 0.6220472440944882,
                    "duration": 0.039583333333325754
                },
                {
                    "name": "A3",
                    "midi": 57,
                    "time": 571.3562500000102,
                    "velocity": 0.6220472440944882,
                    "duration": 0.07500000000004547
                },
                {
                    "name": "C#4",
                    "midi": 61,
                    "time": 571.3604166666769,
                    "velocity": 0.7086614173228346,
                    "duration": 0.03333333333330302
                },
                {
                    "name": "A4",
                    "midi": 69,
                    "time": 571.4875000000102,
                    "velocity": 0.6692913385826772,
                    "duration": 0.09583333333330302
                },
                {
                    "name": "C#5",
                    "midi": 73,
                    "time": 571.4895833333435,
                    "velocity": 0.7637795275590551,
                    "duration": 0.15208333333328028
                },
                {
                    "name": "G#5",
                    "midi": 80,
                    "time": 571.6708333333434,
                    "velocity": 0.8267716535433071,
                    "duration": 0.14166666666687888
                },
                {
                    "name": "B1",
                    "midi": 35,
                    "time": 571.6750000000101,
                    "velocity": 0.8110236220472441,
                    "duration": 0.0791666666667652
                },
                {
                    "name": "E5",
                    "midi": 76,
                    "time": 571.6791666666768,
                    "velocity": 0.7637795275590551,
                    "duration": 0.1104166666667652
                },
                {
                    "name": "C4",
                    "midi": 60,
                    "time": 572.0083333333436,
                    "velocity": 0.7952755905511811,
                    "duration": 0.06666666666660603
                },
                {
                    "name": "E4",
                    "midi": 64,
                    "time": 572.0083333333436,
                    "velocity": 0.7637795275590551,
                    "duration": 0.0770833333332348
                },
                {
                    "name": "A3",
                    "midi": 57,
                    "time": 572.0104166666769,
                    "velocity": 0.6535433070866141,
                    "duration": 0.0625
                },
                {
                    "name": "C5",
                    "midi": 72,
                    "time": 572.1500000000101,
                    "velocity": 0.8188976377952756,
                    "duration": 0.2208333333335304
                },
                {
                    "name": "A4",
                    "midi": 69,
                    "time": 572.1500000000101,
                    "velocity": 0.7165354330708661,
                    "duration": 0.21041666666690162
                },
                {
                    "name": "F#3",
                    "midi": 54,
                    "time": 572.2895833333434,
                    "velocity": 0.6456692913385826,
                    "duration": 0.09791666666683341
                },
                {
                    "name": "C#4",
                    "midi": 61,
                    "time": 572.2958333333435,
                    "velocity": 0.5826771653543307,
                    "duration": 0.04166666666674246
                },
                {
                    "name": "A3",
                    "midi": 57,
                    "time": 572.3041666666768,
                    "velocity": 0.6299212598425197,
                    "duration": 0.037500000000136424
                },
                {
                    "name": "F#5",
                    "midi": 78,
                    "time": 572.3083333333435,
                    "velocity": 0.889763779527559,
                    "duration": 0.3000000000000682
                },
                {
                    "name": "C#5",
                    "midi": 73,
                    "time": 572.3145833333435,
                    "velocity": 0.8661417322834646,
                    "duration": 0.34375
                },
                {
                    "name": "B1",
                    "midi": 35,
                    "time": 572.597916666677,
                    "velocity": 0.9448818897637795,
                    "duration": 0.07916666666653782
                },
                {
                    "name": "F#4",
                    "midi": 66,
                    "time": 572.7625000000102,
                    "velocity": 0.8267716535433071,
                    "duration": 0.08333333333325754
                },
                {
                    "name": "A4",
                    "midi": 69,
                    "time": 572.7645833333435,
                    "velocity": 0.6929133858267716,
                    "duration": 0.12708333333330302
                },
                {
                    "name": "C5",
                    "midi": 72,
                    "time": 572.9312500000101,
                    "velocity": 0.8582677165354331,
                    "duration": 0.12291666666681067
                },
                {
                    "name": "E5",
                    "midi": 76,
                    "time": 572.9354166666768,
                    "velocity": 0.8740157480314961,
                    "duration": 0.1250000000001137
                },
                {
                    "name": "E3",
                    "midi": 52,
                    "time": 572.9520833333435,
                    "velocity": 0.7874015748031497,
                    "duration": 0.08750000000009095
                },
                {
                    "name": "C4",
                    "midi": 60,
                    "time": 572.9562500000102,
                    "velocity": 0.8031496062992126,
                    "duration": 0.06875000000002274
                },
                {
                    "name": "A3",
                    "midi": 57,
                    "time": 572.9645833333435,
                    "velocity": 0.7165354330708661,
                    "duration": 0.054166666666674246
                },
                {
                    "name": "C4",
                    "midi": 60,
                    "time": 573.2708333333436,
                    "velocity": 0.8740157480314961,
                    "duration": 0.029166666666696983
                },
                {
                    "name": "E3",
                    "midi": 52,
                    "time": 573.2729166666769,
                    "velocity": 0.8503937007874016,
                    "duration": 0.09166666666669698
                },
                {
                    "name": "A3",
                    "midi": 57,
                    "time": 573.2770833333436,
                    "velocity": 0.7559055118110236,
                    "duration": 0.04583333333334849
                },
                {
                    "name": "G#4",
                    "midi": 68,
                    "time": 573.3812500000103,
                    "velocity": 0.8582677165354331,
                    "duration": 0.14583333333325754
                },
                {
                    "name": "F4",
                    "midi": 65,
                    "time": 573.3833333333436,
                    "velocity": 0.8031496062992126,
                    "duration": 0.13333333333332575
                },
                {
                    "name": "A4",
                    "midi": 69,
                    "time": 573.5645833333435,
                    "velocity": 0.7874015748031497,
                    "duration": 0.11875000000009095
                },
                {
                    "name": "C#5",
                    "midi": 73,
                    "time": 573.5645833333435,
                    "velocity": 0.8976377952755905,
                    "duration": 0.13333333333343944
                },
                {
                    "name": "B2",
                    "midi": 47,
                    "time": 573.5770833333436,
                    "velocity": 0.9291338582677166,
                    "duration": 0.6937500000001364
                },
                {
                    "name": "A3",
                    "midi": 57,
                    "time": 573.8812500000103,
                    "velocity": 0.8110236220472441,
                    "duration": 0.07291666666662877
                },
                {
                    "name": "C#4",
                    "midi": 61,
                    "time": 573.8875000000103,
                    "velocity": 0.8346456692913385,
                    "duration": 0.06458333333330302
                },
                {
                    "name": "F4",
                    "midi": 65,
                    "time": 574.0062500000103,
                    "velocity": 0.8110236220472441,
                    "duration": 0.10625000000004547
                },
                {
                    "name": "C#4",
                    "midi": 61,
                    "time": 574.0125000000103,
                    "velocity": 0.8346456692913385,
                    "duration": 0.0625
                },
                {
                    "name": "G#4",
                    "midi": 68,
                    "time": 574.1687500000103,
                    "velocity": 0.8976377952755905,
                    "duration": 0.3604166666666515
                },
                {
                    "name": "B4",
                    "midi": 71,
                    "time": 574.1708333333436,
                    "velocity": 0.889763779527559,
                    "duration": 0.33541666666667425
                },
                {
                    "name": "A3",
                    "midi": 57,
                    "time": 574.1750000000103,
                    "velocity": 0.8582677165354331,
                    "duration": 0.06666666666671972
                },
                {
                    "name": "C#4",
                    "midi": 61,
                    "time": 574.179166666677,
                    "velocity": 0.8818897637795275,
                    "duration": 0.07083333333332575
                },
                {
                    "name": "B2",
                    "midi": 47,
                    "time": 574.4875000000103,
                    "velocity": 0.984251968503937,
                    "duration": 0.30416666666667425
                },
                {
                    "name": "D#4",
                    "midi": 63,
                    "time": 574.6104166666769,
                    "velocity": 0.889763779527559,
                    "duration": 0.09375
                },
                {
                    "name": "C4",
                    "midi": 60,
                    "time": 574.6125000000102,
                    "velocity": 0.7795275590551181,
                    "duration": 0.06666666666671972
                },
                {
                    "name": "A4",
                    "midi": 69,
                    "time": 574.7395833333436,
                    "velocity": 0.889763779527559,
                    "duration": 0.07291666666674246
                },
                {
                    "name": "F#4",
                    "midi": 66,
                    "time": 574.7479166666769,
                    "velocity": 0.905511811023622,
                    "duration": 0.06875000000013642
                },
                {
                    "name": "A3",
                    "midi": 57,
                    "time": 574.7500000000102,
                    "velocity": 0.9133858267716536,
                    "duration": 0.07083333333343944
                },
                {
                    "name": "F#3",
                    "midi": 54,
                    "time": 574.7520833333435,
                    "velocity": 0.9291338582677166,
                    "duration": 0.06666666666683341
                },
                {
                    "name": "D#4",
                    "midi": 63,
                    "time": 574.7645833333436,
                    "velocity": 0.4330708661417323,
                    "duration": 0.04166666666674246
                },
                {
                    "name": "F#4",
                    "midi": 66,
                    "time": 575.0875000000103,
                    "velocity": 1,
                    "duration": 0.07291666666662877
                },
                {
                    "name": "D4",
                    "midi": 62,
                    "time": 575.091666666677,
                    "velocity": 0.9606299212598425,
                    "duration": 0.05416666666656056
                },
                {
                    "name": "A3",
                    "midi": 57,
                    "time": 575.0937500000103,
                    "velocity": 0.9212598425196851,
                    "duration": 0.05833333333328028
                },
                {
                    "name": "F#3",
                    "midi": 54,
                    "time": 575.0958333333436,
                    "velocity": 0.9763779527559056,
                    "duration": 0.054166666666674246
                },
                {
                    "name": "F6",
                    "midi": 89,
                    "time": 575.4125000000103,
                    "velocity": 0.9448818897637795,
                    "duration": 0.10000000000002274
                },
                {
                    "name": "G#5",
                    "midi": 80,
                    "time": 575.4145833333436,
                    "velocity": 1,
                    "duration": 0.07083333333343944
                },
                {
                    "name": "C6",
                    "midi": 84,
                    "time": 575.4166666666769,
                    "velocity": 0.9606299212598425,
                    "duration": 0.08750000000009095
                },
                {
                    "name": "F5",
                    "midi": 77,
                    "time": 575.4166666666769,
                    "velocity": 0.9133858267716536,
                    "duration": 0.10000000000013642
                },
                {
                    "name": "D2",
                    "midi": 38,
                    "time": 575.4208333333436,
                    "velocity": 1,
                    "duration": 0.06666666666671972
                },
                {
                    "name": "D1",
                    "midi": 26,
                    "time": 575.4208333333436,
                    "velocity": 1,
                    "duration": 0.06041666666669698
                },
                {
                    "name": "A#3",
                    "midi": 58,
                    "time": 575.9333333333436,
                    "velocity": 0.9763779527559056,
                    "duration": 0.049999999999954525
                },
                {
                    "name": "A#5",
                    "midi": 82,
                    "time": 575.9395833333436,
                    "velocity": 0.968503937007874,
                    "duration": 0.06458333333318933
                },
                {
                    "name": "G#3",
                    "midi": 56,
                    "time": 575.941666666677,
                    "velocity": 0.84251968503937,
                    "duration": 0.045833333333234805
                },
                {
                    "name": "D3",
                    "midi": 50,
                    "time": 575.941666666677,
                    "velocity": 0.8110236220472441,
                    "duration": 0.04374999999993179
                },
                {
                    "name": "D5",
                    "midi": 74,
                    "time": 575.947916666677,
                    "velocity": 0.9291338582677166,
                    "duration": 0.04791666666653782
                },
                {
                    "name": "G#5",
                    "midi": 80,
                    "time": 575.947916666677,
                    "velocity": 0.8582677165354331,
                    "duration": 0.04999999999984084
                },
                {
                    "name": "E5",
                    "midi": 76,
                    "time": 575.9500000000103,
                    "velocity": 0.9448818897637795,
                    "duration": 0.045833333333234805
                },
                {
                    "name": "A#3",
                    "midi": 58,
                    "time": 576.0312500000101,
                    "velocity": 0.8503937007874016,
                    "duration": 0.054166666666674246
                },
                {
                    "name": "G#3",
                    "midi": 56,
                    "time": 576.0375000000101,
                    "velocity": 0.8110236220472441,
                    "duration": 0.049999999999954525
                },
                {
                    "name": "D3",
                    "midi": 50,
                    "time": 576.0416666666769,
                    "velocity": 0.7874015748031497,
                    "duration": 0.056249999999863576
                },
                {
                    "name": "A#5",
                    "midi": 82,
                    "time": 576.0437500000102,
                    "velocity": 0.9291338582677166,
                    "duration": 0.08541666666656056
                },
                {
                    "name": "D5",
                    "midi": 74,
                    "time": 576.0479166666769,
                    "velocity": 0.84251968503937,
                    "duration": 0.045833333333234805
                },
                {
                    "name": "E5",
                    "midi": 76,
                    "time": 576.0500000000102,
                    "velocity": 0.8740157480314961,
                    "duration": 0.045833333333234805
                },
                {
                    "name": "G#5",
                    "midi": 80,
                    "time": 576.0520833333435,
                    "velocity": 0.8267716535433071,
                    "duration": 0.05833333333328028
                },
                {
                    "name": "G1",
                    "midi": 31,
                    "time": 576.4083333333433,
                    "velocity": 0.984251968503937,
                    "duration": 0.23749999999995453
                },
                {
                    "name": "G#2",
                    "midi": 44,
                    "time": 576.5895833333433,
                    "velocity": 0.8582677165354331,
                    "duration": 0.1374999999999318
                },
                {
                    "name": "A4",
                    "midi": 69,
                    "time": 576.7354166666765,
                    "velocity": 0.8503937007874016,
                    "duration": 0.46041666666644687
                },
                {
                    "name": "A2",
                    "midi": 45,
                    "time": 576.7354166666765,
                    "velocity": 0.6377952755905512,
                    "duration": 0.16041666666649235
                },
                {
                    "name": "B4",
                    "midi": 71,
                    "time": 576.7375000000098,
                    "velocity": 0.8503937007874016,
                    "duration": 0.44374999999979536
                },
                {
                    "name": "F#4",
                    "midi": 66,
                    "time": 576.7375000000098,
                    "velocity": 0.84251968503937,
                    "duration": 0.47291666666649235
                },
                {
                    "name": "B3",
                    "midi": 59,
                    "time": 576.7395833333431,
                    "velocity": 0.9212598425196851,
                    "duration": 0.4354166666664696
                },
                {
                    "name": "D#4",
                    "midi": 63,
                    "time": 576.7416666666765,
                    "velocity": 0.8818897637795275,
                    "duration": 0.4520833333332348
                },
                {
                    "name": "G2",
                    "midi": 43,
                    "time": 576.7500000000098,
                    "velocity": 0.5826771653543307,
                    "duration": 0.13541666666662877
                },
                {
                    "name": "A#2",
                    "midi": 46,
                    "time": 576.8562500000097,
                    "velocity": 0.889763779527559,
                    "duration": 0.17499999999995453
                },
                {
                    "name": "B2",
                    "midi": 47,
                    "time": 576.983333333343,
                    "velocity": 0.8818897637795275,
                    "duration": 0.18958333333330302
                },
                {
                    "name": "D3",
                    "midi": 50,
                    "time": 577.127083333343,
                    "velocity": 0.8818897637795275,
                    "duration": 0.07916666666665151
                },
                {
                    "name": "C2",
                    "midi": 36,
                    "time": 577.2916666666763,
                    "velocity": 0.9763779527559056,
                    "duration": 0.08333333333337123
                },
                {
                    "name": "C3",
                    "midi": 48,
                    "time": 577.427083333343,
                    "velocity": 0.8031496062992126,
                    "duration": 0.11666666666667425
                },
                {
                    "name": "G#4",
                    "midi": 68,
                    "time": 577.5895833333431,
                    "velocity": 0.8818897637795275,
                    "duration": 0.08124999999995453
                },
                {
                    "name": "C4",
                    "midi": 60,
                    "time": 577.5916666666764,
                    "velocity": 0.8740157480314961,
                    "duration": 0.04583333333334849
                },
                {
                    "name": "E4",
                    "midi": 64,
                    "time": 577.5937500000097,
                    "velocity": 0.8110236220472441,
                    "duration": 0.04583333333334849
                },
                {
                    "name": "F#4",
                    "midi": 66,
                    "time": 577.5937500000097,
                    "velocity": 0.7795275590551181,
                    "duration": 0.043750000000045475
                },
                {
                    "name": "B2",
                    "midi": 47,
                    "time": 577.602083333343,
                    "velocity": 0.6771653543307087,
                    "duration": 0.12083333333339397
                },
                {
                    "name": "A2",
                    "midi": 45,
                    "time": 577.7000000000097,
                    "velocity": 0.84251968503937,
                    "duration": 0.13750000000004547
                },
                {
                    "name": "B4",
                    "midi": 71,
                    "time": 577.8791666666764,
                    "velocity": 0.8740157480314961,
                    "duration": 0.07499999999993179
                },
                {
                    "name": "G4",
                    "midi": 67,
                    "time": 577.8812500000097,
                    "velocity": 0.8503937007874016,
                    "duration": 0.0625
                },
                {
                    "name": "A2",
                    "midi": 45,
                    "time": 577.8812500000097,
                    "velocity": 0.84251968503937,
                    "duration": 0.12708333333330302
                },
                {
                    "name": "F#4",
                    "midi": 66,
                    "time": 577.8854166666764,
                    "velocity": 0.8582677165354331,
                    "duration": 0.04791666666665151
                },
                {
                    "name": "D#4",
                    "midi": 63,
                    "time": 577.8895833333431,
                    "velocity": 0.8818897637795275,
                    "duration": 0.03333333333330302
                },
                {
                    "name": "D#2",
                    "midi": 39,
                    "time": 578.0125000000097,
                    "velocity": 0.889763779527559,
                    "duration": 0.07916666666665151
                },
                {
                    "name": "F#2",
                    "midi": 42,
                    "time": 578.1791666666763,
                    "velocity": 0.968503937007874,
                    "duration": 0.16666666666662877
                },
                {
                    "name": "A2",
                    "midi": 45,
                    "time": 578.3041666666763,
                    "velocity": 0.8110236220472441,
                    "duration": 0.125
                },
                {
                    "name": "G2",
                    "midi": 43,
                    "time": 578.4604166666763,
                    "velocity": 0.9448818897637795,
                    "duration": 0.15416666666681067
                },
                {
                    "name": "G#5",
                    "midi": 80,
                    "time": 578.4645833333431,
                    "velocity": 0.8976377952755905,
                    "duration": 0.0791666666667652
                },
                {
                    "name": "E5",
                    "midi": 76,
                    "time": 578.4708333333431,
                    "velocity": 0.8503937007874016,
                    "duration": 0.04166666666674246
                },
                {
                    "name": "C5",
                    "midi": 72,
                    "time": 578.4708333333431,
                    "velocity": 0.8582677165354331,
                    "duration": 0.04166666666674246
                },
                {
                    "name": "F#5",
                    "midi": 78,
                    "time": 578.4708333333431,
                    "velocity": 0.7559055118110236,
                    "duration": 0.03541666666671972
                },
                {
                    "name": "E2",
                    "midi": 40,
                    "time": 578.5854166666765,
                    "velocity": 0.8582677165354331,
                    "duration": 0.09791666666671972
                },
                {
                    "name": "D#5",
                    "midi": 75,
                    "time": 578.7458333333432,
                    "velocity": 0.8818897637795275,
                    "duration": 0.04791666666653782
                },
                {
                    "name": "B1",
                    "midi": 35,
                    "time": 578.7458333333432,
                    "velocity": 0.8976377952755905,
                    "duration": 0.07083333333321207
                },
                {
                    "name": "B5",
                    "midi": 83,
                    "time": 578.7479166666765,
                    "velocity": 0.7637795275590551,
                    "duration": 0.0770833333332348
                },
                {
                    "name": "G5",
                    "midi": 79,
                    "time": 578.7479166666765,
                    "velocity": 0.7559055118110236,
                    "duration": 0.056249999999863576
                },
                {
                    "name": "F#5",
                    "midi": 78,
                    "time": 578.7500000000098,
                    "velocity": 0.7716535433070866,
                    "duration": 0.04166666666662877
                },
                {
                    "name": "A1",
                    "midi": 33,
                    "time": 578.895833333343,
                    "velocity": 0.889763779527559,
                    "duration": 0.05208333333337123
                },
                {
                    "name": "F5",
                    "midi": 77,
                    "time": 579.114583333343,
                    "velocity": 0.9291338582677166,
                    "duration": 0.05833333333328028
                },
                {
                    "name": "F6",
                    "midi": 89,
                    "time": 579.1270833333431,
                    "velocity": 0.9133858267716536,
                    "duration": 0.07499999999993179
                },
                {
                    "name": "D1",
                    "midi": 26,
                    "time": 579.1291666666764,
                    "velocity": 0.984251968503937,
                    "duration": 0.045833333333234805
                },
                {
                    "name": "G#5",
                    "midi": 80,
                    "time": 579.1291666666764,
                    "velocity": 0.952755905511811,
                    "duration": 0.05208333333325754
                },
                {
                    "name": "D2",
                    "midi": 38,
                    "time": 579.1312500000097,
                    "velocity": 0.9921259842519685,
                    "duration": 0.054166666666674246
                },
                {
                    "name": "C6",
                    "midi": 84,
                    "time": 579.1416666666763,
                    "velocity": 0.9212598425196851,
                    "duration": 0.05000000000006821
                },
                {
                    "name": "A#3",
                    "midi": 58,
                    "time": 579.6000000000097,
                    "velocity": 0.984251968503937,
                    "duration": 0.04166666666662877
                },
                {
                    "name": "G#3",
                    "midi": 56,
                    "time": 579.6041666666764,
                    "velocity": 0.8661417322834646,
                    "duration": 0.03958333333321207
                },
                {
                    "name": "D3",
                    "midi": 50,
                    "time": 579.6041666666764,
                    "velocity": 0.8976377952755905,
                    "duration": 0.04791666666653782
                },
                {
                    "name": "A#5",
                    "midi": 82,
                    "time": 579.6208333333431,
                    "velocity": 0.9291338582677166,
                    "duration": 0.05208333333325754
                },
                {
                    "name": "G#5",
                    "midi": 80,
                    "time": 579.6208333333431,
                    "velocity": 0.905511811023622,
                    "duration": 0.05416666666656056
                },
                {
                    "name": "E5",
                    "midi": 76,
                    "time": 579.6229166666764,
                    "velocity": 0.8740157480314961,
                    "duration": 0.039583333333325754
                },
                {
                    "name": "D5",
                    "midi": 74,
                    "time": 579.6250000000097,
                    "velocity": 0.9448818897637795,
                    "duration": 0.03125
                },
                {
                    "name": "B5",
                    "midi": 83,
                    "time": 579.6437500000096,
                    "velocity": 0.5118110236220472,
                    "duration": 0.039583333333325754
                },
                {
                    "name": "A#3",
                    "midi": 58,
                    "time": 579.7041666666763,
                    "velocity": 0.8818897637795275,
                    "duration": 0.047916666666765195
                },
                {
                    "name": "D3",
                    "midi": 50,
                    "time": 579.7062500000096,
                    "velocity": 0.8582677165354331,
                    "duration": 0.0791666666667652
                },
                {
                    "name": "G#3",
                    "midi": 56,
                    "time": 579.7104166666763,
                    "velocity": 0.8346456692913385,
                    "duration": 0.05000000000006821
                },
                {
                    "name": "A#5",
                    "midi": 82,
                    "time": 579.7145833333431,
                    "velocity": 0.7795275590551181,
                    "duration": 0.06666666666660603
                },
                {
                    "name": "D5",
                    "midi": 74,
                    "time": 579.7145833333431,
                    "velocity": 0.7716535433070866,
                    "duration": 0.054166666666674246
                },
                {
                    "name": "G#5",
                    "midi": 80,
                    "time": 579.7145833333431,
                    "velocity": 0.7244094488188977,
                    "duration": 0.05624999999997726
                },
                {
                    "name": "E5",
                    "midi": 76,
                    "time": 579.7187500000098,
                    "velocity": 0.7007874015748031,
                    "duration": 0.03125
                },
                {
                    "name": "G1",
                    "midi": 31,
                    "time": 580.0583333333431,
                    "velocity": 0.984251968503937,
                    "duration": 0.28749999999990905
                },
                {
                    "name": "G#2",
                    "midi": 44,
                    "time": 580.2437500000096,
                    "velocity": 0.8267716535433071,
                    "duration": 0.06875000000002274
                },
                {
                    "name": "A4",
                    "midi": 69,
                    "time": 580.383333333343,
                    "velocity": 0.8110236220472441,
                    "duration": 0.4833333333332348
                },
                {
                    "name": "G2",
                    "midi": 43,
                    "time": 580.3854166666763,
                    "velocity": 0.7795275590551181,
                    "duration": 0.18124999999997726
                },
                {
                    "name": "F#4",
                    "midi": 66,
                    "time": 580.3854166666763,
                    "velocity": 0.8346456692913385,
                    "duration": 0.48958333333325754
                },
                {
                    "name": "B3",
                    "midi": 59,
                    "time": 580.3875000000096,
                    "velocity": 0.9606299212598425,
                    "duration": 0.4541666666666515
                },
                {
                    "name": "B4",
                    "midi": 71,
                    "time": 580.3875000000096,
                    "velocity": 0.8346456692913385,
                    "duration": 0.46249999999997726
                },
                {
                    "name": "D#4",
                    "midi": 63,
                    "time": 580.3916666666763,
                    "velocity": 0.8661417322834646,
                    "duration": 0.4687499999998863
                },
                {
                    "name": "G#2",
                    "midi": 44,
                    "time": 580.5208333333429,
                    "velocity": 0.8976377952755905,
                    "duration": 0.0916666666665833
                },
                {
                    "name": "A2",
                    "midi": 45,
                    "time": 580.5479166666762,
                    "velocity": 0.5275590551181102,
                    "duration": 0.054166666666674246
                },
                {
                    "name": "A2",
                    "midi": 45,
                    "time": 580.6791666666762,
                    "velocity": 0.8818897637795275,
                    "duration": 0.13125000000002274
                },
                {
                    "name": "B2",
                    "midi": 47,
                    "time": 580.7895833333429,
                    "velocity": 0.8503937007874016,
                    "duration": 0.09583333333330302
                },
                {
                    "name": "C2",
                    "midi": 36,
                    "time": 580.9812500000095,
                    "velocity": 0.9921259842519685,
                    "duration": 0.1104166666667652
                },
                {
                    "name": "C3",
                    "midi": 48,
                    "time": 581.1145833333429,
                    "velocity": 0.8976377952755905,
                    "duration": 0.11041666666665151
                },
                {
                    "name": "G#4",
                    "midi": 68,
                    "time": 581.2687500000096,
                    "velocity": 0.8818897637795275,
                    "duration": 0.09375
                },
                {
                    "name": "D#3",
                    "midi": 51,
                    "time": 581.2729166666763,
                    "velocity": 0.9448818897637795,
                    "duration": 0.1562499999998863
                },
                {
                    "name": "F#4",
                    "midi": 66,
                    "time": 581.2750000000096,
                    "velocity": 0.7716535433070866,
                    "duration": 0.06041666666669698
                },
                {
                    "name": "C4",
                    "midi": 60,
                    "time": 581.2750000000096,
                    "velocity": 0.8346456692913385,
                    "duration": 0.043750000000045475
                },
                {
                    "name": "E4",
                    "midi": 64,
                    "time": 581.277083333343,
                    "velocity": 0.7637795275590551,
                    "duration": 0.047916666666765195
                },
                {
                    "name": "E3",
                    "midi": 52,
                    "time": 581.3791666666763,
                    "velocity": 0.9448818897637795,
                    "duration": 0.21041666666667425
                },
                {
                    "name": "B4",
                    "midi": 71,
                    "time": 581.5375000000096,
                    "velocity": 0.8582677165354331,
                    "duration": 0.09166666666669698
                },
                {
                    "name": "F4",
                    "midi": 65,
                    "time": 581.5416666666763,
                    "velocity": 0.889763779527559,
                    "duration": 0.06041666666669698
                },
                {
                    "name": "B3",
                    "midi": 59,
                    "time": 581.5437500000096,
                    "velocity": 0.9921259842519685,
                    "duration": 0.07708333333334849
                },
                {
                    "name": "D#4",
                    "midi": 63,
                    "time": 581.5500000000096,
                    "velocity": 0.84251968503937,
                    "duration": 0.04791666666665151
                },
                {
                    "name": "G#4",
                    "midi": 68,
                    "time": 581.5604166666762,
                    "velocity": 0.5669291338582677,
                    "duration": 0.03333333333330302
                },
                {
                    "name": "D4",
                    "midi": 62,
                    "time": 581.564583333343,
                    "velocity": 0.7086614173228346,
                    "duration": 0.02708333333328028
                },
                {
                    "name": "G#5",
                    "midi": 80,
                    "time": 581.9166666666763,
                    "velocity": 0.8346456692913385,
                    "duration": 0.09166666666669698
                },
                {
                    "name": "E3",
                    "midi": 52,
                    "time": 581.9166666666763,
                    "velocity": 0.9448818897637795,
                    "duration": 0.06666666666671972
                },
                {
                    "name": "F#5",
                    "midi": 78,
                    "time": 581.9187500000096,
                    "velocity": 0.8267716535433071,
                    "duration": 0.0791666666667652
                },
                {
                    "name": "D5",
                    "midi": 74,
                    "time": 581.9229166666763,
                    "velocity": 0.8031496062992126,
                    "duration": 0.10416666666662877
                },
                {
                    "name": "E2",
                    "midi": 40,
                    "time": 581.927083333343,
                    "velocity": 0.9212598425196851,
                    "duration": 0.04791666666665151
                },
                {
                    "name": "G#4",
                    "midi": 68,
                    "time": 581.9937500000096,
                    "velocity": 0.7952755905511811,
                    "duration": 0.10625000000004547
                },
                {
                    "name": "G#5",
                    "midi": 80,
                    "time": 582.0625000000097,
                    "velocity": 0.6377952755905512,
                    "duration": 0.08125000000006821
                },
                {
                    "name": "F#5",
                    "midi": 78,
                    "time": 582.077083333343,
                    "velocity": 0.6614173228346457,
                    "duration": 0.07291666666674246
                },
                {
                    "name": "D5",
                    "midi": 74,
                    "time": 582.0812500000097,
                    "velocity": 0.6377952755905512,
                    "duration": 0.0625
                },
                {
                    "name": "C2",
                    "midi": 36,
                    "time": 582.1916666666764,
                    "velocity": 0.8976377952755905,
                    "duration": 0.054166666666674246
                },
                {
                    "name": "C3",
                    "midi": 48,
                    "time": 582.1916666666764,
                    "velocity": 0.8976377952755905,
                    "duration": 0.054166666666674246
                },
                {
                    "name": "A5",
                    "midi": 81,
                    "time": 582.1937500000097,
                    "velocity": 0.8346456692913385,
                    "duration": 0.0958333333334167
                },
                {
                    "name": "E5",
                    "midi": 76,
                    "time": 582.1937500000097,
                    "velocity": 0.8582677165354331,
                    "duration": 0.12083333333339397
                },
                {
                    "name": "F5",
                    "midi": 77,
                    "time": 582.2041666666764,
                    "velocity": 0.7952755905511811,
                    "duration": 0.11249999999995453
                },
                {
                    "name": "A4",
                    "midi": 69,
                    "time": 582.2854166666764,
                    "velocity": 0.6929133858267716,
                    "duration": 0.07083333333332575
                },
                {
                    "name": "B4",
                    "midi": 71,
                    "time": 582.2958333333431,
                    "velocity": 0.7007874015748031,
                    "duration": 0.03749999999990905
                },
                {
                    "name": "F5",
                    "midi": 77,
                    "time": 582.358333333343,
                    "velocity": 0.7716535433070866,
                    "duration": 0.060416666666583296
                },
                {
                    "name": "E5",
                    "midi": 76,
                    "time": 582.3604166666763,
                    "velocity": 0.7559055118110236,
                    "duration": 0.05624999999997726
                },
                {
                    "name": "A5",
                    "midi": 81,
                    "time": 582.377083333343,
                    "velocity": 0.4015748031496063,
                    "duration": 0.04583333333334849
                },
                {
                    "name": "C6",
                    "midi": 84,
                    "time": 582.4750000000097,
                    "velocity": 0.9212598425196851,
                    "duration": 0.08124999999984084
                },
                {
                    "name": "G#2",
                    "midi": 44,
                    "time": 582.477083333343,
                    "velocity": 0.9763779527559056,
                    "duration": 0.049999999999954525
                },
                {
                    "name": "G#1",
                    "midi": 32,
                    "time": 582.4791666666763,
                    "velocity": 0.9448818897637795,
                    "duration": 0.05833333333328028
                },
                {
                    "name": "A#5",
                    "midi": 82,
                    "time": 582.4812500000096,
                    "velocity": 0.8582677165354331,
                    "duration": 0.10416666666662877
                },
                {
                    "name": "F#5",
                    "midi": 78,
                    "time": 582.4854166666763,
                    "velocity": 0.8661417322834646,
                    "duration": 0.10624999999993179
                },
                {
                    "name": "G#5",
                    "midi": 80,
                    "time": 582.495833333343,
                    "velocity": 0.6692913385826772,
                    "duration": 0.02708333333328028
                },
                {
                    "name": "C5",
                    "midi": 72,
                    "time": 582.5625000000095,
                    "velocity": 0.8346456692913385,
                    "duration": 0.058333333333393966
                },
                {
                    "name": "A#5",
                    "midi": 82,
                    "time": 582.6375000000096,
                    "velocity": 0.7559055118110236,
                    "duration": 0.08541666666667425
                },
                {
                    "name": "C6",
                    "midi": 84,
                    "time": 582.6458333333429,
                    "velocity": 0.6771653543307087,
                    "duration": 0.0625
                },
                {
                    "name": "D1",
                    "midi": 26,
                    "time": 582.7958333333429,
                    "velocity": 0.9763779527559056,
                    "duration": 0.047916666666765195
                },
                {
                    "name": "F6",
                    "midi": 89,
                    "time": 582.7979166666762,
                    "velocity": 0.984251968503937,
                    "duration": 0.052083333333484916
                },
                {
                    "name": "G#5",
                    "midi": 80,
                    "time": 582.7979166666762,
                    "velocity": 1,
                    "duration": 0.06666666666683341
                },
                {
                    "name": "D2",
                    "midi": 38,
                    "time": 582.8020833333429,
                    "velocity": 1,
                    "duration": 0.05000000000006821
                },
                {
                    "name": "F5",
                    "midi": 77,
                    "time": 582.8104166666762,
                    "velocity": 0.6456692913385826,
                    "duration": 0.029166666666696983
                },
                {
                    "name": "C6",
                    "midi": 84,
                    "time": 582.814583333343,
                    "velocity": 0.5590551181102362,
                    "duration": 0.03125
                },
                {
                    "name": "A#3",
                    "midi": 58,
                    "time": 583.2791666666764,
                    "velocity": 0.952755905511811,
                    "duration": 0.045833333333234805
                },
                {
                    "name": "D3",
                    "midi": 50,
                    "time": 583.2854166666764,
                    "velocity": 0.84251968503937,
                    "duration": 0.06666666666660603
                },
                {
                    "name": "A#5",
                    "midi": 82,
                    "time": 583.2875000000097,
                    "velocity": 0.9133858267716536,
                    "duration": 0.049999999999954525
                },
                {
                    "name": "G#3",
                    "midi": 56,
                    "time": 583.289583333343,
                    "velocity": 0.7716535433070866,
                    "duration": 0.02708333333328028
                },
                {
                    "name": "G#5",
                    "midi": 80,
                    "time": 583.2916666666763,
                    "velocity": 0.8503937007874016,
                    "duration": 0.04583333333334849
                },
                {
                    "name": "E5",
                    "midi": 76,
                    "time": 583.2937500000096,
                    "velocity": 0.8346456692913385,
                    "duration": 0.03750000000002274
                },
                {
                    "name": "D5",
                    "midi": 74,
                    "time": 583.2958333333429,
                    "velocity": 0.889763779527559,
                    "duration": 0.033333333333416704
                },
                {
                    "name": "A#5",
                    "midi": 82,
                    "time": 583.3937500000096,
                    "velocity": 0.8346456692913385,
                    "duration": 0.0770833333332348
                },
                {
                    "name": "A#3",
                    "midi": 58,
                    "time": 583.3937500000096,
                    "velocity": 0.6692913385826772,
                    "duration": 0.029166666666583296
                },
                {
                    "name": "D3",
                    "midi": 50,
                    "time": 583.3958333333429,
                    "velocity": 0.7007874015748031,
                    "duration": 0.05833333333328028
                },
                {
                    "name": "G#3",
                    "midi": 56,
                    "time": 583.3979166666762,
                    "velocity": 0.7480314960629921,
                    "duration": 0.02708333333328028
                },
                {
                    "name": "D5",
                    "midi": 74,
                    "time": 583.4000000000095,
                    "velocity": 0.7874015748031497,
                    "duration": 0.05208333333337123
                },
                {
                    "name": "G#5",
                    "midi": 80,
                    "time": 583.4020833333428,
                    "velocity": 0.7559055118110236,
                    "duration": 0.05000000000006821
                },
                {
                    "name": "E5",
                    "midi": 76,
                    "time": 583.4020833333428,
                    "velocity": 0.8110236220472441,
                    "duration": 0.03125
                },
                {
                    "name": "G1",
                    "midi": 31,
                    "time": 583.7395833333428,
                    "velocity": 0.9921259842519685,
                    "duration": 0.13125000000002274
                },
                {
                    "name": "G#2",
                    "midi": 44,
                    "time": 583.9270833333428,
                    "velocity": 0.8267716535433071,
                    "duration": 0.09583333333330302
                },
                {
                    "name": "A2",
                    "midi": 45,
                    "time": 584.0812500000094,
                    "velocity": 0.7165354330708661,
                    "duration": 0.16875000000015916
                },
                {
                    "name": "A4",
                    "midi": 69,
                    "time": 584.0854166666761,
                    "velocity": 0.8110236220472441,
                    "duration": 0.4395833333334167
                },
                {
                    "name": "B4",
                    "midi": 71,
                    "time": 584.0854166666761,
                    "velocity": 0.8188976377952756,
                    "duration": 0.4229166666667652
                },
                {
                    "name": "B3",
                    "midi": 59,
                    "time": 584.0895833333428,
                    "velocity": 0.9133858267716536,
                    "duration": 0.41458333333332575
                },
                {
                    "name": "F#4",
                    "midi": 66,
                    "time": 584.0895833333428,
                    "velocity": 0.7952755905511811,
                    "duration": 0.4500000000000455
                },
                {
                    "name": "D#4",
                    "midi": 63,
                    "time": 584.0937500000095,
                    "velocity": 0.8346456692913385,
                    "duration": 0.42916666666667425
                },
                {
                    "name": "A#2",
                    "midi": 46,
                    "time": 584.2104166666762,
                    "velocity": 0.8661417322834646,
                    "duration": 0.10416666666662877
                },
                {
                    "name": "B2",
                    "midi": 47,
                    "time": 584.3562500000095,
                    "velocity": 0.8818897637795275,
                    "duration": 0.1416666666666515
                },
                {
                    "name": "D3",
                    "midi": 50,
                    "time": 584.4875000000095,
                    "velocity": 0.8582677165354331,
                    "duration": 0.08333333333337123
                },
                {
                    "name": "C2",
                    "midi": 36,
                    "time": 584.6583333333429,
                    "velocity": 0.984251968503937,
                    "duration": 0.09583333333330302
                },
                {
                    "name": "C3",
                    "midi": 48,
                    "time": 584.8020833333428,
                    "velocity": 0.8188976377952756,
                    "duration": 0.11041666666665151
                },
                {
                    "name": "G#4",
                    "midi": 68,
                    "time": 584.9500000000096,
                    "velocity": 0.905511811023622,
                    "duration": 0.08541666666678793
                },
                {
                    "name": "B2",
                    "midi": 47,
                    "time": 584.9500000000096,
                    "velocity": 0.8031496062992126,
                    "duration": 0.2208333333334167
                },
                {
                    "name": "F#4",
                    "midi": 66,
                    "time": 584.9541666666763,
                    "velocity": 0.8110236220472441,
                    "duration": 0.05625000000009095
                },
                {
                    "name": "C4",
                    "midi": 60,
                    "time": 584.9541666666763,
                    "velocity": 0.8976377952755905,
                    "duration": 0.043750000000045475
                },
                {
                    "name": "E4",
                    "midi": 64,
                    "time": 584.9541666666763,
                    "velocity": 0.8503937007874016,
                    "duration": 0.05208333333337123
                },
                {
                    "name": "A2",
                    "midi": 45,
                    "time": 585.052083333343,
                    "velocity": 0.8110236220472441,
                    "duration": 0.13125000000002274
                },
                {
                    "name": "B4",
                    "midi": 71,
                    "time": 585.2229166666764,
                    "velocity": 0.8818897637795275,
                    "duration": 0.08541666666667425
                },
                {
                    "name": "G4",
                    "midi": 67,
                    "time": 585.2291666666764,
                    "velocity": 0.7874015748031497,
                    "duration": 0.05624999999997726
                },
                {
                    "name": "A2",
                    "midi": 45,
                    "time": 585.2312500000097,
                    "velocity": 0.84251968503937,
                    "duration": 0.11874999999997726
                },
                {
                    "name": "D#4",
                    "midi": 63,
                    "time": 585.233333333343,
                    "velocity": 0.889763779527559,
                    "duration": 0.039583333333325754
                },
                {
                    "name": "F#4",
                    "midi": 66,
                    "time": 585.2354166666763,
                    "velocity": 0.8188976377952756,
                    "duration": 0.03333333333330302
                },
                {
                    "name": "D#2",
                    "midi": 39,
                    "time": 585.3541666666764,
                    "velocity": 0.8661417322834646,
                    "duration": 0.08749999999997726
                },
                {
                    "name": "F#2",
                    "midi": 42,
                    "time": 585.520833333343,
                    "velocity": 0.9763779527559056,
                    "duration": 0.1708333333333485
                },
                {
                    "name": "A2",
                    "midi": 45,
                    "time": 585.6500000000098,
                    "velocity": 0.8110236220472441,
                    "duration": 0.10833333333334849
                },
                {
                    "name": "G2",
                    "midi": 43,
                    "time": 585.7937500000098,
                    "velocity": 0.9133858267716536,
                    "duration": 0.13333333333332575
                },
                {
                    "name": "G#5",
                    "midi": 80,
                    "time": 585.7958333333431,
                    "velocity": 0.8818897637795275,
                    "duration": 0.08541666666667425
                },
                {
                    "name": "E5",
                    "midi": 76,
                    "time": 585.8041666666765,
                    "velocity": 0.7716535433070866,
                    "duration": 0.03750000000002274
                },
                {
                    "name": "C5",
                    "midi": 72,
                    "time": 585.8041666666765,
                    "velocity": 0.7874015748031497,
                    "duration": 0.039583333333325754
                },
                {
                    "name": "F#5",
                    "midi": 78,
                    "time": 585.8062500000098,
                    "velocity": 0.6850393700787402,
                    "duration": 0.03541666666671972
                },
                {
                    "name": "E2",
                    "midi": 40,
                    "time": 585.9229166666764,
                    "velocity": 0.8582677165354331,
                    "duration": 0.0791666666667652
                },
                {
                    "name": "B1",
                    "midi": 35,
                    "time": 586.0833333333431,
                    "velocity": 0.9606299212598425,
                    "duration": 0.15416666666669698
                },
                {
                    "name": "B5",
                    "midi": 83,
                    "time": 586.0854166666765,
                    "velocity": 0.7559055118110236,
                    "duration": 0.09375
                },
                {
                    "name": "D#5",
                    "midi": 75,
                    "time": 586.0895833333432,
                    "velocity": 0.905511811023622,
                    "duration": 0.05624999999997726
                },
                {
                    "name": "G5",
                    "midi": 79,
                    "time": 586.0937500000099,
                    "velocity": 0.7716535433070866,
                    "duration": 0.06666666666660603
                },
                {
                    "name": "F5",
                    "midi": 77,
                    "time": 586.0958333333432,
                    "velocity": 0.7559055118110236,
                    "duration": 0.05208333333325754
                },
                {
                    "name": "A1",
                    "midi": 33,
                    "time": 586.2187500000098,
                    "velocity": 0.84251968503937,
                    "duration": 0.1270833333334167
                },
                {
                    "name": "G6",
                    "midi": 91,
                    "time": 586.4291666666766,
                    "velocity": 0.8582677165354331,
                    "duration": 0.06041666666646961
                },
                {
                    "name": "E1",
                    "midi": 28,
                    "time": 586.4312500000099,
                    "velocity": 0.9291338582677166,
                    "duration": 0.05416666666656056
                },
                {
                    "name": "A#5",
                    "midi": 82,
                    "time": 586.4333333333432,
                    "velocity": 0.9448818897637795,
                    "duration": 0.05416666666656056
                },
                {
                    "name": "D6",
                    "midi": 86,
                    "time": 586.4354166666765,
                    "velocity": 0.8818897637795275,
                    "duration": 0.049999999999954525
                },
                {
                    "name": "E2",
                    "midi": 40,
                    "time": 586.4375000000098,
                    "velocity": 0.952755905511811,
                    "duration": 0.05416666666656056
                },
                {
                    "name": "C4",
                    "midi": 60,
                    "time": 586.9645833333431,
                    "velocity": 0.9291338582677166,
                    "duration": 0.049999999999954525
                },
                {
                    "name": "E3",
                    "midi": 52,
                    "time": 586.9687500000098,
                    "velocity": 0.8740157480314961,
                    "duration": 0.056249999999863576
                },
                {
                    "name": "A#3",
                    "midi": 58,
                    "time": 586.9708333333431,
                    "velocity": 0.84251968503937,
                    "duration": 0.03749999999990905
                },
                {
                    "name": "E5",
                    "midi": 76,
                    "time": 586.9750000000098,
                    "velocity": 0.9921259842519685,
                    "duration": 0.04791666666653782
                },
                {
                    "name": "A#5",
                    "midi": 82,
                    "time": 586.9770833333431,
                    "velocity": 0.8582677165354331,
                    "duration": 0.05208333333325754
                },
                {
                    "name": "C6",
                    "midi": 84,
                    "time": 586.9791666666764,
                    "velocity": 0.8976377952755905,
                    "duration": 0.049999999999954525
                },
                {
                    "name": "F#5",
                    "midi": 78,
                    "time": 586.9791666666764,
                    "velocity": 0.8976377952755905,
                    "duration": 0.04374999999993179
                },
                {
                    "name": "F#3",
                    "midi": 54,
                    "time": 586.9812500000097,
                    "velocity": 0.6614173228346457,
                    "duration": 0.02708333333328028
                },
                {
                    "name": "C6",
                    "midi": 84,
                    "time": 587.0687500000097,
                    "velocity": 0.8346456692913385,
                    "duration": 0.054166666666674246
                },
                {
                    "name": "E3",
                    "midi": 52,
                    "time": 587.0687500000097,
                    "velocity": 0.8582677165354331,
                    "duration": 0.05624999999997726
                },
                {
                    "name": "C4",
                    "midi": 60,
                    "time": 587.0729166666764,
                    "velocity": 0.8818897637795275,
                    "duration": 0.03749999999990905
                },
                {
                    "name": "F#5",
                    "midi": 78,
                    "time": 587.0729166666764,
                    "velocity": 0.7637795275590551,
                    "duration": 0.04374999999993179
                },
                {
                    "name": "A#5",
                    "midi": 82,
                    "time": 587.0750000000097,
                    "velocity": 0.7952755905511811,
                    "duration": 0.05416666666656056
                },
                {
                    "name": "E5",
                    "midi": 76,
                    "time": 587.0750000000097,
                    "velocity": 0.7952755905511811,
                    "duration": 0.03333333333330302
                },
                {
                    "name": "A#3",
                    "midi": 58,
                    "time": 587.077083333343,
                    "velocity": 0.7716535433070866,
                    "duration": 0.029166666666696983
                },
                {
                    "name": "F#3",
                    "midi": 54,
                    "time": 587.077083333343,
                    "velocity": 0.7559055118110236,
                    "duration": 0.049999999999954525
                },
                {
                    "name": "A1",
                    "midi": 33,
                    "time": 587.4187500000096,
                    "velocity": 0.9921259842519685,
                    "duration": 0.23958333333337123
                },
                {
                    "name": "A#2",
                    "midi": 46,
                    "time": 587.6291666666763,
                    "velocity": 0.6929133858267716,
                    "duration": 0.15208333333339397
                },
                {
                    "name": "B2",
                    "midi": 47,
                    "time": 587.7750000000096,
                    "velocity": 0.8110236220472441,
                    "duration": 0.15416666666669698
                },
                {
                    "name": "F5",
                    "midi": 77,
                    "time": 587.783333333343,
                    "velocity": 0.8582677165354331,
                    "duration": 0.34583333333318933
                },
                {
                    "name": "C#5",
                    "midi": 73,
                    "time": 587.7854166666763,
                    "velocity": 0.8582677165354331,
                    "duration": 0.34999999999990905
                },
                {
                    "name": "F4",
                    "midi": 65,
                    "time": 587.7854166666763,
                    "velocity": 0.84251968503937,
                    "duration": 0.27291666666667425
                },
                {
                    "name": "B4",
                    "midi": 71,
                    "time": 587.7937500000096,
                    "velocity": 0.8976377952755905,
                    "duration": 0.34791666666660603
                },
                {
                    "name": "G4",
                    "midi": 67,
                    "time": 587.7979166666763,
                    "velocity": 0.8031496062992126,
                    "duration": 0.32083333333321207
                },
                {
                    "name": "C3",
                    "midi": 48,
                    "time": 587.9375000000097,
                    "velocity": 0.8740157480314961,
                    "duration": 0.19374999999979536
                },
                {
                    "name": "C#3",
                    "midi": 49,
                    "time": 588.0854166666762,
                    "velocity": 0.968503937007874,
                    "duration": 0.18958333333330302
                },
                {
                    "name": "F3",
                    "midi": 53,
                    "time": 588.2250000000096,
                    "velocity": 0.952755905511811,
                    "duration": 0.08124999999995453
                },
                {
                    "name": "A6",
                    "midi": 93,
                    "time": 588.4062500000097,
                    "velocity": 0.9291338582677166,
                    "duration": 0.05625000000009095
                },
                {
                    "name": "E6",
                    "midi": 88,
                    "time": 588.4104166666764,
                    "velocity": 0.9291338582677166,
                    "duration": 0.05000000000006821
                },
                {
                    "name": "C6",
                    "midi": 84,
                    "time": 588.4104166666764,
                    "velocity": 0.9291338582677166,
                    "duration": 0.05000000000006821
                },
                {
                    "name": "F#2",
                    "midi": 42,
                    "time": 588.4125000000097,
                    "velocity": 1,
                    "duration": 0.05208333333337123
                },
                {
                    "name": "F#1",
                    "midi": 30,
                    "time": 588.4125000000097,
                    "velocity": 0.952755905511811,
                    "duration": 0.04166666666674246
                },
                {
                    "name": "G#1",
                    "midi": 32,
                    "time": 588.4416666666764,
                    "velocity": 0.4881889763779528,
                    "duration": 0.03541666666671972
                },
                {
                    "name": "D6",
                    "midi": 86,
                    "time": 588.8750000000098,
                    "velocity": 0.84251968503937,
                    "duration": 0.06875000000002274
                },
                {
                    "name": "F#5",
                    "midi": 78,
                    "time": 588.8770833333431,
                    "velocity": 0.937007874015748,
                    "duration": 0.04791666666665151
                },
                {
                    "name": "D4",
                    "midi": 62,
                    "time": 588.8770833333431,
                    "velocity": 0.8976377952755905,
                    "duration": 0.05208333333337123
                },
                {
                    "name": "C4",
                    "midi": 60,
                    "time": 588.8791666666764,
                    "velocity": 0.8503937007874016,
                    "duration": 0.05000000000006821
                },
                {
                    "name": "G#5",
                    "midi": 80,
                    "time": 588.8812500000097,
                    "velocity": 0.84251968503937,
                    "duration": 0.05000000000006821
                },
                {
                    "name": "F#3",
                    "midi": 54,
                    "time": 588.8812500000097,
                    "velocity": 0.8188976377952756,
                    "duration": 0.07083333333343944
                },
                {
                    "name": "C6",
                    "midi": 84,
                    "time": 588.883333333343,
                    "velocity": 0.7795275590551181,
                    "duration": 0.06041666666681067
                },
                {
                    "name": "G#3",
                    "midi": 56,
                    "time": 588.889583333343,
                    "velocity": 0.6850393700787402,
                    "duration": 0.03958333333343944
                },
                {
                    "name": "F#3",
                    "midi": 54,
                    "time": 588.9708333333431,
                    "velocity": 0.5826771653543307,
                    "duration": 0.0791666666667652
                },
                {
                    "name": "D4",
                    "midi": 62,
                    "time": 588.9770833333431,
                    "velocity": 0.8188976377952756,
                    "duration": 0.047916666666765195
                },
                {
                    "name": "D6",
                    "midi": 86,
                    "time": 588.9770833333431,
                    "velocity": 0.7952755905511811,
                    "duration": 0.05625000000009095
                },
                {
                    "name": "F#5",
                    "midi": 78,
                    "time": 588.9770833333431,
                    "velocity": 0.7716535433070866,
                    "duration": 0.047916666666765195
                },
                {
                    "name": "G#5",
                    "midi": 80,
                    "time": 588.9812500000098,
                    "velocity": 0.7952755905511811,
                    "duration": 0.054166666666674246
                },
                {
                    "name": "G#3",
                    "midi": 56,
                    "time": 588.9833333333431,
                    "velocity": 0.7401574803149606,
                    "duration": 0.058333333333393966
                },
                {
                    "name": "C6",
                    "midi": 84,
                    "time": 588.9875000000098,
                    "velocity": 0.7559055118110236,
                    "duration": 0.06041666666669698
                },
                {
                    "name": "C4",
                    "midi": 60,
                    "time": 588.9958333333432,
                    "velocity": 0.5984251968503937,
                    "duration": 0.03125
                },
                {
                    "name": "B1",
                    "midi": 35,
                    "time": 589.3354166666766,
                    "velocity": 0.984251968503937,
                    "duration": 0.16041666666671972
                },
                {
                    "name": "C3",
                    "midi": 48,
                    "time": 589.5375000000099,
                    "velocity": 0.8346456692913385,
                    "duration": 0.21041666666667425
                },
                {
                    "name": "C#3",
                    "midi": 49,
                    "time": 589.7083333333433,
                    "velocity": 0.8818897637795275,
                    "duration": 0.08749999999997726
                },
                {
                    "name": "G5",
                    "midi": 79,
                    "time": 589.7145833333433,
                    "velocity": 0.8976377952755905,
                    "duration": 0.23541666666653782
                },
                {
                    "name": "B4",
                    "midi": 71,
                    "time": 589.7166666666766,
                    "velocity": 0.8976377952755905,
                    "duration": 0.16041666666660603
                },
                {
                    "name": "D#5",
                    "midi": 75,
                    "time": 589.7187500000099,
                    "velocity": 0.8503937007874016,
                    "duration": 0.21458333333328028
                },
                {
                    "name": "D3",
                    "midi": 50,
                    "time": 589.8583333333432,
                    "velocity": 0.8346456692913385,
                    "duration": 0.17916666666667425
                },
                {
                    "name": "D#3",
                    "midi": 51,
                    "time": 589.9937500000099,
                    "velocity": 0.968503937007874,
                    "duration": 0.20000000000004547
                },
                {
                    "name": "G3",
                    "midi": 55,
                    "time": 590.1458333333433,
                    "velocity": 0.8818897637795275,
                    "duration": 0.08749999999997726
                },
                {
                    "name": "B5",
                    "midi": 83,
                    "time": 590.3416666666766,
                    "velocity": 0.7952755905511811,
                    "duration": 0.40833333333318933
                },
                {
                    "name": "F#5",
                    "midi": 78,
                    "time": 590.3458333333433,
                    "velocity": 0.8661417322834646,
                    "duration": 0.4208333333331211
                },
                {
                    "name": "D5",
                    "midi": 74,
                    "time": 590.3479166666766,
                    "velocity": 0.8110236220472441,
                    "duration": 0.3562499999998181
                },
                {
                    "name": "B4",
                    "midi": 71,
                    "time": 590.3500000000099,
                    "velocity": 0.8503937007874016,
                    "duration": 0.34583333333318933
                },
                {
                    "name": "G#2",
                    "midi": 44,
                    "time": 590.3520833333432,
                    "velocity": 0.984251968503937,
                    "duration": 0.3291666666665378
                },
                {
                    "name": "G#1",
                    "midi": 32,
                    "time": 590.3541666666765,
                    "velocity": 0.9448818897637795,
                    "duration": 0.2958333333332348
                },
                {
                    "name": "E5",
                    "midi": 76,
                    "time": 590.9229166666764,
                    "velocity": 0.84251968503937,
                    "duration": 0.058333333333393966
                },
                {
                    "name": "D5",
                    "midi": 74,
                    "time": 590.9229166666764,
                    "velocity": 0.7716535433070866,
                    "duration": 0.058333333333393966
                },
                {
                    "name": "G#3",
                    "midi": 56,
                    "time": 590.9354166666765,
                    "velocity": 0.7795275590551181,
                    "duration": 0.05208333333337123
                },
                {
                    "name": "A#3",
                    "midi": 58,
                    "time": 590.9354166666765,
                    "velocity": 0.7874015748031497,
                    "duration": 0.04166666666662877
                },
                {
                    "name": "A#3",
                    "midi": 58,
                    "time": 591.0208333333431,
                    "velocity": 0.8976377952755905,
                    "duration": 0.06875000000002274
                },
                {
                    "name": "E5",
                    "midi": 76,
                    "time": 591.0208333333431,
                    "velocity": 0.8582677165354331,
                    "duration": 0.06875000000002274
                },
                {
                    "name": "D5",
                    "midi": 74,
                    "time": 591.0208333333431,
                    "velocity": 0.8346456692913385,
                    "duration": 0.07708333333334849
                },
                {
                    "name": "G#3",
                    "midi": 56,
                    "time": 591.0270833333432,
                    "velocity": 0.8346456692913385,
                    "duration": 0.06458333333330302
                },
                {
                    "name": "D6",
                    "midi": 86,
                    "time": 591.3895833333431,
                    "velocity": 0.8346456692913385,
                    "duration": 0.19791666666674246
                },
                {
                    "name": "F5",
                    "midi": 77,
                    "time": 591.3916666666764,
                    "velocity": 0.8110236220472441,
                    "duration": 0.13541666666674246
                },
                {
                    "name": "D5",
                    "midi": 74,
                    "time": 591.3916666666764,
                    "velocity": 0.8503937007874016,
                    "duration": 0.11875000000009095
                },
                {
                    "name": "A5",
                    "midi": 81,
                    "time": 591.3958333333431,
                    "velocity": 0.8110236220472441,
                    "duration": 0.18541666666669698
                },
                {
                    "name": "B1",
                    "midi": 35,
                    "time": 591.4020833333432,
                    "velocity": 0.9448818897637795,
                    "duration": 0.04791666666665151
                },
                {
                    "name": "B2",
                    "midi": 47,
                    "time": 591.4041666666765,
                    "velocity": 0.9133858267716536,
                    "duration": 0.05000000000006821
                },
                {
                    "name": "B3",
                    "midi": 59,
                    "time": 591.8916666666765,
                    "velocity": 0.8188976377952756,
                    "duration": 0.06458333333330302
                },
                {
                    "name": "C#4",
                    "midi": 61,
                    "time": 591.8916666666765,
                    "velocity": 0.8503937007874016,
                    "duration": 0.05624999999997726
                },
                {
                    "name": "G5",
                    "midi": 79,
                    "time": 591.8937500000098,
                    "velocity": 0.9212598425196851,
                    "duration": 0.0625
                },
                {
                    "name": "F5",
                    "midi": 77,
                    "time": 591.8958333333431,
                    "velocity": 0.889763779527559,
                    "duration": 0.06041666666669698
                },
                {
                    "name": "C#4",
                    "midi": 61,
                    "time": 591.9895833333431,
                    "velocity": 0.8661417322834646,
                    "duration": 0.06041666666669698
                },
                {
                    "name": "B3",
                    "midi": 59,
                    "time": 591.9895833333431,
                    "velocity": 0.9133858267716536,
                    "duration": 0.0645833333334167
                },
                {
                    "name": "G5",
                    "midi": 79,
                    "time": 591.9958333333432,
                    "velocity": 0.8976377952755905,
                    "duration": 0.07083333333343944
                },
                {
                    "name": "F5",
                    "midi": 77,
                    "time": 591.9979166666765,
                    "velocity": 0.8503937007874016,
                    "duration": 0.0645833333334167
                },
                {
                    "name": "F5",
                    "midi": 77,
                    "time": 592.3333333333433,
                    "velocity": 0.9133858267716536,
                    "duration": 0.08958333333362134
                },
                {
                    "name": "D2",
                    "midi": 38,
                    "time": 592.3395833333433,
                    "velocity": 0.8031496062992126,
                    "duration": 0.05416666666678793
                },
                {
                    "name": "G#5",
                    "midi": 80,
                    "time": 592.3479166666767,
                    "velocity": 0.9133858267716536,
                    "duration": 0.0645833333334167
                },
                {
                    "name": "D3",
                    "midi": 50,
                    "time": 592.3479166666767,
                    "velocity": 0.8582677165354331,
                    "duration": 0.058333333333393966
                },
                {
                    "name": "C6",
                    "midi": 84,
                    "time": 592.3479166666767,
                    "velocity": 0.8976377952755905,
                    "duration": 0.07708333333346218
                },
                {
                    "name": "F6",
                    "midi": 89,
                    "time": 592.35000000001,
                    "velocity": 0.8740157480314961,
                    "duration": 0.06875000000013642
                },
                {
                    "name": "D4",
                    "midi": 62,
                    "time": 592.6875000000102,
                    "velocity": 0.8740157480314961,
                    "duration": 0.049999999999954525
                },
                {
                    "name": "G#5",
                    "midi": 80,
                    "time": 592.6937500000103,
                    "velocity": 0.8976377952755905,
                    "duration": 0.05624999999997726
                },
                {
                    "name": "A#5",
                    "midi": 82,
                    "time": 592.6958333333436,
                    "velocity": 0.9133858267716536,
                    "duration": 0.06458333333330302
                },
                {
                    "name": "E4",
                    "midi": 64,
                    "time": 592.6958333333436,
                    "velocity": 0.7559055118110236,
                    "duration": 0.039583333333325754
                },
                {
                    "name": "F2",
                    "midi": 41,
                    "time": 592.9833333333436,
                    "velocity": 0.8188976377952756,
                    "duration": 0.04791666666665151
                },
                {
                    "name": "B5",
                    "midi": 83,
                    "time": 592.9833333333436,
                    "velocity": 0.8740157480314961,
                    "duration": 0.018749999999954525
                },
                {
                    "name": "G#6",
                    "midi": 92,
                    "time": 592.9833333333436,
                    "velocity": 0.9291338582677166,
                    "duration": 0.09166666666681067
                },
                {
                    "name": "G#5",
                    "midi": 80,
                    "time": 592.9833333333436,
                    "velocity": 0.9133858267716536,
                    "duration": 0.07500000000004547
                },
                {
                    "name": "D#6",
                    "midi": 87,
                    "time": 592.9895833333436,
                    "velocity": 0.8188976377952756,
                    "duration": 0.09375000000011369
                },
                {
                    "name": "F3",
                    "midi": 53,
                    "time": 592.9916666666769,
                    "velocity": 0.9448818897637795,
                    "duration": 0.05208333333337123
                },
                {
                    "name": "C6",
                    "midi": 84,
                    "time": 593.0000000000102,
                    "velocity": 0.8740157480314961,
                    "duration": 0.06250000000011369
                },
                {
                    "name": "C#6",
                    "midi": 85,
                    "time": 593.3458333333438,
                    "velocity": 0.9291338582677166,
                    "duration": 0.06875000000002274
                },
                {
                    "name": "B5",
                    "midi": 83,
                    "time": 593.3500000000105,
                    "velocity": 0.7952755905511811,
                    "duration": 0.05624999999997726
                },
                {
                    "name": "G4",
                    "midi": 67,
                    "time": 593.3520833333438,
                    "velocity": 0.8582677165354331,
                    "duration": 0.0625
                },
                {
                    "name": "F4",
                    "midi": 65,
                    "time": 593.3520833333438,
                    "velocity": 0.9448818897637795,
                    "duration": 0.05624999999997726
                },
                {
                    "name": "G#2",
                    "midi": 44,
                    "time": 593.6812500000104,
                    "velocity": 0.952755905511811,
                    "duration": 0.04999999999984084
                },
                {
                    "name": "G#3",
                    "midi": 56,
                    "time": 593.6833333333437,
                    "velocity": 1,
                    "duration": 0.06249999999988631
                },
                {
                    "name": "D6",
                    "midi": 86,
                    "time": 593.685416666677,
                    "velocity": 0.9763779527559056,
                    "duration": 0.049999999999954525
                },
                {
                    "name": "B6",
                    "midi": 95,
                    "time": 593.6875000000103,
                    "velocity": 0.9291338582677166,
                    "duration": 0.049999999999954525
                },
                {
                    "name": "F#6",
                    "midi": 90,
                    "time": 593.6895833333436,
                    "velocity": 0.9448818897637795,
                    "duration": 0.05833333333328028
                },
                {
                    "name": "B5",
                    "midi": 83,
                    "time": 593.697916666677,
                    "velocity": 0.952755905511811,
                    "duration": 0.09583333333330302
                },
                {
                    "name": "E6",
                    "midi": 88,
                    "time": 594.0604166666769,
                    "velocity": 0.952755905511811,
                    "duration": 0.07083333333343944
                },
                {
                    "name": "D6",
                    "midi": 86,
                    "time": 594.0645833333436,
                    "velocity": 0.9291338582677166,
                    "duration": 0.049999999999954525
                },
                {
                    "name": "G#4",
                    "midi": 68,
                    "time": 594.0645833333436,
                    "velocity": 0.8582677165354331,
                    "duration": 0.0625
                },
                {
                    "name": "A#4",
                    "midi": 70,
                    "time": 594.066666666677,
                    "velocity": 0.8976377952755905,
                    "duration": 0.039583333333325754
                },
                {
                    "name": "D2",
                    "midi": 38,
                    "time": 594.5458333333436,
                    "velocity": 0.5748031496062992,
                    "duration": 0.16250000000002274
                },
                {
                    "name": "D3",
                    "midi": 50,
                    "time": 594.5479166666769,
                    "velocity": 0.5511811023622047,
                    "duration": 0.22500000000002274
                },
                {
                    "name": "G#4",
                    "midi": 68,
                    "time": 594.7562500000103,
                    "velocity": 0.47244094488188976,
                    "duration": 0.3104166666665833
                },
                {
                    "name": "C5",
                    "midi": 72,
                    "time": 594.8750000000102,
                    "velocity": 0.6062992125984252,
                    "duration": 0.2770833333332803
                },
                {
                    "name": "F5",
                    "midi": 77,
                    "time": 594.9770833333436,
                    "velocity": 0.6614173228346457,
                    "duration": 0.2333333333332348
                },
                {
                    "name": "G#3",
                    "midi": 56,
                    "time": 595.0958333333435,
                    "velocity": 0.5196850393700787,
                    "duration": 0.18333333333328028
                },
                {
                    "name": "G#5",
                    "midi": 80,
                    "time": 595.0979166666768,
                    "velocity": 0.7637795275590551,
                    "duration": 0.12708333333330302
                },
                {
                    "name": "F4",
                    "midi": 65,
                    "time": 595.1125000000102,
                    "velocity": 0.5748031496062992,
                    "duration": 0.08124999999995453
                },
                {
                    "name": "C4",
                    "midi": 60,
                    "time": 595.1145833333435,
                    "velocity": 0.49606299212598426,
                    "duration": 0.11041666666665151
                },
                {
                    "name": "G#4",
                    "midi": 68,
                    "time": 595.6479166666768,
                    "velocity": 0.5984251968503937,
                    "duration": 0.047916666666765195
                },
                {
                    "name": "C5",
                    "midi": 72,
                    "time": 595.6833333333435,
                    "velocity": 0.4566929133858268,
                    "duration": 0.13750000000004547
                },
                {
                    "name": "A#1",
                    "midi": 34,
                    "time": 595.8416666666769,
                    "velocity": 0.6377952755905512,
                    "duration": 0.4624999999997499
                },
                {
                    "name": "G5",
                    "midi": 79,
                    "time": 595.9979166666768,
                    "velocity": 0.7086614173228346,
                    "duration": 0.46041666666644687
                },
                {
                    "name": "E5",
                    "midi": 76,
                    "time": 595.9979166666768,
                    "velocity": 0.4645669291338583,
                    "duration": 0.7833333333331893
                },
                {
                    "name": "G4",
                    "midi": 67,
                    "time": 596.0041666666768,
                    "velocity": 0.5826771653543307,
                    "duration": 0.5312499999997726
                },
                {
                    "name": "E2",
                    "midi": 40,
                    "time": 596.2395833333434,
                    "velocity": 0.47244094488188976,
                    "duration": 0.1374999999999318
                },
                {
                    "name": "F2",
                    "midi": 41,
                    "time": 596.4041666666766,
                    "velocity": 0.44881889763779526,
                    "duration": 0.10208333333332575
                },
                {
                    "name": "B4",
                    "midi": 71,
                    "time": 596.4145833333432,
                    "velocity": 0.6614173228346457,
                    "duration": 0.15000000000009095
                },
                {
                    "name": "G2",
                    "midi": 43,
                    "time": 596.5208333333433,
                    "velocity": 0.6771653543307087,
                    "duration": 0.2062500000000682
                },
                {
                    "name": "G#2",
                    "midi": 44,
                    "time": 596.6687500000099,
                    "velocity": 0.6299212598425197,
                    "duration": 0.18541666666669698
                },
                {
                    "name": "F5",
                    "midi": 77,
                    "time": 596.71250000001,
                    "velocity": 0.7716535433070866,
                    "duration": 0.17708333333325754
                },
                {
                    "name": "C5",
                    "midi": 72,
                    "time": 596.71250000001,
                    "velocity": 0.6456692913385826,
                    "duration": 0.14999999999997726
                },
                {
                    "name": "F4",
                    "midi": 65,
                    "time": 596.72500000001,
                    "velocity": 0.5354330708661418,
                    "duration": 0.1229166666665833
                },
                {
                    "name": "B2",
                    "midi": 47,
                    "time": 596.8208333333433,
                    "velocity": 0.5590551181102362,
                    "duration": 0.1874999999998863
                },
                {
                    "name": "D2",
                    "midi": 38,
                    "time": 597.0916666666766,
                    "velocity": 0.7165354330708661,
                    "duration": 0.1729166666666515
                },
                {
                    "name": "D3",
                    "midi": 50,
                    "time": 597.2541666666766,
                    "velocity": 0.5826771653543307,
                    "duration": 0.0916666666665833
                },
                {
                    "name": "G#4",
                    "midi": 68,
                    "time": 597.4312500000099,
                    "velocity": 0.5984251968503937,
                    "duration": 0.19583333333332575
                },
                {
                    "name": "C5",
                    "midi": 72,
                    "time": 597.5104166666765,
                    "velocity": 0.49606299212598426,
                    "duration": 0.2499999999998863
                },
                {
                    "name": "G#3",
                    "midi": 56,
                    "time": 597.5916666666765,
                    "velocity": 0.5196850393700787,
                    "duration": 0.32291666666662877
                },
                {
                    "name": "F5",
                    "midi": 77,
                    "time": 597.6291666666765,
                    "velocity": 0.6614173228346457,
                    "duration": 0.24166666666656056
                },
                {
                    "name": "G#5",
                    "midi": 80,
                    "time": 597.7020833333431,
                    "velocity": 0.7795275590551181,
                    "duration": 0.16458333333321207
                },
                {
                    "name": "F4",
                    "midi": 65,
                    "time": 597.7270833333431,
                    "velocity": 0.47244094488188976,
                    "duration": 0.07291666666662877
                },
                {
                    "name": "C4",
                    "midi": 60,
                    "time": 597.7583333333431,
                    "velocity": 0.047244094488188976,
                    "duration": 0.0916666666665833
                },
                {
                    "name": "G#4",
                    "midi": 68,
                    "time": 598.2270833333431,
                    "velocity": 0.6377952755905512,
                    "duration": 0.035416666666606034
                },
                {
                    "name": "C5",
                    "midi": 72,
                    "time": 598.2520833333431,
                    "velocity": 0.5669291338582677,
                    "duration": 0.12916666666660603
                },
                {
                    "name": "A#1",
                    "midi": 34,
                    "time": 598.383333333343,
                    "velocity": 0.6692913385826772,
                    "duration": 0.47708333333343944
                },
                {
                    "name": "G5",
                    "midi": 79,
                    "time": 598.545833333343,
                    "velocity": 0.6614173228346457,
                    "duration": 0.3562500000000455
                },
                {
                    "name": "G4",
                    "midi": 67,
                    "time": 598.5583333333431,
                    "velocity": 0.5039370078740157,
                    "duration": 0.46041666666667425
                },
                {
                    "name": "E5",
                    "midi": 76,
                    "time": 598.5625000000098,
                    "velocity": 0.5748031496062992,
                    "duration": 0.7895833333332121
                },
                {
                    "name": "E2",
                    "midi": 40,
                    "time": 598.7854166666764,
                    "velocity": 0.4094488188976378,
                    "duration": 0.14999999999997726
                },
                {
                    "name": "F2",
                    "midi": 41,
                    "time": 598.952083333343,
                    "velocity": 0.5118110236220472,
                    "duration": 0.11250000000006821
                },
                {
                    "name": "G2",
                    "midi": 43,
                    "time": 599.083333333343,
                    "velocity": 0.6614173228346457,
                    "duration": 0.24583333333328028
                },
                {
                    "name": "F5",
                    "midi": 77,
                    "time": 599.270833333343,
                    "velocity": 0.6456692913385826,
                    "duration": 0.16458333333332575
                },
                {
                    "name": "G#2",
                    "midi": 44,
                    "time": 599.2875000000097,
                    "velocity": 0.4645669291338583,
                    "duration": 0.22291666666660603
                },
                {
                    "name": "F4",
                    "midi": 65,
                    "time": 599.289583333343,
                    "velocity": 0.30708661417322836,
                    "duration": 0.1875
                },
                {
                    "name": "C5",
                    "midi": 72,
                    "time": 599.2916666666763,
                    "velocity": 0.4330708661417323,
                    "duration": 0.15416666666669698
                },
                {
                    "name": "B2",
                    "midi": 47,
                    "time": 599.4687500000097,
                    "velocity": 0.48031496062992124,
                    "duration": 0.22916666666662877
                },
                {
                    "name": "E3",
                    "midi": 52,
                    "time": 599.689583333343,
                    "velocity": 0.36220472440944884,
                    "duration": 0.40208333333339397
                },
                {
                    "name": "F3",
                    "midi": 53,
                    "time": 599.9229166666763,
                    "velocity": 0.3779527559055118,
                    "duration": 0.2520833333334167
                },
                {
                    "name": "G3",
                    "midi": 55,
                    "time": 600.1375000000097,
                    "velocity": 0.41732283464566927,
                    "duration": 0.23125000000004547
                },
                {
                    "name": "G#3",
                    "midi": 56,
                    "time": 600.3125000000098,
                    "velocity": 0.6299212598425197,
                    "duration": 0.13333333333332575
                },
                {
                    "name": "B3",
                    "midi": 59,
                    "time": 600.4916666666765,
                    "velocity": 0.6220472440944882,
                    "duration": 0.18958333333330302
                },
                {
                    "name": "C4",
                    "midi": 60,
                    "time": 600.6500000000098,
                    "velocity": 0.7401574803149606,
                    "duration": 0.07916666666665151
                },
                {
                    "name": "E4",
                    "midi": 64,
                    "time": 600.8291666666764,
                    "velocity": 0.7007874015748031,
                    "duration": 0.21666666666669698
                },
                {
                    "name": "F4",
                    "midi": 65,
                    "time": 601.0062500000098,
                    "velocity": 0.6377952755905512,
                    "duration": 0.21041666666667425
                },
                {
                    "name": "G4",
                    "midi": 67,
                    "time": 601.1875000000098,
                    "velocity": 0.6377952755905512,
                    "duration": 0.17916666666667425
                },
                {
                    "name": "G#4",
                    "midi": 68,
                    "time": 601.3666666666765,
                    "velocity": 0.5669291338582677,
                    "duration": 0.16041666666671972
                },
                {
                    "name": "E4",
                    "midi": 64,
                    "time": 601.6354166666765,
                    "velocity": 0.5905511811023622,
                    "duration": 0.125
                },
                {
                    "name": "F4",
                    "midi": 65,
                    "time": 601.8145833333432,
                    "velocity": 0.7716535433070866,
                    "duration": 0.07500000000004547
                },
                {
                    "name": "A#2",
                    "midi": 46,
                    "time": 601.9958333333433,
                    "velocity": 0.6614173228346457,
                    "duration": 0.07708333333334849
                },
                {
                    "name": "C5",
                    "midi": 72,
                    "time": 602.01875000001,
                    "velocity": 0.6929133858267716,
                    "duration": 0.07916666666665151
                },
                {
                    "name": "F4",
                    "midi": 65,
                    "time": 602.1729166666767,
                    "velocity": 0.6220472440944882,
                    "duration": 0.043750000000045475
                },
                {
                    "name": "G#3",
                    "midi": 56,
                    "time": 602.3479166666767,
                    "velocity": 0.5275590551181102,
                    "duration": 0.16458333333321207
                },
                {
                    "name": "C#4",
                    "midi": 61,
                    "time": 602.35000000001,
                    "velocity": 0.5039370078740157,
                    "duration": 0.43958333333318933
                },
                {
                    "name": "C5",
                    "midi": 72,
                    "time": 602.3604166666767,
                    "velocity": 0.6062992125984252,
                    "duration": 0.07291666666662877
                },
                {
                    "name": "F4",
                    "midi": 65,
                    "time": 602.4812500000099,
                    "velocity": 0.7874015748031497,
                    "duration": 0.07500000000004547
                },
                {
                    "name": "C5",
                    "midi": 72,
                    "time": 602.6687500000099,
                    "velocity": 0.8503937007874016,
                    "duration": 0.4166666666665151
                },
                {
                    "name": "G#3",
                    "midi": 56,
                    "time": 602.6770833333433,
                    "velocity": 0.6299212598425197,
                    "duration": 0.049999999999954525
                },
                {
                    "name": "A#2",
                    "midi": 46,
                    "time": 602.9729166666765,
                    "velocity": 0.7401574803149606,
                    "duration": 0.06458333333330302
                },
                {
                    "name": "F#4",
                    "midi": 66,
                    "time": 603.1125000000097,
                    "velocity": 0.8503937007874016,
                    "duration": 0.07500000000004547
                },
                {
                    "name": "C5",
                    "midi": 72,
                    "time": 603.2812500000099,
                    "velocity": 0.7952755905511811,
                    "duration": 0.12291666666669698
                },
                {
                    "name": "D4",
                    "midi": 62,
                    "time": 603.2895833333432,
                    "velocity": 0.5669291338582677,
                    "duration": 0.07083333333332575
                },
                {
                    "name": "F#4",
                    "midi": 66,
                    "time": 603.4187500000099,
                    "velocity": 0.8503937007874016,
                    "duration": 0.07708333333334849
                },
                {
                    "name": "D4",
                    "midi": 62,
                    "time": 603.6020833333433,
                    "velocity": 0.5590551181102362,
                    "duration": 0.039583333333325754
                },
                {
                    "name": "A3",
                    "midi": 57,
                    "time": 603.60625000001,
                    "velocity": 0.5748031496062992,
                    "duration": 0.04374999999993179
                },
                {
                    "name": "C5",
                    "midi": 72,
                    "time": 603.6229166666767,
                    "velocity": 0.8503937007874016,
                    "duration": 0.4229166666665378
                },
                {
                    "name": "D#2",
                    "midi": 39,
                    "time": 603.8875000000099,
                    "velocity": 0.8110236220472441,
                    "duration": 0.0625
                },
                {
                    "name": "G4",
                    "midi": 67,
                    "time": 604.0666666666766,
                    "velocity": 0.6535433070866141,
                    "duration": 0.11458333333337123
                },
                {
                    "name": "D#4",
                    "midi": 63,
                    "time": 604.2208333333433,
                    "velocity": 0.7637795275590551,
                    "duration": 0.039583333333325754
                },
                {
                    "name": "A#3",
                    "midi": 58,
                    "time": 604.22500000001,
                    "velocity": 0.6377952755905512,
                    "duration": 0.03749999999990905
                },
                {
                    "name": "C5",
                    "midi": 72,
                    "time": 604.2416666666767,
                    "velocity": 0.7795275590551181,
                    "duration": 0.1999999999998181
                },
                {
                    "name": "G4",
                    "midi": 67,
                    "time": 604.3833333333432,
                    "velocity": 0.5826771653543307,
                    "duration": 0.2541666666667197
                },
                {
                    "name": "A#1",
                    "midi": 34,
                    "time": 604.5166666666765,
                    "velocity": 0.6141732283464567,
                    "duration": 0.06875000000002274
                },
                {
                    "name": "C5",
                    "midi": 72,
                    "time": 604.5354166666765,
                    "velocity": 0.8110236220472441,
                    "duration": 0.4249999999999545
                },
                {
                    "name": "D#4",
                    "midi": 63,
                    "time": 604.5500000000098,
                    "velocity": 0.6299212598425197,
                    "duration": 0.19583333333343944
                },
                {
                    "name": "D#2",
                    "midi": 39,
                    "time": 604.8520833333432,
                    "velocity": 0.7244094488188977,
                    "duration": 0.05833333333328028
                },
                {
                    "name": "A4",
                    "midi": 69,
                    "time": 604.9937500000098,
                    "velocity": 0.6377952755905512,
                    "duration": 0.17499999999995453
                },
                {
                    "name": "D#4",
                    "midi": 63,
                    "time": 605.1687500000097,
                    "velocity": 0.7007874015748031,
                    "duration": 0.039583333333325754
                },
                {
                    "name": "C5",
                    "midi": 72,
                    "time": 605.1750000000097,
                    "velocity": 0.7165354330708661,
                    "duration": 0.15833333333330302
                },
                {
                    "name": "G3",
                    "midi": 55,
                    "time": 605.1854166666764,
                    "velocity": 0.5118110236220472,
                    "duration": 0.054166666666674246
                },
                {
                    "name": "A#3",
                    "midi": 58,
                    "time": 605.1937500000097,
                    "velocity": 0.4409448818897638,
                    "duration": 0.04166666666662877
                },
                {
                    "name": "A#4",
                    "midi": 70,
                    "time": 605.3041666666763,
                    "velocity": 0.7874015748031497,
                    "duration": 0.11874999999997726
                },
                {
                    "name": "A#1",
                    "midi": 34,
                    "time": 605.483333333343,
                    "velocity": 0.5669291338582677,
                    "duration": 0.18958333333330302
                },
                {
                    "name": "A#2",
                    "midi": 46,
                    "time": 605.4854166666763,
                    "velocity": 0.5433070866141733,
                    "duration": 0.13333333333332575
                },
                {
                    "name": "D#5",
                    "midi": 75,
                    "time": 605.4875000000096,
                    "velocity": 0.6141732283464567,
                    "duration": 0.30416666666667425
                },
                {
                    "name": "C5",
                    "midi": 72,
                    "time": 605.5145833333429,
                    "velocity": 0.5511811023622047,
                    "duration": 0.2062500000000682
                },
                {
                    "name": "G4",
                    "midi": 67,
                    "time": 605.5208333333429,
                    "velocity": 0.29133858267716534,
                    "duration": 0.09166666666669698
                },
                {
                    "name": "G5",
                    "midi": 79,
                    "time": 605.6916666666763,
                    "velocity": 0.5984251968503937,
                    "duration": 0.13125000000002274
                },
                {
                    "name": "F#1",
                    "midi": 30,
                    "time": 605.9687500000097,
                    "velocity": 0.5354330708661418,
                    "duration": 0.13333333333332575
                },
                {
                    "name": "F#2",
                    "midi": 42,
                    "time": 605.9875000000096,
                    "velocity": 0.4015748031496063,
                    "duration": 0.15208333333339397
                },
                {
                    "name": "A#4",
                    "midi": 70,
                    "time": 606.3479166666764,
                    "velocity": 0.5118110236220472,
                    "duration": 0.09375
                },
                {
                    "name": "C#5",
                    "midi": 73,
                    "time": 606.3937500000097,
                    "velocity": 0.6062992125984252,
                    "duration": 0.12708333333330302
                },
                {
                    "name": "D#5",
                    "midi": 75,
                    "time": 606.4500000000097,
                    "velocity": 0.44881889763779526,
                    "duration": 0.12708333333330302
                },
                {
                    "name": "F#5",
                    "midi": 78,
                    "time": 606.5104166666764,
                    "velocity": 0.6062992125984252,
                    "duration": 0.11458333333325754
                },
                {
                    "name": "A#5",
                    "midi": 82,
                    "time": 606.5583333333431,
                    "velocity": 0.6929133858267716,
                    "duration": 0.08749999999997726
                },
                {
                    "name": "C#4",
                    "midi": 61,
                    "time": 606.5666666666764,
                    "velocity": 0.5354330708661418,
                    "duration": 0.12916666666671972
                },
                {
                    "name": "A#3",
                    "midi": 58,
                    "time": 606.5750000000097,
                    "velocity": 0.4409448818897638,
                    "duration": 0.19375000000002274
                },
                {
                    "name": "F#4",
                    "midi": 66,
                    "time": 606.583333333343,
                    "velocity": 0.49606299212598426,
                    "duration": 0.08333333333337123
                },
                {
                    "name": "C5",
                    "midi": 72,
                    "time": 607.139583333343,
                    "velocity": 0.6062992125984252,
                    "duration": 0.3125
                },
                {
                    "name": "A4",
                    "midi": 69,
                    "time": 607.1416666666763,
                    "velocity": 0.48031496062992124,
                    "duration": 0.1875
                },
                {
                    "name": "C#2",
                    "midi": 37,
                    "time": 607.3875000000096,
                    "velocity": 0.5984251968503937,
                    "duration": 0.09791666666671972
                },
                {
                    "name": "G#5",
                    "midi": 80,
                    "time": 607.4104166666764,
                    "velocity": 0.7165354330708661,
                    "duration": 0.24583333333328028
                },
                {
                    "name": "F5",
                    "midi": 77,
                    "time": 607.4187500000097,
                    "velocity": 0.5196850393700787,
                    "duration": 0.2624999999999318
                },
                {
                    "name": "A4",
                    "midi": 69,
                    "time": 607.6916666666763,
                    "velocity": 0.49606299212598426,
                    "duration": 0.25
                },
                {
                    "name": "A3",
                    "midi": 57,
                    "time": 607.908333333343,
                    "velocity": 0.41732283464566927,
                    "duration": 0.37916666666660603
                },
                {
                    "name": "C4",
                    "midi": 60,
                    "time": 607.9187500000096,
                    "velocity": 0.3937007874015748,
                    "duration": 0.34999999999990905
                },
                {
                    "name": "A#4",
                    "midi": 70,
                    "time": 607.9312500000096,
                    "velocity": 0.6535433070866141,
                    "duration": 0.12083333333328028
                },
                {
                    "name": "C5",
                    "midi": 72,
                    "time": 608.0854166666762,
                    "velocity": 0.6771653543307087,
                    "duration": 0.19583333333332575
                },
                {
                    "name": "A#3",
                    "midi": 58,
                    "time": 608.2375000000095,
                    "velocity": 0.7480314960629921,
                    "duration": 0.07083333333332575
                },
                {
                    "name": "C#4",
                    "midi": 61,
                    "time": 608.2562500000095,
                    "velocity": 0.5511811023622047,
                    "duration": 0.033333333333416704
                },
                {
                    "name": "C#5",
                    "midi": 73,
                    "time": 608.2625000000095,
                    "velocity": 0.7874015748031497,
                    "duration": 0.12708333333330302
                },
                {
                    "name": "F#5",
                    "midi": 78,
                    "time": 608.4083333333427,
                    "velocity": 0.8188976377952756,
                    "duration": 0.08541666666667425
                },
                {
                    "name": "D#5",
                    "midi": 75,
                    "time": 608.4229166666761,
                    "velocity": 0.7401574803149606,
                    "duration": 0.06041666666669698
                },
                {
                    "name": "A2",
                    "midi": 45,
                    "time": 608.7291666666762,
                    "velocity": 0.8976377952755905,
                    "duration": 0.1229166666665833
                },
                {
                    "name": "A1",
                    "midi": 33,
                    "time": 608.7312500000095,
                    "velocity": 0.8976377952755905,
                    "duration": 0.08749999999997726
                },
                {
                    "name": "A#2",
                    "midi": 46,
                    "time": 608.9229166666761,
                    "velocity": 0.9291338582677166,
                    "duration": 0.07708333333334849
                },
                {
                    "name": "C3",
                    "midi": 48,
                    "time": 609.0875000000094,
                    "velocity": 0.8582677165354331,
                    "duration": 0.11041666666665151
                },
                {
                    "name": "C2",
                    "midi": 36,
                    "time": 609.0958333333427,
                    "velocity": 0.7952755905511811,
                    "duration": 0.0625
                },
                {
                    "name": "C#3",
                    "midi": 49,
                    "time": 609.2187500000094,
                    "velocity": 0.937007874015748,
                    "duration": 0.09583333333330302
                },
                {
                    "name": "F3",
                    "midi": 53,
                    "time": 609.3854166666761,
                    "velocity": 0.889763779527559,
                    "duration": 0.07083333333332575
                },
                {
                    "name": "F2",
                    "midi": 41,
                    "time": 609.3916666666761,
                    "velocity": 0.8031496062992126,
                    "duration": 0.06458333333330302
                },
                {
                    "name": "F#3",
                    "midi": 54,
                    "time": 609.5395833333428,
                    "velocity": 0.9133858267716536,
                    "duration": 0.10000000000002274
                },
                {
                    "name": "F#1",
                    "midi": 30,
                    "time": 609.8208333333428,
                    "velocity": 0.7086614173228346,
                    "duration": 0.07083333333332575
                },
                {
                    "name": "F#2",
                    "midi": 42,
                    "time": 609.8229166666761,
                    "velocity": 0.8188976377952756,
                    "duration": 0.09166666666669698
                },
                {
                    "name": "A#4",
                    "midi": 70,
                    "time": 610.2083333333428,
                    "velocity": 0.5748031496062992,
                    "duration": 0.09166666666669698
                },
                {
                    "name": "C#5",
                    "midi": 73,
                    "time": 610.2750000000095,
                    "velocity": 0.5590551181102362,
                    "duration": 0.1395833333332348
                },
                {
                    "name": "D#5",
                    "midi": 75,
                    "time": 610.3458333333429,
                    "velocity": 0.4330708661417323,
                    "duration": 0.11041666666653782
                },
                {
                    "name": "F#5",
                    "midi": 78,
                    "time": 610.3729166666761,
                    "velocity": 0.6377952755905512,
                    "duration": 0.15208333333328028
                },
                {
                    "name": "F#4",
                    "midi": 66,
                    "time": 610.4166666666761,
                    "velocity": 0.47244094488188976,
                    "duration": 0.17708333333337123
                },
                {
                    "name": "C#4",
                    "midi": 61,
                    "time": 610.4395833333427,
                    "velocity": 0.49606299212598426,
                    "duration": 0.1708333333333485
                },
                {
                    "name": "A#3",
                    "midi": 58,
                    "time": 610.4479166666761,
                    "velocity": 0.33858267716535434,
                    "duration": 0.25833333333332575
                },
                {
                    "name": "A#5",
                    "midi": 82,
                    "time": 610.4500000000094,
                    "velocity": 0.7086614173228346,
                    "duration": 0.10625000000004547
                },
                {
                    "name": "A4",
                    "midi": 69,
                    "time": 610.9520833333427,
                    "velocity": 0.5590551181102362,
                    "duration": 0.3166666666667197
                },
                {
                    "name": "C5",
                    "midi": 72,
                    "time": 610.9562500000094,
                    "velocity": 0.6771653543307087,
                    "duration": 0.3916666666667652
                },
                {
                    "name": "C#2",
                    "midi": 37,
                    "time": 611.222916666676,
                    "velocity": 0.6299212598425197,
                    "duration": 0.13750000000015916
                },
                {
                    "name": "G#5",
                    "midi": 80,
                    "time": 611.2666666666761,
                    "velocity": 0.6929133858267716,
                    "duration": 0.2375000000000682
                },
                {
                    "name": "F5",
                    "midi": 77,
                    "time": 611.2812500000094,
                    "velocity": 0.47244094488188976,
                    "duration": 0.2687500000000682
                },
                {
                    "name": "A4",
                    "midi": 69,
                    "time": 611.5479166666762,
                    "velocity": 0.4645669291338583,
                    "duration": 0.23125000000004547
                },
                {
                    "name": "A3",
                    "midi": 57,
                    "time": 611.7416666666762,
                    "velocity": 0.3858267716535433,
                    "duration": 0.11250000000006821
                },
                {
                    "name": "C4",
                    "midi": 60,
                    "time": 611.7541666666763,
                    "velocity": 0.4645669291338583,
                    "duration": 0.3270833333334622
                },
                {
                    "name": "A#4",
                    "midi": 70,
                    "time": 611.7854166666763,
                    "velocity": 0.6299212598425197,
                    "duration": 0.11458333333337123
                },
                {
                    "name": "C5",
                    "midi": 72,
                    "time": 611.9291666666763,
                    "velocity": 0.6929133858267716,
                    "duration": 0.2041666666667652
                },
                {
                    "name": "C#4",
                    "midi": 61,
                    "time": 612.0687500000097,
                    "velocity": 0.6299212598425197,
                    "duration": 0.03750000000002274
                },
                {
                    "name": "A#3",
                    "midi": 58,
                    "time": 612.0750000000097,
                    "velocity": 0.6141732283464567,
                    "duration": 0.06250000000011369
                },
                {
                    "name": "C#5",
                    "midi": 73,
                    "time": 612.1291666666764,
                    "velocity": 0.6692913385826772,
                    "duration": 0.12916666666671972
                },
                {
                    "name": "F#5",
                    "midi": 78,
                    "time": 612.2625000000098,
                    "velocity": 0.8346456692913385,
                    "duration": 0.06874999999990905
                },
                {
                    "name": "D#5",
                    "midi": 75,
                    "time": 612.2729166666765,
                    "velocity": 0.7716535433070866,
                    "duration": 0.06666666666660603
                },
                {
                    "name": "A1",
                    "midi": 33,
                    "time": 612.5166666666764,
                    "velocity": 0.8503937007874016,
                    "duration": 0.09791666666660603
                },
                {
                    "name": "A2",
                    "midi": 45,
                    "time": 612.5187500000097,
                    "velocity": 0.8976377952755905,
                    "duration": 0.16041666666660603
                },
                {
                    "name": "A#2",
                    "midi": 46,
                    "time": 612.7166666666764,
                    "velocity": 0.8976377952755905,
                    "duration": 0.07083333333332575
                },
                {
                    "name": "C3",
                    "midi": 48,
                    "time": 612.858333333343,
                    "velocity": 0.889763779527559,
                    "duration": 0.10208333333332575
                },
                {
                    "name": "C2",
                    "midi": 36,
                    "time": 612.8666666666763,
                    "velocity": 0.8582677165354331,
                    "duration": 0.06666666666671972
                },
                {
                    "name": "C#3",
                    "midi": 49,
                    "time": 612.9958333333431,
                    "velocity": 0.937007874015748,
                    "duration": 0.12916666666660603
                },
                {
                    "name": "F3",
                    "midi": 53,
                    "time": 613.1541666666764,
                    "velocity": 0.8582677165354331,
                    "duration": 0.11458333333337123
                },
                {
                    "name": "F2",
                    "midi": 41,
                    "time": 613.1604166666764,
                    "velocity": 0.7716535433070866,
                    "duration": 0.10208333333332575
                },
                {
                    "name": "F#3",
                    "midi": 54,
                    "time": 613.3062500000098,
                    "velocity": 0.952755905511811,
                    "duration": 0.09166666666669698
                },
                {
                    "name": "A3",
                    "midi": 57,
                    "time": 613.5041666666764,
                    "velocity": 0.7165354330708661,
                    "duration": 0.23749999999995453
                },
                {
                    "name": "A#3",
                    "midi": 58,
                    "time": 613.6791666666763,
                    "velocity": 0.7244094488188977,
                    "duration": 0.18541666666669698
                },
                {
                    "name": "C4",
                    "midi": 60,
                    "time": 613.8479166666764,
                    "velocity": 0.7007874015748031,
                    "duration": 0.1729166666666515
                },
                {
                    "name": "A#5",
                    "midi": 82,
                    "time": 613.858333333343,
                    "velocity": 0.7795275590551181,
                    "duration": 0.6145833333334849
                },
                {
                    "name": "F#5",
                    "midi": 78,
                    "time": 613.8708333333431,
                    "velocity": 0.5826771653543307,
                    "duration": 0.4249999999999545
                },
                {
                    "name": "C#4",
                    "midi": 61,
                    "time": 613.983333333343,
                    "velocity": 0.8346456692913385,
                    "duration": 0.20833333333337123
                },
                {
                    "name": "F4",
                    "midi": 65,
                    "time": 614.1583333333431,
                    "velocity": 0.7322834645669292,
                    "duration": 0.18333333333339397
                },
                {
                    "name": "F#4",
                    "midi": 66,
                    "time": 614.3166666666764,
                    "velocity": 0.84251968503937,
                    "duration": 0.27708333333339397
                },
                {
                    "name": "C5",
                    "midi": 72,
                    "time": 614.3229166666764,
                    "velocity": 0.84251968503937,
                    "duration": 0.22916666666674246
                },
                {
                    "name": "A4",
                    "midi": 69,
                    "time": 614.3291666666764,
                    "velocity": 0.7322834645669292,
                    "duration": 0.38333333333332575
                },
                {
                    "name": "G#5",
                    "midi": 80,
                    "time": 614.4895833333431,
                    "velocity": 0.8582677165354331,
                    "duration": 0.41458333333321207
                },
                {
                    "name": "F5",
                    "midi": 77,
                    "time": 614.4979166666765,
                    "velocity": 0.6692913385826772,
                    "duration": 0.5520833333332575
                },
                {
                    "name": "A#4",
                    "midi": 70,
                    "time": 614.6416666666764,
                    "velocity": 0.8188976377952756,
                    "duration": 0.2041666666666515
                },
                {
                    "name": "C5",
                    "midi": 72,
                    "time": 614.7979166666764,
                    "velocity": 0.7952755905511811,
                    "duration": 0.2312499999999318
                },
                {
                    "name": "A#4",
                    "midi": 70,
                    "time": 614.9500000000097,
                    "velocity": 0.7952755905511811,
                    "duration": 0.2666666666666515
                },
                {
                    "name": "C#5",
                    "midi": 73,
                    "time": 614.952083333343,
                    "velocity": 0.8346456692913385,
                    "duration": 0.2666666666666515
                },
                {
                    "name": "F#5",
                    "midi": 78,
                    "time": 615.1187500000098,
                    "velocity": 0.7637795275590551,
                    "duration": 0.53125
                },
                {
                    "name": "D#5",
                    "midi": 75,
                    "time": 615.1250000000098,
                    "velocity": 0.6850393700787402,
                    "duration": 0.53125
                },
                {
                    "name": "A4",
                    "midi": 69,
                    "time": 615.1437500000097,
                    "velocity": 0.6614173228346457,
                    "duration": 0.22083333333330302
                },
                {
                    "name": "A#4",
                    "midi": 70,
                    "time": 615.3291666666763,
                    "velocity": 0.6850393700787402,
                    "duration": 0.22916666666674246
                },
                {
                    "name": "D#3",
                    "midi": 51,
                    "time": 615.5187500000097,
                    "velocity": 0.5590551181102362,
                    "duration": 0.9062500000001137
                },
                {
                    "name": "F4",
                    "midi": 65,
                    "time": 615.5708333333431,
                    "velocity": 0.7007874015748031,
                    "duration": 0.21458333333339397
                },
                {
                    "name": "F#4",
                    "midi": 66,
                    "time": 615.7041666666764,
                    "velocity": 0.7322834645669292,
                    "duration": 0.47708333333332575
                },
                {
                    "name": "D#4",
                    "midi": 63,
                    "time": 615.7187500000098,
                    "velocity": 0.6692913385826772,
                    "duration": 0.4854166666666515
                },
                {
                    "name": "A#3",
                    "midi": 58,
                    "time": 615.7500000000098,
                    "velocity": 0.6377952755905512,
                    "duration": 0.16875000000004547
                },
                {
                    "name": "C#5",
                    "midi": 73,
                    "time": 615.9041666666765,
                    "velocity": 0.8267716535433071,
                    "duration": 0.5104166666667425
                },
                {
                    "name": "F4",
                    "midi": 65,
                    "time": 615.9104166666765,
                    "velocity": 0.84251968503937,
                    "duration": 0.1395833333333485
                },
                {
                    "name": "A#4",
                    "midi": 70,
                    "time": 615.9104166666765,
                    "velocity": 0.8188976377952756,
                    "duration": 0.38541666666662877
                },
                {
                    "name": "A#3",
                    "midi": 58,
                    "time": 616.0520833333431,
                    "velocity": 0.8346456692913385,
                    "duration": 0.14583333333325754
                },
                {
                    "name": "F4",
                    "midi": 65,
                    "time": 616.1916666666764,
                    "velocity": 0.9291338582677166,
                    "duration": 0.5312500000002274
                },
                {
                    "name": "A#4",
                    "midi": 70,
                    "time": 616.3395833333432,
                    "velocity": 0.7165354330708661,
                    "duration": 0.10000000000002274
                },
                {
                    "name": "F#4",
                    "midi": 66,
                    "time": 616.3541666666765,
                    "velocity": 0.7165354330708661,
                    "duration": 0.10625000000004547
                },
                {
                    "name": "C#4",
                    "midi": 61,
                    "time": 616.4937500000099,
                    "velocity": 0.6220472440944882,
                    "duration": 0.12916666666671972
                },
                {
                    "name": "D#3",
                    "midi": 51,
                    "time": 616.5291666666766,
                    "velocity": 0.8503937007874016,
                    "duration": 0.6354166666666288
                },
                {
                    "name": "B3",
                    "midi": 59,
                    "time": 616.6833333333433,
                    "velocity": 0.8346456692913385,
                    "duration": 0.23958333333337123
                },
                {
                    "name": "F4",
                    "midi": 65,
                    "time": 616.83750000001,
                    "velocity": 0.9212598425196851,
                    "duration": 0.1999999999999318
                },
                {
                    "name": "G4",
                    "midi": 67,
                    "time": 616.8729166666767,
                    "velocity": 0.7952755905511811,
                    "duration": 0.42708333333314386
                },
                {
                    "name": "F5",
                    "midi": 77,
                    "time": 616.88125000001,
                    "velocity": 0.8503937007874016,
                    "duration": 0.4812499999998181
                },
                {
                    "name": "D5",
                    "midi": 74,
                    "time": 616.8895833333434,
                    "velocity": 0.7165354330708661,
                    "duration": 0.47083333333318933
                },
                {
                    "name": "B3",
                    "midi": 59,
                    "time": 616.9833333333432,
                    "velocity": 0.8188976377952756,
                    "duration": 0.1729166666666515
                },
                {
                    "name": "F4",
                    "midi": 65,
                    "time": 617.1395833333432,
                    "velocity": 0.9291338582677166,
                    "duration": 0.5541666666665606
                },
                {
                    "name": "G5",
                    "midi": 79,
                    "time": 617.3145833333432,
                    "velocity": 0.6692913385826772,
                    "duration": 0.2041666666666515
                },
                {
                    "name": "B4",
                    "midi": 71,
                    "time": 617.3250000000098,
                    "velocity": 0.6377952755905512,
                    "duration": 0.20624999999995453
                },
                {
                    "name": "F5",
                    "midi": 77,
                    "time": 617.4708333333432,
                    "velocity": 0.7086614173228346,
                    "duration": 0.060416666666583296
                },
                {
                    "name": "G#2",
                    "midi": 44,
                    "time": 617.4791666666765,
                    "velocity": 0.9133858267716536,
                    "duration": 0.3291666666666515
                },
                {
                    "name": "C5",
                    "midi": 72,
                    "time": 617.4791666666765,
                    "velocity": 0.6771653543307087,
                    "duration": 0.1395833333332348
                },
                {
                    "name": "C4",
                    "midi": 60,
                    "time": 617.6229166666765,
                    "velocity": 0.8346456692913385,
                    "duration": 0.16666666666662877
                },
                {
                    "name": "C6",
                    "midi": 84,
                    "time": 617.7562500000098,
                    "velocity": 0.6692913385826772,
                    "duration": 0.46666666666681067
                },
                {
                    "name": "F6",
                    "midi": 89,
                    "time": 617.7791666666765,
                    "velocity": 0.7165354330708661,
                    "duration": 0.3000000000000682
                },
                {
                    "name": "G#3",
                    "midi": 56,
                    "time": 617.7812500000098,
                    "velocity": 0.8661417322834646,
                    "duration": 0.05000000000006821
                },
                {
                    "name": "F4",
                    "midi": 65,
                    "time": 617.7833333333431,
                    "velocity": 0.8346456692913385,
                    "duration": 0.13125000000013642
                },
                {
                    "name": "G#6",
                    "midi": 92,
                    "time": 617.8041666666765,
                    "velocity": 0.8188976377952756,
                    "duration": 0.3187500000001364
                },
                {
                    "name": "C7",
                    "midi": 96,
                    "time": 617.8229166666765,
                    "velocity": 0.8740157480314961,
                    "duration": 0.23958333333337123
                },
                {
                    "name": "C4",
                    "midi": 60,
                    "time": 617.9104166666765,
                    "velocity": 0.7401574803149606,
                    "duration": 0.16250000000002274
                },
                {
                    "name": "F4",
                    "midi": 65,
                    "time": 618.0854166666766,
                    "velocity": 0.8582677165354331,
                    "duration": 0.22708333333343944
                },
                {
                    "name": "G#3",
                    "midi": 56,
                    "time": 618.0916666666766,
                    "velocity": 0.7559055118110236,
                    "duration": 0.05624999999997726
                },
                {
                    "name": "D#6",
                    "midi": 87,
                    "time": 618.2479166666766,
                    "velocity": 0.7637795275590551,
                    "duration": 0.1437500000000682
                },
                {
                    "name": "C6",
                    "midi": 84,
                    "time": 618.2604166666766,
                    "velocity": 0.4645669291338583,
                    "duration": 0.08958333333339397
                },
                {
                    "name": "G6",
                    "midi": 91,
                    "time": 618.40625000001,
                    "velocity": 0.7559055118110236,
                    "duration": 0.39791666666678793
                },
                {
                    "name": "A#6",
                    "midi": 94,
                    "time": 618.41875000001,
                    "velocity": 0.8976377952755905,
                    "duration": 0.3791666666667197
                },
                {
                    "name": "B3",
                    "midi": 59,
                    "time": 618.4583333333434,
                    "velocity": 0.7244094488188977,
                    "duration": 0.1875
                },
                {
                    "name": "C4",
                    "midi": 60,
                    "time": 618.6020833333433,
                    "velocity": 0.8031496062992126,
                    "duration": 0.21250000000009095
                },
                {
                    "name": "D4",
                    "midi": 62,
                    "time": 618.7604166666767,
                    "velocity": 0.8346456692913385,
                    "duration": 0.2062500000001819
                },
                {
                    "name": "C6",
                    "midi": 84,
                    "time": 618.8895833333435,
                    "velocity": 0.8503937007874016,
                    "duration": 0.33750000000020464
                },
                {
                    "name": "G#5",
                    "midi": 80,
                    "time": 618.8937500000102,
                    "velocity": 0.9133858267716536,
                    "duration": 0.3750000000001137
                },
                {
                    "name": "D#4",
                    "midi": 63,
                    "time": 618.8979166666769,
                    "velocity": 0.8818897637795275,
                    "duration": 0.21458333333339397
                },
                {
                    "name": "B3",
                    "midi": 59,
                    "time": 619.0520833333436,
                    "velocity": 0.8346456692913385,
                    "duration": 0.16041666666671972
                },
                {
                    "name": "F6",
                    "midi": 89,
                    "time": 619.0583333333436,
                    "velocity": 0.8188976377952756,
                    "duration": 0.28750000000002274
                },
                {
                    "name": "G#6",
                    "midi": 92,
                    "time": 619.0604166666769,
                    "velocity": 0.8661417322834646,
                    "duration": 0.33958333333339397
                },
                {
                    "name": "C4",
                    "midi": 60,
                    "time": 619.1687500000103,
                    "velocity": 0.8818897637795275,
                    "duration": 0.15625
                },
                {
                    "name": "F3",
                    "midi": 53,
                    "time": 619.3333333333436,
                    "velocity": 0.9291338582677166,
                    "duration": 0.2625000000000455
                },
                {
                    "name": "G4",
                    "midi": 67,
                    "time": 619.347916666677,
                    "velocity": 0.8031496062992126,
                    "duration": 0.1895833333334167
                },
                {
                    "name": "C4",
                    "midi": 60,
                    "time": 619.479166666677,
                    "velocity": 0.8346456692913385,
                    "duration": 0.17916666666678793
                },
                {
                    "name": "G#5",
                    "midi": 80,
                    "time": 619.5020833333436,
                    "velocity": 0.8661417322834646,
                    "duration": 0.2562500000001364
                },
                {
                    "name": "F5",
                    "midi": 77,
                    "time": 619.5083333333437,
                    "velocity": 0.7637795275590551,
                    "duration": 0.2833333333334167
                },
                {
                    "name": "G4",
                    "midi": 67,
                    "time": 619.6375000000103,
                    "velocity": 0.8503937007874016,
                    "duration": 0.19583333333343944
                },
                {
                    "name": "G#3",
                    "midi": 56,
                    "time": 619.641666666677,
                    "velocity": 0.8503937007874016,
                    "duration": 0.03125000000011369
                },
                {
                    "name": "D#6",
                    "midi": 87,
                    "time": 619.6500000000104,
                    "velocity": 0.9133858267716536,
                    "duration": 0.4958333333332803
                },
                {
                    "name": "C6",
                    "midi": 84,
                    "time": 619.6520833333437,
                    "velocity": 0.8188976377952756,
                    "duration": 0.2979166666666515
                },
                {
                    "name": "C4",
                    "midi": 60,
                    "time": 619.7687500000104,
                    "velocity": 0.7637795275590551,
                    "duration": 0.1708333333333485
                },
                {
                    "name": "G#3",
                    "midi": 56,
                    "time": 619.9458333333438,
                    "velocity": 0.8188976377952756,
                    "duration": 0.05416666666656056
                },
                {
                    "name": "G4",
                    "midi": 67,
                    "time": 619.9479166666771,
                    "velocity": 0.889763779527559,
                    "duration": 0.4375
                },
                {
                    "name": "G#5",
                    "midi": 80,
                    "time": 620.0937500000103,
                    "velocity": 0.7480314960629921,
                    "duration": 0.1250000000001137
                },
                {
                    "name": "C6",
                    "midi": 84,
                    "time": 620.1500000000104,
                    "velocity": 0.6062992125984252,
                    "duration": 0.06458333333330302
                },
                {
                    "name": "F2",
                    "midi": 41,
                    "time": 620.247916666677,
                    "velocity": 0.9448818897637795,
                    "duration": 0.06875000000002274
                },
                {
                    "name": "G5",
                    "midi": 79,
                    "time": 620.2541666666771,
                    "velocity": 0.7952755905511811,
                    "duration": 0.10000000000002274
                },
                {
                    "name": "D#5",
                    "midi": 75,
                    "time": 620.2645833333437,
                    "velocity": 0.84251968503937,
                    "duration": 0.09166666666669698
                },
                {
                    "name": "C#4",
                    "midi": 61,
                    "time": 620.3937500000104,
                    "velocity": 0.937007874015748,
                    "duration": 0.16875000000004547
                },
                {
                    "name": "E5",
                    "midi": 76,
                    "time": 620.5666666666772,
                    "velocity": 0.9133858267716536,
                    "duration": 0.22916666666662877
                },
                {
                    "name": "G5",
                    "midi": 79,
                    "time": 620.5687500000105,
                    "velocity": 0.8582677165354331,
                    "duration": 0.46458333333339397
                },
                {
                    "name": "G4",
                    "midi": 67,
                    "time": 620.5854166666771,
                    "velocity": 0.8031496062992126,
                    "duration": 0.18124999999997726
                },
                {
                    "name": "A3",
                    "midi": 57,
                    "time": 620.5916666666772,
                    "velocity": 0.7637795275590551,
                    "duration": 0.045833333333234805
                },
                {
                    "name": "G3",
                    "midi": 55,
                    "time": 620.6083333333438,
                    "velocity": 0.28346456692913385,
                    "duration": 0.035416666666606034
                },
                {
                    "name": "C#4",
                    "midi": 61,
                    "time": 620.7104166666771,
                    "velocity": 0.889763779527559,
                    "duration": 0.13750000000004547
                },
                {
                    "name": "A3",
                    "midi": 57,
                    "time": 620.8833333333439,
                    "velocity": 0.8740157480314961,
                    "duration": 0.06666666666671972
                },
                {
                    "name": "G4",
                    "midi": 67,
                    "time": 620.8875000000106,
                    "velocity": 0.8976377952755905,
                    "duration": 0.4812499999998181
                },
                {
                    "name": "A4",
                    "midi": 69,
                    "time": 621.0062500000106,
                    "velocity": 0.5354330708661418,
                    "duration": 0.09583333333330302
                },
                {
                    "name": "A5",
                    "midi": 81,
                    "time": 621.0083333333439,
                    "velocity": 0.7401574803149606,
                    "duration": 0.19166666666671972
                },
                {
                    "name": "C#5",
                    "midi": 73,
                    "time": 621.0104166666772,
                    "velocity": 0.5275590551181102,
                    "duration": 0.09791666666671972
                },
                {
                    "name": "G5",
                    "midi": 79,
                    "time": 621.1583333333439,
                    "velocity": 0.7007874015748031,
                    "duration": 0.058333333333393966
                },
                {
                    "name": "D5",
                    "midi": 74,
                    "time": 621.1604166666772,
                    "velocity": 0.7401574803149606,
                    "duration": 0.08333333333337123
                },
                {
                    "name": "A#2",
                    "midi": 46,
                    "time": 621.1895833333439,
                    "velocity": 0.9133858267716536,
                    "duration": 0.07291666666662877
                },
                {
                    "name": "D4",
                    "midi": 62,
                    "time": 621.3208333333438,
                    "velocity": 0.9133858267716536,
                    "duration": 0.19166666666671972
                },
                {
                    "name": "G4",
                    "midi": 67,
                    "time": 621.4645833333437,
                    "velocity": 0.8976377952755905,
                    "duration": 0.17083333333357587
                },
                {
                    "name": "A#3",
                    "midi": 58,
                    "time": 621.4708333333438,
                    "velocity": 0.905511811023622,
                    "duration": 0.06041666666681067
                },
                {
                    "name": "F5",
                    "midi": 77,
                    "time": 621.4958333333439,
                    "velocity": 0.7401574803149606,
                    "duration": 0.07083333333343944
                },
                {
                    "name": "A#5",
                    "midi": 82,
                    "time": 621.5187500000105,
                    "velocity": 0.8661417322834646,
                    "duration": 0.1750000000000682
                },
                {
                    "name": "F6",
                    "midi": 89,
                    "time": 621.5229166666772,
                    "velocity": 0.8740157480314961,
                    "duration": 0.18124999999997726
                },
                {
                    "name": "D4",
                    "midi": 62,
                    "time": 621.583333333344,
                    "velocity": 0.8582677165354331,
                    "duration": 0.13333333333332575
                },
                {
                    "name": "A#3",
                    "midi": 58,
                    "time": 621.7541666666773,
                    "velocity": 0.7795275590551181,
                    "duration": 0.05624999999997726
                },
                {
                    "name": "G4",
                    "midi": 67,
                    "time": 621.7645833333439,
                    "velocity": 0.9448818897637795,
                    "duration": 0.2375000000000682
                },
                {
                    "name": "A5",
                    "midi": 81,
                    "time": 621.9375000000106,
                    "velocity": 0.8503937007874016,
                    "duration": 0.10833333333357587
                },
                {
                    "name": "F5",
                    "midi": 77,
                    "time": 621.9416666666773,
                    "velocity": 0.6929133858267716,
                    "duration": 0.08333333333348492
                },
                {
                    "name": "E6",
                    "midi": 88,
                    "time": 622.0708333333441,
                    "velocity": 0.889763779527559,
                    "duration": 0.6895833333331893
                },
                {
                    "name": "C#6",
                    "midi": 85,
                    "time": 622.0770833333441,
                    "velocity": 0.8661417322834646,
                    "duration": 0.4354166666665833
                },
                {
                    "name": "E5",
                    "midi": 76,
                    "time": 622.0791666666775,
                    "velocity": 0.984251968503937,
                    "duration": 0.6958333333332121
                },
                {
                    "name": "G2",
                    "midi": 43,
                    "time": 622.1104166666775,
                    "velocity": 0.9291338582677166,
                    "duration": 0.283333333333303
                },
                {
                    "name": "D4",
                    "midi": 62,
                    "time": 622.2708333333441,
                    "velocity": 0.8582677165354331,
                    "duration": 0.22083333333330302
                },
                {
                    "name": "E4",
                    "midi": 64,
                    "time": 622.4416666666774,
                    "velocity": 0.8818897637795275,
                    "duration": 0.17708333333337123
                },
                {
                    "name": "F4",
                    "midi": 65,
                    "time": 622.5750000000107,
                    "velocity": 0.8031496062992126,
                    "duration": 0.15208333333328028
                },
                {
                    "name": "F#4",
                    "midi": 66,
                    "time": 622.5791666666775,
                    "velocity": 0.6220472440944882,
                    "duration": 0.03750000000002274
                },
                {
                    "name": "A#3",
                    "midi": 58,
                    "time": 622.7145833333441,
                    "velocity": 0.8818897637795275,
                    "duration": 0.05416666666656056
                },
                {
                    "name": "G#3",
                    "midi": 56,
                    "time": 622.7166666666774,
                    "velocity": 0.8818897637795275,
                    "duration": 0.06666666666660603
                },
                {
                    "name": "D6",
                    "midi": 86,
                    "time": 622.7187500000107,
                    "velocity": 0.8740157480314961,
                    "duration": 0.11041666666665151
                },
                {
                    "name": "A#5",
                    "midi": 82,
                    "time": 622.727083333344,
                    "velocity": 0.8818897637795275,
                    "duration": 0.07500000000004547
                },
                {
                    "name": "D5",
                    "midi": 74,
                    "time": 622.727083333344,
                    "velocity": 0.9291338582677166,
                    "duration": 0.1374999999999318
                },
                {
                    "name": "C#4",
                    "midi": 61,
                    "time": 622.7416666666774,
                    "velocity": 0.8582677165354331,
                    "duration": 0.14999999999986358
                },
                {
                    "name": "D4",
                    "midi": 62,
                    "time": 622.845833333344,
                    "velocity": 0.9133858267716536,
                    "duration": 0.12708333333318933
                },
                {
                    "name": "A#2",
                    "midi": 46,
                    "time": 623.0520833333438,
                    "velocity": 0.8661417322834646,
                    "duration": 0.09791666666671972
                },
                {
                    "name": "A4",
                    "midi": 69,
                    "time": 623.0750000000105,
                    "velocity": 0.8740157480314961,
                    "duration": 0.17916666666667425
                },
                {
                    "name": "D4",
                    "midi": 62,
                    "time": 623.2270833333439,
                    "velocity": 0.84251968503937,
                    "duration": 0.12291666666669698
                },
                {
                    "name": "A5",
                    "midi": 81,
                    "time": 623.3333333333438,
                    "velocity": 0.84251968503937,
                    "duration": 0.06875000000013642
                },
                {
                    "name": "D6",
                    "midi": 86,
                    "time": 623.3416666666772,
                    "velocity": 0.9212598425196851,
                    "duration": 0.10416666666685614
                },
                {
                    "name": "F5",
                    "midi": 77,
                    "time": 623.3458333333439,
                    "velocity": 1,
                    "duration": 0.11666666666678793
                },
                {
                    "name": "F6",
                    "midi": 89,
                    "time": 623.3562500000106,
                    "velocity": 0.9291338582677166,
                    "duration": 0.10625000000004547
                },
                {
                    "name": "A4",
                    "midi": 69,
                    "time": 623.3833333333439,
                    "velocity": 0.9448818897637795,
                    "duration": 0.2062500000000682
                },
                {
                    "name": "A#3",
                    "midi": 58,
                    "time": 623.3979166666772,
                    "velocity": 0.7795275590551181,
                    "duration": 0.03958333333343944
                },
                {
                    "name": "D4",
                    "midi": 62,
                    "time": 623.5000000000107,
                    "velocity": 0.7874015748031497,
                    "duration": 0.1541666666665833
                },
                {
                    "name": "A3",
                    "midi": 57,
                    "time": 623.6791666666772,
                    "velocity": 0.8188976377952756,
                    "duration": 0.07083333333321207
                },
                {
                    "name": "A4",
                    "midi": 69,
                    "time": 623.6812500000106,
                    "velocity": 0.952755905511811,
                    "duration": 0.3729166666665833
                },
                {
                    "name": "D4",
                    "midi": 62,
                    "time": 623.6916666666772,
                    "velocity": 0.7795275590551181,
                    "duration": 0.1708333333332348
                },
                {
                    "name": "A5",
                    "midi": 81,
                    "time": 623.8125000000105,
                    "velocity": 0.84251968503937,
                    "duration": 0.08749999999997726
                },
                {
                    "name": "E6",
                    "midi": 88,
                    "time": 623.9729166666771,
                    "velocity": 0.9448818897637795,
                    "duration": 0.5791666666666515
                },
                {
                    "name": "C#6",
                    "midi": 85,
                    "time": 623.9770833333438,
                    "velocity": 0.937007874015748,
                    "duration": 0.5541666666665606
                },
                {
                    "name": "G2",
                    "midi": 43,
                    "time": 623.9833333333438,
                    "velocity": 0.9763779527559056,
                    "duration": 0.09791666666660603
                },
                {
                    "name": "E5",
                    "midi": 76,
                    "time": 623.9854166666771,
                    "velocity": 0.8740157480314961,
                    "duration": 0.6395833333331211
                },
                {
                    "name": "D4",
                    "midi": 62,
                    "time": 624.1145833333437,
                    "velocity": 0.8740157480314961,
                    "duration": 0.1687499999999318
                },
                {
                    "name": "E4",
                    "midi": 64,
                    "time": 624.272916666677,
                    "velocity": 0.8740157480314961,
                    "duration": 0.17708333333337123
                },
                {
                    "name": "F4",
                    "midi": 65,
                    "time": 624.397916666677,
                    "velocity": 0.8503937007874016,
                    "duration": 0.1687499999999318
                },
                {
                    "name": "D6",
                    "midi": 86,
                    "time": 624.5625000000103,
                    "velocity": 0.8110236220472441,
                    "duration": 0.12083333333316659
                },
                {
                    "name": "A#5",
                    "midi": 82,
                    "time": 624.5645833333436,
                    "velocity": 0.8267716535433071,
                    "duration": 0.08749999999986358
                },
                {
                    "name": "D5",
                    "midi": 74,
                    "time": 624.5708333333437,
                    "velocity": 0.8188976377952756,
                    "duration": 0.16249999999979536
                },
                {
                    "name": "C#4",
                    "midi": 61,
                    "time": 624.572916666677,
                    "velocity": 0.937007874015748,
                    "duration": 0.05416666666656056
                },
                {
                    "name": "A#3",
                    "midi": 58,
                    "time": 624.5750000000103,
                    "velocity": 0.905511811023622,
                    "duration": 0.05833333333328028
                },
                {
                    "name": "D4",
                    "midi": 62,
                    "time": 624.7020833333435,
                    "velocity": 0.8976377952755905,
                    "duration": 0.12083333333328028
                },
                {
                    "name": "A4",
                    "midi": 69,
                    "time": 624.8583333333435,
                    "velocity": 0.952755905511811,
                    "duration": 0.23125000000004547
                },
                {
                    "name": "A#2",
                    "midi": 46,
                    "time": 624.8625000000102,
                    "velocity": 0.8818897637795275,
                    "duration": 0.08541666666667425
                },
                {
                    "name": "D4",
                    "midi": 62,
                    "time": 625.0020833333435,
                    "velocity": 0.7952755905511811,
                    "duration": 0.12083333333328028
                },
                {
                    "name": "F6",
                    "midi": 89,
                    "time": 625.1333333333434,
                    "velocity": 0.9606299212598425,
                    "duration": 0.08749999999997726
                },
                {
                    "name": "F5",
                    "midi": 77,
                    "time": 625.1354166666767,
                    "velocity": 1,
                    "duration": 0.09583333333330302
                },
                {
                    "name": "D6",
                    "midi": 86,
                    "time": 625.1354166666767,
                    "velocity": 0.9448818897637795,
                    "duration": 0.07916666666665151
                },
                {
                    "name": "A5",
                    "midi": 81,
                    "time": 625.1395833333435,
                    "velocity": 0.9448818897637795,
                    "duration": 0.049999999999954525
                },
                {
                    "name": "A3",
                    "midi": 57,
                    "time": 625.1541666666768,
                    "velocity": 0.8582677165354331,
                    "duration": 0.05833333333328028
                },
                {
                    "name": "A4",
                    "midi": 69,
                    "time": 625.1562500000101,
                    "velocity": 0.9448818897637795,
                    "duration": 0.19583333333332575
                },
                {
                    "name": "D4",
                    "midi": 62,
                    "time": 625.2666666666768,
                    "velocity": 0.8346456692913385,
                    "duration": 0.1395833333333485
                },
                {
                    "name": "A4",
                    "midi": 69,
                    "time": 625.4645833333435,
                    "velocity": 0.984251968503937,
                    "duration": 0.2791666666665833
                },
                {
                    "name": "A3",
                    "midi": 57,
                    "time": 625.4645833333435,
                    "velocity": 0.9291338582677166,
                    "duration": 0.06458333333330302
                },
                {
                    "name": "D4",
                    "midi": 62,
                    "time": 625.4708333333435,
                    "velocity": 0.9448818897637795,
                    "duration": 0.12708333333330302
                },
                {
                    "name": "F5",
                    "midi": 77,
                    "time": 625.6250000000101,
                    "velocity": 0.9448818897637795,
                    "duration": 0.07708333333334849
                },
                {
                    "name": "A5",
                    "midi": 81,
                    "time": 625.6395833333435,
                    "velocity": 0.9291338582677166,
                    "duration": 0.09375
                },
                {
                    "name": "E6",
                    "midi": 88,
                    "time": 625.7708333333435,
                    "velocity": 0.8976377952755905,
                    "duration": 0.3000000000000682
                },
                {
                    "name": "C#6",
                    "midi": 85,
                    "time": 625.7750000000102,
                    "velocity": 0.937007874015748,
                    "duration": 0.5312500000001137
                },
                {
                    "name": "G2",
                    "midi": 43,
                    "time": 625.7812500000102,
                    "velocity": 0.9606299212598425,
                    "duration": 0.13333333333332575
                },
                {
                    "name": "C#5",
                    "midi": 73,
                    "time": 625.8312500000102,
                    "velocity": 0.6614173228346457,
                    "duration": 0.15416666666669698
                },
                {
                    "name": "D5",
                    "midi": 74,
                    "time": 625.9770833333436,
                    "velocity": 0.6692913385826772,
                    "duration": 0.24583333333339397
                },
                {
                    "name": "A#4",
                    "midi": 70,
                    "time": 626.0645833333435,
                    "velocity": 0.8582677165354331,
                    "duration": 0.05625000000009095
                },
                {
                    "name": "D4",
                    "midi": 62,
                    "time": 626.0666666666768,
                    "velocity": 0.8582677165354331,
                    "duration": 0.04166666666674246
                },
                {
                    "name": "G#4",
                    "midi": 68,
                    "time": 626.0708333333436,
                    "velocity": 0.7480314960629921,
                    "duration": 0.03541666666671972
                },
                {
                    "name": "E5",
                    "midi": 76,
                    "time": 626.135416666677,
                    "velocity": 0.7244094488188977,
                    "duration": 0.19583333333332575
                },
                {
                    "name": "G#5",
                    "midi": 80,
                    "time": 626.2520833333436,
                    "velocity": 0.8582677165354331,
                    "duration": 0.17916666666667425
                },
                {
                    "name": "F5",
                    "midi": 77,
                    "time": 626.2562500000104,
                    "velocity": 0.8031496062992126,
                    "duration": 0.1854166666665833
                },
                {
                    "name": "A#4",
                    "midi": 70,
                    "time": 626.379166666677,
                    "velocity": 0.905511811023622,
                    "duration": 0.0625
                },
                {
                    "name": "D4",
                    "midi": 62,
                    "time": 626.3833333333437,
                    "velocity": 0.889763779527559,
                    "duration": 0.03333333333330302
                },
                {
                    "name": "G#4",
                    "midi": 68,
                    "time": 626.3833333333437,
                    "velocity": 0.8110236220472441,
                    "duration": 0.04166666666662877
                },
                {
                    "name": "A#5",
                    "midi": 82,
                    "time": 626.3875000000104,
                    "velocity": 0.905511811023622,
                    "duration": 0.4020833333332803
                },
                {
                    "name": "D6",
                    "midi": 86,
                    "time": 626.3895833333437,
                    "velocity": 0.9291338582677166,
                    "duration": 0.27083333333325754
                },
                {
                    "name": "C#5",
                    "midi": 73,
                    "time": 626.4083333333436,
                    "velocity": 0.8976377952755905,
                    "duration": 0.14583333333325754
                },
                {
                    "name": "D5",
                    "midi": 74,
                    "time": 626.5208333333436,
                    "velocity": 0.7795275590551181,
                    "duration": 0.07708333333334849
                },
                {
                    "name": "G2",
                    "midi": 43,
                    "time": 626.6625000000103,
                    "velocity": 0.8582677165354331,
                    "duration": 0.09791666666671972
                },
                {
                    "name": "G3",
                    "midi": 55,
                    "time": 626.6625000000103,
                    "velocity": 0.9212598425196851,
                    "duration": 0.0791666666667652
                },
                {
                    "name": "E5",
                    "midi": 76,
                    "time": 626.6750000000103,
                    "velocity": 0.84251968503937,
                    "duration": 0.20833333333337123
                },
                {
                    "name": "F5",
                    "midi": 77,
                    "time": 626.797916666677,
                    "velocity": 0.8818897637795275,
                    "duration": 0.2333333333332348
                },
                {
                    "name": "D5",
                    "midi": 74,
                    "time": 626.8062500000103,
                    "velocity": 0.8188976377952756,
                    "duration": 0.13125000000002274
                },
                {
                    "name": "B4",
                    "midi": 71,
                    "time": 626.9187500000103,
                    "velocity": 0.8346456692913385,
                    "duration": 0.06875000000002274
                },
                {
                    "name": "F4",
                    "midi": 65,
                    "time": 626.9250000000103,
                    "velocity": 0.7874015748031497,
                    "duration": 0.054166666666674246
                },
                {
                    "name": "C#4",
                    "midi": 61,
                    "time": 626.9250000000103,
                    "velocity": 0.8267716535433071,
                    "duration": 0.029166666666696983
                },
                {
                    "name": "G5",
                    "midi": 79,
                    "time": 626.9520833333437,
                    "velocity": 0.889763779527559,
                    "duration": 0.3416666666663559
                },
                {
                    "name": "B5",
                    "midi": 83,
                    "time": 626.9562500000103,
                    "velocity": 0.8818897637795275,
                    "duration": 0.21041666666656056
                },
                {
                    "name": "A5",
                    "midi": 81,
                    "time": 626.9875000000103,
                    "velocity": 0.5590551181102362,
                    "duration": 0.04166666666662877
                },
                {
                    "name": "G#5",
                    "midi": 80,
                    "time": 627.1041666666769,
                    "velocity": 0.8267716535433071,
                    "duration": 0.18958333333318933
                },
                {
                    "name": "B4",
                    "midi": 71,
                    "time": 627.2145833333435,
                    "velocity": 0.8740157480314961,
                    "duration": 0.06458333333318933
                },
                {
                    "name": "F4",
                    "midi": 65,
                    "time": 627.2229166666768,
                    "velocity": 0.8188976377952756,
                    "duration": 0.060416666666583296
                },
                {
                    "name": "C#4",
                    "midi": 61,
                    "time": 627.2250000000101,
                    "velocity": 0.8503937007874016,
                    "duration": 0.04374999999993179
                },
                {
                    "name": "E5",
                    "midi": 76,
                    "time": 627.2437500000101,
                    "velocity": 0.7716535433070866,
                    "duration": 0.1541666666665833
                },
                {
                    "name": "D5",
                    "midi": 74,
                    "time": 627.3458333333434,
                    "velocity": 0.8188976377952756,
                    "duration": 0.10625000000004547
                },
                {
                    "name": "B4",
                    "midi": 71,
                    "time": 627.3458333333434,
                    "velocity": 0.7637795275590551,
                    "duration": 0.09166666666669698
                },
                {
                    "name": "F5",
                    "midi": 77,
                    "time": 627.35625000001,
                    "velocity": 0.8346456692913385,
                    "duration": 0.07708333333334849
                },
                {
                    "name": "G2",
                    "midi": 43,
                    "time": 627.4750000000101,
                    "velocity": 0.6771653543307087,
                    "duration": 0.07083333333343944
                },
                {
                    "name": "E5",
                    "midi": 76,
                    "time": 627.4770833333434,
                    "velocity": 0.8976377952755905,
                    "duration": 0.27708333333350765
                },
                {
                    "name": "G5",
                    "midi": 79,
                    "time": 627.4812500000102,
                    "velocity": 0.8976377952755905,
                    "duration": 0.2520833333334167
                },
                {
                    "name": "G3",
                    "midi": 55,
                    "time": 627.4937500000102,
                    "velocity": 0.952755905511811,
                    "duration": 0.04583333333334849
                },
                {
                    "name": "G#5",
                    "midi": 80,
                    "time": 627.6208333333436,
                    "velocity": 0.8582677165354331,
                    "duration": 0.22500000000002274
                },
                {
                    "name": "F4",
                    "midi": 65,
                    "time": 627.754166666677,
                    "velocity": 0.7952755905511811,
                    "duration": 0.07291666666674246
                },
                {
                    "name": "B3",
                    "midi": 59,
                    "time": 627.7562500000103,
                    "velocity": 0.8031496062992126,
                    "duration": 0.05416666666678793
                },
                {
                    "name": "C#4",
                    "midi": 61,
                    "time": 627.760416666677,
                    "velocity": 0.8267716535433071,
                    "duration": 0.047916666666765195
                },
                {
                    "name": "A#5",
                    "midi": 82,
                    "time": 627.772916666677,
                    "velocity": 0.8346456692913385,
                    "duration": 0.1874999999998863
                },
                {
                    "name": "B5",
                    "midi": 83,
                    "time": 627.9041666666769,
                    "velocity": 0.7874015748031497,
                    "duration": 0.21249999999986358
                },
                {
                    "name": "G#4",
                    "midi": 68,
                    "time": 627.910416666677,
                    "velocity": 0.7165354330708661,
                    "duration": 0.0625
                },
                {
                    "name": "B4",
                    "midi": 71,
                    "time": 627.9208333333436,
                    "velocity": 0.6850393700787402,
                    "duration": 0.07916666666665151
                },
                {
                    "name": "F5",
                    "midi": 77,
                    "time": 628.0416666666769,
                    "velocity": 0.889763779527559,
                    "duration": 0.23958333333337123
                },
                {
                    "name": "C#5",
                    "midi": 73,
                    "time": 628.0437500000102,
                    "velocity": 0.8976377952755905,
                    "duration": 0.45208333333368955
                },
                {
                    "name": "F4",
                    "midi": 65,
                    "time": 628.0520833333435,
                    "velocity": 0.8740157480314961,
                    "duration": 0.08749999999997726
                },
                {
                    "name": "G5",
                    "midi": 79,
                    "time": 628.0541666666768,
                    "velocity": 0.8346456692913385,
                    "duration": 0.16458333333343944
                },
                {
                    "name": "B3",
                    "midi": 59,
                    "time": 628.0604166666768,
                    "velocity": 0.8031496062992126,
                    "duration": 0.05208333333337123
                },
                {
                    "name": "C#4",
                    "midi": 61,
                    "time": 628.0604166666768,
                    "velocity": 0.8661417322834646,
                    "duration": 0.054166666666674246
                },
                {
                    "name": "G#5",
                    "midi": 80,
                    "time": 628.1750000000102,
                    "velocity": 0.889763779527559,
                    "duration": 0.10000000000002274
                },
                {
                    "name": "G3",
                    "midi": 55,
                    "time": 628.3187500000103,
                    "velocity": 0.9291338582677166,
                    "duration": 0.06666666666671972
                },
                {
                    "name": "G2",
                    "midi": 43,
                    "time": 628.3187500000103,
                    "velocity": 0.8346456692913385,
                    "duration": 0.07083333333343944
                },
                {
                    "name": "A#5",
                    "midi": 82,
                    "time": 628.322916666677,
                    "velocity": 0.8976377952755905,
                    "duration": 0.16875000000015916
                },
                {
                    "name": "B5",
                    "midi": 83,
                    "time": 628.4437500000104,
                    "velocity": 0.7165354330708661,
                    "duration": 0.20416666666687888
                },
                {
                    "name": "G#4",
                    "midi": 68,
                    "time": 628.4562500000104,
                    "velocity": 0.8661417322834646,
                    "duration": 0.10625000000004547
                },
                {
                    "name": "F4",
                    "midi": 65,
                    "time": 628.4625000000104,
                    "velocity": 0.7559055118110236,
                    "duration": 0.08958333333339397
                },
                {
                    "name": "C#6",
                    "midi": 85,
                    "time": 628.5916666666772,
                    "velocity": 0.8818897637795275,
                    "duration": 0.16458333333343944
                },
                {
                    "name": "F4",
                    "midi": 65,
                    "time": 628.6020833333438,
                    "velocity": 0.937007874015748,
                    "duration": 0.06875000000013642
                },
                {
                    "name": "C#5",
                    "midi": 73,
                    "time": 628.6020833333438,
                    "velocity": 0.9291338582677166,
                    "duration": 0.36458333333337123
                },
                {
                    "name": "E5",
                    "midi": 76,
                    "time": 628.6041666666771,
                    "velocity": 0.889763779527559,
                    "duration": 0.19375000000013642
                },
                {
                    "name": "A#3",
                    "midi": 58,
                    "time": 628.6083333333438,
                    "velocity": 0.7559055118110236,
                    "duration": 0.033333333333416704
                },
                {
                    "name": "D6",
                    "midi": 86,
                    "time": 628.7062500000106,
                    "velocity": 0.8582677165354331,
                    "duration": 0.1854166666665833
                },
                {
                    "name": "A#5",
                    "midi": 82,
                    "time": 628.8562500000105,
                    "velocity": 0.8976377952755905,
                    "duration": 0.15625
                },
                {
                    "name": "F4",
                    "midi": 65,
                    "time": 628.8770833333439,
                    "velocity": 0.937007874015748,
                    "duration": 0.04791666666665151
                },
                {
                    "name": "A#3",
                    "midi": 58,
                    "time": 628.8791666666772,
                    "velocity": 0.8582677165354331,
                    "duration": 0.04791666666665151
                },
                {
                    "name": "B5",
                    "midi": 83,
                    "time": 628.9708333333439,
                    "velocity": 0.7401574803149606,
                    "duration": 0.08958333333328028
                },
                {
                    "name": "G4",
                    "midi": 67,
                    "time": 629.0041666666772,
                    "velocity": 0.8188976377952756,
                    "duration": 0.08541666666667425
                },
                {
                    "name": "E4",
                    "midi": 64,
                    "time": 629.0104166666772,
                    "velocity": 0.7716535433070866,
                    "duration": 0.06666666666660603
                },
                {
                    "name": "G3",
                    "midi": 55,
                    "time": 629.1270833333439,
                    "velocity": 0.952755905511811,
                    "duration": 0.05624999999997726
                },
                {
                    "name": "D5",
                    "midi": 74,
                    "time": 629.1270833333439,
                    "velocity": 0.9133858267716536,
                    "duration": 0.2041666666666515
                },
                {
                    "name": "A#4",
                    "midi": 70,
                    "time": 629.1291666666772,
                    "velocity": 0.937007874015748,
                    "duration": 0.3333333333335986
                },
                {
                    "name": "G2",
                    "midi": 43,
                    "time": 629.1312500000105,
                    "velocity": 0.8740157480314961,
                    "duration": 0.054166666666674246
                },
                {
                    "name": "C#6",
                    "midi": 85,
                    "time": 629.1354166666772,
                    "velocity": 0.952755905511811,
                    "duration": 0.11249999999995453
                },
                {
                    "name": "D6",
                    "midi": 86,
                    "time": 629.2833333333439,
                    "velocity": 0.7637795275590551,
                    "duration": 0.18333333333362134
                },
                {
                    "name": "E4",
                    "midi": 64,
                    "time": 629.3812500000106,
                    "velocity": 0.8188976377952756,
                    "duration": 0.07708333333346218
                },
                {
                    "name": "B3",
                    "midi": 59,
                    "time": 629.3854166666773,
                    "velocity": 0.7952755905511811,
                    "duration": 0.05625000000009095
                },
                {
                    "name": "G#3",
                    "midi": 56,
                    "time": 629.389583333344,
                    "velocity": 0.7795275590551181,
                    "duration": 0.03541666666671972
                },
                {
                    "name": "E6",
                    "midi": 88,
                    "time": 629.4104166666774,
                    "velocity": 0.8031496062992126,
                    "duration": 0.1750000000000682
                },
                {
                    "name": "F6",
                    "midi": 89,
                    "time": 629.5333333333442,
                    "velocity": 0.7952755905511811,
                    "duration": 0.1874999999998863
                },
                {
                    "name": "F4",
                    "midi": 65,
                    "time": 629.5500000000109,
                    "velocity": 0.8818897637795275,
                    "duration": 0.07291666666662877
                },
                {
                    "name": "D4",
                    "midi": 62,
                    "time": 629.5520833333442,
                    "velocity": 0.8031496062992126,
                    "duration": 0.05833333333328028
                },
                {
                    "name": "G#3",
                    "midi": 56,
                    "time": 629.6562500000108,
                    "velocity": 0.9448818897637795,
                    "duration": 0.04791666666665151
                },
                {
                    "name": "E4",
                    "midi": 64,
                    "time": 629.6562500000108,
                    "velocity": 0.889763779527559,
                    "duration": 0.05208333333337123
                },
                {
                    "name": "B3",
                    "midi": 59,
                    "time": 629.6583333333441,
                    "velocity": 0.8740157480314961,
                    "duration": 0.05208333333337123
                },
                {
                    "name": "G#4",
                    "midi": 68,
                    "time": 629.6708333333441,
                    "velocity": 0.937007874015748,
                    "duration": 0.25416666666660603
                },
                {
                    "name": "B4",
                    "midi": 71,
                    "time": 629.6729166666775,
                    "velocity": 0.9133858267716536,
                    "duration": 0.25
                },
                {
                    "name": "C#6",
                    "midi": 85,
                    "time": 629.6770833333442,
                    "velocity": 0.8818897637795275,
                    "duration": 0.11874999999997726
                },
                {
                    "name": "D6",
                    "midi": 86,
                    "time": 629.7875000000108,
                    "velocity": 0.8110236220472441,
                    "duration": 0.08541666666667425
                },
                {
                    "name": "G2",
                    "midi": 43,
                    "time": 629.9208333333441,
                    "velocity": 0.9921259842519685,
                    "duration": 0.08124999999995453
                },
                {
                    "name": "E6",
                    "midi": 88,
                    "time": 629.9375000000108,
                    "velocity": 0.9212598425196851,
                    "duration": 0.10208333333332575
                },
                {
                    "name": "B3",
                    "midi": 59,
                    "time": 630.0645833333441,
                    "velocity": 0.7559055118110236,
                    "duration": 0.058333333333393966
                },
                {
                    "name": "D4",
                    "midi": 62,
                    "time": 630.0666666666774,
                    "velocity": 0.8188976377952756,
                    "duration": 0.07708333333346218
                },
                {
                    "name": "F6",
                    "midi": 89,
                    "time": 630.0708333333441,
                    "velocity": 0.8818897637795275,
                    "duration": 0.16666666666674246
                },
                {
                    "name": "C#4",
                    "midi": 61,
                    "time": 630.1687500000108,
                    "velocity": 0.9448818897637795,
                    "duration": 0.0625
                },
                {
                    "name": "G#3",
                    "midi": 56,
                    "time": 630.1729166666776,
                    "velocity": 0.9448818897637795,
                    "duration": 0.049999999999954525
                },
                {
                    "name": "F3",
                    "midi": 53,
                    "time": 630.1750000000109,
                    "velocity": 0.9291338582677166,
                    "duration": 0.04166666666662877
                },
                {
                    "name": "G4",
                    "midi": 67,
                    "time": 630.1854166666775,
                    "velocity": 0.9212598425196851,
                    "duration": 0.28125
                },
                {
                    "name": "E4",
                    "midi": 64,
                    "time": 630.1875000000108,
                    "velocity": 0.8976377952755905,
                    "duration": 0.28750000000002274
                },
                {
                    "name": "G6",
                    "midi": 91,
                    "time": 630.1937500000108,
                    "velocity": 0.84251968503937,
                    "duration": 0.20000000000004547
                },
                {
                    "name": "G#6",
                    "midi": 92,
                    "time": 630.3166666666775,
                    "velocity": 0.8582677165354331,
                    "duration": 0.18958333333330302
                },
                {
                    "name": "C#4",
                    "midi": 61,
                    "time": 630.4250000000109,
                    "velocity": 0.968503937007874,
                    "duration": 0.060416666666583296
                },
                {
                    "name": "G#3",
                    "midi": 56,
                    "time": 630.4270833333442,
                    "velocity": 0.9921259842519685,
                    "duration": 0.04791666666665151
                },
                {
                    "name": "F3",
                    "midi": 53,
                    "time": 630.4270833333442,
                    "velocity": 0.9606299212598425,
                    "duration": 0.039583333333325754
                },
                {
                    "name": "E6",
                    "midi": 88,
                    "time": 630.4541666666775,
                    "velocity": 0.8740157480314961,
                    "duration": 0.15625
                },
                {
                    "name": "F6",
                    "midi": 89,
                    "time": 630.5687500000108,
                    "velocity": 0.8740157480314961,
                    "duration": 0.07916666666665151
                },
                {
                    "name": "B3",
                    "midi": 59,
                    "time": 630.5708333333441,
                    "velocity": 0.8110236220472441,
                    "duration": 0.06666666666671972
                },
                {
                    "name": "G3",
                    "midi": 55,
                    "time": 630.5729166666774,
                    "velocity": 0.6141732283464567,
                    "duration": 0.05208333333337123
                },
                {
                    "name": "A3",
                    "midi": 57,
                    "time": 630.5875000000108,
                    "velocity": 0.5433070866141733,
                    "duration": 0.04583333333334849
                },
                {
                    "name": "F4",
                    "midi": 65,
                    "time": 630.6895833333441,
                    "velocity": 0.952755905511811,
                    "duration": 0.21666666666669698
                },
                {
                    "name": "G2",
                    "midi": 43,
                    "time": 630.6937500000108,
                    "velocity": 1,
                    "duration": 0.08749999999997726
                },
                {
                    "name": "D4",
                    "midi": 62,
                    "time": 630.6958333333441,
                    "velocity": 0.9133858267716536,
                    "duration": 0.35208333333321207
                },
                {
                    "name": "G6",
                    "midi": 91,
                    "time": 630.6979166666774,
                    "velocity": 0.952755905511811,
                    "duration": 0.15416666666669698
                },
                {
                    "name": "G#6",
                    "midi": 92,
                    "time": 630.8083333333441,
                    "velocity": 0.9291338582677166,
                    "duration": 0.16041666666660603
                },
                {
                    "name": "B3",
                    "midi": 59,
                    "time": 630.9354166666775,
                    "velocity": 0.9448818897637795,
                    "duration": 0.05833333333316659
                },
                {
                    "name": "G#3",
                    "midi": 56,
                    "time": 630.9375000000108,
                    "velocity": 0.8976377952755905,
                    "duration": 0.05416666666656056
                },
                {
                    "name": "A#6",
                    "midi": 94,
                    "time": 630.9395833333441,
                    "velocity": 0.8818897637795275,
                    "duration": 0.1708333333333485
                },
                {
                    "name": "E3",
                    "midi": 52,
                    "time": 630.9416666666774,
                    "velocity": 0.9212598425196851,
                    "duration": 0.04374999999993179
                },
                {
                    "name": "B6",
                    "midi": 95,
                    "time": 631.0520833333441,
                    "velocity": 0.84251968503937,
                    "duration": 0.20208333333346218
                },
                {
                    "name": "G#3",
                    "midi": 56,
                    "time": 631.0958333333441,
                    "velocity": 0.905511811023622,
                    "duration": 0.08333333333337123
                },
                {
                    "name": "F3",
                    "midi": 53,
                    "time": 631.0979166666774,
                    "velocity": 0.8110236220472441,
                    "duration": 0.06041666666669698
                },
                {
                    "name": "B3",
                    "midi": 59,
                    "time": 631.1895833333441,
                    "velocity": 0.984251968503937,
                    "duration": 0.058333333333393966
                },
                {
                    "name": "G#3",
                    "midi": 56,
                    "time": 631.1958333333441,
                    "velocity": 0.8818897637795275,
                    "duration": 0.05000000000006821
                },
                {
                    "name": "E3",
                    "midi": 52,
                    "time": 631.1958333333441,
                    "velocity": 0.9448818897637795,
                    "duration": 0.043750000000045475
                },
                {
                    "name": "G6",
                    "midi": 91,
                    "time": 631.1979166666774,
                    "velocity": 0.84251968503937,
                    "duration": 0.15416666666681067
                },
                {
                    "name": "E4",
                    "midi": 64,
                    "time": 631.2187500000108,
                    "velocity": 0.9763779527559056,
                    "duration": 0.16875000000015916
                },
                {
                    "name": "C#4",
                    "midi": 61,
                    "time": 631.2333333333441,
                    "velocity": 0.84251968503937,
                    "duration": 0.11250000000006821
                },
                {
                    "name": "G#6",
                    "midi": 92,
                    "time": 631.3083333333442,
                    "velocity": 0.905511811023622,
                    "duration": 0.1270833333334167
                },
                {
                    "name": "G1",
                    "midi": 31,
                    "time": 631.4583333333443,
                    "velocity": 0.7952755905511811,
                    "duration": 0.1083333333332348
                },
                {
                    "name": "G2",
                    "midi": 43,
                    "time": 631.4666666666776,
                    "velocity": 0.984251968503937,
                    "duration": 0.12083333333328028
                },
                {
                    "name": "A6",
                    "midi": 93,
                    "time": 631.4729166666776,
                    "velocity": 0.9291338582677166,
                    "duration": 0.09999999999990905
                },
                {
                    "name": "F6",
                    "midi": 89,
                    "time": 631.4750000000109,
                    "velocity": 0.8976377952755905,
                    "duration": 0.09374999999988631
                },
                {
                    "name": "D7",
                    "midi": 98,
                    "time": 631.481250000011,
                    "velocity": 0.9133858267716536,
                    "duration": 0.12499999999988631
                },
                {
                    "name": "C7",
                    "midi": 96,
                    "time": 631.4979166666776,
                    "velocity": 0.6220472440944882,
                    "duration": 0.03125
                },
                {
                    "name": "C#7",
                    "midi": 97,
                    "time": 631.6395833333441,
                    "velocity": 0.6850393700787402,
                    "duration": 0.2479166666665833
                },
                {
                    "name": "E6",
                    "midi": 88,
                    "time": 631.6500000000108,
                    "velocity": 0.6062992125984252,
                    "duration": 0.24374999999997726
                },
                {
                    "name": "A#6",
                    "midi": 94,
                    "time": 631.6520833333441,
                    "velocity": 0.6771653543307087,
                    "duration": 0.25833333333332575
                },
                {
                    "name": "G#6",
                    "midi": 92,
                    "time": 631.6625000000107,
                    "velocity": 0.6377952755905512,
                    "duration": 0.2375000000000682
                },
                {
                    "name": "D7",
                    "midi": 98,
                    "time": 631.820833333344,
                    "velocity": 0.7559055118110236,
                    "duration": 0.24375000000020464
                },
                {
                    "name": "A6",
                    "midi": 93,
                    "time": 631.8250000000107,
                    "velocity": 0.6771653543307087,
                    "duration": 0.22916666666674246
                },
                {
                    "name": "B6",
                    "midi": 95,
                    "time": 631.8250000000107,
                    "velocity": 0.7244094488188977,
                    "duration": 0.2354166666667652
                },
                {
                    "name": "F6",
                    "midi": 89,
                    "time": 631.8250000000107,
                    "velocity": 0.7322834645669292,
                    "duration": 0.2354166666667652
                },
                {
                    "name": "A3",
                    "midi": 57,
                    "time": 631.858333333344,
                    "velocity": 0.9763779527559056,
                    "duration": 0.08750000000009095
                },
                {
                    "name": "A4",
                    "midi": 69,
                    "time": 631.858333333344,
                    "velocity": 1,
                    "duration": 0.5916666666669244
                },
                {
                    "name": "C#7",
                    "midi": 97,
                    "time": 631.9750000000108,
                    "velocity": 0.7322834645669292,
                    "duration": 0.20833333333337123
                },
                {
                    "name": "A#6",
                    "midi": 94,
                    "time": 631.9833333333441,
                    "velocity": 0.5590551181102362,
                    "duration": 0.2062500000000682
                },
                {
                    "name": "E6",
                    "midi": 88,
                    "time": 631.9895833333442,
                    "velocity": 0.5826771653543307,
                    "duration": 0.1729166666666515
                },
                {
                    "name": "G#6",
                    "midi": 92,
                    "time": 632.0041666666775,
                    "velocity": 0.6456692913385826,
                    "duration": 0.1708333333333485
                },
                {
                    "name": "D7",
                    "midi": 98,
                    "time": 632.1375000000108,
                    "velocity": 0.7874015748031497,
                    "duration": 0.2041666666667652
                },
                {
                    "name": "F6",
                    "midi": 89,
                    "time": 632.1395833333441,
                    "velocity": 0.7795275590551181,
                    "duration": 0.19166666666671972
                },
                {
                    "name": "A6",
                    "midi": 93,
                    "time": 632.1395833333441,
                    "velocity": 0.6614173228346457,
                    "duration": 0.1875
                },
                {
                    "name": "B6",
                    "midi": 95,
                    "time": 632.1395833333441,
                    "velocity": 0.7716535433070866,
                    "duration": 0.19583333333343944
                },
                {
                    "name": "F3",
                    "midi": 53,
                    "time": 632.2354166666776,
                    "velocity": 0.6929133858267716,
                    "duration": 0.08124999999995453
                },
                {
                    "name": "C#7",
                    "midi": 97,
                    "time": 632.2750000000109,
                    "velocity": 0.7637795275590551,
                    "duration": 0.17916666666667425
                },
                {
                    "name": "A#6",
                    "midi": 94,
                    "time": 632.2833333333442,
                    "velocity": 0.5826771653543307,
                    "duration": 0.17708333333337123
                },
                {
                    "name": "E6",
                    "midi": 88,
                    "time": 632.2937500000108,
                    "velocity": 0.5826771653543307,
                    "duration": 0.15000000000009095
                },
                {
                    "name": "G#6",
                    "midi": 92,
                    "time": 632.3041666666775,
                    "velocity": 0.5590551181102362,
                    "duration": 0.1250000000001137
                },
                {
                    "name": "D7",
                    "midi": 98,
                    "time": 632.4437500000109,
                    "velocity": 0.8582677165354331,
                    "duration": 0.24791666666669698
                },
                {
                    "name": "B6",
                    "midi": 95,
                    "time": 632.4479166666777,
                    "velocity": 0.7795275590551181,
                    "duration": 0.24166666666667425
                },
                {
                    "name": "F6",
                    "midi": 89,
                    "time": 632.4479166666777,
                    "velocity": 0.8031496062992126,
                    "duration": 0.21666666666669698
                },
                {
                    "name": "A6",
                    "midi": 93,
                    "time": 632.4520833333443,
                    "velocity": 0.7086614173228346,
                    "duration": 0.22916666666674246
                },
                {
                    "name": "G2",
                    "midi": 43,
                    "time": 632.5333333333442,
                    "velocity": 0.984251968503937,
                    "duration": 0.6104166666668789
                },
                {
                    "name": "C#7",
                    "midi": 97,
                    "time": 632.6000000000109,
                    "velocity": 0.6614173228346457,
                    "duration": 0.20833333333325754
                },
                {
                    "name": "A#6",
                    "midi": 94,
                    "time": 632.6083333333443,
                    "velocity": 0.5511811023622047,
                    "duration": 0.21041666666667425
                },
                {
                    "name": "E6",
                    "midi": 88,
                    "time": 632.6208333333443,
                    "velocity": 0.49606299212598426,
                    "duration": 0.17499999999995453
                },
                {
                    "name": "G#6",
                    "midi": 92,
                    "time": 632.6333333333444,
                    "velocity": 0.49606299212598426,
                    "duration": 0.1708333333332348
                },
                {
                    "name": "D7",
                    "midi": 98,
                    "time": 632.7729166666776,
                    "velocity": 0.84251968503937,
                    "duration": 0.2041666666667652
                },
                {
                    "name": "B6",
                    "midi": 95,
                    "time": 632.7750000000109,
                    "velocity": 0.7716535433070866,
                    "duration": 0.19583333333343944
                },
                {
                    "name": "F6",
                    "midi": 89,
                    "time": 632.7812500000109,
                    "velocity": 0.7559055118110236,
                    "duration": 0.1708333333333485
                },
                {
                    "name": "A6",
                    "midi": 93,
                    "time": 632.7812500000109,
                    "velocity": 0.6771653543307087,
                    "duration": 0.18333333333339397
                },
                {
                    "name": "B3",
                    "midi": 59,
                    "time": 632.8270833333443,
                    "velocity": 0.9606299212598425,
                    "duration": 0.1750000000000682
                },
                {
                    "name": "B2",
                    "midi": 47,
                    "time": 632.831250000011,
                    "velocity": 0.8818897637795275,
                    "duration": 0.2541666666667197
                },
                {
                    "name": "C#7",
                    "midi": 97,
                    "time": 632.9000000000109,
                    "velocity": 0.6299212598425197,
                    "duration": 0.17916666666678793
                },
                {
                    "name": "A#6",
                    "midi": 94,
                    "time": 632.9145833333442,
                    "velocity": 0.6141732283464567,
                    "duration": 0.17916666666690162
                },
                {
                    "name": "E6",
                    "midi": 88,
                    "time": 632.9145833333442,
                    "velocity": 0.5118110236220472,
                    "duration": 0.16250000000013642
                },
                {
                    "name": "G#6",
                    "midi": 92,
                    "time": 632.9312500000109,
                    "velocity": 0.4881889763779528,
                    "duration": 0.1583333333335304
                },
                {
                    "name": "D7",
                    "midi": 98,
                    "time": 633.0645833333443,
                    "velocity": 0.8346456692913385,
                    "duration": 0.19583333333355313
                },
                {
                    "name": "B6",
                    "midi": 95,
                    "time": 633.068750000011,
                    "velocity": 0.7795275590551181,
                    "duration": 0.18541666666681067
                },
                {
                    "name": "F6",
                    "midi": 89,
                    "time": 633.0729166666778,
                    "velocity": 0.7716535433070866,
                    "duration": 0.15208333333339397
                },
                {
                    "name": "A6",
                    "midi": 93,
                    "time": 633.0750000000111,
                    "velocity": 0.6614173228346457,
                    "duration": 0.17083333333346218
                },
                {
                    "name": "D4",
                    "midi": 62,
                    "time": 633.1208333333444,
                    "velocity": 0.952755905511811,
                    "duration": 0.08958333333339397
                },
                {
                    "name": "D3",
                    "midi": 50,
                    "time": 633.1333333333445,
                    "velocity": 0.7952755905511811,
                    "duration": 0.05833333333328028
                },
                {
                    "name": "C#7",
                    "midi": 97,
                    "time": 633.1895833333444,
                    "velocity": 0.7086614173228346,
                    "duration": 0.15208333333339397
                },
                {
                    "name": "A#6",
                    "midi": 94,
                    "time": 633.2000000000111,
                    "velocity": 0.5669291338582677,
                    "duration": 0.16458333333343944
                },
                {
                    "name": "E6",
                    "midi": 88,
                    "time": 633.2041666666778,
                    "velocity": 0.5354330708661418,
                    "duration": 0.16250000000002274
                },
                {
                    "name": "G#6",
                    "midi": 92,
                    "time": 633.2166666666778,
                    "velocity": 0.4645669291338583,
                    "duration": 0.14791666666667425
                },
                {
                    "name": "D7",
                    "midi": 98,
                    "time": 633.3625000000112,
                    "velocity": 0.8740157480314961,
                    "duration": 0.2645833333334622
                },
                {
                    "name": "B6",
                    "midi": 95,
                    "time": 633.3666666666778,
                    "velocity": 0.8110236220472441,
                    "duration": 0.24791666666681067
                },
                {
                    "name": "F6",
                    "midi": 89,
                    "time": 633.3708333333445,
                    "velocity": 0.8188976377952756,
                    "duration": 0.23125000000004547
                },
                {
                    "name": "A6",
                    "midi": 93,
                    "time": 633.3729166666778,
                    "velocity": 0.7007874015748031,
                    "duration": 0.24166666666678793
                },
                {
                    "name": "A4",
                    "midi": 69,
                    "time": 633.4041666666778,
                    "velocity": 0.7952755905511811,
                    "duration": 1.0625000000009095
                },
                {
                    "name": "A3",
                    "midi": 57,
                    "time": 633.4083333333446,
                    "velocity": 0.8582677165354331,
                    "duration": 0.3270833333334622
                },
                {
                    "name": "F4",
                    "midi": 65,
                    "time": 633.4145833333446,
                    "velocity": 0.889763779527559,
                    "duration": 1.137500000000955
                },
                {
                    "name": "G1",
                    "midi": 31,
                    "time": 633.4145833333446,
                    "velocity": 1,
                    "duration": 0.15416666666669698
                },
                {
                    "name": "C#7",
                    "midi": 97,
                    "time": 633.5312500000113,
                    "velocity": 0.6929133858267716,
                    "duration": 0.16666666666674246
                },
                {
                    "name": "A#6",
                    "midi": 94,
                    "time": 633.5458333333446,
                    "velocity": 0.4881889763779528,
                    "duration": 0.1583333333334167
                },
                {
                    "name": "E6",
                    "midi": 88,
                    "time": 633.5500000000113,
                    "velocity": 0.3464566929133858,
                    "duration": 0.1416666666666515
                },
                {
                    "name": "G#6",
                    "midi": 92,
                    "time": 633.5687500000113,
                    "velocity": 0.4251968503937008,
                    "duration": 0.12291666666669698
                },
                {
                    "name": "D7",
                    "midi": 98,
                    "time": 633.6895833333447,
                    "velocity": 0.7559055118110236,
                    "duration": 0.22708333333355313
                },
                {
                    "name": "B6",
                    "midi": 95,
                    "time": 633.6958333333447,
                    "velocity": 0.7401574803149606,
                    "duration": 0.21666666666681067
                },
                {
                    "name": "F6",
                    "midi": 89,
                    "time": 633.697916666678,
                    "velocity": 0.7559055118110236,
                    "duration": 0.20000000000015916
                },
                {
                    "name": "A6",
                    "midi": 93,
                    "time": 633.7020833333447,
                    "velocity": 0.6377952755905512,
                    "duration": 0.2208333333335304
                },
                {
                    "name": "D3",
                    "midi": 50,
                    "time": 633.7833333333447,
                    "velocity": 0.7401574803149606,
                    "duration": 0.3666666666670153
                },
                {
                    "name": "C#7",
                    "midi": 97,
                    "time": 633.8500000000114,
                    "velocity": 0.6614173228346457,
                    "duration": 0.18750000000022737
                },
                {
                    "name": "E6",
                    "midi": 88,
                    "time": 633.8562500000114,
                    "velocity": 0.5354330708661418,
                    "duration": 0.18125000000020464
                },
                {
                    "name": "A#6",
                    "midi": 94,
                    "time": 633.8604166666781,
                    "velocity": 0.5354330708661418,
                    "duration": 0.1937500000002501
                },
                {
                    "name": "G#6",
                    "midi": 92,
                    "time": 633.8812500000115,
                    "velocity": 0.5275590551181102,
                    "duration": 0.1604166666668334
                },
                {
                    "name": "D7",
                    "midi": 98,
                    "time": 634.0020833333449,
                    "velocity": 0.8188976377952756,
                    "duration": 0.22708333333366681
                },
                {
                    "name": "A6",
                    "midi": 93,
                    "time": 634.0083333333449,
                    "velocity": 0.6535433070866141,
                    "duration": 0.21250000000020464
                },
                {
                    "name": "F6",
                    "midi": 89,
                    "time": 634.0083333333449,
                    "velocity": 0.7637795275590551,
                    "duration": 0.1937500000002501
                },
                {
                    "name": "B6",
                    "midi": 95,
                    "time": 634.0125000000116,
                    "velocity": 0.7401574803149606,
                    "duration": 0.21250000000020464
                },
                {
                    "name": "B3",
                    "midi": 59,
                    "time": 634.0604166666784,
                    "velocity": 0.7952755905511811,
                    "duration": 0.07083333333332575
                },
                {
                    "name": "C#7",
                    "midi": 97,
                    "time": 634.1625000000117,
                    "velocity": 0.7480314960629921,
                    "duration": 0.1791666666670153
                },
                {
                    "name": "A#6",
                    "midi": 94,
                    "time": 634.1666666666785,
                    "velocity": 0.6220472440944882,
                    "duration": 0.17500000000029559
                },
                {
                    "name": "E6",
                    "midi": 88,
                    "time": 634.1708333333452,
                    "velocity": 0.5275590551181102,
                    "duration": 0.18333333333362134
                },
                {
                    "name": "G#6",
                    "midi": 92,
                    "time": 634.1875000000118,
                    "velocity": 0.5118110236220472,
                    "duration": 0.15000000000020464
                },
                {
                    "name": "D7",
                    "midi": 98,
                    "time": 634.3208333333453,
                    "velocity": 0.8188976377952756,
                    "duration": 0.23750000000029559
                },
                {
                    "name": "B6",
                    "midi": 95,
                    "time": 634.3229166666786,
                    "velocity": 0.7716535433070866,
                    "duration": 0.2229166666669471
                },
                {
                    "name": "F6",
                    "midi": 89,
                    "time": 634.3250000000119,
                    "velocity": 0.7795275590551181,
                    "duration": 0.21666666666692436
                },
                {
                    "name": "A6",
                    "midi": 93,
                    "time": 634.3291666666786,
                    "velocity": 0.6771653543307087,
                    "duration": 0.22083333333364408
                },
                {
                    "name": "G2",
                    "midi": 43,
                    "time": 634.3333333333453,
                    "velocity": 0.9763779527559056,
                    "duration": 0.5562500000002046
                },
                {
                    "name": "C#7",
                    "midi": 97,
                    "time": 634.4791666666788,
                    "velocity": 0.6850393700787402,
                    "duration": 0.18541666666681067
                },
                {
                    "name": "A#6",
                    "midi": 94,
                    "time": 634.4875000000121,
                    "velocity": 0.5669291338582677,
                    "duration": 0.1875000000001137
                },
                {
                    "name": "E6",
                    "midi": 88,
                    "time": 634.4979166666787,
                    "velocity": 0.4409448818897638,
                    "duration": 0.15000000000009095
                },
                {
                    "name": "G#6",
                    "midi": 92,
                    "time": 634.5041666666788,
                    "velocity": 0.47244094488188976,
                    "duration": 0.1562500000001137
                },
                {
                    "name": "B3",
                    "midi": 59,
                    "time": 634.6145833333455,
                    "velocity": 0.9606299212598425,
                    "duration": 0.11458333333337123
                },
                {
                    "name": "B2",
                    "midi": 47,
                    "time": 634.6166666666788,
                    "velocity": 0.7874015748031497,
                    "duration": 0.20833333333337123
                },
                {
                    "name": "D7",
                    "midi": 98,
                    "time": 634.6354166666788,
                    "velocity": 0.8110236220472441,
                    "duration": 0.21458333333339397
                },
                {
                    "name": "A6",
                    "midi": 93,
                    "time": 634.6395833333455,
                    "velocity": 0.6850393700787402,
                    "duration": 0.20833333333337123
                },
                {
                    "name": "F6",
                    "midi": 89,
                    "time": 634.6395833333455,
                    "velocity": 0.7559055118110236,
                    "duration": 0.19583333333332575
                },
                {
                    "name": "B6",
                    "midi": 95,
                    "time": 634.6416666666788,
                    "velocity": 0.7086614173228346,
                    "duration": 0.2020833333333485
                },
                {
                    "name": "C#7",
                    "midi": 97,
                    "time": 634.7875000000122,
                    "velocity": 0.6929133858267716,
                    "duration": 0.16250000000002274
                },
                {
                    "name": "A#6",
                    "midi": 94,
                    "time": 634.7979166666788,
                    "velocity": 0.6220472440944882,
                    "duration": 0.16666666666674246
                },
                {
                    "name": "E6",
                    "midi": 88,
                    "time": 634.8062500000121,
                    "velocity": 0.4645669291338583,
                    "duration": 0.1395833333333485
                },
                {
                    "name": "G#6",
                    "midi": 92,
                    "time": 634.8125000000122,
                    "velocity": 0.4881889763779528,
                    "duration": 0.15208333333339397
                },
                {
                    "name": "D4",
                    "midi": 62,
                    "time": 634.8812500000122,
                    "velocity": 0.9763779527559056,
                    "duration": 0.10625000000004547
                },
                {
                    "name": "D3",
                    "midi": 50,
                    "time": 634.9000000000121,
                    "velocity": 0.7165354330708661,
                    "duration": 0.03333333333330302
                },
                {
                    "name": "D7",
                    "midi": 98,
                    "time": 634.9250000000121,
                    "velocity": 0.7795275590551181,
                    "duration": 0.19375000000013642
                },
                {
                    "name": "A6",
                    "midi": 93,
                    "time": 634.9291666666788,
                    "velocity": 0.6299212598425197,
                    "duration": 0.19375000000002274
                },
                {
                    "name": "B6",
                    "midi": 95,
                    "time": 634.9312500000121,
                    "velocity": 0.7559055118110236,
                    "duration": 0.1895833333334167
                },
                {
                    "name": "F6",
                    "midi": 89,
                    "time": 634.9312500000121,
                    "velocity": 0.6929133858267716,
                    "duration": 0.16666666666674246
                },
                {
                    "name": "C#7",
                    "midi": 97,
                    "time": 635.0687500000122,
                    "velocity": 0.6614173228346457,
                    "duration": 0.1708333333333485
                },
                {
                    "name": "A#6",
                    "midi": 94,
                    "time": 635.0791666666788,
                    "velocity": 0.5511811023622047,
                    "duration": 0.1750000000000682
                },
                {
                    "name": "E6",
                    "midi": 88,
                    "time": 635.0812500000121,
                    "velocity": 0.49606299212598426,
                    "duration": 0.16041666666671972
                },
                {
                    "name": "G#6",
                    "midi": 92,
                    "time": 635.0937500000122,
                    "velocity": 0.5118110236220472,
                    "duration": 0.16250000000002274
                },
                {
                    "name": "A3",
                    "midi": 57,
                    "time": 635.1583333333456,
                    "velocity": 0.8818897637795275,
                    "duration": 0.20833333333325754
                },
                {
                    "name": "A4",
                    "midi": 69,
                    "time": 635.1604166666789,
                    "velocity": 0.8503937007874016,
                    "duration": 0.3291666666667652
                },
                {
                    "name": "G1",
                    "midi": 31,
                    "time": 635.1645833333455,
                    "velocity": 0.984251968503937,
                    "duration": 0.11041666666665151
                },
                {
                    "name": "F4",
                    "midi": 65,
                    "time": 635.1645833333455,
                    "velocity": 0.8582677165354331,
                    "duration": 0.3937500000000682
                },
                {
                    "name": "D7",
                    "midi": 98,
                    "time": 635.2104166666788,
                    "velocity": 0.7716535433070866,
                    "duration": 0.19791666666674246
                },
                {
                    "name": "B6",
                    "midi": 95,
                    "time": 635.2145833333456,
                    "velocity": 0.6614173228346457,
                    "duration": 0.16666666666662877
                },
                {
                    "name": "A6",
                    "midi": 93,
                    "time": 635.2166666666789,
                    "velocity": 0.6377952755905512,
                    "duration": 0.1729166666667652
                },
                {
                    "name": "F6",
                    "midi": 89,
                    "time": 635.2187500000122,
                    "velocity": 0.6850393700787402,
                    "duration": 0.15833333333330302
                },
                {
                    "name": "A#6",
                    "midi": 94,
                    "time": 635.3541666666788,
                    "velocity": 0.5590551181102362,
                    "duration": 0.1729166666667652
                },
                {
                    "name": "C#7",
                    "midi": 97,
                    "time": 635.3583333333455,
                    "velocity": 0.6220472440944882,
                    "duration": 0.1562500000001137
                },
                {
                    "name": "G#6",
                    "midi": 92,
                    "time": 635.3770833333455,
                    "velocity": 0.4566929133858268,
                    "duration": 0.13958333333346218
                },
                {
                    "name": "E6",
                    "midi": 88,
                    "time": 635.3854166666789,
                    "velocity": 0.4330708661417323,
                    "duration": 0.1270833333334167
                },
                {
                    "name": "D7",
                    "midi": 98,
                    "time": 635.4812500000122,
                    "velocity": 0.6929133858267716,
                    "duration": 0.2020833333333485
                },
                {
                    "name": "B6",
                    "midi": 95,
                    "time": 635.4854166666789,
                    "velocity": 0.6771653543307087,
                    "duration": 0.18333333333328028
                },
                {
                    "name": "F6",
                    "midi": 89,
                    "time": 635.4854166666789,
                    "velocity": 0.6850393700787402,
                    "duration": 0.1687499999999318
                },
                {
                    "name": "B3",
                    "midi": 59,
                    "time": 635.4958333333457,
                    "velocity": 0.9291338582677166,
                    "duration": 0.12916666666649235
                },
                {
                    "name": "B2",
                    "midi": 47,
                    "time": 635.4958333333457,
                    "velocity": 0.7716535433070866,
                    "duration": 0.17291666666653782
                },
                {
                    "name": "A6",
                    "midi": 93,
                    "time": 635.4958333333457,
                    "velocity": 0.6535433070866141,
                    "duration": 0.17708333333325754
                },
                {
                    "name": "C#7",
                    "midi": 97,
                    "time": 635.6229166666789,
                    "velocity": 0.6614173228346457,
                    "duration": 0.18125000000009095
                },
                {
                    "name": "A#6",
                    "midi": 94,
                    "time": 635.6291666666789,
                    "velocity": 0.5669291338582677,
                    "duration": 0.1895833333334167
                },
                {
                    "name": "E6",
                    "midi": 88,
                    "time": 635.6312500000122,
                    "velocity": 0.5590551181102362,
                    "duration": 0.1729166666667652
                },
                {
                    "name": "G#6",
                    "midi": 92,
                    "time": 635.6500000000121,
                    "velocity": 0.5669291338582677,
                    "duration": 0.1562500000001137
                },
                {
                    "name": "D4",
                    "midi": 62,
                    "time": 635.7625000000122,
                    "velocity": 0.9921259842519685,
                    "duration": 0.16875000000004547
                },
                {
                    "name": "D3",
                    "midi": 50,
                    "time": 635.7729166666788,
                    "velocity": 0.8110236220472441,
                    "duration": 0.10416666666674246
                },
                {
                    "name": "D7",
                    "midi": 98,
                    "time": 635.7770833333456,
                    "velocity": 0.7795275590551181,
                    "duration": 0.20208333333346218
                },
                {
                    "name": "B6",
                    "midi": 95,
                    "time": 635.7791666666789,
                    "velocity": 0.7165354330708661,
                    "duration": 0.1916666666668334
                },
                {
                    "name": "F6",
                    "midi": 89,
                    "time": 635.7833333333456,
                    "velocity": 0.7086614173228346,
                    "duration": 0.1729166666667652
                },
                {
                    "name": "A6",
                    "midi": 93,
                    "time": 635.7833333333456,
                    "velocity": 0.6535433070866141,
                    "duration": 0.18541666666681067
                },
                {
                    "name": "C#7",
                    "midi": 97,
                    "time": 635.9187500000122,
                    "velocity": 0.6692913385826772,
                    "duration": 0.17083333333357587
                },
                {
                    "name": "A#6",
                    "midi": 94,
                    "time": 635.9250000000122,
                    "velocity": 0.5118110236220472,
                    "duration": 0.18541666666692436
                },
                {
                    "name": "E6",
                    "midi": 88,
                    "time": 635.935416666679,
                    "velocity": 0.5196850393700787,
                    "duration": 0.15416666666681067
                },
                {
                    "name": "G#6",
                    "midi": 92,
                    "time": 635.947916666679,
                    "velocity": 0.5669291338582677,
                    "duration": 0.15000000000009095
                },
                {
                    "name": "A4",
                    "midi": 69,
                    "time": 636.004166666679,
                    "velocity": 0.8346456692913385,
                    "duration": 0.29375000000015916
                },
                {
                    "name": "A3",
                    "midi": 57,
                    "time": 636.004166666679,
                    "velocity": 0.8740157480314961,
                    "duration": 0.19375000000013642
                },
                {
                    "name": "F4",
                    "midi": 65,
                    "time": 636.0083333333457,
                    "velocity": 0.8346456692913385,
                    "duration": 0.3000000000000682
                },
                {
                    "name": "G2",
                    "midi": 43,
                    "time": 636.0125000000124,
                    "velocity": 1,
                    "duration": 0.5729166666667425
                },
                {
                    "name": "D7",
                    "midi": 98,
                    "time": 636.0645833333458,
                    "velocity": 0.7795275590551181,
                    "duration": 0.18124999999997726
                },
                {
                    "name": "B6",
                    "midi": 95,
                    "time": 636.0687500000125,
                    "velocity": 0.7007874015748031,
                    "duration": 0.17291666666653782
                },
                {
                    "name": "F6",
                    "midi": 89,
                    "time": 636.0708333333458,
                    "velocity": 0.7244094488188977,
                    "duration": 0.1562499999998863
                },
                {
                    "name": "A6",
                    "midi": 93,
                    "time": 636.0791666666792,
                    "velocity": 0.6692913385826772,
                    "duration": 0.14583333333325754
                },
                {
                    "name": "C#7",
                    "midi": 97,
                    "time": 636.2041666666792,
                    "velocity": 0.6220472440944882,
                    "duration": 0.1520833333331666
                },
                {
                    "name": "A#6",
                    "midi": 94,
                    "time": 636.2041666666792,
                    "velocity": 0.5354330708661418,
                    "duration": 0.17291666666653782
                },
                {
                    "name": "E6",
                    "midi": 88,
                    "time": 636.2145833333458,
                    "velocity": 0.5433070866141733,
                    "duration": 0.14374999999984084
                },
                {
                    "name": "G#6",
                    "midi": 92,
                    "time": 636.2229166666791,
                    "velocity": 0.5669291338582677,
                    "duration": 0.14791666666656056
                },
                {
                    "name": "B2",
                    "midi": 47,
                    "time": 636.3083333333458,
                    "velocity": 0.84251968503937,
                    "duration": 0.21041666666667425
                },
                {
                    "name": "B3",
                    "midi": 59,
                    "time": 636.3166666666791,
                    "velocity": 0.952755905511811,
                    "duration": 0.10416666666662877
                },
                {
                    "name": "D7",
                    "midi": 98,
                    "time": 636.3354166666791,
                    "velocity": 0.7165354330708661,
                    "duration": 0.1708333333333485
                },
                {
                    "name": "B6",
                    "midi": 95,
                    "time": 636.3375000000124,
                    "velocity": 0.6456692913385826,
                    "duration": 0.16666666666674246
                },
                {
                    "name": "F6",
                    "midi": 89,
                    "time": 636.3395833333457,
                    "velocity": 0.6535433070866141,
                    "duration": 0.14791666666678793
                },
                {
                    "name": "A6",
                    "midi": 93,
                    "time": 636.347916666679,
                    "velocity": 0.5748031496062992,
                    "duration": 0.14583333333348492
                },
                {
                    "name": "C#7",
                    "midi": 97,
                    "time": 636.4687500000124,
                    "velocity": 0.5826771653543307,
                    "duration": 0.16666666666674246
                },
                {
                    "name": "A#6",
                    "midi": 94,
                    "time": 636.4729166666791,
                    "velocity": 0.47244094488188976,
                    "duration": 0.18333333333339397
                },
                {
                    "name": "E6",
                    "midi": 88,
                    "time": 636.4812500000124,
                    "velocity": 0.5039370078740157,
                    "duration": 0.16041666666671972
                },
                {
                    "name": "G#6",
                    "midi": 92,
                    "time": 636.4875000000125,
                    "velocity": 0.5118110236220472,
                    "duration": 0.16250000000002274
                },
                {
                    "name": "D4",
                    "midi": 62,
                    "time": 636.5875000000125,
                    "velocity": 0.984251968503937,
                    "duration": 0.09166666666669698
                },
                {
                    "name": "D3",
                    "midi": 50,
                    "time": 636.6000000000125,
                    "velocity": 0.7559055118110236,
                    "duration": 0.039583333333325754
                },
                {
                    "name": "D7",
                    "midi": 98,
                    "time": 636.6104166666792,
                    "velocity": 0.7716535433070866,
                    "duration": 0.19375000000002274
                },
                {
                    "name": "B6",
                    "midi": 95,
                    "time": 636.6125000000125,
                    "velocity": 0.7007874015748031,
                    "duration": 0.18541666666669698
                },
                {
                    "name": "F6",
                    "midi": 89,
                    "time": 636.6208333333458,
                    "velocity": 0.6299212598425197,
                    "duration": 0.16666666666674246
                },
                {
                    "name": "A6",
                    "midi": 93,
                    "time": 636.6291666666791,
                    "velocity": 0.5590551181102362,
                    "duration": 0.16666666666674246
                },
                {
                    "name": "C#7",
                    "midi": 97,
                    "time": 636.7520833333458,
                    "velocity": 0.6929133858267716,
                    "duration": 0.1562500000001137
                },
                {
                    "name": "A#6",
                    "midi": 94,
                    "time": 636.7541666666791,
                    "velocity": 0.5275590551181102,
                    "duration": 0.17916666666678793
                },
                {
                    "name": "E6",
                    "midi": 88,
                    "time": 636.7583333333458,
                    "velocity": 0.6141732283464567,
                    "duration": 0.16458333333343944
                },
                {
                    "name": "G#6",
                    "midi": 92,
                    "time": 636.7729166666792,
                    "velocity": 0.5511811023622047,
                    "duration": 0.13750000000004547
                },
                {
                    "name": "A4",
                    "midi": 69,
                    "time": 636.8687500000125,
                    "velocity": 0.8582677165354331,
                    "duration": 0.3125000000001137
                },
                {
                    "name": "A3",
                    "midi": 57,
                    "time": 636.8708333333458,
                    "velocity": 0.889763779527559,
                    "duration": 0.32500000000027285
                },
                {
                    "name": "F4",
                    "midi": 65,
                    "time": 636.8729166666791,
                    "velocity": 0.8582677165354331,
                    "duration": 0.3479166666668334
                },
                {
                    "name": "G1",
                    "midi": 31,
                    "time": 636.8812500000124,
                    "velocity": 0.984251968503937,
                    "duration": 0.09166666666681067
                },
                {
                    "name": "D7",
                    "midi": 98,
                    "time": 636.8937500000125,
                    "velocity": 0.8582677165354331,
                    "duration": 0.21250000000009095
                },
                {
                    "name": "F6",
                    "midi": 89,
                    "time": 636.9000000000125,
                    "velocity": 0.7716535433070866,
                    "duration": 0.16666666666674246
                },
                {
                    "name": "B6",
                    "midi": 95,
                    "time": 636.9000000000125,
                    "velocity": 0.7559055118110236,
                    "duration": 0.19166666666671972
                },
                {
                    "name": "A6",
                    "midi": 93,
                    "time": 636.9041666666792,
                    "velocity": 0.6614173228346457,
                    "duration": 0.1875
                },
                {
                    "name": "C#7",
                    "midi": 97,
                    "time": 637.0479166666793,
                    "velocity": 0.7637795275590551,
                    "duration": 0.12916666666660603
                },
                {
                    "name": "A#6",
                    "midi": 94,
                    "time": 637.0479166666793,
                    "velocity": 0.6692913385826772,
                    "duration": 0.16250000000002274
                },
                {
                    "name": "E6",
                    "midi": 88,
                    "time": 637.0500000000126,
                    "velocity": 0.6614173228346457,
                    "duration": 0.13541666666674246
                },
                {
                    "name": "G#6",
                    "midi": 92,
                    "time": 637.0666666666792,
                    "velocity": 0.6299212598425197,
                    "duration": 0.13333333333343944
                },
                {
                    "name": "D7",
                    "midi": 98,
                    "time": 637.189583333346,
                    "velocity": 0.8740157480314961,
                    "duration": 0.1729166666666515
                },
                {
                    "name": "F6",
                    "midi": 89,
                    "time": 637.1979166666794,
                    "velocity": 0.7874015748031497,
                    "duration": 0.19375000000013642
                },
                {
                    "name": "B6",
                    "midi": 95,
                    "time": 637.1979166666794,
                    "velocity": 0.7637795275590551,
                    "duration": 0.15833333333330302
                },
                {
                    "name": "A6",
                    "midi": 93,
                    "time": 637.202083333346,
                    "velocity": 0.6850393700787402,
                    "duration": 0.16458333333343944
                },
                {
                    "name": "G2",
                    "midi": 43,
                    "time": 637.208333333346,
                    "velocity": 0.7952755905511811,
                    "duration": 0.4395833333335304
                },
                {
                    "name": "C#7",
                    "midi": 97,
                    "time": 637.3104166666792,
                    "velocity": 0.7795275590551181,
                    "duration": 0.10416666666696983
                },
                {
                    "name": "E6",
                    "midi": 88,
                    "time": 637.3145833333459,
                    "velocity": 0.5984251968503937,
                    "duration": 0.10208333333355313
                },
                {
                    "name": "A#6",
                    "midi": 94,
                    "time": 637.3187500000126,
                    "velocity": 0.5905511811023622,
                    "duration": 0.11875000000020464
                },
                {
                    "name": "G#6",
                    "midi": 92,
                    "time": 637.3250000000127,
                    "velocity": 0.5118110236220472,
                    "duration": 0.04583333333346218
                },
                {
                    "name": "G4",
                    "midi": 67,
                    "time": 637.4541666666795,
                    "velocity": 0.8818897637795275,
                    "duration": 0.3583333333333485
                },
                {
                    "name": "G3",
                    "midi": 55,
                    "time": 637.4583333333462,
                    "velocity": 0.8740157480314961,
                    "duration": 0.43124999999997726
                },
                {
                    "name": "F3",
                    "midi": 53,
                    "time": 637.4770833333462,
                    "velocity": 0.8188976377952756,
                    "duration": 0.08749999999997726
                },
                {
                    "name": "B6",
                    "midi": 95,
                    "time": 637.4833333333462,
                    "velocity": 0.8188976377952756,
                    "duration": 0.17708333333337123
                },
                {
                    "name": "D6",
                    "midi": 86,
                    "time": 637.4979166666795,
                    "velocity": 0.7401574803149606,
                    "duration": 0.1750000000000682
                },
                {
                    "name": "A6",
                    "midi": 93,
                    "time": 637.4979166666795,
                    "velocity": 0.7086614173228346,
                    "duration": 0.1875
                },
                {
                    "name": "F6",
                    "midi": 89,
                    "time": 637.5000000000128,
                    "velocity": 0.6771653543307087,
                    "duration": 0.13333333333332575
                },
                {
                    "name": "A#6",
                    "midi": 94,
                    "time": 637.6145833333461,
                    "velocity": 0.7480314960629921,
                    "duration": 0.11666666666678793
                },
                {
                    "name": "E6",
                    "midi": 88,
                    "time": 637.6270833333461,
                    "velocity": 0.4645669291338583,
                    "duration": 0.13541666666685614
                },
                {
                    "name": "C#6",
                    "midi": 85,
                    "time": 637.6395833333462,
                    "velocity": 0.6141732283464567,
                    "duration": 0.16250000000002274
                },
                {
                    "name": "G2",
                    "midi": 43,
                    "time": 637.7375000000129,
                    "velocity": 0.984251968503937,
                    "duration": 0.6875000000004547
                },
                {
                    "name": "A6",
                    "midi": 93,
                    "time": 637.7750000000129,
                    "velocity": 0.6614173228346457,
                    "duration": 0.2062500000000682
                },
                {
                    "name": "G6",
                    "midi": 91,
                    "time": 637.7937500000129,
                    "velocity": 0.5118110236220472,
                    "duration": 0.11458333333325754
                },
                {
                    "name": "D6",
                    "midi": 86,
                    "time": 637.7979166666796,
                    "velocity": 0.4330708661417323,
                    "duration": 0.19375000000002274
                },
                {
                    "name": "F6",
                    "midi": 89,
                    "time": 637.8000000000129,
                    "velocity": 0.6614173228346457,
                    "duration": 0.1437500000000682
                },
                {
                    "name": "B5",
                    "midi": 83,
                    "time": 637.8000000000129,
                    "velocity": 0.5039370078740157,
                    "duration": 0.10208333333321207
                },
                {
                    "name": "C6",
                    "midi": 84,
                    "time": 637.8020833333462,
                    "velocity": 0.49606299212598426,
                    "duration": 0.08958333333328028
                },
                {
                    "name": "G#6",
                    "midi": 92,
                    "time": 637.9125000000129,
                    "velocity": 0.7165354330708661,
                    "duration": 0.13125000000013642
                },
                {
                    "name": "E6",
                    "midi": 88,
                    "time": 637.9166666666796,
                    "velocity": 0.5590551181102362,
                    "duration": 0.14583333333348492
                },
                {
                    "name": "A#5",
                    "midi": 82,
                    "time": 637.9229166666796,
                    "velocity": 0.5984251968503937,
                    "duration": 0.13125000000002274
                },
                {
                    "name": "C#6",
                    "midi": 85,
                    "time": 637.9520833333463,
                    "velocity": 0.3937007874015748,
                    "duration": 0.15208333333350765
                },
                {
                    "name": "B2",
                    "midi": 47,
                    "time": 638.0583333333464,
                    "velocity": 0.8110236220472441,
                    "duration": 0.11875000000009095
                },
                {
                    "name": "A6",
                    "midi": 93,
                    "time": 638.0625000000131,
                    "velocity": 0.7322834645669292,
                    "duration": 0.13750000000015916
                },
                {
                    "name": "B5",
                    "midi": 83,
                    "time": 638.0666666666798,
                    "velocity": 0.7401574803149606,
                    "duration": 0.16666666666685614
                },
                {
                    "name": "B3",
                    "midi": 59,
                    "time": 638.0708333333465,
                    "velocity": 1,
                    "duration": 0.28958333333343944
                },
                {
                    "name": "F6",
                    "midi": 89,
                    "time": 638.0708333333465,
                    "velocity": 0.7244094488188977,
                    "duration": 0.15000000000009095
                },
                {
                    "name": "D6",
                    "midi": 86,
                    "time": 638.0729166666798,
                    "velocity": 0.6850393700787402,
                    "duration": 0.1416666666667652
                },
                {
                    "name": "G#6",
                    "midi": 92,
                    "time": 638.1916666666798,
                    "velocity": 0.7952755905511811,
                    "duration": 0.11041666666687888
                },
                {
                    "name": "C#6",
                    "midi": 85,
                    "time": 638.1958333333465,
                    "velocity": 0.5433070866141733,
                    "duration": 0.1875000000001137
                },
                {
                    "name": "A#5",
                    "midi": 82,
                    "time": 638.2083333333466,
                    "velocity": 0.5511811023622047,
                    "duration": 0.16041666666671972
                },
                {
                    "name": "E6",
                    "midi": 88,
                    "time": 638.2166666666799,
                    "velocity": 0.5354330708661418,
                    "duration": 0.11666666666678793
                },
                {
                    "name": "F6",
                    "midi": 89,
                    "time": 638.34791666668,
                    "velocity": 0.7716535433070866,
                    "duration": 0.11666666666667425
                },
                {
                    "name": "D6",
                    "midi": 86,
                    "time": 638.3500000000133,
                    "velocity": 0.7165354330708661,
                    "duration": 0.13750000000004547
                },
                {
                    "name": "A5",
                    "midi": 81,
                    "time": 638.3520833333466,
                    "velocity": 0.7716535433070866,
                    "duration": 0.0791666666667652
                },
                {
                    "name": "B5",
                    "midi": 83,
                    "time": 638.3541666666799,
                    "velocity": 0.6614173228346457,
                    "duration": 0.11250000000006821
                },
                {
                    "name": "F3",
                    "midi": 53,
                    "time": 638.3750000000133,
                    "velocity": 0.8031496062992126,
                    "duration": 0.03750000000002274
                },
                {
                    "name": "G#5",
                    "midi": 80,
                    "time": 638.5000000000134,
                    "velocity": 0.7952755905511811,
                    "duration": 0.15208333333328028
                },
                {
                    "name": "E6",
                    "midi": 88,
                    "time": 638.5020833333467,
                    "velocity": 0.7874015748031497,
                    "duration": 0.09375
                },
                {
                    "name": "D6",
                    "midi": 86,
                    "time": 638.6812500000134,
                    "velocity": 0.7637795275590551,
                    "duration": 0.2354166666667652
                },
                {
                    "name": "B5",
                    "midi": 83,
                    "time": 638.6812500000134,
                    "velocity": 0.7401574803149606,
                    "duration": 0.22916666666674246
                },
                {
                    "name": "G#5",
                    "midi": 80,
                    "time": 638.6812500000134,
                    "velocity": 0.7322834645669292,
                    "duration": 0.21458333333339397
                },
                {
                    "name": "F#5",
                    "midi": 78,
                    "time": 638.6833333333467,
                    "velocity": 0.7086614173228346,
                    "duration": 0.22708333333343944
                },
                {
                    "name": "F#4",
                    "midi": 66,
                    "time": 638.7125000000134,
                    "velocity": 0.905511811023622,
                    "duration": 1.0708333333340079
                },
                {
                    "name": "G#3",
                    "midi": 56,
                    "time": 638.7187500000134,
                    "velocity": 0.8503937007874016,
                    "duration": 0.9895833333339397
                },
                {
                    "name": "F#3",
                    "midi": 54,
                    "time": 638.7187500000134,
                    "velocity": 0.968503937007874,
                    "duration": 0.9687500000005684
                },
                {
                    "name": "D4",
                    "midi": 62,
                    "time": 638.7250000000134,
                    "velocity": 0.84251968503937,
                    "duration": 1.104166666667311
                },
                {
                    "name": "B1",
                    "midi": 35,
                    "time": 638.7354166666801,
                    "velocity": 0.9291338582677166,
                    "duration": 0.1395833333333485
                },
                {
                    "name": "C#6",
                    "midi": 85,
                    "time": 638.8604166666801,
                    "velocity": 0.7322834645669292,
                    "duration": 0.24583333333339397
                },
                {
                    "name": "A#5",
                    "midi": 82,
                    "time": 638.8750000000134,
                    "velocity": 0.6299212598425197,
                    "duration": 0.2208333333334167
                },
                {
                    "name": "F5",
                    "midi": 77,
                    "time": 638.8895833333468,
                    "velocity": 0.5748031496062992,
                    "duration": 0.19583333333343944
                },
                {
                    "name": "G5",
                    "midi": 79,
                    "time": 638.8895833333468,
                    "velocity": 0.6141732283464567,
                    "duration": 0.19166666666671972
                },
                {
                    "name": "F#5",
                    "midi": 78,
                    "time": 639.0520833333468,
                    "velocity": 0.6850393700787402,
                    "duration": 0.12916666666671972
                },
                {
                    "name": "G#5",
                    "midi": 80,
                    "time": 639.0541666666801,
                    "velocity": 0.6771653543307087,
                    "duration": 0.14166666666687888
                },
                {
                    "name": "D6",
                    "midi": 86,
                    "time": 639.0583333333468,
                    "velocity": 0.7401574803149606,
                    "duration": 0.1770833333335986
                },
                {
                    "name": "B5",
                    "midi": 83,
                    "time": 639.0625000000135,
                    "velocity": 0.6614173228346457,
                    "duration": 0.16875000000015916
                },
                {
                    "name": "B2",
                    "midi": 47,
                    "time": 639.1145833333468,
                    "velocity": 0.33858267716535434,
                    "duration": 0.17500000000029559
                },
                {
                    "name": "G5",
                    "midi": 79,
                    "time": 639.1854166666802,
                    "velocity": 0.5275590551181102,
                    "duration": 0.1895833333335304
                },
                {
                    "name": "F5",
                    "midi": 77,
                    "time": 639.189583333347,
                    "velocity": 0.5354330708661418,
                    "duration": 0.1875000000001137
                },
                {
                    "name": "C#6",
                    "midi": 85,
                    "time": 639.1916666666802,
                    "velocity": 0.7322834645669292,
                    "duration": 0.20208333333346218
                },
                {
                    "name": "A#5",
                    "midi": 82,
                    "time": 639.1916666666802,
                    "velocity": 0.6692913385826772,
                    "duration": 0.1750000000001819
                },
                {
                    "name": "G#5",
                    "midi": 80,
                    "time": 639.3479166666804,
                    "velocity": 0.6614173228346457,
                    "duration": 0.11666666666667425
                },
                {
                    "name": "F#5",
                    "midi": 78,
                    "time": 639.3500000000137,
                    "velocity": 0.6456692913385826,
                    "duration": 0.10416666666674246
                },
                {
                    "name": "D6",
                    "midi": 86,
                    "time": 639.3562500000137,
                    "velocity": 0.7007874015748031,
                    "duration": 0.16458333333355313
                },
                {
                    "name": "D3",
                    "midi": 50,
                    "time": 639.3625000000137,
                    "velocity": 0.7637795275590551,
                    "duration": 0.10625000000004547
                },
                {
                    "name": "B5",
                    "midi": 83,
                    "time": 639.3625000000137,
                    "velocity": 0.5984251968503937,
                    "duration": 0.12083333333350765
                },
                {
                    "name": "G5",
                    "midi": 79,
                    "time": 639.4687500000138,
                    "velocity": 0.49606299212598426,
                    "duration": 0.1916666666669471
                },
                {
                    "name": "F5",
                    "midi": 77,
                    "time": 639.4729166666805,
                    "velocity": 0.47244094488188976,
                    "duration": 0.1916666666668334
                },
                {
                    "name": "C#6",
                    "midi": 85,
                    "time": 639.4750000000138,
                    "velocity": 0.6299212598425197,
                    "duration": 0.1895833333335304
                },
                {
                    "name": "A#5",
                    "midi": 82,
                    "time": 639.4791666666805,
                    "velocity": 0.5905511811023622,
                    "duration": 0.1750000000001819
                },
                {
                    "name": "G#5",
                    "midi": 80,
                    "time": 639.6354166666806,
                    "velocity": 0.6614173228346457,
                    "duration": 0.12291666666681067
                },
                {
                    "name": "F#5",
                    "midi": 78,
                    "time": 639.6395833333473,
                    "velocity": 0.5984251968503937,
                    "duration": 0.10416666666674246
                },
                {
                    "name": "D6",
                    "midi": 86,
                    "time": 639.6416666666806,
                    "velocity": 0.6771653543307087,
                    "duration": 0.17916666666678793
                },
                {
                    "name": "B5",
                    "midi": 83,
                    "time": 639.6458333333474,
                    "velocity": 0.5826771653543307,
                    "duration": 0.16041666666671972
                },
                {
                    "name": "B2",
                    "midi": 47,
                    "time": 639.656250000014,
                    "velocity": 0.889763779527559,
                    "duration": 0.1250000000001137
                },
                {
                    "name": "E3",
                    "midi": 52,
                    "time": 639.6604166666807,
                    "velocity": 0.9291338582677166,
                    "duration": 0.0958333333334167
                },
                {
                    "name": "G5",
                    "midi": 79,
                    "time": 639.7645833333474,
                    "velocity": 0.49606299212598426,
                    "duration": 0.20416666666653782
                },
                {
                    "name": "F5",
                    "midi": 77,
                    "time": 639.7666666666807,
                    "velocity": 0.44881889763779526,
                    "duration": 0.20624999999995453
                },
                {
                    "name": "C#6",
                    "midi": 85,
                    "time": 639.7750000000141,
                    "velocity": 0.6377952755905512,
                    "duration": 0.1854166666665833
                },
                {
                    "name": "A#5",
                    "midi": 82,
                    "time": 639.7895833333474,
                    "velocity": 0.4881889763779528,
                    "duration": 0.1875
                },
                {
                    "name": "G#5",
                    "midi": 80,
                    "time": 639.9416666666807,
                    "velocity": 0.6535433070866141,
                    "duration": 0.12291666666669698
                },
                {
                    "name": "F#5",
                    "midi": 78,
                    "time": 639.950000000014,
                    "velocity": 0.5984251968503937,
                    "duration": 0.10000000000002274
                },
                {
                    "name": "D6",
                    "midi": 86,
                    "time": 639.9583333333474,
                    "velocity": 0.6614173228346457,
                    "duration": 0.1895833333334167
                },
                {
                    "name": "B5",
                    "midi": 83,
                    "time": 639.9604166666807,
                    "velocity": 0.5748031496062992,
                    "duration": 0.1562500000001137
                },
                {
                    "name": "G#2",
                    "midi": 44,
                    "time": 639.9791666666807,
                    "velocity": 0.6220472440944882,
                    "duration": 0.22708333333332575
                },
                {
                    "name": "G#3",
                    "midi": 56,
                    "time": 639.987500000014,
                    "velocity": 0.9448818897637795,
                    "duration": 0.13125000000002274
                },
                {
                    "name": "G5",
                    "midi": 79,
                    "time": 640.0645833333474,
                    "velocity": 0.4251968503937008,
                    "duration": 0.19791666666674246
                },
                {
                    "name": "F5",
                    "midi": 77,
                    "time": 640.0687500000141,
                    "velocity": 0.3779527559055118,
                    "duration": 0.19791666666662877
                },
                {
                    "name": "C#6",
                    "midi": 85,
                    "time": 640.0958333333474,
                    "velocity": 0.6299212598425197,
                    "duration": 0.2041666666666515
                },
                {
                    "name": "A#5",
                    "midi": 82,
                    "time": 640.1000000000141,
                    "velocity": 0.5433070866141733,
                    "duration": 0.16458333333332575
                },
                {
                    "name": "G#5",
                    "midi": 80,
                    "time": 640.2354166666807,
                    "velocity": 0.6220472440944882,
                    "duration": 0.13125000000002274
                },
                {
                    "name": "F#5",
                    "midi": 78,
                    "time": 640.2395833333475,
                    "velocity": 0.5905511811023622,
                    "duration": 0.1229166666665833
                },
                {
                    "name": "B2",
                    "midi": 47,
                    "time": 640.2500000000141,
                    "velocity": 0.7322834645669292,
                    "duration": 0.08958333333328028
                },
                {
                    "name": "B3",
                    "midi": 59,
                    "time": 640.2583333333474,
                    "velocity": 0.889763779527559,
                    "duration": 0.1874999999998863
                },
                {
                    "name": "D6",
                    "midi": 86,
                    "time": 640.2583333333474,
                    "velocity": 0.7165354330708661,
                    "duration": 0.1854166666665833
                },
                {
                    "name": "B5",
                    "midi": 83,
                    "time": 640.2645833333474,
                    "velocity": 0.6220472440944882,
                    "duration": 0.1395833333332348
                },
                {
                    "name": "G5",
                    "midi": 79,
                    "time": 640.362500000014,
                    "velocity": 0.4645669291338583,
                    "duration": 0.20833333333314386
                },
                {
                    "name": "F5",
                    "midi": 77,
                    "time": 640.3666666666808,
                    "velocity": 0.4330708661417323,
                    "duration": 0.20624999999972715
                },
                {
                    "name": "C#6",
                    "midi": 85,
                    "time": 640.3916666666807,
                    "velocity": 0.6771653543307087,
                    "duration": 0.18749999999977263
                },
                {
                    "name": "A#5",
                    "midi": 82,
                    "time": 640.393750000014,
                    "velocity": 0.5354330708661418,
                    "duration": 0.17291666666642413
                },
                {
                    "name": "F#4",
                    "midi": 66,
                    "time": 640.5270833333473,
                    "velocity": 0.889763779527559,
                    "duration": 0.3708333333331666
                },
                {
                    "name": "B1",
                    "midi": 35,
                    "time": 640.5291666666806,
                    "velocity": 0.84251968503937,
                    "duration": 0.09791666666660603
                },
                {
                    "name": "F#3",
                    "midi": 54,
                    "time": 640.5312500000139,
                    "velocity": 0.937007874015748,
                    "duration": 0.15833333333330302
                },
                {
                    "name": "G#3",
                    "midi": 56,
                    "time": 640.5312500000139,
                    "velocity": 0.8582677165354331,
                    "duration": 0.15625
                },
                {
                    "name": "B2",
                    "midi": 47,
                    "time": 640.5333333333472,
                    "velocity": 0.8976377952755905,
                    "duration": 0.09583333333330302
                },
                {
                    "name": "D4",
                    "midi": 62,
                    "time": 640.5354166666805,
                    "velocity": 0.8110236220472441,
                    "duration": 0.3000000000000682
                },
                {
                    "name": "G#5",
                    "midi": 80,
                    "time": 640.5479166666805,
                    "velocity": 0.6141732283464567,
                    "duration": 0.13125000000002274
                },
                {
                    "name": "D6",
                    "midi": 86,
                    "time": 640.5500000000138,
                    "velocity": 0.7165354330708661,
                    "duration": 0.19583333333343944
                },
                {
                    "name": "F#5",
                    "midi": 78,
                    "time": 640.5500000000138,
                    "velocity": 0.5748031496062992,
                    "duration": 0.12916666666671972
                },
                {
                    "name": "B5",
                    "midi": 83,
                    "time": 640.5500000000138,
                    "velocity": 0.5826771653543307,
                    "duration": 0.15208333333339397
                },
                {
                    "name": "G3",
                    "midi": 55,
                    "time": 640.5666666666805,
                    "velocity": 0.3464566929133858,
                    "duration": 0.04583333333334849
                },
                {
                    "name": "G5",
                    "midi": 79,
                    "time": 640.6770833333472,
                    "velocity": 0.4645669291338583,
                    "duration": 0.17916666666656056
                },
                {
                    "name": "F5",
                    "midi": 77,
                    "time": 640.6812500000138,
                    "velocity": 0.4330708661417323,
                    "duration": 0.17708333333325754
                },
                {
                    "name": "C#6",
                    "midi": 85,
                    "time": 640.6812500000138,
                    "velocity": 0.6141732283464567,
                    "duration": 0.19166666666660603
                },
                {
                    "name": "A#5",
                    "midi": 82,
                    "time": 640.6979166666805,
                    "velocity": 0.5118110236220472,
                    "duration": 0.1437500000000682
                },
                {
                    "name": "G#5",
                    "midi": 80,
                    "time": 640.8333333333472,
                    "velocity": 0.5984251968503937,
                    "duration": 0.1374999999998181
                },
                {
                    "name": "F#5",
                    "midi": 78,
                    "time": 640.8354166666805,
                    "velocity": 0.5590551181102362,
                    "duration": 0.13124999999990905
                },
                {
                    "name": "B5",
                    "midi": 83,
                    "time": 640.8416666666806,
                    "velocity": 0.44881889763779526,
                    "duration": 0.11249999999984084
                },
                {
                    "name": "D6",
                    "midi": 86,
                    "time": 640.8437500000139,
                    "velocity": 0.6692913385826772,
                    "duration": 0.17083333333312112
                },
                {
                    "name": "G#3",
                    "midi": 56,
                    "time": 640.8458333333472,
                    "velocity": 0.937007874015748,
                    "duration": 0.13541666666651508
                },
                {
                    "name": "G#2",
                    "midi": 44,
                    "time": 640.8479166666805,
                    "velocity": 0.7244094488188977,
                    "duration": 0.30625000000009095
                },
                {
                    "name": "C#6",
                    "midi": 85,
                    "time": 640.9604166666804,
                    "velocity": 0.5590551181102362,
                    "duration": 0.20833333333348492
                },
                {
                    "name": "G5",
                    "midi": 79,
                    "time": 640.9645833333472,
                    "velocity": 0.4566929133858268,
                    "duration": 0.1729166666666515
                },
                {
                    "name": "F5",
                    "midi": 77,
                    "time": 640.9687500000138,
                    "velocity": 0.41732283464566927,
                    "duration": 0.1729166666667652
                },
                {
                    "name": "A#5",
                    "midi": 82,
                    "time": 640.9729166666804,
                    "velocity": 0.49606299212598426,
                    "duration": 0.14583333333337123
                },
                {
                    "name": "B2",
                    "midi": 47,
                    "time": 641.108333333347,
                    "velocity": 0.7007874015748031,
                    "duration": 0.07708333333357587
                },
                {
                    "name": "B3",
                    "midi": 59,
                    "time": 641.114583333347,
                    "velocity": 0.9133858267716536,
                    "duration": 0.19375000000002274
                },
                {
                    "name": "G#5",
                    "midi": 80,
                    "time": 641.114583333347,
                    "velocity": 0.6141732283464567,
                    "duration": 0.13333333333343944
                },
                {
                    "name": "F#5",
                    "midi": 78,
                    "time": 641.1187500000137,
                    "velocity": 0.5905511811023622,
                    "duration": 0.1270833333334167
                },
                {
                    "name": "B5",
                    "midi": 83,
                    "time": 641.1250000000138,
                    "velocity": 0.3937007874015748,
                    "duration": 0.13541666666662877
                },
                {
                    "name": "D6",
                    "midi": 86,
                    "time": 641.1250000000138,
                    "velocity": 0.7086614173228346,
                    "duration": 0.16458333333332575
                },
                {
                    "name": "C#6",
                    "midi": 85,
                    "time": 641.2333333333472,
                    "velocity": 0.5669291338582677,
                    "duration": 0.21041666666633319
                },
                {
                    "name": "G5",
                    "midi": 79,
                    "time": 641.2437500000138,
                    "velocity": 0.4409448818897638,
                    "duration": 0.18749999999965894
                },
                {
                    "name": "F5",
                    "midi": 77,
                    "time": 641.2458333333472,
                    "velocity": 0.4094488188976378,
                    "duration": 0.18958333333307564
                },
                {
                    "name": "A#5",
                    "midi": 82,
                    "time": 641.2500000000138,
                    "velocity": 0.6299212598425197,
                    "duration": 0.14374999999984084
                },
                {
                    "name": "D4",
                    "midi": 62,
                    "time": 641.3791666666804,
                    "velocity": 0.8346456692913385,
                    "duration": 0.30208333333314386
                },
                {
                    "name": "F#3",
                    "midi": 54,
                    "time": 641.3812500000137,
                    "velocity": 0.9763779527559056,
                    "duration": 0.1520833333331666
                },
                {
                    "name": "F#4",
                    "midi": 66,
                    "time": 641.383333333347,
                    "velocity": 0.8976377952755905,
                    "duration": 0.2937499999999318
                },
                {
                    "name": "B2",
                    "midi": 47,
                    "time": 641.3916666666803,
                    "velocity": 0.7322834645669292,
                    "duration": 0.15833333333318933
                },
                {
                    "name": "E3",
                    "midi": 52,
                    "time": 641.3937500000136,
                    "velocity": 0.8346456692913385,
                    "duration": 0.09583333333330302
                },
                {
                    "name": "D6",
                    "midi": 86,
                    "time": 641.4041666666802,
                    "velocity": 0.6929133858267716,
                    "duration": 0.17499999999995453
                },
                {
                    "name": "G#5",
                    "midi": 80,
                    "time": 641.4062500000135,
                    "velocity": 0.6299212598425197,
                    "duration": 0.12708333333330302
                },
                {
                    "name": "B5",
                    "midi": 83,
                    "time": 641.4125000000136,
                    "velocity": 0.5275590551181102,
                    "duration": 0.12916666666660603
                },
                {
                    "name": "F#5",
                    "midi": 78,
                    "time": 641.4125000000136,
                    "velocity": 0.6062992125984252,
                    "duration": 0.12083333333328028
                },
                {
                    "name": "C#6",
                    "midi": 85,
                    "time": 641.5229166666802,
                    "velocity": 0.5984251968503937,
                    "duration": 0.20208333333346218
                },
                {
                    "name": "A#5",
                    "midi": 82,
                    "time": 641.5333333333468,
                    "velocity": 0.5984251968503937,
                    "duration": 0.17083333333346218
                },
                {
                    "name": "G5",
                    "midi": 79,
                    "time": 641.5354166666801,
                    "velocity": 0.41732283464566927,
                    "duration": 0.17708333333348492
                },
                {
                    "name": "F5",
                    "midi": 77,
                    "time": 641.5395833333469,
                    "velocity": 0.3779527559055118,
                    "duration": 0.17708333333348492
                },
                {
                    "name": "G#3",
                    "midi": 56,
                    "time": 641.6791666666802,
                    "velocity": 0.9448818897637795,
                    "duration": 0.13125000000013642
                },
                {
                    "name": "D6",
                    "midi": 86,
                    "time": 641.6854166666802,
                    "velocity": 0.7007874015748031,
                    "duration": 0.1729166666667652
                },
                {
                    "name": "G#2",
                    "midi": 44,
                    "time": 641.6875000000135,
                    "velocity": 0.84251968503937,
                    "duration": 0.21041666666678793
                },
                {
                    "name": "B5",
                    "midi": 83,
                    "time": 641.6875000000135,
                    "velocity": 0.5275590551181102,
                    "duration": 0.13125000000013642
                },
                {
                    "name": "G#5",
                    "midi": 80,
                    "time": 641.6937500000136,
                    "velocity": 0.6220472440944882,
                    "duration": 0.11250000000006821
                },
                {
                    "name": "F#5",
                    "midi": 78,
                    "time": 641.6979166666803,
                    "velocity": 0.5984251968503937,
                    "duration": 0.10000000000002274
                },
                {
                    "name": "C#6",
                    "midi": 85,
                    "time": 641.8062500000136,
                    "velocity": 0.6377952755905512,
                    "duration": 0.20833333333325754
                },
                {
                    "name": "A#5",
                    "midi": 82,
                    "time": 641.8104166666803,
                    "velocity": 0.5275590551181102,
                    "duration": 0.17916666666656056
                },
                {
                    "name": "G5",
                    "midi": 79,
                    "time": 641.8125000000136,
                    "velocity": 0.3858267716535433,
                    "duration": 0.17708333333325754
                },
                {
                    "name": "F5",
                    "midi": 77,
                    "time": 641.814583333347,
                    "velocity": 0.33070866141732286,
                    "duration": 0.18124999999997726
                },
                {
                    "name": "B2",
                    "midi": 47,
                    "time": 641.9437500000137,
                    "velocity": 0.6929133858267716,
                    "duration": 0.09791666666649235
                },
                {
                    "name": "B3",
                    "midi": 59,
                    "time": 641.9437500000137,
                    "velocity": 0.889763779527559,
                    "duration": 0.16458333333332575
                },
                {
                    "name": "D6",
                    "midi": 86,
                    "time": 641.9687500000136,
                    "velocity": 0.7007874015748031,
                    "duration": 0.17916666666667425
                },
                {
                    "name": "B5",
                    "midi": 83,
                    "time": 641.970833333347,
                    "velocity": 0.5039370078740157,
                    "duration": 0.15000000000009095
                },
                {
                    "name": "G#5",
                    "midi": 80,
                    "time": 641.9729166666802,
                    "velocity": 0.6062992125984252,
                    "duration": 0.10833333333334849
                },
                {
                    "name": "F#5",
                    "midi": 78,
                    "time": 641.9750000000136,
                    "velocity": 0.6062992125984252,
                    "duration": 0.10208333333332575
                },
                {
                    "name": "G5",
                    "midi": 79,
                    "time": 642.0854166666803,
                    "velocity": 0.41732283464566927,
                    "duration": 0.17916666666667425
                },
                {
                    "name": "F5",
                    "midi": 77,
                    "time": 642.0875000000136,
                    "velocity": 0.3543307086614173,
                    "duration": 0.18124999999997726
                },
                {
                    "name": "C#6",
                    "midi": 85,
                    "time": 642.0937500000136,
                    "velocity": 0.6692913385826772,
                    "duration": 0.18958333333330302
                },
                {
                    "name": "A#5",
                    "midi": 82,
                    "time": 642.1000000000137,
                    "velocity": 0.6456692913385826,
                    "duration": 0.16666666666662877
                },
                {
                    "name": "B1",
                    "midi": 35,
                    "time": 642.2145833333469,
                    "velocity": 0.7165354330708661,
                    "duration": 0.10208333333332575
                },
                {
                    "name": "F#4",
                    "midi": 66,
                    "time": 642.2166666666802,
                    "velocity": 0.8818897637795275,
                    "duration": 0.3083333333332803
                },
                {
                    "name": "F#3",
                    "midi": 54,
                    "time": 642.2229166666802,
                    "velocity": 0.9448818897637795,
                    "duration": 0.28125
                },
                {
                    "name": "G#3",
                    "midi": 56,
                    "time": 642.2229166666802,
                    "velocity": 0.8267716535433071,
                    "duration": 0.2645833333333485
                },
                {
                    "name": "D4",
                    "midi": 62,
                    "time": 642.2250000000136,
                    "velocity": 0.8188976377952756,
                    "duration": 0.27083333333337123
                },
                {
                    "name": "B2",
                    "midi": 47,
                    "time": 642.2291666666803,
                    "velocity": 0.8976377952755905,
                    "duration": 0.10000000000002274
                },
                {
                    "name": "D6",
                    "midi": 86,
                    "time": 642.2437500000136,
                    "velocity": 0.6929133858267716,
                    "duration": 0.19583333333332575
                },
                {
                    "name": "G#5",
                    "midi": 80,
                    "time": 642.2479166666803,
                    "velocity": 0.6535433070866141,
                    "duration": 0.1083333333332348
                },
                {
                    "name": "F#5",
                    "midi": 78,
                    "time": 642.2500000000136,
                    "velocity": 0.6850393700787402,
                    "duration": 0.1083333333332348
                },
                {
                    "name": "B5",
                    "midi": 83,
                    "time": 642.2500000000136,
                    "velocity": 0.5984251968503937,
                    "duration": 0.15208333333328028
                },
                {
                    "name": "G5",
                    "midi": 79,
                    "time": 642.3583333333469,
                    "velocity": 0.4645669291338583,
                    "duration": 0.18124999999997726
                },
                {
                    "name": "F5",
                    "midi": 77,
                    "time": 642.3625000000136,
                    "velocity": 0.4094488188976378,
                    "duration": 0.18124999999997726
                },
                {
                    "name": "C#6",
                    "midi": 85,
                    "time": 642.377083333347,
                    "velocity": 0.7244094488188977,
                    "duration": 0.18124999999997726
                },
                {
                    "name": "A#5",
                    "midi": 82,
                    "time": 642.3854166666803,
                    "velocity": 0.6692913385826772,
                    "duration": 0.16458333333332575
                },
                {
                    "name": "B5",
                    "midi": 83,
                    "time": 642.5187500000136,
                    "velocity": 0.6377952755905512,
                    "duration": 0.18124999999997726
                },
                {
                    "name": "G#5",
                    "midi": 80,
                    "time": 642.5187500000136,
                    "velocity": 0.6850393700787402,
                    "duration": 0.13750000000004547
                },
                {
                    "name": "F#5",
                    "midi": 78,
                    "time": 642.5208333333469,
                    "velocity": 0.7086614173228346,
                    "duration": 0.11875000000009095
                },
                {
                    "name": "D6",
                    "midi": 86,
                    "time": 642.5229166666802,
                    "velocity": 0.7874015748031497,
                    "duration": 0.20000000000004547
                },
                {
                    "name": "D3",
                    "midi": 50,
                    "time": 642.5666666666802,
                    "velocity": 0.7322834645669292,
                    "duration": 0.06666666666671972
                },
                {
                    "name": "G5",
                    "midi": 79,
                    "time": 642.6416666666803,
                    "velocity": 0.5826771653543307,
                    "duration": 0.11458333333325754
                },
                {
                    "name": "F5",
                    "midi": 77,
                    "time": 642.6437500000136,
                    "velocity": 0.5590551181102362,
                    "duration": 0.11041666666665151
                },
                {
                    "name": "C#6",
                    "midi": 85,
                    "time": 642.658333333347,
                    "velocity": 0.7716535433070866,
                    "duration": 0.11041666666665151
                },
                {
                    "name": "A#5",
                    "midi": 82,
                    "time": 642.6666666666803,
                    "velocity": 0.7401574803149606,
                    "duration": 0.07916666666665151
                },
                {
                    "name": "D5",
                    "midi": 74,
                    "time": 642.8020833333469,
                    "velocity": 0.6771653543307087,
                    "duration": 0.1437500000000682
                },
                {
                    "name": "G#5",
                    "midi": 80,
                    "time": 642.8062500000136,
                    "velocity": 0.6062992125984252,
                    "duration": 0.07708333333334849
                },
                {
                    "name": "B5",
                    "midi": 83,
                    "time": 642.8083333333469,
                    "velocity": 0.5984251968503937,
                    "duration": 0.08333333333337123
                },
                {
                    "name": "F#5",
                    "midi": 78,
                    "time": 642.8229166666803,
                    "velocity": 0.5984251968503937,
                    "duration": 0.13750000000004547
                },
                {
                    "name": "E4",
                    "midi": 64,
                    "time": 642.845833333347,
                    "velocity": 0.889763779527559,
                    "duration": 0.40416666666681067
                },
                {
                    "name": "E3",
                    "midi": 52,
                    "time": 642.8500000000137,
                    "velocity": 0.9212598425196851,
                    "duration": 0.43333333333350765
                },
                {
                    "name": "A#5",
                    "midi": 82,
                    "time": 642.939583333347,
                    "velocity": 0.6850393700787402,
                    "duration": 0.13541666666674246
                },
                {
                    "name": "C#5",
                    "midi": 73,
                    "time": 642.939583333347,
                    "velocity": 0.5039370078740157,
                    "duration": 0.125
                },
                {
                    "name": "F5",
                    "midi": 77,
                    "time": 642.9541666666803,
                    "velocity": 0.4330708661417323,
                    "duration": 0.11666666666667425
                },
                {
                    "name": "G5",
                    "midi": 79,
                    "time": 642.9791666666803,
                    "velocity": 0.44881889763779526,
                    "duration": 0.08749999999997726
                },
                {
                    "name": "G#5",
                    "midi": 80,
                    "time": 643.1062500000137,
                    "velocity": 0.7795275590551181,
                    "duration": 0.1895833333335304
                },
                {
                    "name": "D5",
                    "midi": 74,
                    "time": 643.114583333347,
                    "velocity": 0.6535433070866141,
                    "duration": 0.14791666666678793
                },
                {
                    "name": "B4",
                    "midi": 71,
                    "time": 643.114583333347,
                    "velocity": 0.6850393700787402,
                    "duration": 0.18125000000020464
                },
                {
                    "name": "F#5",
                    "midi": 78,
                    "time": 643.1187500000137,
                    "velocity": 0.7637795275590551,
                    "duration": 0.17916666666678793
                },
                {
                    "name": "B2",
                    "midi": 47,
                    "time": 643.1604166666804,
                    "velocity": 0.9606299212598425,
                    "duration": 0.41666666666662877
                },
                {
                    "name": "C#5",
                    "midi": 73,
                    "time": 643.2375000000137,
                    "velocity": 0.7952755905511811,
                    "duration": 0.22708333333332575
                },
                {
                    "name": "G5",
                    "midi": 79,
                    "time": 643.2437500000137,
                    "velocity": 0.6299212598425197,
                    "duration": 0.21041666666667425
                },
                {
                    "name": "F5",
                    "midi": 77,
                    "time": 643.245833333347,
                    "velocity": 0.6850393700787402,
                    "duration": 0.2062500000000682
                },
                {
                    "name": "A#4",
                    "midi": 70,
                    "time": 643.2562500000138,
                    "velocity": 0.5984251968503937,
                    "duration": 0.252083333333303
                },
                {
                    "name": "G#5",
                    "midi": 80,
                    "time": 643.4000000000138,
                    "velocity": 0.8110236220472441,
                    "duration": 0.19583333333309838
                },
                {
                    "name": "D5",
                    "midi": 74,
                    "time": 643.4000000000138,
                    "velocity": 0.7086614173228346,
                    "duration": 0.17916666666644687
                },
                {
                    "name": "F#5",
                    "midi": 78,
                    "time": 643.4020833333472,
                    "velocity": 0.7952755905511811,
                    "duration": 0.19166666666649235
                },
                {
                    "name": "B4",
                    "midi": 71,
                    "time": 643.4125000000138,
                    "velocity": 0.7244094488188977,
                    "duration": 0.18958333333318933
                },
                {
                    "name": "G#3",
                    "midi": 56,
                    "time": 643.4562500000137,
                    "velocity": 0.984251968503937,
                    "duration": 0.3229166666665151
                },
                {
                    "name": "E3",
                    "midi": 52,
                    "time": 643.4562500000137,
                    "velocity": 0.8740157480314961,
                    "duration": 0.08749999999997726
                },
                {
                    "name": "G5",
                    "midi": 79,
                    "time": 643.5416666666804,
                    "velocity": 0.6062992125984252,
                    "duration": 0.0916666666665833
                },
                {
                    "name": "F5",
                    "midi": 77,
                    "time": 643.5437500000137,
                    "velocity": 0.6850393700787402,
                    "duration": 0.08958333333328028
                },
                {
                    "name": "A#4",
                    "midi": 70,
                    "time": 643.5437500000137,
                    "velocity": 0.6299212598425197,
                    "duration": 0.1229166666665833
                },
                {
                    "name": "C#5",
                    "midi": 73,
                    "time": 643.5500000000137,
                    "velocity": 0.7322834645669292,
                    "duration": 0.09374999999988631
                },
                {
                    "name": "F#5",
                    "midi": 78,
                    "time": 643.6833333333469,
                    "velocity": 0.6614173228346457,
                    "duration": 0.21041666666667425
                },
                {
                    "name": "D5",
                    "midi": 74,
                    "time": 643.6916666666802,
                    "velocity": 0.6377952755905512,
                    "duration": 0.13541666666662877
                },
                {
                    "name": "B4",
                    "midi": 71,
                    "time": 643.7041666666803,
                    "velocity": 0.4094488188976378,
                    "duration": 0.18124999999986358
                },
                {
                    "name": "A4",
                    "midi": 69,
                    "time": 643.7062500000136,
                    "velocity": 0.4015748031496063,
                    "duration": 0.19166666666671972
                },
                {
                    "name": "A#4",
                    "midi": 70,
                    "time": 643.8562500000136,
                    "velocity": 0.6062992125984252,
                    "duration": 0.17083333333346218
                },
                {
                    "name": "C5",
                    "midi": 72,
                    "time": 643.8562500000136,
                    "velocity": 0.5590551181102362,
                    "duration": 0.23125000000027285
                },
                {
                    "name": "E5",
                    "midi": 76,
                    "time": 643.8583333333469,
                    "velocity": 0.6220472440944882,
                    "duration": 0.08333333333348492
                },
                {
                    "name": "G#4",
                    "midi": 68,
                    "time": 643.8895833333469,
                    "velocity": 0.5275590551181102,
                    "duration": 0.22708333333366681
                },
                {
                    "name": "G3",
                    "midi": 55,
                    "time": 644.027083333347,
                    "velocity": 0.8503937007874016,
                    "duration": 0.4875000000004093
                },
                {
                    "name": "A#1",
                    "midi": 34,
                    "time": 644.027083333347,
                    "velocity": 0.8582677165354331,
                    "duration": 0.3666666666670153
                },
                {
                    "name": "D4",
                    "midi": 62,
                    "time": 644.0291666666803,
                    "velocity": 0.9133858267716536,
                    "duration": 1.20416666666722
                },
                {
                    "name": "D3",
                    "midi": 50,
                    "time": 644.0354166666804,
                    "velocity": 0.8503937007874016,
                    "duration": 0.4562500000004093
                },
                {
                    "name": "E3",
                    "midi": 52,
                    "time": 644.0562500000137,
                    "velocity": 0.6614173228346457,
                    "duration": 0.03958333333343944
                },
                {
                    "name": "A#4",
                    "midi": 70,
                    "time": 644.0770833333471,
                    "velocity": 0.5826771653543307,
                    "duration": 0.20833333333348492
                },
                {
                    "name": "G4",
                    "midi": 67,
                    "time": 644.0812500000138,
                    "velocity": 0.6299212598425197,
                    "duration": 0.18541666666681067
                },
                {
                    "name": "D5",
                    "midi": 74,
                    "time": 644.0812500000138,
                    "velocity": 0.5590551181102362,
                    "duration": 0.19375000000013642
                },
                {
                    "name": "C#5",
                    "midi": 73,
                    "time": 644.2312500000139,
                    "velocity": 0.7480314960629921,
                    "duration": 0.18541666666681067
                },
                {
                    "name": "F#4",
                    "midi": 66,
                    "time": 644.243750000014,
                    "velocity": 0.5511811023622047,
                    "duration": 0.11874999999997726
                },
                {
                    "name": "A4",
                    "midi": 69,
                    "time": 644.243750000014,
                    "velocity": 0.5118110236220472,
                    "duration": 0.1583333333334167
                },
                {
                    "name": "G4",
                    "midi": 67,
                    "time": 644.3500000000139,
                    "velocity": 0.5118110236220472,
                    "duration": 0.18541666666692436
                },
                {
                    "name": "D5",
                    "midi": 74,
                    "time": 644.375000000014,
                    "velocity": 0.6535433070866141,
                    "duration": 0.20000000000015916
                },
                {
                    "name": "G2",
                    "midi": 43,
                    "time": 644.381250000014,
                    "velocity": 0.6456692913385826,
                    "duration": 0.16458333333343944
                },
                {
                    "name": "A#4",
                    "midi": 70,
                    "time": 644.381250000014,
                    "velocity": 0.6692913385826772,
                    "duration": 0.17083333333346218
                },
                {
                    "name": "F#4",
                    "midi": 66,
                    "time": 644.5083333333474,
                    "velocity": 0.5590551181102362,
                    "duration": 0.16875000000004547
                },
                {
                    "name": "C#5",
                    "midi": 73,
                    "time": 644.5166666666807,
                    "velocity": 0.7244094488188977,
                    "duration": 0.20208333333346218
                },
                {
                    "name": "A4",
                    "midi": 69,
                    "time": 644.5229166666808,
                    "velocity": 0.5118110236220472,
                    "duration": 0.16041666666671972
                },
                {
                    "name": "G3",
                    "midi": 55,
                    "time": 644.6458333333475,
                    "velocity": 0.5826771653543307,
                    "duration": 0.16458333333343944
                },
                {
                    "name": "G4",
                    "midi": 67,
                    "time": 644.6604166666808,
                    "velocity": 0.5590551181102362,
                    "duration": 0.16875000000004547
                },
                {
                    "name": "D5",
                    "midi": 74,
                    "time": 644.6625000000141,
                    "velocity": 0.6771653543307087,
                    "duration": 0.20000000000004547
                },
                {
                    "name": "A#4",
                    "midi": 70,
                    "time": 644.6729166666807,
                    "velocity": 0.6929133858267716,
                    "duration": 0.16666666666674246
                },
                {
                    "name": "F#4",
                    "midi": 66,
                    "time": 644.7958333333476,
                    "velocity": 0.6141732283464567,
                    "duration": 0.19166666666671972
                },
                {
                    "name": "C#5",
                    "midi": 73,
                    "time": 644.7979166666809,
                    "velocity": 0.7637795275590551,
                    "duration": 0.2041666666667652
                },
                {
                    "name": "A4",
                    "midi": 69,
                    "time": 644.8104166666809,
                    "velocity": 0.44881889763779526,
                    "duration": 0.1729166666666515
                },
                {
                    "name": "D5",
                    "midi": 74,
                    "time": 644.9395833333475,
                    "velocity": 0.6614173228346457,
                    "duration": 0.2208333333334167
                },
                {
                    "name": "G3",
                    "midi": 55,
                    "time": 644.9416666666808,
                    "velocity": 0.84251968503937,
                    "duration": 0.06250000000011369
                },
                {
                    "name": "A#2",
                    "midi": 46,
                    "time": 644.9458333333475,
                    "velocity": 0.905511811023622,
                    "duration": 0.09375000000011369
                },
                {
                    "name": "A#4",
                    "midi": 70,
                    "time": 644.9458333333475,
                    "velocity": 0.7007874015748031,
                    "duration": 0.16666666666674246
                },
                {
                    "name": "G4",
                    "midi": 67,
                    "time": 644.9520833333476,
                    "velocity": 0.5196850393700787,
                    "duration": 0.1875
                },
                {
                    "name": "C#5",
                    "midi": 73,
                    "time": 645.0895833333476,
                    "velocity": 0.7322834645669292,
                    "duration": 0.21666666666669698
                },
                {
                    "name": "A4",
                    "midi": 69,
                    "time": 645.0937500000143,
                    "velocity": 0.4645669291338583,
                    "duration": 0.15833333333330302
                },
                {
                    "name": "F#4",
                    "midi": 66,
                    "time": 645.104166666681,
                    "velocity": 0.5354330708661418,
                    "duration": 0.17708333333337123
                },
                {
                    "name": "A#4",
                    "midi": 70,
                    "time": 645.2458333333476,
                    "velocity": 0.6771653543307087,
                    "duration": 0.14791666666678793
                },
                {
                    "name": "G4",
                    "midi": 67,
                    "time": 645.2479166666809,
                    "velocity": 0.44881889763779526,
                    "duration": 0.1750000000001819
                },
                {
                    "name": "D5",
                    "midi": 74,
                    "time": 645.2479166666809,
                    "velocity": 0.5984251968503937,
                    "duration": 0.1895833333335304
                },
                {
                    "name": "E3",
                    "midi": 52,
                    "time": 645.2541666666809,
                    "velocity": 0.8503937007874016,
                    "duration": 0.18541666666681067
                },
                {
                    "name": "E2",
                    "midi": 40,
                    "time": 645.260416666681,
                    "velocity": 0.5984251968503937,
                    "duration": 0.2229166666668334
                },
                {
                    "name": "C#5",
                    "midi": 73,
                    "time": 645.3750000000143,
                    "velocity": 0.6771653543307087,
                    "duration": 0.21041666666678793
                },
                {
                    "name": "A4",
                    "midi": 69,
                    "time": 645.3895833333477,
                    "velocity": 0.47244094488188976,
                    "duration": 0.17708333333348492
                },
                {
                    "name": "F#4",
                    "midi": 66,
                    "time": 645.4000000000144,
                    "velocity": 0.5039370078740157,
                    "duration": 0.16250000000002274
                },
                {
                    "name": "D5",
                    "midi": 74,
                    "time": 645.5270833333478,
                    "velocity": 0.5984251968503937,
                    "duration": 0.2020833333333485
                },
                {
                    "name": "A#4",
                    "midi": 70,
                    "time": 645.5312500000146,
                    "velocity": 0.6299212598425197,
                    "duration": 0.16458333333332575
                },
                {
                    "name": "G4",
                    "midi": 67,
                    "time": 645.5416666666812,
                    "velocity": 0.4015748031496063,
                    "duration": 0.16041666666671972
                },
                {
                    "name": "G2",
                    "midi": 43,
                    "time": 645.5520833333478,
                    "velocity": 0.6850393700787402,
                    "duration": 0.11874999999997726
                },
                {
                    "name": "G3",
                    "midi": 55,
                    "time": 645.5541666666811,
                    "velocity": 0.8346456692913385,
                    "duration": 0.125
                },
                {
                    "name": "C#5",
                    "midi": 73,
                    "time": 645.6687500000145,
                    "velocity": 0.6456692913385826,
                    "duration": 0.21875
                },
                {
                    "name": "F#4",
                    "midi": 66,
                    "time": 645.6791666666811,
                    "velocity": 0.44881889763779526,
                    "duration": 0.1708333333333485
                },
                {
                    "name": "A4",
                    "midi": 69,
                    "time": 645.6833333333478,
                    "velocity": 0.33858267716535434,
                    "duration": 0.14374999999995453
                },
                {
                    "name": "D4",
                    "midi": 62,
                    "time": 645.8250000000145,
                    "velocity": 0.8582677165354331,
                    "duration": 1.020833333333826
                },
                {
                    "name": "G3",
                    "midi": 55,
                    "time": 645.8270833333478,
                    "velocity": 0.7716535433070866,
                    "duration": 0.6395833333339169
                },
                {
                    "name": "A#1",
                    "midi": 34,
                    "time": 645.8270833333478,
                    "velocity": 0.84251968503937,
                    "duration": 0.09791666666671972
                },
                {
                    "name": "G4",
                    "midi": 67,
                    "time": 645.8270833333478,
                    "velocity": 0.4015748031496063,
                    "duration": 0.16666666666674246
                },
                {
                    "name": "D3",
                    "midi": 50,
                    "time": 645.8291666666811,
                    "velocity": 0.84251968503937,
                    "duration": 0.12083333333339397
                },
                {
                    "name": "G2",
                    "midi": 43,
                    "time": 645.8354166666811,
                    "velocity": 0.8031496062992126,
                    "duration": 0.09166666666669698
                },
                {
                    "name": "D5",
                    "midi": 74,
                    "time": 645.8354166666811,
                    "velocity": 0.5826771653543307,
                    "duration": 0.19791666666674246
                },
                {
                    "name": "A#4",
                    "midi": 70,
                    "time": 645.8375000000144,
                    "velocity": 0.6299212598425197,
                    "duration": 0.15000000000009095
                },
                {
                    "name": "C#5",
                    "midi": 73,
                    "time": 645.9729166666812,
                    "velocity": 0.6456692913385826,
                    "duration": 0.20208333333357587
                },
                {
                    "name": "F#4",
                    "midi": 66,
                    "time": 645.9729166666812,
                    "velocity": 0.4409448818897638,
                    "duration": 0.15625000000022737
                },
                {
                    "name": "A4",
                    "midi": 69,
                    "time": 645.9770833333479,
                    "velocity": 0.3937007874015748,
                    "duration": 0.1395833333333485
                },
                {
                    "name": "G4",
                    "midi": 67,
                    "time": 646.120833333348,
                    "velocity": 0.3228346456692913,
                    "duration": 0.16250000000002274
                },
                {
                    "name": "D5",
                    "midi": 74,
                    "time": 646.1250000000147,
                    "velocity": 0.5590551181102362,
                    "duration": 0.2020833333333485
                },
                {
                    "name": "A#4",
                    "midi": 70,
                    "time": 646.1291666666814,
                    "velocity": 0.5669291338582677,
                    "duration": 0.14374999999995453
                },
                {
                    "name": "A#2",
                    "midi": 46,
                    "time": 646.139583333348,
                    "velocity": 0.5433070866141733,
                    "duration": 0.2645833333333485
                },
                {
                    "name": "C#5",
                    "midi": 73,
                    "time": 646.2687500000147,
                    "velocity": 0.6377952755905512,
                    "duration": 0.21250000000031832
                },
                {
                    "name": "A4",
                    "midi": 69,
                    "time": 646.270833333348,
                    "velocity": 0.3464566929133858,
                    "duration": 0.15000000000020464
                },
                {
                    "name": "F#4",
                    "midi": 66,
                    "time": 646.270833333348,
                    "velocity": 0.4566929133858268,
                    "duration": 0.1416666666667652
                },
                {
                    "name": "G4",
                    "midi": 67,
                    "time": 646.4083333333481,
                    "velocity": 0.31496062992125984,
                    "duration": 0.1625000000002501
                },
                {
                    "name": "D3",
                    "midi": 50,
                    "time": 646.4166666666815,
                    "velocity": 0.5669291338582677,
                    "duration": 0.05416666666690162
                },
                {
                    "name": "D5",
                    "midi": 74,
                    "time": 646.425000000015,
                    "velocity": 0.5511811023622047,
                    "duration": 0.19583333333332575
                },
                {
                    "name": "A#4",
                    "midi": 70,
                    "time": 646.4291666666817,
                    "velocity": 0.5118110236220472,
                    "duration": 0.1687499999999318
                },
                {
                    "name": "F#4",
                    "midi": 66,
                    "time": 646.5604166666817,
                    "velocity": 0.4251968503937008,
                    "duration": 0.12916666666660603
                },
                {
                    "name": "C#5",
                    "midi": 73,
                    "time": 646.5729166666816,
                    "velocity": 0.5826771653543307,
                    "duration": 0.21249999999997726
                },
                {
                    "name": "A4",
                    "midi": 69,
                    "time": 646.5750000000149,
                    "velocity": 0.3543307086614173,
                    "duration": 0.15208333333339397
                },
                {
                    "name": "G4",
                    "midi": 67,
                    "time": 646.6958333333483,
                    "velocity": 0.30708661417322836,
                    "duration": 0.14374999999995453
                },
                {
                    "name": "G3",
                    "midi": 55,
                    "time": 646.706250000015,
                    "velocity": 0.84251968503937,
                    "duration": 0.05624999999997726
                },
                {
                    "name": "A#2",
                    "midi": 46,
                    "time": 646.712500000015,
                    "velocity": 0.8818897637795275,
                    "duration": 0.08333333333325754
                },
                {
                    "name": "D5",
                    "midi": 74,
                    "time": 646.7291666666816,
                    "velocity": 0.5433070866141733,
                    "duration": 0.1729166666666515
                },
                {
                    "name": "A#4",
                    "midi": 70,
                    "time": 646.737500000015,
                    "velocity": 0.5984251968503937,
                    "duration": 0.14791666666667425
                },
                {
                    "name": "F#4",
                    "midi": 66,
                    "time": 646.8270833333482,
                    "velocity": 0.44881889763779526,
                    "duration": 0.13333333333332575
                },
                {
                    "name": "C#5",
                    "midi": 73,
                    "time": 646.8729166666816,
                    "velocity": 0.5984251968503937,
                    "duration": 0.1999999999999318
                },
                {
                    "name": "A4",
                    "midi": 69,
                    "time": 646.8812500000149,
                    "velocity": 0.31496062992125984,
                    "duration": 0.13333333333332575
                },
                {
                    "name": "G4",
                    "midi": 67,
                    "time": 646.9729166666816,
                    "velocity": 0.29133858267716534,
                    "duration": 0.14999999999986358
                },
                {
                    "name": "E3",
                    "midi": 52,
                    "time": 647.0062500000149,
                    "velocity": 0.8346456692913385,
                    "duration": 0.12916666666660603
                },
                {
                    "name": "D5",
                    "midi": 74,
                    "time": 647.0166666666815,
                    "velocity": 0.5118110236220472,
                    "duration": 0.1729166666666515
                },
                {
                    "name": "A#4",
                    "midi": 70,
                    "time": 647.0208333333483,
                    "velocity": 0.5354330708661418,
                    "duration": 0.1374999999999318
                },
                {
                    "name": "E2",
                    "midi": 40,
                    "time": 647.0229166666816,
                    "velocity": 0.6929133858267716,
                    "duration": 0.22708333333332575
                },
                {
                    "name": "F#4",
                    "midi": 66,
                    "time": 647.1145833333482,
                    "velocity": 0.3464566929133858,
                    "duration": 0.11458333333337123
                },
                {
                    "name": "C#5",
                    "midi": 73,
                    "time": 647.1520833333482,
                    "velocity": 0.5511811023622047,
                    "duration": 0.21666666666681067
                },
                {
                    "name": "A4",
                    "midi": 69,
                    "time": 647.1604166666815,
                    "velocity": 0.29133858267716534,
                    "duration": 0.14583333333337123
                },
                {
                    "name": "G4",
                    "midi": 67,
                    "time": 647.2437500000149,
                    "velocity": 0.1889763779527559,
                    "duration": 0.1437500000001819
                },
                {
                    "name": "G3",
                    "midi": 55,
                    "time": 647.3104166666816,
                    "velocity": 0.8188976377952756,
                    "duration": 0.11666666666678793
                },
                {
                    "name": "D5",
                    "midi": 74,
                    "time": 647.3145833333483,
                    "velocity": 0.5118110236220472,
                    "duration": 0.20208333333346218
                },
                {
                    "name": "G2",
                    "midi": 43,
                    "time": 647.3166666666816,
                    "velocity": 0.6377952755905512,
                    "duration": 0.1104166666667652
                },
                {
                    "name": "A#4",
                    "midi": 70,
                    "time": 647.3208333333483,
                    "velocity": 0.4881889763779528,
                    "duration": 0.15208333333339397
                },
                {
                    "name": "F#4",
                    "midi": 66,
                    "time": 647.3729166666817,
                    "velocity": 0.48031496062992124,
                    "duration": 0.11250000000006821
                },
                {
                    "name": "A4",
                    "midi": 69,
                    "time": 647.4604166666817,
                    "velocity": 0.2992125984251969,
                    "duration": 0.1437500000000682
                },
                {
                    "name": "C#5",
                    "midi": 73,
                    "time": 647.4645833333484,
                    "velocity": 0.6535433070866141,
                    "duration": 0.2020833333333485
                },
                {
                    "name": "G4",
                    "midi": 67,
                    "time": 647.4937500000151,
                    "velocity": 0.18110236220472442,
                    "duration": 0.17499999999995453
                },
                {
                    "name": "A#1",
                    "midi": 34,
                    "time": 647.6125000000151,
                    "velocity": 0.6850393700787402,
                    "duration": 0.7875000000001364
                },
                {
                    "name": "D4",
                    "midi": 62,
                    "time": 647.6229166666817,
                    "velocity": 0.8582677165354331,
                    "duration": 0.2770833333332803
                },
                {
                    "name": "G3",
                    "midi": 55,
                    "time": 647.6229166666817,
                    "velocity": 0.7007874015748031,
                    "duration": 0.3250000000000455
                },
                {
                    "name": "D5",
                    "midi": 74,
                    "time": 647.6291666666817,
                    "velocity": 0.5984251968503937,
                    "duration": 0.22291666666660603
                },
                {
                    "name": "A#4",
                    "midi": 70,
                    "time": 647.6354166666817,
                    "velocity": 0.6456692913385826,
                    "duration": 0.14999999999986358
                },
                {
                    "name": "D3",
                    "midi": 50,
                    "time": 647.6395833333485,
                    "velocity": 0.6929133858267716,
                    "duration": 0.30416666666656056
                },
                {
                    "name": "F#4",
                    "midi": 66,
                    "time": 647.6500000000151,
                    "velocity": 0.5196850393700787,
                    "duration": 0.1229166666665833
                },
                {
                    "name": "A4",
                    "midi": 69,
                    "time": 647.7708333333484,
                    "velocity": 0.3779527559055118,
                    "duration": 0.20000000000004547
                },
                {
                    "name": "G4",
                    "midi": 67,
                    "time": 647.7833333333483,
                    "velocity": 0.2992125984251969,
                    "duration": 0.15208333333328028
                },
                {
                    "name": "C#5",
                    "midi": 73,
                    "time": 647.7833333333483,
                    "velocity": 0.6299212598425197,
                    "duration": 0.3750000000002274
                },
                {
                    "name": "F#4",
                    "midi": 66,
                    "time": 647.9166666666816,
                    "velocity": 0.5354330708661418,
                    "duration": 0.2854166666668334
                },
                {
                    "name": "D5",
                    "midi": 74,
                    "time": 647.9395833333483,
                    "velocity": 0.6614173228346457,
                    "duration": 0.20416666666687888
                },
                {
                    "name": "G2",
                    "midi": 43,
                    "time": 647.950000000015,
                    "velocity": 0.6456692913385826,
                    "duration": 0.6958333333336668
                },
                {
                    "name": "A#4",
                    "midi": 70,
                    "time": 647.9541666666818,
                    "velocity": 0.7086614173228346,
                    "duration": 0.21458333333339397
                },
                {
                    "name": "G4",
                    "midi": 67,
                    "time": 648.0854166666818,
                    "velocity": 0.4094488188976378,
                    "duration": 0.07083333333343944
                },
                {
                    "name": "A4",
                    "midi": 69,
                    "time": 648.0916666666818,
                    "velocity": 0.5748031496062992,
                    "duration": 0.15416666666669698
                },
                {
                    "name": "G4",
                    "midi": 67,
                    "time": 648.2312500000152,
                    "velocity": 0.3937007874015748,
                    "duration": 0.15416666666669698
                },
                {
                    "name": "A#3",
                    "midi": 58,
                    "time": 648.2395833333485,
                    "velocity": 0.8503937007874016,
                    "duration": 0.49791666666692436
                },
                {
                    "name": "A#4",
                    "midi": 70,
                    "time": 648.2416666666818,
                    "velocity": 0.7716535433070866,
                    "duration": 0.17083333333346218
                },
                {
                    "name": "A#2",
                    "midi": 46,
                    "time": 648.2479166666818,
                    "velocity": 0.8267716535433071,
                    "duration": 0.4895833333335986
                },
                {
                    "name": "D4",
                    "midi": 62,
                    "time": 648.2562500000151,
                    "velocity": 0.4094488188976378,
                    "duration": 0.21458333333339397
                },
                {
                    "name": "A4",
                    "midi": 69,
                    "time": 648.3708333333485,
                    "velocity": 0.6377952755905512,
                    "duration": 0.09166666666669698
                },
                {
                    "name": "C#4",
                    "midi": 61,
                    "time": 648.4312500000152,
                    "velocity": 0.4330708661417323,
                    "duration": 0.12291666666681067
                },
                {
                    "name": "F4",
                    "midi": 65,
                    "time": 648.4395833333485,
                    "velocity": 0.06299212598425197,
                    "duration": 0.10000000000013642
                },
                {
                    "name": "A#4",
                    "midi": 70,
                    "time": 648.5187500000153,
                    "velocity": 0.6929133858267716,
                    "duration": 0.20000000000004547
                },
                {
                    "name": "G4",
                    "midi": 67,
                    "time": 648.5395833333487,
                    "velocity": 0.5118110236220472,
                    "duration": 0.14374999999995453
                },
                {
                    "name": "A#1",
                    "midi": 34,
                    "time": 648.5520833333487,
                    "velocity": 0.8582677165354331,
                    "duration": 0.9499999999999318
                },
                {
                    "name": "D4",
                    "midi": 62,
                    "time": 648.5708333333487,
                    "velocity": 0.3937007874015748,
                    "duration": 0.1750000000000682
                },
                {
                    "name": "A4",
                    "midi": 69,
                    "time": 648.672916666682,
                    "velocity": 0.5669291338582677,
                    "duration": 0.17083333333346218
                },
                {
                    "name": "F#4",
                    "midi": 66,
                    "time": 648.6750000000153,
                    "velocity": 0.5905511811023622,
                    "duration": 0.16250000000013642
                },
                {
                    "name": "C#4",
                    "midi": 61,
                    "time": 648.7229166666821,
                    "velocity": 0.4881889763779528,
                    "duration": 0.19583333333332575
                },
                {
                    "name": "A#4",
                    "midi": 70,
                    "time": 648.8416666666822,
                    "velocity": 0.6535433070866141,
                    "duration": 0.17708333333325754
                },
                {
                    "name": "G4",
                    "midi": 67,
                    "time": 648.8541666666821,
                    "velocity": 0.41732283464566927,
                    "duration": 0.11874999999997726
                },
                {
                    "name": "G2",
                    "midi": 43,
                    "time": 648.872916666682,
                    "velocity": 0.49606299212598426,
                    "duration": 0.10416666666674246
                },
                {
                    "name": "D3",
                    "midi": 50,
                    "time": 648.8770833333488,
                    "velocity": 0.8976377952755905,
                    "duration": 0.3854166666665151
                },
                {
                    "name": "F#4",
                    "midi": 66,
                    "time": 648.9770833333488,
                    "velocity": 0.4094488188976378,
                    "duration": 0.18958333333318933
                },
                {
                    "name": "A4",
                    "midi": 69,
                    "time": 648.9916666666821,
                    "velocity": 0.5590551181102362,
                    "duration": 0.16249999999990905
                },
                {
                    "name": "D4",
                    "midi": 62,
                    "time": 648.9916666666821,
                    "velocity": 0.4094488188976378,
                    "duration": 0.3541666666664014
                },
                {
                    "name": "G4",
                    "midi": 67,
                    "time": 649.1645833333487,
                    "velocity": 0.5118110236220472,
                    "duration": 0.13124999999990905
                },
                {
                    "name": "A#2",
                    "midi": 46,
                    "time": 649.197916666682,
                    "velocity": 0.6141732283464567,
                    "duration": 0.09791666666660603
                },
                {
                    "name": "F4",
                    "midi": 65,
                    "time": 649.3270833333486,
                    "velocity": 0.49606299212598426,
                    "duration": 0.06875000000002274
                },
                {
                    "name": "C#4",
                    "midi": 61,
                    "time": 649.3500000000153,
                    "velocity": 0.4015748031496063,
                    "duration": 0.09166666666669698
                },
                {
                    "name": "A3",
                    "midi": 57,
                    "time": 649.510416666682,
                    "velocity": 0.6771653543307087,
                    "duration": 0.4062500000001137
                },
                {
                    "name": "A2",
                    "midi": 45,
                    "time": 649.516666666682,
                    "velocity": 0.6141732283464567,
                    "duration": 0.43125000000009095
                },
                {
                    "name": "E1",
                    "midi": 28,
                    "time": 649.529166666682,
                    "velocity": 0.7559055118110236,
                    "duration": 0.964583333333394
                },
                {
                    "name": "A#3",
                    "midi": 58,
                    "time": 649.554166666682,
                    "velocity": 0.6220472440944882,
                    "duration": 0.2208333333334167
                },
                {
                    "name": "D4",
                    "midi": 62,
                    "time": 649.5562500000153,
                    "velocity": 0.6299212598425197,
                    "duration": 0.18333333333339397
                },
                {
                    "name": "E2",
                    "midi": 40,
                    "time": 649.8666666666821,
                    "velocity": 0.6377952755905512,
                    "duration": 0.747916666666697
                },
                {
                    "name": "G#3",
                    "midi": 56,
                    "time": 649.9250000000154,
                    "velocity": 0.5905511811023622,
                    "duration": 0.15208333333339397
                },
                {
                    "name": "G3",
                    "midi": 55,
                    "time": 650.0708333333488,
                    "velocity": 0.5039370078740157,
                    "duration": 0.15625
                },
                {
                    "name": "G2",
                    "midi": 43,
                    "time": 650.2291666666821,
                    "velocity": 0.5433070866141733,
                    "duration": 1.5750000000000455
                },
                {
                    "name": "G3",
                    "midi": 55,
                    "time": 650.2312500000154,
                    "velocity": 0.6062992125984252,
                    "duration": 0.8041666666667879
                },
                {
                    "name": "F#3",
                    "midi": 54,
                    "time": 650.2520833333488,
                    "velocity": 0.47244094488188976,
                    "duration": 0.14999999999997726
                },
                {
                    "name": "F3",
                    "midi": 53,
                    "time": 650.4062500000155,
                    "velocity": 0.4645669291338583,
                    "duration": 0.19375000000002274
                },
                {
                    "name": "E1",
                    "midi": 28,
                    "time": 650.5958333333488,
                    "velocity": 0.6299212598425197,
                    "duration": 1.4750000000000227
                },
                {
                    "name": "E3",
                    "midi": 52,
                    "time": 650.6229166666822,
                    "velocity": 0.3858267716535433,
                    "duration": 0.2020833333333485
                },
                {
                    "name": "D#3",
                    "midi": 51,
                    "time": 650.8125000000155,
                    "velocity": 0.44881889763779526,
                    "duration": 0.17916666666667425
                },
                {
                    "name": "A#2",
                    "midi": 46,
                    "time": 651.0270833333489,
                    "velocity": 0.5984251968503937,
                    "duration": 1.0520833333332575
                },
                {
                    "name": "D3",
                    "midi": 50,
                    "time": 651.0270833333489,
                    "velocity": 0.31496062992125984,
                    "duration": 0.20833333333325754
                },
                {
                    "name": "C#3",
                    "midi": 49,
                    "time": 651.2333333333488,
                    "velocity": 0.4251968503937008,
                    "duration": 0.27291666666667425
                },
                {
                    "name": "A#1",
                    "midi": 34,
                    "time": 651.4750000000155,
                    "velocity": 0.5196850393700787,
                    "duration": 0.3270833333333485
                },
                {
                    "name": "C3",
                    "midi": 48,
                    "time": 651.5312500000155,
                    "velocity": 0.2677165354330709,
                    "duration": 0.33749999999997726
                },
                {
                    "name": "A1",
                    "midi": 33,
                    "time": 652.0229166666821,
                    "velocity": 0.4330708661417323,
                    "duration": 0.5291666666665833
                },
                {
                    "name": "D2",
                    "midi": 38,
                    "time": 652.0687500000155,
                    "velocity": 0.29133858267716534,
                    "duration": 0.24583333333328028
                },
                {
                    "name": "C#2",
                    "midi": 37,
                    "time": 652.3125000000155,
                    "velocity": 0.28346456692913385,
                    "duration": 0.20833333333325754
                },
                {
                    "name": "A#2",
                    "midi": 46,
                    "time": 652.5208333333487,
                    "velocity": 0.3858267716535433,
                    "duration": 0.6458333333332575
                },
                {
                    "name": "F#2",
                    "midi": 42,
                    "time": 652.529166666682,
                    "velocity": 0.3228346456692913,
                    "duration": 0.27291666666667425
                },
                {
                    "name": "C2",
                    "midi": 36,
                    "time": 652.5395833333487,
                    "velocity": 0.3858267716535433,
                    "duration": 0.19375000000002274
                },
                {
                    "name": "B1",
                    "midi": 35,
                    "time": 652.7500000000153,
                    "velocity": 0.3858267716535433,
                    "duration": 0.23125000000004547
                },
                {
                    "name": "A#1",
                    "midi": 34,
                    "time": 652.9395833333488,
                    "velocity": 0.44881889763779526,
                    "duration": 0.17291666666653782
                },
                {
                    "name": "F#2",
                    "midi": 42,
                    "time": 652.9875000000154,
                    "velocity": 0.5511811023622047,
                    "duration": 0.049999999999954525
                },
                {
                    "name": "D2",
                    "midi": 38,
                    "time": 653.0062500000154,
                    "velocity": 0.47244094488188976,
                    "duration": 0.04791666666665151
                },
                {
                    "name": "A1",
                    "midi": 33,
                    "time": 653.1125000000153,
                    "velocity": 0.2677165354330709,
                    "duration": 0.24791666666669698
                },
                {
                    "name": "D2",
                    "midi": 38,
                    "time": 653.3708333333486,
                    "velocity": 0.36220472440944884,
                    "duration": 0.22500000000013642
                },
                {
                    "name": "A1",
                    "midi": 33,
                    "time": 653.4145833333487,
                    "velocity": 0.4645669291338583,
                    "duration": 0.39791666666667425
                },
                {
                    "name": "C#2",
                    "midi": 37,
                    "time": 653.5750000000154,
                    "velocity": 0.3779527559055118,
                    "duration": 0.2354166666666515
                },
                {
                    "name": "F#2",
                    "midi": 42,
                    "time": 653.8208333333487,
                    "velocity": 0.44881889763779526,
                    "duration": 0.11874999999997726
                },
                {
                    "name": "A#2",
                    "midi": 46,
                    "time": 653.8270833333487,
                    "velocity": 0.5511811023622047,
                    "duration": 0.7041666666666515
                },
                {
                    "name": "C2",
                    "midi": 36,
                    "time": 653.8270833333487,
                    "velocity": 0.3779527559055118,
                    "duration": 0.18333333333328028
                },
                {
                    "name": "B1",
                    "midi": 35,
                    "time": 654.0187500000153,
                    "velocity": 0.3779527559055118,
                    "duration": 0.2041666666666515
                },
                {
                    "name": "A#1",
                    "midi": 34,
                    "time": 654.204166666682,
                    "velocity": 0.4566929133858268,
                    "duration": 0.16666666666662877
                },
                {
                    "name": "F#2",
                    "midi": 42,
                    "time": 654.2145833333486,
                    "velocity": 0.5118110236220472,
                    "duration": 0.04374999999993179
                },
                {
                    "name": "D2",
                    "midi": 38,
                    "time": 654.2479166666819,
                    "velocity": 0.29133858267716534,
                    "duration": 0.04583333333334849
                },
                {
                    "name": "A1",
                    "midi": 33,
                    "time": 654.3708333333486,
                    "velocity": 0.3700787401574803,
                    "duration": 0.19166666666671972
                },
                {
                    "name": "D2",
                    "midi": 38,
                    "time": 654.5875000000153,
                    "velocity": 0.3858267716535433,
                    "duration": 0.1854166666665833
                },
                {
                    "name": "A1",
                    "midi": 33,
                    "time": 654.6145833333486,
                    "velocity": 0.4566929133858268,
                    "duration": 0.41249999999990905
                },
                {
                    "name": "C#2",
                    "midi": 37,
                    "time": 654.7812500000152,
                    "velocity": 0.3937007874015748,
                    "duration": 0.18958333333330302
                },
                {
                    "name": "A#2",
                    "midi": 46,
                    "time": 655.0000000000152,
                    "velocity": 0.5275590551181102,
                    "duration": 0.747916666666697
                },
                {
                    "name": "C2",
                    "midi": 36,
                    "time": 655.0020833333485,
                    "velocity": 0.3700787401574803,
                    "duration": 0.18541666666669698
                },
                {
                    "name": "F#2",
                    "midi": 42,
                    "time": 655.0104166666819,
                    "velocity": 0.3464566929133858,
                    "duration": 0.08541666666667425
                },
                {
                    "name": "B1",
                    "midi": 35,
                    "time": 655.2062500000152,
                    "velocity": 0.3858267716535433,
                    "duration": 0.1750000000000682
                },
                {
                    "name": "A#1",
                    "midi": 34,
                    "time": 655.3541666666819,
                    "velocity": 0.3543307086614173,
                    "duration": 0.18333333333339397
                },
                {
                    "name": "F#2",
                    "midi": 42,
                    "time": 655.3604166666819,
                    "velocity": 0.5511811023622047,
                    "duration": 0.04583333333334849
                },
                {
                    "name": "D2",
                    "midi": 38,
                    "time": 655.3895833333486,
                    "velocity": 0.33070866141732286,
                    "duration": 0.04791666666665151
                },
                {
                    "name": "A1",
                    "midi": 33,
                    "time": 655.535416666682,
                    "velocity": 0.25984251968503935,
                    "duration": 0.1999999999999318
                },
                {
                    "name": "A1",
                    "midi": 33,
                    "time": 655.7625000000153,
                    "velocity": 0.49606299212598426,
                    "duration": 0.4083333333335304
                },
                {
                    "name": "D2",
                    "midi": 38,
                    "time": 655.766666666682,
                    "velocity": 0.3228346456692913,
                    "duration": 0.15625
                },
                {
                    "name": "C#2",
                    "midi": 37,
                    "time": 655.929166666682,
                    "velocity": 0.44881889763779526,
                    "duration": 0.21458333333339397
                },
                {
                    "name": "A#2",
                    "midi": 46,
                    "time": 656.1375000000154,
                    "velocity": 0.4566929133858268,
                    "duration": 0.6729166666668789
                },
                {
                    "name": "F#2",
                    "midi": 42,
                    "time": 656.1500000000154,
                    "velocity": 0.3543307086614173,
                    "duration": 0.11875000000009095
                },
                {
                    "name": "C2",
                    "midi": 36,
                    "time": 656.1645833333488,
                    "velocity": 0.4330708661417323,
                    "duration": 0.16458333333343944
                },
                {
                    "name": "B1",
                    "midi": 35,
                    "time": 656.3479166666822,
                    "velocity": 0.33858267716535434,
                    "duration": 0.16875000000004547
                },
                {
                    "name": "A#1",
                    "midi": 34,
                    "time": 656.4937500000156,
                    "velocity": 0.4015748031496063,
                    "duration": 0.1875
                },
                {
                    "name": "F#2",
                    "midi": 42,
                    "time": 656.5062500000156,
                    "velocity": 0.5118110236220472,
                    "duration": 0.05208333333325754
                },
                {
                    "name": "D2",
                    "midi": 38,
                    "time": 656.5312500000156,
                    "velocity": 0.4094488188976378,
                    "duration": 0.05208333333325754
                },
                {
                    "name": "A1",
                    "midi": 33,
                    "time": 656.6854166666823,
                    "velocity": 0.4645669291338583,
                    "duration": 0.13750000000004547
                },
                {
                    "name": "D2",
                    "midi": 38,
                    "time": 656.877083333349,
                    "velocity": 0.3700787401574803,
                    "duration": 0.17708333333337123
                },
                {
                    "name": "A1",
                    "midi": 33,
                    "time": 656.914583333349,
                    "velocity": 0.41732283464566927,
                    "duration": 0.36458333333337123
                },
                {
                    "name": "C#2",
                    "midi": 37,
                    "time": 657.064583333349,
                    "velocity": 0.3937007874015748,
                    "duration": 0.2020833333333485
                },
                {
                    "name": "A#2",
                    "midi": 46,
                    "time": 657.2708333333491,
                    "velocity": 0.41732283464566927,
                    "duration": 0.6458333333332575
                },
                {
                    "name": "F#2",
                    "midi": 42,
                    "time": 657.289583333349,
                    "velocity": 0.36220472440944884,
                    "duration": 0.12083333333339397
                },
                {
                    "name": "C2",
                    "midi": 36,
                    "time": 657.295833333349,
                    "velocity": 0.33858267716535434,
                    "duration": 0.15416666666669698
                },
                {
                    "name": "B1",
                    "midi": 35,
                    "time": 657.4750000000157,
                    "velocity": 0.31496062992125984,
                    "duration": 0.18541666666669698
                },
                {
                    "name": "A#1",
                    "midi": 34,
                    "time": 657.6145833333491,
                    "velocity": 0.33858267716535434,
                    "duration": 0.1999999999999318
                },
                {
                    "name": "F#2",
                    "midi": 42,
                    "time": 657.6437500000158,
                    "velocity": 0.5118110236220472,
                    "duration": 0.05208333333325754
                },
                {
                    "name": "D2",
                    "midi": 38,
                    "time": 657.670833333349,
                    "velocity": 0.3858267716535433,
                    "duration": 0.04791666666665151
                },
                {
                    "name": "A1",
                    "midi": 33,
                    "time": 657.8250000000156,
                    "velocity": 0.25196850393700787,
                    "duration": 0.14791666666667425
                },
                {
                    "name": "D2",
                    "midi": 38,
                    "time": 658.002083333349,
                    "velocity": 0.3543307086614173,
                    "duration": 0.16458333333332575
                },
                {
                    "name": "A1",
                    "midi": 33,
                    "time": 658.0250000000157,
                    "velocity": 0.5118110236220472,
                    "duration": 0.14999999999997726
                },
                {
                    "name": "C#2",
                    "midi": 37,
                    "time": 658.183333333349,
                    "velocity": 0.33858267716535434,
                    "duration": 0.1875
                },
                {
                    "name": "C2",
                    "midi": 36,
                    "time": 658.4125000000156,
                    "velocity": 0.3228346456692913,
                    "duration": 0.14999999999997726
                },
                {
                    "name": "A#2",
                    "midi": 46,
                    "time": 658.4437500000156,
                    "velocity": 0.4094488188976378,
                    "duration": 0.12916666666660603
                },
                {
                    "name": "F#2",
                    "midi": 42,
                    "time": 658.4458333333489,
                    "velocity": 0.4015748031496063,
                    "duration": 0.11249999999995453
                },
                {
                    "name": "B1",
                    "midi": 35,
                    "time": 658.6000000000155,
                    "velocity": 0.2204724409448819,
                    "duration": 0.1416666666666515
                },
                {
                    "name": "A#1",
                    "midi": 34,
                    "time": 658.7395833333488,
                    "velocity": 0.33070866141732286,
                    "duration": 0.21458333333328028
                },
                {
                    "name": "F#2",
                    "midi": 42,
                    "time": 658.8666666666821,
                    "velocity": 0.5275590551181102,
                    "duration": 0.22083333333330302
                },
                {
                    "name": "D2",
                    "midi": 38,
                    "time": 658.8791666666822,
                    "velocity": 0.4015748031496063,
                    "duration": 0.06458333333330302
                },
                {
                    "name": "A1",
                    "midi": 33,
                    "time": 658.9541666666821,
                    "velocity": 0.29133858267716534,
                    "duration": 0.2625000000000455
                },
                {
                    "name": "D3",
                    "midi": 50,
                    "time": 659.0708333333488,
                    "velocity": 0.5748031496062992,
                    "duration": 0.21250000000009095
                },
                {
                    "name": "D2",
                    "midi": 38,
                    "time": 659.2708333333488,
                    "velocity": 0.33858267716535434,
                    "duration": 0.21875
                },
                {
                    "name": "A1",
                    "midi": 33,
                    "time": 659.3062500000156,
                    "velocity": 0.4645669291338583,
                    "duration": 0.09375
                },
                {
                    "name": "C#3",
                    "midi": 49,
                    "time": 659.3229166666822,
                    "velocity": 0.6456692913385826,
                    "duration": 0.3604166666666515
                },
                {
                    "name": "C#2",
                    "midi": 37,
                    "time": 659.5229166666821,
                    "velocity": 0.25984251968503935,
                    "duration": 0.17708333333337123
                },
                {
                    "name": "A#2",
                    "midi": 46,
                    "time": 659.6979166666822,
                    "velocity": 0.44881889763779526,
                    "duration": 0.07499999999993179
                },
                {
                    "name": "F#2",
                    "midi": 42,
                    "time": 659.7104166666821,
                    "velocity": 0.3779527559055118,
                    "duration": 0.05624999999997726
                },
                {
                    "name": "C2",
                    "midi": 36,
                    "time": 659.7354166666821,
                    "velocity": 0.30708661417322836,
                    "duration": 0.1750000000000682
                },
                {
                    "name": "B1",
                    "midi": 35,
                    "time": 659.9395833333489,
                    "velocity": 0.2283464566929134,
                    "duration": 0.17499999999995453
                },
                {
                    "name": "F#2",
                    "midi": 42,
                    "time": 660.0687500000156,
                    "velocity": 0.6535433070866141,
                    "duration": 0.14166666666653782
                },
                {
                    "name": "D2",
                    "midi": 38,
                    "time": 660.1041666666822,
                    "velocity": 0.5275590551181102,
                    "duration": 0.04374999999993179
                },
                {
                    "name": "A#1",
                    "midi": 34,
                    "time": 660.1062500000155,
                    "velocity": 0.25984251968503935,
                    "duration": 0.14374999999995453
                },
                {
                    "name": "D3",
                    "midi": 50,
                    "time": 660.2291666666821,
                    "velocity": 0.48031496062992124,
                    "duration": 0.15208333333339397
                },
                {
                    "name": "A1",
                    "midi": 33,
                    "time": 660.2666666666821,
                    "velocity": 0.28346456692913385,
                    "duration": 0.15208333333339397
                },
                {
                    "name": "D2",
                    "midi": 38,
                    "time": 660.4520833333488,
                    "velocity": 0.3779527559055118,
                    "duration": 0.1729166666667652
                },
                {
                    "name": "C#3",
                    "midi": 49,
                    "time": 660.4645833333489,
                    "velocity": 0.6299212598425197,
                    "duration": 0.37083333333339397
                },
                {
                    "name": "A1",
                    "midi": 33,
                    "time": 660.4875000000155,
                    "velocity": 0.25196850393700787,
                    "duration": 0.08541666666667425
                },
                {
                    "name": "C#2",
                    "midi": 37,
                    "time": 660.6270833333489,
                    "velocity": 0.41732283464566927,
                    "duration": 0.2020833333333485
                },
                {
                    "name": "A#2",
                    "midi": 46,
                    "time": 660.864583333349,
                    "velocity": 0.47244094488188976,
                    "duration": 0.05624999999997726
                },
                {
                    "name": "C2",
                    "midi": 36,
                    "time": 660.864583333349,
                    "velocity": 0.3464566929133858,
                    "duration": 0.16250000000002274
                },
                {
                    "name": "F#2",
                    "midi": 42,
                    "time": 660.8833333333489,
                    "velocity": 0.3700787401574803,
                    "duration": 0.043750000000045475
                },
                {
                    "name": "B1",
                    "midi": 35,
                    "time": 661.0541666666822,
                    "velocity": 0.3228346456692913,
                    "duration": 0.18333333333339397
                },
                {
                    "name": "F#2",
                    "midi": 42,
                    "time": 661.2333333333489,
                    "velocity": 0.6692913385826772,
                    "duration": 0.11875000000009095
                },
                {
                    "name": "A#1",
                    "midi": 34,
                    "time": 661.2416666666824,
                    "velocity": 0.33070866141732286,
                    "duration": 0.1374999999999318
                },
                {
                    "name": "D2",
                    "midi": 38,
                    "time": 661.2541666666824,
                    "velocity": 0.4645669291338583,
                    "duration": 0.039583333333325754
                },
                {
                    "name": "D3",
                    "midi": 50,
                    "time": 661.383333333349,
                    "velocity": 0.4881889763779528,
                    "duration": 0.1416666666666515
                },
                {
                    "name": "A1",
                    "midi": 33,
                    "time": 661.4041666666824,
                    "velocity": 0.23622047244094488,
                    "duration": 0.19374999999990905
                },
                {
                    "name": "A1",
                    "midi": 33,
                    "time": 661.633333333349,
                    "velocity": 0.4094488188976378,
                    "duration": 0.0645833333334167
                },
                {
                    "name": "A#2",
                    "midi": 46,
                    "time": 661.633333333349,
                    "velocity": 0.6062992125984252,
                    "duration": 0.21250000000009095
                },
                {
                    "name": "D#2",
                    "midi": 39,
                    "time": 661.664583333349,
                    "velocity": 0.5511811023622047,
                    "duration": 0.1895833333334167
                },
                {
                    "name": "D2",
                    "midi": 38,
                    "time": 661.8375000000158,
                    "velocity": 0.49606299212598426,
                    "duration": 0.1875
                },
                {
                    "name": "F#2",
                    "midi": 42,
                    "time": 662.0375000000158,
                    "velocity": 0.4251968503937008,
                    "duration": 0.11874999999997726
                },
                {
                    "name": "A#2",
                    "midi": 46,
                    "time": 662.0375000000158,
                    "velocity": 0.36220472440944884,
                    "duration": 0.5187499999999545
                },
                {
                    "name": "C#2",
                    "midi": 37,
                    "time": 662.0541666666825,
                    "velocity": 0.2283464566929134,
                    "duration": 0.14374999999995453
                },
                {
                    "name": "C2",
                    "midi": 36,
                    "time": 662.2375000000159,
                    "velocity": 0.16535433070866143,
                    "duration": 0.1708333333333485
                },
                {
                    "name": "C#3",
                    "midi": 49,
                    "time": 662.4270833333492,
                    "velocity": 0.7007874015748031,
                    "duration": 0.04374999999993179
                },
                {
                    "name": "D#2",
                    "midi": 39,
                    "time": 662.4375000000158,
                    "velocity": 0.48031496062992124,
                    "duration": 0.035416666666606034
                },
                {
                    "name": "A#1",
                    "midi": 34,
                    "time": 662.4437500000158,
                    "velocity": 0.33858267716535434,
                    "duration": 0.19791666666662877
                },
                {
                    "name": "A1",
                    "midi": 33,
                    "time": 662.6270833333491,
                    "velocity": 0.18110236220472442,
                    "duration": 0.22708333333332575
                },
                {
                    "name": "E2",
                    "midi": 40,
                    "time": 662.8250000000157,
                    "velocity": 0.5118110236220472,
                    "duration": 0.19583333333343944
                },
                {
                    "name": "C#3",
                    "midi": 49,
                    "time": 662.8291666666825,
                    "velocity": 0.6614173228346457,
                    "duration": 0.16666666666662877
                },
                {
                    "name": "D#2",
                    "midi": 39,
                    "time": 663.0000000000158,
                    "velocity": 0.5511811023622047,
                    "duration": 0.23541666666687888
                },
                {
                    "name": "A#2",
                    "midi": 46,
                    "time": 663.1812500000159,
                    "velocity": 0.44881889763779526,
                    "duration": 0.1437500000000682
                },
                {
                    "name": "G2",
                    "midi": 43,
                    "time": 663.2166666666826,
                    "velocity": 0.3228346456692913,
                    "duration": 0.19375000000002274
                },
                {
                    "name": "D2",
                    "midi": 38,
                    "time": 663.231250000016,
                    "velocity": 0.3858267716535433,
                    "duration": 0.25
                },
                {
                    "name": "C#2",
                    "midi": 37,
                    "time": 663.4645833333493,
                    "velocity": 0.48031496062992124,
                    "duration": 0.18333333333328028
                },
                {
                    "name": "B2",
                    "midi": 47,
                    "time": 663.5520833333493,
                    "velocity": 0.6299212598425197,
                    "duration": 0.10000000000002274
                },
                {
                    "name": "E2",
                    "midi": 40,
                    "time": 663.5583333333493,
                    "velocity": 0.6062992125984252,
                    "duration": 0.04374999999993179
                },
                {
                    "name": "G2",
                    "midi": 43,
                    "time": 663.5937500000159,
                    "velocity": 0.31496062992125984,
                    "duration": 0.19583333333343944
                },
                {
                    "name": "C2",
                    "midi": 36,
                    "time": 663.6604166666826,
                    "velocity": 0.33070866141732286,
                    "duration": 0.15208333333339397
                },
                {
                    "name": "G3",
                    "midi": 55,
                    "time": 663.6916666666826,
                    "velocity": 0.6850393700787402,
                    "duration": 0.1562500000001137
                },
                {
                    "name": "A1",
                    "midi": 33,
                    "time": 663.812500000016,
                    "velocity": 0.2047244094488189,
                    "duration": 0.16458333333343944
                },
                {
                    "name": "A3",
                    "midi": 57,
                    "time": 663.9333333333494,
                    "velocity": 0.7086614173228346,
                    "duration": 0.2520833333334167
                },
                {
                    "name": "G2",
                    "midi": 43,
                    "time": 663.9375000000161,
                    "velocity": 0.6299212598425197,
                    "duration": 0.19583333333332575
                },
                {
                    "name": "F#2",
                    "midi": 42,
                    "time": 664.0791666666828,
                    "velocity": 0.5118110236220472,
                    "duration": 0.2770833333332803
                },
                {
                    "name": "F2",
                    "midi": 41,
                    "time": 664.3187500000162,
                    "velocity": 0.5118110236220472,
                    "duration": 0.13541666666662877
                },
                {
                    "name": "C#3",
                    "midi": 49,
                    "time": 664.3270833333495,
                    "velocity": 0.5826771653543307,
                    "duration": 0.10624999999993179
                },
                {
                    "name": "A2",
                    "midi": 45,
                    "time": 664.3458333333494,
                    "velocity": 0.3858267716535433,
                    "duration": 0.08124999999995453
                },
                {
                    "name": "E2",
                    "midi": 40,
                    "time": 664.4708333333494,
                    "velocity": 0.5748031496062992,
                    "duration": 0.14999999999997726
                },
                {
                    "name": "D#2",
                    "midi": 39,
                    "time": 664.6562500000161,
                    "velocity": 0.5669291338582677,
                    "duration": 0.10416666666662877
                },
                {
                    "name": "D3",
                    "midi": 50,
                    "time": 664.6833333333494,
                    "velocity": 0.5826771653543307,
                    "duration": 0.04166666666674246
                },
                {
                    "name": "G2",
                    "midi": 43,
                    "time": 664.6875000000161,
                    "velocity": 0.5826771653543307,
                    "duration": 0.05624999999997726
                },
                {
                    "name": "A#2",
                    "midi": 46,
                    "time": 664.6937500000162,
                    "velocity": 0.7165354330708661,
                    "duration": 0.11041666666665151
                },
                {
                    "name": "D2",
                    "midi": 38,
                    "time": 664.8083333333495,
                    "velocity": 0.5590551181102362,
                    "duration": 0.16666666666662877
                },
                {
                    "name": "G3",
                    "midi": 55,
                    "time": 664.8250000000162,
                    "velocity": 0.6141732283464567,
                    "duration": 0.2041666666666515
                },
                {
                    "name": "G2",
                    "midi": 43,
                    "time": 665.0229166666828,
                    "velocity": 0.5905511811023622,
                    "duration": 0.2062500000000682
                },
                {
                    "name": "A1",
                    "midi": 33,
                    "time": 665.0604166666828,
                    "velocity": 0.4330708661417323,
                    "duration": 0.054166666666674246
                },
                {
                    "name": "D#3",
                    "midi": 51,
                    "time": 665.0750000000162,
                    "velocity": 0.7559055118110236,
                    "duration": 0.2354166666666515
                },
                {
                    "name": "F#2",
                    "midi": 42,
                    "time": 665.2041666666829,
                    "velocity": 0.5511811023622047,
                    "duration": 0.22291666666660603
                },
                {
                    "name": "F2",
                    "midi": 41,
                    "time": 665.4375000000161,
                    "velocity": 0.44881889763779526,
                    "duration": 0.14583333333337123
                },
                {
                    "name": "B2",
                    "midi": 47,
                    "time": 665.4437500000162,
                    "velocity": 0.6614173228346457,
                    "duration": 0.14791666666667425
                },
                {
                    "name": "E2",
                    "midi": 40,
                    "time": 665.6041666666829,
                    "velocity": 0.4645669291338583,
                    "duration": 0.14583333333337123
                },
                {
                    "name": "D#2",
                    "midi": 39,
                    "time": 665.785416666683,
                    "velocity": 0.5669291338582677,
                    "duration": 0.11458333333325754
                },
                {
                    "name": "C3",
                    "midi": 48,
                    "time": 665.8020833333496,
                    "velocity": 0.6692913385826772,
                    "duration": 0.060416666666583296
                },
                {
                    "name": "E3",
                    "midi": 52,
                    "time": 665.8083333333497,
                    "velocity": 0.6771653543307087,
                    "duration": 0.11041666666653782
                },
                {
                    "name": "G2",
                    "midi": 43,
                    "time": 665.8208333333496,
                    "velocity": 0.5118110236220472,
                    "duration": 0.04166666666662877
                },
                {
                    "name": "B3",
                    "midi": 59,
                    "time": 665.9375000000161,
                    "velocity": 0.7322834645669292,
                    "duration": 0.11458333333337123
                },
                {
                    "name": "D2",
                    "midi": 38,
                    "time": 665.9812500000162,
                    "velocity": 0.29133858267716534,
                    "duration": 0.13125000000002274
                },
                {
                    "name": "G#2",
                    "midi": 44,
                    "time": 666.1645833333496,
                    "velocity": 0.5669291338582677,
                    "duration": 0.3624999999999545
                },
                {
                    "name": "A1",
                    "midi": 33,
                    "time": 666.185416666683,
                    "velocity": 0.49606299212598426,
                    "duration": 0.054166666666674246
                },
                {
                    "name": "B3",
                    "midi": 59,
                    "time": 666.2062500000163,
                    "velocity": 0.7874015748031497,
                    "duration": 0.12083333333328028
                },
                {
                    "name": "G2",
                    "midi": 43,
                    "time": 666.3375000000162,
                    "velocity": 0.3228346456692913,
                    "duration": 0.24583333333328028
                },
                {
                    "name": "F#2",
                    "midi": 42,
                    "time": 666.5354166666829,
                    "velocity": 0.5433070866141733,
                    "duration": 0.17916666666667425
                },
                {
                    "name": "F3",
                    "midi": 53,
                    "time": 666.6041666666829,
                    "velocity": 0.5590551181102362,
                    "duration": 0.054166666666674246
                },
                {
                    "name": "C#3",
                    "midi": 49,
                    "time": 666.6062500000162,
                    "velocity": 0.5826771653543307,
                    "duration": 0.08541666666667425
                },
                {
                    "name": "F2",
                    "midi": 41,
                    "time": 666.7250000000162,
                    "velocity": 0.4409448818897638,
                    "duration": 0.13541666666662877
                },
                {
                    "name": "D#2",
                    "midi": 39,
                    "time": 666.9166666666828,
                    "velocity": 0.5196850393700787,
                    "duration": 0.16249999999990905
                },
                {
                    "name": "C#3",
                    "midi": 49,
                    "time": 666.9500000000161,
                    "velocity": 0.7165354330708661,
                    "duration": 0.039583333333325754
                },
                {
                    "name": "F3",
                    "midi": 53,
                    "time": 666.9520833333494,
                    "velocity": 0.7559055118110236,
                    "duration": 0.06875000000002274
                },
                {
                    "name": "G#2",
                    "midi": 44,
                    "time": 666.9604166666827,
                    "velocity": 0.6299212598425197,
                    "duration": 0.04791666666665151
                },
                {
                    "name": "D2",
                    "midi": 38,
                    "time": 667.0958333333493,
                    "velocity": 0.5590551181102362,
                    "duration": 0.13333333333332575
                },
                {
                    "name": "A2",
                    "midi": 45,
                    "time": 667.293750000016,
                    "velocity": 0.5275590551181102,
                    "duration": 0.21458333333339397
                },
                {
                    "name": "A1",
                    "midi": 33,
                    "time": 667.325000000016,
                    "velocity": 0.5590551181102362,
                    "duration": 0.058333333333393966
                },
                {
                    "name": "B3",
                    "midi": 59,
                    "time": 667.3395833333493,
                    "velocity": 0.7559055118110236,
                    "duration": 0.0958333333334167
                },
                {
                    "name": "G#2",
                    "midi": 44,
                    "time": 667.4604166666827,
                    "velocity": 0.5984251968503937,
                    "duration": 0.3604166666666515
                },
                {
                    "name": "G2",
                    "midi": 43,
                    "time": 667.662500000016,
                    "velocity": 0.5118110236220472,
                    "duration": 0.2166666666665833
                },
                {
                    "name": "F#3",
                    "midi": 54,
                    "time": 667.7666666666827,
                    "velocity": 0.5433070866141733,
                    "duration": 0.07291666666662877
                },
                {
                    "name": "D3",
                    "midi": 50,
                    "time": 667.7958333333494,
                    "velocity": 0.2755905511811024,
                    "duration": 0.060416666666583296
                },
                {
                    "name": "F#2",
                    "midi": 42,
                    "time": 667.8541666666827,
                    "velocity": 0.5354330708661418,
                    "duration": 0.16458333333332575
                },
                {
                    "name": "F2",
                    "midi": 41,
                    "time": 668.0604166666826,
                    "velocity": 0.36220472440944884,
                    "duration": 0.2062500000000682
                },
                {
                    "name": "D3",
                    "midi": 50,
                    "time": 668.1604166666826,
                    "velocity": 0.5433070866141733,
                    "duration": 0.03750000000002274
                },
                {
                    "name": "A2",
                    "midi": 45,
                    "time": 668.1625000000159,
                    "velocity": 0.5118110236220472,
                    "duration": 0.058333333333393966
                },
                {
                    "name": "F#3",
                    "midi": 54,
                    "time": 668.168750000016,
                    "velocity": 0.7007874015748031,
                    "duration": 0.09791666666671972
                },
                {
                    "name": "D2",
                    "midi": 38,
                    "time": 668.250000000016,
                    "velocity": 0.6614173228346457,
                    "duration": 0.0770833333332348
                },
                {
                    "name": "D4",
                    "midi": 62,
                    "time": 668.3104166666826,
                    "velocity": 0.7244094488188977,
                    "duration": 0.21249999999997726
                },
                {
                    "name": "B3",
                    "midi": 59,
                    "time": 668.3375000000159,
                    "velocity": 0.5275590551181102,
                    "duration": 0.16666666666674246
                },
                {
                    "name": "D3",
                    "midi": 50,
                    "time": 668.5041666666826,
                    "velocity": 0.5905511811023622,
                    "duration": 0.23958333333337123
                },
                {
                    "name": "A1",
                    "midi": 33,
                    "time": 668.543750000016,
                    "velocity": 0.5826771653543307,
                    "duration": 0.10000000000002274
                },
                {
                    "name": "E4",
                    "midi": 64,
                    "time": 668.6145833333493,
                    "velocity": 0.7244094488188977,
                    "duration": 0.30208333333337123
                },
                {
                    "name": "C#4",
                    "midi": 61,
                    "time": 668.6354166666827,
                    "velocity": 0.7401574803149606,
                    "duration": 0.3604166666666515
                },
                {
                    "name": "C#3",
                    "midi": 49,
                    "time": 668.6833333333493,
                    "velocity": 0.44881889763779526,
                    "duration": 0.3291666666666515
                },
                {
                    "name": "C3",
                    "midi": 48,
                    "time": 668.931250000016,
                    "velocity": 0.5039370078740157,
                    "duration": 0.17916666666656056
                },
                {
                    "name": "F#3",
                    "midi": 54,
                    "time": 669.0208333333493,
                    "velocity": 0.5905511811023622,
                    "duration": 0.07499999999993179
                },
                {
                    "name": "D3",
                    "midi": 50,
                    "time": 669.0458333333493,
                    "velocity": 0.36220472440944884,
                    "duration": 0.05208333333325754
                },
                {
                    "name": "B2",
                    "midi": 47,
                    "time": 669.1312500000159,
                    "velocity": 0.4094488188976378,
                    "duration": 0.17708333333337123
                },
                {
                    "name": "A#2",
                    "midi": 46,
                    "time": 669.3479166666826,
                    "velocity": 0.48031496062992124,
                    "duration": 0.1562500000001137
                },
                {
                    "name": "F#3",
                    "midi": 54,
                    "time": 669.3708333333493,
                    "velocity": 0.7716535433070866,
                    "duration": 0.09375000000011369
                },
                {
                    "name": "D3",
                    "midi": 50,
                    "time": 669.3812500000159,
                    "velocity": 0.5354330708661418,
                    "duration": 0.03958333333343944
                },
                {
                    "name": "A2",
                    "midi": 45,
                    "time": 669.3854166666827,
                    "velocity": 0.5905511811023622,
                    "duration": 0.04166666666674246
                },
                {
                    "name": "D4",
                    "midi": 62,
                    "time": 669.4854166666828,
                    "velocity": 0.6614173228346457,
                    "duration": 0.1708333333333485
                },
                {
                    "name": "B3",
                    "midi": 59,
                    "time": 669.506250000016,
                    "velocity": 0.49606299212598426,
                    "duration": 0.058333333333393966
                },
                {
                    "name": "A2",
                    "midi": 45,
                    "time": 669.5291666666827,
                    "velocity": 0.4330708661417323,
                    "duration": 0.20000000000015916
                },
                {
                    "name": "A1",
                    "midi": 33,
                    "time": 669.7229166666829,
                    "velocity": 0.5590551181102362,
                    "duration": 0.07291666666651508
                },
                {
                    "name": "C#4",
                    "midi": 61,
                    "time": 669.7291666666829,
                    "velocity": 0.7874015748031497,
                    "duration": 0.1687499999998181
                },
                {
                    "name": "D#3",
                    "midi": 51,
                    "time": 669.7354166666828,
                    "velocity": 0.6771653543307087,
                    "duration": 0.22083333333318933
                },
                {
                    "name": "A#3",
                    "midi": 58,
                    "time": 669.7375000000161,
                    "velocity": 0.6299212598425197,
                    "duration": 0.1229166666665833
                },
                {
                    "name": "D3",
                    "midi": 50,
                    "time": 669.9229166666827,
                    "velocity": 0.5748031496062992,
                    "duration": 0.18124999999997726
                },
                {
                    "name": "C#3",
                    "midi": 49,
                    "time": 670.1000000000159,
                    "velocity": 0.5590551181102362,
                    "duration": 0.1875
                },
                {
                    "name": "F#3",
                    "midi": 54,
                    "time": 670.1541666666826,
                    "velocity": 0.5748031496062992,
                    "duration": 0.06666666666671972
                },
                {
                    "name": "D#3",
                    "midi": 51,
                    "time": 670.1666666666827,
                    "velocity": 0.5118110236220472,
                    "duration": 0.06041666666669698
                },
                {
                    "name": "C3",
                    "midi": 48,
                    "time": 670.2770833333493,
                    "velocity": 0.41732283464566927,
                    "duration": 0.20833333333325754
                },
                {
                    "name": "F#3",
                    "midi": 54,
                    "time": 670.4875000000159,
                    "velocity": 0.7480314960629921,
                    "duration": 0.08541666666678793
                },
                {
                    "name": "D#3",
                    "midi": 51,
                    "time": 670.4916666666826,
                    "velocity": 0.6377952755905512,
                    "duration": 0.03125
                },
                {
                    "name": "A2",
                    "midi": 45,
                    "time": 670.5020833333492,
                    "velocity": 0.5590551181102362,
                    "duration": 0.05000000000006821
                },
                {
                    "name": "B2",
                    "midi": 47,
                    "time": 670.5270833333493,
                    "velocity": 0.4330708661417323,
                    "duration": 0.13333333333332575
                },
                {
                    "name": "D4",
                    "midi": 62,
                    "time": 670.6145833333493,
                    "velocity": 0.6929133858267716,
                    "duration": 0.12083333333339397
                },
                {
                    "name": "B3",
                    "midi": 59,
                    "time": 670.6291666666826,
                    "velocity": 0.6062992125984252,
                    "duration": 0.09166666666669698
                },
                {
                    "name": "A#2",
                    "midi": 46,
                    "time": 670.6916666666826,
                    "velocity": 0.5511811023622047,
                    "duration": 0.11875000000009095
                },
                {
                    "name": "A1",
                    "midi": 33,
                    "time": 670.8333333333494,
                    "velocity": 0.6141732283464567,
                    "duration": 0.08541666666656056
                },
                {
                    "name": "D4",
                    "midi": 62,
                    "time": 670.850000000016,
                    "velocity": 0.8582677165354331,
                    "duration": 0.0916666666665833
                },
                {
                    "name": "B3",
                    "midi": 59,
                    "time": 670.8604166666827,
                    "velocity": 0.8031496062992126,
                    "duration": 0.07499999999993179
                },
                {
                    "name": "E3",
                    "midi": 52,
                    "time": 670.8708333333493,
                    "velocity": 0.5826771653543307,
                    "duration": 0.1708333333333485
                },
                {
                    "name": "D#3",
                    "midi": 51,
                    "time": 671.012500000016,
                    "velocity": 0.6456692913385826,
                    "duration": 0.27708333333339397
                },
                {
                    "name": "D3",
                    "midi": 50,
                    "time": 671.2208333333493,
                    "velocity": 0.5511811023622047,
                    "duration": 0.16666666666662877
                },
                {
                    "name": "G3",
                    "midi": 55,
                    "time": 671.2416666666827,
                    "velocity": 0.5275590551181102,
                    "duration": 0.05833333333328028
                },
                {
                    "name": "C#3",
                    "midi": 49,
                    "time": 671.3708333333493,
                    "velocity": 0.6062992125984252,
                    "duration": 0.18541666666669698
                },
                {
                    "name": "C3",
                    "midi": 48,
                    "time": 671.568750000016,
                    "velocity": 0.5196850393700787,
                    "duration": 0.2020833333333485
                },
                {
                    "name": "G3",
                    "midi": 55,
                    "time": 671.5895833333494,
                    "velocity": 0.6929133858267716,
                    "duration": 0.07708333333334849
                },
                {
                    "name": "B2",
                    "midi": 47,
                    "time": 671.5979166666827,
                    "velocity": 0.5590551181102362,
                    "duration": 0.05000000000006821
                },
                {
                    "name": "B2",
                    "midi": 47,
                    "time": 671.7437500000161,
                    "velocity": 0.6220472440944882,
                    "duration": 0.11874999999997726
                },
                {
                    "name": "E3",
                    "midi": 52,
                    "time": 671.9229166666828,
                    "velocity": 0.5826771653543307,
                    "duration": 0.2333333333332348
                },
                {
                    "name": "A1",
                    "midi": 33,
                    "time": 671.9500000000161,
                    "velocity": 0.5984251968503937,
                    "duration": 0.06875000000002274
                },
                {
                    "name": "D4",
                    "midi": 62,
                    "time": 671.9666666666827,
                    "velocity": 0.7007874015748031,
                    "duration": 0.28125
                },
                {
                    "name": "B3",
                    "midi": 59,
                    "time": 671.9729166666827,
                    "velocity": 0.5984251968503937,
                    "duration": 0.2958333333333485
                },
                {
                    "name": "D#3",
                    "midi": 51,
                    "time": 672.0750000000161,
                    "velocity": 0.5669291338582677,
                    "duration": 0.30416666666667425
                },
                {
                    "name": "D3",
                    "midi": 50,
                    "time": 672.3270833333494,
                    "velocity": 0.49606299212598426,
                    "duration": 0.16666666666674246
                },
                {
                    "name": "E3",
                    "midi": 52,
                    "time": 672.3541666666827,
                    "velocity": 0.5590551181102362,
                    "duration": 0.08541666666678793
                },
                {
                    "name": "G3",
                    "midi": 55,
                    "time": 672.375000000016,
                    "velocity": 0.2992125984251969,
                    "duration": 0.0791666666667652
                },
                {
                    "name": "C#3",
                    "midi": 49,
                    "time": 672.4958333333494,
                    "velocity": 0.5748031496062992,
                    "duration": 0.21041666666667425
                },
                {
                    "name": "C3",
                    "midi": 48,
                    "time": 672.7229166666827,
                    "velocity": 0.44881889763779526,
                    "duration": 0.1729166666667652
                },
                {
                    "name": "B2",
                    "midi": 47,
                    "time": 672.7312500000161,
                    "velocity": 0.48031496062992124,
                    "duration": 0.2854166666667197
                },
                {
                    "name": "D#3",
                    "midi": 51,
                    "time": 672.7354166666828,
                    "velocity": 0.7559055118110236,
                    "duration": 0.2333333333333485
                },
                {
                    "name": "D4",
                    "midi": 62,
                    "time": 672.9270833333495,
                    "velocity": 0.5984251968503937,
                    "duration": 0.25625000000002274
                },
                {
                    "name": "B3",
                    "midi": 59,
                    "time": 673.1687500000162,
                    "velocity": 0.5984251968503937,
                    "duration": 0.30833333333339397
                },
                {
                    "name": "E3",
                    "midi": 52,
                    "time": 673.1687500000162,
                    "velocity": 0.3700787401574803,
                    "duration": 0.2833333333334167
                },
                {
                    "name": "A1",
                    "midi": 33,
                    "time": 673.1895833333496,
                    "velocity": 0.6456692913385826,
                    "duration": 0.12291666666669698
                },
                {
                    "name": "D#3",
                    "midi": 51,
                    "time": 673.3812500000163,
                    "velocity": 0.5118110236220472,
                    "duration": 0.19375000000002274
                },
                {
                    "name": "D3",
                    "midi": 50,
                    "time": 673.591666666683,
                    "velocity": 0.41732283464566927,
                    "duration": 0.18333333333339397
                },
                {
                    "name": "B2",
                    "midi": 47,
                    "time": 673.6083333333496,
                    "velocity": 0.5354330708661418,
                    "duration": 0.3000000000000682
                },
                {
                    "name": "G3",
                    "midi": 55,
                    "time": 673.6125000000163,
                    "velocity": 0.5354330708661418,
                    "duration": 0.2541666666667197
                },
                {
                    "name": "C#3",
                    "midi": 49,
                    "time": 673.772916666683,
                    "velocity": 0.49606299212598426,
                    "duration": 0.19375000000002274
                },
                {
                    "name": "C3",
                    "midi": 48,
                    "time": 673.9625000000163,
                    "velocity": 0.6692913385826772,
                    "duration": 0.15416666666669698
                },
                {
                    "name": "E3",
                    "midi": 52,
                    "time": 673.985416666683,
                    "velocity": 0.7165354330708661,
                    "duration": 0.15416666666669698
                },
                {
                    "name": "B2",
                    "midi": 47,
                    "time": 674.116666666683,
                    "velocity": 0.5275590551181102,
                    "duration": 0.15416666666669698
                },
                {
                    "name": "D4",
                    "midi": 62,
                    "time": 674.1291666666831,
                    "velocity": 0.7244094488188977,
                    "duration": 0.20000000000004547
                },
                {
                    "name": "E3",
                    "midi": 52,
                    "time": 674.3187500000164,
                    "velocity": 0.5196850393700787,
                    "duration": 0.18541666666681067
                },
                {
                    "name": "A1",
                    "midi": 33,
                    "time": 674.3250000000164,
                    "velocity": 0.6535433070866141,
                    "duration": 0.08333333333348492
                },
                {
                    "name": "B3",
                    "midi": 59,
                    "time": 674.3375000000165,
                    "velocity": 0.7559055118110236,
                    "duration": 0.2354166666667652
                },
                {
                    "name": "G3",
                    "midi": 55,
                    "time": 674.3416666666832,
                    "velocity": 0.6220472440944882,
                    "duration": 0.11666666666667425
                },
                {
                    "name": "D#3",
                    "midi": 51,
                    "time": 674.4895833333499,
                    "velocity": 0.5511811023622047,
                    "duration": 0.21041666666667425
                },
                {
                    "name": "D3",
                    "midi": 50,
                    "time": 674.6979166666832,
                    "velocity": 0.5354330708661418,
                    "duration": 0.1875
                },
                {
                    "name": "G3",
                    "midi": 55,
                    "time": 674.7145833333499,
                    "velocity": 0.6062992125984252,
                    "duration": 0.09166666666669698
                },
                {
                    "name": "C3",
                    "midi": 48,
                    "time": 674.7229166666832,
                    "velocity": 0.6377952755905512,
                    "duration": 0.24166666666667425
                },
                {
                    "name": "E3",
                    "midi": 52,
                    "time": 674.7291666666832,
                    "velocity": 0.5590551181102362,
                    "duration": 0.10208333333332575
                },
                {
                    "name": "C#3",
                    "midi": 49,
                    "time": 674.8729166666832,
                    "velocity": 0.6929133858267716,
                    "duration": 0.16041666666671972
                },
                {
                    "name": "C3",
                    "midi": 48,
                    "time": 675.0520833333499,
                    "velocity": 0.4881889763779528,
                    "duration": 0.13541666666662877
                },
                {
                    "name": "F3",
                    "midi": 53,
                    "time": 675.0895833333499,
                    "velocity": 0.6771653543307087,
                    "duration": 0.18958333333330302
                },
                {
                    "name": "G#3",
                    "midi": 56,
                    "time": 675.0979166666832,
                    "velocity": 0.7952755905511811,
                    "duration": 0.049999999999954525
                },
                {
                    "name": "C#3",
                    "midi": 49,
                    "time": 675.1000000000165,
                    "velocity": 0.6535433070866141,
                    "duration": 0.04791666666665151
                },
                {
                    "name": "B2",
                    "midi": 47,
                    "time": 675.2000000000165,
                    "velocity": 0.6299212598425197,
                    "duration": 0.22500000000002274
                },
                {
                    "name": "D4",
                    "midi": 62,
                    "time": 675.2479166666832,
                    "velocity": 0.6929133858267716,
                    "duration": 0.1875
                },
                {
                    "name": "F#3",
                    "midi": 54,
                    "time": 675.4166666666832,
                    "velocity": 0.5669291338582677,
                    "duration": 0.21041666666656056
                },
                {
                    "name": "A1",
                    "midi": 33,
                    "time": 675.4770833333498,
                    "velocity": 0.7007874015748031,
                    "duration": 0.08333333333325754
                },
                {
                    "name": "B3",
                    "midi": 59,
                    "time": 675.4791666666831,
                    "velocity": 0.7244094488188977,
                    "duration": 0.22916666666662877
                },
                {
                    "name": "F3",
                    "midi": 53,
                    "time": 675.6208333333498,
                    "velocity": 0.5590551181102362,
                    "duration": 0.22916666666662877
                },
                {
                    "name": "E3",
                    "midi": 52,
                    "time": 675.8416666666831,
                    "velocity": 0.5354330708661418,
                    "duration": 0.1875
                },
                {
                    "name": "A3",
                    "midi": 57,
                    "time": 675.8729166666831,
                    "velocity": 0.5984251968503937,
                    "duration": 0.310416666666697
                },
                {
                    "name": "D#3",
                    "midi": 51,
                    "time": 676.0250000000163,
                    "velocity": 0.5275590551181102,
                    "duration": 0.17083333333346218
                },
                {
                    "name": "D3",
                    "midi": 50,
                    "time": 676.2312500000165,
                    "velocity": 0.44881889763779526,
                    "duration": 0.1875
                },
                {
                    "name": "F#3",
                    "midi": 54,
                    "time": 676.2500000000165,
                    "velocity": 0.7480314960629921,
                    "duration": 0.15416666666669698
                },
                {
                    "name": "D4",
                    "midi": 62,
                    "time": 676.3687500000165,
                    "velocity": 0.6771653543307087,
                    "duration": 0.2645833333334622
                },
                {
                    "name": "C#3",
                    "midi": 49,
                    "time": 676.4145833333498,
                    "velocity": 0.5511811023622047,
                    "duration": 0.18333333333339397
                },
                {
                    "name": "A1",
                    "midi": 33,
                    "time": 676.5979166666832,
                    "velocity": 0.5748031496062992,
                    "duration": 0.08749999999997726
                },
                {
                    "name": "F#3",
                    "midi": 54,
                    "time": 676.6104166666832,
                    "velocity": 0.5118110236220472,
                    "duration": 0.1729166666666515
                },
                {
                    "name": "B3",
                    "midi": 59,
                    "time": 676.6250000000166,
                    "velocity": 0.6141732283464567,
                    "duration": 0.26041666666662877
                },
                {
                    "name": "F3",
                    "midi": 53,
                    "time": 676.7854166666832,
                    "velocity": 0.4330708661417323,
                    "duration": 0.23958333333337123
                },
                {
                    "name": "A3",
                    "midi": 57,
                    "time": 677.0229166666833,
                    "velocity": 0.4251968503937008,
                    "duration": 0.11874999999997726
                },
                {
                    "name": "E3",
                    "midi": 52,
                    "time": 677.04583333335,
                    "velocity": 0.33070866141732286,
                    "duration": 0.22500000000002274
                },
                {
                    "name": "D#3",
                    "midi": 51,
                    "time": 677.23333333335,
                    "velocity": 0.28346456692913385,
                    "duration": 0.21041666666667425
                },
                {
                    "name": "D3",
                    "midi": 50,
                    "time": 677.48333333335,
                    "velocity": 0.2677165354330709,
                    "duration": 0.31458333333318933
                },
                {
                    "name": "F#3",
                    "midi": 54,
                    "time": 677.5020833333499,
                    "velocity": 0.5118110236220472,
                    "duration": 0.11458333333325754
                },
                {
                    "name": "A3",
                    "midi": 57,
                    "time": 677.5270833333499,
                    "velocity": 0.5196850393700787,
                    "duration": 0.21249999999997726
                },
                {
                    "name": "C#3",
                    "midi": 49,
                    "time": 677.7541666666832,
                    "velocity": 0.2992125984251969,
                    "duration": 0.25833333333321207
                },
                {
                    "name": "F#4",
                    "midi": 66,
                    "time": 677.7812500000165,
                    "velocity": 0.5275590551181102,
                    "duration": 0.12708333333330302
                },
                {
                    "name": "A3",
                    "midi": 57,
                    "time": 678.0666666666831,
                    "velocity": 0.2677165354330709,
                    "duration": 0.4312499999998636
                },
                {
                    "name": "B1",
                    "midi": 35,
                    "time": 678.1437500000164,
                    "velocity": 0.4566929133858268,
                    "duration": 0.18958333333318933
                },
                {
                    "name": "G#4",
                    "midi": 68,
                    "time": 678.1708333333497,
                    "velocity": 0.5275590551181102,
                    "duration": 0.3749999999998863
                },
                {
                    "name": "F4",
                    "midi": 65,
                    "time": 678.2000000000163,
                    "velocity": 0.5118110236220472,
                    "duration": 0.4041666666665833
                },
                {
                    "name": "G#3",
                    "midi": 56,
                    "time": 678.4541666666829,
                    "velocity": 0.3858267716535433,
                    "duration": 0.24791666666669698
                },
                {
                    "name": "G3",
                    "midi": 55,
                    "time": 678.7020833333496,
                    "velocity": 0.4409448818897638,
                    "duration": 0.22708333333332575
                },
                {
                    "name": "C#3",
                    "midi": 49,
                    "time": 678.7125000000162,
                    "velocity": 0.4330708661417323,
                    "duration": 0.11041666666665151
                },
                {
                    "name": "F3",
                    "midi": 53,
                    "time": 678.7312500000162,
                    "velocity": 0.33070866141732286,
                    "duration": 0.06666666666671972
                },
                {
                    "name": "F#3",
                    "midi": 54,
                    "time": 678.9208333333496,
                    "velocity": 0.4330708661417323,
                    "duration": 0.17916666666667425
                },
                {
                    "name": "F3",
                    "midi": 53,
                    "time": 679.1166666666829,
                    "velocity": 0.5118110236220472,
                    "duration": 0.2187499999998863
                },
                {
                    "name": "F#3",
                    "midi": 54,
                    "time": 679.1375000000163,
                    "velocity": 0.5354330708661418,
                    "duration": 0.09583333333330302
                },
                {
                    "name": "A3",
                    "midi": 57,
                    "time": 679.1520833333497,
                    "velocity": 0.49606299212598426,
                    "duration": 0.1833333333331666
                },
                {
                    "name": "C#3",
                    "midi": 49,
                    "time": 679.2833333333496,
                    "velocity": 0.41732283464566927,
                    "duration": 0.2937499999999318
                },
                {
                    "name": "F#4",
                    "midi": 66,
                    "time": 679.3104166666828,
                    "velocity": 0.6850393700787402,
                    "duration": 0.19375000000002274
                },
                {
                    "name": "C#4",
                    "midi": 61,
                    "time": 679.3270833333495,
                    "velocity": 0.6850393700787402,
                    "duration": 0.16875000000004547
                },
                {
                    "name": "A3",
                    "midi": 57,
                    "time": 679.5270833333495,
                    "velocity": 0.5118110236220472,
                    "duration": 0.21249999999986358
                },
                {
                    "name": "C2",
                    "midi": 36,
                    "time": 679.5729166666829,
                    "velocity": 0.6062992125984252,
                    "duration": 0.11666666666656056
                },
                {
                    "name": "F4",
                    "midi": 65,
                    "time": 679.5750000000162,
                    "velocity": 0.5669291338582677,
                    "duration": 0.3270833333332348
                },
                {
                    "name": "D4",
                    "midi": 62,
                    "time": 679.5875000000161,
                    "velocity": 0.6299212598425197,
                    "duration": 0.38125000000002274
                },
                {
                    "name": "G#3",
                    "midi": 56,
                    "time": 679.7291666666828,
                    "velocity": 0.49606299212598426,
                    "duration": 0.2541666666667197
                },
                {
                    "name": "G3",
                    "midi": 55,
                    "time": 679.9833333333495,
                    "velocity": 0.47244094488188976,
                    "duration": 0.2020833333333485
                },
                {
                    "name": "F3",
                    "midi": 53,
                    "time": 680.0041666666829,
                    "velocity": 0.5354330708661418,
                    "duration": 0.054166666666674246
                },
                {
                    "name": "C3",
                    "midi": 48,
                    "time": 680.0041666666829,
                    "velocity": 0.47244094488188976,
                    "duration": 0.07083333333332575
                },
                {
                    "name": "F#3",
                    "midi": 54,
                    "time": 680.1833333333495,
                    "velocity": 0.4409448818897638,
                    "duration": 0.2770833333332803
                },
                {
                    "name": "A3",
                    "midi": 57,
                    "time": 680.3854166666829,
                    "velocity": 0.6692913385826772,
                    "duration": 0.13541666666662877
                },
                {
                    "name": "F3",
                    "midi": 53,
                    "time": 680.3958333333495,
                    "velocity": 0.4330708661417323,
                    "duration": 0.20000000000004547
                },
                {
                    "name": "D4",
                    "midi": 62,
                    "time": 680.5458333333495,
                    "velocity": 0.6614173228346457,
                    "duration": 0.0791666666667652
                },
                {
                    "name": "F#4",
                    "midi": 66,
                    "time": 680.5520833333495,
                    "velocity": 0.7637795275590551,
                    "duration": 0.0958333333334167
                },
                {
                    "name": "D3",
                    "midi": 50,
                    "time": 680.5875000000162,
                    "velocity": 0.44881889763779526,
                    "duration": 0.2791666666665833
                },
                {
                    "name": "C#2",
                    "midi": 37,
                    "time": 680.7541666666829,
                    "velocity": 0.6850393700787402,
                    "duration": 0.08749999999997726
                },
                {
                    "name": "A4",
                    "midi": 69,
                    "time": 680.7875000000162,
                    "velocity": 0.6929133858267716,
                    "duration": 0.30416666666667425
                },
                {
                    "name": "A3",
                    "midi": 57,
                    "time": 680.7895833333495,
                    "velocity": 0.49606299212598426,
                    "duration": 0.1895833333334167
                },
                {
                    "name": "F4",
                    "midi": 65,
                    "time": 680.8041666666828,
                    "velocity": 0.7007874015748031,
                    "duration": 0.3562500000000455
                },
                {
                    "name": "G#3",
                    "midi": 56,
                    "time": 680.9729166666829,
                    "velocity": 0.4881889763779528,
                    "duration": 0.22083333333330302
                },
                {
                    "name": "C#3",
                    "midi": 49,
                    "time": 681.1541666666828,
                    "velocity": 0.6614173228346457,
                    "duration": 0.4249999999999545
                },
                {
                    "name": "F3",
                    "midi": 53,
                    "time": 681.1687500000162,
                    "velocity": 0.5748031496062992,
                    "duration": 0.25625000000002274
                },
                {
                    "name": "G3",
                    "midi": 55,
                    "time": 681.2000000000162,
                    "velocity": 0.4094488188976378,
                    "duration": 0.17916666666667425
                },
                {
                    "name": "F#3",
                    "midi": 54,
                    "time": 681.3770833333496,
                    "velocity": 0.44881889763779526,
                    "duration": 0.17916666666656056
                },
                {
                    "name": "A3",
                    "midi": 57,
                    "time": 681.5291666666828,
                    "velocity": 0.6771653543307087,
                    "duration": 0.049999999999954525
                },
                {
                    "name": "C#4",
                    "midi": 61,
                    "time": 681.5312500000161,
                    "velocity": 0.7559055118110236,
                    "duration": 0.05833333333328028
                },
                {
                    "name": "F3",
                    "midi": 53,
                    "time": 681.5500000000161,
                    "velocity": 0.4094488188976378,
                    "duration": 0.18958333333330302
                },
                {
                    "name": "D3",
                    "midi": 50,
                    "time": 681.7312500000161,
                    "velocity": 0.5196850393700787,
                    "duration": 0.19791666666674246
                },
                {
                    "name": "A3",
                    "midi": 57,
                    "time": 681.9250000000161,
                    "velocity": 0.48031496062992124,
                    "duration": 0.2354166666667652
                },
                {
                    "name": "D2",
                    "midi": 38,
                    "time": 681.9312500000161,
                    "velocity": 0.5354330708661418,
                    "duration": 0.07291666666674246
                },
                {
                    "name": "C#4",
                    "midi": 61,
                    "time": 681.9520833333495,
                    "velocity": 0.6614173228346457,
                    "duration": 0.279166666666697
                },
                {
                    "name": "G#3",
                    "midi": 56,
                    "time": 682.1125000000162,
                    "velocity": 0.5118110236220472,
                    "duration": 0.2333333333333485
                },
                {
                    "name": "F3",
                    "midi": 53,
                    "time": 682.3229166666829,
                    "velocity": 0.5196850393700787,
                    "duration": 0.30624999999997726
                },
                {
                    "name": "D3",
                    "midi": 50,
                    "time": 682.3416666666828,
                    "velocity": 0.5118110236220472,
                    "duration": 0.37083333333339397
                },
                {
                    "name": "G3",
                    "midi": 55,
                    "time": 682.3520833333496,
                    "velocity": 0.4645669291338583,
                    "duration": 0.19791666666662877
                },
                {
                    "name": "F#3",
                    "midi": 54,
                    "time": 682.5333333333496,
                    "velocity": 0.5354330708661418,
                    "duration": 0.13125000000002274
                },
                {
                    "name": "C#4",
                    "midi": 61,
                    "time": 682.7187500000163,
                    "velocity": 0.7007874015748031,
                    "duration": 0.1875
                },
                {
                    "name": "A3",
                    "midi": 57,
                    "time": 682.7250000000163,
                    "velocity": 0.4881889763779528,
                    "duration": 0.07916666666665151
                },
                {
                    "name": "F#3",
                    "midi": 54,
                    "time": 682.7250000000163,
                    "velocity": 0.6220472440944882,
                    "duration": 0.07708333333334849
                },
                {
                    "name": "F3",
                    "midi": 53,
                    "time": 682.7354166666829,
                    "velocity": 0.3858267716535433,
                    "duration": 0.20833333333337123
                },
                {
                    "name": "A4",
                    "midi": 69,
                    "time": 682.8625000000162,
                    "velocity": 0.6692913385826772,
                    "duration": 0.1583333333334167
                },
                {
                    "name": "F#4",
                    "midi": 66,
                    "time": 682.8687500000162,
                    "velocity": 0.7795275590551181,
                    "duration": 0.16875000000004547
                },
                {
                    "name": "D3",
                    "midi": 50,
                    "time": 682.9291666666829,
                    "velocity": 0.4330708661417323,
                    "duration": 0.22916666666662877
                },
                {
                    "name": "C#4",
                    "midi": 61,
                    "time": 683.1145833333496,
                    "velocity": 0.6614173228346457,
                    "duration": 0.2958333333333485
                },
                {
                    "name": "D#2",
                    "midi": 39,
                    "time": 683.1166666666829,
                    "velocity": 0.6771653543307087,
                    "duration": 0.15416666666669698
                },
                {
                    "name": "B4",
                    "midi": 71,
                    "time": 683.1583333333496,
                    "velocity": 0.6850393700787402,
                    "duration": 0.27083333333337123
                },
                {
                    "name": "G#4",
                    "midi": 68,
                    "time": 683.1645833333496,
                    "velocity": 0.7244094488188977,
                    "duration": 0.39791666666667425
                },
                {
                    "name": "C4",
                    "midi": 60,
                    "time": 683.3041666666829,
                    "velocity": 0.5039370078740157,
                    "duration": 0.2041666666666515
                },
                {
                    "name": "B3",
                    "midi": 59,
                    "time": 683.5520833333496,
                    "velocity": 0.4566929133858268,
                    "duration": 0.16041666666649235
                },
                {
                    "name": "D#3",
                    "midi": 51,
                    "time": 683.6208333333495,
                    "velocity": 0.5511811023622047,
                    "duration": 0.14166666666653782
                },
                {
                    "name": "C4",
                    "midi": 60,
                    "time": 683.6270833333496,
                    "velocity": 0.5590551181102362,
                    "duration": 0.05833333333328028
                },
                {
                    "name": "A#3",
                    "midi": 58,
                    "time": 683.7395833333494,
                    "velocity": 0.48031496062992124,
                    "duration": 0.2020833333333485
                },
                {
                    "name": "A3",
                    "midi": 57,
                    "time": 683.9500000000161,
                    "velocity": 0.4330708661417323,
                    "duration": 0.2333333333332348
                },
                {
                    "name": "C#4",
                    "midi": 61,
                    "time": 683.968750000016,
                    "velocity": 0.8267716535433071,
                    "duration": 0.15833333333330302
                },
                {
                    "name": "A4",
                    "midi": 69,
                    "time": 684.1083333333494,
                    "velocity": 0.6771653543307087,
                    "duration": 0.15208333333328028
                },
                {
                    "name": "F#4",
                    "midi": 66,
                    "time": 684.125000000016,
                    "velocity": 0.6377952755905512,
                    "duration": 0.05833333333328028
                },
                {
                    "name": "F#3",
                    "midi": 54,
                    "time": 684.1354166666827,
                    "velocity": 0.6456692913385826,
                    "duration": 0.1708333333333485
                },
                {
                    "name": "E2",
                    "midi": 40,
                    "time": 684.3166666666826,
                    "velocity": 0.7401574803149606,
                    "duration": 0.07916666666665151
                },
                {
                    "name": "C#4",
                    "midi": 61,
                    "time": 684.3208333333494,
                    "velocity": 0.6771653543307087,
                    "duration": 0.1708333333332348
                },
                {
                    "name": "G#4",
                    "midi": 68,
                    "time": 684.3291666666827,
                    "velocity": 0.7952755905511811,
                    "duration": 0.13124999999990905
                },
                {
                    "name": "F4",
                    "midi": 65,
                    "time": 684.3479166666826,
                    "velocity": 0.6692913385826772,
                    "duration": 0.06458333333330302
                },
                {
                    "name": "C4",
                    "midi": 60,
                    "time": 684.512500000016,
                    "velocity": 0.5590551181102362,
                    "duration": 0.2020833333333485
                },
                {
                    "name": "B3",
                    "midi": 59,
                    "time": 684.712500000016,
                    "velocity": 0.5984251968503937,
                    "duration": 0.2041666666667652
                },
                {
                    "name": "C4",
                    "midi": 60,
                    "time": 684.7604166666827,
                    "velocity": 0.6929133858267716,
                    "duration": 0.2208333333334167
                },
                {
                    "name": "E3",
                    "midi": 52,
                    "time": 684.7645833333494,
                    "velocity": 0.6141732283464567,
                    "duration": 0.28750000000002274
                },
                {
                    "name": "A#3",
                    "midi": 58,
                    "time": 684.9104166666827,
                    "velocity": 0.6377952755905512,
                    "duration": 0.1708333333333485
                },
                {
                    "name": "A3",
                    "midi": 57,
                    "time": 685.1229166666827,
                    "velocity": 0.4409448818897638,
                    "duration": 0.2333333333332348
                },
                {
                    "name": "C#4",
                    "midi": 61,
                    "time": 685.1541666666827,
                    "velocity": 0.7637795275590551,
                    "duration": 0.19166666666660603
                },
                {
                    "name": "F#3",
                    "midi": 54,
                    "time": 685.3145833333493,
                    "velocity": 0.5905511811023622,
                    "duration": 0.18541666666669698
                },
                {
                    "name": "A4",
                    "midi": 69,
                    "time": 685.3166666666826,
                    "velocity": 0.6929133858267716,
                    "duration": 0.08958333333339397
                },
                {
                    "name": "F#4",
                    "midi": 66,
                    "time": 685.325000000016,
                    "velocity": 0.6929133858267716,
                    "duration": 0.043750000000045475
                },
                {
                    "name": "C#4",
                    "midi": 61,
                    "time": 685.5354166666827,
                    "velocity": 0.6141732283464567,
                    "duration": 0.19583333333343944
                },
                {
                    "name": "F2",
                    "midi": 41,
                    "time": 685.5645833333494,
                    "velocity": 0.6850393700787402,
                    "duration": 0.13958333333346218
                },
                {
                    "name": "C#5",
                    "midi": 73,
                    "time": 685.6250000000161,
                    "velocity": 0.7952755905511811,
                    "duration": 0.32083333333332575
                },
                {
                    "name": "A4",
                    "midi": 69,
                    "time": 685.6375000000162,
                    "velocity": 0.5984251968503937,
                    "duration": 0.25
                },
                {
                    "name": "C4",
                    "midi": 60,
                    "time": 685.7458333333495,
                    "velocity": 0.47244094488188976,
                    "duration": 0.24374999999997726
                },
                {
                    "name": "B3",
                    "midi": 59,
                    "time": 685.9770833333495,
                    "velocity": 0.48031496062992124,
                    "duration": 0.19583333333332575
                },
                {
                    "name": "D4",
                    "midi": 62,
                    "time": 686.0375000000162,
                    "velocity": 0.7244094488188977,
                    "duration": 0.054166666666674246
                },
                {
                    "name": "F3",
                    "midi": 53,
                    "time": 686.0458333333495,
                    "velocity": 0.5748031496062992,
                    "duration": 0.10416666666662877
                },
                {
                    "name": "A#3",
                    "midi": 58,
                    "time": 686.1854166666828,
                    "velocity": 0.31496062992125984,
                    "duration": 0.25833333333332575
                },
                {
                    "name": "C#4",
                    "midi": 61,
                    "time": 686.4041666666828,
                    "velocity": 0.7086614173228346,
                    "duration": 0.039583333333325754
                },
                {
                    "name": "D#4",
                    "midi": 63,
                    "time": 686.4041666666828,
                    "velocity": 0.7322834645669292,
                    "duration": 0.06041666666669698
                },
                {
                    "name": "A3",
                    "midi": 57,
                    "time": 686.4062500000161,
                    "velocity": 0.5984251968503937,
                    "duration": 0.2375000000000682
                },
                {
                    "name": "F3",
                    "midi": 53,
                    "time": 686.6312500000162,
                    "velocity": 0.14960629921259844,
                    "duration": 0.32083333333332575
                },
                {
                    "name": "D#4",
                    "midi": 63,
                    "time": 686.8041666666829,
                    "velocity": 0.7559055118110236,
                    "duration": 0.3687499999998636
                },
                {
                    "name": "F#2",
                    "midi": 42,
                    "time": 686.8062500000162,
                    "velocity": 0.5433070866141733,
                    "duration": 0.5041666666667197
                },
                {
                    "name": "C#4",
                    "midi": 61,
                    "time": 686.8145833333496,
                    "velocity": 0.7007874015748031,
                    "duration": 0.2979166666665378
                },
                {
                    "name": "A3",
                    "midi": 57,
                    "time": 686.8166666666829,
                    "velocity": 0.5669291338582677,
                    "duration": 0.22291666666660603
                },
                {
                    "name": "C4",
                    "midi": 60,
                    "time": 687.0208333333495,
                    "velocity": 0.5118110236220472,
                    "duration": 0.1875
                },
                {
                    "name": "B3",
                    "midi": 59,
                    "time": 687.2208333333496,
                    "velocity": 0.4094488188976378,
                    "duration": 0.22500000000002274
                },
                {
                    "name": "F#3",
                    "midi": 54,
                    "time": 687.2250000000163,
                    "velocity": 0.6929133858267716,
                    "duration": 0.07500000000004547
                },
                {
                    "name": "A#3",
                    "midi": 58,
                    "time": 687.404166666683,
                    "velocity": 0.44881889763779526,
                    "duration": 0.25624999999990905
                },
                {
                    "name": "A3",
                    "midi": 57,
                    "time": 687.6583333333496,
                    "velocity": 0.28346456692913385,
                    "duration": 0.28958333333321207
                },
                {
                    "name": "D#4",
                    "midi": 63,
                    "time": 687.6750000000162,
                    "velocity": 0.6929133858267716,
                    "duration": 0.0770833333332348
                },
                {
                    "name": "C#4",
                    "midi": 61,
                    "time": 687.6770833333495,
                    "velocity": 0.6614173228346457,
                    "duration": 0.07291666666662877
                },
                {
                    "name": "F#3",
                    "midi": 54,
                    "time": 687.9000000000161,
                    "velocity": 0.3543307086614173,
                    "duration": 0.6791666666666742
                },
                {
                    "name": "C#5",
                    "midi": 73,
                    "time": 687.975000000016,
                    "velocity": 0.7086614173228346,
                    "duration": 0.12708333333330302
                },
                {
                    "name": "A4",
                    "midi": 69,
                    "time": 687.9895833333494,
                    "velocity": 0.5511811023622047,
                    "duration": 0.08541666666667425
                },
                {
                    "name": "G2",
                    "midi": 43,
                    "time": 688.2937500000161,
                    "velocity": 0.48031496062992124,
                    "duration": 0.6354166666668561
                },
                {
                    "name": "E4",
                    "midi": 64,
                    "time": 688.318750000016,
                    "velocity": 0.2992125984251969,
                    "duration": 0.5312500000001137
                },
                {
                    "name": "C5",
                    "midi": 72,
                    "time": 688.381250000016,
                    "velocity": 0.5748031496062992,
                    "duration": 0.5458333333335759
                },
                {
                    "name": "A4",
                    "midi": 69,
                    "time": 688.3875000000161,
                    "velocity": 0.44881889763779526,
                    "duration": 0.5916666666668107
                },
                {
                    "name": "D#4",
                    "midi": 63,
                    "time": 688.6291666666827,
                    "velocity": 0.44881889763779526,
                    "duration": 0.29375000000015916
                },
                {
                    "name": "C#4",
                    "midi": 61,
                    "time": 688.9020833333495,
                    "velocity": 0.44881889763779526,
                    "duration": 0.22083333333330302
                },
                {
                    "name": "G3",
                    "midi": 55,
                    "time": 688.9166666666829,
                    "velocity": 0.49606299212598426,
                    "duration": 0.08958333333328028
                },
                {
                    "name": "C4",
                    "midi": 60,
                    "time": 689.1250000000161,
                    "velocity": 0.3464566929133858,
                    "duration": 0.28750000000002274
                },
                {
                    "name": "E4",
                    "midi": 64,
                    "time": 689.3250000000162,
                    "velocity": 0.5511811023622047,
                    "duration": 0.25624999999990905
                },
                {
                    "name": "A3",
                    "midi": 57,
                    "time": 689.3270833333495,
                    "velocity": 0.2755905511811024,
                    "duration": 0.22708333333332575
                },
                {
                    "name": "C#4",
                    "midi": 61,
                    "time": 689.3395833333495,
                    "velocity": 0.5118110236220472,
                    "duration": 0.04166666666662877
                },
                {
                    "name": "C#5",
                    "midi": 73,
                    "time": 689.4979166666828,
                    "velocity": 0.7637795275590551,
                    "duration": 0.16249999999990905
                },
                {
                    "name": "A4",
                    "midi": 69,
                    "time": 689.5062500000162,
                    "velocity": 0.5590551181102362,
                    "duration": 0.1708333333332348
                },
                {
                    "name": "G3",
                    "midi": 55,
                    "time": 689.5333333333494,
                    "velocity": 0.3228346456692913,
                    "duration": 0.3249999999999318
                },
                {
                    "name": "G#2",
                    "midi": 44,
                    "time": 689.718750000016,
                    "velocity": 0.5984251968503937,
                    "duration": 0.39791666666656056
                },
                {
                    "name": "C5",
                    "midi": 72,
                    "time": 689.743750000016,
                    "velocity": 0.7244094488188977,
                    "duration": 0.4520833333332348
                },
                {
                    "name": "A4",
                    "midi": 69,
                    "time": 689.7604166666827,
                    "velocity": 0.5039370078740157,
                    "duration": 0.41041666666660603
                },
                {
                    "name": "F4",
                    "midi": 65,
                    "time": 689.7666666666827,
                    "velocity": 0.4645669291338583,
                    "duration": 0.3708333333332803
                },
                {
                    "name": "E4",
                    "midi": 64,
                    "time": 689.9645833333493,
                    "velocity": 0.3779527559055118,
                    "duration": 0.24166666666656056
                },
                {
                    "name": "G#3",
                    "midi": 56,
                    "time": 690.1250000000159,
                    "velocity": 0.7795275590551181,
                    "duration": 0.06041666666669698
                },
                {
                    "name": "D#4",
                    "midi": 63,
                    "time": 690.1708333333493,
                    "velocity": 0.6062992125984252,
                    "duration": 0.18333333333328028
                },
                {
                    "name": "D4",
                    "midi": 62,
                    "time": 690.3500000000158,
                    "velocity": 0.49606299212598426,
                    "duration": 0.21458333333339397
                },
                {
                    "name": "C#4",
                    "midi": 61,
                    "time": 690.4916666666826,
                    "velocity": 0.7874015748031497,
                    "duration": 0.20833333333325754
                },
                {
                    "name": "F4",
                    "midi": 65,
                    "time": 690.5187500000159,
                    "velocity": 0.7716535433070866,
                    "duration": 0.32083333333332575
                },
                {
                    "name": "C#5",
                    "midi": 73,
                    "time": 690.6708333333493,
                    "velocity": 0.8582677165354331,
                    "duration": 0.22083333333330302
                },
                {
                    "name": "A#4",
                    "midi": 70,
                    "time": 690.6812500000159,
                    "velocity": 0.7480314960629921,
                    "duration": 0.1875
                },
                {
                    "name": "G#3",
                    "midi": 56,
                    "time": 690.7312500000158,
                    "velocity": 0.5039370078740157,
                    "duration": 0.29166666666674246
                },
                {
                    "name": "G#1",
                    "midi": 32,
                    "time": 690.9354166666826,
                    "velocity": 0.6929133858267716,
                    "duration": 0.05416666666656056
                },
                {
                    "name": "A4",
                    "midi": 69,
                    "time": 690.9375000000159,
                    "velocity": 0.84251968503937,
                    "duration": 0.47916666666674246
                },
                {
                    "name": "F#4",
                    "midi": 66,
                    "time": 690.9375000000159,
                    "velocity": 0.6614173228346457,
                    "duration": 0.21458333333339397
                },
                {
                    "name": "G#2",
                    "midi": 44,
                    "time": 690.9395833333492,
                    "velocity": 0.7007874015748031,
                    "duration": 0.07500000000004547
                },
                {
                    "name": "F4",
                    "midi": 65,
                    "time": 690.9666666666825,
                    "velocity": 0.5669291338582677,
                    "duration": 0.6916666666668334
                },
                {
                    "name": "E4",
                    "midi": 64,
                    "time": 691.3187500000159,
                    "velocity": 0.5354330708661418,
                    "duration": 0.21041666666667425
                },
                {
                    "name": "A3",
                    "midi": 57,
                    "time": 691.3354166666826,
                    "velocity": 0.7637795275590551,
                    "duration": 0.07708333333334849
                },
                {
                    "name": "A2",
                    "midi": 45,
                    "time": 691.3375000000159,
                    "velocity": 0.7716535433070866,
                    "duration": 0.10625000000004547
                },
                {
                    "name": "D#4",
                    "midi": 63,
                    "time": 691.5145833333493,
                    "velocity": 0.5039370078740157,
                    "duration": 0.25
                },
                {
                    "name": "D3",
                    "midi": 50,
                    "time": 691.6979166666827,
                    "velocity": 0.7795275590551181,
                    "duration": 0.04166666666662877
                },
                {
                    "name": "A4",
                    "midi": 69,
                    "time": 691.7083333333493,
                    "velocity": 0.7952755905511811,
                    "duration": 0.03750000000002274
                },
                {
                    "name": "C5",
                    "midi": 72,
                    "time": 691.7145833333493,
                    "velocity": 0.7401574803149606,
                    "duration": 0.07499999999993179
                },
                {
                    "name": "D4",
                    "midi": 62,
                    "time": 691.731250000016,
                    "velocity": 0.4645669291338583,
                    "duration": 0.13124999999990905
                },
                {
                    "name": "A3",
                    "midi": 57,
                    "time": 691.8895833333492,
                    "velocity": 0.4645669291338583,
                    "duration": 0.22500000000002274
                },
                {
                    "name": "F#4",
                    "midi": 66,
                    "time": 692.1083333333492,
                    "velocity": 0.6929133858267716,
                    "duration": 0.22916666666662877
                },
                {
                    "name": "G#1",
                    "midi": 32,
                    "time": 692.1145833333492,
                    "velocity": 0.6692913385826772,
                    "duration": 0.07291666666662877
                },
                {
                    "name": "G#2",
                    "midi": 44,
                    "time": 692.1333333333491,
                    "velocity": 0.7874015748031497,
                    "duration": 0.07291666666662877
                },
                {
                    "name": "C5",
                    "midi": 72,
                    "time": 692.1500000000158,
                    "velocity": 0.9448818897637795,
                    "duration": 0.38333333333321207
                },
                {
                    "name": "A4",
                    "midi": 69,
                    "time": 692.1562500000158,
                    "velocity": 0.84251968503937,
                    "duration": 0.36458333333325754
                },
                {
                    "name": "F4",
                    "midi": 65,
                    "time": 692.3145833333491,
                    "velocity": 0.5905511811023622,
                    "duration": 0.2187499999998863
                },
                {
                    "name": "E4",
                    "midi": 64,
                    "time": 692.5229166666824,
                    "velocity": 0.5354330708661418,
                    "duration": 0.28541666666660603
                },
                {
                    "name": "A#2",
                    "midi": 46,
                    "time": 692.5729166666823,
                    "velocity": 0.8346456692913385,
                    "duration": 0.12708333333330302
                },
                {
                    "name": "A#3",
                    "midi": 58,
                    "time": 692.5729166666823,
                    "velocity": 0.8976377952755905,
                    "duration": 0.09583333333330302
                },
                {
                    "name": "D#4",
                    "midi": 63,
                    "time": 692.7062500000156,
                    "velocity": 0.6299212598425197,
                    "duration": 0.3250000000000455
                },
                {
                    "name": "D4",
                    "midi": 62,
                    "time": 692.958333333349,
                    "velocity": 0.6456692913385826,
                    "duration": 0.13333333333343944
                },
                {
                    "name": "F#4",
                    "midi": 66,
                    "time": 692.9687500000156,
                    "velocity": 0.7007874015748031,
                    "duration": 0.06666666666683341
                },
                {
                    "name": "D#3",
                    "midi": 51,
                    "time": 692.9687500000156,
                    "velocity": 0.6299212598425197,
                    "duration": 0.033333333333416704
                },
                {
                    "name": "A#4",
                    "midi": 70,
                    "time": 692.9812500000156,
                    "velocity": 0.7244094488188977,
                    "duration": 0.10416666666674246
                },
                {
                    "name": "F#5",
                    "midi": 78,
                    "time": 693.1104166666823,
                    "velocity": 0.8110236220472441,
                    "duration": 0.10208333333332575
                },
                {
                    "name": "A#3",
                    "midi": 58,
                    "time": 693.139583333349,
                    "velocity": 0.6062992125984252,
                    "duration": 0.2937500000000455
                },
                {
                    "name": "G#1",
                    "midi": 32,
                    "time": 693.320833333349,
                    "velocity": 0.7244094488188977,
                    "duration": 0.06666666666671972
                },
                {
                    "name": "G#2",
                    "midi": 44,
                    "time": 693.339583333349,
                    "velocity": 0.8976377952755905,
                    "duration": 0.07708333333346218
                },
                {
                    "name": "G#5",
                    "midi": 80,
                    "time": 693.3437500000157,
                    "velocity": 0.8503937007874016,
                    "duration": 0.4437500000001364
                },
                {
                    "name": "E5",
                    "midi": 76,
                    "time": 693.358333333349,
                    "velocity": 0.7716535433070866,
                    "duration": 0.4708333333335304
                },
                {
                    "name": "G#4",
                    "midi": 68,
                    "time": 693.3666666666824,
                    "velocity": 0.6929133858267716,
                    "duration": 0.36458333333337123
                },
                {
                    "name": "G4",
                    "midi": 67,
                    "time": 693.5479166666825,
                    "velocity": 0.5196850393700787,
                    "duration": 0.24583333333339397
                },
                {
                    "name": "F#4",
                    "midi": 66,
                    "time": 693.7437500000158,
                    "velocity": 0.6299212598425197,
                    "duration": 0.20208333333346218
                },
                {
                    "name": "B3",
                    "midi": 59,
                    "time": 693.7520833333491,
                    "velocity": 0.8976377952755905,
                    "duration": 0.2500000000001137
                },
                {
                    "name": "B2",
                    "midi": 47,
                    "time": 693.7562500000158,
                    "velocity": 0.8582677165354331,
                    "duration": 0.40625
                },
                {
                    "name": "F4",
                    "midi": 65,
                    "time": 693.9125000000159,
                    "velocity": 0.5039370078740157,
                    "duration": 0.1708333333332348
                },
                {
                    "name": "E4",
                    "midi": 64,
                    "time": 694.1083333333492,
                    "velocity": 0.4645669291338583,
                    "duration": 0.10624999999993179
                },
                {
                    "name": "E3",
                    "midi": 52,
                    "time": 694.1250000000158,
                    "velocity": 0.7007874015748031,
                    "duration": 0.039583333333325754
                },
                {
                    "name": "B4",
                    "midi": 71,
                    "time": 694.1541666666825,
                    "velocity": 0.7086614173228346,
                    "duration": 0.1729166666666515
                },
                {
                    "name": "G#4",
                    "midi": 68,
                    "time": 694.1625000000158,
                    "velocity": 0.6299212598425197,
                    "duration": 0.14791666666667425
                },
                {
                    "name": "B3",
                    "midi": 59,
                    "time": 694.2604166666824,
                    "velocity": 0.5590551181102362,
                    "duration": 0.3791666666667197
                },
                {
                    "name": "F#5",
                    "midi": 78,
                    "time": 694.2687500000158,
                    "velocity": 0.8110236220472441,
                    "duration": 0.16250000000013642
                },
                {
                    "name": "D5",
                    "midi": 74,
                    "time": 694.3041666666825,
                    "velocity": 0.6614173228346457,
                    "duration": 0.12083333333339397
                },
                {
                    "name": "G#1",
                    "midi": 32,
                    "time": 694.4875000000159,
                    "velocity": 0.7480314960629921,
                    "duration": 0.060416666666583296
                },
                {
                    "name": "D5",
                    "midi": 74,
                    "time": 694.5000000000159,
                    "velocity": 0.8582677165354331,
                    "duration": 0.4499999999999318
                },
                {
                    "name": "G#2",
                    "midi": 44,
                    "time": 694.5020833333492,
                    "velocity": 0.8976377952755905,
                    "duration": 0.07083333333321207
                },
                {
                    "name": "A4",
                    "midi": 69,
                    "time": 694.5125000000158,
                    "velocity": 0.7874015748031497,
                    "duration": 0.39999999999997726
                },
                {
                    "name": "G#4",
                    "midi": 68,
                    "time": 694.7020833333492,
                    "velocity": 0.6299212598425197,
                    "duration": 0.2625000000000455
                },
                {
                    "name": "C4",
                    "midi": 60,
                    "time": 694.8812500000158,
                    "velocity": 0.9448818897637795,
                    "duration": 0.3791666666667197
                },
                {
                    "name": "C3",
                    "midi": 48,
                    "time": 694.8833333333491,
                    "velocity": 0.8740157480314961,
                    "duration": 0.44791666666674246
                },
                {
                    "name": "G4",
                    "midi": 67,
                    "time": 694.8833333333491,
                    "velocity": 0.5590551181102362,
                    "duration": 0.2187500000001137
                },
                {
                    "name": "F#4",
                    "midi": 66,
                    "time": 695.0583333333492,
                    "velocity": 0.5826771653543307,
                    "duration": 0.21666666666669698
                },
                {
                    "name": "F#3",
                    "midi": 54,
                    "time": 695.2708333333492,
                    "velocity": 0.7007874015748031,
                    "duration": 0.03750000000002274
                },
                {
                    "name": "F4",
                    "midi": 65,
                    "time": 695.2708333333492,
                    "velocity": 0.5354330708661418,
                    "duration": 0.19791666666674246
                },
                {
                    "name": "A#4",
                    "midi": 70,
                    "time": 695.3020833333492,
                    "velocity": 0.7007874015748031,
                    "duration": 0.0645833333334167
                },
                {
                    "name": "D#5",
                    "midi": 75,
                    "time": 695.3041666666825,
                    "velocity": 0.7716535433070866,
                    "duration": 0.16666666666674246
                },
                {
                    "name": "A#5",
                    "midi": 82,
                    "time": 695.4312500000159,
                    "velocity": 0.8188976377952756,
                    "duration": 0.16250000000002274
                },
                {
                    "name": "D#4",
                    "midi": 63,
                    "time": 695.4458333333492,
                    "velocity": 0.6771653543307087,
                    "duration": 0.18124999999997726
                },
                {
                    "name": "G#1",
                    "midi": 32,
                    "time": 695.6604166666825,
                    "velocity": 0.6771653543307087,
                    "duration": 0.06250000000011369
                },
                {
                    "name": "A#4",
                    "midi": 70,
                    "time": 695.6645833333492,
                    "velocity": 0.6377952755905512,
                    "duration": 0.2020833333333485
                },
                {
                    "name": "A#5",
                    "midi": 82,
                    "time": 695.6708333333493,
                    "velocity": 0.8582677165354331,
                    "duration": 0.377083333333303
                },
                {
                    "name": "G#2",
                    "midi": 44,
                    "time": 695.675000000016,
                    "velocity": 0.9291338582677166,
                    "duration": 0.07291666666662877
                },
                {
                    "name": "E5",
                    "midi": 76,
                    "time": 695.675000000016,
                    "velocity": 0.8346456692913385,
                    "duration": 0.3937499999999545
                },
                {
                    "name": "A4",
                    "midi": 69,
                    "time": 695.8583333333493,
                    "velocity": 0.5905511811023622,
                    "duration": 0.24166666666667425
                },
                {
                    "name": "C#4",
                    "midi": 61,
                    "time": 696.0416666666825,
                    "velocity": 0.9133858267716536,
                    "duration": 0.08125000000006821
                },
                {
                    "name": "C#3",
                    "midi": 49,
                    "time": 696.0437500000158,
                    "velocity": 0.7952755905511811,
                    "duration": 0.06041666666681067
                },
                {
                    "name": "G#4",
                    "midi": 68,
                    "time": 696.0604166666826,
                    "velocity": 0.6141732283464567,
                    "duration": 0.19375000000002274
                },
                {
                    "name": "G4",
                    "midi": 67,
                    "time": 696.2458333333493,
                    "velocity": 0.5196850393700787,
                    "duration": 0.23333333333357587
                },
                {
                    "name": "E5",
                    "midi": 76,
                    "time": 696.4020833333493,
                    "velocity": 0.9212598425196851,
                    "duration": 0.07291666666685614
                },
                {
                    "name": "G3",
                    "midi": 55,
                    "time": 696.406250000016,
                    "velocity": 0.7952755905511811,
                    "duration": 0.06250000000011369
                },
                {
                    "name": "C5",
                    "midi": 72,
                    "time": 696.412500000016,
                    "velocity": 0.7952755905511811,
                    "duration": 0.05000000000006821
                },
                {
                    "name": "F#4",
                    "midi": 66,
                    "time": 696.4395833333494,
                    "velocity": 0.7559055118110236,
                    "duration": 0.20208333333346218
                },
                {
                    "name": "F4",
                    "midi": 65,
                    "time": 696.6187500000162,
                    "velocity": 0.47244094488188976,
                    "duration": 0.1416666666666515
                },
                {
                    "name": "G#1",
                    "midi": 32,
                    "time": 696.7583333333496,
                    "velocity": 0.7244094488188977,
                    "duration": 0.05833333333316659
                },
                {
                    "name": "A#5",
                    "midi": 82,
                    "time": 696.7625000000162,
                    "velocity": 0.8976377952755905,
                    "duration": 0.37708333333318933
                },
                {
                    "name": "G#2",
                    "midi": 44,
                    "time": 696.7666666666828,
                    "velocity": 0.889763779527559,
                    "duration": 0.06458333333330302
                },
                {
                    "name": "F5",
                    "midi": 77,
                    "time": 696.7687500000161,
                    "velocity": 0.7874015748031497,
                    "duration": 0.37916666666660603
                },
                {
                    "name": "E5",
                    "midi": 76,
                    "time": 696.7854166666827,
                    "velocity": 0.5275590551181102,
                    "duration": 0.05000000000006821
                },
                {
                    "name": "A#4",
                    "midi": 70,
                    "time": 696.8083333333494,
                    "velocity": 0.7007874015748031,
                    "duration": 0.20624999999995453
                },
                {
                    "name": "A4",
                    "midi": 69,
                    "time": 696.9875000000161,
                    "velocity": 0.5118110236220472,
                    "duration": 0.22916666666662877
                },
                {
                    "name": "D4",
                    "midi": 62,
                    "time": 697.1333333333494,
                    "velocity": 0.9448818897637795,
                    "duration": 0.08125000000006821
                },
                {
                    "name": "D3",
                    "midi": 50,
                    "time": 697.1375000000161,
                    "velocity": 0.889763779527559,
                    "duration": 0.11041666666665151
                },
                {
                    "name": "G#4",
                    "midi": 68,
                    "time": 697.1770833333494,
                    "velocity": 0.6850393700787402,
                    "duration": 0.19583333333332575
                },
                {
                    "name": "G4",
                    "midi": 67,
                    "time": 697.350000000016,
                    "velocity": 0.6456692913385826,
                    "duration": 0.19791666666674246
                },
                {
                    "name": "F5",
                    "midi": 77,
                    "time": 697.5208333333494,
                    "velocity": 0.8740157480314961,
                    "duration": 0.08541666666667425
                },
                {
                    "name": "F#4",
                    "midi": 66,
                    "time": 697.5208333333494,
                    "velocity": 0.7952755905511811,
                    "duration": 0.1729166666666515
                },
                {
                    "name": "C5",
                    "midi": 72,
                    "time": 697.5250000000161,
                    "velocity": 0.8188976377952756,
                    "duration": 0.06458333333330302
                },
                {
                    "name": "A5",
                    "midi": 81,
                    "time": 697.662500000016,
                    "velocity": 0.7244094488188977,
                    "duration": 0.11041666666653782
                },
                {
                    "name": "C6",
                    "midi": 84,
                    "time": 697.6645833333494,
                    "velocity": 0.6850393700787402,
                    "duration": 0.11249999999995453
                },
                {
                    "name": "F4",
                    "midi": 65,
                    "time": 697.6854166666827,
                    "velocity": 0.6929133858267716,
                    "duration": 0.1687499999999318
                },
                {
                    "name": "G#1",
                    "midi": 32,
                    "time": 697.8479166666826,
                    "velocity": 0.7165354330708661,
                    "duration": 0.05833333333328028
                },
                {
                    "name": "G#2",
                    "midi": 44,
                    "time": 697.862500000016,
                    "velocity": 0.9133858267716536,
                    "duration": 0.07083333333321207
                },
                {
                    "name": "C6",
                    "midi": 84,
                    "time": 697.8645833333493,
                    "velocity": 0.8346456692913385,
                    "duration": 0.36249999999984084
                },
                {
                    "name": "A5",
                    "midi": 81,
                    "time": 697.8666666666826,
                    "velocity": 0.8582677165354331,
                    "duration": 0.3999999999998636
                },
                {
                    "name": "C5",
                    "midi": 72,
                    "time": 697.8687500000159,
                    "velocity": 0.8818897637795275,
                    "duration": 0.3083333333332803
                },
                {
                    "name": "B4",
                    "midi": 71,
                    "time": 698.0687500000158,
                    "velocity": 0.5984251968503937,
                    "duration": 0.24583333333328028
                },
                {
                    "name": "D#4",
                    "midi": 63,
                    "time": 698.2333333333492,
                    "velocity": 0.9763779527559056,
                    "duration": 0.05833333333328028
                },
                {
                    "name": "D#3",
                    "midi": 51,
                    "time": 698.2354166666825,
                    "velocity": 0.937007874015748,
                    "duration": 0.06041666666669698
                },
                {
                    "name": "A#4",
                    "midi": 70,
                    "time": 698.2666666666825,
                    "velocity": 0.6692913385826772,
                    "duration": 0.20624999999995453
                },
                {
                    "name": "A4",
                    "midi": 69,
                    "time": 698.4250000000158,
                    "velocity": 0.5354330708661418,
                    "duration": 0.19583333333321207
                },
                {
                    "name": "G#4",
                    "midi": 68,
                    "time": 698.6000000000157,
                    "velocity": 0.6692913385826772,
                    "duration": 0.21249999999986358
                },
                {
                    "name": "F#5",
                    "midi": 78,
                    "time": 698.6187500000157,
                    "velocity": 0.889763779527559,
                    "duration": 0.16249999999990905
                },
                {
                    "name": "C#5",
                    "midi": 73,
                    "time": 698.6291666666823,
                    "velocity": 0.7952755905511811,
                    "duration": 0.054166666666674246
                },
                {
                    "name": "A#5",
                    "midi": 82,
                    "time": 698.7416666666822,
                    "velocity": 0.5826771653543307,
                    "duration": 0.039583333333325754
                },
                {
                    "name": "C#6",
                    "midi": 85,
                    "time": 698.7479166666823,
                    "velocity": 0.8188976377952756,
                    "duration": 0.11666666666656056
                },
                {
                    "name": "A5",
                    "midi": 81,
                    "time": 698.7645833333489,
                    "velocity": 0.6929133858267716,
                    "duration": 0.0625
                },
                {
                    "name": "G4",
                    "midi": 67,
                    "time": 698.770833333349,
                    "velocity": 0.6377952755905512,
                    "duration": 0.25624999999990905
                },
                {
                    "name": "C5",
                    "midi": 72,
                    "time": 698.9875000000155,
                    "velocity": 0.6771653543307087,
                    "duration": 0.3270833333333485
                },
                {
                    "name": "G#1",
                    "midi": 32,
                    "time": 698.9916666666822,
                    "velocity": 0.7244094488188977,
                    "duration": 0.049999999999954525
                },
                {
                    "name": "G#2",
                    "midi": 44,
                    "time": 698.995833333349,
                    "velocity": 0.937007874015748,
                    "duration": 0.0770833333332348
                },
                {
                    "name": "D#6",
                    "midi": 87,
                    "time": 699.0000000000156,
                    "velocity": 0.889763779527559,
                    "duration": 0.3083333333332803
                },
                {
                    "name": "D#5",
                    "midi": 75,
                    "time": 699.0104166666822,
                    "velocity": 0.9133858267716536,
                    "duration": 0.310416666666697
                },
                {
                    "name": "C6",
                    "midi": 84,
                    "time": 699.0166666666822,
                    "velocity": 0.7716535433070866,
                    "duration": 0.310416666666697
                },
                {
                    "name": "B4",
                    "midi": 71,
                    "time": 699.1562500000156,
                    "velocity": 0.6692913385826772,
                    "duration": 0.27083333333337123
                },
                {
                    "name": "A#4",
                    "midi": 70,
                    "time": 699.3625000000156,
                    "velocity": 0.6850393700787402,
                    "duration": 0.20624999999984084
                },
                {
                    "name": "E3",
                    "midi": 52,
                    "time": 699.3729166666823,
                    "velocity": 0.8031496062992126,
                    "duration": 0.06458333333330302
                },
                {
                    "name": "E4",
                    "midi": 64,
                    "time": 699.3750000000156,
                    "velocity": 0.8740157480314961,
                    "duration": 0.054166666666674246
                },
                {
                    "name": "A4",
                    "midi": 69,
                    "time": 699.5270833333489,
                    "velocity": 0.5275590551181102,
                    "duration": 0.1854166666665833
                },
                {
                    "name": "G#4",
                    "midi": 68,
                    "time": 699.7125000000154,
                    "velocity": 0.6299212598425197,
                    "duration": 0.19791666666674246
                },
                {
                    "name": "G5",
                    "midi": 79,
                    "time": 699.7291666666821,
                    "velocity": 0.84251968503937,
                    "duration": 0.1750000000000682
                },
                {
                    "name": "C#5",
                    "midi": 73,
                    "time": 699.7395833333487,
                    "velocity": 0.7559055118110236,
                    "duration": 0.05208333333337123
                },
                {
                    "name": "C#6",
                    "midi": 85,
                    "time": 699.8354166666821,
                    "velocity": 0.8110236220472441,
                    "duration": 0.11875000000009095
                },
                {
                    "name": "C#5",
                    "midi": 73,
                    "time": 699.8375000000154,
                    "velocity": 0.3464566929133858,
                    "duration": 0.04791666666665151
                },
                {
                    "name": "A5",
                    "midi": 81,
                    "time": 699.8520833333488,
                    "velocity": 0.7165354330708661,
                    "duration": 0.1250000000001137
                },
                {
                    "name": "G4",
                    "midi": 67,
                    "time": 699.8979166666821,
                    "velocity": 0.6141732283464567,
                    "duration": 0.1583333333335304
                },
                {
                    "name": "G#1",
                    "midi": 32,
                    "time": 700.0312500000156,
                    "velocity": 0.7086614173228346,
                    "duration": 0.058333333333393966
                },
                {
                    "name": "C#6",
                    "midi": 85,
                    "time": 700.0354166666823,
                    "velocity": 0.889763779527559,
                    "duration": 0.19375000000002274
                },
                {
                    "name": "A5",
                    "midi": 81,
                    "time": 700.0375000000156,
                    "velocity": 0.7559055118110236,
                    "duration": 0.1875
                },
                {
                    "name": "C#5",
                    "midi": 73,
                    "time": 700.0416666666823,
                    "velocity": 0.937007874015748,
                    "duration": 0.22708333333332575
                },
                {
                    "name": "G#2",
                    "midi": 44,
                    "time": 700.0437500000156,
                    "velocity": 0.937007874015748,
                    "duration": 0.06875000000002274
                },
                {
                    "name": "C5",
                    "midi": 72,
                    "time": 700.2666666666823,
                    "velocity": 0.5826771653543307,
                    "duration": 0.24791666666669698
                },
                {
                    "name": "F3",
                    "midi": 53,
                    "time": 700.4479166666823,
                    "velocity": 0.8503937007874016,
                    "duration": 0.054166666666674246
                },
                {
                    "name": "B4",
                    "midi": 71,
                    "time": 700.4541666666823,
                    "velocity": 0.6456692913385826,
                    "duration": 0.2333333333333485
                },
                {
                    "name": "F4",
                    "midi": 65,
                    "time": 700.4562500000156,
                    "velocity": 0.7322834645669292,
                    "duration": 0.03541666666671972
                },
                {
                    "name": "A#4",
                    "midi": 70,
                    "time": 700.6187500000157,
                    "velocity": 0.6614173228346457,
                    "duration": 0.2354166666666515
                },
                {
                    "name": "F#4",
                    "midi": 66,
                    "time": 700.8104166666824,
                    "velocity": 0.8346456692913385,
                    "duration": 0.031249999999886313
                },
                {
                    "name": "F#5",
                    "midi": 78,
                    "time": 700.8125000000157,
                    "velocity": 0.8582677165354331,
                    "duration": 0.04583333333334849
                },
                {
                    "name": "A4",
                    "midi": 69,
                    "time": 700.8229166666823,
                    "velocity": 0.5826771653543307,
                    "duration": 0.19166666666671972
                },
                {
                    "name": "G#4",
                    "midi": 68,
                    "time": 700.9937500000157,
                    "velocity": 0.6929133858267716,
                    "duration": 0.16875000000015916
                },
                {
                    "name": "G#1",
                    "midi": 32,
                    "time": 701.1375000000157,
                    "velocity": 0.6929133858267716,
                    "duration": 0.05000000000006821
                },
                {
                    "name": "G#2",
                    "midi": 44,
                    "time": 701.1500000000158,
                    "velocity": 0.937007874015748,
                    "duration": 0.0625
                },
                {
                    "name": "F#5",
                    "midi": 78,
                    "time": 701.1541666666825,
                    "velocity": 0.9448818897637795,
                    "duration": 0.09791666666660603
                },
                {
                    "name": "F#4",
                    "midi": 66,
                    "time": 701.1562500000158,
                    "velocity": 0.9921259842519685,
                    "duration": 0.054166666666674246
                },
                {
                    "name": "A#4",
                    "midi": 70,
                    "time": 701.1625000000158,
                    "velocity": 0.9133858267716536,
                    "duration": 0.060416666666583296
                },
                {
                    "name": "D5",
                    "midi": 74,
                    "time": 701.2208333333491,
                    "velocity": 0.6141732283464567,
                    "duration": 0.22708333333332575
                },
                {
                    "name": "C#5",
                    "midi": 73,
                    "time": 701.3937500000158,
                    "velocity": 0.6299212598425197,
                    "duration": 0.2541666666667197
                },
                {
                    "name": "F#3",
                    "midi": 54,
                    "time": 701.5000000000158,
                    "velocity": 0.84251968503937,
                    "duration": 0.06458333333330302
                },
                {
                    "name": "F#4",
                    "midi": 66,
                    "time": 701.5020833333491,
                    "velocity": 0.952755905511811,
                    "duration": 0.04791666666665151
                },
                {
                    "name": "C5",
                    "midi": 72,
                    "time": 701.5791666666825,
                    "velocity": 0.5590551181102362,
                    "duration": 0.16458333333343944
                },
                {
                    "name": "B4",
                    "midi": 71,
                    "time": 701.7312500000158,
                    "velocity": 0.5669291338582677,
                    "duration": 0.1729166666666515
                },
                {
                    "name": "A#4",
                    "midi": 70,
                    "time": 701.8458333333492,
                    "velocity": 0.8110236220472441,
                    "duration": 0.1999999999999318
                },
                {
                    "name": "D5",
                    "midi": 74,
                    "time": 701.8562500000158,
                    "velocity": 0.7322834645669292,
                    "duration": 0.04583333333334849
                },
                {
                    "name": "C#6",
                    "midi": 85,
                    "time": 701.9812500000158,
                    "velocity": 0.8582677165354331,
                    "duration": 0.07916666666665151
                },
                {
                    "name": "A4",
                    "midi": 69,
                    "time": 702.0520833333492,
                    "velocity": 0.5984251968503937,
                    "duration": 0.13333333333332575
                },
                {
                    "name": "G#1",
                    "midi": 32,
                    "time": 702.1666666666825,
                    "velocity": 0.7637795275590551,
                    "duration": 0.04791666666653782
                },
                {
                    "name": "G#2",
                    "midi": 44,
                    "time": 702.1770833333492,
                    "velocity": 0.937007874015748,
                    "duration": 0.06875000000002274
                },
                {
                    "name": "A#5",
                    "midi": 82,
                    "time": 702.1875000000158,
                    "velocity": 0.8976377952755905,
                    "duration": 0.09166666666681067
                },
                {
                    "name": "F#5",
                    "midi": 78,
                    "time": 702.1958333333491,
                    "velocity": 0.8661417322834646,
                    "duration": 0.06250000000011369
                },
                {
                    "name": "A#4",
                    "midi": 70,
                    "time": 702.1958333333491,
                    "velocity": 0.9291338582677166,
                    "duration": 0.03125
                },
                {
                    "name": "D#5",
                    "midi": 75,
                    "time": 702.2312500000158,
                    "velocity": 0.7401574803149606,
                    "duration": 0.2187500000001137
                },
                {
                    "name": "D5",
                    "midi": 74,
                    "time": 702.4083333333493,
                    "velocity": 0.5118110236220472,
                    "duration": 0.2333333333332348
                },
                {
                    "name": "G3",
                    "midi": 55,
                    "time": 702.5625000000159,
                    "velocity": 0.7716535433070866,
                    "duration": 0.06458333333330302
                },
                {
                    "name": "G4",
                    "midi": 67,
                    "time": 702.5625000000159,
                    "velocity": 0.8503937007874016,
                    "duration": 0.05624999999997726
                },
                {
                    "name": "C#5",
                    "midi": 73,
                    "time": 702.5875000000159,
                    "velocity": 0.6535433070866141,
                    "duration": 0.2354166666666515
                },
                {
                    "name": "C5",
                    "midi": 72,
                    "time": 702.7541666666825,
                    "velocity": 0.5511811023622047,
                    "duration": 0.14791666666667425
                },
                {
                    "name": "A#4",
                    "midi": 70,
                    "time": 702.9062500000159,
                    "velocity": 0.8661417322834646,
                    "duration": 0.05624999999997726
                },
                {
                    "name": "D#5",
                    "midi": 75,
                    "time": 702.9145833333492,
                    "velocity": 0.84251968503937,
                    "duration": 0.07083333333332575
                },
                {
                    "name": "B4",
                    "midi": 71,
                    "time": 702.9145833333492,
                    "velocity": 0.6062992125984252,
                    "duration": 0.1874999999998863
                },
                {
                    "name": "C#6",
                    "midi": 85,
                    "time": 703.0395833333492,
                    "velocity": 0.8110236220472441,
                    "duration": 0.060416666666583296
                },
                {
                    "name": "A#4",
                    "midi": 70,
                    "time": 703.0666666666825,
                    "velocity": 0.7480314960629921,
                    "duration": 0.11666666666656056
                },
                {
                    "name": "G#1",
                    "midi": 32,
                    "time": 703.202083333349,
                    "velocity": 0.7165354330708661,
                    "duration": 0.06041666666669698
                },
                {
                    "name": "G#2",
                    "midi": 44,
                    "time": 703.220833333349,
                    "velocity": 0.937007874015748,
                    "duration": 0.06666666666671972
                },
                {
                    "name": "A#5",
                    "midi": 82,
                    "time": 703.2312500000157,
                    "velocity": 0.84251968503937,
                    "duration": 0.09583333333330302
                },
                {
                    "name": "A#4",
                    "midi": 70,
                    "time": 703.2437500000158,
                    "velocity": 0.8267716535433071,
                    "duration": 0.029166666666583296
                },
                {
                    "name": "F#5",
                    "midi": 78,
                    "time": 703.2458333333491,
                    "velocity": 0.7952755905511811,
                    "duration": 0.04374999999993179
                },
                {
                    "name": "E5",
                    "midi": 76,
                    "time": 703.2625000000157,
                    "velocity": 0.6692913385826772,
                    "duration": 0.21041666666667425
                },
                {
                    "name": "D#5",
                    "midi": 75,
                    "time": 703.4062500000157,
                    "velocity": 0.6692913385826772,
                    "duration": 0.2708333333334849
                },
                {
                    "name": "G#4",
                    "midi": 68,
                    "time": 703.5812500000158,
                    "velocity": 0.9448818897637795,
                    "duration": 0.054166666666674246
                },
                {
                    "name": "G#3",
                    "midi": 56,
                    "time": 703.5833333333491,
                    "velocity": 0.8976377952755905,
                    "duration": 0.07291666666674246
                },
                {
                    "name": "D5",
                    "midi": 74,
                    "time": 703.5895833333491,
                    "velocity": 0.6771653543307087,
                    "duration": 0.21041666666678793
                },
                {
                    "name": "C#5",
                    "midi": 73,
                    "time": 703.7395833333492,
                    "velocity": 0.7952755905511811,
                    "duration": 0.21041666666667425
                },
                {
                    "name": "E5",
                    "midi": 76,
                    "time": 703.9104166666825,
                    "velocity": 0.7716535433070866,
                    "duration": 0.0916666666665833
                },
                {
                    "name": "A#4",
                    "midi": 70,
                    "time": 703.9166666666825,
                    "velocity": 0.7559055118110236,
                    "duration": 0.035416666666606034
                },
                {
                    "name": "C5",
                    "midi": 72,
                    "time": 703.9229166666826,
                    "velocity": 0.7086614173228346,
                    "duration": 0.1875
                },
                {
                    "name": "C#6",
                    "midi": 85,
                    "time": 704.0312500000158,
                    "velocity": 0.8661417322834646,
                    "duration": 0.09375000000011369
                },
                {
                    "name": "B4",
                    "midi": 71,
                    "time": 704.0937500000158,
                    "velocity": 0.5905511811023622,
                    "duration": 0.08750000000009095
                },
                {
                    "name": "A4",
                    "midi": 69,
                    "time": 704.0979166666825,
                    "velocity": 0.5354330708661418,
                    "duration": 0.04791666666665151
                },
                {
                    "name": "G#1",
                    "midi": 32,
                    "time": 704.1979166666825,
                    "velocity": 0.7401574803149606,
                    "duration": 0.045833333333234805
                },
                {
                    "name": "G#2",
                    "midi": 44,
                    "time": 704.2000000000158,
                    "velocity": 0.952755905511811,
                    "duration": 0.07083333333321207
                },
                {
                    "name": "F5",
                    "midi": 77,
                    "time": 704.2166666666825,
                    "velocity": 0.8031496062992126,
                    "duration": 0.24583333333328028
                },
                {
                    "name": "A#5",
                    "midi": 82,
                    "time": 704.2250000000158,
                    "velocity": 0.7874015748031497,
                    "duration": 0.372916666666697
                },
                {
                    "name": "A#4",
                    "midi": 70,
                    "time": 704.2270833333491,
                    "velocity": 0.84251968503937,
                    "duration": 0.07916666666665151
                },
                {
                    "name": "E5",
                    "midi": 76,
                    "time": 704.3979166666825,
                    "velocity": 0.7165354330708661,
                    "duration": 0.24375000000009095
                },
                {
                    "name": "A3",
                    "midi": 57,
                    "time": 704.5729166666824,
                    "velocity": 0.7874015748031497,
                    "duration": 0.0645833333334167
                },
                {
                    "name": "A4",
                    "midi": 69,
                    "time": 704.5770833333492,
                    "velocity": 0.8582677165354331,
                    "duration": 0.03541666666671972
                },
                {
                    "name": "D#5",
                    "midi": 75,
                    "time": 704.5812500000159,
                    "velocity": 0.7165354330708661,
                    "duration": 0.15416666666669698
                },
                {
                    "name": "D5",
                    "midi": 74,
                    "time": 704.7270833333492,
                    "velocity": 0.6220472440944882,
                    "duration": 0.11874999999997726
                },
                {
                    "name": "F5",
                    "midi": 77,
                    "time": 704.9041666666825,
                    "velocity": 0.7559055118110236,
                    "duration": 0.16666666666662877
                },
                {
                    "name": "C#5",
                    "midi": 73,
                    "time": 704.9062500000158,
                    "velocity": 0.7874015748031497,
                    "duration": 0.10416666666662877
                },
                {
                    "name": "C#6",
                    "midi": 85,
                    "time": 705.0229166666825,
                    "velocity": 0.8503937007874016,
                    "duration": 0.09791666666660603
                },
                {
                    "name": "A#4",
                    "midi": 70,
                    "time": 705.0708333333491,
                    "velocity": 0.6929133858267716,
                    "duration": 0.11041666666665151
                },
                {
                    "name": "G#1",
                    "midi": 32,
                    "time": 705.2500000000158,
                    "velocity": 0.7007874015748031,
                    "duration": 0.05625000000009095
                },
                {
                    "name": "F5",
                    "midi": 77,
                    "time": 705.2541666666825,
                    "velocity": 0.7559055118110236,
                    "duration": 0.20624999999995453
                },
                {
                    "name": "G#2",
                    "midi": 44,
                    "time": 705.2625000000158,
                    "velocity": 0.952755905511811,
                    "duration": 0.06875000000002274
                },
                {
                    "name": "A#5",
                    "midi": 82,
                    "time": 705.2625000000158,
                    "velocity": 0.9133858267716536,
                    "duration": 0.12916666666671972
                },
                {
                    "name": "A#4",
                    "midi": 70,
                    "time": 705.2687500000159,
                    "velocity": 0.968503937007874,
                    "duration": 0.0625
                },
                {
                    "name": "E5",
                    "midi": 76,
                    "time": 705.4104166666825,
                    "velocity": 0.6692913385826772,
                    "duration": 0.22708333333332575
                },
                {
                    "name": "D#5",
                    "midi": 75,
                    "time": 705.6000000000158,
                    "velocity": 0.7480314960629921,
                    "duration": 0.16249999999990905
                },
                {
                    "name": "A#3",
                    "midi": 58,
                    "time": 705.6770833333492,
                    "velocity": 0.7874015748031497,
                    "duration": 0.07499999999993179
                },
                {
                    "name": "A#4",
                    "midi": 70,
                    "time": 705.6833333333492,
                    "velocity": 0.937007874015748,
                    "duration": 0.05833333333328028
                },
                {
                    "name": "D5",
                    "midi": 74,
                    "time": 705.7687500000158,
                    "velocity": 0.5905511811023622,
                    "duration": 0.21041666666667425
                },
                {
                    "name": "C#5",
                    "midi": 73,
                    "time": 706.1229166666824,
                    "velocity": 0.7322834645669292,
                    "duration": 0.07291666666662877
                },
                {
                    "name": "B3",
                    "midi": 59,
                    "time": 706.139583333349,
                    "velocity": 0.7795275590551181,
                    "duration": 0.1395833333332348
                },
                {
                    "name": "B4",
                    "midi": 71,
                    "time": 706.1416666666823,
                    "velocity": 0.9212598425196851,
                    "duration": 0.07708333333334849
                },
                {
                    "name": "E5",
                    "midi": 76,
                    "time": 706.164583333349,
                    "velocity": 0.8346456692913385,
                    "duration": 0.08124999999995453
                },
                {
                    "name": "G#5",
                    "midi": 80,
                    "time": 706.1666666666823,
                    "velocity": 0.905511811023622,
                    "duration": 0.15625
                },
                {
                    "name": "E6",
                    "midi": 88,
                    "time": 706.4104166666823,
                    "velocity": 0.8740157480314961,
                    "duration": 0.1083333333332348
                },
                {
                    "name": "C#6",
                    "midi": 85,
                    "time": 706.4125000000156,
                    "velocity": 0.8818897637795275,
                    "duration": 0.08958333333328028
                },
                {
                    "name": "G#4",
                    "midi": 68,
                    "time": 706.4291666666822,
                    "velocity": 0.7874015748031497,
                    "duration": 0.08124999999995453
                },
                {
                    "name": "F#5",
                    "midi": 78,
                    "time": 706.7062500000155,
                    "velocity": 0.7716535433070866,
                    "duration": 0.5187500000001819
                },
                {
                    "name": "B1",
                    "midi": 35,
                    "time": 706.7083333333488,
                    "velocity": 0.7795275590551181,
                    "duration": 0.06458333333330302
                },
                {
                    "name": "B2",
                    "midi": 47,
                    "time": 706.7145833333489,
                    "velocity": 0.8503937007874016,
                    "duration": 0.0625
                },
                {
                    "name": "D6",
                    "midi": 86,
                    "time": 706.7250000000155,
                    "velocity": 0.8503937007874016,
                    "duration": 0.47708333333343944
                },
                {
                    "name": "F#6",
                    "midi": 90,
                    "time": 706.7270833333488,
                    "velocity": 0.8976377952755905,
                    "duration": 0.4875000000001819
                },
                {
                    "name": "F5",
                    "midi": 77,
                    "time": 706.9791666666822,
                    "velocity": 0.6141732283464567,
                    "duration": 0.2208333333334167
                },
                {
                    "name": "E5",
                    "midi": 76,
                    "time": 707.1708333333489,
                    "velocity": 0.5984251968503937,
                    "duration": 0.24166666666678793
                },
                {
                    "name": "G#4",
                    "midi": 68,
                    "time": 707.2187500000157,
                    "velocity": 0.8818897637795275,
                    "duration": 0.06666666666671972
                },
                {
                    "name": "E4",
                    "midi": 64,
                    "time": 707.2312500000157,
                    "velocity": 0.7007874015748031,
                    "duration": 0.05624999999997726
                },
                {
                    "name": "D#5",
                    "midi": 75,
                    "time": 707.3750000000157,
                    "velocity": 0.6535433070866141,
                    "duration": 0.23958333333348492
                },
                {
                    "name": "G#4",
                    "midi": 68,
                    "time": 707.5750000000157,
                    "velocity": 0.8188976377952756,
                    "duration": 0.06250000000011369
                },
                {
                    "name": "G#5",
                    "midi": 80,
                    "time": 707.5937500000157,
                    "velocity": 0.9291338582677166,
                    "duration": 0.17916666666667425
                },
                {
                    "name": "E5",
                    "midi": 76,
                    "time": 707.5979166666824,
                    "velocity": 0.8110236220472441,
                    "duration": 0.07083333333332575
                },
                {
                    "name": "D5",
                    "midi": 74,
                    "time": 707.6041666666824,
                    "velocity": 0.6141732283464567,
                    "duration": 0.17291666666653782
                },
                {
                    "name": "E4",
                    "midi": 64,
                    "time": 707.6083333333492,
                    "velocity": 0.4330708661417323,
                    "duration": 0.049999999999954525
                },
                {
                    "name": "C#6",
                    "midi": 85,
                    "time": 707.727083333349,
                    "velocity": 0.7480314960629921,
                    "duration": 0.1562499999998863
                },
                {
                    "name": "E6",
                    "midi": 88,
                    "time": 707.727083333349,
                    "velocity": 0.7165354330708661,
                    "duration": 0.09999999999990905
                },
                {
                    "name": "C#5",
                    "midi": 73,
                    "time": 707.7750000000157,
                    "velocity": 0.6929133858267716,
                    "duration": 0.11041666666653782
                },
                {
                    "name": "C2",
                    "midi": 36,
                    "time": 707.9395833333489,
                    "velocity": 0.6771653543307087,
                    "duration": 0.029166666666583296
                },
                {
                    "name": "G5",
                    "midi": 79,
                    "time": 707.9395833333489,
                    "velocity": 0.6929133858267716,
                    "duration": 0.21041666666656056
                },
                {
                    "name": "C3",
                    "midi": 48,
                    "time": 707.9437500000155,
                    "velocity": 0.8031496062992126,
                    "duration": 0.05833333333328028
                },
                {
                    "name": "C6",
                    "midi": 84,
                    "time": 707.9458333333488,
                    "velocity": 0.8110236220472441,
                    "duration": 0.30833333333339397
                },
                {
                    "name": "D#6",
                    "midi": 87,
                    "time": 707.9479166666821,
                    "velocity": 0.889763779527559,
                    "duration": 0.2854166666667197
                },
                {
                    "name": "F#5",
                    "midi": 78,
                    "time": 708.0895833333487,
                    "velocity": 0.5354330708661418,
                    "duration": 0.27291666666678793
                },
                {
                    "name": "F5",
                    "midi": 77,
                    "time": 708.2791666666822,
                    "velocity": 0.7007874015748031,
                    "duration": 0.15416666666669698
                },
                {
                    "name": "G#4",
                    "midi": 68,
                    "time": 708.2979166666821,
                    "velocity": 0.8661417322834646,
                    "duration": 0.07708333333346218
                },
                {
                    "name": "E4",
                    "midi": 64,
                    "time": 708.3104166666822,
                    "velocity": 0.7086614173228346,
                    "duration": 0.06666666666671972
                },
                {
                    "name": "E5",
                    "midi": 76,
                    "time": 708.4395833333489,
                    "velocity": 0.6141732283464567,
                    "duration": 0.11041666666665151
                },
                {
                    "name": "G#4",
                    "midi": 68,
                    "time": 708.6145833333488,
                    "velocity": 0.7480314960629921,
                    "duration": 0.035416666666606034
                },
                {
                    "name": "E4",
                    "midi": 64,
                    "time": 708.6145833333488,
                    "velocity": 0.6850393700787402,
                    "duration": 0.04166666666662877
                },
                {
                    "name": "G#5",
                    "midi": 80,
                    "time": 708.6229166666822,
                    "velocity": 0.905511811023622,
                    "duration": 0.16041666666660603
                },
                {
                    "name": "D#5",
                    "midi": 75,
                    "time": 708.6250000000155,
                    "velocity": 0.36220472440944884,
                    "duration": 0.10000000000002274
                },
                {
                    "name": "E5",
                    "midi": 76,
                    "time": 708.6312500000155,
                    "velocity": 0.7952755905511811,
                    "duration": 0.07083333333332575
                },
                {
                    "name": "D5",
                    "midi": 74,
                    "time": 708.6541666666822,
                    "velocity": 0.3700787401574803,
                    "duration": 0.22708333333332575
                },
                {
                    "name": "C#6",
                    "midi": 85,
                    "time": 708.7520833333488,
                    "velocity": 0.8267716535433071,
                    "duration": 0.058333333333393966
                },
                {
                    "name": "E6",
                    "midi": 88,
                    "time": 708.7562500000155,
                    "velocity": 0.8188976377952756,
                    "duration": 0.06666666666671972
                },
                {
                    "name": "G#5",
                    "midi": 80,
                    "time": 708.9291666666821,
                    "velocity": 0.7874015748031497,
                    "duration": 0.1999999999999318
                },
                {
                    "name": "C#2",
                    "midi": 37,
                    "time": 708.9354166666822,
                    "velocity": 0.8188976377952756,
                    "duration": 0.06041666666669698
                },
                {
                    "name": "C#3",
                    "midi": 49,
                    "time": 708.9437500000155,
                    "velocity": 0.9448818897637795,
                    "duration": 0.0625
                },
                {
                    "name": "G#6",
                    "midi": 92,
                    "time": 708.9479166666822,
                    "velocity": 0.889763779527559,
                    "duration": 0.09999999999990905
                },
                {
                    "name": "E6",
                    "midi": 88,
                    "time": 708.9583333333488,
                    "velocity": 0.7795275590551181,
                    "duration": 0.07499999999993179
                },
                {
                    "name": "G5",
                    "midi": 79,
                    "time": 709.1020833333488,
                    "velocity": 0.5905511811023622,
                    "duration": 0.19583333333321207
                },
                {
                    "name": "F#5",
                    "midi": 78,
                    "time": 709.2750000000154,
                    "velocity": 0.6299212598425197,
                    "duration": 0.14999999999997726
                },
                {
                    "name": "G#4",
                    "midi": 68,
                    "time": 709.2770833333487,
                    "velocity": 0.7795275590551181,
                    "duration": 0.07499999999993179
                },
                {
                    "name": "E4",
                    "midi": 64,
                    "time": 709.2958333333487,
                    "velocity": 0.5354330708661418,
                    "duration": 0.07708333333334849
                },
                {
                    "name": "F5",
                    "midi": 77,
                    "time": 709.4333333333487,
                    "velocity": 0.5433070866141733,
                    "duration": 0.11249999999995453
                },
                {
                    "name": "G#4",
                    "midi": 68,
                    "time": 709.5958333333487,
                    "velocity": 0.8188976377952756,
                    "duration": 0.02916666666681067
                },
                {
                    "name": "D#5",
                    "midi": 75,
                    "time": 709.6000000000154,
                    "velocity": 0.6850393700787402,
                    "duration": 0.10208333333343944
                },
                {
                    "name": "E4",
                    "midi": 64,
                    "time": 709.6041666666821,
                    "velocity": 0.6614173228346457,
                    "duration": 0.03541666666671972
                },
                {
                    "name": "A#5",
                    "midi": 82,
                    "time": 709.6104166666821,
                    "velocity": 0.7795275590551181,
                    "duration": 0.08333333333337123
                },
                {
                    "name": "A#4",
                    "midi": 70,
                    "time": 709.6104166666821,
                    "velocity": 0.968503937007874,
                    "duration": 0.06041666666669698
                },
                {
                    "name": "G#5",
                    "midi": 80,
                    "time": 709.6145833333488,
                    "velocity": 0.7952755905511811,
                    "duration": 0.06458333333330302
                },
                {
                    "name": "D5",
                    "midi": 74,
                    "time": 709.7312500000155,
                    "velocity": 0.6141732283464567,
                    "duration": 0.10416666666662877
                },
                {
                    "name": "G#5",
                    "midi": 80,
                    "time": 709.9041666666822,
                    "velocity": 0.7874015748031497,
                    "duration": 0.22916666666674246
                },
                {
                    "name": "D2",
                    "midi": 38,
                    "time": 709.9291666666821,
                    "velocity": 0.7716535433070866,
                    "duration": 0.05833333333350765
                },
                {
                    "name": "D3",
                    "midi": 50,
                    "time": 709.9416666666822,
                    "velocity": 0.7874015748031497,
                    "duration": 0.058333333333393966
                },
                {
                    "name": "A#5",
                    "midi": 82,
                    "time": 709.9437500000155,
                    "velocity": 0.8818897637795275,
                    "duration": 0.09375000000011369
                },
                {
                    "name": "A#4",
                    "midi": 70,
                    "time": 709.9479166666822,
                    "velocity": 0.9921259842519685,
                    "duration": 0.05000000000006821
                },
                {
                    "name": "G5",
                    "midi": 79,
                    "time": 710.0708333333489,
                    "velocity": 0.5196850393700787,
                    "duration": 0.2666666666666515
                },
                {
                    "name": "G#4",
                    "midi": 68,
                    "time": 710.2770833333489,
                    "velocity": 0.7795275590551181,
                    "duration": 0.0645833333334167
                },
                {
                    "name": "E4",
                    "midi": 64,
                    "time": 710.2812500000156,
                    "velocity": 0.6614173228346457,
                    "duration": 0.06041666666669698
                },
                {
                    "name": "F#5",
                    "midi": 78,
                    "time": 710.2979166666822,
                    "velocity": 0.6614173228346457,
                    "duration": 0.14791666666667425
                },
                {
                    "name": "F5",
                    "midi": 77,
                    "time": 710.4437500000156,
                    "velocity": 0.5984251968503937,
                    "duration": 0.11249999999995453
                },
                {
                    "name": "G#4",
                    "midi": 68,
                    "time": 710.5729166666822,
                    "velocity": 0.7716535433070866,
                    "duration": 0.054166666666674246
                },
                {
                    "name": "E4",
                    "midi": 64,
                    "time": 710.5750000000155,
                    "velocity": 0.7086614173228346,
                    "duration": 0.05208333333337123
                },
                {
                    "name": "G#5",
                    "midi": 80,
                    "time": 710.5791666666822,
                    "velocity": 0.8188976377952756,
                    "duration": 0.07708333333334849
                },
                {
                    "name": "B5",
                    "midi": 83,
                    "time": 710.5812500000155,
                    "velocity": 0.8110236220472441,
                    "duration": 0.0958333333334167
                },
                {
                    "name": "D#5",
                    "midi": 75,
                    "time": 710.6041666666822,
                    "velocity": 0.7559055118110236,
                    "duration": 0.12916666666671972
                },
                {
                    "name": "G#6",
                    "midi": 92,
                    "time": 710.7041666666822,
                    "velocity": 0.8267716535433071,
                    "duration": 0.09791666666671972
                },
                {
                    "name": "D5",
                    "midi": 74,
                    "time": 710.7500000000156,
                    "velocity": 0.4566929133858268,
                    "duration": 0.07916666666665151
                },
                {
                    "name": "G6",
                    "midi": 91,
                    "time": 710.8979166666822,
                    "velocity": 0.6377952755905512,
                    "duration": 0.08749999999997726
                },
                {
                    "name": "A#5",
                    "midi": 82,
                    "time": 710.8979166666822,
                    "velocity": 0.7795275590551181,
                    "duration": 0.17916666666656056
                },
                {
                    "name": "D#2",
                    "midi": 39,
                    "time": 710.9062500000156,
                    "velocity": 0.8503937007874016,
                    "duration": 0.054166666666674246
                },
                {
                    "name": "D#3",
                    "midi": 51,
                    "time": 710.9104166666823,
                    "velocity": 0.8976377952755905,
                    "duration": 0.05624999999997726
                },
                {
                    "name": "A#6",
                    "midi": 94,
                    "time": 710.9125000000156,
                    "velocity": 0.8976377952755905,
                    "duration": 0.15208333333328028
                },
                {
                    "name": "A5",
                    "midi": 81,
                    "time": 711.0666666666822,
                    "velocity": 0.6692913385826772,
                    "duration": 0.19374999999990905
                },
                {
                    "name": "G#4",
                    "midi": 68,
                    "time": 711.2208333333488,
                    "velocity": 0.7165354330708661,
                    "duration": 0.08333333333337123
                },
                {
                    "name": "B4",
                    "midi": 71,
                    "time": 711.2208333333488,
                    "velocity": 0.7637795275590551,
                    "duration": 0.07500000000004547
                },
                {
                    "name": "G#5",
                    "midi": 80,
                    "time": 711.2395833333487,
                    "velocity": 0.6929133858267716,
                    "duration": 0.15208333333339397
                },
                {
                    "name": "G5",
                    "midi": 79,
                    "time": 711.3916666666821,
                    "velocity": 0.5748031496062992,
                    "duration": 0.09583333333330302
                },
                {
                    "name": "G#4",
                    "midi": 68,
                    "time": 711.5208333333487,
                    "velocity": 0.8188976377952756,
                    "duration": 0.06250000000011369
                },
                {
                    "name": "B4",
                    "midi": 71,
                    "time": 711.522916666682,
                    "velocity": 0.7401574803149606,
                    "duration": 0.041666666666856145
                },
                {
                    "name": "G#5",
                    "midi": 80,
                    "time": 711.5270833333487,
                    "velocity": 0.7795275590551181,
                    "duration": 0.06875000000013642
                },
                {
                    "name": "B5",
                    "midi": 83,
                    "time": 711.5270833333487,
                    "velocity": 0.7952755905511811,
                    "duration": 0.18333333333339397
                },
                {
                    "name": "F#5",
                    "midi": 78,
                    "time": 711.5479166666821,
                    "velocity": 0.7322834645669292,
                    "duration": 0.11875000000009095
                },
                {
                    "name": "G#6",
                    "midi": 92,
                    "time": 711.6395833333489,
                    "velocity": 0.8188976377952756,
                    "duration": 0.09791666666649235
                },
                {
                    "name": "F5",
                    "midi": 77,
                    "time": 711.6687500000155,
                    "velocity": 0.6299212598425197,
                    "duration": 0.09374999999988631
                },
                {
                    "name": "E2",
                    "midi": 40,
                    "time": 711.8166666666821,
                    "velocity": 0.7007874015748031,
                    "duration": 0.056250000000204636
                },
                {
                    "name": "E3",
                    "midi": 52,
                    "time": 711.8166666666821,
                    "velocity": 0.9133858267716536,
                    "duration": 0.06875000000025011
                },
                {
                    "name": "B5",
                    "midi": 83,
                    "time": 711.8166666666821,
                    "velocity": 0.7559055118110236,
                    "duration": 0.1895833333335304
                },
                {
                    "name": "G5",
                    "midi": 79,
                    "time": 711.8208333333488,
                    "velocity": 0.8031496062992126,
                    "duration": 0.03125000000011369
                },
                {
                    "name": "G6",
                    "midi": 91,
                    "time": 711.8208333333488,
                    "velocity": 0.6850393700787402,
                    "duration": 0.06666666666683341
                },
                {
                    "name": "D#6",
                    "midi": 87,
                    "time": 711.8312500000155,
                    "velocity": 0.6299212598425197,
                    "duration": 0.03541666666671972
                },
                {
                    "name": "A#5",
                    "midi": 82,
                    "time": 711.958333333349,
                    "velocity": 0.5984251968503937,
                    "duration": 0.24166666666678793
                },
                {
                    "name": "G#4",
                    "midi": 68,
                    "time": 712.120833333349,
                    "velocity": 0.8661417322834646,
                    "duration": 0.0645833333334167
                },
                {
                    "name": "B4",
                    "midi": 71,
                    "time": 712.120833333349,
                    "velocity": 0.7952755905511811,
                    "duration": 0.0645833333334167
                },
                {
                    "name": "A5",
                    "midi": 81,
                    "time": 712.1416666666823,
                    "velocity": 0.6850393700787402,
                    "duration": 0.1729166666667652
                },
                {
                    "name": "G#5",
                    "midi": 80,
                    "time": 712.2937500000157,
                    "velocity": 0.7165354330708661,
                    "duration": 0.1875000000001137
                },
                {
                    "name": "B4",
                    "midi": 71,
                    "time": 712.4000000000158,
                    "velocity": 0.7795275590551181,
                    "duration": 0.03541666666671972
                },
                {
                    "name": "G#4",
                    "midi": 68,
                    "time": 712.4041666666825,
                    "velocity": 0.7952755905511811,
                    "duration": 0.06458333333330302
                },
                {
                    "name": "B5",
                    "midi": 83,
                    "time": 712.4125000000158,
                    "velocity": 0.7874015748031497,
                    "duration": 0.07916666666665151
                },
                {
                    "name": "G5",
                    "midi": 79,
                    "time": 712.4520833333492,
                    "velocity": 0.7086614173228346,
                    "duration": 0.14374999999995453
                },
                {
                    "name": "G#6",
                    "midi": 92,
                    "time": 712.5270833333492,
                    "velocity": 0.8582677165354331,
                    "duration": 0.06666666666660603
                },
                {
                    "name": "F#5",
                    "midi": 78,
                    "time": 712.5750000000158,
                    "velocity": 0.8267716535433071,
                    "duration": 0.09583333333330302
                },
                {
                    "name": "B6",
                    "midi": 95,
                    "time": 712.6979166666824,
                    "velocity": 0.8503937007874016,
                    "duration": 0.045833333333234805
                },
                {
                    "name": "G#6",
                    "midi": 92,
                    "time": 712.7000000000157,
                    "velocity": 0.8976377952755905,
                    "duration": 0.060416666666583296
                },
                {
                    "name": "B5",
                    "midi": 83,
                    "time": 712.7062500000158,
                    "velocity": 0.7952755905511811,
                    "duration": 0.19583333333321207
                },
                {
                    "name": "F3",
                    "midi": 53,
                    "time": 712.7083333333491,
                    "velocity": 0.8818897637795275,
                    "duration": 0.06249999999988631
                },
                {
                    "name": "F2",
                    "midi": 41,
                    "time": 712.7104166666824,
                    "velocity": 0.7637795275590551,
                    "duration": 0.05208333333325754
                },
                {
                    "name": "G2",
                    "midi": 43,
                    "time": 712.7312500000156,
                    "velocity": 0.5511811023622047,
                    "duration": 0.043750000000045475
                },
                {
                    "name": "A#5",
                    "midi": 82,
                    "time": 712.8479166666823,
                    "velocity": 0.6692913385826772,
                    "duration": 0.2333333333332348
                },
                {
                    "name": "G#4",
                    "midi": 68,
                    "time": 713.0041666666823,
                    "velocity": 0.7874015748031497,
                    "duration": 0.06666666666660603
                },
                {
                    "name": "B4",
                    "midi": 71,
                    "time": 713.0062500000156,
                    "velocity": 0.7322834645669292,
                    "duration": 0.06458333333330302
                },
                {
                    "name": "A5",
                    "midi": 81,
                    "time": 713.0083333333489,
                    "velocity": 0.7401574803149606,
                    "duration": 0.19166666666671972
                },
                {
                    "name": "G#5",
                    "midi": 80,
                    "time": 713.1479166666822,
                    "velocity": 0.8346456692913385,
                    "duration": 0.1875000000001137
                },
                {
                    "name": "D#5",
                    "midi": 75,
                    "time": 713.283333333349,
                    "velocity": 0.9763779527559056,
                    "duration": 0.06041666666669698
                },
                {
                    "name": "B4",
                    "midi": 71,
                    "time": 713.283333333349,
                    "velocity": 0.7559055118110236,
                    "duration": 0.039583333333325754
                },
                {
                    "name": "G#4",
                    "midi": 68,
                    "time": 713.283333333349,
                    "velocity": 0.8110236220472441,
                    "duration": 0.054166666666674246
                },
                {
                    "name": "D#6",
                    "midi": 87,
                    "time": 713.2854166666823,
                    "velocity": 0.8582677165354331,
                    "duration": 0.08750000000009095
                },
                {
                    "name": "B5",
                    "midi": 83,
                    "time": 713.2937500000156,
                    "velocity": 0.6614173228346457,
                    "duration": 0.03541666666671972
                },
                {
                    "name": "G5",
                    "midi": 79,
                    "time": 713.3000000000156,
                    "velocity": 0.7716535433070866,
                    "duration": 0.15208333333339397
                },
                {
                    "name": "F#5",
                    "midi": 78,
                    "time": 713.4270833333491,
                    "velocity": 0.8582677165354331,
                    "duration": 0.08333333333325754
                },
                {
                    "name": "C6",
                    "midi": 84,
                    "time": 713.570833333349,
                    "velocity": 0.7952755905511811,
                    "duration": 0.3083333333332803
                },
                {
                    "name": "F#3",
                    "midi": 54,
                    "time": 713.6166666666824,
                    "velocity": 0.9448818897637795,
                    "duration": 0.05624999999997726
                },
                {
                    "name": "D#6",
                    "midi": 87,
                    "time": 713.6187500000157,
                    "velocity": 0.8818897637795275,
                    "duration": 0.11666666666667425
                },
                {
                    "name": "F#2",
                    "midi": 42,
                    "time": 713.6187500000157,
                    "velocity": 0.952755905511811,
                    "duration": 0.05208333333337123
                },
                {
                    "name": "D#5",
                    "midi": 75,
                    "time": 713.6229166666824,
                    "velocity": 0.952755905511811,
                    "duration": 0.05208333333325754
                },
                {
                    "name": "B5",
                    "midi": 83,
                    "time": 713.6250000000157,
                    "velocity": 0.8110236220472441,
                    "duration": 0.06666666666660603
                },
                {
                    "name": "B5",
                    "midi": 83,
                    "time": 713.7125000000157,
                    "velocity": 0.6929133858267716,
                    "duration": 0.20833333333337123
                },
                {
                    "name": "A#5",
                    "midi": 82,
                    "time": 713.9000000000157,
                    "velocity": 0.7874015748031497,
                    "duration": 0.16458333333332575
                },
                {
                    "name": "B4",
                    "midi": 71,
                    "time": 713.9625000000157,
                    "velocity": 0.7322834645669292,
                    "duration": 0.07083333333332575
                },
                {
                    "name": "A4",
                    "midi": 69,
                    "time": 713.964583333349,
                    "velocity": 0.8582677165354331,
                    "duration": 0.07083333333332575
                },
                {
                    "name": "D#4",
                    "midi": 63,
                    "time": 713.9666666666823,
                    "velocity": 0.8661417322834646,
                    "duration": 0.07708333333334849
                },
                {
                    "name": "A5",
                    "midi": 81,
                    "time": 714.0562500000157,
                    "velocity": 0.6929133858267716,
                    "duration": 0.10625000000004547
                },
                {
                    "name": "G#5",
                    "midi": 80,
                    "time": 714.252083333349,
                    "velocity": 0.8661417322834646,
                    "duration": 0.12083333333350765
                },
                {
                    "name": "D#4",
                    "midi": 63,
                    "time": 714.2687500000156,
                    "velocity": 0.937007874015748,
                    "duration": 0.07500000000015916
                },
                {
                    "name": "B4",
                    "midi": 71,
                    "time": 714.2750000000157,
                    "velocity": 0.7716535433070866,
                    "duration": 0.03125000000011369
                },
                {
                    "name": "A4",
                    "midi": 69,
                    "time": 714.2750000000157,
                    "velocity": 0.6692913385826772,
                    "duration": 0.03958333333343944
                },
                {
                    "name": "D#6",
                    "midi": 87,
                    "time": 714.2791666666824,
                    "velocity": 0.952755905511811,
                    "duration": 0.10208333333343944
                },
                {
                    "name": "B5",
                    "midi": 83,
                    "time": 714.2833333333491,
                    "velocity": 0.8503937007874016,
                    "duration": 0.06041666666669698
                },
                {
                    "name": "B6",
                    "midi": 95,
                    "time": 714.4000000000158,
                    "velocity": 0.8031496062992126,
                    "duration": 0.09375
                },
                {
                    "name": "G5",
                    "midi": 79,
                    "time": 714.4020833333491,
                    "velocity": 0.6299212598425197,
                    "duration": 0.09375
                },
                {
                    "name": "G2",
                    "midi": 43,
                    "time": 714.6166666666824,
                    "velocity": 0.6929133858267716,
                    "duration": 0.03333333333330302
                },
                {
                    "name": "G3",
                    "midi": 55,
                    "time": 714.627083333349,
                    "velocity": 0.8346456692913385,
                    "duration": 0.0625
                },
                {
                    "name": "C#6",
                    "midi": 85,
                    "time": 714.6312500000157,
                    "velocity": 0.8661417322834646,
                    "duration": 0.32083333333332575
                },
                {
                    "name": "C#7",
                    "midi": 97,
                    "time": 714.633333333349,
                    "velocity": 0.9133858267716536,
                    "duration": 0.28125
                },
                {
                    "name": "A6",
                    "midi": 93,
                    "time": 714.633333333349,
                    "velocity": 0.7874015748031497,
                    "duration": 0.310416666666697
                },
                {
                    "name": "C6",
                    "midi": 84,
                    "time": 714.795833333349,
                    "velocity": 0.7007874015748031,
                    "duration": 0.16041666666671972
                },
                {
                    "name": "B5",
                    "midi": 83,
                    "time": 714.952083333349,
                    "velocity": 0.6456692913385826,
                    "duration": 0.10208333333343944
                },
                {
                    "name": "B4",
                    "midi": 71,
                    "time": 715.0000000000158,
                    "velocity": 0.6771653543307087,
                    "duration": 0.08124999999995453
                },
                {
                    "name": "A4",
                    "midi": 69,
                    "time": 715.0041666666825,
                    "velocity": 0.7716535433070866,
                    "duration": 0.07499999999993179
                },
                {
                    "name": "D#4",
                    "midi": 63,
                    "time": 715.0062500000158,
                    "velocity": 0.8346456692913385,
                    "duration": 0.08124999999995453
                },
                {
                    "name": "A#5",
                    "midi": 82,
                    "time": 715.1041666666824,
                    "velocity": 0.7322834645669292,
                    "duration": 0.1895833333334167
                },
                {
                    "name": "D#4",
                    "midi": 63,
                    "time": 715.2812500000158,
                    "velocity": 0.84251968503937,
                    "duration": 0.022916666666787933
                },
                {
                    "name": "B5",
                    "midi": 83,
                    "time": 715.2937500000158,
                    "velocity": 0.8740157480314961,
                    "duration": 0.08750000000009095
                },
                {
                    "name": "B4",
                    "midi": 71,
                    "time": 715.2979166666826,
                    "velocity": 0.4330708661417323,
                    "duration": 0.054166666666674246
                },
                {
                    "name": "D#6",
                    "midi": 87,
                    "time": 715.3104166666826,
                    "velocity": 0.8661417322834646,
                    "duration": 0.1729166666666515
                },
                {
                    "name": "A5",
                    "midi": 81,
                    "time": 715.3187500000159,
                    "velocity": 0.6929133858267716,
                    "duration": 0.125
                },
                {
                    "name": "B6",
                    "midi": 95,
                    "time": 715.4208333333493,
                    "velocity": 0.6535433070866141,
                    "duration": 0.04166666666662877
                },
                {
                    "name": "G#5",
                    "midi": 80,
                    "time": 715.4520833333493,
                    "velocity": 0.7401574803149606,
                    "duration": 0.11458333333325754
                },
                {
                    "name": "A6",
                    "midi": 93,
                    "time": 715.5645833333492,
                    "velocity": 0.7952755905511811,
                    "duration": 0.5562499999999773
                },
                {
                    "name": "G#2",
                    "midi": 44,
                    "time": 715.5666666666825,
                    "velocity": 0.8976377952755905,
                    "duration": 0.06041666666669698
                },
                {
                    "name": "G#3",
                    "midi": 56,
                    "time": 715.5708333333492,
                    "velocity": 0.8503937007874016,
                    "duration": 0.06041666666669698
                },
                {
                    "name": "A#6",
                    "midi": 94,
                    "time": 715.5854166666826,
                    "velocity": 0.937007874015748,
                    "duration": 0.2041666666666515
                },
                {
                    "name": "A#5",
                    "midi": 82,
                    "time": 715.5854166666826,
                    "velocity": 0.9763779527559056,
                    "duration": 0.11666666666667425
                },
                {
                    "name": "D#6",
                    "midi": 87,
                    "time": 715.5875000000159,
                    "velocity": 0.889763779527559,
                    "duration": 0.20000000000004547
                },
                {
                    "name": "D6",
                    "midi": 86,
                    "time": 715.6208333333492,
                    "velocity": 0.8110236220472441,
                    "duration": 0.19375000000002274
                },
                {
                    "name": "C#6",
                    "midi": 85,
                    "time": 715.7541666666826,
                    "velocity": 0.6614173228346457,
                    "duration": 0.22499999999990905
                },
                {
                    "name": "D#4",
                    "midi": 63,
                    "time": 715.8666666666826,
                    "velocity": 0.8976377952755905,
                    "duration": 0.07291666666662877
                },
                {
                    "name": "A4",
                    "midi": 69,
                    "time": 715.8666666666826,
                    "velocity": 0.7322834645669292,
                    "duration": 0.06458333333330302
                },
                {
                    "name": "B4",
                    "midi": 71,
                    "time": 715.8687500000159,
                    "velocity": 0.8582677165354331,
                    "duration": 0.06458333333330302
                },
                {
                    "name": "C6",
                    "midi": 84,
                    "time": 715.8895833333493,
                    "velocity": 0.6692913385826772,
                    "duration": 0.13541666666662877
                },
                {
                    "name": "B5",
                    "midi": 83,
                    "time": 716.0145833333493,
                    "velocity": 0.6141732283464567,
                    "duration": 0.09791666666660603
                },
                {
                    "name": "B5",
                    "midi": 83,
                    "time": 716.1395833333492,
                    "velocity": 0.9212598425196851,
                    "duration": 0.1395833333333485
                },
                {
                    "name": "B4",
                    "midi": 71,
                    "time": 716.1416666666825,
                    "velocity": 0.7637795275590551,
                    "duration": 0.043750000000045475
                },
                {
                    "name": "D#4",
                    "midi": 63,
                    "time": 716.1437500000158,
                    "velocity": 0.8976377952755905,
                    "duration": 0.06250000000011369
                },
                {
                    "name": "A4",
                    "midi": 69,
                    "time": 716.1500000000158,
                    "velocity": 0.6614173228346457,
                    "duration": 0.03958333333343944
                },
                {
                    "name": "A#5",
                    "midi": 82,
                    "time": 716.1625000000158,
                    "velocity": 0.7559055118110236,
                    "duration": 0.10833333333334849
                },
                {
                    "name": "D#6",
                    "midi": 87,
                    "time": 716.2520833333492,
                    "velocity": 0.905511811023622,
                    "duration": 0.09791666666660603
                },
                {
                    "name": "B6",
                    "midi": 95,
                    "time": 716.2750000000159,
                    "velocity": 0.5590551181102362,
                    "duration": 0.04374999999993179
                },
                {
                    "name": "A5",
                    "midi": 81,
                    "time": 716.2770833333492,
                    "velocity": 0.6614173228346457,
                    "duration": 0.08333333333325754
                },
                {
                    "name": "D#6",
                    "midi": 87,
                    "time": 716.4062500000158,
                    "velocity": 0.8661417322834646,
                    "duration": 0.19791666666651508
                },
                {
                    "name": "A2",
                    "midi": 45,
                    "time": 716.4291666666825,
                    "velocity": 0.6850393700787402,
                    "duration": 0.04166666666674246
                },
                {
                    "name": "C#7",
                    "midi": 97,
                    "time": 716.4333333333492,
                    "velocity": 0.889763779527559,
                    "duration": 0.1687499999998181
                },
                {
                    "name": "C#6",
                    "midi": 85,
                    "time": 716.4354166666825,
                    "velocity": 0.952755905511811,
                    "duration": 0.10624999999993179
                },
                {
                    "name": "A6",
                    "midi": 93,
                    "time": 716.4375000000158,
                    "velocity": 0.7874015748031497,
                    "duration": 0.1541666666665833
                },
                {
                    "name": "A3",
                    "midi": 57,
                    "time": 716.4375000000158,
                    "velocity": 0.6456692913385826,
                    "duration": 0.043750000000045475
                },
                {
                    "name": "G#6",
                    "midi": 92,
                    "time": 716.4437500000158,
                    "velocity": 0.4881889763779528,
                    "duration": 0.05624999999997726
                },
                {
                    "name": "F#6",
                    "midi": 90,
                    "time": 716.4562500000159,
                    "velocity": 0.5748031496062992,
                    "duration": 0.035416666666606034
                },
                {
                    "name": "D6",
                    "midi": 86,
                    "time": 716.5395833333491,
                    "velocity": 0.7401574803149606,
                    "duration": 0.2479166666665833
                },
                {
                    "name": "B4",
                    "midi": 71,
                    "time": 716.702083333349,
                    "velocity": 0.8503937007874016,
                    "duration": 0.05833333333328028
                },
                {
                    "name": "D#4",
                    "midi": 63,
                    "time": 716.702083333349,
                    "velocity": 0.905511811023622,
                    "duration": 0.07083333333332575
                },
                {
                    "name": "A4",
                    "midi": 69,
                    "time": 716.7041666666823,
                    "velocity": 0.8582677165354331,
                    "duration": 0.0625
                },
                {
                    "name": "C#6",
                    "midi": 85,
                    "time": 716.7187500000157,
                    "velocity": 0.7952755905511811,
                    "duration": 0.1687499999999318
                },
                {
                    "name": "C6",
                    "midi": 84,
                    "time": 716.8604166666823,
                    "velocity": 0.6850393700787402,
                    "duration": 0.09791666666660603
                },
                {
                    "name": "B5",
                    "midi": 83,
                    "time": 716.970833333349,
                    "velocity": 0.889763779527559,
                    "duration": 0.17499999999984084
                },
                {
                    "name": "D#4",
                    "midi": 63,
                    "time": 716.9729166666823,
                    "velocity": 0.8976377952755905,
                    "duration": 0.0770833333332348
                },
                {
                    "name": "B4",
                    "midi": 71,
                    "time": 716.9750000000156,
                    "velocity": 0.7244094488188977,
                    "duration": 0.035416666666606034
                },
                {
                    "name": "A4",
                    "midi": 69,
                    "time": 716.9937500000156,
                    "velocity": 0.3700787401574803,
                    "duration": 0.049999999999954525
                },
                {
                    "name": "D#6",
                    "midi": 87,
                    "time": 717.0958333333489,
                    "velocity": 0.905511811023622,
                    "duration": 0.0916666666665833
                },
                {
                    "name": "B6",
                    "midi": 95,
                    "time": 717.1125000000155,
                    "velocity": 0.6377952755905512,
                    "duration": 0.035416666666606034
                },
                {
                    "name": "A#5",
                    "midi": 82,
                    "time": 717.1312500000155,
                    "velocity": 0.7716535433070866,
                    "duration": 0.07499999999993179
                },
                {
                    "name": "A6",
                    "midi": 93,
                    "time": 717.2416666666821,
                    "velocity": 0.8740157480314961,
                    "duration": 0.3583333333333485
                },
                {
                    "name": "A#3",
                    "midi": 58,
                    "time": 717.2479166666822,
                    "velocity": 0.9448818897637795,
                    "duration": 0.05625000000009095
                },
                {
                    "name": "A#2",
                    "midi": 46,
                    "time": 717.2520833333489,
                    "velocity": 0.889763779527559,
                    "duration": 0.04166666666674246
                },
                {
                    "name": "E6",
                    "midi": 88,
                    "time": 717.2645833333489,
                    "velocity": 0.8031496062992126,
                    "duration": 0.1708333333333485
                },
                {
                    "name": "A#6",
                    "midi": 94,
                    "time": 717.270833333349,
                    "velocity": 0.937007874015748,
                    "duration": 0.11458333333337123
                },
                {
                    "name": "A#5",
                    "midi": 82,
                    "time": 717.2729166666822,
                    "velocity": 0.968503937007874,
                    "duration": 0.06666666666671972
                },
                {
                    "name": "D#6",
                    "midi": 87,
                    "time": 717.277083333349,
                    "velocity": 0.8661417322834646,
                    "duration": 0.10208333333332575
                },
                {
                    "name": "D#6",
                    "midi": 87,
                    "time": 717.3791666666823,
                    "velocity": 0.6771653543307087,
                    "duration": 0.23749999999984084
                },
                {
                    "name": "B4",
                    "midi": 71,
                    "time": 717.5395833333489,
                    "velocity": 0.889763779527559,
                    "duration": 0.06249999999988631
                },
                {
                    "name": "A4",
                    "midi": 69,
                    "time": 717.5395833333489,
                    "velocity": 0.84251968503937,
                    "duration": 0.06249999999988631
                },
                {
                    "name": "D6",
                    "midi": 86,
                    "time": 717.5395833333489,
                    "velocity": 0.7244094488188977,
                    "duration": 0.17708333333325754
                },
                {
                    "name": "D#4",
                    "midi": 63,
                    "time": 717.5416666666822,
                    "velocity": 0.9291338582677166,
                    "duration": 0.07291666666662877
                },
                {
                    "name": "C#6",
                    "midi": 85,
                    "time": 717.6562500000155,
                    "velocity": 0.8267716535433071,
                    "duration": 0.16458333333332575
                },
                {
                    "name": "B5",
                    "midi": 83,
                    "time": 717.7875000000155,
                    "velocity": 0.8582677165354331,
                    "duration": 0.13124999999990905
                },
                {
                    "name": "B4",
                    "midi": 71,
                    "time": 717.7979166666821,
                    "velocity": 0.7322834645669292,
                    "duration": 0.03541666666671972
                },
                {
                    "name": "D#4",
                    "midi": 63,
                    "time": 717.7979166666821,
                    "velocity": 0.889763779527559,
                    "duration": 0.07291666666662877
                },
                {
                    "name": "C6",
                    "midi": 84,
                    "time": 717.8041666666821,
                    "velocity": 0.6929133858267716,
                    "duration": 0.12499999999988631
                },
                {
                    "name": "A4",
                    "midi": 69,
                    "time": 717.8062500000154,
                    "velocity": 0.6456692913385826,
                    "duration": 0.04583333333334849
                },
                {
                    "name": "D#6",
                    "midi": 87,
                    "time": 717.8937500000154,
                    "velocity": 0.889763779527559,
                    "duration": 0.08749999999986358
                },
                {
                    "name": "B6",
                    "midi": 95,
                    "time": 717.9312500000153,
                    "velocity": 0.4645669291338583,
                    "duration": 0.049999999999954525
                },
                {
                    "name": "B5",
                    "midi": 83,
                    "time": 717.9458333333487,
                    "velocity": 0.5196850393700787,
                    "duration": 0.04166666666662877
                },
                {
                    "name": "C#7",
                    "midi": 97,
                    "time": 718.0375000000153,
                    "velocity": 0.8976377952755905,
                    "duration": 0.08125000000006821
                },
                {
                    "name": "B3",
                    "midi": 59,
                    "time": 718.041666666682,
                    "velocity": 0.8976377952755905,
                    "duration": 0.058333333333393966
                },
                {
                    "name": "B2",
                    "midi": 47,
                    "time": 718.041666666682,
                    "velocity": 0.8346456692913385,
                    "duration": 0.06041666666669698
                },
                {
                    "name": "D#6",
                    "midi": 87,
                    "time": 718.0437500000153,
                    "velocity": 0.7480314960629921,
                    "duration": 0.05416666666678793
                },
                {
                    "name": "A6",
                    "midi": 93,
                    "time": 718.0458333333486,
                    "velocity": 0.7559055118110236,
                    "duration": 0.06666666666671972
                },
                {
                    "name": "C#6",
                    "midi": 85,
                    "time": 718.0458333333486,
                    "velocity": 0.8976377952755905,
                    "duration": 0.0791666666667652
                },
                {
                    "name": "G6",
                    "midi": 91,
                    "time": 718.0645833333487,
                    "velocity": 0.6220472440944882,
                    "duration": 0.16250000000002274
                },
                {
                    "name": "F6",
                    "midi": 89,
                    "time": 718.0687500000154,
                    "velocity": 0.7559055118110236,
                    "duration": 0.25416666666660603
                },
                {
                    "name": "E6",
                    "midi": 88,
                    "time": 718.1895833333487,
                    "velocity": 0.7165354330708661,
                    "duration": 0.16875000000004547
                },
                {
                    "name": "B5",
                    "midi": 83,
                    "time": 718.310416666682,
                    "velocity": 0.7559055118110236,
                    "duration": 0.05624999999997726
                },
                {
                    "name": "C4",
                    "midi": 60,
                    "time": 718.3125000000153,
                    "velocity": 0.7559055118110236,
                    "duration": 0.03749999999990905
                },
                {
                    "name": "D#6",
                    "midi": 87,
                    "time": 718.3125000000153,
                    "velocity": 0.8582677165354331,
                    "duration": 0.1687499999999318
                },
                {
                    "name": "C3",
                    "midi": 48,
                    "time": 718.3145833333487,
                    "velocity": 0.6850393700787402,
                    "duration": 0.039583333333325754
                },
                {
                    "name": "B6",
                    "midi": 95,
                    "time": 718.4208333333487,
                    "velocity": 0.7165354330708661,
                    "duration": 0.07083333333321207
                },
                {
                    "name": "D6",
                    "midi": 86,
                    "time": 718.4312500000153,
                    "velocity": 0.6614173228346457,
                    "duration": 0.08749999999986358
                },
                {
                    "name": "F#6",
                    "midi": 90,
                    "time": 718.5520833333485,
                    "velocity": 0.8661417322834646,
                    "duration": 0.2062500000000682
                },
                {
                    "name": "A6",
                    "midi": 93,
                    "time": 718.5687500000151,
                    "velocity": 0.7637795275590551,
                    "duration": 0.10833333333334849
                },
                {
                    "name": "A#6",
                    "midi": 94,
                    "time": 718.5687500000151,
                    "velocity": 0.8188976377952756,
                    "duration": 0.11250000000006821
                },
                {
                    "name": "C#4",
                    "midi": 61,
                    "time": 718.5708333333484,
                    "velocity": 0.8976377952755905,
                    "duration": 0.05000000000006821
                },
                {
                    "name": "D#6",
                    "midi": 87,
                    "time": 718.5708333333484,
                    "velocity": 0.7874015748031497,
                    "duration": 0.06666666666671972
                },
                {
                    "name": "C#3",
                    "midi": 49,
                    "time": 718.5750000000152,
                    "velocity": 0.8582677165354331,
                    "duration": 0.05624999999997726
                },
                {
                    "name": "A#5",
                    "midi": 82,
                    "time": 718.5770833333485,
                    "velocity": 0.7322834645669292,
                    "duration": 0.03541666666671972
                },
                {
                    "name": "F6",
                    "midi": 89,
                    "time": 718.6812500000152,
                    "velocity": 0.7401574803149606,
                    "duration": 0.13124999999990905
                },
                {
                    "name": "E6",
                    "midi": 88,
                    "time": 718.8125000000151,
                    "velocity": 0.5984251968503937,
                    "duration": 0.11458333333325754
                },
                {
                    "name": "B5",
                    "midi": 83,
                    "time": 718.8208333333484,
                    "velocity": 0.8188976377952756,
                    "duration": 0.0625
                },
                {
                    "name": "D4",
                    "midi": 62,
                    "time": 718.8229166666817,
                    "velocity": 0.8976377952755905,
                    "duration": 0.05208333333337123
                },
                {
                    "name": "D3",
                    "midi": 50,
                    "time": 718.8270833333485,
                    "velocity": 0.8110236220472441,
                    "duration": 0.049999999999954525
                },
                {
                    "name": "D#6",
                    "midi": 87,
                    "time": 718.8354166666818,
                    "velocity": 0.7716535433070866,
                    "duration": 0.02708333333328028
                },
                {
                    "name": "D#6",
                    "midi": 87,
                    "time": 718.9166666666817,
                    "velocity": 0.7480314960629921,
                    "duration": 0.07291666666662877
                },
                {
                    "name": "A#6",
                    "midi": 94,
                    "time": 718.9479166666817,
                    "velocity": 0.6220472440944882,
                    "duration": 0.0770833333332348
                },
                {
                    "name": "G6",
                    "midi": 91,
                    "time": 719.056250000015,
                    "velocity": 0.8503937007874016,
                    "duration": 0.16041666666671972
                },
                {
                    "name": "D#4",
                    "midi": 63,
                    "time": 719.0895833333483,
                    "velocity": 0.9133858267716536,
                    "duration": 0.05208333333337123
                },
                {
                    "name": "C#7",
                    "midi": 97,
                    "time": 719.0895833333483,
                    "velocity": 0.9291338582677166,
                    "duration": 0.12291666666669698
                },
                {
                    "name": "C#6",
                    "midi": 85,
                    "time": 719.0895833333483,
                    "velocity": 0.952755905511811,
                    "duration": 0.08333333333337123
                },
                {
                    "name": "D#3",
                    "midi": 51,
                    "time": 719.0916666666816,
                    "velocity": 0.9133858267716536,
                    "duration": 0.05625000000009095
                },
                {
                    "name": "A6",
                    "midi": 93,
                    "time": 719.1041666666816,
                    "velocity": 0.6456692913385826,
                    "duration": 0.06041666666669698
                },
                {
                    "name": "F#6",
                    "midi": 90,
                    "time": 719.162500000015,
                    "velocity": 0.6850393700787402,
                    "duration": 0.23333333333346218
                },
                {
                    "name": "F6",
                    "midi": 89,
                    "time": 719.3270833333484,
                    "velocity": 0.5905511811023622,
                    "duration": 0.11666666666678793
                },
                {
                    "name": "B5",
                    "midi": 83,
                    "time": 719.3354166666817,
                    "velocity": 0.7165354330708661,
                    "duration": 0.06041666666681067
                },
                {
                    "name": "D#6",
                    "midi": 87,
                    "time": 719.3395833333484,
                    "velocity": 0.889763779527559,
                    "duration": 0.0791666666667652
                },
                {
                    "name": "E4",
                    "midi": 64,
                    "time": 719.3437500000151,
                    "velocity": 0.8818897637795275,
                    "duration": 0.0645833333334167
                },
                {
                    "name": "E3",
                    "midi": 52,
                    "time": 719.3479166666818,
                    "velocity": 0.7952755905511811,
                    "duration": 0.05624999999997726
                },
                {
                    "name": "B6",
                    "midi": 95,
                    "time": 719.4354166666818,
                    "velocity": 0.7952755905511811,
                    "duration": 0.08541666666656056
                },
                {
                    "name": "E6",
                    "midi": 88,
                    "time": 719.4625000000151,
                    "velocity": 0.47244094488188976,
                    "duration": 0.0770833333332348
                },
                {
                    "name": "F4",
                    "midi": 65,
                    "time": 719.575000000015,
                    "velocity": 0.889763779527559,
                    "duration": 0.05000000000006821
                },
                {
                    "name": "A6",
                    "midi": 93,
                    "time": 719.5770833333484,
                    "velocity": 0.6614173228346457,
                    "duration": 0.10416666666674246
                },
                {
                    "name": "F3",
                    "midi": 53,
                    "time": 719.5791666666817,
                    "velocity": 0.8346456692913385,
                    "duration": 0.03125000000011369
                },
                {
                    "name": "G#6",
                    "midi": 92,
                    "time": 719.5833333333484,
                    "velocity": 0.8976377952755905,
                    "duration": 0.19791666666685614
                },
                {
                    "name": "D#6",
                    "midi": 87,
                    "time": 719.5854166666817,
                    "velocity": 0.7795275590551181,
                    "duration": 0.07500000000004547
                },
                {
                    "name": "A#5",
                    "midi": 82,
                    "time": 719.5895833333484,
                    "velocity": 0.8110236220472441,
                    "duration": 0.06041666666669698
                },
                {
                    "name": "A#6",
                    "midi": 94,
                    "time": 719.6020833333484,
                    "velocity": 0.5354330708661418,
                    "duration": 0.10416666666674246
                },
                {
                    "name": "G6",
                    "midi": 91,
                    "time": 719.6937500000151,
                    "velocity": 0.6456692913385826,
                    "duration": 0.2041666666667652
                },
                {
                    "name": "B5",
                    "midi": 83,
                    "time": 719.8270833333486,
                    "velocity": 0.7637795275590551,
                    "duration": 0.07500000000004547
                },
                {
                    "name": "F#4",
                    "midi": 66,
                    "time": 719.8500000000153,
                    "velocity": 0.8976377952755905,
                    "duration": 0.05208333333337123
                },
                {
                    "name": "F#6",
                    "midi": 90,
                    "time": 719.8500000000153,
                    "velocity": 0.7165354330708661,
                    "duration": 0.11458333333337123
                },
                {
                    "name": "F#3",
                    "midi": 54,
                    "time": 719.8520833333486,
                    "velocity": 0.8818897637795275,
                    "duration": 0.03125
                },
                {
                    "name": "D#6",
                    "midi": 87,
                    "time": 719.9437500000153,
                    "velocity": 0.5905511811023622,
                    "duration": 0.09166666666669698
                },
                {
                    "name": "B6",
                    "midi": 95,
                    "time": 719.9500000000153,
                    "velocity": 0.6062992125984252,
                    "duration": 0.06666666666671972
                },
                {
                    "name": "F6",
                    "midi": 89,
                    "time": 719.9500000000153,
                    "velocity": 0.6299212598425197,
                    "duration": 0.08958333333339397
                },
                {
                    "name": "A#6",
                    "midi": 94,
                    "time": 719.954166666682,
                    "velocity": 0.5118110236220472,
                    "duration": 0.03125
                },
                {
                    "name": "A6",
                    "midi": 93,
                    "time": 720.0625000000153,
                    "velocity": 0.8582677165354331,
                    "duration": 0.16875000000004547
                },
                {
                    "name": "G4",
                    "midi": 67,
                    "time": 720.0812500000153,
                    "velocity": 0.952755905511811,
                    "duration": 0.049999999999954525
                },
                {
                    "name": "G3",
                    "midi": 55,
                    "time": 720.0812500000153,
                    "velocity": 0.8818897637795275,
                    "duration": 0.049999999999954525
                },
                {
                    "name": "C#6",
                    "midi": 85,
                    "time": 720.0895833333486,
                    "velocity": 0.968503937007874,
                    "duration": 0.08958333333339397
                },
                {
                    "name": "C#7",
                    "midi": 97,
                    "time": 720.0916666666819,
                    "velocity": 0.9133858267716536,
                    "duration": 0.12291666666681067
                },
                {
                    "name": "G#6",
                    "midi": 92,
                    "time": 720.1750000000153,
                    "velocity": 0.7322834645669292,
                    "duration": 0.21041666666690162
                },
                {
                    "name": "B5",
                    "midi": 83,
                    "time": 720.3166666666821,
                    "velocity": 0.7952755905511811,
                    "duration": 0.05625000000009095
                },
                {
                    "name": "D#6",
                    "midi": 87,
                    "time": 720.3208333333488,
                    "velocity": 0.905511811023622,
                    "duration": 0.16875000000015916
                },
                {
                    "name": "G#4",
                    "midi": 68,
                    "time": 720.3354166666821,
                    "velocity": 0.952755905511811,
                    "duration": 0.05625000000009095
                },
                {
                    "name": "G6",
                    "midi": 91,
                    "time": 720.3354166666821,
                    "velocity": 0.3543307086614173,
                    "duration": 0.13125000000013642
                },
                {
                    "name": "G#3",
                    "midi": 56,
                    "time": 720.3395833333489,
                    "velocity": 0.9133858267716536,
                    "duration": 0.05625000000009095
                },
                {
                    "name": "B6",
                    "midi": 95,
                    "time": 720.4229166666822,
                    "velocity": 0.7559055118110236,
                    "duration": 0.07708333333334849
                },
                {
                    "name": "F#6",
                    "midi": 90,
                    "time": 720.4437500000156,
                    "velocity": 0.6299212598425197,
                    "duration": 0.08958333333328028
                },
                {
                    "name": "A4",
                    "midi": 69,
                    "time": 720.5479166666822,
                    "velocity": 0.952755905511811,
                    "duration": 0.052083333333484916
                },
                {
                    "name": "A3",
                    "midi": 57,
                    "time": 720.552083333349,
                    "velocity": 0.8976377952755905,
                    "duration": 0.047916666666765195
                },
                {
                    "name": "D#6",
                    "midi": 87,
                    "time": 720.5625000000157,
                    "velocity": 0.7559055118110236,
                    "duration": 0.11875000000009095
                },
                {
                    "name": "A#6",
                    "midi": 94,
                    "time": 720.564583333349,
                    "velocity": 0.8976377952755905,
                    "duration": 0.21250000000009095
                },
                {
                    "name": "A#5",
                    "midi": 82,
                    "time": 720.5666666666823,
                    "velocity": 0.8582677165354331,
                    "duration": 0.10833333333346218
                },
                {
                    "name": "A6",
                    "midi": 93,
                    "time": 720.5791666666823,
                    "velocity": 0.5669291338582677,
                    "duration": 0.2875000000002501
                },
                {
                    "name": "B5",
                    "midi": 83,
                    "time": 720.7833333333491,
                    "velocity": 0.7322834645669292,
                    "duration": 0.07708333333346218
                },
                {
                    "name": "A#4",
                    "midi": 70,
                    "time": 720.7958333333492,
                    "velocity": 0.937007874015748,
                    "duration": 0.058333333333393966
                },
                {
                    "name": "A#3",
                    "midi": 58,
                    "time": 720.8000000000159,
                    "velocity": 0.9133858267716536,
                    "duration": 0.04791666666665151
                },
                {
                    "name": "D#6",
                    "midi": 87,
                    "time": 720.8062500000159,
                    "velocity": 0.5196850393700787,
                    "duration": 0.03125
                },
                {
                    "name": "G#6",
                    "midi": 92,
                    "time": 720.8291666666826,
                    "velocity": 0.6535433070866141,
                    "duration": 0.11458333333337123
                },
                {
                    "name": "B6",
                    "midi": 95,
                    "time": 720.8979166666826,
                    "velocity": 0.8110236220472441,
                    "duration": 0.0645833333334167
                },
                {
                    "name": "D#6",
                    "midi": 87,
                    "time": 720.9041666666826,
                    "velocity": 0.5669291338582677,
                    "duration": 0.03333333333330302
                },
                {
                    "name": "G6",
                    "midi": 91,
                    "time": 720.9312500000159,
                    "velocity": 0.4330708661417323,
                    "duration": 0.06250000000011369
                },
                {
                    "name": "B4",
                    "midi": 71,
                    "time": 721.0270833333493,
                    "velocity": 0.9212598425196851,
                    "duration": 0.047916666666765195
                },
                {
                    "name": "B3",
                    "midi": 59,
                    "time": 721.031250000016,
                    "velocity": 0.9133858267716536,
                    "duration": 0.03125
                },
                {
                    "name": "C#7",
                    "midi": 97,
                    "time": 721.0416666666827,
                    "velocity": 0.8818897637795275,
                    "duration": 0.0958333333334167
                },
                {
                    "name": "A6",
                    "midi": 93,
                    "time": 721.0458333333494,
                    "velocity": 0.7401574803149606,
                    "duration": 0.039583333333325754
                },
                {
                    "name": "A6",
                    "midi": 93,
                    "time": 721.093750000016,
                    "velocity": 0.8818897637795275,
                    "duration": 0.1583333333334167
                },
                {
                    "name": "C7",
                    "midi": 96,
                    "time": 721.1604166666827,
                    "velocity": 0.7874015748031497,
                    "duration": 0.15208333333339397
                },
                {
                    "name": "G#6",
                    "midi": 92,
                    "time": 721.2000000000161,
                    "velocity": 0.7795275590551181,
                    "duration": 0.1395833333333485
                },
                {
                    "name": "C5",
                    "midi": 72,
                    "time": 721.2666666666828,
                    "velocity": 0.8503937007874016,
                    "duration": 0.054166666666674246
                },
                {
                    "name": "B6",
                    "midi": 95,
                    "time": 721.2666666666828,
                    "velocity": 0.7952755905511811,
                    "duration": 0.13125000000002274
                },
                {
                    "name": "C4",
                    "midi": 60,
                    "time": 721.2687500000161,
                    "velocity": 0.8110236220472441,
                    "duration": 0.039583333333325754
                },
                {
                    "name": "G6",
                    "midi": 91,
                    "time": 721.3375000000161,
                    "velocity": 0.6614173228346457,
                    "duration": 0.09375
                },
                {
                    "name": "A#6",
                    "midi": 94,
                    "time": 721.3541666666828,
                    "velocity": 0.8818897637795275,
                    "duration": 0.13125000000002274
                },
                {
                    "name": "F#6",
                    "midi": 90,
                    "time": 721.4375000000161,
                    "velocity": 0.8267716535433071,
                    "duration": 0.1291666666668334
                },
                {
                    "name": "A6",
                    "midi": 93,
                    "time": 721.4645833333494,
                    "velocity": 0.84251968503937,
                    "duration": 0.15208333333362134
                },
                {
                    "name": "C#5",
                    "midi": 73,
                    "time": 721.4770833333495,
                    "velocity": 0.952755905511811,
                    "duration": 0.0645833333334167
                },
                {
                    "name": "C#4",
                    "midi": 61,
                    "time": 721.4833333333495,
                    "velocity": 0.9291338582677166,
                    "duration": 0.06250000000011369
                },
                {
                    "name": "F6",
                    "midi": 89,
                    "time": 721.5500000000163,
                    "velocity": 0.8031496062992126,
                    "duration": 0.10416666666674246
                },
                {
                    "name": "G#6",
                    "midi": 92,
                    "time": 721.5750000000163,
                    "velocity": 0.9291338582677166,
                    "duration": 0.10208333333343944
                },
                {
                    "name": "E6",
                    "midi": 88,
                    "time": 721.6458333333497,
                    "velocity": 0.7559055118110236,
                    "duration": 0.07708333333334849
                },
                {
                    "name": "D5",
                    "midi": 74,
                    "time": 721.6937500000164,
                    "velocity": 0.9133858267716536,
                    "duration": 0.05624999999997726
                },
                {
                    "name": "C#7",
                    "midi": 97,
                    "time": 721.7000000000164,
                    "velocity": 0.8661417322834646,
                    "duration": 0.08541666666667425
                },
                {
                    "name": "D4",
                    "midi": 62,
                    "time": 721.7000000000164,
                    "velocity": 0.8740157480314961,
                    "duration": 0.03333333333330302
                },
                {
                    "name": "A6",
                    "midi": 93,
                    "time": 721.710416666683,
                    "velocity": 0.7322834645669292,
                    "duration": 0.2041666666666515
                },
                {
                    "name": "C7",
                    "midi": 96,
                    "time": 721.804166666683,
                    "velocity": 0.7795275590551181,
                    "duration": 0.14583333333325754
                },
                {
                    "name": "G#6",
                    "midi": 92,
                    "time": 721.8375000000163,
                    "velocity": 0.8110236220472441,
                    "duration": 0.2020833333333485
                },
                {
                    "name": "B6",
                    "midi": 95,
                    "time": 721.9083333333497,
                    "velocity": 0.8503937007874016,
                    "duration": 0.12291666666669698
                },
                {
                    "name": "D#5",
                    "midi": 75,
                    "time": 721.9125000000164,
                    "velocity": 0.968503937007874,
                    "duration": 0.06249999999988631
                },
                {
                    "name": "D#4",
                    "midi": 63,
                    "time": 721.916666666683,
                    "velocity": 0.9448818897637795,
                    "duration": 0.07083333333332575
                },
                {
                    "name": "G6",
                    "midi": 91,
                    "time": 721.9562500000163,
                    "velocity": 0.6692913385826772,
                    "duration": 0.12708333333330302
                },
                {
                    "name": "A#6",
                    "midi": 94,
                    "time": 721.9937500000163,
                    "velocity": 0.8976377952755905,
                    "duration": 0.125
                },
                {
                    "name": "F#6",
                    "midi": 90,
                    "time": 722.0562500000163,
                    "velocity": 0.8188976377952756,
                    "duration": 0.09791666666660603
                },
                {
                    "name": "A6",
                    "midi": 93,
                    "time": 722.1083333333497,
                    "velocity": 0.8110236220472441,
                    "duration": 0.13333333333332575
                },
                {
                    "name": "E5",
                    "midi": 76,
                    "time": 722.1250000000164,
                    "velocity": 0.9212598425196851,
                    "duration": 0.04791666666665151
                },
                {
                    "name": "E4",
                    "midi": 64,
                    "time": 722.1270833333497,
                    "velocity": 0.889763779527559,
                    "duration": 0.04791666666665151
                },
                {
                    "name": "F6",
                    "midi": 89,
                    "time": 722.1458333333496,
                    "velocity": 0.6850393700787402,
                    "duration": 0.12083333333339397
                },
                {
                    "name": "G#6",
                    "midi": 92,
                    "time": 722.204166666683,
                    "velocity": 0.9291338582677166,
                    "duration": 0.15208333333328028
                },
                {
                    "name": "E6",
                    "midi": 88,
                    "time": 722.2583333333497,
                    "velocity": 0.6771653543307087,
                    "duration": 0.035416666666606034
                },
                {
                    "name": "C#7",
                    "midi": 97,
                    "time": 722.3291666666829,
                    "velocity": 0.8582677165354331,
                    "duration": 0.10833333333346218
                },
                {
                    "name": "F5",
                    "midi": 77,
                    "time": 722.3291666666829,
                    "velocity": 0.952755905511811,
                    "duration": 0.05624999999997726
                },
                {
                    "name": "F4",
                    "midi": 65,
                    "time": 722.3333333333496,
                    "velocity": 0.952755905511811,
                    "duration": 0.049999999999954525
                },
                {
                    "name": "A6",
                    "midi": 93,
                    "time": 722.3395833333497,
                    "velocity": 0.8346456692913385,
                    "duration": 0.16875000000015916
                },
                {
                    "name": "G#6",
                    "midi": 92,
                    "time": 722.4291666666829,
                    "velocity": 0.7874015748031497,
                    "duration": 0.2083333333335986
                },
                {
                    "name": "C7",
                    "midi": 96,
                    "time": 722.4333333333497,
                    "velocity": 0.8503937007874016,
                    "duration": 0.15625000000022737
                },
                {
                    "name": "D7",
                    "midi": 98,
                    "time": 722.4583333333497,
                    "velocity": 0.2677165354330709,
                    "duration": 0.03750000000002274
                },
                {
                    "name": "F#5",
                    "midi": 78,
                    "time": 722.5354166666831,
                    "velocity": 0.984251968503937,
                    "duration": 0.06041666666681067
                },
                {
                    "name": "B6",
                    "midi": 95,
                    "time": 722.5395833333498,
                    "velocity": 0.8582677165354331,
                    "duration": 0.13750000000004547
                },
                {
                    "name": "F#4",
                    "midi": 66,
                    "time": 722.5395833333498,
                    "velocity": 0.968503937007874,
                    "duration": 0.05416666666678793
                },
                {
                    "name": "G6",
                    "midi": 91,
                    "time": 722.5520833333499,
                    "velocity": 0.7007874015748031,
                    "duration": 0.14791666666667425
                },
                {
                    "name": "A#6",
                    "midi": 94,
                    "time": 722.6291666666832,
                    "velocity": 0.8976377952755905,
                    "duration": 0.1541666666665833
                },
                {
                    "name": "F#6",
                    "midi": 90,
                    "time": 722.6520833333499,
                    "velocity": 0.8346456692913385,
                    "duration": 0.1395833333332348
                },
                {
                    "name": "A6",
                    "midi": 93,
                    "time": 722.7416666666832,
                    "velocity": 0.8740157480314961,
                    "duration": 0.14791666666667425
                },
                {
                    "name": "G5",
                    "midi": 79,
                    "time": 722.7479166666832,
                    "velocity": 0.9212598425196851,
                    "duration": 0.060416666666583296
                },
                {
                    "name": "G4",
                    "midi": 67,
                    "time": 722.7500000000165,
                    "velocity": 0.889763779527559,
                    "duration": 0.05208333333325754
                },
                {
                    "name": "F6",
                    "midi": 89,
                    "time": 722.7583333333498,
                    "velocity": 0.7559055118110236,
                    "duration": 0.12291666666669698
                },
                {
                    "name": "G#6",
                    "midi": 92,
                    "time": 722.8437500000165,
                    "velocity": 0.9133858267716536,
                    "duration": 0.09791666666671972
                },
                {
                    "name": "E6",
                    "midi": 88,
                    "time": 722.8791666666832,
                    "velocity": 0.7401574803149606,
                    "duration": 0.05833333333328028
                },
                {
                    "name": "G#5",
                    "midi": 80,
                    "time": 722.9583333333499,
                    "velocity": 1,
                    "duration": 0.056249999999863576
                },
                {
                    "name": "G#4",
                    "midi": 68,
                    "time": 722.9604166666832,
                    "velocity": 0.9763779527559056,
                    "duration": 0.05833333333328028
                },
                {
                    "name": "C#7",
                    "midi": 97,
                    "time": 722.9625000000165,
                    "velocity": 0.8818897637795275,
                    "duration": 0.11249999999995453
                },
                {
                    "name": "A6",
                    "midi": 93,
                    "time": 722.9645833333498,
                    "velocity": 0.889763779527559,
                    "duration": 0.1708333333333485
                },
                {
                    "name": "G#6",
                    "midi": 92,
                    "time": 723.0604166666831,
                    "velocity": 0.7165354330708661,
                    "duration": 0.23125000000015916
                },
                {
                    "name": "C7",
                    "midi": 96,
                    "time": 723.0729166666831,
                    "velocity": 0.8503937007874016,
                    "duration": 0.1708333333333485
                },
                {
                    "name": "A5",
                    "midi": 81,
                    "time": 723.1812500000165,
                    "velocity": 0.9448818897637795,
                    "duration": 0.05624999999997726
                },
                {
                    "name": "A4",
                    "midi": 69,
                    "time": 723.1833333333498,
                    "velocity": 0.8818897637795275,
                    "duration": 0.049999999999954525
                },
                {
                    "name": "B6",
                    "midi": 95,
                    "time": 723.1875000000165,
                    "velocity": 0.84251968503937,
                    "duration": 0.13750000000015916
                },
                {
                    "name": "G6",
                    "midi": 91,
                    "time": 723.2062500000164,
                    "velocity": 0.7165354330708661,
                    "duration": 0.1437500000001819
                },
                {
                    "name": "A#6",
                    "midi": 94,
                    "time": 723.2875000000165,
                    "velocity": 0.9448818897637795,
                    "duration": 0.18958333333330302
                },
                {
                    "name": "F#6",
                    "midi": 90,
                    "time": 723.29583333335,
                    "velocity": 0.9291338582677166,
                    "duration": 0.1541666666665833
                },
                {
                    "name": "F6",
                    "midi": 89,
                    "time": 723.3979166666833,
                    "velocity": 0.8740157480314961,
                    "duration": 0.08749999999986358
                },
                {
                    "name": "A6",
                    "midi": 93,
                    "time": 723.4250000000166,
                    "velocity": 0.9212598425196851,
                    "duration": 0.16458333333321207
                },
                {
                    "name": "A#5",
                    "midi": 82,
                    "time": 723.4395833333499,
                    "velocity": 0.984251968503937,
                    "duration": 0.056249999999863576
                },
                {
                    "name": "A#4",
                    "midi": 70,
                    "time": 723.4416666666832,
                    "velocity": 0.9448818897637795,
                    "duration": 0.0770833333332348
                },
                {
                    "name": "E6",
                    "midi": 88,
                    "time": 723.5166666666831,
                    "velocity": 0.9606299212598425,
                    "duration": 0.09583333333330302
                },
                {
                    "name": "G#6",
                    "midi": 92,
                    "time": 723.5583333333498,
                    "velocity": 0.9763779527559056,
                    "duration": 0.07291666666662877
                },
                {
                    "name": "A#0",
                    "midi": 22,
                    "time": 724.7937500000164,
                    "velocity": 1,
                    "duration": 0.502083333332962
                },
                {
                    "name": "D1",
                    "midi": 26,
                    "time": 724.7958333333497,
                    "velocity": 1,
                    "duration": 0.45833333333303017
                },
                {
                    "name": "E1",
                    "midi": 28,
                    "time": 724.797916666683,
                    "velocity": 1,
                    "duration": 0.28749999999990905
                },
                {
                    "name": "C#1",
                    "midi": 25,
                    "time": 724.797916666683,
                    "velocity": 0.984251968503937,
                    "duration": 0.41249999999979536
                },
                {
                    "name": "A0",
                    "midi": 21,
                    "time": 724.797916666683,
                    "velocity": 1,
                    "duration": 0.39374999999972715
                },
                {
                    "name": "B0",
                    "midi": 23,
                    "time": 724.8000000000163,
                    "velocity": 1,
                    "duration": 0.39791666666644687
                },
                {
                    "name": "C1",
                    "midi": 24,
                    "time": 724.804166666683,
                    "velocity": 1,
                    "duration": 0.26874999999984084
                },
                {
                    "name": "B1",
                    "midi": 35,
                    "time": 724.8062500000163,
                    "velocity": 1,
                    "duration": 0.3249999999998181
                },
                {
                    "name": "F1",
                    "midi": 29,
                    "time": 724.8083333333497,
                    "velocity": 1,
                    "duration": 0.28958333333321207
                },
                {
                    "name": "A1",
                    "midi": 33,
                    "time": 724.8083333333497,
                    "velocity": 1,
                    "duration": 0.30208333333325754
                },
                {
                    "name": "D#1",
                    "midi": 27,
                    "time": 724.8083333333497,
                    "velocity": 1,
                    "duration": 0.32083333333321207
                },
                {
                    "name": "G1",
                    "midi": 31,
                    "time": 724.810416666683,
                    "velocity": 1,
                    "duration": 0.2687499999999545
                },
                {
                    "name": "C2",
                    "midi": 36,
                    "time": 724.810416666683,
                    "velocity": 1,
                    "duration": 0.3270833333332348
                },
                {
                    "name": "G#1",
                    "midi": 32,
                    "time": 724.810416666683,
                    "velocity": 0.9448818897637795,
                    "duration": 0.3291666666665378
                },
                {
                    "name": "F#1",
                    "midi": 30,
                    "time": 724.8125000000163,
                    "velocity": 0.984251968503937,
                    "duration": 0.32083333333321207
                },
                {
                    "name": "A#1",
                    "midi": 34,
                    "time": 724.8145833333496,
                    "velocity": 0.9291338582677166,
                    "duration": 0.02708333333328028
                },
                {
                    "name": "A#1",
                    "midi": 34,
                    "time": 724.8729166666828,
                    "velocity": 0.2440944881889764,
                    "duration": 0.21458333333339397
                },
                {
                    "name": "E1",
                    "midi": 28,
                    "time": 725.1729166666828,
                    "velocity": 0.7322834645669292,
                    "duration": 0.1875
                },
                {
                    "name": "F1",
                    "midi": 29,
                    "time": 725.1958333333495,
                    "velocity": 0.47244094488188976,
                    "duration": 0.24166666666656056
                },
                {
                    "name": "C#1",
                    "midi": 25,
                    "time": 725.2520833333494,
                    "velocity": 0.5590551181102362,
                    "duration": 0.12916666666671972
                },
                {
                    "name": "D#1",
                    "midi": 27,
                    "time": 725.3479166666827,
                    "velocity": 0.6377952755905512,
                    "duration": 0.08749999999997726
                },
                {
                    "name": "G1",
                    "midi": 31,
                    "time": 725.3833333333495,
                    "velocity": 0.07086614173228346,
                    "duration": 0.11041666666653782
                },
                {
                    "name": "F#1",
                    "midi": 30,
                    "time": 725.4333333333494,
                    "velocity": 0.5984251968503937,
                    "duration": 0.10208333333321207
                },
                {
                    "name": "A1",
                    "midi": 33,
                    "time": 725.4333333333494,
                    "velocity": 0.16535433070866143,
                    "duration": 0.11458333333325754
                },
                {
                    "name": "B1",
                    "midi": 35,
                    "time": 725.4958333333493,
                    "velocity": 0.10236220472440945,
                    "duration": 0.09791666666671972
                },
                {
                    "name": "G#1",
                    "midi": 32,
                    "time": 725.5083333333494,
                    "velocity": 0.6850393700787402,
                    "duration": 0.06875000000002274
                },
                {
                    "name": "C2",
                    "midi": 36,
                    "time": 725.5479166666827,
                    "velocity": 0.1968503937007874,
                    "duration": 0.09166666666669698
                },
                {
                    "name": "A#1",
                    "midi": 34,
                    "time": 725.5770833333494,
                    "velocity": 0.6141732283464567,
                    "duration": 0.049999999999954525
                },
                {
                    "name": "D2",
                    "midi": 38,
                    "time": 725.5958333333493,
                    "velocity": 0.25196850393700787,
                    "duration": 0.08749999999997726
                },
                {
                    "name": "E2",
                    "midi": 40,
                    "time": 725.6416666666827,
                    "velocity": 0.23622047244094488,
                    "duration": 0.08749999999997726
                },
                {
                    "name": "C#2",
                    "midi": 37,
                    "time": 725.656250000016,
                    "velocity": 0.5118110236220472,
                    "duration": 0.031249999999886313
                },
                {
                    "name": "F2",
                    "midi": 41,
                    "time": 725.6854166666826,
                    "velocity": 0.4015748031496063,
                    "duration": 0.08541666666667425
                },
                {
                    "name": "D#2",
                    "midi": 39,
                    "time": 725.7041666666826,
                    "velocity": 0.6220472440944882,
                    "duration": 0.03125000000011369
                },
                {
                    "name": "G2",
                    "midi": 43,
                    "time": 725.7250000000159,
                    "velocity": 0.5511811023622047,
                    "duration": 0.08958333333328028
                },
                {
                    "name": "A2",
                    "midi": 45,
                    "time": 725.762500000016,
                    "velocity": 0.5669291338582677,
                    "duration": 0.09583333333330302
                },
                {
                    "name": "F#2",
                    "midi": 42,
                    "time": 725.768750000016,
                    "velocity": 0.5748031496062992,
                    "duration": 0.049999999999954525
                },
                {
                    "name": "B2",
                    "midi": 47,
                    "time": 725.8041666666826,
                    "velocity": 0.5590551181102362,
                    "duration": 0.10208333333332575
                },
                {
                    "name": "G#2",
                    "midi": 44,
                    "time": 725.8208333333492,
                    "velocity": 0.6771653543307087,
                    "duration": 0.05625000000009095
                },
                {
                    "name": "C3",
                    "midi": 48,
                    "time": 725.8541666666825,
                    "velocity": 0.5118110236220472,
                    "duration": 0.09791666666660603
                },
                {
                    "name": "A#2",
                    "midi": 46,
                    "time": 725.8729166666826,
                    "velocity": 0.7165354330708661,
                    "duration": 0.05833333333328028
                },
                {
                    "name": "D3",
                    "midi": 50,
                    "time": 725.9041666666826,
                    "velocity": 0.47244094488188976,
                    "duration": 0.09999999999990905
                },
                {
                    "name": "E3",
                    "midi": 52,
                    "time": 725.9479166666825,
                    "velocity": 0.47244094488188976,
                    "duration": 0.10624999999993179
                },
                {
                    "name": "C#3",
                    "midi": 49,
                    "time": 725.9500000000158,
                    "velocity": 0.5669291338582677,
                    "duration": 0.07083333333332575
                },
                {
                    "name": "F3",
                    "midi": 53,
                    "time": 725.9958333333492,
                    "velocity": 0.44881889763779526,
                    "duration": 0.09791666666660603
                },
                {
                    "name": "D#3",
                    "midi": 51,
                    "time": 726.0187500000159,
                    "velocity": 0.7401574803149606,
                    "duration": 0.05416666666656056
                },
                {
                    "name": "G3",
                    "midi": 55,
                    "time": 726.0437500000158,
                    "velocity": 0.44881889763779526,
                    "duration": 0.10208333333332575
                },
                {
                    "name": "F#3",
                    "midi": 54,
                    "time": 726.0875000000158,
                    "velocity": 0.5984251968503937,
                    "duration": 0.06875000000002274
                },
                {
                    "name": "A3",
                    "midi": 57,
                    "time": 726.0875000000158,
                    "velocity": 0.5196850393700787,
                    "duration": 0.10208333333332575
                },
                {
                    "name": "B3",
                    "midi": 59,
                    "time": 726.1312500000158,
                    "velocity": 0.5118110236220472,
                    "duration": 0.10833333333312112
                },
                {
                    "name": "G#3",
                    "midi": 56,
                    "time": 726.1479166666825,
                    "velocity": 0.7795275590551181,
                    "duration": 0.06249999999988631
                },
                {
                    "name": "C4",
                    "midi": 60,
                    "time": 726.1875000000158,
                    "velocity": 0.5511811023622047,
                    "duration": 0.09583333333307564
                },
                {
                    "name": "A#3",
                    "midi": 58,
                    "time": 726.2000000000157,
                    "velocity": 0.7559055118110236,
                    "duration": 0.056249999999863576
                },
                {
                    "name": "D4",
                    "midi": 62,
                    "time": 726.2375000000156,
                    "velocity": 0.5590551181102362,
                    "duration": 0.09791666666660603
                },
                {
                    "name": "C#4",
                    "midi": 61,
                    "time": 726.2645833333489,
                    "velocity": 0.5511811023622047,
                    "duration": 0.07500000000004547
                },
                {
                    "name": "E4",
                    "midi": 64,
                    "time": 726.2833333333489,
                    "velocity": 0.5748031496062992,
                    "duration": 0.10208333333343944
                },
                {
                    "name": "D#4",
                    "midi": 63,
                    "time": 726.3250000000155,
                    "velocity": 0.7086614173228346,
                    "duration": 0.06250000000011369
                },
                {
                    "name": "F4",
                    "midi": 65,
                    "time": 726.3291666666822,
                    "velocity": 0.47244094488188976,
                    "duration": 0.09375000000011369
                },
                {
                    "name": "G4",
                    "midi": 67,
                    "time": 726.370833333349,
                    "velocity": 0.4645669291338583,
                    "duration": 0.0958333333334167
                },
                {
                    "name": "F#4",
                    "midi": 66,
                    "time": 726.383333333349,
                    "velocity": 0.05511811023622047,
                    "duration": 0.08333333333337123
                },
                {
                    "name": "A4",
                    "midi": 69,
                    "time": 726.408333333349,
                    "velocity": 0.5511811023622047,
                    "duration": 0.0958333333334167
                },
                {
                    "name": "G#4",
                    "midi": 68,
                    "time": 726.445833333349,
                    "velocity": 0.6141732283464567,
                    "duration": 0.06666666666671972
                },
                {
                    "name": "B4",
                    "midi": 71,
                    "time": 726.452083333349,
                    "velocity": 0.5354330708661418,
                    "duration": 0.09166666666669698
                },
                {
                    "name": "A#4",
                    "midi": 70,
                    "time": 726.4895833333491,
                    "velocity": 0.7165354330708661,
                    "duration": 0.054166666666674246
                },
                {
                    "name": "C5",
                    "midi": 72,
                    "time": 726.4937500000158,
                    "velocity": 0.5826771653543307,
                    "duration": 0.08541666666656056
                },
                {
                    "name": "D5",
                    "midi": 74,
                    "time": 726.5312500000157,
                    "velocity": 0.6377952755905512,
                    "duration": 0.08541666666667425
                },
                {
                    "name": "C#5",
                    "midi": 73,
                    "time": 726.5354166666824,
                    "velocity": 0.7322834645669292,
                    "duration": 0.07916666666665151
                },
                {
                    "name": "E5",
                    "midi": 76,
                    "time": 726.5687500000157,
                    "velocity": 0.6535433070866141,
                    "duration": 0.08749999999997726
                },
                {
                    "name": "D#5",
                    "midi": 75,
                    "time": 726.5916666666824,
                    "velocity": 0.7244094488188977,
                    "duration": 0.054166666666674246
                },
                {
                    "name": "F5",
                    "midi": 77,
                    "time": 726.6104166666823,
                    "velocity": 0.5905511811023622,
                    "duration": 0.08541666666656056
                },
                {
                    "name": "F#5",
                    "midi": 78,
                    "time": 726.6375000000157,
                    "velocity": 0.7874015748031497,
                    "duration": 0.08541666666644687
                },
                {
                    "name": "G5",
                    "midi": 79,
                    "time": 726.6458333333491,
                    "velocity": 0.7007874015748031,
                    "duration": 0.09166666666646961
                },
                {
                    "name": "A5",
                    "midi": 81,
                    "time": 726.683333333349,
                    "velocity": 0.6220472440944882,
                    "duration": 0.08958333333316659
                },
                {
                    "name": "G#5",
                    "midi": 80,
                    "time": 726.6937500000156,
                    "velocity": 0.7716535433070866,
                    "duration": 0.07083333333321207
                },
                {
                    "name": "B5",
                    "midi": 83,
                    "time": 726.7250000000155,
                    "velocity": 0.5669291338582677,
                    "duration": 0.08541666666667425
                },
                {
                    "name": "A#5",
                    "midi": 82,
                    "time": 726.7312500000155,
                    "velocity": 0.7007874015748031,
                    "duration": 0.05416666666656056
                },
                {
                    "name": "C6",
                    "midi": 84,
                    "time": 726.7645833333488,
                    "velocity": 0.6377952755905512,
                    "duration": 0.08333333333325754
                },
                {
                    "name": "C#6",
                    "midi": 85,
                    "time": 726.7833333333488,
                    "velocity": 0.7795275590551181,
                    "duration": 0.07708333333334849
                },
                {
                    "name": "D6",
                    "midi": 86,
                    "time": 726.7979166666821,
                    "velocity": 0.6692913385826772,
                    "duration": 0.08958333333328028
                },
                {
                    "name": "D#6",
                    "midi": 87,
                    "time": 726.8375000000154,
                    "velocity": 0.7165354330708661,
                    "duration": 0.054166666666674246
                },
                {
                    "name": "E6",
                    "midi": 88,
                    "time": 726.8395833333487,
                    "velocity": 0.5590551181102362,
                    "duration": 0.08333333333337123
                },
                {
                    "name": "F6",
                    "midi": 89,
                    "time": 726.8750000000155,
                    "velocity": 0.6456692913385826,
                    "duration": 0.08958333333328028
                },
                {
                    "name": "F#6",
                    "midi": 90,
                    "time": 726.8854166666821,
                    "velocity": 0.6929133858267716,
                    "duration": 0.07708333333334849
                },
                {
                    "name": "G6",
                    "midi": 91,
                    "time": 726.9104166666821,
                    "velocity": 0.6456692913385826,
                    "duration": 0.0958333333334167
                },
                {
                    "name": "G#6",
                    "midi": 92,
                    "time": 726.9375000000155,
                    "velocity": 0.3937007874015748,
                    "duration": 0.07083333333332575
                },
                {
                    "name": "A6",
                    "midi": 93,
                    "time": 726.9562500000154,
                    "velocity": 0.5590551181102362,
                    "duration": 0.08958333333339397
                },
                {
                    "name": "A#6",
                    "midi": 94,
                    "time": 726.9791666666821,
                    "velocity": 0.5511811023622047,
                    "duration": 0.1250000000001137
                },
                {
                    "name": "B6",
                    "midi": 95,
                    "time": 726.9937500000154,
                    "velocity": 0.6141732283464567,
                    "duration": 0.10208333333343944
                },
                {
                    "name": "C7",
                    "midi": 96,
                    "time": 727.0312500000155,
                    "velocity": 0.7007874015748031,
                    "duration": 0.10000000000002274
                },
                {
                    "name": "C#7",
                    "midi": 97,
                    "time": 727.0375000000155,
                    "velocity": 0.6299212598425197,
                    "duration": 0.11875000000009095
                },
                {
                    "name": "D7",
                    "midi": 98,
                    "time": 727.0666666666822,
                    "velocity": 0.6299212598425197,
                    "duration": 0.10000000000002274
                },
                {
                    "name": "E7",
                    "midi": 100,
                    "time": 727.1062500000155,
                    "velocity": 0.48031496062992124,
                    "duration": 0.08541666666667425
                },
                {
                    "name": "F7",
                    "midi": 101,
                    "time": 727.1437500000155,
                    "velocity": 0.5984251968503937,
                    "duration": 0.08541666666667425
                },
                {
                    "name": "G7",
                    "midi": 103,
                    "time": 727.1916666666822,
                    "velocity": 0.5826771653543307,
                    "duration": 0.07708333333346218
                },
                {
                    "name": "A7",
                    "midi": 105,
                    "time": 727.2333333333489,
                    "velocity": 0.6614173228346457,
                    "duration": 0.05000000000006821
                },
                {
                    "name": "G#7",
                    "midi": 104,
                    "time": 727.3229166666823,
                    "velocity": 0.5826771653543307,
                    "duration": 0.18333333333339397
                },
                {
                    "name": "A7",
                    "midi": 105,
                    "time": 727.3625000000156,
                    "velocity": 0.30708661417322836,
                    "duration": 0.17708333333337123
                },
                {
                    "name": "C8",
                    "midi": 108,
                    "time": 727.3750000000157,
                    "velocity": 0.36220472440944884,
                    "duration": 0.05624999999997726
                },
                {
                    "name": "B7",
                    "midi": 107,
                    "time": 727.3854166666823,
                    "velocity": 0.6220472440944882,
                    "duration": 0.08958333333339397
                },
                {
                    "name": "G7",
                    "midi": 103,
                    "time": 727.470833333349,
                    "velocity": 0.4015748031496063,
                    "duration": 0.1250000000001137
                },
                {
                    "name": "F#7",
                    "midi": 102,
                    "time": 727.5000000000157,
                    "velocity": 0.7244094488188977,
                    "duration": 0.07500000000004547
                },
                {
                    "name": "F7",
                    "midi": 101,
                    "time": 727.5312500000157,
                    "velocity": 0.41732283464566927,
                    "duration": 0.11458333333337123
                },
                {
                    "name": "E7",
                    "midi": 100,
                    "time": 727.5812500000158,
                    "velocity": 0.3543307086614173,
                    "duration": 0.10625000000004547
                },
                {
                    "name": "D#7",
                    "midi": 99,
                    "time": 727.5875000000158,
                    "velocity": 0.5748031496062992,
                    "duration": 0.07291666666662877
                },
                {
                    "name": "D7",
                    "midi": 98,
                    "time": 727.6291666666824,
                    "velocity": 0.29133858267716534,
                    "duration": 0.10625000000004547
                },
                {
                    "name": "C#7",
                    "midi": 97,
                    "time": 727.6687500000157,
                    "velocity": 0.48031496062992124,
                    "duration": 0.05000000000006821
                },
                {
                    "name": "C7",
                    "midi": 96,
                    "time": 727.6750000000158,
                    "velocity": 0.25984251968503935,
                    "duration": 0.10208333333332575
                },
                {
                    "name": "B6",
                    "midi": 95,
                    "time": 727.7104166666825,
                    "velocity": 0.33858267716535434,
                    "duration": 0.10624999999993179
                },
                {
                    "name": "A6",
                    "midi": 93,
                    "time": 727.7500000000158,
                    "velocity": 0.3228346456692913,
                    "duration": 0.11458333333337123
                },
                {
                    "name": "A#6",
                    "midi": 94,
                    "time": 727.7500000000158,
                    "velocity": 0.4645669291338583,
                    "duration": 0.03125
                },
                {
                    "name": "G6",
                    "midi": 91,
                    "time": 727.7895833333491,
                    "velocity": 0.36220472440944884,
                    "duration": 0.11874999999997726
                },
                {
                    "name": "G#6",
                    "midi": 92,
                    "time": 727.7979166666825,
                    "velocity": 0.5669291338582677,
                    "duration": 0.03125
                },
                {
                    "name": "F6",
                    "midi": 89,
                    "time": 727.8354166666825,
                    "velocity": 0.3228346456692913,
                    "duration": 0.11249999999984084
                },
                {
                    "name": "F#6",
                    "midi": 90,
                    "time": 727.8583333333492,
                    "velocity": 0.5511811023622047,
                    "duration": 0.03125
                },
                {
                    "name": "E6",
                    "midi": 88,
                    "time": 727.8875000000158,
                    "velocity": 0.25196850393700787,
                    "duration": 0.10208333333309838
                },
                {
                    "name": "D6",
                    "midi": 86,
                    "time": 727.9354166666824,
                    "velocity": 0.15748031496062992,
                    "duration": 0.09791666666660603
                },
                {
                    "name": "D#6",
                    "midi": 87,
                    "time": 727.9375000000157,
                    "velocity": 0.5433070866141733,
                    "duration": 0.035416666666606034
                },
                {
                    "name": "C6",
                    "midi": 84,
                    "time": 727.9812500000156,
                    "velocity": 0.14960629921259844,
                    "duration": 0.10000000000002274
                },
                {
                    "name": "C#6",
                    "midi": 85,
                    "time": 727.9875000000156,
                    "velocity": 0.5354330708661418,
                    "duration": 0.03125
                },
                {
                    "name": "B5",
                    "midi": 83,
                    "time": 728.0062500000156,
                    "velocity": 0.33070866141732286,
                    "duration": 0.1270833333335304
                },
                {
                    "name": "A5",
                    "midi": 81,
                    "time": 728.0437500000156,
                    "velocity": 0.4409448818897638,
                    "duration": 0.13958333333346218
                },
                {
                    "name": "A#5",
                    "midi": 82,
                    "time": 728.0458333333489,
                    "velocity": 0.4409448818897638,
                    "duration": 0.052083333333484916
                },
                {
                    "name": "G#5",
                    "midi": 80,
                    "time": 728.0937500000157,
                    "velocity": 0.5669291338582677,
                    "duration": 0.0645833333334167
                },
                {
                    "name": "G5",
                    "midi": 79,
                    "time": 728.0937500000157,
                    "velocity": 0.4645669291338583,
                    "duration": 0.13750000000004547
                },
                {
                    "name": "F#5",
                    "midi": 78,
                    "time": 728.1437500000158,
                    "velocity": 0.5511811023622047,
                    "duration": 0.07083333333332575
                },
                {
                    "name": "F5",
                    "midi": 77,
                    "time": 728.1500000000158,
                    "velocity": 0.3464566929133858,
                    "duration": 0.1374999999999318
                },
                {
                    "name": "E5",
                    "midi": 76,
                    "time": 728.1937500000157,
                    "velocity": 0.4330708661417323,
                    "duration": 0.13750000000015916
                },
                {
                    "name": "D#5",
                    "midi": 75,
                    "time": 728.2166666666824,
                    "velocity": 0.09448818897637795,
                    "duration": 0.08333333333348492
                },
                {
                    "name": "D5",
                    "midi": 74,
                    "time": 728.2479166666824,
                    "velocity": 0.3937007874015748,
                    "duration": 0.1270833333335304
                },
                {
                    "name": "C5",
                    "midi": 72,
                    "time": 728.2916666666824,
                    "velocity": 0.4330708661417323,
                    "duration": 0.1250000000001137
                },
                {
                    "name": "C#5",
                    "midi": 73,
                    "time": 728.2958333333492,
                    "velocity": 0.5118110236220472,
                    "duration": 0.06041666666669698
                },
                {
                    "name": "B4",
                    "midi": 71,
                    "time": 728.3291666666826,
                    "velocity": 0.5118110236220472,
                    "duration": 0.13541666666651508
                },
                {
                    "name": "A#4",
                    "midi": 70,
                    "time": 728.3708333333492,
                    "velocity": 0.3779527559055118,
                    "duration": 0.06666666666660603
                },
                {
                    "name": "A4",
                    "midi": 69,
                    "time": 728.3770833333492,
                    "velocity": 0.4330708661417323,
                    "duration": 0.1520833333331666
                },
                {
                    "name": "G#4",
                    "midi": 68,
                    "time": 728.4270833333492,
                    "velocity": 0.6456692913385826,
                    "duration": 0.07083333333321207
                },
                {
                    "name": "G4",
                    "midi": 67,
                    "time": 728.4270833333492,
                    "velocity": 0.3937007874015748,
                    "duration": 0.14791666666644687
                },
                {
                    "name": "F4",
                    "midi": 65,
                    "time": 728.4750000000157,
                    "velocity": 0.3779527559055118,
                    "duration": 0.13541666666662877
                },
                {
                    "name": "F#4",
                    "midi": 66,
                    "time": 728.4791666666824,
                    "velocity": 0.7480314960629921,
                    "duration": 0.07499999999993179
                },
                {
                    "name": "E4",
                    "midi": 64,
                    "time": 728.5229166666824,
                    "velocity": 0.4881889763779528,
                    "duration": 0.1416666666666515
                },
                {
                    "name": "D#4",
                    "midi": 63,
                    "time": 728.545833333349,
                    "velocity": 0.10236220472440945,
                    "duration": 0.09375
                },
                {
                    "name": "D4",
                    "midi": 62,
                    "time": 728.5729166666823,
                    "velocity": 0.5196850393700787,
                    "duration": 0.1416666666666515
                },
                {
                    "name": "C4",
                    "midi": 60,
                    "time": 728.6229166666824,
                    "velocity": 0.4094488188976378,
                    "duration": 0.15208333333339397
                },
                {
                    "name": "C#4",
                    "midi": 61,
                    "time": 728.6229166666824,
                    "velocity": 0.7244094488188977,
                    "duration": 0.0770833333332348
                },
                {
                    "name": "B3",
                    "midi": 59,
                    "time": 728.6625000000157,
                    "velocity": 0.5590551181102362,
                    "duration": 0.16041666666671972
                },
                {
                    "name": "A#3",
                    "midi": 58,
                    "time": 728.689583333349,
                    "velocity": 0.10236220472440945,
                    "duration": 0.1104166666667652
                },
                {
                    "name": "A3",
                    "midi": 57,
                    "time": 728.7104166666822,
                    "velocity": 0.5511811023622047,
                    "duration": 0.16875000000015916
                },
                {
                    "name": "G3",
                    "midi": 55,
                    "time": 728.7666666666823,
                    "velocity": 0.5039370078740157,
                    "duration": 0.15208333333350765
                },
                {
                    "name": "G#3",
                    "midi": 56,
                    "time": 728.7708333333491,
                    "velocity": 0.6377952755905512,
                    "duration": 0.08333333333337123
                },
                {
                    "name": "F3",
                    "midi": 53,
                    "time": 728.8166666666824,
                    "velocity": 0.5354330708661418,
                    "duration": 0.15000000000009095
                },
                {
                    "name": "F#3",
                    "midi": 54,
                    "time": 728.8333333333491,
                    "velocity": 0.6535433070866141,
                    "duration": 0.06875000000002274
                },
                {
                    "name": "E3",
                    "midi": 52,
                    "time": 728.8625000000158,
                    "velocity": 0.6535433070866141,
                    "duration": 0.15208333333339397
                },
                {
                    "name": "D3",
                    "midi": 50,
                    "time": 728.9062500000158,
                    "velocity": 0.6062992125984252,
                    "duration": 0.1416666666666515
                },
                {
                    "name": "D#3",
                    "midi": 51,
                    "time": 728.9125000000158,
                    "velocity": 0.5669291338582677,
                    "duration": 0.06041666666669698
                },
                {
                    "name": "C3",
                    "midi": 48,
                    "time": 728.9458333333491,
                    "velocity": 0.6456692913385826,
                    "duration": 0.15208333333339397
                },
                {
                    "name": "C#3",
                    "midi": 49,
                    "time": 728.9687500000158,
                    "velocity": 0.6771653543307087,
                    "duration": 0.05624999999997726
                },
                {
                    "name": "B2",
                    "midi": 47,
                    "time": 728.9895833333492,
                    "velocity": 0.6377952755905512,
                    "duration": 0.14791666666667425
                },
                {
                    "name": "A2",
                    "midi": 45,
                    "time": 729.0333333333491,
                    "velocity": 0.5984251968503937,
                    "duration": 0.13958333333346218
                },
                {
                    "name": "A#2",
                    "midi": 46,
                    "time": 729.0416666666824,
                    "velocity": 0.4409448818897638,
                    "duration": 0.058333333333393966
                },
                {
                    "name": "G2",
                    "midi": 43,
                    "time": 729.0770833333492,
                    "velocity": 0.6535433070866141,
                    "duration": 0.13333333333343944
                },
                {
                    "name": "G#2",
                    "midi": 44,
                    "time": 729.0895833333492,
                    "velocity": 0.5511811023622047,
                    "duration": 0.06041666666669698
                },
                {
                    "name": "F2",
                    "midi": 41,
                    "time": 729.1229166666825,
                    "velocity": 0.6614173228346457,
                    "duration": 0.14583333333348492
                },
                {
                    "name": "F#2",
                    "midi": 42,
                    "time": 729.1333333333491,
                    "velocity": 0.5984251968503937,
                    "duration": 0.06875000000013642
                },
                {
                    "name": "E2",
                    "midi": 40,
                    "time": 729.1708333333493,
                    "velocity": 0.6062992125984252,
                    "duration": 0.15416666666669698
                },
                {
                    "name": "D#2",
                    "midi": 39,
                    "time": 729.1958333333492,
                    "velocity": 0.6299212598425197,
                    "duration": 0.08958333333339397
                },
                {
                    "name": "D2",
                    "midi": 38,
                    "time": 729.2229166666826,
                    "velocity": 0.5511811023622047,
                    "duration": 0.1708333333333485
                },
                {
                    "name": "C#2",
                    "midi": 37,
                    "time": 729.2729166666827,
                    "velocity": 0.41732283464566927,
                    "duration": 0.11249999999995453
                },
                {
                    "name": "C2",
                    "midi": 36,
                    "time": 729.2833333333493,
                    "velocity": 0.6220472440944882,
                    "duration": 0.17916666666667425
                },
                {
                    "name": "A#1",
                    "midi": 34,
                    "time": 729.325000000016,
                    "velocity": 0.7401574803149606,
                    "duration": 0.2062500000000682
                },
                {
                    "name": "B1",
                    "midi": 35,
                    "time": 729.356250000016,
                    "velocity": 0.49606299212598426,
                    "duration": 0.20833333333348492
                },
                {
                    "name": "G#1",
                    "midi": 32,
                    "time": 729.3708333333493,
                    "velocity": 0.6535433070866141,
                    "duration": 0.0625
                },
                {
                    "name": "F#1",
                    "midi": 30,
                    "time": 729.4125000000159,
                    "velocity": 0.6377952755905512,
                    "duration": 0.06041666666669698
                },
                {
                    "name": "A1",
                    "midi": 33,
                    "time": 729.425000000016,
                    "velocity": 0.48031496062992124,
                    "duration": 0.21250000000009095
                },
                {
                    "name": "D#1",
                    "midi": 27,
                    "time": 729.4645833333493,
                    "velocity": 0.7086614173228346,
                    "duration": 0.07083333333343944
                },
                {
                    "name": "G1",
                    "midi": 31,
                    "time": 729.518750000016,
                    "velocity": 0.2992125984251969,
                    "duration": 0.16041666666671972
                },
                {
                    "name": "C#1",
                    "midi": 25,
                    "time": 729.5229166666827,
                    "velocity": 0.6771653543307087,
                    "duration": 0.07500000000004547
                },
                {
                    "name": "G#1",
                    "midi": 32,
                    "time": 729.5520833333494,
                    "velocity": 0.3779527559055118,
                    "duration": 0.03541666666671972
                },
                {
                    "name": "F1",
                    "midi": 29,
                    "time": 729.5979166666827,
                    "velocity": 0.4094488188976378,
                    "duration": 0.08124999999995453
                },
                {
                    "name": "A#0",
                    "midi": 22,
                    "time": 729.6062500000161,
                    "velocity": 0.5590551181102362,
                    "duration": 0.08749999999997726
                },
                {
                    "name": "E1",
                    "midi": 28,
                    "time": 729.6541666666827,
                    "velocity": 0.4645669291338583,
                    "duration": 0.035416666666606034
                },
                {
                    "name": "A#1",
                    "midi": 34,
                    "time": 733.9291666666827,
                    "velocity": 0.7874015748031497,
                    "duration": 0.06875000000002274
                },
                {
                    "name": "C2",
                    "midi": 36,
                    "time": 733.9833333333494,
                    "velocity": 0.2440944881889764,
                    "duration": 0.054166666666674246
                },
                {
                    "name": "D2",
                    "midi": 38,
                    "time": 733.9895833333494,
                    "velocity": 0.5511811023622047,
                    "duration": 0.10208333333332575
                },
                {
                    "name": "C#2",
                    "midi": 37,
                    "time": 734.0041666666827,
                    "velocity": 0.5433070866141733,
                    "duration": 0.11041666666665151
                },
                {
                    "name": "E2",
                    "midi": 40,
                    "time": 734.0604166666827,
                    "velocity": 0.07086614173228346,
                    "duration": 0.09375
                },
                {
                    "name": "D#2",
                    "midi": 39,
                    "time": 734.0916666666827,
                    "velocity": 0.4094488188976378,
                    "duration": 0.08541666666667425
                },
                {
                    "name": "F2",
                    "midi": 41,
                    "time": 734.1145833333494,
                    "velocity": 0.12598425196850394,
                    "duration": 0.08749999999997726
                },
                {
                    "name": "G2",
                    "midi": 43,
                    "time": 734.1437500000161,
                    "velocity": 0.36220472440944884,
                    "duration": 0.11666666666656056
                },
                {
                    "name": "F#2",
                    "midi": 42,
                    "time": 734.1541666666827,
                    "velocity": 0.6456692913385826,
                    "duration": 0.10624999999993179
                },
                {
                    "name": "A2",
                    "midi": 45,
                    "time": 734.1833333333494,
                    "velocity": 0.2047244094488189,
                    "duration": 0.11874999999986358
                },
                {
                    "name": "G#2",
                    "midi": 44,
                    "time": 734.2166666666827,
                    "velocity": 0.2755905511811024,
                    "duration": 0.09583333333318933
                },
                {
                    "name": "B2",
                    "midi": 47,
                    "time": 734.2354166666827,
                    "velocity": 0.2125984251968504,
                    "duration": 0.11249999999984084
                },
                {
                    "name": "A#2",
                    "midi": 46,
                    "time": 734.2791666666826,
                    "velocity": 0.25984251968503935,
                    "duration": 0.08749999999986358
                },
                {
                    "name": "C3",
                    "midi": 48,
                    "time": 734.2875000000159,
                    "velocity": 0.3464566929133858,
                    "duration": 0.10208333333321207
                },
                {
                    "name": "D3",
                    "midi": 50,
                    "time": 734.3312500000159,
                    "velocity": 0.3858267716535433,
                    "duration": 0.10208333333332575
                },
                {
                    "name": "C#3",
                    "midi": 49,
                    "time": 734.3479166666825,
                    "velocity": 0.7007874015748031,
                    "duration": 0.08958333333339397
                },
                {
                    "name": "E3",
                    "midi": 52,
                    "time": 734.3729166666825,
                    "velocity": 0.2992125984251969,
                    "duration": 0.10416666666674246
                },
                {
                    "name": "D#3",
                    "midi": 51,
                    "time": 734.4104166666825,
                    "velocity": 0.4015748031496063,
                    "duration": 0.0791666666667652
                },
                {
                    "name": "F3",
                    "midi": 53,
                    "time": 734.4187500000158,
                    "velocity": 0.2440944881889764,
                    "duration": 0.09791666666683341
                },
                {
                    "name": "G3",
                    "midi": 55,
                    "time": 734.4541666666826,
                    "velocity": 0.23622047244094488,
                    "duration": 0.10833333333346218
                },
                {
                    "name": "F#3",
                    "midi": 54,
                    "time": 734.4687500000159,
                    "velocity": 0.8188976377952756,
                    "duration": 0.08750000000009095
                },
                {
                    "name": "A3",
                    "midi": 57,
                    "time": 734.493750000016,
                    "velocity": 0.2283464566929134,
                    "duration": 0.1104166666667652
                },
                {
                    "name": "G#3",
                    "midi": 56,
                    "time": 734.5291666666827,
                    "velocity": 0.4015748031496063,
                    "duration": 0.07500000000004547
                },
                {
                    "name": "B3",
                    "midi": 59,
                    "time": 734.5395833333494,
                    "velocity": 0.2047244094488189,
                    "duration": 0.10208333333332575
                },
                {
                    "name": "A#3",
                    "midi": 58,
                    "time": 734.5770833333494,
                    "velocity": 0.36220472440944884,
                    "duration": 0.07083333333332575
                },
                {
                    "name": "C4",
                    "midi": 60,
                    "time": 734.5833333333494,
                    "velocity": 0.2677165354330709,
                    "duration": 0.0916666666665833
                },
                {
                    "name": "D4",
                    "midi": 62,
                    "time": 734.6229166666827,
                    "velocity": 0.28346456692913385,
                    "duration": 0.09374999999977263
                },
                {
                    "name": "C#4",
                    "midi": 61,
                    "time": 734.6333333333494,
                    "velocity": 0.7165354330708661,
                    "duration": 0.07291666666651508
                },
                {
                    "name": "E4",
                    "midi": 64,
                    "time": 734.6583333333493,
                    "velocity": 0.29133858267716534,
                    "duration": 0.09583333333318933
                },
                {
                    "name": "D#4",
                    "midi": 63,
                    "time": 734.6854166666826,
                    "velocity": 0.5196850393700787,
                    "duration": 0.060416666666583296
                },
                {
                    "name": "F4",
                    "midi": 65,
                    "time": 734.6958333333492,
                    "velocity": 0.30708661417322836,
                    "duration": 0.09166666666669698
                },
                {
                    "name": "G4",
                    "midi": 67,
                    "time": 734.7291666666825,
                    "velocity": 0.3543307086614173,
                    "duration": 0.08958333333339397
                },
                {
                    "name": "F#4",
                    "midi": 66,
                    "time": 734.7354166666826,
                    "velocity": 0.7401574803149606,
                    "duration": 0.06875000000002274
                },
                {
                    "name": "A4",
                    "midi": 69,
                    "time": 734.7604166666825,
                    "velocity": 0.3937007874015748,
                    "duration": 0.09375
                },
                {
                    "name": "G#4",
                    "midi": 68,
                    "time": 734.7833333333492,
                    "velocity": 0.6535433070866141,
                    "duration": 0.054166666666674246
                },
                {
                    "name": "B4",
                    "midi": 71,
                    "time": 734.793750000016,
                    "velocity": 0.3937007874015748,
                    "duration": 0.08958333333328028
                },
                {
                    "name": "A#4",
                    "midi": 70,
                    "time": 734.8166666666826,
                    "velocity": 0.6299212598425197,
                    "duration": 0.04791666666665151
                },
                {
                    "name": "C5",
                    "midi": 72,
                    "time": 734.8270833333493,
                    "velocity": 0.4566929133858268,
                    "duration": 0.08541666666667425
                },
                {
                    "name": "C#5",
                    "midi": 73,
                    "time": 734.8604166666826,
                    "velocity": 0.6850393700787402,
                    "duration": 0.058333333333393966
                },
                {
                    "name": "D5",
                    "midi": 74,
                    "time": 734.8604166666826,
                    "velocity": 0.4566929133858268,
                    "duration": 0.08541666666667425
                },
                {
                    "name": "E5",
                    "midi": 76,
                    "time": 734.8895833333493,
                    "velocity": 0.5039370078740157,
                    "duration": 0.08749999999997726
                },
                {
                    "name": "D#5",
                    "midi": 75,
                    "time": 734.9020833333493,
                    "velocity": 0.7401574803149606,
                    "duration": 0.04374999999993179
                },
                {
                    "name": "F5",
                    "midi": 77,
                    "time": 734.9208333333493,
                    "velocity": 0.4645669291338583,
                    "duration": 0.08333333333337123
                },
                {
                    "name": "F#5",
                    "midi": 78,
                    "time": 734.9375000000159,
                    "velocity": 0.7480314960629921,
                    "duration": 0.06041666666669698
                },
                {
                    "name": "G5",
                    "midi": 79,
                    "time": 734.9458333333492,
                    "velocity": 0.5826771653543307,
                    "duration": 0.08750000000009095
                },
                {
                    "name": "G#5",
                    "midi": 80,
                    "time": 734.9770833333492,
                    "velocity": 0.7637795275590551,
                    "duration": 0.04166666666674246
                },
                {
                    "name": "A5",
                    "midi": 81,
                    "time": 734.9770833333492,
                    "velocity": 0.5196850393700787,
                    "duration": 0.08125000000006821
                },
                {
                    "name": "A#5",
                    "midi": 82,
                    "time": 735.0083333333494,
                    "velocity": 0.7952755905511811,
                    "duration": 0.024999999999977263
                },
                {
                    "name": "B5",
                    "midi": 83,
                    "time": 735.0083333333494,
                    "velocity": 0.44881889763779526,
                    "duration": 0.08124999999995453
                },
                {
                    "name": "C6",
                    "midi": 84,
                    "time": 735.0395833333494,
                    "velocity": 0.6220472440944882,
                    "duration": 0.07499999999993179
                },
                {
                    "name": "C#6",
                    "midi": 85,
                    "time": 735.0479166666827,
                    "velocity": 0.7716535433070866,
                    "duration": 0.03125
                },
                {
                    "name": "D6",
                    "midi": 86,
                    "time": 735.062500000016,
                    "velocity": 0.7165354330708661,
                    "duration": 0.0770833333332348
                },
                {
                    "name": "D#6",
                    "midi": 87,
                    "time": 735.0791666666827,
                    "velocity": 0.7952755905511811,
                    "duration": 0.22083333333318933
                },
                {
                    "name": "E6",
                    "midi": 88,
                    "time": 735.0895833333493,
                    "velocity": 0.6377952755905512,
                    "duration": 0.07499999999993179
                },
                {
                    "name": "F6",
                    "midi": 89,
                    "time": 735.112500000016,
                    "velocity": 0.7086614173228346,
                    "duration": 0.07499999999993179
                },
                {
                    "name": "F#6",
                    "midi": 90,
                    "time": 735.1395833333493,
                    "velocity": 0.5433070866141733,
                    "duration": 0.2166666666665833
                },
                {
                    "name": "G6",
                    "midi": 91,
                    "time": 735.1416666666826,
                    "velocity": 0.6771653543307087,
                    "duration": 0.07708333333334849
                },
                {
                    "name": "A6",
                    "midi": 93,
                    "time": 735.1729166666826,
                    "velocity": 0.6614173228346457,
                    "duration": 0.08125000000006821
                },
                {
                    "name": "B6",
                    "midi": 95,
                    "time": 735.2125000000159,
                    "velocity": 0.6692913385826772,
                    "duration": 0.12708333333330302
                },
                {
                    "name": "C7",
                    "midi": 96,
                    "time": 735.2812500000159,
                    "velocity": 0.3228346456692913,
                    "duration": 0.05833333333328028
                },
                {
                    "name": "A6",
                    "midi": 93,
                    "time": 735.3479166666825,
                    "velocity": 0.3937007874015748,
                    "duration": 0.06875000000002274
                },
                {
                    "name": "D#6",
                    "midi": 87,
                    "time": 735.3541666666825,
                    "velocity": 0.5118110236220472,
                    "duration": 0.1875000000001137
                },
                {
                    "name": "G6",
                    "midi": 91,
                    "time": 735.3687500000159,
                    "velocity": 0.7401574803149606,
                    "duration": 0.08749999999997726
                },
                {
                    "name": "F6",
                    "midi": 89,
                    "time": 735.3958333333492,
                    "velocity": 0.6771653543307087,
                    "duration": 0.1104166666667652
                },
                {
                    "name": "E6",
                    "midi": 88,
                    "time": 735.4333333333492,
                    "velocity": 0.3228346456692913,
                    "duration": 0.11458333333348492
                },
                {
                    "name": "C#6",
                    "midi": 85,
                    "time": 735.4479166666825,
                    "velocity": 0.2677165354330709,
                    "duration": 0.10833333333346218
                },
                {
                    "name": "D6",
                    "midi": 86,
                    "time": 735.4645833333492,
                    "velocity": 0.3779527559055118,
                    "duration": 0.1125000000001819
                },
                {
                    "name": "A#5",
                    "midi": 82,
                    "time": 735.5000000000159,
                    "velocity": 0.44881889763779526,
                    "duration": 0.11875000000020464
                },
                {
                    "name": "C6",
                    "midi": 84,
                    "time": 735.5270833333493,
                    "velocity": 0.2440944881889764,
                    "duration": 0.08333333333348492
                },
                {
                    "name": "G#5",
                    "midi": 80,
                    "time": 735.556250000016,
                    "velocity": 0.3700787401574803,
                    "duration": 0.10416666666674246
                },
                {
                    "name": "B5",
                    "midi": 83,
                    "time": 735.5604166666827,
                    "velocity": 0.4015748031496063,
                    "duration": 0.08333333333337123
                },
                {
                    "name": "A5",
                    "midi": 81,
                    "time": 735.5895833333494,
                    "velocity": 0.4645669291338583,
                    "duration": 0.08541666666667425
                },
                {
                    "name": "F#5",
                    "midi": 78,
                    "time": 735.5958333333494,
                    "velocity": 0.41732283464566927,
                    "duration": 0.10416666666662877
                },
                {
                    "name": "G5",
                    "midi": 79,
                    "time": 735.6208333333494,
                    "velocity": 0.4251968503937008,
                    "duration": 0.08749999999997726
                },
                {
                    "name": "F5",
                    "midi": 77,
                    "time": 735.6562500000161,
                    "velocity": 0.3700787401574803,
                    "duration": 0.08333333333325754
                },
                {
                    "name": "D#5",
                    "midi": 75,
                    "time": 735.6583333333494,
                    "velocity": 0.4015748031496063,
                    "duration": 0.09999999999990905
                },
                {
                    "name": "E5",
                    "midi": 76,
                    "time": 735.6833333333494,
                    "velocity": 0.4645669291338583,
                    "duration": 0.0916666666665833
                },
                {
                    "name": "C#5",
                    "midi": 73,
                    "time": 735.7166666666827,
                    "velocity": 0.4015748031496063,
                    "duration": 0.08333333333325754
                },
                {
                    "name": "D5",
                    "midi": 74,
                    "time": 735.7208333333494,
                    "velocity": 0.3228346456692913,
                    "duration": 0.08749999999986358
                },
                {
                    "name": "C5",
                    "midi": 72,
                    "time": 735.750000000016,
                    "velocity": 0.3858267716535433,
                    "duration": 0.0916666666665833
                },
                {
                    "name": "A#4",
                    "midi": 70,
                    "time": 735.7645833333494,
                    "velocity": 0.3937007874015748,
                    "duration": 0.09791666666649235
                },
                {
                    "name": "B4",
                    "midi": 71,
                    "time": 735.775000000016,
                    "velocity": 0.5354330708661418,
                    "duration": 0.1062499999998181
                },
                {
                    "name": "G#4",
                    "midi": 68,
                    "time": 735.806250000016,
                    "velocity": 0.2992125984251969,
                    "duration": 0.10208333333321207
                },
                {
                    "name": "A4",
                    "midi": 69,
                    "time": 735.8083333333493,
                    "velocity": 0.5118110236220472,
                    "duration": 0.11249999999995453
                },
                {
                    "name": "F#4",
                    "midi": 66,
                    "time": 735.8354166666826,
                    "velocity": 0.5196850393700787,
                    "duration": 0.11874999999997726
                },
                {
                    "name": "G4",
                    "midi": 67,
                    "time": 735.8437500000159,
                    "velocity": 0.5275590551181102,
                    "duration": 0.11666666666667425
                },
                {
                    "name": "F4",
                    "midi": 65,
                    "time": 735.8812500000158,
                    "velocity": 0.48031496062992124,
                    "duration": 0.1270833333334167
                },
                {
                    "name": "D#4",
                    "midi": 63,
                    "time": 735.9020833333492,
                    "velocity": 0.3937007874015748,
                    "duration": 0.1270833333334167
                },
                {
                    "name": "E4",
                    "midi": 64,
                    "time": 735.9229166666826,
                    "velocity": 0.5039370078740157,
                    "duration": 0.12916666666671972
                },
                {
                    "name": "D4",
                    "midi": 62,
                    "time": 735.9687500000159,
                    "velocity": 0.49606299212598426,
                    "duration": 0.11041666666665151
                },
                {
                    "name": "C#4",
                    "midi": 61,
                    "time": 735.9708333333492,
                    "velocity": 0.2677165354330709,
                    "duration": 0.11249999999995453
                },
                {
                    "name": "C4",
                    "midi": 60,
                    "time": 736.0145833333493,
                    "velocity": 0.4015748031496063,
                    "duration": 0.10624999999993179
                },
                {
                    "name": "A#3",
                    "midi": 58,
                    "time": 736.0375000000159,
                    "velocity": 0.31496062992125984,
                    "duration": 0.10624999999993179
                },
                {
                    "name": "B3",
                    "midi": 59,
                    "time": 736.0458333333493,
                    "velocity": 0.5984251968503937,
                    "duration": 0.10416666666662877
                },
                {
                    "name": "G#3",
                    "midi": 56,
                    "time": 736.0708333333492,
                    "velocity": 0.48031496062992124,
                    "duration": 0.1083333333332348
                },
                {
                    "name": "A3",
                    "midi": 57,
                    "time": 736.0812500000159,
                    "velocity": 0.6141732283464567,
                    "duration": 0.11041666666665151
                },
                {
                    "name": "F#3",
                    "midi": 54,
                    "time": 736.1187500000159,
                    "velocity": 0.4251968503937008,
                    "duration": 0.11666666666667425
                },
                {
                    "name": "G3",
                    "midi": 55,
                    "time": 736.1187500000159,
                    "velocity": 0.5433070866141733,
                    "duration": 0.11666666666667425
                },
                {
                    "name": "F3",
                    "midi": 53,
                    "time": 736.1520833333492,
                    "velocity": 0.5275590551181102,
                    "duration": 0.11666666666667425
                },
                {
                    "name": "D#3",
                    "midi": 51,
                    "time": 736.1812500000158,
                    "velocity": 0.3858267716535433,
                    "duration": 0.10625000000015916
                },
                {
                    "name": "E3",
                    "midi": 52,
                    "time": 736.1875000000158,
                    "velocity": 0.6535433070866141,
                    "duration": 0.11875000000009095
                },
                {
                    "name": "C#3",
                    "midi": 49,
                    "time": 736.2208333333492,
                    "velocity": 0.4094488188976378,
                    "duration": 0.1104166666667652
                },
                {
                    "name": "D3",
                    "midi": 50,
                    "time": 736.2333333333493,
                    "velocity": 0.5354330708661418,
                    "duration": 0.12708333333330302
                },
                {
                    "name": "C3",
                    "midi": 48,
                    "time": 736.2729166666826,
                    "velocity": 0.47244094488188976,
                    "duration": 0.1270833333334167
                },
                {
                    "name": "A#2",
                    "midi": 46,
                    "time": 736.3062500000159,
                    "velocity": 0.2440944881889764,
                    "duration": 0.09791666666683341
                },
                {
                    "name": "B2",
                    "midi": 47,
                    "time": 736.3187500000159,
                    "velocity": 0.5196850393700787,
                    "duration": 0.1270833333334167
                },
                {
                    "name": "G#2",
                    "midi": 44,
                    "time": 736.3583333333493,
                    "velocity": 0.29133858267716534,
                    "duration": 0.08958333333339397
                },
                {
                    "name": "A2",
                    "midi": 45,
                    "time": 736.3645833333493,
                    "velocity": 0.5039370078740157,
                    "duration": 0.1395833333333485
                },
                {
                    "name": "F#2",
                    "midi": 42,
                    "time": 736.3958333333493,
                    "velocity": 0.29133858267716534,
                    "duration": 0.10208333333332575
                },
                {
                    "name": "G2",
                    "midi": 43,
                    "time": 736.4041666666827,
                    "velocity": 0.5433070866141733,
                    "duration": 0.15833333333318933
                },
                {
                    "name": "F2",
                    "midi": 41,
                    "time": 736.4541666666827,
                    "velocity": 0.5433070866141733,
                    "duration": 0.17916666666656056
                },
                {
                    "name": "D#2",
                    "midi": 39,
                    "time": 736.487500000016,
                    "velocity": 0.3464566929133858,
                    "duration": 0.12499999999988631
                },
                {
                    "name": "E2",
                    "midi": 40,
                    "time": 736.5062500000159,
                    "velocity": 0.6062992125984252,
                    "duration": 0.1875
                },
                {
                    "name": "D2",
                    "midi": 38,
                    "time": 736.5875000000159,
                    "velocity": 0.5590551181102362,
                    "duration": 0.21249999999997726
                },
                {
                    "name": "C#2",
                    "midi": 37,
                    "time": 736.5979166666825,
                    "velocity": 0.11811023622047244,
                    "duration": 0.09791666666671972
                },
                {
                    "name": "C2",
                    "midi": 36,
                    "time": 736.6625000000159,
                    "velocity": 0.3228346456692913,
                    "duration": 0.1729166666666515
                },
                {
                    "name": "A#1",
                    "midi": 34,
                    "time": 736.6979166666825,
                    "velocity": 0.5118110236220472,
                    "duration": 0.17499999999995453
                },
                {
                    "name": "B1",
                    "midi": 35,
                    "time": 736.7125000000159,
                    "velocity": 0.41732283464566927,
                    "duration": 0.1729166666666515
                },
                {
                    "name": "A1",
                    "midi": 33,
                    "time": 736.8041666666826,
                    "velocity": 0.2125984251968504,
                    "duration": 0.12708333333330302
                },
                {
                    "name": "G1",
                    "midi": 31,
                    "time": 736.8458333333492,
                    "velocity": 0.6377952755905512,
                    "duration": 0.1708333333332348
                },
                {
                    "name": "G#1",
                    "midi": 32,
                    "time": 736.8979166666826,
                    "velocity": 0.3228346456692913,
                    "duration": 0.039583333333325754
                },
                {
                    "name": "F1",
                    "midi": 29,
                    "time": 736.9145833333492,
                    "velocity": 0.3858267716535433,
                    "duration": 0.12499999999988631
                },
                {
                    "name": "B1",
                    "midi": 35,
                    "time": 736.9375000000159,
                    "velocity": 0.8346456692913385,
                    "duration": 0.06874999999990905
                },
                {
                    "name": "C2",
                    "midi": 36,
                    "time": 736.9625000000159,
                    "velocity": 0.44881889763779526,
                    "duration": 0.045833333333234805
                },
                {
                    "name": "A1",
                    "midi": 33,
                    "time": 736.9645833333492,
                    "velocity": 0.5590551181102362,
                    "duration": 0.05416666666656056
                },
                {
                    "name": "C#2",
                    "midi": 37,
                    "time": 740.5187500000158,
                    "velocity": 0.33858267716535434,
                    "duration": 0.11458333333325754
                },
                {
                    "name": "D#2",
                    "midi": 39,
                    "time": 740.5687500000157,
                    "velocity": 0.2125984251968504,
                    "duration": 0.1708333333333485
                },
                {
                    "name": "E2",
                    "midi": 40,
                    "time": 740.6458333333491,
                    "velocity": 0.05511811023622047,
                    "duration": 0.05833333333328028
                },
                {
                    "name": "F2",
                    "midi": 41,
                    "time": 740.664583333349,
                    "velocity": 0.13385826771653545,
                    "duration": 0.08333333333337123
                },
                {
                    "name": "G2",
                    "midi": 43,
                    "time": 740.6937500000157,
                    "velocity": 0.18110236220472442,
                    "duration": 0.10833333333346218
                },
                {
                    "name": "F#2",
                    "midi": 42,
                    "time": 740.7166666666824,
                    "velocity": 0.5590551181102362,
                    "duration": 0.10416666666674246
                },
                {
                    "name": "A2",
                    "midi": 45,
                    "time": 740.7479166666824,
                    "velocity": 0.10236220472440945,
                    "duration": 0.10208333333343944
                },
                {
                    "name": "G#2",
                    "midi": 44,
                    "time": 740.7916666666824,
                    "velocity": 0.1732283464566929,
                    "duration": 0.07708333333334849
                },
                {
                    "name": "B2",
                    "midi": 47,
                    "time": 740.7979166666825,
                    "velocity": 0.13385826771653545,
                    "duration": 0.09583333333330302
                },
                {
                    "name": "A#2",
                    "midi": 46,
                    "time": 740.8354166666825,
                    "velocity": 0.3700787401574803,
                    "duration": 0.08333333333325754
                },
                {
                    "name": "C3",
                    "midi": 48,
                    "time": 740.8500000000158,
                    "velocity": 0.15748031496062992,
                    "duration": 0.0916666666665833
                },
                {
                    "name": "D3",
                    "midi": 50,
                    "time": 740.8916666666825,
                    "velocity": 0.25984251968503935,
                    "duration": 0.08541666666656056
                },
                {
                    "name": "C#3",
                    "midi": 49,
                    "time": 740.9020833333491,
                    "velocity": 0.6062992125984252,
                    "duration": 0.08333333333325754
                },
                {
                    "name": "E3",
                    "midi": 52,
                    "time": 740.9312500000158,
                    "velocity": 0.25196850393700787,
                    "duration": 0.08541666666656056
                },
                {
                    "name": "D#3",
                    "midi": 51,
                    "time": 740.9604166666824,
                    "velocity": 0.3700787401574803,
                    "duration": 0.06458333333330302
                },
                {
                    "name": "F3",
                    "midi": 53,
                    "time": 740.9666666666824,
                    "velocity": 0.2755905511811024,
                    "duration": 0.08333333333325754
                },
                {
                    "name": "G3",
                    "midi": 55,
                    "time": 740.9979166666824,
                    "velocity": 0.25984251968503935,
                    "duration": 0.08541666666667425
                },
                {
                    "name": "F#3",
                    "midi": 54,
                    "time": 741.008333333349,
                    "velocity": 0.7480314960629921,
                    "duration": 0.07083333333332575
                },
                {
                    "name": "A3",
                    "midi": 57,
                    "time": 741.0312500000157,
                    "velocity": 0.25984251968503935,
                    "duration": 0.08749999999997726
                },
                {
                    "name": "G#3",
                    "midi": 56,
                    "time": 741.052083333349,
                    "velocity": 0.4409448818897638,
                    "duration": 0.058333333333393966
                },
                {
                    "name": "B3",
                    "midi": 59,
                    "time": 741.0666666666823,
                    "velocity": 0.25984251968503935,
                    "duration": 0.07916666666687888
                },
                {
                    "name": "A#3",
                    "midi": 58,
                    "time": 741.0854166666824,
                    "velocity": 0.6299212598425197,
                    "duration": 0.05416666666678793
                },
                {
                    "name": "C4",
                    "midi": 60,
                    "time": 741.1000000000157,
                    "velocity": 0.33858267716535434,
                    "duration": 0.07291666666674246
                },
                {
                    "name": "C#4",
                    "midi": 61,
                    "time": 741.1312500000157,
                    "velocity": 0.7165354330708661,
                    "duration": 0.058333333333393966
                },
                {
                    "name": "D4",
                    "midi": 62,
                    "time": 741.1354166666824,
                    "velocity": 0.2677165354330709,
                    "duration": 0.0645833333334167
                },
                {
                    "name": "E4",
                    "midi": 64,
                    "time": 741.1645833333491,
                    "velocity": 0.2992125984251969,
                    "duration": 0.06875000000002274
                },
                {
                    "name": "D#4",
                    "midi": 63,
                    "time": 741.1729166666825,
                    "velocity": 0.7007874015748031,
                    "duration": 0.043750000000045475
                },
                {
                    "name": "F4",
                    "midi": 65,
                    "time": 741.1958333333491,
                    "velocity": 0.3228346456692913,
                    "duration": 0.06875000000002274
                },
                {
                    "name": "F#4",
                    "midi": 66,
                    "time": 741.2166666666825,
                    "velocity": 0.7401574803149606,
                    "duration": 0.04583333333334849
                },
                {
                    "name": "G4",
                    "midi": 67,
                    "time": 741.2187500000158,
                    "velocity": 0.5039370078740157,
                    "duration": 0.07708333333346218
                },
                {
                    "name": "A4",
                    "midi": 69,
                    "time": 741.2479166666825,
                    "velocity": 0.5984251968503937,
                    "duration": 0.0812500000001819
                },
                {
                    "name": "G#4",
                    "midi": 68,
                    "time": 741.2541666666825,
                    "velocity": 0.7480314960629921,
                    "duration": 0.029166666666696983
                },
                {
                    "name": "B4",
                    "midi": 71,
                    "time": 741.2770833333492,
                    "velocity": 0.6850393700787402,
                    "duration": 0.07916666666687888
                },
                {
                    "name": "C5",
                    "midi": 72,
                    "time": 741.3083333333493,
                    "velocity": 0.6692913385826772,
                    "duration": 0.07708333333346218
                },
                {
                    "name": "C#5",
                    "midi": 73,
                    "time": 741.337500000016,
                    "velocity": 0.7952755905511811,
                    "duration": 0.1437500000000682
                },
                {
                    "name": "D5",
                    "midi": 74,
                    "time": 741.3416666666827,
                    "velocity": 0.6377952755905512,
                    "duration": 0.2541666666667197
                },
                {
                    "name": "E5",
                    "midi": 76,
                    "time": 741.3875000000161,
                    "velocity": 0.5118110236220472,
                    "duration": 0.1729166666666515
                },
                {
                    "name": "C5",
                    "midi": 72,
                    "time": 741.5208333333494,
                    "velocity": 0.2204724409448819,
                    "duration": 0.12083333333328028
                },
                {
                    "name": "B4",
                    "midi": 71,
                    "time": 741.5812500000161,
                    "velocity": 0.3779527559055118,
                    "duration": 0.09999999999990905
                },
                {
                    "name": "G#4",
                    "midi": 68,
                    "time": 741.6125000000161,
                    "velocity": 0.5039370078740157,
                    "duration": 0.04374999999993179
                },
                {
                    "name": "A4",
                    "midi": 69,
                    "time": 741.6208333333494,
                    "velocity": 0.4645669291338583,
                    "duration": 0.1083333333332348
                },
                {
                    "name": "F#4",
                    "midi": 66,
                    "time": 741.6395833333494,
                    "velocity": 0.6692913385826772,
                    "duration": 0.05833333333328028
                },
                {
                    "name": "G4",
                    "midi": 67,
                    "time": 741.662500000016,
                    "velocity": 0.3858267716535433,
                    "duration": 0.10416666666662877
                },
                {
                    "name": "D#4",
                    "midi": 63,
                    "time": 741.6958333333494,
                    "velocity": 0.6614173228346457,
                    "duration": 0.07083333333332575
                },
                {
                    "name": "F4",
                    "midi": 65,
                    "time": 741.7020833333494,
                    "velocity": 0.4015748031496063,
                    "duration": 0.11041666666665151
                },
                {
                    "name": "E4",
                    "midi": 64,
                    "time": 741.7416666666827,
                    "velocity": 0.3858267716535433,
                    "duration": 0.11874999999997726
                },
                {
                    "name": "C#4",
                    "midi": 61,
                    "time": 741.7583333333494,
                    "velocity": 0.5590551181102362,
                    "duration": 0.08541666666667425
                },
                {
                    "name": "D4",
                    "midi": 62,
                    "time": 741.7833333333493,
                    "velocity": 0.33858267716535434,
                    "duration": 0.11666666666667425
                },
                {
                    "name": "A#3",
                    "midi": 58,
                    "time": 741.8145833333493,
                    "velocity": 0.6220472440944882,
                    "duration": 0.07916666666665151
                },
                {
                    "name": "C4",
                    "midi": 60,
                    "time": 741.8270833333494,
                    "velocity": 0.2992125984251969,
                    "duration": 0.125
                },
                {
                    "name": "B3",
                    "midi": 59,
                    "time": 741.862500000016,
                    "velocity": 0.41732283464566927,
                    "duration": 0.1395833333333485
                },
                {
                    "name": "G#3",
                    "midi": 56,
                    "time": 741.8645833333493,
                    "velocity": 0.5905511811023622,
                    "duration": 0.058333333333393966
                },
                {
                    "name": "A3",
                    "midi": 57,
                    "time": 741.912500000016,
                    "velocity": 0.3228346456692913,
                    "duration": 0.14374999999995453
                },
                {
                    "name": "F#3",
                    "midi": 54,
                    "time": 741.9270833333494,
                    "velocity": 0.49606299212598426,
                    "duration": 0.06666666666660603
                },
                {
                    "name": "G3",
                    "midi": 55,
                    "time": 741.962500000016,
                    "velocity": 0.2992125984251969,
                    "duration": 0.15208333333339397
                },
                {
                    "name": "D#3",
                    "midi": 51,
                    "time": 741.9958333333493,
                    "velocity": 0.5118110236220472,
                    "duration": 0.13333333333343944
                },
                {
                    "name": "F3",
                    "midi": 53,
                    "time": 742.018750000016,
                    "velocity": 0.2204724409448819,
                    "duration": 0.13750000000015916
                },
                {
                    "name": "C#3",
                    "midi": 49,
                    "time": 742.056250000016,
                    "velocity": 0.49606299212598426,
                    "duration": 0.1291666666668334
                },
                {
                    "name": "E3",
                    "midi": 52,
                    "time": 742.0708333333494,
                    "velocity": 0.3464566929133858,
                    "duration": 0.13125000000013642
                },
                {
                    "name": "D3",
                    "midi": 50,
                    "time": 742.131250000016,
                    "velocity": 0.2992125984251969,
                    "duration": 0.10000000000013642
                },
                {
                    "name": "A#2",
                    "midi": 46,
                    "time": 742.1354166666828,
                    "velocity": 0.4409448818897638,
                    "duration": 0.11458333333337123
                },
                {
                    "name": "G#2",
                    "midi": 44,
                    "time": 742.2000000000162,
                    "velocity": 0.5511811023622047,
                    "duration": 0.05416666666656056
                },
                {
                    "name": "F#2",
                    "midi": 42,
                    "time": 742.2520833333494,
                    "velocity": 0.5984251968503937,
                    "duration": 0.08749999999997726
                },
                {
                    "name": "D#2",
                    "midi": 39,
                    "time": 742.3270833333494,
                    "velocity": 0.48031496062992124,
                    "duration": 0.047916666666765195
                },
                {
                    "name": "C#2",
                    "midi": 37,
                    "time": 742.3875000000162,
                    "velocity": 0.4015748031496063,
                    "duration": 0.05208333333337123
                },
                {
                    "name": "F2",
                    "midi": 41,
                    "time": 742.4104166666829,
                    "velocity": 0.07874015748031496,
                    "duration": 0.05208333333337123
                },
                {
                    "name": "E2",
                    "midi": 40,
                    "time": 742.4104166666829,
                    "velocity": 0.4645669291338583,
                    "duration": 0.06041666666669698
                },
                {
                    "name": "D2",
                    "midi": 38,
                    "time": 742.4479166666829,
                    "velocity": 0.4330708661417323,
                    "duration": 0.04583333333334849
                },
                {
                    "name": "G1",
                    "midi": 31,
                    "time": 742.5583333333495,
                    "velocity": 0.7874015748031497,
                    "duration": 0.21249999999997726
                },
                {
                    "name": "G2",
                    "midi": 43,
                    "time": 742.5645833333496,
                    "velocity": 0.9606299212598425,
                    "duration": 0.25833333333332575
                },
                {
                    "name": "C#4",
                    "midi": 61,
                    "time": 742.5687500000163,
                    "velocity": 0.8582677165354331,
                    "duration": 0.4499999999999318
                },
                {
                    "name": "C#3",
                    "midi": 49,
                    "time": 742.5708333333496,
                    "velocity": 0.9133858267716536,
                    "duration": 0.2999999999999545
                },
                {
                    "name": "F#3",
                    "midi": 54,
                    "time": 742.5708333333496,
                    "velocity": 0.8267716535433071,
                    "duration": 0.36874999999997726
                },
                {
                    "name": "A3",
                    "midi": 57,
                    "time": 742.5729166666829,
                    "velocity": 0.7007874015748031,
                    "duration": 0.39791666666667425
                },
                {
                    "name": "D3",
                    "midi": 50,
                    "time": 743.1791666666829,
                    "velocity": 0.8976377952755905,
                    "duration": 0.13541666666662877
                },
                {
                    "name": "A#3",
                    "midi": 58,
                    "time": 743.5895833333495,
                    "velocity": 0.7480314960629921,
                    "duration": 0.06875000000002274
                },
                {
                    "name": "G3",
                    "midi": 55,
                    "time": 743.5958333333496,
                    "velocity": 0.5905511811023622,
                    "duration": 0.043750000000045475
                },
                {
                    "name": "D4",
                    "midi": 62,
                    "time": 743.6041666666829,
                    "velocity": 0.8740157480314961,
                    "duration": 0.09583333333330302
                },
                {
                    "name": "D4",
                    "midi": 62,
                    "time": 743.7729166666828,
                    "velocity": 0.7165354330708661,
                    "duration": 0.06666666666660603
                },
                {
                    "name": "A4",
                    "midi": 69,
                    "time": 743.7958333333495,
                    "velocity": 0.6692913385826772,
                    "duration": 0.08333333333337123
                },
                {
                    "name": "F#4",
                    "midi": 66,
                    "time": 743.7979166666828,
                    "velocity": 0.7795275590551181,
                    "duration": 0.06041666666669698
                },
                {
                    "name": "A3",
                    "midi": 57,
                    "time": 743.7979166666828,
                    "velocity": 0.6220472440944882,
                    "duration": 0.04583333333334849
                },
                {
                    "name": "G1",
                    "midi": 31,
                    "time": 744.0208333333495,
                    "velocity": 0.9606299212598425,
                    "duration": 0.09375
                },
                {
                    "name": "C#3",
                    "midi": 49,
                    "time": 744.4041666666828,
                    "velocity": 0.889763779527559,
                    "duration": 0.06875000000013642
                },
                {
                    "name": "C#4",
                    "midi": 61,
                    "time": 744.4041666666828,
                    "velocity": 0.8188976377952756,
                    "duration": 0.16666666666674246
                },
                {
                    "name": "A3",
                    "midi": 57,
                    "time": 744.4083333333496,
                    "velocity": 0.6220472440944882,
                    "duration": 0.07500000000004547
                },
                {
                    "name": "D2",
                    "midi": 38,
                    "time": 744.4125000000163,
                    "velocity": 0.8976377952755905,
                    "duration": 0.34791666666660603
                },
                {
                    "name": "F#3",
                    "midi": 54,
                    "time": 744.4145833333496,
                    "velocity": 0.6692913385826772,
                    "duration": 0.04583333333334849
                },
                {
                    "name": "D4",
                    "midi": 62,
                    "time": 744.7666666666829,
                    "velocity": 0.84251968503937,
                    "duration": 0.09166666666669698
                },
                {
                    "name": "G3",
                    "midi": 55,
                    "time": 744.7729166666829,
                    "velocity": 0.8188976377952756,
                    "duration": 0.06458333333330302
                },
                {
                    "name": "A#3",
                    "midi": 58,
                    "time": 744.7729166666829,
                    "velocity": 0.7716535433070866,
                    "duration": 0.07291666666662877
                },
                {
                    "name": "D3",
                    "midi": 50,
                    "time": 744.7750000000162,
                    "velocity": 0.8503937007874016,
                    "duration": 0.05833333333328028
                },
                {
                    "name": "C4",
                    "midi": 60,
                    "time": 745.1145833333495,
                    "velocity": 0.8110236220472441,
                    "duration": 0.06250000000011369
                },
                {
                    "name": "E4",
                    "midi": 64,
                    "time": 745.1187500000162,
                    "velocity": 0.7795275590551181,
                    "duration": 0.08541666666667425
                },
                {
                    "name": "A#2",
                    "midi": 46,
                    "time": 745.1208333333495,
                    "velocity": 0.984251968503937,
                    "duration": 0.06666666666671972
                },
                {
                    "name": "A#1",
                    "midi": 34,
                    "time": 745.1229166666828,
                    "velocity": 0.9133858267716536,
                    "duration": 0.047916666666765195
                },
                {
                    "name": "A3",
                    "midi": 57,
                    "time": 745.1270833333496,
                    "velocity": 0.5669291338582677,
                    "duration": 0.04583333333334849
                },
                {
                    "name": "E3",
                    "midi": 52,
                    "time": 745.1312500000163,
                    "velocity": 0.5590551181102362,
                    "duration": 0.7937500000000455
                },
                {
                    "name": "F3",
                    "midi": 53,
                    "time": 745.1458333333496,
                    "velocity": 0.4251968503937008,
                    "duration": 0.04791666666665151
                },
                {
                    "name": "F3",
                    "midi": 53,
                    "time": 745.4770833333496,
                    "velocity": 0.9212598425196851,
                    "duration": 0.12291666666669698
                },
                {
                    "name": "C#4",
                    "midi": 61,
                    "time": 745.8125000000163,
                    "velocity": 0.8267716535433071,
                    "duration": 0.054166666666674246
                },
                {
                    "name": "F4",
                    "midi": 65,
                    "time": 745.8125000000163,
                    "velocity": 0.9291338582677166,
                    "duration": 0.08333333333337123
                },
                {
                    "name": "A#3",
                    "midi": 58,
                    "time": 745.816666666683,
                    "velocity": 0.7637795275590551,
                    "duration": 0.04166666666662877
                },
                {
                    "name": "C4",
                    "midi": 60,
                    "time": 745.966666666683,
                    "velocity": 0.8740157480314961,
                    "duration": 0.06041666666669698
                },
                {
                    "name": "A4",
                    "midi": 69,
                    "time": 745.966666666683,
                    "velocity": 0.7874015748031497,
                    "duration": 0.0645833333334167
                },
                {
                    "name": "C5",
                    "midi": 72,
                    "time": 745.979166666683,
                    "velocity": 0.7165354330708661,
                    "duration": 0.05625000000009095
                },
                {
                    "name": "A#1",
                    "midi": 34,
                    "time": 746.1854166666831,
                    "velocity": 0.8976377952755905,
                    "duration": 0.05416666666656056
                },
                {
                    "name": "A#2",
                    "midi": 46,
                    "time": 746.1875000000164,
                    "velocity": 0.952755905511811,
                    "duration": 0.06458333333330302
                },
                {
                    "name": "E3",
                    "midi": 52,
                    "time": 746.5437500000163,
                    "velocity": 0.8110236220472441,
                    "duration": 0.39791666666656056
                },
                {
                    "name": "F2",
                    "midi": 41,
                    "time": 746.5708333333496,
                    "velocity": 0.9448818897637795,
                    "duration": 0.408333333333303
                },
                {
                    "name": "E4",
                    "midi": 64,
                    "time": 746.5729166666829,
                    "velocity": 0.889763779527559,
                    "duration": 0.11249999999995453
                },
                {
                    "name": "C4",
                    "midi": 60,
                    "time": 746.5750000000162,
                    "velocity": 0.9133858267716536,
                    "duration": 0.07708333333334849
                },
                {
                    "name": "F4",
                    "midi": 65,
                    "time": 746.8979166666828,
                    "velocity": 0.9133858267716536,
                    "duration": 0.10208333333343944
                },
                {
                    "name": "C#4",
                    "midi": 61,
                    "time": 746.8979166666828,
                    "velocity": 0.905511811023622,
                    "duration": 0.07083333333332575
                },
                {
                    "name": "A#3",
                    "midi": 58,
                    "time": 746.9020833333495,
                    "velocity": 0.9291338582677166,
                    "duration": 0.06874999999990905
                },
                {
                    "name": "F3",
                    "midi": 53,
                    "time": 746.9166666666829,
                    "velocity": 0.8818897637795275,
                    "duration": 0.05833333333328028
                },
                {
                    "name": "G4",
                    "midi": 67,
                    "time": 747.2562500000163,
                    "velocity": 0.9606299212598425,
                    "duration": 0.10000000000013642
                },
                {
                    "name": "D#4",
                    "midi": 63,
                    "time": 747.2583333333496,
                    "velocity": 0.952755905511811,
                    "duration": 0.07708333333346218
                },
                {
                    "name": "C#2",
                    "midi": 37,
                    "time": 747.2604166666829,
                    "velocity": 0.889763779527559,
                    "duration": 0.02500000000009095
                },
                {
                    "name": "C#3",
                    "midi": 49,
                    "time": 747.2604166666829,
                    "velocity": 0.9133858267716536,
                    "duration": 0.06458333333353039
                },
                {
                    "name": "C4",
                    "midi": 60,
                    "time": 747.2625000000162,
                    "velocity": 0.952755905511811,
                    "duration": 0.0500000000001819
                },
                {
                    "name": "G3",
                    "midi": 55,
                    "time": 747.2895833333497,
                    "velocity": 0.7165354330708661,
                    "duration": 0.36666666666678793
                },
                {
                    "name": "G#3",
                    "midi": 56,
                    "time": 747.6041666666831,
                    "velocity": 0.8346456692913385,
                    "duration": 0.11666666666667425
                },
                {
                    "name": "C#4",
                    "midi": 61,
                    "time": 747.9041666666831,
                    "velocity": 0.7795275590551181,
                    "duration": 0.05833333333328028
                },
                {
                    "name": "E4",
                    "midi": 64,
                    "time": 747.9062500000164,
                    "velocity": 0.6377952755905512,
                    "duration": 0.039583333333325754
                },
                {
                    "name": "G#4",
                    "midi": 68,
                    "time": 747.9083333333497,
                    "velocity": 0.889763779527559,
                    "duration": 0.23749999999984084
                },
                {
                    "name": "D#4",
                    "midi": 63,
                    "time": 748.0520833333496,
                    "velocity": 0.8188976377952756,
                    "duration": 0.06874999999990905
                },
                {
                    "name": "D#5",
                    "midi": 75,
                    "time": 748.060416666683,
                    "velocity": 0.84251968503937,
                    "duration": 0.12708333333318933
                },
                {
                    "name": "C5",
                    "midi": 72,
                    "time": 748.0625000000163,
                    "velocity": 0.7322834645669292,
                    "duration": 0.11458333333325754
                },
                {
                    "name": "A#3",
                    "midi": 58,
                    "time": 748.2708333333495,
                    "velocity": 0.8818897637795275,
                    "duration": 0.4875000000000682
                },
                {
                    "name": "F#4",
                    "midi": 66,
                    "time": 748.2750000000162,
                    "velocity": 0.8503937007874016,
                    "duration": 0.4812500000000455
                },
                {
                    "name": "D#4",
                    "midi": 63,
                    "time": 748.279166666683,
                    "velocity": 0.8346456692913385,
                    "duration": 0.46875
                },
                {
                    "name": "E2",
                    "midi": 40,
                    "time": 748.3145833333497,
                    "velocity": 0.9921259842519685,
                    "duration": 0.11666666666667425
                },
                {
                    "name": "A#4",
                    "midi": 70,
                    "time": 748.322916666683,
                    "velocity": 0.84251968503937,
                    "duration": 0.09375
                },
                {
                    "name": "B3",
                    "midi": 59,
                    "time": 748.6750000000163,
                    "velocity": 0.9212598425196851,
                    "duration": 0.25624999999990905
                },
                {
                    "name": "B4",
                    "midi": 71,
                    "time": 748.9916666666829,
                    "velocity": 0.8582677165354331,
                    "duration": 0.1729166666666515
                },
                {
                    "name": "E4",
                    "midi": 64,
                    "time": 749.0000000000163,
                    "velocity": 0.7322834645669292,
                    "duration": 0.06458333333330302
                },
                {
                    "name": "G#4",
                    "midi": 68,
                    "time": 749.0062500000163,
                    "velocity": 0.7637795275590551,
                    "duration": 0.03125
                },
                {
                    "name": "F#4",
                    "midi": 66,
                    "time": 749.1312500000163,
                    "velocity": 0.7322834645669292,
                    "duration": 0.05833333333328028
                },
                {
                    "name": "D#5",
                    "midi": 75,
                    "time": 749.1458333333496,
                    "velocity": 0.8346456692913385,
                    "duration": 0.1229166666665833
                },
                {
                    "name": "F#5",
                    "midi": 78,
                    "time": 749.1458333333496,
                    "velocity": 0.8110236220472441,
                    "duration": 0.22291666666671972
                },
                {
                    "name": "C#5",
                    "midi": 73,
                    "time": 749.3437500000163,
                    "velocity": 0.8976377952755905,
                    "duration": 0.20208333333346218
                },
                {
                    "name": "A4",
                    "midi": 69,
                    "time": 749.3520833333496,
                    "velocity": 0.8110236220472441,
                    "duration": 0.24583333333350765
                },
                {
                    "name": "F#4",
                    "midi": 66,
                    "time": 749.3520833333496,
                    "velocity": 0.8503937007874016,
                    "duration": 0.2208333333335304
                },
                {
                    "name": "D3",
                    "midi": 50,
                    "time": 749.3604166666829,
                    "velocity": 0.8976377952755905,
                    "duration": 0.4541666666668789
                },
                {
                    "name": "G3",
                    "midi": 55,
                    "time": 749.3604166666829,
                    "velocity": 0.9448818897637795,
                    "duration": 0.5854166666669016
                },
                {
                    "name": "A#2",
                    "midi": 46,
                    "time": 749.3645833333496,
                    "velocity": 0.8582677165354331,
                    "duration": 0.41875000000015916
                },
                {
                    "name": "G2",
                    "midi": 43,
                    "time": 749.3687500000163,
                    "velocity": 0.8503937007874016,
                    "duration": 0.6916666666668334
                },
                {
                    "name": "D5",
                    "midi": 74,
                    "time": 749.5291666666831,
                    "velocity": 0.7795275590551181,
                    "duration": 0.18333333333339397
                },
                {
                    "name": "G4",
                    "midi": 67,
                    "time": 749.5437500000164,
                    "velocity": 0.7559055118110236,
                    "duration": 0.1895833333334167
                },
                {
                    "name": "A#4",
                    "midi": 70,
                    "time": 749.5520833333497,
                    "velocity": 0.8661417322834646,
                    "duration": 0.18333333333339397
                },
                {
                    "name": "A5",
                    "midi": 81,
                    "time": 749.7333333333498,
                    "velocity": 0.7716535433070866,
                    "duration": 0.17708333333325754
                },
                {
                    "name": "F#5",
                    "midi": 78,
                    "time": 749.7354166666831,
                    "velocity": 0.8110236220472441,
                    "duration": 0.18124999999997726
                },
                {
                    "name": "E5",
                    "midi": 76,
                    "time": 749.9000000000163,
                    "velocity": 0.8582677165354331,
                    "duration": 0.21458333333350765
                },
                {
                    "name": "C5",
                    "midi": 72,
                    "time": 749.9000000000163,
                    "velocity": 0.8110236220472441,
                    "duration": 0.21458333333350765
                },
                {
                    "name": "A4",
                    "midi": 69,
                    "time": 749.9062500000164,
                    "velocity": 0.7165354330708661,
                    "duration": 0.1437500000001819
                },
                {
                    "name": "A#2",
                    "midi": 46,
                    "time": 750.0520833333499,
                    "velocity": 0.7637795275590551,
                    "duration": 0.06875000000002274
                },
                {
                    "name": "F3",
                    "midi": 53,
                    "time": 750.0562500000166,
                    "velocity": 0.8346456692913385,
                    "duration": 0.08124999999995453
                },
                {
                    "name": "C#3",
                    "midi": 49,
                    "time": 750.0583333333499,
                    "velocity": 0.7716535433070866,
                    "duration": 0.0625
                },
                {
                    "name": "A#3",
                    "midi": 58,
                    "time": 750.0604166666832,
                    "velocity": 0.9448818897637795,
                    "duration": 0.08749999999997726
                },
                {
                    "name": "F5",
                    "midi": 77,
                    "time": 750.0791666666831,
                    "velocity": 0.8740157480314961,
                    "duration": 0.14583333333337123
                },
                {
                    "name": "C#5",
                    "midi": 73,
                    "time": 750.0937500000165,
                    "velocity": 0.8661417322834646,
                    "duration": 0.08333333333337123
                },
                {
                    "name": "A#4",
                    "midi": 70,
                    "time": 750.0979166666832,
                    "velocity": 0.7401574803149606,
                    "duration": 0.07916666666665151
                },
                {
                    "name": "C6",
                    "midi": 84,
                    "time": 750.2541666666831,
                    "velocity": 0.7716535433070866,
                    "duration": 0.15625
                },
                {
                    "name": "A5",
                    "midi": 81,
                    "time": 750.2625000000164,
                    "velocity": 0.7322834645669292,
                    "duration": 0.1395833333333485
                },
                {
                    "name": "D#5",
                    "midi": 75,
                    "time": 750.4270833333497,
                    "velocity": 0.905511811023622,
                    "duration": 0.2395833333335986
                },
                {
                    "name": "C5",
                    "midi": 72,
                    "time": 750.4312500000165,
                    "velocity": 0.7952755905511811,
                    "duration": 0.2395833333335986
                },
                {
                    "name": "G#3",
                    "midi": 56,
                    "time": 750.4333333333498,
                    "velocity": 0.8818897637795275,
                    "duration": 0.5270833333335077
                },
                {
                    "name": "G5",
                    "midi": 79,
                    "time": 750.4354166666831,
                    "velocity": 0.8346456692913385,
                    "duration": 0.18541666666692436
                },
                {
                    "name": "E3",
                    "midi": 52,
                    "time": 750.4354166666831,
                    "velocity": 0.7716535433070866,
                    "duration": 0.42083333333357587
                },
                {
                    "name": "C#3",
                    "midi": 49,
                    "time": 750.4395833333498,
                    "velocity": 0.7007874015748031,
                    "duration": 0.5458333333334622
                },
                {
                    "name": "C#4",
                    "midi": 61,
                    "time": 750.4395833333498,
                    "velocity": 0.968503937007874,
                    "duration": 0.5458333333334622
                },
                {
                    "name": "G#5",
                    "midi": 80,
                    "time": 750.6062500000165,
                    "velocity": 0.8188976377952756,
                    "duration": 0.16458333333355313
                },
                {
                    "name": "E5",
                    "midi": 76,
                    "time": 750.6104166666832,
                    "velocity": 0.84251968503937,
                    "duration": 0.1437500000001819
                },
                {
                    "name": "C#5",
                    "midi": 73,
                    "time": 750.6166666666833,
                    "velocity": 0.84251968503937,
                    "duration": 0.10625000000015916
                },
                {
                    "name": "C6",
                    "midi": 84,
                    "time": 750.7979166666834,
                    "velocity": 0.7637795275590551,
                    "duration": 0.1395833333332348
                },
                {
                    "name": "D#6",
                    "midi": 87,
                    "time": 750.8062500000167,
                    "velocity": 0.6929133858267716,
                    "duration": 0.17708333333325754
                },
                {
                    "name": "F#5",
                    "midi": 78,
                    "time": 750.95208333335,
                    "velocity": 0.889763779527559,
                    "duration": 0.2499999999998863
                },
                {
                    "name": "D#5",
                    "midi": 75,
                    "time": 750.95833333335,
                    "velocity": 0.8582677165354331,
                    "duration": 0.15833333333330302
                },
                {
                    "name": "A#5",
                    "midi": 82,
                    "time": 750.9791666666832,
                    "velocity": 0.889763779527559,
                    "duration": 0.1562500000001137
                },
                {
                    "name": "B5",
                    "midi": 83,
                    "time": 751.1312500000166,
                    "velocity": 0.7637795275590551,
                    "duration": 0.25625000000002274
                },
                {
                    "name": "G3",
                    "midi": 55,
                    "time": 751.1500000000167,
                    "velocity": 0.8110236220472441,
                    "duration": 0.08124999999984084
                },
                {
                    "name": "B3",
                    "midi": 59,
                    "time": 751.15208333335,
                    "velocity": 0.9212598425196851,
                    "duration": 0.09374999999988631
                },
                {
                    "name": "E5",
                    "midi": 76,
                    "time": 751.1541666666833,
                    "velocity": 0.8188976377952756,
                    "duration": 0.14791666666667425
                },
                {
                    "name": "E3",
                    "midi": 52,
                    "time": 751.1562500000166,
                    "velocity": 0.7874015748031497,
                    "duration": 0.11249999999995453
                },
                {
                    "name": "G5",
                    "midi": 79,
                    "time": 751.1583333333499,
                    "velocity": 0.8110236220472441,
                    "duration": 0.17708333333337123
                },
                {
                    "name": "E4",
                    "midi": 64,
                    "time": 751.1604166666832,
                    "velocity": 0.9606299212598425,
                    "duration": 0.11250000000006821
                },
                {
                    "name": "F#6",
                    "midi": 90,
                    "time": 751.3375000000166,
                    "velocity": 0.8661417322834646,
                    "duration": 0.11875000000009095
                },
                {
                    "name": "D#6",
                    "midi": 87,
                    "time": 751.3416666666833,
                    "velocity": 0.8503937007874016,
                    "duration": 0.09791666666671972
                },
                {
                    "name": "G#2",
                    "midi": 44,
                    "time": 751.6104166666834,
                    "velocity": 1,
                    "duration": 0.12291666666681067
                },
                {
                    "name": "G#1",
                    "midi": 32,
                    "time": 751.6145833333501,
                    "velocity": 0.9921259842519685,
                    "duration": 0.08750000000009095
                },
                {
                    "name": "G#3",
                    "midi": 56,
                    "time": 752.0166666666835,
                    "velocity": 0.8582677165354331,
                    "duration": 0.07291666666662877
                },
                {
                    "name": "G3",
                    "midi": 55,
                    "time": 752.0187500000168,
                    "velocity": 0.7795275590551181,
                    "duration": 0.07083333333332575
                },
                {
                    "name": "C4",
                    "midi": 60,
                    "time": 752.0208333333501,
                    "velocity": 0.8582677165354331,
                    "duration": 0.058333333333393966
                },
                {
                    "name": "G5",
                    "midi": 79,
                    "time": 752.0270833333501,
                    "velocity": 0.8976377952755905,
                    "duration": 0.09166666666669698
                },
                {
                    "name": "G#5",
                    "midi": 80,
                    "time": 752.0333333333501,
                    "velocity": 0.889763779527559,
                    "duration": 0.08124999999995453
                },
                {
                    "name": "C5",
                    "midi": 72,
                    "time": 752.0333333333501,
                    "velocity": 0.9212598425196851,
                    "duration": 0.06458333333330302
                },
                {
                    "name": "C6",
                    "midi": 84,
                    "time": 752.0354166666834,
                    "velocity": 0.8503937007874016,
                    "duration": 0.09791666666671972
                },
                {
                    "name": "C5",
                    "midi": 72,
                    "time": 752.5250000000167,
                    "velocity": 0.8582677165354331,
                    "duration": 0.06874999999990905
                },
                {
                    "name": "C6",
                    "midi": 84,
                    "time": 752.52708333335,
                    "velocity": 0.8188976377952756,
                    "duration": 0.07916666666665151
                },
                {
                    "name": "G#5",
                    "midi": 80,
                    "time": 752.5291666666833,
                    "velocity": 0.7401574803149606,
                    "duration": 0.09166666666669698
                },
                {
                    "name": "G#5",
                    "midi": 80,
                    "time": 752.6729166666834,
                    "velocity": 0.8818897637795275,
                    "duration": 0.07500000000015916
                },
                {
                    "name": "C6",
                    "midi": 84,
                    "time": 752.6770833333501,
                    "velocity": 0.8503937007874016,
                    "duration": 0.0625
                },
                {
                    "name": "D1",
                    "midi": 26,
                    "time": 752.6791666666834,
                    "velocity": 0.6456692913385826,
                    "duration": 0.06041666666669698
                },
                {
                    "name": "C5",
                    "midi": 72,
                    "time": 752.6812500000167,
                    "velocity": 0.9291338582677166,
                    "duration": 0.05625000000009095
                },
                {
                    "name": "F#5",
                    "midi": 78,
                    "time": 752.68333333335,
                    "velocity": 0.8976377952755905,
                    "duration": 0.06041666666681067
                },
                {
                    "name": "D2",
                    "midi": 38,
                    "time": 752.6875000000167,
                    "velocity": 0.8740157480314961,
                    "duration": 0.06250000000011369
                },
                {
                    "name": "C3",
                    "midi": 48,
                    "time": 753.1270833333501,
                    "velocity": 0.7165354330708661,
                    "duration": 0.22708333333343944
                },
                {
                    "name": "F#3",
                    "midi": 54,
                    "time": 753.2125000000168,
                    "velocity": 0.8503937007874016,
                    "duration": 0.22708333333343944
                },
                {
                    "name": "G#3",
                    "midi": 56,
                    "time": 753.2791666666835,
                    "velocity": 0.8661417322834646,
                    "duration": 0.1750000000000682
                },
                {
                    "name": "C4",
                    "midi": 60,
                    "time": 753.3604166666836,
                    "velocity": 0.5039370078740157,
                    "duration": 0.10416666666662877
                },
                {
                    "name": "D4",
                    "midi": 62,
                    "time": 753.3604166666836,
                    "velocity": 0.44881889763779526,
                    "duration": 0.10624999999993179
                },
                {
                    "name": "F#4",
                    "midi": 66,
                    "time": 753.4083333333502,
                    "velocity": 0.8188976377952756,
                    "duration": 0.11249999999995453
                },
                {
                    "name": "G#4",
                    "midi": 68,
                    "time": 753.4354166666835,
                    "velocity": 0.7480314960629921,
                    "duration": 0.10208333333332575
                },
                {
                    "name": "C5",
                    "midi": 72,
                    "time": 753.4833333333502,
                    "velocity": 0.9212598425196851,
                    "duration": 0.08333333333337123
                },
                {
                    "name": "G#1",
                    "midi": 32,
                    "time": 753.9145833333503,
                    "velocity": 0.7795275590551181,
                    "duration": 0.058333333333393966
                },
                {
                    "name": "G#2",
                    "midi": 44,
                    "time": 753.9145833333503,
                    "velocity": 1,
                    "duration": 0.07708333333334849
                },
                {
                    "name": "G3",
                    "midi": 55,
                    "time": 754.2541666666837,
                    "velocity": 0.8031496062992126,
                    "duration": 0.07083333333343944
                },
                {
                    "name": "G#3",
                    "midi": 56,
                    "time": 754.256250000017,
                    "velocity": 0.889763779527559,
                    "duration": 0.06875000000013642
                },
                {
                    "name": "C4",
                    "midi": 60,
                    "time": 754.2583333333503,
                    "velocity": 0.8976377952755905,
                    "duration": 0.06041666666681067
                },
                {
                    "name": "G5",
                    "midi": 79,
                    "time": 754.262500000017,
                    "velocity": 0.8818897637795275,
                    "duration": 0.07708333333346218
                },
                {
                    "name": "C6",
                    "midi": 84,
                    "time": 754.2666666666837,
                    "velocity": 0.8582677165354331,
                    "duration": 0.10000000000002274
                },
                {
                    "name": "G#5",
                    "midi": 80,
                    "time": 754.2666666666837,
                    "velocity": 0.889763779527559,
                    "duration": 0.08333333333337123
                },
                {
                    "name": "C5",
                    "midi": 72,
                    "time": 754.2666666666837,
                    "velocity": 0.889763779527559,
                    "duration": 0.06250000000011369
                },
                {
                    "name": "G#5",
                    "midi": 80,
                    "time": 754.7291666666837,
                    "velocity": 0.7795275590551181,
                    "duration": 0.08125000000006821
                },
                {
                    "name": "C6",
                    "midi": 84,
                    "time": 754.7333333333504,
                    "velocity": 0.7874015748031497,
                    "duration": 0.07916666666665151
                },
                {
                    "name": "C5",
                    "midi": 72,
                    "time": 754.7333333333504,
                    "velocity": 0.8188976377952756,
                    "duration": 0.03333333333330302
                },
                {
                    "name": "G5",
                    "midi": 79,
                    "time": 754.7416666666837,
                    "velocity": 0.6299212598425197,
                    "duration": 0.03750000000002274
                },
                {
                    "name": "D1",
                    "midi": 26,
                    "time": 754.8583333333504,
                    "velocity": 0.7165354330708661,
                    "duration": 0.06666666666671972
                },
                {
                    "name": "C6",
                    "midi": 84,
                    "time": 754.8666666666837,
                    "velocity": 0.8503937007874016,
                    "duration": 0.0625
                },
                {
                    "name": "G#5",
                    "midi": 80,
                    "time": 754.8708333333504,
                    "velocity": 0.8818897637795275,
                    "duration": 0.06874999999990905
                },
                {
                    "name": "D2",
                    "midi": 38,
                    "time": 754.8708333333504,
                    "velocity": 0.9212598425196851,
                    "duration": 0.06666666666660603
                },
                {
                    "name": "C5",
                    "midi": 72,
                    "time": 754.8750000000172,
                    "velocity": 0.8976377952755905,
                    "duration": 0.05208333333325754
                },
                {
                    "name": "F#5",
                    "midi": 78,
                    "time": 754.8770833333505,
                    "velocity": 0.905511811023622,
                    "duration": 0.05833333333328028
                },
                {
                    "name": "C3",
                    "midi": 48,
                    "time": 755.3041666666837,
                    "velocity": 0.6456692913385826,
                    "duration": 0.18333333333339397
                },
                {
                    "name": "F#3",
                    "midi": 54,
                    "time": 755.3895833333504,
                    "velocity": 0.8267716535433071,
                    "duration": 0.14583333333337123
                },
                {
                    "name": "G#3",
                    "midi": 56,
                    "time": 755.4583333333504,
                    "velocity": 0.8110236220472441,
                    "duration": 0.10833333333334849
                },
                {
                    "name": "C4",
                    "midi": 60,
                    "time": 755.5250000000171,
                    "velocity": 0.4015748031496063,
                    "duration": 0.10625000000004547
                },
                {
                    "name": "D4",
                    "midi": 62,
                    "time": 755.5333333333505,
                    "velocity": 0.47244094488188976,
                    "duration": 0.10000000000002274
                },
                {
                    "name": "D#4",
                    "midi": 63,
                    "time": 755.5791666666838,
                    "velocity": 0.8188976377952756,
                    "duration": 0.08124999999995453
                },
                {
                    "name": "F#4",
                    "midi": 66,
                    "time": 755.6000000000172,
                    "velocity": 0.8503937007874016,
                    "duration": 0.10624999999993179
                },
                {
                    "name": "G#4",
                    "midi": 68,
                    "time": 755.6437500000171,
                    "velocity": 0.6299212598425197,
                    "duration": 0.07708333333334849
                },
                {
                    "name": "C5",
                    "midi": 72,
                    "time": 755.6916666666838,
                    "velocity": 0.8818897637795275,
                    "duration": 0.08125000000006821
                },
                {
                    "name": "D1",
                    "midi": 26,
                    "time": 756.3687500000171,
                    "velocity": 0.952755905511811,
                    "duration": 0.33541666666667425
                },
                {
                    "name": "D2",
                    "midi": 38,
                    "time": 756.3729166666839,
                    "velocity": 0.9291338582677166,
                    "duration": 0.28125
                },
                {
                    "name": "D#2",
                    "midi": 39,
                    "time": 756.6479166666838,
                    "velocity": 0.7480314960629921,
                    "duration": 0.18124999999997726
                },
                {
                    "name": "D#1",
                    "midi": 27,
                    "time": 756.6500000000171,
                    "velocity": 0.6929133858267716,
                    "duration": 0.24583333333339397
                },
                {
                    "name": "G2",
                    "midi": 43,
                    "time": 756.8645833333505,
                    "velocity": 0.6929133858267716,
                    "duration": 0.21875
                },
                {
                    "name": "G1",
                    "midi": 31,
                    "time": 756.8708333333506,
                    "velocity": 0.6535433070866141,
                    "duration": 0.21666666666669698
                },
                {
                    "name": "G#1",
                    "midi": 32,
                    "time": 757.0604166666839,
                    "velocity": 0.7559055118110236,
                    "duration": 0.18750000000022737
                },
                {
                    "name": "G#2",
                    "midi": 44,
                    "time": 757.0666666666839,
                    "velocity": 0.7716535433070866,
                    "duration": 0.08125000000006821
                },
                {
                    "name": "C3",
                    "midi": 48,
                    "time": 757.2312500000173,
                    "velocity": 0.7401574803149606,
                    "duration": 0.0958333333334167
                },
                {
                    "name": "C2",
                    "midi": 36,
                    "time": 757.235416666684,
                    "velocity": 0.7007874015748031,
                    "duration": 0.11458333333337123
                },
                {
                    "name": "E3",
                    "midi": 52,
                    "time": 757.4166666666841,
                    "velocity": 0.7874015748031497,
                    "duration": 0.1729166666666515
                },
                {
                    "name": "E2",
                    "midi": 40,
                    "time": 757.4250000000175,
                    "velocity": 0.8188976377952756,
                    "duration": 0.21249999999997726
                },
                {
                    "name": "D#3",
                    "midi": 51,
                    "time": 757.5854166666842,
                    "velocity": 0.84251968503937,
                    "duration": 0.10624999999993179
                },
                {
                    "name": "D#2",
                    "midi": 39,
                    "time": 757.5875000000175,
                    "velocity": 0.7637795275590551,
                    "duration": 0.21666666666669698
                },
                {
                    "name": "G2",
                    "midi": 43,
                    "time": 757.7604166666841,
                    "velocity": 0.7795275590551181,
                    "duration": 0.22708333333343944
                },
                {
                    "name": "G3",
                    "midi": 55,
                    "time": 757.7666666666842,
                    "velocity": 0.7795275590551181,
                    "duration": 0.21666666666669698
                },
                {
                    "name": "G#2",
                    "midi": 44,
                    "time": 757.9291666666842,
                    "velocity": 0.84251968503937,
                    "duration": 0.21666666666669698
                },
                {
                    "name": "G#3",
                    "midi": 56,
                    "time": 757.9354166666842,
                    "velocity": 0.8503937007874016,
                    "duration": 0.125
                },
                {
                    "name": "B2",
                    "midi": 47,
                    "time": 758.0979166666842,
                    "velocity": 0.7322834645669292,
                    "duration": 0.1895833333334167
                },
                {
                    "name": "B3",
                    "midi": 59,
                    "time": 758.1062500000176,
                    "velocity": 0.8110236220472441,
                    "duration": 0.1583333333334167
                },
                {
                    "name": "C3",
                    "midi": 48,
                    "time": 758.2520833333509,
                    "velocity": 0.8582677165354331,
                    "duration": 0.10000000000002274
                },
                {
                    "name": "C4",
                    "midi": 60,
                    "time": 758.2562500000176,
                    "velocity": 0.8188976377952756,
                    "duration": 0.07708333333334849
                },
                {
                    "name": "E4",
                    "midi": 64,
                    "time": 758.4312500000176,
                    "velocity": 0.8582677165354331,
                    "duration": 0.18541666666669698
                },
                {
                    "name": "E3",
                    "midi": 52,
                    "time": 758.4312500000176,
                    "velocity": 0.8110236220472441,
                    "duration": 0.17708333333337123
                },
                {
                    "name": "D#3",
                    "midi": 51,
                    "time": 758.5625000000176,
                    "velocity": 0.8267716535433071,
                    "duration": 0.17708333333337123
                },
                {
                    "name": "D#4",
                    "midi": 63,
                    "time": 758.583333333351,
                    "velocity": 0.8818897637795275,
                    "duration": 0.16458333333332575
                },
                {
                    "name": "D3",
                    "midi": 50,
                    "time": 758.739583333351,
                    "velocity": 0.8346456692913385,
                    "duration": 0.22083333333330302
                },
                {
                    "name": "D4",
                    "midi": 62,
                    "time": 758.7416666666843,
                    "velocity": 0.7716535433070866,
                    "duration": 0.17708333333337123
                },
                {
                    "name": "D#3",
                    "midi": 51,
                    "time": 758.9041666666843,
                    "velocity": 0.9133858267716536,
                    "duration": 0.1833333333331666
                },
                {
                    "name": "E4",
                    "midi": 64,
                    "time": 758.9125000000176,
                    "velocity": 0.03937007874015748,
                    "duration": 0.05833333333328028
                },
                {
                    "name": "G3",
                    "midi": 55,
                    "time": 759.0583333333509,
                    "velocity": 0.8346456692913385,
                    "duration": 0.21249999999997726
                },
                {
                    "name": "G4",
                    "midi": 67,
                    "time": 759.0770833333509,
                    "velocity": 0.7874015748031497,
                    "duration": 0.20833333333337123
                },
                {
                    "name": "G#4",
                    "midi": 68,
                    "time": 759.2250000000175,
                    "velocity": 0.889763779527559,
                    "duration": 0.08333333333337123
                },
                {
                    "name": "G#3",
                    "midi": 56,
                    "time": 759.2354166666842,
                    "velocity": 0.889763779527559,
                    "duration": 0.06250000000011369
                },
                {
                    "name": "D#3",
                    "midi": 51,
                    "time": 759.3875000000176,
                    "velocity": 0.9763779527559056,
                    "duration": 0.24791666666681067
                },
                {
                    "name": "G#2",
                    "midi": 44,
                    "time": 759.3895833333509,
                    "velocity": 0.968503937007874,
                    "duration": 0.23125000000015916
                },
                {
                    "name": "G4",
                    "midi": 67,
                    "time": 759.4270833333509,
                    "velocity": 0.8818897637795275,
                    "duration": 0.21250000000020464
                },
                {
                    "name": "B4",
                    "midi": 71,
                    "time": 759.4270833333509,
                    "velocity": 0.9133858267716536,
                    "duration": 0.21875000000022737
                },
                {
                    "name": "E4",
                    "midi": 64,
                    "time": 759.4333333333509,
                    "velocity": 0.7952755905511811,
                    "duration": 0.17708333333348492
                },
                {
                    "name": "F4",
                    "midi": 65,
                    "time": 759.5937500000176,
                    "velocity": 0.7086614173228346,
                    "duration": 0.09583333333353039
                },
                {
                    "name": "C5",
                    "midi": 72,
                    "time": 759.5979166666843,
                    "velocity": 0.8503937007874016,
                    "duration": 0.16250000000013642
                },
                {
                    "name": "G#4",
                    "midi": 68,
                    "time": 759.5979166666843,
                    "velocity": 0.8582677165354331,
                    "duration": 0.1104166666667652
                },
                {
                    "name": "G5",
                    "midi": 79,
                    "time": 759.7854166666845,
                    "velocity": 0.7401574803149606,
                    "duration": 0.13541666666674246
                },
                {
                    "name": "E5",
                    "midi": 76,
                    "time": 759.7854166666845,
                    "velocity": 0.7637795275590551,
                    "duration": 0.09791666666671972
                },
                {
                    "name": "D5",
                    "midi": 74,
                    "time": 759.9437500000179,
                    "velocity": 0.7952755905511811,
                    "duration": 0.17916666666656056
                },
                {
                    "name": "G4",
                    "midi": 67,
                    "time": 759.9541666666845,
                    "velocity": 0.6850393700787402,
                    "duration": 0.21249999999986358
                },
                {
                    "name": "A#4",
                    "midi": 70,
                    "time": 759.9562500000178,
                    "velocity": 0.7952755905511811,
                    "duration": 0.20833333333325754
                },
                {
                    "name": "D#5",
                    "midi": 75,
                    "time": 760.0979166666845,
                    "velocity": 0.8503937007874016,
                    "duration": 0.14583333333337123
                },
                {
                    "name": "D#4",
                    "midi": 63,
                    "time": 760.1208333333511,
                    "velocity": 0.937007874015748,
                    "duration": 0.06666666666660603
                },
                {
                    "name": "B4",
                    "midi": 71,
                    "time": 760.1250000000177,
                    "velocity": 0.7874015748031497,
                    "duration": 0.08958333333339397
                },
                {
                    "name": "C5",
                    "midi": 72,
                    "time": 760.1250000000177,
                    "velocity": 0.9291338582677166,
                    "duration": 0.06875000000002274
                },
                {
                    "name": "G#4",
                    "midi": 68,
                    "time": 760.127083333351,
                    "velocity": 0.952755905511811,
                    "duration": 0.0791666666667652
                },
                {
                    "name": "G5",
                    "midi": 79,
                    "time": 760.2875000000179,
                    "velocity": 0.7795275590551181,
                    "duration": 0.10416666666674246
                },
                {
                    "name": "A#5",
                    "midi": 82,
                    "time": 760.2937500000179,
                    "velocity": 0.7480314960629921,
                    "duration": 0.1270833333334167
                },
                {
                    "name": "C#5",
                    "midi": 73,
                    "time": 760.4395833333513,
                    "velocity": 0.8976377952755905,
                    "duration": 0.125
                },
                {
                    "name": "A#4",
                    "midi": 70,
                    "time": 760.443750000018,
                    "velocity": 0.8346456692913385,
                    "duration": 0.11874999999997726
                },
                {
                    "name": "F5",
                    "midi": 77,
                    "time": 760.4479166666847,
                    "velocity": 0.84251968503937,
                    "duration": 0.18124999999986358
                },
                {
                    "name": "C4",
                    "midi": 60,
                    "time": 760.4583333333513,
                    "velocity": 0.9212598425196851,
                    "duration": 0.07083333333332575
                },
                {
                    "name": "F4",
                    "midi": 65,
                    "time": 760.4583333333513,
                    "velocity": 0.889763779527559,
                    "duration": 0.0625
                },
                {
                    "name": "A4",
                    "midi": 69,
                    "time": 760.4604166666846,
                    "velocity": 0.8188976377952756,
                    "duration": 0.07083333333332575
                },
                {
                    "name": "F#5",
                    "midi": 78,
                    "time": 760.5895833333512,
                    "velocity": 0.8976377952755905,
                    "duration": 0.20833333333348492
                },
                {
                    "name": "B4",
                    "midi": 71,
                    "time": 760.6041666666846,
                    "velocity": 0.8582677165354331,
                    "duration": 0.10000000000002274
                },
                {
                    "name": "D5",
                    "midi": 74,
                    "time": 760.6104166666846,
                    "velocity": 0.8346456692913385,
                    "duration": 0.12291666666669698
                },
                {
                    "name": "A3",
                    "midi": 57,
                    "time": 760.7645833333513,
                    "velocity": 0.7795275590551181,
                    "duration": 0.06666666666671972
                },
                {
                    "name": "D4",
                    "midi": 62,
                    "time": 760.768750000018,
                    "velocity": 0.8110236220472441,
                    "duration": 0.06458333333330302
                },
                {
                    "name": "F#4",
                    "midi": 66,
                    "time": 760.768750000018,
                    "velocity": 0.8976377952755905,
                    "duration": 0.06041666666669698
                },
                {
                    "name": "A#5",
                    "midi": 82,
                    "time": 760.775000000018,
                    "velocity": 0.8188976377952756,
                    "duration": 0.17291666666653782
                },
                {
                    "name": "C#6",
                    "midi": 85,
                    "time": 760.775000000018,
                    "velocity": 0.7716535433070866,
                    "duration": 0.13124999999990905
                },
                {
                    "name": "C#5",
                    "midi": 73,
                    "time": 760.9312500000179,
                    "velocity": 0.905511811023622,
                    "duration": 0.12916666666671972
                },
                {
                    "name": "E5",
                    "midi": 76,
                    "time": 760.9312500000179,
                    "velocity": 0.9133858267716536,
                    "duration": 0.12291666666669698
                },
                {
                    "name": "G#5",
                    "midi": 80,
                    "time": 760.9416666666846,
                    "velocity": 0.8818897637795275,
                    "duration": 0.12916666666671972
                },
                {
                    "name": "B3",
                    "midi": 59,
                    "time": 761.0895833333512,
                    "velocity": 0.889763779527559,
                    "duration": 0.05833333333316659
                },
                {
                    "name": "D#4",
                    "midi": 63,
                    "time": 761.0916666666845,
                    "velocity": 0.8976377952755905,
                    "duration": 0.07291666666651508
                },
                {
                    "name": "F#3",
                    "midi": 54,
                    "time": 761.0937500000178,
                    "velocity": 0.9133858267716536,
                    "duration": 0.060416666666583296
                },
                {
                    "name": "A5",
                    "midi": 81,
                    "time": 761.0958333333512,
                    "velocity": 0.8346456692913385,
                    "duration": 0.1229166666665833
                },
                {
                    "name": "D5",
                    "midi": 74,
                    "time": 761.1062500000178,
                    "velocity": 0.8582677165354331,
                    "duration": 0.07499999999993179
                },
                {
                    "name": "F5",
                    "midi": 77,
                    "time": 761.1083333333511,
                    "velocity": 0.8818897637795275,
                    "duration": 0.11041666666665151
                },
                {
                    "name": "C6",
                    "midi": 84,
                    "time": 761.2666666666844,
                    "velocity": 0.8503937007874016,
                    "duration": 0.11875000000009095
                },
                {
                    "name": "E6",
                    "midi": 88,
                    "time": 761.2708333333511,
                    "velocity": 0.7952755905511811,
                    "duration": 0.1562500000001137
                },
                {
                    "name": "G#3",
                    "midi": 56,
                    "time": 761.3916666666845,
                    "velocity": 0.9133858267716536,
                    "duration": 0.06458333333353039
                },
                {
                    "name": "D#3",
                    "midi": 51,
                    "time": 761.3937500000178,
                    "velocity": 0.8661417322834646,
                    "duration": 0.0666666666669471
                },
                {
                    "name": "C4",
                    "midi": 60,
                    "time": 761.3979166666845,
                    "velocity": 0.9448818897637795,
                    "duration": 0.06875000000025011
                },
                {
                    "name": "B5",
                    "midi": 83,
                    "time": 761.4312500000179,
                    "velocity": 0.84251968503937,
                    "duration": 0.20000000000004547
                },
                {
                    "name": "E5",
                    "midi": 76,
                    "time": 761.4312500000179,
                    "velocity": 0.8818897637795275,
                    "duration": 0.1416666666667652
                },
                {
                    "name": "G5",
                    "midi": 79,
                    "time": 761.4354166666847,
                    "velocity": 0.8818897637795275,
                    "duration": 0.13541666666674246
                },
                {
                    "name": "C6",
                    "midi": 84,
                    "time": 761.5958333333514,
                    "velocity": 0.889763779527559,
                    "duration": 0.14583333333325754
                },
                {
                    "name": "F5",
                    "midi": 77,
                    "time": 761.606250000018,
                    "velocity": 0.7559055118110236,
                    "duration": 0.08124999999995453
                },
                {
                    "name": "G#5",
                    "midi": 80,
                    "time": 761.6166666666846,
                    "velocity": 0.889763779527559,
                    "duration": 0.10625000000004547
                },
                {
                    "name": "F3",
                    "midi": 53,
                    "time": 761.725000000018,
                    "velocity": 0.9448818897637795,
                    "duration": 0.05833333333328028
                },
                {
                    "name": "A3",
                    "midi": 57,
                    "time": 761.7270833333513,
                    "velocity": 0.8818897637795275,
                    "duration": 0.06041666666669698
                },
                {
                    "name": "C3",
                    "midi": 48,
                    "time": 761.7291666666846,
                    "velocity": 0.889763779527559,
                    "duration": 0.07708333333334849
                },
                {
                    "name": "G6",
                    "midi": 91,
                    "time": 761.7750000000179,
                    "velocity": 0.8188976377952756,
                    "duration": 0.12916666666660603
                },
                {
                    "name": "E6",
                    "midi": 88,
                    "time": 761.7770833333512,
                    "velocity": 0.8503937007874016,
                    "duration": 0.10208333333332575
                },
                {
                    "name": "A#5",
                    "midi": 82,
                    "time": 761.9291666666845,
                    "velocity": 0.905511811023622,
                    "duration": 0.21874999999977263
                },
                {
                    "name": "G5",
                    "midi": 79,
                    "time": 761.9312500000178,
                    "velocity": 0.8031496062992126,
                    "duration": 0.21874999999977263
                },
                {
                    "name": "D6",
                    "midi": 86,
                    "time": 761.9333333333511,
                    "velocity": 0.8976377952755905,
                    "duration": 0.20416666666653782
                },
                {
                    "name": "G#5",
                    "midi": 80,
                    "time": 762.0895833333511,
                    "velocity": 0.8976377952755905,
                    "duration": 0.12499999999977263
                },
                {
                    "name": "D#6",
                    "midi": 87,
                    "time": 762.0916666666844,
                    "velocity": 0.905511811023622,
                    "duration": 0.22291666666649235
                },
                {
                    "name": "B5",
                    "midi": 83,
                    "time": 762.1000000000178,
                    "velocity": 0.8110236220472441,
                    "duration": 0.14791666666644687
                },
                {
                    "name": "A2",
                    "midi": 45,
                    "time": 762.1166666666844,
                    "velocity": 0.952755905511811,
                    "duration": 0.10416666666651508
                },
                {
                    "name": "D3",
                    "midi": 50,
                    "time": 762.1187500000177,
                    "velocity": 0.9763779527559056,
                    "duration": 0.06458333333318933
                },
                {
                    "name": "F#3",
                    "midi": 54,
                    "time": 762.120833333351,
                    "velocity": 0.984251968503937,
                    "duration": 0.07083333333321207
                },
                {
                    "name": "G6",
                    "midi": 91,
                    "time": 762.2604166666843,
                    "velocity": 0.84251968503937,
                    "duration": 0.10624999999993179
                },
                {
                    "name": "A#6",
                    "midi": 94,
                    "time": 762.264583333351,
                    "velocity": 0.8976377952755905,
                    "duration": 0.09999999999990905
                },
                {
                    "name": "C2",
                    "midi": 36,
                    "time": 762.4291666666842,
                    "velocity": 0.6929133858267716,
                    "duration": 0.20000000000004547
                },
                {
                    "name": "C3",
                    "midi": 48,
                    "time": 762.4416666666842,
                    "velocity": 1,
                    "duration": 0.2354166666666515
                },
                {
                    "name": "B3",
                    "midi": 59,
                    "time": 762.8979166666842,
                    "velocity": 0.8818897637795275,
                    "duration": 0.060416666666583296
                },
                {
                    "name": "E4",
                    "midi": 64,
                    "time": 762.9000000000175,
                    "velocity": 0.9291338582677166,
                    "duration": 0.06666666666660603
                },
                {
                    "name": "C4",
                    "midi": 60,
                    "time": 762.9020833333508,
                    "velocity": 0.8818897637795275,
                    "duration": 0.06458333333330302
                },
                {
                    "name": "B5",
                    "midi": 83,
                    "time": 762.9104166666841,
                    "velocity": 0.8346456692913385,
                    "duration": 0.07916666666665151
                },
                {
                    "name": "E5",
                    "midi": 76,
                    "time": 762.9104166666841,
                    "velocity": 0.9291338582677166,
                    "duration": 0.11666666666667425
                },
                {
                    "name": "C6",
                    "midi": 84,
                    "time": 762.9125000000174,
                    "velocity": 0.8503937007874016,
                    "duration": 0.1270833333334167
                },
                {
                    "name": "E6",
                    "midi": 88,
                    "time": 762.9145833333507,
                    "velocity": 0.8740157480314961,
                    "duration": 0.13541666666674246
                },
                {
                    "name": "B5",
                    "midi": 83,
                    "time": 763.4104166666842,
                    "velocity": 0.7007874015748031,
                    "duration": 0.07500000000004547
                },
                {
                    "name": "E5",
                    "midi": 76,
                    "time": 763.414583333351,
                    "velocity": 0.7559055118110236,
                    "duration": 0.049999999999954525
                },
                {
                    "name": "C6",
                    "midi": 84,
                    "time": 763.4166666666843,
                    "velocity": 0.6771653543307087,
                    "duration": 0.08541666666667425
                },
                {
                    "name": "E6",
                    "midi": 88,
                    "time": 763.4250000000176,
                    "velocity": 0.5826771653543307,
                    "duration": 0.05624999999997726
                },
                {
                    "name": "F#1",
                    "midi": 30,
                    "time": 763.5500000000176,
                    "velocity": 0.7401574803149606,
                    "duration": 0.049999999999954525
                },
                {
                    "name": "C6",
                    "midi": 84,
                    "time": 763.5500000000176,
                    "velocity": 0.8740157480314961,
                    "duration": 0.060416666666583296
                },
                {
                    "name": "E6",
                    "midi": 88,
                    "time": 763.5520833333509,
                    "velocity": 0.7716535433070866,
                    "duration": 0.06666666666660603
                },
                {
                    "name": "F#2",
                    "midi": 42,
                    "time": 763.5541666666842,
                    "velocity": 0.9763779527559056,
                    "duration": 0.06666666666660603
                },
                {
                    "name": "E5",
                    "midi": 76,
                    "time": 763.5562500000175,
                    "velocity": 0.8740157480314961,
                    "duration": 0.06041666666669698
                },
                {
                    "name": "A#5",
                    "midi": 82,
                    "time": 763.5645833333508,
                    "velocity": 0.8818897637795275,
                    "duration": 0.05624999999997726
                },
                {
                    "name": "E3",
                    "midi": 52,
                    "time": 764.0395833333508,
                    "velocity": 0.6692913385826772,
                    "duration": 0.2875000000001364
                },
                {
                    "name": "A#3",
                    "midi": 58,
                    "time": 764.1062500000176,
                    "velocity": 0.7716535433070866,
                    "duration": 0.17708333333337123
                },
                {
                    "name": "C4",
                    "midi": 60,
                    "time": 764.1666666666843,
                    "velocity": 0.8740157480314961,
                    "duration": 0.12291666666669698
                },
                {
                    "name": "E4",
                    "midi": 64,
                    "time": 764.2354166666843,
                    "velocity": 0.6692913385826772,
                    "duration": 0.10833333333334849
                },
                {
                    "name": "G4",
                    "midi": 67,
                    "time": 764.289583333351,
                    "velocity": 0.7716535433070866,
                    "duration": 0.09583333333330302
                },
                {
                    "name": "A#4",
                    "midi": 70,
                    "time": 764.320833333351,
                    "velocity": 0.84251968503937,
                    "duration": 0.09999999999990905
                },
                {
                    "name": "C5",
                    "midi": 72,
                    "time": 764.3666666666843,
                    "velocity": 0.8031496062992126,
                    "duration": 0.08541666666656056
                },
                {
                    "name": "E5",
                    "midi": 76,
                    "time": 764.4041666666842,
                    "velocity": 0.9448818897637795,
                    "duration": 0.06875000000002274
                },
                {
                    "name": "C2",
                    "midi": 36,
                    "time": 764.7291666666843,
                    "velocity": 0.6377952755905512,
                    "duration": 0.08333333333325754
                },
                {
                    "name": "C3",
                    "midi": 48,
                    "time": 764.7458333333509,
                    "velocity": 1,
                    "duration": 0.11458333333325754
                },
                {
                    "name": "E5",
                    "midi": 76,
                    "time": 765.0625000000175,
                    "velocity": 0.8976377952755905,
                    "duration": 0.08749999999986358
                },
                {
                    "name": "E4",
                    "midi": 64,
                    "time": 765.0645833333508,
                    "velocity": 0.9606299212598425,
                    "duration": 0.06249999999988631
                },
                {
                    "name": "B3",
                    "midi": 59,
                    "time": 765.0645833333508,
                    "velocity": 0.9133858267716536,
                    "duration": 0.060416666666583296
                },
                {
                    "name": "C6",
                    "midi": 84,
                    "time": 765.0666666666841,
                    "velocity": 0.8110236220472441,
                    "duration": 0.11249999999995453
                },
                {
                    "name": "E6",
                    "midi": 88,
                    "time": 765.0687500000174,
                    "velocity": 0.8346456692913385,
                    "duration": 0.11874999999997726
                },
                {
                    "name": "C4",
                    "midi": 60,
                    "time": 765.0708333333507,
                    "velocity": 0.8818897637795275,
                    "duration": 0.04583333333334849
                },
                {
                    "name": "B5",
                    "midi": 83,
                    "time": 765.0708333333507,
                    "velocity": 0.7874015748031497,
                    "duration": 0.07083333333332575
                },
                {
                    "name": "B5",
                    "midi": 83,
                    "time": 765.5291666666841,
                    "velocity": 0.7007874015748031,
                    "duration": 0.08333333333337123
                },
                {
                    "name": "E5",
                    "midi": 76,
                    "time": 765.5333333333508,
                    "velocity": 0.7322834645669292,
                    "duration": 0.05833333333328028
                },
                {
                    "name": "C6",
                    "midi": 84,
                    "time": 765.5354166666841,
                    "velocity": 0.6535433070866141,
                    "duration": 0.08541666666667425
                },
                {
                    "name": "E6",
                    "midi": 88,
                    "time": 765.5437500000174,
                    "velocity": 0.5984251968503937,
                    "duration": 0.06041666666669698
                },
                {
                    "name": "E6",
                    "midi": 88,
                    "time": 765.6875000000175,
                    "velocity": 0.8346456692913385,
                    "duration": 0.07291666666651508
                },
                {
                    "name": "C6",
                    "midi": 84,
                    "time": 765.6875000000175,
                    "velocity": 0.8818897637795275,
                    "duration": 0.07083333333321207
                },
                {
                    "name": "E5",
                    "midi": 76,
                    "time": 765.6895833333508,
                    "velocity": 0.9291338582677166,
                    "duration": 0.0625
                },
                {
                    "name": "F#2",
                    "midi": 42,
                    "time": 765.6979166666841,
                    "velocity": 0.9763779527559056,
                    "duration": 0.07916666666653782
                },
                {
                    "name": "A#5",
                    "midi": 82,
                    "time": 765.7000000000174,
                    "velocity": 0.8818897637795275,
                    "duration": 0.05624999999997726
                },
                {
                    "name": "F#1",
                    "midi": 30,
                    "time": 765.7000000000174,
                    "velocity": 0.8661417322834646,
                    "duration": 0.054166666666674246
                },
                {
                    "name": "E3",
                    "midi": 52,
                    "time": 766.1125000000173,
                    "velocity": 0.6535433070866141,
                    "duration": 0.22916666666662877
                },
                {
                    "name": "A#3",
                    "midi": 58,
                    "time": 766.191666666684,
                    "velocity": 0.6850393700787402,
                    "duration": 0.15416666666669698
                },
                {
                    "name": "C4",
                    "midi": 60,
                    "time": 766.247916666684,
                    "velocity": 0.7637795275590551,
                    "duration": 0.13541666666674246
                },
                {
                    "name": "E4",
                    "midi": 64,
                    "time": 766.2812500000173,
                    "velocity": 0.6456692913385826,
                    "duration": 0.11458333333348492
                },
                {
                    "name": "G4",
                    "midi": 67,
                    "time": 766.3458333333507,
                    "velocity": 0.6929133858267716,
                    "duration": 0.09375000000011369
                },
                {
                    "name": "A#4",
                    "midi": 70,
                    "time": 766.3833333333507,
                    "velocity": 0.7637795275590551,
                    "duration": 0.08541666666678793
                },
                {
                    "name": "C5",
                    "midi": 72,
                    "time": 766.4250000000175,
                    "velocity": 0.7637795275590551,
                    "duration": 0.07083333333332575
                },
                {
                    "name": "E5",
                    "midi": 76,
                    "time": 766.4520833333509,
                    "velocity": 0.9763779527559056,
                    "duration": 0.08749999999997726
                },
                {
                    "name": "F#2",
                    "midi": 42,
                    "time": 767.1979166666841,
                    "velocity": 0.9291338582677166,
                    "duration": 0.11875000000009095
                },
                {
                    "name": "F#1",
                    "midi": 30,
                    "time": 767.2020833333509,
                    "velocity": 0.9291338582677166,
                    "duration": 0.1750000000000682
                },
                {
                    "name": "G1",
                    "midi": 31,
                    "time": 767.4312500000176,
                    "velocity": 0.8188976377952756,
                    "duration": 0.1708333333332348
                },
                {
                    "name": "G2",
                    "midi": 43,
                    "time": 767.4395833333509,
                    "velocity": 0.8031496062992126,
                    "duration": 0.09583333333330302
                },
                {
                    "name": "B1",
                    "midi": 35,
                    "time": 767.5937500000175,
                    "velocity": 0.7952755905511811,
                    "duration": 0.1416666666666515
                },
                {
                    "name": "B2",
                    "midi": 47,
                    "time": 767.6041666666841,
                    "velocity": 0.7952755905511811,
                    "duration": 0.13541666666674246
                },
                {
                    "name": "C2",
                    "midi": 36,
                    "time": 767.7687500000176,
                    "velocity": 0.8188976377952756,
                    "duration": 0.12083333333328028
                },
                {
                    "name": "C3",
                    "midi": 48,
                    "time": 767.7791666666842,
                    "velocity": 0.8031496062992126,
                    "duration": 0.11249999999995453
                },
                {
                    "name": "E2",
                    "midi": 40,
                    "time": 767.9250000000175,
                    "velocity": 0.8818897637795275,
                    "duration": 0.06875000000002274
                },
                {
                    "name": "E3",
                    "midi": 52,
                    "time": 767.9250000000175,
                    "velocity": 0.7874015748031497,
                    "duration": 0.06458333333330302
                },
                {
                    "name": "G#3",
                    "midi": 56,
                    "time": 768.1104166666842,
                    "velocity": 0.8346456692913385,
                    "duration": 0.10624999999993179
                },
                {
                    "name": "G#2",
                    "midi": 44,
                    "time": 768.1208333333508,
                    "velocity": 0.8661417322834646,
                    "duration": 0.08541666666667425
                },
                {
                    "name": "F#2",
                    "midi": 42,
                    "time": 768.2791666666841,
                    "velocity": 0.8346456692913385,
                    "duration": 0.10000000000002274
                },
                {
                    "name": "F#3",
                    "midi": 54,
                    "time": 768.2791666666841,
                    "velocity": 0.8582677165354331,
                    "duration": 0.07500000000004547
                },
                {
                    "name": "G2",
                    "midi": 43,
                    "time": 768.4291666666841,
                    "velocity": 0.8740157480314961,
                    "duration": 0.2208333333334167
                },
                {
                    "name": "G3",
                    "midi": 55,
                    "time": 768.4437500000174,
                    "velocity": 0.7952755905511811,
                    "duration": 0.12291666666669698
                },
                {
                    "name": "B3",
                    "midi": 59,
                    "time": 768.5875000000175,
                    "velocity": 0.8582677165354331,
                    "duration": 0.21458333333339397
                },
                {
                    "name": "B2",
                    "midi": 47,
                    "time": 768.5958333333508,
                    "velocity": 0.8503937007874016,
                    "duration": 0.18541666666669698
                },
                {
                    "name": "C3",
                    "midi": 48,
                    "time": 768.7520833333508,
                    "velocity": 0.8503937007874016,
                    "duration": 0.13541666666674246
                },
                {
                    "name": "C4",
                    "midi": 60,
                    "time": 768.7645833333509,
                    "velocity": 0.8582677165354331,
                    "duration": 0.12916666666671972
                },
                {
                    "name": "E3",
                    "midi": 52,
                    "time": 768.9125000000175,
                    "velocity": 0.8740157480314961,
                    "duration": 0.07499999999993179
                },
                {
                    "name": "E4",
                    "midi": 64,
                    "time": 768.9125000000175,
                    "velocity": 0.7637795275590551,
                    "duration": 0.07291666666662877
                },
                {
                    "name": "G#4",
                    "midi": 68,
                    "time": 769.0812500000175,
                    "velocity": 0.8818897637795275,
                    "duration": 0.20833333333337123
                },
                {
                    "name": "G#3",
                    "midi": 56,
                    "time": 769.0916666666841,
                    "velocity": 0.8267716535433071,
                    "duration": 0.049999999999954525
                },
                {
                    "name": "G3",
                    "midi": 55,
                    "time": 769.1250000000174,
                    "velocity": 0.4251968503937008,
                    "duration": 0.05624999999997726
                },
                {
                    "name": "G4",
                    "midi": 67,
                    "time": 769.2333333333507,
                    "velocity": 0.8031496062992126,
                    "duration": 0.11250000000006821
                },
                {
                    "name": "G3",
                    "midi": 55,
                    "time": 769.2541666666841,
                    "velocity": 0.7086614173228346,
                    "duration": 0.12916666666671972
                },
                {
                    "name": "D#4",
                    "midi": 63,
                    "time": 769.3958333333509,
                    "velocity": 0.8503937007874016,
                    "duration": 0.1374999999999318
                },
                {
                    "name": "D#3",
                    "midi": 51,
                    "time": 769.3979166666842,
                    "velocity": 0.9133858267716536,
                    "duration": 0.1395833333333485
                },
                {
                    "name": "E4",
                    "midi": 64,
                    "time": 769.5458333333509,
                    "velocity": 0.7874015748031497,
                    "duration": 0.20000000000004547
                },
                {
                    "name": "E3",
                    "midi": 52,
                    "time": 769.5500000000176,
                    "velocity": 0.7874015748031497,
                    "duration": 0.22916666666662877
                },
                {
                    "name": "F#3",
                    "midi": 54,
                    "time": 769.7083333333509,
                    "velocity": 0.9291338582677166,
                    "duration": 0.20624999999995453
                },
                {
                    "name": "F#4",
                    "midi": 66,
                    "time": 769.7145833333509,
                    "velocity": 0.8976377952755905,
                    "duration": 0.11249999999995453
                },
                {
                    "name": "G3",
                    "midi": 55,
                    "time": 769.8604166666842,
                    "velocity": 0.9291338582677166,
                    "duration": 0.14374999999995453
                },
                {
                    "name": "G4",
                    "midi": 67,
                    "time": 769.8645833333509,
                    "velocity": 0.8740157480314961,
                    "duration": 0.10624999999993179
                },
                {
                    "name": "C2",
                    "midi": 36,
                    "time": 770.0312500000174,
                    "velocity": 0.984251968503937,
                    "duration": 0.35416666666662877
                },
                {
                    "name": "G2",
                    "midi": 43,
                    "time": 770.0333333333507,
                    "velocity": 0.9921259842519685,
                    "duration": 0.39999999999997726
                },
                {
                    "name": "D#4",
                    "midi": 63,
                    "time": 770.0500000000173,
                    "velocity": 0.9291338582677166,
                    "duration": 0.11875000000009095
                },
                {
                    "name": "G#4",
                    "midi": 68,
                    "time": 770.0541666666841,
                    "velocity": 0.8976377952755905,
                    "duration": 0.1270833333334167
                },
                {
                    "name": "B4",
                    "midi": 71,
                    "time": 770.0604166666841,
                    "velocity": 0.8976377952755905,
                    "duration": 0.20000000000004547
                },
                {
                    "name": "E4",
                    "midi": 64,
                    "time": 770.2166666666842,
                    "velocity": 0.7952755905511811,
                    "duration": 0.10416666666651508
                },
                {
                    "name": "A4",
                    "midi": 69,
                    "time": 770.2187500000175,
                    "velocity": 0.8110236220472441,
                    "duration": 0.09999999999990905
                },
                {
                    "name": "C5",
                    "midi": 72,
                    "time": 770.2270833333508,
                    "velocity": 0.7795275590551181,
                    "duration": 0.18958333333318933
                },
                {
                    "name": "G#5",
                    "midi": 80,
                    "time": 770.3770833333507,
                    "velocity": 0.7952755905511811,
                    "duration": 0.13750000000004547
                },
                {
                    "name": "E5",
                    "midi": 76,
                    "time": 770.3979166666841,
                    "velocity": 0.7637795275590551,
                    "duration": 0.10208333333332575
                },
                {
                    "name": "D5",
                    "midi": 74,
                    "time": 770.547916666684,
                    "velocity": 0.889763779527559,
                    "duration": 0.1729166666666515
                },
                {
                    "name": "F#4",
                    "midi": 66,
                    "time": 770.5583333333507,
                    "velocity": 0.8267716535433071,
                    "duration": 0.11666666666667425
                },
                {
                    "name": "B4",
                    "midi": 71,
                    "time": 770.5625000000174,
                    "velocity": 0.7716535433070866,
                    "duration": 0.1229166666665833
                },
                {
                    "name": "D#5",
                    "midi": 75,
                    "time": 770.6833333333507,
                    "velocity": 0.8818897637795275,
                    "duration": 0.10416666666674246
                },
                {
                    "name": "E4",
                    "midi": 64,
                    "time": 770.6895833333507,
                    "velocity": 0.8740157480314961,
                    "duration": 0.08958333333339397
                },
                {
                    "name": "C4",
                    "midi": 60,
                    "time": 770.691666666684,
                    "velocity": 0.8818897637795275,
                    "duration": 0.05625000000009095
                },
                {
                    "name": "G3",
                    "midi": 55,
                    "time": 770.6937500000173,
                    "velocity": 0.7559055118110236,
                    "duration": 0.08125000000006821
                },
                {
                    "name": "G4",
                    "midi": 67,
                    "time": 770.7083333333507,
                    "velocity": 0.7322834645669292,
                    "duration": 0.10833333333346218
                },
                {
                    "name": "C5",
                    "midi": 72,
                    "time": 770.7145833333507,
                    "velocity": 0.7952755905511811,
                    "duration": 0.09791666666671972
                },
                {
                    "name": "G#4",
                    "midi": 68,
                    "time": 770.7416666666841,
                    "velocity": 0.4566929133858268,
                    "duration": 0.043750000000045475
                },
                {
                    "name": "G5",
                    "midi": 79,
                    "time": 770.8666666666841,
                    "velocity": 0.8031496062992126,
                    "duration": 0.10000000000002274
                },
                {
                    "name": "B5",
                    "midi": 83,
                    "time": 770.8666666666841,
                    "velocity": 0.7007874015748031,
                    "duration": 0.10833333333334849
                },
                {
                    "name": "F5",
                    "midi": 77,
                    "time": 771.0270833333508,
                    "velocity": 0.889763779527559,
                    "duration": 0.2020833333333485
                },
                {
                    "name": "E3",
                    "midi": 52,
                    "time": 771.0375000000174,
                    "velocity": 0.889763779527559,
                    "duration": 0.06875000000002274
                },
                {
                    "name": "A4",
                    "midi": 69,
                    "time": 771.0416666666841,
                    "velocity": 0.8031496062992126,
                    "duration": 0.12916666666660603
                },
                {
                    "name": "D5",
                    "midi": 74,
                    "time": 771.0437500000174,
                    "velocity": 0.8818897637795275,
                    "duration": 0.16875000000004547
                },
                {
                    "name": "C#4",
                    "midi": 61,
                    "time": 771.0437500000174,
                    "velocity": 0.8582677165354331,
                    "duration": 0.0625
                },
                {
                    "name": "A3",
                    "midi": 57,
                    "time": 771.0437500000174,
                    "velocity": 0.8110236220472441,
                    "duration": 0.03333333333330302
                },
                {
                    "name": "F#5",
                    "midi": 78,
                    "time": 771.1791666666841,
                    "velocity": 0.905511811023622,
                    "duration": 0.10208333333343944
                },
                {
                    "name": "A#4",
                    "midi": 70,
                    "time": 771.1854166666841,
                    "velocity": 0.84251968503937,
                    "duration": 0.08333333333337123
                },
                {
                    "name": "D#5",
                    "midi": 75,
                    "time": 771.1895833333508,
                    "velocity": 0.889763779527559,
                    "duration": 0.07916666666665151
                },
                {
                    "name": "A#5",
                    "midi": 82,
                    "time": 771.3541666666841,
                    "velocity": 0.8110236220472441,
                    "duration": 0.11875000000009095
                },
                {
                    "name": "C#3",
                    "midi": 49,
                    "time": 771.3541666666841,
                    "velocity": 0.937007874015748,
                    "duration": 0.06041666666681067
                },
                {
                    "name": "D6",
                    "midi": 86,
                    "time": 771.3583333333509,
                    "velocity": 0.7716535433070866,
                    "duration": 0.16666666666685614
                },
                {
                    "name": "A#3",
                    "midi": 58,
                    "time": 771.3625000000176,
                    "velocity": 0.8346456692913385,
                    "duration": 0.07083333333332575
                },
                {
                    "name": "F#3",
                    "midi": 54,
                    "time": 771.3645833333509,
                    "velocity": 0.8661417322834646,
                    "duration": 0.04583333333334849
                },
                {
                    "name": "C5",
                    "midi": 72,
                    "time": 771.5166666666843,
                    "velocity": 0.8740157480314961,
                    "duration": 0.1395833333333485
                },
                {
                    "name": "G#5",
                    "midi": 80,
                    "time": 771.5166666666843,
                    "velocity": 0.7244094488188977,
                    "duration": 0.18958333333318933
                },
                {
                    "name": "F5",
                    "midi": 77,
                    "time": 771.520833333351,
                    "velocity": 0.8976377952755905,
                    "duration": 0.14791666666656056
                },
                {
                    "name": "A5",
                    "midi": 81,
                    "time": 771.527083333351,
                    "velocity": 0.7716535433070866,
                    "duration": 0.09583333333330302
                },
                {
                    "name": "D#3",
                    "midi": 51,
                    "time": 771.6604166666843,
                    "velocity": 0.905511811023622,
                    "duration": 0.05416666666644687
                },
                {
                    "name": "C#5",
                    "midi": 73,
                    "time": 771.6625000000176,
                    "velocity": 0.8582677165354331,
                    "duration": 0.08958333333316659
                },
                {
                    "name": "G3",
                    "midi": 55,
                    "time": 771.664583333351,
                    "velocity": 0.9448818897637795,
                    "duration": 0.06249999999988631
                },
                {
                    "name": "A#2",
                    "midi": 46,
                    "time": 771.6666666666843,
                    "velocity": 0.7874015748031497,
                    "duration": 0.05208333333325754
                },
                {
                    "name": "A5",
                    "midi": 81,
                    "time": 771.6708333333509,
                    "velocity": 0.905511811023622,
                    "duration": 0.10624999999993179
                },
                {
                    "name": "F#5",
                    "midi": 78,
                    "time": 771.6729166666842,
                    "velocity": 0.889763779527559,
                    "duration": 0.08541666666667425
                },
                {
                    "name": "C6",
                    "midi": 84,
                    "time": 771.8458333333508,
                    "velocity": 0.8740157480314961,
                    "duration": 0.12083333333328028
                },
                {
                    "name": "E6",
                    "midi": 88,
                    "time": 771.8479166666841,
                    "velocity": 0.8188976377952756,
                    "duration": 0.1374999999999318
                },
                {
                    "name": "C3",
                    "midi": 48,
                    "time": 771.9979166666841,
                    "velocity": 0.8818897637795275,
                    "duration": 0.049999999999954525
                },
                {
                    "name": "G2",
                    "midi": 43,
                    "time": 771.9979166666841,
                    "velocity": 0.8346456692913385,
                    "duration": 0.07291666666662877
                },
                {
                    "name": "E3",
                    "midi": 52,
                    "time": 772.0000000000174,
                    "velocity": 1,
                    "duration": 0.06041666666669698
                },
                {
                    "name": "G#5",
                    "midi": 80,
                    "time": 772.016666666684,
                    "velocity": 0.952755905511811,
                    "duration": 0.1875000000001137
                },
                {
                    "name": "D#5",
                    "midi": 75,
                    "time": 772.0229166666841,
                    "velocity": 0.9291338582677166,
                    "duration": 0.1395833333333485
                },
                {
                    "name": "B5",
                    "midi": 83,
                    "time": 772.0395833333507,
                    "velocity": 0.8740157480314961,
                    "duration": 0.2645833333334622
                },
                {
                    "name": "E5",
                    "midi": 76,
                    "time": 772.1541666666841,
                    "velocity": 0.7401574803149606,
                    "duration": 0.11250000000006821
                },
                {
                    "name": "C6",
                    "midi": 84,
                    "time": 772.1666666666841,
                    "velocity": 0.889763779527559,
                    "duration": 0.10416666666674246
                },
                {
                    "name": "E6",
                    "midi": 88,
                    "time": 772.3395833333509,
                    "velocity": 0.8976377952755905,
                    "duration": 0.11666666666667425
                },
                {
                    "name": "G6",
                    "midi": 91,
                    "time": 772.3416666666842,
                    "velocity": 0.8503937007874016,
                    "duration": 0.13541666666674246
                },
                {
                    "name": "C#3",
                    "midi": 49,
                    "time": 772.3541666666843,
                    "velocity": 1,
                    "duration": 0.06041666666669698
                },
                {
                    "name": "E2",
                    "midi": 40,
                    "time": 772.3604166666843,
                    "velocity": 0.9212598425196851,
                    "duration": 0.06041666666669698
                },
                {
                    "name": "A2",
                    "midi": 45,
                    "time": 772.3604166666843,
                    "velocity": 0.8188976377952756,
                    "duration": 0.05624999999997726
                },
                {
                    "name": "D#6",
                    "midi": 87,
                    "time": 772.3791666666842,
                    "velocity": 0.3937007874015748,
                    "duration": 0.043750000000045475
                },
                {
                    "name": "B5",
                    "midi": 83,
                    "time": 772.4958333333509,
                    "velocity": 0.9133858267716536,
                    "duration": 0.19166666666660603
                },
                {
                    "name": "F#5",
                    "midi": 78,
                    "time": 772.4979166666842,
                    "velocity": 0.8661417322834646,
                    "duration": 0.16458333333332575
                },
                {
                    "name": "D6",
                    "midi": 86,
                    "time": 772.5166666666842,
                    "velocity": 0.9291338582677166,
                    "duration": 0.1750000000000682
                },
                {
                    "name": "G5",
                    "midi": 79,
                    "time": 772.6333333333508,
                    "velocity": 0.5826771653543307,
                    "duration": 0.13958333333346218
                },
                {
                    "name": "D#6",
                    "midi": 87,
                    "time": 772.6541666666842,
                    "velocity": 0.9133858267716536,
                    "duration": 0.10416666666674246
                },
                {
                    "name": "C6",
                    "midi": 84,
                    "time": 772.6562500000175,
                    "velocity": 0.8346456692913385,
                    "duration": 0.1416666666667652
                },
                {
                    "name": "C#2",
                    "midi": 37,
                    "time": 772.6916666666842,
                    "velocity": 0.9291338582677166,
                    "duration": 0.06666666666671972
                },
                {
                    "name": "F#2",
                    "midi": 42,
                    "time": 772.6937500000175,
                    "velocity": 0.8976377952755905,
                    "duration": 0.05208333333337123
                },
                {
                    "name": "A#2",
                    "midi": 46,
                    "time": 772.7020833333509,
                    "velocity": 0.984251968503937,
                    "duration": 0.058333333333393966
                },
                {
                    "name": "G6",
                    "midi": 91,
                    "time": 772.8250000000176,
                    "velocity": 0.9763779527559056,
                    "duration": 0.08333333333337123
                },
                {
                    "name": "B6",
                    "midi": 95,
                    "time": 772.8250000000176,
                    "velocity": 0.9291338582677166,
                    "duration": 0.09791666666671972
                },
                {
                    "name": "E1",
                    "midi": 28,
                    "time": 773.0500000000176,
                    "velocity": 0.8976377952755905,
                    "duration": 0.0645833333334167
                },
                {
                    "name": "E2",
                    "midi": 40,
                    "time": 773.0541666666843,
                    "velocity": 0.952755905511811,
                    "duration": 0.07708333333334849
                },
                {
                    "name": "G#4",
                    "midi": 68,
                    "time": 773.5500000000177,
                    "velocity": 0.9448818897637795,
                    "duration": 0.060416666666583296
                },
                {
                    "name": "D#4",
                    "midi": 63,
                    "time": 773.5500000000177,
                    "velocity": 0.8582677165354331,
                    "duration": 0.07083333333332575
                },
                {
                    "name": "E4",
                    "midi": 64,
                    "time": 773.552083333351,
                    "velocity": 0.84251968503937,
                    "duration": 0.0625
                },
                {
                    "name": "G#5",
                    "midi": 80,
                    "time": 773.5562500000177,
                    "velocity": 0.9448818897637795,
                    "duration": 0.05416666666656056
                },
                {
                    "name": "E6",
                    "midi": 88,
                    "time": 773.558333333351,
                    "velocity": 0.84251968503937,
                    "duration": 0.06458333333330302
                },
                {
                    "name": "D#6",
                    "midi": 87,
                    "time": 773.558333333351,
                    "velocity": 0.8818897637795275,
                    "duration": 0.06875000000002274
                },
                {
                    "name": "G#6",
                    "midi": 92,
                    "time": 773.5604166666843,
                    "velocity": 0.8582677165354331,
                    "duration": 0.0625
                },
                {
                    "name": "D#6",
                    "midi": 87,
                    "time": 773.8687500000177,
                    "velocity": 0.4094488188976378,
                    "duration": 0.05208333333337123
                },
                {
                    "name": "G#5",
                    "midi": 80,
                    "time": 774.1312500000178,
                    "velocity": 0.8346456692913385,
                    "duration": 0.05624999999997726
                },
                {
                    "name": "D#6",
                    "midi": 87,
                    "time": 774.1479166666844,
                    "velocity": 0.5118110236220472,
                    "duration": 0.09166666666669698
                },
                {
                    "name": "G#6",
                    "midi": 92,
                    "time": 774.1500000000177,
                    "velocity": 0.49606299212598426,
                    "duration": 0.11250000000006821
                },
                {
                    "name": "A#1",
                    "midi": 34,
                    "time": 774.3458333333512,
                    "velocity": 0.8818897637795275,
                    "duration": 0.06041666666669698
                },
                {
                    "name": "A#2",
                    "midi": 46,
                    "time": 774.3479166666845,
                    "velocity": 0.9921259842519685,
                    "duration": 0.07500000000004547
                },
                {
                    "name": "G#6",
                    "midi": 92,
                    "time": 774.3479166666845,
                    "velocity": 0.905511811023622,
                    "duration": 0.07291666666674246
                },
                {
                    "name": "D6",
                    "midi": 86,
                    "time": 774.3500000000178,
                    "velocity": 0.889763779527559,
                    "duration": 0.08541666666678793
                },
                {
                    "name": "G#5",
                    "midi": 80,
                    "time": 774.3500000000178,
                    "velocity": 0.9763779527559056,
                    "duration": 0.06875000000013642
                },
                {
                    "name": "E6",
                    "midi": 88,
                    "time": 774.3541666666845,
                    "velocity": 0.8188976377952756,
                    "duration": 0.08541666666678793
                },
                {
                    "name": "G#3",
                    "midi": 56,
                    "time": 774.7645833333513,
                    "velocity": 0.7874015748031497,
                    "duration": 0.20000000000015916
                },
                {
                    "name": "D4",
                    "midi": 62,
                    "time": 774.831250000018,
                    "velocity": 0.6771653543307087,
                    "duration": 0.19791666666674246
                },
                {
                    "name": "B3",
                    "midi": 59,
                    "time": 774.9062500000181,
                    "velocity": 0.7559055118110236,
                    "duration": 0.15625
                },
                {
                    "name": "E4",
                    "midi": 64,
                    "time": 774.9208333333514,
                    "velocity": 0.7716535433070866,
                    "duration": 0.11041666666665151
                },
                {
                    "name": "G#4",
                    "midi": 68,
                    "time": 774.9750000000181,
                    "velocity": 0.8346456692913385,
                    "duration": 0.11249999999995453
                },
                {
                    "name": "D5",
                    "midi": 74,
                    "time": 775.0312500000181,
                    "velocity": 0.6614173228346457,
                    "duration": 0.10208333333332575
                },
                {
                    "name": "D#5",
                    "midi": 75,
                    "time": 775.0416666666847,
                    "velocity": 0.41732283464566927,
                    "duration": 0.09375
                },
                {
                    "name": "E5",
                    "midi": 76,
                    "time": 775.0541666666848,
                    "velocity": 0.8110236220472441,
                    "duration": 0.11041666666665151
                },
                {
                    "name": "G#5",
                    "midi": 80,
                    "time": 775.0854166666848,
                    "velocity": 0.905511811023622,
                    "duration": 0.11041666666665151
                },
                {
                    "name": "F#5",
                    "midi": 78,
                    "time": 775.1291666666847,
                    "velocity": 0.3937007874015748,
                    "duration": 0.043750000000045475
                },
                {
                    "name": "E1",
                    "midi": 28,
                    "time": 775.4791666666847,
                    "velocity": 0.8976377952755905,
                    "duration": 0.22708333333332575
                },
                {
                    "name": "E2",
                    "midi": 40,
                    "time": 775.4833333333514,
                    "velocity": 0.9921259842519685,
                    "duration": 0.25833333333332575
                },
                {
                    "name": "G#6",
                    "midi": 92,
                    "time": 775.9395833333514,
                    "velocity": 0.8346456692913385,
                    "duration": 0.16666666666662877
                },
                {
                    "name": "E6",
                    "midi": 88,
                    "time": 776.0166666666847,
                    "velocity": 0.6614173228346457,
                    "duration": 0.11666666666656056
                },
                {
                    "name": "D#6",
                    "midi": 87,
                    "time": 776.075000000018,
                    "velocity": 0.8346456692913385,
                    "duration": 0.08749999999986358
                },
                {
                    "name": "G#5",
                    "midi": 80,
                    "time": 776.1354166666846,
                    "velocity": 0.7480314960629921,
                    "duration": 0.04583333333334849
                },
                {
                    "name": "E5",
                    "midi": 76,
                    "time": 776.1750000000179,
                    "velocity": 0.7322834645669292,
                    "duration": 0.1270833333334167
                },
                {
                    "name": "D#5",
                    "midi": 75,
                    "time": 776.2333333333513,
                    "velocity": 0.8661417322834646,
                    "duration": 0.10000000000002274
                },
                {
                    "name": "G#4",
                    "midi": 68,
                    "time": 776.287500000018,
                    "velocity": 0.8818897637795275,
                    "duration": 0.08125000000006821
                },
                {
                    "name": "G#5",
                    "midi": 80,
                    "time": 776.393750000018,
                    "velocity": 0.6141732283464567,
                    "duration": 0.19583333333343944
                },
                {
                    "name": "E5",
                    "midi": 76,
                    "time": 776.4604166666848,
                    "velocity": 0.6220472440944882,
                    "duration": 0.23958333333337123
                },
                {
                    "name": "G#4",
                    "midi": 68,
                    "time": 776.6000000000181,
                    "velocity": 0.6850393700787402,
                    "duration": 0.15416666666669698
                },
                {
                    "name": "D#5",
                    "midi": 75,
                    "time": 776.6041666666848,
                    "velocity": 0.1968503937007874,
                    "duration": 0.125
                },
                {
                    "name": "E3",
                    "midi": 52,
                    "time": 776.7895833333515,
                    "velocity": 0.5669291338582677,
                    "duration": 0.17708333333348492
                },
                {
                    "name": "E2",
                    "midi": 40,
                    "time": 776.7895833333515,
                    "velocity": 0.5511811023622047,
                    "duration": 0.13958333333346218
                },
                {
                    "name": "G#5",
                    "midi": 80,
                    "time": 777.372916666685,
                    "velocity": 0.7322834645669292,
                    "duration": 0.1270833333334167
                },
                {
                    "name": "D#4",
                    "midi": 63,
                    "time": 777.3750000000183,
                    "velocity": 0.5118110236220472,
                    "duration": 0.11458333333348492
                },
                {
                    "name": "B3",
                    "midi": 59,
                    "time": 777.3833333333516,
                    "velocity": 0.3228346456692913,
                    "duration": 0.11875000000009095
                },
                {
                    "name": "E4",
                    "midi": 64,
                    "time": 777.3875000000183,
                    "velocity": 0.4094488188976378,
                    "duration": 0.10416666666674246
                },
                {
                    "name": "G#4",
                    "midi": 68,
                    "time": 777.3916666666851,
                    "velocity": 0.4881889763779528,
                    "duration": 0.08750000000009095
                },
                {
                    "name": "B4",
                    "midi": 71,
                    "time": 777.3958333333518,
                    "velocity": 0.5118110236220472,
                    "duration": 0.06875000000002274
                },
                {
                    "name": "E5",
                    "midi": 76,
                    "time": 777.3979166666851,
                    "velocity": 0.5039370078740157,
                    "duration": 0.10208333333332575
                },
                {
                    "name": "D#4",
                    "midi": 63,
                    "time": 777.760416666685,
                    "velocity": 0.6141732283464567,
                    "duration": 0.03750000000002274
                },
                {
                    "name": "B3",
                    "midi": 59,
                    "time": 777.760416666685,
                    "velocity": 0.5748031496062992,
                    "duration": 0.07500000000004547
                },
                {
                    "name": "E4",
                    "midi": 64,
                    "time": 777.7625000000183,
                    "velocity": 0.4330708661417323,
                    "duration": 0.05208333333337123
                },
                {
                    "name": "G#5",
                    "midi": 80,
                    "time": 777.9062500000184,
                    "velocity": 0.6299212598425197,
                    "duration": 0.11249999999995453
                },
                {
                    "name": "B4",
                    "midi": 71,
                    "time": 777.9125000000184,
                    "velocity": 0.5826771653543307,
                    "duration": 0.07083333333332575
                },
                {
                    "name": "G#4",
                    "midi": 68,
                    "time": 777.9229166666851,
                    "velocity": 0.48031496062992124,
                    "duration": 0.08541666666667425
                },
                {
                    "name": "E5",
                    "midi": 76,
                    "time": 777.9291666666851,
                    "velocity": 0.4645669291338583,
                    "duration": 0.06041666666669698
                },
                {
                    "name": "E2",
                    "midi": 40,
                    "time": 778.0979166666851,
                    "velocity": 0.7874015748031497,
                    "duration": 0.07916666666665151
                },
                {
                    "name": "A5",
                    "midi": 81,
                    "time": 778.4166666666852,
                    "velocity": 0.7716535433070866,
                    "duration": 0.09166666666692436
                },
                {
                    "name": "A4",
                    "midi": 69,
                    "time": 778.4229166666852,
                    "velocity": 0.6929133858267716,
                    "duration": 0.06875000000013642
                },
                {
                    "name": "F#5",
                    "midi": 78,
                    "time": 778.4229166666852,
                    "velocity": 0.7244094488188977,
                    "duration": 0.07291666666685614
                },
                {
                    "name": "A#3",
                    "midi": 58,
                    "time": 778.4291666666852,
                    "velocity": 0.6456692913385826,
                    "duration": 0.058333333333393966
                },
                {
                    "name": "D4",
                    "midi": 62,
                    "time": 778.4291666666852,
                    "velocity": 0.6062992125984252,
                    "duration": 0.04166666666674246
                },
                {
                    "name": "D5",
                    "midi": 74,
                    "time": 778.4333333333519,
                    "velocity": 0.7007874015748031,
                    "duration": 0.05000000000006821
                },
                {
                    "name": "E4",
                    "midi": 64,
                    "time": 778.4375000000186,
                    "velocity": 0.48031496062992124,
                    "duration": 0.04791666666665151
                },
                {
                    "name": "E4",
                    "midi": 64,
                    "time": 778.7604166666854,
                    "velocity": 0.5748031496062992,
                    "duration": 0.04166666666674246
                },
                {
                    "name": "A#3",
                    "midi": 58,
                    "time": 778.7729166666854,
                    "velocity": 0.5748031496062992,
                    "duration": 0.05416666666678793
                },
                {
                    "name": "D4",
                    "midi": 62,
                    "time": 778.7729166666854,
                    "velocity": 0.44881889763779526,
                    "duration": 0.05000000000006821
                },
                {
                    "name": "A5",
                    "midi": 81,
                    "time": 778.8854166666855,
                    "velocity": 0.8110236220472441,
                    "duration": 0.13958333333346218
                },
                {
                    "name": "A4",
                    "midi": 69,
                    "time": 778.8895833333522,
                    "velocity": 0.6850393700787402,
                    "duration": 0.07083333333332575
                },
                {
                    "name": "D5",
                    "midi": 74,
                    "time": 778.9020833333523,
                    "velocity": 0.6062992125984252,
                    "duration": 0.049999999999954525
                },
                {
                    "name": "F#5",
                    "midi": 78,
                    "time": 778.9041666666856,
                    "velocity": 0.6299212598425197,
                    "duration": 0.09166666666669698
                },
                {
                    "name": "E2",
                    "midi": 40,
                    "time": 779.093750000019,
                    "velocity": 0.8346456692913385,
                    "duration": 0.07500000000004547
                },
                {
                    "name": "A#5",
                    "midi": 82,
                    "time": 779.4083333333524,
                    "velocity": 0.7952755905511811,
                    "duration": 0.11249999999995453
                },
                {
                    "name": "C#4",
                    "midi": 61,
                    "time": 779.4104166666857,
                    "velocity": 0.7559055118110236,
                    "duration": 0.049999999999954525
                },
                {
                    "name": "G5",
                    "midi": 79,
                    "time": 779.4104166666857,
                    "velocity": 0.7165354330708661,
                    "duration": 0.08541666666667425
                },
                {
                    "name": "A#4",
                    "midi": 70,
                    "time": 779.412500000019,
                    "velocity": 0.8503937007874016,
                    "duration": 0.05624999999997726
                },
                {
                    "name": "E4",
                    "midi": 64,
                    "time": 779.412500000019,
                    "velocity": 0.6850393700787402,
                    "duration": 0.0625
                },
                {
                    "name": "D#5",
                    "midi": 75,
                    "time": 779.412500000019,
                    "velocity": 0.7952755905511811,
                    "duration": 0.06666666666671972
                },
                {
                    "name": "A3",
                    "midi": 57,
                    "time": 779.4333333333524,
                    "velocity": 0.33070866141732286,
                    "duration": 0.05208333333337123
                },
                {
                    "name": "A3",
                    "midi": 57,
                    "time": 779.7145833333524,
                    "velocity": 0.7716535433070866,
                    "duration": 0.07500000000004547
                },
                {
                    "name": "C#4",
                    "midi": 61,
                    "time": 779.7187500000191,
                    "velocity": 0.7874015748031497,
                    "duration": 0.03750000000002274
                },
                {
                    "name": "E4",
                    "midi": 64,
                    "time": 779.7250000000191,
                    "velocity": 0.6456692913385826,
                    "duration": 0.039583333333325754
                },
                {
                    "name": "G5",
                    "midi": 79,
                    "time": 779.8458333333524,
                    "velocity": 0.6614173228346457,
                    "duration": 0.08333333333348492
                },
                {
                    "name": "A#4",
                    "midi": 70,
                    "time": 779.8458333333524,
                    "velocity": 0.8110236220472441,
                    "duration": 0.07500000000015916
                },
                {
                    "name": "A#5",
                    "midi": 82,
                    "time": 779.8520833333524,
                    "velocity": 0.7244094488188977,
                    "duration": 0.11458333333348492
                },
                {
                    "name": "D#5",
                    "midi": 75,
                    "time": 779.8562500000191,
                    "velocity": 0.6850393700787402,
                    "duration": 0.043750000000045475
                },
                {
                    "name": "E2",
                    "midi": 40,
                    "time": 780.0416666666858,
                    "velocity": 0.9133858267716536,
                    "duration": 0.08541666666667425
                },
                {
                    "name": "B5",
                    "midi": 83,
                    "time": 780.3770833333525,
                    "velocity": 0.7952755905511811,
                    "duration": 0.1062499999998181
                },
                {
                    "name": "G#5",
                    "midi": 80,
                    "time": 780.3770833333525,
                    "velocity": 0.7874015748031497,
                    "duration": 0.09583333333318933
                },
                {
                    "name": "B4",
                    "midi": 71,
                    "time": 780.3791666666858,
                    "velocity": 0.8031496062992126,
                    "duration": 0.07291666666651508
                },
                {
                    "name": "C4",
                    "midi": 60,
                    "time": 780.3812500000191,
                    "velocity": 0.7795275590551181,
                    "duration": 0.06874999999990905
                },
                {
                    "name": "E5",
                    "midi": 76,
                    "time": 780.3833333333524,
                    "velocity": 0.7716535433070866,
                    "duration": 0.06874999999990905
                },
                {
                    "name": "E4",
                    "midi": 64,
                    "time": 780.3854166666857,
                    "velocity": 0.7165354330708661,
                    "duration": 0.07083333333332575
                },
                {
                    "name": "G#3",
                    "midi": 56,
                    "time": 780.3916666666858,
                    "velocity": 0.7086614173228346,
                    "duration": 0.07499999999993179
                },
                {
                    "name": "E4",
                    "midi": 64,
                    "time": 780.687500000019,
                    "velocity": 0.8110236220472441,
                    "duration": 0.054166666666674246
                },
                {
                    "name": "G#3",
                    "midi": 56,
                    "time": 780.687500000019,
                    "velocity": 0.8346456692913385,
                    "duration": 0.09791666666671972
                },
                {
                    "name": "C4",
                    "midi": 60,
                    "time": 780.6895833333523,
                    "velocity": 0.8346456692913385,
                    "duration": 0.058333333333393966
                },
                {
                    "name": "B5",
                    "midi": 83,
                    "time": 780.7854166666857,
                    "velocity": 0.84251968503937,
                    "duration": 0.11666666666667425
                },
                {
                    "name": "B4",
                    "midi": 71,
                    "time": 780.787500000019,
                    "velocity": 0.8582677165354331,
                    "duration": 0.06875000000002274
                },
                {
                    "name": "E5",
                    "midi": 76,
                    "time": 780.7916666666857,
                    "velocity": 0.7874015748031497,
                    "duration": 0.07708333333334849
                },
                {
                    "name": "G#5",
                    "midi": 80,
                    "time": 780.793750000019,
                    "velocity": 0.7401574803149606,
                    "duration": 0.11458333333337123
                },
                {
                    "name": "E2",
                    "midi": 40,
                    "time": 781.0520833333524,
                    "velocity": 0.8346456692913385,
                    "duration": 0.15208333333328028
                },
                {
                    "name": "E3",
                    "midi": 52,
                    "time": 781.0520833333524,
                    "velocity": 0.8818897637795275,
                    "duration": 0.1999999999999318
                },
                {
                    "name": "C6",
                    "midi": 84,
                    "time": 781.4479166666856,
                    "velocity": 0.8740157480314961,
                    "duration": 0.2812499999998863
                },
                {
                    "name": "C5",
                    "midi": 72,
                    "time": 781.4500000000189,
                    "velocity": 0.8582677165354331,
                    "duration": 0.2479166666665833
                },
                {
                    "name": "F5",
                    "midi": 77,
                    "time": 781.4520833333522,
                    "velocity": 0.8110236220472441,
                    "duration": 0.252083333333303
                },
                {
                    "name": "E4",
                    "midi": 64,
                    "time": 781.4541666666855,
                    "velocity": 0.889763779527559,
                    "duration": 0.22708333333332575
                },
                {
                    "name": "A5",
                    "midi": 81,
                    "time": 781.4541666666855,
                    "velocity": 0.8110236220472441,
                    "duration": 0.29166666666662877
                },
                {
                    "name": "G3",
                    "midi": 55,
                    "time": 781.4604166666855,
                    "velocity": 0.7874015748031497,
                    "duration": 0.1999999999999318
                },
                {
                    "name": "B3",
                    "midi": 59,
                    "time": 781.4625000000188,
                    "velocity": 0.7559055118110236,
                    "duration": 0.2354166666666515
                },
                {
                    "name": "E4",
                    "midi": 64,
                    "time": 781.8208333333522,
                    "velocity": 0.8976377952755905,
                    "duration": 0.06041666666669698
                },
                {
                    "name": "G3",
                    "midi": 55,
                    "time": 781.8208333333522,
                    "velocity": 0.7637795275590551,
                    "duration": 0.08333333333337123
                },
                {
                    "name": "B3",
                    "midi": 59,
                    "time": 781.8270833333522,
                    "velocity": 0.7637795275590551,
                    "duration": 0.04583333333334849
                },
                {
                    "name": "C6",
                    "midi": 84,
                    "time": 781.9791666666856,
                    "velocity": 0.8031496062992126,
                    "duration": 0.15416666666669698
                },
                {
                    "name": "C5",
                    "midi": 72,
                    "time": 781.9812500000189,
                    "velocity": 0.84251968503937,
                    "duration": 0.07708333333334849
                },
                {
                    "name": "A5",
                    "midi": 81,
                    "time": 781.9812500000189,
                    "velocity": 0.7637795275590551,
                    "duration": 0.12916666666671972
                },
                {
                    "name": "F5",
                    "midi": 77,
                    "time": 781.9833333333522,
                    "velocity": 0.7716535433070866,
                    "duration": 0.07500000000004547
                },
                {
                    "name": "E2",
                    "midi": 40,
                    "time": 782.1958333333523,
                    "velocity": 0.7874015748031497,
                    "duration": 0.09375
                },
                {
                    "name": "E3",
                    "midi": 52,
                    "time": 782.2020833333523,
                    "velocity": 0.9212598425196851,
                    "duration": 0.12291666666669698
                },
                {
                    "name": "E4",
                    "midi": 64,
                    "time": 782.6333333333523,
                    "velocity": 0.8582677165354331,
                    "duration": 0.07499999999993179
                },
                {
                    "name": "A#3",
                    "midi": 58,
                    "time": 782.6333333333523,
                    "velocity": 0.8582677165354331,
                    "duration": 0.07916666666665151
                },
                {
                    "name": "C#6",
                    "midi": 85,
                    "time": 782.6354166666856,
                    "velocity": 0.9448818897637795,
                    "duration": 0.10833333333334849
                },
                {
                    "name": "C#5",
                    "midi": 73,
                    "time": 782.6375000000189,
                    "velocity": 1,
                    "duration": 0.06458333333330302
                },
                {
                    "name": "F#3",
                    "midi": 54,
                    "time": 782.6416666666856,
                    "velocity": 0.8188976377952756,
                    "duration": 0.09375
                },
                {
                    "name": "A#5",
                    "midi": 82,
                    "time": 782.6437500000189,
                    "velocity": 0.8503937007874016,
                    "duration": 0.11041666666665151
                },
                {
                    "name": "F#5",
                    "midi": 78,
                    "time": 782.6437500000189,
                    "velocity": 0.8818897637795275,
                    "duration": 0.08749999999997726
                },
                {
                    "name": "E4",
                    "midi": 64,
                    "time": 783.0791666666856,
                    "velocity": 0.9133858267716536,
                    "duration": 0.05624999999997726
                },
                {
                    "name": "A#3",
                    "midi": 58,
                    "time": 783.0791666666856,
                    "velocity": 0.905511811023622,
                    "duration": 0.06458333333330302
                },
                {
                    "name": "F#3",
                    "midi": 54,
                    "time": 783.0812500000189,
                    "velocity": 0.9133858267716536,
                    "duration": 0.09375
                },
                {
                    "name": "C#6",
                    "midi": 85,
                    "time": 783.306250000019,
                    "velocity": 0.8976377952755905,
                    "duration": 0.14583333333325754
                },
                {
                    "name": "C#5",
                    "midi": 73,
                    "time": 783.3083333333523,
                    "velocity": 0.9448818897637795,
                    "duration": 0.04791666666665151
                },
                {
                    "name": "F#5",
                    "midi": 78,
                    "time": 783.3145833333523,
                    "velocity": 0.7874015748031497,
                    "duration": 0.04791666666665151
                },
                {
                    "name": "A#5",
                    "midi": 82,
                    "time": 783.3166666666856,
                    "velocity": 0.7637795275590551,
                    "duration": 0.08541666666667425
                },
                {
                    "name": "E1",
                    "midi": 28,
                    "time": 783.6125000000189,
                    "velocity": 0.9212598425196851,
                    "duration": 0.17083333333346218
                },
                {
                    "name": "E2",
                    "midi": 40,
                    "time": 783.6125000000189,
                    "velocity": 0.952755905511811,
                    "duration": 0.2041666666667652
                },
                {
                    "name": "D6",
                    "midi": 86,
                    "time": 784.2541666666857,
                    "velocity": 0.8818897637795275,
                    "duration": 0.3062499999998636
                },
                {
                    "name": "D4",
                    "midi": 62,
                    "time": 784.256250000019,
                    "velocity": 0.9291338582677166,
                    "duration": 0.16666666666662877
                },
                {
                    "name": "G5",
                    "midi": 79,
                    "time": 784.2583333333523,
                    "velocity": 0.84251968503937,
                    "duration": 0.28541666666660603
                },
                {
                    "name": "D5",
                    "midi": 74,
                    "time": 784.2583333333523,
                    "velocity": 0.8818897637795275,
                    "duration": 0.28541666666660603
                },
                {
                    "name": "B5",
                    "midi": 83,
                    "time": 784.2604166666856,
                    "velocity": 0.8110236220472441,
                    "duration": 0.314583333333303
                },
                {
                    "name": "G3",
                    "midi": 55,
                    "time": 784.2604166666856,
                    "velocity": 0.8188976377952756,
                    "duration": 0.17916666666667425
                },
                {
                    "name": "B3",
                    "midi": 59,
                    "time": 784.2625000000189,
                    "velocity": 0.8346456692913385,
                    "duration": 0.14791666666667425
                },
                {
                    "name": "G3",
                    "midi": 55,
                    "time": 784.7083333333522,
                    "velocity": 0.8818897637795275,
                    "duration": 0.08124999999995453
                },
                {
                    "name": "D4",
                    "midi": 62,
                    "time": 784.7083333333522,
                    "velocity": 0.9448818897637795,
                    "duration": 0.05833333333328028
                },
                {
                    "name": "B3",
                    "midi": 59,
                    "time": 784.7187500000189,
                    "velocity": 0.7874015748031497,
                    "duration": 0.03125
                },
                {
                    "name": "D6",
                    "midi": 86,
                    "time": 784.8645833333522,
                    "velocity": 0.8188976377952756,
                    "duration": 0.21458333333328028
                },
                {
                    "name": "D5",
                    "midi": 74,
                    "time": 784.8666666666855,
                    "velocity": 0.84251968503937,
                    "duration": 0.2020833333333485
                },
                {
                    "name": "G5",
                    "midi": 79,
                    "time": 784.8666666666855,
                    "velocity": 0.7795275590551181,
                    "duration": 0.2312499999999318
                },
                {
                    "name": "B5",
                    "midi": 83,
                    "time": 784.8687500000188,
                    "velocity": 0.7322834645669292,
                    "duration": 0.24166666666667425
                },
                {
                    "name": "E2",
                    "midi": 40,
                    "time": 785.1854166666856,
                    "velocity": 0.8503937007874016,
                    "duration": 0.1395833333333485
                },
                {
                    "name": "E3",
                    "midi": 52,
                    "time": 785.1875000000189,
                    "velocity": 0.952755905511811,
                    "duration": 0.18333333333339397
                },
                {
                    "name": "D6",
                    "midi": 86,
                    "time": 785.1895833333522,
                    "velocity": 0.952755905511811,
                    "duration": 0.5479166666667652
                },
                {
                    "name": "B5",
                    "midi": 83,
                    "time": 785.5770833333522,
                    "velocity": 0.5984251968503937,
                    "duration": 0.18333333333339397
                },
                {
                    "name": "D4",
                    "midi": 62,
                    "time": 785.6500000000188,
                    "velocity": 0.8818897637795275,
                    "duration": 0.2562500000001364
                },
                {
                    "name": "B3",
                    "midi": 59,
                    "time": 785.6562500000189,
                    "velocity": 0.8031496062992126,
                    "duration": 0.2500000000001137
                },
                {
                    "name": "G3",
                    "midi": 55,
                    "time": 785.6562500000189,
                    "velocity": 0.7637795275590551,
                    "duration": 0.23958333333348492
                },
                {
                    "name": "G5",
                    "midi": 79,
                    "time": 785.6604166666856,
                    "velocity": 0.5590551181102362,
                    "duration": 0.15208333333339397
                },
                {
                    "name": "D5",
                    "midi": 74,
                    "time": 785.7729166666857,
                    "velocity": 0.7007874015748031,
                    "duration": 0.24583333333339397
                },
                {
                    "name": "G5",
                    "midi": 79,
                    "time": 785.8645833333524,
                    "velocity": 0.7716535433070866,
                    "duration": 0.18124999999997726
                },
                {
                    "name": "B5",
                    "midi": 83,
                    "time": 785.943750000019,
                    "velocity": 0.8346456692913385,
                    "duration": 0.28750000000002274
                },
                {
                    "name": "D4",
                    "midi": 62,
                    "time": 785.9645833333524,
                    "velocity": 0.8976377952755905,
                    "duration": 0.0625
                },
                {
                    "name": "G3",
                    "midi": 55,
                    "time": 785.9708333333524,
                    "velocity": 0.8188976377952756,
                    "duration": 0.08333333333325754
                },
                {
                    "name": "B3",
                    "midi": 59,
                    "time": 785.9729166666857,
                    "velocity": 0.7874015748031497,
                    "duration": 0.04791666666665151
                },
                {
                    "name": "D6",
                    "midi": 86,
                    "time": 785.9729166666857,
                    "velocity": 0.8818897637795275,
                    "duration": 0.27291666666667425
                },
                {
                    "name": "E1",
                    "midi": 28,
                    "time": 786.3895833333523,
                    "velocity": 0.7716535433070866,
                    "duration": 0.05833333333328028
                },
                {
                    "name": "D#2",
                    "midi": 39,
                    "time": 786.3979166666857,
                    "velocity": 0.9448818897637795,
                    "duration": 0.0625
                },
                {
                    "name": "E2",
                    "midi": 40,
                    "time": 786.825000000019,
                    "velocity": 0.7401574803149606,
                    "duration": 0.06874999999990905
                },
                {
                    "name": "E3",
                    "midi": 52,
                    "time": 786.8270833333523,
                    "velocity": 0.7637795275590551,
                    "duration": 0.06666666666660603
                },
                {
                    "name": "B5",
                    "midi": 83,
                    "time": 786.8291666666856,
                    "velocity": 0.7559055118110236,
                    "duration": 0.12708333333330302
                },
                {
                    "name": "D5",
                    "midi": 74,
                    "time": 786.8312500000189,
                    "velocity": 0.8110236220472441,
                    "duration": 0.08124999999995453
                },
                {
                    "name": "G5",
                    "midi": 79,
                    "time": 786.8333333333522,
                    "velocity": 0.7952755905511811,
                    "duration": 0.08541666666667425
                },
                {
                    "name": "D6",
                    "midi": 86,
                    "time": 786.8333333333522,
                    "velocity": 0.8346456692913385,
                    "duration": 0.13333333333332575
                },
                {
                    "name": "F2",
                    "midi": 41,
                    "time": 787.2000000000189,
                    "velocity": 0.8031496062992126,
                    "duration": 0.06041666666669698
                },
                {
                    "name": "F3",
                    "midi": 53,
                    "time": 787.2041666666856,
                    "velocity": 0.7795275590551181,
                    "duration": 0.06041666666669698
                },
                {
                    "name": "B5",
                    "midi": 83,
                    "time": 787.3270833333523,
                    "velocity": 0.7637795275590551,
                    "duration": 0.10416666666674246
                },
                {
                    "name": "D6",
                    "midi": 86,
                    "time": 787.331250000019,
                    "velocity": 0.7952755905511811,
                    "duration": 0.10208333333332575
                },
                {
                    "name": "D5",
                    "midi": 74,
                    "time": 787.331250000019,
                    "velocity": 0.8031496062992126,
                    "duration": 0.054166666666674246
                },
                {
                    "name": "G5",
                    "midi": 79,
                    "time": 787.3333333333524,
                    "velocity": 0.7401574803149606,
                    "duration": 0.07291666666674246
                },
                {
                    "name": "F#3",
                    "midi": 54,
                    "time": 787.4937500000191,
                    "velocity": 0.9763779527559056,
                    "duration": 0.07708333333346218
                },
                {
                    "name": "D6",
                    "midi": 86,
                    "time": 787.4937500000191,
                    "velocity": 0.8503937007874016,
                    "duration": 0.2520833333335304
                },
                {
                    "name": "F#2",
                    "midi": 42,
                    "time": 787.5000000000191,
                    "velocity": 0.889763779527559,
                    "duration": 0.0791666666667652
                },
                {
                    "name": "B5",
                    "midi": 83,
                    "time": 787.6395833333526,
                    "velocity": 0.6456692913385826,
                    "duration": 0.2187500000001137
                },
                {
                    "name": "G3",
                    "midi": 55,
                    "time": 787.8166666666859,
                    "velocity": 0.8346456692913385,
                    "duration": 0.07291666666674246
                },
                {
                    "name": "G2",
                    "midi": 43,
                    "time": 787.8208333333527,
                    "velocity": 0.7952755905511811,
                    "duration": 0.06666666666671972
                },
                {
                    "name": "F#5",
                    "midi": 78,
                    "time": 787.8395833333526,
                    "velocity": 0.7637795275590551,
                    "duration": 0.24166666666667425
                },
                {
                    "name": "D5",
                    "midi": 74,
                    "time": 787.8520833333527,
                    "velocity": 0.6535433070866141,
                    "duration": 0.15416666666669698
                },
                {
                    "name": "B5",
                    "midi": 83,
                    "time": 788.0000000000193,
                    "velocity": 0.6692913385826772,
                    "duration": 0.11458333333325754
                },
                {
                    "name": "D6",
                    "midi": 86,
                    "time": 788.0562500000193,
                    "velocity": 0.9212598425196851,
                    "duration": 0.08333333333325754
                },
                {
                    "name": "G#3",
                    "midi": 56,
                    "time": 788.1083333333526,
                    "velocity": 0.9448818897637795,
                    "duration": 0.07083333333332575
                },
                {
                    "name": "G#2",
                    "midi": 44,
                    "time": 788.1166666666859,
                    "velocity": 0.8661417322834646,
                    "duration": 0.05624999999997726
                },
                {
                    "name": "A3",
                    "midi": 57,
                    "time": 788.4000000000192,
                    "velocity": 0.889763779527559,
                    "duration": 0.06041666666646961
                },
                {
                    "name": "A2",
                    "midi": 45,
                    "time": 788.4020833333525,
                    "velocity": 0.8346456692913385,
                    "duration": 0.031249999999886313
                },
                {
                    "name": "B5",
                    "midi": 83,
                    "time": 788.6916666666857,
                    "velocity": 0.7795275590551181,
                    "duration": 0.10208333333343944
                },
                {
                    "name": "D5",
                    "midi": 74,
                    "time": 788.6958333333524,
                    "velocity": 0.8031496062992126,
                    "duration": 0.06666666666671972
                },
                {
                    "name": "F#5",
                    "midi": 78,
                    "time": 788.6958333333524,
                    "velocity": 0.7874015748031497,
                    "duration": 0.06666666666671972
                },
                {
                    "name": "A#3",
                    "midi": 58,
                    "time": 788.6979166666857,
                    "velocity": 0.8818897637795275,
                    "duration": 0.0645833333334167
                },
                {
                    "name": "B4",
                    "midi": 71,
                    "time": 788.700000000019,
                    "velocity": 0.7716535433070866,
                    "duration": 0.04166666666674246
                },
                {
                    "name": "A#2",
                    "midi": 46,
                    "time": 788.7041666666858,
                    "velocity": 0.84251968503937,
                    "duration": 0.06875000000002274
                },
                {
                    "name": "B3",
                    "midi": 59,
                    "time": 788.9937500000192,
                    "velocity": 0.8818897637795275,
                    "duration": 0.0625
                },
                {
                    "name": "B2",
                    "midi": 47,
                    "time": 788.9958333333525,
                    "velocity": 0.8503937007874016,
                    "duration": 0.04583333333334849
                },
                {
                    "name": "B5",
                    "midi": 83,
                    "time": 789.1229166666859,
                    "velocity": 0.7244094488188977,
                    "duration": 0.08541666666667425
                },
                {
                    "name": "D5",
                    "midi": 74,
                    "time": 789.1291666666859,
                    "velocity": 0.5669291338582677,
                    "duration": 0.05833333333328028
                },
                {
                    "name": "B4",
                    "midi": 71,
                    "time": 789.1312500000192,
                    "velocity": 0.5984251968503937,
                    "duration": 0.04374999999993179
                },
                {
                    "name": "F#5",
                    "midi": 78,
                    "time": 789.1333333333525,
                    "velocity": 0.5590551181102362,
                    "duration": 0.04791666666665151
                },
                {
                    "name": "C4",
                    "midi": 60,
                    "time": 789.2875000000192,
                    "velocity": 0.9448818897637795,
                    "duration": 0.06041666666669698
                },
                {
                    "name": "C3",
                    "midi": 48,
                    "time": 789.2895833333525,
                    "velocity": 0.9291338582677166,
                    "duration": 0.07083333333343944
                },
                {
                    "name": "B5",
                    "midi": 83,
                    "time": 789.2979166666859,
                    "velocity": 0.9212598425196851,
                    "duration": 0.21041666666678793
                },
                {
                    "name": "G5",
                    "midi": 79,
                    "time": 789.4312500000193,
                    "velocity": 0.7401574803149606,
                    "duration": 0.2020833333333485
                },
                {
                    "name": "D#5",
                    "midi": 75,
                    "time": 789.585416666686,
                    "velocity": 0.7086614173228346,
                    "duration": 0.09374999999988631
                },
                {
                    "name": "C#4",
                    "midi": 61,
                    "time": 789.5875000000193,
                    "velocity": 0.9291338582677166,
                    "duration": 0.07499999999993179
                },
                {
                    "name": "C#3",
                    "midi": 49,
                    "time": 789.591666666686,
                    "velocity": 0.8818897637795275,
                    "duration": 0.06249999999988631
                },
                {
                    "name": "B4",
                    "midi": 71,
                    "time": 789.6437500000193,
                    "velocity": 0.49606299212598426,
                    "duration": 0.17708333333337123
                },
                {
                    "name": "D#5",
                    "midi": 75,
                    "time": 789.7416666666859,
                    "velocity": 0.6850393700787402,
                    "duration": 0.13750000000004547
                },
                {
                    "name": "G5",
                    "midi": 79,
                    "time": 789.8083333333526,
                    "velocity": 0.7007874015748031,
                    "duration": 0.10625000000004547
                },
                {
                    "name": "B5",
                    "midi": 83,
                    "time": 789.8520833333527,
                    "velocity": 0.8818897637795275,
                    "duration": 0.07500000000004547
                },
                {
                    "name": "D4",
                    "midi": 62,
                    "time": 789.8708333333526,
                    "velocity": 0.8976377952755905,
                    "duration": 0.06041666666681067
                },
                {
                    "name": "D3",
                    "midi": 50,
                    "time": 789.8770833333526,
                    "velocity": 0.8503937007874016,
                    "duration": 0.05625000000009095
                },
                {
                    "name": "D#4",
                    "midi": 63,
                    "time": 790.1395833333527,
                    "velocity": 0.9921259842519685,
                    "duration": 0.06875000000002274
                },
                {
                    "name": "D#3",
                    "midi": 51,
                    "time": 790.1437500000194,
                    "velocity": 0.952755905511811,
                    "duration": 0.07708333333334849
                },
                {
                    "name": "G5",
                    "midi": 79,
                    "time": 790.435416666686,
                    "velocity": 0.8503937007874016,
                    "duration": 0.06874999999979536
                },
                {
                    "name": "E3",
                    "midi": 52,
                    "time": 790.4375000000193,
                    "velocity": 0.84251968503937,
                    "duration": 0.04999999999984084
                },
                {
                    "name": "C5",
                    "midi": 72,
                    "time": 790.4395833333526,
                    "velocity": 0.9291338582677166,
                    "duration": 0.056249999999863576
                },
                {
                    "name": "B5",
                    "midi": 83,
                    "time": 790.4395833333526,
                    "velocity": 0.84251968503937,
                    "duration": 0.09374999999988631
                },
                {
                    "name": "E4",
                    "midi": 64,
                    "time": 790.4416666666859,
                    "velocity": 0.7165354330708661,
                    "duration": 0.05416666666656056
                },
                {
                    "name": "E5",
                    "midi": 76,
                    "time": 790.4437500000192,
                    "velocity": 0.8503937007874016,
                    "duration": 0.03333333333330302
                },
                {
                    "name": "F4",
                    "midi": 65,
                    "time": 790.7312500000191,
                    "velocity": 0.8582677165354331,
                    "duration": 0.05833333333328028
                },
                {
                    "name": "F3",
                    "midi": 53,
                    "time": 790.7312500000191,
                    "velocity": 0.8346456692913385,
                    "duration": 0.04791666666665151
                },
                {
                    "name": "G#5",
                    "midi": 80,
                    "time": 790.8583333333523,
                    "velocity": 0.7559055118110236,
                    "duration": 0.09583333333330302
                },
                {
                    "name": "C#5",
                    "midi": 73,
                    "time": 790.8645833333524,
                    "velocity": 0.8503937007874016,
                    "duration": 0.06874999999990905
                },
                {
                    "name": "F5",
                    "midi": 77,
                    "time": 790.8729166666857,
                    "velocity": 0.6929133858267716,
                    "duration": 0.049999999999954525
                },
                {
                    "name": "B5",
                    "midi": 83,
                    "time": 790.881250000019,
                    "velocity": 0.5039370078740157,
                    "duration": 0.08333333333325754
                },
                {
                    "name": "F#4",
                    "midi": 66,
                    "time": 791.0416666666856,
                    "velocity": 1,
                    "duration": 0.06666666666671972
                },
                {
                    "name": "F#3",
                    "midi": 54,
                    "time": 791.0437500000189,
                    "velocity": 0.9448818897637795,
                    "duration": 0.06666666666671972
                },
                {
                    "name": "B5",
                    "midi": 83,
                    "time": 791.0479166666856,
                    "velocity": 0.9133858267716536,
                    "duration": 0.3270833333333485
                },
                {
                    "name": "A5",
                    "midi": 81,
                    "time": 791.1645833333523,
                    "velocity": 0.7637795275590551,
                    "duration": 0.17708333333337123
                },
                {
                    "name": "F#5",
                    "midi": 78,
                    "time": 791.3041666666857,
                    "velocity": 0.6614173228346457,
                    "duration": 0.08958333333328028
                },
                {
                    "name": "G3",
                    "midi": 55,
                    "time": 791.343750000019,
                    "velocity": 0.8031496062992126,
                    "duration": 0.05208333333325754
                },
                {
                    "name": "G4",
                    "midi": 67,
                    "time": 791.343750000019,
                    "velocity": 0.84251968503937,
                    "duration": 0.05624999999997726
                },
                {
                    "name": "D5",
                    "midi": 74,
                    "time": 791.368750000019,
                    "velocity": 0.5511811023622047,
                    "duration": 0.24583333333328028
                },
                {
                    "name": "F#5",
                    "midi": 78,
                    "time": 791.4666666666857,
                    "velocity": 0.7480314960629921,
                    "duration": 0.16458333333321207
                },
                {
                    "name": "A5",
                    "midi": 81,
                    "time": 791.5166666666856,
                    "velocity": 0.6614173228346457,
                    "duration": 0.14166666666653782
                },
                {
                    "name": "B5",
                    "midi": 83,
                    "time": 791.6062500000189,
                    "velocity": 0.889763779527559,
                    "duration": 0.07499999999993179
                },
                {
                    "name": "G#4",
                    "midi": 68,
                    "time": 791.6291666666856,
                    "velocity": 0.9763779527559056,
                    "duration": 0.0770833333332348
                },
                {
                    "name": "G#3",
                    "midi": 56,
                    "time": 791.6312500000189,
                    "velocity": 0.905511811023622,
                    "duration": 0.08958333333328028
                },
                {
                    "name": "A4",
                    "midi": 69,
                    "time": 791.9583333333521,
                    "velocity": 0.9212598425196851,
                    "duration": 0.05833333333328028
                },
                {
                    "name": "A3",
                    "midi": 57,
                    "time": 791.9604166666854,
                    "velocity": 0.8740157480314961,
                    "duration": 0.0625
                },
                {
                    "name": "D4",
                    "midi": 62,
                    "time": 792.3041666666854,
                    "velocity": 0.7716535433070866,
                    "duration": 0.08749999999997726
                },
                {
                    "name": "F#4",
                    "midi": 66,
                    "time": 792.3145833333521,
                    "velocity": 0.9291338582677166,
                    "duration": 0.06458333333330302
                },
                {
                    "name": "F#5",
                    "midi": 78,
                    "time": 792.3187500000188,
                    "velocity": 0.9291338582677166,
                    "duration": 0.07291666666662877
                },
                {
                    "name": "B4",
                    "midi": 71,
                    "time": 792.3208333333521,
                    "velocity": 0.8976377952755905,
                    "duration": 0.06458333333330302
                },
                {
                    "name": "B5",
                    "midi": 83,
                    "time": 792.339583333352,
                    "velocity": 0.7874015748031497,
                    "duration": 0.08541666666667425
                },
                {
                    "name": "D6",
                    "midi": 86,
                    "time": 792.358333333352,
                    "velocity": 0.8110236220472441,
                    "duration": 0.19166666666671972
                },
                {
                    "name": "D4",
                    "midi": 62,
                    "time": 792.7062500000187,
                    "velocity": 0.9212598425196851,
                    "duration": 0.09791666666660603
                },
                {
                    "name": "B4",
                    "midi": 71,
                    "time": 792.708333333352,
                    "velocity": 0.9291338582677166,
                    "duration": 0.05624999999997726
                },
                {
                    "name": "F#4",
                    "midi": 66,
                    "time": 792.7104166666853,
                    "velocity": 0.937007874015748,
                    "duration": 0.07083333333332575
                },
                {
                    "name": "B5",
                    "midi": 83,
                    "time": 792.827083333352,
                    "velocity": 0.8110236220472441,
                    "duration": 0.08125000000006821
                },
                {
                    "name": "F#5",
                    "midi": 78,
                    "time": 792.8312500000187,
                    "velocity": 0.8503937007874016,
                    "duration": 0.06041666666669698
                },
                {
                    "name": "D5",
                    "midi": 74,
                    "time": 792.8312500000187,
                    "velocity": 0.7165354330708661,
                    "duration": 0.03750000000002274
                },
                {
                    "name": "D6",
                    "midi": 86,
                    "time": 792.8437500000188,
                    "velocity": 0.7637795275590551,
                    "duration": 0.07291666666662877
                },
                {
                    "name": "E1",
                    "midi": 28,
                    "time": 793.1166666666854,
                    "velocity": 0.6692913385826772,
                    "duration": 0.04791666666665151
                },
                {
                    "name": "E2",
                    "midi": 40,
                    "time": 793.1312500000188,
                    "velocity": 0.6299212598425197,
                    "duration": 0.05208333333325754
                },
                {
                    "name": "D4",
                    "midi": 62,
                    "time": 793.245833333352,
                    "velocity": 0.6299212598425197,
                    "duration": 0.0625
                },
                {
                    "name": "G4",
                    "midi": 67,
                    "time": 793.2979166666854,
                    "velocity": 0.5511811023622047,
                    "duration": 0.04166666666662877
                },
                {
                    "name": "D5",
                    "midi": 74,
                    "time": 793.4041666666853,
                    "velocity": 0.8188976377952756,
                    "duration": 0.09791666666671972
                },
                {
                    "name": "D3",
                    "midi": 50,
                    "time": 793.4187500000187,
                    "velocity": 0.6062992125984252,
                    "duration": 0.2958333333334622
                },
                {
                    "name": "G5",
                    "midi": 79,
                    "time": 793.458333333352,
                    "velocity": 0.7952755905511811,
                    "duration": 0.10625000000015916
                },
                {
                    "name": "B5",
                    "midi": 83,
                    "time": 793.5020833333521,
                    "velocity": 0.7795275590551181,
                    "duration": 0.10416666666674246
                },
                {
                    "name": "G3",
                    "midi": 55,
                    "time": 793.5166666666854,
                    "velocity": 0.8740157480314961,
                    "duration": 0.1875000000001137
                },
                {
                    "name": "B3",
                    "midi": 59,
                    "time": 793.5208333333521,
                    "velocity": 0.9763779527559056,
                    "duration": 0.18125000000009095
                },
                {
                    "name": "D4",
                    "midi": 62,
                    "time": 793.5229166666854,
                    "velocity": 1,
                    "duration": 0.1729166666667652
                },
                {
                    "name": "D6",
                    "midi": 86,
                    "time": 793.5270833333522,
                    "velocity": 0.8582677165354331,
                    "duration": 0.10000000000002274
                },
                {
                    "name": "D6",
                    "midi": 86,
                    "time": 793.8750000000189,
                    "velocity": 0.6850393700787402,
                    "duration": 0.060416666666583296
                },
                {
                    "name": "B5",
                    "midi": 83,
                    "time": 793.8791666666856,
                    "velocity": 0.49606299212598426,
                    "duration": 0.05416666666656056
                },
                {
                    "name": "D4",
                    "midi": 62,
                    "time": 793.8833333333523,
                    "velocity": 0.4094488188976378,
                    "duration": 0.035416666666606034
                },
                {
                    "name": "B3",
                    "midi": 59,
                    "time": 793.8854166666856,
                    "velocity": 0.2755905511811024,
                    "duration": 0.04374999999993179
                },
                {
                    "name": "G5",
                    "midi": 79,
                    "time": 793.8937500000189,
                    "velocity": 0.29133858267716534,
                    "duration": 0.03749999999990905
                },
                {
                    "name": "D3",
                    "midi": 50,
                    "time": 793.8958333333522,
                    "velocity": 0.16535433070866143,
                    "duration": 0.06458333333330302
                },
                {
                    "name": "G3",
                    "midi": 55,
                    "time": 793.900000000019,
                    "velocity": 0.2992125984251969,
                    "duration": 0.03958333333321207
                },
                {
                    "name": "E1",
                    "midi": 28,
                    "time": 794.2083333333522,
                    "velocity": 0.84251968503937,
                    "duration": 0.04583333333334849
                },
                {
                    "name": "G3",
                    "midi": 55,
                    "time": 794.4875000000189,
                    "velocity": 0.84251968503937,
                    "duration": 0.07291666666674246
                },
                {
                    "name": "D4",
                    "midi": 62,
                    "time": 794.4875000000189,
                    "velocity": 0.9291338582677166,
                    "duration": 0.05208333333337123
                },
                {
                    "name": "B3",
                    "midi": 59,
                    "time": 794.4895833333522,
                    "velocity": 0.8818897637795275,
                    "duration": 0.05000000000006821
                },
                {
                    "name": "D6",
                    "midi": 86,
                    "time": 794.493750000019,
                    "velocity": 0.8976377952755905,
                    "duration": 0.12708333333330302
                },
                {
                    "name": "D5",
                    "midi": 74,
                    "time": 794.493750000019,
                    "velocity": 0.889763779527559,
                    "duration": 0.10000000000002274
                },
                {
                    "name": "B5",
                    "midi": 83,
                    "time": 794.493750000019,
                    "velocity": 0.8346456692913385,
                    "duration": 0.11874999999997726
                },
                {
                    "name": "G5",
                    "midi": 79,
                    "time": 794.493750000019,
                    "velocity": 0.8503937007874016,
                    "duration": 0.09375
                },
                {
                    "name": "D6",
                    "midi": 86,
                    "time": 795.0020833333523,
                    "velocity": 0.7401574803149606,
                    "duration": 0.049999999999954525
                },
                {
                    "name": "D5",
                    "midi": 74,
                    "time": 795.0020833333523,
                    "velocity": 0.7401574803149606,
                    "duration": 0.05208333333325754
                },
                {
                    "name": "B5",
                    "midi": 83,
                    "time": 795.0041666666856,
                    "velocity": 0.6692913385826772,
                    "duration": 0.05208333333325754
                },
                {
                    "name": "G5",
                    "midi": 79,
                    "time": 795.0062500000189,
                    "velocity": 0.7086614173228346,
                    "duration": 0.04166666666662877
                },
                {
                    "name": "A1",
                    "midi": 33,
                    "time": 795.1875000000189,
                    "velocity": 0.5748031496062992,
                    "duration": 0.05624999999997726
                },
                {
                    "name": "A2",
                    "midi": 45,
                    "time": 795.2416666666855,
                    "velocity": 0.36220472440944884,
                    "duration": 0.04166666666662877
                },
                {
                    "name": "D4",
                    "midi": 62,
                    "time": 795.3145833333522,
                    "velocity": 0.4881889763779528,
                    "duration": 0.07500000000004547
                },
                {
                    "name": "F#4",
                    "midi": 66,
                    "time": 795.3520833333522,
                    "velocity": 0.6456692913385826,
                    "duration": 0.058333333333393966
                },
                {
                    "name": "B4",
                    "midi": 71,
                    "time": 795.4166666666856,
                    "velocity": 0.5275590551181102,
                    "duration": 0.03125
                },
                {
                    "name": "D5",
                    "midi": 74,
                    "time": 795.493750000019,
                    "velocity": 0.7322834645669292,
                    "duration": 0.08333333333337123
                },
                {
                    "name": "F#5",
                    "midi": 78,
                    "time": 795.5458333333523,
                    "velocity": 0.8110236220472441,
                    "duration": 0.0958333333334167
                },
                {
                    "name": "D3",
                    "midi": 50,
                    "time": 795.581250000019,
                    "velocity": 0.5196850393700787,
                    "duration": 0.16250000000002274
                },
                {
                    "name": "B5",
                    "midi": 83,
                    "time": 795.5854166666858,
                    "velocity": 0.7165354330708661,
                    "duration": 0.07291666666662877
                },
                {
                    "name": "B3",
                    "midi": 59,
                    "time": 795.6020833333524,
                    "velocity": 0.9921259842519685,
                    "duration": 0.12916666666660603
                },
                {
                    "name": "F#3",
                    "midi": 54,
                    "time": 795.6062500000191,
                    "velocity": 0.952755905511811,
                    "duration": 0.11666666666656056
                },
                {
                    "name": "D6",
                    "midi": 86,
                    "time": 795.6083333333524,
                    "velocity": 0.9448818897637795,
                    "duration": 0.1083333333332348
                },
                {
                    "name": "F#5",
                    "midi": 78,
                    "time": 795.9687500000191,
                    "velocity": 0.49606299212598426,
                    "duration": 0.05208333333337123
                },
                {
                    "name": "B5",
                    "midi": 83,
                    "time": 795.9687500000191,
                    "velocity": 0.4251968503937008,
                    "duration": 0.06666666666671972
                },
                {
                    "name": "B3",
                    "midi": 59,
                    "time": 795.9708333333524,
                    "velocity": 0.4645669291338583,
                    "duration": 0.03333333333330302
                },
                {
                    "name": "D3",
                    "midi": 50,
                    "time": 795.9729166666857,
                    "velocity": 0.4645669291338583,
                    "duration": 0.06875000000013642
                },
                {
                    "name": "F#3",
                    "midi": 54,
                    "time": 795.9833333333523,
                    "velocity": 0.41732283464566927,
                    "duration": 0.02916666666681067
                },
                {
                    "name": "D6",
                    "midi": 86,
                    "time": 795.987500000019,
                    "velocity": 0.2440944881889764,
                    "duration": 0.03541666666671972
                },
                {
                    "name": "A1",
                    "midi": 33,
                    "time": 796.2583333333525,
                    "velocity": 0.8346456692913385,
                    "duration": 0.04791666666665151
                },
                {
                    "name": "B3",
                    "midi": 59,
                    "time": 796.5437500000191,
                    "velocity": 0.9133858267716536,
                    "duration": 0.04166666666662877
                },
                {
                    "name": "B5",
                    "midi": 83,
                    "time": 796.5458333333524,
                    "velocity": 0.84251968503937,
                    "duration": 0.11249999999995453
                },
                {
                    "name": "D3",
                    "midi": 50,
                    "time": 796.5458333333524,
                    "velocity": 0.8346456692913385,
                    "duration": 0.05208333333337123
                },
                {
                    "name": "F#5",
                    "midi": 78,
                    "time": 796.5458333333524,
                    "velocity": 0.7165354330708661,
                    "duration": 0.09999999999990905
                },
                {
                    "name": "D5",
                    "midi": 74,
                    "time": 796.5479166666858,
                    "velocity": 0.8188976377952756,
                    "duration": 0.07916666666665151
                },
                {
                    "name": "B4",
                    "midi": 71,
                    "time": 796.5479166666858,
                    "velocity": 0.8346456692913385,
                    "duration": 0.07708333333334849
                },
                {
                    "name": "F#3",
                    "midi": 54,
                    "time": 796.5479166666858,
                    "velocity": 0.905511811023622,
                    "duration": 0.043750000000045475
                },
                {
                    "name": "B5",
                    "midi": 83,
                    "time": 796.9687500000191,
                    "velocity": 0.5748031496062992,
                    "duration": 0.054166666666674246
                },
                {
                    "name": "D5",
                    "midi": 74,
                    "time": 796.9791666666857,
                    "velocity": 0.47244094488188976,
                    "duration": 0.05000000000006821
                },
                {
                    "name": "F#5",
                    "midi": 78,
                    "time": 796.981250000019,
                    "velocity": 0.5984251968503937,
                    "duration": 0.05208333333337123
                },
                {
                    "name": "B4",
                    "midi": 71,
                    "time": 796.9854166666858,
                    "velocity": 0.33070866141732286,
                    "duration": 0.04583333333334849
                },
                {
                    "name": "A1",
                    "midi": 33,
                    "time": 797.1791666666858,
                    "velocity": 0.4881889763779528,
                    "duration": 0.03750000000002274
                },
                {
                    "name": "B3",
                    "midi": 59,
                    "time": 797.2895833333524,
                    "velocity": 0.5118110236220472,
                    "duration": 0.06458333333330302
                },
                {
                    "name": "D#4",
                    "midi": 63,
                    "time": 797.3229166666857,
                    "velocity": 0.6929133858267716,
                    "duration": 0.05833333333328028
                },
                {
                    "name": "B4",
                    "midi": 71,
                    "time": 797.4520833333523,
                    "velocity": 0.7165354330708661,
                    "duration": 0.0916666666665833
                },
                {
                    "name": "B2",
                    "midi": 47,
                    "time": 797.4791666666856,
                    "velocity": 0.5511811023622047,
                    "duration": 0.4125000000001364
                },
                {
                    "name": "D#5",
                    "midi": 75,
                    "time": 797.5062500000189,
                    "velocity": 0.8503937007874016,
                    "duration": 0.10208333333355313
                },
                {
                    "name": "G5",
                    "midi": 79,
                    "time": 797.5479166666856,
                    "velocity": 0.6850393700787402,
                    "duration": 0.08541666666678793
                },
                {
                    "name": "F#5",
                    "midi": 78,
                    "time": 797.5729166666856,
                    "velocity": 0.5984251968503937,
                    "duration": 0.022916666666787933
                },
                {
                    "name": "B5",
                    "midi": 83,
                    "time": 797.5750000000189,
                    "velocity": 0.9291338582677166,
                    "duration": 0.11458333333348492
                },
                {
                    "name": "G3",
                    "midi": 55,
                    "time": 797.587500000019,
                    "velocity": 0.8818897637795275,
                    "duration": 0.13958333333346218
                },
                {
                    "name": "B3",
                    "midi": 59,
                    "time": 797.587500000019,
                    "velocity": 0.9606299212598425,
                    "duration": 0.13750000000015916
                },
                {
                    "name": "D#3",
                    "midi": 51,
                    "time": 797.5916666666857,
                    "velocity": 0.8503937007874016,
                    "duration": 0.13541666666674246
                },
                {
                    "name": "B3",
                    "midi": 59,
                    "time": 797.9541666666858,
                    "velocity": 0.3858267716535433,
                    "duration": 0.037499999999795364
                },
                {
                    "name": "B5",
                    "midi": 83,
                    "time": 797.9645833333524,
                    "velocity": 0.3779527559055118,
                    "duration": 0.05833333333316659
                },
                {
                    "name": "G3",
                    "midi": 55,
                    "time": 797.9666666666857,
                    "velocity": 0.23622047244094488,
                    "duration": 0.041666666666515084
                },
                {
                    "name": "D#3",
                    "midi": 51,
                    "time": 797.968750000019,
                    "velocity": 0.29133858267716534,
                    "duration": 0.04791666666653782
                },
                {
                    "name": "D#5",
                    "midi": 75,
                    "time": 797.9708333333523,
                    "velocity": 0.31496062992125984,
                    "duration": 0.03958333333321207
                },
                {
                    "name": "G5",
                    "midi": 79,
                    "time": 797.9729166666856,
                    "velocity": 0.2677165354330709,
                    "duration": 0.05208333333325754
                },
                {
                    "name": "A1",
                    "midi": 33,
                    "time": 798.2625000000188,
                    "velocity": 0.7401574803149606,
                    "duration": 0.05208333333337123
                },
                {
                    "name": "C3",
                    "midi": 48,
                    "time": 798.5604166666855,
                    "velocity": 0.8582677165354331,
                    "duration": 0.21458333333339397
                },
                {
                    "name": "B3",
                    "midi": 59,
                    "time": 798.5666666666855,
                    "velocity": 0.8740157480314961,
                    "duration": 0.19583333333332575
                },
                {
                    "name": "G5",
                    "midi": 79,
                    "time": 798.5687500000188,
                    "velocity": 0.9291338582677166,
                    "duration": 0.24375000000009095
                },
                {
                    "name": "E3",
                    "midi": 52,
                    "time": 798.5687500000188,
                    "velocity": 0.8740157480314961,
                    "duration": 0.13333333333332575
                },
                {
                    "name": "C5",
                    "midi": 72,
                    "time": 798.5729166666855,
                    "velocity": 0.9606299212598425,
                    "duration": 0.22500000000002274
                },
                {
                    "name": "E5",
                    "midi": 76,
                    "time": 798.5729166666855,
                    "velocity": 0.9448818897637795,
                    "duration": 0.08541666666667425
                },
                {
                    "name": "G3",
                    "midi": 55,
                    "time": 798.5729166666855,
                    "velocity": 0.889763779527559,
                    "duration": 0.11666666666667425
                },
                {
                    "name": "B5",
                    "midi": 83,
                    "time": 798.5750000000188,
                    "velocity": 0.8582677165354331,
                    "duration": 0.24375000000009095
                },
                {
                    "name": "E5",
                    "midi": 76,
                    "time": 798.7000000000188,
                    "velocity": 0.07874015748031496,
                    "duration": 0.10416666666674246
                },
                {
                    "name": "C#3",
                    "midi": 49,
                    "time": 798.9250000000189,
                    "velocity": 0.7637795275590551,
                    "duration": 0.08750000000009095
                },
                {
                    "name": "G#3",
                    "midi": 56,
                    "time": 798.9333333333523,
                    "velocity": 0.8976377952755905,
                    "duration": 0.058333333333393966
                },
                {
                    "name": "F3",
                    "midi": 53,
                    "time": 798.9354166666856,
                    "velocity": 0.5354330708661418,
                    "duration": 0.0645833333334167
                },
                {
                    "name": "B3",
                    "midi": 59,
                    "time": 798.9395833333523,
                    "velocity": 0.9133858267716536,
                    "duration": 0.03750000000002274
                },
                {
                    "name": "G#5",
                    "midi": 80,
                    "time": 799.0729166666857,
                    "velocity": 0.8188976377952756,
                    "duration": 0.05625000000009095
                },
                {
                    "name": "B5",
                    "midi": 83,
                    "time": 799.0770833333524,
                    "velocity": 0.7559055118110236,
                    "duration": 0.04791666666665151
                },
                {
                    "name": "C#5",
                    "midi": 73,
                    "time": 799.0791666666858,
                    "velocity": 0.8582677165354331,
                    "duration": 0.05000000000006821
                },
                {
                    "name": "F5",
                    "midi": 77,
                    "time": 799.081250000019,
                    "velocity": 0.6850393700787402,
                    "duration": 0.043750000000045475
                },
                {
                    "name": "D2",
                    "midi": 38,
                    "time": 799.2895833333524,
                    "velocity": 0.5984251968503937,
                    "duration": 0.039583333333325754
                },
                {
                    "name": "B3",
                    "midi": 59,
                    "time": 799.3604166666858,
                    "velocity": 0.6062992125984252,
                    "duration": 0.07291666666662877
                },
                {
                    "name": "D4",
                    "midi": 62,
                    "time": 799.425000000019,
                    "velocity": 0.5039370078740157,
                    "duration": 0.03541666666671972
                },
                {
                    "name": "F#4",
                    "midi": 66,
                    "time": 799.456250000019,
                    "velocity": 0.6929133858267716,
                    "duration": 0.03125
                },
                {
                    "name": "B4",
                    "midi": 71,
                    "time": 799.5354166666857,
                    "velocity": 0.7086614173228346,
                    "duration": 0.07499999999993179
                },
                {
                    "name": "D5",
                    "midi": 74,
                    "time": 799.5916666666857,
                    "velocity": 0.6929133858267716,
                    "duration": 0.0770833333332348
                },
                {
                    "name": "D3",
                    "midi": 50,
                    "time": 799.625000000019,
                    "velocity": 0.6141732283464567,
                    "duration": 0.20416666666653782
                },
                {
                    "name": "F#5",
                    "midi": 78,
                    "time": 799.625000000019,
                    "velocity": 0.905511811023622,
                    "duration": 0.060416666666583296
                },
                {
                    "name": "B3",
                    "midi": 59,
                    "time": 799.6333333333523,
                    "velocity": 0.984251968503937,
                    "duration": 0.16458333333321207
                },
                {
                    "name": "F#3",
                    "midi": 54,
                    "time": 799.6333333333523,
                    "velocity": 0.952755905511811,
                    "duration": 0.17708333333325754
                },
                {
                    "name": "B5",
                    "midi": 83,
                    "time": 799.6354166666856,
                    "velocity": 0.8976377952755905,
                    "duration": 0.07499999999993179
                },
                {
                    "name": "F#5",
                    "midi": 78,
                    "time": 800.0208333333522,
                    "velocity": 0.3700787401574803,
                    "duration": 0.05625000000009095
                },
                {
                    "name": "B5",
                    "midi": 83,
                    "time": 800.0229166666855,
                    "velocity": 0.3779527559055118,
                    "duration": 0.06250000000011369
                },
                {
                    "name": "B3",
                    "midi": 59,
                    "time": 800.0270833333523,
                    "velocity": 0.5039370078740157,
                    "duration": 0.03541666666671972
                },
                {
                    "name": "D3",
                    "midi": 50,
                    "time": 800.0270833333523,
                    "velocity": 0.4566929133858268,
                    "duration": 0.07291666666674246
                },
                {
                    "name": "D5",
                    "midi": 74,
                    "time": 800.031250000019,
                    "velocity": 0.44881889763779526,
                    "duration": 0.03750000000002274
                },
                {
                    "name": "F#3",
                    "midi": 54,
                    "time": 800.031250000019,
                    "velocity": 0.5118110236220472,
                    "duration": 0.04166666666674246
                },
                {
                    "name": "D2",
                    "midi": 38,
                    "time": 800.3270833333523,
                    "velocity": 0.8110236220472441,
                    "duration": 0.045833333333234805
                },
                {
                    "name": "F#3",
                    "midi": 54,
                    "time": 800.6125000000189,
                    "velocity": 0.6141732283464567,
                    "duration": 0.23749999999984084
                },
                {
                    "name": "B3",
                    "midi": 59,
                    "time": 800.6312500000189,
                    "velocity": 0.8818897637795275,
                    "duration": 0.22291666666660603
                },
                {
                    "name": "D6",
                    "midi": 86,
                    "time": 800.6333333333522,
                    "velocity": 0.8503937007874016,
                    "duration": 0.2958333333333485
                },
                {
                    "name": "F#5",
                    "midi": 78,
                    "time": 800.6354166666855,
                    "velocity": 0.8661417322834646,
                    "duration": 0.2937500000000455
                },
                {
                    "name": "D4",
                    "midi": 62,
                    "time": 800.6375000000188,
                    "velocity": 0.9212598425196851,
                    "duration": 0.22500000000002274
                },
                {
                    "name": "B5",
                    "midi": 83,
                    "time": 800.6375000000188,
                    "velocity": 0.8031496062992126,
                    "duration": 0.310416666666697
                },
                {
                    "name": "D5",
                    "midi": 74,
                    "time": 800.6395833333521,
                    "velocity": 0.8188976377952756,
                    "duration": 0.25833333333343944
                },
                {
                    "name": "D4",
                    "midi": 62,
                    "time": 801.0416666666855,
                    "velocity": 0.48031496062992124,
                    "duration": 0.029166666666696983
                },
                {
                    "name": "F#3",
                    "midi": 54,
                    "time": 801.0479166666855,
                    "velocity": 0.5984251968503937,
                    "duration": 0.06666666666671972
                },
                {
                    "name": "B3",
                    "midi": 59,
                    "time": 801.0562500000188,
                    "velocity": 0.33858267716535434,
                    "duration": 0.03541666666671972
                },
                {
                    "name": "D6",
                    "midi": 86,
                    "time": 801.2208333333523,
                    "velocity": 0.8503937007874016,
                    "duration": 0.16041666666671972
                },
                {
                    "name": "F#5",
                    "midi": 78,
                    "time": 801.2229166666856,
                    "velocity": 0.8818897637795275,
                    "duration": 0.11875000000009095
                },
                {
                    "name": "B5",
                    "midi": 83,
                    "time": 801.2229166666856,
                    "velocity": 0.7559055118110236,
                    "duration": 0.16250000000013642
                },
                {
                    "name": "D5",
                    "midi": 74,
                    "time": 801.2270833333523,
                    "velocity": 0.8031496062992126,
                    "duration": 0.10833333333334849
                },
                {
                    "name": "D6",
                    "midi": 86,
                    "time": 801.4312500000191,
                    "velocity": 0.8346456692913385,
                    "duration": 0.49374999999997726
                },
                {
                    "name": "B5",
                    "midi": 83,
                    "time": 801.4333333333524,
                    "velocity": 0.7637795275590551,
                    "duration": 0.5166666666666515
                },
                {
                    "name": "G5",
                    "midi": 79,
                    "time": 801.4354166666857,
                    "velocity": 0.8582677165354331,
                    "duration": 0.4833333333333485
                },
                {
                    "name": "D5",
                    "midi": 74,
                    "time": 801.4354166666857,
                    "velocity": 0.8976377952755905,
                    "duration": 0.46458333333339397
                },
                {
                    "name": "E1",
                    "midi": 28,
                    "time": 801.4416666666857,
                    "velocity": 1,
                    "duration": 0.13750000000004547
                },
                {
                    "name": "A#5",
                    "midi": 82,
                    "time": 801.4708333333524,
                    "velocity": 0.25984251968503935,
                    "duration": 0.022916666666674246
                },
                {
                    "name": "D4",
                    "midi": 62,
                    "time": 801.862500000019,
                    "velocity": 0.9291338582677166,
                    "duration": 0.2187499999998863
                },
                {
                    "name": "G3",
                    "midi": 55,
                    "time": 801.862500000019,
                    "velocity": 0.8503937007874016,
                    "duration": 0.20833333333325754
                },
                {
                    "name": "B3",
                    "midi": 59,
                    "time": 801.862500000019,
                    "velocity": 0.889763779527559,
                    "duration": 0.19791666666662877
                },
                {
                    "name": "G3",
                    "midi": 55,
                    "time": 802.2833333333523,
                    "velocity": 0.7795275590551181,
                    "duration": 0.07083333333332575
                },
                {
                    "name": "B3",
                    "midi": 59,
                    "time": 802.287500000019,
                    "velocity": 0.9133858267716536,
                    "duration": 0.05624999999997726
                },
                {
                    "name": "D6",
                    "midi": 86,
                    "time": 802.2916666666857,
                    "velocity": 0.8976377952755905,
                    "duration": 0.07291666666651508
                },
                {
                    "name": "B5",
                    "midi": 83,
                    "time": 802.2916666666857,
                    "velocity": 0.8582677165354331,
                    "duration": 0.07083333333321207
                },
                {
                    "name": "D4",
                    "midi": 62,
                    "time": 802.2916666666857,
                    "velocity": 0.952755905511811,
                    "duration": 0.04791666666665151
                },
                {
                    "name": "D5",
                    "midi": 74,
                    "time": 802.293750000019,
                    "velocity": 0.952755905511811,
                    "duration": 0.04583333333334849
                },
                {
                    "name": "G5",
                    "midi": 79,
                    "time": 802.2958333333523,
                    "velocity": 0.8582677165354331,
                    "duration": 0.04583333333334849
                },
                {
                    "name": "A3",
                    "midi": 57,
                    "time": 803.2604166666856,
                    "velocity": 0.9291338582677166,
                    "duration": 1.287499999999909
                },
                {
                    "name": "A4",
                    "midi": 69,
                    "time": 803.2604166666856,
                    "velocity": 0.952755905511811,
                    "duration": 1.285416666666606
                },
                {
                    "name": "A#2",
                    "midi": 46,
                    "time": 804.4583333333522,
                    "velocity": 0.8976377952755905,
                    "duration": 0.6499999999999773
                },
                {
                    "name": "A#3",
                    "midi": 58,
                    "time": 804.4645833333523,
                    "velocity": 0.937007874015748,
                    "duration": 0.504166666666606
                },
                {
                    "name": "A4",
                    "midi": 69,
                    "time": 804.9354166666856,
                    "velocity": 0.8740157480314961,
                    "duration": 1.2979166666666515
                },
                {
                    "name": "A3",
                    "midi": 57,
                    "time": 804.9354166666856,
                    "velocity": 0.9448818897637795,
                    "duration": 1.2937499999999318
                },
                {
                    "name": "G3",
                    "midi": 55,
                    "time": 806.1645833333522,
                    "velocity": 0.9133858267716536,
                    "duration": 0.660416666666606
                },
                {
                    "name": "G4",
                    "midi": 67,
                    "time": 806.1666666666855,
                    "velocity": 0.9133858267716536,
                    "duration": 0.6000000000000227
                },
                {
                    "name": "F#4",
                    "midi": 66,
                    "time": 806.7500000000189,
                    "velocity": 0.8818897637795275,
                    "duration": 1.4624999999998636
                },
                {
                    "name": "F#3",
                    "midi": 54,
                    "time": 806.7520833333522,
                    "velocity": 0.9133858267716536,
                    "duration": 1.504166666666606
                },
                {
                    "name": "C#4",
                    "midi": 61,
                    "time": 808.1937500000188,
                    "velocity": 0.8976377952755905,
                    "duration": 0.5145833333333485
                },
                {
                    "name": "C#3",
                    "midi": 49,
                    "time": 808.2041666666854,
                    "velocity": 0.905511811023622,
                    "duration": 0.2208333333334167
                },
                {
                    "name": "E1",
                    "midi": 28,
                    "time": 808.8187500000188,
                    "velocity": 0.6456692913385826,
                    "duration": 0.12916666666660603
                },
                {
                    "name": "E2",
                    "midi": 40,
                    "time": 808.8416666666855,
                    "velocity": 1,
                    "duration": 0.12708333333330302
                },
                {
                    "name": "G5",
                    "midi": 79,
                    "time": 809.3479166666855,
                    "velocity": 0.8346456692913385,
                    "duration": 0.056249999999863576
                },
                {
                    "name": "D4",
                    "midi": 62,
                    "time": 809.3500000000188,
                    "velocity": 0.952755905511811,
                    "duration": 0.05208333333325754
                },
                {
                    "name": "D5",
                    "midi": 74,
                    "time": 809.3500000000188,
                    "velocity": 0.889763779527559,
                    "duration": 0.05208333333325754
                },
                {
                    "name": "D6",
                    "midi": 86,
                    "time": 809.3520833333521,
                    "velocity": 0.8582677165354331,
                    "duration": 0.08124999999984084
                },
                {
                    "name": "B5",
                    "midi": 83,
                    "time": 809.3520833333521,
                    "velocity": 0.7874015748031497,
                    "duration": 0.05416666666656056
                },
                {
                    "name": "B3",
                    "midi": 59,
                    "time": 809.3520833333521,
                    "velocity": 0.9133858267716536,
                    "duration": 0.04791666666665151
                },
                {
                    "name": "G3",
                    "midi": 55,
                    "time": 809.3541666666854,
                    "velocity": 0.8582677165354331,
                    "duration": 0.05208333333325754
                },
                {
                    "name": "D4",
                    "midi": 62,
                    "time": 809.7187500000186,
                    "velocity": 0.8818897637795275,
                    "duration": 0.05000000000006821
                },
                {
                    "name": "G3",
                    "midi": 55,
                    "time": 809.720833333352,
                    "velocity": 0.8110236220472441,
                    "duration": 0.06250000000011369
                },
                {
                    "name": "B3",
                    "midi": 59,
                    "time": 809.7250000000187,
                    "velocity": 0.7874015748031497,
                    "duration": 0.027083333333393966
                },
                {
                    "name": "B5",
                    "midi": 83,
                    "time": 809.8562500000187,
                    "velocity": 0.6850393700787402,
                    "duration": 0.0958333333334167
                },
                {
                    "name": "G5",
                    "midi": 79,
                    "time": 809.858333333352,
                    "velocity": 0.6850393700787402,
                    "duration": 0.047916666666765195
                },
                {
                    "name": "D5",
                    "midi": 74,
                    "time": 809.858333333352,
                    "velocity": 0.7322834645669292,
                    "duration": 0.058333333333393966
                },
                {
                    "name": "D6",
                    "midi": 86,
                    "time": 809.8625000000187,
                    "velocity": 0.6614173228346457,
                    "duration": 0.07708333333334849
                },
                {
                    "name": "B5",
                    "midi": 83,
                    "time": 810.0541666666854,
                    "velocity": 0.8346456692913385,
                    "duration": 0.10416666666662877
                },
                {
                    "name": "A1",
                    "midi": 33,
                    "time": 810.0541666666854,
                    "velocity": 0.9921259842519685,
                    "duration": 0.06458333333330302
                },
                {
                    "name": "D5",
                    "midi": 74,
                    "time": 810.0541666666854,
                    "velocity": 0.9133858267716536,
                    "duration": 0.08958333333328028
                },
                {
                    "name": "D6",
                    "midi": 86,
                    "time": 810.0583333333522,
                    "velocity": 0.8503937007874016,
                    "duration": 0.11666666666656056
                },
                {
                    "name": "F#5",
                    "midi": 78,
                    "time": 810.0604166666855,
                    "velocity": 0.8582677165354331,
                    "duration": 0.08541666666656056
                },
                {
                    "name": "D4",
                    "midi": 62,
                    "time": 810.4083333333521,
                    "velocity": 0.8818897637795275,
                    "duration": 0.054166666666674246
                },
                {
                    "name": "B3",
                    "midi": 59,
                    "time": 810.4125000000188,
                    "velocity": 0.84251968503937,
                    "duration": 0.04791666666665151
                },
                {
                    "name": "F#3",
                    "midi": 54,
                    "time": 810.4208333333521,
                    "velocity": 0.7480314960629921,
                    "duration": 0.03750000000002274
                },
                {
                    "name": "D4",
                    "midi": 62,
                    "time": 810.6958333333521,
                    "velocity": 0.8346456692913385,
                    "duration": 0.03333333333330302
                },
                {
                    "name": "F#3",
                    "midi": 54,
                    "time": 810.7020833333521,
                    "velocity": 0.7952755905511811,
                    "duration": 0.05208333333325754
                },
                {
                    "name": "B5",
                    "midi": 83,
                    "time": 810.7041666666854,
                    "velocity": 0.7716535433070866,
                    "duration": 0.06458333333330302
                },
                {
                    "name": "D6",
                    "midi": 86,
                    "time": 810.7062500000187,
                    "velocity": 0.7874015748031497,
                    "duration": 0.06041666666669698
                },
                {
                    "name": "B3",
                    "midi": 59,
                    "time": 810.7062500000187,
                    "velocity": 0.6929133858267716,
                    "duration": 0.03125
                },
                {
                    "name": "F#5",
                    "midi": 78,
                    "time": 810.7062500000187,
                    "velocity": 0.8110236220472441,
                    "duration": 0.054166666666674246
                },
                {
                    "name": "D5",
                    "midi": 74,
                    "time": 810.708333333352,
                    "velocity": 0.7716535433070866,
                    "duration": 0.04583333333334849
                },
                {
                    "name": "A1",
                    "midi": 33,
                    "time": 811.0000000000188,
                    "velocity": 0.889763779527559,
                    "duration": 0.049999999999954525
                },
                {
                    "name": "A2",
                    "midi": 45,
                    "time": 811.0020833333521,
                    "velocity": 0.889763779527559,
                    "duration": 0.05624999999997726
                },
                {
                    "name": "D4",
                    "midi": 62,
                    "time": 811.3125000000188,
                    "velocity": 0.84251968503937,
                    "duration": 0.05208333333325754
                },
                {
                    "name": "D5",
                    "midi": 74,
                    "time": 811.3125000000188,
                    "velocity": 0.7716535433070866,
                    "duration": 0.06666666666660603
                },
                {
                    "name": "B3",
                    "midi": 59,
                    "time": 811.3125000000188,
                    "velocity": 0.7874015748031497,
                    "duration": 0.04166666666662877
                },
                {
                    "name": "B5",
                    "midi": 83,
                    "time": 811.3145833333521,
                    "velocity": 0.7637795275590551,
                    "duration": 0.08124999999995453
                },
                {
                    "name": "B4",
                    "midi": 71,
                    "time": 811.3166666666854,
                    "velocity": 0.8031496062992126,
                    "duration": 0.0625
                },
                {
                    "name": "F#5",
                    "midi": 78,
                    "time": 811.3166666666854,
                    "velocity": 0.7795275590551181,
                    "duration": 0.06875000000002274
                },
                {
                    "name": "F#3",
                    "midi": 54,
                    "time": 811.3187500000187,
                    "velocity": 0.7559055118110236,
                    "duration": 0.04583333333334849
                },
                {
                    "name": "D4",
                    "midi": 62,
                    "time": 811.5937500000186,
                    "velocity": 0.8188976377952756,
                    "duration": 0.033333333333416704
                },
                {
                    "name": "F#3",
                    "midi": 54,
                    "time": 811.5979166666854,
                    "velocity": 0.8188976377952756,
                    "duration": 0.05625000000009095
                },
                {
                    "name": "B3",
                    "midi": 59,
                    "time": 811.6062500000187,
                    "velocity": 0.5826771653543307,
                    "duration": 0.033333333333416704
                },
                {
                    "name": "B5",
                    "midi": 83,
                    "time": 811.6937500000188,
                    "velocity": 0.5905511811023622,
                    "duration": 0.11041666666665151
                },
                {
                    "name": "D5",
                    "midi": 74,
                    "time": 811.6979166666855,
                    "velocity": 0.6062992125984252,
                    "duration": 0.05416666666656056
                },
                {
                    "name": "B4",
                    "midi": 71,
                    "time": 811.6979166666855,
                    "velocity": 0.5039370078740157,
                    "duration": 0.060416666666583296
                },
                {
                    "name": "F#5",
                    "midi": 78,
                    "time": 811.7000000000188,
                    "velocity": 0.5984251968503937,
                    "duration": 0.08749999999997726
                },
                {
                    "name": "A1",
                    "midi": 33,
                    "time": 811.8875000000188,
                    "velocity": 0.9921259842519685,
                    "duration": 0.06875000000002274
                },
                {
                    "name": "B5",
                    "midi": 83,
                    "time": 811.8895833333521,
                    "velocity": 0.7559055118110236,
                    "duration": 0.05624999999997726
                },
                {
                    "name": "G5",
                    "midi": 79,
                    "time": 811.8895833333521,
                    "velocity": 0.7322834645669292,
                    "duration": 0.06666666666671972
                },
                {
                    "name": "C#5",
                    "midi": 73,
                    "time": 811.9000000000187,
                    "velocity": 0.8503937007874016,
                    "duration": 0.05000000000006821
                },
                {
                    "name": "B4",
                    "midi": 71,
                    "time": 811.9125000000188,
                    "velocity": 0.6850393700787402,
                    "duration": 0.39583333333337123
                },
                {
                    "name": "C#3",
                    "midi": 49,
                    "time": 812.3333333333521,
                    "velocity": 0.8582677165354331,
                    "duration": 0.06666666666671972
                },
                {
                    "name": "A#3",
                    "midi": 58,
                    "time": 812.3333333333521,
                    "velocity": 0.905511811023622,
                    "duration": 0.05000000000006821
                },
                {
                    "name": "C#5",
                    "midi": 73,
                    "time": 812.3395833333522,
                    "velocity": 0.8110236220472441,
                    "duration": 0.058333333333393966
                },
                {
                    "name": "F#4",
                    "midi": 66,
                    "time": 812.3437500000189,
                    "velocity": 0.8582677165354331,
                    "duration": 0.04791666666665151
                },
                {
                    "name": "F#3",
                    "midi": 54,
                    "time": 812.3437500000189,
                    "velocity": 0.7480314960629921,
                    "duration": 0.02708333333328028
                },
                {
                    "name": "A#4",
                    "midi": 70,
                    "time": 812.3458333333522,
                    "velocity": 0.7716535433070866,
                    "duration": 0.03750000000002274
                },
                {
                    "name": "F#4",
                    "midi": 66,
                    "time": 812.4354166666856,
                    "velocity": 0.7716535433070866,
                    "duration": 0.04375000000015916
                },
                {
                    "name": "C#5",
                    "midi": 73,
                    "time": 812.4375000000189,
                    "velocity": 0.7874015748031497,
                    "duration": 0.07083333333343944
                },
                {
                    "name": "C#3",
                    "midi": 49,
                    "time": 812.4375000000189,
                    "velocity": 0.7874015748031497,
                    "duration": 0.06041666666681067
                },
                {
                    "name": "A#4",
                    "midi": 70,
                    "time": 812.4416666666856,
                    "velocity": 0.6929133858267716,
                    "duration": 0.033333333333416704
                },
                {
                    "name": "A#3",
                    "midi": 58,
                    "time": 812.4458333333523,
                    "velocity": 0.6377952755905512,
                    "duration": 0.029166666666696983
                },
                {
                    "name": "B5",
                    "midi": 83,
                    "time": 812.7437500000191,
                    "velocity": 0.8503937007874016,
                    "duration": 0.052083333333143855
                },
                {
                    "name": "A1",
                    "midi": 33,
                    "time": 812.7458333333524,
                    "velocity": 0.8740157480314961,
                    "duration": 0.052083333333143855
                },
                {
                    "name": "C#5",
                    "midi": 73,
                    "time": 812.7479166666857,
                    "velocity": 0.9291338582677166,
                    "duration": 0.04999999999984084
                },
                {
                    "name": "A2",
                    "midi": 45,
                    "time": 812.750000000019,
                    "velocity": 0.8582677165354331,
                    "duration": 0.045833333333234805
                },
                {
                    "name": "G5",
                    "midi": 79,
                    "time": 812.750000000019,
                    "velocity": 0.7795275590551181,
                    "duration": 0.05416666666656056
                },
                {
                    "name": "B4",
                    "midi": 71,
                    "time": 812.7687500000189,
                    "velocity": 0.6299212598425197,
                    "duration": 0.4645833333332803
                },
                {
                    "name": "A#3",
                    "midi": 58,
                    "time": 813.1854166666856,
                    "velocity": 0.889763779527559,
                    "duration": 0.05625000000009095
                },
                {
                    "name": "F#3",
                    "midi": 54,
                    "time": 813.1916666666856,
                    "velocity": 0.8503937007874016,
                    "duration": 0.04583333333334849
                },
                {
                    "name": "C#3",
                    "midi": 49,
                    "time": 813.1958333333523,
                    "velocity": 0.7716535433070866,
                    "duration": 0.054166666666674246
                },
                {
                    "name": "C#5",
                    "midi": 73,
                    "time": 813.1979166666856,
                    "velocity": 0.8267716535433071,
                    "duration": 0.0625
                },
                {
                    "name": "F#4",
                    "midi": 66,
                    "time": 813.2000000000189,
                    "velocity": 0.9291338582677166,
                    "duration": 0.047916666666765195
                },
                {
                    "name": "A#4",
                    "midi": 70,
                    "time": 813.2083333333522,
                    "velocity": 0.7244094488188977,
                    "duration": 0.029166666666696983
                },
                {
                    "name": "A#3",
                    "midi": 58,
                    "time": 813.2791666666856,
                    "velocity": 0.8267716535433071,
                    "duration": 0.05000000000006821
                },
                {
                    "name": "F#4",
                    "midi": 66,
                    "time": 813.2854166666856,
                    "velocity": 0.8346456692913385,
                    "duration": 0.047916666666765195
                },
                {
                    "name": "C#3",
                    "midi": 49,
                    "time": 813.2854166666856,
                    "velocity": 0.8267716535433071,
                    "duration": 0.0645833333334167
                },
                {
                    "name": "A#4",
                    "midi": 70,
                    "time": 813.2916666666856,
                    "velocity": 0.6141732283464567,
                    "duration": 0.03750000000002274
                },
                {
                    "name": "C#5",
                    "midi": 73,
                    "time": 813.2958333333523,
                    "velocity": 0.7559055118110236,
                    "duration": 0.054166666666674246
                },
                {
                    "name": "F#3",
                    "midi": 54,
                    "time": 813.2979166666856,
                    "velocity": 0.7165354330708661,
                    "duration": 0.024999999999977263
                },
                {
                    "name": "B4",
                    "midi": 71,
                    "time": 813.6166666666857,
                    "velocity": 0.8110236220472441,
                    "duration": 0.09375000000011369
                },
                {
                    "name": "A1",
                    "midi": 33,
                    "time": 813.625000000019,
                    "velocity": 0.889763779527559,
                    "duration": 0.0645833333334167
                },
                {
                    "name": "A2",
                    "midi": 45,
                    "time": 813.625000000019,
                    "velocity": 0.889763779527559,
                    "duration": 0.06041666666669698
                },
                {
                    "name": "G5",
                    "midi": 79,
                    "time": 813.6291666666857,
                    "velocity": 0.7952755905511811,
                    "duration": 0.06875000000002274
                },
                {
                    "name": "C#5",
                    "midi": 73,
                    "time": 813.631250000019,
                    "velocity": 0.8976377952755905,
                    "duration": 0.049999999999954525
                },
                {
                    "name": "B5",
                    "midi": 83,
                    "time": 813.631250000019,
                    "velocity": 0.7716535433070866,
                    "duration": 0.0645833333334167
                },
                {
                    "name": "A2",
                    "midi": 45,
                    "time": 813.7208333333524,
                    "velocity": 0.8031496062992126,
                    "duration": 0.06458333333330302
                },
                {
                    "name": "B5",
                    "midi": 83,
                    "time": 813.7270833333524,
                    "velocity": 0.5669291338582677,
                    "duration": 0.05833333333328028
                },
                {
                    "name": "C#5",
                    "midi": 73,
                    "time": 813.7312500000191,
                    "velocity": 0.6929133858267716,
                    "duration": 0.056249999999863576
                },
                {
                    "name": "A1",
                    "midi": 33,
                    "time": 813.7333333333524,
                    "velocity": 0.5511811023622047,
                    "duration": 0.05416666666656056
                },
                {
                    "name": "G5",
                    "midi": 79,
                    "time": 813.7416666666858,
                    "velocity": 0.7716535433070866,
                    "duration": 0.06458333333318933
                },
                {
                    "name": "B4",
                    "midi": 71,
                    "time": 813.7520833333524,
                    "velocity": 0.49606299212598426,
                    "duration": 0.22083333333318933
                },
                {
                    "name": "A1",
                    "midi": 33,
                    "time": 813.837500000019,
                    "velocity": 0.7952755905511811,
                    "duration": 0.05624999999997726
                },
                {
                    "name": "B5",
                    "midi": 83,
                    "time": 813.843750000019,
                    "velocity": 0.6614173228346457,
                    "duration": 0.039583333333325754
                },
                {
                    "name": "C#5",
                    "midi": 73,
                    "time": 813.8458333333523,
                    "velocity": 0.8267716535433071,
                    "duration": 0.06875000000002274
                },
                {
                    "name": "G5",
                    "midi": 79,
                    "time": 813.8458333333523,
                    "velocity": 0.8188976377952756,
                    "duration": 0.05624999999997726
                },
                {
                    "name": "A2",
                    "midi": 45,
                    "time": 813.8479166666856,
                    "velocity": 0.8346456692913385,
                    "duration": 0.058333333333393966
                },
                {
                    "name": "A#3",
                    "midi": 58,
                    "time": 814.1395833333522,
                    "velocity": 0.937007874015748,
                    "duration": 0.04791666666665151
                },
                {
                    "name": "F#4",
                    "midi": 66,
                    "time": 814.1458333333522,
                    "velocity": 0.9291338582677166,
                    "duration": 0.04583333333334849
                },
                {
                    "name": "C#3",
                    "midi": 49,
                    "time": 814.1479166666855,
                    "velocity": 0.8661417322834646,
                    "duration": 0.05624999999997726
                },
                {
                    "name": "C#5",
                    "midi": 73,
                    "time": 814.1500000000188,
                    "velocity": 0.84251968503937,
                    "duration": 0.06666666666671972
                },
                {
                    "name": "A#4",
                    "midi": 70,
                    "time": 814.1500000000188,
                    "velocity": 0.8503937007874016,
                    "duration": 0.05208333333337123
                },
                {
                    "name": "F#3",
                    "midi": 54,
                    "time": 814.1541666666856,
                    "velocity": 0.7559055118110236,
                    "duration": 0.022916666666674246
                },
                {
                    "name": "B4",
                    "midi": 71,
                    "time": 814.4437500000189,
                    "velocity": 0.8346456692913385,
                    "duration": 0.33541666666656056
                },
                {
                    "name": "B5",
                    "midi": 83,
                    "time": 814.4541666666855,
                    "velocity": 0.8031496062992126,
                    "duration": 0.0645833333334167
                },
                {
                    "name": "A2",
                    "midi": 45,
                    "time": 814.4541666666855,
                    "velocity": 0.9133858267716536,
                    "duration": 0.06041666666669698
                },
                {
                    "name": "C#5",
                    "midi": 73,
                    "time": 814.4583333333522,
                    "velocity": 0.905511811023622,
                    "duration": 0.049999999999954525
                },
                {
                    "name": "G5",
                    "midi": 79,
                    "time": 814.4583333333522,
                    "velocity": 0.7874015748031497,
                    "duration": 0.06666666666671972
                },
                {
                    "name": "A1",
                    "midi": 33,
                    "time": 814.4583333333522,
                    "velocity": 0.9448818897637795,
                    "duration": 0.06041666666669698
                },
                {
                    "name": "A2",
                    "midi": 45,
                    "time": 814.5666666666856,
                    "velocity": 0.7401574803149606,
                    "duration": 0.05416666666656056
                },
                {
                    "name": "A1",
                    "midi": 33,
                    "time": 814.5666666666856,
                    "velocity": 0.7952755905511811,
                    "duration": 0.060416666666583296
                },
                {
                    "name": "B5",
                    "midi": 83,
                    "time": 814.5687500000189,
                    "velocity": 0.7716535433070866,
                    "duration": 0.05416666666656056
                },
                {
                    "name": "C#5",
                    "midi": 73,
                    "time": 814.5708333333522,
                    "velocity": 0.8818897637795275,
                    "duration": 0.04791666666665151
                },
                {
                    "name": "G5",
                    "midi": 79,
                    "time": 814.5708333333522,
                    "velocity": 0.7795275590551181,
                    "duration": 0.07083333333332575
                },
                {
                    "name": "A1",
                    "midi": 33,
                    "time": 814.6604166666855,
                    "velocity": 0.5748031496062992,
                    "duration": 0.056249999999863576
                },
                {
                    "name": "B5",
                    "midi": 83,
                    "time": 814.6604166666855,
                    "velocity": 0.7322834645669292,
                    "duration": 0.056249999999863576
                },
                {
                    "name": "C#5",
                    "midi": 73,
                    "time": 814.6708333333521,
                    "velocity": 0.8346456692913385,
                    "duration": 0.08333333333337123
                },
                {
                    "name": "G5",
                    "midi": 79,
                    "time": 814.6729166666854,
                    "velocity": 0.7716535433070866,
                    "duration": 0.05624999999997726
                },
                {
                    "name": "A2",
                    "midi": 45,
                    "time": 814.6750000000187,
                    "velocity": 0.7716535433070866,
                    "duration": 0.058333333333393966
                },
                {
                    "name": "A#3",
                    "midi": 58,
                    "time": 814.9770833333522,
                    "velocity": 0.9133858267716536,
                    "duration": 0.049999999999954525
                },
                {
                    "name": "F#3",
                    "midi": 54,
                    "time": 814.9833333333522,
                    "velocity": 0.84251968503937,
                    "duration": 0.031249999999886313
                },
                {
                    "name": "C#3",
                    "midi": 49,
                    "time": 814.9854166666855,
                    "velocity": 0.84251968503937,
                    "duration": 0.06458333333330302
                },
                {
                    "name": "F#4",
                    "midi": 66,
                    "time": 814.9875000000188,
                    "velocity": 0.9291338582677166,
                    "duration": 0.04791666666665151
                },
                {
                    "name": "C#5",
                    "midi": 73,
                    "time": 814.9875000000188,
                    "velocity": 0.8661417322834646,
                    "duration": 0.07291666666662877
                },
                {
                    "name": "A#4",
                    "midi": 70,
                    "time": 814.9895833333521,
                    "velocity": 0.8818897637795275,
                    "duration": 0.05208333333337123
                },
                {
                    "name": "A1",
                    "midi": 33,
                    "time": 815.2541666666855,
                    "velocity": 0.7795275590551181,
                    "duration": 0.06875000000002274
                },
                {
                    "name": "B4",
                    "midi": 71,
                    "time": 815.2562500000188,
                    "velocity": 0.9212598425196851,
                    "duration": 0.07708333333334849
                },
                {
                    "name": "B5",
                    "midi": 83,
                    "time": 815.2562500000188,
                    "velocity": 0.8503937007874016,
                    "duration": 0.10416666666674246
                },
                {
                    "name": "G5",
                    "midi": 79,
                    "time": 815.2604166666855,
                    "velocity": 0.84251968503937,
                    "duration": 0.09791666666671972
                },
                {
                    "name": "A2",
                    "midi": 45,
                    "time": 815.2604166666855,
                    "velocity": 0.9606299212598425,
                    "duration": 0.07708333333334849
                },
                {
                    "name": "A#3",
                    "midi": 58,
                    "time": 815.5250000000188,
                    "velocity": 0.9763779527559056,
                    "duration": 0.04374999999993179
                },
                {
                    "name": "F#3",
                    "midi": 54,
                    "time": 815.5270833333522,
                    "velocity": 0.9133858267716536,
                    "duration": 0.04374999999993179
                },
                {
                    "name": "C#5",
                    "midi": 73,
                    "time": 815.5333333333522,
                    "velocity": 0.984251968503937,
                    "duration": 0.04374999999993179
                },
                {
                    "name": "A#4",
                    "midi": 70,
                    "time": 815.5354166666855,
                    "velocity": 0.937007874015748,
                    "duration": 0.03333333333330302
                },
                {
                    "name": "A1",
                    "midi": 33,
                    "time": 815.7812500000188,
                    "velocity": 0.8818897637795275,
                    "duration": 0.19166666666660603
                },
                {
                    "name": "F5",
                    "midi": 77,
                    "time": 815.7833333333521,
                    "velocity": 0.9291338582677166,
                    "duration": 0.16666666666662877
                },
                {
                    "name": "A2",
                    "midi": 45,
                    "time": 815.7833333333521,
                    "velocity": 0.984251968503937,
                    "duration": 0.17916666666667425
                },
                {
                    "name": "C#6",
                    "midi": 85,
                    "time": 815.7833333333521,
                    "velocity": 0.968503937007874,
                    "duration": 0.1875
                },
                {
                    "name": "C#5",
                    "midi": 73,
                    "time": 815.7854166666854,
                    "velocity": 0.9921259842519685,
                    "duration": 0.16875000000004547
                },
                {
                    "name": "E3",
                    "midi": 52,
                    "time": 816.0625000000188,
                    "velocity": 0.9606299212598425,
                    "duration": 0.04374999999993179
                },
                {
                    "name": "G#3",
                    "midi": 56,
                    "time": 816.0625000000188,
                    "velocity": 1,
                    "duration": 0.039583333333325754
                },
                {
                    "name": "D5",
                    "midi": 74,
                    "time": 816.0645833333521,
                    "velocity": 1,
                    "duration": 0.039583333333325754
                },
                {
                    "name": "B4",
                    "midi": 71,
                    "time": 816.0645833333521,
                    "velocity": 0.9763779527559056,
                    "duration": 0.03750000000002274
                },
                {
                    "name": "D6",
                    "midi": 86,
                    "time": 816.3125000000186,
                    "velocity": 0.952755905511811,
                    "duration": 0.17708333333325754
                },
                {
                    "name": "A2",
                    "midi": 45,
                    "time": 816.314583333352,
                    "velocity": 0.984251968503937,
                    "duration": 0.15833333333330302
                },
                {
                    "name": "A#5",
                    "midi": 82,
                    "time": 816.314583333352,
                    "velocity": 0.8976377952755905,
                    "duration": 0.17916666666667425
                },
                {
                    "name": "D5",
                    "midi": 74,
                    "time": 816.3166666666853,
                    "velocity": 0.984251968503937,
                    "duration": 0.1395833333333485
                },
                {
                    "name": "G5",
                    "midi": 79,
                    "time": 816.3166666666853,
                    "velocity": 0.889763779527559,
                    "duration": 0.15833333333330302
                },
                {
                    "name": "A1",
                    "midi": 33,
                    "time": 816.3166666666853,
                    "velocity": 0.984251968503937,
                    "duration": 0.16458333333332575
                },
                {
                    "name": "D3",
                    "midi": 50,
                    "time": 816.5937500000186,
                    "velocity": 0.952755905511811,
                    "duration": 0.05624999999997726
                },
                {
                    "name": "G#3",
                    "midi": 56,
                    "time": 816.5937500000186,
                    "velocity": 1,
                    "duration": 0.04374999999993179
                },
                {
                    "name": "E3",
                    "midi": 52,
                    "time": 816.595833333352,
                    "velocity": 0.8818897637795275,
                    "duration": 0.05208333333337123
                },
                {
                    "name": "D5",
                    "midi": 74,
                    "time": 816.5979166666853,
                    "velocity": 1,
                    "duration": 0.043750000000045475
                },
                {
                    "name": "E5",
                    "midi": 76,
                    "time": 816.6000000000186,
                    "velocity": 1,
                    "duration": 0.04583333333346218
                },
                {
                    "name": "C#6",
                    "midi": 85,
                    "time": 816.8312500000186,
                    "velocity": 0.937007874015748,
                    "duration": 0.07499999999993179
                },
                {
                    "name": "A#5",
                    "midi": 82,
                    "time": 816.8333333333519,
                    "velocity": 0.9448818897637795,
                    "duration": 0.05624999999997726
                },
                {
                    "name": "F6",
                    "midi": 89,
                    "time": 816.8333333333519,
                    "velocity": 0.9448818897637795,
                    "duration": 0.08333333333325754
                },
                {
                    "name": "A#2",
                    "midi": 46,
                    "time": 816.8354166666852,
                    "velocity": 1,
                    "duration": 0.22916666666651508
                },
                {
                    "name": "F5",
                    "midi": 77,
                    "time": 816.8354166666852,
                    "velocity": 0.952755905511811,
                    "duration": 0.049999999999954525
                },
                {
                    "name": "A#1",
                    "midi": 34,
                    "time": 816.8354166666852,
                    "velocity": 1,
                    "duration": 0.19791666666651508
                },
                {
                    "name": "E3",
                    "midi": 52,
                    "time": 817.0229166666851,
                    "velocity": 0.8740157480314961,
                    "duration": 0.33333333333337123
                },
                {
                    "name": "F3",
                    "midi": 53,
                    "time": 817.1625000000184,
                    "velocity": 0.84251968503937,
                    "duration": 0.19583333333332575
                },
                {
                    "name": "G3",
                    "midi": 55,
                    "time": 817.2604166666852,
                    "velocity": 0.7795275590551181,
                    "duration": 0.14791666666667425
                },
                {
                    "name": "G#3",
                    "midi": 56,
                    "time": 817.3729166666851,
                    "velocity": 0.8582677165354331,
                    "duration": 0.12916666666671972
                },
                {
                    "name": "A3",
                    "midi": 57,
                    "time": 817.4791666666852,
                    "velocity": 0.84251968503937,
                    "duration": 0.15625
                },
                {
                    "name": "B3",
                    "midi": 59,
                    "time": 817.5916666666851,
                    "velocity": 0.8503937007874016,
                    "duration": 0.16666666666674246
                },
                {
                    "name": "A#0",
                    "midi": 22,
                    "time": 817.6375000000185,
                    "velocity": 1,
                    "duration": 0.40416666666681067
                },
                {
                    "name": "A0",
                    "midi": 21,
                    "time": 817.6375000000185,
                    "velocity": 1,
                    "duration": 0.3562500000000455
                },
                {
                    "name": "B0",
                    "midi": 23,
                    "time": 817.6520833333518,
                    "velocity": 0.7952755905511811,
                    "duration": 0.022916666666674246
                },
                {
                    "name": "E1",
                    "midi": 28,
                    "time": 817.6729166666852,
                    "velocity": 0.3937007874015748,
                    "duration": 0.03333333333330302
                },
                {
                    "name": "D1",
                    "midi": 26,
                    "time": 817.6770833333518,
                    "velocity": 0.3228346456692913,
                    "duration": 0.033333333333416704
                },
                {
                    "name": "A#3",
                    "midi": 58,
                    "time": 817.7187500000185,
                    "velocity": 0.8661417322834646,
                    "duration": 0.1708333333333485
                },
                {
                    "name": "A3",
                    "midi": 57,
                    "time": 817.8500000000186,
                    "velocity": 0.7244094488188977,
                    "duration": 0.1395833333332348
                },
                {
                    "name": "E2",
                    "midi": 40,
                    "time": 817.9041666666852,
                    "velocity": 0.8582677165354331,
                    "duration": 0.15208333333339397
                },
                {
                    "name": "G#3",
                    "midi": 56,
                    "time": 817.9625000000185,
                    "velocity": 0.905511811023622,
                    "duration": 0.07083333333343944
                },
                {
                    "name": "F2",
                    "midi": 41,
                    "time": 817.9979166666852,
                    "velocity": 0.5511811023622047,
                    "duration": 0.24791666666681067
                },
                {
                    "name": "G#2",
                    "midi": 44,
                    "time": 818.0750000000186,
                    "velocity": 0.7874015748031497,
                    "duration": 0.21041666666678793
                },
                {
                    "name": "G#3",
                    "midi": 56,
                    "time": 818.0812500000186,
                    "velocity": 0.84251968503937,
                    "duration": 0.07291666666674246
                },
                {
                    "name": "C3",
                    "midi": 48,
                    "time": 818.1062500000187,
                    "velocity": 0.8031496062992126,
                    "duration": 0.21875
                },
                {
                    "name": "D3",
                    "midi": 50,
                    "time": 818.1812500000186,
                    "velocity": 0.84251968503937,
                    "duration": 0.05208333333337123
                },
                {
                    "name": "A4",
                    "midi": 69,
                    "time": 818.3729166666853,
                    "velocity": 0.7952755905511811,
                    "duration": 0.15208333333350765
                },
                {
                    "name": "C#5",
                    "midi": 73,
                    "time": 818.3750000000186,
                    "velocity": 0.8582677165354331,
                    "duration": 0.1270833333335304
                },
                {
                    "name": "F2",
                    "midi": 41,
                    "time": 818.3979166666853,
                    "velocity": 0.984251968503937,
                    "duration": 0.33958333333350765
                },
                {
                    "name": "E5",
                    "midi": 76,
                    "time": 818.402083333352,
                    "velocity": 0.7637795275590551,
                    "duration": 0.1562500000001137
                },
                {
                    "name": "C5",
                    "midi": 72,
                    "time": 818.4854166666854,
                    "velocity": 0.6614173228346457,
                    "duration": 0.1416666666667652
                },
                {
                    "name": "G#4",
                    "midi": 68,
                    "time": 818.4979166666855,
                    "velocity": 0.7637795275590551,
                    "duration": 0.1416666666667652
                },
                {
                    "name": "D5",
                    "midi": 74,
                    "time": 818.5020833333522,
                    "velocity": 0.7165354330708661,
                    "duration": 0.1416666666667652
                },
                {
                    "name": "F5",
                    "midi": 77,
                    "time": 818.5145833333522,
                    "velocity": 0.8346456692913385,
                    "duration": 0.14791666666667425
                },
                {
                    "name": "B4",
                    "midi": 71,
                    "time": 818.6083333333521,
                    "velocity": 0.8346456692913385,
                    "duration": 0.17083333333357587
                },
                {
                    "name": "G4",
                    "midi": 67,
                    "time": 818.6145833333521,
                    "velocity": 0.7952755905511811,
                    "duration": 0.1604166666668334
                },
                {
                    "name": "F#5",
                    "midi": 78,
                    "time": 818.6229166666855,
                    "velocity": 0.8661417322834646,
                    "duration": 0.1437500000000682
                },
                {
                    "name": "D#5",
                    "midi": 75,
                    "time": 818.6270833333522,
                    "velocity": 0.8818897637795275,
                    "duration": 0.1437500000000682
                },
                {
                    "name": "C#4",
                    "midi": 61,
                    "time": 818.6729166666855,
                    "velocity": 0.952755905511811,
                    "duration": 0.42083333333368955
                },
                {
                    "name": "F3",
                    "midi": 53,
                    "time": 818.6750000000188,
                    "velocity": 0.9212598425196851,
                    "duration": 0.3958333333337123
                },
                {
                    "name": "A#3",
                    "midi": 58,
                    "time": 818.6750000000188,
                    "velocity": 0.937007874015748,
                    "duration": 0.4104166666670608
                },
                {
                    "name": "E5",
                    "midi": 76,
                    "time": 818.7270833333521,
                    "velocity": 0.8188976377952756,
                    "duration": 0.16875000000015916
                },
                {
                    "name": "G5",
                    "midi": 79,
                    "time": 818.7312500000188,
                    "velocity": 0.8503937007874016,
                    "duration": 0.15416666666681067
                },
                {
                    "name": "A#4",
                    "midi": 70,
                    "time": 818.7312500000188,
                    "velocity": 0.9291338582677166,
                    "duration": 0.15000000000009095
                },
                {
                    "name": "F#4",
                    "midi": 66,
                    "time": 818.7333333333521,
                    "velocity": 0.9448818897637795,
                    "duration": 0.16458333333343944
                },
                {
                    "name": "A4",
                    "midi": 69,
                    "time": 818.837500000019,
                    "velocity": 0.8188976377952756,
                    "duration": 0.1708333333333485
                },
                {
                    "name": "G#5",
                    "midi": 80,
                    "time": 818.8479166666856,
                    "velocity": 0.8976377952755905,
                    "duration": 0.11249999999995453
                },
                {
                    "name": "F4",
                    "midi": 65,
                    "time": 818.8500000000189,
                    "velocity": 0.9291338582677166,
                    "duration": 0.14583333333337123
                },
                {
                    "name": "F5",
                    "midi": 77,
                    "time": 818.8520833333522,
                    "velocity": 0.8976377952755905,
                    "duration": 0.1604166666668334
                },
                {
                    "name": "A5",
                    "midi": 81,
                    "time": 818.9562500000188,
                    "velocity": 0.8503937007874016,
                    "duration": 0.12708333333375776
                },
                {
                    "name": "F#5",
                    "midi": 78,
                    "time": 818.9666666666856,
                    "velocity": 0.905511811023622,
                    "duration": 0.10000000000025011
                },
                {
                    "name": "G#4",
                    "midi": 68,
                    "time": 818.9729166666856,
                    "velocity": 0.9133858267716536,
                    "duration": 0.07916666666687888
                },
                {
                    "name": "E4",
                    "midi": 64,
                    "time": 818.9854166666856,
                    "velocity": 0.889763779527559,
                    "duration": 0.06250000000011369
                },
                {
                    "name": "A#1",
                    "midi": 34,
                    "time": 819.1395833333526,
                    "velocity": 1,
                    "duration": 0.060416666666583296
                },
                {
                    "name": "A#5",
                    "midi": 82,
                    "time": 819.1416666666859,
                    "velocity": 0.952755905511811,
                    "duration": 0.060416666666583296
                },
                {
                    "name": "C#6",
                    "midi": 85,
                    "time": 819.1416666666859,
                    "velocity": 0.952755905511811,
                    "duration": 0.06666666666660603
                },
                {
                    "name": "F5",
                    "midi": 77,
                    "time": 819.1416666666859,
                    "velocity": 0.984251968503937,
                    "duration": 0.05208333333325754
                },
                {
                    "name": "F6",
                    "midi": 89,
                    "time": 819.1416666666859,
                    "velocity": 0.9291338582677166,
                    "duration": 0.049999999999954525
                },
                {
                    "name": "E3",
                    "midi": 52,
                    "time": 819.3854166666858,
                    "velocity": 0.7244094488188977,
                    "duration": 0.1374999999999318
                },
                {
                    "name": "F3",
                    "midi": 53,
                    "time": 819.5041666666858,
                    "velocity": 0.7952755905511811,
                    "duration": 0.08541666666667425
                },
                {
                    "name": "G3",
                    "midi": 55,
                    "time": 819.6125000000192,
                    "velocity": 0.7559055118110236,
                    "duration": 0.16458333333332575
                },
                {
                    "name": "G#3",
                    "midi": 56,
                    "time": 819.7395833333525,
                    "velocity": 0.8818897637795275,
                    "duration": 0.1437500000000682
                },
                {
                    "name": "A3",
                    "midi": 57,
                    "time": 819.8437500000192,
                    "velocity": 0.7401574803149606,
                    "duration": 0.15208333333328028
                },
                {
                    "name": "G3",
                    "midi": 55,
                    "time": 819.8541666666858,
                    "velocity": 0.7165354330708661,
                    "duration": 0.03125
                },
                {
                    "name": "A0",
                    "midi": 21,
                    "time": 819.9604166666859,
                    "velocity": 0.9133858267716536,
                    "duration": 0.49166666666656056
                },
                {
                    "name": "A#0",
                    "midi": 22,
                    "time": 819.9645833333526,
                    "velocity": 0.9921259842519685,
                    "duration": 0.4791666666665151
                },
                {
                    "name": "B3",
                    "midi": 59,
                    "time": 819.9750000000192,
                    "velocity": 0.84251968503937,
                    "duration": 0.15833333333330302
                },
                {
                    "name": "B0",
                    "midi": 23,
                    "time": 819.9854166666859,
                    "velocity": 0.5354330708661418,
                    "duration": 0.03333333333330302
                },
                {
                    "name": "A#3",
                    "midi": 58,
                    "time": 820.0937500000192,
                    "velocity": 0.8976377952755905,
                    "duration": 0.1708333333333485
                },
                {
                    "name": "A3",
                    "midi": 57,
                    "time": 820.2166666666859,
                    "velocity": 0.7952755905511811,
                    "duration": 0.10624999999993179
                },
                {
                    "name": "E2",
                    "midi": 40,
                    "time": 820.2541666666859,
                    "velocity": 0.8031496062992126,
                    "duration": 0.11874999999986358
                },
                {
                    "name": "F2",
                    "midi": 41,
                    "time": 820.3208333333525,
                    "velocity": 0.6456692913385826,
                    "duration": 0.17499999999995453
                },
                {
                    "name": "G#3",
                    "midi": 56,
                    "time": 820.3395833333525,
                    "velocity": 0.937007874015748,
                    "duration": 0.07708333333334849
                },
                {
                    "name": "G2",
                    "midi": 43,
                    "time": 820.3791666666858,
                    "velocity": 0.6850393700787402,
                    "duration": 0.1416666666666515
                },
                {
                    "name": "G#2",
                    "midi": 44,
                    "time": 820.3937500000192,
                    "velocity": 0.7637795275590551,
                    "duration": 0.12708333333330302
                },
                {
                    "name": "C3",
                    "midi": 48,
                    "time": 820.4437500000191,
                    "velocity": 0.7795275590551181,
                    "duration": 0.11249999999995453
                },
                {
                    "name": "G#3",
                    "midi": 56,
                    "time": 820.4562500000192,
                    "velocity": 0.8818897637795275,
                    "duration": 0.07499999999993179
                },
                {
                    "name": "D3",
                    "midi": 50,
                    "time": 820.5833333333524,
                    "velocity": 0.8740157480314961,
                    "duration": 0.054166666666674246
                },
                {
                    "name": "A4",
                    "midi": 69,
                    "time": 820.7354166666858,
                    "velocity": 0.7795275590551181,
                    "duration": 0.16458333333321207
                },
                {
                    "name": "C#5",
                    "midi": 73,
                    "time": 820.7437500000191,
                    "velocity": 0.8582677165354331,
                    "duration": 0.19791666666651508
                },
                {
                    "name": "F2",
                    "midi": 41,
                    "time": 820.762500000019,
                    "velocity": 1,
                    "duration": 0.3583333333333485
                },
                {
                    "name": "E5",
                    "midi": 76,
                    "time": 820.7958333333523,
                    "velocity": 0.7165354330708661,
                    "duration": 0.1562499999998863
                },
                {
                    "name": "G#4",
                    "midi": 68,
                    "time": 820.8708333333524,
                    "velocity": 0.84251968503937,
                    "duration": 0.15625
                },
                {
                    "name": "C5",
                    "midi": 72,
                    "time": 820.8729166666857,
                    "velocity": 0.7322834645669292,
                    "duration": 0.09374999999988631
                },
                {
                    "name": "D5",
                    "midi": 74,
                    "time": 820.881250000019,
                    "velocity": 0.7165354330708661,
                    "duration": 0.19166666666671972
                },
                {
                    "name": "F5",
                    "midi": 77,
                    "time": 820.9083333333523,
                    "velocity": 0.8818897637795275,
                    "duration": 0.1583333333334167
                },
                {
                    "name": "G4",
                    "midi": 67,
                    "time": 820.9979166666856,
                    "velocity": 0.8031496062992126,
                    "duration": 0.1729166666667652
                },
                {
                    "name": "B4",
                    "midi": 71,
                    "time": 821.0020833333523,
                    "velocity": 0.8188976377952756,
                    "duration": 0.1729166666667652
                },
                {
                    "name": "F#5",
                    "midi": 78,
                    "time": 821.0229166666857,
                    "velocity": 0.889763779527559,
                    "duration": 0.15416666666669698
                },
                {
                    "name": "D#5",
                    "midi": 75,
                    "time": 821.0333333333524,
                    "velocity": 0.9448818897637795,
                    "duration": 0.1541666666665833
                },
                {
                    "name": "C#4",
                    "midi": 61,
                    "time": 821.0729166666857,
                    "velocity": 0.9921259842519685,
                    "duration": 0.3583333333331211
                },
                {
                    "name": "F3",
                    "midi": 53,
                    "time": 821.0729166666857,
                    "velocity": 0.9763779527559056,
                    "duration": 0.34583333333318933
                },
                {
                    "name": "A#3",
                    "midi": 58,
                    "time": 821.075000000019,
                    "velocity": 0.9763779527559056,
                    "duration": 0.34791666666649235
                },
                {
                    "name": "F#4",
                    "midi": 66,
                    "time": 821.1208333333524,
                    "velocity": 0.9763779527559056,
                    "duration": 0.1854166666665833
                },
                {
                    "name": "A#4",
                    "midi": 70,
                    "time": 821.1250000000191,
                    "velocity": 0.937007874015748,
                    "duration": 0.17499999999984084
                },
                {
                    "name": "E5",
                    "midi": 76,
                    "time": 821.1416666666858,
                    "velocity": 0.889763779527559,
                    "duration": 0.17708333333325754
                },
                {
                    "name": "G5",
                    "midi": 79,
                    "time": 821.143750000019,
                    "velocity": 0.889763779527559,
                    "duration": 0.1687499999999318
                },
                {
                    "name": "A4",
                    "midi": 69,
                    "time": 821.250000000019,
                    "velocity": 0.8818897637795275,
                    "duration": 0.1708333333332348
                },
                {
                    "name": "F4",
                    "midi": 65,
                    "time": 821.2604166666856,
                    "velocity": 0.8740157480314961,
                    "duration": 0.1395833333333485
                },
                {
                    "name": "G#5",
                    "midi": 80,
                    "time": 821.2687500000189,
                    "velocity": 0.9133858267716536,
                    "duration": 0.12708333333330302
                },
                {
                    "name": "F5",
                    "midi": 77,
                    "time": 821.2708333333522,
                    "velocity": 0.9212598425196851,
                    "duration": 0.16249999999990905
                },
                {
                    "name": "A5",
                    "midi": 81,
                    "time": 821.3770833333523,
                    "velocity": 0.9133858267716536,
                    "duration": 0.11041666666653782
                },
                {
                    "name": "F#5",
                    "midi": 78,
                    "time": 821.3791666666856,
                    "velocity": 0.937007874015748,
                    "duration": 0.1229166666665833
                },
                {
                    "name": "G#4",
                    "midi": 68,
                    "time": 821.3875000000189,
                    "velocity": 0.9133858267716536,
                    "duration": 0.0770833333332348
                },
                {
                    "name": "E4",
                    "midi": 64,
                    "time": 821.3937500000189,
                    "velocity": 0.8818897637795275,
                    "duration": 0.06874999999990905
                },
                {
                    "name": "C#6",
                    "midi": 85,
                    "time": 821.5270833333523,
                    "velocity": 0.9448818897637795,
                    "duration": 0.17499999999984084
                },
                {
                    "name": "A#5",
                    "midi": 82,
                    "time": 821.5291666666856,
                    "velocity": 0.9448818897637795,
                    "duration": 0.15833333333330302
                },
                {
                    "name": "F5",
                    "midi": 77,
                    "time": 821.5312500000189,
                    "velocity": 0.9448818897637795,
                    "duration": 0.11666666666667425
                },
                {
                    "name": "F6",
                    "midi": 89,
                    "time": 821.5312500000189,
                    "velocity": 0.9133858267716536,
                    "duration": 0.1416666666666515
                },
                {
                    "name": "A#2",
                    "midi": 46,
                    "time": 821.5354166666856,
                    "velocity": 1,
                    "duration": 0.1562499999998863
                },
                {
                    "name": "A#1",
                    "midi": 34,
                    "time": 821.5354166666856,
                    "velocity": 0.968503937007874,
                    "duration": 0.1541666666665833
                },
                {
                    "name": "F3",
                    "midi": 53,
                    "time": 821.7895833333521,
                    "velocity": 1,
                    "duration": 0.06666666666660603
                },
                {
                    "name": "F5",
                    "midi": 77,
                    "time": 821.7916666666854,
                    "velocity": 1,
                    "duration": 0.0625
                },
                {
                    "name": "A#2",
                    "midi": 46,
                    "time": 822.058333333352,
                    "velocity": 0.9921259842519685,
                    "duration": 0.14999999999997726
                },
                {
                    "name": "F#5",
                    "midi": 78,
                    "time": 822.058333333352,
                    "velocity": 1,
                    "duration": 0.11458333333325754
                },
                {
                    "name": "F#6",
                    "midi": 90,
                    "time": 822.0604166666853,
                    "velocity": 0.9763779527559056,
                    "duration": 0.16875000000004547
                },
                {
                    "name": "A#1",
                    "midi": 34,
                    "time": 822.0604166666853,
                    "velocity": 0.9921259842519685,
                    "duration": 0.15625
                },
                {
                    "name": "A#5",
                    "midi": 82,
                    "time": 822.0625000000186,
                    "velocity": 0.9133858267716536,
                    "duration": 0.13125000000002274
                },
                {
                    "name": "C#6",
                    "midi": 85,
                    "time": 822.0625000000186,
                    "velocity": 0.8976377952755905,
                    "duration": 0.14583333333337123
                },
                {
                    "name": "F#3",
                    "midi": 54,
                    "time": 822.3208333333521,
                    "velocity": 0.968503937007874,
                    "duration": 0.056249999999863576
                },
                {
                    "name": "F3",
                    "midi": 53,
                    "time": 822.3229166666854,
                    "velocity": 0.952755905511811,
                    "duration": 0.049999999999954525
                },
                {
                    "name": "F#5",
                    "midi": 78,
                    "time": 822.3229166666854,
                    "velocity": 1,
                    "duration": 0.060416666666583296
                },
                {
                    "name": "F5",
                    "midi": 77,
                    "time": 822.3229166666854,
                    "velocity": 0.9921259842519685,
                    "duration": 0.05208333333325754
                },
                {
                    "name": "C#6",
                    "midi": 85,
                    "time": 822.5666666666853,
                    "velocity": 0.9921259842519685,
                    "duration": 0.06458333333330302
                },
                {
                    "name": "G6",
                    "midi": 91,
                    "time": 822.5687500000186,
                    "velocity": 0.9606299212598425,
                    "duration": 0.06666666666671972
                },
                {
                    "name": "G5",
                    "midi": 79,
                    "time": 822.5687500000186,
                    "velocity": 0.9763779527559056,
                    "duration": 0.05208333333337123
                },
                {
                    "name": "A#2",
                    "midi": 46,
                    "time": 822.5729166666853,
                    "velocity": 1,
                    "duration": 0.08333333333337123
                },
                {
                    "name": "A#1",
                    "midi": 34,
                    "time": 822.577083333352,
                    "velocity": 0.9921259842519685,
                    "duration": 0.08541666666667425
                },
                {
                    "name": "A#5",
                    "midi": 82,
                    "time": 822.595833333352,
                    "velocity": 0.937007874015748,
                    "duration": 0.043750000000045475
                },
                {
                    "name": "G5",
                    "midi": 79,
                    "time": 822.8187500000187,
                    "velocity": 1,
                    "duration": 0.06249999999988631
                },
                {
                    "name": "G3",
                    "midi": 55,
                    "time": 822.8187500000187,
                    "velocity": 1,
                    "duration": 0.08958333333316659
                },
                {
                    "name": "F3",
                    "midi": 53,
                    "time": 822.8187500000187,
                    "velocity": 1,
                    "duration": 0.08124999999984084
                },
                {
                    "name": "F5",
                    "midi": 77,
                    "time": 822.820833333352,
                    "velocity": 0.9921259842519685,
                    "duration": 0.049999999999954525
                },
                {
                    "name": "G#6",
                    "midi": 92,
                    "time": 823.0895833333518,
                    "velocity": 0.9448818897637795,
                    "duration": 0.1104166666667652
                },
                {
                    "name": "G#5",
                    "midi": 80,
                    "time": 823.0895833333518,
                    "velocity": 0.9763779527559056,
                    "duration": 0.08333333333337123
                },
                {
                    "name": "C#6",
                    "midi": 85,
                    "time": 823.0916666666851,
                    "velocity": 0.889763779527559,
                    "duration": 0.0958333333334167
                },
                {
                    "name": "E6",
                    "midi": 88,
                    "time": 823.0916666666851,
                    "velocity": 0.8582677165354331,
                    "duration": 0.10208333333343944
                },
                {
                    "name": "A#2",
                    "midi": 46,
                    "time": 823.0958333333518,
                    "velocity": 1,
                    "duration": 0.10416666666674246
                },
                {
                    "name": "A#1",
                    "midi": 34,
                    "time": 823.0958333333518,
                    "velocity": 1,
                    "duration": 0.1104166666667652
                },
                {
                    "name": "G4",
                    "midi": 67,
                    "time": 823.2562500000186,
                    "velocity": 0.8031496062992126,
                    "duration": 0.17916666666667425
                },
                {
                    "name": "G#4",
                    "midi": 68,
                    "time": 823.3875000000186,
                    "velocity": 0.8661417322834646,
                    "duration": 0.15625
                },
                {
                    "name": "A#4",
                    "midi": 70,
                    "time": 823.4979166666852,
                    "velocity": 0.8661417322834646,
                    "duration": 0.13333333333332575
                },
                {
                    "name": "B4",
                    "midi": 71,
                    "time": 823.5979166666853,
                    "velocity": 0.8188976377952756,
                    "duration": 0.24374999999997726
                },
                {
                    "name": "C5",
                    "midi": 72,
                    "time": 823.7125000000185,
                    "velocity": 0.8976377952755905,
                    "duration": 0.17916666666678793
                },
                {
                    "name": "A#0",
                    "midi": 22,
                    "time": 823.8208333333519,
                    "velocity": 0.984251968503937,
                    "duration": 0.0958333333334167
                },
                {
                    "name": "A0",
                    "midi": 21,
                    "time": 823.8270833333519,
                    "velocity": 0.7874015748031497,
                    "duration": 0.0645833333334167
                },
                {
                    "name": "B0",
                    "midi": 23,
                    "time": 823.8312500000186,
                    "velocity": 0.9133858267716536,
                    "duration": 0.06875000000002274
                },
                {
                    "name": "D5",
                    "midi": 74,
                    "time": 823.8562500000186,
                    "velocity": 0.8503937007874016,
                    "duration": 0.1729166666666515
                },
                {
                    "name": "C#5",
                    "midi": 73,
                    "time": 823.9791666666853,
                    "velocity": 0.905511811023622,
                    "duration": 0.17708333333325754
                },
                {
                    "name": "C5",
                    "midi": 72,
                    "time": 824.0875000000185,
                    "velocity": 0.889763779527559,
                    "duration": 0.16458333333332575
                },
                {
                    "name": "G#2",
                    "midi": 44,
                    "time": 824.1041666666852,
                    "velocity": 0.9763779527559056,
                    "duration": 0.07083333333332575
                },
                {
                    "name": "B4",
                    "midi": 71,
                    "time": 824.2000000000185,
                    "velocity": 0.8031496062992126,
                    "duration": 0.08958333333339397
                },
                {
                    "name": "C#3",
                    "midi": 49,
                    "time": 824.2125000000185,
                    "velocity": 0.937007874015748,
                    "duration": 0.10416666666662877
                },
                {
                    "name": "F3",
                    "midi": 53,
                    "time": 824.3062500000185,
                    "velocity": 0.6299212598425197,
                    "duration": 0.11041666666653782
                },
                {
                    "name": "G3",
                    "midi": 55,
                    "time": 824.3187500000184,
                    "velocity": 0.7007874015748031,
                    "duration": 0.11458333333325754
                },
                {
                    "name": "B4",
                    "midi": 71,
                    "time": 824.3229166666852,
                    "velocity": 0.8818897637795275,
                    "duration": 0.08541666666656056
                },
                {
                    "name": "B3",
                    "midi": 59,
                    "time": 824.3500000000184,
                    "velocity": 0.8582677165354331,
                    "duration": 0.1083333333332348
                },
                {
                    "name": "G#3",
                    "midi": 56,
                    "time": 824.3604166666851,
                    "velocity": 0.3779527559055118,
                    "duration": 0.05833333333328028
                },
                {
                    "name": "F4",
                    "midi": 65,
                    "time": 824.4520833333517,
                    "velocity": 0.889763779527559,
                    "duration": 0.05624999999997726
                },
                {
                    "name": "A#2",
                    "midi": 46,
                    "time": 824.6000000000183,
                    "velocity": 1,
                    "duration": 0.2854166666668334
                },
                {
                    "name": "B2",
                    "midi": 47,
                    "time": 824.6145833333517,
                    "velocity": 0.7874015748031497,
                    "duration": 0.1458333333335986
                },
                {
                    "name": "E5",
                    "midi": 76,
                    "time": 824.6187500000184,
                    "velocity": 0.8110236220472441,
                    "duration": 0.1729166666667652
                },
                {
                    "name": "C5",
                    "midi": 72,
                    "time": 824.6229166666851,
                    "velocity": 0.8740157480314961,
                    "duration": 0.13958333333346218
                },
                {
                    "name": "G5",
                    "midi": 79,
                    "time": 824.6458333333518,
                    "velocity": 0.7559055118110236,
                    "duration": 0.1437500000000682
                },
                {
                    "name": "B4",
                    "midi": 71,
                    "time": 824.7395833333518,
                    "velocity": 0.84251968503937,
                    "duration": 0.17916666666667425
                },
                {
                    "name": "D#5",
                    "midi": 75,
                    "time": 824.7437500000185,
                    "velocity": 0.8503937007874016,
                    "duration": 0.17916666666667425
                },
                {
                    "name": "F5",
                    "midi": 77,
                    "time": 824.7562500000186,
                    "velocity": 0.8031496062992126,
                    "duration": 0.1687499999999318
                },
                {
                    "name": "G#5",
                    "midi": 80,
                    "time": 824.7625000000186,
                    "velocity": 0.8976377952755905,
                    "duration": 0.14583333333325754
                },
                {
                    "name": "E4",
                    "midi": 64,
                    "time": 824.8645833333518,
                    "velocity": 0.9763779527559056,
                    "duration": 0.38124999999990905
                },
                {
                    "name": "G#3",
                    "midi": 56,
                    "time": 824.8666666666851,
                    "velocity": 1,
                    "duration": 0.3604166666667652
                },
                {
                    "name": "C#4",
                    "midi": 61,
                    "time": 824.8666666666851,
                    "velocity": 0.9763779527559056,
                    "duration": 0.36666666666667425
                },
                {
                    "name": "D5",
                    "midi": 74,
                    "time": 824.8708333333518,
                    "velocity": 0.8818897637795275,
                    "duration": 0.15625
                },
                {
                    "name": "A#4",
                    "midi": 70,
                    "time": 824.8708333333518,
                    "velocity": 0.8976377952755905,
                    "duration": 0.15833333333330302
                },
                {
                    "name": "A5",
                    "midi": 81,
                    "time": 824.8770833333518,
                    "velocity": 0.9133858267716536,
                    "duration": 0.24374999999997726
                },
                {
                    "name": "F#5",
                    "midi": 78,
                    "time": 824.8854166666852,
                    "velocity": 0.9291338582677166,
                    "duration": 0.16458333333332575
                },
                {
                    "name": "A4",
                    "midi": 69,
                    "time": 824.9812500000185,
                    "velocity": 0.889763779527559,
                    "duration": 0.1895833333334167
                },
                {
                    "name": "C#5",
                    "midi": 73,
                    "time": 824.9854166666852,
                    "velocity": 0.937007874015748,
                    "duration": 0.18124999999997726
                },
                {
                    "name": "G5",
                    "midi": 79,
                    "time": 824.9958333333518,
                    "velocity": 0.8582677165354331,
                    "duration": 0.17708333333337123
                },
                {
                    "name": "A#5",
                    "midi": 82,
                    "time": 824.9958333333518,
                    "velocity": 0.9291338582677166,
                    "duration": 0.12916666666671972
                },
                {
                    "name": "C5",
                    "midi": 72,
                    "time": 825.1062500000185,
                    "velocity": 0.9291338582677166,
                    "duration": 0.14999999999986358
                },
                {
                    "name": "B5",
                    "midi": 83,
                    "time": 825.1104166666852,
                    "velocity": 0.952755905511811,
                    "duration": 0.21249999999997726
                },
                {
                    "name": "G#4",
                    "midi": 68,
                    "time": 825.1250000000185,
                    "velocity": 0.937007874015748,
                    "duration": 0.14583333333314386
                },
                {
                    "name": "G#5",
                    "midi": 80,
                    "time": 825.1270833333518,
                    "velocity": 0.952755905511811,
                    "duration": 0.13541666666651508
                },
                {
                    "name": "G4",
                    "midi": 67,
                    "time": 825.2270833333519,
                    "velocity": 0.9291338582677166,
                    "duration": 0.08541666666656056
                },
                {
                    "name": "A5",
                    "midi": 81,
                    "time": 825.2291666666852,
                    "velocity": 0.889763779527559,
                    "duration": 0.09791666666671972
                },
                {
                    "name": "B4",
                    "midi": 71,
                    "time": 825.2312500000185,
                    "velocity": 0.8976377952755905,
                    "duration": 0.08541666666667425
                },
                {
                    "name": "C6",
                    "midi": 84,
                    "time": 825.2354166666851,
                    "velocity": 0.9448818897637795,
                    "duration": 0.06458333333330302
                },
                {
                    "name": "G#5",
                    "midi": 80,
                    "time": 825.3770833333518,
                    "velocity": 0.968503937007874,
                    "duration": 0.08124999999995453
                },
                {
                    "name": "G#6",
                    "midi": 92,
                    "time": 825.3770833333518,
                    "velocity": 0.9291338582677166,
                    "duration": 0.04374999999993179
                },
                {
                    "name": "A#2",
                    "midi": 46,
                    "time": 825.3770833333518,
                    "velocity": 1,
                    "duration": 0.09166666666669698
                },
                {
                    "name": "C#6",
                    "midi": 85,
                    "time": 825.3791666666851,
                    "velocity": 0.8976377952755905,
                    "duration": 0.054166666666674246
                },
                {
                    "name": "E6",
                    "midi": 88,
                    "time": 825.3812500000184,
                    "velocity": 0.8346456692913385,
                    "duration": 0.054166666666674246
                },
                {
                    "name": "A#1",
                    "midi": 34,
                    "time": 825.3812500000184,
                    "velocity": 0.9921259842519685,
                    "duration": 0.08125000000006821
                },
                {
                    "name": "G4",
                    "midi": 67,
                    "time": 825.6229166666852,
                    "velocity": 0.7874015748031497,
                    "duration": 0.18333333333339397
                },
                {
                    "name": "G#4",
                    "midi": 68,
                    "time": 825.7541666666853,
                    "velocity": 0.8582677165354331,
                    "duration": 0.15416666666669698
                },
                {
                    "name": "A#4",
                    "midi": 70,
                    "time": 825.8604166666853,
                    "velocity": 0.8503937007874016,
                    "duration": 0.14374999999995453
                },
                {
                    "name": "B4",
                    "midi": 71,
                    "time": 825.9729166666853,
                    "velocity": 0.8503937007874016,
                    "duration": 0.11458333333337123
                },
                {
                    "name": "C5",
                    "midi": 72,
                    "time": 826.0916666666853,
                    "velocity": 0.9212598425196851,
                    "duration": 0.10625000000004547
                },
                {
                    "name": "A0",
                    "midi": 21,
                    "time": 826.2020833333521,
                    "velocity": 0.9763779527559056,
                    "duration": 0.09999999999990905
                },
                {
                    "name": "A#0",
                    "midi": 22,
                    "time": 826.2020833333521,
                    "velocity": 0.9921259842519685,
                    "duration": 0.11874999999986358
                },
                {
                    "name": "D5",
                    "midi": 74,
                    "time": 826.2354166666854,
                    "velocity": 0.9212598425196851,
                    "duration": 0.1687499999998181
                },
                {
                    "name": "C#5",
                    "midi": 73,
                    "time": 826.3500000000186,
                    "velocity": 0.889763779527559,
                    "duration": 0.1687499999999318
                },
                {
                    "name": "C5",
                    "midi": 72,
                    "time": 826.4625000000185,
                    "velocity": 0.8740157480314961,
                    "duration": 0.16041666666660603
                },
                {
                    "name": "G#2",
                    "midi": 44,
                    "time": 826.4958333333518,
                    "velocity": 0.9133858267716536,
                    "duration": 0.1708333333332348
                },
                {
                    "name": "B4",
                    "midi": 71,
                    "time": 826.5687500000184,
                    "velocity": 0.8346456692913385,
                    "duration": 0.08124999999995453
                },
                {
                    "name": "C#3",
                    "midi": 49,
                    "time": 826.6041666666852,
                    "velocity": 0.889763779527559,
                    "duration": 0.08749999999997726
                },
                {
                    "name": "F3",
                    "midi": 53,
                    "time": 826.6791666666851,
                    "velocity": 0.5984251968503937,
                    "duration": 0.125
                },
                {
                    "name": "B4",
                    "midi": 71,
                    "time": 826.6958333333519,
                    "velocity": 0.9212598425196851,
                    "duration": 0.08124999999995453
                },
                {
                    "name": "G3",
                    "midi": 55,
                    "time": 826.7020833333519,
                    "velocity": 0.7007874015748031,
                    "duration": 0.12916666666649235
                },
                {
                    "name": "B3",
                    "midi": 59,
                    "time": 826.7354166666852,
                    "velocity": 0.7952755905511811,
                    "duration": 0.12499999999988631
                },
                {
                    "name": "F4",
                    "midi": 65,
                    "time": 826.8312500000184,
                    "velocity": 0.84251968503937,
                    "duration": 0.05624999999997726
                },
                {
                    "name": "A#2",
                    "midi": 46,
                    "time": 826.9770833333516,
                    "velocity": 0.937007874015748,
                    "duration": 0.3624999999999545
                },
                {
                    "name": "E5",
                    "midi": 76,
                    "time": 827.0000000000183,
                    "velocity": 0.8818897637795275,
                    "duration": 0.16250000000002274
                },
                {
                    "name": "C5",
                    "midi": 72,
                    "time": 827.0104166666849,
                    "velocity": 0.8346456692913385,
                    "duration": 0.16458333333343944
                },
                {
                    "name": "G5",
                    "midi": 79,
                    "time": 827.0354166666849,
                    "velocity": 0.8110236220472441,
                    "duration": 0.15000000000009095
                },
                {
                    "name": "D#5",
                    "midi": 75,
                    "time": 827.1187500000183,
                    "velocity": 0.905511811023622,
                    "duration": 0.1729166666666515
                },
                {
                    "name": "B4",
                    "midi": 71,
                    "time": 827.1270833333516,
                    "velocity": 0.8582677165354331,
                    "duration": 0.16666666666662877
                },
                {
                    "name": "F5",
                    "midi": 77,
                    "time": 827.147916666685,
                    "velocity": 0.8188976377952756,
                    "duration": 0.16666666666662877
                },
                {
                    "name": "G#5",
                    "midi": 80,
                    "time": 827.1500000000183,
                    "velocity": 0.8976377952755905,
                    "duration": 0.14374999999995453
                },
                {
                    "name": "D5",
                    "midi": 74,
                    "time": 827.235416666685,
                    "velocity": 0.9133858267716536,
                    "duration": 0.1687499999999318
                },
                {
                    "name": "A#4",
                    "midi": 70,
                    "time": 827.2437500000183,
                    "velocity": 0.9133858267716536,
                    "duration": 0.14583333333325754
                },
                {
                    "name": "A5",
                    "midi": 81,
                    "time": 827.266666666685,
                    "velocity": 0.9212598425196851,
                    "duration": 0.14999999999997726
                },
                {
                    "name": "F#5",
                    "midi": 78,
                    "time": 827.2770833333516,
                    "velocity": 0.937007874015748,
                    "duration": 0.16041666666671972
                },
                {
                    "name": "E4",
                    "midi": 64,
                    "time": 827.3000000000183,
                    "velocity": 0.9448818897637795,
                    "duration": 0.40208333333350765
                },
                {
                    "name": "G#3",
                    "midi": 56,
                    "time": 827.3000000000183,
                    "velocity": 0.9921259842519685,
                    "duration": 0.38541666666685614
                },
                {
                    "name": "C#4",
                    "midi": 61,
                    "time": 827.3020833333516,
                    "velocity": 0.9448818897637795,
                    "duration": 0.38541666666685614
                },
                {
                    "name": "A4",
                    "midi": 69,
                    "time": 827.3520833333516,
                    "velocity": 0.8346456692913385,
                    "duration": 0.18333333333328028
                },
                {
                    "name": "C#5",
                    "midi": 73,
                    "time": 827.3625000000183,
                    "velocity": 0.937007874015748,
                    "duration": 0.18124999999997726
                },
                {
                    "name": "A#5",
                    "midi": 82,
                    "time": 827.3791666666849,
                    "velocity": 0.9291338582677166,
                    "duration": 0.1416666666666515
                },
                {
                    "name": "G5",
                    "midi": 79,
                    "time": 827.3895833333515,
                    "velocity": 0.8976377952755905,
                    "duration": 0.17916666666678793
                },
                {
                    "name": "C5",
                    "midi": 72,
                    "time": 827.4833333333517,
                    "velocity": 0.9291338582677166,
                    "duration": 0.10833333333334849
                },
                {
                    "name": "G#4",
                    "midi": 68,
                    "time": 827.485416666685,
                    "velocity": 0.9448818897637795,
                    "duration": 0.16250000000013642
                },
                {
                    "name": "B5",
                    "midi": 83,
                    "time": 827.4958333333516,
                    "velocity": 0.952755905511811,
                    "duration": 0.11875000000009095
                },
                {
                    "name": "G#5",
                    "midi": 80,
                    "time": 827.5208333333516,
                    "velocity": 0.952755905511811,
                    "duration": 0.13541666666685614
                },
                {
                    "name": "G4",
                    "midi": 67,
                    "time": 827.6020833333516,
                    "velocity": 0.9133858267716536,
                    "duration": 0.08750000000009095
                },
                {
                    "name": "B4",
                    "midi": 71,
                    "time": 827.6083333333517,
                    "velocity": 0.9212598425196851,
                    "duration": 0.0791666666667652
                },
                {
                    "name": "A5",
                    "midi": 81,
                    "time": 827.629166666685,
                    "velocity": 0.7322834645669292,
                    "duration": 0.07291666666674246
                },
                {
                    "name": "C6",
                    "midi": 84,
                    "time": 827.6333333333517,
                    "velocity": 0.952755905511811,
                    "duration": 0.05208333333337123
                },
                {
                    "name": "A#2",
                    "midi": 46,
                    "time": 827.7375000000185,
                    "velocity": 1,
                    "duration": 0.13750000000004547
                },
                {
                    "name": "A#1",
                    "midi": 34,
                    "time": 827.7416666666852,
                    "velocity": 0.9921259842519685,
                    "duration": 0.12291666666669698
                },
                {
                    "name": "G#5",
                    "midi": 80,
                    "time": 827.7416666666852,
                    "velocity": 1,
                    "duration": 0.11458333333337123
                },
                {
                    "name": "G#6",
                    "midi": 92,
                    "time": 827.7458333333519,
                    "velocity": 0.968503937007874,
                    "duration": 0.1395833333332348
                },
                {
                    "name": "C#6",
                    "midi": 85,
                    "time": 827.7458333333519,
                    "velocity": 0.9291338582677166,
                    "duration": 0.11041666666665151
                },
                {
                    "name": "E6",
                    "midi": 88,
                    "time": 827.7458333333519,
                    "velocity": 0.84251968503937,
                    "duration": 0.12708333333330302
                },
                {
                    "name": "G#3",
                    "midi": 56,
                    "time": 828.0041666666851,
                    "velocity": 1,
                    "duration": 0.06666666666671972
                },
                {
                    "name": "G#5",
                    "midi": 80,
                    "time": 828.0083333333519,
                    "velocity": 1,
                    "duration": 0.06666666666671972
                },
                {
                    "name": "E6",
                    "midi": 88,
                    "time": 828.2270833333519,
                    "velocity": 0.9212598425196851,
                    "duration": 0.12500000000022737
                },
                {
                    "name": "C#6",
                    "midi": 85,
                    "time": 828.2312500000186,
                    "velocity": 0.9133858267716536,
                    "duration": 0.11250000000006821
                },
                {
                    "name": "A#2",
                    "midi": 46,
                    "time": 828.2312500000186,
                    "velocity": 1,
                    "duration": 0.13333333333355313
                },
                {
                    "name": "A6",
                    "midi": 93,
                    "time": 828.2333333333519,
                    "velocity": 0.889763779527559,
                    "duration": 0.11458333333348492
                },
                {
                    "name": "A5",
                    "midi": 81,
                    "time": 828.2333333333519,
                    "velocity": 0.9212598425196851,
                    "duration": 0.07500000000004547
                },
                {
                    "name": "A#1",
                    "midi": 34,
                    "time": 828.2333333333519,
                    "velocity": 0.9763779527559056,
                    "duration": 0.13750000000027285
                },
                {
                    "name": "A3",
                    "midi": 57,
                    "time": 828.4833333333521,
                    "velocity": 1,
                    "duration": 0.09583333333318933
                },
                {
                    "name": "A5",
                    "midi": 81,
                    "time": 828.4854166666854,
                    "velocity": 0.984251968503937,
                    "duration": 0.05833333333328028
                },
                {
                    "name": "G#3",
                    "midi": 56,
                    "time": 828.4854166666854,
                    "velocity": 1,
                    "duration": 0.08541666666656056
                },
                {
                    "name": "G#5",
                    "midi": 80,
                    "time": 828.4854166666854,
                    "velocity": 1,
                    "duration": 0.06666666666660603
                },
                {
                    "name": "A#5",
                    "midi": 82,
                    "time": 828.702083333352,
                    "velocity": 0.9291338582677166,
                    "duration": 0.07916666666665151
                },
                {
                    "name": "A#6",
                    "midi": 94,
                    "time": 828.7041666666853,
                    "velocity": 0.8976377952755905,
                    "duration": 0.1083333333332348
                },
                {
                    "name": "C#6",
                    "midi": 85,
                    "time": 828.7041666666853,
                    "velocity": 0.8661417322834646,
                    "duration": 0.08749999999997726
                },
                {
                    "name": "E6",
                    "midi": 88,
                    "time": 828.7062500000186,
                    "velocity": 0.84251968503937,
                    "duration": 0.09583333333330302
                },
                {
                    "name": "A#2",
                    "midi": 46,
                    "time": 828.7062500000186,
                    "velocity": 1,
                    "duration": 0.11249999999995453
                },
                {
                    "name": "A#1",
                    "midi": 34,
                    "time": 828.7083333333519,
                    "velocity": 0.984251968503937,
                    "duration": 0.11249999999995453
                },
                {
                    "name": "A#3",
                    "midi": 58,
                    "time": 828.9500000000186,
                    "velocity": 1,
                    "duration": 0.05833333333328028
                },
                {
                    "name": "G#3",
                    "midi": 56,
                    "time": 828.9500000000186,
                    "velocity": 1,
                    "duration": 0.07499999999993179
                },
                {
                    "name": "G#5",
                    "midi": 80,
                    "time": 828.9520833333519,
                    "velocity": 1,
                    "duration": 0.054166666666674246
                },
                {
                    "name": "A#5",
                    "midi": 82,
                    "time": 828.9541666666852,
                    "velocity": 0.9921259842519685,
                    "duration": 0.07291666666662877
                },
                {
                    "name": "A#6",
                    "midi": 94,
                    "time": 829.1833333333518,
                    "velocity": 0.9133858267716536,
                    "duration": 0.06249999999988631
                },
                {
                    "name": "C#7",
                    "midi": 97,
                    "time": 829.1833333333518,
                    "velocity": 0.9763779527559056,
                    "duration": 0.05416666666656056
                },
                {
                    "name": "G#6",
                    "midi": 92,
                    "time": 829.1833333333518,
                    "velocity": 0.9921259842519685,
                    "duration": 0.05416666666656056
                },
                {
                    "name": "D6",
                    "midi": 86,
                    "time": 829.1895833333518,
                    "velocity": 0.9133858267716536,
                    "duration": 0.020833333333257542
                },
                {
                    "name": "A#2",
                    "midi": 46,
                    "time": 829.1916666666851,
                    "velocity": 1,
                    "duration": 0.07291666666651508
                },
                {
                    "name": "A#1",
                    "midi": 34,
                    "time": 829.1937500000184,
                    "velocity": 0.9921259842519685,
                    "duration": 0.060416666666583296
                },
                {
                    "name": "C#6",
                    "midi": 85,
                    "time": 829.4083333333516,
                    "velocity": 0.9133858267716536,
                    "duration": 0.33541666666656056
                },
                {
                    "name": "D4",
                    "midi": 62,
                    "time": 829.4104166666849,
                    "velocity": 0.984251968503937,
                    "duration": 0.30416666666656056
                },
                {
                    "name": "G#5",
                    "midi": 80,
                    "time": 829.4104166666849,
                    "velocity": 0.889763779527559,
                    "duration": 0.3291666666665378
                },
                {
                    "name": "D6",
                    "midi": 86,
                    "time": 829.4125000000182,
                    "velocity": 0.8503937007874016,
                    "duration": 0.3083333333332803
                },
                {
                    "name": "D5",
                    "midi": 74,
                    "time": 829.4125000000182,
                    "velocity": 0.9448818897637795,
                    "duration": 0.2999999999999545
                },
                {
                    "name": "G#3",
                    "midi": 56,
                    "time": 829.4125000000182,
                    "velocity": 0.9448818897637795,
                    "duration": 0.31666666666660603
                },
                {
                    "name": "C#4",
                    "midi": 61,
                    "time": 829.4125000000182,
                    "velocity": 0.9763779527559056,
                    "duration": 0.30208333333325754
                },
                {
                    "name": "E5",
                    "midi": 76,
                    "time": 829.4229166666848,
                    "velocity": 0.7952755905511811,
                    "duration": 0.02083333333337123
                },
                {
                    "name": "D4",
                    "midi": 62,
                    "time": 829.7895833333515,
                    "velocity": 0.8188976377952756,
                    "duration": 0.04374999999993179
                },
                {
                    "name": "C#4",
                    "midi": 61,
                    "time": 829.7958333333515,
                    "velocity": 0.8188976377952756,
                    "duration": 0.031249999999886313
                },
                {
                    "name": "G#3",
                    "midi": 56,
                    "time": 829.7979166666848,
                    "velocity": 0.8110236220472441,
                    "duration": 0.05624999999997726
                },
                {
                    "name": "G#5",
                    "midi": 80,
                    "time": 829.8020833333516,
                    "velocity": 0.8976377952755905,
                    "duration": 0.045833333333234805
                },
                {
                    "name": "C#6",
                    "midi": 85,
                    "time": 829.8041666666849,
                    "velocity": 0.84251968503937,
                    "duration": 0.06874999999990905
                },
                {
                    "name": "D5",
                    "midi": 74,
                    "time": 829.8062500000182,
                    "velocity": 0.8503937007874016,
                    "duration": 0.04166666666662877
                },
                {
                    "name": "D6",
                    "midi": 86,
                    "time": 829.8166666666848,
                    "velocity": 0.4881889763779528,
                    "duration": 0.03125
                },
                {
                    "name": "A#1",
                    "midi": 34,
                    "time": 829.9604166666848,
                    "velocity": 0.9763779527559056,
                    "duration": 0.03333333333330302
                },
                {
                    "name": "A#2",
                    "midi": 46,
                    "time": 829.9604166666848,
                    "velocity": 0.9763779527559056,
                    "duration": 0.03333333333330302
                },
                {
                    "name": "C5",
                    "midi": 72,
                    "time": 830.0520833333513,
                    "velocity": 0.7086614173228346,
                    "duration": 0.08958333333328028
                },
                {
                    "name": "D5",
                    "midi": 74,
                    "time": 830.0520833333513,
                    "velocity": 0.7244094488188977,
                    "duration": 0.09583333333330302
                },
                {
                    "name": "G#5",
                    "midi": 80,
                    "time": 830.1083333333513,
                    "velocity": 0.7952755905511811,
                    "duration": 0.09166666666669698
                },
                {
                    "name": "C6",
                    "midi": 84,
                    "time": 830.1458333333513,
                    "velocity": 0.7795275590551181,
                    "duration": 0.27500000000009095
                },
                {
                    "name": "D4",
                    "midi": 62,
                    "time": 830.162500000018,
                    "velocity": 0.8976377952755905,
                    "duration": 0.2541666666667197
                },
                {
                    "name": "C4",
                    "midi": 60,
                    "time": 830.162500000018,
                    "velocity": 0.9212598425196851,
                    "duration": 0.20000000000015916
                },
                {
                    "name": "D6",
                    "midi": 86,
                    "time": 830.162500000018,
                    "velocity": 0.9133858267716536,
                    "duration": 0.2520833333334167
                },
                {
                    "name": "G#3",
                    "midi": 56,
                    "time": 830.1708333333513,
                    "velocity": 0.84251968503937,
                    "duration": 0.17291666666687888
                },
                {
                    "name": "G#5",
                    "midi": 80,
                    "time": 830.3895833333514,
                    "velocity": 0.889763779527559,
                    "duration": 0.05208333333337123
                },
                {
                    "name": "E5",
                    "midi": 76,
                    "time": 830.3895833333514,
                    "velocity": 0.8346456692913385,
                    "duration": 0.04583333333334849
                },
                {
                    "name": "G#3",
                    "midi": 56,
                    "time": 830.3937500000181,
                    "velocity": 0.7874015748031497,
                    "duration": 0.02291666666656056
                },
                {
                    "name": "E3",
                    "midi": 52,
                    "time": 830.4125000000181,
                    "velocity": 0.33858267716535434,
                    "duration": 0.03333333333330302
                },
                {
                    "name": "A#1",
                    "midi": 34,
                    "time": 830.6229166666848,
                    "velocity": 0.9448818897637795,
                    "duration": 0.03125
                },
                {
                    "name": "A#2",
                    "midi": 46,
                    "time": 830.6250000000181,
                    "velocity": 0.9763779527559056,
                    "duration": 0.039583333333325754
                },
                {
                    "name": "D4",
                    "midi": 62,
                    "time": 830.8458333333514,
                    "velocity": 0.952755905511811,
                    "duration": 0.03541666666649235
                },
                {
                    "name": "G#3",
                    "midi": 56,
                    "time": 830.8479166666847,
                    "velocity": 0.9133858267716536,
                    "duration": 0.037499999999795364
                },
                {
                    "name": "C#6",
                    "midi": 85,
                    "time": 830.8479166666847,
                    "velocity": 0.9291338582677166,
                    "duration": 0.04583333333312112
                },
                {
                    "name": "D5",
                    "midi": 74,
                    "time": 830.8479166666847,
                    "velocity": 0.9606299212598425,
                    "duration": 0.03541666666649235
                },
                {
                    "name": "C#4",
                    "midi": 61,
                    "time": 830.8479166666847,
                    "velocity": 0.937007874015748,
                    "duration": 0.031249999999886313
                },
                {
                    "name": "G#5",
                    "midi": 80,
                    "time": 830.8479166666847,
                    "velocity": 0.937007874015748,
                    "duration": 0.03541666666649235
                },
                {
                    "name": "D6",
                    "midi": 86,
                    "time": 830.850000000018,
                    "velocity": 0.8582677165354331,
                    "duration": 0.018749999999954525
                },
                {
                    "name": "G#5",
                    "midi": 80,
                    "time": 831.1916666666845,
                    "velocity": 0.9133858267716536,
                    "duration": 0.03541666666671972
                },
                {
                    "name": "D5",
                    "midi": 74,
                    "time": 831.1937500000178,
                    "velocity": 0.9212598425196851,
                    "duration": 0.02083333333337123
                },
                {
                    "name": "C#6",
                    "midi": 85,
                    "time": 831.1937500000178,
                    "velocity": 0.8976377952755905,
                    "duration": 0.047916666666765195
                },
                {
                    "name": "D6",
                    "midi": 86,
                    "time": 831.1979166666845,
                    "velocity": 0.7401574803149606,
                    "duration": 0.022916666666674246
                },
                {
                    "name": "A#1",
                    "midi": 34,
                    "time": 831.3041666666844,
                    "velocity": 0.9448818897637795,
                    "duration": 0.033333333333416704
                },
                {
                    "name": "A#2",
                    "midi": 46,
                    "time": 831.3083333333511,
                    "velocity": 0.968503937007874,
                    "duration": 0.03541666666671972
                },
                {
                    "name": "D5",
                    "midi": 74,
                    "time": 831.4000000000178,
                    "velocity": 0.7165354330708661,
                    "duration": 0.10416666666662877
                },
                {
                    "name": "C5",
                    "midi": 72,
                    "time": 831.4000000000178,
                    "velocity": 0.6929133858267716,
                    "duration": 0.08958333333328028
                },
                {
                    "name": "G#5",
                    "midi": 80,
                    "time": 831.4583333333511,
                    "velocity": 0.6377952755905512,
                    "duration": 0.08333333333325754
                },
                {
                    "name": "C6",
                    "midi": 84,
                    "time": 831.4854166666844,
                    "velocity": 0.7795275590551181,
                    "duration": 0.2770833333332803
                },
                {
                    "name": "D6",
                    "midi": 86,
                    "time": 831.5041666666845,
                    "velocity": 0.84251968503937,
                    "duration": 0.25416666666649235
                },
                {
                    "name": "D4",
                    "midi": 62,
                    "time": 831.5062500000178,
                    "velocity": 0.9212598425196851,
                    "duration": 0.11249999999984084
                },
                {
                    "name": "C4",
                    "midi": 60,
                    "time": 831.5062500000178,
                    "velocity": 0.8582677165354331,
                    "duration": 0.045833333333234805
                },
                {
                    "name": "G#3",
                    "midi": 56,
                    "time": 831.5145833333511,
                    "velocity": 0.7874015748031497,
                    "duration": 0.05416666666656056
                },
                {
                    "name": "G#3",
                    "midi": 56,
                    "time": 831.7250000000176,
                    "velocity": 0.8346456692913385,
                    "duration": 0.024999999999977263
                },
                {
                    "name": "E3",
                    "midi": 52,
                    "time": 831.7250000000176,
                    "velocity": 0.7874015748031497,
                    "duration": 0.043750000000045475
                },
                {
                    "name": "G#5",
                    "midi": 80,
                    "time": 831.7291666666844,
                    "velocity": 0.905511811023622,
                    "duration": 0.05624999999997726
                },
                {
                    "name": "E5",
                    "midi": 76,
                    "time": 831.7312500000177,
                    "velocity": 0.84251968503937,
                    "duration": 0.04583333333334849
                },
                {
                    "name": "A#1",
                    "midi": 34,
                    "time": 831.9479166666843,
                    "velocity": 0.7322834645669292,
                    "duration": 0.04166666666674246
                },
                {
                    "name": "A#2",
                    "midi": 46,
                    "time": 831.9541666666843,
                    "velocity": 0.984251968503937,
                    "duration": 0.03958333333343944
                },
                {
                    "name": "D5",
                    "midi": 74,
                    "time": 832.0479166666844,
                    "velocity": 0.7244094488188977,
                    "duration": 0.15416666666669698
                },
                {
                    "name": "G#5",
                    "midi": 80,
                    "time": 832.1395833333511,
                    "velocity": 0.7637795275590551,
                    "duration": 0.09583333333330302
                },
                {
                    "name": "C#6",
                    "midi": 85,
                    "time": 832.1729166666844,
                    "velocity": 0.8110236220472441,
                    "duration": 0.07708333333334849
                },
                {
                    "name": "D4",
                    "midi": 62,
                    "time": 832.1812500000177,
                    "velocity": 0.7952755905511811,
                    "duration": 0.05208333333337123
                },
                {
                    "name": "C#4",
                    "midi": 61,
                    "time": 832.1875000000177,
                    "velocity": 0.7952755905511811,
                    "duration": 0.03541666666671972
                },
                {
                    "name": "G#3",
                    "midi": 56,
                    "time": 832.1916666666845,
                    "velocity": 0.7874015748031497,
                    "duration": 0.05833333333328028
                },
                {
                    "name": "D6",
                    "midi": 86,
                    "time": 832.1916666666845,
                    "velocity": 0.7874015748031497,
                    "duration": 0.08749999999997726
                },
                {
                    "name": "C6",
                    "midi": 84,
                    "time": 832.3979166666844,
                    "velocity": 0.84251968503937,
                    "duration": 0.04374999999993179
                },
                {
                    "name": "D4",
                    "midi": 62,
                    "time": 832.4020833333511,
                    "velocity": 0.8346456692913385,
                    "duration": 0.02708333333328028
                },
                {
                    "name": "C4",
                    "midi": 60,
                    "time": 832.4041666666844,
                    "velocity": 0.8188976377952756,
                    "duration": 0.018749999999954525
                },
                {
                    "name": "E6",
                    "midi": 88,
                    "time": 832.4041666666844,
                    "velocity": 0.7874015748031497,
                    "duration": 0.03333333333330302
                },
                {
                    "name": "E5",
                    "midi": 76,
                    "time": 832.4041666666844,
                    "velocity": 0.8031496062992126,
                    "duration": 0.035416666666606034
                },
                {
                    "name": "G#3",
                    "midi": 56,
                    "time": 832.4041666666844,
                    "velocity": 0.8818897637795275,
                    "duration": 0.04166666666662877
                },
                {
                    "name": "A#2",
                    "midi": 46,
                    "time": 832.627083333351,
                    "velocity": 0.9133858267716536,
                    "duration": 0.04166666666662877
                },
                {
                    "name": "A#1",
                    "midi": 34,
                    "time": 832.627083333351,
                    "velocity": 0.937007874015748,
                    "duration": 0.022916666666674246
                },
                {
                    "name": "D5",
                    "midi": 74,
                    "time": 832.714583333351,
                    "velocity": 0.7559055118110236,
                    "duration": 0.0958333333334167
                },
                {
                    "name": "G#5",
                    "midi": 80,
                    "time": 832.7895833333511,
                    "velocity": 0.7795275590551181,
                    "duration": 0.0791666666667652
                },
                {
                    "name": "C#6",
                    "midi": 85,
                    "time": 832.8145833333512,
                    "velocity": 0.8346456692913385,
                    "duration": 0.07291666666674246
                },
                {
                    "name": "D6",
                    "midi": 86,
                    "time": 832.8291666666845,
                    "velocity": 0.7952755905511811,
                    "duration": 0.08750000000009095
                },
                {
                    "name": "C#4",
                    "midi": 61,
                    "time": 832.8375000000178,
                    "velocity": 0.889763779527559,
                    "duration": 0.039583333333325754
                },
                {
                    "name": "D4",
                    "midi": 62,
                    "time": 832.8395833333511,
                    "velocity": 0.7244094488188977,
                    "duration": 0.043750000000045475
                },
                {
                    "name": "G#3",
                    "midi": 56,
                    "time": 832.8437500000178,
                    "velocity": 0.84251968503937,
                    "duration": 0.058333333333393966
                },
                {
                    "name": "C4",
                    "midi": 60,
                    "time": 832.8500000000179,
                    "velocity": 0.6299212598425197,
                    "duration": 0.02708333333328028
                },
                {
                    "name": "C6",
                    "midi": 84,
                    "time": 833.0375000000179,
                    "velocity": 0.8740157480314961,
                    "duration": 0.04791666666687888
                },
                {
                    "name": "E5",
                    "midi": 76,
                    "time": 833.0416666666846,
                    "velocity": 0.8818897637795275,
                    "duration": 0.04375000000015916
                },
                {
                    "name": "E6",
                    "midi": 88,
                    "time": 833.0458333333513,
                    "velocity": 0.8346456692913385,
                    "duration": 0.033333333333416704
                },
                {
                    "name": "G#3",
                    "midi": 56,
                    "time": 833.0479166666846,
                    "velocity": 0.8976377952755905,
                    "duration": 0.0500000000001819
                },
                {
                    "name": "E4",
                    "midi": 64,
                    "time": 833.0479166666846,
                    "velocity": 0.8818897637795275,
                    "duration": 0.03541666666683341
                },
                {
                    "name": "C4",
                    "midi": 60,
                    "time": 833.0479166666846,
                    "velocity": 0.8818897637795275,
                    "duration": 0.02500000000009095
                },
                {
                    "name": "A#2",
                    "midi": 46,
                    "time": 833.2604166666848,
                    "velocity": 0.952755905511811,
                    "duration": 0.04374999999993179
                },
                {
                    "name": "A#1",
                    "midi": 34,
                    "time": 833.2625000000181,
                    "velocity": 0.952755905511811,
                    "duration": 0.03333333333330302
                },
                {
                    "name": "D5",
                    "midi": 74,
                    "time": 833.3479166666848,
                    "velocity": 0.7322834645669292,
                    "duration": 0.08333333333337123
                },
                {
                    "name": "G#5",
                    "midi": 80,
                    "time": 833.4229166666848,
                    "velocity": 0.8188976377952756,
                    "duration": 0.07500000000004547
                },
                {
                    "name": "C#6",
                    "midi": 85,
                    "time": 833.4437500000182,
                    "velocity": 0.8582677165354331,
                    "duration": 0.08124999999995453
                },
                {
                    "name": "D6",
                    "midi": 86,
                    "time": 833.4645833333516,
                    "velocity": 0.6850393700787402,
                    "duration": 0.05833333333328028
                },
                {
                    "name": "D4",
                    "midi": 62,
                    "time": 833.4666666666849,
                    "velocity": 0.9448818897637795,
                    "duration": 0.04166666666662877
                },
                {
                    "name": "C#4",
                    "midi": 61,
                    "time": 833.4708333333516,
                    "velocity": 0.889763779527559,
                    "duration": 0.035416666666606034
                },
                {
                    "name": "G#3",
                    "midi": 56,
                    "time": 833.4729166666849,
                    "velocity": 0.8818897637795275,
                    "duration": 0.04791666666665151
                },
                {
                    "name": "E4",
                    "midi": 64,
                    "time": 833.6750000000181,
                    "velocity": 0.9133858267716536,
                    "duration": 0.03750000000002274
                },
                {
                    "name": "C6",
                    "midi": 84,
                    "time": 833.6770833333514,
                    "velocity": 0.8818897637795275,
                    "duration": 0.03958333333343944
                },
                {
                    "name": "G#3",
                    "midi": 56,
                    "time": 833.6770833333514,
                    "velocity": 0.905511811023622,
                    "duration": 0.047916666666765195
                },
                {
                    "name": "C4",
                    "midi": 60,
                    "time": 833.6770833333514,
                    "velocity": 0.9133858267716536,
                    "duration": 0.027083333333393966
                },
                {
                    "name": "E5",
                    "midi": 76,
                    "time": 833.6791666666848,
                    "velocity": 0.9291338582677166,
                    "duration": 0.037500000000136424
                },
                {
                    "name": "E6",
                    "midi": 88,
                    "time": 833.6833333333515,
                    "velocity": 0.8031496062992126,
                    "duration": 0.02500000000009095
                },
                {
                    "name": "A#2",
                    "midi": 46,
                    "time": 833.8979166666849,
                    "velocity": 0.9763779527559056,
                    "duration": 0.039583333333325754
                },
                {
                    "name": "A#1",
                    "midi": 34,
                    "time": 833.9000000000182,
                    "velocity": 0.968503937007874,
                    "duration": 0.012500000000045475
                },
                {
                    "name": "D5",
                    "midi": 74,
                    "time": 833.9833333333515,
                    "velocity": 0.7401574803149606,
                    "duration": 0.08749999999997726
                },
                {
                    "name": "G#5",
                    "midi": 80,
                    "time": 834.0541666666849,
                    "velocity": 0.84251968503937,
                    "duration": 0.07708333333334849
                },
                {
                    "name": "C#6",
                    "midi": 85,
                    "time": 834.0770833333515,
                    "velocity": 0.84251968503937,
                    "duration": 0.07291666666662877
                },
                {
                    "name": "D4",
                    "midi": 62,
                    "time": 834.0895833333516,
                    "velocity": 0.952755905511811,
                    "duration": 0.04374999999993179
                },
                {
                    "name": "C#4",
                    "midi": 61,
                    "time": 834.0937500000183,
                    "velocity": 0.9133858267716536,
                    "duration": 0.03749999999990905
                },
                {
                    "name": "G#3",
                    "midi": 56,
                    "time": 834.0958333333516,
                    "velocity": 0.905511811023622,
                    "duration": 0.045833333333234805
                },
                {
                    "name": "D6",
                    "midi": 86,
                    "time": 834.0979166666849,
                    "velocity": 0.7401574803149606,
                    "duration": 0.09374999999988631
                },
                {
                    "name": "G#3",
                    "midi": 56,
                    "time": 834.2875000000181,
                    "velocity": 0.84251968503937,
                    "duration": 0.047916666666765195
                },
                {
                    "name": "E4",
                    "midi": 64,
                    "time": 834.2875000000181,
                    "velocity": 0.7874015748031497,
                    "duration": 0.03125000000011369
                },
                {
                    "name": "C4",
                    "midi": 60,
                    "time": 834.2875000000181,
                    "velocity": 0.8031496062992126,
                    "duration": 0.022916666666787933
                },
                {
                    "name": "C6",
                    "midi": 84,
                    "time": 834.2895833333514,
                    "velocity": 0.8582677165354331,
                    "duration": 0.03958333333343944
                },
                {
                    "name": "E5",
                    "midi": 76,
                    "time": 834.2937500000181,
                    "velocity": 0.8031496062992126,
                    "duration": 0.022916666666787933
                },
                {
                    "name": "E6",
                    "midi": 88,
                    "time": 834.2958333333514,
                    "velocity": 0.7637795275590551,
                    "duration": 0.047916666666765195
                },
                {
                    "name": "A#2",
                    "midi": 46,
                    "time": 834.5020833333515,
                    "velocity": 0.905511811023622,
                    "duration": 0.049999999999954525
                },
                {
                    "name": "C#6",
                    "midi": 85,
                    "time": 834.7145833333515,
                    "velocity": 0.8188976377952756,
                    "duration": 0.12499999999988631
                },
                {
                    "name": "G#5",
                    "midi": 80,
                    "time": 834.7166666666848,
                    "velocity": 0.7874015748031497,
                    "duration": 0.09583333333330302
                },
                {
                    "name": "D4",
                    "midi": 62,
                    "time": 834.7166666666848,
                    "velocity": 0.84251968503937,
                    "duration": 0.043750000000045475
                },
                {
                    "name": "C#4",
                    "midi": 61,
                    "time": 834.7187500000181,
                    "velocity": 0.8188976377952756,
                    "duration": 0.03750000000002274
                },
                {
                    "name": "G#3",
                    "midi": 56,
                    "time": 834.7187500000181,
                    "velocity": 0.8346456692913385,
                    "duration": 0.05208333333337123
                },
                {
                    "name": "D6",
                    "midi": 86,
                    "time": 834.7208333333514,
                    "velocity": 0.7401574803149606,
                    "duration": 0.15208333333328028
                },
                {
                    "name": "E6",
                    "midi": 88,
                    "time": 834.8020833333514,
                    "velocity": 0.8031496062992126,
                    "duration": 0.14791666666667425
                },
                {
                    "name": "E4",
                    "midi": 64,
                    "time": 834.9208333333513,
                    "velocity": 0.8818897637795275,
                    "duration": 0.04791666666687888
                },
                {
                    "name": "G#3",
                    "midi": 56,
                    "time": 834.9270833333513,
                    "velocity": 0.8818897637795275,
                    "duration": 0.06666666666683341
                },
                {
                    "name": "C4",
                    "midi": 60,
                    "time": 834.931250000018,
                    "velocity": 0.8346456692913385,
                    "duration": 0.03125000000011369
                },
                {
                    "name": "C#6",
                    "midi": 85,
                    "time": 834.9333333333514,
                    "velocity": 0.7716535433070866,
                    "duration": 0.09791666666683341
                },
                {
                    "name": "G#5",
                    "midi": 80,
                    "time": 834.9333333333514,
                    "velocity": 0.7795275590551181,
                    "duration": 0.06666666666683341
                },
                {
                    "name": "D6",
                    "midi": 86,
                    "time": 834.9375000000181,
                    "velocity": 0.7795275590551181,
                    "duration": 0.12291666666681067
                },
                {
                    "name": "E6",
                    "midi": 88,
                    "time": 835.0187500000181,
                    "velocity": 0.7401574803149606,
                    "duration": 0.11875000000009095
                },
                {
                    "name": "A#2",
                    "midi": 46,
                    "time": 835.1041666666848,
                    "velocity": 0.905511811023622,
                    "duration": 0.037500000000136424
                },
                {
                    "name": "C#6",
                    "midi": 85,
                    "time": 835.1166666666849,
                    "velocity": 0.8503937007874016,
                    "duration": 0.11041666666665151
                },
                {
                    "name": "G#5",
                    "midi": 80,
                    "time": 835.1208333333516,
                    "velocity": 0.8267716535433071,
                    "duration": 0.0625
                },
                {
                    "name": "D6",
                    "midi": 86,
                    "time": 835.1229166666849,
                    "velocity": 0.7244094488188977,
                    "duration": 0.1229166666665833
                },
                {
                    "name": "E6",
                    "midi": 88,
                    "time": 835.2000000000182,
                    "velocity": 0.7322834645669292,
                    "duration": 0.12499999999988631
                },
                {
                    "name": "D4",
                    "midi": 62,
                    "time": 835.2979166666848,
                    "velocity": 0.84251968503937,
                    "duration": 0.04374999999993179
                },
                {
                    "name": "G#3",
                    "midi": 56,
                    "time": 835.3000000000181,
                    "velocity": 0.8582677165354331,
                    "duration": 0.05833333333328028
                },
                {
                    "name": "C#6",
                    "midi": 85,
                    "time": 835.3000000000181,
                    "velocity": 0.8188976377952756,
                    "duration": 0.1083333333332348
                },
                {
                    "name": "D6",
                    "midi": 86,
                    "time": 835.3000000000181,
                    "velocity": 0.7244094488188977,
                    "duration": 0.13333333333321207
                },
                {
                    "name": "C#4",
                    "midi": 61,
                    "time": 835.3020833333514,
                    "velocity": 0.84251968503937,
                    "duration": 0.04166666666662877
                },
                {
                    "name": "G#5",
                    "midi": 80,
                    "time": 835.3062500000182,
                    "velocity": 0.8110236220472441,
                    "duration": 0.05833333333328028
                },
                {
                    "name": "E6",
                    "midi": 88,
                    "time": 835.3812500000181,
                    "velocity": 0.7322834645669292,
                    "duration": 0.12708333333330302
                },
                {
                    "name": "C#6",
                    "midi": 85,
                    "time": 835.487500000018,
                    "velocity": 0.7952755905511811,
                    "duration": 0.10833333333334849
                },
                {
                    "name": "E4",
                    "midi": 64,
                    "time": 835.4916666666848,
                    "velocity": 0.8582677165354331,
                    "duration": 0.03750000000002274
                },
                {
                    "name": "D6",
                    "midi": 86,
                    "time": 835.4916666666848,
                    "velocity": 0.7244094488188977,
                    "duration": 0.1229166666665833
                },
                {
                    "name": "C4",
                    "midi": 60,
                    "time": 835.493750000018,
                    "velocity": 0.8740157480314961,
                    "duration": 0.03125
                },
                {
                    "name": "G#3",
                    "midi": 56,
                    "time": 835.493750000018,
                    "velocity": 0.8346456692913385,
                    "duration": 0.05208333333337123
                },
                {
                    "name": "G#5",
                    "midi": 80,
                    "time": 835.493750000018,
                    "velocity": 0.8346456692913385,
                    "duration": 0.054166666666674246
                },
                {
                    "name": "E6",
                    "midi": 88,
                    "time": 835.5687500000181,
                    "velocity": 0.7716535433070866,
                    "duration": 0.11874999999997726
                },
                {
                    "name": "A#2",
                    "midi": 46,
                    "time": 835.656250000018,
                    "velocity": 0.9291338582677166,
                    "duration": 0.037500000000136424
                },
                {
                    "name": "C#6",
                    "midi": 85,
                    "time": 835.668750000018,
                    "velocity": 0.8818897637795275,
                    "duration": 0.10000000000002274
                },
                {
                    "name": "D6",
                    "midi": 86,
                    "time": 835.6708333333513,
                    "velocity": 0.7637795275590551,
                    "duration": 0.11666666666667425
                },
                {
                    "name": "G#5",
                    "midi": 80,
                    "time": 835.675000000018,
                    "velocity": 0.889763779527559,
                    "duration": 0.06041666666669698
                },
                {
                    "name": "E6",
                    "midi": 88,
                    "time": 835.743750000018,
                    "velocity": 0.7322834645669292,
                    "duration": 0.11249999999984084
                },
                {
                    "name": "C#6",
                    "midi": 85,
                    "time": 835.8375000000179,
                    "velocity": 0.8582677165354331,
                    "duration": 0.11041666666665151
                },
                {
                    "name": "D6",
                    "midi": 86,
                    "time": 835.8395833333512,
                    "velocity": 0.7165354330708661,
                    "duration": 0.12916666666671972
                },
                {
                    "name": "D4",
                    "midi": 62,
                    "time": 835.8416666666845,
                    "velocity": 0.8818897637795275,
                    "duration": 0.039583333333325754
                },
                {
                    "name": "G#3",
                    "midi": 56,
                    "time": 835.8416666666845,
                    "velocity": 0.8976377952755905,
                    "duration": 0.049999999999954525
                },
                {
                    "name": "G#5",
                    "midi": 80,
                    "time": 835.8458333333513,
                    "velocity": 0.84251968503937,
                    "duration": 0.060416666666583296
                },
                {
                    "name": "C#4",
                    "midi": 61,
                    "time": 835.8458333333513,
                    "velocity": 0.8188976377952756,
                    "duration": 0.024999999999977263
                },
                {
                    "name": "E6",
                    "midi": 88,
                    "time": 835.9187500000179,
                    "velocity": 0.7637795275590551,
                    "duration": 0.12083333333339397
                },
                {
                    "name": "C#6",
                    "midi": 85,
                    "time": 836.0208333333513,
                    "velocity": 0.8110236220472441,
                    "duration": 0.11666666666656056
                },
                {
                    "name": "E4",
                    "midi": 64,
                    "time": 836.025000000018,
                    "velocity": 0.8740157480314961,
                    "duration": 0.03958333333321207
                },
                {
                    "name": "D6",
                    "midi": 86,
                    "time": 836.025000000018,
                    "velocity": 0.7007874015748031,
                    "duration": 0.12708333333318933
                },
                {
                    "name": "C4",
                    "midi": 60,
                    "time": 836.0270833333514,
                    "velocity": 0.8818897637795275,
                    "duration": 0.03958333333321207
                },
                {
                    "name": "G#5",
                    "midi": 80,
                    "time": 836.0291666666847,
                    "velocity": 0.8346456692913385,
                    "duration": 0.07083333333321207
                },
                {
                    "name": "G#3",
                    "midi": 56,
                    "time": 836.0291666666847,
                    "velocity": 0.8503937007874016,
                    "duration": 0.056249999999863576
                },
                {
                    "name": "E6",
                    "midi": 88,
                    "time": 836.1083333333512,
                    "velocity": 0.7795275590551181,
                    "duration": 0.11458333333325754
                },
                {
                    "name": "A#2",
                    "midi": 46,
                    "time": 836.1937500000179,
                    "velocity": 0.9448818897637795,
                    "duration": 0.03749999999990905
                },
                {
                    "name": "C#6",
                    "midi": 85,
                    "time": 836.2041666666845,
                    "velocity": 0.8976377952755905,
                    "duration": 0.11249999999995453
                },
                {
                    "name": "D6",
                    "midi": 86,
                    "time": 836.2062500000178,
                    "velocity": 0.7244094488188977,
                    "duration": 0.125
                },
                {
                    "name": "G#5",
                    "midi": 80,
                    "time": 836.2083333333511,
                    "velocity": 0.889763779527559,
                    "duration": 0.06875000000002274
                },
                {
                    "name": "E6",
                    "midi": 88,
                    "time": 836.2875000000178,
                    "velocity": 0.7952755905511811,
                    "duration": 0.10416666666662877
                },
                {
                    "name": "D4",
                    "midi": 62,
                    "time": 836.3666666666845,
                    "velocity": 0.8976377952755905,
                    "duration": 0.03958333333321207
                },
                {
                    "name": "C#6",
                    "midi": 85,
                    "time": 836.3687500000178,
                    "velocity": 0.7952755905511811,
                    "duration": 0.10625000000004547
                },
                {
                    "name": "G#3",
                    "midi": 56,
                    "time": 836.3687500000178,
                    "velocity": 0.8818897637795275,
                    "duration": 0.049999999999954525
                },
                {
                    "name": "C#4",
                    "midi": 61,
                    "time": 836.3708333333511,
                    "velocity": 0.8582677165354331,
                    "duration": 0.035416666666606034
                },
                {
                    "name": "D6",
                    "midi": 86,
                    "time": 836.3729166666844,
                    "velocity": 0.7795275590551181,
                    "duration": 0.1270833333334167
                },
                {
                    "name": "G#5",
                    "midi": 80,
                    "time": 836.3750000000177,
                    "velocity": 0.8503937007874016,
                    "duration": 0.058333333333393966
                },
                {
                    "name": "E6",
                    "midi": 88,
                    "time": 836.4458333333512,
                    "velocity": 0.6771653543307087,
                    "duration": 0.12083333333328028
                },
                {
                    "name": "E4",
                    "midi": 64,
                    "time": 836.5416666666845,
                    "velocity": 0.8503937007874016,
                    "duration": 0.03750000000002274
                },
                {
                    "name": "G#3",
                    "midi": 56,
                    "time": 836.5416666666845,
                    "velocity": 0.8818897637795275,
                    "duration": 0.054166666666674246
                },
                {
                    "name": "C4",
                    "midi": 60,
                    "time": 836.5437500000178,
                    "velocity": 0.8582677165354331,
                    "duration": 0.027083333333393966
                },
                {
                    "name": "C#6",
                    "midi": 85,
                    "time": 836.5437500000178,
                    "velocity": 0.8661417322834646,
                    "duration": 0.10625000000015916
                },
                {
                    "name": "D6",
                    "midi": 86,
                    "time": 836.5437500000178,
                    "velocity": 0.5826771653543307,
                    "duration": 0.12291666666681067
                },
                {
                    "name": "G#5",
                    "midi": 80,
                    "time": 836.5479166666845,
                    "velocity": 0.84251968503937,
                    "duration": 0.06041666666669698
                },
                {
                    "name": "E6",
                    "midi": 88,
                    "time": 836.6291666666846,
                    "velocity": 0.7165354330708661,
                    "duration": 0.10416666666685614
                },
                {
                    "name": "A#2",
                    "midi": 46,
                    "time": 836.7020833333513,
                    "velocity": 0.968503937007874,
                    "duration": 0.047916666666765195
                },
                {
                    "name": "C#6",
                    "midi": 85,
                    "time": 836.712500000018,
                    "velocity": 0.889763779527559,
                    "duration": 0.09999999999990905
                },
                {
                    "name": "D6",
                    "midi": 86,
                    "time": 836.712500000018,
                    "velocity": 0.6850393700787402,
                    "duration": 0.11249999999995453
                },
                {
                    "name": "G#5",
                    "midi": 80,
                    "time": 836.7166666666848,
                    "velocity": 0.889763779527559,
                    "duration": 0.060416666666583296
                },
                {
                    "name": "E6",
                    "midi": 88,
                    "time": 836.7854166666847,
                    "velocity": 0.7165354330708661,
                    "duration": 0.10416666666662877
                },
                {
                    "name": "C#6",
                    "midi": 85,
                    "time": 836.8645833333513,
                    "velocity": 0.8110236220472441,
                    "duration": 0.10624999999993179
                },
                {
                    "name": "D6",
                    "midi": 86,
                    "time": 836.868750000018,
                    "velocity": 0.7244094488188977,
                    "duration": 0.28749999999990905
                },
                {
                    "name": "G#5",
                    "midi": 80,
                    "time": 836.8729166666848,
                    "velocity": 0.8582677165354331,
                    "duration": 0.056249999999863576
                },
                {
                    "name": "D4",
                    "midi": 62,
                    "time": 836.8750000000181,
                    "velocity": 0.889763779527559,
                    "duration": 0.03749999999990905
                },
                {
                    "name": "G#3",
                    "midi": 56,
                    "time": 836.8770833333514,
                    "velocity": 0.8976377952755905,
                    "duration": 0.049999999999954525
                },
                {
                    "name": "C#4",
                    "midi": 61,
                    "time": 836.8791666666847,
                    "velocity": 0.8661417322834646,
                    "duration": 0.03333333333330302
                },
                {
                    "name": "E6",
                    "midi": 88,
                    "time": 836.943750000018,
                    "velocity": 0.6850393700787402,
                    "duration": 0.11666666666656056
                },
                {
                    "name": "C#6",
                    "midi": 85,
                    "time": 837.0333333333513,
                    "velocity": 0.8267716535433071,
                    "duration": 0.11041666666665151
                },
                {
                    "name": "E4",
                    "midi": 64,
                    "time": 837.0333333333513,
                    "velocity": 0.8818897637795275,
                    "duration": 0.039583333333325754
                },
                {
                    "name": "C4",
                    "midi": 60,
                    "time": 837.0354166666846,
                    "velocity": 0.8976377952755905,
                    "duration": 0.039583333333325754
                },
                {
                    "name": "G#3",
                    "midi": 56,
                    "time": 837.0354166666846,
                    "velocity": 0.8976377952755905,
                    "duration": 0.054166666666674246
                },
                {
                    "name": "G#5",
                    "midi": 80,
                    "time": 837.0416666666846,
                    "velocity": 0.84251968503937,
                    "duration": 0.05833333333328028
                },
                {
                    "name": "E6",
                    "midi": 88,
                    "time": 837.1145833333512,
                    "velocity": 0.6299212598425197,
                    "duration": 0.11041666666687888
                },
                {
                    "name": "A#2",
                    "midi": 46,
                    "time": 837.187500000018,
                    "velocity": 0.9763779527559056,
                    "duration": 0.05416666666678793
                },
                {
                    "name": "C#6",
                    "midi": 85,
                    "time": 837.1958333333513,
                    "velocity": 0.7637795275590551,
                    "duration": 0.10833333333334849
                },
                {
                    "name": "G#5",
                    "midi": 80,
                    "time": 837.200000000018,
                    "velocity": 0.8661417322834646,
                    "duration": 0.06875000000002274
                },
                {
                    "name": "D6",
                    "midi": 86,
                    "time": 837.2041666666847,
                    "velocity": 0.7401574803149606,
                    "duration": 0.2770833333331666
                },
                {
                    "name": "E6",
                    "midi": 88,
                    "time": 837.2791666666847,
                    "velocity": 0.7244094488188977,
                    "duration": 0.09791666666660603
                },
                {
                    "name": "C#6",
                    "midi": 85,
                    "time": 837.350000000018,
                    "velocity": 0.7244094488188977,
                    "duration": 0.11041666666653782
                },
                {
                    "name": "D4",
                    "midi": 62,
                    "time": 837.356250000018,
                    "velocity": 0.9133858267716536,
                    "duration": 0.03749999999990905
                },
                {
                    "name": "G#5",
                    "midi": 80,
                    "time": 837.356250000018,
                    "velocity": 0.8503937007874016,
                    "duration": 0.06249999999988631
                },
                {
                    "name": "G#3",
                    "midi": 56,
                    "time": 837.3583333333513,
                    "velocity": 0.8818897637795275,
                    "duration": 0.049999999999954525
                },
                {
                    "name": "C#4",
                    "midi": 61,
                    "time": 837.3604166666846,
                    "velocity": 0.8582677165354331,
                    "duration": 0.03750000000002274
                },
                {
                    "name": "E6",
                    "midi": 88,
                    "time": 837.4333333333512,
                    "velocity": 0.7165354330708661,
                    "duration": 0.11250000000006821
                },
                {
                    "name": "C#6",
                    "midi": 85,
                    "time": 837.5104166666846,
                    "velocity": 0.7244094488188977,
                    "duration": 0.11666666666656056
                },
                {
                    "name": "E4",
                    "midi": 64,
                    "time": 837.5104166666846,
                    "velocity": 0.889763779527559,
                    "duration": 0.03750000000002274
                },
                {
                    "name": "C4",
                    "midi": 60,
                    "time": 837.5104166666846,
                    "velocity": 0.8976377952755905,
                    "duration": 0.03750000000002274
                },
                {
                    "name": "D6",
                    "midi": 86,
                    "time": 837.5104166666846,
                    "velocity": 0.2283464566929134,
                    "duration": 0.5812500000000682
                },
                {
                    "name": "G#3",
                    "midi": 56,
                    "time": 837.5125000000179,
                    "velocity": 0.889763779527559,
                    "duration": 0.054166666666674246
                },
                {
                    "name": "G#5",
                    "midi": 80,
                    "time": 837.5166666666846,
                    "velocity": 0.84251968503937,
                    "duration": 0.060416666666583296
                },
                {
                    "name": "E6",
                    "midi": 88,
                    "time": 837.6020833333512,
                    "velocity": 0.6692913385826772,
                    "duration": 0.10208333333332575
                },
                {
                    "name": "A#2",
                    "midi": 46,
                    "time": 837.6583333333512,
                    "velocity": 0.9763779527559056,
                    "duration": 0.05208333333337123
                },
                {
                    "name": "C#6",
                    "midi": 85,
                    "time": 837.6666666666845,
                    "velocity": 0.6692913385826772,
                    "duration": 0.11666666666678793
                },
                {
                    "name": "G#5",
                    "midi": 80,
                    "time": 837.6791666666845,
                    "velocity": 0.8976377952755905,
                    "duration": 0.0625
                },
                {
                    "name": "E6",
                    "midi": 88,
                    "time": 837.7625000000179,
                    "velocity": 0.7716535433070866,
                    "duration": 0.08958333333328028
                },
                {
                    "name": "C#6",
                    "midi": 85,
                    "time": 837.8166666666846,
                    "velocity": 0.7952755905511811,
                    "duration": 0.10416666666674246
                },
                {
                    "name": "D4",
                    "midi": 62,
                    "time": 837.8229166666846,
                    "velocity": 0.9212598425196851,
                    "duration": 0.03749999999990905
                },
                {
                    "name": "G#3",
                    "midi": 56,
                    "time": 837.8250000000179,
                    "velocity": 0.905511811023622,
                    "duration": 0.05208333333337123
                },
                {
                    "name": "C#4",
                    "midi": 61,
                    "time": 837.8250000000179,
                    "velocity": 0.8582677165354331,
                    "duration": 0.039583333333325754
                },
                {
                    "name": "G#5",
                    "midi": 80,
                    "time": 837.8270833333512,
                    "velocity": 0.8661417322834646,
                    "duration": 0.05208333333337123
                },
                {
                    "name": "E6",
                    "midi": 88,
                    "time": 837.8916666666846,
                    "velocity": 0.6614173228346457,
                    "duration": 0.11458333333325754
                },
                {
                    "name": "C#6",
                    "midi": 85,
                    "time": 837.9708333333513,
                    "velocity": 0.7401574803149606,
                    "duration": 0.10833333333334849
                },
                {
                    "name": "C4",
                    "midi": 60,
                    "time": 837.9729166666846,
                    "velocity": 0.9133858267716536,
                    "duration": 0.03750000000002274
                },
                {
                    "name": "E4",
                    "midi": 64,
                    "time": 837.9729166666846,
                    "velocity": 0.8740157480314961,
                    "duration": 0.03750000000002274
                },
                {
                    "name": "G#3",
                    "midi": 56,
                    "time": 837.9729166666846,
                    "velocity": 0.8818897637795275,
                    "duration": 0.05624999999997726
                },
                {
                    "name": "G#5",
                    "midi": 80,
                    "time": 837.9833333333512,
                    "velocity": 0.8582677165354331,
                    "duration": 0.05208333333337123
                },
                {
                    "name": "E6",
                    "midi": 88,
                    "time": 838.0500000000179,
                    "velocity": 0.6377952755905512,
                    "duration": 0.1145833333335986
                },
                {
                    "name": "A#2",
                    "midi": 46,
                    "time": 838.112500000018,
                    "velocity": 0.952755905511811,
                    "duration": 0.056250000000204636
                },
                {
                    "name": "C#6",
                    "midi": 85,
                    "time": 838.1250000000181,
                    "velocity": 0.7401574803149606,
                    "duration": 0.10416666666685614
                },
                {
                    "name": "D6",
                    "midi": 86,
                    "time": 838.1291666666848,
                    "velocity": 0.5590551181102362,
                    "duration": 0.5729166666667425
                },
                {
                    "name": "G#5",
                    "midi": 80,
                    "time": 838.1354166666848,
                    "velocity": 0.8976377952755905,
                    "duration": 0.05625000000009095
                },
                {
                    "name": "E6",
                    "midi": 88,
                    "time": 838.2062500000183,
                    "velocity": 0.7795275590551181,
                    "duration": 0.10833333333334849
                },
                {
                    "name": "D4",
                    "midi": 62,
                    "time": 838.272916666685,
                    "velocity": 0.9212598425196851,
                    "duration": 0.039583333333325754
                },
                {
                    "name": "C#6",
                    "midi": 85,
                    "time": 838.272916666685,
                    "velocity": 0.7086614173228346,
                    "duration": 0.12083333333328028
                },
                {
                    "name": "C4",
                    "midi": 60,
                    "time": 838.2750000000183,
                    "velocity": 0.889763779527559,
                    "duration": 0.039583333333325754
                },
                {
                    "name": "G#3",
                    "midi": 56,
                    "time": 838.2750000000183,
                    "velocity": 0.8818897637795275,
                    "duration": 0.04583333333334849
                },
                {
                    "name": "G#5",
                    "midi": 80,
                    "time": 838.2812500000183,
                    "velocity": 0.8818897637795275,
                    "duration": 0.06875000000002274
                },
                {
                    "name": "E6",
                    "midi": 88,
                    "time": 838.366666666685,
                    "velocity": 0.6929133858267716,
                    "duration": 0.11458333333314386
                },
                {
                    "name": "E4",
                    "midi": 64,
                    "time": 838.4395833333516,
                    "velocity": 0.9448818897637795,
                    "duration": 0.03749999999990905
                },
                {
                    "name": "G#3",
                    "midi": 56,
                    "time": 838.4416666666849,
                    "velocity": 0.937007874015748,
                    "duration": 0.05208333333325754
                },
                {
                    "name": "C#4",
                    "midi": 61,
                    "time": 838.4416666666849,
                    "velocity": 0.937007874015748,
                    "duration": 0.03749999999990905
                },
                {
                    "name": "C#6",
                    "midi": 85,
                    "time": 838.4500000000182,
                    "velocity": 0.8188976377952756,
                    "duration": 0.10416666666651508
                },
                {
                    "name": "G#5",
                    "midi": 80,
                    "time": 838.4500000000182,
                    "velocity": 0.9133858267716536,
                    "duration": 0.07291666666651508
                },
                {
                    "name": "E6",
                    "midi": 88,
                    "time": 838.5041666666848,
                    "velocity": 0.5354330708661418,
                    "duration": 0.19375000000002274
                },
                {
                    "name": "F#2",
                    "midi": 42,
                    "time": 838.5916666666848,
                    "velocity": 0.9448818897637795,
                    "duration": 0.04583333333334849
                },
                {
                    "name": "F#5",
                    "midi": 78,
                    "time": 838.7145833333516,
                    "velocity": 0.9763779527559056,
                    "duration": 0.043750000000045475
                },
                {
                    "name": "A#5",
                    "midi": 82,
                    "time": 838.7187500000183,
                    "velocity": 0.8976377952755905,
                    "duration": 0.05000000000006821
                },
                {
                    "name": "D6",
                    "midi": 86,
                    "time": 838.7208333333516,
                    "velocity": 0.7165354330708661,
                    "duration": 0.05416666666678793
                },
                {
                    "name": "F#6",
                    "midi": 90,
                    "time": 838.7229166666849,
                    "velocity": 0.84251968503937,
                    "duration": 0.056250000000204636
                },
                {
                    "name": "A#3",
                    "midi": 58,
                    "time": 838.7270833333516,
                    "velocity": 0.968503937007874,
                    "duration": 0.03750000000002274
                },
                {
                    "name": "E4",
                    "midi": 64,
                    "time": 838.7291666666849,
                    "velocity": 0.952755905511811,
                    "duration": 0.033333333333416704
                },
                {
                    "name": "F#3",
                    "midi": 54,
                    "time": 838.7291666666849,
                    "velocity": 0.9448818897637795,
                    "duration": 0.03958333333343944
                },
                {
                    "name": "A#3",
                    "midi": 58,
                    "time": 839.2645833333518,
                    "velocity": 1,
                    "duration": 0.05208333333337123
                },
                {
                    "name": "A#1",
                    "midi": 34,
                    "time": 839.2729166666851,
                    "velocity": 1,
                    "duration": 0.0645833333334167
                },
                {
                    "name": "A#2",
                    "midi": 46,
                    "time": 839.2729166666851,
                    "velocity": 1,
                    "duration": 0.039583333333325754
                },
                {
                    "name": "G#3",
                    "midi": 56,
                    "time": 839.4375000000185,
                    "velocity": 1,
                    "duration": 0.06874999999990905
                },
                {
                    "name": "G#2",
                    "midi": 44,
                    "time": 839.4479166666852,
                    "velocity": 1,
                    "duration": 0.04166666666662877
                },
                {
                    "name": "G#1",
                    "midi": 32,
                    "time": 839.4500000000185,
                    "velocity": 1,
                    "duration": 0.04791666666665151
                },
                {
                    "name": "A#3",
                    "midi": 58,
                    "time": 839.5958333333518,
                    "velocity": 1,
                    "duration": 0.05833333333328028
                },
                {
                    "name": "A#2",
                    "midi": 46,
                    "time": 839.6041666666852,
                    "velocity": 1,
                    "duration": 0.035416666666606034
                },
                {
                    "name": "A#1",
                    "midi": 34,
                    "time": 839.6062500000185,
                    "velocity": 1,
                    "duration": 0.035416666666606034
                },
                {
                    "name": "A3",
                    "midi": 57,
                    "time": 839.7708333333518,
                    "velocity": 1,
                    "duration": 0.04166666666674246
                },
                {
                    "name": "A2",
                    "midi": 45,
                    "time": 839.7750000000185,
                    "velocity": 1,
                    "duration": 0.02500000000009095
                },
                {
                    "name": "A1",
                    "midi": 33,
                    "time": 839.7791666666852,
                    "velocity": 1,
                    "duration": 0.022916666666674246
                },
                {
                    "name": "D3",
                    "midi": 50,
                    "time": 840.0229166666852,
                    "velocity": 1,
                    "duration": 0.04583333333346218
                },
                {
                    "name": "D1",
                    "midi": 26,
                    "time": 840.0270833333519,
                    "velocity": 1,
                    "duration": 0.04583333333346218
                },
                {
                    "name": "D2",
                    "midi": 38,
                    "time": 840.0270833333519,
                    "velocity": 1,
                    "duration": 0.03750000000002274
                }
            ],
            "controlChanges": {
                "64": [
                    {
                        "number": 64,
                        "time": 463.20625,
                        "value": 0.49606299212598426
                    },
                    {
                        "number": 64,
                        "time": 463.2166666666667,
                        "value": 1
                    },
                    {
                        "number": 64,
                        "time": 464.74375000000015,
                        "value": 0.49606299212598426
                    },
                    {
                        "number": 64,
                        "time": 464.75416666666683,
                        "value": 0
                    },
                    {
                        "number": 64,
                        "time": 464.7875000000002,
                        "value": 0.49606299212598426
                    },
                    {
                        "number": 64,
                        "time": 464.82083333333355,
                        "value": 1
                    },
                    {
                        "number": 64,
                        "time": 466.31250000000045,
                        "value": 0.49606299212598426
                    },
                    {
                        "number": 64,
                        "time": 466.37500000000045,
                        "value": 1
                    },
                    {
                        "number": 64,
                        "time": 467.0395833333338,
                        "value": 0.49606299212598426
                    },
                    {
                        "number": 64,
                        "time": 467.0479166666671,
                        "value": 0
                    },
                    {
                        "number": 64,
                        "time": 467.1541666666671,
                        "value": 0.49606299212598426
                    },
                    {
                        "number": 64,
                        "time": 467.1625000000005,
                        "value": 1
                    },
                    {
                        "number": 64,
                        "time": 467.3333333333338,
                        "value": 0.49606299212598426
                    },
                    {
                        "number": 64,
                        "time": 467.3375000000005,
                        "value": 0
                    },
                    {
                        "number": 64,
                        "time": 467.5687500000005,
                        "value": 0.49606299212598426
                    },
                    {
                        "number": 64,
                        "time": 467.57083333333384,
                        "value": 1
                    },
                    {
                        "number": 64,
                        "time": 468.66458333333406,
                        "value": 0.49606299212598426
                    },
                    {
                        "number": 64,
                        "time": 468.6791666666674,
                        "value": 0
                    },
                    {
                        "number": 64,
                        "time": 468.7937500000007,
                        "value": 0.49606299212598426
                    },
                    {
                        "number": 64,
                        "time": 468.8041666666674,
                        "value": 1
                    },
                    {
                        "number": 64,
                        "time": 469.2666666666674,
                        "value": 0.49606299212598426
                    },
                    {
                        "number": 64,
                        "time": 469.2750000000008,
                        "value": 0
                    },
                    {
                        "number": 64,
                        "time": 469.42291666666745,
                        "value": 0.49606299212598426
                    },
                    {
                        "number": 64,
                        "time": 469.4270833333341,
                        "value": 1
                    },
                    {
                        "number": 64,
                        "time": 469.5833333333342,
                        "value": 0.49606299212598426
                    },
                    {
                        "number": 64,
                        "time": 469.58958333333425,
                        "value": 0
                    },
                    {
                        "number": 64,
                        "time": 469.7833333333342,
                        "value": 1
                    },
                    {
                        "number": 64,
                        "time": 470.13333333333435,
                        "value": 0.49606299212598426
                    },
                    {
                        "number": 64,
                        "time": 470.1354166666677,
                        "value": 0
                    },
                    {
                        "number": 64,
                        "time": 470.42916666666775,
                        "value": 0.49606299212598426
                    },
                    {
                        "number": 64,
                        "time": 470.4312500000011,
                        "value": 1
                    },
                    {
                        "number": 64,
                        "time": 470.52708333333453,
                        "value": 0.49606299212598426
                    },
                    {
                        "number": 64,
                        "time": 470.54791666666785,
                        "value": 0
                    },
                    {
                        "number": 64,
                        "time": 470.80208333333456,
                        "value": 1
                    },
                    {
                        "number": 64,
                        "time": 471.1625000000012,
                        "value": 0.49606299212598426
                    },
                    {
                        "number": 64,
                        "time": 471.16666666666794,
                        "value": 0
                    },
                    {
                        "number": 64,
                        "time": 471.46458333333464,
                        "value": 0.49606299212598426
                    },
                    {
                        "number": 64,
                        "time": 471.46875000000136,
                        "value": 1
                    },
                    {
                        "number": 64,
                        "time": 471.5812500000014,
                        "value": 0.49606299212598426
                    },
                    {
                        "number": 64,
                        "time": 471.5958333333347,
                        "value": 0
                    },
                    {
                        "number": 64,
                        "time": 471.7937500000014,
                        "value": 0.49606299212598426
                    },
                    {
                        "number": 64,
                        "time": 471.8041666666681,
                        "value": 1
                    },
                    {
                        "number": 64,
                        "time": 472.04583333333477,
                        "value": 0.49606299212598426
                    },
                    {
                        "number": 64,
                        "time": 472.05625000000146,
                        "value": 0
                    },
                    {
                        "number": 64,
                        "time": 472.08125000000143,
                        "value": 0.49606299212598426
                    },
                    {
                        "number": 64,
                        "time": 472.10416666666816,
                        "value": 1
                    },
                    {
                        "number": 64,
                        "time": 472.2312500000014,
                        "value": 0.49606299212598426
                    },
                    {
                        "number": 64,
                        "time": 472.2541666666681,
                        "value": 0
                    },
                    {
                        "number": 64,
                        "time": 472.2937500000014,
                        "value": 0.49606299212598426
                    },
                    {
                        "number": 64,
                        "time": 472.3145833333347,
                        "value": 1
                    },
                    {
                        "number": 64,
                        "time": 472.52708333333476,
                        "value": 0.49606299212598426
                    },
                    {
                        "number": 64,
                        "time": 472.6020833333348,
                        "value": 1
                    },
                    {
                        "number": 64,
                        "time": 472.7354166666682,
                        "value": 0.49606299212598426
                    },
                    {
                        "number": 64,
                        "time": 472.7562500000015,
                        "value": 0
                    },
                    {
                        "number": 64,
                        "time": 472.9166666666683,
                        "value": 0.49606299212598426
                    },
                    {
                        "number": 64,
                        "time": 472.9166666666683,
                        "value": 1
                    },
                    {
                        "number": 64,
                        "time": 473.039583333335,
                        "value": 0.49606299212598426
                    },
                    {
                        "number": 64,
                        "time": 473.045833333335,
                        "value": 0
                    },
                    {
                        "number": 64,
                        "time": 473.177083333335,
                        "value": 0.49606299212598426
                    },
                    {
                        "number": 64,
                        "time": 473.1791666666684,
                        "value": 1
                    },
                    {
                        "number": 64,
                        "time": 473.4062500000019,
                        "value": 0.49606299212598426
                    },
                    {
                        "number": 64,
                        "time": 473.4125000000019,
                        "value": 0
                    },
                    {
                        "number": 64,
                        "time": 473.55416666666855,
                        "value": 1
                    },
                    {
                        "number": 64,
                        "time": 474.4125000000021,
                        "value": 0.49606299212598426
                    },
                    {
                        "number": 64,
                        "time": 474.4208333333355,
                        "value": 0
                    },
                    {
                        "number": 64,
                        "time": 474.46458333333555,
                        "value": 0.49606299212598426
                    },
                    {
                        "number": 64,
                        "time": 474.48125000000226,
                        "value": 1
                    },
                    {
                        "number": 64,
                        "time": 474.5583333333356,
                        "value": 0.49606299212598426
                    },
                    {
                        "number": 64,
                        "time": 474.5708333333356,
                        "value": 0
                    },
                    {
                        "number": 64,
                        "time": 474.8312500000023,
                        "value": 0.49606299212598426
                    },
                    {
                        "number": 64,
                        "time": 474.83541666666895,
                        "value": 1
                    },
                    {
                        "number": 64,
                        "time": 475.2937500000022,
                        "value": 0.49606299212598426
                    },
                    {
                        "number": 64,
                        "time": 475.3000000000022,
                        "value": 0
                    },
                    {
                        "number": 64,
                        "time": 475.3770833333356,
                        "value": 0.49606299212598426
                    },
                    {
                        "number": 64,
                        "time": 475.3854166666689,
                        "value": 1
                    },
                    {
                        "number": 64,
                        "time": 475.8812500000024,
                        "value": 0.49606299212598426
                    },
                    {
                        "number": 64,
                        "time": 475.88750000000243,
                        "value": 0
                    },
                    {
                        "number": 64,
                        "time": 475.94166666666916,
                        "value": 0.49606299212598426
                    },
                    {
                        "number": 64,
                        "time": 475.9562500000025,
                        "value": 1
                    },
                    {
                        "number": 64,
                        "time": 476.0708333333358,
                        "value": 0.49606299212598426
                    },
                    {
                        "number": 64,
                        "time": 476.07916666666915,
                        "value": 0
                    },
                    {
                        "number": 64,
                        "time": 476.1250000000025,
                        "value": 0.49606299212598426
                    },
                    {
                        "number": 64,
                        "time": 476.1354166666692,
                        "value": 1
                    },
                    {
                        "number": 64,
                        "time": 476.3083333333359,
                        "value": 0.49606299212598426
                    },
                    {
                        "number": 64,
                        "time": 476.3145833333359,
                        "value": 0
                    },
                    {
                        "number": 64,
                        "time": 476.4520833333359,
                        "value": 0.49606299212598426
                    },
                    {
                        "number": 64,
                        "time": 476.45625000000257,
                        "value": 1
                    },
                    {
                        "number": 64,
                        "time": 477.08333333333593,
                        "value": 0.49606299212598426
                    },
                    {
                        "number": 64,
                        "time": 477.08958333333595,
                        "value": 0
                    },
                    {
                        "number": 64,
                        "time": 477.16250000000264,
                        "value": 0.49606299212598426
                    },
                    {
                        "number": 64,
                        "time": 477.1729166666693,
                        "value": 1
                    },
                    {
                        "number": 64,
                        "time": 477.9395833333361,
                        "value": 0.49606299212598426
                    },
                    {
                        "number": 64,
                        "time": 477.94583333333617,
                        "value": 0
                    },
                    {
                        "number": 64,
                        "time": 478.55000000000285,
                        "value": 1
                    },
                    {
                        "number": 64,
                        "time": 478.7208333333362,
                        "value": 0.49606299212598426
                    },
                    {
                        "number": 64,
                        "time": 478.7291666666695,
                        "value": 0
                    },
                    {
                        "number": 64,
                        "time": 478.7750000000029,
                        "value": 0.49606299212598426
                    },
                    {
                        "number": 64,
                        "time": 478.78541666666956,
                        "value": 1
                    },
                    {
                        "number": 64,
                        "time": 479.525000000003,
                        "value": 0.49606299212598426
                    },
                    {
                        "number": 64,
                        "time": 479.531250000003,
                        "value": 0
                    },
                    {
                        "number": 64,
                        "time": 479.6562500000031,
                        "value": 0.49606299212598426
                    },
                    {
                        "number": 64,
                        "time": 479.6583333333365,
                        "value": 1
                    },
                    {
                        "number": 64,
                        "time": 481.61041666666995,
                        "value": 0.49606299212598426
                    },
                    {
                        "number": 64,
                        "time": 481.6145833333366,
                        "value": 0
                    },
                    {
                        "number": 64,
                        "time": 481.7187500000033,
                        "value": 0.49606299212598426
                    },
                    {
                        "number": 64,
                        "time": 481.7250000000033,
                        "value": 1
                    },
                    {
                        "number": 64,
                        "time": 482.8375000000032,
                        "value": 1
                    },
                    {
                        "number": 64,
                        "time": 483.6458333333366,
                        "value": 0.49606299212598426
                    },
                    {
                        "number": 64,
                        "time": 483.65208333333663,
                        "value": 0
                    },
                    {
                        "number": 64,
                        "time": 483.70416666667,
                        "value": 0.49606299212598426
                    },
                    {
                        "number": 64,
                        "time": 483.71875000000335,
                        "value": 1
                    },
                    {
                        "number": 64,
                        "time": 483.7875000000034,
                        "value": 0.49606299212598426
                    },
                    {
                        "number": 64,
                        "time": 483.8020833333368,
                        "value": 0
                    },
                    {
                        "number": 64,
                        "time": 483.87500000000347,
                        "value": 0.49606299212598426
                    },
                    {
                        "number": 64,
                        "time": 483.88541666667015,
                        "value": 1
                    },
                    {
                        "number": 64,
                        "time": 483.97708333333685,
                        "value": 0.49606299212598426
                    },
                    {
                        "number": 64,
                        "time": 484.0229166666702,
                        "value": 1
                    },
                    {
                        "number": 64,
                        "time": 484.12500000000364,
                        "value": 0.49606299212598426
                    },
                    {
                        "number": 64,
                        "time": 484.14583333333695,
                        "value": 1
                    },
                    {
                        "number": 64,
                        "time": 484.5770833333371,
                        "value": 0.49606299212598426
                    },
                    {
                        "number": 64,
                        "time": 484.5833333333371,
                        "value": 0
                    },
                    {
                        "number": 64,
                        "time": 484.6500000000038,
                        "value": 0.49606299212598426
                    },
                    {
                        "number": 64,
                        "time": 484.66041666667047,
                        "value": 1
                    },
                    {
                        "number": 64,
                        "time": 484.86041666667046,
                        "value": 0.49606299212598426
                    },
                    {
                        "number": 64,
                        "time": 484.88333333333713,
                        "value": 1
                    },
                    {
                        "number": 64,
                        "time": 485.0458333333373,
                        "value": 0.49606299212598426
                    },
                    {
                        "number": 64,
                        "time": 485.0541666666707,
                        "value": 1
                    },
                    {
                        "number": 64,
                        "time": 485.17083333333744,
                        "value": 0.49606299212598426
                    },
                    {
                        "number": 64,
                        "time": 485.2041666666708,
                        "value": 1
                    },
                    {
                        "number": 64,
                        "time": 485.3833333333375,
                        "value": 0.49606299212598426
                    },
                    {
                        "number": 64,
                        "time": 485.3916666666708,
                        "value": 0
                    },
                    {
                        "number": 64,
                        "time": 485.4291666666708,
                        "value": 0.49606299212598426
                    },
                    {
                        "number": 64,
                        "time": 485.4395833333375,
                        "value": 1
                    },
                    {
                        "number": 64,
                        "time": 485.5916666666709,
                        "value": 0.49606299212598426
                    },
                    {
                        "number": 64,
                        "time": 485.65000000000424,
                        "value": 1
                    },
                    {
                        "number": 64,
                        "time": 486.2958333333377,
                        "value": 0.49606299212598426
                    },
                    {
                        "number": 64,
                        "time": 486.30208333333775,
                        "value": 0
                    },
                    {
                        "number": 64,
                        "time": 486.38333333333776,
                        "value": 0.49606299212598426
                    },
                    {
                        "number": 64,
                        "time": 486.3916666666711,
                        "value": 1
                    },
                    {
                        "number": 64,
                        "time": 487.23958333333786,
                        "value": 0.49606299212598426
                    },
                    {
                        "number": 64,
                        "time": 487.2479166666712,
                        "value": 0
                    },
                    {
                        "number": 64,
                        "time": 487.2750000000045,
                        "value": 0.49606299212598426
                    },
                    {
                        "number": 64,
                        "time": 487.29375000000454,
                        "value": 1
                    },
                    {
                        "number": 64,
                        "time": 487.42708333333786,
                        "value": 0.49606299212598426
                    },
                    {
                        "number": 64,
                        "time": 487.4729166666712,
                        "value": 1
                    },
                    {
                        "number": 64,
                        "time": 488.1104166666713,
                        "value": 0.49606299212598426
                    },
                    {
                        "number": 64,
                        "time": 488.114583333338,
                        "value": 0
                    },
                    {
                        "number": 64,
                        "time": 488.1666666666713,
                        "value": 0.49606299212598426
                    },
                    {
                        "number": 64,
                        "time": 488.18333333333794,
                        "value": 1
                    },
                    {
                        "number": 64,
                        "time": 489.1083333333382,
                        "value": 0.49606299212598426
                    },
                    {
                        "number": 64,
                        "time": 489.1166666666715,
                        "value": 0
                    },
                    {
                        "number": 64,
                        "time": 489.2104166666716,
                        "value": 0.49606299212598426
                    },
                    {
                        "number": 64,
                        "time": 489.2145833333383,
                        "value": 1
                    },
                    {
                        "number": 64,
                        "time": 491.41666666667174,
                        "value": 1
                    },
                    {
                        "number": 64,
                        "time": 492.41250000000514,
                        "value": 0.49606299212598426
                    },
                    {
                        "number": 64,
                        "time": 492.4229166666718,
                        "value": 0
                    },
                    {
                        "number": 64,
                        "time": 492.5187500000051,
                        "value": 0.49606299212598426
                    },
                    {
                        "number": 64,
                        "time": 492.5229166666718,
                        "value": 1
                    },
                    {
                        "number": 64,
                        "time": 493.3895833333385,
                        "value": 0.49606299212598426
                    },
                    {
                        "number": 64,
                        "time": 493.39583333333854,
                        "value": 0
                    },
                    {
                        "number": 64,
                        "time": 493.4583333333386,
                        "value": 0.49606299212598426
                    },
                    {
                        "number": 64,
                        "time": 493.4687500000053,
                        "value": 1
                    },
                    {
                        "number": 64,
                        "time": 494.35625000000545,
                        "value": 0.49606299212598426
                    },
                    {
                        "number": 64,
                        "time": 494.36458333333877,
                        "value": 0
                    },
                    {
                        "number": 64,
                        "time": 494.46250000000543,
                        "value": 0.49606299212598426
                    },
                    {
                        "number": 64,
                        "time": 494.47083333333876,
                        "value": 1
                    },
                    {
                        "number": 64,
                        "time": 495.20833333333877,
                        "value": 0.49606299212598426
                    },
                    {
                        "number": 64,
                        "time": 495.2166666666721,
                        "value": 0
                    },
                    {
                        "number": 64,
                        "time": 495.2916666666722,
                        "value": 0.49606299212598426
                    },
                    {
                        "number": 64,
                        "time": 495.29583333333886,
                        "value": 1
                    },
                    {
                        "number": 64,
                        "time": 496.1104166666727,
                        "value": 0.49606299212598426
                    },
                    {
                        "number": 64,
                        "time": 496.11250000000604,
                        "value": 0
                    },
                    {
                        "number": 64,
                        "time": 496.23541666667273,
                        "value": 0.49606299212598426
                    },
                    {
                        "number": 64,
                        "time": 496.2375000000061,
                        "value": 1
                    },
                    {
                        "number": 64,
                        "time": 497.0020833333396,
                        "value": 0.49606299212598426
                    },
                    {
                        "number": 64,
                        "time": 497.01041666667294,
                        "value": 0
                    },
                    {
                        "number": 64,
                        "time": 497.0875000000063,
                        "value": 0.49606299212598426
                    },
                    {
                        "number": 64,
                        "time": 497.0937500000063,
                        "value": 1
                    },
                    {
                        "number": 64,
                        "time": 497.8604166666731,
                        "value": 0.49606299212598426
                    },
                    {
                        "number": 64,
                        "time": 497.86250000000643,
                        "value": 0
                    },
                    {
                        "number": 64,
                        "time": 498.0020833333397,
                        "value": 0.49606299212598426
                    },
                    {
                        "number": 64,
                        "time": 498.0062500000064,
                        "value": 1
                    },
                    {
                        "number": 64,
                        "time": 498.74583333334,
                        "value": 0.49606299212598426
                    },
                    {
                        "number": 64,
                        "time": 498.74791666667335,
                        "value": 0
                    },
                    {
                        "number": 64,
                        "time": 498.82291666667334,
                        "value": 1
                    },
                    {
                        "number": 64,
                        "time": 499.6812500000066,
                        "value": 0.49606299212598426
                    },
                    {
                        "number": 64,
                        "time": 499.68750000000665,
                        "value": 0
                    },
                    {
                        "number": 64,
                        "time": 499.7437500000066,
                        "value": 0.49606299212598426
                    },
                    {
                        "number": 64,
                        "time": 499.7562500000066,
                        "value": 1
                    },
                    {
                        "number": 64,
                        "time": 500.5354166666737,
                        "value": 0.49606299212598426
                    },
                    {
                        "number": 64,
                        "time": 500.5458333333404,
                        "value": 0
                    },
                    {
                        "number": 64,
                        "time": 500.58125000000706,
                        "value": 0.49606299212598426
                    },
                    {
                        "number": 64,
                        "time": 500.60625000000704,
                        "value": 1
                    },
                    {
                        "number": 64,
                        "time": 501.15833333334035,
                        "value": 0.49606299212598426
                    },
                    {
                        "number": 64,
                        "time": 501.1645833333404,
                        "value": 0
                    },
                    {
                        "number": 64,
                        "time": 501.20833333334036,
                        "value": 0.49606299212598426
                    },
                    {
                        "number": 64,
                        "time": 501.2229166666737,
                        "value": 1
                    },
                    {
                        "number": 64,
                        "time": 502.1083333333404,
                        "value": 0.49606299212598426
                    },
                    {
                        "number": 64,
                        "time": 502.12083333334044,
                        "value": 0
                    },
                    {
                        "number": 64,
                        "time": 502.1625000000071,
                        "value": 0.49606299212598426
                    },
                    {
                        "number": 64,
                        "time": 502.18333333334044,
                        "value": 1
                    },
                    {
                        "number": 64,
                        "time": 503.04166666667385,
                        "value": 0.49606299212598426
                    },
                    {
                        "number": 64,
                        "time": 503.05416666667384,
                        "value": 0
                    },
                    {
                        "number": 64,
                        "time": 503.1083333333405,
                        "value": 0.49606299212598426
                    },
                    {
                        "number": 64,
                        "time": 503.12291666667386,
                        "value": 1
                    },
                    {
                        "number": 64,
                        "time": 503.835416666674,
                        "value": 0.49606299212598426
                    },
                    {
                        "number": 64,
                        "time": 503.8458333333407,
                        "value": 0
                    },
                    {
                        "number": 64,
                        "time": 503.89791666667406,
                        "value": 0.49606299212598426
                    },
                    {
                        "number": 64,
                        "time": 503.9145833333408,
                        "value": 1
                    },
                    {
                        "number": 64,
                        "time": 507.57708333334125,
                        "value": 0.49606299212598426
                    },
                    {
                        "number": 64,
                        "time": 507.5833333333413,
                        "value": 1
                    },
                    {
                        "number": 64,
                        "time": 508.6020833333413,
                        "value": 0.49606299212598426
                    },
                    {
                        "number": 64,
                        "time": 508.60625000000795,
                        "value": 0
                    },
                    {
                        "number": 64,
                        "time": 508.7270833333413,
                        "value": 0.49606299212598426
                    },
                    {
                        "number": 64,
                        "time": 508.73750000000797,
                        "value": 1
                    },
                    {
                        "number": 64,
                        "time": 509.71875000000796,
                        "value": 0.49606299212598426
                    },
                    {
                        "number": 64,
                        "time": 509.73125000000795,
                        "value": 0
                    },
                    {
                        "number": 64,
                        "time": 509.85416666667464,
                        "value": 0.49606299212598426
                    },
                    {
                        "number": 64,
                        "time": 509.86041666667467,
                        "value": 1
                    },
                    {
                        "number": 64,
                        "time": 510.7354166666747,
                        "value": 0.49606299212598426
                    },
                    {
                        "number": 64,
                        "time": 510.7479166666747,
                        "value": 0
                    },
                    {
                        "number": 64,
                        "time": 510.7979166666748,
                        "value": 0.49606299212598426
                    },
                    {
                        "number": 64,
                        "time": 510.8229166666748,
                        "value": 1
                    },
                    {
                        "number": 64,
                        "time": 512.9270833333416,
                        "value": 0.49606299212598426
                    },
                    {
                        "number": 64,
                        "time": 512.9375000000082,
                        "value": 0
                    },
                    {
                        "number": 64,
                        "time": 513.0750000000081,
                        "value": 0.49606299212598426
                    },
                    {
                        "number": 64,
                        "time": 513.0875000000082,
                        "value": 1
                    },
                    {
                        "number": 64,
                        "time": 513.9625000000082,
                        "value": 0.49606299212598426
                    },
                    {
                        "number": 64,
                        "time": 513.9708333333415,
                        "value": 0
                    },
                    {
                        "number": 64,
                        "time": 514.0833333333414,
                        "value": 0.49606299212598426
                    },
                    {
                        "number": 64,
                        "time": 514.0958333333415,
                        "value": 1
                    },
                    {
                        "number": 64,
                        "time": 514.6166666666749,
                        "value": 0.49606299212598426
                    },
                    {
                        "number": 64,
                        "time": 514.6229166666749,
                        "value": 0
                    },
                    {
                        "number": 64,
                        "time": 514.916666666675,
                        "value": 0.49606299212598426
                    },
                    {
                        "number": 64,
                        "time": 514.9187500000083,
                        "value": 1
                    },
                    {
                        "number": 64,
                        "time": 515.2250000000084,
                        "value": 0.49606299212598426
                    },
                    {
                        "number": 64,
                        "time": 515.2333333333419,
                        "value": 0
                    },
                    {
                        "number": 64,
                        "time": 515.6083333333419,
                        "value": 1
                    },
                    {
                        "number": 64,
                        "time": 517.2250000000088,
                        "value": 0.49606299212598426
                    },
                    {
                        "number": 64,
                        "time": 517.2354166666754,
                        "value": 0
                    },
                    {
                        "number": 64,
                        "time": 517.3625000000087,
                        "value": 0.49606299212598426
                    },
                    {
                        "number": 64,
                        "time": 517.3770833333421,
                        "value": 1
                    },
                    {
                        "number": 64,
                        "time": 518.1250000000088,
                        "value": 0.49606299212598426
                    },
                    {
                        "number": 64,
                        "time": 518.1333333333421,
                        "value": 0
                    },
                    {
                        "number": 64,
                        "time": 518.2479166666755,
                        "value": 0.49606299212598426
                    },
                    {
                        "number": 64,
                        "time": 518.2541666666755,
                        "value": 1
                    },
                    {
                        "number": 64,
                        "time": 519.1875000000086,
                        "value": 0.49606299212598426
                    },
                    {
                        "number": 64,
                        "time": 519.1937500000087,
                        "value": 0
                    },
                    {
                        "number": 64,
                        "time": 519.3291666666752,
                        "value": 0.49606299212598426
                    },
                    {
                        "number": 64,
                        "time": 519.3354166666752,
                        "value": 1
                    },
                    {
                        "number": 64,
                        "time": 520.1791666666751,
                        "value": 0.49606299212598426
                    },
                    {
                        "number": 64,
                        "time": 520.1895833333417,
                        "value": 0
                    },
                    {
                        "number": 64,
                        "time": 520.2958333333418,
                        "value": 0.49606299212598426
                    },
                    {
                        "number": 64,
                        "time": 520.3083333333418,
                        "value": 1
                    },
                    {
                        "number": 64,
                        "time": 521.1041666666753,
                        "value": 0.49606299212598426
                    },
                    {
                        "number": 64,
                        "time": 521.1125000000086,
                        "value": 0
                    },
                    {
                        "number": 64,
                        "time": 521.2479166666753,
                        "value": 0.49606299212598426
                    },
                    {
                        "number": 64,
                        "time": 521.2562500000087,
                        "value": 1
                    },
                    {
                        "number": 64,
                        "time": 521.8104166666756,
                        "value": 0.49606299212598426
                    },
                    {
                        "number": 64,
                        "time": 521.8250000000089,
                        "value": 0
                    },
                    {
                        "number": 64,
                        "time": 521.8791666666756,
                        "value": 0.49606299212598426
                    },
                    {
                        "number": 64,
                        "time": 521.9020833333423,
                        "value": 1
                    },
                    {
                        "number": 64,
                        "time": 522.4812500000089,
                        "value": 0.49606299212598426
                    },
                    {
                        "number": 64,
                        "time": 522.5291666666756,
                        "value": 1
                    },
                    {
                        "number": 64,
                        "time": 523.1187500000087,
                        "value": 0.49606299212598426
                    },
                    {
                        "number": 64,
                        "time": 523.2062500000087,
                        "value": 1
                    },
                    {
                        "number": 64,
                        "time": 523.7854166666754,
                        "value": 0.49606299212598426
                    },
                    {
                        "number": 64,
                        "time": 523.8875000000088,
                        "value": 1
                    },
                    {
                        "number": 64,
                        "time": 524.2791666666755,
                        "value": 0.49606299212598426
                    },
                    {
                        "number": 64,
                        "time": 524.3625000000088,
                        "value": 1
                    },
                    {
                        "number": 64,
                        "time": 524.3812500000089,
                        "value": 0.49606299212598426
                    },
                    {
                        "number": 64,
                        "time": 524.4020833333423,
                        "value": 1
                    },
                    {
                        "number": 64,
                        "time": 525.7750000000091,
                        "value": 0.49606299212598426
                    },
                    {
                        "number": 64,
                        "time": 525.7854166666757,
                        "value": 0
                    },
                    {
                        "number": 64,
                        "time": 526.0000000000091,
                        "value": 0.49606299212598426
                    },
                    {
                        "number": 64,
                        "time": 526.0020833333424,
                        "value": 1
                    },
                    {
                        "number": 64,
                        "time": 527.4583333333425,
                        "value": 0.49606299212598426
                    },
                    {
                        "number": 64,
                        "time": 527.4666666666758,
                        "value": 0
                    },
                    {
                        "number": 64,
                        "time": 527.5750000000091,
                        "value": 0.49606299212598426
                    },
                    {
                        "number": 64,
                        "time": 527.5895833333425,
                        "value": 1
                    },
                    {
                        "number": 64,
                        "time": 528.5104166666758,
                        "value": 0.49606299212598426
                    },
                    {
                        "number": 64,
                        "time": 528.5187500000092,
                        "value": 0
                    },
                    {
                        "number": 64,
                        "time": 528.6333333333425,
                        "value": 0.49606299212598426
                    },
                    {
                        "number": 64,
                        "time": 528.6458333333426,
                        "value": 1
                    },
                    {
                        "number": 64,
                        "time": 529.7604166666761,
                        "value": 0.49606299212598426
                    },
                    {
                        "number": 64,
                        "time": 529.7708333333427,
                        "value": 0
                    },
                    {
                        "number": 64,
                        "time": 529.872916666676,
                        "value": 0.49606299212598426
                    },
                    {
                        "number": 64,
                        "time": 529.8895833333427,
                        "value": 1
                    },
                    {
                        "number": 64,
                        "time": 530.841666666676,
                        "value": 0.49606299212598426
                    },
                    {
                        "number": 64,
                        "time": 530.8541666666761,
                        "value": 0
                    },
                    {
                        "number": 64,
                        "time": 530.972916666676,
                        "value": 0.49606299212598426
                    },
                    {
                        "number": 64,
                        "time": 530.9833333333427,
                        "value": 1
                    },
                    {
                        "number": 64,
                        "time": 532.0791666666763,
                        "value": 0.49606299212598426
                    },
                    {
                        "number": 64,
                        "time": 532.089583333343,
                        "value": 0
                    },
                    {
                        "number": 64,
                        "time": 532.1604166666764,
                        "value": 0.49606299212598426
                    },
                    {
                        "number": 64,
                        "time": 532.1812500000098,
                        "value": 1
                    },
                    {
                        "number": 64,
                        "time": 533.1104166666768,
                        "value": 0.49606299212598426
                    },
                    {
                        "number": 64,
                        "time": 533.1208333333435,
                        "value": 0
                    },
                    {
                        "number": 64,
                        "time": 533.2125000000102,
                        "value": 0.49606299212598426
                    },
                    {
                        "number": 64,
                        "time": 533.2270833333436,
                        "value": 1
                    },
                    {
                        "number": 64,
                        "time": 534.2770833333436,
                        "value": 0.49606299212598426
                    },
                    {
                        "number": 64,
                        "time": 534.2833333333436,
                        "value": 0
                    },
                    {
                        "number": 64,
                        "time": 534.3645833333436,
                        "value": 0.49606299212598426
                    },
                    {
                        "number": 64,
                        "time": 534.3812500000103,
                        "value": 1
                    },
                    {
                        "number": 64,
                        "time": 535.4604166666771,
                        "value": 0.49606299212598426
                    },
                    {
                        "number": 64,
                        "time": 535.4750000000105,
                        "value": 0
                    },
                    {
                        "number": 64,
                        "time": 535.5395833333438,
                        "value": 0.49606299212598426
                    },
                    {
                        "number": 64,
                        "time": 535.5604166666772,
                        "value": 1
                    },
                    {
                        "number": 64,
                        "time": 536.9541666666773,
                        "value": 0.49606299212598426
                    },
                    {
                        "number": 64,
                        "time": 536.9604166666774,
                        "value": 0
                    },
                    {
                        "number": 64,
                        "time": 537.1041666666773,
                        "value": 0.49606299212598426
                    },
                    {
                        "number": 64,
                        "time": 537.1125000000106,
                        "value": 1
                    },
                    {
                        "number": 64,
                        "time": 538.3625000000109,
                        "value": 0.49606299212598426
                    },
                    {
                        "number": 64,
                        "time": 538.3708333333442,
                        "value": 0
                    },
                    {
                        "number": 64,
                        "time": 538.4437500000108,
                        "value": 0.49606299212598426
                    },
                    {
                        "number": 64,
                        "time": 538.4625000000108,
                        "value": 1
                    },
                    {
                        "number": 64,
                        "time": 540.7229166666773,
                        "value": 0.49606299212598426
                    },
                    {
                        "number": 64,
                        "time": 540.7333333333439,
                        "value": 0
                    },
                    {
                        "number": 64,
                        "time": 540.7833333333439,
                        "value": 0.49606299212598426
                    },
                    {
                        "number": 64,
                        "time": 540.8166666666772,
                        "value": 1
                    },
                    {
                        "number": 64,
                        "time": 541.8000000000106,
                        "value": 0.49606299212598426
                    },
                    {
                        "number": 64,
                        "time": 541.8125000000106,
                        "value": 0
                    },
                    {
                        "number": 64,
                        "time": 541.8583333333439,
                        "value": 0.49606299212598426
                    },
                    {
                        "number": 64,
                        "time": 541.8937500000105,
                        "value": 1
                    },
                    {
                        "number": 64,
                        "time": 543.1875000000103,
                        "value": 0.49606299212598426
                    },
                    {
                        "number": 64,
                        "time": 543.2000000000103,
                        "value": 0
                    },
                    {
                        "number": 64,
                        "time": 543.316666666677,
                        "value": 0.49606299212598426
                    },
                    {
                        "number": 64,
                        "time": 543.3250000000103,
                        "value": 1
                    },
                    {
                        "number": 64,
                        "time": 544.73125000001,
                        "value": 0.49606299212598426
                    },
                    {
                        "number": 64,
                        "time": 544.74375000001,
                        "value": 0
                    },
                    {
                        "number": 64,
                        "time": 544.7854166666766,
                        "value": 0.49606299212598426
                    },
                    {
                        "number": 64,
                        "time": 544.8166666666767,
                        "value": 1
                    },
                    {
                        "number": 64,
                        "time": 545.8083333333435,
                        "value": 0.49606299212598426
                    },
                    {
                        "number": 64,
                        "time": 545.8208333333434,
                        "value": 0
                    },
                    {
                        "number": 64,
                        "time": 545.8812500000101,
                        "value": 0.49606299212598426
                    },
                    {
                        "number": 64,
                        "time": 545.8958333333435,
                        "value": 1
                    },
                    {
                        "number": 64,
                        "time": 547.06875000001,
                        "value": 0.49606299212598426
                    },
                    {
                        "number": 64,
                        "time": 547.0791666666768,
                        "value": 0
                    },
                    {
                        "number": 64,
                        "time": 547.1395833333435,
                        "value": 0.49606299212598426
                    },
                    {
                        "number": 64,
                        "time": 547.1625000000101,
                        "value": 1
                    },
                    {
                        "number": 64,
                        "time": 548.5687500000103,
                        "value": 1
                    },
                    {
                        "number": 64,
                        "time": 549.3666666666767,
                        "value": 0.49606299212598426
                    },
                    {
                        "number": 64,
                        "time": 549.37500000001,
                        "value": 0
                    },
                    {
                        "number": 64,
                        "time": 549.4666666666766,
                        "value": 0.49606299212598426
                    },
                    {
                        "number": 64,
                        "time": 549.4812500000099,
                        "value": 1
                    },
                    {
                        "number": 64,
                        "time": 550.3354166666763,
                        "value": 0.49606299212598426
                    },
                    {
                        "number": 64,
                        "time": 550.3437500000097,
                        "value": 0
                    },
                    {
                        "number": 64,
                        "time": 550.3937500000096,
                        "value": 0.49606299212598426
                    },
                    {
                        "number": 64,
                        "time": 550.414583333343,
                        "value": 1
                    },
                    {
                        "number": 64,
                        "time": 551.5812500000098,
                        "value": 0.49606299212598426
                    },
                    {
                        "number": 64,
                        "time": 551.5979166666765,
                        "value": 0
                    },
                    {
                        "number": 64,
                        "time": 551.6812500000098,
                        "value": 0.49606299212598426
                    },
                    {
                        "number": 64,
                        "time": 551.6958333333431,
                        "value": 1
                    },
                    {
                        "number": 64,
                        "time": 552.870833333343,
                        "value": 0.49606299212598426
                    },
                    {
                        "number": 64,
                        "time": 552.9500000000097,
                        "value": 1
                    },
                    {
                        "number": 64,
                        "time": 553.7000000000096,
                        "value": 0.49606299212598426
                    },
                    {
                        "number": 64,
                        "time": 553.8041666666762,
                        "value": 1
                    },
                    {
                        "number": 64,
                        "time": 554.0145833333428,
                        "value": 0.49606299212598426
                    },
                    {
                        "number": 64,
                        "time": 554.0812500000095,
                        "value": 1
                    },
                    {
                        "number": 64,
                        "time": 554.2937500000095,
                        "value": 0.49606299212598426
                    },
                    {
                        "number": 64,
                        "time": 554.3208333333428,
                        "value": 0
                    },
                    {
                        "number": 64,
                        "time": 554.404166666676,
                        "value": 0.49606299212598426
                    },
                    {
                        "number": 64,
                        "time": 554.4395833333427,
                        "value": 1
                    },
                    {
                        "number": 64,
                        "time": 554.5812500000094,
                        "value": 0.49606299212598426
                    },
                    {
                        "number": 64,
                        "time": 554.6041666666761,
                        "value": 0
                    },
                    {
                        "number": 64,
                        "time": 554.7145833333428,
                        "value": 0.49606299212598426
                    },
                    {
                        "number": 64,
                        "time": 554.7375000000095,
                        "value": 1
                    },
                    {
                        "number": 64,
                        "time": 554.9104166666762,
                        "value": 0.49606299212598426
                    },
                    {
                        "number": 64,
                        "time": 554.9354166666761,
                        "value": 0
                    },
                    {
                        "number": 64,
                        "time": 555.0562500000095,
                        "value": 0.49606299212598426
                    },
                    {
                        "number": 64,
                        "time": 555.0750000000095,
                        "value": 1
                    },
                    {
                        "number": 64,
                        "time": 555.3041666666761,
                        "value": 0.49606299212598426
                    },
                    {
                        "number": 64,
                        "time": 555.3208333333428,
                        "value": 0
                    },
                    {
                        "number": 64,
                        "time": 555.4312500000095,
                        "value": 0.49606299212598426
                    },
                    {
                        "number": 64,
                        "time": 555.4500000000095,
                        "value": 1
                    },
                    {
                        "number": 64,
                        "time": 555.6541666666761,
                        "value": 0.49606299212598426
                    },
                    {
                        "number": 64,
                        "time": 555.7375000000095,
                        "value": 1
                    },
                    {
                        "number": 64,
                        "time": 555.8812500000095,
                        "value": 0.49606299212598426
                    },
                    {
                        "number": 64,
                        "time": 555.9145833333428,
                        "value": 0
                    },
                    {
                        "number": 64,
                        "time": 555.9916666666761,
                        "value": 0.49606299212598426
                    },
                    {
                        "number": 64,
                        "time": 556.0166666666761,
                        "value": 1
                    },
                    {
                        "number": 64,
                        "time": 556.1541666666761,
                        "value": 0.49606299212598426
                    },
                    {
                        "number": 64,
                        "time": 556.2354166666761,
                        "value": 1
                    },
                    {
                        "number": 64,
                        "time": 556.3250000000095,
                        "value": 0.49606299212598426
                    },
                    {
                        "number": 64,
                        "time": 556.3562500000095,
                        "value": 0
                    },
                    {
                        "number": 64,
                        "time": 556.4104166666763,
                        "value": 0.49606299212598426
                    },
                    {
                        "number": 64,
                        "time": 556.4375000000097,
                        "value": 1
                    },
                    {
                        "number": 64,
                        "time": 556.595833333343,
                        "value": 0.49606299212598426
                    },
                    {
                        "number": 64,
                        "time": 556.6125000000096,
                        "value": 0
                    },
                    {
                        "number": 64,
                        "time": 556.6979166666763,
                        "value": 0.49606299212598426
                    },
                    {
                        "number": 64,
                        "time": 556.720833333343,
                        "value": 1
                    },
                    {
                        "number": 64,
                        "time": 556.9562500000097,
                        "value": 0.49606299212598426
                    },
                    {
                        "number": 64,
                        "time": 557.0541666666765,
                        "value": 0
                    },
                    {
                        "number": 64,
                        "time": 557.9958333333433,
                        "value": 1
                    },
                    {
                        "number": 64,
                        "time": 560.0229166666766,
                        "value": 0.49606299212598426
                    },
                    {
                        "number": 64,
                        "time": 560.0416666666765,
                        "value": 1
                    },
                    {
                        "number": 64,
                        "time": 561.3062500000096,
                        "value": 0.49606299212598426
                    },
                    {
                        "number": 64,
                        "time": 561.3562500000097,
                        "value": 1
                    },
                    {
                        "number": 64,
                        "time": 561.5520833333433,
                        "value": 0.49606299212598426
                    },
                    {
                        "number": 64,
                        "time": 561.55625000001,
                        "value": 0
                    },
                    {
                        "number": 64,
                        "time": 561.6833333333434,
                        "value": 0.49606299212598426
                    },
                    {
                        "number": 64,
                        "time": 561.6854166666767,
                        "value": 1
                    },
                    {
                        "number": 64,
                        "time": 561.89375000001,
                        "value": 0.49606299212598426
                    },
                    {
                        "number": 64,
                        "time": 561.8979166666767,
                        "value": 0
                    },
                    {
                        "number": 64,
                        "time": 561.9645833333434,
                        "value": 0.49606299212598426
                    },
                    {
                        "number": 64,
                        "time": 561.97500000001,
                        "value": 1
                    },
                    {
                        "number": 64,
                        "time": 562.2354166666767,
                        "value": 0.49606299212598426
                    },
                    {
                        "number": 64,
                        "time": 562.23750000001,
                        "value": 0
                    },
                    {
                        "number": 64,
                        "time": 562.3729166666766,
                        "value": 1
                    },
                    {
                        "number": 64,
                        "time": 563.9437500000101,
                        "value": 0.49606299212598426
                    },
                    {
                        "number": 64,
                        "time": 563.9604166666768,
                        "value": 0
                    },
                    {
                        "number": 64,
                        "time": 563.9958333333434,
                        "value": 0.49606299212598426
                    },
                    {
                        "number": 64,
                        "time": 564.0104166666767,
                        "value": 1
                    },
                    {
                        "number": 64,
                        "time": 564.2000000000102,
                        "value": 0.49606299212598426
                    },
                    {
                        "number": 64,
                        "time": 564.2083333333435,
                        "value": 0
                    },
                    {
                        "number": 64,
                        "time": 564.2750000000102,
                        "value": 0.49606299212598426
                    },
                    {
                        "number": 64,
                        "time": 564.2854166666768,
                        "value": 1
                    },
                    {
                        "number": 64,
                        "time": 564.7020833333435,
                        "value": 0.49606299212598426
                    },
                    {
                        "number": 64,
                        "time": 564.7458333333435,
                        "value": 1
                    },
                    {
                        "number": 64,
                        "time": 565.8229166666767,
                        "value": 0.49606299212598426
                    },
                    {
                        "number": 64,
                        "time": 565.8333333333434,
                        "value": 0
                    },
                    {
                        "number": 64,
                        "time": 565.9208333333434,
                        "value": 0.49606299212598426
                    },
                    {
                        "number": 64,
                        "time": 565.9270833333434,
                        "value": 1
                    },
                    {
                        "number": 64,
                        "time": 566.9520833333434,
                        "value": 0.49606299212598426
                    },
                    {
                        "number": 64,
                        "time": 566.96250000001,
                        "value": 0
                    },
                    {
                        "number": 64,
                        "time": 567.3270833333432,
                        "value": 1
                    },
                    {
                        "number": 64,
                        "time": 568.45000000001,
                        "value": 0.49606299212598426
                    },
                    {
                        "number": 64,
                        "time": 568.4625000000101,
                        "value": 0
                    },
                    {
                        "number": 64,
                        "time": 568.5750000000102,
                        "value": 0.49606299212598426
                    },
                    {
                        "number": 64,
                        "time": 568.5770833333435,
                        "value": 1
                    },
                    {
                        "number": 64,
                        "time": 569.4104166666767,
                        "value": 0.49606299212598426
                    },
                    {
                        "number": 64,
                        "time": 569.4208333333434,
                        "value": 0
                    },
                    {
                        "number": 64,
                        "time": 569.60625000001,
                        "value": 1
                    },
                    {
                        "number": 64,
                        "time": 570.4729166666768,
                        "value": 0.49606299212598426
                    },
                    {
                        "number": 64,
                        "time": 570.4770833333436,
                        "value": 0
                    },
                    {
                        "number": 64,
                        "time": 570.6437500000102,
                        "value": 0.49606299212598426
                    },
                    {
                        "number": 64,
                        "time": 570.6458333333435,
                        "value": 1
                    },
                    {
                        "number": 64,
                        "time": 571.5520833333435,
                        "value": 0.49606299212598426
                    },
                    {
                        "number": 64,
                        "time": 571.5666666666768,
                        "value": 0
                    },
                    {
                        "number": 64,
                        "time": 571.66875000001,
                        "value": 0.49606299212598426
                    },
                    {
                        "number": 64,
                        "time": 571.6833333333435,
                        "value": 1
                    },
                    {
                        "number": 64,
                        "time": 572.3458333333436,
                        "value": 0.49606299212598426
                    },
                    {
                        "number": 64,
                        "time": 572.3687500000103,
                        "value": 0
                    },
                    {
                        "number": 64,
                        "time": 572.535416666677,
                        "value": 0.49606299212598426
                    },
                    {
                        "number": 64,
                        "time": 572.547916666677,
                        "value": 1
                    },
                    {
                        "number": 64,
                        "time": 573.4229166666769,
                        "value": 0.49606299212598426
                    },
                    {
                        "number": 64,
                        "time": 573.4541666666769,
                        "value": 0
                    },
                    {
                        "number": 64,
                        "time": 573.5916666666769,
                        "value": 0.49606299212598426
                    },
                    {
                        "number": 64,
                        "time": 573.604166666677,
                        "value": 1
                    },
                    {
                        "number": 64,
                        "time": 574.079166666677,
                        "value": 0.49606299212598426
                    },
                    {
                        "number": 64,
                        "time": 574.0875000000103,
                        "value": 0
                    },
                    {
                        "number": 64,
                        "time": 574.460416666677,
                        "value": 0.49606299212598426
                    },
                    {
                        "number": 64,
                        "time": 574.4625000000103,
                        "value": 1
                    },
                    {
                        "number": 64,
                        "time": 574.7708333333436,
                        "value": 0.49606299212598426
                    },
                    {
                        "number": 64,
                        "time": 574.7770833333436,
                        "value": 0
                    },
                    {
                        "number": 64,
                        "time": 575.4562500000103,
                        "value": 1
                    },
                    {
                        "number": 64,
                        "time": 576.18750000001,
                        "value": 0.49606299212598426
                    },
                    {
                        "number": 64,
                        "time": 576.2041666666767,
                        "value": 0
                    },
                    {
                        "number": 64,
                        "time": 576.4458333333433,
                        "value": 0.49606299212598426
                    },
                    {
                        "number": 64,
                        "time": 576.4479166666766,
                        "value": 1
                    },
                    {
                        "number": 64,
                        "time": 576.7833333333431,
                        "value": 0.49606299212598426
                    },
                    {
                        "number": 64,
                        "time": 576.7937500000097,
                        "value": 0
                    },
                    {
                        "number": 64,
                        "time": 577.045833333343,
                        "value": 0.49606299212598426
                    },
                    {
                        "number": 64,
                        "time": 577.0479166666763,
                        "value": 1
                    },
                    {
                        "number": 64,
                        "time": 577.183333333343,
                        "value": 0.49606299212598426
                    },
                    {
                        "number": 64,
                        "time": 577.1875000000097,
                        "value": 0
                    },
                    {
                        "number": 64,
                        "time": 577.2916666666763,
                        "value": 0.49606299212598426
                    },
                    {
                        "number": 64,
                        "time": 577.295833333343,
                        "value": 1
                    },
                    {
                        "number": 64,
                        "time": 577.583333333343,
                        "value": 0.49606299212598426
                    },
                    {
                        "number": 64,
                        "time": 577.5875000000098,
                        "value": 0
                    },
                    {
                        "number": 64,
                        "time": 579.139583333343,
                        "value": 1
                    },
                    {
                        "number": 64,
                        "time": 579.795833333343,
                        "value": 0.49606299212598426
                    },
                    {
                        "number": 64,
                        "time": 579.8083333333431,
                        "value": 0
                    },
                    {
                        "number": 64,
                        "time": 580.0604166666764,
                        "value": 0.49606299212598426
                    },
                    {
                        "number": 64,
                        "time": 580.0625000000097,
                        "value": 1
                    },
                    {
                        "number": 64,
                        "time": 580.4416666666763,
                        "value": 0.49606299212598426
                    },
                    {
                        "number": 64,
                        "time": 580.4500000000096,
                        "value": 0
                    },
                    {
                        "number": 64,
                        "time": 580.5625000000095,
                        "value": 0.49606299212598426
                    },
                    {
                        "number": 64,
                        "time": 580.5750000000096,
                        "value": 1
                    },
                    {
                        "number": 64,
                        "time": 580.7270833333429,
                        "value": 0.49606299212598426
                    },
                    {
                        "number": 64,
                        "time": 580.7375000000095,
                        "value": 0
                    },
                    {
                        "number": 64,
                        "time": 580.9937500000095,
                        "value": 0.49606299212598426
                    },
                    {
                        "number": 64,
                        "time": 580.9937500000095,
                        "value": 1
                    },
                    {
                        "number": 64,
                        "time": 581.2854166666763,
                        "value": 0.49606299212598426
                    },
                    {
                        "number": 64,
                        "time": 581.289583333343,
                        "value": 0
                    },
                    {
                        "number": 64,
                        "time": 581.9354166666764,
                        "value": 0.49606299212598426
                    },
                    {
                        "number": 64,
                        "time": 581.9354166666764,
                        "value": 1
                    },
                    {
                        "number": 64,
                        "time": 582.1979166666764,
                        "value": 0.49606299212598426
                    },
                    {
                        "number": 64,
                        "time": 582.2125000000098,
                        "value": 0
                    },
                    {
                        "number": 64,
                        "time": 582.2270833333431,
                        "value": 0.49606299212598426
                    },
                    {
                        "number": 64,
                        "time": 582.2479166666764,
                        "value": 1
                    },
                    {
                        "number": 64,
                        "time": 582.3666666666763,
                        "value": 0.49606299212598426
                    },
                    {
                        "number": 64,
                        "time": 582.3875000000096,
                        "value": 0
                    },
                    {
                        "number": 64,
                        "time": 582.4229166666763,
                        "value": 0.49606299212598426
                    },
                    {
                        "number": 64,
                        "time": 582.4541666666763,
                        "value": 1
                    },
                    {
                        "number": 64,
                        "time": 582.527083333343,
                        "value": 0.49606299212598426
                    },
                    {
                        "number": 64,
                        "time": 582.5562500000095,
                        "value": 0
                    },
                    {
                        "number": 64,
                        "time": 582.8020833333429,
                        "value": 1
                    },
                    {
                        "number": 64,
                        "time": 583.4458333333429,
                        "value": 0.49606299212598426
                    },
                    {
                        "number": 64,
                        "time": 583.4562500000095,
                        "value": 0
                    },
                    {
                        "number": 64,
                        "time": 583.7437500000095,
                        "value": 0.49606299212598426
                    },
                    {
                        "number": 64,
                        "time": 583.7437500000095,
                        "value": 1
                    },
                    {
                        "number": 64,
                        "time": 584.2270833333429,
                        "value": 0.49606299212598426
                    },
                    {
                        "number": 64,
                        "time": 584.2354166666762,
                        "value": 0
                    },
                    {
                        "number": 64,
                        "time": 584.3875000000095,
                        "value": 0.49606299212598426
                    },
                    {
                        "number": 64,
                        "time": 584.3937500000095,
                        "value": 1
                    },
                    {
                        "number": 64,
                        "time": 584.5375000000096,
                        "value": 0.49606299212598426
                    },
                    {
                        "number": 64,
                        "time": 584.5458333333429,
                        "value": 0
                    },
                    {
                        "number": 64,
                        "time": 584.6666666666762,
                        "value": 0.49606299212598426
                    },
                    {
                        "number": 64,
                        "time": 584.6729166666762,
                        "value": 1
                    },
                    {
                        "number": 64,
                        "time": 584.9416666666762,
                        "value": 0.49606299212598426
                    },
                    {
                        "number": 64,
                        "time": 584.9458333333429,
                        "value": 0
                    },
                    {
                        "number": 64,
                        "time": 585.5333333333431,
                        "value": 1
                    },
                    {
                        "number": 64,
                        "time": 585.7854166666764,
                        "value": 0.49606299212598426
                    },
                    {
                        "number": 64,
                        "time": 585.7895833333431,
                        "value": 0
                    },
                    {
                        "number": 64,
                        "time": 586.1125000000098,
                        "value": 1
                    },
                    {
                        "number": 64,
                        "time": 586.2187500000098,
                        "value": 0.49606299212598426
                    },
                    {
                        "number": 64,
                        "time": 586.2250000000098,
                        "value": 0
                    },
                    {
                        "number": 64,
                        "time": 586.4520833333431,
                        "value": 1
                    },
                    {
                        "number": 64,
                        "time": 587.1250000000097,
                        "value": 0.49606299212598426
                    },
                    {
                        "number": 64,
                        "time": 587.1312500000096,
                        "value": 0
                    },
                    {
                        "number": 64,
                        "time": 587.4208333333429,
                        "value": 1
                    },
                    {
                        "number": 64,
                        "time": 588.0666666666763,
                        "value": 0.49606299212598426
                    },
                    {
                        "number": 64,
                        "time": 588.0687500000096,
                        "value": 1
                    },
                    {
                        "number": 64,
                        "time": 588.2770833333428,
                        "value": 0.49606299212598426
                    },
                    {
                        "number": 64,
                        "time": 588.2916666666762,
                        "value": 0
                    },
                    {
                        "number": 64,
                        "time": 588.3666666666762,
                        "value": 0.49606299212598426
                    },
                    {
                        "number": 64,
                        "time": 588.370833333343,
                        "value": 0
                    },
                    {
                        "number": 64,
                        "time": 588.414583333343,
                        "value": 0.49606299212598426
                    },
                    {
                        "number": 64,
                        "time": 588.420833333343,
                        "value": 1
                    },
                    {
                        "number": 64,
                        "time": 588.9979166666765,
                        "value": 0.49606299212598426
                    },
                    {
                        "number": 64,
                        "time": 589.0041666666765,
                        "value": 0
                    },
                    {
                        "number": 64,
                        "time": 589.3354166666766,
                        "value": 1
                    },
                    {
                        "number": 64,
                        "time": 590.4041666666765,
                        "value": 1
                    },
                    {
                        "number": 64,
                        "time": 590.4458333333431,
                        "value": 0.49606299212598426
                    },
                    {
                        "number": 64,
                        "time": 590.4541666666764,
                        "value": 0
                    },
                    {
                        "number": 64,
                        "time": 590.4916666666765,
                        "value": 0.49606299212598426
                    },
                    {
                        "number": 64,
                        "time": 590.5020833333431,
                        "value": 0
                    },
                    {
                        "number": 64,
                        "time": 590.552083333343,
                        "value": 0.49606299212598426
                    },
                    {
                        "number": 64,
                        "time": 590.5562500000098,
                        "value": 1
                    },
                    {
                        "number": 64,
                        "time": 591.0333333333432,
                        "value": 0.49606299212598426
                    },
                    {
                        "number": 64,
                        "time": 591.0395833333432,
                        "value": 0
                    },
                    {
                        "number": 64,
                        "time": 591.4062500000098,
                        "value": 1
                    },
                    {
                        "number": 64,
                        "time": 591.9833333333431,
                        "value": 1
                    },
                    {
                        "number": 64,
                        "time": 592.0833333333433,
                        "value": 0.49606299212598426
                    },
                    {
                        "number": 64,
                        "time": 592.0958333333433,
                        "value": 0
                    },
                    {
                        "number": 64,
                        "time": 592.34375000001,
                        "value": 1
                    },
                    {
                        "number": 64,
                        "time": 592.7354166666769,
                        "value": 0
                    },
                    {
                        "number": 64,
                        "time": 592.9875000000103,
                        "value": 1
                    },
                    {
                        "number": 64,
                        "time": 593.4041666666772,
                        "value": 0.49606299212598426
                    },
                    {
                        "number": 64,
                        "time": 593.4041666666772,
                        "value": 0
                    },
                    {
                        "number": 64,
                        "time": 593.6791666666771,
                        "value": 1
                    },
                    {
                        "number": 64,
                        "time": 594.266666666677,
                        "value": 0.49606299212598426
                    },
                    {
                        "number": 64,
                        "time": 594.2770833333436,
                        "value": 0
                    },
                    {
                        "number": 64,
                        "time": 594.6416666666769,
                        "value": 1
                    },
                    {
                        "number": 64,
                        "time": 595.9604166666769,
                        "value": 0.49606299212598426
                    },
                    {
                        "number": 64,
                        "time": 595.9708333333435,
                        "value": 0
                    },
                    {
                        "number": 64,
                        "time": 596.0770833333435,
                        "value": 0.49606299212598426
                    },
                    {
                        "number": 64,
                        "time": 596.0875000000101,
                        "value": 1
                    },
                    {
                        "number": 64,
                        "time": 597.1041666666766,
                        "value": 0.49606299212598426
                    },
                    {
                        "number": 64,
                        "time": 597.1166666666767,
                        "value": 0
                    },
                    {
                        "number": 64,
                        "time": 597.20625000001,
                        "value": 0.49606299212598426
                    },
                    {
                        "number": 64,
                        "time": 597.2208333333433,
                        "value": 1
                    },
                    {
                        "number": 64,
                        "time": 598.5166666666763,
                        "value": 0.49606299212598426
                    },
                    {
                        "number": 64,
                        "time": 598.5250000000096,
                        "value": 0
                    },
                    {
                        "number": 64,
                        "time": 598.6270833333431,
                        "value": 0.49606299212598426
                    },
                    {
                        "number": 64,
                        "time": 598.6437500000097,
                        "value": 1
                    },
                    {
                        "number": 64,
                        "time": 599.2562500000097,
                        "value": 0.49606299212598426
                    },
                    {
                        "number": 64,
                        "time": 599.2812500000097,
                        "value": 1
                    },
                    {
                        "number": 64,
                        "time": 599.7291666666763,
                        "value": 0.49606299212598426
                    },
                    {
                        "number": 64,
                        "time": 599.7375000000096,
                        "value": 0
                    },
                    {
                        "number": 64,
                        "time": 599.9479166666763,
                        "value": 0.49606299212598426
                    },
                    {
                        "number": 64,
                        "time": 599.9541666666763,
                        "value": 1
                    },
                    {
                        "number": 64,
                        "time": 601.4437500000098,
                        "value": 0.49606299212598426
                    },
                    {
                        "number": 64,
                        "time": 601.4812500000098,
                        "value": 0
                    },
                    {
                        "number": 64,
                        "time": 602.0541666666767,
                        "value": 0.49606299212598426
                    },
                    {
                        "number": 64,
                        "time": 602.05625000001,
                        "value": 1
                    },
                    {
                        "number": 64,
                        "time": 602.31875000001,
                        "value": 0.49606299212598426
                    },
                    {
                        "number": 64,
                        "time": 602.3229166666767,
                        "value": 0
                    },
                    {
                        "number": 64,
                        "time": 602.9645833333432,
                        "value": 0.49606299212598426
                    },
                    {
                        "number": 64,
                        "time": 602.9666666666765,
                        "value": 1
                    },
                    {
                        "number": 64,
                        "time": 603.2645833333431,
                        "value": 0.49606299212598426
                    },
                    {
                        "number": 64,
                        "time": 603.2687500000098,
                        "value": 0
                    },
                    {
                        "number": 64,
                        "time": 603.9041666666766,
                        "value": 0.49606299212598426
                    },
                    {
                        "number": 64,
                        "time": 603.9062500000099,
                        "value": 1
                    },
                    {
                        "number": 64,
                        "time": 604.2291666666767,
                        "value": 0.49606299212598426
                    },
                    {
                        "number": 64,
                        "time": 604.2395833333434,
                        "value": 0
                    },
                    {
                        "number": 64,
                        "time": 604.8354166666766,
                        "value": 1
                    },
                    {
                        "number": 64,
                        "time": 605.177083333343,
                        "value": 0.49606299212598426
                    },
                    {
                        "number": 64,
                        "time": 605.1833333333431,
                        "value": 0
                    },
                    {
                        "number": 64,
                        "time": 605.3916666666763,
                        "value": 0.49606299212598426
                    },
                    {
                        "number": 64,
                        "time": 605.414583333343,
                        "value": 1
                    },
                    {
                        "number": 64,
                        "time": 605.827083333343,
                        "value": 0.49606299212598426
                    },
                    {
                        "number": 64,
                        "time": 605.8375000000096,
                        "value": 0
                    },
                    {
                        "number": 64,
                        "time": 606.0854166666763,
                        "value": 0.49606299212598426
                    },
                    {
                        "number": 64,
                        "time": 606.0854166666763,
                        "value": 1
                    },
                    {
                        "number": 64,
                        "time": 607.0395833333431,
                        "value": 0.49606299212598426
                    },
                    {
                        "number": 64,
                        "time": 607.0500000000097,
                        "value": 0
                    },
                    {
                        "number": 64,
                        "time": 607.3937500000096,
                        "value": 0.49606299212598426
                    },
                    {
                        "number": 64,
                        "time": 607.3979166666763,
                        "value": 1
                    },
                    {
                        "number": 64,
                        "time": 608.6083333333428,
                        "value": 0.49606299212598426
                    },
                    {
                        "number": 64,
                        "time": 608.6208333333428,
                        "value": 0
                    },
                    {
                        "number": 64,
                        "time": 608.7333333333428,
                        "value": 0.49606299212598426
                    },
                    {
                        "number": 64,
                        "time": 608.7395833333428,
                        "value": 1
                    },
                    {
                        "number": 64,
                        "time": 609.1187500000094,
                        "value": 0.49606299212598426
                    },
                    {
                        "number": 64,
                        "time": 609.1270833333427,
                        "value": 0
                    },
                    {
                        "number": 64,
                        "time": 609.8687500000094,
                        "value": 0.49606299212598426
                    },
                    {
                        "number": 64,
                        "time": 609.8687500000094,
                        "value": 1
                    },
                    {
                        "number": 64,
                        "time": 611.097916666676,
                        "value": 0.49606299212598426
                    },
                    {
                        "number": 64,
                        "time": 611.1062500000094,
                        "value": 0
                    },
                    {
                        "number": 64,
                        "time": 611.3020833333428,
                        "value": 0.49606299212598426
                    },
                    {
                        "number": 64,
                        "time": 611.3083333333428,
                        "value": 1
                    },
                    {
                        "number": 64,
                        "time": 612.395833333343,
                        "value": 0.49606299212598426
                    },
                    {
                        "number": 64,
                        "time": 612.4083333333431,
                        "value": 0
                    },
                    {
                        "number": 64,
                        "time": 612.5375000000097,
                        "value": 0.49606299212598426
                    },
                    {
                        "number": 64,
                        "time": 612.5437500000097,
                        "value": 1
                    },
                    {
                        "number": 64,
                        "time": 613.014583333343,
                        "value": 0.49606299212598426
                    },
                    {
                        "number": 64,
                        "time": 613.020833333343,
                        "value": 0
                    },
                    {
                        "number": 64,
                        "time": 613.1125000000097,
                        "value": 0.49606299212598426
                    },
                    {
                        "number": 64,
                        "time": 613.1229166666764,
                        "value": 1
                    },
                    {
                        "number": 64,
                        "time": 613.4479166666764,
                        "value": 0.49606299212598426
                    },
                    {
                        "number": 64,
                        "time": 613.4562500000097,
                        "value": 0
                    },
                    {
                        "number": 64,
                        "time": 613.5895833333431,
                        "value": 0.49606299212598426
                    },
                    {
                        "number": 64,
                        "time": 613.5916666666764,
                        "value": 1
                    },
                    {
                        "number": 64,
                        "time": 614.4020833333432,
                        "value": 0.49606299212598426
                    },
                    {
                        "number": 64,
                        "time": 614.4083333333432,
                        "value": 0
                    },
                    {
                        "number": 64,
                        "time": 614.5375000000098,
                        "value": 0.49606299212598426
                    },
                    {
                        "number": 64,
                        "time": 614.5437500000098,
                        "value": 1
                    },
                    {
                        "number": 64,
                        "time": 614.9083333333431,
                        "value": 0.49606299212598426
                    },
                    {
                        "number": 64,
                        "time": 614.9166666666764,
                        "value": 0
                    },
                    {
                        "number": 64,
                        "time": 615.145833333343,
                        "value": 0.49606299212598426
                    },
                    {
                        "number": 64,
                        "time": 615.1479166666763,
                        "value": 1
                    },
                    {
                        "number": 64,
                        "time": 615.5645833333431,
                        "value": 0.49606299212598426
                    },
                    {
                        "number": 64,
                        "time": 615.5708333333431,
                        "value": 0
                    },
                    {
                        "number": 64,
                        "time": 615.6833333333431,
                        "value": 0.49606299212598426
                    },
                    {
                        "number": 64,
                        "time": 615.6875000000098,
                        "value": 1
                    },
                    {
                        "number": 64,
                        "time": 615.8437500000098,
                        "value": 0.49606299212598426
                    },
                    {
                        "number": 64,
                        "time": 615.8520833333431,
                        "value": 0
                    },
                    {
                        "number": 64,
                        "time": 615.9479166666765,
                        "value": 0.49606299212598426
                    },
                    {
                        "number": 64,
                        "time": 615.9562500000098,
                        "value": 1
                    },
                    {
                        "number": 64,
                        "time": 616.1458333333431,
                        "value": 0.49606299212598426
                    },
                    {
                        "number": 64,
                        "time": 616.1541666666765,
                        "value": 0
                    },
                    {
                        "number": 64,
                        "time": 616.2354166666764,
                        "value": 0.49606299212598426
                    },
                    {
                        "number": 64,
                        "time": 616.2437500000098,
                        "value": 1
                    },
                    {
                        "number": 64,
                        "time": 616.4979166666766,
                        "value": 0.49606299212598426
                    },
                    {
                        "number": 64,
                        "time": 616.5020833333433,
                        "value": 0
                    },
                    {
                        "number": 64,
                        "time": 616.6229166666766,
                        "value": 0.49606299212598426
                    },
                    {
                        "number": 64,
                        "time": 616.6270833333433,
                        "value": 1
                    },
                    {
                        "number": 64,
                        "time": 616.8458333333433,
                        "value": 0.49606299212598426
                    },
                    {
                        "number": 64,
                        "time": 616.85000000001,
                        "value": 0
                    },
                    {
                        "number": 64,
                        "time": 616.9145833333433,
                        "value": 0.49606299212598426
                    },
                    {
                        "number": 64,
                        "time": 616.92500000001,
                        "value": 1
                    },
                    {
                        "number": 64,
                        "time": 617.3395833333432,
                        "value": 0.49606299212598426
                    },
                    {
                        "number": 64,
                        "time": 617.3458333333432,
                        "value": 0
                    },
                    {
                        "number": 64,
                        "time": 617.5291666666765,
                        "value": 0.49606299212598426
                    },
                    {
                        "number": 64,
                        "time": 617.5312500000098,
                        "value": 1
                    },
                    {
                        "number": 64,
                        "time": 617.7645833333431,
                        "value": 0.49606299212598426
                    },
                    {
                        "number": 64,
                        "time": 617.7687500000098,
                        "value": 0
                    },
                    {
                        "number": 64,
                        "time": 618.0958333333433,
                        "value": 1
                    },
                    {
                        "number": 64,
                        "time": 618.8395833333434,
                        "value": 0.49606299212598426
                    },
                    {
                        "number": 64,
                        "time": 618.8437500000101,
                        "value": 0
                    },
                    {
                        "number": 64,
                        "time": 619.354166666677,
                        "value": 1
                    },
                    {
                        "number": 64,
                        "time": 619.641666666677,
                        "value": 0.49606299212598426
                    },
                    {
                        "number": 64,
                        "time": 619.6458333333437,
                        "value": 0
                    },
                    {
                        "number": 64,
                        "time": 620.2458333333437,
                        "value": 1
                    },
                    {
                        "number": 64,
                        "time": 620.6104166666771,
                        "value": 0.49606299212598426
                    },
                    {
                        "number": 64,
                        "time": 620.6125000000104,
                        "value": 0
                    },
                    {
                        "number": 64,
                        "time": 621.1958333333439,
                        "value": 1
                    },
                    {
                        "number": 64,
                        "time": 621.4750000000105,
                        "value": 0.49606299212598426
                    },
                    {
                        "number": 64,
                        "time": 621.4791666666772,
                        "value": 0
                    },
                    {
                        "number": 64,
                        "time": 621.752083333344,
                        "value": 0.49606299212598426
                    },
                    {
                        "number": 64,
                        "time": 621.752083333344,
                        "value": 1
                    },
                    {
                        "number": 64,
                        "time": 622.0062500000107,
                        "value": 0.49606299212598426
                    },
                    {
                        "number": 64,
                        "time": 622.0104166666774,
                        "value": 0
                    },
                    {
                        "number": 64,
                        "time": 622.1604166666774,
                        "value": 0.49606299212598426
                    },
                    {
                        "number": 64,
                        "time": 622.1625000000107,
                        "value": 1
                    },
                    {
                        "number": 64,
                        "time": 622.789583333344,
                        "value": 0.49606299212598426
                    },
                    {
                        "number": 64,
                        "time": 622.8041666666774,
                        "value": 0
                    },
                    {
                        "number": 64,
                        "time": 623.0354166666772,
                        "value": 0.49606299212598426
                    },
                    {
                        "number": 64,
                        "time": 623.0375000000105,
                        "value": 1
                    },
                    {
                        "number": 64,
                        "time": 623.3979166666772,
                        "value": 0.49606299212598426
                    },
                    {
                        "number": 64,
                        "time": 623.402083333344,
                        "value": 0
                    },
                    {
                        "number": 64,
                        "time": 623.6979166666772,
                        "value": 0.49606299212598426
                    },
                    {
                        "number": 64,
                        "time": 623.7000000000105,
                        "value": 1
                    },
                    {
                        "number": 64,
                        "time": 623.9062500000105,
                        "value": 0.49606299212598426
                    },
                    {
                        "number": 64,
                        "time": 623.9145833333438,
                        "value": 0
                    },
                    {
                        "number": 64,
                        "time": 623.9541666666771,
                        "value": 0.49606299212598426
                    },
                    {
                        "number": 64,
                        "time": 623.9645833333437,
                        "value": 1
                    },
                    {
                        "number": 64,
                        "time": 624.3104166666769,
                        "value": 0.49606299212598426
                    },
                    {
                        "number": 64,
                        "time": 624.3145833333436,
                        "value": 0
                    },
                    {
                        "number": 64,
                        "time": 624.8520833333434,
                        "value": 1
                    },
                    {
                        "number": 64,
                        "time": 625.1645833333434,
                        "value": 0.49606299212598426
                    },
                    {
                        "number": 64,
                        "time": 625.1729166666768,
                        "value": 0
                    },
                    {
                        "number": 64,
                        "time": 625.4354166666768,
                        "value": 1
                    },
                    {
                        "number": 64,
                        "time": 625.76250000001,
                        "value": 0.49606299212598426
                    },
                    {
                        "number": 64,
                        "time": 625.7666666666768,
                        "value": 0
                    },
                    {
                        "number": 64,
                        "time": 625.8229166666769,
                        "value": 0.49606299212598426
                    },
                    {
                        "number": 64,
                        "time": 625.8354166666769,
                        "value": 1
                    },
                    {
                        "number": 64,
                        "time": 626.0583333333435,
                        "value": 0.49606299212598426
                    },
                    {
                        "number": 64,
                        "time": 626.0625000000102,
                        "value": 0
                    },
                    {
                        "number": 64,
                        "time": 626.6479166666769,
                        "value": 0.49606299212598426
                    },
                    {
                        "number": 64,
                        "time": 626.6479166666769,
                        "value": 1
                    },
                    {
                        "number": 64,
                        "time": 626.916666666677,
                        "value": 0.49606299212598426
                    },
                    {
                        "number": 64,
                        "time": 626.9208333333436,
                        "value": 0
                    },
                    {
                        "number": 64,
                        "time": 627.5000000000102,
                        "value": 0.49606299212598426
                    },
                    {
                        "number": 64,
                        "time": 627.5000000000102,
                        "value": 1
                    },
                    {
                        "number": 64,
                        "time": 627.7937500000104,
                        "value": 0.49606299212598426
                    },
                    {
                        "number": 64,
                        "time": 627.8020833333437,
                        "value": 0
                    },
                    {
                        "number": 64,
                        "time": 628.3520833333437,
                        "value": 1
                    },
                    {
                        "number": 64,
                        "time": 628.6125000000105,
                        "value": 0.49606299212598426
                    },
                    {
                        "number": 64,
                        "time": 628.6187500000106,
                        "value": 0
                    },
                    {
                        "number": 64,
                        "time": 629.1145833333438,
                        "value": 0.49606299212598426
                    },
                    {
                        "number": 64,
                        "time": 629.1145833333438,
                        "value": 1
                    },
                    {
                        "number": 64,
                        "time": 629.3729166666772,
                        "value": 0.49606299212598426
                    },
                    {
                        "number": 64,
                        "time": 629.3770833333439,
                        "value": 0
                    },
                    {
                        "number": 64,
                        "time": 629.9083333333442,
                        "value": 0.49606299212598426
                    },
                    {
                        "number": 64,
                        "time": 629.9104166666775,
                        "value": 1
                    },
                    {
                        "number": 64,
                        "time": 630.1833333333442,
                        "value": 0.49606299212598426
                    },
                    {
                        "number": 64,
                        "time": 630.1895833333441,
                        "value": 0
                    },
                    {
                        "number": 64,
                        "time": 630.6750000000108,
                        "value": 0.49606299212598426
                    },
                    {
                        "number": 64,
                        "time": 630.6750000000108,
                        "value": 1
                    },
                    {
                        "number": 64,
                        "time": 631.0125000000106,
                        "value": 0.49606299212598426
                    },
                    {
                        "number": 64,
                        "time": 631.033333333344,
                        "value": 0
                    },
                    {
                        "number": 64,
                        "time": 631.5395833333442,
                        "value": 1
                    },
                    {
                        "number": 64,
                        "time": 632.8062500000109,
                        "value": 0.49606299212598426
                    },
                    {
                        "number": 64,
                        "time": 632.8125000000109,
                        "value": 0
                    },
                    {
                        "number": 64,
                        "time": 632.8791666666776,
                        "value": 0.49606299212598426
                    },
                    {
                        "number": 64,
                        "time": 632.8979166666776,
                        "value": 1
                    },
                    {
                        "number": 64,
                        "time": 633.4312500000112,
                        "value": 0.49606299212598426
                    },
                    {
                        "number": 64,
                        "time": 633.4375000000113,
                        "value": 0
                    },
                    {
                        "number": 64,
                        "time": 633.5229166666779,
                        "value": 0.49606299212598426
                    },
                    {
                        "number": 64,
                        "time": 633.535416666678,
                        "value": 1
                    },
                    {
                        "number": 64,
                        "time": 634.3145833333452,
                        "value": 0.49606299212598426
                    },
                    {
                        "number": 64,
                        "time": 634.3208333333453,
                        "value": 0
                    },
                    {
                        "number": 64,
                        "time": 634.3812500000121,
                        "value": 0.49606299212598426
                    },
                    {
                        "number": 64,
                        "time": 634.4020833333454,
                        "value": 1
                    },
                    {
                        "number": 64,
                        "time": 635.1625000000122,
                        "value": 0.49606299212598426
                    },
                    {
                        "number": 64,
                        "time": 635.1687500000122,
                        "value": 0
                    },
                    {
                        "number": 64,
                        "time": 635.2458333333456,
                        "value": 0.49606299212598426
                    },
                    {
                        "number": 64,
                        "time": 635.2583333333455,
                        "value": 1
                    },
                    {
                        "number": 64,
                        "time": 636.0229166666791,
                        "value": 0.49606299212598426
                    },
                    {
                        "number": 64,
                        "time": 636.0291666666791,
                        "value": 0
                    },
                    {
                        "number": 64,
                        "time": 636.1041666666791,
                        "value": 0.49606299212598426
                    },
                    {
                        "number": 64,
                        "time": 636.1250000000125,
                        "value": 1
                    },
                    {
                        "number": 64,
                        "time": 636.8666666666792,
                        "value": 0.49606299212598426
                    },
                    {
                        "number": 64,
                        "time": 636.8812500000124,
                        "value": 0
                    },
                    {
                        "number": 64,
                        "time": 636.9520833333459,
                        "value": 0.49606299212598426
                    },
                    {
                        "number": 64,
                        "time": 636.9666666666792,
                        "value": 1
                    },
                    {
                        "number": 64,
                        "time": 637.6666666666796,
                        "value": 0.49606299212598426
                    },
                    {
                        "number": 64,
                        "time": 637.6750000000129,
                        "value": 0
                    },
                    {
                        "number": 64,
                        "time": 637.7583333333463,
                        "value": 0.49606299212598426
                    },
                    {
                        "number": 64,
                        "time": 637.7729166666796,
                        "value": 1
                    },
                    {
                        "number": 64,
                        "time": 638.7416666666801,
                        "value": 0.49606299212598426
                    },
                    {
                        "number": 64,
                        "time": 638.7520833333467,
                        "value": 0
                    },
                    {
                        "number": 64,
                        "time": 638.8270833333468,
                        "value": 0.49606299212598426
                    },
                    {
                        "number": 64,
                        "time": 638.8437500000134,
                        "value": 1
                    },
                    {
                        "number": 64,
                        "time": 639.525000000014,
                        "value": 0.49606299212598426
                    },
                    {
                        "number": 64,
                        "time": 639.525000000014,
                        "value": 0
                    },
                    {
                        "number": 64,
                        "time": 639.6541666666807,
                        "value": 0.49606299212598426
                    },
                    {
                        "number": 64,
                        "time": 639.662500000014,
                        "value": 1
                    },
                    {
                        "number": 64,
                        "time": 640.5145833333473,
                        "value": 0.49606299212598426
                    },
                    {
                        "number": 64,
                        "time": 640.525000000014,
                        "value": 0
                    },
                    {
                        "number": 64,
                        "time": 640.6166666666805,
                        "value": 0.49606299212598426
                    },
                    {
                        "number": 64,
                        "time": 640.6333333333472,
                        "value": 1
                    },
                    {
                        "number": 64,
                        "time": 641.3729166666803,
                        "value": 0.49606299212598426
                    },
                    {
                        "number": 64,
                        "time": 641.383333333347,
                        "value": 0
                    },
                    {
                        "number": 64,
                        "time": 641.4645833333469,
                        "value": 0.49606299212598426
                    },
                    {
                        "number": 64,
                        "time": 641.4833333333469,
                        "value": 1
                    },
                    {
                        "number": 64,
                        "time": 642.1875000000136,
                        "value": 0.49606299212598426
                    },
                    {
                        "number": 64,
                        "time": 642.1979166666803,
                        "value": 0
                    },
                    {
                        "number": 64,
                        "time": 642.283333333347,
                        "value": 0.49606299212598426
                    },
                    {
                        "number": 64,
                        "time": 642.3000000000136,
                        "value": 1
                    },
                    {
                        "number": 64,
                        "time": 642.9229166666803,
                        "value": 0.49606299212598426
                    },
                    {
                        "number": 64,
                        "time": 642.9333333333469,
                        "value": 0
                    },
                    {
                        "number": 64,
                        "time": 643.1625000000137,
                        "value": 0.49606299212598426
                    },
                    {
                        "number": 64,
                        "time": 643.1666666666804,
                        "value": 1
                    },
                    {
                        "number": 64,
                        "time": 644.0708333333471,
                        "value": 0.49606299212598426
                    },
                    {
                        "number": 64,
                        "time": 644.0937500000139,
                        "value": 0
                    },
                    {
                        "number": 64,
                        "time": 644.1625000000139,
                        "value": 0.49606299212598426
                    },
                    {
                        "number": 64,
                        "time": 644.1875000000139,
                        "value": 1
                    },
                    {
                        "number": 64,
                        "time": 645.8291666666811,
                        "value": 0.49606299212598426
                    },
                    {
                        "number": 64,
                        "time": 645.8375000000144,
                        "value": 0
                    },
                    {
                        "number": 64,
                        "time": 645.9125000000145,
                        "value": 0.49606299212598426
                    },
                    {
                        "number": 64,
                        "time": 645.9291666666811,
                        "value": 1
                    },
                    {
                        "number": 64,
                        "time": 647.6520833333484,
                        "value": 0.49606299212598426
                    },
                    {
                        "number": 64,
                        "time": 647.6604166666817,
                        "value": 0
                    },
                    {
                        "number": 64,
                        "time": 647.7416666666817,
                        "value": 0.49606299212598426
                    },
                    {
                        "number": 64,
                        "time": 647.7729166666817,
                        "value": 1
                    },
                    {
                        "number": 64,
                        "time": 648.4645833333485,
                        "value": 0.49606299212598426
                    },
                    {
                        "number": 64,
                        "time": 648.4770833333486,
                        "value": 0
                    },
                    {
                        "number": 64,
                        "time": 648.5145833333486,
                        "value": 0.49606299212598426
                    },
                    {
                        "number": 64,
                        "time": 648.547916666682,
                        "value": 1
                    },
                    {
                        "number": 64,
                        "time": 649.6312500000154,
                        "value": 0.49606299212598426
                    },
                    {
                        "number": 64,
                        "time": 649.6333333333487,
                        "value": 1
                    },
                    {
                        "number": 64,
                        "time": 650.1145833333488,
                        "value": 0.49606299212598426
                    },
                    {
                        "number": 64,
                        "time": 650.1229166666822,
                        "value": 0
                    },
                    {
                        "number": 64,
                        "time": 658.145833333349,
                        "value": 0.49606299212598426
                    },
                    {
                        "number": 64,
                        "time": 658.1541666666823,
                        "value": 1
                    },
                    {
                        "number": 64,
                        "time": 658.8895833333488,
                        "value": 0.49606299212598426
                    },
                    {
                        "number": 64,
                        "time": 658.9041666666822,
                        "value": 0
                    },
                    {
                        "number": 64,
                        "time": 659.3416666666822,
                        "value": 0.49606299212598426
                    },
                    {
                        "number": 64,
                        "time": 659.3479166666822,
                        "value": 1
                    },
                    {
                        "number": 64,
                        "time": 660.0708333333489,
                        "value": 0.49606299212598426
                    },
                    {
                        "number": 64,
                        "time": 660.0854166666822,
                        "value": 0
                    },
                    {
                        "number": 64,
                        "time": 660.5583333333489,
                        "value": 0.49606299212598426
                    },
                    {
                        "number": 64,
                        "time": 660.5645833333489,
                        "value": 1
                    },
                    {
                        "number": 64,
                        "time": 661.1750000000155,
                        "value": 0.49606299212598426
                    },
                    {
                        "number": 64,
                        "time": 661.1875000000156,
                        "value": 0
                    },
                    {
                        "number": 64,
                        "time": 661.6791666666824,
                        "value": 0.49606299212598426
                    },
                    {
                        "number": 64,
                        "time": 661.6854166666824,
                        "value": 1
                    },
                    {
                        "number": 64,
                        "time": 662.2333333333492,
                        "value": 0.49606299212598426
                    },
                    {
                        "number": 64,
                        "time": 662.2458333333492,
                        "value": 0
                    },
                    {
                        "number": 64,
                        "time": 662.8458333333491,
                        "value": 0.49606299212598426
                    },
                    {
                        "number": 64,
                        "time": 662.8479166666824,
                        "value": 1
                    },
                    {
                        "number": 64,
                        "time": 663.5666666666826,
                        "value": 0.49606299212598426
                    },
                    {
                        "number": 64,
                        "time": 663.5770833333493,
                        "value": 0
                    },
                    {
                        "number": 64,
                        "time": 663.9750000000162,
                        "value": 0.49606299212598426
                    },
                    {
                        "number": 64,
                        "time": 663.9770833333495,
                        "value": 1
                    },
                    {
                        "number": 64,
                        "time": 664.7104166666828,
                        "value": 0.49606299212598426
                    },
                    {
                        "number": 64,
                        "time": 664.7229166666829,
                        "value": 0
                    },
                    {
                        "number": 64,
                        "time": 665.1250000000161,
                        "value": 0.49606299212598426
                    },
                    {
                        "number": 64,
                        "time": 665.1291666666829,
                        "value": 1
                    },
                    {
                        "number": 64,
                        "time": 665.8083333333497,
                        "value": 0.49606299212598426
                    },
                    {
                        "number": 64,
                        "time": 665.8187500000163,
                        "value": 0
                    },
                    {
                        "number": 64,
                        "time": 666.2125000000163,
                        "value": 0.49606299212598426
                    },
                    {
                        "number": 64,
                        "time": 666.2145833333497,
                        "value": 1
                    },
                    {
                        "number": 64,
                        "time": 666.9187500000161,
                        "value": 0.49606299212598426
                    },
                    {
                        "number": 64,
                        "time": 666.9270833333494,
                        "value": 0
                    },
                    {
                        "number": 64,
                        "time": 667.337500000016,
                        "value": 0.49606299212598426
                    },
                    {
                        "number": 64,
                        "time": 667.3395833333493,
                        "value": 1
                    },
                    {
                        "number": 64,
                        "time": 668.2916666666827,
                        "value": 0.49606299212598426
                    },
                    {
                        "number": 64,
                        "time": 668.3020833333493,
                        "value": 0
                    },
                    {
                        "number": 64,
                        "time": 668.4875000000159,
                        "value": 0.49606299212598426
                    },
                    {
                        "number": 64,
                        "time": 668.4916666666826,
                        "value": 1
                    },
                    {
                        "number": 64,
                        "time": 669.3791666666826,
                        "value": 0.49606299212598426
                    },
                    {
                        "number": 64,
                        "time": 669.3895833333494,
                        "value": 0
                    },
                    {
                        "number": 64,
                        "time": 669.7312500000162,
                        "value": 0.49606299212598426
                    },
                    {
                        "number": 64,
                        "time": 669.7333333333495,
                        "value": 1
                    },
                    {
                        "number": 64,
                        "time": 670.5041666666825,
                        "value": 0.49606299212598426
                    },
                    {
                        "number": 64,
                        "time": 670.5104166666825,
                        "value": 0
                    },
                    {
                        "number": 64,
                        "time": 670.8833333333494,
                        "value": 0.49606299212598426
                    },
                    {
                        "number": 64,
                        "time": 670.8854166666827,
                        "value": 1
                    },
                    {
                        "number": 64,
                        "time": 671.600000000016,
                        "value": 0.49606299212598426
                    },
                    {
                        "number": 64,
                        "time": 671.6041666666828,
                        "value": 0
                    },
                    {
                        "number": 64,
                        "time": 671.9770833333495,
                        "value": 0.49606299212598426
                    },
                    {
                        "number": 64,
                        "time": 671.9791666666828,
                        "value": 1
                    },
                    {
                        "number": 64,
                        "time": 672.6875000000161,
                        "value": 0.49606299212598426
                    },
                    {
                        "number": 64,
                        "time": 672.6958333333495,
                        "value": 0
                    },
                    {
                        "number": 64,
                        "time": 672.8291666666828,
                        "value": 0.49606299212598426
                    },
                    {
                        "number": 64,
                        "time": 672.8416666666828,
                        "value": 1
                    },
                    {
                        "number": 64,
                        "time": 673.1500000000161,
                        "value": 0.49606299212598426
                    },
                    {
                        "number": 64,
                        "time": 673.1541666666828,
                        "value": 0
                    },
                    {
                        "number": 64,
                        "time": 673.2541666666829,
                        "value": 0.49606299212598426
                    },
                    {
                        "number": 64,
                        "time": 673.2666666666829,
                        "value": 1
                    },
                    {
                        "number": 64,
                        "time": 674.0437500000163,
                        "value": 0.49606299212598426
                    },
                    {
                        "number": 64,
                        "time": 674.0500000000163,
                        "value": 0
                    },
                    {
                        "number": 64,
                        "time": 674.3708333333499,
                        "value": 0.49606299212598426
                    },
                    {
                        "number": 64,
                        "time": 674.3729166666832,
                        "value": 1
                    },
                    {
                        "number": 64,
                        "time": 675.1416666666831,
                        "value": 0.49606299212598426
                    },
                    {
                        "number": 64,
                        "time": 675.1500000000165,
                        "value": 0
                    },
                    {
                        "number": 64,
                        "time": 675.4958333333498,
                        "value": 0.49606299212598426
                    },
                    {
                        "number": 64,
                        "time": 675.4979166666831,
                        "value": 1
                    },
                    {
                        "number": 64,
                        "time": 676.5187500000166,
                        "value": 0.49606299212598426
                    },
                    {
                        "number": 64,
                        "time": 676.5291666666832,
                        "value": 0
                    },
                    {
                        "number": 64,
                        "time": 676.6583333333499,
                        "value": 0.49606299212598426
                    },
                    {
                        "number": 64,
                        "time": 676.6687500000165,
                        "value": 1
                    },
                    {
                        "number": 64,
                        "time": 678.197916666683,
                        "value": 0.49606299212598426
                    },
                    {
                        "number": 64,
                        "time": 678.2083333333496,
                        "value": 0
                    },
                    {
                        "number": 64,
                        "time": 678.316666666683,
                        "value": 0.49606299212598426
                    },
                    {
                        "number": 64,
                        "time": 678.3250000000163,
                        "value": 1
                    },
                    {
                        "number": 64,
                        "time": 679.5125000000162,
                        "value": 0.49606299212598426
                    },
                    {
                        "number": 64,
                        "time": 679.5229166666828,
                        "value": 0
                    },
                    {
                        "number": 64,
                        "time": 679.6708333333495,
                        "value": 0.49606299212598426
                    },
                    {
                        "number": 64,
                        "time": 679.6791666666828,
                        "value": 1
                    },
                    {
                        "number": 64,
                        "time": 680.6562500000163,
                        "value": 0.49606299212598426
                    },
                    {
                        "number": 64,
                        "time": 680.6645833333496,
                        "value": 0
                    },
                    {
                        "number": 64,
                        "time": 680.7875000000162,
                        "value": 0.49606299212598426
                    },
                    {
                        "number": 64,
                        "time": 680.7937500000162,
                        "value": 1
                    },
                    {
                        "number": 64,
                        "time": 681.5291666666828,
                        "value": 0.49606299212598426
                    },
                    {
                        "number": 64,
                        "time": 681.5333333333494,
                        "value": 0
                    },
                    {
                        "number": 64,
                        "time": 681.9291666666828,
                        "value": 0.49606299212598426
                    },
                    {
                        "number": 64,
                        "time": 681.9312500000161,
                        "value": 1
                    },
                    {
                        "number": 64,
                        "time": 683.1312500000163,
                        "value": 0.49606299212598426
                    },
                    {
                        "number": 64,
                        "time": 683.1416666666829,
                        "value": 0
                    },
                    {
                        "number": 64,
                        "time": 683.2666666666829,
                        "value": 0.49606299212598426
                    },
                    {
                        "number": 64,
                        "time": 683.2729166666829,
                        "value": 1
                    },
                    {
                        "number": 64,
                        "time": 684.2104166666826,
                        "value": 0.49606299212598426
                    },
                    {
                        "number": 64,
                        "time": 684.2145833333493,
                        "value": 0
                    },
                    {
                        "number": 64,
                        "time": 684.3479166666826,
                        "value": 0.49606299212598426
                    },
                    {
                        "number": 64,
                        "time": 684.356250000016,
                        "value": 1
                    },
                    {
                        "number": 64,
                        "time": 685.2166666666827,
                        "value": 0.49606299212598426
                    },
                    {
                        "number": 64,
                        "time": 685.218750000016,
                        "value": 1
                    },
                    {
                        "number": 64,
                        "time": 685.5437500000161,
                        "value": 0.49606299212598426
                    },
                    {
                        "number": 64,
                        "time": 685.5479166666828,
                        "value": 0
                    },
                    {
                        "number": 64,
                        "time": 685.6729166666829,
                        "value": 0.49606299212598426
                    },
                    {
                        "number": 64,
                        "time": 685.6750000000162,
                        "value": 1
                    },
                    {
                        "number": 64,
                        "time": 686.3895833333495,
                        "value": 0.49606299212598426
                    },
                    {
                        "number": 64,
                        "time": 686.3979166666828,
                        "value": 0
                    },
                    {
                        "number": 64,
                        "time": 686.8000000000162,
                        "value": 1
                    },
                    {
                        "number": 64,
                        "time": 688.4562500000161,
                        "value": 0.49606299212598426
                    },
                    {
                        "number": 64,
                        "time": 688.4645833333494,
                        "value": 0
                    },
                    {
                        "number": 64,
                        "time": 688.6416666666828,
                        "value": 0.49606299212598426
                    },
                    {
                        "number": 64,
                        "time": 688.6500000000161,
                        "value": 1
                    },
                    {
                        "number": 64,
                        "time": 689.8020833333494,
                        "value": 0.49606299212598426
                    },
                    {
                        "number": 64,
                        "time": 689.818750000016,
                        "value": 0
                    },
                    {
                        "number": 64,
                        "time": 689.9229166666827,
                        "value": 0.49606299212598426
                    },
                    {
                        "number": 64,
                        "time": 689.9333333333493,
                        "value": 1
                    },
                    {
                        "number": 64,
                        "time": 690.8833333333492,
                        "value": 0.49606299212598426
                    },
                    {
                        "number": 64,
                        "time": 690.8916666666826,
                        "value": 0
                    },
                    {
                        "number": 64,
                        "time": 691.0104166666825,
                        "value": 0.49606299212598426
                    },
                    {
                        "number": 64,
                        "time": 691.0166666666826,
                        "value": 1
                    },
                    {
                        "number": 64,
                        "time": 691.7250000000159,
                        "value": 0.49606299212598426
                    },
                    {
                        "number": 64,
                        "time": 691.731250000016,
                        "value": 0
                    },
                    {
                        "number": 64,
                        "time": 692.1354166666824,
                        "value": 0.49606299212598426
                    },
                    {
                        "number": 64,
                        "time": 692.1375000000157,
                        "value": 1
                    },
                    {
                        "number": 64,
                        "time": 693.2666666666823,
                        "value": 0.49606299212598426
                    },
                    {
                        "number": 64,
                        "time": 693.277083333349,
                        "value": 0
                    },
                    {
                        "number": 64,
                        "time": 693.3812500000157,
                        "value": 0.49606299212598426
                    },
                    {
                        "number": 64,
                        "time": 693.3875000000157,
                        "value": 1
                    },
                    {
                        "number": 64,
                        "time": 694.3812500000158,
                        "value": 0.49606299212598426
                    },
                    {
                        "number": 64,
                        "time": 694.3895833333492,
                        "value": 0
                    },
                    {
                        "number": 64,
                        "time": 694.5208333333492,
                        "value": 0.49606299212598426
                    },
                    {
                        "number": 64,
                        "time": 694.5229166666825,
                        "value": 1
                    },
                    {
                        "number": 64,
                        "time": 695.5229166666826,
                        "value": 0.49606299212598426
                    },
                    {
                        "number": 64,
                        "time": 695.5333333333492,
                        "value": 0
                    },
                    {
                        "number": 64,
                        "time": 695.681250000016,
                        "value": 0.49606299212598426
                    },
                    {
                        "number": 64,
                        "time": 695.6833333333493,
                        "value": 1
                    },
                    {
                        "number": 64,
                        "time": 696.4166666666828,
                        "value": 0.49606299212598426
                    },
                    {
                        "number": 64,
                        "time": 696.4250000000161,
                        "value": 0
                    },
                    {
                        "number": 64,
                        "time": 696.7645833333495,
                        "value": 1
                    },
                    {
                        "number": 64,
                        "time": 697.7208333333493,
                        "value": 0.49606299212598426
                    },
                    {
                        "number": 64,
                        "time": 697.731250000016,
                        "value": 0
                    },
                    {
                        "number": 64,
                        "time": 697.8770833333492,
                        "value": 0.49606299212598426
                    },
                    {
                        "number": 64,
                        "time": 697.8812500000159,
                        "value": 1
                    },
                    {
                        "number": 64,
                        "time": 698.8291666666822,
                        "value": 0.49606299212598426
                    },
                    {
                        "number": 64,
                        "time": 698.8395833333489,
                        "value": 0
                    },
                    {
                        "number": 64,
                        "time": 698.9979166666823,
                        "value": 0.49606299212598426
                    },
                    {
                        "number": 64,
                        "time": 699.0000000000156,
                        "value": 1
                    },
                    {
                        "number": 64,
                        "time": 699.8458333333488,
                        "value": 0.49606299212598426
                    },
                    {
                        "number": 64,
                        "time": 699.8541666666821,
                        "value": 0
                    },
                    {
                        "number": 64,
                        "time": 700.0437500000156,
                        "value": 1
                    },
                    {
                        "number": 64,
                        "time": 700.8541666666823,
                        "value": 0.49606299212598426
                    },
                    {
                        "number": 64,
                        "time": 700.858333333349,
                        "value": 0
                    },
                    {
                        "number": 64,
                        "time": 701.1416666666825,
                        "value": 1
                    },
                    {
                        "number": 64,
                        "time": 702.0541666666825,
                        "value": 0.49606299212598426
                    },
                    {
                        "number": 64,
                        "time": 702.0645833333492,
                        "value": 0
                    },
                    {
                        "number": 64,
                        "time": 702.1791666666825,
                        "value": 0.49606299212598426
                    },
                    {
                        "number": 64,
                        "time": 702.1812500000158,
                        "value": 1
                    },
                    {
                        "number": 64,
                        "time": 703.0833333333492,
                        "value": 0.49606299212598426
                    },
                    {
                        "number": 64,
                        "time": 703.0937500000158,
                        "value": 0
                    },
                    {
                        "number": 64,
                        "time": 703.2229166666823,
                        "value": 0.49606299212598426
                    },
                    {
                        "number": 64,
                        "time": 703.227083333349,
                        "value": 1
                    },
                    {
                        "number": 64,
                        "time": 704.1354166666825,
                        "value": 0.49606299212598426
                    },
                    {
                        "number": 64,
                        "time": 704.1458333333492,
                        "value": 0
                    },
                    {
                        "number": 64,
                        "time": 704.2291666666824,
                        "value": 0.49606299212598426
                    },
                    {
                        "number": 64,
                        "time": 704.2395833333491,
                        "value": 1
                    },
                    {
                        "number": 64,
                        "time": 705.1854166666825,
                        "value": 0.49606299212598426
                    },
                    {
                        "number": 64,
                        "time": 705.1958333333491,
                        "value": 0
                    },
                    {
                        "number": 64,
                        "time": 705.2854166666825,
                        "value": 0.49606299212598426
                    },
                    {
                        "number": 64,
                        "time": 705.2937500000158,
                        "value": 1
                    },
                    {
                        "number": 64,
                        "time": 706.1229166666824,
                        "value": 0.49606299212598426
                    },
                    {
                        "number": 64,
                        "time": 706.1312500000157,
                        "value": 0
                    },
                    {
                        "number": 64,
                        "time": 706.183333333349,
                        "value": 0.49606299212598426
                    },
                    {
                        "number": 64,
                        "time": 706.2062500000156,
                        "value": 1
                    },
                    {
                        "number": 64,
                        "time": 706.4541666666822,
                        "value": 0.49606299212598426
                    },
                    {
                        "number": 64,
                        "time": 706.4625000000156,
                        "value": 0
                    },
                    {
                        "number": 64,
                        "time": 706.7333333333488,
                        "value": 1
                    },
                    {
                        "number": 64,
                        "time": 707.6479166666825,
                        "value": 0.49606299212598426
                    },
                    {
                        "number": 64,
                        "time": 707.7437500000157,
                        "value": 1
                    },
                    {
                        "number": 64,
                        "time": 707.8041666666822,
                        "value": 0.49606299212598426
                    },
                    {
                        "number": 64,
                        "time": 707.8166666666823,
                        "value": 0
                    },
                    {
                        "number": 64,
                        "time": 707.9416666666822,
                        "value": 0.49606299212598426
                    },
                    {
                        "number": 64,
                        "time": 707.9458333333488,
                        "value": 1
                    },
                    {
                        "number": 64,
                        "time": 708.7750000000154,
                        "value": 0.49606299212598426
                    },
                    {
                        "number": 64,
                        "time": 708.7875000000155,
                        "value": 0
                    },
                    {
                        "number": 64,
                        "time": 708.9375000000155,
                        "value": 0.49606299212598426
                    },
                    {
                        "number": 64,
                        "time": 708.9416666666822,
                        "value": 1
                    },
                    {
                        "number": 64,
                        "time": 709.585416666682,
                        "value": 0.49606299212598426
                    },
                    {
                        "number": 64,
                        "time": 709.5937500000153,
                        "value": 0
                    },
                    {
                        "number": 64,
                        "time": 709.9520833333489,
                        "value": 1
                    },
                    {
                        "number": 64,
                        "time": 710.6000000000155,
                        "value": 0.49606299212598426
                    },
                    {
                        "number": 64,
                        "time": 710.6083333333489,
                        "value": 0
                    },
                    {
                        "number": 64,
                        "time": 710.9208333333489,
                        "value": 1
                    },
                    {
                        "number": 64,
                        "time": 711.5541666666821,
                        "value": 0.49606299212598426
                    },
                    {
                        "number": 64,
                        "time": 711.5604166666822,
                        "value": 0
                    },
                    {
                        "number": 64,
                        "time": 711.8250000000155,
                        "value": 1
                    },
                    {
                        "number": 64,
                        "time": 712.4208333333492,
                        "value": 0.49606299212598426
                    },
                    {
                        "number": 64,
                        "time": 712.4312500000158,
                        "value": 0
                    },
                    {
                        "number": 64,
                        "time": 712.720833333349,
                        "value": 0.49606299212598426
                    },
                    {
                        "number": 64,
                        "time": 712.720833333349,
                        "value": 1
                    },
                    {
                        "number": 64,
                        "time": 713.245833333349,
                        "value": 0.49606299212598426
                    },
                    {
                        "number": 64,
                        "time": 713.258333333349,
                        "value": 0
                    },
                    {
                        "number": 64,
                        "time": 713.6125000000156,
                        "value": 1
                    },
                    {
                        "number": 64,
                        "time": 714.2791666666824,
                        "value": 0.49606299212598426
                    },
                    {
                        "number": 64,
                        "time": 714.2854166666824,
                        "value": 0
                    },
                    {
                        "number": 64,
                        "time": 714.6479166666824,
                        "value": 1
                    },
                    {
                        "number": 64,
                        "time": 715.4229166666826,
                        "value": 0.49606299212598426
                    },
                    {
                        "number": 64,
                        "time": 715.4354166666826,
                        "value": 0
                    },
                    {
                        "number": 64,
                        "time": 715.5625000000159,
                        "value": 0.49606299212598426
                    },
                    {
                        "number": 64,
                        "time": 715.5666666666825,
                        "value": 1
                    },
                    {
                        "number": 64,
                        "time": 716.1687500000158,
                        "value": 0.49606299212598426
                    },
                    {
                        "number": 64,
                        "time": 716.1770833333492,
                        "value": 0
                    },
                    {
                        "number": 64,
                        "time": 716.4333333333492,
                        "value": 0.49606299212598426
                    },
                    {
                        "number": 64,
                        "time": 716.4354166666825,
                        "value": 1
                    },
                    {
                        "number": 64,
                        "time": 716.9916666666822,
                        "value": 0.49606299212598426
                    },
                    {
                        "number": 64,
                        "time": 717.0041666666822,
                        "value": 0
                    },
                    {
                        "number": 64,
                        "time": 717.2458333333489,
                        "value": 0.49606299212598426
                    },
                    {
                        "number": 64,
                        "time": 717.2479166666822,
                        "value": 1
                    },
                    {
                        "number": 64,
                        "time": 717.935416666682,
                        "value": 0.49606299212598426
                    },
                    {
                        "number": 64,
                        "time": 717.9625000000153,
                        "value": 0
                    },
                    {
                        "number": 64,
                        "time": 718.0583333333486,
                        "value": 1
                    },
                    {
                        "number": 64,
                        "time": 718.5104166666819,
                        "value": 0.49606299212598426
                    },
                    {
                        "number": 64,
                        "time": 718.5187500000152,
                        "value": 0
                    },
                    {
                        "number": 64,
                        "time": 718.5583333333485,
                        "value": 0.49606299212598426
                    },
                    {
                        "number": 64,
                        "time": 718.5750000000152,
                        "value": 1
                    },
                    {
                        "number": 64,
                        "time": 718.7854166666818,
                        "value": 0.49606299212598426
                    },
                    {
                        "number": 64,
                        "time": 718.8145833333484,
                        "value": 1
                    },
                    {
                        "number": 64,
                        "time": 719.0145833333484,
                        "value": 0.49606299212598426
                    },
                    {
                        "number": 64,
                        "time": 719.0479166666817,
                        "value": 1
                    },
                    {
                        "number": 64,
                        "time": 720.0125000000153,
                        "value": 0.49606299212598426
                    },
                    {
                        "number": 64,
                        "time": 720.0395833333487,
                        "value": 1
                    },
                    {
                        "number": 64,
                        "time": 720.5416666666822,
                        "value": 0.49606299212598426
                    },
                    {
                        "number": 64,
                        "time": 720.5562500000157,
                        "value": 1
                    },
                    {
                        "number": 64,
                        "time": 720.9583333333493,
                        "value": 0.49606299212598426
                    },
                    {
                        "number": 64,
                        "time": 721.0083333333494,
                        "value": 1
                    },
                    {
                        "number": 64,
                        "time": 721.062500000016,
                        "value": 1
                    },
                    {
                        "number": 64,
                        "time": 721.4895833333495,
                        "value": 0.49606299212598426
                    },
                    {
                        "number": 64,
                        "time": 721.566666666683,
                        "value": 1
                    },
                    {
                        "number": 64,
                        "time": 721.610416666683,
                        "value": 0.49606299212598426
                    },
                    {
                        "number": 64,
                        "time": 721.6375000000164,
                        "value": 0
                    },
                    {
                        "number": 64,
                        "time": 721.7333333333497,
                        "value": 0.49606299212598426
                    },
                    {
                        "number": 64,
                        "time": 721.8895833333497,
                        "value": 1
                    },
                    {
                        "number": 64,
                        "time": 722.104166666683,
                        "value": 0.49606299212598426
                    },
                    {
                        "number": 64,
                        "time": 722.1250000000164,
                        "value": 0
                    },
                    {
                        "number": 64,
                        "time": 722.160416666683,
                        "value": 0.49606299212598426
                    },
                    {
                        "number": 64,
                        "time": 722.2500000000164,
                        "value": 0
                    },
                    {
                        "number": 64,
                        "time": 722.2687500000163,
                        "value": 0.49606299212598426
                    },
                    {
                        "number": 64,
                        "time": 722.3041666666829,
                        "value": 1
                    },
                    {
                        "number": 64,
                        "time": 722.7854166666831,
                        "value": 0.49606299212598426
                    },
                    {
                        "number": 64,
                        "time": 722.9145833333498,
                        "value": 1
                    },
                    {
                        "number": 64,
                        "time": 723.8166666666831,
                        "value": 0.49606299212598426
                    },
                    {
                        "number": 64,
                        "time": 723.8312500000164,
                        "value": 0
                    },
                    {
                        "number": 64,
                        "time": 724.3479166666831,
                        "value": 0.49606299212598426
                    },
                    {
                        "number": 64,
                        "time": 724.3729166666831,
                        "value": 0
                    },
                    {
                        "number": 64,
                        "time": 724.8333333333495,
                        "value": 1
                    },
                    {
                        "number": 64,
                        "time": 742.6729166666829,
                        "value": 0.49606299212598426
                    },
                    {
                        "number": 64,
                        "time": 742.6750000000162,
                        "value": 1
                    },
                    {
                        "number": 64,
                        "time": 743.8166666666827,
                        "value": 0.49606299212598426
                    },
                    {
                        "number": 64,
                        "time": 743.8375000000161,
                        "value": 0
                    },
                    {
                        "number": 64,
                        "time": 744.0187500000162,
                        "value": 0.49606299212598426
                    },
                    {
                        "number": 64,
                        "time": 744.0270833333495,
                        "value": 1
                    },
                    {
                        "number": 64,
                        "time": 744.9229166666829,
                        "value": 0.49606299212598426
                    },
                    {
                        "number": 64,
                        "time": 744.9541666666829,
                        "value": 0
                    },
                    {
                        "number": 64,
                        "time": 745.1041666666829,
                        "value": 0.49606299212598426
                    },
                    {
                        "number": 64,
                        "time": 745.1145833333495,
                        "value": 1
                    },
                    {
                        "number": 64,
                        "time": 746.0958333333498,
                        "value": 0.49606299212598426
                    },
                    {
                        "number": 64,
                        "time": 746.1062500000164,
                        "value": 0
                    },
                    {
                        "number": 64,
                        "time": 746.229166666683,
                        "value": 0.49606299212598426
                    },
                    {
                        "number": 64,
                        "time": 746.2375000000163,
                        "value": 1
                    },
                    {
                        "number": 64,
                        "time": 747.122916666683,
                        "value": 0.49606299212598426
                    },
                    {
                        "number": 64,
                        "time": 747.1333333333496,
                        "value": 0
                    },
                    {
                        "number": 64,
                        "time": 747.2770833333495,
                        "value": 0.49606299212598426
                    },
                    {
                        "number": 64,
                        "time": 747.2812500000163,
                        "value": 1
                    },
                    {
                        "number": 64,
                        "time": 748.1125000000162,
                        "value": 0.49606299212598426
                    },
                    {
                        "number": 64,
                        "time": 748.1229166666828,
                        "value": 0
                    },
                    {
                        "number": 64,
                        "time": 748.329166666683,
                        "value": 0.49606299212598426
                    },
                    {
                        "number": 64,
                        "time": 748.3312500000163,
                        "value": 1
                    },
                    {
                        "number": 64,
                        "time": 749.4312500000163,
                        "value": 1
                    },
                    {
                        "number": 64,
                        "time": 749.6770833333497,
                        "value": 0.49606299212598426
                    },
                    {
                        "number": 64,
                        "time": 749.6812500000165,
                        "value": 0
                    },
                    {
                        "number": 64,
                        "time": 749.8166666666831,
                        "value": 0.49606299212598426
                    },
                    {
                        "number": 64,
                        "time": 749.8187500000164,
                        "value": 1
                    },
                    {
                        "number": 64,
                        "time": 749.9208333333498,
                        "value": 0.49606299212598426
                    },
                    {
                        "number": 64,
                        "time": 749.9291666666832,
                        "value": 0
                    },
                    {
                        "number": 64,
                        "time": 749.9979166666832,
                        "value": 0.49606299212598426
                    },
                    {
                        "number": 64,
                        "time": 750.0041666666832,
                        "value": 1
                    },
                    {
                        "number": 64,
                        "time": 750.2354166666831,
                        "value": 0.49606299212598426
                    },
                    {
                        "number": 64,
                        "time": 750.2437500000165,
                        "value": 0
                    },
                    {
                        "number": 64,
                        "time": 750.4437500000165,
                        "value": 1
                    },
                    {
                        "number": 64,
                        "time": 750.8000000000167,
                        "value": 0.49606299212598426
                    },
                    {
                        "number": 64,
                        "time": 750.80208333335,
                        "value": 0
                    },
                    {
                        "number": 64,
                        "time": 750.9687500000166,
                        "value": 0.49606299212598426
                    },
                    {
                        "number": 64,
                        "time": 750.9687500000166,
                        "value": 1
                    },
                    {
                        "number": 64,
                        "time": 751.5000000000167,
                        "value": 0.49606299212598426
                    },
                    {
                        "number": 64,
                        "time": 751.5104166666833,
                        "value": 0
                    },
                    {
                        "number": 64,
                        "time": 751.6666666666835,
                        "value": 1
                    },
                    {
                        "number": 64,
                        "time": 752.4958333333501,
                        "value": 0.49606299212598426
                    },
                    {
                        "number": 64,
                        "time": 752.5062500000167,
                        "value": 0
                    },
                    {
                        "number": 64,
                        "time": 752.7083333333501,
                        "value": 1
                    },
                    {
                        "number": 64,
                        "time": 753.7375000000169,
                        "value": 0.49606299212598426
                    },
                    {
                        "number": 64,
                        "time": 753.7500000000169,
                        "value": 0
                    },
                    {
                        "number": 64,
                        "time": 753.9687500000169,
                        "value": 1
                    },
                    {
                        "number": 64,
                        "time": 754.7479166666838,
                        "value": 0.49606299212598426
                    },
                    {
                        "number": 64,
                        "time": 754.750000000017,
                        "value": 0
                    },
                    {
                        "number": 64,
                        "time": 754.8833333333505,
                        "value": 0.49606299212598426
                    },
                    {
                        "number": 64,
                        "time": 754.8854166666838,
                        "value": 1
                    },
                    {
                        "number": 64,
                        "time": 756.0625000000172,
                        "value": 0.49606299212598426
                    },
                    {
                        "number": 64,
                        "time": 756.0854166666838,
                        "value": 0
                    },
                    {
                        "number": 64,
                        "time": 762.4937500000176,
                        "value": 1
                    },
                    {
                        "number": 64,
                        "time": 763.3666666666842,
                        "value": 0.49606299212598426
                    },
                    {
                        "number": 64,
                        "time": 763.3750000000175,
                        "value": 0
                    },
                    {
                        "number": 64,
                        "time": 763.5708333333508,
                        "value": 1
                    },
                    {
                        "number": 64,
                        "time": 764.6583333333509,
                        "value": 0.49606299212598426
                    },
                    {
                        "number": 64,
                        "time": 764.6604166666842,
                        "value": 0
                    },
                    {
                        "number": 64,
                        "time": 764.8000000000176,
                        "value": 0.49606299212598426
                    },
                    {
                        "number": 64,
                        "time": 764.8020833333509,
                        "value": 1
                    },
                    {
                        "number": 64,
                        "time": 765.5062500000174,
                        "value": 0.49606299212598426
                    },
                    {
                        "number": 64,
                        "time": 765.516666666684,
                        "value": 0
                    },
                    {
                        "number": 64,
                        "time": 765.7208333333508,
                        "value": 1
                    },
                    {
                        "number": 64,
                        "time": 766.9770833333508,
                        "value": 0.49606299212598426
                    },
                    {
                        "number": 64,
                        "time": 767.0250000000175,
                        "value": 0
                    },
                    {
                        "number": 64,
                        "time": 767.2541666666842,
                        "value": 0.49606299212598426
                    },
                    {
                        "number": 64,
                        "time": 767.2666666666843,
                        "value": 1
                    },
                    {
                        "number": 64,
                        "time": 767.6416666666842,
                        "value": 0.49606299212598426
                    },
                    {
                        "number": 64,
                        "time": 767.6833333333508,
                        "value": 0
                    },
                    {
                        "number": 64,
                        "time": 767.9520833333507,
                        "value": 0.49606299212598426
                    },
                    {
                        "number": 64,
                        "time": 767.9645833333508,
                        "value": 1
                    },
                    {
                        "number": 64,
                        "time": 768.4979166666841,
                        "value": 0.49606299212598426
                    },
                    {
                        "number": 64,
                        "time": 768.5541666666841,
                        "value": 0
                    },
                    {
                        "number": 64,
                        "time": 773.1166666666843,
                        "value": 1
                    },
                    {
                        "number": 64,
                        "time": 774.2666666666845,
                        "value": 0.49606299212598426
                    },
                    {
                        "number": 64,
                        "time": 774.2666666666845,
                        "value": 0
                    },
                    {
                        "number": 64,
                        "time": 774.3729166666844,
                        "value": 0.49606299212598426
                    },
                    {
                        "number": 64,
                        "time": 774.3770833333512,
                        "value": 1
                    },
                    {
                        "number": 64,
                        "time": 775.3708333333514,
                        "value": 0.49606299212598426
                    },
                    {
                        "number": 64,
                        "time": 775.3729166666847,
                        "value": 0
                    },
                    {
                        "number": 64,
                        "time": 775.6000000000181,
                        "value": 0.49606299212598426
                    },
                    {
                        "number": 64,
                        "time": 775.6020833333514,
                        "value": 1
                    },
                    {
                        "number": 64,
                        "time": 776.7687500000181,
                        "value": 0.49606299212598426
                    },
                    {
                        "number": 64,
                        "time": 776.7812500000182,
                        "value": 0
                    },
                    {
                        "number": 64,
                        "time": 776.9187500000182,
                        "value": 0.49606299212598426
                    },
                    {
                        "number": 64,
                        "time": 776.922916666685,
                        "value": 1
                    },
                    {
                        "number": 64,
                        "time": 778.0562500000184,
                        "value": 0.49606299212598426
                    },
                    {
                        "number": 64,
                        "time": 778.0687500000184,
                        "value": 0
                    },
                    {
                        "number": 64,
                        "time": 778.1770833333518,
                        "value": 0.49606299212598426
                    },
                    {
                        "number": 64,
                        "time": 778.1833333333518,
                        "value": 1
                    },
                    {
                        "number": 64,
                        "time": 779.0583333333523,
                        "value": 0.49606299212598426
                    },
                    {
                        "number": 64,
                        "time": 779.0729166666856,
                        "value": 0
                    },
                    {
                        "number": 64,
                        "time": 779.162500000019,
                        "value": 0.49606299212598426
                    },
                    {
                        "number": 64,
                        "time": 779.1729166666858,
                        "value": 1
                    },
                    {
                        "number": 64,
                        "time": 780.0145833333526,
                        "value": 0.49606299212598426
                    },
                    {
                        "number": 64,
                        "time": 780.0250000000192,
                        "value": 0
                    },
                    {
                        "number": 64,
                        "time": 780.1250000000192,
                        "value": 0.49606299212598426
                    },
                    {
                        "number": 64,
                        "time": 780.1312500000192,
                        "value": 1
                    },
                    {
                        "number": 64,
                        "time": 781.1395833333523,
                        "value": 0.49606299212598426
                    },
                    {
                        "number": 64,
                        "time": 781.1416666666856,
                        "value": 1
                    },
                    {
                        "number": 64,
                        "time": 782.1458333333524,
                        "value": 0.49606299212598426
                    },
                    {
                        "number": 64,
                        "time": 782.156250000019,
                        "value": 0
                    },
                    {
                        "number": 64,
                        "time": 782.256250000019,
                        "value": 0.49606299212598426
                    },
                    {
                        "number": 64,
                        "time": 782.2583333333523,
                        "value": 1
                    },
                    {
                        "number": 64,
                        "time": 783.5979166666856,
                        "value": 0.49606299212598426
                    },
                    {
                        "number": 64,
                        "time": 783.6083333333522,
                        "value": 0
                    },
                    {
                        "number": 64,
                        "time": 783.7354166666856,
                        "value": 0.49606299212598426
                    },
                    {
                        "number": 64,
                        "time": 783.7395833333524,
                        "value": 1
                    },
                    {
                        "number": 64,
                        "time": 785.1062500000188,
                        "value": 0.49606299212598426
                    },
                    {
                        "number": 64,
                        "time": 785.1166666666855,
                        "value": 0
                    },
                    {
                        "number": 64,
                        "time": 785.2270833333522,
                        "value": 0.49606299212598426
                    },
                    {
                        "number": 64,
                        "time": 785.2312500000189,
                        "value": 1
                    },
                    {
                        "number": 64,
                        "time": 786.3041666666857,
                        "value": 0.49606299212598426
                    },
                    {
                        "number": 64,
                        "time": 786.3145833333523,
                        "value": 0
                    },
                    {
                        "number": 64,
                        "time": 786.4354166666857,
                        "value": 0.49606299212598426
                    },
                    {
                        "number": 64,
                        "time": 786.437500000019,
                        "value": 1
                    },
                    {
                        "number": 64,
                        "time": 787.3645833333524,
                        "value": 0.49606299212598426
                    },
                    {
                        "number": 64,
                        "time": 787.3729166666857,
                        "value": 0
                    },
                    {
                        "number": 64,
                        "time": 787.5041666666858,
                        "value": 0.49606299212598426
                    },
                    {
                        "number": 64,
                        "time": 787.5083333333525,
                        "value": 1
                    },
                    {
                        "number": 64,
                        "time": 788.1958333333525,
                        "value": 0.49606299212598426
                    },
                    {
                        "number": 64,
                        "time": 788.2062500000192,
                        "value": 0
                    },
                    {
                        "number": 64,
                        "time": 788.4041666666858,
                        "value": 0.49606299212598426
                    },
                    {
                        "number": 64,
                        "time": 788.4062500000191,
                        "value": 1
                    },
                    {
                        "number": 64,
                        "time": 789.1791666666859,
                        "value": 0.49606299212598426
                    },
                    {
                        "number": 64,
                        "time": 789.1833333333525,
                        "value": 0
                    },
                    {
                        "number": 64,
                        "time": 789.2979166666859,
                        "value": 0.49606299212598426
                    },
                    {
                        "number": 64,
                        "time": 789.3020833333526,
                        "value": 1
                    },
                    {
                        "number": 64,
                        "time": 789.941666666686,
                        "value": 0.49606299212598426
                    },
                    {
                        "number": 64,
                        "time": 789.9520833333527,
                        "value": 0
                    },
                    {
                        "number": 64,
                        "time": 790.1458333333527,
                        "value": 0.49606299212598426
                    },
                    {
                        "number": 64,
                        "time": 790.147916666686,
                        "value": 1
                    },
                    {
                        "number": 64,
                        "time": 790.8395833333524,
                        "value": 0.49606299212598426
                    },
                    {
                        "number": 64,
                        "time": 790.850000000019,
                        "value": 0
                    },
                    {
                        "number": 64,
                        "time": 791.0541666666857,
                        "value": 1
                    },
                    {
                        "number": 64,
                        "time": 791.6895833333522,
                        "value": 0.49606299212598426
                    },
                    {
                        "number": 64,
                        "time": 791.6979166666855,
                        "value": 0
                    },
                    {
                        "number": 64,
                        "time": 792.0020833333521,
                        "value": 1
                    },
                    {
                        "number": 64,
                        "time": 793.0145833333521,
                        "value": 0.49606299212598426
                    },
                    {
                        "number": 64,
                        "time": 793.0291666666855,
                        "value": 0
                    },
                    {
                        "number": 64,
                        "time": 793.1250000000188,
                        "value": 1
                    },
                    {
                        "number": 64,
                        "time": 793.9416666666855,
                        "value": 0.49606299212598426
                    },
                    {
                        "number": 64,
                        "time": 793.9479166666855,
                        "value": 0
                    },
                    {
                        "number": 64,
                        "time": 794.2375000000189,
                        "value": 1
                    },
                    {
                        "number": 64,
                        "time": 795.0875000000188,
                        "value": 0.49606299212598426
                    },
                    {
                        "number": 64,
                        "time": 795.0937500000189,
                        "value": 0
                    },
                    {
                        "number": 64,
                        "time": 795.2062500000188,
                        "value": 0.49606299212598426
                    },
                    {
                        "number": 64,
                        "time": 795.2125000000188,
                        "value": 1
                    },
                    {
                        "number": 64,
                        "time": 796.0020833333524,
                        "value": 0.49606299212598426
                    },
                    {
                        "number": 64,
                        "time": 796.0083333333524,
                        "value": 0
                    },
                    {
                        "number": 64,
                        "time": 796.2729166666859,
                        "value": 1
                    },
                    {
                        "number": 64,
                        "time": 797.0208333333525,
                        "value": 0.49606299212598426
                    },
                    {
                        "number": 64,
                        "time": 797.0250000000191,
                        "value": 0
                    },
                    {
                        "number": 64,
                        "time": 797.143750000019,
                        "value": 0.49606299212598426
                    },
                    {
                        "number": 64,
                        "time": 797.1479166666858,
                        "value": 1
                    },
                    {
                        "number": 64,
                        "time": 798.0020833333522,
                        "value": 0.49606299212598426
                    },
                    {
                        "number": 64,
                        "time": 798.0062500000189,
                        "value": 0
                    },
                    {
                        "number": 64,
                        "time": 798.2791666666855,
                        "value": 1
                    },
                    {
                        "number": 64,
                        "time": 799.1354166666858,
                        "value": 0.49606299212598426
                    },
                    {
                        "number": 64,
                        "time": 799.1458333333525,
                        "value": 0
                    },
                    {
                        "number": 64,
                        "time": 799.3062500000191,
                        "value": 0.49606299212598426
                    },
                    {
                        "number": 64,
                        "time": 799.3083333333524,
                        "value": 1
                    },
                    {
                        "number": 64,
                        "time": 800.0604166666857,
                        "value": 0.49606299212598426
                    },
                    {
                        "number": 64,
                        "time": 800.075000000019,
                        "value": 0
                    },
                    {
                        "number": 64,
                        "time": 800.3458333333523,
                        "value": 1
                    },
                    {
                        "number": 64,
                        "time": 801.4354166666857,
                        "value": 0.49606299212598426
                    },
                    {
                        "number": 64,
                        "time": 801.437500000019,
                        "value": 0
                    },
                    {
                        "number": 64,
                        "time": 801.512500000019,
                        "value": 0.49606299212598426
                    },
                    {
                        "number": 64,
                        "time": 801.5166666666858,
                        "value": 1
                    },
                    {
                        "number": 64,
                        "time": 802.681250000019,
                        "value": 0.49606299212598426
                    },
                    {
                        "number": 64,
                        "time": 802.7104166666857,
                        "value": 0
                    },
                    {
                        "number": 64,
                        "time": 808.8916666666854,
                        "value": 1
                    },
                    {
                        "number": 64,
                        "time": 809.7291666666854,
                        "value": 0.49606299212598426
                    },
                    {
                        "number": 64,
                        "time": 809.7354166666854,
                        "value": 0
                    },
                    {
                        "number": 64,
                        "time": 810.0791666666854,
                        "value": 1
                    },
                    {
                        "number": 64,
                        "time": 810.8458333333521,
                        "value": 0.49606299212598426
                    },
                    {
                        "number": 64,
                        "time": 810.870833333352,
                        "value": 0
                    },
                    {
                        "number": 64,
                        "time": 811.0333333333521,
                        "value": 0.49606299212598426
                    },
                    {
                        "number": 64,
                        "time": 811.0354166666854,
                        "value": 1
                    },
                    {
                        "number": 64,
                        "time": 811.7187500000188,
                        "value": 0.49606299212598426
                    },
                    {
                        "number": 64,
                        "time": 811.7437500000187,
                        "value": 0
                    },
                    {
                        "number": 64,
                        "time": 811.8770833333521,
                        "value": 0.49606299212598426
                    },
                    {
                        "number": 64,
                        "time": 811.8833333333521,
                        "value": 1
                    },
                    {
                        "number": 64,
                        "time": 812.481250000019,
                        "value": 0.49606299212598426
                    },
                    {
                        "number": 64,
                        "time": 812.500000000019,
                        "value": 0
                    },
                    {
                        "number": 64,
                        "time": 812.7395833333524,
                        "value": 0.49606299212598426
                    },
                    {
                        "number": 64,
                        "time": 812.7479166666857,
                        "value": 1
                    },
                    {
                        "number": 64,
                        "time": 813.3520833333523,
                        "value": 0.49606299212598426
                    },
                    {
                        "number": 64,
                        "time": 813.368750000019,
                        "value": 0
                    },
                    {
                        "number": 64,
                        "time": 813.6125000000189,
                        "value": 0.49606299212598426
                    },
                    {
                        "number": 64,
                        "time": 813.6229166666857,
                        "value": 1
                    },
                    {
                        "number": 64,
                        "time": 814.0354166666856,
                        "value": 0.49606299212598426
                    },
                    {
                        "number": 64,
                        "time": 814.0520833333522,
                        "value": 0
                    },
                    {
                        "number": 64,
                        "time": 814.1312500000189,
                        "value": 0.49606299212598426
                    },
                    {
                        "number": 64,
                        "time": 814.1458333333522,
                        "value": 1
                    },
                    {
                        "number": 64,
                        "time": 814.2562500000189,
                        "value": 0.49606299212598426
                    },
                    {
                        "number": 64,
                        "time": 814.3020833333522,
                        "value": 0
                    },
                    {
                        "number": 64,
                        "time": 814.4333333333523,
                        "value": 0.49606299212598426
                    },
                    {
                        "number": 64,
                        "time": 814.4458333333522,
                        "value": 1
                    },
                    {
                        "number": 64,
                        "time": 814.9500000000188,
                        "value": 0.49606299212598426
                    },
                    {
                        "number": 64,
                        "time": 814.9645833333522,
                        "value": 0
                    },
                    {
                        "number": 64,
                        "time": 815.2875000000188,
                        "value": 1
                    },
                    {
                        "number": 64,
                        "time": 815.5083333333522,
                        "value": 0.49606299212598426
                    },
                    {
                        "number": 64,
                        "time": 815.5104166666855,
                        "value": 0
                    },
                    {
                        "number": 64,
                        "time": 815.8041666666853,
                        "value": 1
                    },
                    {
                        "number": 64,
                        "time": 815.9812500000187,
                        "value": 0.49606299212598426
                    },
                    {
                        "number": 64,
                        "time": 815.9854166666854,
                        "value": 0
                    },
                    {
                        "number": 64,
                        "time": 816.3270833333519,
                        "value": 1
                    },
                    {
                        "number": 64,
                        "time": 816.5250000000186,
                        "value": 0.49606299212598426
                    },
                    {
                        "number": 64,
                        "time": 816.5312500000186,
                        "value": 0
                    },
                    {
                        "number": 64,
                        "time": 816.8458333333518,
                        "value": 1
                    },
                    {
                        "number": 64,
                        "time": 816.9437500000184,
                        "value": 1
                    },
                    {
                        "number": 64,
                        "time": 817.1916666666851,
                        "value": 0.49606299212598426
                    },
                    {
                        "number": 64,
                        "time": 817.2062500000185,
                        "value": 0
                    },
                    {
                        "number": 64,
                        "time": 817.6104166666851,
                        "value": 0.49606299212598426
                    },
                    {
                        "number": 64,
                        "time": 817.6145833333518,
                        "value": 0
                    },
                    {
                        "number": 64,
                        "time": 817.6666666666852,
                        "value": 0.49606299212598426
                    },
                    {
                        "number": 64,
                        "time": 817.6812500000185,
                        "value": 1
                    },
                    {
                        "number": 64,
                        "time": 818.0875000000186,
                        "value": 0.49606299212598426
                    },
                    {
                        "number": 64,
                        "time": 818.0916666666853,
                        "value": 0
                    },
                    {
                        "number": 64,
                        "time": 818.1375000000187,
                        "value": 0.49606299212598426
                    },
                    {
                        "number": 64,
                        "time": 818.152083333352,
                        "value": 1
                    },
                    {
                        "number": 64,
                        "time": 818.5916666666855,
                        "value": 0.49606299212598426
                    },
                    {
                        "number": 64,
                        "time": 818.6125000000188,
                        "value": 0
                    },
                    {
                        "number": 64,
                        "time": 818.6854166666855,
                        "value": 0.49606299212598426
                    },
                    {
                        "number": 64,
                        "time": 818.7000000000188,
                        "value": 1
                    },
                    {
                        "number": 64,
                        "time": 818.8604166666855,
                        "value": 0.49606299212598426
                    },
                    {
                        "number": 64,
                        "time": 818.9229166666855,
                        "value": 1
                    },
                    {
                        "number": 64,
                        "time": 819.1062500000193,
                        "value": 0.49606299212598426
                    },
                    {
                        "number": 64,
                        "time": 819.1145833333526,
                        "value": 0
                    },
                    {
                        "number": 64,
                        "time": 819.1833333333525,
                        "value": 1
                    },
                    {
                        "number": 64,
                        "time": 820.0229166666859,
                        "value": 0.49606299212598426
                    },
                    {
                        "number": 64,
                        "time": 820.0312500000192,
                        "value": 0
                    },
                    {
                        "number": 64,
                        "time": 820.0854166666859,
                        "value": 0.49606299212598426
                    },
                    {
                        "number": 64,
                        "time": 820.0958333333525,
                        "value": 1
                    },
                    {
                        "number": 64,
                        "time": 820.4645833333525,
                        "value": 0.49606299212598426
                    },
                    {
                        "number": 64,
                        "time": 820.4979166666858,
                        "value": 1
                    },
                    {
                        "number": 64,
                        "time": 820.881250000019,
                        "value": 0.49606299212598426
                    },
                    {
                        "number": 64,
                        "time": 820.9083333333523,
                        "value": 0
                    },
                    {
                        "number": 64,
                        "time": 821.0979166666857,
                        "value": 0.49606299212598426
                    },
                    {
                        "number": 64,
                        "time": 821.1083333333523,
                        "value": 1
                    },
                    {
                        "number": 64,
                        "time": 821.5145833333522,
                        "value": 0.49606299212598426
                    },
                    {
                        "number": 64,
                        "time": 821.5208333333522,
                        "value": 0
                    },
                    {
                        "number": 64,
                        "time": 821.5770833333522,
                        "value": 1
                    },
                    {
                        "number": 64,
                        "time": 821.7333333333521,
                        "value": 0.49606299212598426
                    },
                    {
                        "number": 64,
                        "time": 821.7354166666854,
                        "value": 0
                    },
                    {
                        "number": 64,
                        "time": 822.0562500000187,
                        "value": 1
                    },
                    {
                        "number": 64,
                        "time": 822.2520833333521,
                        "value": 0.49606299212598426
                    },
                    {
                        "number": 64,
                        "time": 822.2604166666854,
                        "value": 0
                    },
                    {
                        "number": 64,
                        "time": 822.5729166666853,
                        "value": 1
                    },
                    {
                        "number": 64,
                        "time": 822.802083333352,
                        "value": 0.49606299212598426
                    },
                    {
                        "number": 64,
                        "time": 822.8104166666853,
                        "value": 0
                    },
                    {
                        "number": 64,
                        "time": 823.1041666666852,
                        "value": 1
                    },
                    {
                        "number": 64,
                        "time": 825.4000000000184,
                        "value": 1
                    },
                    {
                        "number": 64,
                        "time": 826.2291666666854,
                        "value": 0.49606299212598426
                    },
                    {
                        "number": 64,
                        "time": 826.2375000000187,
                        "value": 0
                    },
                    {
                        "number": 64,
                        "time": 826.3187500000187,
                        "value": 0.49606299212598426
                    },
                    {
                        "number": 64,
                        "time": 826.3229166666853,
                        "value": 1
                    },
                    {
                        "number": 64,
                        "time": 827.4520833333517,
                        "value": 0.49606299212598426
                    },
                    {
                        "number": 64,
                        "time": 827.460416666685,
                        "value": 0
                    },
                    {
                        "number": 64,
                        "time": 827.5645833333516,
                        "value": 0.49606299212598426
                    },
                    {
                        "number": 64,
                        "time": 827.5687500000183,
                        "value": 1
                    },
                    {
                        "number": 64,
                        "time": 827.752083333352,
                        "value": 0.49606299212598426
                    },
                    {
                        "number": 64,
                        "time": 827.7604166666853,
                        "value": 0
                    },
                    {
                        "number": 64,
                        "time": 827.7604166666853,
                        "value": 1
                    },
                    {
                        "number": 64,
                        "time": 827.9562500000185,
                        "value": 0.49606299212598426
                    },
                    {
                        "number": 64,
                        "time": 827.9625000000185,
                        "value": 0
                    },
                    {
                        "number": 64,
                        "time": 828.2458333333519,
                        "value": 1
                    },
                    {
                        "number": 64,
                        "time": 828.4020833333522,
                        "value": 0.49606299212598426
                    },
                    {
                        "number": 64,
                        "time": 828.4041666666855,
                        "value": 0
                    },
                    {
                        "number": 64,
                        "time": 828.7125000000186,
                        "value": 1
                    },
                    {
                        "number": 64,
                        "time": 828.9041666666852,
                        "value": 0.49606299212598426
                    },
                    {
                        "number": 64,
                        "time": 828.9125000000186,
                        "value": 0
                    },
                    {
                        "number": 64,
                        "time": 829.1875000000185,
                        "value": 1
                    },
                    {
                        "number": 64,
                        "time": 829.9770833333514,
                        "value": 1
                    },
                    {
                        "number": 64,
                        "time": 830.2666666666847,
                        "value": 0.49606299212598426
                    },
                    {
                        "number": 64,
                        "time": 830.2708333333514,
                        "value": 0
                    },
                    {
                        "number": 64,
                        "time": 830.3166666666848,
                        "value": 0.49606299212598426
                    },
                    {
                        "number": 64,
                        "time": 830.3229166666848,
                        "value": 1
                    },
                    {
                        "number": 64,
                        "time": 830.4437500000181,
                        "value": 0.49606299212598426
                    },
                    {
                        "number": 64,
                        "time": 830.4500000000181,
                        "value": 0
                    },
                    {
                        "number": 64,
                        "time": 830.6312500000181,
                        "value": 1
                    },
                    {
                        "number": 64,
                        "time": 831.2000000000178,
                        "value": 0.49606299212598426
                    },
                    {
                        "number": 64,
                        "time": 831.2020833333511,
                        "value": 0
                    },
                    {
                        "number": 64,
                        "time": 831.2916666666845,
                        "value": 0.49606299212598426
                    },
                    {
                        "number": 64,
                        "time": 831.2937500000178,
                        "value": 1
                    },
                    {
                        "number": 64,
                        "time": 831.7875000000176,
                        "value": 0.49606299212598426
                    },
                    {
                        "number": 64,
                        "time": 831.795833333351,
                        "value": 0
                    },
                    {
                        "number": 64,
                        "time": 831.9687500000176,
                        "value": 1
                    },
                    {
                        "number": 64,
                        "time": 832.439583333351,
                        "value": 0.49606299212598426
                    },
                    {
                        "number": 64,
                        "time": 832.4416666666843,
                        "value": 0
                    },
                    {
                        "number": 64,
                        "time": 832.6395833333511,
                        "value": 1
                    },
                    {
                        "number": 64,
                        "time": 833.068750000018,
                        "value": 0.49606299212598426
                    },
                    {
                        "number": 64,
                        "time": 833.075000000018,
                        "value": 0
                    },
                    {
                        "number": 64,
                        "time": 833.2645833333514,
                        "value": 1
                    },
                    {
                        "number": 64,
                        "time": 833.7041666666848,
                        "value": 0.49606299212598426
                    },
                    {
                        "number": 64,
                        "time": 833.7104166666849,
                        "value": 0
                    },
                    {
                        "number": 64,
                        "time": 833.8958333333516,
                        "value": 1
                    },
                    {
                        "number": 64,
                        "time": 834.3000000000181,
                        "value": 0.49606299212598426
                    },
                    {
                        "number": 64,
                        "time": 834.3062500000182,
                        "value": 0
                    },
                    {
                        "number": 64,
                        "time": 834.5020833333515,
                        "value": 1
                    },
                    {
                        "number": 64,
                        "time": 834.7937500000181,
                        "value": 0.49606299212598426
                    },
                    {
                        "number": 64,
                        "time": 834.8000000000181,
                        "value": 0
                    },
                    {
                        "number": 64,
                        "time": 835.0875000000182,
                        "value": 1
                    },
                    {
                        "number": 64,
                        "time": 835.3229166666848,
                        "value": 0.49606299212598426
                    },
                    {
                        "number": 64,
                        "time": 835.3270833333514,
                        "value": 0
                    },
                    {
                        "number": 64,
                        "time": 835.662500000018,
                        "value": 1
                    },
                    {
                        "number": 64,
                        "time": 836.0145833333513,
                        "value": 0.49606299212598426
                    },
                    {
                        "number": 64,
                        "time": 836.018750000018,
                        "value": 0
                    },
                    {
                        "number": 64,
                        "time": 836.2187500000177,
                        "value": 0.49606299212598426
                    },
                    {
                        "number": 64,
                        "time": 836.2187500000177,
                        "value": 1
                    },
                    {
                        "number": 64,
                        "time": 836.5083333333512,
                        "value": 0.49606299212598426
                    },
                    {
                        "number": 64,
                        "time": 836.5145833333512,
                        "value": 0
                    },
                    {
                        "number": 64,
                        "time": 836.7083333333513,
                        "value": 1
                    },
                    {
                        "number": 64,
                        "time": 836.925000000018,
                        "value": 0.49606299212598426
                    },
                    {
                        "number": 64,
                        "time": 836.9291666666846,
                        "value": 0
                    },
                    {
                        "number": 64,
                        "time": 837.1833333333512,
                        "value": 1
                    },
                    {
                        "number": 64,
                        "time": 837.3875000000179,
                        "value": 0.49606299212598426
                    },
                    {
                        "number": 64,
                        "time": 837.3916666666846,
                        "value": 0
                    },
                    {
                        "number": 64,
                        "time": 837.6562500000178,
                        "value": 1
                    },
                    {
                        "number": 64,
                        "time": 837.8500000000179,
                        "value": 0.49606299212598426
                    },
                    {
                        "number": 64,
                        "time": 837.8541666666845,
                        "value": 0
                    },
                    {
                        "number": 64,
                        "time": 838.106250000018,
                        "value": 1
                    },
                    {
                        "number": 64,
                        "time": 838.3083333333516,
                        "value": 0.49606299212598426
                    },
                    {
                        "number": 64,
                        "time": 838.3125000000183,
                        "value": 0
                    },
                    {
                        "number": 64,
                        "time": 838.5937500000181,
                        "value": 1
                    },
                    {
                        "number": 64,
                        "time": 839.0375000000184,
                        "value": 0.49606299212598426
                    },
                    {
                        "number": 64,
                        "time": 839.0458333333518,
                        "value": 0
                    },
                    {
                        "number": 64,
                        "time": 839.2750000000184,
                        "value": 1
                    },
                    {
                        "number": 64,
                        "time": 839.4604166666851,
                        "value": 0.49606299212598426
                    },
                    {
                        "number": 64,
                        "time": 839.4645833333518,
                        "value": 0
                    },
                    {
                        "number": 64,
                        "time": 839.5708333333517,
                        "value": 0.49606299212598426
                    },
                    {
                        "number": 64,
                        "time": 839.5750000000185,
                        "value": 1
                    },
                    {
                        "number": 64,
                        "time": 839.7354166666851,
                        "value": 0.49606299212598426
                    },
                    {
                        "number": 64,
                        "time": 839.7395833333518,
                        "value": 0
                    },
                    {
                        "number": 64,
                        "time": 839.7791666666852,
                        "value": 0.49606299212598426
                    },
                    {
                        "number": 64,
                        "time": 839.7875000000186,
                        "value": 1
                    },
                    {
                        "number": 64,
                        "time": 839.8729166666852,
                        "value": 0.49606299212598426
                    },
                    {
                        "number": 64,
                        "time": 839.8791666666853,
                        "value": 0
                    },
                    {
                        "number": 64,
                        "time": 840.0208333333519,
                        "value": 0.49606299212598426
                    },
                    {
                        "number": 64,
                        "time": 840.0229166666852,
                        "value": 1
                    },
                    {
                        "number": 64,
                        "time": 840.6125000000187,
                        "value": 0.49606299212598426
                    },
                    {
                        "number": 64,
                        "time": 840.639583333352,
                        "value": 0
                    }
                ],
                "67": [
                    {
                        "number": 67,
                        "time": 462.90625,
                        "value": 1
                    },
                    {
                        "number": 67,
                        "time": 465.60625000000033,
                        "value": 0
                    },
                    {
                        "number": 67,
                        "time": 506.56875000000787,
                        "value": 1
                    },
                    {
                        "number": 67,
                        "time": 519.7854166666752,
                        "value": 1
                    },
                    {
                        "number": 67,
                        "time": 547.8520833333434,
                        "value": 1
                    },
                    {
                        "number": 67,
                        "time": 552.7750000000096,
                        "value": 0
                    },
                    {
                        "number": 67,
                        "time": 594.2562500000104,
                        "value": 1
                    },
                    {
                        "number": 67,
                        "time": 600.9854166666764,
                        "value": 0
                    },
                    {
                        "number": 67,
                        "time": 649.6937500000154,
                        "value": 1
                    },
                    {
                        "number": 67,
                        "time": 677.27083333335,
                        "value": 1
                    },
                    {
                        "number": 67,
                        "time": 677.5666666666832,
                        "value": 0
                    },
                    {
                        "number": 67,
                        "time": 776.5041666666848,
                        "value": 1
                    },
                    {
                        "number": 67,
                        "time": 780.3770833333525,
                        "value": 0
                    }
                ]
            },
            "id": 2,
            "channelNumber": 0,
            "isPercussion": false
        }
    ]
}