{
    "header": {
        "PPQ": 120,
        "timeSignature": [
            2,
            4
        ],
        "bpm": 77.99997660000702,
        "name": "Chanson de la mariée"
    },
    "startTime": 0,
    "duration": 81.53848599999993,
    "tracks": [
        {
            "startTime": 0,
            "duration": 0,
            "length": 0,
            "notes": [],
            "controlChanges": {},
            "id": 0,
            "name": "Chanson de la mariée"
        },
        {
            "startTime": 1.1538465,
            "duration": 79.32694687499999,
            "length": 10,
            "notes": [
                {
                    "name": "G4",
                    "midi": 67,
                    "time": 1.1538465,
                    "velocity": 0.007874015748031496,
                    "duration": 0.09615387499999994
                },
                {
                    "name": "D5",
                    "midi": 74,
                    "time": 3.4615394999999998,
                    "velocity": 0.007874015748031496,
                    "duration": 0.3846154999999998
                },
                {
                    "name": "D5",
                    "midi": 74,
                    "time": 15.38462,
                    "velocity": 0.007874015748031496,
                    "duration": 0.7692309999999996
                },
                {
                    "name": "D5",
                    "midi": 74,
                    "time": 27.692315999999998,
                    "velocity": 0.007874015748031496,
                    "duration": 0.5769232500000001
                },
                {
                    "name": "G4",
                    "midi": 67,
                    "time": 39.230781,
                    "velocity": 0.007874015748031496,
                    "duration": 0.09615387499999883
                },
                {
                    "name": "D5",
                    "midi": 74,
                    "time": 43.4615515,
                    "velocity": 0.007874015748031496,
                    "duration": 0.38461550000000244
                },
                {
                    "name": "D5",
                    "midi": 74,
                    "time": 55.384632,
                    "velocity": 0.007874015748031496,
                    "duration": 0.7692309999999978
                },
                {
                    "name": "D5",
                    "midi": 74,
                    "time": 67.692328,
                    "velocity": 0.007874015748031496,
                    "duration": 0.576923249999993
                },
                {
                    "name": "C5",
                    "midi": 72,
                    "time": 73.846176,
                    "velocity": 0.007874015748031496,
                    "duration": 0.38461549999999534
                },
                {
                    "name": "G4",
                    "midi": 67,
                    "time": 79.23079299999999,
                    "velocity": 0.007874015748031496,
                    "duration": 0.09615387499999883
                }
            ],
            "controlChanges": {},
            "id": 1,
            "name": "English (open lyrics window)",
            "channelNumber": 0,
            "isPercussion": false
        },
        {
            "startTime": 1.1538465,
            "duration": 79.32694687499995,
            "length": 140,
            "notes": [
                {
                    "name": "G4",
                    "midi": 67,
                    "time": 1.1538465,
                    "velocity": 0.007874015748031496,
                    "duration": 0.09615387499999994
                },
                {
                    "name": "D5",
                    "midi": 74,
                    "time": 3.4615394999999998,
                    "velocity": 0.007874015748031496,
                    "duration": 0.3846154999999998
                },
                {
                    "name": "D5",
                    "midi": 74,
                    "time": 3.8461549999999995,
                    "velocity": 0.007874015748031496,
                    "duration": 0.3846154999999998
                },
                {
                    "name": "D5",
                    "midi": 74,
                    "time": 4.230770499999999,
                    "velocity": 0.007874015748031496,
                    "duration": 0.3846154999999998
                },
                {
                    "name": "D5",
                    "midi": 74,
                    "time": 4.615385999999999,
                    "velocity": 0.007874015748031496,
                    "duration": 0.5769232500000001
                },
                {
                    "name": "A#4",
                    "midi": 70,
                    "time": 5.192309249999999,
                    "velocity": 0.007874015748031496,
                    "duration": 0.19230775000000033
                },
                {
                    "name": "C5",
                    "midi": 72,
                    "time": 5.3846169999999995,
                    "velocity": 0.007874015748031496,
                    "duration": 0.3846154999999998
                },
                {
                    "name": "D5",
                    "midi": 74,
                    "time": 5.769232499999999,
                    "velocity": 0.007874015748031496,
                    "duration": 0.3846154999999998
                },
                {
                    "name": "D#5",
                    "midi": 75,
                    "time": 6.153847999999999,
                    "velocity": 0.007874015748031496,
                    "duration": 0.5769232500000001
                },
                {
                    "name": "D5",
                    "midi": 74,
                    "time": 6.730771249999999,
                    "velocity": 0.007874015748031496,
                    "duration": 0.19230775000000033
                },
                {
                    "name": "D#5",
                    "midi": 75,
                    "time": 7.051284166666666,
                    "velocity": 0.007874015748031496,
                    "duration": 0.4487180833333335
                },
                {
                    "name": "D5",
                    "midi": 74,
                    "time": 7.50000225,
                    "velocity": 0.007874015748031496,
                    "duration": 0.19230775000000033
                },
                {
                    "name": "C5",
                    "midi": 72,
                    "time": 7.69231,
                    "velocity": 0.007874015748031496,
                    "duration": 0.7692310000000004
                },
                {
                    "name": "A#4",
                    "midi": 70,
                    "time": 8.589746166666668,
                    "velocity": 0.007874015748031496,
                    "duration": 0.6410258333333338
                },
                {
                    "name": "D5",
                    "midi": 74,
                    "time": 9.230772000000002,
                    "velocity": 0.007874015748031496,
                    "duration": 0.38461550000000067
                },
                {
                    "name": "D5",
                    "midi": 74,
                    "time": 9.615387500000002,
                    "velocity": 0.007874015748031496,
                    "duration": 0.38461550000000067
                },
                {
                    "name": "D5",
                    "midi": 74,
                    "time": 10.000003000000003,
                    "velocity": 0.007874015748031496,
                    "duration": 0.38461550000000067
                },
                {
                    "name": "D5",
                    "midi": 74,
                    "time": 10.384618500000004,
                    "velocity": 0.007874015748031496,
                    "duration": 0.38461550000000067
                },
                {
                    "name": "D5",
                    "midi": 74,
                    "time": 10.769234000000004,
                    "velocity": 0.007874015748031496,
                    "duration": 0.5769232500000001
                },
                {
                    "name": "A#4",
                    "midi": 70,
                    "time": 11.346157250000005,
                    "velocity": 0.007874015748031496,
                    "duration": 0.19230774999999944
                },
                {
                    "name": "C5",
                    "midi": 72,
                    "time": 11.538465000000004,
                    "velocity": 0.007874015748031496,
                    "duration": 0.38461550000000067
                },
                {
                    "name": "D5",
                    "midi": 74,
                    "time": 11.923080500000005,
                    "velocity": 0.007874015748031496,
                    "duration": 0.38461550000000067
                },
                {
                    "name": "D#5",
                    "midi": 75,
                    "time": 12.307696000000005,
                    "velocity": 0.007874015748031496,
                    "duration": 0.5769232500000001
                },
                {
                    "name": "D5",
                    "midi": 74,
                    "time": 12.884619250000005,
                    "velocity": 0.007874015748031496,
                    "duration": 0.19230774999999944
                },
                {
                    "name": "D#5",
                    "midi": 75,
                    "time": 13.205132166666672,
                    "velocity": 0.007874015748031496,
                    "duration": 0.44871808333333263
                },
                {
                    "name": "D5",
                    "midi": 74,
                    "time": 13.653850250000005,
                    "velocity": 0.007874015748031496,
                    "duration": 0.19230774999999944
                },
                {
                    "name": "C5",
                    "midi": 72,
                    "time": 13.846158000000004,
                    "velocity": 0.007874015748031496,
                    "duration": 0.7692309999999996
                },
                {
                    "name": "A#4",
                    "midi": 70,
                    "time": 14.743594166666671,
                    "velocity": 0.007874015748031496,
                    "duration": 0.2564103333333332
                },
                {
                    "name": "D5",
                    "midi": 74,
                    "time": 15.384620000000005,
                    "velocity": 0.007874015748031496,
                    "duration": 0.7692310000000013
                },
                {
                    "name": "D#5",
                    "midi": 75,
                    "time": 16.153851000000007,
                    "velocity": 0.007874015748031496,
                    "duration": 0.5769232500000001
                },
                {
                    "name": "C5",
                    "midi": 72,
                    "time": 16.730774250000007,
                    "velocity": 0.007874015748031496,
                    "duration": 0.19230775000000122
                },
                {
                    "name": "A#4",
                    "midi": 70,
                    "time": 16.923082000000008,
                    "velocity": 0.007874015748031496,
                    "duration": 0.7692310000000013
                },
                {
                    "name": "G4",
                    "midi": 67,
                    "time": 17.69231300000001,
                    "velocity": 0.007874015748031496,
                    "duration": 0.7692310000000013
                },
                {
                    "name": "G#4",
                    "midi": 68,
                    "time": 18.46154400000001,
                    "velocity": 0.007874015748031496,
                    "duration": 0.3846154999999989
                },
                {
                    "name": "D5",
                    "midi": 74,
                    "time": 20.00000600000001,
                    "velocity": 0.007874015748031496,
                    "duration": 0.7692310000000013
                },
                {
                    "name": "D5",
                    "midi": 74,
                    "time": 20.76923700000001,
                    "velocity": 0.007874015748031496,
                    "duration": 0.09615387499999883
                },
                {
                    "name": "C5",
                    "midi": 72,
                    "time": 21.53846800000001,
                    "velocity": 0.007874015748031496,
                    "duration": 0.3846154999999989
                },
                {
                    "name": "D5",
                    "midi": 74,
                    "time": 21.923083500000008,
                    "velocity": 0.007874015748031496,
                    "duration": 0.3846154999999989
                },
                {
                    "name": "D#5",
                    "midi": 75,
                    "time": 22.307699000000007,
                    "velocity": 0.007874015748031496,
                    "duration": 0.5769232500000001
                },
                {
                    "name": "C5",
                    "midi": 72,
                    "time": 22.884622250000007,
                    "velocity": 0.007874015748031496,
                    "duration": 0.19230775000000122
                },
                {
                    "name": "A#4",
                    "midi": 70,
                    "time": 23.076930000000008,
                    "velocity": 0.007874015748031496,
                    "duration": 0.7692310000000013
                },
                {
                    "name": "G4",
                    "midi": 67,
                    "time": 23.84616100000001,
                    "velocity": 0.007874015748031496,
                    "duration": 0.7692310000000013
                },
                {
                    "name": "G#4",
                    "midi": 68,
                    "time": 24.61539200000001,
                    "velocity": 0.007874015748031496,
                    "duration": 0.3846154999999989
                },
                {
                    "name": "G4",
                    "midi": 67,
                    "time": 26.15385400000001,
                    "velocity": 0.007874015748031496,
                    "duration": 0.7692310000000013
                },
                {
                    "name": "G4",
                    "midi": 67,
                    "time": 26.92308500000001,
                    "velocity": 0.007874015748031496,
                    "duration": 0.09615387499999883
                },
                {
                    "name": "D5",
                    "midi": 74,
                    "time": 27.69231600000001,
                    "velocity": 0.007874015748031496,
                    "duration": 0.5769232500000001
                },
                {
                    "name": "D5",
                    "midi": 74,
                    "time": 28.26923925000001,
                    "velocity": 0.007874015748031496,
                    "duration": 0.19230775000000122
                },
                {
                    "name": "D#5",
                    "midi": 75,
                    "time": 28.46154700000001,
                    "velocity": 0.007874015748031496,
                    "duration": 0.5769232500000001
                },
                {
                    "name": "C5",
                    "midi": 72,
                    "time": 29.03847025000001,
                    "velocity": 0.007874015748031496,
                    "duration": 0.19230775000000122
                },
                {
                    "name": "A#4",
                    "midi": 70,
                    "time": 29.23077800000001,
                    "velocity": 0.007874015748031496,
                    "duration": 0.7692310000000013
                },
                {
                    "name": "G4",
                    "midi": 67,
                    "time": 30.000009000000013,
                    "velocity": 0.007874015748031496,
                    "duration": 0.7692310000000013
                },
                {
                    "name": "G#4",
                    "midi": 68,
                    "time": 30.769240000000014,
                    "velocity": 0.007874015748031496,
                    "duration": 0.5769232500000001
                },
                {
                    "name": "A#4",
                    "midi": 70,
                    "time": 31.346163250000014,
                    "velocity": 0.007874015748031496,
                    "duration": 0.19230775000000122
                },
                {
                    "name": "C5",
                    "midi": 72,
                    "time": 31.538471000000015,
                    "velocity": 0.007874015748031496,
                    "duration": 0.5769232500000001
                },
                {
                    "name": "G#4",
                    "midi": 68,
                    "time": 32.115394250000016,
                    "velocity": 0.007874015748031496,
                    "duration": 0.19230774999999767
                },
                {
                    "name": "D5",
                    "midi": 74,
                    "time": 32.30770200000001,
                    "velocity": 0.007874015748031496,
                    "duration": 0.7692309999999978
                },
                {
                    "name": "D5",
                    "midi": 74,
                    "time": 33.07693300000001,
                    "velocity": 0.007874015748031496,
                    "duration": 0.09615387499999883
                },
                {
                    "name": "C5",
                    "midi": 72,
                    "time": 33.84616400000001,
                    "velocity": 0.007874015748031496,
                    "duration": 0.5769232500000001
                },
                {
                    "name": "D5",
                    "midi": 74,
                    "time": 34.42308725000001,
                    "velocity": 0.007874015748031496,
                    "duration": 0.19230774999999767
                },
                {
                    "name": "D#5",
                    "midi": 75,
                    "time": 34.61539500000001,
                    "velocity": 0.007874015748031496,
                    "duration": 0.5769232500000001
                },
                {
                    "name": "C5",
                    "midi": 72,
                    "time": 35.19231825000001,
                    "velocity": 0.007874015748031496,
                    "duration": 0.19230774999999767
                },
                {
                    "name": "A#4",
                    "midi": 70,
                    "time": 35.384626000000004,
                    "velocity": 0.007874015748031496,
                    "duration": 0.7692309999999978
                },
                {
                    "name": "G4",
                    "midi": 67,
                    "time": 36.153857,
                    "velocity": 0.007874015748031496,
                    "duration": 0.7692309999999978
                },
                {
                    "name": "G#4",
                    "midi": 68,
                    "time": 36.923088,
                    "velocity": 0.007874015748031496,
                    "duration": 0.5769232500000001
                },
                {
                    "name": "A#4",
                    "midi": 70,
                    "time": 37.50001125,
                    "velocity": 0.007874015748031496,
                    "duration": 0.19230774999999767
                },
                {
                    "name": "C5",
                    "midi": 72,
                    "time": 37.692319,
                    "velocity": 0.007874015748031496,
                    "duration": 0.5769232500000001
                },
                {
                    "name": "G#4",
                    "midi": 68,
                    "time": 38.26924225,
                    "velocity": 0.007874015748031496,
                    "duration": 0.19230774999999767
                },
                {
                    "name": "G4",
                    "midi": 67,
                    "time": 38.461549999999995,
                    "velocity": 0.007874015748031496,
                    "duration": 0.7692309999999978
                },
                {
                    "name": "G4",
                    "midi": 67,
                    "time": 39.23078099999999,
                    "velocity": 0.007874015748031496,
                    "duration": 0.09615387499999883
                },
                {
                    "name": "D5",
                    "midi": 74,
                    "time": 43.46155149999999,
                    "velocity": 0.007874015748031496,
                    "duration": 0.38461550000000244
                },
                {
                    "name": "D5",
                    "midi": 74,
                    "time": 43.846166999999994,
                    "velocity": 0.007874015748031496,
                    "duration": 0.38461550000000244
                },
                {
                    "name": "D5",
                    "midi": 74,
                    "time": 44.2307825,
                    "velocity": 0.007874015748031496,
                    "duration": 0.38461550000000244
                },
                {
                    "name": "D5",
                    "midi": 74,
                    "time": 44.615398,
                    "velocity": 0.007874015748031496,
                    "duration": 0.38461550000000244
                },
                {
                    "name": "A#4",
                    "midi": 70,
                    "time": 45.19232125,
                    "velocity": 0.007874015748031496,
                    "duration": 0.19230774999999767
                },
                {
                    "name": "C5",
                    "midi": 72,
                    "time": 45.384629,
                    "velocity": 0.007874015748031496,
                    "duration": 0.38461550000000244
                },
                {
                    "name": "D5",
                    "midi": 74,
                    "time": 45.7692445,
                    "velocity": 0.007874015748031496,
                    "duration": 0.38461550000000244
                },
                {
                    "name": "D#5",
                    "midi": 75,
                    "time": 46.15386,
                    "velocity": 0.007874015748031496,
                    "duration": 0.5769232500000001
                },
                {
                    "name": "D5",
                    "midi": 74,
                    "time": 46.73078325,
                    "velocity": 0.007874015748031496,
                    "duration": 0.19230774999999767
                },
                {
                    "name": "D#5",
                    "midi": 75,
                    "time": 46.923091,
                    "velocity": 0.007874015748031496,
                    "duration": 0.5769232500000001
                },
                {
                    "name": "D5",
                    "midi": 74,
                    "time": 47.50001425,
                    "velocity": 0.007874015748031496,
                    "duration": 0.19230774999999767
                },
                {
                    "name": "C5",
                    "midi": 72,
                    "time": 47.692322,
                    "velocity": 0.007874015748031496,
                    "duration": 0.7692309999999978
                },
                {
                    "name": "A#4",
                    "midi": 70,
                    "time": 48.58975816666666,
                    "velocity": 0.007874015748031496,
                    "duration": 0.6410258333333303
                },
                {
                    "name": "D5",
                    "midi": 74,
                    "time": 49.615399499999995,
                    "velocity": 0.007874015748031496,
                    "duration": 0.38461550000000244
                },
                {
                    "name": "D5",
                    "midi": 74,
                    "time": 50.000015,
                    "velocity": 0.007874015748031496,
                    "duration": 0.38461550000000244
                },
                {
                    "name": "D5",
                    "midi": 74,
                    "time": 50.3846305,
                    "velocity": 0.007874015748031496,
                    "duration": 0.38461550000000244
                },
                {
                    "name": "D5",
                    "midi": 74,
                    "time": 50.769246,
                    "velocity": 0.007874015748031496,
                    "duration": 0.38461550000000244
                },
                {
                    "name": "A#4",
                    "midi": 70,
                    "time": 51.34616925,
                    "velocity": 0.007874015748031496,
                    "duration": 0.19230774999999767
                },
                {
                    "name": "C5",
                    "midi": 72,
                    "time": 51.538477,
                    "velocity": 0.007874015748031496,
                    "duration": 0.38461550000000244
                },
                {
                    "name": "D5",
                    "midi": 74,
                    "time": 51.9230925,
                    "velocity": 0.007874015748031496,
                    "duration": 0.38461550000000244
                },
                {
                    "name": "D#5",
                    "midi": 75,
                    "time": 52.307708000000005,
                    "velocity": 0.007874015748031496,
                    "duration": 0.5769232500000001
                },
                {
                    "name": "D5",
                    "midi": 74,
                    "time": 52.884631250000005,
                    "velocity": 0.007874015748031496,
                    "duration": 0.19230774999999767
                },
                {
                    "name": "D#5",
                    "midi": 75,
                    "time": 53.076939,
                    "velocity": 0.007874015748031496,
                    "duration": 0.5769232500000001
                },
                {
                    "name": "D5",
                    "midi": 74,
                    "time": 53.65386225,
                    "velocity": 0.007874015748031496,
                    "duration": 0.19230774999999767
                },
                {
                    "name": "C5",
                    "midi": 72,
                    "time": 53.84617,
                    "velocity": 0.007874015748031496,
                    "duration": 0.7692309999999978
                },
                {
                    "name": "A#4",
                    "midi": 70,
                    "time": 54.615401,
                    "velocity": 0.007874015748031496,
                    "duration": 0.38461550000000244
                },
                {
                    "name": "D5",
                    "midi": 74,
                    "time": 55.384632,
                    "velocity": 0.007874015748031496,
                    "duration": 0.7692309999999978
                },
                {
                    "name": "D#5",
                    "midi": 75,
                    "time": 56.153863,
                    "velocity": 0.007874015748031496,
                    "duration": 0.5769232500000001
                },
                {
                    "name": "C5",
                    "midi": 72,
                    "time": 56.73078625,
                    "velocity": 0.007874015748031496,
                    "duration": 0.19230774999999767
                },
                {
                    "name": "A#4",
                    "midi": 70,
                    "time": 56.923094,
                    "velocity": 0.007874015748031496,
                    "duration": 0.7692309999999978
                },
                {
                    "name": "G4",
                    "midi": 67,
                    "time": 57.692325,
                    "velocity": 0.007874015748031496,
                    "duration": 0.7692309999999978
                },
                {
                    "name": "G#4",
                    "midi": 68,
                    "time": 58.461555999999995,
                    "velocity": 0.007874015748031496,
                    "duration": 0.38461550000000244
                },
                {
                    "name": "A#4",
                    "midi": 70,
                    "time": 58.8461715,
                    "velocity": 0.007874015748031496,
                    "duration": 0.38461550000000244
                },
                {
                    "name": "C5",
                    "midi": 72,
                    "time": 59.230787,
                    "velocity": 0.007874015748031496,
                    "duration": 0.5769232500000001
                },
                {
                    "name": "G#4",
                    "midi": 68,
                    "time": 59.80771025,
                    "velocity": 0.007874015748031496,
                    "duration": 0.19230774999999767
                },
                {
                    "name": "D5",
                    "midi": 74,
                    "time": 60.000018,
                    "velocity": 0.007874015748031496,
                    "duration": 1.1538465000000002
                },
                {
                    "name": "C5",
                    "midi": 72,
                    "time": 61.53848,
                    "velocity": 0.007874015748031496,
                    "duration": 0.38461550000000244
                },
                {
                    "name": "D#5",
                    "midi": 75,
                    "time": 62.307711000000005,
                    "velocity": 0.007874015748031496,
                    "duration": 0.5769232500000001
                },
                {
                    "name": "C5",
                    "midi": 72,
                    "time": 62.884634250000005,
                    "velocity": 0.007874015748031496,
                    "duration": 0.19230774999999767
                },
                {
                    "name": "A#4",
                    "midi": 70,
                    "time": 63.076942,
                    "velocity": 0.007874015748031496,
                    "duration": 0.7692309999999978
                },
                {
                    "name": "G4",
                    "midi": 67,
                    "time": 63.846173,
                    "velocity": 0.007874015748031496,
                    "duration": 0.7692309999999978
                },
                {
                    "name": "G#4",
                    "midi": 68,
                    "time": 64.615404,
                    "velocity": 0.007874015748031496,
                    "duration": 0.38461549999999534
                },
                {
                    "name": "A#4",
                    "midi": 70,
                    "time": 65.0000195,
                    "velocity": 0.007874015748031496,
                    "duration": 0.38461549999999534
                },
                {
                    "name": "C5",
                    "midi": 72,
                    "time": 65.38463499999999,
                    "velocity": 0.007874015748031496,
                    "duration": 0.576923249999993
                },
                {
                    "name": "G#4",
                    "midi": 68,
                    "time": 65.96155824999998,
                    "velocity": 0.007874015748031496,
                    "duration": 0.19230774999999767
                },
                {
                    "name": "G4",
                    "midi": 67,
                    "time": 66.15386599999998,
                    "velocity": 0.007874015748031496,
                    "duration": 0.7692310000000049
                },
                {
                    "name": "G4",
                    "midi": 67,
                    "time": 66.92309699999998,
                    "velocity": 0.007874015748031496,
                    "duration": 0.09615387499999883
                },
                {
                    "name": "D5",
                    "midi": 74,
                    "time": 67.69232799999999,
                    "velocity": 0.007874015748031496,
                    "duration": 0.576923249999993
                },
                {
                    "name": "D5",
                    "midi": 74,
                    "time": 68.26925124999998,
                    "velocity": 0.007874015748031496,
                    "duration": 0.19230774999999767
                },
                {
                    "name": "D#5",
                    "midi": 75,
                    "time": 68.46155899999998,
                    "velocity": 0.007874015748031496,
                    "duration": 0.576923249999993
                },
                {
                    "name": "C5",
                    "midi": 72,
                    "time": 69.03848224999997,
                    "velocity": 0.007874015748031496,
                    "duration": 0.19230774999999767
                },
                {
                    "name": "A#4",
                    "midi": 70,
                    "time": 69.23078999999997,
                    "velocity": 0.007874015748031496,
                    "duration": 0.7692310000000049
                },
                {
                    "name": "G4",
                    "midi": 67,
                    "time": 70.00002099999998,
                    "velocity": 0.007874015748031496,
                    "duration": 0.7692310000000049
                },
                {
                    "name": "G#4",
                    "midi": 68,
                    "time": 70.76925199999998,
                    "velocity": 0.007874015748031496,
                    "duration": 0.576923249999993
                },
                {
                    "name": "A#4",
                    "midi": 70,
                    "time": 71.34617524999997,
                    "velocity": 0.007874015748031496,
                    "duration": 0.19230774999999767
                },
                {
                    "name": "C5",
                    "midi": 72,
                    "time": 71.53848299999997,
                    "velocity": 0.007874015748031496,
                    "duration": 0.576923249999993
                },
                {
                    "name": "G#4",
                    "midi": 68,
                    "time": 72.11540624999996,
                    "velocity": 0.007874015748031496,
                    "duration": 0.19230774999999767
                },
                {
                    "name": "D5",
                    "midi": 74,
                    "time": 72.30771399999996,
                    "velocity": 0.007874015748031496,
                    "duration": 0.7692310000000049
                },
                {
                    "name": "D5",
                    "midi": 74,
                    "time": 73.07694499999997,
                    "velocity": 0.007874015748031496,
                    "duration": 0.09615387499999883
                },
                {
                    "name": "C5",
                    "midi": 72,
                    "time": 73.84617599999997,
                    "velocity": 0.007874015748031496,
                    "duration": 0.38461549999999534
                },
                {
                    "name": "D5",
                    "midi": 74,
                    "time": 74.23079149999997,
                    "velocity": 0.007874015748031496,
                    "duration": 0.38461549999999534
                },
                {
                    "name": "D#5",
                    "midi": 75,
                    "time": 74.61540699999996,
                    "velocity": 0.007874015748031496,
                    "duration": 0.576923249999993
                },
                {
                    "name": "C5",
                    "midi": 72,
                    "time": 75.19233024999996,
                    "velocity": 0.007874015748031496,
                    "duration": 0.19230774999999767
                },
                {
                    "name": "A#4",
                    "midi": 70,
                    "time": 75.38463799999995,
                    "velocity": 0.007874015748031496,
                    "duration": 0.7692310000000049
                },
                {
                    "name": "G4",
                    "midi": 67,
                    "time": 76.15386899999996,
                    "velocity": 0.007874015748031496,
                    "duration": 0.7692310000000049
                },
                {
                    "name": "G#4",
                    "midi": 68,
                    "time": 76.92309999999996,
                    "velocity": 0.007874015748031496,
                    "duration": 0.576923249999993
                },
                {
                    "name": "A#4",
                    "midi": 70,
                    "time": 77.50002324999996,
                    "velocity": 0.007874015748031496,
                    "duration": 0.19230774999999767
                },
                {
                    "name": "C5",
                    "midi": 72,
                    "time": 77.69233099999995,
                    "velocity": 0.007874015748031496,
                    "duration": 0.576923249999993
                },
                {
                    "name": "G#4",
                    "midi": 68,
                    "time": 78.26925424999995,
                    "velocity": 0.007874015748031496,
                    "duration": 0.19230774999999767
                },
                {
                    "name": "G4",
                    "midi": 67,
                    "time": 78.46156199999994,
                    "velocity": 0.007874015748031496,
                    "duration": 0.7692310000000049
                },
                {
                    "name": "G4",
                    "midi": 67,
                    "time": 79.23079299999995,
                    "velocity": 0.007874015748031496,
                    "duration": 0.09615387499999883
                }
            ],
            "controlChanges": {},
            "id": 2,
            "name": "French (open lyrics window)",
            "channelNumber": 1,
            "isPercussion": false
        },
        {
            "startTime": 3.4615394999999998,
            "duration": 79.23079299999995,
            "length": 149,
            "notes": [
                {
                    "name": "D5",
                    "midi": 74,
                    "time": 3.4615394999999998,
                    "velocity": 0.7874015748031497,
                    "duration": 0.3846154999999998
                },
                {
                    "name": "D5",
                    "midi": 74,
                    "time": 3.8461549999999995,
                    "velocity": 0.7874015748031497,
                    "duration": 0.3846154999999998
                },
                {
                    "name": "D5",
                    "midi": 74,
                    "time": 4.230770499999999,
                    "velocity": 0.7874015748031497,
                    "duration": 0.3846154999999998
                },
                {
                    "name": "D5",
                    "midi": 74,
                    "time": 4.615385999999999,
                    "velocity": 0.7874015748031497,
                    "duration": 0.5769232500000001
                },
                {
                    "name": "A#4",
                    "midi": 70,
                    "time": 5.192309249999999,
                    "velocity": 0.7874015748031497,
                    "duration": 0.19230775000000033
                },
                {
                    "name": "C5",
                    "midi": 72,
                    "time": 5.3846169999999995,
                    "velocity": 0.7874015748031497,
                    "duration": 0.3846154999999998
                },
                {
                    "name": "D5",
                    "midi": 74,
                    "time": 5.769232499999999,
                    "velocity": 0.7874015748031497,
                    "duration": 0.3846154999999998
                },
                {
                    "name": "D#5",
                    "midi": 75,
                    "time": 6.153847999999999,
                    "velocity": 0.7874015748031497,
                    "duration": 0.5769232500000001
                },
                {
                    "name": "D5",
                    "midi": 74,
                    "time": 6.730771249999999,
                    "velocity": 0.7874015748031497,
                    "duration": 0.19230775000000033
                },
                {
                    "name": "D#5",
                    "midi": 75,
                    "time": 6.9230789999999995,
                    "velocity": 0.7874015748031497,
                    "duration": 0.06410258333333374
                },
                {
                    "name": "F5",
                    "midi": 77,
                    "time": 6.987181583333333,
                    "velocity": 0.7874015748031497,
                    "duration": 0.06410258333333374
                },
                {
                    "name": "D#5",
                    "midi": 75,
                    "time": 7.051284166666667,
                    "velocity": 0.7874015748031497,
                    "duration": 0.4487180833333335
                },
                {
                    "name": "D5",
                    "midi": 74,
                    "time": 7.5000022500000005,
                    "velocity": 0.7874015748031497,
                    "duration": 0.19230775000000033
                },
                {
                    "name": "C5",
                    "midi": 72,
                    "time": 7.692310000000001,
                    "velocity": 0.7874015748031497,
                    "duration": 0.7692309999999996
                },
                {
                    "name": "D5",
                    "midi": 74,
                    "time": 8.461541,
                    "velocity": 0.7874015748031497,
                    "duration": 0.06410258333333374
                },
                {
                    "name": "C5",
                    "midi": 72,
                    "time": 8.525643583333334,
                    "velocity": 0.7874015748031497,
                    "duration": 0.06410258333333374
                },
                {
                    "name": "A#4",
                    "midi": 70,
                    "time": 8.589746166666668,
                    "velocity": 0.7874015748031497,
                    "duration": 0.6410258333333338
                },
                {
                    "name": "D5",
                    "midi": 74,
                    "time": 9.230772000000002,
                    "velocity": 0.7874015748031497,
                    "duration": 0.38461550000000067
                },
                {
                    "name": "D5",
                    "midi": 74,
                    "time": 9.615387500000002,
                    "velocity": 0.7874015748031497,
                    "duration": 0.38461550000000067
                },
                {
                    "name": "D5",
                    "midi": 74,
                    "time": 10.000003000000003,
                    "velocity": 0.7874015748031497,
                    "duration": 0.38461550000000067
                },
                {
                    "name": "D5",
                    "midi": 74,
                    "time": 10.384618500000004,
                    "velocity": 0.7874015748031497,
                    "duration": 0.38461550000000067
                },
                {
                    "name": "D5",
                    "midi": 74,
                    "time": 10.769234000000004,
                    "velocity": 0.7874015748031497,
                    "duration": 0.5769232500000001
                },
                {
                    "name": "A#4",
                    "midi": 70,
                    "time": 11.346157250000005,
                    "velocity": 0.7874015748031497,
                    "duration": 0.19230774999999944
                },
                {
                    "name": "C5",
                    "midi": 72,
                    "time": 11.538465000000004,
                    "velocity": 0.7874015748031497,
                    "duration": 0.38461550000000067
                },
                {
                    "name": "D5",
                    "midi": 74,
                    "time": 11.923080500000005,
                    "velocity": 0.7874015748031497,
                    "duration": 0.38461550000000067
                },
                {
                    "name": "D#5",
                    "midi": 75,
                    "time": 12.307696000000005,
                    "velocity": 0.7874015748031497,
                    "duration": 0.5769232500000001
                },
                {
                    "name": "D5",
                    "midi": 74,
                    "time": 12.884619250000005,
                    "velocity": 0.7874015748031497,
                    "duration": 0.19230774999999944
                },
                {
                    "name": "D#5",
                    "midi": 75,
                    "time": 13.076927000000005,
                    "velocity": 0.7874015748031497,
                    "duration": 0.06410258333333374
                },
                {
                    "name": "F5",
                    "midi": 77,
                    "time": 13.141029583333339,
                    "velocity": 0.7874015748031497,
                    "duration": 0.06410258333333374
                },
                {
                    "name": "D#5",
                    "midi": 75,
                    "time": 13.205132166666672,
                    "velocity": 0.7874015748031497,
                    "duration": 0.44871808333333263
                },
                {
                    "name": "D5",
                    "midi": 74,
                    "time": 13.653850250000005,
                    "velocity": 0.7874015748031497,
                    "duration": 0.19230774999999944
                },
                {
                    "name": "C5",
                    "midi": 72,
                    "time": 13.846158000000004,
                    "velocity": 0.7874015748031497,
                    "duration": 0.7692309999999996
                },
                {
                    "name": "D5",
                    "midi": 74,
                    "time": 14.615389000000004,
                    "velocity": 0.7874015748031497,
                    "duration": 0.06410258333333374
                },
                {
                    "name": "C5",
                    "midi": 72,
                    "time": 14.679491583333338,
                    "velocity": 0.7874015748031497,
                    "duration": 0.06410258333333374
                },
                {
                    "name": "A#4",
                    "midi": 70,
                    "time": 14.743594166666671,
                    "velocity": 0.7874015748031497,
                    "duration": 0.2564103333333332
                },
                {
                    "name": "D5",
                    "midi": 74,
                    "time": 15.384620000000005,
                    "velocity": 0.7874015748031497,
                    "duration": 0.7692310000000013
                },
                {
                    "name": "D#5",
                    "midi": 75,
                    "time": 16.153851000000007,
                    "velocity": 0.7874015748031497,
                    "duration": 0.5769232500000001
                },
                {
                    "name": "C5",
                    "midi": 72,
                    "time": 16.730774250000007,
                    "velocity": 0.7874015748031497,
                    "duration": 0.19230775000000122
                },
                {
                    "name": "A#4",
                    "midi": 70,
                    "time": 16.923082000000008,
                    "velocity": 0.7874015748031497,
                    "duration": 0.7692310000000013
                },
                {
                    "name": "G4",
                    "midi": 67,
                    "time": 17.69231300000001,
                    "velocity": 0.7874015748031497,
                    "duration": 0.7692310000000013
                },
                {
                    "name": "G#4",
                    "midi": 68,
                    "time": 18.46154400000001,
                    "velocity": 0.7874015748031497,
                    "duration": 0.3846154999999989
                },
                {
                    "name": "A#4",
                    "midi": 70,
                    "time": 18.84615950000001,
                    "velocity": 0.7874015748031497,
                    "duration": 0.3846154999999989
                },
                {
                    "name": "C5",
                    "midi": 72,
                    "time": 19.23077500000001,
                    "velocity": 0.7874015748031497,
                    "duration": 0.5769232500000001
                },
                {
                    "name": "G#4",
                    "midi": 68,
                    "time": 19.80769825000001,
                    "velocity": 0.7874015748031497,
                    "duration": 0.19230775000000122
                },
                {
                    "name": "D5",
                    "midi": 74,
                    "time": 20.00000600000001,
                    "velocity": 0.7874015748031497,
                    "duration": 0.7692310000000013
                },
                {
                    "name": "C5",
                    "midi": 72,
                    "time": 21.538468000000012,
                    "velocity": 0.7874015748031497,
                    "duration": 0.3846154999999989
                },
                {
                    "name": "D5",
                    "midi": 74,
                    "time": 21.92308350000001,
                    "velocity": 0.7874015748031497,
                    "duration": 0.3846154999999989
                },
                {
                    "name": "D#5",
                    "midi": 75,
                    "time": 22.30769900000001,
                    "velocity": 0.7874015748031497,
                    "duration": 0.5769232500000001
                },
                {
                    "name": "C5",
                    "midi": 72,
                    "time": 22.88462225000001,
                    "velocity": 0.7874015748031497,
                    "duration": 0.19230775000000122
                },
                {
                    "name": "A#4",
                    "midi": 70,
                    "time": 23.07693000000001,
                    "velocity": 0.7874015748031497,
                    "duration": 0.7692310000000013
                },
                {
                    "name": "G4",
                    "midi": 67,
                    "time": 23.846161000000013,
                    "velocity": 0.7874015748031497,
                    "duration": 0.7692310000000013
                },
                {
                    "name": "G#4",
                    "midi": 68,
                    "time": 24.615392000000014,
                    "velocity": 0.7874015748031497,
                    "duration": 0.3846154999999989
                },
                {
                    "name": "A#4",
                    "midi": 70,
                    "time": 25.000007500000013,
                    "velocity": 0.7874015748031497,
                    "duration": 0.3846154999999989
                },
                {
                    "name": "C5",
                    "midi": 72,
                    "time": 25.384623000000012,
                    "velocity": 0.7874015748031497,
                    "duration": 0.5769232500000001
                },
                {
                    "name": "G#4",
                    "midi": 68,
                    "time": 25.961546250000012,
                    "velocity": 0.7874015748031497,
                    "duration": 0.19230775000000122
                },
                {
                    "name": "G4",
                    "midi": 67,
                    "time": 26.153854000000013,
                    "velocity": 0.7874015748031497,
                    "duration": 0.7692310000000013
                },
                {
                    "name": "D5",
                    "midi": 74,
                    "time": 27.692316000000016,
                    "velocity": 0.7874015748031497,
                    "duration": 0.5769232500000001
                },
                {
                    "name": "D5",
                    "midi": 74,
                    "time": 28.269239250000016,
                    "velocity": 0.7874015748031497,
                    "duration": 0.19230775000000122
                },
                {
                    "name": "D#5",
                    "midi": 75,
                    "time": 28.461547000000017,
                    "velocity": 0.7874015748031497,
                    "duration": 0.5769232500000001
                },
                {
                    "name": "C5",
                    "midi": 72,
                    "time": 29.038470250000017,
                    "velocity": 0.7874015748031497,
                    "duration": 0.19230775000000122
                },
                {
                    "name": "A#4",
                    "midi": 70,
                    "time": 29.23077800000002,
                    "velocity": 0.7874015748031497,
                    "duration": 0.7692310000000013
                },
                {
                    "name": "G4",
                    "midi": 67,
                    "time": 30.00000900000002,
                    "velocity": 0.7874015748031497,
                    "duration": 0.7692310000000013
                },
                {
                    "name": "G#4",
                    "midi": 68,
                    "time": 30.76924000000002,
                    "velocity": 0.7874015748031497,
                    "duration": 0.5769232500000001
                },
                {
                    "name": "A#4",
                    "midi": 70,
                    "time": 31.34616325000002,
                    "velocity": 0.7874015748031497,
                    "duration": 0.19230775000000122
                },
                {
                    "name": "C5",
                    "midi": 72,
                    "time": 31.538471000000023,
                    "velocity": 0.7874015748031497,
                    "duration": 0.5769232500000001
                },
                {
                    "name": "G#4",
                    "midi": 68,
                    "time": 32.11539425000002,
                    "velocity": 0.7874015748031497,
                    "duration": 0.19230774999999767
                },
                {
                    "name": "D5",
                    "midi": 74,
                    "time": 32.30770200000002,
                    "velocity": 0.7874015748031497,
                    "duration": 0.7692309999999978
                },
                {
                    "name": "C5",
                    "midi": 72,
                    "time": 33.846164000000016,
                    "velocity": 0.7874015748031497,
                    "duration": 0.5769232500000001
                },
                {
                    "name": "D5",
                    "midi": 74,
                    "time": 34.423087250000016,
                    "velocity": 0.7874015748031497,
                    "duration": 0.19230774999999767
                },
                {
                    "name": "D#5",
                    "midi": 75,
                    "time": 34.615395000000014,
                    "velocity": 0.7874015748031497,
                    "duration": 0.5769232500000001
                },
                {
                    "name": "C5",
                    "midi": 72,
                    "time": 35.192318250000014,
                    "velocity": 0.7874015748031497,
                    "duration": 0.19230774999999767
                },
                {
                    "name": "A#4",
                    "midi": 70,
                    "time": 35.38462600000001,
                    "velocity": 0.7874015748031497,
                    "duration": 0.7692309999999978
                },
                {
                    "name": "G4",
                    "midi": 67,
                    "time": 36.15385700000001,
                    "velocity": 0.7874015748031497,
                    "duration": 0.7692309999999978
                },
                {
                    "name": "G#4",
                    "midi": 68,
                    "time": 36.92308800000001,
                    "velocity": 0.7874015748031497,
                    "duration": 0.5769232500000001
                },
                {
                    "name": "A#4",
                    "midi": 70,
                    "time": 37.50001125000001,
                    "velocity": 0.7874015748031497,
                    "duration": 0.19230774999999767
                },
                {
                    "name": "C5",
                    "midi": 72,
                    "time": 37.692319000000005,
                    "velocity": 0.7874015748031497,
                    "duration": 0.5769232500000001
                },
                {
                    "name": "G#4",
                    "midi": 68,
                    "time": 38.269242250000005,
                    "velocity": 0.7874015748031497,
                    "duration": 0.19230774999999767
                },
                {
                    "name": "G4",
                    "midi": 67,
                    "time": 38.46155,
                    "velocity": 0.7874015748031497,
                    "duration": 0.7692309999999978
                },
                {
                    "name": "D5",
                    "midi": 74,
                    "time": 43.4615515,
                    "velocity": 0.7874015748031497,
                    "duration": 0.38461550000000244
                },
                {
                    "name": "D5",
                    "midi": 74,
                    "time": 43.846167,
                    "velocity": 0.7874015748031497,
                    "duration": 0.38461550000000244
                },
                {
                    "name": "D5",
                    "midi": 74,
                    "time": 44.230782500000004,
                    "velocity": 0.7874015748031497,
                    "duration": 0.38461550000000244
                },
                {
                    "name": "D5",
                    "midi": 74,
                    "time": 44.615398000000006,
                    "velocity": 0.7874015748031497,
                    "duration": 0.38461550000000244
                },
                {
                    "name": "A#4",
                    "midi": 70,
                    "time": 45.192321250000006,
                    "velocity": 0.7874015748031497,
                    "duration": 0.19230774999999767
                },
                {
                    "name": "C5",
                    "midi": 72,
                    "time": 45.384629000000004,
                    "velocity": 0.7874015748031497,
                    "duration": 0.38461550000000244
                },
                {
                    "name": "D5",
                    "midi": 74,
                    "time": 45.769244500000006,
                    "velocity": 0.7874015748031497,
                    "duration": 0.38461550000000244
                },
                {
                    "name": "D#5",
                    "midi": 75,
                    "time": 46.15386000000001,
                    "velocity": 0.7874015748031497,
                    "duration": 0.5769232500000001
                },
                {
                    "name": "D5",
                    "midi": 74,
                    "time": 46.73078325000001,
                    "velocity": 0.7874015748031497,
                    "duration": 0.19230774999999767
                },
                {
                    "name": "D#5",
                    "midi": 75,
                    "time": 46.92309100000001,
                    "velocity": 0.7874015748031497,
                    "duration": 0.5769232500000001
                },
                {
                    "name": "D5",
                    "midi": 74,
                    "time": 47.50001425000001,
                    "velocity": 0.7874015748031497,
                    "duration": 0.19230774999999767
                },
                {
                    "name": "C5",
                    "midi": 72,
                    "time": 47.692322000000004,
                    "velocity": 0.7874015748031497,
                    "duration": 0.7692309999999978
                },
                {
                    "name": "D5",
                    "midi": 74,
                    "time": 48.461553,
                    "velocity": 0.7874015748031497,
                    "duration": 0.06410258333333019
                },
                {
                    "name": "C5",
                    "midi": 72,
                    "time": 48.52565558333333,
                    "velocity": 0.7874015748031497,
                    "duration": 0.06410258333333019
                },
                {
                    "name": "A#4",
                    "midi": 70,
                    "time": 48.58975816666666,
                    "velocity": 0.7874015748031497,
                    "duration": 0.6410258333333303
                },
                {
                    "name": "D5",
                    "midi": 74,
                    "time": 49.615399499999995,
                    "velocity": 0.7874015748031497,
                    "duration": 0.38461550000000244
                },
                {
                    "name": "D5",
                    "midi": 74,
                    "time": 50.000015,
                    "velocity": 0.7874015748031497,
                    "duration": 0.38461550000000244
                },
                {
                    "name": "D5",
                    "midi": 74,
                    "time": 50.3846305,
                    "velocity": 0.7874015748031497,
                    "duration": 0.38461550000000244
                },
                {
                    "name": "D5",
                    "midi": 74,
                    "time": 50.769246,
                    "velocity": 0.7874015748031497,
                    "duration": 0.38461550000000244
                },
                {
                    "name": "A#4",
                    "midi": 70,
                    "time": 51.34616925,
                    "velocity": 0.7874015748031497,
                    "duration": 0.19230774999999767
                },
                {
                    "name": "C5",
                    "midi": 72,
                    "time": 51.538477,
                    "velocity": 0.7874015748031497,
                    "duration": 0.38461550000000244
                },
                {
                    "name": "D5",
                    "midi": 74,
                    "time": 51.9230925,
                    "velocity": 0.7874015748031497,
                    "duration": 0.38461550000000244
                },
                {
                    "name": "D#5",
                    "midi": 75,
                    "time": 52.307708000000005,
                    "velocity": 0.7874015748031497,
                    "duration": 0.5769232500000001
                },
                {
                    "name": "D5",
                    "midi": 74,
                    "time": 52.884631250000005,
                    "velocity": 0.7874015748031497,
                    "duration": 0.19230774999999767
                },
                {
                    "name": "D#5",
                    "midi": 75,
                    "time": 53.076939,
                    "velocity": 0.7874015748031497,
                    "duration": 0.5769232500000001
                },
                {
                    "name": "D5",
                    "midi": 74,
                    "time": 53.65386225,
                    "velocity": 0.7874015748031497,
                    "duration": 0.19230774999999767
                },
                {
                    "name": "C5",
                    "midi": 72,
                    "time": 53.84617,
                    "velocity": 0.7874015748031497,
                    "duration": 0.7692309999999978
                },
                {
                    "name": "A#4",
                    "midi": 70,
                    "time": 54.615401,
                    "velocity": 0.7874015748031497,
                    "duration": 0.38461550000000244
                },
                {
                    "name": "D5",
                    "midi": 74,
                    "time": 55.384632,
                    "velocity": 0.7874015748031497,
                    "duration": 0.7692309999999978
                },
                {
                    "name": "D#5",
                    "midi": 75,
                    "time": 56.153863,
                    "velocity": 0.7874015748031497,
                    "duration": 0.5769232500000001
                },
                {
                    "name": "C5",
                    "midi": 72,
                    "time": 56.73078625,
                    "velocity": 0.7874015748031497,
                    "duration": 0.19230774999999767
                },
                {
                    "name": "A#4",
                    "midi": 70,
                    "time": 56.923094,
                    "velocity": 0.7874015748031497,
                    "duration": 0.7692309999999978
                },
                {
                    "name": "G4",
                    "midi": 67,
                    "time": 57.692325,
                    "velocity": 0.7874015748031497,
                    "duration": 0.7692309999999978
                },
                {
                    "name": "G#4",
                    "midi": 68,
                    "time": 58.461555999999995,
                    "velocity": 0.7874015748031497,
                    "duration": 0.38461550000000244
                },
                {
                    "name": "A#4",
                    "midi": 70,
                    "time": 58.8461715,
                    "velocity": 0.7874015748031497,
                    "duration": 0.38461550000000244
                },
                {
                    "name": "C5",
                    "midi": 72,
                    "time": 59.230787,
                    "velocity": 0.7874015748031497,
                    "duration": 0.5769232500000001
                },
                {
                    "name": "G#4",
                    "midi": 68,
                    "time": 59.80771025,
                    "velocity": 0.7874015748031497,
                    "duration": 0.19230774999999767
                },
                {
                    "name": "D5",
                    "midi": 74,
                    "time": 60.000018,
                    "velocity": 0.7874015748031497,
                    "duration": 1.1538465000000002
                },
                {
                    "name": "C5",
                    "midi": 72,
                    "time": 61.53848,
                    "velocity": 0.7874015748031497,
                    "duration": 0.38461550000000244
                },
                {
                    "name": "D5",
                    "midi": 74,
                    "time": 61.9230955,
                    "velocity": 0.7874015748031497,
                    "duration": 0.38461550000000244
                },
                {
                    "name": "D#5",
                    "midi": 75,
                    "time": 62.307711000000005,
                    "velocity": 0.7874015748031497,
                    "duration": 0.5769232500000001
                },
                {
                    "name": "C5",
                    "midi": 72,
                    "time": 62.884634250000005,
                    "velocity": 0.7874015748031497,
                    "duration": 0.19230774999999767
                },
                {
                    "name": "A#4",
                    "midi": 70,
                    "time": 63.076942,
                    "velocity": 0.7874015748031497,
                    "duration": 0.7692309999999978
                },
                {
                    "name": "G4",
                    "midi": 67,
                    "time": 63.846173,
                    "velocity": 0.7874015748031497,
                    "duration": 0.7692309999999978
                },
                {
                    "name": "G#4",
                    "midi": 68,
                    "time": 64.615404,
                    "velocity": 0.7874015748031497,
                    "duration": 0.38461549999999534
                },
                {
                    "name": "A#4",
                    "midi": 70,
                    "time": 65.0000195,
                    "velocity": 0.7874015748031497,
                    "duration": 0.38461549999999534
                },
                {
                    "name": "C5",
                    "midi": 72,
                    "time": 65.38463499999999,
                    "velocity": 0.7874015748031497,
                    "duration": 0.576923249999993
                },
                {
                    "name": "G#4",
                    "midi": 68,
                    "time": 65.96155824999998,
                    "velocity": 0.7874015748031497,
                    "duration": 0.19230774999999767
                },
                {
                    "name": "G4",
                    "midi": 67,
                    "time": 66.15386599999998,
                    "velocity": 0.7874015748031497,
                    "duration": 0.7692310000000049
                },
                {
                    "name": "D5",
                    "midi": 74,
                    "time": 67.69232799999999,
                    "velocity": 0.7874015748031497,
                    "duration": 0.576923249999993
                },
                {
                    "name": "D5",
                    "midi": 74,
                    "time": 68.26925124999998,
                    "velocity": 0.7874015748031497,
                    "duration": 0.19230774999999767
                },
                {
                    "name": "D#5",
                    "midi": 75,
                    "time": 68.46155899999998,
                    "velocity": 0.7874015748031497,
                    "duration": 0.576923249999993
                },
                {
                    "name": "C5",
                    "midi": 72,
                    "time": 69.03848224999997,
                    "velocity": 0.7874015748031497,
                    "duration": 0.19230774999999767
                },
                {
                    "name": "A#4",
                    "midi": 70,
                    "time": 69.23078999999997,
                    "velocity": 0.7874015748031497,
                    "duration": 0.7692310000000049
                },
                {
                    "name": "G4",
                    "midi": 67,
                    "time": 70.00002099999998,
                    "velocity": 0.7874015748031497,
                    "duration": 0.7692310000000049
                },
                {
                    "name": "G#4",
                    "midi": 68,
                    "time": 70.76925199999998,
                    "velocity": 0.7874015748031497,
                    "duration": 0.576923249999993
                },
                {
                    "name": "A#4",
                    "midi": 70,
                    "time": 71.34617524999997,
                    "velocity": 0.7874015748031497,
                    "duration": 0.19230774999999767
                },
                {
                    "name": "C5",
                    "midi": 72,
                    "time": 71.53848299999997,
                    "velocity": 0.7874015748031497,
                    "duration": 0.576923249999993
                },
                {
                    "name": "G#4",
                    "midi": 68,
                    "time": 72.11540624999996,
                    "velocity": 0.7874015748031497,
                    "duration": 0.19230774999999767
                },
                {
                    "name": "D5",
                    "midi": 74,
                    "time": 72.30771399999996,
                    "velocity": 0.7874015748031497,
                    "duration": 0.7692310000000049
                },
                {
                    "name": "C5",
                    "midi": 72,
                    "time": 73.84617599999997,
                    "velocity": 0.7874015748031497,
                    "duration": 0.38461549999999534
                },
                {
                    "name": "D5",
                    "midi": 74,
                    "time": 74.23079149999997,
                    "velocity": 0.7874015748031497,
                    "duration": 0.38461549999999534
                },
                {
                    "name": "D#5",
                    "midi": 75,
                    "time": 74.61540699999996,
                    "velocity": 0.7874015748031497,
                    "duration": 0.576923249999993
                },
                {
                    "name": "C5",
                    "midi": 72,
                    "time": 75.19233024999996,
                    "velocity": 0.7874015748031497,
                    "duration": 0.19230774999999767
                },
                {
                    "name": "A#4",
                    "midi": 70,
                    "time": 75.38463799999995,
                    "velocity": 0.7874015748031497,
                    "duration": 0.7692310000000049
                },
                {
                    "name": "G4",
                    "midi": 67,
                    "time": 76.15386899999996,
                    "velocity": 0.7874015748031497,
                    "duration": 0.7692310000000049
                },
                {
                    "name": "G#4",
                    "midi": 68,
                    "time": 76.92309999999996,
                    "velocity": 0.7874015748031497,
                    "duration": 0.576923249999993
                },
                {
                    "name": "A#4",
                    "midi": 70,
                    "time": 77.50002324999996,
                    "velocity": 0.7874015748031497,
                    "duration": 0.19230774999999767
                },
                {
                    "name": "C5",
                    "midi": 72,
                    "time": 77.69233099999995,
                    "velocity": 0.7874015748031497,
                    "duration": 0.576923249999993
                },
                {
                    "name": "G#4",
                    "midi": 68,
                    "time": 78.26925424999995,
                    "velocity": 0.7874015748031497,
                    "duration": 0.19230774999999767
                },
                {
                    "name": "G4",
                    "midi": 67,
                    "time": 78.46156199999994,
                    "velocity": 0.7874015748031497,
                    "duration": 0.7692310000000049
                }
            ],
            "controlChanges": {},
            "id": 3,
            "name": "Vocal line (open staff view)",
            "instrumentNumber": 73,
            "instrument": "flute",
            "instrumentFamily": "pipe",
            "channelNumber": 2,
            "isPercussion": false
        },
        {
            "startTime": 0.12820516666666665,
            "duration": 81.53848599999985,
            "length": 394,
            "notes": [
                {
                    "name": "G4",
                    "midi": 67,
                    "time": 0.12820516666666665,
                    "velocity": 0.6299212598425197,
                    "duration": 0.12820516666666665
                },
                {
                    "name": "G5",
                    "midi": 79,
                    "time": 0.2564103333333333,
                    "velocity": 0.6299212598425197,
                    "duration": 0.12820516666666665
                },
                {
                    "name": "G5",
                    "midi": 79,
                    "time": 0.5128206666666666,
                    "velocity": 0.6299212598425197,
                    "duration": 0.1282051666666666
                },
                {
                    "name": "G4",
                    "midi": 67,
                    "time": 0.6410258333333332,
                    "velocity": 0.6299212598425197,
                    "duration": 0.1282051666666666
                },
                {
                    "name": "G4",
                    "midi": 67,
                    "time": 0.8974361666666664,
                    "velocity": 0.6299212598425197,
                    "duration": 0.1282051666666666
                },
                {
                    "name": "G5",
                    "midi": 79,
                    "time": 1.025641333333333,
                    "velocity": 0.6299212598425197,
                    "duration": 0.1282051666666666
                },
                {
                    "name": "G5",
                    "midi": 79,
                    "time": 1.2820516666666661,
                    "velocity": 0.6299212598425197,
                    "duration": 0.1282051666666666
                },
                {
                    "name": "G4",
                    "midi": 67,
                    "time": 1.4102568333333327,
                    "velocity": 0.6299212598425197,
                    "duration": 0.1282051666666666
                },
                {
                    "name": "G4",
                    "midi": 67,
                    "time": 1.666667166666666,
                    "velocity": 0.6299212598425197,
                    "duration": 0.1282051666666666
                },
                {
                    "name": "G5",
                    "midi": 79,
                    "time": 1.7948723333333325,
                    "velocity": 0.6299212598425197,
                    "duration": 0.1282051666666666
                },
                {
                    "name": "G5",
                    "midi": 79,
                    "time": 2.051282666666666,
                    "velocity": 0.6299212598425197,
                    "duration": 0.1282051666666666
                },
                {
                    "name": "G4",
                    "midi": 67,
                    "time": 2.1794878333333325,
                    "velocity": 0.6299212598425197,
                    "duration": 0.1282051666666666
                },
                {
                    "name": "G4",
                    "midi": 67,
                    "time": 2.4358981666666657,
                    "velocity": 0.6299212598425197,
                    "duration": 0.1282051666666666
                },
                {
                    "name": "G5",
                    "midi": 79,
                    "time": 2.5641033333333323,
                    "velocity": 0.6299212598425197,
                    "duration": 0.1282051666666666
                },
                {
                    "name": "G5",
                    "midi": 79,
                    "time": 2.8205136666666655,
                    "velocity": 0.6299212598425197,
                    "duration": 0.1282051666666666
                },
                {
                    "name": "G4",
                    "midi": 67,
                    "time": 2.948718833333332,
                    "velocity": 0.6299212598425197,
                    "duration": 0.1282051666666666
                },
                {
                    "name": "G4",
                    "midi": 67,
                    "time": 3.2051291666666653,
                    "velocity": 0.6299212598425197,
                    "duration": 0.1282051666666666
                },
                {
                    "name": "G5",
                    "midi": 79,
                    "time": 3.333334333333332,
                    "velocity": 0.6299212598425197,
                    "duration": 0.1282051666666666
                },
                {
                    "name": "G5",
                    "midi": 79,
                    "time": 3.589744666666665,
                    "velocity": 0.6299212598425197,
                    "duration": 0.1282051666666666
                },
                {
                    "name": "G4",
                    "midi": 67,
                    "time": 3.7179498333333316,
                    "velocity": 0.6299212598425197,
                    "duration": 0.1282051666666666
                },
                {
                    "name": "G4",
                    "midi": 67,
                    "time": 3.974360166666665,
                    "velocity": 0.6299212598425197,
                    "duration": 0.12820516666666704
                },
                {
                    "name": "G5",
                    "midi": 79,
                    "time": 4.102565333333332,
                    "velocity": 0.6299212598425197,
                    "duration": 0.1282051666666666
                },
                {
                    "name": "G5",
                    "midi": 79,
                    "time": 4.358975666666665,
                    "velocity": 0.6299212598425197,
                    "duration": 0.1282051666666666
                },
                {
                    "name": "G4",
                    "midi": 67,
                    "time": 4.487180833333332,
                    "velocity": 0.6299212598425197,
                    "duration": 0.1282051666666666
                },
                {
                    "name": "G4",
                    "midi": 67,
                    "time": 4.743591166666665,
                    "velocity": 0.6299212598425197,
                    "duration": 0.1282051666666666
                },
                {
                    "name": "G5",
                    "midi": 79,
                    "time": 4.871796333333331,
                    "velocity": 0.6299212598425197,
                    "duration": 0.1282051666666666
                },
                {
                    "name": "G5",
                    "midi": 79,
                    "time": 5.128206666666665,
                    "velocity": 0.6299212598425197,
                    "duration": 0.1282051666666666
                },
                {
                    "name": "G4",
                    "midi": 67,
                    "time": 5.256411833333331,
                    "velocity": 0.6299212598425197,
                    "duration": 0.1282051666666666
                },
                {
                    "name": "G4",
                    "midi": 67,
                    "time": 5.512822166666664,
                    "velocity": 0.6299212598425197,
                    "duration": 0.1282051666666666
                },
                {
                    "name": "G5",
                    "midi": 79,
                    "time": 5.641027333333331,
                    "velocity": 0.6299212598425197,
                    "duration": 0.1282051666666666
                },
                {
                    "name": "G5",
                    "midi": 79,
                    "time": 5.897437666666664,
                    "velocity": 0.6299212598425197,
                    "duration": 0.1282051666666666
                },
                {
                    "name": "G4",
                    "midi": 67,
                    "time": 6.025642833333331,
                    "velocity": 0.6299212598425197,
                    "duration": 0.1282051666666666
                },
                {
                    "name": "G4",
                    "midi": 67,
                    "time": 6.282053166666664,
                    "velocity": 0.6299212598425197,
                    "duration": 0.1282051666666666
                },
                {
                    "name": "G5",
                    "midi": 79,
                    "time": 6.4102583333333305,
                    "velocity": 0.6299212598425197,
                    "duration": 0.1282051666666666
                },
                {
                    "name": "G5",
                    "midi": 79,
                    "time": 6.666668666666664,
                    "velocity": 0.6299212598425197,
                    "duration": 0.1282051666666666
                },
                {
                    "name": "G4",
                    "midi": 67,
                    "time": 6.79487383333333,
                    "velocity": 0.6299212598425197,
                    "duration": 0.1282051666666666
                },
                {
                    "name": "G4",
                    "midi": 67,
                    "time": 7.0512841666666635,
                    "velocity": 0.6299212598425197,
                    "duration": 0.1282051666666666
                },
                {
                    "name": "G5",
                    "midi": 79,
                    "time": 7.17948933333333,
                    "velocity": 0.6299212598425197,
                    "duration": 0.1282051666666666
                },
                {
                    "name": "G5",
                    "midi": 79,
                    "time": 7.435899666666663,
                    "velocity": 0.6299212598425197,
                    "duration": 0.1282051666666666
                },
                {
                    "name": "G4",
                    "midi": 67,
                    "time": 7.56410483333333,
                    "velocity": 0.6299212598425197,
                    "duration": 0.1282051666666666
                },
                {
                    "name": "G4",
                    "midi": 67,
                    "time": 7.820515166666663,
                    "velocity": 0.6299212598425197,
                    "duration": 0.1282051666666666
                },
                {
                    "name": "G5",
                    "midi": 79,
                    "time": 7.94872033333333,
                    "velocity": 0.6299212598425197,
                    "duration": 0.1282051666666666
                },
                {
                    "name": "G5",
                    "midi": 79,
                    "time": 8.205130666666664,
                    "velocity": 0.6299212598425197,
                    "duration": 0.12820516666666748
                },
                {
                    "name": "G4",
                    "midi": 67,
                    "time": 8.333335833333331,
                    "velocity": 0.6299212598425197,
                    "duration": 0.12820516666666748
                },
                {
                    "name": "G4",
                    "midi": 67,
                    "time": 8.589746166666666,
                    "velocity": 0.6299212598425197,
                    "duration": 0.12820516666666748
                },
                {
                    "name": "G5",
                    "midi": 79,
                    "time": 8.717951333333334,
                    "velocity": 0.6299212598425197,
                    "duration": 0.12820516666666748
                },
                {
                    "name": "G5",
                    "midi": 79,
                    "time": 8.974361666666669,
                    "velocity": 0.6299212598425197,
                    "duration": 0.12820516666666748
                },
                {
                    "name": "G4",
                    "midi": 67,
                    "time": 9.102566833333336,
                    "velocity": 0.6299212598425197,
                    "duration": 0.12820516666666748
                },
                {
                    "name": "G4",
                    "midi": 67,
                    "time": 9.358977166666671,
                    "velocity": 0.6299212598425197,
                    "duration": 0.12820516666666748
                },
                {
                    "name": "G5",
                    "midi": 79,
                    "time": 9.487182333333338,
                    "velocity": 0.6299212598425197,
                    "duration": 0.12820516666666748
                },
                {
                    "name": "G5",
                    "midi": 79,
                    "time": 9.743592666666673,
                    "velocity": 0.6299212598425197,
                    "duration": 0.12820516666666748
                },
                {
                    "name": "G4",
                    "midi": 67,
                    "time": 9.871797833333341,
                    "velocity": 0.6299212598425197,
                    "duration": 0.12820516666666748
                },
                {
                    "name": "G4",
                    "midi": 67,
                    "time": 10.128208166666676,
                    "velocity": 0.6299212598425197,
                    "duration": 0.12820516666666748
                },
                {
                    "name": "G5",
                    "midi": 79,
                    "time": 10.256413333333343,
                    "velocity": 0.6299212598425197,
                    "duration": 0.12820516666666748
                },
                {
                    "name": "G5",
                    "midi": 79,
                    "time": 10.512823666666678,
                    "velocity": 0.6299212598425197,
                    "duration": 0.12820516666666748
                },
                {
                    "name": "G4",
                    "midi": 67,
                    "time": 10.641028833333346,
                    "velocity": 0.6299212598425197,
                    "duration": 0.12820516666666748
                },
                {
                    "name": "G4",
                    "midi": 67,
                    "time": 10.89743916666668,
                    "velocity": 0.6299212598425197,
                    "duration": 0.12820516666666748
                },
                {
                    "name": "G5",
                    "midi": 79,
                    "time": 11.025644333333348,
                    "velocity": 0.6299212598425197,
                    "duration": 0.12820516666666748
                },
                {
                    "name": "G5",
                    "midi": 79,
                    "time": 11.282054666666683,
                    "velocity": 0.6299212598425197,
                    "duration": 0.12820516666666748
                },
                {
                    "name": "G4",
                    "midi": 67,
                    "time": 11.41025983333335,
                    "velocity": 0.6299212598425197,
                    "duration": 0.12820516666666748
                },
                {
                    "name": "G4",
                    "midi": 67,
                    "time": 11.666670166666686,
                    "velocity": 0.6299212598425197,
                    "duration": 0.12820516666666748
                },
                {
                    "name": "G5",
                    "midi": 79,
                    "time": 11.794875333333353,
                    "velocity": 0.6299212598425197,
                    "duration": 0.12820516666666748
                },
                {
                    "name": "G5",
                    "midi": 79,
                    "time": 12.051285666666688,
                    "velocity": 0.6299212598425197,
                    "duration": 0.12820516666666748
                },
                {
                    "name": "G4",
                    "midi": 67,
                    "time": 12.179490833333356,
                    "velocity": 0.6299212598425197,
                    "duration": 0.12820516666666748
                },
                {
                    "name": "G4",
                    "midi": 67,
                    "time": 12.43590116666669,
                    "velocity": 0.6299212598425197,
                    "duration": 0.12820516666666748
                },
                {
                    "name": "G5",
                    "midi": 79,
                    "time": 12.564106333333358,
                    "velocity": 0.6299212598425197,
                    "duration": 0.12820516666666748
                },
                {
                    "name": "G5",
                    "midi": 79,
                    "time": 12.820516666666693,
                    "velocity": 0.6299212598425197,
                    "duration": 0.12820516666666748
                },
                {
                    "name": "G4",
                    "midi": 67,
                    "time": 12.94872183333336,
                    "velocity": 0.6299212598425197,
                    "duration": 0.12820516666666748
                },
                {
                    "name": "G4",
                    "midi": 67,
                    "time": 13.205132166666695,
                    "velocity": 0.6299212598425197,
                    "duration": 0.12820516666666748
                },
                {
                    "name": "G5",
                    "midi": 79,
                    "time": 13.333337333333363,
                    "velocity": 0.6299212598425197,
                    "duration": 0.12820516666666748
                },
                {
                    "name": "G5",
                    "midi": 79,
                    "time": 13.589747666666698,
                    "velocity": 0.6299212598425197,
                    "duration": 0.12820516666666748
                },
                {
                    "name": "G4",
                    "midi": 67,
                    "time": 13.717952833333365,
                    "velocity": 0.6299212598425197,
                    "duration": 0.12820516666666748
                },
                {
                    "name": "G4",
                    "midi": 67,
                    "time": 13.9743631666667,
                    "velocity": 0.6299212598425197,
                    "duration": 0.12820516666666748
                },
                {
                    "name": "G5",
                    "midi": 79,
                    "time": 14.102568333333368,
                    "velocity": 0.6299212598425197,
                    "duration": 0.12820516666666748
                },
                {
                    "name": "G5",
                    "midi": 79,
                    "time": 14.358978666666703,
                    "velocity": 0.6299212598425197,
                    "duration": 0.12820516666666748
                },
                {
                    "name": "G4",
                    "midi": 67,
                    "time": 14.48718383333337,
                    "velocity": 0.6299212598425197,
                    "duration": 0.12820516666666748
                },
                {
                    "name": "G4",
                    "midi": 67,
                    "time": 14.743594166666705,
                    "velocity": 0.6299212598425197,
                    "duration": 0.12820516666666748
                },
                {
                    "name": "G5",
                    "midi": 79,
                    "time": 14.871799333333373,
                    "velocity": 0.6299212598425197,
                    "duration": 0.12820516666666748
                },
                {
                    "name": "G5",
                    "midi": 79,
                    "time": 15.128209666666708,
                    "velocity": 0.6299212598425197,
                    "duration": 0.12820516666666748
                },
                {
                    "name": "G4",
                    "midi": 67,
                    "time": 15.256414833333375,
                    "velocity": 0.6299212598425197,
                    "duration": 0.12820516666666748
                },
                {
                    "name": "G4",
                    "midi": 67,
                    "time": 15.51282516666671,
                    "velocity": 0.6299212598425197,
                    "duration": 0.12820516666666748
                },
                {
                    "name": "G5",
                    "midi": 79,
                    "time": 15.641030333333378,
                    "velocity": 0.6299212598425197,
                    "duration": 0.12820516666666748
                },
                {
                    "name": "G5",
                    "midi": 79,
                    "time": 15.897440666666713,
                    "velocity": 0.6299212598425197,
                    "duration": 0.1282051666666657
                },
                {
                    "name": "G4",
                    "midi": 67,
                    "time": 16.025645833333378,
                    "velocity": 0.6299212598425197,
                    "duration": 0.12820516666666748
                },
                {
                    "name": "G4",
                    "midi": 67,
                    "time": 16.282056166666713,
                    "velocity": 0.6299212598425197,
                    "duration": 0.12820516666666748
                },
                {
                    "name": "G5",
                    "midi": 79,
                    "time": 16.41026133333338,
                    "velocity": 0.6299212598425197,
                    "duration": 0.12820516666666748
                },
                {
                    "name": "G5",
                    "midi": 79,
                    "time": 16.666671666666716,
                    "velocity": 0.6299212598425197,
                    "duration": 0.12820516666666748
                },
                {
                    "name": "G4",
                    "midi": 67,
                    "time": 16.794876833333383,
                    "velocity": 0.6299212598425197,
                    "duration": 0.12820516666666748
                },
                {
                    "name": "G4",
                    "midi": 67,
                    "time": 17.051287166666718,
                    "velocity": 0.6299212598425197,
                    "duration": 0.12820516666666748
                },
                {
                    "name": "G5",
                    "midi": 79,
                    "time": 17.179492333333386,
                    "velocity": 0.6299212598425197,
                    "duration": 0.12820516666666748
                },
                {
                    "name": "G5",
                    "midi": 79,
                    "time": 17.43590266666672,
                    "velocity": 0.6299212598425197,
                    "duration": 0.12820516666666748
                },
                {
                    "name": "G4",
                    "midi": 67,
                    "time": 17.564107833333388,
                    "velocity": 0.6299212598425197,
                    "duration": 0.12820516666666748
                },
                {
                    "name": "G4",
                    "midi": 67,
                    "time": 17.820518166666723,
                    "velocity": 0.6299212598425197,
                    "duration": 0.12820516666666748
                },
                {
                    "name": "G5",
                    "midi": 79,
                    "time": 17.94872333333339,
                    "velocity": 0.6299212598425197,
                    "duration": 0.12820516666666748
                },
                {
                    "name": "G5",
                    "midi": 79,
                    "time": 18.205133666666725,
                    "velocity": 0.6299212598425197,
                    "duration": 0.12820516666666748
                },
                {
                    "name": "G4",
                    "midi": 67,
                    "time": 18.333338833333393,
                    "velocity": 0.6299212598425197,
                    "duration": 0.12820516666666748
                },
                {
                    "name": "G4",
                    "midi": 67,
                    "time": 18.589749166666728,
                    "velocity": 0.6299212598425197,
                    "duration": 0.12820516666666748
                },
                {
                    "name": "G5",
                    "midi": 79,
                    "time": 18.717954333333395,
                    "velocity": 0.6299212598425197,
                    "duration": 0.12820516666666748
                },
                {
                    "name": "G5",
                    "midi": 79,
                    "time": 18.97436466666673,
                    "velocity": 0.6299212598425197,
                    "duration": 0.12820516666666748
                },
                {
                    "name": "G4",
                    "midi": 67,
                    "time": 19.102569833333398,
                    "velocity": 0.6299212598425197,
                    "duration": 0.12820516666666748
                },
                {
                    "name": "G4",
                    "midi": 67,
                    "time": 19.358980166666733,
                    "velocity": 0.6299212598425197,
                    "duration": 0.12820516666666748
                },
                {
                    "name": "G5",
                    "midi": 79,
                    "time": 19.4871853333334,
                    "velocity": 0.6299212598425197,
                    "duration": 0.12820516666666748
                },
                {
                    "name": "G5",
                    "midi": 79,
                    "time": 19.743595666666735,
                    "velocity": 0.6299212598425197,
                    "duration": 0.12820516666666748
                },
                {
                    "name": "G4",
                    "midi": 67,
                    "time": 19.871800833333403,
                    "velocity": 0.6299212598425197,
                    "duration": 0.12820516666666748
                },
                {
                    "name": "G4",
                    "midi": 67,
                    "time": 20.128211166666738,
                    "velocity": 0.6299212598425197,
                    "duration": 0.12820516666666748
                },
                {
                    "name": "G5",
                    "midi": 79,
                    "time": 20.256416333333405,
                    "velocity": 0.6299212598425197,
                    "duration": 0.12820516666666748
                },
                {
                    "name": "G5",
                    "midi": 79,
                    "time": 20.51282666666674,
                    "velocity": 0.6299212598425197,
                    "duration": 0.12820516666666748
                },
                {
                    "name": "G4",
                    "midi": 67,
                    "time": 20.641031833333408,
                    "velocity": 0.6299212598425197,
                    "duration": 0.12820516666666748
                },
                {
                    "name": "G4",
                    "midi": 67,
                    "time": 20.897442166666742,
                    "velocity": 0.6299212598425197,
                    "duration": 0.12820516666666748
                },
                {
                    "name": "G5",
                    "midi": 79,
                    "time": 21.02564733333341,
                    "velocity": 0.6299212598425197,
                    "duration": 0.12820516666666748
                },
                {
                    "name": "G5",
                    "midi": 79,
                    "time": 21.282057666666745,
                    "velocity": 0.6299212598425197,
                    "duration": 0.12820516666666748
                },
                {
                    "name": "G4",
                    "midi": 67,
                    "time": 21.410262833333412,
                    "velocity": 0.6299212598425197,
                    "duration": 0.12820516666666748
                },
                {
                    "name": "G4",
                    "midi": 67,
                    "time": 21.666673166666747,
                    "velocity": 0.6299212598425197,
                    "duration": 0.12820516666666748
                },
                {
                    "name": "G5",
                    "midi": 79,
                    "time": 21.794878333333415,
                    "velocity": 0.6299212598425197,
                    "duration": 0.12820516666666748
                },
                {
                    "name": "G5",
                    "midi": 79,
                    "time": 22.05128866666675,
                    "velocity": 0.6299212598425197,
                    "duration": 0.12820516666666748
                },
                {
                    "name": "G4",
                    "midi": 67,
                    "time": 22.179493833333417,
                    "velocity": 0.6299212598425197,
                    "duration": 0.12820516666666748
                },
                {
                    "name": "G4",
                    "midi": 67,
                    "time": 22.435904166666752,
                    "velocity": 0.6299212598425197,
                    "duration": 0.12820516666666748
                },
                {
                    "name": "G5",
                    "midi": 79,
                    "time": 22.56410933333342,
                    "velocity": 0.6299212598425197,
                    "duration": 0.12820516666666748
                },
                {
                    "name": "G5",
                    "midi": 79,
                    "time": 22.820519666666755,
                    "velocity": 0.6299212598425197,
                    "duration": 0.12820516666666748
                },
                {
                    "name": "G4",
                    "midi": 67,
                    "time": 22.948724833333422,
                    "velocity": 0.6299212598425197,
                    "duration": 0.12820516666666748
                },
                {
                    "name": "G4",
                    "midi": 67,
                    "time": 23.205135166666757,
                    "velocity": 0.6299212598425197,
                    "duration": 0.12820516666666748
                },
                {
                    "name": "G5",
                    "midi": 79,
                    "time": 23.333340333333425,
                    "velocity": 0.6299212598425197,
                    "duration": 0.12820516666666748
                },
                {
                    "name": "G5",
                    "midi": 79,
                    "time": 23.58975066666676,
                    "velocity": 0.6299212598425197,
                    "duration": 0.12820516666666748
                },
                {
                    "name": "G4",
                    "midi": 67,
                    "time": 23.717955833333427,
                    "velocity": 0.6299212598425197,
                    "duration": 0.12820516666666748
                },
                {
                    "name": "G4",
                    "midi": 67,
                    "time": 23.974366166666762,
                    "velocity": 0.6299212598425197,
                    "duration": 0.12820516666666748
                },
                {
                    "name": "G5",
                    "midi": 79,
                    "time": 24.10257133333343,
                    "velocity": 0.6299212598425197,
                    "duration": 0.12820516666666748
                },
                {
                    "name": "G5",
                    "midi": 79,
                    "time": 24.358981666666764,
                    "velocity": 0.6299212598425197,
                    "duration": 0.12820516666666748
                },
                {
                    "name": "G4",
                    "midi": 67,
                    "time": 24.487186833333432,
                    "velocity": 0.6299212598425197,
                    "duration": 0.12820516666666748
                },
                {
                    "name": "G4",
                    "midi": 67,
                    "time": 24.743597166666767,
                    "velocity": 0.6299212598425197,
                    "duration": 0.12820516666666748
                },
                {
                    "name": "G5",
                    "midi": 79,
                    "time": 24.871802333333434,
                    "velocity": 0.6299212598425197,
                    "duration": 0.12820516666666748
                },
                {
                    "name": "G5",
                    "midi": 79,
                    "time": 25.12821266666677,
                    "velocity": 0.6299212598425197,
                    "duration": 0.12820516666666748
                },
                {
                    "name": "G4",
                    "midi": 67,
                    "time": 25.256417833333437,
                    "velocity": 0.6299212598425197,
                    "duration": 0.12820516666666748
                },
                {
                    "name": "G4",
                    "midi": 67,
                    "time": 25.512828166666772,
                    "velocity": 0.6299212598425197,
                    "duration": 0.12820516666666748
                },
                {
                    "name": "G5",
                    "midi": 79,
                    "time": 25.64103333333344,
                    "velocity": 0.6299212598425197,
                    "duration": 0.12820516666666748
                },
                {
                    "name": "G5",
                    "midi": 79,
                    "time": 25.897443666666774,
                    "velocity": 0.6299212598425197,
                    "duration": 0.12820516666666748
                },
                {
                    "name": "G4",
                    "midi": 67,
                    "time": 26.02564883333344,
                    "velocity": 0.6299212598425197,
                    "duration": 0.12820516666666748
                },
                {
                    "name": "G4",
                    "midi": 67,
                    "time": 26.282059166666777,
                    "velocity": 0.6299212598425197,
                    "duration": 0.12820516666666748
                },
                {
                    "name": "G5",
                    "midi": 79,
                    "time": 26.410264333333444,
                    "velocity": 0.6299212598425197,
                    "duration": 0.12820516666666748
                },
                {
                    "name": "G5",
                    "midi": 79,
                    "time": 26.66667466666678,
                    "velocity": 0.6299212598425197,
                    "duration": 0.12820516666666748
                },
                {
                    "name": "G4",
                    "midi": 67,
                    "time": 26.794879833333447,
                    "velocity": 0.6299212598425197,
                    "duration": 0.12820516666666748
                },
                {
                    "name": "G4",
                    "midi": 67,
                    "time": 27.05129016666678,
                    "velocity": 0.6299212598425197,
                    "duration": 0.12820516666666748
                },
                {
                    "name": "G5",
                    "midi": 79,
                    "time": 27.17949533333345,
                    "velocity": 0.6299212598425197,
                    "duration": 0.12820516666666748
                },
                {
                    "name": "G6",
                    "midi": 91,
                    "time": 27.435905666666784,
                    "velocity": 0.6299212598425197,
                    "duration": 0.12820516666666748
                },
                {
                    "name": "G5",
                    "midi": 79,
                    "time": 27.56411083333345,
                    "velocity": 0.6299212598425197,
                    "duration": 0.12820516666666748
                },
                {
                    "name": "G5",
                    "midi": 79,
                    "time": 27.820521166666786,
                    "velocity": 0.6299212598425197,
                    "duration": 0.12820516666666748
                },
                {
                    "name": "G6",
                    "midi": 91,
                    "time": 27.948726333333454,
                    "velocity": 0.6299212598425197,
                    "duration": 0.12820516666666748
                },
                {
                    "name": "G6",
                    "midi": 91,
                    "time": 28.20513666666679,
                    "velocity": 0.6299212598425197,
                    "duration": 0.12820516666666748
                },
                {
                    "name": "G5",
                    "midi": 79,
                    "time": 28.333341833333456,
                    "velocity": 0.6299212598425197,
                    "duration": 0.12820516666666748
                },
                {
                    "name": "G5",
                    "midi": 79,
                    "time": 28.58975216666679,
                    "velocity": 0.6299212598425197,
                    "duration": 0.12820516666666748
                },
                {
                    "name": "G6",
                    "midi": 91,
                    "time": 28.71795733333346,
                    "velocity": 0.6299212598425197,
                    "duration": 0.12820516666666748
                },
                {
                    "name": "G6",
                    "midi": 91,
                    "time": 28.974367666666794,
                    "velocity": 0.6299212598425197,
                    "duration": 0.12820516666666748
                },
                {
                    "name": "G5",
                    "midi": 79,
                    "time": 29.10257283333346,
                    "velocity": 0.6299212598425197,
                    "duration": 0.12820516666666748
                },
                {
                    "name": "G5",
                    "midi": 79,
                    "time": 29.358983166666796,
                    "velocity": 0.6299212598425197,
                    "duration": 0.12820516666666748
                },
                {
                    "name": "G6",
                    "midi": 91,
                    "time": 29.487188333333464,
                    "velocity": 0.6299212598425197,
                    "duration": 0.12820516666666748
                },
                {
                    "name": "G6",
                    "midi": 91,
                    "time": 29.7435986666668,
                    "velocity": 0.6299212598425197,
                    "duration": 0.12820516666666748
                },
                {
                    "name": "G5",
                    "midi": 79,
                    "time": 29.871803833333466,
                    "velocity": 0.6299212598425197,
                    "duration": 0.12820516666666748
                },
                {
                    "name": "G5",
                    "midi": 79,
                    "time": 30.1282141666668,
                    "velocity": 0.6299212598425197,
                    "duration": 0.12820516666666748
                },
                {
                    "name": "G6",
                    "midi": 91,
                    "time": 30.25641933333347,
                    "velocity": 0.6299212598425197,
                    "duration": 0.12820516666666748
                },
                {
                    "name": "G6",
                    "midi": 91,
                    "time": 30.512829666666804,
                    "velocity": 0.6299212598425197,
                    "duration": 0.12820516666666748
                },
                {
                    "name": "G5",
                    "midi": 79,
                    "time": 30.64103483333347,
                    "velocity": 0.6299212598425197,
                    "duration": 0.12820516666666748
                },
                {
                    "name": "G5",
                    "midi": 79,
                    "time": 30.897445166666806,
                    "velocity": 0.6299212598425197,
                    "duration": 0.12820516666666748
                },
                {
                    "name": "G6",
                    "midi": 91,
                    "time": 31.025650333333473,
                    "velocity": 0.6299212598425197,
                    "duration": 0.12820516666666748
                },
                {
                    "name": "G6",
                    "midi": 91,
                    "time": 31.28206066666681,
                    "velocity": 0.6299212598425197,
                    "duration": 0.12820516666666748
                },
                {
                    "name": "G5",
                    "midi": 79,
                    "time": 31.410265833333476,
                    "velocity": 0.6299212598425197,
                    "duration": 0.12820516666666748
                },
                {
                    "name": "G5",
                    "midi": 79,
                    "time": 31.66667616666681,
                    "velocity": 0.6299212598425197,
                    "duration": 0.12820516666666748
                },
                {
                    "name": "G6",
                    "midi": 91,
                    "time": 31.79488133333348,
                    "velocity": 0.6299212598425197,
                    "duration": 0.12820516666666748
                },
                {
                    "name": "G6",
                    "midi": 91,
                    "time": 32.05129166666681,
                    "velocity": 0.6299212598425197,
                    "duration": 0.12820516666666748
                },
                {
                    "name": "G5",
                    "midi": 79,
                    "time": 32.17949683333348,
                    "velocity": 0.6299212598425197,
                    "duration": 0.12820516666666748
                },
                {
                    "name": "G5",
                    "midi": 79,
                    "time": 32.435907166666816,
                    "velocity": 0.6299212598425197,
                    "duration": 0.12820516666666748
                },
                {
                    "name": "G6",
                    "midi": 91,
                    "time": 32.56411233333348,
                    "velocity": 0.6299212598425197,
                    "duration": 0.12820516666666748
                },
                {
                    "name": "G6",
                    "midi": 91,
                    "time": 32.82052266666682,
                    "velocity": 0.6299212598425197,
                    "duration": 0.12820516666666748
                },
                {
                    "name": "G5",
                    "midi": 79,
                    "time": 32.948727833333486,
                    "velocity": 0.6299212598425197,
                    "duration": 0.12820516666666748
                },
                {
                    "name": "G5",
                    "midi": 79,
                    "time": 33.20513816666682,
                    "velocity": 0.6299212598425197,
                    "duration": 0.12820516666666748
                },
                {
                    "name": "G6",
                    "midi": 91,
                    "time": 33.33334333333349,
                    "velocity": 0.6299212598425197,
                    "duration": 0.12820516666666748
                },
                {
                    "name": "G6",
                    "midi": 91,
                    "time": 33.58975366666682,
                    "velocity": 0.6299212598425197,
                    "duration": 0.12820516666666748
                },
                {
                    "name": "G5",
                    "midi": 79,
                    "time": 33.71795883333349,
                    "velocity": 0.6299212598425197,
                    "duration": 0.12820516666666748
                },
                {
                    "name": "G5",
                    "midi": 79,
                    "time": 33.974369166666825,
                    "velocity": 0.6299212598425197,
                    "duration": 0.12820516666666748
                },
                {
                    "name": "G6",
                    "midi": 91,
                    "time": 34.10257433333349,
                    "velocity": 0.6299212598425197,
                    "duration": 0.12820516666666748
                },
                {
                    "name": "G6",
                    "midi": 91,
                    "time": 34.35898466666683,
                    "velocity": 0.6299212598425197,
                    "duration": 0.12820516666666748
                },
                {
                    "name": "G5",
                    "midi": 79,
                    "time": 34.487189833333495,
                    "velocity": 0.6299212598425197,
                    "duration": 0.12820516666666748
                },
                {
                    "name": "G5",
                    "midi": 79,
                    "time": 34.74360016666683,
                    "velocity": 0.6299212598425197,
                    "duration": 0.12820516666666748
                },
                {
                    "name": "G6",
                    "midi": 91,
                    "time": 34.8718053333335,
                    "velocity": 0.6299212598425197,
                    "duration": 0.12820516666666748
                },
                {
                    "name": "G6",
                    "midi": 91,
                    "time": 35.12821566666683,
                    "velocity": 0.6299212598425197,
                    "duration": 0.12820516666666748
                },
                {
                    "name": "G5",
                    "midi": 79,
                    "time": 35.2564208333335,
                    "velocity": 0.6299212598425197,
                    "duration": 0.12820516666666748
                },
                {
                    "name": "G5",
                    "midi": 79,
                    "time": 35.512831166666835,
                    "velocity": 0.6299212598425197,
                    "duration": 0.12820516666666748
                },
                {
                    "name": "G6",
                    "midi": 91,
                    "time": 35.6410363333335,
                    "velocity": 0.6299212598425197,
                    "duration": 0.12820516666666748
                },
                {
                    "name": "G6",
                    "midi": 91,
                    "time": 35.89744666666684,
                    "velocity": 0.6299212598425197,
                    "duration": 0.12820516666666748
                },
                {
                    "name": "G5",
                    "midi": 79,
                    "time": 36.025651833333505,
                    "velocity": 0.6299212598425197,
                    "duration": 0.12820516666666748
                },
                {
                    "name": "G5",
                    "midi": 79,
                    "time": 36.28206216666684,
                    "velocity": 0.6299212598425197,
                    "duration": 0.12820516666666748
                },
                {
                    "name": "G6",
                    "midi": 91,
                    "time": 36.41026733333351,
                    "velocity": 0.6299212598425197,
                    "duration": 0.12820516666666748
                },
                {
                    "name": "G6",
                    "midi": 91,
                    "time": 36.66667766666684,
                    "velocity": 0.6299212598425197,
                    "duration": 0.12820516666666748
                },
                {
                    "name": "G5",
                    "midi": 79,
                    "time": 36.79488283333351,
                    "velocity": 0.6299212598425197,
                    "duration": 0.12820516666666748
                },
                {
                    "name": "G5",
                    "midi": 79,
                    "time": 37.051293166666845,
                    "velocity": 0.6299212598425197,
                    "duration": 0.12820516666666748
                },
                {
                    "name": "G6",
                    "midi": 91,
                    "time": 37.17949833333351,
                    "velocity": 0.6299212598425197,
                    "duration": 0.12820516666666748
                },
                {
                    "name": "G6",
                    "midi": 91,
                    "time": 37.43590866666685,
                    "velocity": 0.6299212598425197,
                    "duration": 0.12820516666666748
                },
                {
                    "name": "G5",
                    "midi": 79,
                    "time": 37.564113833333515,
                    "velocity": 0.6299212598425197,
                    "duration": 0.12820516666666748
                },
                {
                    "name": "G5",
                    "midi": 79,
                    "time": 37.82052416666685,
                    "velocity": 0.6299212598425197,
                    "duration": 0.12820516666666748
                },
                {
                    "name": "G6",
                    "midi": 91,
                    "time": 37.94872933333352,
                    "velocity": 0.6299212598425197,
                    "duration": 0.12820516666666748
                },
                {
                    "name": "G6",
                    "midi": 91,
                    "time": 38.20513966666685,
                    "velocity": 0.6299212598425197,
                    "duration": 0.12820516666666748
                },
                {
                    "name": "G5",
                    "midi": 79,
                    "time": 38.33334483333352,
                    "velocity": 0.6299212598425197,
                    "duration": 0.12820516666666748
                },
                {
                    "name": "G5",
                    "midi": 79,
                    "time": 38.589755166666855,
                    "velocity": 0.6299212598425197,
                    "duration": 0.12820516666666748
                },
                {
                    "name": "G6",
                    "midi": 91,
                    "time": 38.71796033333352,
                    "velocity": 0.6299212598425197,
                    "duration": 0.12820516666666748
                },
                {
                    "name": "G6",
                    "midi": 91,
                    "time": 38.97437066666686,
                    "velocity": 0.6299212598425197,
                    "duration": 0.12820516666666748
                },
                {
                    "name": "G5",
                    "midi": 79,
                    "time": 39.102575833333525,
                    "velocity": 0.6299212598425197,
                    "duration": 0.12820516666666748
                },
                {
                    "name": "G5",
                    "midi": 79,
                    "time": 39.35898616666686,
                    "velocity": 0.6299212598425197,
                    "duration": 0.12820516666666748
                },
                {
                    "name": "G6",
                    "midi": 91,
                    "time": 39.48719133333353,
                    "velocity": 0.6299212598425197,
                    "duration": 0.12820516666666748
                },
                {
                    "name": "G6",
                    "midi": 91,
                    "time": 39.74360166666686,
                    "velocity": 0.6299212598425197,
                    "duration": 0.12820516666666748
                },
                {
                    "name": "G5",
                    "midi": 79,
                    "time": 39.87180683333353,
                    "velocity": 0.6299212598425197,
                    "duration": 0.12820516666666748
                },
                {
                    "name": "G4",
                    "midi": 67,
                    "time": 40.128217166666865,
                    "velocity": 0.6299212598425197,
                    "duration": 0.12820516666666748
                },
                {
                    "name": "G5",
                    "midi": 79,
                    "time": 40.25642233333353,
                    "velocity": 0.6299212598425197,
                    "duration": 0.12820516666666748
                },
                {
                    "name": "G5",
                    "midi": 79,
                    "time": 40.51283266666687,
                    "velocity": 0.6299212598425197,
                    "duration": 0.12820516666666748
                },
                {
                    "name": "G4",
                    "midi": 67,
                    "time": 40.641037833333534,
                    "velocity": 0.6299212598425197,
                    "duration": 0.12820516666666748
                },
                {
                    "name": "G4",
                    "midi": 67,
                    "time": 40.89744816666687,
                    "velocity": 0.6299212598425197,
                    "duration": 0.12820516666666748
                },
                {
                    "name": "G5",
                    "midi": 79,
                    "time": 41.02565333333354,
                    "velocity": 0.6299212598425197,
                    "duration": 0.12820516666666748
                },
                {
                    "name": "G5",
                    "midi": 79,
                    "time": 41.28206366666687,
                    "velocity": 0.6299212598425197,
                    "duration": 0.12820516666666748
                },
                {
                    "name": "G4",
                    "midi": 67,
                    "time": 41.41026883333354,
                    "velocity": 0.6299212598425197,
                    "duration": 0.12820516666666748
                },
                {
                    "name": "G4",
                    "midi": 67,
                    "time": 41.666679166666874,
                    "velocity": 0.6299212598425197,
                    "duration": 0.12820516666666748
                },
                {
                    "name": "G5",
                    "midi": 79,
                    "time": 41.79488433333354,
                    "velocity": 0.6299212598425197,
                    "duration": 0.12820516666666748
                },
                {
                    "name": "G5",
                    "midi": 79,
                    "time": 42.05129466666688,
                    "velocity": 0.6299212598425197,
                    "duration": 0.12820516666666748
                },
                {
                    "name": "G4",
                    "midi": 67,
                    "time": 42.179499833333544,
                    "velocity": 0.6299212598425197,
                    "duration": 0.12820516666666748
                },
                {
                    "name": "G4",
                    "midi": 67,
                    "time": 42.43591016666688,
                    "velocity": 0.6299212598425197,
                    "duration": 0.12820516666666748
                },
                {
                    "name": "G5",
                    "midi": 79,
                    "time": 42.56411533333355,
                    "velocity": 0.6299212598425197,
                    "duration": 0.12820516666666748
                },
                {
                    "name": "G5",
                    "midi": 79,
                    "time": 42.82052566666688,
                    "velocity": 0.6299212598425197,
                    "duration": 0.12820516666666748
                },
                {
                    "name": "G4",
                    "midi": 67,
                    "time": 42.94873083333355,
                    "velocity": 0.6299212598425197,
                    "duration": 0.12820516666666748
                },
                {
                    "name": "G4",
                    "midi": 67,
                    "time": 43.205141166666884,
                    "velocity": 0.6299212598425197,
                    "duration": 0.12820516666666748
                },
                {
                    "name": "G5",
                    "midi": 79,
                    "time": 43.33334633333355,
                    "velocity": 0.6299212598425197,
                    "duration": 0.12820516666666748
                },
                {
                    "name": "G5",
                    "midi": 79,
                    "time": 43.58975666666689,
                    "velocity": 0.6299212598425197,
                    "duration": 0.12820516666666748
                },
                {
                    "name": "G4",
                    "midi": 67,
                    "time": 43.717961833333554,
                    "velocity": 0.6299212598425197,
                    "duration": 0.12820516666666748
                },
                {
                    "name": "G4",
                    "midi": 67,
                    "time": 43.97437216666689,
                    "velocity": 0.6299212598425197,
                    "duration": 0.12820516666666748
                },
                {
                    "name": "G5",
                    "midi": 79,
                    "time": 44.10257733333356,
                    "velocity": 0.6299212598425197,
                    "duration": 0.12820516666666748
                },
                {
                    "name": "G5",
                    "midi": 79,
                    "time": 44.35898766666689,
                    "velocity": 0.6299212598425197,
                    "duration": 0.12820516666666748
                },
                {
                    "name": "G4",
                    "midi": 67,
                    "time": 44.48719283333356,
                    "velocity": 0.6299212598425197,
                    "duration": 0.12820516666666748
                },
                {
                    "name": "G4",
                    "midi": 67,
                    "time": 44.743603166666894,
                    "velocity": 0.6299212598425197,
                    "duration": 0.12820516666666748
                },
                {
                    "name": "G5",
                    "midi": 79,
                    "time": 44.87180833333356,
                    "velocity": 0.6299212598425197,
                    "duration": 0.12820516666666748
                },
                {
                    "name": "G5",
                    "midi": 79,
                    "time": 45.128218666666896,
                    "velocity": 0.6299212598425197,
                    "duration": 0.12820516666666748
                },
                {
                    "name": "G4",
                    "midi": 67,
                    "time": 45.256423833333564,
                    "velocity": 0.6299212598425197,
                    "duration": 0.12820516666666748
                },
                {
                    "name": "G4",
                    "midi": 67,
                    "time": 45.5128341666669,
                    "velocity": 0.6299212598425197,
                    "duration": 0.12820516666666748
                },
                {
                    "name": "G5",
                    "midi": 79,
                    "time": 45.641039333333566,
                    "velocity": 0.6299212598425197,
                    "duration": 0.12820516666666748
                },
                {
                    "name": "G5",
                    "midi": 79,
                    "time": 45.8974496666669,
                    "velocity": 0.6299212598425197,
                    "duration": 0.12820516666666748
                },
                {
                    "name": "G4",
                    "midi": 67,
                    "time": 46.02565483333357,
                    "velocity": 0.6299212598425197,
                    "duration": 0.12820516666666748
                },
                {
                    "name": "G4",
                    "midi": 67,
                    "time": 46.282065166666904,
                    "velocity": 0.6299212598425197,
                    "duration": 0.12820516666666748
                },
                {
                    "name": "G5",
                    "midi": 79,
                    "time": 46.41027033333357,
                    "velocity": 0.6299212598425197,
                    "duration": 0.12820516666666748
                },
                {
                    "name": "G5",
                    "midi": 79,
                    "time": 46.666680666666906,
                    "velocity": 0.6299212598425197,
                    "duration": 0.12820516666666748
                },
                {
                    "name": "G4",
                    "midi": 67,
                    "time": 46.79488583333357,
                    "velocity": 0.6299212598425197,
                    "duration": 0.12820516666666748
                },
                {
                    "name": "G4",
                    "midi": 67,
                    "time": 47.05129616666691,
                    "velocity": 0.6299212598425197,
                    "duration": 0.12820516666666748
                },
                {
                    "name": "G5",
                    "midi": 79,
                    "time": 47.179501333333576,
                    "velocity": 0.6299212598425197,
                    "duration": 0.12820516666666748
                },
                {
                    "name": "G5",
                    "midi": 79,
                    "time": 47.43591166666691,
                    "velocity": 0.6299212598425197,
                    "duration": 0.12820516666666748
                },
                {
                    "name": "G4",
                    "midi": 67,
                    "time": 47.56411683333358,
                    "velocity": 0.6299212598425197,
                    "duration": 0.12820516666666748
                },
                {
                    "name": "G4",
                    "midi": 67,
                    "time": 47.82052716666691,
                    "velocity": 0.6299212598425197,
                    "duration": 0.12820516666666748
                },
                {
                    "name": "G5",
                    "midi": 79,
                    "time": 47.94873233333358,
                    "velocity": 0.6299212598425197,
                    "duration": 0.12820516666666748
                },
                {
                    "name": "G5",
                    "midi": 79,
                    "time": 48.205142666666916,
                    "velocity": 0.6299212598425197,
                    "duration": 0.12820516666666748
                },
                {
                    "name": "G4",
                    "midi": 67,
                    "time": 48.33334783333358,
                    "velocity": 0.6299212598425197,
                    "duration": 0.12820516666666748
                },
                {
                    "name": "G4",
                    "midi": 67,
                    "time": 48.58975816666692,
                    "velocity": 0.6299212598425197,
                    "duration": 0.12820516666666748
                },
                {
                    "name": "G5",
                    "midi": 79,
                    "time": 48.717963333333586,
                    "velocity": 0.6299212598425197,
                    "duration": 0.12820516666666748
                },
                {
                    "name": "G5",
                    "midi": 79,
                    "time": 48.97437366666692,
                    "velocity": 0.6299212598425197,
                    "duration": 0.12820516666666748
                },
                {
                    "name": "G4",
                    "midi": 67,
                    "time": 49.10257883333359,
                    "velocity": 0.6299212598425197,
                    "duration": 0.12820516666666748
                },
                {
                    "name": "G4",
                    "midi": 67,
                    "time": 49.35898916666692,
                    "velocity": 0.6299212598425197,
                    "duration": 0.12820516666666748
                },
                {
                    "name": "G5",
                    "midi": 79,
                    "time": 49.48719433333359,
                    "velocity": 0.6299212598425197,
                    "duration": 0.12820516666666748
                },
                {
                    "name": "G5",
                    "midi": 79,
                    "time": 49.743604666666926,
                    "velocity": 0.6299212598425197,
                    "duration": 0.12820516666666748
                },
                {
                    "name": "G4",
                    "midi": 67,
                    "time": 49.87180983333359,
                    "velocity": 0.6299212598425197,
                    "duration": 0.12820516666666748
                },
                {
                    "name": "G4",
                    "midi": 67,
                    "time": 50.12822016666693,
                    "velocity": 0.6299212598425197,
                    "duration": 0.12820516666666748
                },
                {
                    "name": "G5",
                    "midi": 79,
                    "time": 50.256425333333596,
                    "velocity": 0.6299212598425197,
                    "duration": 0.12820516666666748
                },
                {
                    "name": "G5",
                    "midi": 79,
                    "time": 50.51283566666693,
                    "velocity": 0.6299212598425197,
                    "duration": 0.12820516666666748
                },
                {
                    "name": "G4",
                    "midi": 67,
                    "time": 50.6410408333336,
                    "velocity": 0.6299212598425197,
                    "duration": 0.12820516666666748
                },
                {
                    "name": "G4",
                    "midi": 67,
                    "time": 50.89745116666693,
                    "velocity": 0.6299212598425197,
                    "duration": 0.12820516666666748
                },
                {
                    "name": "G5",
                    "midi": 79,
                    "time": 51.0256563333336,
                    "velocity": 0.6299212598425197,
                    "duration": 0.12820516666666748
                },
                {
                    "name": "G5",
                    "midi": 79,
                    "time": 51.282066666666935,
                    "velocity": 0.6299212598425197,
                    "duration": 0.12820516666666748
                },
                {
                    "name": "G4",
                    "midi": 67,
                    "time": 51.4102718333336,
                    "velocity": 0.6299212598425197,
                    "duration": 0.12820516666666748
                },
                {
                    "name": "G4",
                    "midi": 67,
                    "time": 51.66668216666694,
                    "velocity": 0.6299212598425197,
                    "duration": 0.12820516666666748
                },
                {
                    "name": "G5",
                    "midi": 79,
                    "time": 51.794887333333605,
                    "velocity": 0.6299212598425197,
                    "duration": 0.12820516666666748
                },
                {
                    "name": "G5",
                    "midi": 79,
                    "time": 52.05129766666694,
                    "velocity": 0.6299212598425197,
                    "duration": 0.12820516666666748
                },
                {
                    "name": "G4",
                    "midi": 67,
                    "time": 52.17950283333361,
                    "velocity": 0.6299212598425197,
                    "duration": 0.12820516666666748
                },
                {
                    "name": "G4",
                    "midi": 67,
                    "time": 52.43591316666694,
                    "velocity": 0.6299212598425197,
                    "duration": 0.12820516666666748
                },
                {
                    "name": "G5",
                    "midi": 79,
                    "time": 52.56411833333361,
                    "velocity": 0.6299212598425197,
                    "duration": 0.12820516666666748
                },
                {
                    "name": "G5",
                    "midi": 79,
                    "time": 52.820528666666945,
                    "velocity": 0.6299212598425197,
                    "duration": 0.12820516666666748
                },
                {
                    "name": "G4",
                    "midi": 67,
                    "time": 52.94873383333361,
                    "velocity": 0.6299212598425197,
                    "duration": 0.12820516666666748
                },
                {
                    "name": "G4",
                    "midi": 67,
                    "time": 53.20514416666695,
                    "velocity": 0.6299212598425197,
                    "duration": 0.12820516666666748
                },
                {
                    "name": "G5",
                    "midi": 79,
                    "time": 53.333349333333615,
                    "velocity": 0.6299212598425197,
                    "duration": 0.12820516666666748
                },
                {
                    "name": "G5",
                    "midi": 79,
                    "time": 53.58975966666695,
                    "velocity": 0.6299212598425197,
                    "duration": 0.12820516666666748
                },
                {
                    "name": "G4",
                    "midi": 67,
                    "time": 53.71796483333362,
                    "velocity": 0.6299212598425197,
                    "duration": 0.12820516666666748
                },
                {
                    "name": "G4",
                    "midi": 67,
                    "time": 53.97437516666695,
                    "velocity": 0.6299212598425197,
                    "duration": 0.12820516666666748
                },
                {
                    "name": "G5",
                    "midi": 79,
                    "time": 54.10258033333362,
                    "velocity": 0.6299212598425197,
                    "duration": 0.12820516666666748
                },
                {
                    "name": "G5",
                    "midi": 79,
                    "time": 54.358990666666955,
                    "velocity": 0.6299212598425197,
                    "duration": 0.12820516666666748
                },
                {
                    "name": "G4",
                    "midi": 67,
                    "time": 54.48719583333362,
                    "velocity": 0.6299212598425197,
                    "duration": 0.12820516666666748
                },
                {
                    "name": "G4",
                    "midi": 67,
                    "time": 54.74360616666696,
                    "velocity": 0.6299212598425197,
                    "duration": 0.12820516666666748
                },
                {
                    "name": "G5",
                    "midi": 79,
                    "time": 54.871811333333625,
                    "velocity": 0.6299212598425197,
                    "duration": 0.12820516666666748
                },
                {
                    "name": "G5",
                    "midi": 79,
                    "time": 55.12822166666696,
                    "velocity": 0.6299212598425197,
                    "duration": 0.12820516666666748
                },
                {
                    "name": "G4",
                    "midi": 67,
                    "time": 55.25642683333363,
                    "velocity": 0.6299212598425197,
                    "duration": 0.12820516666666748
                },
                {
                    "name": "G4",
                    "midi": 67,
                    "time": 55.51283716666696,
                    "velocity": 0.6299212598425197,
                    "duration": 0.12820516666666748
                },
                {
                    "name": "G5",
                    "midi": 79,
                    "time": 55.64104233333363,
                    "velocity": 0.6299212598425197,
                    "duration": 0.12820516666666748
                },
                {
                    "name": "G5",
                    "midi": 79,
                    "time": 55.897452666666965,
                    "velocity": 0.6299212598425197,
                    "duration": 0.12820516666666748
                },
                {
                    "name": "G4",
                    "midi": 67,
                    "time": 56.02565783333363,
                    "velocity": 0.6299212598425197,
                    "duration": 0.12820516666666748
                },
                {
                    "name": "G4",
                    "midi": 67,
                    "time": 56.28206816666697,
                    "velocity": 0.6299212598425197,
                    "duration": 0.12820516666666748
                },
                {
                    "name": "G5",
                    "midi": 79,
                    "time": 56.410273333333635,
                    "velocity": 0.6299212598425197,
                    "duration": 0.12820516666666748
                },
                {
                    "name": "G5",
                    "midi": 79,
                    "time": 56.66668366666697,
                    "velocity": 0.6299212598425197,
                    "duration": 0.12820516666666748
                },
                {
                    "name": "G4",
                    "midi": 67,
                    "time": 56.79488883333364,
                    "velocity": 0.6299212598425197,
                    "duration": 0.12820516666666748
                },
                {
                    "name": "G4",
                    "midi": 67,
                    "time": 57.05129916666697,
                    "velocity": 0.6299212598425197,
                    "duration": 0.12820516666666748
                },
                {
                    "name": "G5",
                    "midi": 79,
                    "time": 57.17950433333364,
                    "velocity": 0.6299212598425197,
                    "duration": 0.12820516666666748
                },
                {
                    "name": "G5",
                    "midi": 79,
                    "time": 57.435914666666974,
                    "velocity": 0.6299212598425197,
                    "duration": 0.12820516666666748
                },
                {
                    "name": "G4",
                    "midi": 67,
                    "time": 57.56411983333364,
                    "velocity": 0.6299212598425197,
                    "duration": 0.12820516666666748
                },
                {
                    "name": "G4",
                    "midi": 67,
                    "time": 57.82053016666698,
                    "velocity": 0.6299212598425197,
                    "duration": 0.12820516666666748
                },
                {
                    "name": "G5",
                    "midi": 79,
                    "time": 57.948735333333644,
                    "velocity": 0.6299212598425197,
                    "duration": 0.12820516666666748
                },
                {
                    "name": "G5",
                    "midi": 79,
                    "time": 58.20514566666698,
                    "velocity": 0.6299212598425197,
                    "duration": 0.12820516666666748
                },
                {
                    "name": "G4",
                    "midi": 67,
                    "time": 58.33335083333365,
                    "velocity": 0.6299212598425197,
                    "duration": 0.12820516666666748
                },
                {
                    "name": "G4",
                    "midi": 67,
                    "time": 58.58976116666698,
                    "velocity": 0.6299212598425197,
                    "duration": 0.12820516666666748
                },
                {
                    "name": "G5",
                    "midi": 79,
                    "time": 58.71796633333365,
                    "velocity": 0.6299212598425197,
                    "duration": 0.12820516666666748
                },
                {
                    "name": "G5",
                    "midi": 79,
                    "time": 58.974376666666984,
                    "velocity": 0.6299212598425197,
                    "duration": 0.12820516666666748
                },
                {
                    "name": "G4",
                    "midi": 67,
                    "time": 59.10258183333365,
                    "velocity": 0.6299212598425197,
                    "duration": 0.12820516666666748
                },
                {
                    "name": "G4",
                    "midi": 67,
                    "time": 59.35899216666699,
                    "velocity": 0.6299212598425197,
                    "duration": 0.12820516666666748
                },
                {
                    "name": "G5",
                    "midi": 79,
                    "time": 59.487197333333654,
                    "velocity": 0.6299212598425197,
                    "duration": 0.12820516666666748
                },
                {
                    "name": "G5",
                    "midi": 79,
                    "time": 59.74360766666699,
                    "velocity": 0.6299212598425197,
                    "duration": 0.12820516666666748
                },
                {
                    "name": "G4",
                    "midi": 67,
                    "time": 59.87181283333366,
                    "velocity": 0.6299212598425197,
                    "duration": 0.12820516666666748
                },
                {
                    "name": "G4",
                    "midi": 67,
                    "time": 60.12822316666699,
                    "velocity": 0.6299212598425197,
                    "duration": 0.12820516666666748
                },
                {
                    "name": "D5",
                    "midi": 74,
                    "time": 60.25642833333366,
                    "velocity": 0.6299212598425197,
                    "duration": 0.12820516666666748
                },
                {
                    "name": "G5",
                    "midi": 79,
                    "time": 60.38463350000033,
                    "velocity": 0.6299212598425197,
                    "duration": 0.12820516666666748
                },
                {
                    "name": "D5",
                    "midi": 74,
                    "time": 60.512838666666994,
                    "velocity": 0.6299212598425197,
                    "duration": 0.12820516666666748
                },
                {
                    "name": "G4",
                    "midi": 67,
                    "time": 60.64104383333366,
                    "velocity": 0.6299212598425197,
                    "duration": 0.12820516666666748
                },
                {
                    "name": "G4",
                    "midi": 67,
                    "time": 60.76924900000033,
                    "velocity": 0.6299212598425197,
                    "duration": 0.12820516666666748
                },
                {
                    "name": "D4",
                    "midi": 62,
                    "time": 60.897454166666996,
                    "velocity": 0.6299212598425197,
                    "duration": 0.12820516666666748
                },
                {
                    "name": "G3",
                    "midi": 55,
                    "time": 61.025659333333664,
                    "velocity": 0.6299212598425197,
                    "duration": 0.12820516666666748
                },
                {
                    "name": "G3",
                    "midi": 55,
                    "time": 61.15386450000033,
                    "velocity": 0.6299212598425197,
                    "duration": 0.12820516666666748
                },
                {
                    "name": "D4",
                    "midi": 62,
                    "time": 61.282069666667,
                    "velocity": 0.6299212598425197,
                    "duration": 0.12820516666666748
                },
                {
                    "name": "G4",
                    "midi": 67,
                    "time": 61.410274833333666,
                    "velocity": 0.6299212598425197,
                    "duration": 0.12820516666666748
                },
                {
                    "name": "G4",
                    "midi": 67,
                    "time": 61.666685166667,
                    "velocity": 0.6299212598425197,
                    "duration": 0.12820516666666748
                },
                {
                    "name": "G5",
                    "midi": 79,
                    "time": 61.79489033333367,
                    "velocity": 0.6299212598425197,
                    "duration": 0.12820516666666748
                },
                {
                    "name": "G5",
                    "midi": 79,
                    "time": 62.051300666667004,
                    "velocity": 0.6299212598425197,
                    "duration": 0.12820516666666748
                },
                {
                    "name": "G4",
                    "midi": 67,
                    "time": 62.17950583333367,
                    "velocity": 0.6299212598425197,
                    "duration": 0.12820516666666748
                },
                {
                    "name": "G4",
                    "midi": 67,
                    "time": 62.435916166667006,
                    "velocity": 0.6299212598425197,
                    "duration": 0.12820516666666748
                },
                {
                    "name": "G5",
                    "midi": 79,
                    "time": 62.564121333333674,
                    "velocity": 0.6299212598425197,
                    "duration": 0.12820516666666748
                },
                {
                    "name": "G5",
                    "midi": 79,
                    "time": 62.82053166666701,
                    "velocity": 0.6299212598425197,
                    "duration": 0.12820516666666748
                },
                {
                    "name": "G4",
                    "midi": 67,
                    "time": 62.948736833333676,
                    "velocity": 0.6299212598425197,
                    "duration": 0.12820516666666748
                },
                {
                    "name": "G4",
                    "midi": 67,
                    "time": 63.20514716666701,
                    "velocity": 0.6299212598425197,
                    "duration": 0.12820516666666748
                },
                {
                    "name": "G5",
                    "midi": 79,
                    "time": 63.33335233333368,
                    "velocity": 0.6299212598425197,
                    "duration": 0.12820516666666748
                },
                {
                    "name": "G5",
                    "midi": 79,
                    "time": 63.58976266666701,
                    "velocity": 0.6299212598425197,
                    "duration": 0.12820516666666748
                },
                {
                    "name": "G4",
                    "midi": 67,
                    "time": 63.71796783333368,
                    "velocity": 0.6299212598425197,
                    "duration": 0.12820516666666748
                },
                {
                    "name": "G4",
                    "midi": 67,
                    "time": 63.974378166667016,
                    "velocity": 0.6299212598425197,
                    "duration": 0.12820516666666748
                },
                {
                    "name": "G5",
                    "midi": 79,
                    "time": 64.10258333333368,
                    "velocity": 0.6299212598425197,
                    "duration": 0.12820516666666038
                },
                {
                    "name": "G5",
                    "midi": 79,
                    "time": 64.358993666667,
                    "velocity": 0.6299212598425197,
                    "duration": 0.12820516666666038
                },
                {
                    "name": "G4",
                    "midi": 67,
                    "time": 64.48719883333366,
                    "velocity": 0.6299212598425197,
                    "duration": 0.12820516666666038
                },
                {
                    "name": "G4",
                    "midi": 67,
                    "time": 64.74360916666699,
                    "velocity": 0.6299212598425197,
                    "duration": 0.12820516666666038
                },
                {
                    "name": "G5",
                    "midi": 79,
                    "time": 64.87181433333365,
                    "velocity": 0.6299212598425197,
                    "duration": 0.12820516666666038
                },
                {
                    "name": "G5",
                    "midi": 79,
                    "time": 65.12822466666697,
                    "velocity": 0.6299212598425197,
                    "duration": 0.12820516666666038
                },
                {
                    "name": "G4",
                    "midi": 67,
                    "time": 65.25642983333363,
                    "velocity": 0.6299212598425197,
                    "duration": 0.12820516666666038
                },
                {
                    "name": "G4",
                    "midi": 67,
                    "time": 65.51284016666695,
                    "velocity": 0.6299212598425197,
                    "duration": 0.12820516666666038
                },
                {
                    "name": "G5",
                    "midi": 79,
                    "time": 65.64104533333361,
                    "velocity": 0.6299212598425197,
                    "duration": 0.12820516666666038
                },
                {
                    "name": "G5",
                    "midi": 79,
                    "time": 65.89745566666693,
                    "velocity": 0.6299212598425197,
                    "duration": 0.12820516666666038
                },
                {
                    "name": "G4",
                    "midi": 67,
                    "time": 66.02566083333359,
                    "velocity": 0.6299212598425197,
                    "duration": 0.12820516666666038
                },
                {
                    "name": "G4",
                    "midi": 67,
                    "time": 66.28207116666691,
                    "velocity": 0.6299212598425197,
                    "duration": 0.12820516666666038
                },
                {
                    "name": "G5",
                    "midi": 79,
                    "time": 66.41027633333357,
                    "velocity": 0.6299212598425197,
                    "duration": 0.12820516666666038
                },
                {
                    "name": "G5",
                    "midi": 79,
                    "time": 66.66668666666689,
                    "velocity": 0.6299212598425197,
                    "duration": 0.12820516666666038
                },
                {
                    "name": "G4",
                    "midi": 67,
                    "time": 66.79489183333355,
                    "velocity": 0.6299212598425197,
                    "duration": 0.12820516666666038
                },
                {
                    "name": "G4",
                    "midi": 67,
                    "time": 67.05130216666687,
                    "velocity": 0.6299212598425197,
                    "duration": 0.12820516666666038
                },
                {
                    "name": "G5",
                    "midi": 79,
                    "time": 67.17950733333353,
                    "velocity": 0.6299212598425197,
                    "duration": 0.12820516666666038
                },
                {
                    "name": "G5",
                    "midi": 79,
                    "time": 67.43591766666685,
                    "velocity": 0.6299212598425197,
                    "duration": 0.12820516666666038
                },
                {
                    "name": "G4",
                    "midi": 67,
                    "time": 67.56412283333351,
                    "velocity": 0.6299212598425197,
                    "duration": 0.12820516666666038
                },
                {
                    "name": "G5",
                    "midi": 79,
                    "time": 67.82053316666683,
                    "velocity": 0.6299212598425197,
                    "duration": 0.12820516666666038
                },
                {
                    "name": "G6",
                    "midi": 91,
                    "time": 67.9487383333335,
                    "velocity": 0.6299212598425197,
                    "duration": 0.12820516666666038
                },
                {
                    "name": "G6",
                    "midi": 91,
                    "time": 68.20514866666682,
                    "velocity": 0.6299212598425197,
                    "duration": 0.12820516666666038
                },
                {
                    "name": "G5",
                    "midi": 79,
                    "time": 68.33335383333348,
                    "velocity": 0.6299212598425197,
                    "duration": 0.12820516666666038
                },
                {
                    "name": "G5",
                    "midi": 79,
                    "time": 68.5897641666668,
                    "velocity": 0.6299212598425197,
                    "duration": 0.12820516666666038
                },
                {
                    "name": "G6",
                    "midi": 91,
                    "time": 68.71796933333346,
                    "velocity": 0.6299212598425197,
                    "duration": 0.12820516666666038
                },
                {
                    "name": "G6",
                    "midi": 91,
                    "time": 68.97437966666678,
                    "velocity": 0.6299212598425197,
                    "duration": 0.12820516666666038
                },
                {
                    "name": "G5",
                    "midi": 79,
                    "time": 69.10258483333344,
                    "velocity": 0.6299212598425197,
                    "duration": 0.12820516666666038
                },
                {
                    "name": "G5",
                    "midi": 79,
                    "time": 69.35899516666676,
                    "velocity": 0.6299212598425197,
                    "duration": 0.12820516666666038
                },
                {
                    "name": "G6",
                    "midi": 91,
                    "time": 69.48720033333342,
                    "velocity": 0.6299212598425197,
                    "duration": 0.12820516666666038
                },
                {
                    "name": "G6",
                    "midi": 91,
                    "time": 69.74361066666674,
                    "velocity": 0.6299212598425197,
                    "duration": 0.12820516666666038
                },
                {
                    "name": "G5",
                    "midi": 79,
                    "time": 69.8718158333334,
                    "velocity": 0.6299212598425197,
                    "duration": 0.12820516666666038
                },
                {
                    "name": "G5",
                    "midi": 79,
                    "time": 70.12822616666672,
                    "velocity": 0.6299212598425197,
                    "duration": 0.12820516666666038
                },
                {
                    "name": "G6",
                    "midi": 91,
                    "time": 70.25643133333338,
                    "velocity": 0.6299212598425197,
                    "duration": 0.12820516666666038
                },
                {
                    "name": "G6",
                    "midi": 91,
                    "time": 70.5128416666667,
                    "velocity": 0.6299212598425197,
                    "duration": 0.12820516666666038
                },
                {
                    "name": "G5",
                    "midi": 79,
                    "time": 70.64104683333336,
                    "velocity": 0.6299212598425197,
                    "duration": 0.12820516666666038
                },
                {
                    "name": "G5",
                    "midi": 79,
                    "time": 70.89745716666668,
                    "velocity": 0.6299212598425197,
                    "duration": 0.12820516666666038
                },
                {
                    "name": "G6",
                    "midi": 91,
                    "time": 71.02566233333334,
                    "velocity": 0.6299212598425197,
                    "duration": 0.12820516666666038
                },
                {
                    "name": "G6",
                    "midi": 91,
                    "time": 71.28207266666666,
                    "velocity": 0.6299212598425197,
                    "duration": 0.12820516666666038
                },
                {
                    "name": "G5",
                    "midi": 79,
                    "time": 71.41027783333332,
                    "velocity": 0.6299212598425197,
                    "duration": 0.12820516666666038
                },
                {
                    "name": "G5",
                    "midi": 79,
                    "time": 71.66668816666665,
                    "velocity": 0.6299212598425197,
                    "duration": 0.12820516666666038
                },
                {
                    "name": "G6",
                    "midi": 91,
                    "time": 71.7948933333333,
                    "velocity": 0.6299212598425197,
                    "duration": 0.12820516666666038
                },
                {
                    "name": "G6",
                    "midi": 91,
                    "time": 72.05130366666663,
                    "velocity": 0.6299212598425197,
                    "duration": 0.12820516666666038
                },
                {
                    "name": "G5",
                    "midi": 79,
                    "time": 72.17950883333329,
                    "velocity": 0.6299212598425197,
                    "duration": 0.12820516666666038
                },
                {
                    "name": "G4",
                    "midi": 67,
                    "time": 72.43591916666661,
                    "velocity": 0.6299212598425197,
                    "duration": 0.12820516666666038
                },
                {
                    "name": "G5",
                    "midi": 79,
                    "time": 72.56412433333327,
                    "velocity": 0.6299212598425197,
                    "duration": 0.12820516666666038
                },
                {
                    "name": "G5",
                    "midi": 79,
                    "time": 72.82053466666659,
                    "velocity": 0.6299212598425197,
                    "duration": 0.12820516666666038
                },
                {
                    "name": "G4",
                    "midi": 67,
                    "time": 72.94873983333325,
                    "velocity": 0.6299212598425197,
                    "duration": 0.12820516666666038
                },
                {
                    "name": "G4",
                    "midi": 67,
                    "time": 73.20515016666657,
                    "velocity": 0.6299212598425197,
                    "duration": 0.12820516666666038
                },
                {
                    "name": "G5",
                    "midi": 79,
                    "time": 73.33335533333323,
                    "velocity": 0.6299212598425197,
                    "duration": 0.12820516666666038
                },
                {
                    "name": "G5",
                    "midi": 79,
                    "time": 73.58976566666655,
                    "velocity": 0.6299212598425197,
                    "duration": 0.12820516666666038
                },
                {
                    "name": "G4",
                    "midi": 67,
                    "time": 73.71797083333321,
                    "velocity": 0.6299212598425197,
                    "duration": 0.12820516666666038
                },
                {
                    "name": "G4",
                    "midi": 67,
                    "time": 79.35899816666654,
                    "velocity": 0.6299212598425197,
                    "duration": 0.12820516666666038
                },
                {
                    "name": "G5",
                    "midi": 79,
                    "time": 79.4872033333332,
                    "velocity": 0.6299212598425197,
                    "duration": 0.12820516666666038
                },
                {
                    "name": "G5",
                    "midi": 79,
                    "time": 79.74361366666652,
                    "velocity": 0.6299212598425197,
                    "duration": 0.12820516666666038
                },
                {
                    "name": "G4",
                    "midi": 67,
                    "time": 79.87181883333318,
                    "velocity": 0.6299212598425197,
                    "duration": 0.12820516666666038
                },
                {
                    "name": "D7",
                    "midi": 98,
                    "time": 80.76925499999984,
                    "velocity": 0.6299212598425197,
                    "duration": 0.7692310000000049
                },
                {
                    "name": "G6",
                    "midi": 91,
                    "time": 80.76925499999984,
                    "velocity": 0.6299212598425197,
                    "duration": 0.7692310000000049
                },
                {
                    "name": "D6",
                    "midi": 86,
                    "time": 80.76925499999984,
                    "velocity": 0.6299212598425197,
                    "duration": 0.7692310000000049
                }
            ],
            "controlChanges": {},
            "id": 4,
            "name": "Piano (treble)",
            "instrumentNumber": 0,
            "instrument": "acoustic grand piano",
            "instrumentFamily": "piano",
            "channelNumber": 3,
            "isPercussion": false
        },
        {
            "startTime": 0,
            "duration": 81.53848599999993,
            "length": 365,
            "notes": [
                {
                    "name": "D5",
                    "midi": 74,
                    "time": 0,
                    "velocity": 0.6299212598425197,
                    "duration": 0.12820516666666665
                },
                {
                    "name": "G4",
                    "midi": 67,
                    "time": 0.38461549999999994,
                    "velocity": 0.6299212598425197,
                    "duration": 0.12820516666666665
                },
                {
                    "name": "D5",
                    "midi": 74,
                    "time": 0.7692309999999999,
                    "velocity": 0.6299212598425197,
                    "duration": 0.1282051666666667
                },
                {
                    "name": "G4",
                    "midi": 67,
                    "time": 1.1538464999999998,
                    "velocity": 0.6299212598425197,
                    "duration": 0.1282051666666666
                },
                {
                    "name": "D5",
                    "midi": 74,
                    "time": 1.5384619999999996,
                    "velocity": 0.6299212598425197,
                    "duration": 0.1282051666666666
                },
                {
                    "name": "G4",
                    "midi": 67,
                    "time": 1.9230774999999993,
                    "velocity": 0.6299212598425197,
                    "duration": 0.1282051666666666
                },
                {
                    "name": "D5",
                    "midi": 74,
                    "time": 2.307692999999999,
                    "velocity": 0.6299212598425197,
                    "duration": 0.1282051666666666
                },
                {
                    "name": "G4",
                    "midi": 67,
                    "time": 2.692308499999999,
                    "velocity": 0.6299212598425197,
                    "duration": 0.1282051666666666
                },
                {
                    "name": "D5",
                    "midi": 74,
                    "time": 3.0769239999999987,
                    "velocity": 0.6299212598425197,
                    "duration": 0.1282051666666666
                },
                {
                    "name": "G4",
                    "midi": 67,
                    "time": 3.4615394999999984,
                    "velocity": 0.6299212598425197,
                    "duration": 0.1282051666666666
                },
                {
                    "name": "D5",
                    "midi": 74,
                    "time": 3.846154999999998,
                    "velocity": 0.6299212598425197,
                    "duration": 0.1282051666666666
                },
                {
                    "name": "G4",
                    "midi": 67,
                    "time": 4.230770499999998,
                    "velocity": 0.6299212598425197,
                    "duration": 0.1282051666666666
                },
                {
                    "name": "D5",
                    "midi": 74,
                    "time": 4.615385999999998,
                    "velocity": 0.6299212598425197,
                    "duration": 0.1282051666666666
                },
                {
                    "name": "G4",
                    "midi": 67,
                    "time": 5.000001499999998,
                    "velocity": 0.6299212598425197,
                    "duration": 0.1282051666666666
                },
                {
                    "name": "C5",
                    "midi": 72,
                    "time": 5.384616999999998,
                    "velocity": 0.6299212598425197,
                    "duration": 0.1282051666666666
                },
                {
                    "name": "G4",
                    "midi": 67,
                    "time": 5.7692324999999975,
                    "velocity": 0.6299212598425197,
                    "duration": 0.1282051666666666
                },
                {
                    "name": "D#5",
                    "midi": 75,
                    "time": 6.153847999999997,
                    "velocity": 0.6299212598425197,
                    "duration": 0.1282051666666666
                },
                {
                    "name": "G4",
                    "midi": 67,
                    "time": 6.538463499999997,
                    "velocity": 0.6299212598425197,
                    "duration": 0.1282051666666666
                },
                {
                    "name": "D#5",
                    "midi": 75,
                    "time": 6.923078999999997,
                    "velocity": 0.6299212598425197,
                    "duration": 0.1282051666666666
                },
                {
                    "name": "G4",
                    "midi": 67,
                    "time": 7.307694499999997,
                    "velocity": 0.6299212598425197,
                    "duration": 0.1282051666666666
                },
                {
                    "name": "C5",
                    "midi": 72,
                    "time": 7.692309999999996,
                    "velocity": 0.6299212598425197,
                    "duration": 0.1282051666666666
                },
                {
                    "name": "G4",
                    "midi": 67,
                    "time": 8.076925499999996,
                    "velocity": 0.6299212598425197,
                    "duration": 0.12820516666666748
                },
                {
                    "name": "A#4",
                    "midi": 70,
                    "time": 8.461540999999997,
                    "velocity": 0.6299212598425197,
                    "duration": 0.12820516666666748
                },
                {
                    "name": "G4",
                    "midi": 67,
                    "time": 8.846156499999998,
                    "velocity": 0.6299212598425197,
                    "duration": 0.12820516666666748
                },
                {
                    "name": "D5",
                    "midi": 74,
                    "time": 9.230771999999998,
                    "velocity": 0.6299212598425197,
                    "duration": 0.12820516666666748
                },
                {
                    "name": "G4",
                    "midi": 67,
                    "time": 9.615387499999999,
                    "velocity": 0.6299212598425197,
                    "duration": 0.12820516666666748
                },
                {
                    "name": "D5",
                    "midi": 74,
                    "time": 10.000003,
                    "velocity": 0.6299212598425197,
                    "duration": 0.12820516666666748
                },
                {
                    "name": "G4",
                    "midi": 67,
                    "time": 10.3846185,
                    "velocity": 0.6299212598425197,
                    "duration": 0.12820516666666748
                },
                {
                    "name": "D5",
                    "midi": 74,
                    "time": 10.769234,
                    "velocity": 0.6299212598425197,
                    "duration": 0.12820516666666748
                },
                {
                    "name": "G4",
                    "midi": 67,
                    "time": 11.153849500000002,
                    "velocity": 0.6299212598425197,
                    "duration": 0.12820516666666748
                },
                {
                    "name": "C5",
                    "midi": 72,
                    "time": 11.538465000000002,
                    "velocity": 0.6299212598425197,
                    "duration": 0.12820516666666748
                },
                {
                    "name": "G4",
                    "midi": 67,
                    "time": 11.923080500000003,
                    "velocity": 0.6299212598425197,
                    "duration": 0.12820516666666748
                },
                {
                    "name": "D#5",
                    "midi": 75,
                    "time": 12.307696000000004,
                    "velocity": 0.6299212598425197,
                    "duration": 0.12820516666666748
                },
                {
                    "name": "G4",
                    "midi": 67,
                    "time": 12.692311500000004,
                    "velocity": 0.6299212598425197,
                    "duration": 0.12820516666666748
                },
                {
                    "name": "D#5",
                    "midi": 75,
                    "time": 13.076927000000005,
                    "velocity": 0.6299212598425197,
                    "duration": 0.12820516666666748
                },
                {
                    "name": "G4",
                    "midi": 67,
                    "time": 13.461542500000006,
                    "velocity": 0.6299212598425197,
                    "duration": 0.12820516666666748
                },
                {
                    "name": "C5",
                    "midi": 72,
                    "time": 13.846158000000006,
                    "velocity": 0.6299212598425197,
                    "duration": 0.12820516666666748
                },
                {
                    "name": "G4",
                    "midi": 67,
                    "time": 14.230773500000007,
                    "velocity": 0.6299212598425197,
                    "duration": 0.12820516666666748
                },
                {
                    "name": "A#4",
                    "midi": 70,
                    "time": 14.615389000000008,
                    "velocity": 0.6299212598425197,
                    "duration": 0.12820516666666748
                },
                {
                    "name": "G4",
                    "midi": 67,
                    "time": 15.000004500000008,
                    "velocity": 0.6299212598425197,
                    "duration": 0.12820516666666748
                },
                {
                    "name": "F4",
                    "midi": 65,
                    "time": 15.384620000000009,
                    "velocity": 0.6299212598425197,
                    "duration": 0.12820516666666748
                },
                {
                    "name": "G#4",
                    "midi": 68,
                    "time": 15.384620000000009,
                    "velocity": 0.6299212598425197,
                    "duration": 0.12820516666666748
                },
                {
                    "name": "A#4",
                    "midi": 70,
                    "time": 15.384620000000009,
                    "velocity": 0.6299212598425197,
                    "duration": 0.12820516666666748
                },
                {
                    "name": "D5",
                    "midi": 74,
                    "time": 15.384620000000009,
                    "velocity": 0.6299212598425197,
                    "duration": 0.12820516666666748
                },
                {
                    "name": "G4",
                    "midi": 67,
                    "time": 15.76923550000001,
                    "velocity": 0.6299212598425197,
                    "duration": 0.12820516666666748
                },
                {
                    "name": "D#4",
                    "midi": 63,
                    "time": 16.15385100000001,
                    "velocity": 0.6299212598425197,
                    "duration": 0.12820516666666748
                },
                {
                    "name": "D#5",
                    "midi": 75,
                    "time": 16.15385100000001,
                    "velocity": 0.6299212598425197,
                    "duration": 0.12820516666666748
                },
                {
                    "name": "A#4",
                    "midi": 70,
                    "time": 16.15385100000001,
                    "velocity": 0.6299212598425197,
                    "duration": 0.12820516666666748
                },
                {
                    "name": "G4",
                    "midi": 67,
                    "time": 16.538466500000013,
                    "velocity": 0.6299212598425197,
                    "duration": 0.12820516666666748
                },
                {
                    "name": "D4",
                    "midi": 62,
                    "time": 16.923082000000015,
                    "velocity": 0.6299212598425197,
                    "duration": 0.12820516666666748
                },
                {
                    "name": "F4",
                    "midi": 65,
                    "time": 16.923082000000015,
                    "velocity": 0.6299212598425197,
                    "duration": 0.12820516666666748
                },
                {
                    "name": "A#4",
                    "midi": 70,
                    "time": 16.923082000000015,
                    "velocity": 0.6299212598425197,
                    "duration": 0.12820516666666748
                },
                {
                    "name": "G#4",
                    "midi": 68,
                    "time": 16.923082000000015,
                    "velocity": 0.6299212598425197,
                    "duration": 0.12820516666666748
                },
                {
                    "name": "G4",
                    "midi": 67,
                    "time": 17.307697500000017,
                    "velocity": 0.6299212598425197,
                    "duration": 0.12820516666666748
                },
                {
                    "name": "C#4",
                    "midi": 61,
                    "time": 17.69231300000002,
                    "velocity": 0.6299212598425197,
                    "duration": 0.12820516666666748
                },
                {
                    "name": "E4",
                    "midi": 64,
                    "time": 17.69231300000002,
                    "velocity": 0.6299212598425197,
                    "duration": 0.12820516666666748
                },
                {
                    "name": "C5",
                    "midi": 72,
                    "time": 17.69231300000002,
                    "velocity": 0.6299212598425197,
                    "duration": 0.12820516666666748
                },
                {
                    "name": "G4",
                    "midi": 67,
                    "time": 18.076928500000022,
                    "velocity": 0.6299212598425197,
                    "duration": 0.12820516666666748
                },
                {
                    "name": "C4",
                    "midi": 60,
                    "time": 18.461544000000025,
                    "velocity": 0.6299212598425197,
                    "duration": 0.12820516666666748
                },
                {
                    "name": "D#4",
                    "midi": 63,
                    "time": 18.461544000000025,
                    "velocity": 0.6299212598425197,
                    "duration": 0.12820516666666748
                },
                {
                    "name": "F#4",
                    "midi": 66,
                    "time": 18.461544000000025,
                    "velocity": 0.6299212598425197,
                    "duration": 0.12820516666666748
                },
                {
                    "name": "G#4",
                    "midi": 68,
                    "time": 18.461544000000025,
                    "velocity": 0.6299212598425197,
                    "duration": 0.12820516666666748
                },
                {
                    "name": "G4",
                    "midi": 67,
                    "time": 18.846159500000027,
                    "velocity": 0.6299212598425197,
                    "duration": 0.12820516666666748
                },
                {
                    "name": "G5",
                    "midi": 79,
                    "time": 19.23077500000003,
                    "velocity": 0.6299212598425197,
                    "duration": 0.12820516666666748
                },
                {
                    "name": "G4",
                    "midi": 67,
                    "time": 19.615390500000032,
                    "velocity": 0.6299212598425197,
                    "duration": 0.12820516666666748
                },
                {
                    "name": "G3",
                    "midi": 55,
                    "time": 20.000006000000035,
                    "velocity": 0.6299212598425197,
                    "duration": 0.12820516666666748
                },
                {
                    "name": "D4",
                    "midi": 62,
                    "time": 20.000006000000035,
                    "velocity": 0.6299212598425197,
                    "duration": 0.12820516666666748
                },
                {
                    "name": "G4",
                    "midi": 67,
                    "time": 20.384621500000037,
                    "velocity": 0.6299212598425197,
                    "duration": 0.12820516666666748
                },
                {
                    "name": "G5",
                    "midi": 79,
                    "time": 20.76923700000004,
                    "velocity": 0.6299212598425197,
                    "duration": 0.12820516666666748
                },
                {
                    "name": "G4",
                    "midi": 67,
                    "time": 21.153852500000042,
                    "velocity": 0.6299212598425197,
                    "duration": 0.12820516666666748
                },
                {
                    "name": "F4",
                    "midi": 65,
                    "time": 21.538468000000044,
                    "velocity": 0.6299212598425197,
                    "duration": 0.12820516666666748
                },
                {
                    "name": "G#4",
                    "midi": 68,
                    "time": 21.538468000000044,
                    "velocity": 0.6299212598425197,
                    "duration": 0.12820516666666748
                },
                {
                    "name": "A#4",
                    "midi": 70,
                    "time": 21.538468000000044,
                    "velocity": 0.6299212598425197,
                    "duration": 0.12820516666666748
                },
                {
                    "name": "C5",
                    "midi": 72,
                    "time": 21.538468000000044,
                    "velocity": 0.6299212598425197,
                    "duration": 0.12820516666666748
                },
                {
                    "name": "D5",
                    "midi": 74,
                    "time": 21.923083500000047,
                    "velocity": 0.6299212598425197,
                    "duration": 0.12820516666666748
                },
                {
                    "name": "D#4",
                    "midi": 63,
                    "time": 22.30769900000005,
                    "velocity": 0.6299212598425197,
                    "duration": 0.12820516666666748
                },
                {
                    "name": "D#5",
                    "midi": 75,
                    "time": 22.30769900000005,
                    "velocity": 0.6299212598425197,
                    "duration": 0.12820516666666748
                },
                {
                    "name": "A#4",
                    "midi": 70,
                    "time": 22.30769900000005,
                    "velocity": 0.6299212598425197,
                    "duration": 0.12820516666666748
                },
                {
                    "name": "C5",
                    "midi": 72,
                    "time": 22.69231450000005,
                    "velocity": 0.6299212598425197,
                    "duration": 0.12820516666666748
                },
                {
                    "name": "D4",
                    "midi": 62,
                    "time": 23.076930000000054,
                    "velocity": 0.6299212598425197,
                    "duration": 0.12820516666666748
                },
                {
                    "name": "F4",
                    "midi": 65,
                    "time": 23.076930000000054,
                    "velocity": 0.6299212598425197,
                    "duration": 0.12820516666666748
                },
                {
                    "name": "A#4",
                    "midi": 70,
                    "time": 23.076930000000054,
                    "velocity": 0.6299212598425197,
                    "duration": 0.12820516666666748
                },
                {
                    "name": "G#4",
                    "midi": 68,
                    "time": 23.076930000000054,
                    "velocity": 0.6299212598425197,
                    "duration": 0.12820516666666748
                },
                {
                    "name": "G4",
                    "midi": 67,
                    "time": 23.461545500000057,
                    "velocity": 0.6299212598425197,
                    "duration": 0.12820516666666748
                },
                {
                    "name": "C#4",
                    "midi": 61,
                    "time": 23.84616100000006,
                    "velocity": 0.6299212598425197,
                    "duration": 0.12820516666666748
                },
                {
                    "name": "E4",
                    "midi": 64,
                    "time": 23.84616100000006,
                    "velocity": 0.6299212598425197,
                    "duration": 0.12820516666666748
                },
                {
                    "name": "C5",
                    "midi": 72,
                    "time": 23.84616100000006,
                    "velocity": 0.6299212598425197,
                    "duration": 0.12820516666666748
                },
                {
                    "name": "G4",
                    "midi": 67,
                    "time": 24.23077650000006,
                    "velocity": 0.6299212598425197,
                    "duration": 0.12820516666666748
                },
                {
                    "name": "C4",
                    "midi": 60,
                    "time": 24.615392000000064,
                    "velocity": 0.6299212598425197,
                    "duration": 0.12820516666666748
                },
                {
                    "name": "D#4",
                    "midi": 63,
                    "time": 24.615392000000064,
                    "velocity": 0.6299212598425197,
                    "duration": 0.12820516666666748
                },
                {
                    "name": "F#4",
                    "midi": 66,
                    "time": 24.615392000000064,
                    "velocity": 0.6299212598425197,
                    "duration": 0.12820516666666748
                },
                {
                    "name": "G#4",
                    "midi": 68,
                    "time": 24.615392000000064,
                    "velocity": 0.6299212598425197,
                    "duration": 0.12820516666666748
                },
                {
                    "name": "G4",
                    "midi": 67,
                    "time": 25.000007500000066,
                    "velocity": 0.6299212598425197,
                    "duration": 0.12820516666666748
                },
                {
                    "name": "G5",
                    "midi": 79,
                    "time": 25.38462300000007,
                    "velocity": 0.6299212598425197,
                    "duration": 0.12820516666666748
                },
                {
                    "name": "G4",
                    "midi": 67,
                    "time": 25.76923850000007,
                    "velocity": 0.6299212598425197,
                    "duration": 0.12820516666666748
                },
                {
                    "name": "G3",
                    "midi": 55,
                    "time": 26.153854000000074,
                    "velocity": 0.6299212598425197,
                    "duration": 0.12820516666666748
                },
                {
                    "name": "D4",
                    "midi": 62,
                    "time": 26.153854000000074,
                    "velocity": 0.6299212598425197,
                    "duration": 0.12820516666666748
                },
                {
                    "name": "G4",
                    "midi": 67,
                    "time": 26.538469500000076,
                    "velocity": 0.6299212598425197,
                    "duration": 0.12820516666666748
                },
                {
                    "name": "D5",
                    "midi": 74,
                    "time": 26.92308500000008,
                    "velocity": 0.6299212598425197,
                    "duration": 0.12820516666666748
                },
                {
                    "name": "G5",
                    "midi": 79,
                    "time": 27.30770050000008,
                    "velocity": 0.6299212598425197,
                    "duration": 0.12820516666666748
                },
                {
                    "name": "D6",
                    "midi": 86,
                    "time": 27.692316000000083,
                    "velocity": 0.6299212598425197,
                    "duration": 0.12820516666666748
                },
                {
                    "name": "A#5",
                    "midi": 82,
                    "time": 27.692316000000083,
                    "velocity": 0.6299212598425197,
                    "duration": 0.12820516666666748
                },
                {
                    "name": "G#5",
                    "midi": 80,
                    "time": 27.692316000000083,
                    "velocity": 0.6299212598425197,
                    "duration": 0.12820516666666748
                },
                {
                    "name": "F5",
                    "midi": 77,
                    "time": 27.692316000000083,
                    "velocity": 0.6299212598425197,
                    "duration": 0.12820516666666748
                },
                {
                    "name": "G5",
                    "midi": 79,
                    "time": 28.076931500000086,
                    "velocity": 0.6299212598425197,
                    "duration": 0.12820516666666748
                },
                {
                    "name": "D#6",
                    "midi": 87,
                    "time": 28.46154700000009,
                    "velocity": 0.6299212598425197,
                    "duration": 0.12820516666666748
                },
                {
                    "name": "A#5",
                    "midi": 82,
                    "time": 28.46154700000009,
                    "velocity": 0.6299212598425197,
                    "duration": 0.12820516666666748
                },
                {
                    "name": "D#5",
                    "midi": 75,
                    "time": 28.46154700000009,
                    "velocity": 0.6299212598425197,
                    "duration": 0.12820516666666748
                },
                {
                    "name": "G5",
                    "midi": 79,
                    "time": 28.84616250000009,
                    "velocity": 0.6299212598425197,
                    "duration": 0.12820516666666748
                },
                {
                    "name": "D5",
                    "midi": 74,
                    "time": 29.230778000000093,
                    "velocity": 0.6299212598425197,
                    "duration": 0.12820516666666748
                },
                {
                    "name": "A#5",
                    "midi": 82,
                    "time": 29.230778000000093,
                    "velocity": 0.6299212598425197,
                    "duration": 0.12820516666666748
                },
                {
                    "name": "G#5",
                    "midi": 80,
                    "time": 29.230778000000093,
                    "velocity": 0.6299212598425197,
                    "duration": 0.12820516666666748
                },
                {
                    "name": "F5",
                    "midi": 77,
                    "time": 29.230778000000093,
                    "velocity": 0.6299212598425197,
                    "duration": 0.12820516666666748
                },
                {
                    "name": "G5",
                    "midi": 79,
                    "time": 29.615393500000096,
                    "velocity": 0.6299212598425197,
                    "duration": 0.12820516666666748
                },
                {
                    "name": "C6",
                    "midi": 84,
                    "time": 30.000009000000098,
                    "velocity": 0.6299212598425197,
                    "duration": 0.12820516666666748
                },
                {
                    "name": "C#5",
                    "midi": 73,
                    "time": 30.000009000000098,
                    "velocity": 0.6299212598425197,
                    "duration": 0.12820516666666748
                },
                {
                    "name": "E5",
                    "midi": 76,
                    "time": 30.000009000000098,
                    "velocity": 0.6299212598425197,
                    "duration": 0.12820516666666748
                },
                {
                    "name": "G5",
                    "midi": 79,
                    "time": 30.3846245000001,
                    "velocity": 0.6299212598425197,
                    "duration": 0.12820516666666748
                },
                {
                    "name": "C5",
                    "midi": 72,
                    "time": 30.769240000000103,
                    "velocity": 0.6299212598425197,
                    "duration": 0.12820516666666748
                },
                {
                    "name": "D#5",
                    "midi": 75,
                    "time": 30.769240000000103,
                    "velocity": 0.6299212598425197,
                    "duration": 0.12820516666666748
                },
                {
                    "name": "G#5",
                    "midi": 80,
                    "time": 30.769240000000103,
                    "velocity": 0.6299212598425197,
                    "duration": 0.12820516666666748
                },
                {
                    "name": "F#5",
                    "midi": 78,
                    "time": 30.769240000000103,
                    "velocity": 0.6299212598425197,
                    "duration": 0.12820516666666748
                },
                {
                    "name": "G5",
                    "midi": 79,
                    "time": 31.153855500000105,
                    "velocity": 0.6299212598425197,
                    "duration": 0.12820516666666748
                },
                {
                    "name": "G6",
                    "midi": 91,
                    "time": 31.538471000000108,
                    "velocity": 0.6299212598425197,
                    "duration": 0.12820516666666748
                },
                {
                    "name": "G5",
                    "midi": 79,
                    "time": 31.92308650000011,
                    "velocity": 0.6299212598425197,
                    "duration": 0.12820516666666748
                },
                {
                    "name": "G4",
                    "midi": 67,
                    "time": 32.30770200000011,
                    "velocity": 0.6299212598425197,
                    "duration": 0.12820516666666748
                },
                {
                    "name": "D5",
                    "midi": 74,
                    "time": 32.30770200000011,
                    "velocity": 0.6299212598425197,
                    "duration": 0.12820516666666748
                },
                {
                    "name": "G5",
                    "midi": 79,
                    "time": 32.692317500000115,
                    "velocity": 0.6299212598425197,
                    "duration": 0.12820516666666748
                },
                {
                    "name": "G6",
                    "midi": 91,
                    "time": 33.07693300000012,
                    "velocity": 0.6299212598425197,
                    "duration": 0.12820516666666748
                },
                {
                    "name": "G5",
                    "midi": 79,
                    "time": 33.46154850000012,
                    "velocity": 0.6299212598425197,
                    "duration": 0.12820516666666748
                },
                {
                    "name": "C6",
                    "midi": 84,
                    "time": 33.84616400000012,
                    "velocity": 0.6299212598425197,
                    "duration": 0.12820516666666748
                },
                {
                    "name": "A#5",
                    "midi": 82,
                    "time": 33.84616400000012,
                    "velocity": 0.6299212598425197,
                    "duration": 0.12820516666666748
                },
                {
                    "name": "G#5",
                    "midi": 80,
                    "time": 33.84616400000012,
                    "velocity": 0.6299212598425197,
                    "duration": 0.12820516666666748
                },
                {
                    "name": "F5",
                    "midi": 77,
                    "time": 33.84616400000012,
                    "velocity": 0.6299212598425197,
                    "duration": 0.12820516666666748
                },
                {
                    "name": "D6",
                    "midi": 86,
                    "time": 34.230779500000125,
                    "velocity": 0.6299212598425197,
                    "duration": 0.12820516666666748
                },
                {
                    "name": "D#5",
                    "midi": 75,
                    "time": 34.61539500000013,
                    "velocity": 0.6299212598425197,
                    "duration": 0.12820516666666748
                },
                {
                    "name": "A#5",
                    "midi": 82,
                    "time": 34.61539500000013,
                    "velocity": 0.6299212598425197,
                    "duration": 0.12820516666666748
                },
                {
                    "name": "D#6",
                    "midi": 87,
                    "time": 34.61539500000013,
                    "velocity": 0.6299212598425197,
                    "duration": 0.12820516666666748
                },
                {
                    "name": "C6",
                    "midi": 84,
                    "time": 35.00001050000013,
                    "velocity": 0.6299212598425197,
                    "duration": 0.12820516666666748
                },
                {
                    "name": "A#5",
                    "midi": 82,
                    "time": 35.38462600000013,
                    "velocity": 0.6299212598425197,
                    "duration": 0.12820516666666748
                },
                {
                    "name": "G#5",
                    "midi": 80,
                    "time": 35.38462600000013,
                    "velocity": 0.6299212598425197,
                    "duration": 0.12820516666666748
                },
                {
                    "name": "D5",
                    "midi": 74,
                    "time": 35.38462600000013,
                    "velocity": 0.6299212598425197,
                    "duration": 0.12820516666666748
                },
                {
                    "name": "F5",
                    "midi": 77,
                    "time": 35.38462600000013,
                    "velocity": 0.6299212598425197,
                    "duration": 0.12820516666666748
                },
                {
                    "name": "G5",
                    "midi": 79,
                    "time": 35.769241500000135,
                    "velocity": 0.6299212598425197,
                    "duration": 0.12820516666666748
                },
                {
                    "name": "C#5",
                    "midi": 73,
                    "time": 36.15385700000014,
                    "velocity": 0.6299212598425197,
                    "duration": 0.12820516666666748
                },
                {
                    "name": "E5",
                    "midi": 76,
                    "time": 36.15385700000014,
                    "velocity": 0.6299212598425197,
                    "duration": 0.12820516666666748
                },
                {
                    "name": "C6",
                    "midi": 84,
                    "time": 36.15385700000014,
                    "velocity": 0.6299212598425197,
                    "duration": 0.12820516666666748
                },
                {
                    "name": "G5",
                    "midi": 79,
                    "time": 36.53847250000014,
                    "velocity": 0.6299212598425197,
                    "duration": 0.12820516666666748
                },
                {
                    "name": "F5",
                    "midi": 77,
                    "time": 36.92308800000014,
                    "velocity": 0.6299212598425197,
                    "duration": 0.12820516666666748
                },
                {
                    "name": "G#5",
                    "midi": 80,
                    "time": 36.92308800000014,
                    "velocity": 0.6299212598425197,
                    "duration": 0.12820516666666748
                },
                {
                    "name": "C5",
                    "midi": 72,
                    "time": 36.92308800000014,
                    "velocity": 0.6299212598425197,
                    "duration": 0.12820516666666748
                },
                {
                    "name": "D#5",
                    "midi": 75,
                    "time": 36.92308800000014,
                    "velocity": 0.6299212598425197,
                    "duration": 0.12820516666666748
                },
                {
                    "name": "G5",
                    "midi": 79,
                    "time": 37.307703500000144,
                    "velocity": 0.6299212598425197,
                    "duration": 0.12820516666666748
                },
                {
                    "name": "G6",
                    "midi": 91,
                    "time": 37.69231900000015,
                    "velocity": 0.6299212598425197,
                    "duration": 0.12820516666666748
                },
                {
                    "name": "G5",
                    "midi": 79,
                    "time": 38.07693450000015,
                    "velocity": 0.6299212598425197,
                    "duration": 0.12820516666666748
                },
                {
                    "name": "G4",
                    "midi": 67,
                    "time": 38.46155000000015,
                    "velocity": 0.6299212598425197,
                    "duration": 0.12820516666666748
                },
                {
                    "name": "D5",
                    "midi": 74,
                    "time": 38.46155000000015,
                    "velocity": 0.6299212598425197,
                    "duration": 0.12820516666666748
                },
                {
                    "name": "G5",
                    "midi": 79,
                    "time": 38.846165500000154,
                    "velocity": 0.6299212598425197,
                    "duration": 0.12820516666666748
                },
                {
                    "name": "G6",
                    "midi": 91,
                    "time": 39.23078100000016,
                    "velocity": 0.6299212598425197,
                    "duration": 0.12820516666666748
                },
                {
                    "name": "G5",
                    "midi": 79,
                    "time": 39.61539650000016,
                    "velocity": 0.6299212598425197,
                    "duration": 0.12820516666666748
                },
                {
                    "name": "D5",
                    "midi": 74,
                    "time": 40.00001200000016,
                    "velocity": 0.6299212598425197,
                    "duration": 0.12820516666666748
                },
                {
                    "name": "G4",
                    "midi": 67,
                    "time": 40.384627500000164,
                    "velocity": 0.6299212598425197,
                    "duration": 0.12820516666666748
                },
                {
                    "name": "D5",
                    "midi": 74,
                    "time": 40.769243000000166,
                    "velocity": 0.6299212598425197,
                    "duration": 0.12820516666666748
                },
                {
                    "name": "G4",
                    "midi": 67,
                    "time": 41.15385850000017,
                    "velocity": 0.6299212598425197,
                    "duration": 0.12820516666666748
                },
                {
                    "name": "D5",
                    "midi": 74,
                    "time": 41.53847400000017,
                    "velocity": 0.6299212598425197,
                    "duration": 0.12820516666666748
                },
                {
                    "name": "G4",
                    "midi": 67,
                    "time": 41.923089500000174,
                    "velocity": 0.6299212598425197,
                    "duration": 0.12820516666666748
                },
                {
                    "name": "D5",
                    "midi": 74,
                    "time": 42.307705000000176,
                    "velocity": 0.6299212598425197,
                    "duration": 0.12820516666666748
                },
                {
                    "name": "G4",
                    "midi": 67,
                    "time": 42.69232050000018,
                    "velocity": 0.6299212598425197,
                    "duration": 0.12820516666666748
                },
                {
                    "name": "D5",
                    "midi": 74,
                    "time": 43.07693600000018,
                    "velocity": 0.6299212598425197,
                    "duration": 0.12820516666666748
                },
                {
                    "name": "D#4",
                    "midi": 63,
                    "time": 43.46155150000018,
                    "velocity": 0.6299212598425197,
                    "duration": 0.12820516666666748
                },
                {
                    "name": "F4",
                    "midi": 65,
                    "time": 43.46155150000018,
                    "velocity": 0.6299212598425197,
                    "duration": 0.12820516666666748
                },
                {
                    "name": "D5",
                    "midi": 74,
                    "time": 43.846167000000186,
                    "velocity": 0.6299212598425197,
                    "duration": 0.12820516666666748
                },
                {
                    "name": "D#4",
                    "midi": 63,
                    "time": 44.23078250000019,
                    "velocity": 0.6299212598425197,
                    "duration": 0.12820516666666748
                },
                {
                    "name": "F4",
                    "midi": 65,
                    "time": 44.23078250000019,
                    "velocity": 0.6299212598425197,
                    "duration": 0.12820516666666748
                },
                {
                    "name": "D5",
                    "midi": 74,
                    "time": 44.61539800000019,
                    "velocity": 0.6299212598425197,
                    "duration": 0.12820516666666748
                },
                {
                    "name": "D#4",
                    "midi": 63,
                    "time": 45.00001350000019,
                    "velocity": 0.6299212598425197,
                    "duration": 0.12820516666666748
                },
                {
                    "name": "F4",
                    "midi": 65,
                    "time": 45.00001350000019,
                    "velocity": 0.6299212598425197,
                    "duration": 0.12820516666666748
                },
                {
                    "name": "C5",
                    "midi": 72,
                    "time": 45.384629000000196,
                    "velocity": 0.6299212598425197,
                    "duration": 0.12820516666666748
                },
                {
                    "name": "D#4",
                    "midi": 63,
                    "time": 45.7692445000002,
                    "velocity": 0.6299212598425197,
                    "duration": 0.12820516666666748
                },
                {
                    "name": "F4",
                    "midi": 65,
                    "time": 45.7692445000002,
                    "velocity": 0.6299212598425197,
                    "duration": 0.12820516666666748
                },
                {
                    "name": "A#4",
                    "midi": 70,
                    "time": 46.1538600000002,
                    "velocity": 0.6299212598425197,
                    "duration": 0.12820516666666748
                },
                {
                    "name": "D#4",
                    "midi": 63,
                    "time": 46.5384755000002,
                    "velocity": 0.6299212598425197,
                    "duration": 0.12820516666666748
                },
                {
                    "name": "F4",
                    "midi": 65,
                    "time": 46.5384755000002,
                    "velocity": 0.6299212598425197,
                    "duration": 0.12820516666666748
                },
                {
                    "name": "A4",
                    "midi": 69,
                    "time": 46.923091000000205,
                    "velocity": 0.6299212598425197,
                    "duration": 0.12820516666666748
                },
                {
                    "name": "D#4",
                    "midi": 63,
                    "time": 47.30770650000021,
                    "velocity": 0.6299212598425197,
                    "duration": 0.12820516666666748
                },
                {
                    "name": "F4",
                    "midi": 65,
                    "time": 47.30770650000021,
                    "velocity": 0.6299212598425197,
                    "duration": 0.12820516666666748
                },
                {
                    "name": "C5",
                    "midi": 72,
                    "time": 47.69232200000021,
                    "velocity": 0.6299212598425197,
                    "duration": 0.12820516666666748
                },
                {
                    "name": "D4",
                    "midi": 62,
                    "time": 48.07693750000021,
                    "velocity": 0.6299212598425197,
                    "duration": 0.12820516666666748
                },
                {
                    "name": "F4",
                    "midi": 65,
                    "time": 48.07693750000021,
                    "velocity": 0.6299212598425197,
                    "duration": 0.12820516666666748
                },
                {
                    "name": "A#4",
                    "midi": 70,
                    "time": 48.461553000000215,
                    "velocity": 0.6299212598425197,
                    "duration": 0.12820516666666748
                },
                {
                    "name": "D4",
                    "midi": 62,
                    "time": 48.84616850000022,
                    "velocity": 0.6299212598425197,
                    "duration": 0.12820516666666748
                },
                {
                    "name": "F4",
                    "midi": 65,
                    "time": 48.84616850000022,
                    "velocity": 0.6299212598425197,
                    "duration": 0.12820516666666748
                },
                {
                    "name": "D#4",
                    "midi": 63,
                    "time": 49.23078400000022,
                    "velocity": 0.6299212598425197,
                    "duration": 0.12820516666666748
                },
                {
                    "name": "D5",
                    "midi": 74,
                    "time": 49.23078400000022,
                    "velocity": 0.6299212598425197,
                    "duration": 0.12820516666666748
                },
                {
                    "name": "F3",
                    "midi": 53,
                    "time": 49.61539950000022,
                    "velocity": 0.6299212598425197,
                    "duration": 0.12820516666666748
                },
                {
                    "name": "D#4",
                    "midi": 63,
                    "time": 50.000015000000225,
                    "velocity": 0.6299212598425197,
                    "duration": 0.12820516666666748
                },
                {
                    "name": "D5",
                    "midi": 74,
                    "time": 50.000015000000225,
                    "velocity": 0.6299212598425197,
                    "duration": 0.12820516666666748
                },
                {
                    "name": "F3",
                    "midi": 53,
                    "time": 50.38463050000023,
                    "velocity": 0.6299212598425197,
                    "duration": 0.12820516666666748
                },
                {
                    "name": "D#4",
                    "midi": 63,
                    "time": 50.76924600000023,
                    "velocity": 0.6299212598425197,
                    "duration": 0.12820516666666748
                },
                {
                    "name": "D5",
                    "midi": 74,
                    "time": 50.76924600000023,
                    "velocity": 0.6299212598425197,
                    "duration": 0.12820516666666748
                },
                {
                    "name": "F3",
                    "midi": 53,
                    "time": 51.15386150000023,
                    "velocity": 0.6299212598425197,
                    "duration": 0.12820516666666748
                },
                {
                    "name": "D#4",
                    "midi": 63,
                    "time": 51.538477000000235,
                    "velocity": 0.6299212598425197,
                    "duration": 0.12820516666666748
                },
                {
                    "name": "C5",
                    "midi": 72,
                    "time": 51.538477000000235,
                    "velocity": 0.6299212598425197,
                    "duration": 0.12820516666666748
                },
                {
                    "name": "F3",
                    "midi": 53,
                    "time": 51.92309250000024,
                    "velocity": 0.6299212598425197,
                    "duration": 0.12820516666666748
                },
                {
                    "name": "D#4",
                    "midi": 63,
                    "time": 52.30770800000024,
                    "velocity": 0.6299212598425197,
                    "duration": 0.12820516666666748
                },
                {
                    "name": "A#4",
                    "midi": 70,
                    "time": 52.30770800000024,
                    "velocity": 0.6299212598425197,
                    "duration": 0.12820516666666748
                },
                {
                    "name": "F3",
                    "midi": 53,
                    "time": 52.69232350000024,
                    "velocity": 0.6299212598425197,
                    "duration": 0.12820516666666748
                },
                {
                    "name": "D#4",
                    "midi": 63,
                    "time": 53.076939000000245,
                    "velocity": 0.6299212598425197,
                    "duration": 0.12820516666666748
                },
                {
                    "name": "A4",
                    "midi": 69,
                    "time": 53.076939000000245,
                    "velocity": 0.6299212598425197,
                    "duration": 0.12820516666666748
                },
                {
                    "name": "F3",
                    "midi": 53,
                    "time": 53.46155450000025,
                    "velocity": 0.6299212598425197,
                    "duration": 0.12820516666666748
                },
                {
                    "name": "D4",
                    "midi": 62,
                    "time": 53.84617000000025,
                    "velocity": 0.6299212598425197,
                    "duration": 0.12820516666666748
                },
                {
                    "name": "C5",
                    "midi": 72,
                    "time": 53.84617000000025,
                    "velocity": 0.6299212598425197,
                    "duration": 0.12820516666666748
                },
                {
                    "name": "F3",
                    "midi": 53,
                    "time": 54.23078550000025,
                    "velocity": 0.6299212598425197,
                    "duration": 0.12820516666666748
                },
                {
                    "name": "D4",
                    "midi": 62,
                    "time": 54.615401000000254,
                    "velocity": 0.6299212598425197,
                    "duration": 0.12820516666666748
                },
                {
                    "name": "A#4",
                    "midi": 70,
                    "time": 54.615401000000254,
                    "velocity": 0.6299212598425197,
                    "duration": 0.12820516666666748
                },
                {
                    "name": "F3",
                    "midi": 53,
                    "time": 55.00001650000026,
                    "velocity": 0.6299212598425197,
                    "duration": 0.12820516666666748
                },
                {
                    "name": "D4",
                    "midi": 62,
                    "time": 55.38463200000026,
                    "velocity": 0.6299212598425197,
                    "duration": 0.12820516666666748
                },
                {
                    "name": "G#3",
                    "midi": 56,
                    "time": 55.38463200000026,
                    "velocity": 0.6299212598425197,
                    "duration": 0.12820516666666748
                },
                {
                    "name": "F3",
                    "midi": 53,
                    "time": 55.38463200000026,
                    "velocity": 0.6299212598425197,
                    "duration": 0.12820516666666748
                },
                {
                    "name": "A#2",
                    "midi": 46,
                    "time": 55.76924750000026,
                    "velocity": 0.6299212598425197,
                    "duration": 0.12820516666666748
                },
                {
                    "name": "G4",
                    "midi": 67,
                    "time": 56.153863000000264,
                    "velocity": 0.6299212598425197,
                    "duration": 0.12820516666666748
                },
                {
                    "name": "D#4",
                    "midi": 63,
                    "time": 56.153863000000264,
                    "velocity": 0.6299212598425197,
                    "duration": 0.12820516666666748
                },
                {
                    "name": "G3",
                    "midi": 55,
                    "time": 56.153863000000264,
                    "velocity": 0.6299212598425197,
                    "duration": 0.12820516666666748
                },
                {
                    "name": "A#2",
                    "midi": 46,
                    "time": 56.53847850000027,
                    "velocity": 0.6299212598425197,
                    "duration": 0.12820516666666748
                },
                {
                    "name": "D4",
                    "midi": 62,
                    "time": 56.92309400000027,
                    "velocity": 0.6299212598425197,
                    "duration": 0.12820516666666748
                },
                {
                    "name": "G#3",
                    "midi": 56,
                    "time": 56.92309400000027,
                    "velocity": 0.6299212598425197,
                    "duration": 0.12820516666666748
                },
                {
                    "name": "F4",
                    "midi": 65,
                    "time": 56.92309400000027,
                    "velocity": 0.6299212598425197,
                    "duration": 0.12820516666666748
                },
                {
                    "name": "A#2",
                    "midi": 46,
                    "time": 57.30770950000027,
                    "velocity": 0.6299212598425197,
                    "duration": 0.12820516666666748
                },
                {
                    "name": "D#4",
                    "midi": 63,
                    "time": 57.692325000000274,
                    "velocity": 0.6299212598425197,
                    "duration": 0.12820516666666748
                },
                {
                    "name": "G4",
                    "midi": 67,
                    "time": 57.692325000000274,
                    "velocity": 0.6299212598425197,
                    "duration": 0.12820516666666748
                },
                {
                    "name": "A#3",
                    "midi": 58,
                    "time": 57.692325000000274,
                    "velocity": 0.6299212598425197,
                    "duration": 0.12820516666666748
                },
                {
                    "name": "A#2",
                    "midi": 46,
                    "time": 58.076940500000276,
                    "velocity": 0.6299212598425197,
                    "duration": 0.12820516666666748
                },
                {
                    "name": "G#4",
                    "midi": 68,
                    "time": 58.46155600000028,
                    "velocity": 0.6299212598425197,
                    "duration": 0.12820516666666748
                },
                {
                    "name": "D#4",
                    "midi": 63,
                    "time": 58.46155600000028,
                    "velocity": 0.6299212598425197,
                    "duration": 0.12820516666666748
                },
                {
                    "name": "C4",
                    "midi": 60,
                    "time": 58.46155600000028,
                    "velocity": 0.6299212598425197,
                    "duration": 0.12820516666666748
                },
                {
                    "name": "A#3",
                    "midi": 58,
                    "time": 58.84617150000028,
                    "velocity": 0.6299212598425197,
                    "duration": 0.12820516666666748
                },
                {
                    "name": "G#4",
                    "midi": 68,
                    "time": 59.230787000000284,
                    "velocity": 0.6299212598425197,
                    "duration": 0.12820516666666748
                },
                {
                    "name": "A#4",
                    "midi": 70,
                    "time": 59.230787000000284,
                    "velocity": 0.6299212598425197,
                    "duration": 0.12820516666666748
                },
                {
                    "name": "D4",
                    "midi": 62,
                    "time": 59.230787000000284,
                    "velocity": 0.6299212598425197,
                    "duration": 0.12820516666666748
                },
                {
                    "name": "A#3",
                    "midi": 58,
                    "time": 59.615402500000286,
                    "velocity": 0.6299212598425197,
                    "duration": 0.12820516666666748
                },
                {
                    "name": "A#4",
                    "midi": 70,
                    "time": 60.00001800000029,
                    "velocity": 0.6299212598425197,
                    "duration": 0.38461550000000244
                },
                {
                    "name": "D#4",
                    "midi": 63,
                    "time": 60.00001800000029,
                    "velocity": 0.6299212598425197,
                    "duration": 0.38461550000000244
                },
                {
                    "name": "A#3",
                    "midi": 58,
                    "time": 60.38463350000029,
                    "velocity": 0.6299212598425197,
                    "duration": 0.38461550000000244
                },
                {
                    "name": "A#3",
                    "midi": 58,
                    "time": 60.76924900000029,
                    "velocity": 0.6299212598425197,
                    "duration": 0.38461550000000244
                },
                {
                    "name": "D#3",
                    "midi": 51,
                    "time": 61.153864500000296,
                    "velocity": 0.6299212598425197,
                    "duration": 0.38461550000000244
                },
                {
                    "name": "C4",
                    "midi": 60,
                    "time": 61.5384800000003,
                    "velocity": 0.6299212598425197,
                    "duration": 0.12820516666666748
                },
                {
                    "name": "D#3",
                    "midi": 51,
                    "time": 61.5384800000003,
                    "velocity": 0.6299212598425197,
                    "duration": 0.12820516666666748
                },
                {
                    "name": "G#3",
                    "midi": 56,
                    "time": 61.5384800000003,
                    "velocity": 0.6299212598425197,
                    "duration": 0.12820516666666748
                },
                {
                    "name": "G#2",
                    "midi": 44,
                    "time": 61.9230955000003,
                    "velocity": 0.6299212598425197,
                    "duration": 0.12820516666666748
                },
                {
                    "name": "C4",
                    "midi": 60,
                    "time": 62.3077110000003,
                    "velocity": 0.6299212598425197,
                    "duration": 0.12820516666666748
                },
                {
                    "name": "D#3",
                    "midi": 51,
                    "time": 62.3077110000003,
                    "velocity": 0.6299212598425197,
                    "duration": 0.12820516666666748
                },
                {
                    "name": "G#3",
                    "midi": 56,
                    "time": 62.3077110000003,
                    "velocity": 0.6299212598425197,
                    "duration": 0.12820516666666748
                },
                {
                    "name": "G#2",
                    "midi": 44,
                    "time": 62.692326500000306,
                    "velocity": 0.6299212598425197,
                    "duration": 0.12820516666666748
                },
                {
                    "name": "D4",
                    "midi": 62,
                    "time": 63.07694200000031,
                    "velocity": 0.6299212598425197,
                    "duration": 0.12820516666666748
                },
                {
                    "name": "F3",
                    "midi": 53,
                    "time": 63.07694200000031,
                    "velocity": 0.6299212598425197,
                    "duration": 0.12820516666666748
                },
                {
                    "name": "A#3",
                    "midi": 58,
                    "time": 63.07694200000031,
                    "velocity": 0.6299212598425197,
                    "duration": 0.12820516666666748
                },
                {
                    "name": "G#2",
                    "midi": 44,
                    "time": 63.46155750000031,
                    "velocity": 0.6299212598425197,
                    "duration": 0.12820516666666748
                },
                {
                    "name": "D#4",
                    "midi": 63,
                    "time": 63.84617300000031,
                    "velocity": 0.6299212598425197,
                    "duration": 0.12820516666666748
                },
                {
                    "name": "G3",
                    "midi": 55,
                    "time": 63.84617300000031,
                    "velocity": 0.6299212598425197,
                    "duration": 0.12820516666666748
                },
                {
                    "name": "C4",
                    "midi": 60,
                    "time": 63.84617300000031,
                    "velocity": 0.6299212598425197,
                    "duration": 0.12820516666666748
                },
                {
                    "name": "G#2",
                    "midi": 44,
                    "time": 64.23078850000032,
                    "velocity": 0.6299212598425197,
                    "duration": 0.12820516666666038
                },
                {
                    "name": "D#4",
                    "midi": 63,
                    "time": 64.61540400000031,
                    "velocity": 0.6299212598425197,
                    "duration": 0.12820516666666038
                },
                {
                    "name": "C4",
                    "midi": 60,
                    "time": 64.61540400000031,
                    "velocity": 0.6299212598425197,
                    "duration": 0.12820516666666038
                },
                {
                    "name": "G#4",
                    "midi": 68,
                    "time": 64.61540400000031,
                    "velocity": 0.6299212598425197,
                    "duration": 0.12820516666666038
                },
                {
                    "name": "F3",
                    "midi": 53,
                    "time": 65.0000195000003,
                    "velocity": 0.6299212598425197,
                    "duration": 0.12820516666666038
                },
                {
                    "name": "C5",
                    "midi": 72,
                    "time": 65.3846350000003,
                    "velocity": 0.6299212598425197,
                    "duration": 0.12820516666666038
                },
                {
                    "name": "D#4",
                    "midi": 63,
                    "time": 65.3846350000003,
                    "velocity": 0.6299212598425197,
                    "duration": 0.12820516666666038
                },
                {
                    "name": "G3",
                    "midi": 55,
                    "time": 65.3846350000003,
                    "velocity": 0.6299212598425197,
                    "duration": 0.12820516666666038
                },
                {
                    "name": "G#4",
                    "midi": 68,
                    "time": 65.3846350000003,
                    "velocity": 0.6299212598425197,
                    "duration": 0.12820516666666038
                },
                {
                    "name": "F3",
                    "midi": 53,
                    "time": 65.7692505000003,
                    "velocity": 0.6299212598425197,
                    "duration": 0.12820516666666038
                },
                {
                    "name": "D4",
                    "midi": 62,
                    "time": 66.15386600000029,
                    "velocity": 0.6299212598425197,
                    "duration": 0.12820516666666038
                },
                {
                    "name": "G3",
                    "midi": 55,
                    "time": 66.53848150000029,
                    "velocity": 0.6299212598425197,
                    "duration": 0.12820516666666038
                },
                {
                    "name": "G4",
                    "midi": 67,
                    "time": 66.92309700000028,
                    "velocity": 0.6299212598425197,
                    "duration": 0.12820516666666038
                },
                {
                    "name": "D5",
                    "midi": 74,
                    "time": 67.30771250000028,
                    "velocity": 0.6299212598425197,
                    "duration": 0.12820516666666038
                },
                {
                    "name": "D6",
                    "midi": 86,
                    "time": 67.69232800000027,
                    "velocity": 0.6299212598425197,
                    "duration": 0.12820516666666038
                },
                {
                    "name": "A#5",
                    "midi": 82,
                    "time": 67.69232800000027,
                    "velocity": 0.6299212598425197,
                    "duration": 0.12820516666666038
                },
                {
                    "name": "G#5",
                    "midi": 80,
                    "time": 67.69232800000027,
                    "velocity": 0.6299212598425197,
                    "duration": 0.12820516666666038
                },
                {
                    "name": "F5",
                    "midi": 77,
                    "time": 67.69232800000027,
                    "velocity": 0.6299212598425197,
                    "duration": 0.12820516666666038
                },
                {
                    "name": "G5",
                    "midi": 79,
                    "time": 68.07694350000027,
                    "velocity": 0.6299212598425197,
                    "duration": 0.12820516666666038
                },
                {
                    "name": "D#6",
                    "midi": 87,
                    "time": 68.46155900000026,
                    "velocity": 0.6299212598425197,
                    "duration": 0.12820516666666038
                },
                {
                    "name": "A#5",
                    "midi": 82,
                    "time": 68.46155900000026,
                    "velocity": 0.6299212598425197,
                    "duration": 0.12820516666666038
                },
                {
                    "name": "D#5",
                    "midi": 75,
                    "time": 68.46155900000026,
                    "velocity": 0.6299212598425197,
                    "duration": 0.12820516666666038
                },
                {
                    "name": "G5",
                    "midi": 79,
                    "time": 68.84617450000026,
                    "velocity": 0.6299212598425197,
                    "duration": 0.12820516666666038
                },
                {
                    "name": "D5",
                    "midi": 74,
                    "time": 69.23079000000025,
                    "velocity": 0.6299212598425197,
                    "duration": 0.12820516666666038
                },
                {
                    "name": "A#5",
                    "midi": 82,
                    "time": 69.23079000000025,
                    "velocity": 0.6299212598425197,
                    "duration": 0.12820516666666038
                },
                {
                    "name": "G#5",
                    "midi": 80,
                    "time": 69.23079000000025,
                    "velocity": 0.6299212598425197,
                    "duration": 0.12820516666666038
                },
                {
                    "name": "F5",
                    "midi": 77,
                    "time": 69.23079000000025,
                    "velocity": 0.6299212598425197,
                    "duration": 0.12820516666666038
                },
                {
                    "name": "G5",
                    "midi": 79,
                    "time": 69.61540550000025,
                    "velocity": 0.6299212598425197,
                    "duration": 0.12820516666666038
                },
                {
                    "name": "C6",
                    "midi": 84,
                    "time": 70.00002100000025,
                    "velocity": 0.6299212598425197,
                    "duration": 0.12820516666666038
                },
                {
                    "name": "C#5",
                    "midi": 73,
                    "time": 70.00002100000025,
                    "velocity": 0.6299212598425197,
                    "duration": 0.12820516666666038
                },
                {
                    "name": "E5",
                    "midi": 76,
                    "time": 70.00002100000025,
                    "velocity": 0.6299212598425197,
                    "duration": 0.12820516666666038
                },
                {
                    "name": "G5",
                    "midi": 79,
                    "time": 70.38463650000024,
                    "velocity": 0.6299212598425197,
                    "duration": 0.12820516666666038
                },
                {
                    "name": "C5",
                    "midi": 72,
                    "time": 70.76925200000024,
                    "velocity": 0.6299212598425197,
                    "duration": 0.12820516666666038
                },
                {
                    "name": "D#5",
                    "midi": 75,
                    "time": 70.76925200000024,
                    "velocity": 0.6299212598425197,
                    "duration": 0.12820516666666038
                },
                {
                    "name": "G#5",
                    "midi": 80,
                    "time": 70.76925200000024,
                    "velocity": 0.6299212598425197,
                    "duration": 0.12820516666666038
                },
                {
                    "name": "F#5",
                    "midi": 78,
                    "time": 70.76925200000024,
                    "velocity": 0.6299212598425197,
                    "duration": 0.12820516666666038
                },
                {
                    "name": "G5",
                    "midi": 79,
                    "time": 71.15386750000023,
                    "velocity": 0.6299212598425197,
                    "duration": 0.12820516666666038
                },
                {
                    "name": "G6",
                    "midi": 91,
                    "time": 71.53848300000023,
                    "velocity": 0.6299212598425197,
                    "duration": 0.12820516666666038
                },
                {
                    "name": "G5",
                    "midi": 79,
                    "time": 71.92309850000022,
                    "velocity": 0.6299212598425197,
                    "duration": 0.12820516666666038
                },
                {
                    "name": "D5",
                    "midi": 74,
                    "time": 72.30771400000022,
                    "velocity": 0.6299212598425197,
                    "duration": 0.12820516666666038
                },
                {
                    "name": "G4",
                    "midi": 67,
                    "time": 72.69232950000021,
                    "velocity": 0.6299212598425197,
                    "duration": 0.12820516666666038
                },
                {
                    "name": "G4",
                    "midi": 67,
                    "time": 73.07694500000021,
                    "velocity": 0.6299212598425197,
                    "duration": 0.12820516666666038
                },
                {
                    "name": "D4",
                    "midi": 62,
                    "time": 73.4615605000002,
                    "velocity": 0.6299212598425197,
                    "duration": 0.12820516666666038
                },
                {
                    "name": "A#3",
                    "midi": 58,
                    "time": 73.8461760000002,
                    "velocity": 0.6299212598425197,
                    "duration": 0.12820516666666038
                },
                {
                    "name": "C4",
                    "midi": 60,
                    "time": 73.8461760000002,
                    "velocity": 0.6299212598425197,
                    "duration": 0.12820516666666038
                },
                {
                    "name": "F3",
                    "midi": 53,
                    "time": 73.8461760000002,
                    "velocity": 0.6299212598425197,
                    "duration": 0.12820516666666038
                },
                {
                    "name": "G#3",
                    "midi": 56,
                    "time": 73.8461760000002,
                    "velocity": 0.6299212598425197,
                    "duration": 0.12820516666666038
                },
                {
                    "name": "G3",
                    "midi": 55,
                    "time": 73.97438116666686,
                    "velocity": 0.6299212598425197,
                    "duration": 0.12820516666666038
                },
                {
                    "name": "G4",
                    "midi": 67,
                    "time": 74.10258633333352,
                    "velocity": 0.6299212598425197,
                    "duration": 0.12820516666666038
                },
                {
                    "name": "D4",
                    "midi": 62,
                    "time": 74.23079150000018,
                    "velocity": 0.6299212598425197,
                    "duration": 0.12820516666666038
                },
                {
                    "name": "G4",
                    "midi": 67,
                    "time": 74.35899666666684,
                    "velocity": 0.6299212598425197,
                    "duration": 0.12820516666666038
                },
                {
                    "name": "G3",
                    "midi": 55,
                    "time": 74.4872018333335,
                    "velocity": 0.6299212598425197,
                    "duration": 0.12820516666666038
                },
                {
                    "name": "D#4",
                    "midi": 63,
                    "time": 74.61540700000016,
                    "velocity": 0.6299212598425197,
                    "duration": 0.12820516666666038
                },
                {
                    "name": "D#3",
                    "midi": 51,
                    "time": 74.61540700000016,
                    "velocity": 0.6299212598425197,
                    "duration": 0.12820516666666038
                },
                {
                    "name": "A#3",
                    "midi": 58,
                    "time": 74.61540700000016,
                    "velocity": 0.6299212598425197,
                    "duration": 0.12820516666666038
                },
                {
                    "name": "G3",
                    "midi": 55,
                    "time": 74.74361216666682,
                    "velocity": 0.6299212598425197,
                    "duration": 0.12820516666666038
                },
                {
                    "name": "G4",
                    "midi": 67,
                    "time": 74.87181733333348,
                    "velocity": 0.6299212598425197,
                    "duration": 0.12820516666666038
                },
                {
                    "name": "C4",
                    "midi": 60,
                    "time": 75.00002250000014,
                    "velocity": 0.6299212598425197,
                    "duration": 0.12820516666666038
                },
                {
                    "name": "G4",
                    "midi": 67,
                    "time": 75.1282276666668,
                    "velocity": 0.6299212598425197,
                    "duration": 0.12820516666666038
                },
                {
                    "name": "G3",
                    "midi": 55,
                    "time": 75.25643283333346,
                    "velocity": 0.6299212598425197,
                    "duration": 0.12820516666666038
                },
                {
                    "name": "G#3",
                    "midi": 56,
                    "time": 75.38463800000012,
                    "velocity": 0.6299212598425197,
                    "duration": 0.12820516666666038
                },
                {
                    "name": "D3",
                    "midi": 50,
                    "time": 75.38463800000012,
                    "velocity": 0.6299212598425197,
                    "duration": 0.12820516666666038
                },
                {
                    "name": "A#3",
                    "midi": 58,
                    "time": 75.38463800000012,
                    "velocity": 0.6299212598425197,
                    "duration": 0.12820516666666038
                },
                {
                    "name": "F3",
                    "midi": 53,
                    "time": 75.38463800000012,
                    "velocity": 0.6299212598425197,
                    "duration": 0.12820516666666038
                },
                {
                    "name": "G3",
                    "midi": 55,
                    "time": 75.51284316666678,
                    "velocity": 0.6299212598425197,
                    "duration": 0.12820516666666038
                },
                {
                    "name": "G4",
                    "midi": 67,
                    "time": 75.64104833333344,
                    "velocity": 0.6299212598425197,
                    "duration": 0.12820516666666038
                },
                {
                    "name": "G3",
                    "midi": 55,
                    "time": 75.7692535000001,
                    "velocity": 0.6299212598425197,
                    "duration": 0.12820516666666038
                },
                {
                    "name": "G4",
                    "midi": 67,
                    "time": 75.89745866666676,
                    "velocity": 0.6299212598425197,
                    "duration": 0.12820516666666038
                },
                {
                    "name": "G3",
                    "midi": 55,
                    "time": 76.02566383333343,
                    "velocity": 0.6299212598425197,
                    "duration": 0.12820516666666038
                },
                {
                    "name": "C4",
                    "midi": 60,
                    "time": 76.15386900000009,
                    "velocity": 0.6299212598425197,
                    "duration": 0.12820516666666038
                },
                {
                    "name": "C#3",
                    "midi": 49,
                    "time": 76.15386900000009,
                    "velocity": 0.6299212598425197,
                    "duration": 0.12820516666666038
                },
                {
                    "name": "E3",
                    "midi": 52,
                    "time": 76.15386900000009,
                    "velocity": 0.6299212598425197,
                    "duration": 0.12820516666666038
                },
                {
                    "name": "G3",
                    "midi": 55,
                    "time": 76.28207416666675,
                    "velocity": 0.6299212598425197,
                    "duration": 0.12820516666666038
                },
                {
                    "name": "G4",
                    "midi": 67,
                    "time": 76.4102793333334,
                    "velocity": 0.6299212598425197,
                    "duration": 0.12820516666666038
                },
                {
                    "name": "G3",
                    "midi": 55,
                    "time": 76.53848450000007,
                    "velocity": 0.6299212598425197,
                    "duration": 0.12820516666666038
                },
                {
                    "name": "G4",
                    "midi": 67,
                    "time": 76.66668966666673,
                    "velocity": 0.6299212598425197,
                    "duration": 0.12820516666666038
                },
                {
                    "name": "G3",
                    "midi": 55,
                    "time": 76.79489483333339,
                    "velocity": 0.6299212598425197,
                    "duration": 0.12820516666666038
                },
                {
                    "name": "D#3",
                    "midi": 51,
                    "time": 76.92310000000005,
                    "velocity": 0.6299212598425197,
                    "duration": 0.12820516666666038
                },
                {
                    "name": "F3",
                    "midi": 53,
                    "time": 76.92310000000005,
                    "velocity": 0.6299212598425197,
                    "duration": 0.12820516666666038
                },
                {
                    "name": "C3",
                    "midi": 48,
                    "time": 76.92310000000005,
                    "velocity": 0.6299212598425197,
                    "duration": 0.12820516666666038
                },
                {
                    "name": "G#3",
                    "midi": 56,
                    "time": 76.92310000000005,
                    "velocity": 0.6299212598425197,
                    "duration": 0.12820516666666038
                },
                {
                    "name": "G3",
                    "midi": 55,
                    "time": 77.05130516666671,
                    "velocity": 0.6299212598425197,
                    "duration": 0.12820516666666038
                },
                {
                    "name": "G4",
                    "midi": 67,
                    "time": 77.17951033333337,
                    "velocity": 0.6299212598425197,
                    "duration": 0.12820516666666038
                },
                {
                    "name": "G3",
                    "midi": 55,
                    "time": 77.30771550000003,
                    "velocity": 0.6299212598425197,
                    "duration": 0.12820516666666038
                },
                {
                    "name": "G4",
                    "midi": 67,
                    "time": 77.43592066666669,
                    "velocity": 0.6299212598425197,
                    "duration": 0.12820516666666038
                },
                {
                    "name": "G3",
                    "midi": 55,
                    "time": 77.56412583333335,
                    "velocity": 0.6299212598425197,
                    "duration": 0.12820516666666038
                },
                {
                    "name": "G4",
                    "midi": 67,
                    "time": 77.69233100000001,
                    "velocity": 0.6299212598425197,
                    "duration": 0.12820516666666038
                },
                {
                    "name": "G3",
                    "midi": 55,
                    "time": 77.82053616666667,
                    "velocity": 0.6299212598425197,
                    "duration": 0.12820516666666038
                },
                {
                    "name": "G4",
                    "midi": 67,
                    "time": 77.94874133333333,
                    "velocity": 0.6299212598425197,
                    "duration": 0.12820516666666038
                },
                {
                    "name": "G3",
                    "midi": 55,
                    "time": 78.07694649999999,
                    "velocity": 0.6299212598425197,
                    "duration": 0.12820516666666038
                },
                {
                    "name": "G4",
                    "midi": 67,
                    "time": 78.20515166666665,
                    "velocity": 0.6299212598425197,
                    "duration": 0.12820516666666038
                },
                {
                    "name": "G3",
                    "midi": 55,
                    "time": 78.33335683333331,
                    "velocity": 0.6299212598425197,
                    "duration": 0.12820516666666038
                },
                {
                    "name": "D3",
                    "midi": 50,
                    "time": 78.46156199999997,
                    "velocity": 0.6299212598425197,
                    "duration": 0.12820516666666038
                },
                {
                    "name": "G2",
                    "midi": 43,
                    "time": 78.46156199999997,
                    "velocity": 0.6299212598425197,
                    "duration": 0.12820516666666038
                },
                {
                    "name": "G3",
                    "midi": 55,
                    "time": 78.58976716666663,
                    "velocity": 0.6299212598425197,
                    "duration": 0.12820516666666038
                },
                {
                    "name": "G4",
                    "midi": 67,
                    "time": 78.7179723333333,
                    "velocity": 0.6299212598425197,
                    "duration": 0.12820516666666038
                },
                {
                    "name": "G3",
                    "midi": 55,
                    "time": 78.84617749999995,
                    "velocity": 0.6299212598425197,
                    "duration": 0.12820516666666038
                },
                {
                    "name": "G4",
                    "midi": 67,
                    "time": 78.97438266666661,
                    "velocity": 0.6299212598425197,
                    "duration": 0.12820516666666038
                },
                {
                    "name": "G3",
                    "midi": 55,
                    "time": 79.10258783333327,
                    "velocity": 0.6299212598425197,
                    "duration": 0.12820516666666038
                },
                {
                    "name": "G3",
                    "midi": 55,
                    "time": 79.23079299999993,
                    "velocity": 0.6299212598425197,
                    "duration": 0.12820516666666038
                },
                {
                    "name": "D4",
                    "midi": 62,
                    "time": 79.23079299999993,
                    "velocity": 0.6299212598425197,
                    "duration": 0.12820516666666038
                },
                {
                    "name": "G4",
                    "midi": 67,
                    "time": 79.61540849999993,
                    "velocity": 0.6299212598425197,
                    "duration": 0.12820516666666038
                },
                {
                    "name": "G4",
                    "midi": 67,
                    "time": 80.00002399999993,
                    "velocity": 0.6299212598425197,
                    "duration": 1.5384620000000098
                },
                {
                    "name": "D5",
                    "midi": 74,
                    "time": 80.00002399999993,
                    "velocity": 0.6299212598425197,
                    "duration": 1.5384620000000098
                },
                {
                    "name": "G5",
                    "midi": 79,
                    "time": 80.76925499999993,
                    "velocity": 0.6299212598425197,
                    "duration": 0.7692310000000049
                }
            ],
            "controlChanges": {},
            "id": 5,
            "name": "Piano (bass)",
            "instrumentNumber": 0,
            "instrument": "acoustic grand piano",
            "instrumentFamily": "piano",
            "channelNumber": 4,
            "isPercussion": false
        }
    ]
}