{
    "header": {
        "PPQ": 1024,
        "timeSignature": [
            2,
            4
        ],
        "bpm": 100,
        "name": "Ravel's 3 Chansons:1. Nicolette"
    },
    "startTime": 0,
    "duration": 74.39999999999979,
    "tracks": [
        {
            "startTime": 0,
            "duration": 0,
            "length": 0,
            "notes": [],
            "controlChanges": {},
            "id": 0,
            "name": "Ravel's 3 Chansons:1. Nicolette"
        },
        {
            "startTime": 0.6,
            "duration": 74.39999999999978,
            "length": 93,
            "notes": [
                {
                    "name": "A4",
                    "midi": 69,
                    "time": 0.6,
                    "velocity": 0.3937007874015748,
                    "duration": 0.16523437499999993
                },
                {
                    "name": "A4",
                    "midi": 69,
                    "time": 0.8999999999999999,
                    "velocity": 0.3228346456692913,
                    "duration": 0.16523437500000004
                },
                {
                    "name": "D4",
                    "midi": 62,
                    "time": 1.2,
                    "velocity": 0.3937007874015748,
                    "duration": 0.16523437500000004
                },
                {
                    "name": "D4",
                    "midi": 62,
                    "time": 1.5,
                    "velocity": 0.3228346456692913,
                    "duration": 0.16523437500000004
                },
                {
                    "name": "B4",
                    "midi": 71,
                    "time": 1.8,
                    "velocity": 0.3937007874015748,
                    "duration": 0.16523437500000004
                },
                {
                    "name": "B4",
                    "midi": 71,
                    "time": 2.1,
                    "velocity": 0.33070866141732286,
                    "duration": 0.16523437499999982
                },
                {
                    "name": "E4",
                    "midi": 64,
                    "time": 2.4,
                    "velocity": 0.4409448818897638,
                    "duration": 0.5097656250000004
                },
                {
                    "name": "A4",
                    "midi": 69,
                    "time": 3,
                    "velocity": 0.4015748031496063,
                    "duration": 0.16523437499999982
                },
                {
                    "name": "A4",
                    "midi": 69,
                    "time": 3.3,
                    "velocity": 0.33070866141732286,
                    "duration": 0.16523437499999982
                },
                {
                    "name": "D4",
                    "midi": 62,
                    "time": 3.5999999999999996,
                    "velocity": 0.3937007874015748,
                    "duration": 0.16523437499999982
                },
                {
                    "name": "D4",
                    "midi": 62,
                    "time": 3.8999999999999995,
                    "velocity": 0.33070866141732286,
                    "duration": 0.16523437499999982
                },
                {
                    "name": "B4",
                    "midi": 71,
                    "time": 4.199999999999999,
                    "velocity": 0.3937007874015748,
                    "duration": 0.16523437499999982
                },
                {
                    "name": "B4",
                    "midi": 71,
                    "time": 4.499999999999999,
                    "velocity": 0.33070866141732286,
                    "duration": 0.16523437499999982
                },
                {
                    "name": "E4",
                    "midi": 64,
                    "time": 4.799999999999999,
                    "velocity": 0.4409448818897638,
                    "duration": 0.5097656250000009
                },
                {
                    "name": "C5",
                    "midi": 72,
                    "time": 5.3999999999999995,
                    "velocity": 0.5433070866141733,
                    "duration": 0.6000000000000005
                },
                {
                    "name": "B4",
                    "midi": 71,
                    "time": 6,
                    "velocity": 0.5511811023622047,
                    "duration": 0.6000000000000005
                },
                {
                    "name": "G4",
                    "midi": 67,
                    "time": 6.6000000000000005,
                    "velocity": 0.5354330708661418,
                    "duration": 0.16523437499999982
                },
                {
                    "name": "B4",
                    "midi": 71,
                    "time": 6.9,
                    "velocity": 0.41732283464566927,
                    "duration": 0.08261718750000036
                },
                {
                    "name": "B4",
                    "midi": 71,
                    "time": 7.050000000000001,
                    "velocity": 0.4251968503937008,
                    "duration": 0.08261718750000036
                },
                {
                    "name": "B4",
                    "midi": 71,
                    "time": 7.200000000000001,
                    "velocity": 0.4881889763779528,
                    "duration": 0.16523437499999982
                },
                {
                    "name": "B4",
                    "midi": 71,
                    "time": 7.500000000000001,
                    "velocity": 0.4409448818897638,
                    "duration": 0.16523437499999982
                },
                {
                    "name": "A4",
                    "midi": 69,
                    "time": 7.800000000000001,
                    "velocity": 0.5354330708661418,
                    "duration": 0.4499999999999993
                },
                {
                    "name": "B4",
                    "midi": 71,
                    "time": 8.25,
                    "velocity": 0.4330708661417323,
                    "duration": 0.08261718750000036
                },
                {
                    "name": "A4",
                    "midi": 69,
                    "time": 8.4,
                    "velocity": 0.48031496062992124,
                    "duration": 0.1652343750000007
                },
                {
                    "name": "G4",
                    "midi": 67,
                    "time": 8.700000000000001,
                    "velocity": 0.4645669291338583,
                    "duration": 0.1652343750000007
                },
                {
                    "name": "E4",
                    "midi": 64,
                    "time": 9.000000000000002,
                    "velocity": 0.4330708661417323,
                    "duration": 0.1652343750000007
                },
                {
                    "name": "D4",
                    "midi": 62,
                    "time": 9.300000000000002,
                    "velocity": 0.3937007874015748,
                    "duration": 0.1652343750000007
                },
                {
                    "name": "E4",
                    "midi": 64,
                    "time": 9.600000000000003,
                    "velocity": 0.3543307086614173,
                    "duration": 1.7097656249999797
                },
                {
                    "name": "E5",
                    "midi": 76,
                    "time": 11.399999999999983,
                    "velocity": 0.49606299212598426,
                    "duration": 0.1652343750000007
                },
                {
                    "name": "E5",
                    "midi": 76,
                    "time": 11.699999999999983,
                    "velocity": 0.3779527559055118,
                    "duration": 0.1652343750000007
                },
                {
                    "name": "D5",
                    "midi": 74,
                    "time": 11.999999999999984,
                    "velocity": 0.4409448818897638,
                    "duration": 0.1652343750000007
                },
                {
                    "name": "E5",
                    "midi": 76,
                    "time": 12.299999999999985,
                    "velocity": 0.4094488188976378,
                    "duration": 0.1652343750000007
                },
                {
                    "name": "C5",
                    "midi": 72,
                    "time": 12.599999999999985,
                    "velocity": 0.44881889763779526,
                    "duration": 0.1652343750000007
                },
                {
                    "name": "A#4",
                    "midi": 70,
                    "time": 12.899999999999986,
                    "velocity": 0.3700787401574803,
                    "duration": 0.1652343750000007
                },
                {
                    "name": "A4",
                    "midi": 69,
                    "time": 13.199999999999987,
                    "velocity": 0.47244094488188976,
                    "duration": 0.1652343750000007
                },
                {
                    "name": "A4",
                    "midi": 69,
                    "time": 13.499999999999988,
                    "velocity": 0.4094488188976378,
                    "duration": 0.1652343750000007
                },
                {
                    "name": "G4",
                    "midi": 67,
                    "time": 13.799999999999988,
                    "velocity": 0.4015748031496063,
                    "duration": 0.1652343750000007
                },
                {
                    "name": "A4",
                    "midi": 69,
                    "time": 14.099999999999989,
                    "velocity": 0.3858267716535433,
                    "duration": 0.1652343750000007
                },
                {
                    "name": "F4",
                    "midi": 65,
                    "time": 14.39999999999999,
                    "velocity": 0.3779527559055118,
                    "duration": 0.1652343750000007
                },
                {
                    "name": "E4",
                    "midi": 64,
                    "time": 14.69999999999999,
                    "velocity": 0.5039370078740157,
                    "duration": 3.900000000000011
                },
                {
                    "name": "E5",
                    "midi": 76,
                    "time": 30.000000000000004,
                    "velocity": 0.7401574803149606,
                    "duration": 0.1652343750000007
                },
                {
                    "name": "E5",
                    "midi": 76,
                    "time": 30.300000000000004,
                    "velocity": 0.6062992125984252,
                    "duration": 0.1652343750000007
                },
                {
                    "name": "D5",
                    "midi": 74,
                    "time": 30.600000000000005,
                    "velocity": 0.6456692913385826,
                    "duration": 0.1652343750000007
                },
                {
                    "name": "E5",
                    "midi": 76,
                    "time": 30.900000000000006,
                    "velocity": 0.6062992125984252,
                    "duration": 0.1652343750000007
                },
                {
                    "name": "C5",
                    "midi": 72,
                    "time": 31.200000000000006,
                    "velocity": 0.6456692913385826,
                    "duration": 0.1652343750000007
                },
                {
                    "name": "A#4",
                    "midi": 70,
                    "time": 31.500000000000007,
                    "velocity": 0.6062992125984252,
                    "duration": 0.1652343750000007
                },
                {
                    "name": "A4",
                    "midi": 69,
                    "time": 31.800000000000008,
                    "velocity": 0.6614173228346457,
                    "duration": 0.1652343750000007
                },
                {
                    "name": "A4",
                    "midi": 69,
                    "time": 32.10000000000001,
                    "velocity": 0.5984251968503937,
                    "duration": 0.16523437499999716
                },
                {
                    "name": "G4",
                    "midi": 67,
                    "time": 32.400000000000006,
                    "velocity": 0.5511811023622047,
                    "duration": 0.16523437499999716
                },
                {
                    "name": "A4",
                    "midi": 69,
                    "time": 32.7,
                    "velocity": 0.5039370078740157,
                    "duration": 0.16523437499999716
                },
                {
                    "name": "F4",
                    "midi": 65,
                    "time": 33,
                    "velocity": 0.4645669291338583,
                    "duration": 0.16523437499999716
                },
                {
                    "name": "E4",
                    "midi": 64,
                    "time": 33.3,
                    "velocity": 0.5590551181102362,
                    "duration": 3.6000000000001293
                },
                {
                    "name": "C5",
                    "midi": 72,
                    "time": 37.800000000000125,
                    "velocity": 0.3700787401574803,
                    "duration": 1.2000000000000028
                },
                {
                    "name": "F4",
                    "midi": 65,
                    "time": 39.00000000000013,
                    "velocity": 0.4251968503937008,
                    "duration": 0.6000000000000014
                },
                {
                    "name": "E4",
                    "midi": 64,
                    "time": 39.60000000000013,
                    "velocity": 0.3937007874015748,
                    "duration": 0.16523437499999716
                },
                {
                    "name": "C5",
                    "midi": 72,
                    "time": 40.200000000000124,
                    "velocity": 0.3779527559055118,
                    "duration": 1.2000000000000028
                },
                {
                    "name": "F4",
                    "midi": 65,
                    "time": 41.40000000000013,
                    "velocity": 0.4094488188976378,
                    "duration": 0.6000000000000014
                },
                {
                    "name": "E4",
                    "midi": 64,
                    "time": 42.00000000000013,
                    "velocity": 0.36220472440944884,
                    "duration": 0.16523437499999716
                },
                {
                    "name": "G5",
                    "midi": 79,
                    "time": 42.60000000000012,
                    "velocity": 0.41732283464566927,
                    "duration": 1.1402343749999986
                },
                {
                    "name": "G5",
                    "midi": 79,
                    "time": 43.80000000000012,
                    "velocity": 0.36220472440944884,
                    "duration": 1.2000000000000028
                },
                {
                    "name": "F5",
                    "midi": 77,
                    "time": 45.00000000000012,
                    "velocity": 0.3700787401574803,
                    "duration": 0.6000000000000014
                },
                {
                    "name": "E5",
                    "midi": 76,
                    "time": 45.60000000000012,
                    "velocity": 0.4251968503937008,
                    "duration": 0.6000000000000014
                },
                {
                    "name": "C5",
                    "midi": 72,
                    "time": 46.200000000000124,
                    "velocity": 0.3858267716535433,
                    "duration": 0.6000000000000014
                },
                {
                    "name": "B4",
                    "midi": 71,
                    "time": 46.800000000000125,
                    "velocity": 0.33858267716535434,
                    "duration": 1.7097656250000028
                },
                {
                    "name": "E5",
                    "midi": 76,
                    "time": 48.60000000000013,
                    "velocity": 0.4566929133858268,
                    "duration": 0.2847656249999986
                },
                {
                    "name": "E5",
                    "midi": 76,
                    "time": 48.90000000000013,
                    "velocity": 0.47244094488188976,
                    "duration": 0.30000000000000426
                },
                {
                    "name": "D5",
                    "midi": 74,
                    "time": 49.20000000000013,
                    "velocity": 0.4881889763779528,
                    "duration": 0.29999999999999716
                },
                {
                    "name": "E5",
                    "midi": 76,
                    "time": 49.50000000000013,
                    "velocity": 0.5039370078740157,
                    "duration": 0.29999999999999716
                },
                {
                    "name": "C5",
                    "midi": 72,
                    "time": 49.800000000000125,
                    "velocity": 0.5196850393700787,
                    "duration": 0.30000000000000426
                },
                {
                    "name": "A4",
                    "midi": 69,
                    "time": 50.10000000000013,
                    "velocity": 0.5354330708661418,
                    "duration": 0.16523437499999716
                },
                {
                    "name": "A4",
                    "midi": 69,
                    "time": 50.40000000000013,
                    "velocity": 0.4094488188976378,
                    "duration": 1.7097656249999957
                },
                {
                    "name": "A4",
                    "midi": 69,
                    "time": 52.200000000000124,
                    "velocity": 0.3937007874015748,
                    "duration": 3
                },
                {
                    "name": "A4",
                    "midi": 69,
                    "time": 55.200000000000124,
                    "velocity": 0.3700787401574803,
                    "duration": 0.5999999999999943
                },
                {
                    "name": "F4",
                    "midi": 65,
                    "time": 57.600000000000115,
                    "velocity": 0.49606299212598426,
                    "duration": 0.6000000000000014
                },
                {
                    "name": "B3",
                    "midi": 59,
                    "time": 58.20000000000012,
                    "velocity": 0.4015748031496063,
                    "duration": 0.29999999999999716
                },
                {
                    "name": "F4",
                    "midi": 65,
                    "time": 60.000000000000114,
                    "velocity": 0.5118110236220472,
                    "duration": 0.6000000000000014
                },
                {
                    "name": "B3",
                    "midi": 59,
                    "time": 60.600000000000115,
                    "velocity": 0.4330708661417323,
                    "duration": 0.29999999999999716
                },
                {
                    "name": "E5",
                    "midi": 76,
                    "time": 67.2000000000001,
                    "velocity": 0.7401574803149606,
                    "duration": 0.16523437499999716
                },
                {
                    "name": "E5",
                    "midi": 76,
                    "time": 67.5000000000001,
                    "velocity": 0.6692913385826772,
                    "duration": 0.16523437499999716
                },
                {
                    "name": "D5",
                    "midi": 74,
                    "time": 67.8000000000001,
                    "velocity": 0.6692913385826772,
                    "duration": 0.16523437499999716
                },
                {
                    "name": "E5",
                    "midi": 76,
                    "time": 68.1000000000001,
                    "velocity": 0.6692913385826772,
                    "duration": 0.16523437499999716
                },
                {
                    "name": "C5",
                    "midi": 72,
                    "time": 68.40000000000009,
                    "velocity": 0.6692913385826772,
                    "duration": 0.16523437499999716
                },
                {
                    "name": "A#4",
                    "midi": 70,
                    "time": 68.70000000000009,
                    "velocity": 0.6692913385826772,
                    "duration": 0.16523437499999716
                },
                {
                    "name": "A4",
                    "midi": 69,
                    "time": 69.00000000000009,
                    "velocity": 0.7244094488188977,
                    "duration": 0.16523437499999716
                },
                {
                    "name": "A4",
                    "midi": 69,
                    "time": 69.30000000000008,
                    "velocity": 0.6692913385826772,
                    "duration": 0.16523437499999716
                },
                {
                    "name": "G4",
                    "midi": 67,
                    "time": 69.60000000000008,
                    "velocity": 0.6141732283464567,
                    "duration": 0.16523437499999716
                },
                {
                    "name": "A4",
                    "midi": 69,
                    "time": 69.90000000000008,
                    "velocity": 0.5590551181102362,
                    "duration": 0.16523437499999716
                },
                {
                    "name": "F4",
                    "midi": 65,
                    "time": 70.20000000000007,
                    "velocity": 0.5039370078740157,
                    "duration": 0.16523437499999716
                },
                {
                    "name": "E4",
                    "midi": 64,
                    "time": 70.50000000000007,
                    "velocity": 0.4566929133858268,
                    "duration": 1.4999999999999858
                },
                {
                    "name": "E4",
                    "midi": 64,
                    "time": 72.00000000000006,
                    "velocity": 0.4566929133858268,
                    "duration": 0.5999999999999943
                },
                {
                    "name": "F#4",
                    "midi": 66,
                    "time": 72.60000000000005,
                    "velocity": 0.4566929133858268,
                    "duration": 0.5999999999998664
                },
                {
                    "name": "G4",
                    "midi": 67,
                    "time": 73.19999999999992,
                    "velocity": 0.4566929133858268,
                    "duration": 0.5701171874998749
                },
                {
                    "name": "E5",
                    "midi": 76,
                    "time": 73.79999999999978,
                    "velocity": 0.4566929133858268,
                    "duration": 0.5999999999999943
                }
            ],
            "controlChanges": {
                "1": [
                    {
                        "number": 1,
                        "time": 0,
                        "value": 0.03937007874015748
                    }
                ],
                "7": [
                    {
                        "number": 7,
                        "time": 0,
                        "value": 1
                    },
                    {
                        "number": 7,
                        "time": 2.4,
                        "value": 1
                    },
                    {
                        "number": 7,
                        "time": 2.4187499999999997,
                        "value": 1
                    },
                    {
                        "number": 7,
                        "time": 2.4556640625,
                        "value": 0.9448818897637795
                    },
                    {
                        "number": 7,
                        "time": 2.492578125,
                        "value": 0.8818897637795275
                    },
                    {
                        "number": 7,
                        "time": 2.5294921875000003,
                        "value": 0.8188976377952756
                    },
                    {
                        "number": 7,
                        "time": 2.5664062500000004,
                        "value": 0.7559055118110236
                    },
                    {
                        "number": 7,
                        "time": 2.98125,
                        "value": 1
                    },
                    {
                        "number": 7,
                        "time": 4.799999999999999,
                        "value": 1
                    },
                    {
                        "number": 7,
                        "time": 4.818749999999999,
                        "value": 1
                    },
                    {
                        "number": 7,
                        "time": 4.855664062499999,
                        "value": 0.937007874015748
                    },
                    {
                        "number": 7,
                        "time": 4.892578124999999,
                        "value": 0.8740157480314961
                    },
                    {
                        "number": 7,
                        "time": 4.929492187499999,
                        "value": 0.8110236220472441
                    },
                    {
                        "number": 7,
                        "time": 4.9664062499999995,
                        "value": 0.7480314960629921
                    },
                    {
                        "number": 7,
                        "time": 5.38125,
                        "value": 1
                    },
                    {
                        "number": 7,
                        "time": 5.3999999999999995,
                        "value": 1
                    },
                    {
                        "number": 7,
                        "time": 5.4369140625,
                        "value": 0.9448818897637795
                    },
                    {
                        "number": 7,
                        "time": 5.473828125,
                        "value": 0.8740157480314961
                    },
                    {
                        "number": 7,
                        "time": 5.5107421875,
                        "value": 0.8110236220472441
                    },
                    {
                        "number": 7,
                        "time": 5.54765625,
                        "value": 0.7401574803149606
                    },
                    {
                        "number": 7,
                        "time": 6,
                        "value": 1
                    },
                    {
                        "number": 7,
                        "time": 6.01875,
                        "value": 1
                    },
                    {
                        "number": 7,
                        "time": 6.0556640625,
                        "value": 0.9291338582677166
                    },
                    {
                        "number": 7,
                        "time": 6.092578125,
                        "value": 0.8582677165354331
                    },
                    {
                        "number": 7,
                        "time": 6.1294921875,
                        "value": 0.7874015748031497
                    },
                    {
                        "number": 7,
                        "time": 6.1664062500000005,
                        "value": 0.7165354330708661
                    },
                    {
                        "number": 7,
                        "time": 6.6000000000000005,
                        "value": 1
                    },
                    {
                        "number": 7,
                        "time": 10.068750000000003,
                        "value": 1
                    },
                    {
                        "number": 7,
                        "time": 10.105664062500002,
                        "value": 0.9921259842519685
                    },
                    {
                        "number": 7,
                        "time": 10.142578125000002,
                        "value": 0.984251968503937
                    },
                    {
                        "number": 7,
                        "time": 10.179492187500001,
                        "value": 0.9763779527559056
                    },
                    {
                        "number": 7,
                        "time": 10.21640625,
                        "value": 0.9606299212598425
                    },
                    {
                        "number": 7,
                        "time": 10.2533203125,
                        "value": 0.952755905511811
                    },
                    {
                        "number": 7,
                        "time": 10.290234374999999,
                        "value": 0.9448818897637795
                    },
                    {
                        "number": 7,
                        "time": 10.327148437499998,
                        "value": 0.937007874015748
                    },
                    {
                        "number": 7,
                        "time": 10.364062499999998,
                        "value": 0.9212598425196851
                    },
                    {
                        "number": 7,
                        "time": 10.400976562499997,
                        "value": 0.9133858267716536
                    },
                    {
                        "number": 7,
                        "time": 10.437890624999996,
                        "value": 0.905511811023622
                    },
                    {
                        "number": 7,
                        "time": 10.474804687499995,
                        "value": 0.8976377952755905
                    },
                    {
                        "number": 7,
                        "time": 10.511718749999995,
                        "value": 0.8818897637795275
                    },
                    {
                        "number": 7,
                        "time": 10.548632812499994,
                        "value": 0.8740157480314961
                    },
                    {
                        "number": 7,
                        "time": 10.585546874999993,
                        "value": 0.8661417322834646
                    },
                    {
                        "number": 7,
                        "time": 10.622460937499993,
                        "value": 0.8582677165354331
                    },
                    {
                        "number": 7,
                        "time": 10.659374999999992,
                        "value": 0.84251968503937
                    },
                    {
                        "number": 7,
                        "time": 10.696289062499991,
                        "value": 0.8346456692913385
                    },
                    {
                        "number": 7,
                        "time": 10.73320312499999,
                        "value": 0.8267716535433071
                    },
                    {
                        "number": 7,
                        "time": 10.77011718749999,
                        "value": 0.8188976377952756
                    },
                    {
                        "number": 7,
                        "time": 10.79999999999999,
                        "value": 0.8031496062992126
                    },
                    {
                        "number": 7,
                        "time": 10.83691406249999,
                        "value": 0.7716535433070866
                    },
                    {
                        "number": 7,
                        "time": 10.873828124999989,
                        "value": 0.7322834645669292
                    },
                    {
                        "number": 7,
                        "time": 10.910742187499988,
                        "value": 0.7007874015748031
                    },
                    {
                        "number": 7,
                        "time": 10.947656249999987,
                        "value": 0.6614173228346457
                    },
                    {
                        "number": 7,
                        "time": 10.984570312499986,
                        "value": 0.6220472440944882
                    },
                    {
                        "number": 7,
                        "time": 11.021484374999986,
                        "value": 0.5905511811023622
                    },
                    {
                        "number": 7,
                        "time": 11.058398437499985,
                        "value": 0.5511811023622047
                    },
                    {
                        "number": 7,
                        "time": 11.095312499999984,
                        "value": 0.5196850393700787
                    },
                    {
                        "number": 7,
                        "time": 11.132226562499984,
                        "value": 0.48031496062992124
                    },
                    {
                        "number": 7,
                        "time": 11.169140624999983,
                        "value": 0.4409448818897638
                    },
                    {
                        "number": 7,
                        "time": 11.206054687499982,
                        "value": 0.4094488188976378
                    },
                    {
                        "number": 7,
                        "time": 11.399999999999983,
                        "value": 1
                    },
                    {
                        "number": 7,
                        "time": 14.73749999999999,
                        "value": 1
                    },
                    {
                        "number": 7,
                        "time": 14.77441406249999,
                        "value": 0.9448818897637795
                    },
                    {
                        "number": 7,
                        "time": 14.811328124999989,
                        "value": 0.889763779527559
                    },
                    {
                        "number": 7,
                        "time": 14.848242187499988,
                        "value": 0.8346456692913385
                    },
                    {
                        "number": 7,
                        "time": 14.885156249999987,
                        "value": 0.7795275590551181
                    },
                    {
                        "number": 7,
                        "time": 14.906249999999988,
                        "value": 0.7322834645669292
                    },
                    {
                        "number": 7,
                        "time": 16.19999999999999,
                        "value": 0.7244094488188977
                    },
                    {
                        "number": 7,
                        "time": 16.31074218749999,
                        "value": 0.7165354330708661
                    },
                    {
                        "number": 7,
                        "time": 16.42148437499999,
                        "value": 0.7086614173228346
                    },
                    {
                        "number": 7,
                        "time": 16.532226562499993,
                        "value": 0.7007874015748031
                    },
                    {
                        "number": 7,
                        "time": 16.642968749999994,
                        "value": 0.6929133858267716
                    },
                    {
                        "number": 7,
                        "time": 16.753710937499996,
                        "value": 0.6850393700787402
                    },
                    {
                        "number": 7,
                        "time": 16.864453124999997,
                        "value": 0.6771653543307087
                    },
                    {
                        "number": 7,
                        "time": 16.9751953125,
                        "value": 0.6692913385826772
                    },
                    {
                        "number": 7,
                        "time": 17.0859375,
                        "value": 0.6614173228346457
                    },
                    {
                        "number": 7,
                        "time": 17.1966796875,
                        "value": 0.6535433070866141
                    },
                    {
                        "number": 7,
                        "time": 17.307421875000003,
                        "value": 0.6456692913385826
                    },
                    {
                        "number": 7,
                        "time": 17.418164062500004,
                        "value": 0.6377952755905512
                    },
                    {
                        "number": 7,
                        "time": 17.528906250000006,
                        "value": 0.6299212598425197
                    },
                    {
                        "number": 7,
                        "time": 17.639648437500007,
                        "value": 0.6220472440944882
                    },
                    {
                        "number": 7,
                        "time": 17.75039062500001,
                        "value": 0.6141732283464567
                    },
                    {
                        "number": 7,
                        "time": 17.86113281250001,
                        "value": 0.6062992125984252
                    },
                    {
                        "number": 7,
                        "time": 18.24375000000001,
                        "value": 0.5905511811023622
                    },
                    {
                        "number": 7,
                        "time": 18.28066406250001,
                        "value": 0.5590551181102362
                    },
                    {
                        "number": 7,
                        "time": 18.317578125000008,
                        "value": 0.5275590551181102
                    },
                    {
                        "number": 7,
                        "time": 18.354492187500007,
                        "value": 0.49606299212598426
                    },
                    {
                        "number": 7,
                        "time": 18.391406250000006,
                        "value": 0.4645669291338583
                    },
                    {
                        "number": 7,
                        "time": 18.428320312500006,
                        "value": 0.4330708661417323
                    },
                    {
                        "number": 7,
                        "time": 18.465234375000005,
                        "value": 0.4015748031496063
                    },
                    {
                        "number": 7,
                        "time": 18.502148437500004,
                        "value": 0.3700787401574803
                    },
                    {
                        "number": 7,
                        "time": 18.539062500000004,
                        "value": 0.33858267716535434
                    },
                    {
                        "number": 7,
                        "time": 18.575976562500003,
                        "value": 0.30708661417322836
                    },
                    {
                        "number": 7,
                        "time": 19.181250000000002,
                        "value": 1
                    },
                    {
                        "number": 7,
                        "time": 33.3310546875,
                        "value": 1
                    },
                    {
                        "number": 7,
                        "time": 33.365625,
                        "value": 0.9606299212598425
                    },
                    {
                        "number": 7,
                        "time": 33.4001953125,
                        "value": 0.9212598425196851
                    },
                    {
                        "number": 7,
                        "time": 33.434765625000004,
                        "value": 0.8740157480314961
                    },
                    {
                        "number": 7,
                        "time": 33.469335937500006,
                        "value": 0.8346456692913385
                    },
                    {
                        "number": 7,
                        "time": 33.50390625000001,
                        "value": 0.7952755905511811
                    },
                    {
                        "number": 7,
                        "time": 33.537304687500004,
                        "value": 0.7952755905511811
                    },
                    {
                        "number": 7,
                        "time": 33.60644531250001,
                        "value": 0.7874015748031497
                    },
                    {
                        "number": 7,
                        "time": 33.67558593750001,
                        "value": 0.7795275590551181
                    },
                    {
                        "number": 7,
                        "time": 33.71015625000001,
                        "value": 0.7716535433070866
                    },
                    {
                        "number": 7,
                        "time": 33.779296875000014,
                        "value": 0.7637795275590551
                    },
                    {
                        "number": 7,
                        "time": 33.84843750000002,
                        "value": 0.7559055118110236
                    },
                    {
                        "number": 7,
                        "time": 33.88300781250002,
                        "value": 0.7480314960629921
                    },
                    {
                        "number": 7,
                        "time": 33.95214843750002,
                        "value": 0.7401574803149606
                    },
                    {
                        "number": 7,
                        "time": 34.021289062500024,
                        "value": 0.7322834645669292
                    },
                    {
                        "number": 7,
                        "time": 34.055859375000026,
                        "value": 0.7244094488188977
                    },
                    {
                        "number": 7,
                        "time": 34.12500000000003,
                        "value": 0.7165354330708661
                    },
                    {
                        "number": 7,
                        "time": 34.19414062500003,
                        "value": 0.7086614173228346
                    },
                    {
                        "number": 7,
                        "time": 34.22871093750003,
                        "value": 0.7007874015748031
                    },
                    {
                        "number": 7,
                        "time": 34.297851562500036,
                        "value": 0.6929133858267716
                    },
                    {
                        "number": 7,
                        "time": 34.36699218750004,
                        "value": 0.6850393700787402
                    },
                    {
                        "number": 7,
                        "time": 34.40156250000004,
                        "value": 0.6771653543307087
                    },
                    {
                        "number": 7,
                        "time": 34.47070312500004,
                        "value": 0.6692913385826772
                    },
                    {
                        "number": 7,
                        "time": 34.505273437500044,
                        "value": 0.6614173228346457
                    },
                    {
                        "number": 7,
                        "time": 34.57441406250005,
                        "value": 0.6535433070866141
                    },
                    {
                        "number": 7,
                        "time": 34.64355468750005,
                        "value": 0.6456692913385826
                    },
                    {
                        "number": 7,
                        "time": 34.67812500000005,
                        "value": 0.6377952755905512
                    },
                    {
                        "number": 7,
                        "time": 34.747265625000054,
                        "value": 0.6299212598425197
                    },
                    {
                        "number": 7,
                        "time": 34.81640625000006,
                        "value": 0.6220472440944882
                    },
                    {
                        "number": 7,
                        "time": 34.85097656250006,
                        "value": 0.6141732283464567
                    },
                    {
                        "number": 7,
                        "time": 34.92011718750006,
                        "value": 0.6062992125984252
                    },
                    {
                        "number": 7,
                        "time": 34.989257812500064,
                        "value": 0.5984251968503937
                    },
                    {
                        "number": 7,
                        "time": 35.023828125000065,
                        "value": 0.5905511811023622
                    },
                    {
                        "number": 7,
                        "time": 35.09296875000007,
                        "value": 0.5826771653543307
                    },
                    {
                        "number": 7,
                        "time": 35.16210937500007,
                        "value": 0.5748031496062992
                    },
                    {
                        "number": 7,
                        "time": 35.19667968750007,
                        "value": 0.5669291338582677
                    },
                    {
                        "number": 7,
                        "time": 35.265820312500075,
                        "value": 0.5590551181102362
                    },
                    {
                        "number": 7,
                        "time": 35.30039062500008,
                        "value": 0.5511811023622047
                    },
                    {
                        "number": 7,
                        "time": 35.35605468750008,
                        "value": 0.5433070866141733
                    },
                    {
                        "number": 7,
                        "time": 35.42519531250008,
                        "value": 0.5354330708661418
                    },
                    {
                        "number": 7,
                        "time": 35.45976562500008,
                        "value": 0.5275590551181102
                    },
                    {
                        "number": 7,
                        "time": 35.49433593750008,
                        "value": 0.5196850393700787
                    },
                    {
                        "number": 7,
                        "time": 35.528906250000084,
                        "value": 0.5118110236220472
                    },
                    {
                        "number": 7,
                        "time": 35.59804687500009,
                        "value": 0.5039370078740157
                    },
                    {
                        "number": 7,
                        "time": 35.63261718750009,
                        "value": 0.49606299212598426
                    },
                    {
                        "number": 7,
                        "time": 35.66718750000009,
                        "value": 0.4881889763779528
                    },
                    {
                        "number": 7,
                        "time": 35.70175781250009,
                        "value": 0.48031496062992124
                    },
                    {
                        "number": 7,
                        "time": 35.770898437500094,
                        "value": 0.47244094488188976
                    },
                    {
                        "number": 7,
                        "time": 35.805468750000095,
                        "value": 0.4645669291338583
                    },
                    {
                        "number": 7,
                        "time": 35.8400390625001,
                        "value": 0.4566929133858268
                    },
                    {
                        "number": 7,
                        "time": 35.8746093750001,
                        "value": 0.44881889763779526
                    },
                    {
                        "number": 7,
                        "time": 35.9437500000001,
                        "value": 0.4409448818897638
                    },
                    {
                        "number": 7,
                        "time": 35.9783203125001,
                        "value": 0.4330708661417323
                    },
                    {
                        "number": 7,
                        "time": 36.012890625000104,
                        "value": 0.4251968503937008
                    },
                    {
                        "number": 7,
                        "time": 36.047460937500105,
                        "value": 0.41732283464566927
                    },
                    {
                        "number": 7,
                        "time": 36.08203125000011,
                        "value": 0.4094488188976378
                    },
                    {
                        "number": 7,
                        "time": 36.15117187500011,
                        "value": 0.4015748031496063
                    },
                    {
                        "number": 7,
                        "time": 36.18574218750011,
                        "value": 0.3937007874015748
                    },
                    {
                        "number": 7,
                        "time": 36.22031250000011,
                        "value": 0.3858267716535433
                    },
                    {
                        "number": 7,
                        "time": 36.254882812500114,
                        "value": 0.3779527559055118
                    },
                    {
                        "number": 7,
                        "time": 36.32402343750012,
                        "value": 0.3700787401574803
                    },
                    {
                        "number": 7,
                        "time": 36.35859375000012,
                        "value": 0.36220472440944884
                    },
                    {
                        "number": 7,
                        "time": 36.39316406250012,
                        "value": 0.3543307086614173
                    },
                    {
                        "number": 7,
                        "time": 36.42773437500012,
                        "value": 0.3464566929133858
                    },
                    {
                        "number": 7,
                        "time": 36.496875000000124,
                        "value": 0.33858267716535434
                    },
                    {
                        "number": 7,
                        "time": 36.531445312500125,
                        "value": 0.33070866141732286
                    },
                    {
                        "number": 7,
                        "time": 36.56601562500013,
                        "value": 0.3228346456692913
                    },
                    {
                        "number": 7,
                        "time": 37.756054687500125,
                        "value": 1
                    },
                    {
                        "number": 7,
                        "time": 39.00000000000013,
                        "value": 1
                    },
                    {
                        "number": 7,
                        "time": 39.03808593750013,
                        "value": 0.9763779527559056
                    },
                    {
                        "number": 7,
                        "time": 39.07617187500013,
                        "value": 0.952755905511811
                    },
                    {
                        "number": 7,
                        "time": 39.11425781250013,
                        "value": 0.9291338582677166
                    },
                    {
                        "number": 7,
                        "time": 39.15234375000013,
                        "value": 0.905511811023622
                    },
                    {
                        "number": 7,
                        "time": 39.19042968750013,
                        "value": 0.8818897637795275
                    },
                    {
                        "number": 7,
                        "time": 39.22851562500013,
                        "value": 0.8582677165354331
                    },
                    {
                        "number": 7,
                        "time": 39.26660156250013,
                        "value": 0.8346456692913385
                    },
                    {
                        "number": 7,
                        "time": 39.30468750000013,
                        "value": 0.8031496062992126
                    },
                    {
                        "number": 7,
                        "time": 39.34277343750013,
                        "value": 0.7795275590551181
                    },
                    {
                        "number": 7,
                        "time": 39.38085937500013,
                        "value": 0.7559055118110236
                    },
                    {
                        "number": 7,
                        "time": 39.41894531250013,
                        "value": 0.7322834645669292
                    },
                    {
                        "number": 7,
                        "time": 39.45703125000013,
                        "value": 0.7086614173228346
                    },
                    {
                        "number": 7,
                        "time": 39.49511718750013,
                        "value": 0.6850393700787402
                    },
                    {
                        "number": 7,
                        "time": 39.53320312500013,
                        "value": 0.6614173228346457
                    },
                    {
                        "number": 7,
                        "time": 39.57128906250013,
                        "value": 0.6299212598425197
                    },
                    {
                        "number": 7,
                        "time": 39.60937500000013,
                        "value": 0.6062992125984252
                    },
                    {
                        "number": 7,
                        "time": 40.18125000000013,
                        "value": 1
                    },
                    {
                        "number": 7,
                        "time": 41.43750000000013,
                        "value": 0.984251968503937
                    },
                    {
                        "number": 7,
                        "time": 41.47558593750013,
                        "value": 0.9606299212598425
                    },
                    {
                        "number": 7,
                        "time": 41.51367187500013,
                        "value": 0.937007874015748
                    },
                    {
                        "number": 7,
                        "time": 41.55175781250013,
                        "value": 0.9133858267716536
                    },
                    {
                        "number": 7,
                        "time": 41.58984375000013,
                        "value": 0.889763779527559
                    },
                    {
                        "number": 7,
                        "time": 41.62792968750013,
                        "value": 0.8582677165354331
                    },
                    {
                        "number": 7,
                        "time": 41.66601562500013,
                        "value": 0.8346456692913385
                    },
                    {
                        "number": 7,
                        "time": 41.70410156250013,
                        "value": 0.8110236220472441
                    },
                    {
                        "number": 7,
                        "time": 41.74218750000013,
                        "value": 0.7874015748031497
                    },
                    {
                        "number": 7,
                        "time": 41.78027343750013,
                        "value": 0.7637795275590551
                    },
                    {
                        "number": 7,
                        "time": 41.81835937500013,
                        "value": 0.7322834645669292
                    },
                    {
                        "number": 7,
                        "time": 41.85644531250013,
                        "value": 0.7086614173228346
                    },
                    {
                        "number": 7,
                        "time": 41.89453125000013,
                        "value": 0.6850393700787402
                    },
                    {
                        "number": 7,
                        "time": 41.93261718750013,
                        "value": 0.6614173228346457
                    },
                    {
                        "number": 7,
                        "time": 41.97070312500013,
                        "value": 0.6377952755905512
                    },
                    {
                        "number": 7,
                        "time": 42.00878906250013,
                        "value": 0.6062992125984252
                    },
                    {
                        "number": 7,
                        "time": 42.581250000000125,
                        "value": 0.49606299212598426
                    },
                    {
                        "number": 7,
                        "time": 43.21875000000012,
                        "value": 0.5039370078740157
                    },
                    {
                        "number": 7,
                        "time": 43.33300781250012,
                        "value": 0.5118110236220472
                    },
                    {
                        "number": 7,
                        "time": 43.40917968750012,
                        "value": 0.5196850393700787
                    },
                    {
                        "number": 7,
                        "time": 43.48535156250012,
                        "value": 0.5275590551181102
                    },
                    {
                        "number": 7,
                        "time": 43.56152343750012,
                        "value": 0.5354330708661418
                    },
                    {
                        "number": 7,
                        "time": 43.63769531250012,
                        "value": 0.5433070866141733
                    },
                    {
                        "number": 7,
                        "time": 43.71386718750012,
                        "value": 0.5511811023622047
                    },
                    {
                        "number": 7,
                        "time": 43.79003906250012,
                        "value": 0.5590551181102362
                    },
                    {
                        "number": 7,
                        "time": 43.90429687500012,
                        "value": 0.5669291338582677
                    },
                    {
                        "number": 7,
                        "time": 43.98046875000012,
                        "value": 0.5748031496062992
                    },
                    {
                        "number": 7,
                        "time": 44.05664062500012,
                        "value": 0.5826771653543307
                    },
                    {
                        "number": 7,
                        "time": 44.13281250000012,
                        "value": 0.5905511811023622
                    },
                    {
                        "number": 7,
                        "time": 44.20898437500012,
                        "value": 0.5984251968503937
                    },
                    {
                        "number": 7,
                        "time": 44.28515625000012,
                        "value": 0.6062992125984252
                    },
                    {
                        "number": 7,
                        "time": 44.36132812500012,
                        "value": 0.6141732283464567
                    },
                    {
                        "number": 7,
                        "time": 44.43750000000012,
                        "value": 0.6220472440944882
                    },
                    {
                        "number": 7,
                        "time": 44.55175781250012,
                        "value": 0.6299212598425197
                    },
                    {
                        "number": 7,
                        "time": 44.62792968750012,
                        "value": 0.6377952755905512
                    },
                    {
                        "number": 7,
                        "time": 44.70410156250012,
                        "value": 0.6456692913385826
                    },
                    {
                        "number": 7,
                        "time": 44.78027343750012,
                        "value": 0.6535433070866141
                    },
                    {
                        "number": 7,
                        "time": 44.85644531250012,
                        "value": 0.6614173228346457
                    },
                    {
                        "number": 7,
                        "time": 44.93261718750012,
                        "value": 0.6692913385826772
                    },
                    {
                        "number": 7,
                        "time": 45.00000000000012,
                        "value": 0.6771653543307087
                    },
                    {
                        "number": 7,
                        "time": 45.03808593750012,
                        "value": 0.6929133858267716
                    },
                    {
                        "number": 7,
                        "time": 45.07617187500012,
                        "value": 0.7165354330708661
                    },
                    {
                        "number": 7,
                        "time": 45.11425781250012,
                        "value": 0.7322834645669292
                    },
                    {
                        "number": 7,
                        "time": 45.15234375000012,
                        "value": 0.7559055118110236
                    },
                    {
                        "number": 7,
                        "time": 45.19042968750012,
                        "value": 0.7716535433070866
                    },
                    {
                        "number": 7,
                        "time": 45.22851562500012,
                        "value": 0.7952755905511811
                    },
                    {
                        "number": 7,
                        "time": 45.26660156250012,
                        "value": 0.8110236220472441
                    },
                    {
                        "number": 7,
                        "time": 45.30468750000012,
                        "value": 0.8346456692913385
                    },
                    {
                        "number": 7,
                        "time": 45.34277343750012,
                        "value": 0.8503937007874016
                    },
                    {
                        "number": 7,
                        "time": 45.38085937500012,
                        "value": 0.8740157480314961
                    },
                    {
                        "number": 7,
                        "time": 45.41894531250012,
                        "value": 0.889763779527559
                    },
                    {
                        "number": 7,
                        "time": 45.45703125000012,
                        "value": 0.9133858267716536
                    },
                    {
                        "number": 7,
                        "time": 45.49511718750012,
                        "value": 0.9291338582677166
                    },
                    {
                        "number": 7,
                        "time": 45.53320312500012,
                        "value": 0.952755905511811
                    },
                    {
                        "number": 7,
                        "time": 45.57128906250012,
                        "value": 0.968503937007874
                    },
                    {
                        "number": 7,
                        "time": 45.60937500000012,
                        "value": 0.9921259842519685
                    },
                    {
                        "number": 7,
                        "time": 45.825000000000124,
                        "value": 0.984251968503937
                    },
                    {
                        "number": 7,
                        "time": 45.863085937500124,
                        "value": 0.9763779527559056
                    },
                    {
                        "number": 7,
                        "time": 45.901171875000124,
                        "value": 0.9606299212598425
                    },
                    {
                        "number": 7,
                        "time": 45.939257812500124,
                        "value": 0.9448818897637795
                    },
                    {
                        "number": 7,
                        "time": 45.977343750000124,
                        "value": 0.9291338582677166
                    },
                    {
                        "number": 7,
                        "time": 46.015429687500124,
                        "value": 0.9133858267716536
                    },
                    {
                        "number": 7,
                        "time": 46.053515625000124,
                        "value": 0.8976377952755905
                    },
                    {
                        "number": 7,
                        "time": 46.091601562500124,
                        "value": 0.8818897637795275
                    },
                    {
                        "number": 7,
                        "time": 46.129687500000124,
                        "value": 0.8661417322834646
                    },
                    {
                        "number": 7,
                        "time": 46.167773437500124,
                        "value": 0.8503937007874016
                    },
                    {
                        "number": 7,
                        "time": 46.205859375000124,
                        "value": 0.8346456692913385
                    },
                    {
                        "number": 7,
                        "time": 46.243945312500124,
                        "value": 0.8188976377952756
                    },
                    {
                        "number": 7,
                        "time": 46.282031250000124,
                        "value": 0.8031496062992126
                    },
                    {
                        "number": 7,
                        "time": 46.320117187500124,
                        "value": 0.7874015748031497
                    },
                    {
                        "number": 7,
                        "time": 46.358203125000124,
                        "value": 0.7716535433070866
                    },
                    {
                        "number": 7,
                        "time": 46.396289062500124,
                        "value": 0.7559055118110236
                    },
                    {
                        "number": 7,
                        "time": 46.434375000000124,
                        "value": 0.7401574803149606
                    },
                    {
                        "number": 7,
                        "time": 46.472460937500124,
                        "value": 0.7244094488188977
                    },
                    {
                        "number": 7,
                        "time": 46.510546875000124,
                        "value": 0.7086614173228346
                    },
                    {
                        "number": 7,
                        "time": 46.548632812500124,
                        "value": 0.6929133858267716
                    },
                    {
                        "number": 7,
                        "time": 46.586718750000124,
                        "value": 0.6771653543307087
                    },
                    {
                        "number": 7,
                        "time": 46.624804687500124,
                        "value": 0.6692913385826772
                    },
                    {
                        "number": 7,
                        "time": 46.662890625000124,
                        "value": 0.6535433070866141
                    },
                    {
                        "number": 7,
                        "time": 46.700976562500124,
                        "value": 0.6377952755905512
                    },
                    {
                        "number": 7,
                        "time": 46.739062500000124,
                        "value": 0.6220472440944882
                    },
                    {
                        "number": 7,
                        "time": 46.777148437500124,
                        "value": 0.6062992125984252
                    },
                    {
                        "number": 7,
                        "time": 46.93125000000013,
                        "value": 0.5984251968503937
                    },
                    {
                        "number": 7,
                        "time": 47.12167968750013,
                        "value": 0.5905511811023622
                    },
                    {
                        "number": 7,
                        "time": 47.27402343750013,
                        "value": 0.5826771653543307
                    },
                    {
                        "number": 7,
                        "time": 47.42636718750013,
                        "value": 0.5748031496062992
                    },
                    {
                        "number": 7,
                        "time": 47.57871093750013,
                        "value": 0.5669291338582677
                    },
                    {
                        "number": 7,
                        "time": 47.73105468750013,
                        "value": 0.5590551181102362
                    },
                    {
                        "number": 7,
                        "time": 47.88339843750013,
                        "value": 0.5511811023622047
                    },
                    {
                        "number": 7,
                        "time": 48.03574218750013,
                        "value": 0.5433070866141733
                    },
                    {
                        "number": 7,
                        "time": 48.18750000000013,
                        "value": 0.5354330708661418
                    },
                    {
                        "number": 7,
                        "time": 48.22558593750013,
                        "value": 0.49606299212598426
                    },
                    {
                        "number": 7,
                        "time": 48.26367187500013,
                        "value": 0.44881889763779526
                    },
                    {
                        "number": 7,
                        "time": 48.30175781250013,
                        "value": 0.4015748031496063
                    },
                    {
                        "number": 7,
                        "time": 48.33984375000013,
                        "value": 0.3543307086614173
                    },
                    {
                        "number": 7,
                        "time": 48.37792968750013,
                        "value": 0.30708661417322836
                    },
                    {
                        "number": 7,
                        "time": 48.41601562500013,
                        "value": 0.2677165354330709
                    },
                    {
                        "number": 7,
                        "time": 48.56250000000013,
                        "value": 0.5511811023622047
                    },
                    {
                        "number": 7,
                        "time": 48.60058593750013,
                        "value": 0.5590551181102362
                    },
                    {
                        "number": 7,
                        "time": 48.63867187500013,
                        "value": 0.5669291338582677
                    },
                    {
                        "number": 7,
                        "time": 48.67675781250013,
                        "value": 0.5748031496062992
                    },
                    {
                        "number": 7,
                        "time": 48.71484375000013,
                        "value": 0.5826771653543307
                    },
                    {
                        "number": 7,
                        "time": 48.75292968750013,
                        "value": 0.5905511811023622
                    },
                    {
                        "number": 7,
                        "time": 48.79101562500013,
                        "value": 0.5984251968503937
                    },
                    {
                        "number": 7,
                        "time": 48.82910156250013,
                        "value": 0.6062992125984252
                    },
                    {
                        "number": 7,
                        "time": 48.86718750000013,
                        "value": 0.6141732283464567
                    },
                    {
                        "number": 7,
                        "time": 48.90527343750013,
                        "value": 0.6220472440944882
                    },
                    {
                        "number": 7,
                        "time": 48.94335937500013,
                        "value": 0.6299212598425197
                    },
                    {
                        "number": 7,
                        "time": 48.98144531250013,
                        "value": 0.6377952755905512
                    },
                    {
                        "number": 7,
                        "time": 49.01953125000013,
                        "value": 0.6456692913385826
                    },
                    {
                        "number": 7,
                        "time": 49.05761718750013,
                        "value": 0.6535433070866141
                    },
                    {
                        "number": 7,
                        "time": 49.09570312500013,
                        "value": 0.6614173228346457
                    },
                    {
                        "number": 7,
                        "time": 49.13378906250013,
                        "value": 0.6692913385826772
                    },
                    {
                        "number": 7,
                        "time": 49.17187500000013,
                        "value": 0.6771653543307087
                    },
                    {
                        "number": 7,
                        "time": 49.20996093750013,
                        "value": 0.6850393700787402
                    },
                    {
                        "number": 7,
                        "time": 49.24804687500013,
                        "value": 0.6929133858267716
                    },
                    {
                        "number": 7,
                        "time": 49.28613281250013,
                        "value": 0.7007874015748031
                    },
                    {
                        "number": 7,
                        "time": 49.32421875000013,
                        "value": 0.7086614173228346
                    },
                    {
                        "number": 7,
                        "time": 49.36230468750013,
                        "value": 0.7165354330708661
                    },
                    {
                        "number": 7,
                        "time": 49.40039062500013,
                        "value": 0.7244094488188977
                    },
                    {
                        "number": 7,
                        "time": 49.43847656250013,
                        "value": 0.7322834645669292
                    },
                    {
                        "number": 7,
                        "time": 49.47656250000013,
                        "value": 0.7401574803149606
                    },
                    {
                        "number": 7,
                        "time": 49.51464843750013,
                        "value": 0.7480314960629921
                    },
                    {
                        "number": 7,
                        "time": 49.55273437500013,
                        "value": 0.7559055118110236
                    },
                    {
                        "number": 7,
                        "time": 49.59082031250013,
                        "value": 0.7716535433070866
                    },
                    {
                        "number": 7,
                        "time": 49.62890625000013,
                        "value": 0.7795275590551181
                    },
                    {
                        "number": 7,
                        "time": 49.66699218750013,
                        "value": 0.7874015748031497
                    },
                    {
                        "number": 7,
                        "time": 49.70507812500013,
                        "value": 0.7952755905511811
                    },
                    {
                        "number": 7,
                        "time": 49.74316406250013,
                        "value": 0.8031496062992126
                    },
                    {
                        "number": 7,
                        "time": 49.78125000000013,
                        "value": 0.8110236220472441
                    },
                    {
                        "number": 7,
                        "time": 49.81933593750013,
                        "value": 0.8188976377952756
                    },
                    {
                        "number": 7,
                        "time": 49.85742187500013,
                        "value": 0.8267716535433071
                    },
                    {
                        "number": 7,
                        "time": 49.89550781250013,
                        "value": 0.8346456692913385
                    },
                    {
                        "number": 7,
                        "time": 49.93359375000013,
                        "value": 0.84251968503937
                    },
                    {
                        "number": 7,
                        "time": 49.97167968750013,
                        "value": 0.8503937007874016
                    },
                    {
                        "number": 7,
                        "time": 50.00976562500013,
                        "value": 0.8582677165354331
                    },
                    {
                        "number": 7,
                        "time": 50.04785156250013,
                        "value": 0.8661417322834646
                    },
                    {
                        "number": 7,
                        "time": 50.08593750000013,
                        "value": 0.8740157480314961
                    },
                    {
                        "number": 7,
                        "time": 50.12402343750013,
                        "value": 0.8818897637795275
                    },
                    {
                        "number": 7,
                        "time": 50.16210937500013,
                        "value": 0.889763779527559
                    },
                    {
                        "number": 7,
                        "time": 50.20019531250013,
                        "value": 0.8976377952755905
                    },
                    {
                        "number": 7,
                        "time": 50.23828125000013,
                        "value": 0.905511811023622
                    },
                    {
                        "number": 7,
                        "time": 50.27636718750013,
                        "value": 0.9133858267716536
                    },
                    {
                        "number": 7,
                        "time": 50.31445312500013,
                        "value": 0.9212598425196851
                    },
                    {
                        "number": 7,
                        "time": 50.456250000000125,
                        "value": 0.9291338582677166
                    },
                    {
                        "number": 7,
                        "time": 50.532421875000125,
                        "value": 0.9212598425196851
                    },
                    {
                        "number": 7,
                        "time": 50.570507812500125,
                        "value": 0.9133858267716536
                    },
                    {
                        "number": 7,
                        "time": 50.608593750000125,
                        "value": 0.905511811023622
                    },
                    {
                        "number": 7,
                        "time": 50.646679687500125,
                        "value": 0.8976377952755905
                    },
                    {
                        "number": 7,
                        "time": 50.722851562500125,
                        "value": 0.889763779527559
                    },
                    {
                        "number": 7,
                        "time": 50.760937500000125,
                        "value": 0.8818897637795275
                    },
                    {
                        "number": 7,
                        "time": 50.799023437500125,
                        "value": 0.8740157480314961
                    },
                    {
                        "number": 7,
                        "time": 50.837109375000125,
                        "value": 0.8661417322834646
                    },
                    {
                        "number": 7,
                        "time": 50.913281250000125,
                        "value": 0.8582677165354331
                    },
                    {
                        "number": 7,
                        "time": 50.951367187500125,
                        "value": 0.8503937007874016
                    },
                    {
                        "number": 7,
                        "time": 50.989453125000125,
                        "value": 0.84251968503937
                    },
                    {
                        "number": 7,
                        "time": 51.027539062500125,
                        "value": 0.8346456692913385
                    },
                    {
                        "number": 7,
                        "time": 51.065625000000125,
                        "value": 0.8267716535433071
                    },
                    {
                        "number": 7,
                        "time": 51.141796875000125,
                        "value": 0.8188976377952756
                    },
                    {
                        "number": 7,
                        "time": 51.179882812500125,
                        "value": 0.8110236220472441
                    },
                    {
                        "number": 7,
                        "time": 51.217968750000125,
                        "value": 0.8031496062992126
                    },
                    {
                        "number": 7,
                        "time": 51.256054687500125,
                        "value": 0.7952755905511811
                    },
                    {
                        "number": 7,
                        "time": 51.332226562500125,
                        "value": 0.7874015748031497
                    },
                    {
                        "number": 7,
                        "time": 51.370312500000125,
                        "value": 0.7795275590551181
                    },
                    {
                        "number": 7,
                        "time": 51.408398437500125,
                        "value": 0.7716535433070866
                    },
                    {
                        "number": 7,
                        "time": 51.446484375000125,
                        "value": 0.7637795275590551
                    },
                    {
                        "number": 7,
                        "time": 51.522656250000125,
                        "value": 0.7559055118110236
                    },
                    {
                        "number": 7,
                        "time": 51.560742187500125,
                        "value": 0.7480314960629921
                    },
                    {
                        "number": 7,
                        "time": 51.598828125000125,
                        "value": 0.7401574803149606
                    },
                    {
                        "number": 7,
                        "time": 51.636914062500125,
                        "value": 0.7322834645669292
                    },
                    {
                        "number": 7,
                        "time": 51.675000000000125,
                        "value": 0.7244094488188977
                    },
                    {
                        "number": 7,
                        "time": 51.751171875000125,
                        "value": 0.7165354330708661
                    },
                    {
                        "number": 7,
                        "time": 51.768750000000125,
                        "value": 0.7086614173228346
                    },
                    {
                        "number": 7,
                        "time": 51.806835937500125,
                        "value": 0.6929133858267716
                    },
                    {
                        "number": 7,
                        "time": 51.844921875000125,
                        "value": 0.6771653543307087
                    },
                    {
                        "number": 7,
                        "time": 51.883007812500125,
                        "value": 0.6535433070866141
                    },
                    {
                        "number": 7,
                        "time": 51.921093750000125,
                        "value": 0.6377952755905512
                    },
                    {
                        "number": 7,
                        "time": 51.959179687500125,
                        "value": 0.6220472440944882
                    },
                    {
                        "number": 7,
                        "time": 51.997265625000125,
                        "value": 0.5984251968503937
                    },
                    {
                        "number": 7,
                        "time": 52.035351562500125,
                        "value": 0.5826771653543307
                    },
                    {
                        "number": 7,
                        "time": 52.073437500000125,
                        "value": 0.5590551181102362
                    },
                    {
                        "number": 7,
                        "time": 52.111523437500125,
                        "value": 0.5433070866141733
                    },
                    {
                        "number": 7,
                        "time": 52.149609375000125,
                        "value": 0.5275590551181102
                    },
                    {
                        "number": 7,
                        "time": 52.187695312500125,
                        "value": 0.5039370078740157
                    },
                    {
                        "number": 7,
                        "time": 54.018750000000125,
                        "value": 0.5039370078740157
                    },
                    {
                        "number": 7,
                        "time": 54.075000000000124,
                        "value": 0.5039370078740157
                    },
                    {
                        "number": 7,
                        "time": 54.56250000000012,
                        "value": 0.49606299212598426
                    },
                    {
                        "number": 7,
                        "time": 54.63867187500012,
                        "value": 0.4881889763779528
                    },
                    {
                        "number": 7,
                        "time": 54.67675781250012,
                        "value": 0.48031496062992124
                    },
                    {
                        "number": 7,
                        "time": 54.71484375000012,
                        "value": 0.47244094488188976
                    },
                    {
                        "number": 7,
                        "time": 54.79101562500012,
                        "value": 0.4645669291338583
                    },
                    {
                        "number": 7,
                        "time": 54.82910156250012,
                        "value": 0.4566929133858268
                    },
                    {
                        "number": 7,
                        "time": 54.86718750000012,
                        "value": 0.44881889763779526
                    },
                    {
                        "number": 7,
                        "time": 54.94335937500012,
                        "value": 0.4409448818897638
                    },
                    {
                        "number": 7,
                        "time": 54.98144531250012,
                        "value": 0.4330708661417323
                    },
                    {
                        "number": 7,
                        "time": 55.01953125000012,
                        "value": 0.4251968503937008
                    },
                    {
                        "number": 7,
                        "time": 55.09570312500012,
                        "value": 0.41732283464566927
                    },
                    {
                        "number": 7,
                        "time": 55.13378906250012,
                        "value": 0.4094488188976378
                    },
                    {
                        "number": 7,
                        "time": 55.17187500000012,
                        "value": 0.4015748031496063
                    },
                    {
                        "number": 7,
                        "time": 55.21875000000012,
                        "value": 0.3937007874015748
                    },
                    {
                        "number": 7,
                        "time": 55.37109375000012,
                        "value": 0.3858267716535433
                    },
                    {
                        "number": 7,
                        "time": 55.51875000000012,
                        "value": 0.3779527559055118
                    },
                    {
                        "number": 7,
                        "time": 55.55683593750012,
                        "value": 0.3543307086614173
                    },
                    {
                        "number": 7,
                        "time": 55.59492187500012,
                        "value": 0.33070866141732286
                    },
                    {
                        "number": 7,
                        "time": 55.63300781250012,
                        "value": 0.30708661417322836
                    },
                    {
                        "number": 7,
                        "time": 55.67109375000012,
                        "value": 0.28346456692913385
                    },
                    {
                        "number": 7,
                        "time": 55.70917968750012,
                        "value": 0.25984251968503935
                    },
                    {
                        "number": 7,
                        "time": 55.74726562500012,
                        "value": 0.2283464566929134
                    },
                    {
                        "number": 7,
                        "time": 56.36250000000012,
                        "value": 1
                    },
                    {
                        "number": 7,
                        "time": 71.21250000000008,
                        "value": 1
                    },
                    {
                        "number": 7,
                        "time": 71.28984375000007,
                        "value": 0.9921259842519685
                    },
                    {
                        "number": 7,
                        "time": 71.36718750000007,
                        "value": 0.984251968503937
                    },
                    {
                        "number": 7,
                        "time": 71.44453125000007,
                        "value": 0.9763779527559056
                    },
                    {
                        "number": 7,
                        "time": 71.49609375000007,
                        "value": 0.968503937007874
                    },
                    {
                        "number": 7,
                        "time": 71.57343750000007,
                        "value": 0.9606299212598425
                    },
                    {
                        "number": 7,
                        "time": 71.65078125000007,
                        "value": 0.952755905511811
                    },
                    {
                        "number": 7,
                        "time": 71.70234375000007,
                        "value": 0.9448818897637795
                    },
                    {
                        "number": 7,
                        "time": 71.77968750000007,
                        "value": 0.937007874015748
                    },
                    {
                        "number": 7,
                        "time": 71.85703125000006,
                        "value": 0.9291338582677166
                    },
                    {
                        "number": 7,
                        "time": 71.90859375000007,
                        "value": 0.9212598425196851
                    },
                    {
                        "number": 7,
                        "time": 71.98593750000006,
                        "value": 0.9133858267716536
                    },
                    {
                        "number": 7,
                        "time": 72.06328125000006,
                        "value": 0.905511811023622
                    },
                    {
                        "number": 7,
                        "time": 72.11484375000006,
                        "value": 0.8976377952755905
                    },
                    {
                        "number": 7,
                        "time": 72.19218750000006,
                        "value": 0.889763779527559
                    },
                    {
                        "number": 7,
                        "time": 72.26953125000006,
                        "value": 0.8818897637795275
                    },
                    {
                        "number": 7,
                        "time": 72.34687500000005,
                        "value": 0.8740157480314961
                    },
                    {
                        "number": 7,
                        "time": 72.39843750000006,
                        "value": 0.8661417322834646
                    },
                    {
                        "number": 7,
                        "time": 72.47578125000005,
                        "value": 0.8582677165354331
                    },
                    {
                        "number": 7,
                        "time": 72.55312500000005,
                        "value": 0.8503937007874016
                    },
                    {
                        "number": 7,
                        "time": 72.60000000000005,
                        "value": 0.8267716535433071
                    },
                    {
                        "number": 7,
                        "time": 72.62578125000005,
                        "value": 0.8188976377952756
                    },
                    {
                        "number": 7,
                        "time": 72.65156250000004,
                        "value": 0.8110236220472441
                    },
                    {
                        "number": 7,
                        "time": 72.67734375000003,
                        "value": 0.8031496062992126
                    },
                    {
                        "number": 7,
                        "time": 72.70312500000003,
                        "value": 0.7952755905511811
                    },
                    {
                        "number": 7,
                        "time": 72.72890625000002,
                        "value": 0.7874015748031497
                    },
                    {
                        "number": 7,
                        "time": 72.75468750000002,
                        "value": 0.7795275590551181
                    },
                    {
                        "number": 7,
                        "time": 72.78046875000001,
                        "value": 0.7716535433070866
                    },
                    {
                        "number": 7,
                        "time": 72.80625,
                        "value": 0.7637795275590551
                    },
                    {
                        "number": 7,
                        "time": 72.83203125,
                        "value": 0.7559055118110236
                    },
                    {
                        "number": 7,
                        "time": 72.8578125,
                        "value": 0.7480314960629921
                    },
                    {
                        "number": 7,
                        "time": 72.88359374999999,
                        "value": 0.7401574803149606
                    },
                    {
                        "number": 7,
                        "time": 72.90937499999998,
                        "value": 0.7322834645669292
                    },
                    {
                        "number": 7,
                        "time": 72.93515624999998,
                        "value": 0.7244094488188977
                    },
                    {
                        "number": 7,
                        "time": 72.96093749999997,
                        "value": 0.7165354330708661
                    },
                    {
                        "number": 7,
                        "time": 72.98671874999997,
                        "value": 0.7086614173228346
                    },
                    {
                        "number": 7,
                        "time": 73.01249999999996,
                        "value": 0.7007874015748031
                    },
                    {
                        "number": 7,
                        "time": 73.03828124999995,
                        "value": 0.6929133858267716
                    },
                    {
                        "number": 7,
                        "time": 73.06406249999995,
                        "value": 0.6771653543307087
                    },
                    {
                        "number": 7,
                        "time": 73.08984374999994,
                        "value": 0.6692913385826772
                    },
                    {
                        "number": 7,
                        "time": 73.11562499999994,
                        "value": 0.6614173228346457
                    },
                    {
                        "number": 7,
                        "time": 73.14140624999993,
                        "value": 0.6535433070866141
                    },
                    {
                        "number": 7,
                        "time": 73.16718749999993,
                        "value": 0.6456692913385826
                    },
                    {
                        "number": 7,
                        "time": 73.19296874999992,
                        "value": 0.6377952755905512
                    },
                    {
                        "number": 7,
                        "time": 73.21874999999991,
                        "value": 0.6299212598425197
                    },
                    {
                        "number": 7,
                        "time": 73.24453124999991,
                        "value": 0.6220472440944882
                    },
                    {
                        "number": 7,
                        "time": 73.2703124999999,
                        "value": 0.6141732283464567
                    },
                    {
                        "number": 7,
                        "time": 73.2960937499999,
                        "value": 0.6062992125984252
                    },
                    {
                        "number": 7,
                        "time": 73.32187499999989,
                        "value": 0.5984251968503937
                    },
                    {
                        "number": 7,
                        "time": 73.34765624999989,
                        "value": 0.5905511811023622
                    },
                    {
                        "number": 7,
                        "time": 73.37343749999988,
                        "value": 0.5826771653543307
                    },
                    {
                        "number": 7,
                        "time": 73.39921874999987,
                        "value": 0.5748031496062992
                    },
                    {
                        "number": 7,
                        "time": 73.42499999999987,
                        "value": 0.5669291338582677
                    },
                    {
                        "number": 7,
                        "time": 73.45078124999986,
                        "value": 0.5590551181102362
                    },
                    {
                        "number": 7,
                        "time": 73.47656249999986,
                        "value": 0.5511811023622047
                    },
                    {
                        "number": 7,
                        "time": 73.50234374999985,
                        "value": 0.5354330708661418
                    },
                    {
                        "number": 7,
                        "time": 73.52812499999985,
                        "value": 0.5275590551181102
                    },
                    {
                        "number": 7,
                        "time": 73.55390624999984,
                        "value": 0.5196850393700787
                    },
                    {
                        "number": 7,
                        "time": 73.57968749999984,
                        "value": 0.5118110236220472
                    },
                    {
                        "number": 7,
                        "time": 73.60546874999983,
                        "value": 0.5039370078740157
                    },
                    {
                        "number": 7,
                        "time": 73.63124999999982,
                        "value": 0.49606299212598426
                    },
                    {
                        "number": 7,
                        "time": 73.65703124999982,
                        "value": 0.4881889763779528
                    },
                    {
                        "number": 7,
                        "time": 73.68281249999981,
                        "value": 0.48031496062992124
                    },
                    {
                        "number": 7,
                        "time": 73.7085937499998,
                        "value": 0.47244094488188976
                    },
                    {
                        "number": 7,
                        "time": 73.7343749999998,
                        "value": 0.4645669291338583
                    },
                    {
                        "number": 7,
                        "time": 73.7601562499998,
                        "value": 0.4566929133858268
                    },
                    {
                        "number": 7,
                        "time": 73.78593749999979,
                        "value": 0.44881889763779526
                    },
                    {
                        "number": 7,
                        "time": 73.81171874999978,
                        "value": 0.4409448818897638
                    }
                ],
                "10": [
                    {
                        "number": 10,
                        "time": 0,
                        "value": 0.23622047244094488
                    }
                ],
                "91": [
                    {
                        "number": 91,
                        "time": 0,
                        "value": 0.5905511811023622
                    }
                ],
                "93": [
                    {
                        "number": 93,
                        "time": 0,
                        "value": 1
                    }
                ],
                "121": [
                    {
                        "number": 121,
                        "time": 0,
                        "value": 1
                    },
                    {
                        "number": 121,
                        "time": 74.99999999999977,
                        "value": 1
                    }
                ]
            },
            "id": 1,
            "name": "Sopranos",
            "instrumentNumber": 52,
            "instrument": "choir aahs",
            "instrumentFamily": "ensemble",
            "channelNumber": 0,
            "isPercussion": false
        },
        {
            "startTime": 0.6,
            "duration": 74.39999999999979,
            "length": 153,
            "notes": [
                {
                    "name": "E4",
                    "midi": 64,
                    "time": 0.6,
                    "velocity": 0.3937007874015748,
                    "duration": 0.16523437499999993
                },
                {
                    "name": "E4",
                    "midi": 64,
                    "time": 0.8999999999999999,
                    "velocity": 0.3228346456692913,
                    "duration": 0.16523437500000004
                },
                {
                    "name": "A3",
                    "midi": 57,
                    "time": 1.2,
                    "velocity": 0.3937007874015748,
                    "duration": 0.16523437500000004
                },
                {
                    "name": "A3",
                    "midi": 57,
                    "time": 1.5,
                    "velocity": 0.3228346456692913,
                    "duration": 0.16523437500000004
                },
                {
                    "name": "F#4",
                    "midi": 66,
                    "time": 1.8,
                    "velocity": 0.3937007874015748,
                    "duration": 0.16523437500000004
                },
                {
                    "name": "F#4",
                    "midi": 66,
                    "time": 2.1,
                    "velocity": 0.33070866141732286,
                    "duration": 0.16523437499999982
                },
                {
                    "name": "B3",
                    "midi": 59,
                    "time": 2.4,
                    "velocity": 0.4409448818897638,
                    "duration": 0.5097656250000004
                },
                {
                    "name": "E4",
                    "midi": 64,
                    "time": 3,
                    "velocity": 0.4015748031496063,
                    "duration": 0.16523437499999982
                },
                {
                    "name": "E4",
                    "midi": 64,
                    "time": 3.3,
                    "velocity": 0.33070866141732286,
                    "duration": 0.16523437499999982
                },
                {
                    "name": "A3",
                    "midi": 57,
                    "time": 3.5999999999999996,
                    "velocity": 0.3937007874015748,
                    "duration": 0.16523437499999982
                },
                {
                    "name": "A3",
                    "midi": 57,
                    "time": 3.8999999999999995,
                    "velocity": 0.33070866141732286,
                    "duration": 0.16523437499999982
                },
                {
                    "name": "F#4",
                    "midi": 66,
                    "time": 4.199999999999999,
                    "velocity": 0.3937007874015748,
                    "duration": 0.16523437499999982
                },
                {
                    "name": "F#4",
                    "midi": 66,
                    "time": 4.499999999999999,
                    "velocity": 0.33070866141732286,
                    "duration": 0.16523437499999982
                },
                {
                    "name": "B3",
                    "midi": 59,
                    "time": 4.799999999999999,
                    "velocity": 0.4409448818897638,
                    "duration": 0.5097656250000009
                },
                {
                    "name": "G4",
                    "midi": 67,
                    "time": 5.3999999999999995,
                    "velocity": 0.5433070866141733,
                    "duration": 0.6000000000000005
                },
                {
                    "name": "F#4",
                    "midi": 66,
                    "time": 6,
                    "velocity": 0.5511811023622047,
                    "duration": 0.6000000000000005
                },
                {
                    "name": "D4",
                    "midi": 62,
                    "time": 6.6000000000000005,
                    "velocity": 0.5354330708661418,
                    "duration": 0.16523437499999982
                },
                {
                    "name": "F#4",
                    "midi": 66,
                    "time": 6.9,
                    "velocity": 0.41732283464566927,
                    "duration": 0.08261718750000036
                },
                {
                    "name": "F#4",
                    "midi": 66,
                    "time": 7.050000000000001,
                    "velocity": 0.4251968503937008,
                    "duration": 0.08261718750000036
                },
                {
                    "name": "F#4",
                    "midi": 66,
                    "time": 7.200000000000001,
                    "velocity": 0.4881889763779528,
                    "duration": 0.16523437499999982
                },
                {
                    "name": "F#4",
                    "midi": 66,
                    "time": 7.500000000000001,
                    "velocity": 0.4409448818897638,
                    "duration": 0.16523437499999982
                },
                {
                    "name": "E4",
                    "midi": 64,
                    "time": 7.800000000000001,
                    "velocity": 0.5354330708661418,
                    "duration": 0.4499999999999993
                },
                {
                    "name": "F#4",
                    "midi": 66,
                    "time": 8.25,
                    "velocity": 0.4330708661417323,
                    "duration": 0.08261718750000036
                },
                {
                    "name": "E4",
                    "midi": 64,
                    "time": 8.4,
                    "velocity": 0.48031496062992124,
                    "duration": 0.1652343750000007
                },
                {
                    "name": "D4",
                    "midi": 62,
                    "time": 8.700000000000001,
                    "velocity": 0.4645669291338583,
                    "duration": 0.1652343750000007
                },
                {
                    "name": "B3",
                    "midi": 59,
                    "time": 9.000000000000002,
                    "velocity": 0.4330708661417323,
                    "duration": 0.1652343750000007
                },
                {
                    "name": "A#3",
                    "midi": 58,
                    "time": 9.300000000000002,
                    "velocity": 0.3937007874015748,
                    "duration": 0.1652343750000007
                },
                {
                    "name": "B3",
                    "midi": 59,
                    "time": 9.600000000000003,
                    "velocity": 0.3543307086614173,
                    "duration": 1.7097656249999797
                },
                {
                    "name": "G#4",
                    "midi": 68,
                    "time": 11.399999999999983,
                    "velocity": 0.49606299212598426,
                    "duration": 0.1652343750000007
                },
                {
                    "name": "G#4",
                    "midi": 68,
                    "time": 11.699999999999983,
                    "velocity": 0.3779527559055118,
                    "duration": 0.1652343750000007
                },
                {
                    "name": "A4",
                    "midi": 69,
                    "time": 11.999999999999984,
                    "velocity": 0.4409448818897638,
                    "duration": 0.1652343750000007
                },
                {
                    "name": "A4",
                    "midi": 69,
                    "time": 12.299999999999985,
                    "velocity": 0.4094488188976378,
                    "duration": 0.1652343750000007
                },
                {
                    "name": "G4",
                    "midi": 67,
                    "time": 12.599999999999985,
                    "velocity": 0.44881889763779526,
                    "duration": 0.1652343750000007
                },
                {
                    "name": "F4",
                    "midi": 65,
                    "time": 12.899999999999986,
                    "velocity": 0.3700787401574803,
                    "duration": 0.1652343750000007
                },
                {
                    "name": "C#4",
                    "midi": 61,
                    "time": 13.199999999999987,
                    "velocity": 0.47244094488188976,
                    "duration": 0.1652343750000007
                },
                {
                    "name": "C#4",
                    "midi": 61,
                    "time": 13.499999999999988,
                    "velocity": 0.4094488188976378,
                    "duration": 0.1652343750000007
                },
                {
                    "name": "D4",
                    "midi": 62,
                    "time": 13.799999999999988,
                    "velocity": 0.4015748031496063,
                    "duration": 0.1652343750000007
                },
                {
                    "name": "D4",
                    "midi": 62,
                    "time": 14.099999999999989,
                    "velocity": 0.3858267716535433,
                    "duration": 0.1652343750000007
                },
                {
                    "name": "C4",
                    "midi": 60,
                    "time": 14.39999999999999,
                    "velocity": 0.3779527559055118,
                    "duration": 0.1652343750000007
                },
                {
                    "name": "C4",
                    "midi": 60,
                    "time": 14.69999999999999,
                    "velocity": 0.3543307086614173,
                    "duration": 0.1652343750000007
                },
                {
                    "name": "D4",
                    "midi": 62,
                    "time": 14.999999999999991,
                    "velocity": 0.44881889763779526,
                    "duration": 0.3000000000000007
                },
                {
                    "name": "E4",
                    "midi": 64,
                    "time": 15.299999999999992,
                    "velocity": 0.4251968503937008,
                    "duration": 0.3000000000000007
                },
                {
                    "name": "A3",
                    "midi": 57,
                    "time": 15.599999999999993,
                    "velocity": 0.44881889763779526,
                    "duration": 0.5999999999999996
                },
                {
                    "name": "C4",
                    "midi": 60,
                    "time": 16.199999999999992,
                    "velocity": 0.48031496062992124,
                    "duration": 0.6000000000000014
                },
                {
                    "name": "D4",
                    "midi": 62,
                    "time": 16.799999999999994,
                    "velocity": 0.4566929133858268,
                    "duration": 0.3000000000000007
                },
                {
                    "name": "E4",
                    "midi": 64,
                    "time": 17.099999999999994,
                    "velocity": 0.4330708661417323,
                    "duration": 0.3000000000000007
                },
                {
                    "name": "C4",
                    "midi": 60,
                    "time": 17.399999999999995,
                    "velocity": 0.4251968503937008,
                    "duration": 0.3000000000000007
                },
                {
                    "name": "B3",
                    "midi": 59,
                    "time": 17.699999999999996,
                    "velocity": 0.4094488188976378,
                    "duration": 0.3000000000000007
                },
                {
                    "name": "A3",
                    "midi": 57,
                    "time": 17.999999999999996,
                    "velocity": 0.4015748031496063,
                    "duration": 0.5999999999999908
                },
                {
                    "name": "F#4",
                    "midi": 66,
                    "time": 20.399999999999988,
                    "velocity": 0.6220472440944882,
                    "duration": 0.6000000000000227
                },
                {
                    "name": "G#4",
                    "midi": 68,
                    "time": 21.00000000000001,
                    "velocity": 0.7322834645669292,
                    "duration": 0.16523437499999716
                },
                {
                    "name": "F#4",
                    "midi": 66,
                    "time": 22.800000000000008,
                    "velocity": 0.6141732283464567,
                    "duration": 0.6000000000000192
                },
                {
                    "name": "G#4",
                    "midi": 68,
                    "time": 23.400000000000027,
                    "velocity": 0.7401574803149606,
                    "duration": 0.1652343750000007
                },
                {
                    "name": "A4",
                    "midi": 69,
                    "time": 24.00000000000003,
                    "velocity": 0.44881889763779526,
                    "duration": 0.6000000000000014
                },
                {
                    "name": "G4",
                    "midi": 67,
                    "time": 24.60000000000003,
                    "velocity": 0.44881889763779526,
                    "duration": 0.6000000000000014
                },
                {
                    "name": "E4",
                    "midi": 64,
                    "time": 25.20000000000003,
                    "velocity": 0.4409448818897638,
                    "duration": 0.8999999999999986
                },
                {
                    "name": "G4",
                    "midi": 67,
                    "time": 26.10000000000003,
                    "velocity": 0.4330708661417323,
                    "duration": 0.3000000000000007
                },
                {
                    "name": "E4",
                    "midi": 64,
                    "time": 26.40000000000003,
                    "velocity": 0.4251968503937008,
                    "duration": 1.5
                },
                {
                    "name": "D4",
                    "midi": 62,
                    "time": 27.90000000000003,
                    "velocity": 0.4094488188976378,
                    "duration": 0.3000000000000007
                },
                {
                    "name": "B3",
                    "midi": 59,
                    "time": 28.20000000000003,
                    "velocity": 0.4094488188976378,
                    "duration": 0.3000000000000007
                },
                {
                    "name": "G#4",
                    "midi": 68,
                    "time": 30.00000000000005,
                    "velocity": 0.6614173228346457,
                    "duration": 0.1277343749999993
                },
                {
                    "name": "G#4",
                    "midi": 68,
                    "time": 30.15000000000005,
                    "velocity": 0.5275590551181102,
                    "duration": 0.1277343749999993
                },
                {
                    "name": "G#4",
                    "midi": 68,
                    "time": 30.300000000000047,
                    "velocity": 0.5275590551181102,
                    "duration": 0.1277343749999993
                },
                {
                    "name": "G#4",
                    "midi": 68,
                    "time": 30.450000000000045,
                    "velocity": 0.5275590551181102,
                    "duration": 0.1277343749999993
                },
                {
                    "name": "A4",
                    "midi": 69,
                    "time": 30.600000000000044,
                    "velocity": 0.5826771653543307,
                    "duration": 0.1277343749999993
                },
                {
                    "name": "A4",
                    "midi": 69,
                    "time": 30.750000000000043,
                    "velocity": 0.5196850393700787,
                    "duration": 0.1277343749999993
                },
                {
                    "name": "A4",
                    "midi": 69,
                    "time": 30.90000000000004,
                    "velocity": 0.5196850393700787,
                    "duration": 0.1277343749999993
                },
                {
                    "name": "A4",
                    "midi": 69,
                    "time": 31.05000000000004,
                    "velocity": 0.5196850393700787,
                    "duration": 0.1277343749999993
                },
                {
                    "name": "G4",
                    "midi": 67,
                    "time": 31.20000000000004,
                    "velocity": 0.5748031496062992,
                    "duration": 0.1277343749999993
                },
                {
                    "name": "G4",
                    "midi": 67,
                    "time": 31.350000000000037,
                    "velocity": 0.5118110236220472,
                    "duration": 0.1277343749999993
                },
                {
                    "name": "F4",
                    "midi": 65,
                    "time": 31.500000000000036,
                    "velocity": 0.5354330708661418,
                    "duration": 0.1277343749999993
                },
                {
                    "name": "F4",
                    "midi": 65,
                    "time": 31.650000000000034,
                    "velocity": 0.5118110236220472,
                    "duration": 0.1277343749999993
                },
                {
                    "name": "C#4",
                    "midi": 61,
                    "time": 31.800000000000033,
                    "velocity": 0.5905511811023622,
                    "duration": 0.1277343749999993
                },
                {
                    "name": "C#4",
                    "midi": 61,
                    "time": 31.95000000000003,
                    "velocity": 0.5039370078740157,
                    "duration": 0.12773437500000284
                },
                {
                    "name": "C#4",
                    "midi": 61,
                    "time": 32.10000000000004,
                    "velocity": 0.4881889763779528,
                    "duration": 0.12773437500000284
                },
                {
                    "name": "C#4",
                    "midi": 61,
                    "time": 32.25000000000004,
                    "velocity": 0.47244094488188976,
                    "duration": 0.12773437500000284
                },
                {
                    "name": "D4",
                    "midi": 62,
                    "time": 32.40000000000005,
                    "velocity": 0.5354330708661418,
                    "duration": 0.12773437500000284
                },
                {
                    "name": "D4",
                    "midi": 62,
                    "time": 32.550000000000054,
                    "velocity": 0.44881889763779526,
                    "duration": 0.12773437500000284
                },
                {
                    "name": "D4",
                    "midi": 62,
                    "time": 32.70000000000006,
                    "velocity": 0.4330708661417323,
                    "duration": 0.12773437500000284
                },
                {
                    "name": "D4",
                    "midi": 62,
                    "time": 32.850000000000065,
                    "velocity": 0.41732283464566927,
                    "duration": 0.12773437500000284
                },
                {
                    "name": "C4",
                    "midi": 60,
                    "time": 33.00000000000007,
                    "velocity": 0.48031496062992124,
                    "duration": 0.12773437500000284
                },
                {
                    "name": "C4",
                    "midi": 60,
                    "time": 33.15000000000008,
                    "velocity": 0.3937007874015748,
                    "duration": 0.12773437500000284
                },
                {
                    "name": "C4",
                    "midi": 60,
                    "time": 33.30000000000008,
                    "velocity": 0.3779527559055118,
                    "duration": 0.12773437500000284
                },
                {
                    "name": "C4",
                    "midi": 60,
                    "time": 33.45000000000009,
                    "velocity": 0.36220472440944884,
                    "duration": 0.12773437500000284
                },
                {
                    "name": "D4",
                    "midi": 62,
                    "time": 33.600000000000094,
                    "velocity": 0.4330708661417323,
                    "duration": 0.30000000000000426
                },
                {
                    "name": "E4",
                    "midi": 64,
                    "time": 33.9000000000001,
                    "velocity": 0.4409448818897638,
                    "duration": 0.30000000000000426
                },
                {
                    "name": "A3",
                    "midi": 57,
                    "time": 34.2000000000001,
                    "velocity": 0.44881889763779526,
                    "duration": 0.6000000000000156
                },
                {
                    "name": "C4",
                    "midi": 60,
                    "time": 34.80000000000012,
                    "velocity": 0.47244094488188976,
                    "duration": 0.6000000000000156
                },
                {
                    "name": "D4",
                    "midi": 62,
                    "time": 35.400000000000134,
                    "velocity": 0.4881889763779528,
                    "duration": 0.30000000000001137
                },
                {
                    "name": "E4",
                    "midi": 64,
                    "time": 35.700000000000145,
                    "velocity": 0.47244094488188976,
                    "duration": 0.30000000000001137
                },
                {
                    "name": "C4",
                    "midi": 60,
                    "time": 36.000000000000156,
                    "velocity": 0.4330708661417323,
                    "duration": 0.30000000000001137
                },
                {
                    "name": "B3",
                    "midi": 59,
                    "time": 36.30000000000017,
                    "velocity": 0.4015748031496063,
                    "duration": 0.30000000000001137
                },
                {
                    "name": "A3",
                    "midi": 57,
                    "time": 36.60000000000018,
                    "velocity": 0.3700787401574803,
                    "duration": 0.30000000000000426
                },
                {
                    "name": "A4",
                    "midi": 69,
                    "time": 37.80000000000018,
                    "velocity": 0.41732283464566927,
                    "duration": 0.2847656249999986
                },
                {
                    "name": "A4",
                    "midi": 69,
                    "time": 38.10000000000018,
                    "velocity": 0.36220472440944884,
                    "duration": 0.29999999999999716
                },
                {
                    "name": "D4",
                    "midi": 62,
                    "time": 38.400000000000176,
                    "velocity": 0.36220472440944884,
                    "duration": 0.2847656249999986
                },
                {
                    "name": "D4",
                    "midi": 62,
                    "time": 38.70000000000017,
                    "velocity": 0.3700787401574803,
                    "duration": 0.29999999999999716
                },
                {
                    "name": "B4",
                    "midi": 71,
                    "time": 39.00000000000017,
                    "velocity": 0.4251968503937008,
                    "duration": 0.2847656249999986
                },
                {
                    "name": "B4",
                    "midi": 71,
                    "time": 39.30000000000017,
                    "velocity": 0.3779527559055118,
                    "duration": 0.30000000000000426
                },
                {
                    "name": "E4",
                    "midi": 64,
                    "time": 39.60000000000017,
                    "velocity": 0.4409448818897638,
                    "duration": 0.20976562499999574
                },
                {
                    "name": "A4",
                    "midi": 69,
                    "time": 40.200000000000166,
                    "velocity": 0.44881889763779526,
                    "duration": 0.2847656249999986
                },
                {
                    "name": "A4",
                    "midi": 69,
                    "time": 40.50000000000016,
                    "velocity": 0.3937007874015748,
                    "duration": 0.29999999999999716
                },
                {
                    "name": "D4",
                    "midi": 62,
                    "time": 40.80000000000016,
                    "velocity": 0.3937007874015748,
                    "duration": 0.2847656249999986
                },
                {
                    "name": "D4",
                    "midi": 62,
                    "time": 41.10000000000016,
                    "velocity": 0.3937007874015748,
                    "duration": 0.29999999999999716
                },
                {
                    "name": "B4",
                    "midi": 71,
                    "time": 41.400000000000155,
                    "velocity": 0.4409448818897638,
                    "duration": 0.2847656249999986
                },
                {
                    "name": "B4",
                    "midi": 71,
                    "time": 41.70000000000015,
                    "velocity": 0.3779527559055118,
                    "duration": 0.29999999999999716
                },
                {
                    "name": "E4",
                    "midi": 64,
                    "time": 42.00000000000015,
                    "velocity": 0.47244094488188976,
                    "duration": 0.20976562500000284
                },
                {
                    "name": "E5",
                    "midi": 76,
                    "time": 42.60000000000015,
                    "velocity": 0.41732283464566927,
                    "duration": 1.1402343749999986
                },
                {
                    "name": "E5",
                    "midi": 76,
                    "time": 43.800000000000146,
                    "velocity": 0.36220472440944884,
                    "duration": 1.2000000000000028
                },
                {
                    "name": "B4",
                    "midi": 71,
                    "time": 45.00000000000015,
                    "velocity": 0.3700787401574803,
                    "duration": 0.6000000000000014
                },
                {
                    "name": "C5",
                    "midi": 72,
                    "time": 45.60000000000015,
                    "velocity": 0.4251968503937008,
                    "duration": 0.6000000000000014
                },
                {
                    "name": "F#4",
                    "midi": 66,
                    "time": 46.20000000000015,
                    "velocity": 0.3858267716535433,
                    "duration": 0.6000000000000014
                },
                {
                    "name": "G#4",
                    "midi": 68,
                    "time": 46.80000000000015,
                    "velocity": 0.33858267716535434,
                    "duration": 1.7097656250000028
                },
                {
                    "name": "A#4",
                    "midi": 70,
                    "time": 48.60000000000016,
                    "velocity": 0.4015748031496063,
                    "duration": 1.1999999999999957
                },
                {
                    "name": "A4",
                    "midi": 69,
                    "time": 49.80000000000015,
                    "velocity": 0.4330708661417323,
                    "duration": 0.509765625
                },
                {
                    "name": "D4",
                    "midi": 62,
                    "time": 50.400000000000155,
                    "velocity": 0.4094488188976378,
                    "duration": 0.6000000000000014
                },
                {
                    "name": "C#4",
                    "midi": 61,
                    "time": 51.000000000000156,
                    "velocity": 0.4015748031496063,
                    "duration": 1.1999999999999957
                },
                {
                    "name": "D4",
                    "midi": 62,
                    "time": 52.20000000000015,
                    "velocity": 0.4251968503937008,
                    "duration": 0.29999999999999716
                },
                {
                    "name": "E4",
                    "midi": 64,
                    "time": 52.50000000000015,
                    "velocity": 0.4409448818897638,
                    "duration": 0.29999999999999716
                },
                {
                    "name": "A3",
                    "midi": 57,
                    "time": 52.800000000000146,
                    "velocity": 0.44881889763779526,
                    "duration": 0.6000000000000014
                },
                {
                    "name": "C4",
                    "midi": 60,
                    "time": 53.40000000000015,
                    "velocity": 0.48031496062992124,
                    "duration": 0.6000000000000014
                },
                {
                    "name": "D4",
                    "midi": 62,
                    "time": 54.00000000000015,
                    "velocity": 0.47244094488188976,
                    "duration": 0.29999999999999716
                },
                {
                    "name": "E4",
                    "midi": 64,
                    "time": 54.300000000000146,
                    "velocity": 0.4566929133858268,
                    "duration": 0.30000000000000426
                },
                {
                    "name": "C4",
                    "midi": 60,
                    "time": 54.60000000000015,
                    "velocity": 0.4330708661417323,
                    "duration": 0.29999999999999716
                },
                {
                    "name": "B3",
                    "midi": 59,
                    "time": 54.90000000000015,
                    "velocity": 0.4094488188976378,
                    "duration": 0.30000000000000426
                },
                {
                    "name": "A3",
                    "midi": 57,
                    "time": 55.20000000000015,
                    "velocity": 0.3858267716535433,
                    "duration": 0.5999999999999943
                },
                {
                    "name": "D4",
                    "midi": 62,
                    "time": 57.60000000000015,
                    "velocity": 0.49606299212598426,
                    "duration": 0.6000000000000014
                },
                {
                    "name": "G#3",
                    "midi": 56,
                    "time": 58.20000000000015,
                    "velocity": 0.4015748031496063,
                    "duration": 0.29999999999999716
                },
                {
                    "name": "D4",
                    "midi": 62,
                    "time": 60.00000000000015,
                    "velocity": 0.5118110236220472,
                    "duration": 0.6000000000000014
                },
                {
                    "name": "G#3",
                    "midi": 56,
                    "time": 60.60000000000015,
                    "velocity": 0.4330708661417323,
                    "duration": 0.29999999999999716
                },
                {
                    "name": "G4",
                    "midi": 67,
                    "time": 61.200000000000145,
                    "velocity": 0.48031496062992124,
                    "duration": 0.6000000000000085
                },
                {
                    "name": "F#4",
                    "midi": 66,
                    "time": 61.80000000000015,
                    "velocity": 0.5354330708661418,
                    "duration": 0.6000000000000014
                },
                {
                    "name": "F4",
                    "midi": 65,
                    "time": 62.400000000000155,
                    "velocity": 0.5826771653543307,
                    "duration": 0.9000000000000057
                },
                {
                    "name": "E4",
                    "midi": 64,
                    "time": 63.30000000000016,
                    "velocity": 0.6614173228346457,
                    "duration": 1.20000000000001
                },
                {
                    "name": "D#4",
                    "midi": 63,
                    "time": 64.50000000000017,
                    "velocity": 0.6535433070866141,
                    "duration": 0.5999999999999517
                },
                {
                    "name": "D4",
                    "midi": 62,
                    "time": 65.10000000000012,
                    "velocity": 0.6456692913385826,
                    "duration": 0.29999999999998295
                },
                {
                    "name": "B3",
                    "midi": 59,
                    "time": 65.4000000000001,
                    "velocity": 0.5984251968503937,
                    "duration": 1.7097656250000028
                },
                {
                    "name": "G#4",
                    "midi": 68,
                    "time": 67.20000000000012,
                    "velocity": 0.7401574803149606,
                    "duration": 0.16523437499999716
                },
                {
                    "name": "G#4",
                    "midi": 68,
                    "time": 67.50000000000011,
                    "velocity": 0.6692913385826772,
                    "duration": 0.16523437499999716
                },
                {
                    "name": "A4",
                    "midi": 69,
                    "time": 67.80000000000011,
                    "velocity": 0.6692913385826772,
                    "duration": 0.16523437499999716
                },
                {
                    "name": "A4",
                    "midi": 69,
                    "time": 68.10000000000011,
                    "velocity": 0.6692913385826772,
                    "duration": 0.16523437499999716
                },
                {
                    "name": "G4",
                    "midi": 67,
                    "time": 68.4000000000001,
                    "velocity": 0.6692913385826772,
                    "duration": 0.16523437499999716
                },
                {
                    "name": "F4",
                    "midi": 65,
                    "time": 68.7000000000001,
                    "velocity": 0.6692913385826772,
                    "duration": 0.16523437499999716
                },
                {
                    "name": "C#4",
                    "midi": 61,
                    "time": 69.0000000000001,
                    "velocity": 0.7244094488188977,
                    "duration": 0.16523437499999716
                },
                {
                    "name": "C#4",
                    "midi": 61,
                    "time": 69.3000000000001,
                    "velocity": 0.6692913385826772,
                    "duration": 0.16523437499999716
                },
                {
                    "name": "D4",
                    "midi": 62,
                    "time": 69.6000000000001,
                    "velocity": 0.6141732283464567,
                    "duration": 0.16523437499999716
                },
                {
                    "name": "D4",
                    "midi": 62,
                    "time": 69.90000000000009,
                    "velocity": 0.5590551181102362,
                    "duration": 0.16523437499999716
                },
                {
                    "name": "C4",
                    "midi": 60,
                    "time": 70.20000000000009,
                    "velocity": 0.5039370078740157,
                    "duration": 0.16523437499999716
                },
                {
                    "name": "C4",
                    "midi": 60,
                    "time": 70.50000000000009,
                    "velocity": 0.4566929133858268,
                    "duration": 1.4999999999999858
                },
                {
                    "name": "C4",
                    "midi": 60,
                    "time": 72.00000000000007,
                    "velocity": 0.4566929133858268,
                    "duration": 0.5999999999999943
                },
                {
                    "name": "D4",
                    "midi": 62,
                    "time": 72.60000000000007,
                    "velocity": 0.4566929133858268,
                    "duration": 0.5999999999998664
                },
                {
                    "name": "E4",
                    "midi": 64,
                    "time": 73.19999999999993,
                    "velocity": 0.4566929133858268,
                    "duration": 0.5701171874998749
                },
                {
                    "name": "C#5",
                    "midi": 73,
                    "time": 73.7999999999998,
                    "velocity": 0.4566929133858268,
                    "duration": 0.5999999999999943
                }
            ],
            "controlChanges": {
                "1": [
                    {
                        "number": 1,
                        "time": 0,
                        "value": 0.03937007874015748
                    }
                ],
                "7": [
                    {
                        "number": 7,
                        "time": 0,
                        "value": 1
                    },
                    {
                        "number": 7,
                        "time": 2.4,
                        "value": 1
                    },
                    {
                        "number": 7,
                        "time": 2.4187499999999997,
                        "value": 1
                    },
                    {
                        "number": 7,
                        "time": 2.4556640625,
                        "value": 0.9448818897637795
                    },
                    {
                        "number": 7,
                        "time": 2.492578125,
                        "value": 0.8818897637795275
                    },
                    {
                        "number": 7,
                        "time": 2.5294921875000003,
                        "value": 0.8188976377952756
                    },
                    {
                        "number": 7,
                        "time": 2.5664062500000004,
                        "value": 0.7559055118110236
                    },
                    {
                        "number": 7,
                        "time": 2.98125,
                        "value": 1
                    },
                    {
                        "number": 7,
                        "time": 4.799999999999999,
                        "value": 1
                    },
                    {
                        "number": 7,
                        "time": 4.818749999999999,
                        "value": 1
                    },
                    {
                        "number": 7,
                        "time": 4.855664062499999,
                        "value": 0.937007874015748
                    },
                    {
                        "number": 7,
                        "time": 4.892578124999999,
                        "value": 0.8740157480314961
                    },
                    {
                        "number": 7,
                        "time": 4.929492187499999,
                        "value": 0.8110236220472441
                    },
                    {
                        "number": 7,
                        "time": 4.9664062499999995,
                        "value": 0.7480314960629921
                    },
                    {
                        "number": 7,
                        "time": 5.38125,
                        "value": 1
                    },
                    {
                        "number": 7,
                        "time": 5.3999999999999995,
                        "value": 1
                    },
                    {
                        "number": 7,
                        "time": 5.4369140625,
                        "value": 0.9448818897637795
                    },
                    {
                        "number": 7,
                        "time": 5.473828125,
                        "value": 0.8740157480314961
                    },
                    {
                        "number": 7,
                        "time": 5.5107421875,
                        "value": 0.8110236220472441
                    },
                    {
                        "number": 7,
                        "time": 5.54765625,
                        "value": 0.7401574803149606
                    },
                    {
                        "number": 7,
                        "time": 6,
                        "value": 1
                    },
                    {
                        "number": 7,
                        "time": 6.01875,
                        "value": 1
                    },
                    {
                        "number": 7,
                        "time": 6.0556640625,
                        "value": 0.9291338582677166
                    },
                    {
                        "number": 7,
                        "time": 6.092578125,
                        "value": 0.8582677165354331
                    },
                    {
                        "number": 7,
                        "time": 6.1294921875,
                        "value": 0.7874015748031497
                    },
                    {
                        "number": 7,
                        "time": 6.1664062500000005,
                        "value": 0.7165354330708661
                    },
                    {
                        "number": 7,
                        "time": 6.6000000000000005,
                        "value": 1
                    },
                    {
                        "number": 7,
                        "time": 10.068750000000003,
                        "value": 1
                    },
                    {
                        "number": 7,
                        "time": 10.105664062500002,
                        "value": 0.9921259842519685
                    },
                    {
                        "number": 7,
                        "time": 10.142578125000002,
                        "value": 0.984251968503937
                    },
                    {
                        "number": 7,
                        "time": 10.179492187500001,
                        "value": 0.9763779527559056
                    },
                    {
                        "number": 7,
                        "time": 10.21640625,
                        "value": 0.9606299212598425
                    },
                    {
                        "number": 7,
                        "time": 10.2533203125,
                        "value": 0.952755905511811
                    },
                    {
                        "number": 7,
                        "time": 10.290234374999999,
                        "value": 0.9448818897637795
                    },
                    {
                        "number": 7,
                        "time": 10.327148437499998,
                        "value": 0.937007874015748
                    },
                    {
                        "number": 7,
                        "time": 10.364062499999998,
                        "value": 0.9212598425196851
                    },
                    {
                        "number": 7,
                        "time": 10.400976562499997,
                        "value": 0.9133858267716536
                    },
                    {
                        "number": 7,
                        "time": 10.437890624999996,
                        "value": 0.905511811023622
                    },
                    {
                        "number": 7,
                        "time": 10.474804687499995,
                        "value": 0.8976377952755905
                    },
                    {
                        "number": 7,
                        "time": 10.511718749999995,
                        "value": 0.8818897637795275
                    },
                    {
                        "number": 7,
                        "time": 10.548632812499994,
                        "value": 0.8740157480314961
                    },
                    {
                        "number": 7,
                        "time": 10.585546874999993,
                        "value": 0.8661417322834646
                    },
                    {
                        "number": 7,
                        "time": 10.622460937499993,
                        "value": 0.8582677165354331
                    },
                    {
                        "number": 7,
                        "time": 10.659374999999992,
                        "value": 0.84251968503937
                    },
                    {
                        "number": 7,
                        "time": 10.696289062499991,
                        "value": 0.8346456692913385
                    },
                    {
                        "number": 7,
                        "time": 10.73320312499999,
                        "value": 0.8267716535433071
                    },
                    {
                        "number": 7,
                        "time": 10.77011718749999,
                        "value": 0.8188976377952756
                    },
                    {
                        "number": 7,
                        "time": 10.79999999999999,
                        "value": 0.8031496062992126
                    },
                    {
                        "number": 7,
                        "time": 10.83691406249999,
                        "value": 0.7716535433070866
                    },
                    {
                        "number": 7,
                        "time": 10.873828124999989,
                        "value": 0.7322834645669292
                    },
                    {
                        "number": 7,
                        "time": 10.910742187499988,
                        "value": 0.7007874015748031
                    },
                    {
                        "number": 7,
                        "time": 10.947656249999987,
                        "value": 0.6614173228346457
                    },
                    {
                        "number": 7,
                        "time": 10.984570312499986,
                        "value": 0.6220472440944882
                    },
                    {
                        "number": 7,
                        "time": 11.021484374999986,
                        "value": 0.5905511811023622
                    },
                    {
                        "number": 7,
                        "time": 11.058398437499985,
                        "value": 0.5511811023622047
                    },
                    {
                        "number": 7,
                        "time": 11.095312499999984,
                        "value": 0.5196850393700787
                    },
                    {
                        "number": 7,
                        "time": 11.132226562499984,
                        "value": 0.48031496062992124
                    },
                    {
                        "number": 7,
                        "time": 11.169140624999983,
                        "value": 0.4409448818897638
                    },
                    {
                        "number": 7,
                        "time": 11.206054687499982,
                        "value": 0.4094488188976378
                    },
                    {
                        "number": 7,
                        "time": 11.399999999999983,
                        "value": 1
                    },
                    {
                        "number": 7,
                        "time": 18.018749999999997,
                        "value": 1
                    },
                    {
                        "number": 7,
                        "time": 18.055664062499996,
                        "value": 0.9921259842519685
                    },
                    {
                        "number": 7,
                        "time": 18.092578124999996,
                        "value": 0.984251968503937
                    },
                    {
                        "number": 7,
                        "time": 18.129492187499995,
                        "value": 0.9763779527559056
                    },
                    {
                        "number": 7,
                        "time": 18.166406249999994,
                        "value": 0.9606299212598425
                    },
                    {
                        "number": 7,
                        "time": 18.203320312499994,
                        "value": 0.952755905511811
                    },
                    {
                        "number": 7,
                        "time": 18.240234374999993,
                        "value": 0.9448818897637795
                    },
                    {
                        "number": 7,
                        "time": 18.277148437499992,
                        "value": 0.937007874015748
                    },
                    {
                        "number": 7,
                        "time": 18.31406249999999,
                        "value": 0.9212598425196851
                    },
                    {
                        "number": 7,
                        "time": 18.35097656249999,
                        "value": 0.9133858267716536
                    },
                    {
                        "number": 7,
                        "time": 18.38789062499999,
                        "value": 0.905511811023622
                    },
                    {
                        "number": 7,
                        "time": 18.39374999999999,
                        "value": 0.8976377952755905
                    },
                    {
                        "number": 7,
                        "time": 18.43066406249999,
                        "value": 0.8188976377952756
                    },
                    {
                        "number": 7,
                        "time": 18.46757812499999,
                        "value": 0.7322834645669292
                    },
                    {
                        "number": 7,
                        "time": 18.504492187499988,
                        "value": 0.6535433070866141
                    },
                    {
                        "number": 7,
                        "time": 18.541406249999987,
                        "value": 0.5669291338582677
                    },
                    {
                        "number": 7,
                        "time": 18.578320312499986,
                        "value": 0.4881889763779528
                    },
                    {
                        "number": 7,
                        "time": 18.993749999999988,
                        "value": 0.41732283464566927
                    },
                    {
                        "number": 7,
                        "time": 20.381249999999987,
                        "value": 0.41732283464566927
                    },
                    {
                        "number": 7,
                        "time": 20.41582031249999,
                        "value": 0.44881889763779526
                    },
                    {
                        "number": 7,
                        "time": 20.45039062499999,
                        "value": 0.48031496062992124
                    },
                    {
                        "number": 7,
                        "time": 20.48496093749999,
                        "value": 0.5118110236220472
                    },
                    {
                        "number": 7,
                        "time": 20.519531249999993,
                        "value": 0.5433070866141733
                    },
                    {
                        "number": 7,
                        "time": 20.554101562499994,
                        "value": 0.5748031496062992
                    },
                    {
                        "number": 7,
                        "time": 20.588671874999996,
                        "value": 0.6062992125984252
                    },
                    {
                        "number": 7,
                        "time": 20.623242187499997,
                        "value": 0.6377952755905512
                    },
                    {
                        "number": 7,
                        "time": 20.6578125,
                        "value": 0.6692913385826772
                    },
                    {
                        "number": 7,
                        "time": 20.6923828125,
                        "value": 0.7007874015748031
                    },
                    {
                        "number": 7,
                        "time": 20.726953125,
                        "value": 0.7322834645669292
                    },
                    {
                        "number": 7,
                        "time": 20.761523437500003,
                        "value": 0.7637795275590551
                    },
                    {
                        "number": 7,
                        "time": 20.796093750000004,
                        "value": 0.7952755905511811
                    },
                    {
                        "number": 7,
                        "time": 20.830664062500006,
                        "value": 0.8267716535433071
                    },
                    {
                        "number": 7,
                        "time": 20.865234375000007,
                        "value": 0.8582677165354331
                    },
                    {
                        "number": 7,
                        "time": 20.89980468750001,
                        "value": 0.889763779527559
                    },
                    {
                        "number": 7,
                        "time": 20.93437500000001,
                        "value": 0.9212598425196851
                    },
                    {
                        "number": 7,
                        "time": 20.96894531250001,
                        "value": 0.952755905511811
                    },
                    {
                        "number": 7,
                        "time": 21.00351562500001,
                        "value": 0.984251968503937
                    },
                    {
                        "number": 7,
                        "time": 21.52500000000001,
                        "value": 0.4251968503937008
                    },
                    {
                        "number": 7,
                        "time": 22.800000000000008,
                        "value": 0.4251968503937008
                    },
                    {
                        "number": 7,
                        "time": 22.83457031250001,
                        "value": 0.4566929133858268
                    },
                    {
                        "number": 7,
                        "time": 22.86914062500001,
                        "value": 0.4881889763779528
                    },
                    {
                        "number": 7,
                        "time": 22.903710937500012,
                        "value": 0.5196850393700787
                    },
                    {
                        "number": 7,
                        "time": 22.938281250000014,
                        "value": 0.5511811023622047
                    },
                    {
                        "number": 7,
                        "time": 22.972851562500015,
                        "value": 0.5905511811023622
                    },
                    {
                        "number": 7,
                        "time": 23.007421875000016,
                        "value": 0.6220472440944882
                    },
                    {
                        "number": 7,
                        "time": 23.041992187500018,
                        "value": 0.6535433070866141
                    },
                    {
                        "number": 7,
                        "time": 23.07656250000002,
                        "value": 0.6850393700787402
                    },
                    {
                        "number": 7,
                        "time": 23.11113281250002,
                        "value": 0.7165354330708661
                    },
                    {
                        "number": 7,
                        "time": 23.145703125000022,
                        "value": 0.7559055118110236
                    },
                    {
                        "number": 7,
                        "time": 23.180273437500023,
                        "value": 0.7874015748031497
                    },
                    {
                        "number": 7,
                        "time": 23.214843750000025,
                        "value": 0.8188976377952756
                    },
                    {
                        "number": 7,
                        "time": 23.249414062500026,
                        "value": 0.8503937007874016
                    },
                    {
                        "number": 7,
                        "time": 23.283984375000028,
                        "value": 0.8818897637795275
                    },
                    {
                        "number": 7,
                        "time": 23.31855468750003,
                        "value": 0.9212598425196851
                    },
                    {
                        "number": 7,
                        "time": 23.35312500000003,
                        "value": 0.952755905511811
                    },
                    {
                        "number": 7,
                        "time": 23.38125000000003,
                        "value": 1
                    },
                    {
                        "number": 7,
                        "time": 23.38769531250003,
                        "value": 0.984251968503937
                    },
                    {
                        "number": 7,
                        "time": 23.400000000000027,
                        "value": 1
                    },
                    {
                        "number": 7,
                        "time": 28.706250000000033,
                        "value": 1
                    },
                    {
                        "number": 7,
                        "time": 28.757226562500033,
                        "value": 0.9921259842519685
                    },
                    {
                        "number": 7,
                        "time": 28.808203125000034,
                        "value": 0.984251968503937
                    },
                    {
                        "number": 7,
                        "time": 28.859179687500035,
                        "value": 0.9763779527559056
                    },
                    {
                        "number": 7,
                        "time": 28.910156250000036,
                        "value": 0.968503937007874
                    },
                    {
                        "number": 7,
                        "time": 28.961132812500036,
                        "value": 0.952755905511811
                    },
                    {
                        "number": 7,
                        "time": 29.012109375000037,
                        "value": 0.9448818897637795
                    },
                    {
                        "number": 7,
                        "time": 29.063085937500038,
                        "value": 0.937007874015748
                    },
                    {
                        "number": 7,
                        "time": 29.11406250000004,
                        "value": 0.9291338582677166
                    },
                    {
                        "number": 7,
                        "time": 29.16503906250004,
                        "value": 0.9133858267716536
                    },
                    {
                        "number": 7,
                        "time": 29.21601562500004,
                        "value": 0.905511811023622
                    },
                    {
                        "number": 7,
                        "time": 29.26699218750004,
                        "value": 0.8976377952755905
                    },
                    {
                        "number": 7,
                        "time": 29.31796875000004,
                        "value": 0.889763779527559
                    },
                    {
                        "number": 7,
                        "time": 29.368945312500042,
                        "value": 0.8740157480314961
                    },
                    {
                        "number": 7,
                        "time": 29.419921875000043,
                        "value": 0.8661417322834646
                    },
                    {
                        "number": 7,
                        "time": 29.470898437500043,
                        "value": 0.8582677165354331
                    },
                    {
                        "number": 7,
                        "time": 29.521875000000044,
                        "value": 0.8503937007874016
                    },
                    {
                        "number": 7,
                        "time": 29.572851562500045,
                        "value": 0.84251968503937
                    },
                    {
                        "number": 7,
                        "time": 29.623828125000045,
                        "value": 0.8267716535433071
                    },
                    {
                        "number": 7,
                        "time": 29.674804687500046,
                        "value": 0.8188976377952756
                    },
                    {
                        "number": 7,
                        "time": 29.681250000000045,
                        "value": 0.8110236220472441
                    },
                    {
                        "number": 7,
                        "time": 29.732226562500045,
                        "value": 0.7086614173228346
                    },
                    {
                        "number": 7,
                        "time": 29.783203125000046,
                        "value": 0.6062992125984252
                    },
                    {
                        "number": 7,
                        "time": 29.834179687500047,
                        "value": 0.5039370078740157
                    },
                    {
                        "number": 7,
                        "time": 29.98125000000005,
                        "value": 1
                    },
                    {
                        "number": 7,
                        "time": 33.61230468750009,
                        "value": 0.9921259842519685
                    },
                    {
                        "number": 7,
                        "time": 33.71601562500009,
                        "value": 0.984251968503937
                    },
                    {
                        "number": 7,
                        "time": 33.78515625000009,
                        "value": 0.9763779527559056
                    },
                    {
                        "number": 7,
                        "time": 33.854296875000095,
                        "value": 0.968503937007874
                    },
                    {
                        "number": 7,
                        "time": 33.9234375000001,
                        "value": 0.9606299212598425
                    },
                    {
                        "number": 7,
                        "time": 33.9925781250001,
                        "value": 0.952755905511811
                    },
                    {
                        "number": 7,
                        "time": 34.0962890625001,
                        "value": 0.9448818897637795
                    },
                    {
                        "number": 7,
                        "time": 34.1654296875001,
                        "value": 0.937007874015748
                    },
                    {
                        "number": 7,
                        "time": 34.234570312500104,
                        "value": 0.9291338582677166
                    },
                    {
                        "number": 7,
                        "time": 34.30371093750011,
                        "value": 0.9212598425196851
                    },
                    {
                        "number": 7,
                        "time": 34.37285156250011,
                        "value": 0.9133858267716536
                    },
                    {
                        "number": 7,
                        "time": 34.44199218750011,
                        "value": 0.905511811023622
                    },
                    {
                        "number": 7,
                        "time": 34.54570312500011,
                        "value": 0.8976377952755905
                    },
                    {
                        "number": 7,
                        "time": 34.61484375000011,
                        "value": 0.889763779527559
                    },
                    {
                        "number": 7,
                        "time": 34.683984375000115,
                        "value": 0.8818897637795275
                    },
                    {
                        "number": 7,
                        "time": 34.75312500000012,
                        "value": 0.8740157480314961
                    },
                    {
                        "number": 7,
                        "time": 34.82226562500012,
                        "value": 0.8661417322834646
                    },
                    {
                        "number": 7,
                        "time": 34.891406250000124,
                        "value": 0.8582677165354331
                    },
                    {
                        "number": 7,
                        "time": 34.99511718750012,
                        "value": 0.8503937007874016
                    },
                    {
                        "number": 7,
                        "time": 35.064257812500124,
                        "value": 0.84251968503937
                    },
                    {
                        "number": 7,
                        "time": 35.13339843750013,
                        "value": 0.8346456692913385
                    },
                    {
                        "number": 7,
                        "time": 35.20253906250013,
                        "value": 0.8267716535433071
                    },
                    {
                        "number": 7,
                        "time": 35.27167968750013,
                        "value": 0.8188976377952756
                    },
                    {
                        "number": 7,
                        "time": 35.340820312500135,
                        "value": 0.8110236220472441
                    },
                    {
                        "number": 7,
                        "time": 35.41230468750013,
                        "value": 0.8031496062992126
                    },
                    {
                        "number": 7,
                        "time": 35.481445312500135,
                        "value": 0.7952755905511811
                    },
                    {
                        "number": 7,
                        "time": 35.516015625000136,
                        "value": 0.7874015748031497
                    },
                    {
                        "number": 7,
                        "time": 35.58515625000014,
                        "value": 0.7795275590551181
                    },
                    {
                        "number": 7,
                        "time": 35.61972656250014,
                        "value": 0.7716535433070866
                    },
                    {
                        "number": 7,
                        "time": 35.68886718750014,
                        "value": 0.7637795275590551
                    },
                    {
                        "number": 7,
                        "time": 35.723437500000145,
                        "value": 0.7559055118110236
                    },
                    {
                        "number": 7,
                        "time": 35.79257812500015,
                        "value": 0.7480314960629921
                    },
                    {
                        "number": 7,
                        "time": 35.82714843750015,
                        "value": 0.7401574803149606
                    },
                    {
                        "number": 7,
                        "time": 35.89628906250015,
                        "value": 0.7322834645669292
                    },
                    {
                        "number": 7,
                        "time": 35.93085937500015,
                        "value": 0.7244094488188977
                    },
                    {
                        "number": 7,
                        "time": 36.000000000000156,
                        "value": 0.7165354330708661
                    },
                    {
                        "number": 7,
                        "time": 36.03457031250016,
                        "value": 0.7086614173228346
                    },
                    {
                        "number": 7,
                        "time": 36.10371093750016,
                        "value": 0.7007874015748031
                    },
                    {
                        "number": 7,
                        "time": 36.13828125000016,
                        "value": 0.6929133858267716
                    },
                    {
                        "number": 7,
                        "time": 36.17285156250016,
                        "value": 0.6850393700787402
                    },
                    {
                        "number": 7,
                        "time": 36.241992187500166,
                        "value": 0.6771653543307087
                    },
                    {
                        "number": 7,
                        "time": 36.27656250000017,
                        "value": 0.6692913385826772
                    },
                    {
                        "number": 7,
                        "time": 36.34570312500017,
                        "value": 0.6614173228346457
                    },
                    {
                        "number": 7,
                        "time": 36.38027343750017,
                        "value": 0.6535433070866141
                    },
                    {
                        "number": 7,
                        "time": 36.42480468750017,
                        "value": 0.6456692913385826
                    },
                    {
                        "number": 7,
                        "time": 36.45937500000017,
                        "value": 0.6141732283464567
                    },
                    {
                        "number": 7,
                        "time": 36.49394531250017,
                        "value": 0.5748031496062992
                    },
                    {
                        "number": 7,
                        "time": 36.528515625000175,
                        "value": 0.5354330708661418
                    },
                    {
                        "number": 7,
                        "time": 36.563085937500176,
                        "value": 0.5039370078740157
                    },
                    {
                        "number": 7,
                        "time": 36.59765625000018,
                        "value": 0.4645669291338583
                    },
                    {
                        "number": 7,
                        "time": 36.63222656250018,
                        "value": 0.4251968503937008
                    },
                    {
                        "number": 7,
                        "time": 36.66679687500018,
                        "value": 0.3858267716535433
                    },
                    {
                        "number": 7,
                        "time": 37.75605468750018,
                        "value": 1
                    },
                    {
                        "number": 7,
                        "time": 39.00000000000017,
                        "value": 1
                    },
                    {
                        "number": 7,
                        "time": 39.03808593750017,
                        "value": 0.9763779527559056
                    },
                    {
                        "number": 7,
                        "time": 39.07617187500017,
                        "value": 0.952755905511811
                    },
                    {
                        "number": 7,
                        "time": 39.11425781250017,
                        "value": 0.9291338582677166
                    },
                    {
                        "number": 7,
                        "time": 39.15234375000017,
                        "value": 0.905511811023622
                    },
                    {
                        "number": 7,
                        "time": 39.19042968750017,
                        "value": 0.8818897637795275
                    },
                    {
                        "number": 7,
                        "time": 39.22851562500017,
                        "value": 0.8582677165354331
                    },
                    {
                        "number": 7,
                        "time": 39.26660156250017,
                        "value": 0.8346456692913385
                    },
                    {
                        "number": 7,
                        "time": 39.30468750000017,
                        "value": 0.8031496062992126
                    },
                    {
                        "number": 7,
                        "time": 39.34277343750017,
                        "value": 0.7795275590551181
                    },
                    {
                        "number": 7,
                        "time": 39.38085937500017,
                        "value": 0.7559055118110236
                    },
                    {
                        "number": 7,
                        "time": 39.41894531250017,
                        "value": 0.7322834645669292
                    },
                    {
                        "number": 7,
                        "time": 39.45703125000017,
                        "value": 0.7086614173228346
                    },
                    {
                        "number": 7,
                        "time": 39.49511718750017,
                        "value": 0.6850393700787402
                    },
                    {
                        "number": 7,
                        "time": 39.53320312500017,
                        "value": 0.6614173228346457
                    },
                    {
                        "number": 7,
                        "time": 39.57128906250017,
                        "value": 0.6299212598425197
                    },
                    {
                        "number": 7,
                        "time": 39.60937500000017,
                        "value": 0.6062992125984252
                    },
                    {
                        "number": 7,
                        "time": 40.18125000000017,
                        "value": 1
                    },
                    {
                        "number": 7,
                        "time": 41.437500000000156,
                        "value": 0.984251968503937
                    },
                    {
                        "number": 7,
                        "time": 41.475585937500156,
                        "value": 0.9606299212598425
                    },
                    {
                        "number": 7,
                        "time": 41.513671875000156,
                        "value": 0.937007874015748
                    },
                    {
                        "number": 7,
                        "time": 41.551757812500156,
                        "value": 0.9133858267716536
                    },
                    {
                        "number": 7,
                        "time": 41.589843750000156,
                        "value": 0.889763779527559
                    },
                    {
                        "number": 7,
                        "time": 41.627929687500156,
                        "value": 0.8582677165354331
                    },
                    {
                        "number": 7,
                        "time": 41.666015625000156,
                        "value": 0.8346456692913385
                    },
                    {
                        "number": 7,
                        "time": 41.70410156250015,
                        "value": 0.8110236220472441
                    },
                    {
                        "number": 7,
                        "time": 41.74218750000015,
                        "value": 0.7874015748031497
                    },
                    {
                        "number": 7,
                        "time": 41.78027343750015,
                        "value": 0.7637795275590551
                    },
                    {
                        "number": 7,
                        "time": 41.81835937500015,
                        "value": 0.7322834645669292
                    },
                    {
                        "number": 7,
                        "time": 41.85644531250015,
                        "value": 0.7086614173228346
                    },
                    {
                        "number": 7,
                        "time": 41.89453125000015,
                        "value": 0.6850393700787402
                    },
                    {
                        "number": 7,
                        "time": 41.93261718750015,
                        "value": 0.6614173228346457
                    },
                    {
                        "number": 7,
                        "time": 41.97070312500015,
                        "value": 0.6377952755905512
                    },
                    {
                        "number": 7,
                        "time": 42.00878906250015,
                        "value": 0.6062992125984252
                    },
                    {
                        "number": 7,
                        "time": 42.58125000000015,
                        "value": 0.49606299212598426
                    },
                    {
                        "number": 7,
                        "time": 43.21875000000015,
                        "value": 0.5039370078740157
                    },
                    {
                        "number": 7,
                        "time": 43.33300781250015,
                        "value": 0.5118110236220472
                    },
                    {
                        "number": 7,
                        "time": 43.40917968750015,
                        "value": 0.5196850393700787
                    },
                    {
                        "number": 7,
                        "time": 43.48535156250015,
                        "value": 0.5275590551181102
                    },
                    {
                        "number": 7,
                        "time": 43.56152343750015,
                        "value": 0.5354330708661418
                    },
                    {
                        "number": 7,
                        "time": 43.63769531250015,
                        "value": 0.5433070866141733
                    },
                    {
                        "number": 7,
                        "time": 43.71386718750015,
                        "value": 0.5511811023622047
                    },
                    {
                        "number": 7,
                        "time": 43.79003906250015,
                        "value": 0.5590551181102362
                    },
                    {
                        "number": 7,
                        "time": 43.90429687500015,
                        "value": 0.5669291338582677
                    },
                    {
                        "number": 7,
                        "time": 43.98046875000015,
                        "value": 0.5748031496062992
                    },
                    {
                        "number": 7,
                        "time": 44.05664062500015,
                        "value": 0.5826771653543307
                    },
                    {
                        "number": 7,
                        "time": 44.13281250000015,
                        "value": 0.5905511811023622
                    },
                    {
                        "number": 7,
                        "time": 44.20898437500015,
                        "value": 0.5984251968503937
                    },
                    {
                        "number": 7,
                        "time": 44.28515625000015,
                        "value": 0.6062992125984252
                    },
                    {
                        "number": 7,
                        "time": 44.36132812500015,
                        "value": 0.6141732283464567
                    },
                    {
                        "number": 7,
                        "time": 44.43750000000015,
                        "value": 0.6220472440944882
                    },
                    {
                        "number": 7,
                        "time": 44.55175781250015,
                        "value": 0.6299212598425197
                    },
                    {
                        "number": 7,
                        "time": 44.62792968750015,
                        "value": 0.6377952755905512
                    },
                    {
                        "number": 7,
                        "time": 44.70410156250015,
                        "value": 0.6456692913385826
                    },
                    {
                        "number": 7,
                        "time": 44.78027343750015,
                        "value": 0.6535433070866141
                    },
                    {
                        "number": 7,
                        "time": 44.85644531250015,
                        "value": 0.6614173228346457
                    },
                    {
                        "number": 7,
                        "time": 44.93261718750015,
                        "value": 0.6692913385826772
                    },
                    {
                        "number": 7,
                        "time": 45.00000000000015,
                        "value": 0.6771653543307087
                    },
                    {
                        "number": 7,
                        "time": 45.03808593750015,
                        "value": 0.6929133858267716
                    },
                    {
                        "number": 7,
                        "time": 45.07617187500015,
                        "value": 0.7165354330708661
                    },
                    {
                        "number": 7,
                        "time": 45.11425781250015,
                        "value": 0.7322834645669292
                    },
                    {
                        "number": 7,
                        "time": 45.15234375000015,
                        "value": 0.7559055118110236
                    },
                    {
                        "number": 7,
                        "time": 45.19042968750015,
                        "value": 0.7716535433070866
                    },
                    {
                        "number": 7,
                        "time": 45.22851562500015,
                        "value": 0.7952755905511811
                    },
                    {
                        "number": 7,
                        "time": 45.26660156250015,
                        "value": 0.8110236220472441
                    },
                    {
                        "number": 7,
                        "time": 45.30468750000015,
                        "value": 0.8346456692913385
                    },
                    {
                        "number": 7,
                        "time": 45.34277343750015,
                        "value": 0.8503937007874016
                    },
                    {
                        "number": 7,
                        "time": 45.38085937500015,
                        "value": 0.8740157480314961
                    },
                    {
                        "number": 7,
                        "time": 45.41894531250015,
                        "value": 0.889763779527559
                    },
                    {
                        "number": 7,
                        "time": 45.45703125000015,
                        "value": 0.9133858267716536
                    },
                    {
                        "number": 7,
                        "time": 45.49511718750015,
                        "value": 0.9291338582677166
                    },
                    {
                        "number": 7,
                        "time": 45.53320312500015,
                        "value": 0.952755905511811
                    },
                    {
                        "number": 7,
                        "time": 45.57128906250015,
                        "value": 0.968503937007874
                    },
                    {
                        "number": 7,
                        "time": 45.60937500000015,
                        "value": 0.9921259842519685
                    },
                    {
                        "number": 7,
                        "time": 45.82500000000015,
                        "value": 0.984251968503937
                    },
                    {
                        "number": 7,
                        "time": 45.86308593750015,
                        "value": 0.9763779527559056
                    },
                    {
                        "number": 7,
                        "time": 45.90117187500015,
                        "value": 0.9606299212598425
                    },
                    {
                        "number": 7,
                        "time": 45.93925781250015,
                        "value": 0.9448818897637795
                    },
                    {
                        "number": 7,
                        "time": 45.97734375000015,
                        "value": 0.9291338582677166
                    },
                    {
                        "number": 7,
                        "time": 46.01542968750015,
                        "value": 0.9133858267716536
                    },
                    {
                        "number": 7,
                        "time": 46.05351562500015,
                        "value": 0.8976377952755905
                    },
                    {
                        "number": 7,
                        "time": 46.09160156250015,
                        "value": 0.8818897637795275
                    },
                    {
                        "number": 7,
                        "time": 46.12968750000015,
                        "value": 0.8661417322834646
                    },
                    {
                        "number": 7,
                        "time": 46.16777343750015,
                        "value": 0.8503937007874016
                    },
                    {
                        "number": 7,
                        "time": 46.20585937500015,
                        "value": 0.8346456692913385
                    },
                    {
                        "number": 7,
                        "time": 46.24394531250015,
                        "value": 0.8188976377952756
                    },
                    {
                        "number": 7,
                        "time": 46.28203125000015,
                        "value": 0.8031496062992126
                    },
                    {
                        "number": 7,
                        "time": 46.32011718750015,
                        "value": 0.7874015748031497
                    },
                    {
                        "number": 7,
                        "time": 46.35820312500015,
                        "value": 0.7716535433070866
                    },
                    {
                        "number": 7,
                        "time": 46.39628906250015,
                        "value": 0.7559055118110236
                    },
                    {
                        "number": 7,
                        "time": 46.43437500000015,
                        "value": 0.7401574803149606
                    },
                    {
                        "number": 7,
                        "time": 46.47246093750015,
                        "value": 0.7244094488188977
                    },
                    {
                        "number": 7,
                        "time": 46.51054687500015,
                        "value": 0.7086614173228346
                    },
                    {
                        "number": 7,
                        "time": 46.54863281250015,
                        "value": 0.6929133858267716
                    },
                    {
                        "number": 7,
                        "time": 46.58671875000015,
                        "value": 0.6771653543307087
                    },
                    {
                        "number": 7,
                        "time": 46.62480468750015,
                        "value": 0.6692913385826772
                    },
                    {
                        "number": 7,
                        "time": 46.66289062500015,
                        "value": 0.6535433070866141
                    },
                    {
                        "number": 7,
                        "time": 46.70097656250015,
                        "value": 0.6377952755905512
                    },
                    {
                        "number": 7,
                        "time": 46.73906250000015,
                        "value": 0.6220472440944882
                    },
                    {
                        "number": 7,
                        "time": 46.77714843750015,
                        "value": 0.6062992125984252
                    },
                    {
                        "number": 7,
                        "time": 46.931250000000155,
                        "value": 0.5984251968503937
                    },
                    {
                        "number": 7,
                        "time": 47.121679687500155,
                        "value": 0.5905511811023622
                    },
                    {
                        "number": 7,
                        "time": 47.274023437500155,
                        "value": 0.5826771653543307
                    },
                    {
                        "number": 7,
                        "time": 47.426367187500155,
                        "value": 0.5748031496062992
                    },
                    {
                        "number": 7,
                        "time": 47.578710937500155,
                        "value": 0.5669291338582677
                    },
                    {
                        "number": 7,
                        "time": 47.731054687500155,
                        "value": 0.5590551181102362
                    },
                    {
                        "number": 7,
                        "time": 47.883398437500155,
                        "value": 0.5511811023622047
                    },
                    {
                        "number": 7,
                        "time": 48.035742187500155,
                        "value": 0.5433070866141733
                    },
                    {
                        "number": 7,
                        "time": 48.187500000000156,
                        "value": 0.5354330708661418
                    },
                    {
                        "number": 7,
                        "time": 48.225585937500156,
                        "value": 0.49606299212598426
                    },
                    {
                        "number": 7,
                        "time": 48.263671875000156,
                        "value": 0.44881889763779526
                    },
                    {
                        "number": 7,
                        "time": 48.301757812500156,
                        "value": 0.4015748031496063
                    },
                    {
                        "number": 7,
                        "time": 48.339843750000156,
                        "value": 0.3543307086614173
                    },
                    {
                        "number": 7,
                        "time": 48.377929687500156,
                        "value": 0.30708661417322836
                    },
                    {
                        "number": 7,
                        "time": 48.416015625000156,
                        "value": 0.2677165354330709
                    },
                    {
                        "number": 7,
                        "time": 48.562500000000156,
                        "value": 0.5511811023622047
                    },
                    {
                        "number": 7,
                        "time": 48.600585937500156,
                        "value": 0.5590551181102362
                    },
                    {
                        "number": 7,
                        "time": 48.638671875000156,
                        "value": 0.5669291338582677
                    },
                    {
                        "number": 7,
                        "time": 48.676757812500156,
                        "value": 0.5748031496062992
                    },
                    {
                        "number": 7,
                        "time": 48.714843750000156,
                        "value": 0.5826771653543307
                    },
                    {
                        "number": 7,
                        "time": 48.752929687500156,
                        "value": 0.5905511811023622
                    },
                    {
                        "number": 7,
                        "time": 48.791015625000156,
                        "value": 0.5984251968503937
                    },
                    {
                        "number": 7,
                        "time": 48.829101562500156,
                        "value": 0.6062992125984252
                    },
                    {
                        "number": 7,
                        "time": 48.867187500000156,
                        "value": 0.6141732283464567
                    },
                    {
                        "number": 7,
                        "time": 48.905273437500156,
                        "value": 0.6220472440944882
                    },
                    {
                        "number": 7,
                        "time": 48.943359375000156,
                        "value": 0.6299212598425197
                    },
                    {
                        "number": 7,
                        "time": 48.981445312500156,
                        "value": 0.6377952755905512
                    },
                    {
                        "number": 7,
                        "time": 49.019531250000156,
                        "value": 0.6456692913385826
                    },
                    {
                        "number": 7,
                        "time": 49.057617187500156,
                        "value": 0.6535433070866141
                    },
                    {
                        "number": 7,
                        "time": 49.095703125000156,
                        "value": 0.6614173228346457
                    },
                    {
                        "number": 7,
                        "time": 49.133789062500156,
                        "value": 0.6692913385826772
                    },
                    {
                        "number": 7,
                        "time": 49.171875000000156,
                        "value": 0.6771653543307087
                    },
                    {
                        "number": 7,
                        "time": 49.209960937500156,
                        "value": 0.6850393700787402
                    },
                    {
                        "number": 7,
                        "time": 49.248046875000156,
                        "value": 0.6929133858267716
                    },
                    {
                        "number": 7,
                        "time": 49.286132812500156,
                        "value": 0.7007874015748031
                    },
                    {
                        "number": 7,
                        "time": 49.324218750000156,
                        "value": 0.7086614173228346
                    },
                    {
                        "number": 7,
                        "time": 49.362304687500156,
                        "value": 0.7165354330708661
                    },
                    {
                        "number": 7,
                        "time": 49.400390625000156,
                        "value": 0.7244094488188977
                    },
                    {
                        "number": 7,
                        "time": 49.438476562500156,
                        "value": 0.7322834645669292
                    },
                    {
                        "number": 7,
                        "time": 49.476562500000156,
                        "value": 0.7401574803149606
                    },
                    {
                        "number": 7,
                        "time": 49.514648437500156,
                        "value": 0.7480314960629921
                    },
                    {
                        "number": 7,
                        "time": 49.552734375000156,
                        "value": 0.7559055118110236
                    },
                    {
                        "number": 7,
                        "time": 49.590820312500156,
                        "value": 0.7716535433070866
                    },
                    {
                        "number": 7,
                        "time": 49.628906250000156,
                        "value": 0.7795275590551181
                    },
                    {
                        "number": 7,
                        "time": 49.666992187500156,
                        "value": 0.7874015748031497
                    },
                    {
                        "number": 7,
                        "time": 49.705078125000156,
                        "value": 0.7952755905511811
                    },
                    {
                        "number": 7,
                        "time": 49.743164062500156,
                        "value": 0.8031496062992126
                    },
                    {
                        "number": 7,
                        "time": 49.781250000000156,
                        "value": 0.8110236220472441
                    },
                    {
                        "number": 7,
                        "time": 49.819335937500156,
                        "value": 0.8188976377952756
                    },
                    {
                        "number": 7,
                        "time": 49.857421875000156,
                        "value": 0.8267716535433071
                    },
                    {
                        "number": 7,
                        "time": 49.895507812500156,
                        "value": 0.8346456692913385
                    },
                    {
                        "number": 7,
                        "time": 49.933593750000156,
                        "value": 0.84251968503937
                    },
                    {
                        "number": 7,
                        "time": 49.971679687500156,
                        "value": 0.8503937007874016
                    },
                    {
                        "number": 7,
                        "time": 50.009765625000156,
                        "value": 0.8582677165354331
                    },
                    {
                        "number": 7,
                        "time": 50.047851562500156,
                        "value": 0.8661417322834646
                    },
                    {
                        "number": 7,
                        "time": 50.085937500000156,
                        "value": 0.8740157480314961
                    },
                    {
                        "number": 7,
                        "time": 50.124023437500156,
                        "value": 0.8818897637795275
                    },
                    {
                        "number": 7,
                        "time": 50.162109375000156,
                        "value": 0.889763779527559
                    },
                    {
                        "number": 7,
                        "time": 50.200195312500156,
                        "value": 0.8976377952755905
                    },
                    {
                        "number": 7,
                        "time": 50.238281250000156,
                        "value": 0.905511811023622
                    },
                    {
                        "number": 7,
                        "time": 50.276367187500156,
                        "value": 0.9133858267716536
                    },
                    {
                        "number": 7,
                        "time": 50.314453125000156,
                        "value": 0.9212598425196851
                    },
                    {
                        "number": 7,
                        "time": 50.45625000000015,
                        "value": 0.9291338582677166
                    },
                    {
                        "number": 7,
                        "time": 50.53242187500015,
                        "value": 0.9212598425196851
                    },
                    {
                        "number": 7,
                        "time": 50.57050781250015,
                        "value": 0.9133858267716536
                    },
                    {
                        "number": 7,
                        "time": 50.60859375000015,
                        "value": 0.905511811023622
                    },
                    {
                        "number": 7,
                        "time": 50.64667968750015,
                        "value": 0.8976377952755905
                    },
                    {
                        "number": 7,
                        "time": 50.72285156250015,
                        "value": 0.889763779527559
                    },
                    {
                        "number": 7,
                        "time": 50.76093750000015,
                        "value": 0.8818897637795275
                    },
                    {
                        "number": 7,
                        "time": 50.79902343750015,
                        "value": 0.8740157480314961
                    },
                    {
                        "number": 7,
                        "time": 50.83710937500015,
                        "value": 0.8661417322834646
                    },
                    {
                        "number": 7,
                        "time": 50.91328125000015,
                        "value": 0.8582677165354331
                    },
                    {
                        "number": 7,
                        "time": 50.95136718750015,
                        "value": 0.8503937007874016
                    },
                    {
                        "number": 7,
                        "time": 50.98945312500015,
                        "value": 0.84251968503937
                    },
                    {
                        "number": 7,
                        "time": 51.02753906250015,
                        "value": 0.8346456692913385
                    },
                    {
                        "number": 7,
                        "time": 51.06562500000015,
                        "value": 0.8267716535433071
                    },
                    {
                        "number": 7,
                        "time": 51.14179687500015,
                        "value": 0.8188976377952756
                    },
                    {
                        "number": 7,
                        "time": 51.17988281250015,
                        "value": 0.8110236220472441
                    },
                    {
                        "number": 7,
                        "time": 51.21796875000015,
                        "value": 0.8031496062992126
                    },
                    {
                        "number": 7,
                        "time": 51.25605468750015,
                        "value": 0.7952755905511811
                    },
                    {
                        "number": 7,
                        "time": 51.33222656250015,
                        "value": 0.7874015748031497
                    },
                    {
                        "number": 7,
                        "time": 51.37031250000015,
                        "value": 0.7795275590551181
                    },
                    {
                        "number": 7,
                        "time": 51.40839843750015,
                        "value": 0.7716535433070866
                    },
                    {
                        "number": 7,
                        "time": 51.44648437500015,
                        "value": 0.7637795275590551
                    },
                    {
                        "number": 7,
                        "time": 51.52265625000015,
                        "value": 0.7559055118110236
                    },
                    {
                        "number": 7,
                        "time": 51.56074218750015,
                        "value": 0.7480314960629921
                    },
                    {
                        "number": 7,
                        "time": 51.59882812500015,
                        "value": 0.7401574803149606
                    },
                    {
                        "number": 7,
                        "time": 51.63691406250015,
                        "value": 0.7322834645669292
                    },
                    {
                        "number": 7,
                        "time": 51.67500000000015,
                        "value": 0.7244094488188977
                    },
                    {
                        "number": 7,
                        "time": 51.75117187500015,
                        "value": 0.7165354330708661
                    },
                    {
                        "number": 7,
                        "time": 51.76875000000015,
                        "value": 0.7086614173228346
                    },
                    {
                        "number": 7,
                        "time": 51.80683593750015,
                        "value": 0.6929133858267716
                    },
                    {
                        "number": 7,
                        "time": 51.84492187500015,
                        "value": 0.6771653543307087
                    },
                    {
                        "number": 7,
                        "time": 51.88300781250015,
                        "value": 0.6535433070866141
                    },
                    {
                        "number": 7,
                        "time": 51.92109375000015,
                        "value": 0.6377952755905512
                    },
                    {
                        "number": 7,
                        "time": 51.95917968750015,
                        "value": 0.6220472440944882
                    },
                    {
                        "number": 7,
                        "time": 51.99726562500015,
                        "value": 0.5984251968503937
                    },
                    {
                        "number": 7,
                        "time": 52.03535156250015,
                        "value": 0.5826771653543307
                    },
                    {
                        "number": 7,
                        "time": 52.07343750000015,
                        "value": 0.5590551181102362
                    },
                    {
                        "number": 7,
                        "time": 52.11152343750015,
                        "value": 0.5433070866141733
                    },
                    {
                        "number": 7,
                        "time": 52.14960937500015,
                        "value": 0.5275590551181102
                    },
                    {
                        "number": 7,
                        "time": 52.18769531250015,
                        "value": 0.5039370078740157
                    },
                    {
                        "number": 7,
                        "time": 54.018750000000146,
                        "value": 0.5039370078740157
                    },
                    {
                        "number": 7,
                        "time": 54.075000000000145,
                        "value": 0.5039370078740157
                    },
                    {
                        "number": 7,
                        "time": 54.56250000000015,
                        "value": 0.49606299212598426
                    },
                    {
                        "number": 7,
                        "time": 54.63867187500015,
                        "value": 0.4881889763779528
                    },
                    {
                        "number": 7,
                        "time": 54.67675781250015,
                        "value": 0.48031496062992124
                    },
                    {
                        "number": 7,
                        "time": 54.71484375000015,
                        "value": 0.47244094488188976
                    },
                    {
                        "number": 7,
                        "time": 54.79101562500015,
                        "value": 0.4645669291338583
                    },
                    {
                        "number": 7,
                        "time": 54.82910156250015,
                        "value": 0.4566929133858268
                    },
                    {
                        "number": 7,
                        "time": 54.86718750000015,
                        "value": 0.44881889763779526
                    },
                    {
                        "number": 7,
                        "time": 54.94335937500015,
                        "value": 0.4409448818897638
                    },
                    {
                        "number": 7,
                        "time": 54.98144531250015,
                        "value": 0.4330708661417323
                    },
                    {
                        "number": 7,
                        "time": 55.01953125000015,
                        "value": 0.4251968503937008
                    },
                    {
                        "number": 7,
                        "time": 55.09570312500015,
                        "value": 0.41732283464566927
                    },
                    {
                        "number": 7,
                        "time": 55.13378906250015,
                        "value": 0.4094488188976378
                    },
                    {
                        "number": 7,
                        "time": 55.17187500000015,
                        "value": 0.4015748031496063
                    },
                    {
                        "number": 7,
                        "time": 55.21875000000015,
                        "value": 0.3937007874015748
                    },
                    {
                        "number": 7,
                        "time": 55.37109375000015,
                        "value": 0.3858267716535433
                    },
                    {
                        "number": 7,
                        "time": 55.518750000000146,
                        "value": 0.3779527559055118
                    },
                    {
                        "number": 7,
                        "time": 55.556835937500146,
                        "value": 0.3543307086614173
                    },
                    {
                        "number": 7,
                        "time": 55.594921875000146,
                        "value": 0.33070866141732286
                    },
                    {
                        "number": 7,
                        "time": 55.633007812500146,
                        "value": 0.30708661417322836
                    },
                    {
                        "number": 7,
                        "time": 55.671093750000146,
                        "value": 0.28346456692913385
                    },
                    {
                        "number": 7,
                        "time": 55.709179687500146,
                        "value": 0.25984251968503935
                    },
                    {
                        "number": 7,
                        "time": 55.747265625000146,
                        "value": 0.2283464566929134
                    },
                    {
                        "number": 7,
                        "time": 56.362500000000146,
                        "value": 1
                    },
                    {
                        "number": 7,
                        "time": 61.200000000000145,
                        "value": 1
                    },
                    {
                        "number": 7,
                        "time": 61.225781250000146,
                        "value": 0.9606299212598425
                    },
                    {
                        "number": 7,
                        "time": 61.25156250000015,
                        "value": 0.9133858267716536
                    },
                    {
                        "number": 7,
                        "time": 61.27734375000015,
                        "value": 0.8661417322834646
                    },
                    {
                        "number": 7,
                        "time": 61.30312500000015,
                        "value": 0.8188976377952756
                    },
                    {
                        "number": 7,
                        "time": 61.32890625000015,
                        "value": 0.7716535433070866
                    },
                    {
                        "number": 7,
                        "time": 61.80000000000015,
                        "value": 1
                    },
                    {
                        "number": 7,
                        "time": 61.81875000000015,
                        "value": 1
                    },
                    {
                        "number": 7,
                        "time": 61.84453125000015,
                        "value": 0.9606299212598425
                    },
                    {
                        "number": 7,
                        "time": 61.87031250000015,
                        "value": 0.9133858267716536
                    },
                    {
                        "number": 7,
                        "time": 61.896093750000155,
                        "value": 0.8661417322834646
                    },
                    {
                        "number": 7,
                        "time": 61.921875000000156,
                        "value": 0.8110236220472441
                    },
                    {
                        "number": 7,
                        "time": 61.94765625000016,
                        "value": 0.7637795275590551
                    },
                    {
                        "number": 7,
                        "time": 62.400000000000155,
                        "value": 1
                    },
                    {
                        "number": 7,
                        "time": 62.425781250000156,
                        "value": 0.9606299212598425
                    },
                    {
                        "number": 7,
                        "time": 62.45156250000016,
                        "value": 0.9212598425196851
                    },
                    {
                        "number": 7,
                        "time": 62.47734375000016,
                        "value": 0.8740157480314961
                    },
                    {
                        "number": 7,
                        "time": 62.50312500000016,
                        "value": 0.8346456692913385
                    },
                    {
                        "number": 7,
                        "time": 62.52890625000016,
                        "value": 0.7952755905511811
                    },
                    {
                        "number": 7,
                        "time": 62.55468750000016,
                        "value": 0.7480314960629921
                    },
                    {
                        "number": 7,
                        "time": 63.33750000000016,
                        "value": 1
                    },
                    {
                        "number": 7,
                        "time": 63.36328125000016,
                        "value": 0.9448818897637795
                    },
                    {
                        "number": 7,
                        "time": 63.389062500000165,
                        "value": 0.889763779527559
                    },
                    {
                        "number": 7,
                        "time": 63.414843750000166,
                        "value": 0.8346456692913385
                    },
                    {
                        "number": 7,
                        "time": 63.44062500000017,
                        "value": 0.7795275590551181
                    },
                    {
                        "number": 7,
                        "time": 63.46640625000017,
                        "value": 0.7244094488188977
                    },
                    {
                        "number": 7,
                        "time": 63.49218750000017,
                        "value": 0.6692913385826772
                    },
                    {
                        "number": 7,
                        "time": 63.52500000000017,
                        "value": 0.6141732283464567
                    },
                    {
                        "number": 7,
                        "time": 64.55625000000018,
                        "value": 0.905511811023622
                    },
                    {
                        "number": 7,
                        "time": 64.58203125000017,
                        "value": 0.8661417322834646
                    },
                    {
                        "number": 7,
                        "time": 64.60781250000016,
                        "value": 0.8267716535433071
                    },
                    {
                        "number": 7,
                        "time": 64.63359375000016,
                        "value": 0.7795275590551181
                    },
                    {
                        "number": 7,
                        "time": 64.65937500000015,
                        "value": 0.7401574803149606
                    },
                    {
                        "number": 7,
                        "time": 64.68515625000015,
                        "value": 0.7007874015748031
                    },
                    {
                        "number": 7,
                        "time": 64.71093750000014,
                        "value": 0.6535433070866141
                    },
                    {
                        "number": 7,
                        "time": 64.73671875000014,
                        "value": 0.6141732283464567
                    },
                    {
                        "number": 7,
                        "time": 64.76250000000013,
                        "value": 0.5669291338582677
                    },
                    {
                        "number": 7,
                        "time": 64.81406250000013,
                        "value": 0.5590551181102362
                    },
                    {
                        "number": 7,
                        "time": 64.86562500000014,
                        "value": 0.5511811023622047
                    },
                    {
                        "number": 7,
                        "time": 64.89140625000013,
                        "value": 0.5433070866141733
                    },
                    {
                        "number": 7,
                        "time": 64.94296875000013,
                        "value": 0.5354330708661418
                    },
                    {
                        "number": 7,
                        "time": 64.96875000000013,
                        "value": 0.5275590551181102
                    },
                    {
                        "number": 7,
                        "time": 65.02031250000013,
                        "value": 0.5196850393700787
                    },
                    {
                        "number": 7,
                        "time": 65.07187500000013,
                        "value": 0.5118110236220472
                    },
                    {
                        "number": 7,
                        "time": 65.09765625000013,
                        "value": 0.5039370078740157
                    },
                    {
                        "number": 7,
                        "time": 65.14921875000012,
                        "value": 0.49606299212598426
                    },
                    {
                        "number": 7,
                        "time": 65.17500000000011,
                        "value": 0.4881889763779528
                    },
                    {
                        "number": 7,
                        "time": 65.22656250000011,
                        "value": 0.48031496062992124
                    },
                    {
                        "number": 7,
                        "time": 65.27812500000012,
                        "value": 0.47244094488188976
                    },
                    {
                        "number": 7,
                        "time": 65.30390625000011,
                        "value": 0.4645669291338583
                    },
                    {
                        "number": 7,
                        "time": 65.35546875000011,
                        "value": 0.4566929133858268
                    },
                    {
                        "number": 7,
                        "time": 65.38125000000011,
                        "value": 0.44881889763779526
                    },
                    {
                        "number": 7,
                        "time": 65.64375000000011,
                        "value": 0.4409448818897638
                    },
                    {
                        "number": 7,
                        "time": 65.77265625000011,
                        "value": 0.4330708661417323
                    },
                    {
                        "number": 7,
                        "time": 65.87578125000012,
                        "value": 0.4251968503937008
                    },
                    {
                        "number": 7,
                        "time": 65.97890625000012,
                        "value": 0.41732283464566927
                    },
                    {
                        "number": 7,
                        "time": 66.08203125000013,
                        "value": 0.4094488188976378
                    },
                    {
                        "number": 7,
                        "time": 66.21093750000013,
                        "value": 0.4015748031496063
                    },
                    {
                        "number": 7,
                        "time": 66.31406250000013,
                        "value": 0.3937007874015748
                    },
                    {
                        "number": 7,
                        "time": 66.41718750000014,
                        "value": 0.3858267716535433
                    },
                    {
                        "number": 7,
                        "time": 66.52031250000014,
                        "value": 0.3779527559055118
                    },
                    {
                        "number": 7,
                        "time": 66.64921875000014,
                        "value": 0.3700787401574803
                    },
                    {
                        "number": 7,
                        "time": 66.75234375000015,
                        "value": 0.36220472440944884
                    },
                    {
                        "number": 7,
                        "time": 66.84375000000016,
                        "value": 0.3543307086614173
                    },
                    {
                        "number": 7,
                        "time": 66.86953125000015,
                        "value": 0.33858267716535434
                    },
                    {
                        "number": 7,
                        "time": 66.89531250000014,
                        "value": 0.31496062992125984
                    },
                    {
                        "number": 7,
                        "time": 66.92109375000014,
                        "value": 0.2992125984251969
                    },
                    {
                        "number": 7,
                        "time": 66.94687500000013,
                        "value": 0.2755905511811024
                    },
                    {
                        "number": 7,
                        "time": 66.97265625000013,
                        "value": 0.25984251968503935
                    },
                    {
                        "number": 7,
                        "time": 66.99843750000012,
                        "value": 0.23622047244094488
                    },
                    {
                        "number": 7,
                        "time": 67.02421875000012,
                        "value": 0.2204724409448819
                    },
                    {
                        "number": 7,
                        "time": 67.05000000000011,
                        "value": 0.1968503937007874
                    },
                    {
                        "number": 7,
                        "time": 67.20000000000012,
                        "value": 1
                    },
                    {
                        "number": 7,
                        "time": 71.21250000000009,
                        "value": 1
                    },
                    {
                        "number": 7,
                        "time": 71.28984375000009,
                        "value": 0.9921259842519685
                    },
                    {
                        "number": 7,
                        "time": 71.36718750000009,
                        "value": 0.984251968503937
                    },
                    {
                        "number": 7,
                        "time": 71.44453125000008,
                        "value": 0.9763779527559056
                    },
                    {
                        "number": 7,
                        "time": 71.49609375000009,
                        "value": 0.968503937007874
                    },
                    {
                        "number": 7,
                        "time": 71.57343750000008,
                        "value": 0.9606299212598425
                    },
                    {
                        "number": 7,
                        "time": 71.65078125000008,
                        "value": 0.952755905511811
                    },
                    {
                        "number": 7,
                        "time": 71.70234375000008,
                        "value": 0.9448818897637795
                    },
                    {
                        "number": 7,
                        "time": 71.77968750000008,
                        "value": 0.937007874015748
                    },
                    {
                        "number": 7,
                        "time": 71.85703125000008,
                        "value": 0.9291338582677166
                    },
                    {
                        "number": 7,
                        "time": 71.90859375000008,
                        "value": 0.9212598425196851
                    },
                    {
                        "number": 7,
                        "time": 71.98593750000008,
                        "value": 0.9133858267716536
                    },
                    {
                        "number": 7,
                        "time": 72.06328125000007,
                        "value": 0.905511811023622
                    },
                    {
                        "number": 7,
                        "time": 72.11484375000008,
                        "value": 0.8976377952755905
                    },
                    {
                        "number": 7,
                        "time": 72.19218750000007,
                        "value": 0.889763779527559
                    },
                    {
                        "number": 7,
                        "time": 72.26953125000007,
                        "value": 0.8818897637795275
                    },
                    {
                        "number": 7,
                        "time": 72.34687500000007,
                        "value": 0.8740157480314961
                    },
                    {
                        "number": 7,
                        "time": 72.39843750000007,
                        "value": 0.8661417322834646
                    },
                    {
                        "number": 7,
                        "time": 72.47578125000007,
                        "value": 0.8582677165354331
                    },
                    {
                        "number": 7,
                        "time": 72.55312500000007,
                        "value": 0.8503937007874016
                    },
                    {
                        "number": 7,
                        "time": 72.60000000000007,
                        "value": 0.8267716535433071
                    },
                    {
                        "number": 7,
                        "time": 72.62578125000006,
                        "value": 0.8188976377952756
                    },
                    {
                        "number": 7,
                        "time": 72.65156250000005,
                        "value": 0.8110236220472441
                    },
                    {
                        "number": 7,
                        "time": 72.67734375000005,
                        "value": 0.8031496062992126
                    },
                    {
                        "number": 7,
                        "time": 72.70312500000004,
                        "value": 0.7952755905511811
                    },
                    {
                        "number": 7,
                        "time": 72.72890625000004,
                        "value": 0.7874015748031497
                    },
                    {
                        "number": 7,
                        "time": 72.75468750000003,
                        "value": 0.7795275590551181
                    },
                    {
                        "number": 7,
                        "time": 72.78046875000003,
                        "value": 0.7716535433070866
                    },
                    {
                        "number": 7,
                        "time": 72.80625000000002,
                        "value": 0.7637795275590551
                    },
                    {
                        "number": 7,
                        "time": 72.83203125000001,
                        "value": 0.7559055118110236
                    },
                    {
                        "number": 7,
                        "time": 72.85781250000001,
                        "value": 0.7480314960629921
                    },
                    {
                        "number": 7,
                        "time": 72.88359375,
                        "value": 0.7401574803149606
                    },
                    {
                        "number": 7,
                        "time": 72.909375,
                        "value": 0.7322834645669292
                    },
                    {
                        "number": 7,
                        "time": 72.93515624999999,
                        "value": 0.7244094488188977
                    },
                    {
                        "number": 7,
                        "time": 72.96093749999999,
                        "value": 0.7165354330708661
                    },
                    {
                        "number": 7,
                        "time": 72.98671874999998,
                        "value": 0.7086614173228346
                    },
                    {
                        "number": 7,
                        "time": 73.01249999999997,
                        "value": 0.7007874015748031
                    },
                    {
                        "number": 7,
                        "time": 73.03828124999997,
                        "value": 0.6929133858267716
                    },
                    {
                        "number": 7,
                        "time": 73.06406249999996,
                        "value": 0.6771653543307087
                    },
                    {
                        "number": 7,
                        "time": 73.08984374999996,
                        "value": 0.6692913385826772
                    },
                    {
                        "number": 7,
                        "time": 73.11562499999995,
                        "value": 0.6614173228346457
                    },
                    {
                        "number": 7,
                        "time": 73.14140624999995,
                        "value": 0.6535433070866141
                    },
                    {
                        "number": 7,
                        "time": 73.16718749999994,
                        "value": 0.6456692913385826
                    },
                    {
                        "number": 7,
                        "time": 73.19296874999993,
                        "value": 0.6377952755905512
                    },
                    {
                        "number": 7,
                        "time": 73.21874999999993,
                        "value": 0.6299212598425197
                    },
                    {
                        "number": 7,
                        "time": 73.24453124999992,
                        "value": 0.6220472440944882
                    },
                    {
                        "number": 7,
                        "time": 73.27031249999992,
                        "value": 0.6141732283464567
                    },
                    {
                        "number": 7,
                        "time": 73.29609374999991,
                        "value": 0.6062992125984252
                    },
                    {
                        "number": 7,
                        "time": 73.3218749999999,
                        "value": 0.5984251968503937
                    },
                    {
                        "number": 7,
                        "time": 73.3476562499999,
                        "value": 0.5905511811023622
                    },
                    {
                        "number": 7,
                        "time": 73.3734374999999,
                        "value": 0.5826771653543307
                    },
                    {
                        "number": 7,
                        "time": 73.39921874999989,
                        "value": 0.5748031496062992
                    },
                    {
                        "number": 7,
                        "time": 73.42499999999988,
                        "value": 0.5669291338582677
                    },
                    {
                        "number": 7,
                        "time": 73.45078124999988,
                        "value": 0.5590551181102362
                    },
                    {
                        "number": 7,
                        "time": 73.47656249999987,
                        "value": 0.5511811023622047
                    },
                    {
                        "number": 7,
                        "time": 73.50234374999987,
                        "value": 0.5354330708661418
                    },
                    {
                        "number": 7,
                        "time": 73.52812499999986,
                        "value": 0.5275590551181102
                    },
                    {
                        "number": 7,
                        "time": 73.55390624999986,
                        "value": 0.5196850393700787
                    },
                    {
                        "number": 7,
                        "time": 73.57968749999985,
                        "value": 0.5118110236220472
                    },
                    {
                        "number": 7,
                        "time": 73.60546874999984,
                        "value": 0.5039370078740157
                    },
                    {
                        "number": 7,
                        "time": 73.63124999999984,
                        "value": 0.49606299212598426
                    },
                    {
                        "number": 7,
                        "time": 73.65703124999983,
                        "value": 0.4881889763779528
                    },
                    {
                        "number": 7,
                        "time": 73.68281249999983,
                        "value": 0.48031496062992124
                    },
                    {
                        "number": 7,
                        "time": 73.70859374999982,
                        "value": 0.47244094488188976
                    },
                    {
                        "number": 7,
                        "time": 73.73437499999982,
                        "value": 0.4645669291338583
                    },
                    {
                        "number": 7,
                        "time": 73.76015624999981,
                        "value": 0.4566929133858268
                    },
                    {
                        "number": 7,
                        "time": 73.7859374999998,
                        "value": 0.44881889763779526
                    },
                    {
                        "number": 7,
                        "time": 73.8117187499998,
                        "value": 0.4409448818897638
                    }
                ],
                "10": [
                    {
                        "number": 10,
                        "time": 0,
                        "value": 0.3937007874015748
                    }
                ],
                "91": [
                    {
                        "number": 91,
                        "time": 0,
                        "value": 0.6299212598425197
                    }
                ],
                "93": [
                    {
                        "number": 93,
                        "time": 0,
                        "value": 1
                    }
                ],
                "121": [
                    {
                        "number": 121,
                        "time": 0,
                        "value": 1
                    },
                    {
                        "number": 121,
                        "time": 74.99999999999979,
                        "value": 1
                    }
                ]
            },
            "id": 2,
            "name": "Contraltos",
            "instrumentNumber": 52,
            "instrument": "choir aahs",
            "instrumentFamily": "ensemble",
            "channelNumber": 1,
            "isPercussion": false
        },
        {
            "startTime": 0.6,
            "duration": 74.39999999999979,
            "length": 159,
            "notes": [
                {
                    "name": "C4",
                    "midi": 60,
                    "time": 0.6,
                    "velocity": 0.3937007874015748,
                    "duration": 0.16523437499999993
                },
                {
                    "name": "C4",
                    "midi": 60,
                    "time": 0.8999999999999999,
                    "velocity": 0.3228346456692913,
                    "duration": 0.16523437500000004
                },
                {
                    "name": "E3",
                    "midi": 52,
                    "time": 1.2,
                    "velocity": 0.3937007874015748,
                    "duration": 0.16523437500000004
                },
                {
                    "name": "E3",
                    "midi": 52,
                    "time": 1.5,
                    "velocity": 0.3228346456692913,
                    "duration": 0.16523437500000004
                },
                {
                    "name": "D4",
                    "midi": 62,
                    "time": 1.8,
                    "velocity": 0.3937007874015748,
                    "duration": 0.16523437500000004
                },
                {
                    "name": "D4",
                    "midi": 62,
                    "time": 2.1,
                    "velocity": 0.33070866141732286,
                    "duration": 0.16523437499999982
                },
                {
                    "name": "F#3",
                    "midi": 54,
                    "time": 2.4,
                    "velocity": 0.4409448818897638,
                    "duration": 0.5097656250000004
                },
                {
                    "name": "C4",
                    "midi": 60,
                    "time": 3,
                    "velocity": 0.4015748031496063,
                    "duration": 0.16523437499999982
                },
                {
                    "name": "C4",
                    "midi": 60,
                    "time": 3.3,
                    "velocity": 0.33070866141732286,
                    "duration": 0.16523437499999982
                },
                {
                    "name": "E3",
                    "midi": 52,
                    "time": 3.5999999999999996,
                    "velocity": 0.3937007874015748,
                    "duration": 0.16523437499999982
                },
                {
                    "name": "E3",
                    "midi": 52,
                    "time": 3.8999999999999995,
                    "velocity": 0.33070866141732286,
                    "duration": 0.16523437499999982
                },
                {
                    "name": "D4",
                    "midi": 62,
                    "time": 4.199999999999999,
                    "velocity": 0.3937007874015748,
                    "duration": 0.16523437499999982
                },
                {
                    "name": "D4",
                    "midi": 62,
                    "time": 4.499999999999999,
                    "velocity": 0.33070866141732286,
                    "duration": 0.16523437499999982
                },
                {
                    "name": "F#3",
                    "midi": 54,
                    "time": 4.799999999999999,
                    "velocity": 0.4409448818897638,
                    "duration": 0.5097656250000009
                },
                {
                    "name": "E4",
                    "midi": 64,
                    "time": 5.3999999999999995,
                    "velocity": 0.5433070866141733,
                    "duration": 0.6000000000000005
                },
                {
                    "name": "D4",
                    "midi": 62,
                    "time": 6,
                    "velocity": 0.5511811023622047,
                    "duration": 0.6000000000000005
                },
                {
                    "name": "B3",
                    "midi": 59,
                    "time": 6.6000000000000005,
                    "velocity": 0.5354330708661418,
                    "duration": 0.16523437499999982
                },
                {
                    "name": "D4",
                    "midi": 62,
                    "time": 6.9,
                    "velocity": 0.41732283464566927,
                    "duration": 0.08261718750000036
                },
                {
                    "name": "D4",
                    "midi": 62,
                    "time": 7.050000000000001,
                    "velocity": 0.4251968503937008,
                    "duration": 0.08261718750000036
                },
                {
                    "name": "D4",
                    "midi": 62,
                    "time": 7.200000000000001,
                    "velocity": 0.4881889763779528,
                    "duration": 0.16523437499999982
                },
                {
                    "name": "D4",
                    "midi": 62,
                    "time": 7.500000000000001,
                    "velocity": 0.4409448818897638,
                    "duration": 0.16523437499999982
                },
                {
                    "name": "C4",
                    "midi": 60,
                    "time": 7.800000000000001,
                    "velocity": 0.5354330708661418,
                    "duration": 0.4499999999999993
                },
                {
                    "name": "D4",
                    "midi": 62,
                    "time": 8.25,
                    "velocity": 0.4330708661417323,
                    "duration": 0.08261718750000036
                },
                {
                    "name": "C4",
                    "midi": 60,
                    "time": 8.4,
                    "velocity": 0.48031496062992124,
                    "duration": 0.1652343750000007
                },
                {
                    "name": "B3",
                    "midi": 59,
                    "time": 8.700000000000001,
                    "velocity": 0.4645669291338583,
                    "duration": 0.1652343750000007
                },
                {
                    "name": "E3",
                    "midi": 52,
                    "time": 9.000000000000002,
                    "velocity": 0.4330708661417323,
                    "duration": 0.1652343750000007
                },
                {
                    "name": "F3",
                    "midi": 53,
                    "time": 9.300000000000002,
                    "velocity": 0.3937007874015748,
                    "duration": 0.1652343750000007
                },
                {
                    "name": "E3",
                    "midi": 52,
                    "time": 9.600000000000003,
                    "velocity": 0.3543307086614173,
                    "duration": 1.7097656249999797
                },
                {
                    "name": "F4",
                    "midi": 65,
                    "time": 11.399999999999983,
                    "velocity": 0.49606299212598426,
                    "duration": 0.1652343750000007
                },
                {
                    "name": "F4",
                    "midi": 65,
                    "time": 11.699999999999983,
                    "velocity": 0.3779527559055118,
                    "duration": 0.1652343750000007
                },
                {
                    "name": "F#4",
                    "midi": 66,
                    "time": 11.999999999999984,
                    "velocity": 0.4409448818897638,
                    "duration": 0.1652343750000007
                },
                {
                    "name": "F#4",
                    "midi": 66,
                    "time": 12.299999999999985,
                    "velocity": 0.4094488188976378,
                    "duration": 0.1652343750000007
                },
                {
                    "name": "E4",
                    "midi": 64,
                    "time": 12.599999999999985,
                    "velocity": 0.44881889763779526,
                    "duration": 0.1652343750000007
                },
                {
                    "name": "D4",
                    "midi": 62,
                    "time": 12.899999999999986,
                    "velocity": 0.3700787401574803,
                    "duration": 0.1652343750000007
                },
                {
                    "name": "A#3",
                    "midi": 58,
                    "time": 13.199999999999987,
                    "velocity": 0.47244094488188976,
                    "duration": 0.1652343750000007
                },
                {
                    "name": "A#3",
                    "midi": 58,
                    "time": 13.499999999999988,
                    "velocity": 0.4094488188976378,
                    "duration": 0.1652343750000007
                },
                {
                    "name": "B3",
                    "midi": 59,
                    "time": 13.799999999999988,
                    "velocity": 0.4015748031496063,
                    "duration": 0.1652343750000007
                },
                {
                    "name": "B3",
                    "midi": 59,
                    "time": 14.099999999999989,
                    "velocity": 0.3858267716535433,
                    "duration": 0.1652343750000007
                },
                {
                    "name": "A3",
                    "midi": 57,
                    "time": 14.39999999999999,
                    "velocity": 0.3779527559055118,
                    "duration": 0.1652343750000007
                },
                {
                    "name": "A3",
                    "midi": 57,
                    "time": 14.69999999999999,
                    "velocity": 0.33070866141732286,
                    "duration": 0.1652343750000007
                },
                {
                    "name": "F3",
                    "midi": 53,
                    "time": 14.999999999999991,
                    "velocity": 0.3700787401574803,
                    "duration": 0.5999999999999979
                },
                {
                    "name": "F#3",
                    "midi": 54,
                    "time": 15.599999999999989,
                    "velocity": 0.3937007874015748,
                    "duration": 0.5999999999999961
                },
                {
                    "name": "G3",
                    "midi": 55,
                    "time": 16.199999999999985,
                    "velocity": 0.41732283464566927,
                    "duration": 0.5999999999999908
                },
                {
                    "name": "F#3",
                    "midi": 54,
                    "time": 16.799999999999976,
                    "velocity": 0.4409448818897638,
                    "duration": 0.5999999999999908
                },
                {
                    "name": "G3",
                    "midi": 55,
                    "time": 17.399999999999967,
                    "velocity": 0.3858267716535433,
                    "duration": 0.5999999999999872
                },
                {
                    "name": "A3",
                    "midi": 57,
                    "time": 17.999999999999954,
                    "velocity": 0.33858267716535434,
                    "duration": 0.5999999999999943
                },
                {
                    "name": "C4",
                    "midi": 60,
                    "time": 19.199999999999946,
                    "velocity": 0.5826771653543307,
                    "duration": 1.20000000000001
                },
                {
                    "name": "D4",
                    "midi": 62,
                    "time": 20.399999999999956,
                    "velocity": 0.6220472440944882,
                    "duration": 0.6000000000000085
                },
                {
                    "name": "B3",
                    "midi": 59,
                    "time": 20.999999999999964,
                    "velocity": 0.8031496062992126,
                    "duration": 0.1652343750000007
                },
                {
                    "name": "C4",
                    "midi": 60,
                    "time": 21.599999999999966,
                    "velocity": 0.5984251968503937,
                    "duration": 1.2000000000000313
                },
                {
                    "name": "D4",
                    "midi": 62,
                    "time": 22.799999999999997,
                    "velocity": 0.6456692913385826,
                    "duration": 0.6000000000000227
                },
                {
                    "name": "B3",
                    "midi": 59,
                    "time": 23.40000000000002,
                    "velocity": 0.8188976377952756,
                    "duration": 0.1652343750000007
                },
                {
                    "name": "F4",
                    "midi": 65,
                    "time": 24.00000000000002,
                    "velocity": 0.44881889763779526,
                    "duration": 0.6000000000000014
                },
                {
                    "name": "D4",
                    "midi": 62,
                    "time": 24.600000000000023,
                    "velocity": 0.44881889763779526,
                    "duration": 0.6000000000000014
                },
                {
                    "name": "C4",
                    "midi": 60,
                    "time": 25.200000000000024,
                    "velocity": 0.4409448818897638,
                    "duration": 0.8999999999999986
                },
                {
                    "name": "D4",
                    "midi": 62,
                    "time": 26.100000000000023,
                    "velocity": 0.4330708661417323,
                    "duration": 0.3000000000000007
                },
                {
                    "name": "C4",
                    "midi": 60,
                    "time": 26.400000000000023,
                    "velocity": 0.4251968503937008,
                    "duration": 0.8999999999999986
                },
                {
                    "name": "B3",
                    "midi": 59,
                    "time": 27.300000000000022,
                    "velocity": 0.41732283464566927,
                    "duration": 0.6000000000000014
                },
                {
                    "name": "A#3",
                    "midi": 58,
                    "time": 27.900000000000023,
                    "velocity": 0.4094488188976378,
                    "duration": 0.3000000000000007
                },
                {
                    "name": "B3",
                    "midi": 59,
                    "time": 28.200000000000024,
                    "velocity": 0.4094488188976378,
                    "duration": 1.709765625000017
                },
                {
                    "name": "F4",
                    "midi": 65,
                    "time": 30.00000000000004,
                    "velocity": 0.6614173228346457,
                    "duration": 0.1277343749999993
                },
                {
                    "name": "F4",
                    "midi": 65,
                    "time": 30.150000000000038,
                    "velocity": 0.5275590551181102,
                    "duration": 0.1277343749999993
                },
                {
                    "name": "F4",
                    "midi": 65,
                    "time": 30.300000000000036,
                    "velocity": 0.5275590551181102,
                    "duration": 0.1277343749999993
                },
                {
                    "name": "F4",
                    "midi": 65,
                    "time": 30.450000000000035,
                    "velocity": 0.5275590551181102,
                    "duration": 0.1277343749999993
                },
                {
                    "name": "F#4",
                    "midi": 66,
                    "time": 30.600000000000033,
                    "velocity": 0.5826771653543307,
                    "duration": 0.1277343749999993
                },
                {
                    "name": "F#4",
                    "midi": 66,
                    "time": 30.750000000000032,
                    "velocity": 0.5196850393700787,
                    "duration": 0.1277343749999993
                },
                {
                    "name": "F#4",
                    "midi": 66,
                    "time": 30.90000000000003,
                    "velocity": 0.5196850393700787,
                    "duration": 0.1277343749999993
                },
                {
                    "name": "F#4",
                    "midi": 66,
                    "time": 31.05000000000003,
                    "velocity": 0.5196850393700787,
                    "duration": 0.1277343749999993
                },
                {
                    "name": "E4",
                    "midi": 64,
                    "time": 31.200000000000028,
                    "velocity": 0.5748031496062992,
                    "duration": 0.1277343749999993
                },
                {
                    "name": "E4",
                    "midi": 64,
                    "time": 31.350000000000026,
                    "velocity": 0.5118110236220472,
                    "duration": 0.1277343749999993
                },
                {
                    "name": "D4",
                    "midi": 62,
                    "time": 31.500000000000025,
                    "velocity": 0.5354330708661418,
                    "duration": 0.1277343749999993
                },
                {
                    "name": "D4",
                    "midi": 62,
                    "time": 31.650000000000023,
                    "velocity": 0.5118110236220472,
                    "duration": 0.1277343749999993
                },
                {
                    "name": "A#3",
                    "midi": 58,
                    "time": 31.800000000000022,
                    "velocity": 0.5905511811023622,
                    "duration": 0.1277343749999993
                },
                {
                    "name": "A#3",
                    "midi": 58,
                    "time": 31.95000000000002,
                    "velocity": 0.5039370078740157,
                    "duration": 0.1277343749999993
                },
                {
                    "name": "A#3",
                    "midi": 58,
                    "time": 32.10000000000002,
                    "velocity": 0.4881889763779528,
                    "duration": 0.12773437500000284
                },
                {
                    "name": "A#3",
                    "midi": 58,
                    "time": 32.25000000000003,
                    "velocity": 0.47244094488188976,
                    "duration": 0.12773437500000284
                },
                {
                    "name": "B3",
                    "midi": 59,
                    "time": 32.400000000000034,
                    "velocity": 0.5354330708661418,
                    "duration": 0.12773437500000284
                },
                {
                    "name": "B3",
                    "midi": 59,
                    "time": 32.55000000000004,
                    "velocity": 0.44881889763779526,
                    "duration": 0.12773437500000284
                },
                {
                    "name": "B3",
                    "midi": 59,
                    "time": 32.700000000000045,
                    "velocity": 0.4330708661417323,
                    "duration": 0.12773437500000284
                },
                {
                    "name": "B3",
                    "midi": 59,
                    "time": 32.85000000000005,
                    "velocity": 0.41732283464566927,
                    "duration": 0.12773437500000284
                },
                {
                    "name": "A3",
                    "midi": 57,
                    "time": 33.00000000000006,
                    "velocity": 0.48031496062992124,
                    "duration": 0.12773437500000284
                },
                {
                    "name": "A3",
                    "midi": 57,
                    "time": 33.15000000000006,
                    "velocity": 0.3937007874015748,
                    "duration": 0.12773437500000284
                },
                {
                    "name": "A3",
                    "midi": 57,
                    "time": 33.30000000000007,
                    "velocity": 0.3779527559055118,
                    "duration": 0.12773437500000284
                },
                {
                    "name": "A3",
                    "midi": 57,
                    "time": 33.450000000000074,
                    "velocity": 0.36220472440944884,
                    "duration": 0.12773437500000284
                },
                {
                    "name": "F3",
                    "midi": 53,
                    "time": 33.60000000000008,
                    "velocity": 0.4330708661417323,
                    "duration": 0.6000000000000085
                },
                {
                    "name": "F#3",
                    "midi": 54,
                    "time": 34.20000000000009,
                    "velocity": 0.44881889763779526,
                    "duration": 0.6000000000000156
                },
                {
                    "name": "G3",
                    "midi": 55,
                    "time": 34.800000000000104,
                    "velocity": 0.47244094488188976,
                    "duration": 0.6000000000000156
                },
                {
                    "name": "F#3",
                    "midi": 54,
                    "time": 35.40000000000012,
                    "velocity": 0.4881889763779528,
                    "duration": 0.6000000000000227
                },
                {
                    "name": "G3",
                    "midi": 55,
                    "time": 36.00000000000014,
                    "velocity": 0.4330708661417323,
                    "duration": 0.6000000000000227
                },
                {
                    "name": "A3",
                    "midi": 57,
                    "time": 36.600000000000165,
                    "velocity": 0.3700787401574803,
                    "duration": 0.30000000000000426
                },
                {
                    "name": "F4",
                    "midi": 65,
                    "time": 37.80000000000017,
                    "velocity": 0.3700787401574803,
                    "duration": 1.2000000000000028
                },
                {
                    "name": "A3",
                    "midi": 57,
                    "time": 39.00000000000017,
                    "velocity": 0.4251968503937008,
                    "duration": 0.6000000000000014
                },
                {
                    "name": "B3",
                    "midi": 59,
                    "time": 39.60000000000017,
                    "velocity": 0.3937007874015748,
                    "duration": 0.16523437499999716
                },
                {
                    "name": "F4",
                    "midi": 65,
                    "time": 40.200000000000166,
                    "velocity": 0.3779527559055118,
                    "duration": 1.2000000000000028
                },
                {
                    "name": "A3",
                    "midi": 57,
                    "time": 41.40000000000017,
                    "velocity": 0.4094488188976378,
                    "duration": 0.6000000000000014
                },
                {
                    "name": "B3",
                    "midi": 59,
                    "time": 42.00000000000017,
                    "velocity": 0.36220472440944884,
                    "duration": 0.16523437499999716
                },
                {
                    "name": "C5",
                    "midi": 72,
                    "time": 42.600000000000165,
                    "velocity": 0.4881889763779528,
                    "duration": 0.6000000000000014
                },
                {
                    "name": "B4",
                    "midi": 71,
                    "time": 43.200000000000166,
                    "velocity": 0.47244094488188976,
                    "duration": 0.5999999999999943
                },
                {
                    "name": "G4",
                    "midi": 67,
                    "time": 43.80000000000016,
                    "velocity": 0.48031496062992124,
                    "duration": 0.30000000000000426
                },
                {
                    "name": "B4",
                    "midi": 71,
                    "time": 44.100000000000165,
                    "velocity": 0.3858267716535433,
                    "duration": 0.12773437499999574
                },
                {
                    "name": "B4",
                    "midi": 71,
                    "time": 44.25000000000016,
                    "velocity": 0.3858267716535433,
                    "duration": 0.12773437500000284
                },
                {
                    "name": "B4",
                    "midi": 71,
                    "time": 44.40000000000017,
                    "velocity": 0.44881889763779526,
                    "duration": 0.16523437500000426
                },
                {
                    "name": "B4",
                    "midi": 71,
                    "time": 44.70000000000017,
                    "velocity": 0.44881889763779526,
                    "duration": 0.16523437499999716
                },
                {
                    "name": "A4",
                    "midi": 69,
                    "time": 45.00000000000017,
                    "velocity": 0.4566929133858268,
                    "duration": 0.45000000000000284
                },
                {
                    "name": "B4",
                    "midi": 71,
                    "time": 45.45000000000017,
                    "velocity": 0.48031496062992124,
                    "duration": 0.14999999999999858
                },
                {
                    "name": "A4",
                    "midi": 69,
                    "time": 45.60000000000017,
                    "velocity": 0.4881889763779528,
                    "duration": 0.30000000000000426
                },
                {
                    "name": "G4",
                    "midi": 67,
                    "time": 45.900000000000176,
                    "velocity": 0.4645669291338583,
                    "duration": 0.29999999999999716
                },
                {
                    "name": "E4",
                    "midi": 64,
                    "time": 46.20000000000017,
                    "velocity": 0.44881889763779526,
                    "duration": 0.29999999999999716
                },
                {
                    "name": "D4",
                    "midi": 62,
                    "time": 46.50000000000017,
                    "velocity": 0.41732283464566927,
                    "duration": 0.30000000000000426
                },
                {
                    "name": "E4",
                    "midi": 64,
                    "time": 46.800000000000175,
                    "velocity": 0.3858267716535433,
                    "duration": 1.7097656250000028
                },
                {
                    "name": "D4",
                    "midi": 62,
                    "time": 48.60000000000018,
                    "velocity": 0.4015748031496063,
                    "duration": 0.6000000000000014
                },
                {
                    "name": "E4",
                    "midi": 64,
                    "time": 49.20000000000018,
                    "velocity": 0.41732283464566927,
                    "duration": 1.1402343749999986
                },
                {
                    "name": "A4",
                    "midi": 69,
                    "time": 50.400000000000176,
                    "velocity": 0.4566929133858268,
                    "duration": 0.2847656249999986
                },
                {
                    "name": "A4",
                    "midi": 69,
                    "time": 50.70000000000017,
                    "velocity": 0.4409448818897638,
                    "duration": 0.30000000000000426
                },
                {
                    "name": "G4",
                    "midi": 67,
                    "time": 51.00000000000018,
                    "velocity": 0.4330708661417323,
                    "duration": 0.29999999999999716
                },
                {
                    "name": "A4",
                    "midi": 69,
                    "time": 51.300000000000175,
                    "velocity": 0.41732283464566927,
                    "duration": 0.29999999999999716
                },
                {
                    "name": "F4",
                    "midi": 65,
                    "time": 51.60000000000017,
                    "velocity": 0.4015748031496063,
                    "duration": 0.30000000000000426
                },
                {
                    "name": "E4",
                    "midi": 64,
                    "time": 51.900000000000176,
                    "velocity": 0.3937007874015748,
                    "duration": 0.29999999999999716
                },
                {
                    "name": "F4",
                    "midi": 65,
                    "time": 52.20000000000017,
                    "velocity": 0.3937007874015748,
                    "duration": 3
                },
                {
                    "name": "E4",
                    "midi": 64,
                    "time": 55.20000000000017,
                    "velocity": 0.3700787401574803,
                    "duration": 0.5999999999999943
                },
                {
                    "name": "A3",
                    "midi": 57,
                    "time": 56.40000000000017,
                    "velocity": 0.5590551181102362,
                    "duration": 0.16523437499999716
                },
                {
                    "name": "A3",
                    "midi": 57,
                    "time": 56.700000000000166,
                    "velocity": 0.5275590551181102,
                    "duration": 0.16523437499999716
                },
                {
                    "name": "D3",
                    "midi": 50,
                    "time": 57.00000000000016,
                    "velocity": 0.5275590551181102,
                    "duration": 0.16523437499999716
                },
                {
                    "name": "D3",
                    "midi": 50,
                    "time": 57.30000000000016,
                    "velocity": 0.5275590551181102,
                    "duration": 0.16523437499999716
                },
                {
                    "name": "A#3",
                    "midi": 58,
                    "time": 57.60000000000016,
                    "velocity": 0.5826771653543307,
                    "duration": 0.16523437499999716
                },
                {
                    "name": "A#3",
                    "midi": 58,
                    "time": 57.900000000000155,
                    "velocity": 0.5669291338582677,
                    "duration": 0.29999999999999716
                },
                {
                    "name": "E3",
                    "midi": 52,
                    "time": 58.20000000000015,
                    "velocity": 0.4881889763779528,
                    "duration": 0.32988281250000284
                },
                {
                    "name": "A3",
                    "midi": 57,
                    "time": 58.80000000000015,
                    "velocity": 0.5669291338582677,
                    "duration": 0.16523437499999716
                },
                {
                    "name": "A3",
                    "midi": 57,
                    "time": 59.10000000000015,
                    "velocity": 0.5275590551181102,
                    "duration": 0.16523437499999716
                },
                {
                    "name": "D3",
                    "midi": 50,
                    "time": 59.40000000000015,
                    "velocity": 0.5275590551181102,
                    "duration": 0.16523437499999716
                },
                {
                    "name": "D3",
                    "midi": 50,
                    "time": 59.700000000000145,
                    "velocity": 0.5275590551181102,
                    "duration": 0.16523437499999716
                },
                {
                    "name": "A#3",
                    "midi": 58,
                    "time": 60.00000000000014,
                    "velocity": 0.5748031496062992,
                    "duration": 0.16523437499999716
                },
                {
                    "name": "A#3",
                    "midi": 58,
                    "time": 60.30000000000014,
                    "velocity": 0.5354330708661418,
                    "duration": 0.29999999999999716
                },
                {
                    "name": "E3",
                    "midi": 52,
                    "time": 60.600000000000136,
                    "velocity": 0.4881889763779528,
                    "duration": 0.32988281250000284
                },
                {
                    "name": "D#4",
                    "midi": 63,
                    "time": 61.200000000000145,
                    "velocity": 0.48031496062992124,
                    "duration": 0.6000000000000085
                },
                {
                    "name": "D4",
                    "midi": 62,
                    "time": 61.80000000000015,
                    "velocity": 0.5354330708661418,
                    "duration": 0.6000000000000014
                },
                {
                    "name": "C#4",
                    "midi": 61,
                    "time": 62.400000000000155,
                    "velocity": 0.5826771653543307,
                    "duration": 0.9000000000000057
                },
                {
                    "name": "C4",
                    "midi": 60,
                    "time": 63.30000000000016,
                    "velocity": 0.6614173228346457,
                    "duration": 1.20000000000001
                },
                {
                    "name": "B3",
                    "midi": 59,
                    "time": 64.50000000000017,
                    "velocity": 0.6535433070866141,
                    "duration": 0.5999999999999517
                },
                {
                    "name": "A#3",
                    "midi": 58,
                    "time": 65.10000000000012,
                    "velocity": 0.6456692913385826,
                    "duration": 0.29999999999998295
                },
                {
                    "name": "B3",
                    "midi": 59,
                    "time": 65.4000000000001,
                    "velocity": 0.5984251968503937,
                    "duration": 0.6000000000000227
                },
                {
                    "name": "F4",
                    "midi": 65,
                    "time": 67.20000000000012,
                    "velocity": 0.7401574803149606,
                    "duration": 0.16523437499999716
                },
                {
                    "name": "F4",
                    "midi": 65,
                    "time": 67.50000000000011,
                    "velocity": 0.6692913385826772,
                    "duration": 0.16523437499999716
                },
                {
                    "name": "F#4",
                    "midi": 66,
                    "time": 67.80000000000011,
                    "velocity": 0.6692913385826772,
                    "duration": 0.16523437499999716
                },
                {
                    "name": "F#4",
                    "midi": 66,
                    "time": 68.10000000000011,
                    "velocity": 0.6692913385826772,
                    "duration": 0.16523437499999716
                },
                {
                    "name": "E4",
                    "midi": 64,
                    "time": 68.4000000000001,
                    "velocity": 0.6692913385826772,
                    "duration": 0.16523437499999716
                },
                {
                    "name": "D4",
                    "midi": 62,
                    "time": 68.7000000000001,
                    "velocity": 0.6692913385826772,
                    "duration": 0.16523437499999716
                },
                {
                    "name": "A#3",
                    "midi": 58,
                    "time": 69.0000000000001,
                    "velocity": 0.7244094488188977,
                    "duration": 0.16523437499999716
                },
                {
                    "name": "A#3",
                    "midi": 58,
                    "time": 69.3000000000001,
                    "velocity": 0.6692913385826772,
                    "duration": 0.16523437499999716
                },
                {
                    "name": "B3",
                    "midi": 59,
                    "time": 69.6000000000001,
                    "velocity": 0.6141732283464567,
                    "duration": 0.16523437499999716
                },
                {
                    "name": "B3",
                    "midi": 59,
                    "time": 69.90000000000009,
                    "velocity": 0.5590551181102362,
                    "duration": 0.16523437499999716
                },
                {
                    "name": "A3",
                    "midi": 57,
                    "time": 70.20000000000009,
                    "velocity": 0.5039370078740157,
                    "duration": 0.16523437499999716
                },
                {
                    "name": "A3",
                    "midi": 57,
                    "time": 70.50000000000009,
                    "velocity": 0.3779527559055118,
                    "duration": 0.16523437499999716
                },
                {
                    "name": "F3",
                    "midi": 53,
                    "time": 70.80000000000008,
                    "velocity": 0.3700787401574803,
                    "duration": 0.5999999999999943
                },
                {
                    "name": "F#3",
                    "midi": 54,
                    "time": 71.40000000000008,
                    "velocity": 0.4015748031496063,
                    "duration": 0.5999999999999943
                },
                {
                    "name": "G3",
                    "midi": 55,
                    "time": 72.00000000000007,
                    "velocity": 0.4330708661417323,
                    "duration": 0.5999999999999943
                },
                {
                    "name": "A3",
                    "midi": 57,
                    "time": 72.60000000000007,
                    "velocity": 0.4330708661417323,
                    "duration": 0.5999999999998664
                },
                {
                    "name": "C4",
                    "midi": 60,
                    "time": 73.19999999999993,
                    "velocity": 0.4094488188976378,
                    "duration": 0.5701171874998749
                },
                {
                    "name": "A4",
                    "midi": 69,
                    "time": 73.7999999999998,
                    "velocity": 0.3858267716535433,
                    "duration": 0.5999999999999943
                }
            ],
            "controlChanges": {
                "1": [
                    {
                        "number": 1,
                        "time": 0,
                        "value": 0.03937007874015748
                    }
                ],
                "7": [
                    {
                        "number": 7,
                        "time": 0,
                        "value": 1
                    },
                    {
                        "number": 7,
                        "time": 2.4,
                        "value": 1
                    },
                    {
                        "number": 7,
                        "time": 2.4187499999999997,
                        "value": 1
                    },
                    {
                        "number": 7,
                        "time": 2.4556640625,
                        "value": 0.9448818897637795
                    },
                    {
                        "number": 7,
                        "time": 2.492578125,
                        "value": 0.8818897637795275
                    },
                    {
                        "number": 7,
                        "time": 2.5294921875000003,
                        "value": 0.8188976377952756
                    },
                    {
                        "number": 7,
                        "time": 2.5664062500000004,
                        "value": 0.7559055118110236
                    },
                    {
                        "number": 7,
                        "time": 2.98125,
                        "value": 1
                    },
                    {
                        "number": 7,
                        "time": 4.799999999999999,
                        "value": 1
                    },
                    {
                        "number": 7,
                        "time": 4.818749999999999,
                        "value": 1
                    },
                    {
                        "number": 7,
                        "time": 4.855664062499999,
                        "value": 0.937007874015748
                    },
                    {
                        "number": 7,
                        "time": 4.892578124999999,
                        "value": 0.8740157480314961
                    },
                    {
                        "number": 7,
                        "time": 4.929492187499999,
                        "value": 0.8110236220472441
                    },
                    {
                        "number": 7,
                        "time": 4.9664062499999995,
                        "value": 0.7480314960629921
                    },
                    {
                        "number": 7,
                        "time": 5.38125,
                        "value": 1
                    },
                    {
                        "number": 7,
                        "time": 5.3999999999999995,
                        "value": 1
                    },
                    {
                        "number": 7,
                        "time": 5.4369140625,
                        "value": 0.9448818897637795
                    },
                    {
                        "number": 7,
                        "time": 5.473828125,
                        "value": 0.8740157480314961
                    },
                    {
                        "number": 7,
                        "time": 5.5107421875,
                        "value": 0.8110236220472441
                    },
                    {
                        "number": 7,
                        "time": 5.54765625,
                        "value": 0.7401574803149606
                    },
                    {
                        "number": 7,
                        "time": 6,
                        "value": 1
                    },
                    {
                        "number": 7,
                        "time": 6.01875,
                        "value": 1
                    },
                    {
                        "number": 7,
                        "time": 6.0556640625,
                        "value": 0.9291338582677166
                    },
                    {
                        "number": 7,
                        "time": 6.092578125,
                        "value": 0.8582677165354331
                    },
                    {
                        "number": 7,
                        "time": 6.1294921875,
                        "value": 0.7874015748031497
                    },
                    {
                        "number": 7,
                        "time": 6.1664062500000005,
                        "value": 0.7165354330708661
                    },
                    {
                        "number": 7,
                        "time": 6.6000000000000005,
                        "value": 1
                    },
                    {
                        "number": 7,
                        "time": 10.068750000000003,
                        "value": 1
                    },
                    {
                        "number": 7,
                        "time": 10.105664062500002,
                        "value": 0.9921259842519685
                    },
                    {
                        "number": 7,
                        "time": 10.142578125000002,
                        "value": 0.984251968503937
                    },
                    {
                        "number": 7,
                        "time": 10.179492187500001,
                        "value": 0.9763779527559056
                    },
                    {
                        "number": 7,
                        "time": 10.21640625,
                        "value": 0.9606299212598425
                    },
                    {
                        "number": 7,
                        "time": 10.2533203125,
                        "value": 0.952755905511811
                    },
                    {
                        "number": 7,
                        "time": 10.290234374999999,
                        "value": 0.9448818897637795
                    },
                    {
                        "number": 7,
                        "time": 10.327148437499998,
                        "value": 0.937007874015748
                    },
                    {
                        "number": 7,
                        "time": 10.364062499999998,
                        "value": 0.9212598425196851
                    },
                    {
                        "number": 7,
                        "time": 10.400976562499997,
                        "value": 0.9133858267716536
                    },
                    {
                        "number": 7,
                        "time": 10.437890624999996,
                        "value": 0.905511811023622
                    },
                    {
                        "number": 7,
                        "time": 10.474804687499995,
                        "value": 0.8976377952755905
                    },
                    {
                        "number": 7,
                        "time": 10.511718749999995,
                        "value": 0.8818897637795275
                    },
                    {
                        "number": 7,
                        "time": 10.548632812499994,
                        "value": 0.8740157480314961
                    },
                    {
                        "number": 7,
                        "time": 10.585546874999993,
                        "value": 0.8661417322834646
                    },
                    {
                        "number": 7,
                        "time": 10.622460937499993,
                        "value": 0.8582677165354331
                    },
                    {
                        "number": 7,
                        "time": 10.659374999999992,
                        "value": 0.84251968503937
                    },
                    {
                        "number": 7,
                        "time": 10.696289062499991,
                        "value": 0.8346456692913385
                    },
                    {
                        "number": 7,
                        "time": 10.73320312499999,
                        "value": 0.8267716535433071
                    },
                    {
                        "number": 7,
                        "time": 10.77011718749999,
                        "value": 0.8188976377952756
                    },
                    {
                        "number": 7,
                        "time": 10.79999999999999,
                        "value": 0.8031496062992126
                    },
                    {
                        "number": 7,
                        "time": 10.83691406249999,
                        "value": 0.7716535433070866
                    },
                    {
                        "number": 7,
                        "time": 10.873828124999989,
                        "value": 0.7322834645669292
                    },
                    {
                        "number": 7,
                        "time": 10.910742187499988,
                        "value": 0.7007874015748031
                    },
                    {
                        "number": 7,
                        "time": 10.947656249999987,
                        "value": 0.6614173228346457
                    },
                    {
                        "number": 7,
                        "time": 10.984570312499986,
                        "value": 0.6220472440944882
                    },
                    {
                        "number": 7,
                        "time": 11.021484374999986,
                        "value": 0.5905511811023622
                    },
                    {
                        "number": 7,
                        "time": 11.058398437499985,
                        "value": 0.5511811023622047
                    },
                    {
                        "number": 7,
                        "time": 11.095312499999984,
                        "value": 0.5196850393700787
                    },
                    {
                        "number": 7,
                        "time": 11.132226562499984,
                        "value": 0.48031496062992124
                    },
                    {
                        "number": 7,
                        "time": 11.169140624999983,
                        "value": 0.4409448818897638
                    },
                    {
                        "number": 7,
                        "time": 11.206054687499982,
                        "value": 0.4094488188976378
                    },
                    {
                        "number": 7,
                        "time": 11.399999999999983,
                        "value": 1
                    },
                    {
                        "number": 7,
                        "time": 14.906249999999991,
                        "value": 0.7874015748031497
                    },
                    {
                        "number": 7,
                        "time": 14.98124999999999,
                        "value": 0.7559055118110236
                    },
                    {
                        "number": 7,
                        "time": 15.05507812499999,
                        "value": 0.7637795275590551
                    },
                    {
                        "number": 7,
                        "time": 15.128906249999991,
                        "value": 0.7716535433070866
                    },
                    {
                        "number": 7,
                        "time": 15.16582031249999,
                        "value": 0.7795275590551181
                    },
                    {
                        "number": 7,
                        "time": 15.23964843749999,
                        "value": 0.7874015748031497
                    },
                    {
                        "number": 7,
                        "time": 15.27656249999999,
                        "value": 0.7952755905511811
                    },
                    {
                        "number": 7,
                        "time": 15.35039062499999,
                        "value": 0.8031496062992126
                    },
                    {
                        "number": 7,
                        "time": 15.42421874999999,
                        "value": 0.8110236220472441
                    },
                    {
                        "number": 7,
                        "time": 15.46113281249999,
                        "value": 0.8188976377952756
                    },
                    {
                        "number": 7,
                        "time": 15.53496093749999,
                        "value": 0.8267716535433071
                    },
                    {
                        "number": 7,
                        "time": 15.57187499999999,
                        "value": 0.8346456692913385
                    },
                    {
                        "number": 7,
                        "time": 15.645703124999988,
                        "value": 0.84251968503937
                    },
                    {
                        "number": 7,
                        "time": 15.719531249999989,
                        "value": 0.8503937007874016
                    },
                    {
                        "number": 7,
                        "time": 15.756445312499988,
                        "value": 0.8582677165354331
                    },
                    {
                        "number": 7,
                        "time": 15.830273437499988,
                        "value": 0.8661417322834646
                    },
                    {
                        "number": 7,
                        "time": 15.867187499999988,
                        "value": 0.8740157480314961
                    },
                    {
                        "number": 7,
                        "time": 15.941015624999988,
                        "value": 0.8818897637795275
                    },
                    {
                        "number": 7,
                        "time": 16.014843749999986,
                        "value": 0.889763779527559
                    },
                    {
                        "number": 7,
                        "time": 16.051757812499986,
                        "value": 0.8976377952755905
                    },
                    {
                        "number": 7,
                        "time": 16.125585937499984,
                        "value": 0.905511811023622
                    },
                    {
                        "number": 7,
                        "time": 16.162499999999984,
                        "value": 0.9133858267716536
                    },
                    {
                        "number": 7,
                        "time": 16.236328124999986,
                        "value": 0.9212598425196851
                    },
                    {
                        "number": 7,
                        "time": 16.273242187499985,
                        "value": 0.9291338582677166
                    },
                    {
                        "number": 7,
                        "time": 16.347070312499984,
                        "value": 0.937007874015748
                    },
                    {
                        "number": 7,
                        "time": 16.420898437499982,
                        "value": 0.9448818897637795
                    },
                    {
                        "number": 7,
                        "time": 16.45781249999998,
                        "value": 0.952755905511811
                    },
                    {
                        "number": 7,
                        "time": 16.53164062499998,
                        "value": 0.9606299212598425
                    },
                    {
                        "number": 7,
                        "time": 16.56855468749998,
                        "value": 0.968503937007874
                    },
                    {
                        "number": 7,
                        "time": 16.642382812499978,
                        "value": 0.9763779527559056
                    },
                    {
                        "number": 7,
                        "time": 16.716210937499977,
                        "value": 0.984251968503937
                    },
                    {
                        "number": 7,
                        "time": 16.753124999999976,
                        "value": 0.9921259842519685
                    },
                    {
                        "number": 7,
                        "time": 16.837499999999977,
                        "value": 0.9921259842519685
                    },
                    {
                        "number": 7,
                        "time": 16.911328124999976,
                        "value": 0.984251968503937
                    },
                    {
                        "number": 7,
                        "time": 16.948242187499975,
                        "value": 0.9763779527559056
                    },
                    {
                        "number": 7,
                        "time": 16.985156249999974,
                        "value": 0.968503937007874
                    },
                    {
                        "number": 7,
                        "time": 17.058984374999973,
                        "value": 0.9606299212598425
                    },
                    {
                        "number": 7,
                        "time": 17.095898437499972,
                        "value": 0.952755905511811
                    },
                    {
                        "number": 7,
                        "time": 17.13281249999997,
                        "value": 0.9448818897637795
                    },
                    {
                        "number": 7,
                        "time": 17.16972656249997,
                        "value": 0.937007874015748
                    },
                    {
                        "number": 7,
                        "time": 17.24355468749997,
                        "value": 0.9291338582677166
                    },
                    {
                        "number": 7,
                        "time": 17.28046874999997,
                        "value": 0.9212598425196851
                    },
                    {
                        "number": 7,
                        "time": 17.317382812499968,
                        "value": 0.9133858267716536
                    },
                    {
                        "number": 7,
                        "time": 17.354296874999967,
                        "value": 0.905511811023622
                    },
                    {
                        "number": 7,
                        "time": 17.428124999999966,
                        "value": 0.8976377952755905
                    },
                    {
                        "number": 7,
                        "time": 17.465039062499965,
                        "value": 0.889763779527559
                    },
                    {
                        "number": 7,
                        "time": 17.501953124999964,
                        "value": 0.8818897637795275
                    },
                    {
                        "number": 7,
                        "time": 17.538867187499964,
                        "value": 0.8740157480314961
                    },
                    {
                        "number": 7,
                        "time": 17.612695312499962,
                        "value": 0.8661417322834646
                    },
                    {
                        "number": 7,
                        "time": 17.64960937499996,
                        "value": 0.8582677165354331
                    },
                    {
                        "number": 7,
                        "time": 17.68652343749996,
                        "value": 0.8503937007874016
                    },
                    {
                        "number": 7,
                        "time": 17.72343749999996,
                        "value": 0.84251968503937
                    },
                    {
                        "number": 7,
                        "time": 17.79726562499996,
                        "value": 0.8346456692913385
                    },
                    {
                        "number": 7,
                        "time": 17.834179687499958,
                        "value": 0.8267716535433071
                    },
                    {
                        "number": 7,
                        "time": 17.871093749999957,
                        "value": 0.8188976377952756
                    },
                    {
                        "number": 7,
                        "time": 17.908007812499957,
                        "value": 0.8110236220472441
                    },
                    {
                        "number": 7,
                        "time": 17.981835937499955,
                        "value": 0.8031496062992126
                    },
                    {
                        "number": 7,
                        "time": 18.262499999999953,
                        "value": 0.8031496062992126
                    },
                    {
                        "number": 7,
                        "time": 18.299414062499952,
                        "value": 0.7637795275590551
                    },
                    {
                        "number": 7,
                        "time": 18.33632812499995,
                        "value": 0.7165354330708661
                    },
                    {
                        "number": 7,
                        "time": 18.37324218749995,
                        "value": 0.6692913385826772
                    },
                    {
                        "number": 7,
                        "time": 18.41015624999995,
                        "value": 0.6220472440944882
                    },
                    {
                        "number": 7,
                        "time": 18.44707031249995,
                        "value": 0.5826771653543307
                    },
                    {
                        "number": 7,
                        "time": 18.48398437499995,
                        "value": 0.5354330708661418
                    },
                    {
                        "number": 7,
                        "time": 18.520898437499948,
                        "value": 0.4881889763779528
                    },
                    {
                        "number": 7,
                        "time": 18.557812499999947,
                        "value": 0.4409448818897638
                    },
                    {
                        "number": 7,
                        "time": 18.594726562499947,
                        "value": 0.3937007874015748
                    },
                    {
                        "number": 7,
                        "time": 19.031249999999947,
                        "value": 0.33070866141732286
                    },
                    {
                        "number": 7,
                        "time": 19.537499999999945,
                        "value": 0.3228346456692913
                    },
                    {
                        "number": 7,
                        "time": 19.588476562499945,
                        "value": 0.33070866141732286
                    },
                    {
                        "number": 7,
                        "time": 19.639453124999946,
                        "value": 0.3464566929133858
                    },
                    {
                        "number": 7,
                        "time": 19.690429687499947,
                        "value": 0.36220472440944884
                    },
                    {
                        "number": 7,
                        "time": 19.741406249999947,
                        "value": 0.3700787401574803
                    },
                    {
                        "number": 7,
                        "time": 19.792382812499948,
                        "value": 0.3858267716535433
                    },
                    {
                        "number": 7,
                        "time": 19.84335937499995,
                        "value": 0.4015748031496063
                    },
                    {
                        "number": 7,
                        "time": 19.89433593749995,
                        "value": 0.4094488188976378
                    },
                    {
                        "number": 7,
                        "time": 19.94531249999995,
                        "value": 0.4251968503937008
                    },
                    {
                        "number": 7,
                        "time": 19.99628906249995,
                        "value": 0.4409448818897638
                    },
                    {
                        "number": 7,
                        "time": 20.04726562499995,
                        "value": 0.44881889763779526
                    },
                    {
                        "number": 7,
                        "time": 20.098242187499952,
                        "value": 0.4645669291338583
                    },
                    {
                        "number": 7,
                        "time": 20.149218749999953,
                        "value": 0.48031496062992124
                    },
                    {
                        "number": 7,
                        "time": 20.200195312499954,
                        "value": 0.49606299212598426
                    },
                    {
                        "number": 7,
                        "time": 20.251171874999955,
                        "value": 0.5039370078740157
                    },
                    {
                        "number": 7,
                        "time": 20.302148437499955,
                        "value": 0.5196850393700787
                    },
                    {
                        "number": 7,
                        "time": 20.353124999999956,
                        "value": 0.5354330708661418
                    },
                    {
                        "number": 7,
                        "time": 20.404101562499957,
                        "value": 0.5433070866141733
                    },
                    {
                        "number": 7,
                        "time": 20.455078124999957,
                        "value": 0.5590551181102362
                    },
                    {
                        "number": 7,
                        "time": 20.506054687499958,
                        "value": 0.5748031496062992
                    },
                    {
                        "number": 7,
                        "time": 20.55703124999996,
                        "value": 0.5826771653543307
                    },
                    {
                        "number": 7,
                        "time": 20.56874999999996,
                        "value": 0.5748031496062992
                    },
                    {
                        "number": 7,
                        "time": 20.61972656249996,
                        "value": 0.6220472440944882
                    },
                    {
                        "number": 7,
                        "time": 20.67070312499996,
                        "value": 0.6692913385826772
                    },
                    {
                        "number": 7,
                        "time": 20.72167968749996,
                        "value": 0.7165354330708661
                    },
                    {
                        "number": 7,
                        "time": 20.77265624999996,
                        "value": 0.7637795275590551
                    },
                    {
                        "number": 7,
                        "time": 20.823632812499962,
                        "value": 0.8110236220472441
                    },
                    {
                        "number": 7,
                        "time": 20.874609374999963,
                        "value": 0.8582677165354331
                    },
                    {
                        "number": 7,
                        "time": 20.925585937499964,
                        "value": 0.905511811023622
                    },
                    {
                        "number": 7,
                        "time": 20.976562499999964,
                        "value": 0.952755905511811
                    },
                    {
                        "number": 7,
                        "time": 20.999999999999964,
                        "value": 1
                    },
                    {
                        "number": 7,
                        "time": 21.562499999999964,
                        "value": 0.30708661417322836
                    },
                    {
                        "number": 7,
                        "time": 22.012499999999967,
                        "value": 0.2992125984251969
                    },
                    {
                        "number": 7,
                        "time": 22.04707031249997,
                        "value": 0.30708661417322836
                    },
                    {
                        "number": 7,
                        "time": 22.08164062499997,
                        "value": 0.31496062992125984
                    },
                    {
                        "number": 7,
                        "time": 22.11621093749997,
                        "value": 0.3228346456692913
                    },
                    {
                        "number": 7,
                        "time": 22.150781249999973,
                        "value": 0.33070866141732286
                    },
                    {
                        "number": 7,
                        "time": 22.185351562499974,
                        "value": 0.33858267716535434
                    },
                    {
                        "number": 7,
                        "time": 22.219921874999976,
                        "value": 0.3464566929133858
                    },
                    {
                        "number": 7,
                        "time": 22.254492187499977,
                        "value": 0.3543307086614173
                    },
                    {
                        "number": 7,
                        "time": 22.28906249999998,
                        "value": 0.3700787401574803
                    },
                    {
                        "number": 7,
                        "time": 22.32363281249998,
                        "value": 0.3779527559055118
                    },
                    {
                        "number": 7,
                        "time": 22.35820312499998,
                        "value": 0.3858267716535433
                    },
                    {
                        "number": 7,
                        "time": 22.392773437499983,
                        "value": 0.3937007874015748
                    },
                    {
                        "number": 7,
                        "time": 22.427343749999984,
                        "value": 0.4015748031496063
                    },
                    {
                        "number": 7,
                        "time": 22.461914062499986,
                        "value": 0.4094488188976378
                    },
                    {
                        "number": 7,
                        "time": 22.496484374999987,
                        "value": 0.41732283464566927
                    },
                    {
                        "number": 7,
                        "time": 22.53105468749999,
                        "value": 0.4251968503937008
                    },
                    {
                        "number": 7,
                        "time": 22.56562499999999,
                        "value": 0.4409448818897638
                    },
                    {
                        "number": 7,
                        "time": 22.60019531249999,
                        "value": 0.44881889763779526
                    },
                    {
                        "number": 7,
                        "time": 22.634765624999993,
                        "value": 0.4566929133858268
                    },
                    {
                        "number": 7,
                        "time": 22.669335937499994,
                        "value": 0.4645669291338583
                    },
                    {
                        "number": 7,
                        "time": 22.703906249999996,
                        "value": 0.47244094488188976
                    },
                    {
                        "number": 7,
                        "time": 22.738476562499997,
                        "value": 0.48031496062992124
                    },
                    {
                        "number": 7,
                        "time": 22.773046875,
                        "value": 0.4881889763779528
                    },
                    {
                        "number": 7,
                        "time": 22.807617187499996,
                        "value": 0.5039370078740157
                    },
                    {
                        "number": 7,
                        "time": 22.842187499999998,
                        "value": 0.5118110236220472
                    },
                    {
                        "number": 7,
                        "time": 22.8767578125,
                        "value": 0.5196850393700787
                    },
                    {
                        "number": 7,
                        "time": 22.911328125,
                        "value": 0.5275590551181102
                    },
                    {
                        "number": 7,
                        "time": 22.945898437500002,
                        "value": 0.5354330708661418
                    },
                    {
                        "number": 7,
                        "time": 22.980468750000004,
                        "value": 0.5433070866141733
                    },
                    {
                        "number": 7,
                        "time": 23.015039062500005,
                        "value": 0.5511811023622047
                    },
                    {
                        "number": 7,
                        "time": 23.049609375000006,
                        "value": 0.5590551181102362
                    },
                    {
                        "number": 7,
                        "time": 23.081250000000008,
                        "value": 0.5748031496062992
                    },
                    {
                        "number": 7,
                        "time": 23.11582031250001,
                        "value": 0.6141732283464567
                    },
                    {
                        "number": 7,
                        "time": 23.15039062500001,
                        "value": 0.6614173228346457
                    },
                    {
                        "number": 7,
                        "time": 23.184960937500012,
                        "value": 0.7007874015748031
                    },
                    {
                        "number": 7,
                        "time": 23.219531250000014,
                        "value": 0.7480314960629921
                    },
                    {
                        "number": 7,
                        "time": 23.254101562500015,
                        "value": 0.7874015748031497
                    },
                    {
                        "number": 7,
                        "time": 23.288671875000016,
                        "value": 0.8346456692913385
                    },
                    {
                        "number": 7,
                        "time": 23.323242187500018,
                        "value": 0.8740157480314961
                    },
                    {
                        "number": 7,
                        "time": 23.35781250000002,
                        "value": 0.9212598425196851
                    },
                    {
                        "number": 7,
                        "time": 23.38125000000002,
                        "value": 0.9921259842519685
                    },
                    {
                        "number": 7,
                        "time": 23.39238281250002,
                        "value": 0.9606299212598425
                    },
                    {
                        "number": 7,
                        "time": 23.40000000000002,
                        "value": 1
                    },
                    {
                        "number": 7,
                        "time": 28.706250000000026,
                        "value": 1
                    },
                    {
                        "number": 7,
                        "time": 28.757226562500026,
                        "value": 0.9921259842519685
                    },
                    {
                        "number": 7,
                        "time": 28.808203125000027,
                        "value": 0.984251968503937
                    },
                    {
                        "number": 7,
                        "time": 28.859179687500028,
                        "value": 0.9763779527559056
                    },
                    {
                        "number": 7,
                        "time": 28.91015625000003,
                        "value": 0.968503937007874
                    },
                    {
                        "number": 7,
                        "time": 28.96113281250003,
                        "value": 0.952755905511811
                    },
                    {
                        "number": 7,
                        "time": 29.01210937500003,
                        "value": 0.9448818897637795
                    },
                    {
                        "number": 7,
                        "time": 29.06308593750003,
                        "value": 0.937007874015748
                    },
                    {
                        "number": 7,
                        "time": 29.11406250000003,
                        "value": 0.9291338582677166
                    },
                    {
                        "number": 7,
                        "time": 29.165039062500032,
                        "value": 0.9133858267716536
                    },
                    {
                        "number": 7,
                        "time": 29.216015625000033,
                        "value": 0.905511811023622
                    },
                    {
                        "number": 7,
                        "time": 29.266992187500033,
                        "value": 0.8976377952755905
                    },
                    {
                        "number": 7,
                        "time": 29.317968750000034,
                        "value": 0.889763779527559
                    },
                    {
                        "number": 7,
                        "time": 29.368945312500035,
                        "value": 0.8740157480314961
                    },
                    {
                        "number": 7,
                        "time": 29.419921875000036,
                        "value": 0.8661417322834646
                    },
                    {
                        "number": 7,
                        "time": 29.470898437500036,
                        "value": 0.8582677165354331
                    },
                    {
                        "number": 7,
                        "time": 29.521875000000037,
                        "value": 0.8503937007874016
                    },
                    {
                        "number": 7,
                        "time": 29.572851562500038,
                        "value": 0.84251968503937
                    },
                    {
                        "number": 7,
                        "time": 29.62382812500004,
                        "value": 0.8267716535433071
                    },
                    {
                        "number": 7,
                        "time": 29.67480468750004,
                        "value": 0.8188976377952756
                    },
                    {
                        "number": 7,
                        "time": 29.681250000000038,
                        "value": 0.8110236220472441
                    },
                    {
                        "number": 7,
                        "time": 29.73222656250004,
                        "value": 0.7086614173228346
                    },
                    {
                        "number": 7,
                        "time": 29.78320312500004,
                        "value": 0.6062992125984252
                    },
                    {
                        "number": 7,
                        "time": 29.83417968750004,
                        "value": 0.5039370078740157
                    },
                    {
                        "number": 7,
                        "time": 29.98125000000004,
                        "value": 1
                    },
                    {
                        "number": 7,
                        "time": 33.61230468750008,
                        "value": 0.9921259842519685
                    },
                    {
                        "number": 7,
                        "time": 33.716015625000075,
                        "value": 0.984251968503937
                    },
                    {
                        "number": 7,
                        "time": 33.78515625000008,
                        "value": 0.9763779527559056
                    },
                    {
                        "number": 7,
                        "time": 33.85429687500008,
                        "value": 0.968503937007874
                    },
                    {
                        "number": 7,
                        "time": 33.923437500000084,
                        "value": 0.9606299212598425
                    },
                    {
                        "number": 7,
                        "time": 33.99257812500009,
                        "value": 0.952755905511811
                    },
                    {
                        "number": 7,
                        "time": 34.096289062500084,
                        "value": 0.9448818897637795
                    },
                    {
                        "number": 7,
                        "time": 34.16542968750009,
                        "value": 0.937007874015748
                    },
                    {
                        "number": 7,
                        "time": 34.23457031250009,
                        "value": 0.9291338582677166
                    },
                    {
                        "number": 7,
                        "time": 34.30371093750009,
                        "value": 0.9212598425196851
                    },
                    {
                        "number": 7,
                        "time": 34.372851562500095,
                        "value": 0.9133858267716536
                    },
                    {
                        "number": 7,
                        "time": 34.4419921875001,
                        "value": 0.905511811023622
                    },
                    {
                        "number": 7,
                        "time": 34.545703125000095,
                        "value": 0.8976377952755905
                    },
                    {
                        "number": 7,
                        "time": 34.6148437500001,
                        "value": 0.889763779527559
                    },
                    {
                        "number": 7,
                        "time": 34.6839843750001,
                        "value": 0.8818897637795275
                    },
                    {
                        "number": 7,
                        "time": 34.753125000000104,
                        "value": 0.8740157480314961
                    },
                    {
                        "number": 7,
                        "time": 34.82226562500011,
                        "value": 0.8661417322834646
                    },
                    {
                        "number": 7,
                        "time": 34.89140625000011,
                        "value": 0.8582677165354331
                    },
                    {
                        "number": 7,
                        "time": 34.99511718750011,
                        "value": 0.8503937007874016
                    },
                    {
                        "number": 7,
                        "time": 35.06425781250011,
                        "value": 0.84251968503937
                    },
                    {
                        "number": 7,
                        "time": 35.13339843750011,
                        "value": 0.8346456692913385
                    },
                    {
                        "number": 7,
                        "time": 35.202539062500115,
                        "value": 0.8267716535433071
                    },
                    {
                        "number": 7,
                        "time": 35.27167968750012,
                        "value": 0.8188976377952756
                    },
                    {
                        "number": 7,
                        "time": 35.34082031250012,
                        "value": 0.8110236220472441
                    },
                    {
                        "number": 7,
                        "time": 35.41230468750012,
                        "value": 0.8031496062992126
                    },
                    {
                        "number": 7,
                        "time": 35.48144531250012,
                        "value": 0.7952755905511811
                    },
                    {
                        "number": 7,
                        "time": 35.51601562500012,
                        "value": 0.7874015748031497
                    },
                    {
                        "number": 7,
                        "time": 35.585156250000125,
                        "value": 0.7795275590551181
                    },
                    {
                        "number": 7,
                        "time": 35.61972656250013,
                        "value": 0.7716535433070866
                    },
                    {
                        "number": 7,
                        "time": 35.68886718750013,
                        "value": 0.7637795275590551
                    },
                    {
                        "number": 7,
                        "time": 35.72343750000013,
                        "value": 0.7559055118110236
                    },
                    {
                        "number": 7,
                        "time": 35.792578125000134,
                        "value": 0.7480314960629921
                    },
                    {
                        "number": 7,
                        "time": 35.827148437500135,
                        "value": 0.7401574803149606
                    },
                    {
                        "number": 7,
                        "time": 35.89628906250014,
                        "value": 0.7322834645669292
                    },
                    {
                        "number": 7,
                        "time": 35.93085937500014,
                        "value": 0.7244094488188977
                    },
                    {
                        "number": 7,
                        "time": 36.00000000000014,
                        "value": 0.7165354330708661
                    },
                    {
                        "number": 7,
                        "time": 36.03457031250014,
                        "value": 0.7086614173228346
                    },
                    {
                        "number": 7,
                        "time": 36.103710937500146,
                        "value": 0.7007874015748031
                    },
                    {
                        "number": 7,
                        "time": 36.13828125000015,
                        "value": 0.6929133858267716
                    },
                    {
                        "number": 7,
                        "time": 36.17285156250015,
                        "value": 0.6850393700787402
                    },
                    {
                        "number": 7,
                        "time": 36.24199218750015,
                        "value": 0.6771653543307087
                    },
                    {
                        "number": 7,
                        "time": 36.27656250000015,
                        "value": 0.6692913385826772
                    },
                    {
                        "number": 7,
                        "time": 36.345703125000156,
                        "value": 0.6614173228346457
                    },
                    {
                        "number": 7,
                        "time": 36.38027343750016,
                        "value": 0.6535433070866141
                    },
                    {
                        "number": 7,
                        "time": 36.424804687500156,
                        "value": 0.6456692913385826
                    },
                    {
                        "number": 7,
                        "time": 36.45937500000016,
                        "value": 0.6141732283464567
                    },
                    {
                        "number": 7,
                        "time": 36.49394531250016,
                        "value": 0.5748031496062992
                    },
                    {
                        "number": 7,
                        "time": 36.52851562500016,
                        "value": 0.5354330708661418
                    },
                    {
                        "number": 7,
                        "time": 36.56308593750016,
                        "value": 0.5039370078740157
                    },
                    {
                        "number": 7,
                        "time": 36.59765625000016,
                        "value": 0.4645669291338583
                    },
                    {
                        "number": 7,
                        "time": 36.632226562500165,
                        "value": 0.4251968503937008
                    },
                    {
                        "number": 7,
                        "time": 36.666796875000166,
                        "value": 0.3858267716535433
                    },
                    {
                        "number": 7,
                        "time": 37.75605468750017,
                        "value": 1
                    },
                    {
                        "number": 7,
                        "time": 39.00000000000017,
                        "value": 1
                    },
                    {
                        "number": 7,
                        "time": 39.03808593750017,
                        "value": 0.9763779527559056
                    },
                    {
                        "number": 7,
                        "time": 39.07617187500017,
                        "value": 0.952755905511811
                    },
                    {
                        "number": 7,
                        "time": 39.11425781250017,
                        "value": 0.9291338582677166
                    },
                    {
                        "number": 7,
                        "time": 39.15234375000017,
                        "value": 0.905511811023622
                    },
                    {
                        "number": 7,
                        "time": 39.19042968750017,
                        "value": 0.8818897637795275
                    },
                    {
                        "number": 7,
                        "time": 39.22851562500017,
                        "value": 0.8582677165354331
                    },
                    {
                        "number": 7,
                        "time": 39.26660156250017,
                        "value": 0.8346456692913385
                    },
                    {
                        "number": 7,
                        "time": 39.30468750000017,
                        "value": 0.8031496062992126
                    },
                    {
                        "number": 7,
                        "time": 39.34277343750017,
                        "value": 0.7795275590551181
                    },
                    {
                        "number": 7,
                        "time": 39.38085937500017,
                        "value": 0.7559055118110236
                    },
                    {
                        "number": 7,
                        "time": 39.41894531250017,
                        "value": 0.7322834645669292
                    },
                    {
                        "number": 7,
                        "time": 39.45703125000017,
                        "value": 0.7086614173228346
                    },
                    {
                        "number": 7,
                        "time": 39.49511718750017,
                        "value": 0.6850393700787402
                    },
                    {
                        "number": 7,
                        "time": 39.53320312500017,
                        "value": 0.6614173228346457
                    },
                    {
                        "number": 7,
                        "time": 39.57128906250017,
                        "value": 0.6299212598425197
                    },
                    {
                        "number": 7,
                        "time": 39.60937500000017,
                        "value": 0.6062992125984252
                    },
                    {
                        "number": 7,
                        "time": 40.18125000000017,
                        "value": 1
                    },
                    {
                        "number": 7,
                        "time": 41.43750000000017,
                        "value": 0.984251968503937
                    },
                    {
                        "number": 7,
                        "time": 41.47558593750017,
                        "value": 0.9606299212598425
                    },
                    {
                        "number": 7,
                        "time": 41.51367187500017,
                        "value": 0.937007874015748
                    },
                    {
                        "number": 7,
                        "time": 41.55175781250017,
                        "value": 0.9133858267716536
                    },
                    {
                        "number": 7,
                        "time": 41.58984375000017,
                        "value": 0.889763779527559
                    },
                    {
                        "number": 7,
                        "time": 41.62792968750017,
                        "value": 0.8582677165354331
                    },
                    {
                        "number": 7,
                        "time": 41.66601562500017,
                        "value": 0.8346456692913385
                    },
                    {
                        "number": 7,
                        "time": 41.70410156250017,
                        "value": 0.8110236220472441
                    },
                    {
                        "number": 7,
                        "time": 41.74218750000017,
                        "value": 0.7874015748031497
                    },
                    {
                        "number": 7,
                        "time": 41.78027343750017,
                        "value": 0.7637795275590551
                    },
                    {
                        "number": 7,
                        "time": 41.81835937500017,
                        "value": 0.7322834645669292
                    },
                    {
                        "number": 7,
                        "time": 41.85644531250017,
                        "value": 0.7086614173228346
                    },
                    {
                        "number": 7,
                        "time": 41.89453125000017,
                        "value": 0.6850393700787402
                    },
                    {
                        "number": 7,
                        "time": 41.93261718750017,
                        "value": 0.6614173228346457
                    },
                    {
                        "number": 7,
                        "time": 41.97070312500017,
                        "value": 0.6377952755905512
                    },
                    {
                        "number": 7,
                        "time": 42.00878906250017,
                        "value": 0.6062992125984252
                    },
                    {
                        "number": 7,
                        "time": 42.58125000000017,
                        "value": 0.49606299212598426
                    },
                    {
                        "number": 7,
                        "time": 43.21875000000016,
                        "value": 0.5039370078740157
                    },
                    {
                        "number": 7,
                        "time": 43.33300781250016,
                        "value": 0.5118110236220472
                    },
                    {
                        "number": 7,
                        "time": 43.40917968750016,
                        "value": 0.5196850393700787
                    },
                    {
                        "number": 7,
                        "time": 43.48535156250016,
                        "value": 0.5275590551181102
                    },
                    {
                        "number": 7,
                        "time": 43.56152343750016,
                        "value": 0.5354330708661418
                    },
                    {
                        "number": 7,
                        "time": 43.63769531250016,
                        "value": 0.5433070866141733
                    },
                    {
                        "number": 7,
                        "time": 43.71386718750016,
                        "value": 0.5511811023622047
                    },
                    {
                        "number": 7,
                        "time": 43.79003906250016,
                        "value": 0.5590551181102362
                    },
                    {
                        "number": 7,
                        "time": 43.90429687500016,
                        "value": 0.5669291338582677
                    },
                    {
                        "number": 7,
                        "time": 43.98046875000016,
                        "value": 0.5748031496062992
                    },
                    {
                        "number": 7,
                        "time": 44.05664062500016,
                        "value": 0.5826771653543307
                    },
                    {
                        "number": 7,
                        "time": 44.13281250000016,
                        "value": 0.5905511811023622
                    },
                    {
                        "number": 7,
                        "time": 44.20898437500016,
                        "value": 0.5984251968503937
                    },
                    {
                        "number": 7,
                        "time": 44.28515625000016,
                        "value": 0.6062992125984252
                    },
                    {
                        "number": 7,
                        "time": 44.36132812500016,
                        "value": 0.6141732283464567
                    },
                    {
                        "number": 7,
                        "time": 44.43750000000017,
                        "value": 0.6220472440944882
                    },
                    {
                        "number": 7,
                        "time": 44.55175781250017,
                        "value": 0.6299212598425197
                    },
                    {
                        "number": 7,
                        "time": 44.62792968750017,
                        "value": 0.6377952755905512
                    },
                    {
                        "number": 7,
                        "time": 44.70410156250017,
                        "value": 0.6456692913385826
                    },
                    {
                        "number": 7,
                        "time": 44.78027343750017,
                        "value": 0.6535433070866141
                    },
                    {
                        "number": 7,
                        "time": 44.85644531250017,
                        "value": 0.6614173228346457
                    },
                    {
                        "number": 7,
                        "time": 44.93261718750017,
                        "value": 0.6692913385826772
                    },
                    {
                        "number": 7,
                        "time": 45.00000000000017,
                        "value": 0.6771653543307087
                    },
                    {
                        "number": 7,
                        "time": 45.03808593750017,
                        "value": 0.6929133858267716
                    },
                    {
                        "number": 7,
                        "time": 45.07617187500017,
                        "value": 0.7165354330708661
                    },
                    {
                        "number": 7,
                        "time": 45.11425781250017,
                        "value": 0.7322834645669292
                    },
                    {
                        "number": 7,
                        "time": 45.15234375000017,
                        "value": 0.7559055118110236
                    },
                    {
                        "number": 7,
                        "time": 45.19042968750017,
                        "value": 0.7716535433070866
                    },
                    {
                        "number": 7,
                        "time": 45.22851562500017,
                        "value": 0.7952755905511811
                    },
                    {
                        "number": 7,
                        "time": 45.26660156250017,
                        "value": 0.8110236220472441
                    },
                    {
                        "number": 7,
                        "time": 45.30468750000017,
                        "value": 0.8346456692913385
                    },
                    {
                        "number": 7,
                        "time": 45.34277343750017,
                        "value": 0.8503937007874016
                    },
                    {
                        "number": 7,
                        "time": 45.38085937500017,
                        "value": 0.8740157480314961
                    },
                    {
                        "number": 7,
                        "time": 45.41894531250017,
                        "value": 0.889763779527559
                    },
                    {
                        "number": 7,
                        "time": 45.45703125000017,
                        "value": 0.9133858267716536
                    },
                    {
                        "number": 7,
                        "time": 45.49511718750017,
                        "value": 0.9291338582677166
                    },
                    {
                        "number": 7,
                        "time": 45.53320312500017,
                        "value": 0.952755905511811
                    },
                    {
                        "number": 7,
                        "time": 45.57128906250017,
                        "value": 0.968503937007874
                    },
                    {
                        "number": 7,
                        "time": 45.60937500000017,
                        "value": 0.9921259842519685
                    },
                    {
                        "number": 7,
                        "time": 45.82500000000017,
                        "value": 0.984251968503937
                    },
                    {
                        "number": 7,
                        "time": 45.86308593750017,
                        "value": 0.9763779527559056
                    },
                    {
                        "number": 7,
                        "time": 45.90117187500017,
                        "value": 0.9606299212598425
                    },
                    {
                        "number": 7,
                        "time": 45.93925781250017,
                        "value": 0.9448818897637795
                    },
                    {
                        "number": 7,
                        "time": 45.97734375000017,
                        "value": 0.9291338582677166
                    },
                    {
                        "number": 7,
                        "time": 46.01542968750017,
                        "value": 0.9133858267716536
                    },
                    {
                        "number": 7,
                        "time": 46.05351562500017,
                        "value": 0.8976377952755905
                    },
                    {
                        "number": 7,
                        "time": 46.09160156250017,
                        "value": 0.8818897637795275
                    },
                    {
                        "number": 7,
                        "time": 46.12968750000017,
                        "value": 0.8661417322834646
                    },
                    {
                        "number": 7,
                        "time": 46.16777343750017,
                        "value": 0.8503937007874016
                    },
                    {
                        "number": 7,
                        "time": 46.20585937500017,
                        "value": 0.8346456692913385
                    },
                    {
                        "number": 7,
                        "time": 46.24394531250017,
                        "value": 0.8188976377952756
                    },
                    {
                        "number": 7,
                        "time": 46.28203125000017,
                        "value": 0.8031496062992126
                    },
                    {
                        "number": 7,
                        "time": 46.32011718750017,
                        "value": 0.7874015748031497
                    },
                    {
                        "number": 7,
                        "time": 46.35820312500017,
                        "value": 0.7716535433070866
                    },
                    {
                        "number": 7,
                        "time": 46.39628906250017,
                        "value": 0.7559055118110236
                    },
                    {
                        "number": 7,
                        "time": 46.43437500000017,
                        "value": 0.7401574803149606
                    },
                    {
                        "number": 7,
                        "time": 46.47246093750017,
                        "value": 0.7244094488188977
                    },
                    {
                        "number": 7,
                        "time": 46.51054687500017,
                        "value": 0.7086614173228346
                    },
                    {
                        "number": 7,
                        "time": 46.54863281250017,
                        "value": 0.6929133858267716
                    },
                    {
                        "number": 7,
                        "time": 46.58671875000017,
                        "value": 0.6771653543307087
                    },
                    {
                        "number": 7,
                        "time": 46.62480468750017,
                        "value": 0.6692913385826772
                    },
                    {
                        "number": 7,
                        "time": 46.66289062500017,
                        "value": 0.6535433070866141
                    },
                    {
                        "number": 7,
                        "time": 46.70097656250017,
                        "value": 0.6377952755905512
                    },
                    {
                        "number": 7,
                        "time": 46.73906250000017,
                        "value": 0.6220472440944882
                    },
                    {
                        "number": 7,
                        "time": 46.77714843750017,
                        "value": 0.6062992125984252
                    },
                    {
                        "number": 7,
                        "time": 46.931250000000176,
                        "value": 0.5984251968503937
                    },
                    {
                        "number": 7,
                        "time": 47.121679687500176,
                        "value": 0.5905511811023622
                    },
                    {
                        "number": 7,
                        "time": 47.274023437500176,
                        "value": 0.5826771653543307
                    },
                    {
                        "number": 7,
                        "time": 47.426367187500176,
                        "value": 0.5748031496062992
                    },
                    {
                        "number": 7,
                        "time": 47.578710937500176,
                        "value": 0.5669291338582677
                    },
                    {
                        "number": 7,
                        "time": 47.731054687500176,
                        "value": 0.5590551181102362
                    },
                    {
                        "number": 7,
                        "time": 47.883398437500176,
                        "value": 0.5511811023622047
                    },
                    {
                        "number": 7,
                        "time": 48.035742187500176,
                        "value": 0.5433070866141733
                    },
                    {
                        "number": 7,
                        "time": 48.18750000000018,
                        "value": 0.5354330708661418
                    },
                    {
                        "number": 7,
                        "time": 48.22558593750018,
                        "value": 0.49606299212598426
                    },
                    {
                        "number": 7,
                        "time": 48.26367187500018,
                        "value": 0.44881889763779526
                    },
                    {
                        "number": 7,
                        "time": 48.30175781250018,
                        "value": 0.4015748031496063
                    },
                    {
                        "number": 7,
                        "time": 48.33984375000018,
                        "value": 0.3543307086614173
                    },
                    {
                        "number": 7,
                        "time": 48.37792968750018,
                        "value": 0.30708661417322836
                    },
                    {
                        "number": 7,
                        "time": 48.41601562500018,
                        "value": 0.2677165354330709
                    },
                    {
                        "number": 7,
                        "time": 48.56250000000018,
                        "value": 0.5511811023622047
                    },
                    {
                        "number": 7,
                        "time": 48.60058593750018,
                        "value": 0.5590551181102362
                    },
                    {
                        "number": 7,
                        "time": 48.63867187500018,
                        "value": 0.5669291338582677
                    },
                    {
                        "number": 7,
                        "time": 48.67675781250018,
                        "value": 0.5748031496062992
                    },
                    {
                        "number": 7,
                        "time": 48.71484375000018,
                        "value": 0.5826771653543307
                    },
                    {
                        "number": 7,
                        "time": 48.75292968750018,
                        "value": 0.5905511811023622
                    },
                    {
                        "number": 7,
                        "time": 48.79101562500018,
                        "value": 0.5984251968503937
                    },
                    {
                        "number": 7,
                        "time": 48.82910156250018,
                        "value": 0.6062992125984252
                    },
                    {
                        "number": 7,
                        "time": 48.86718750000018,
                        "value": 0.6141732283464567
                    },
                    {
                        "number": 7,
                        "time": 48.90527343750018,
                        "value": 0.6220472440944882
                    },
                    {
                        "number": 7,
                        "time": 48.94335937500018,
                        "value": 0.6299212598425197
                    },
                    {
                        "number": 7,
                        "time": 48.98144531250018,
                        "value": 0.6377952755905512
                    },
                    {
                        "number": 7,
                        "time": 49.01953125000018,
                        "value": 0.6456692913385826
                    },
                    {
                        "number": 7,
                        "time": 49.05761718750018,
                        "value": 0.6535433070866141
                    },
                    {
                        "number": 7,
                        "time": 49.09570312500018,
                        "value": 0.6614173228346457
                    },
                    {
                        "number": 7,
                        "time": 49.13378906250018,
                        "value": 0.6692913385826772
                    },
                    {
                        "number": 7,
                        "time": 49.17187500000018,
                        "value": 0.6771653543307087
                    },
                    {
                        "number": 7,
                        "time": 49.20996093750018,
                        "value": 0.6850393700787402
                    },
                    {
                        "number": 7,
                        "time": 49.24804687500018,
                        "value": 0.6929133858267716
                    },
                    {
                        "number": 7,
                        "time": 49.28613281250018,
                        "value": 0.7007874015748031
                    },
                    {
                        "number": 7,
                        "time": 49.32421875000018,
                        "value": 0.7086614173228346
                    },
                    {
                        "number": 7,
                        "time": 49.36230468750018,
                        "value": 0.7165354330708661
                    },
                    {
                        "number": 7,
                        "time": 49.40039062500018,
                        "value": 0.7244094488188977
                    },
                    {
                        "number": 7,
                        "time": 49.43847656250018,
                        "value": 0.7322834645669292
                    },
                    {
                        "number": 7,
                        "time": 49.47656250000018,
                        "value": 0.7401574803149606
                    },
                    {
                        "number": 7,
                        "time": 49.51464843750018,
                        "value": 0.7480314960629921
                    },
                    {
                        "number": 7,
                        "time": 49.55273437500018,
                        "value": 0.7559055118110236
                    },
                    {
                        "number": 7,
                        "time": 49.59082031250018,
                        "value": 0.7716535433070866
                    },
                    {
                        "number": 7,
                        "time": 49.62890625000018,
                        "value": 0.7795275590551181
                    },
                    {
                        "number": 7,
                        "time": 49.66699218750018,
                        "value": 0.7874015748031497
                    },
                    {
                        "number": 7,
                        "time": 49.70507812500018,
                        "value": 0.7952755905511811
                    },
                    {
                        "number": 7,
                        "time": 49.74316406250018,
                        "value": 0.8031496062992126
                    },
                    {
                        "number": 7,
                        "time": 49.78125000000018,
                        "value": 0.8110236220472441
                    },
                    {
                        "number": 7,
                        "time": 49.81933593750018,
                        "value": 0.8188976377952756
                    },
                    {
                        "number": 7,
                        "time": 49.85742187500018,
                        "value": 0.8267716535433071
                    },
                    {
                        "number": 7,
                        "time": 49.89550781250018,
                        "value": 0.8346456692913385
                    },
                    {
                        "number": 7,
                        "time": 49.93359375000018,
                        "value": 0.84251968503937
                    },
                    {
                        "number": 7,
                        "time": 49.97167968750018,
                        "value": 0.8503937007874016
                    },
                    {
                        "number": 7,
                        "time": 50.00976562500018,
                        "value": 0.8582677165354331
                    },
                    {
                        "number": 7,
                        "time": 50.04785156250018,
                        "value": 0.8661417322834646
                    },
                    {
                        "number": 7,
                        "time": 50.08593750000018,
                        "value": 0.8740157480314961
                    },
                    {
                        "number": 7,
                        "time": 50.12402343750018,
                        "value": 0.8818897637795275
                    },
                    {
                        "number": 7,
                        "time": 50.16210937500018,
                        "value": 0.889763779527559
                    },
                    {
                        "number": 7,
                        "time": 50.20019531250018,
                        "value": 0.8976377952755905
                    },
                    {
                        "number": 7,
                        "time": 50.23828125000018,
                        "value": 0.905511811023622
                    },
                    {
                        "number": 7,
                        "time": 50.27636718750018,
                        "value": 0.9133858267716536
                    },
                    {
                        "number": 7,
                        "time": 50.31445312500018,
                        "value": 0.9212598425196851
                    },
                    {
                        "number": 7,
                        "time": 50.456250000000175,
                        "value": 0.9291338582677166
                    },
                    {
                        "number": 7,
                        "time": 50.532421875000175,
                        "value": 0.9212598425196851
                    },
                    {
                        "number": 7,
                        "time": 50.570507812500175,
                        "value": 0.9133858267716536
                    },
                    {
                        "number": 7,
                        "time": 50.608593750000175,
                        "value": 0.905511811023622
                    },
                    {
                        "number": 7,
                        "time": 50.646679687500175,
                        "value": 0.8976377952755905
                    },
                    {
                        "number": 7,
                        "time": 50.722851562500175,
                        "value": 0.889763779527559
                    },
                    {
                        "number": 7,
                        "time": 50.760937500000175,
                        "value": 0.8818897637795275
                    },
                    {
                        "number": 7,
                        "time": 50.799023437500175,
                        "value": 0.8740157480314961
                    },
                    {
                        "number": 7,
                        "time": 50.837109375000175,
                        "value": 0.8661417322834646
                    },
                    {
                        "number": 7,
                        "time": 50.913281250000175,
                        "value": 0.8582677165354331
                    },
                    {
                        "number": 7,
                        "time": 50.951367187500175,
                        "value": 0.8503937007874016
                    },
                    {
                        "number": 7,
                        "time": 50.989453125000175,
                        "value": 0.84251968503937
                    },
                    {
                        "number": 7,
                        "time": 51.027539062500175,
                        "value": 0.8346456692913385
                    },
                    {
                        "number": 7,
                        "time": 51.065625000000175,
                        "value": 0.8267716535433071
                    },
                    {
                        "number": 7,
                        "time": 51.141796875000175,
                        "value": 0.8188976377952756
                    },
                    {
                        "number": 7,
                        "time": 51.179882812500175,
                        "value": 0.8110236220472441
                    },
                    {
                        "number": 7,
                        "time": 51.217968750000175,
                        "value": 0.8031496062992126
                    },
                    {
                        "number": 7,
                        "time": 51.256054687500175,
                        "value": 0.7952755905511811
                    },
                    {
                        "number": 7,
                        "time": 51.332226562500175,
                        "value": 0.7874015748031497
                    },
                    {
                        "number": 7,
                        "time": 51.370312500000175,
                        "value": 0.7795275590551181
                    },
                    {
                        "number": 7,
                        "time": 51.408398437500175,
                        "value": 0.7716535433070866
                    },
                    {
                        "number": 7,
                        "time": 51.446484375000175,
                        "value": 0.7637795275590551
                    },
                    {
                        "number": 7,
                        "time": 51.522656250000175,
                        "value": 0.7559055118110236
                    },
                    {
                        "number": 7,
                        "time": 51.560742187500175,
                        "value": 0.7480314960629921
                    },
                    {
                        "number": 7,
                        "time": 51.598828125000175,
                        "value": 0.7401574803149606
                    },
                    {
                        "number": 7,
                        "time": 51.636914062500175,
                        "value": 0.7322834645669292
                    },
                    {
                        "number": 7,
                        "time": 51.675000000000175,
                        "value": 0.7244094488188977
                    },
                    {
                        "number": 7,
                        "time": 51.751171875000175,
                        "value": 0.7165354330708661
                    },
                    {
                        "number": 7,
                        "time": 51.768750000000175,
                        "value": 0.7086614173228346
                    },
                    {
                        "number": 7,
                        "time": 51.806835937500175,
                        "value": 0.6929133858267716
                    },
                    {
                        "number": 7,
                        "time": 51.844921875000175,
                        "value": 0.6771653543307087
                    },
                    {
                        "number": 7,
                        "time": 51.883007812500175,
                        "value": 0.6535433070866141
                    },
                    {
                        "number": 7,
                        "time": 51.921093750000175,
                        "value": 0.6377952755905512
                    },
                    {
                        "number": 7,
                        "time": 51.959179687500175,
                        "value": 0.6220472440944882
                    },
                    {
                        "number": 7,
                        "time": 51.997265625000175,
                        "value": 0.5984251968503937
                    },
                    {
                        "number": 7,
                        "time": 52.035351562500175,
                        "value": 0.5826771653543307
                    },
                    {
                        "number": 7,
                        "time": 52.073437500000175,
                        "value": 0.5590551181102362
                    },
                    {
                        "number": 7,
                        "time": 52.111523437500175,
                        "value": 0.5433070866141733
                    },
                    {
                        "number": 7,
                        "time": 52.149609375000175,
                        "value": 0.5275590551181102
                    },
                    {
                        "number": 7,
                        "time": 52.187695312500175,
                        "value": 0.5039370078740157
                    },
                    {
                        "number": 7,
                        "time": 54.018750000000175,
                        "value": 0.5039370078740157
                    },
                    {
                        "number": 7,
                        "time": 54.07500000000017,
                        "value": 0.5039370078740157
                    },
                    {
                        "number": 7,
                        "time": 54.56250000000017,
                        "value": 0.49606299212598426
                    },
                    {
                        "number": 7,
                        "time": 54.63867187500017,
                        "value": 0.4881889763779528
                    },
                    {
                        "number": 7,
                        "time": 54.67675781250017,
                        "value": 0.48031496062992124
                    },
                    {
                        "number": 7,
                        "time": 54.71484375000017,
                        "value": 0.47244094488188976
                    },
                    {
                        "number": 7,
                        "time": 54.79101562500017,
                        "value": 0.4645669291338583
                    },
                    {
                        "number": 7,
                        "time": 54.82910156250017,
                        "value": 0.4566929133858268
                    },
                    {
                        "number": 7,
                        "time": 54.86718750000017,
                        "value": 0.44881889763779526
                    },
                    {
                        "number": 7,
                        "time": 54.94335937500017,
                        "value": 0.4409448818897638
                    },
                    {
                        "number": 7,
                        "time": 54.98144531250017,
                        "value": 0.4330708661417323
                    },
                    {
                        "number": 7,
                        "time": 55.01953125000017,
                        "value": 0.4251968503937008
                    },
                    {
                        "number": 7,
                        "time": 55.09570312500017,
                        "value": 0.41732283464566927
                    },
                    {
                        "number": 7,
                        "time": 55.13378906250017,
                        "value": 0.4094488188976378
                    },
                    {
                        "number": 7,
                        "time": 55.17187500000017,
                        "value": 0.4015748031496063
                    },
                    {
                        "number": 7,
                        "time": 55.21875000000017,
                        "value": 0.3937007874015748
                    },
                    {
                        "number": 7,
                        "time": 55.37109375000017,
                        "value": 0.3858267716535433
                    },
                    {
                        "number": 7,
                        "time": 55.51875000000017,
                        "value": 0.3779527559055118
                    },
                    {
                        "number": 7,
                        "time": 55.55683593750017,
                        "value": 0.3543307086614173
                    },
                    {
                        "number": 7,
                        "time": 55.59492187500017,
                        "value": 0.33070866141732286
                    },
                    {
                        "number": 7,
                        "time": 55.63300781250017,
                        "value": 0.30708661417322836
                    },
                    {
                        "number": 7,
                        "time": 55.67109375000017,
                        "value": 0.28346456692913385
                    },
                    {
                        "number": 7,
                        "time": 55.70917968750017,
                        "value": 0.25984251968503935
                    },
                    {
                        "number": 7,
                        "time": 55.74726562500017,
                        "value": 0.2283464566929134
                    },
                    {
                        "number": 7,
                        "time": 56.36250000000017,
                        "value": 1
                    },
                    {
                        "number": 7,
                        "time": 61.200000000000145,
                        "value": 1
                    },
                    {
                        "number": 7,
                        "time": 61.225781250000146,
                        "value": 0.9606299212598425
                    },
                    {
                        "number": 7,
                        "time": 61.25156250000015,
                        "value": 0.9133858267716536
                    },
                    {
                        "number": 7,
                        "time": 61.27734375000015,
                        "value": 0.8661417322834646
                    },
                    {
                        "number": 7,
                        "time": 61.30312500000015,
                        "value": 0.8188976377952756
                    },
                    {
                        "number": 7,
                        "time": 61.32890625000015,
                        "value": 0.7716535433070866
                    },
                    {
                        "number": 7,
                        "time": 61.80000000000015,
                        "value": 1
                    },
                    {
                        "number": 7,
                        "time": 61.81875000000015,
                        "value": 1
                    },
                    {
                        "number": 7,
                        "time": 61.84453125000015,
                        "value": 0.9606299212598425
                    },
                    {
                        "number": 7,
                        "time": 61.87031250000015,
                        "value": 0.9133858267716536
                    },
                    {
                        "number": 7,
                        "time": 61.896093750000155,
                        "value": 0.8661417322834646
                    },
                    {
                        "number": 7,
                        "time": 61.921875000000156,
                        "value": 0.8110236220472441
                    },
                    {
                        "number": 7,
                        "time": 61.94765625000016,
                        "value": 0.7637795275590551
                    },
                    {
                        "number": 7,
                        "time": 62.400000000000155,
                        "value": 1
                    },
                    {
                        "number": 7,
                        "time": 62.425781250000156,
                        "value": 0.9606299212598425
                    },
                    {
                        "number": 7,
                        "time": 62.45156250000016,
                        "value": 0.9212598425196851
                    },
                    {
                        "number": 7,
                        "time": 62.47734375000016,
                        "value": 0.8740157480314961
                    },
                    {
                        "number": 7,
                        "time": 62.50312500000016,
                        "value": 0.8346456692913385
                    },
                    {
                        "number": 7,
                        "time": 62.52890625000016,
                        "value": 0.7952755905511811
                    },
                    {
                        "number": 7,
                        "time": 62.55468750000016,
                        "value": 0.7480314960629921
                    },
                    {
                        "number": 7,
                        "time": 63.33750000000016,
                        "value": 1
                    },
                    {
                        "number": 7,
                        "time": 63.36328125000016,
                        "value": 0.9448818897637795
                    },
                    {
                        "number": 7,
                        "time": 63.389062500000165,
                        "value": 0.889763779527559
                    },
                    {
                        "number": 7,
                        "time": 63.414843750000166,
                        "value": 0.8346456692913385
                    },
                    {
                        "number": 7,
                        "time": 63.44062500000017,
                        "value": 0.7795275590551181
                    },
                    {
                        "number": 7,
                        "time": 63.46640625000017,
                        "value": 0.7244094488188977
                    },
                    {
                        "number": 7,
                        "time": 63.49218750000017,
                        "value": 0.6692913385826772
                    },
                    {
                        "number": 7,
                        "time": 63.52500000000017,
                        "value": 0.6141732283464567
                    },
                    {
                        "number": 7,
                        "time": 64.55625000000018,
                        "value": 0.905511811023622
                    },
                    {
                        "number": 7,
                        "time": 64.58203125000017,
                        "value": 0.8661417322834646
                    },
                    {
                        "number": 7,
                        "time": 64.60781250000016,
                        "value": 0.8267716535433071
                    },
                    {
                        "number": 7,
                        "time": 64.63359375000016,
                        "value": 0.7795275590551181
                    },
                    {
                        "number": 7,
                        "time": 64.65937500000015,
                        "value": 0.7401574803149606
                    },
                    {
                        "number": 7,
                        "time": 64.68515625000015,
                        "value": 0.7007874015748031
                    },
                    {
                        "number": 7,
                        "time": 64.71093750000014,
                        "value": 0.6535433070866141
                    },
                    {
                        "number": 7,
                        "time": 64.73671875000014,
                        "value": 0.6141732283464567
                    },
                    {
                        "number": 7,
                        "time": 64.76250000000013,
                        "value": 0.5669291338582677
                    },
                    {
                        "number": 7,
                        "time": 64.81406250000013,
                        "value": 0.5590551181102362
                    },
                    {
                        "number": 7,
                        "time": 64.86562500000014,
                        "value": 0.5511811023622047
                    },
                    {
                        "number": 7,
                        "time": 64.89140625000013,
                        "value": 0.5433070866141733
                    },
                    {
                        "number": 7,
                        "time": 64.94296875000013,
                        "value": 0.5354330708661418
                    },
                    {
                        "number": 7,
                        "time": 64.96875000000013,
                        "value": 0.5275590551181102
                    },
                    {
                        "number": 7,
                        "time": 65.02031250000013,
                        "value": 0.5196850393700787
                    },
                    {
                        "number": 7,
                        "time": 65.07187500000013,
                        "value": 0.5118110236220472
                    },
                    {
                        "number": 7,
                        "time": 65.09765625000013,
                        "value": 0.5039370078740157
                    },
                    {
                        "number": 7,
                        "time": 65.14921875000012,
                        "value": 0.49606299212598426
                    },
                    {
                        "number": 7,
                        "time": 65.17500000000011,
                        "value": 0.4881889763779528
                    },
                    {
                        "number": 7,
                        "time": 65.22656250000011,
                        "value": 0.48031496062992124
                    },
                    {
                        "number": 7,
                        "time": 65.27812500000012,
                        "value": 0.47244094488188976
                    },
                    {
                        "number": 7,
                        "time": 65.30390625000011,
                        "value": 0.4645669291338583
                    },
                    {
                        "number": 7,
                        "time": 65.35546875000011,
                        "value": 0.4566929133858268
                    },
                    {
                        "number": 7,
                        "time": 65.38125000000011,
                        "value": 0.44881889763779526
                    },
                    {
                        "number": 7,
                        "time": 65.64375000000011,
                        "value": 0.4409448818897638
                    },
                    {
                        "number": 7,
                        "time": 65.77265625000011,
                        "value": 0.4330708661417323
                    },
                    {
                        "number": 7,
                        "time": 65.87578125000012,
                        "value": 0.4251968503937008
                    },
                    {
                        "number": 7,
                        "time": 65.97890625000012,
                        "value": 0.41732283464566927
                    },
                    {
                        "number": 7,
                        "time": 66.08203125000013,
                        "value": 0.4094488188976378
                    },
                    {
                        "number": 7,
                        "time": 66.21093750000013,
                        "value": 0.4015748031496063
                    },
                    {
                        "number": 7,
                        "time": 66.31406250000013,
                        "value": 0.3937007874015748
                    },
                    {
                        "number": 7,
                        "time": 66.41718750000014,
                        "value": 0.3858267716535433
                    },
                    {
                        "number": 7,
                        "time": 66.52031250000014,
                        "value": 0.3779527559055118
                    },
                    {
                        "number": 7,
                        "time": 66.64921875000014,
                        "value": 0.3700787401574803
                    },
                    {
                        "number": 7,
                        "time": 66.75234375000015,
                        "value": 0.36220472440944884
                    },
                    {
                        "number": 7,
                        "time": 66.84375000000016,
                        "value": 0.3543307086614173
                    },
                    {
                        "number": 7,
                        "time": 66.86953125000015,
                        "value": 0.33858267716535434
                    },
                    {
                        "number": 7,
                        "time": 66.89531250000014,
                        "value": 0.31496062992125984
                    },
                    {
                        "number": 7,
                        "time": 66.92109375000014,
                        "value": 0.2992125984251969
                    },
                    {
                        "number": 7,
                        "time": 66.94687500000013,
                        "value": 0.2755905511811024
                    },
                    {
                        "number": 7,
                        "time": 66.97265625000013,
                        "value": 0.25984251968503935
                    },
                    {
                        "number": 7,
                        "time": 66.99843750000012,
                        "value": 0.23622047244094488
                    },
                    {
                        "number": 7,
                        "time": 67.02421875000012,
                        "value": 0.2204724409448819
                    },
                    {
                        "number": 7,
                        "time": 67.05000000000011,
                        "value": 0.1968503937007874
                    },
                    {
                        "number": 7,
                        "time": 67.20000000000012,
                        "value": 1
                    },
                    {
                        "number": 7,
                        "time": 71.21250000000008,
                        "value": 1
                    },
                    {
                        "number": 7,
                        "time": 71.28984375000007,
                        "value": 0.9921259842519685
                    },
                    {
                        "number": 7,
                        "time": 71.36718750000007,
                        "value": 0.984251968503937
                    },
                    {
                        "number": 7,
                        "time": 71.44453125000008,
                        "value": 0.9763779527559056
                    },
                    {
                        "number": 7,
                        "time": 71.49609375000009,
                        "value": 0.968503937007874
                    },
                    {
                        "number": 7,
                        "time": 71.57343750000008,
                        "value": 0.9606299212598425
                    },
                    {
                        "number": 7,
                        "time": 71.65078125000008,
                        "value": 0.952755905511811
                    },
                    {
                        "number": 7,
                        "time": 71.70234375000008,
                        "value": 0.9448818897637795
                    },
                    {
                        "number": 7,
                        "time": 71.77968750000008,
                        "value": 0.937007874015748
                    },
                    {
                        "number": 7,
                        "time": 71.85703125000008,
                        "value": 0.9291338582677166
                    },
                    {
                        "number": 7,
                        "time": 71.90859375000008,
                        "value": 0.9212598425196851
                    },
                    {
                        "number": 7,
                        "time": 71.98593750000008,
                        "value": 0.9133858267716536
                    },
                    {
                        "number": 7,
                        "time": 72.06328125000007,
                        "value": 0.905511811023622
                    },
                    {
                        "number": 7,
                        "time": 72.11484375000008,
                        "value": 0.8976377952755905
                    },
                    {
                        "number": 7,
                        "time": 72.19218750000007,
                        "value": 0.889763779527559
                    },
                    {
                        "number": 7,
                        "time": 72.26953125000007,
                        "value": 0.8818897637795275
                    },
                    {
                        "number": 7,
                        "time": 72.34687500000007,
                        "value": 0.8740157480314961
                    },
                    {
                        "number": 7,
                        "time": 72.39843750000007,
                        "value": 0.8661417322834646
                    },
                    {
                        "number": 7,
                        "time": 72.47578125000007,
                        "value": 0.8582677165354331
                    },
                    {
                        "number": 7,
                        "time": 72.55312500000007,
                        "value": 0.8503937007874016
                    },
                    {
                        "number": 7,
                        "time": 72.60000000000007,
                        "value": 0.8267716535433071
                    },
                    {
                        "number": 7,
                        "time": 72.62578125000006,
                        "value": 0.8188976377952756
                    },
                    {
                        "number": 7,
                        "time": 72.65156250000005,
                        "value": 0.8110236220472441
                    },
                    {
                        "number": 7,
                        "time": 72.67734375000005,
                        "value": 0.8031496062992126
                    },
                    {
                        "number": 7,
                        "time": 72.70312500000004,
                        "value": 0.7952755905511811
                    },
                    {
                        "number": 7,
                        "time": 72.72890625000004,
                        "value": 0.7874015748031497
                    },
                    {
                        "number": 7,
                        "time": 72.75468750000003,
                        "value": 0.7795275590551181
                    },
                    {
                        "number": 7,
                        "time": 72.78046875000003,
                        "value": 0.7716535433070866
                    },
                    {
                        "number": 7,
                        "time": 72.80625000000002,
                        "value": 0.7637795275590551
                    },
                    {
                        "number": 7,
                        "time": 72.83203125000001,
                        "value": 0.7559055118110236
                    },
                    {
                        "number": 7,
                        "time": 72.85781250000001,
                        "value": 0.7480314960629921
                    },
                    {
                        "number": 7,
                        "time": 72.88359375,
                        "value": 0.7401574803149606
                    },
                    {
                        "number": 7,
                        "time": 72.909375,
                        "value": 0.7322834645669292
                    },
                    {
                        "number": 7,
                        "time": 72.93515624999999,
                        "value": 0.7244094488188977
                    },
                    {
                        "number": 7,
                        "time": 72.96093749999999,
                        "value": 0.7165354330708661
                    },
                    {
                        "number": 7,
                        "time": 72.98671874999998,
                        "value": 0.7086614173228346
                    },
                    {
                        "number": 7,
                        "time": 73.01249999999997,
                        "value": 0.7007874015748031
                    },
                    {
                        "number": 7,
                        "time": 73.03828124999997,
                        "value": 0.6929133858267716
                    },
                    {
                        "number": 7,
                        "time": 73.06406249999996,
                        "value": 0.6771653543307087
                    },
                    {
                        "number": 7,
                        "time": 73.08984374999996,
                        "value": 0.6692913385826772
                    },
                    {
                        "number": 7,
                        "time": 73.11562499999995,
                        "value": 0.6614173228346457
                    },
                    {
                        "number": 7,
                        "time": 73.14140624999995,
                        "value": 0.6535433070866141
                    },
                    {
                        "number": 7,
                        "time": 73.16718749999994,
                        "value": 0.6456692913385826
                    },
                    {
                        "number": 7,
                        "time": 73.19296874999993,
                        "value": 0.6377952755905512
                    },
                    {
                        "number": 7,
                        "time": 73.21874999999993,
                        "value": 0.6299212598425197
                    },
                    {
                        "number": 7,
                        "time": 73.24453124999992,
                        "value": 0.6220472440944882
                    },
                    {
                        "number": 7,
                        "time": 73.27031249999992,
                        "value": 0.6141732283464567
                    },
                    {
                        "number": 7,
                        "time": 73.29609374999991,
                        "value": 0.6062992125984252
                    },
                    {
                        "number": 7,
                        "time": 73.3218749999999,
                        "value": 0.5984251968503937
                    },
                    {
                        "number": 7,
                        "time": 73.3476562499999,
                        "value": 0.5905511811023622
                    },
                    {
                        "number": 7,
                        "time": 73.3734374999999,
                        "value": 0.5826771653543307
                    },
                    {
                        "number": 7,
                        "time": 73.39921874999989,
                        "value": 0.5748031496062992
                    },
                    {
                        "number": 7,
                        "time": 73.42499999999988,
                        "value": 0.5669291338582677
                    },
                    {
                        "number": 7,
                        "time": 73.45078124999988,
                        "value": 0.5590551181102362
                    },
                    {
                        "number": 7,
                        "time": 73.47656249999987,
                        "value": 0.5511811023622047
                    },
                    {
                        "number": 7,
                        "time": 73.50234374999987,
                        "value": 0.5354330708661418
                    },
                    {
                        "number": 7,
                        "time": 73.52812499999986,
                        "value": 0.5275590551181102
                    },
                    {
                        "number": 7,
                        "time": 73.55390624999986,
                        "value": 0.5196850393700787
                    },
                    {
                        "number": 7,
                        "time": 73.57968749999985,
                        "value": 0.5118110236220472
                    },
                    {
                        "number": 7,
                        "time": 73.60546874999984,
                        "value": 0.5039370078740157
                    },
                    {
                        "number": 7,
                        "time": 73.63124999999984,
                        "value": 0.49606299212598426
                    },
                    {
                        "number": 7,
                        "time": 73.65703124999983,
                        "value": 0.4881889763779528
                    },
                    {
                        "number": 7,
                        "time": 73.68281249999983,
                        "value": 0.48031496062992124
                    },
                    {
                        "number": 7,
                        "time": 73.70859374999982,
                        "value": 0.47244094488188976
                    },
                    {
                        "number": 7,
                        "time": 73.73437499999982,
                        "value": 0.4645669291338583
                    },
                    {
                        "number": 7,
                        "time": 73.76015624999981,
                        "value": 0.4566929133858268
                    },
                    {
                        "number": 7,
                        "time": 73.7859374999998,
                        "value": 0.44881889763779526
                    },
                    {
                        "number": 7,
                        "time": 73.8117187499998,
                        "value": 0.4409448818897638
                    }
                ],
                "10": [
                    {
                        "number": 10,
                        "time": 0,
                        "value": 0.5511811023622047
                    }
                ],
                "91": [
                    {
                        "number": 91,
                        "time": 0,
                        "value": 0.6299212598425197
                    }
                ],
                "93": [
                    {
                        "number": 93,
                        "time": 0,
                        "value": 1
                    }
                ],
                "121": [
                    {
                        "number": 121,
                        "time": 0,
                        "value": 1
                    },
                    {
                        "number": 121,
                        "time": 74.99999999999979,
                        "value": 1
                    }
                ]
            },
            "id": 3,
            "name": "Tenors",
            "instrumentNumber": 52,
            "instrument": "choir aahs",
            "instrumentFamily": "ensemble",
            "channelNumber": 2,
            "isPercussion": false
        },
        {
            "startTime": 0.6,
            "duration": 74.39999999999978,
            "length": 158,
            "notes": [
                {
                    "name": "A3",
                    "midi": 57,
                    "time": 0.6,
                    "velocity": 0.3937007874015748,
                    "duration": 0.16523437499999993
                },
                {
                    "name": "A3",
                    "midi": 57,
                    "time": 0.8999999999999999,
                    "velocity": 0.3228346456692913,
                    "duration": 0.16523437500000004
                },
                {
                    "name": "D3",
                    "midi": 50,
                    "time": 1.2,
                    "velocity": 0.3937007874015748,
                    "duration": 0.16523437500000004
                },
                {
                    "name": "D3",
                    "midi": 50,
                    "time": 1.5,
                    "velocity": 0.3228346456692913,
                    "duration": 0.16523437500000004
                },
                {
                    "name": "B3",
                    "midi": 59,
                    "time": 1.8,
                    "velocity": 0.3937007874015748,
                    "duration": 0.16523437500000004
                },
                {
                    "name": "B3",
                    "midi": 59,
                    "time": 2.1,
                    "velocity": 0.33070866141732286,
                    "duration": 0.16523437499999982
                },
                {
                    "name": "E3",
                    "midi": 52,
                    "time": 2.4,
                    "velocity": 0.4409448818897638,
                    "duration": 0.5097656250000004
                },
                {
                    "name": "A3",
                    "midi": 57,
                    "time": 3,
                    "velocity": 0.4015748031496063,
                    "duration": 0.16523437499999982
                },
                {
                    "name": "A3",
                    "midi": 57,
                    "time": 3.3,
                    "velocity": 0.33070866141732286,
                    "duration": 0.16523437499999982
                },
                {
                    "name": "D3",
                    "midi": 50,
                    "time": 3.5999999999999996,
                    "velocity": 0.3937007874015748,
                    "duration": 0.16523437499999982
                },
                {
                    "name": "D3",
                    "midi": 50,
                    "time": 3.8999999999999995,
                    "velocity": 0.33070866141732286,
                    "duration": 0.16523437499999982
                },
                {
                    "name": "B3",
                    "midi": 59,
                    "time": 4.199999999999999,
                    "velocity": 0.3937007874015748,
                    "duration": 0.16523437499999982
                },
                {
                    "name": "B3",
                    "midi": 59,
                    "time": 4.499999999999999,
                    "velocity": 0.33070866141732286,
                    "duration": 0.16523437499999982
                },
                {
                    "name": "E3",
                    "midi": 52,
                    "time": 4.799999999999999,
                    "velocity": 0.4409448818897638,
                    "duration": 0.5097656250000009
                },
                {
                    "name": "C4",
                    "midi": 60,
                    "time": 5.3999999999999995,
                    "velocity": 0.5433070866141733,
                    "duration": 0.6000000000000005
                },
                {
                    "name": "B3",
                    "midi": 59,
                    "time": 6,
                    "velocity": 0.5511811023622047,
                    "duration": 0.6000000000000005
                },
                {
                    "name": "G3",
                    "midi": 55,
                    "time": 6.6000000000000005,
                    "velocity": 0.5354330708661418,
                    "duration": 0.16523437499999982
                },
                {
                    "name": "B3",
                    "midi": 59,
                    "time": 6.9,
                    "velocity": 0.41732283464566927,
                    "duration": 0.08261718750000036
                },
                {
                    "name": "B3",
                    "midi": 59,
                    "time": 7.050000000000001,
                    "velocity": 0.4251968503937008,
                    "duration": 0.08261718750000036
                },
                {
                    "name": "B3",
                    "midi": 59,
                    "time": 7.200000000000001,
                    "velocity": 0.4881889763779528,
                    "duration": 0.16523437499999982
                },
                {
                    "name": "B3",
                    "midi": 59,
                    "time": 7.500000000000001,
                    "velocity": 0.4409448818897638,
                    "duration": 0.16523437499999982
                },
                {
                    "name": "A3",
                    "midi": 57,
                    "time": 7.800000000000001,
                    "velocity": 0.5354330708661418,
                    "duration": 0.4499999999999993
                },
                {
                    "name": "B3",
                    "midi": 59,
                    "time": 8.25,
                    "velocity": 0.4330708661417323,
                    "duration": 0.08261718750000036
                },
                {
                    "name": "A3",
                    "midi": 57,
                    "time": 8.4,
                    "velocity": 0.48031496062992124,
                    "duration": 0.1652343750000007
                },
                {
                    "name": "G3",
                    "midi": 55,
                    "time": 8.700000000000001,
                    "velocity": 0.4645669291338583,
                    "duration": 0.1652343750000007
                },
                {
                    "name": "E3",
                    "midi": 52,
                    "time": 9.000000000000002,
                    "velocity": 0.4330708661417323,
                    "duration": 0.1652343750000007
                },
                {
                    "name": "D3",
                    "midi": 50,
                    "time": 9.300000000000002,
                    "velocity": 0.3937007874015748,
                    "duration": 0.1652343750000007
                },
                {
                    "name": "E3",
                    "midi": 52,
                    "time": 9.600000000000003,
                    "velocity": 0.3543307086614173,
                    "duration": 1.7097656249999797
                },
                {
                    "name": "E4",
                    "midi": 64,
                    "time": 11.399999999999983,
                    "velocity": 0.49606299212598426,
                    "duration": 0.1652343750000007
                },
                {
                    "name": "E4",
                    "midi": 64,
                    "time": 11.699999999999983,
                    "velocity": 0.3779527559055118,
                    "duration": 0.1652343750000007
                },
                {
                    "name": "D4",
                    "midi": 62,
                    "time": 11.999999999999984,
                    "velocity": 0.4409448818897638,
                    "duration": 0.1652343750000007
                },
                {
                    "name": "E4",
                    "midi": 64,
                    "time": 12.299999999999985,
                    "velocity": 0.4094488188976378,
                    "duration": 0.1652343750000007
                },
                {
                    "name": "C4",
                    "midi": 60,
                    "time": 12.599999999999985,
                    "velocity": 0.44881889763779526,
                    "duration": 0.1652343750000007
                },
                {
                    "name": "A#3",
                    "midi": 58,
                    "time": 12.899999999999986,
                    "velocity": 0.3700787401574803,
                    "duration": 0.1652343750000007
                },
                {
                    "name": "A3",
                    "midi": 57,
                    "time": 13.199999999999987,
                    "velocity": 0.47244094488188976,
                    "duration": 0.1652343750000007
                },
                {
                    "name": "A3",
                    "midi": 57,
                    "time": 13.499999999999988,
                    "velocity": 0.4094488188976378,
                    "duration": 0.1652343750000007
                },
                {
                    "name": "G3",
                    "midi": 55,
                    "time": 13.799999999999988,
                    "velocity": 0.4015748031496063,
                    "duration": 0.1652343750000007
                },
                {
                    "name": "A3",
                    "midi": 57,
                    "time": 14.099999999999989,
                    "velocity": 0.3858267716535433,
                    "duration": 0.1652343750000007
                },
                {
                    "name": "F3",
                    "midi": 53,
                    "time": 14.39999999999999,
                    "velocity": 0.3779527559055118,
                    "duration": 0.1652343750000007
                },
                {
                    "name": "E3",
                    "midi": 52,
                    "time": 14.69999999999999,
                    "velocity": 0.5039370078740157,
                    "duration": 3.3000000000000203
                },
                {
                    "name": "A3",
                    "midi": 57,
                    "time": 18.00000000000001,
                    "velocity": 0.4015748031496063,
                    "duration": 0.5999999999999908
                },
                {
                    "name": "A3",
                    "midi": 57,
                    "time": 19.200000000000003,
                    "velocity": 0.4566929133858268,
                    "duration": 0.1652343750000007
                },
                {
                    "name": "A3",
                    "midi": 57,
                    "time": 19.500000000000004,
                    "velocity": 0.3779527559055118,
                    "duration": 0.1652343750000007
                },
                {
                    "name": "D3",
                    "midi": 50,
                    "time": 19.800000000000004,
                    "velocity": 0.44881889763779526,
                    "duration": 0.1652343750000007
                },
                {
                    "name": "D3",
                    "midi": 50,
                    "time": 20.100000000000005,
                    "velocity": 0.3779527559055118,
                    "duration": 0.1652343750000007
                },
                {
                    "name": "B3",
                    "midi": 59,
                    "time": 20.400000000000006,
                    "velocity": 0.44881889763779526,
                    "duration": 0.1652343750000007
                },
                {
                    "name": "B3",
                    "midi": 59,
                    "time": 20.700000000000006,
                    "velocity": 0.3779527559055118,
                    "duration": 0.1652343750000007
                },
                {
                    "name": "E3",
                    "midi": 52,
                    "time": 21.000000000000007,
                    "velocity": 0.5275590551181102,
                    "duration": 0.2097656249999993
                },
                {
                    "name": "A3",
                    "midi": 57,
                    "time": 21.600000000000005,
                    "velocity": 0.44881889763779526,
                    "duration": 0.1652343750000007
                },
                {
                    "name": "A3",
                    "midi": 57,
                    "time": 21.900000000000006,
                    "velocity": 0.3937007874015748,
                    "duration": 0.1652343750000007
                },
                {
                    "name": "D3",
                    "midi": 50,
                    "time": 22.200000000000006,
                    "velocity": 0.4566929133858268,
                    "duration": 0.1652343750000007
                },
                {
                    "name": "D3",
                    "midi": 50,
                    "time": 22.500000000000007,
                    "velocity": 0.3858267716535433,
                    "duration": 0.1652343750000007
                },
                {
                    "name": "B3",
                    "midi": 59,
                    "time": 22.800000000000008,
                    "velocity": 0.44881889763779526,
                    "duration": 0.1652343750000007
                },
                {
                    "name": "B3",
                    "midi": 59,
                    "time": 23.10000000000001,
                    "velocity": 0.3779527559055118,
                    "duration": 0.1652343750000007
                },
                {
                    "name": "E3",
                    "midi": 52,
                    "time": 23.40000000000001,
                    "velocity": 0.5511811023622047,
                    "duration": 0.2097656249999993
                },
                {
                    "name": "C4",
                    "midi": 60,
                    "time": 24.00000000000001,
                    "velocity": 0.7086614173228346,
                    "duration": 0.5097656250000036
                },
                {
                    "name": "B3",
                    "midi": 59,
                    "time": 24.600000000000016,
                    "velocity": 0.6771653543307087,
                    "duration": 0.5097656250000036
                },
                {
                    "name": "G3",
                    "midi": 55,
                    "time": 25.20000000000002,
                    "velocity": 0.6535433070866141,
                    "duration": 0.1652343750000007
                },
                {
                    "name": "B3",
                    "midi": 59,
                    "time": 25.50000000000002,
                    "velocity": 0.5354330708661418,
                    "duration": 0.08261718749999858
                },
                {
                    "name": "B3",
                    "midi": 59,
                    "time": 25.65000000000002,
                    "velocity": 0.5354330708661418,
                    "duration": 0.08261718749999858
                },
                {
                    "name": "B3",
                    "midi": 59,
                    "time": 25.80000000000002,
                    "velocity": 0.5748031496062992,
                    "duration": 0.1652343750000007
                },
                {
                    "name": "B3",
                    "midi": 59,
                    "time": 26.10000000000002,
                    "velocity": 0.5118110236220472,
                    "duration": 0.1652343750000007
                },
                {
                    "name": "A3",
                    "midi": 57,
                    "time": 26.40000000000002,
                    "velocity": 0.5196850393700787,
                    "duration": 0.4499999999999993
                },
                {
                    "name": "B3",
                    "midi": 59,
                    "time": 26.85000000000002,
                    "velocity": 0.4015748031496063,
                    "duration": 0.08261718749999858
                },
                {
                    "name": "A3",
                    "midi": 57,
                    "time": 27.000000000000018,
                    "velocity": 0.3937007874015748,
                    "duration": 0.1652343750000007
                },
                {
                    "name": "G3",
                    "midi": 55,
                    "time": 27.30000000000002,
                    "velocity": 0.3779527559055118,
                    "duration": 0.1652343750000007
                },
                {
                    "name": "E3",
                    "midi": 52,
                    "time": 27.60000000000002,
                    "velocity": 0.4330708661417323,
                    "duration": 0.2548828125
                },
                {
                    "name": "D3",
                    "midi": 50,
                    "time": 27.90000000000002,
                    "velocity": 0.3228346456692913,
                    "duration": 0.1652343750000007
                },
                {
                    "name": "E3",
                    "midi": 52,
                    "time": 28.20000000000002,
                    "velocity": 0.3937007874015748,
                    "duration": 1.709765625000017
                },
                {
                    "name": "E4",
                    "midi": 64,
                    "time": 30.000000000000036,
                    "velocity": 0.7401574803149606,
                    "duration": 0.1652343750000007
                },
                {
                    "name": "E4",
                    "midi": 64,
                    "time": 30.300000000000036,
                    "velocity": 0.6062992125984252,
                    "duration": 0.1652343750000007
                },
                {
                    "name": "D4",
                    "midi": 62,
                    "time": 30.600000000000037,
                    "velocity": 0.6456692913385826,
                    "duration": 0.1652343750000007
                },
                {
                    "name": "E4",
                    "midi": 64,
                    "time": 30.900000000000038,
                    "velocity": 0.6062992125984252,
                    "duration": 0.1652343750000007
                },
                {
                    "name": "C4",
                    "midi": 60,
                    "time": 31.20000000000004,
                    "velocity": 0.6456692913385826,
                    "duration": 0.1652343750000007
                },
                {
                    "name": "A#3",
                    "midi": 58,
                    "time": 31.50000000000004,
                    "velocity": 0.6062992125984252,
                    "duration": 0.1652343750000007
                },
                {
                    "name": "A3",
                    "midi": 57,
                    "time": 31.80000000000004,
                    "velocity": 0.6614173228346457,
                    "duration": 0.1652343750000007
                },
                {
                    "name": "A3",
                    "midi": 57,
                    "time": 32.10000000000004,
                    "velocity": 0.5984251968503937,
                    "duration": 0.16523437499999716
                },
                {
                    "name": "G3",
                    "midi": 55,
                    "time": 32.400000000000034,
                    "velocity": 0.5511811023622047,
                    "duration": 0.16523437499999716
                },
                {
                    "name": "A3",
                    "midi": 57,
                    "time": 32.70000000000003,
                    "velocity": 0.5039370078740157,
                    "duration": 0.16523437499999716
                },
                {
                    "name": "F3",
                    "midi": 53,
                    "time": 33.00000000000003,
                    "velocity": 0.4645669291338583,
                    "duration": 0.16523437499999716
                },
                {
                    "name": "E3",
                    "midi": 52,
                    "time": 33.300000000000026,
                    "velocity": 0.5590551181102362,
                    "duration": 3.300000000000132
                },
                {
                    "name": "A3",
                    "midi": 57,
                    "time": 36.60000000000016,
                    "velocity": 0.5433070866141733,
                    "duration": 0.29999999999999716
                },
                {
                    "name": "G2",
                    "midi": 43,
                    "time": 39.000000000000156,
                    "velocity": 0.4251968503937008,
                    "duration": 0.6000000000000014
                },
                {
                    "name": "G3",
                    "midi": 55,
                    "time": 39.60000000000016,
                    "velocity": 0.3937007874015748,
                    "duration": 0.16523437499999716
                },
                {
                    "name": "G2",
                    "midi": 43,
                    "time": 41.400000000000155,
                    "velocity": 0.4094488188976378,
                    "duration": 0.6000000000000014
                },
                {
                    "name": "G3",
                    "midi": 55,
                    "time": 42.000000000000156,
                    "velocity": 0.36220472440944884,
                    "duration": 0.16523437499999716
                },
                {
                    "name": "C4",
                    "midi": 60,
                    "time": 42.60000000000015,
                    "velocity": 0.41732283464566927,
                    "duration": 0.6000000000000014
                },
                {
                    "name": "G3",
                    "midi": 55,
                    "time": 43.20000000000015,
                    "velocity": 0.3937007874015748,
                    "duration": 0.5999999999999943
                },
                {
                    "name": "C#4",
                    "midi": 61,
                    "time": 43.800000000000146,
                    "velocity": 0.36220472440944884,
                    "duration": 0.6000000000000014
                },
                {
                    "name": "G3",
                    "midi": 55,
                    "time": 44.40000000000015,
                    "velocity": 0.36220472440944884,
                    "duration": 0.509765625
                },
                {
                    "name": "D4",
                    "midi": 62,
                    "time": 45.00000000000015,
                    "velocity": 0.3700787401574803,
                    "duration": 0.29999999999999716
                },
                {
                    "name": "D#4",
                    "midi": 63,
                    "time": 45.300000000000146,
                    "velocity": 0.3937007874015748,
                    "duration": 0.30000000000000426
                },
                {
                    "name": "E4",
                    "midi": 64,
                    "time": 45.60000000000015,
                    "velocity": 0.4251968503937008,
                    "duration": 0.30000000000000426
                },
                {
                    "name": "C4",
                    "midi": 60,
                    "time": 45.900000000000155,
                    "velocity": 0.41732283464566927,
                    "duration": 0.29999999999999716
                },
                {
                    "name": "A3",
                    "midi": 57,
                    "time": 46.20000000000015,
                    "velocity": 0.3858267716535433,
                    "duration": 0.6000000000000014
                },
                {
                    "name": "E3",
                    "midi": 52,
                    "time": 46.80000000000015,
                    "velocity": 0.33858267716535434,
                    "duration": 1.7097656250000028
                },
                {
                    "name": "C3",
                    "midi": 48,
                    "time": 48.60000000000016,
                    "velocity": 0.4015748031496063,
                    "duration": 0.6000000000000014
                },
                {
                    "name": "F3",
                    "midi": 53,
                    "time": 49.20000000000016,
                    "velocity": 0.41732283464566927,
                    "duration": 1.1402343749999986
                },
                {
                    "name": "A#3",
                    "midi": 58,
                    "time": 50.400000000000155,
                    "velocity": 0.4094488188976378,
                    "duration": 1.7999999999999972
                },
                {
                    "name": "G3",
                    "midi": 55,
                    "time": 52.20000000000015,
                    "velocity": 0.3937007874015748,
                    "duration": 3
                },
                {
                    "name": "A3",
                    "midi": 57,
                    "time": 55.20000000000015,
                    "velocity": 0.3700787401574803,
                    "duration": 0.5999999999999943
                },
                {
                    "name": "G#3",
                    "midi": 56,
                    "time": 56.40000000000015,
                    "velocity": 0.4645669291338583,
                    "duration": 0.14999999999999858
                },
                {
                    "name": "G3",
                    "midi": 55,
                    "time": 56.550000000000146,
                    "velocity": 0.3464566929133858,
                    "duration": 0.06386718750000142
                },
                {
                    "name": "G#3",
                    "midi": 56,
                    "time": 56.700000000000145,
                    "velocity": 0.48031496062992124,
                    "duration": 0.14999999999999858
                },
                {
                    "name": "G3",
                    "midi": 55,
                    "time": 56.85000000000014,
                    "velocity": 0.36220472440944884,
                    "duration": 0.06386718750000142
                },
                {
                    "name": "F#3",
                    "midi": 54,
                    "time": 57.00000000000014,
                    "velocity": 0.48031496062992124,
                    "duration": 0.29999999999999716
                },
                {
                    "name": "F3",
                    "midi": 53,
                    "time": 57.30000000000014,
                    "velocity": 0.3858267716535433,
                    "duration": 0.08261718749999858
                },
                {
                    "name": "D#3",
                    "midi": 51,
                    "time": 57.600000000000136,
                    "velocity": 0.49606299212598426,
                    "duration": 0.14999999999999858
                },
                {
                    "name": "E3",
                    "midi": 52,
                    "time": 57.750000000000135,
                    "velocity": 0.3700787401574803,
                    "duration": 0.06386718750000142
                },
                {
                    "name": "D#3",
                    "midi": 51,
                    "time": 57.900000000000134,
                    "velocity": 0.4566929133858268,
                    "duration": 0.14999999999999858
                },
                {
                    "name": "E3",
                    "midi": 52,
                    "time": 58.05000000000013,
                    "velocity": 0.36220472440944884,
                    "duration": 0.06386718750000142
                },
                {
                    "name": "E2",
                    "midi": 40,
                    "time": 58.20000000000013,
                    "velocity": 0.4015748031496063,
                    "duration": 0.29999999999999716
                },
                {
                    "name": "G#3",
                    "midi": 56,
                    "time": 58.800000000000125,
                    "velocity": 0.5039370078740157,
                    "duration": 0.14999999999999858
                },
                {
                    "name": "G3",
                    "midi": 55,
                    "time": 58.950000000000124,
                    "velocity": 0.3700787401574803,
                    "duration": 0.06386718750000142
                },
                {
                    "name": "G#3",
                    "midi": 56,
                    "time": 59.10000000000012,
                    "velocity": 0.48031496062992124,
                    "duration": 0.14999999999999858
                },
                {
                    "name": "G3",
                    "midi": 55,
                    "time": 59.25000000000012,
                    "velocity": 0.36220472440944884,
                    "duration": 0.06386718750000142
                },
                {
                    "name": "F#3",
                    "midi": 54,
                    "time": 59.40000000000012,
                    "velocity": 0.4881889763779528,
                    "duration": 0.29999999999999716
                },
                {
                    "name": "F3",
                    "midi": 53,
                    "time": 59.70000000000012,
                    "velocity": 0.3858267716535433,
                    "duration": 0.08261718749999858
                },
                {
                    "name": "D#3",
                    "midi": 51,
                    "time": 60.000000000000114,
                    "velocity": 0.5118110236220472,
                    "duration": 0.14999999999999858
                },
                {
                    "name": "E3",
                    "midi": 52,
                    "time": 60.15000000000011,
                    "velocity": 0.3858267716535433,
                    "duration": 0.06386718750000142
                },
                {
                    "name": "D#3",
                    "midi": 51,
                    "time": 60.30000000000011,
                    "velocity": 0.48031496062992124,
                    "duration": 0.14999999999999858
                },
                {
                    "name": "E3",
                    "midi": 52,
                    "time": 60.45000000000011,
                    "velocity": 0.3779527559055118,
                    "duration": 0.06386718750000142
                },
                {
                    "name": "E2",
                    "midi": 40,
                    "time": 60.60000000000011,
                    "velocity": 0.4330708661417323,
                    "duration": 0.29999999999999716
                },
                {
                    "name": "C4",
                    "midi": 60,
                    "time": 61.2000000000001,
                    "velocity": 0.6692913385826772,
                    "duration": 0.16523437499999716
                },
                {
                    "name": "B3",
                    "midi": 59,
                    "time": 61.8000000000001,
                    "velocity": 0.6299212598425197,
                    "duration": 0.16523437499999716
                },
                {
                    "name": "G3",
                    "midi": 55,
                    "time": 62.40000000000009,
                    "velocity": 0.6850393700787402,
                    "duration": 0.16523437499999716
                },
                {
                    "name": "B3",
                    "midi": 59,
                    "time": 62.70000000000009,
                    "velocity": 0.6299212598425197,
                    "duration": 0.08261718749999858
                },
                {
                    "name": "B3",
                    "midi": 59,
                    "time": 62.85000000000009,
                    "velocity": 0.6299212598425197,
                    "duration": 0.08261718749999858
                },
                {
                    "name": "B3",
                    "midi": 59,
                    "time": 63.000000000000085,
                    "velocity": 0.6535433070866141,
                    "duration": 0.16523437499999716
                },
                {
                    "name": "B3",
                    "midi": 59,
                    "time": 63.30000000000008,
                    "velocity": 0.5984251968503937,
                    "duration": 0.16523437499999716
                },
                {
                    "name": "A3",
                    "midi": 57,
                    "time": 63.60000000000008,
                    "velocity": 0.6614173228346457,
                    "duration": 0.38261718750000284
                },
                {
                    "name": "B3",
                    "midi": 59,
                    "time": 64.05000000000008,
                    "velocity": 0.6141732283464567,
                    "duration": 0.08261718750000568
                },
                {
                    "name": "A3",
                    "midi": 57,
                    "time": 64.20000000000009,
                    "velocity": 0.5590551181102362,
                    "duration": 0.16523437499999716
                },
                {
                    "name": "G3",
                    "midi": 55,
                    "time": 64.50000000000009,
                    "velocity": 0.4881889763779528,
                    "duration": 0.16523437499999716
                },
                {
                    "name": "E3",
                    "midi": 52,
                    "time": 64.80000000000008,
                    "velocity": 0.4566929133858268,
                    "duration": 0.16523437499999716
                },
                {
                    "name": "D3",
                    "midi": 50,
                    "time": 65.10000000000008,
                    "velocity": 0.4251968503937008,
                    "duration": 0.16523437499999716
                },
                {
                    "name": "E3",
                    "midi": 52,
                    "time": 65.40000000000008,
                    "velocity": 0.4566929133858268,
                    "duration": 1.7097656249998465
                },
                {
                    "name": "E4",
                    "midi": 64,
                    "time": 67.19999999999993,
                    "velocity": 0.7401574803149606,
                    "duration": 0.16523437499999716
                },
                {
                    "name": "E4",
                    "midi": 64,
                    "time": 67.49999999999993,
                    "velocity": 0.6692913385826772,
                    "duration": 0.16523437499999716
                },
                {
                    "name": "D4",
                    "midi": 62,
                    "time": 67.79999999999993,
                    "velocity": 0.6692913385826772,
                    "duration": 0.16523437499999716
                },
                {
                    "name": "E4",
                    "midi": 64,
                    "time": 68.09999999999992,
                    "velocity": 0.6692913385826772,
                    "duration": 0.16523437499999716
                },
                {
                    "name": "C4",
                    "midi": 60,
                    "time": 68.39999999999992,
                    "velocity": 0.6692913385826772,
                    "duration": 0.16523437499999716
                },
                {
                    "name": "A#3",
                    "midi": 58,
                    "time": 68.69999999999992,
                    "velocity": 0.6692913385826772,
                    "duration": 0.16523437499999716
                },
                {
                    "name": "A3",
                    "midi": 57,
                    "time": 68.99999999999991,
                    "velocity": 0.7244094488188977,
                    "duration": 0.16523437499999716
                },
                {
                    "name": "A3",
                    "midi": 57,
                    "time": 69.29999999999991,
                    "velocity": 0.6692913385826772,
                    "duration": 0.16523437499999716
                },
                {
                    "name": "G3",
                    "midi": 55,
                    "time": 69.59999999999991,
                    "velocity": 0.6141732283464567,
                    "duration": 0.16523437499999716
                },
                {
                    "name": "A3",
                    "midi": 57,
                    "time": 69.8999999999999,
                    "velocity": 0.5590551181102362,
                    "duration": 0.16523437499999716
                },
                {
                    "name": "F3",
                    "midi": 53,
                    "time": 70.1999999999999,
                    "velocity": 0.5039370078740157,
                    "duration": 0.16523437499999716
                },
                {
                    "name": "E3",
                    "midi": 52,
                    "time": 70.4999999999999,
                    "velocity": 0.41732283464566927,
                    "duration": 0.16523437499999716
                },
                {
                    "name": "D3",
                    "midi": 50,
                    "time": 70.7999999999999,
                    "velocity": 0.3937007874015748,
                    "duration": 0.29999999999999716
                },
                {
                    "name": "E3",
                    "midi": 52,
                    "time": 71.0999999999999,
                    "velocity": 0.4015748031496063,
                    "duration": 0.29999999999999716
                },
                {
                    "name": "A2",
                    "midi": 45,
                    "time": 71.39999999999989,
                    "velocity": 0.41732283464566927,
                    "duration": 0.5999999999999943
                },
                {
                    "name": "C3",
                    "midi": 48,
                    "time": 71.99999999999989,
                    "velocity": 0.4409448818897638,
                    "duration": 0.5999999999999943
                },
                {
                    "name": "D3",
                    "midi": 50,
                    "time": 72.59999999999988,
                    "velocity": 0.4409448818897638,
                    "duration": 0.29999999999999716
                },
                {
                    "name": "E3",
                    "midi": 52,
                    "time": 72.89999999999988,
                    "velocity": 0.4094488188976378,
                    "duration": 0.29999999999998295
                },
                {
                    "name": "C3",
                    "midi": 48,
                    "time": 73.19999999999986,
                    "velocity": 0.3779527559055118,
                    "duration": 0.2999999999999545
                },
                {
                    "name": "B2",
                    "midi": 47,
                    "time": 73.49999999999982,
                    "velocity": 0.3464566929133858,
                    "duration": 0.2548828124999716
                },
                {
                    "name": "A2",
                    "midi": 45,
                    "time": 73.79999999999978,
                    "velocity": 0.31496062992125984,
                    "duration": 0.5999999999999943
                }
            ],
            "controlChanges": {
                "1": [
                    {
                        "number": 1,
                        "time": 0,
                        "value": 0.03937007874015748
                    }
                ],
                "7": [
                    {
                        "number": 7,
                        "time": 0,
                        "value": 1
                    },
                    {
                        "number": 7,
                        "time": 2.4,
                        "value": 1
                    },
                    {
                        "number": 7,
                        "time": 2.4187499999999997,
                        "value": 1
                    },
                    {
                        "number": 7,
                        "time": 2.4556640625,
                        "value": 0.9448818897637795
                    },
                    {
                        "number": 7,
                        "time": 2.492578125,
                        "value": 0.8818897637795275
                    },
                    {
                        "number": 7,
                        "time": 2.5294921875000003,
                        "value": 0.8188976377952756
                    },
                    {
                        "number": 7,
                        "time": 2.5664062500000004,
                        "value": 0.7559055118110236
                    },
                    {
                        "number": 7,
                        "time": 2.98125,
                        "value": 1
                    },
                    {
                        "number": 7,
                        "time": 4.799999999999999,
                        "value": 1
                    },
                    {
                        "number": 7,
                        "time": 4.818749999999999,
                        "value": 1
                    },
                    {
                        "number": 7,
                        "time": 4.855664062499999,
                        "value": 0.937007874015748
                    },
                    {
                        "number": 7,
                        "time": 4.892578124999999,
                        "value": 0.8740157480314961
                    },
                    {
                        "number": 7,
                        "time": 4.929492187499999,
                        "value": 0.8110236220472441
                    },
                    {
                        "number": 7,
                        "time": 4.9664062499999995,
                        "value": 0.7480314960629921
                    },
                    {
                        "number": 7,
                        "time": 5.38125,
                        "value": 1
                    },
                    {
                        "number": 7,
                        "time": 5.3999999999999995,
                        "value": 1
                    },
                    {
                        "number": 7,
                        "time": 5.4369140625,
                        "value": 0.9448818897637795
                    },
                    {
                        "number": 7,
                        "time": 5.473828125,
                        "value": 0.8740157480314961
                    },
                    {
                        "number": 7,
                        "time": 5.5107421875,
                        "value": 0.8110236220472441
                    },
                    {
                        "number": 7,
                        "time": 5.54765625,
                        "value": 0.7401574803149606
                    },
                    {
                        "number": 7,
                        "time": 6,
                        "value": 1
                    },
                    {
                        "number": 7,
                        "time": 6.01875,
                        "value": 1
                    },
                    {
                        "number": 7,
                        "time": 6.0556640625,
                        "value": 0.9291338582677166
                    },
                    {
                        "number": 7,
                        "time": 6.092578125,
                        "value": 0.8582677165354331
                    },
                    {
                        "number": 7,
                        "time": 6.1294921875,
                        "value": 0.7874015748031497
                    },
                    {
                        "number": 7,
                        "time": 6.1664062500000005,
                        "value": 0.7165354330708661
                    },
                    {
                        "number": 7,
                        "time": 6.6000000000000005,
                        "value": 1
                    },
                    {
                        "number": 7,
                        "time": 10.068750000000003,
                        "value": 1
                    },
                    {
                        "number": 7,
                        "time": 10.105664062500002,
                        "value": 0.9921259842519685
                    },
                    {
                        "number": 7,
                        "time": 10.142578125000002,
                        "value": 0.984251968503937
                    },
                    {
                        "number": 7,
                        "time": 10.179492187500001,
                        "value": 0.9763779527559056
                    },
                    {
                        "number": 7,
                        "time": 10.21640625,
                        "value": 0.9606299212598425
                    },
                    {
                        "number": 7,
                        "time": 10.2533203125,
                        "value": 0.952755905511811
                    },
                    {
                        "number": 7,
                        "time": 10.290234374999999,
                        "value": 0.9448818897637795
                    },
                    {
                        "number": 7,
                        "time": 10.327148437499998,
                        "value": 0.937007874015748
                    },
                    {
                        "number": 7,
                        "time": 10.364062499999998,
                        "value": 0.9212598425196851
                    },
                    {
                        "number": 7,
                        "time": 10.400976562499997,
                        "value": 0.9133858267716536
                    },
                    {
                        "number": 7,
                        "time": 10.437890624999996,
                        "value": 0.905511811023622
                    },
                    {
                        "number": 7,
                        "time": 10.474804687499995,
                        "value": 0.8976377952755905
                    },
                    {
                        "number": 7,
                        "time": 10.511718749999995,
                        "value": 0.8818897637795275
                    },
                    {
                        "number": 7,
                        "time": 10.548632812499994,
                        "value": 0.8740157480314961
                    },
                    {
                        "number": 7,
                        "time": 10.585546874999993,
                        "value": 0.8661417322834646
                    },
                    {
                        "number": 7,
                        "time": 10.622460937499993,
                        "value": 0.8582677165354331
                    },
                    {
                        "number": 7,
                        "time": 10.659374999999992,
                        "value": 0.84251968503937
                    },
                    {
                        "number": 7,
                        "time": 10.696289062499991,
                        "value": 0.8346456692913385
                    },
                    {
                        "number": 7,
                        "time": 10.73320312499999,
                        "value": 0.8267716535433071
                    },
                    {
                        "number": 7,
                        "time": 10.77011718749999,
                        "value": 0.8188976377952756
                    },
                    {
                        "number": 7,
                        "time": 10.79999999999999,
                        "value": 0.8031496062992126
                    },
                    {
                        "number": 7,
                        "time": 10.83691406249999,
                        "value": 0.7716535433070866
                    },
                    {
                        "number": 7,
                        "time": 10.873828124999989,
                        "value": 0.7322834645669292
                    },
                    {
                        "number": 7,
                        "time": 10.910742187499988,
                        "value": 0.7007874015748031
                    },
                    {
                        "number": 7,
                        "time": 10.947656249999987,
                        "value": 0.6614173228346457
                    },
                    {
                        "number": 7,
                        "time": 10.984570312499986,
                        "value": 0.6220472440944882
                    },
                    {
                        "number": 7,
                        "time": 11.021484374999986,
                        "value": 0.5905511811023622
                    },
                    {
                        "number": 7,
                        "time": 11.058398437499985,
                        "value": 0.5511811023622047
                    },
                    {
                        "number": 7,
                        "time": 11.095312499999984,
                        "value": 0.5196850393700787
                    },
                    {
                        "number": 7,
                        "time": 11.132226562499984,
                        "value": 0.48031496062992124
                    },
                    {
                        "number": 7,
                        "time": 11.169140624999983,
                        "value": 0.4409448818897638
                    },
                    {
                        "number": 7,
                        "time": 11.206054687499982,
                        "value": 0.4094488188976378
                    },
                    {
                        "number": 7,
                        "time": 11.399999999999983,
                        "value": 1
                    },
                    {
                        "number": 7,
                        "time": 14.73749999999999,
                        "value": 1
                    },
                    {
                        "number": 7,
                        "time": 14.77441406249999,
                        "value": 0.9448818897637795
                    },
                    {
                        "number": 7,
                        "time": 14.811328124999989,
                        "value": 0.889763779527559
                    },
                    {
                        "number": 7,
                        "time": 14.848242187499988,
                        "value": 0.8346456692913385
                    },
                    {
                        "number": 7,
                        "time": 14.885156249999987,
                        "value": 0.7795275590551181
                    },
                    {
                        "number": 7,
                        "time": 14.906249999999988,
                        "value": 0.7322834645669292
                    },
                    {
                        "number": 7,
                        "time": 16.19999999999999,
                        "value": 0.7244094488188977
                    },
                    {
                        "number": 7,
                        "time": 16.31074218749999,
                        "value": 0.7165354330708661
                    },
                    {
                        "number": 7,
                        "time": 16.42148437499999,
                        "value": 0.7086614173228346
                    },
                    {
                        "number": 7,
                        "time": 16.532226562499993,
                        "value": 0.7007874015748031
                    },
                    {
                        "number": 7,
                        "time": 16.642968749999994,
                        "value": 0.6929133858267716
                    },
                    {
                        "number": 7,
                        "time": 16.753710937499996,
                        "value": 0.6850393700787402
                    },
                    {
                        "number": 7,
                        "time": 16.864453124999997,
                        "value": 0.6771653543307087
                    },
                    {
                        "number": 7,
                        "time": 16.9751953125,
                        "value": 0.6692913385826772
                    },
                    {
                        "number": 7,
                        "time": 17.0859375,
                        "value": 0.6614173228346457
                    },
                    {
                        "number": 7,
                        "time": 17.1966796875,
                        "value": 0.6535433070866141
                    },
                    {
                        "number": 7,
                        "time": 17.307421875000003,
                        "value": 0.6456692913385826
                    },
                    {
                        "number": 7,
                        "time": 17.418164062500004,
                        "value": 0.6377952755905512
                    },
                    {
                        "number": 7,
                        "time": 17.528906250000006,
                        "value": 0.6299212598425197
                    },
                    {
                        "number": 7,
                        "time": 17.639648437500007,
                        "value": 0.6220472440944882
                    },
                    {
                        "number": 7,
                        "time": 17.75039062500001,
                        "value": 0.6141732283464567
                    },
                    {
                        "number": 7,
                        "time": 17.86113281250001,
                        "value": 0.6062992125984252
                    },
                    {
                        "number": 7,
                        "time": 18.24375000000001,
                        "value": 0.5905511811023622
                    },
                    {
                        "number": 7,
                        "time": 18.28066406250001,
                        "value": 0.5590551181102362
                    },
                    {
                        "number": 7,
                        "time": 18.317578125000008,
                        "value": 0.5275590551181102
                    },
                    {
                        "number": 7,
                        "time": 18.354492187500007,
                        "value": 0.49606299212598426
                    },
                    {
                        "number": 7,
                        "time": 18.391406250000006,
                        "value": 0.4645669291338583
                    },
                    {
                        "number": 7,
                        "time": 18.428320312500006,
                        "value": 0.4330708661417323
                    },
                    {
                        "number": 7,
                        "time": 18.465234375000005,
                        "value": 0.4015748031496063
                    },
                    {
                        "number": 7,
                        "time": 18.502148437500004,
                        "value": 0.3700787401574803
                    },
                    {
                        "number": 7,
                        "time": 18.539062500000004,
                        "value": 0.33858267716535434
                    },
                    {
                        "number": 7,
                        "time": 18.575976562500003,
                        "value": 0.30708661417322836
                    },
                    {
                        "number": 7,
                        "time": 19.181250000000002,
                        "value": 1
                    },
                    {
                        "number": 7,
                        "time": 23.98125000000001,
                        "value": 1
                    },
                    {
                        "number": 7,
                        "time": 24.03222656250001,
                        "value": 0.937007874015748
                    },
                    {
                        "number": 7,
                        "time": 24.08320312500001,
                        "value": 0.8661417322834646
                    },
                    {
                        "number": 7,
                        "time": 24.134179687500012,
                        "value": 0.7952755905511811
                    },
                    {
                        "number": 7,
                        "time": 24.185156250000013,
                        "value": 0.7244094488188977
                    },
                    {
                        "number": 7,
                        "time": 24.581250000000015,
                        "value": 1
                    },
                    {
                        "number": 7,
                        "time": 24.600000000000016,
                        "value": 1
                    },
                    {
                        "number": 7,
                        "time": 24.618750000000016,
                        "value": 1
                    },
                    {
                        "number": 7,
                        "time": 24.669726562500017,
                        "value": 0.905511811023622
                    },
                    {
                        "number": 7,
                        "time": 24.720703125000018,
                        "value": 0.8110236220472441
                    },
                    {
                        "number": 7,
                        "time": 24.77167968750002,
                        "value": 0.7086614173228346
                    },
                    {
                        "number": 7,
                        "time": 25.18125000000002,
                        "value": 1
                    },
                    {
                        "number": 7,
                        "time": 28.706250000000022,
                        "value": 1
                    },
                    {
                        "number": 7,
                        "time": 28.757226562500023,
                        "value": 0.9921259842519685
                    },
                    {
                        "number": 7,
                        "time": 28.808203125000023,
                        "value": 0.984251968503937
                    },
                    {
                        "number": 7,
                        "time": 28.859179687500024,
                        "value": 0.9763779527559056
                    },
                    {
                        "number": 7,
                        "time": 28.910156250000025,
                        "value": 0.968503937007874
                    },
                    {
                        "number": 7,
                        "time": 28.961132812500026,
                        "value": 0.952755905511811
                    },
                    {
                        "number": 7,
                        "time": 29.012109375000026,
                        "value": 0.9448818897637795
                    },
                    {
                        "number": 7,
                        "time": 29.063085937500027,
                        "value": 0.937007874015748
                    },
                    {
                        "number": 7,
                        "time": 29.114062500000028,
                        "value": 0.9291338582677166
                    },
                    {
                        "number": 7,
                        "time": 29.16503906250003,
                        "value": 0.9133858267716536
                    },
                    {
                        "number": 7,
                        "time": 29.21601562500003,
                        "value": 0.905511811023622
                    },
                    {
                        "number": 7,
                        "time": 29.26699218750003,
                        "value": 0.8976377952755905
                    },
                    {
                        "number": 7,
                        "time": 29.31796875000003,
                        "value": 0.889763779527559
                    },
                    {
                        "number": 7,
                        "time": 29.36894531250003,
                        "value": 0.8740157480314961
                    },
                    {
                        "number": 7,
                        "time": 29.419921875000032,
                        "value": 0.8661417322834646
                    },
                    {
                        "number": 7,
                        "time": 29.470898437500033,
                        "value": 0.8582677165354331
                    },
                    {
                        "number": 7,
                        "time": 29.521875000000033,
                        "value": 0.8503937007874016
                    },
                    {
                        "number": 7,
                        "time": 29.572851562500034,
                        "value": 0.84251968503937
                    },
                    {
                        "number": 7,
                        "time": 29.623828125000035,
                        "value": 0.8267716535433071
                    },
                    {
                        "number": 7,
                        "time": 29.674804687500036,
                        "value": 0.8188976377952756
                    },
                    {
                        "number": 7,
                        "time": 29.681250000000034,
                        "value": 0.8110236220472441
                    },
                    {
                        "number": 7,
                        "time": 29.732226562500035,
                        "value": 0.7086614173228346
                    },
                    {
                        "number": 7,
                        "time": 29.783203125000036,
                        "value": 0.6062992125984252
                    },
                    {
                        "number": 7,
                        "time": 29.834179687500036,
                        "value": 0.5039370078740157
                    },
                    {
                        "number": 7,
                        "time": 29.981250000000035,
                        "value": 1
                    },
                    {
                        "number": 7,
                        "time": 33.33105468750003,
                        "value": 1
                    },
                    {
                        "number": 7,
                        "time": 33.36562500000003,
                        "value": 0.9606299212598425
                    },
                    {
                        "number": 7,
                        "time": 33.40019531250003,
                        "value": 0.9212598425196851
                    },
                    {
                        "number": 7,
                        "time": 33.43476562500003,
                        "value": 0.8740157480314961
                    },
                    {
                        "number": 7,
                        "time": 33.469335937500034,
                        "value": 0.8346456692913385
                    },
                    {
                        "number": 7,
                        "time": 33.503906250000036,
                        "value": 0.7952755905511811
                    },
                    {
                        "number": 7,
                        "time": 33.53730468750003,
                        "value": 0.7952755905511811
                    },
                    {
                        "number": 7,
                        "time": 33.606445312500036,
                        "value": 0.7874015748031497
                    },
                    {
                        "number": 7,
                        "time": 33.67558593750004,
                        "value": 0.7795275590551181
                    },
                    {
                        "number": 7,
                        "time": 33.71015625000004,
                        "value": 0.7716535433070866
                    },
                    {
                        "number": 7,
                        "time": 33.77929687500004,
                        "value": 0.7637795275590551
                    },
                    {
                        "number": 7,
                        "time": 33.848437500000045,
                        "value": 0.7559055118110236
                    },
                    {
                        "number": 7,
                        "time": 33.88300781250005,
                        "value": 0.7480314960629921
                    },
                    {
                        "number": 7,
                        "time": 33.95214843750005,
                        "value": 0.7401574803149606
                    },
                    {
                        "number": 7,
                        "time": 34.02128906250005,
                        "value": 0.7322834645669292
                    },
                    {
                        "number": 7,
                        "time": 34.055859375000054,
                        "value": 0.7244094488188977
                    },
                    {
                        "number": 7,
                        "time": 34.12500000000006,
                        "value": 0.7165354330708661
                    },
                    {
                        "number": 7,
                        "time": 34.19414062500006,
                        "value": 0.7086614173228346
                    },
                    {
                        "number": 7,
                        "time": 34.22871093750006,
                        "value": 0.7007874015748031
                    },
                    {
                        "number": 7,
                        "time": 34.297851562500064,
                        "value": 0.6929133858267716
                    },
                    {
                        "number": 7,
                        "time": 34.36699218750007,
                        "value": 0.6850393700787402
                    },
                    {
                        "number": 7,
                        "time": 34.40156250000007,
                        "value": 0.6771653543307087
                    },
                    {
                        "number": 7,
                        "time": 34.47070312500007,
                        "value": 0.6692913385826772
                    },
                    {
                        "number": 7,
                        "time": 34.50527343750007,
                        "value": 0.6614173228346457
                    },
                    {
                        "number": 7,
                        "time": 34.574414062500075,
                        "value": 0.6535433070866141
                    },
                    {
                        "number": 7,
                        "time": 34.64355468750008,
                        "value": 0.6456692913385826
                    },
                    {
                        "number": 7,
                        "time": 34.67812500000008,
                        "value": 0.6377952755905512
                    },
                    {
                        "number": 7,
                        "time": 34.74726562500008,
                        "value": 0.6299212598425197
                    },
                    {
                        "number": 7,
                        "time": 34.816406250000085,
                        "value": 0.6220472440944882
                    },
                    {
                        "number": 7,
                        "time": 34.85097656250009,
                        "value": 0.6141732283464567
                    },
                    {
                        "number": 7,
                        "time": 34.92011718750009,
                        "value": 0.6062992125984252
                    },
                    {
                        "number": 7,
                        "time": 34.98925781250009,
                        "value": 0.5984251968503937
                    },
                    {
                        "number": 7,
                        "time": 35.023828125000094,
                        "value": 0.5905511811023622
                    },
                    {
                        "number": 7,
                        "time": 35.0929687500001,
                        "value": 0.5826771653543307
                    },
                    {
                        "number": 7,
                        "time": 35.1621093750001,
                        "value": 0.5748031496062992
                    },
                    {
                        "number": 7,
                        "time": 35.1966796875001,
                        "value": 0.5669291338582677
                    },
                    {
                        "number": 7,
                        "time": 35.265820312500104,
                        "value": 0.5590551181102362
                    },
                    {
                        "number": 7,
                        "time": 35.300390625000105,
                        "value": 0.5511811023622047
                    },
                    {
                        "number": 7,
                        "time": 35.356054687500105,
                        "value": 0.5433070866141733
                    },
                    {
                        "number": 7,
                        "time": 35.42519531250011,
                        "value": 0.5354330708661418
                    },
                    {
                        "number": 7,
                        "time": 35.45976562500011,
                        "value": 0.5275590551181102
                    },
                    {
                        "number": 7,
                        "time": 35.49433593750011,
                        "value": 0.5196850393700787
                    },
                    {
                        "number": 7,
                        "time": 35.52890625000011,
                        "value": 0.5118110236220472
                    },
                    {
                        "number": 7,
                        "time": 35.598046875000115,
                        "value": 0.5039370078740157
                    },
                    {
                        "number": 7,
                        "time": 35.63261718750012,
                        "value": 0.49606299212598426
                    },
                    {
                        "number": 7,
                        "time": 35.66718750000012,
                        "value": 0.4881889763779528
                    },
                    {
                        "number": 7,
                        "time": 35.70175781250012,
                        "value": 0.48031496062992124
                    },
                    {
                        "number": 7,
                        "time": 35.77089843750012,
                        "value": 0.47244094488188976
                    },
                    {
                        "number": 7,
                        "time": 35.805468750000124,
                        "value": 0.4645669291338583
                    },
                    {
                        "number": 7,
                        "time": 35.840039062500125,
                        "value": 0.4566929133858268
                    },
                    {
                        "number": 7,
                        "time": 35.87460937500013,
                        "value": 0.44881889763779526
                    },
                    {
                        "number": 7,
                        "time": 35.94375000000013,
                        "value": 0.4409448818897638
                    },
                    {
                        "number": 7,
                        "time": 35.97832031250013,
                        "value": 0.4330708661417323
                    },
                    {
                        "number": 7,
                        "time": 36.01289062500013,
                        "value": 0.4251968503937008
                    },
                    {
                        "number": 7,
                        "time": 36.047460937500134,
                        "value": 0.41732283464566927
                    },
                    {
                        "number": 7,
                        "time": 36.082031250000135,
                        "value": 0.4094488188976378
                    },
                    {
                        "number": 7,
                        "time": 36.15117187500014,
                        "value": 0.4015748031496063
                    },
                    {
                        "number": 7,
                        "time": 36.18574218750014,
                        "value": 0.3937007874015748
                    },
                    {
                        "number": 7,
                        "time": 36.22031250000014,
                        "value": 0.3858267716535433
                    },
                    {
                        "number": 7,
                        "time": 36.25488281250014,
                        "value": 0.3779527559055118
                    },
                    {
                        "number": 7,
                        "time": 36.324023437500145,
                        "value": 0.3700787401574803
                    },
                    {
                        "number": 7,
                        "time": 36.358593750000146,
                        "value": 0.36220472440944884
                    },
                    {
                        "number": 7,
                        "time": 36.39316406250015,
                        "value": 0.3543307086614173
                    },
                    {
                        "number": 7,
                        "time": 36.42773437500015,
                        "value": 0.3464566929133858
                    },
                    {
                        "number": 7,
                        "time": 36.49687500000015,
                        "value": 0.33858267716535434
                    },
                    {
                        "number": 7,
                        "time": 36.53144531250015,
                        "value": 0.33070866141732286
                    },
                    {
                        "number": 7,
                        "time": 36.566015625000155,
                        "value": 0.3228346456692913
                    },
                    {
                        "number": 7,
                        "time": 37.75605468750015,
                        "value": 1
                    },
                    {
                        "number": 7,
                        "time": 39.000000000000156,
                        "value": 1
                    },
                    {
                        "number": 7,
                        "time": 39.038085937500156,
                        "value": 0.9763779527559056
                    },
                    {
                        "number": 7,
                        "time": 39.076171875000156,
                        "value": 0.952755905511811
                    },
                    {
                        "number": 7,
                        "time": 39.114257812500156,
                        "value": 0.9291338582677166
                    },
                    {
                        "number": 7,
                        "time": 39.152343750000156,
                        "value": 0.905511811023622
                    },
                    {
                        "number": 7,
                        "time": 39.190429687500156,
                        "value": 0.8818897637795275
                    },
                    {
                        "number": 7,
                        "time": 39.228515625000156,
                        "value": 0.8582677165354331
                    },
                    {
                        "number": 7,
                        "time": 39.266601562500156,
                        "value": 0.8346456692913385
                    },
                    {
                        "number": 7,
                        "time": 39.304687500000156,
                        "value": 0.8031496062992126
                    },
                    {
                        "number": 7,
                        "time": 39.342773437500156,
                        "value": 0.7795275590551181
                    },
                    {
                        "number": 7,
                        "time": 39.380859375000156,
                        "value": 0.7559055118110236
                    },
                    {
                        "number": 7,
                        "time": 39.418945312500156,
                        "value": 0.7322834645669292
                    },
                    {
                        "number": 7,
                        "time": 39.457031250000156,
                        "value": 0.7086614173228346
                    },
                    {
                        "number": 7,
                        "time": 39.495117187500156,
                        "value": 0.6850393700787402
                    },
                    {
                        "number": 7,
                        "time": 39.533203125000156,
                        "value": 0.6614173228346457
                    },
                    {
                        "number": 7,
                        "time": 39.571289062500156,
                        "value": 0.6299212598425197
                    },
                    {
                        "number": 7,
                        "time": 39.609375000000156,
                        "value": 0.6062992125984252
                    },
                    {
                        "number": 7,
                        "time": 40.181250000000155,
                        "value": 1
                    },
                    {
                        "number": 7,
                        "time": 41.437500000000156,
                        "value": 0.984251968503937
                    },
                    {
                        "number": 7,
                        "time": 41.475585937500156,
                        "value": 0.9606299212598425
                    },
                    {
                        "number": 7,
                        "time": 41.513671875000156,
                        "value": 0.937007874015748
                    },
                    {
                        "number": 7,
                        "time": 41.551757812500156,
                        "value": 0.9133858267716536
                    },
                    {
                        "number": 7,
                        "time": 41.589843750000156,
                        "value": 0.889763779527559
                    },
                    {
                        "number": 7,
                        "time": 41.627929687500156,
                        "value": 0.8582677165354331
                    },
                    {
                        "number": 7,
                        "time": 41.666015625000156,
                        "value": 0.8346456692913385
                    },
                    {
                        "number": 7,
                        "time": 41.704101562500156,
                        "value": 0.8110236220472441
                    },
                    {
                        "number": 7,
                        "time": 41.742187500000156,
                        "value": 0.7874015748031497
                    },
                    {
                        "number": 7,
                        "time": 41.780273437500156,
                        "value": 0.7637795275590551
                    },
                    {
                        "number": 7,
                        "time": 41.818359375000156,
                        "value": 0.7322834645669292
                    },
                    {
                        "number": 7,
                        "time": 41.856445312500156,
                        "value": 0.7086614173228346
                    },
                    {
                        "number": 7,
                        "time": 41.894531250000156,
                        "value": 0.6850393700787402
                    },
                    {
                        "number": 7,
                        "time": 41.932617187500156,
                        "value": 0.6614173228346457
                    },
                    {
                        "number": 7,
                        "time": 41.970703125000156,
                        "value": 0.6377952755905512
                    },
                    {
                        "number": 7,
                        "time": 42.008789062500156,
                        "value": 0.6062992125984252
                    },
                    {
                        "number": 7,
                        "time": 42.58125000000015,
                        "value": 0.49606299212598426
                    },
                    {
                        "number": 7,
                        "time": 43.21875000000015,
                        "value": 0.5039370078740157
                    },
                    {
                        "number": 7,
                        "time": 43.33300781250015,
                        "value": 0.5118110236220472
                    },
                    {
                        "number": 7,
                        "time": 43.40917968750015,
                        "value": 0.5196850393700787
                    },
                    {
                        "number": 7,
                        "time": 43.48535156250015,
                        "value": 0.5275590551181102
                    },
                    {
                        "number": 7,
                        "time": 43.56152343750015,
                        "value": 0.5354330708661418
                    },
                    {
                        "number": 7,
                        "time": 43.63769531250015,
                        "value": 0.5433070866141733
                    },
                    {
                        "number": 7,
                        "time": 43.71386718750015,
                        "value": 0.5511811023622047
                    },
                    {
                        "number": 7,
                        "time": 43.79003906250015,
                        "value": 0.5590551181102362
                    },
                    {
                        "number": 7,
                        "time": 43.90429687500015,
                        "value": 0.5669291338582677
                    },
                    {
                        "number": 7,
                        "time": 43.98046875000015,
                        "value": 0.5748031496062992
                    },
                    {
                        "number": 7,
                        "time": 44.05664062500015,
                        "value": 0.5826771653543307
                    },
                    {
                        "number": 7,
                        "time": 44.13281250000015,
                        "value": 0.5905511811023622
                    },
                    {
                        "number": 7,
                        "time": 44.20898437500015,
                        "value": 0.5984251968503937
                    },
                    {
                        "number": 7,
                        "time": 44.28515625000015,
                        "value": 0.6062992125984252
                    },
                    {
                        "number": 7,
                        "time": 44.36132812500015,
                        "value": 0.6141732283464567
                    },
                    {
                        "number": 7,
                        "time": 44.43750000000015,
                        "value": 0.6220472440944882
                    },
                    {
                        "number": 7,
                        "time": 44.55175781250015,
                        "value": 0.6299212598425197
                    },
                    {
                        "number": 7,
                        "time": 44.62792968750015,
                        "value": 0.6377952755905512
                    },
                    {
                        "number": 7,
                        "time": 44.70410156250015,
                        "value": 0.6456692913385826
                    },
                    {
                        "number": 7,
                        "time": 44.78027343750015,
                        "value": 0.6535433070866141
                    },
                    {
                        "number": 7,
                        "time": 44.85644531250015,
                        "value": 0.6614173228346457
                    },
                    {
                        "number": 7,
                        "time": 44.93261718750015,
                        "value": 0.6692913385826772
                    },
                    {
                        "number": 7,
                        "time": 45.00000000000015,
                        "value": 0.6771653543307087
                    },
                    {
                        "number": 7,
                        "time": 45.03808593750015,
                        "value": 0.6929133858267716
                    },
                    {
                        "number": 7,
                        "time": 45.07617187500015,
                        "value": 0.7165354330708661
                    },
                    {
                        "number": 7,
                        "time": 45.11425781250015,
                        "value": 0.7322834645669292
                    },
                    {
                        "number": 7,
                        "time": 45.15234375000015,
                        "value": 0.7559055118110236
                    },
                    {
                        "number": 7,
                        "time": 45.19042968750015,
                        "value": 0.7716535433070866
                    },
                    {
                        "number": 7,
                        "time": 45.22851562500015,
                        "value": 0.7952755905511811
                    },
                    {
                        "number": 7,
                        "time": 45.26660156250015,
                        "value": 0.8110236220472441
                    },
                    {
                        "number": 7,
                        "time": 45.30468750000015,
                        "value": 0.8346456692913385
                    },
                    {
                        "number": 7,
                        "time": 45.34277343750015,
                        "value": 0.8503937007874016
                    },
                    {
                        "number": 7,
                        "time": 45.38085937500015,
                        "value": 0.8740157480314961
                    },
                    {
                        "number": 7,
                        "time": 45.41894531250015,
                        "value": 0.889763779527559
                    },
                    {
                        "number": 7,
                        "time": 45.45703125000015,
                        "value": 0.9133858267716536
                    },
                    {
                        "number": 7,
                        "time": 45.49511718750015,
                        "value": 0.9291338582677166
                    },
                    {
                        "number": 7,
                        "time": 45.53320312500015,
                        "value": 0.952755905511811
                    },
                    {
                        "number": 7,
                        "time": 45.57128906250015,
                        "value": 0.968503937007874
                    },
                    {
                        "number": 7,
                        "time": 45.60937500000015,
                        "value": 0.9921259842519685
                    },
                    {
                        "number": 7,
                        "time": 45.82500000000015,
                        "value": 0.984251968503937
                    },
                    {
                        "number": 7,
                        "time": 45.86308593750015,
                        "value": 0.9763779527559056
                    },
                    {
                        "number": 7,
                        "time": 45.90117187500015,
                        "value": 0.9606299212598425
                    },
                    {
                        "number": 7,
                        "time": 45.93925781250015,
                        "value": 0.9448818897637795
                    },
                    {
                        "number": 7,
                        "time": 45.97734375000015,
                        "value": 0.9291338582677166
                    },
                    {
                        "number": 7,
                        "time": 46.01542968750015,
                        "value": 0.9133858267716536
                    },
                    {
                        "number": 7,
                        "time": 46.05351562500015,
                        "value": 0.8976377952755905
                    },
                    {
                        "number": 7,
                        "time": 46.09160156250015,
                        "value": 0.8818897637795275
                    },
                    {
                        "number": 7,
                        "time": 46.12968750000015,
                        "value": 0.8661417322834646
                    },
                    {
                        "number": 7,
                        "time": 46.16777343750015,
                        "value": 0.8503937007874016
                    },
                    {
                        "number": 7,
                        "time": 46.20585937500015,
                        "value": 0.8346456692913385
                    },
                    {
                        "number": 7,
                        "time": 46.24394531250015,
                        "value": 0.8188976377952756
                    },
                    {
                        "number": 7,
                        "time": 46.28203125000015,
                        "value": 0.8031496062992126
                    },
                    {
                        "number": 7,
                        "time": 46.32011718750015,
                        "value": 0.7874015748031497
                    },
                    {
                        "number": 7,
                        "time": 46.35820312500015,
                        "value": 0.7716535433070866
                    },
                    {
                        "number": 7,
                        "time": 46.39628906250015,
                        "value": 0.7559055118110236
                    },
                    {
                        "number": 7,
                        "time": 46.43437500000015,
                        "value": 0.7401574803149606
                    },
                    {
                        "number": 7,
                        "time": 46.47246093750015,
                        "value": 0.7244094488188977
                    },
                    {
                        "number": 7,
                        "time": 46.51054687500015,
                        "value": 0.7086614173228346
                    },
                    {
                        "number": 7,
                        "time": 46.54863281250015,
                        "value": 0.6929133858267716
                    },
                    {
                        "number": 7,
                        "time": 46.58671875000015,
                        "value": 0.6771653543307087
                    },
                    {
                        "number": 7,
                        "time": 46.62480468750015,
                        "value": 0.6692913385826772
                    },
                    {
                        "number": 7,
                        "time": 46.66289062500015,
                        "value": 0.6535433070866141
                    },
                    {
                        "number": 7,
                        "time": 46.70097656250015,
                        "value": 0.6377952755905512
                    },
                    {
                        "number": 7,
                        "time": 46.73906250000015,
                        "value": 0.6220472440944882
                    },
                    {
                        "number": 7,
                        "time": 46.77714843750015,
                        "value": 0.6062992125984252
                    },
                    {
                        "number": 7,
                        "time": 46.931250000000155,
                        "value": 0.5984251968503937
                    },
                    {
                        "number": 7,
                        "time": 47.121679687500155,
                        "value": 0.5905511811023622
                    },
                    {
                        "number": 7,
                        "time": 47.274023437500155,
                        "value": 0.5826771653543307
                    },
                    {
                        "number": 7,
                        "time": 47.426367187500155,
                        "value": 0.5748031496062992
                    },
                    {
                        "number": 7,
                        "time": 47.578710937500155,
                        "value": 0.5669291338582677
                    },
                    {
                        "number": 7,
                        "time": 47.731054687500155,
                        "value": 0.5590551181102362
                    },
                    {
                        "number": 7,
                        "time": 47.883398437500155,
                        "value": 0.5511811023622047
                    },
                    {
                        "number": 7,
                        "time": 48.035742187500155,
                        "value": 0.5433070866141733
                    },
                    {
                        "number": 7,
                        "time": 48.187500000000156,
                        "value": 0.5354330708661418
                    },
                    {
                        "number": 7,
                        "time": 48.225585937500156,
                        "value": 0.49606299212598426
                    },
                    {
                        "number": 7,
                        "time": 48.263671875000156,
                        "value": 0.44881889763779526
                    },
                    {
                        "number": 7,
                        "time": 48.301757812500156,
                        "value": 0.4015748031496063
                    },
                    {
                        "number": 7,
                        "time": 48.339843750000156,
                        "value": 0.3543307086614173
                    },
                    {
                        "number": 7,
                        "time": 48.377929687500156,
                        "value": 0.30708661417322836
                    },
                    {
                        "number": 7,
                        "time": 48.416015625000156,
                        "value": 0.2677165354330709
                    },
                    {
                        "number": 7,
                        "time": 48.562500000000156,
                        "value": 0.5511811023622047
                    },
                    {
                        "number": 7,
                        "time": 48.600585937500156,
                        "value": 0.5590551181102362
                    },
                    {
                        "number": 7,
                        "time": 48.638671875000156,
                        "value": 0.5669291338582677
                    },
                    {
                        "number": 7,
                        "time": 48.676757812500156,
                        "value": 0.5748031496062992
                    },
                    {
                        "number": 7,
                        "time": 48.714843750000156,
                        "value": 0.5826771653543307
                    },
                    {
                        "number": 7,
                        "time": 48.752929687500156,
                        "value": 0.5905511811023622
                    },
                    {
                        "number": 7,
                        "time": 48.791015625000156,
                        "value": 0.5984251968503937
                    },
                    {
                        "number": 7,
                        "time": 48.829101562500156,
                        "value": 0.6062992125984252
                    },
                    {
                        "number": 7,
                        "time": 48.867187500000156,
                        "value": 0.6141732283464567
                    },
                    {
                        "number": 7,
                        "time": 48.905273437500156,
                        "value": 0.6220472440944882
                    },
                    {
                        "number": 7,
                        "time": 48.943359375000156,
                        "value": 0.6299212598425197
                    },
                    {
                        "number": 7,
                        "time": 48.981445312500156,
                        "value": 0.6377952755905512
                    },
                    {
                        "number": 7,
                        "time": 49.019531250000156,
                        "value": 0.6456692913385826
                    },
                    {
                        "number": 7,
                        "time": 49.057617187500156,
                        "value": 0.6535433070866141
                    },
                    {
                        "number": 7,
                        "time": 49.095703125000156,
                        "value": 0.6614173228346457
                    },
                    {
                        "number": 7,
                        "time": 49.133789062500156,
                        "value": 0.6692913385826772
                    },
                    {
                        "number": 7,
                        "time": 49.171875000000156,
                        "value": 0.6771653543307087
                    },
                    {
                        "number": 7,
                        "time": 49.209960937500156,
                        "value": 0.6850393700787402
                    },
                    {
                        "number": 7,
                        "time": 49.248046875000156,
                        "value": 0.6929133858267716
                    },
                    {
                        "number": 7,
                        "time": 49.286132812500156,
                        "value": 0.7007874015748031
                    },
                    {
                        "number": 7,
                        "time": 49.324218750000156,
                        "value": 0.7086614173228346
                    },
                    {
                        "number": 7,
                        "time": 49.362304687500156,
                        "value": 0.7165354330708661
                    },
                    {
                        "number": 7,
                        "time": 49.400390625000156,
                        "value": 0.7244094488188977
                    },
                    {
                        "number": 7,
                        "time": 49.438476562500156,
                        "value": 0.7322834645669292
                    },
                    {
                        "number": 7,
                        "time": 49.476562500000156,
                        "value": 0.7401574803149606
                    },
                    {
                        "number": 7,
                        "time": 49.514648437500156,
                        "value": 0.7480314960629921
                    },
                    {
                        "number": 7,
                        "time": 49.552734375000156,
                        "value": 0.7559055118110236
                    },
                    {
                        "number": 7,
                        "time": 49.590820312500156,
                        "value": 0.7716535433070866
                    },
                    {
                        "number": 7,
                        "time": 49.628906250000156,
                        "value": 0.7795275590551181
                    },
                    {
                        "number": 7,
                        "time": 49.666992187500156,
                        "value": 0.7874015748031497
                    },
                    {
                        "number": 7,
                        "time": 49.705078125000156,
                        "value": 0.7952755905511811
                    },
                    {
                        "number": 7,
                        "time": 49.743164062500156,
                        "value": 0.8031496062992126
                    },
                    {
                        "number": 7,
                        "time": 49.781250000000156,
                        "value": 0.8110236220472441
                    },
                    {
                        "number": 7,
                        "time": 49.819335937500156,
                        "value": 0.8188976377952756
                    },
                    {
                        "number": 7,
                        "time": 49.857421875000156,
                        "value": 0.8267716535433071
                    },
                    {
                        "number": 7,
                        "time": 49.895507812500156,
                        "value": 0.8346456692913385
                    },
                    {
                        "number": 7,
                        "time": 49.933593750000156,
                        "value": 0.84251968503937
                    },
                    {
                        "number": 7,
                        "time": 49.971679687500156,
                        "value": 0.8503937007874016
                    },
                    {
                        "number": 7,
                        "time": 50.009765625000156,
                        "value": 0.8582677165354331
                    },
                    {
                        "number": 7,
                        "time": 50.047851562500156,
                        "value": 0.8661417322834646
                    },
                    {
                        "number": 7,
                        "time": 50.085937500000156,
                        "value": 0.8740157480314961
                    },
                    {
                        "number": 7,
                        "time": 50.124023437500156,
                        "value": 0.8818897637795275
                    },
                    {
                        "number": 7,
                        "time": 50.162109375000156,
                        "value": 0.889763779527559
                    },
                    {
                        "number": 7,
                        "time": 50.200195312500156,
                        "value": 0.8976377952755905
                    },
                    {
                        "number": 7,
                        "time": 50.238281250000156,
                        "value": 0.905511811023622
                    },
                    {
                        "number": 7,
                        "time": 50.276367187500156,
                        "value": 0.9133858267716536
                    },
                    {
                        "number": 7,
                        "time": 50.314453125000156,
                        "value": 0.9212598425196851
                    },
                    {
                        "number": 7,
                        "time": 50.45625000000015,
                        "value": 0.9291338582677166
                    },
                    {
                        "number": 7,
                        "time": 50.53242187500015,
                        "value": 0.9212598425196851
                    },
                    {
                        "number": 7,
                        "time": 50.57050781250015,
                        "value": 0.9133858267716536
                    },
                    {
                        "number": 7,
                        "time": 50.60859375000015,
                        "value": 0.905511811023622
                    },
                    {
                        "number": 7,
                        "time": 50.64667968750015,
                        "value": 0.8976377952755905
                    },
                    {
                        "number": 7,
                        "time": 50.72285156250015,
                        "value": 0.889763779527559
                    },
                    {
                        "number": 7,
                        "time": 50.76093750000015,
                        "value": 0.8818897637795275
                    },
                    {
                        "number": 7,
                        "time": 50.79902343750015,
                        "value": 0.8740157480314961
                    },
                    {
                        "number": 7,
                        "time": 50.83710937500015,
                        "value": 0.8661417322834646
                    },
                    {
                        "number": 7,
                        "time": 50.91328125000015,
                        "value": 0.8582677165354331
                    },
                    {
                        "number": 7,
                        "time": 50.95136718750015,
                        "value": 0.8503937007874016
                    },
                    {
                        "number": 7,
                        "time": 50.98945312500015,
                        "value": 0.84251968503937
                    },
                    {
                        "number": 7,
                        "time": 51.02753906250015,
                        "value": 0.8346456692913385
                    },
                    {
                        "number": 7,
                        "time": 51.06562500000015,
                        "value": 0.8267716535433071
                    },
                    {
                        "number": 7,
                        "time": 51.14179687500015,
                        "value": 0.8188976377952756
                    },
                    {
                        "number": 7,
                        "time": 51.17988281250015,
                        "value": 0.8110236220472441
                    },
                    {
                        "number": 7,
                        "time": 51.21796875000015,
                        "value": 0.8031496062992126
                    },
                    {
                        "number": 7,
                        "time": 51.25605468750015,
                        "value": 0.7952755905511811
                    },
                    {
                        "number": 7,
                        "time": 51.33222656250015,
                        "value": 0.7874015748031497
                    },
                    {
                        "number": 7,
                        "time": 51.37031250000015,
                        "value": 0.7795275590551181
                    },
                    {
                        "number": 7,
                        "time": 51.40839843750015,
                        "value": 0.7716535433070866
                    },
                    {
                        "number": 7,
                        "time": 51.44648437500015,
                        "value": 0.7637795275590551
                    },
                    {
                        "number": 7,
                        "time": 51.52265625000015,
                        "value": 0.7559055118110236
                    },
                    {
                        "number": 7,
                        "time": 51.56074218750015,
                        "value": 0.7480314960629921
                    },
                    {
                        "number": 7,
                        "time": 51.59882812500015,
                        "value": 0.7401574803149606
                    },
                    {
                        "number": 7,
                        "time": 51.63691406250015,
                        "value": 0.7322834645669292
                    },
                    {
                        "number": 7,
                        "time": 51.67500000000015,
                        "value": 0.7244094488188977
                    },
                    {
                        "number": 7,
                        "time": 51.75117187500015,
                        "value": 0.7165354330708661
                    },
                    {
                        "number": 7,
                        "time": 51.76875000000015,
                        "value": 0.7086614173228346
                    },
                    {
                        "number": 7,
                        "time": 51.80683593750015,
                        "value": 0.6929133858267716
                    },
                    {
                        "number": 7,
                        "time": 51.84492187500015,
                        "value": 0.6771653543307087
                    },
                    {
                        "number": 7,
                        "time": 51.88300781250015,
                        "value": 0.6535433070866141
                    },
                    {
                        "number": 7,
                        "time": 51.92109375000015,
                        "value": 0.6377952755905512
                    },
                    {
                        "number": 7,
                        "time": 51.95917968750015,
                        "value": 0.6220472440944882
                    },
                    {
                        "number": 7,
                        "time": 51.99726562500015,
                        "value": 0.5984251968503937
                    },
                    {
                        "number": 7,
                        "time": 52.03535156250015,
                        "value": 0.5826771653543307
                    },
                    {
                        "number": 7,
                        "time": 52.07343750000015,
                        "value": 0.5590551181102362
                    },
                    {
                        "number": 7,
                        "time": 52.11152343750015,
                        "value": 0.5433070866141733
                    },
                    {
                        "number": 7,
                        "time": 52.14960937500015,
                        "value": 0.5275590551181102
                    },
                    {
                        "number": 7,
                        "time": 52.18769531250015,
                        "value": 0.5039370078740157
                    },
                    {
                        "number": 7,
                        "time": 54.01875000000015,
                        "value": 0.5039370078740157
                    },
                    {
                        "number": 7,
                        "time": 54.07500000000015,
                        "value": 0.5039370078740157
                    },
                    {
                        "number": 7,
                        "time": 54.56250000000015,
                        "value": 0.49606299212598426
                    },
                    {
                        "number": 7,
                        "time": 54.63867187500015,
                        "value": 0.4881889763779528
                    },
                    {
                        "number": 7,
                        "time": 54.67675781250015,
                        "value": 0.48031496062992124
                    },
                    {
                        "number": 7,
                        "time": 54.71484375000015,
                        "value": 0.47244094488188976
                    },
                    {
                        "number": 7,
                        "time": 54.79101562500015,
                        "value": 0.4645669291338583
                    },
                    {
                        "number": 7,
                        "time": 54.82910156250015,
                        "value": 0.4566929133858268
                    },
                    {
                        "number": 7,
                        "time": 54.86718750000015,
                        "value": 0.44881889763779526
                    },
                    {
                        "number": 7,
                        "time": 54.94335937500015,
                        "value": 0.4409448818897638
                    },
                    {
                        "number": 7,
                        "time": 54.98144531250015,
                        "value": 0.4330708661417323
                    },
                    {
                        "number": 7,
                        "time": 55.01953125000015,
                        "value": 0.4251968503937008
                    },
                    {
                        "number": 7,
                        "time": 55.09570312500015,
                        "value": 0.41732283464566927
                    },
                    {
                        "number": 7,
                        "time": 55.13378906250015,
                        "value": 0.4094488188976378
                    },
                    {
                        "number": 7,
                        "time": 55.17187500000015,
                        "value": 0.4015748031496063
                    },
                    {
                        "number": 7,
                        "time": 55.21875000000015,
                        "value": 0.3937007874015748
                    },
                    {
                        "number": 7,
                        "time": 55.37109375000015,
                        "value": 0.3858267716535433
                    },
                    {
                        "number": 7,
                        "time": 55.518750000000146,
                        "value": 0.3779527559055118
                    },
                    {
                        "number": 7,
                        "time": 55.556835937500146,
                        "value": 0.3543307086614173
                    },
                    {
                        "number": 7,
                        "time": 55.594921875000146,
                        "value": 0.33070866141732286
                    },
                    {
                        "number": 7,
                        "time": 55.633007812500146,
                        "value": 0.30708661417322836
                    },
                    {
                        "number": 7,
                        "time": 55.671093750000146,
                        "value": 0.28346456692913385
                    },
                    {
                        "number": 7,
                        "time": 55.709179687500146,
                        "value": 0.25984251968503935
                    },
                    {
                        "number": 7,
                        "time": 55.747265625000146,
                        "value": 0.2283464566929134
                    },
                    {
                        "number": 7,
                        "time": 56.362500000000146,
                        "value": 1
                    },
                    {
                        "number": 7,
                        "time": 65.62500000000007,
                        "value": 1
                    },
                    {
                        "number": 7,
                        "time": 65.70234375000007,
                        "value": 0.9921259842519685
                    },
                    {
                        "number": 7,
                        "time": 65.72812500000006,
                        "value": 0.984251968503937
                    },
                    {
                        "number": 7,
                        "time": 65.77968750000007,
                        "value": 0.9763779527559056
                    },
                    {
                        "number": 7,
                        "time": 65.80546875000006,
                        "value": 0.968503937007874
                    },
                    {
                        "number": 7,
                        "time": 65.83125000000005,
                        "value": 0.9606299212598425
                    },
                    {
                        "number": 7,
                        "time": 65.88281250000006,
                        "value": 0.952755905511811
                    },
                    {
                        "number": 7,
                        "time": 65.90859375000005,
                        "value": 0.9448818897637795
                    },
                    {
                        "number": 7,
                        "time": 65.93437500000005,
                        "value": 0.937007874015748
                    },
                    {
                        "number": 7,
                        "time": 65.98593750000005,
                        "value": 0.9291338582677166
                    },
                    {
                        "number": 7,
                        "time": 66.01171875000004,
                        "value": 0.9212598425196851
                    },
                    {
                        "number": 7,
                        "time": 66.03750000000004,
                        "value": 0.9133858267716536
                    },
                    {
                        "number": 7,
                        "time": 66.08906250000004,
                        "value": 0.905511811023622
                    },
                    {
                        "number": 7,
                        "time": 66.11484375000003,
                        "value": 0.8976377952755905
                    },
                    {
                        "number": 7,
                        "time": 66.14062500000003,
                        "value": 0.889763779527559
                    },
                    {
                        "number": 7,
                        "time": 66.19218750000003,
                        "value": 0.8818897637795275
                    },
                    {
                        "number": 7,
                        "time": 66.21796875000003,
                        "value": 0.8740157480314961
                    },
                    {
                        "number": 7,
                        "time": 66.24375000000002,
                        "value": 0.8661417322834646
                    },
                    {
                        "number": 7,
                        "time": 66.29531250000002,
                        "value": 0.8582677165354331
                    },
                    {
                        "number": 7,
                        "time": 66.32109375000002,
                        "value": 0.8503937007874016
                    },
                    {
                        "number": 7,
                        "time": 66.34687500000001,
                        "value": 0.84251968503937
                    },
                    {
                        "number": 7,
                        "time": 66.39843750000001,
                        "value": 0.8346456692913385
                    },
                    {
                        "number": 7,
                        "time": 66.42421875000001,
                        "value": 0.8267716535433071
                    },
                    {
                        "number": 7,
                        "time": 66.45,
                        "value": 0.8188976377952756
                    },
                    {
                        "number": 7,
                        "time": 66.5015625,
                        "value": 0.8110236220472441
                    },
                    {
                        "number": 7,
                        "time": 66.52734375,
                        "value": 0.8031496062992126
                    },
                    {
                        "number": 7,
                        "time": 66.553125,
                        "value": 0.7952755905511811
                    },
                    {
                        "number": 7,
                        "time": 66.6046875,
                        "value": 0.7874015748031497
                    },
                    {
                        "number": 7,
                        "time": 66.63046874999999,
                        "value": 0.7795275590551181
                    },
                    {
                        "number": 7,
                        "time": 66.65624999999999,
                        "value": 0.7716535433070866
                    },
                    {
                        "number": 7,
                        "time": 66.70781249999999,
                        "value": 0.7637795275590551
                    },
                    {
                        "number": 7,
                        "time": 66.73359374999998,
                        "value": 0.7559055118110236
                    },
                    {
                        "number": 7,
                        "time": 66.75937499999998,
                        "value": 0.7480314960629921
                    },
                    {
                        "number": 7,
                        "time": 66.78749999999998,
                        "value": 0.7401574803149606
                    },
                    {
                        "number": 7,
                        "time": 66.81328124999997,
                        "value": 0.7086614173228346
                    },
                    {
                        "number": 7,
                        "time": 66.83906249999997,
                        "value": 0.6771653543307087
                    },
                    {
                        "number": 7,
                        "time": 66.86484374999996,
                        "value": 0.6456692913385826
                    },
                    {
                        "number": 7,
                        "time": 66.89062499999996,
                        "value": 0.6141732283464567
                    },
                    {
                        "number": 7,
                        "time": 66.91640624999995,
                        "value": 0.5826771653543307
                    },
                    {
                        "number": 7,
                        "time": 66.94218749999995,
                        "value": 0.5511811023622047
                    },
                    {
                        "number": 7,
                        "time": 66.96796874999994,
                        "value": 0.5196850393700787
                    },
                    {
                        "number": 7,
                        "time": 66.99374999999993,
                        "value": 0.48031496062992124
                    },
                    {
                        "number": 7,
                        "time": 67.01953124999993,
                        "value": 0.44881889763779526
                    },
                    {
                        "number": 7,
                        "time": 67.18124999999993,
                        "value": 1
                    },
                    {
                        "number": 7,
                        "time": 72.97499999999988,
                        "value": 1
                    },
                    {
                        "number": 7,
                        "time": 73.02656249999988,
                        "value": 0.9921259842519685
                    },
                    {
                        "number": 7,
                        "time": 73.05234374999988,
                        "value": 0.984251968503937
                    },
                    {
                        "number": 7,
                        "time": 73.07812499999987,
                        "value": 0.9763779527559056
                    },
                    {
                        "number": 7,
                        "time": 73.10390624999987,
                        "value": 0.968503937007874
                    },
                    {
                        "number": 7,
                        "time": 73.12968749999986,
                        "value": 0.9606299212598425
                    },
                    {
                        "number": 7,
                        "time": 73.18124999999986,
                        "value": 0.952755905511811
                    },
                    {
                        "number": 7,
                        "time": 73.20703124999986,
                        "value": 0.9448818897637795
                    },
                    {
                        "number": 7,
                        "time": 73.23281249999985,
                        "value": 0.937007874015748
                    },
                    {
                        "number": 7,
                        "time": 73.25859374999985,
                        "value": 0.9291338582677166
                    },
                    {
                        "number": 7,
                        "time": 73.28437499999984,
                        "value": 0.9212598425196851
                    },
                    {
                        "number": 7,
                        "time": 73.31015624999984,
                        "value": 0.9133858267716536
                    },
                    {
                        "number": 7,
                        "time": 73.36171874999984,
                        "value": 0.905511811023622
                    },
                    {
                        "number": 7,
                        "time": 73.38749999999983,
                        "value": 0.8976377952755905
                    },
                    {
                        "number": 7,
                        "time": 73.41328124999983,
                        "value": 0.889763779527559
                    },
                    {
                        "number": 7,
                        "time": 73.43906249999982,
                        "value": 0.8818897637795275
                    },
                    {
                        "number": 7,
                        "time": 73.46484374999982,
                        "value": 0.8740157480314961
                    },
                    {
                        "number": 7,
                        "time": 73.49062499999981,
                        "value": 0.8661417322834646
                    },
                    {
                        "number": 7,
                        "time": 73.54218749999981,
                        "value": 0.8582677165354331
                    },
                    {
                        "number": 7,
                        "time": 73.5679687499998,
                        "value": 0.8503937007874016
                    },
                    {
                        "number": 7,
                        "time": 73.5937499999998,
                        "value": 0.84251968503937
                    },
                    {
                        "number": 7,
                        "time": 73.6195312499998,
                        "value": 0.8346456692913385
                    },
                    {
                        "number": 7,
                        "time": 73.64531249999979,
                        "value": 0.8267716535433071
                    },
                    {
                        "number": 7,
                        "time": 73.67109374999978,
                        "value": 0.8188976377952756
                    },
                    {
                        "number": 7,
                        "time": 73.72265624999979,
                        "value": 0.8110236220472441
                    },
                    {
                        "number": 7,
                        "time": 73.74843749999978,
                        "value": 0.8031496062992126
                    },
                    {
                        "number": 7,
                        "time": 73.77421874999979,
                        "value": 0.7952755905511811
                    },
                    {
                        "number": 7,
                        "time": 73.79999999999978,
                        "value": 0.7874015748031497
                    }
                ],
                "10": [
                    {
                        "number": 10,
                        "time": 0,
                        "value": 0.7086614173228346
                    }
                ],
                "91": [
                    {
                        "number": 91,
                        "time": 0,
                        "value": 0.5905511811023622
                    }
                ],
                "93": [
                    {
                        "number": 93,
                        "time": 0,
                        "value": 1
                    }
                ],
                "121": [
                    {
                        "number": 121,
                        "time": 0,
                        "value": 1
                    },
                    {
                        "number": 121,
                        "time": 74.99999999999977,
                        "value": 1
                    }
                ]
            },
            "id": 4,
            "name": "Basses",
            "instrumentNumber": 52,
            "instrument": "choir aahs",
            "instrumentFamily": "ensemble",
            "channelNumber": 3,
            "isPercussion": false
        },
        {
            "startTime": 0,
            "duration": 0,
            "length": 0,
            "notes": [],
            "controlChanges": {},
            "id": 5,
            "name": "seq by David Siu dss@po.cwru.edu"
        }
    ]
}